<svg width="40" height="40" viewBox="0 0 40 40" fill="none" xmlns="http://www.w3.org/2000/svg">
<rect x="1" y="7" width="38" height="27.4444" rx="4" fill="#F7F7F7"/>
<path fill-rule="evenodd" clip-rule="evenodd" d="M11.3654 14.8882L13.8223 19.2364V21.8875L11.3694 26.2272L11.3654 14.8882Z" fill="#5B57A2"/>
<path fill-rule="evenodd" clip-rule="evenodd" d="M20.7963 17.6544L23.0976 16.2573L27.8064 16.2538L20.7963 20.5075V17.6544Z" fill="#D90751"/>
<path fill-rule="evenodd" clip-rule="evenodd" d="M20.7838 14.8631L20.7965 20.6189L18.3347 19.1212V10.516L20.7838 14.8631Z" fill="#FAB718"/>
<path fill-rule="evenodd" clip-rule="evenodd" d="M27.8064 16.2538L23.0976 16.2573L20.7838 14.8631L18.3347 10.516L27.8064 16.2538Z" fill="#ED6F26"/>
<path fill-rule="evenodd" clip-rule="evenodd" d="M20.7963 26.2519V23.4588L18.3347 21.9895L18.3351 30.6023L20.7963 26.2519Z" fill="#63B22F"/>
<path fill-rule="evenodd" clip-rule="evenodd" d="M23.0916 24.8673L13.8223 19.2364L11.3654 14.8882L27.7969 24.8619L23.0916 24.8673Z" fill="#1487C9"/>
<path fill-rule="evenodd" clip-rule="evenodd" d="M18.3351 30.6023L20.7963 26.2519L23.0916 24.8673L27.7969 24.8619L18.3351 30.6023Z" fill="#017F36"/>
<path fill-rule="evenodd" clip-rule="evenodd" d="M11.3694 26.2272L18.3538 21.9892L16.0051 20.5623L13.8223 21.8875L11.3694 26.2272Z" fill="#984995"/>
</svg>
