<svg width="24.000000" height="24.000000" viewBox="0 0 24 24" fill="none" xmlns="http://www.w3.org/2000/svg" xmlns:xlink="http://www.w3.org/1999/xlink">
	<desc>
			Created with Pixso.
	</desc>
	<defs>
		<clipPath id="clip127988_798">
			<rect id="Outline / Admin Outline" width="24.000000" height="24.000000" fill="white" fill-opacity="0"/>
		</clipPath>
	</defs>
	<g>
		<path id="Shape" d="M18.94 6.87C21.89 10.87 21.04 16.5 17.05 19.45C13.05 22.41 7.41 21.56 4.46 17.56C1.51 13.56 2.36 7.93 6.35 4.97C10.35 2.02 15.99 2.87 18.94 6.87ZM16.27 18.41C19.69 15.88 20.42 11.06 17.89 7.64C15.37 4.22 10.55 3.49 7.13 6.02C4.66 7.84 3.59 10.86 4.14 13.68L6.38 12.02C6.39 12.02 6.42 11.99 6.42 11.93C6.5 10.41 7.24 8.93 8.56 7.96C10.15 6.78 12.19 6.63 13.88 7.39C14.34 7.6 14.58 8.02 14.59 8.45C14.61 8.87 14.42 9.29 14.05 9.55L11.52 11.43C11.5 11.44 11.49 11.47 11.51 11.49L12.33 12.61C12.35 12.63 12.38 12.63 12.4 12.62L14.93 10.75C15.3 10.48 15.75 10.42 16.15 10.55C16.55 10.7 16.89 11.05 16.95 11.55C17.18 13.38 16.44 15.29 14.84 16.47C13.52 17.44 11.89 17.71 10.41 17.34C10.35 17.33 10.32 17.34 10.31 17.35L8.07 19.01C10.61 20.36 13.81 20.23 16.27 18.41ZM6.91 18.25L9.54 16.3C9.9 16.04 10.35 15.99 10.73 16.08C11.85 16.36 13.07 16.16 14.07 15.42C15.24 14.56 15.8 13.17 15.67 11.82L13.17 13.66C12.57 14.11 11.73 13.98 11.28 13.38L10.46 12.27C10.02 11.67 10.15 10.82 10.75 10.38L13.24 8.53C11.99 8.01 10.5 8.14 9.33 9C8.33 9.74 7.78 10.85 7.72 12C7.7 12.4 7.52 12.8 7.16 13.07L4.53 15.01C4.77 15.63 5.09 16.23 5.51 16.79C5.92 17.35 6.39 17.83 6.91 18.25Z" fill="#717681" fill-opacity="1.000000" fill-rule="evenodd"/>
	</g>
</svg>
