<svg width="24.000000" height="24.000000" viewBox="0 0 24 24" fill="none" xmlns="http://www.w3.org/2000/svg" xmlns:xlink="http://www.w3.org/1999/xlink">
	<desc>
			Created with Pixso.
	</desc>
	<defs>
		<clipPath id="clip108443_1119">
			<rect id="Outline / Arrow Down One Outline" width="24.000000" height="24.000000" fill="white" fill-opacity="0"/>
		</clipPath>
	</defs>
	<g >
		<path id="Shape" d="M20.95 0.69C20.95 0.46 20.82 0.24 20.62 0.12C20.41 0.01 20.16 0.02 19.96 0.14L17.3 1.8C17 1.99 16.91 2.39 17.1 2.7C17.29 3 17.69 3.09 17.99 2.9L19.65 1.87L19.65 7.37C19.65 7.73 19.94 8.02 20.3 8.02C20.66 8.02 20.95 7.73 20.95 7.37L20.95 0.69ZM6.03 11.02C5.89 11.15 5.82 11.32 5.82 11.5C5.82 11.66 5.87 11.81 5.99 11.94L11.48 17.98C11.76 18.29 12.24 18.29 12.52 17.98L18.01 11.94C18.25 11.67 18.23 11.26 17.97 11.02C17.7 10.78 17.29 10.79 17.05 11.06L12.65 15.89L12.65 5C12.65 4.64 12.35 4.35 12 4.35C11.64 4.35 11.35 4.64 11.35 5L11.35 15.89L6.95 11.06C6.71 10.8 6.3 10.78 6.03 11.02Z" fill="#74767B" fill-opacity="1.000000" fill-rule="evenodd"/>
	</g>
</svg>
