<svg width="24.000000" height="24.000000" viewBox="0 0 24 24" fill="none" xmlns="http://www.w3.org/2000/svg" xmlns:xlink="http://www.w3.org/1999/xlink">
	<desc>
			Created with Pixso.
	</desc>
	<defs>
		<clipPath id="clip107735_1245">
			<rect id="Solid / Arrow Up Two Solid" width="24.000000" height="24.000000" fill="white" fill-opacity="0"/>
		</clipPath>
	</defs>
	<g clip-path="url(#clip107735_1245)">
		<path id="Shape" d="M20.51 12.54C20.71 12.66 20.98 12.54 20.99 12.31C20.99 12.2 21 12.1 21 12C21 7.02 16.97 3 12 3C7.02 3 3 7.02 3 12C3 16.97 7.02 21 12 21C12.1 21 12.2 20.99 12.31 20.99C12.54 20.98 12.66 20.71 12.54 20.51C12.1 19.79 11.81 18.97 11.73 18.09C11.5 17.98 11.35 17.76 11.35 17.5L11.35 9.09L8.55 12C8.3 12.26 7.89 12.26 7.63 12.02C7.37 11.77 7.37 11.35 7.62 11.1L11.53 7.03C11.62 6.94 11.72 6.88 11.84 6.85C11.86 6.85 11.87 6.84 11.89 6.84C11.95 6.83 12.02 6.83 12.08 6.84C12.1 6.84 12.12 6.84 12.14 6.85C12.26 6.87 12.37 6.94 12.46 7.03L16.97 11.72C17.15 11.7 17.32 11.7 17.5 11.7C18.6 11.7 19.63 12 20.51 12.54ZM12.64 14.31L12.64 9.09L15.49 12.05C14.32 12.48 13.32 13.28 12.64 14.31ZM17.5 22C19.98 22 22 19.98 22 17.5C22 15.01 19.98 13 17.5 13C15.01 13 13 15.01 13 17.5C13 19.98 15.01 22 17.5 22ZM17.03 16.26C17.28 16.05 17.66 16.1 17.84 16.37C18 16.6 17.97 16.91 17.77 17.1L15.84 18.91C15.65 19.09 15.59 19.37 15.68 19.62C15.78 19.87 16.02 20.03 16.29 20.03L18.97 20.03C19.33 20.03 19.62 19.74 19.62 19.38C19.62 19.02 19.33 18.73 18.97 18.73L17.93 18.73L18.66 18.04C19.33 17.41 19.44 16.38 18.91 15.63C18.29 14.73 17.03 14.56 16.19 15.26L15.87 15.53C15.6 15.76 15.56 16.17 15.79 16.44C16.02 16.72 16.43 16.76 16.7 16.53L17.03 16.26Z" fill="#74767B" fill-opacity="1.000000" fill-rule="evenodd"/>
	</g>
</svg>
