<svg width="24.000000" height="24.000000" viewBox="0 0 24 24" fill="none" xmlns="http://www.w3.org/2000/svg" xmlns:xlink="http://www.w3.org/1999/xlink">
	<desc>
			Created with Pixso.
	</desc>
	<defs>
		<clipPath id="clip108443_1122">
			<rect id="Outline / Arrow Up Two Outline" width="24.000000" height="24.000000" fill="white" fill-opacity="0"/>
		</clipPath>
	</defs>
	<g clip-path="url(#clip108443_1122)">
		<path id="Shape" d="M19.46 1.79C19.94 1.27 20.8 1.36 21.16 1.97C21.39 2.38 21.34 2.89 21.02 3.23L17.62 6.93C17.44 7.12 17.4 7.4 17.5 7.63C17.6 7.87 17.84 8.02 18.09 8.02L22.36 8.02C22.72 8.02 23.01 7.73 23.01 7.37C23.01 7.01 22.72 6.72 22.36 6.72L19.58 6.72L21.98 4.11C22.68 3.35 22.81 2.21 22.28 1.32C21.48 -0.05 19.58 -0.26 18.5 0.91L18.11 1.34C17.87 1.6 17.89 2.01 18.15 2.25C18.42 2.5 18.83 2.48 19.07 2.21L19.46 1.79ZM5.82 11.96C5.82 12.14 5.89 12.31 6.03 12.44C6.3 12.68 6.71 12.66 6.95 12.4L11.35 7.56L11.35 18.46C11.35 18.81 11.64 19.11 12 19.11C12.35 19.11 12.65 18.81 12.65 18.46L12.65 7.56L17.05 12.4C17.29 12.67 17.7 12.68 17.97 12.44C18.23 12.2 18.25 11.79 18.01 11.52L12.52 5.48C12.24 5.17 11.76 5.17 11.48 5.48L5.99 11.52C5.87 11.65 5.82 11.8 5.82 11.96Z" fill="#74767B" fill-opacity="1.000000" fill-rule="evenodd"/>
	</g>
</svg>
