<svg width="24.000000" height="24.000000" viewBox="0 0 24 24" fill="none" xmlns="http://www.w3.org/2000/svg" xmlns:xlink="http://www.w3.org/1999/xlink">
	<desc>
			Created with Pixso.
	</desc>
	<defs>
		<clipPath id="clip107735_1243">
			<rect id="Solid / Arrow Down Two Solid" width="24.000000" height="24.000000" fill="white" fill-opacity="0"/>
		</clipPath>
	</defs>
	<g clip-path="url(#clip107735_1243)">
		<path id="Shape" d="M20.99 12.31C20.98 12.54 20.71 12.66 20.51 12.54C19.63 12 18.6 11.7 17.5 11.7C15.47 11.7 13.68 12.74 12.64 14.31L12.64 8C12.64 7.64 12.35 7.35 12 7.35C11.64 7.35 11.35 7.64 11.35 8L11.35 14.95L8.55 12.05C8.3 11.79 7.89 11.78 7.63 12.03C7.37 12.28 7.37 12.69 7.62 12.95L11.53 17.01C11.58 17.07 11.64 17.11 11.71 17.15C11.7 17.26 11.7 17.38 11.7 17.5C11.7 18.6 12 19.63 12.54 20.51C12.66 20.71 12.54 20.98 12.31 20.99C12.2 20.99 12.1 21 12 21C7.02 21 3 16.97 3 12C3 7.02 7.02 3 12 3C16.97 3 21 7.02 21 12C21 12.1 20.99 12.2 20.99 12.31ZM22 17.5C22 19.98 19.98 22 17.5 22C15.01 22 13 19.98 13 17.5C13 15.01 15.01 13 17.5 13C19.98 13 22 15.01 22 17.5ZM17.84 16.37C17.66 16.1 17.28 16.05 17.03 16.26L16.7 16.53C16.43 16.76 16.02 16.72 15.79 16.44C15.56 16.17 15.6 15.76 15.87 15.53L16.19 15.26C17.03 14.56 18.29 14.73 18.91 15.63C19.44 16.38 19.33 17.41 18.66 18.04L17.93 18.73L18.97 18.73C19.33 18.73 19.62 19.02 19.62 19.38C19.62 19.74 19.33 20.03 18.97 20.03L16.29 20.03C16.02 20.03 15.78 19.87 15.68 19.62C15.59 19.37 15.65 19.09 15.84 18.91L17.77 17.1C17.97 16.91 18 16.6 17.84 16.37Z" fill="#717681" fill-opacity="1.000000" fill-rule="evenodd"/>
	</g>
</svg>
