<svg width="24.000000" height="24.000000" viewBox="0 0 24 24" fill="none" xmlns="http://www.w3.org/2000/svg" xmlns:xlink="http://www.w3.org/1999/xlink">
	<desc>
			Created with Pixso.
	</desc>
	<defs>
		<clipPath id="clip17_1447">
			<rect id="Solid / Arrows Horizontal Solid" width="24.000000" height="24.000000" fill="white" fill-opacity="0"/>
		</clipPath>
	</defs>
	<g clip-path="url(#clip17_1447)">
		<path id="Shape" d="M2 7C2 5.34 3.34 4 5 4L19 4C20.65 4 22 5.34 22 7L22 17C22 18.65 20.65 20 19 20L5 20C3.34 20 2 18.65 2 17L2 7ZM8.42 8.43L9.86 7.16C10.14 6.91 10.16 6.48 9.92 6.2C9.67 5.93 9.24 5.9 8.96 6.15L6.21 8.59C6.06 8.73 5.98 8.91 5.98 9.1C5.98 9.29 6.06 9.48 6.21 9.61L8.96 12.06C9.24 12.3 9.67 12.28 9.92 12C10.16 11.72 10.14 11.3 9.86 11.05L8.42 9.78L15.88 9.78C16.25 9.78 16.55 9.47 16.55 9.1C16.55 8.73 16.25 8.43 15.88 8.43L8.42 8.43ZM14.12 12.93L15.56 14.2L8.21 14.2C7.84 14.2 7.54 14.5 7.54 14.88C7.54 15.25 7.84 15.55 8.21 15.55L15.56 15.55L14.12 16.82C13.85 17.07 13.82 17.5 14.07 17.77C14.31 18.05 14.74 18.08 15.02 17.83L17.77 15.39C17.92 15.25 18 15.06 18 14.88C18 14.69 17.92 14.5 17.77 14.37L15.02 11.92C14.74 11.68 14.31 11.7 14.07 11.98C13.82 12.26 13.85 12.68 14.12 12.93Z" fill="#74767B" fill-opacity="1.000000" fill-rule="evenodd"/>
	</g>
</svg>
