<svg width="24.000000" height="24.000000" viewBox="0 0 24 24" fill="none" xmlns="http://www.w3.org/2000/svg" xmlns:xlink="http://www.w3.org/1999/xlink">
	<desc>
			Created with Pixso.
	</desc>
	<defs>
		<clipPath id="clip17_1645">
			<rect id="Solid / Arrows Vertical Solid" width="24.000000" height="24.000000" fill="white" fill-opacity="0"/>
		</clipPath>
	</defs>
	<g>
		<path id="Shape" d="M3 12C3 16.97 7.02 21 12 21C16.97 21 21 16.97 21 12C21 7.02 16.97 3 12 3C7.02 3 3 7.02 3 12ZM11.82 13.13C11.96 13.26 12.03 13.43 12.03 13.61C12.03 13.77 11.98 13.92 11.86 14.05L9.28 16.76C9 17.07 8.52 17.07 8.24 16.76L5.78 14.05C5.54 13.78 5.56 13.37 5.82 13.13C6.09 12.89 6.5 12.9 6.74 13.17L8.11 14.72C8.11 12.87 8.12 12.23 8.12 11.46C8.13 10.84 8.13 10.13 8.13 8.62C8.13 8.26 8.42 7.97 8.78 7.97C9.14 7.97 9.43 8.26 9.43 8.62L9.42 14.72L10.9 13.17C11.14 12.91 11.55 12.89 11.82 13.13ZM18.17 10.85C18.31 10.72 18.38 10.55 18.38 10.37C18.38 10.21 18.33 10.06 18.21 9.93L15.63 7.22C15.35 6.91 14.87 6.91 14.59 7.22L12.13 9.93C11.89 10.2 11.91 10.61 12.17 10.85C12.44 11.09 12.85 11.08 13.09 10.81L14.46 9.26C14.46 11.08 14.47 11.73 14.47 12.47C14.47 13.1 14.48 13.79 14.48 15.34C14.48 15.7 14.77 15.99 15.13 15.99C15.49 15.99 15.78 15.69 15.78 15.34L15.76 9.26L17.25 10.81C17.49 11.07 17.9 11.09 18.17 10.85Z" fill="#717681" fill-opacity="1.000000" fill-rule="evenodd"/>
	</g>
</svg>
