<svg width="24.000000" height="24.000000" viewBox="0 0 24 24" fill="none" xmlns="http://www.w3.org/2000/svg" xmlns:xlink="http://www.w3.org/1999/xlink">
	<desc>
			Created with Pixso.
	</desc>
	<defs>
		<clipPath id="clip17_1417">
			<rect id="Outline / Arrow Up Outline" width="24.000000" height="24.000000" fill="white" fill-opacity="0"/>
		</clipPath>
	</defs>
	<g clip-path="url(#clip17_1417)">
		<path id="Shape" d="M6.03 12.44C5.89 12.31 5.82 12.14 5.82 11.96C5.82 11.8 5.87 11.65 5.99 11.52L11.48 5.48C11.76 5.17 12.24 5.17 12.52 5.48L18.01 11.52C18.25 11.79 18.23 12.2 17.97 12.44C17.7 12.68 17.29 12.67 17.05 12.4L12.65 7.56L12.65 18.46C12.65 18.81 12.35 19.11 12 19.11C11.64 19.11 11.35 18.81 11.35 18.46L11.35 7.56L6.95 12.4C6.71 12.66 6.3 12.68 6.03 12.44Z" fill="#74767B" fill-opacity="1.000000" fill-rule="evenodd"/>
	</g>
</svg>
