<svg width="24.000000" height="24.000000" viewBox="0 0 24 24" fill="none" xmlns="http://www.w3.org/2000/svg" xmlns:xlink="http://www.w3.org/1999/xlink">
	<desc>
			Created with Pixso.
	</desc>
	<defs>
		<clipPath id="clip17_1402">
			<rect id="Solid / Arrow Left Solid" width="24.000000" height="24.000000" fill="white" fill-opacity="0"/>
		</clipPath>
	</defs>
	<g clip-path="url(#clip17_1402)">
		<path id="Shape" d="M21 12C21 7.02 16.97 3 12 3C7.02 3 3 7.02 3 12C3 16.97 7.02 21 12 21C16.97 21 21 16.97 21 12ZM11.5 16.55C11.68 16.55 11.85 16.48 11.98 16.34C12.22 16.07 12.2 15.66 11.93 15.42L9.05 12.59L16 12.59C16.35 12.59 16.64 12.3 16.64 11.94C16.64 11.58 16.35 11.29 16 11.29L9.05 11.29L11.96 8.47C12.23 8.23 12.24 7.82 12 7.55C11.75 7.29 11.35 7.27 11.08 7.51L7.02 11.42C6.7 11.7 6.7 12.18 7.02 12.46L11.06 16.38C11.18 16.5 11.33 16.55 11.5 16.55Z" fill="#74767B" fill-opacity="1.000000" fill-rule="evenodd"/>
	</g>
</svg>
