<svg width="24.000000" height="24.000000" viewBox="0 0 24 24" fill="none" xmlns="http://www.w3.org/2000/svg" xmlns:xlink="http://www.w3.org/1999/xlink">
	<desc>
			Created with Pixso.
	</desc>
	<defs>
		<clipPath id="clip17_1405">
			<rect id="Solid / Arrow Up Solid" width="24.000000" height="24.000000" fill="white" fill-opacity="0"/>
		</clipPath>
	</defs>
	<g clip-path="url(#clip17_1405)">
		<path id="Shape" d="M12 21C16.97 21 21 16.97 21 12C21 7.02 16.97 3 12 3C7.02 3 3 7.02 3 12C3 16.97 7.02 21 12 21ZM7.44 11.5C7.44 11.68 7.51 11.85 7.65 11.98C7.92 12.22 8.33 12.2 8.57 11.94L11.4 9.05L11.4 16C11.4 16.35 11.69 16.65 12.05 16.65C12.41 16.65 12.7 16.35 12.7 16L12.7 9.05L15.52 11.96C15.76 12.23 16.17 12.24 16.44 12C16.7 11.76 16.72 11.35 16.48 11.08L12.57 7.02C12.29 6.71 11.81 6.71 11.53 7.02L7.61 11.06C7.49 11.19 7.44 11.34 7.44 11.5Z" fill="#74767B" fill-opacity="1.000000" fill-rule="evenodd"/>
	</g>
</svg>
