<svg width="24.000000" height="24.000000" viewBox="0 0 24 24" fill="none" xmlns="http://www.w3.org/2000/svg" xmlns:xlink="http://www.w3.org/1999/xlink">
	<desc>
			Created with Pixso.
	</desc>
	<defs>
		<clipPath id="clip17_1460">
			<rect id="Outline / Attach File Outline" width="24.000000" height="24.000000" fill="white" fill-opacity="0"/>
		</clipPath>
	</defs>
	<g >
		<path id="Shape" d="M15.85 5.21C14.93 4.29 13.45 4.29 12.53 5.21L6.38 11.36C4.95 12.78 4.95 15.1 6.38 16.52L7.72 17.86C9.14 19.29 11.46 19.29 12.88 17.86L18.68 12.07C18.93 11.81 19.34 11.81 19.6 12.07C19.85 12.32 19.85 12.73 19.6 12.99L13.8 18.78C11.87 20.72 8.73 20.72 6.8 18.78L5.46 17.44C3.52 15.51 3.52 12.37 5.46 10.44L11.61 4.29C13.03 2.86 15.34 2.86 16.77 4.29L17.48 4.99C18.9 6.42 18.9 8.73 17.48 10.16L11.68 15.95C10.92 16.72 9.68 16.72 8.92 15.95L8.29 15.32C7.52 14.56 7.52 13.32 8.29 12.56L13.73 7.12C13.98 6.86 14.39 6.86 14.65 7.12C14.9 7.37 14.9 7.78 14.65 8.04L9.2 13.48C8.95 13.73 8.95 14.15 9.2 14.4L9.84 15.04C10.09 15.29 10.51 15.29 10.76 15.04L16.56 9.24C17.48 8.32 17.48 6.83 16.56 5.91L15.85 5.21Z" fill="#74767B" fill-opacity="1.000000" fill-rule="evenodd"/>
	</g>
</svg>
