<svg width="24.000000" height="24.000000" viewBox="0 0 24 24" fill="none" xmlns="http://www.w3.org/2000/svg" xmlns:xlink="http://www.w3.org/1999/xlink">
	<desc>
			Created with Pixso.
	</desc>
	<defs>
		<clipPath id="clip17_1639">
			<rect id="Solid / Back Solid" width="24.000000" height="24.000000" fill="white" fill-opacity="0"/>
		</clipPath>
	</defs>
	<g clip-path="url(#clip17_1639)">
		<path id="Shape" d="M12 21C16.97 21 21 16.97 21 12C21 7.02 16.97 3 12 3C7.02 3 3 7.02 3 12C3 16.97 7.02 21 12 21ZM10.45 8.25C10.71 8 10.71 7.59 10.45 7.34C10.2 7.08 9.79 7.08 9.54 7.34L6.54 10.34C6.28 10.59 6.28 11 6.54 11.25L9.54 14.25C9.79 14.51 10.2 14.51 10.45 14.25C10.71 14 10.71 13.59 10.45 13.34L8.56 11.45L13 11.45C14.29 11.45 15.35 12.5 15.35 13.8L15.35 15.3C15.35 15.65 15.64 15.95 16 15.95C16.35 15.95 16.64 15.65 16.64 15.3L16.64 13.8C16.64 11.78 15.01 10.15 13 10.15L8.56 10.15L10.45 8.25Z" fill="#74767B" fill-opacity="1.000000" fill-rule="evenodd"/>
	</g>
</svg>
