<svg width="24" height="24" viewBox="0 0 24 24" fill="none" xmlns="http://www.w3.org/2000/svg">
<path d="M8.78998 2.59995C8.78998 2.24097 8.49897 1.94995 8.13998 1.94995C7.781 1.94995 7.48998 2.24097 7.48998 2.59995V3.98996H7C5.34 3.98996 4 5.32996 4 6.98996V8.64996C4 9.03996 4.31 9.34996 4.7 9.34996H19.3C19.69 9.34996 20 9.03996 20 8.64996V6.98996C20 5.32996 18.65 3.98996 17 3.98996H16.5V2.59995C16.5 2.24097 16.209 1.94995 15.85 1.94995C15.491 1.94995 15.2 2.24097 15.2 2.59995V3.98996H12.65V2.59995C12.65 2.24097 12.359 1.94995 12 1.94995C11.641 1.94995 11.35 2.24097 11.35 2.59995V3.98996H8.78998V2.59995Z" fill="#717681"/>
<path fill-rule="evenodd" clip-rule="evenodd" d="M4.7 10.65H19.3C19.68 10.65 20 10.96 20 11.35V17.12C20 18.78 18.66 20.12 17 20.12H7C5.34 20.12 4 18.78 4 17.12V11.35C4 10.96 4.31 10.65 4.7 10.65ZM10.42 16.52C10.81 16.52 11.12 16.21 11.12 15.82V14.5C11.12 14.11 10.81 13.8 10.42 13.8H8.09999C7.70999 13.8 7.39999 14.11 7.39999 14.5V15.82C7.39999 16.21 7.70999 16.52 8.09999 16.52H10.42Z" fill="#717681"/>
</svg>
