<svg width="24.000000" height="24.000000" viewBox="0 0 24 24" fill="none" xmlns="http://www.w3.org/2000/svg" xmlns:xlink="http://www.w3.org/1999/xlink">
	<desc>
			Created with Pixso.
	</desc>
	<defs>
		<clipPath id="clip17_1695">
			<rect id="Solid / Calendar Update Solid" width="24.000000" height="24.000000" fill="white" fill-opacity="0"/>
		</clipPath>
	</defs>
	<g clip-path="url(#clip17_1695)">
		<path id="Shape" d="M8.79 2.59C8.79 2.24 8.49 1.94 8.14 1.94C7.78 1.94 7.48 2.24 7.48 2.59L7.48 3.98L7 3.98C5.33 3.98 4 5.32 4 6.98L4 8.64C4 9.03 4.31 9.34 4.7 9.34L19.29 9.34C19.68 9.34 20 9.03 20 8.64L20 6.98C20 5.32 18.64 3.98 17 3.98L16.5 3.98L16.5 2.59C16.5 2.24 16.2 1.94 15.85 1.94C15.49 1.94 15.2 2.24 15.2 2.59L15.2 3.98L12.64 3.98L12.64 2.59C12.64 2.24 12.35 1.94 12 1.94C11.64 1.94 11.35 2.24 11.35 2.59L11.35 3.98L8.79 3.98L8.79 2.59ZM4.7 10.62L19.29 10.62C19.68 10.62 20 10.93 20 11.32L20 12.31C20 12.52 19.79 12.67 19.59 12.61C19.06 12.46 18.5 12.38 17.92 12.38C14.56 12.38 11.84 15.1 11.84 18.45C11.84 18.85 11.88 19.24 11.95 19.62C11.99 19.81 11.85 20 11.65 20L7 20C5.34 20 4 18.65 4 17L4 11.32C4 10.93 4.31 10.62 4.7 10.62ZM16.11 19.09L15.61 18.6C15.82 19.8 16.86 20.7 18.12 20.7C19.53 20.7 20.67 19.56 20.67 18.15C20.67 16.74 19.53 15.6 18.12 15.6C17.83 15.6 17.54 15.65 17.28 15.74C16.94 15.86 16.57 15.68 16.46 15.34C16.34 15 16.52 14.63 16.86 14.51C17.25 14.37 17.68 14.3 18.12 14.3C20.25 14.3 21.97 16.02 21.97 18.15C21.97 20.28 20.25 22 18.12 22C16.18 22 14.57 20.57 14.31 18.7L13.9 19.11C13.65 19.37 13.24 19.37 12.98 19.12C12.72 18.87 12.72 18.46 12.97 18.2L14.52 16.62C14.77 16.37 15.18 16.36 15.44 16.62L17.02 18.17C17.27 18.42 17.28 18.83 17.03 19.08C16.78 19.34 16.36 19.34 16.11 19.09Z" fill="#74767B" fill-opacity="1.000000" fill-rule="evenodd"/>
	</g>
</svg>
