<svg width="24.000000" height="24.000000" viewBox="0 0 24 24" fill="none" xmlns="http://www.w3.org/2000/svg" xmlns:xlink="http://www.w3.org/1999/xlink">
	<desc>
			Created with Pixso.
	</desc>
	<defs>
		<clipPath id="clip17_1475">
			<rect id="Solid / Camera Remove Solid" width="24.000000" height="24.000000" fill="white" fill-opacity="0"/>
		</clipPath>
	</defs>
	<g >
		<path id="Shape" d="M18.88 4.03C19.1 3.74 19.05 3.34 18.77 3.12C18.48 2.9 18.07 2.95 17.85 3.23L16.1 5.51C15.57 4.65 14.62 4.09 13.55 4.09L10.44 4.09C9.17 4.09 8.08 4.88 7.65 6L6 6C4.34 6 3 7.34 3 9L3 17C3 18.31 3.84 19.43 5.02 19.83L4.16 20.95C3.94 21.23 4 21.64 4.28 21.86C4.56 22.08 4.97 22.03 5.19 21.74L18.88 4.03ZM11.05 17.06C11.36 17.13 11.68 17.17 12.01 17.17C14.36 17.17 16.26 15.26 16.26 12.92C16.26 12.2 16.08 11.53 15.77 10.94C15.63 10.67 15.64 10.34 15.82 10.1L18.59 6.52C18.77 6.28 19.08 6.18 19.34 6.31C20.32 6.81 21 7.82 21 9L21 17C21 18.65 19.65 20 18 20L9.6 20C9.02 20 8.69 19.33 9.05 18.87L10.25 17.32C10.43 17.08 10.75 16.99 11.05 17.06ZM18.44 8.64C17.89 8.64 17.44 9.09 17.44 9.64C17.44 10.19 17.89 10.64 18.44 10.64C18.99 10.64 19.44 10.19 19.44 9.64C19.44 9.09 18.99 8.64 18.44 8.64ZM8.51 15.33L9.36 14.22C9.17 13.83 9.06 13.38 9.06 12.92C9.06 11.29 10.38 9.97 12.01 9.97C12.21 9.97 12.41 9.99 12.6 10.03L13.46 8.92C13.01 8.76 12.52 8.67 12.01 8.67C9.66 8.67 7.76 10.57 7.76 12.92C7.76 13.81 8.04 14.64 8.51 15.33ZM14.83 12.06C14.77 11.84 14.5 11.81 14.36 11.99L11.71 15.43C11.57 15.6 11.67 15.85 11.89 15.86C11.93 15.87 11.97 15.87 12.01 15.87C13.64 15.87 14.96 14.55 14.96 12.92C14.96 12.62 14.91 12.33 14.83 12.06Z" fill="#74767B" fill-opacity="1.000000" fill-rule="evenodd"/>
	</g>
</svg>
