<svg width="24.000000" height="24.000000" viewBox="0 0 24 24" fill="none" xmlns="http://www.w3.org/2000/svg" xmlns:xlink="http://www.w3.org/1999/xlink">
	<desc>
			Created with Pixso.
	</desc>
	<defs>
		<clipPath id="clip17_1478">
			<rect id="Outline / Camera Outline" width="24.000000" height="24.000000" fill="white" fill-opacity="0"/>
		</clipPath>
	</defs>
	<g clip-path="url(#clip17_1478)">
		<path id="Shape" d="M7.65 5.96L6 5.96C4.34 5.96 3 7.3 3 8.96L3 16.96C3 18.61 4.34 19.96 6 19.96L18 19.96C19.65 19.96 21 18.61 21 16.96L21 8.96C21 7.3 19.65 5.96 18 5.96L16.34 5.96C15.91 4.84 14.82 4.05 13.55 4.05L10.44 4.05C9.17 4.05 8.08 4.84 7.65 5.96ZM15.46 7.26L15.13 6.43C14.88 5.8 14.27 5.35 13.55 5.35L10.44 5.35C9.72 5.35 9.11 5.8 8.86 6.43L8.54 7.26L6 7.26C5.06 7.26 4.29 8.02 4.29 8.96L4.29 16.96C4.29 17.9 5.06 18.66 6 18.66L18 18.66C18.93 18.66 19.7 17.9 19.7 16.96L19.7 8.96C19.7 8.02 18.93 7.26 18 7.26L15.46 7.26ZM12.01 17.13C14.36 17.13 16.26 15.23 16.26 12.88C16.26 10.53 14.36 8.63 12.01 8.63C9.66 8.63 7.76 10.53 7.76 12.88C7.76 15.23 9.66 17.13 12.01 17.13ZM16.62 9.63C16.62 9.08 17.07 8.63 17.62 8.63C18.17 8.63 18.61 9.08 18.61 9.63C18.61 10.18 18.17 10.63 17.62 10.63C17.07 10.63 16.62 10.18 16.62 9.63ZM12.01 15.83C13.64 15.83 14.96 14.51 14.96 12.88C14.96 11.25 13.64 9.93 12.01 9.93C10.38 9.93 9.06 11.25 9.06 12.88C9.06 14.51 10.38 15.83 12.01 15.83Z" fill="#717681" fill-opacity="1.000000" fill-rule="evenodd"/>
	</g>
</svg>
