<svg width="24.000000" height="24.000000" viewBox="0 0 24 24" fill="none" xmlns="http://www.w3.org/2000/svg" xmlns:xlink="http://www.w3.org/1999/xlink">
	<desc>
			Created with Pixso.
	</desc>
	<defs>
		<clipPath id="clip17_1472">
			<rect id="Solid / Camera Solid" width="24.000000" height="24.000000" fill="white" fill-opacity="0"/>
		</clipPath>
	</defs>
	<g clip-path="url(#clip17_1472)">
		<path id="Shape" d="M16.34 5.96L18 5.96C19.65 5.96 21 7.3 21 8.96L21 16.96C21 18.61 19.65 19.96 18 19.96L6 19.96C4.34 19.96 3 18.61 3 16.96L3 8.96C3 7.3 4.34 5.96 6 5.96L7.65 5.96C8.08 4.84 9.17 4.05 10.44 4.05L13.55 4.05C14.82 4.05 15.91 4.84 16.34 5.96ZM18 8.12C17.45 8.12 17 8.57 17 9.12C17 9.67 17.45 10.12 18 10.12C18.55 10.12 19 9.67 19 9.12C19 8.57 18.55 8.12 18 8.12ZM16.26 12.88C16.26 15.23 14.36 17.13 12.01 17.13C9.66 17.13 7.76 15.23 7.76 12.88C7.76 10.53 9.66 8.63 12.01 8.63C14.36 8.63 16.26 10.53 16.26 12.88ZM14.96 12.88C14.96 14.51 13.64 15.83 12.01 15.83C10.38 15.83 9.06 14.51 9.06 12.88C9.06 11.25 10.38 9.93 12.01 9.93C13.64 9.93 14.96 11.25 14.96 12.88Z" fill="#74767B" fill-opacity="1.000000" fill-rule="evenodd"/>
	</g>
</svg>
