<svg width="24.000000" height="24.000000" viewBox="0 0 24 24" fill="none" xmlns="http://www.w3.org/2000/svg" xmlns:xlink="http://www.w3.org/1999/xlink">
	<desc>
			Created with Pixso.
	</desc>
	<defs>
		<clipPath id="clip17_1393">
			<rect id="Solid / Chevron Left Solid" width="24.000000" height="24.000000" fill="white" fill-opacity="0"/>
		</clipPath>
	</defs>
	<g>
		<path id="Shape" d="M3 12C3 16.97 7.02 21 12 21C16.97 21 21 16.97 21 12C21 7.02 16.97 3 12 3C7.02 3 3 7.02 3 12ZM14.18 7.6C14.05 7.46 13.88 7.39 13.7 7.39C13.54 7.39 13.39 7.44 13.26 7.56L9.22 11.48C8.91 11.76 8.91 12.24 9.22 12.52L13.28 16.43C13.55 16.67 13.96 16.65 14.2 16.39C14.44 16.12 14.43 15.71 14.16 15.47L10.59 12L14.14 8.52C14.4 8.28 14.42 7.87 14.18 7.6Z" fill="#717681" fill-opacity="1.000000" fill-rule="evenodd"/>
	</g>
</svg>
