<svg width="24.000000" height="24.000000" viewBox="0 0 24 24" fill="none" xmlns="http://www.w3.org/2000/svg" xmlns:xlink="http://www.w3.org/1999/xlink">
	<desc>
			Created with Pixso.
	</desc>
	<defs/>
	<path id="Shape" d="M4 7C4 5.34 5.34 4 7 4L17 4C18.65 4 20 5.34 20 7L20 17C20 18.65 18.65 20 17 20L7 20C5.34 20 4 18.65 4 17L4 7ZM6.09 13.75C6.09 13.39 6.38 13.1 6.74 13.1L10.24 13.1C10.6 13.1 10.89 13.39 10.89 13.75L10.89 17.25C10.89 17.61 10.6 17.9 10.24 17.9C9.88 17.9 9.59 17.61 9.59 17.25L9.59 15.32L7.11 17.8C6.85 18.05 6.44 18.05 6.19 17.8C5.93 17.55 5.93 17.14 6.19 16.88L8.67 14.4L6.74 14.4C6.38 14.4 6.09 14.11 6.09 13.75ZM10.24 6.09C10.6 6.09 10.89 6.38 10.89 6.74L10.89 10.24C10.89 10.59 10.6 10.89 10.24 10.89L6.74 10.89C6.38 10.89 6.09 10.59 6.09 10.24C6.09 9.88 6.38 9.59 6.74 9.59L8.67 9.59L6.19 7.1C5.94 6.85 5.94 6.44 6.19 6.18C6.45 5.93 6.86 5.93 7.11 6.18L9.59 8.67L9.59 6.74C9.59 6.38 9.88 6.09 10.24 6.09ZM17.91 10.24C17.91 10.59 17.62 10.89 17.26 10.89L13.76 10.89C13.4 10.89 13.11 10.59 13.11 10.24L13.11 6.74C13.11 6.38 13.4 6.09 13.76 6.09C14.12 6.09 14.41 6.38 14.41 6.74L14.41 8.67L16.89 6.18C17.14 5.93 17.55 5.93 17.81 6.18C18.06 6.44 18.06 6.85 17.81 7.1L15.33 9.59L17.26 9.59C17.62 9.59 17.91 9.88 17.91 10.24ZM13.76 17.9C13.4 17.9 13.11 17.6 13.11 17.25L13.11 13.75C13.11 13.39 13.4 13.1 13.76 13.1L17.26 13.1C17.62 13.1 17.91 13.39 17.91 13.75C17.91 14.1 17.62 14.4 17.26 14.4L15.33 14.4L17.81 16.88C18.06 17.13 18.06 17.54 17.81 17.8C17.55 18.05 17.14 18.05 16.89 17.8L14.41 15.31L14.41 17.25C14.41 17.6 14.12 17.9 13.76 17.9Z" fill="#74767B" fill-opacity="1.000000" fill-rule="evenodd"/>
</svg>
