<svg width="24" height="24" viewBox="0 0 24 24" fill="none" xmlns="http://www.w3.org/2000/svg">
<path fill-rule="evenodd" clip-rule="evenodd" d="M5.33545 19.0307L10.593 19.0308C10.9796 19.0308 11.293 18.7174 11.293 18.3308L11.293 14.3271L9.91849 15.8776C9.67849 16.1476 9.26849 16.1576 8.99849 15.9176C8.73849 15.6776 8.71849 15.2676 8.95849 14.9976L11.423 12.2876C11.703 11.9776 12.183 11.9776 12.463 12.2876L15.0385 14.9976C15.1585 15.1276 15.2085 15.2776 15.2085 15.4376C15.2085 15.6176 15.1385 15.7876 14.9985 15.9176C14.7285 16.1576 14.3185 16.1376 14.0785 15.8776L12.593 14.32L12.593 18.3308C12.593 18.7174 12.9064 19.0308 13.293 19.0308H17.5536C20.0073 19.0306 21.9966 17.0412 21.9966 14.5875C21.9966 12.2942 20.2592 10.4068 18.0289 10.1696C17.9737 10.1637 17.9188 10.1527 17.866 10.1353C17.6153 10.0525 17.4336 9.83772 17.3691 9.5817C16.7016 6.93125 14.3023 4.96921 11.4446 4.96921C8.07062 4.96921 5.33545 7.70438 5.33545 11.0784C5.33545 11.2954 5.34677 11.5099 5.36885 11.7211C5.39874 12.0069 5.23766 12.285 4.96473 12.3752C4.92969 12.3867 4.89345 12.3948 4.85692 12.4C3.24315 12.632 2.00293 14.0203 2.00293 15.6982C2.00293 17.5386 3.49508 19.0307 5.33545 19.0307Z" fill="#717681"/>
</svg>
