<svg width="24" height="24" viewBox="0 0 24 24" fill="none" xmlns="http://www.w3.org/2000/svg">
<path d="M5.34194 18.3256L5.34074 18.3256L5.33569 18.3256C3.85431 18.3256 2.65342 17.1247 2.65342 15.6433C2.65342 14.162 3.85431 12.9611 5.33569 12.9611C5.80483 12.9611 6.17494 12.5343 6.0836 12.0575C6.01956 11.7232 5.98594 11.3776 5.98594 11.0235C5.98594 8.00846 8.43009 5.56431 11.4451 5.56431C14.1541 5.56431 16.4034 7.53816 16.831 10.1261C16.8894 10.4796 17.1952 10.7395 17.554 10.7395C19.6489 10.7395 21.3471 12.4377 21.3471 14.5326C21.3471 16.6274 19.6489 18.3256 17.554 18.3256L17.5479 18.3256H17.5468L5.34194 18.3256Z" stroke="#717681" stroke-width="1.3"/>
</svg>
