<svg width="24.000000" height="24.000000" viewBox="0 0 24 24" fill="none" xmlns="http://www.w3.org/2000/svg" xmlns:xlink="http://www.w3.org/1999/xlink">
	<desc>
			Created with Pixso.
	</desc>
	<defs>
		<clipPath id="clip127988_896">
			<rect id="Outline / Cloud Not Available Outline" width="24.000000" height="24.000000" fill="white" fill-opacity="0"/>
		</clipPath>
	</defs>
	<g clip-path="url(#clip127988_896)">
		<path id="Shape" d="M5.29 2.32C5.07 2.04 4.66 1.98 4.38 2.2C4.09 2.42 4.04 2.83 4.26 3.11L18.56 21.7C18.78 21.99 19.19 22.04 19.47 21.82C19.76 21.6 19.81 21.19 19.59 20.91L18.07 18.94C20.28 18.68 21.99 16.8 21.99 14.53C21.99 12.07 20 10.08 17.55 10.08C17.51 10.08 17.47 10.05 17.47 10.01C16.99 7.12 14.47 4.91 11.44 4.91C10.19 4.91 9.03 5.28 8.06 5.93L5.29 2.32ZM17.55 17.67L17.1 17.67L8.86 6.96C9.6 6.48 10.49 6.21 11.44 6.21C13.83 6.21 15.81 7.95 16.18 10.23C16.29 10.89 16.87 11.38 17.55 11.38C19.29 11.38 20.69 12.79 20.69 14.53C20.69 16.26 19.29 17.67 17.55 17.67ZM6.24 7.81C5.66 8.75 5.33 9.84 5.33 11.02C5.33 11.41 5.37 11.8 5.44 12.17C5.45 12.24 5.4 12.31 5.33 12.31C3.49 12.31 2 13.8 2 15.64C2 17.48 3.49 18.97 5.33 18.97L14.82 18.97L13.82 17.67L5.34 17.67L5.33 17.67L5.33 17.67C4.21 17.67 3.3 16.76 3.3 15.64C3.3 14.52 4.21 13.61 5.33 13.61C6.2 13.61 6.89 12.82 6.72 11.93C6.66 11.64 6.63 11.33 6.63 11.02C6.63 10.27 6.8 9.57 7.1 8.94L6.24 7.81Z" fill="#74767B" fill-opacity="1.000000" fill-rule="evenodd"/>
	</g>
</svg>
