<svg width="24" height="24" viewBox="0 0 24 24" fill="none" xmlns="http://www.w3.org/2000/svg">
<path d="M10.5782 16.4463C10.8582 16.7263 11.3182 16.7163 11.5882 16.4263L15.255 12.4599C15.495 12.1899 15.475 11.7799 15.215 11.5399C14.955 11.2999 14.535 11.3099 14.295 11.5799L11.0582 15.0863L9.12313 13.1401C8.87313 12.8901 8.45312 12.8901 8.20312 13.1401C7.95312 13.3901 7.95312 13.8101 8.20312 14.0601L10.5782 16.4463Z" fill="#717681"/>
<path fill-rule="evenodd" clip-rule="evenodd" d="M17.554 18.9756H5.33569C3.49533 18.9756 2.00342 17.4837 2.00342 15.6433C2.00342 13.803 3.49533 12.3111 5.33569 12.3111C5.40499 12.3111 5.45825 12.2478 5.44521 12.1798C5.37349 11.8054 5.33594 11.4188 5.33594 11.0235C5.33594 7.64948 8.07111 4.91431 11.4451 4.91431C14.4774 4.91431 16.9937 7.1235 17.4723 10.0202C17.4789 10.0601 17.5136 10.0895 17.554 10.0895C20.0079 10.0895 21.9971 12.0788 21.9971 14.5326C21.9971 16.9864 20.0079 18.9756 17.554 18.9756ZM5.34194 17.6756L5.33955 17.6756L5.33569 17.6756C4.2133 17.6756 3.30342 16.7657 3.30342 15.6433C3.30342 14.5209 4.2133 13.6111 5.33569 13.6111C6.20468 13.6111 6.89164 12.8207 6.72199 11.9352C6.66563 11.641 6.63594 11.3363 6.63594 11.0235C6.63594 8.36745 8.78908 6.21431 11.4451 6.21431C13.8309 6.21431 15.8131 7.95283 16.1897 10.2321C16.2999 10.899 16.8767 11.3895 17.554 11.3895C19.2899 11.3895 20.6971 12.7967 20.6971 14.5326C20.6971 16.2684 19.2899 17.6756 17.554 17.6756L17.5489 17.6756L5.34194 17.6756Z" fill="#717681"/>
</svg>
