<svg width="24.000000" height="24.000000" viewBox="0 0 24 24" fill="none" xmlns="http://www.w3.org/2000/svg" xmlns:xlink="http://www.w3.org/1999/xlink">
	<desc>
			Created with Pixso.
	</desc>
	<defs>
		<clipPath id="clip1095_1140">
			<rect id="Outline / Databases Outline" width="24.000000" height="24.000000" fill="white" fill-opacity="0"/>
		</clipPath>
	</defs>
	<g clip-path="url(#clip1095_1140)">
		<path id="Shape" d="M17.69 3.35C19.35 3.35 20.69 4.69 20.69 6.35L20.69 16.35C20.69 18 19.35 19.35 17.69 19.35L9.69 19.35C8.04 19.35 6.69 18 6.69 16.35L6.69 6.35C6.69 4.69 8.04 3.35 9.69 3.35L17.69 3.35ZM9.69 4.64L17.69 4.64C18.63 4.64 19.39 5.41 19.39 6.35L19.39 10.82L8 10.81L8 6.35C8 5.41 8.76 4.64 9.69 4.64ZM10.04 8.2C10.04 7.73 10.43 7.35 10.89 7.35C11.36 7.35 11.75 7.73 11.75 8.2C11.75 8.66 11.36 9.05 10.89 9.05C10.43 9.05 10.04 8.66 10.04 8.2ZM4.69 8.7C4.34 8.7 4.04 8.99 4.04 9.35L4.04 18.75C4.04 20.54 5.5 22 7.29 22L15.69 22C16.05 22 16.34 21.7 16.34 21.35C16.34 20.99 16.05 20.7 15.69 20.7L7.29 20.7C6.22 20.7 5.34 19.82 5.34 18.75L5.34 9.35C5.34 8.99 5.05 8.7 4.69 8.7ZM8 12.11L19.39 12.12L19.39 16.35C19.39 17.28 18.63 18.05 17.69 18.05L9.69 18.05C8.76 18.05 8 17.28 8 16.35L8 12.11ZM10.89 14.35C10.43 14.35 10.04 14.73 10.04 15.2C10.04 15.66 10.43 16.05 10.89 16.05C11.36 16.05 11.75 15.66 11.75 15.2C11.75 14.73 11.36 14.35 10.89 14.35Z" fill="#74767B" fill-opacity="1.000000" fill-rule="evenodd"/>
	</g>
</svg>
