<svg width="24" height="24" viewBox="0 0 24 24" fill="none" xmlns="http://www.w3.org/2000/svg">
<path d="M7.99906 16.4837C7.85906 16.3537 7.78906 16.1837 7.78906 16.0037C7.78906 15.8437 7.83906 15.6937 7.95906 15.5637L11.5453 11.5806C11.8253 11.2706 12.3053 11.2706 12.5853 11.5806L16.0431 15.5598C16.2831 15.8298 16.2631 16.2398 16.0031 16.4798C15.7331 16.7198 15.3231 16.7098 15.0831 16.4398L12.0653 12.9506L8.91906 16.4437C8.67906 16.7037 8.26906 16.7237 7.99906 16.4837Z" fill="#717681"/>
<path d="M7.99906 12.4837C7.85906 12.3537 7.78906 12.1837 7.78906 12.0037C7.78906 11.8437 7.83906 11.6937 7.95906 11.5637L11.5453 7.58059C11.8253 7.27059 12.3053 7.27059 12.5853 7.58059L16.0431 11.5598C16.2831 11.8298 16.2631 12.2398 16.0031 12.4798C15.7331 12.7198 15.3231 12.7098 15.0831 12.4398L12.0653 8.95059L8.91906 12.4437C8.67906 12.7037 8.26906 12.7237 7.99906 12.4837Z" fill="#717681"/>
</svg>
