<svg width="24.000000" height="24.000000" viewBox="0 0 24 24" fill="none" xmlns="http://www.w3.org/2000/svg" xmlns:xlink="http://www.w3.org/1999/xlink">
	<desc>
			Created with Pixso.
	</desc>
	<defs>
		<clipPath id="clip107027_918">
			<rect id="Solid / Double Arrow Down Solid" width="24.000000" height="24.000000" transform="translate(24.000000 24.000000) rotate(180.000000)" fill="white" fill-opacity="0"/>
		</clipPath>
	</defs>
	<g >
		<path id="Shape" d="M3 12C3 7.02 7.02 3 12 3C16.97 3 21 7.02 21 12C21 16.97 16.97 21 12 21C7.02 21 3 16.97 3 12ZM15.33 13.03C15.33 12.85 15.26 12.68 15.12 12.55C14.85 12.31 14.44 12.33 14.2 12.59L11.95 15.09L9.79 12.6C9.55 12.33 9.14 12.32 8.87 12.56C8.61 12.8 8.59 13.21 8.83 13.48L11.43 16.46C11.71 16.77 12.19 16.77 12.47 16.46L15.16 13.47C15.28 13.34 15.33 13.19 15.33 13.03ZM15.33 9.13C15.33 8.95 15.26 8.78 15.12 8.65C14.85 8.41 14.44 8.43 14.2 8.69L11.95 11.19L9.79 8.7C9.55 8.43 9.14 8.42 8.87 8.66C8.61 8.9 8.59 9.31 8.83 9.58L11.43 12.56C11.71 12.87 12.19 12.87 12.47 12.56L15.16 9.57C15.28 9.44 15.33 9.29 15.33 9.13Z" fill="#74767B" fill-opacity="1.000000" fill-rule="evenodd"/>
	</g>
</svg>
