<svg width="24" height="24" viewBox="0 0 24 24" fill="none" xmlns="http://www.w3.org/2000/svg">
<path d="M7.99906 7.51624C7.85906 7.64624 7.78906 7.81624 7.78906 7.99624C7.78906 8.15624 7.83906 8.30624 7.95906 8.43624L11.5453 12.4194C11.8253 12.7294 12.3053 12.7294 12.5853 12.4194L16.0431 8.44014C16.2831 8.17014 16.2631 7.76014 16.0031 7.52014C15.7331 7.28014 15.3231 7.29014 15.0831 7.56014L12.0653 11.0494L8.91906 7.55624C8.67906 7.29624 8.26906 7.27624 7.99906 7.51624Z" fill="#717681"/>
<path d="M7.99906 11.5162C7.85906 11.6462 7.78906 11.8162 7.78906 11.9962C7.78906 12.1562 7.83906 12.3062 7.95906 12.4362L11.5453 16.4194C11.8253 16.7294 12.3053 16.7294 12.5853 16.4194L16.0431 12.4401C16.2831 12.1701 16.2631 11.7601 16.0031 11.5201C15.7331 11.2801 15.3231 11.2901 15.0831 11.5601L12.0653 15.0494L8.91906 11.5562C8.67906 11.2962 8.26906 11.2762 7.99906 11.5162Z" fill="#717681"/>
</svg>
