<svg width="24" height="24" viewBox="0 0 24 24" fill="none" xmlns="http://www.w3.org/2000/svg">
<path fill-rule="evenodd" clip-rule="evenodd" d="M12 2.99999C7.02944 2.99999 3 7.02943 3 12C3 16.9706 7.02944 21 12 21C16.9706 21 21 16.9706 21 12C21 7.02943 16.9706 2.99999 12 2.99999ZM13.0378 15.3311C12.8578 15.3311 12.6878 15.2612 12.5578 15.1212C12.3178 14.8511 12.3378 14.4411 12.5978 14.2011L15.0976 11.9533L12.602 9.79701C12.332 9.55701 12.322 9.14701 12.562 8.87701C12.802 8.61701 13.212 8.59701 13.482 8.83701L16.4676 11.4333C16.7776 11.7133 16.7776 12.1933 16.4676 12.4733L13.4778 15.1612C13.3478 15.2812 13.1978 15.3311 13.0378 15.3311ZM9.13792 15.3312C8.95792 15.3312 8.78792 15.2612 8.65792 15.1212C8.41792 14.8512 8.43792 14.4412 8.69792 14.2012L11.1977 11.9533L8.70207 9.79703C8.43207 9.55703 8.42207 9.14703 8.66207 8.87703C8.90207 8.61703 9.31207 8.59703 9.58207 8.83703L12.5677 11.4333C12.8777 11.7133 12.8777 12.1933 12.5677 12.4733L9.57792 15.1612C9.44792 15.2812 9.29792 15.3312 9.13792 15.3312Z" fill="#717681"/>
</svg>
