<svg width="24.000000" height="24.000000" viewBox="0 0 24 24" fill="none" xmlns="http://www.w3.org/2000/svg" xmlns:xlink="http://www.w3.org/1999/xlink">
	<desc>
			Created with Pixso.
	</desc>
	<defs>
		<clipPath id="clip5179_751">
			<rect id="Solid / Double Arrow Left Solid" width="24.000000" height="24.000000" fill="white" fill-opacity="0"/>
		</clipPath>
	</defs>
	<g clip-path="url(#clip5179_751)">
		<path id="Shape" d="M12 3C7.02 3 3 7.02 3 12C3 16.97 7.02 21 12 21C16.97 21 21 16.97 21 12C21 7.02 16.97 3 12 3ZM10.96 15.33C11.14 15.33 11.31 15.26 11.44 15.12C11.68 14.85 11.66 14.44 11.4 14.2L8.9 11.95L11.39 9.79C11.66 9.55 11.67 9.14 11.43 8.87C11.19 8.61 10.78 8.59 10.51 8.83L7.53 11.43C7.22 11.71 7.22 12.19 7.53 12.47L10.52 15.16C10.65 15.28 10.8 15.33 10.96 15.33ZM14.86 15.33C15.04 15.33 15.21 15.26 15.34 15.12C15.58 14.85 15.56 14.44 15.3 14.2L12.8 11.95L15.29 9.79C15.56 9.55 15.57 9.14 15.33 8.87C15.09 8.61 14.68 8.59 14.41 8.83L11.43 11.43C11.12 11.71 11.12 12.19 11.43 12.47L14.42 15.16C14.55 15.28 14.7 15.33 14.86 15.33Z" fill="#74767B" fill-opacity="1.000000" fill-rule="evenodd"/>
	</g>
</svg>
