<svg width="24.000000" height="24.000000" viewBox="0 0 24 24" fill="none" xmlns="http://www.w3.org/2000/svg" xmlns:xlink="http://www.w3.org/1999/xlink">
	<desc>
			Created with Pixso.
	</desc>
	<defs>
		<clipPath id="clip17_1260">
			<rect id="Outline / Edit Outline" width="24.000000" height="24.000000" fill="white" fill-opacity="0"/>
		</clipPath>
	</defs>
	<g>
		<path id="Shape" d="M16.04 3.88C16.55 3.37 17.37 3.37 17.88 3.88L19.58 5.58C20.08 6.08 20.08 6.91 19.58 7.41L9.1 17.89C8.71 18.28 8.2 18.56 7.66 18.69L5.93 19.09C4.99 19.3 4.15 18.46 4.37 17.53L4.77 15.8C4.89 15.25 5.17 14.75 5.57 14.35L16.04 3.88ZM16.96 4.8L18.66 6.5L17.04 8.12L15.34 6.42L16.96 4.8ZM14.42 7.34L6.49 15.27C6.26 15.5 6.1 15.78 6.03 16.09L5.63 17.82L7.36 17.42C7.68 17.35 7.96 17.19 8.18 16.97L16.12 9.04L14.42 7.34Z" fill="#717681" fill-opacity="1.000000" fill-rule="evenodd"/>
	</g>
</svg>
