<svg width="24.000000" height="24.000000" viewBox="0 0 24 24" fill="none" xmlns="http://www.w3.org/2000/svg" xmlns:xlink="http://www.w3.org/1999/xlink">
	<desc>
			Created with Pixso.
	</desc>
	<defs>
		<clipPath id="clip17_1558">
			<rect id="Solid / Email Read Solid" width="24.000000" height="24.000000" fill="white" fill-opacity="0"/>
		</clipPath>
	</defs>
	<g>
		<path id="Shape" d="M19.33 8.02C17.67 6.66 15.81 5.47 14.1 4.19C12.79 3.22 11 3.24 9.71 4.22C8.05 5.49 6.27 6.68 4.66 8.01C4.32 8.3 4.34 8.82 4.69 9.09L9.96 13.04C9.99 13.06 10.02 13.09 10.05 13.11L10.43 13.4C11.36 14.1 12.63 14.1 13.56 13.4L19.29 9.09C19.65 8.82 19.67 8.3 19.33 8.02ZM3 10.82C3 10.19 3.73 9.99 4.23 10.36L8.53 13.6L5.99 15.51C5.7 15.73 5.64 16.13 5.86 16.42C6.07 16.71 6.48 16.77 6.77 16.55L9.61 14.41L9.65 14.44C11.04 15.48 12.95 15.48 14.34 14.44L14.38 14.41L17.22 16.55C17.51 16.77 17.92 16.71 18.13 16.42C18.35 16.13 18.29 15.73 18 15.51L15.46 13.6L19.76 10.36C20.26 9.99 21 10.19 21 10.82L21 17.49C21 19.15 19.66 20.49 18 20.49L6 20.49C4.33 20.49 3 19.15 3 17.49L3 10.82Z" fill="#717681" fill-opacity="1.000000" fill-rule="evenodd"/>
	</g>
</svg>
