<svg width="24.000000" height="24.000000" viewBox="0 0 24 24" fill="none" xmlns="http://www.w3.org/2000/svg" xmlns:xlink="http://www.w3.org/1999/xlink">
	<desc>
			Created with Pixso.
	</desc>
	<defs>
		<clipPath id="clip17_1254">
			<rect id="Solid / Email Solid" width="24.000000" height="24.000000" fill="white" fill-opacity="0"/>
		</clipPath>
	</defs>
	<g clip-path="url(#clip17_1254)">
		<path id="Shape" d="M3.85 6.9C3.57 6.69 3.49 6.3 3.72 6.04C4.27 5.4 5.08 5 6 5L18 5C18.91 5 19.74 5.41 20.29 6.06C20.51 6.33 20.42 6.71 20.15 6.92L13.34 12.09C12.49 12.74 11.31 12.73 10.47 12.07L3.85 6.9ZM3 9.19C3 8.61 3.67 8.28 4.13 8.64L8.5 12.05L5.87 14.02C5.58 14.24 5.53 14.64 5.74 14.93C5.96 15.22 6.37 15.28 6.65 15.06L9.56 12.88L9.56 12.88L9.67 12.97C10.98 13.99 12.81 14 14.13 13L14.26 12.9L17.14 15.06C17.42 15.28 17.83 15.22 18.05 14.93C18.26 14.64 18.2 14.24 17.92 14.02L15.34 12.08L19.91 8.61C20.36 8.26 21.01 8.57 21.02 9.14C21.04 10.52 21.02 11.9 21.01 13.27C21 14.18 21 15.09 21 16C21 17.66 19.66 19 18 19L6 19C4.33 19 3 17.66 3 16C3 14.14 3 11.01 3 9.19Z" fill="#717681" fill-opacity="1.000000" fill-rule="evenodd"/>
	</g>
</svg>
