<svg width="24.000000" height="24.000000" viewBox="0 0 24 24" fill="none" xmlns="http://www.w3.org/2000/svg" xmlns:xlink="http://www.w3.org/1999/xlink">
	<desc>
			Created with Pixso.
	</desc>
	<defs>
		<clipPath id="clip121950_896">
			<rect id="Solid / Emoji Neutral Solid" width="24.000000" height="24.000000" transform="translate(-0.500000 0.000000)" fill="white" fill-opacity="0"/>
		</clipPath>
	</defs>
	<g>
		<path id="Shape" d="M11.5 21C16.47 21 20.5 16.97 20.5 12C20.5 7.02 16.47 3 11.5 3C6.52 3 2.5 7.02 2.5 12C2.5 16.97 6.52 21 11.5 21ZM14.5 10.11C14.5 9.7 14.16 9.36 13.75 9.36C13.33 9.36 13 9.7 13 10.11C13 10.53 13.33 10.86 13.75 10.86C14.16 10.86 14.5 10.53 14.5 10.11ZM8.06 13.97C8.06 14.33 8.35 14.62 8.71 14.62L14.28 14.62C14.64 14.62 14.93 14.33 14.93 13.97C14.93 13.61 14.64 13.32 14.28 13.32L8.71 13.32C8.35 13.32 8.06 13.61 8.06 13.97ZM9.25 9.36C9.66 9.36 10 9.7 10 10.11C10 10.53 9.66 10.86 9.25 10.86C8.83 10.86 8.5 10.53 8.5 10.11C8.5 9.7 8.83 9.36 9.25 9.36Z" fill="#717681" fill-opacity="1.000000" fill-rule="evenodd"/>
		<path id="Shape" d="" fill="#000000" fill-opacity="0" fill-rule="evenodd"/>
	</g>
</svg>
