<svg width="24.000000" height="24.000000" viewBox="0 0 24 24" fill="none" xmlns="http://www.w3.org/2000/svg" xmlns:xlink="http://www.w3.org/1999/xlink">
	<desc>
			Created with Pixso.
	</desc>
	<defs>
		<clipPath id="clip121950_892">
			<rect id="Solid / Emoji Smile Solid" width="24.000000" height="24.000000" transform="translate(-0.500000 0.000000)" fill="white" fill-opacity="0"/>
		</clipPath>
	</defs>
	<g>
		<path id="Shape" d="M11.5 21C16.47 21 20.5 16.97 20.5 12C20.5 7.02 16.47 3 11.5 3C6.52 3 2.5 7.02 2.5 12C2.5 16.97 6.52 21 11.5 21ZM14.5 10.11C14.5 9.7 14.16 9.36 13.75 9.36C13.33 9.36 13 9.7 13 10.11C13 10.53 13.33 10.86 13.75 10.86C14.16 10.86 14.5 10.53 14.5 10.11ZM11.5 14.76C10.56 14.76 9.74 14.3 9.24 13.59C9.03 13.3 8.63 13.23 8.33 13.44C8.04 13.65 7.97 14.06 8.18 14.35C8.91 15.38 10.13 16.06 11.5 16.06C12.87 16.06 14.08 15.38 14.81 14.35C15.02 14.06 14.95 13.65 14.66 13.44C14.37 13.23 13.96 13.3 13.75 13.59C13.25 14.3 12.43 14.76 11.5 14.76ZM9.25 9.36C9.66 9.36 10 9.7 10 10.11C10 10.53 9.66 10.86 9.25 10.86C8.83 10.86 8.5 10.53 8.5 10.11C8.5 9.7 8.83 9.36 9.25 9.36Z" fill="#717681" fill-opacity="1.000000" fill-rule="evenodd"/>
		<path id="Shape" d="" fill="#000000" fill-opacity="0" fill-rule="evenodd"/>
	</g>
</svg>
