<svg viewBox="0 0 24 24" xmlns="http://www.w3.org/2000/svg" xmlns:xlink="http://www.w3.org/1999/xlink" width="24.000000" height="24.000000" fill="none">
	<rect id="Solid/Emoji Sad Solid" width="24.000000" height="24.000000" x="0.000000" y="0.000000" />
	<path id="Shape" d="M12 21C16.9706 21 21 16.9706 21 12C21 7.02944 16.9706 3 12 3C7.02944 3 3 7.02944 3 12C3 16.9706 7.02944 21 12 21ZM15 10.1195C15 9.70533 14.6642 9.36954 14.25 9.36954C13.8358 9.36954 13.5 9.70533 13.5 10.1195C13.5 10.5338 13.8358 10.8695 14.25 10.8695C14.6642 10.8695 15 10.5338 15 10.1195ZM12.0006 13.9202C11.0698 13.9202 10.2462 14.3794 9.74389 15.0864C9.53597 15.3791 9.13019 15.4477 8.83754 15.2398C8.5449 15.0319 8.47622 14.6261 8.68414 14.3335C9.41985 13.298 10.6311 12.6202 12.0006 12.6202C13.3702 12.6202 14.5814 13.298 15.3171 14.3335C15.525 14.6261 15.4564 15.0319 15.1637 15.2398C14.8711 15.4477 14.4653 15.3791 14.2574 15.0864C13.755 14.3794 12.9314 13.9202 12.0006 13.9202ZM9.75 9.36954C10.1642 9.36954 10.5 9.70533 10.5 10.1195C10.5 10.5338 10.1642 10.8695 9.75 10.8695C9.33579 10.8695 9 10.5338 9 10.1195C9 9.70533 9.33579 9.36954 9.75 9.36954Z" fill="rgb(116,118,123)" fill-rule="evenodd" />
	<path id="Shape" d="M21 12C21 16.9706 16.9706 21 12 21C7.02944 21 3 16.9706 3 12C3 7.02944 7.02944 3 12 3C16.9706 3 21 7.02944 21 12ZM13.7203 19.5086C13.1615 19.6362 12.588 19.7 12 19.7C11.412 19.7 10.8386 19.6362 10.2797 19.5086C9.84543 19.4094 9.41992 19.2717 9.00321 19.0954C8.57589 18.9147 8.17118 18.6994 7.78909 18.4495C7.34762 18.1607 6.93635 17.8258 6.55528 17.4447C6.1742 17.0636 5.83929 16.6524 5.55055 16.2109C5.30064 15.8288 5.08531 15.4241 4.90457 14.9968C4.72832 14.5801 4.59061 14.1546 4.49143 13.7203C4.36381 13.1614 4.3 12.588 4.3 12C4.3 11.412 4.3638 10.8386 4.49142 10.2798C4.59059 9.84546 4.72831 9.41993 4.90457 9.00321C5.08532 8.57588 5.30064 8.17117 5.55056 7.78908C5.8393 7.34762 6.17421 6.93635 6.55528 6.55528C6.93634 6.17422 7.34759 5.83932 7.78903 5.55059C8.17113 5.30066 8.57586 5.08532 9.00321 4.90457C9.41992 4.72832 9.84543 4.5906 10.2797 4.49142C10.8386 4.36381 11.412 4.3 12 4.3C12.588 4.3 13.1614 4.36381 13.7203 4.49143C14.1546 4.59061 14.5801 4.72832 14.9968 4.90457C15.4241 5.08531 15.8288 5.30063 16.2109 5.55054C16.6524 5.83928 17.0636 6.1742 17.4447 6.55528C17.8258 6.93634 18.1607 7.3476 18.4494 7.78906C18.6993 8.17115 18.9147 8.57587 19.0954 9.00321C19.2717 9.41991 19.4094 9.8454 19.5086 10.2797C19.6362 10.8386 19.7 11.412 19.7 12C19.7 12.588 19.6362 13.1614 19.5086 13.7203C19.4094 14.1546 19.2717 14.5801 19.0954 14.9968C18.9147 15.4241 18.6994 15.8288 18.4495 16.2109C18.1607 16.6524 17.8258 17.0636 17.4447 17.4447C17.0637 17.8258 16.6524 18.1607 16.2109 18.4494C15.8288 18.6994 15.4241 18.9147 14.9968 19.0954C14.5801 19.2717 14.1546 19.4094 13.7203 19.5086ZM10.1733 8.11318C10.0353 8.08409 9.89417 8.06954 9.75 8.06954C9.60583 8.06954 9.46473 8.08409 9.32669 8.11318C9.19905 8.14008 9.07404 8.17941 8.95165 8.23118C8.83171 8.28191 8.71855 8.34278 8.61215 8.41379C8.50083 8.48808 8.39693 8.57348 8.30043 8.66997C8.20394 8.76647 8.11854 8.87037 8.04425 8.98169C7.97323 9.08809 7.91236 9.20125 7.86163 9.32119C7.80987 9.44358 7.77054 9.56858 7.74364 9.69621C7.71455 9.83425 7.7 9.97536 7.7 10.1195C7.7 10.2637 7.71455 10.4048 7.74364 10.5429C7.77054 10.6705 7.80987 10.7955 7.86163 10.9179C7.91236 11.0378 7.97324 11.151 8.04425 11.2574C8.11854 11.3687 8.20394 11.4726 8.30043 11.5691C8.39692 11.6656 8.50083 11.751 8.61214 11.8253C8.71854 11.8963 8.83171 11.9572 8.95165 12.0079C9.03807 12.0445 9.1258 12.0748 9.21484 12.099C8.94955 12.2595 8.70184 12.4402 8.47172 12.641C8.15624 12.9163 7.87379 13.2295 7.62439 13.5805C7.54522 13.6919 7.47894 13.809 7.42553 13.9316C7.37583 14.0458 7.33728 14.1648 7.30989 14.2887C7.2831 14.4098 7.26795 14.5314 7.26443 14.6532C7.26076 14.7802 7.26974 14.9076 7.29136 15.0354C7.31298 15.1631 7.34642 15.2863 7.39167 15.405C7.4351 15.519 7.4894 15.6287 7.55458 15.7344C7.62122 15.8423 7.6968 15.9421 7.78133 16.0335C7.8721 16.1317 7.97319 16.2204 8.0846 16.2996C8.19602 16.3787 8.31306 16.445 8.4357 16.4984C8.54985 16.5481 8.66887 16.5867 8.79274 16.6141C8.91393 16.6409 9.03545 16.656 9.15731 16.6595C9.28432 16.6632 9.41169 16.6542 9.53943 16.6326C9.66715 16.611 9.79036 16.5775 9.90907 16.5323C10.023 16.4889 10.1328 16.4346 10.2384 16.3694C10.3464 16.3027 10.4461 16.2272 10.5376 16.1426C10.6358 16.0519 10.7245 15.9508 10.8036 15.8394C10.8759 15.7376 10.9581 15.6475 11.0503 15.569C11.1318 15.4995 11.2212 15.4392 11.3183 15.3879C11.4112 15.3389 11.5072 15.3006 11.6061 15.2731C11.7327 15.2378 11.8642 15.2202 12.0006 15.2202C12.137 15.2202 12.2686 15.2378 12.3952 15.2731C12.4941 15.3006 12.5901 15.3389 12.683 15.3879C12.7801 15.4392 12.8694 15.4995 12.951 15.569C13.0431 15.6475 13.1253 15.7376 13.1976 15.8394C13.2768 15.9508 13.3655 16.0519 13.4637 16.1426C13.5551 16.2272 13.6548 16.3027 13.7628 16.3694C13.8685 16.4346 13.9782 16.4889 14.0922 16.5323C14.2109 16.5775 14.3341 16.611 14.4618 16.6326C14.5896 16.6542 14.7169 16.6632 14.844 16.6595C14.9658 16.656 15.0873 16.6409 15.2085 16.6141C15.3324 16.5867 15.4514 16.5481 15.5656 16.4984C15.6882 16.445 15.8052 16.3787 15.9167 16.2996C16.0281 16.2204 16.1291 16.1317 16.2199 16.0335C16.3044 15.9421 16.38 15.8423 16.4467 15.7344C16.5119 15.6287 16.5662 15.5189 16.6096 15.4049C16.6549 15.2862 16.6883 15.1631 16.7099 15.0354C16.7315 14.9076 16.7405 14.7803 16.7368 14.6533C16.7333 14.5314 16.7182 14.4099 16.6914 14.2887C16.664 14.1648 16.6254 14.0458 16.5757 13.9316C16.5223 13.809 16.456 13.6919 16.3769 13.5805C16.1275 13.2295 15.845 12.9163 15.5296 12.641C15.2993 12.4401 15.0515 12.2593 14.786 12.0987C14.8748 12.0746 14.9622 12.0443 15.0484 12.0079C15.1683 11.9572 15.2815 11.8963 15.3879 11.8253C15.4992 11.751 15.6031 11.6656 15.6996 11.5691C15.7961 11.4726 15.8815 11.3687 15.9557 11.2574C16.0268 11.151 16.0876 11.0378 16.1384 10.9179C16.1901 10.7955 16.2295 10.6705 16.2564 10.5429C16.2855 10.4048 16.3 10.2637 16.3 10.1195C16.3 9.97536 16.2855 9.83425 16.2564 9.6962C16.2295 9.56858 16.1901 9.44357 16.1384 9.32119C16.0876 9.20125 16.0268 9.08808 15.9557 8.98168C15.8815 8.87037 15.7961 8.76647 15.6996 8.66997C15.6031 8.57347 15.4992 8.48807 15.3878 8.41377C15.2814 8.34277 15.1683 8.2819 15.0484 8.23118C14.926 8.17941 14.801 8.14008 14.6733 8.11318C14.5353 8.08409 14.3942 8.06954 14.25 8.06954C14.1058 8.06954 13.9647 8.08409 13.8267 8.11318C13.699 8.14008 13.574 8.17941 13.4516 8.23118C13.3317 8.2819 13.2185 8.34278 13.1121 8.41379C13.0008 8.48808 12.8969 8.57348 12.8004 8.66997C12.7039 8.76647 12.6185 8.87037 12.5443 8.98168C12.4732 9.08808 12.4124 9.20125 12.3616 9.32119C12.3099 9.44358 12.2705 9.5686 12.2436 9.69623C12.2145 9.83427 12.2 9.97537 12.2 10.1195C12.2 10.2637 12.2145 10.4048 12.2436 10.5429C12.2705 10.6705 12.3099 10.7955 12.3616 10.9179C12.4124 11.0378 12.4732 11.151 12.5443 11.2574C12.5661 11.2902 12.589 11.3224 12.6128 11.3539C12.4116 11.3314 12.2076 11.3202 12.0006 11.3202C11.7932 11.3202 11.5887 11.3315 11.3871 11.354C11.4109 11.3225 11.4338 11.2903 11.4557 11.2574C11.5268 11.151 11.5876 11.0378 11.6384 10.9179C11.6901 10.7955 11.7295 10.6705 11.7564 10.5429C11.7855 10.4048 11.8 10.2637 11.8 10.1195C11.8 9.97537 11.7855 9.83427 11.7564 9.69623C11.7295 9.5686 11.6901 9.44358 11.6384 9.32119C11.5876 9.20125 11.5268 9.08808 11.4557 8.98168C11.3815 8.87037 11.2961 8.76647 11.1996 8.66997C11.1031 8.57348 10.9992 8.48809 10.8879 8.41379C10.7815 8.34278 10.6683 8.28191 10.5484 8.23118C10.426 8.17941 10.3009 8.14008 10.1733 8.11318ZM10.5 10.1195C10.5 9.70533 10.1642 9.36954 9.75 9.36954C9.33579 9.36954 9 9.70533 9 10.1195C9 10.5338 9.33579 10.8695 9.75 10.8695C10.1642 10.8695 10.5 10.5338 10.5 10.1195ZM14.25 9.36954C14.6642 9.36954 15 9.70533 15 10.1195C15 10.5338 14.6642 10.8695 14.25 10.8695C13.8358 10.8695 13.5 10.5338 13.5 10.1195C13.5 9.70533 13.8358 9.36954 14.25 9.36954ZM8.68414 14.3335C8.47622 14.6261 8.5449 15.0319 8.83754 15.2398C9.13019 15.4477 9.53597 15.3791 9.74389 15.0864C9.9873 14.7438 10.3061 14.4594 10.676 14.2573C10.6879 14.2508 10.6998 14.2444 10.7118 14.2381C10.7132 14.2373 10.7147 14.2365 10.7162 14.2358C11.0986 14.0349 11.5337 13.9211 11.9952 13.9202L12.0006 13.9202L12.0061 13.9202C12.4676 13.9211 12.9026 14.0349 13.2851 14.2358C13.2866 14.2365 13.288 14.2373 13.2895 14.2381C13.3031 14.2453 13.3166 14.2526 13.3301 14.2599C13.6979 14.4619 14.015 14.7453 14.2574 15.0864C14.4653 15.3791 14.8711 15.4477 15.1637 15.2398C15.4564 15.0319 15.525 14.6261 15.3171 14.3335C15.3156 14.3314 15.3141 14.3292 15.3126 14.3271C14.9452 13.8122 14.4601 13.3861 13.8963 13.0884C13.8833 13.0816 13.8703 13.0748 13.8573 13.0681C13.3009 12.7819 12.6696 12.6202 12.0006 12.6202C11.3159 12.6202 10.6708 12.7896 10.1049 13.0884C9.53897 13.3872 9.05222 13.8155 8.68434 14.3332L8.68414 14.3335L8.68414 14.3335Z" fill="rgb(0,0,0)" fill-opacity="0" fill-rule="evenodd" />
</svg>
