<svg width="25" height="24" viewBox="0 0 25 24" fill="none" xmlns="http://www.w3.org/2000/svg">
<path fill-rule="evenodd" clip-rule="evenodd" d="M12.5 21C17.4706 21 21.5 16.9706 21.5 12C21.5 7.02944 17.4706 3 12.5 3C7.52944 3 3.5 7.02944 3.5 12C3.5 16.9706 7.52944 21 12.5 21ZM15.5 10.1195C15.5 9.70533 15.1642 9.36954 14.75 9.36954C14.3358 9.36954 14 9.70533 14 10.1195C14 10.5338 14.3358 10.8695 14.75 10.8695C15.1642 10.8695 15.5 10.5338 15.5 10.1195ZM9.06396 13.9762C9.06396 14.3352 9.35498 14.6262 9.71396 14.6262H15.2872C15.6462 14.6262 15.9372 14.3352 15.9372 13.9762C15.9372 13.6173 15.6462 13.3262 15.2872 13.3262H9.71396C9.35498 13.3262 9.06396 13.6173 9.06396 13.9762ZM10.25 9.36954C10.6642 9.36954 11 9.70533 11 10.1195C11 10.5338 10.6642 10.8695 10.25 10.8695C9.83579 10.8695 9.5 10.5338 9.5 10.1195C9.5 9.70533 9.83579 9.36954 10.25 9.36954Z" fill="#717681"/>
</svg>
