<svg width="24.000000" height="24.000000" viewBox="0 0 24 24" fill="none" xmlns="http://www.w3.org/2000/svg" xmlns:xlink="http://www.w3.org/1999/xlink">
	<desc>
			Created with Pixso.
	</desc>
	<defs>
		<clipPath id="clip17_1287">
			<rect id="Outline / Exit Outline" width="24.000000" height="24.000000" fill="white" fill-opacity="0"/>
		</clipPath>
	</defs>
	<g clip-path="url(#clip17_1287)">
		<path id="Shape" d="M8 4.3L15 4.3C15.93 4.3 16.7 5.06 16.7 6L16.7 6.35C16.7 6.7 16.99 7 17.35 7C17.7 7 18 6.7 18 6.35L18 6C18 4.34 16.65 3 15 3L8 3C6.34 3 5 4.34 5 6L5 18C5 19.65 6.34 21 8 21L15 21C16.65 21 18 19.65 18 18L18 17.65C18 17.29 17.7 17 17.35 17C16.99 17 16.7 17.29 16.7 17.65L16.7 18C16.7 18.93 15.93 19.7 15 19.7L8 19.7C7.8 19.7 7.61 19.66 7.43 19.6L9.66 18.32C10.27 17.98 10.64 17.33 10.64 16.63L10.64 7.25C10.64 6.55 10.27 5.9 9.66 5.56L7.56 4.35C7.7 4.31 7.84 4.3 8 4.3ZM9.02 17.2L6.43 18.67C6.35 18.46 6.29 18.24 6.29 18L6.29 6C6.29 5.72 6.36 5.46 6.48 5.23C7.13 5.61 9.35 6.32 9.35 7.25L9.35 16.63C9.35 16.86 9.22 17.08 9.02 17.2ZM17 15C17.12 15.14 17.29 15.21 17.48 15.21C17.64 15.21 17.79 15.16 17.91 15.04L20.62 12.46C20.93 12.18 20.93 11.7 20.62 11.42L17.91 8.96C17.64 8.72 17.24 8.74 17 9C16.75 9.27 16.77 9.68 17.04 9.92L18.59 11.29L13.64 11.29C13.29 11.29 13 11.58 13 11.94C13 12.3 13.29 12.59 13.64 12.59L18.59 12.59L17.04 14.08C16.77 14.32 16.75 14.73 17 15Z" fill="#74767B" fill-opacity="1.000000" fill-rule="evenodd"/>
	</g>
</svg>
