<svg width="24.000000" height="24.000000" viewBox="0 0 24 24" fill="none" xmlns="http://www.w3.org/2000/svg" xmlns:xlink="http://www.w3.org/1999/xlink">
	<desc>
			Created with Pixso.
	</desc>
	<defs>
		<clipPath id="clip17_1299">
			<rect id="Solid / Export Solid" width="24.000000" height="24.000000" fill="white" fill-opacity="0"/>
		</clipPath>
	</defs>
	<g clip-path="url(#clip17_1299)">
		<path id="Shape" d="M15.5 14C18.53 14 21 11.53 21 8.5C21 5.46 18.53 3 15.5 3C12.46 3 10 5.46 10 8.5C10 11.53 12.46 14 15.5 14ZM9.51 5.26C9.8 4.73 9.45 4 8.84 4L8 4C6.34 4 5 5.34 5 7L5 17C5 18.65 6.34 20 8 20L15 20C16.65 20 18 18.65 18 17L18 15.85C18 15.36 17.49 15.02 17.01 15.13C16.52 15.24 16.02 15.3 15.5 15.3C11.74 15.3 8.7 12.25 8.7 8.5C8.7 7.33 8.99 6.23 9.51 5.26ZM16.46 10.22C16.28 10.22 16.11 10.15 15.98 10.01C15.74 9.74 15.76 9.33 16.02 9.09L16.91 8.16L16.14 8.16C14.85 8.16 13.79 9.21 13.79 10.51L13.79 10.86C13.79 11.22 13.5 11.51 13.14 11.51C12.79 11.51 12.5 11.22 12.5 10.86L12.5 10.51C12.5 8.49 14.13 6.86 16.14 6.86C16.42 6.85 16.48 6.85 16.59 6.85C16.66 6.86 16.74 6.86 16.9 6.86L16.02 5.96C15.75 5.72 15.74 5.31 15.98 5.04C16.22 4.78 16.63 4.76 16.9 5L18.94 6.99C19.25 7.27 19.25 7.75 18.94 8.03L16.9 10.05C16.77 10.17 16.62 10.22 16.46 10.22Z" fill="#74767B" fill-opacity="1.000000" fill-rule="evenodd"/>
	</g>
</svg>
