<svg width="24.000000" height="24.000000" viewBox="0 0 24 24" fill="none" xmlns="http://www.w3.org/2000/svg" xmlns:xlink="http://www.w3.org/1999/xlink">
	<desc>
			Created with Pixso.
	</desc>
	<defs>
		<clipPath id="clip17_1295">
			<rect id="Outline / Export Outline" width="24.000000" height="24.000000" fill="white" fill-opacity="0"/>
		</clipPath>
	</defs>
	<g>
		<path id="Shape" d="M16.5 10.72C16.32 10.72 16.14 10.65 16.02 10.51C15.78 10.24 15.8 9.83 16.06 9.59L18.95 6.87L15 6.87C13.7 6.87 12.64 7.92 12.64 9.22L12.64 14C12.64 14.35 12.35 14.65 12 14.65C11.64 14.65 11.35 14.35 11.35 14L11.35 9.22C11.35 7.2 12.98 5.57 15 5.57L18.96 5.57L18.96 5.55L16.1 3.14C15.83 2.9 15.82 2.49 16.06 2.22C16.3 1.96 16.7 1.94 16.98 2.18L21 5.68C21.31 5.96 21.31 6.44 21 6.72L16.93 10.55C16.81 10.67 16.66 10.72 16.5 10.72ZM10 4.65C10 4.29 9.7 4 9.35 4L8 4C6.34 4 5 5.34 5 7L5 17C5 18.65 6.34 20 8 20L16 20C17.65 20 19 18.65 19 17L19 12.65C19 12.29 18.7 12 18.35 12C17.99 12 17.7 12.29 17.7 12.65L17.7 17C17.7 17.93 16.93 18.7 16 18.7L8 18.7C7.06 18.7 6.29 17.93 6.29 17L6.29 7C6.29 6.06 7.06 5.3 8 5.3L9.35 5.3C9.7 5.3 10 5 10 4.65Z" fill="#717681" fill-opacity="1.000000" fill-rule="evenodd"/>
	</g>
</svg>
