<svg width="24" height="24" viewBox="0 0 24 24" fill="none" xmlns="http://www.w3.org/2000/svg">
<path d="M13.4332 12.9098C13.1793 12.6559 12.7678 12.6559 12.5139 12.9098L7.35798 18.0657C6.88935 18.5344 6.12956 18.5344 5.66093 18.0657C5.1923 17.5971 5.1923 16.8373 5.66093 16.3687L10.8169 11.2127C11.0707 10.9589 11.0707 10.5473 10.8169 10.2935C10.563 10.0396 10.1515 10.0396 9.89765 10.2935L4.74169 15.4494C3.9429 16.2482 3.79766 17.4531 4.30595 18.3995L3.59858 19.1069C3.34474 19.3607 3.34474 19.7723 3.59858 20.0261C3.85242 20.28 4.26398 20.28 4.51782 20.0261L5.1978 19.3462C6.16151 19.941 7.44157 19.8206 8.27722 18.985L13.4332 13.829C13.687 13.5752 13.687 13.1636 13.4332 12.9098Z" fill="#717681"/>
<path fill-rule="evenodd" clip-rule="evenodd" d="M15.2996 12.9385C15.5543 13.1787 15.9556 13.1742 16.2049 12.925C16.4587 12.6711 16.4587 12.2596 16.2049 12.0057L15.7307 11.5315L18.9748 8.28742C19.9511 7.31111 19.9511 5.7282 18.9748 4.75189C17.9985 3.77558 16.4156 3.77557 15.4392 4.75189L12.1951 7.996L11.6534 7.45431C11.3996 7.20047 10.988 7.20047 10.7342 7.45431C10.4869 7.70162 10.4805 8.09863 10.7151 8.35365C10.7198 8.35808 10.7245 8.36259 10.7291 8.36719L15.2805 12.9186C15.287 12.9251 15.2934 12.9318 15.2996 12.9385Z" fill="#717681"/>
</svg>
