<svg width="24.000000" height="24.000000" viewBox="0 0 24 24" fill="none" xmlns="http://www.w3.org/2000/svg" xmlns:xlink="http://www.w3.org/1999/xlink">
	<desc>
			Created with Pixso.
	</desc>
	<defs>
		<clipPath id="clip134435_205">
			<rect id="Outline / Group Objects Outline" width="24.000000" height="24.000000" fill="white" fill-opacity="0"/>
		</clipPath>
	</defs>
	<g>
		<path id="Shape" d="M5.79 2L5 2C3.34 2 2 3.34 2 5L2 5.69C2 6.04 2.29 6.34 2.64 6.34C3 6.34 3.29 6.04 3.29 5.69L3.29 5C3.29 4.06 4.06 3.29 5 3.29L5.79 3.29C6.15 3.29 6.44 3 6.44 2.65C6.44 2.29 6.15 2 5.79 2ZM22 5.69C22 6.04 21.7 6.34 21.35 6.34C20.99 6.34 20.7 6.04 20.7 5.69L20.7 5C20.7 4.06 19.93 3.29 19 3.29L18.41 3.29C18.05 3.29 17.76 3 17.76 2.65C17.76 2.29 18.05 2 18.41 2L19 2C20.65 2 22 3.34 22 5L22 5.69ZM13.39 6.7L13.39 10.99L12.7 11C12.48 11 12.28 11.03 12.1 11.1L12.1 6.7C12.1 6.47 11.92 6.3 11.69 6.3L6.69 6.3C6.47 6.3 6.29 6.47 6.29 6.7L6.29 11.7C6.29 11.92 6.47 12.1 6.69 12.1L11.1 12.1C11.35 11.45 11.97 11 12.7 11L17.29 11C18.23 11 19 11.76 19 12.7L19 17.29C19 18.23 18.23 19 17.29 19L12.7 19C11.76 19 11 18.23 11 17.29L11 13.4L6.69 13.4C5.76 13.4 5 12.63 5 11.7L5 6.7C5 5.76 5.76 5 6.69 5L11.69 5C12.63 5 13.39 5.76 13.39 6.7ZM17.7 17.29L17.7 12.7C17.7 12.47 17.52 12.3 17.29 12.3L12.7 12.3C12.47 12.3 12.29 12.47 12.29 12.7L12.29 17.29C12.29 17.52 12.47 17.7 12.7 17.7L17.29 17.7C17.52 17.7 17.7 17.52 17.7 17.29ZM2 18.3C2 17.94 2.29 17.65 2.64 17.65C3 17.65 3.29 17.94 3.29 18.3L3.29 19C3.29 19.93 4.06 20.7 5 20.7L5.79 20.7C6.15 20.7 6.44 20.99 6.44 21.35C6.44 21.7 6.15 22 5.79 22L5 22C3.34 22 2 20.65 2 19L2 18.3ZM21.35 17.65C20.99 17.65 20.7 17.94 20.7 18.3L20.7 19C20.7 19.93 19.93 20.7 19 20.7L18.41 20.7C18.05 20.7 17.76 20.99 17.76 21.35C17.76 21.7 18.05 22 18.41 22L19 22C20.65 22 22 20.65 22 19L22 18.3C22 17.94 21.7 17.65 21.35 17.65Z" fill="#717681" fill-opacity="1.000000" fill-rule="evenodd"/>
	</g>
</svg>
