<svg width="24" height="24" viewBox="0 0 24 24" fill="none" xmlns="http://www.w3.org/2000/svg">
<path fill-rule="evenodd" clip-rule="evenodd" d="M7.65781 7.93199C9.00755 7.63905 10.0186 6.43772 10.0186 5.00024C10.0186 3.34339 8.67541 2.00024 7.01855 2.00024C5.3617 2.00024 4.01855 3.34339 4.01855 5.00024C4.01855 6.43008 5.01885 7.62628 6.35781 7.92724V16.0325C6.35781 18.0483 7.99197 19.6825 10.0078 19.6825H13.9541C13.9893 19.6825 14.0238 19.6797 14.0575 19.6743C14.3634 21.0066 15.5564 22.0002 16.9814 22.0002C18.6383 22.0002 19.9814 20.6571 19.9814 19.0002C19.9814 17.3433 18.6383 16.0002 16.9814 16.0002C15.5342 16.0002 14.3263 17.025 14.0438 18.3886C14.0145 18.3846 13.9845 18.3825 13.9541 18.3825H10.0078C8.70994 18.3825 7.65781 17.3303 7.65781 16.0325V12.3502L7.67285 12.3504H14.0371L14.052 12.3502C14.3489 13.6947 15.5477 14.7004 16.9814 14.7004C18.6383 14.7004 19.9814 13.3573 19.9814 11.7004C19.9814 10.0435 18.6383 8.7004 16.9814 8.7004C15.5477 8.7004 14.3489 9.70613 14.052 11.0506L14.0371 11.0504H7.67285L7.65781 11.0506V7.93199ZM8.71855 5.00024C8.71855 5.93913 7.95744 6.70024 7.01855 6.70024C6.07967 6.70024 5.31855 5.93913 5.31855 5.00024C5.31855 4.06136 6.07967 3.30024 7.01855 3.30024C7.95744 3.30024 8.71855 4.06136 8.71855 5.00024ZM18.6814 11.7004C18.6814 12.6393 17.9203 13.4004 16.9814 13.4004C16.0426 13.4004 15.2814 12.6393 15.2814 11.7004C15.2814 10.7615 16.0426 10.0004 16.9814 10.0004C17.9203 10.0004 18.6814 10.7615 18.6814 11.7004ZM16.9814 20.7002C17.9203 20.7002 18.6814 19.9391 18.6814 19.0002C18.6814 18.0613 17.9203 17.3002 16.9814 17.3002C16.0426 17.3002 15.2814 18.0613 15.2814 19.0002C15.2814 19.9391 16.0426 20.7002 16.9814 20.7002Z" fill="#717681"/>
<path d="M12.0244 4.35024C11.6654 4.35024 11.3744 4.64126 11.3744 5.00024C11.3744 5.35923 11.6654 5.65024 12.0244 5.65024L19.3804 5.65024C19.7394 5.65024 20.0304 5.35923 20.0304 5.00024C20.0304 4.64126 19.7394 4.35024 19.3804 4.35024L12.0244 4.35024Z" fill="#717681"/>
</svg>
