<svg width="24.000000" height="24.000000" viewBox="0 0 24 24" fill="none" xmlns="http://www.w3.org/2000/svg" xmlns:xlink="http://www.w3.org/1999/xlink">
	<desc>
			Created with Pixso.
	</desc>
	<defs>
		<clipPath id="clip17_1352">
			<rect id="Solid / Home Solid" width="24.000000" height="24.000000" fill="white" fill-opacity="0"/>
		</clipPath>
	</defs>
	<g clip-path="url(#clip17_1352)">
		<path id="Shape" d="M11.08 3.91C11.58 3.41 12.41 3.41 12.91 3.91L21 12C21.27 12.23 21.3 12.64 21.06 12.91C20.83 13.18 20.42 13.21 20.14 12.98L19 11.83L19 19.7C19 20.41 18.41 21 17.69 21L14.69 21C14.31 21 14 20.68 14 20.29L14 15.3C14 14.58 13.41 14 12.69 14L11.29 14C10.58 14 10 14.58 10 15.3L10 20.29C10 20.68 9.68 21 9.29 21L6.29 21C5.58 21 5 20.41 5 19.7L5 11.83L3.85 12.98C3.57 13.21 3.16 13.18 2.93 12.91C2.69 12.64 2.72 12.23 3 12L6 8.99L11.08 3.91Z" fill="#74767B" fill-opacity="1.000000" fill-rule="nonzero"/>
	</g>
</svg>
