<svg width="24.000000" height="24.000000" viewBox="0 0 24 24" fill="none" xmlns="http://www.w3.org/2000/svg" xmlns:xlink="http://www.w3.org/1999/xlink">
	<desc>
			Created with Pixso.
	</desc>
	<defs/>
	<path id="Shape" d="M9.35 4C9.7 4 10 4.29 10 4.64C10 5 9.7 5.3 9.35 5.3L8 5.3C7.06 5.3 6.29 6.06 6.29 7L6.29 17C6.29 17.93 7.06 18.7 8 18.7L16 18.7C16.93 18.7 17.7 17.93 17.7 17L17.7 8.38C17.7 8.02 17.99 7.73 18.35 7.73C18.7 7.73 19 8.02 19 8.38L19 17C19 18.65 17.65 20 16 20L8 20C6.34 20 5 18.65 5 17L5 7C5 5.34 6.34 4 8 4L9.35 4ZM16.51 10.23C16.51 10.05 16.44 9.88 16.3 9.75C16.03 9.51 15.62 9.53 15.38 9.79L12.66 12.68L12.66 7.73C12.66 6.43 13.72 5.38 15.01 5.38L18.36 5.38C18.72 5.38 19.01 5.09 19.01 4.73C19.01 4.37 18.72 4.08 18.36 4.08L15.01 4.08C13 4.08 11.36 5.72 11.36 7.73L11.36 12.69L11.35 12.69L8.93 9.83C8.69 9.56 8.28 9.55 8.01 9.79C7.75 10.03 7.73 10.44 7.97 10.71L11.48 14.73C11.76 15.04 12.24 15.04 12.52 14.73L16.34 10.67C16.46 10.54 16.51 10.39 16.51 10.23Z" fill="#74767B" fill-opacity="1.000000" fill-rule="evenodd"/>
</svg>
