<svg width="24.000000" height="24.000000" viewBox="0 0 24 24" fill="none" xmlns="http://www.w3.org/2000/svg" xmlns:xlink="http://www.w3.org/1999/xlink">
	<desc>
			Created with Pixso.
	</desc>
	<defs>
		<clipPath id="clip1100_1158">
			<rect id="Solid / IP Solid" width="24.000000" height="24.000000" fill="white" fill-opacity="0"/>
		</clipPath>
	</defs>
	<g clip-path="url(#clip1100_1158)">
		<path id="Shape" d="M5.04 9.91C5.04 14.38 10.02 19.3 11.55 20.7C11.8 20.93 12.19 20.93 12.44 20.7C13.97 19.3 18.95 14.4 18.95 9.91C18.95 6.16 15.84 3.12 12 3.12C8.15 3.12 5.04 6.16 5.04 9.91ZM11.49 13.42L11.49 8.06C11.49 7.84 11.55 7.68 11.65 7.57C11.76 7.46 11.92 7.41 12.14 7.41L13.87 7.41C14.18 7.41 14.48 7.47 14.77 7.59C14.9 7.65 15.03 7.71 15.15 7.79C15.27 7.88 15.39 7.97 15.51 8.09C15.62 8.2 15.72 8.32 15.8 8.45C15.88 8.56 15.95 8.69 16 8.82C16.06 8.95 16.1 9.09 16.13 9.23C16.17 9.39 16.18 9.55 16.18 9.72C16.18 10.04 16.12 10.34 16 10.62C15.95 10.75 15.88 10.88 15.8 11C15.72 11.13 15.62 11.25 15.51 11.36C15.29 11.57 15.05 11.74 14.77 11.85C14.64 11.91 14.5 11.95 14.37 11.98C14.2 12.02 14.04 12.04 13.87 12.04L12.79 12.04L12.79 13.42C12.79 13.79 12.51 14.07 12.14 14.07C11.78 14.07 11.49 13.79 11.49 13.42ZM9.94 8.06C9.94 7.69 9.65 7.41 9.29 7.41C8.92 7.41 8.64 7.69 8.64 8.06L8.64 13.42C8.64 13.79 8.92 14.07 9.29 14.07C9.65 14.07 9.94 13.79 9.94 13.42L9.94 8.06ZM13.87 10.74L12.79 10.74L12.79 8.71L13.87 8.71C14.01 8.71 14.14 8.73 14.27 8.79C14.39 8.84 14.49 8.91 14.59 9.01C14.68 9.1 14.75 9.21 14.8 9.33C14.83 9.38 14.84 9.43 14.86 9.49C14.87 9.56 14.88 9.64 14.88 9.72C14.88 9.86 14.86 9.99 14.8 10.12C14.75 10.24 14.68 10.34 14.59 10.44C14.49 10.53 14.39 10.6 14.27 10.66C14.14 10.71 14.01 10.74 13.87 10.74Z" fill="#74767B" fill-opacity="1.000000" fill-rule="evenodd"/>
	</g>
</svg>
