<svg width="24" height="24" viewBox="0 0 24 24" fill="none" xmlns="http://www.w3.org/2000/svg">
<path d="M12.0002 2.00049C12.3591 2.0005 12.6502 2.29152 12.6502 2.6505L12.6501 5.09777C12.6501 5.45675 12.3591 5.74776 12.0001 5.74775C11.6411 5.74775 11.3501 5.45672 11.3501 5.09774L11.3502 2.65047C11.3502 2.29149 11.6412 2.00048 12.0002 2.00049Z" fill="#717681"/>
<path fill-rule="evenodd" clip-rule="evenodd" d="M12.0001 17C14.7615 17 17.0001 14.7614 17.0001 12C17.0001 9.23858 14.7615 7 12.0001 7C9.2387 7 7.00012 9.23858 7.00012 12C7.00012 14.7614 9.2387 17 12.0001 17ZM12.0001 15.7C14.0436 15.7 15.7001 14.0435 15.7001 12C15.7001 9.95655 14.0436 8.3 12.0001 8.3C9.95667 8.3 8.30012 9.95655 8.30012 12C8.30012 14.0435 9.95667 15.7 12.0001 15.7Z" fill="#717681"/>
<path d="M11.3501 21.3495C11.3501 21.7085 11.6411 21.9995 12.0001 21.9995C12.3591 21.9995 12.6501 21.7085 12.6501 21.3495L12.6501 18.9023C12.6502 18.5433 12.3591 18.2523 12.0002 18.2522C11.6412 18.2522 11.3502 18.5432 11.3501 18.9022L11.3501 21.3495Z" fill="#717681"/>
<path d="M4.92939 4.929C5.18324 4.67517 5.5948 4.67518 5.84863 4.92902L7.57907 6.65954C7.83291 6.91339 7.8329 7.32494 7.57905 7.57878C7.32521 7.83261 6.91365 7.83261 6.65981 7.57876L4.92937 5.84824C4.67554 5.5944 4.67555 5.18284 4.92939 4.929Z" fill="#717681"/>
<path d="M18.1517 19.071C18.4056 19.3248 18.8171 19.3248 19.071 19.071C19.3248 18.8172 19.3248 18.4056 19.071 18.1518L17.3406 16.4212C17.0867 16.1674 16.6752 16.1674 16.4213 16.4212C16.1675 16.6751 16.1675 17.0866 16.4213 17.3405L18.1517 19.071Z" fill="#717681"/>
<path d="M2.00049 11.9998C2.0005 11.6409 2.29152 11.3498 2.6505 11.3498L5.09777 11.3499C5.45675 11.3499 5.74776 11.6409 5.74775 11.9999C5.74775 12.3589 5.45672 12.6499 5.09774 12.6499L2.65047 12.6498C2.29149 12.6498 2.00048 12.3588 2.00049 11.9998Z" fill="#717681"/>
<path d="M21.3497 12.6497C21.7087 12.6497 21.9997 12.3587 21.9998 11.9997C21.9998 11.6407 21.7088 11.3497 21.3498 11.3497L18.9025 11.3496C18.5435 11.3496 18.2525 11.6406 18.2525 11.9996C18.2525 12.3586 18.5435 12.6496 18.9025 12.6496L21.3497 12.6497Z" fill="#717681"/>
<path d="M4.92925 19.0706C4.67541 18.8168 4.67542 18.4052 4.92927 18.1514L6.65978 16.4209C6.91363 16.1671 7.32519 16.1671 7.57902 16.4209C7.83286 16.6748 7.83285 17.0864 7.579 17.3402L5.84849 19.0706C5.59464 19.3245 5.18308 19.3245 4.92925 19.0706Z" fill="#717681"/>
<path d="M19.071 5.84863C19.3248 5.5948 19.3248 5.18324 19.071 4.92939C18.8172 4.67555 18.4056 4.67554 18.1518 4.92937L16.4212 6.65981C16.1674 6.91365 16.1674 7.32521 16.4212 7.57905C16.6751 7.8329 17.0866 7.83291 17.3405 7.57907L19.071 5.84863Z" fill="#717681"/>
</svg>
