<svg width="24.000000" height="24.000000" viewBox="0 0 24 24" fill="none" xmlns="http://www.w3.org/2000/svg" xmlns:xlink="http://www.w3.org/1999/xlink">
	<desc>
			Created with Pixso.
	</desc>
	<defs/>
	<path id="Shape" d="M12.01 4.5C14.02 2.49 17.28 2.49 19.29 4.5C21.3 6.51 21.3 9.77 19.29 11.78L16.95 14.12C16.7 14.38 16.28 14.38 16.03 14.12C15.78 13.87 15.78 13.46 16.03 13.2L18.37 10.86C19.87 9.36 19.87 6.92 18.37 5.42C16.87 3.91 14.43 3.91 12.93 5.42L10.59 7.76C10.33 8.01 9.92 8.01 9.67 7.76C9.41 7.5 9.41 7.09 9.67 6.84L12.01 4.5ZM14.48 9.31C14.73 9.57 14.73 9.98 14.48 10.23L10.23 14.48C9.98 14.73 9.57 14.73 9.31 14.48C9.06 14.22 9.06 13.81 9.31 13.56L13.56 9.31C13.81 9.06 14.22 9.06 14.48 9.31ZM11.86 19.21C9.85 21.23 6.59 21.23 4.57 19.21C2.56 17.2 2.56 13.94 4.57 11.93L6.84 9.67C7.09 9.41 7.5 9.41 7.76 9.67C8.01 9.92 8.01 10.33 7.76 10.59L5.49 12.85C3.99 14.35 3.99 16.79 5.49 18.3C7 19.8 9.43 19.8 10.94 18.3L13.2 16.03C13.46 15.78 13.87 15.78 14.12 16.03C14.38 16.28 14.38 16.7 14.12 16.95L11.86 19.21Z" fill="#74767B" fill-opacity="1.000000" fill-rule="evenodd"/>
</svg>
