<svg width="24.000000" height="24.000000" viewBox="0 0 24 24" fill="none" xmlns="http://www.w3.org/2000/svg" xmlns:xlink="http://www.w3.org/1999/xlink">
	<desc>
			Created with Pixso.
	</desc>
	<defs/>
	<path id="Shape" d="M12 3C12.36 3 12.65 3.29 12.65 3.64L12.65 7.35C12.65 7.7 12.36 8 12 8C11.64 8 11.35 7.7 11.35 7.35L11.35 3.64C11.35 3.29 11.64 3 12 3ZM9.17 9.17C8.91 9.42 8.5 9.42 8.25 9.17L5.63 6.55C5.5 6.42 5.44 6.26 5.44 6.09C5.44 5.92 5.5 5.76 5.63 5.63C5.88 5.38 6.3 5.38 6.55 5.63L9.17 8.25C9.29 8.37 9.36 8.54 9.36 8.71C9.36 8.87 9.29 9.04 9.17 9.17ZM8 12C8 12.35 7.7 12.65 7.35 12.65L3.64 12.65C3.29 12.65 3 12.35 3 12C3 11.64 3.29 11.35 3.64 11.35L7.35 11.35C7.7 11.35 8 11.64 8 12ZM21 12C21 12.35 20.7 12.65 20.35 12.65L16.64 12.65C16.29 12.65 16 12.35 16 12C16 11.64 16.29 11.35 16.64 11.35L20.35 11.35C20.7 11.35 21 11.64 21 12ZM18.36 18.36C18.1 18.61 17.69 18.61 17.44 18.36L14.82 15.74C14.7 15.62 14.63 15.45 14.63 15.28C14.63 15.12 14.7 14.95 14.82 14.82C15.08 14.57 15.49 14.57 15.74 14.82L18.36 17.44C18.49 17.57 18.55 17.73 18.55 17.9C18.55 18.07 18.49 18.23 18.36 18.36ZM9.17 14.82C9.3 14.95 9.36 15.12 9.36 15.28C9.36 15.45 9.3 15.62 9.17 15.74L6.56 18.36C6.3 18.61 5.89 18.61 5.64 18.36C5.51 18.23 5.45 18.07 5.45 17.9C5.45 17.73 5.51 17.57 5.64 17.44L8.25 14.82C8.51 14.57 8.92 14.57 9.17 14.82ZM12 16C12.36 16 12.65 16.29 12.65 16.65L12.65 20.35C12.65 20.7 12.36 21 12 21C11.64 21 11.35 20.7 11.35 20.35L11.35 16.65C11.35 16.29 11.64 16 12 16Z" fill="#717681" fill-opacity="1.000000" fill-rule="evenodd"/>
</svg>
