<svg width="24.000000" height="24.000000" viewBox="0 0 24 24" fill="none" xmlns="http://www.w3.org/2000/svg" xmlns:xlink="http://www.w3.org/1999/xlink">
	<desc>
			Created with Pixso.
	</desc>
	<defs/>
	<path id="Shape" d="M12 21C16.97 21 21 16.97 21 12C21 7.02 16.97 3 12 3C7.03 3 3 7.02 3 12C3 16.97 7.03 21 12 21ZM12.65 15.65C12.65 15.29 12.36 15 12 15C11.64 15 11.35 15.29 11.35 15.65L11.35 17.84C11.35 18.2 11.64 18.5 12 18.5C12.36 18.5 12.65 18.2 12.65 17.84L12.65 15.65ZM9 12C9 12.35 8.7 12.65 8.34 12.65L6.15 12.65C5.79 12.65 5.5 12.35 5.5 12C5.5 11.64 5.79 11.35 6.15 11.35L8.34 11.35C8.7 11.35 9 11.64 9 12ZM8.96 9.87C9.21 10.13 9.63 10.13 9.88 9.87C10.13 9.62 10.13 9.21 9.88 8.95L8.33 7.4C8.07 7.15 7.66 7.14 7.41 7.4C7.15 7.65 7.15 8.07 7.41 8.32L8.96 9.87ZM9.87 14.12C10.13 14.37 10.13 14.78 9.87 15.04L8.32 16.59C8.07 16.84 7.65 16.85 7.4 16.59C7.14 16.34 7.15 15.92 7.4 15.67L8.95 14.12C9.21 13.86 9.62 13.86 9.87 14.12ZM12.65 6.15C12.65 5.79 12.36 5.5 12 5.5C11.64 5.5 11.35 5.79 11.35 6.15L11.35 8.34C11.35 8.7 11.64 9 12 9C12.36 9 12.65 8.7 12.65 8.34L12.65 6.15ZM18.5 12C18.5 12.35 18.2 12.65 17.84 12.65L15.65 12.65C15.29 12.65 15 12.35 15 12C15 11.64 15.29 11.35 15.65 11.35L17.84 11.35C18.2 11.35 18.5 11.64 18.5 12ZM15.68 16.59C15.93 16.84 16.34 16.85 16.6 16.59C16.85 16.34 16.85 15.92 16.6 15.67L15.05 14.12C14.79 13.86 14.38 13.86 14.12 14.12C13.87 14.37 13.87 14.78 14.13 15.04L15.68 16.59Z" fill="#717681" fill-opacity="1.000000" fill-rule="evenodd"/>
</svg>
