<svg width="24.000000" height="24.000000" viewBox="0 0 24 24" fill="none" xmlns="http://www.w3.org/2000/svg" xmlns:xlink="http://www.w3.org/1999/xlink">
	<desc>
			Created with Pixso.
	</desc>
	<defs>
		<clipPath id="clip17_1323">
			<rect id="Solid / More Vertical Solid" width="24.000000" height="24.000000" fill="white" fill-opacity="0"/>
		</clipPath>
	</defs>
	<g clip-path="url(#clip17_1323)">
		<path id="Shape" d="M12 21C7.02 21 3 16.97 3 12C3 7.02 7.02 3 12 3C16.97 3 21 7.02 21 12C21 16.97 16.97 21 12 21ZM10.7 17.7C10.7 16.98 11.28 16.4 12 16.4C12.71 16.4 13.29 16.98 13.29 17.7C13.29 18.41 12.71 19 12 19C11.28 19 10.7 18.41 10.7 17.7ZM10.69 6.7C10.69 5.98 11.28 5.39 12 5.39C12.71 5.39 13.29 5.98 13.29 6.7C13.29 7.41 12.71 8 12 8C11.28 8 10.69 7.41 10.69 6.7ZM10.7 12C10.7 11.28 11.28 10.7 12 10.7C12.71 10.7 13.29 11.28 13.29 12C13.29 12.71 12.71 13.3 12 13.3C11.28 13.3 10.7 12.71 10.7 12Z" fill="#74767B" fill-opacity="1.000000" fill-rule="evenodd"/>
	</g>
</svg>
