<svg width="24.000000" height="24.000000" viewBox="0 0 24 24" fill="none" xmlns="http://www.w3.org/2000/svg" xmlns:xlink="http://www.w3.org/1999/xlink">
	<desc>
			Created with Pixso.
	</desc>
	<defs>
		<clipPath id="clip17_1320">
			<rect id="Solid / More Horizontal Solid" width="24.000000" height="24.000000" fill="white" fill-opacity="0"/>
		</clipPath>
	</defs>
	<g clip-path="url(#clip17_1320)">
		<path id="Shape" d="M3 12C3 7.02 7.02 3 12 3C16.97 3 21 7.02 21 12C21 16.97 16.97 21 12 21C7.02 21 3 16.97 3 12ZM6.29 10.7C7.01 10.7 7.6 11.28 7.6 11.99C7.6 12.71 7.01 13.29 6.29 13.29C5.58 13.29 5 12.71 5 11.99C5 11.28 5.58 10.7 6.29 10.7ZM17.29 10.7C18.01 10.7 18.6 11.28 18.6 11.99C18.6 12.71 18.01 13.29 17.29 13.29C16.58 13.29 16 12.71 16 11.99C16 11.28 16.58 10.7 17.29 10.7ZM12 10.7C12.71 10.7 13.29 11.28 13.29 12C13.29 12.71 12.71 13.3 12 13.3C11.28 13.3 10.7 12.71 10.7 12C10.7 11.28 11.28 10.7 12 10.7Z" fill="#717681" fill-opacity="1.000000" fill-rule="evenodd"/>
	</g>
</svg>
