<svg width="24" height="24" viewBox="0 0 24 24" fill="none" xmlns="http://www.w3.org/2000/svg">
<path fill-rule="evenodd" clip-rule="evenodd" d="M4.36716 2.20642C4.65168 1.98751 5.05978 2.0407 5.27869 2.32522L6.99112 4.55091C10.9323 2.12178 16.1445 3.08019 18.9445 6.87195C21.6725 10.5663 21.1561 15.6578 17.9078 18.7396L19.5797 20.9126C19.7986 21.1971 19.7454 21.6052 19.4609 21.8241C19.1764 22.043 18.7683 21.9899 18.5494 21.7053L4.24836 3.11795C4.02945 2.83343 4.08264 2.42532 4.36716 2.20642ZM17.11 17.7027C19.801 15.0574 20.2049 10.7673 17.8987 7.64418C15.5308 4.43749 11.1463 3.59938 7.78889 5.58779L9.2749 7.51919C10.7366 6.76094 12.4396 6.74612 13.8835 7.39736C14.3402 7.60335 14.5816 8.02558 14.5978 8.4556C14.6136 8.87291 14.4206 9.29026 14.0581 9.55795L12.0082 11.0717L12.9128 12.2474L14.9391 10.7512C15.3016 10.4835 15.7573 10.4219 16.1515 10.5597C16.5577 10.7018 16.8902 11.0567 16.9526 11.5539C17.1417 13.0588 16.6772 14.6109 15.6235 15.7706L17.11 17.7027ZM14.8137 14.718C15.476 13.8959 15.7756 12.8509 15.6749 11.8239L13.7057 13.278L14.8137 14.718ZM11.2153 10.0412L13.2494 8.5391C12.2502 8.12077 11.1023 8.11816 10.0847 8.57166L11.2153 10.0412Z" fill="#717681"/>
<path d="M4.46508 17.5639C1.88566 14.0708 2.20681 9.32872 4.99525 6.21732L5.80421 7.26875C4.29751 9.06209 3.70909 11.4355 4.14467 13.6864L6.38829 12.0297C6.39448 12.0251 6.42022 11.9996 6.42355 11.9374C6.47444 10.9865 6.7811 10.0529 7.327 9.24795L8.17744 10.3533C7.90652 10.8669 7.75245 11.4321 7.7217 12.0068C7.70063 12.4005 7.52162 12.8088 7.16053 13.0754L4.5302 15.0177C4.7718 15.6357 5.09787 16.2324 5.51086 16.7917C5.92366 17.3507 6.39775 17.8378 6.91699 18.2504L9.54741 16.308C9.90851 16.0414 10.3514 15.9904 10.7339 16.0862C11.3427 16.2386 11.9839 16.2475 12.6027 16.1049L13.4531 17.2101C12.4653 17.5563 11.408 17.595 10.4182 17.3473C10.3577 17.3321 10.3258 17.3492 10.3196 17.3538L8.07579 19.0107C10.1863 20.1364 12.7524 20.236 14.9761 19.1897L15.785 20.241C11.9343 22.2052 7.11741 21.1558 4.46508 17.5639Z" fill="#717681"/>
</svg>
