<svg width="24.000000" height="24.000000" viewBox="0 0 24 24" fill="none" xmlns="http://www.w3.org/2000/svg" xmlns:xlink="http://www.w3.org/1999/xlink">
	<desc>
			Created with Pixso.
	</desc>
	<defs>
		<clipPath id="clip17_1269">
			<rect id="Outline / Notifications Outline" width="24.000000" height="24.000000" fill="white" fill-opacity="0"/>
		</clipPath>
	</defs>
	<g clip-path="url(#clip17_1269)">
		<path id="Shape" d="M11.94 1.93C12.3 1.93 12.59 2.22 12.59 2.58L12.59 4.62C14.52 4.88 16.13 6.29 16.6 8.22L18.37 15.27L19.1 15.27C19.45 15.27 19.75 15.57 19.75 15.92C19.75 16.28 19.45 16.57 19.1 16.57L4.79 16.57C4.44 16.57 4.14 16.28 4.14 15.92C4.14 15.57 4.44 15.27 4.79 15.27L5.52 15.27L7.29 8.22C7.76 6.29 9.37 4.88 11.29 4.62L11.29 2.58C11.29 2.22 11.59 1.93 11.94 1.93ZM15.34 8.54L17.03 15.27L6.85 15.27L8.54 8.54C8.93 6.98 10.33 5.88 11.94 5.88C13.55 5.88 14.96 6.97 15.34 8.54ZM9.98 17.95C10.34 17.94 10.64 18.22 10.64 18.58C10.66 19.06 11.11 19.54 11.79 19.54C12.48 19.54 12.93 19.06 12.95 18.58C12.95 18.22 13.25 17.94 13.61 17.95C13.97 17.95 14.25 18.25 14.24 18.61C14.21 19.91 13.07 20.85 11.79 20.85C10.52 20.85 9.38 19.91 9.35 18.61C9.34 18.25 9.62 17.95 9.98 17.95Z" fill="#74767B" fill-opacity="1.000000" fill-rule="evenodd"/>
	</g>
</svg>
