<svg width="24.000000" height="24.000000" viewBox="0 0 24 24" fill="none" xmlns="http://www.w3.org/2000/svg" xmlns:xlink="http://www.w3.org/1999/xlink">
	<desc>
			Created with Pixso.
	</desc>
	<defs>
		<clipPath id="clip17_1710">
			<rect id="Outline / Notifications Off Outline" width="24.000000" height="24.000000" fill="white" fill-opacity="0"/>
		</clipPath>
	</defs>
	<g>
		<path id="Shape" d="M12.6 2.58C12.6 2.22 12.3 1.93 11.95 1.93C11.59 1.93 11.3 2.22 11.3 2.58L11.3 4.62C10.31 4.75 9.4 5.19 8.69 5.84L5.92 2.24C5.7 1.95 5.29 1.9 5.01 2.12C4.72 2.34 4.67 2.75 4.89 3.03L19.29 21.75C19.51 22.04 19.92 22.09 20.21 21.87C20.49 21.65 20.54 21.24 20.32 20.96L16.95 16.57L19.1 16.57C19.45 16.57 19.75 16.28 19.75 15.92C19.75 15.57 19.45 15.27 19.1 15.27L18.37 15.27L16.61 8.22C16.13 6.29 14.52 4.88 12.6 4.62L12.6 2.58ZM15.95 15.27L17.04 15.27L15.35 8.54C14.96 6.97 13.56 5.88 11.95 5.88C11 5.88 10.13 6.25 9.49 6.88L15.95 15.27ZM5.52 15.27L7.27 8.26L8.29 9.57L6.86 15.27L12.67 15.27L13.67 16.57L4.8 16.57C4.44 16.57 4.15 16.28 4.15 15.92C4.15 15.57 4.44 15.27 4.8 15.27L5.52 15.27ZM10.65 18.58C10.64 18.22 10.34 17.94 9.98 17.95C9.62 17.95 9.34 18.25 9.35 18.61C9.38 19.91 10.52 20.85 11.8 20.85C13.07 20.85 14.21 19.91 14.25 18.61C14.25 18.25 13.97 17.95 13.61 17.95C13.25 17.94 12.95 18.22 12.95 18.58C12.93 19.06 12.48 19.54 11.8 19.54C11.11 19.54 10.66 19.06 10.65 18.58Z" fill="#717681" fill-opacity="1.000000" fill-rule="evenodd"/>
	</g>
</svg>
