<svg width="24" height="24" viewBox="0 0 24 24" fill="none" xmlns="http://www.w3.org/2000/svg">
<path fill-rule="evenodd" clip-rule="evenodd" d="M4.64661 8.80424C4.28763 8.80424 3.99661 8.51323 3.99661 8.15424L3.99661 5.35372C3.99661 4.60814 4.60103 4.00372 5.34661 4.00372H8.14713C8.50611 4.00372 8.79713 4.29474 8.79713 4.65372C8.79713 5.01271 8.50611 5.30372 8.14713 5.30372L6.21572 5.30372L8.90257 7.99056C9.15642 8.2444 9.15642 8.65595 8.90258 8.9098C8.64874 9.16364 8.23718 9.16364 7.98334 8.9098L5.29661 6.22309L5.29661 8.15424C5.29661 8.51323 5.0056 8.80424 4.64661 8.80424ZM6.21546 18.6926L8.14661 18.6926C8.5056 18.6926 8.79661 18.9836 8.79661 19.3426C8.79661 19.7016 8.5056 19.9926 8.14661 19.9926H5.34609C4.60051 19.9926 3.99609 19.3882 3.99609 18.6426V15.8421C3.99609 15.4831 4.28711 15.1921 4.64609 15.1921C5.00508 15.1921 5.29609 15.4831 5.29609 15.8421L5.29609 17.7735L7.98293 15.0866C8.23677 14.8328 8.64832 14.8328 8.90217 15.0866C9.15601 15.3405 9.15601 15.752 8.90217 16.0059L6.21546 18.6926ZM18.7012 17.7811L18.7012 15.8499C18.7012 15.4909 18.9922 15.1999 19.3512 15.1999C19.7102 15.1999 20.0012 15.4909 20.0012 15.8499L20.0012 18.6504C20.0012 19.396 19.3968 20.0004 18.6512 20.0004H15.8507C15.4917 20.0004 15.2007 19.7094 15.2007 19.3504C15.2007 18.9915 15.4917 18.7004 15.8507 18.7004L17.7821 18.7004L15.0952 16.0136C14.8414 15.7598 14.8414 15.3482 15.0952 15.0944C15.349 14.8405 15.7606 14.8405 16.0144 15.0944L18.7012 17.7811ZM15.1963 4.65372C15.1963 4.29474 15.4873 4.00372 15.8463 4.00372H18.6468C19.3924 4.00372 19.9968 4.60814 19.9968 5.35372L19.9968 8.15424C19.9968 8.51323 19.7058 8.80424 19.3468 8.80424C18.9878 8.80424 18.6968 8.51323 18.6968 8.15424V6.22283L16.01 8.90969C15.7561 9.16353 15.3446 9.16353 15.0907 8.90969C14.8369 8.65585 14.8369 8.24429 15.0907 7.99045L17.7774 5.30372L15.8463 5.30372C15.4873 5.30372 15.1963 5.01271 15.1963 4.65372Z" fill="#717681"/>
</svg>
