<svg width="24.000000" height="24.000000" viewBox="0 0 24 24" fill="none" xmlns="http://www.w3.org/2000/svg" xmlns:xlink="http://www.w3.org/1999/xlink">
	<desc>
			Created with Pixso.
	</desc>
	<defs>
		<clipPath id="clip17_1371">
			<rect id="Outline / Person Add Outline" width="24.000000" height="24.000000" fill="white" fill-opacity="0"/>
		</clipPath>
	</defs>
	<g>
		<path id="Shape" d="M12 3C9.33 3 7.26 5.32 7.56 7.96L7.82 10.27C8.06 12.39 9.86 14 12 14C14.13 14 15.93 12.39 16.17 10.27L16.43 7.96C16.73 5.32 14.66 3 12 3ZM14.88 10.12L15.14 7.82C15.35 5.94 13.88 4.29 12 4.29C10.11 4.29 8.64 5.94 8.85 7.82L9.11 10.12C9.28 11.59 10.52 12.7 12 12.7C13.47 12.7 14.71 11.59 14.88 10.12ZM18.14 15.5C18.14 15.14 17.85 14.85 17.5 14.85C17.14 14.85 16.85 15.14 16.85 15.5L16.85 17.35L15 17.35C14.64 17.35 14.35 17.64 14.35 18C14.35 18.36 14.64 18.65 15 18.65L16.85 18.65L16.85 20.5C16.85 20.86 17.14 21.15 17.5 21.15C17.85 21.15 18.14 20.86 18.14 20.5L18.14 18.65L20 18.65C20.35 18.65 20.64 18.36 20.64 18C20.64 17.64 20.35 17.35 20 17.35L18.14 17.35L18.14 15.5ZM10.14 15C7.33 15 4.89 16.95 4.28 19.69L4.18 20.14C4.09 20.58 4.42 21 4.87 21L12.65 21C13.01 21 13.3 20.7 13.3 20.35C13.3 19.99 13.01 19.7 12.65 19.7L5.62 19.7C6.2 17.69 8.04 16.29 10.14 16.29L12.65 16.29C13.01 16.29 13.3 16 13.3 15.65C13.3 15.29 13.01 15 12.65 15L10.14 15Z" fill="#717681" fill-opacity="1.000000" fill-rule="evenodd"/>
	</g>
</svg>
