<svg width="24" height="24" viewBox="0 0 24 24" fill="none" xmlns="http://www.w3.org/2000/svg">
<path fill-rule="evenodd" clip-rule="evenodd" d="M21 12C21 14.8383 19.6861 17.3698 17.6333 19.0193C16.7657 19.7166 15.766 20.2562 14.6778 20.5949C13.8319 20.8582 12.9325 21 12 21C11.0675 21 10.1681 20.8582 9.32218 20.5949C8.23399 20.2562 7.23437 19.7166 6.36675 19.0194C4.31394 17.3699 3 14.8384 3 12C3 7.02944 7.02944 3 12 3C16.9706 3 21 7.02944 21 12ZM16.9955 17.8598C16.1613 16.7631 14.8454 16.0749 13.3965 16.0749H10.6036C9.15469 16.0749 7.83871 16.7631 7.00455 17.8598C8.34925 19.0073 10.0937 19.7 12 19.7C13.9063 19.7 15.6508 19.0073 16.9955 17.8598ZM8.65864 10.1824C8.43195 8.18759 9.99236 6.43982 12 6.43982C14.0077 6.43982 15.5681 8.18759 15.3415 10.1824L15.1441 11.9196C14.9623 13.5186 13.6094 14.7266 12 14.7266C10.3907 14.7266 9.03775 13.5186 8.85604 11.9196L8.65864 10.1824Z" fill="#7A7E88"/>
</svg>
