<svg width="24.000000" height="24.000000" viewBox="0 0 24 24" fill="none" xmlns="http://www.w3.org/2000/svg" xmlns:xlink="http://www.w3.org/1999/xlink">
	<desc>
			Created with Pixso.
	</desc>
	<defs>
		<clipPath id="clip17_1570">
			<rect id="Solid / Power Solid" width="24.000000" height="24.000000" fill="white" fill-opacity="0"/>
		</clipPath>
	</defs>
	<g >
		<path id="Shape" d="M12 21C16.97 21 21 16.97 21 12C21 7.02 16.97 3 12 3C7.02 3 3 7.02 3 12C3 16.97 7.02 21 12 21ZM11.35 6.64C11.35 6.29 11.64 6 12 6C12.35 6 12.64 6.29 12.64 6.64L12.64 10.35C12.64 10.7 12.35 11 12 11C11.64 11 11.35 10.7 11.35 10.35L11.35 6.64ZM9.51 7.6C9.73 7.89 9.67 8.3 9.39 8.51C8.33 9.31 7.64 10.57 7.64 12C7.64 14.4 9.59 16.35 12 16.35C14.4 16.35 16.35 14.4 16.35 12C16.35 10.57 15.66 9.31 14.6 8.51C14.32 8.3 14.26 7.89 14.48 7.6C14.69 7.32 15.1 7.26 15.39 7.47C16.76 8.5 17.64 10.15 17.64 12C17.64 15.12 15.12 17.65 12 17.65C8.87 17.65 6.35 15.12 6.35 12C6.35 10.15 7.23 8.5 8.6 7.47C8.89 7.26 9.3 7.32 9.51 7.6Z" fill="#74767B" fill-opacity="1.000000" fill-rule="evenodd"/>
	</g>
</svg>
