<svg width="24.000000" height="24.000000" viewBox="0 0 24 24" fill="none" xmlns="http://www.w3.org/2000/svg" xmlns:xlink="http://www.w3.org/1999/xlink">
	<desc>
			Created with Pixso.
	</desc>
	<defs>
		<clipPath id="clip17_1341">
			<rect id="Solid / Print Solid" width="24.000000" height="24.000000" fill="white" fill-opacity="0"/>
		</clipPath>
	</defs>
	<g >
		<path id="Shape" d="M14.7 3L9.29 3C8.58 3 8 3.58 8 4.3L8 5.99C8 6.38 8.31 6.69 8.7 6.69L15.29 6.69C15.68 6.69 16 6.38 16 5.99L16 4.3C16 3.58 15.41 3 14.7 3ZM21 15C21 16.65 19.65 18 18 18L17.5 18L17.5 13.8C17.5 13.08 16.91 12.5 16.2 12.5L7.79 12.5C7.08 12.5 6.5 13.08 6.5 13.8L6.5 18L6 18C4.34 18 3 16.65 3 15L3 11C3 9.34 4.34 8 6 8L18 8C19.65 8 21 9.34 21 11L21 15ZM18.48 11.66C19.03 11.66 19.48 11.22 19.48 10.66C19.48 10.11 19.03 9.66 18.48 9.66C17.93 9.66 17.48 10.11 17.48 10.66C17.48 11.22 17.93 11.66 18.48 11.66ZM16 19.7C16 20.41 15.41 21 14.7 21L9.29 21C8.58 21 8 20.41 8 19.7L8 14.7C8 14.31 8.31 14 8.7 14L15.29 14C15.68 14 16 14.31 16 14.7L16 19.7Z" fill="#74767B" fill-opacity="1.000000" fill-rule="evenodd"/>
	</g>
</svg>
