<svg width="24.000000" height="24.000000" viewBox="0 0 24 24" fill="none" xmlns="http://www.w3.org/2000/svg" xmlns:xlink="http://www.w3.org/1999/xlink">
	<desc>
			Created with Pixso.
	</desc>
	<defs>
		<clipPath id="clip134435_203">
			<rect id="Outline / QL Outline" width="24.000000" height="24.000000" fill="white" fill-opacity="0"/>
		</clipPath>
	</defs>
	<g clip-path="url(#clip134435_203)">
		<path id="Shape" d="M12.77 15C12.77 16.06 12.36 17.02 11.69 17.73L12.65 19.02C12.87 19.31 12.81 19.71 12.52 19.93C12.23 20.14 11.82 20.08 11.61 19.8L10.65 18.51C10.1 18.8 9.47 18.97 8.8 18.97C6.61 18.97 4.83 17.19 4.83 15L4.83 8.94C4.83 6.75 6.61 4.97 8.8 4.97C11 4.97 12.77 6.75 12.77 8.94L12.77 15ZM15.87 5.89C15.87 5.53 15.58 5.24 15.22 5.24C14.86 5.24 14.57 5.53 14.57 5.89L14.57 17.82C14.57 18.57 15.17 19.17 15.92 19.17L19.16 19.17C19.52 19.17 19.81 18.88 19.81 18.52C19.81 18.16 19.52 17.87 19.16 17.87L15.92 17.87C15.89 17.87 15.87 17.85 15.87 17.82L15.87 5.89ZM11.47 8.94L11.47 15C11.47 15.63 11.25 16.21 10.89 16.66L9.58 14.9C9.36 14.61 8.96 14.56 8.67 14.77C8.38 14.98 8.32 15.39 8.54 15.68L9.86 17.45C9.53 17.59 9.18 17.67 8.8 17.67C7.33 17.67 6.13 16.47 6.13 15L6.13 8.94C6.13 7.47 7.33 6.27 8.8 6.27C10.28 6.27 11.47 7.47 11.47 8.94Z" fill="#717681" fill-opacity="1.000000" fill-rule="evenodd"/>
	</g>
</svg>
