<svg width="24" height="24" viewBox="0 0 24 24" fill="none" xmlns="http://www.w3.org/2000/svg">
<path d="M9.68848 8.08223H9.78613C10.725 8.08223 11.4861 8.84334 11.4861 9.78223V14.1943C11.4861 14.469 11.421 14.7284 11.3054 14.958L10.5468 14.1582C10.2998 13.8977 9.88838 13.8868 9.62791 14.1338C9.36743 14.3809 9.35654 14.7923 9.60357 15.0528L10.3205 15.8087C10.1524 15.8643 9.9728 15.8943 9.78613 15.8943H9.68848C8.74959 15.8943 7.98848 15.1332 7.98848 14.1943V9.78223C7.98848 8.84334 8.74959 8.08223 9.68848 8.08223Z" fill="#717681"/>
<path fill-rule="evenodd" clip-rule="evenodd" d="M7 3.98828C5.34315 3.98828 4 5.33143 4 6.98828V16.9883C4 18.6451 5.34315 19.9883 7 19.9883H17C18.6569 19.9883 20 18.6451 20 16.9883V6.98828C20 5.33143 18.6569 3.98828 17 3.98828H7ZM11.2653 16.8049C10.8288 17.0528 10.324 17.1943 9.78613 17.1943H9.68848C8.03162 17.1943 6.68848 15.8512 6.68848 14.1943V9.78223C6.68848 8.12537 8.03162 6.78223 9.68848 6.78223H9.78613C11.443 6.78223 12.7861 8.12537 12.7861 9.78223V14.1943C12.7861 14.8427 12.5804 15.4431 12.2307 15.9337L13.1762 16.9306C13.4232 17.1911 13.4124 17.6025 13.1519 17.8496C12.8914 18.0966 12.48 18.0857 12.233 17.8252L11.2653 16.8049ZM14.7412 6.84609C15.1002 6.84609 15.3912 7.13711 15.3912 7.49609V15.8049C15.3912 15.8325 15.4136 15.8549 15.4412 15.8549H17.4243C17.7833 15.8549 18.0743 16.1459 18.0743 16.5049C18.0743 16.8639 17.7833 17.1549 17.4243 17.1549H15.4412C14.6956 17.1549 14.0912 16.5505 14.0912 15.8049V7.49609C14.0912 7.13711 14.3822 6.84609 14.7412 6.84609Z" fill="#717681"/>
</svg>
