<svg width="24" height="24" viewBox="0 0 24 24" fill="none" xmlns="http://www.w3.org/2000/svg">
<path d="M18.8054 9.58726C19.0593 9.8411 19.0593 10.2527 18.8054 10.5065L15.145 14.1669C14.8912 14.4207 14.4796 14.4207 14.2258 14.1669C13.9719 13.9131 13.9719 13.5015 14.2258 13.2477L16.7766 10.6969H8.64072C7.34285 10.6969 6.29072 11.749 6.29072 13.0469V13.3076C6.29072 14.6055 7.34285 15.6576 8.64072 15.6576H11.3412C11.7002 15.6576 11.9912 15.9486 11.9912 16.3076C11.9912 16.6666 11.7002 16.9576 11.3412 16.9576H8.64072C6.62488 16.9576 4.99072 15.3235 4.99072 13.3076V13.0469C4.99072 11.031 6.62488 9.39688 8.64072 9.39688H16.7766L14.2258 6.8461C13.9719 6.59226 13.9719 6.1807 14.2258 5.92686C14.4796 5.67302 14.8912 5.67302 15.145 5.92686L18.8054 9.58726Z" fill="#717681"/>
</svg>
