<svg width="24.000000" height="24.000000" viewBox="0 0 24 24" fill="none" xmlns="http://www.w3.org/2000/svg" xmlns:xlink="http://www.w3.org/1999/xlink">
	<desc>
			Created with Pixso.
	</desc>
	<defs>
		<clipPath id="clip17_1618">
			<rect id="Outline / Refuse Outline" width="24.000000" height="24.000000" fill="white" fill-opacity="0"/>
		</clipPath>
	</defs>
	<g>
		<path id="Shape" d="M12 3C7.02 3 3 7.02 3 12C3 16.97 7.02 21 12 21C16.97 21 21 16.97 21 12C21 7.02 16.97 3 12 3ZM7.03 6.11C8.37 4.98 10.1 4.29 12 4.29C16.25 4.29 19.7 7.74 19.7 12C19.7 13.92 18.99 15.68 17.82 17.03C13.69 12.79 11.49 10.57 7.03 6.11ZM6.11 7.03C4.98 8.37 4.29 10.1 4.29 12C4.29 16.25 7.74 19.7 12 19.7C13.85 19.7 15.56 19.04 16.89 17.94C12.87 13.81 10.48 11.4 6.11 7.03Z" fill="#717681" fill-opacity="1.000000" fill-rule="evenodd"/>
	</g>
</svg>
