<svg width="24.000000" height="24.000000" viewBox="0 0 24 24" fill="none" xmlns="http://www.w3.org/2000/svg" xmlns:xlink="http://www.w3.org/1999/xlink">
	<desc>
			Created with Pixso.
	</desc>
	<defs>
		<clipPath id="clip17_1621">
			<rect id="Solid / Refuse Solid" width="24.000000" height="24.000000" fill="white" fill-opacity="0"/>
		</clipPath>
	</defs>
	<g>
		<path id="Shape" d="M21 12C21 16.97 16.97 21 12 21C7.02 21 3 16.97 3 12C3 7.02 7.02 3 12 3C16.97 3 21 7.02 21 12ZM18 12C18 15.31 15.31 18 12 18C8.68 18 6 15.31 6 12C6 8.68 8.68 6 12 6C15.31 6 18 8.68 18 12ZM9.16 8.24L15.75 14.83C16.34 14.04 16.7 13.06 16.7 12C16.7 9.4 14.59 7.29 12 7.29C10.93 7.29 9.95 7.65 9.16 8.24ZM12 16.7C13.06 16.7 14.04 16.34 14.83 15.75L8.24 9.16C7.65 9.95 7.29 10.93 7.29 12C7.29 14.59 9.4 16.7 12 16.7Z" fill="#717681" fill-opacity="1.000000" fill-rule="evenodd"/>
	</g>
</svg>
