<svg width="24.000000" height="24.000000" viewBox="0 0 24 24" fill="none" xmlns="http://www.w3.org/2000/svg" xmlns:xlink="http://www.w3.org/1999/xlink">
	<desc>
			Created with Pixso.
	</desc>
	<defs>
		<clipPath id="clip17_1624">
			<rect id="Outline / Report Outline" width="24.000000" height="24.000000" fill="white" fill-opacity="0"/>
		</clipPath>
	</defs>
	<g >
		<path id="Shape" d="M12 4.3C12 3.58 12.58 2.99 13.29 3.09C17.22 3.65 20.34 6.77 20.9 10.7C21 11.41 20.41 12 19.7 12L13.29 12C12.58 12 12 11.41 12 10.7L12 4.3ZM19.94 14C20.37 14 20.68 14.39 20.55 14.8C19.37 18.39 15.99 21 12 21C7.02 21 3 16.97 3 12C3 8 5.6 4.62 9.19 3.44C9.6 3.31 10 3.62 10 4.05C10 4.35 9.79 4.61 9.51 4.71C6.48 5.74 4.29 8.61 4.29 12C4.29 16.25 7.74 19.7 12 19.7C15.38 19.7 18.25 17.51 19.28 14.48C19.38 14.2 19.64 14 19.94 14ZM13.29 4.4L13.29 10.7L19.59 10.7C19.04 7.49 16.5 4.95 13.29 4.4Z" fill="#74767B" fill-opacity="1.000000" fill-rule="evenodd"/>
	</g>
</svg>
