<svg width="24.000000" height="24.000000" viewBox="0 0 24 24" fill="none" xmlns="http://www.w3.org/2000/svg" xmlns:xlink="http://www.w3.org/1999/xlink">
	<desc>
			Created with Pixso.
	</desc>
	<defs>
		<clipPath id="clip17_1332">
			<rect id="Outline / Save Outline" width="24.000000" height="24.000000" fill="white" fill-opacity="0"/>
		</clipPath>
	</defs>
	<g clip-path="url(#clip17_1332)">
		<path id="Shape" d="M7.77 20L17 20C18.65 20 20 18.65 20 17L20 10.24C20 9.44 19.68 8.68 19.12 8.12L15.87 4.87C15.31 4.31 14.55 4 13.75 4L6.99 4C5.33 4 4 5.34 4 7L4 17C4 18.65 5.34 20 7 20L7.53 20C7.57 20 7.61 20.01 7.65 20.01C7.69 20.01 7.73 20 7.77 20ZM17.01 18.7L17.01 13.7C17.01 12.95 16.4 12.35 15.66 12.35L8.35 12.35C7.6 12.35 7 12.95 7 13.7L7 18.7L7 18.7C6.06 18.7 5.29 17.93 5.29 17L5.29 7C5.29 6.06 6.05 5.3 6.99 5.3L6.99 8.29C6.99 9.04 7.59 9.64 8.34 9.64L12.64 9.64C13.39 9.64 13.99 9.04 13.99 8.29L13.99 5.31C14.36 5.36 14.69 5.53 14.95 5.79L18.2 9.04C18.52 9.35 18.7 9.79 18.7 10.24L18.7 17C18.7 17.93 17.94 18.69 17.01 18.7ZM15.71 18.7L15.71 13.7C15.71 13.67 15.68 13.65 15.66 13.65L8.35 13.65C8.32 13.65 8.3 13.67 8.3 13.7L8.3 18.7L15.71 18.7ZM12.69 8.29L12.69 5.29L8.29 5.29L8.29 8.29C8.29 8.32 8.31 8.34 8.34 8.34L12.64 8.34C12.67 8.34 12.69 8.32 12.69 8.29Z" fill="#74767B" fill-opacity="1.000000" fill-rule="evenodd"/>
	</g>
</svg>
