<svg width="24.000000" height="24.000000" viewBox="0 0 24 24" fill="none" xmlns="http://www.w3.org/2000/svg" xmlns:xlink="http://www.w3.org/1999/xlink">
	<desc>
			Created with Pixso.
	</desc>
	<defs>
		<clipPath id="clip1092_1127">
			<rect id="Outline / Server Outline" width="24.000000" height="24.000000" fill="white" fill-opacity="0"/>
		</clipPath>
	</defs>
	<g>
		<path id="Shape" d="M19.99 6C19.99 4.34 18.64 3 16.99 3L7 3C5.34 3 4 4.34 4 6L4 11.35L19.99 11.35L19.99 6ZM19.99 12.64L4 12.64L4 18C4 19.65 5.34 21 7 21L16.99 21C18.64 21 19.99 19.65 19.99 18L19.99 12.64ZM9 7C8.44 7 8 7.44 8 8C8 8.55 8.44 9 9 9C9.55 9 10 8.55 10 8C10 7.44 9.55 7 9 7ZM8 16C8 15.44 8.44 15 9 15C9.55 15 10 15.44 10 16C10 16.55 9.55 17 9 17C8.44 17 8 16.55 8 16Z" fill="#717681" fill-opacity="1.000000" fill-rule="evenodd"/>
	</g>
</svg>
