<svg width="24.000000" height="24.000000" viewBox="0 0 24 24" fill="none" xmlns="http://www.w3.org/2000/svg" xmlns:xlink="http://www.w3.org/1999/xlink">
	<desc>
			Created with Pixso.
	</desc>
	<defs>
		<clipPath id="clip134435_209">
			<rect id="Outline / Sharing Outline" width="24.000000" height="24.000000" fill="white" fill-opacity="0"/>
		</clipPath>
	</defs>
	<g clip-path="url(#clip134435_209)">
		<path id="Shape" d="M6.21 9.61C6.21 9.79 6.29 9.96 6.42 10.09C6.69 10.33 7.1 10.31 7.34 10.05L11.35 6.22L11.35 16.21C11.35 16.57 11.64 16.86 12 16.86C12.36 16.86 12.65 16.57 12.65 16.21L12.65 6.28L16.29 10.13C16.54 10.4 16.94 10.41 17.21 10.17C17.48 9.93 17.5 9.52 17.25 9.25L12.52 4.23C12.24 3.92 11.76 3.92 11.48 4.23L6.38 9.17C6.27 9.3 6.21 9.45 6.21 9.61ZM4.65 13.98C5.01 13.98 5.3 14.28 5.3 14.63L5.3 16.5C5.3 17.79 6.35 18.85 7.65 18.85L16.34 18.85C17.64 18.85 18.69 17.79 18.69 16.5L18.69 14.63C18.69 14.28 18.98 13.98 19.34 13.98C19.7 13.98 19.99 14.28 19.99 14.63L19.99 16.5C19.99 18.51 18.35 20.15 16.34 20.15L7.65 20.15C5.64 20.15 4 18.51 4 16.5L4 14.63C4 14.28 4.29 13.98 4.65 13.98Z" fill="#717681" fill-opacity="1.000000" fill-rule="evenodd"/>
	</g>
</svg>
