<svg width="24.000000" height="24.000000" viewBox="0 0 24 24" fill="none" xmlns="http://www.w3.org/2000/svg" xmlns:xlink="http://www.w3.org/1999/xlink">
	<desc>
			Created with Pixso.
	</desc>
	<defs>
		<clipPath id="clip5100_1119">
			<rect id="Outline / Sign In Outline" width="24.000000" height="24.000000" fill="white" fill-opacity="0"/>
		</clipPath>
	</defs>
	<g>
		<path id="Shape" d="M9 19.7L15.93 19.7C16.16 19.7 16.38 19.65 16.58 19.57L14.99 18.6C14.09 18.06 13.54 17.09 13.54 16.04L13.54 7.91C13.54 6.85 14.1 5.87 15.02 5.33L16.57 4.42C16.37 4.34 16.16 4.29 15.93 4.29L9 4.29C8.06 4.29 7.3 5.06 7.3 6L7.3 6.34C7.3 6.7 7 7 6.64 7C6.29 7 6 6.7 6 6.34L6 6C6 4.34 7.34 3 9 3L15.93 3C17.59 3 18.93 4.34 18.93 6L18.93 18C18.93 19.65 17.59 21 15.93 21L9 21C7.34 21 6 19.65 6 18L6 17.71C6 17.35 6.29 17.06 6.64 17.06C7 17.06 7.3 17.35 7.3 17.71L7.3 18C7.3 18.93 8.06 19.7 9 19.7ZM17.63 6C17.63 5.77 17.59 5.56 17.51 5.37L15.68 6.45C15.16 6.75 14.84 7.31 14.84 7.91L14.84 16.04C14.84 16.63 15.15 17.18 15.66 17.49L17.52 18.61C17.59 18.42 17.63 18.21 17.63 18L17.63 6ZM7.91 8.86C7.64 8.62 7.23 8.64 6.99 8.91C6.75 9.17 6.77 9.58 7.03 9.82L8.66 11.31L3.7 11.31C3.34 11.31 3.05 11.6 3.05 11.96C3.05 12.32 3.34 12.61 3.7 12.61L8.6 12.61L7.06 14.09C6.8 14.34 6.79 14.75 7.04 15.01C7.29 15.27 7.7 15.28 7.96 15.03L10.66 12.43C10.75 12.34 10.81 12.24 10.84 12.13C10.95 11.88 10.89 11.58 10.68 11.39L7.91 8.86Z" fill="#717681" fill-opacity="1.000000" fill-rule="evenodd"/>
	</g>
</svg>
