<svg width="24.000000" height="24.000000" viewBox="0 0 24 24" fill="none" xmlns="http://www.w3.org/2000/svg" xmlns:xlink="http://www.w3.org/1999/xlink">
	<desc>
			Created with Pixso.
	</desc>
	<defs>
		<clipPath id="clip5100_1120">
			<rect id="Solid / Sign In Solid" width="24.000000" height="24.000000" fill="white" fill-opacity="0"/>
		</clipPath>
	</defs>
	<g clip-path="url(#clip5100_1120)">
		<path id="Shape" d="M9 19.7L15.93 19.7C16.16 19.7 16.38 19.65 16.58 19.57L14.99 18.6C14.09 18.06 13.54 17.09 13.54 16.04L13.54 7.91C13.54 6.85 14.1 5.87 15.02 5.33L16.57 4.42C16.37 4.34 16.16 4.29 15.93 4.29L9 4.29C8.06 4.29 7.29 5.06 7.29 6L7.29 6.34C7.29 6.7 7 7 6.64 7C6.29 7 6 6.7 6 6.34L6 6C6 4.34 7.34 3 9 3L15.93 3C17.59 3 18.93 4.34 18.93 6L18.93 18C18.93 19.65 17.59 21 15.93 21L9 21C7.34 21 6 19.65 6 18L6 17.71C6 17.35 6.29 17.06 6.64 17.06C7 17.06 7.29 17.35 7.29 17.71L7.29 18C7.29 18.93 8.06 19.7 9 19.7ZM7.9 8.86C7.64 8.62 7.23 8.64 6.99 8.91C6.74 9.17 6.76 9.58 7.03 9.82L8.66 11.31L3.7 11.31C3.34 11.31 3.05 11.6 3.05 11.96C3.05 12.32 3.34 12.61 3.7 12.61L8.6 12.61L7.05 14.09C6.79 14.34 6.79 14.75 7.03 15.01C7.28 15.27 7.69 15.28 7.95 15.03L10.66 12.43C10.75 12.34 10.81 12.24 10.84 12.13C10.95 11.88 10.89 11.58 10.68 11.39L7.9 8.86Z" fill="#74767B" fill-opacity="1.000000" fill-rule="evenodd"/>
		<path id="Shape" d="M14.69 18.4C13.97 17.83 13.54 16.96 13.54 16.04L13.54 7.91C13.54 7.01 13.95 6.16 14.64 5.59C14.76 5.5 14.88 5.41 15.02 5.33L16.57 4.42C16.37 4.34 16.16 4.3 15.94 4.29L15.93 4.29L14.22 4.29L9 4.29C8.53 4.29 8.1 4.49 7.79 4.79C7.49 5.1 7.29 5.53 7.29 6L7.29 6.34C7.29 6.7 7 7 6.64 7C6.29 7 6 6.7 6 6.34L6 6L6 5.98C6 5.69 6.04 5.4 6.12 5.14C6.18 4.95 6.25 4.76 6.34 4.59C6.48 4.33 6.66 4.09 6.87 3.88Q6.87 3.88 6.87 3.87Q6.88 3.87 6.88 3.87C7.09 3.66 7.33 3.48 7.59 3.34C7.76 3.25 7.95 3.18 8.14 3.12C8.41 3.04 8.7 3 9 3L15.93 3C16.2 3 16.46 3.03 16.71 3.1C16.84 3.13 16.97 3.18 17.09 3.23C17.77 3.51 18.32 4.04 18.64 4.7C18.83 5.09 18.93 5.53 18.93 6L18.93 18C18.93 18.46 18.83 18.9 18.64 19.29C18.33 19.94 17.79 20.46 17.12 20.75C17.01 20.8 16.89 20.84 16.77 20.88C16.5 20.95 16.22 21 15.93 21L9 21C8.7 21 8.41 20.95 8.13 20.87C7.94 20.81 7.76 20.74 7.59 20.65C7.33 20.51 7.09 20.33 6.88 20.13Q6.88 20.12 6.87 20.12Q6.87 20.11 6.86 20.11C6.66 19.9 6.48 19.66 6.34 19.4C6.25 19.23 6.18 19.05 6.12 18.86C6.04 18.59 6 18.31 6 18.02Q6 18.01 6 18L6 17.71C6 17.35 6.29 17.06 6.64 17.06C7 17.06 7.29 17.35 7.29 17.71L7.29 18C7.29 18.46 7.49 18.89 7.79 19.2L7.79 19.2C8.1 19.5 8.53 19.7 9 19.7L15.93 19.7C16.16 19.7 16.38 19.65 16.58 19.57L14.99 18.6C14.89 18.54 14.78 18.47 14.69 18.4ZM17.52 18.61L15.66 17.49Q15.47 17.38 15.32 17.22Q15.17 17.07 15.06 16.87Q14.95 16.68 14.9 16.47Q14.84 16.26 14.84 16.04L14.84 7.91Q14.84 7.69 14.9 7.48Q14.95 7.27 15.07 7.07Q15.18 6.87 15.33 6.72Q15.48 6.56 15.68 6.45L17.51 5.37Q17.56 5.48 17.59 5.59Q17.63 5.79 17.63 6L17.63 18Q17.63 18.2 17.59 18.4Q17.56 18.51 17.52 18.61ZM7.24 13.91L7.05 14.09C6.79 14.34 6.79 14.75 7.03 15.01C7.28 15.27 7.69 15.28 7.95 15.03L10.48 12.61L10.66 12.43C10.75 12.34 10.81 12.24 10.84 12.13C10.95 11.88 10.89 11.58 10.68 11.39L10.59 11.31L7.91 8.86L7.9 8.86C7.64 8.62 7.23 8.64 6.99 8.91C6.74 9.17 6.76 9.58 7.03 9.82L7.23 10.01L8.66 11.31L3.7 11.31C3.34 11.31 3.05 11.6 3.05 11.96C3.05 12.32 3.34 12.61 3.7 12.61L6.72 12.61L8.6 12.61L7.24 13.91Z" fill="#74767B" fill-opacity="1.000000" fill-rule="evenodd"/>
	</g>
</svg>
