<svg width="24.000000" height="24.000000" viewBox="0 0 24 24" fill="none" xmlns="http://www.w3.org/2000/svg" xmlns:xlink="http://www.w3.org/1999/xlink">
	<desc>
			Created with Pixso.
	</desc>
	<defs>
		<clipPath id="clip17_1585">
			<rect id="Solid / Small Arrow Up Solid" width="24.000000" height="24.000000" fill="white" fill-opacity="0"/>
		</clipPath>
	</defs>
	<g>
		<path id="Shape" d="M12 3C7.02 3 3 7.02 3 12C3 16.97 7.02 21 12 21C16.97 21 21 16.97 21 12C21 7.02 16.97 3 12 3ZM15.17 13.64C15.31 13.51 15.38 13.34 15.38 13.16C15.38 13 15.33 12.85 15.21 12.72L12.52 9.73C12.25 9.42 11.77 9.42 11.48 9.73L8.89 12.71C8.65 12.98 8.67 13.39 8.93 13.63C9.2 13.87 9.61 13.86 9.85 13.59L12 11.1L14.25 13.6C14.49 13.86 14.9 13.88 15.17 13.64Z" fill="#717681" fill-opacity="1.000000" fill-rule="evenodd"/>
	</g>
</svg>
