<svg viewBox="0 0 24 24" xmlns="http://www.w3.org/2000/svg" xmlns:xlink="http://www.w3.org/1999/xlink" width="24.000000" height="24.000000" fill="none">
	<rect id="Solid/Small Arrow Left Solid" width="24.000000" height="24.000000" x="0.000000" y="0.000000" />
	<path id="Shape" d="M0 9C2.1727e-07 13.9706 4.02944 18 9 18C13.9706 18 18 13.9706 18 9C18 4.02944 13.9706 -2.1727e-07 9 7.10543e-15C4.02944 2.1727e-07 -2.1727e-07 4.02944 0 9ZM10.6433 5.82219C10.5133 5.68219 10.3433 5.61219 10.1633 5.61219C10.0033 5.61219 9.8533 5.66219 9.7233 5.78219L6.73354 8.47002C6.42354 8.75002 6.42354 9.23002 6.73354 9.51002L9.71914 12.1063C9.98914 12.3463 10.3991 12.3263 10.6391 12.0663C10.8791 11.7963 10.8691 11.3863 10.5991 11.1463L8.10353 8.99002L10.6033 6.74219C10.8633 6.50219 10.8833 6.09219 10.6433 5.82219Z" fill="rgb(116,118,123)" fill-rule="evenodd" transform="matrix(1,8.74228e-08,8.74228e-08,-1,3,21)" />
</svg>
