<svg width="24.000000" height="24.000000" viewBox="0 0 24 24" fill="none" xmlns="http://www.w3.org/2000/svg" xmlns:xlink="http://www.w3.org/1999/xlink">
	<desc>
			Created with Pixso.
	</desc>
	<defs>
		<clipPath id="clip17_1326">
			<rect id="Outline / Star Outline" width="24.000000" height="24.000000" fill="white" fill-opacity="0"/>
		</clipPath>
	</defs>
	<g clip-path="url(#clip17_1326)">
		<path id="Shape" d="M12 4.96L13.91 8.87L14.21 9.47L14.89 9.57L19.19 10.21L16.08 13.25L15.6 13.73L15.71 14.4L16.45 18.69L12.6 16.67L12 16.34L11.39 16.66L7.54 18.68L8.29 14.39L8.41 13.72L7.91 13.24L4.81 10.2L9.1 9.56L9.79 9.46L10.08 8.85L12 4.96ZM12 2.91C11.75 2.91 11.5 3.04 11.37 3.31L8.91 8.29L3.39 9.09C2.83 9.17 2.6 9.88 3 10.29L7 14.17L6.06 19.65C5.97 20.1 6.33 20.46 6.75 20.46C6.85 20.46 6.96 20.44 7.08 20.39L12 17.81L16.91 20.4C17.02 20.45 17.14 20.48 17.25 20.48C17.66 20.48 18.02 20.11 17.93 19.66L17 14.17L20.98 10.29C21.39 9.88 21.16 9.17 20.58 9.09L15.08 8.29L12.62 3.31C12.5 3.04 12.25 2.91 12 2.91Z" fill="#717681" fill-opacity="1.000000" fill-rule="nonzero"/>
	</g>
</svg>
