<svg width="24.000000" height="24.000000" viewBox="0 0 24 24" fill="none" xmlns="http://www.w3.org/2000/svg" xmlns:xlink="http://www.w3.org/1999/xlink">
	<desc>
			Created with Pixso.
	</desc>
	<defs>
		<clipPath id="clip1098_1156">
			<rect id="Outline / Streaming Outline " width="24.000000" height="24.000000" fill="white" fill-opacity="0"/>
		</clipPath>
	</defs>
	<g >
		<path id="Shape" d="M21 8C21 6.34 19.65 5 18 5L6 5C4.34 5 3 6.34 3 8L3 8.35C3 8.7 3.29 9 3.64 9C4 9 4.29 8.7 4.29 8.35L4.29 8C4.29 7.06 5.06 6.3 6 6.3L18 6.3C18.93 6.3 19.7 7.06 19.7 8L19.7 16C19.7 16.93 18.93 17.7 18 17.7L13.35 17.7C12.99 17.7 12.7 17.99 12.7 18.35C12.7 18.7 12.99 19 13.35 19L18 19C19.65 19 21 17.65 21 16L21 8ZM3.64 10.29C3.29 10.29 3 10.59 3 10.94C3 11.3 3.29 11.59 3.64 11.59C7.36 11.59 10.36 14.6 10.36 18.31C10.36 18.67 10.65 18.96 11.01 18.96C11.37 18.96 11.66 18.67 11.66 18.31C11.66 13.88 8.07 10.29 3.64 10.29ZM3 13.73C3 13.37 3.29 13.08 3.64 13.08C6.54 13.08 8.88 15.42 8.88 18.31C8.88 18.67 8.59 18.96 8.23 18.96C7.87 18.96 7.58 18.67 7.58 18.31C7.58 16.14 5.82 14.38 3.64 14.38C3.29 14.38 3 14.09 3 13.73ZM4.38 18.95C5.14 18.95 5.75 18.34 5.75 17.58C5.75 16.82 5.14 16.21 4.38 16.21C3.62 16.21 3.01 16.82 3.01 17.58C3.01 18.34 3.62 18.95 4.38 18.95Z" fill="#74767B" fill-opacity="1.000000" fill-rule="evenodd"/>
	</g>
</svg>
