<svg width="24" height="24" viewBox="0 0 24 24" fill="none" xmlns="http://www.w3.org/2000/svg">
<path d="M4.65 7C4.65 5.70213 5.70213 4.65 7 4.65H17C18.2979 4.65 19.35 5.70213 19.35 7V17C19.35 18.2979 18.2979 19.35 17 19.35H7C5.70213 19.35 4.65 18.2979 4.65 17V7ZM12.6519 6.2837L13.1115 6.74332L12.6519 6.2837C12.269 6.66659 12.1749 7.2289 12.3695 7.7H12C9.62518 7.7 7.7 9.62518 7.7 12V12.3705C7.2289 12.1758 6.66659 12.27 6.2837 12.6528L6.74332 13.1125L6.2837 12.6528C5.77602 13.1605 5.77602 13.9836 6.2837 14.4913L8.08076 16.2884C8.58844 16.7961 9.41156 16.7961 9.91924 16.2884L11.7163 14.4913C12.224 13.9836 12.224 13.1605 11.7163 12.6528C11.3334 12.27 10.7711 12.1758 10.3 12.3705V12C10.3 11.0611 11.0611 10.3 12 10.3H12.3695C12.1749 10.7711 12.269 11.3334 12.6519 11.7163C13.1595 12.224 13.9827 12.224 14.4903 11.7163L16.2874 9.91924C16.7951 9.41156 16.7951 8.58844 16.2874 8.08076L14.4903 6.2837C13.9827 5.77602 13.1595 5.77602 12.6519 6.2837ZM7 16.7C6.28203 16.7 5.7 17.282 5.7 18C5.7 18.718 6.28203 19.3 7 19.3H16C16.718 19.3 17.3 18.718 17.3 18C17.3 17.282 16.718 16.7 16 16.7H7ZM19.3 7C19.3 6.28203 18.718 5.7 18 5.7C17.282 5.7 16.7 6.28203 16.7 7L16.7 16C16.7 16.718 17.282 17.3 18 17.3C18.718 17.3 19.3 16.718 19.3 16V7Z" fill="#717681" stroke="#717681" stroke-width="1.3"/>
</svg>
