<svg width="24.000000" height="24.000000" viewBox="0 0 24 24" fill="none" xmlns="http://www.w3.org/2000/svg" xmlns:xlink="http://www.w3.org/1999/xlink">
	<desc>
			Created with Pixso.
	</desc>
	<defs>
		<clipPath id="clip127988_954">
			<rect id="Outline / Switch Pinned Areas Outline" width="24.000000" height="24.000000" fill="white" fill-opacity="0"/>
		</clipPath>
	</defs>
	<g clip-path="url(#clip127988_954)">
		<path id="Shape" d="M7 4C5.34 4 4 5.34 4 7L4 17C4 18.65 5.34 20 7 20L17 20C18.65 20 20 18.65 20 17L20 7C20 5.34 18.65 4 17 4L7 4ZM17 5.29L7 5.29C6.06 5.29 5.29 6.06 5.29 7L5.29 17C5.29 17.93 6.06 18.7 7 18.7L17 18.7C17.93 18.7 18.7 17.93 18.7 17L18.7 7C18.7 6.06 17.93 5.29 17 5.29ZM17.64 7C17.64 6.64 17.35 6.34 17 6.34C16.64 6.34 16.35 6.64 16.35 7L16.35 15C16.35 15.35 16.64 15.65 17 15.65C17.35 15.65 17.64 15.35 17.64 15L17.64 7ZM14.93 9.45L13.13 11.25C12.88 11.51 12.47 11.51 12.21 11.25C11.96 11 11.96 10.59 12.21 10.33L12.9 9.65L12 9.65C10.7 9.65 9.64 10.7 9.64 12L9.64 12.82L10.33 12.13C10.59 11.88 11 11.88 11.25 12.13C11.51 12.39 11.51 12.8 11.25 13.05L9.45 14.85C9.2 15.1 8.79 15.1 8.54 14.85L6.74 13.05C6.48 12.8 6.48 12.39 6.74 12.13C6.99 11.88 7.4 11.88 7.66 12.13L8.35 12.82L8.35 12C8.35 9.98 9.98 8.34 12 8.34L12.9 8.34L12.21 7.66C11.96 7.4 11.96 6.99 12.21 6.74C12.47 6.48 12.88 6.48 13.13 6.74L14.93 8.54C15.18 8.79 15.18 9.2 14.93 9.45ZM7 16.35C6.64 16.35 6.35 16.64 6.35 17C6.35 17.35 6.64 17.65 7 17.65L15 17.65C15.35 17.65 15.64 17.35 15.64 17C15.64 16.64 15.35 16.35 15 16.35L7 16.35Z" fill="#717681" fill-opacity="1.000000" fill-rule="evenodd"/>
	</g>
</svg>
