<svg width="24.000000" height="24.000000" viewBox="0 0 24 24" fill="none" xmlns="http://www.w3.org/2000/svg" xmlns:xlink="http://www.w3.org/1999/xlink">
	<desc>
			Created with Pixso.
	</desc>
	<defs>
		<clipPath id="clip127988_955">
			<rect id="Solid / Switch Pinned Areas Solid" width="24.000000" height="24.000000" fill="white" fill-opacity="0"/>
		</clipPath>
	</defs>
	<g clip-path="url(#clip127988_955)">
		<path id="Shape" d="M7 4C5.34 4 4 5.34 4 7L4 17C4 18.65 5.34 20 7 20L17 20C18.65 20 20 18.65 20 17L20 7C20 5.34 18.65 4 17 4L7 4ZM6.74 14.03L8.54 15.82C8.79 16.08 9.2 16.08 9.45 15.82L11.25 14.03C11.51 13.77 11.51 13.36 11.25 13.11C11 12.85 10.59 12.85 10.33 13.11L9.64 13.79L9.64 12C9.64 10.7 10.7 9.65 12 9.65L13.79 9.65L13.11 10.33C12.85 10.59 12.85 11 13.11 11.25C13.36 11.51 13.77 11.51 14.03 11.25L15.82 9.45C16.08 9.2 16.08 8.79 15.82 8.54L14.03 6.74C13.77 6.48 13.36 6.48 13.11 6.74C12.85 6.99 12.85 7.4 13.11 7.66L13.79 8.34L12 8.34C9.98 8.34 8.35 9.98 8.35 12L8.35 13.79L7.66 13.11C7.4 12.85 6.99 12.85 6.74 13.11C6.48 13.36 6.48 13.77 6.74 14.03ZM6.35 18C6.35 17.64 6.64 17.35 7 17.35L16 17.35C16.35 17.35 16.64 17.64 16.64 18C16.64 18.35 16.35 18.65 16 18.65L7 18.65C6.64 18.65 6.35 18.35 6.35 18ZM18.64 7C18.64 6.64 18.35 6.34 18 6.34C17.64 6.34 17.35 6.64 17.35 7L17.35 16C17.35 16.35 17.64 16.65 18 16.65C18.35 16.65 18.64 16.35 18.64 16L18.64 7Z" fill="#717681" fill-opacity="1.000000" fill-rule="evenodd"/>
		<path id="Shape" d="M7 4C5.34 4 4 5.34 4 7L4 17C4 18.65 5.34 20 7 20L17 20C18.65 20 20 18.65 20 17L20 7C20 5.34 18.65 4 17 4L7 4ZM18.44 17.89Q18.42 17.9 18.4 17.9Q18.2 17.95 18 17.95Q17.97 17.95 17.94 17.94Q17.95 17.97 17.95 18Q17.95 18.2 17.9 18.4Q17.9 18.42 17.89 18.44Q17.9 18.43 17.91 18.43Q18.07 18.33 18.2 18.2Q18.33 18.07 18.43 17.91Q18.43 17.9 18.44 17.89ZM5.3 17.04Q5.33 16.97 5.37 16.91Q5.48 16.75 5.62 16.62Q5.75 16.48 5.91 16.37Q6.06 16.27 6.24 16.2Q6.41 16.12 6.59 16.09Q6.75 16.05 6.92 16.05L5.82 14.95Q5.67 14.8 5.56 14.63Q5.46 14.48 5.39 14.3Q5.33 14.15 5.29 13.99L5.29 17Q5.29 17.02 5.3 17.04ZM5.29 13.14L5.29 7Q5.29 6.79 5.34 6.59Q5.37 6.46 5.43 6.33Q5.49 6.2 5.56 6.08Q5.66 5.92 5.79 5.79Q5.92 5.66 6.08 5.56Q6.2 5.49 6.33 5.43Q6.46 5.37 6.59 5.34Q6.79 5.29 7 5.29L13.14 5.29Q12.98 5.33 12.83 5.39Q12.66 5.46 12.5 5.56Q12.33 5.67 12.19 5.82Q12.04 5.96 11.93 6.13Q11.83 6.29 11.76 6.46Q11.69 6.64 11.65 6.82Q11.63 6.94 11.62 7.06Q11.27 7.08 10.93 7.16Q10.49 7.26 10.07 7.43Q9.64 7.61 9.27 7.86Q8.85 8.14 8.5 8.49Q8.14 8.85 7.86 9.27Q7.61 9.64 7.43 10.07Q7.26 10.49 7.16 10.93Q7.08 11.27 7.06 11.62Q6.94 11.63 6.82 11.65Q6.64 11.69 6.46 11.76Q6.29 11.83 6.13 11.93Q5.96 12.04 5.82 12.19Q5.67 12.33 5.56 12.5Q5.46 12.66 5.39 12.83Q5.33 12.98 5.29 13.14ZM8.35 11.99L8.35 12L8.35 13.79L7.66 13.11L7.66 13.11C7.49 12.94 7.26 12.88 7.04 12.94C6.93 12.96 6.83 13.02 6.74 13.11C6.48 13.36 6.48 13.77 6.74 14.03L6.74 14.03L8.54 15.82C8.79 16.08 9.2 16.08 9.45 15.82L9.64 15.63L11.25 14.03C11.51 13.77 11.51 13.36 11.25 13.11C11.16 13.02 11.06 12.96 10.95 12.94C10.73 12.88 10.5 12.94 10.33 13.11L9.64 13.79L9.64 12L9.64 11.99C9.65 11.34 9.91 10.76 10.33 10.33C10.76 9.91 11.34 9.65 11.99 9.65L12 9.65L13.79 9.65L13.11 10.33L13.11 10.33C12.94 10.5 12.88 10.73 12.93 10.95C12.96 11.06 13.02 11.16 13.11 11.25C13.36 11.51 13.77 11.51 14.03 11.25L14.03 11.25L15.63 9.65L15.82 9.45C16.08 9.2 16.08 8.79 15.82 8.54L15.63 8.34L14.03 6.74L14.03 6.74C13.77 6.48 13.36 6.48 13.11 6.74C13.02 6.83 12.96 6.93 12.93 7.04C12.88 7.26 12.94 7.49 13.11 7.66L13.11 7.66L13.79 8.34L12 8.34L11.99 8.34L11.98 8.35C11.61 8.35 11.25 8.4 10.9 8.51C10.7 8.57 10.5 8.66 10.32 8.75C9.98 8.93 9.68 9.15 9.42 9.41Q9.42 9.41 9.41 9.41Q9.41 9.42 9.41 9.42C9.15 9.68 8.93 9.98 8.75 10.32C8.66 10.5 8.57 10.7 8.51 10.9C8.4 11.25 8.35 11.61 8.35 11.98L8.35 11.99ZM16.04 11.07L14.95 12.17Q14.8 12.32 14.63 12.43Q14.48 12.53 14.3 12.6Q14.13 12.67 13.95 12.7Q13.76 12.74 13.57 12.74Q13.37 12.74 13.18 12.7Q13.01 12.67 12.83 12.6Q12.66 12.53 12.5 12.43Q12.33 12.32 12.19 12.17Q12.04 12.03 11.93 11.86Q11.83 11.7 11.76 11.53Q11.69 11.35 11.65 11.17Q11.64 11.09 11.63 11.01Q11.61 11.02 11.59 11.03Q11.51 11.06 11.43 11.11Q11.34 11.17 11.25 11.25Q11.17 11.34 11.11 11.43Q11.06 11.51 11.03 11.59Q11.02 11.61 11.01 11.63Q11.09 11.64 11.17 11.65Q11.35 11.69 11.53 11.76Q11.7 11.83 11.86 11.93Q12.03 12.04 12.17 12.19Q12.32 12.33 12.43 12.5Q12.53 12.66 12.6 12.83Q12.67 13.01 12.71 13.19Q12.74 13.37 12.74 13.57Q12.74 13.76 12.71 13.95Q12.67 14.13 12.6 14.3Q12.53 14.48 12.43 14.63Q12.32 14.8 12.17 14.95L11.07 16.04L16 16.04Q16.02 16.04 16.05 16.05Q16.04 16.02 16.04 16L16.04 11.07ZM16.05 6.92Q16.05 6.75 16.09 6.59Q16.12 6.41 16.2 6.24Q16.27 6.06 16.37 5.91Q16.48 5.75 16.62 5.62Q16.75 5.48 16.91 5.37Q16.97 5.33 17.04 5.3Q17.02 5.29 17 5.29L13.99 5.29Q14.15 5.33 14.3 5.39Q14.48 5.46 14.63 5.56Q14.8 5.67 14.95 5.82L16.05 6.92ZM18.64 7C18.64 6.64 18.35 6.34 18 6.34C17.64 6.34 17.35 6.64 17.35 7L17.35 7L17.35 16C17.35 16.35 17.64 16.65 18 16.65C18.35 16.65 18.64 16.35 18.64 16L18.64 7ZM15.99 17.35L7 17.35L7 17.35C6.64 17.35 6.35 17.64 6.35 18C6.35 18.35 6.64 18.65 7 18.65L16 18.65C16.35 18.65 16.64 18.35 16.64 18C16.64 17.64 16.35 17.35 16 17.35L15.99 17.35Z" fill="#717681" fill-opacity="1.000000" fill-rule="evenodd"/>
	</g>
</svg>
