<svg width="24.000000" height="24.000000" viewBox="0 0 24 24" fill="none" xmlns="http://www.w3.org/2000/svg" xmlns:xlink="http://www.w3.org/1999/xlink">
	<desc>
			Created with Pixso.
	</desc>
	<defs>
		<clipPath id="clip17_1633">
			<rect id="Outline / To Customer Outline" width="24.000000" height="24.000000" fill="white" fill-opacity="0"/>
		</clipPath>
	</defs>
	<g>
		<path id="Shape" d="M12 3C14.66 3 16.73 5.32 16.43 7.96L16.17 10.27C15.93 12.39 14.13 14 12 14C9.86 14 8.06 12.39 7.82 10.27L7.56 7.96C7.26 5.32 9.33 3 12 3ZM9.11 10.12L8.85 7.82C8.64 5.94 10.11 4.29 12 4.29C13.88 4.29 15.35 5.94 15.14 7.82L14.88 10.12C14.71 11.59 13.47 12.7 12 12.7C10.52 12.7 9.28 11.59 9.11 10.12ZM3.37 17.9C3.38 17.56 3.66 17.3 4 17.3L7.46 17.3L6.01 15.97C5.75 15.73 5.76 15.33 6 15.08C6.24 14.84 6.63 14.83 6.88 15.07L9.41 17.53C9.7 17.81 9.68 18.27 9.38 18.53L6.68 20.91C6.55 21.02 6.41 21.07 6.25 21.06C6.08 21.05 5.92 20.98 5.8 20.84C5.58 20.57 5.61 20.18 5.87 19.96L7.42 18.55C7.42 18.55 5.63 18.56 3.99 18.55C3.64 18.55 3.36 18.25 3.37 17.9ZM19.71 19.69C19.1 16.95 16.66 15 13.85 15L11.34 15C10.98 15 10.69 15.29 10.69 15.65C10.69 16 10.98 16.29 11.34 16.29L13.85 16.29C15.95 16.29 17.79 17.69 18.37 19.7L11.34 19.7C10.98 19.7 10.69 19.99 10.69 20.35C10.69 20.7 10.98 21 11.34 21L19.12 21C19.57 21 19.9 20.58 19.81 20.14L19.71 19.69Z" fill="#717681" fill-opacity="1.000000" fill-rule="evenodd"/>
	</g>
</svg>
