<svg width="24.000000" height="24.000000" viewBox="0 0 24 24" fill="none" xmlns="http://www.w3.org/2000/svg" xmlns:xlink="http://www.w3.org/1999/xlink">
	<desc>
			Created with Pixso.
	</desc>
	<defs>
		<clipPath id="clip17_1355">
			<rect id="Outline / Tune Outline" width="24.000000" height="24.000000" fill="white" fill-opacity="0"/>
		</clipPath>
	</defs>
	<g >
		<path id="Shape" d="M12.64 6.07L12.64 3.63C12.64 3.27 12.35 2.98 12 2.98C11.64 2.98 11.35 3.27 11.35 3.63L11.35 6.07C10 6.36 9 7.56 9 9C9 10.65 10.34 12 12 12C13.65 12 15 10.65 15 9C15 7.56 13.99 6.36 12.64 6.07ZM6 10.17C6.35 10.17 6.64 9.88 6.64 9.52L6.64 3.63C6.64 3.27 6.35 2.98 6 2.98C5.64 2.98 5.35 3.27 5.35 3.63L5.35 9.52C5.35 9.88 5.64 10.17 6 10.17ZM18 2.98C18.35 2.98 18.64 3.27 18.64 3.63L18.64 9.52C18.64 9.88 18.35 10.17 18 10.17C17.64 10.17 17.35 9.88 17.35 9.52L17.35 3.63C17.35 3.27 17.64 2.98 18 2.98ZM12 7.3C12.93 7.3 13.7 8.06 13.7 9C13.7 9.93 12.93 10.7 12 10.7C11.06 10.7 10.29 9.93 10.29 9C10.29 8.06 11.06 7.3 12 7.3ZM6.64 20.36C6.64 20.72 6.35 21.01 6 21.01C5.64 21.01 5.35 20.72 5.35 20.36L5.35 17.92C4 17.62 3 16.43 3 14.99C3 13.34 4.34 11.99 6 11.99C7.65 11.99 9 13.34 9 14.99C9 16.43 7.99 17.62 6.64 17.92L6.64 20.36ZM18.64 17.92C19.99 17.63 21 16.43 21 15C21 13.34 19.65 12 18 12C16.34 12 15 13.34 15 15C15 16.43 16 17.63 17.35 17.92L17.35 20.36C17.35 20.72 17.64 21.01 18 21.01C18.35 21.01 18.64 20.72 18.64 20.36L18.64 17.92ZM6 13.29C6.93 13.29 7.7 14.05 7.7 14.99C7.7 15.93 6.93 16.69 6 16.69C5.06 16.69 4.29 15.93 4.29 14.99C4.29 14.05 5.06 13.29 6 13.29ZM19.7 15C19.7 15.93 18.93 16.7 18 16.7C17.06 16.7 16.29 15.93 16.29 15C16.29 14.06 17.06 13.3 18 13.3C18.93 13.3 19.7 14.06 19.7 15ZM12 21.01C12.35 21.01 12.64 20.72 12.64 20.36L12.64 14.49C12.64 14.13 12.35 13.84 12 13.84C11.64 13.84 11.35 14.13 11.35 14.49L11.35 20.36C11.35 20.72 11.64 21.01 12 21.01Z" fill="#74767B" fill-opacity="1.000000" fill-rule="evenodd"/>
	</g>
</svg>
