<svg width="24.000000" height="24.000000" viewBox="0 0 24 24" fill="none" xmlns="http://www.w3.org/2000/svg" xmlns:xlink="http://www.w3.org/1999/xlink">
	<desc>
			Created with Pixso.
	</desc>
	<defs>
		<clipPath id="clip128083_798">
			<rect id="Outline / Undo Outline" width="24.000000" height="24.000000" fill="white" fill-opacity="0"/>
		</clipPath>
	</defs>
	<g clip-path="url(#clip128083_798)">
		<path id="Shape" d="M5.18 9.58C4.92 9.84 4.92 10.25 5.18 10.5L8.84 14.16C9.09 14.42 9.5 14.42 9.76 14.16C10.01 13.91 10.01 13.5 9.76 13.24L7.21 10.69L15.34 10.69C16.64 10.69 17.69 11.74 17.69 13.04L17.69 13.3C17.69 14.6 16.64 15.65 15.34 15.65L12.64 15.65C12.28 15.65 11.99 15.94 11.99 16.3C11.99 16.66 12.28 16.95 12.64 16.95L15.34 16.95C17.36 16.95 18.99 15.32 18.99 13.3L18.99 13.04C18.99 11.03 17.36 9.39 15.34 9.39L7.21 9.39L9.76 6.84C10.01 6.59 10.01 6.18 9.76 5.92C9.5 5.67 9.09 5.67 8.84 5.92L5.18 9.58Z" fill="#717681" fill-opacity="1.000000" fill-rule="nonzero"/>
	</g>
</svg>
