<svg viewBox="0 0 24 24" xmlns="http://www.w3.org/2000/svg" xmlns:xlink="http://www.w3.org/1999/xlink" width="24.000000" height="24.000000" fill="none">
	<rect id="Solid/Unlink Solid" width="24.000000" height="24.000000" x="0.000000" y="0.000000" />
	<path id="Shape" d="M3 12C3 7.02942 7.0293 3 12 3C16.9707 3 21 7.02942 21 12C21 16.9706 16.9707 21 12 21C7.0293 21 3 16.9706 3 12ZM15.2646 11.8513C15.0107 12.1052 15.0107 12.5167 15.2646 12.7706C15.5186 13.0244 15.9307 13.0244 16.1836 12.7706L16.2471 12.708C17.6143 11.3412 17.6143 9.12512 16.2471 7.7583C14.8809 6.39148 12.6641 6.39148 11.2979 7.7583L11.2344 7.8208C10.9805 8.07471 10.9805 8.48621 11.2344 8.74011C11.4883 8.9939 11.8994 8.9939 12.1533 8.74011L12.2168 8.67749C13.0762 7.81836 14.4688 7.81836 15.3281 8.67749C16.1875 9.53674 16.1875 10.9297 15.3281 11.7888L15.2646 11.8513ZM8.28613 9.2052L14.7949 15.714C15.0527 15.9713 15.457 15.9713 15.7148 15.714C15.9717 15.4565 15.9717 15.0521 15.7148 14.7947L9.20605 8.28589C8.94824 8.02856 8.54395 8.02856 8.28613 8.28589C8.0293 8.54333 8.0293 8.94775 8.28613 9.2052ZM12.7803 15.2477C12.5264 14.9938 12.1152 14.9938 11.8613 15.2477L11.7832 15.3337C10.9238 16.1929 9.53125 16.1929 8.67188 15.3337C7.8125 14.4746 7.8125 13.0815 8.67188 12.2225L8.75 12.1364C9.00391 11.8824 9.00391 11.4709 8.75 11.2172C8.49609 10.9633 8.08496 10.9633 7.83105 11.2172L7.75293 11.3032C6.38574 12.67 6.38574 14.8861 7.75293 16.2531C9.11914 17.6198 11.3359 17.6198 12.7021 16.2531L12.7803 16.1669C13.0342 15.9131 13.0342 15.5015 12.7803 15.2477Z" fill="rgb(116,118,123)" fill-rule="evenodd" />
</svg>
