<svg width="24.000000" height="24.000000" viewBox="0 0 24 24" fill="none" xmlns="http://www.w3.org/2000/svg" xmlns:xlink="http://www.w3.org/1999/xlink">
	<desc>
			Created with Pixso.
	</desc>
	<defs>
		<clipPath id="clip17_1612">
			<rect id="Outline / User Delete Outline" width="24.000000" height="24.000000" fill="white" fill-opacity="0"/>
		</clipPath>
	</defs>
	<g clip-path="url(#clip17_1612)">
		<path id="Shape" d="M12 3C9.33 3 7.26 5.32 7.56 7.96L7.82 10.27C8.06 12.39 9.86 14 12 14C14.13 14 15.93 12.39 16.17 10.27L16.43 7.96C16.73 5.32 14.66 3 12 3ZM14.88 10.12L15.14 7.82C15.35 5.94 13.88 4.29 12 4.29C10.11 4.29 8.64 5.94 8.85 7.82L9.11 10.12C9.28 11.59 10.52 12.7 12 12.7C13.47 12.7 14.71 11.59 14.88 10.12ZM20.81 15.18C21.06 15.44 21.05 15.85 20.79 16.1L18.9 17.92L20.79 19.75C21.05 20 21.06 20.41 20.81 20.67C20.56 20.92 20.15 20.93 19.89 20.68L17.96 18.83L16.04 20.68C15.78 20.93 15.37 20.92 15.12 20.67C14.87 20.41 14.88 20 15.13 19.75L17.03 17.92L15.13 16.1C14.88 15.85 14.87 15.44 15.12 15.18C15.37 14.92 15.78 14.91 16.04 15.16L17.96 17.02L19.89 15.16C20.15 14.91 20.56 14.92 20.81 15.18ZM10.14 15C7.33 15 4.89 16.95 4.28 19.69L4.18 20.14C4.09 20.58 4.42 21 4.87 21L12.65 21C13.01 21 13.3 20.7 13.3 20.35C13.3 19.99 13.01 19.7 12.65 19.7L5.62 19.7C6.2 17.69 8.04 16.29 10.14 16.29L12.65 16.29C13.01 16.29 13.3 16 13.3 15.65C13.3 15.29 13.01 15 12.65 15L10.14 15Z" fill="#74767B" fill-opacity="1.000000" fill-rule="evenodd"/>
	</g>
</svg>
