<svg width="24" height="24" viewBox="0 0 24 24" fill="none" xmlns="http://www.w3.org/2000/svg">
<path fill-rule="evenodd" clip-rule="evenodd" d="M7.56456 7.96802C7.26365 5.32002 9.33497 3 12 3C14.6651 3 16.7364 5.32002 16.4355 7.96803L16.1734 10.274C15.9322 12.3966 14.1363 14 12 14C9.86377 14 8.06781 12.3966 7.8266 10.274L7.56456 7.96802ZM15.1438 7.82124L14.8817 10.1272C14.7152 11.5928 13.4751 12.7 12 12.7C10.5249 12.7 9.28484 11.5928 9.11829 10.1272L8.85625 7.82124C8.64297 5.94439 10.1111 4.3 12 4.3C13.889 4.3 15.3571 5.94439 15.1438 7.82124Z" fill="#717681"/>
<path d="M4.28926 19.6984C4.89931 16.9532 7.33419 15 10.1464 15H12.6571C13.0161 15 13.3071 15.291 13.3071 15.65C13.3071 16.009 13.0161 16.3 12.6571 16.3H10.1464C8.04051 16.3 6.20474 17.6982 5.62966 19.7H12.6571C13.0161 19.7 13.3071 19.991 13.3071 20.35C13.3071 20.709 13.0161 21 12.6571 21H4.87265C4.42482 21 4.09217 20.5853 4.18932 20.1481L4.28926 19.6984Z" fill="#717681"/>
<path d="M16.7747 14.9167C16.9047 14.7767 17.0747 14.7067 17.2547 14.7067C17.4147 14.7067 17.5647 14.7567 17.6947 14.8767L20.4047 17.4522C20.7147 17.7322 20.7147 18.2122 20.4047 18.4922L17.6947 20.9567C17.4247 21.1967 17.0147 21.1767 16.7747 20.9167C16.5347 20.6467 16.5447 20.2367 16.8147 19.9967L18.3653 18.6222H14.9939C14.6349 18.6222 14.3439 18.3312 14.3439 17.9722C14.3439 17.6132 14.6349 17.3222 14.9939 17.3222H18.3723L16.8147 15.8367C16.5547 15.5967 16.5347 15.1867 16.7747 14.9167Z" fill="#717681"/>
</svg>
