<svg width="24.000000" height="24.000000" viewBox="0 0 24 24" fill="none" xmlns="http://www.w3.org/2000/svg" xmlns:xlink="http://www.w3.org/1999/xlink">
	<desc>
			Created with Pixso.
	</desc>
	<defs>
		<clipPath id="clip17_1549">
			<rect id="Outline / User Role To Outline" width="24.000000" height="24.000000" fill="white" fill-opacity="0"/>
		</clipPath>
	</defs>
	<g>
		<path id="Shape" d="M7.56 7.96C7.26 5.32 9.33 3 12 3C14.66 3 16.73 5.32 16.43 7.96L16.17 10.27C15.93 12.39 14.13 14 12 14C9.86 14 8.06 12.39 7.82 10.27L7.56 7.96ZM15.14 7.82L14.88 10.12C14.71 11.59 13.47 12.7 12 12.7C10.52 12.7 9.28 11.59 9.11 10.12L8.85 7.82C8.64 5.94 10.11 4.29 12 4.29C13.88 4.29 15.35 5.94 15.14 7.82ZM17.72 21.23C17.9 21.23 18.07 21.16 18.2 21.02C18.44 20.75 18.42 20.34 18.16 20.1L16.6 18.62L19.98 18.62C20.34 18.62 20.63 18.33 20.63 17.97C20.63 17.61 20.34 17.32 19.98 17.32L16.61 17.32L18.16 15.94C18.43 15.7 18.44 15.29 18.2 15.02C17.96 14.76 17.55 14.74 17.28 14.98L14.57 17.45C14.26 17.73 14.26 18.21 14.57 18.49L17.28 21.06C17.41 21.18 17.56 21.23 17.72 21.23ZM4.28 19.69C4.89 16.95 7.33 15 10.14 15L12.65 15C13.01 15 13.3 15.29 13.3 15.65C13.3 16 13.01 16.29 12.65 16.29L10.14 16.29C8.04 16.29 6.2 17.69 5.62 19.7L12.65 19.7C13.01 19.7 13.3 19.99 13.3 20.35C13.3 20.7 13.01 21 12.65 21L4.87 21C4.42 21 4.09 20.58 4.18 20.14L4.28 19.69Z" fill="#717681" fill-opacity="1.000000" fill-rule="evenodd"/>
	</g>
</svg>
