<svg width="24.000000" height="24.000000" viewBox="0 0 24 24" fill="none" xmlns="http://www.w3.org/2000/svg" xmlns:xlink="http://www.w3.org/1999/xlink">
	<desc>
			Created with Pixso.
	</desc>
	<defs>
		<clipPath id="clip17_1615">
			<rect id="Solid / User Delete Solid" width="24.000000" height="24.000000" fill="white" fill-opacity="0"/>
		</clipPath>
	</defs>
	<g>
		<path id="Shape" d="M7.56 7.96C7.26 5.32 9.33 3 12 3C14.66 3 16.73 5.32 16.43 7.96L16.17 10.27C15.93 12.39 14.13 14 12 14C9.86 14 8.06 12.39 7.82 10.27L7.56 7.96ZM20.68 20.68C22.43 18.92 22.43 16.07 20.68 14.31C18.92 12.56 16.07 12.56 14.31 14.31C12.56 16.07 12.56 18.92 14.31 20.68C16.07 22.43 18.92 22.43 20.68 20.68ZM11.15 15C11.66 15 12.01 15.54 11.88 16.04C11.76 16.5 11.7 16.99 11.7 17.5C11.7 18.31 11.86 19.08 12.16 19.78C12.39 20.31 12.04 21 11.46 21L4.87 21C4.42 21 4.09 20.58 4.18 20.14L4.28 19.69C4.89 16.95 7.33 15 10.14 15L11.15 15ZM15.62 15.62C15.87 15.36 16.28 15.36 16.54 15.62L17.5 16.58L18.36 15.71C18.61 15.46 19.02 15.46 19.28 15.71C19.53 15.97 19.53 16.38 19.28 16.63L18.41 17.5L19.37 18.45C19.63 18.71 19.63 19.12 19.37 19.37C19.12 19.63 18.71 19.63 18.45 19.37L17.5 18.41L16.63 19.28C16.38 19.53 15.97 19.53 15.71 19.28C15.46 19.02 15.46 18.61 15.71 18.36L16.58 17.5L15.62 16.54C15.36 16.28 15.36 15.87 15.62 15.62Z" fill="#717681" fill-opacity="1.000000" fill-rule="evenodd"/>
	</g>
</svg>
