<svg viewBox="0 0 24 24" xmlns="http://www.w3.org/2000/svg" xmlns:xlink="http://www.w3.org/1999/xlink" width="24.000000" height="24.000000" fill="none">
	<rect id="Solid/Zoom Out Solid" width="24.000000" height="24.000000" x="0.000000" y="0.000000" />
	<path id="Shape" d="M3 12C3 7.02944 7.02944 3 12 3C16.9706 3 21 7.02944 21 12C21 16.9706 16.9706 21 12 21C7.02944 21 3 16.9706 3 12ZM7 11.5C7 9.01214 9.01214 7 11.5 7C13.9879 7 16 9.01214 16 11.5C16 12.5092 15.6689 13.44 15.1093 14.1901L16.9596 16.0404C17.2135 16.2942 17.2135 16.7058 16.9596 16.9596C16.7058 17.2135 16.2942 17.2135 16.0404 16.9596L14.1901 15.1093C13.44 15.6689 12.5092 16 11.5 16C9.01214 16 7 13.9879 7 11.5ZM8.3 11.5C8.3 9.73011 9.73011 8.3 11.5 8.3C13.2699 8.3 14.7 9.73011 14.7 11.5C14.7 13.2699 13.2699 14.7 11.5 14.7C9.73011 14.7 8.3 13.2699 8.3 11.5ZM13.0449 11.5091C13.0449 11.1501 12.7538 10.8591 12.3949 10.8591L10.596 10.8591C10.237 10.8591 9.94597 11.1501 9.94597 11.5091C9.94597 11.8681 10.237 12.1591 10.596 12.1591L12.3949 12.1591C12.7538 12.1591 13.0449 11.8681 13.0449 11.5091Z" fill="rgb(116,118,123)" fill-rule="evenodd" />
</svg>
