<svg width="24.000000" height="24.000000" viewBox="0 0 24 24" fill="none" xmlns="http://www.w3.org/2000/svg" xmlns:xlink="http://www.w3.org/1999/xlink">
	<desc>
			Created with Pixso.
	</desc>
	<defs>
		<clipPath id="clip17_1651">
			<rect id="Solid / Zoom Out Solid" width="24.000000" height="24.000000" fill="white" fill-opacity="0"/>
		</clipPath>
	</defs>
	<g>
		<path id="Shape" d="M3 12C3 7.02 7.02 3 12 3C16.97 3 21 7.02 21 12C21 16.97 16.97 21 12 21C7.02 21 3 16.97 3 12ZM7 11.5C7 9.01 9.01 7 11.5 7C13.98 7 16 9.01 16 11.5C16 12.5 15.66 13.44 15.1 14.19L16.95 16.04C17.21 16.29 17.21 16.7 16.95 16.95C16.7 17.21 16.29 17.21 16.04 16.95L14.18 15.1C13.43 15.66 12.5 16 11.5 16C9.01 16 7 13.98 7 11.5ZM11.5 8.29C9.72 8.29 8.29 9.73 8.29 11.5C8.29 13.26 9.72 14.7 11.5 14.7C13.27 14.7 14.7 13.26 14.7 11.5C14.7 9.73 13.27 8.29 11.5 8.29ZM12.39 10.85C12.75 10.85 13.04 11.15 13.04 11.5C13.04 11.86 12.75 12.15 12.39 12.15L10.59 12.15C10.23 12.15 9.94 11.86 9.94 11.5C9.94 11.15 10.23 10.85 10.59 10.85L12.39 10.85Z" fill="#717681" fill-opacity="1.000000" fill-rule="evenodd"/>
	</g>
</svg>
