<svg width="24.000000" height="24.000000" viewBox="0 0 24 24" fill="none" xmlns="http://www.w3.org/2000/svg" xmlns:xlink="http://www.w3.org/1999/xlink">
	<desc>
			Created with Pixso.
	</desc>
	<defs>
		<clipPath id="clip17_1656">
			<rect id="Outline / Zoom In Outline" width="24.000000" height="24.000000" fill="white" fill-opacity="0"/>
		</clipPath>
	</defs>
	<g>
		<path id="Shape" d="M4 11C4 7.13 7.12 4 11 4C14.87 4 18 7.13 18 11C18 12.76 17.35 14.37 16.27 15.6L19.78 19.11C20.03 19.36 20.03 19.77 19.77 20.03C19.52 20.28 19.11 20.28 18.85 20.02L15.33 16.49C14.14 17.43 12.63 18 11 18C7.12 18 4 14.87 4 11ZM16.7 11C16.7 7.85 14.14 5.29 11 5.29C7.85 5.29 5.29 7.85 5.29 11C5.29 14.14 7.85 16.7 11 16.7C14.14 16.7 16.7 14.14 16.7 11ZM11 7.34C11.36 7.34 11.65 7.63 11.65 7.99L11.65 10.34L14 10.34C14.36 10.34 14.65 10.63 14.65 10.99C14.65 11.35 14.36 11.64 14 11.64L11.65 11.64L11.65 13.99C11.65 14.35 11.36 14.64 11 14.64C10.64 14.64 10.35 14.35 10.35 13.99L10.35 11.64L8 11.64C7.64 11.64 7.35 11.35 7.35 10.99C7.35 10.63 7.64 10.34 8 10.34L10.35 10.34L10.35 7.99C10.35 7.63 10.64 7.34 11 7.34Z" fill="#717681" fill-opacity="1.000000" fill-rule="evenodd"/>
	</g>
</svg>
