<svg width="24.000000" height="24.000000" viewBox="0 0 24 24" fill="none" xmlns="http://www.w3.org/2000/svg" xmlns:xlink="http://www.w3.org/1999/xlink">
	<desc>
			Created with Pixso.
	</desc>
	<defs>
		<clipPath id="clip17_1648">
			<rect id="Solid / Zoom In Solid" width="24.000000" height="24.000000" fill="white" fill-opacity="0"/>
		</clipPath>
	</defs>
	<g>
		<path id="Shape" d="M3 12C3 7.02 7.02 3 12 3C16.97 3 21 7.02 21 12C21 16.97 16.97 21 12 21C7.02 21 3 16.97 3 12ZM7 11.5C7 9.01 9.01 7 11.5 7C13.98 7 16 9.01 16 11.5C16 12.5 15.66 13.44 15.1 14.19L16.95 16.04C17.21 16.29 17.21 16.7 16.95 16.95C16.7 17.21 16.29 17.21 16.04 16.95L14.18 15.1C13.43 15.66 12.5 16 11.5 16C9.01 16 7 13.98 7 11.5ZM11.5 8.29C9.72 8.29 8.29 9.73 8.29 11.5C8.29 13.26 9.72 14.7 11.5 14.7C13.27 14.7 14.7 13.26 14.7 11.5C14.7 9.73 13.27 8.29 11.5 8.29ZM11.49 9.61C11.13 9.61 10.84 9.9 10.84 10.26L10.84 10.85L10.24 10.85C9.88 10.85 9.59 11.15 9.59 11.5C9.59 11.86 9.88 12.15 10.24 12.15L10.84 12.15L10.84 12.75C10.84 13.11 11.13 13.4 11.49 13.4C11.85 13.4 12.14 13.11 12.14 12.75L12.14 12.15L12.74 12.15C13.1 12.15 13.39 11.86 13.39 11.5C13.39 11.15 13.1 10.85 12.74 10.85L12.14 10.85L12.14 10.26C12.14 9.9 11.85 9.61 11.49 9.61Z" fill="#717681" fill-opacity="1.000000" fill-rule="evenodd"/>
	</g>
</svg>
