<svg width="24.000000" height="24.000000" viewBox="0 0 24 24" fill="none" xmlns="http://www.w3.org/2000/svg" xmlns:xlink="http://www.w3.org/1999/xlink">
	<desc>
			Created with Pixso.
	</desc>
	<defs>
		<clipPath id="clip17_1659">
			<rect id="Outline / Zoom Out Outline" width="24.000000" height="24.000000" fill="white" fill-opacity="0"/>
		</clipPath>
	</defs>
	<g>
		<path id="Shape" d="M4 11C4 7.13 7.12 4 11 4C14.87 4 18 7.13 18 11C18 12.76 17.35 14.37 16.27 15.6L19.78 19.11C20.03 19.36 20.03 19.77 19.77 20.03C19.52 20.28 19.11 20.28 18.85 20.02L15.33 16.49C14.14 17.43 12.63 18 11 18C7.12 18 4 14.87 4 11ZM16.7 11C16.7 7.85 14.14 5.29 11 5.29C7.85 5.29 5.29 7.85 5.29 11C5.29 14.14 7.85 16.7 11 16.7C14.14 16.7 16.7 14.14 16.7 11ZM13.2 10.34C13.56 10.34 13.85 10.63 13.85 10.99C13.85 11.35 13.56 11.64 13.2 11.64L8.84 11.64C8.48 11.64 8.19 11.35 8.19 10.99C8.19 10.63 8.48 10.34 8.84 10.34L13.2 10.34Z" fill="#717681" fill-opacity="1.000000" fill-rule="evenodd"/>
	</g>
</svg>
