<svg xmlns="http://www.w3.org/2000/svg" width="24" height="24" fill="none"><path fill="#717681" fill-rule="evenodd" d="M11.352 7.971V2.65a.65.65 0 1 1 1.298 0V7.97l2.45-2.45a.649.649 0 1 1 .917.918l-3.558 3.56a.649.649 0 0 1-.918 0l-3.558-3.56a.65.65 0 0 1 .918-.918l2.45 2.451Zm1.107 6.032 3.558 3.56a.65.65 0 0 1-.918.917l-2.45-2.451v5.322a.65.65 0 1 1-1.298 0V16.03L8.9 18.48a.649.649 0 1 1-.918-.918l3.558-3.56a.649.649 0 0 1 .918 0Zm6.892-1.315a.65.65 0 0 0 0-1.298H4.65a.65.65 0 0 0 0 1.298H19.35Z" clip-rule="evenodd"/></svg>