<svg xmlns="http://www.w3.org/2000/svg" fill="none" viewBox="0 0 24 24" focusable="false"><defs><clipPath id="Align_Top_Outline_svg__a"><path fill="#fff" fill-opacity="0" d="M0 0h24v24H0z"/></clipPath></defs><g clip-path="url(#Align_Top_Outline_svg__a)"><path fill="#74767B" fill-rule="evenodd" d="M7.31 12.63a.65.65 0 0 1-.92-.02.65.65 0 0 1 .02-.92l5.15-4.98c.25-.25.65-.25.9 0l5.15 4.98c.26.25.26.66.01.92s-.66.27-.92.02l-4.04-3.92v10.64c0 .36-.29.65-.65.65s-.65-.29-.65-.65V8.71zM4.67 5.3c-.37 0-.68-.29-.68-.65S4.3 4 4.67 4h14.65c.37 0 .68.29.68.65s-.31.65-.68.65z"/></g></svg>