<svg xmlns="http://www.w3.org/2000/svg" fill="none" viewBox="0 0 24 24" focusable="false"><path fill="#74767B" fill-rule="evenodd" d="M3.32007 8.6285C3.06213 8.87818 2.65063 8.87149 2.40095 8.61355C2.15127 8.35562 2.15796 7.94412 2.41589 7.69444L7.56364 2.71142C7.81566 2.46746 8.21579 2.46746 8.46781 2.71142L13.6156 7.69444C13.8735 7.94412 13.8802 8.35562 13.6305 8.61355C13.3808 8.87149 12.9693 8.87818 12.7114 8.6285L8.66447 4.71108L8.66447 15.35C8.66447 15.709 8.37345 16 8.01447 16C7.65548 16 7.36447 15.709 7.36447 15.35L7.36447 4.71352L3.32007 8.6285ZM0.678736 1.3C0.303881 1.3 -3.13835e-08 1.00898 0 0.65C3.13835e-08 0.291015 0.303881 -3.27709e-08 0.678736 0L15.3252 3.26758e-07C15.7 3.59529e-07 16.0039 0.291015 16.0039 0.65C16.0039 1.00898 15.7 1.3 15.3252 1.3L0.678736 1.3Z" transform="matrix(1 0 0 -1 3.998 20.002)"/></svg>