<svg xmlns="http://www.w3.org/2000/svg" fill="none" viewBox="0 0 24 24" focusable="false"><defs><clipPath id="Align_Right_Outline_svg__a"><path fill="#fff" fill-opacity="0" d="M0 0h24v24H0z"/></clipPath></defs><g clip-path="url(#Align_Right_Outline_svg__a)"><path fill="#717681" fill-rule="evenodd" d="M19.35 5.5c.35 0 .65.29.65.64 0 .36-.3.65-.65.65H4.64a.644.644 0 0 1 0-1.29zm0 7.8c.35 0 .65.29.65.65 0 .35-.3.64-.65.64H4.64a.644.644 0 0 1 0-1.29zm.65-3.26c0-.35-.3-.64-.65-.64h-7.71c-.36 0-.65.29-.65.64 0 .36.29.65.65.65h7.71c.35 0 .65-.29.65-.65m-.65 7.16c.35 0 .65.29.65.65 0 .35-.3.65-.65.65h-7.71c-.36 0-.65-.3-.65-.65 0-.36.29-.65.65-.65z"/></g></svg>