<svg xmlns="http://www.w3.org/2000/svg" fill="none" viewBox="0 0 24 24" focusable="false"><path fill="#74767B" fill-rule="evenodd" d="M11.35 7.97V2.64a.644.644 0 0 1 1.29 0v5.33l2.45-2.46c.26-.25.67-.25.92 0 .26.26.26.67 0 .92l-3.56 3.56c-.25.26-.66.26-.91 0L7.98 6.43a.64.64 0 0 1 0-.92c.25-.25.66-.25.92 0zm1.1 6.03 3.56 3.56c.26.25.26.66 0 .92-.25.25-.66.25-.92 0l-2.45-2.46v5.33c0 .35-.29.65-.65.65-.35 0-.64-.3-.64-.65v-5.33L8.9 18.48c-.26.25-.67.25-.92 0a.64.64 0 0 1 0-.92L11.54 14c.25-.26.66-.26.91 0m6.9-1.32c.35 0 .65-.29.65-.65 0-.35-.3-.65-.65-.65H4.64c-.35 0-.64.3-.64.65 0 .36.29.65.64.65z"/></svg>