<svg xmlns="http://www.w3.org/2000/svg" fill="none" viewBox="0 0 24 24" focusable="false"><defs><clipPath id="Bg_Color_Outline_svg__a"><path fill="#fff" fill-opacity="0" d="M0 24h24V0H0z"/></clipPath></defs><g clip-path="url(#Bg_Color_Outline_svg__a)"><path fill="#74767B" fill-rule="evenodd" d="M8.92 19.12c.09.1.19.18.3.26 1.17.9 2.87.82 3.94-.26l5.65-5.65c.13-.13.2-.3.21-.47 0-.19-.07-.38-.21-.52l-6.17-6.17a.3.3 0 0 1-.05-.06L9.52 3.18a.66.66 0 0 0-.92 0 .64.64 0 0 0 0 .92l1.52 1.53-5.22 5.23a2.98 2.98 0 0 0 0 4.24zM17.45 13H5.32c-.01-.45.16-.89.5-1.23l5.22-5.22 6.43 6.43zm1.62 7c.83 0 1.5-.68 1.5-1.5 0-1.2-.96-2.08-1.34-2.38-.1-.08-.23-.08-.32 0-.39.3-1.34 1.18-1.34 2.38 0 .82.67 1.5 1.5 1.5"/></g></svg>