<svg xmlns="http://www.w3.org/2000/svg" fill="none" viewBox="0 0 24 24" focusable="false"><path d="M0 0H24V24H0z" transform="matrix(1 0 0 -1 0 24)"/><path fill="#74767B" fill-rule="evenodd" d="M9.22247 19.3875C9.11868 19.3079 9.01889 19.2206 8.92389 19.1256L4.90114 15.1029C3.72957 13.9313 3.72957 12.0318 4.90114 10.8602L10.1289 5.63251L8.60073 4.10437C8.34689 3.85053 8.34689 3.43897 8.60073 3.18513C8.85457 2.93129 9.26613 2.93129 9.51997 3.18513L12.5921 6.25721C12.6096 6.27475 12.6259 6.29303 12.641 6.31197L18.8156 12.4866C18.957 12.628 19.0253 12.8148 19.0204 13C19.0159 13.173 18.9479 13.3447 18.8159 13.4767L13.1668 19.1258C12.0901 20.2025 10.3987 20.2897 9.22247 19.3875ZM5.32256 13L17.4537 13L17.4721 12.9816L11.0452 6.55464L5.82038 11.7795C5.48373 12.1161 5.31779 12.5588 5.32256 13ZM19.0726 20.0001C19.901 20.0001 20.5726 19.3285 20.5726 18.5001C20.5726 17.3038 19.6182 16.4267 19.232 16.1207C19.1372 16.0457 19.0079 16.0457 18.9131 16.1207C18.5269 16.4267 17.5726 17.3038 17.5726 18.5001C17.5726 19.3285 18.2441 20.0001 19.0726 20.0001Z"/></svg>