<svg xmlns="http://www.w3.org/2000/svg" fill="none" viewBox="0 0 24 24" focusable="false"><path fill="#717681" fill-rule="evenodd" d="M6.996 20.003a3 3 0 0 1-2.996-3V7c0-1.657 1.342-3 2.996-3h10.008A3 3 0 0 1 20 7v10a3 3 0 0 1-3.016 3.003zm.55-4.25a.7.7 0 0 0 .7.7h3.12a.7.7 0 0 1-.025-.182v-1.195a.65.65 0 1 1 1.299 0v1.195a.7.7 0 0 1-.026.181h3.14a.7.7 0 0 0 .7-.7V12.62a.7.7 0 0 1-.197.03h-1.194a.65.65 0 0 1 0-1.3h1.194q.103 0 .196.03V8.25a.7.7 0 0 0-.699-.7h-3.139a.7.7 0 0 1 .025.179v1.195a.65.65 0 1 1-1.299 0V7.729q0-.093.025-.178h-3.12a.7.7 0 0 0-.7.7v3.124a.7.7 0 0 1 .178-.025h1.194a.65.65 0 0 1 0 1.3H7.724a.7.7 0 0 1-.177-.024z" clip-rule="evenodd"/></svg>