<svg xmlns="http://www.w3.org/2000/svg" fill="none" viewBox="0 0 24 24" focusable="false"><path fill="#717681" d="M4 16.996a3 3 0 0 0 3 3h10a3 3 0 0 0 3-3v-.539l.002-.112v-.657a.65.65 0 1 0-1.3 0v.657l-.002.1h-6.075a.654.654 0 0 0 .025-.178v-1.195a.65.65 0 1 0-1.3 0v1.195c0 .062.009.122.025.179H5.31a2.405 2.405 0 0 1-.002-.1v-.658a.65.65 0 1 0-1.3 0v.657l.001.1H4zM7.105 5.365c.177-.042.362-.065.554-.065h.657a.65.65 0 0 0 0-1.3h-.657c-.295 0-.583.035-.859.102a.65.65 0 1 0 .305 1.263M11.348 4a.65.65 0 1 0 0 1.3h1.314a.65.65 0 1 0 0-1.3zM15.695 4a.65.65 0 1 0 0 1.3h.657c.191 0 .376.023.553.065a.65.65 0 1 0 .305-1.263A3.658 3.658 0 0 0 16.352 4zM5.374 7.096a.65.65 0 0 0-1.264-.304 3.657 3.657 0 0 0-.101.858v.657a.65.65 0 0 0 1.3 0V7.65c0-.191.022-.377.065-.554M19.9 6.792a.65.65 0 1 0-1.264.304c.043.177.066.363.066.554v.657a.65.65 0 1 0 1.3 0V7.65c0-.295-.035-.582-.102-.858M20.002 11.34a.65.65 0 1 0-1.3 0v1.315a.65.65 0 0 0 1.3 0zM5.309 11.34a.65.65 0 1 0-1.3 0v1.315a.65.65 0 0 0 1.3 0zM12 9.571a.65.65 0 0 1-.65-.65V7.726a.65.65 0 1 1 1.3 0v1.195a.65.65 0 0 1-.65.65M15.076 11.348a.65.65 0 1 0 0 1.3h1.195a.65.65 0 0 0 0-1.3zM7.729 11.348a.65.65 0 1 0 0 1.3h1.195a.65.65 0 0 0 0-1.3z"/></svg>