<svg xmlns="http://www.w3.org/2000/svg" fill="none" viewBox="0 0 24 24" focusable="false"><defs><clipPath id="Border_Style_Outline_svg__a"><path fill="#fff" fill-opacity="0" d="M0 0h24v24H0z"/></clipPath></defs><g clip-path="url(#Border_Style_Outline_svg__a)"><path fill="#74767B" fill-rule="evenodd" d="M4 6.65c0-.36.29-.65.65-.65h14.7c.36 0 .65.29.65.65s-.29.65-.65.65H4.65c-.36 0-.65-.29-.65-.65M4 12c0-.36.29-.65.65-.65h5.69c.36 0 .65.29.65.65 0 .35-.29.65-.65.65H4.65c-.36 0-.65-.3-.65-.65m9 0c0-.36.29-.65.65-.65h5.7c.36 0 .65.29.65.65 0 .35-.29.65-.65.65h-5.7c-.36 0-.65-.3-.65-.65m-9 5.35c0-.36.29-.65.65-.65h1.19c.36 0 .65.29.65.65 0 .35-.29.65-.65.65H4.65c-.36 0-.65-.3-.65-.65m4.49 0c0-.36.29-.65.65-.65h1.2c.36 0 .65.29.65.65 0 .35-.29.65-.65.65h-1.2c-.36 0-.65-.3-.65-.65m4.5 0c0-.36.29-.65.65-.65h1.19c.36 0 .65.29.65.65 0 .35-.29.65-.65.65h-1.19c-.36 0-.65-.3-.65-.65m4.49 0c0-.36.29-.65.65-.65h1.2c.36 0 .65.29.65.65 0 .35-.29.65-.65.65h-1.2c-.36 0-.65-.3-.65-.65"/></g></svg>