<svg xmlns="http://www.w3.org/2000/svg" fill="none" viewBox="0 0 24 24" focusable="false"><path fill="#717681" d="M11.999 4.063a.65.65 0 0 0-.65.648v14.641a.65.65 0 0 0 1.3 0V4.712a.65.65 0 0 0-.65-.649M7.721 11.379a.65.65 0 1 0 0 1.296h1.196a.65.65 0 1 0 0-1.296zM15.072 11.379a.65.65 0 1 0 0 1.296h1.196a.65.65 0 1 0 0-1.296zM7.652 5.296q-.288.001-.554.065a.648.648 0 1 1-.305-1.26q.415-.1.859-.101h.657a.65.65 0 1 1 0 1.296zM15.04 4.648A.65.65 0 0 1 15.692 4h.657q.444.001.86.101a.648.648 0 1 1-.306 1.26 2.4 2.4 0 0 0-.554-.065h-.657a.65.65 0 0 1-.65-.648M4.886 6.305c.35.084.564.434.48.782a2.3 2.3 0 0 0-.065.552v.655a.65.65 0 0 1-1.301 0v-.655q0-.442.102-.856a.65.65 0 0 1 .784-.478M19.114 6.305c.349-.084.7.13.784.478q.101.414.102.856v.655a.65.65 0 0 1-1.3 0v-.655q0-.287-.066-.552a.65.65 0 0 1 .48-.782M19.35 10.67c.359 0 .65.29.65.648v1.31a.65.65 0 0 1-1.3 0v-1.31a.65.65 0 0 1 .65-.648M4.65 10.67c.36 0 .65.29.65.648v1.31a.65.65 0 0 1-1.3 0v-1.31a.65.65 0 0 1 .65-.648M19.35 15.004c.359 0 .65.29.65.648v.655q0 .441-.102.856a.65.65 0 0 1-1.264-.304q.065-.265.065-.552v-.655a.65.65 0 0 1 .65-.648M4.65 15.004c.36 0 .65.29.65.648v.655q0 .286.066.552a.65.65 0 0 1-1.264.304A3.6 3.6 0 0 1 4 16.307v-.655a.65.65 0 0 1 .65-.648M6.313 19.062a.65.65 0 0 1 .785-.478q.266.065.554.066h.657a.65.65 0 1 1 0 1.296h-.657q-.444-.001-.86-.102a.65.65 0 0 1-.479-.782M17.687 19.062a.65.65 0 0 1-.48.782 3.7 3.7 0 0 1-.859.101h-.657a.65.65 0 1 1 0-1.295h.657q.288 0 .554-.066c.35-.084.7.13.785.478"/></svg>