<svg xmlns="http://www.w3.org/2000/svg" fill="none" viewBox="0 0 24 24" focusable="false"><defs><clipPath id="Border_Right_Outline_svg__a"><path fill="#fff" fill-opacity="0" d="M0 24h24V0H0z"/></clipPath></defs><g clip-path="url(#Border_Right_Outline_svg__a)"><path fill="#74767B" fill-rule="evenodd" d="M7.09 5.36c.18-.04.36-.06.55-.06h.66c.36 0 .65-.3.65-.65 0-.36-.29-.65-.65-.65h-.66c-.29 0-.58.03-.85.1a.64.64 0 0 0-.48.78c.08.35.43.56.78.48M11.34 4c-.36 0-.65.29-.65.65 0 .35.29.65.65.65h1.31c.36 0 .65-.3.65-.65 0-.36-.29-.65-.65-.65zm5.28 14.67c-.09.01-.18.02-.28.02h-.65c-.36 0-.65.29-.65.65s.29.65.65.65h.65c1.72 0 3.16-1.18 3.55-2.78v-.01c.07-.28.1-.56.1-.86V7.65c0-.3-.03-.59-.1-.86 0-.02-.01-.04-.02-.06a3.61 3.61 0 0 0-2.55-2.59c-.04-.02-.08-.03-.12-.04-.27-.07-.56-.1-.86-.1h-.65c-.36 0-.65.29-.65.65 0 .35.29.65.65.65h.65c1.3 0 2.35 1.06 2.35 2.35v8.69c0 1.21-.9 2.2-2.07 2.33M5.36 7.09c.01-.05.02-.1.02-.15 0-.29-.2-.56-.5-.63-.35-.09-.7.13-.78.48-.07.27-.1.56-.1.86v.65c0 .36.29.65.64.65.36 0 .65-.29.65-.65v-.65c0-.2.03-.38.07-.56m6.63 2.48c.36 0 .65-.29.65-.65v-1.2c0-.36-.29-.65-.65-.65s-.65.29-.65.65v1.2c0 .36.29.65.65.65m-6.7 1.77c0-.36-.29-.65-.65-.65-.35 0-.64.29-.64.65v1.31c0 .36.29.65.64.65.36 0 .65-.29.65-.65zm2.43 0c-.36 0-.65.29-.65.65s.29.65.65.65h1.19c.36 0 .65-.29.65-.65s-.29-.65-.65-.65zm7.35 0c-.36 0-.65.29-.65.65s.29.65.65.65h1.19c.36 0 .65-.29.65-.65s-.29-.65-.65-.65zm-3.08 5.57c.36 0 .65-.29.65-.65v-1.19c0-.36-.29-.65-.65-.65s-.65.29-.65.65v1.19c0 .36.29.65.65.65m-6.7-1.23c0-.36-.29-.65-.65-.65-.35 0-.64.29-.64.65v.66c0 .3.03.58.1.86a.65.65 0 0 0 1.28-.15c0-.05-.01-.1-.02-.16-.04-.17-.07-.36-.07-.55zm1.8 2.94c-.35-.08-.7.14-.78.48-.02.06-.02.11-.02.16 0 .29.2.56.5.63.27.07.56.1.85.1h.66c.36 0 .65-.29.65-.65s-.29-.65-.65-.65h-.66c-.19 0-.37-.02-.55-.07m4.25.07c-.36 0-.65.29-.65.65s.29.65.65.65h1.31c.36 0 .65-.29.65-.65s-.29-.65-.65-.65z"/></g></svg>