<svg xmlns="http://www.w3.org/2000/svg" fill="none" viewBox="0 0 24 24" focusable="false"><defs><clipPath id="Border_Bottom_Outline_svg__a"><path fill="#fff" fill-opacity="0" d="M0 24h24V0H0z"/></clipPath></defs><g clip-path="url(#Border_Bottom_Outline_svg__a)"><path fill="#717681" fill-rule="evenodd" d="M7.09 5.36c.18-.04.36-.06.55-.06h.66c.36 0 .65-.3.65-.66 0-.35-.29-.64-.65-.64h-.66c-.29 0-.58.03-.86.1-.29.07-.49.33-.49.63 0 .05 0 .1.02.15.08.35.43.56.78.48M11.33 4c-.36 0-.65.29-.65.64 0 .36.29.66.65.66h1.31c.36 0 .65-.3.65-.66 0-.35-.29-.64-.65-.64zm4.35 0c-.36 0-.65.29-.65.64 0 .36.29.66.65.66h.65c.19 0 .38.02.56.06.34.08.7-.13.78-.48.01-.05.02-.1.02-.15 0-.3-.2-.56-.5-.63-.28-.07-.56-.1-.86-.1zM5.36 7.09c.01-.05.02-.1.02-.15 0-.29-.2-.56-.5-.63-.35-.09-.7.13-.78.48-.07.27-.1.56-.1.85v.66c0 .36.29.65.64.65.36 0 .65-.29.65-.65v-.66c0-.19.03-.37.07-.55m14.52-.3a.653.653 0 0 0-.79-.48c-.29.07-.49.34-.49.63 0 .05 0 .1.02.15.04.18.06.36.06.55v.66c0 .36.29.65.65.65s.65-.29.65-.65v-.66c0-.29-.04-.58-.1-.85m-8.55 2.13c0 .36.29.65.65.65s.65-.29.65-.65v-1.2c0-.36-.29-.65-.65-.65s-.65.29-.65.65zm8.65 2.42c0-.36-.29-.65-.65-.65s-.65.29-.65.65v1.31c0 .36.29.65.65.65s.65-.29.65-.65zm-14.69 0c0-.36-.29-.65-.65-.65-.35 0-.64.29-.64.65v1.31c0 .36.29.65.64.65.36 0 .65-.29.65-.65zm1.77.65c0 .36.29.65.65.65h1.2c.36 0 .65-.29.65-.65s-.29-.65-.65-.65h-1.2c-.36 0-.65.29-.65.65m7.35 0c0 .36.29.65.65.65h1.19c.36 0 .65-.29.65-.65s-.29-.65-.65-.65h-1.19c-.36 0-.65.29-.65.65m-3.08 4.27c0 .36.29.65.65.65s.65-.29.65-.65v-1.19c0-.36-.29-.65-.65-.65s-.65.29-.65.65zm-3.68 2.43a2.35 2.35 0 0 1-2.33-2.35v-.35c0-.07-.01-.14-.03-.2v-.11c0-.36-.29-.65-.65-.65-.35 0-.64.29-.64.65v.66c0 .3.03.58.1.86.01.07.04.13.08.19.36 1.19 1.3 2.13 2.5 2.46.03.02.07.03.1.04.28.07.57.1.86.1h8.71c2.01 0 3.65-1.63 3.65-3.65v-.35c0-.05-.01-.1-.02-.15v-.16c0-.36-.29-.65-.65-.65s-.65.29-.65.65v.66c0 .19-.02.38-.06.55-.01.04-.02.09-.02.13-.24.78-.86 1.38-1.65 1.59-.02.01-.04.01-.06.01-.18.05-.37.07-.56.07H7.65"/></g></svg>