<svg xmlns="http://www.w3.org/2000/svg" fill="none" viewBox="0 0 24 24" focusable="false"><defs><clipPath id="Border_Outer_Outline_svg__a"><path fill="#fff" fill-opacity="0" d="M0 24h24V0H0z"/></clipPath></defs><g clip-path="url(#Border_Outer_Outline_svg__a)"><path fill="#74767B" fill-rule="evenodd" d="M7.65 4C5.63 4 4 5.63 4 7.65v8.69c0 2.02 1.63 3.65 3.65 3.65h8.69c2.02 0 3.66-1.63 3.66-3.65V7.65C20 5.63 18.36 4 16.34 4zM5.3 7.65c0-1.3 1.05-2.35 2.35-2.35h8.69c1.3 0 2.35 1.05 2.35 2.35v8.69c0 1.3-1.05 2.35-2.35 2.35H7.65c-1.3 0-2.35-1.05-2.35-2.35zm6.69 1.92c-.36 0-.65-.29-.65-.65v-1.2c0-.36.29-.65.65-.65s.65.29.65.65v1.2c0 .36-.29.65-.65.65m-4.27 1.77c-.36 0-.65.29-.65.65s.29.65.65.65h1.19c.36 0 .65-.29.65-.65s-.29-.65-.65-.65zm7.35 0c-.36 0-.65.29-.65.65s.29.65.65.65h1.19c.36 0 .65-.29.65-.65s-.29-.65-.65-.65zm-3.73 4.92c0 .36.29.65.65.65s.65-.29.65-.65v-1.19c0-.36-.29-.65-.65-.65s-.65.29-.65.65z"/></g></svg>