<svg xmlns="http://www.w3.org/2000/svg" fill="none" viewBox="0 0 24 24" focusable="false"><defs><clipPath id="Border_Bold_Top_Outline_svg__a"><path fill="#fff" fill-opacity="0" d="M0 24h24V0H0z"/></clipPath></defs><g clip-path="url(#Border_Bold_Top_Outline_svg__a)"><path fill="#717681" fill-rule="evenodd" d="M4 7.55h.01c-.01.03-.01.07-.01.1v.66c0 .36.29.65.65.65.36 0 .65-.29.65-.65v-.66c0-.03 0-.07.01-.1h6.06c-.02.05-.02.11-.02.18v1.19c0 .36.29.65.65.65.35 0 .64-.29.64-.65V7.73c0-.07 0-.13-.02-.18h6.07c.01.03.01.07.01.1v.66c0 .36.29.65.65.65.36 0 .65-.29.65-.65V7c0-1.66-1.35-3-3-3H7C5.34 4 4 5.34 4 7zm16 3.79c0-.36-.29-.65-.65-.65-.36 0-.65.29-.65.65v1.32c0 .36.29.65.65.65.36 0 .65-.29.65-.65zm-14.7 0c0-.36-.29-.65-.65-.65-.36 0-.65.29-.65.65v1.32c0 .36.29.65.65.65.36 0 .65-.29.65-.65zm2.42.01c-.36 0-.65.29-.65.65 0 .36.29.65.65.65h1.2c.36 0 .65-.29.65-.65 0-.36-.29-.65-.65-.65zm7.35 0c-.36 0-.65.29-.65.65 0 .36.29.65.65.65h1.2c.36 0 .65-.29.65-.65 0-.36-.29-.65-.65-.65zM12 16.92c.35 0 .64-.29.64-.65v-1.2c0-.36-.29-.65-.64-.65-.36 0-.65.29-.65.65v1.2c0 .36.29.65.65.65m8-1.23c0-.36-.29-.65-.65-.65-.36 0-.65.29-.65.65v.66c0 .19-.03.37-.07.55-.01.05-.02.1-.02.15 0 .3.2.56.5.63.35.09.7-.13.78-.48.07-.27.11-.56.11-.85zm-14.7 0c0-.36-.29-.65-.65-.65-.36 0-.65.29-.65.65v.66c0 .29.04.58.11.85.08.35.43.57.78.48.3-.07.5-.33.5-.63 0-.05-.01-.1-.02-.15a2.51 2.51 0 0 1-.07-.55zm1.8 2.94c-.35-.08-.7.13-.78.48-.02.05-.02.1-.02.15 0 .3.2.56.5.63.27.07.56.11.85.11h.66c.36 0 .65-.29.65-.65 0-.36-.29-.65-.65-.65h-.66c-.19 0-.37-.03-.55-.07m10.1 1.26c.3-.07.5-.33.5-.63 0-.05 0-.1-.02-.15a.646.646 0 0 0-.78-.48c-.18.04-.36.07-.55.07h-.66c-.36 0-.65.29-.65.65 0 .36.29.65.65.65h.66c.29 0 .58-.04.85-.11m-5.86-1.19c-.36 0-.65.29-.65.65 0 .36.29.65.65.65h1.32c.36 0 .65-.29.65-.65 0-.36-.29-.65-.65-.65z"/></g></svg>