<svg xmlns="http://www.w3.org/2000/svg" fill="none" viewBox="0 0 24 24" focusable="false"><path fill="#717681" d="M7.094 5.372q.266-.065.554-.066h.656a.65.65 0 0 0 0-1.3h-.656q-.443 0-.858.102a.65.65 0 0 0 .304 1.264M11.335 4.006a.65.65 0 0 0 0 1.3h1.313a.65.65 0 0 0 0-1.3zM15.678 4.006a.65.65 0 0 0 0 1.3h.657q.06 0 .116.003v6.075a.7.7 0 0 0-.196-.03H15.06a.65.65 0 0 0 0 1.3h1.195q.103 0 .197-.03v6.075l-.117.003h-.657a.65.65 0 0 0 0 1.3h.657l.116-.002h.55A3 3 0 0 0 20 17V7a3 3 0 0 0-2.998-3h-.55v.008l-.117-.002zM5.365 7.103a.65.65 0 0 0-1.263-.305A3.7 3.7 0 0 0 4 7.656v.657a.65.65 0 1 0 1.3 0v-.657q0-.287.065-.553M5.3 11.347a.65.65 0 1 0-1.3 0v1.314a.65.65 0 1 0 1.3 0zM5.3 15.694a.65.65 0 1 0-1.3 0v.658q0 .442.102.858a.65.65 0 1 0 1.263-.305 2.4 2.4 0 0 1-.066-.553zM7.094 18.636A.65.65 0 0 0 6.79 19.9q.415.101.858.102h.656a.65.65 0 0 0 0-1.3h-.656q-.288 0-.554-.066M11.335 18.702a.65.65 0 0 0 0 1.3h1.313a.65.65 0 0 0 0-1.3zM11.986 9.578a.65.65 0 0 1-.65-.65V7.733a.65.65 0 1 1 1.3 0v1.195a.65.65 0 0 1-.65.65M11.986 16.923a.65.65 0 0 1-.65-.65v-1.195a.65.65 0 1 1 1.3 0v1.195a.65.65 0 0 1-.65.65M7.718 11.354a.65.65 0 0 0 0 1.3h1.194a.65.65 0 0 0 0-1.3z"/></svg>