<svg xmlns="http://www.w3.org/2000/svg" fill="none" viewBox="0 0 24 24" focusable="false"><path fill="#717681" d="M7.652 5.3a2.4 2.4 0 0 0-.554.065.65.65 0 0 1-.305-1.263A3.7 3.7 0 0 1 7.652 4h.657a.65.65 0 1 1 0 1.3zM10.692 4.65a.65.65 0 0 1 .65-.65h1.315a.65.65 0 1 1 0 1.3h-1.314a.65.65 0 0 1-.65-.65M15.04 4.65a.65.65 0 0 1 .651-.65h.657q.444 0 .86.102a.65.65 0 1 1-.306 1.263 2.4 2.4 0 0 0-.554-.065h-.657a.65.65 0 0 1-.65-.65M4.886 6.312a.65.65 0 0 1 .48.784 2.4 2.4 0 0 0-.065.554v.657a.65.65 0 0 1-1.301 0V7.65q0-.443.102-.858a.65.65 0 0 1 .784-.48M19.114 6.312c.349-.084.7.13.784.48q.101.415.102.858v.657a.65.65 0 0 1-1.3 0V7.65q0-.287-.066-.554a.65.65 0 0 1 .48-.784M19.35 10.69c.359 0 .65.292.65.65v1.315a.65.65 0 0 1-1.3 0V11.34a.65.65 0 0 1 .65-.65M4.65 10.69c.36 0 .65.292.65.65v1.315a.65.65 0 0 1-1.3 0V11.34a.65.65 0 0 1 .65-.65M19.35 15.038c.359 0 .65.291.65.65v.657q0 .444-.102.859a.65.65 0 0 1-1.264-.305q.065-.266.065-.554v-.657a.65.65 0 0 1 .65-.65M4.65 15.038c.36 0 .65.291.65.65v.657q0 .288.066.554a.65.65 0 0 1-1.264.305A3.7 3.7 0 0 1 4 16.345v-.657a.65.65 0 0 1 .65-.65M6.313 19.11a.65.65 0 0 1 .785-.48q.266.065.554.065h.657a.65.65 0 1 1 0 1.3h-.657q-.444-.001-.86-.101a.65.65 0 0 1-.479-.785M17.687 19.11a.65.65 0 0 1-.48.784 3.7 3.7 0 0 1-.859.101h-.657a.65.65 0 1 1 0-1.3h.657q.288 0 .554-.065c.35-.084.7.13.785.48M10.692 19.345a.65.65 0 0 1 .65-.65h1.315a.65.65 0 1 1 0 1.3h-1.314a.65.65 0 0 1-.65-.65M11.995 9.572a.65.65 0 0 1-.65-.65V7.726a.65.65 0 0 1 1.3 0v1.196a.65.65 0 0 1-.65.65M15.072 11.348a.65.65 0 1 0 0 1.3h1.196a.65.65 0 1 0 0-1.3zM11.995 16.92a.65.65 0 0 1-.65-.65v-1.196a.65.65 0 0 1 1.3 0v1.195a.65.65 0 0 1-.65.65M7.722 11.348a.65.65 0 1 0 0 1.3h1.195a.65.65 0 1 0 0-1.3z"/></svg>