<svg xmlns="http://www.w3.org/2000/svg" width="24" height="24" fill="none"><path fill="#717681" d="M4.003 6.652a.65.65 0 0 1 .65-.65h14.7a.65.65 0 1 1 0 1.3h-14.7a.65.65 0 0 1-.65-.65ZM4.003 17.35a.65.65 0 0 1 .65-.65H5.85a.65.65 0 1 1 0 1.3H4.653a.65.65 0 0 1-.65-.65ZM12.993 17.35a.65.65 0 0 1 .65-.65h1.196a.65.65 0 1 1 0 1.3h-1.196a.65.65 0 0 1-.65-.65ZM8.499 17.35a.65.65 0 0 1 .65-.65h1.195a.65.65 0 1 1 0 1.3H9.149a.65.65 0 0 1-.65-.65ZM17.489 17.35a.65.65 0 0 1 .65-.65h1.195a.65.65 0 1 1 0 1.3h-1.195a.65.65 0 0 1-.65-.65ZM4.003 12a.65.65 0 0 1 .65-.65h5.69a.65.65 0 0 1 0 1.3h-5.69a.65.65 0 0 1-.65-.65ZM13.008 12a.65.65 0 0 1 .65-.65h5.695a.65.65 0 1 1 0 1.3h-5.696a.65.65 0 0 1-.65-.65Z"/></svg>