<svg xmlns="http://www.w3.org/2000/svg" fill="none" viewBox="0 0 24 24" focusable="false"><defs><clipPath id="Border_Horizontal_Outline_svg__a"><path fill="#fff" fill-opacity="0" d="M0 24h24V0H0z"/></clipPath></defs><g clip-path="url(#Border_Horizontal_Outline_svg__a)"><path fill="#717681" fill-rule="evenodd" d="M7.09 5.36c.18-.04.36-.06.56-.06h.65c.36 0 .65-.3.65-.66 0-.35-.29-.64-.65-.64h-.65c-.3 0-.59.03-.86.1a.64.64 0 0 0-.48.78c.08.35.43.56.78.48M11.34 4c-.36 0-.65.29-.65.64 0 .36.29.66.65.66h1.31c.36 0 .65-.3.65-.66 0-.35-.29-.64-.65-.64zm4.35 0c-.36 0-.65.29-.65.64 0 .36.29.66.65.66h.65c.2 0 .38.02.56.06.35.08.7-.13.78-.48.01-.05.02-.1.02-.15 0-.3-.2-.56-.5-.63-.27-.07-.56-.1-.86-.1zM5.38 6.94c0-.29-.2-.56-.5-.63-.35-.09-.7.13-.78.48-.07.27-.1.56-.1.85v.66c0 .36.29.65.65.65.35 0 .65-.29.65-.65v-.66c0-.19.02-.37.06-.55.01-.05.02-.1.02-.15m14.51-.15a.64.64 0 0 0-.78-.48c-.3.07-.5.34-.5.63 0 .05.01.1.02.15.04.18.06.36.06.55v.66a.655.655 0 0 0 1.31 0v-.66c0-.29-.04-.58-.11-.85m-8.55 2.13c0 .36.29.65.65.65s.65-.29.65-.65v-1.2c0-.36-.29-.65-.65-.65s-.65.29-.65.65zM4 11.99c0 .36.29.65.65.65h14.69c.36 0 .65-.29.65-.65s-.29-.65-.65-.65H4.65c-.36 0-.65.29-.65.65m7.34 4.27c0 .36.29.65.65.65s.65-.29.65-.65v-1.19c0-.36-.29-.65-.65-.65s-.65.29-.65.65zm8.66-.58a.655.655 0 0 0-1.31 0v.66c0 .19-.02.38-.06.55-.01.06-.02.11-.02.16a.65.65 0 0 0 1.28.15c.07-.28.11-.56.11-.86zm-14.7 0c0-.36-.3-.65-.65-.65-.36 0-.65.29-.65.65v.66c0 .3.03.58.1.86a.65.65 0 0 0 1.28-.15c0-.05-.01-.1-.02-.16a2.4 2.4 0 0 1-.06-.55zm1.79 2.94c-.35-.08-.7.14-.78.48-.01.06-.02.11-.02.16 0 .29.2.56.5.63.27.07.56.1.86.1h.65c.36 0 .65-.29.65-.65s-.29-.65-.65-.65h-.65c-.2 0-.38-.02-.56-.07m10.61.64c0-.05-.01-.1-.02-.16a.654.654 0 0 0-.78-.48c-.18.05-.36.07-.56.07h-.65c-.36 0-.65.29-.65.65s.29.65.65.65h.65c.3 0 .59-.03.86-.1.3-.07.5-.34.5-.63m-7.01.08c0 .36.29.65.65.65h1.31c.36 0 .65-.29.65-.65s-.29-.65-.65-.65h-1.31c-.36 0-.65.29-.65.65"/></g></svg>