<svg xmlns="http://www.w3.org/2000/svg" fill="none" viewBox="0 0 24 24" focusable="false"><path fill="#74767B" fill-rule="evenodd" d="M6.79 4.1c-.02 0-.04.01-.05.01a3.66 3.66 0 0 0-2.61 2.58c-.01.03-.03.06-.03.1-.07.27-.1.56-.1.86v.65c0 .36.29.65.64.65.36 0 .65-.29.65-.65v-.21c.01-.03.01-.06.01-.09v-.35c0-1.3 1.05-2.35 2.35-2.35h8.69c1.3 0 2.35 1.05 2.35 2.35v.65c0 .36.3.65.65.65.36 0 .65-.29.65-.65v-.65c0-.3-.03-.59-.1-.86v-.02a3.65 3.65 0 0 0-2.68-2.67h-.01c-.27-.07-.56-.1-.86-.1h-8.7c-.29 0-.58.03-.85.1m5.2 5.47c.36 0 .65-.29.65-.65v-1.2c0-.36-.29-.65-.65-.65s-.65.29-.65.65v1.2c0 .36.29.65.65.65m8 1.77c0-.36-.29-.65-.65-.65-.35 0-.65.29-.65.65v1.31c0 .36.3.65.65.65.36 0 .65-.29.65-.65zm-14.7 0c0-.36-.29-.65-.65-.65-.35 0-.64.29-.64.65v1.31c0 .36.29.65.64.65.36 0 .65-.29.65-.65zm2.43 0c-.36 0-.65.29-.65.65s.29.65.65.65h1.19c.36 0 .65-.29.65-.65s-.29-.65-.65-.65zm7.35 0c-.36 0-.65.29-.65.65s.29.65.65.65h1.19c.36 0 .65-.29.65-.65s-.29-.65-.65-.65zm-3.08 5.57c.36 0 .65-.29.65-.65v-1.19c0-.36-.29-.65-.65-.65s-.65.29-.65.65v1.19c0 .36.29.65.65.65m8-1.23c0-.36-.29-.65-.65-.65-.35 0-.65.29-.65.65v.66c0 .19-.02.38-.06.55-.01.06-.02.11-.02.16a.65.65 0 0 0 1.28.15c.07-.28.1-.56.1-.86zm-14.7 0c0-.36-.29-.65-.65-.65-.35 0-.64.29-.64.65v.66c0 .3.03.58.1.86a.65.65 0 0 0 1.28-.15c0-.05-.01-.1-.02-.16-.04-.17-.07-.36-.07-.55zm1.8 2.94c-.35-.08-.7.14-.78.48-.02.06-.02.11-.02.16 0 .29.2.56.5.63.27.07.56.1.85.1h.66c.36 0 .65-.29.65-.65s-.29-.65-.65-.65h-.66c-.19 0-.37-.02-.55-.07m10.11 1.27c.3-.07.5-.34.5-.63 0-.05-.01-.1-.02-.16a.654.654 0 0 0-.78-.48c-.18.05-.36.07-.56.07h-.65c-.36 0-.65.29-.65.65s.29.65.65.65h.65c.3 0 .59-.03.86-.1m-5.86-1.2c-.36 0-.65.29-.65.65s.29.65.65.65h1.31c.36 0 .65-.29.65-.65s-.29-.65-.65-.65z"/></svg>