<svg xmlns="http://www.w3.org/2000/svg" fill="none" viewBox="0 0 24 24" focusable="false"><path fill="#717681" fill-rule="evenodd" d="M5.29 7.65C5.3 6.36 6.35 5.3 7.64 5.3h.66c.36 0 .65-.3.65-.65 0-.36-.29-.65-.65-.65h-.66c-.29 0-.58.03-.85.1-.04.01-.08.02-.12.04a3.64 3.64 0 0 0-2.56 2.59c0 .02-.01.04-.01.06-.07.27-.1.56-.1.86v8.69c0 2.02 1.63 3.65 3.64 3.65h.66c.36 0 .65-.29.65-.65s-.29-.65-.65-.65h-.66c-.08 0-.16 0-.25-.01a2.36 2.36 0 0 1-2.1-2.34zM11.34 4c-.36 0-.65.29-.65.65 0 .35.29.65.65.65h1.31c.36 0 .65-.3.65-.65 0-.36-.29-.65-.65-.65zm4.35 0c-.36 0-.65.29-.65.65 0 .35.29.65.65.65h.65c.2 0 .38.02.56.06.35.08.7-.13.78-.48.01-.05.02-.1.02-.15 0-.3-.2-.56-.5-.63-.27-.07-.56-.1-.86-.1zm4.2 2.79a.64.64 0 0 0-.78-.48c-.3.07-.5.34-.5.63 0 .05.01.1.02.15.04.18.06.36.06.56v.65c0 .36.3.65.65.65.36 0 .65-.29.65-.65v-.65c0-.3-.03-.59-.1-.86m-7.9 2.78c.36 0 .65-.29.65-.65v-1.2c0-.36-.29-.65-.65-.65s-.65.29-.65.65v1.2c0 .36.29.65.65.65m8 1.77c0-.36-.29-.65-.65-.65-.35 0-.65.29-.65.65v1.31c0 .36.3.65.65.65.36 0 .65-.29.65-.65zm-12.27 0c-.36 0-.65.29-.65.65s.29.65.65.65h1.19c.36 0 .65-.29.65-.65s-.29-.65-.65-.65zm7.35 0c-.36 0-.65.29-.65.65s.29.65.65.65h1.19c.36 0 .65-.29.65-.65s-.29-.65-.65-.65zm-3.08 5.57c.36 0 .65-.29.65-.65v-1.19c0-.36-.29-.65-.65-.65s-.65.29-.65.65v1.19c0 .36.29.65.65.65m8-1.23c0-.36-.29-.65-.65-.65-.35 0-.65.29-.65.65v.66c0 .19-.02.38-.06.55-.01.06-.02.11-.02.16a.65.65 0 0 0 1.28.15c.07-.28.1-.56.1-.86zm-2.79 4.21c.3-.07.5-.34.5-.63 0-.05-.01-.1-.02-.16a.654.654 0 0 0-.78-.48c-.18.05-.36.07-.56.07h-.65c-.36 0-.65.29-.65.65s.29.65.65.65h.65c.3 0 .59-.03.86-.1m-5.86-1.2c-.36 0-.65.29-.65.65s.29.65.65.65h1.31c.36 0 .65-.29.65-.65s-.29-.65-.65-.65z"/></svg>