<svg xmlns="http://www.w3.org/2000/svg" fill="none" viewBox="0 0 24 24" focusable="false"><defs><clipPath id="Border_Bold_Left_Outline_svg__a"><path fill="#fff" fill-opacity="0" d="M0 24h24V0H0z"/></clipPath></defs><g clip-path="url(#Border_Bold_Left_Outline_svg__a)"><path fill="#74767B" fill-rule="evenodd" d="M7.55 5.3h.76c.36 0 .65-.29.65-.65S8.67 4 8.31 4H7C5.34 4 4 5.34 4 7v10c0 1.65 1.34 3 3 3h1.31c.36 0 .65-.29.65-.65s-.29-.65-.65-.65h-.66c-.03 0-.07 0-.1-.01v-6.07c.05.02.11.03.17.03h1.2c.36 0 .65-.29.65-.65s-.29-.65-.65-.65h-1.2a1 1 0 0 0-.17.02zM11.34 4c-.36 0-.65.29-.65.65s.29.65.65.65h1.32c.36 0 .65-.29.65-.65S13.02 4 12.66 4zm4.35 0c-.36 0-.65.29-.65.65s.29.65.65.65h.66c.19 0 .37.02.55.07.35.08.7-.13.78-.48.02-.05.02-.11.02-.16 0-.29-.2-.56-.5-.63-.27-.06-.56-.1-.85-.1zm4.2 2.79a.646.646 0 0 0-.78-.48c-.3.08-.5.34-.5.63 0 .06.01.11.02.16.04.17.07.36.07.55v.66c0 .36.29.65.65.65s.65-.29.65-.65v-.66c0-.29-.04-.58-.11-.86M12 9.57c.35 0 .64-.29.64-.65V7.73c0-.36-.29-.65-.64-.65-.36 0-.65.29-.65.65v1.19c0 .36.29.65.65.65m8 1.77c0-.36-.29-.65-.65-.65s-.65.29-.65.65v1.32c0 .36.29.65.65.65s.65-.29.65-.65zm-4.93.01c-.36 0-.65.29-.65.65s.29.65.65.65h1.2c.36 0 .65-.29.65-.65s-.29-.65-.65-.65zM12 16.92c.35 0 .64-.29.64-.65v-1.2c0-.36-.29-.65-.64-.65-.36 0-.65.29-.65.65v1.2c0 .36.29.65.65.65m8-1.23c0-.36-.29-.65-.65-.65s-.65.29-.65.65v.66c0 .19-.03.37-.07.55-.01.05-.02.1-.02.15 0 .3.2.56.5.63.35.09.7-.13.78-.48.07-.27.11-.56.11-.85zm-2.8 4.2c.3-.07.5-.33.5-.63 0-.05 0-.1-.02-.15a.646.646 0 0 0-.78-.48c-.18.04-.36.07-.55.07h-.66c-.36 0-.65.29-.65.65s.29.65.65.65h.66c.29 0 .58-.04.85-.11m-5.86-1.19c-.36 0-.65.29-.65.65s.29.65.65.65h1.32c.36 0 .65-.29.65-.65s-.29-.65-.65-.65z"/></g></svg>