<svg xmlns="http://www.w3.org/2000/svg" fill="none" viewBox="0 0 24 24" focusable="false"><defs><clipPath id="Border_Bold_Bottom_Outline_svg__a"><path fill="#fff" fill-opacity="0" d="M0 24h24V0H0z"/></clipPath></defs><g clip-path="url(#Border_Bold_Bottom_Outline_svg__a)"><path fill="#74767B" fill-rule="evenodd" d="M7.1 5.36c.18-.04.36-.07.55-.07h.66c.36 0 .65-.29.65-.64 0-.36-.29-.65-.65-.65h-.66c-.29 0-.58.03-.85.1a.64.64 0 0 0-.48.78c.08.35.43.56.78.48M11.34 4c-.36 0-.65.29-.65.65 0 .35.29.64.65.64h1.32c.36 0 .65-.29.65-.64 0-.36-.29-.65-.65-.65zm4.35 0c-.36 0-.65.29-.65.65 0 .35.29.64.65.64h.66c.19 0 .37.03.55.07.35.08.7-.13.78-.48.02-.05.02-.1.02-.15 0-.3-.2-.56-.5-.63-.27-.07-.56-.1-.85-.1zM5.37 7.09c.01-.05.02-.1.02-.15 0-.29-.2-.56-.5-.63-.35-.09-.7.13-.78.48-.07.27-.11.56-.11.86v.65c0 .36.29.65.65.65s.65-.29.65-.65v-.65c0-.2.03-.38.07-.56m14.52-.3a.64.64 0 0 0-.78-.48c-.3.07-.5.34-.5.63 0 .05.01.1.02.15.04.18.07.36.07.56v.65c0 .36.29.65.65.65s.65-.29.65-.65v-.65c0-.3-.04-.59-.11-.86M12 9.57c.35 0 .64-.29.64-.65v-1.2c0-.36-.29-.65-.64-.65-.36 0-.65.29-.65.65v1.2c0 .36.29.65.65.65m8 1.77c0-.36-.29-.65-.65-.65s-.65.29-.65.65v1.31c0 .36.29.65.65.65s.65-.29.65-.65zm-14.7 0c0-.36-.29-.65-.65-.65s-.65.29-.65.65v1.31c0 .36.29.65.65.65s.65-.29.65-.65zm2.42 0c-.36 0-.65.29-.65.65s.29.65.65.65h1.2c.36 0 .65-.29.65-.65s-.29-.65-.65-.65zm7.35 0c-.36 0-.65.29-.65.65s.29.65.65.65h1.2c.36 0 .65-.29.65-.65s-.29-.65-.65-.65zM4 16.99c0 1.66 1.34 3 3 3h10c1.65 0 3-1.34 3-3v-1.31c0-.36-.29-.65-.65-.65s-.65.29-.65.65v.66c0 .03 0 .07-.01.1h-6.07c.02-.06.02-.12.02-.18v-1.19c0-.36-.29-.65-.64-.65-.36 0-.65.29-.65.65v1.19c0 .06 0 .12.02.18H5.31c-.01-.03-.01-.07-.01-.1v-.66c0-.36-.29-.65-.65-.65s-.65.29-.65.65v.66c0 .03 0 .07.01.1H4z"/></g></svg>