<svg xmlns="http://www.w3.org/2000/svg" fill="none" viewBox="0 0 24 24" focusable="false"><path fill="#717681" d="M7.654 18.695a2.349 2.349 0 0 1-2.326-2.35v-.354a.65.65 0 0 0-.03-.193v-.11a.65.65 0 1 0-1.298 0v.657c0 .295.035.583.102.859a.65.65 0 0 0 .08.193 3.656 3.656 0 0 0 2.503 2.462.662.662 0 0 0 .104.035c.276.066.563.101.858.101h8.707A3.648 3.648 0 0 0 20 16.345v-.354a.653.653 0 0 0-.016-.143v-.16a.65.65 0 1 0-1.299 0v.657c0 .192-.022.377-.065.554a.653.653 0 0 0-.017.123 2.353 2.353 0 0 1-1.65 1.596.64.64 0 0 0-.062.012 2.35 2.35 0 0 1-.553.065H8.304zM7.094 5.365c.176-.042.361-.065.553-.065h.656a.65.65 0 0 0 0-1.3h-.656a3.65 3.65 0 0 0-.858.102.65.65 0 0 0 .305 1.263M11.335 4a.65.65 0 0 0 0 1.3h1.314a.65.65 0 0 0 0-1.3zM15.68 4a.65.65 0 0 0 0 1.3h.658c.191 0 .376.023.553.065a.65.65 0 1 0 .304-1.263A3.651 3.651 0 0 0 16.338 4zM5.364 7.096a.65.65 0 0 0-1.262-.304A3.661 3.661 0 0 0 4 7.65v.657a.65.65 0 1 0 1.299 0V7.65c0-.191.022-.377.065-.554M19.883 6.792a.65.65 0 1 0-1.263.304c.043.177.066.363.066.554v.657a.65.65 0 1 0 1.298 0V7.65a3.66 3.66 0 0 0-.101-.858M19.984 11.34a.65.65 0 1 0-1.299 0v1.315a.65.65 0 1 0 1.3 0zM5.299 11.34a.65.65 0 1 0-1.299 0v1.315a.65.65 0 1 0 1.299 0zM11.337 8.921a.65.65 0 1 0 1.299 0V7.726a.65.65 0 1 0-1.299 0zM14.412 11.998c0-.36.29-.65.65-.65h1.194a.65.65 0 0 1 0 1.3h-1.195a.65.65 0 0 1-.649-.65"/><path fill="#717681" d="M11.337 16.267a.65.65 0 1 0 1.299 0v-1.195a.65.65 0 1 0-1.299 0zM7.068 11.998c0-.36.29-.65.65-.65h1.194a.65.65 0 0 1 0 1.3H7.717a.65.65 0 0 1-.65-.65"/></svg>