<svg xmlns="http://www.w3.org/2000/svg" fill="none" viewBox="0 0 24 24" focusable="false"><defs><clipPath id="Border_Bold_Right_Outline_svg__a"><path fill="#fff" fill-opacity="0" d="M0 24h24V0H0z"/></clipPath></defs><g clip-path="url(#Border_Bold_Right_Outline_svg__a)"><path fill="#717681" fill-rule="evenodd" d="M15.67 4c-.36 0-.65.29-.65.65s.29.65.65.65h.78v6.08a.7.7 0 0 0-.2-.03h-1.19c-.36 0-.65.29-.65.65s.29.65.65.65h1.19c.07 0 .13-.01.2-.03v6.07c-.04.01-.08.01-.12.01h-.66c-.36 0-.65.29-.65.65s.29.65.65.65h.66c.04 0 .08 0 .12-.01L17 20c1.65 0 3-1.35 3-3V7c0-1.66-1.35-3-3-3h-1.33M7.09 5.37c.18-.05.36-.07.55-.07h.66c.36 0 .65-.29.65-.65S8.66 4 8.3 4h-.66c-.29 0-.58.04-.85.1a.65.65 0 0 0-.48.79c.08.35.43.56.78.48M11.33 4c-.36 0-.65.29-.65.65s.29.65.65.65h1.31c.36 0 .65-.29.65-.65S13 4 12.64 4zM5.36 7.1c.01-.05.02-.1.02-.16 0-.29-.2-.55-.5-.63-.35-.08-.7.13-.78.48-.07.28-.1.57-.1.86v.66c0 .36.29.65.64.65.36 0 .65-.29.65-.65v-.66c0-.19.03-.38.07-.55m6.62 2.47c.36 0 .65-.29.65-.65V7.73c0-.36-.29-.65-.65-.65s-.65.29-.65.65v1.19c0 .36.29.65.65.65m-6.69 1.77c0-.36-.29-.65-.65-.65-.35 0-.64.29-.64.65v1.32c0 .36.29.65.64.65.36 0 .65-.29.65-.65zm2.42.01c-.36 0-.65.29-.65.65s.29.65.65.65h1.2c.36 0 .65-.29.65-.65s-.29-.65-.65-.65zm4.27 5.57c.36 0 .65-.29.65-.65v-1.2c0-.36-.29-.65-.65-.65s-.65.29-.65.65v1.2c0 .36.29.65.65.65m-6.69-1.23c0-.36-.29-.65-.65-.65-.35 0-.64.29-.64.65v.66c0 .29.03.58.1.85.08.35.43.57.78.48.3-.07.5-.33.5-.63 0-.05-.01-.1-.02-.15a2.5 2.5 0 0 1-.07-.55zm1.8 2.94c-.35-.08-.7.13-.78.48-.02.05-.02.1-.02.15 0 .3.2.56.5.63.27.07.56.11.85.11h.66c.36 0 .65-.29.65-.65s-.29-.65-.65-.65h-.66c-.19 0-.37-.03-.55-.07m4.24.07c-.36 0-.65.29-.65.65s.29.65.65.65h1.31c.36 0 .65-.29.65-.65s-.29-.65-.65-.65z"/></g></svg>