<svg xmlns="http://www.w3.org/2000/svg" fill="none" viewBox="0 0 24 24" focusable="false"><defs><clipPath id="Border_Vertical_Outline_svg__a"><path fill="#fff" fill-opacity="0" d="M0 24h24V0H0z"/></clipPath></defs><g clip-path="url(#Border_Vertical_Outline_svg__a)"><path fill="#74767B" fill-rule="evenodd" d="M7.09 5.36c.18-.05.36-.07.56-.07h.65c.36 0 .65-.29.65-.65 0-.35-.29-.64-.65-.64h-.65c-.3 0-.59.03-.86.1a.64.64 0 0 0-.48.78c.08.35.43.56.78.48M15.69 4c-.36 0-.65.29-.65.64 0 .36.29.65.65.65h.65c.2 0 .38.02.56.07.35.08.7-.13.78-.48.01-.05.02-.1.02-.15 0-.3-.2-.56-.5-.63-.27-.07-.56-.1-.86-.1zm-3.7.06c-.36 0-.65.29-.65.65v14.64c0 .35.29.65.65.65s.65-.3.65-.65V4.71c0-.36-.29-.65-.65-.65M5.38 6.93a.65.65 0 0 0-1.28-.15c-.07.27-.1.56-.1.85v.66c0 .36.29.65.65.65.35 0 .65-.29.65-.65v-.66c0-.19.02-.37.06-.55.01-.05.02-.1.02-.15m14.51-.15a.65.65 0 0 0-1.28.15c0 .05.01.1.02.15.04.18.06.36.06.55v.66a.655.655 0 0 0 1.31 0v-.66c0-.29-.04-.58-.11-.85m-.55 3.88c-.35 0-.65.29-.65.65v1.31a.655.655 0 0 0 1.31 0v-1.31c0-.36-.3-.65-.66-.65m-14.04.65c0-.36-.3-.65-.65-.65-.36 0-.65.29-.65.65v1.31c0 .36.29.65.65.65.35 0 .65-.29.65-.65zm2.42.06c-.36 0-.65.29-.65.65s.29.65.65.65h1.19c.36 0 .65-.29.65-.65s-.29-.65-.65-.65zm7.35 0c-.36 0-.65.29-.65.65s.29.65.65.65h1.19c.36 0 .65-.29.65-.65s-.29-.65-.65-.65zM20 15.65a.655.655 0 0 0-1.31 0v.65c0 .19-.02.38-.06.55-.01.05-.02.11-.02.16 0 .29.2.55.5.63.35.08.7-.13.78-.48.07-.28.11-.56.11-.86zm-14.7 0c0-.36-.3-.65-.65-.65-.36 0-.65.29-.65.65v.65c0 .3.03.58.1.86.08.35.43.56.78.48.3-.08.5-.34.5-.63 0-.05-.01-.11-.02-.16a2.4 2.4 0 0 1-.06-.55zm1.79 2.93c-.35-.08-.7.13-.78.48-.01.05-.02.1-.02.15 0 .29.2.56.5.63.27.07.56.1.86.1h.65c.36 0 .65-.29.65-.65s-.29-.65-.65-.65h-.65c-.2 0-.38-.02-.56-.06m10.61.63c0-.05-.01-.1-.02-.15a.646.646 0 0 0-.78-.48c-.18.04-.36.06-.56.06h-.65c-.36 0-.65.29-.65.65s.29.65.65.65h.65c.3 0 .59-.03.86-.1.3-.07.5-.34.5-.63"/></g></svg>