<svg xmlns="http://www.w3.org/2000/svg" fill="none" viewBox="0 0 24 24" focusable="false"><path fill="#717681" d="M16.625 18.68q-.135.015-.276.015h-.657a.65.65 0 1 0 0 1.3h.657a3.65 3.65 0 0 0 3.545-2.777l.004-.014a3.7 3.7 0 0 0 .101-.859V7.65a3.7 3.7 0 0 0-.101-.858l-.018-.062a3.66 3.66 0 0 0-2.559-2.59 1 1 0 0 0-.113-.038A3.7 3.7 0 0 0 16.349 4h-.657a.65.65 0 1 0 0 1.3h.19q.055.01.111.01h.356a2.35 2.35 0 0 1 2.35 2.35v8.685a2.35 2.35 0 0 1-2.074 2.334M7.096 5.365q.266-.064.554-.065h.658a.65.65 0 0 0 0-1.3H7.65q-.443 0-.858.102a.65.65 0 1 0 .304 1.263M11.342 4a.65.65 0 1 0 0 1.3h1.315a.65.65 0 1 0 0-1.3zM5.365 7.096a.65.65 0 1 0-1.263-.304A3.7 3.7 0 0 0 4 7.65v.657a.65.65 0 1 0 1.3 0V7.65q.001-.287.065-.554M5.3 11.34a.65.65 0 1 0-1.3 0v1.315a.65.65 0 0 0 1.3 0zM5.3 15.688a.65.65 0 1 0-1.3 0v.657q0 .444.102.859a.65.65 0 0 0 1.263-.305 2.4 2.4 0 0 1-.065-.554zM7.096 18.63a.65.65 0 1 0-.304 1.264q.415.1.858.101h.658a.65.65 0 1 0 0-1.3H7.65q-.287 0-.554-.065M11.342 18.695a.65.65 0 1 0 0 1.3h1.315a.65.65 0 1 0 0-1.3zM11.994 9.571a.65.65 0 0 1-.65-.65V7.726a.65.65 0 0 1 1.3 0v1.195a.65.65 0 0 1-.65.65"/><path fill="#717681" d="M15.072 11.348a.65.65 0 0 0 0 1.3h1.196a.65.65 0 1 0 0-1.3zM11.994 16.917a.65.65 0 0 1-.65-.65v-1.195a.65.65 0 0 1 1.3 0v1.195a.65.65 0 0 1-.65.65M7.72 11.348a.65.65 0 1 0 0 1.3h1.197a.65.65 0 1 0 0-1.3z"/></svg>