<svg xmlns="http://www.w3.org/2000/svg" fill="none" viewBox="0 0 24 24" focusable="false"><path fill="#717681" d="M7.55 5.309q.055-.003.109-.003h.657a.65.65 0 0 0 0-1.3h-.657q-.054 0-.108.002V4H7a3 3 0 0 0-3 3v10a3 3 0 0 0 3 3h.55l.109.002h.657a.65.65 0 0 0 0-1.3h-.657q-.055 0-.108-.003v-6.07a.7.7 0 0 0 .178.025h1.195a.65.65 0 1 0 0-1.3H7.729a.7.7 0 0 0-.178.025zM11.348 4.006a.65.65 0 1 0 0 1.3h1.314a.65.65 0 1 0 0-1.3zM15.695 4.006a.65.65 0 1 0 0 1.3h.657q.287 0 .553.066a.65.65 0 0 0 .305-1.264 3.7 3.7 0 0 0-.858-.102zM19.9 6.798a.65.65 0 1 0-1.264.305q.065.266.066.553v.657a.65.65 0 1 0 1.3 0v-.657q0-.443-.102-.858M20.002 11.347a.65.65 0 1 0-1.3 0v1.314a.65.65 0 1 0 1.3 0zM20.002 15.694a.65.65 0 1 0-1.3 0v.658q0 .287-.066.553a.65.65 0 1 0 1.264.305q.101-.415.102-.858zM17.21 19.9a.65.65 0 0 0-.305-1.264 2.4 2.4 0 0 1-.553.066h-.657a.65.65 0 1 0 0 1.3h.657q.443 0 .858-.102M11.348 18.702a.65.65 0 1 0 0 1.3h1.314a.65.65 0 0 0 0-1.3zM12 9.578a.65.65 0 0 1-.65-.65V7.733a.65.65 0 1 1 1.3 0v1.195a.65.65 0 0 1-.65.65M15.076 11.354a.65.65 0 1 0 0 1.3h1.195a.65.65 0 1 0 0-1.3zM12 16.923a.65.65 0 0 1-.65-.65v-1.195a.65.65 0 1 1 1.3 0v1.195a.65.65 0 0 1-.65.65"/></svg>