<svg xmlns="http://www.w3.org/2000/svg" fill="none" viewBox="0 0 24 24" focusable="false"><path fill="#717681" d="M7.654 18.695a2.35 2.35 0 0 1-2.326-2.35v-.354a.7.7 0 0 0-.03-.193v-.11a.65.65 0 1 0-1.298 0v.657q0 .444.102.859a.7.7 0 0 0 .08.193 3.66 3.66 0 0 0 2.503 2.462 1 1 0 0 0 .104.035q.415.1.858.101h8.707A3.65 3.65 0 0 0 20 16.345v-.354a.7.7 0 0 0-.016-.143v-.16a.65.65 0 1 0-1.299 0v.657q0 .288-.065.554a.7.7 0 0 0-.017.123 2.35 2.35 0 0 1-1.65 1.596l-.062.012a2.4 2.4 0 0 1-.553.065H7.654M7.094 5.365q.264-.064.553-.065h.656a.65.65 0 0 0 0-1.3h-.656a3.7 3.7 0 0 0-.858.102.65.65 0 0 0 .305 1.263M11.335 4a.65.65 0 0 0 0 1.3h1.314a.65.65 0 0 0 0-1.3zM15.68 4a.65.65 0 0 0 0 1.3h.658q.287.001.553.065a.65.65 0 1 0 .304-1.263A3.7 3.7 0 0 0 16.338 4zM5.364 7.096a.65.65 0 0 0-1.262-.304A3.7 3.7 0 0 0 4 7.65v.657a.65.65 0 1 0 1.299 0V7.65q0-.287.065-.554M19.883 6.792a.65.65 0 1 0-1.263.304q.065.266.066.554v.657a.65.65 0 1 0 1.298 0V7.65a3.7 3.7 0 0 0-.101-.858M19.984 11.34a.65.65 0 1 0-1.299 0v1.315a.65.65 0 1 0 1.3 0zM5.299 11.34a.65.65 0 1 0-1.299 0v1.315a.65.65 0 1 0 1.299 0zM11.337 8.921a.65.65 0 1 0 1.299 0V7.726a.65.65 0 1 0-1.299 0zM14.412 11.998c0-.36.29-.65.65-.65h1.194a.65.65 0 0 1 0 1.3h-1.195a.65.65 0 0 1-.649-.65"/><path fill="#717681" d="M11.337 16.267a.65.65 0 1 0 1.299 0v-1.195a.65.65 0 1 0-1.299 0zM7.068 11.998c0-.36.29-.65.65-.65h1.194a.65.65 0 0 1 0 1.3H7.717a.65.65 0 0 1-.65-.65"/></svg>