<svg xmlns="http://www.w3.org/2000/svg" fill="none" viewBox="0 0 24 24" focusable="false"><defs><clipPath id="Border_Clear_Outline_svg__a"><path fill="#fff" fill-opacity="0" d="M0 24h24V0H0z"/></clipPath></defs><g clip-path="url(#Border_Clear_Outline_svg__a)"><path fill="#717681" fill-rule="evenodd" d="M7.65 5.3c-.2 0-.38.02-.56.06-.35.08-.7-.13-.78-.48a.641.641 0 0 1 .48-.78c.27-.07.56-.1.86-.1h.65c.36 0 .65.29.65.64 0 .36-.29.66-.65.66zm3.04-.66c0-.35.29-.64.65-.64h1.31c.36 0 .65.29.65.64 0 .36-.29.66-.65.66h-1.31c-.36 0-.65-.3-.65-.66m4.35 0c0-.35.29-.64.65-.64h.65c.3 0 .59.03.86.1a.641.641 0 0 1 .48.78c-.08.35-.43.56-.78.48a2.53 2.53 0 0 0-.56-.06h-.65c-.36 0-.65-.3-.65-.66M4.88 6.31c.3.07.5.34.5.63 0 .05-.01.1-.02.15-.04.18-.06.36-.06.55v.66c0 .36-.3.65-.65.65-.36 0-.65-.29-.65-.65v-.66c0-.29.03-.58.1-.85.08-.35.43-.57.78-.48m14.23 0c.35-.09.7.13.78.48.07.27.11.56.11.85v.66a.655.655 0 0 1-1.31 0v-.66c0-.19-.02-.37-.06-.55-.01-.05-.02-.1-.02-.15 0-.29.2-.56.5-.63m-7.12 3.26c-.36 0-.65-.29-.65-.65v-1.2c0-.36.29-.65.65-.65.36 0 .65.29.65.65v1.2c0 .36-.29.65-.65.65m7.35 1.12c.36 0 .66.29.66.65v1.31a.655.655 0 0 1-1.31 0v-1.31c0-.36.3-.65.65-.65m-14.69 0c.35 0 .65.29.65.65v1.31c0 .36-.3.65-.65.65-.36 0-.65-.29-.65-.65v-1.31c0-.36.29-.65.65-.65m3.07.65h1.19c.36 0 .65.29.65.65 0 .36-.29.65-.65.65H7.72c-.36 0-.65-.29-.65-.65 0-.36.29-.65.65-.65m7.35 0h1.19c.36 0 .65.29.65.65 0 .36-.29.65-.65.65h-1.19c-.36 0-.65-.29-.65-.65 0-.36.29-.65.65-.65m-3.08 5.57c-.36 0-.65-.29-.65-.65v-1.19c0-.36.29-.65.65-.65.36 0 .65.29.65.65v1.19c0 .36-.29.65-.65.65m7.35-1.88c.36 0 .66.29.66.65v.66c0 .3-.04.58-.11.86a.65.65 0 0 1-1.28-.15c0-.05.01-.1.02-.16.04-.17.06-.36.06-.55v-.66c0-.36.3-.65.65-.65m-14.69 0c.35 0 .65.29.65.65v.66c0 .19.02.38.06.55.01.06.02.11.02.16a.65.65 0 0 1-1.28.15c-.07-.28-.1-.56-.1-.86v-.66c0-.36.29-.65.65-.65m1.66 4.07c.08-.34.43-.56.78-.48.18.05.36.07.56.07h.65c.36 0 .65.29.65.65 0 .36-.29.65-.65.65h-.65c-.3 0-.59-.03-.86-.1a.65.65 0 0 1-.5-.63c0-.05.01-.1.02-.16m11.37 0c.01.06.02.11.02.16 0 .29-.2.56-.5.63-.27.07-.56.1-.86.1h-.65c-.36 0-.65-.29-.65-.65 0-.36.29-.65.65-.65h.65c.2 0 .38-.02.56-.07.35-.08.7.14.78.48m-6.99.24c0-.36.29-.65.65-.65h1.31c.36 0 .65.29.65.65 0 .36-.29.65-.65.65h-1.31c-.36 0-.65-.29-.65-.65"/></g></svg>