<svg xmlns="http://www.w3.org/2000/svg" fill="none" viewBox="0 0 24 24" focusable="false"><path fill="#74767B" fill-rule="evenodd" d="M7.65 5.29c-.2 0-.38.03-.56.07-.35.08-.7-.13-.78-.48a.641.641 0 0 1 .48-.78c.27-.07.56-.1.86-.1h.65c.36 0 .65.29.65.64 0 .36-.29.65-.65.65zm7.39-.65c0-.35.29-.64.65-.64h.65c.3 0 .59.03.86.1a.64.64 0 0 1 .48.78c-.08.35-.43.56-.78.48-.18-.04-.36-.07-.56-.07h-.65c-.36 0-.65-.29-.65-.65m-2.38 14.69c0 .36-.29.65-.65.65s-.65-.29-.65-.65v-6.69H4.65c-.36 0-.65-.29-.65-.65s.29-.65.65-.65h6.71V4.65c0-.36.29-.65.65-.65s.65.29.65.65v6.69h6.68c.36 0 .65.29.65.65s-.29.65-.65.65h-6.68zM4.88 6.31c.3.07.5.34.5.63 0 .05-.01.1-.02.15-.04.18-.06.36-.06.55v.66c0 .36-.3.65-.65.65-.36 0-.65-.29-.65-.65v-.66c0-.29.03-.58.1-.85.08-.35.43-.57.78-.48m14.23 0c.35-.09.7.13.78.48.07.27.11.56.11.85v.66a.655.655 0 0 1-1.31 0v-.66c0-.19-.02-.37-.06-.55-.01-.05-.02-.1-.02-.15 0-.29.2-.56.5-.63m.23 8.72c.36 0 .66.29.66.65v.66c0 .3-.04.58-.11.86a.65.65 0 0 1-1.28-.15c0-.05.01-.1.02-.16.04-.17.06-.36.06-.55v-.66c0-.36.3-.65.65-.65m-14.69 0c.35 0 .65.29.65.65v.66c0 .19.02.38.06.55.01.06.02.11.02.16a.65.65 0 0 1-1.28.15c-.07-.28-.1-.56-.1-.86v-.66c0-.36.29-.65.65-.65m1.66 4.07c.08-.34.43-.56.78-.48.18.05.36.07.56.07h.65c.36 0 .65.29.65.65s-.29.65-.65.65h-.65c-.3 0-.59-.03-.86-.1a.65.65 0 0 1-.5-.63c0-.05.01-.1.02-.16m11.37 0c.01.06.02.11.02.16 0 .29-.2.56-.5.63-.27.07-.56.1-.86.1h-.65c-.36 0-.65-.29-.65-.65s.29-.65.65-.65h.65c.2 0 .38-.02.56-.07.35-.08.7.14.78.48"/></svg>