<svg xmlns="http://www.w3.org/2000/svg" width="24" height="24" fill="none"><path fill="#717681" d="M7.652 5.3a2.36 2.36 0 0 0-.554.065.65.65 0 0 1-.305-1.263A3.66 3.66 0 0 1 7.652 4h.657a.65.65 0 1 1 0 1.3h-.657ZM10.692 4.65a.65.65 0 0 1 .65-.65h1.315a.65.65 0 1 1 0 1.3h-1.314a.65.65 0 0 1-.65-.65ZM15.04 4.65a.65.65 0 0 1 .651-.65h.657c.295 0 .583.035.86.102a.65.65 0 1 1-.306 1.263 2.36 2.36 0 0 0-.554-.065h-.657a.65.65 0 0 1-.65-.65ZM4.886 6.312a.65.65 0 0 1 .48.784 2.357 2.357 0 0 0-.065.554v.657a.65.65 0 0 1-1.301 0V7.65c0-.295.035-.582.102-.858a.65.65 0 0 1 .784-.48ZM19.114 6.312c.349-.084.7.13.784.48.067.276.102.563.102.858v.657a.65.65 0 0 1-1.3 0V7.65c0-.191-.023-.377-.066-.554a.65.65 0 0 1 .48-.784ZM19.35 10.69c.359 0 .65.292.65.65v1.315a.65.65 0 0 1-1.3 0V11.34a.65.65 0 0 1 .65-.65ZM4.65 10.69c.36 0 .65.292.65.65v1.315a.65.65 0 0 1-1.3 0V11.34a.65.65 0 0 1 .65-.65ZM19.35 15.038c.359 0 .65.291.65.65v.657c0 .295-.035.583-.102.859a.65.65 0 0 1-1.264-.305c.043-.177.065-.362.065-.554v-.657a.65.65 0 0 1 .65-.65ZM4.65 15.038c.36 0 .65.291.65.65v.657c0 .192.023.377.066.554a.65.65 0 0 1-1.264.305A3.656 3.656 0 0 1 4 16.345v-.657a.65.65 0 0 1 .65-.65ZM6.313 19.11a.65.65 0 0 1 .785-.48c.177.043.362.065.554.065h.657a.65.65 0 1 1 0 1.3h-.657c-.295 0-.583-.035-.86-.101a.65.65 0 0 1-.479-.785ZM17.687 19.11a.65.65 0 0 1-.48.784 3.663 3.663 0 0 1-.859.101h-.657a.65.65 0 1 1 0-1.3h.657c.192 0 .377-.022.554-.065.35-.084.7.13.785.48ZM10.692 19.345a.65.65 0 0 1 .65-.65h1.315a.65.65 0 1 1 0 1.3h-1.314a.65.65 0 0 1-.65-.65ZM11.995 9.572a.65.65 0 0 1-.65-.65V7.726a.65.65 0 0 1 1.3 0v1.196a.65.65 0 0 1-.65.65ZM15.072 11.348a.65.65 0 1 0 0 1.3h1.196a.65.65 0 1 0 0-1.3h-1.196ZM11.995 16.92a.65.65 0 0 1-.65-.65v-1.196a.65.65 0 0 1 1.3 0v1.195a.65.65 0 0 1-.65.65ZM7.722 11.348a.65.65 0 1 0 0 1.3h1.195a.65.65 0 1 0 0-1.3H7.722Z"/></svg>