<svg xmlns="http://www.w3.org/2000/svg" fill="none" viewBox="0 0 24 24" focusable="false"><defs><clipPath id="Cells_Merge_Outline_svg__a"><path fill="#fff" fill-opacity="0" d="M0 24h24V0H0z"/></clipPath></defs><g clip-path="url(#Cells_Merge_Outline_svg__a)"><path fill="#717681" fill-rule="evenodd" d="M7 4C5.34 4 4 5.34 4 7v10c0 1.66 1.34 3 3 3h10c1.65 0 3-1.34 3-3V7c0-1.66-1.35-3-3-3zm4.34 1.29H7c-.94 0-1.71.77-1.71 1.71v1.9h6.05zm1.3 0H17c.93 0 1.7.77 1.7 1.71v1.9h-6.06zm-7.35 8.5V10.2H18.7v3.59zm0 1.3V17c0 .94.77 1.7 1.71 1.7h4.32v-3.61zm7.33 0v3.61H17c.93 0 1.7-.76 1.7-1.7v-1.91z"/></g></svg>