<svg xmlns="http://www.w3.org/2000/svg" fill="none" viewBox="0 0 24 24" focusable="false"><defs><clipPath id="Change_field_Outline_svg__a"><path fill="#fff" fill-opacity="0" d="M0 24h24V0H0z"/></clipPath></defs><g clip-path="url(#Change_field_Outline_svg__a)"><path fill="#717681" fill-rule="evenodd" d="M15.34 7h-1.3c0-1.66-1.35-3-3.01-3H6.01C4.34 4 3 5.34 3 7v10c0 1.65 1.34 3 3.01 3h5.02a3.01 3.01 0 0 0 3.01-3V8.29h1.3c.36 0 .66-.29.66-.64 0-.36-.3-.65-.66-.65m-4.31-1.71H6.01c-.94 0-1.71.77-1.71 1.71v2.97h8.44V8.29H6.48c-.36 0-.66-.29-.66-.64 0-.36.3-.65.66-.65h6.26c0-.94-.77-1.71-1.71-1.71m4.48 10.2a.666.666 0 0 1-.21-.48c.01-.19.09-.36.23-.48l2.23-1.96a.65.65 0 0 1 .92.05c.24.27.21.68-.06.92l-1 .88h1.42c.36 0 .65-.29.65-.65V8.96c0-.35-.29-.65-.65-.65H18c-.36 0-.65-.29-.65-.65 0-.35.29-.65.65-.65h1.04c1.08 0 1.96.88 1.96 1.95v4.81c0 1.08-.88 1.95-1.96 1.95h-1.36l.96.89c.26.24.27.65.03.92a.65.65 0 0 1-.92.03zm-2.77-4.22H4.3V17c0 .93.77 1.7 1.71 1.7h5.02c.94 0 1.71-.77 1.71-1.7zm-6.92 2.35c0 .36.3.65.66.65h4.08c.36 0 .66-.29.66-.65 0-.36-.3-.65-.66-.65H6.48c-.36 0-.66.29-.66.65m0 2.72c0 .36.3.65.66.65h4.08c.36 0 .66-.29.66-.65 0-.36-.3-.65-.66-.65H6.48c-.36 0-.66.29-.66.65"/></g></svg>