<svg xmlns="http://www.w3.org/2000/svg" fill="none" viewBox="0 0 24 24" focusable="false"><defs><clipPath id="Column_Insert_after_Outline_svg__a"><path fill="#fff" fill-opacity="0" d="M0 24h24V0H0z"/></clipPath></defs><g clip-path="url(#Column_Insert_after_Outline_svg__a)"><path fill="#717681" fill-rule="evenodd" d="M15.29 12.66c-.36 0-.65-.29-.65-.65 0-.36.29-.66.65-.66h1.38V9.97c0-.36.29-.66.65-.66.36 0 .65.3.65.66v1.38h1.37c.36 0 .66.3.66.66 0 .36-.3.65-.66.65h-1.37v1.39c0 .36-.29.65-.65.65-.36 0-.65-.29-.65-.65v-1.39zm-4.96 6.03H7.65c-1.3 0-2.35-1.06-2.35-2.37V7.67c0-1.31 1.05-2.37 2.35-2.37h2.68zM11.64 5.3h2.99c1.13 0 2.04.92 2.04 2.05 0 .36.29.65.65.65.36 0 .65-.29.65-.65C17.97 5.5 16.48 4 14.63 4H7.65C5.63 4 4 5.64 4 7.67v8.65C4 18.35 5.63 20 7.65 20h7.02c1.82 0 3.3-1.49 3.3-3.32 0-.36-.29-.66-.65-.66-.36 0-.65.3-.65.66 0 1.11-.9 2.01-2 2.01h-3.03z"/></g></svg>