<svg xmlns="http://www.w3.org/2000/svg" fill="none" viewBox="0 0 24 24" focusable="false"><path fill="#717681" d="M4.25 6.655c0-.362.291-.655.65-.655h5.035c.359 0 .65.293.65.655a.653.653 0 0 1-.65.656H4.9a.653.653 0 0 1-.65-.656M4.25 12c0-.362.291-.655.65-.655h5.035c.359 0 .65.293.65.655a.653.653 0 0 1-.65.655H4.9A.653.653 0 0 1 4.25 12M4.9 16.689a.653.653 0 0 0-.65.656c0 .361.291.655.65.655h5.035c.359 0 .65-.294.65-.655a.653.653 0 0 0-.65-.656zM13.403 6.655c0-.362.291-.655.651-.655H19.1c.36 0 .651.293.651.655a.653.653 0 0 1-.651.655h-5.045a.653.653 0 0 1-.651-.655M13.403 11.998c0-.362.291-.655.651-.655H19.1c.36 0 .651.293.651.655a.653.653 0 0 1-.651.655h-5.045a.653.653 0 0 1-.651-.655M14.054 16.685a.653.653 0 0 0-.65.656c0 .362.29.655.65.655H19.1c.36 0 .651-.293.651-.655a.653.653 0 0 0-.651-.656z"/></svg>