<svg xmlns="http://www.w3.org/2000/svg" fill="none" viewBox="0 0 24 24" focusable="false"><path d="M0 0H24V24H0z"/><path fill="#74767B" fill-rule="evenodd" d="M15.4879 19.9352C15.2034 20.1541 14.7953 20.1009 14.5764 19.8164L11.9064 16.3461L11.9064 16.7289C11.9064 17.4469 11.3243 18.0289 10.6064 18.0289L5.20638 18.0289C4.48841 18.0289 3.90638 17.4469 3.90638 16.7289L3.90638 5.94832L0.134867 1.0464C-0.0840389 0.761879 -0.0308502 0.353773 0.253667 0.134867C0.538185 -0.084039 0.946291 -0.0308501 1.1652 0.253668L15.6067 19.0237C15.8257 19.3082 15.7725 19.7163 15.4879 19.9352ZM5.20638 7.63796L5.20638 16.7289L10.6064 16.7289L10.6064 14.6565L5.20638 7.63796ZM11.9064 3.32892L11.9064 12.0839L10.6064 10.3942L10.6064 3.32892L5.20638 3.32892L5.20638 3.37573L4.39119 2.31621C4.61416 2.1365 4.89771 2.02892 5.20638 2.02892L10.6064 2.02892C11.3243 2.02892 11.9064 2.61095 11.9064 3.32892Z" transform="rotate(-180 9.87 11.035)"/></svg>