<svg xmlns="http://www.w3.org/2000/svg" fill="none" viewBox="0 0 24 24" focusable="false"><defs><clipPath id="Columns_Outline_svg__a"><path fill="#fff" fill-opacity="0" d="M0 0h24v24H0z"/></clipPath></defs><g clip-path="url(#Columns_Outline_svg__a)"><path fill="#717681" fill-rule="evenodd" d="M4.89 6c-.35 0-.64.29-.64.65 0 .36.29.66.64.66h5.04c.36 0 .65-.3.65-.66 0-.36-.29-.65-.65-.65zm9.16 0c-.36 0-.65.29-.65.65 0 .36.29.66.65.66h5.04c.36 0 .66-.3.66-.66 0-.36-.3-.65-.66-.65zm-.65 5.99c0-.36.29-.65.65-.65h5.04c.36 0 .66.29.66.65 0 .36-.3.66-.66.66h-5.04c-.36 0-.65-.3-.65-.66m-8.51-.65c-.35 0-.64.29-.64.66 0 .36.29.65.64.65h5.04c.36 0 .65-.29.65-.65a.65.65 0 0 0-.65-.66zm8.51 6c0-.37.29-.66.65-.66h5.04c.36 0 .66.29.66.66 0 .36-.3.65-.66.65h-5.04c-.36 0-.65-.29-.65-.65m-8.5-.66c-.36 0-.65.3-.65.66 0 .36.29.66.65.66h5.03c.36 0 .65-.3.65-.66 0-.36-.29-.66-.65-.66z"/></g></svg>