<svg xmlns="http://www.w3.org/2000/svg" fill="none" viewBox="0 0 24 24" focusable="false"><defs><clipPath id="Delete_Table_Outline_svg__a"><path fill="#fff" fill-opacity="0" d="M0 0h24v24H0z"/></clipPath></defs><g clip-path="url(#Delete_Table_Outline_svg__a)"><path fill="#717681" fill-rule="evenodd" d="M4.99 2.13c.29-.22.69-.17.91.12l1.39 1.8H17c1.65 0 3 1.34 3 3v10.07c0 .86-.37 1.65-.96 2.2l1.28 1.66c.21.28.16.69-.12.91a.64.64 0 0 1-.91-.12L4.87 3.04a.652.652 0 0 1 .12-.91m13.25 16.15c.28-.31.46-.72.46-1.16v-4.46h-4.79zm-5.33-6.92-.26-.35V5.35H17c.93 0 1.7.76 1.7 1.7v4.31zm-1.56-2.03L8.29 5.35h3.06zM4 7.05c0-.78.29-1.49.78-2.02l.81 1.06c-.19.27-.3.6-.3.96v4.31h4.36l1 1.3H5.29v4.46c0 .93.77 1.7 1.71 1.7h4.35v-5.25l1.3 1.69v3.56h2.73l1 1.3H7c-1.66 0-3-1.35-3-3z"/></g></svg>