<svg xmlns="http://www.w3.org/2000/svg" fill="none" viewBox="0 0 24 24" focusable="false"><path d="M0 0H24V24H0z"/><path fill="#74767B" fill-rule="evenodd" d="M15.4575 19.8957C15.173 20.1146 14.7649 20.0614 14.546 19.7769L13.1603 17.9759L3.45508 17.9759C1.79822 17.9759 0.455079 16.6327 0.455079 14.9759L0.455079 4.91007C0.455079 4.04101 0.824613 3.25826 1.41512 2.71037L0.134867 1.0464C-0.0840389 0.761879 -0.0308501 0.353774 0.253667 0.134868C0.538185 -0.0840387 0.94629 -0.0308506 1.1652 0.253667L15.5763 18.9842C15.7953 19.2687 15.7421 19.6768 15.4575 19.8957ZM2.21383 3.74847C1.92929 4.05239 1.75508 4.46089 1.75508 4.91007L1.75508 9.36527L6.53536 9.36527L2.21383 3.74847ZM7.53557 10.6653L7.80151 11.0109L7.80151 16.6759L3.45508 16.6759C2.51619 16.6759 1.75508 15.9148 1.75508 14.9759L1.75508 10.6653L7.53557 10.6653ZM9.10151 12.7006L12.1601 16.6759L9.10151 16.6759L9.10151 12.7006ZM16.4551 14.9759C16.4551 15.7541 16.1588 16.463 15.6728 16.9962L14.8577 15.9367C15.0453 15.6634 15.1551 15.3324 15.1551 14.9759L15.1551 10.6653L10.8019 10.6653L9.80167 9.36527L15.1551 9.36527L15.1551 4.91007C15.1551 3.97118 14.394 3.21007 13.4551 3.21007L9.10151 3.21007L9.10151 8.45526L7.80151 6.76562L7.80151 3.21007L5.06589 3.21007L4.06568 1.91007L13.4551 1.91007C15.1119 1.91007 16.4551 3.25321 16.4551 4.91007L16.4551 14.9759Z" transform="rotate(-180 10.228 11.015)"/></svg>