<svg xmlns="http://www.w3.org/2000/svg" fill="none" viewBox="0 0 24 24" focusable="false"><path fill="#74767B" fill-rule="evenodd" d="M0.253668 19.8202C0.538185 20.0391 0.946291 19.9859 1.1652 19.7014L2.49252 17.9762L15.4315 17.9762C15.7905 17.9762 16.0815 17.6852 16.0815 17.3262C16.0815 16.9672 15.7905 16.6762 15.4315 16.6762L9.60694 16.6762L8.54495 10.1097L15.5182 1.0464C15.7371 0.76188 15.6839 0.353773 15.3994 0.134867C15.1149 -0.084039 14.7068 -0.0308499 14.4879 0.253667L0.134867 18.9087C-0.084039 19.1932 -0.0308502 19.6013 0.253668 19.8202ZM7.45679 11.524L3.49273 16.6762L8.29004 16.6762L7.45679 11.524ZM7.97789 6.60348L6.88973 8.01778L6.01611 2.61596C5.9588 2.26158 6.19962 1.92783 6.554 1.87052C6.90838 1.81321 7.24212 2.05403 7.29943 2.40841L7.97789 6.60348Z" transform="matrix(1 0 0 -1 3.913 21.979)"/></svg>