<svg xmlns="http://www.w3.org/2000/svg" fill="none" viewBox="0 0 24 24" focusable="false"><path fill="#717681" fill-rule="evenodd" d="M4.998 2.135a.65.65 0 0 1 .911.119l1.386 1.8H17a3 3 0 0 1 3 3v10.067c0 .869-.37 1.651-.96 2.2l1.28 1.663a.65.65 0 0 1-1.03.793L4.879 3.047a.65.65 0 0 1 .119-.912M18.24 18.282c.285-.304.459-.712.459-1.161v-4.456h-4.78zm-5.321-6.917-.266-.345V5.355H17a1.7 1.7 0 0 1 1.7 1.7v4.31zM11.353 9.33 8.295 5.355h3.059zM4 7.055c0-.778.296-1.487.782-2.02l.815 1.059a1.692 1.692 0 0 0-.297.96v4.311h4.353l1 1.3H5.3v4.456a1.7 1.7 0 0 0 1.7 1.7h4.354v-5.246l1.3 1.69v3.556h2.735l1 1.3H7a3 3 0 0 1-3-3z" clip-rule="evenodd"/></svg>