<svg xmlns="http://www.w3.org/2000/svg" fill="none" viewBox="0 0 24 24" focusable="false"><path fill="#74767B" fill-rule="evenodd" d="M15.3488 16C14.9891 16 14.6975 15.7094 14.6975 15.3509L14.6975 0.649083C14.6975 0.290605 14.9891 0 15.3488 0C15.7084 0 16 0.290604 16 0.649083L16 15.3509C16 15.7094 15.7084 16 15.3488 16ZM1.30249 7.3512L1.30249 0.649085C1.30249 0.290606 1.01092 -1.13687e-13 0.651244 1.90466e-06C0.291572 1.95167e-06 0 0.290606 0 0.649085L2.03044e-06 15.3509C2.0776e-06 15.7094 0.291574 16 0.651246 16C1.01092 16 1.30249 15.7094 1.30249 15.3509L1.30249 8.64936L12.3837 8.64936C12.7433 8.64936 13.0349 8.35876 13.0349 8.00028C13.0349 7.6418 12.7433 7.35119 12.3837 7.35119L1.30249 7.3512Z" transform="rotate(-180 10 10)"/></svg>