<svg xmlns="http://www.w3.org/2000/svg" fill="none" viewBox="0 0 24 24" focusable="false"><defs><clipPath id="Element_Grow_Horizontally_Outline_svg__a"><path fill="#fff" fill-opacity="0" d="M0 24h24V0H0z"/></clipPath></defs><g clip-path="url(#Element_Grow_Horizontally_Outline_svg__a)"><path fill="#717681" fill-rule="evenodd" d="M5.29 4.64a.644.644 0 0 0-1.29 0v14.7c0 .36.29.65.64.65.36 0 .65-.29.65-.65zm14.51 6.9c.26.25.26.67 0 .92l-3.56 3.56c-.25.25-.66.25-.92 0a.658.658 0 0 1 0-.92l2.46-2.45H7.66c-.36 0-.65-.29-.65-.65 0-.36.29-.65.65-.65h10.12L15.32 8.9a.658.658 0 0 1 0-.92c.26-.25.67-.25.92 0zM11.99 4c.36 0 .65.29.65.65v4.71c0 .36-.29.65-.65.65-.36 0-.65-.29-.65-.65V4.65c0-.36.29-.65.65-.65m.65 10.64c0-.36-.29-.65-.65-.65-.36 0-.65.29-.65.65v4.71c0 .35.29.65.65.65.36 0 .65-.3.65-.65z"/></g></svg>