<svg xmlns="http://www.w3.org/2000/svg" fill="none" viewBox="0 0 24 24" focusable="false"><defs><clipPath id="Element_Fixed_Outline_svg__a"><path fill="#fff" fill-opacity="0" d="M0 0h24v24H0z"/></clipPath></defs><g clip-path="url(#Element_Fixed_Outline_svg__a)"><path fill="#717681" fill-rule="evenodd" d="M4.65 4c.36 0 .65.29.65.64v14.71c0 .35-.29.65-.65.65-.36 0-.65-.3-.65-.65V4.64c0-.35.29-.64.65-.64m14.04 8.64v6.71c0 .35.29.65.65.65.36 0 .66-.3.66-.65V4.64c0-.35-.3-.64-.66-.64-.36 0-.65.29-.65.64v6.71H7.61c-.36 0-.65.29-.65.64 0 .36.29.65.65.65z"/></g></svg>