<svg xmlns="http://www.w3.org/2000/svg" fill="none" viewBox="0 0 24 24" focusable="false"><path fill="#717681" fill-rule="evenodd" d="M5.3 4.649a.65.65 0 0 0-1.3 0v14.693a.65.65 0 0 0 1.3 0zm14.51 6.897a.648.648 0 0 1 0 .917l-3.562 3.557a.65.65 0 0 1-.919-.917l2.453-2.45H7.662a.65.65 0 1 1 0-1.297h10.12l-2.453-2.45a.648.648 0 1 1 .919-.917zm-7.815-7.537c.359 0 .65.29.65.649v4.708a.65.65 0 0 1-1.3 0V4.658a.65.65 0 0 1 .65-.649m.65 10.635a.65.65 0 0 0-1.3 0v4.707a.65.65 0 0 0 1.3 0z" clip-rule="evenodd"/></svg>