<svg xmlns="http://www.w3.org/2000/svg" fill="none" viewBox="0 0 24 24" focusable="false"><path fill="#717681" fill-rule="evenodd" d="M4.298 4.65A.65.65 0 0 0 3 4.65v14.7a.65.65 0 0 0 1.298 0V4.65ZM21 4.65a.65.65 0 0 0-1.298 0v14.7a.65.65 0 0 0 1.298 0V4.65ZM6.124 15.332 8.71 12.75a.65.65 0 0 1 .918.918l-1.558 1.558h6.197a2.347 2.347 0 0 0 2.347-2.347v-2.573a2.347 2.347 0 0 0-2.347-2.347h-4.22a.65.65 0 1 1 0-1.298h4.22a3.645 3.645 0 0 1 3.646 3.645v2.573a3.645 3.645 0 0 1-3.646 3.645H8.232l1.395 1.394a.65.65 0 1 1-.918.918l-2.585-2.584a.649.649 0 0 1 0-.918Z" clip-rule="evenodd"/></svg>