<svg xmlns="http://www.w3.org/2000/svg" fill="none" viewBox="0 0 24 24" focusable="false"><defs><clipPath id="Eraser_Solid_svg__a"><path fill="#fff" fill-opacity="0" d="M0 0h24v24H0z"/></clipPath></defs><g clip-path="url(#Eraser_Solid_svg__a)"><path fill="#717681" fill-rule="evenodd" d="m4.8 13.51 4.19-4.19 5.64 5.64-4.19 4.19c-.3.3-.69.46-1.08.49h-.25c-.39-.03-.78-.19-1.08-.49L4.8 15.91c-.67-.66-.67-1.74 0-2.4m11.67 1.45-4.69 4.68h4.64c.35 0 .65.29.65.65s-.3.65-.65.65H9.4c-.11.01-.23.01-.34 0h-.04c-.7-.05-1.38-.34-1.91-.87l-3.23-3.24a2.98 2.98 0 0 1 0-4.24l8.79-8.8c.76-.76 1.84-1.03 2.82-.79.52.12 1.02.39 1.42.79l3.24 3.24a3 3 0 0 1 0 4.24z"/></g></svg>