<svg xmlns="http://www.w3.org/2000/svg" width="24" height="24" fill="none"><path fill="#717681" fill-rule="evenodd" d="m15.997 4.719 3.237 3.237a1.7 1.7 0 0 1 0 2.404l-3.682 3.682L9.912 8.4l3.68-3.682a1.7 1.7 0 0 1 2.405 0ZM8.992 9.32 4.8 13.511a1.7 1.7 0 0 0 0 2.404l3.236 3.237c.3.3.683.464 1.074.493h.256c.392-.03.775-.194 1.074-.493l4.192-4.191-5.641-5.64Zm2.795 10.325 8.366-8.366a3 3 0 0 0 0-4.243L16.916 3.8a3 3 0 0 0-4.242 0L3.88 12.592a3 3 0 0 0 0 4.243l3.237 3.236a2.989 2.989 0 0 0 2.291.874h7.011a.65.65 0 0 0 0-1.3h-4.633Z" clip-rule="evenodd"/></svg>