<svg xmlns="http://www.w3.org/2000/svg" width="24" height="24" fill="none"><path fill="#717681" fill-rule="evenodd" d="m4.8 13.511 4.192-4.19 5.64 5.64-4.19 4.191c-.3.3-.683.464-1.075.493h-.255a1.694 1.694 0 0 1-1.075-.493l-3.236-3.237a1.7 1.7 0 0 1 0-2.404Zm11.671 1.45-4.684 4.684h4.633a.65.65 0 1 1 0 1.3H9.41a2.99 2.99 0 0 1-.388-.003 2.988 2.988 0 0 1-1.903-.87l-3.237-3.237a3 3 0 0 1 0-4.243L12.674 3.8a2.998 2.998 0 0 1 4.242 0l3.237 3.237a3 3 0 0 1 0 4.242l-3.682 3.682Z" clip-rule="evenodd"/></svg>