<svg xmlns="http://www.w3.org/2000/svg" fill="none" viewBox="0 0 24 24" focusable="false"><path d="M0 0H24V24H0z"/><path fill="#74767B" fill-rule="evenodd" d="M16.2312 7.43878L12.04 11.63L6.39913 5.98911L10.5903 1.79792C10.8898 1.49844 11.2732 1.33406 11.6648 1.30476L11.92 1.30476C12.3116 1.33406 12.695 1.49844 12.9945 1.79792L16.2312 5.03461C16.8951 5.6985 16.8951 6.77488 16.2312 7.43878ZM4.56075 5.98901L9.245 1.30476L4.61133 1.30476C4.25235 1.30476 3.96133 1.01375 3.96133 0.654764C3.96133 0.295779 4.25235 0.00476414 4.61133 0.00476411L11.6229 0.0047635C11.7379 -0.00170566 11.8532 -0.00158565 11.9682 0.00512354C11.9824 0.0055937 11.9966 0.00652186 12.0106 0.00789375C12.7041 0.0581533 13.3835 0.348415 13.9137 0.878679L17.1504 4.11538C18.322 5.28695 18.322 7.18644 17.1504 8.35801L8.35814 17.1503C7.59271 17.9157 6.51657 18.1811 5.53572 17.9463C5.01522 17.8218 4.52155 17.5564 4.11538 17.1503L0.878679 13.9136C-0.292894 12.742 -0.292892 10.8425 0.87868 9.67093L4.56068 5.98893L4.56075 5.98901Z" transform="rotate(180 10.516 10.475)"/></svg>