<svg xmlns="http://www.w3.org/2000/svg" fill="none" viewBox="0 0 24 24" focusable="false"><defs><clipPath id="Format_Paint_Solid_svg__a"><path fill="#fff" fill-opacity="0" d="M-.643 0h24v24h-24z"/></clipPath></defs><g clip-path="url(#Format_Paint_Solid_svg__a)"><path fill="#717681" fill-rule="evenodd" d="m11.9 6.61-.76-.46a2.995 2.995 0 0 0-3.66.45L7 7.08l-3.75 3.74a3.004 3.004 0 0 0-.05 4.19l5.5 5.81c.12.13.29.21.47.22.04.01.08.01.11.01h6.71c.36 0 .65-.29.65-.65s-.29-.65-.65-.65h-2.56l3.09-3.13.49-.49c.97-.97 1.16-2.48.45-3.66l-.51-.85c-.37-.62-.17-1.41.44-1.78l1.55-.93a3.003 3.003 0 0 0 .58-4.7l-.3-.29c-1.45-1.45-3.89-1.05-4.8.78l-.69 1.37c-.34.68-1.18.93-1.83.54M7.91 8l7.7 7.69.48-.48c.55-.55.65-1.4.25-2.07l-.51-.85c-.73-1.23-.34-2.83.9-3.57l1.54-.93c.95-.57 1.11-1.88.33-2.66l-.3-.29c-.82-.82-2.2-.6-2.72.44l-.69 1.37a2.59 2.59 0 0 1-3.66 1.07l-.76-.46a1.71 1.71 0 0 0-2.08.26z"/></g></svg>