<svg xmlns="http://www.w3.org/2000/svg" fill="none" viewBox="0 0 24 24" focusable="false"><defs><clipPath id="Format_Align_Justify_Outline_svg__a"><path fill="#fff" fill-opacity="0" d="M0 0h24v24H0z"/></clipPath></defs><g clip-path="url(#Format_Align_Justify_Outline_svg__a)"><path fill="#717681" fill-rule="evenodd" d="M4.64 5.5a.644.644 0 0 0 0 1.29h14.71c.35 0 .65-.29.65-.64 0-.36-.3-.65-.65-.65zm0 7.8c-.35 0-.64.29-.64.65 0 .35.29.65.64.65h14.71c.35 0 .65-.3.65-.65 0-.36-.3-.65-.65-.65zM4 10.05c0-.36.29-.65.64-.65h14.71c.35 0 .65.29.65.65 0 .35-.3.65-.65.65H4.64c-.35 0-.64-.3-.64-.65m.64 7.15a.644.644 0 0 0 0 1.29h14.71c.35 0 .65-.29.65-.64 0-.36-.3-.65-.65-.65z"/></g></svg>