<svg xmlns="http://www.w3.org/2000/svg" fill="none" viewBox="0 0 24 24" focusable="false"><path fill="#74767B" fill-rule="evenodd" d="m12.54 6.61-.76-.46a2.995 2.995 0 0 0-3.66.45l-.48.48-3.74 3.74a3.004 3.004 0 0 0-.06 4.19l5.5 5.81c.13.13.3.21.48.22.03.01.07.01.11.01h6.7c.36 0 .65-.29.65-.65s-.29-.65-.65-.65h-2.55l3.08-3.13.49-.49c.97-.97 1.16-2.48.45-3.66l-.51-.85c-.37-.62-.17-1.41.45-1.78l1.54-.93a3.003 3.003 0 0 0 .58-4.7l-.29-.29c-1.45-1.45-3.89-1.05-4.81.78l-.69 1.37c-.33.68-1.18.93-1.83.54M8.56 8l7.69 7.69.48-.48c.55-.55.66-1.4.26-2.07l-.51-.85c-.74-1.23-.34-2.83.89-3.57l1.55-.93c.94-.57 1.11-1.88.32-2.66l-.29-.29c-.82-.82-2.21-.6-2.73.44l-.68 1.37a2.604 2.604 0 0 1-3.67 1.07l-.76-.46c-.66-.4-1.52-.29-2.07.26z"/></svg>