<svg xmlns="http://www.w3.org/2000/svg" fill="none" viewBox="0 0 24 24" focusable="false"><defs><clipPath id="Hide_left_panel_Outline_svg__a"><path fill="#fff" fill-opacity="0" d="M0 0h24v24H0z"/></clipPath></defs><g clip-path="url(#Hide_left_panel_Outline_svg__a)"><path fill="#717681" fill-rule="evenodd" d="M10.1 16.7c.24.26.24.67-.02.92s-.67.24-.92-.02l-4.98-5.15a.646.646 0 0 1 0-.91l4.98-5.15c.25-.26.66-.27.92-.02s.26.66.02.92l-3.92 4.06h10.64c.36 0 .65.29.65.65s-.29.65-.65.65H6.18zm8.6 2.62c0 .37.29.68.65.68.35 0 .65-.31.65-.68V4.67c0-.37-.3-.67-.65-.67-.36 0-.65.3-.65.67z"/></g></svg>