<svg xmlns="http://www.w3.org/2000/svg" fill="none" viewBox="0 0 24 24" focusable="false"><path fill="#717681" fill-rule="evenodd" d="M20 17.85c0 .35-.3.65-.66.65H4.66c-.36 0-.65-.3-.65-.65 0-.36.29-.65.65-.65h14.68c.36 0 .66.29.66.65m0-7.8c0 .35-.3.65-.66.65h-6.72c-.36 0-.65-.3-.65-.65 0-.36.29-.65.65-.65h6.72c.36 0 .66.29.66.65m-.66 4.55c.36 0 .66-.3.66-.65 0-.36-.3-.65-.66-.65h-6.72c-.36 0-.65.29-.65.65 0 .35.29.65.65.65zM20 6.14c0 .36-.3.65-.66.65H4.66c-.36 0-.65-.29-.65-.65 0-.35.29-.64.65-.64h14.68c.36 0 .66.29.66.64M4.2 11.55a.62.62 0 0 0-.2.48c0 .18.08.36.22.48l2.22 1.96c.27.24.68.21.92-.06s.21-.68-.06-.91l-1.69-1.49 1.7-1.58a.65.65 0 0 0 .04-.92.65.65 0 0 0-.92-.03z"/></svg>