<svg xmlns="http://www.w3.org/2000/svg" fill="none" viewBox="0 0 24 24" focusable="false"><path fill="#717681" fill-rule="evenodd" d="M4 6.14c0-.35.29-.64.64-.64h14.69c.36 0 .65.29.65.64 0 .36-.29.65-.65.65H4.64c-.35 0-.64-.29-.64-.65m0 7.81c0-.36.29-.65.64-.65h6.74c.36 0 .65.29.65.65 0 .35-.29.65-.65.65H4.64c-.35 0-.64-.3-.64-.65m.64-4.56a.655.655 0 0 0 0 1.31h6.74a.655.655 0 0 0 0-1.31zM4 17.85c0-.36.29-.65.64-.65h14.69c.36 0 .65.29.65.65 0 .35-.29.65-.65.65H4.64c-.35 0-.64-.3-.64-.65m15.79-5.41c.13-.12.21-.3.21-.48a.72.72 0 0 0-.22-.48l-2.23-1.96a.64.64 0 0 0-.91.06c-.24.27-.21.68.05.91l1.69 1.49-1.7 1.58a.65.65 0 0 0-.03.92c.24.26.65.28.92.03z"/></svg>