<svg xmlns="http://www.w3.org/2000/svg" fill="none" viewBox="0 0 24 24" focusable="false"><path fill="#717681" fill-rule="evenodd" d="M20 17.85a.65.65 0 0 1-.65.65H4.668a.65.65 0 1 1 0-1.3H19.35c.359 0 .65.291.65.65m0-7.8a.65.65 0 0 1-.65.65h-6.723a.65.65 0 1 1 0-1.3h6.723c.359 0 .65.291.65.65m-.65 4.55a.65.65 0 1 0 0-1.3h-6.723a.65.65 0 1 0 0 1.3zM20 6.15a.65.65 0 0 1-.65.65H4.668a.65.65 0 1 1 0-1.3H19.35c.359 0 .65.291.65.65M4.207 11.551a.65.65 0 0 0 .013.964l2.226 1.961a.65.65 0 0 0 .86-.975L5.62 12.014l1.7-1.581a.65.65 0 1 0-.886-.952z" clip-rule="evenodd"/></svg>