<svg xmlns="http://www.w3.org/2000/svg" width="24" height="24" fill="none"><path fill="#717681" fill-rule="evenodd" d="M4 6.15c0-.359.29-.65.65-.65h14.683a.65.65 0 0 1 0 1.3H4.649A.65.65 0 0 1 4 6.15Zm0 7.8c0-.359.29-.65.65-.65h6.737a.65.65 0 0 1 0 1.3H4.65A.65.65 0 0 1 4 13.95Zm.65-4.55a.65.65 0 0 0 0 1.3h6.737a.65.65 0 0 0 0-1.3H4.65ZM4 17.85c0-.359.29-.65.65-.65h14.683a.65.65 0 0 1 0 1.3H4.649A.65.65 0 0 1 4 17.85Zm15.793-5.401a.65.65 0 0 0-.013-.964l-2.222-1.961a.649.649 0 1 0-.858.975l1.684 1.487-1.698 1.581a.65.65 0 0 0 .885.952l2.222-2.07Z" clip-rule="evenodd"/></svg>