<svg xmlns="http://www.w3.org/2000/svg" fill="none" viewBox="0 0 24 24" focusable="false"><path fill="#74767B" fill-rule="evenodd" d="M0.19119 7.71461C-0.0637301 7.45801 -0.0637301 7.04199 0.19119 6.78539L6.74099 0.192449C6.99591 -0.0641498 7.40922 -0.0641497 7.66414 0.192449C7.91906 0.449048 7.91906 0.865078 7.66414 1.12168L1.57591 7.25L7.66414 13.3783C7.91906 13.6349 7.91906 14.051 7.66414 14.3076C7.40922 14.5641 6.99591 14.5641 6.74099 14.3076L0.19119 7.71461ZM12.8857 14.3076L6.33586 7.71461C6.08094 7.45801 6.08094 7.04199 6.33586 6.78539L12.8857 0.192449C13.1406 -0.0641498 13.5539 -0.0641497 13.8088 0.192449C14.0637 0.449048 14.0637 0.865078 13.8088 1.12168L7.72058 7.25L13.8088 13.3783C14.0637 13.6349 14.0637 14.051 13.8088 14.3076C13.5539 14.5641 13.1406 14.5641 12.8857 14.3076Z" transform="matrix(1 0 0 -1 5 19.25)"/></svg>