<svg xmlns="http://www.w3.org/2000/svg" fill="none" viewBox="0 0 24 24" focusable="false"><defs><clipPath id="Line_Spacing_Outline_svg__a"><path fill="#fff" fill-opacity="0" d="M0 0h24v24H0z"/></clipPath></defs><g clip-path="url(#Line_Spacing_Outline_svg__a)"><path fill="#74767B" fill-rule="evenodd" d="M6.64 5.9c.18 0 .36.07.48.21l2.07 2.22c.25.27.23.68-.03.92a.65.65 0 0 1-.92-.03l-.92-.99v2.52c0 .35-.29.65-.65.65s-.65-.3-.65-.65V8.24l-.85.97c-.24.26-.65.29-.91.05a.64.64 0 0 1-.06-.91l1.96-2.23c.12-.14.29-.22.48-.22m4.35.85c0-.36.29-.65.65-.65h7.71c.35 0 .65.29.65.65 0 .35-.3.65-.65.65h-7.71c-.36 0-.65-.3-.65-.65m0 5.3c0-.36.29-.65.65-.65h7.71c.35 0 .65.29.65.65 0 .35-.3.65-.65.65h-7.71c-.36 0-.65-.3-.65-.65m-3.67 3.74v-2.44c0-.36-.29-.65-.65-.65s-.65.29-.65.65v2.45l-.91-.98a.65.65 0 0 0-.92-.04.66.66 0 0 0-.04.92l2.07 2.23c.13.13.31.21.49.2.18 0 .36-.08.48-.22l1.96-2.22a.65.65 0 0 0-.06-.92.65.65 0 0 0-.92.06zm4.32.91c-.36 0-.65.29-.65.65 0 .35.29.65.65.65h7.71c.35 0 .65-.3.65-.65 0-.36-.3-.65-.65-.65z"/></g></svg>