<svg xmlns="http://www.w3.org/2000/svg" width="24" height="24" fill="none"><path fill="#717681" fill-rule="evenodd" d="M6.643 5.906a.65.65 0 0 1 .484.207l2.07 2.225a.65.65 0 0 1-.951.885l-.917-.985v2.512a.65.65 0 1 1-1.3 0V8.245l-.852.965a.65.65 0 1 1-.975-.86l1.962-2.224a.65.65 0 0 1 .479-.22Zm4.348.844a.65.65 0 0 1 .65-.65h7.709a.65.65 0 1 1 0 1.3h-7.71a.65.65 0 0 1-.65-.65Zm0 5.3a.65.65 0 0 1 .65-.65h7.709a.65.65 0 1 1 0 1.3h-7.71a.65.65 0 0 1-.65-.65ZM7.329 15.8v-2.45a.65.65 0 1 0-1.3 0v2.457l-.917-.986a.65.65 0 1 0-.952.886l2.07 2.224a.65.65 0 0 0 .963-.012l1.962-2.225a.65.65 0 1 0-.975-.86l-.851.966Zm4.312.9a.65.65 0 1 0 0 1.3h7.709a.65.65 0 1 0 0-1.3h-7.71Z" clip-rule="evenodd"/></svg>