<svg xmlns="http://www.w3.org/2000/svg" fill="none" viewBox="0 0 24 24" focusable="false"><path fill="#717681" fill-rule="evenodd" d="M3.66 4.59c-.36 0-.65.29-.65.65s.29.65.65.65h.27v2.36c0 .36.29.65.65.65s.65-.29.65-.65V5.24c0-.36-.29-.65-.65-.65zm5 1.5c-.36 0-.65.3-.65.65 0 .36.29.65.65.65h10.69c.35 0 .65-.29.65-.65 0-.35-.3-.65-.65-.65zm0 5.31c-.36 0-.65.29-.65.65 0 .35.29.65.65.65h10.69c.35 0 .65-.3.65-.65 0-.36-.3-.65-.65-.65zm-.65 5.95c0-.36.29-.65.65-.65h10.69c.35 0 .65.29.65.65 0 .35-.3.65-.65.65H8.66c-.36 0-.65-.3-.65-.65m-5.04-6.77c0-.36.29-.65.65-.65h1.15c.77 0 1.39.62 1.39 1.38 0 .38-.16.75-.44 1.01l-.47.44h.35c.35 0 .65.29.65.65s-.3.65-.65.65H3.62a.63.63 0 0 1-.6-.41c-.1-.24-.04-.53.15-.71l1.66-1.57c.02-.01.03-.04.03-.06 0-.05-.04-.08-.09-.08H3.62c-.36 0-.65-.29-.65-.65m2.61 4.6H3.57c-.36 0-.65.29-.65.65s.29.65.65.65h.74l-.16.22c-.14.2-.16.46-.05.68s.33.35.58.35h.02c.13 0 .23.11.24.24 0 .13-.11.24-.24.24H3.57c-.36 0-.65.29-.65.65s.29.65.65.65H4.7c.85 0 1.55-.7 1.54-1.56-.01-.46-.22-.88-.55-1.16l.41-.58c.15-.2.17-.46.05-.68a.65.65 0 0 0-.57-.35"/></svg>