<svg xmlns="http://www.w3.org/2000/svg" fill="none" viewBox="0 0 24 24" focusable="false"><defs><clipPath id="List_Style_Outline_svg__a"><path fill="#fff" fill-opacity="0" d="M0 0h24v24H0z"/></clipPath></defs><g clip-path="url(#List_Style_Outline_svg__a)"><path fill="#74767B" fill-rule="evenodd" d="M4.03 6.74c0-.35.29-.65.65-.65h14.66c.36 0 .66.3.66.65 0 .36-.3.65-.66.65H4.68c-.36 0-.65-.29-.65-.65m0 5.31c0-.36.29-.65.65-.65h14.66c.36 0 .66.29.66.65 0 .35-.3.65-.66.65H4.68c-.36 0-.65-.3-.65-.65m.65 4.65c-.36 0-.65.29-.65.65 0 .35.29.65.65.65h14.66c.36 0 .66-.3.66-.65 0-.36-.3-.65-.66-.65z"/></g></svg>