<svg xmlns="http://www.w3.org/2000/svg" fill="none" viewBox="0 0 24 24" focusable="false"><path fill="#717681" fill-rule="evenodd" d="M3.664 4.594a.65.65 0 0 0 0 1.3h.272v2.362a.65.65 0 0 0 1.3 0V5.244a.65.65 0 0 0-.65-.65zM8.668 6.1a.65.65 0 0 0 0 1.3H19.35a.65.65 0 1 0 0-1.3zm0 5.3a.65.65 0 1 0 0 1.3H19.35a.65.65 0 1 0 0-1.3zm-.65 5.95a.65.65 0 0 1 .65-.65H19.35a.65.65 0 1 1 0 1.3H8.668a.65.65 0 0 1-.65-.65m-5.044-6.768a.65.65 0 0 1 .65-.65h1.152a1.385 1.385 0 0 1 .952 2.39l-.472.446H5.6a.65.65 0 1 1 0 1.3H3.624a.65.65 0 0 1-.447-1.122l1.657-1.568a.085.085 0 0 0-.058-.146H3.624a.65.65 0 0 1-.65-.65m2.608 4.603h-2.01a.65.65 0 0 0 0 1.3h.743l-.16.223a.65.65 0 0 0 .529 1.029h.018a.239.239 0 1 1 0 .478h-1.13a.65.65 0 1 0 0 1.3h1.13a1.539 1.539 0 0 0 .99-2.718l.418-.582a.65.65 0 0 0-.528-1.03" clip-rule="evenodd"/></svg>