<svg xmlns="http://www.w3.org/2000/svg" fill="none" viewBox="0 0 24 24" focusable="false"><defs><clipPath id="Resize_Table_Outline_svg__a"><path fill="#fff" fill-opacity="0" d="M0 24h24V0H0z"/></clipPath></defs><g clip-path="url(#Resize_Table_Outline_svg__a)"><path fill="#717681" fill-rule="evenodd" d="M12.64 5.3H17c.93 0 1.7.76 1.7 1.71v9.97c0 .95-.77 1.71-1.7 1.71h-4.36v-3.1c0-.36-.29-.65-.65-.65-.36 0-.65.29-.65.65v3.1H7a1.7 1.7 0 0 1-1.7-1.71V7.01c0-.95.76-1.71 1.7-1.71h4.34v3.01c0 .36.29.65.65.65.36 0 .65-.29.65-.65zM4 7.01C4 5.34 5.34 4 7 4h10c1.65 0 3 1.34 3 3.01v9.97c0 1.67-1.35 3.02-3 3.02H7c-1.66 0-3-1.35-3-3.02zm6.28 6.44-.94-.88h5.27l-.92.82a.66.66 0 0 0-.06.92c.24.27.65.29.92.06l2.23-1.97c.13-.12.21-.3.22-.48 0-.19-.08-.36-.21-.49l-2.22-2.08a.65.65 0 0 0-.92.04.65.65 0 0 0 .03.92l1.03.96H9.26l1.01-.9c.27-.23.29-.65.06-.92a.65.65 0 0 0-.92-.05l-2.23 1.96a.74.74 0 0 0-.22.48c0 .19.08.37.21.49l2.22 2.08c.27.24.68.23.92-.03.25-.27.23-.68-.03-.93"/></g></svg>