<svg xmlns="http://www.w3.org/2000/svg" fill="none" viewBox="0 0 24 24" focusable="false"><path d="M0 0H24V24H0z" transform="matrix(1 0 0 -1 0 24)"/><path fill="#74767B" fill-rule="evenodd" d="M8.64668 14.6951L13 14.6951C13.9389 14.6951 14.7 13.9312 14.7 12.9888L14.7 3.01123C14.7 2.06883 13.9389 1.30487 13 1.30487L8.64668 1.30487L8.64668 4.4033C8.64668 4.76363 8.35566 5.05574 7.99668 5.05574C7.63769 5.05574 7.34668 4.76363 7.34668 4.4033L7.34668 1.30487L3 1.30487C2.06112 1.30487 1.3 2.06883 1.3 3.01123L1.3 12.9888C1.3 13.9312 2.06112 14.6951 3 14.6951L7.34668 14.6951L7.34668 11.6894C7.34668 11.329 7.6377 11.0369 7.99668 11.0369C8.35567 11.0369 8.64668 11.329 8.64668 11.6894L8.64668 14.6951ZM0 12.9888C0 14.6518 1.34315 16 3 16L13 16C14.6569 16 16 14.6518 16 12.9888L16 3.01123C16 1.34817 14.6569 0 13 0L3 0C1.34315 0 0 1.34817 0 3.01123L0 12.9888ZM6.28561 6.54132L5.34479 7.42013L10.6157 7.42013L9.69755 6.60736C9.42832 6.36902 9.40255 5.95673 9.64 5.68649C9.87745 5.41625 10.2882 5.39038 10.5574 5.62872L12.7817 7.59775C12.9193 7.71959 12.9993 7.89416 13.0017 8.07835C13.0042 8.26254 12.9289 8.43919 12.7946 8.56468L10.5702 10.6424C10.3074 10.8879 9.89615 10.8731 9.65159 10.6093C9.40703 10.3455 9.42181 9.93267 9.68461 9.6872L10.7147 8.72499L5.26032 8.72499L6.27266 9.62116C6.5419 9.8595 6.56767 10.2718 6.33022 10.542C6.09277 10.8123 5.68202 10.8381 5.41278 10.5998L3.18851 8.63077C3.05087 8.50893 2.97096 8.33436 2.9685 8.15017C2.96605 7.96598 3.04129 7.78933 3.17563 7.66384L5.39998 5.5861C5.66278 5.34062 6.07407 5.35546 6.31863 5.61924C6.56319 5.88302 6.5484 6.29585 6.28561 6.54132Z" transform="matrix(1 0 0 -1 4 20)"/></svg>