<svg xmlns="http://www.w3.org/2000/svg" fill="none" viewBox="0 0 24 24" focusable="false"><defs><clipPath id="Right_double_Outline_svg__a"><path fill="#fff" fill-opacity="0" d="M0 0h24v24H0z"/></clipPath></defs><g clip-path="url(#Right_double_Outline_svg__a)"><path fill="#74767B" fill-rule="evenodd" d="M18.8 12.71c.26-.26.26-.67 0-.93l-6.55-6.59a.64.64 0 0 0-.92 0 .67.67 0 0 0 0 .93l6.09 6.13-6.09 6.12a.67.67 0 0 0 0 .93c.26.26.67.26.92 0zM6.11 19.3l6.55-6.59a.67.67 0 0 0 0-.93L6.11 5.19a.64.64 0 0 0-.92 0c-.26.25-.26.67 0 .93l6.08 6.13-6.08 6.12c-.26.26-.26.68 0 .93.25.26.66.26.92 0"/></g></svg>