<svg xmlns="http://www.w3.org/2000/svg" fill="none" viewBox="0 0 24 24" focusable="false"><path d="M0 0H24V24H0z"/><path fill="#74767B" fill-rule="evenodd" d="M15.5506 20.0166C15.2661 20.2355 14.858 20.1824 14.6391 19.8978L10.0453 13.9273L1.46725 13.9273C0.749283 13.9273 0.167253 13.3453 0.167253 12.6273L0.167253 7.22729C0.167253 6.50932 0.749283 5.92729 1.46725 5.92729L3.89019 5.92729L0.134867 1.0464C-0.0840389 0.761879 -0.0308501 0.353774 0.253668 0.134867C0.538185 -0.0840387 0.946291 -0.0308506 1.1652 0.253667L15.6694 19.1051C15.8883 19.3896 15.8351 19.7977 15.5506 20.0166ZM4.89041 7.22729L1.46725 7.22729L1.46725 12.6273L9.04513 12.6273L4.89041 7.22729ZM14.8673 13.9273L13.3249 13.9273L12.3247 12.6273L14.8673 12.6273L14.8673 7.22729L8.16994 7.22729L7.16973 5.92729L14.8673 5.92729C15.5852 5.92729 16.1673 6.50932 16.1673 7.22729L16.1673 12.6273C16.1673 13.3453 15.5852 13.9273 14.8673 13.9273Z" transform="rotate(-180 10.084 11)"/></svg>