<svg xmlns="http://www.w3.org/2000/svg" fill="none" viewBox="0 0 24 24" focusable="false"><defs><clipPath id="Row_Insert_after_Outline_svg__a"><path fill="#fff" fill-opacity="0" d="M0 0h24v24H0z"/></clipPath></defs><g clip-path="url(#Row_Insert_after_Outline_svg__a)"><path fill="#717681" fill-rule="evenodd" d="M18.69 11.64v2.99c0 1.13-.92 2.04-2.05 2.04-.36 0-.65.29-.65.65s.29.65.65.65c1.85 0 3.36-1.49 3.36-3.34V7.65C20 5.63 18.35 4 16.32 4H7.67C5.64 4 4 5.63 4 7.65v7.02c0 1.82 1.48 3.3 3.31 3.3.36 0 .66-.29.66-.65s-.3-.65-.66-.65c-1.11 0-2.01-.9-2.01-2v-3.03zM5.3 10.34V7.65c0-1.3 1.06-2.35 2.37-2.35h8.65c1.31 0 2.37 1.05 2.37 2.35v2.69zm6.03 4.95c0-.36.29-.65.65-.65s.66.29.66.65v1.38h1.38c.36 0 .66.29.66.65s-.3.65-.66.65h-1.38v1.37c0 .36-.3.66-.66.66s-.65-.3-.65-.66v-1.37H9.94c-.36 0-.65-.29-.65-.65s.29-.65.65-.65h1.39z"/></g></svg>