<svg xmlns="http://www.w3.org/2000/svg" fill="none" viewBox="0 0 24 24" focusable="false"><path fill="#717681" d="M11.987 14.644a.653.653 0 0 0-.654.65v1.377H9.948a.653.653 0 0 0-.654.651c0 .36.293.65.654.65h1.385v1.377c0 .36.293.651.654.651a.653.653 0 0 0 .655-.65v-1.377h1.384a.653.653 0 0 0 .655-.651c0-.36-.293-.65-.655-.65h-1.384v-1.377c0-.36-.293-.651-.655-.651"/><path fill="#717681" fill-rule="evenodd" d="M18.69 14.639v-2.997H5.31v3.033c0 1.102.898 1.996 2.007 1.996.362 0 .655.292.655.651 0 .36-.293.65-.655.65A3.308 3.308 0 0 1 4 14.676v-7.02C4 5.635 5.646 4 7.676 4h8.648C18.354 4 20 5.636 20 7.654v6.985a3.344 3.344 0 0 1-3.354 3.334.653.653 0 0 1-.654-.651c0-.36.293-.65.654-.65 1.13 0 2.045-.91 2.045-2.033M5.31 7.654v2.686h13.38V7.654a2.36 2.36 0 0 0-2.366-2.352H7.676a2.36 2.36 0 0 0-2.367 2.352" clip-rule="evenodd"/></svg>