<svg xmlns="http://www.w3.org/2000/svg" fill="none" viewBox="0 0 24 24" focusable="false"><defs><clipPath id="Row_Insert_below_Outline_svg__a"><path fill="#fff" fill-opacity="0" d="M0 0h24v24H0z"/></clipPath></defs><g clip-path="url(#Row_Insert_below_Outline_svg__a)"><path fill="#717681" fill-rule="evenodd" d="M11.33 8.7c0 .36.29.65.65.65s.66-.29.66-.65V7.33h1.38c.36 0 .66-.3.66-.66 0-.35-.3-.65-.66-.65h-1.38V4.65c0-.36-.3-.65-.66-.65s-.65.29-.65.65v1.37H9.94a.655.655 0 0 0 0 1.31h1.39zM5.3 13.66v2.68c0 1.3 1.06 2.36 2.37 2.36h8.65c1.31 0 2.37-1.06 2.37-2.36v-2.68zm13.39-1.3v-3c0-1.12-.92-2.03-2.05-2.03a.655.655 0 0 1 0-1.31c1.85 0 3.36 1.5 3.36 3.34v6.98c0 2.02-1.65 3.66-3.68 3.66H7.67C5.64 20 4 18.36 4 16.34V9.32c0-1.82 1.48-3.3 3.31-3.3.36 0 .66.3.66.65 0 .36-.3.66-.66.66A2 2 0 0 0 5.3 9.32v3.04z"/></g></svg>