<svg xmlns="http://www.w3.org/2000/svg" fill="none" viewBox="0 0 24 24" focusable="false"><path fill="#74767B" fill-rule="evenodd" d="M4.26797 4.09169C4.55547 3.87671 4.95918 3.93816 5.16968 4.22895L10.0141 10.9209L14.8586 4.22895C15.0691 3.93816 15.4728 3.87671 15.7603 4.09169C16.0478 4.30667 16.1102 4.71668 15.8997 5.00747L10.8165 12.0292L15.8995 19.0508C16.11 19.3416 16.0476 19.7516 15.7601 19.9666C15.4726 20.1815 15.0689 20.1201 14.8584 19.8293L10.0141 13.1376L5.16984 19.8293C4.95934 20.1201 4.55563 20.1815 4.26813 19.9666C3.98064 19.7516 3.91823 19.3416 4.12874 19.0508L9.21177 12.0292L4.12858 5.00747C3.91807 4.71668 3.98048 4.30667 4.26797 4.09169ZM18.8561 15.7706C19.3393 15.2448 20.1932 15.3361 20.5543 15.9521C20.7905 16.355 20.7358 16.8649 20.4195 17.2085L17.0118 20.9102C16.8371 21.1 16.7912 21.3752 16.8948 21.6115C16.9985 21.8478 17.232 22.0004 17.4901 22.0004L21.3404 22.0004C21.6994 22.0004 21.9904 21.7094 21.9904 21.3504C21.9904 20.9914 21.6994 20.7004 21.3404 20.7004L18.9719 20.7004L21.3759 18.089C22.0794 17.3248 22.2011 16.1908 21.6759 15.2947C20.8727 13.9246 18.9735 13.7216 17.8989 14.891L17.5101 15.3141C17.2672 15.5784 17.2846 15.9896 17.5489 16.2325C17.8132 16.4754 18.2244 16.458 18.4673 16.1937L18.8561 15.7706Z"/></svg>