<svg xmlns="http://www.w3.org/2000/svg" fill="none" viewBox="0 0 24 24" focusable="false"><defs><clipPath id="Subscript_Outline_svg__a"><path fill="#fff" fill-opacity="0" d="M0 0h24v24H0z"/></clipPath></defs><g clip-path="url(#Subscript_Outline_svg__a)"><path fill="#717681" fill-rule="evenodd" d="M5.16 4.22a.63.63 0 0 0-.9-.13c-.28.21-.35.62-.14.91l5.09 7.02-5.09 7.03c-.21.29-.14.7.14.91.29.22.69.16.9-.14l4.85-6.69 4.84 6.69c.21.3.62.36.91.14a.66.66 0 0 0 .13-.91l-5.08-7.03L15.89 5a.651.651 0 0 0-1.04-.78l-4.84 6.7zm13.69 11.55a1.06 1.06 0 0 1 1.7.18c.24.4.18.91-.14 1.25l-3.4 3.71c-.18.19-.22.46-.12.7.1.23.34.39.6.39h3.85c.35 0 .65-.3.65-.65 0-.36-.3-.65-.65-.65h-2.37l2.4-2.62c.7-.76.83-1.89.3-2.79-.8-1.37-2.7-1.57-3.78-.4l-.38.42a.65.65 0 0 0 .03.92c.27.24.68.22.92-.04z"/></g></svg>