<svg xmlns="http://www.w3.org/2000/svg" fill="none" viewBox="0 0 24 24" focusable="false"><path fill="#717681" d="M4.268 4.092a.64.64 0 0 1 .902.137l4.844 6.692 4.845-6.692a.64.64 0 0 1 .901-.137c.288.215.35.625.14.915l-5.084 7.022 5.083 7.022c.211.29.149.7-.139.916a.64.64 0 0 1-.902-.138l-4.844-6.692L5.17 19.83a.64.64 0 0 1-.902.137.66.66 0 0 1-.14-.915l5.084-7.022-5.083-7.022a.66.66 0 0 1 .139-.915M20.554 15.952a1.062 1.062 0 0 0-1.698-.181l-.389.423a.65.65 0 1 1-.957-.88l.389-.423a2.362 2.362 0 1 1 3.477 3.198L18.972 20.7h2.368a.65.65 0 0 1 0 1.3h-3.85a.65.65 0 0 1-.478-1.09l3.407-3.702c.317-.343.372-.853.135-1.256"/></svg>