<svg xmlns="http://www.w3.org/2000/svg" fill="none" viewBox="0 0 24 24" focusable="false"><path fill="#74767B" fill-rule="evenodd" d="M18.85 3.64a1.06 1.06 0 0 1 1.7.18c.24.4.18.91-.14 1.26l-3.4 3.7c-.18.19-.22.46-.12.7s.34.39.6.39h3.85c.35 0 .65-.29.65-.65s-.3-.65-.65-.65h-2.37l2.4-2.61c.7-.77.83-1.9.3-2.8-.8-1.37-2.7-1.57-3.78-.4l-.38.42c-.25.27-.23.68.03.92.27.24.68.23.92-.04zm-13.69.58a.63.63 0 0 0-.9-.13c-.28.21-.35.62-.14.91l5.09 7.02-5.09 7.03c-.21.29-.14.7.14.91.29.22.69.16.9-.14l4.85-6.69 4.84 6.69c.21.3.62.36.91.14a.66.66 0 0 0 .13-.91l-5.08-7.03L15.89 5a.651.651 0 0 0-1.04-.78l-4.84 6.7z"/></svg>