<svg xmlns="http://www.w3.org/2000/svg" fill="none" viewBox="0 0 24 24" focusable="false"><path fill="#74767B" fill-rule="evenodd" d="M20.5543 3.82513C20.1932 3.2091 19.3393 3.11781 18.8561 3.6436L18.4673 4.06669C18.2244 4.33102 17.8132 4.34839 17.5489 4.10549C17.2846 3.8626 17.2672 3.4514 17.5101 3.18707L17.8989 2.76399C18.9735 1.5946 20.8727 1.79762 21.6759 3.16772C22.2011 4.06378 22.0794 5.19781 21.3759 5.96197L18.9719 8.57342L21.3404 8.57342C21.6994 8.57342 21.9904 8.86443 21.9904 9.22342C21.9904 9.5824 21.6994 9.87341 21.3404 9.87341L17.4901 9.87341C17.232 9.87341 16.9985 9.7208 16.8948 9.48452C16.7912 9.24823 16.8371 8.97301 17.0118 8.78318L20.4195 5.08151C20.7358 4.73792 20.7905 4.22802 20.5543 3.82513ZM5.16968 4.2289C4.95918 3.93812 4.55547 3.87666 4.26797 4.09165C3.98048 4.30663 3.91807 4.71664 4.12858 5.00742L9.21177 12.0292L4.12874 19.0507C3.91823 19.3415 3.98064 19.7515 4.26813 19.9665C4.55563 20.1815 4.95934 20.1201 5.16984 19.8293L10.0141 13.1375L14.8584 19.8293C15.0689 20.1201 15.4726 20.1815 15.7601 19.9665C16.0476 19.7515 16.11 19.3415 15.8995 19.0507L10.8165 12.0292L15.8997 5.00742C16.1102 4.71664 16.0478 4.30663 15.7603 4.09165C15.4728 3.87666 15.0691 3.93812 14.8586 4.2289L10.0141 10.9209L5.16968 4.2289Z"/></svg>