<svg xmlns="http://www.w3.org/2000/svg" fill="none" viewBox="0 0 24 24" focusable="false"><path fill="#717681" fill-rule="evenodd" d="M4 19.349c0 .36.3.651.668.651h14.664a.66.66 0 0 0 .668-.651c0-.36-.3-.65-.668-.65H4.668a.66.66 0 0 0-.668.65ZM15.593 4a.66.66 0 0 0-.668.651v5.809h-4.139c-1.334 0-2.415-1.054-2.415-2.354V4.672a.66.66 0 0 0-.668-.651.66.66 0 0 0-.668.65v3.435c0 2.02 1.68 3.656 3.751 3.656h4.139v4.622c0 .36.299.651.668.651a.66.66 0 0 0 .668-.651V4.651A.66.66 0 0 0 15.593 4Z" clip-rule="evenodd"/></svg>