<svg xmlns="http://www.w3.org/2000/svg" fill="none" viewBox="0 0 24 24" focusable="false"><path d="M0 0H24V24H0z"/><path fill="#74767B" fill-rule="evenodd" d="M0 0.650963C0 0.291446 0.299112 0 0.668085 0L15.3319 0C15.7009 0 16 0.291446 16 0.650963C16 1.01048 15.7009 1.30193 15.3319 1.30193L0.668085 1.30193C0.299112 1.30193 0 1.01048 0 0.650963ZM11.5927 16C11.2238 16 10.9246 15.7086 10.9246 15.349L10.9246 9.54003L6.78625 9.54003C5.45227 9.54003 4.37086 10.5937 4.37086 11.8935L4.37086 15.3284C4.37086 15.6879 4.07175 15.9793 3.70278 15.9793C3.3338 15.9793 3.03469 15.6879 3.03469 15.3284L3.03469 11.8935C3.03469 9.87469 4.71432 8.2381 6.78625 8.2381L10.9246 8.2381L10.9246 3.61599C10.9246 3.25647 11.2238 2.96503 11.5927 2.96503C11.9617 2.96503 12.2608 3.25647 12.2608 3.61599L12.2608 15.349C12.2608 15.7086 11.9617 16 11.5927 16Z" transform="matrix(1 0 0 -1 4 20)"/></svg>