<svg xmlns="http://www.w3.org/2000/svg" fill="none" viewBox="0 0 24 24" focusable="false"><defs><clipPath id="Text_underline_Outline_svg__a"><path fill="#fff" fill-opacity="0" d="M0 0h24v24H0z"/></clipPath></defs><g clip-path="url(#Text_underline_Outline_svg__a)"><path fill="#717681" fill-rule="evenodd" d="M4 19.34c0 .36.29.66.66.66h14.67c.37 0 .67-.3.67-.66 0-.36-.3-.65-.67-.65H4.66a.65.65 0 0 0-.66.65M15.59 4a.66.66 0 0 0-.67.65v5.81h-4.14c-1.33 0-2.41-1.06-2.41-2.36V4.67c0-.36-.3-.65-.67-.65a.66.66 0 0 0-.67.65V8.1c0 2.02 1.68 3.66 3.75 3.66h4.14v4.62c0 .36.3.65.67.65.37 0 .67-.29.67-.65V4.65c0-.36-.3-.65-.67-.65"/></g></svg>