<svg xmlns="http://www.w3.org/2000/svg" fill="none" viewBox="0 0 24 24" focusable="false"><path fill="#717681" d="M7.16 15.036c.13.14.3.21.48.21.16 0 .31-.05.44-.17l2.71-2.575c.31-.28.31-.76 0-1.04L8.08 8.996a.66.66 0 0 0-.92.04.65.65 0 0 0 .04.92l1.551 1.375c-1.763 0-2.15.004-2.606.008-.413.004-.881.009-2.48.012a.65.65 0 0 0 .003 1.3l5.087-.017-1.554 1.482c-.26.24-.28.65-.04.92M16.876 15.036c-.13.14-.3.21-.48.21-.16 0-.31-.05-.44-.17l-2.71-2.575a.7.7 0 0 1 0-1.04l2.71-2.465c.27-.24.68-.22.92.04.24.27.23.68-.04.92l-1.551 1.375c1.763 0 2.15.004 2.606.008.413.004.881.009 2.48.012a.65.65 0 0 1-.003 1.3l-5.087-.017 1.554 1.482c.26.24.28.65.04.92"/></svg>