<svg xmlns="http://www.w3.org/2000/svg" fill="none" viewBox="0 0 24 24" focusable="false"><defs><clipPath id="Wrap_Outline_svg__a"><path fill="#fff" fill-opacity="0" d="M0 0h24v24H0z"/></clipPath></defs><g clip-path="url(#Wrap_Outline_svg__a)"><path fill="#717681" fill-rule="evenodd" d="M7.64 15.24c-.18 0-.35-.07-.48-.21a.658.658 0 0 1 .04-.92l1.55-1.48-5.09.02c-.36 0-.65-.29-.65-.65 0-.36.29-.65.65-.65 1.6-.01 2.07-.01 2.48-.02h2.61L7.2 9.95a.65.65 0 0 1-.04-.92c.24-.26.65-.28.92-.04l2.71 2.47c.31.28.31.76 0 1.04l-2.71 2.57c-.13.12-.28.17-.44.17m8.75 0c.18 0 .35-.07.48-.21.24-.27.22-.68-.04-.92l-1.55-1.48 5.08.02c.36 0 .65-.29.65-.65 0-.36-.29-.65-.64-.65-1.6-.01-2.07-.01-2.48-.02h-2.61l1.55-1.38a.65.65 0 0 0 .04-.92.658.658 0 0 0-.92-.04l-2.71 2.47c-.31.28-.31.76 0 1.04l2.71 2.57c.13.12.28.17.44.17"/></g></svg>