<svg width="28" height="28" viewBox="0 0 28 28" fill="none" xmlns="http://www.w3.org/2000/svg">
<rect x="0.25" y="4.25" width="27.5" height="19.5" rx="2.75" fill="white" stroke="#F5F5F5" stroke-width="0.5"/>
<path fill-rule="evenodd" clip-rule="evenodd" d="M0.00332832 6.85742H27.9967C27.9222 5.26677 26.6091 4 25 4H3C1.39094 4 0.0777531 5.26677 0.00332832 6.85742ZM0 9.71473L28 9.71473V12.5703L0 12.5703V9.71473ZM28 15.4276L0 15.4276V18.2852H28V15.4276ZM27.9967 21.1425C27.9223 22.7332 26.6091 24 25 24H3C1.3909 24 0.0776882 22.7332 0.0033226 21.1425H27.9967Z" fill="#00993E"/>
<mask id="mask0_136805_1257" style="mask-type:alpha" maskUnits="userSpaceOnUse" x="0" y="4" width="28" height="20">
<rect y="4" width="28" height="20" rx="3" fill="#1B2F4C"/>
</mask>
<g mask="url(#mask0_136805_1257)">
<rect y="4" width="14.1812" height="8.57031" fill="#C8312A"/>
</g>
<path d="M6.08446 6.97499C6.70103 6.73079 7.04217 6.76245 7.61215 6.97499C7.71836 7.99913 7.79319 8.37686 8.02409 9.389C8.02409 9.389 8.24726 8.92575 8.5047 8.71958C8.76215 8.51341 8.91662 8.71958 8.91662 8.71958C8.91662 8.71958 8.71066 9.54328 8.4017 10.0756C8.09274 10.6079 7.69799 10.8308 7.69799 10.8308L7.69796 11.4314H6.08445V10.9338L5.82709 10.333C5.61743 8.94406 5.68481 8.36109 6.08446 6.97499Z" fill="white"/>
<circle cx="6.92217" cy="5.4722" r="0.391512" fill="white"/>
<circle cx="4.87963" cy="5.97006" r="0.391512" fill="white"/>
<circle cx="0.391512" cy="0.391512" r="0.391512" transform="matrix(-1 0 0 1 9.47633 5.57855)" fill="white"/>
<circle cx="3.02596" cy="7.27451" r="0.391512" fill="white"/>
<circle cx="0.391512" cy="0.391512" r="0.391512" transform="matrix(-1 0 0 1 11.3302 6.883)" fill="white"/>
<circle cx="2.01314" cy="9.1453" r="0.391512" fill="white"/>
<circle cx="0.391512" cy="0.391512" r="0.391512" transform="matrix(-1 0 0 1 12.3428 8.75378)" fill="white"/>
</svg>
