<svg width="28.000000" height="28.000000" viewBox="0 0 28 28" fill="none" xmlns="http://www.w3.org/2000/svg" xmlns:xlink="http://www.w3.org/1999/xlink">
	<desc>
			Created with Pixso.
	</desc>
	<defs/>
	<rect id="Albania" width="28.000000" height="28.000000" fill="#FFFFFF" fill-opacity="0"/>
	<rect id="Mask" y="4.000000" rx="3.000000" width="28.000000" height="20.000000" fill="#FFFFFF" fill-opacity="0"/>
	<rect id="Mask" y="4.000000" rx="3.000000" width="28.000000" height="20.000000" stroke="#979797" stroke-opacity="0" stroke-width="0.000000"/>
	<mask id="mask17_6181" mask-type="alpha" maskUnits="userSpaceOnUse" x="0.000000" y="4.000000" width="28.000000" height="20.000000">
		<rect id="Mask" y="4.000000" rx="3.000000" width="28.000000" height="20.000000" fill="#000000" fill-opacity="1.000000"/>
		<rect id="Mask" y="4.000000" rx="3.000000" width="28.000000" height="20.000000" stroke="#979797" stroke-opacity="0" stroke-width="0.000000"/>
	</mask>
	<g mask="url(#mask17_6181)">
		<rect id="Mask" y="4.000000" width="28.000000" height="20.000000" fill="#EE343C" fill-opacity="1.000000"/>
		<rect id="Mask" y="4.000000" width="28.000000" height="20.000000" stroke="#979797" stroke-opacity="0" stroke-width="0.000000"/>
	</g>
	<g mask="url(#mask17_6181)">
		<path id="Line" d="M12.38 8.38C12.16 8.16 11.8 8.12 11.54 8.3L10.95 8.69C10.52 8.98 10.56 9.61 11.02 9.84L12.29 10.48C12.52 10.59 12.66 10.82 12.66 11.07L12.66 11.33C12.66 11.7 12.36 12 12 12L11.49 12C11.38 12 11.28 11.97 11.19 11.92L9.09 10.88C8.83 10.75 8.52 10.8 8.32 11L7.98 11.34C7.66 11.66 7.75 12.21 8.16 12.41L9.1 12.88C9.5 13.08 9.53 13.64 9.16 13.88L9.16 13.88C8.73 14.17 8.86 14.84 9.37 14.94L9.93 15.05C10.47 15.16 10.63 15.85 10.19 16.18L9.69 16.56C9.36 16.81 9.53 17.33 9.94 17.33L9.94 17.33C9.98 17.33 10.01 17.32 10.05 17.32L11.31 17C11.79 16.88 12.16 17.41 11.89 17.82L11.89 17.82C11.65 18.18 11.91 18.66 12.34 18.66L12.92 18.66C13.16 18.66 13.38 18.82 13.46 19.05L13.46 19.05C13.63 19.57 14.36 19.57 14.53 19.05L14.53 19.05C14.61 18.82 14.83 18.66 15.07 18.66L15.65 18.66C16.08 18.66 16.34 18.18 16.1 17.82L16.1 17.82C15.83 17.41 16.2 16.88 16.68 17L17.94 17.32C17.98 17.32 18.01 17.33 18.05 17.33L18.05 17.33C18.46 17.33 18.63 16.81 18.3 16.56L17.8 16.18C17.36 15.85 17.52 15.16 18.06 15.05L18.62 14.94C19.13 14.84 19.26 14.17 18.83 13.88L18.83 13.88C18.46 13.64 18.49 13.08 18.89 12.88L19.83 12.41C20.24 12.21 20.33 11.66 20.01 11.34L19.67 11C19.47 10.8 19.16 10.75 18.9 10.88L16.8 11.92C16.71 11.97 16.61 12 16.5 12L16 12C15.63 12 15.33 11.7 15.33 11.33L15.33 11.07C15.33 10.82 15.47 10.59 15.7 10.48C16.09 10.28 16.56 10.05 16.97 9.84C17.43 9.61 17.46 8.98 17.04 8.69L16.45 8.3C16.19 8.12 15.83 8.16 15.61 8.38L14.47 9.52C14.21 9.78 13.78 9.78 13.52 9.52L12.38 8.38Z" fill="#262626" fill-opacity="1.000000" fill-rule="evenodd"/>
		<path id="Line" d="M10.95 8.69C10.52 8.98 10.56 9.61 11.02 9.84L12.29 10.48C12.52 10.59 12.66 10.82 12.66 11.07L12.66 11.33C12.66 11.7 12.36 12 12 12L11.49 12C11.38 12 11.28 11.97 11.19 11.92L9.09 10.88C8.83 10.75 8.52 10.8 8.32 11L7.98 11.34C7.66 11.66 7.75 12.21 8.16 12.41L9.1 12.88C9.5 13.08 9.53 13.64 9.16 13.88C8.73 14.17 8.86 14.84 9.37 14.94L9.87 15.04C10.43 15.15 10.6 15.88 10.14 16.22L9.69 16.56C9.36 16.81 9.53 17.33 9.94 17.33C9.98 17.33 10.01 17.32 10.05 17.32L11.31 17C11.79 16.88 12.16 17.41 11.89 17.82C11.65 18.18 11.91 18.66 12.34 18.66L12.92 18.66C13.16 18.66 13.38 18.82 13.46 19.05C13.63 19.57 14.36 19.57 14.53 19.05C14.61 18.82 14.83 18.66 15.07 18.66L15.65 18.66C16.08 18.66 16.34 18.18 16.1 17.82C15.83 17.41 16.2 16.88 16.68 17L17.94 17.32C17.98 17.32 18.01 17.33 18.05 17.33C18.46 17.33 18.63 16.81 18.3 16.56L17.8 16.18C17.36 15.85 17.52 15.16 18.06 15.05L18.62 14.94C19.13 14.84 19.26 14.17 18.83 13.88C18.46 13.64 18.49 13.08 18.89 12.88L19.83 12.41C20.24 12.21 20.33 11.66 20.01 11.34L19.67 11C19.47 10.8 19.16 10.75 18.9 10.88L16.8 11.92C16.71 11.97 16.61 12 16.5 12L16 12C15.63 12 15.33 11.7 15.33 11.33L15.33 11.07C15.33 10.82 15.47 10.59 15.7 10.48C16.09 10.28 16.56 10.05 16.97 9.84C17.43 9.61 17.46 8.98 17.04 8.69L16.45 8.3C16.19 8.12 15.83 8.16 15.61 8.38L14.47 9.52C14.21 9.78 13.78 9.78 13.52 9.52L12.38 8.38C12.16 8.16 11.8 8.12 11.54 8.3L10.95 8.69Z" stroke="#979797" stroke-opacity="0" stroke-width="0.000000"/>
	</g>
</svg>
