<svg viewBox="0 0 28 28" xmlns="http://www.w3.org/2000/svg" xmlns:xlink="http://www.w3.org/1999/xlink" width="28.000000" height="28.000000" fill="none" customFrame="#000000">
	<defs>
		<filter id="pixso_custom_mask_type_alpha">
			<feColorMatrix type="matrix" values="0 0 0 0 1 0 0 0 0 1 0 0 0 0 1 0 0 0 1 0 " />
		</filter>
	</defs>
	<mask id="mask_324" width="28.000000" height="20.000000" x="0.000000" y="4.000000" maskUnits="userSpaceOnUse">
		<g filter="url(#pixso_custom_mask_type_alpha)">
			<rect id="Mask" width="28.000000" height="20.000000" x="0.000000" y="4.000000" rx="3.000000" fill="rgb(255,255,255)" />
			<rect id="Mask" width="27.500000" height="19.500000" x="0.250000" y="4.250000" rx="2.750000" stroke="rgb(245,245,245)" stroke-width="0.5" />
		</g>
	</mask>
	<rect id="Algeria" width="28.000000" height="28.000000" x="0.000000" y="0.000000" fill="rgb(255,255,255)" fill-opacity="0" />
	<rect id="Mask" width="28.000000" height="20.000000" x="0.000000" y="4.000000" rx="3.000000" fill="rgb(255,255,255)" />
	<rect id="Mask" width="27.500000" height="19.500000" x="0.250000" y="4.250000" rx="2.750000" stroke="rgb(214,216,221)" stroke-width="0.5" />
	<g mask="url(#mask_324)">
		<path id="Rectangle 2" d="M0 24L14.6667 24L14.6667 4L0 4L0 24Z" fill="rgb(4,131,69)" fill-rule="evenodd" />
		<path id="Rectangle 2" d="M14.6667 24L14.6667 4L0 4L0 24L14.6667 24Z" fill-rule="evenodd" stroke="rgb(150.96,150.96,150.96)" stroke-opacity="0" stroke-width="0" />
		<path id="Star 8" d="M17.3334 15.04L15.7659 16.1574L16.3443 14.3214L14.7972 13.1759L16.7221 13.1586L17.3334 11.3333L17.9447 13.1586L19.8695 13.1759L18.3225 14.3214L18.9008 16.1574L17.3334 15.04Z" fill="rgb(232,27,66)" fill-rule="evenodd" />
		<path id="Star 8" d="M15.7659 16.1574L16.3443 14.3214L14.7972 13.1759L16.7221 13.1586L17.3334 11.3333L17.9447 13.1586L19.8695 13.1759L18.3225 14.3214L18.9008 16.1574L17.3334 15.04L15.7659 16.1574Z" fill-rule="evenodd" stroke="rgb(150.96,150.96,150.96)" stroke-opacity="0" stroke-width="0" />
		<path id="Oval 3" d="M17.68 18.3813C16.6519 19.3853 15.2702 20 13.7509 20C10.5748 20 8 17.3137 8 14C8 10.6863 10.5748 8 13.7509 8C15.2702 8 16.6519 8.61468 17.68 9.61867C16.9709 9.28112 16.1688 9.09091 15.3193 9.09091C12.4319 9.09091 10.0912 11.2888 10.0912 14C10.0912 16.7112 12.4319 18.9091 15.3193 18.9091C16.1688 18.9091 16.9709 18.7189 17.68 18.3813Z" fill="rgb(232,27,66)" fill-rule="evenodd" />
		<path id="Oval 3" d="M17.68 18.3813C16.6519 19.3853 15.2702 20 13.7509 20C10.5748 20 8 17.3137 8 14C8 10.6863 10.5748 8 13.7509 8C15.2702 8 16.6519 8.61468 17.68 9.61867C16.9709 9.28112 16.1688 9.09091 15.3193 9.09091C12.4319 9.09091 10.0912 11.2888 10.0912 14C10.0912 16.7112 12.4319 18.9091 15.3193 18.9091C16.1688 18.9091 16.9709 18.7189 17.68 18.3813Z" fill-rule="evenodd" stroke="rgb(150.96,150.96,150.96)" stroke-opacity="0" stroke-width="0" />
	</g>
</svg>
