<svg viewBox="0 0 28 28" xmlns="http://www.w3.org/2000/svg" xmlns:xlink="http://www.w3.org/1999/xlink" width="28.000000" height="28.000000" fill="none" customFrame="#000000">
	<defs>
		<filter id="pixso_custom_mask_type_alpha">
			<feColorMatrix type="matrix" values="0 0 0 0 1 0 0 0 0 1 0 0 0 0 1 0 0 0 1 0 " />
		</filter>
	</defs>
	<mask id="mask_338" width="28.000000" height="20.000000" x="0.000000" y="4.000000" maskUnits="userSpaceOnUse">
		<g filter="url(#pixso_custom_mask_type_alpha)">
			<rect id="Mask" width="28.000000" height="20.000000" x="0.000000" y="4.000000" rx="3.000000" fill="rgb(255,255,255)" />
			<rect id="Mask" width="28.000000" height="20.000000" x="0.000000" y="4.000000" rx="3.000000" stroke="rgb(150.96,150.96,150.96)" stroke-opacity="0" stroke-width="0" />
		</g>
	</mask>
	<rect id="Andorra" width="28.000000" height="28.000000" x="0.000000" y="0.000000" fill="rgb(255,255,255)" fill-opacity="0" />
	<rect id="Mask" width="28.000000" height="20.000000" x="0.000000" y="4.000000" rx="3.000000" fill="rgb(255,255,255)" />
	<rect id="Mask" width="28.000000" height="20.000000" x="0.000000" y="4.000000" rx="3.000000" stroke="rgb(150.96,150.96,150.96)" stroke-opacity="0" stroke-width="0" />
	<g mask="url(#mask_338)">
		<rect id="Mask Copy" width="28.000000" height="20.000000" x="0.000000" y="4.000000" fill="rgb(21,55,209)" />
		<rect id="Mask Copy" width="28.000000" height="20.000000" x="0.000000" y="4.000000" stroke="rgb(150.96,150.96,150.96)" stroke-opacity="0" stroke-width="0" />
		<rect id="Mask" width="14.666667" height="20.000000" x="13.333374" y="4.000000" fill="rgb(234,48,88)" />
		<rect id="Mask" width="14.666667" height="20.000000" x="13.333374" y="4.000000" stroke="rgb(150.96,150.96,150.96)" stroke-opacity="0" stroke-width="0" />
		<path id="Rectangle 2" d="M9.33337 24L18.6667 24L18.6667 4L9.33337 4L9.33337 24Z" fill="rgb(255,207,60)" fill-rule="evenodd" />
		<path id="Rectangle 2" d="M18.6667 24L18.6667 4L9.33337 4L9.33337 24L18.6667 24Z" fill-rule="evenodd" stroke="rgb(150.96,150.96,150.96)" stroke-opacity="0" stroke-width="0" />
		<path id="Rectangle 139 Copy" d="M12.6666 12.6666L14 12.6666L14 13.3333L12.6666 13.3333L12.6666 12.6666Z" fill="rgb(255,237.048,176.595)" fill-rule="evenodd" />
		<path id="Rectangle 139 Copy" d="M14 12.6666L14 13.3333L12.6666 13.3333L12.6666 12.6666L14 12.6666Z" fill-rule="evenodd" stroke="rgb(150.96,150.96,150.96)" stroke-opacity="0" stroke-width="0" />
		<path id="Rectangle 137" d="M12.0601 12.722C12.0277 12.3334 12.3345 12 12.7245 12L15.2754 12C15.6655 12 15.9722 12.3334 15.9398 12.722L15.7685 14.7774C15.7109 15.4684 15.1332 16 14.4398 16L13.5601 16C12.8667 16 12.289 15.4685 12.2314 14.7774L12.0601 12.722Z" fill="rgb(255,255,255)" fill-opacity="0" fill-rule="evenodd" />
		<path id="Rectangle 137" d="M12.7245 12C12.3345 12 12.0277 12.3334 12.0601 12.722L12.2314 14.7774C12.289 15.4685 12.8667 16 13.5601 16L14.4398 16C15.1332 16 15.7109 15.4684 15.7685 14.7774L15.9398 12.722C15.9722 12.3334 15.6655 12 15.2754 12L12.7245 12ZM12.7245 12.6667L15.2754 12.6667L15.1041 14.722C15.0969 14.8084 15.0756 14.8879 15.0401 14.9604C15.0046 15.0329 14.955 15.0986 14.8912 15.1573C14.8274 15.2159 14.7579 15.26 14.6827 15.2893C14.6074 15.3187 14.5265 15.3333 14.4398 15.3333L13.5601 15.3333C13.4735 15.3333 13.3925 15.3187 13.3173 15.2893C13.242 15.26 13.1725 15.2159 13.1087 15.1573C13.0449 15.0986 12.9953 15.0329 12.9598 14.9604C12.9243 14.8879 12.903 14.8084 12.8958 14.722L12.7245 12.6667Z" fill="rgb(211,46,40)" fill-rule="evenodd" />
		<path id="Rectangle 139" d="M12.6666 13.3333L15.3333 13.3333L15.3333 14L14.6666 14L13.3333 14L12.6666 14L12.6666 13.3333Z" fill="rgb(211,46,40)" fill-rule="evenodd" />
		<path id="Rectangle 139" d="M15.3333 13.3333L15.3333 14L14.6666 14L13.3333 14L12.6666 14L12.6666 13.3333L15.3333 13.3333Z" fill-rule="evenodd" stroke="rgb(150.96,150.96,150.96)" stroke-opacity="0" stroke-width="0" />
	</g>
</svg>
