<svg viewBox="0 0 28 28" xmlns="http://www.w3.org/2000/svg" xmlns:xlink="http://www.w3.org/1999/xlink" width="28.000000" height="28.000000" fill="none" customFrame="#000000">
	<defs>
		<filter id="pixso_custom_mask_type_alpha">
			<feColorMatrix type="matrix" values="0 0 0 0 1 0 0 0 0 1 0 0 0 0 1 0 0 0 1 0 " />
		</filter>
		<linearGradient id="paint_linear_136" x1="0" x2="0" y1="4" y2="24" gradientUnits="userSpaceOnUse">
			<stop stop-color="rgb(255,50.3078,62.2481)" offset="0" stop-opacity="1" />
			<stop stop-color="rgb(253,13,27)" offset="1" stop-opacity="1" />
		</linearGradient>
		<g id="pixso_custom_effect_30">
			<effect x="0.000000" y="0.000000" visibility="visible" fill="rgb(0,0,0)" fill-opacity="0.0599999987" effectType="dropShadow" showShadowBehind="1" stdDeviation="0" radius="0" />
			<effect x="0.000000" y="1.000000" visibility="hidden" fill="rgb(255,216.88,100.278)" fill-opacity="1" effectType="innerShadow" showShadowBehind="1" stdDeviation="0" radius="0" />
		</g>
		<filter id="filter_30" width="28.000000" height="9.333313" x="0.000000" y="14.666687" filterUnits="userSpaceOnUse" customEffect="url(#pixso_custom_effect_30)" color-interpolation-filters="sRGB">
			<feFlood flood-opacity="0" result="BackgroundImageFix" />
			<feOffset dx="0.000000" dy="0.000000" in="SourceAlpha" />
			<feColorMatrix type="matrix" values="0 0 0 0 0 0 0 0 0 0 0 0 0 0 0 0 0 0 0.06 0 " />
			<feBlend result="effect_dropShadow_1" in2="BackgroundImageFix" mode="normal" />
			<feBlend result="shape" in="SourceGraphic" in2="effect_dropShadow_1" mode="normal" />
		</filter>
		<g id="pixso_custom_effect_31">
			<effect x="0.000000" y="0.000000" visibility="visible" fill="rgb(0,0,0)" fill-opacity="0.0599999987" effectType="dropShadow" showShadowBehind="1" stdDeviation="0" radius="0" />
			<effect x="0.000000" y="1.000000" visibility="hidden" fill="rgb(255,216.88,100.278)" fill-opacity="1" effectType="innerShadow" showShadowBehind="1" stdDeviation="0" radius="0" />
		</g>
		<filter id="filter_31" width="28.000000" height="10.666687" x="0.000000" y="4.000000" filterUnits="userSpaceOnUse" customEffect="url(#pixso_custom_effect_31)" color-interpolation-filters="sRGB">
			<feFlood flood-opacity="0" result="BackgroundImageFix" />
			<feOffset dx="0.000000" dy="0.000000" in="SourceAlpha" />
			<feColorMatrix type="matrix" values="0 0 0 0 0 0 0 0 0 0 0 0 0 0 0 0 0 0 0.06 0 " />
			<feBlend result="effect_dropShadow_1" in2="BackgroundImageFix" mode="normal" />
			<feBlend result="shape" in="SourceGraphic" in2="effect_dropShadow_1" mode="normal" />
		</filter>
		<g id="pixso_custom_effect_32">
			<effect x="0.000000" y="1.000000" visibility="visible" fill="rgb(0,0,0)" fill-opacity="0.0599999987" effectType="dropShadow" showShadowBehind="1" stdDeviation="0" radius="0" />
			<effect x="0.000000" y="1.000000" visibility="hidden" fill="rgb(255,216.88,100.278)" fill-opacity="1" effectType="innerShadow" showShadowBehind="1" stdDeviation="0" radius="0" />
		</g>
		<filter id="filter_32" width="6.139526" height="8.887573" x="11.193909" y="9.682068" filterUnits="userSpaceOnUse" customEffect="url(#pixso_custom_effect_32)" color-interpolation-filters="sRGB">
			<feFlood flood-opacity="0" result="BackgroundImageFix" />
			<feOffset dx="0.000000" dy="1.000000" in="SourceAlpha" />
			<feColorMatrix type="matrix" values="0 0 0 0 0 0 0 0 0 0 0 0 0 0 0 0 0 0 0.06 0 " />
			<feBlend result="effect_dropShadow_1" in2="BackgroundImageFix" mode="normal" />
			<feBlend result="shape" in="SourceGraphic" in2="effect_dropShadow_1" mode="normal" />
		</filter>
	</defs>
	<mask id="mask_337" width="28.000000" height="20.000000" x="0.000000" y="4.000000" maskUnits="userSpaceOnUse">
		<g filter="url(#pixso_custom_mask_type_alpha)">
			<rect id="Mask" width="28.000000" height="20.000000" x="0.000000" y="4.000000" rx="2.000000" fill="rgb(255,255,255)" />
			<rect id="Mask" width="28.000000" height="20.000000" x="0.000000" y="4.000000" rx="2.000000" stroke="rgb(150.96,150.96,150.96)" stroke-opacity="0" stroke-width="0" />
		</g>
	</mask>
	<rect id="Angola" width="28.000000" height="28.000000" x="0.000000" y="0.000000" fill="rgb(255,255,255)" fill-opacity="0" />
	<rect id="Mask" width="28.000000" height="20.000000" x="0.000000" y="4.000000" rx="2.000000" fill="rgb(255,255,255)" />
	<rect id="Mask" width="28.000000" height="20.000000" x="0.000000" y="4.000000" rx="2.000000" stroke="rgb(150.96,150.96,150.96)" stroke-opacity="0" stroke-width="0" />
	<g mask="url(#mask_337)">
		<rect id="Mask Copy" width="28.000000" height="20.000000" x="0.000000" y="4.000000" fill="url(#paint_linear_136)" />
		<rect id="Mask Copy" width="28.000000" height="20.000000" x="0.000000" y="4.000000" stroke="rgb(150.96,150.96,150.96)" stroke-opacity="0" stroke-width="0" />
		<g filter="url(#filter_30)">
			<path id="Rectangle 2" d="M0 24L28 24L28 14.6667L0 14.6667L0 24Z" fill="rgb(38,38,38)" fill-rule="evenodd" />
			<path id="Rectangle 2" d="M28 24L28 14.6667L0 14.6667L0 24L28 24Z" fill-rule="evenodd" stroke="rgb(150.96,150.96,150.96)" stroke-opacity="0" stroke-width="0" />
		</g>
		<g filter="url(#filter_31)">
			<path id="Rectangle 2" d="M0 14.6667L28 14.6667L28 4L0 4L0 14.6667Z" fill="rgb(221,33,55)" fill-rule="evenodd" />
			<path id="Rectangle 2" d="M28 14.6667L28 4L0 4L0 14.6667L28 14.6667Z" fill-rule="evenodd" stroke="rgb(150.96,150.96,150.96)" stroke-opacity="0" stroke-width="0" />
		</g>
		<g filter="url(#filter_32)">
			<path id="Shape" d="M15.3473 16.5884C14.3777 17.4293 13.0213 17.7896 11.6882 17.4324C11.3326 17.3371 11.1215 16.9715 11.2168 16.6159C11.3121 16.2602 11.6776 16.0492 12.0333 16.1445C12.7924 16.3479 13.5628 16.2023 14.1742 15.8062L12.2969 14.5547C11.9905 14.3505 11.9077 13.9366 12.112 13.6302C12.3162 13.3239 12.7301 13.2411 13.0365 13.4453L15.0841 14.8104C15.1742 14.6385 15.2469 14.4541 15.2993 14.2588C15.6805 12.8363 14.8362 11.374 13.4137 10.9929C13.058 10.8976 12.847 10.532 12.9423 10.1764C13.0375 9.82071 13.4031 9.60966 13.7587 9.70495C15.8926 10.2767 17.1589 12.4701 16.5872 14.6039C16.4962 14.9435 16.3641 15.2611 16.1978 15.5528L17.0365 16.112C17.3428 16.3162 17.4256 16.7301 17.2214 17.0365C17.0171 17.3428 16.6032 17.4256 16.2969 17.2214L15.3473 16.5884ZM12.6667 12.6667C13.0349 12.6667 13.3333 12.3682 13.3333 12C13.3333 11.6318 13.0349 11.3334 12.6667 11.3334C12.2985 11.3334 12 11.6318 12 12C12 12.3682 12.2985 12.6667 12.6667 12.6667Z" fill="rgb(248,216,75)" fill-rule="evenodd" />
			<path id="Shape" d="M15.3473 16.5884C14.3777 17.4293 13.0213 17.7896 11.6882 17.4324C11.3326 17.3371 11.1215 16.9715 11.2168 16.6159C11.3121 16.2602 11.6776 16.0492 12.0333 16.1445C12.7924 16.3479 13.5628 16.2023 14.1742 15.8062L12.2969 14.5547C11.9905 14.3505 11.9077 13.9366 12.112 13.6302C12.3162 13.3239 12.7301 13.2411 13.0365 13.4453L15.0841 14.8104C15.1742 14.6385 15.2469 14.4541 15.2993 14.2588C15.6805 12.8363 14.8362 11.374 13.4137 10.9929C13.058 10.8976 12.847 10.532 12.9423 10.1764C13.0375 9.82071 13.4031 9.60966 13.7587 9.70495C15.8926 10.2767 17.1589 12.4701 16.5872 14.6039C16.4962 14.9435 16.3641 15.2611 16.1978 15.5528L17.0365 16.112C17.3428 16.3162 17.4256 16.7301 17.2214 17.0365C17.0171 17.3428 16.6032 17.4256 16.2969 17.2214L15.3473 16.5884ZM12.6667 12.6667C13.0349 12.6667 13.3333 12.3682 13.3333 12C13.3333 11.6318 13.0349 11.3334 12.6667 11.3334C12.2985 11.3334 12 11.6318 12 12C12 12.3682 12.2985 12.6667 12.6667 12.6667Z" fill-rule="evenodd" stroke="rgb(150.96,150.96,150.96)" stroke-opacity="0" stroke-width="0" />
		</g>
	</g>
</svg>
