<svg width="30.000000" height="28.000000" viewBox="0 0 30 28" fill="none" xmlns="http://www.w3.org/2000/svg" xmlns:xlink="http://www.w3.org/1999/xlink">
	<desc>
			Created with Pixso.
	</desc>
	<defs>
		<filter id="filter_17_6294_dd" x="0.000000" y="4.000000" width="30.000000" height="22.000000" filterUnits="userSpaceOnUse" color-interpolation-filters="sRGB">
			<feFlood flood-opacity="0" result="BackgroundImageFix"/>
			<feColorMatrix in="SourceAlpha" type="matrix" values="0 0 0 0 0 0 0 0 0 0 0 0 0 0 0 0 0 0 127 0" result="hardAlpha"/>
			<feOffset dx="0" dy="1"/>
			<feGaussianBlur stdDeviation="0.333333"/>
			<feComposite in2="hardAlpha" operator="out" k2="-1" k3="1"/>
			<feColorMatrix type="matrix" values="0 0 0 0 0 0 0 0 0 0 0 0 0 0 0 0 0 0 0.16 0"/>
			<feBlend mode="normal" in2="BackgroundImageFix" result="effect_dropShadow_1"/>
			<feBlend mode="normal" in="SourceGraphic" in2="effect_dropShadow_1" result="shape"/>
		</filter>
	</defs>
	<rect id="Aruba" width="28.000000" height="28.000000" transform="translate(1.000000 0.000000)" fill="#FFFFFF" fill-opacity="0"/>
	<rect id="Mask" x="1.000000" y="4.000000" rx="3.000000" width="28.000000" height="20.000000" fill="#FFFFFF" fill-opacity="1.000000"/>
	<rect id="Mask" x="1.000000" y="4.000000" rx="3.000000" width="28.000000" height="20.000000" stroke="#979797" stroke-opacity="0" stroke-width="0.000000"/>
	<mask id="mask17_6293" mask-type="alpha" maskUnits="userSpaceOnUse" x="1.000000" y="4.000000" width="28.000000" height="20.000000">
		<rect id="Mask" x="1.000000" y="4.000000" rx="3.000000" width="28.000000" height="20.000000" fill="#FFFFFF" fill-opacity="1.000000"/>
		<rect id="Mask" x="1.000000" y="4.000000" rx="3.000000" width="28.000000" height="20.000000" stroke="#979797" stroke-opacity="0" stroke-width="0.000000"/>
	</mask>
	<g mask="url(#mask17_6293)">
		<g filter="url(#filter_17_6294_dd)">
			<rect id="Mask Copy" x="1.000000" y="4.000000" width="28.000000" height="20.000000" fill="#4189DD" fill-opacity="1.000000"/>
		</g>
		<rect id="Mask Copy" x="1.000000" y="4.000000" width="28.000000" height="20.000000" stroke="#979797" stroke-opacity="0" stroke-width="0.000000"/>
	</g>
	<g mask="url(#mask17_6293)">
		<path id="Star 2" d="M5.64 7.98L6.33 6.66L7.02 7.98L8.33 8.66L7.02 9.35L6.33 10.66L5.64 9.35L4.33 8.66L5.64 7.98Z" fill="#D21034" fill-opacity="1.000000" fill-rule="evenodd"/>
		<path id="Star 2" d="M7.51 7.48L6.92 6.35L6.33 5.22L5.15 7.48L2.89 8.66L5.15 9.84L6.33 12.1L7.51 9.84L9.77 8.66L7.51 7.48ZM7.02 7.98L6.71 7.38L6.33 6.66L5.95 7.38L5.64 7.98L5.05 8.29L4.33 8.66L5.05 9.04L5.64 9.35L5.95 9.94L6.33 10.66L6.71 9.94L7.02 9.35L7.61 9.04L8.33 8.66L7.61 8.29L7.02 7.98Z" fill="#FFFFFF" fill-opacity="1.000000" fill-rule="evenodd"/>
	</g>
	<g mask="url(#mask17_6293)">
		<rect id="Rectangle 1223" x="1.000000" y="18.666687" width="28.000000" height="1.333333" fill="#F9D616" fill-opacity="1.000000"/>
		<rect id="Rectangle 1223" x="1.000000" y="18.666687" width="28.000000" height="1.333333" stroke="#979797" stroke-opacity="0" stroke-width="0.000000"/>
	</g>
	<g mask="url(#mask17_6293)">
		<rect id="Rectangle 1223" x="1.000000" y="16.000000" width="28.000000" height="1.333333" fill="#F9D616" fill-opacity="1.000000"/>
		<rect id="Rectangle 1223" x="1.000000" y="16.000000" width="28.000000" height="1.333333" stroke="#979797" stroke-opacity="0" stroke-width="0.000000"/>
	</g>
</svg>
