<svg width="28.000000" height="28.000000" viewBox="0 0 28 28" fill="none" xmlns="http://www.w3.org/2000/svg" xmlns:xlink="http://www.w3.org/1999/xlink">
	<desc>
			Created with Pixso.
	</desc>
	<defs>
		<linearGradient id="paint_linear_17_6008_0" x1="0.000000" y1="4.000000" x2="0.000000" y2="24.000000" gradientUnits="userSpaceOnUse">
			<stop stop-color="#1132C7"/>
			<stop offset="1.000000" stop-color="#0522A5"/>
		</linearGradient>
	</defs>
	<rect id="Barbados" width="28.000000" height="28.000000" fill="#FFFFFF" fill-opacity="0"/>
	<rect id="Mask" y="4.000000" rx="3.000000" width="28.000000" height="20.000000" fill="#FFFFFF" fill-opacity="1.000000"/>
	<rect id="Mask" y="4.000000" rx="3.000000" width="28.000000" height="20.000000" stroke="#979797" stroke-opacity="0" stroke-width="0.000000"/>
	<mask id="mask17_6007" mask-type="alpha" maskUnits="userSpaceOnUse" x="0.000000" y="4.000000" width="28.000000" height="20.000000">
		<rect id="Mask" y="4.000000" rx="3.000000" width="28.000000" height="20.000000" fill="#FFFFFF" fill-opacity="1.000000"/>
		<rect id="Mask" y="4.000000" rx="3.000000" width="28.000000" height="20.000000" stroke="#979797" stroke-opacity="0" stroke-width="0.000000"/>
	</mask>
	<g mask="url(#mask17_6007)">
		<rect id="Mask Copy" y="4.000000" width="28.000000" height="20.000000" fill="url(#paint_linear_17_6008_0)" fill-opacity="1.000000"/>
		<rect id="Mask Copy" y="4.000000" width="28.000000" height="20.000000" stroke="#979797" stroke-opacity="0" stroke-width="0.000000"/>
	</g>
	<g mask="url(#mask17_6007)">
		<rect id="Mask" x="13.333313" y="4.000000" width="14.666667" height="20.000000" fill="#08379D" fill-opacity="1.000000"/>
		<rect id="Mask" x="13.333313" y="4.000000" width="14.666667" height="20.000000" stroke="#979797" stroke-opacity="0" stroke-width="0.000000"/>
	</g>
	<g mask="url(#mask17_6007)">
		<path id="Rectangle 2" d="M0 24L9.33 24L9.33 4L0 4L0 24Z" fill="#08379D" fill-opacity="1.000000" fill-rule="evenodd"/>
		<path id="Rectangle 2" d="M9.33 24L9.33 4L0 4L0 24L9.33 24Z" stroke="#979797" stroke-opacity="0" stroke-width="0.000000"/>
	</g>
	<g mask="url(#mask17_6007)">
		<path id="Rectangle 2 Copy" d="M9.33 24L18.66 24L18.66 4L9.33 4L9.33 24Z" fill="#FFCC50" fill-opacity="1.000000" fill-rule="evenodd"/>
		<path id="Rectangle 2 Copy" d="M18.66 24L18.66 4L9.33 4L9.33 24L18.66 24Z" stroke="#979797" stroke-opacity="0" stroke-width="0.000000"/>
	</g>
	<g mask="url(#mask17_6007)">
		<path id="Line" d="M13.74 10.41C13.87 10.21 14.17 10.21 14.3 10.41L14.99 11.48C15.14 11.7 14.98 12 14.71 12L14.7 12C14.5 12 14.35 12.17 14.37 12.36L14.63 15.03C14.65 15.2 14.79 15.33 14.96 15.33L15.19 15.33C15.28 15.33 15.36 15.29 15.43 15.23L15.9 14.77C15.96 14.7 16 14.62 16 14.53L16 13.47C16 13.38 15.96 13.29 15.9 13.23L15.71 13.04C15.53 12.87 15.6 12.57 15.84 12.49L16.79 12.17C17.03 12.09 17.27 12.3 17.23 12.55L16.73 15.22C16.72 15.29 16.69 15.35 16.64 15.4L15.43 16.57C15.36 16.63 15.28 16.66 15.19 16.66L15 16.66C14.81 16.66 14.66 16.81 14.66 17L14.66 17.66C14.66 17.85 14.51 18 14.33 18L13.66 18C13.48 18 13.33 17.85 13.33 17.66L13.33 17C13.33 16.81 13.18 16.66 13 16.66L12.8 16.66C12.71 16.66 12.63 16.63 12.56 16.56L11.4 15.4C11.35 15.35 11.32 15.29 11.31 15.23L10.77 12.56C10.72 12.31 10.96 12.1 11.21 12.18L12.15 12.49C12.39 12.57 12.46 12.87 12.28 13.04L12.09 13.23C12.03 13.29 12 13.38 12 13.47L12 14.53C12 14.62 12.03 14.7 12.09 14.77L12.56 15.23C12.63 15.29 12.71 15.33 12.8 15.33L13.03 15.33C13.2 15.33 13.34 15.2 13.36 15.03L13.63 12.36C13.64 12.17 13.49 12 13.29 12L13.29 12C13.03 12 12.87 11.7 13.02 11.47L13.74 10.41Z" fill="#262626" fill-opacity="1.000000" fill-rule="evenodd"/>
		<path id="Line" d="M14.99 11.48C15.14 11.7 14.98 12 14.71 12L14.7 12C14.5 12 14.35 12.17 14.37 12.36L14.63 15.03C14.65 15.2 14.79 15.33 14.96 15.33L15.19 15.33C15.28 15.33 15.36 15.29 15.43 15.23L15.9 14.77C15.96 14.7 16 14.62 16 14.53L16 13.47C16 13.38 15.96 13.29 15.9 13.23L15.71 13.04C15.53 12.87 15.6 12.57 15.84 12.49L16.79 12.17C17.03 12.09 17.27 12.3 17.23 12.55L16.73 15.22C16.72 15.29 16.69 15.35 16.64 15.4L15.43 16.57C15.36 16.63 15.28 16.66 15.19 16.66L15 16.66C14.81 16.66 14.66 16.81 14.66 17L14.66 17.66C14.66 17.85 14.51 18 14.33 18L13.66 18C13.48 18 13.33 17.85 13.33 17.66L13.33 17C13.33 16.81 13.18 16.66 13 16.66L12.8 16.66C12.71 16.66 12.63 16.63 12.56 16.56L11.4 15.4C11.35 15.35 11.32 15.29 11.31 15.23L10.77 12.56C10.72 12.31 10.96 12.1 11.21 12.18L12.15 12.49C12.39 12.57 12.46 12.87 12.28 13.04L12.09 13.23C12.03 13.29 12 13.38 12 13.47L12 14.53C12 14.62 12.03 14.7 12.09 14.77L12.56 15.23C12.63 15.29 12.71 15.33 12.8 15.33L13.03 15.33C13.2 15.33 13.34 15.2 13.36 15.03L13.63 12.36C13.64 12.17 13.49 12 13.29 12L13.29 12C13.02 12 12.87 11.7 13.02 11.47L13.74 10.41C13.87 10.21 14.17 10.21 14.3 10.41L14.99 11.48Z" stroke="#979797" stroke-opacity="0" stroke-width="0.000000"/>
	</g>
</svg>
