<svg width="29.000000" height="28.000000" viewBox="0 0 29 28" fill="none" xmlns="http://www.w3.org/2000/svg" xmlns:xlink="http://www.w3.org/1999/xlink">
	<desc>
			Created with Pixso.
	</desc>
	<defs>
		<linearGradient id="paint_linear_17_6139_0" x1="19.000000" y1="12.000000" x2="19.000000" y2="14.666667" gradientUnits="userSpaceOnUse">
			<stop stop-color="#E20B0C"/>
			<stop offset="1.000000" stop-color="#D40001"/>
		</linearGradient>
		<linearGradient id="paint_linear_17_6146_0" x1="1.000000" y1="4.000000" x2="1.000000" y2="13.333333" gradientUnits="userSpaceOnUse">
			<stop stop-color="#DB1E36"/>
			<stop offset="1.000000" stop-color="#D51931"/>
		</linearGradient>
	</defs>
	<rect id="Bermuda" width="28.000000" height="28.000000" transform="translate(1.000000 0.000000)" fill="#FFFFFF" fill-opacity="0"/>
	<rect id="Mask" x="1.000000" y="4.000000" rx="3.000000" width="28.000000" height="20.000000" fill="#FFFFFF" fill-opacity="1.000000"/>
	<rect id="Mask" x="1.000000" y="4.000000" rx="3.000000" width="28.000000" height="20.000000" stroke="#979797" stroke-opacity="0" stroke-width="0.000000"/>
	<mask id="mask17_6132" mask-type="alpha" maskUnits="userSpaceOnUse" x="1.000000" y="4.000000" width="28.000000" height="20.000000">
		<rect id="Mask" x="1.000000" y="4.000000" rx="3.000000" width="28.000000" height="20.000000" fill="#FFFFFF" fill-opacity="1.000000"/>
		<rect id="Mask" x="1.000000" y="4.000000" rx="3.000000" width="28.000000" height="20.000000" stroke="#979797" stroke-opacity="0" stroke-width="0.000000"/>
	</mask>
	<g mask="url(#mask17_6132)">
		<rect id="Mask Copy" x="1.000000" y="4.000000" width="28.000000" height="20.000000" fill="#DC1F37" fill-opacity="1.000000"/>
		<rect id="Mask Copy" x="1.000000" y="4.000000" width="28.000000" height="20.000000" stroke="#979797" stroke-opacity="0" stroke-width="0.000000"/>
	</g>
	<g mask="url(#mask17_6132)">
		<rect id="Rectangle 1115" x="1.000000" y="4.000000" width="12.000000" height="9.333333" fill="#042C90" fill-opacity="1.000000"/>
		<rect id="Rectangle 1115" x="1.000000" y="4.000000" width="12.000000" height="9.333333" stroke="#979797" stroke-opacity="0" stroke-width="0.000000"/>
	</g>
	<g mask="url(#mask17_6132)">
		<path id="Mask" d="M18.33 14C18.33 12 18.33 10.66 18.33 10.66L21 10.66L23.66 10.66C23.66 10.66 23.66 12 23.66 14C23.66 16 21 17.33 21 17.33C21 17.33 18.33 16 18.33 14Z" fill="#FFFFFF" fill-opacity="1.000000" fill-rule="evenodd"/>
		<path id="Mask" d="M18.33 10.66L21 10.66L23.66 10.66C23.66 10.66 23.66 12 23.66 14C23.66 16 21 17.33 21 17.33C21 17.33 18.33 16 18.33 14C18.33 12 18.33 10.66 18.33 10.66Z" stroke="#979797" stroke-opacity="0" stroke-width="0.000000"/>
		<mask id="mask17_6137" mask-type="alpha" maskUnits="userSpaceOnUse" x="18.333313" y="10.666687" width="5.333328" height="6.666687">
			<path id="Mask" d="M18.33 14C18.33 12 18.33 10.66 18.33 10.66L21 10.66L23.66 10.66C23.66 10.66 23.66 12 23.66 14C23.66 16 21 17.33 21 17.33C21 17.33 18.33 16 18.33 14Z" fill="#FFFFFF" fill-opacity="1.000000" fill-rule="evenodd"/>
			<path id="Mask" d="M18.33 10.66L21 10.66L23.66 10.66C23.66 10.66 23.66 12 23.66 14C23.66 16 21 17.33 21 17.33C21 17.33 18.33 16 18.33 14C18.33 12 18.33 10.66 18.33 10.66Z" stroke="#979797" stroke-opacity="0" stroke-width="0.000000"/>
		</mask>
		<g mask="url(#mask17_6137)">
			<path id="Oval 173" d="M21 16C21.73 16 22.33 15.4 22.33 14.66C22.33 13.93 21.73 13.33 21 13.33C20.26 13.33 19.66 13.93 19.66 14.66C19.66 15.4 20.26 16 21 16Z" fill="#65B5D2" fill-opacity="1.000000" fill-rule="evenodd"/>
			<path id="Oval 173" d="M22.33 14.66C22.33 13.93 21.73 13.33 21 13.33C20.26 13.33 19.66 13.93 19.66 14.66C19.66 15.4 20.26 16 21 16C21.73 16 22.33 15.4 22.33 14.66Z" stroke="#979797" stroke-opacity="0" stroke-width="0.000000"/>
		</g>
		<g mask="url(#mask17_6137)">
			<mask id="mask_17_6139" fill="white">
				<path id="Oval 174" d="M21 13.3333C21.3682 13.3333 21.6667 13.0349 21.6667 12.6667C21.6667 12.2985 21.3682 12 21 12C20.6318 12 20.3333 12.2985 20.3333 12.6667C20.3333 13.0349 20.6318 13.3333 21 13.3333ZM19.6667 14.6667C20.0349 14.6667 20.3333 14.3682 20.3333 14C20.3333 13.6318 20.0349 13.3333 19.6667 13.3333C19.2985 13.3333 19 13.6318 19 14C19 14.3682 19.2985 14.6667 19.6667 14.6667ZM23 14C23 14.3682 22.7015 14.6667 22.3333 14.6667C21.9651 14.6667 21.6667 14.3682 21.6667 14C21.6667 13.6318 21.9651 13.3333 22.3333 13.3333C22.7015 13.3333 23 13.6318 23 14Z" clip-rule="evenodd" fill="" fill-opacity="1.000000" fill-rule="evenodd"/>
			</mask>
			<path id="Oval 174" d="M21 13.3333C21.3682 13.3333 21.6667 13.0349 21.6667 12.6667C21.6667 12.2985 21.3682 12 21 12C20.6318 12 20.3333 12.2985 20.3333 12.6667C20.3333 13.0349 20.6318 13.3333 21 13.3333ZM19.6667 14.6667C20.0349 14.6667 20.3333 14.3682 20.3333 14C20.3333 13.6318 20.0349 13.3333 19.6667 13.3333C19.2985 13.3333 19 13.6318 19 14C19 14.3682 19.2985 14.6667 19.6667 14.6667ZM23 14C23 14.3682 22.7015 14.6667 22.3333 14.6667C21.9651 14.6667 21.6667 14.3682 21.6667 14C21.6667 13.6318 21.9651 13.3333 22.3333 13.3333C22.7015 13.3333 23 13.6318 23 14Z" clip-rule="evenodd" fill="url(#paint_linear_17_6139_0)" fill-opacity="1.000000" fill-rule="evenodd" mask="url(#mask_17_6139)"/>
			<path id="Oval 174" d="" fill="#979797" fill-opacity="0.000000" fill-rule="nonzero"/>
		</g>
		<g mask="url(#mask17_6137)">
			<rect id="Rectangle 1106" x="18.333313" y="16.000000" width="5.333333" height="1.333333" fill="#2F8F22" fill-opacity="1.000000"/>
			<rect id="Rectangle 1106" x="18.333313" y="16.000000" width="5.333333" height="1.333333" stroke="#979797" stroke-opacity="0" stroke-width="0.000000"/>
		</g>
	</g>
	<g mask="url(#mask17_6132)">
		<path id="Rectangle 36" d="M5.66 8L1 4L1.66 4L6.33 7.33L7.66 7.33L13 4L13 4.49C13 4.6 12.94 4.7 12.86 4.76L8.33 8L8.33 9.33L12.54 12.94C12.7 13.07 12.6 13.33 12.4 13.33L12.4 13.33C12.35 13.33 12.31 13.31 12.27 13.29L7.66 10L6.33 10L1 13.33L1 12.66L5.66 9.33L5.66 8Z" fill="#DB1E36" fill-opacity="1.000000" fill-rule="evenodd"/>
		<path id="Rectangle 36" d="M1.88 3.33L-0.81 3.33L5 8.3L5 8.99L0.33 12.32L0.33 14.53L6.52 10.66L7.45 10.66L11.88 13.83Q12 13.91 12.13 13.95Q12.26 14 12.4 14Q12.55 14 12.69 13.95Q12.82 13.9 12.93 13.82Q13.03 13.75 13.1 13.65Q13.18 13.55 13.23 13.42Q13.28 13.29 13.29 13.15Q13.29 13.03 13.26 12.91Q13.23 12.77 13.17 12.66Q13.09 12.54 12.98 12.43L9 9.02L9 8.34L13.24 5.3Q13.34 5.23 13.42 5.14Q13.5 5.06 13.55 4.95Q13.61 4.84 13.63 4.73Q13.66 4.61 13.66 4.49L13.66 2.79L7.47 6.66L6.54 6.66L1.88 3.33ZM6.33 7.33L3.81 5.53L1.66 4L1 4L1.41 4.35L1.66 4.57L3.4 6.05L5.66 8L5.66 9.33L1 12.66L1 13.33L1.32 13.12L1.66 12.91L2.7 12.26L6.33 10L7.66 10L10.18 11.8L11.96 13.06L12.27 13.29C12.31 13.31 12.35 13.33 12.4 13.33C12.6 13.33 12.7 13.07 12.54 12.94L12.25 12.69L10.59 11.27L8.33 9.33L8.33 8L11.66 5.62L12.86 4.76C12.94 4.7 13 4.6 13 4.49L13 4L12.34 4.41L12.33 4.41L11.29 5.06L7.66 7.33L6.33 7.33Z" fill="#FFFFFF" fill-opacity="1.000000" fill-rule="evenodd"/>
	</g>
	<g mask="url(#mask17_6132)">
		<path id="Rectangle 2" d="M1 7.33L1 10L5.66 10L5.66 13.33C5.66 13.7 5.96 14 6.33 14L7.66 14C8.03 14 8.33 13.7 8.33 13.33L8.33 10L13 10C13.36 10 13.66 9.7 13.66 9.33L13.66 8C13.66 7.63 13.36 7.33 13 7.33L8.33 7.33L8.33 4L5.66 4L5.66 7.33L1 7.33Z" fill="#FFFFFF" fill-opacity="1.000000" fill-rule="evenodd"/>
		<path id="Rectangle 2" d="M1 10L5.66 10L5.66 13.33C5.66 13.7 5.96 14 6.33 14L7.66 14C8.03 14 8.33 13.7 8.33 13.33L8.33 10L13 10C13.36 10 13.66 9.7 13.66 9.33L13.66 8C13.66 7.63 13.36 7.33 13 7.33L8.33 7.33L8.33 4L5.66 4L5.66 7.33L1 7.33L1 10Z" stroke="#979797" stroke-opacity="0" stroke-width="0.000000"/>
	</g>
	<g mask="url(#mask17_6132)">
		<path id="Rectangle 36" d="M1 8L6.33 8L6.33 7.33L6.33 4L7.66 4L7.66 7.33L7.66 8L13 8L13 9.33L7.66 9.33L7.66 10L7.66 13.33L6.33 13.33L6.33 10L6.33 9.33L1 9.33L1 8Z" fill="url(#paint_linear_17_6146_0)" fill-opacity="1.000000" fill-rule="evenodd"/>
		<path id="Rectangle 36" d="M6.33 8L6.33 7.33L6.33 4L7.66 4L7.66 7.33L7.66 8L13 8L13 9.33L7.66 9.33L7.66 10L7.66 13.33L6.33 13.33L6.33 10L6.33 9.33L1 9.33L1 8L6.33 8Z" stroke="#979797" stroke-opacity="0" stroke-width="0.000000"/>
	</g>
</svg>
