<svg width="28.000000" height="28.000000" viewBox="0 0 28 28" fill="none" xmlns="http://www.w3.org/2000/svg" xmlns:xlink="http://www.w3.org/1999/xlink">
	<desc>
			Created with Pixso.
	</desc>
	<defs>
		<clipPath id="clip107709_1126">
			<rect id="Bonaire" width="28.000000" height="28.000000" transform="translate(28.000000 28.000000) rotate(180.000000)" fill="white" fill-opacity="0"/>
		</clipPath>
	</defs>
	<rect id="Bonaire" width="28.000000" height="28.000000" transform="translate(28.000000 28.000000) rotate(180.000000)" fill="#FFFFFF" fill-opacity="0"/>
	<g>
		<rect id="Mask Copy" y="4.000000" rx="3.000000" width="28.000000" height="20.000000" fill="#FFFFFF" fill-opacity="1.000000"/>
		<rect id="Mask Copy" x="0.250000" y="4.250000" rx="3.000000" width="27.500000" height="19.500000" stroke="#D6D8DD" stroke-opacity="1.000000" stroke-width="0.500000"/>
		<mask id="mask_107709_1099" fill="white">
			<path id="Subtract" d="M27.0652 4.82391L1.07648 23.3023C1.59723 23.7379 2.26801 24 3 24L25 24C26.6569 24 28 22.6569 28 21L28 7C28 6.14337 27.641 5.37061 27.0652 4.82391Z" clip-rule="evenodd" fill="" fill-opacity="1.000000" fill-rule="evenodd"/>
		</mask>
		<path id="Subtract" d="M27.0652 4.82391L1.07648 23.3023C1.59723 23.7379 2.26801 24 3 24L25 24C26.6569 24 28 22.6569 28 21L28 7C28 6.14337 27.641 5.37061 27.0652 4.82391Z" clip-rule="evenodd" fill="#003087" fill-opacity="1.000000" fill-rule="evenodd" mask="url(#mask_107709_1099)"/>
		<path id="Subtract" d="" clip-rule="evenodd" fill="#F5F5F5" fill-opacity="0.000000" fill-rule="evenodd"/>
		<mask id="mask_107709_1102" fill="white">
			<path id="Subtract" d="M11.4586 3.99994L3 3.99994C1.34314 3.99994 0 5.34314 0 6.99994L0 12.1472L11.4586 3.99994Z" clip-rule="evenodd" fill="" fill-opacity="1.000000" fill-rule="evenodd"/>
		</mask>
		<path id="Subtract" d="M11.4586 3.99994L3 3.99994C1.34314 3.99994 0 5.34314 0 6.99994L0 12.1472L11.4586 3.99994Z" clip-rule="evenodd" fill="#FFD700" fill-opacity="1.000000" fill-rule="evenodd" mask="url(#mask_107709_1102)"/>
		<path id="Subtract" d="" clip-rule="evenodd" fill="#F5F5F5" fill-opacity="0.000000" fill-rule="evenodd"/>
		<circle id="Ellipse 2890" cx="7.650543" cy="12.643799" r="3.808125" fill="#D9D9D9" fill-opacity="0"/>
		<circle id="Ellipse 2890" cx="7.650543" cy="12.643799" r="3.458126" stroke="#000000" stroke-opacity="1.000000" stroke-width="0.700000"/>
		<path id="Union" d="M8.31171 11.5156L7.65045 10.3651L6.98917 11.5156L5.69217 11.5156L6.34067 12.6439L5.69214 13.7722L6.9892 13.7722L7.65048 14.9226L8.31174 13.7722L9.60876 13.7722L8.96024 12.6439L9.60876 11.5156L8.31171 11.5156Z" clip-rule="evenodd" fill="#D50032" fill-opacity="1.000000" fill-rule="evenodd"/>
	</g>
</svg>
