<svg width="28.000000" height="28.000000" viewBox="0 0 28 28" fill="none" xmlns="http://www.w3.org/2000/svg" xmlns:xlink="http://www.w3.org/1999/xlink">
	<desc>
			Created with Pixso.
	</desc>
	<defs/>
	<rect id="Burkina Faso" width="28.000000" height="28.000000" fill="#FFFFFF" fill-opacity="0"/>
	<rect id="Mask" y="4.000000" rx="3.000000" width="28.000000" height="20.000000" fill="#FFFFFF" fill-opacity="1.000000"/>
	<rect id="Mask" y="4.000000" rx="3.000000" width="28.000000" height="20.000000" stroke="#979797" stroke-opacity="0" stroke-width="0.000000"/>
	<mask id="mask17_6126" mask-type="alpha" maskUnits="userSpaceOnUse" x="0.000000" y="4.000000" width="28.000000" height="20.000000">
		<rect id="Mask" y="4.000000" rx="3.000000" width="28.000000" height="20.000000" fill="#FFFFFF" fill-opacity="1.000000"/>
		<rect id="Mask" y="4.000000" rx="3.000000" width="28.000000" height="20.000000" stroke="#979797" stroke-opacity="0" stroke-width="0.000000"/>
	</mask>
	<g mask="url(#mask17_6126)">
		<path id="Rectangle 2" d="M0 24L28 24L28 14.66L0 14.66L0 24Z" fill="#00B051" fill-opacity="1.000000" fill-rule="evenodd"/>
		<path id="Rectangle 2" d="M28 24L28 14.66L0 14.66L0 24L28 24Z" stroke="#979797" stroke-opacity="0" stroke-width="0.000000"/>
	</g>
	<g mask="url(#mask17_6126)">
		<path id="Rectangle 2" d="M0 14.66L28 14.66L28 4L0 4L0 14.66Z" fill="#FA494B" fill-opacity="1.000000" fill-rule="evenodd"/>
		<path id="Rectangle 2" d="M28 14.66L28 4L0 4L0 14.66L28 14.66Z" stroke="#979797" stroke-opacity="0" stroke-width="0.000000"/>
	</g>
	<g mask="url(#mask17_6126)">
		<path id="Star 8" d="M14 16.22L11.64 17.9L12.51 15.14L10.19 13.43L13.08 13.4L14 10.66L14.91 13.4L17.8 13.43L15.48 15.14L16.35 17.9L14 16.22Z" fill="#FDD216" fill-opacity="1.000000" fill-rule="evenodd"/>
		<path id="Star 8" d="M11.64 17.9L12.51 15.14L10.19 13.43L13.08 13.4L14 10.66L14.91 13.4L17.8 13.43L15.48 15.14L16.35 17.9L14 16.22L11.64 17.9Z" stroke="#979797" stroke-opacity="0" stroke-width="0.000000"/>
	</g>
</svg>
