<svg viewBox="0 0 28 28" xmlns="http://www.w3.org/2000/svg" xmlns:xlink="http://www.w3.org/1999/xlink" width="28.000000" height="28.000000" fill="none" customFrame="#000000">
	<defs>
		<filter id="pixso_custom_mask_type_alpha">
			<feColorMatrix type="matrix" values="0 0 0 0 1 0 0 0 0 1 0 0 0 0 1 0 0 0 1 0 " />
		</filter>
	</defs>
	<mask id="mask_360" width="28.000000" height="20.000000" x="0.000000" y="4.000000" maskUnits="userSpaceOnUse">
		<g filter="url(#pixso_custom_mask_type_alpha)">
			<rect id="Mask" width="28.000000" height="20.000000" x="0.000000" y="4.000000" rx="3.000000" fill="rgb(255,255,255)" />
			<rect id="Mask" width="28.000000" height="20.000000" x="0.000000" y="4.000000" rx="3.000000" stroke="rgb(150.96,150.96,150.96)" stroke-opacity="0" stroke-width="0" />
		</g>
	</mask>
	<rect id="Burundi" width="28.000000" height="28.000000" x="0.000000" y="0.000000" fill="rgb(255,255,255)" fill-opacity="0" />
	<rect id="Mask" width="28.000000" height="20.000000" x="0.000000" y="4.000000" rx="3.000000" fill="rgb(255,255,255)" />
	<rect id="Mask" width="28.000000" height="20.000000" x="0.000000" y="4.000000" rx="3.000000" stroke="rgb(150.96,150.96,150.96)" stroke-opacity="0" stroke-width="0" />
	<g mask="url(#mask_360)">
		<rect id="Mask Copy" width="28.000000" height="20.000000" x="0.000000" y="4.000000" fill="rgb(228,35,59)" />
		<rect id="Mask Copy" width="28.000000" height="20.000000" x="0.000000" y="4.000000" stroke="rgb(150.96,150.96,150.96)" stroke-opacity="0" stroke-width="0" />
		<path id="Rectangle 253" d="M0 4L12 14L0 24L0 4Z" fill="rgb(52,205,78)" fill-rule="evenodd" />
		<path id="Rectangle 253" d="M12 14L0 24L0 4L12 14Z" fill-rule="evenodd" stroke="rgb(150.96,150.96,150.96)" stroke-opacity="0" stroke-width="0" />
		<path id="Rectangle 253" d="M0 0L12 10L0 20L0 0Z" fill="rgb(52,205,78)" fill-rule="evenodd" transform="matrix(-1,0,0,1,28,4)" />
		<path id="Rectangle 253" d="M12 10L0 20L0 0L12 10Z" fill-rule="evenodd" stroke="rgb(150.96,150.96,150.96)" stroke-opacity="0" stroke-width="0" transform="matrix(-1,0,0,1,28,4)" />
		<path id="Rectangle 2" d="M30.7736 23.7057L29.2824 25.9165L16.9621 17.6063C16.1563 18.2688 15.1246 18.6667 14 18.6667C12.8753 18.6667 11.8436 18.2688 11.0379 17.6063L-1.2825 25.9165L-2.77368 23.7057L9.54573 15.3961C9.4077 14.9553 9.3333 14.4863 9.3333 14C9.3333 13.5137 9.4077 13.0447 9.54573 12.6039L-2.77368 4.29432L-1.2825 2.08356L11.0379 10.3938C11.8436 9.73116 12.8753 9.33334 14 9.33334C15.1246 9.33334 16.1563 9.73116 16.9621 10.3938L29.2824 2.08356L30.7736 4.29432L18.4542 12.6039C18.5922 13.0447 18.6666 13.5137 18.6666 14C18.6666 14.4863 18.5922 14.9553 18.4542 15.3961L30.7736 23.7057Z" fill="rgb(255,255,255)" fill-rule="evenodd" />
		<path id="Rectangle 2" d="M30.7736 23.7057L29.2824 25.9165L16.9621 17.6063C16.1563 18.2688 15.1246 18.6667 14 18.6667C12.8753 18.6667 11.8436 18.2688 11.0379 17.6063L-1.2825 25.9165L-2.77368 23.7057L9.54573 15.3961C9.4077 14.9553 9.3333 14.4863 9.3333 14C9.3333 13.5137 9.4077 13.0447 9.54573 12.6039L-2.77368 4.29432L-1.2825 2.08356L11.0379 10.3938C11.8436 9.73116 12.8753 9.33334 14 9.33334C15.1246 9.33334 16.1563 9.73116 16.9621 10.3938L29.2824 2.08356L30.7736 4.29432L18.4542 12.6039C18.5922 13.0447 18.6666 13.5137 18.6666 14C18.6666 14.4863 18.5922 14.9553 18.4542 15.3961L30.7736 23.7057Z" fill-rule="evenodd" stroke="rgb(150.96,150.96,150.96)" stroke-opacity="0" stroke-width="0" />
		<path id="Star 2" d="M14 12.6667L13.0572 12.9428L13.3333 12L13.0572 11.0572L14 11.3333L14.9428 11.0572L14.6667 12L14.9428 12.9428L14 12.6667ZM12 16L11.0572 16.2761L11.3333 15.3333L11.0572 14.3905L12 14.6667L12.9428 14.3905L12.6667 15.3333L12.9428 16.2761L12 16ZM15.0572 16.2761L16 16L16.9428 16.2761L16.6667 15.3333L16.9428 14.3905L16 14.6667L15.0572 14.3905L15.3333 15.3333L15.0572 16.2761Z" fill="rgb(223,34,57)" fill-rule="evenodd" />
		<path id="Star 2" d="M14 12.6667L13.0572 12.9428L13.3333 12L13.0572 11.0572L14 11.3333L14.9428 11.0572L14.6667 12L14.9428 12.9428L14 12.6667ZM12 16L11.0572 16.2761L11.3333 15.3333L11.0572 14.3905L12 14.6667L12.9428 14.3905L12.6667 15.3333L12.9428 16.2761L12 16ZM15.0572 16.2761L16 16L16.9428 16.2761L16.6667 15.3333L16.9428 14.3905L16 14.6667L15.0572 14.3905L15.3333 15.3333L15.0572 16.2761Z" fill-rule="evenodd" stroke="rgb(150.96,150.96,150.96)" stroke-opacity="0" stroke-width="0" />
	</g>
</svg>
