<svg width="28.000000" height="28.000000" viewBox="0 0 28 28" fill="none" xmlns="http://www.w3.org/2000/svg" xmlns:xlink="http://www.w3.org/1999/xlink">
	<desc>
			Created with Pixso.
	</desc>
	<defs/>
	<rect id="CAF" width="28.000000" height="28.000000" fill="#FFFFFF" fill-opacity="0"/>
	<rect id="Mask" y="4.000000" rx="3.000000" width="28.000000" height="20.000000" fill="#FFFFFF" fill-opacity="1.000000"/>
	<rect id="Mask" y="4.000000" rx="3.000000" width="28.000000" height="20.000000" stroke="#979797" stroke-opacity="0" stroke-width="0.000000"/>
	<mask id="mask17_3868" mask-type="alpha" maskUnits="userSpaceOnUse" x="0.000000" y="4.000000" width="28.000000" height="20.000000">
		<rect id="Mask" y="4.000000" rx="3.000000" width="28.000000" height="20.000000" fill="#FFFFFF" fill-opacity="1.000000"/>
		<rect id="Mask" y="4.000000" rx="3.000000" width="28.000000" height="20.000000" stroke="#979797" stroke-opacity="0" stroke-width="0.000000"/>
	</mask>
	<g mask="url(#mask17_3868)">
		<rect id="Mask Copy" y="4.000000" width="28.000000" height="20.000000" fill="#19BFBF" fill-opacity="1.000000"/>
		<rect id="Mask Copy" y="4.000000" width="28.000000" height="20.000000" stroke="#979797" stroke-opacity="0" stroke-width="0.000000"/>
	</g>
	<g mask="url(#mask17_3868)">
		<path id="Rectangle 1072" d="M8.02 9.5C8.01 9.39 8.04 9.28 8.12 9.21L10.56 6.76C10.63 6.7 10.71 6.66 10.8 6.66L12.46 6.66C12.58 6.66 12.7 6.73 12.75 6.85L13.24 7.81C13.29 7.92 13.41 8 13.53 8L15.79 8C15.92 8 16.03 8.07 16.09 8.18L17.9 11.81C17.96 11.92 18.07 12 18.2 12L19.33 12C19.6 12 19.76 12.31 19.6 12.53L18.01 14.64C18 14.65 17.99 14.67 17.98 14.69L17.36 15.92C17.34 15.97 17.33 16.02 17.33 16.07L17.33 17.25C17.33 17.3 17.32 17.35 17.29 17.4L16.66 18.66L16 20L15.42 21.14C15.36 21.26 15.25 21.33 15.12 21.33L14.2 21.33C14.07 21.33 13.96 21.26 13.9 21.14L13.36 20.07C13.34 20.02 13.33 19.97 13.33 19.92L13.33 16.13C13.33 16.04 13.29 15.96 13.23 15.9L12.72 15.38C12.68 15.35 12.65 15.3 12.64 15.25L12.07 13.56C12.03 13.42 11.9 13.33 11.75 13.33L8.94 13.33C8.78 13.33 8.64 13.21 8.62 13.05L8.02 9.5Z" fill="#FFFFFF" fill-opacity="1.000000" fill-rule="evenodd"/>
		<path id="Rectangle 1072" d="M10.56 6.76C10.63 6.7 10.71 6.66 10.8 6.66L12.46 6.66C12.58 6.66 12.7 6.73 12.75 6.85L13.24 7.81C13.29 7.92 13.41 8 13.53 8L15.79 8C15.92 8 16.03 8.07 16.09 8.18L17.9 11.81C17.96 11.92 18.07 12 18.2 12L19.33 12C19.6 12 19.76 12.31 19.6 12.53L18.01 14.64C18 14.65 17.98 14.67 17.98 14.69L17.36 15.92C17.34 15.97 17.33 16.02 17.33 16.07L17.33 17.25C17.33 17.3 17.32 17.35 17.29 17.4L16.66 18.66L16 20L15.42 21.14C15.36 21.26 15.25 21.33 15.12 21.33L14.2 21.33C14.07 21.33 13.96 21.26 13.9 21.14L13.36 20.07C13.34 20.02 13.33 19.97 13.33 19.92L13.33 16.13C13.33 16.04 13.29 15.96 13.23 15.9L12.72 15.38C12.68 15.35 12.65 15.3 12.64 15.25L12.07 13.56C12.03 13.42 11.9 13.33 11.75 13.33L8.94 13.33C8.78 13.33 8.64 13.21 8.62 13.05L8.02 9.5C8.01 9.39 8.04 9.28 8.12 9.21L10.56 6.76Z" stroke="#979797" stroke-opacity="0" stroke-width="0.000000"/>
	</g>
	<g mask="url(#mask17_3868)">
		<path id="Rectangle 1073" d="M18.66 17.66C18.66 17.48 18.81 17.33 19 17.33L19.66 17.33C19.85 17.33 20 17.48 20 17.66L20 18.58C20 18.63 19.98 18.69 19.96 18.73L19.42 19.81C19.36 19.92 19.25 19.99 19.12 19.99L19 19.99C18.81 19.99 18.66 19.85 18.66 19.66L18.66 17.66Z" fill="#FFFFFF" fill-opacity="1.000000" fill-rule="evenodd"/>
		<path id="Rectangle 1073" d="M19.66 17.33C19.85 17.33 20 17.48 20 17.66L20 18.58C20 18.63 19.98 18.69 19.96 18.73L19.42 19.81C19.36 19.92 19.25 19.99 19.12 19.99L19 19.99C18.81 19.99 18.66 19.85 18.66 19.66L18.66 17.66C18.66 17.48 18.81 17.33 19 17.33L19.66 17.33Z" stroke="#979797" stroke-opacity="0" stroke-width="0.000000"/>
	</g>
</svg>
