<svg width="28.000000" height="28.000000" viewBox="0 0 28 28" fill="none" xmlns="http://www.w3.org/2000/svg" xmlns:xlink="http://www.w3.org/1999/xlink">
	<desc>
			Created with Pixso.
	</desc>
	<defs>
		<linearGradient id="paint_linear_17_5877_0" x1="13.333344" y1="4.000000" x2="13.333344" y2="24.000000" gradientUnits="userSpaceOnUse">
			<stop stop-color="#FFDC44"/>
			<stop offset="1.000000" stop-color="#FDD216"/>
		</linearGradient>
	</defs>
	<rect id="Cameroon" width="28.000000" height="28.000000" fill="#FFFFFF" fill-opacity="0"/>
	<rect id="Mask" y="4.000000" rx="3.000000" width="28.000000" height="20.000000" fill="#FFFFFF" fill-opacity="1.000000"/>
	<rect id="Mask" y="4.000000" rx="3.000000" width="28.000000" height="20.000000" stroke="#979797" stroke-opacity="0" stroke-width="0.000000"/>
	<mask id="mask17_5876" mask-type="alpha" maskUnits="userSpaceOnUse" x="0.000000" y="4.000000" width="28.000000" height="20.000000">
		<rect id="Mask" y="4.000000" rx="3.000000" width="28.000000" height="20.000000" fill="#FFFFFF" fill-opacity="1.000000"/>
		<rect id="Mask" y="4.000000" rx="3.000000" width="28.000000" height="20.000000" stroke="#979797" stroke-opacity="0" stroke-width="0.000000"/>
	</mask>
	<g mask="url(#mask17_5876)">
		<rect id="Mask" x="13.333344" y="4.000000" width="14.666667" height="20.000000" fill="url(#paint_linear_17_5877_0)" fill-opacity="1.000000"/>
		<rect id="Mask" x="13.333344" y="4.000000" width="14.666667" height="20.000000" stroke="#979797" stroke-opacity="0" stroke-width="0.000000"/>
	</g>
	<g mask="url(#mask17_5876)">
		<path id="Rectangle 2" d="M0 24L9.33 24L9.33 4L0 4L0 24Z" fill="#059170" fill-opacity="1.000000" fill-rule="evenodd"/>
		<path id="Rectangle 2" d="M9.33 24L9.33 4L0 4L0 24L9.33 24Z" stroke="#979797" stroke-opacity="0" stroke-width="0.000000"/>
	</g>
	<g mask="url(#mask17_5876)">
		<path id="Rectangle 2 Copy" d="M9.33 24L18.66 24L18.66 4L9.33 4L9.33 24Z" fill="#E21A30" fill-opacity="1.000000" fill-rule="evenodd"/>
		<path id="Rectangle 2 Copy" d="M18.66 24L18.66 4L9.33 4L9.33 24L18.66 24Z" stroke="#979797" stroke-opacity="0" stroke-width="0.000000"/>
	</g>
	<g mask="url(#mask17_5876)">
		<path id="Rectangle 2 Copy 2" d="M18.66 24L28 24L28 4L18.66 4L18.66 24Z" fill="#FFDC44" fill-opacity="1.000000" fill-rule="evenodd"/>
		<path id="Rectangle 2 Copy 2" d="M28 24L28 4L18.66 4L18.66 24L28 24Z" stroke="#979797" stroke-opacity="0" stroke-width="0.000000"/>
	</g>
	<g mask="url(#mask17_5876)">
		<path id="Star 8" d="M14 15.3L12.04 16.69L12.76 14.4L10.82 12.97L13.23 12.94L14 10.66L14.76 12.94L17.17 12.97L15.23 14.4L15.95 16.69L14 15.3Z" fill="#FFDC42" fill-opacity="1.000000" fill-rule="evenodd"/>
		<path id="Star 8" d="M12.04 16.69L12.76 14.4L10.82 12.97L13.23 12.94L14 10.66L14.76 12.94L17.17 12.97L15.23 14.4L15.95 16.69L14 15.3L12.04 16.69Z" stroke="#979797" stroke-opacity="0" stroke-width="0.000000"/>
	</g>
</svg>
