<svg width="28.000000" height="28.000000" viewBox="0 0 28 28" fill="none" xmlns="http://www.w3.org/2000/svg" xmlns:xlink="http://www.w3.org/1999/xlink">
	<desc>
			Created with Pixso.
	</desc>
	<defs/>
	<rect id="CAS" width="28.000000" height="28.000000" fill="#FFFFFF" fill-opacity="0"/>
	<rect id="Mask" y="4.000000" rx="3.000000" width="28.000000" height="20.000000" fill="#FFFFFF" fill-opacity="1.000000"/>
	<rect id="Mask" y="4.000000" rx="3.000000" width="28.000000" height="20.000000" stroke="#979797" stroke-opacity="0" stroke-width="0.000000"/>
	<mask id="mask17_3883" mask-type="alpha" maskUnits="userSpaceOnUse" x="0.000000" y="4.000000" width="28.000000" height="20.000000">
		<rect id="Mask" y="4.000000" rx="3.000000" width="28.000000" height="20.000000" fill="#FFFFFF" fill-opacity="1.000000"/>
		<rect id="Mask" y="4.000000" rx="3.000000" width="28.000000" height="20.000000" stroke="#979797" stroke-opacity="0" stroke-width="0.000000"/>
	</mask>
	<g mask="url(#mask17_3883)">
		<rect id="Mask Copy" y="4.000000" width="28.000000" height="20.000000" fill="#19BFBF" fill-opacity="1.000000"/>
		<rect id="Mask Copy" y="4.000000" width="28.000000" height="20.000000" stroke="#979797" stroke-opacity="0" stroke-width="0.000000"/>
	</g>
	<g mask="url(#mask17_3883)">
		<mask id="mask_17_3885" fill="white">
			<path id="Rectangle 1078" d="M5.48239 12.3686L5.93826 11.4569C5.97778 11.3778 5.98428 11.2863 5.95633 11.2024L5.5878 10.0969C5.4939 9.81512 5.78751 9.56049 6.0531 9.6933L6.55637 9.94495C6.62753 9.98053 6.70911 9.98947 6.78629 9.97018L9.33334 9.3334L11.9104 8.68915C11.969 8.6745 12.0226 8.6442 12.0653 8.60147L13.9024 6.76437C13.9649 6.70187 14.0497 6.66675 14.1381 6.66675L17 6.66675C17.1841 6.66675 17.3333 6.81598 17.3333 7.00009L17.3333 7.862C17.3333 7.95041 17.2982 8.03519 17.2357 8.09772L17.1699 8.16351C16.9701 8.36334 17.094 8.7056 17.3754 8.73117L23.5136 9.28918C23.7474 9.31046 23.8866 9.56027 23.7816 9.77023L23.4255 10.4825C23.369 10.5954 23.2536 10.6667 23.1273 10.6667L21.4714 10.6667C21.383 10.6667 21.2982 10.7019 21.2357 10.7644L20.3814 11.6187C20.2061 11.7939 20.2766 12.0923 20.5117 12.1706L21.869 12.6231C21.9529 12.651 22.0222 12.7112 22.0617 12.7903L22.5176 13.7019C22.5999 13.8666 22.5332 14.0668 22.3685 14.1491L21.6315 14.5177C21.4668 14.6 21.4001 14.8002 21.4824 14.9649L21.7843 15.5686C21.8834 15.7668 21.7392 16.0001 21.5176 16.0001C21.4047 16.0001 21.3014 15.9363 21.2509 15.8353L20.8735 15.0804C20.7717 14.8769 20.5005 14.8329 20.3397 14.9938L19.569 15.7644C19.4389 15.8946 19.4389 16.1056 19.569 16.2358L19.9024 16.5691C19.9649 16.6316 20 16.7164 20 16.8048L20 17.7941C20 17.9203 19.9286 18.0357 19.8157 18.0922L18.7371 18.6316C18.6908 18.6547 18.6397 18.6667 18.588 18.6667L17.4714 18.6667C17.383 18.6667 17.2982 18.7019 17.2357 18.7644L16.9024 19.0977C16.7722 19.2279 16.7722 19.4389 16.9024 19.5691L17.2357 19.9025C17.2982 19.965 17.3333 20.0497 17.3333 20.1382L17.3333 20.7941C17.3333 21.0419 17.0726 21.203 16.8509 21.0922L16.0484 20.6909C16.0163 20.6749 15.9871 20.6538 15.9618 20.6285L14.7049 19.3717C14.6796 19.3463 14.6585 19.3171 14.6425 19.285L14.332 18.664C14.2033 18.4067 13.8311 18.4222 13.7243 18.6893L12.7505 21.1239C12.6999 21.2504 12.5773 21.3334 12.441 21.3334L12.1784 21.3334C12.067 21.3334 11.9629 21.2777 11.901 21.185L10.7227 19.4174C10.6862 19.3626 10.6667 19.2983 10.6667 19.2325L10.6667 18.2603C10.6667 18.1074 10.5626 17.9741 10.4142 17.937L8.41418 17.437C8.2038 17.3844 8 17.5435 8 17.7603L8 17.7941C8 17.9203 8.07132 18.0357 8.18427 18.0922L8.91968 18.4599C9.12317 18.5617 9.16721 18.8329 9.00632 18.9938L8.66666 19.3334L7.5032 20.4969C7.40176 20.5983 7.24677 20.6235 7.11844 20.5593L6.1235 20.0618C6.04443 20.0223 5.98428 19.953 5.95633 19.8691L5.35043 18.0514C5.33911 18.0174 5.33334 17.9818 5.33334 17.946L5.33334 17.4715C5.33334 17.3831 5.36844 17.2983 5.43097 17.2358L5.61862 17.0481C5.79385 16.8729 5.72342 16.5746 5.48834 16.4962L4.22794 16.076C4.0918 16.0307 4 15.9033 4 15.7598L4 15.0001C4 14.816 4.14923 14.6667 4.33334 14.6667L5.92133 14.6667C5.97305 14.6667 6.02411 14.6788 6.07037 14.7019L7.03519 15.1844C7.19986 15.2667 7.40009 15.1999 7.48239 15.0353L7.85092 14.2982C7.93326 14.1336 7.86652 13.9333 7.70184 13.851L5.63147 12.8158C5.46683 12.7335 5.40009 12.5333 5.48239 12.3686ZM10.6667 14.0001C10.6667 14.3683 10.3682 14.6667 10 14.6667C9.63184 14.6667 9.33334 14.3683 9.33334 14.0001C9.33334 13.6319 9.63184 13.3334 10 13.3334C10.3682 13.3334 10.6667 13.6319 10.6667 14.0001ZM22.6667 16.6667L22.6667 17.3334L21.9024 18.0977C21.6924 18.3077 21.8411 18.6667 22.1381 18.6667L22.4607 18.6667C22.5869 18.6667 22.7023 18.5954 22.7588 18.4825L23.3333 17.3334L22.6667 16.6667ZM22.6667 16.6667L23.0352 16.4825C23.2755 16.3623 23.19 16.0001 22.9213 16.0001C22.7807 16.0001 22.6667 16.1141 22.6667 16.2547L22.6667 16.6667ZM14.6667 20.6667C14.6667 21.0349 14.3682 21.3334 14 21.3334C13.6318 21.3334 13.3333 21.0349 13.3333 20.6667C13.3333 20.2986 13.6318 20.0001 14 20.0001C14.3682 20.0001 14.6667 20.2986 14.6667 20.6667Z" clip-rule="evenodd" fill="" fill-opacity="1.000000" fill-rule="evenodd"/>
		</mask>
		<path id="Rectangle 1078" d="M5.48239 12.3686L5.93826 11.4569C5.97778 11.3778 5.98428 11.2863 5.95633 11.2024L5.5878 10.0969C5.4939 9.81512 5.78751 9.56049 6.0531 9.6933L6.55637 9.94495C6.62753 9.98053 6.70911 9.98947 6.78629 9.97018L9.33334 9.3334L11.9104 8.68915C11.969 8.6745 12.0226 8.6442 12.0653 8.60147L13.9024 6.76437C13.9649 6.70187 14.0497 6.66675 14.1381 6.66675L17 6.66675C17.1841 6.66675 17.3333 6.81598 17.3333 7.00009L17.3333 7.862C17.3333 7.95041 17.2982 8.03519 17.2357 8.09772L17.1699 8.16351C16.9701 8.36334 17.094 8.7056 17.3754 8.73117L23.5136 9.28918C23.7474 9.31046 23.8866 9.56027 23.7816 9.77023L23.4255 10.4825C23.369 10.5954 23.2536 10.6667 23.1273 10.6667L21.4714 10.6667C21.383 10.6667 21.2982 10.7019 21.2357 10.7644L20.3814 11.6187C20.2061 11.7939 20.2766 12.0923 20.5117 12.1706L21.869 12.6231C21.9529 12.651 22.0222 12.7112 22.0617 12.7903L22.5176 13.7019C22.5999 13.8666 22.5332 14.0668 22.3685 14.1491L21.6315 14.5177C21.4668 14.6 21.4001 14.8002 21.4824 14.9649L21.7843 15.5686C21.8834 15.7668 21.7392 16.0001 21.5176 16.0001C21.4047 16.0001 21.3014 15.9363 21.2509 15.8353L20.8735 15.0804C20.7717 14.8769 20.5005 14.8329 20.3397 14.9938L19.569 15.7644C19.4389 15.8946 19.4389 16.1056 19.569 16.2358L19.9024 16.5691C19.9649 16.6316 20 16.7164 20 16.8048L20 17.7941C20 17.9203 19.9286 18.0357 19.8157 18.0922L18.7371 18.6316C18.6908 18.6547 18.6397 18.6667 18.588 18.6667L17.4714 18.6667C17.383 18.6667 17.2982 18.7019 17.2357 18.7644L16.9024 19.0977C16.7722 19.2279 16.7722 19.4389 16.9024 19.5691L17.2357 19.9025C17.2982 19.965 17.3333 20.0497 17.3333 20.1382L17.3333 20.7941C17.3333 21.0419 17.0726 21.203 16.8509 21.0922L16.0484 20.6909C16.0163 20.6749 15.9871 20.6538 15.9618 20.6285L14.7049 19.3717C14.6796 19.3463 14.6585 19.3171 14.6425 19.285L14.332 18.664C14.2033 18.4067 13.8311 18.4222 13.7243 18.6893L12.7505 21.1239C12.6999 21.2504 12.5773 21.3334 12.441 21.3334L12.1784 21.3334C12.067 21.3334 11.9629 21.2777 11.901 21.185L10.7227 19.4174C10.6862 19.3626 10.6667 19.2983 10.6667 19.2325L10.6667 18.2603C10.6667 18.1074 10.5626 17.9741 10.4142 17.937L8.41418 17.437C8.2038 17.3844 8 17.5435 8 17.7603L8 17.7941C8 17.9203 8.07132 18.0357 8.18427 18.0922L8.91968 18.4599C9.12317 18.5617 9.16721 18.8329 9.00632 18.9938L8.66666 19.3334L7.5032 20.4969C7.40176 20.5983 7.24677 20.6235 7.11844 20.5593L6.1235 20.0618C6.04443 20.0223 5.98428 19.953 5.95633 19.8691L5.35043 18.0514C5.33911 18.0174 5.33334 17.9818 5.33334 17.946L5.33334 17.4715C5.33334 17.3831 5.36844 17.2983 5.43097 17.2358L5.61862 17.0481C5.79385 16.8729 5.72342 16.5746 5.48834 16.4962L4.22794 16.076C4.0918 16.0307 4 15.9033 4 15.7598L4 15.0001C4 14.816 4.14923 14.6667 4.33334 14.6667L5.92133 14.6667C5.97305 14.6667 6.02411 14.6788 6.07037 14.7019L7.03519 15.1844C7.19986 15.2667 7.40009 15.1999 7.48239 15.0353L7.85092 14.2982C7.93326 14.1336 7.86652 13.9333 7.70184 13.851L5.63147 12.8158C5.46683 12.7335 5.40009 12.5333 5.48239 12.3686ZM10.6667 14.0001C10.6667 14.3683 10.3682 14.6667 10 14.6667C9.63184 14.6667 9.33334 14.3683 9.33334 14.0001C9.33334 13.6319 9.63184 13.3334 10 13.3334C10.3682 13.3334 10.6667 13.6319 10.6667 14.0001ZM22.6667 16.6667L22.6667 17.3334L21.9024 18.0977C21.6924 18.3077 21.8411 18.6667 22.1381 18.6667L22.4607 18.6667C22.5869 18.6667 22.7023 18.5954 22.7588 18.4825L23.3333 17.3334L22.6667 16.6667ZM22.6667 16.6667L23.0352 16.4825C23.2755 16.3623 23.19 16.0001 22.9213 16.0001C22.7807 16.0001 22.6667 16.1141 22.6667 16.2547L22.6667 16.6667ZM14.6667 20.6667C14.6667 21.0349 14.3682 21.3334 14 21.3334C13.6318 21.3334 13.3333 21.0349 13.3333 20.6667C13.3333 20.2986 13.6318 20.0001 14 20.0001C14.3682 20.0001 14.6667 20.2986 14.6667 20.6667Z" clip-rule="evenodd" fill="#FFFFFF" fill-opacity="1.000000" fill-rule="evenodd" mask="url(#mask_17_3885)"/>
		<path id="Rectangle 1078" d="" fill="#979797" fill-opacity="0.000000" fill-rule="nonzero"/>
	</g>
</svg>
