<svg width="28" height="28" viewBox="0 0 28 28" fill="none" xmlns="http://www.w3.org/2000/svg">
<rect y="4" width="28" height="20" rx="3" fill="white"/>
<mask id="mask0_17_3872" style="mask-type:luminance" maskUnits="userSpaceOnUse" x="0" y="4" width="28" height="20">
<rect y="4" width="28" height="20" rx="3" fill="white"/>
</mask>
<g mask="url(#mask0_17_3872)">
<rect y="4" width="28" height="20" fill="#19BFBF"/>
<path fill-rule="evenodd" clip-rule="evenodd" d="M17.0976 21.7643L16.0556 20.7223C16.019 20.6857 15.9915 20.6411 15.9751 20.592L15.4092 18.8944C15.3639 18.7584 15.2366 18.6667 15.0933 18.6667C14.8766 18.6667 14.7176 18.8703 14.7701 19.0805L15.2875 21.1503C15.3159 21.2639 15.2827 21.384 15.1999 21.4668L14.9024 21.7643C14.7722 21.8945 14.5611 21.8945 14.431 21.7643L14.0976 21.431C14.0351 21.3685 14 21.2837 14 21.1953V20.0787C14 20.027 13.9879 19.9759 13.9648 19.9296L13.4255 18.8509C13.369 18.738 13.2536 18.6667 13.1273 18.6667H11.412C11.3603 18.6667 11.3092 18.6787 11.2629 18.7019L10.1235 19.2716C10.0444 19.3111 9.98428 19.3805 9.95633 19.4643L9.37699 21.2024C9.34903 21.2862 9.2889 21.3556 9.20983 21.3951L8.14906 21.9255C8.05522 21.9724 7.94476 21.9724 7.85092 21.9255L6.85092 21.4255C6.73799 21.369 6.66666 21.2536 6.66666 21.1273V19C6.66666 18.8159 6.81589 18.6667 6.99999 18.6667H8.33332C8.51742 18.6667 8.66666 18.5174 8.66666 18.3334V17.3874C8.66666 17.3516 8.67243 17.316 8.68376 17.282L9.25735 15.5613C9.30272 15.4252 9.4301 15.3334 9.57358 15.3334H10.588C10.6397 15.3334 10.6908 15.3213 10.737 15.2982L11.9296 14.7019C11.9759 14.6787 12.0269 14.6667 12.0787 14.6667H13C13.1841 14.6667 13.3333 14.5174 13.3333 14.3334V14.1381C13.3333 14.0497 13.3684 13.9649 13.431 13.9024L13.673 13.6604C13.8339 13.4995 14.1051 13.5435 14.2068 13.747L14.5745 14.4824C14.631 14.5954 14.7464 14.6667 14.8727 14.6667H16.4264C16.5699 14.6667 16.6973 14.5749 16.7426 14.4388L17.2573 12.8946C17.3027 12.7585 17.4301 12.6667 17.5736 12.6667H18.3333C18.5174 12.6667 18.6667 12.5174 18.6667 12.3334C18.6667 12.1493 18.5174 12 18.3333 12H17.6667C17.4826 12 17.3333 11.8508 17.3333 11.6667V10.7454C17.3333 10.6936 17.3454 10.6426 17.3685 10.5963L17.8925 9.54824C17.9567 9.41991 17.9316 9.26492 17.8301 9.16347L17.569 8.90239C17.4389 8.77221 17.2278 8.77221 17.0976 8.90239L16.0976 9.90239C16.0351 9.9649 16 10.0497 16 10.1381V11.2793C16 11.3151 15.9942 11.3507 15.9829 11.3847L15.4093 13.1054C15.3639 13.2415 15.2365 13.3334 15.0931 13.3334H14.8047C14.7163 13.3334 14.6315 13.2982 14.569 13.2357L14.0961 12.7628C14.0346 12.7012 14 12.6178 14 12.5308C14 12.2869 13.7434 12.1283 13.5252 12.2374L12.8815 12.5592C12.7532 12.6234 12.5982 12.5983 12.4968 12.4968L12.0976 12.0977C12.0351 12.0351 12 11.9504 12 11.8619V10.8048C12 10.7164 12.0351 10.6316 12.0976 10.5691L13.3333 9.33335L15.2777 7.389C15.3143 7.3524 15.3589 7.32483 15.408 7.30847L17.282 6.68379C17.316 6.67246 17.3516 6.66669 17.3874 6.66669H18.4606C18.5869 6.66669 18.7023 6.73802 18.7588 6.85095L19.2981 7.92964C19.3213 7.97592 19.3333 8.02696 19.3333 8.07871V9.86195C19.3333 9.95035 19.3684 10.0351 19.431 10.0977L19.8543 10.521C19.9436 10.6103 19.9748 10.7423 19.9348 10.8621L19.4138 12.4252C19.3663 12.5678 19.4201 12.7245 19.5452 12.8079L21.3333 14L22.3289 14.4978C22.5083 14.5875 22.5684 14.814 22.4572 14.9809L21.3893 16.5827C21.3528 16.6375 21.3333 16.7018 21.3333 16.7676V18.4264C21.3333 18.5699 21.2415 18.6973 21.1054 18.7427L19.4643 19.2897C19.3804 19.3176 19.3111 19.3778 19.2716 19.4568L18.6908 20.6183C18.6748 20.6503 18.6537 20.6796 18.6284 20.7049L17.569 21.7643C17.4389 21.8945 17.2278 21.8945 17.0976 21.7643ZM11.3333 21.3334C11.7015 21.3334 12 21.0349 12 20.6667C12 20.2985 11.7015 20 11.3333 20C10.9651 20 10.6667 20.2985 10.6667 20.6667C10.6667 21.0349 10.9651 21.3334 11.3333 21.3334ZM9.33332 12.6667C9.33332 13.0349 9.03485 13.3334 8.66666 13.3334C8.29847 13.3334 7.99999 13.0349 7.99999 12.6667C7.99999 12.2985 8.29847 12 8.66666 12C9.03485 12 9.33332 12.2985 9.33332 12.6667Z" fill="white"/>
<path fill-rule="evenodd" clip-rule="evenodd" d="M9.96482 12.7371C9.98796 12.6908 10 12.6397 10 12.588V12.0787C10 12.027 9.98796 11.9759 9.96482 11.9296L9.57455 11.1491C9.46373 10.9275 9.62489 10.6667 9.87269 10.6667H10.3333C10.5174 10.6667 10.6667 10.8159 10.6667 11V12.588C10.6667 12.6397 10.6787 12.6908 10.7019 12.7371L11.0921 13.5176C11.203 13.7392 11.0418 14 10.794 14H9.87269C9.62489 14 9.46373 13.7392 9.57455 13.5176L9.96482 12.7371Z" fill="white"/>
</g>
</svg>
