<svg width="28.000000" height="28.000000" viewBox="0 0 28 28" fill="none" xmlns="http://www.w3.org/2000/svg" xmlns:xlink="http://www.w3.org/1999/xlink">
	<desc>
			Created with Pixso.
	</desc>
	<defs/>
	<rect id="Chile" width="28.000000" height="28.000000" fill="#FFFFFF" fill-opacity="0"/>
	<rect id="Mask" y="4.000000" rx="3.000000" width="28.000000" height="20.000000" fill="#FFFFFF" fill-opacity="1.000000"/>
	<rect id="Mask" x="0.250000" y="4.250000" rx="3.000000" width="27.500000" height="19.500000" stroke="#D6D8DD" stroke-opacity="1.000000" stroke-width="0.500000"/>
	<mask id="mask17_5855" mask-type="alpha" maskUnits="userSpaceOnUse" x="0.000000" y="4.000000" width="28.000000" height="20.000000">
		<rect id="Mask" y="4.000000" rx="3.000000" width="28.000000" height="20.000000" fill="#FFFFFF" fill-opacity="1.000000"/>
		<rect id="Mask" x="0.250000" y="4.250000" rx="3.000000" width="27.500000" height="19.500000" stroke="#F5F5F5" stroke-opacity="1.000000" stroke-width="0.500000"/>
	</mask>
	<g mask="url(#mask17_5855)">
		<path id="Rectangle 2" d="M0 24L28 24L28 13.33L0 13.33L0 24Z" fill="#EA3B2E" fill-opacity="1.000000" fill-rule="evenodd"/>
		<path id="Rectangle 2" d="M28 24L28 13.33L0 13.33L0 24L28 24Z" stroke="#979797" stroke-opacity="0" stroke-width="0.000000"/>
	</g>
	<g mask="url(#mask17_5855)">
		<rect id="Rectangle 83" y="4.000000" width="9.333333" height="9.333333" fill="#0B48C2" fill-opacity="1.000000"/>
		<rect id="Rectangle 83" y="4.000000" width="9.333333" height="9.333333" stroke="#979797" stroke-opacity="0" stroke-width="0.000000"/>
	</g>
	<g mask="url(#mask17_5855)">
		<path id="Star 8" d="M4.66 9.7L3.09 10.82L3.67 8.98L2.13 7.84L4.05 7.82L4.66 6L5.27 7.82L7.2 7.84L5.65 8.98L6.23 10.82L4.66 9.7Z" fill="#FFFFFF" fill-opacity="1.000000" fill-rule="evenodd"/>
		<path id="Star 8" d="M3.09 10.82L3.67 8.98L2.13 7.84L4.05 7.82L4.66 6L5.27 7.82L7.2 7.84L5.65 8.98L6.23 10.82L4.66 9.7L3.09 10.82Z" stroke="#979797" stroke-opacity="0" stroke-width="0.000000"/>
	</g>
</svg>
