<svg width="28.000000" height="28.000000" viewBox="0 0 28 28" fill="none" xmlns="http://www.w3.org/2000/svg" xmlns:xlink="http://www.w3.org/1999/xlink">
	<desc>
			Created with Pixso.
	</desc>
	<defs/>
	<rect id="China" width="28.000000" height="28.000000" fill="#FFFFFF" fill-opacity="0"/>
	<rect id="Mask" y="4.000000" rx="3.000000" width="28.000000" height="20.000000" fill="#FFFFFF" fill-opacity="1.000000"/>
	<rect id="Mask" y="4.000000" rx="3.000000" width="28.000000" height="20.000000" stroke="#979797" stroke-opacity="0" stroke-width="0.000000"/>
	<mask id="mask17_5861" mask-type="alpha" maskUnits="userSpaceOnUse" x="0.000000" y="4.000000" width="28.000000" height="20.000000">
		<rect id="Mask" y="4.000000" rx="3.000000" width="28.000000" height="20.000000" fill="#FFFFFF" fill-opacity="1.000000"/>
		<rect id="Mask" y="4.000000" rx="3.000000" width="28.000000" height="20.000000" stroke="#979797" stroke-opacity="0" stroke-width="0.000000"/>
	</mask>
	<g mask="url(#mask17_5861)">
		<rect id="Mask" y="4.000000" width="28.000000" height="20.000000" fill="#F1361D" fill-opacity="1.000000"/>
		<rect id="Mask" y="4.000000" width="28.000000" height="20.000000" stroke="#979797" stroke-opacity="0" stroke-width="0.000000"/>
	</g>
	<g mask="url(#mask17_5861)">
		<mask id="mask_17_5863" fill="white">
			<path id="Star 2" d="M10.0726 7.10071L11.0411 7.26581L11.7674 7.92731L11.9325 6.95886L12.594 6.23254L11.6256 6.06744L10.8992 5.40594L10.7341 6.37439L10.0726 7.10071ZM13.5059 9.97723L12.6667 10.488L12.6894 9.50586L12.1786 8.66663L13.1608 8.68933L14 8.17859L13.9773 9.16077L14.488 10L13.5059 9.97723ZM12.2411 13.4314L13.2176 13.3232L14.0981 13.7589L13.9899 12.7824L14.4255 11.9019L13.4491 12.0101L12.5685 11.5745L12.6768 12.5508L12.2411 13.4314ZM11.5282 15.9708L10.7074 16.5106L10.6958 15.5282L10.1561 14.7073L11.1384 14.6957L11.9593 14.1561L11.9709 15.1384L12.5106 15.9593L11.5282 15.9708Z" clip-rule="evenodd" fill="" fill-opacity="1.000000" fill-rule="evenodd"/>
		</mask>
		<path id="Star 2" d="M10.0726 7.10071L11.0411 7.26581L11.7674 7.92731L11.9325 6.95886L12.594 6.23254L11.6256 6.06744L10.8992 5.40594L10.7341 6.37439L10.0726 7.10071ZM13.5059 9.97723L12.6667 10.488L12.6894 9.50586L12.1786 8.66663L13.1608 8.68933L14 8.17859L13.9773 9.16077L14.488 10L13.5059 9.97723ZM12.2411 13.4314L13.2176 13.3232L14.0981 13.7589L13.9899 12.7824L14.4255 11.9019L13.4491 12.0101L12.5685 11.5745L12.6768 12.5508L12.2411 13.4314ZM11.5282 15.9708L10.7074 16.5106L10.6958 15.5282L10.1561 14.7073L11.1384 14.6957L11.9593 14.1561L11.9709 15.1384L12.5106 15.9593L11.5282 15.9708Z" clip-rule="evenodd" fill="#FFDC42" fill-opacity="1.000000" fill-rule="evenodd" mask="url(#mask_17_5863)"/>
		<path id="Star 2" d="" fill="#979797" fill-opacity="0.000000" fill-rule="nonzero"/>
	</g>
	<g mask="url(#mask17_5861)">
		<path id="Star 8" d="M6.66 12.22L4.31 13.9L5.18 11.14L2.86 9.43L5.74 9.4L6.66 6.66L7.58 9.4L10.47 9.43L8.15 11.14L9.01 13.9L6.66 12.22Z" fill="#FFDC42" fill-opacity="1.000000" fill-rule="evenodd"/>
		<path id="Star 8" d="M4.31 13.9L5.18 11.14L2.86 9.43L5.74 9.4L6.66 6.66L7.58 9.4L10.47 9.43L8.15 11.14L9.01 13.9L6.66 12.22L4.31 13.9Z" stroke="#979797" stroke-opacity="0" stroke-width="0.000000"/>
	</g>
</svg>
