<svg width="28" height="28" viewBox="0 0 28 28" fill="none" xmlns="http://www.w3.org/2000/svg">
<mask id="mask0_107628_877" style="mask-type:alpha" maskUnits="userSpaceOnUse" x="0" y="4" width="28" height="20">
<path d="M28 20.9999C28 22.6568 26.6569 23.9999 25 23.9999H3C1.34315 23.9999 0 22.6568 0 20.9999V6.99994C0 5.34308 1.34315 3.99994 3 3.99994H25C26.6569 3.99994 28 5.34308 28 6.99994V20.9999Z" fill="white"/>
</mask>
<g mask="url(#mask0_107628_877)">
<path d="M28 24V4H0L28 24Z" fill="#2C8D3D"/>
<path d="M0 4L28 24H0V4Z" fill="#2A3D98"/>
<path fill-rule="evenodd" clip-rule="evenodd" d="M15.9847 12.2308C15.9847 12.2087 15.9849 12.1865 15.9846 12.1644C15.9843 12.1412 15.9943 12.1118 15.9612 12.1035C15.9317 12.0961 15.9058 12.105 15.8844 12.1299C15.8172 12.2078 15.6841 12.194 15.6403 12.1048C15.6262 12.0762 15.6083 12.0568 15.5742 12.0612C15.5414 12.0655 15.5185 12.0859 15.5193 12.1176C15.5219 12.2284 15.4398 12.2903 15.3807 12.3651C15.354 12.399 15.327 12.4054 15.3162 12.3505C15.3084 12.3109 15.2824 12.2942 15.2434 12.3025C15.2053 12.3105 15.1891 12.3367 15.1899 12.3751C15.1905 12.4104 15.1893 12.4459 15.19 12.4813C15.1905 12.5115 15.1806 12.5366 15.1609 12.5599C14.8298 12.9541 14.4125 13.1627 13.8923 13.1519C13.8391 13.1508 13.7925 13.1488 13.7721 13.0857C13.7642 13.0611 13.7336 13.0515 13.7076 13.0434C13.6493 13.0251 13.5872 13.0195 13.5306 13.0342C13.453 13.0544 13.3916 13.0301 13.3311 12.9906C13.2752 12.954 13.2286 12.9066 13.1841 12.857C13.0997 12.763 13.0266 12.6602 12.953 12.5578C12.9345 12.532 12.9182 12.5146 12.8834 12.5382C12.7924 12.5999 12.7765 12.7536 12.856 12.8275C12.8997 12.8682 12.9447 12.9076 12.988 12.9487C13.0485 13.0061 13.0544 13.1851 12.9975 13.2451C12.9875 13.2557 12.9715 13.2666 12.958 13.2669C12.8391 13.2695 12.8048 13.3565 12.8038 13.4464C12.8022 13.5836 12.7466 13.6664 12.6207 13.7175C12.5542 13.7446 12.4946 13.7918 12.4674 13.8662C12.4422 13.9351 12.4607 13.9699 12.5385 14.0218C12.5964 14.0605 12.6307 14.0239 12.6624 13.9878C12.7031 13.9414 12.7372 13.8893 12.7755 13.8408C12.7923 13.8195 12.8123 13.8066 12.8441 13.8117C12.998 13.8366 13.1532 13.8267 13.3079 13.822C13.3859 13.8196 13.4539 13.8215 13.4949 13.9062C13.5158 13.9494 13.5611 13.9773 13.6091 13.9923C13.6586 14.0077 13.709 14.0154 13.7568 13.987C13.8242 13.9469 13.9221 13.9525 13.9779 14.0043C14.0205 14.0437 14.0692 14.0635 14.1262 14.0703C14.2312 14.0829 14.3383 14.0816 14.4396 14.1193C14.5572 14.163 14.6113 14.2375 14.6207 14.3621C14.6415 14.6375 14.6232 14.91 14.5666 15.1801C14.5589 15.2168 14.5655 15.2373 14.6064 15.2453C14.767 15.277 14.9275 15.3063 15.0924 15.3063C15.1446 15.3063 15.1636 15.2898 15.1628 15.2384C15.1608 15.1233 15.1623 15.0082 15.1623 14.8931C15.1624 14.8434 15.1713 14.7937 15.1988 14.7537C15.293 14.6169 15.3054 14.4563 15.3371 14.3013C15.3475 14.2507 15.3414 14.2004 15.3256 14.1509C15.2976 14.0633 15.3107 13.9761 15.3305 13.889C15.3365 13.8627 15.3496 13.8417 15.3774 13.8407C15.4754 13.8374 15.5226 13.7688 15.5566 13.6935C15.6421 13.5039 15.7926 13.3831 15.9674 13.2844C16.0429 13.2418 16.1449 13.2245 16.1483 13.1074C16.1483 13.1055 16.1504 13.1036 16.1516 13.1018C16.2017 13.0298 16.2017 13.0298 16.1155 12.9976C16.099 12.9915 16.0823 12.9855 16.066 12.9787C15.9842 12.945 15.9738 12.9264 16.0031 12.8432C16.051 12.707 16.0558 12.571 16.0106 12.4336C15.9889 12.3677 15.982 12.2998 15.9847 12.2308ZM12.2422 12.5286C12.345 12.3426 12.4581 12.1637 12.6019 12.0058C13.0064 11.5615 13.504 11.2958 14.1019 11.2225C15.2897 11.0769 16.3496 11.8162 16.6796 12.8828C16.8615 13.4707 16.8218 14.0472 16.5693 14.6087C16.5593 14.6309 16.5498 14.6532 16.5402 14.6754C16.4075 14.9268 16.2446 15.1558 16.0351 15.3492C15.6537 15.7015 15.2074 15.917 14.6901 15.9802C14.0524 16.0582 13.4725 15.9056 12.9594 15.5234C12.4481 15.1424 12.1365 14.6314 12.0281 14.0012C11.9413 13.4972 12.0141 13.0144 12.2335 12.5531C12.2372 12.5454 12.2393 12.5368 12.2422 12.5286Z" fill="#FAC225"/>
<path fill-rule="evenodd" clip-rule="evenodd" d="M15.9846 12.2308C15.9819 12.2998 15.9889 12.3676 16.0106 12.4336C16.0558 12.5709 16.0509 12.707 16.003 12.8431C15.9738 12.9263 15.9841 12.945 16.0659 12.9787C16.0822 12.9855 16.0989 12.9914 16.1154 12.9976C16.2017 13.0298 16.2017 13.0298 16.1516 13.1017C16.1503 13.1036 16.1483 13.1055 16.1482 13.1074C16.1448 13.2245 16.0428 13.2418 15.9673 13.2844C15.7926 13.3831 15.642 13.5039 15.5565 13.6935C15.5226 13.7688 15.4753 13.8373 15.3773 13.8407C15.3495 13.8416 15.3364 13.8627 15.3304 13.889C15.3106 13.976 15.2976 14.0633 15.3255 14.1509C15.3413 14.2004 15.3474 14.2507 15.3371 14.3013C15.3054 14.4563 15.293 14.6168 15.1988 14.7536C15.1713 14.7936 15.1623 14.8434 15.1623 14.8931C15.1622 15.0082 15.1607 15.1233 15.1627 15.2383C15.1636 15.2898 15.1446 15.3063 15.0923 15.3063C14.9274 15.3062 14.767 15.277 14.6063 15.2453C14.5654 15.2372 14.5589 15.2167 14.5666 15.18C14.6232 14.91 14.6415 14.6375 14.6206 14.362C14.6112 14.2375 14.5571 14.163 14.4395 14.1193C14.3382 14.0816 14.2311 14.0828 14.1261 14.0703C14.0692 14.0635 14.0204 14.0436 13.9779 14.0043C13.922 13.9525 13.8242 13.9469 13.7568 13.987C13.709 14.0154 13.6585 14.0077 13.6091 13.9923C13.5611 13.9773 13.5157 13.9493 13.4948 13.9062C13.4539 13.8215 13.3859 13.8196 13.3079 13.822C13.1532 13.8267 12.998 13.8366 12.844 13.8117C12.8123 13.8065 12.7922 13.8195 12.7754 13.8408C12.7371 13.8893 12.703 13.9414 12.6623 13.9878C12.6307 14.0238 12.5964 14.0605 12.5384 14.0218C12.4606 13.9698 12.4422 13.935 12.4673 13.8661C12.4945 13.7918 12.5542 13.7445 12.6207 13.7175C12.7465 13.6664 12.8021 13.5836 12.8037 13.4464C12.8048 13.3564 12.8391 13.2695 12.9579 13.2668C12.9714 13.2666 12.9874 13.2556 12.9974 13.245C13.0543 13.1851 13.0484 13.0061 12.988 12.9487C12.9446 12.9076 12.8996 12.8682 12.8559 12.8275C12.7765 12.7536 12.7924 12.5998 12.8834 12.5381C12.9181 12.5146 12.9344 12.532 12.953 12.5578C13.0265 12.6602 13.0996 12.763 13.1841 12.857C13.2286 12.9065 13.2751 12.9539 13.331 12.9905C13.3916 13.0301 13.4529 13.0544 13.5306 13.0342C13.5871 13.0194 13.6492 13.025 13.7076 13.0433C13.7336 13.0515 13.7641 13.0611 13.7721 13.0857C13.7924 13.1488 13.839 13.1508 13.8923 13.1519C14.4125 13.1627 14.8298 12.954 15.1609 12.5599C15.1805 12.5366 15.1905 12.5115 15.1899 12.4812C15.1893 12.4459 15.1905 12.4104 15.1898 12.375C15.189 12.3366 15.2052 12.3104 15.2434 12.3024C15.2824 12.2942 15.3083 12.3109 15.3161 12.3504C15.327 12.4054 15.3539 12.399 15.3807 12.3651C15.4397 12.2903 15.5219 12.2284 15.5192 12.1176C15.5185 12.0859 15.5413 12.0655 15.5742 12.0612C15.6083 12.0568 15.6262 12.0762 15.6402 12.1048C15.6841 12.1939 15.8172 12.2078 15.8843 12.1299C15.9058 12.105 15.9317 12.0961 15.9611 12.1035C15.9942 12.1117 15.9842 12.1412 15.9846 12.1644C15.9849 12.1865 15.9846 12.2086 15.9846 12.2308Z" fill="#2E8D3C"/>
<path fill-rule="evenodd" clip-rule="evenodd" d="M26.1799 10.6939C26.2189 10.6937 26.2584 10.6895 26.2697 10.6445C26.2808 10.6002 26.2483 10.5755 26.2157 10.5557C26.1739 10.5305 26.1278 10.5231 26.0806 10.5364C26.0266 10.5516 26.0126 10.5957 26.0489 10.6381C26.0828 10.6775 26.1276 10.6952 26.1799 10.6939ZM19.9322 13.3585C19.3313 13.3534 18.7245 13.2629 18.1329 13.0752C18.086 13.0603 18.0413 13.0381 17.9964 13.0175C17.9795 13.0097 17.9615 12.9973 17.9631 12.9757C17.9651 12.9487 17.9905 12.9454 18.01 12.94C18.0838 12.9198 18.1558 12.945 18.2275 12.9538C18.8729 13.0334 19.5195 13.0918 20.1707 13.0729C21.0063 13.0488 21.7831 12.8208 22.5061 12.401C22.8106 12.2242 23.1027 12.0283 23.4004 11.8411C23.5 11.7785 23.5661 11.6839 23.6038 11.5754C23.6529 11.4343 23.7238 11.3041 23.7879 11.1704C23.8583 11.0238 23.8964 10.8692 23.9067 10.7071C23.9139 10.5935 23.8545 10.5098 23.7851 10.43C23.702 10.3343 23.5888 10.275 23.4968 10.1901C23.2255 9.93941 22.9097 9.75737 22.5857 9.58439C22.0621 9.3048 21.6106 8.92957 21.2019 8.50132C21.166 8.46372 21.1277 8.42824 21.0939 8.3889C21.0347 8.3201 21.0554 8.25227 21.1429 8.22782C21.21 8.20904 21.2794 8.2065 21.3463 8.22582C21.7066 8.33004 22.0769 8.39362 22.4383 8.49384C22.9672 8.64054 23.447 8.87824 23.8543 9.2517C23.9164 9.30865 23.9906 9.30006 24.0613 9.28314C24.1139 9.27056 24.1297 9.21904 24.1303 9.17009C24.1331 8.94049 24.1979 8.71703 24.1961 8.48694C24.1951 8.34594 24.1576 8.22842 24.0422 8.13184C23.829 7.95347 23.6717 7.72755 23.5559 7.47675C23.5008 7.35745 23.4707 7.22554 23.3885 7.1198C23.3052 7.01264 23.2412 6.90745 23.2349 6.76034C23.2304 6.65515 23.171 6.54924 23.1236 6.44962C23.0507 6.29629 22.9686 6.14724 22.8873 5.99803C22.8509 5.93123 22.8573 5.86814 22.9004 5.8128C22.9459 5.75444 23.0091 5.76871 23.0692 5.79204C23.1092 5.80757 23.145 5.83043 23.178 5.85756C23.7189 6.30248 24.2388 6.76959 24.6975 7.30107C24.7824 7.39953 24.8582 7.50505 24.9353 7.60967C25.0723 7.7955 25.1157 8.0111 25.1467 8.2324C25.2096 8.68115 25.2359 9.13448 25.317 9.58085C25.3482 9.75279 25.385 9.92355 25.4606 10.0828C25.5484 10.2678 25.7448 10.3794 25.9467 10.354C25.9918 10.3483 26.0345 10.3212 26.0775 10.302C26.2828 10.2103 26.477 10.2434 26.6645 10.353C26.7134 10.3815 26.762 10.4108 26.8095 10.4416C26.8471 10.4661 26.885 10.4908 26.9187 10.5201C26.9596 10.5557 27.009 10.5983 26.9986 10.6541C26.9875 10.7138 26.9217 10.7229 26.8691 10.7366C26.8462 10.7425 26.8224 10.7467 26.8099 10.7705C26.7614 10.8619 26.6788 10.9018 26.5827 10.9226C26.5396 10.9318 26.5075 10.9499 26.4969 11.0014C26.4811 11.0788 26.4242 11.1264 26.3556 11.1591C26.2582 11.2057 26.1525 11.2202 26.0469 11.2304C25.9847 11.2364 25.93 11.2511 25.8743 11.2831C25.714 11.3751 25.5372 11.4286 25.3627 11.4868C25.0164 11.6025 24.6609 11.6912 24.3271 11.8442C23.9661 12.0097 23.6189 12.2015 23.2811 12.4088C23.0711 12.5376 22.8548 12.6379 22.6105 12.6783C22.4408 12.7063 22.2905 12.7835 22.1422 12.8703C21.9441 12.9862 21.7255 13.0587 21.5071 13.1268C21.0009 13.285 20.4811 13.3554 19.9322 13.3585Z" fill="#FAC225"/>
<path fill-rule="evenodd" clip-rule="evenodd" d="M27.7991 13.6498C27.7363 13.6515 27.6823 13.6303 27.6416 13.5827C27.5979 13.5319 27.6147 13.4787 27.6797 13.4605C27.7365 13.4445 27.7919 13.4534 27.8421 13.4837C27.8815 13.5074 27.9205 13.5372 27.9072 13.5904C27.8936 13.6446 27.846 13.6497 27.7991 13.6498Z" fill="#328E3C"/>
<path fill-rule="evenodd" clip-rule="evenodd" d="M8.53369 15.6104C8.58359 15.7386 8.63424 15.8636 8.6802 15.9902C8.69347 16.0268 8.70869 16.0307 8.74236 16.0202C8.87228 15.9796 9.00298 15.9414 9.1437 15.8992C9.06957 16.0262 9.0033 16.1437 8.93258 16.2585C8.91069 16.2941 8.91752 16.3092 8.94969 16.3307C9.05997 16.4043 9.16811 16.4811 9.2906 16.5661C9.19264 16.5809 9.10902 16.5936 9.02537 16.6063C9.00348 16.6096 8.98152 16.6126 8.95969 16.6164C8.82638 16.6397 8.82822 16.6396 8.84019 16.771C8.84954 16.874 8.85365 16.9776 8.86119 17.098C8.75491 16.9988 8.65807 16.9126 8.56661 16.821C8.52895 16.7833 8.50842 16.7891 8.47334 16.823C8.38119 16.912 8.28467 16.9965 8.17818 17.0934C8.18577 16.993 8.18926 16.9059 8.19947 16.8196C8.22136 16.6346 8.22282 16.6345 8.04345 16.604C7.95285 16.5886 7.86203 16.5744 7.755 16.5569C7.87005 16.4791 7.96962 16.4065 8.07475 16.343C8.12993 16.3097 8.13918 16.2849 8.10354 16.2286C8.03764 16.1245 7.98089 16.0146 7.91233 15.8929C8.03556 15.9305 8.14453 15.9635 8.2534 15.9969C8.35571 16.0284 8.35547 16.0285 8.39455 15.9312C8.43573 15.8287 8.47729 15.7264 8.519 15.624C8.5205 15.6204 8.52529 15.618 8.53369 15.6104Z" fill="#FCFCFE"/>
<path fill-rule="evenodd" clip-rule="evenodd" d="M2.65161 16.6174C2.70511 16.7555 2.75466 16.8784 2.79984 17.0029C2.81478 17.044 2.83078 17.0499 2.87223 17.0362C2.99747 16.9948 3.12471 16.9594 3.265 16.9175C3.18974 17.0471 3.12326 17.1638 3.05415 17.2789C3.03613 17.3089 3.03442 17.3236 3.0677 17.3456C3.17991 17.4198 3.28898 17.4987 3.41179 17.5846C3.26755 17.6064 3.13838 17.6289 3.00832 17.6438C2.95965 17.6494 2.95124 17.6684 2.95485 17.711C2.96582 17.8406 2.97398 17.9705 2.98444 18.1171C2.87581 18.0155 2.77794 17.927 2.68404 17.8345C2.65268 17.8036 2.6339 17.8046 2.60333 17.8335C2.50723 17.9244 2.40861 18.0126 2.30032 18.1116C2.3108 17.9699 2.31463 17.8419 2.33191 17.7158C2.34082 17.6508 2.31086 17.6418 2.26332 17.6348C2.13975 17.6167 2.01633 17.5975 1.87634 17.5761C1.99707 17.494 2.10259 17.4181 2.21267 17.3494C2.25883 17.3206 2.25614 17.2985 2.23174 17.2578C2.16588 17.1477 2.10417 17.0352 2.03328 16.9104C2.16684 16.9518 2.29014 16.986 2.41035 17.0289C2.46431 17.0482 2.48468 17.0407 2.50431 16.9851C2.54679 16.8649 2.5986 16.748 2.65161 16.6174Z" fill="#FCFCFE"/>
<path fill-rule="evenodd" clip-rule="evenodd" d="M6.25269 13.6331C6.17885 13.7598 6.11277 13.877 6.04253 13.9916C6.02131 14.0262 6.02542 14.0414 6.05871 14.0635C6.1692 14.1368 6.27719 14.2139 6.39949 14.2989C6.26996 14.3186 6.15401 14.3363 6.03803 14.3539C6.03144 14.3549 6.02478 14.3555 6.01811 14.3556C5.95558 14.3567 5.93417 14.3815 5.94286 14.4489C5.95846 14.5694 5.96179 14.6915 5.97157 14.8319C5.88281 14.7489 5.8062 14.6776 5.72991 14.6059C5.63258 14.5146 5.63269 14.5145 5.53462 14.6033C5.45598 14.6744 5.37732 14.7455 5.28794 14.8263C5.29871 14.6824 5.30506 14.5512 5.32006 14.421C5.32574 14.3718 5.31023 14.3604 5.26744 14.3542C5.13872 14.3357 5.0105 14.3138 4.86475 14.2904C4.98233 14.2109 5.08519 14.137 5.19267 14.0706C5.24076 14.0409 5.24836 14.0191 5.21789 13.9699C5.1517 13.8631 5.0926 13.7518 5.02708 13.6361C5.09292 13.638 5.14387 13.6664 5.1984 13.6795C5.23692 13.6887 5.27414 13.7034 5.31212 13.715C5.46595 13.7622 5.46587 13.7621 5.52705 13.6094C5.56229 13.5214 5.59796 13.4336 5.63898 13.332C5.68997 13.4645 5.73774 13.5837 5.78133 13.7044C5.79831 13.7514 5.81417 13.7683 5.86956 13.7488C5.99154 13.7056 6.11733 13.6732 6.25269 13.6331Z" fill="#FCFCFE"/>
<path fill-rule="evenodd" clip-rule="evenodd" d="M6.30686 20.8259C6.24152 20.939 6.17803 21.0532 6.10979 21.1646C6.08806 21.2 6.09377 21.2146 6.12639 21.2363C6.23675 21.3099 6.34479 21.387 6.46666 21.4717C6.3759 21.4859 6.29875 21.4977 6.22172 21.5101C6.15209 21.5213 6.06085 21.5107 6.01921 21.551C5.97882 21.5901 6.02259 21.6805 6.02155 21.749C6.02033 21.8279 6.03976 21.9065 6.03126 21.9975C5.9305 21.9035 5.83411 21.8167 5.74196 21.7258C5.70637 21.6907 5.68558 21.6939 5.65114 21.7271C5.55779 21.8175 5.46025 21.9035 5.35472 22C5.36575 21.8551 5.37135 21.7249 5.38759 21.596C5.39436 21.5423 5.37527 21.5319 5.33145 21.5256C5.20438 21.5074 5.0777 21.4866 4.94999 21.4666C4.94674 21.4393 4.97193 21.436 4.98614 21.4262C5.08096 21.3608 5.17572 21.2952 5.27291 21.2334C5.30815 21.2111 5.31521 21.1954 5.29232 21.1572C5.2245 21.0441 5.16178 20.9279 5.08895 20.7984C5.22789 20.8412 5.35256 20.8766 5.47488 20.9188C5.52207 20.9351 5.53889 20.9253 5.55576 20.8799C5.60102 20.7579 5.6522 20.6381 5.70618 20.5047C5.75707 20.6368 5.80524 20.7563 5.84866 20.8774C5.86577 20.9252 5.88331 20.9394 5.93697 20.9219C6.05631 20.8829 6.17512 20.8405 6.29942 20.8182C6.30177 20.8209 6.30425 20.8235 6.30686 20.8259Z" fill="#FCFCFE"/>
<path fill-rule="evenodd" clip-rule="evenodd" d="M6.09687 19.3726C6.14382 19.2195 6.18282 19.0889 6.22422 18.9591C6.2364 18.9209 6.23154 18.8977 6.19485 18.8736C6.07828 18.7971 5.96488 18.7158 5.83655 18.6268C5.98579 18.6209 6.12078 18.6106 6.2556 18.6123C6.31895 18.6131 6.34163 18.5888 6.35765 18.5338C6.3935 18.4107 6.4349 18.2892 6.48077 18.146C6.53557 18.2951 6.58453 18.4232 6.62911 18.5528C6.64366 18.595 6.66502 18.6082 6.70908 18.6072C6.84762 18.6043 6.98627 18.6062 7.13926 18.6062C7.01786 18.6975 6.90845 18.7828 6.79545 18.8631C6.75963 18.8885 6.75552 18.9108 6.76929 18.9488C6.81564 19.0766 6.85923 19.2054 6.89255 19.3441C6.79062 19.2764 6.68509 19.2134 6.58804 19.1394C6.5245 19.0909 6.47951 19.0877 6.41597 19.1403C6.32054 19.2194 6.2157 19.2871 6.09687 19.3726Z" fill="#FBFBFE"/>
<path fill-rule="evenodd" clip-rule="evenodd" d="M4.92444 21.7561C4.92739 21.7528 4.93034 21.7494 4.93328 21.7461C4.93335 21.7526 4.93345 21.759 4.93355 21.7656C4.93037 21.7626 4.92732 21.7594 4.92444 21.7561Z" fill="#FCFCFE"/>
</g>
</svg>
