<svg viewBox="0 0 28 28" xmlns="http://www.w3.org/2000/svg" xmlns:xlink="http://www.w3.org/1999/xlink" width="28.000000" height="28.000000" fill="none" mask="url(#mask_316)">
	<defs>
		<filter id="pixso_custom_mask_type_alpha">
			<feColorMatrix type="matrix" values="0 0 0 0 1 0 0 0 0 1 0 0 0 0 1 0 0 0 1 0 " />
		</filter>
	</defs>
	<mask id="mask_316" width="28.000000" height="20.000000" x="0.000000" y="0.000000" maskUnits="objectBoundingBox">
		<g filter="url(#pixso_custom_mask_type_alpha)">
			<path id="path14" d="M25 0L3 0C1.34315 0 0 1.34315 0 3L0 17C0 18.6569 1.34315 20 3 20L25 20C26.6569 20 28 18.6569 28 17L28 3C28 1.34315 26.6569 0 25 0Z" fill="rgb(255,255,255)" fill-rule="nonzero" transform="matrix(1,0,0,-1,0,23.9999)" />
		</g>
	</mask>
	<rect id="Christmas Island" width="28.000000" height="28.000000" x="0.000000" y="0.000000" fill="rgb(255,255,255)" fill-opacity="0" />
	<path id="path16" d="M28 0L28 20L0 20L28 0Z" fill="rgb(44,141,61)" fill-rule="nonzero" transform="matrix(1,0,0,-1,0,24)" />
	<path id="path18" d="M0 20L28 0L0 0L0 20Z" fill="rgb(42,61,152)" fill-rule="nonzero" transform="matrix(1,0,0,-1,0,24)" />
	<path id="path20" d="M3.99225 3.7692C3.99225 3.79133 3.9925 3.81345 3.9922 3.83558C3.99185 3.85882 4.00183 3.88823 3.96876 3.89649C3.9393 3.90385 3.91339 3.89498 3.89195 3.87011C3.82481 3.79221 3.69171 3.80604 3.64786 3.89521C3.6338 3.92379 3.6159 3.94317 3.58181 3.93876C3.54897 3.9345 3.52608 3.91409 3.52684 3.88236C3.52949 3.77159 3.44735 3.70967 3.3883 3.63487C3.36154 3.601 3.33459 3.59457 3.32373 3.64954C3.31592 3.68905 3.29001 3.70576 3.251 3.69755C3.21287 3.68953 3.19666 3.66335 3.19742 3.62494C3.1981 3.58955 3.19689 3.55412 3.19752 3.51874C3.19807 3.48847 3.18812 3.46339 3.16851 3.44005C2.83738 3.04594 2.4201 2.83729 1.89987 2.84805C1.84662 2.84916 1.80005 2.85117 1.77971 2.91426C1.77174 2.9389 1.7412 2.94846 1.71522 2.95662C1.65682 2.97494 1.59475 2.98054 1.53819 2.9658C1.46052 2.94556 1.39918 2.96985 1.33867 3.00945C1.28277 3.04604 1.23619 3.09345 1.19171 3.14297C1.10726 3.237 1.03417 3.3398 0.960579 3.4422C0.94203 3.468 0.925749 3.48539 0.890995 3.46183C0.800014 3.40013 0.784112 3.2464 0.863524 3.17246C0.907251 3.13175 0.952262 3.09241 0.995585 3.05128C1.05602 2.9939 1.06197 2.81486 1.00506 2.75493C0.995031 2.74434 0.979027 2.7334 0.965544 2.73313C0.846715 2.73051 0.812389 2.64353 0.811356 2.55361C0.809768 2.41638 0.754122 2.33362 0.628311 2.28248C0.561802 2.25544 0.502123 2.20819 0.474955 2.13384C0.449777 2.06494 0.468225 2.03013 0.54605 1.97819C0.604016 1.93948 0.638291 1.97615 0.669945 2.01219C0.710622 2.05856 0.744746 2.11065 0.783054 2.15922C0.799864 2.18051 0.819875 2.19344 0.851655 2.1883C1.00559 2.16338 1.16081 2.17331 1.31548 2.17802C1.39351 2.18039 1.4615 2.17847 1.50246 2.09379C1.52335 2.05065 1.56869 2.02272 1.6167 2.0077C1.66615 1.99225 1.71658 1.98459 1.76438 2.01302C1.83178 2.05309 1.92964 2.0475 1.98551 1.9957C2.02803 1.95634 2.07679 1.9365 2.13373 1.9297C2.23872 1.91715 2.34583 1.91838 2.44717 1.88071C2.56476 1.837 2.61882 1.76248 2.62825 1.63793C2.64909 1.36252 2.63079 1.08998 2.57419 0.819937C2.56648 0.783242 2.57303 0.762727 2.61393 0.754663C2.77457 0.722983 2.93506 0.693723 3.09996 0.693698C3.15221 0.693698 3.17121 0.710155 3.17033 0.761643C3.16833 0.876692 3.16985 0.991817 3.1699 1.10692C3.16992 1.15662 3.17889 1.20634 3.20642 1.24634C3.30057 1.38313 3.313 1.5437 3.3447 1.69872C3.35503 1.7493 3.34896 1.79958 3.33316 1.84908C3.30518 1.93668 3.31826 2.02393 3.33805 2.11098C3.34405 2.13732 3.35713 2.15834 3.38492 2.15929C3.48296 2.16265 3.53019 2.2312 3.56414 2.3065C3.64965 2.4961 3.80018 2.61687 3.97496 2.71556C4.05042 2.75818 4.15244 2.77549 4.15584 2.89258C4.15589 2.8945 4.15793 2.89641 4.15919 2.89823C4.2093 2.97018 4.2093 2.97018 4.12305 3.00236C4.10652 3.00854 4.08986 3.01451 4.07355 3.02127C3.99175 3.05499 3.98142 3.07364 4.01065 3.15683C4.05853 3.29297 4.06337 3.42904 4.01821 3.56637C3.99651 3.63235 3.98956 3.70017 3.99225 3.7692ZM0.249746 3.47136C0.352546 3.65742 0.465629 3.83626 0.609484 3.99423C1.01398 4.43847 1.51161 4.70423 2.10946 4.77752C3.29722 4.92314 4.35721 4.18383 4.68716 3.11721C4.86904 2.52929 4.82933 1.95281 4.57682 1.39128C4.56687 1.36915 4.55742 1.34682 4.54774 1.32456C4.41507 1.07322 4.25214 0.844181 4.04268 0.650753C3.66124 0.298474 3.21498 0.0830437 2.69763 0.0197857C2.05996 -0.0581906 1.48005 0.0943598 0.967006 0.47663C0.4557 0.857589 0.144071 1.36859 0.0356255 1.9988C-0.051096 2.5028 0.0216894 2.98555 0.241076 3.44686C0.244781 3.45462 0.246872 3.46319 0.249746 3.47136Z" fill="rgb(250,194,37)" fill-rule="evenodd" transform="matrix(1,0,0,-1,11.9924,16)" />
	<path id="path22" d="M3.52784 3.0755C3.52515 3.00647 3.5321 2.93865 3.5538 2.87267C3.59896 2.73534 3.59413 2.59928 3.54624 2.46313C3.51701 2.37994 3.52734 2.36129 3.60915 2.32757C3.62545 2.32081 3.64211 2.31484 3.65864 2.30867C3.74489 2.27648 3.74489 2.27648 3.69478 2.20453C3.69352 2.20272 3.69148 2.2008 3.69143 2.19888C3.68803 2.08179 3.58601 2.06448 3.51055 2.02186C3.33578 1.92317 3.18524 1.8024 3.09973 1.6128C3.06578 1.5375 3.01855 1.46895 2.92052 1.4656C2.89272 1.46464 2.87964 1.44362 2.87364 1.41728C2.85386 1.33023 2.84078 1.24298 2.86875 1.15538C2.88455 1.10588 2.89063 1.0556 2.88029 1.00502C2.84859 0.850002 2.83616 0.689437 2.74201 0.552639C2.71449 0.512642 2.70551 0.462918 2.70549 0.413218C2.70544 0.298119 2.70393 0.182995 2.70592 0.0679456C2.7068 0.0164571 2.6878 0 2.63555 0C2.47065 2.52024e-05 2.31016 0.0292853 2.14952 0.0609647C2.10862 0.0690295 2.10207 0.0895442 2.10978 0.126239C2.16638 0.396283 2.18468 0.668821 2.16384 0.944233C2.15441 1.06878 2.10035 1.14331 1.98276 1.18701C1.88142 1.22469 1.77431 1.22345 1.66932 1.236C1.61238 1.24281 1.56362 1.26264 1.5211 1.30201C1.46523 1.3538 1.36737 1.35939 1.29998 1.31932C1.25217 1.29089 1.20174 1.29855 1.15229 1.314C1.10428 1.32902 1.05894 1.35695 1.03805 1.40009C0.997094 1.48477 0.929098 1.48669 0.851071 1.48432C0.696404 1.47961 0.541183 1.46968 0.387246 1.4946C0.355466 1.49974 0.335456 1.48682 0.318646 1.46552C0.280338 1.41695 0.246214 1.36486 0.205537 1.31849C0.173883 1.28245 0.139607 1.24578 0.0816416 1.28449C0.00381658 1.33643 -0.014631 1.37124 0.0105462 1.44014C0.0377144 1.51449 0.0973937 1.56174 0.163903 1.58878C0.289713 1.63992 0.345359 1.72269 0.346947 1.85991C0.34798 1.94983 0.382306 2.03681 0.501136 2.03943C0.514619 2.03971 0.530623 2.05064 0.540653 2.06123C0.59756 2.12116 0.591612 2.3002 0.531177 2.35758C0.487854 2.39871 0.442842 2.43806 0.399116 2.47876C0.319703 2.5527 0.335606 2.70644 0.426587 2.76813C0.461341 2.7917 0.477622 2.77431 0.496171 2.7485C0.569762 2.6461 0.642849 2.5433 0.727303 2.44927C0.771785 2.39975 0.818358 2.35234 0.874257 2.31575C0.934768 2.27616 0.996111 2.25186 1.07378 2.2721C1.13034 2.28684 1.19241 2.28125 1.25081 2.26292C1.27679 2.25476 1.30734 2.24521 1.3153 2.22056C1.33564 2.15748 1.38221 2.15546 1.43546 2.15435C1.95569 2.14359 2.37297 2.35224 2.7041 2.74636C2.72371 2.76969 2.73366 2.79477 2.73311 2.82504C2.73248 2.86042 2.73369 2.89586 2.73301 2.93124C2.73225 2.96965 2.74846 2.99584 2.78659 3.00385C2.8256 3.01207 2.85151 2.99536 2.85932 2.95584C2.87019 2.90087 2.89713 2.9073 2.92389 2.94117C2.98294 3.01597 3.06508 3.07789 3.06243 3.18866C3.06167 3.22039 3.08456 3.2408 3.1174 3.24506C3.1515 3.24947 3.16939 3.23009 3.18345 3.20151C3.2273 3.11235 3.3604 3.09851 3.42754 3.17641C3.44899 3.20128 3.47489 3.21016 3.50436 3.2028C3.53742 3.19453 3.52744 3.16512 3.52779 3.14188C3.5281 3.11976 3.52784 3.09763 3.52784 3.0755Z" fill="rgb(46,141,60)" fill-rule="evenodd" transform="matrix(1,0,0,-1,12.4568,15.3063)" />
	<path id="path24" d="M8.21687 2.66461C8.25587 2.66483 8.2954 2.66903 8.3067 2.71406C8.31781 2.75829 8.28534 2.78307 8.25264 2.8028C8.21089 2.82798 8.16483 2.83538 8.11757 2.82211C8.06357 2.80697 8.0496 2.76279 8.08586 2.72047C8.11976 2.68098 8.16462 2.66333 8.21687 2.66461ZM1.96917 0C1.36827 0.0050755 0.76145 0.0955882 0.169909 0.283354C0.123001 0.298226 0.0783044 0.320466 0.0334162 0.341068C0.0164706 0.348845 -0.00148512 0.361207 9.75634e-05 0.382846C0.00208956 0.409833 0.0274398 0.413134 0.0470323 0.418483C0.120764 0.438675 0.192748 0.413517 0.264515 0.404676C0.909868 0.325132 1.55653 0.266763 2.2077 0.285592C3.0433 0.309769 3.82009 0.537757 4.54305 0.957496C4.84761 1.13429 5.13967 1.33019 5.43741 1.51741C5.53695 1.58001 5.60307 1.67467 5.64081 1.78311C5.68993 1.92427 5.76074 2.05446 5.82489 2.18817C5.89524 2.33473 5.93341 2.48934 5.9437 2.65138C5.95093 2.76506 5.89145 2.84869 5.82211 2.92854C5.73902 3.02421 5.62575 3.0835 5.53381 3.16842C5.26247 3.41911 4.94672 3.60115 4.62273 3.77413C4.09908 4.05372 3.64761 4.42895 3.23892 4.8572C3.20301 4.8948 3.1647 4.93028 3.13086 4.96963C3.07165 5.03842 3.09236 5.10625 3.17985 5.1307C3.24697 5.14948 3.31642 5.15202 3.38325 5.1327C3.74364 5.02848 4.11393 4.9649 4.4753 4.86468C5.00416 4.71798 5.48399 4.48028 5.89128 4.10682C5.95339 4.04987 6.02756 4.05846 6.09826 4.07538C6.15084 4.08796 6.16667 4.13948 6.16727 4.18844C6.17014 4.41803 6.23486 4.64149 6.23311 4.87158C6.23208 5.01258 6.19461 5.1301 6.07921 5.22668C5.86601 5.40505 5.7087 5.63097 5.59284 5.88177C5.53774 6.00107 5.5077 6.13298 5.42551 6.23872C5.34223 6.34588 5.27818 6.45107 5.27188 6.59818C5.26735 6.70337 5.208 6.80928 5.1606 6.9089C5.08769 7.06223 5.00558 7.21128 4.92429 7.36049C4.88792 7.42729 4.89425 7.49038 4.93739 7.54572C4.9829 7.60408 5.04605 7.58981 5.10619 7.56648C5.14622 7.55095 5.18199 7.52809 5.21498 7.50096C5.75591 7.05604 6.27579 6.58893 6.73447 6.05745C6.81942 5.95899 6.89517 5.85347 6.97231 5.74885C7.10929 5.56302 7.15274 5.34742 7.18373 5.12612C7.24658 4.67737 7.27291 4.22404 7.35395 3.77767C7.38517 3.60573 7.42196 3.43497 7.49754 3.27574C7.58535 3.09073 7.7818 2.9791 7.9837 3.00456C8.02878 3.01026 8.07151 3.03736 8.11449 3.05654C8.31975 3.1482 8.51398 3.11516 8.7015 3.00557C8.7504 2.97697 8.79897 2.94772 8.84648 2.91688C8.88405 2.89246 8.92196 2.86774 8.95566 2.83843C8.99659 2.80282 9.04598 2.7602 9.03558 2.70442C9.02445 2.64469 8.95869 2.6356 8.9061 2.62196C8.88315 2.61598 8.85941 2.61178 8.84686 2.58807C8.7984 2.4966 8.7158 2.45671 8.61966 2.43597C8.5766 2.42669 8.54449 2.4086 8.53393 2.35713C8.51805 2.27972 8.46118 2.23216 8.3926 2.19938C8.29519 2.15286 8.18947 2.13834 8.0839 2.12814C8.02168 2.1221 7.96703 2.10742 7.91125 2.07542C7.75102 1.98346 7.57417 1.92995 7.39972 1.87169C7.05335 1.75601 6.69785 1.66728 6.36412 1.51433C6.00308 1.34883 5.65593 1.15705 5.31808 0.949746C5.1081 0.820894 4.89179 0.720612 4.64751 0.680227C4.47781 0.652175 4.32745 0.575033 4.17917 0.488258C3.98106 0.372286 3.76246 0.299864 3.54411 0.231672C3.03792 0.0735675 2.51804 0.00311079 1.96917 0Z" fill="rgb(250,194,37)" fill-rule="evenodd" transform="matrix(1,0,0,-1,17.963,13.3585)" />
	<path id="path26" d="M0.181765 8.91577e-05C0.118978 -0.00156076 0.0649799 0.0196475 0.0242418 0.0671652C-0.0194062 0.118043 -0.0025765 0.171201 0.0623705 0.18944C0.119218 0.205399 0.174625 0.196519 0.224813 0.166191C0.264171 0.142462 0.303229 0.112673 0.289879 0.0594558C0.27629 0.00527844 0.228713 0.00023915 0.181765 8.91577e-05Z" fill="rgb(50,142,60)" fill-rule="evenodd" transform="matrix(1,0,0,-1,27.6173,13.6499)" />
	<path id="path28" d="M0.778687 1.48756C0.828587 1.35932 0.879235 1.23438 0.925191 1.10773C0.938465 1.07116 0.953686 1.06722 0.987353 1.07774C1.11728 1.1184 1.24797 1.15659 1.38869 1.19879C1.31456 1.07177 1.24829 0.954246 1.17757 0.839437C1.15569 0.803877 1.16251 0.78879 1.19469 0.767304C1.30496 0.693679 1.41311 0.616855 1.53559 0.531875C1.43763 0.517027 1.35401 0.504339 1.27036 0.49165C1.24848 0.488345 1.22651 0.48536 1.20468 0.481548C1.07137 0.458277 1.07321 0.458383 1.08518 0.326941C1.09454 0.223914 1.09864 0.120407 1.10619 0C0.999908 0.0991885 0.903065 0.185395 0.811607 0.27696C0.773942 0.314679 0.753417 0.308841 0.718337 0.274987C0.626186 0.185982 0.529663 0.101507 0.42317 0.00455814C0.430767 0.104919 0.434259 0.192059 0.444469 0.278372C0.466354 0.463341 0.46782 0.463421 0.288449 0.493943C0.197844 0.50935 0.107025 0.523611 0 0.541071C0.115049 0.618828 0.214611 0.691494 0.319744 0.754936C0.374922 0.78823 0.384172 0.8131 0.348532 0.869371C0.282638 0.973438 0.225886 1.08334 0.157326 1.20503C0.280558 1.16747 0.38953 1.13444 0.498394 1.10102C0.600702 1.06959 0.600462 1.06948 0.63954 1.16672C0.680724 1.26924 0.722282 1.3716 0.763999 1.47391C0.765492 1.47759 0.77029 1.47994 0.778687 1.48756Z" fill="rgb(252,252,254)" fill-rule="evenodd" transform="matrix(1,0,0,-1,7.755,17.098)" />
	<path id="path30" d="M0.775269 1.49972C0.828766 1.36161 0.878317 1.23872 0.923497 1.11424C0.938433 1.07308 0.954437 1.06722 0.995885 1.08094C1.12113 1.12237 1.24837 1.15774 1.38866 1.19962C1.31339 1.07007 1.24692 0.953366 1.17781 0.838237C1.15978 0.808195 1.15808 0.793481 1.19135 0.771489C1.30357 0.697305 1.41264 0.618402 1.53545 0.532515C1.39121 0.510763 1.26203 0.488212 1.13198 0.473284C1.0833 0.467713 1.0749 0.448707 1.0785 0.406084C1.08948 0.27648 1.09764 0.146637 1.1081 0C0.999471 0.101588 0.901596 0.190087 0.807694 0.282638C0.776335 0.313533 0.757559 0.31252 0.726992 0.283598C0.630885 0.192726 0.532267 0.104493 0.423978 0.00549111C0.434457 0.14725 0.43829 0.275201 0.455568 0.401339C0.464477 0.466354 0.434521 0.475311 0.386976 0.482294C0.263402 0.500448 0.139989 0.519667 0 0.540992C0.120732 0.623093 0.226246 0.699064 0.336326 0.767704C0.382487 0.796493 0.379792 0.818592 0.355396 0.859376C0.289534 0.969414 0.227824 1.08193 0.156942 1.20671C0.290501 1.16536 0.413795 1.13111 0.534008 1.08822C0.587971 1.06895 0.608339 1.07647 0.627966 1.13199C0.670451 1.25218 0.72226 1.3691 0.775269 1.49972Z" fill="rgb(252,252,254)" fill-rule="evenodd" transform="matrix(1,0,0,-1,1.87634,18.1172)" />
	<path id="path32" d="M1.38794 1.19882C1.31411 1.07209 1.24803 0.954939 1.17779 0.84029C1.15657 0.805663 1.16067 0.790496 1.19397 0.768397C1.30446 0.695092 1.41244 0.617975 1.53474 0.533021C1.40522 0.513269 1.28926 0.495596 1.17328 0.478003C1.1667 0.477017 1.16003 0.476377 1.15337 0.47627C1.09083 0.475257 1.06943 0.45036 1.07812 0.383053C1.09371 0.262512 1.09704 0.140399 1.10683 0C1.01806 0.0829814 0.94145 0.154341 0.86516 0.225967C0.767837 0.317345 0.767944 0.317425 0.669875 0.228659C0.591239 0.157513 0.512576 0.0864467 0.423197 0.00559785C0.433966 0.149489 0.44031 0.280692 0.455318 0.410908C0.460996 0.46009 0.445482 0.471525 0.402698 0.477683C0.273974 0.496209 0.145757 0.518147 0 0.541525C0.117581 0.621041 0.220448 0.694932 0.327927 0.761333C0.376015 0.791055 0.383612 0.812807 0.353144 0.862015C0.286956 0.968853 0.227859 1.08012 0.162337 1.19583C0.228179 1.19394 0.279119 1.16552 0.333658 1.15241C0.372177 1.14316 0.409389 1.1285 0.447374 1.11688C0.601208 1.06975 0.601128 1.06985 0.662304 1.22254C0.697544 1.31051 0.733211 1.39829 0.774235 1.49993C0.825228 1.36739 0.872997 1.24821 0.91658 1.12754C0.93356 1.08054 0.94942 1.06356 1.00481 1.08316C1.12679 1.12629 1.25258 1.15873 1.38794 1.19882Z" fill="rgb(252,252,254)" fill-rule="evenodd" transform="matrix(1,0,0,-1,4.86475,14.8319)" />
	<path id="path34" d="M1.35715 1.17408C1.29182 1.06098 1.22832 0.946754 1.16008 0.835437C1.13836 0.800038 1.14406 0.78543 1.17669 0.763705C1.28704 0.690133 1.39508 0.613043 1.51696 0.528276C1.42619 0.514095 1.34905 0.502286 1.27201 0.489917C1.20238 0.478722 1.11114 0.489331 1.0695 0.448973C1.02912 0.409868 1.07289 0.31953 1.07185 0.25105C1.07062 0.172067 1.09005 0.0935372 1.08155 0.00250567C0.980789 0.0965493 0.8844 0.183262 0.792248 0.274241C0.756662 0.309347 0.73587 0.306148 0.70143 0.272855C0.60808 0.182543 0.510544 0.0965494 0.405011 0C0.416047 0.144877 0.421644 0.275094 0.437878 0.403951C0.444649 0.45769 0.425563 0.468059 0.38174 0.47435C0.254669 0.492556 0.127998 0.513402 0.000286724 0.533367C-0.00296536 0.560663 0.0222248 0.563969 0.0364327 0.573778C0.13125 0.639193 0.226013 0.704821 0.323203 0.766557C0.358442 0.788922 0.365506 0.804569 0.342608 0.842794C0.274794 0.955924 0.212072 1.07212 0.139246 1.20156C0.27818 1.15878 0.402852 1.12335 0.525178 1.08118C0.57236 1.0649 0.58918 1.07468 0.606053 1.12007C0.651316 1.24205 0.702497 1.36187 0.756476 1.49529C0.807363 1.36321 0.855531 1.24373 0.898954 1.12258C0.916068 1.07484 0.933607 1.0606 0.987267 1.07812C1.10661 1.11709 1.22542 1.15953 1.34971 1.18178C1.35206 1.17909 1.35454 1.17651 1.35715 1.17408Z" fill="rgb(252,252,254)" fill-rule="evenodd" transform="matrix(1,0,0,-1,4.94971,22)" />
	<path id="path36" d="M0.260327 0C0.307274 0.153142 0.346272 0.283696 0.38767 0.413499C0.39985 0.451747 0.39499 0.474967 0.358302 0.499026C0.241728 0.575552 0.128334 0.656847 0 0.745823C0.149243 0.751733 0.284236 0.761993 0.419049 0.760313C0.482406 0.759533 0.505085 0.783801 0.521104 0.838818C0.556952 0.961962 0.59835 1.08346 0.644218 1.22667C0.699025 1.07749 0.747983 0.949423 0.79256 0.81986C0.80711 0.777652 0.828469 0.764422 0.872536 0.765382C1.01107 0.768352 1.14972 0.766462 1.30271 0.766462C1.18131 0.675087 1.07191 0.589771 0.958902 0.509555C0.923084 0.484116 0.918974 0.461797 0.932743 0.423819C0.979091 0.295995 1.02268 0.167182 1.05601 0.0285586C0.954072 0.0962353 0.848538 0.159172 0.751492 0.233238C0.687955 0.281716 0.642958 0.284926 0.579421 0.232278C0.483996 0.153202 0.379151 0.0854958 0.260327 0Z" fill="rgb(251,251,254)" fill-rule="evenodd" transform="matrix(1,0,0,-1,5.83655,19.3726)" />
	<path id="path38" d="M0 0.00946712C0.00294832 0.0128085 0.00589663 0.0161498 0.00884495 0.0194912C0.00891047 0.013005 0.00900836 0.0065189 0.00910664 0C0.00592901 0.00298101 0.0028828 0.00615853 0 0.00946712Z" fill="rgb(252,252,254)" fill-rule="evenodd" transform="matrix(1,0,0,-1,4.92444,21.7655)" />
</svg>
