<svg width="28" height="28" viewBox="0 0 28 28" fill="none" xmlns="http://www.w3.org/2000/svg">
<rect y="4" width="28" height="20" rx="3" fill="white"/>
<mask id="mask0_17_3856" style="mask-type:luminance" maskUnits="userSpaceOnUse" x="0" y="4" width="28" height="20">
<rect y="4" width="28" height="20" rx="3" fill="white"/>
</mask>
<g mask="url(#mask0_17_3856)">
<rect y="4" width="28" height="20" fill="#19BFBF"/>
<path fill-rule="evenodd" clip-rule="evenodd" d="M13.3333 18.6667L12.7588 17.5176C12.7023 17.4047 12.5869 17.3334 12.4607 17.3334H12.1381C12.0497 17.3334 11.9649 17.2982 11.9024 17.2357L9.43096 14.7643C9.36845 14.7018 9.33333 14.617 9.33333 14.5286V13.4714C9.33333 13.383 9.29821 13.2982 9.2357 13.2357L8.06529 12.0653C8.02257 12.0226 7.99226 11.9691 7.97761 11.9104L7.37771 9.51087C7.35007 9.40031 7.26786 9.31153 7.15974 9.27549L5.35581 8.67418C5.34084 8.66919 5.32625 8.66315 5.31215 8.65609L4.18426 8.09215C4.07133 8.03569 4 7.92027 4 7.79401V7.00002C4 6.81593 4.14924 6.66669 4.33333 6.66669H5.19526C5.28367 6.66669 5.36845 6.70181 5.43096 6.76432L5.90237 7.23572C5.96488 7.29823 6.04967 7.33335 6.13807 7.33335H7.19526C7.28367 7.33335 7.36845 7.29823 7.43096 7.23572L7.90237 6.76432C7.96488 6.70181 8.04967 6.66669 8.13807 6.66669H10.588C10.6397 6.66669 10.6908 6.67874 10.737 6.70188L11.9296 7.29816C11.9759 7.32131 12.0269 7.33335 12.0787 7.33335H13.2546C13.3064 7.33335 13.3574 7.32131 13.4037 7.29816L14.5963 6.70188C14.6426 6.67874 14.6936 6.66669 14.7454 6.66669H17C17.1841 6.66669 17.3333 6.81593 17.3333 7.00002V7.66669C17.3333 7.85078 17.1841 8.00002 17 8.00002H16.3333C16.1492 8.00002 16 8.14926 16 8.33335V9.79401C16 9.92027 16.0713 10.0357 16.1843 10.0922L16.8509 10.4255C17.0726 10.5363 17.3333 10.3751 17.3333 10.1273V9.00002C17.3333 8.81593 17.4826 8.66669 17.6667 8.66669H19C19.1841 8.66669 19.3333 8.81593 19.3333 9.00002C19.3333 9.18412 19.4826 9.33335 19.6667 9.33335H21C21.1841 9.33335 21.3333 9.48259 21.3333 9.66669V10.6126C21.3333 10.6484 21.3276 10.684 21.3162 10.718L20.6915 12.592C20.6752 12.6411 20.6476 12.6857 20.611 12.7223L18.7049 14.6284C18.6796 14.6538 18.6585 14.683 18.6425 14.7151L18.0352 15.9296C18.012 15.9759 18 16.027 18 16.0787V17C18 17.1841 17.8508 17.3334 17.6667 17.3334H17.5393C17.4131 17.3334 17.2977 17.262 17.2412 17.1491L16.7588 16.1843C16.7023 16.0714 16.5869 16 16.4607 16H14.8727C14.7464 16 14.631 16.0714 14.5745 16.1843L14.0745 17.1843C14.0276 17.2781 14.0276 17.3886 14.0745 17.4824L14.5745 18.4824C14.631 18.5954 14.7464 18.6667 14.8727 18.6667H15.8619C15.9503 18.6667 16.0351 18.7018 16.0976 18.7643L17.2357 19.9024C17.2982 19.9649 17.3333 20.0497 17.3333 20.1381V21C17.3333 21.1841 17.1841 21.3334 17 21.3334H16.206C16.0798 21.3334 15.9643 21.262 15.9079 21.1491L15.4255 20.1843C15.369 20.0714 15.2536 20 15.1273 20H14.206C14.0798 20 13.9643 19.9287 13.9079 19.8158L13.3333 18.6667Z" fill="white"/>
</g>
</svg>
