<svg width="38.000000" height="28.000000" viewBox="0 0 38 28" fill="none" xmlns="http://www.w3.org/2000/svg" xmlns:xlink="http://www.w3.org/1999/xlink">
	<desc>
			Created with Pixso.
	</desc>
	<defs/>
	<rect id="Congo Democratic Republic" width="28.000000" height="28.000000" transform="translate(5.000000 0.000000)" fill="#FFFFFF" fill-opacity="0"/>
	<rect id="Mask" x="5.000000" y="4.000000" rx="3.000000" width="28.000000" height="20.000000" fill="#FFFFFF" fill-opacity="1.000000"/>
	<rect id="Mask" x="5.000000" y="4.000000" rx="3.000000" width="28.000000" height="20.000000" stroke="#979797" stroke-opacity="0" stroke-width="0.000000"/>
	<mask id="mask17_5884" mask-type="alpha" maskUnits="userSpaceOnUse" x="5.000000" y="4.000000" width="28.000000" height="20.000000">
		<rect id="Mask" x="5.000000" y="4.000000" rx="3.000000" width="28.000000" height="20.000000" fill="#FFFFFF" fill-opacity="1.000000"/>
		<rect id="Mask" x="5.000000" y="4.000000" rx="3.000000" width="28.000000" height="20.000000" stroke="#979797" stroke-opacity="0" stroke-width="0.000000"/>
	</mask>
	<g mask="url(#mask17_5884)">
		<rect id="Mask Copy" x="5.000000" y="4.000000" rx="2.000000" width="28.000000" height="20.000000" fill="#158AFF" fill-opacity="1.000000"/>
		<rect id="Mask Copy" x="5.000000" y="4.000000" rx="2.000000" width="28.000000" height="20.000000" stroke="#979797" stroke-opacity="0" stroke-width="0.000000"/>
	</g>
	<g mask="url(#mask17_5884)">
		<path id="Rectangle 69 Copy" d="M37.35 9.2L2.9 26.75L-0.73 19.63L33.72 2.07L37.35 9.2Z" fill="#FDD216" fill-opacity="1.000000" fill-rule="evenodd"/>
		<path id="Rectangle 69 Copy" d="M2.9 26.75L-0.73 19.63L33.72 2.07L37.35 9.2L2.9 26.75Z" stroke="#979797" stroke-opacity="0" stroke-width="0.000000"/>
	</g>
	<g mask="url(#mask17_5884)">
		<rect id="Rectangle 69" x="37.121704" y="7.773804" width="38.666668" height="5.333333" transform="rotate(153 37.121704 7.773804)" fill="#CE1120" fill-opacity="1.000000"/>
		<rect id="Rectangle 69" x="37.121704" y="7.773804" width="38.666668" height="5.333333" transform="rotate(153 37.121704 7.773804)" stroke="#979797" stroke-opacity="0" stroke-width="0.000000"/>
	</g>
	<g mask="url(#mask17_5884)">
		<path id="Star 8" d="M9.66 9.96L7.7 11.36L8.43 9.06L6.49 7.63L8.9 7.61L9.66 5.33L10.43 7.61L12.83 7.63L10.9 9.06L11.62 11.36L9.66 9.96Z" fill="#FDD216" fill-opacity="1.000000" fill-rule="evenodd"/>
		<path id="Star 8" d="M7.7 11.36L8.43 9.06L6.49 7.63L8.9 7.61L9.66 5.33L10.43 7.61L12.83 7.63L10.9 9.06L11.62 11.36L9.66 9.96L7.7 11.36Z" stroke="#979797" stroke-opacity="0" stroke-width="0.000000"/>
	</g>
</svg>
