<svg width="28" height="28" viewBox="0 0 28 28" fill="none" xmlns="http://www.w3.org/2000/svg">
<rect y="3.99994" width="28" height="20" rx="3" fill="white"/>
<mask id="mask0_107628_929" style="mask-type:luminance" maskUnits="userSpaceOnUse" x="0" y="4" width="28" height="20">
<rect y="3.99994" width="28" height="20" rx="3" fill="white"/>
</mask>
<g mask="url(#mask0_107628_929)">
<rect y="3.99994" width="28" height="20" fill="#062365"/>
<path d="M0 3.66661H-0.901086L-0.21693 4.25302L4.33333 8.15325V9.16173L-0.193746 12.3954L-0.333333 12.4951V12.6666V13.3333V13.9347L0.176666 13.6159L5.42893 10.3333H6.55984L11.0821 13.5634C11.176 13.6305 11.2886 13.6666 11.404 13.6666C11.9182 13.6666 12.1548 13.0269 11.7644 12.6923L7.66667 9.17996V8.17148L12.0542 5.03756C12.2294 4.91241 12.3333 4.71037 12.3333 4.49507V3.99994V3.39852L11.8233 3.71727L6.57107 6.99994H5.44016L0.860413 3.72869L0.773488 3.66661H0.666667H0Z" fill="#DB1E36" stroke="white" stroke-width="0.666667"/>
<path fill-rule="evenodd" clip-rule="evenodd" d="M0 7.33327V9.99994H4.66667V13.3333C4.66667 13.7015 4.96514 13.9999 5.33333 13.9999H6.66667C7.03486 13.9999 7.33333 13.7015 7.33333 13.3333V9.99994H12C12.3682 9.99994 12.6667 9.70146 12.6667 9.33327V7.99994C12.6667 7.63175 12.3682 7.33327 12 7.33327H7.33333V3.99994H4.66667V7.33327H0Z" fill="white"/>
<path fill-rule="evenodd" clip-rule="evenodd" d="M0 7.99994H5.33333V7.33327V3.99994H6.66667V7.33327V7.99994H12V9.33327H6.66667V9.99994V13.3333H5.33333V9.99994V9.33327H0V7.99994Z" fill="#DB1E36"/>
<path fill-rule="evenodd" clip-rule="evenodd" d="M20 17.9999C22.2091 17.9999 24 16.2091 24 13.9999C24 11.7908 22.2091 9.99994 20 9.99994C17.7909 9.99994 16 11.7908 16 13.9999C16 16.2091 17.7909 17.9999 20 17.9999Z" stroke="white" stroke-width="1.33333" stroke-linecap="round" stroke-dasharray="0.1 1.7"/>
</g>
</svg>
