<svg viewBox="0 0 28 28" xmlns="http://www.w3.org/2000/svg" xmlns:xlink="http://www.w3.org/1999/xlink" width="28.000000" height="28.000000" fill="none" customFrame="#000000">
	<defs>
		<filter id="pixso_custom_mask_type_alpha">
			<feColorMatrix type="matrix" values="0 0 0 0 1 0 0 0 0 1 0 0 0 0 1 0 0 0 1 0 " />
		</filter>
		<linearGradient id="paint_linear_147" x1="10.666687" x2="10.666687" y1="10.666687" y2="18.666687" gradientUnits="userSpaceOnUse">
			<stop stop-color="rgb(255,32.8258,45.786)" offset="0" stop-opacity="1" />
			<stop stop-color="rgb(253,13,27)" offset="1" stop-opacity="1" />
		</linearGradient>
	</defs>
	<mask id="mask_367" width="28.000000" height="20.000000" x="0.000000" y="4.000000" maskUnits="userSpaceOnUse">
		<g filter="url(#pixso_custom_mask_type_alpha)">
			<rect id="Mask" width="28.000000" height="20.000000" x="0.000000" y="4.000000" rx="3.000000" fill="rgb(255,255,255)" />
			<rect id="Mask" width="27.500000" height="19.500000" x="0.250000" y="4.250000" rx="2.750000" stroke="rgb(245,245,245)" stroke-width="0.5" />
		</g>
	</mask>
	<rect id="Croatia" width="28.000000" height="28.000000" x="0.000000" y="0.000000" fill="rgb(255,255,255)" fill-opacity="0" />
	<rect id="Mask" width="28.000000" height="20.000000" x="0.000000" y="4.000000" rx="3.000000" fill="rgb(255,255,255)" />
	<rect id="Mask" width="27.500000" height="19.500000" x="0.250000" y="4.250000" rx="2.750000" stroke="rgb(214,216,221)" stroke-width="0.5" />
	<g mask="url(#mask_367)">
		<path id="Rectangle 2" d="M0 10.6667L28 10.6667L28 4L0 4L0 10.6667Z" fill="rgb(255,32,45)" fill-rule="evenodd" />
		<path id="Rectangle 2" d="M28 10.6667L28 4L0 4L0 10.6667L28 10.6667Z" fill-rule="evenodd" stroke="rgb(150.96,150.96,150.96)" stroke-opacity="0" stroke-width="0" />
		<g style="mix-blend-mode:normal">
			<path id="Rectangle 675" d="M10.6667 9.33335L11.3334 8.66669L12 9.33335L12 10.6667L10.6667 10.6667L10.6667 9.33335ZM13.3334 9.33335L14 8.66669L14.6667 9.33335L14.6667 10.6667L13.3334 10.6667L13.3334 9.33335ZM16.6667 8.66669L16 9.33335L16 10.6667L17.3334 10.6667L17.3334 9.33335L16.6667 8.66669Z" opacity="0.5" fill="rgb(24,149,219)" fill-rule="evenodd" />
			<path id="Rectangle 675" d="M10.6667 9.33335L11.3334 8.66669L12 9.33335L12 10.6667L10.6667 10.6667L10.6667 9.33335ZM13.3334 9.33335L14 8.66669L14.6667 9.33335L14.6667 10.6667L13.3334 10.6667L13.3334 9.33335ZM16.6667 8.66669L16 9.33335L16 10.6667L17.3334 10.6667L17.3334 9.33335L16.6667 8.66669Z" opacity="0.5" fill-rule="evenodd" stroke="rgb(150.96,150.96,150.96)" stroke-opacity="0" stroke-width="0" />
		</g>
		<g style="mix-blend-mode:normal">
			<path id="Rectangle 675" d="M12.6667 8.66669L12 9.33335L12 10.6667L13.3333 10.6667L13.3333 9.33335L12.6667 8.66669ZM15.3333 8.66669L14.6667 9.33335L14.6667 10.6667L16 10.6667L16 9.33335L15.3333 8.66669Z" opacity="0.5" fill="rgb(25,31,148)" fill-rule="evenodd" />
			<path id="Rectangle 675" d="M12.6667 8.66669L12 9.33335L12 10.6667L13.3333 10.6667L13.3333 9.33335L12.6667 8.66669ZM15.3333 8.66669L14.6667 9.33335L14.6667 10.6667L16 10.6667L16 9.33335L15.3333 8.66669Z" opacity="0.5" fill-rule="evenodd" stroke="rgb(150.96,150.96,150.96)" stroke-opacity="0" stroke-width="0" />
		</g>
		<path id="Rectangle 2" d="M0 24L28 24L28 17.3333L0 17.3333L0 24Z" fill="rgb(32,39,172)" fill-rule="evenodd" />
		<path id="Rectangle 2" d="M28 24L28 17.3333L0 17.3333L0 24L28 24Z" fill-rule="evenodd" stroke="rgb(150.96,150.96,150.96)" stroke-opacity="0" stroke-width="0" />
		<path id="Rectangle 657" d="M11.3334 10.6667L12 10.6667L12 12L10.6667 12L11.3334 10.6667ZM13.3334 12L12 12L12 13.3334L10.6667 13.3334L10.6667 14.6667L12 14.6667L12 16L10.6667 16L10.6667 17.3334L12 17.3334L12 18.6667L13.3334 18.6667L13.3334 17.3334L14.6667 17.3334L14.6667 18.6667L16 18.6667L16 17.3334L17.3334 17.3334L17.3334 16L16 16L16 14.6667L17.3334 14.6667L17.3334 13.3334L16 13.3334L16 12L17.3334 12L16.6667 10.6667L16 10.6667L16 12L14.6667 12L14.6667 10.6667L13.3334 10.6667L13.3334 12ZM13.3334 13.3334L13.3334 12L14.6667 12L14.6667 13.3334L13.3334 13.3334ZM13.3334 14.6667L13.3334 13.3334L12 13.3334L12 14.6667L13.3334 14.6667ZM14.6667 14.6667L13.3334 14.6667L13.3334 16L12 16L12 17.3334L13.3334 17.3334L13.3334 16L14.6667 16L14.6667 17.3334L16 17.3334L16 16L14.6667 16L14.6667 14.6667ZM14.6667 14.6667L16 14.6667L16 13.3334L14.6667 13.3334L14.6667 14.6667Z" fill="url(#paint_linear_147)" fill-rule="evenodd" />
		<path id="Rectangle 657" d="M11.3334 10.6667L12 10.6667L12 12L10.6667 12L11.3334 10.6667ZM13.3334 12L12 12L12 13.3334L10.6667 13.3334L10.6667 14.6667L12 14.6667L12 16L10.6667 16L10.6667 17.3334L12 17.3334L12 18.6667L13.3334 18.6667L13.3334 17.3334L14.6667 17.3334L14.6667 18.6667L16 18.6667L16 17.3334L17.3334 17.3334L17.3334 16L16 16L16 14.6667L17.3334 14.6667L17.3334 13.3334L16 13.3334L16 12L17.3334 12L16.6667 10.6667L16 10.6667L16 12L14.6667 12L14.6667 10.6667L13.3334 10.6667L13.3334 12ZM13.3334 13.3334L13.3334 12L14.6667 12L14.6667 13.3334L13.3334 13.3334ZM13.3334 14.6667L13.3334 13.3334L12 13.3334L12 14.6667L13.3334 14.6667ZM14.6667 14.6667L13.3334 14.6667L13.3334 16L12 16L12 17.3334L13.3334 17.3334L13.3334 16L14.6667 16L14.6667 17.3334L16 17.3334L16 16L14.6667 16L14.6667 14.6667ZM14.6667 14.6667L16 14.6667L16 13.3334L14.6667 13.3334L14.6667 14.6667Z" fill-rule="evenodd" stroke="rgb(150.96,150.96,150.96)" stroke-opacity="0" stroke-width="0" />
	</g>
</svg>
