<svg width="28.000000" height="28.000000" viewBox="0 0 28 28" fill="none" xmlns="http://www.w3.org/2000/svg" xmlns:xlink="http://www.w3.org/1999/xlink">
	<desc>
			Created with Pixso.
	</desc>
	<defs/>
	<rect id="Cuba" width="28.000000" height="28.000000" fill="#FFFFFF" fill-opacity="0"/>
	<rect id="Mask" y="4.000000" rx="3.000000" width="28.000000" height="20.000000" fill="#FFFFFF" fill-opacity="1.000000"/>
	<rect id="Mask" x="0.250000" y="4.250000" rx="3.000000" width="27.500000" height="19.500000" stroke="#D6D8DD" stroke-opacity="1.000000" stroke-width="0.500000"/>
	<mask id="mask17_5925" mask-type="alpha" maskUnits="userSpaceOnUse" x="0.000000" y="4.000000" width="28.000000" height="20.000000">
		<rect id="Mask" y="4.000000" rx="3.000000" width="28.000000" height="20.000000" fill="#FFFFFF" fill-opacity="1.000000"/>
		<rect id="Mask" x="0.250000" y="4.250000" rx="3.000000" width="27.500000" height="19.500000" stroke="#F5F5F5" stroke-opacity="1.000000" stroke-width="0.500000"/>
	</mask>
	<g mask="url(#mask17_5925)">
		<path id="Rectangle 2" d="M0 8L28 8L28 4L0 4L0 8Z" fill="#0B389F" fill-opacity="1.000000" fill-rule="evenodd"/>
		<path id="Rectangle 2" d="M28 8L28 4L0 4L0 8L28 8Z" stroke="#979797" stroke-opacity="0" stroke-width="0.000000"/>
	</g>
	<g mask="url(#mask17_5925)">
		<path id="Rectangle 2" d="M0 16L28 16L28 12L0 12L0 16Z" fill="#0B389F" fill-opacity="1.000000" fill-rule="evenodd"/>
		<path id="Rectangle 2" d="M28 16L28 12L0 12L0 16L28 16Z" stroke="#979797" stroke-opacity="0" stroke-width="0.000000"/>
	</g>
	<g mask="url(#mask17_5925)">
		<path id="Rectangle 2" d="M0 24L28 24L28 20L0 20L0 24Z" fill="#0B389F" fill-opacity="1.000000" fill-rule="evenodd"/>
		<path id="Rectangle 2" d="M28 24L28 20L0 20L0 24L28 24Z" stroke="#979797" stroke-opacity="0" stroke-width="0.000000"/>
	</g>
	<g mask="url(#mask17_5925)">
		<path id="Rectangle 83" d="M0 4L13.33 14L0 24L0 4Z" fill="#E12A43" fill-opacity="1.000000" fill-rule="evenodd"/>
		<path id="Rectangle 83" d="M13.33 14L0 24L0 4L13.33 14Z" stroke="#979797" stroke-opacity="0" stroke-width="0.000000"/>
	</g>
	<g mask="url(#mask17_5925)">
		<path id="Star 53" d="M4.66 15.02L3.09 16.15L3.69 14.31L2.13 13.17L4.06 13.17L4.66 11.33L5.26 13.17L7.2 13.17L5.63 14.31L6.23 16.15L4.66 15.02Z" fill="#FFFFFF" fill-opacity="1.000000" fill-rule="evenodd"/>
		<path id="Star 53" d="M3.09 16.15L3.69 14.31L2.13 13.17L4.06 13.17L4.66 11.33L5.26 13.17L7.2 13.17L5.63 14.31L6.23 16.15L4.66 15.02L3.09 16.15Z" stroke="#979797" stroke-opacity="0" stroke-width="0.000000"/>
	</g>
</svg>
