<svg width="28.000000" height="28.000000" viewBox="0 0 28 28" fill="none" xmlns="http://www.w3.org/2000/svg" xmlns:xlink="http://www.w3.org/1999/xlink">
	<desc>
			Created with Pixso.
	</desc>
	<defs/>
	<rect id="Egypt" width="28.000000" height="28.000000" fill="#FFFFFF" fill-opacity="0"/>
	<rect id="Mask" y="4.000000" rx="3.000000" width="28.000000" height="20.000000" fill="#FFFFFF" fill-opacity="1.000000"/>
	<rect id="Mask" x="0.250000" y="4.250000" rx="3.000000" width="27.500000" height="19.500000" stroke="#D6D8DD" stroke-opacity="1.000000" stroke-width="0.500000"/>
	<mask id="mask17_5735" mask-type="alpha" maskUnits="userSpaceOnUse" x="0.000000" y="4.000000" width="28.000000" height="20.000000">
		<rect id="Mask" y="4.000000" rx="3.000000" width="28.000000" height="20.000000" fill="#FFFFFF" fill-opacity="1.000000"/>
		<rect id="Mask" x="0.250000" y="4.250000" rx="3.000000" width="27.500000" height="19.500000" stroke="#F5F5F5" stroke-opacity="1.000000" stroke-width="0.500000"/>
	</mask>
	<g mask="url(#mask17_5735)">
		<path id="Rectangle 2" d="M0 10.66L28 10.66L28 4L0 4L0 10.66Z" fill="#E41D33" fill-opacity="1.000000" fill-rule="evenodd"/>
		<path id="Rectangle 2" d="M28 10.66L28 4L0 4L0 10.66L28 10.66Z" stroke="#979797" stroke-opacity="0" stroke-width="0.000000"/>
	</g>
	<g mask="url(#mask17_5735)">
		<path id="Rectangle 2" d="M0 24L28 24L28 17.33L0 17.33L0 24Z" fill="#262626" fill-opacity="1.000000" fill-rule="evenodd"/>
		<path id="Rectangle 2" d="M28 24L28 17.33L0 17.33L0 24L28 24Z" stroke="#979797" stroke-opacity="0" stroke-width="0.000000"/>
	</g>
	<g mask="url(#mask17_5735)">
		<path id="Rectangle 129" d="M10.66 12.66C10.66 12.29 10.96 12 11.33 12L11.79 12C11.92 12 12.03 12.07 12.09 12.18L12.66 13.33C12.66 13.33 13.39 12 14 12C14.66 12 15.33 13.33 15.33 13.33L15.9 12.18C15.96 12.07 16.07 12 16.2 12L16.66 12C17.03 12 17.33 12.29 17.33 12.66L17.33 14.75C17.33 15.28 16.73 15.6 16.29 15.3L15.33 14.66L14.66 14.66L14.66 15.33C14.66 15.7 14.36 16 14 16L14 16C13.63 16 13.33 15.7 13.33 15.33L13.33 14.66L12.66 14.66L11.7 15.3C11.26 15.6 10.66 15.28 10.66 14.75L10.66 12.66Z" fill="#F4B32E" fill-opacity="0.250000" fill-rule="evenodd"/>
		<path id="Rectangle 129" d="M12.31 12.63L12.09 12.18C12.03 12.07 11.92 12 11.79 12L11.33 12C10.96 12 10.66 12.29 10.66 12.66L10.66 14.75C10.66 15.28 11.26 15.6 11.7 15.3L12.6 14.7L12.66 14.66L13.33 14.66L13.33 15.33C13.33 15.7 13.63 16 14 16C14.36 16 14.66 15.7 14.66 15.33L14.66 14.66L15.33 14.66L15.39 14.7L16.29 15.3C16.73 15.6 17.33 15.28 17.33 14.75L17.33 12.66C17.33 12.29 17.03 12 16.66 12L16.2 12C16.07 12 15.96 12.07 15.9 12.18L15.69 12.61L15.33 13.33C15.33 13.33 15.16 13 14.91 12.67C14.66 12.33 14.33 12 14 12C13.69 12 13.35 12.34 13.09 12.68C12.84 13.01 12.66 13.33 12.66 13.33L12.31 12.63ZM15.69 14.1L16.66 14.75L16.66 12.66L16.41 12.66L15.69 14.1ZM14.92 14L14.73 13.63Q14.7 13.56 14.64 13.46Q14.51 13.24 14.38 13.06Q14.21 12.84 14.07 12.72Q14.03 12.7 14.01 12.68Q13.98 12.7 13.95 12.72Q13.81 12.84 13.63 13.07Q13.49 13.25 13.35 13.47Q13.28 13.58 13.25 13.65L13.06 14L14.92 14ZM12.3 14.1L11.58 12.66L11.33 12.66L11.33 14.75L12.3 14.1Z" fill="#C6A846" fill-opacity="1.000000" fill-rule="evenodd"/>
	</g>
</svg>
