<svg viewBox="0 0 28 28" xmlns="http://www.w3.org/2000/svg" xmlns:xlink="http://www.w3.org/1999/xlink" width="28.000000" height="28.000000" fill="none" customFrame="#000000">
	<defs>
		<filter id="pixso_custom_mask_type_alpha">
			<feColorMatrix type="matrix" values="0 0 0 0 1 0 0 0 0 1 0 0 0 0 1 0 0 0 1 0 " />
		</filter>
		<linearGradient id="paint_linear_151" x1="11.333374" x2="11.333374" y1="11.8665161" y2="16.6666718" gradientUnits="userSpaceOnUse">
			<stop stop-color="rgb(60.2984,119.972,56.7882)" offset="0" stop-opacity="1" />
			<stop stop-color="rgb(49,100,46)" offset="1" stop-opacity="1" />
		</linearGradient>
	</defs>
	<mask id="mask_391" width="28.000000" height="20.000000" x="0.000000" y="4.000000" maskUnits="userSpaceOnUse">
		<g filter="url(#pixso_custom_mask_type_alpha)">
			<rect id="Mask" width="28.000000" height="20.000000" x="0.000000" y="4.000000" rx="3.000000" fill="rgb(255,255,255)" />
			<rect id="Mask" width="27.500000" height="19.500000" x="0.250000" y="4.250000" rx="2.750000" stroke="rgb(245,245,245)" stroke-width="0.5" />
		</g>
	</mask>
	<rect id="El Salvador" width="28.000000" height="28.000000" x="0.000000" y="0.000000" fill="rgb(255,255,255)" fill-opacity="0" />
	<rect id="Mask" width="28.000000" height="20.000000" x="0.000000" y="4.000000" rx="3.000000" fill="rgb(255,255,255)" />
	<rect id="Mask" width="27.500000" height="19.500000" x="0.250000" y="4.250000" rx="2.750000" stroke="rgb(214,216,221)" stroke-width="0.5" />
	<g mask="url(#mask_391)">
		<path id="Rectangle 2" d="M0 10.6667L28 10.6667L28 4L0 4L0 10.6667Z" fill="rgb(27,87,196)" fill-rule="evenodd" />
		<path id="Rectangle 2" d="M28 10.6667L28 4L0 4L0 10.6667L28 10.6667Z" fill-rule="evenodd" stroke="rgb(150.96,150.96,150.96)" stroke-opacity="0" stroke-width="0" />
		<path id="Rectangle 2" d="M0 24L28 24L28 17.3334L0 17.3334L0 24Z" fill="rgb(27,87,196)" fill-rule="evenodd" />
		<path id="Rectangle 2" d="M28 24L28 17.3334L0 17.3334L0 24L28 24Z" fill-rule="evenodd" stroke="rgb(150.96,150.96,150.96)" stroke-opacity="0" stroke-width="0" />
		<path id="Oval 12" d="M12.4 11.8665C11.7523 12.353 11.3334 13.1276 11.3334 14C11.3334 15.4728 12.5273 16.6667 14 16.6667C15.4728 16.6667 16.6667 15.4728 16.6667 14C16.6667 13.1276 16.2478 12.353 15.6001 11.8665L14.6667 14.6667L13.3334 14.6667L12.4 11.8665Z" fill="url(#paint_linear_151)" fill-rule="evenodd" />
		<path id="Oval 12" d="M12.4 11.8665C11.7523 12.353 11.3334 13.1276 11.3334 14C11.3334 15.4728 12.5273 16.6667 14 16.6667C15.4728 16.6667 16.6667 15.4728 16.6667 14C16.6667 13.1276 16.2478 12.353 15.6001 11.8665L14.6667 14.6667L13.3334 14.6667L12.4 11.8665Z" fill-rule="evenodd" stroke="rgb(150.96,150.96,150.96)" stroke-opacity="0" stroke-width="0" />
		<path id="Rectangle 483" d="M14 11.3334L14.6667 14.6667L13.3334 14.6667L14 11.3334Z" fill="rgb(249,201,46)" fill-rule="evenodd" />
		<path id="Rectangle 483" d="M14.6667 14.6667L13.3334 14.6667L14 11.3334L14.6667 14.6667Z" fill-rule="evenodd" stroke="rgb(150.96,150.96,150.96)" stroke-opacity="0" stroke-width="0" />
	</g>
</svg>
