<svg width="28.000000" height="28.000000" viewBox="0 0 28 28" fill="none" xmlns="http://www.w3.org/2000/svg" xmlns:xlink="http://www.w3.org/1999/xlink">
	<desc>
			Created with Pixso.
	</desc>
	<defs/>
	<rect id="European Union" width="28.000000" height="28.000000" fill="#FFFFFF" fill-opacity="0"/>
	<rect id="Mask" y="4.000000" rx="3.000000" width="28.000000" height="20.000000" fill="#FFFFFF" fill-opacity="1.000000"/>
	<rect id="Mask" y="4.000000" rx="3.000000" width="28.000000" height="20.000000" stroke="#979797" stroke-opacity="0" stroke-width="0.000000"/>
	<mask id="mask17_3830" mask-type="alpha" maskUnits="userSpaceOnUse" x="0.000000" y="4.000000" width="28.000000" height="20.000000">
		<rect id="Mask" y="4.000000" rx="3.000000" width="28.000000" height="20.000000" fill="#FFFFFF" fill-opacity="1.000000"/>
		<rect id="Mask" y="4.000000" rx="3.000000" width="28.000000" height="20.000000" stroke="#979797" stroke-opacity="0" stroke-width="0.000000"/>
	</mask>
	<g mask="url(#mask17_3830)">
		<rect id="Mask Copy" y="4.000000" width="28.000000" height="20.000000" fill="#043CAE" fill-opacity="1.000000"/>
		<rect id="Mask Copy" y="4.000000" width="28.000000" height="20.000000" stroke="#979797" stroke-opacity="0" stroke-width="0.000000"/>
	</g>
	<g mask="url(#mask17_3830)">
		<mask id="mask_17_3832" fill="white">
			<path id="Star 2" d="M14 7.99997L13.0572 8.27612L13.3333 7.33331L13.0572 6.3905L14 6.66666L14.9428 6.3905L14.6666 7.33331L14.9428 8.27612L14 7.99997ZM10.6666 8.89313L9.72382 9.16928L10 8.22647L9.72382 7.28366L10.6666 7.55981L11.6094 7.28366L11.3333 8.22647L11.6094 9.16928L10.6666 8.89313ZM17.3333 8.89313L16.3905 9.16928L16.6666 8.22647L16.3905 7.28366L17.3333 7.55981L18.2761 7.28366L18 8.22647L18.2761 9.16928L17.3333 8.89313ZM8.2265 11.3333L7.28369 11.6095L7.55981 10.6667L7.28369 9.72385L8.2265 9.99997L9.16931 9.72385L8.89313 10.6667L9.16931 11.6095L8.2265 11.3333ZM19.7735 11.3333L18.8307 11.6095L19.1068 10.6667L18.8307 9.72385L19.7735 9.99997L20.7163 9.72385L20.4401 10.6667L20.7163 11.6095L19.7735 11.3333ZM7.33331 14.6667L6.3905 14.9428L6.66663 14L6.3905 13.0572L7.33331 13.3333L8.27612 13.0572L8 14L8.27612 14.9428L7.33331 14.6667ZM20.6666 14.6667L19.7238 14.9428L20 14L19.7238 13.0572L20.6666 13.3333L21.6094 13.0572L21.3333 14L21.6094 14.9428L20.6666 14.6667ZM8.2265 18L7.28369 18.2761L7.55981 17.3333L7.28369 16.3905L8.2265 16.6667L9.16931 16.3905L8.89313 17.3333L9.16931 18.2761L8.2265 18ZM19.7735 18L18.8307 18.2761L19.1068 17.3333L18.8307 16.3905L19.7735 16.6667L20.7163 16.3905L20.4401 17.3333L20.7163 18.2761L19.7735 18ZM10.6666 20.4402L9.72382 20.7163L10 19.7735L9.72382 18.8307L10.6666 19.1068L11.6094 18.8307L11.3333 19.7735L11.6094 20.7163L10.6666 20.4402ZM17.3333 20.4402L16.3905 20.7163L16.6666 19.7735L16.3905 18.8307L17.3333 19.1068L18.2761 18.8307L18 19.7735L18.2761 20.7163L17.3333 20.4402ZM14 21.3333L13.0572 21.6095L13.3333 20.6667L13.0572 19.7238L14 20L14.9428 19.7238L14.6666 20.6667L14.9428 21.6095L14 21.3333Z" clip-rule="evenodd" fill="" fill-opacity="1.000000" fill-rule="evenodd"/>
		</mask>
		<path id="Star 2" d="M14 7.99997L13.0572 8.27612L13.3333 7.33331L13.0572 6.3905L14 6.66666L14.9428 6.3905L14.6666 7.33331L14.9428 8.27612L14 7.99997ZM10.6666 8.89313L9.72382 9.16928L10 8.22647L9.72382 7.28366L10.6666 7.55981L11.6094 7.28366L11.3333 8.22647L11.6094 9.16928L10.6666 8.89313ZM17.3333 8.89313L16.3905 9.16928L16.6666 8.22647L16.3905 7.28366L17.3333 7.55981L18.2761 7.28366L18 8.22647L18.2761 9.16928L17.3333 8.89313ZM8.2265 11.3333L7.28369 11.6095L7.55981 10.6667L7.28369 9.72385L8.2265 9.99997L9.16931 9.72385L8.89313 10.6667L9.16931 11.6095L8.2265 11.3333ZM19.7735 11.3333L18.8307 11.6095L19.1068 10.6667L18.8307 9.72385L19.7735 9.99997L20.7163 9.72385L20.4401 10.6667L20.7163 11.6095L19.7735 11.3333ZM7.33331 14.6667L6.3905 14.9428L6.66663 14L6.3905 13.0572L7.33331 13.3333L8.27612 13.0572L8 14L8.27612 14.9428L7.33331 14.6667ZM20.6666 14.6667L19.7238 14.9428L20 14L19.7238 13.0572L20.6666 13.3333L21.6094 13.0572L21.3333 14L21.6094 14.9428L20.6666 14.6667ZM8.2265 18L7.28369 18.2761L7.55981 17.3333L7.28369 16.3905L8.2265 16.6667L9.16931 16.3905L8.89313 17.3333L9.16931 18.2761L8.2265 18ZM19.7735 18L18.8307 18.2761L19.1068 17.3333L18.8307 16.3905L19.7735 16.6667L20.7163 16.3905L20.4401 17.3333L20.7163 18.2761L19.7735 18ZM10.6666 20.4402L9.72382 20.7163L10 19.7735L9.72382 18.8307L10.6666 19.1068L11.6094 18.8307L11.3333 19.7735L11.6094 20.7163L10.6666 20.4402ZM17.3333 20.4402L16.3905 20.7163L16.6666 19.7735L16.3905 18.8307L17.3333 19.1068L18.2761 18.8307L18 19.7735L18.2761 20.7163L17.3333 20.4402ZM14 21.3333L13.0572 21.6095L13.3333 20.6667L13.0572 19.7238L14 20L14.9428 19.7238L14.6666 20.6667L14.9428 21.6095L14 21.3333Z" clip-rule="evenodd" fill="#FFD429" fill-opacity="1.000000" fill-rule="evenodd" mask="url(#mask_17_3832)"/>
		<path id="Star 2" d="" fill="#979797" fill-opacity="0.000000" fill-rule="nonzero"/>
	</g>
</svg>
