<svg width="28" height="28" viewBox="0 0 28 28" fill="none" xmlns="http://www.w3.org/2000/svg">
<rect y="4" width="28" height="20" rx="3" fill="white"/>
<mask id="mask0_17_5686" style="mask-type:luminance" maskUnits="userSpaceOnUse" x="0" y="4" width="28" height="20">
<rect y="4" width="28" height="20" rx="3" fill="white"/>
</mask>
<g mask="url(#mask0_17_5686)">
<rect y="4" width="28" height="20" fill="#07319C"/>
<path fill-rule="evenodd" clip-rule="evenodd" d="M17.3334 14C17.3334 12.9063 17.3334 11.6132 17.3334 10.6659C17.3334 9.92948 17.9303 9.33337 18.6667 9.33337H22.6667C23.4031 9.33337 24 9.92948 24 10.6659C24 11.6132 24 12.9063 24 14C24 17.3334 20.6667 18.6667 20.6667 18.6667C20.6667 18.6667 17.3334 17.3334 17.3334 14Z" fill="#0072C4"/>
<mask id="mask1_17_5686" style="mask-type:luminance" maskUnits="userSpaceOnUse" x="17" y="9" width="7" height="10">
<path fill-rule="evenodd" clip-rule="evenodd" d="M17.3334 14C17.3334 12.9063 17.3334 11.6132 17.3334 10.6659C17.3334 9.92948 17.9303 9.33337 18.6667 9.33337H22.6667C23.4031 9.33337 24 9.92948 24 10.6659C24 11.6132 24 12.9063 24 14C24 17.3334 20.6667 18.6667 20.6667 18.6667C20.6667 18.6667 17.3334 17.3334 17.3334 14Z" fill="white"/>
</mask>
<g mask="url(#mask1_17_5686)">
<path fill-rule="evenodd" clip-rule="evenodd" d="M18.8692 13.2677C18.186 13.9578 19.5249 13.8703 19.5249 13.8703L20.4785 13.565C20.4785 13.565 20.9073 13.6168 21.1967 13.7041C21.3884 13.7619 21.9218 14.0001 21.9218 14.0001C21.9218 14.0001 23.0485 13.7751 22.6524 13.2677C22.2562 12.7604 19.5524 12.5777 18.8692 13.2677Z" fill="#005121"/>
<path fill-rule="evenodd" clip-rule="evenodd" d="M21.7099 12.5509C21.7374 12.5447 21.8014 12.5461 21.8252 12.5751C21.8627 12.6206 21.9394 12.6055 21.9769 12.6493C22.0142 12.6932 22.0577 12.7337 22.0577 12.7962C22.0577 12.8587 22.0504 13.0136 22.0517 13.0476C22.0537 13.1001 22.0627 13.1082 22.1166 13.1068C22.1817 13.1052 22.2714 13.1001 22.2742 12.9836C22.2762 12.9025 22.1954 12.8518 22.1719 12.5632C22.2073 12.5329 22.2388 12.5058 22.227 12.4654C22.2151 12.4249 22.2939 12.4046 22.2861 12.3438C22.2781 12.2831 22.3648 12.2459 22.3294 12.1784C22.2939 12.1109 22.3726 12.1076 22.3412 12.0535C22.3097 11.9995 22.3923 11.9522 22.3569 11.905C22.3215 11.8577 22.4042 11.8139 22.3609 11.7565C22.3175 11.6991 22.3845 11.6653 22.3412 11.6214C22.3688 11.5776 22.3451 11.4526 22.2584 11.3817C22.1719 11.3108 22.0498 11.2737 21.9788 11.2466C21.8468 11.1963 21.6008 11.2196 21.4274 11.2399C21.2541 11.2601 20.9311 11.2804 20.8326 11.2669C20.7342 11.2535 20.5019 11.2399 20.3187 11.2703C20.256 11.2807 20.1848 11.2619 20.1474 11.2264C20.1175 11.1981 20.1002 11.2012 20.0726 11.2028C20.0451 11.2045 20.0292 11.196 20.0154 11.1622C19.9911 11.1028 19.9368 11.1436 19.9111 11.0694C19.8939 11.0197 19.8046 11.0626 19.7772 11.0205C19.7495 10.9783 19.7162 10.9732 19.6412 10.9783C19.6374 10.9529 19.596 10.9344 19.5585 10.9411C19.5645 10.8989 19.5231 10.8652 19.4542 10.8668C19.4621 10.8145 19.3657 10.774 19.3163 10.8061C19.2849 10.7673 19.2218 10.7756 19.2061 10.8061C19.1726 10.7673 19.0662 10.7791 19.0406 10.8212C18.9954 10.796 18.9074 10.8581 18.9147 10.9563C18.9166 10.9834 18.9184 11.0115 18.8732 11.0205C18.7886 11.0374 18.7394 11.1318 18.6664 11.1453C18.5937 11.1589 18.5208 11.1825 18.507 11.223C18.4932 11.2635 18.5188 11.3058 18.4913 11.326C18.4637 11.3463 18.5089 11.3649 18.5227 11.3749C18.5365 11.385 18.5581 11.4019 18.5621 11.4256C18.5677 11.4591 18.623 11.4691 18.6803 11.4323C18.7039 11.4172 18.7452 11.4628 18.8122 11.4306C18.8791 11.3986 18.9742 11.4155 18.9579 11.4678C18.9501 11.4931 18.9677 11.5202 18.9895 11.5454C19.0111 11.5707 19.0436 11.647 19.0249 11.6906C18.9974 11.7547 19.0525 11.7903 19.0387 11.8475C19.0249 11.905 19.0465 11.9574 19.0171 12.0349C18.9874 12.1125 18.987 12.2097 19.0308 12.2375C19.0919 12.2763 19.055 12.3533 19.1076 12.3861C19.1508 12.413 19.1254 12.4789 19.2061 12.4991C19.2868 12.5194 19.2396 12.5734 19.3242 12.5852C19.4089 12.597 19.4384 12.6578 19.527 12.6442C19.5923 12.6343 19.6267 12.6502 19.6648 12.6652C19.6726 12.7193 19.6551 12.9177 19.6511 12.9684C19.6476 13.0132 19.6236 13.0847 19.6236 13.1288C19.6236 13.1557 19.6787 13.1624 19.7418 13.1624C19.8046 13.1624 19.8323 13.1372 19.8165 13.0663C19.8008 12.9953 19.7969 12.8225 19.8009 12.7144C19.8556 12.7407 19.9076 12.7776 19.9052 12.8182C19.9012 12.884 19.9022 13.0021 19.8913 13.0629C19.8836 13.1068 19.8953 13.176 19.8993 13.2216C19.9033 13.2384 20.0095 13.2367 20.0529 13.2216C20.0962 13.2064 20.0962 13.1659 20.0922 12.9819C20.0902 12.8908 19.9937 12.7977 20.1159 12.7523C20.175 12.7303 20.2577 12.6796 20.2892 12.6325C20.3206 12.5852 20.3897 12.6037 20.4388 12.6275C20.488 12.6511 20.5668 12.6871 20.6162 12.6713C20.6791 12.6511 20.7461 12.7016 20.8012 12.6713C20.8563 12.6409 20.9273 12.6932 20.9725 12.6562C21.0178 12.6189 21.0966 12.6544 21.1301 12.6189C21.1636 12.5835 21.3014 12.6393 21.3507 12.592C21.3999 12.5447 21.4668 12.6055 21.5122 12.5701C21.524 12.5607 21.5381 12.5586 21.5535 12.5598C21.5517 12.6396 21.5368 12.7668 21.5338 12.8064C21.5302 12.8513 21.5062 12.9227 21.5062 12.9666C21.5062 12.9937 21.5614 13.0004 21.6243 13.0004C21.6874 13.0004 21.715 12.9751 21.6993 12.9043C21.6834 12.8334 21.7061 12.6591 21.7099 12.5509Z" fill="#A3A3A3"/>
<path fill-rule="evenodd" clip-rule="evenodd" d="M18.5233 11.3201C18.5497 11.3009 18.5252 11.261 18.5384 11.2227C18.5516 11.1844 18.6214 11.1621 18.6912 11.1494C18.7609 11.1366 18.808 11.0473 18.8892 11.0313C18.9325 11.0228 18.9307 10.9962 18.9288 10.9707C18.922 10.8779 19.0061 10.8192 19.0495 10.8432C19.074 10.8032 19.1759 10.7921 19.2079 10.8288C19.223 10.8001 19.2833 10.7921 19.3135 10.8288C19.3606 10.7985 19.4531 10.8368 19.4455 10.8861C19.5116 10.8846 19.5512 10.9165 19.5455 10.9564C19.5814 10.95 19.6209 10.9675 19.6248 10.9914C19.6187 11.0307 19.7083 11.0407 19.6669 11.0661C19.6306 11.0883 19.596 11.0795 19.5547 11.0492C19.5134 11.0187 19.3755 11.0458 19.3557 11.061C19.336 11.0762 19.3144 11.083 19.2986 11.0712C19.2829 11.0594 19.2455 11.0407 19.2277 11.0425C19.21 11.0441 19.1726 11.0441 19.1509 11.0087C19.1292 10.9733 19.0741 10.9682 19.0643 10.9816C19.0546 10.9951 19.086 11.0441 19.1175 11.0627C19.1489 11.0813 19.1332 11.1168 19.1707 11.1369C19.1952 11.1503 19.1726 11.196 19.1589 11.223C19.1451 11.2501 19.0919 11.2416 19.0879 11.2214C19.084 11.2012 19.0701 11.1876 19.0387 11.218C19.0072 11.2484 18.9403 11.2399 18.9245 11.2315C18.9088 11.223 18.8654 11.2079 18.8359 11.2163C18.8063 11.2248 18.8497 11.2383 18.8537 11.2501C18.8575 11.2619 18.8063 11.267 18.7768 11.267C18.7473 11.267 18.7374 11.2837 18.7552 11.2872C18.7729 11.2906 18.8417 11.294 18.8694 11.2804C18.8969 11.267 18.9815 11.2804 18.9895 11.3058C18.9974 11.3311 18.9403 11.3413 18.9067 11.3378C18.8572 11.3329 18.7846 11.3598 18.7492 11.3682C18.7138 11.3767 18.6193 11.3547 18.5818 11.3649C18.5445 11.3749 18.5076 11.3352 18.5233 11.3201Z" fill="#A3A3A3"/>
<path fill-rule="evenodd" clip-rule="evenodd" d="M19.1567 11.5269C19.1213 11.5403 19.1332 11.5808 19.1647 11.5977C19.1963 11.6146 19.2671 11.6213 19.3124 11.613C19.3576 11.6045 19.3676 11.618 19.3381 11.6349C19.3084 11.6517 19.3833 11.6551 19.3773 11.6822C19.3716 11.7091 19.4049 11.704 19.4364 11.7024C19.468 11.7007 19.5093 11.6804 19.5447 11.6619C19.5801 11.6433 19.6058 11.6568 19.5723 11.6889C19.539 11.7209 19.4267 11.7615 19.3381 11.7565C19.2493 11.7514 19.2021 11.7716 19.2218 11.8003C19.2415 11.829 19.336 11.834 19.3852 11.8188C19.4345 11.8037 19.4267 11.8307 19.3892 11.8492C19.3517 11.8678 19.2985 11.8695 19.2533 11.8678C19.208 11.8662 19.1686 11.905 19.2277 11.9269C19.2868 11.9488 19.3656 11.9354 19.3951 11.9539C19.4247 11.9725 19.5153 11.9438 19.5172 11.9759C19.5191 12.0079 19.4916 12.0197 19.4384 12.0164C19.3852 12.013 19.4009 12.037 19.4404 12.05C19.4758 12.062 19.539 12.062 19.5723 12.0585C19.6058 12.0552 19.596 12.0889 19.5625 12.1007C19.529 12.1125 19.4207 12.1294 19.3676 12.1278C19.3144 12.1261 19.3398 12.1599 19.4089 12.1599C19.6196 12.1599 19.6905 12.0602 19.7437 11.991C19.7698 11.9571 19.8204 11.9387 19.8323 11.959C19.8441 11.9792 19.8461 11.9843 19.8225 12.0012C19.7988 12.018 19.8046 12.0282 19.848 12.0299C19.8913 12.0315 19.9544 12.0197 19.9918 12.0097C20.0292 11.9995 20.1394 12.0634 20.0489 12.0653C19.8893 12.0687 19.6924 12.1261 19.6276 12.1497C19.5625 12.1733 19.4541 12.2178 19.3873 12.2155C19.3381 12.2139 19.3182 12.2324 19.3381 12.2544C19.3576 12.2763 19.4207 12.2763 19.4561 12.2662C19.4916 12.256 19.4994 12.2662 19.4758 12.2864C19.4523 12.3067 19.3932 12.3151 19.3517 12.3219C19.3105 12.3286 19.2901 12.3551 19.3222 12.3657C19.3833 12.386 19.3281 12.4046 19.3716 12.4147C19.4148 12.4249 19.3676 12.4569 19.4148 12.4671C19.4621 12.4772 19.4896 12.4721 19.525 12.4485C19.5606 12.4249 19.5801 12.4113 19.6176 12.4147C19.6551 12.4182 19.6807 12.4012 19.7024 12.3759C19.724 12.3506 19.7969 12.305 19.8204 12.327C19.8441 12.349 19.8933 12.3083 19.9033 12.3303C19.913 12.3523 19.9544 12.3388 19.9643 12.3692C19.9751 12.4029 20.0213 12.4097 20.0529 12.3979C20.0843 12.386 20.1099 12.3573 20.1099 12.3151C20.1099 12.2729 20.1218 12.256 20.1336 12.3016C20.1453 12.3472 20.1887 12.3606 20.2104 12.3388C20.232 12.3168 20.2398 12.2409 20.2241 12.2055C20.2084 12.1699 20.2064 12.1243 20.2222 12.1159C20.2379 12.1076 20.2754 12.1852 20.2911 12.2189C20.307 12.2527 20.3481 12.2425 20.3502 12.2088C20.3521 12.175 20.3896 12.1581 20.4172 12.1835C20.4447 12.2088 20.429 12.2932 20.4369 12.3337C20.4447 12.3742 20.5215 12.3236 20.5295 12.337C20.5373 12.3506 20.5668 12.3539 20.5787 12.3252C20.5905 12.2965 20.6181 12.2712 20.6338 12.2881C20.6496 12.305 20.6732 12.3337 20.683 12.3657C20.6929 12.3979 20.7283 12.4147 20.7499 12.381C20.7716 12.3472 20.7874 12.2814 20.7796 12.2357C20.7716 12.1902 20.7855 12.1615 20.805 12.1852C20.8247 12.2088 20.8228 12.2729 20.8247 12.3252C20.8268 12.3775 20.8917 12.3726 20.8917 12.2949C20.8917 12.2594 20.9114 12.2527 20.9173 12.2729C20.9233 12.2932 20.9233 12.327 20.9292 12.3421C20.9437 12.3796 20.9942 12.359 21 12.3337C21.0059 12.3083 20.9961 12.2172 20.9843 12.1768C20.9724 12.1361 20.9961 12.1076 21.0158 12.1294C21.0356 12.1514 21.0394 12.2088 21.0434 12.2729C21.0473 12.337 21.0886 12.3405 21.1104 12.3219C21.132 12.3032 21.132 12.2493 21.1222 12.2104C21.1123 12.1717 21.1438 12.1717 21.1576 12.1953C21.1714 12.2189 21.1951 12.2037 21.1911 12.1852C21.1873 12.1666 21.2068 12.1497 21.2265 12.175C21.2462 12.2004 21.2403 12.2578 21.2305 12.3032C21.2206 12.349 21.2797 12.3438 21.3073 12.305C21.3348 12.2662 21.321 12.1599 21.2975 12.1261C21.2738 12.0923 21.2758 12.0484 21.2895 12.0097C21.3034 11.9708 21.329 11.969 21.331 11.986C21.3329 12.0028 21.3447 12.0315 21.3664 12.0535C21.388 12.0754 21.3998 12.0789 21.4037 12.045C21.4077 12.0113 21.4274 12.0197 21.4353 12.045C21.4433 12.0704 21.4569 12.0905 21.4766 12.0687C21.4963 12.0467 21.5219 12.0636 21.5062 12.0974C21.4904 12.1312 21.4904 12.1615 21.5022 12.1953C21.5141 12.2291 21.5554 12.224 21.5594 12.1852C21.5676 12.1044 21.5791 12.1581 21.5889 12.1935C21.5987 12.2291 21.6283 12.2273 21.6342 12.2071C21.6401 12.1868 21.6461 12.1819 21.6461 12.2037C21.6461 12.2257 21.6558 12.2442 21.6815 12.2442C21.7071 12.2442 21.7012 12.2004 21.7129 12.1733C21.7247 12.1463 21.7464 12.1835 21.776 12.2459C21.8055 12.3083 21.8271 12.2493 21.8961 12.3911C21.9243 12.4489 21.965 12.3995 21.9631 12.3793C21.961 12.359 21.967 12.3455 22.0004 12.3455C22.0339 12.3455 22.0615 12.3388 22.0498 12.3168C22.0379 12.2949 22.0458 12.2544 22.0438 12.2088C22.0419 12.1632 22.0477 12.1379 22.0536 12.1632C22.0596 12.1885 22.0793 12.224 22.1107 12.2425C22.1422 12.2611 22.1638 12.2104 22.1382 12.1784C22.1127 12.1463 22.0773 12.0704 22.0793 12.0062C22.0807 11.959 22.1028 11.9741 22.1028 12.0079C22.1028 12.0417 22.1225 12.1025 22.1521 12.1159C22.1816 12.1294 22.1935 12.0669 22.1797 12.0349C22.1659 12.0028 22.1581 11.959 22.1876 11.9505C22.217 11.9421 22.1797 11.9067 22.1541 11.8813C22.1284 11.856 22.1127 11.8307 22.1581 11.8324C22.2033 11.834 22.1659 11.8053 22.1441 11.7868C22.1225 11.7683 22.0852 11.7311 22.1441 11.7361C22.2033 11.7412 22.1837 11.7109 22.16 11.694C22.1363 11.6771 22.1225 11.645 22.1638 11.6467C22.2053 11.6484 22.2308 11.6281 22.227 11.613C22.2118 11.5544 22.1127 11.4864 22.0517 11.434C21.9907 11.3817 21.8921 11.3294 21.839 11.3209C21.7858 11.3124 21.7838 11.3463 21.7976 11.3665C21.8114 11.3867 21.839 11.4003 21.843 11.3799C21.8468 11.3598 21.8881 11.3817 21.9078 11.4086C21.9276 11.4357 21.9945 11.4695 22.036 11.4998C22.0773 11.5302 21.9807 11.5151 21.9335 11.4745C21.9065 11.4513 21.9098 11.4795 21.9453 11.5116C21.9807 11.5438 21.9354 11.5572 21.8981 11.5302C21.8606 11.5032 21.7641 11.4273 21.7031 11.3783C21.6421 11.3294 21.6321 11.3412 21.6302 11.3732C21.6283 11.4053 21.6499 11.4273 21.6893 11.4542C21.7287 11.4813 21.7779 11.5234 21.8154 11.5521C21.8527 11.5808 21.8213 11.5994 21.7976 11.5791C21.7739 11.5589 21.6933 11.5032 21.6461 11.4644C21.5987 11.4255 21.5554 11.407 21.5259 11.4121C21.4963 11.4172 21.4984 11.4459 21.5338 11.4762C21.5692 11.5065 21.6126 11.5639 21.6126 11.5977C21.6126 11.6315 21.581 11.6551 21.5652 11.5944C21.5495 11.5336 21.4747 11.4627 21.4196 11.4086C21.3644 11.3547 21.3092 11.3445 21.2678 11.3479C21.2265 11.3512 21.2284 11.3918 21.2284 11.4239C21.2284 11.4559 21.2009 11.4373 21.199 11.4137C21.197 11.3901 21.1655 11.3699 21.1477 11.3716C21.1301 11.3732 21.136 11.4222 21.1301 11.4442C21.1241 11.466 21.0966 11.4864 21.0966 11.4357C21.0966 11.385 21.0316 11.3598 21.004 11.358C20.9764 11.3563 20.9508 11.3665 20.9646 11.3885C20.9784 11.4103 20.9724 11.4695 20.9627 11.5032C20.9527 11.5369 20.9233 11.4779 20.9173 11.4154C20.9114 11.353 20.819 11.3091 20.7539 11.3276C20.6889 11.3463 20.7382 11.3867 20.7264 11.4255C20.7145 11.4644 20.6967 11.429 20.6908 11.3885C20.685 11.3479 20.6535 11.3225 20.6102 11.3327C20.5668 11.3429 20.5373 11.3631 20.5393 11.3901C20.5412 11.4172 20.5412 11.4408 20.5314 11.4846C20.5215 11.5285 20.5038 11.5065 20.5058 11.4779C20.5078 11.4492 20.4979 11.4019 20.488 11.3749C20.4782 11.3479 20.4624 11.3732 20.4664 11.407C20.4704 11.4408 20.4604 11.5184 20.4447 11.5657C20.429 11.613 20.4053 11.6146 20.4172 11.5505C20.429 11.4864 20.3994 11.3918 20.3699 11.3479C20.3487 11.3166 20.301 11.3058 20.301 11.3496C20.301 11.3935 20.3148 11.4255 20.3502 11.4577C20.3856 11.4897 20.3581 11.569 20.3227 11.6113C20.2871 11.6535 20.2892 11.5926 20.301 11.5471C20.3127 11.5015 20.2478 11.4864 20.2222 11.4779C20.1966 11.4695 20.2498 11.4239 20.2616 11.3631C20.2674 11.3331 20.2596 11.3142 20.236 11.3124C20.2123 11.3107 20.1493 11.3681 20.1218 11.4103C20.1296 11.3665 20.1218 11.3276 20.0981 11.3276C20.0745 11.3276 20.0489 11.3699 20.0313 11.4003C20.0135 11.4306 19.9957 11.4137 20.0135 11.3817C20.0313 11.3496 20.0587 11.2635 20.0233 11.245C19.9878 11.2264 19.9563 11.3024 19.919 11.2888C19.8978 11.2812 19.9268 11.2332 19.9387 11.2112C19.9504 11.1892 19.9268 11.1723 19.8736 11.2128C19.8204 11.2535 19.7969 11.3192 19.783 11.3598C19.7693 11.4003 19.6748 11.466 19.6236 11.5015C19.5723 11.5369 19.5507 11.5234 19.5763 11.5082C19.6019 11.4931 19.653 11.4459 19.6787 11.4273C19.7043 11.4086 19.6924 11.3977 19.6433 11.4297C19.5941 11.4619 19.5044 11.5201 19.4127 11.5403C19.359 11.5523 19.3517 11.5421 19.4049 11.5269C19.4581 11.5116 19.5801 11.439 19.6098 11.4053C19.6283 11.3841 19.5801 11.4019 19.5566 11.407C19.533 11.4121 19.5133 11.4053 19.5606 11.3885C19.6077 11.3716 19.7575 11.2382 19.789 11.1892C19.8204 11.1403 19.7929 11.1217 19.7732 11.1234C19.7535 11.1251 19.7259 11.1369 19.7318 11.1167C19.7378 11.0964 19.724 11.0693 19.6984 11.0779C19.6727 11.0862 19.6748 11.1352 19.6649 11.1622C19.6551 11.1892 19.5998 11.2248 19.5644 11.2248C19.529 11.2248 19.4798 11.2315 19.4424 11.2568C19.4049 11.282 19.3873 11.2584 19.4049 11.2382C19.4227 11.2179 19.4621 11.2128 19.5015 11.2112C19.5409 11.2095 19.5841 11.2045 19.6176 11.1723C19.6511 11.1403 19.653 11.1149 19.6276 11.1133C19.6019 11.1116 19.5585 11.0829 19.5447 11.0711C19.4748 11.0111 19.3467 11.0947 19.2966 11.1436C19.269 11.1707 19.1745 11.2484 19.145 11.2686C19.1154 11.2888 19.1273 11.3175 19.1764 11.2787C19.2258 11.2399 19.2415 11.2669 19.1963 11.2956C19.1508 11.3243 19.1175 11.3665 19.1332 11.3817C19.1489 11.3968 19.2099 11.3783 19.2434 11.3598C19.2769 11.3412 19.2927 11.3867 19.2099 11.4019C19.1544 11.4122 19.135 11.4318 19.1785 11.434C19.212 11.4357 19.2631 11.4222 19.3105 11.3986C19.3576 11.3749 19.3951 11.3885 19.3557 11.4121C19.3163 11.4357 19.2296 11.4678 19.1864 11.4678C19.1501 11.4678 19.1923 11.5134 19.1567 11.5269Z" fill="white"/>
<path fill-rule="evenodd" clip-rule="evenodd" d="M19.3852 11.1496C19.4326 11.1003 19.4739 11.0787 19.5172 11.1142C19.5565 11.1463 19.5606 11.1603 19.5113 11.1496C19.4621 11.139 19.4286 11.1496 19.3991 11.1815C19.3695 11.2135 19.336 11.201 19.3852 11.1496Z" fill="#A3A3A3"/>
<path fill-rule="evenodd" clip-rule="evenodd" d="M18.6055 11.2749C18.6409 11.2394 18.6979 11.2394 18.7236 11.2005C18.7492 11.1614 18.7768 11.1757 18.7452 11.2129C18.7138 11.2501 18.6528 11.2573 18.6271 11.2838C18.6015 11.3104 18.5877 11.2926 18.6055 11.2749Z" fill="#A3A3A3"/>
<path fill-rule="evenodd" clip-rule="evenodd" d="M18.8261 11.1394C18.8474 11.1364 18.8891 11.111 18.9147 11.0808C18.9403 11.0507 18.9954 11.04 19.0288 11.0755C19.0623 11.111 19.08 11.1234 19.0978 11.1306C19.1154 11.1376 19.1154 11.1607 19.0879 11.1676C19.0603 11.1748 19.023 11.1802 19.0033 11.1712C18.9836 11.1624 18.954 11.1554 18.9304 11.1607C18.9067 11.1659 18.8969 11.1554 18.9166 11.1464C18.9363 11.1376 18.9599 11.111 18.9717 11.1003C18.9836 11.0898 19.015 11.0986 18.9974 11.1092C18.9796 11.1199 18.9874 11.1428 19.0052 11.1518C19.023 11.1607 19.0584 11.1607 19.0741 11.1447C19.0506 11.1216 19.0111 11.0915 18.9954 11.0827C18.9796 11.0738 18.9658 11.0702 18.9461 11.0915C18.9264 11.1128 18.8791 11.1642 18.834 11.1624C18.7886 11.1607 18.8005 11.1428 18.8261 11.1394Z" fill="#A3A3A3"/>
<path fill-rule="evenodd" clip-rule="evenodd" d="M20.0706 11.4574C20.0531 11.4818 20.0371 11.5133 20.0352 11.5381C20.0332 11.5629 20.0559 11.5798 20.0587 11.5487C20.0617 11.5177 20.0646 11.4991 20.0892 11.4761C20.114 11.453 20.0903 11.4299 20.0706 11.4574Z" fill="#A3A3A3"/>
<path fill-rule="evenodd" clip-rule="evenodd" d="M19.8294 11.4568C19.8498 11.4485 19.8845 11.4293 19.9012 11.4116C19.918 11.394 19.9288 11.4055 19.912 11.4249C19.8953 11.4444 19.8569 11.4675 19.8391 11.4728C19.8215 11.4781 19.8077 11.4657 19.8294 11.4568Z" fill="#A3A3A3"/>
<path fill-rule="evenodd" clip-rule="evenodd" d="M19.8599 11.5554C19.8316 11.5895 19.72 11.6704 19.6865 11.6855C19.653 11.7007 19.6649 11.7227 19.7024 11.7109C19.6748 11.7327 19.6136 11.7683 19.5744 11.7783C19.535 11.7885 19.527 11.8188 19.5861 11.8003C19.6452 11.7817 19.7279 11.7327 19.7495 11.7109C19.7713 11.6889 19.7437 11.6787 19.7772 11.6551C19.8107 11.6315 19.8726 11.5883 19.8815 11.5707C19.8953 11.5438 19.8796 11.5318 19.8599 11.5554Z" fill="#A3A3A3"/>
<path fill-rule="evenodd" clip-rule="evenodd" d="M19.7378 11.8308C19.78 11.8102 19.8588 11.7374 19.8815 11.6956C19.8953 11.6704 19.9228 11.6737 19.9012 11.7125C19.8796 11.7514 19.7988 11.8206 19.7713 11.8391C19.7437 11.8577 19.6925 11.8526 19.7378 11.8308Z" fill="#A3A3A3"/>
<path fill-rule="evenodd" clip-rule="evenodd" d="M20.6338 11.4306C20.6223 11.4544 20.62 11.51 20.624 11.5369C20.6279 11.564 20.6516 11.5843 20.6476 11.5438C20.6437 11.5033 20.6437 11.4628 20.6574 11.4509C20.6713 11.439 20.6535 11.3901 20.6338 11.4306Z" fill="#A3A3A3"/>
<path fill-rule="evenodd" clip-rule="evenodd" d="M20.8741 11.5302C20.8941 11.5486 20.9036 11.6349 20.9017 11.6669C20.8997 11.6991 20.9332 11.6991 20.9312 11.6535C20.9292 11.6079 20.9252 11.5505 20.9076 11.5202C20.8898 11.4897 20.8466 11.5049 20.8741 11.5302Z" fill="#A3A3A3"/>
<path fill-rule="evenodd" clip-rule="evenodd" d="M21.0847 11.5859C21.0969 11.608 21.1123 11.6501 21.1123 11.6804C21.1123 11.7109 21.1379 11.6973 21.1399 11.6619C21.1418 11.6265 21.136 11.5961 21.1222 11.5725C21.1084 11.5489 21.067 11.5538 21.0847 11.5859Z" fill="#A3A3A3"/>
<path fill-rule="evenodd" clip-rule="evenodd" d="M21.2148 11.5595C21.204 11.5323 21.1873 11.508 21.1753 11.5116C21.1636 11.5152 21.1714 11.54 21.1873 11.5666C21.2028 11.5932 21.2266 11.5896 21.2148 11.5595Z" fill="#A3A3A3"/>
<path fill-rule="evenodd" clip-rule="evenodd" d="M20.3916 11.748C20.3857 11.8187 20.3482 11.8813 20.303 11.9033C20.2577 11.9253 20.2655 11.9607 20.3206 11.9253C20.3759 11.8898 20.4172 11.829 20.4291 11.775C20.4408 11.7209 20.3956 11.7007 20.3916 11.748Z" fill="#A3A3A3"/>
<path fill-rule="evenodd" clip-rule="evenodd" d="M20.2931 11.716C20.2695 11.7396 20.2557 11.7903 20.2557 11.829C20.2557 11.8678 20.2714 11.8391 20.2754 11.8172C20.2794 11.7952 20.2871 11.7649 20.307 11.7547C20.3266 11.7445 20.3168 11.6924 20.2931 11.716Z" fill="#A3A3A3"/>
<path fill-rule="evenodd" clip-rule="evenodd" d="M21.9985 11.7648C22.0193 11.799 22.0498 11.8544 22.0596 11.8864C22.0695 11.9185 22.0458 11.9269 22.038 11.8982C22.03 11.8695 21.9926 11.8053 21.9788 11.7834C21.9651 11.7615 21.9748 11.726 21.9985 11.7648Z" fill="#A3A3A3"/>
<path d="M16.0001 13.3334C16.0001 13.3334 18.268 14.0072 18.6508 14.0072C18.7584 14.0072 20.2274 13.6703 20.6678 13.6703C20.8325 13.6703 22.3531 13.9011 22.7501 14.0072C23.1471 14.1133 25.3355 13.3334 25.3355 13.3334" stroke="white" stroke-width="0.666667" stroke-linecap="round" stroke-linejoin="round"/>
<path d="M16.0001 14.6667C16.0001 14.6667 18.268 15.3405 18.6508 15.3405C18.7584 15.3405 20.2274 15.0036 20.6678 15.0036C20.8325 15.0036 22.3531 15.2344 22.7501 15.3405C23.1471 15.4466 25.3355 14.6667 25.3355 14.6667" stroke="white" stroke-width="0.666667" stroke-linecap="round" stroke-linejoin="round"/>
<path d="M16.0001 17.3334C16.0001 17.3334 18.268 18.0072 18.6508 18.0072C18.7584 18.0072 19.6341 17.462 20.6678 17.462C21.7015 17.462 22.3531 17.9011 22.7501 18.0072C23.1471 18.1133 25.3355 17.3334 25.3355 17.3334L32.5128 18.4813" stroke="white" stroke-width="1.33333" stroke-linecap="round" stroke-linejoin="round"/>
</g>
<path d="M17.6667 14V13.9486V13.8969V13.845V13.7928V13.7403V13.6876V13.6347V13.5816V13.5283V13.4748V13.4212V13.3674V13.3134V13.2864V13.2797V13.2729V13.2594V13.2052V13.1509V13.0965V13.042V12.9875V12.9329V12.8783V12.8236V12.7689V12.7416V12.7347V12.7279V12.7211V12.7142V12.7074V12.7006V12.6937V12.6869V12.68V12.6732V12.6664V12.6595V12.6527V12.6459V12.639V12.6322V12.6254V12.6185V12.6117V12.6049V12.5981V12.5912V12.5844V12.5776V12.5707V12.5639V12.5571V12.5503V12.5434V12.5366V12.5298V12.523V12.5161V12.5093V12.5025V12.4957V12.4889V12.482V12.4752V12.4684V12.4616V12.4548V12.448V12.4412V12.4343V12.4275V12.4207V12.4139V12.4071V12.4003V12.3935V12.3867V12.3799V12.3731V12.3663V12.3595V12.3527V12.3459V12.3391V12.3323V12.3255V12.3187V12.312V12.3052V12.2984V12.2916V12.2848V12.278V12.2713V12.2645V12.2577V12.2509V12.2442V12.2374V12.2306V12.2239V12.2171V12.2104V12.2036V12.1968V12.1901V12.1833V12.1766V12.1698V12.1631V12.1563V12.1496V12.1428V12.1361V12.1294V12.1226V12.1159V12.1092V12.1024V12.0957V12.089V12.0823V12.0756V12.0688V12.0621V12.0554V12.0487V12.042V12.0353V12.0286V12.0219V12.0152V12.0085V12.0018V11.9951V11.9885V11.9818V11.9751V11.9684V11.9617V11.9551V11.9484V11.9417V11.9351V11.9284V11.9218V11.9151V11.9085V11.9018V11.8952V11.8885V11.8752V11.8487V11.7959V11.7432V11.6908V11.6386V11.5867V11.5351V11.4837V11.4327V11.3819V11.3315V11.2814V11.2316V11.1822V11.1332V11.0845V11.0363V10.941V10.8474V10.7557V10.6659C17.6667 10.1139 18.1141 9.66671 18.6667 9.66671H22.6667C23.2193 9.66671 23.6667 10.1139 23.6667 10.6659V10.6714V10.677V10.6825V10.6881V10.6937V10.6993V10.7049V10.7105V10.7161V10.7218V10.7274V10.733V10.7387V10.7443V10.75V10.7557V10.7613V10.767V10.7727V10.7784V10.7841V10.7898V10.7956V10.8013V10.807V10.8128V10.8185V10.8243V10.8301V10.8358V10.8416V10.8474V10.8532V10.859V10.8648V10.8706V10.8764V10.8823V10.8881V10.894V10.8998V10.9057V10.9115V10.9174V10.9233V10.9292V10.9351V10.941V10.9469V10.9528V10.9587V10.9646V10.9706V10.9765V10.9824V10.9884V10.9944V11.0003V11.0063V11.0123V11.0183V11.0242V11.0302V11.0363V11.0423V11.0483V11.0543V11.0603V11.0664V11.0724V11.0785V11.0845V11.0906V11.0966V11.1027V11.1088V11.1149V11.121V11.1271V11.1332V11.1393V11.1454V11.1515V11.1576V11.1638V11.1699V11.1761V11.1822V11.1884V11.1945V11.2007V11.2069V11.213V11.2192V11.2254V11.2316V11.2378V11.244V11.2502V11.2564V11.2627V11.2689V11.2751V11.2814V11.2876V11.2939V11.3001V11.3064V11.3126V11.3189V11.3252V11.3315V11.3378V11.3441V11.3504V11.3567V11.363V11.3693V11.3756V11.3819V11.3882V11.3946V11.4009V11.4073V11.4136V11.42V11.4263V11.4327V11.439V11.4454V11.4518V11.4582V11.4646V11.4709V11.4773V11.4837V11.4901V11.4965V11.503V11.5094V11.5158V11.5222V11.5287V11.5351V11.5415V11.548V11.5544V11.5609V11.5673V11.5738V11.5803V11.5867V11.5932V11.5997V11.6062V11.6127V11.6191V11.6256V11.6321V11.6386V11.6452V11.6517V11.6582V11.6647V11.6712V11.6777V11.6843V11.6908V11.6974V11.7039V11.7104V11.717V11.7235V11.7301V11.7367V11.7432V11.7498V11.7564V11.7629V11.7695V11.7761V11.7827V11.7893V11.7959V11.8025V11.8091V11.8157V11.8223V11.8289V11.8355V11.8421V11.8487V11.8554V11.862V11.8686V11.8752V11.8819V11.8885V11.8952V11.9018V11.9085V11.9151V11.9218V11.9284V11.9351V11.9417V11.9484V11.9551V11.9617V11.9684V11.9751V11.9818V11.9885V11.9951V12.0018V12.0085V12.0152V12.0219V12.0286V12.0353V12.042V12.0487V12.0554V12.0621V12.0688V12.0756V12.0823V12.089V12.0957V12.1024V12.1092V12.1159V12.1226V12.1294V12.1361V12.1428V12.1496V12.1563V12.1631V12.1698V12.1766V12.1833V12.1901V12.1968V12.2036V12.2104V12.2171V12.2239V12.2306V12.2374V12.2442V12.2509V12.2577V12.2645V12.2713V12.278V12.2848V12.2916V12.2984V12.3052V12.312V12.3187V12.3255V12.3323V12.3391V12.3459V12.3527V12.3595V12.3663V12.3731V12.3799V12.3867V12.3935V12.4003V12.4071V12.4139V12.4207V12.4275V12.4343V12.4412V12.448V12.4548V12.4616V12.4684V12.4752V12.482V12.4889V12.4957V12.5025V12.5093V12.5161V12.523V12.5298V12.5366V12.5434V12.5503V12.5571V12.5639V12.5707V12.5776V12.5844V12.5912V12.5981V12.6049V12.6117V12.6185V12.6254V12.6322V12.639V12.6459V12.6527V12.6595V12.6664V12.6732V12.68V12.6869V12.6937V12.7006V12.7074V12.7142V12.7211V12.7279V12.7347V12.7416V12.7484V12.7552V12.7621V12.7689V12.7757V12.7826V12.7894V12.7963V12.8031V12.8099V12.8168V12.8236V12.8304V12.8373V12.8441V12.8509V12.8578V12.8646V12.8714V12.8783V12.8851V12.8919V12.8987V12.9056V12.9124V12.9192V12.9261V12.9329V12.9397V12.9465V12.9534V12.9602V12.967V12.9738V12.9807V12.9875V12.9943V13.0011V13.0079V13.0148V13.0216V13.0284V13.0352V13.042V13.0488V13.0556V13.0624V13.0693V13.0761V13.0829V13.0897V13.0965V13.1033V13.1101V13.1169V13.1237V13.1305V13.1373V13.1441V13.1509V13.1577V13.1645V13.1712V13.178V13.1848V13.1916V13.1984V13.2052V13.2119V13.2187V13.2255V13.2323V13.2391V13.2458V13.2526V13.2594V13.2661V13.2729V13.2797V13.2864V13.2932V13.2999V13.3067V13.3134V13.3202V13.3269V13.3337V13.3404V13.3472V13.3539V13.3606V13.3674V13.3741V13.3808V13.3876V13.3943V13.401V13.4077V13.4145V13.4212V13.4279V13.4346V13.4413V13.448V13.4547V13.4614V13.4681V13.4748V13.4815V13.4882V13.4949V13.5016V13.5083V13.515V13.5216V13.5283V13.535V13.5416V13.5483V13.555V13.5616V13.5683V13.575V13.5816V13.5883V13.5949V13.6015V13.6082V13.6148V13.6215V13.6281V13.6347V13.6413V13.648V13.6546V13.6612V13.6678V13.6744V13.681V13.6876V13.6942V13.7008V13.7074V13.714V13.7206V13.7272V13.7337V13.7403V13.7469V13.7534V13.76V13.7666V13.7731V13.7797V13.7862V13.7928V13.7993V13.8058V13.8124V13.8189V13.8254V13.8319V13.8385V13.845V13.8515V13.858V13.8645V13.871V13.8775V13.884V13.8905V13.8969V13.9034V13.9099V13.9164V13.9228V13.9293V13.9357V13.9422V13.9486V13.9551V13.9615V13.9679V13.9744V13.9808V13.9872V13.9936V14C23.6667 15.5427 22.8989 16.626 22.1104 17.3356C21.7159 17.6907 21.3202 17.948 21.0232 18.1163C20.875 18.2003 20.7523 18.2616 20.6678 18.3014C20.6674 18.3016 20.6671 18.3017 20.6667 18.3019C20.6663 18.3017 20.666 18.3016 20.6656 18.3014C20.5811 18.2616 20.4584 18.2003 20.3102 18.1163C20.0132 17.948 19.6175 17.6907 19.223 17.3356C18.4345 16.626 17.6667 15.5427 17.6667 14Z" stroke="white" stroke-width="0.666667"/>
<mask id="mask2_17_5686" style="mask-type:luminance" maskUnits="userSpaceOnUse" x="17" y="9" width="7" height="10">
<path d="M17.6667 14V13.9486V13.8969V13.845V13.7928V13.7403V13.6876V13.6347V13.5816V13.5283V13.4748V13.4212V13.3674V13.3134V13.2864V13.2797V13.2729V13.2594V13.2052V13.1509V13.0965V13.042V12.9875V12.9329V12.8783V12.8236V12.7689V12.7416V12.7347V12.7279V12.7211V12.7142V12.7074V12.7006V12.6937V12.6869V12.68V12.6732V12.6664V12.6595V12.6527V12.6459V12.639V12.6322V12.6254V12.6185V12.6117V12.6049V12.5981V12.5912V12.5844V12.5776V12.5707V12.5639V12.5571V12.5503V12.5434V12.5366V12.5298V12.523V12.5161V12.5093V12.5025V12.4957V12.4889V12.482V12.4752V12.4684V12.4616V12.4548V12.448V12.4412V12.4343V12.4275V12.4207V12.4139V12.4071V12.4003V12.3935V12.3867V12.3799V12.3731V12.3663V12.3595V12.3527V12.3459V12.3391V12.3323V12.3255V12.3187V12.312V12.3052V12.2984V12.2916V12.2848V12.278V12.2713V12.2645V12.2577V12.2509V12.2442V12.2374V12.2306V12.2239V12.2171V12.2104V12.2036V12.1968V12.1901V12.1833V12.1766V12.1698V12.1631V12.1563V12.1496V12.1428V12.1361V12.1294V12.1226V12.1159V12.1092V12.1024V12.0957V12.089V12.0823V12.0756V12.0688V12.0621V12.0554V12.0487V12.042V12.0353V12.0286V12.0219V12.0152V12.0085V12.0018V11.9951V11.9885V11.9818V11.9751V11.9684V11.9617V11.9551V11.9484V11.9417V11.9351V11.9284V11.9218V11.9151V11.9085V11.9018V11.8952V11.8885V11.8752V11.8487V11.7959V11.7432V11.6908V11.6386V11.5867V11.5351V11.4837V11.4327V11.3819V11.3315V11.2814V11.2316V11.1822V11.1332V11.0845V11.0363V10.941V10.8474V10.7557V10.6659C17.6667 10.1139 18.1141 9.66671 18.6667 9.66671H22.6667C23.2193 9.66671 23.6667 10.1139 23.6667 10.6659V10.6714V10.677V10.6825V10.6881V10.6937V10.6993V10.7049V10.7105V10.7161V10.7218V10.7274V10.733V10.7387V10.7443V10.75V10.7557V10.7613V10.767V10.7727V10.7784V10.7841V10.7898V10.7956V10.8013V10.807V10.8128V10.8185V10.8243V10.8301V10.8358V10.8416V10.8474V10.8532V10.859V10.8648V10.8706V10.8764V10.8823V10.8881V10.894V10.8998V10.9057V10.9115V10.9174V10.9233V10.9292V10.9351V10.941V10.9469V10.9528V10.9587V10.9646V10.9706V10.9765V10.9824V10.9884V10.9944V11.0003V11.0063V11.0123V11.0183V11.0242V11.0302V11.0363V11.0423V11.0483V11.0543V11.0603V11.0664V11.0724V11.0785V11.0845V11.0906V11.0966V11.1027V11.1088V11.1149V11.121V11.1271V11.1332V11.1393V11.1454V11.1515V11.1576V11.1638V11.1699V11.1761V11.1822V11.1884V11.1945V11.2007V11.2069V11.213V11.2192V11.2254V11.2316V11.2378V11.244V11.2502V11.2564V11.2627V11.2689V11.2751V11.2814V11.2876V11.2939V11.3001V11.3064V11.3126V11.3189V11.3252V11.3315V11.3378V11.3441V11.3504V11.3567V11.363V11.3693V11.3756V11.3819V11.3882V11.3946V11.4009V11.4073V11.4136V11.42V11.4263V11.4327V11.439V11.4454V11.4518V11.4582V11.4646V11.4709V11.4773V11.4837V11.4901V11.4965V11.503V11.5094V11.5158V11.5222V11.5287V11.5351V11.5415V11.548V11.5544V11.5609V11.5673V11.5738V11.5803V11.5867V11.5932V11.5997V11.6062V11.6127V11.6191V11.6256V11.6321V11.6386V11.6452V11.6517V11.6582V11.6647V11.6712V11.6777V11.6843V11.6908V11.6974V11.7039V11.7104V11.717V11.7235V11.7301V11.7367V11.7432V11.7498V11.7564V11.7629V11.7695V11.7761V11.7827V11.7893V11.7959V11.8025V11.8091V11.8157V11.8223V11.8289V11.8355V11.8421V11.8487V11.8554V11.862V11.8686V11.8752V11.8819V11.8885V11.8952V11.9018V11.9085V11.9151V11.9218V11.9284V11.9351V11.9417V11.9484V11.9551V11.9617V11.9684V11.9751V11.9818V11.9885V11.9951V12.0018V12.0085V12.0152V12.0219V12.0286V12.0353V12.042V12.0487V12.0554V12.0621V12.0688V12.0756V12.0823V12.089V12.0957V12.1024V12.1092V12.1159V12.1226V12.1294V12.1361V12.1428V12.1496V12.1563V12.1631V12.1698V12.1766V12.1833V12.1901V12.1968V12.2036V12.2104V12.2171V12.2239V12.2306V12.2374V12.2442V12.2509V12.2577V12.2645V12.2713V12.278V12.2848V12.2916V12.2984V12.3052V12.312V12.3187V12.3255V12.3323V12.3391V12.3459V12.3527V12.3595V12.3663V12.3731V12.3799V12.3867V12.3935V12.4003V12.4071V12.4139V12.4207V12.4275V12.4343V12.4412V12.448V12.4548V12.4616V12.4684V12.4752V12.482V12.4889V12.4957V12.5025V12.5093V12.5161V12.523V12.5298V12.5366V12.5434V12.5503V12.5571V12.5639V12.5707V12.5776V12.5844V12.5912V12.5981V12.6049V12.6117V12.6185V12.6254V12.6322V12.639V12.6459V12.6527V12.6595V12.6664V12.6732V12.68V12.6869V12.6937V12.7006V12.7074V12.7142V12.7211V12.7279V12.7347V12.7416V12.7484V12.7552V12.7621V12.7689V12.7757V12.7826V12.7894V12.7963V12.8031V12.8099V12.8168V12.8236V12.8304V12.8373V12.8441V12.8509V12.8578V12.8646V12.8714V12.8783V12.8851V12.8919V12.8987V12.9056V12.9124V12.9192V12.9261V12.9329V12.9397V12.9465V12.9534V12.9602V12.967V12.9738V12.9807V12.9875V12.9943V13.0011V13.0079V13.0148V13.0216V13.0284V13.0352V13.042V13.0488V13.0556V13.0624V13.0693V13.0761V13.0829V13.0897V13.0965V13.1033V13.1101V13.1169V13.1237V13.1305V13.1373V13.1441V13.1509V13.1577V13.1645V13.1712V13.178V13.1848V13.1916V13.1984V13.2052V13.2119V13.2187V13.2255V13.2323V13.2391V13.2458V13.2526V13.2594V13.2661V13.2729V13.2797V13.2864V13.2932V13.2999V13.3067V13.3134V13.3202V13.3269V13.3337V13.3404V13.3472V13.3539V13.3606V13.3674V13.3741V13.3808V13.3876V13.3943V13.401V13.4077V13.4145V13.4212V13.4279V13.4346V13.4413V13.448V13.4547V13.4614V13.4681V13.4748V13.4815V13.4882V13.4949V13.5016V13.5083V13.515V13.5216V13.5283V13.535V13.5416V13.5483V13.555V13.5616V13.5683V13.575V13.5816V13.5883V13.5949V13.6015V13.6082V13.6148V13.6215V13.6281V13.6347V13.6413V13.648V13.6546V13.6612V13.6678V13.6744V13.681V13.6876V13.6942V13.7008V13.7074V13.714V13.7206V13.7272V13.7337V13.7403V13.7469V13.7534V13.76V13.7666V13.7731V13.7797V13.7862V13.7928V13.7993V13.8058V13.8124V13.8189V13.8254V13.8319V13.8385V13.845V13.8515V13.858V13.8645V13.871V13.8775V13.884V13.8905V13.8969V13.9034V13.9099V13.9164V13.9228V13.9293V13.9357V13.9422V13.9486V13.9551V13.9615V13.9679V13.9744V13.9808V13.9872V13.9936V14C23.6667 15.5427 22.8989 16.626 22.1104 17.3356C21.7159 17.6907 21.3202 17.948 21.0232 18.1163C20.875 18.2003 20.7523 18.2616 20.6678 18.3014C20.6674 18.3016 20.6671 18.3017 20.6667 18.3019C20.6663 18.3017 20.666 18.3016 20.6656 18.3014C20.5811 18.2616 20.4584 18.2003 20.3102 18.1163C20.0132 17.948 19.6175 17.6907 19.223 17.3356C18.4345 16.626 17.6667 15.5427 17.6667 14Z" fill="white" stroke="white" stroke-width="0.666667"/>
</mask>
<g mask="url(#mask2_17_5686)">
</g>
<path d="M0 3.66667H-0.901086L-0.21693 4.25309L4.33333 8.15331V9.16179L-0.193746 12.3954L-0.333333 12.4951V12.6667V13.3333V13.9347L0.176666 13.616L5.42893 10.3333H6.55984L11.0821 13.5635C11.176 13.6306 11.2886 13.6667 11.404 13.6667C11.9182 13.6667 12.1548 13.027 11.7644 12.6924L7.66667 9.18002V8.17154L12.0542 5.03762C12.2294 4.91248 12.3333 4.71043 12.3333 4.49513V4V3.39858L11.8233 3.71733L6.57107 7H5.44016L0.860413 3.72876L0.773488 3.66667H0.666667H0Z" fill="#DB1E36" stroke="white" stroke-width="0.666667"/>
<path fill-rule="evenodd" clip-rule="evenodd" d="M0 7.33333V10H4.66667V13.3333C4.66667 13.7015 4.96514 14 5.33333 14H6.66667C7.03486 14 7.33333 13.7015 7.33333 13.3333V10H12C12.3682 10 12.6667 9.70152 12.6667 9.33333V8C12.6667 7.63181 12.3682 7.33333 12 7.33333H7.33333V4H4.66667V7.33333H0Z" fill="white"/>
<path fill-rule="evenodd" clip-rule="evenodd" d="M0 8H5.33333V7.33333V4H6.66667V7.33333V8H12V9.33333H6.66667V10V13.3333H5.33333V10V9.33333H0V8Z" fill="#DB1E36"/>
</g>
</svg>
