<svg viewBox="0 0 28 28" xmlns="http://www.w3.org/2000/svg" xmlns:xlink="http://www.w3.org/1999/xlink" width="28.000000" height="28.000000" fill="none" customFrame="#000000">
	<defs>
		<filter id="pixso_custom_mask_type_alpha">
			<feColorMatrix type="matrix" values="0 0 0 0 1 0 0 0 0 1 0 0 0 0 1 0 0 0 1 0 " />
		</filter>
	</defs>
	<mask id="mask_409" width="28.000000" height="20.000000" x="0.000000" y="4.000000" maskUnits="userSpaceOnUse">
		<g filter="url(#pixso_custom_mask_type_alpha)">
			<rect id="Mask" width="28.000000" height="20.000000" x="0.000000" y="4.000000" rx="3.000000" fill="rgb(255,255,255)" />
			<rect id="Mask" width="27.500000" height="19.500000" x="0.250000" y="4.250000" rx="2.750000" stroke="rgb(245,245,245)" stroke-width="0.5" />
		</g>
	</mask>
	<rect id="Guatemala" width="28.000000" height="28.000000" x="0.000000" y="0.000000" fill="rgb(255,255,255)" fill-opacity="0" />
	<rect id="Mask" width="28.000000" height="20.000000" x="0.000000" y="4.000000" rx="3.000000" fill="rgb(255,255,255)" />
	<rect id="Mask" width="27.500000" height="19.500000" x="0.250000" y="4.250000" rx="2.750000" stroke="rgb(214,216,221)" stroke-width="0.5" />
	<g mask="url(#mask_409)">
		<rect id="Mask" width="9.333333" height="20.000000" x="18.666626" y="4.000000" fill="rgb(99,174,227)" />
		<rect id="Mask" width="9.333333" height="20.000000" x="18.666626" y="4.000000" stroke="rgb(150.96,150.96,150.96)" stroke-opacity="0" stroke-width="0" />
		<path id="Rectangle 2" d="M0 24L9.33333 24L9.33333 4L0 4L0 24Z" fill="rgb(99,174,227)" fill-rule="evenodd" />
		<path id="Rectangle 2" d="M9.33333 24L9.33333 4L0 4L0 24L9.33333 24Z" fill-rule="evenodd" stroke="rgb(150.96,150.96,150.96)" stroke-opacity="0" stroke-width="0" />
		<path id="Oval 5" d="M12.6637 15.6415C11.8683 15.18 11.3334 14.3192 11.3334 13.3334L12.6637 15.6415ZM16.6667 13.3334C16.6667 14.2779 16.1756 15.1077 15.4349 15.5815L16.6667 13.3334Z" fill="rgb(215.985,215.985,215.985)" fill-opacity="0" fill-rule="evenodd" />
		<path id="Oval 5" d="M12.6637 15.6415C11.8683 15.18 11.3334 14.3192 11.3334 13.3334L12.6637 15.6415ZM16.6667 13.3334C16.6667 14.2779 16.1756 15.1077 15.4349 15.5815L16.6667 13.3334Z" fill-rule="evenodd" stroke="rgb(98,138,64)" stroke-linecap="round" stroke-width="1.33333337" />
		<path id="Oval 5" d="M14 14.6667C14.7363 14.6667 15.3333 14.0697 15.3333 13.3333C15.3333 12.597 14.7363 12 14 12C13.2636 12 12.6666 12.597 12.6666 13.3333C12.6666 14.0697 13.2636 14.6667 14 14.6667Z" fill="rgb(220,194,109)" fill-rule="evenodd" />
		<path id="Oval 5" d="M15.3333 13.3333C15.3333 12.597 14.7363 12 14 12C13.2636 12 12.6666 12.597 12.6666 13.3333C12.6666 14.0697 13.2636 14.6667 14 14.6667C14.7363 14.6667 15.3333 14.0697 15.3333 13.3333Z" fill-rule="evenodd" stroke="rgb(150.96,150.96,150.96)" stroke-opacity="0" stroke-width="0" />
	</g>
</svg>
