<svg width="28.000000" height="28.000000" viewBox="0 0 28 28" fill="none" xmlns="http://www.w3.org/2000/svg" xmlns:xlink="http://www.w3.org/1999/xlink">
	<desc>
			Created with Pixso.
	</desc>
	<defs/>
	<rect id="Guinea-Bissau" width="28.000000" height="28.000000" fill="#FFFFFF" fill-opacity="0"/>
	<rect id="Mask" y="4.000000" rx="3.000000" width="28.000000" height="20.000000" fill="#FFFFFF" fill-opacity="1.000000"/>
	<rect id="Mask" y="4.000000" rx="3.000000" width="28.000000" height="20.000000" stroke="#979797" stroke-opacity="0" stroke-width="0.000000"/>
	<mask id="mask17_5553" mask-type="alpha" maskUnits="userSpaceOnUse" x="0.000000" y="4.000000" width="28.000000" height="20.000000">
		<rect id="Mask" y="4.000000" rx="3.000000" width="28.000000" height="20.000000" fill="#FFFFFF" fill-opacity="1.000000"/>
		<rect id="Mask" y="4.000000" rx="3.000000" width="28.000000" height="20.000000" stroke="#979797" stroke-opacity="0" stroke-width="0.000000"/>
	</mask>
	<g mask="url(#mask17_5553)">
		<path id="Rectangle 2" d="M0 24L28 24L28 13.33L0 13.33L0 24Z" fill="#1AB558" fill-opacity="1.000000" fill-rule="evenodd"/>
		<path id="Rectangle 2" d="M28 24L28 13.33L0 13.33L0 24L28 24Z" stroke="#979797" stroke-opacity="0" stroke-width="0.000000"/>
	</g>
	<g mask="url(#mask17_5553)">
		<path id="Rectangle 2" d="M0 13.33L28 13.33L28 4L0 4L0 13.33Z" fill="#FFD952" fill-opacity="1.000000" fill-rule="evenodd"/>
		<path id="Rectangle 2" d="M28 13.33L28 4L0 4L0 13.33L28 13.33Z" stroke="#979797" stroke-opacity="0" stroke-width="0.000000"/>
	</g>
	<g mask="url(#mask17_5553)">
		<path id="Rectangle 2" d="M0 24L10.66 24L10.66 4L0 4L0 24Z" fill="#E72B42" fill-opacity="1.000000" fill-rule="evenodd"/>
		<path id="Rectangle 2" d="M10.66 24L10.66 4L0 4L0 24L10.66 24Z" stroke="#979797" stroke-opacity="0" stroke-width="0.000000"/>
	</g>
	<g mask="url(#mask17_5553)">
		<path id="Star 53" d="M5.33 15.27L3.37 16.69L4.11 14.39L2.16 12.96L4.58 12.96L5.33 10.66L6.08 12.96L8.5 12.96L6.54 14.39L7.29 16.69L5.33 15.27Z" fill="#262626" fill-opacity="1.000000" fill-rule="evenodd"/>
		<path id="Star 53" d="M3.37 16.69L4.11 14.39L2.16 12.96L4.58 12.96L5.33 10.66L6.08 12.96L8.5 12.96L6.54 14.39L7.29 16.69L5.33 15.27L3.37 16.69Z" stroke="#979797" stroke-opacity="0" stroke-width="0.000000"/>
	</g>
</svg>
