<svg width="30.000000" height="28.000000" viewBox="0 0 30 28" fill="none" xmlns="http://www.w3.org/2000/svg" xmlns:xlink="http://www.w3.org/1999/xlink">
	<desc>
			Created with Pixso.
	</desc>
	<defs/>
	<rect id="Guyana" width="28.000000" height="28.000000" transform="translate(1.000000 0.000000)" fill="#FFFFFF" fill-opacity="0"/>
	<rect id="Mask" x="1.000000" y="4.000000" rx="3.000000" width="28.000000" height="20.000000" fill="#FFFFFF" fill-opacity="1.000000"/>
	<rect id="Mask" x="1.000000" y="4.000000" rx="3.000000" width="28.000000" height="20.000000" stroke="#979797" stroke-opacity="0" stroke-width="0.000000"/>
	<mask id="mask17_5625" mask-type="alpha" maskUnits="userSpaceOnUse" x="1.000000" y="4.000000" width="28.000000" height="20.000000">
		<rect id="Mask" x="1.000000" y="4.000000" rx="3.000000" width="28.000000" height="20.000000" fill="#FFFFFF" fill-opacity="1.000000"/>
		<rect id="Mask" x="1.000000" y="4.000000" rx="3.000000" width="28.000000" height="20.000000" stroke="#979797" stroke-opacity="0" stroke-width="0.000000"/>
	</mask>
	<g mask="url(#mask17_5625)">
		<rect id="Mask" x="1.000000" y="4.000000" width="28.000000" height="20.000000" fill="#08C55F" fill-opacity="1.000000"/>
		<rect id="Mask" x="1.000000" y="4.000000" width="28.000000" height="20.000000" stroke="#979797" stroke-opacity="0" stroke-width="0.000000"/>
	</g>
	<g mask="url(#mask17_5625)">
		<path id="Rectangle 1134" d="M-0.34 24L-0.34 4L1 4L29 13.33L29 14.66L1 24L-0.34 24Z" fill="#FFD831" fill-opacity="1.000000" fill-rule="evenodd"/>
		<path id="Rectangle 1134" d="M-0.34 4L-0.34 24L1 24L29 14.66L29 13.33L1 4L-0.34 4ZM1 5.4L1 22.59L26.78 14L1 5.4Z" fill="#FFFFFF" fill-opacity="1.000000" fill-rule="evenodd"/>
	</g>
	<g mask="url(#mask17_5625)">
		<path id="Rectangle 1134" d="M-0.34 24L-0.34 4L1 4L16.33 14L1 24L-0.34 24Z" fill="#E92034" fill-opacity="1.000000" fill-rule="evenodd"/>
		<path id="Rectangle 1134" d="M-0.34 4L-0.34 24L1 24L15.11 14.79L16.33 14L15.11 13.2L1 4L-0.34 4ZM1 5.59L1 22.4L13.89 14L1 5.59Z" fill="#262626" fill-opacity="1.000000" fill-rule="evenodd"/>
	</g>
</svg>
