<svg viewBox="0 0 28 28" xmlns="http://www.w3.org/2000/svg" xmlns:xlink="http://www.w3.org/1999/xlink" width="28.000000" height="28.000000" fill="none" customFrame="#000000">
	<defs>
		<filter id="pixso_custom_mask_type_alpha">
			<feColorMatrix type="matrix" values="0 0 0 0 1 0 0 0 0 1 0 0 0 0 1 0 0 0 1 0 " />
		</filter>
	</defs>
	<mask id="mask_419" width="28.000000" height="20.000000" x="0.000000" y="4.000000" maskUnits="userSpaceOnUse">
		<g filter="url(#pixso_custom_mask_type_alpha)">
			<rect id="Mask" width="28.000000" height="20.000000" x="0.000000" y="4.000000" rx="3.000000" fill="rgb(208,17,41)" />
			<rect id="Mask" width="28.000000" height="20.000000" x="0.000000" y="4.000000" rx="3.000000" stroke="rgb(150.96,150.96,150.96)" stroke-opacity="0" stroke-width="0" />
		</g>
	</mask>
	<rect id="Isle of Man" width="28.000000" height="28.000000" x="0.000000" y="0.000000" fill="rgb(255,255,255)" fill-opacity="0" />
	<rect id="Mask" width="28.000000" height="20.000000" x="0.000000" y="4.000000" rx="3.000000" fill="rgb(208,17,41)" />
	<rect id="Mask" width="28.000000" height="20.000000" x="0.000000" y="4.000000" rx="3.000000" stroke="rgb(150.96,150.96,150.96)" stroke-opacity="0" stroke-width="0" />
	<g mask="url(#mask_419)">
		<g id="Group 9">
			<g id="Group 8">
				<path id="Fill 3" />
				<path id="Stroke 4" d="" fill="rgb(0,0,0)" fill-opacity="0" fill-rule="nonzero" />
				<path id="Fill 3" d="M13.8881 14.0409C14.5491 14.0409 15.0849 13.4783 15.0849 12.7845C15.0849 12.0905 14.5491 11.528 13.8881 11.528C13.2272 11.528 12.6915 12.0905 12.6915 12.7845C12.6915 13.4783 13.2272 14.0409 13.8881 14.0409Z" fill="rgb(255,240.705,1.16636)" fill-rule="evenodd" />
				<path id="Stroke 4" d="M15.0849 12.7845C15.0849 12.0905 14.5491 11.528 13.8881 11.528C13.2272 11.528 12.6915 12.0905 12.6915 12.7845C12.6915 13.4783 13.2272 14.0409 13.8881 14.0409C14.5491 14.0409 15.0849 13.4783 15.0849 12.7845Z" fill-rule="evenodd" stroke="rgb(0,0,0)" stroke-opacity="0" stroke-width="0" />
				<path id="Fill 5" d="M12.7973 12.2793C13.1362 12.1657 13.5759 12.2978 13.8652 12.5893C14.1723 12.5306 14.4802 12.1257 14.5756 11.7652C14.4708 10.5673 13.7244 9.6598 13.4975 9.03705C13.4257 8.84023 13.093 8.53075 12.747 8.67485C12.4625 8.79338 12.3186 8.70115 11.363 9.20157C10.8463 9.47215 10.4114 9.75008 10.1822 9.79852C9.95294 9.84696 9.71108 9.89014 9.5277 9.73931C9.27546 9.53185 8.99259 9.47448 8.82599 9.31815C8.62187 9.12659 8.49092 8.982 8.35286 8.92341C8.2148 8.86469 7.9811 8.99509 8.07977 9.30543C8.30242 10.0063 8.82727 10.1199 9.05259 10.775C9.15896 11.0848 9.31018 11.3175 9.64816 11.0828C9.98614 10.8481 10.4638 10.5363 11.2782 10.5035C11.8251 10.4813 12.3902 10.2702 12.6499 9.92378C12.6473 10.2235 12.748 10.4691 12.7214 10.8589C12.695 11.2489 12.6992 11.7339 12.7973 12.2793Z" fill="rgb(255,255,255)" fill-rule="evenodd" />
				<path id="Stroke 6" d="M12.7973 12.2793C13.1362 12.1657 13.5759 12.2978 13.8652 12.5893C14.1723 12.5306 14.4802 12.1257 14.5756 11.7652C14.4708 10.5673 13.7244 9.6598 13.4975 9.03705C13.4257 8.84023 13.093 8.53075 12.747 8.67485C12.4625 8.79338 12.3186 8.70115 11.363 9.20157C10.8463 9.47215 10.4114 9.75008 10.1822 9.79852C9.95294 9.84696 9.71108 9.89014 9.5277 9.73931C9.45846 9.68236 9.38691 9.63672 9.31609 9.59724L9.31694 9.59619C9.31198 9.59366 9.30701 9.59142 9.30202 9.58947C9.24445 9.55797 9.1875 9.53033 9.1328 9.50376L9.13508 9.50188C9.12235 9.49583 9.10982 9.49065 9.09743 9.48654C9.01044 9.444 8.93033 9.40269 8.8641 9.35076L8.86455 9.35044C8.86147 9.34801 8.85836 9.34576 8.85523 9.34368C8.84513 9.33545 8.83538 9.32696 8.82599 9.31815C8.62187 9.12659 8.49092 8.982 8.35286 8.92341C8.2148 8.86469 7.9811 8.99509 8.07977 9.30543C8.30242 10.0063 8.82727 10.1199 9.05259 10.775C9.15896 11.0848 9.31018 11.3175 9.64816 11.0828C9.98614 10.8481 10.4638 10.5363 11.2782 10.5035C11.8251 10.4813 12.3902 10.2702 12.6499 9.92378C12.6488 10.052 12.6666 10.1703 12.6853 10.2943C12.7102 10.46 12.7366 10.6359 12.7214 10.8589C12.695 11.2489 12.6992 11.7339 12.7973 12.2793ZM8.85523 9.34368C8.75343 9.27606 8.62606 9.39201 8.56141 9.56243L8.8641 9.35076C8.86111 9.34842 8.85816 9.34606 8.85523 9.34368ZM9.09743 9.48654C8.97844 9.44705 8.87176 9.50611 8.7195 9.845L9.1328 9.50376C9.1209 9.49798 9.1091 9.49225 9.09743 9.48654ZM9.30202 9.58947C9.16506 9.53582 9.01799 9.69836 8.93166 10.0719L9.31609 9.59724C9.3114 9.59462 9.30671 9.59203 9.30202 9.58947Z" fill-rule="evenodd" stroke="rgb(0,0,0)" stroke-opacity="0" stroke-width="0" />
				<path id="Fill 7" d="M13.438 12.3122C13.3376 11.7224 13.5197 11.6374 13.3023 10.9462C13.1715 10.5305 13.088 10.0095 13.0859 9.76709L12.9985 9.79376C13.0006 10.0362 13.0843 10.5573 13.2149 10.973C13.4252 11.6413 13.2617 11.7429 13.3416 12.2822C13.3663 12.2875 13.4182 12.3048 13.438 12.3122Z" fill="rgb(255,240.705,1.16636)" fill-rule="evenodd" />
				<path id="Stroke 8" d="M13.3023 10.9462C13.1715 10.5305 13.088 10.0095 13.0859 9.76709L12.9985 9.79376C13.0006 10.0362 13.0843 10.5573 13.2149 10.973C13.4252 11.6413 13.2617 11.7429 13.3416 12.2822C13.3663 12.2875 13.4182 12.3048 13.438 12.3122C13.3376 11.7224 13.5197 11.6374 13.3023 10.9462Z" fill-rule="evenodd" stroke="rgb(0,0,0)" stroke-opacity="0" stroke-width="0" />
				<path id="Fill 9" d="M12.9235 12.2475C12.9242 12.1725 12.9197 12.0942 12.9086 12.0269C13.0623 11.9882 13.3254 12.1373 13.3181 12.0265C13.3159 11.9914 13.3193 11.8778 13.3214 11.8177C13.318 11.9117 12.952 11.7529 12.889 11.7939C12.8213 11.4508 12.9052 11.0978 12.8515 10.8824C12.9737 10.8473 13.1983 10.9238 13.1708 10.8233C13.1552 10.7718 13.1254 10.6437 13.1057 10.5636C13.1249 10.6475 12.9466 10.578 12.8862 10.626C12.8549 10.4399 12.8091 10.0869 12.81 9.92554L12.65 9.92383C12.6474 10.2235 12.748 10.4691 12.7215 10.859C12.695 11.249 12.6992 11.734 12.7973 12.2793C12.8324 12.2685 12.8902 12.2547 12.9235 12.2475Z" fill="rgb(255,240.705,1.16636)" fill-rule="evenodd" />
				<path id="Stroke 10" d="M11.9685 9.95085C11.7754 9.59293 11.5561 9.09213 11.7215 9.01764L11.9685 9.95085ZM12.9235 12.2475C12.9242 12.1725 12.9197 12.0942 12.9086 12.0269C12.9779 12.0095 13.0694 12.0302 13.1484 12.048C13.2446 12.0698 13.3221 12.0873 13.3181 12.0264C13.3159 11.9913 13.3193 11.8778 13.3214 11.8176C13.3195 11.8709 13.2014 11.8431 13.0879 11.8164C13.0008 11.796 12.9164 11.7761 12.889 11.7939C12.8529 11.611 12.8599 11.4252 12.8662 11.259C12.8717 11.1135 12.8766 10.9829 12.8515 10.8823C12.8996 10.8685 12.9636 10.872 13.0219 10.8752C13.1115 10.8801 13.1875 10.8842 13.1709 10.8233C13.1552 10.7718 13.1254 10.6437 13.1057 10.5636C13.1166 10.6109 13.0645 10.6094 13.0062 10.6078C12.9612 10.6065 12.9125 10.6051 12.8862 10.626C12.8549 10.4399 12.8091 10.0869 12.81 9.92553L12.65 9.92382C12.6489 10.052 12.6667 10.1704 12.6853 10.2943C12.7102 10.4601 12.7367 10.6359 12.7215 10.859C12.695 11.249 12.6992 11.734 12.7973 12.2793C12.8324 12.2685 12.8902 12.2547 12.9235 12.2475ZM11.9693 10.0614C11.9029 10.0961 11.8341 10.1281 11.7632 10.1558L11.9693 10.0614ZM10.5839 10.384C10.6334 10.3669 10.6844 10.3511 10.7374 10.3365L10.5839 10.384Z" fill-rule="evenodd" stroke="rgb(0,0,0)" stroke-opacity="0" stroke-width="0" />
				<path id="Fill 11" d="M12.5192 9.50802C12.2806 9.86974 11.7106 10.1194 11.1837 10.1746C10.5669 10.2392 10.1529 10.4547 9.84797 10.6657C9.82176 10.6162 9.77445 10.5895 9.73263 10.5568C9.28653 10.2099 9.46991 9.73983 9.63884 9.80698C9.57512 9.78105 9.53807 9.74607 9.50323 9.71977C9.44428 9.67389 9.27418 9.84967 9.2955 10.1288C9.30459 10.2477 9.40152 10.4231 9.4804 10.5161C9.3364 10.4886 9.26743 10.4499 9.18284 10.3426C9.23038 10.3116 9.29189 10.294 9.34152 10.2899C9.32463 10.2474 9.3011 10.2001 9.2955 10.1288C9.22502 10.1282 9.13904 10.154 9.06529 10.2066C8.88832 10.0215 8.70611 9.87389 8.60044 9.65542C8.43139 9.30545 8.60335 9.08454 8.82599 9.31818C8.62187 9.12662 8.49092 8.98203 8.35286 8.92344C8.2148 8.86472 7.9811 8.99512 8.07977 9.30545C8.30242 10.0064 8.82727 10.1199 9.05259 10.7751C9.15896 11.0848 9.31577 11.3261 9.64816 11.0828C9.69197 11.0508 9.70362 11.0432 9.74172 11.0148C9.84715 10.9508 10.0142 11.0582 9.9964 11.2918C10.0818 11.0773 10.0273 11.0116 9.9548 10.8831C9.90121 10.913 9.90552 10.7375 9.87243 10.7144C10.0621 10.5906 10.2928 10.4664 10.5838 10.378C10.5945 10.4828 10.622 10.5941 10.7139 10.578C10.7632 10.5665 10.8132 10.5561 10.8658 10.5469C10.7738 10.5631 10.748 10.4412 10.7374 10.3365C10.8753 10.3033 11.0261 10.2781 11.1913 10.2639C11.3816 10.2475 11.5784 10.2069 11.7632 10.1439C11.7907 10.2444 11.8475 10.4138 11.9423 10.3806C12.0263 10.3523 12.1079 10.3204 12.1846 10.2833C12.0528 10.3492 12.001 10.161 11.9693 10.0614C12.2101 9.95145 12.4153 9.80148 12.5379 9.62252L12.5192 9.50802Z" fill="rgb(255,240.705,1.16636)" fill-rule="evenodd" />
				<path id="Stroke 12" d="M9.2955 10.1288C9.22502 10.1282 9.13904 10.154 9.06529 10.2066C8.88832 10.0215 8.70611 9.87389 8.60044 9.65542C8.43139 9.30545 8.60335 9.08454 8.82599 9.31818C8.62187 9.12662 8.49092 8.98203 8.35286 8.92344C8.2148 8.86472 7.9811 8.99512 8.07977 9.30545C8.30242 10.0064 8.82727 10.1199 9.05259 10.7751C9.15896 11.0848 9.31577 11.3261 9.64816 11.0828C9.69197 11.0508 9.70362 11.0432 9.74172 11.0148C9.84715 10.9508 10.0142 11.0582 9.9964 11.2918C10.0818 11.0773 10.0273 11.0116 9.9548 10.8831C9.90121 10.913 9.90552 10.7375 9.87243 10.7144C10.0621 10.5906 10.2928 10.4664 10.5838 10.378C10.5945 10.4828 10.622 10.5941 10.7139 10.578C10.7632 10.5665 10.8132 10.5561 10.8658 10.5469C10.7738 10.5631 10.748 10.4412 10.7374 10.3365C10.8753 10.3033 11.0261 10.2781 11.1913 10.2639C11.3816 10.2475 11.5784 10.2069 11.7632 10.1439C11.7907 10.2444 11.8475 10.4138 11.9423 10.3806C12.0263 10.3523 12.1079 10.3204 12.1846 10.2833C12.0528 10.3492 12.001 10.161 11.9693 10.0614C12.2101 9.95145 12.4153 9.80148 12.5379 9.62252L12.5192 9.50802C12.2806 9.86974 11.7106 10.1194 11.1837 10.1746C10.5669 10.2392 10.1529 10.4547 9.84797 10.6657C9.82176 10.6162 9.77445 10.5895 9.73263 10.5568C9.28653 10.2099 9.46991 9.73983 9.63884 9.80698C9.57512 9.78105 9.53807 9.74607 9.50323 9.71977C9.44428 9.67389 9.27418 9.84967 9.2955 10.1288C9.30459 10.2477 9.40152 10.4231 9.4804 10.5161C9.3364 10.4886 9.26743 10.4499 9.18284 10.3426C9.23038 10.3116 9.29189 10.294 9.34152 10.2899C9.32463 10.2474 9.3011 10.2001 9.2955 10.1288" fill-rule="evenodd" stroke="rgb(0,0,0)" stroke-opacity="0" stroke-width="0" />
				<path id="Fill 13" d="M13.5732 9.68759C13.6894 9.59291 13.7893 9.54814 13.689 9.34765C13.5249 9.01982 13.6269 9.0187 13.2677 8.81014C12.9018 8.59803 12.9481 8.58139 12.464 8.7606C12.3449 8.80463 12.3715 8.84965 12.3924 9.03093C12.4372 9.42163 12.5225 9.73627 12.6004 10.0577C12.9047 10.016 13.3729 9.85089 13.5732 9.68759Z" fill="rgb(255,240.705,1.16636)" fill-rule="evenodd" />
				<path id="Fill 15" d="M12.4375 9.59881C12.3737 9.40701 12.3908 9.43306 12.6222 9.49153C12.6979 9.23869 12.8025 9.02528 12.8611 8.82063C12.9266 8.59152 12.9471 8.5503 13.0435 8.60644C13.1667 8.67813 13.3021 8.75384 13.3903 8.79935C13.5443 8.87861 13.5216 8.90638 13.4481 9.03238C13.3746 9.15837 13.1341 9.41373 12.9858 9.68015C13.1814 9.82474 13.2442 9.83783 13.1052 9.90009C12.9497 9.9697 12.6913 10.0559 12.5825 10.0764C12.5626 9.95049 12.4982 9.78071 12.4375 9.59881Z" fill="rgb(255,240.705,1.16636)" fill-rule="evenodd" />
				<path id="Fill 17" d="M10.1409 11.4024L10.1255 11.5998L9.98701 11.4676L9.83206 11.5781L9.84231 11.3812L9.66394 11.3245L9.81633 11.2098L9.74911 11.0268L9.92794 11.0816L10.0224 10.9122L10.0942 11.0931L10.2787 11.0639L10.1883 11.2365L10.3244 11.3698L10.1409 11.4024Z" fill="rgb(255,240.705,1.16636)" fill-rule="evenodd" />
				<path id="Stroke 18" d="M10.1255 11.5998L9.98701 11.4676L9.83206 11.5781L9.84231 11.3812L9.66394 11.3245L9.81633 11.2098L9.74911 11.0268L9.92794 11.0816L10.0224 10.9122L10.0942 11.0931L10.2787 11.0639L10.1883 11.2365L10.3244 11.3698L10.1409 11.4024L10.1255 11.5998Z" fill-rule="evenodd" stroke="rgb(0,0,0)" stroke-opacity="0" stroke-width="0" />
				<path id="Fill 19" d="M14.017 14.029C13.7538 13.7775 13.6429 13.3117 13.7388 12.9029C13.5368 12.6531 13.0488 12.5754 12.7038 12.6689C11.7681 13.3633 11.3927 14.4957 10.9925 15.0135C10.866 15.1771 10.7771 15.6343 11.0691 15.8769C11.3091 16.0763 11.305 16.2532 12.1954 16.8719C12.677 17.2065 13.1236 17.463 13.2782 17.6472C13.433 17.8314 13.5894 18.0299 13.5567 18.2719C13.5117 18.605 13.6057 18.891 13.5602 19.1205C13.5041 19.4018 13.4504 19.5933 13.4711 19.7481C13.4918 19.903 13.7161 20.0503 13.9227 19.8054C14.3895 19.2525 14.2208 18.7185 14.6486 18.1861C14.8507 17.9344 14.9672 17.6805 14.6047 17.4905C14.242 17.3007 13.746 17.0221 13.3117 16.2982C13.0201 15.812 12.5634 15.4036 12.1477 15.3407C12.3962 15.1933 12.5486 14.9788 12.8834 14.808C13.2182 14.6371 13.6162 14.391 14.017 14.029Z" fill="rgb(255,255,255)" fill-rule="evenodd" />
				<path id="Stroke 20" d="M14.017 14.029C13.7538 13.7775 13.6429 13.3117 13.7388 12.9029C13.5368 12.6531 13.0488 12.5754 12.7038 12.6689C11.7681 13.3633 11.3927 14.4957 10.9925 15.0135C10.866 15.1771 10.7771 15.6343 11.0691 15.8769C11.3091 16.0763 11.305 16.2532 12.1954 16.8719C12.677 17.2065 13.1236 17.463 13.2782 17.6472C13.433 17.8314 13.5894 18.0299 13.5567 18.2719C13.5443 18.3634 13.5425 18.4513 13.5453 18.5354L13.544 18.5352C13.5444 18.541 13.545 18.5467 13.5459 18.5523C13.5487 18.62 13.5544 18.6852 13.5598 18.7478L13.5598 18.7488L13.5572 18.7477C13.5585 18.7623 13.5605 18.7763 13.5633 18.7897C13.5717 18.89 13.5777 18.9835 13.568 19.0696L13.5675 19.0694C13.5671 19.0734 13.5668 19.0773 13.5666 19.0812C13.5649 19.0945 13.5628 19.1076 13.5602 19.1205C13.549 19.1767 13.5379 19.2294 13.5274 19.2788C13.4856 19.4769 13.4546 19.6242 13.4711 19.7481C13.4918 19.903 13.7161 20.0503 13.9227 19.8054C14.3895 19.2525 14.2208 18.7185 14.6486 18.1861C14.8507 17.9344 14.9672 17.6805 14.6047 17.4905C14.242 17.3007 13.746 17.0221 13.3117 16.2982C13.0201 15.812 12.5634 15.4036 12.1477 15.3407C12.3962 15.1933 12.5486 14.9788 12.8834 14.808C13.2182 14.6371 13.6162 14.391 14.017 14.029ZM13.5666 19.0812C13.5617 19.2076 13.721 19.2655 13.8939 19.2389L13.568 19.0696C13.5676 19.0735 13.5671 19.0773 13.5666 19.0812ZM13.5633 18.7897C13.5902 18.9175 13.6925 18.9849 14.048 18.9539L13.5598 18.7488C13.561 18.7625 13.5622 18.7762 13.5633 18.7897ZM13.5459 18.5523C13.5704 18.7034 13.7779 18.7558 14.129 18.6476L13.5453 18.5354C13.5455 18.5411 13.5457 18.5467 13.5459 18.5523Z" fill-rule="evenodd" stroke="rgb(0,0,0)" stroke-opacity="0" stroke-width="0" />
				<path id="Fill 21" d="M13.7236 13.43C13.2875 13.8162 13.1263 13.693 12.6648 14.2364C12.3874 14.5631 11.9995 14.8996 11.8005 15.0227L11.8662 15.0887C12.0652 14.9657 12.4531 14.6291 12.7307 14.3024C13.1769 13.777 13.3423 13.8749 13.7473 13.5325C13.7392 13.5075 13.7275 13.4516 13.7236 13.43Z" fill="rgb(255,240.705,1.16636)" fill-rule="evenodd" />
				<path id="Stroke 22" d="M12.6648 14.2364C12.3874 14.5631 11.9995 14.8996 11.8005 15.0227L11.8662 15.0887C12.0652 14.9657 12.4531 14.6291 12.7307 14.3024C13.1769 13.777 13.3423 13.8749 13.7473 13.5325C13.7392 13.5075 13.7275 13.4516 13.7236 13.43C13.2875 13.8162 13.1263 13.693 12.6648 14.2364Z" fill-rule="evenodd" stroke="rgb(0,0,0)" stroke-opacity="0" stroke-width="0" />
				<path id="Fill 23" d="M13.9275 13.9302C13.8654 13.967 13.8031 14.0103 13.7531 14.054C13.6443 13.9336 13.6357 13.6197 13.5481 13.682C13.5201 13.7013 13.4248 13.7551 13.374 13.7833C13.4535 13.7393 13.5053 14.1515 13.5707 14.1883C13.3215 14.4214 12.9884 14.5216 12.8376 14.6782C12.7476 14.5845 12.6984 14.3422 12.6292 14.4174C12.5946 14.4573 12.5038 14.5484 12.4476 14.6064C12.5072 14.5469 12.539 14.7439 12.6087 14.7747C12.471 14.8963 12.2027 15.1144 12.069 15.1943L12.1477 15.3407C12.3962 15.1933 12.5486 14.9789 12.8834 14.808C13.2182 14.6371 13.6162 14.391 14.017 14.029C13.9905 14.0025 13.9501 13.9568 13.9275 13.9302Z" fill="rgb(255,240.705,1.16636)" fill-rule="evenodd" />
				<path id="Stroke 24" d="M13.9275 13.9302C13.8654 13.967 13.8031 14.0103 13.7531 14.054C13.704 13.9997 13.6753 13.9061 13.6506 13.8254C13.6205 13.727 13.5962 13.6478 13.5481 13.682C13.5201 13.7013 13.4248 13.7551 13.374 13.7833C13.419 13.7584 13.4551 13.8797 13.4898 13.9963C13.5165 14.0856 13.5423 14.1723 13.5707 14.1883C13.3215 14.4214 12.9884 14.5216 12.8376 14.6782C12.8022 14.6413 12.7731 14.5814 12.7466 14.5269C12.7058 14.443 12.6712 14.3718 12.6292 14.4174C12.5946 14.4573 12.5038 14.5484 12.4475 14.6064C12.4812 14.5728 12.506 14.6209 12.5338 14.6748C12.5552 14.7163 12.5783 14.7613 12.6087 14.7747C12.471 14.8963 12.2027 15.1144 12.069 15.1943L12.1477 15.3407C12.3962 15.1933 12.5486 14.9789 12.8834 14.808C13.2182 14.6371 13.6162 14.391 14.017 14.029C13.9905 14.0025 13.9501 13.9568 13.9275 13.9302ZM12.6016 15.8908C12.6598 15.9359 12.7173 15.9846 12.7726 16.037L12.6016 15.8908ZM12.5107 15.9469C12.3122 16.3014 12.0087 16.7511 11.8644 16.6379L12.5107 15.9469ZM13.5714 17.0093C13.529 16.9665 13.4869 16.9213 13.4444 16.8734L13.5714 17.0093Z" fill-rule="evenodd" stroke="rgb(0,0,0)" stroke-opacity="0" stroke-width="0" />
				<path id="Fill 25" d="M11.8702 15.6674C12.2878 15.7035 12.7787 16.0969 13.0877 16.5485C13.4493 17.0771 13.8342 17.3457 14.1607 17.5174C14.1329 17.5661 14.1346 17.6224 14.1286 17.6768C14.0655 18.2559 13.5861 18.3242 13.5569 18.137C13.5674 18.208 13.5571 18.2591 13.5529 18.304C13.5445 18.3806 13.7746 18.4472 13.9941 18.2883C14.0876 18.2206 14.1837 18.0448 14.2211 17.9266C14.2703 18.0712 14.2729 18.1533 14.2268 18.2838C14.1773 18.2562 14.1321 18.2089 14.1039 18.166C14.0772 18.2026 14.0501 18.2476 13.9941 18.2883C14.0288 18.3528 14.0931 18.418 14.1734 18.4587C14.1092 18.7122 14.0785 18.9517 13.9511 19.1569C13.7471 19.4856 13.4788 19.4398 13.5602 19.1205C13.5042 19.4018 13.4504 19.5933 13.4711 19.7481C13.4918 19.903 13.7161 20.0503 13.9228 19.8054C14.3895 19.2525 14.2208 18.7185 14.6486 18.1861C14.8507 17.9344 14.9715 17.6712 14.6047 17.4905C14.5562 17.4668 14.5442 17.4601 14.5018 17.4395C14.3962 17.3757 14.4014 17.17 14.6028 17.0695C14.3833 17.0991 14.3564 17.1815 14.2866 17.3117C14.338 17.3453 14.1911 17.4292 14.1885 17.471C13.9916 17.3604 13.774 17.2127 13.5554 16.9922C13.6366 16.9302 13.7147 16.8494 13.6553 16.774C13.6211 16.7349 13.5876 16.6946 13.5537 16.6514C13.6131 16.727 13.5256 16.8113 13.4444 16.8734C13.348 16.7647 13.2519 16.6401 13.1576 16.497C13.0489 16.332 12.917 16.1735 12.7726 16.037C12.8418 15.9616 12.9531 15.8253 12.8783 15.7557C12.8131 15.6935 12.7458 15.6351 12.677 15.5841C12.7972 15.671 12.6678 15.8122 12.6016 15.8908C12.3904 15.7269 12.1641 15.6152 11.9552 15.5933L11.8702 15.6674Z" fill="rgb(255,240.705,1.16636)" fill-rule="evenodd" />
				<path id="Stroke 26" d="M13.9941 18.2883C14.0288 18.3528 14.0931 18.418 14.1734 18.4587C14.1092 18.7122 14.0785 18.9517 13.9511 19.1569C13.7471 19.4856 13.4788 19.4398 13.5602 19.1205C13.5042 19.4018 13.4504 19.5933 13.4711 19.7481C13.4918 19.903 13.7161 20.0503 13.9228 19.8054C14.3895 19.2525 14.2208 18.7185 14.6486 18.1861C14.8507 17.9344 14.9715 17.6712 14.6047 17.4905C14.5562 17.4668 14.5442 17.4601 14.5018 17.4395C14.3962 17.3757 14.4014 17.17 14.6028 17.0695C14.3833 17.0991 14.3564 17.1815 14.2866 17.3117C14.338 17.3453 14.1911 17.4292 14.1885 17.471C13.9916 17.3604 13.774 17.2127 13.5554 16.9922C13.6366 16.9302 13.7147 16.8494 13.6553 16.774C13.6211 16.7349 13.5876 16.6946 13.5537 16.6514C13.6131 16.727 13.5256 16.8113 13.4444 16.8734C13.348 16.7647 13.2519 16.6401 13.1576 16.497C13.0489 16.332 12.917 16.1735 12.7726 16.037C12.8418 15.9616 12.9531 15.8253 12.8783 15.7557C12.8131 15.6935 12.7458 15.6351 12.677 15.5841C12.7972 15.671 12.6678 15.8122 12.6016 15.8908C12.3904 15.7269 12.1641 15.6152 11.9552 15.5933L11.8702 15.6674C12.2878 15.7035 12.7787 16.0969 13.0877 16.5485C13.4493 17.0771 13.8342 17.3457 14.1607 17.5174C14.1329 17.5661 14.1346 17.6224 14.1286 17.6768C14.0655 18.2559 13.5861 18.3242 13.5569 18.137C13.5674 18.208 13.5571 18.2591 13.5529 18.304C13.5445 18.3806 13.7746 18.4472 13.9941 18.2883C14.0876 18.2206 14.1837 18.0448 14.2211 17.9266C14.2703 18.0712 14.2729 18.1533 14.2268 18.2838C14.1773 18.2562 14.1321 18.2089 14.1039 18.166C14.0772 18.2026 14.0501 18.2476 13.9941 18.2883" fill-rule="evenodd" stroke="rgb(0,0,0)" stroke-opacity="0" stroke-width="0" />
				<path id="Fill 27" d="M11.3218 14.6978C11.1854 14.6394 11.2527 14.5605 11.1375 14.752C10.9491 15.065 10.9127 14.9929 10.9204 15.4239C10.9282 15.8624 11.0093 15.7924 11.3992 16.143C11.699 15.9071 12.0568 15.5504 12.2829 15.3187C12.0964 15.0629 11.5565 14.7984 11.3218 14.6978Z" fill="rgb(255,240.705,1.16636)" fill-rule="evenodd" />
				<path id="Fill 29" d="M11.9858 15.6963C11.8595 15.8503 11.8725 15.8218 11.805 15.582C11.5586 15.6395 11.3685 15.7059 11.1706 15.755C10.9488 15.8099 10.9046 15.8119 10.9026 15.6963C10.9002 15.5482 10.8951 15.3874 10.8884 15.2844C10.8769 15.1048 10.911 15.1114 11.0518 15.1153C11.1925 15.1191 11.4849 15.1555 11.7788 15.1571C11.8002 14.9069 11.7796 14.8433 11.9006 14.9386C12.0356 15.0451 12.236 15.2371 12.3073 15.3257C12.2134 15.4067 12.1056 15.5502 11.9858 15.6963Z" fill="rgb(255,240.705,1.16636)" fill-rule="evenodd" />
				<path id="Fill 31" d="M14.6219 16.8829L14.7924 16.7982L14.7526 16.9901L14.9213 17.0758L14.7537 17.1649L14.7961 17.3555L14.6252 17.2743L14.5079 17.4269L14.4637 17.2368L14.2767 17.2356L14.3902 17.08L14.2737 16.9269L14.4614 16.9227L14.5033 16.7324L14.6219 16.8829Z" fill="rgb(255,240.705,1.16636)" fill-rule="evenodd" />
				<path id="Stroke 32" d="M14.7924 16.7982L14.7526 16.9901L14.9213 17.0758L14.7537 17.1649L14.7961 17.3555L14.6252 17.2743L14.5079 17.4269L14.4637 17.2368L14.2767 17.2356L14.3902 17.08L14.2737 16.9269L14.4614 16.9227L14.5033 16.7324L14.6219 16.8829L14.7924 16.7982Z" fill-rule="evenodd" stroke="rgb(0,0,0)" stroke-opacity="0" stroke-width="0" />
				<path id="Fill 33" d="M14.8503 12.0451C14.7745 12.41 14.4457 12.7439 14.0606 12.8612C13.9555 13.1697 14.1354 13.652 14.3851 13.9193C15.4256 14.4228 16.5474 14.1979 17.1745 14.3029C17.3728 14.336 17.7944 14.1883 17.8485 13.8016C17.893 13.4837 18.0409 13.399 18.106 12.2799C18.1412 11.6747 18.1294 11.1403 18.2041 10.9076C18.2788 10.675 18.3642 10.4334 18.5802 10.3421C18.8774 10.2165 19.0662 9.98789 19.2785 9.91462C19.5384 9.82483 19.7232 9.77798 19.8405 9.68184C19.958 9.58569 19.9673 9.30801 19.662 9.24257C18.9726 9.09456 18.6165 9.51499 17.9634 9.39217C17.6548 9.33419 17.3871 9.35511 17.4118 9.77994C17.4365 10.2046 17.4547 10.7949 17.0747 11.5517C16.8194 12.0601 16.711 12.6795 16.8669 13.0889C16.621 12.9366 16.368 12.9053 16.0597 12.6864C15.7513 12.4673 15.3493 12.2286 14.8503 12.0451Z" fill="rgb(255,255,255)" fill-rule="evenodd" />
				<path id="Stroke 34" d="M14.8503 12.0451C14.7745 12.41 14.4457 12.7439 14.0606 12.8612C13.9555 13.1697 14.1354 13.652 14.3851 13.9193C15.1005 14.2655 15.8544 14.2673 16.4595 14.2688C16.7344 14.2695 16.9786 14.2701 17.1745 14.3029C17.3728 14.336 17.7944 14.1883 17.8485 13.8016C17.893 13.4837 18.0409 13.399 18.106 12.2799C18.1412 11.6747 18.1294 11.1403 18.2041 10.9076C18.2788 10.675 18.3642 10.4334 18.5802 10.3421C18.6618 10.3077 18.7352 10.2654 18.8032 10.2207L18.8036 10.222C18.8082 10.2188 18.8125 10.2154 18.8166 10.2119C18.8714 10.1752 18.9226 10.1373 18.9719 10.1008L18.9723 10.1039C18.9837 10.0953 18.9943 10.0864 19.004 10.0771C19.0836 10.0185 19.1587 9.96574 19.2357 9.93154L19.2359 9.93358C19.2452 9.92991 19.2538 9.92564 19.2615 9.92082C19.2672 9.91864 19.2728 9.91658 19.2785 9.91462C19.5384 9.82483 19.7232 9.77798 19.8405 9.68184C19.958 9.58569 19.9673 9.30801 19.662 9.24257C19.3078 9.16653 19.0417 9.24051 18.778 9.31379C18.5284 9.38316 18.281 9.4519 17.9634 9.39217C17.6548 9.33419 17.3871 9.35511 17.4118 9.77994C17.4365 10.2046 17.4547 10.7949 17.0747 11.5517C16.8194 12.0601 16.711 12.6795 16.8669 13.0889C16.621 12.9366 16.368 12.9053 16.0597 12.6864C15.7513 12.4673 15.3493 12.2286 14.8503 12.0451ZM19.2615 9.92082C19.3665 9.85569 19.3281 9.69008 19.2092 9.55193L19.2357 9.93154C19.2443 9.92773 19.2529 9.92415 19.2615 9.92082ZM19.004 10.0771C19.0958 9.98876 19.1003 9.86205 18.8971 9.55437L18.9719 10.1008C18.9827 10.0928 18.9934 10.0849 19.004 10.0771ZM18.8166 10.2119C18.9293 10.1141 18.8688 9.89913 18.6038 9.63389L18.8032 10.2207C18.8077 10.2178 18.8121 10.2148 18.8166 10.2119Z" fill-rule="evenodd" stroke="rgb(0,0,0)" stroke-opacity="0" stroke-width="0" />
				<path id="Fill 35" d="M14.5028 12.6112C15.0394 12.8147 15.0185 13.0229 15.6973 13.1709C16.1056 13.2598 16.5771 13.4443 16.7781 13.5637L16.7997 13.4708C16.5987 13.3514 16.1271 13.1671 15.719 13.078C15.0625 12.9349 15.0605 12.7355 14.5756 12.5385C14.5591 12.5584 14.5188 12.5969 14.5028 12.6112Z" fill="rgb(255,240.705,1.16636)" fill-rule="evenodd" />
				<path id="Stroke 36" d="M15.6973 13.1709C16.1056 13.2598 16.5771 13.4443 16.7781 13.5637L16.7997 13.4708C16.5987 13.3514 16.1271 13.1671 15.719 13.078C15.0625 12.9349 15.0605 12.7355 14.5756 12.5385C14.5591 12.5584 14.5188 12.5969 14.5028 12.6112C15.0394 12.8147 15.0185 13.0229 15.6973 13.1709Z" fill-rule="evenodd" stroke="rgb(0,0,0)" stroke-opacity="0" stroke-width="0" />
				<path id="Fill 37" d="M14.8134 12.1758C14.875 12.2139 14.9418 12.2488 15.0028 12.2726C14.958 12.4316 14.7033 12.5965 14.7985 12.645C14.8285 12.6608 14.9204 12.7205 14.969 12.7526C14.8931 12.7023 15.207 12.4491 15.2048 12.3712C15.5218 12.4813 15.7709 12.7341 15.9755 12.7929C15.9433 12.9216 15.7679 13.0875 15.8646 13.1128C15.9148 13.1243 16.0353 13.1613 16.1113 13.1834C16.0324 13.1589 16.179 13.0315 16.1696 12.9528C16.3387 13.0172 16.6527 13.1521 16.7854 13.2337L16.8668 13.089C16.621 12.9367 16.368 12.9053 16.0597 12.6864C15.7513 12.4673 15.3493 12.2287 14.8503 12.0452C14.8416 12.0824 14.8242 12.1419 14.8134 12.1758Z" fill="rgb(255,240.705,1.16636)" fill-rule="evenodd" />
				<path id="Stroke 38" d="M17.5314 10.9832C17.5172 11.0356 17.501 11.0888 17.4827 11.1435L17.5314 10.9832ZM14.8134 12.1758C14.875 12.2139 14.9418 12.2488 15.0028 12.2726C14.9826 12.3443 14.9198 12.4172 14.8655 12.48C14.7995 12.5566 14.7463 12.6184 14.7985 12.6451C14.8285 12.6608 14.9204 12.7205 14.969 12.7526C14.9261 12.7241 15.008 12.6307 15.0868 12.5408C15.1472 12.4718 15.2057 12.405 15.2048 12.3712C15.5218 12.4813 15.7709 12.7341 15.9755 12.7929C15.9628 12.8436 15.9279 12.9 15.8962 12.9514C15.8473 13.0304 15.8059 13.0975 15.8646 13.1128C15.9148 13.1243 16.0353 13.1613 16.1113 13.1834C16.0668 13.1696 16.0941 13.123 16.1246 13.0708C16.1482 13.0306 16.1737 12.9871 16.1696 12.9528C16.3387 13.0172 16.6527 13.1521 16.7854 13.2337L16.8668 13.089C16.621 12.9367 16.368 12.9054 16.0597 12.6864C15.7513 12.4673 15.3493 12.2287 14.8503 12.0452C14.8416 12.0824 14.8242 12.1419 14.8134 12.1758ZM17.0937 12.4011C17.103 12.3257 17.1161 12.2491 17.1338 12.1726L17.0937 12.4011ZM17.1854 12.4558C17.5771 12.4591 18.0998 12.5101 18.0785 12.6978L17.1854 12.4558Z" fill-rule="evenodd" stroke="rgb(0,0,0)" stroke-opacity="0" stroke-width="0" />
				<path id="Fill 39" d="M17.2751 13.1779C17.096 12.7801 17.1751 12.137 17.3932 11.6302C17.6483 11.0371 17.6775 10.5528 17.6558 10.1702C17.7099 10.1711 17.7554 10.1414 17.8034 10.1196C18.3125 9.88759 18.6086 10.2893 18.4686 10.4093C18.522 10.3643 18.5694 10.3483 18.6085 10.3297C18.6758 10.2988 18.6158 10.0564 18.375 9.93627C18.2723 9.88502 18.0793 9.88551 17.963 9.91058C18.0579 9.79352 18.1241 9.75022 18.2549 9.72685C18.2568 9.78569 18.2405 9.8504 18.2191 9.89749C18.2627 9.90337 18.3133 9.90557 18.375 9.93627C18.4107 9.87242 18.4324 9.78141 18.4259 9.68795C18.6671 9.6197 18.8799 9.52783 19.1129 9.54104C19.4861 9.5622 19.5824 9.82911 19.2785 9.91462C19.5384 9.82483 19.7232 9.77798 19.8405 9.68184C19.9579 9.58569 19.9673 9.30801 19.662 9.24257C18.9725 9.09456 18.6165 9.51499 17.9634 9.39217C17.6547 9.33419 17.3772 9.35596 17.4117 9.77994C17.4163 9.83584 17.4167 9.85015 17.421 9.89896C17.421 10.0269 17.249 10.125 17.0653 9.99205C17.1994 10.177 17.2809 10.1602 17.4231 10.1587C17.4252 10.0949 17.5678 10.1865 17.6035 10.1681C17.6108 10.4024 17.5978 10.6743 17.5252 10.9831C17.4334 10.9404 17.3279 10.9097 17.2952 11.0015C17.2801 11.052 17.2636 11.1026 17.245 11.155C17.2776 11.0632 17.391 11.1008 17.4827 11.1435C17.4412 11.2855 17.3866 11.4352 17.3157 11.5925C17.2339 11.7738 17.1692 11.973 17.1287 12.1726C17.032 12.1473 16.8639 12.1143 16.8439 12.2171C16.8252 12.3075 16.8107 12.3978 16.803 12.486C16.8145 12.3332 16.9957 12.3802 17.0937 12.4011C17.0641 12.6751 17.085 12.9366 17.1714 13.1377L17.2751 13.1779Z" fill="rgb(255,240.705,1.16636)" fill-rule="evenodd" />
				<path id="Stroke 40" d="M18.375 9.93627C18.4107 9.87242 18.4324 9.78141 18.4259 9.68795C18.6671 9.6197 18.8799 9.52783 19.1129 9.54104C19.4861 9.5622 19.5824 9.82911 19.2785 9.91462C19.5384 9.82483 19.7232 9.77798 19.8405 9.68184C19.9579 9.58569 19.9673 9.30801 19.662 9.24257C18.9725 9.09456 18.6165 9.51499 17.9634 9.39217C17.6547 9.33419 17.3772 9.35596 17.4117 9.77994C17.4163 9.83584 17.4167 9.85015 17.421 9.89896C17.421 10.0269 17.249 10.125 17.0653 9.99205C17.1994 10.177 17.2809 10.1602 17.4231 10.1587C17.4252 10.0949 17.5678 10.1865 17.6035 10.1681C17.6108 10.4024 17.5978 10.6743 17.5252 10.9831C17.4334 10.9404 17.3279 10.9097 17.2952 11.0015C17.2801 11.052 17.2636 11.1026 17.245 11.155C17.2776 11.0632 17.391 11.1008 17.4827 11.1435C17.4412 11.2855 17.3866 11.4352 17.3157 11.5925C17.2339 11.7738 17.1692 11.973 17.1287 12.1726C17.032 12.1473 16.8639 12.1143 16.8439 12.2171C16.8252 12.3075 16.8107 12.3978 16.803 12.486C16.8145 12.3332 16.9957 12.3802 17.0937 12.4011C17.0641 12.6751 17.085 12.9366 17.1714 13.1377L17.2751 13.1779C17.096 12.7801 17.1751 12.137 17.3932 11.6302C17.6483 11.0371 17.6775 10.5528 17.6558 10.1702C17.7099 10.1711 17.7554 10.1414 17.8034 10.1196C18.3125 9.88759 18.6086 10.2893 18.4686 10.4093C18.522 10.3643 18.5694 10.3483 18.6085 10.3297C18.6758 10.2988 18.6158 10.0564 18.375 9.93627C18.2723 9.88502 18.0793 9.88551 17.963 9.91058C18.0579 9.79352 18.1241 9.75022 18.2549 9.72685C18.2568 9.78569 18.2405 9.8504 18.2191 9.89749C18.2627 9.90337 18.3133 9.90557 18.375 9.93627" fill-rule="evenodd" stroke="rgb(0,0,0)" stroke-opacity="0" stroke-width="0" />
				<path id="Fill 41" d="M16.5586 14.0094C16.5786 14.1626 16.5656 14.2757 16.7811 14.2847C17.1335 14.2995 17.1049 14.3451 17.4565 14.1227C17.8143 13.8963 17.8238 13.941 17.9181 13.4112C17.9412 13.2809 17.8908 13.2825 17.7308 13.2109C17.3863 13.0562 17.0852 13.0668 16.7811 12.9769C16.6633 13.2745 16.5241 13.7457 16.5586 14.0094Z" fill="rgb(255,240.705,1.16636)" fill-rule="evenodd" />
				<path id="Fill 43" d="M17.2411 13.0583C17.4313 13.096 17.4013 13.0986 17.2373 13.2799C17.408 13.4751 17.5387 13.6124 17.6782 13.768C17.8345 13.9422 17.8581 13.9814 17.7638 14.0409C17.6429 14.1172 17.5129 14.2023 17.4312 14.2599C17.2888 14.3602 17.2772 14.3257 17.21 14.1958C17.1428 14.066 17.0454 13.7841 16.8999 13.5162C16.6828 13.6216 16.6406 13.6723 16.6588 13.5147C16.6792 13.3386 16.7373 13.0604 16.7748 12.9513C16.8885 12.9961 17.0607 13.0224 17.2411 13.0583Z" fill="rgb(255,240.705,1.16636)" fill-rule="evenodd" />
				<path id="Stroke 44" d="M17.241 13.0583C17.4313 13.096 17.4012 13.0986 17.2373 13.2799C17.408 13.4751 17.6559 13.7859 17.7955 13.9415C17.9517 14.1157 17.9754 14.1548 17.881 14.2144C17.7602 14.2906 17.6302 14.3758 17.5485 14.4334C17.406 14.5337 17.3945 14.4992 17.3273 14.3693C17.26 14.2395 17.0454 13.7841 16.8999 13.5162C16.6827 13.6216 16.6406 13.6723 16.6587 13.5147C16.6791 13.3386 16.7373 13.0604 16.7748 12.9513C16.8885 12.9961 17.0607 13.0224 17.241 13.0583Z" fill-rule="evenodd" stroke="rgb(0,0,0)" stroke-opacity="0" stroke-width="0" />
				<path id="Fill 45" d="M16.9018 10.0681L16.7467 9.95548L16.925 9.89554L16.9112 9.69933L17.0685 9.80722L17.2046 9.6734L17.223 9.86936L17.4075 9.8997L17.2728 10.035L17.3653 10.2055L17.1802 10.1802L17.1121 10.3627L17.0149 10.1941L16.8369 10.2513L16.9018 10.0681Z" fill="rgb(255,240.705,1.16636)" fill-rule="evenodd" />
				<path id="Stroke 46" d="M16.7467 9.95548L16.925 9.89554L16.9112 9.69933L17.0685 9.80722L17.2046 9.6734L17.223 9.86936L17.4075 9.8997L17.2728 10.035L17.3653 10.2055L17.1802 10.1802L17.1121 10.3627L17.0149 10.1941L16.8369 10.2513L16.9018 10.0681L16.7467 9.95548Z" fill-rule="evenodd" stroke="rgb(0,0,0)" stroke-opacity="0" stroke-width="0" />
			</g>
			<g id="Group 8">
				<path id="Shape" d="M12.7995 12.2866C13.1333 12.1748 13.5705 12.303 13.8601 12.5949C14.1603 12.5407 14.4801 12.1548 14.5826 11.7673C14.5328 11.1923 14.3481 10.6754 14.0164 10.0408C13.9501 9.91386 13.7348 9.51961 13.7211 9.4941C13.616 9.29745 13.5497 9.15899 13.5043 9.03436C13.4069 8.76724 13.0447 8.54267 12.7443 8.66778C12.7051 8.6841 12.667 8.69711 12.6252 8.70881C12.5983 8.71633 12.5709 8.7231 12.5334 8.73169C12.1433 8.82097 11.9269 8.89774 11.3598 9.19477C11.344 9.20305 11.328 9.21144 11.3119 9.21996C11.1568 9.30211 10.6905 9.56098 10.6428 9.58667C10.4199 9.70678 10.2803 9.77003 10.1808 9.79106C9.84989 9.86097 9.68378 9.858 9.5322 9.73333C9.48245 9.69241 9.42932 9.65544 9.37085 9.62024C9.32473 9.59248 9.27671 9.56657 9.2186 9.53747C9.18918 9.52273 9.09029 9.47468 9.07357 9.46638C8.95764 9.40886 8.88823 9.36633 8.83085 9.31249C8.7988 9.28241 8.63161 9.12173 8.5897 9.08348C8.51066 9.01135 8.45094 8.96533 8.39274 8.9342C8.38026 8.92752 8.36791 8.92158 8.3556 8.91636C8.20629 8.85286 8.05072 8.97287 8.05072 9.17239C8.05072 9.21436 8.0576 9.25985 8.07288 9.30789C8.167 9.60418 8.28684 9.77412 8.56253 10.0655C8.57266 10.0762 8.57266 10.0762 8.58278 10.0869C8.84601 10.3649 8.95576 10.516 9.04575 10.7777C9.18167 11.1734 9.3527 11.2972 9.65219 11.0892C10.1913 10.7148 10.6092 10.5381 11.2785 10.5112C11.8442 10.4882 12.3863 10.2704 12.6426 9.94547C12.6431 10.0129 12.6486 10.0812 12.659 10.162C12.6641 10.2022 12.6661 10.2158 12.6807 10.313C12.7065 10.4851 12.7191 10.6017 12.7191 10.7227C12.7191 10.7664 12.7174 10.8107 12.7142 10.8584C12.705 10.9946 12.7001 11.1312 12.7001 11.2687C12.7001 11.6001 12.7282 11.9363 12.7901 12.2807L12.7995 12.2866ZM12.8045 12.2779C12.804 12.2751 12.8034 12.2722 12.8029 12.2694C12.8003 12.2703 12.7977 12.2711 12.7951 12.272L12.8045 12.2779ZM12.7147 11.2687C12.7147 11.5965 12.7422 11.9289 12.8029 12.2694C13.141 12.1604 13.5791 12.2906 13.8639 12.5819C14.1515 12.5269 14.4674 12.1456 14.5684 11.766C14.5185 11.1962 14.3345 10.681 14.0037 10.0482C13.9374 9.92136 13.7221 9.5272 13.7084 9.50159C13.603 9.30433 13.5364 9.16531 13.4907 9.03982C13.396 8.78 13.0417 8.56036 12.7497 8.68199C12.7099 8.69855 12.6713 8.71173 12.6289 8.72358C12.6018 8.73117 12.5742 8.73799 12.5365 8.74663C12.1476 8.83566 11.9323 8.91202 11.3663 9.20846C11.3505 9.21672 11.3346 9.22511 11.3185 9.23361C11.1635 9.31568 10.6973 9.57451 10.6494 9.60028C10.4253 9.72104 10.285 9.78464 10.1837 9.80605C9.84871 9.87682 9.67936 9.87379 9.52322 9.74537C9.47405 9.70493 9.42149 9.66835 9.3636 9.6335C9.31785 9.60596 9.27014 9.58022 9.21233 9.55127C9.183 9.53658 9.08414 9.48854 9.06734 9.48021C8.95024 9.4221 8.87984 9.37896 8.82115 9.32389C8.78897 9.29369 8.62189 9.13312 8.58015 9.09502C8.50193 9.02364 8.44306 8.97827 8.38613 8.94782C8.37402 8.94134 8.36205 8.93559 8.35014 8.93054C8.21082 8.87128 8.06524 8.98322 8.06524 9.17219C8.06524 9.2126 8.0719 9.25652 8.08669 9.30305C8.17993 9.59657 8.29863 9.76488 8.57286 10.0547C8.58298 10.0654 8.58298 10.0654 8.59311 10.0761C8.85773 10.3556 8.96854 10.5081 9.05945 10.7725C9.19264 11.1603 9.35464 11.2775 9.64416 11.0765C10.1853 10.7006 10.6056 10.5229 11.2779 10.4959C11.8495 10.4727 12.3966 10.2494 12.6442 9.91909L12.6572 9.92389L12.6572 9.93542C12.6572 10.0054 12.6626 10.0758 12.6734 10.1599C12.6785 10.2 12.6805 10.2136 12.6951 10.3106C12.721 10.4835 12.7337 10.6008 12.7337 10.7226C12.7337 10.7667 12.732 10.8114 12.7287 10.8595C12.7195 10.9953 12.7147 11.1316 12.7147 11.2687ZM9.32013 9.58936C9.16668 9.51112 9.01155 9.69389 8.92459 10.0701L8.93722 10.0769L9.3225 9.60119L9.32013 9.58936ZM9.31141 9.59128L9.30514 9.59902C9.30802 9.60028 9.3109 9.60165 9.31377 9.60311L9.31141 9.59128ZM8.94636 10.042L9.30514 9.59902C9.17029 9.5399 9.03067 9.70291 8.94636 10.042ZM8.94636 10.042L8.92612 10.067L8.93875 10.0738C8.94123 10.063 8.94377 10.0524 8.94636 10.042ZM9.13809 9.49496C8.97882 9.41928 8.86695 9.49896 8.71293 9.84178L8.72402 9.85105L9.13959 9.50793L9.13809 9.49496ZM9.13209 9.50889L9.13059 9.49591L9.12098 9.50384C9.12466 9.50543 9.12836 9.50712 9.13209 9.50889ZM8.73957 9.81876L9.12098 9.50384C8.98106 9.44329 8.87981 9.51567 8.73957 9.81876ZM8.73957 9.81876L8.71501 9.83903L8.7261 9.8483C8.73063 9.83822 8.73512 9.82837 8.73957 9.81876ZM8.86894 9.34437C8.76609 9.2632 8.62734 9.36805 8.55465 9.55964L8.56545 9.56884L8.8686 9.35685L8.86894 9.34437ZM8.86019 9.3566L8.86053 9.34412L8.85159 9.35037C8.85449 9.35229 8.85736 9.35436 8.86019 9.3566ZM8.57753 9.54202L8.85159 9.35037C8.76385 9.29234 8.6467 9.37888 8.57753 9.54202ZM8.57753 9.54202L8.55738 9.55611L8.56818 9.5653C8.57119 9.55738 8.57431 9.54962 8.57753 9.54202Z" fill="rgb(0,0,0)" fill-rule="evenodd" />
				<path id="Shape" d="M13.4451 12.3108C13.4106 12.1082 13.407 11.9866 13.4174 11.7605C13.4184 11.7388 13.4184 11.7388 13.4193 11.7171C13.431 11.4472 13.4104 11.2658 13.3091 10.9438C13.1882 10.5591 13.0955 10.0336 13.0932 9.76703L12.9965 9.78642C12.9935 10.0618 13.0866 10.5891 13.2079 10.9754C13.3086 11.2954 13.329 11.475 13.3174 11.7431C13.3165 11.7647 13.3165 11.7647 13.3155 11.7864C13.3059 11.995 13.3081 12.1057 13.3344 12.2834C13.3607 12.2941 13.4081 12.3092 13.4355 12.3194L13.4451 12.3108ZM13.4404 12.305L13.4308 12.3135C13.4301 12.3092 13.4293 12.305 13.4286 12.3007C13.4328 12.3022 13.4368 12.3036 13.4404 12.305ZM13.3431 12.2747C13.3616 12.2787 13.4004 12.2908 13.4286 12.3007C13.3959 12.1043 13.3926 11.9821 13.4028 11.7598C13.4038 11.7381 13.4038 11.7381 13.4048 11.7164C13.4163 11.4483 13.396 11.2687 13.2953 10.9486C13.1739 10.5625 13.0809 10.0354 13.0879 9.77444L13.0058 9.7937C13.0081 10.06 13.1008 10.5857 13.2218 10.9706C13.3231 11.2925 13.3436 11.4739 13.332 11.7438C13.331 11.7654 13.331 11.7654 13.33 11.7871C13.3205 11.9948 13.3226 12.1046 13.3431 12.2747Z" fill="rgb(0,0,0)" fill-rule="evenodd" />
				<path id="Shape" d="M12.9309 12.2325C12.9309 12.1586 12.9258 12.0865 12.9158 12.0256C12.9489 12.0246 12.9967 12.0263 13.0584 12.0371C13.0795 12.0407 13.1006 12.0451 13.1303 12.0518C13.2235 12.0727 13.2369 12.0753 13.2653 12.0759C13.3042 12.0766 13.3255 12.0629 13.3255 12.031L13.3254 12.0259C13.3249 12.0181 13.3246 12.006 13.3246 11.9907C13.3246 11.9505 13.3262 11.8876 13.3286 11.8179L13.3141 11.8174C13.3135 11.835 13.2934 11.8425 13.2518 11.8398C13.2173 11.8375 13.1778 11.8297 13.1022 11.812C13.098 11.811 13.098 11.811 13.0939 11.81C12.9703 11.781 12.9217 11.7724 12.8943 11.7828C12.8906 11.7634 12.8874 11.7437 12.8846 11.7236C12.8731 11.6426 12.8683 11.5693 12.8683 11.4736C12.8683 11.4155 12.8701 11.3491 12.8731 11.2677C12.8762 11.1878 12.8779 11.1265 12.8779 11.0766C12.8779 10.9881 12.8724 10.9359 12.8586 10.8804C12.8681 10.8807 12.8795 10.8805 12.8929 10.8802L12.8929 10.8802C12.9146 10.8799 12.9415 10.8794 12.9743 10.8806C12.9868 10.881 12.9981 10.8816 13.0184 10.8827C13.0877 10.8864 13.1118 10.8867 13.1366 10.8816C13.165 10.8759 13.1805 10.8619 13.1805 10.8389C13.1805 10.8335 13.1796 10.8276 13.1778 10.8212C13.1699 10.7949 13.1584 10.75 13.1409 10.6777C13.1398 10.6735 13.1398 10.6731 13.1389 10.6695L13.1388 10.6692C13.1375 10.6636 13.1175 10.5811 13.1128 10.5617L13.0986 10.5654C13.0995 10.569 13.0999 10.5723 13.0999 10.5753C13.0999 10.5867 13.0935 10.5929 13.0798 10.5967C13.0649 10.6009 13.0485 10.6013 13.0058 10.6001C12.9965 10.5998 12.9965 10.5998 12.9871 10.5996C12.9413 10.5988 12.9122 10.6019 12.8915 10.6134C12.8535 10.3845 12.8173 10.0707 12.8173 9.9301L12.8173 9.92558L12.65 9.91618C12.6474 9.94298 12.6462 9.96893 12.6462 9.99485C12.6462 10.0484 12.6513 10.1017 12.659 10.162C12.6642 10.2022 12.6662 10.2158 12.6807 10.313C12.7066 10.4851 12.7191 10.6017 12.7191 10.7227C12.7191 10.7664 12.7175 10.8107 12.7142 10.8584C12.705 10.9946 12.7002 11.1312 12.7002 11.2687C12.7002 11.6001 12.7282 11.9363 12.7902 12.2807C12.8299 12.2773 12.8837 12.2639 12.925 12.255L12.9308 12.2476L12.9309 12.2325ZM12.922 12.24C12.9201 12.2404 12.9182 12.2408 12.9163 12.2413L12.9162 12.2474L12.922 12.24ZM12.7953 12.272C12.8248 12.2629 12.8755 12.2502 12.9163 12.2413L12.9163 12.232C12.9163 12.1591 12.9116 12.0875 12.9069 12.0195C12.9478 12.0092 12.9973 12.0109 13.0608 12.022C13.0821 12.0257 13.1034 12.0301 13.1333 12.0368C13.225 12.0574 13.2386 12.06 13.2656 12.0606C13.2972 12.0612 13.311 12.0527 13.311 12.0308L13.3108 12.027C13.3103 12.0188 13.3101 12.0063 13.3101 11.9905C13.3101 11.9556 13.3113 11.9043 13.3131 11.8461C13.3 11.8543 13.279 11.8569 13.2509 11.855C13.2154 11.8526 13.1754 11.8448 13.099 11.8269C13.0949 11.8259 13.0949 11.8259 13.0907 11.8249C12.9601 11.7942 12.9133 11.7871 12.8929 11.8004L12.8819 11.7955C12.8774 11.7727 12.8735 11.7495 12.8701 11.7258C12.8586 11.644 12.8538 11.5701 12.8538 11.4737C12.8538 11.4153 12.8555 11.3487 12.8586 11.2671C12.8618 11.1811 12.8636 11.1167 12.8636 11.0646C12.8636 10.9835 12.8593 10.9322 12.8496 10.875C12.8816 10.8658 12.9205 10.8634 12.9747 10.8653C12.9874 10.8657 12.9988 10.8663 13.0191 10.8674C13.087 10.8711 13.1108 10.8713 13.1339 10.8666C13.1557 10.8622 13.1659 10.8539 13.1659 10.8387C13.1659 10.8348 13.1652 10.8305 13.1639 10.8256C13.1559 10.7992 13.1444 10.7541 13.1268 10.6815C13.1257 10.6772 13.1257 10.6769 13.1248 10.6733L13.1066 10.5982C13.1014 10.6043 13.0936 10.6087 13.0835 10.6115C13.0666 10.6162 13.0498 10.6167 13.0054 10.6154C12.9961 10.6151 12.9961 10.6151 12.9868 10.6149C12.9368 10.614 12.9082 10.6181 12.8906 10.6321L12.8791 10.6273C12.8434 10.4155 12.8089 10.1263 12.8089 9.97461C12.8089 9.95933 12.8092 9.94545 12.81 9.93318L12.6572 9.92389L12.6572 9.93542C12.6572 10.0054 12.6626 10.0758 12.6734 10.1599C12.6786 10.2 12.6806 10.2136 12.6951 10.3106C12.7211 10.4835 12.7337 10.6008 12.7337 10.7226C12.7337 10.7667 12.732 10.8114 12.7288 10.8595C12.7193 10.9987 12.7145 11.1385 12.7145 11.2789C12.7145 11.6057 12.7406 11.9362 12.7953 12.272ZM13.1066 10.5982C13.1118 10.5921 13.1144 10.5845 13.1144 10.5753C13.1144 10.5711 13.1139 10.5666 13.1128 10.5618L13.0987 10.5655C13.1002 10.5716 13.1032 10.5839 13.1066 10.5982ZM13.3131 11.8461C13.3229 11.84 13.3282 11.8307 13.3286 11.8179L13.3141 11.8174C13.3138 11.8271 13.3134 11.8367 13.3131 11.8461ZM11.7187 9.01062C11.6759 9.02989 11.6557 9.07486 11.6557 9.14254C11.6557 9.20391 11.6723 9.28396 11.7037 9.38044C11.7564 9.54266 11.8498 9.74646 11.9622 9.95463L11.9755 9.94881L11.7285 9.0156L11.7187 9.01062ZM11.7145 9.01969L11.7169 9.02856C11.7193 9.02715 11.7218 9.02585 11.7244 9.02467L11.7145 9.01969ZM11.9452 9.8915L11.7169 9.02856C11.6856 9.04695 11.6704 9.08579 11.6704 9.14303C11.6704 9.20184 11.6864 9.28007 11.7174 9.3755C11.7651 9.52223 11.8466 9.70365 11.9452 9.8915ZM11.9452 9.8915L11.9615 9.9529L11.9749 9.94709C11.9648 9.92851 11.955 9.90998 11.9452 9.8915ZM11.9664 10.0544C11.8979 10.0903 11.8294 10.1217 11.761 10.1485L11.7658 10.165L11.9719 10.0706L11.9664 10.0544ZM11.9722 10.0705L11.9667 10.0543L11.7606 10.1486L11.7655 10.1651C11.8344 10.1382 11.9033 10.1065 11.9722 10.0705ZM10.7358 10.3291C10.6832 10.3435 10.632 10.3594 10.5818 10.3767L10.5857 10.3936L10.7392 10.3461L10.7358 10.3291ZM10.739 10.3461L10.7356 10.3291L10.582 10.3766L10.5859 10.3935C10.6358 10.3763 10.6867 10.3605 10.739 10.3461Z" fill="rgb(0,0,0)" fill-rule="evenodd" />
				<path id="Shape" d="M12.5132 9.50368C12.2878 9.84541 11.7404 10.1086 11.183 10.167C10.6457 10.2232 10.2336 10.3897 9.84397 10.6593C9.83631 10.6279 9.81522 10.6083 9.76333 10.5704L9.76313 10.5703C9.74999 10.5606 9.7441 10.5563 9.73699 10.5507C9.53926 10.3969 9.44935 10.2045 9.46237 10.0272C9.47313 9.88077 9.55655 9.78245 9.63628 9.81414L9.64149 9.79986C9.61276 9.78817 9.58806 9.77413 9.56297 9.75625C9.54929 9.7465 9.5086 9.7144 9.50749 9.71357C9.42274 9.64762 9.27045 9.88276 9.28809 10.1272C9.20986 10.124 9.12886 10.1521 9.06121 10.2003C9.05951 10.1898 9.04821 10.1781 9.0363 10.166C9.00572 10.1348 8.90264 10.0326 8.88828 10.0181C8.74663 9.87535 8.66661 9.77533 8.60694 9.65197C8.52912 9.49087 8.51999 9.3458 8.57217 9.27253C8.61642 9.2104 8.69643 9.21416 8.78472 9.28927C8.80131 9.30509 8.81429 9.31745 8.82115 9.32388L8.83115 9.31278C8.81898 9.30001 8.80683 9.28848 8.79477 9.27819C8.73359 9.21982 8.62273 9.11362 8.5897 9.08348C8.51066 9.01134 8.45094 8.96532 8.39274 8.93419C8.38026 8.92752 8.36791 8.92158 8.3556 8.91636C8.17487 8.83949 7.98499 9.03148 8.07288 9.30788C8.167 9.60417 8.28684 9.77411 8.56253 10.0655C8.57266 10.0762 8.57266 10.0762 8.58278 10.0868C8.84601 10.3649 8.95576 10.516 9.04575 10.7777C9.10833 10.9599 9.17529 11.0797 9.26148 11.1426C9.36582 11.2188 9.49392 11.2051 9.65234 11.0891C9.6705 11.0758 9.68311 11.0667 9.7044 11.0515L9.70504 11.051C9.71939 11.0407 9.73069 11.0324 9.74594 11.0211C9.85988 10.952 10.005 11.0842 9.98915 11.2912L10.0031 11.2947C10.0586 11.1555 10.0598 11.0733 10.018 10.9832C10.011 10.9682 10.0029 10.9528 9.99179 10.933C9.98703 10.9245 9.96649 10.8888 9.96108 10.8792C9.94132 10.882 9.93448 10.8782 9.92722 10.8631C9.92076 10.8497 9.91617 10.8324 9.90884 10.7976C9.90792 10.7931 9.90792 10.7931 9.90699 10.7887C9.89845 10.7481 9.89277 10.7273 9.88425 10.7157C10.1055 10.5721 10.3294 10.4633 10.5859 10.3853C10.5914 10.5234 10.6304 10.6004 10.7152 10.5855C10.767 10.5735 10.8166 10.5633 10.867 10.5545L10.8646 10.5394C10.7932 10.5519 10.7591 10.4785 10.7446 10.3357C10.8816 10.3096 11.0323 10.2852 11.1919 10.2715C11.3849 10.2549 11.582 10.2137 11.7655 10.1511C11.8035 10.3189 11.8607 10.4173 11.9446 10.3878C12.0318 10.3585 12.1107 10.3271 12.1826 10.2927C12.1843 10.2919 12.1859 10.2911 12.1876 10.2903L12.1877 10.2902L12.1816 10.2764L12.1815 10.2764C12.18 10.2772 12.1784 10.2779 12.1769 10.2786C12.1011 10.3137 12.0495 10.264 12.0057 10.1477C12.0004 10.1336 11.9953 10.1187 11.9896 10.1013L11.9762 10.059C12.2242 9.95334 12.4248 9.80076 12.5439 9.62699L12.5264 9.50673L12.5132 9.50368ZM12.1198 10.3047C12.139 10.3071 12.1598 10.3032 12.1826 10.2927C12.1843 10.2919 12.186 10.2911 12.1876 10.2903L12.1815 10.2764C12.1799 10.2772 12.1784 10.2779 12.1769 10.2786C12.1584 10.2875 12.1394 10.2962 12.1198 10.3047ZM12.515 9.52747L12.5308 9.62382C12.4146 9.78934 12.2162 9.94033 11.9664 10.0544C11.9618 10.062 11.9725 10.0959 11.9758 10.1062C11.9816 10.1238 11.9868 10.1389 11.9922 10.1534C12.0263 10.244 12.0667 10.2981 12.1198 10.3047C12.0642 10.3289 12.0044 10.3516 11.9401 10.3733C11.869 10.3983 11.8149 10.3052 11.7702 10.1418C11.5786 10.1988 11.3825 10.2397 11.1907 10.2563C11.0304 10.27 10.8791 10.2945 10.7357 10.3291C10.7431 10.4501 10.7665 10.5257 10.814 10.5487C10.7804 10.5553 10.7468 10.5625 10.7124 10.5705C10.6402 10.5832 10.605 10.5137 10.5911 10.3772C10.3209 10.45 10.0936 10.5611 9.8686 10.7079L9.86841 10.7208C9.87693 10.7267 9.88311 10.7461 9.89277 10.792C9.89369 10.7964 9.89369 10.7964 9.89462 10.8009C9.90224 10.837 9.907 10.855 9.91422 10.87C9.92476 10.8919 9.93972 10.9002 9.95824 10.8898C9.95417 10.8964 9.97287 10.9295 9.97859 10.9396L9.97925 10.9408C9.99021 10.9603 9.99815 10.9754 10.0049 10.9899C10.0407 11.0669 10.0434 11.1373 10.0047 11.2486C9.99904 11.0558 9.85536 10.937 9.73809 11.0082C9.72233 11.0199 9.7111 11.0281 9.69681 11.0384L9.69617 11.0389C9.67488 11.0541 9.66222 11.0632 9.64401 11.0766C9.49019 11.1892 9.36859 11.2022 9.26979 11.1301C9.18675 11.0695 9.12108 10.9519 9.05945 10.7725C8.96854 10.5081 8.85773 10.3556 8.59311 10.0761C8.58298 10.0654 8.58298 10.0654 8.57286 10.0547C8.29863 9.76487 8.17993 9.59656 8.08669 9.30304C8.00271 9.03891 8.18103 8.85861 8.35014 8.93053C8.36205 8.93558 8.37402 8.94134 8.38613 8.94781C8.44306 8.97827 8.50193 9.02363 8.58015 9.09502C8.60373 9.11654 8.66735 9.17718 8.72402 9.2313C8.6571 9.19999 8.59792 9.21085 8.56051 9.26338C8.50439 9.34218 8.51389 9.49314 8.59395 9.65889C8.65453 9.78414 8.73546 9.88529 8.87819 10.0291C8.89262 10.0437 8.99567 10.1459 9.02615 10.177C9.03802 10.189 9.04928 10.2007 9.06016 10.212C9.13887 10.1634 9.22296 10.1358 9.29546 10.1365C9.29183 10.175 9.3017 10.211 9.32017 10.257C9.32165 10.2607 9.32698 10.2736 9.33092 10.2833C9.27858 10.2892 9.22179 10.3082 9.17901 10.3362C9.26205 10.4551 9.33185 10.4955 9.4791 10.5236L9.48585 10.511C9.39686 10.4061 9.3109 10.2345 9.30277 10.1282C9.28484 9.89344 9.42848 9.67111 9.49891 9.72592C9.49985 9.72663 9.54077 9.7589 9.55479 9.7689C9.56758 9.77801 9.58029 9.78617 9.59346 9.79356C9.52054 9.8031 9.45723 9.89837 9.44785 10.0261C9.43443 10.2088 9.52668 10.4062 9.72831 10.563C9.73557 10.5687 9.74154 10.5731 9.75481 10.5828L9.755 10.5829C9.8051 10.6196 9.82502 10.6381 9.84162 10.6694C10.2398 10.4037 10.6497 10.2382 11.1844 10.1822C11.7375 10.1243 12.2809 9.86605 12.515 9.52747ZM9.59346 9.79356C9.60703 9.80117 9.62109 9.80796 9.63622 9.81412L9.64143 9.79984C9.62529 9.79342 9.60915 9.79151 9.59346 9.79356ZM12.515 9.52747L12.512 9.50933L12.5252 9.51238C12.5219 9.51743 12.5185 9.52246 12.515 9.52747ZM9.33092 10.2833C9.33262 10.2874 9.33405 10.2909 9.33481 10.2929L9.34097 10.2823C9.33765 10.2826 9.33429 10.2829 9.33092 10.2833ZM10.0047 11.2486C10.0003 11.2615 9.99526 11.2748 9.98969 11.2888L10.0037 11.2924C10.0048 11.2774 10.0051 11.2628 10.0047 11.2486ZM10.814 10.5487C10.8291 10.556 10.8467 10.558 10.867 10.5545L10.8646 10.5394C10.8477 10.5423 10.8308 10.5455 10.814 10.5487ZM8.72402 9.2313C8.74627 9.25255 8.76745 9.27279 8.78472 9.28927C8.79664 9.2994 8.8087 9.31084 8.82085 9.32359L8.83085 9.31248C8.82406 9.30611 8.81121 9.29388 8.79477 9.27819C8.77065 9.25763 8.74689 9.242 8.72402 9.2313ZM9.18846 10.3378C9.22894 10.3212 9.28588 10.3029 9.33747 10.298C9.36984 10.3709 9.41457 10.4458 9.46126 10.5045C9.33119 10.4772 9.26698 10.4374 9.18846 10.3378Z" fill="rgb(0,0,0)" fill-rule="evenodd" />
				<path id="Shape" d="M13.7119 13.2026C13.7119 13.1027 13.723 13.0022 13.7458 12.9047C13.551 12.6589 13.0728 12.561 12.7019 12.6614C12.3482 12.9234 12.0559 13.2572 11.7786 13.683C11.6231 13.922 11.1447 14.7872 11.0375 14.9398C11.0203 14.9642 11.0035 14.9871 10.9869 15.0086C10.9085 15.11 10.8651 15.257 10.8651 15.407C10.8651 15.5856 10.9267 15.7684 11.0645 15.8829C11.0759 15.8924 11.0869 15.9019 11.0976 15.9116C11.1305 15.9414 11.1604 15.9722 11.1956 16.0118C11.2102 16.0282 11.2887 16.1194 11.3149 16.1487C11.3686 16.2088 11.4222 16.2643 11.4863 16.3249C11.6515 16.4809 11.8749 16.6583 12.1914 16.8783C12.3515 16.9895 12.8528 17.3206 12.8555 17.3224L12.8555 17.3224C13.0778 17.4724 13.2038 17.5701 13.2728 17.6523C13.4683 17.8851 13.5545 18.0313 13.5545 18.1988C13.5545 18.2223 13.5528 18.2462 13.5495 18.2708C13.5406 18.3364 13.5365 18.3964 13.5365 18.4633C13.5365 18.5388 13.5417 18.6232 13.5513 18.7348C13.561 18.8479 13.5662 18.922 13.5662 18.9806C13.5662 19.0337 13.562 19.074 13.553 19.1189C13.5487 19.1407 13.4912 19.4142 13.4797 19.4804C13.4661 19.5581 13.4592 19.6209 13.4592 19.676C13.4592 19.7018 13.4607 19.726 13.4638 19.7492C13.491 19.9519 13.7441 20.0285 13.9282 19.8104C14.1294 19.5721 14.2051 19.3855 14.3139 18.9645C14.4137 18.5782 14.4821 18.4051 14.6541 18.191C14.78 18.0343 14.8485 17.9023 14.8485 17.7887C14.8485 17.6692 14.7726 17.57 14.6079 17.4837C14.03 17.1812 13.6748 16.8891 13.3178 16.2941C13.0161 15.7911 12.5654 15.407 12.1692 15.3365C12.2377 15.2943 12.3013 15.2462 12.3866 15.1747C12.4048 15.1594 12.4686 15.1052 12.4716 15.1027L12.4717 15.1026C12.5063 15.0733 12.5331 15.0511 12.5601 15.0294C12.6693 14.9418 12.7693 14.8747 12.8866 14.8148C13.2857 14.6111 13.6637 14.3581 14.0217 14.0348L14.0219 14.0233C13.8245 13.8347 13.7119 13.5219 13.7119 13.2026ZM14.0122 14.0232C14.0102 14.025 14.0081 14.0269 14.006 14.0288C14.008 14.0307 14.0101 14.0327 14.0121 14.0346L14.0122 14.0232ZM12.8802 14.8011C13.2759 14.5991 13.6509 14.3485 14.006 14.0288C13.8098 13.8371 13.6981 13.5246 13.6981 13.2084C13.6981 13.1073 13.7095 13.0058 13.7332 12.9078C13.544 12.6738 13.0715 12.5771 12.7079 12.6751C12.3582 12.9347 12.067 13.2672 11.7907 13.6916C11.6355 13.9299 11.157 14.7955 11.0492 14.9489C11.0319 14.9734 11.015 14.9965 10.9982 15.0183C10.9219 15.1169 10.8797 15.2604 10.8797 15.4068C10.8797 15.5812 10.9396 15.7596 11.0736 15.8709C11.0851 15.8805 11.0962 15.8902 11.1071 15.9C11.1404 15.9302 11.1707 15.9614 11.2063 16.0014C11.221 16.0179 11.2995 16.1091 11.3255 16.1382C11.379 16.198 11.4322 16.2532 11.496 16.3135C11.6607 16.469 11.8835 16.646 12.1994 16.8655C12.3594 16.9767 12.8608 17.3079 12.8634 17.3095C13.0869 17.4603 13.2135 17.5585 13.2837 17.6421C13.4814 17.8775 13.5691 18.0263 13.5691 18.1982C13.5691 18.2226 13.5673 18.2474 13.5639 18.273C13.5551 18.3378 13.5511 18.3971 13.5511 18.4634C13.5511 18.5383 13.5563 18.6223 13.5658 18.7335C13.5756 18.847 13.5808 18.9216 13.5808 18.9808C13.5808 19.0348 13.5764 19.076 13.5673 19.122C13.5629 19.1441 13.5055 19.4172 13.494 19.4831C13.4806 19.56 13.4738 19.622 13.4738 19.676C13.4738 19.7012 13.4753 19.7246 13.4783 19.7471C13.5037 19.9368 13.7414 20.0087 13.9173 19.8003C14.1166 19.5642 14.1916 19.3794 14.2998 18.9605C14.4001 18.5721 14.4692 18.3974 14.643 18.1811C14.7667 18.0271 14.8337 17.8993 14.8337 17.7898C14.8337 17.6751 14.7602 17.5806 14.6014 17.4973C14.0213 17.1937 13.6641 16.9001 13.3055 16.3023C13.0007 15.794 12.5429 15.4082 12.1466 15.3482L12.1441 15.334C12.2188 15.2897 12.2853 15.2399 12.3775 15.1627C12.3956 15.1475 12.4595 15.0933 12.4624 15.0908C12.4972 15.0614 12.5241 15.0391 12.5513 15.0173C12.6612 14.929 12.762 14.8614 12.8802 14.8011ZM13.5367 18.5357C13.549 18.7143 13.7773 18.7639 14.131 18.6549L14.1303 18.64L13.5453 18.5276L13.5367 18.5357ZM13.5427 18.5427L13.5522 18.5445C13.5518 18.5413 13.5515 18.5379 13.5512 18.5346L13.5427 18.5427ZM14.0969 18.6492L13.5522 18.5445C13.5709 18.6966 13.7752 18.742 14.0969 18.6492ZM14.0969 18.6492L14.1276 18.6551L14.1269 18.6402C14.1168 18.6433 14.1068 18.6463 14.0969 18.6492ZM13.5499 18.7484C13.5669 18.9309 13.6888 18.9929 14.0486 18.9615L14.0507 18.9468L13.5598 18.7405L13.5499 18.7484ZM13.5644 18.7469L13.5544 18.7547L13.5658 18.7595C13.5652 18.7554 13.5648 18.7512 13.5644 18.7469ZM14.0163 18.9488L13.5658 18.7595C13.5856 18.9169 13.6961 18.9728 14.0163 18.9488ZM14.0163 18.9488L14.0453 18.961L14.0474 18.9462C14.0368 18.9472 14.0264 18.948 14.0163 18.9488ZM13.5603 19.0684C13.5447 19.2025 13.7007 19.2763 13.8949 19.2464L13.8971 19.232L13.5707 19.0625L13.5603 19.0684ZM13.5747 19.0703L13.5643 19.0762L13.5739 19.0812C13.574 19.0776 13.5743 19.074 13.5747 19.0703ZM13.8689 19.2345L13.5739 19.0812L13.5738 19.0861C13.5738 19.1919 13.7025 19.253 13.8689 19.2345ZM13.8689 19.2345L13.8906 19.2457L13.8928 19.2313C13.8848 19.2326 13.8768 19.2336 13.8689 19.2345Z" fill="rgb(0,0,0)" fill-rule="evenodd" />
				<path id="Shape" d="M13.719 13.4241C13.5642 13.5612 13.4753 13.6182 13.2616 13.7339C13.2451 13.7428 13.2327 13.7495 13.2206 13.7562C13.0099 13.8723 12.8672 13.9867 12.6594 14.2312C12.4026 14.5337 12.0155 14.8808 11.7968 15.0161L11.8612 15.0942C12.0899 14.9592 12.4782 14.6111 12.7361 14.3075C12.9425 14.0644 13.0839 13.9512 13.2929 13.836C13.305 13.8293 13.3174 13.8225 13.3339 13.8136C13.5332 13.7057 13.6137 13.6553 13.7519 13.5384C13.7475 13.5092 13.736 13.4579 13.7308 13.4286L13.719 13.4241ZM13.7165 13.4314L13.7283 13.4358C13.7252 13.4386 13.722 13.4414 13.7189 13.4442C13.718 13.4396 13.7172 13.4353 13.7165 13.4314ZM13.7189 13.4442C13.5688 13.5762 13.4785 13.6337 13.2683 13.7475C13.2518 13.7564 13.2394 13.7631 13.2274 13.7698C13.0181 13.885 12.8768 13.9983 12.6703 14.2414C12.4126 14.545 12.0243 14.8931 11.8055 15.0171L11.8625 15.0821C12.0811 14.9469 12.4683 14.5998 12.7252 14.2973C12.9329 14.0528 13.0756 13.9385 13.2861 13.8224C13.2983 13.8157 13.3107 13.809 13.3273 13.8C13.5257 13.6926 13.6055 13.6426 13.7404 13.5349C13.7343 13.5161 13.7248 13.4744 13.7189 13.4442Z" fill="rgb(0,0,0)" fill-rule="evenodd" />
				<path id="Shape" d="M14.6617 16.1419C14.5962 16.1808 14.5345 16.2243 14.4862 16.2665C14.4646 16.2323 14.4402 16.1803 14.4145 16.1025C14.4076 16.0817 14.3835 16.0031 14.3778 15.986C14.3642 15.9449 14.3527 15.9191 14.3397 15.903C14.323 15.8824 14.3033 15.8787 14.2817 15.8941C14.2587 15.91 14.1829 15.9536 14.1083 15.9949L14.1151 16.0084C14.1302 16.0001 14.1465 16.0149 14.1652 16.0547C14.1806 16.0875 14.1938 16.127 14.2174 16.2061C14.2337 16.2607 14.234 16.2617 14.24 16.2807C14.2618 16.3501 14.2786 16.3901 14.2968 16.4073C14.2275 16.471 14.1485 16.5282 14.0525 16.5868C13.9886 16.6258 13.7784 16.742 13.7479 16.7601C13.6675 16.8077 13.6117 16.8481 13.5702 16.8912C13.5562 16.866 13.5345 16.8302 13.5062 16.7732C13.5027 16.7663 13.4778 16.715 13.4707 16.7012C13.4575 16.6753 13.4469 16.6571 13.4366 16.6433C13.4116 16.6101 13.3864 16.6036 13.3617 16.6305C13.3435 16.6515 13.3112 16.6853 13.257 16.7408L13.2561 16.7417L13.1802 16.8193L13.1903 16.8303C13.2081 16.8126 13.2228 16.8213 13.2449 16.8592C13.2488 16.8658 13.2529 16.8733 13.2579 16.883C13.2604 16.8878 13.2646 16.8958 13.2714 16.9091C13.2955 16.9553 13.3128 16.9811 13.3334 16.9946C13.1624 17.1448 12.9179 17.3375 12.8032 17.406L12.8791 17.5629C12.9645 17.5209 13.0316 17.4708 13.1243 17.3931L13.2094 17.3211C13.244 17.2918 13.2708 17.2696 13.2978 17.2479C13.4071 17.1602 13.5071 17.0931 13.6243 17.0333C14.0234 16.8296 14.4015 16.5765 14.7595 16.2532C14.7366 16.2186 14.6981 16.1758 14.6707 16.1435L14.6617 16.1419ZM14.6598 16.1537C14.6611 16.1552 14.6624 16.1567 14.6637 16.1583C14.6654 16.1573 14.6671 16.1563 14.6688 16.1552L14.6598 16.1537ZM14.7497 16.253C14.7273 16.2304 14.691 16.1902 14.6637 16.1583C14.6008 16.1959 14.5415 16.2378 14.4856 16.2776C14.4523 16.2408 14.427 16.1873 14.4007 16.1076C14.3938 16.0865 14.3697 16.0079 14.3641 15.9911C14.351 15.9517 14.3401 15.9271 14.3286 15.9129C14.3166 15.8981 14.3051 15.8959 14.2898 15.9068C14.2687 15.9214 14.206 15.9578 14.1393 15.995C14.1528 16.0028 14.1656 16.021 14.1783 16.0479C14.1941 16.0817 14.2074 16.1216 14.2313 16.2016C14.2475 16.256 14.2479 16.2571 14.2538 16.2759C14.2773 16.3507 14.2953 16.3906 14.3118 16.4L14.3132 16.4124C14.2415 16.4795 14.1597 16.5391 14.0598 16.6C13.9956 16.6392 13.7853 16.7555 13.7551 16.7734C13.6757 16.8204 13.6208 16.8601 13.5702 16.902C13.5446 16.8754 13.5222 16.8386 13.4933 16.7803C13.4898 16.7733 13.4648 16.722 13.4579 16.7084C13.4451 16.6833 13.4349 16.6657 13.4251 16.6528C13.405 16.626 13.3897 16.622 13.3723 16.641C13.354 16.6621 13.3216 16.696 13.2671 16.7517C13.2659 16.753 13.2659 16.753 13.2646 16.7543C13.2657 16.7532 13.2662 16.7527 13.2662 16.7526L13.2138 16.8063C13.2282 16.8099 13.2423 16.8255 13.2573 16.8512C13.2614 16.8581 13.2655 16.8658 13.2707 16.8756C13.2732 16.8804 13.2774 16.8886 13.2842 16.9017C13.3104 16.9521 13.3281 16.9767 13.3492 16.9861L13.3511 16.999C13.1792 17.1507 12.9279 17.3491 12.8131 17.4089L12.8818 17.5525C12.9566 17.5081 13.0231 17.4584 13.1152 17.3812C13.1338 17.3656 13.2003 17.3092 13.2003 17.3092L13.2002 17.3092C13.2349 17.2798 13.2618 17.2575 13.289 17.2357C13.3989 17.1475 13.4997 17.0798 13.6179 17.0195C14.016 16.8164 14.393 16.564 14.7497 16.253ZM13.2138 16.8063C13.2029 16.8036 13.1919 16.8076 13.1803 16.8192L13.1904 16.8302C13.1946 16.8259 13.2035 16.8168 13.2138 16.8063ZM14.1393 15.995C14.1294 15.9892 14.1191 15.9889 14.1083 15.9949L14.1151 16.0084C14.1232 16.004 14.1313 15.9995 14.1393 15.995ZM12.5978 18.8625C12.669 18.9183 12.7761 18.8526 12.9104 18.6912C13.0179 18.5622 13.1393 18.3753 13.2547 18.1692L13.2432 18.16L12.597 18.851L12.5978 18.8625ZM12.6074 18.8617L12.6135 18.8551C12.6111 18.8536 12.6088 18.852 12.6065 18.8502L12.6074 18.8617ZM13.2111 18.2161L12.6135 18.8551C12.676 18.8942 12.7748 18.831 12.8995 18.6812C12.9967 18.5644 13.1056 18.3997 13.2111 18.2161ZM13.2111 18.2161L13.2536 18.1707L13.2422 18.1615C13.2319 18.1799 13.2215 18.1981 13.2111 18.2161ZM13.335 18.1153C13.395 18.1618 13.4519 18.2104 13.5055 18.2611L13.5149 18.2494L13.3439 18.1033L13.335 18.1153ZM13.3436 18.103L13.3347 18.1151L13.5057 18.2613L13.5152 18.2497C13.4613 18.1987 13.404 18.1498 13.3436 18.103ZM14.1768 19.0979C14.2186 19.1442 14.259 19.1868 14.2989 19.2265L14.3101 19.2147L14.1883 19.0865L14.1768 19.0979ZM14.1885 19.0866L14.1769 19.0981L14.299 19.2266L14.3102 19.2148C14.2705 19.1753 14.2302 19.1328 14.1885 19.0866Z" fill="rgb(0,0,0)" fill-rule="evenodd" />
				<path id="Shape" d="M11.8748 15.6733L11.8708 15.6598C11.8766 15.6603 11.8825 15.6609 11.8884 15.6615L11.8748 15.6733ZM12.7257 15.6312C12.7379 15.6606 12.7357 15.6943 12.721 15.7316C12.7077 15.7654 12.685 15.8005 12.6525 15.8413C12.6404 15.8565 12.6284 15.8708 12.5973 15.8969C12.3779 15.7267 12.1543 15.6218 11.9599 15.5992L11.8884 15.6615C12.2847 15.7051 12.7693 16.07 13.0936 16.5441C13.4071 17.0022 13.7485 17.292 14.1669 17.5214C14.1493 17.5523 14.144 17.5797 14.1389 17.6438L14.1388 17.6455C14.1376 17.6607 14.1369 17.6687 14.1359 17.6777C14.1073 17.9394 13.9906 18.122 13.8332 18.2012C13.7233 18.2564 13.6132 18.2466 13.5687 18.1852C13.5682 18.1693 13.5667 18.1534 13.5641 18.1359C13.5779 18.2241 13.7007 18.2508 13.8269 18.1874C13.9797 18.1106 14.0934 17.9326 14.1214 17.676C14.1224 17.6671 14.1231 17.6593 14.1243 17.6442L14.1244 17.6426C14.1297 17.5761 14.1353 17.5471 14.1574 17.5243C13.7399 17.3046 13.3967 17.0133 13.0818 16.553C12.7549 16.0752 12.2642 15.7091 11.8696 15.675L11.8655 15.6615L11.956 15.5857C12.1586 15.6069 12.3846 15.7129 12.5962 15.8857C12.6175 15.8606 12.6294 15.8465 12.6413 15.8315C12.673 15.7918 12.6949 15.7578 12.7076 15.7257C12.7291 15.6711 12.7212 15.6273 12.6765 15.5931C12.6928 15.6053 12.7092 15.618 12.7257 15.6312ZM13.5811 16.6976C13.586 16.7523 13.5353 16.8113 13.4391 16.8786C13.3391 16.7658 13.2433 16.6404 13.1516 16.5014C13.0421 16.3352 12.9103 16.1775 12.7674 16.0317C12.8799 15.9091 12.9295 15.8136 12.8734 15.7614C12.823 15.7133 12.7739 15.6699 12.7257 15.6312C12.718 15.6126 12.7046 15.5957 12.685 15.5807C12.7495 15.6288 12.8151 15.6851 12.8831 15.75C12.9494 15.8117 12.8969 15.9126 12.7775 16.0313C12.9209 16.1669 13.0535 16.3256 13.1636 16.4927C13.2549 16.6311 13.3503 16.756 13.4401 16.8672C13.5509 16.7825 13.5942 16.715 13.5481 16.6563C13.5591 16.6703 13.5701 16.684 13.5811 16.6976ZM13.5593 16.6465C13.5724 16.6632 13.5796 16.6802 13.5811 16.6976C13.6037 16.7253 13.6265 16.7524 13.6499 16.7791C13.6966 16.8384 13.6567 16.9054 13.5511 16.986C13.7464 17.1955 13.9516 17.3466 14.1851 17.4777L14.1958 17.4715C14.1965 17.4601 14.2088 17.4459 14.2479 17.4083C14.2513 17.4051 14.2513 17.4051 14.2546 17.4019C14.2773 17.3799 14.2899 17.3659 14.2977 17.3524C14.3087 17.3333 14.3074 17.3165 14.2909 17.3055C14.2964 17.3077 14.3168 17.2702 14.3258 17.2537C14.3267 17.2519 14.3275 17.2504 14.3282 17.2492C14.3829 17.1498 14.4363 17.1064 14.5633 17.0834C14.4069 17.185 14.3808 17.3751 14.4982 17.4462C14.5152 17.4545 14.5271 17.4603 14.5434 17.4685L14.5439 17.4688C14.5771 17.4854 14.5805 17.4872 14.6016 17.4975C14.7714 17.5811 14.8429 17.6852 14.8328 17.8111C14.8243 17.9169 14.7602 18.0353 14.643 18.1811C14.4692 18.3975 14.4002 18.5722 14.2998 18.9606C14.1917 19.3794 14.1166 19.5642 13.9173 19.8003C13.7414 20.0088 13.5037 19.9368 13.4783 19.7471C13.4689 19.6765 13.4744 19.5959 13.4941 19.4831C13.5005 19.446 13.5216 19.3431 13.5395 19.2564C13.5471 19.3331 13.5856 19.3816 13.6477 19.3893C13.7408 19.4009 13.8606 19.3168 13.9572 19.1611C14.0378 19.0312 14.0773 18.909 14.1353 18.6531C14.1642 18.5258 14.1672 18.5127 14.1804 18.4607C14.1009 18.4134 14.0361 18.3508 14.0004 18.2846C14.0163 18.2815 14.0323 18.2673 14.0471 18.2516C14.0592 18.2388 14.0701 18.2254 14.0819 18.2094C14.0862 18.2037 14.0968 18.1887 14.1038 18.179C14.135 18.2237 14.179 18.2658 14.2234 18.2906C14.2798 18.1556 14.2783 18.0719 14.228 17.9241L14.2142 17.9242C14.172 18.0578 14.0735 18.2215 13.9899 18.282C13.8053 18.4157 13.5501 18.3963 13.5601 18.3049C13.5609 18.2968 13.5617 18.2894 13.5636 18.273C13.5676 18.2382 13.5695 18.2116 13.5687 18.1852C13.5591 18.1719 13.5526 18.1562 13.5498 18.1383L13.5641 18.1359L13.5641 18.1358L13.5498 18.1382L13.5498 18.1383C13.5564 18.1832 13.5555 18.2166 13.5492 18.2712C13.5472 18.2875 13.5464 18.2951 13.5456 18.3032C13.5336 18.4133 13.8037 18.4341 13.9965 18.2959C14.0328 18.3686 14.0965 18.4282 14.1702 18.4656C14.1531 18.509 14.1501 18.5221 14.1212 18.6495C14.0635 18.9038 14.0244 19.0248 13.945 19.1528C13.8511 19.3041 13.736 19.3849 13.6495 19.3741C13.5757 19.3649 13.5388 19.2896 13.5572 19.1709C13.5626 19.1452 13.5663 19.1271 13.5673 19.1221L13.5532 19.1185C13.5489 19.1354 13.5455 19.1516 13.5431 19.1672C13.525 19.2541 13.4887 19.4292 13.4797 19.4804C13.4598 19.5946 13.4542 19.6767 13.4639 19.7492C13.491 19.952 13.7442 20.0286 13.9282 19.8105C14.1294 19.5721 14.2052 19.3855 14.3139 18.9646C14.4137 18.5782 14.4821 18.4052 14.6542 18.191C14.7731 18.0429 14.8385 17.9221 14.8473 17.8123C14.8579 17.6794 14.7826 17.5697 14.6078 17.4836C14.5868 17.4733 14.5833 17.4716 14.5502 17.455L14.5497 17.4547C14.5333 17.4465 14.5214 17.4406 14.5049 17.4326C14.3908 17.3636 14.4274 17.1656 14.6059 17.0764L14.6019 17.0619C14.4406 17.0837 14.3781 17.1281 14.3156 17.2416C14.3084 17.2546 14.283 17.3029 14.2803 17.308C14.292 17.3242 14.2926 17.3316 14.2852 17.3445C14.2784 17.3564 14.2664 17.3697 14.2447 17.3907C14.2414 17.3939 14.2414 17.3939 14.2381 17.3971C14.2034 17.4304 14.1887 17.4458 14.1836 17.4595C13.9546 17.3301 13.7531 17.181 13.5605 16.9867C13.6716 16.913 13.7157 16.8387 13.6609 16.7691C13.6259 16.7291 13.5925 16.6888 13.5593 16.6465ZM13.5431 19.1672C13.538 19.2 13.5369 19.2299 13.5395 19.2564C13.5461 19.2243 13.5524 19.1944 13.5572 19.1709C13.5596 19.1555 13.563 19.1393 13.5672 19.1225L13.5531 19.1189C13.5521 19.1239 13.5484 19.1418 13.5431 19.1672ZM14.1038 18.179C14.1018 18.1761 14.0998 18.1732 14.0979 18.1704L14.1097 18.1707C14.1088 18.1719 14.1066 18.175 14.1038 18.179ZM14.5633 17.0834C14.576 17.0811 14.5895 17.079 14.6037 17.0771L14.5997 17.0626C14.5868 17.069 14.5747 17.076 14.5633 17.0834ZM13.5593 16.6465L13.5481 16.6563L13.5481 16.6563L13.5593 16.6465L13.5593 16.6465ZM12.685 15.5807C12.6837 15.5797 12.6824 15.5788 12.6812 15.5779L12.6729 15.5904C12.6741 15.5913 12.6753 15.5922 12.6765 15.5931C12.6752 15.5922 12.674 15.5913 12.6728 15.5904L12.6811 15.5778C12.6824 15.5788 12.6837 15.5797 12.685 15.5807ZM14.22 18.2812C14.1862 18.2527 14.1427 18.2102 14.1126 18.1656C14.1565 18.0998 14.1959 18.0217 14.2211 17.9498C14.2635 18.0816 14.2628 18.16 14.22 18.2812ZM14.2909 17.3055L14.2905 17.3052L14.2909 17.3055Z" fill="rgb(0,0,0)" fill-rule="evenodd" />
				<path id="Shape" d="M14.6239 16.8735L14.5089 16.7275L14.4962 16.7306L14.4543 16.921L14.2735 16.9192L14.268 16.9316L14.3845 17.0848L14.2709 17.2309L14.2767 17.2432L14.4637 17.2445L14.5008 17.4287L14.5135 17.4317L14.6309 17.279L14.7931 17.3624L14.8032 17.3537L14.7608 17.1631L14.9246 17.0827L14.9245 17.069L14.7558 16.9832L14.7995 16.7998L14.7893 16.7913L14.6239 16.8735ZM14.625 16.8898L14.7821 16.8117L14.7455 16.9885L14.9054 17.0757L14.7504 17.1581L14.7861 17.3423L14.6282 17.2673L14.5116 17.4106L14.4708 17.235L14.2911 17.2285L14.396 17.0846L14.2881 16.9342L14.4615 16.9303L14.5068 16.7487L14.6163 16.8878L14.625 16.8898ZM14.5068 16.7487L14.4977 16.7372L14.5104 16.7341L14.5068 16.7487ZM14.2881 16.9342L14.2738 16.9345L14.2794 16.9221L14.2881 16.9342ZM14.2911 17.2285L14.2825 17.2402L14.2768 17.2279L14.2911 17.2285ZM14.5116 17.4106L14.5149 17.4251L14.5022 17.4221L14.5116 17.4106ZM14.7861 17.3423L14.7991 17.3485L14.789 17.3572L14.7861 17.3423ZM14.9054 17.0757L14.9181 17.069L14.9182 17.0827L14.9054 17.0757ZM14.7821 16.8117L14.7853 16.7965L14.7955 16.8051L14.7821 16.8117Z" fill="rgb(0,0,0)" fill-rule="evenodd" />
				<path id="Shape" d="M14.8432 12.0435C14.7686 12.4028 14.4441 12.7363 14.0586 12.8538C14.0361 12.9177 14.0256 12.9899 14.0256 13.0668C14.0256 13.3509 14.1687 13.6985 14.3799 13.9246C14.5246 13.9952 14.6727 14.0525 14.827 14.0993C15.3018 14.2432 15.6902 14.2745 16.4614 14.2764C16.8558 14.2774 17.0096 14.283 17.1734 14.3104C17.4425 14.3554 17.8087 14.1384 17.8557 13.8027C17.8632 13.7492 17.8738 13.7002 17.8894 13.644C17.8987 13.6107 17.938 13.4819 17.9381 13.4819C17.9598 13.4093 17.9769 13.3457 17.9935 13.2723C18.0478 13.0327 18.0875 12.7237 18.1133 12.2803C18.1232 12.1095 18.1259 12.0419 18.1388 11.6775C18.1549 11.2233 18.1698 11.0383 18.211 10.9101C18.3188 10.5743 18.4043 10.4246 18.5829 10.3492C18.6871 10.3051 18.7805 10.2488 18.8964 10.1654C18.925 10.1449 19.0202 10.0745 19.0375 10.062C19.0903 10.0237 19.1309 9.9964 19.1703 9.97362C19.2091 9.95122 19.2453 9.93411 19.2808 9.92185C19.3181 9.90895 19.5414 9.83483 19.5958 9.81503C19.7117 9.77282 19.7867 9.73558 19.845 9.68784C19.8998 9.64295 19.927 9.57992 19.927 9.51475C19.927 9.39714 19.8384 9.27256 19.6635 9.23505C19.3681 9.17165 19.1733 9.19599 18.7798 9.30535C18.7663 9.3091 18.7663 9.3091 18.7528 9.31283C18.4058 9.40908 18.2221 9.43302 17.9647 9.38462C17.5907 9.31436 17.4028 9.39468 17.4028 9.72366C17.4028 9.7418 17.4033 9.7607 17.4045 9.78038C17.4112 9.89613 17.4149 10.0058 17.4149 10.1112C17.4149 10.6222 17.3272 11.0324 17.0683 11.5481C16.8874 11.9084 16.7875 12.3043 16.7875 12.6451C16.7875 12.8018 16.8086 12.9468 16.8526 13.0714C16.7764 13.0258 16.7015 12.9914 16.5742 12.9399C16.307 12.8316 16.2161 12.7882 16.0638 12.68C15.6967 12.4192 15.2986 12.2019 14.8527 12.0379L14.8432 12.0435ZM14.8479 12.0523C14.8504 12.0533 14.853 12.0542 14.8556 12.0552C14.8562 12.0524 14.8568 12.0496 14.8574 12.0467L14.8479 12.0523ZM16.0556 12.6927C15.6917 12.4341 15.2972 12.2184 14.8556 12.0552C14.7766 12.417 14.4501 12.7504 14.0675 12.8637C14.0472 12.9231 14.0378 12.9904 14.0378 13.0623C14.0378 13.3406 14.1794 13.6883 14.3881 13.9123C14.53 13.981 14.6775 14.038 14.831 14.0846C15.3041 14.228 15.6916 14.2592 16.4614 14.2611C16.8566 14.2621 17.0109 14.2677 17.1757 14.2953C17.4374 14.3391 17.7956 14.1269 17.8413 13.8005C17.8489 13.7463 17.8597 13.6966 17.8754 13.6397C17.8847 13.6062 17.9241 13.4773 17.9242 13.4773L17.9239 13.4782C17.9457 13.4056 17.9627 13.3421 17.9793 13.2687C18.0334 13.0301 18.073 12.722 18.0987 12.2794C18.1086 12.1088 18.1113 12.0412 18.1242 11.677C18.1404 11.2208 18.1554 11.0354 18.1972 10.9052C18.3063 10.5653 18.3935 10.4127 18.5774 10.335C18.6806 10.2914 18.7731 10.2356 18.8882 10.1528C18.9166 10.1324 19.0118 10.0619 19.0292 10.0494C19.0824 10.0108 19.1234 9.98329 19.1633 9.96023C19.2028 9.9374 19.2398 9.9199 19.2762 9.90733C19.3138 9.89436 19.5369 9.8203 19.591 9.80059C19.7055 9.75888 19.7793 9.72226 19.836 9.67578C19.8871 9.63402 19.9125 9.57534 19.9125 9.51451C19.9125 9.4038 19.8282 9.28598 19.6606 9.25003C19.368 9.18722 19.175 9.21133 18.7835 9.32013C18.77 9.32388 18.77 9.32388 18.7566 9.32761C18.4076 9.42438 18.2221 9.44856 17.9621 9.39967C17.596 9.33089 17.4173 9.40665 17.4173 9.72376C17.4173 9.74155 17.4179 9.76011 17.419 9.77945C17.4258 9.89553 17.4295 10.0055 17.4295 10.1113C17.4295 10.6245 17.3413 11.0371 17.0811 11.5552C16.9012 11.9135 16.802 12.3071 16.802 12.6452C16.802 12.8085 16.8252 12.9589 16.8736 13.0861L16.8631 13.0955C16.7813 13.0448 16.7055 13.0094 16.5689 12.9541C16.3007 12.8455 16.2091 12.8017 16.0556 12.6927ZM18.8077 10.2283C18.9489 10.1279 18.8757 9.89543 18.6088 9.62832L18.597 9.63643L18.7968 10.2246L18.8077 10.2283ZM18.8105 10.2194L18.8072 10.2099C18.8048 10.2118 18.8022 10.2138 18.7995 10.2157L18.8105 10.2194ZM18.6212 9.66218L18.8072 10.2099C18.8448 10.1797 18.8634 10.1376 18.8634 10.0859C18.8634 9.97796 18.7819 9.82869 18.6212 9.66218ZM18.6212 9.66218L18.6107 9.63129L18.5988 9.63939C18.6064 9.64702 18.6139 9.65462 18.6212 9.66218ZM18.9766 10.11C19.1185 10.0032 19.1087 9.86142 18.903 9.54999L18.8899 9.55544L18.9651 10.1049L18.9766 10.11ZM18.9681 10.0976L18.9795 10.1027L18.9778 10.09C18.9746 10.0926 18.9714 10.0951 18.9681 10.0976ZM18.9087 9.58574L18.9778 10.09C19.0298 10.048 19.0575 9.99999 19.0575 9.93629C19.0575 9.85328 19.0104 9.74362 18.9087 9.58574ZM18.9087 9.58574L18.9043 9.55326L18.8911 9.5587C18.8971 9.56787 18.903 9.57688 18.9087 9.58574ZM19.2402 9.94058C19.3756 9.88755 19.356 9.70893 19.2168 9.54716L19.2019 9.55239L19.2286 9.93404L19.2402 9.94058ZM19.2334 9.92652L19.245 9.93306L19.2442 9.9218C19.2407 9.92349 19.2371 9.92506 19.2334 9.92652ZM19.2201 9.57676L19.2442 9.9218C19.2921 9.89861 19.315 9.85484 19.315 9.8004C19.315 9.73544 19.2823 9.6553 19.2201 9.57676ZM19.2201 9.57676L19.2183 9.55141L19.2035 9.55664C19.2092 9.56333 19.2148 9.57004 19.2201 9.57676Z" fill="rgb(0,0,0)" fill-rule="evenodd" />
				<path id="Shape" d="M14.5004 12.6185C14.5387 12.633 14.5751 12.6479 14.6097 12.6632C14.7482 12.7243 14.8087 12.7611 14.9935 12.8855C15.2186 13.0371 15.3749 13.1084 15.6959 13.1784C16.0738 13.2607 16.5536 13.4392 16.7746 13.5704L16.8068 13.4727C16.5814 13.3324 16.1 13.1534 15.7205 13.0706C15.4014 13.001 15.2468 12.9305 15.0231 12.7798C14.8366 12.6542 14.7749 12.6169 14.634 12.5549C14.6159 12.547 14.5973 12.5391 14.5783 12.5314C14.5565 12.55 14.5203 12.5856 14.4981 12.6055L14.5004 12.6185ZM14.5076 12.6171L14.5053 12.6041C14.5092 12.6056 14.5131 12.6071 14.5169 12.6085C14.5136 12.6116 14.5105 12.6145 14.5076 12.6171ZM14.5811 12.5435C14.5687 12.5585 14.5393 12.5878 14.5169 12.6085C14.5513 12.6218 14.584 12.6353 14.6154 12.6491C14.7548 12.7107 14.8159 12.7477 15.0014 12.8726C15.2251 13.0233 15.3797 13.0939 15.6988 13.1634C16.0781 13.2461 16.5594 13.425 16.7711 13.5619L16.7961 13.4775C16.5756 13.3465 16.0957 13.1681 15.7176 13.0856C15.3966 13.0156 15.2403 12.9443 15.0152 12.7927C14.8294 12.6676 14.7683 12.6305 14.6283 12.569C14.6104 12.5611 14.5919 12.5533 14.5811 12.5435Z" fill="rgb(0,0,0)" fill-rule="evenodd" />
				<path id="Shape" d="M14.8097 12.1824C14.8745 12.2224 14.9412 12.2567 15.0002 12.2797C14.9941 12.2777 14.9915 12.2843 14.9887 12.2914L14.9882 12.2925C14.9706 12.3366 14.9396 12.3813 14.8879 12.4424C14.8789 12.4531 14.8413 12.4968 14.8322 12.5076C14.8122 12.5313 14.7986 12.5491 14.7886 12.5649C14.7765 12.5842 14.77 12.601 14.77 12.615C14.77 12.6308 14.7781 12.6431 14.7953 12.6519C14.8199 12.6648 14.892 12.7108 14.9651 12.759L14.9729 12.7461C14.9673 12.7424 14.9645 12.7368 14.9645 12.7292C14.9645 12.7176 14.9711 12.7013 14.9845 12.6798C15.0031 12.65 15.0295 12.6175 15.0798 12.56C15.0831 12.5562 15.0831 12.5562 15.0863 12.5525C15.1753 12.4509 15.2063 12.4116 15.2113 12.3815C15.3243 12.4218 15.4312 12.4796 15.5693 12.569C15.571 12.5701 15.7388 12.6811 15.7833 12.7084C15.8594 12.7552 15.9189 12.7846 15.9735 12.8003C15.9624 12.815 15.951 12.8417 15.9339 12.8732C15.9251 12.8894 15.9153 12.9061 15.902 12.9279C15.8449 13.0211 15.8457 13.0198 15.8357 13.0461C15.831 13.0587 15.8285 13.07 15.8285 13.0797C15.8285 13.1002 15.8394 13.1141 15.8628 13.1202C15.8893 13.1263 15.9336 13.1388 16.0075 13.1606C16.0103 13.1615 16.0103 13.1615 16.0131 13.1623C16.0388 13.1699 16.0388 13.1699 16.0636 13.1773C16.0876 13.1844 16.0969 13.1871 16.1093 13.1907L16.1134 13.176C16.1007 13.1721 16.0951 13.1657 16.0951 13.1551C16.0951 13.151 16.096 13.1463 16.0975 13.1409C16.1023 13.1245 16.1077 13.1144 16.1351 13.0674C16.141 13.0573 16.1453 13.0499 16.1493 13.0425C16.1669 13.0103 16.1764 12.9855 16.1772 12.9639C16.3861 13.0439 16.6677 13.1701 16.7817 13.2402L16.8731 13.0928C16.7878 13.0311 16.7114 12.9955 16.5741 12.9399C16.307 12.8316 16.2161 12.7882 16.0638 12.68C15.6967 12.4193 15.2986 12.2019 14.8527 12.0379C14.8356 12.0759 14.8196 12.132 14.8065 12.1734L14.8097 12.1824ZM14.8203 12.1782C14.821 12.1763 14.8216 12.1743 14.8222 12.1723C14.8205 12.1713 14.8188 12.1702 14.8171 12.1692L14.8203 12.1782ZM14.8573 12.047C14.85 12.0784 14.835 12.1313 14.8222 12.1723C14.8846 12.2106 14.9488 12.2436 15.0097 12.2747C15.0075 12.2825 15.0048 12.2904 15.0016 12.2985C14.9832 12.3445 14.9514 12.3902 14.8988 12.4526C14.8897 12.4633 14.8521 12.507 14.8431 12.5177C14.8235 12.541 14.8103 12.5583 14.8008 12.5734C14.7901 12.5903 14.7847 12.6035 14.7847 12.614C14.7847 12.6246 14.7903 12.6323 14.8018 12.6382C14.8244 12.6501 14.8845 12.6882 14.9497 12.7308L14.9497 12.7302C14.9497 12.7146 14.9577 12.6949 14.9724 12.6714C14.9915 12.6407 15.0182 12.6077 15.0691 12.5496C15.0723 12.5459 15.0723 12.5459 15.0756 12.5422C15.1684 12.4362 15.1975 12.3979 15.1975 12.3723L15.1975 12.3714L15.2071 12.3639C15.3246 12.4047 15.4344 12.4637 15.5769 12.5559C15.5788 12.5572 15.7464 12.668 15.7907 12.6952C15.8657 12.7413 15.9242 12.7703 15.9825 12.7949C15.9761 12.8204 15.9642 12.8482 15.9466 12.8807C15.9376 12.8973 15.9277 12.9142 15.9142 12.9362C15.8581 13.0277 15.8587 13.0268 15.8493 13.0517C15.8451 13.0628 15.843 13.0719 15.843 13.0793C15.843 13.0931 15.8503 13.1012 15.8661 13.1053C15.8928 13.1115 15.9372 13.124 16.0114 13.1459C16.0142 13.1467 16.0142 13.1467 16.0171 13.1476C16.0428 13.1552 16.0428 13.1552 16.0676 13.1626C16.0732 13.1642 16.0781 13.1657 16.0823 13.1669C16.0812 13.1633 16.0806 13.1594 16.0806 13.1551C16.0806 13.1494 16.0816 13.1431 16.0836 13.1364C16.089 13.1181 16.0944 13.108 16.1227 13.0594C16.1285 13.0494 16.1327 13.0421 16.1366 13.035C16.154 13.0032 16.1627 12.9796 16.1627 12.9606L16.1623 12.9537L16.172 12.9456C16.3826 13.0257 16.6722 13.1552 16.7791 13.2298L16.8631 13.0955C16.7812 13.0448 16.7054 13.0095 16.5689 12.9542C16.3007 12.8455 16.2091 12.8017 16.0556 12.6927C15.6895 12.4326 15.2926 12.2159 14.8573 12.047ZM16.0823 13.1669C16.0857 13.178 16.0946 13.1862 16.1092 13.1907L16.1132 13.176C16.1037 13.1732 16.0961 13.171 16.0823 13.1669ZM14.9497 12.7308C14.9499 12.7428 14.9548 12.7522 14.9651 12.759L14.9728 12.7461C14.9651 12.741 14.9573 12.7359 14.9497 12.7308ZM18.0857 12.6987C18.0862 12.6945 18.0864 12.6904 18.0864 12.6864C18.0864 12.6004 17.9795 12.5397 17.7882 12.5001C17.628 12.467 17.4132 12.4501 17.1854 12.4481L17.1835 12.4632L18.0767 12.7052L18.0857 12.6987ZM18.0803 12.6903L18.0718 12.688C18.0718 12.691 18.0716 12.6939 18.0712 12.6968L18.0803 12.6903ZM17.2459 12.4643L18.0718 12.688L18.0718 12.6869C18.0718 12.6112 17.9704 12.5534 17.7854 12.5151C17.6405 12.4852 17.4502 12.4685 17.2459 12.4643ZM17.2459 12.4643L17.1872 12.4484L17.1853 12.4634C17.2056 12.4636 17.2259 12.4639 17.2459 12.4643ZM17.103 12.402C17.1126 12.3239 17.1259 12.2479 17.143 12.1742L17.1266 12.1714L17.0865 12.3999L17.103 12.402ZM17.0864 12.4002L17.1029 12.4023L17.1431 12.1738L17.1267 12.171C17.1095 12.2452 17.0961 12.3217 17.0864 12.4002ZM17.4917 11.1457C17.5105 11.0894 17.5266 11.0363 17.5404 10.985L17.5243 10.9811L17.4757 11.1414L17.4917 11.1457ZM17.4757 11.1413L17.4917 11.1455L17.5404 10.9852L17.5243 10.9813C17.5105 11.0323 17.4944 11.0852 17.4757 11.1413Z" fill="rgb(0,0,0)" fill-rule="evenodd" />
				<path id="Shape" d="M18.2561 9.73436C18.2496 9.77939 18.2362 9.84024 18.2145 9.88978C18.1382 9.88274 18.0541 9.88594 17.9822 9.89898C18.0699 9.79448 18.1347 9.75605 18.2561 9.73436ZM17.2816 13.1746C17.1125 12.7987 17.1691 12.1694 17.3998 11.6333C17.6221 11.1167 17.6908 10.6588 17.6631 10.1697C17.6923 10.1784 17.7197 10.1689 17.7746 10.1419L17.7771 10.1406C17.7915 10.1335 17.7981 10.1303 17.8063 10.1266C18.0319 10.0238 18.2356 10.0382 18.3753 10.1387C18.4907 10.2217 18.5301 10.3467 18.464 10.4033L18.4732 10.4152C18.5114 10.383 18.5217 10.3776 18.6017 10.3412C18.6066 10.3389 18.6066 10.3389 18.6115 10.3366C18.7082 10.2923 18.5904 10.0364 18.38 9.93029C18.4218 9.86074 18.4391 9.7731 18.4331 9.68737C18.4664 9.68437 18.5042 9.67295 18.5581 9.6561C18.7291 9.60272 18.7583 9.594 18.8308 9.57726C18.9335 9.55351 19.0236 9.54361 19.1125 9.54865C19.2843 9.55839 19.4085 9.6226 19.4429 9.70669C19.4721 9.77798 19.429 9.84883 19.323 9.89152C19.3011 9.89887 19.2843 9.90453 19.2762 9.90733L19.2804 9.92198C19.297 9.9173 19.3126 9.91202 19.3271 9.90619C19.4063 9.87959 19.5531 9.83058 19.5958 9.81503C19.7117 9.77282 19.7867 9.73558 19.845 9.68784C19.9987 9.56197 19.9353 9.29334 19.6635 9.23505C19.3681 9.17165 19.1733 9.19599 18.7797 9.30535C18.7663 9.3091 18.7663 9.3091 18.7528 9.31283C18.4058 9.40908 18.222 9.43302 17.9646 9.38462C17.783 9.35049 17.6507 9.35148 17.5558 9.39838C17.4408 9.45518 17.388 9.5785 17.4045 9.78056C17.4063 9.80321 17.4063 9.80314 17.4093 9.84414L17.4095 9.84732C17.4109 9.86577 17.4121 9.88009 17.4138 9.89964C17.4138 10.0379 17.2323 10.1036 17.0695 9.98573L17.0595 9.99665C17.1196 10.0794 17.1714 10.1256 17.2267 10.148C17.271 10.1659 17.304 10.1685 17.3943 10.1668C17.4085 10.1665 17.4148 10.1664 17.4232 10.1663C17.4308 10.147 17.4372 10.1427 17.4529 10.1435C17.467 10.1442 17.4837 10.1486 17.5151 10.159C17.5172 10.1597 17.5172 10.1597 17.5194 10.1604C17.5625 10.1748 17.5826 10.1803 17.5965 10.1782C17.6043 10.4507 17.5821 10.7089 17.5181 10.9813C17.4015 10.9172 17.3186 10.9142 17.2884 10.9988C17.2726 11.0515 17.2561 11.1018 17.2382 11.1523L17.2382 11.1523L17.2518 11.1576L17.2518 11.1576C17.2771 11.0864 17.3545 11.0921 17.4797 11.1504C17.4329 11.2878 17.3777 11.4371 17.3091 11.5892C17.2263 11.7727 17.1618 11.9726 17.1216 12.171C16.9643 12.1216 16.8545 12.1244 16.8367 12.2156C16.8172 12.3102 16.8036 12.3977 16.7962 12.48L16.7957 12.4853L16.8102 12.4866L16.8107 12.4818L16.8102 12.4867L16.7957 12.4854L16.7957 12.4853L16.7962 12.48C16.7988 12.4542 16.8061 12.4334 16.8176 12.4171C16.8254 12.3544 16.8366 12.2885 16.851 12.2187C16.866 12.1415 16.9699 12.1389 17.127 12.18C17.1758 11.9769 17.24 11.7782 17.3223 11.5958C17.3911 11.4429 17.4466 11.293 17.4896 11.1457C17.386 11.0919 17.312 11.0752 17.2694 11.107C17.2637 11.1239 17.2578 11.1407 17.2518 11.1576L17.2382 11.1523C17.2454 11.132 17.2558 11.1171 17.2694 11.107C17.2808 11.073 17.2916 11.0388 17.3022 11.0037C17.3279 10.9317 17.4026 10.9345 17.5222 10.9901C17.5974 10.7078 17.6194 10.4453 17.6108 10.1678L17.6003 10.1612C17.5906 10.1662 17.5724 10.162 17.5238 10.1459C17.5216 10.1452 17.5216 10.1452 17.5195 10.1444C17.4868 10.1336 17.4694 10.129 17.4536 10.1282C17.4307 10.1271 17.4166 10.1366 17.4159 10.1584C17.4146 10.1511 17.4082 10.1512 17.394 10.1515C17.3057 10.1532 17.2738 10.1507 17.232 10.1337C17.1874 10.1157 17.1446 10.0809 17.0968 10.0212C17.0849 10.0145 17.073 10.0069 17.0612 9.99832L17.0711 9.98739C17.0799 9.99946 17.0884 10.0107 17.0968 10.0212C17.2587 10.1124 17.4283 10.0412 17.4283 9.89894C17.4266 9.87876 17.4254 9.86452 17.4241 9.84614L17.4238 9.84296C17.4208 9.80191 17.4208 9.80196 17.419 9.77926C17.403 9.58306 17.4531 9.46599 17.562 9.41221C17.6535 9.36703 17.7832 9.36606 17.9621 9.39967C18.2221 9.44856 18.4076 9.42438 18.7565 9.32761C18.77 9.32388 18.77 9.32388 18.7835 9.32013C19.175 9.21133 19.368 9.18722 19.6605 9.25003C19.9203 9.30573 19.9799 9.55801 19.836 9.67578C19.7793 9.72226 19.7055 9.75888 19.591 9.80059C19.5604 9.81174 19.4757 9.84027 19.4011 9.8653C19.3809 9.88075 19.3561 9.89455 19.3271 9.90619C19.3054 9.91348 19.2888 9.91908 19.2807 9.92185L19.2766 9.90721C19.2932 9.90254 19.3087 9.89729 19.323 9.89152C19.3451 9.8841 19.3724 9.87496 19.4011 9.8653C19.4604 9.82013 19.4809 9.76091 19.4563 9.70066C19.4193 9.61023 19.29 9.5434 19.1133 9.53338C19.0229 9.52826 18.9316 9.5383 18.8276 9.56233C18.7547 9.57919 18.7253 9.58793 18.554 9.64144C18.5001 9.65826 18.4625 9.66965 18.424 9.68054C18.4248 9.77653 18.4055 9.86669 18.3687 9.93237C18.3325 9.90661 18.3024 9.8999 18.2351 9.89179L18.2299 9.89115C18.2285 9.8944 18.2271 9.8976 18.2257 9.90076L18.22 9.88988C18.2252 9.89056 18.2268 9.89077 18.2299 9.89115C18.2512 9.84048 18.2639 9.77939 18.2621 9.72655C18.1226 9.74271 18.0544 9.78591 17.9575 9.9056L17.9645 9.91805C18.0959 9.8897 18.2802 9.89737 18.3718 9.94315C18.5744 10.0442 18.686 10.2858 18.6055 10.3226C18.6007 10.3249 18.6007 10.3249 18.5959 10.3271C18.546 10.3498 18.5227 10.3608 18.5029 10.3735C18.4968 10.3893 18.487 10.4034 18.4733 10.4152L18.4641 10.4033C18.4794 10.3904 18.4904 10.3816 18.5029 10.3735C18.5305 10.3025 18.4836 10.1981 18.3835 10.1261C18.2395 10.0226 18.0306 10.0077 17.8005 10.1126C17.7922 10.1164 17.7854 10.1196 17.7709 10.1268L17.7684 10.128C17.7155 10.1541 17.6896 10.1631 17.6559 10.1625C17.6761 10.6574 17.6078 11.1128 17.3866 11.627C17.1576 12.159 17.0989 12.7821 17.2611 13.1643L17.2776 13.1707L17.2685 13.1811C17.266 13.1756 17.2635 13.17 17.2611 13.1643L17.1739 13.1305C17.0954 12.9423 17.0702 12.6865 17.1009 12.4019C17.0929 12.3931 17.0666 12.3874 17.0582 12.3856C17.0275 12.3792 17.0034 12.375 16.9797 12.3724C16.9023 12.364 16.8465 12.3763 16.8176 12.4171C16.8149 12.439 16.8126 12.4606 16.8107 12.4818C16.8188 12.4019 16.8768 12.3766 16.9782 12.3876C17.0013 12.3901 17.0251 12.3943 17.0554 12.4006C17.0637 12.4024 17.09 12.4081 17.0922 12.4086C17.0554 12.6873 17.081 12.9457 17.1647 13.1409L17.2725 13.185L17.2816 13.1746Z" fill="rgb(0,0,0)" fill-rule="evenodd" />
			</g>
		</g>
	</g>
</svg>
