<svg width="28.000000" height="28.000000" viewBox="0 0 28 28" fill="none" xmlns="http://www.w3.org/2000/svg" xmlns:xlink="http://www.w3.org/1999/xlink">
	<desc>
			Created with Pixso.
	</desc>
	<defs/>
	<rect id="Israel" width="28.000000" height="28.000000" fill="#FFFFFF" fill-opacity="0"/>
	<rect id="Mask" y="4.000000" rx="3.000000" width="28.000000" height="20.000000" fill="#FFFFFF" fill-opacity="1.000000"/>
	<rect id="Mask" x="0.250000" y="4.250000" rx="3.000000" width="27.500000" height="19.500000" stroke="#D6D8DD" stroke-opacity="1.000000" stroke-width="0.500000"/>
	<mask id="mask17_5259" mask-type="alpha" maskUnits="userSpaceOnUse" x="0.000000" y="4.000000" width="28.000000" height="20.000000">
		<rect id="Mask" y="4.000000" rx="3.000000" width="28.000000" height="20.000000" fill="#FFFFFF" fill-opacity="1.000000"/>
		<rect id="Mask" x="0.250000" y="4.250000" rx="3.000000" width="27.500000" height="19.500000" stroke="#F5F5F5" stroke-opacity="1.000000" stroke-width="0.500000"/>
	</mask>
	<g mask="url(#mask17_5259)">
		<path id="Rectangle 2" d="M0 8L28 8L28 4L0 4L0 8Z" fill="#0E46D4" fill-opacity="1.000000" fill-rule="evenodd"/>
		<path id="Rectangle 2" d="M28 8L28 4L0 4L0 8L28 8Z" stroke="#979797" stroke-opacity="0" stroke-width="0.000000"/>
	</g>
	<g mask="url(#mask17_5259)">
		<path id="Rectangle 2" d="M0 24L28 24L28 20L0 20L0 24Z" fill="#0E46D4" fill-opacity="1.000000" fill-rule="evenodd"/>
		<path id="Rectangle 2" d="M28 24L28 20L0 20L0 24L28 24Z" stroke="#979797" stroke-opacity="0" stroke-width="0.000000"/>
	</g>
	<g mask="url(#mask17_5259)">
		<path id="Union" d="M9.53 16.66L12.49 16.66L14 19.37L15.5 16.66L18.46 16.66L16.98 14L18.46 11.33L15.5 11.33L14 8.62L12.49 11.33L9.53 11.33L11.01 14L9.53 16.66ZM11.39 14.68L10.66 16L12.12 16L11.39 14.68ZM12.88 16L11.77 14L12.88 12L15.11 12L16.22 14L15.11 16L12.88 16ZM13.25 16.66L14 18L14.74 16.66L13.25 16.66ZM15.87 16L17.33 16L16.6 14.68L15.87 16ZM16.6 13.31L17.33 12L15.87 12L16.6 13.31ZM14.74 11.33L14 10L13.25 11.33L14.74 11.33ZM12.12 12L11.39 13.31L10.66 12L12.12 12Z" fill="#093EC5" fill-opacity="1.000000" fill-rule="evenodd"/>
	</g>
</svg>
