<svg viewBox="0 0 28 28" xmlns="http://www.w3.org/2000/svg" xmlns:xlink="http://www.w3.org/1999/xlink" width="28.000000" height="28.000000" fill="none" customFrame="#000000">
	<defs>
		<filter id="pixso_custom_mask_type_alpha">
			<feColorMatrix type="matrix" values="0 0 0 0 1 0 0 0 0 1 0 0 0 0 1 0 0 0 1 0 " />
		</filter>
	</defs>
	<mask id="mask_433" width="28.000000" height="20.000000" x="0.000000" y="4.000000" maskUnits="userSpaceOnUse">
		<g filter="url(#pixso_custom_mask_type_alpha)">
			<rect id="Mask" width="28.000000" height="20.000000" x="0.000000" y="4.000000" rx="3.000000" fill="rgb(255,255,255)" />
			<rect id="Mask" width="28.000000" height="20.000000" x="0.000000" y="4.000000" rx="3.000000" stroke="rgb(150.96,150.96,150.96)" stroke-opacity="0" stroke-width="0" />
		</g>
	</mask>
	<rect id="Korea North" width="28.000000" height="28.000000" x="0.000000" y="0.000000" fill="rgb(255,255,255)" fill-opacity="0" />
	<rect id="Mask" width="28.000000" height="20.000000" x="0.000000" y="4.000000" rx="3.000000" fill="rgb(255,255,255)" />
	<rect id="Mask" width="28.000000" height="20.000000" x="0.000000" y="4.000000" rx="3.000000" stroke="rgb(150.96,150.96,150.96)" stroke-opacity="0" stroke-width="0" />
	<g mask="url(#mask_433)">
		<path id="Rectangle 2" d="M0 8L28 8L28 4L0 4L0 8Z" fill="rgb(20,97,182)" fill-rule="evenodd" />
		<path id="Rectangle 2" d="M28 8L28 4L0 4L0 8L28 8Z" fill-rule="evenodd" stroke="rgb(150.96,150.96,150.96)" stroke-opacity="0" stroke-width="0" />
		<path id="Rectangle 2" d="M0 24L28 24L28 20L0 20L0 24Z" fill="rgb(20,97,182)" fill-rule="evenodd" />
		<path id="Rectangle 2" d="M28 24L28 20L0 20L0 24L28 24Z" fill-rule="evenodd" stroke="rgb(150.96,150.96,150.96)" stroke-opacity="0" stroke-width="0" />
		<path id="Rectangle 2" d="M0 20L28 20L28 8L0 8L0 20Z" fill="rgb(255,255,255)" fill-rule="evenodd" />
		<path id="Rectangle 2" d="M28 20L28 8L0 8L0 20L28 20Z" fill-rule="evenodd" stroke="rgb(150.96,150.96,150.96)" stroke-opacity="0" stroke-width="0" />
		<path id="Rectangle 2 Copy 4" d="M0 18.6666L28 18.6666L28 9.33331L0 9.33331L0 18.6666Z" fill="rgb(245,56,70)" fill-rule="evenodd" />
		<path id="Rectangle 2 Copy 4" d="M28 18.6666L28 9.33331L0 9.33331L0 18.6666L28 18.6666Z" fill-rule="evenodd" stroke="rgb(150.96,150.96,150.96)" stroke-opacity="0" stroke-width="0" />
		<path id="Oval 12" d="M13.3333 14C13.3333 15.841 11.8409 17.3334 9.99999 17.3334C8.15904 17.3334 6.66666 15.841 6.66666 14C6.66666 12.1591 8.15904 10.6667 9.99999 10.6667L9.21378 12.9179L6.8298 12.97L8.72788 14.4134L8.04071 16.6967L9.99999 15.3376L11.9593 16.6967L11.2721 14.4134L13.1702 12.97L10.7862 12.9179L9.99999 10.6667C11.8409 10.6667 13.3333 12.1591 13.3333 14Z" fill="rgb(255,255,255)" fill-rule="evenodd" />
		<path id="Oval 12" d="M13.3333 14C13.3333 15.841 11.8409 17.3334 9.99999 17.3334C8.15904 17.3334 6.66666 15.841 6.66666 14C6.66666 12.1591 8.15904 10.6667 9.99999 10.6667L9.21378 12.9179L6.8298 12.97L8.72788 14.4134L8.04071 16.6967L9.99999 15.3376L11.9593 16.6967L11.2721 14.4134L13.1702 12.97L10.7862 12.9179L9.99999 10.6667C11.8409 10.6667 13.3333 12.1591 13.3333 14Z" fill-rule="evenodd" stroke="rgb(150.96,150.96,150.96)" stroke-opacity="0" stroke-width="0" />
	</g>
</svg>
