<svg width="28.000000" height="28.000000" viewBox="0 0 28 28" fill="none" xmlns="http://www.w3.org/2000/svg" xmlns:xlink="http://www.w3.org/1999/xlink">
	<desc>
			Created with Pixso.
	</desc>
	<defs/>
	<rect id="Korea North" width="28.000000" height="28.000000" fill="#FFFFFF" fill-opacity="0"/>
	<rect id="Mask" y="4.000000" rx="3.000000" width="28.000000" height="20.000000" fill="#FFFFFF" fill-opacity="1.000000"/>
	<rect id="Mask" y="4.000000" rx="3.000000" width="28.000000" height="20.000000" stroke="#979797" stroke-opacity="0" stroke-width="0.000000"/>
	<mask id="mask17_5215" mask-type="alpha" maskUnits="userSpaceOnUse" x="0.000000" y="4.000000" width="28.000000" height="20.000000">
		<rect id="Mask" y="4.000000" rx="3.000000" width="28.000000" height="20.000000" fill="#FFFFFF" fill-opacity="1.000000"/>
		<rect id="Mask" y="4.000000" rx="3.000000" width="28.000000" height="20.000000" stroke="#979797" stroke-opacity="0" stroke-width="0.000000"/>
	</mask>
	<g mask="url(#mask17_5215)">
		<path id="Rectangle 2" d="M0 8L28 8L28 4L0 4L0 8Z" fill="#1461B6" fill-opacity="1.000000" fill-rule="evenodd"/>
		<path id="Rectangle 2" d="M28 8L28 4L0 4L0 8L28 8Z" stroke="#979797" stroke-opacity="0" stroke-width="0.000000"/>
	</g>
	<g mask="url(#mask17_5215)">
		<path id="Rectangle 2" d="M0 24L28 24L28 20L0 20L0 24Z" fill="#1461B6" fill-opacity="1.000000" fill-rule="evenodd"/>
		<path id="Rectangle 2" d="M28 24L28 20L0 20L0 24L28 24Z" stroke="#979797" stroke-opacity="0" stroke-width="0.000000"/>
	</g>
	<g mask="url(#mask17_5215)">
		<path id="Rectangle 2" d="M0 20L28 20L28 8L0 8L0 20Z" fill="#FFFFFF" fill-opacity="1.000000" fill-rule="evenodd"/>
		<path id="Rectangle 2" d="M28 20L28 8L0 8L0 20L28 20Z" stroke="#979797" stroke-opacity="0" stroke-width="0.000000"/>
	</g>
	<g mask="url(#mask17_5215)">
		<path id="Rectangle 2 Copy 4" d="M0 18.66L28 18.66L28 9.33L0 9.33L0 18.66Z" fill="#F53846" fill-opacity="1.000000" fill-rule="evenodd"/>
		<path id="Rectangle 2 Copy 4" d="M28 18.66L28 9.33L0 9.33L0 18.66L28 18.66Z" stroke="#979797" stroke-opacity="0" stroke-width="0.000000"/>
	</g>
	<g mask="url(#mask17_5215)">
		<mask id="mask_17_5220" fill="white">
			<path id="Oval 12" d="M13.3333 14C13.3333 15.841 11.8409 17.3333 10 17.3333C8.15903 17.3333 6.66666 15.841 6.66666 14C6.66666 12.1591 8.15903 10.6667 10 10.6667L9.21378 12.9179L6.8298 12.97L8.72787 14.4134L8.04071 16.6967L10 15.3376L11.9593 16.6967L11.2721 14.4134L13.1702 12.97L10.7862 12.9179L10 10.6667C11.8409 10.6667 13.3333 12.1591 13.3333 14Z" clip-rule="evenodd" fill="" fill-opacity="1.000000" fill-rule="evenodd"/>
		</mask>
		<path id="Oval 12" d="M13.3333 14C13.3333 15.841 11.8409 17.3333 10 17.3333C8.15903 17.3333 6.66666 15.841 6.66666 14C6.66666 12.1591 8.15903 10.6667 10 10.6667L9.21378 12.9179L6.8298 12.97L8.72787 14.4134L8.04071 16.6967L10 15.3376L11.9593 16.6967L11.2721 14.4134L13.1702 12.97L10.7862 12.9179L10 10.6667C11.8409 10.6667 13.3333 12.1591 13.3333 14Z" clip-rule="evenodd" fill="#FFFFFF" fill-opacity="1.000000" fill-rule="evenodd" mask="url(#mask_17_5220)"/>
		<path id="Oval 12" d="" fill="#979797" fill-opacity="0.000000" fill-rule="nonzero"/>
	</g>
</svg>
