<svg width="28.000000" height="28.000000" viewBox="0 0 28 28" fill="none" xmlns="http://www.w3.org/2000/svg" xmlns:xlink="http://www.w3.org/1999/xlink">
	<desc>
			Created with Pixso.
	</desc>
	<defs/>
	<rect id="Lebanon" width="28.000000" height="28.000000" fill="#FFFFFF" fill-opacity="0"/>
	<rect id="Mask" y="4.000000" rx="3.000000" width="28.000000" height="20.000000" fill="#FFFFFF" fill-opacity="1.000000"/>
	<rect id="Mask" x="0.250000" y="4.250000" rx="3.000000" width="27.500000" height="19.500000" stroke="#D6D8DD" stroke-opacity="1.000000" stroke-width="0.500000"/>
	<mask id="mask17_5117" mask-type="alpha" maskUnits="userSpaceOnUse" x="0.000000" y="4.000000" width="28.000000" height="20.000000">
		<rect id="Mask" y="4.000000" rx="3.000000" width="28.000000" height="20.000000" fill="#FFFFFF" fill-opacity="1.000000"/>
		<rect id="Mask" x="0.250000" y="4.250000" rx="3.000000" width="27.500000" height="19.500000" stroke="#F5F5F5" stroke-opacity="1.000000" stroke-width="0.500000"/>
	</mask>
	<g mask="url(#mask17_5117)">
		<path id="Rectangle 2" d="M0 9.33L28 9.33L28 4L0 4L0 9.33Z" fill="#F03340" fill-opacity="1.000000" fill-rule="evenodd"/>
		<path id="Rectangle 2" d="M28 9.33L28 4L0 4L0 9.33L28 9.33Z" stroke="#979797" stroke-opacity="0" stroke-width="0.000000"/>
	</g>
	<g mask="url(#mask17_5117)">
		<path id="Rectangle 2" d="M0 24L28 24L28 18.66L0 18.66L0 24Z" fill="#F03340" fill-opacity="1.000000" fill-rule="evenodd"/>
		<path id="Rectangle 2" d="M28 24L28 18.66L0 18.66L0 24L28 24Z" stroke="#979797" stroke-opacity="0" stroke-width="0.000000"/>
	</g>
	<g mask="url(#mask17_5117)">
		<path id="Rectangle 317" d="M12.94 16.39C13.15 16.17 13.15 15.82 12.94 15.6L12.86 15.53C12.74 15.4 12.56 15.35 12.39 15.4L12.01 15.49C11.57 15.6 11.29 15.02 11.66 14.75L12 14.49C12.21 14.33 12.1 14 11.83 14L11.83 14C11.54 14 11.45 13.6 11.71 13.47L12.28 13.19C12.54 13.05 12.45 12.66 12.16 12.66L12.16 12.66C11.89 12.66 11.78 12.32 11.99 12.16L13.6 10.96C13.83 10.78 14.16 10.78 14.4 10.96L16 12.16C16.21 12.32 16.1 12.66 15.83 12.66L15.83 12.66C15.54 12.66 15.45 13.05 15.71 13.19L16.28 13.47C16.54 13.6 16.45 14 16.16 14L16.16 14C15.89 14 15.78 14.33 15.99 14.49L16.33 14.75C16.7 15.02 16.42 15.6 15.98 15.49L15.6 15.4C15.43 15.35 15.25 15.4 15.13 15.53L15.05 15.6C14.84 15.82 14.84 16.17 15.05 16.39L15.05 16.39C15.4 16.73 15.15 17.33 14.66 17.33L13.33 17.33C12.84 17.33 12.59 16.73 12.94 16.39L12.94 16.39Z" fill="#1FC065" fill-opacity="1.000000" fill-rule="evenodd"/>
		<path id="Rectangle 317" d="M12.86 15.53C12.74 15.4 12.56 15.35 12.39 15.4C11.86 15.53 11.53 14.84 11.97 14.52L12 14.49C12.21 14.33 12.1 14 11.83 14C11.54 14 11.45 13.6 11.71 13.47L12.28 13.19C12.54 13.05 12.45 12.66 12.16 12.66C11.89 12.66 11.78 12.32 11.99 12.16L13.6 10.96C13.83 10.78 14.16 10.78 14.4 10.96L16 12.16C16.21 12.32 16.1 12.66 15.83 12.66C15.54 12.66 15.45 13.05 15.71 13.19L16.28 13.47C16.54 13.6 16.45 14 16.16 14C15.89 14 15.78 14.33 15.99 14.49L16.33 14.75C16.7 15.02 16.42 15.6 15.98 15.49L15.6 15.4C15.43 15.35 15.25 15.4 15.13 15.53L15.05 15.6C14.84 15.82 14.84 16.17 15.05 16.39C15.4 16.73 15.15 17.33 14.66 17.33L13.33 17.33C12.84 17.33 12.59 16.73 12.94 16.39C13.15 16.17 13.15 15.82 12.94 15.6L12.86 15.53Z" stroke="#979797" stroke-opacity="0" stroke-width="0.000000"/>
	</g>
</svg>
