<svg viewBox="0 0 28 28" xmlns="http://www.w3.org/2000/svg" xmlns:xlink="http://www.w3.org/1999/xlink" width="28.000000" height="28.000000" fill="none" customFrame="#000000">
	<defs>
		<filter id="pixso_custom_mask_type_alpha">
			<feColorMatrix type="matrix" values="0 0 0 0 1 0 0 0 0 1 0 0 0 0 1 0 0 0 1 0 " />
		</filter>
	</defs>
	<mask id="mask_464" width="28.000000" height="20.000000" x="0.000000" y="4.000000" maskUnits="userSpaceOnUse">
		<g filter="url(#pixso_custom_mask_type_alpha)">
			<rect id="Mask" width="28.000000" height="20.000000" x="0.000000" y="4.000000" rx="3.000000" fill="rgb(255,255,255)" />
			<rect id="Mask" width="28.000000" height="20.000000" x="0.000000" y="4.000000" rx="3.000000" stroke="rgb(150.96,150.96,150.96)" stroke-opacity="0" stroke-width="0" />
		</g>
	</mask>
	<rect id="Maldives" width="28.000000" height="28.000000" x="0.000000" y="0.000000" fill="rgb(255,255,255)" fill-opacity="0" />
	<rect id="Mask" width="28.000000" height="20.000000" x="0.000000" y="4.000000" rx="3.000000" fill="rgb(255,255,255)" />
	<rect id="Mask" width="28.000000" height="20.000000" x="0.000000" y="4.000000" rx="3.000000" stroke="rgb(150.96,150.96,150.96)" stroke-opacity="0" stroke-width="0" />
	<g mask="url(#mask_464)">
		<rect id="Mask Copy" width="28.000000" height="20.000000" x="0.000000" y="4.000000" fill="rgb(243,34,73)" />
		<rect id="Mask Copy" width="28.000000" height="20.000000" x="0.000000" y="4.000000" stroke="rgb(150.96,150.96,150.96)" stroke-opacity="0" stroke-width="0" />
		<rect id="Rectangle 1568" width="20.000000" height="12.000000" x="4.000000" y="8.000000" rx="0.666667" fill="rgb(21,160,79)" />
		<rect id="Rectangle 1568" width="20.000000" height="12.000000" x="4.000000" y="8.000000" rx="0.666667" stroke="rgb(150.96,150.96,150.96)" stroke-opacity="0" stroke-width="0" />
		<path id="Oval 12" d="M16.3333 18.5593C16.0112 18.6296 15.6766 18.6666 15.3333 18.6666C12.756 18.6666 10.6667 16.5773 10.6667 14C10.6667 11.4227 12.756 9.33331 15.3333 9.33331C15.6766 9.33331 16.0112 9.37037 16.3333 9.44071C14.2365 9.89849 12.6667 11.7659 12.6667 14C12.6667 16.2341 14.2365 18.1015 16.3333 18.5593Z" fill="rgb(255,255,255)" fill-rule="evenodd" />
		<path id="Oval 12" d="M16.3333 18.5593C16.0112 18.6296 15.6766 18.6666 15.3333 18.6666C12.756 18.6666 10.6667 16.5773 10.6667 14C10.6667 11.4227 12.756 9.33331 15.3333 9.33331C15.6766 9.33331 16.0112 9.37037 16.3333 9.44071C14.2365 9.89849 12.6667 11.7659 12.6667 14C12.6667 16.2341 14.2365 18.1015 16.3333 18.5593Z" fill-rule="evenodd" stroke="rgb(150.96,150.96,150.96)" stroke-opacity="0" stroke-width="0" />
	</g>
</svg>
