<svg width="28.000000" height="28.000000" viewBox="0 0 28 28" fill="none" xmlns="http://www.w3.org/2000/svg" xmlns:xlink="http://www.w3.org/1999/xlink">
	<desc>
			Created with Pixso.
	</desc>
	<defs/>
	<rect id="Moldova" width="28.000000" height="28.000000" fill="#FFFFFF" fill-opacity="0"/>
	<rect id="Mask" y="4.000000" rx="3.000000" width="28.000000" height="20.000000" fill="#FFFFFF" fill-opacity="1.000000"/>
	<rect id="Mask" y="4.000000" rx="3.000000" width="28.000000" height="20.000000" stroke="#979797" stroke-opacity="0" stroke-width="0.000000"/>
	<mask id="mask17_5054" mask-type="alpha" maskUnits="userSpaceOnUse" x="0.000000" y="4.000000" width="28.000000" height="20.000000">
		<rect id="Mask" y="4.000000" rx="3.000000" width="28.000000" height="20.000000" fill="#FFFFFF" fill-opacity="1.000000"/>
		<rect id="Mask" y="4.000000" rx="3.000000" width="28.000000" height="20.000000" stroke="#979797" stroke-opacity="0" stroke-width="0.000000"/>
	</mask>
	<g mask="url(#mask17_5054)">
		<rect id="Mask" x="13.333344" y="4.000000" width="14.666667" height="20.000000" fill="#EB1C43" fill-opacity="1.000000"/>
		<rect id="Mask" x="13.333344" y="4.000000" width="14.666667" height="20.000000" stroke="#979797" stroke-opacity="0" stroke-width="0.000000"/>
	</g>
	<g mask="url(#mask17_5054)">
		<path id="Rectangle 2" d="M0 24L9.33 24L9.33 4L0 4L0 24Z" fill="#115BCB" fill-opacity="1.000000" fill-rule="evenodd"/>
		<path id="Rectangle 2" d="M9.33 24L9.33 4L0 4L0 24L9.33 24Z" stroke="#979797" stroke-opacity="0" stroke-width="0.000000"/>
	</g>
	<g mask="url(#mask17_5054)">
		<path id="Rectangle 2 Copy" d="M9.33 24L18.66 24L18.66 4L9.33 4L9.33 24Z" fill="#FFD953" fill-opacity="1.000000" fill-rule="evenodd"/>
		<path id="Rectangle 2 Copy" d="M18.66 24L18.66 4L9.33 4L9.33 24L18.66 24Z" stroke="#979797" stroke-opacity="0" stroke-width="0.000000"/>
	</g>
	<g mask="url(#mask17_5054)">
		<mask id="mask_17_5058" fill="white">
			<path id="Rectangle 1601" d="M12 12L13.3333 12L14 10L14.6667 12L16 12L16 16L14 17.3333L12 16L12 12ZM14.6667 15.3333L14.6667 13.3333L13.3333 13.3333L13.3333 15.3333L14.6667 15.3333Z" clip-rule="evenodd" fill="" fill-opacity="1.000000" fill-rule="evenodd"/>
		</mask>
		<path id="Rectangle 1601" d="M12 12L13.3333 12L14 10L14.6667 12L16 12L16 16L14 17.3333L12 16L12 12ZM14.6667 15.3333L14.6667 13.3333L13.3333 13.3333L13.3333 15.3333L14.6667 15.3333Z" clip-rule="evenodd" fill="#AF7F59" fill-opacity="1.000000" fill-rule="evenodd" mask="url(#mask_17_5058)"/>
		<path id="Rectangle 1601" d="" fill="#979797" fill-opacity="0.000000" fill-rule="nonzero"/>
	</g>
</svg>
