<svg viewBox="0 0 28 28" xmlns="http://www.w3.org/2000/svg" xmlns:xlink="http://www.w3.org/1999/xlink" width="28.000000" height="28.000000" fill="none" customFrame="#000000">
	<defs>
		<filter id="pixso_custom_mask_type_alpha">
			<feColorMatrix type="matrix" values="0 0 0 0 1 0 0 0 0 1 0 0 0 0 1 0 0 0 1 0 " />
		</filter>
		<linearGradient id="paint_linear_164" x1="2.66662598" x2="2.66662598" y1="14" y2="20" gradientUnits="userSpaceOnUse">
			<stop stop-color="rgb(248.136,210.19,69.8812)" offset="0" stop-opacity="1" />
			<stop stop-color="rgb(249,206,47)" offset="1" stop-opacity="1" />
		</linearGradient>
	</defs>
	<mask id="mask_462" width="28.000000" height="20.000000" x="0.000000" y="4.000000" maskUnits="userSpaceOnUse">
		<g filter="url(#pixso_custom_mask_type_alpha)">
			<rect id="Mask" width="28.000000" height="20.000000" x="0.000000" y="4.000000" rx="3.000000" fill="rgb(255,255,255)" />
			<rect id="Mask" width="28.000000" height="20.000000" x="0.000000" y="4.000000" rx="3.000000" stroke="rgb(150.96,150.96,150.96)" stroke-opacity="0" stroke-width="0" />
		</g>
	</mask>
	<rect id="Mongolia" width="28.000000" height="28.000000" x="0.000000" y="0.000000" fill="rgb(255,255,255)" fill-opacity="0" />
	<rect id="Mask" width="28.000000" height="20.000000" x="0.000000" y="4.000000" rx="3.000000" fill="rgb(255,255,255)" />
	<rect id="Mask" width="28.000000" height="20.000000" x="0.000000" y="4.000000" rx="3.000000" stroke="rgb(150.96,150.96,150.96)" stroke-opacity="0" stroke-width="0" />
	<g mask="url(#mask_462)">
		<path id="Rectangle 2 Copy" d="M9.33337 24L18.6667 24L18.6667 4L9.33337 4L9.33337 24Z" fill="rgb(20,107,188)" fill-rule="evenodd" />
		<path id="Rectangle 2 Copy" d="M18.6667 24L18.6667 4L9.33337 4L9.33337 24L18.6667 24Z" fill-rule="evenodd" stroke="rgb(150.96,150.96,150.96)" stroke-opacity="0" stroke-width="0" />
		<path id="Rectangle 2" d="M0 24L9.33333 24L9.33333 4L0 4L0 24Z" fill="rgb(228,54,66)" fill-rule="evenodd" />
		<path id="Rectangle 2" d="M9.33333 24L9.33333 4L0 4L0 24L9.33333 24Z" fill-rule="evenodd" stroke="rgb(150.96,150.96,150.96)" stroke-opacity="0" stroke-width="0" />
		<path id="Rectangle 2" d="M18.6666 24L28 24L28 4L18.6666 4L18.6666 24Z" fill="rgb(228,54,66)" fill-rule="evenodd" />
		<path id="Rectangle 2" d="M28 24L28 4L18.6666 4L18.6666 24L28 24Z" fill-rule="evenodd" stroke="rgb(150.96,150.96,150.96)" stroke-opacity="0" stroke-width="0" />
		<path id="Rectangle 1611" d="M4.66663 14L5.33329 14.6667L4.66663 14.6667L3.99996 14.6667L4.66663 14ZM4.66663 16C5.03482 16 5.33329 15.7015 5.33329 15.3333C5.33329 14.9651 5.03482 14.6667 4.66663 14.6667C4.29844 14.6667 3.99996 14.9651 3.99996 15.3333C3.99996 15.7015 4.29844 16 4.66663 16ZM5.33329 16L2.66663 16L2.66663 20L3.99996 20L3.99996 18.6667L4.66663 20L5.33329 18.6667L5.33329 20L6.66663 20L6.66663 16L5.33329 16ZM4.66663 17.3333L3.99996 16L3.99996 18.6667L5.33329 18.6667L5.33329 16L4.66663 17.3333ZM4.66663 17.3333C5.03482 17.3333 5.33329 17.6318 5.33329 18C5.33329 18.3682 5.03482 18.6667 4.66663 18.6667C4.29844 18.6667 3.99996 18.3682 3.99996 18C3.99996 17.6318 4.29844 17.3333 4.66663 17.3333Z" fill="url(#paint_linear_164)" fill-rule="evenodd" />
		<path id="Rectangle 1611" d="M4.66663 14L5.33329 14.6667L4.66663 14.6667L3.99996 14.6667L4.66663 14ZM4.66663 16C5.03482 16 5.33329 15.7015 5.33329 15.3333C5.33329 14.9651 5.03482 14.6667 4.66663 14.6667C4.29844 14.6667 3.99996 14.9651 3.99996 15.3333C3.99996 15.7015 4.29844 16 4.66663 16ZM5.33329 16L2.66663 16L2.66663 20L3.99996 20L3.99996 18.6667L4.66663 20L5.33329 18.6667L5.33329 20L6.66663 20L6.66663 16L5.33329 16ZM4.66663 17.3333L3.99996 16L3.99996 18.6667L5.33329 18.6667L5.33329 16L4.66663 17.3333ZM4.66663 17.3333C5.03482 17.3333 5.33329 17.6318 5.33329 18C5.33329 18.3682 5.03482 18.6667 4.66663 18.6667C4.29844 18.6667 3.99996 18.3682 3.99996 18C3.99996 17.6318 4.29844 17.3333 4.66663 17.3333Z" fill-rule="evenodd" stroke="rgb(150.96,150.96,150.96)" stroke-opacity="0" stroke-width="0" />
	</g>
</svg>
