<svg width="28" height="28" viewBox="0 0 28 28" fill="none" xmlns="http://www.w3.org/2000/svg">
<rect y="4" width="28" height="20" rx="3" fill="white"/>
<mask id="mask0_17_4969" style="mask-type:luminance" maskUnits="userSpaceOnUse" x="0" y="4" width="28" height="20">
<rect y="4" width="28" height="20" rx="3" fill="white"/>
</mask>
<g mask="url(#mask0_17_4969)">
<path fill-rule="evenodd" clip-rule="evenodd" d="M9.33334 24H18.6667V4H9.33334V24Z" fill="#146BBC"/>
<path fill-rule="evenodd" clip-rule="evenodd" d="M0 24H9.33333V4H0V24Z" fill="#E43642"/>
<path fill-rule="evenodd" clip-rule="evenodd" d="M18.6667 24H28V4H18.6667V24Z" fill="#E43642"/>
<path fill-rule="evenodd" clip-rule="evenodd" d="M4.66666 14L5.33332 14.6667L4.66666 14.6667L3.99999 14.6667L4.66666 14ZM4.66666 16C4.29847 16 3.99999 15.7015 3.99999 15.3333C3.99999 14.9651 4.29847 14.6667 4.66666 14.6667C5.03485 14.6667 5.33332 14.9651 5.33332 15.3333C5.33332 15.7015 5.03485 16 4.66666 16ZM5.33332 16H4.66666H3.99999H2.66666V20H3.99999V18.6667L4.66666 20L5.33332 18.6667V20H6.66666V16H5.33332ZM4.66666 17.3333L5.33332 16V18C5.33332 17.6318 5.03485 17.3333 4.66666 17.3333ZM3.99999 18C3.99999 17.6318 4.29847 17.3333 4.66666 17.3333L3.99999 16V18ZM4.66666 18.6667H3.99999V18C3.99999 18.3682 4.29847 18.6667 4.66666 18.6667ZM4.66666 18.6667H5.33332V18C5.33332 18.3682 5.03485 18.6667 4.66666 18.6667Z" fill="url(#paint0_linear_17_4969)"/>
</g>
<defs>
<linearGradient id="paint0_linear_17_4969" x1="2.66666" y1="14" x2="2.66666" y2="20" gradientUnits="userSpaceOnUse">
<stop stop-color="#F8D246"/>
<stop offset="1" stop-color="#F9CE2F"/>
</linearGradient>
</defs>
</svg>
