<svg width="28.000000" height="28.000000" viewBox="0 0 28 28" fill="none" xmlns="http://www.w3.org/2000/svg" xmlns:xlink="http://www.w3.org/1999/xlink">
	<desc>
			Created with Pixso.
	</desc>
	<defs/>
	<rect id="Montenegro" width="28.000000" height="28.000000" fill="#FFFFFF" fill-opacity="0"/>
	<rect id="Mask" y="4.000000" rx="3.000000" width="28.000000" height="20.000000" fill="#FFFFFF" fill-opacity="1.000000"/>
	<rect id="Mask" y="4.000000" rx="3.000000" width="28.000000" height="20.000000" stroke="#979797" stroke-opacity="0" stroke-width="0.000000"/>
	<mask id="mask17_5011" mask-type="alpha" maskUnits="userSpaceOnUse" x="0.000000" y="4.000000" width="28.000000" height="20.000000">
		<rect id="Mask" y="4.000000" rx="3.000000" width="28.000000" height="20.000000" fill="#FFFFFF" fill-opacity="1.000000"/>
		<rect id="Mask" y="4.000000" rx="3.000000" width="28.000000" height="20.000000" stroke="#979797" stroke-opacity="0" stroke-width="0.000000"/>
	</mask>
	<g mask="url(#mask17_5011)">
		<rect id="Mask Copy" y="4.000000" width="28.000000" height="20.000000" fill="#E6BE53" fill-opacity="1.000000"/>
		<rect id="Mask Copy" y="4.000000" width="28.000000" height="20.000000" stroke="#979797" stroke-opacity="0" stroke-width="0.000000"/>
	</g>
	<g mask="url(#mask17_5011)">
		<path id="Rectangle 2" d="M1.33 21.66C1.33 22.21 1.78 22.66 2.33 22.66L25.66 22.66C26.21 22.66 26.66 22.21 26.66 21.66L26.66 6.33C26.66 5.78 26.21 5.33 25.66 5.33L2.33 5.33C1.78 5.33 1.33 5.78 1.33 6.33L1.33 21.66Z" fill="#E01826" fill-opacity="1.000000" fill-rule="evenodd"/>
		<path id="Rectangle 2" d="M25.66 22.66C26.21 22.66 26.66 22.21 26.66 21.66L26.66 6.33C26.66 5.78 26.21 5.33 25.66 5.33L2.33 5.33C1.78 5.33 1.33 5.78 1.33 6.33L1.33 21.66C1.33 22.21 1.78 22.66 2.33 22.66L25.66 22.66Z" stroke="#979797" stroke-opacity="0" stroke-width="0.000000"/>
	</g>
	<g mask="url(#mask17_5011)">
		<mask id="mask_17_5014" fill="white">
			<path id="Line" d="M13.7892 7.40359L13.0233 7.65887C12.5532 7.81558 12.4123 8.41229 12.7627 8.76273L13.138 9.13806C13.2631 9.26309 13.4326 9.33331 13.6095 9.33331L14.3905 9.33331C14.5673 9.33331 14.7369 9.26309 14.8619 9.13806L15.2372 8.76273C15.5877 8.41229 15.4468 7.81558 14.9766 7.65887L14.2108 7.40359C14.074 7.35797 13.926 7.35797 13.7892 7.40359ZM14.4714 10.8619L14.6666 10.6667L15.6602 9.6731C15.8631 9.47018 16.1731 9.41989 16.4298 9.54822L16.506 9.58633C16.913 9.78983 17.001 10.3323 16.6793 10.654L16.6666 10.6667L15.6731 11.6602C15.4702 11.8631 15.4199 12.1731 15.5482 12.4298L15.962 13.2574C15.987 13.3073 16 13.3624 16 13.4182C16 13.6855 16.2813 13.8593 16.5203 13.7398L16.8432 13.5783C17.0844 13.4578 17.1365 13.1365 16.9459 12.9459C16.7917 12.7917 16.7917 12.5416 16.9459 12.3874L17.2568 12.0765C17.3075 12.0258 17.3497 11.9673 17.3817 11.9032L17.9673 10.7321C17.989 10.6886 18.0059 10.6429 18.0177 10.5957L18.3269 9.35883C18.4631 8.81421 19.1702 8.67142 19.507 9.12051L20.5333 10.4889C20.6199 10.6043 20.6666 10.7446 20.6666 10.8889L20.6666 13.1759C20.6666 13.2794 20.6425 13.3815 20.5963 13.4741L20.0484 14.5699C20.0163 14.634 19.9742 14.6925 19.9235 14.7432L18.7431 15.9235C18.6925 15.9742 18.634 16.0163 18.5699 16.0484L17.3963 16.6352C17.3549 16.6559 17.3092 16.6667 17.2629 16.6667C16.9483 16.6667 16.8482 17.0908 17.1296 17.2315L17.2841 17.3087C17.3167 17.325 17.3465 17.3465 17.3722 17.3722L17.6666 17.6667C17.8507 17.8507 18.1492 17.8507 18.3333 17.6667C18.5174 17.4826 18.8159 17.4826 19 17.6667L19.0541 17.7208C19.2208 17.8875 19.2622 18.1423 19.1567 18.3532L18.8509 18.9648C18.738 19.1906 18.5071 19.3333 18.2546 19.3333L17.4907 19.3333C17.3872 19.3333 17.2851 19.3092 17.1926 19.2629L16.1987 18.7661C16.0697 18.7015 15.9651 18.5969 15.9006 18.4679L15.5983 17.8634C15.468 17.6026 15.1204 17.5462 14.9143 17.7524C14.7703 17.8964 14.7479 18.1219 14.8609 18.2914L15.6302 19.4453C15.8344 19.7516 15.7516 20.1656 15.4453 20.3698L14.3698 21.0868C14.1458 21.2361 13.8541 21.2361 13.6302 21.0868L12.5547 20.3698C12.2483 20.1656 12.1655 19.7516 12.3698 19.4453L13.1391 18.2914C13.252 18.1219 13.2297 17.8964 13.0857 17.7524C12.8795 17.5462 12.532 17.6026 12.4016 17.8634L12.0994 18.4679C12.0349 18.5969 11.9302 18.7015 11.8012 18.7661L10.8074 19.2629C10.7148 19.3092 10.6128 19.3333 10.5093 19.3333L9.74533 19.3333C9.49283 19.3333 9.26198 19.1906 9.14905 18.9648L8.87747 18.4216C8.75157 18.1698 8.80092 17.8657 8.99998 17.6667C9.18408 17.4826 9.48254 17.4826 9.66664 17.6667C9.85074 17.8507 10.1492 17.8507 10.3333 17.6667L10.5901 17.4098C10.6408 17.3592 10.6993 17.317 10.7634 17.2849L10.8704 17.2315C11.1517 17.0908 11.0516 16.6667 10.737 16.6667C10.6908 16.6667 10.6451 16.6559 10.6037 16.6352L9.43008 16.0484C9.36598 16.0163 9.30748 15.9742 9.25682 15.9235L8.07648 14.7432C8.02582 14.6925 7.98364 14.634 7.9516 14.5699L7.4037 13.4741C7.35741 13.3815 7.33331 13.2794 7.33331 13.1759L7.33331 10.8889C7.33331 10.7446 7.3801 10.6043 7.46664 10.4889L8.49292 9.12051C8.82974 8.67142 9.53687 8.81421 9.67302 9.35883L9.98222 10.5957C9.99403 10.6429 10.011 10.6886 10.0327 10.7321L10.6183 11.9032C10.6503 11.9673 10.6925 12.0258 10.7431 12.0765L11.0541 12.3874C11.2083 12.5416 11.2083 12.7917 11.0541 12.9459C10.8635 13.1365 10.9156 13.4578 11.1567 13.5783L11.4796 13.7398C11.7187 13.8593 12 13.6855 12 13.4182C12 13.3624 12.013 13.3073 12.0379 13.2574L12.4518 12.4298C12.5801 12.1731 12.5298 11.8631 12.3269 11.6602L11.3333 10.6667L11.3207 10.654C10.9989 10.3323 11.0869 9.78983 11.4939 9.58633L11.5702 9.54822C11.8269 9.41989 12.1368 9.47018 12.3398 9.6731L13.3333 10.6667L13.5286 10.8619C13.7889 11.1223 14.211 11.1223 14.4714 10.8619Z" clip-rule="evenodd" fill="" fill-opacity="1.000000" fill-rule="evenodd"/>
		</mask>
		<path id="Line" d="M13.7892 7.40359L13.0233 7.65887C12.5532 7.81558 12.4123 8.41229 12.7627 8.76273L13.138 9.13806C13.2631 9.26309 13.4326 9.33331 13.6095 9.33331L14.3905 9.33331C14.5673 9.33331 14.7369 9.26309 14.8619 9.13806L15.2372 8.76273C15.5877 8.41229 15.4468 7.81558 14.9766 7.65887L14.2108 7.40359C14.074 7.35797 13.926 7.35797 13.7892 7.40359ZM14.4714 10.8619L14.6666 10.6667L15.6602 9.6731C15.8631 9.47018 16.1731 9.41989 16.4298 9.54822L16.506 9.58633C16.913 9.78983 17.001 10.3323 16.6793 10.654L16.6666 10.6667L15.6731 11.6602C15.4702 11.8631 15.4199 12.1731 15.5482 12.4298L15.962 13.2574C15.987 13.3073 16 13.3624 16 13.4182C16 13.6855 16.2813 13.8593 16.5203 13.7398L16.8432 13.5783C17.0844 13.4578 17.1365 13.1365 16.9459 12.9459C16.7917 12.7917 16.7917 12.5416 16.9459 12.3874L17.2568 12.0765C17.3075 12.0258 17.3497 11.9673 17.3817 11.9032L17.9673 10.7321C17.989 10.6886 18.0059 10.6429 18.0177 10.5957L18.3269 9.35883C18.4631 8.81421 19.1702 8.67142 19.507 9.12051L20.5333 10.4889C20.6199 10.6043 20.6666 10.7446 20.6666 10.8889L20.6666 13.1759C20.6666 13.2794 20.6425 13.3815 20.5963 13.4741L20.0484 14.5699C20.0163 14.634 19.9742 14.6925 19.9235 14.7432L18.7431 15.9235C18.6925 15.9742 18.634 16.0163 18.5699 16.0484L17.3963 16.6352C17.3549 16.6559 17.3092 16.6667 17.2629 16.6667C16.9483 16.6667 16.8482 17.0908 17.1296 17.2315L17.2841 17.3087C17.3167 17.325 17.3465 17.3465 17.3722 17.3722L17.6666 17.6667C17.8507 17.8507 18.1492 17.8507 18.3333 17.6667C18.5174 17.4826 18.8159 17.4826 19 17.6667L19.0541 17.7208C19.2208 17.8875 19.2622 18.1423 19.1567 18.3532L18.8509 18.9648C18.738 19.1906 18.5071 19.3333 18.2546 19.3333L17.4907 19.3333C17.3872 19.3333 17.2851 19.3092 17.1926 19.2629L16.1987 18.7661C16.0697 18.7015 15.9651 18.5969 15.9006 18.4679L15.5983 17.8634C15.468 17.6026 15.1204 17.5462 14.9143 17.7524C14.7703 17.8964 14.7479 18.1219 14.8609 18.2914L15.6302 19.4453C15.8344 19.7516 15.7516 20.1656 15.4453 20.3698L14.3698 21.0868C14.1458 21.2361 13.8541 21.2361 13.6302 21.0868L12.5547 20.3698C12.2483 20.1656 12.1655 19.7516 12.3698 19.4453L13.1391 18.2914C13.252 18.1219 13.2297 17.8964 13.0857 17.7524C12.8795 17.5462 12.532 17.6026 12.4016 17.8634L12.0994 18.4679C12.0349 18.5969 11.9302 18.7015 11.8012 18.7661L10.8074 19.2629C10.7148 19.3092 10.6128 19.3333 10.5093 19.3333L9.74533 19.3333C9.49283 19.3333 9.26198 19.1906 9.14905 18.9648L8.87747 18.4216C8.75157 18.1698 8.80092 17.8657 8.99998 17.6667C9.18408 17.4826 9.48254 17.4826 9.66664 17.6667C9.85074 17.8507 10.1492 17.8507 10.3333 17.6667L10.5901 17.4098C10.6408 17.3592 10.6993 17.317 10.7634 17.2849L10.8704 17.2315C11.1517 17.0908 11.0516 16.6667 10.737 16.6667C10.6908 16.6667 10.6451 16.6559 10.6037 16.6352L9.43008 16.0484C9.36598 16.0163 9.30748 15.9742 9.25682 15.9235L8.07648 14.7432C8.02582 14.6925 7.98364 14.634 7.9516 14.5699L7.4037 13.4741C7.35741 13.3815 7.33331 13.2794 7.33331 13.1759L7.33331 10.8889C7.33331 10.7446 7.3801 10.6043 7.46664 10.4889L8.49292 9.12051C8.82974 8.67142 9.53687 8.81421 9.67302 9.35883L9.98222 10.5957C9.99403 10.6429 10.011 10.6886 10.0327 10.7321L10.6183 11.9032C10.6503 11.9673 10.6925 12.0258 10.7431 12.0765L11.0541 12.3874C11.2083 12.5416 11.2083 12.7917 11.0541 12.9459C10.8635 13.1365 10.9156 13.4578 11.1567 13.5783L11.4796 13.7398C11.7187 13.8593 12 13.6855 12 13.4182C12 13.3624 12.013 13.3073 12.0379 13.2574L12.4518 12.4298C12.5801 12.1731 12.5298 11.8631 12.3269 11.6602L11.3333 10.6667L11.3207 10.654C10.9989 10.3323 11.0869 9.78983 11.4939 9.58633L11.5702 9.54822C11.8269 9.41989 12.1368 9.47018 12.3398 9.6731L13.3333 10.6667L13.5286 10.8619C13.7889 11.1223 14.211 11.1223 14.4714 10.8619Z" clip-rule="evenodd" fill="#E6BE53" fill-opacity="1.000000" fill-rule="evenodd" mask="url(#mask_17_5014)"/>
		<path id="Line" d="" fill="#979797" fill-opacity="0.000000" fill-rule="nonzero"/>
	</g>
	<g mask="url(#mask17_5011)">
		<path id="Oval 205" d="M12.66 15.33C12.66 15.57 13.08 15.66 13.19 15.44C13.43 15.02 13.71 14.66 14 14.66C14.28 14.66 14.56 15.02 14.8 15.44C14.92 15.66 15.33 15.57 15.33 15.33L15.33 15.33C15.33 14.22 14.73 13.33 14 13.33C13.26 13.33 12.66 14.22 12.66 15.33L12.66 15.33Z" fill="#215F90" fill-opacity="1.000000" fill-rule="evenodd"/>
		<path id="Oval 205" d="M14 14.66C14.28 14.66 14.56 15.02 14.8 15.44C14.92 15.66 15.33 15.57 15.33 15.33C15.33 14.22 14.73 13.33 14 13.33C13.26 13.33 12.66 14.22 12.66 15.33C12.66 15.57 13.08 15.66 13.19 15.44C13.43 15.02 13.71 14.66 14 14.66Z" stroke="#979797" stroke-opacity="0" stroke-width="0.000000"/>
	</g>
</svg>
