<svg viewBox="0 0 28 28" xmlns="http://www.w3.org/2000/svg" xmlns:xlink="http://www.w3.org/1999/xlink" width="28.000000" height="28.000000" fill="none" customFrame="#000000">
	<defs>
		<filter id="pixso_custom_mask_type_alpha">
			<feColorMatrix type="matrix" values="0 0 0 0 1 0 0 0 0 1 0 0 0 0 1 0 0 0 1 0 " />
		</filter>
	</defs>
	<mask id="mask_456" width="28.000000" height="20.000000" x="0.000000" y="4.000000" maskUnits="userSpaceOnUse">
		<g filter="url(#pixso_custom_mask_type_alpha)">
			<rect id="Mask" width="28.000000" height="20.000000" x="0.000000" y="4.000000" rx="3.000000" fill="rgb(255,255,255)" />
			<rect id="Mask" width="28.000000" height="20.000000" x="0.000000" y="4.000000" rx="3.000000" stroke="rgb(150.96,150.96,150.96)" stroke-opacity="0" stroke-width="0" />
		</g>
	</mask>
	<rect id="Mozambique" width="28.000000" height="28.000000" x="0.000000" y="0.000000" fill="rgb(255,255,255)" fill-opacity="0" />
	<rect id="Mask" width="28.000000" height="20.000000" x="0.000000" y="4.000000" rx="3.000000" fill="rgb(255,255,255)" />
	<rect id="Mask" width="28.000000" height="20.000000" x="0.000000" y="4.000000" rx="3.000000" stroke="rgb(150.96,150.96,150.96)" stroke-opacity="0" stroke-width="0" />
	<g mask="url(#mask_456)">
		<path id="Rectangle 2" d="M0 24L28 24L28 18.6667L0 18.6667L0 24Z" fill="rgb(255,229,71)" fill-rule="evenodd" />
		<path id="Rectangle 2" d="M28 24L28 18.6667L0 18.6667L0 24L28 24Z" fill-rule="evenodd" stroke="rgb(150.96,150.96,150.96)" stroke-opacity="0" stroke-width="0" />
		<path id="Rectangle 2" d="M0 9.33333L28 9.33333L28 4L0 4L0 9.33333Z" fill="rgb(17,140,129)" fill-rule="evenodd" />
		<path id="Rectangle 2" d="M28 9.33333L28 4L0 4L0 9.33333L28 9.33333Z" fill-rule="evenodd" stroke="rgb(150.96,150.96,150.96)" stroke-opacity="0" stroke-width="0" />
		<path id="Rectangle 2" d="M0 18.6666L28 18.6666L28 9.33331L0 9.33331L0 18.6666Z" fill="rgb(255,255,255)" fill-rule="evenodd" />
		<path id="Rectangle 2" d="M28 18.6666L28 9.33331L0 9.33331L0 18.6666L28 18.6666Z" fill-rule="evenodd" stroke="rgb(150.96,150.96,150.96)" stroke-opacity="0" stroke-width="0" />
		<path id="Rectangle 2" d="M0 17.3334L28 17.3334L28 10.6667L0 10.6667L0 17.3334Z" fill="rgb(38,38,38)" fill-rule="evenodd" />
		<path id="Rectangle 2" d="M28 17.3334L28 10.6667L0 10.6667L0 17.3334L28 17.3334Z" fill-rule="evenodd" stroke="rgb(150.96,150.96,150.96)" stroke-opacity="0" stroke-width="0" />
		<path id="Rectangle 83" d="M0 4L13.3333 14L0 24L0 4Z" fill="rgb(239,33,71)" fill-rule="evenodd" />
		<path id="Rectangle 83" d="M13.3333 14L0 24L0 4L13.3333 14Z" fill-rule="evenodd" stroke="rgb(150.96,150.96,150.96)" stroke-opacity="0" stroke-width="0" />
		<path id="Star 27" d="M4.66665 15.2741L2.70736 16.6967L3.45492 14.3937L1.49646 12.97L3.91776 12.9693L4.66665 10.6667L5.41553 12.9693L7.83683 12.97L5.87837 14.3937L6.62593 16.6967L4.66665 15.2741Z" fill="rgb(253,228,68)" fill-rule="evenodd" />
		<path id="Star 27" d="M2.70736 16.6967L3.45492 14.3937L1.49646 12.97L3.91776 12.9693L4.66665 10.6667L5.41553 12.9693L7.83683 12.97L5.87837 14.3937L6.62593 16.6967L4.66665 15.2741L2.70736 16.6967Z" fill-rule="evenodd" stroke="rgb(150.96,150.96,150.96)" stroke-opacity="0" stroke-width="0" />
	</g>
</svg>
