<svg viewBox="0 0 28 28" xmlns="http://www.w3.org/2000/svg" xmlns:xlink="http://www.w3.org/1999/xlink" width="28.000000" height="28.000000" fill="none" customFrame="#000000">
	<defs>
		<filter id="pixso_custom_mask_type_alpha">
			<feColorMatrix type="matrix" values="0 0 0 0 1 0 0 0 0 1 0 0 0 0 1 0 0 0 1 0 " />
		</filter>
	</defs>
	<mask id="mask_476" width="28.000000" height="20.000000" x="0.000000" y="4.000000" maskUnits="userSpaceOnUse">
		<g filter="url(#pixso_custom_mask_type_alpha)">
			<rect id="Mask" width="28.000000" height="20.000000" x="0.000000" y="4.000000" rx="3.000000" fill="rgb(255,255,255)" />
			<rect id="Mask" width="28.000000" height="20.000000" x="0.000000" y="4.000000" rx="3.000000" stroke="rgb(150.96,150.96,150.96)" stroke-opacity="0" stroke-width="0" />
		</g>
	</mask>
	<rect id="Namibia" width="28.000000" height="28.000000" x="0.000000" y="0.000000" fill="rgb(255,255,255)" fill-opacity="0" />
	<rect id="Mask" width="28.000000" height="20.000000" x="0.000000" y="4.000000" rx="3.000000" fill="rgb(255,255,255)" />
	<rect id="Mask" width="28.000000" height="20.000000" x="0.000000" y="4.000000" rx="3.000000" stroke="rgb(150.96,150.96,150.96)" stroke-opacity="0" stroke-width="0" />
	<g mask="url(#mask_476)">
		<path id="Rectangle 2" d="M0 17.3333L28 4L0 4L0 17.3333Z" fill="rgb(12,71,153)" fill-rule="evenodd" />
		<path id="Rectangle 2" d="M28 4L0 4L0 17.3333L28 4Z" fill-rule="evenodd" stroke="rgb(150.96,150.96,150.96)" stroke-opacity="0" stroke-width="0" />
		<path id="Star 31" d="M4.66667 10L3.64618 11.1303L3.72386 9.60948L2.20299 9.68716L3.33333 8.66667L2.20299 7.64618L3.72386 7.72386L3.64618 6.20299L4.66667 7.33333L5.68716 6.20299L5.60948 7.72386L7.13035 7.64618L6 8.66667L7.13035 9.68716L5.60948 9.60948L5.68716 11.1303L4.66667 10Z" fill="rgb(255,210,67)" fill-rule="evenodd" />
		<path id="Star 31" d="M3.64618 11.1303L3.72386 9.60948L2.20299 9.68716L3.33333 8.66667L2.20299 7.64618L3.72386 7.72386L3.64618 6.20299L4.66667 7.33333L5.68716 6.20299L5.60948 7.72386L7.13035 7.64618L6 8.66667L7.13035 9.68716L5.60948 9.60948L5.68716 11.1303L4.66667 10L3.64618 11.1303Z" fill-rule="evenodd" stroke="rgb(150.96,150.96,150.96)" stroke-opacity="0" stroke-width="0" />
		<path id="Rectangle 2" d="M0 24L28 24L28 10.6667L0 24Z" fill="rgb(27,172,85)" fill-rule="evenodd" />
		<path id="Rectangle 2" d="M28 24L28 10.6667L0 24L28 24Z" fill-rule="evenodd" stroke="rgb(150.96,150.96,150.96)" stroke-opacity="0" stroke-width="0" />
		<path id="Rectangle 2" d="M3.08239 26.6667L30.1707 9.74004L24.9176 1.33331L-2.17072 18.26L3.08239 26.6667Z" fill="rgb(255,255,255)" fill-rule="evenodd" />
		<path id="Rectangle 2" d="M30.1707 9.74004L24.9176 1.33331L-2.17072 18.26L3.08239 26.6667L30.1707 9.74004Z" fill-rule="evenodd" stroke="rgb(150.96,150.96,150.96)" stroke-opacity="0" stroke-width="0" />
		<path id="Rectangle 2" d="M-0.629192 27.0719L32.162 6.58169L28.6292 0.92804L-4.16199 21.4183L-0.629192 27.0719Z" fill="rgb(229,35,71)" fill-rule="evenodd" />
		<path id="Rectangle 2" d="M32.162 6.58169L28.6292 0.92804L-4.16199 21.4183L-0.629192 27.0719L32.162 6.58169Z" fill-rule="evenodd" stroke="rgb(150.96,150.96,150.96)" stroke-opacity="0" stroke-width="0" />
	</g>
</svg>
