<svg width="28.000000" height="28.000000" viewBox="0 0 28 28" fill="none" xmlns="http://www.w3.org/2000/svg" xmlns:xlink="http://www.w3.org/1999/xlink">
	<desc>
			Created with Pixso.
	</desc>
	<defs/>
	<rect id="Nepal" width="28.000000" height="28.000000" fill="#FFFFFF" fill-opacity="0"/>
	<rect id="Mask" y="4.000000" rx="3.000000" width="28.000000" height="20.000000" fill="#FFFFFF" fill-opacity="1.000000"/>
	<rect id="Mask" x="0.250000" y="4.250000" rx="3.000000" width="27.500000" height="19.500000" stroke="#D6D8DD" stroke-opacity="1.000000" stroke-width="0.500000"/>
	<mask id="mask17_4869" mask-type="alpha" maskUnits="userSpaceOnUse" x="0.000000" y="4.000000" width="28.000000" height="20.000000">
		<rect id="Mask" y="4.000000" rx="3.000000" width="28.000000" height="20.000000" fill="#FFFFFF" fill-opacity="1.000000"/>
		<rect id="Mask" x="0.250000" y="4.250000" rx="3.000000" width="27.500000" height="19.500000" stroke="#F5F5F5" stroke-opacity="1.000000" stroke-width="0.500000"/>
	</mask>
	<path id="Mask" d="M0 6C0 4.89 0.89 4 2 4L2.46 4C2.59 4 2.72 4.03 2.83 4.11L15 12.22C16.1 12.95 15.58 14.66 14.26 14.66L8 14.66L15.99 21.66C16.92 22.47 16.34 24 15.11 24L2 24C0.89 24 0 23.1 0 22L0 6Z" fill="#FFFFFF" fill-opacity="1.000000" fill-rule="evenodd"/>
	<path id="Mask" d="M2.46 4C2.59 4 2.72 4.03 2.83 4.11L15 12.22C16.1 12.95 15.58 14.66 14.26 14.66L8 14.66L15.99 21.66C16.92 22.47 16.34 24 15.11 24L2 24C0.89 24 0 23.1 0 22L0 6C0 4.89 0.89 4 2 4L2.46 4Z" stroke="#979797" stroke-opacity="0" stroke-width="0.000000"/>
	<mask id="mask17_4871" mask-type="alpha" maskUnits="userSpaceOnUse" x="0.000000" y="4.000000" width="17.997206" height="20.000000">
		<path id="Mask" d="M0 6C0 4.89 0.89 4 2 4L2.46 4C2.59 4 2.72 4.03 2.83 4.11L15 12.22C16.1 12.95 15.58 14.66 14.26 14.66L8 14.66L15.99 21.66C16.92 22.47 16.34 24 15.11 24L2 24C0.89 24 0 23.1 0 22L0 6Z" fill="#FFFFFF" fill-opacity="1.000000" fill-rule="evenodd"/>
		<path id="Mask" d="M2.46 4C2.59 4 2.72 4.03 2.83 4.11L15 12.22C16.1 12.95 15.58 14.66 14.26 14.66L8 14.66L15.99 21.66C16.92 22.47 16.34 24 15.11 24L2 24C0.89 24 0 23.1 0 22L0 6C0 4.89 0.89 4 2 4L2.46 4Z" stroke="#979797" stroke-opacity="0" stroke-width="0.000000"/>
	</mask>
	<g mask="url(#mask17_4871)">
		<path id="Mask Copy" d="M0 4L2.46 4C2.59 4 2.72 4.03 2.83 4.11L15 12.22C16.1 12.95 15.58 14.66 14.26 14.66L8 14.66L15.99 21.66C16.92 22.47 16.34 24 15.11 24L0 24L0 4Z" fill="#EE1B44" fill-opacity="1.000000" fill-rule="evenodd"/>
		<path id="Mask Copy" d="M10.02 14.66L14.26 14.66C15.58 14.66 16.1 12.95 15 12.22L2.83 4.11C2.72 4.03 2.59 4 2.46 4L0 4L0 24L15.11 24C16.34 24 16.92 22.47 15.99 21.66L9.52 16L8 14.66L10.02 14.66ZM1.33 22.66L15.11 22.66L7.12 15.67Q6.9 15.48 6.78 15.21Q6.66 14.95 6.66 14.66Q6.66 14.11 7.05 13.72Q7.44 13.33 8 13.33L14.26 13.33L2.26 5.33L1.33 5.33L1.33 22.66Z" fill="#0543A8" fill-opacity="1.000000" fill-rule="evenodd"/>
	</g>
	<g mask="url(#mask17_4871)">
		<mask id="mask_17_4873" fill="white">
			<path id="Star 93" d="M6.8511 11.8008C7.2352 11.6955 7.58932 11.5515 7.90253 11.3762C7.59186 12.5045 6.55835 13.3333 5.33127 13.3333C4.10416 13.3333 3.07065 12.5045 2.76001 11.3762C3.07407 11.552 3.42929 11.6963 3.81461 11.8017L4.33334 11.3333L3.48557 10.568L4.62622 10.6263L4.56796 9.4856L5.33334 10.3333L6.09869 9.4856L6.04044 10.6263L7.18109 10.568L6.33334 11.3333L6.8511 11.8008ZM5.33334 20L4.31287 21.1304L4.39053 19.6095L2.86966 19.6872L4 18.6667L2.86966 17.6462L4.39053 17.7239L4.31287 16.203L5.33334 17.3333L6.35382 16.203L6.27615 17.7239L7.79703 17.6462L6.66669 18.6667L7.79703 19.6872L6.27615 19.6095L6.35382 21.1304L5.33334 20Z" clip-rule="evenodd" fill="" fill-opacity="1.000000" fill-rule="evenodd"/>
		</mask>
		<path id="Star 93" d="M6.8511 11.8008C7.2352 11.6955 7.58932 11.5515 7.90253 11.3762C7.59186 12.5045 6.55835 13.3333 5.33127 13.3333C4.10416 13.3333 3.07065 12.5045 2.76001 11.3762C3.07407 11.552 3.42929 11.6963 3.81461 11.8017L4.33334 11.3333L3.48557 10.568L4.62622 10.6263L4.56796 9.4856L5.33334 10.3333L6.09869 9.4856L6.04044 10.6263L7.18109 10.568L6.33334 11.3333L6.8511 11.8008ZM5.33334 20L4.31287 21.1304L4.39053 19.6095L2.86966 19.6872L4 18.6667L2.86966 17.6462L4.39053 17.7239L4.31287 16.203L5.33334 17.3333L6.35382 16.203L6.27615 17.7239L7.79703 17.6462L6.66669 18.6667L7.79703 19.6872L6.27615 19.6095L6.35382 21.1304L5.33334 20Z" clip-rule="evenodd" fill="#FFFFFF" fill-opacity="1.000000" fill-rule="evenodd" mask="url(#mask_17_4873)"/>
		<path id="Star 93" d="" fill="#979797" fill-opacity="0.000000" fill-rule="nonzero"/>
	</g>
</svg>
