<svg width="28" height="28" viewBox="0 0 28 28" fill="none" xmlns="http://www.w3.org/2000/svg">
<mask id="mask0_107628_800" style="mask-type:alpha" maskUnits="userSpaceOnUse" x="0" y="3" width="28" height="21">
<rect y="3.99496" width="28" height="20" rx="3" fill="#C4C4C4"/>
</mask>
<g mask="url(#mask0_107628_800)">
<rect y="3.99496" width="28" height="6.67" fill="#0D39A6"/>
<rect y="10.6649" width="28" height="6.67" fill="#DB4F40"/>
<rect y="17.3351" width="28" height="6.67" fill="#41924C"/>
<circle cx="10.955" cy="13.995" r="5.80865" fill="#F7E54D" stroke="black" stroke-width="0.382703"/>
<path d="M10.0349 12.1949C10.1949 12.6429 10.5549 12.7549 10.7149 12.7549V13.1549C10.2349 13.1549 10.1549 13.0349 10.0349 12.9549C9.8244 12.8146 9.81712 12.6305 9.75489 12.1949C9.71489 11.9149 9.64823 11.7149 9.59489 11.5949C9.67489 11.6083 9.87489 11.7469 10.0349 12.1949Z" fill="black"/>
<path d="M10.0349 16.3949C10.1949 15.9469 10.5549 15.6749 10.7149 15.6749V15.1149C10.2349 15.1149 10.1549 15.2349 10.0349 15.3149C9.8244 15.4553 9.81712 15.9194 9.75489 16.3549C9.71489 16.6349 9.64823 17.0749 9.59489 17.1949C9.67489 17.1816 9.87489 16.8429 10.0349 16.3949Z" fill="black"/>
<path d="M11.8749 16.3949C11.7149 15.9469 11.3549 15.6749 11.1949 15.6749V15.1149C11.6749 15.1149 11.7549 15.2349 11.8749 15.3149C12.0854 15.4553 12.0927 15.9194 12.1549 16.3549C12.1949 16.6349 12.2616 17.0749 12.3149 17.1949C12.2349 17.1816 12.0349 16.8429 11.8749 16.3949Z" fill="black"/>
<path d="M11.8749 12.1949C11.7149 12.6429 11.3549 12.7549 11.1949 12.7549V13.1549C11.6749 13.1549 11.7549 13.0349 11.8749 12.9549C12.0854 12.8146 12.0927 12.6305 12.1549 12.1949C12.1949 11.9149 12.2616 11.7149 12.3149 11.5949C12.2349 11.6083 12.0349 11.7469 11.8749 12.1949Z" fill="black"/>
<path d="M10.6349 9.63494C10.0909 9.82694 10.0616 10.4349 10.1149 10.7149L10.3949 10.5949C11.2909 10.3069 11.7816 9.35494 11.9149 8.91494C11.7149 9.07494 11.1789 9.44294 10.6349 9.63494Z" fill="black"/>
<path d="M10.7149 8.31494H11.1949V17.9949H10.7149V8.31494Z" fill="black"/>
<path d="M12.9549 19.3549C12.9549 19.3549 12.2749 19.8749 10.9549 19.8749C9.63489 19.8749 8.9549 19.3549 8.9549 19.3549L10.0529 18.0749C10.3346 17.9714 10.6383 17.9149 10.9549 17.9149C11.2715 17.9149 11.5752 17.9714 11.8569 18.0749L12.9549 19.3549Z" fill="black"/>
<path d="M11.5949 16.6749C11.5949 17.2272 11.3084 17.6749 10.9549 17.6749C10.6014 17.6749 10.3149 17.2272 10.3149 16.6749C10.3149 16.1227 10.6014 15.6749 10.9549 15.6749C11.3084 15.6749 11.5949 16.1227 11.5949 16.6749Z" fill="black"/>
<path d="M11.7549 11.8349C11.7549 12.2768 11.3967 12.6349 10.9549 12.6349C10.5131 12.6349 10.1549 12.2768 10.1549 11.8349C10.1549 11.3931 10.5131 11.0349 10.9549 11.0349C11.3967 11.0349 11.7549 11.3931 11.7549 11.8349Z" fill="black"/>
<path d="M11.7549 14.1149C11.7549 14.4021 11.3967 14.6349 10.9549 14.6349C10.5131 14.6349 10.1549 14.4021 10.1549 14.1149C10.1549 13.8278 10.5131 13.5949 10.9549 13.5949C11.3967 13.5949 11.7549 13.8278 11.7549 14.1149Z" fill="black"/>
<path d="M9.99489 13.1949H11.9149V13.5949H9.99489V13.1949Z" fill="black"/>
<path d="M9.99489 14.6349H11.9149V15.0349H9.99489V14.6349Z" fill="black"/>
</g>
</svg>
