<svg width="29.000000" height="28.000000" viewBox="0 0 29 28" fill="none" xmlns="http://www.w3.org/2000/svg" xmlns:xlink="http://www.w3.org/1999/xlink">
	<desc>
			Created with Pixso.
	</desc>
	<defs/>
	<rect id="North Macedonia" width="28.000000" height="28.000000" fill="#FFFFFF" fill-opacity="0"/>
	<rect id="Mask" y="4.000000" rx="3.000000" width="28.000000" height="20.000000" fill="#FFFFFF" fill-opacity="1.000000"/>
	<rect id="Mask" y="4.000000" rx="3.000000" width="28.000000" height="20.000000" stroke="#979797" stroke-opacity="0" stroke-width="0.000000"/>
	<mask id="mask17_4985" mask-type="alpha" maskUnits="userSpaceOnUse" x="0.000000" y="4.000000" width="28.000000" height="20.000000">
		<rect id="Mask" y="4.000000" rx="3.000000" width="28.000000" height="20.000000" fill="#FFFFFF" fill-opacity="1.000000"/>
		<rect id="Mask" y="4.000000" rx="3.000000" width="28.000000" height="20.000000" stroke="#979797" stroke-opacity="0" stroke-width="0.000000"/>
	</mask>
	<g mask="url(#mask17_4985)">
		<rect id="Mask Copy" y="4.000000" width="28.000000" height="20.000000" fill="#E81B26" fill-opacity="1.000000"/>
		<rect id="Mask Copy" y="4.000000" width="28.000000" height="20.000000" stroke="#979797" stroke-opacity="0" stroke-width="0.000000"/>
	</g>
	<g mask="url(#mask17_4985)">
		<path id="Oval 12" d="M14 17.33C15.84 17.33 17.33 15.84 17.33 14C17.33 12.15 15.84 10.66 14 10.66C12.15 10.66 10.66 12.15 10.66 14C10.66 15.84 12.15 17.33 14 17.33Z" fill="#FFE94F" fill-opacity="1.000000" fill-rule="evenodd"/>
		<path id="Oval 12" d="M17.33 14C17.33 12.15 15.84 10.66 14 10.66C12.15 10.66 10.66 12.15 10.66 14C10.66 15.84 12.15 17.33 14 17.33C15.84 17.33 17.33 15.84 17.33 14Z" stroke="#979797" stroke-opacity="0" stroke-width="0.000000"/>
	</g>
	<g mask="url(#mask17_4985)">
		<mask id="mask_17_4988" fill="white">
			<path id="Rectangle 346" d="M13.0846 9.42307L12 4L16 4L14.9154 9.4231C14.6194 9.3642 14.3133 9.33334 14 9.33334C13.6867 9.33334 13.3806 9.3642 13.0846 9.42307ZM10.2081 11.2793C10.4094 10.9992 10.641 10.7423 10.898 10.5135L1.96167 0.46936L-0.714844 3.44196L10.2081 11.2793ZM9.37967 13.34C9.34915 13.5556 9.33334 13.7759 9.33334 14C9.33334 14.2241 9.34915 14.4444 9.37967 14.6601L3.05176e-05 16L3.05176e-05 12L9.37967 13.34ZM10.898 17.4865C10.641 17.2577 10.4094 17.0008 10.2081 16.7207L-0.714844 24.5581L1.96167 27.5306L10.898 17.4865ZM17.102 10.5135C17.3591 10.7423 17.5906 10.9992 17.7919 11.2793L28.7149 3.44196L26.0384 0.46936L17.102 10.5135ZM13.0846 18.5769L12 24L16 24L14.9154 18.5769C14.6194 18.6358 14.3133 18.6667 14 18.6667C13.6867 18.6667 13.3806 18.6358 13.0846 18.5769ZM17.7919 16.7207C17.5906 17.0008 17.3591 17.2577 17.102 17.4865L26.0384 27.5306L28.7149 24.5581L17.7919 16.7207ZM18.6204 13.34C18.6509 13.5556 18.6667 13.7759 18.6667 14C18.6667 14.2241 18.6509 14.4444 18.6204 14.6601L28 16L28 12L18.6204 13.34Z" clip-rule="evenodd" fill="" fill-opacity="1.000000" fill-rule="evenodd"/>
		</mask>
		<path id="Rectangle 346" d="M13.0846 9.42307L12 4L16 4L14.9154 9.4231C14.6194 9.3642 14.3133 9.33334 14 9.33334C13.6867 9.33334 13.3806 9.3642 13.0846 9.42307ZM10.2081 11.2793C10.4094 10.9992 10.641 10.7423 10.898 10.5135L1.96167 0.46936L-0.714844 3.44196L10.2081 11.2793ZM9.37967 13.34C9.34915 13.5556 9.33334 13.7759 9.33334 14C9.33334 14.2241 9.34915 14.4444 9.37967 14.6601L3.05176e-05 16L3.05176e-05 12L9.37967 13.34ZM10.898 17.4865C10.641 17.2577 10.4094 17.0008 10.2081 16.7207L-0.714844 24.5581L1.96167 27.5306L10.898 17.4865ZM17.102 10.5135C17.3591 10.7423 17.5906 10.9992 17.7919 11.2793L28.7149 3.44196L26.0384 0.46936L17.102 10.5135ZM13.0846 18.5769L12 24L16 24L14.9154 18.5769C14.6194 18.6358 14.3133 18.6667 14 18.6667C13.6867 18.6667 13.3806 18.6358 13.0846 18.5769ZM17.7919 16.7207C17.5906 17.0008 17.3591 17.2577 17.102 17.4865L26.0384 27.5306L28.7149 24.5581L17.7919 16.7207ZM18.6204 13.34C18.6509 13.5556 18.6667 13.7759 18.6667 14C18.6667 14.2241 18.6509 14.4444 18.6204 14.6601L28 16L28 12L18.6204 13.34Z" clip-rule="evenodd" fill="#FFE94F" fill-opacity="1.000000" fill-rule="evenodd" mask="url(#mask_17_4988)"/>
		<path id="Rectangle 346" d="" fill="#979797" fill-opacity="0.000000" fill-rule="nonzero"/>
	</g>
</svg>
