<svg width="28.000000" height="28.000000" viewBox="0 0 28 28" fill="none" xmlns="http://www.w3.org/2000/svg" xmlns:xlink="http://www.w3.org/1999/xlink">
	<desc>
			Created with Pixso.
	</desc>
	<defs/>
	<rect id="Pakistan" width="28.000000" height="28.000000" fill="#FFFFFF" fill-opacity="0"/>
	<rect id="Mask" y="4.000000" rx="3.000000" width="28.000000" height="20.000000" fill="#FFFFFF" fill-opacity="1.000000"/>
	<rect id="Mask" x="0.250000" y="4.250000" rx="3.000000" width="27.500000" height="19.500000" stroke="#D6D8DD" stroke-opacity="1.000000" stroke-width="0.500000"/>
	<mask id="mask17_4753" mask-type="alpha" maskUnits="userSpaceOnUse" x="0.000000" y="4.000000" width="28.000000" height="20.000000">
		<rect id="Mask" y="4.000000" rx="3.000000" width="28.000000" height="20.000000" fill="#FFFFFF" fill-opacity="1.000000"/>
		<rect id="Mask" x="0.250000" y="4.250000" rx="3.000000" width="27.500000" height="19.500000" stroke="#F5F5F5" stroke-opacity="1.000000" stroke-width="0.500000"/>
	</mask>
	<g mask="url(#mask17_4753)">
		<mask id="mask_17_4754" fill="white">
			<path id="Combined Shape" d="M8 24L28 24L28 4L8 4L8 24Z" clip-rule="evenodd" fill="" fill-opacity="1.000000" fill-rule="evenodd"/>
		</mask>
		<path id="Combined Shape" d="M8 24L28 24L28 4L8 4L8 24Z" clip-rule="evenodd" fill="#0A632F" fill-opacity="1.000000" fill-rule="evenodd" mask="url(#mask_17_4754)"/>
		<path id="Combined Shape" d="" fill="#979797" fill-opacity="0.000000" fill-rule="nonzero"/>
	</g>
	<g mask="url(#mask17_4753)">
		<mask id="mask_17_4758" fill="white">
			<path id="Star 8" d="M23.6701 14.7505C23.5417 16.0012 23.0087 17.2029 22.0665 18.1451C19.8206 20.391 16.1005 20.3121 13.7573 17.969C11.4142 15.6258 11.3353 11.9057 13.5812 9.65982C14.5234 8.71759 15.7252 8.18456 16.9758 8.05621C16.5818 8.28838 16.209 8.57484 15.8685 8.91527C13.8268 10.957 13.7258 14.1662 15.6429 16.0833C17.5601 18.0005 20.7693 17.8995 22.811 15.8578C23.1515 15.5173 23.4379 15.1445 23.6701 14.7505ZM20.7742 14.0031L21.0924 12.1047L22.9908 11.7865L21.2836 10.8971L21.5676 8.99329L20.1943 10.3421L18.4714 9.48367L19.3298 11.2066L17.981 12.5799L19.8849 12.2959L20.7742 14.0031Z" clip-rule="evenodd" fill="" fill-opacity="1.000000" fill-rule="evenodd"/>
		</mask>
		<path id="Star 8" d="M23.6701 14.7505C23.5417 16.0012 23.0087 17.2029 22.0665 18.1451C19.8206 20.391 16.1005 20.3121 13.7573 17.969C11.4142 15.6258 11.3353 11.9057 13.5812 9.65982C14.5234 8.71759 15.7252 8.18456 16.9758 8.05621C16.5818 8.28838 16.209 8.57484 15.8685 8.91527C13.8268 10.957 13.7258 14.1662 15.6429 16.0833C17.5601 18.0005 20.7693 17.8995 22.811 15.8578C23.1515 15.5173 23.4379 15.1445 23.6701 14.7505ZM20.7742 14.0031L21.0924 12.1047L22.9908 11.7865L21.2836 10.8971L21.5676 8.99329L20.1943 10.3421L18.4714 9.48367L19.3298 11.2066L17.981 12.5799L19.8849 12.2959L20.7742 14.0031Z" clip-rule="evenodd" fill="#FFFFFF" fill-opacity="1.000000" fill-rule="evenodd" mask="url(#mask_17_4758)"/>
		<path id="Star 8" d="" fill="#979797" fill-opacity="0.000000" fill-rule="nonzero"/>
	</g>
</svg>
