<svg viewBox="0 0 28 28" xmlns="http://www.w3.org/2000/svg" xmlns:xlink="http://www.w3.org/1999/xlink" width="28.000000" height="28.000000" fill="none" customFrame="#000000">
	<defs>
		<filter id="pixso_custom_mask_type_alpha">
			<feColorMatrix type="matrix" values="0 0 0 0 1 0 0 0 0 1 0 0 0 0 1 0 0 0 1 0 " />
		</filter>
	</defs>
	<mask id="mask_488" width="28.000000" height="20.000000" x="0.000000" y="4.000000" maskUnits="userSpaceOnUse">
		<g filter="url(#pixso_custom_mask_type_alpha)">
			<rect id="Mask" width="28.000000" height="20.000000" x="0.000000" y="4.000000" rx="3.000000" fill="rgb(255,255,255)" />
			<rect id="Mask" width="28.000000" height="20.000000" x="0.000000" y="4.000000" rx="3.000000" stroke="rgb(150.96,150.96,150.96)" stroke-opacity="0" stroke-width="0" />
		</g>
	</mask>
	<rect id="Papua New Guinea" width="28.000000" height="28.000000" x="0.000000" y="0.000000" fill="rgb(255,255,255)" fill-opacity="0" />
	<rect id="Mask" width="28.000000" height="20.000000" x="0.000000" y="4.000000" rx="3.000000" fill="rgb(255,255,255)" />
	<rect id="Mask" width="28.000000" height="20.000000" x="0.000000" y="4.000000" rx="3.000000" stroke="rgb(150.96,150.96,150.96)" stroke-opacity="0" stroke-width="0" />
	<g mask="url(#mask_488)">
		<rect id="Mask Copy" width="28.000000" height="20.000000" x="0.000000" y="4.000000" fill="rgb(38,38,38)" />
		<rect id="Mask Copy" width="28.000000" height="20.000000" x="0.000000" y="4.000000" stroke="rgb(150.96,150.96,150.96)" stroke-opacity="0" stroke-width="0" />
		<path id="Mask" d="M0 4L28 4L28 24L0 4Z" fill="rgb(232,40,63)" fill-rule="evenodd" />
		<path id="Mask" d="M28 4L28 24L0 4L28 4Z" fill-rule="evenodd" stroke="rgb(150.96,150.96,150.96)" stroke-opacity="0" stroke-width="0" />
		<path id="Star 2" d="M6.66668 20.6666L5.72387 20.9428L6.00001 20L5.72387 19.0571L6.66668 19.3333L7.60949 19.0571L7.33334 20L7.60949 20.9428L6.66668 20.6666Z" fill="rgb(255,255,255)" fill-rule="evenodd" />
		<path id="Star 2" d="M5.72387 20.9428L6.00001 20L5.72387 19.0571L6.66668 19.3333L7.60949 19.0571L7.33334 20L7.60949 20.9428L6.66668 20.6666L5.72387 20.9428Z" fill-rule="evenodd" stroke="rgb(150.96,150.96,150.96)" stroke-opacity="0" stroke-width="0" />
		<path id="Star 2" d="M6.66668 12.6666L5.72387 12.9428L6.00001 12L5.72387 11.0571L6.66668 11.3333L7.60949 11.0571L7.33334 12L7.60949 12.9428L6.66668 12.6666Z" fill="rgb(255,255,255)" fill-rule="evenodd" />
		<path id="Star 2" d="M5.72387 12.9428L6.00001 12L5.72387 11.0571L6.66668 11.3333L7.60949 11.0571L7.33334 12L7.60949 12.9428L6.66668 12.6666L5.72387 12.9428Z" fill-rule="evenodd" stroke="rgb(150.96,150.96,150.96)" stroke-opacity="0" stroke-width="0" />
		<path id="Star 2" d="M3.33333 16L2.39052 16.2761L2.66667 15.3333L2.39052 14.3905L3.33333 14.6667L4.27614 14.3905L4 15.3333L4.27614 16.2761L3.33333 16Z" fill="rgb(255,255,255)" fill-rule="evenodd" />
		<path id="Star 2" d="M2.39052 16.2761L2.66667 15.3333L2.39052 14.3905L3.33333 14.6667L4.27614 14.3905L4 15.3333L4.27614 16.2761L3.33333 16L2.39052 16.2761Z" fill-rule="evenodd" stroke="rgb(150.96,150.96,150.96)" stroke-opacity="0" stroke-width="0" />
		<path id="Star 2" d="M9.33333 15.3334L8.39052 15.6095L8.66667 14.6667L8.39052 13.7239L9.33333 14L10.2761 13.7239L10 14.6667L10.2761 15.6095L9.33333 15.3334Z" fill="rgb(255,255,255)" fill-rule="evenodd" />
		<path id="Star 2" d="M8.39052 15.6095L8.66667 14.6667L8.39052 13.7239L9.33333 14L10.2761 13.7239L10 14.6667L10.2761 15.6095L9.33333 15.3334L8.39052 15.6095Z" fill-rule="evenodd" stroke="rgb(150.96,150.96,150.96)" stroke-opacity="0" stroke-width="0" />
		<path id="Rectangle 419" d="M18.8613 13.2656C18.7016 13.1698 18.5722 12.9442 18.5722 12.7637L18.5722 11.535C18.5722 11.3536 18.4417 11.2501 18.2442 11.3159L17.486 11.5686C17.3049 11.629 17.0275 11.6345 16.83 11.5686L16.0718 11.3159C15.8907 11.2555 15.8705 11.1305 16.0328 11.0332L17.8118 9.96576C17.9714 9.86999 18.0573 9.66184 17.9915 9.46434L17.7388 8.70614C17.6784 8.52499 17.7599 8.42164 17.9574 8.48747L18.7156 8.7402C18.8968 8.80059 19.1197 8.72282 19.2171 8.56052L20.2844 6.78153C20.3802 6.62191 20.5014 6.62303 20.5672 6.82052L20.8199 7.57873C20.8803 7.75988 20.8858 8.03724 20.8199 8.23473L20.5672 8.99294C20.5068 9.17409 20.6058 9.32094 20.7863 9.32094L22.015 9.32094C22.1964 9.32094 22.4195 9.44767 22.5169 9.60996L23.5843 11.3889C23.68 11.5486 23.603 11.7089 23.43 11.7435L21.7284 12.0838C21.5474 12.12 21.3697 12.304 21.3351 12.4771L20.9948 14.1787C20.9586 14.3597 20.8025 14.4304 20.6402 14.333L18.8613 13.2656Z" fill="rgb(255,216,78)" fill-rule="evenodd" />
		<path id="Rectangle 419" d="M18.5722 12.7637L18.5722 11.535C18.5722 11.3536 18.4417 11.2501 18.2442 11.3159L17.486 11.5686C17.3049 11.629 17.0275 11.6345 16.83 11.5686L16.0718 11.3159C15.8907 11.2555 15.8705 11.1305 16.0328 11.0332L17.8118 9.96576C17.9714 9.86999 18.0573 9.66184 17.9915 9.46434L17.7388 8.70614C17.6784 8.52499 17.7599 8.42164 17.9574 8.48747L18.7156 8.7402C18.8968 8.80059 19.1197 8.72282 19.2171 8.56052L20.2844 6.78153C20.3802 6.62191 20.5014 6.62303 20.5672 6.82052L20.8199 7.57873C20.8803 7.75988 20.8858 8.03724 20.8199 8.23473L20.5672 8.99294C20.5068 9.17409 20.6058 9.32094 20.7863 9.32094L22.015 9.32094C22.1964 9.32094 22.4195 9.44767 22.5169 9.60996L23.5843 11.3889C23.68 11.5486 23.603 11.7089 23.43 11.7435L21.7284 12.0838C21.5474 12.12 21.3697 12.304 21.3351 12.4771L20.9948 14.1787C20.9586 14.3597 20.8025 14.4304 20.6402 14.333L18.8613 13.2656C18.7016 13.1698 18.5722 12.9442 18.5722 12.7637Z" fill-rule="evenodd" stroke="rgb(150.96,150.96,150.96)" stroke-opacity="0" stroke-width="0" />
	</g>
</svg>
