<svg width="28.000000" height="28.000000" viewBox="0 0 28 28" fill="none" xmlns="http://www.w3.org/2000/svg" xmlns:xlink="http://www.w3.org/1999/xlink">
	<desc>
			Created with Pixso.
	</desc>
	<defs/>
	<rect id="Papua New Guinea" width="28.000000" height="28.000000" fill="#FFFFFF" fill-opacity="0"/>
	<rect id="Mask" y="4.000000" rx="3.000000" width="28.000000" height="20.000000" fill="#FFFFFF" fill-opacity="1.000000"/>
	<rect id="Mask" y="4.000000" rx="3.000000" width="28.000000" height="20.000000" stroke="#979797" stroke-opacity="0" stroke-width="0.000000"/>
	<mask id="mask17_4722" mask-type="alpha" maskUnits="userSpaceOnUse" x="0.000000" y="4.000000" width="28.000000" height="20.000000">
		<rect id="Mask" y="4.000000" rx="3.000000" width="28.000000" height="20.000000" fill="#FFFFFF" fill-opacity="1.000000"/>
		<rect id="Mask" y="4.000000" rx="3.000000" width="28.000000" height="20.000000" stroke="#979797" stroke-opacity="0" stroke-width="0.000000"/>
	</mask>
	<g mask="url(#mask17_4722)">
		<rect id="Mask Copy" y="4.000000" width="28.000000" height="20.000000" fill="#262626" fill-opacity="1.000000"/>
		<rect id="Mask Copy" y="4.000000" width="28.000000" height="20.000000" stroke="#979797" stroke-opacity="0" stroke-width="0.000000"/>
	</g>
	<g mask="url(#mask17_4722)">
		<path id="Mask" d="M0 4L28 4L28 24L0 4Z" fill="#E8283F" fill-opacity="1.000000" fill-rule="evenodd"/>
		<path id="Mask" d="M28 4L28 24L0 4L28 4Z" stroke="#979797" stroke-opacity="0" stroke-width="0.000000"/>
	</g>
	<g mask="url(#mask17_4722)">
		<path id="Star 2" d="M6.66 20.66L5.72 20.94L6 20L5.72 19.05L6.66 19.33L7.6 19.05L7.33 20L7.6 20.94L6.66 20.66Z" fill="#FFFFFF" fill-opacity="1.000000" fill-rule="evenodd"/>
		<path id="Star 2" d="M5.72 20.94L6 20L5.72 19.05L6.66 19.33L7.6 19.05L7.33 20L7.6 20.94L6.66 20.66L5.72 20.94Z" stroke="#979797" stroke-opacity="0" stroke-width="0.000000"/>
	</g>
	<g mask="url(#mask17_4722)">
		<path id="Star 2" d="M6.66 12.66L5.72 12.94L6 12L5.72 11.05L6.66 11.33L7.6 11.05L7.33 12L7.6 12.94L6.66 12.66Z" fill="#FFFFFF" fill-opacity="1.000000" fill-rule="evenodd"/>
		<path id="Star 2" d="M5.72 12.94L6 12L5.72 11.05L6.66 11.33L7.6 11.05L7.33 12L7.6 12.94L6.66 12.66L5.72 12.94Z" stroke="#979797" stroke-opacity="0" stroke-width="0.000000"/>
	</g>
	<g mask="url(#mask17_4722)">
		<path id="Star 2" d="M3.33 16L2.39 16.27L2.66 15.33L2.39 14.39L3.33 14.66L4.27 14.39L4 15.33L4.27 16.27L3.33 16Z" fill="#FFFFFF" fill-opacity="1.000000" fill-rule="evenodd"/>
		<path id="Star 2" d="M2.39 16.27L2.66 15.33L2.39 14.39L3.33 14.66L4.27 14.39L4 15.33L4.27 16.27L3.33 16L2.39 16.27Z" stroke="#979797" stroke-opacity="0" stroke-width="0.000000"/>
	</g>
	<g mask="url(#mask17_4722)">
		<path id="Star 2" d="M9.33 15.33L8.39 15.6L8.66 14.66L8.39 13.72L9.33 14L10.27 13.72L10 14.66L10.27 15.6L9.33 15.33Z" fill="#FFFFFF" fill-opacity="1.000000" fill-rule="evenodd"/>
		<path id="Star 2" d="M8.39 15.6L8.66 14.66L8.39 13.72L9.33 14L10.27 13.72L10 14.66L10.27 15.6L9.33 15.33L8.39 15.6Z" stroke="#979797" stroke-opacity="0" stroke-width="0.000000"/>
	</g>
	<g mask="url(#mask17_4722)">
		<path id="Rectangle 419" d="M18.86 13.26C18.7 13.16 18.57 12.94 18.57 12.76L18.57 11.53C18.57 11.35 18.44 11.25 18.24 11.31L17.48 11.56C17.3 11.62 17.02 11.63 16.83 11.56L16.07 11.31C15.89 11.25 15.87 11.13 16.03 11.03L17.81 9.96C17.97 9.86 18.05 9.66 17.99 9.46L17.73 8.7C17.67 8.52 17.75 8.42 17.95 8.48L18.71 8.74C18.89 8.8 19.11 8.72 19.21 8.56L20.28 6.78C20.38 6.62 20.5 6.62 20.56 6.82L20.81 7.57C20.88 7.75 20.88 8.03 20.81 8.23L20.56 8.99C20.5 9.17 20.6 9.32 20.78 9.32L22.01 9.32C22.19 9.32 22.41 9.44 22.51 9.6L23.58 11.38C23.68 11.54 23.6 11.7 23.43 11.74L21.72 12.08C21.54 12.12 21.36 12.3 21.33 12.47L20.99 14.17C20.95 14.35 20.8 14.43 20.64 14.33L18.86 13.26Z" fill="#FFD84E" fill-opacity="1.000000" fill-rule="evenodd"/>
		<path id="Rectangle 419" d="M18.57 12.76L18.57 11.53C18.57 11.35 18.44 11.25 18.24 11.31L17.48 11.56C17.3 11.62 17.02 11.63 16.83 11.56L16.07 11.31C15.89 11.25 15.87 11.13 16.03 11.03L17.81 9.96C17.97 9.86 18.05 9.66 17.99 9.46L17.73 8.7C17.67 8.52 17.75 8.42 17.95 8.48L18.71 8.74C18.89 8.8 19.11 8.72 19.21 8.56L20.28 6.78C20.38 6.62 20.5 6.62 20.56 6.82L20.81 7.57C20.88 7.75 20.88 8.03 20.81 8.23L20.56 8.99C20.5 9.17 20.6 9.32 20.78 9.32L22.01 9.32C22.19 9.32 22.41 9.44 22.51 9.6L23.58 11.38C23.68 11.54 23.6 11.7 23.43 11.74L21.72 12.08C21.54 12.12 21.36 12.3 21.33 12.47L20.99 14.17C20.95 14.35 20.8 14.43 20.64 14.33L18.86 13.26C18.7 13.16 18.57 12.94 18.57 12.76Z" stroke="#979797" stroke-opacity="0" stroke-width="0.000000"/>
	</g>
</svg>
