<svg viewBox="0 0 28 28" xmlns="http://www.w3.org/2000/svg" xmlns:xlink="http://www.w3.org/1999/xlink" width="28.000000" height="28.000000" fill="none" customFrame="#000000">
	<defs>
		<filter id="pixso_custom_mask_type_alpha">
			<feColorMatrix type="matrix" values="0 0 0 0 1 0 0 0 0 1 0 0 0 0 1 0 0 0 1 0 " />
		</filter>
		<g id="pixso_custom_effect_43">
			<effect x="0.000000" y="1.000000" visibility="visible" fill="rgb(0,0,0)" fill-opacity="0.0599999987" effectType="dropShadow" showShadowBehind="1" stdDeviation="0" radius="0" />
			<effect x="0.000000" y="1.000000" visibility="hidden" fill="rgb(255,216.88,100.278)" fill-opacity="1" effectType="innerShadow" showShadowBehind="1" stdDeviation="0" radius="0" />
		</g>
		<filter id="filter_43" width="6.666672" height="7.030060" x="1.333328" y="10.666656" filterUnits="userSpaceOnUse" customEffect="url(#pixso_custom_effect_43)" color-interpolation-filters="sRGB">
			<feFlood flood-opacity="0" result="BackgroundImageFix" />
			<feOffset dx="0.000000" dy="1.000000" in="SourceAlpha" />
			<feColorMatrix type="matrix" values="0 0 0 0 0 0 0 0 0 0 0 0 0 0 0 0 0 0 0.06 0 " />
			<feBlend result="effect_dropShadow_1" in2="BackgroundImageFix" mode="normal" />
			<feBlend result="shape" in="SourceGraphic" in2="effect_dropShadow_1" mode="normal" />
		</filter>
		<linearGradient id="paint_linear_166" x1="1.33331299" x2="1.33331299" y1="10.666626" y2="17.333292" gradientUnits="userSpaceOnUse">
			<stop stop-color="rgb(255,255,255)" offset="0" stop-opacity="1" />
			<stop stop-color="rgb(239.7,239.7,239.7)" offset="1" stop-opacity="1" />
		</linearGradient>
	</defs>
	<mask id="mask_485" width="28.000000" height="20.000000" x="0.000000" y="4.000000" maskUnits="userSpaceOnUse">
		<g filter="url(#pixso_custom_mask_type_alpha)">
			<rect id="Mask" width="28.000000" height="20.000000" x="0.000000" y="4.000000" rx="3.000000" fill="rgb(255,255,255)" />
			<rect id="Mask" width="27.500000" height="19.500000" x="0.250000" y="4.250000" rx="2.750000" stroke="rgb(245,245,245)" stroke-width="0.5" />
		</g>
	</mask>
	<rect id="Puerto Rico" width="28.000000" height="28.000000" x="0.000000" y="0.000000" fill="rgb(255,255,255)" fill-opacity="0" />
	<rect id="Mask" width="28.000000" height="20.000000" x="0.000000" y="4.000000" rx="3.000000" fill="rgb(255,255,255)" />
	<rect id="Mask" width="27.500000" height="19.500000" x="0.250000" y="4.250000" rx="2.750000" stroke="rgb(245,245,245)" stroke-width="0.5" />
	<g mask="url(#mask_485)">
		<path id="Combined Shape" d="M28 4L28 8L0 8L0 4L28 4ZM0 12L28 12L28 16L0 16L0 12ZM0 20L0 24L28 24L28 20L0 20Z" fill="rgb(250,34,34)" fill-rule="evenodd" />
		<path id="Combined Shape" d="M28 4L28 8L0 8L0 4L28 4ZM0 12L28 12L28 16L0 16L0 12ZM0 20L0 24L28 24L28 20L0 20Z" fill-rule="evenodd" stroke="rgb(150.96,150.96,150.96)" stroke-opacity="0" stroke-width="0" />
		<path id="Rectangle 83" d="M0 4L13.3333 14L0 24L0 4Z" fill="rgb(29,99,249)" fill-rule="evenodd" />
		<path id="Rectangle 83" d="M13.3333 14L0 24L0 4L13.3333 14Z" fill-rule="evenodd" stroke="rgb(150.96,150.96,150.96)" stroke-opacity="0" stroke-width="0" />
		<g filter="url(#filter_43)">
			<path id="Star 27" d="M4.66665 15.274L2.70736 16.6967L3.45492 14.3937L1.49646 12.9699L3.91776 12.9692L4.66665 10.6666L5.41553 12.9692L7.83683 12.9699L5.87837 14.3937L6.62593 16.6967L4.66665 15.274Z" fill="url(#paint_linear_166)" fill-rule="evenodd" />
			<path id="Star 27" d="M2.70736 16.6967L3.45492 14.3937L1.49646 12.9699L3.91776 12.9692L4.66665 10.6666L5.41553 12.9692L7.83683 12.9699L5.87837 14.3937L6.62593 16.6967L4.66665 15.274L2.70736 16.6967Z" fill-rule="evenodd" stroke="rgb(150.96,150.96,150.96)" stroke-opacity="0" stroke-width="0" />
		</g>
	</g>
</svg>
