<svg width="28.000000" height="28.000000" viewBox="0 0 28 28" fill="none" xmlns="http://www.w3.org/2000/svg" xmlns:xlink="http://www.w3.org/1999/xlink">
	<desc>
			Created with Pixso.
	</desc>
	<defs/>
	<rect id="Qatar" width="28.000000" height="28.000000" fill="#FFFFFF" fill-opacity="0"/>
	<rect id="Mask" y="4.000000" rx="3.000000" width="28.000000" height="20.000000" fill="#FFFFFF" fill-opacity="1.000000"/>
	<rect id="Mask" x="0.250000" y="4.250000" rx="3.000000" width="27.500000" height="19.500000" stroke="#D6D8DD" stroke-opacity="1.000000" stroke-width="0.500000"/>
	<mask id="mask17_4673" mask-type="alpha" maskUnits="userSpaceOnUse" x="0.000000" y="4.000000" width="28.000000" height="20.000000">
		<rect id="Mask" y="4.000000" rx="3.000000" width="28.000000" height="20.000000" fill="#FFFFFF" fill-opacity="1.000000"/>
		<rect id="Mask" x="0.250000" y="4.250000" rx="3.000000" width="27.500000" height="19.500000" stroke="#F5F5F5" stroke-opacity="1.000000" stroke-width="0.500000"/>
	</mask>
	<g mask="url(#mask17_4673)">
		<mask id="mask_17_4674" fill="white">
			<path id="Combined Shape" d="M10 24L28 24L28 4L8 4L10 5.33333L8 6.66667L10 8L8 9.33333L10 10.6667L8 12L10 13.3333L8 14.6667L10 16L8 17.3333L10 18.6667L8 20L10 21.3333L8 22.6667L10 24Z" clip-rule="evenodd" fill="" fill-opacity="1.000000" fill-rule="evenodd"/>
		</mask>
		<path id="Combined Shape" d="M10 24L28 24L28 4L8 4L10 5.33333L8 6.66667L10 8L8 9.33333L10 10.6667L8 12L10 13.3333L8 14.6667L10 16L8 17.3333L10 18.6667L8 20L10 21.3333L8 22.6667L10 24Z" clip-rule="evenodd" fill="#A6264C" fill-opacity="1.000000" fill-rule="evenodd" mask="url(#mask_17_4674)"/>
		<path id="Combined Shape" d="" fill="#979797" fill-opacity="0.000000" fill-rule="nonzero"/>
	</g>
</svg>
