<svg viewBox="0 0 28 28" xmlns="http://www.w3.org/2000/svg" xmlns:xlink="http://www.w3.org/1999/xlink" width="28.000000" height="28.000000" fill="none">
	<mask id="mask_285" width="8.000000" height="7.000000" x="0.000000" y="4.000000" maskUnits="userSpaceOnUse">
		<g filter="url(#pixso_custom_mask_type_alpha)">
			<rect id="Rectangle 240649389" width="8.000000" height="7.000000" x="0.000000" y="4.000000" fill="rgb(182,33,35)" />
		</g>
	</mask>
	<defs>
		<filter id="pixso_custom_mask_type_alpha">
			<feColorMatrix type="matrix" values="0 0 0 0 1 0 0 0 0 1 0 0 0 0 1 0 0 0 1 0 " />
		</filter>
	</defs>
	<mask id="mask_284" width="28.000000" height="20.000000" x="0.000000" y="4.000000" maskUnits="userSpaceOnUse">
		<g filter="url(#pixso_custom_mask_type_alpha)">
			<rect id="Mask Copy" width="28.000000" height="20.000000" x="0.000000" y="4.000000" rx="3.000000" fill="rgb(27,47,76)" />
			<rect id="Mask Copy" width="27.500000" height="19.500000" x="0.250000" y="4.250000" rx="2.750000" stroke="rgb(245,245,245)" stroke-opacity="0" stroke-width="0.5" />
		</g>
	</mask>
	<rect id="Saint Pierre and Miquelon" width="28.000000" height="28.000000" x="0.000000" y="0.000000" fill="rgb(255,255,255)" fill-opacity="0" transform="matrix(-1,-6.12324e-17,6.12324e-17,-1,28,28)" />
	<path id="Vector" d="M23.3333 0L0 0L0 23.3333L23.3333 23.3333L23.3333 0Z" opacity="0" fill="rgb(96,96,96)" fill-rule="evenodd" transform="matrix(-1,-6.12324e-17,6.12324e-17,-1,25.6666,25.6666)" />
	<rect id="Mask Copy" width="28.000000" height="20.000000" x="0.000000" y="4.000000" rx="3.000000" fill="rgb(255,255,255)" />
	<rect id="Mask Copy" width="27.500000" height="19.500000" x="0.250000" y="4.250000" rx="2.750000" stroke="rgb(245,245,245)" stroke-width="0.5" />
	<g id="Mask group" mask="url(#mask_284)">
		<path id="Subtract" d="M0 17C0 18.6569 1.34315 20 3 20L25 20C26.6569 20 28 18.6569 28 17L28 13L20 13L20 7L28 7L28 3C28 1.34315 26.6569 0 25 0L3 0C1.34315 0 0 1.34315 0 3L0 17Z" fill="rgb(68,144,196)" fill-rule="evenodd" transform="matrix(-1,-6.12324e-17,6.12324e-17,-1,28,24)" />
		<path id="Subtract" d="M3 20C1.34315 20 0 18.6569 0 17L0 3C0 1.34315 1.34315 0 3 0L25 0C26.6569 0 28 1.34315 28 3L28 7L20 7L20 13L28 13L28 17C28 18.6569 26.6569 20 25 20L3 20ZM0.5 17Q0.5 17.2873 0.562519 17.5602Q0.610769 17.7708 0.696257 17.973C0.822738 18.272 1.0014 18.5369 1.23223 18.7678C1.46307 18.9986 1.728 19.1773 2.02704 19.3037Q2.22888 19.3891 2.43923 19.4374L2.43977 19.4375Q2.71272 19.5 3 19.5L25 19.5Q25.2873 19.5 25.5602 19.4375Q25.7709 19.3892 25.973 19.3037C26.272 19.1773 26.5369 18.9986 26.7678 18.7678C26.9986 18.5369 27.1773 18.272 27.3037 17.973Q27.3892 17.7709 27.4375 17.5602Q27.5 17.2873 27.5 17L27.5 13.5L19.5 13.5L19.5 6.5L27.5 6.5L27.5 3Q27.5 2.71272 27.4375 2.43977Q27.3892 2.22914 27.3037 2.02704C27.1773 1.728 26.9986 1.46307 26.7678 1.23223C26.5369 1.0014 26.272 0.822738 25.973 0.696257Q25.7708 0.610769 25.5602 0.562519Q25.2873 0.5 25 0.5L3 0.5Q2.71276 0.5 2.43984 0.562511L2.43982 0.562514Q2.22917 0.610765 2.02704 0.696257Q1.81936 0.784098 1.63361 0.905494L1.63361 0.905497Q1.41817 1.0463 1.23223 1.23223Q1.04629 1.41817 0.90549 1.63362L0.905489 1.63362Q0.784096 1.81937 0.696257 2.02704Q0.610765 2.22917 0.562514 2.43982L0.562511 2.43984Q0.5 2.71276 0.5 3L0.5 17Z" fill="rgb(245,245,245)" fill-opacity="0" fill-rule="evenodd" transform="matrix(-1,-6.12324e-17,6.12324e-17,-1,28,24)" />
		<path id="Subtract" d="M19.3895 17.1775C16.984 12.872 20.0231 9.65638 20.5642 9.29563L20.5642 8.93093L18.1568 9.87677L18.8585 7.22911C18.8843 7.13176 18.8263 7.03193 18.729 7.00613C18.6316 6.98033 18.5318 7.03833 18.506 7.13568L18.4527 7.33665C18.0449 7.25083 17.7478 7.29853 17.4395 7.34802C17.0637 7.40836 16.6712 7.47136 16.0413 7.29838C16.2101 7.63399 16.3022 7.77216 16.984 7.81653C16.5785 8.01349 16.5014 8.00105 16.0413 8.08993C16.6019 8.43242 17.0584 8.32754 17.5586 8.21263C17.7774 8.16237 18.0045 8.11019 18.2524 8.09268L17.7356 10.0422L15.4588 10.9367L15.4588 11.3014C14.4097 12.6502 14.0995 14.1222 14.7073 15.8185C14.5008 15.6045 14.3167 15.3656 14.1594 15.1015L14.2018 15.1015L14.2018 14.2194L13.0475 14.2194L13.3591 13.0436C13.5489 13.1613 13.7618 13.3333 14.0001 13.5723C13.6354 11.1716 16.0058 9.73118 16.5528 9.41108L16.5528 8.93093L14.2799 9.56933L14.7159 7.92459C14.7417 7.82724 14.6837 7.72741 14.5863 7.70161C14.489 7.67581 14.3891 7.73381 14.3633 7.83116L14.3035 8.05678C13.8217 7.92686 13.4931 7.97961 13.1507 8.03458C12.7749 8.09492 12.3824 8.15793 11.7525 7.98495C11.9213 8.32056 12.0134 8.45872 12.6952 8.5031C12.2897 8.70005 12.2126 8.68762 11.7525 8.77649C12.3131 9.11898 12.7696 9.0141 13.2698 8.89919C13.532 8.83896 13.8062 8.77597 14.1136 8.7732L13.8723 9.68383L11.9943 10.2113L11.9943 10.5314C11.2071 11.7813 11.4471 13.2522 11.9943 13.5723C12.1209 13.1276 12.4236 12.6828 13.0246 12.8821L12.6702 14.2194L11.8124 14.2194L11.8124 15.1015L12.2993 15.1015C12.3643 15.5635 12.4345 16.2995 12.2631 16.5203L11.416 16.1414C11.3667 16.1159 11.3153 16.0925 11.2618 16.0724L9.25684 15.1757C9.16491 15.1346 9.05705 15.1758 9.01594 15.2677C8.97482 15.3596 9.01601 15.4675 9.10794 15.5086L10.4311 16.1004C10.3275 16.1451 10.2191 16.2067 10.1056 16.2885C9.89679 16.4389 9.92058 16.6995 10.1056 16.7954C11.3614 16.7954 12.1942 18.7521 14.4727 19.979C14.4762 19.9791 14.4796 19.9791 14.483 19.9791C14.9003 19.9791 14.9177 19.3703 15.3525 19.3703C15.5367 19.3703 15.8802 19.5484 16.248 19.739C16.7481 19.9982 17.2931 20.2806 17.5436 20.1704C17.9784 19.9791 17.561 19.1791 18.1349 19.1791C18.4489 19.1791 19.0126 19.4446 19.4931 19.6708C19.8909 19.8581 20.2316 20.0185 20.3261 19.9791C20.406 19.9458 20.4502 19.7978 20.5007 19.6288C20.5821 19.3564 20.6797 19.0293 20.9695 19.04C21.4391 19.0574 22.5694 19.7877 23.1259 19.7877C23.4567 19.7877 23.4618 19.5543 23.4664 19.3466C23.4694 19.205 23.4723 19.0753 23.5781 19.04C23.6944 19.0012 23.98 19.1629 24.3041 19.3464C24.4329 19.4193 24.5678 19.4957 24.7006 19.5642C24.7194 19.4711 24.7292 19.3748 24.7292 19.2762C24.7292 18.5682 24.221 17.9789 23.5495 17.8533C24.1204 16.9807 24.5118 16.1056 24.7465 15.5017L25.4636 15.5017L25.4636 13.9431L26.9132 11.2127C26.9604 11.1238 26.9266 11.0134 26.8376 10.9662C26.7487 10.9189 26.6383 10.9528 26.5911 11.0417L26.4023 11.3973L24.374 11.2145L23.6291 12.6495L25.6605 12.7946L25.0645 13.9172L23.0742 13.9172L22.6371 15.2566C21.4715 12.5827 24.4096 9.64974 24.9408 9.29563L24.9408 8.93093L22.695 9.59634L23.235 7.55902C23.2608 7.46167 23.2028 7.36184 23.1054 7.33604C23.0081 7.31024 22.9083 7.36824 22.8825 7.46558L22.8415 7.62002C22.3675 7.49497 22.042 7.54722 21.703 7.60164C21.3272 7.66198 20.9348 7.72498 20.3048 7.552C20.4736 7.88762 20.5658 8.02578 21.2475 8.07015C20.8421 8.26711 20.7649 8.25468 20.3048 8.34355C20.8655 8.68604 21.322 8.58116 21.8222 8.46625C22.08 8.40702 22.3494 8.34513 22.6506 8.34044L22.2856 9.71765L20.0173 10.3897L20.0174 10.7544C18.8138 12.3017 18.7148 14.9835 19.7414 17.119C19.6245 17.1416 19.5071 17.1611 19.3895 17.1775ZM21.1875 15.2842L20.777 16.833C21.5805 16.5402 22.3211 16.0935 22.9136 15.5017L22.5571 15.5017L22.5796 15.4327C22.0245 15.2441 21.5629 15.211 21.1875 15.2842ZM19.873 17.0923C20.0381 17.057 20.2019 17.0157 20.3638 16.9684L20.7737 15.4218C20.1177 15.7447 19.8416 16.4619 19.873 17.0923ZM15.2342 16.278C15.3523 15.9567 15.6677 15.7318 16.2208 15.7577L15.9673 16.7142C15.7083 16.5908 15.4626 16.4456 15.2342 16.278ZM16.3059 16.8601C17.2187 17.2144 18.265 17.3193 19.2934 17.1903C18.1215 16.3492 17.2321 15.9381 16.5855 15.8054L16.3059 16.8601Z" fill="rgb(247,208,43)" fill-rule="evenodd" />
		<rect id="Rectangle 240649383" width="8.000000" height="7.000000" x="0.000000" y="4.000000" fill="rgb(182,33,35)" />
		<g id="Mask group" mask="url(#mask_285)">
			<rect id="Rectangle 240649388" width="1.425155" height="11.694464" x="0.000000" y="0.000000" fill="rgb(54.8927,184.333,67.9823)" transform="matrix(0.707107,-0.707107,0.707107,0.707107,-0.601929,3.86902)" />
			<rect id="Rectangle 240649390" width="1.311907" height="11.694464" x="0.000000" y="0.000000" fill="rgb(54.8927,184.333,67.9823)" transform="matrix(0.707107,0.707107,0.707107,-0.707107,-0.562378,11.171)" />
		</g>
		<rect id="Rectangle 240649386" width="1.000000" height="7.000000" x="3.536377" y="4.000000" fill="rgb(255,255,255)" />
		<rect id="Rectangle 240649387" width="1.000000" height="8.459961" x="0.000000" y="0.000000" fill="rgb(255,255,255)" transform="matrix(-4.37114e-08,1,-1,-4.37114e-08,7.99609,7)" />
		<rect id="Rectangle 240649385" width="8.000000" height="7.000000" x="0.000000" y="17.000000" fill="rgb(182,33,35)" />
	</g>
</svg>
