<svg width="28" height="28" viewBox="0 0 28 28" fill="none" xmlns="http://www.w3.org/2000/svg">
<rect x="0.25" y="4.25" width="27.5" height="19.5" rx="2.75" fill="white" stroke="#F5F5F5" stroke-width="0.5"/>
<mask id="mask0_136805_1120" style="mask-type:alpha" maskUnits="userSpaceOnUse" x="0" y="4" width="28" height="20">
<rect y="4" width="28" height="20" rx="3" fill="#1B2F4C"/>
</mask>
<g mask="url(#mask0_136805_1120)">
<path fill-rule="evenodd" clip-rule="evenodd" d="M3 4C1.34315 4 0 5.34315 0 7V11H8V17H0V21C0 22.6569 1.34315 24 3 24H25C26.6569 24 28 22.6569 28 21L28 7C28 5.34315 26.6569 4 25 4H3Z" fill="#4490C4"/>
<path fill-rule="evenodd" clip-rule="evenodd" d="M18.729 7.00613C18.6316 6.98033 18.5318 7.03833 18.506 7.13568L18.4527 7.33665C18.0449 7.25083 17.7478 7.29853 17.4395 7.34802C17.0637 7.40836 16.6712 7.47136 16.0413 7.29838C16.2101 7.63399 16.3022 7.77216 16.984 7.81653C16.6498 7.97884 16.5387 7.99895 16.2524 8.05074C16.1913 8.06179 16.1222 8.07429 16.0413 8.08993C16.6019 8.43242 17.0584 8.32754 17.5586 8.21263C17.7774 8.16237 18.0045 8.11019 18.2524 8.09268L17.7356 10.0422L15.4588 10.9367L15.4588 11.3014C14.4097 12.6502 14.0995 14.1222 14.7073 15.8185C14.5008 15.6045 14.3167 15.3656 14.1594 15.1015H14.2018V14.2194H13.0475L13.3591 13.0436C13.5489 13.1613 13.7618 13.3333 14.0001 13.5723C13.6354 11.1716 16.0058 9.73118 16.5528 9.41108V8.93093L14.2799 9.56933L14.7159 7.92459C14.7417 7.82724 14.6837 7.72741 14.5863 7.70161C14.489 7.67581 14.3891 7.73381 14.3633 7.83116L14.3035 8.05678C13.8217 7.92686 13.4931 7.97961 13.1507 8.03458C12.7749 8.09492 12.3824 8.15793 11.7525 7.98495C11.9213 8.32056 12.0134 8.45872 12.6952 8.5031C12.361 8.6654 12.2499 8.68551 11.9636 8.7373C11.9025 8.74836 11.8334 8.76086 11.7525 8.77649C12.3131 9.11898 12.7696 9.0141 13.2698 8.89919C13.532 8.83896 13.8062 8.77597 14.1136 8.7732L13.8723 9.68383L11.9943 10.2113L11.9943 10.5314C11.2071 11.7813 11.4471 13.2522 11.9943 13.5723C12.1209 13.1276 12.4236 12.6828 13.0246 12.8821L12.6702 14.2194H11.8124V15.1015H12.2993C12.3643 15.5635 12.4345 16.2995 12.2631 16.5203L11.416 16.1414C11.3667 16.1159 11.3153 16.0925 11.2618 16.0724L9.25684 15.1757C9.16491 15.1346 9.05705 15.1758 9.01594 15.2677C8.97482 15.3596 9.01601 15.4675 9.10794 15.5086L10.4311 16.1004C10.3275 16.1451 10.2191 16.2067 10.1056 16.2885C9.89679 16.4389 9.92058 16.6995 10.1056 16.7954C10.7631 16.7954 11.3046 17.3318 11.9984 18.019C12.6297 18.6443 13.3871 19.3944 14.4727 19.979C14.4762 19.9791 14.4796 19.9791 14.483 19.9791C14.6895 19.9791 14.7981 19.83 14.9078 19.6794C15.0198 19.5256 15.1329 19.3703 15.3525 19.3703C15.5367 19.3703 15.8802 19.5484 16.248 19.739C16.7481 19.9982 17.2931 20.2806 17.5436 20.1704C17.7438 20.0823 17.7633 19.8653 17.7821 19.6567C17.8042 19.4121 17.8252 19.1791 18.1349 19.1791C18.4489 19.1791 19.0126 19.4446 19.4931 19.6708C19.8909 19.8581 20.2316 20.0185 20.3261 19.9791C20.406 19.9458 20.4502 19.7978 20.5007 19.6288C20.5821 19.3564 20.6797 19.0293 20.9695 19.04C21.1893 19.0482 21.5539 19.2125 21.9366 19.3851C22.3715 19.5811 22.8299 19.7877 23.1259 19.7877C23.4567 19.7877 23.4618 19.5543 23.4664 19.3466C23.4694 19.205 23.4723 19.0753 23.5781 19.04C23.6944 19.0012 23.98 19.1629 24.3041 19.3464C24.4329 19.4193 24.5678 19.4957 24.7006 19.5642C24.7194 19.4711 24.7292 19.3748 24.7292 19.2762C24.7292 18.5682 24.221 17.9789 23.5495 17.8533C24.1204 16.9807 24.5118 16.1056 24.7465 15.5017H25.4636V13.9431L26.9132 11.2127C26.9604 11.1238 26.9266 11.0134 26.8376 10.9662C26.7487 10.9189 26.6383 10.9528 26.5911 11.0417L26.4023 11.3973L24.374 11.2145L23.6291 12.6495L25.6605 12.7946L25.0645 13.9172H23.0742L22.6371 15.2566C21.4715 12.5827 24.4096 9.64974 24.9408 9.29563V8.93093L22.695 9.59634L23.235 7.55902C23.2608 7.46167 23.2028 7.36184 23.1055 7.33604C23.0081 7.31024 22.9083 7.36824 22.8825 7.46558L22.8415 7.62002C22.3675 7.49497 22.042 7.54722 21.703 7.60164C21.3272 7.66198 20.9348 7.72498 20.3048 7.552C20.4736 7.88762 20.5658 8.02578 21.2475 8.07015C20.9134 8.23246 20.8022 8.25257 20.5159 8.30436C20.4548 8.31542 20.3857 8.32792 20.3048 8.34355C20.8655 8.68604 21.322 8.58116 21.8222 8.46625C22.08 8.40702 22.3494 8.34513 22.6506 8.34044L22.2856 9.71765L20.0173 10.3897L20.0174 10.7544C18.8138 12.3017 18.7148 14.9835 19.7414 17.119C19.6245 17.1416 19.5071 17.1611 19.3895 17.1775C16.984 12.872 20.0231 9.65638 20.5642 9.29563V8.93093L18.1568 9.87677L18.8585 7.22911C18.8843 7.13176 18.8263 7.03193 18.729 7.00613ZM19.2933 17.1903C18.1215 16.3492 17.2321 15.9381 16.5855 15.8054L16.3059 16.8601C17.2187 17.2144 18.265 17.3193 19.2933 17.1903ZM15.9673 16.7142L16.2208 15.7577C15.6677 15.7318 15.3523 15.9567 15.2342 16.278C15.4626 16.4456 15.7083 16.5908 15.9673 16.7142ZM19.873 17.0923C20.038 17.057 20.2019 17.0157 20.3638 16.9684L20.7737 15.4218C20.1177 15.7447 19.8416 16.4619 19.873 17.0923ZM20.777 16.833C21.5805 16.5402 22.3211 16.0935 22.9136 15.5017H22.5571L22.5796 15.4327C22.0245 15.2441 21.5629 15.211 21.1875 15.2842L20.777 16.833Z" fill="#F7D02B"/>
<rect y="4" width="8" height="7" fill="#B62123"/>
<mask id="mask1_136805_1120" style="mask-type:alpha" maskUnits="userSpaceOnUse" x="0" y="4" width="8" height="7">
<rect y="4" width="8" height="7" fill="#B62123"/>
</mask>
<g mask="url(#mask1_136805_1120)">
<rect x="-0.60199" y="3.86906" width="1.42515" height="11.6945" transform="rotate(-45 -0.60199 3.86906)" fill="#37B844"/>
<rect width="1.31191" height="11.6945" transform="matrix(0.707107 0.707107 0.707107 -0.707107 -0.562439 11.171)" fill="#37B844"/>
</g>
<rect x="3.53632" y="4" width="1" height="7" fill="white"/>
<rect x="7.99609" y="7" width="1" height="8.45996" transform="rotate(90 7.99609 7)" fill="white"/>
<rect y="17" width="8" height="7" fill="#B62123"/>
</g>
</svg>
