<svg width="29.000000" height="28.000000" viewBox="0 0 29 28" fill="none" xmlns="http://www.w3.org/2000/svg" xmlns:xlink="http://www.w3.org/1999/xlink">
	<desc>
			Created with Pixso.
	</desc>
	<defs/>
	<rect id="Saint Vincent and the Grenadines" width="28.000000" height="28.000000" fill="#FFFFFF" fill-opacity="0"/>
	<rect id="Mask" y="4.000000" rx="3.000000" width="28.000000" height="20.000000" fill="#FFFFFF" fill-opacity="1.000000"/>
	<rect id="Mask" y="4.000000" rx="3.000000" width="28.000000" height="20.000000" stroke="#979797" stroke-opacity="0" stroke-width="0.000000"/>
	<mask id="mask17_4204" mask-type="alpha" maskUnits="userSpaceOnUse" x="0.000000" y="4.000000" width="28.000000" height="20.000000">
		<rect id="Mask" y="4.000000" rx="3.000000" width="28.000000" height="20.000000" fill="#FFFFFF" fill-opacity="1.000000"/>
		<rect id="Mask" y="4.000000" rx="3.000000" width="28.000000" height="20.000000" stroke="#979797" stroke-opacity="0" stroke-width="0.000000"/>
	</mask>
	<g mask="url(#mask17_4204)">
		<rect id="Mask" x="13.333374" y="4.000000" width="14.666667" height="20.000000" fill="#08C47A" fill-opacity="1.000000"/>
		<rect id="Mask" x="13.333374" y="4.000000" width="14.666667" height="20.000000" stroke="#979797" stroke-opacity="0" stroke-width="0.000000"/>
	</g>
	<g mask="url(#mask17_4204)">
		<path id="Rectangle 2" d="M0 24L9.33 24L9.33 4L0 4L0 24Z" fill="#0C87E1" fill-opacity="1.000000" fill-rule="evenodd"/>
		<path id="Rectangle 2" d="M9.33 24L9.33 4L0 4L0 24L9.33 24Z" stroke="#979797" stroke-opacity="0" stroke-width="0.000000"/>
	</g>
	<g mask="url(#mask17_4204)">
		<path id="Rectangle 2 Copy" d="M8 24L20 24L20 4L8 4L8 24Z" fill="#FECB2F" fill-opacity="1.000000" fill-rule="evenodd"/>
		<path id="Rectangle 2 Copy" d="M20 24L20 4L8 4L8 24L20 24Z" stroke="#979797" stroke-opacity="0" stroke-width="0.000000"/>
	</g>
	<g mask="url(#mask17_4204)">
		<mask id="mask_17_4208" fill="white">
			<path id="Rectangle 1194" d="M9.33337 12L11.3334 8L13.3334 12L11.3334 16L9.33337 12ZM14.6667 12L16.6667 8L18.6667 12L16.6667 16L14.6667 12ZM14.0001 13.3333L12.0001 17.3333L14.0001 21.3333L16.0001 17.3333L14.0001 13.3333Z" clip-rule="evenodd" fill="" fill-opacity="1.000000" fill-rule="evenodd"/>
		</mask>
		<path id="Rectangle 1194" d="M9.33337 12L11.3334 8L13.3334 12L11.3334 16L9.33337 12ZM14.6667 12L16.6667 8L18.6667 12L16.6667 16L14.6667 12ZM14.0001 13.3333L12.0001 17.3333L14.0001 21.3333L16.0001 17.3333L14.0001 13.3333Z" clip-rule="evenodd" fill="#08C47A" fill-opacity="1.000000" fill-rule="evenodd" mask="url(#mask_17_4208)"/>
		<path id="Rectangle 1194" d="" fill="#979797" fill-opacity="0.000000" fill-rule="nonzero"/>
	</g>
</svg>
