<svg width="28.000000" height="28.000000" viewBox="0 0 28 28" fill="none" xmlns="http://www.w3.org/2000/svg" xmlns:xlink="http://www.w3.org/1999/xlink">
	<desc>
			Created with Pixso.
	</desc>
	<defs>
		<clipPath id="clip136805_1120">
			<rect id="Saint Pierre and Miquelon" width="28.000000" height="28.000000" transform="translate(28.000000 28.000000) rotate(180.000000)" fill="white" fill-opacity="0"/>
		</clipPath>
	</defs>
	<rect id="Saint Pierre and Miquelon" width="28.000000" height="28.000000" transform="translate(28.000000 28.000000) rotate(180.000000)" fill="#FFFFFF" fill-opacity="0"/>
	<g>
		<rect id="Mask Copy" y="4.000000" rx="3.000000" width="28.000000" height="20.000000" fill="#FFFFFF" fill-opacity="1.000000"/>
		<rect id="Mask Copy" x="0.250000" y="4.250000" rx="3.000000" width="27.500000" height="19.500000" stroke="#F5F5F5" stroke-opacity="1.000000" stroke-width="0.500000"/>
		<mask id="mask136805_1089" mask-type="alpha" maskUnits="userSpaceOnUse" x="0.000000" y="4.000000" width="28.000000" height="20.000000">
			<rect id="Mask Copy" y="4.000000" rx="3.000000" width="28.000000" height="20.000000" fill="#1B2F4C" fill-opacity="1.000000"/>
			<rect id="Mask Copy" x="0.250000" y="4.250000" rx="3.000000" width="27.500000" height="19.500000" stroke="#F5F5F5" stroke-opacity="0" stroke-width="0.500000"/>
		</mask>
		<g mask="url(#mask136805_1089)">
			<mask id="mask_136805_1090" fill="white">
				<path id="Subtract" d="M25 4L3 4C1.34314 4 0 5.34315 0 7L0 11L8 11L8 17L0 17L0 21C0 22.6569 1.34314 24 3 24L25 24C26.6569 24 28 22.6569 28 21L28 7C28 5.34315 26.6569 4 25 4Z" clip-rule="evenodd" fill="" fill-opacity="1.000000" fill-rule="evenodd"/>
			</mask>
			<path id="Subtract" d="M25 4L3 4C1.34314 4 0 5.34315 0 7L0 11L8 11L8 17L0 17L0 21C0 22.6569 1.34314 24 3 24L25 24C26.6569 24 28 22.6569 28 21L28 7C28 5.34315 26.6569 4 25 4Z" clip-rule="evenodd" fill="#4490C4" fill-opacity="1.000000" fill-rule="evenodd" mask="url(#mask_136805_1090)"/>
			<path id="Subtract" d="" clip-rule="evenodd" fill="#F5F5F5" fill-opacity="0.000000" fill-rule="evenodd"/>
		</g>
		<g mask="url(#mask136805_1089)">
			<path id="Subtract" d="M18.506 7.13567C18.5318 7.03833 18.6317 6.98033 18.729 7.00613C18.8107 7.02778 18.8646 7.10157 18.8646 7.18227C18.8646 7.19774 18.8627 7.21346 18.8585 7.22911L18.1568 9.87677L20.5643 8.93093L20.5643 9.29563C20.1729 9.55653 18.475 11.3107 18.475 13.8904C18.475 14.8776 18.7236 15.9858 19.3895 17.1775C19.5071 17.1611 19.6245 17.1416 19.7414 17.119C19.2712 16.141 19.0372 15.0484 19.0372 14.0026C19.0372 12.765 19.3651 11.593 20.0174 10.7544L20.0173 10.3897L22.2856 9.71765L22.6506 8.34044C22.3494 8.34513 22.08 8.40702 21.8221 8.46625C21.322 8.58116 20.8655 8.68604 20.3048 8.34355C20.765 8.25468 20.842 8.26711 21.2475 8.07015C20.5657 8.02578 20.4736 7.88762 20.3048 7.552C20.9348 7.72498 21.3272 7.66198 21.703 7.60164C22.0421 7.54722 22.3675 7.49496 22.8416 7.62002L22.8824 7.46558C22.9083 7.36824 23.0081 7.31024 23.1055 7.33604C23.1871 7.35769 23.2411 7.43148 23.2411 7.51218C23.2411 7.52765 23.2391 7.54336 23.235 7.55902L22.695 9.59634L24.9408 8.93093L24.9408 9.29563C24.4963 9.59198 22.366 11.6945 22.366 13.9397C22.366 14.3774 22.447 14.8204 22.6371 15.2566L23.0742 13.9172L25.0645 13.9172L25.6605 12.7946L23.6292 12.6495L24.374 11.2145L26.4023 11.3973L26.5911 11.0417C26.6383 10.9528 26.7487 10.9189 26.8376 10.9662C26.8993 10.9989 26.9345 11.0621 26.9345 11.1274C26.9345 11.1562 26.9276 11.1855 26.9131 11.2127L25.4636 13.9431L25.4636 15.5017L24.7465 15.5017C24.5118 16.1056 24.1204 16.9807 23.5496 17.8533C24.2211 17.9789 24.7292 18.5682 24.7292 19.2762C24.7292 19.3748 24.7194 19.4711 24.7006 19.5642C24.5679 19.4956 24.433 19.4193 24.3041 19.3464C23.98 19.1629 23.6944 19.0012 23.5781 19.04C23.4723 19.0753 23.4695 19.205 23.4664 19.3466C23.4619 19.5543 23.4567 19.7877 23.1259 19.7877C22.5695 19.7877 21.4391 19.0574 20.9695 19.04C20.6797 19.0293 20.5821 19.3564 20.5007 19.6288C20.4502 19.7978 20.406 19.9458 20.3261 19.9791C20.2316 20.0185 19.8909 19.8581 19.4931 19.6708C19.0127 19.4446 18.4489 19.1791 18.1349 19.1791C17.561 19.1791 17.9784 19.9791 17.5436 20.1704C17.2932 20.2806 16.7481 19.9982 16.248 19.739C15.8802 19.5484 15.5367 19.3703 15.3525 19.3703C14.9177 19.3703 14.9003 19.9791 14.483 19.9791L14.4727 19.979C12.1942 18.7521 11.3614 16.7954 10.1056 16.7954C10.0103 16.746 9.95776 16.6529 9.95776 16.5537C9.95776 16.4603 10.0043 16.3614 10.1056 16.2885C10.2191 16.2067 10.3275 16.1451 10.431 16.1004L9.10791 15.5086C9.04022 15.4783 9 15.4117 9 15.342C9 15.3172 9.00513 15.2919 9.01593 15.2677C9.05707 15.1758 9.16492 15.1346 9.25684 15.1757L11.2618 16.0724C11.3153 16.0925 11.3667 16.1159 11.416 16.1414L12.2631 16.5203C12.3429 16.4176 12.3704 16.2034 12.3704 15.9571C12.3704 15.674 12.334 15.3486 12.2993 15.1015L11.8124 15.1015L11.8124 14.2194L12.6702 14.2194L13.0247 12.8821C12.4236 12.6828 12.1209 13.1276 11.9943 13.5723C11.6967 13.3982 11.4899 12.8836 11.4899 12.2494C11.4899 11.7175 11.6353 11.1015 11.9943 10.5314L11.9943 10.2113L13.8723 9.68383L14.1136 8.7732C13.8062 8.77597 13.532 8.83896 13.2698 8.89919C12.7697 9.0141 12.3131 9.11898 11.7524 8.77649C12.2126 8.68762 12.2897 8.70005 12.6952 8.5031C12.0134 8.45872 11.9213 8.32056 11.7524 7.98495C12.3824 8.15792 12.7748 8.09492 13.1507 8.03458C13.4931 7.97961 13.8217 7.92686 14.3035 8.05678L14.3633 7.83116C14.3892 7.73381 14.489 7.67581 14.5863 7.70161C14.668 7.72326 14.722 7.79705 14.722 7.87775C14.722 7.89322 14.72 7.90894 14.7158 7.92459L14.2799 9.56934L16.5528 8.93093L16.5528 9.41108C16.0446 9.7085 13.9621 10.9731 13.9621 13.0766C13.9621 13.237 13.9742 13.4022 14.0001 13.5723C13.7618 13.3333 13.5489 13.1613 13.3591 13.0436L13.0475 14.2194L14.2018 14.2194L14.2018 15.1015L14.1594 15.1015C14.3167 15.3656 14.5008 15.6045 14.7073 15.8185C14.4991 15.2375 14.3987 14.6829 14.3987 14.1505C14.3987 13.1284 14.769 12.1883 15.4589 11.3014L15.4587 10.9367L17.7357 10.0422L18.2524 8.09268C18.0045 8.11019 17.7774 8.16237 17.5587 8.21263C17.0584 8.32754 16.6019 8.43242 16.0413 8.08993C16.5014 8.00105 16.5785 8.01348 16.984 7.81653C16.3022 7.77216 16.2101 7.63399 16.0413 7.29838C16.6712 7.47136 17.0637 7.40836 17.4395 7.34802C17.7478 7.29853 18.0449 7.25083 18.4528 7.33665L18.506 7.13567ZM21.1875 15.2842L20.777 16.833C21.5805 16.5402 22.321 16.0935 22.9136 15.5017L22.5571 15.5017L22.5796 15.4327C22.0245 15.2441 21.5629 15.211 21.1875 15.2842ZM20.3638 16.9684L20.7737 15.4218C20.151 15.7283 19.8706 16.3901 19.8706 16.9958C19.8706 17.0281 19.8714 17.0603 19.873 17.0923C20.038 17.057 20.2019 17.0157 20.3638 16.9684ZM15.9673 16.7142L16.2208 15.7577C15.6677 15.7318 15.3523 15.9567 15.2342 16.278C15.4626 16.4456 15.7083 16.5908 15.9673 16.7142ZM16.5854 15.8054L16.3059 16.8601C17.2187 17.2144 18.2651 17.3193 19.2933 17.1903C18.1215 16.3492 17.2321 15.9381 16.5854 15.8054Z" clip-rule="evenodd" fill="#F7D02B" fill-opacity="1.000000" fill-rule="evenodd"/>
		</g>
		<g mask="url(#mask136805_1089)">
			<rect id="Rectangle 240649383" y="4.000000" width="8.000000" height="7.000000" fill="#B62123" fill-opacity="1.000000"/>
		</g>
		<g mask="url(#mask136805_1089)">
			<mask id="mask136805_1114" mask-type="alpha" maskUnits="userSpaceOnUse" x="0.000000" y="4.000000" width="8.000000" height="7.000000">
				<rect id="Rectangle 240649389" y="4.000000" width="8.000000" height="7.000000" fill="#B62123" fill-opacity="1.000000"/>
			</mask>
			<g mask="url(#mask136805_1114)">
				<rect id="Rectangle 240649388" x="-0.601929" y="3.869019" width="1.425155" height="11.694464" transform="rotate(-45 -0.601929 3.869019)" fill="#37B844" fill-opacity="1.000000"/>
			</g>
			<g mask="url(#mask136805_1114)">
				<rect id="Rectangle 240649390" width="1.311907" height="11.694464" transform="matrix(0.707107 0.707107 0.707107 -0.707107 -0.562378 11.171)" fill="#37B844" fill-opacity="1.000000"/>
			</g>
		</g>
		<g mask="url(#mask136805_1089)">
			<rect id="Rectangle 240649386" x="3.536377" y="4.000000" width="1.000000" height="7.000000" fill="#FFFFFF" fill-opacity="1.000000"/>
		</g>
		<g mask="url(#mask136805_1089)">
			<rect id="Rectangle 240649387" x="7.996094" y="7.000000" width="1.000000" height="8.459961" transform="rotate(90 7.996094 7.000000)" fill="#FFFFFF" fill-opacity="1.000000"/>
		</g>
		<g mask="url(#mask136805_1089)">
			<rect id="Rectangle 240649385" y="17.000000" width="8.000000" height="7.000000" fill="#B62123" fill-opacity="1.000000"/>
		</g>
	</g>
</svg>
