<svg width="28.000000" height="28.000000" viewBox="0 0 28 28" fill="none" xmlns="http://www.w3.org/2000/svg" xmlns:xlink="http://www.w3.org/1999/xlink">
	<desc>
			Created with Pixso.
	</desc>
	<defs/>
	<rect id="Saudi Arabia" width="28.000000" height="28.000000" fill="#FFFFFF" fill-opacity="0"/>
	<rect id="Mask" y="4.000000" rx="3.000000" width="28.000000" height="20.000000" fill="#FFFFFF" fill-opacity="1.000000"/>
	<rect id="Mask" y="4.000000" rx="3.000000" width="28.000000" height="20.000000" stroke="#979797" stroke-opacity="0" stroke-width="0.000000"/>
	<mask id="mask17_4627" mask-type="alpha" maskUnits="userSpaceOnUse" x="0.000000" y="4.000000" width="28.000000" height="20.000000">
		<rect id="Mask" y="4.000000" rx="3.000000" width="28.000000" height="20.000000" fill="#FFFFFF" fill-opacity="1.000000"/>
		<rect id="Mask" y="4.000000" rx="3.000000" width="28.000000" height="20.000000" stroke="#979797" stroke-opacity="0" stroke-width="0.000000"/>
	</mask>
	<g mask="url(#mask17_4627)">
		<rect id="Mask Copy" y="4.000000" width="28.000000" height="20.000000" fill="#128C4B" fill-opacity="1.000000"/>
		<rect id="Mask Copy" y="4.000000" width="28.000000" height="20.000000" stroke="#979797" stroke-opacity="0" stroke-width="0.000000"/>
	</g>
	<g mask="url(#mask17_4627)">
		<path id="Rectangle 455" d="M6.66 16L17.33 16L17.33 15.07C17.33 14.58 17.85 14.26 18.29 14.48L18.66 14.66L18.66 16L20.66 16C21.03 16 21.33 16.29 21.33 16.66L21.33 17.33C21.33 18.06 20.73 18.66 20 18.66L18 18.66C17.63 18.66 17.33 18.36 17.33 18L17.33 17.33L8.27 17.33C8.09 17.33 7.92 17.26 7.8 17.13L6.66 16Z" fill="#FFFFFF" fill-opacity="1.000000" fill-rule="evenodd"/>
		<path id="Rectangle 455" d="M17.33 16L17.33 15.07C17.33 14.58 17.85 14.26 18.29 14.48L18.66 14.66L18.66 16L20.66 16C21.03 16 21.33 16.29 21.33 16.66L21.33 17.33C21.33 18.06 20.73 18.66 20 18.66L18 18.66C17.63 18.66 17.33 18.36 17.33 18L17.33 17.33L8.27 17.33C8.09 17.33 7.92 17.26 7.8 17.13L6.66 16L17.33 16Z" stroke="#979797" stroke-opacity="0" stroke-width="0.000000"/>
	</g>
	<g mask="url(#mask17_4627)">
		<path id="Rectangle 456" d="M6.66 12.13C6.66 12.04 6.7 11.96 6.76 11.9L7.09 11.56C7.22 11.43 7.22 11.22 7.09 11.09L6.76 10.76C6.7 10.7 6.66 10.61 6.66 10.52L6.66 9.66C6.66 9.48 6.81 9.33 6.99 9.33L7.74 9.33C7.88 9.33 7.99 9.44 7.99 9.58L7.99 9.58C7.99 9.85 8.36 9.94 8.48 9.7L8.58 9.5C8.63 9.39 8.74 9.33 8.85 9.33L10.33 9.33C10.51 9.33 10.66 9.48 10.66 9.66L10.66 9.66C10.66 9.85 10.51 10 10.33 10L9.66 10C9.48 10 9.33 10.14 9.33 10.33L9.33 10.33C9.33 10.51 9.48 10.66 9.66 10.66L10.33 10.66C10.51 10.66 10.66 10.81 10.66 11L10.66 13C10.66 13.18 10.51 13.33 10.33 13.33L9.66 13.33C9.48 13.33 9.33 13.18 9.33 13L9.33 12.33C9.33 12.14 9.48 12 9.66 12L9.66 12C9.85 12 9.99 11.85 9.99 11.66L9.99 11.66C9.99 11.48 9.85 11.33 9.66 11.33L8.99 11.33C8.81 11.33 8.66 11.48 8.66 11.66L8.66 13C8.66 13.18 8.51 13.33 8.33 13.33L8.33 13.33C8.14 13.33 7.99 13.18 7.99 13L7.99 12.33C7.99 12.14 7.85 12 7.66 12L7.66 12C7.48 12 7.33 12.14 7.33 12.33L7.33 13C7.33 13.18 7.18 13.33 6.99 13.33L6.99 13.33C6.81 13.33 6.66 13.18 6.66 13L6.66 12.13Z" fill="#FFFFFF" fill-opacity="1.000000" fill-rule="evenodd"/>
		<path id="Rectangle 456" d="M7.09 11.56C7.22 11.43 7.22 11.22 7.09 11.09L6.76 10.76C6.7 10.7 6.66 10.61 6.66 10.52L6.66 9.66C6.66 9.48 6.81 9.33 6.99 9.33L7.74 9.33C7.88 9.33 7.99 9.44 7.99 9.58C7.99 9.85 8.36 9.94 8.48 9.7L8.58 9.5C8.63 9.39 8.74 9.33 8.85 9.33L10.33 9.33C10.51 9.33 10.66 9.48 10.66 9.66C10.66 9.85 10.51 10 10.33 10L9.66 10C9.48 10 9.33 10.14 9.33 10.33C9.33 10.51 9.48 10.66 9.66 10.66L10.33 10.66C10.51 10.66 10.66 10.81 10.66 11L10.66 13C10.66 13.18 10.51 13.33 10.33 13.33L9.66 13.33C9.48 13.33 9.33 13.18 9.33 13L9.33 12.33C9.33 12.14 9.48 12 9.66 12C9.85 12 9.99 11.85 9.99 11.66C9.99 11.48 9.85 11.33 9.66 11.33L8.99 11.33C8.81 11.33 8.66 11.48 8.66 11.66L8.66 13C8.66 13.18 8.51 13.33 8.33 13.33C8.14 13.33 7.99 13.18 7.99 13L7.99 12.33C7.99 12.14 7.85 12 7.66 12C7.48 12 7.33 12.14 7.33 12.33L7.33 13C7.33 13.18 7.18 13.33 6.99 13.33C6.81 13.33 6.66 13.18 6.66 13L6.66 12.13C6.66 12.04 6.7 11.96 6.76 11.9L7.09 11.56Z" stroke="#979797" stroke-opacity="0" stroke-width="0.000000"/>
	</g>
	<g mask="url(#mask17_4627)">
		<path id="Rectangle 456" d="M17.33 12.13C17.33 12.04 17.36 11.96 17.43 11.9L17.76 11.56C17.89 11.43 17.89 11.22 17.76 11.09L17.43 10.76C17.36 10.7 17.33 10.61 17.33 10.52L17.33 9.66C17.33 9.48 17.48 9.33 17.66 9.33L18.41 9.33C18.55 9.33 18.66 9.44 18.66 9.58L18.66 9.58C18.66 9.85 19.02 9.94 19.14 9.7L19.24 9.5C19.3 9.39 19.4 9.33 19.52 9.33L21 9.33C21.18 9.33 21.33 9.48 21.33 9.66L21.33 9.66C21.33 9.85 21.18 10 21 10L20.33 10C20.14 10 20 10.14 20 10.33L20 10.33C20 10.51 20.14 10.66 20.33 10.66L21 10.66C21.18 10.66 21.33 10.81 21.33 11L21.33 13C21.33 13.18 21.18 13.33 21 13.33L20.33 13.33C20.14 13.33 20 13.18 20 13L20 12.33C20 12.14 20.14 12 20.33 12L20.33 12C20.51 12 20.66 11.85 20.66 11.66L20.66 11.66C20.66 11.48 20.51 11.33 20.33 11.33L19.66 11.33C19.48 11.33 19.33 11.48 19.33 11.66L19.33 13C19.33 13.18 19.18 13.33 19 13.33L19 13.33C18.81 13.33 18.66 13.18 18.66 13L18.66 12.33C18.66 12.14 18.51 12 18.33 12L18.33 12C18.14 12 18 12.14 18 12.33L18 13C18 13.18 17.85 13.33 17.66 13.33L17.66 13.33C17.48 13.33 17.33 13.18 17.33 13L17.33 12.13Z" fill="#FFFFFF" fill-opacity="1.000000" fill-rule="evenodd"/>
		<path id="Rectangle 456" d="M17.76 11.56C17.89 11.43 17.89 11.22 17.76 11.09L17.43 10.76C17.36 10.7 17.33 10.61 17.33 10.52L17.33 9.66C17.33 9.48 17.48 9.33 17.66 9.33L18.41 9.33C18.55 9.33 18.66 9.44 18.66 9.58C18.66 9.85 19.02 9.94 19.14 9.7L19.24 9.5C19.3 9.39 19.4 9.33 19.52 9.33L21 9.33C21.18 9.33 21.33 9.48 21.33 9.66C21.33 9.85 21.18 10 21 10L20.33 10C20.14 10 20 10.14 20 10.33C20 10.51 20.14 10.66 20.33 10.66L21 10.66C21.18 10.66 21.33 10.81 21.33 11L21.33 13C21.33 13.18 21.18 13.33 21 13.33L20.33 13.33C20.14 13.33 20 13.18 20 13L20 12.33C20 12.14 20.14 12 20.33 12C20.51 12 20.66 11.85 20.66 11.66C20.66 11.48 20.51 11.33 20.33 11.33L19.66 11.33C19.48 11.33 19.33 11.48 19.33 11.66L19.33 13C19.33 13.18 19.18 13.33 19 13.33C18.81 13.33 18.66 13.18 18.66 13L18.66 12.33C18.66 12.14 18.51 12 18.33 12C18.14 12 18 12.14 18 12.33L18 13C18 13.18 17.85 13.33 17.66 13.33C17.48 13.33 17.33 13.18 17.33 13L17.33 12.13C17.33 12.04 17.36 11.96 17.43 11.9L17.76 11.56Z" stroke="#979797" stroke-opacity="0" stroke-width="0.000000"/>
	</g>
	<g mask="url(#mask17_4627)">
		<path id="Rectangle 456" d="M16 10.33C16 10.51 15.89 10.77 15.75 10.9L15.57 11.09C15.44 11.22 15.43 11.43 15.57 11.57L15.75 11.75C15.89 11.89 16 12.14 16 12.33L16 12.99C16 13.18 15.85 13.33 15.66 13.33L15 13.33C14.81 13.33 14.66 13.19 14.66 12.99L14.66 12.33C14.66 12.15 14.6 12.12 14.51 12.3L14.15 13.02C14.06 13.19 13.84 13.33 13.66 13.33L12.33 13.33C12.14 13.33 12 13.17 12 13C12 12.81 12.14 12.66 12.33 12.66L12.99 12.66C13.18 12.66 13.33 12.51 13.33 12.33C13.33 12.14 13.19 12 12.99 12L12.33 12C12.15 12 12 11.85 12 11.67L12 9.66C12 9.47 12.14 9.33 12.33 9.33L12.99 9.33C13.18 9.33 13.33 9.47 13.33 9.66L13.33 10.33C13.33 10.51 13.17 10.66 13 10.66C12.81 10.66 12.66 10.82 12.66 11C12.66 11.18 12.8 11.33 13 11.33L13.66 11.33C13.84 11.33 14 11.17 14 11L14 9.66C14 9.48 14.15 9.33 14.33 9.33C14.51 9.33 14.66 9.47 14.66 9.66L14.66 10.33C14.66 10.51 14.82 10.66 15 10.66C15.18 10.66 15.33 10.52 15.33 10.33L15.33 9.66C15.33 9.48 15.48 9.33 15.66 9.33C15.85 9.33 16 9.47 16 9.66L16 10.33Z" fill="#FFFFFF" fill-opacity="1.000000" fill-rule="evenodd"/>
		<path id="Rectangle 456" d="M15.75 10.9L15.57 11.09C15.44 11.22 15.43 11.43 15.57 11.57L15.75 11.75C15.89 11.89 16 12.14 16 12.33L16 12.99C16 13.18 15.85 13.33 15.66 13.33L15 13.33C14.81 13.33 14.66 13.19 14.66 12.99L14.66 12.33C14.66 12.15 14.6 12.12 14.51 12.3L14.15 13.02C14.06 13.19 13.84 13.33 13.66 13.33L12.33 13.33C12.14 13.33 12 13.17 12 13C12 12.81 12.14 12.66 12.33 12.66L12.99 12.66C13.18 12.66 13.33 12.51 13.33 12.33C13.33 12.14 13.19 12 12.99 12L12.33 12C12.15 12 12 11.85 12 11.67L12 9.66C12 9.47 12.14 9.33 12.33 9.33L12.99 9.33C13.18 9.33 13.33 9.47 13.33 9.66L13.33 10.33C13.33 10.51 13.17 10.66 13 10.66C12.81 10.66 12.66 10.82 12.66 11C12.66 11.18 12.8 11.33 13 11.33L13.66 11.33C13.84 11.33 14 11.17 14 11L14 9.66C14 9.48 14.15 9.33 14.33 9.33C14.51 9.33 14.66 9.47 14.66 9.66L14.66 10.33C14.66 10.51 14.82 10.66 15 10.66C15.18 10.66 15.33 10.52 15.33 10.33L15.33 9.66C15.33 9.48 15.48 9.33 15.66 9.33C15.85 9.33 16 9.47 16 9.66L16 10.33C16 10.51 15.89 10.77 15.75 10.9Z" stroke="#979797" stroke-opacity="0" stroke-width="0.000000"/>
	</g>
</svg>
