<svg width="28.000000" height="28.000000" viewBox="0 0 28 28" fill="none" xmlns="http://www.w3.org/2000/svg" xmlns:xlink="http://www.w3.org/1999/xlink">
	<desc>
			Created with Pixso.
	</desc>
	<defs/>
	<rect id="Serbia" width="28.000000" height="28.000000" fill="#FFFFFF" fill-opacity="0"/>
	<rect id="Mask" y="4.000000" rx="3.000000" width="28.000000" height="20.000000" fill="#FFFFFF" fill-opacity="1.000000"/>
	<rect id="Mask" x="0.250000" y="4.250000" rx="3.000000" width="27.500000" height="19.500000" stroke="#D6D8DD" stroke-opacity="1.000000" stroke-width="0.500000"/>
	<mask id="mask17_4477" mask-type="alpha" maskUnits="userSpaceOnUse" x="0.000000" y="4.000000" width="28.000000" height="20.000000">
		<rect id="Mask" y="4.000000" rx="3.000000" width="28.000000" height="20.000000" fill="#FFFFFF" fill-opacity="1.000000"/>
		<rect id="Mask" x="0.250000" y="4.250000" rx="3.000000" width="27.500000" height="19.500000" stroke="#F5F5F5" stroke-opacity="1.000000" stroke-width="0.500000"/>
	</mask>
	<g mask="url(#mask17_4477)">
		<path id="Rectangle 2" d="M0 17.33L28 17.33L28 10.66L0 10.66L0 17.33Z" fill="#17508F" fill-opacity="1.000000" fill-rule="evenodd"/>
		<path id="Rectangle 2" d="M28 17.33L28 10.66L0 10.66L0 17.33L28 17.33Z" stroke="#979797" stroke-opacity="0" stroke-width="0.000000"/>
	</g>
	<g mask="url(#mask17_4477)">
		<path id="Rectangle 2" d="M0 10.66L28 10.66L28 4L0 4L0 10.66Z" fill="#E1444D" fill-opacity="1.000000" fill-rule="evenodd"/>
		<path id="Rectangle 2" d="M28 10.66L28 4L0 4L0 10.66L28 10.66Z" stroke="#979797" stroke-opacity="0" stroke-width="0.000000"/>
	</g>
	<g mask="url(#mask17_4477)">
		<path id="Mask" d="M6 14C6 13.35 6.34 11.91 6.53 11.15C6.61 10.86 6.87 10.66 7.17 10.66L10.15 10.66C10.45 10.66 10.72 10.86 10.79 11.15C10.99 11.91 11.33 13.34 11.33 14C11.33 14.74 10.83 16.7 10.69 17.21C10.67 17.29 10.64 17.36 10.58 17.43C10.33 17.74 9.49 18.66 8.66 18.66C7.83 18.66 7 17.74 6.74 17.43C6.69 17.36 6.65 17.29 6.63 17.21C6.5 16.7 6 14.76 6 14Z" fill="#FFFFFF" fill-opacity="1.000000" fill-rule="evenodd"/>
		<path id="Mask" d="M6.53 11.15C6.61 10.86 6.87 10.66 7.17 10.66L10.15 10.66C10.45 10.66 10.72 10.86 10.79 11.15C10.99 11.91 11.33 13.34 11.33 14C11.33 14.74 10.83 16.69 10.69 17.2C10.67 17.29 10.64 17.36 10.58 17.43C10.33 17.74 9.49 18.66 8.66 18.66C7.83 18.66 7 17.74 6.74 17.43C6.69 17.36 6.65 17.29 6.63 17.21C6.49 16.7 6 14.76 6 14C6 13.35 6.34 11.91 6.53 11.15Z" stroke="#979797" stroke-opacity="0" stroke-width="0.000000"/>
		<mask id="mask17_4482" mask-type="alpha" maskUnits="userSpaceOnUse" x="6.000000" y="10.666626" width="5.333344" height="8.000000">
			<path id="Mask" d="M6 14C6 13.35 6.34 11.91 6.53 11.15C6.61 10.86 6.87 10.66 7.17 10.66L10.15 10.66C10.45 10.66 10.72 10.86 10.79 11.15C10.99 11.91 11.33 13.34 11.33 14C11.33 14.74 10.83 16.7 10.69 17.21C10.67 17.29 10.64 17.36 10.58 17.43C10.33 17.74 9.49 18.66 8.66 18.66C7.83 18.66 7 17.74 6.74 17.43C6.69 17.36 6.65 17.29 6.63 17.21C6.5 16.7 6 14.76 6 14Z" fill="#FFFFFF" fill-opacity="1.000000" fill-rule="evenodd"/>
			<path id="Mask" d="M6.53 11.15C6.61 10.86 6.87 10.66 7.17 10.66L10.15 10.66C10.45 10.66 10.72 10.86 10.79 11.15C10.99 11.91 11.33 13.34 11.33 14C11.33 14.74 10.83 16.69 10.69 17.2C10.67 17.29 10.64 17.36 10.58 17.43C10.33 17.74 9.49 18.66 8.66 18.66C7.83 18.66 7 17.74 6.74 17.43C6.69 17.36 6.65 17.29 6.63 17.21C6.49 16.7 6 14.76 6 14C6 13.35 6.34 11.91 6.53 11.15Z" stroke="#979797" stroke-opacity="0" stroke-width="0.000000"/>
		</mask>
		<g mask="url(#mask17_4482)">
			<path id="Line" d="M10.8 10.93L11.22 10.39L12.27 11.22L11.84 11.76L10.8 10.93ZM6.53 18.4L6.1 18.93L5.06 18.1L5.49 17.56L6.53 18.4Z" fill="#D8D8D8" fill-opacity="0" fill-rule="nonzero"/>
			<path id="Line" d="M11.33 11.33L6 18" stroke="#E1444D" stroke-opacity="1.000000" stroke-width="1.333333" stroke-linecap="square"/>
		</g>
		<g mask="url(#mask17_4482)">
			<path id="Line" d="M6.53 10.93L6.1 10.39L5.06 11.22L5.49 11.76L6.53 10.93ZM10.8 18.4L11.22 18.93L12.27 18.1L11.84 17.56L10.8 18.4Z" fill="#D8D8D8" fill-opacity="0" fill-rule="nonzero"/>
			<path id="Line" d="M6 11.33L11.33 18" stroke="#E1444D" stroke-opacity="1.000000" stroke-width="1.333333" stroke-linecap="square"/>
		</g>
	</g>
</svg>
