<svg viewBox="0 0 28 28" xmlns="http://www.w3.org/2000/svg" xmlns:xlink="http://www.w3.org/1999/xlink" width="28.000000" height="28.000000" fill="none" customFrame="#000000">
	<defs>
		<filter id="pixso_custom_mask_type_alpha">
			<feColorMatrix type="matrix" values="0 0 0 0 1 0 0 0 0 1 0 0 0 0 1 0 0 0 1 0 " />
		</filter>
		<linearGradient id="paint_linear_172" x1="0" x2="0" y1="4" y2="24" gradientUnits="userSpaceOnUse">
			<stop stop-color="rgb(28.8062,189.529,79.182)" offset="0" stop-opacity="1" />
			<stop stop-color="rgb(21,155,63)" offset="1" stop-opacity="1" />
		</linearGradient>
	</defs>
	<mask id="mask_511" width="28.000000" height="20.000000" x="0.000000" y="4.000000" maskUnits="userSpaceOnUse">
		<g filter="url(#pixso_custom_mask_type_alpha)">
			<rect id="Mask" width="28.000000" height="20.000000" x="0.000000" y="4.000000" rx="3.000000" fill="rgb(255,255,255)" />
			<rect id="Mask" width="27.500000" height="19.500000" x="0.250000" y="4.250000" rx="2.750000" stroke="rgb(245,245,245)" stroke-width="0.5" />
		</g>
	</mask>
	<rect id="Seychelles" width="28.000000" height="28.000000" x="0.000000" y="0.000000" fill="rgb(255,255,255)" fill-opacity="0" />
	<rect id="Mask" width="28.000000" height="20.000000" x="0.000000" y="4.000000" rx="3.000000" fill="rgb(255,255,255)" />
	<rect id="Mask" width="27.500000" height="19.500000" x="0.250000" y="4.250000" rx="2.750000" stroke="rgb(214,216,221)" stroke-width="0.5" />
	<g mask="url(#mask_511)">
		<path id="Combined Shape" d="M28 10.6667L28 4L0 4L0 24L28 24L28 17.3333L0 24L28 10.6667Z" fill="url(#paint_linear_172)" fill-rule="evenodd" />
		<path id="Combined Shape" d="M28 10.6667L28 4L0 4L0 24L28 24L28 17.3333L0 24L28 10.6667Z" fill-rule="evenodd" stroke="rgb(150.96,150.96,150.96)" stroke-opacity="0" stroke-width="0" />
		<path id="Rectangle 253" d="M0 4L9.33333 4L0 24L0 4Z" fill="rgb(8,88,180)" fill-rule="evenodd" />
		<path id="Rectangle 253" d="M9.33333 4L0 24L0 4L9.33333 4Z" fill-rule="evenodd" stroke="rgb(150.96,150.96,150.96)" stroke-opacity="0" stroke-width="0" />
		<path id="Rectangle 253" d="M18.6667 4L28 4L28 10.6667L0 24L18.6667 4Z" fill="rgb(237,53,53)" fill-rule="evenodd" />
		<path id="Rectangle 253" d="M28 4L28 10.6667L0 24L18.6667 4L28 4Z" fill-rule="evenodd" stroke="rgb(150.96,150.96,150.96)" stroke-opacity="0" stroke-width="0" />
		<path id="Rectangle 253" d="M28 24L28 17.3334L0 24L28 24Z" fill="rgb(8,150,79)" fill-rule="evenodd" />
		<path id="Rectangle 253" d="M28 17.3334L0 24L28 24L28 17.3334Z" fill-rule="evenodd" stroke="rgb(150.96,150.96,150.96)" stroke-opacity="0" stroke-width="0" />
		<path id="Rectangle 253" d="M9.33333 4L18.6667 4L0 24L9.33333 4Z" fill="rgb(255,221,103)" fill-rule="evenodd" />
		<path id="Rectangle 253" d="M18.6667 4L0 24L9.33333 4L18.6667 4Z" fill-rule="evenodd" stroke="rgb(150.96,150.96,150.96)" stroke-opacity="0" stroke-width="0" />
	</g>
</svg>
