<svg width="28.000000" height="28.000000" viewBox="0 0 28 28" fill="none" xmlns="http://www.w3.org/2000/svg" xmlns:xlink="http://www.w3.org/1999/xlink">
	<desc>
			Created with Pixso.
	</desc>
	<defs>
		<clipPath id="clip136805_1069">
			<rect id="Sint Maarten" width="28.000000" height="28.000000" transform="translate(28.000000 28.000000) rotate(180.000000)" fill="white" fill-opacity="0"/>
		</clipPath>
	</defs>
	<rect id="Sint Maarten" width="28.000000" height="28.000000" transform="translate(28.000000 28.000000) rotate(180.000000)" fill="#FFFFFF" fill-opacity="0"/>
	<g>
		<rect id="Mask Copy" y="4.000000" rx="3.000000" width="28.000000" height="20.000000" fill="#FFFFFF" fill-opacity="1.000000"/>
		<rect id="Mask Copy" x="0.250000" y="4.250000" rx="3.000000" width="27.500000" height="19.500000" stroke="#F5F5F5" stroke-opacity="1.000000" stroke-width="0.500000"/>
		<mask id="mask136805_1058" mask-type="alpha" maskUnits="userSpaceOnUse" x="3.000000" y="4.000000" width="24.999756" height="19.999998">
			<path id="Mask Copy" d="M2.99 4L24.99 4C26.65 4 27.99 5.34 27.99 7L27.99 21C27.99 22.65 26.65 24 24.99 24L2.99 24L17.01 14.15L2.99 4Z" fill="#1B2F4C" fill-opacity="1.000000" fill-rule="nonzero"/>
			<path id="Mask Copy" d="" fill="#F5F5F5" fill-opacity="0" fill-rule="evenodd"/>
		</mask>
		<g mask="url(#mask136805_1058)">
			<rect id="Mask Copy" x="0.040894" y="14.156860" width="27.959137" height="19.999998" fill="#012A87" fill-opacity="1.000000"/>
			<rect id="Mask Copy" x="0.290894" y="14.406860" width="27.459137" height="19.499998" stroke="#F5F5F5" stroke-opacity="0" stroke-width="0.500000"/>
		</g>
		<g mask="url(#mask136805_1058)">
			<rect id="Mask Copy" x="0.040894" y="-5.843140" width="27.959137" height="19.999998" fill="#DC171D" fill-opacity="1.000000"/>
			<rect id="Mask Copy" x="0.290894" y="-5.593140" width="27.459137" height="19.499998" stroke="#F5F5F5" stroke-opacity="0" stroke-width="0.500000"/>
		</g>
		<circle id="Ellipse 2975" cx="6.496826" cy="11.854500" r="1.845711" fill="#F9D90F" fill-opacity="1.000000"/>
		<path id="Rectangle 240649378" d="M6.49 11.37C5.76 10.98 4.3 11.55 3.61 11.05C4.15 13.33 3.61 14.38 3.61 15.07C3.61 16.95 5.96 16.04 6.49 16.75C7.02 16.04 9.37 16.95 9.37 15.07C9.37 14.38 8.83 13.33 9.37 11.05C8.68 11.55 7.23 10.98 6.49 11.37Z" fill="#62AFE1" fill-opacity="1.000000" fill-rule="nonzero"/>
		<path id="Rectangle 240649378" d="M6.49 11.37C6.15 11.19 5.64 11.22 5.13 11.25C4.73 11.27 4.33 11.29 4 11.22C3.85 11.18 3.72 11.13 3.61 11.05C3.65 11.2 3.68 11.34 3.7 11.48C3.97 12.9 3.81 13.79 3.7 14.42C3.65 14.68 3.61 14.89 3.61 15.07C3.61 16.25 4.54 16.33 5.36 16.4C5.69 16.43 6.01 16.46 6.24 16.56C6.35 16.6 6.43 16.66 6.49 16.75C6.55 16.66 6.64 16.6 6.74 16.56C6.97 16.46 7.29 16.43 7.63 16.4C8.45 16.33 9.37 16.25 9.37 15.07C9.37 14.89 9.33 14.68 9.29 14.42C9.17 13.79 9.01 12.9 9.28 11.48C9.31 11.34 9.34 11.2 9.37 11.05C9.26 11.13 9.13 11.18 8.99 11.22C8.65 11.29 8.25 11.27 7.85 11.25C7.34 11.22 6.84 11.19 6.49 11.37ZM8.92 11.58Q8.82 11.59 8.71 11.6Q8.43 11.62 7.83 11.59Q7.34 11.56 7.13 11.57Q6.81 11.58 6.65 11.67L6.49 11.75L6.33 11.67Q6.17 11.58 5.86 11.57Q5.64 11.56 5.15 11.59Q4.55 11.62 4.27 11.6Q4.16 11.59 4.07 11.58Q4.21 12.38 4.19 13.11Q4.18 13.49 4.13 13.88Q4.1 14.11 4.03 14.48Q3.95 14.92 3.95 15.07Q3.95 15.4 4.06 15.6Q4.08 15.62 4.09 15.64Q4.18 15.77 4.34 15.85Q4.51 15.95 4.8 16Q4.99 16.03 5.39 16.06Q5.89 16.11 6.11 16.16Q6.33 16.21 6.49 16.31Q6.65 16.21 6.87 16.16Q7.09 16.11 7.6 16.06Q8 16.03 8.19 16Q8.47 15.95 8.65 15.85Q8.81 15.77 8.9 15.64Q8.91 15.62 8.92 15.6Q9.03 15.4 9.03 15.07Q9.03 14.92 8.95 14.48Q8.88 14.11 8.85 13.88Q8.8 13.49 8.79 13.11Q8.78 12.38 8.92 11.58Z" fill="#DC171D" fill-opacity="1.000000" fill-rule="evenodd"/>
		<path id="Rectangle 240649379" d="M6.09 12.69L6.51 12.26L6.94 12.69L6.94 13.08L7.78 13.68L7.78 14.32L8.03 14.32L8.03 15.32L4.97 15.32L4.97 14.32L5.2 14.32L5.2 13.68L6.09 13.08L6.09 12.69Z" fill="#FFFFFF" fill-opacity="1.000000" fill-rule="nonzero"/>
		<path id="Union" d="M3.48 16.18C3.21 15.85 3.05 15.39 3 14.85L3.17 14.88L3.34 13.93L2.67 13.81L2.56 14.47L2.3 14.47C2.3 15.27 2.49 16.04 2.95 16.61C3.29 17.03 3.75 17.32 4.33 17.45L4.26 17.61C4.76 17.85 5.59 17.99 6.5 17.99C7.41 17.99 8.25 17.85 8.75 17.61L8.67 17.44C9.23 17.3 9.67 17.01 10 16.61C10.46 16.04 10.65 15.27 10.65 14.47L10.39 14.47L10.27 13.81L9.6 13.93L9.77 14.88L9.95 14.85C9.9 15.39 9.74 15.85 9.47 16.18C9.14 16.58 8.63 16.85 7.85 16.85L7.85 17.18C7.48 17.26 7.02 17.3 6.5 17.3C5.96 17.3 5.48 17.25 5.1 17.17L5.1 16.85C4.32 16.85 3.81 16.58 3.48 16.18Z" fill="#F9D90F" fill-opacity="1.000000" fill-rule="evenodd"/>
		<path id="Vector 4199" d="M4.28 10.65L6.11 10.65L6.51 10.85L6.94 10.65L8.61 10.65" stroke="#BC715F" stroke-opacity="1.000000" stroke-width="0.510261" stroke-linejoin="round" stroke-linecap="round"/>
		<rect id="Rectangle 240649380" x="7.842773" y="12.008667" width="0.392578" height="0.970703" fill="#FFFFFF" fill-opacity="1.000000"/>
		<circle id="Ellipse 2976" cx="5.060486" cy="12.448650" r="0.409589" fill="#F9D90F" fill-opacity="1.000000"/>
	</g>
</svg>
