<svg width="28" height="28" viewBox="0 0 28 28" fill="none" xmlns="http://www.w3.org/2000/svg">
<rect x="0.25" y="4.25" width="27.5" height="19.5" rx="2.75" fill="white" stroke="#D6D8DD" stroke-width="0.5"/>
<mask id="mask0_17_4507" style="mask-type:luminance" maskUnits="userSpaceOnUse" x="0" y="4" width="28" height="20">
<rect x="0.25" y="4.25" width="27.5" height="19.5" rx="2.75" fill="white" stroke="white" stroke-width="0.5"/>
</mask>
<g mask="url(#mask0_17_4507)">
<path fill-rule="evenodd" clip-rule="evenodd" d="M0 17.3333H28V10.6667H0V17.3333Z" fill="#0C47B7"/>
<path fill-rule="evenodd" clip-rule="evenodd" d="M0 24H28V17.3333H0V24Z" fill="#E53B35"/>
<path d="M6.9497 7.33333C5.87503 7.33333 4.99248 8.1826 4.95117 9.25647L4.69192 15.9969C4.66845 16.6073 4.92514 17.1948 5.38886 17.5923L8.26455 20.0572C9.26319 20.9132 10.7368 20.9132 11.7354 20.0572L14.6111 17.5923C15.0748 17.1948 15.3315 16.6073 15.3081 15.9969L15.0488 9.25647C15.0075 8.1826 14.1249 7.33333 13.0503 7.33333H6.9497Z" fill="#F73744" stroke="white" stroke-width="1.33333"/>
<mask id="mask1_17_4507" style="mask-type:luminance" maskUnits="userSpaceOnUse" x="4" y="6" width="12" height="16">
<path d="M6.9497 7.33333C5.87503 7.33333 4.99248 8.1826 4.95117 9.25647L4.69192 15.9969C4.66845 16.6073 4.92514 17.1948 5.38886 17.5923L8.26455 20.0572C9.26319 20.9132 10.7368 20.9132 11.7354 20.0572L14.6111 17.5923C15.0748 17.1948 15.3315 16.6073 15.3081 15.9969L15.0488 9.25647C15.0075 8.1826 14.1249 7.33333 13.0503 7.33333H6.9497Z" fill="white" stroke="white" stroke-width="1.33333"/>
</mask>
<g mask="url(#mask1_17_4507)">
<path fill-rule="evenodd" clip-rule="evenodd" d="M9.33333 15C9.33333 14.8159 9.18409 14.6667 8.99999 14.6667H7.66666C7.48257 14.6667 7.33333 14.5174 7.33333 14.3333V13.6667C7.33333 13.4826 7.48257 13.3333 7.66666 13.3333H8.99999C9.18409 13.3333 9.33333 13.1841 9.33333 13V12.3333C9.33333 12.1492 9.18409 12 8.99999 12H8.33333C8.14923 12 7.99999 11.8508 7.99999 11.6667V11C7.99999 10.8159 8.14923 10.6667 8.33333 10.6667H8.99999C9.18409 10.6667 9.33333 10.5174 9.33333 10.3333V9.66667C9.33333 9.48257 9.48257 9.33333 9.66666 9.33333H10.3333C10.5174 9.33333 10.6667 9.48257 10.6667 9.66667V10.3333C10.6667 10.5174 10.8159 10.6667 11 10.6667H11.6667C11.8508 10.6667 12 10.8159 12 11V11.6667C12 11.8508 11.8508 12 11.6667 12H11C10.8159 12 10.6667 12.1492 10.6667 12.3333V13C10.6667 13.1841 10.8159 13.3333 11 13.3333H12.3333C12.5174 13.3333 12.6667 13.4826 12.6667 13.6667V14.3333C12.6667 14.5174 12.5174 14.6667 12.3333 14.6667H11C10.8159 14.6667 10.6667 14.8159 10.6667 15V17C10.6667 17.1841 10.5174 17.3333 10.3333 17.3333H9.66666C9.48257 17.3333 9.33333 17.1841 9.33333 17V15Z" fill="white"/>
<path fill-rule="evenodd" clip-rule="evenodd" d="M11.2035 17.4255C10.9889 16.9767 10.5307 16.6667 10 16.6667C9.46934 16.6667 9.01109 16.9767 8.79647 17.4255C7.17545 17.6808 6 18.4385 6 19.3333C6 20.4379 7.79086 21.3333 10 21.3333C12.2091 21.3333 14 20.4379 14 19.3333C14 18.4385 12.8246 17.6808 11.2035 17.4255Z" fill="#1251A1"/>
</g>
</g>
</svg>
