<svg viewBox="0 0 28 28" xmlns="http://www.w3.org/2000/svg" xmlns:xlink="http://www.w3.org/1999/xlink" width="28.000000" height="28.000000" fill="none" customFrame="#000000">
	<defs>
		<filter id="pixso_custom_mask_type_alpha">
			<feColorMatrix type="matrix" values="0 0 0 0 1 0 0 0 0 1 0 0 0 0 1 0 0 0 1 0 " />
		</filter>
		<g id="pixso_custom_effect_46">
			<effect x="0.000000" y="0.000000" visibility="visible" fill="rgb(0,0,0)" fill-opacity="0.0599999987" effectType="dropShadow" showShadowBehind="1" stdDeviation="0" radius="0" />
			<effect x="0.000000" y="1.000000" visibility="hidden" fill="rgb(255,216.88,100.278)" fill-opacity="1" effectType="innerShadow" showShadowBehind="1" stdDeviation="0" radius="0" />
		</g>
		<filter id="filter_46" width="28.000000" height="6.666666" x="0.000000" y="17.333328" filterUnits="userSpaceOnUse" customEffect="url(#pixso_custom_effect_46)" color-interpolation-filters="sRGB">
			<feFlood flood-opacity="0" result="BackgroundImageFix" />
			<feOffset dx="0.000000" dy="0.000000" in="SourceAlpha" />
			<feColorMatrix type="matrix" values="0 0 0 0 0 0 0 0 0 0 0 0 0 0 0 0 0 0 0.06 0 " />
			<feBlend result="effect_dropShadow_1" in2="BackgroundImageFix" mode="normal" />
			<feBlend result="shape" in="SourceGraphic" in2="effect_dropShadow_1" mode="normal" />
		</filter>
	</defs>
	<mask id="mask_507" width="28.000000" height="20.000000" x="0.000000" y="4.000000" maskUnits="userSpaceOnUse">
		<g filter="url(#pixso_custom_mask_type_alpha)">
			<rect id="Mask" width="28.000000" height="20.000000" x="0.000000" y="4.000000" rx="3.000000" fill="rgb(255,255,255)" />
			<rect id="Mask" width="27.500000" height="19.500000" x="0.250000" y="4.250000" rx="2.750000" stroke="rgb(245,245,245)" stroke-width="0.5" />
		</g>
	</mask>
	<rect id="Slovenia" width="28.000000" height="28.000000" x="0.000000" y="0.000000" fill="rgb(255,255,255)" fill-opacity="0" />
	<rect id="Mask" width="28.000000" height="20.000000" x="0.000000" y="4.000000" rx="3.000000" fill="rgb(255,255,255)" />
	<rect id="Mask" width="27.500000" height="19.500000" x="0.250000" y="4.250000" rx="2.750000" stroke="rgb(214,216,221)" stroke-width="0.5" />
	<g mask="url(#mask_507)">
		<path id="Combined Shape" d="M0 17.3333L28 17.3333L28 10.6666L9.24398 10.6666L9.24398 9.33329C9.24398 9.33329 8.30367 8.66663 7.33333 8.66663C6.36299 8.66663 5.33333 9.33329 5.33333 9.33329L5.33333 10.6666L0 10.6666L0 17.3333ZM8.66667 12C8.66667 12.7363 8.06971 13.3333 7.33333 13.3333C6.59695 13.3333 6 12.7363 6 12C6 11.2636 6.59695 10.6666 7.33333 10.6666C8.06971 10.6666 8.66667 11.2636 8.66667 12Z" fill="rgb(12,71,183)" fill-rule="evenodd" />
		<path id="Combined Shape" d="M0 17.3333L28 17.3333L28 10.6666L9.24398 10.6666L9.24398 9.33329C9.24398 9.33329 8.30367 8.66663 7.33333 8.66663C6.36299 8.66663 5.33333 9.33329 5.33333 9.33329L5.33333 10.6666L0 10.6666L0 17.3333ZM8.66667 12C8.66667 12.7363 8.06971 13.3333 7.33333 13.3333C6.59695 13.3333 6 12.7363 6 12C6 11.2636 6.59695 10.6666 7.33333 10.6666C8.06971 10.6666 8.66667 11.2636 8.66667 12Z" fill-rule="evenodd" stroke="rgb(150.96,150.96,150.96)" stroke-opacity="0" stroke-width="0" />
		<g filter="url(#filter_46)">
			<path id="Rectangle 2" d="M0 24L28 24L28 17.3334L0 17.3334L0 24Z" fill="rgb(229,59,53)" fill-rule="evenodd" />
			<path id="Rectangle 2" d="M28 24L28 17.3334L0 17.3334L0 24L28 24Z" fill-rule="evenodd" stroke="rgb(150.96,150.96,150.96)" stroke-opacity="0" stroke-width="0" />
		</g>
	</g>
</svg>
