<svg width="28.000000" height="28.000000" viewBox="0 0 28 28" fill="none" xmlns="http://www.w3.org/2000/svg" xmlns:xlink="http://www.w3.org/1999/xlink">
	<desc>
			Created with Pixso.
	</desc>
	<defs/>
	<rect id="Slovakia" width="28.000000" height="28.000000" fill="#FFFFFF" fill-opacity="0"/>
	<rect id="Mask" y="4.000000" rx="3.000000" width="28.000000" height="20.000000" fill="#FFFFFF" fill-opacity="1.000000"/>
	<rect id="Mask" x="0.250000" y="4.250000" rx="3.000000" width="27.500000" height="19.500000" stroke="#D6D8DD" stroke-opacity="1.000000" stroke-width="0.500000"/>
	<mask id="mask17_4509" mask-type="alpha" maskUnits="userSpaceOnUse" x="0.000000" y="4.000000" width="28.000000" height="20.000000">
		<rect id="Mask" y="4.000000" rx="3.000000" width="28.000000" height="20.000000" fill="#FFFFFF" fill-opacity="1.000000"/>
		<rect id="Mask" x="0.250000" y="4.250000" rx="3.000000" width="27.500000" height="19.500000" stroke="#F5F5F5" stroke-opacity="1.000000" stroke-width="0.500000"/>
	</mask>
	<g mask="url(#mask17_4509)">
		<path id="Rectangle 2" d="M0 17.33L28 17.33L28 10.66L0 10.66L0 17.33Z" fill="#0C47B7" fill-opacity="1.000000" fill-rule="evenodd"/>
		<path id="Rectangle 2" d="M28 17.33L28 10.66L0 10.66L0 17.33L28 17.33Z" stroke="#979797" stroke-opacity="0" stroke-width="0.000000"/>
	</g>
	<g mask="url(#mask17_4509)">
		<path id="Rectangle 2" d="M0 24L28 24L28 17.33L0 17.33L0 24Z" fill="#E53B35" fill-opacity="1.000000" fill-rule="evenodd"/>
		<path id="Rectangle 2" d="M28 24L28 17.33L0 17.33L0 24L28 24Z" stroke="#979797" stroke-opacity="0" stroke-width="0.000000"/>
	</g>
	<g mask="url(#mask17_4509)">
		<path id="Mask" d="M5.61 9.28C5.64 8.56 6.23 8 6.94 8L13.05 8C13.76 8 14.35 8.56 14.38 9.28L14.64 16.02C14.65 16.42 14.48 16.82 14.17 17.08L11.3 19.55C10.55 20.19 9.44 20.19 8.69 19.55L5.82 17.08C5.51 16.82 5.34 16.42 5.35 16.02L5.61 9.28Z" fill="#F73744" fill-opacity="1.000000" fill-rule="evenodd"/>
		<path id="Mask" d="M13.59 6.72Q13.32 6.66 13.05 6.66L6.94 6.66Q6.67 6.66 6.4 6.72Q6.16 6.77 5.93 6.86Q5.7 6.96 5.5 7.09Q5.28 7.23 5.1 7.41Q4.91 7.59 4.76 7.8Q4.62 8 4.52 8.22Q4.42 8.45 4.36 8.69Q4.29 8.95 4.28 9.23L4.02 15.97Q4.01 16.27 4.06 16.56Q4.12 16.86 4.24 17.14Q4.36 17.42 4.54 17.66Q4.72 17.89 4.95 18.09L7.83 20.56Q8.07 20.77 8.34 20.92Q8.59 21.06 8.86 21.16Q9.12 21.26 9.4 21.31Q9.69 21.36 10 21.36Q10.3 21.36 10.59 21.31Q10.87 21.26 11.13 21.16Q11.4 21.06 11.65 20.92Q11.92 20.77 12.16 20.56L15.04 18.09Q15.27 17.89 15.45 17.66Q15.63 17.42 15.75 17.14Q15.87 16.86 15.93 16.56Q15.98 16.27 15.97 15.97L15.71 9.23Q15.7 8.95 15.63 8.69Q15.58 8.45 15.47 8.22Q15.37 8 15.23 7.8Q15.08 7.59 14.89 7.41Q14.71 7.23 14.49 7.09Q14.29 6.96 14.06 6.86Q13.83 6.77 13.59 6.72ZM5.61 9.28C5.64 8.56 6.23 8 6.94 8L13.05 8C13.76 8 14.35 8.56 14.38 9.28L14.64 16.02C14.65 16.42 14.48 16.82 14.17 17.08L11.3 19.55C10.55 20.19 9.44 20.19 8.69 19.55L5.82 17.08C5.51 16.82 5.34 16.42 5.35 16.02L5.61 9.28Z" fill="#FFFFFF" fill-opacity="1.000000" fill-rule="evenodd"/>
		<mask id="mask17_4514" mask-type="alpha" maskUnits="userSpaceOnUse" x="5.383362" y="8.000000" width="9.233307" height="11.898003">
			<path id="Mask" d="M5.61 9.28C5.64 8.56 6.23 8 6.94 8L13.05 8C13.76 8 14.35 8.56 14.38 9.28L14.64 16.02C14.65 16.42 14.48 16.82 14.17 17.08L11.3 19.55C10.55 20.19 9.44 20.19 8.69 19.55L5.82 17.08C5.51 16.82 5.34 16.42 5.35 16.02L5.61 9.28Z" fill="#F73744" fill-opacity="1.000000" fill-rule="evenodd"/>
			<path id="Mask" d="M13.59 6.72Q13.32 6.66 13.05 6.66L6.94 6.66Q6.67 6.66 6.4 6.72Q6.16 6.77 5.93 6.86Q5.7 6.96 5.5 7.09Q5.28 7.23 5.1 7.41Q4.91 7.59 4.76 7.8Q4.62 8 4.52 8.22Q4.42 8.45 4.36 8.69Q4.29 8.95 4.28 9.23L4.02 15.97Q4.01 16.27 4.06 16.56Q4.12 16.86 4.24 17.14Q4.36 17.42 4.54 17.66Q4.72 17.89 4.95 18.09L7.83 20.56Q8.07 20.77 8.34 20.92Q8.59 21.06 8.86 21.16Q9.12 21.26 9.4 21.31Q9.69 21.36 10 21.36Q10.3 21.36 10.59 21.31Q10.87 21.26 11.13 21.16Q11.4 21.06 11.65 20.92Q11.92 20.77 12.16 20.56L15.04 18.09Q15.27 17.89 15.45 17.66Q15.63 17.42 15.75 17.14Q15.87 16.86 15.93 16.56Q15.98 16.27 15.97 15.97L15.71 9.23Q15.7 8.95 15.63 8.69Q15.58 8.45 15.47 8.22Q15.37 8 15.23 7.8Q15.08 7.59 14.89 7.41Q14.71 7.23 14.49 7.09Q14.29 6.96 14.06 6.86Q13.83 6.77 13.59 6.72ZM5.61 9.28C5.64 8.56 6.23 8 6.94 8L13.05 8C13.76 8 14.35 8.56 14.38 9.28L14.64 16.02C14.65 16.42 14.48 16.82 14.17 17.08L11.3 19.55C10.55 20.19 9.44 20.19 8.69 19.55L5.82 17.08C5.51 16.82 5.34 16.42 5.35 16.02L5.61 9.28Z" fill="#FFFFFF" fill-opacity="1.000000" fill-rule="evenodd"/>
		</mask>
		<g mask="url(#mask17_4514)">
			<path id="Rectangle 1694" d="M9.33 15C9.33 14.81 9.18 14.66 8.99 14.66L7.66 14.66C7.48 14.66 7.33 14.51 7.33 14.33L7.33 13.66C7.33 13.48 7.48 13.33 7.66 13.33L8.99 13.33C9.18 13.33 9.33 13.18 9.33 13L9.33 12.33C9.33 12.14 9.18 12 8.99 12L8.33 12C8.14 12 7.99 11.85 7.99 11.66L7.99 11C7.99 10.81 8.14 10.66 8.33 10.66L8.99 10.66C9.18 10.66 9.33 10.51 9.33 10.33L9.33 9.66C9.33 9.48 9.48 9.33 9.66 9.33L10.33 9.33C10.51 9.33 10.66 9.48 10.66 9.66L10.66 10.33C10.66 10.51 10.81 10.66 11 10.66L11.66 10.66C11.85 10.66 12 10.81 12 11L12 11.66C12 11.85 11.85 12 11.66 12L11 12C10.81 12 10.66 12.14 10.66 12.33L10.66 13C10.66 13.18 10.81 13.33 11 13.33L12.33 13.33C12.51 13.33 12.66 13.48 12.66 13.66L12.66 14.33C12.66 14.51 12.51 14.66 12.33 14.66L11 14.66C10.81 14.66 10.66 14.81 10.66 15L10.66 17C10.66 17.18 10.51 17.33 10.33 17.33L9.66 17.33C9.48 17.33 9.33 17.18 9.33 17L9.33 15Z" fill="#FFFFFF" fill-opacity="1.000000" fill-rule="evenodd"/>
			<path id="Rectangle 1694" d="M7.66 14.66C7.48 14.66 7.33 14.51 7.33 14.33L7.33 13.66C7.33 13.48 7.48 13.33 7.66 13.33L8.99 13.33C9.18 13.33 9.33 13.18 9.33 13L9.33 12.33C9.33 12.14 9.18 12 8.99 12L8.33 12C8.14 12 7.99 11.85 7.99 11.66L7.99 11C7.99 10.81 8.14 10.66 8.33 10.66L8.99 10.66C9.18 10.66 9.33 10.51 9.33 10.33L9.33 9.66C9.33 9.48 9.48 9.33 9.66 9.33L10.33 9.33C10.51 9.33 10.66 9.48 10.66 9.66L10.66 10.33C10.66 10.51 10.81 10.66 11 10.66L11.66 10.66C11.85 10.66 12 10.81 12 11L12 11.66C12 11.85 11.85 12 11.66 12L11 12C10.81 12 10.66 12.14 10.66 12.33L10.66 13C10.66 13.18 10.81 13.33 11 13.33L12.33 13.33C12.51 13.33 12.66 13.48 12.66 13.66L12.66 14.33C12.66 14.51 12.51 14.66 12.33 14.66L11 14.66C10.81 14.66 10.66 14.81 10.66 15L10.66 17C10.66 17.18 10.51 17.33 10.33 17.33L9.66 17.33C9.48 17.33 9.33 17.18 9.33 17L9.33 15C9.33 14.81 9.18 14.66 8.99 14.66L7.66 14.66Z" stroke="#979797" stroke-opacity="0" stroke-width="0.000000"/>
		</g>
		<g mask="url(#mask17_4514)">
			<mask id="mask_17_4516" fill="white">
				<path id="Oval 215" d="M11.2035 17.4254C10.9889 16.9766 10.5307 16.6666 10 16.6666C9.46935 16.6666 9.01109 16.9766 8.79646 17.4254C7.17545 17.6808 6 18.4384 6 19.3333C6 20.4379 7.79086 21.3333 10 21.3333C12.2091 21.3333 14 20.4379 14 19.3333C14 18.4384 12.8246 17.6808 11.2035 17.4254Z" clip-rule="evenodd" fill="" fill-opacity="1.000000" fill-rule="evenodd"/>
			</mask>
			<path id="Oval 215" d="M11.2035 17.4254C10.9889 16.9766 10.5307 16.6666 10 16.6666C9.46935 16.6666 9.01109 16.9766 8.79646 17.4254C7.17545 17.6808 6 18.4384 6 19.3333C6 20.4379 7.79086 21.3333 10 21.3333C12.2091 21.3333 14 20.4379 14 19.3333C14 18.4384 12.8246 17.6808 11.2035 17.4254Z" clip-rule="evenodd" fill="#1251A1" fill-opacity="1.000000" fill-rule="evenodd" mask="url(#mask_17_4516)"/>
			<path id="Oval 215" d="" fill="#979797" fill-opacity="0.000000" fill-rule="nonzero"/>
		</g>
	</g>
</svg>
