<svg width="31.000000" height="28.000000" viewBox="0 0 31 28" fill="none" xmlns="http://www.w3.org/2000/svg" xmlns:xlink="http://www.w3.org/1999/xlink">
	<desc>
			Created with Pixso.
	</desc>
	<defs>
		<filter id="filter_17_4535_dd" x="2.000000" y="4.000000" width="28.000000" height="20.000000" filterUnits="userSpaceOnUse" color-interpolation-filters="sRGB">
			<feFlood flood-opacity="0" result="BackgroundImageFix"/>
			<feColorMatrix in="SourceAlpha" type="matrix" values="0 0 0 0 0 0 0 0 0 0 0 0 0 0 0 0 0 0 127 0" result="hardAlpha"/>
			<feOffset dx="0" dy="0"/>
			<feGaussianBlur stdDeviation="0"/>
			<feComposite in2="hardAlpha" operator="out" k2="-1" k3="1"/>
			<feColorMatrix type="matrix" values="0 0 0 0 0 0 0 0 0 0 0 0 0 0 0 0 0 0 0.059 0"/>
			<feBlend mode="normal" in2="BackgroundImageFix" result="effect_dropShadow_1"/>
			<feBlend mode="normal" in="SourceGraphic" in2="effect_dropShadow_1" result="shape"/>
		</filter>
		<linearGradient id="paint_linear_17_4534_0" x1="2.000000" y1="4.000000" x2="2.000000" y2="24.000000" gradientUnits="userSpaceOnUse">
			<stop stop-color="#1DBE4F"/>
			<stop offset="1.000000" stop-color="#159B3F"/>
		</linearGradient>
		<linearGradient id="paint_linear_17_4535_0" x1="2.000000" y1="4.000000" x2="2.000000" y2="24.000000" gradientUnits="userSpaceOnUse">
			<stop stop-color="#0660D4"/>
			<stop offset="1.000000" stop-color="#0051BB"/>
		</linearGradient>
	</defs>
	<rect id="Solomon Islands" width="28.000000" height="28.000000" transform="translate(2.000000 0.000000)" fill="#FFFFFF" fill-opacity="0"/>
	<rect id="Mask" x="2.000000" y="4.000000" rx="3.000000" width="28.000000" height="20.000000" fill="#FFFFFF" fill-opacity="1.000000"/>
	<rect id="Mask" x="2.000000" y="4.000000" rx="3.000000" width="28.000000" height="20.000000" stroke="#979797" stroke-opacity="0" stroke-width="0.000000"/>
	<mask id="mask17_4533" mask-type="alpha" maskUnits="userSpaceOnUse" x="2.000000" y="4.000000" width="28.000000" height="20.000000">
		<rect id="Mask" x="2.000000" y="4.000000" rx="3.000000" width="28.000000" height="20.000000" fill="#FFFFFF" fill-opacity="1.000000"/>
		<rect id="Mask" x="2.000000" y="4.000000" rx="3.000000" width="28.000000" height="20.000000" stroke="#979797" stroke-opacity="0" stroke-width="0.000000"/>
	</mask>
	<g mask="url(#mask17_4533)">
		<rect id="Mask Copy" x="2.000000" y="4.000000" width="28.000000" height="20.000000" fill="url(#paint_linear_17_4534_0)" fill-opacity="1.000000"/>
		<rect id="Mask Copy" x="2.000000" y="4.000000" width="28.000000" height="20.000000" stroke="#979797" stroke-opacity="0" stroke-width="0.000000"/>
	</g>
	<g mask="url(#mask17_4533)">
		<g filter="url(#filter_17_4535_dd)">
			<path id="Rectangle 253" d="M2 4L30 4L2 24L2 4Z" fill="url(#paint_linear_17_4535_0)" fill-opacity="1.000000" fill-rule="evenodd"/>
		</g>
		<path id="Rectangle 253" d="M30 4L2 24L2 4L30 4Z" stroke="#979797" stroke-opacity="0" stroke-width="0.000000"/>
	</g>
	<g mask="url(#mask17_4533)">
		<path id="Rectangle 253" d="M30 4L2 24L30 24L30 4Z" fill="#2C7442" fill-opacity="1.000000" fill-rule="evenodd"/>
		<path id="Rectangle 253" d="M2 24L30 24L30 4L2 24Z" stroke="#979797" stroke-opacity="0" stroke-width="0.000000"/>
	</g>
	<g mask="url(#mask17_4533)">
		<rect id="Rectangle 2" x="-0.773682" y="23.705688" width="36.775467" height="1.872501" transform="rotate(-34 -0.773682 23.705688)" fill="#FFD646" fill-opacity="1.000000"/>
		<rect id="Rectangle 2" x="-0.773682" y="23.705688" width="36.775467" height="1.872501" transform="rotate(-34 -0.773682 23.705688)" stroke="#979797" stroke-opacity="0" stroke-width="0.000000"/>
	</g>
	<g mask="url(#mask17_4533)">
		<mask id="mask_17_4538" fill="white">
			<path id="Star 2" d="M5.97965 8.3484L5.79256 7.25755L6.58511 6.48501L5.48983 6.32586L5.00001 5.33337L4.51019 6.32586L3.41492 6.48501L4.20747 7.25755L4.02037 8.3484L5.00001 7.83337L5.97965 8.3484ZM10.687 8.3484L10.8741 7.25755L10.0816 6.48501L11.1769 6.32586L11.6667 5.33337L12.1565 6.32586L13.2518 6.48501L12.4592 7.25755L12.6463 8.3484L11.6667 7.83337L10.687 8.3484ZM7.54079 9.25755L7.3537 10.3484L8.33334 9.83337L9.31299 10.3484L9.12589 9.25755L9.91844 8.48501L8.82317 8.32586L8.33334 7.33337L7.84352 8.32586L6.74825 8.48501L7.54079 9.25755ZM4.02037 12.3484L4.20747 11.2576L3.41492 10.485L4.51019 10.3259L5.00001 9.33337L5.48983 10.3259L6.58511 10.485L5.79256 11.2576L5.97965 12.3484L5.00001 11.8334L4.02037 12.3484ZM10.8741 11.2576L10.687 12.3484L11.6667 11.8334L12.6463 12.3484L12.4592 11.2576L13.2518 10.485L12.1565 10.3259L11.6667 9.33337L11.1769 10.3259L10.0816 10.485L10.8741 11.2576Z" clip-rule="evenodd" fill="" fill-opacity="1.000000" fill-rule="evenodd"/>
		</mask>
		<path id="Star 2" d="M5.97965 8.3484L5.79256 7.25755L6.58511 6.48501L5.48983 6.32586L5.00001 5.33337L4.51019 6.32586L3.41492 6.48501L4.20747 7.25755L4.02037 8.3484L5.00001 7.83337L5.97965 8.3484ZM10.687 8.3484L10.8741 7.25755L10.0816 6.48501L11.1769 6.32586L11.6667 5.33337L12.1565 6.32586L13.2518 6.48501L12.4592 7.25755L12.6463 8.3484L11.6667 7.83337L10.687 8.3484ZM7.54079 9.25755L7.3537 10.3484L8.33334 9.83337L9.31299 10.3484L9.12589 9.25755L9.91844 8.48501L8.82317 8.32586L8.33334 7.33337L7.84352 8.32586L6.74825 8.48501L7.54079 9.25755ZM4.02037 12.3484L4.20747 11.2576L3.41492 10.485L4.51019 10.3259L5.00001 9.33337L5.48983 10.3259L6.58511 10.485L5.79256 11.2576L5.97965 12.3484L5.00001 11.8334L4.02037 12.3484ZM10.8741 11.2576L10.687 12.3484L11.6667 11.8334L12.6463 12.3484L12.4592 11.2576L13.2518 10.485L12.1565 10.3259L11.6667 9.33337L11.1769 10.3259L10.0816 10.485L10.8741 11.2576Z" clip-rule="evenodd" fill="#FFFFFF" fill-opacity="1.000000" fill-rule="evenodd" mask="url(#mask_17_4538)"/>
		<path id="Star 2" d="" fill="#979797" fill-opacity="0.000000" fill-rule="nonzero"/>
	</g>
</svg>
