<svg width="28.000000" height="28.000000" viewBox="0 0 28 28" fill="none" xmlns="http://www.w3.org/2000/svg" xmlns:xlink="http://www.w3.org/1999/xlink">
	<desc>
			Created with Pixso.
	</desc>
	<defs/>
	<rect id="Switzerland" width="28.000000" height="28.000000" fill="#FFFFFF" fill-opacity="0"/>
	<rect id="Mask" y="4.000000" rx="3.000000" width="28.000000" height="20.000000" fill="#FFFFFF" fill-opacity="1.000000"/>
	<rect id="Mask" y="4.000000" rx="3.000000" width="28.000000" height="20.000000" stroke="#979797" stroke-opacity="0" stroke-width="0.000000"/>
	<mask id="mask17_4450" mask-type="alpha" maskUnits="userSpaceOnUse" x="0.000000" y="4.000000" width="28.000000" height="20.000000">
		<rect id="Mask" y="4.000000" rx="3.000000" width="28.000000" height="20.000000" fill="#FFFFFF" fill-opacity="1.000000"/>
		<rect id="Mask" y="4.000000" rx="3.000000" width="28.000000" height="20.000000" stroke="#979797" stroke-opacity="0" stroke-width="0.000000"/>
	</mask>
	<g mask="url(#mask17_4450)">
		<rect id="Mask Copy" y="4.000000" width="28.000000" height="20.000000" fill="#FF0000" fill-opacity="1.000000"/>
		<rect id="Mask Copy" y="4.000000" width="28.000000" height="20.000000" stroke="#979797" stroke-opacity="0" stroke-width="0.000000"/>
	</g>
	<g mask="url(#mask17_4450)">
		<path id="Rectangle 78" d="M12 16L8.33 16C8.14 16 8 15.85 8 15.66L8 12.33C8 12.14 8.14 12 8.33 12L12 12L12 8.33C12 8.14 12.14 8 12.33 8L15.66 8C15.85 8 16 8.14 16 8.33L16 12L19.66 12C19.85 12 20 12.14 20 12.33L20 15.66C20 15.85 19.85 16 19.66 16L16 16L16 19.66C16 19.85 15.85 20 15.66 20L12.33 20C12.14 20 12 19.85 12 19.66L12 16Z" fill="#FFFFFF" fill-opacity="1.000000" fill-rule="evenodd"/>
		<path id="Rectangle 78" d="M8.33 16C8.14 16 8 15.85 8 15.66L8 12.33C8 12.14 8.14 12 8.33 12L12 12L12 8.33C12 8.14 12.14 8 12.33 8L15.66 8C15.85 8 16 8.14 16 8.33L16 12L19.66 12C19.85 12 20 12.14 20 12.33L20 15.66C20 15.85 19.85 16 19.66 16L16 16L16 19.66C16 19.85 15.85 20 15.66 20L12.33 20C12.14 20 12 19.85 12 19.66L12 16L8.33 16Z" stroke="#979797" stroke-opacity="0" stroke-width="0.000000"/>
	</g>
</svg>
