<svg width="28.000000" height="28.000000" viewBox="0 0 28 28" fill="none" xmlns="http://www.w3.org/2000/svg" xmlns:xlink="http://www.w3.org/1999/xlink">
	<desc>
			Created with Pixso.
	</desc>
	<defs/>
	<rect id="Syrian Arab Republic" width="28.000000" height="28.000000" fill="#FFFFFF" fill-opacity="0"/>
	<rect id="Mask" y="4.000000" rx="3.000000" width="28.000000" height="20.000000" fill="#FFFFFF" fill-opacity="1.000000"/>
	<rect id="Mask" x="0.250000" y="4.250000" rx="3.000000" width="27.500000" height="19.500000" stroke="#D6D8DD" stroke-opacity="1.000000" stroke-width="0.500000"/>
	<mask id="mask17_4526" mask-type="alpha" maskUnits="userSpaceOnUse" x="0.000000" y="4.000000" width="28.000000" height="20.000000">
		<rect id="Mask" y="4.000000" rx="3.000000" width="28.000000" height="20.000000" fill="#FFFFFF" fill-opacity="1.000000"/>
		<rect id="Mask" x="0.250000" y="4.250000" rx="3.000000" width="27.500000" height="19.500000" stroke="#F5F5F5" stroke-opacity="1.000000" stroke-width="0.500000"/>
	</mask>
	<g mask="url(#mask17_4526)">
		<path id="Rectangle 2" d="M0 24L28 24L28 17.33L0 17.33L0 24Z" fill="#262626" fill-opacity="1.000000" fill-rule="evenodd"/>
		<path id="Rectangle 2" d="M28 24L28 17.33L0 17.33L0 24L28 24Z" stroke="#979797" stroke-opacity="0" stroke-width="0.000000"/>
	</g>
	<g mask="url(#mask17_4526)">
		<path id="Rectangle 2" d="M0 10.66L28 10.66L28 4L0 4L0 10.66Z" fill="#E32139" fill-opacity="1.000000" fill-rule="evenodd"/>
		<path id="Rectangle 2" d="M28 10.66L28 4L0 4L0 10.66L28 10.66Z" stroke="#979797" stroke-opacity="0" stroke-width="0.000000"/>
	</g>
	<g mask="url(#mask17_4526)">
		<path id="Star 33" d="M9.33 15.09L7.76 16.15L8.29 14.33L6.79 13.17L8.69 13.11L9.33 11.33L9.97 13.11L11.86 13.17L10.37 14.33L10.9 16.15L9.33 15.09Z" fill="#128A49" fill-opacity="1.000000" fill-rule="evenodd"/>
		<path id="Star 33" d="M7.76 16.15L8.29 14.33L6.79 13.17L8.69 13.11L9.33 11.33L9.97 13.11L11.86 13.17L10.37 14.33L10.9 16.15L9.33 15.09L7.76 16.15Z" stroke="#979797" stroke-opacity="0" stroke-width="0.000000"/>
	</g>
	<g mask="url(#mask17_4526)">
		<path id="Star 33" d="M18.66 15.09L17.09 16.15L17.62 14.33L16.13 13.17L18.02 13.11L18.66 11.33L19.3 13.11L21.2 13.17L19.7 14.33L20.23 16.15L18.66 15.09Z" fill="#128A49" fill-opacity="1.000000" fill-rule="evenodd"/>
		<path id="Star 33" d="M17.09 16.15L17.62 14.33L16.13 13.17L18.02 13.11L18.66 11.33L19.3 13.11L21.2 13.17L19.7 14.33L20.23 16.15L18.66 15.09L17.09 16.15Z" stroke="#979797" stroke-opacity="0" stroke-width="0.000000"/>
	</g>
</svg>
