<svg width="28" height="28" viewBox="0 0 28 28" fill="none" xmlns="http://www.w3.org/2000/svg">
<mask id="mask0_107608_792" style="mask-type:alpha" maskUnits="userSpaceOnUse" x="0" y="4" width="28" height="20">
<rect y="4" width="28" height="20" rx="3" fill="#062365"/>
</mask>
<g mask="url(#mask0_107608_792)">
<rect y="4" width="28" height="20" fill="#062365"/>
<path d="M26.052 20.064L5.54481 19.8464C5.15923 19.6225 5.38415 19.4007 5.54481 19.3177L25.8965 19.4888L26.4251 19.8153L26.052 20.064Z" fill="#F8D147"/>
<path d="M26.4718 19.2089L5.68481 19.0379C6.85606 18.4264 9.50109 16.6861 11.2353 15.1821C12.9921 13.6585 19.2267 9.67831 22.585 8.26349C18.6981 12.1504 23.3623 19.0846 26.4718 19.0846V19.2089Z" fill="#F8D147"/>
<path d="M5.90249 8.1391L6.06655 8.64402L6.59745 8.64402L6.16794 8.95608L6.332 9.46101L5.90249 9.14895L5.47297 9.46101L5.63703 8.95608L5.20752 8.64402L5.73843 8.64402L5.90249 8.1391Z" fill="white"/>
<path d="M5.90251 16.3171L6.08751 16.8865H6.6862L6.20185 17.2384L6.38685 17.8077L5.90251 17.4558L5.41816 17.8077L5.60317 17.2384L5.11882 16.8865H5.71751L5.90251 16.3171Z" fill="white"/>
<path d="M2.73073 11.3108L2.89479 11.8157L3.4257 11.8157L2.99619 12.1278L3.16025 12.6327L2.73073 12.3206L2.30122 12.6327L2.46528 12.1278L2.03576 11.8157L2.56667 11.8157L2.73073 11.3108Z" fill="white"/>
<path d="M8.63873 10.6578L8.76789 11.0553L9.18584 11.0553L8.84771 11.3009L8.97686 11.6984L8.63873 11.4528L8.30061 11.6984L8.42976 11.3009L8.09163 11.0553L8.50958 11.0553L8.63873 10.6578Z" fill="white"/>
</g>
</svg>
