<svg width="28" height="28" viewBox="0 0 28 28" fill="none" xmlns="http://www.w3.org/2000/svg">
<rect x="0.25" y="4.25" width="27.5" height="19.5" rx="2.75" fill="white" stroke="#D6D8DD" stroke-width="0.5"/>
<mask id="mask0_17_4402" style="mask-type:luminance" maskUnits="userSpaceOnUse" x="0" y="4" width="28" height="20">
<rect x="0.25" y="4.25" width="27.5" height="19.5" rx="2.75" fill="white" stroke="white" stroke-width="0.5"/>
</mask>
<g mask="url(#mask0_17_4402)">
<path fill-rule="evenodd" clip-rule="evenodd" d="M28 4H16V14.6667H0V24H28V4Z" fill="#E20F1B"/>
<path fill-rule="evenodd" clip-rule="evenodd" d="M7 5.33334C6.81591 5.33334 6.66667 5.48258 6.66667 5.66668V8.00001H4.33333C4.14924 8.00001 4 8.14925 4 8.33334V10.3333C4 10.5174 4.14924 10.6667 4.33333 10.6667H6.66667V13C6.66667 13.1841 6.81591 13.3333 7 13.3333H9C9.18409 13.3333 9.33333 13.1841 9.33333 13V10.6667H11.6667C11.8508 10.6667 12 10.5174 12 10.3333V8.33334C12 8.14925 11.8508 8.00001 11.6667 8.00001H9.33333V5.66668C9.33333 5.48258 9.18409 5.33334 9 5.33334H7Z" fill="url(#paint0_linear_17_4402)"/>
</g>
<defs>
<linearGradient id="paint0_linear_17_4402" x1="4" y1="5.33334" x2="4" y2="13.3333" gradientUnits="userSpaceOnUse">
<stop stop-color="#DF101B"/>
<stop offset="1" stop-color="#C00711"/>
</linearGradient>
</defs>
</svg>
