<svg width="28.000000" height="28.000000" viewBox="0 0 28 28" fill="none" xmlns="http://www.w3.org/2000/svg" xmlns:xlink="http://www.w3.org/1999/xlink">
	<desc>
			Created with Pixso.
	</desc>
	<defs>
		<linearGradient id="paint_linear_17_4408_0" x1="4.000000" y1="5.333374" x2="4.000000" y2="13.333374" gradientUnits="userSpaceOnUse">
			<stop stop-color="#DF101B"/>
			<stop offset="1.000000" stop-color="#C00711"/>
		</linearGradient>
	</defs>
	<rect id="Tonga" width="28.000000" height="28.000000" fill="#FFFFFF" fill-opacity="0"/>
	<rect id="Mask" y="4.000000" rx="3.000000" width="28.000000" height="20.000000" fill="#FFFFFF" fill-opacity="1.000000"/>
	<rect id="Mask" x="0.250000" y="4.250000" rx="3.000000" width="27.500000" height="19.500000" stroke="#D6D8DD" stroke-opacity="1.000000" stroke-width="0.500000"/>
	<mask id="mask17_4404" mask-type="alpha" maskUnits="userSpaceOnUse" x="0.000000" y="4.000000" width="28.000000" height="20.000000">
		<rect id="Mask" y="4.000000" rx="3.000000" width="28.000000" height="20.000000" fill="#FFFFFF" fill-opacity="1.000000"/>
		<rect id="Mask" x="0.250000" y="4.250000" rx="3.000000" width="27.500000" height="19.500000" stroke="#F5F5F5" stroke-opacity="1.000000" stroke-width="0.500000"/>
	</mask>
	<g mask="url(#mask17_4404)">
		<mask id="mask_17_4405" fill="white">
			<path id="Combined Shape" d="M0 14.6667L0 24L28 24L28 4L16 4L16 14.6667L0 14.6667Z" clip-rule="evenodd" fill="" fill-opacity="1.000000" fill-rule="evenodd"/>
		</mask>
		<path id="Combined Shape" d="M0 14.6667L0 24L28 24L28 4L16 4L16 14.6667L0 14.6667Z" clip-rule="evenodd" fill="#E20F1B" fill-opacity="1.000000" fill-rule="evenodd" mask="url(#mask_17_4405)"/>
		<path id="Combined Shape" d="" fill="#979797" fill-opacity="0.000000" fill-rule="nonzero"/>
	</g>
	<g mask="url(#mask17_4404)">
		<mask id="mask_17_4408" fill="white">
			<path id="Rectangle 1703" d="M7 5.33337L9 5.33337C9.18408 5.33337 9.33331 5.48261 9.33331 5.66671L9.33331 8.00004L11.6667 8.00004C11.8508 8.00004 12 8.14928 12 8.33337L12 10.3334C12 10.5175 11.8508 10.6667 11.6667 10.6667L9.33331 10.6667L9.33331 13C9.33331 13.1841 9.18408 13.3334 9 13.3334L7 13.3334C6.81592 13.3334 6.66669 13.1841 6.66669 13L6.66669 10.6667L4.33331 10.6667C4.14923 10.6667 4 10.5175 4 10.3334L4 8.33337C4 8.14928 4.14923 8.00004 4.33331 8.00004L6.66669 8.00004L6.66669 5.66671C6.66669 5.48261 6.81592 5.33337 7 5.33337Z" clip-rule="evenodd" fill="" fill-opacity="1.000000" fill-rule="evenodd"/>
		</mask>
		<path id="Rectangle 1703" d="M7 5.33337L9 5.33337C9.18408 5.33337 9.33331 5.48261 9.33331 5.66671L9.33331 8.00004L11.6667 8.00004C11.8508 8.00004 12 8.14928 12 8.33337L12 10.3334C12 10.5175 11.8508 10.6667 11.6667 10.6667L9.33331 10.6667L9.33331 13C9.33331 13.1841 9.18408 13.3334 9 13.3334L7 13.3334C6.81592 13.3334 6.66669 13.1841 6.66669 13L6.66669 10.6667L4.33331 10.6667C4.14923 10.6667 4 10.5175 4 10.3334L4 8.33337C4 8.14928 4.14923 8.00004 4.33331 8.00004L6.66669 8.00004L6.66669 5.66671C6.66669 5.48261 6.81592 5.33337 7 5.33337Z" clip-rule="evenodd" fill="url(#paint_linear_17_4408_0)" fill-opacity="1.000000" fill-rule="evenodd" mask="url(#mask_17_4408)"/>
		<path id="Rectangle 1703" d="" fill="#979797" fill-opacity="0.000000" fill-rule="nonzero"/>
	</g>
</svg>
