<svg width="29.000000" height="33.000000" viewBox="0 0 29 33" fill="none" xmlns="http://www.w3.org/2000/svg" xmlns:xlink="http://www.w3.org/1999/xlink">
	<desc>
			Created with Pixso.
	</desc>
	<defs/>
	<rect id="Trinidad and Tobago" width="28.000000" height="28.000000" transform="translate(0.000000 2.000000)" fill="#FFFFFF" fill-opacity="0"/>
	<rect id="Mask" y="6.000000" rx="3.000000" width="28.000000" height="20.000000" fill="#FFFFFF" fill-opacity="1.000000"/>
	<rect id="Mask" y="6.000000" rx="3.000000" width="28.000000" height="20.000000" stroke="#979797" stroke-opacity="0" stroke-width="0.000000"/>
	<mask id="mask17_4358" mask-type="alpha" maskUnits="userSpaceOnUse" x="0.000000" y="6.000000" width="28.000000" height="20.000000">
		<rect id="Mask" y="6.000000" rx="3.000000" width="28.000000" height="20.000000" fill="#FFFFFF" fill-opacity="1.000000"/>
		<rect id="Mask" y="6.000000" rx="3.000000" width="28.000000" height="20.000000" stroke="#979797" stroke-opacity="0" stroke-width="0.000000"/>
	</mask>
	<g mask="url(#mask17_4358)">
		<rect id="Mask Copy" y="6.000000" width="28.000000" height="20.000000" fill="#ED233C" fill-opacity="1.000000"/>
		<rect id="Mask Copy" y="6.000000" width="28.000000" height="20.000000" stroke="#979797" stroke-opacity="0" stroke-width="0.000000"/>
	</g>
	<g mask="url(#mask17_4358)">
		<path id="Rectangle 2" d="M20.46 31.42L-0.07 6.95L7.53 0.57L28.06 25.04L20.46 31.42Z" fill="#FFFFFF" fill-opacity="1.000000" fill-rule="evenodd"/>
		<path id="Rectangle 2" d="M-0.07 6.95L7.53 0.57L28.06 25.04L20.46 31.42L-0.07 6.95Z" stroke="#979797" stroke-opacity="0" stroke-width="0.000000"/>
	</g>
	<g mask="url(#mask17_4358)">
		<path id="Rectangle 2" d="M23.87 32.95L-0.99 3.33L4.12 -0.96L28.98 28.66L23.87 32.95Z" fill="#262626" fill-opacity="1.000000" fill-rule="evenodd"/>
		<path id="Rectangle 2" d="M-0.99 3.33L4.12 -0.96L28.98 28.66L23.87 32.95L-0.99 3.33Z" stroke="#979797" stroke-opacity="0" stroke-width="0.000000"/>
	</g>
</svg>
