<svg viewBox="0 0 28 28" xmlns="http://www.w3.org/2000/svg" xmlns:xlink="http://www.w3.org/1999/xlink" width="28.000000" height="28.000000" fill="none" customFrame="#000000">
	<defs>
		<filter id="pixso_custom_mask_type_alpha">
			<feColorMatrix type="matrix" values="0 0 0 0 1 0 0 0 0 1 0 0 0 0 1 0 0 0 1 0 " />
		</filter>
	</defs>
	<mask id="mask_536" width="28.000000" height="20.000000" x="0.000000" y="4.000000" maskUnits="userSpaceOnUse">
		<g filter="url(#pixso_custom_mask_type_alpha)">
			<rect id="Mask" width="28.000000" height="20.000000" x="0.000000" y="4.000000" rx="3.000000" fill="rgb(255,255,255)" />
			<rect id="Mask" width="28.000000" height="20.000000" x="0.000000" y="4.000000" rx="3.000000" stroke="rgb(150.96,150.96,150.96)" stroke-opacity="0" stroke-width="0" />
		</g>
	</mask>
	<rect id="Turkey" width="28.000000" height="28.000000" x="0.000000" y="0.000000" fill="rgb(255,255,255)" fill-opacity="0" />
	<rect id="Mask" width="28.000000" height="20.000000" x="0.000000" y="4.000000" rx="3.000000" fill="rgb(255,255,255)" />
	<rect id="Mask" width="28.000000" height="20.000000" x="0.000000" y="4.000000" rx="3.000000" stroke="rgb(150.96,150.96,150.96)" stroke-opacity="0" stroke-width="0" />
	<g mask="url(#mask_536)">
		<rect id="Mask Copy" width="28.000000" height="20.000000" x="0.000000" y="4.000000" fill="rgb(233,36,52)" />
		<rect id="Mask Copy" width="28.000000" height="20.000000" x="0.000000" y="4.000000" stroke="rgb(150.96,150.96,150.96)" stroke-opacity="0" stroke-width="0" />
		<path id="Star 8" d="M2.53615 3.70667L0.968723 4.82405L1.54705 2.98804L0 1.84262L1.92485 1.82529L2.53615 0L3.14745 1.82529L5.0723 1.84262L3.52525 2.98804L4.10358 4.82405L2.53615 3.70667Z" fill="rgb(255,255,255)" fill-rule="evenodd" transform="matrix(0.965926,-0.258819,0.258819,0.965926,15.6118,11.8444)" />
		<path id="Star 8" d="M0.968723 4.82405L1.54705 2.98804L0 1.84262L1.92485 1.82529L2.53615 0L3.14745 1.82529L5.0723 1.84262L3.52525 2.98804L4.10358 4.82405L2.53615 3.70667L0.968723 4.82405Z" fill-rule="evenodd" stroke="rgb(150.96,150.96,150.96)" stroke-opacity="0" stroke-width="0" transform="matrix(0.965926,-0.258819,0.258819,0.965926,15.6118,11.8444)" />
		<path id="Oval 41" d="M17.4027 17.6841C16.3048 19.0935 14.5916 20 12.6666 20C9.35292 20 6.66663 17.3137 6.66663 14C6.66663 10.6863 9.35292 8 12.6666 8C14.5916 8 16.3048 8.90649 17.4027 10.3159C16.5555 9.70011 15.4903 9.33333 14.3333 9.33333C11.5719 9.33333 9.33329 11.4227 9.33329 14C9.33329 16.5773 11.5719 18.6667 14.3333 18.6667C15.4903 18.6667 16.5555 18.2999 17.4027 17.6841Z" fill="rgb(255,255,255)" fill-rule="evenodd" />
		<path id="Oval 41" d="M17.4027 17.6841C16.3048 19.0935 14.5916 20 12.6666 20C9.35292 20 6.66663 17.3137 6.66663 14C6.66663 10.6863 9.35292 8 12.6666 8C14.5916 8 16.3048 8.90649 17.4027 10.3159C16.5555 9.70011 15.4903 9.33333 14.3333 9.33333C11.5719 9.33333 9.33329 11.4227 9.33329 14C9.33329 16.5773 11.5719 18.6667 14.3333 18.6667C15.4903 18.6667 16.5555 18.2999 17.4027 17.6841Z" fill-rule="evenodd" stroke="rgb(150.96,150.96,150.96)" stroke-opacity="0" stroke-width="0" />
	</g>
</svg>
