<svg width="28.000000" height="28.000000" viewBox="0 0 28 28" fill="none" xmlns="http://www.w3.org/2000/svg" xmlns:xlink="http://www.w3.org/1999/xlink">
	<desc>
			Created with Pixso.
	</desc>
	<defs/>
	<rect id="Turkey" width="28.000000" height="28.000000" fill="#FFFFFF" fill-opacity="0"/>
	<rect id="Mask" y="4.000000" rx="3.000000" width="28.000000" height="20.000000" fill="#FFFFFF" fill-opacity="1.000000"/>
	<rect id="Mask" y="4.000000" rx="3.000000" width="28.000000" height="20.000000" stroke="#979797" stroke-opacity="0" stroke-width="0.000000"/>
	<mask id="mask17_4375" mask-type="alpha" maskUnits="userSpaceOnUse" x="0.000000" y="4.000000" width="28.000000" height="20.000000">
		<rect id="Mask" y="4.000000" rx="3.000000" width="28.000000" height="20.000000" fill="#FFFFFF" fill-opacity="1.000000"/>
		<rect id="Mask" y="4.000000" rx="3.000000" width="28.000000" height="20.000000" stroke="#979797" stroke-opacity="0" stroke-width="0.000000"/>
	</mask>
	<g mask="url(#mask17_4375)">
		<rect id="Mask Copy" y="4.000000" width="28.000000" height="20.000000" fill="#E92434" fill-opacity="1.000000"/>
		<rect id="Mask Copy" y="4.000000" width="28.000000" height="20.000000" stroke="#979797" stroke-opacity="0" stroke-width="0.000000"/>
	</g>
	<g mask="url(#mask17_4375)">
		<path id="Star 8" d="M19.02 14.76L17.79 16.25L17.87 14.33L16.08 13.62L17.94 13.1L18.06 11.18L19.12 12.79L20.98 12.31L19.79 13.81L20.82 15.44L19.02 14.76Z" fill="#FFFFFF" fill-opacity="1.000000" fill-rule="evenodd"/>
		<path id="Star 8" d="M17.79 16.25L17.87 14.33L16.08 13.62L17.94 13.1L18.06 11.18L19.12 12.79L20.98 12.31L19.79 13.81L20.82 15.44L19.02 14.76L17.79 16.25Z" stroke="#979797" stroke-opacity="0" stroke-width="0.000000"/>
	</g>
	<g mask="url(#mask17_4375)">
		<mask id="mask_17_4378" fill="white">
			<path id="Oval 41" d="M17.4027 17.6841C16.3048 19.0935 14.5916 20 12.6666 20C9.35291 20 6.66663 17.3137 6.66663 14C6.66663 10.6863 9.35291 8 12.6666 8C14.5916 8 16.3048 8.90649 17.4027 10.3159C16.5555 9.70011 15.4903 9.33333 14.3333 9.33333C11.5719 9.33333 9.33328 11.4227 9.33328 14C9.33328 16.5773 11.5719 18.6667 14.3333 18.6667C15.4903 18.6667 16.5555 18.2999 17.4027 17.6841Z" clip-rule="evenodd" fill="" fill-opacity="1.000000" fill-rule="evenodd"/>
		</mask>
		<path id="Oval 41" d="M17.4027 17.6841C16.3048 19.0935 14.5916 20 12.6666 20C9.35291 20 6.66663 17.3137 6.66663 14C6.66663 10.6863 9.35291 8 12.6666 8C14.5916 8 16.3048 8.90649 17.4027 10.3159C16.5555 9.70011 15.4903 9.33333 14.3333 9.33333C11.5719 9.33333 9.33328 11.4227 9.33328 14C9.33328 16.5773 11.5719 18.6667 14.3333 18.6667C15.4903 18.6667 16.5555 18.2999 17.4027 17.6841Z" clip-rule="evenodd" fill="#FFFFFF" fill-opacity="1.000000" fill-rule="evenodd" mask="url(#mask_17_4378)"/>
		<path id="Oval 41" d="" fill="#979797" fill-opacity="0.000000" fill-rule="nonzero"/>
	</g>
</svg>
