<svg viewBox="0 0 28 28" xmlns="http://www.w3.org/2000/svg" xmlns:xlink="http://www.w3.org/1999/xlink" width="28.000000" height="28.000000" fill="none" customFrame="#000000">
	<defs>
		<filter id="pixso_custom_mask_type_alpha">
			<feColorMatrix type="matrix" values="0 0 0 0 1 0 0 0 0 1 0 0 0 0 1 0 0 0 1 0 " />
		</filter>
	</defs>
	<mask id="mask_322" width="28.000000" height="19.999996" x="0.000000" y="4.000000" maskUnits="userSpaceOnUse">
		<g filter="url(#pixso_custom_mask_type_alpha)">
			<rect id="Mask" width="28.000000" height="19.999996" x="0.000000" y="4.000000" rx="3.000000" fill="rgb(255,255,255)" />
			<rect id="Mask" width="28.000000" height="19.999996" x="0.000000" y="4.000000" rx="3.000000" stroke="rgb(150.96,150.96,150.96)" stroke-opacity="0" stroke-width="0" />
		</g>
	</mask>
	<rect id="Tuvalu" width="28.000000" height="28.000000" x="0.000000" y="0.000000" fill="rgb(255,255,255)" fill-opacity="0" />
	<rect id="Mask" width="28.000000" height="19.999996" x="0.000000" y="4.000000" rx="3.000000" fill="rgb(255,255,255)" />
	<rect id="Mask" width="28.000000" height="19.999996" x="0.000000" y="4.000000" rx="3.000000" stroke="rgb(150.96,150.96,150.96)" stroke-opacity="0" stroke-width="0" />
	<g mask="url(#mask_322)">
		<rect id="Mask Copy" width="28.000000" height="19.999996" x="0.000000" y="4.000000" fill="rgb(82,179,235)" />
		<rect id="Mask Copy" width="28.000000" height="19.999996" x="0.000000" y="4.000000" stroke="rgb(150.96,150.96,150.96)" stroke-opacity="0" stroke-width="0" />
		<rect id="Mask Copy" width="12.649121" height="10.008772" x="0.000000" y="3.991211" fill="rgb(6,35,101)" />
		<rect id="Mask Copy" width="12.649121" height="10.008772" x="0.000000" y="3.991211" stroke="rgb(150.96,150.96,150.96)" stroke-opacity="0" stroke-width="0" />
		<path id="Rectangle 36" d="M4.66667 8L0 4L0.666667 4L5.33333 7.33333L6.66667 7.33333L12 4L12 4.49513C12 4.60278 11.948 4.7038 11.8604 4.76637L7.33333 8L7.33333 9.33333L11.5475 12.9455C11.7029 13.0787 11.6087 13.3333 11.404 13.3333L11.404 13.3333C11.358 13.3333 11.3132 13.319 11.2758 13.2923L6.66667 10L5.33333 10L0 13.3333L0 12.6667L4.66667 9.33333L4.66667 8Z" fill="rgb(219,30,54)" fill-rule="evenodd" />
		<path id="Rectangle 36" d="M0.88031 3.33333L-1.80217 3.33333L4 8.30662L4 8.99026L-0.666667 12.3236L-0.666667 14.5362L5.52453 10.6667L6.45302 10.6667L10.8883 13.8348C10.9655 13.8898 11.047 13.9311 11.1329 13.9587C11.2189 13.9862 11.3092 14 11.404 14C11.5074 14 11.6052 13.9839 11.6975 13.9518C11.7795 13.9232 11.8572 13.882 11.9304 13.828C11.9985 13.7777 12.0574 13.7203 12.1071 13.6558C12.161 13.5858 12.2039 13.5074 12.236 13.4206C12.2681 13.3339 12.2865 13.2464 12.2911 13.1582C12.2954 13.0769 12.2881 12.995 12.269 12.9125C12.2486 12.8238 12.2165 12.742 12.1728 12.6669C12.1237 12.5824 12.0599 12.5066 11.9813 12.4393L8 9.02671L8 8.34308L12.2479 5.30886C12.3136 5.26194 12.3721 5.2088 12.4234 5.14944C12.4748 5.09008 12.5189 5.0245 12.5558 4.95271C12.5928 4.88091 12.6205 4.80688 12.639 4.7306C12.6574 4.65435 12.6667 4.57586 12.6667 4.49513L12.6667 2.79717L6.47547 6.66667L5.54698 6.66667L0.88031 3.33333ZM5.33333 7.33333L2.81303 5.53312L0.666667 4L0 4L0.413502 4.35443L0.666667 4.57143L4.66667 8L4.66667 9.33333L1.33838 11.7107L0 12.6667L0 13.3333L0.329217 13.1276L0.666667 12.9167L1.70916 12.2651L5.33333 10L6.66667 10L9.18697 11.8002L10.9601 13.0667L11.2758 13.2923C11.3132 13.319 11.358 13.3333 11.404 13.3333C11.6087 13.3333 11.7029 13.0787 11.5475 12.9455L11.2529 12.693L9.59845 11.2749L7.33333 9.33333L7.33333 8L10.6616 5.62266L11.8604 4.76637C11.948 4.7038 12 4.60278 12 4.49513L12 4L11.3428 4.41077L11.3333 4.41667L10.2909 5.06821L6.66667 7.33333L5.33333 7.33333Z" fill="rgb(255,255,255)" fill-rule="evenodd" />
		<path id="Rectangle 2" d="M0 7.33333L0 10L4.66667 10L4.66667 13.3333C4.66667 13.7015 4.96514 14 5.33333 14L6.66667 14C7.03486 14 7.33333 13.7015 7.33333 13.3333L7.33333 10L12 10C12.3682 10 12.6667 9.70152 12.6667 9.33333L12.6667 8C12.6667 7.63181 12.3682 7.33333 12 7.33333L7.33333 7.33333L7.33333 4L4.66667 4L4.66667 7.33333L0 7.33333Z" fill="rgb(255,255,255)" fill-rule="evenodd" />
		<path id="Rectangle 2" d="M0 10L4.66667 10L4.66667 13.3333C4.66667 13.7015 4.96514 14 5.33333 14L6.66667 14C7.03486 14 7.33333 13.7015 7.33333 13.3333L7.33333 10L12 10C12.3682 10 12.6667 9.70152 12.6667 9.33333L12.6667 8C12.6667 7.63181 12.3682 7.33333 12 7.33333L7.33333 7.33333L7.33333 4L4.66667 4L4.66667 7.33333L0 7.33333L0 10Z" fill-rule="evenodd" stroke="rgb(150.96,150.96,150.96)" stroke-opacity="0" stroke-linejoin="bevel" stroke-width="0" />
		<path id="Rectangle 36" d="M0 8L5.33333 8L5.33333 7.33333L5.33333 4L6.66667 4L6.66667 7.33333L6.66667 8L12 8L12 9.33333L6.66667 9.33333L6.66667 10L6.66667 13.3333L5.33333 13.3333L5.33333 10L5.33333 9.33333L0 9.33333L0 8Z" fill="rgb(219,30,54)" fill-rule="evenodd" />
		<path id="Rectangle 36" d="M5.33333 8L5.33333 7.33333L5.33333 4L6.66667 4L6.66667 7.33333L6.66667 8L12 8L12 9.33333L6.66667 9.33333L6.66667 10L6.66667 13.3333L5.33333 13.3333L5.33333 10L5.33333 9.33333L0 9.33333L0 8L5.33333 8Z" fill-rule="evenodd" stroke="rgb(150.96,150.96,150.96)" stroke-opacity="0" stroke-width="0" />
		<path id="Star 111" d="M24.5354 6.96155L25.5464 6.96155L24.7285 7.55582L25.0409 8.51736L24.223 7.92309L23.405 8.51736L23.7175 7.55582L22.8995 6.96155L23.9106 6.96155L24.223 6L24.5354 6.96155Z" fill="rgb(249,221,74)" fill-rule="evenodd" />
		<path id="Star 112" d="M25.5664 13.7669L26.6387 13.7669L25.7712 14.3972L26.1026 15.417L25.2351 14.7867L24.3675 15.417L24.6989 14.3972L23.8314 13.7669L24.9037 13.7669L25.2351 12.7471L25.5664 13.7669Z" fill="rgb(249,221,74)" fill-rule="evenodd" />
		<path id="Star 113" d="M21.5835 15.7328L22.5945 15.7328L21.7766 16.3271L22.089 17.2886L21.2711 16.6943L20.4531 17.2886L20.7656 16.3271L19.9476 15.7328L20.9587 15.7328L21.2711 14.7712L21.5835 15.7328Z" fill="rgb(249,221,74)" fill-rule="evenodd" />
		<path id="Star 119" d="M10.704 21.1302L11.715 21.1302L10.8971 21.7245L11.2095 22.6861L10.3916 22.0918L9.57362 22.6861L9.88605 21.7245L9.06811 21.1302L10.0791 21.1302L10.3916 20.1687L10.704 21.1302Z" fill="rgb(249,221,74)" fill-rule="evenodd" />
		<path id="Star 114" d="M1.73427 0.978633L2.76326 0.978633L1.93079 1.58346L2.24877 2.56209L1.41629 1.95727L0.583816 2.56209L0.901793 1.58346L0.0693183 0.978633L1.09831 0.978633L1.41629 0L1.73427 0.978633Z" fill="rgb(249,221,74)" fill-rule="evenodd" transform="matrix(0.814079,-0.580755,0.580754,0.814079,19.6685,9.92969)" />
		<path id="Star 115" d="M1.78559 1.00759L2.84504 1.00759L1.98793 1.63032L2.31532 2.63792L1.4582 2.01519L0.601093 2.63792L0.928481 1.63032L0.0713697 1.00759L1.13082 1.00759L1.4582 0L1.78559 1.00759Z" fill="rgb(249,221,74)" fill-rule="evenodd" transform="matrix(0.814079,-0.580755,0.580754,0.814079,15.9655,10.8986)" />
		<path id="Star 116" d="M1.75207 0.988678L2.79163 0.988678L1.95061 1.59971L2.27185 2.58839L1.43083 1.97736L0.589809 2.58839L0.91105 1.59971L0.0700298 0.988678L1.10959 0.988678L1.43083 0L1.75207 0.988678Z" fill="rgb(249,221,74)" fill-rule="evenodd" transform="matrix(0.814079,-0.580754,0.580755,0.814079,13.3458,15.0837)" />
		<path id="Star 117" d="M1.75207 0.988678L2.79163 0.988678L1.95061 1.59972L2.27185 2.58839L1.43083 1.97736L0.589809 2.58839L0.91105 1.59972L0.0700298 0.988678L1.10959 0.988678L1.43083 0L1.75207 0.988678Z" fill="rgb(249,221,74)" fill-rule="evenodd" transform="matrix(0.814079,-0.580755,0.580755,0.814079,17.4338,18.8789)" />
		<path id="Star 118" d="M1.75207 0.988678L2.79163 0.988678L1.95061 1.59971L2.27185 2.58839L1.43083 1.97736L0.589809 2.58839L0.91105 1.59971L0.0700298 0.988678L1.10959 0.988678L1.43083 0L1.75207 0.988678Z" fill="rgb(249,221,74)" fill-rule="evenodd" transform="matrix(0.814079,-0.580754,0.580755,0.814079,13.1324,20.1438)" />
	</g>
</svg>
