<svg width="29.000000" height="28.000000" viewBox="0 0 29 28" fill="none" xmlns="http://www.w3.org/2000/svg" xmlns:xlink="http://www.w3.org/1999/xlink">
	<desc>
			Created with Pixso.
	</desc>
	<defs/>
	<rect id="Tuvalu" width="28.000000" height="28.000000" transform="translate(1.000000 0.000000)" fill="#FFFFFF" fill-opacity="0"/>
	<rect id="Mask" x="1.000000" y="4.000000" rx="3.000000" width="28.000000" height="19.999996" fill="#FFFFFF" fill-opacity="1.000000"/>
	<rect id="Mask" x="1.000000" y="4.000000" rx="3.000000" width="28.000000" height="19.999996" stroke="#979797" stroke-opacity="0" stroke-width="0.000000"/>
	<mask id="mask107608_829" mask-type="alpha" maskUnits="userSpaceOnUse" x="1.000000" y="4.000000" width="28.000000" height="19.999996">
		<rect id="Mask" x="1.000000" y="4.000000" rx="3.000000" width="28.000000" height="19.999996" fill="#FFFFFF" fill-opacity="1.000000"/>
		<rect id="Mask" x="1.000000" y="4.000000" rx="3.000000" width="28.000000" height="19.999996" stroke="#979797" stroke-opacity="0" stroke-width="0.000000"/>
	</mask>
	<g mask="url(#mask107608_829)">
		<rect id="Mask Copy" x="1.000000" y="4.000000" width="28.000000" height="19.999996" fill="#52B3EB" fill-opacity="1.000000"/>
		<rect id="Mask Copy" x="1.000000" y="4.000000" width="28.000000" height="19.999996" stroke="#979797" stroke-opacity="0" stroke-width="0.000000"/>
	</g>
	<g mask="url(#mask107608_829)">
		<rect id="Mask Copy" x="1.000000" y="3.991211" width="12.649121" height="10.008772" fill="#062365" fill-opacity="1.000000"/>
		<rect id="Mask Copy" x="1.000000" y="3.991211" width="12.649121" height="10.008772" stroke="#979797" stroke-opacity="0" stroke-width="0.000000"/>
	</g>
	<g mask="url(#mask107608_829)">
		<path id="Rectangle 36" d="M5.66 8L1 4L1.66 4L6.33 7.33L7.66 7.33L13 4L13 4.49C13 4.6 12.94 4.7 12.86 4.76L8.33 8L8.33 9.33L12.54 12.94C12.7 13.07 12.6 13.33 12.4 13.33L12.4 13.33C12.35 13.33 12.31 13.31 12.27 13.29L7.66 10L6.33 10L1 13.33L1 12.66L5.66 9.33L5.66 8Z" fill="#DB1E36" fill-opacity="1.000000" fill-rule="evenodd"/>
		<path id="Rectangle 36" d="M1.88 3.33L-0.81 3.33L5 8.3L5 8.99L0.33 12.32L0.33 14.53L6.52 10.66L7.45 10.66L11.88 13.83Q12 13.91 12.13 13.95Q12.26 14 12.4 14Q12.55 14 12.69 13.95Q12.82 13.9 12.93 13.82Q13.03 13.75 13.1 13.65Q13.18 13.55 13.23 13.42Q13.28 13.29 13.29 13.15Q13.29 13.03 13.26 12.91Q13.23 12.77 13.17 12.66Q13.09 12.54 12.98 12.43L9 9.02L9 8.34L13.24 5.3Q13.34 5.23 13.42 5.14Q13.5 5.06 13.55 4.95Q13.61 4.84 13.63 4.73Q13.66 4.61 13.66 4.49L13.66 2.79L7.47 6.66L6.54 6.66L1.88 3.33ZM6.33 7.33L3.81 5.53L1.66 4L1 4L1.41 4.35L1.66 4.57L5.66 8L5.66 9.33L2.33 11.71L1 12.66L1 13.33L1.32 13.12L1.66 12.91L2.7 12.26L6.33 10L7.66 10L10.18 11.8L11.96 13.06L12.27 13.29C12.31 13.31 12.35 13.33 12.4 13.33C12.6 13.33 12.7 13.07 12.54 12.94L12.25 12.69L10.59 11.27L8.33 9.33L8.33 8L11.66 5.62L12.86 4.76C12.94 4.7 13 4.6 13 4.49L13 4L12.34 4.41L12.33 4.41L11.29 5.06L7.66 7.33L6.33 7.33Z" fill="#FFFFFF" fill-opacity="1.000000" fill-rule="evenodd"/>
	</g>
	<g mask="url(#mask107608_829)">
		<path id="Rectangle 2" d="M1 7.33L1 10L5.66 10L5.66 13.33C5.66 13.7 5.96 14 6.33 14L7.66 14C8.03 14 8.33 13.7 8.33 13.33L8.33 10L13 10C13.36 10 13.66 9.7 13.66 9.33L13.66 8C13.66 7.63 13.36 7.33 13 7.33L8.33 7.33L8.33 4L5.66 4L5.66 7.33L1 7.33Z" fill="#FFFFFF" fill-opacity="1.000000" fill-rule="evenodd"/>
		<path id="Rectangle 2" d="M1 10L5.66 10L5.66 13.33C5.66 13.7 5.96 14 6.33 14L7.66 14C8.03 14 8.33 13.7 8.33 13.33L8.33 10L13 10C13.36 10 13.66 9.7 13.66 9.33L13.66 8C13.66 7.63 13.36 7.33 13 7.33L8.33 7.33L8.33 4L5.66 4L5.66 7.33L1 7.33L1 10Z" stroke="#979797" stroke-opacity="0" stroke-width="0.000000"/>
	</g>
	<g mask="url(#mask107608_829)">
		<path id="Rectangle 36" d="M1 8L6.33 8L6.33 7.33L6.33 4L7.66 4L7.66 7.33L7.66 8L13 8L13 9.33L7.66 9.33L7.66 10L7.66 13.33L6.33 13.33L6.33 10L6.33 9.33L1 9.33L1 8Z" fill="#DB1E36" fill-opacity="1.000000" fill-rule="evenodd"/>
		<path id="Rectangle 36" d="M6.33 8L6.33 7.33L6.33 4L7.66 4L7.66 7.33L7.66 8L13 8L13 9.33L7.66 9.33L7.66 10L7.66 13.33L6.33 13.33L6.33 10L6.33 9.33L1 9.33L1 8L6.33 8Z" stroke="#979797" stroke-opacity="0" stroke-width="0.000000"/>
	</g>
	<g mask="url(#mask107608_829)">
		<path id="Star 111" d="M25.22 6L24.91 6.96L23.89 6.96L24.71 7.55L24.4 8.51L25.22 7.92L26.04 8.51L25.72 7.55L26.54 6.96L25.53 6.96L25.22 6Z" fill="#F9DD4A" fill-opacity="1.000000" fill-rule="nonzero"/>
	</g>
	<g mask="url(#mask107608_829)">
		<path id="Star 112" d="M26.23 12.74L25.9 13.76L24.83 13.76L25.69 14.39L25.36 15.41L26.23 14.78L27.1 15.41L26.77 14.39L27.63 13.76L26.56 13.76L26.23 12.74Z" fill="#F9DD4A" fill-opacity="1.000000" fill-rule="nonzero"/>
	</g>
	<g mask="url(#mask107608_829)">
		<path id="Star 113" d="M22.27 14.77L21.95 15.73L20.94 15.73L21.76 16.32L21.45 17.28L22.27 16.69L23.08 17.28L22.77 16.32L23.59 15.73L22.58 15.73L22.27 14.77Z" fill="#F9DD4A" fill-opacity="1.000000" fill-rule="nonzero"/>
	</g>
	<g mask="url(#mask107608_829)">
		<path id="Star 119" d="M11.39 20.16L11.07 21.13L10.06 21.13L10.88 21.72L10.57 22.68L11.39 22.09L12.2 22.68L11.89 21.72L12.71 21.13L11.7 21.13L11.39 20.16Z" fill="#F9DD4A" fill-opacity="1.000000" fill-rule="nonzero"/>
	</g>
	<g mask="url(#mask107608_829)">
		<path id="Star 114" d="M21.82 9.1L22.13 10.08L21.29 10.68L22.32 10.69L22.63 11.67L22.95 10.7L23.98 10.7L23.15 10.09L23.48 9.12L22.64 9.71L21.82 9.1Z" fill="#F9DD4A" fill-opacity="1.000000" fill-rule="nonzero"/>
	</g>
	<g mask="url(#mask107608_829)">
		<path id="Star 115" d="M18.15 10.05L18.47 11.06L17.6 11.67L18.66 11.68L18.98 12.69L19.32 11.69L20.38 11.7L19.53 11.07L19.86 10.06L19 10.68L18.15 10.05Z" fill="#F9DD4A" fill-opacity="1.000000" fill-rule="nonzero"/>
	</g>
	<g mask="url(#mask107608_829)">
		<path id="Star 116" d="M15.51 14.25L15.82 15.24L14.97 15.84L16.01 15.85L16.32 16.84L16.65 15.86L17.69 15.87L16.86 15.25L17.19 14.26L16.34 14.87L15.51 14.25Z" fill="#F9DD4A" fill-opacity="1.000000" fill-rule="nonzero"/>
	</g>
	<g mask="url(#mask107608_829)">
		<path id="Star 117" d="M19.59 18.04L19.91 19.03L19.06 19.64L20.1 19.65L20.41 20.64L20.74 19.65L21.78 19.66L20.95 19.04L21.28 18.06L20.43 18.66L19.59 18.04Z" fill="#F9DD4A" fill-opacity="1.000000" fill-rule="nonzero"/>
	</g>
	<g mask="url(#mask107608_829)">
		<path id="Star 118" d="M15.29 19.31L15.6 20.3L14.76 20.9L15.8 20.91L16.11 21.9L16.44 20.92L17.48 20.93L16.64 20.31L16.97 19.32L16.13 19.93L15.29 19.31Z" fill="#F9DD4A" fill-opacity="1.000000" fill-rule="nonzero"/>
	</g>
</svg>
