<svg width="28.000000" height="28.000000" viewBox="0 0 28 28" fill="none" xmlns="http://www.w3.org/2000/svg" xmlns:xlink="http://www.w3.org/1999/xlink">
	<desc>
			Created with Pixso.
	</desc>
	<defs/>
	<rect id="Uganda" width="28.000000" height="28.000000" fill="#FFFFFF" fill-opacity="0"/>
	<rect id="Mask" y="4.000000" rx="3.000000" width="28.000000" height="20.000000" fill="#FFFFFF" fill-opacity="1.000000"/>
	<rect id="Mask" y="4.000000" rx="3.000000" width="28.000000" height="20.000000" stroke="#979797" stroke-opacity="0" stroke-width="0.000000"/>
	<mask id="mask17_4254" mask-type="alpha" maskUnits="userSpaceOnUse" x="0.000000" y="4.000000" width="28.000000" height="20.000000">
		<rect id="Mask" y="4.000000" rx="3.000000" width="28.000000" height="20.000000" fill="#FFFFFF" fill-opacity="1.000000"/>
		<rect id="Mask" y="4.000000" rx="3.000000" width="28.000000" height="20.000000" stroke="#979797" stroke-opacity="0" stroke-width="0.000000"/>
	</mask>
	<g mask="url(#mask17_4254)">
		<path id="Rectangle 2" d="M0 6.66L28 6.66L28 4L0 4L0 6.66Z" fill="#262626" fill-opacity="1.000000" fill-rule="evenodd"/>
		<path id="Rectangle 2" d="M28 6.66L28 4L0 4L0 6.66L28 6.66Z" stroke="#979797" stroke-opacity="0" stroke-width="0.000000"/>
	</g>
	<g mask="url(#mask17_4254)">
		<path id="Rectangle 2" d="M0 17.33L28 17.33L28 14.66L0 14.66L0 17.33Z" fill="#262626" fill-opacity="1.000000" fill-rule="evenodd"/>
		<path id="Rectangle 2" d="M28 17.33L28 14.66L0 14.66L0 17.33L28 17.33Z" stroke="#979797" stroke-opacity="0" stroke-width="0.000000"/>
	</g>
	<g mask="url(#mask17_4254)">
		<path id="Rectangle 2" d="M0 14.66L28 14.66L28 10.66L0 10.66L0 14.66Z" fill="#ED1623" fill-opacity="1.000000" fill-rule="evenodd"/>
		<path id="Rectangle 2" d="M28 14.66L28 10.66L0 10.66L0 14.66L28 14.66Z" stroke="#979797" stroke-opacity="0" stroke-width="0.000000"/>
	</g>
	<g mask="url(#mask17_4254)">
		<path id="Rectangle 2" d="M0 10.66L28 10.66L28 6.66L0 6.66L0 10.66Z" fill="#FEE044" fill-opacity="1.000000" fill-rule="evenodd"/>
		<path id="Rectangle 2" d="M28 10.66L28 6.66L0 6.66L0 10.66L28 10.66Z" stroke="#979797" stroke-opacity="0" stroke-width="0.000000"/>
	</g>
	<g mask="url(#mask17_4254)">
		<path id="Rectangle 2" d="M0 24L28 24L28 21.33L0 21.33L0 24Z" fill="#ED1623" fill-opacity="1.000000" fill-rule="evenodd"/>
		<path id="Rectangle 2" d="M28 24L28 21.33L0 21.33L0 24L28 24Z" stroke="#979797" stroke-opacity="0" stroke-width="0.000000"/>
	</g>
	<g mask="url(#mask17_4254)">
		<path id="Rectangle 2" d="M0 21.33L28 21.33L28 17.33L0 17.33L0 21.33Z" fill="#FEE044" fill-opacity="1.000000" fill-rule="evenodd"/>
		<path id="Rectangle 2" d="M28 21.33L28 17.33L0 17.33L0 21.33L28 21.33Z" stroke="#979797" stroke-opacity="0" stroke-width="0.000000"/>
	</g>
	<g mask="url(#mask17_4254)">
		<path id="Oval 220" d="M14 18.66C16.57 18.66 18.66 16.57 18.66 14C18.66 11.42 16.57 9.33 14 9.33C11.42 9.33 9.33 11.42 9.33 14C9.33 16.57 11.42 18.66 14 18.66Z" fill="#FFFFFF" fill-opacity="1.000000" fill-rule="evenodd"/>
		<path id="Oval 220" d="M18.66 14C18.66 11.42 16.57 9.33 14 9.33C11.42 9.33 9.33 11.42 9.33 14C9.33 16.57 11.42 18.66 14 18.66C16.57 18.66 18.66 16.57 18.66 14Z" stroke="#979797" stroke-opacity="0" stroke-width="0.000000"/>
	</g>
	<g mask="url(#mask17_4254)">
		<path id="Rectangle 1723" d="M12.9 11.56C12.77 11.43 12.77 11.22 12.9 11.09L13.31 10.68C13.32 10.67 13.33 10.65 13.34 10.64C13.38 10.59 13.47 10.48 13.57 10.39C13.75 10.23 14.25 10.21 14.43 10.37C14.47 10.42 14.52 10.47 14.55 10.51C14.63 10.6 14.63 10.72 14.58 10.83L14.03 11.92C14.01 11.97 14 12.02 14 12.07L14 12.46C14 12.58 14.07 12.7 14.18 12.75L15.28 13.3C15.31 13.32 15.34 13.34 15.37 13.37L16.49 14.49C16.59 14.59 16.62 14.75 16.55 14.88L16.2 15.58C16.1 15.78 15.83 15.83 15.67 15.67L15.56 15.56C15.43 15.43 15.22 15.43 15.09 15.56L14.76 15.9C14.7 15.96 14.66 16.04 14.66 16.13L14.66 16.52C14.66 16.61 14.7 16.7 14.76 16.76L14.76 16.76C14.97 16.97 14.82 17.33 14.52 17.33L14.13 17.33C13.84 17.33 13.69 16.97 13.9 16.76L13.9 16.76C13.96 16.7 14 16.61 14 16.52L14 16.33C14 16.14 13.85 16 13.66 16L13.47 16C13.38 16 13.29 16.03 13.23 16.09L12.9 16.43C12.77 16.56 12.56 16.56 12.43 16.43L12.23 16.23C12.1 16.1 12.1 15.89 12.23 15.76L12.56 15.43C12.63 15.36 12.71 15.33 12.8 15.33L13.19 15.33C13.49 15.33 13.64 14.97 13.43 14.76L12.23 13.56C12.1 13.43 12.1 13.22 12.23 13.09L13.09 12.23C13.22 12.1 13.22 11.89 13.09 11.76L12.9 11.56Z" fill="#262626" fill-opacity="1.000000" fill-rule="evenodd"/>
		<path id="Rectangle 1723" d="M13.31 10.68C13.32 10.67 13.33 10.65 13.34 10.64C13.38 10.59 13.47 10.48 13.57 10.39C13.75 10.23 14.25 10.21 14.43 10.37C14.47 10.42 14.52 10.47 14.55 10.51C14.63 10.6 14.63 10.72 14.58 10.83L14.03 11.92C14.01 11.97 14 12.02 14 12.07L14 12.46C14 12.58 14.07 12.7 14.18 12.75L15.28 13.3C15.31 13.32 15.34 13.34 15.37 13.37L16.49 14.49C16.59 14.59 16.62 14.75 16.55 14.88L16.2 15.58C16.1 15.78 15.83 15.83 15.67 15.67L15.56 15.56C15.43 15.43 15.22 15.43 15.09 15.56L14.76 15.9C14.7 15.96 14.66 16.04 14.66 16.13L14.66 16.52C14.66 16.61 14.7 16.7 14.76 16.76C14.97 16.97 14.82 17.33 14.52 17.33L14.13 17.33C13.84 17.33 13.69 16.97 13.9 16.76C13.96 16.7 14 16.61 14 16.52L14 16.33C14 16.14 13.85 16 13.66 16L13.47 16C13.38 16 13.29 16.03 13.23 16.09L12.9 16.43C12.77 16.56 12.56 16.56 12.43 16.43L12.23 16.23C12.1 16.1 12.1 15.89 12.23 15.76L12.56 15.43C12.63 15.36 12.71 15.33 12.8 15.33L13.19 15.33C13.49 15.33 13.64 14.97 13.43 14.76L12.23 13.56C12.1 13.43 12.1 13.22 12.23 13.09L13.09 12.23C13.22 12.1 13.22 11.89 13.09 11.76L12.9 11.56C12.77 11.43 12.77 11.22 12.9 11.09L13.31 10.68Z" stroke="#979797" stroke-opacity="0" stroke-width="0.000000"/>
	</g>
</svg>
