<svg viewBox="0 0 28 28" xmlns="http://www.w3.org/2000/svg" xmlns:xlink="http://www.w3.org/1999/xlink" width="28.000000" height="28.000000" fill="none" customFrame="#000000">
	<defs>
		<filter id="pixso_custom_mask_type_alpha">
			<feColorMatrix type="matrix" values="0 0 0 0 1 0 0 0 0 1 0 0 0 0 1 0 0 0 1 0 " />
		</filter>
		<g id="pixso_custom_effect_48">
			<effect x="0.000000" y="1.000000" visibility="visible" fill="rgb(0,0,0)" fill-opacity="0.0599999987" effectType="dropShadow" showShadowBehind="1" stdDeviation="0" radius="0" />
			<effect x="0.000000" y="1.000000" visibility="hidden" fill="rgb(255,216.88,100.278)" fill-opacity="1" effectType="innerShadow" showShadowBehind="1" stdDeviation="0" radius="0" />
		</g>
		<filter id="filter_48" width="9.333344" height="7.666672" x="1.333344" y="5.333344" filterUnits="userSpaceOnUse" customEffect="url(#pixso_custom_effect_48)" color-interpolation-filters="sRGB">
			<feFlood flood-opacity="0" result="BackgroundImageFix" />
			<feOffset dx="0.000000" dy="1.000000" in="SourceAlpha" />
			<feColorMatrix type="matrix" values="0 0 0 0 0 0 0 0 0 0 0 0 0 0 0 0 0 0 0.06 0 " />
			<feBlend result="effect_dropShadow_1" in2="BackgroundImageFix" mode="normal" />
			<feBlend result="shape" in="SourceGraphic" in2="effect_dropShadow_1" mode="normal" />
		</filter>
		<linearGradient id="paint_linear_176" x1="1.33334351" x2="1.33334351" y1="5.33337402" y2="12.0000401" gradientUnits="userSpaceOnUse">
			<stop stop-color="rgb(255,255,255)" offset="0" stop-opacity="1" />
			<stop stop-color="rgb(239.7,239.7,239.7)" offset="1" stop-opacity="1" />
		</linearGradient>
	</defs>
	<mask id="mask_544" width="28.000000" height="20.000000" x="0.000000" y="4.000000" maskUnits="userSpaceOnUse">
		<g filter="url(#pixso_custom_mask_type_alpha)">
			<rect id="Mask" width="28.000000" height="20.000000" x="0.000000" y="4.000000" rx="3.000000" fill="rgb(255,255,255)" />
			<rect id="Mask" width="28.000000" height="20.000000" x="0.000000" y="4.000000" rx="3.000000" stroke="rgb(150.96,150.96,150.96)" stroke-opacity="0" stroke-width="0" />
		</g>
	</mask>
	<rect id="United States Minor Outlying Islands" width="28.000000" height="28.000000" x="0.000000" y="0.000000" fill="rgb(255,255,255)" fill-opacity="0" />
	<rect id="Mask" width="28.000000" height="20.000000" x="0.000000" y="4.000000" rx="3.000000" fill="rgb(255,255,255)" />
	<rect id="Mask" width="28.000000" height="20.000000" x="0.000000" y="4.000000" rx="3.000000" stroke="rgb(150.96,150.96,150.96)" stroke-opacity="0" stroke-width="0" />
	<g mask="url(#mask_544)">
		<path id="Rectangle 511" d="M28 5.33333L28 4L0 4L0 5.33333L28 5.33333ZM28 8L28 6.66667L0 6.66667L0 8L28 8ZM28 10.6667L28 9.33333L0 9.33333L0 10.6667L28 10.6667ZM28 13.3333L28 12L0 12L0 13.3333L28 13.3333ZM28 16L28 14.6667L0 14.6667L0 16L28 16ZM28 18.6667L28 17.3333L0 17.3333L0 18.6667L28 18.6667ZM28 21.3333L28 20L0 20L0 21.3333L28 21.3333ZM28 24L28 22.6667L0 22.6667L0 24L28 24Z" fill="rgb(208,47,68)" fill-rule="evenodd" />
		<path id="Rectangle 511" d="M28 5.33333L28 4L0 4L0 5.33333L28 5.33333ZM28 8L28 6.66667L0 6.66667L0 8L28 8ZM28 10.6667L28 9.33333L0 9.33333L0 10.6667L28 10.6667ZM28 13.3333L28 12L0 12L0 13.3333L28 13.3333ZM28 16L28 14.6667L0 14.6667L0 16L28 16ZM28 18.6667L28 17.3333L0 17.3333L0 18.6667L28 18.6667ZM28 21.3333L28 20L0 20L0 21.3333L28 21.3333ZM28 24L28 22.6667L0 22.6667L0 24L28 24Z" fill-rule="evenodd" stroke="rgb(150.96,150.96,150.96)" stroke-opacity="0" stroke-width="0" />
		<rect id="Rectangle 511" width="12.000000" height="9.333333" x="0.000000" y="4.000000" fill="rgb(70,70,127)" />
		<rect id="Rectangle 511" width="12.000000" height="9.333333" x="0.000000" y="4.000000" stroke="rgb(150.96,150.96,150.96)" stroke-opacity="0" stroke-width="0" />
		<g filter="url(#filter_48)">
			<path id="Oval 43" d="M2.66668 6.00004C2.66668 6.36823 2.3682 6.66671 2.00001 6.66671C1.63182 6.66671 1.33334 6.36823 1.33334 6.00004C1.33334 5.63185 1.63182 5.33337 2.00001 5.33337C2.3682 5.33337 2.66668 5.63185 2.66668 6.00004ZM5.33334 6.00004C5.33334 6.36823 5.03487 6.66671 4.66668 6.66671C4.29849 6.66671 4.00001 6.36823 4.00001 6.00004C4.00001 5.63185 4.29849 5.33337 4.66668 5.33337C5.03487 5.33337 5.33334 5.63185 5.33334 6.00004ZM8.00001 6.00004C8.00001 6.36823 7.70153 6.66671 7.33334 6.66671C6.96515 6.66671 6.66668 6.36823 6.66668 6.00004C6.66668 5.63185 6.96515 5.33337 7.33334 5.33337C7.70153 5.33337 8.00001 5.63185 8.00001 6.00004ZM10.6667 6.00004C10.6667 6.36823 10.3682 6.66671 10 6.66671C9.63182 6.66671 9.33334 6.36823 9.33334 6.00004C9.33334 5.63185 9.63182 5.33337 10 5.33337C10.3682 5.33337 10.6667 5.63185 10.6667 6.00004ZM3.33334 8.00004C3.70153 8.00004 4.00001 7.70156 4.00001 7.33337C4.00001 6.96518 3.70153 6.66671 3.33334 6.66671C2.96515 6.66671 2.66668 6.96518 2.66668 7.33337C2.66668 7.70156 2.96515 8.00004 3.33334 8.00004ZM6.00001 8.00004C6.3682 8.00004 6.66668 7.70156 6.66668 7.33337C6.66668 6.96518 6.3682 6.66671 6.00001 6.66671C5.63182 6.66671 5.33334 6.96518 5.33334 7.33337C5.33334 7.70156 5.63182 8.00004 6.00001 8.00004ZM8.66668 8.00004C9.03487 8.00004 9.33334 7.70156 9.33334 7.33337C9.33334 6.96518 9.03487 6.66671 8.66668 6.66671C8.29849 6.66671 8.00001 6.96518 8.00001 7.33337C8.00001 7.70156 8.29849 8.00004 8.66668 8.00004ZM2.00001 9.33337C2.3682 9.33337 2.66668 9.0349 2.66668 8.66671C2.66668 8.29852 2.3682 8.00004 2.00001 8.00004C1.63182 8.00004 1.33334 8.29852 1.33334 8.66671C1.33334 9.0349 1.63182 9.33337 2.00001 9.33337ZM4.66668 9.33337C5.03487 9.33337 5.33334 9.0349 5.33334 8.66671C5.33334 8.29852 5.03487 8.00004 4.66668 8.00004C4.29849 8.00004 4.00001 8.29852 4.00001 8.66671C4.00001 9.0349 4.29849 9.33337 4.66668 9.33337ZM7.33334 9.33337C7.70153 9.33337 8.00001 9.0349 8.00001 8.66671C8.00001 8.29852 7.70153 8.00004 7.33334 8.00004C6.96515 8.00004 6.66668 8.29852 6.66668 8.66671C6.66668 9.0349 6.96515 9.33337 7.33334 9.33337ZM10 9.33337C10.3682 9.33337 10.6667 9.0349 10.6667 8.66671C10.6667 8.29852 10.3682 8.00004 10 8.00004C9.63182 8.00004 9.33334 8.29852 9.33334 8.66671C9.33334 9.0349 9.63182 9.33337 10 9.33337ZM3.33334 10.6667C3.70153 10.6667 4.00001 10.3682 4.00001 10C4.00001 9.63185 3.70153 9.33337 3.33334 9.33337C2.96515 9.33337 2.66668 9.63185 2.66668 10C2.66668 10.3682 2.96515 10.6667 3.33334 10.6667ZM6.00001 10.6667C6.3682 10.6667 6.66668 10.3682 6.66668 10C6.66668 9.63185 6.3682 9.33337 6.00001 9.33337C5.63182 9.33337 5.33334 9.63185 5.33334 10C5.33334 10.3682 5.63182 10.6667 6.00001 10.6667ZM8.66668 10.6667C9.03487 10.6667 9.33334 10.3682 9.33334 10C9.33334 9.63185 9.03487 9.33337 8.66668 9.33337C8.29849 9.33337 8.00001 9.63185 8.00001 10C8.00001 10.3682 8.29849 10.6667 8.66668 10.6667ZM2.00001 12C2.3682 12 2.66668 11.7016 2.66668 11.3334C2.66668 10.9652 2.3682 10.6667 2.00001 10.6667C1.63182 10.6667 1.33334 10.9652 1.33334 11.3334C1.33334 11.7016 1.63182 12 2.00001 12ZM4.66668 12C5.03487 12 5.33334 11.7016 5.33334 11.3334C5.33334 10.9652 5.03487 10.6667 4.66668 10.6667C4.29849 10.6667 4.00001 10.9652 4.00001 11.3334C4.00001 11.7016 4.29849 12 4.66668 12ZM7.33334 12C7.70153 12 8.00001 11.7016 8.00001 11.3334C8.00001 10.9652 7.70153 10.6667 7.33334 10.6667C6.96515 10.6667 6.66668 10.9652 6.66668 11.3334C6.66668 11.7016 6.96515 12 7.33334 12ZM10 12C10.3682 12 10.6667 11.7016 10.6667 11.3334C10.6667 10.9652 10.3682 10.6667 10 10.6667C9.63182 10.6667 9.33334 10.9652 9.33334 11.3334C9.33334 11.7016 9.63182 12 10 12Z" fill="url(#paint_linear_176)" fill-rule="evenodd" />
			<path id="Oval 43" d="M2.66668 6.00004C2.66668 6.36823 2.3682 6.66671 2.00001 6.66671C1.63182 6.66671 1.33334 6.36823 1.33334 6.00004C1.33334 5.63185 1.63182 5.33337 2.00001 5.33337C2.3682 5.33337 2.66668 5.63185 2.66668 6.00004ZM5.33334 6.00004C5.33334 6.36823 5.03487 6.66671 4.66668 6.66671C4.29849 6.66671 4.00001 6.36823 4.00001 6.00004C4.00001 5.63185 4.29849 5.33337 4.66668 5.33337C5.03487 5.33337 5.33334 5.63185 5.33334 6.00004ZM8.00001 6.00004C8.00001 6.36823 7.70153 6.66671 7.33334 6.66671C6.96515 6.66671 6.66668 6.36823 6.66668 6.00004C6.66668 5.63185 6.96515 5.33337 7.33334 5.33337C7.70153 5.33337 8.00001 5.63185 8.00001 6.00004ZM10.6667 6.00004C10.6667 6.36823 10.3682 6.66671 10 6.66671C9.63182 6.66671 9.33334 6.36823 9.33334 6.00004C9.33334 5.63185 9.63182 5.33337 10 5.33337C10.3682 5.33337 10.6667 5.63185 10.6667 6.00004ZM3.33334 8.00004C3.70153 8.00004 4.00001 7.70156 4.00001 7.33337C4.00001 6.96518 3.70153 6.66671 3.33334 6.66671C2.96515 6.66671 2.66668 6.96518 2.66668 7.33337C2.66668 7.70156 2.96515 8.00004 3.33334 8.00004ZM6.00001 8.00004C6.3682 8.00004 6.66668 7.70156 6.66668 7.33337C6.66668 6.96518 6.3682 6.66671 6.00001 6.66671C5.63182 6.66671 5.33334 6.96518 5.33334 7.33337C5.33334 7.70156 5.63182 8.00004 6.00001 8.00004ZM8.66668 8.00004C9.03487 8.00004 9.33334 7.70156 9.33334 7.33337C9.33334 6.96518 9.03487 6.66671 8.66668 6.66671C8.29849 6.66671 8.00001 6.96518 8.00001 7.33337C8.00001 7.70156 8.29849 8.00004 8.66668 8.00004ZM2.00001 9.33337C2.3682 9.33337 2.66668 9.0349 2.66668 8.66671C2.66668 8.29852 2.3682 8.00004 2.00001 8.00004C1.63182 8.00004 1.33334 8.29852 1.33334 8.66671C1.33334 9.0349 1.63182 9.33337 2.00001 9.33337ZM4.66668 9.33337C5.03487 9.33337 5.33334 9.0349 5.33334 8.66671C5.33334 8.29852 5.03487 8.00004 4.66668 8.00004C4.29849 8.00004 4.00001 8.29852 4.00001 8.66671C4.00001 9.0349 4.29849 9.33337 4.66668 9.33337ZM7.33334 9.33337C7.70153 9.33337 8.00001 9.0349 8.00001 8.66671C8.00001 8.29852 7.70153 8.00004 7.33334 8.00004C6.96515 8.00004 6.66668 8.29852 6.66668 8.66671C6.66668 9.0349 6.96515 9.33337 7.33334 9.33337ZM10 9.33337C10.3682 9.33337 10.6667 9.0349 10.6667 8.66671C10.6667 8.29852 10.3682 8.00004 10 8.00004C9.63182 8.00004 9.33334 8.29852 9.33334 8.66671C9.33334 9.0349 9.63182 9.33337 10 9.33337ZM3.33334 10.6667C3.70153 10.6667 4.00001 10.3682 4.00001 10C4.00001 9.63185 3.70153 9.33337 3.33334 9.33337C2.96515 9.33337 2.66668 9.63185 2.66668 10C2.66668 10.3682 2.96515 10.6667 3.33334 10.6667ZM6.00001 10.6667C6.3682 10.6667 6.66668 10.3682 6.66668 10C6.66668 9.63185 6.3682 9.33337 6.00001 9.33337C5.63182 9.33337 5.33334 9.63185 5.33334 10C5.33334 10.3682 5.63182 10.6667 6.00001 10.6667ZM8.66668 10.6667C9.03487 10.6667 9.33334 10.3682 9.33334 10C9.33334 9.63185 9.03487 9.33337 8.66668 9.33337C8.29849 9.33337 8.00001 9.63185 8.00001 10C8.00001 10.3682 8.29849 10.6667 8.66668 10.6667ZM2.00001 12C2.3682 12 2.66668 11.7016 2.66668 11.3334C2.66668 10.9652 2.3682 10.6667 2.00001 10.6667C1.63182 10.6667 1.33334 10.9652 1.33334 11.3334C1.33334 11.7016 1.63182 12 2.00001 12ZM4.66668 12C5.03487 12 5.33334 11.7016 5.33334 11.3334C5.33334 10.9652 5.03487 10.6667 4.66668 10.6667C4.29849 10.6667 4.00001 10.9652 4.00001 11.3334C4.00001 11.7016 4.29849 12 4.66668 12ZM7.33334 12C7.70153 12 8.00001 11.7016 8.00001 11.3334C8.00001 10.9652 7.70153 10.6667 7.33334 10.6667C6.96515 10.6667 6.66668 10.9652 6.66668 11.3334C6.66668 11.7016 6.96515 12 7.33334 12ZM10 12C10.3682 12 10.6667 11.7016 10.6667 11.3334C10.6667 10.9652 10.3682 10.6667 10 10.6667C9.63182 10.6667 9.33334 10.9652 9.33334 11.3334C9.33334 11.7016 9.63182 12 10 12Z" fill-rule="evenodd" stroke="rgb(150.96,150.96,150.96)" stroke-opacity="0" stroke-width="0" />
		</g>
	</g>
</svg>
