<svg width="28.000000" height="28.000000" viewBox="0 0 28 28" fill="none" xmlns="http://www.w3.org/2000/svg" xmlns:xlink="http://www.w3.org/1999/xlink">
	<desc>
			Created with Pixso.
	</desc>
	<defs>
		<filter id="filter_17_4296_dd" x="1.333374" y="5.333374" width="9.333313" height="7.666672" filterUnits="userSpaceOnUse" color-interpolation-filters="sRGB">
			<feFlood flood-opacity="0" result="BackgroundImageFix"/>
			<feColorMatrix in="SourceAlpha" type="matrix" values="0 0 0 0 0 0 0 0 0 0 0 0 0 0 0 0 0 0 127 0" result="hardAlpha"/>
			<feOffset dx="0" dy="1"/>
			<feGaussianBlur stdDeviation="0"/>
			<feComposite in2="hardAlpha" operator="out" k2="-1" k3="1"/>
			<feColorMatrix type="matrix" values="0 0 0 0 0 0 0 0 0 0 0 0 0 0 0 0 0 0 0.059 0"/>
			<feBlend mode="normal" in2="BackgroundImageFix" result="effect_dropShadow_1"/>
			<feBlend mode="normal" in="SourceGraphic" in2="effect_dropShadow_1" result="shape"/>
		</filter>
		<linearGradient id="paint_linear_17_4296_0" x1="1.333374" y1="5.333374" x2="1.333374" y2="12.000041" gradientUnits="userSpaceOnUse">
			<stop stop-color="#FFFFFF"/>
			<stop offset="1.000000" stop-color="#F0F0F0"/>
		</linearGradient>
	</defs>
	<rect id="United States of America" width="28.000000" height="28.000000" fill="#FFFFFF" fill-opacity="0"/>
	<rect id="Mask" y="4.000000" rx="3.000000" width="28.000000" height="20.000000" fill="#FFFFFF" fill-opacity="1.000000"/>
	<rect id="Mask" y="4.000000" rx="3.000000" width="28.000000" height="20.000000" stroke="#979797" stroke-opacity="0" stroke-width="0.000000"/>
	<mask id="mask17_4285" mask-type="alpha" maskUnits="userSpaceOnUse" x="0.000000" y="4.000000" width="28.000000" height="20.000000">
		<rect id="Mask" y="4.000000" rx="3.000000" width="28.000000" height="20.000000" fill="#FFFFFF" fill-opacity="1.000000"/>
		<rect id="Mask" y="4.000000" rx="3.000000" width="28.000000" height="20.000000" stroke="#979797" stroke-opacity="0" stroke-width="0.000000"/>
	</mask>
	<g mask="url(#mask17_4285)">
		<mask id="mask_17_4286" fill="white">
			<path id="Rectangle 511" d="M0 4L28 4L28 5.33333L0 5.33333L0 4ZM0 6.66667L28 6.66667L28 8L0 8L0 6.66667ZM0 9.33333L28 9.33333L28 10.6667L0 10.6667L0 9.33333ZM0 12L28 12L28 13.3333L0 13.3333L0 12ZM0 14.6667L28 14.6667L28 16L0 16L0 14.6667ZM0 17.3333L28 17.3333L28 18.6667L0 18.6667L0 17.3333ZM0 20L28 20L28 21.3333L0 21.3333L0 20ZM0 22.6667L28 22.6667L28 24L0 24L0 22.6667Z" clip-rule="evenodd" fill="" fill-opacity="1.000000" fill-rule="evenodd"/>
		</mask>
		<path id="Rectangle 511" d="M0 4L28 4L28 5.33333L0 5.33333L0 4ZM0 6.66667L28 6.66667L28 8L0 8L0 6.66667ZM0 9.33333L28 9.33333L28 10.6667L0 10.6667L0 9.33333ZM0 12L28 12L28 13.3333L0 13.3333L0 12ZM0 14.6667L28 14.6667L28 16L0 16L0 14.6667ZM0 17.3333L28 17.3333L28 18.6667L0 18.6667L0 17.3333ZM0 20L28 20L28 21.3333L0 21.3333L0 20ZM0 22.6667L28 22.6667L28 24L0 24L0 22.6667Z" clip-rule="evenodd" fill="#D02F44" fill-opacity="1.000000" fill-rule="evenodd" mask="url(#mask_17_4286)"/>
		<path id="Rectangle 511" d="" fill="#979797" fill-opacity="0.000000" fill-rule="nonzero"/>
	</g>
	<g mask="url(#mask17_4285)">
		<rect id="Rectangle 511" y="4.000000" width="12.000000" height="9.333333" fill="#46467F" fill-opacity="1.000000"/>
		<rect id="Rectangle 511" y="4.000000" width="12.000000" height="9.333333" stroke="#979797" stroke-opacity="0" stroke-width="0.000000"/>
	</g>
	<g mask="url(#mask17_4285)">
		<g filter="url(#filter_17_4296_dd)">
			<mask id="mask_17_4296" fill="white">
				<path id="Oval 43" d="M2.00006 6.66671C2.36823 6.66671 2.66669 6.36823 2.66669 6.00004C2.66669 5.63185 2.36823 5.33337 2.00006 5.33337C1.63184 5.33337 1.33337 5.63185 1.33337 6.00004C1.33337 6.36823 1.63184 6.66671 2.00006 6.66671ZM4.66669 6.66671C5.03491 6.66671 5.33337 6.36823 5.33337 6.00004C5.33337 5.63185 5.03491 5.33337 4.66669 5.33337C4.29852 5.33337 4.00006 5.63185 4.00006 6.00004C4.00006 6.36823 4.29852 6.66671 4.66669 6.66671ZM7.33337 6.66671C7.70154 6.66671 8.00006 6.36823 8.00006 6.00004C8.00006 5.63185 7.70154 5.33337 7.33337 5.33337C6.96521 5.33337 6.66669 5.63185 6.66669 6.00004C6.66669 6.36823 6.96521 6.66671 7.33337 6.66671ZM10.0001 6.66671C10.3682 6.66671 10.6667 6.36823 10.6667 6.00004C10.6667 5.63185 10.3682 5.33337 10.0001 5.33337C9.63184 5.33337 9.33337 5.63185 9.33337 6.00004C9.33337 6.36823 9.63184 6.66671 10.0001 6.66671ZM3.33337 8.00004C3.70154 8.00004 4.00006 7.70156 4.00006 7.33337C4.00006 6.96518 3.70154 6.66671 3.33337 6.66671C2.96521 6.66671 2.66669 6.96518 2.66669 7.33337C2.66669 7.70156 2.96521 8.00004 3.33337 8.00004ZM6.00006 8.00004C6.36823 8.00004 6.66669 7.70156 6.66669 7.33337C6.66669 6.96518 6.36823 6.66671 6.00006 6.66671C5.63184 6.66671 5.33337 6.96518 5.33337 7.33337C5.33337 7.70156 5.63184 8.00004 6.00006 8.00004ZM8.66669 8.00004C9.03491 8.00004 9.33337 7.70156 9.33337 7.33337C9.33337 6.96518 9.03491 6.66671 8.66669 6.66671C8.29852 6.66671 8.00006 6.96518 8.00006 7.33337C8.00006 7.70156 8.29852 8.00004 8.66669 8.00004ZM2.00006 9.33337C2.36823 9.33337 2.66669 9.0349 2.66669 8.66671C2.66669 8.29852 2.36823 8.00004 2.00006 8.00004C1.63184 8.00004 1.33337 8.29852 1.33337 8.66671C1.33337 9.0349 1.63184 9.33337 2.00006 9.33337ZM4.66669 9.33337C5.03491 9.33337 5.33337 9.0349 5.33337 8.66671C5.33337 8.29852 5.03491 8.00004 4.66669 8.00004C4.29852 8.00004 4.00006 8.29852 4.00006 8.66671C4.00006 9.0349 4.29852 9.33337 4.66669 9.33337ZM7.33337 9.33337C7.70154 9.33337 8.00006 9.0349 8.00006 8.66671C8.00006 8.29852 7.70154 8.00004 7.33337 8.00004C6.96521 8.00004 6.66669 8.29852 6.66669 8.66671C6.66669 9.0349 6.96521 9.33337 7.33337 9.33337ZM10.0001 9.33337C10.3682 9.33337 10.6667 9.0349 10.6667 8.66671C10.6667 8.29852 10.3682 8.00004 10.0001 8.00004C9.63184 8.00004 9.33337 8.29852 9.33337 8.66671C9.33337 9.0349 9.63184 9.33337 10.0001 9.33337ZM3.33337 10.6667C3.70154 10.6667 4.00006 10.3682 4.00006 10C4.00006 9.63185 3.70154 9.33337 3.33337 9.33337C2.96521 9.33337 2.66669 9.63185 2.66669 10C2.66669 10.3682 2.96521 10.6667 3.33337 10.6667ZM6.00006 10.6667C6.36823 10.6667 6.66669 10.3682 6.66669 10C6.66669 9.63185 6.36823 9.33337 6.00006 9.33337C5.63184 9.33337 5.33337 9.63185 5.33337 10C5.33337 10.3682 5.63184 10.6667 6.00006 10.6667ZM8.66669 10.6667C9.03491 10.6667 9.33337 10.3682 9.33337 10C9.33337 9.63185 9.03491 9.33337 8.66669 9.33337C8.29852 9.33337 8.00006 9.63185 8.00006 10C8.00006 10.3682 8.29852 10.6667 8.66669 10.6667ZM2.00006 12C2.36823 12 2.66669 11.7016 2.66669 11.3334C2.66669 10.9652 2.36823 10.6667 2.00006 10.6667C1.63184 10.6667 1.33337 10.9652 1.33337 11.3334C1.33337 11.7016 1.63184 12 2.00006 12ZM4.66669 12C5.03491 12 5.33337 11.7016 5.33337 11.3334C5.33337 10.9652 5.03491 10.6667 4.66669 10.6667C4.29852 10.6667 4.00006 10.9652 4.00006 11.3334C4.00006 11.7016 4.29852 12 4.66669 12ZM7.33337 12C7.70154 12 8.00006 11.7016 8.00006 11.3334C8.00006 10.9652 7.70154 10.6667 7.33337 10.6667C6.96521 10.6667 6.66669 10.9652 6.66669 11.3334C6.66669 11.7016 6.96521 12 7.33337 12ZM10.0001 12C10.3682 12 10.6667 11.7016 10.6667 11.3334C10.6667 10.9652 10.3682 10.6667 10.0001 10.6667C9.63184 10.6667 9.33337 10.9652 9.33337 11.3334C9.33337 11.7016 9.63184 12 10.0001 12Z" clip-rule="evenodd" fill="" fill-opacity="1.000000" fill-rule="evenodd"/>
			</mask>
			<path id="Oval 43" d="M2.00006 6.66671C2.36823 6.66671 2.66669 6.36823 2.66669 6.00004C2.66669 5.63185 2.36823 5.33337 2.00006 5.33337C1.63184 5.33337 1.33337 5.63185 1.33337 6.00004C1.33337 6.36823 1.63184 6.66671 2.00006 6.66671ZM4.66669 6.66671C5.03491 6.66671 5.33337 6.36823 5.33337 6.00004C5.33337 5.63185 5.03491 5.33337 4.66669 5.33337C4.29852 5.33337 4.00006 5.63185 4.00006 6.00004C4.00006 6.36823 4.29852 6.66671 4.66669 6.66671ZM7.33337 6.66671C7.70154 6.66671 8.00006 6.36823 8.00006 6.00004C8.00006 5.63185 7.70154 5.33337 7.33337 5.33337C6.96521 5.33337 6.66669 5.63185 6.66669 6.00004C6.66669 6.36823 6.96521 6.66671 7.33337 6.66671ZM10.0001 6.66671C10.3682 6.66671 10.6667 6.36823 10.6667 6.00004C10.6667 5.63185 10.3682 5.33337 10.0001 5.33337C9.63184 5.33337 9.33337 5.63185 9.33337 6.00004C9.33337 6.36823 9.63184 6.66671 10.0001 6.66671ZM3.33337 8.00004C3.70154 8.00004 4.00006 7.70156 4.00006 7.33337C4.00006 6.96518 3.70154 6.66671 3.33337 6.66671C2.96521 6.66671 2.66669 6.96518 2.66669 7.33337C2.66669 7.70156 2.96521 8.00004 3.33337 8.00004ZM6.00006 8.00004C6.36823 8.00004 6.66669 7.70156 6.66669 7.33337C6.66669 6.96518 6.36823 6.66671 6.00006 6.66671C5.63184 6.66671 5.33337 6.96518 5.33337 7.33337C5.33337 7.70156 5.63184 8.00004 6.00006 8.00004ZM8.66669 8.00004C9.03491 8.00004 9.33337 7.70156 9.33337 7.33337C9.33337 6.96518 9.03491 6.66671 8.66669 6.66671C8.29852 6.66671 8.00006 6.96518 8.00006 7.33337C8.00006 7.70156 8.29852 8.00004 8.66669 8.00004ZM2.00006 9.33337C2.36823 9.33337 2.66669 9.0349 2.66669 8.66671C2.66669 8.29852 2.36823 8.00004 2.00006 8.00004C1.63184 8.00004 1.33337 8.29852 1.33337 8.66671C1.33337 9.0349 1.63184 9.33337 2.00006 9.33337ZM4.66669 9.33337C5.03491 9.33337 5.33337 9.0349 5.33337 8.66671C5.33337 8.29852 5.03491 8.00004 4.66669 8.00004C4.29852 8.00004 4.00006 8.29852 4.00006 8.66671C4.00006 9.0349 4.29852 9.33337 4.66669 9.33337ZM7.33337 9.33337C7.70154 9.33337 8.00006 9.0349 8.00006 8.66671C8.00006 8.29852 7.70154 8.00004 7.33337 8.00004C6.96521 8.00004 6.66669 8.29852 6.66669 8.66671C6.66669 9.0349 6.96521 9.33337 7.33337 9.33337ZM10.0001 9.33337C10.3682 9.33337 10.6667 9.0349 10.6667 8.66671C10.6667 8.29852 10.3682 8.00004 10.0001 8.00004C9.63184 8.00004 9.33337 8.29852 9.33337 8.66671C9.33337 9.0349 9.63184 9.33337 10.0001 9.33337ZM3.33337 10.6667C3.70154 10.6667 4.00006 10.3682 4.00006 10C4.00006 9.63185 3.70154 9.33337 3.33337 9.33337C2.96521 9.33337 2.66669 9.63185 2.66669 10C2.66669 10.3682 2.96521 10.6667 3.33337 10.6667ZM6.00006 10.6667C6.36823 10.6667 6.66669 10.3682 6.66669 10C6.66669 9.63185 6.36823 9.33337 6.00006 9.33337C5.63184 9.33337 5.33337 9.63185 5.33337 10C5.33337 10.3682 5.63184 10.6667 6.00006 10.6667ZM8.66669 10.6667C9.03491 10.6667 9.33337 10.3682 9.33337 10C9.33337 9.63185 9.03491 9.33337 8.66669 9.33337C8.29852 9.33337 8.00006 9.63185 8.00006 10C8.00006 10.3682 8.29852 10.6667 8.66669 10.6667ZM2.00006 12C2.36823 12 2.66669 11.7016 2.66669 11.3334C2.66669 10.9652 2.36823 10.6667 2.00006 10.6667C1.63184 10.6667 1.33337 10.9652 1.33337 11.3334C1.33337 11.7016 1.63184 12 2.00006 12ZM4.66669 12C5.03491 12 5.33337 11.7016 5.33337 11.3334C5.33337 10.9652 5.03491 10.6667 4.66669 10.6667C4.29852 10.6667 4.00006 10.9652 4.00006 11.3334C4.00006 11.7016 4.29852 12 4.66669 12ZM7.33337 12C7.70154 12 8.00006 11.7016 8.00006 11.3334C8.00006 10.9652 7.70154 10.6667 7.33337 10.6667C6.96521 10.6667 6.66669 10.9652 6.66669 11.3334C6.66669 11.7016 6.96521 12 7.33337 12ZM10.0001 12C10.3682 12 10.6667 11.7016 10.6667 11.3334C10.6667 10.9652 10.3682 10.6667 10.0001 10.6667C9.63184 10.6667 9.33337 10.9652 9.33337 11.3334C9.33337 11.7016 9.63184 12 10.0001 12Z" clip-rule="evenodd" fill="url(#paint_linear_17_4296_0)" fill-opacity="1.000000" fill-rule="evenodd" mask="url(#mask_17_4296)"/>
		</g>
		<path id="Oval 43" d="" fill="#979797" fill-opacity="0.000000" fill-rule="nonzero"/>
	</g>
</svg>
