<svg viewBox="0 0 28 28" xmlns="http://www.w3.org/2000/svg" xmlns:xlink="http://www.w3.org/1999/xlink" width="28.000000" height="28.000000" fill="none" customFrame="#000000">
	<defs>
		<filter id="pixso_custom_mask_type_alpha">
			<feColorMatrix type="matrix" values="0 0 0 0 1 0 0 0 0 1 0 0 0 0 1 0 0 0 1 0 " />
		</filter>
	</defs>
	<mask id="mask_546" width="28.000000" height="20.000000" x="0.000000" y="4.000000" maskUnits="userSpaceOnUse">
		<g filter="url(#pixso_custom_mask_type_alpha)">
			<rect id="Mask" width="28.000000" height="20.000000" x="0.000000" y="4.000000" rx="3.000000" fill="rgb(255,255,255)" />
			<rect id="Mask" width="27.500000" height="19.500000" x="0.250000" y="4.250000" rx="2.750000" stroke="rgb(245,245,245)" stroke-width="0.5" />
		</g>
	</mask>
	<rect id="Uruguay" width="28.000000" height="28.000000" x="0.000000" y="0.000000" fill="rgb(255,255,255)" fill-opacity="0" />
	<rect id="Mask" width="28.000000" height="20.000000" x="0.000000" y="4.000000" rx="3.000000" fill="rgb(255,255,255)" />
	<rect id="Mask" width="27.500000" height="19.500000" x="0.250000" y="4.250000" rx="2.750000" stroke="rgb(214,216,221)" stroke-width="0.5" />
	<g mask="url(#mask_546)">
		<path id="Combined Shape" d="M28 14.6666L28 12L13.3333 12L13.3333 14.6666L28 14.6666ZM13.3333 17.3333L0 17.3333L0 20L28 20L28 17.3333L13.3333 17.3333L13.3333 17.3333ZM13.3333 9.33329L28 9.33329L28 6.66663L13.3333 6.66663L13.3333 9.33329ZM0 24L0 22.6666L28 22.6666L28 24L0 24Z" fill="rgb(14,77,197)" fill-rule="evenodd" />
		<path id="Combined Shape" d="M28 14.6666L28 12L13.3333 12L13.3333 14.6666L28 14.6666ZM13.3333 17.3333L0 17.3333L0 20L28 20L28 17.3333L13.3333 17.3333L13.3333 17.3333ZM13.3333 9.33329L28 9.33329L28 6.66663L13.3333 6.66663L13.3333 9.33329ZM0 24L0 22.6666L28 22.6666L28 24L0 24Z" fill-rule="evenodd" stroke="rgb(150.96,150.96,150.96)" stroke-opacity="0" stroke-width="0" />
		<path id="Star 28" d="M5.7766 14.65L6.66669 13.3214L7.55677 14.65L7.78223 13.0667L9.16065 13.8776L8.67682 12.3533L10.2706 12.4858L9.17329 11.3224L10.6667 10.7503L9.17329 10.1782L10.2706 9.01476L8.67682 9.14727L9.16065 7.62297L7.78223 8.43385L7.55677 6.85059L6.66669 8.17924L5.7766 6.85059L5.55115 8.43385L4.17273 7.62297L4.65655 9.14727L3.06281 9.01476L4.16009 10.1782L2.66669 10.7503L4.16009 11.3224L3.06281 12.4858L4.65655 12.3533L4.17273 13.8776L5.55115 13.0667L5.7766 14.65ZM6.66669 13.2958C8.0725 13.2958 9.21214 12.1561 9.21214 10.7503C9.21214 9.34448 8.0725 8.20484 6.66669 8.20484C5.26087 8.20484 4.12123 9.34448 4.12123 10.7503C4.12123 12.1561 5.26087 13.2958 6.66669 13.2958ZM8.66669 10.6667C8.66669 11.7713 7.77126 12.6667 6.66669 12.6667C5.56212 12.6667 4.66669 11.7713 4.66669 10.6667C4.66669 9.56215 5.56212 8.66672 6.66669 8.66672C7.77126 8.66672 8.66669 9.56215 8.66669 10.6667Z" fill="rgb(254,212,67)" fill-rule="evenodd" />
		<path id="Star 28" d="M5.7766 14.65L6.66669 13.3214L7.55677 14.65L7.78223 13.0667L9.16065 13.8776L8.67682 12.3533L10.2706 12.4858L9.17329 11.3224L10.6667 10.7503L9.17329 10.1782L10.2706 9.01476L8.67682 9.14727L9.16065 7.62297L7.78223 8.43385L7.55677 6.85059L6.66669 8.17924L5.7766 6.85059L5.55115 8.43385L4.17273 7.62297L4.65655 9.14727L3.06281 9.01476L4.16009 10.1782L2.66669 10.7503L4.16009 11.3224L3.06281 12.4858L4.65655 12.3533L4.17273 13.8776L5.55115 13.0667L5.7766 14.65ZM6.66669 13.2958C8.0725 13.2958 9.21214 12.1561 9.21214 10.7503C9.21214 9.34448 8.0725 8.20484 6.66669 8.20484C5.26087 8.20484 4.12123 9.34448 4.12123 10.7503C4.12123 12.1561 5.26087 13.2958 6.66669 13.2958ZM8.66669 10.6667C8.66669 11.7713 7.77126 12.6667 6.66669 12.6667C5.56212 12.6667 4.66669 11.7713 4.66669 10.6667C4.66669 9.56215 5.56212 8.66672 6.66669 8.66672C7.77126 8.66672 8.66669 9.56215 8.66669 10.6667Z" fill-rule="evenodd" stroke="rgb(150.96,150.96,150.96)" stroke-opacity="0" stroke-width="0" />
	</g>
</svg>
