<svg width="28.000000" height="28.000000" viewBox="0 0 28 28" fill="none" xmlns="http://www.w3.org/2000/svg" xmlns:xlink="http://www.w3.org/1999/xlink">
	<desc>
			Created with Pixso.
	</desc>
	<defs/>
	<rect id="Uruguay" width="28.000000" height="28.000000" fill="#FFFFFF" fill-opacity="0"/>
	<rect id="Mask" y="4.000000" rx="3.000000" width="28.000000" height="20.000000" fill="#FFFFFF" fill-opacity="1.000000"/>
	<rect id="Mask" x="0.250000" y="4.250000" rx="3.000000" width="27.500000" height="19.500000" stroke="#D6D8DD" stroke-opacity="1.000000" stroke-width="0.500000"/>
	<mask id="mask17_4270" mask-type="alpha" maskUnits="userSpaceOnUse" x="0.000000" y="4.000000" width="28.000000" height="20.000000">
		<rect id="Mask" y="4.000000" rx="3.000000" width="28.000000" height="20.000000" fill="#FFFFFF" fill-opacity="1.000000"/>
		<rect id="Mask" x="0.250000" y="4.250000" rx="3.000000" width="27.500000" height="19.500000" stroke="#F5F5F5" stroke-opacity="1.000000" stroke-width="0.500000"/>
	</mask>
	<g mask="url(#mask17_4270)">
		<mask id="mask_17_4271" fill="white">
			<path id="Combined Shape" d="M28 6.66663L13.3333 6.66663L13.3333 9.33329L28 9.33329L28 6.66663ZM13.3333 12L13.3333 14.6666L28 14.6666L28 12L13.3333 12ZM13.3333 17.3333L0 17.3333L0 20L28 20L28 17.3333L13.3333 17.3333ZM0 24L0 22.6666L28 22.6666L28 24L0 24Z" clip-rule="evenodd" fill="" fill-opacity="1.000000" fill-rule="evenodd"/>
		</mask>
		<path id="Combined Shape" d="M28 6.66663L13.3333 6.66663L13.3333 9.33329L28 9.33329L28 6.66663ZM13.3333 12L13.3333 14.6666L28 14.6666L28 12L13.3333 12ZM13.3333 17.3333L0 17.3333L0 20L28 20L28 17.3333L13.3333 17.3333ZM0 24L0 22.6666L28 22.6666L28 24L0 24Z" clip-rule="evenodd" fill="#0E4DC5" fill-opacity="1.000000" fill-rule="evenodd" mask="url(#mask_17_4271)"/>
		<path id="Combined Shape" d="" fill="#979797" fill-opacity="0.000000" fill-rule="nonzero"/>
	</g>
	<g mask="url(#mask17_4270)">
		<mask id="mask_17_4278" fill="white">
			<path id="Star 28" d="M6.66669 13.3214L5.77661 14.65L5.55115 13.0667L4.17273 13.8776L4.65656 12.3533L3.06281 12.4858L4.1601 11.3224L2.66669 10.7503L4.1601 10.1782L3.06281 9.01476L4.65656 9.14727L4.17273 7.62297L5.55115 8.43385L5.77661 6.85059L6.66669 8.17924L7.55676 6.85059L7.78223 8.43385L9.16064 7.62297L8.67682 9.14727L10.2706 9.01476L9.17328 10.1782L10.6667 10.7503L9.17328 11.3224L10.2706 12.4858L8.67682 12.3533L9.16064 13.8776L7.78223 13.0667L7.55676 14.65L6.66669 13.3214ZM9.21216 10.7503C9.21216 12.1561 8.07251 13.2958 6.66669 13.2958C5.26086 13.2958 4.12122 12.1561 4.12122 10.7503C4.12122 9.34448 5.26086 8.20484 6.66669 8.20484C8.07251 8.20484 9.21216 9.34448 9.21216 10.7503ZM8.66669 10.6667C8.66669 11.7713 7.77124 12.6667 6.66669 12.6667C5.56213 12.6667 4.66669 11.7713 4.66669 10.6667C4.66669 9.56215 5.56213 8.66673 6.66669 8.66673C7.77124 8.66673 8.66669 9.56215 8.66669 10.6667Z" clip-rule="evenodd" fill="" fill-opacity="1.000000" fill-rule="evenodd"/>
		</mask>
		<path id="Star 28" d="M6.66669 13.3214L5.77661 14.65L5.55115 13.0667L4.17273 13.8776L4.65656 12.3533L3.06281 12.4858L4.1601 11.3224L2.66669 10.7503L4.1601 10.1782L3.06281 9.01476L4.65656 9.14727L4.17273 7.62297L5.55115 8.43385L5.77661 6.85059L6.66669 8.17924L7.55676 6.85059L7.78223 8.43385L9.16064 7.62297L8.67682 9.14727L10.2706 9.01476L9.17328 10.1782L10.6667 10.7503L9.17328 11.3224L10.2706 12.4858L8.67682 12.3533L9.16064 13.8776L7.78223 13.0667L7.55676 14.65L6.66669 13.3214ZM9.21216 10.7503C9.21216 12.1561 8.07251 13.2958 6.66669 13.2958C5.26086 13.2958 4.12122 12.1561 4.12122 10.7503C4.12122 9.34448 5.26086 8.20484 6.66669 8.20484C8.07251 8.20484 9.21216 9.34448 9.21216 10.7503ZM8.66669 10.6667C8.66669 11.7713 7.77124 12.6667 6.66669 12.6667C5.56213 12.6667 4.66669 11.7713 4.66669 10.6667C4.66669 9.56215 5.56213 8.66673 6.66669 8.66673C7.77124 8.66673 8.66669 9.56215 8.66669 10.6667Z" clip-rule="evenodd" fill="#FED443" fill-opacity="1.000000" fill-rule="evenodd" mask="url(#mask_17_4278)"/>
		<path id="Star 28" d="" fill="#979797" fill-opacity="0.000000" fill-rule="nonzero"/>
	</g>
</svg>
