<svg width="28" height="28" viewBox="0 0 28 28" fill="none" xmlns="http://www.w3.org/2000/svg">
<rect x="0.25" y="4.25" width="27.5" height="19.5" rx="2.75" fill="white" stroke="#D6D8DD" stroke-width="0.5"/>
<mask id="mask0_17_4238" style="mask-type:luminance" maskUnits="userSpaceOnUse" x="0" y="4" width="28" height="20">
<rect x="0.25" y="4.25" width="27.5" height="19.5" rx="2.75" fill="white" stroke="white" stroke-width="0.5"/>
</mask>
<g mask="url(#mask0_17_4238)">
<path fill-rule="evenodd" clip-rule="evenodd" d="M0 10.6667H28V4H0V10.6667Z" fill="#04AAC8"/>
<path fill-rule="evenodd" clip-rule="evenodd" d="M0 24H28V17.3333H0V24Z" fill="#23C840"/>
<path fill-rule="evenodd" clip-rule="evenodd" d="M4.66666 9.33334C5.07794 9.33334 5.46022 9.2092 5.77808 8.99634C5.74125 8.99878 5.7041 9.00001 5.66666 9.00001C4.74618 9.00001 3.99999 8.25382 3.99999 7.33334C3.99999 6.41287 4.74618 5.66668 5.66666 5.66668C5.7041 5.66668 5.74125 5.66791 5.77808 5.67034C5.46022 5.45749 5.07794 5.33334 4.66666 5.33334C3.56209 5.33334 2.66666 6.22877 2.66666 7.33334C2.66666 8.43791 3.56209 9.33334 4.66666 9.33334ZM7.99999 8.66668C7.99999 9.03487 7.70151 9.33334 7.33332 9.33334C6.96513 9.33334 6.66666 9.03487 6.66666 8.66668C6.66666 8.29849 6.96513 8.00001 7.33332 8.00001C7.70151 8.00001 7.99999 8.29849 7.99999 8.66668ZM9.99999 6.66668C10.3682 6.66668 10.6667 6.3682 10.6667 6.00001C10.6667 5.63182 10.3682 5.33334 9.99999 5.33334C9.6318 5.33334 9.33332 5.63182 9.33332 6.00001C9.33332 6.3682 9.6318 6.66668 9.99999 6.66668ZM13.3333 6.00001C13.3333 6.3682 13.0348 6.66668 12.6667 6.66668C12.2985 6.66668 12 6.3682 12 6.00001C12 5.63182 12.2985 5.33334 12.6667 5.33334C13.0348 5.33334 13.3333 5.63182 13.3333 6.00001ZM12.6667 9.33334C13.0348 9.33334 13.3333 9.03487 13.3333 8.66668C13.3333 8.29849 13.0348 8.00001 12.6667 8.00001C12.2985 8.00001 12 8.29849 12 8.66668C12 9.03487 12.2985 9.33334 12.6667 9.33334ZM10.6667 8.66668C10.6667 9.03487 10.3682 9.33334 9.99999 9.33334C9.6318 9.33334 9.33332 9.03487 9.33332 8.66668C9.33332 8.29849 9.6318 8.00001 9.99999 8.00001C10.3682 8.00001 10.6667 8.29849 10.6667 8.66668Z" fill="white"/>
</g>
</svg>
