<svg viewBox="0 0 28 28" xmlns="http://www.w3.org/2000/svg" xmlns:xlink="http://www.w3.org/1999/xlink" width="28.000000" height="28.000000" fill="none" customFrame="#000000">
	<defs>
		<filter id="pixso_custom_mask_type_alpha">
			<feColorMatrix type="matrix" values="0 0 0 0 1 0 0 0 0 1 0 0 0 0 1 0 0 0 1 0 " />
		</filter>
		<g id="pixso_custom_effect_50">
			<effect x="0.000000" y="0.000000" visibility="visible" fill="rgb(0,0,0)" fill-opacity="0.0599999987" effectType="dropShadow" showShadowBehind="1" stdDeviation="0" radius="0" />
			<effect x="0.000000" y="1.000000" visibility="hidden" fill="rgb(255,216.88,100.278)" fill-opacity="1" effectType="innerShadow" showShadowBehind="1" stdDeviation="0" radius="0" />
		</g>
		<filter id="filter_50" width="28.000000" height="8.000000" x="0.000000" y="16.000000" filterUnits="userSpaceOnUse" customEffect="url(#pixso_custom_effect_50)" color-interpolation-filters="sRGB">
			<feFlood flood-opacity="0" result="BackgroundImageFix" />
			<feOffset dx="0.000000" dy="0.000000" in="SourceAlpha" />
			<feColorMatrix type="matrix" values="0 0 0 0 0 0 0 0 0 0 0 0 0 0 0 0 0 0 0.06 0 " />
			<feBlend result="effect_dropShadow_1" in2="BackgroundImageFix" mode="normal" />
			<feBlend result="shape" in="SourceGraphic" in2="effect_dropShadow_1" mode="normal" />
		</filter>
		<g id="pixso_custom_effect_51">
			<effect x="0.000000" y="0.000000" visibility="visible" fill="rgb(0,0,0)" fill-opacity="0.0599999987" effectType="dropShadow" showShadowBehind="1" stdDeviation="0" radius="0" />
			<effect x="0.000000" y="1.000000" visibility="hidden" fill="rgb(255,216.88,100.278)" fill-opacity="1" effectType="innerShadow" showShadowBehind="1" stdDeviation="0" radius="0" />
		</g>
		<filter id="filter_51" width="28.000000" height="8.000000" x="0.000000" y="4.000000" filterUnits="userSpaceOnUse" customEffect="url(#pixso_custom_effect_51)" color-interpolation-filters="sRGB">
			<feFlood flood-opacity="0" result="BackgroundImageFix" />
			<feOffset dx="0.000000" dy="0.000000" in="SourceAlpha" />
			<feColorMatrix type="matrix" values="0 0 0 0 0 0 0 0 0 0 0 0 0 0 0 0 0 0 0.06 0 " />
			<feBlend result="effect_dropShadow_1" in2="BackgroundImageFix" mode="normal" />
			<feBlend result="shape" in="SourceGraphic" in2="effect_dropShadow_1" mode="normal" />
		</filter>
	</defs>
	<mask id="mask_552" width="28.000000" height="20.000000" x="0.000000" y="4.000000" maskUnits="userSpaceOnUse">
		<g filter="url(#pixso_custom_mask_type_alpha)">
			<rect id="Mask" width="28.000000" height="20.000000" x="0.000000" y="4.000000" rx="3.000000" fill="rgb(255,255,255)" />
			<rect id="Mask" width="28.000000" height="20.000000" x="0.000000" y="4.000000" rx="3.000000" stroke="rgb(150.96,150.96,150.96)" stroke-opacity="0" stroke-width="0" />
		</g>
	</mask>
	<rect id="Vanuatu" width="28.000000" height="28.000000" x="0.000000" y="0.000000" fill="rgb(255,255,255)" fill-opacity="0" />
	<rect id="Mask" width="28.000000" height="20.000000" x="0.000000" y="4.000000" rx="3.000000" fill="rgb(255,255,255)" />
	<rect id="Mask" width="28.000000" height="20.000000" x="0.000000" y="4.000000" rx="3.000000" stroke="rgb(150.96,150.96,150.96)" stroke-opacity="0" stroke-width="0" />
	<g mask="url(#mask_552)">
		<g filter="url(#filter_50)">
			<path id="Rectangle 2" d="M0 24L28 24L28 16L0 16L0 24Z" fill="rgb(0,149,67)" fill-rule="evenodd" />
			<path id="Rectangle 2" d="M28 24L28 16L0 16L0 24L28 24Z" fill-rule="evenodd" stroke="rgb(150.96,150.96,150.96)" stroke-opacity="0" stroke-width="0" />
		</g>
		<g filter="url(#filter_51)">
			<path id="Rectangle 2" d="M0 12L28 12L28 4L0 4L0 12Z" fill="rgb(210,16,52)" fill-rule="evenodd" />
			<path id="Rectangle 2" d="M28 12L28 4L0 4L0 12L28 12Z" fill-rule="evenodd" stroke="rgb(150.96,150.96,150.96)" stroke-opacity="0" stroke-width="0" />
		</g>
		<path id="Rectangle 2" d="M0 16L28 16L28 12L0 12L0 16Z" fill="rgb(38,38,38)" fill-rule="evenodd" />
		<path id="Rectangle 2" d="M28 16L28 12L0 12L0 16L28 16Z" fill-rule="evenodd" stroke="rgb(150.96,150.96,150.96)" stroke-opacity="0" stroke-width="0" />
		<path id="Rectangle 83" d="M0 4L13.3333 14L0 24L0 4Z" fill="rgb(38,38,38)" fill-rule="evenodd" />
		<path id="Rectangle 83" d="M13.3333 14L0 24L0 4L13.3333 14Z" fill-rule="evenodd" stroke="rgb(150.96,150.96,150.96)" stroke-opacity="0" stroke-width="0" />
		<path id="Rectangle 83" d="M-1.33334 5.33337L10.6667 14L-1.33334 22.6667L-1.33334 5.33337Z" fill="rgb(253,206,18)" fill-opacity="0" fill-rule="evenodd" />
		<path id="Rectangle 83" d="M9.52801 13.1777L10.6667 14L9.52801 14.8224L-1.01328e-05 21.7037L-1.33334 22.6667L-1.33334 5.33337L-1.01328e-05 6.29634L9.52801 13.1777ZM-1.01328e-05 7.94105L8.38936 14L-1.01328e-05 20.059L-1.01328e-05 7.94105Z" fill="rgb(253,206,18)" fill-rule="evenodd" />
		<path id="Rectangle 2" d="M9.33334 14.6667L28 14.6667L28 13.3334L9.33334 13.3334L9.33334 14.6667Z" fill="rgb(253,206,18)" fill-rule="evenodd" />
		<path id="Rectangle 2" d="M28 14.6667L28 13.3334L9.33334 13.3334L9.33334 14.6667L28 14.6667Z" fill-rule="evenodd" stroke="rgb(150.96,150.96,150.96)" stroke-opacity="0" stroke-width="0" />
	</g>
</svg>
