<svg viewBox="0 0 28 28" xmlns="http://www.w3.org/2000/svg" xmlns:xlink="http://www.w3.org/1999/xlink" width="28.000000" height="28.000000" fill="none">
	<rect id="Virgin Islands of the United States" width="28.000000" height="28.000000" x="0.000000" y="0.000000" fill="rgb(255,255,255)" fill-opacity="0" transform="matrix(-1,-6.12324e-17,6.12324e-17,-1,28,28)" />
	<path id="Vector" d="M23.3333 0L0 0L0 23.3333L23.3333 23.3333L23.3333 0Z" opacity="0" fill="rgb(96,96,96)" fill-rule="evenodd" transform="matrix(-1,-6.12324e-17,6.12324e-17,-1,25.6667,25.6666)" />
	<rect id="Mask Copy" width="28.000000" height="20.000000" x="0.000000" y="4.000000" rx="3.000000" fill="rgb(255,255,255)" />
	<rect id="Mask Copy" width="27.500000" height="19.500000" x="0.250000" y="4.250000" rx="2.750000" stroke="rgb(245,245,245)" stroke-width="0.5" />
	<g id="Flag_of_the_United_States_Virgin_Islands 2">
		<path id="Vector" d="M9.03259 17.457C9.03259 17.457 9.01121 17.3124 9.28583 17.2064C9.56045 17.1003 9.5818 16.7051 9.52687 16.4416C9.52687 16.4416 9.38347 16.6922 9.20956 16.7758C9.20956 16.7758 8.9258 16.9236 8.91281 17.2059C8.91281 17.2059 8.91055 17.3092 8.88918 17.3895C8.8775 17.4335 8.75188 17.036 8.98987 16.7404C9.23546 16.4353 9.30414 16.1877 9.10885 15.7057C9.10885 15.7057 9.09055 15.9981 8.89832 16.1652C8.7061 16.3323 8.68165 16.3452 8.68473 16.7436C8.68473 16.7436 8.6878 16.8818 8.61456 16.9268C8.61456 16.9268 8.46506 16.7083 8.42538 16.5637C8.38573 16.4191 8.36742 16.358 8.53827 16.1909C8.53827 16.1909 9.08567 15.8372 8.69084 15.063C8.69084 15.063 8.67863 15.3297 8.48945 15.4872C8.30027 15.6446 8.31554 15.7507 8.30637 16.0238C8.29721 16.297 8.2789 16.2777 8.25755 16.3162C8.25755 16.3162 7.90972 15.6768 8.17822 15.3362C8.44671 14.9955 8.59624 14.9248 8.30027 14.2918C8.30027 14.2918 8.31341 14.6164 8.07648 14.7771C7.83955 14.9377 7.89448 15.3137 7.89448 15.3137C7.89448 15.3137 7.90972 15.4551 7.86092 15.5579C7.86092 15.5579 7.52576 14.9042 7.84568 14.5521C8.11723 14.2533 8.13554 14.0444 7.98908 13.6202C7.98908 13.6202 7.97077 13.8163 7.82127 13.9223C7.67176 14.0283 7.55277 14.1344 7.58022 14.5424C7.58022 14.5424 7.59243 14.8284 7.55581 14.9088C7.55581 14.9088 7.41545 14.6485 7.3758 14.4782C7.33614 14.3079 7.32087 14.2083 7.42462 14.0379C7.52836 13.8676 7.94028 13.3792 7.44903 12.6755C7.44903 12.6755 7.43378 12.9036 7.30867 13.1093C7.18357 13.3149 7.24154 13.5592 7.26901 13.7455C7.29648 13.9319 7.20494 14.1118 7.20494 14.1118C7.20494 14.1118 6.99135 13.7198 7.03713 13.27C7.08289 12.8201 6.89983 12.4506 6.48486 12.1838C6.48486 12.1838 6.18279 12.8844 6.5947 13.241C6.5947 13.241 6.94559 13.5881 7.03407 14.009C7.03407 14.009 6.76862 13.9833 6.52757 13.5142C6.28653 13.045 5.78614 13.1189 5.75256 13.1157C5.75256 13.1157 5.83496 13.8419 6.60385 14.0476C6.60385 14.0476 7.0951 14.1312 7.18664 14.4911C7.18664 14.4911 7.26901 14.7385 7.30259 14.8702C7.30259 14.8702 7.14698 14.8092 7.00356 14.5971C6.86016 14.385 6.87846 14.3593 6.39332 14.3111C6.39332 14.3111 6.19803 14.2886 6.09429 14.1504C6.09429 14.1504 6.29872 14.9184 6.82352 14.912C6.82352 14.912 7.30257 14.8606 7.57106 15.4904C7.57106 15.4904 7.5192 15.4583 7.44901 15.4101C7.37884 15.3619 7.20186 15.2719 6.85097 15.3137C6.50008 15.3554 6.40244 15.2976 6.31396 15.2687C6.31396 15.2687 6.66789 15.9177 7.16831 15.7249C7.6687 15.5321 7.91039 16.2352 7.91585 16.2487C7.91585 16.2487 7.84872 16.1973 7.76024 16.1105C7.67176 16.0238 7.48806 15.9168 7.14084 16.027C7.14084 16.027 6.89065 16.1234 6.63738 16.0463C6.63738 16.0463 6.88148 16.5186 7.45205 16.4383C8.02261 16.3579 8.16603 16.8592 8.16603 16.8592C8.16603 16.8592 8.08976 16.8143 8.03788 16.7725C7.98602 16.7307 7.79377 16.6215 7.38188 16.7436C6.96996 16.8657 6.82046 16.7243 6.82046 16.7243C6.82046 16.7243 7.0493 17.142 7.48866 17.1902C7.48866 17.1902 7.73277 17.187 7.83649 17.1484C7.94024 17.1099 8.21483 17.0488 8.40402 17.322C8.40402 17.322 8.35215 17.3316 8.27282 17.2963C8.27282 17.2963 7.97991 17.1902 7.75716 17.3766C7.75716 17.3766 7.55883 17.579 7.27811 17.5405C7.27811 17.5405 7.64121 17.8939 8.21787 17.5951C8.21787 17.5951 8.41316 17.4537 8.55656 17.563C8.7 17.6723 9.03259 17.457 9.03259 17.457Z" fill="rgb(54,148,67)" fill-rule="nonzero" />
		<path id="Union" d="M15.6045 10.2298C15.5333 10.3219 15.2485 10.3541 15.2485 10.3541C15.2485 10.3541 15.5414 10.579 15.6676 10.9003C15.7937 11.2217 12.2726 10.9025 12.2726 10.9025C12.2726 10.9025 12.4252 10.7932 12.5289 10.5875C12.5289 10.5875 12.3733 10.6454 12.2177 10.4911C12.2177 10.4911 12.3336 10.5297 12.4862 10.2983C12.4862 10.2983 12.7084 10.0137 12.8668 9.9339C12.8498 9.94134 12.7744 9.96447 12.6204 9.88061C12.6204 9.88061 12.9256 9.84205 13.0354 9.32149C13.0354 9.32149 13.0537 9.20581 13.1696 9.03872C13.199 8.99644 13.2193 8.97761 13.2368 8.96891C13.2372 8.85295 13.2052 8.55929 12.8712 8.55171C12.8316 8.55081 12.7981 8.55615 12.7629 8.56176L12.7629 8.56176C12.7044 8.5711 12.6411 8.58119 12.5369 8.56466C12.407 8.54402 12.3238 8.64998 12.2756 8.71148C12.2615 8.72938 12.2504 8.74351 12.242 8.74966C12.242 8.74966 12.175 8.15164 12.6529 8.09414C12.7502 8.08243 12.8378 8.077 12.9159 8.07586C12.919 8.05594 12.9249 8.03429 12.9337 8.01044C12.9812 7.88216 13.0877 7.86919 13.1432 7.86977C13.1439 7.86784 13.1445 7.86617 13.145 7.86477L13.1464 7.86106L13.1468 7.86001L13.1469 7.8597L13.1469 7.85959L13.147 7.85955L13.1758 7.87111L13.176 7.8712C13.1822 7.87093 13.1876 7.8597 13.1964 7.84151C13.2194 7.79425 13.2651 7.70004 13.4056 7.62912C13.6009 7.53057 14.1196 7.57341 14.1969 7.61627C14.2063 7.62147 14.2191 7.6274 14.2348 7.63462C14.3483 7.68693 14.6097 7.80738 14.7705 8.21396C14.8369 8.38185 14.8487 8.51167 14.8606 8.64231C14.8815 8.8717 14.9025 9.1036 15.2201 9.54857C15.2201 9.54857 15.0207 9.59141 14.8926 9.55285C14.8926 9.55285 15.1509 10.0113 15.6045 10.2298Z" fill="rgb(244,197,61)" fill-rule="evenodd" />
		<path id="Union" d="M17.4655 14.1093C17.1482 14.4178 16.7698 14.1093 16.7698 14.1093L16.8589 13.484C16.3558 13.2123 16.7522 11.2886 16.7522 11.2886C16.7522 11.2886 16.9933 11.1076 17.4234 11.3208C17.4234 11.3208 17.5682 11.4205 17.6822 11.3112C17.7773 11.2199 17.7863 11.0516 17.6553 10.9544C17.335 10.7166 17.216 10.0033 17.7042 9.70766C17.7042 9.70766 18.4099 9.28907 20.9958 8.63026L20.9965 8.62927C20.9997 8.62872 21.003 8.62817 21.0062 8.6276L21.0078 8.62721C21.0078 8.62721 21.0991 8.60189 21.1949 8.59194C22.1454 8.39859 23.7407 7.8963 23.7407 7.8963C23.9454 7.83964 24.1406 7.76335 24.3185 7.69381C24.7309 7.53256 25.0504 7.40765 25.181 7.6483C25.3763 8.00819 24.9288 8.23527 24.9288 8.23527C25.0996 8.72369 24.5585 8.89936 24.5585 8.89936C24.827 9.40921 23.6696 9.72617 23.6696 9.72617C23.7713 9.96181 23.574 10.1376 23.574 10.1376C23.2323 10.4461 22.5397 10.5923 22.5397 10.5923C22.558 10.6196 22.5692 10.6603 22.5692 10.6603C22.6221 10.8145 22.5163 10.9302 22.5163 10.9302C22.2967 11.1812 21.5358 11.2987 21.5358 11.2987C21.6091 11.303 21.6131 11.3758 21.6131 11.3758C21.6375 11.5043 21.5643 11.5772 21.5643 11.5772C21.3975 11.8428 20.7303 11.9499 20.7303 11.9499C20.8808 12.117 20.6286 12.2755 20.6286 12.2755C20.3245 12.5076 19.5831 12.5112 19.5831 12.5112C19.5831 12.5112 19.7661 12.644 19.6848 12.9011C19.5891 13.2032 19.2373 13.111 19.2373 13.111C19.3268 13.1367 19.4285 13.3552 19.2617 13.5758C19.0949 13.7964 18.7694 13.7322 18.7694 13.7322C18.7694 13.7322 18.7694 13.8865 18.5822 13.9886C18.3951 14.0908 18.1734 13.9614 18.1734 13.9614C18.149 14.0386 18.1063 14.1735 17.85 14.2185C17.5937 14.2635 17.4655 14.1093 17.4655 14.1093Z" fill="rgb(244,197,61)" fill-rule="evenodd" />
		<path id="Union" d="M21.2072 14.7496L21.6395 12.7927L20.2928 14.2157L20.6816 14.3178L19.4338 16.6962L19.8206 15.0266L20.1752 15.2322L20.1118 13.2243L19.1607 14.9659L19.5614 14.9585L18.9868 17.3998L19.2303 17.5747L19.2567 17.4607L19.3296 17.5033L20.9153 14.4542L21.2072 14.7496ZM22.405 14.1179L21.5659 15.9221L21.3445 15.5652L19.5728 17.6587L19.381 17.4439L21.146 15.377L20.7889 15.1854L22.405 14.1179Z" fill="rgb(0,129,198)" fill-rule="evenodd" />
		<path id="Union" d="M10.5309 14.1093C10.8482 14.4178 11.2265 14.1093 11.2265 14.1093L11.1375 13.4841C11.6408 13.2129 11.2444 11.2886 11.2444 11.2886C11.2444 11.2886 11.0033 11.1076 10.5731 11.3208C10.5731 11.3208 10.4283 11.4205 10.3144 11.3112C10.2192 11.2199 10.2103 11.0516 10.3413 10.9544C10.6616 10.7166 10.7806 10.0033 10.2924 9.70766C10.2924 9.70766 9.58667 9.28904 7.00049 8.63018L6.99989 8.62927C6.9969 8.62877 6.9939 8.62825 6.99089 8.62774L6.98883 8.62721C6.98883 8.62721 6.89721 8.60181 6.8012 8.59188C5.8507 8.3985 4.25565 7.8963 4.25565 7.8963C4.05091 7.83965 3.85576 7.76335 3.67789 7.69381C3.26544 7.53256 2.94593 7.40765 2.81535 7.6483C2.62007 8.00819 3.06759 8.23527 3.06759 8.23527C2.89672 8.72369 3.4378 8.89936 3.4378 8.89936C3.16929 9.40921 4.32676 9.72617 4.32676 9.72617C4.22506 9.96181 4.42233 10.1376 4.42233 10.1376C4.76407 10.4461 5.45669 10.5923 5.45669 10.5923C5.43838 10.6196 5.42719 10.6603 5.42719 10.6603C5.37431 10.8145 5.48009 10.9302 5.48009 10.9302C5.69968 11.1812 6.46054 11.2987 6.46054 11.2987C6.38733 11.303 6.38325 11.3758 6.38325 11.3758C6.35884 11.5043 6.43207 11.5772 6.43207 11.5772C6.59887 11.8428 7.26606 11.9499 7.26606 11.9499C7.11552 12.117 7.36776 12.2755 7.36776 12.2755C7.67188 12.5076 8.41331 12.5112 8.41331 12.5112C8.41331 12.5112 8.23023 12.644 8.3116 12.9011C8.40723 13.2032 8.75912 13.111 8.75912 13.111C8.6696 13.1367 8.56791 13.3552 8.7347 13.5758C8.9015 13.7964 9.22697 13.7322 9.22697 13.7322C9.22697 13.7322 9.22697 13.8865 9.41412 13.9886C9.60125 14.0908 9.82297 13.9615 9.82297 13.9615C9.84738 14.0386 9.89012 14.1735 10.1464 14.2185C10.4027 14.2635 10.5309 14.1093 10.5309 14.1093Z" fill="rgb(244,197,61)" fill-rule="evenodd" />
		<path id="Union" d="M10.5808 15.2701C11.1985 14.7437 11.2764 14.3254 11.2764 14.3254C11.2764 14.3254 12.3417 15.6049 12.3539 15.8435C12.3661 16.0821 11.882 16.2647 11.882 16.2647C11.4548 16.496 11.3857 16.7574 11.3857 16.7574C11.2799 17.1516 11.0073 17.2073 11.0073 17.2073C10.8568 17.2544 10.8283 17.3615 10.8283 17.3615C10.8148 17.32 10.8059 17.278 10.8006 17.2367C10.6206 17.2884 10.2727 17.4662 10.1734 17.5233C10.0487 17.5952 9.88054 17.6519 9.79103 17.7119C9.72438 17.7565 9.65677 17.7504 9.58354 18.1232C9.51031 18.4959 9.35572 18.4617 8.98143 18.5688C8.60714 18.6759 8.59494 18.4531 8.59494 18.4531C8.38339 18.5088 8.35491 18.2946 8.35491 18.2946C8.31829 18.2817 8.16372 18.2174 8.2166 17.9175C8.26947 17.6176 8.39885 17.5208 8.52578 17.4034C8.70783 17.235 9.35164 17.3134 9.35164 17.3134C9.61405 17.3074 9.84446 17.0445 9.95876 16.8878C9.89026 16.8938 9.8438 16.8902 9.8438 16.8902C9.85465 16.8805 9.86519 16.8712 9.87543 16.8622C10.0419 16.7152 10.1281 16.6391 10.1164 16.1747C10.1042 15.6906 10.5808 15.2701 10.5808 15.2701Z" fill="rgb(244,197,61)" fill-rule="evenodd" />
		<path id="Union" d="M17.4168 15.2701C16.7991 14.7437 16.7212 14.3254 16.7212 14.3254C16.7212 14.3254 15.6559 15.6049 15.6437 15.8435C15.6315 16.0821 16.1156 16.2647 16.1156 16.2647C16.5427 16.496 16.6119 16.7574 16.6119 16.7574C16.7177 17.1516 16.9903 17.2073 16.9903 17.2073C17.1408 17.2544 17.1693 17.3615 17.1693 17.3615C17.1828 17.32 17.1917 17.278 17.197 17.2367C17.377 17.2885 17.7248 17.4662 17.8241 17.5233C17.9488 17.5952 18.117 17.6519 18.2065 17.7119C18.2731 17.7565 18.3408 17.7504 18.414 18.1232C18.4872 18.4959 18.6418 18.4617 19.0161 18.5688C19.3904 18.6759 19.4026 18.4531 19.4026 18.4531C19.6141 18.5088 19.6426 18.2946 19.6426 18.2946C19.6792 18.2817 19.8338 18.2174 19.7809 17.9175C19.7281 17.6176 19.5987 17.5208 19.4718 17.4034C19.2897 17.235 18.6459 17.3134 18.6459 17.3134C18.3835 17.3074 18.1531 17.0445 18.0388 16.8878C18.1073 16.8938 18.1538 16.8902 18.1538 16.8902C18.1429 16.8805 18.1324 16.8712 18.1222 16.8622C17.9557 16.7152 17.8695 16.6391 17.8812 16.1747C17.8934 15.6906 17.4168 15.2701 17.4168 15.2701Z" fill="rgb(244,197,61)" fill-rule="evenodd" />
		<path id="Vector" d="M15.2257 19.6884C15.2257 19.6884 15.185 18.8272 14.4387 17.5932M15.6936 19.3713C15.6936 19.3713 15.8095 18.8743 14.7579 17.4048C14.7579 17.4048 14.8799 17.0534 14.5056 16.8285M16.0556 18.96C16.0556 18.96 16.0882 18.4223 15.0589 17.1948C15.0589 17.1948 15.1499 16.8778 14.7769 16.625M16.3567 18.5787C16.3567 18.5787 16.3181 18.0346 15.3111 16.972C15.3111 16.972 15.3615 16.6464 15.0007 16.445M16.7269 18.2616C16.7269 18.2616 16.6537 17.6404 15.5919 16.6978C15.5919 16.6978 15.6285 16.4536 15.2745 16.2051" fill-rule="nonzero" stroke="rgb(1,0,2)" stroke-width="0.172176018" />
		<path id="Vector" d="M12.7714 19.6884C12.7714 19.6884 12.812 18.8272 13.5584 17.5932M12.3035 19.3713C12.3035 19.3713 12.1875 18.8743 13.2392 17.4047C13.2392 17.4047 13.1172 17.0534 13.4914 16.8285" fill-rule="nonzero" stroke="rgb(1,0,2)" stroke-width="0.172176018" />
		<path id="Vector" d="M11.9416 18.9593C11.9416 18.9593 11.9091 18.4216 12.9384 17.1941C12.9384 17.1941 12.8475 16.8771 13.2204 16.6243M11.6406 18.578C11.6406 18.578 11.6792 18.0339 12.6861 16.9713C12.6861 16.9713 12.6358 16.6457 12.9966 16.4443" fill-rule="nonzero" stroke="rgb(1,0,2)" stroke-width="0.172176018" />
		<path id="Union" d="M15.825 16.5052C15.8308 16.4108 15.7757 16.2707 15.5921 16.0628C15.1458 15.5573 14.4349 16.6244 14.2319 16.9554C14.1691 16.8762 14.0876 16.8284 13.9987 16.8284C13.9097 16.8284 13.8282 16.8762 13.7654 16.9554C13.5624 16.6245 12.8515 15.5573 12.4052 16.0628C12.2215 16.2708 12.1664 16.411 12.1723 16.5054C10.416 18.12 11.2703 18.2617 11.2703 18.2617C11.2703 18.6773 11.6405 18.5788 11.6405 18.5788C11.5998 19.0201 11.9416 18.9601 11.9416 18.9601C11.9375 19.4571 12.3037 19.3714 12.3037 19.3714C12.3688 19.9027 12.7715 19.6885 12.7715 19.6885C12.7512 20.1426 13.0238 20.1683 13.0238 20.1683C13.342 20.2009 13.4731 19.873 13.5091 19.7577C13.5109 19.8347 13.5145 19.9092 13.52 19.9803C13.5478 20.3361 13.7384 20.6267 13.9987 20.6267C14.259 20.6267 14.4496 20.3361 14.4774 19.9803C14.4829 19.9092 14.4865 19.8347 14.4883 19.7576C14.5244 19.873 14.6554 20.201 14.9737 20.1683C14.9737 20.1683 15.2463 20.1426 15.2259 19.6885C15.2259 19.6885 15.6287 19.9027 15.6938 19.3714C15.6938 19.3714 16.0599 19.4571 16.0559 18.9601C16.0559 18.9601 16.3976 19.0201 16.3569 18.5788C16.3569 18.5788 16.7271 18.6773 16.7271 18.2617C16.7271 18.2617 17.5816 18.12 15.825 16.5052Z" fill="rgb(244,197,61)" fill-rule="evenodd" />
		<path id="Vector" d="M13.9994 17.244C13.9994 17.244 17.054 15.8904 17.0616 12.759L10.9371 12.759C10.9447 15.8904 13.9994 17.244 13.9994 17.244Z" fill="rgb(255,255,255)" fill-rule="nonzero" />
		<path id="Vector" d="M12.3498 12.759L12.8209 12.759M11.4076 12.759L11.8787 12.759M13.292 12.759L13.7631 12.759" stroke="rgb(1,0,2)" stroke-width="0.172176018" />
		<path id="Vector" d="M11.4076 12.759L11.4076 14.7598C11.4076 14.7598 11.6415 15.2239 11.8787 15.5149L11.8787 12.759L11.4076 12.759ZM12.3498 12.759L12.3498 16.0572C12.3498 16.0572 12.6444 16.3461 12.8209 16.4854L12.8209 12.759L12.3498 12.759ZM13.292 12.759L13.292 16.8359C13.292 16.8359 13.6281 17.053 13.7632 17.1242L13.7632 12.759L13.292 12.759Z" fill="rgb(166,0,50)" fill-rule="nonzero" />
		<path id="Vector" d="" stroke="rgb(1,0,2)" stroke-width="0.172176018" />
		<path id="Vector" d="M16.5897 12.759L16.5897 14.7598C16.5897 14.7598 16.3557 15.2239 16.1186 15.5149L16.1186 12.759L16.5897 12.759ZM15.6474 12.759L15.6474 16.0572C15.6474 16.0572 15.3528 16.3461 15.1763 16.4854L15.1763 12.759L15.6474 12.759ZM14.7052 12.759L14.7052 16.8359C14.7052 16.8359 14.3691 17.053 14.2341 17.1242L14.2341 12.759L14.7052 12.759Z" fill="rgb(166,0,50)" fill-rule="nonzero" />
		<path id="Vector" d="M17.2252 20.2735L16.9415 20.6206M16.5897 20.235L17.3717 20.9579" fill-rule="nonzero" />
		<path id="Union" d="M17.7818 20.4396L17.669 20.916L18.2747 20.6333L18.6835 21.1823L19.143 19.2411L18.9789 19.0776L19.0466 18.949L18.8799 18.6636L18.9367 18.4315C18.936 18.431 18.9353 18.4305 18.9346 18.4299L19.0853 18.2385C19.0886 18.1895 19.0706 18.1471 19.0453 18.1123L19.0461 18.1108C18.9634 17.9784 18.7994 17.9785 18.7988 17.9785L18.5729 18.4166L18.1321 18.4152L17.9462 18.7685L17.8285 18.7394L16.5573 20.2262L17.2181 20.2761L17.3343 20.963L17.7818 20.4396Z" fill="rgb(0,129,198)" fill-rule="evenodd" />
		<path id="Vector" d="M8.96899 18.3461C8.96899 18.3461 8.95985 18.0858 9.28935 18.0665L10.2596 19.4161C10.2596 19.4161 10.223 19.5028 9.78362 19.4932C9.78362 19.4932 9.73709 19.4929 9.71268 19.5443C9.6752 19.6232 8.96899 18.3461 8.96899 18.3461Z" fill="rgb(54,148,67)" fill-rule="nonzero" />
		<path id="Vector" d="M17.0616 10.485C17.0616 10.485 15.5627 11.2691 13.9994 10.4208C12.436 11.2691 10.9371 10.485 10.9371 10.485L10.9371 12.7601L17.0616 12.7601L17.0616 10.485Z" fill="rgb(22,38,103)" fill-rule="nonzero" />
		<path id="Vector" d="M3.30989 16.3843C3.45832 16.3237 3.56521 16.2653 3.56475 16.1069C3.56465 16.0691 3.54367 15.9856 3.50155 15.8563L2.50492 12.8104C2.4459 12.6294 2.40128 12.5218 2.3806 12.4822C2.33579 12.3964 2.24785 12.3615 2.12939 12.3122L3.39609 12.3122C3.25848 12.3772 3.13304 12.4288 3.13422 12.5747C3.13467 12.6304 3.15033 12.709 3.18264 12.8104L3.94613 15.2006L4.70888 12.8104C4.74119 12.709 4.75788 12.6304 4.75735 12.5747C4.75588 12.4248 4.62524 12.3707 4.49688 12.3122L5.7245 12.3122C5.61225 12.3571 5.52077 12.3924 5.47377 12.4822C5.45304 12.5218 5.40847 12.6294 5.34947 12.8104L4.35284 15.8563C4.31068 15.9856 4.29543 16.0705 4.28962 16.1099C4.28962 16.1099 4.24375 16.3025 4.54448 16.3843L3.30989 16.3843ZM24.5486 16.0711L24.5486 12.6224C24.5486 12.5627 24.5388 12.517 24.5192 12.4852C24.4995 12.4534 24.4139 12.3617 24.2917 12.3121L25.4331 12.3121C25.3109 12.3526 25.2253 12.4509 25.2057 12.4837C25.186 12.5165 25.1762 12.5627 25.1762 12.6224L25.1762 16.0711C25.1762 16.1327 25.1863 16.18 25.2067 16.2128C25.227 16.2456 25.3109 16.3257 25.4331 16.3843L24.2917 16.3843C24.4139 16.3287 24.4995 16.2431 24.5192 16.2113C24.5388 16.1795 24.5486 16.1327 24.5486 16.0711Z" fill="rgb(0,129,198)" fill-rule="nonzero" />
	</g>
</svg>
