<svg width="28.000000" height="28.000000" viewBox="0 0 28 28" fill="none" xmlns="http://www.w3.org/2000/svg" xmlns:xlink="http://www.w3.org/1999/xlink">
	<desc>
			Created with Pixso.
	</desc>
	<defs/>
	<rect id="WW" width="28.000000" height="28.000000" fill="#FFFFFF" fill-opacity="0"/>
	<rect id="Mask" y="4.000000" rx="3.000000" width="28.000000" height="20.000000" fill="#FFFFFF" fill-opacity="1.000000"/>
	<rect id="Mask" y="4.000000" rx="3.000000" width="28.000000" height="20.000000" stroke="#979797" stroke-opacity="0" stroke-width="0.000000"/>
	<mask id="mask17_3847" mask-type="alpha" maskUnits="userSpaceOnUse" x="0.000000" y="4.000000" width="28.000000" height="20.000000">
		<rect id="Mask" y="4.000000" rx="3.000000" width="28.000000" height="20.000000" fill="#FFFFFF" fill-opacity="1.000000"/>
		<rect id="Mask" y="4.000000" rx="3.000000" width="28.000000" height="20.000000" stroke="#979797" stroke-opacity="0" stroke-width="0.000000"/>
	</mask>
	<g mask="url(#mask17_3847)">
		<rect id="Mask Copy" y="4.000000" width="28.000000" height="20.000000" fill="#19BFBF" fill-opacity="1.000000"/>
		<rect id="Mask Copy" y="4.000000" width="28.000000" height="20.000000" stroke="#979797" stroke-opacity="0" stroke-width="0.000000"/>
	</g>
	<g mask="url(#mask17_3847)">
		<mask id="mask_17_3849" fill="white">
			<path id="Oval 143" d="M21.3334 14.0001C21.3334 18.0502 18.0501 21.3334 14 21.3334C9.94995 21.3334 6.66669 18.0502 6.66669 14.0001C6.66669 9.94998 9.94995 6.66675 14 6.66675C18.0501 6.66675 21.3334 9.94998 21.3334 14.0001ZM11.7827 8.4231C9.76392 9.22644 8.28418 11.0942 8.03662 13.3334L10.6797 13.3334C10.7529 11.472 11.1326 9.74713 11.7827 8.4231ZM10.6797 14.6667L8.03662 14.6667C8.28418 16.9059 9.76392 18.7737 11.7827 19.5771C11.1326 18.2531 10.7529 16.5281 10.6797 14.6667ZM13.6146 19.9879C12.699 18.9035 12.1118 16.9158 12.0144 14.6667L15.9857 14.6667C15.8883 16.9158 15.3011 18.9035 14.3856 19.9879C14.2581 19.996 14.1295 20.0001 14 20.0001C13.8705 20.0001 13.742 19.996 13.6146 19.9879ZM12.0144 13.3334C12.1118 11.0844 12.699 9.09665 13.6145 8.01227C13.742 8.00418 13.8705 8.00009 14 8.00009C14.1295 8.00009 14.2581 8.00418 14.3856 8.01227C15.3011 9.09665 15.8883 11.0844 15.9857 13.3334L12.0144 13.3334ZM19.9634 13.3334C19.7159 11.0942 18.2361 9.22647 16.2173 8.42313C16.8674 9.74713 17.2472 11.472 17.3204 13.3334L19.9634 13.3334ZM8.00006 13.9842L8 14.0001L8.00006 14.0159L8.00006 13.9842ZM19.9634 14.6667C19.7159 16.9059 18.2361 18.7737 16.2173 19.5771C16.8674 18.253 17.2472 16.5281 17.3204 14.6667L19.9634 14.6667Z" clip-rule="evenodd" fill="" fill-opacity="1.000000" fill-rule="evenodd"/>
		</mask>
		<path id="Oval 143" d="M21.3334 14.0001C21.3334 18.0502 18.0501 21.3334 14 21.3334C9.94995 21.3334 6.66669 18.0502 6.66669 14.0001C6.66669 9.94998 9.94995 6.66675 14 6.66675C18.0501 6.66675 21.3334 9.94998 21.3334 14.0001ZM11.7827 8.4231C9.76392 9.22644 8.28418 11.0942 8.03662 13.3334L10.6797 13.3334C10.7529 11.472 11.1326 9.74713 11.7827 8.4231ZM10.6797 14.6667L8.03662 14.6667C8.28418 16.9059 9.76392 18.7737 11.7827 19.5771C11.1326 18.2531 10.7529 16.5281 10.6797 14.6667ZM13.6146 19.9879C12.699 18.9035 12.1118 16.9158 12.0144 14.6667L15.9857 14.6667C15.8883 16.9158 15.3011 18.9035 14.3856 19.9879C14.2581 19.996 14.1295 20.0001 14 20.0001C13.8705 20.0001 13.742 19.996 13.6146 19.9879ZM12.0144 13.3334C12.1118 11.0844 12.699 9.09665 13.6145 8.01227C13.742 8.00418 13.8705 8.00009 14 8.00009C14.1295 8.00009 14.2581 8.00418 14.3856 8.01227C15.3011 9.09665 15.8883 11.0844 15.9857 13.3334L12.0144 13.3334ZM19.9634 13.3334C19.7159 11.0942 18.2361 9.22647 16.2173 8.42313C16.8674 9.74713 17.2472 11.472 17.3204 13.3334L19.9634 13.3334ZM8.00006 13.9842L8 14.0001L8.00006 14.0159L8.00006 13.9842ZM19.9634 14.6667C19.7159 16.9059 18.2361 18.7737 16.2173 19.5771C16.8674 18.253 17.2472 16.5281 17.3204 14.6667L19.9634 14.6667Z" clip-rule="evenodd" fill="#FFFFFF" fill-opacity="1.000000" fill-rule="evenodd" mask="url(#mask_17_3849)"/>
		<path id="Oval 143" d="" fill="#979797" fill-opacity="0.000000" fill-rule="nonzero"/>
	</g>
</svg>
