<svg width="24" height="24" viewBox="0 0 24 24" fill="none" xmlns="http://www.w3.org/2000/svg">
<path fill-rule="evenodd" clip-rule="evenodd" d="M15 19.7H9C8.06112 19.7 7.3 18.9389 7.3 18V15.799H16.7V18C16.7 18.9389 15.9389 19.7 15 19.7ZM16.7 14.4988H7.3V6.06381C7.3 5.12493 8.06112 4.36381 9 4.36381H15C15.9389 4.36381 16.7 5.12493 16.7 6.06381V14.4988ZM15 3.06381C16.6569 3.06381 18 4.40696 18 6.06381V18C18 19.6568 16.6569 21 15 21H9C7.34315 21 6 19.6568 6 18V6.06381C6 4.40696 7.34315 3.06381 9 3.06381H15ZM11.4453 11.674C11.7487 11.8244 12.1214 11.7149 12.2528 11.4028C12.4933 10.8317 12.6263 10.2042 12.6263 9.54564C12.6263 8.90354 12.4999 8.29096 12.2706 7.73141C12.1412 7.4156 11.7657 7.30338 11.4599 7.45495C11.1241 7.62141 11.0071 8.03827 11.131 8.39198C11.2575 8.7531 11.3263 9.14134 11.3263 9.54564C11.3263 9.96173 11.2534 10.3608 11.1198 10.7308C10.9917 11.0855 11.1073 11.5065 11.4453 11.674ZM14.5608 12.5263C14.4201 12.8432 14.0403 12.9604 13.7296 12.8064C13.3976 12.6419 13.2747 12.2336 13.4184 11.8922C13.7222 11.1706 13.8901 10.3777 13.8901 9.54566C13.8901 8.72641 13.7273 7.94517 13.4324 7.23253C13.2912 6.89158 13.4149 6.48585 13.7455 6.32197C14.0576 6.16725 14.4392 6.28614 14.5786 6.60538C14.9719 7.50581 15.1901 8.50026 15.1901 9.54566C15.1901 10.6067 14.9654 11.6152 14.5608 12.5263ZM10.1099 9.56445C10.1099 9.92344 9.81892 10.2145 9.45994 10.2145C9.10095 10.2145 8.80994 9.92344 8.80994 9.56445C8.80994 9.20547 9.10095 8.91445 9.45994 8.91445C9.81892 8.91445 10.1099 9.20547 10.1099 9.56445ZM9.45334 17.101C9.09429 17.101 8.80322 17.3921 8.80322 17.7511C8.80322 18.1102 9.09429 18.4012 9.45334 18.4012H14.5467C14.9057 18.4012 15.1968 18.1102 15.1968 17.7511C15.1968 17.3921 14.9057 17.101 14.5467 17.101H9.45334Z" fill="#626F84"/>
</svg>
