<svg width="24" height="24" viewBox="0 0 24 24" fill="none" xmlns="http://www.w3.org/2000/svg">
<path fill-rule="evenodd" clip-rule="evenodd" d="M8.5 1.99998C6.84315 1.99998 5.5 3.34313 5.5 4.99998L5.95192 16.7499C5.97877 17.448 6.55243 18 7.25096 18H7.26917L7.26917 18.0045V20.3C7.26917 21.2389 8.03028 22 8.96916 22H15.3195C16.2584 22 17.0195 21.2389 17.0195 20.3V18.0045C17.0195 17.9936 17.0194 17.9827 17.0191 17.9719C17.59 17.8511 18.0248 17.3555 18.0481 16.7499L18.5 4.99998C18.5 3.34313 17.1569 1.99998 15.5 1.99998H8.5ZM9.38074 4.5226C8.64424 4.5226 8.05483 5.13384 8.0816 5.86985L8.17585 8.4608C8.20112 9.15558 8.76857 9.7075 9.46378 9.71349L14.4882 9.75683C15.1917 9.76289 15.7724 9.20825 15.7986 8.50524L15.8966 5.87096C15.924 5.13454 15.3345 4.5226 14.5975 4.5226H9.38074ZM10.6216 12C10.9806 12 11.2716 12.291 11.2716 12.65C11.2716 13.009 10.9806 13.3 10.6216 13.3H8.92475C8.56577 13.3 8.27475 13.009 8.27475 12.65C8.27475 12.291 8.56577 12 8.92475 12H10.6216ZM11.2716 15.1077C11.2716 14.7488 10.9806 14.4577 10.6216 14.4577H8.92475C8.56577 14.4577 8.27475 14.7488 8.27475 15.1077C8.27475 15.4667 8.56577 15.7577 8.92475 15.7577H10.6216C10.9806 15.7577 11.2716 15.4667 11.2716 15.1077ZM15.0547 12C15.4137 12 15.7047 12.291 15.7047 12.65C15.7047 13.009 15.4137 13.3 15.0547 13.3H13.3579C12.9989 13.3 12.7079 13.009 12.7079 12.65C12.7079 12.291 12.9989 12 13.3579 12H15.0547ZM15.7047 15.1077C15.7047 14.7488 15.4137 14.4577 15.0547 14.4577H13.3579C12.9989 14.4577 12.7079 14.7488 12.7079 15.1077C12.7079 15.4667 12.9989 15.7577 13.3579 15.7577H15.0547C15.4137 15.7577 15.7047 15.4667 15.7047 15.1077ZM9.98853 18.0045H8.56917V20.3C8.56917 20.5209 8.74825 20.7 8.96916 20.7H9.98853V18.0045ZM11.2885 18.0045V20.7H15.3195C15.5404 20.7 15.7195 20.5209 15.7195 20.3L15.7195 18.0045H11.2885Z" fill="#626F84"/>
</svg>
