<svg width="24" height="24" viewBox="0 0 24 24" fill="none" xmlns="http://www.w3.org/2000/svg">
<path fill-rule="evenodd" clip-rule="evenodd" d="M8.5 3.29998H15.5C16.4317 3.29998 17.1883 4.0495 17.1999 4.97846L16.749 16.7H7.25096L6.80013 4.97846C6.81166 4.0495 7.5683 3.29998 8.5 3.29998ZM18.0481 16.7499L18.5 4.99998C18.5 3.34313 17.1569 1.99998 15.5 1.99998H8.5C6.84315 1.99998 5.5 3.34313 5.5 4.99998L5.95192 16.7499C5.97713 17.4055 6.48464 17.9323 7.12492 17.9939L7.12488 18.0045V20.3C7.12488 21.2389 7.88599 22 8.82488 22H15.1752C16.1141 22 16.8752 21.2389 16.8752 20.3V18.0045L16.8752 17.9939C17.5154 17.9322 18.0229 17.4054 18.0481 16.7499ZM8.42488 18.0045H9.84424V20.7H8.82488C8.60396 20.7 8.42488 20.5209 8.42488 20.3V18.0045ZM11.1442 20.7V18.0045H15.5752L15.5752 20.3C15.5752 20.5209 15.3962 20.7 15.1752 20.7H11.1442ZM11.2716 12.0072C11.2716 11.6483 10.9806 11.3572 10.6216 11.3572H8.92475C8.56577 11.3572 8.27475 11.6483 8.27475 12.0072C8.27475 12.3662 8.56577 12.6572 8.92475 12.6572H10.6216C10.9806 12.6572 11.2716 12.3662 11.2716 12.0072ZM10.6216 13.815C10.9806 13.815 11.2716 14.106 11.2716 14.465C11.2716 14.824 10.9806 15.115 10.6216 15.115H8.92475C8.56577 15.115 8.27475 14.824 8.27475 14.465C8.27475 14.106 8.56577 13.815 8.92475 13.815H10.6216ZM15.7047 12.0072C15.7047 11.6483 15.4137 11.3572 15.0547 11.3572H13.3579C12.9989 11.3572 12.7079 11.6483 12.7079 12.0072C12.7079 12.3662 12.9989 12.6572 13.3579 12.6572H15.0547C15.4137 12.6572 15.7047 12.3662 15.7047 12.0072ZM15.0547 13.815C15.4137 13.815 15.7047 14.106 15.7047 14.465C15.7047 14.824 15.4137 15.115 15.0547 15.115H13.3579C12.9989 15.115 12.7079 14.824 12.7079 14.465C12.7079 14.106 12.9989 13.815 13.3579 13.815H15.0547ZM9.38074 5.8226L14.5975 5.8226L14.4995 8.45688L9.47499 8.41354L9.38074 5.8226ZM8.0816 5.86985C8.05483 5.13384 8.64424 4.5226 9.38074 4.5226H14.5975C15.3345 4.5226 15.924 5.13454 15.8966 5.87096L15.7986 8.50524C15.7724 9.20825 15.1917 9.76289 14.4882 9.75683L9.46378 9.71349C8.76857 9.7075 8.20112 9.15558 8.17585 8.4608L8.0816 5.86985Z" fill="#626F84"/>
</svg>
