<svg width="24" height="24" viewBox="0 0 24 24" fill="none" xmlns="http://www.w3.org/2000/svg">
<path fill-rule="evenodd" clip-rule="evenodd" d="M15.1443 19.7H9.14429C8.2054 19.7 7.44429 18.9389 7.44429 18V15.8031H16.8443V18C16.8443 18.9389 16.0832 19.7 15.1443 19.7ZM18.1443 15.1031V18C18.1443 19.6568 16.8011 21 15.1443 21H9.14429C7.48743 21 6.14429 19.6568 6.14429 18V6.06383C6.14429 4.40697 7.48743 3.06383 9.14429 3.06383H15.1443C16.8011 3.06383 18.1443 4.40697 18.1443 6.06383V6.75573V15.1031ZM12.2528 11.4223C12.1213 11.7344 11.7486 11.844 11.4452 11.6936C11.1073 11.5261 10.9916 11.1051 11.1197 10.7503C11.2534 10.3804 11.3262 9.98129 11.3262 9.56521C11.3262 9.1609 11.2574 8.77266 11.1309 8.41155C11.007 8.05783 11.124 7.64097 11.4598 7.47452C11.7656 7.32294 12.1412 7.43516 12.2706 7.75097C12.4998 8.31052 12.6262 8.9231 12.6262 9.56521C12.6262 10.2238 12.4933 10.8513 12.2528 11.4223ZM13.7295 12.826C14.0402 12.98 14.4201 12.8628 14.5608 12.5458C14.9653 11.6348 15.1901 10.6263 15.1901 9.56523C15.1901 8.51982 14.9719 7.52538 14.5786 6.62494C14.4391 6.3057 14.0576 6.18681 13.7454 6.34153C13.4148 6.50541 13.2912 6.91114 13.4323 7.25209C13.7273 7.96473 13.8901 8.74597 13.8901 9.56523C13.8901 10.3973 13.7222 11.1901 13.4184 11.9117C13.2746 12.2532 13.3976 12.6614 13.7295 12.826ZM9.45994 10.234C9.81892 10.234 10.1099 9.943 10.1099 9.58401C10.1099 9.22503 9.81892 8.93401 9.45994 8.93401C9.10095 8.93401 8.80994 9.22503 8.80994 9.58401C8.80994 9.943 9.10095 10.234 9.45994 10.234ZM9.05298 17.7534C9.05298 17.3944 9.34404 17.1033 9.70309 17.1033H14.7964C15.1555 17.1033 15.4465 17.3944 15.4465 17.7534C15.4465 18.1125 15.1555 18.4036 14.7964 18.4036H9.70309C9.34404 18.4036 9.05298 18.1125 9.05298 17.7534Z" fill="#626F84"/>
</svg>
