<svg width="24" height="24" viewBox="0 0 24 24" fill="none" xmlns="http://www.w3.org/2000/svg">
<path d="M12.7193 1.21945C12.7193 0.82211 12.3972 0.5 11.9999 0.5C11.6025 0.5 11.2804 0.82211 11.2804 1.21945V3.1011C11.2804 3.49844 11.6025 3.82055 11.9999 3.82055C12.3972 3.82055 12.7193 3.49844 12.7193 3.1011V1.21945Z" fill="#626F84"/>
<path d="M12.6499 12.0993C12.6499 12.4583 12.3589 12.7493 11.9999 12.7493C11.6409 12.7493 11.3499 12.4583 11.3499 12.0993V9.04688C11.3499 8.68789 11.6409 8.39688 11.9999 8.39688C12.3589 8.39688 12.6499 8.68789 12.6499 9.04688V12.0993Z" fill="#626F84"/>
<path d="M12.7499 14.8531C12.7499 15.2673 12.4141 15.6031 11.9999 15.6031C11.5857 15.6031 11.2499 15.2673 11.2499 14.8531C11.2499 14.4389 11.5857 14.1031 11.9999 14.1031C12.4141 14.1031 12.7499 14.4389 12.7499 14.8531Z" fill="#626F84"/>
<path fill-rule="evenodd" clip-rule="evenodd" d="M4.99988 12C4.99988 8.13401 8.13388 5 11.9999 5C15.8659 5 18.9999 8.13401 18.9999 12V17.7C18.9999 18.0866 18.6865 18.4 18.2999 18.4H5.69988C5.31328 18.4 4.99988 18.0866 4.99988 17.7V12ZM17.6999 12V17.1H6.29988V12C6.29988 8.85198 8.85186 6.3 11.9999 6.3C15.1479 6.3 17.6999 8.85198 17.6999 12Z" fill="#626F84"/>
<path d="M3.79508 19.7C3.4361 19.7 3.14508 19.991 3.14508 20.35C3.14508 20.7089 3.43609 21 3.79508 21H20.2047C20.5637 21 20.8547 20.7089 20.8547 20.35C20.8547 19.991 20.5637 19.7 20.2047 19.7H3.79508Z" fill="#626F84"/>
<path d="M0.498047 12.0017C0.498047 11.6043 0.820157 11.2822 1.2175 11.2822H3.09914C3.49649 11.2822 3.8186 11.6043 3.8186 12.0017C3.8186 12.399 3.49649 12.7211 3.09914 12.7211H1.2175C0.820157 12.7211 0.498047 12.399 0.498047 12.0017Z" fill="#626F84"/>
<path d="M20.9006 11.2822C20.5032 11.2822 20.1811 11.6043 20.1811 12.0017C20.1811 12.399 20.5032 12.7211 20.9006 12.7211H22.7822C23.1796 12.7211 23.5017 12.399 23.5017 12.0017C23.5017 11.6043 23.1796 11.2822 22.7822 11.2822H20.9006Z" fill="#626F84"/>
<path d="M3.86685 3.86871C4.14781 3.58775 4.60335 3.58775 4.88431 3.86871L6.21483 5.19924C6.4958 5.4802 6.4958 5.93573 6.21483 6.2167C5.93387 6.49766 5.47834 6.49766 5.19737 6.2167L3.86685 4.88617C3.58589 4.60521 3.58589 4.14968 3.86685 3.86871Z" fill="#626F84"/>
<path d="M17.7849 5.19928C17.5039 5.48024 17.5039 5.93577 17.7849 6.21674C18.0658 6.4977 18.5214 6.4977 18.8023 6.21674L20.1329 4.88621C20.4138 4.60525 20.4138 4.14972 20.1329 3.86875C19.8519 3.58779 19.3964 3.58779 19.1154 3.86875L17.7849 5.19928Z" fill="#626F84"/>
</svg>
