<svg width="24" height="24" viewBox="0 0 24 24" fill="none" xmlns="http://www.w3.org/2000/svg">
<mask id="path-1-inside-1_127696_761" fill="white">
<path fill-rule="evenodd" clip-rule="evenodd" d="M14.0001 5C14.0001 5.88225 13.4288 6.63108 12.636 6.89678V8.76703H15.3278C15.6868 8.76703 15.9778 9.05804 15.9778 9.41703C15.9778 9.77601 15.6868 10.067 15.3278 10.067H12.636V19.653C16.0661 19.3326 18.7508 16.4458 18.7508 12.9319V12.2332L16.9955 13.9885C16.7417 14.2423 16.3301 14.2423 16.0763 13.9885C15.8225 13.7346 15.8225 13.3231 16.0763 13.0692L18.9412 10.2043C19.1271 10.0184 19.4067 9.96279 19.6496 10.0634C19.8925 10.164 20.0508 10.401 20.0508 10.6639V12.9319C20.0508 17.3781 16.4465 20.9825 12.0003 20.9825C7.55407 20.9825 3.94971 17.3781 3.94971 12.9319V10.6639C3.94971 10.401 4.10807 10.164 4.35096 10.0634C4.59385 9.96279 4.87343 10.0184 5.05933 10.2043L7.92426 13.0692C8.1781 13.3231 8.1781 13.7346 7.92426 13.9885C7.67042 14.2423 7.25886 14.2423 7.00502 13.9885L5.24971 12.2332V12.9319C5.24971 16.436 7.91957 19.3166 11.336 19.6502L11.336 10.067H8.64448C8.2855 10.067 7.99448 9.77601 7.99448 9.41703C7.99448 9.05804 8.2855 8.76703 8.64448 8.76703H11.336V6.88711C10.5579 6.61329 10.0001 5.87179 10.0001 5C10.0001 3.89543 10.8955 3 12.0001 3C13.1047 3 14.0001 3.89543 14.0001 5ZM12.7001 5C12.7001 5.3866 12.3867 5.7 12.0001 5.7C11.6135 5.7 11.3001 5.3866 11.3001 5C11.3001 4.6134 11.6135 4.3 12.0001 4.3C12.3867 4.3 12.7001 4.6134 12.7001 5Z"/>
</mask>
<path fill-rule="evenodd" clip-rule="evenodd" d="M14.0001 5C14.0001 5.88225 13.4288 6.63108 12.636 6.89678V8.76703H15.3278C15.6868 8.76703 15.9778 9.05804 15.9778 9.41703C15.9778 9.77601 15.6868 10.067 15.3278 10.067H12.636V19.653C16.0661 19.3326 18.7508 16.4458 18.7508 12.9319V12.2332L16.9955 13.9885C16.7417 14.2423 16.3301 14.2423 16.0763 13.9885C15.8225 13.7346 15.8225 13.3231 16.0763 13.0692L18.9412 10.2043C19.1271 10.0184 19.4067 9.96279 19.6496 10.0634C19.8925 10.164 20.0508 10.401 20.0508 10.6639V12.9319C20.0508 17.3781 16.4465 20.9825 12.0003 20.9825C7.55407 20.9825 3.94971 17.3781 3.94971 12.9319V10.6639C3.94971 10.401 4.10807 10.164 4.35096 10.0634C4.59385 9.96279 4.87343 10.0184 5.05933 10.2043L7.92426 13.0692C8.1781 13.3231 8.1781 13.7346 7.92426 13.9885C7.67042 14.2423 7.25886 14.2423 7.00502 13.9885L5.24971 12.2332V12.9319C5.24971 16.436 7.91957 19.3166 11.336 19.6502L11.336 10.067H8.64448C8.2855 10.067 7.99448 9.77601 7.99448 9.41703C7.99448 9.05804 8.2855 8.76703 8.64448 8.76703H11.336V6.88711C10.5579 6.61329 10.0001 5.87179 10.0001 5C10.0001 3.89543 10.8955 3 12.0001 3C13.1047 3 14.0001 3.89543 14.0001 5ZM12.7001 5C12.7001 5.3866 12.3867 5.7 12.0001 5.7C11.6135 5.7 11.3001 5.3866 11.3001 5C11.3001 4.6134 11.6135 4.3 12.0001 4.3C12.3867 4.3 12.7001 4.6134 12.7001 5Z" fill="#717681" stroke="#717681" stroke-width="2.6" mask="url(#path-1-inside-1_127696_761)"/>
</svg>
