<svg width="24" height="24" viewBox="0 0 24 24" fill="none" xmlns="http://www.w3.org/2000/svg">
<path fill-rule="evenodd" clip-rule="evenodd" d="M16.9342 12.9753C16.4673 12.9753 16.0719 13.302 16.0077 13.7409C15.9281 14.2851 15.33 14.6128 14.7935 14.4061C14.3609 14.2394 13.8651 14.401 13.6316 14.7847L13.1273 15.6137C12.8967 15.9927 12.9917 16.4747 13.3511 16.7491C13.8158 17.1038 13.8081 17.7881 13.331 18.1405C12.9626 18.4127 12.8621 18.901 13.0956 19.2847L13.5999 20.1137C13.8305 20.4927 14.3179 20.6557 14.7479 20.4975C15.304 20.293 15.9246 20.6414 16.0077 21.2097C16.0719 21.6486 16.4673 21.9753 16.9342 21.9753H17.9428C18.404 21.9753 18.7964 21.6562 18.8671 21.2237C18.9632 20.6355 19.6077 20.2824 20.1925 20.4975C20.6226 20.6557 21.1099 20.4927 21.3405 20.1137L21.8448 19.2847C22.0783 18.901 21.9778 18.4127 21.6094 18.1405C21.1323 17.7881 21.1247 17.1038 21.5894 16.7491C21.9487 16.4747 22.0437 15.9927 21.8131 15.6137L21.3088 14.7847C21.0754 14.401 20.5795 14.2394 20.1469 14.4061C19.5867 14.622 18.9585 14.2862 18.8671 13.7268C18.7964 13.2943 18.404 12.9753 17.9428 12.9753H16.9342ZM18.9702 17.4753C18.9702 18.3037 18.2986 18.9753 17.4702 18.9753C16.6418 18.9753 15.9702 18.3037 15.9702 17.4753C15.9702 16.6469 16.6418 15.9753 17.4702 15.9753C18.2986 15.9753 18.9702 16.6469 18.9702 17.4753Z" fill="#626F84"/>
<path d="M19.5609 12.0561C19.7675 12.1359 20 11.9895 20 11.7681V7C20 5.34315 18.6569 4 17 4H7C5.34315 4 4 5.34315 4 7V17C4 18.6569 5.34315 20 7 20H11.7678C11.9892 20 12.1356 19.7675 12.0558 19.5609C11.8055 18.9126 11.6682 18.208 11.6682 17.4713C11.6682 15.266 12.8983 13.3481 14.7099 12.3662V8.28136L9.33929 8.26242V16.4081C9.33929 16.7671 9.04828 17.0581 8.68929 17.0581C8.33031 17.0581 8.03929 16.7671 8.03929 16.4081V7.61987C8.03929 7.35304 8.20008 7.12376 8.43005 7.02363C8.51561 6.98265 8.61151 6.95985 8.71274 6.96021L15.3154 6.98348C15.3226 6.98351 15.3297 6.98365 15.3368 6.9839C15.3444 6.98363 15.3521 6.9835 15.3599 6.9835C15.7188 6.9835 16.0099 7.27452 16.0099 7.6335V11.854C16.4767 11.7329 16.9664 11.6684 17.4711 11.6684C18.2078 11.6684 18.9125 11.8057 19.5609 12.0561Z" fill="#626F84"/>
</svg>
