<svg width="24" height="24" viewBox="0 0 24 24" fill="none" xmlns="http://www.w3.org/2000/svg">
<path fill-rule="evenodd" clip-rule="evenodd" d="M12.7143 3.23045C12.2723 2.94987 11.708 2.95014 11.2662 3.23113L4.56339 7.49492C3.4237 8.2199 3.93724 9.98399 5.28797 9.98399H18.7076C20.059 9.98399 20.5721 8.2185 19.4311 7.49424L12.7143 3.23045ZM11.964 4.32801C11.9803 4.31761 12.0013 4.3176 12.0176 4.32799L18.7344 8.59178C18.7479 8.60035 18.7531 8.60654 18.7544 8.60824L18.756 8.61053L18.7571 8.61307C18.7586 8.61735 18.7609 8.63 18.7556 8.64795C18.7504 8.66589 18.7417 8.67535 18.7382 8.67818L18.7355 8.67994L18.7333 8.68082C18.7313 8.68154 18.7236 8.684 18.7076 8.684H5.28797C5.27201 8.684 5.26434 8.68154 5.26229 8.68082C5.26003 8.68002 5.25743 8.67818 5.25743 8.67818C5.25389 8.67534 5.24518 8.6659 5.23996 8.64797C5.23475 8.63005 5.23702 8.6174 5.23848 8.61311C5.23848 8.61311 5.23969 8.61016 5.24117 8.60827C5.24251 8.60656 5.24766 8.60038 5.26113 8.59181L11.964 4.32801Z" fill="#626F84"/>
<path d="M11.9999 11.2724C12.3589 11.2724 12.6499 11.5634 12.6499 11.9224V16.8049C12.6499 17.1639 12.3589 17.4549 11.9999 17.4549C11.6409 17.4549 11.3499 17.1639 11.3499 16.8049V11.9224C11.3499 11.5634 11.6409 11.2724 11.9999 11.2724Z" fill="#626F84"/>
<path d="M3.98682 19.4C3.98682 19.041 4.27783 18.75 4.63682 18.75H19.363C19.722 18.75 20.013 19.041 20.013 19.4C20.013 19.759 19.722 20.05 19.363 20.05H4.63682C4.27783 20.05 3.98682 19.759 3.98682 19.4Z" fill="#626F84"/>
<path d="M8.28267 11.9224C8.28267 11.5634 7.99165 11.2724 7.63267 11.2724C7.27368 11.2724 6.98267 11.5634 6.98267 11.9224V16.8049C6.98267 17.1639 7.27368 17.4549 7.63267 17.4549C7.99165 17.4549 8.28267 17.1639 8.28267 16.8049V11.9224Z" fill="#626F84"/>
<path d="M16.3672 11.2724C16.7262 11.2724 17.0172 11.5634 17.0172 11.9224V16.8049C17.0172 17.1639 16.7262 17.4549 16.3672 17.4549C16.0082 17.4549 15.7172 17.1639 15.7172 16.8049V11.9224C15.7172 11.5634 16.0082 11.2724 16.3672 11.2724Z" fill="#626F84"/>
</svg>
