<svg width="24" height="24" viewBox="0 0 24 24" fill="none" xmlns="http://www.w3.org/2000/svg">
<path fill-rule="evenodd" clip-rule="evenodd" d="M5.46506 19.9947H4.02988C3.6709 19.9947 3.37988 19.7037 3.37988 19.3447C3.37988 18.9857 3.6709 18.6947 4.02988 18.6947H4.85142V8.97522C4.85142 7.8989 5.72395 7.02637 6.80027 7.02637C7.87659 7.02637 8.74912 7.8989 8.74912 8.97522V18.6947H10.0492V11.9968C10.0492 10.9199 10.9222 10.0469 11.9991 10.0469C13.076 10.0469 13.949 10.9199 13.949 11.9968V18.6947H15.2489V5.94992C15.2489 4.87301 16.1219 4 17.1988 4C18.2757 4 19.1487 4.87301 19.1487 5.94992V18.6947H19.9952C20.3541 18.6947 20.6452 18.9857 20.6452 19.3447C20.6452 19.7037 20.3541 19.9947 19.9952 19.9947H18.5351C18.5068 19.9982 18.478 20 18.4487 20H15.9489C15.9196 20 15.8908 19.9982 15.8625 19.9947H13.3354C13.3071 19.9982 13.2782 20 13.249 20H10.7492C10.7199 20 10.6911 19.9982 10.6628 19.9947H8.13547C8.10718 19.9982 8.07836 20 8.04912 20H5.55142C5.52218 20 5.49336 19.9982 5.46506 19.9947ZM16.5489 18.6947H17.8487V14.1632H16.5489V18.6947ZM16.5489 12.8632V5.94992C16.5489 5.59098 16.8399 5.3 17.1988 5.3C17.5577 5.3 17.8487 5.59098 17.8487 5.94992V12.8632H16.5489ZM11.3492 17.2701V18.6947H12.649V17.2701H11.3492ZM11.3492 15.9701H12.649V11.9968C12.649 11.6379 12.358 11.3469 11.9991 11.3469C11.6401 11.3469 11.3492 11.6379 11.3492 11.9968V15.9701ZM7.44912 18.6947H6.15142V13.0162H7.44912L7.44912 18.6947ZM7.44912 11.7162H6.15142V8.97522C6.15142 8.61687 6.44192 8.32637 6.80027 8.32637C7.15862 8.32637 7.44912 8.61687 7.44912 8.97522V11.7162Z" fill="#717681"/>
</svg>
