<svg width="24" height="24" viewBox="0 0 24 24" fill="none" xmlns="http://www.w3.org/2000/svg">
<path d="M9 6C9 7.43494 7.99256 8.63458 6.64639 8.93019C6.64884 8.95313 6.6501 8.97642 6.6501 9.00001L6.6501 15.0706C7.79216 15.3229 8.68977 16.2261 8.93399 17.3712H14.9999C16.2978 17.3712 17.3499 16.3191 17.3499 15.0212V14.9294C16.0056 14.6324 15 13.4336 15 12C15 10.3431 16.3431 9 18 9C19.6569 9 21 10.3431 21 12C21 13.4337 19.9943 14.6325 18.6499 14.9294V15.0212C18.6499 17.037 17.0157 18.6712 14.9999 18.6712H8.92463C8.61981 20.0049 7.42611 21 6 21C4.34315 21 3 19.6569 3 18C3 16.5663 4.00569 15.3675 5.3501 15.0706L5.3501 9.00001C5.3501 8.97643 5.35135 8.95315 5.3538 8.93023C4.00754 8.63469 3 7.43501 3 6C3 4.34315 4.34315 3 6 3C7.65685 3 9 4.34315 9 6Z" fill="#717681"/>
</svg>
