<svg width="24" height="24" viewBox="0 0 24 24" fill="none" xmlns="http://www.w3.org/2000/svg">
<path d="M7.02106 7.0546C7.3799 4.76997 9.4751 3.0166 12.0061 3.0166C14.5371 3.0166 16.6323 4.76997 16.9911 7.0546C17.0511 7.43652 16.732 7.75195 16.3454 7.75195H7.6668C7.2802 7.75195 6.96107 7.43652 7.02106 7.0546Z" fill="#717681"/>
<path d="M3.12214 7.58485C3.33828 7.29823 3.74585 7.24109 4.03247 7.45723L6.14811 9.05263C6.16622 9.05122 6.18453 9.05051 6.203 9.05051H10.6525C11.0391 9.05051 11.3525 9.36391 11.3525 9.75051L11.3525 20.3188C11.3525 20.734 10.9914 21.0611 10.5869 20.9671C8.98519 20.5951 7.60594 19.6052 6.68981 18.2488L5.06274 19.8759C4.8089 20.1297 4.39735 20.1297 4.14351 19.8759C3.88966 19.622 3.88966 19.2105 4.14351 18.9566L6.04531 17.0548C5.69652 16.2214 5.503 15.3008 5.503 14.3329V14.2928H2.65C2.29101 14.2928 2 14.0018 2 13.6428C2 13.2838 2.29101 12.9928 2.65 12.9928H5.503V10.1938C5.49649 10.1893 5.49004 10.1846 5.48364 10.1798L3.24975 8.49519C2.96313 8.27904 2.90599 7.87147 3.12214 7.58485Z" fill="#717681"/>
<path d="M21.3467 14.2927H18.502V14.3329C18.502 15.3506 18.2881 16.316 17.9047 17.1827L19.6786 18.9566C19.9324 19.2105 19.9324 19.622 19.6786 19.8759C19.4247 20.1297 19.0132 20.1297 18.7593 19.8759L17.2406 18.3571C16.325 19.6578 14.9769 20.6051 13.4181 20.9671C13.0137 21.0611 12.6525 20.734 12.6525 20.3188L12.6525 9.75051C12.6525 9.36391 12.9659 9.05051 13.3525 9.05051H17.802C17.8181 9.05051 17.8341 9.05105 17.8499 9.05212L19.9643 7.45759C20.251 7.24144 20.6585 7.29858 20.8747 7.5852C21.0908 7.87183 21.0337 8.2794 20.7471 8.49554L18.5132 10.1801L18.502 10.1883L18.502 12.9927L21.3467 12.9927C21.7057 12.9927 21.9967 13.2837 21.9967 13.6427C21.9967 14.0017 21.7057 14.2927 21.3467 14.2927Z" fill="#717681"/>
</svg>
