<svg width="24" height="24" viewBox="0 0 24 24" fill="none" xmlns="http://www.w3.org/2000/svg">
<path d="M6.99676 5.04736C6.63778 5.04736 6.34676 5.33838 6.34676 5.69736C6.34676 6.05635 6.63778 6.34736 6.99676 6.34736H17.028C17.387 6.34736 17.678 6.05635 17.678 5.69736C17.678 5.33838 17.387 5.04736 17.028 5.04736H6.99676Z" fill="#626F84"/>
<path fill-rule="evenodd" clip-rule="evenodd" d="M3.00741 19.5394V20.0468C3.00741 21.1237 3.88045 21.9968 4.95741 21.9968H6.13781C7.21734 21.9968 8.09145 21.1197 8.0878 20.0402L8.0861 19.5394H15.9227L15.921 20.029C15.9174 21.1085 16.7915 21.9856 17.871 21.9856H19.0514C20.1284 21.9856 21.0014 21.1126 21.0014 20.0356L21.0004 5.45422C21.0004 3.79737 19.6573 2.45422 18.0004 2.45422H6.00204C4.34518 2.45422 3.00204 3.79737 3.00204 5.45422V9.99748C3.00166 10.0066 3.00146 10.0158 3.00146 10.025V11.3853C3.00146 11.4012 3.00166 11.4171 3.00204 11.433V19.5394H3.00741ZM6.00204 3.75422H18.0004C18.9393 3.75422 19.7004 4.51534 19.7004 5.45422V10.0524C19.6899 10.0989 19.6843 10.1473 19.6843 10.1971L19.6843 11.3368C19.6843 11.695 19.3946 11.9856 19.0365 11.9868L4.9537 12.0353C4.60307 12.0365 4.3165 11.7599 4.30204 11.4128V5.45422C4.30204 4.51534 5.06315 3.75422 6.00204 3.75422ZM19.041 13.2868C19.2726 13.286 19.4946 13.2449 19.7004 13.1701V15.0325H18.0168C17.6578 15.0325 17.3668 15.3235 17.3668 15.6825C17.3668 16.0415 17.6578 16.3325 18.0168 16.3325H19.7004V18.2394H17.0489C16.576 16.7678 15.1942 15.7032 13.5644 15.7072L11.998 15.711H10.4355C8.81055 15.711 7.43424 16.7727 6.96108 18.2394H4.30204V16.3325H6.00612C6.3651 16.3325 6.65612 16.0415 6.65612 15.6825C6.65612 15.3235 6.3651 15.0325 6.00612 15.0325H4.30204V13.2245C4.5072 13.297 4.72809 13.336 4.95817 13.3352L19.041 13.2868ZM6.7861 19.5394H4.30741V20.0468C4.30741 20.4058 4.59842 20.6968 4.95741 20.6968H6.13781C6.49765 20.6968 6.78902 20.4044 6.78781 20.0446L6.7861 19.5394ZM19.7014 19.5394H17.2227L17.221 20.0334C17.2198 20.3932 17.5112 20.6856 17.871 20.6856H19.0514C19.4104 20.6856 19.7014 20.3946 19.7014 20.0356V19.5394ZM15.6409 18.2394H8.36996C8.76809 17.5078 9.54363 17.011 10.4355 17.011H11.9988L12.0004 17.011L13.5675 17.0072C14.4632 17.005 15.2425 17.504 15.6409 18.2394Z" fill="#626F84"/>
</svg>
