<svg width="24" height="24" viewBox="0 0 24 24" fill="none" xmlns="http://www.w3.org/2000/svg">
<path fill-rule="evenodd" clip-rule="evenodd" d="M7 6C7 4.34315 8.34315 3 10 3H14C15.6569 3 17 4.34315 17 6L17 11.9989C17.5872 12.244 18 12.8238 18 13.5C18 13.5597 18 13.6178 18 13.678V20.4529C18 20.8119 17.709 21.1029 17.35 21.1029C16.991 21.1029 16.7 20.8119 16.7 20.4529V15.0932C16.5947 15.1146 16.4857 15.1259 16.3741 15.1259H7.6259C7.51428 15.1259 7.40529 15.1146 7.3 15.0932L7.3 20.4521C7.3 20.811 7.00899 21.1021 6.65 21.1021C6.29102 21.1021 6 20.811 6 20.4521V13.678C6 13.6178 6 13.5597 6 13.5C6 12.8238 6.41273 12.2441 7 11.9989V6ZM8.3 11.8741H15.7V9H8.3L8.3 11.8741Z" fill="#626F84"/>
</svg>
