<svg width="24" height="24" viewBox="0 0 24 24" fill="none" xmlns="http://www.w3.org/2000/svg">
<path fill-rule="evenodd" clip-rule="evenodd" d="M19.0281 18.6973V10.991C19.0281 9.91405 18.1551 9.041 17.0781 9.041C16.0011 9.041 15.1281 9.91405 15.1281 10.991L15.1281 18.6973H13.9501V15.5535C13.9501 14.4765 13.077 13.6035 12.0001 13.6035C10.9231 13.6035 10.0501 14.4765 10.0501 15.5535V18.6973H8.87197L8.87197 12.991C8.87197 11.914 7.99892 11.041 6.92197 11.041C5.84501 11.041 4.97197 11.914 4.97197 12.991L4.97197 18.6973H3.93369C3.57471 18.6973 3.28369 18.9883 3.28369 19.3473C3.28369 19.7062 3.57471 19.9973 3.93369 19.9973H5.92149C5.92133 19.9973 5.92165 19.9973 5.92149 19.9973H7.92197C7.92174 19.9973 7.9222 19.9973 7.92197 19.9973H10.9992C10.9989 19.9973 10.9995 19.9973 10.9992 19.9973H13.0001C13.0004 19.9973 13.0008 19.9973 13.0011 19.9973H16.0769C16.0773 19.9973 16.0777 19.9973 16.0781 19.9973H18.0781C18.0785 19.9973 18.0789 19.9973 18.0794 19.9973H20.0665C20.4255 19.9973 20.7165 19.7062 20.7165 19.3473C20.7165 18.9883 20.4255 18.6973 20.0665 18.6973H19.0281ZM17.7281 18.6973V10.991C17.7281 10.632 17.4371 10.341 17.0781 10.341C16.7191 10.341 16.4281 10.632 16.4281 10.991V18.6973H17.7281ZM6.27197 18.6973L6.27197 12.991C6.27197 12.632 6.56298 12.341 6.92197 12.341C7.28095 12.341 7.57197 12.632 7.57197 12.991V18.6973H6.27197ZM11.3501 18.6973H12.6501V15.5535C12.6501 15.1945 12.3591 14.9035 12.0001 14.9035C11.6411 14.9035 11.3501 15.1945 11.3501 15.5535V18.6973Z" fill="#717681"/>
<path fill-rule="evenodd" clip-rule="evenodd" d="M19.0781 5.69098C19.0781 6.79555 18.1827 7.69098 17.0781 7.69098C16.7419 7.69098 16.4251 7.60804 16.1471 7.46151L13.8606 9.58068C13.8549 9.5662 13.849 9.5518 13.8429 9.53749C13.9441 9.77677 14.0001 10.0398 14.0001 10.316C14.0001 11.4205 13.1047 12.316 12.0001 12.316C10.8955 12.316 10.0001 11.4205 10.0001 10.316C10.0001 10.251 10.0032 10.1867 10.0093 10.1232L8.25504 9.18194C7.90124 9.4985 7.43408 9.69098 6.92196 9.69098C5.81739 9.69098 4.92196 8.79555 4.92196 7.69098C4.92196 6.58641 5.81739 5.69098 6.92196 5.69098C8.02653 5.69098 8.92196 6.58641 8.92196 7.69098C8.92196 7.81265 8.9111 7.93179 8.89028 8.04747L10.5503 8.93823C10.5179 8.9723 10.4867 9.00751 10.4568 9.04379C10.8236 8.5993 11.3788 8.31598 12.0001 8.31598C12.3705 8.31598 12.7173 8.41665 13.0148 8.59212C13.0148 8.59212 13.0148 8.59213 13.0148 8.59212L15.2554 6.51544C15.1415 6.26405 15.0781 5.98492 15.0781 5.69098C15.0781 4.58641 15.9735 3.69098 17.0781 3.69098C18.1827 3.69098 19.0781 4.58641 19.0781 5.69098ZM17.7781 5.69098C17.7781 6.07758 17.4647 6.39098 17.0781 6.39098C16.6915 6.39098 16.3781 6.07758 16.3781 5.69098C16.3781 5.30438 16.6915 4.99098 17.0781 4.99098C17.4647 4.99098 17.7781 5.30438 17.7781 5.69098ZM7.62196 7.69098C7.62196 8.07758 7.30856 8.39098 6.92196 8.39098C6.53536 8.39098 6.22196 8.07758 6.22196 7.69098C6.22196 7.30438 6.53536 6.99098 6.92196 6.99098C7.30856 6.99098 7.62196 7.30438 7.62196 7.69098ZM12.0001 11.016C12.3867 11.016 12.7001 10.7026 12.7001 10.316C12.7001 9.92938 12.3867 9.61598 12.0001 9.61598C11.6135 9.61598 11.3001 9.92938 11.3001 10.316C11.3001 10.7026 11.6135 11.016 12.0001 11.016Z" fill="#717681"/>
</svg>
