<svg width="24" height="24" viewBox="0 0 24 24" fill="none" xmlns="http://www.w3.org/2000/svg">
<path d="M12.6496 6.42982V8.10663H16.0271C18.0073 8.10663 19.4443 9.99127 18.92 11.9008L17.3807 17.5082C17.2257 18.0728 16.7125 18.4641 16.127 18.4641H7.87319C7.28777 18.4641 6.77456 18.0728 6.61957 17.5082L5.08019 11.9008C4.55596 9.99127 5.99295 8.10663 7.97315 8.10663H11.3496V6.42982H9.66196C9.30298 6.42982 9.01196 6.1388 9.01196 5.77982C9.01196 5.42083 9.30298 5.12982 9.66196 5.12982H11.3496V3.65C11.3496 3.29101 11.6406 3 11.9996 3C12.3586 3 12.6496 3.29101 12.6496 3.65V5.12982H14.3378C14.6967 5.12982 14.9878 5.42083 14.9878 5.77982C14.9878 6.1388 14.6967 6.42982 14.3378 6.42982H12.6496Z" fill="#626F84"/>
<path d="M5.69004 19.7641C5.33105 19.7641 5.04004 20.0551 5.04004 20.4141C5.04004 20.7731 5.33105 21.0641 5.69004 21.0641H18.3097C18.6686 21.0641 18.9597 20.7731 18.9597 20.4141C18.9597 20.0551 18.6686 19.7641 18.3097 19.7641H5.69004Z" fill="#626F84"/>
</svg>
