<svg width="24" height="24" viewBox="0 0 24 24" fill="none" xmlns="http://www.w3.org/2000/svg">
<path fill-rule="evenodd" clip-rule="evenodd" d="M6 4C4.34315 4 3 5.34315 3 7V14.0022C3 15.659 4.34315 17.0022 6 17.0022H10V18.7H8.64878C8.28979 18.7 7.99878 18.991 7.99878 19.35C7.99878 19.7089 8.28979 20 8.64878 20H15.3513C15.7102 20 16.0013 19.7089 16.0013 19.35C16.0013 18.991 15.7102 18.7 15.3513 18.7H14V17.0022H18C19.6569 17.0022 21 15.659 21 14.0022V7C21 5.34315 19.6569 4 18 4H6ZM11.3502 5.3H6C5.06112 5.3 4.3 6.06112 4.3 7V13.0999H19.7V7C19.7 6.06112 18.9389 5.3 18 5.3H12.6502V9.04452L14.1576 7.463C14.4052 7.20315 14.8167 7.19328 15.0765 7.44095C15.3364 7.68863 15.3463 8.10007 15.0986 8.35993L12.4744 11.1132C12.4641 11.1241 12.4534 11.1347 12.4424 11.145C12.3264 11.2527 12.171 11.3186 12.0002 11.3186C11.9144 11.3186 11.8324 11.302 11.7575 11.2718L11.7425 11.2656C11.6627 11.2312 11.5886 11.1802 11.5255 11.1127L8.94542 8.35559C8.70013 8.09347 8.71378 7.68214 8.97589 7.43685C9.23801 7.19157 9.64934 7.20522 9.89463 7.46733L11.3502 9.02276V5.3ZM6 15.7022C5.19808 15.7022 4.52585 15.1469 4.34678 14.3999H19.6532C19.4741 15.1469 18.8019 15.7022 18 15.7022H6ZM12.7 18.7V17.3H11.3V18.7H12.7Z" fill="#626F84"/>
</svg>
