<svg width="24" height="24" viewBox="0 0 24 24" fill="none" xmlns="http://www.w3.org/2000/svg">
<path d="M8.47792 14.2461C8.55748 14.3707 8.54567 14.535 8.44119 14.6395L5.66968 17.411C5.54628 17.5344 5.34361 17.5271 5.23477 17.3907C4.24522 16.1505 3.58956 14.6322 3.40393 12.9718C3.38455 12.7984 3.52268 12.65 3.69712 12.65H7.61667C7.76447 12.65 7.88908 12.758 7.92087 12.9023C8.02766 13.3872 8.21872 13.8406 8.47792 14.2461Z" fill="#626F84"/>
<path d="M8.44122 9.3604C8.5457 9.46488 8.55751 9.62927 8.47795 9.75378C8.21873 10.1594 8.02766 10.6127 7.92087 11.0977C7.88908 11.242 7.76447 11.35 7.61666 11.35H3.69711C3.52267 11.35 3.38454 11.2016 3.40392 11.0282C3.58954 9.36779 4.24519 7.84939 5.23476 6.60916C5.34361 6.47275 5.54628 6.46546 5.66968 6.58886L8.44122 9.3604Z" fill="#626F84"/>
<path d="M11.3499 7.61672C11.3499 7.76452 11.242 7.88913 11.0976 7.92092C10.6127 8.0277 10.1594 8.21875 9.75385 8.47792C9.62934 8.55748 9.46496 8.54566 9.36048 8.44119L6.58892 5.66963C6.46552 5.54623 6.47281 5.34355 6.60923 5.23471C7.84943 4.24518 9.36779 3.58954 11.0282 3.40392C11.2015 3.38454 11.3499 3.52267 11.3499 3.69711V7.61672Z" fill="#626F84"/>
<path d="M14.6395 8.44124C14.535 8.54572 14.3706 8.55754 14.2461 8.47797C13.8405 8.21878 13.3872 8.02772 12.9023 7.92093C12.7579 7.88914 12.6499 7.76453 12.6499 7.61672V3.69711C12.6499 3.52267 12.7983 3.38454 12.9717 3.40392C14.6321 3.58955 16.1505 4.2452 17.3907 5.23476C17.5271 5.3436 17.5344 5.54628 17.411 5.66968L14.6395 8.44124Z" fill="#626F84"/>
<path d="M16.3832 11.35C16.2354 11.35 16.1108 11.242 16.079 11.0977C15.9722 10.6127 15.7811 10.1594 15.522 9.75386C15.4424 9.62935 15.4542 9.46497 15.5587 9.36049L18.3303 6.58892C18.4537 6.46552 18.6563 6.47281 18.7652 6.60923C19.7547 7.84944 20.4104 9.36782 20.596 11.0282C20.6154 11.2016 20.4772 11.35 20.3028 11.35H16.3832Z" fill="#626F84"/>
<path d="M15.5587 14.6394C15.4542 14.535 15.4424 14.3706 15.522 14.2461C15.7812 13.8405 15.9722 13.3872 16.079 12.9023C16.1108 12.758 16.2354 12.65 16.3832 12.65H20.3028C20.4772 12.65 20.6153 12.7984 20.596 12.9718C20.4103 14.6321 19.7547 16.1505 18.7652 17.3907C18.6563 17.5271 18.4537 17.5344 18.3303 17.411L15.5587 14.6394Z" fill="#626F84"/>
<path d="M12.6499 16.3832C12.6499 16.2354 12.7579 16.1108 12.9023 16.079C13.3872 15.9722 13.8405 15.7812 14.2461 15.522C14.3706 15.4424 14.535 15.4542 14.6395 15.5587L17.411 18.3302C17.5344 18.4536 17.5271 18.6563 17.3907 18.7651C16.1505 19.7547 14.6321 20.4103 12.9717 20.596C12.7983 20.6153 12.6499 20.4772 12.6499 20.3028V16.3832Z" fill="#626F84"/>
<path d="M11.3499 16.3833C11.3499 16.2354 11.242 16.1108 11.0976 16.079C10.6127 15.9723 10.1594 15.7812 9.7538 15.522C9.6293 15.4425 9.46491 15.4543 9.36043 15.5588L6.58893 18.3303C6.46553 18.4537 6.47282 18.6563 6.60923 18.7652C7.84944 19.7547 9.36779 20.4103 11.0282 20.596C11.2015 20.6153 11.3499 20.4772 11.3499 20.3028V16.3833Z" fill="#626F84"/>
</svg>
