<svg width="24" height="24" viewBox="0 0 24 24" fill="none" xmlns="http://www.w3.org/2000/svg">
<path d="M18.6545 3.63795C18.6545 3.27896 18.3635 2.98795 18.0045 2.98795C17.6455 2.98795 17.3545 3.27896 17.3545 3.63795V5.34993H15.6425C15.2835 5.34993 14.9925 5.64095 14.9925 5.99993C14.9925 6.35892 15.2835 6.64993 15.6425 6.64993H17.3545V8.36192C17.3545 8.7209 17.6455 9.01192 18.0045 9.01192C18.3635 9.01192 18.6545 8.7209 18.6545 8.36192V6.64993H20.3665C20.7255 6.64993 21.0165 6.35892 21.0165 5.99993C21.0165 5.64095 20.7255 5.34993 20.3665 5.34993H18.6545V3.63795Z" fill="#717681"/>
<path d="M10.3223 9.00388C10.3223 7.70601 11.3744 6.65388 12.6723 6.65388H13.0974C13.4564 6.65388 13.7474 6.36287 13.7474 6.00388C13.7474 5.6449 13.4564 5.35388 13.0974 5.35388H12.6723C10.6565 5.35388 9.0223 6.98804 9.0223 9.00388V11.3572H3.64414C3.28516 11.3572 2.99414 11.6482 2.99414 12.0072C2.99414 12.3662 3.28516 12.6572 3.64414 12.6572H9.0223V15.0105C9.0223 17.0263 10.6565 18.6605 12.6723 18.6605H18.6971L17.1483 20.1098C16.8861 20.3551 16.8725 20.7664 17.1178 21.0285C17.3631 21.2907 17.7744 21.3043 18.0365 21.059L21.2962 18.0087L18.0408 14.9059C17.781 14.6582 17.3695 14.6681 17.1219 14.9279C16.8742 15.1878 16.8841 15.5992 17.1439 15.8469L18.7319 17.3605H12.6723C11.3744 17.3605 10.3223 16.3083 10.3223 15.0105V12.0216L10.3225 12.0072L10.3223 11.9927V9.00388Z" fill="#717681"/>
</svg>
