<svg width="24" height="24" viewBox="0 0 24 24" fill="none" xmlns="http://www.w3.org/2000/svg">
<path d="M4 9.30202C4 8.79811 4.5164 8.45928 4.97866 8.65988L10.5636 11.0835C11.0387 11.2897 11.3461 11.7581 11.3461 12.276V19.6708C11.3461 20.1756 10.828 20.5145 10.3655 20.3121L5.79743 18.3134C4.70553 17.8356 4 16.7568 4 15.5649V9.30202Z" fill="#626F84"/>
<path d="M20 9.30208C20 8.79817 19.4836 8.45934 19.0213 8.65994L13.4364 11.0835C12.9613 11.2897 12.6539 11.7582 12.6539 12.2761V19.6709C12.6539 20.1757 13.172 20.5145 13.6345 20.3122L18.2026 18.3134C19.2945 17.8357 20 16.7568 20 15.565V9.30208Z" fill="#626F84"/>
<path d="M10.7766 4.25355C11.5443 3.91609 12.4182 3.91537 13.1865 4.25159L18.8907 6.74788C19.1305 6.85283 19.1303 7.19308 18.8904 7.29771L12.502 10.0834C12.1701 10.2281 11.7929 10.2279 11.4613 10.0827L5.09909 7.29885C4.85966 7.19408 4.85937 6.85454 5.09863 6.74937L10.7766 4.25355Z" fill="#626F84"/>
</svg>
