<svg width="24" height="24" viewBox="0 0 24 24" fill="none" xmlns="http://www.w3.org/2000/svg">
<path fill-rule="evenodd" clip-rule="evenodd" d="M5.00448 6.63721C5.00448 4.62137 6.63864 2.98721 8.65448 2.98721H15.3463C17.3622 2.98721 18.9963 4.62137 18.9963 6.63721V11C18.9963 11.359 18.7053 11.65 18.3463 11.65C17.9874 11.65 17.6963 11.359 17.6963 11V6.63721C17.6963 5.33934 16.6442 4.28721 15.3463 4.28721H13.3004V5.66257C13.3004 6.38054 12.7183 6.96257 12.0004 6.96257C11.2824 6.96257 10.7004 6.38054 10.7004 5.66257V4.28721H8.65448C7.35661 4.28721 6.30448 5.33934 6.30448 6.63721V7.50001C6.30448 7.85899 6.01346 8.15001 5.65448 8.15001C5.29549 8.15001 5.00448 7.85899 5.00448 7.50001V6.63721ZM10.0206 9.33852C10.6272 8.96913 11.4172 9.14406 11.8112 9.73501C12.1884 10.3008 12.0758 11.0603 11.5507 11.4922L9.7226 12.9962C9.26525 13.3724 9.10051 13.9994 9.31382 14.5519C9.48457 14.9941 9.87124 15.317 10.3368 15.4062L11.774 15.6816C12.3324 15.7886 12.9081 15.7637 13.4552 15.6088L18.6661 14.1336C19.224 13.9756 19.8063 14.29 19.9803 14.843C20.1435 15.3613 19.8928 15.9197 19.3971 16.1423L12.6796 19.1591C12.2381 19.3574 11.7462 19.4145 11.271 19.3227L5.69708 18.2457C4.7204 18.0569 3.96834 17.2737 3.81941 16.2902L3.61324 14.9286C3.47144 13.9922 3.9056 13.0622 4.7145 12.5697L10.0206 9.33852ZM12.8929 9.0139C12.1122 7.84282 10.5466 7.49616 9.34447 8.22819L4.03837 11.4593C2.78199 12.2244 2.10765 13.6689 2.32789 15.1233L2.53406 16.4848C2.76538 18.0124 3.93347 19.2289 5.45045 19.5221L11.0244 20.5991C11.7624 20.7417 12.5265 20.653 13.2122 20.345L19.9297 17.3282C21.0267 16.8356 21.5814 15.5998 21.2204 14.4527C20.8352 13.2288 19.5465 12.5332 18.312 12.8827L13.1011 14.358C12.7489 14.4577 12.3782 14.4738 12.0187 14.4049L10.5815 14.1295C10.5565 14.1247 10.5357 14.1073 10.5266 14.0836C10.5151 14.0539 10.524 14.0203 10.5485 14.0001L12.3766 12.4962C13.4172 11.6401 13.6403 10.1351 12.8929 9.0139Z" fill="#717681"/>
</svg>
