<svg width="24" height="24" viewBox="0 0 24 24" fill="none" xmlns="http://www.w3.org/2000/svg">
<path fill-rule="evenodd" clip-rule="evenodd" d="M5.00423 6.63721C5.00423 4.62137 6.63839 2.98721 8.65423 2.98721H15.3461C17.3619 2.98721 18.9961 4.62137 18.9961 6.63721V11C18.9961 11.359 18.7051 11.65 18.3461 11.65C17.9871 11.65 17.6961 11.359 17.6961 11V6.63721C17.6961 5.33934 16.644 4.28721 15.3461 4.28721H13.3001V5.66257C13.3001 6.38054 12.7181 6.96257 12.0001 6.96257C11.2822 6.96257 10.7001 6.38054 10.7001 5.66257V4.28721H8.65423C7.35636 4.28721 6.30423 5.33934 6.30423 6.63721V7.50001C6.30423 7.85899 6.01322 8.15001 5.65423 8.15001C5.29525 8.15001 5.00423 7.85899 5.00423 7.50001V6.63721ZM10.0204 9.33852C10.627 8.96913 11.417 9.14406 11.811 9.73501C12.1881 10.3008 12.0755 11.0603 11.5504 11.4922L9.72235 12.9962C9.26501 13.3724 9.10026 13.9994 9.31358 14.5519C9.48433 14.9941 9.871 15.317 10.3366 15.4062L11.7738 15.6816C12.3322 15.7886 12.9079 15.7637 13.455 15.6088L18.6659 14.1336C19.2237 13.9756 19.806 14.29 19.9801 14.843C20.1432 15.3613 19.8926 15.9197 19.3969 16.1423L12.6794 19.1591C12.2379 19.3574 11.746 19.4145 11.2708 19.3227L5.69684 18.2457C4.72016 18.0569 3.9681 17.2737 3.81917 16.2902L3.61299 14.9286C3.4712 13.9922 3.90536 13.0622 4.71426 12.5697L10.0204 9.33852ZM12.8926 9.0139C12.1119 7.84282 10.5463 7.49616 9.34422 8.22819L4.03812 11.4593C2.78175 12.2244 2.10741 13.6689 2.32764 15.1233L2.53382 16.4848C2.76514 18.0124 3.93323 19.2289 5.4502 19.5221L11.0242 20.5991C11.7622 20.7417 12.5263 20.653 13.212 20.345L19.9295 17.3282C21.0265 16.8356 21.5811 15.5998 21.2201 14.4527C20.8349 13.2288 19.5463 12.5332 18.3118 12.8827L13.1009 14.358C12.7486 14.4577 12.378 14.4738 12.0184 14.4049L10.5812 14.1295C10.5562 14.1247 10.5355 14.1073 10.5263 14.0836C10.5149 14.0539 10.5237 14.0203 10.5483 14.0001L12.3763 12.4962C13.4169 11.6401 13.6401 10.1351 12.8926 9.0139Z" fill="#626F84"/>
</svg>
