<svg width="24" height="24" viewBox="0 0 24 24" fill="none" xmlns="http://www.w3.org/2000/svg">
<path d="M13.2712 10.1209C13.3788 9.77842 13.1883 9.41358 12.8458 9.30603C12.5033 9.19849 12.1385 9.38895 12.0309 9.73144L10.7285 13.8791C10.6209 14.2216 10.8114 14.5864 11.1539 14.694C11.4964 14.8015 11.8612 14.6111 11.9688 14.2686L13.2712 10.1209Z" fill="#626F84"/>
<path d="M9.59973 9.43327C9.88539 9.65345 9.93039 10.0535 9.70023 10.3268L8.29103 12L9.70023 13.6732C9.93039 13.9465 9.88539 14.3465 9.59973 14.5667C9.31406 14.7869 8.8959 14.7439 8.66575 14.4706L6.92078 12.3987C6.72479 12.166 6.72479 11.834 6.92078 11.6013L8.66575 9.52941C8.8959 9.25613 9.31406 9.21309 9.59973 9.43327Z" fill="#626F84"/>
<path d="M14.2993 10.3268C14.0691 10.0535 14.1141 9.65345 14.3998 9.43327C14.6855 9.21309 15.1036 9.25613 15.3338 9.52941L17.0787 11.6013C17.2747 11.834 17.2747 12.166 17.0787 12.3987L15.3338 14.4706C15.1036 14.7439 14.6855 14.7869 14.3998 14.5667C14.1141 14.3465 14.0691 13.9465 14.2993 13.6732L15.7085 12L14.2993 10.3268Z" fill="#626F84"/>
<path fill-rule="evenodd" clip-rule="evenodd" d="M4 7C4 5.34315 5.34315 4 7 4H17C18.6569 4 20 5.34315 20 7V17C20 18.6569 18.6569 20 17 20H7C5.34315 20 4 18.6569 4 17V7ZM7 5.3H17C17.9389 5.3 18.7 6.06112 18.7 7V17C18.7 17.9389 17.9389 18.7 17 18.7H7C6.06112 18.7 5.3 17.9389 5.3 17V7C5.3 6.06112 6.06112 5.3 7 5.3Z" fill="#626F84"/>
</svg>
