<svg width="24" height="24" viewBox="0 0 24 24" fill="none" xmlns="http://www.w3.org/2000/svg">
<path d="M3.06184 8.49023C2.8932 8.68441 3.03147 8.98641 3.28865 8.98641L7.38346 8.98641C7.48311 8.98641 7.57626 8.93693 7.63205 8.85435L10.5954 4.46794C10.73 4.2687 10.5872 4 10.3468 4H7.56204C7.18711 4 6.83044 4.16187 6.58358 4.44407C5.6242 5.54079 3.87136 7.55811 3.06184 8.49023Z" fill="#626F84"/>
<path d="M3.24312 10.2864C2.98526 10.2864 2.8457 10.588 3.01585 10.7817C5.23702 13.311 8.98612 17.548 10.5344 19.2969C10.681 19.4625 10.9456 19.3002 10.8692 19.0926L7.70248 10.4829C7.65908 10.3648 7.54667 10.2864 7.42093 10.2864L3.24312 10.2864Z" fill="#626F84"/>
<path d="M13.2923 18.9498C13.2175 19.1575 13.4832 19.3171 13.629 19.1514C15.1275 17.448 18.7171 13.3667 20.9837 10.7821C21.1537 10.5882 21.0143 10.2864 20.7564 10.2864L16.6231 10.2864C16.4966 10.2864 16.3837 10.3658 16.3408 10.4848L13.2923 18.9498Z" fill="#626F84"/>
<path d="M20.7071 8.98641C20.9645 8.98641 21.1027 8.68382 20.9335 8.48976C20.1201 7.55707 18.3595 5.53897 17.396 4.44208C17.1492 4.16108 16.7933 4 16.4193 4H13.3966C13.1503 4 13.0089 4.28045 13.1554 4.47845L16.4013 8.86486C16.4579 8.94132 16.5474 8.98641 16.6425 8.98641L20.7071 8.98641Z" fill="#626F84"/>
<path d="M14.8859 10.6881C14.9563 10.4926 14.8114 10.2864 14.6036 10.2864L9.44537 10.2864C9.23671 10.2864 9.09178 10.4941 9.16381 10.69L11.7701 17.7761C11.8668 18.0389 12.2391 18.0377 12.334 17.7742L14.8859 10.6881Z" fill="#626F84"/>
<path d="M14.4764 8.50631C14.6249 8.70406 14.4838 8.98641 14.2365 8.98641L9.72862 8.98641C9.48614 8.98641 9.34384 8.71365 9.48258 8.51477L11.6539 5.40222C11.7708 5.23469 12.0173 5.2304 12.1399 5.39376L14.4764 8.50631Z" fill="#626F84"/>
</svg>
