<svg width="24" height="24" viewBox="0 0 24 24" fill="none" xmlns="http://www.w3.org/2000/svg">
<path d="M3.06159 8.49023C2.89296 8.68441 3.03122 8.98641 3.28841 8.98641L7.38321 8.98641C7.48287 8.98641 7.57602 8.93693 7.6318 8.85435L10.5951 4.46794C10.7297 4.2687 10.587 4 10.3465 4H7.5618C7.18687 4 6.8302 4.16187 6.58334 4.44407C5.62395 5.54079 3.87111 7.55811 3.06159 8.49023Z" fill="#717681"/>
<path d="M3.24287 10.2864C2.98501 10.2864 2.84546 10.588 3.01561 10.7817C5.23678 13.311 8.98588 17.548 10.5342 19.2969C10.6807 19.4625 10.9453 19.3002 10.869 19.0926L7.70224 10.4829C7.65883 10.3648 7.54643 10.2864 7.42068 10.2864L3.24287 10.2864Z" fill="#717681"/>
<path d="M13.2921 18.9498C13.2173 19.1575 13.4829 19.3171 13.6287 19.1514C15.1273 17.448 18.7169 13.3667 20.9835 10.7821C21.1535 10.5882 21.014 10.2864 20.7562 10.2864L16.6228 10.2864C16.4963 10.2864 16.3834 10.3658 16.3406 10.4848L13.2921 18.9498Z" fill="#717681"/>
<path d="M20.7068 8.98641C20.9643 8.98641 21.1024 8.68382 20.9332 8.48976C20.1199 7.55707 18.3592 5.53897 17.3957 4.44208C17.1489 4.16108 16.793 4 16.419 4H13.3963C13.15 4 13.0087 4.28045 13.1552 4.47845L16.4011 8.86486C16.4577 8.94132 16.5471 8.98641 16.6423 8.98641L20.7068 8.98641Z" fill="#717681"/>
<path d="M14.8856 10.6881C14.956 10.4926 14.8112 10.2864 14.6034 10.2864L9.44512 10.2864C9.23647 10.2864 9.09154 10.4941 9.16357 10.69L11.7699 17.7761C11.8666 18.0389 12.2388 18.0377 12.3337 17.7742L14.8856 10.6881Z" fill="#717681"/>
<path d="M14.4762 8.50631C14.6246 8.70406 14.4835 8.98641 14.2362 8.98641L9.72838 8.98641C9.48589 8.98641 9.3436 8.71365 9.48233 8.51477L11.6537 5.40222C11.7705 5.23469 12.017 5.2304 12.1396 5.39376L14.4762 8.50631Z" fill="#717681"/>
</svg>
