<svg width="24" height="24" viewBox="0 0 24 24" fill="none" xmlns="http://www.w3.org/2000/svg">
<path d="M10.5244 2C9.69599 2 9.02441 2.67157 9.02441 3.5V4.5C9.02441 5.32843 9.69599 6 10.5244 6C11.3528 6 12.0244 5.32843 12.0244 4.5V3.5C12.0244 2.67157 11.3528 2 10.5244 2Z" fill="#626F84"/>
<path d="M10.3744 17.5H9.0687V21.3514C9.0687 21.7104 8.77769 22.0014 8.4187 22.0014C8.05972 22.0014 7.7687 21.7104 7.7687 21.3514V17.5H6.87038C6.43127 17.5 6.10058 17.1004 6.18275 16.669L7.05113 12.11C7.45386 12.8724 8.06373 13.6139 8.89552 14.2995C9.17254 14.5278 9.5822 14.4883 9.81052 14.2113C10.0388 13.9343 9.99936 13.5246 9.72234 13.2963C8.41206 12.2164 7.85322 11.0746 7.76303 10.0761C7.67748 9.12906 8.00588 8.24128 8.63398 7.55694C9.09669 7.2055 9.67218 7 10.2885 7C11.1885 7 11.9442 7.42383 12.5075 8.04082L14.2617 9.78317C14.698 10.1953 15.2754 10.4249 15.8755 10.4249H17.3715C17.7305 10.4249 18.0215 10.7159 18.0215 11.0749C18.0215 11.366 17.8301 11.6124 17.5663 11.6952C18.1568 12.0784 18.5475 12.7436 18.5475 13.5V21.3514C18.5475 21.7104 18.2564 22.0014 17.8975 22.0014C17.5385 22.0014 17.2475 21.7104 17.2475 21.3514L17.2475 13.5C17.2475 13.0306 16.8669 12.65 16.3975 12.65C15.928 12.65 15.5475 13.0306 15.5475 13.5V14.5976C15.5475 14.9566 15.2564 15.2476 14.8975 15.2476C14.5385 15.2476 14.2475 14.9566 14.2475 14.5976V13.5C14.2475 12.7289 14.6534 12.0526 15.2632 11.6732C14.5568 11.553 13.8965 11.2265 13.369 10.7282L13.0245 10.4027V16.8C13.0245 17.1866 12.7111 17.5 12.3245 17.5H11.6744V21.3514C11.6744 21.7104 11.3834 22.0014 11.0244 22.0014C10.6654 22.0014 10.3744 21.7104 10.3744 21.3514V17.5Z" fill="#626F84"/>
</svg>
