<svg width="24" height="24" viewBox="0 0 24 24" fill="none" xmlns="http://www.w3.org/2000/svg">
<path d="M9.02441 3.5C9.02441 2.67157 9.69599 2 10.5244 2C11.3528 2 12.0244 2.67157 12.0244 3.5V4.5C12.0244 5.32843 11.3528 6 10.5244 6C9.69599 6 9.02441 5.32843 9.02441 4.5V3.5Z" fill="#626F84"/>
<path fill-rule="evenodd" clip-rule="evenodd" d="M6.65433 17.5H7.7687V21.3514C7.7687 21.7104 8.05972 22.0014 8.4187 22.0014C8.77769 22.0014 9.0687 21.7104 9.0687 21.3514V17.5H10.3744V21.3514C10.3744 21.7104 10.6654 22.0014 11.0244 22.0014C11.3834 22.0014 11.6744 21.7104 11.6744 21.3514V17.5H12.3237C12.7103 17.5 13.0237 17.1866 13.0237 16.8V10.4001L13.3682 10.7261C13.8958 11.2253 14.5566 11.5524 15.2636 11.673C14.6536 12.0523 14.2475 12.7287 14.2475 13.5V14.5976C14.2475 14.9566 14.5385 15.2476 14.8975 15.2476C15.2564 15.2476 15.5475 14.9566 15.5475 14.5976V13.5C15.5475 13.0306 15.928 12.65 16.3975 12.65C16.8669 12.65 17.2475 13.0306 17.2475 13.5L17.2475 21.3514C17.2475 21.7104 17.5385 22.0014 17.8975 22.0014C18.2564 22.0014 18.5475 21.7104 18.5475 21.3514V13.5C18.5475 12.7436 18.1568 12.0784 17.5663 11.6951C17.8301 11.6124 18.0215 11.366 18.0215 11.0748C18.0215 10.7159 17.7305 10.4248 17.3715 10.4248H15.8769C15.2761 10.4248 14.6981 10.1947 14.2617 9.7818C13.5547 9.14844 12.8533 8.46405 12.1764 7.79751C11.6657 7.29455 10.9676 7 10.1941 7C8.8417 7 7.67834 7.95703 7.41761 9.2841L5.96746 16.6651C5.88249 17.0975 6.21357 17.5 6.65433 17.5ZM9.42509 8.50731C9.65246 8.37493 9.91589 8.3 10.1941 8.3C11.0389 8.3 11.7237 8.98483 11.7237 9.8296V16.2H7.38369L8.09527 12.5782C8.35615 13.0202 8.66876 13.4251 9.00497 13.7699C9.25557 14.027 9.6671 14.0322 9.92414 13.7816C10.1812 13.531 10.1864 13.1194 9.93579 12.8624C9.31619 12.2269 8.82705 11.3627 8.6902 10.5394C8.55961 9.75371 8.74622 9.04011 9.42509 8.50731Z" fill="#626F84"/>
</svg>
