<svg width="24" height="24" viewBox="0 0 24 24" fill="none" xmlns="http://www.w3.org/2000/svg">
<path fill-rule="evenodd" clip-rule="evenodd" d="M5.65611 4.35054C5.46281 4.35054 5.3061 4.50724 5.3061 4.70054L5.30611 14.7011L18.295 14.7012C18.579 14.7012 18.7447 14.3807 18.5806 14.1489L15.702 10.0841C15.5467 9.86469 15.5424 9.57229 15.6913 9.34845L18.6538 4.89439C18.8085 4.66177 18.6417 4.35056 18.3624 4.35056L5.65611 4.35054ZM4.00611 15.3549L4.00612 20.336C4.00612 20.695 4.29713 20.986 4.65612 20.986C5.0151 20.986 5.30612 20.695 5.30612 20.336L5.30611 16.0011L18.295 16.0012C19.634 16.0012 20.4153 14.4903 19.6415 13.3976L17.0208 9.6969L19.7362 5.61435C20.4656 4.51772 19.6794 3.05056 18.3624 3.05056L5.65611 3.05054C4.74484 3.05054 4.0061 3.78927 4.0061 4.70054L4.00611 15.3474C4.00611 15.3487 4.0061 15.3499 4.0061 15.3511C4.0061 15.3524 4.00611 15.3536 4.00611 15.3549Z" fill="#626F84"/>
</svg>
