<svg width="24" height="24" viewBox="0 0 24 24" fill="none" xmlns="http://www.w3.org/2000/svg">
<path fill-rule="evenodd" clip-rule="evenodd" d="M6.16121 17.5915L6.11768 17.6698C5.85452 18.1435 5.35523 18.4373 4.81334 18.4373C3.98928 18.4373 3.32124 17.7693 3.32124 16.9452V10.8673C3.32124 8.52359 5.22123 6.62361 7.56498 6.62361H16.435C18.7787 6.62361 20.6787 8.52359 20.6787 10.8673V16.9452C20.6787 17.7693 20.0107 18.4373 19.1866 18.4373C18.6447 18.4373 18.1454 18.1435 17.8823 17.6698L17.8387 17.5915L16.8624 16.2932C15.7131 14.7649 13.9122 13.8659 12 13.8659C10.0878 13.8659 8.28684 14.7649 7.13754 16.2932L6.16121 17.5915ZM7.56498 5.32361C4.50326 5.32361 2.02124 7.80563 2.02124 10.8673V16.9452C2.02124 18.4873 3.27131 19.7373 4.81334 19.7373C5.82735 19.7373 6.76164 19.1876 7.25408 18.3012L8.17653 17.0746C9.08025 15.8728 10.4964 15.1659 12 15.1659C13.5036 15.1659 14.9197 15.8728 15.8234 17.0746L16.7458 18.3012C17.2383 19.1876 18.1726 19.7373 19.1866 19.7373C20.7286 19.7373 21.9787 18.4873 21.9787 16.9452V10.8673C21.9787 7.80562 19.4967 5.32361 16.435 5.32361H7.56498ZM7.40493 7.92163C7.04595 7.92163 6.75493 8.21265 6.75493 8.57163V10.0442H5.28232C4.92334 10.0442 4.63232 10.3352 4.63232 10.6942C4.63232 11.0532 4.92334 11.3442 5.28232 11.3442H6.75493V12.8167C6.75493 13.1757 7.04595 13.4667 7.40493 13.4667C7.76392 13.4667 8.05493 13.1757 8.05493 12.8167V11.3442H9.52741C9.8864 11.3442 10.1774 11.0532 10.1774 10.6942C10.1774 10.3352 9.8864 10.0442 9.52741 10.0442H8.05493V8.57163C8.05493 8.21265 7.76392 7.92163 7.40493 7.92163ZM18.0382 10.6948C18.0382 11.5077 17.3792 12.1667 16.5663 12.1667C15.7534 12.1667 15.0944 11.5077 15.0944 10.6948C15.0944 9.88195 15.7534 9.22297 16.5663 9.22297C17.3792 9.22297 18.0382 9.88195 18.0382 10.6948ZM19.3382 10.6948C19.3382 12.2257 18.0972 13.4667 16.5663 13.4667C15.0354 13.4667 13.7944 12.2257 13.7944 10.6948C13.7944 9.16398 15.0354 7.92297 16.5663 7.92297C18.0972 7.92297 19.3382 9.16398 19.3382 10.6948Z" fill="#626F84"/>
</svg>
