<svg width="24" height="24" viewBox="0 0 24 24" fill="none" xmlns="http://www.w3.org/2000/svg">
<path d="M18.4612 10.4762C18.4612 11.2891 17.8023 11.9481 16.9894 11.9481C16.1765 11.9481 15.5175 11.2891 15.5175 10.4762C15.5175 9.66336 16.1765 9.00438 16.9894 9.00438C17.8023 9.00438 18.4612 9.66336 18.4612 10.4762Z" fill="#626F84"/>
<path fill-rule="evenodd" clip-rule="evenodd" d="M2.02124 10.8674C2.02124 7.80569 4.50326 5.32367 7.56498 5.32367H16.435C19.4967 5.32367 21.9787 7.80568 21.9787 10.8674V16.9453C21.9787 18.4873 20.7286 19.7374 19.1866 19.7374C18.1726 19.7374 17.2383 19.1876 16.7458 18.3012L15.8234 17.0746C14.9197 15.8729 13.5036 15.166 12 15.166C10.4964 15.166 9.08025 15.8729 8.17653 17.0746L7.25408 18.3012C6.76164 19.1876 5.82735 19.7374 4.81335 19.7374C3.27131 19.7374 2.02124 18.4873 2.02124 16.9453V10.8674ZM19.7612 10.4762C19.7612 12.0071 18.5202 13.2481 16.9894 13.2481C15.4585 13.2481 14.2175 12.0071 14.2175 10.4762C14.2175 8.94539 15.4585 7.70438 16.9894 7.70438C18.5202 7.70438 19.7612 8.94539 19.7612 10.4762ZM6.37713 8.34775C6.37713 7.98877 6.66814 7.69775 7.02713 7.69775C7.38611 7.69775 7.67713 7.98877 7.67713 8.34775V9.82031H9.14961C9.50859 9.82031 9.79961 10.1113 9.79961 10.4703C9.79961 10.8293 9.50859 11.1203 9.14961 11.1203H7.67713V12.5928C7.67713 12.9518 7.38611 13.2428 7.02713 13.2428C6.66814 13.2428 6.37713 12.9518 6.37713 12.5928V11.1203H4.90452C4.54554 11.1203 4.25452 10.8293 4.25452 10.4703C4.25452 10.1113 4.54554 9.82031 4.90452 9.82031H6.37713V8.34775Z" fill="#626F84"/>
</svg>
