<svg width="24" height="24" viewBox="0 0 24 24" fill="none" xmlns="http://www.w3.org/2000/svg">
<path fill-rule="evenodd" clip-rule="evenodd" d="M12.4743 1.80994L12.2684 2.22193C12.1578 2.44305 11.8423 2.44305 11.7317 2.22193L11.5257 1.80994C11.426 1.61047 11.571 1.37578 11.794 1.37578H12.206C12.429 1.37578 12.5741 1.61047 12.4743 1.80994ZM11.1945 2.48799C11.3205 2.46492 11.4445 2.53162 11.5018 2.64622L11.7317 3.10593C11.8422 3.32705 12.1578 3.32705 12.2683 3.10593L12.4986 2.64545C12.5558 2.53094 12.6797 2.46422 12.8056 2.48723C13.1417 2.54864 13.4717 2.65351 13.6404 2.82228C14.0231 3.20492 13.6917 4.30161 13.3125 4.77988C13.263 4.84223 13.1856 4.87281 13.1061 4.87281H10.8939C10.8144 4.87281 10.737 4.84223 10.6875 4.77988C10.3083 4.30161 9.97692 3.20492 10.3596 2.82228C10.5276 2.65421 10.8586 2.5495 11.1945 2.48799ZM8.51617 5.9274C8.53771 5.92517 8.56009 5.92402 8.58332 5.92402L11.0864 5.92399C11.2906 5.92399 11.4277 6.12126 11.3315 6.3014C11.2689 6.41888 11.1877 6.5528 11.0864 6.68647C11.0351 6.75426 10.9785 6.82199 10.9166 6.88748C11.213 7.1979 11.6425 7.72835 12.0134 8.44194C12.383 7.73091 12.8108 7.20171 13.1071 6.89082C13.0439 6.8243 12.9863 6.75542 12.9341 6.68647C12.8328 6.5528 12.7517 6.41888 12.689 6.3014C12.5929 6.12126 12.7299 5.92399 12.9341 5.92399L15.4372 5.92402C15.4611 5.92402 15.4841 5.92523 15.5062 5.9276C15.5538 5.92517 15.6018 5.92393 15.65 5.92393C16.6386 5.92393 17.3586 6.39496 17.0995 7.27707C17.0875 7.31807 17.0491 7.34547 17.0064 7.34547H16.1645C15.5477 7.34547 14.9338 8.27765 14.8719 9.79383C14.8659 10.0732 14.8704 10.3822 14.8781 10.7288C14.8837 10.9815 15.0911 11.1806 15.3325 11.1806C15.574 11.1806 15.7698 10.9848 15.7698 10.7433V10.5682C15.7698 10.0921 15.9474 9.63311 16.2679 9.28101L19.2465 6.00809C19.6113 5.60727 20.3081 5.5627 20.6829 6.07253C21.8036 7.59681 22.1715 10.2063 21.5953 12.4137C21.3026 13.5349 20.754 14.6057 19.8804 15.401C18.9964 16.2057 17.8168 16.6935 16.3418 16.6935L16.0748 16.6935C15.6564 16.6935 15.3172 16.3543 15.3172 15.9359C15.3172 15.7038 15.1257 15.5101 14.8875 15.5101C14.645 15.5101 14.4501 15.7072 14.4501 15.9436V16.2006C14.4501 16.3765 14.509 16.5925 14.6381 16.8516C14.766 17.1081 14.9438 17.3701 15.1401 17.6317C15.2374 17.7615 15.3355 17.8862 15.4321 18.0091L15.4367 18.0149C15.5296 18.1331 15.6241 18.2532 15.7065 18.3647C15.7887 18.4759 15.8737 18.5979 15.94 18.7192C15.9962 18.8221 16.0901 19.0126 16.0901 19.2394C16.0901 19.7868 15.7685 20.211 15.4497 20.4998C15.121 20.7976 14.6998 21.0404 14.2886 21.2299C13.8718 21.4221 13.4327 21.5742 13.0441 21.679C12.6688 21.7802 12.2926 21.8504 12.0134 21.8504C11.7343 21.8504 11.3581 21.7802 10.9828 21.679C10.5941 21.5742 10.1551 21.4221 9.73826 21.23C9.32703 21.0404 8.90592 20.7976 8.57715 20.4998C8.25838 20.211 7.93674 19.7868 7.93674 19.2394C7.93674 19.0126 8.03064 18.8221 8.08692 18.7192C8.15323 18.5979 8.23817 18.4759 8.32035 18.3647C8.40277 18.2532 8.49716 18.1332 8.59013 18.015C8.69 17.888 8.78986 17.761 8.88682 17.6317C9.08308 17.3701 9.26093 17.1082 9.38879 16.8516C9.51787 16.5925 9.57681 16.3765 9.57681 16.2006V15.9436C9.57681 15.7072 9.38186 15.5101 9.13939 15.5101C8.90119 15.5101 8.70971 15.7038 8.70971 15.9359C8.70971 16.3543 8.37052 16.6935 7.95211 16.6935L7.68508 16.6935C6.21013 16.6935 5.03044 16.2057 4.14649 15.401C3.27286 14.6057 2.72426 13.5349 2.43157 12.4137C1.85534 10.2063 2.22331 7.59681 3.34395 6.07253C3.71876 5.5627 4.41555 5.60727 4.78035 6.0081L7.75901 9.28101C8.07946 9.63311 8.25705 10.0921 8.25705 10.5682V10.7433C8.25705 10.9848 8.45283 11.1806 8.69434 11.1806C8.9358 11.1806 9.14317 10.9815 9.14879 10.7288C9.15625 10.3938 9.16072 10.0939 9.15556 9.8219C9.10014 8.28917 8.48247 7.34547 7.86183 7.34547H7.01998C6.97725 7.34547 6.9389 7.31807 6.92686 7.27707C6.66777 6.39496 7.38774 5.92393 8.37633 5.92393C8.42326 5.92393 8.46988 5.9251 8.51617 5.9274ZM10.4346 9.31377C10.4696 9.78683 10.4593 10.2729 10.4485 10.7577C10.4274 11.7056 9.65386 12.4806 8.69434 12.4806C7.73486 12.4806 6.95705 11.7028 6.95705 10.7433V10.5682C6.95705 10.4157 6.90018 10.2688 6.79757 10.156L4.14174 7.23782C3.48594 8.44128 3.24131 10.3688 3.68941 12.0853C3.9354 13.0276 4.37812 13.8538 5.02163 14.4397C5.62051 14.9849 6.42522 15.352 7.49807 15.3902C7.72775 14.7031 8.37893 14.2101 9.13939 14.2101C10.0938 14.2101 10.8768 14.9832 10.8768 15.9436V16.2006C10.8768 16.6521 10.7308 17.0733 10.5523 17.4314C10.3727 17.7919 10.1405 18.1269 9.92674 18.4118C9.81947 18.5548 9.71284 18.6904 9.61754 18.8116L9.6166 18.8128C9.51885 18.937 9.43564 19.0429 9.36566 19.1376C9.31555 19.2053 9.27935 19.2579 9.25412 19.298C9.27698 19.3475 9.32954 19.4273 9.44987 19.5363C9.64288 19.7111 9.93357 19.8885 10.2824 20.0493C10.6257 20.2075 10.995 20.3358 11.3213 20.4238C11.6609 20.5154 11.9063 20.5504 12.0134 20.5504C12.1206 20.5504 12.3659 20.5154 12.7056 20.4238C13.0319 20.3358 13.4012 20.2075 13.7444 20.0493C14.0933 19.8885 14.384 19.7111 14.577 19.5363C14.6973 19.4273 14.7499 19.3475 14.7728 19.298C14.7475 19.2579 14.7113 19.2053 14.6612 19.1376C14.5912 19.0429 14.508 18.937 14.4103 18.8128L14.4094 18.8116C14.3141 18.6904 14.2074 18.5548 14.1001 18.4118C13.8864 18.1269 13.6542 17.7919 13.4746 17.4314C13.2961 17.0733 13.1501 16.6521 13.1501 16.2006V15.9436C13.1501 14.9832 13.9331 14.2101 14.8875 14.2101C15.6479 14.2101 16.2991 14.7031 16.5288 15.3902C17.6017 15.352 18.4064 14.9849 19.0052 14.4397C19.6488 13.8538 20.0915 13.0276 20.3375 12.0853C20.7856 10.3688 20.5409 8.44127 19.8851 7.23782L17.2293 10.156C17.1267 10.2688 17.0698 10.4157 17.0698 10.5682V10.7433C17.0698 11.7028 16.292 12.4806 15.3325 12.4806C14.373 12.4806 13.5995 11.7056 13.5784 10.7577C13.5676 10.2733 13.5573 9.7877 13.5921 9.31504C13.5921 9.04889 13.2751 8.91655 13.1379 9.1446C13.0475 9.29487 12.9757 9.46165 12.8774 9.69604C12.8646 9.73085 12.8521 9.76602 12.8398 9.80155C12.7217 10.1445 12.3974 10.3932 12.0134 10.3932C11.6295 10.3932 11.3052 10.1445 11.1871 9.80155C11.176 9.7693 11.1646 9.73735 11.153 9.70569C11.0526 9.46621 10.9801 9.29693 10.8884 9.1446C10.7514 8.91685 10.4355 9.04831 10.4346 9.31377Z" fill="#626F84"/>
</svg>
