<svg width="24" height="24" viewBox="0 0 24 24" fill="none" xmlns="http://www.w3.org/2000/svg">
<path d="M12.4949 8.05076C12.2215 7.77739 11.7783 7.77739 11.505 8.05076L11.0807 8.475C10.8074 8.74836 10.8074 9.19158 11.0807 9.46495L11.505 9.88918C11.7783 10.1625 12.2215 10.1625 12.4949 9.88918L12.9191 9.46495C13.1925 9.19158 13.1925 8.74836 12.9191 8.475L12.4949 8.05076Z" fill="#626F84"/>
<path fill-rule="evenodd" clip-rule="evenodd" d="M9.99991 2C10.3589 2 10.6499 2.29101 10.6499 2.65V5H13.3499V2.65C13.3499 2.29101 13.6409 2 13.9999 2C14.3589 2 14.6499 2.29101 14.6499 2.65V5H15.6915C16.0814 5 16.4507 5.17501 16.6976 5.47679L17.9314 6.98471C18.8589 8.1184 18.8322 9.75619 17.8681 10.859L14.2585 14.9877C14.1674 15.092 14.0709 15.1883 13.9697 15.2766C14.9804 15.9257 15.6499 17.0596 15.6499 18.35C15.6499 20.3658 14.0158 22 11.9999 22C9.98408 22 8.34991 20.3658 8.34991 18.35C8.34991 17.991 8.64093 17.7 8.99991 17.7C9.3589 17.7 9.64991 17.991 9.64991 18.35C9.64991 19.6478 10.702 20.7 11.9999 20.7C13.2978 20.7 14.3499 19.6478 14.3499 18.35C14.3499 17.1153 13.3978 16.1031 12.1878 16.0074C11.2961 16.0628 10.3841 15.723 9.74137 14.9877L6.13181 10.859C5.16771 9.75619 5.14094 8.1184 6.0685 6.98471L7.30224 5.47679C7.54915 5.17502 7.91848 5 8.30839 5H9.34991V2.65C9.34991 2.29101 9.64093 2 9.99991 2ZM9.99991 6.3L8.30839 6.3L7.07465 7.80792C6.54903 8.45034 6.5642 9.37842 7.11052 10.0033L10.7201 14.1321C11.0319 14.4888 11.4556 14.6813 11.8881 14.7095C11.9244 14.7032 11.9618 14.7 11.9999 14.7C12.059 14.7 12.1177 14.7014 12.176 14.7041C12.586 14.6618 12.9834 14.4711 13.2798 14.1321L16.8894 10.0033C17.4357 9.37843 17.4508 8.45035 16.9252 7.80792L15.6915 6.3L13.9999 6.3H9.99991Z" fill="#626F84"/>
</svg>
