<svg width="24" height="24" viewBox="0 0 24 24" fill="none" xmlns="http://www.w3.org/2000/svg">
<path d="M7.92954 9.73251C7.92954 9.91251 7.99954 10.0825 8.13954 10.2125C8.40954 10.4525 8.81955 10.4325 9.05955 10.1725L11.7795 7.28136L11.7795 15.35C11.7795 16.6479 10.7274 17.7 9.42952 17.7L7.64985 17.7C7.29086 17.7 6.99985 17.991 6.99985 18.35C6.99985 18.709 7.29086 19 7.64985 19L9.42952 19C11.4454 19 13.0795 17.3658 13.0795 15.35L13.0795 7.27185L13.095 7.27194L15.5095 10.1325C15.7495 10.4025 16.1595 10.4125 16.4295 10.1725C16.6895 9.93249 16.7095 9.52249 16.4695 9.25249L12.965 5.2325C12.685 4.9225 12.205 4.9225 11.925 5.2325L8.09954 9.29251C7.97954 9.42251 7.92954 9.57251 7.92954 9.73251Z" fill="#626F84"/>
</svg>
