<svg width="24" height="24" viewBox="0 0 24 24" fill="none" xmlns="http://www.w3.org/2000/svg">
<path d="M4.97559 7.66727C4.97559 5.65143 6.60975 4.01727 8.62559 4.01727H15.3746C17.3904 4.01727 19.0246 5.65143 19.0246 7.66727V13.1506C19.0246 13.5095 18.7336 13.8006 18.3746 13.8006C18.0156 13.8006 17.7246 13.5095 17.7246 13.1506V7.66727C17.7246 6.3694 16.6725 5.31727 15.3746 5.31727H8.62559C7.32772 5.31727 6.27559 6.3694 6.27559 7.66727V14.5494C6.75617 14.2197 7.33798 14.0267 7.96487 14.0267H12.9594C13.3184 14.0267 13.6094 14.3177 13.6094 14.6767C13.6094 15.0357 13.3184 15.3267 12.9594 15.3267H7.96487C7.0319 15.3267 6.27559 16.083 6.27559 17.016C6.27559 17.9489 7.0319 18.7053 7.96486 18.7053L10.8651 18.7053C11.2241 18.7053 11.5151 18.9963 11.5151 19.3553C11.5151 19.7142 11.2241 20.0053 10.8651 20.0053L7.96486 20.0053C6.31393 20.0053 4.97559 18.6669 4.97559 17.016L4.97559 17.0119L4.97559 17.0101V7.66727Z" fill="#616F84"/>
<path d="M8.84141 6.99432C8.48242 6.99432 8.19141 7.28534 8.19141 7.64432C8.19141 8.00331 8.48242 8.29432 8.84141 8.29432H15.1587C15.5177 8.29432 15.8087 8.00331 15.8087 7.64432C15.8087 7.28534 15.5177 6.99432 15.1587 6.99432L8.84141 6.99432Z" fill="#616F84"/>
<path d="M8.84141 9.58685C8.48242 9.58685 8.19141 9.87787 8.19141 10.2369C8.19141 10.5958 8.48242 10.8869 8.84141 10.8869H15.1587C15.5177 10.8869 15.8087 10.5958 15.8087 10.2369C15.8087 9.87787 15.5177 9.58685 15.1587 9.58685H8.84141Z" fill="#616F84"/>
<path d="M17.3746 19.5241C17.9269 19.5241 18.3746 19.0764 18.3746 18.5241C18.3746 17.9719 17.9269 17.5241 17.3746 17.5241C16.8223 17.5241 16.3746 17.9719 16.3746 18.5241C16.3746 19.0764 16.8223 19.5241 17.3746 19.5241Z" fill="#616F84"/>
<path fill-rule="evenodd" clip-rule="evenodd" d="M21.5344 19.726C22.1211 19.0015 22.1279 17.9944 21.5453 17.2666C20.7384 16.2588 19.3327 14.9998 17.3449 14.9998C15.3536 14.9998 13.9501 16.2634 13.147 17.2721C12.5694 17.9975 12.5763 18.9984 13.1579 19.7205C13.9713 20.7304 15.3839 22 17.3449 22C19.3025 22 20.7173 20.735 21.5344 19.726ZM17.3449 20.7C18.712 20.7 19.7936 19.8099 20.5241 18.9078C20.7295 18.6542 20.7279 18.3258 20.5305 18.0791C19.818 17.1892 18.7458 16.2998 17.3449 16.2998C15.9424 16.2998 14.8728 17.1916 14.164 18.0818C13.9687 18.3271 13.9672 18.6528 14.1703 18.9051C14.8972 19.8075 15.9763 20.7 17.3449 20.7Z" fill="#616F84"/>
</svg>
