<svg width="24" height="24" viewBox="0 0 24 24" fill="none" xmlns="http://www.w3.org/2000/svg">
<path fill-rule="evenodd" clip-rule="evenodd" d="M5 7C5 5.34314 6.34315 4 8 4H16C17.6569 4 19 5.34315 19 7V12.4494C19 13.1922 18.2786 13.7263 17.5362 13.7028C17.473 13.7008 17.4092 13.6998 17.3449 13.6998C15.7114 13.6998 14.4157 14.3553 13.457 15.1224C13.2041 15.3247 12.8949 15.4494 12.5709 15.4494H7.85585C6.99949 15.4494 6.30527 16.1436 6.30527 17C6.30527 17.0149 6.30494 17.0299 6.30461 17.0448C6.30389 17.0772 6.30317 17.1096 6.30583 17.1418C6.37791 18.0144 7.10889 18.7 8 18.7H10.9334C11.2098 18.7 11.4339 18.9118 11.4932 19.1818C11.5781 19.5676 11.3181 20 10.9231 20H8C6.34315 20 5 18.6568 5 17V7ZM15.1541 9.61702C15.2871 9.61702 15.4252 9.62917 15.5338 9.70602C15.7001 9.82375 15.8086 10.0176 15.8086 10.2369C15.8086 10.5959 15.5176 10.8869 15.1586 10.8869H8.84131C8.48232 10.8869 8.19131 10.5959 8.19131 10.2369C8.19131 10.0176 8.29985 9.82375 8.46613 9.70602C8.57467 9.62917 8.71277 9.61702 8.84576 9.61702H15.1541ZM8.84131 6.99435C8.48232 6.99435 8.19131 7.28536 8.19131 7.64435C8.19131 8.00333 8.48232 8.29435 8.84131 8.29435H15.1586C15.5176 8.29435 15.8086 8.00333 15.8086 7.64435C15.8086 7.28536 15.5176 6.99435 15.1586 6.99435L8.84131 6.99435Z" fill="#616F84"/>
<path fill-rule="evenodd" clip-rule="evenodd" d="M21.5453 17.2666C22.128 17.9944 22.1211 19.0015 21.5344 19.726C20.7173 20.735 19.3026 22 17.345 22C15.3839 22 13.9713 20.7305 13.1579 19.7206C12.5763 18.9985 12.5695 17.9975 13.147 17.2721C13.9502 16.2634 15.3537 14.9998 17.345 14.9998C19.3327 14.9998 20.7385 16.2588 21.5453 17.2666ZM19.3503 18.4999C19.3503 19.6045 18.4549 20.5 17.3503 20.5C16.2457 20.5 15.3502 19.6045 15.3502 18.4999C15.3502 17.3953 16.2457 16.4999 17.3503 16.4999C18.4549 16.4999 19.3503 17.3953 19.3503 18.4999Z" fill="#616F84"/>
</svg>
