<svg width="24" height="24" viewBox="0 0 24 24" fill="none" xmlns="http://www.w3.org/2000/svg">
<path d="M13.9887 2.02726C13.3803 1.92354 12.7591 2.11906 12.3198 2.55258L3.84787 10.9127C2.73435 12.0115 3.30304 13.9083 4.83744 14.2133L8.67892 14.9767C9.02788 15.0461 9.25624 15.3831 9.1913 15.7329L8.44875 19.7327C8.25346 20.7847 8.95692 21.7929 10.0116 21.9727C10.62 22.0764 11.2412 21.8809 11.6805 21.4474L20.1524 13.0873C21.266 11.9884 20.6973 10.0916 19.1629 9.78668L15.3214 9.02325C14.9724 8.9539 14.7441 8.61688 14.809 8.26708L15.5515 4.26723C15.7468 3.21529 15.0434 2.20706 13.9887 2.02726Z" fill="#626F84"/>
</svg>
