<svg width="24" height="24" viewBox="0 0 24 24" fill="none" xmlns="http://www.w3.org/2000/svg">
<path fill-rule="evenodd" clip-rule="evenodd" d="M20.5241 13.9918L15.8192 18.6967C12.8902 21.6256 8.14149 21.6256 5.21256 18.6967C2.28363 15.7678 2.28364 11.019 5.21257 8.09012L9.91748 3.38522C10.4252 2.87754 11.2483 2.87754 11.756 3.38522L13.8327 5.46197C14.3404 5.96965 14.3404 6.79277 13.8327 7.30045L9.32665 11.8065C8.54934 12.5838 8.54934 13.8441 9.32664 14.6214C10.1039 15.3987 11.3642 15.3987 12.1415 14.6214L16.6476 10.1153C17.1553 9.60764 17.9784 9.60764 18.4861 10.1153L20.5241 12.1533C21.0318 12.661 21.0318 13.4841 20.5241 13.9918ZM14.8999 17.7775L17.1385 15.5389L15.1005 13.5009L13.0607 15.5406C11.7758 16.8256 9.69239 16.8256 8.4074 15.5406C7.12242 14.2556 7.12242 12.1722 8.40741 10.8873L10.4472 8.84751L8.37042 6.77076L6.13181 9.00936C3.71056 11.4306 3.71055 15.3562 6.1318 17.7775C8.55305 20.1987 12.4787 20.1987 14.8999 17.7775ZM9.28966 5.85152L11.3664 7.92827L12.9135 6.38121L10.8367 4.30446L9.28966 5.85152ZM19.6048 13.0726L18.0578 14.6196L16.0198 12.5816L17.5668 11.0346L19.6048 13.0726Z" fill="#626F84"/>
</svg>
