<svg width="24" height="24" viewBox="0 0 24 24" fill="none" xmlns="http://www.w3.org/2000/svg">
<path fill-rule="evenodd" clip-rule="evenodd" d="M15.8192 18.6967L20.5241 13.9918C21.0318 13.4841 21.0318 12.661 20.5241 12.1533L18.4861 10.1153C17.9784 9.60764 17.1553 9.60764 16.6476 10.1153L12.1415 14.6214C11.3642 15.3987 10.1039 15.3987 9.32664 14.6214C8.54934 13.8441 8.54934 12.5838 9.32665 11.8065L13.8327 7.30045C14.3404 6.79277 14.3404 5.96965 13.8327 5.46197L11.756 3.38522C11.2483 2.87754 10.4252 2.87754 9.91748 3.38522L5.21257 8.09012C2.28364 11.019 2.28363 15.7678 5.21256 18.6967C8.14149 21.6256 12.8902 21.6256 15.8192 18.6967ZM17.1385 15.5389L14.8999 17.7775C12.4787 20.1987 8.55305 20.1987 6.1318 17.7775C3.71055 15.3562 3.71056 11.4306 6.13181 9.00936L8.37042 6.77076L10.4472 8.84751L8.40741 10.8873C7.12242 12.1722 7.12242 14.2556 8.4074 15.5406C9.69239 16.8256 11.7758 16.8256 13.0607 15.5406L15.1005 13.5009L17.1385 15.5389ZM11.3664 7.92827L9.28966 5.85152L10.8367 4.30446L12.9135 6.38121L11.3664 7.92827ZM18.0578 14.6196L19.6048 13.0726L17.5668 11.0346L16.0198 12.5816L18.0578 14.6196Z" fill="#626F84"/>
</svg>
