<svg width="24" height="24" viewBox="0 0 24 24" fill="none" xmlns="http://www.w3.org/2000/svg">
<path fill-rule="evenodd" clip-rule="evenodd" d="M20.5243 13.9918L15.8194 18.6967C12.8905 21.6256 8.14174 21.6256 5.21281 18.6967C2.28388 15.7678 2.28388 11.019 5.21282 8.09012L9.91773 3.38522C10.4254 2.87754 11.2485 2.87754 11.7562 3.38522L13.833 5.46197C14.3406 5.96965 14.3406 6.79277 13.833 7.30045L9.32689 11.8065C8.54958 12.5838 8.54958 13.8441 9.32689 14.6214C10.1042 15.3987 11.3644 15.3987 12.1418 14.6214L16.6478 10.1153C17.1555 9.60764 17.9786 9.60764 18.4863 10.1153L20.5243 12.1533C21.032 12.661 21.032 13.4841 20.5243 13.9918ZM9.2899 5.85152L11.3667 7.92827L12.9137 6.38121L10.837 4.30446L9.2899 5.85152ZM19.6051 13.0726L18.058 14.6196L16.02 12.5816L17.5671 11.0346L19.6051 13.0726Z" fill="#717681"/>
</svg>
