<svg width="24" height="24" viewBox="0 0 24 24" fill="none" xmlns="http://www.w3.org/2000/svg">
<path d="M18.7408 16.1699L14.5526 20.1026C13.8766 20.7374 13.0176 21.0675 12.1513 21.0905L12.4833 20.3265C13.1205 18.8601 12.7291 17.1497 11.5177 16.1063L9.27817 14.1773C7.73754 12.8504 5.40958 13.0382 4.10158 14.595L3.79233 14.963L2.28671 13.6199C0.782417 12.278 0.650773 9.97074 1.99268 8.46645L5.46466 4.57431C6.80621 3.07041 9.11275 2.93838 10.6171 4.27937L11.0945 4.70487L8.16629 7.25804C6.93918 8.32799 6.88792 10.218 8.05523 11.3529C9.09489 12.3637 10.7363 12.4073 11.8281 11.4532L12.5268 10.8426C12.7838 10.618 13.1708 10.6305 13.4129 10.8712L18.7408 16.1699Z" fill="#717681"/>
<path d="M19.7172 15.3076L14.3296 9.94944C13.6035 9.22732 12.4425 9.18988 11.6714 9.86372L10.9727 10.4742C10.3907 10.9829 9.51566 10.9596 8.96144 10.4208C8.33915 9.81579 8.36648 8.80826 9.02064 8.23789L13.7493 4.11488C15.1956 2.93333 17.3242 3.09496 18.5744 4.49675L22.0455 8.38856C23.2967 9.79142 23.2163 11.9321 21.8634 13.2372L19.7172 15.3076Z" fill="#717681"/>
<path d="M10.8256 20.8795C10.3942 20.7255 9.98546 20.4876 9.62439 20.1655L4.76286 15.8288L5.0969 15.4312C5.93904 14.4289 7.43786 14.308 8.42978 15.1623L10.6693 17.0913C11.4493 17.7631 11.7012 18.8643 11.291 19.8084L10.8256 20.8795Z" fill="#717681"/>
</svg>
