<svg width="24" height="24" viewBox="0 0 24 24" fill="none" xmlns="http://www.w3.org/2000/svg">
<path d="M10.5001 3.5C10.5001 2.67157 11.1717 2 12.0001 2C12.8285 2 13.5001 2.67157 13.5001 3.5V4.5C13.5001 5.32843 12.8285 6 12.0001 6C11.1717 6 10.5001 5.32843 10.5001 4.5V3.5Z" fill="#626F84"/>
<path fill-rule="evenodd" clip-rule="evenodd" d="M8.86416 10.2631C8.97287 10.0253 9.09181 9.81451 9.22103 9.6302L10.0072 14.8227V21.3676C10.0072 21.7265 10.2982 22.0176 10.6572 22.0176C11.0162 22.0176 11.3072 21.7265 11.3072 21.3676V15.1952H12.701V21.3676C12.701 21.7265 12.9921 22.0176 13.351 22.0176C13.71 22.0176 14.001 21.7265 14.001 21.3676V14.8342L14.7799 9.63965C14.9066 9.82171 15.0233 10.0294 15.1302 10.2631C15.5923 11.2739 15.8269 12.7004 15.8269 14.3827C15.8269 14.7417 16.1179 15.0327 16.4769 15.0327C16.8359 15.0327 17.1269 14.7417 17.1269 14.3827C17.1269 12.6084 16.8836 10.9719 16.3125 9.72262C15.9277 8.88085 15.3764 8.18533 14.6369 7.7679C14.5026 7.6821 14.3192 7.59403 14.0692 7.51643C13.8757 7.45225 13.6717 7.40486 13.4569 7.37592C13.0736 7.31303 12.5957 7.27319 11.9999 7.27319C11.4162 7.27319 10.9456 7.31144 10.5663 7.37214C10.308 7.40482 10.0651 7.46407 9.83713 7.54702C9.66264 7.607 9.52423 7.67191 9.41452 7.73643C8.64624 8.14986 8.0765 8.85933 7.68185 9.72262C7.11072 10.9719 6.86743 12.6084 6.86743 14.3827C6.86743 14.7417 7.15845 15.0327 7.51743 15.0327C7.87642 15.0327 8.16743 14.7417 8.16743 14.3827C8.16743 12.7004 8.40206 11.2739 8.86416 10.2631ZM13.1486 8.64373C12.8648 8.603 12.4897 8.57319 11.9999 8.57319C11.5014 8.57319 11.1217 8.60408 10.8361 8.64593C10.8132 8.65102 10.7897 8.65492 10.7659 8.65756L10.7492 8.65946C10.6084 8.6827 10.4933 8.70842 10.4001 8.73368L11.1816 13.8952H12.8273L13.6012 8.73403C13.5112 8.7096 13.4007 8.68473 13.2665 8.66208C13.2538 8.66047 13.2412 8.65896 13.2285 8.65756C13.2012 8.65455 13.1746 8.6499 13.1486 8.64373Z" fill="#626F84"/>
</svg>
