<svg width="24" height="24" viewBox="0 0 24 24" fill="none" xmlns="http://www.w3.org/2000/svg">
<path fill-rule="evenodd" clip-rule="evenodd" d="M3.77694 5.13224C3.07134 4.28552 3.67344 3 4.77563 3H19.2245C20.3267 3 20.9288 4.28552 20.2232 5.13224L12.6502 14.2238V19.7H16.3501C16.7091 19.7 17.0001 19.991 17.0001 20.35C17.0001 20.709 16.7091 21 16.3501 21H7.65007C7.29109 21 7.00007 20.709 7.00007 20.35C7.00007 19.991 7.29109 19.7 7.65007 19.7H11.3502V14.2201C8.82504 11.1912 6.29996 8.1626 3.77694 5.13224ZM16.3433 7.7575C14.6762 7.23014 13.5773 7.33886 12.5993 7.62183C11.5378 7.92893 10.9369 8.29401 9.81093 8.29401C8.33561 8.29401 7.49967 7.53701 7.24741 7.26613L4.77563 4.3L19.2245 4.3L16.3433 7.7575Z" fill="#717681"/>
</svg>
