<svg width="24" height="24" viewBox="0 0 24 24" fill="none" xmlns="http://www.w3.org/2000/svg">
<path d="M9.95959 10.0404C9.7737 9.85448 9.49412 9.79887 9.25123 9.89948C9.00834 10.0001 8.84998 10.2371 8.84998 10.5V15.5C8.84998 15.859 9.14099 16.15 9.49998 16.15C9.85896 16.15 10.15 15.859 10.15 15.5V12.0692L11.5404 13.4596C11.7942 13.7135 12.2058 13.7135 12.4596 13.4596L13.85 12.0692V15.5C13.85 15.859 14.141 16.15 14.5 16.15C14.859 16.15 15.15 15.859 15.15 15.5V10.5C15.15 10.2371 14.9916 10.0001 14.7487 9.89948C14.5058 9.79887 14.2263 9.85448 14.0404 10.0404L12 12.0808L9.95959 10.0404Z" fill="#626F84"/>
<path fill-rule="evenodd" clip-rule="evenodd" d="M6.63701 4.60063C6.50393 5.22627 6.61497 5.83736 6.89847 6.34541C5.28862 6.39894 4 7.72085 4 9.34372V17C4 18.6569 5.34315 20 7 20H17C18.6569 20 20 18.6569 20 17V9.34372C20 7.72077 18.7113 6.39881 17.1013 6.3454C17.3848 5.83735 17.4958 5.22627 17.3627 4.60063L17.3448 4.51629C17.1682 3.686 16.5602 3.01402 15.7516 2.75552C14.2972 2.29054 12.793 2.88305 11.9999 4.05241C11.2068 2.88305 9.70254 2.29054 8.24814 2.75552C7.43959 3.01402 6.83157 3.68599 6.65495 4.51629L6.63701 4.60063ZM12.6558 6.33611L12.7502 5.63955C12.9181 4.40015 14.1644 3.61291 15.3557 3.99378C15.7199 4.1102 15.9937 4.41283 16.0733 4.78677L16.0912 4.87111C16.2518 5.62621 15.676 6.33741 14.904 6.33741H12.656L12.6558 6.33611ZM11.3439 6.33612L11.2496 5.63955C11.0817 4.40015 9.83533 3.61291 8.64402 3.99378C8.27988 4.1102 8.00605 4.41283 7.9265 4.78677L7.90856 4.87111C7.74794 5.62621 8.32378 6.33741 9.09577 6.33741H11.3438L11.3439 6.33612ZM7 7.64372C6.06112 7.64372 5.3 8.40484 5.3 9.34372V17C5.3 17.9389 6.06112 18.7 7 18.7H17C17.9389 18.7 18.7 17.9389 18.7 17V9.34372C18.7 8.40484 17.9389 7.64372 17 7.64372H7Z" fill="#626F84"/>
</svg>
