<svg width="24" height="24" viewBox="0 0 24 24" fill="none" xmlns="http://www.w3.org/2000/svg">
<path fill-rule="evenodd" clip-rule="evenodd" d="M5.25312 3.3418C4.53515 3.3418 3.95312 3.92382 3.95312 4.6418V19.7266C3.95312 20.4446 4.53515 21.0266 5.25312 21.0266H6.07776V12.5981C6.07776 11.1621 7.24182 9.99808 8.67776 9.99808H15.9768V4.6418C15.9768 3.92383 15.3948 3.3418 14.6768 3.3418H5.25312ZM7.36731 12.5657C7.36731 11.8477 7.94934 11.2657 8.66731 11.2657H18.6893C19.4072 11.2657 19.9893 11.8477 19.9893 12.5657V19.7056C19.9893 20.4235 19.4072 21.0056 18.6893 21.0056H16.8001C16.0822 21.0056 15.5001 20.4235 15.5001 19.7056V15.7212C15.5001 15.3279 15.1762 15.0118 14.783 15.0214L12.183 15.085C11.8032 15.0943 11.5001 15.4048 11.5001 15.7848V19.7722C11.5001 20.5022 10.8992 21.0891 10.1694 21.0718L7.36731 21.0056V12.5657ZM9.30642 7.6517C9.30642 8.01068 9.59744 8.3017 9.95642 8.3017C10.3154 8.3017 10.6064 8.01068 10.6064 7.6517L10.6064 6.08914C10.6064 5.73015 10.3154 5.43914 9.95642 5.43914C9.59744 5.43914 9.30642 5.73015 9.30642 6.08914L9.30642 7.6517ZM12.5663 8.3017C12.2073 8.3017 11.9163 8.01068 11.9163 7.6517L11.9163 6.08914C11.9163 5.73015 12.2073 5.43914 12.5663 5.43914C12.9253 5.43914 13.2163 5.73015 13.2163 6.08914V7.6517C13.2163 8.01068 12.9253 8.3017 12.5663 8.3017ZM6.71365 7.6517C6.71365 8.01068 7.00466 8.3017 7.36365 8.3017C7.72263 8.3017 8.01365 8.01068 8.01365 7.6517L8.01365 6.08914C8.01365 5.73015 7.72263 5.43914 7.36365 5.43914C7.00466 5.43914 6.71365 5.73015 6.71365 6.08914L6.71365 7.6517Z" fill="#717681"/>
</svg>
