<svg width="24" height="24" viewBox="0 0 24 24" fill="none" xmlns="http://www.w3.org/2000/svg">
<path fill-rule="evenodd" clip-rule="evenodd" d="M5.25312 4.6418L14.6768 4.6418V10.0117H8.66731C7.94934 10.0117 7.36731 10.5937 7.36731 11.3117V19.7126L7.36738 19.7266H5.25312V4.6418ZM15.9768 4.6418V10.0117H18.6893C19.4072 10.0117 19.9893 10.5937 19.9893 11.3117V19.7126C19.9893 20.4305 19.4072 21.0126 18.6893 21.0126H15.9885C15.2706 21.0126 14.6885 20.4305 14.6885 19.7126V16.3109V15.0109H13.9885H13.3885H12.6885V16.3109V19.7126C12.6885 20.4305 12.1065 21.0126 11.3885 21.0126H8.66731L8.66512 21.0126C8.72694 21.0217 8.79018 21.0265 8.85451 21.0266H5.25312C4.53515 21.0266 3.95312 20.4446 3.95312 19.7266V4.6418C3.95312 3.92382 4.53515 3.3418 5.25312 3.3418H14.6768C15.3948 3.3418 15.9768 3.92383 15.9768 4.6418ZM11.3885 15.0109C11.3885 14.293 11.9706 13.7109 12.6885 13.7109H14.6885C15.4065 13.7109 15.9885 14.293 15.9885 15.0109L15.9885 19.7126H18.6893L18.6893 11.3117H8.66731V19.7126H11.3885L11.3885 15.0109ZM9.30642 7.91699C9.30642 8.27598 9.59744 8.56699 9.95642 8.56699C10.3154 8.56699 10.6064 8.27598 10.6064 7.91699L10.6064 6.35444C10.6064 5.99545 10.3154 5.70444 9.95642 5.70444C9.59744 5.70444 9.30642 5.99545 9.30642 6.35444L9.30642 7.91699ZM12.5663 8.56699C12.2073 8.56699 11.9163 8.27598 11.9163 7.91699L11.9163 6.35444C11.9163 5.99545 12.2073 5.70444 12.5663 5.70444C12.9253 5.70444 13.2163 5.99545 13.2163 6.35444V7.91699C13.2163 8.27598 12.9253 8.56699 12.5663 8.56699ZM6.71365 7.91699C6.71365 8.27598 7.00466 8.56699 7.36365 8.56699C7.72263 8.56699 8.01365 8.27598 8.01365 7.91699L8.01365 6.35444C8.01365 5.99545 7.72263 5.70444 7.36365 5.70444C7.00466 5.70444 6.71365 5.99545 6.71365 6.35444L6.71365 7.91699Z" fill="#717681"/>
</svg>
