<svg width="24" height="24" viewBox="0 0 24 24" fill="none" xmlns="http://www.w3.org/2000/svg">
<path fill-rule="evenodd" clip-rule="evenodd" d="M12 3C9.33497 3 7.26365 5.32002 7.56456 7.96802L7.8266 10.274C8.06781 12.3966 9.86377 14 12 14C14.1363 14 15.9322 12.3966 16.1734 10.274L16.4355 7.96803C16.7364 5.32002 14.6651 3 12 3ZM14.8817 10.1272L15.1438 7.82124C15.3571 5.94439 13.889 4.3 12 4.3C10.1111 4.3 8.64297 5.94439 8.85625 7.82124L9.11829 10.1272C9.28484 11.5928 10.5249 12.7 12 12.7C13.4751 12.7 14.7152 11.5928 14.8817 10.1272Z" fill="#717681"/>
<path fill-rule="evenodd" clip-rule="evenodd" d="M10.1464 15C7.33419 15 4.89931 16.9532 4.28926 19.6984L4.18932 20.1481C4.09217 20.5853 4.42482 21 4.87265 21H19.1274C19.5752 21 19.9079 20.5853 19.8107 20.1481L19.7108 19.6984C19.1007 16.9532 16.6658 15 13.8537 15H10.1464ZM17.8393 19.7C18.1053 19.7 18.297 19.4445 18.1952 19.1988C17.4784 17.4687 15.7789 16.3 13.8537 16.3H13.4553C13.1951 16.3 13.0042 16.5445 13.0672 16.7969L13.7163 19.3969C13.7608 19.575 13.9208 19.7 14.1044 19.7H17.8393ZM9.89123 19.7C10.0752 19.7 10.2355 19.5745 10.2796 19.3958L10.9209 16.7958C10.983 16.5436 10.7922 16.3 10.5325 16.3H10.1464C8.22112 16.3 6.52161 17.4687 5.80481 19.1988C5.703 19.4445 5.89476 19.7 6.16075 19.7H9.89123Z" fill="#717681"/>
</svg>
