<svg width="25" height="24" viewBox="0 0 25 24" fill="none" xmlns="http://www.w3.org/2000/svg">
<path d="M6.93662 5.61062C6.85335 5.23399 6.46232 5.01232 6.09639 5.13429L4.91969 5.52652C4.57912 5.64004 4.21102 5.45599 4.0975 5.11543C3.98398 4.77486 4.16803 4.40676 4.50859 4.29324L5.6853 3.901C6.78308 3.53508 7.95617 4.20011 8.20597 5.32999L10.5538 15.9497C10.837 17.2309 12.1146 18.0319 13.3913 17.7288L19.0361 16.3885C19.3854 16.3056 19.7357 16.5215 19.8187 16.8707C19.9016 17.22 19.6857 17.5704 19.3364 17.6533L13.6916 18.9936C11.7087 19.4645 9.72437 18.2203 9.28442 16.2303L6.93662 5.61062Z" fill="#626F84"/>
<path d="M9.11963 19C9.11963 19.8284 8.44806 20.5 7.61963 20.5C6.7912 20.5 6.11963 19.8284 6.11963 19C6.11963 18.1716 6.7912 17.5 7.61963 17.5C8.44806 17.5 9.11963 18.1716 9.11963 19Z" fill="#626F84"/>
<path d="M9.90993 6.44259C9.75501 5.74153 10.1977 5.04762 10.8988 4.8927L15.0638 3.97231C15.7648 3.81739 16.4587 4.26012 16.6137 4.96117L18.5429 13.6916C18.6979 14.3927 18.2551 15.0866 17.5541 15.2415L13.3891 16.1619C12.688 16.3168 11.9941 15.8741 11.8392 15.173L11.0148 11.4425L17.7185 9.96113L17.438 8.69175L10.7343 10.1732L9.90993 6.44259Z" fill="#626F84"/>
</svg>
