<svg width="24" height="24" viewBox="0 0 24 24" fill="none" xmlns="http://www.w3.org/2000/svg">
<path d="M14.456 2.92095C13.6881 2.15301 12.3728 2.60945 12.2457 3.68801L12.2501 5.79801L7.42514 10.623L5.32358 10.6101C4.24502 10.7373 3.78858 12.0525 4.55652 12.8204L7.41859 15.6825L2.91572 20.1854C2.66188 20.4392 2.66188 20.8508 2.91572 21.1046C3.16956 21.3585 3.58112 21.3585 3.83496 21.1046L8.33783 16.6018L11.1796 19.4435C11.9476 20.2115 13.2628 19.755 13.3899 18.6765L13.377 16.5749L18.202 11.7499L20.3121 11.7544C21.3906 11.6272 21.8471 10.312 21.0791 9.54405L14.456 2.92095Z" fill="#626F84"/>
</svg>
