<svg width="24" height="24" viewBox="0 0 24 24" fill="none" xmlns="http://www.w3.org/2000/svg">
<path fill-rule="evenodd" clip-rule="evenodd" d="M20.3121 11.7544L18.202 11.7499L13.377 16.5749L13.3899 18.6765C13.2628 19.755 11.9476 20.2115 11.1796 19.4435L8.33783 16.6018L3.83496 21.1046C3.58112 21.3585 3.16956 21.3585 2.91572 21.1046C2.66188 20.8508 2.66188 20.4392 2.91572 20.1854L7.41859 15.6825L4.55652 12.8204C3.78858 12.0525 4.24502 10.7373 5.32358 10.6101L7.42514 10.623L12.2501 5.79801L12.2457 3.68801C12.3728 2.60945 13.6881 2.15301 14.456 2.92095L21.0791 9.54405C21.8471 10.312 21.3906 11.6272 20.3121 11.7544ZM12.0889 18.5144L5.48571 11.9112L7.96031 11.9263L7.96296 11.9237L12.0764 16.0371L12.0737 16.0398L12.0889 18.5144ZM12.6245 7.26216L8.8822 11.0044L12.9956 15.1179L16.7379 11.3756L12.6245 7.26216ZM13.5437 6.34292L13.5513 6.33536L13.5461 3.84947L20.1506 10.454L17.6647 10.4488L17.6571 10.4563L13.5437 6.34292Z" fill="#626F84"/>
</svg>
