<svg width="25" height="24" viewBox="0 0 25 24" fill="none" xmlns="http://www.w3.org/2000/svg">
<path fill-rule="evenodd" clip-rule="evenodd" d="M3.11124 6.61261L14.2164 6.61259C14.5771 6.61259 14.8696 6.9036 14.8696 7.26259V7.94658C14.8696 7.9727 14.8712 7.99862 14.8743 8.02423L14.8743 10.9115C14.8744 11.9884 15.7517 12.8614 16.834 12.8614H19.2553C19.2684 12.9618 19.275 13.0631 19.275 13.1647V14.7297C19.275 14.7573 19.2525 14.7797 19.2248 14.7797H4.85254C4.82479 14.7797 4.80229 14.7573 4.80229 14.7297V11.1695C4.80229 10.8105 4.50983 10.5195 4.14906 10.5195C3.78828 10.5195 3.49582 10.8105 3.49582 11.1695V14.7297C3.49582 15.4753 4.10325 16.0797 4.85254 16.0797H19.2248C19.9741 16.0797 20.5815 15.4753 20.5815 14.7297V13.1647C20.5815 12.7008 20.4926 12.241 20.3195 11.8102L19.2719 9.20179C18.7578 7.92179 17.5002 7.14229 16.1745 7.18493C16.1336 6.14397 15.2725 5.31259 14.2164 5.31259L3.11124 5.31261C2.75047 5.31261 2.45801 5.60363 2.45801 5.96261C2.45801 6.3216 2.75047 6.61261 3.11124 6.61261ZM16.1808 10.9115L16.1808 8.48598C16.9823 8.44529 17.7483 8.9114 18.0587 9.68423L18.8127 11.5614H16.834C16.4733 11.5614 16.1808 11.2704 16.1808 10.9115ZM4.16259 7.93759C3.80182 7.93759 3.50936 8.2286 3.50936 8.58759C3.50936 8.94657 3.80182 9.23759 4.16259 9.23759H7.38153C7.74231 9.23759 8.03477 8.94657 8.03477 8.58759C8.03477 8.2286 7.74231 7.93759 7.38153 7.93759H4.16259ZM9.31925 18.2437C9.31925 19.0721 8.64433 19.7437 7.81178 19.7437C6.97924 19.7437 6.30432 19.0721 6.30432 18.2437C6.30432 17.4152 6.97924 16.7437 7.81178 16.7437C8.64433 16.7437 9.31925 17.4152 9.31925 18.2437ZM17.7127 18.2437C17.7127 19.0721 17.0378 19.7437 16.2053 19.7437C15.3727 19.7437 14.6978 19.0721 14.6978 18.2437C14.6978 17.4152 15.3727 16.7437 16.2053 16.7437C17.0378 16.7437 17.7127 17.4152 17.7127 18.2437Z" fill="#717681"/>
</svg>
