<svg width="24" height="24" viewBox="0 0 24 24" fill="none" xmlns="http://www.w3.org/2000/svg">
<path fill-rule="evenodd" clip-rule="evenodd" d="M2.39795 5.96326C2.39795 5.60433 2.68892 5.31336 3.04784 5.31336L13.6406 5.31335C14.6903 5.31335 15.5412 6.16427 15.5412 7.21394H16.2924C17.5124 7.21394 18.6125 7.94839 19.0802 9.07521L20.247 11.8861C20.3993 12.2529 20.4777 12.6461 20.4777 13.0433V14.7876C20.4777 15.51 19.8921 16.0956 19.1697 16.0956L4.7884 16.0956C4.07043 16.0956 3.4884 15.5136 3.4884 14.7956V11.2674C3.4884 10.8408 3.83427 10.4949 4.26091 10.4949H5.39665C5.75396 10.4949 6.04361 10.2053 6.04361 9.84797C6.04361 9.49066 5.75396 9.20101 5.39665 9.20101H4.13537C3.77806 9.20101 3.4884 8.91135 3.4884 8.55404C3.4884 8.19673 3.77806 7.90708 4.13537 7.90708H7.33653C7.69384 7.90708 7.9835 7.61742 7.9835 7.26012C7.9835 6.90281 7.69384 6.61315 7.33653 6.61315H3.04785C2.68892 6.61315 2.39795 6.32218 2.39795 5.96326ZM15.4558 9.20387C15.4558 8.81489 15.7711 8.49955 16.1601 8.49955H16.6583C17.1867 8.49955 17.6631 8.81744 17.866 9.3053L18.6676 11.2327C18.8605 11.6966 18.5197 12.2075 18.0173 12.2075H16.1601C15.7711 12.2075 15.4558 11.8922 15.4558 11.5032V9.20387Z" fill="#717681"/>
<path d="M9.27307 18.2437C9.27307 19.0721 8.6015 19.7437 7.77307 19.7437C6.94464 19.7437 6.27307 19.0721 6.27307 18.2437C6.27307 17.4152 6.94464 16.7437 7.77307 16.7437C8.6015 16.7437 9.27307 17.4152 9.27307 18.2437Z" fill="#717681"/>
<path d="M17.625 18.2437C17.625 19.0721 16.9534 19.7437 16.125 19.7437C15.2966 19.7437 14.625 19.0721 14.625 18.2437C14.625 17.4152 15.2966 16.7437 16.125 16.7437C16.9534 16.7437 17.625 17.4152 17.625 18.2437Z" fill="#717681"/>
</svg>
