<svg width="24" height="24" viewBox="0 0 24 24" fill="none" xmlns="http://www.w3.org/2000/svg">
<path fill-rule="evenodd" clip-rule="evenodd" d="M3.0958 6.61261L14.1459 6.61259C14.5049 6.61259 14.7959 6.9036 14.7959 7.26259V7.94658C14.7959 7.9727 14.7975 7.99862 14.8006 8.02423L14.8007 10.9115C14.8007 11.9884 15.6737 12.8614 16.7507 12.8614H19.1599C19.1729 12.9618 19.1795 13.0631 19.1795 13.1647V14.7297C19.1795 14.7573 19.1572 14.7797 19.1295 14.7797H4.82848C4.80086 14.7797 4.77848 14.7573 4.77848 14.7297V11.1695C4.77848 10.8105 4.48746 10.5195 4.12848 10.5195C3.76949 10.5195 3.47848 10.8105 3.47848 11.1695V14.7297C3.47848 15.4753 4.08289 16.0797 4.82848 16.0797H19.1295C19.8751 16.0797 20.4795 15.4753 20.4795 14.7297V13.1647C20.4795 12.7008 20.3911 12.241 20.2189 11.8102L19.1765 9.20179C18.6649 7.92179 17.4135 7.14229 16.0944 7.18493C16.0537 6.14397 15.1969 5.31259 14.1459 5.31259L3.0958 5.31261C2.73681 5.31261 2.4458 5.60363 2.4458 5.96261C2.4458 6.3216 2.73682 6.61261 3.0958 6.61261ZM16.1007 10.9115L16.1006 8.48598C16.8982 8.44529 17.6604 8.9114 17.9693 9.68423L18.7195 11.5614H16.7507C16.3917 11.5614 16.1007 11.2704 16.1007 10.9115ZM4.14194 7.93759C3.78296 7.93759 3.49194 8.2286 3.49194 8.58759C3.49194 8.94657 3.78296 9.23759 4.14194 9.23759H7.34495C7.70394 9.23759 7.99495 8.94657 7.99495 8.58759C7.99495 8.2286 7.70394 7.93759 7.34495 7.93759H4.14194ZM9.27307 18.2437C9.27307 19.0721 8.6015 19.7437 7.77307 19.7437C6.94464 19.7437 6.27307 19.0721 6.27307 18.2437C6.27307 17.4152 6.94464 16.7437 7.77307 16.7437C8.6015 16.7437 9.27307 17.4152 9.27307 18.2437ZM17.625 18.2437C17.625 19.0721 16.9534 19.7437 16.125 19.7437C15.2966 19.7437 14.625 19.0721 14.625 18.2437C14.625 17.4152 15.2966 16.7437 16.125 16.7437C16.9534 16.7437 17.625 17.4152 17.625 18.2437Z" fill="#717681"/>
</svg>
