<svg width="25" height="24" viewBox="0 0 25 24" fill="none" xmlns="http://www.w3.org/2000/svg">
<path fill-rule="evenodd" clip-rule="evenodd" d="M2.51758 5.96326C2.51758 5.60433 2.80855 5.31336 3.16747 5.31336L13.7603 5.31335C14.8099 5.31335 15.6609 6.16427 15.6609 7.21394H16.412C17.632 7.21394 18.7321 7.94839 19.1999 9.07521L20.3667 11.8861C20.5189 12.2529 20.5973 12.6461 20.5973 13.0433V14.7876C20.5973 15.51 20.0117 16.0956 19.2893 16.0956L4.90803 16.0956C4.19006 16.0956 3.60803 15.5136 3.60803 14.7956V11.2674C3.60803 10.8408 3.95389 10.4949 4.38054 10.4949H5.51628C5.87359 10.4949 6.16324 10.2053 6.16324 9.84797C6.16324 9.49066 5.87359 9.20101 5.51628 9.20101H4.255C3.89769 9.20101 3.60803 8.91135 3.60803 8.55404C3.60803 8.19673 3.89769 7.90708 4.255 7.90708H7.45616C7.81347 7.90708 8.10313 7.61742 8.10313 7.26012C8.10313 6.90281 7.81347 6.61315 7.45616 6.61315H3.16747C2.80855 6.61315 2.51758 6.32218 2.51758 5.96326ZM15.5754 9.20387C15.5754 8.81489 15.8908 8.49955 16.2798 8.49955H16.7779C17.3063 8.49955 17.7828 8.81744 17.9857 9.3053L18.7872 11.2327C18.9801 11.6966 18.6393 12.2075 18.1369 12.2075H16.2798C15.8908 12.2075 15.5754 11.8922 15.5754 11.5032V9.20387Z" fill="#717681"/>
<path d="M9.3927 18.2437C9.3927 19.0721 8.72113 19.7437 7.8927 19.7437C7.06427 19.7437 6.3927 19.0721 6.3927 18.2437C6.3927 17.4152 7.06427 16.7437 7.8927 16.7437C8.72113 16.7437 9.3927 17.4152 9.3927 18.2437Z" fill="#717681"/>
<path d="M17.7446 18.2437C17.7446 19.0721 17.0731 19.7437 16.2446 19.7437C15.4162 19.7437 14.7446 19.0721 14.7446 18.2437C14.7446 17.4152 15.4162 16.7437 16.2446 16.7437C17.0731 16.7437 17.7446 17.4152 17.7446 18.2437Z" fill="#717681"/>
</svg>
