<svg width="25" height="24" viewBox="0 0 25 24" fill="none" xmlns="http://www.w3.org/2000/svg">
<path d="M8.78143 18.4112C9.241 18.1106 9.83994 18.1311 10.2778 18.4626L10.6615 18.7531C10.8238 18.876 10.9192 19.0678 10.9192 19.2713C10.9192 19.8083 10.2948 20.106 9.86668 19.7819C9.64484 19.6139 9.33777 19.6008 9.10494 19.7531L7.57978 20.7509C7.31242 20.9258 6.99987 21.019 6.68038 21.019C5.7731 21.019 5.0376 20.2835 5.0376 19.3762V6C5.0376 4.34315 6.38074 3 8.0376 3H16.0376C17.6945 3 19.0376 4.34315 19.0376 6V10.6421C19.0376 11.0011 18.7466 11.2921 18.3876 11.2921C18.0286 11.2921 17.7376 11.0011 17.7376 10.6421V6C17.7376 5.06112 16.9765 4.3 16.0376 4.3H8.0376C7.09871 4.3 6.3376 5.06112 6.3376 6V19.3762C6.3376 19.5655 6.49107 19.719 6.68038 19.719C6.74704 19.719 6.81226 19.6996 6.86804 19.6631L8.78143 18.4112Z" fill="#717681"/>
<path d="M8.05615 7.64292C8.05615 7.28394 8.34717 6.99292 8.70615 6.99292H15.4062C15.7651 6.99292 16.0562 7.28394 16.0562 7.64292C16.0562 8.0019 15.7651 8.29292 15.4062 8.29292H8.70615C8.34717 8.29292 8.05615 8.0019 8.05615 7.64292Z" fill="#717681"/>
<path d="M8.05615 10.6421C8.05615 10.2831 8.34717 9.99207 8.70615 9.99207H15.4062C15.7651 9.99207 16.0562 10.2831 16.0562 10.6421C16.0562 11.001 15.7651 11.2921 15.4062 11.2921H8.70615C8.34717 11.2921 8.05615 11.001 8.05615 10.6421Z" fill="#717681"/>
<path d="M8.70615 12.9911C8.34717 12.9911 8.05615 13.2821 8.05615 13.6411C8.05615 14.0001 8.34717 14.2911 8.70615 14.2911H11.9131C12.2721 14.2911 12.5631 14.0001 12.5631 13.6411C12.5631 13.2821 12.2721 12.9911 11.9131 12.9911H8.70615Z" fill="#717681"/>
<path d="M14.4603 17.7456L15.3095 18.5797C15.5656 18.8312 15.9772 18.8275 16.2287 18.5714C16.4803 18.3153 16.4766 17.9038 16.2205 17.6522L14.3401 15.8053C14.084 15.5537 13.6725 15.5574 13.4209 15.8135L11.574 17.6939C11.3224 17.95 11.3261 18.3615 11.5822 18.6131C11.8383 18.8646 12.2499 18.8609 12.5014 18.6048L13.1699 17.9243C13.361 20.2146 15.2804 22.0137 17.62 22.0137C20.0864 22.0137 22.0858 20.0144 22.0858 17.548C22.0858 15.0816 20.0864 13.0822 17.62 13.0822C17.108 13.0822 16.6149 13.1686 16.1551 13.3282C15.816 13.4459 15.6365 13.8163 15.7542 14.1554C15.8719 14.4945 16.2423 14.674 16.5814 14.5563C16.9059 14.4437 17.2551 14.3822 17.62 14.3822C19.3684 14.3822 20.7858 15.7996 20.7858 17.548C20.7858 19.2964 19.3684 20.7137 17.62 20.7137C15.938 20.7137 14.5623 19.4019 14.4603 17.7456Z" fill="#717681"/>
</svg>
