<svg width="24" height="24" viewBox="0 0 24 24" fill="none" xmlns="http://www.w3.org/2000/svg">
<path d="M10.2402 18.4626C9.80235 18.1311 9.2034 18.1106 8.74383 18.4112L6.83045 19.6631C6.77466 19.6996 6.70944 19.719 6.64278 19.719C6.45347 19.719 6.3 19.5655 6.3 19.3762V6C6.3 5.06112 7.06112 4.3 8 4.3H16C16.9389 4.3 17.7 5.06112 17.7 6V12.0458C17.7 12.4048 17.991 12.6958 18.35 12.6958C18.709 12.6958 19 12.4048 19 12.0458V6C19 4.34315 17.6569 3 16 3H8C6.34315 3 5 4.34315 5 6V19.3762C5 20.2835 5.7355 21.019 6.64278 21.019C6.96227 21.019 7.27482 20.9258 7.54218 20.7509L9.45556 19.4991L10.9755 20.6497C11.58 21.1074 12.4146 21.1093 13.0213 20.6544L13.9687 19.9442C14.2295 19.7486 14.3051 19.3902 14.1456 19.106C13.9533 18.7633 13.5033 18.6683 13.1889 18.904L12.2415 19.6143C12.0988 19.7213 11.9024 19.7209 11.7601 19.6132L10.2402 18.4626Z" fill="#717681"/>
<path d="M8.01855 7.6429C8.01855 7.28392 8.30957 6.9929 8.66855 6.9929H15.3686C15.7275 6.9929 16.0186 7.28392 16.0186 7.6429C16.0186 8.00189 15.7275 8.2929 15.3686 8.2929H8.66855C8.30957 8.2929 8.01855 8.00189 8.01855 7.6429Z" fill="#717681"/>
<path d="M8.01855 10.6421C8.01855 10.2831 8.30957 9.99207 8.66855 9.99207H15.3686C15.7275 9.99207 16.0186 10.2831 16.0186 10.6421C16.0186 11.001 15.7275 11.2921 15.3686 11.2921H8.66855C8.30957 11.2921 8.01855 11.001 8.01855 10.6421Z" fill="#717681"/>
<path d="M8.66855 12.9912C8.30957 12.9912 8.01855 13.2822 8.01855 13.6412C8.01855 14.0002 8.30957 14.2912 8.66856 14.2912H11.8755C12.2345 14.2912 12.5255 14.0002 12.5255 13.6412C12.5255 13.2822 12.2345 12.9912 11.8755 12.9912H8.66855Z" fill="#717681"/>
<path fill-rule="evenodd" clip-rule="evenodd" d="M19.7192 15.9708L18.6149 14.1358C18.4983 13.942 18.2174 13.942 18.1008 14.1358L16.9964 15.9708L14.91 16.454C14.6897 16.5051 14.6029 16.7722 14.7511 16.943L16.1551 18.5603L15.9699 20.694C15.9503 20.9193 16.1776 21.0844 16.3858 20.9962L18.3578 20.1607L20.3298 20.9962C20.5381 21.0844 20.7653 20.9193 20.7457 20.694L20.5606 18.5603L21.9645 16.943C22.1128 16.7722 22.026 16.5051 21.8057 16.454L19.7192 15.9708ZM18.8893 17.113L19.8935 17.3456L19.2178 18.124L19.3069 19.151L18.3578 18.7488L17.4087 19.151L17.4978 18.124L16.8221 17.3456L17.8263 17.113L18.3578 16.2298L18.8893 17.113Z" fill="#717681"/>
</svg>
