<svg width="24" height="24" viewBox="0 0 24 24" fill="none" xmlns="http://www.w3.org/2000/svg">
<path d="M11.9933 15.654C11.6343 15.654 11.3433 15.363 11.3433 15.004V11.298H10.0152C9.65625 11.298 9.36523 11.007 9.36523 10.648C9.36523 10.289 9.65625 9.99798 10.0152 9.99798H11.3433V8.65115C11.3433 8.29217 11.6343 8.00115 11.9933 8.00115C12.3522 8.00115 12.6433 8.29217 12.6433 8.65115V9.99798H13.9849C14.3439 9.99798 14.6349 10.289 14.6349 10.648C14.6349 11.007 14.3439 11.298 13.9849 11.298H12.6433L12.6433 15.004C12.6433 15.363 12.3522 15.654 11.9933 15.654Z" fill="#626F84"/>
<path fill-rule="evenodd" clip-rule="evenodd" d="M4.99336 11C4.99336 7.13401 8.12737 4 11.9934 4C15.8594 4 18.9934 7.13401 18.9934 11V18.7002H20.35C20.709 18.7002 21 18.9912 21 19.3502C21 19.7092 20.709 20.0002 20.35 20.0002H3.65C3.29101 20.0002 3 19.7092 3 19.3502C3 18.9912 3.29101 18.7002 3.65 18.7002H4.99336V11ZM17.6934 11L17.6934 18.6948H6.29336V11C6.29336 7.85198 8.84534 5.3 11.9934 5.3C15.1414 5.3 17.6934 7.85198 17.6934 11Z" fill="#626F84"/>
</svg>
