<svg width="24" height="24" viewBox="0 0 24 24" fill="none" xmlns="http://www.w3.org/2000/svg">
<path d="M19.4575 2.34759C18.9941 1.88414 18.2427 1.88414 17.7792 2.34759L15.5845 4.5423C15.1211 5.00575 15.1211 5.75715 15.5845 6.2206L17.7792 8.41531C18.2427 8.87877 18.9941 8.87877 19.4575 8.41531L21.6522 6.2206C22.1157 5.75715 22.1157 5.00575 21.6522 4.5423L19.4575 2.34759Z" fill="#717681"/>
<path d="M2.40576 3.68144C2.40576 2.96347 2.98779 2.38144 3.70576 2.38144H7.10576C7.82373 2.38144 8.40576 2.96347 8.40576 3.68144V7.08144C8.40576 7.79941 7.82373 8.38144 7.10576 8.38144H3.70576C2.98779 8.38144 2.40576 7.79941 2.40576 7.08144V3.68144Z" fill="#717681"/>
<path d="M18.6183 10.0586C18.9773 10.0586 19.2683 10.3496 19.2683 10.7086V13.6722C19.2683 14.0311 18.9773 14.3222 18.6183 14.3222C18.2593 14.3222 17.9683 14.0311 17.9683 13.6722V10.7086C17.9683 10.3496 18.2593 10.0586 18.6183 10.0586Z" fill="#717681"/>
<path d="M15.6183 18.6266C15.6183 16.9698 16.9615 15.6266 18.6183 15.6266C20.2752 15.6266 21.6183 16.9698 21.6183 18.6266C21.6183 20.2835 20.2752 21.6266 18.6183 21.6266C16.9615 21.6266 15.6183 20.2835 15.6183 18.6266Z" fill="#717681"/>
<path d="M10.3568 4.73141C9.99784 4.73141 9.70682 5.02243 9.70682 5.38141C9.70682 5.7404 9.99784 6.03141 10.3568 6.03141H13.2873C13.6463 6.03141 13.9373 5.7404 13.9373 5.38141C13.9373 5.02243 13.6463 4.73141 13.2873 4.73141H10.3568Z" fill="#717681"/>
<path d="M11.7397 17.9585L10.2267 16.4965C9.97291 16.2426 9.97291 15.8311 10.2267 15.5772C10.4806 15.3234 10.8921 15.3234 11.146 15.5772L14.1219 18.1489C14.3758 18.4027 14.3758 18.8142 14.1219 19.0681L11.1538 21.6319C10.9 21.8857 10.4884 21.8857 10.2346 21.6319C9.98072 21.3781 9.98072 20.9665 10.2346 20.7127L11.7388 19.2594H8.41138C6.39554 19.2594 4.76138 17.6252 4.76138 15.6094V10.332C4.76138 9.97305 5.05239 9.68203 5.41138 9.68203C5.77036 9.68203 6.06138 9.97305 6.06138 10.332V15.6094C6.06138 16.9072 7.11351 17.9594 8.41138 17.9594L11.7397 17.9585Z" fill="#717681"/>
</svg>
