<svg width="24" height="24" viewBox="0 0 24 24" fill="none" xmlns="http://www.w3.org/2000/svg">
<path d="M12.6731 13.5903C12.6731 14.0597 12.2926 14.4403 11.8231 14.4403C11.3537 14.4403 10.9731 14.0597 10.9731 13.5903C10.9731 13.1208 11.3537 12.7403 11.8231 12.7403C12.2926 12.7403 12.6731 13.1208 12.6731 13.5903Z" fill="#717681"/>
<path d="M11.2422 7.53408C10.8832 7.53408 10.5922 7.8251 10.5922 8.18408C10.5922 8.54307 10.8832 8.83408 11.2422 8.83408H12.7321C12.8659 8.83408 12.9743 8.94252 12.9743 9.07628C12.9743 9.18067 12.8769 9.36797 12.6127 9.47177C12.1942 9.63621 11.6108 9.95652 11.3142 10.5724C11.1584 10.8959 11.2943 11.2843 11.6178 11.4401C11.9412 11.5959 12.3297 11.46 12.4854 11.1365C12.5689 10.9633 12.7774 10.8038 13.0881 10.6817C13.6722 10.4522 14.2743 9.88333 14.2743 9.07628C14.2743 8.22455 13.5839 7.53408 12.7321 7.53408H11.2422Z" fill="#717681"/>
<path fill-rule="evenodd" clip-rule="evenodd" d="M4 8C4 6.34315 5.34315 5 7 5H17C18.6569 5 20 6.34315 20 8V14C20 15.6569 18.6569 17 17 17H9.52219L6.1121 19.7281C5.26091 20.409 4 19.803 4 18.7129V8ZM5.3 18.7129L9.06617 15.7H17C17.9389 15.7 18.7 14.9389 18.7 14V8C18.7 7.06112 17.9389 6.3 17 6.3H7C6.06112 6.3 5.3 7.06112 5.3 8L5.3 18.7129Z" fill="#717681"/>
</svg>
