<svg width="24" height="24" viewBox="0 0 24 24" fill="none" xmlns="http://www.w3.org/2000/svg">
<path fill-rule="evenodd" clip-rule="evenodd" d="M2.3501 4.00001C2.3501 3.64102 2.64111 3.35001 3.0001 3.35001H3.93854C5.15454 3.35001 6.2145 4.17759 6.50942 5.35729L7.0076 7.35001H20.0001C20.2069 7.35001 20.4013 7.44839 20.5238 7.61499C20.6463 7.78159 20.6822 7.99652 20.6205 8.19388L18.5591 14.7904C18.2134 15.8967 17.1888 16.65 16.0297 16.65H10.0617C8.84565 16.65 7.7857 15.8224 7.49077 14.6427L5.24824 5.67258C5.09799 5.07161 4.55802 4.65001 3.93854 4.65001H3.0001C2.64111 4.65001 2.3501 4.35899 2.3501 4.00001ZM7.3326 8.65001L8.75196 14.3274C8.9022 14.9284 9.44218 15.35 10.0617 15.35H16.0297C16.6202 15.35 17.1421 14.9663 17.3183 14.4027L19.116 8.65001H7.3326Z" fill="#626F84"/>
<path fill-rule="evenodd" clip-rule="evenodd" d="M7.3501 19C7.3501 18.0887 8.08883 17.35 9.0001 17.35C9.91137 17.35 10.6501 18.0887 10.6501 19C10.6501 19.9113 9.91137 20.65 9.0001 20.65C8.08883 20.65 7.3501 19.9113 7.3501 19Z" fill="#626F84"/>
<path fill-rule="evenodd" clip-rule="evenodd" d="M17.0001 17.35C16.0888 17.35 15.3501 18.0887 15.3501 19C15.3501 19.9113 16.0888 20.65 17.0001 20.65C17.9114 20.65 18.6501 19.9113 18.6501 19C18.6501 18.0887 17.9114 17.35 17.0001 17.35Z" fill="#626F84"/>
</svg>
