<svg width="24" height="24" viewBox="0 0 24 24" fill="none" xmlns="http://www.w3.org/2000/svg">
<path fill-rule="evenodd" clip-rule="evenodd" d="M21.8043 20.8845L20.1674 19.2476C20.5024 18.7389 20.6973 18.1299 20.6973 17.4753C20.6973 15.693 19.2524 14.2481 17.4701 14.2481C15.6878 14.2481 14.243 15.693 14.243 17.4753C14.243 19.2576 15.6878 20.7024 17.4701 20.7024C18.1277 20.7024 18.7393 20.5058 19.2494 20.168L20.8851 21.8037C21.139 22.0576 21.5505 22.0576 21.8044 21.8037C22.0582 21.5499 22.0582 21.1383 21.8043 20.8845ZM17.4701 19.4024C16.4058 19.4024 15.543 18.5396 15.543 17.4753C15.543 16.4109 16.4058 15.5481 17.4701 15.5481C18.5344 15.5481 19.3973 16.4109 19.3973 17.4753C19.3973 18.5396 18.5344 19.4024 17.4701 19.4024Z" fill="#626F84"/>
<path d="M20 12.6882C20 13.1252 19.5035 13.3996 19.0957 13.2428C18.8676 13.1551 18.7 12.9425 18.7 12.6982V7C18.7 6.06112 17.9389 5.3 17 5.3H7C6.06112 5.3 5.3 6.06112 5.3 7V17C5.3 17.9389 6.06112 18.7 7 18.7H12.6978C12.9422 18.7 13.1547 18.8676 13.2424 19.0957C13.3992 19.5036 13.1248 20 12.6878 20H7C5.34315 20 4 18.6569 4 17V7C4 5.34315 5.34315 4 7 4H17C18.6569 4 20 5.34315 20 7V12.6882Z" fill="#626F84"/>
<path d="M11.3764 11.35C11.7354 11.35 12.0264 11.641 12.0264 12C12.0264 12.359 11.7354 12.65 11.3764 12.65L8.67222 12.65C8.31323 12.65 8.02222 12.359 8.02222 12C8.02222 11.641 8.31323 11.35 8.67222 11.35L11.3764 11.35Z" fill="#626F84"/>
<path d="M15.3571 7.8401C15.716 7.8401 16.0071 8.13111 16.0071 8.4901C16.0071 8.84908 15.716 9.14009 15.3571 9.14009L8.67252 9.14009C8.31353 9.14009 8.02252 8.84908 8.02252 8.49009C8.02252 8.13111 8.31353 7.84009 8.67252 7.84009L15.3571 7.8401Z" fill="#626F84"/>
</svg>
