<svg width="24" height="24" viewBox="0 0 24 24" fill="none" xmlns="http://www.w3.org/2000/svg">
<path fill-rule="evenodd" clip-rule="evenodd" d="M20.1674 19.2476L21.8043 20.8845C22.0582 21.1383 22.0582 21.5499 21.8044 21.8037C21.5505 22.0576 21.139 22.0576 20.8851 21.8037L19.2494 20.168C18.7393 20.5058 18.1277 20.7024 17.4701 20.7024C15.6878 20.7024 14.243 19.2576 14.243 17.4753C14.243 15.693 15.6878 14.2481 17.4701 14.2481C19.2524 14.2481 20.6973 15.693 20.6973 17.4753C20.6973 18.1299 20.5024 18.7389 20.1674 19.2476ZM15.543 17.4753C15.543 18.5396 16.4058 19.4024 17.4701 19.4024C18.5344 19.4024 19.3973 18.5396 19.3973 17.4753C19.3973 16.4109 18.5344 15.5481 17.4701 15.5481C16.4058 15.5481 15.543 16.4109 15.543 17.4753Z" fill="#616F84"/>
<path d="M20 13.1497C20 13.39 19.7283 13.5369 19.5139 13.4283C18.9002 13.1177 18.2062 12.9426 17.4713 12.9426C16.9599 12.9426 16.4684 13.0274 16.0099 13.1836V7.61986C16.0099 7.26087 15.7188 6.96986 15.3599 6.96986C15.0009 6.96986 14.7099 7.26087 14.7099 7.61986V11.0131H9.33929V7.61986C9.33929 7.26087 9.04828 6.96986 8.68929 6.96986C8.33031 6.96986 8.03929 7.26087 8.03929 7.61986V16.4081C8.03929 16.7671 8.33031 17.0581 8.68929 17.0581C9.04828 17.0581 9.33929 16.7671 9.33929 16.4081V12.3131H14.7099V13.8817C13.6351 14.7097 12.9426 16.0097 12.9426 17.4713C12.9426 18.2062 13.1177 18.9002 13.4283 19.5139C13.5369 19.7283 13.39 20 13.1497 20H7C5.34315 20 4 18.6569 4 17V7C4 5.34315 5.34315 4 7 4H17C18.6569 4 20 5.34315 20 7V13.1497Z" fill="#616F84"/>
</svg>
