<svg width="24" height="24" viewBox="0 0 24 24" fill="none" xmlns="http://www.w3.org/2000/svg">
<path fill-rule="evenodd" clip-rule="evenodd" d="M20.1674 19.2476L21.8043 20.8845C22.0582 21.1383 22.0582 21.5499 21.8044 21.8037C21.5505 22.0576 21.139 22.0576 20.8851 21.8037L19.2494 20.1681C18.7393 20.5058 18.1277 20.7024 17.4701 20.7024C15.6878 20.7024 14.243 19.2576 14.243 17.4753C14.243 16.8619 14.4141 16.2884 14.7112 15.8001C14.6941 15.7419 14.685 15.6803 14.685 15.6165V12.2992H9.31504V16.3941C9.31504 16.7531 9.02402 17.0441 8.66504 17.0441C8.30605 17.0441 8.01504 16.7531 8.01504 16.3941V7.60589C8.01504 7.24691 8.30605 6.95589 8.66504 6.95589C9.02402 6.95589 9.31504 7.24691 9.31504 7.60589V10.9992H14.685V7.60589C14.685 7.24691 14.976 6.95589 15.335 6.95589C15.6939 6.95589 15.985 7.24691 15.985 7.60589V14.6094C16.4295 14.3786 16.9346 14.2481 17.4701 14.2481C19.2524 14.2481 20.6973 15.693 20.6973 17.4753C20.6973 18.1299 20.5024 18.7389 20.1674 19.2476ZM15.543 17.4753C15.543 18.5396 16.4058 19.4024 17.4701 19.4024C18.5344 19.4024 19.3973 18.5396 19.3973 17.4753C19.3973 16.4109 18.5344 15.5481 17.4701 15.5481C16.4058 15.5481 15.543 16.4109 15.543 17.4753Z" fill="#616F84"/>
<path d="M20 12.6882C20 13.1252 19.5036 13.3996 19.0957 13.2428C18.8676 13.1551 18.7 12.9425 18.7 12.6982V7C18.7 6.06112 17.9389 5.3 17 5.3H7C6.06112 5.3 5.3 6.06112 5.3 7V17C5.3 17.9389 6.06112 18.7 7 18.7H12.6978C12.9422 18.7 13.1547 18.8676 13.2424 19.0957C13.3992 19.5036 13.1248 20 12.6878 20H7C5.34315 20 4 18.6569 4 17V7C4 5.34315 5.34315 4 7 4H17C18.6569 4 20 5.34315 20 7V12.6882Z" fill="#616F84"/>
</svg>
