<svg width="24" height="24" viewBox="0 0 24 24" fill="none" xmlns="http://www.w3.org/2000/svg">
<path fill-rule="evenodd" clip-rule="evenodd" d="M21.8043 20.8845L20.1674 19.2476C20.5024 18.7389 20.6973 18.1299 20.6973 17.4753C20.6973 15.693 19.2524 14.2481 17.4701 14.2481C17.0117 14.2481 16.5756 14.3437 16.1807 14.516L12.6181 7.3377C12.6181 7.33769 12.6176 7.3368 12.5984 7.34635C12.5984 7.34636 12.5984 7.34634 12.5984 7.34635L12.6176 7.33677C12.5023 7.1044 12.2667 6.97139 12.0235 6.97569C11.7802 6.97137 11.5445 7.10438 11.4292 7.33677L11.4485 7.34633C11.4485 7.3463 11.4485 7.34635 11.4485 7.34633L11.4292 7.33677L7.05373 16.1529C6.89414 16.4745 7.02544 16.8645 7.347 17.0241C7.66856 17.1837 8.05861 17.0524 8.2182 16.7308L9.27319 14.6051H14.7737L15.1072 15.2772C14.571 15.8535 14.243 16.6261 14.243 17.4753C14.243 19.2576 15.6878 20.7024 17.4701 20.7024C18.1277 20.7024 18.7393 20.5058 19.2494 20.1681L20.8851 21.8037C21.139 22.0576 21.5505 22.0576 21.8044 21.8037C22.0582 21.5499 22.0582 21.1383 21.8043 20.8845ZM14.1285 13.3051L12.0234 9.06372L9.91839 13.3051H14.1285ZM17.4701 19.4024C16.4058 19.4024 15.543 18.5396 15.543 17.4753C15.543 16.4109 16.4058 15.5481 17.4701 15.5481C18.5344 15.5481 19.3973 16.4109 19.3973 17.4753C19.3973 18.5396 18.5344 19.4024 17.4701 19.4024Z" fill="#616F84"/>
<path d="M20 12.6882C20 13.1252 19.5036 13.3996 19.0957 13.2428C18.8676 13.1551 18.7 12.9425 18.7 12.6982V7C18.7 6.06112 17.9389 5.3 17 5.3H7C6.06112 5.3 5.3 6.06112 5.3 7V17C5.3 17.9389 6.06112 18.7 7 18.7H12.6978C12.9422 18.7 13.1547 18.8676 13.2424 19.0957C13.3992 19.5036 13.1248 20 12.6878 20H7C5.34315 20 4 18.6569 4 17V7C4 5.34315 5.34315 4 7 4H17C18.6569 4 20 5.34315 20 7V12.6882Z" fill="#616F84"/>
</svg>
