<svg width="24" height="24" viewBox="0 0 24 24" fill="none" xmlns="http://www.w3.org/2000/svg">
<path d="M15.0517 15.735C17.816 15.7042 20.0001 15.2723 20.0001 12.1251C20.0001 9.73973 17.1978 5.60641 15.6627 3.52125C15.1708 2.85308 14.1993 2.85311 13.7075 3.52132C13.255 4.13598 12.6925 4.9286 12.1241 5.80196C11.9239 6.10961 12.006 6.51569 12.2756 6.76484C13.4035 7.80721 14.1097 9.29915 14.1097 10.956C14.1097 12.2803 13.6586 13.4992 12.9016 14.4674C12.5387 14.9316 12.7245 15.6622 13.3125 15.7001C13.4566 15.7094 13.6032 15.7166 13.7518 15.722C13.7517 15.726 13.7517 15.73 13.7517 15.734V17.7515C13.7517 18.1105 14.0427 18.4015 14.4017 18.4015C14.7607 18.4015 15.0517 18.1105 15.0517 17.7515V15.735Z" fill="#626F84"/>
<path d="M12.8097 10.9561C12.8097 13.168 11.1793 14.9992 9.05464 15.3134V17.7519C9.05464 18.1108 8.76362 18.4019 8.40464 18.4019C8.04565 18.4019 7.75464 18.1108 7.75464 17.7519V15.3134C5.63008 14.9991 3.99976 13.168 3.99976 10.9561C3.99976 8.52326 5.97193 6.55109 8.40472 6.55109C10.8375 6.55109 12.8097 8.52326 12.8097 10.9561Z" fill="#626F84"/>
<path d="M4 20.3517C4 19.9927 4.29101 19.7017 4.65 19.7017H19.35C19.709 19.7017 20 19.9927 20 20.3517C20 20.7106 19.709 21.0017 19.35 21.0017H4.65C4.29101 21.0017 4 20.7106 4 20.3517Z" fill="#626F84"/>
</svg>
