<svg width="24" height="24" viewBox="0 0 24 24" fill="none" xmlns="http://www.w3.org/2000/svg">
<path d="M4.30452 19.0801C4.15463 19.5331 4.49195 20 4.96909 20H8.15196C8.46569 20 8.7411 19.7913 8.8259 19.4892L9.4681 17.2018C9.50444 17.0723 9.62247 16.9829 9.75693 16.9829H13.9862C14.1199 16.9829 14.2374 17.0713 14.2745 17.1997L14.9365 19.4941C15.023 19.7937 15.2972 20 15.6091 20H19.0312C19.5083 20 19.8457 19.5331 19.6958 19.0801L14.8649 4.48011C14.7701 4.19352 14.5022 4 14.2003 4H9.79997C9.4981 4 9.23023 4.19352 9.1354 4.48011L4.30452 19.0801ZM11.5942 9.82574C11.6774 9.53626 12.0876 9.53626 12.1708 9.82574L13.2312 13.5143C13.2864 13.706 13.1424 13.8971 12.9429 13.8971H10.8221C10.6226 13.8971 10.4786 13.706 10.5338 13.5143L11.5942 9.82574Z" fill="#626F84"/>
</svg>
