<svg width="24" height="24" viewBox="0 0 24 24" fill="none" xmlns="http://www.w3.org/2000/svg">
<path d="M11.5942 8.46137L10.259 13.1055C10.2039 13.2972 10.3479 13.4883 10.5474 13.4883H13.2177C13.4172 13.4883 13.5611 13.2972 13.506 13.1055L12.1708 8.46138C12.0876 8.1719 11.6774 8.1719 11.5942 8.46137Z" fill="#626F84"/>
<path fill-rule="evenodd" clip-rule="evenodd" d="M9.48281 15.9018C9.51915 15.7723 9.63719 15.6829 9.77164 15.6829H13.9642C14.0978 15.6829 14.2153 15.7713 14.2524 15.8997L14.9979 18.4832C15.0349 18.6116 15.1524 18.7 15.2861 18.7H17.7854C17.9899 18.7 18.1345 18.4999 18.0702 18.3058L13.8349 5.50576C13.7943 5.38294 13.6795 5.3 13.5501 5.3H10.4502C10.3208 5.3 10.206 5.38294 10.1653 5.50576L5.93005 18.3058C5.86582 18.4999 6.01038 18.7 6.21487 18.7H8.46983C8.60429 18.7 8.72232 18.6105 8.75867 18.4811L9.48281 15.9018ZM4.30452 19.0801C4.15463 19.5331 4.49195 20 4.96909 20H9.15196C9.46569 20 9.7411 19.7913 9.8259 19.4892L10.4681 17.2018C10.5044 17.0723 10.6225 16.9829 10.7569 16.9829H12.9862C13.1199 16.9829 13.2374 17.0713 13.2745 17.1997L13.9365 19.4941C14.023 19.7937 14.2972 20 14.6091 20H19.0312C19.5083 20 19.8457 19.5331 19.6958 19.0801L14.8649 4.48011C14.7701 4.19352 14.5022 4 14.2003 4H9.79997C9.4981 4 9.23023 4.19352 9.1354 4.48011L4.30452 19.0801Z" fill="#626F84"/>
</svg>
