<svg width="24" height="24" viewBox="0 0 24 24" fill="none" xmlns="http://www.w3.org/2000/svg">
<path fill-rule="evenodd" clip-rule="evenodd" d="M8.28814 2.98035C8.2874 2.98035 8.28665 2.98035 8.28591 2.98035C7.92692 2.98035 7.63591 3.27136 7.63591 3.63035V6.02137C7.63591 6.3782 7.34664 6.66747 6.9898 6.66747C6.65712 6.66747 6.38317 6.41603 6.34761 6.09282V5.60624H6.3437L6.3437 3.63035C6.3437 3.27136 6.05269 2.98035 5.6937 2.98035C5.33472 2.98035 5.0437 3.27136 5.0437 3.63035L5.0437 6.02137C5.0437 6.06313 5.04502 6.10457 5.04761 6.14568V8.21879C5.04761 9.22909 5.50692 10.1846 6.2959 10.8156C6.42584 10.9195 6.49681 11.0804 6.486 11.2464L6.00607 18.618C5.91994 19.941 6.96975 21.0613 8.29549 21.0613C9.62245 21.0613 10.6727 19.939 10.5847 18.6149L10.095 11.2462C10.0839 11.0801 10.1548 10.9191 10.2848 10.8152C11.0734 10.1844 11.5326 9.22933 11.5326 8.21946L11.5326 6.03301C11.5326 6.02913 11.5326 6.02525 11.5326 6.02137V3.63035C11.5326 3.27136 11.2416 2.98035 10.8826 2.98035C10.5236 2.98035 10.2326 3.27136 10.2326 3.63035L10.2326 6.02808C10.229 6.38182 9.94108 6.66747 9.58648 6.66747C9.22965 6.66747 8.94038 6.3782 8.94038 6.02137V3.63035C8.94038 3.27136 8.64937 2.98035 8.29038 2.98035C8.28963 2.98035 8.28889 2.98035 8.28814 2.98035ZM10.2326 7.85766C10.0304 7.92878 9.81296 7.96747 9.58648 7.96747C9.0876 7.96747 8.63256 7.77975 8.28814 7.47109C7.94373 7.77975 7.48869 7.96747 6.9898 7.96747C6.76477 7.96747 6.54867 7.92928 6.34761 7.85902V8.21879C6.34761 8.83411 6.62735 9.41606 7.10788 9.80039C7.5695 10.1696 7.82166 10.741 7.78326 11.3309L7.30333 18.7025C7.266 19.2758 7.72095 19.7613 8.29549 19.7613C8.87055 19.7613 9.32569 19.2749 9.28756 18.7011L8.79782 11.3324C8.75858 10.7419 9.01067 10.1696 9.47281 9.79996C9.953 9.4159 10.2326 8.83435 10.2326 8.21946V7.85766ZM13.3298 4.72303C13.3298 3.76057 14.11 2.98035 15.0725 2.98035C15.8207 2.98035 16.4854 3.45796 16.7241 4.16708L18.918 10.6849C19.2819 11.7659 18.7764 12.9479 17.7434 13.4315C17.3452 13.6179 17.1287 14.0549 17.2217 14.4847L18.0103 18.1278C18.3295 19.6026 17.2058 20.9956 15.6968 20.9956C14.3895 20.9956 13.3298 19.9359 13.3298 18.6286V4.72303ZM15.0725 4.28035C14.828 4.28035 14.6298 4.47854 14.6298 4.72303V18.6286C14.6298 19.2179 15.1075 19.6956 15.6968 19.6956C16.3771 19.6956 16.8836 19.0677 16.7397 18.4028L15.9512 14.7597C15.7299 13.7373 16.2448 12.6977 17.1922 12.2541C17.6264 12.0509 17.8389 11.554 17.686 11.0996L15.492 4.5818C15.4314 4.40167 15.2625 4.28035 15.0725 4.28035Z" fill="#626F84"/>
</svg>
