<svg width="24" height="24" viewBox="0 0 24 24" fill="none" xmlns="http://www.w3.org/2000/svg">
<path fill-rule="evenodd" clip-rule="evenodd" d="M12.1497 3.27393C11.1057 3.55367 10.4025 4.06375 9.95043 4.66684C9.52511 3.98494 8.79517 3.36246 7.59111 3.03983C6.49121 2.74511 5.5872 2.85977 4.87079 3.19019C4.16713 3.51474 3.6958 4.02328 3.40317 4.43954C3.14485 4.80701 3.12873 5.24386 3.2939 5.60347C3.45333 5.95057 3.76953 6.20724 4.14923 6.30474L6.02027 6.78158C5.80198 6.93533 5.58448 7.11806 5.36947 7.33307C4.55785 8.14469 4.20894 8.98912 4.14759 9.77755C4.0874 10.551 4.30824 11.2096 4.53189 11.6631C4.72706 12.0588 5.09393 12.2813 5.4812 12.315C5.85536 12.3475 6.22839 12.2053 6.4999 11.9338L9.00229 9.4314C9.0106 9.74945 9.02848 10.0698 9.05506 10.3915C9.19537 12.0904 9.581 13.7886 10.1175 15.2338C8.04245 15.7591 6.34883 17.1279 5.34757 18.9403C4.92704 18.7348 4.48303 18.48 4.01264 18.1675C3.71361 17.9689 3.31018 18.0503 3.11156 18.3493C2.91293 18.6483 2.99433 19.0518 3.29336 19.2504C5.37766 20.6349 7.12431 21.0711 8.69391 20.9684C10.2368 20.8675 11.535 20.2459 12.6847 19.688L12.7276 19.6672C13.8948 19.1007 14.8931 18.6161 15.9998 18.5379C17.0755 18.462 18.334 18.7717 19.9681 20.025C20.253 20.2435 20.661 20.1897 20.8795 19.9049C21.098 19.62 21.0442 19.212 20.7593 18.9935C19.5742 18.0846 18.4991 17.5737 17.4907 17.3554C16.1246 15.9166 14.1035 14.9994 12.0199 14.9994C11.8202 14.9994 11.6228 15.0068 11.4278 15.0214C10.8876 13.6448 10.4896 11.967 10.3506 10.2845C10.2915 9.56844 10.28 8.87617 10.322 8.21521C10.33 8.08969 10.4177 7.98405 10.5389 7.9504L15.6079 6.5428C15.9839 6.44205 16.296 6.1849 16.453 5.83912C16.6155 5.48105 16.599 5.0472 16.3432 4.68157C16.0518 4.26504 15.581 3.75408 14.8767 3.42736C14.1593 3.09464 13.2532 2.97826 12.1497 3.27393ZM9.1492 6.24099L9.06745 6.2201C9.0245 6.20831 8.98073 6.19709 8.93615 6.18654L4.55593 5.067C4.75883 4.80841 5.0403 4.54362 5.41526 4.37068C5.83594 4.17665 6.42628 4.07357 7.25465 4.29553C8.48318 4.62472 8.9163 5.3156 9.08535 5.88886C9.12095 6.00959 9.14547 6.1282 9.16179 6.24099H9.1492ZM15.1908 5.30869L10.5696 6.54695C10.5726 6.52134 10.576 6.49545 10.5798 6.4693C10.6328 6.25253 10.6934 6.0408 10.7621 5.83449C10.8108 5.72653 10.8699 5.61938 10.9413 5.51536C11.199 5.13963 11.6515 4.75328 12.4862 4.52963C13.3171 4.307 13.9086 4.41136 14.3296 4.60668C14.7063 4.78136 14.9883 5.04871 15.1908 5.30869ZM6.56778 19.4242C7.66344 17.5544 9.64848 16.2994 12.0199 16.2994C13.2187 16.2994 14.4019 16.6716 15.3909 17.3013C14.2396 17.4866 13.2051 17.9895 12.2503 18.4537L12.1171 18.5184C10.9495 19.0851 9.86513 19.5891 8.60906 19.6712C7.99601 19.7113 7.32345 19.6511 6.56778 19.4242ZM9.02054 7.57467L5.63757 10.9576C5.50849 10.658 5.41193 10.2863 5.44367 9.87841C5.47902 9.42415 5.6777 8.86332 6.28871 8.25231C6.89697 7.64406 7.4614 7.43869 7.92374 7.39729C8.33724 7.36026 8.71514 7.45079 9.02054 7.57467ZM18.277 10.8404C18.277 11.7798 17.5154 12.5414 16.576 12.5414C15.6365 12.5414 14.875 11.7798 14.875 10.8404C14.875 9.90092 15.6365 9.13936 16.576 9.13936C17.5154 9.13936 18.277 9.90092 18.277 10.8404ZM19.577 10.8404C19.577 12.4978 18.2334 13.8414 16.576 13.8414C14.9185 13.8414 13.575 12.4978 13.575 10.8404C13.575 9.18295 14.9185 7.83936 16.576 7.83936C18.2334 7.83936 19.577 9.18295 19.577 10.8404Z" fill="#717681"/>
</svg>
