<svg width="24" height="24" viewBox="0 0 24 24" fill="none" xmlns="http://www.w3.org/2000/svg">
<path d="M17.3745 19.5242C17.9268 19.5242 18.3745 19.0765 18.3745 18.5242C18.3745 17.9719 17.9268 17.5242 17.3745 17.5242C16.8222 17.5242 16.3745 17.9719 16.3745 18.5242C16.3745 19.0765 16.8222 19.5242 17.3745 19.5242Z" fill="#626F84"/>
<path fill-rule="evenodd" clip-rule="evenodd" d="M21.5452 17.2666C22.1278 17.9944 22.121 19.0015 21.5343 19.726C20.7172 20.735 19.3024 22 17.3449 22C15.3838 22 13.9712 20.7305 13.1578 19.7206C12.5762 18.9985 12.5693 17.9975 13.1469 17.2721C13.95 16.2634 15.3535 14.9998 17.3449 14.9998C19.3326 14.9998 20.7383 16.2588 21.5452 17.2666ZM20.524 18.9079C19.7935 19.8099 18.7119 20.7 17.3449 20.7C15.9762 20.7 14.8971 19.8075 14.1702 18.9051C13.9671 18.6529 13.9686 18.3272 14.1639 18.0819C14.8727 17.1916 15.9423 16.2998 17.3449 16.2998C18.7457 16.2998 19.8179 17.1892 20.5304 18.0791C20.7278 18.3258 20.7294 18.6543 20.524 18.9079Z" fill="#626F84"/>
<path d="M19.1515 13.9822C19.5587 14.1134 20 13.8262 20 13.3984V7C20 5.34315 18.6569 4 17 4H7C5.34315 4 4 5.34315 4 7V17C4 18.6569 5.34315 20 7 20H10.9231C11.3181 20 11.5781 19.5676 11.4932 19.1818C11.4339 18.9118 11.2098 18.7 10.9334 18.7H7C6.06112 18.7 5.3 17.9389 5.3 17V7C5.3 6.06112 6.06112 5.3 7 5.3H17C17.9389 5.3 18.7 6.06112 18.7 7V13.4003C18.7 13.6676 18.8972 13.9003 19.1515 13.9822Z" fill="#626F84"/>
<path d="M13.2712 10.1209C13.3788 9.7784 13.1883 9.41357 12.8458 9.30602C12.5033 9.19847 12.1385 9.38893 12.0309 9.73143L10.7285 13.8791C10.6209 14.2216 10.8114 14.5864 11.1539 14.694C11.4964 14.8015 11.8612 14.6111 11.9688 14.2686L13.2712 10.1209Z" fill="#626F84"/>
<path d="M9.59973 9.43327C9.88539 9.65345 9.93039 10.0535 9.70023 10.3268L8.29103 12L9.70023 13.6732C9.93039 13.9465 9.88539 14.3466 9.59973 14.5667C9.31406 14.7869 8.89591 14.7439 8.66575 14.4706L6.92078 12.3987C6.72479 12.166 6.72479 11.834 6.92078 11.6013L8.66575 9.52942C8.89591 9.25613 9.31406 9.21309 9.59973 9.43327Z" fill="#626F84"/>
<path d="M14.2993 10.3268C14.0691 10.0535 14.1141 9.65345 14.3998 9.43327C14.6855 9.21309 15.1036 9.25613 15.3338 9.52942L17.0787 11.6013C17.2747 11.834 17.2747 12.166 17.0787 12.3987L15.3338 14.4706C15.1036 14.7439 14.6855 14.7869 14.3998 14.5667C14.1141 14.3466 14.0691 13.9465 14.2993 13.6732L15.7085 12L14.2993 10.3268Z" fill="#626F84"/>
</svg>
