<svg width="24" height="24" viewBox="0 0 24 24" fill="none" xmlns="http://www.w3.org/2000/svg">
<path fill-rule="evenodd" clip-rule="evenodd" d="M21.5453 17.2666C22.128 17.9944 22.1211 19.0015 21.5344 19.726C20.7173 20.735 19.3026 22 17.345 22C15.3839 22 13.9713 20.7305 13.1579 19.7206C12.5763 18.9985 12.5695 17.9975 13.147 17.2721C13.9502 16.2634 15.3537 14.9998 17.345 14.9998C19.3327 14.9998 20.7385 16.2588 21.5453 17.2666ZM19.3503 18.4999C19.3503 19.6045 18.4549 20.5 17.3503 20.5C16.2457 20.5 15.3502 19.6045 15.3502 18.4999C15.3502 17.3953 16.2457 16.4999 17.3503 16.4999C18.4549 16.4999 19.3503 17.3953 19.3503 18.4999Z" fill="#626F84"/>
<path fill-rule="evenodd" clip-rule="evenodd" d="M7 4C5.34315 4 4 5.34315 4 7V17C4 18.6569 5.34315 20 7 20H11.2957C11.5215 20 11.6691 19.7577 11.5953 19.5443C11.2411 18.5188 11.4152 17.3601 12.1299 16.4624C12.7177 15.7241 13.6658 14.7679 14.975 14.1959L16.5605 12.0055L15.1286 10.0789C14.9126 9.78834 14.9552 9.36331 15.2236 9.12957C15.492 8.89583 15.8847 8.94188 16.1006 9.23243L17.843 11.5768C18.0247 11.8214 18.0268 12.1693 17.8479 12.4164L16.9075 13.7157C17.0505 13.7053 17.1963 13.6998 17.3449 13.6998C18.1682 13.6998 18.9061 13.8664 19.5585 14.1298C19.7651 14.2131 20 14.0669 20 13.8442V7C20 5.34315 18.6569 4 17 4H7ZM12.8249 9.02716C13.1708 9.12316 13.3734 9.4814 13.2774 9.82731L11.975 14.5203C11.879 14.8662 11.5207 15.0688 11.1748 14.9728C10.8289 14.8768 10.6263 14.5186 10.7223 14.1727L12.0247 9.47966C12.1207 9.13375 12.479 8.93116 12.8249 9.02716ZM8.87377 10.0793C9.08991 9.78891 9.04765 9.36384 8.77939 9.12989C8.51112 8.89593 8.11843 8.94167 7.90229 9.23205L6.15733 11.5764C5.97327 11.8237 5.97327 12.1763 6.15733 12.4236L7.90229 14.768C8.11843 15.0583 8.51112 15.1041 8.77939 14.8701C9.04765 14.6362 9.08991 14.2111 8.87377 13.9207L7.44412 12L8.87377 10.0793Z" fill="#626F84"/>
</svg>
