<svg width="24" height="24" viewBox="0 0 24 24" fill="none" xmlns="http://www.w3.org/2000/svg">
<path d="M11.0001 3.01562C9.53656 3.01562 8.35011 4.20207 8.35011 5.66563C8.35011 6.02461 8.64113 6.31563 9.00011 6.31563C9.3591 6.31563 9.65011 6.02461 9.65011 5.66563C9.65011 4.92004 10.2545 4.31563 11.0001 4.31563H13.0001C13.7457 4.31563 14.3501 4.92004 14.3501 5.66563C14.3501 6.02461 14.6411 6.31563 15.0001 6.31563C15.3591 6.31563 15.6501 6.02461 15.6501 5.66563C15.6501 4.20207 14.4637 3.01562 13.0001 3.01562H11.0001Z" fill="#626F84"/>
<path d="M2.99536 10.4668C2.99536 8.80684 4.33536 7.46684 5.99536 7.46684L17.9993 7.46683C19.6493 7.46683 20.9993 8.80683 20.9993 10.4668L20.9991 12.037C20.9991 12.5697 20.7823 13.0794 20.3986 13.4489C20.0334 13.8006 19.5461 13.9971 19.039 13.9971H4.96832C4.45749 13.9971 3.96656 13.799 3.59877 13.4445C3.2235 13.0828 3.007 12.5877 2.99536 12.0678V10.4668Z" fill="#626F84"/>
<path d="M19.6757 15.2911C20.2526 15.2679 20.9993 15.726 20.9993 16.3033V16.9989C20.9993 18.6589 19.6593 19.9989 17.9993 19.9989H5.99536C4.33536 19.9989 2.99536 18.6589 2.99536 16.9989V16.3003C2.99536 15.7224 3.74333 15.2654 4.32073 15.2902C4.49707 15.2978 4.67699 15.2975 4.85878 15.2972L4.96832 15.2971H7.35011V16.9093C7.35011 17.2683 7.64113 17.5593 8.00011 17.5593C8.3591 17.5593 8.65011 17.2683 8.65011 16.9093V15.2971H15.3501V16.9077C15.3501 17.2667 15.6411 17.5577 16.0001 17.5577C16.3591 17.5577 16.6501 17.2667 16.6501 16.9077V15.2971H19.039L19.1577 15.2972C19.3326 15.2976 19.5058 15.298 19.6757 15.2911Z" fill="#626F84"/>
</svg>
