<svg width="24" height="24" viewBox="0 0 24 24" fill="none" xmlns="http://www.w3.org/2000/svg">
<path d="M8.35011 5.66563C8.35011 4.20207 9.53655 3.01562 11.0001 3.01562H13.0001C14.4637 3.01562 15.6501 4.20207 15.6501 5.66563C15.6501 6.02461 15.3591 6.31563 15.0001 6.31563C14.6411 6.31563 14.3501 6.02461 14.3501 5.66563C14.3501 4.92004 13.7457 4.31563 13.0001 4.31563H11.0001C10.2545 4.31563 9.65011 4.92004 9.65011 5.66563C9.65011 6.02461 9.35909 6.31563 9.00011 6.31563C8.64112 6.31563 8.35011 6.02461 8.35011 5.66563Z" fill="#626F84"/>
<path fill-rule="evenodd" clip-rule="evenodd" d="M2.99536 10.4668C2.99536 8.80684 4.33536 7.46684 5.99536 7.46684L17.9993 7.46683C19.6493 7.46683 20.9993 8.80683 20.9993 10.4668L20.9993 16.9989C20.9993 18.6589 19.6593 19.9989 17.9993 19.9989H5.99536C4.33536 19.9989 2.99536 18.6589 2.99536 16.9989V10.4668ZM19.6993 10.4668C19.6993 9.52683 18.9393 8.76683 17.9993 8.76683L5.99536 8.76684C5.05536 8.76684 4.29536 9.52684 4.29536 10.4668V11.6387L4.29616 12.2024C4.29616 12.6449 4.45966 13.0719 4.75526 13.4012C5.09566 13.7804 5.58123 13.9971 6.09082 13.9971H17.9157C18.4214 13.9971 18.9033 13.7822 19.2413 13.406C19.5352 13.0789 19.6978 12.6547 19.6978 12.215V11.6471H19.6993V10.4668ZM19.6993 14.7286C19.1826 15.0952 18.5603 15.2971 17.9157 15.2971H16.6501V16.7615C16.6501 17.1204 16.3591 17.4115 16.0001 17.4115C15.6411 17.4115 15.3501 17.1204 15.3501 16.7615V15.2971H8.65011V16.7631C8.65011 17.1221 8.35909 17.4131 8.00011 17.4131C7.64112 17.4131 7.35011 17.1221 7.35011 16.7631V15.2971H6.09082C5.44164 15.2971 4.81508 15.0932 4.29536 14.723V16.9989C4.29536 17.9389 5.05536 18.6989 5.99536 18.6989H17.9993C18.9393 18.6989 19.6993 17.9389 19.6993 16.9989V14.7286Z" fill="#626F84"/>
</svg>
