<svg width="40.000000" height="40.000000" viewBox="0 0 40 40" fill="none" xmlns="http://www.w3.org/2000/svg" xmlns:xlink="http://www.w3.org/1999/xlink">
	<desc>
			Created with Pixso.
	</desc>
	<defs>
		<clipPath id="clip17_7440">
			<rect id="Maestro L" width="40.000000" height="40.000000" fill="white" fill-opacity="0"/>
		</clipPath>
	</defs>
	<g clip-path="url(#clip17_7440)">
		<rect id="Maestro M" width="28.000000" height="20.000000" transform="translate(6.000000 10.000000)" fill="#FFFFFF" fill-opacity="0"/>
		<rect id="BG" x="6.000000" y="10.000000" rx="2.000000" width="28.000000" height="20.000000" fill="#F0F2F5" fill-opacity="1.000000"/>
		<path id="Intersection" d="M17.61 24.4L22.36 24.4L22.36 15.68L17.61 15.68L17.61 24.4Z" fill="#6C6BBD" fill-opacity="1.000000" fill-rule="evenodd"/>
		<path id="Red" d="M17.92 20C17.92 18.24 18.73 16.68 20 15.67C19.07 14.93 17.9 14.5 16.63 14.5C13.63 14.5 11.2 16.96 11.2 20C11.2 23.03 13.63 25.5 16.63 25.5C17.9 25.5 19.07 25.06 20 24.32C18.73 23.31 17.92 21.75 17.92 20Z" fill="#EB001B" fill-opacity="1.000000" fill-rule="evenodd"/>
		<path id="Blue" d="M28.78 19.99C28.78 23.03 26.35 25.5 23.34 25.5C22.08 25.5 20.91 25.06 19.98 24.32C21.25 23.31 22.06 21.75 22.06 19.99C22.06 18.24 21.25 16.68 19.98 15.67C20.91 14.93 22.08 14.5 23.34 14.5C26.35 14.5 28.78 16.96 28.78 19.99Z" fill="#0099DF" fill-opacity="1.000000" fill-rule="evenodd"/>
	</g>
</svg>
