<svg viewBox="0 0 22.0874 10" xmlns="http://www.w3.org/2000/svg" xmlns:xlink="http://www.w3.org/1999/xlink" width="22.087433" height="10.000000" fill="none" customFrame="#000000">
	<rect id="Maestro S" width="22.000000" height="10.000000" x="0.000000" y="0.000000" fill="rgb(255,255,255)" fill-opacity="0" />
	<rect id="BG" width="21.904249" height="10.000000" x="0.000000" y="0.000000" />
	<path id="Shape" d="M8 5.25903C8 2.90686 9.90685 1 12.259 1C14.6113 1 16.5181 2.90686 16.5181 5.25903C16.5181 7.61127 14.6113 9.51807 12.259 9.51807C9.90685 9.51807 8 7.61127 8 5.25903Z" fill="rgb(235,0,27)" fill-rule="evenodd" />
	<path id="Shape" d="M13.5693 5.25903C13.5693 2.90686 15.4762 1 17.8284 1C20.1806 1 22.0874 2.90686 22.0874 5.25903C22.0874 7.61127 20.1806 9.51807 17.8284 9.51807C15.4762 9.51807 13.5693 7.61127 13.5693 5.25903Z" fill="rgb(235,0,27)" fill-rule="evenodd" />
	<path id="Shape" d="M13.5693 5.25903C13.5693 2.90686 15.4762 1 17.8284 1C20.1806 1 22.0874 2.90686 22.0874 5.25903C22.0874 7.61127 20.1806 9.51807 17.8284 9.51807C15.4762 9.51807 13.5693 7.61127 13.5693 5.25903Z" fill="rgb(0,153,223)" fill-rule="evenodd" />
	<path id="Shape" d="M15.0434 2.03687C15.9463 2.81781 16.5181 3.97162 16.5181 5.25903C16.5181 6.54645 15.9463 7.70068 15.0434 8.48163C14.1406 7.70068 13.5693 6.54645 13.5693 5.25903C13.5693 3.97162 14.1406 2.81781 15.0434 2.03687Z" fill="rgb(235,0,27)" fill-rule="evenodd" />
	<path id="Shape" d="M15.0434 2.03687C15.9463 2.81781 16.5181 3.97162 16.5181 5.25903C16.5181 6.54645 15.9463 7.70068 15.0434 8.48163C14.1406 7.70068 13.5693 6.54645 13.5693 5.25903C13.5693 3.97162 14.1406 2.81781 15.0434 2.03687Z" fill="rgb(108,107,189)" fill-rule="evenodd" />
</svg>
