<svg width="22.004395" height="10.004395" viewBox="0 0 22.0044 10.0044" fill="none" xmlns="http://www.w3.org/2000/svg" xmlns:xlink="http://www.w3.org/1999/xlink">
	<desc>
			Created with Pixso.
	</desc>
	<defs/>
	<rect id="Milli White S" rx="-0.500000" width="21.004395" height="9.004395" transform="translate(0.500000 0.500000)" fill="#FFFFFF" fill-opacity="0"/>
	<path id="Union" d="M17.66 0.98L17 0L16.34 0.98C16.17 0.88 15.96 0.83 15.75 0.83C15.29 0.83 14.89 1.08 14.67 1.44L13.32 1.17L13.6 2.59C13.15 2.78 12.83 3.23 12.83 3.75C12.83 3.96 12.88 4.16 12.98 4.34L12 4.99L12.98 5.65C12.89 5.83 12.83 6.03 12.83 6.25C12.83 6.71 13.09 7.12 13.47 7.34L13.17 8.79L14.64 8.5C14.85 8.9 15.27 9.17 15.75 9.17C15.96 9.17 16.17 9.11 16.34 9.02L17 10L17.66 9.02C17.83 9.11 18.03 9.17 18.25 9.17C18.73 9.17 19.15 8.89 19.36 8.49L20.78 8.77L20.49 7.36C20.89 7.15 21.17 6.73 21.17 6.25C21.17 6.03 21.11 5.83 21.02 5.65L22 4.99L21.02 4.34C21.11 4.16 21.17 3.96 21.17 3.75C21.17 3.23 20.86 2.79 20.42 2.6L20.7 1.19L19.34 1.46C19.12 1.08 18.72 0.83 18.25 0.83C18.03 0.83 17.83 0.88 17.66 0.98ZM16.95 3.34C16.92 3.36 16.89 3.42 16.84 3.55L16.53 4.32C16.51 4.36 16.51 4.38 16.5 4.39C16.48 4.41 16.47 4.41 16.46 4.42C16.44 4.43 16.42 4.43 16.38 4.43L15.59 4.5C15.46 4.51 15.39 4.52 15.36 4.55C15.34 4.58 15.33 4.61 15.33 4.65C15.34 4.69 15.39 4.73 15.49 4.82L16.09 5.37C16.12 5.39 16.14 5.41 16.15 5.42C16.15 5.44 16.16 5.45 16.16 5.47C16.16 5.49 16.16 5.51 16.15 5.55L15.97 6.36C15.94 6.5 15.92 6.56 15.94 6.6C15.95 6.63 15.98 6.65 16.02 6.66C16.06 6.67 16.11 6.63 16.22 6.56L16.91 6.12C16.94 6.1 16.96 6.09 16.98 6.09C16.99 6.09 17.01 6.09 17.02 6.09C17.04 6.09 17.06 6.1 17.09 6.12L17.78 6.56C17.89 6.63 17.94 6.67 17.98 6.66C18.01 6.65 18.04 6.63 18.06 6.6C18.08 6.56 18.06 6.5 18.03 6.36L17.85 5.55C17.84 5.51 17.84 5.49 17.84 5.47C17.84 5.45 17.84 5.44 17.85 5.42C17.86 5.41 17.87 5.39 17.9 5.37L18.51 4.82C18.61 4.73 18.66 4.69 18.66 4.65C18.67 4.61 18.66 4.58 18.63 4.55C18.61 4.52 18.54 4.51 18.41 4.5L17.61 4.43C17.57 4.43 17.56 4.43 17.54 4.42C17.53 4.41 17.51 4.41 17.5 4.39C17.49 4.38 17.48 4.36 17.47 4.32L17.16 3.55C17.11 3.42 17.08 3.36 17.05 3.34C17.02 3.32 16.98 3.32 16.95 3.34Z" fill="#FFFFFF" fill-opacity="1.000000" fill-rule="evenodd"/>
</svg>
