<svg viewBox="0 0 40 40" xmlns="http://www.w3.org/2000/svg" xmlns:xlink="http://www.w3.org/1999/xlink" width="40.000000" height="40.000000" fill="none" customFrame="#000000">
	<defs>
		<clipPath id="clipPath_8">
			<rect width="28.000000" height="20.000000" x="6.000000" y="10.000000" fill="rgb(255,255,255)" />
		</clipPath>
		<linearGradient id="paint_linear_91" x1="20.0021973" x2="20.0021973" y1="13.0039062" y2="27.0004883" gradientUnits="userSpaceOnUse">
			<stop stop-color="rgb(187,144,38)" offset="0.276041657" stop-opacity="1" />
			<stop stop-color="rgb(195.422,153.224,49.2292)" offset="0.661458313" stop-opacity="1" />
			<stop stop-color="rgb(208,167,66)" offset="1" stop-opacity="1" />
		</linearGradient>
		<linearGradient id="paint_linear_92" x1="20.0021973" x2="20.0021973" y1="13.0039062" y2="27.0004883" gradientUnits="userSpaceOnUse">
			<stop stop-color="rgb(187,144,38)" offset="0.276041657" stop-opacity="1" />
			<stop stop-color="rgb(195.422,153.224,49.2292)" offset="0.661458313" stop-opacity="1" />
			<stop stop-color="rgb(208,167,66)" offset="1" stop-opacity="1" />
		</linearGradient>
		<linearGradient id="paint_linear_93" x1="20.0021973" x2="20.0021973" y1="13.0039062" y2="27.0004883" gradientUnits="userSpaceOnUse">
			<stop stop-color="rgb(187,144,38)" offset="0.276041657" stop-opacity="1" />
			<stop stop-color="rgb(195.422,153.224,49.2292)" offset="0.661458313" stop-opacity="1" />
			<stop stop-color="rgb(208,167,66)" offset="1" stop-opacity="1" />
		</linearGradient>
		<linearGradient id="paint_linear_94" x1="20.0021973" x2="20.0021973" y1="13.0039062" y2="27.0004883" gradientUnits="userSpaceOnUse">
			<stop stop-color="rgb(187,144,38)" offset="0.276041657" stop-opacity="1" />
			<stop stop-color="rgb(195.422,153.224,49.2292)" offset="0.661458313" stop-opacity="1" />
			<stop stop-color="rgb(208,167,66)" offset="1" stop-opacity="1" />
		</linearGradient>
		<linearGradient id="paint_linear_95" x1="20.0021973" x2="20.0021973" y1="13.0039062" y2="27.0004883" gradientUnits="userSpaceOnUse">
			<stop stop-color="rgb(187,144,38)" offset="0.276041657" stop-opacity="1" />
			<stop stop-color="rgb(195.422,153.224,49.2292)" offset="0.661458313" stop-opacity="1" />
			<stop stop-color="rgb(208,167,66)" offset="1" stop-opacity="1" />
		</linearGradient>
		<linearGradient id="paint_linear_96" x1="20.0021973" x2="20.0021973" y1="13.0039062" y2="27.0004883" gradientUnits="userSpaceOnUse">
			<stop stop-color="rgb(187,144,38)" offset="0.276041657" stop-opacity="1" />
			<stop stop-color="rgb(195.422,153.224,49.2292)" offset="0.661458313" stop-opacity="1" />
			<stop stop-color="rgb(208,167,66)" offset="1" stop-opacity="1" />
		</linearGradient>
		<linearGradient id="paint_linear_97" x1="20.0021973" x2="20.0021973" y1="13.0039062" y2="27.0004883" gradientUnits="userSpaceOnUse">
			<stop stop-color="rgb(187,144,38)" offset="0.276041657" stop-opacity="1" />
			<stop stop-color="rgb(195.422,153.224,49.2292)" offset="0.661458313" stop-opacity="1" />
			<stop stop-color="rgb(208,167,66)" offset="1" stop-opacity="1" />
		</linearGradient>
		<linearGradient id="paint_linear_98" x1="20.0021973" x2="20.0021973" y1="13.0039062" y2="27.0004883" gradientUnits="userSpaceOnUse">
			<stop stop-color="rgb(187,144,38)" offset="0.276041657" stop-opacity="1" />
			<stop stop-color="rgb(195.422,153.224,49.2292)" offset="0.661458313" stop-opacity="1" />
			<stop stop-color="rgb(208,167,66)" offset="1" stop-opacity="1" />
		</linearGradient>
		<linearGradient id="paint_linear_99" x1="20.0021973" x2="20.0021973" y1="13.0039062" y2="27.0004883" gradientUnits="userSpaceOnUse">
			<stop stop-color="rgb(187,144,38)" offset="0.276041657" stop-opacity="1" />
			<stop stop-color="rgb(195.422,153.224,49.2292)" offset="0.661458313" stop-opacity="1" />
			<stop stop-color="rgb(208,167,66)" offset="1" stop-opacity="1" />
		</linearGradient>
		<linearGradient id="paint_linear_100" x1="20.0021973" x2="20.0021973" y1="13.0039062" y2="27.0004883" gradientUnits="userSpaceOnUse">
			<stop stop-color="rgb(187,144,38)" offset="0.276041657" stop-opacity="1" />
			<stop stop-color="rgb(195.422,153.224,49.2292)" offset="0.661458313" stop-opacity="1" />
			<stop stop-color="rgb(208,167,66)" offset="1" stop-opacity="1" />
		</linearGradient>
		<linearGradient id="paint_linear_101" x1="20.0021973" x2="20.0021973" y1="13.0039062" y2="27.0004883" gradientUnits="userSpaceOnUse">
			<stop stop-color="rgb(187,144,38)" offset="0.276041657" stop-opacity="1" />
			<stop stop-color="rgb(195.422,153.224,49.2292)" offset="0.661458313" stop-opacity="1" />
			<stop stop-color="rgb(208,167,66)" offset="1" stop-opacity="1" />
		</linearGradient>
		<linearGradient id="paint_linear_102" x1="20.0021973" x2="20.0021973" y1="13.0039062" y2="27.0004883" gradientUnits="userSpaceOnUse">
			<stop stop-color="rgb(187,144,38)" offset="0.276041657" stop-opacity="1" />
			<stop stop-color="rgb(195.422,153.224,49.2292)" offset="0.661458313" stop-opacity="1" />
			<stop stop-color="rgb(208,167,66)" offset="1" stop-opacity="1" />
		</linearGradient>
		<linearGradient id="paint_linear_103" x1="20.0021973" x2="20.0021973" y1="13.0039062" y2="27.0004883" gradientUnits="userSpaceOnUse">
			<stop stop-color="rgb(187,144,38)" offset="0.276041657" stop-opacity="1" />
			<stop stop-color="rgb(195.422,153.224,49.2292)" offset="0.661458313" stop-opacity="1" />
			<stop stop-color="rgb(208,167,66)" offset="1" stop-opacity="1" />
		</linearGradient>
		<linearGradient id="paint_linear_104" x1="20.0021973" x2="20.0021973" y1="13.0039062" y2="27.0004883" gradientUnits="userSpaceOnUse">
			<stop stop-color="rgb(187,144,38)" offset="0.276041657" stop-opacity="1" />
			<stop stop-color="rgb(195.422,153.224,49.2292)" offset="0.661458313" stop-opacity="1" />
			<stop stop-color="rgb(208,167,66)" offset="1" stop-opacity="1" />
		</linearGradient>
		<linearGradient id="paint_linear_105" x1="20.0021973" x2="20.0021973" y1="13.0039062" y2="27.0004883" gradientUnits="userSpaceOnUse">
			<stop stop-color="rgb(187,144,38)" offset="0.276041657" stop-opacity="1" />
			<stop stop-color="rgb(195.422,153.224,49.2292)" offset="0.661458313" stop-opacity="1" />
			<stop stop-color="rgb(208,167,66)" offset="1" stop-opacity="1" />
		</linearGradient>
		<linearGradient id="paint_linear_106" x1="20.0021973" x2="20.0021973" y1="13.0039062" y2="27.0004883" gradientUnits="userSpaceOnUse">
			<stop stop-color="rgb(187,144,38)" offset="0.276041657" stop-opacity="1" />
			<stop stop-color="rgb(195.422,153.224,49.2292)" offset="0.661458313" stop-opacity="1" />
			<stop stop-color="rgb(208,167,66)" offset="1" stop-opacity="1" />
		</linearGradient>
		<linearGradient id="paint_linear_107" x1="20.0021973" x2="20.0021973" y1="13.0039062" y2="27.0004883" gradientUnits="userSpaceOnUse">
			<stop stop-color="rgb(187,144,38)" offset="0.276041657" stop-opacity="1" />
			<stop stop-color="rgb(195.422,153.224,49.2292)" offset="0.661458313" stop-opacity="1" />
			<stop stop-color="rgb(208,167,66)" offset="1" stop-opacity="1" />
		</linearGradient>
	</defs>
	<rect id="Milli L" width="40.000000" height="40.000000" x="0.000000" y="0.000000" fill="rgb(255,255,255)" fill-opacity="0" />
	<g id="Milli M" customFrame="url(#clipPath_8)">
		<rect id="Milli M" width="28.000000" height="20.000000" x="6.000000" y="10.000000" />
		<rect id="BG" width="28.000000" height="20.000000" x="6.000000" y="10.000000" rx="2.000000" fill="rgb(245,245,246)" />
		<path id="Shape" d="M17.6724 18.2525C17.6724 19.2188 16.8891 20.0021 15.9228 20.0021C14.9565 20.0021 14.1732 19.2188 14.1732 18.2525C14.1732 17.2863 14.9565 16.5029 15.9228 16.5029C16.8891 16.5029 17.6724 17.2863 17.6724 18.2525Z" fill="url(#paint_linear_91)" fill-rule="nonzero" />
		<path id="Shape" d="M24.6704 20.0023C24.6704 22.579 22.5816 24.6678 20.0049 24.6678C17.4282 24.6678 15.3394 22.579 15.3394 20.0023C15.3394 17.4256 17.4282 15.3367 20.0049 15.3367C22.5816 15.3367 24.6704 17.4256 24.6704 20.0023Z" fill="url(#paint_linear_91)" fill-rule="nonzero" />
		<path id="Shape" d="M24.6704 20.0023C24.6704 22.579 22.5816 24.6678 20.0049 24.6678C17.4282 24.6678 15.3394 22.579 15.3394 20.0023C15.3394 17.4256 17.4282 15.3367 20.0049 15.3367C22.5816 15.3367 24.6704 17.4256 24.6704 20.0023Z" fill="url(#paint_linear_92)" fill-rule="nonzero" />
		<path id="Shape" d="M17.6724 21.7515C17.6724 22.7178 16.8891 23.5011 15.9228 23.5011C14.9565 23.5011 14.1732 22.7178 14.1732 21.7515C14.1732 20.7852 14.9565 20.0021 15.9228 20.0021C16.8891 20.0021 17.6724 20.7852 17.6724 21.7515Z" fill="url(#paint_linear_91)" fill-rule="nonzero" />
		<path id="Shape" d="M17.6724 21.7515C17.6724 22.7178 16.8891 23.5011 15.9228 23.5011C14.9565 23.5011 14.1732 22.7178 14.1732 21.7515C14.1732 20.7852 14.9565 20.0021 15.9228 20.0021C16.8891 20.0021 17.6724 20.7852 17.6724 21.7515Z" fill="url(#paint_linear_93)" fill-rule="nonzero" />
		<path id="Shape" d="M25.8371 18.2525C25.8371 19.2188 25.0538 20.0021 24.0875 20.0021C23.1212 20.0021 22.3379 19.2188 22.3379 18.2525C22.3379 17.2863 23.1212 16.5029 24.0875 16.5029C25.0538 16.5029 25.8371 17.2863 25.8371 18.2525Z" fill="url(#paint_linear_91)" fill-rule="nonzero" />
		<path id="Shape" d="M25.8371 18.2525C25.8371 19.2188 25.0538 20.0021 24.0875 20.0021C23.1212 20.0021 22.3379 19.2188 22.3379 18.2525C22.3379 17.2863 23.1212 16.5029 24.0875 16.5029C25.0538 16.5029 25.8371 17.2863 25.8371 18.2525Z" fill="url(#paint_linear_94)" fill-rule="nonzero" />
		<path id="Shape" d="M25.8371 21.7515C25.8371 22.7178 25.0538 23.5011 24.0875 23.5011C23.1212 23.5011 22.3379 22.7178 22.3379 21.7515C22.3379 20.7852 23.1212 20.0021 24.0875 20.0021C25.0538 20.0021 25.8371 20.7852 25.8371 21.7515Z" fill="url(#paint_linear_91)" fill-rule="nonzero" />
		<path id="Shape" d="M25.8371 21.7515C25.8371 22.7178 25.0538 23.5011 24.0875 23.5011C23.1212 23.5011 22.3379 22.7178 22.3379 21.7515C22.3379 20.7852 23.1212 20.0021 24.0875 20.0021C25.0538 20.0021 25.8371 20.7852 25.8371 21.7515Z" fill="url(#paint_linear_95)" fill-rule="nonzero" />
		<path id="Shape" d="M20.0052 15.9202C20.0052 16.8864 19.2219 17.6697 18.2556 17.6697C17.2894 17.6697 16.5061 16.8864 16.5061 15.9202C16.5061 14.9539 17.2894 14.1706 18.2556 14.1706C19.2219 14.1706 20.0052 14.9539 20.0052 15.9202Z" fill="url(#paint_linear_91)" fill-rule="nonzero" />
		<path id="Shape" d="M20.0052 15.9202C20.0052 16.8864 19.2219 17.6697 18.2556 17.6697C17.2894 17.6697 16.5061 16.8864 16.5061 15.9202C16.5061 14.9539 17.2894 14.1706 18.2556 14.1706C19.2219 14.1706 20.0052 14.9539 20.0052 15.9202Z" fill="url(#paint_linear_96)" fill-rule="nonzero" />
		<path id="Shape" d="M20.0052 24.0844C20.0052 25.0506 19.2219 25.8339 18.2556 25.8339C17.2894 25.8339 16.5061 25.0506 16.5061 24.0844C16.5061 23.1181 17.2894 22.3348 18.2556 22.3348C19.2219 22.3348 20.0052 23.1181 20.0052 24.0844Z" fill="url(#paint_linear_91)" fill-rule="nonzero" />
		<path id="Shape" d="M20.0052 24.0844C20.0052 25.0506 19.2219 25.8339 18.2556 25.8339C17.2894 25.8339 16.5061 25.0506 16.5061 24.0844C16.5061 23.1181 17.2894 22.3348 18.2556 22.3348C19.2219 22.3348 20.0052 23.1181 20.0052 24.0844Z" fill="url(#paint_linear_97)" fill-rule="nonzero" />
		<path id="Shape" d="M23.5042 15.9202C23.5042 16.8864 22.7209 17.6697 21.7547 17.6697C20.7884 17.6697 20.0052 16.8864 20.0052 15.9202C20.0052 14.9539 20.7884 14.1706 21.7547 14.1706C22.7209 14.1706 23.5042 14.9539 23.5042 15.9202Z" fill="url(#paint_linear_91)" fill-rule="nonzero" />
		<path id="Shape" d="M23.5042 15.9202C23.5042 16.8864 22.7209 17.6697 21.7547 17.6697C20.7884 17.6697 20.0052 16.8864 20.0052 15.9202C20.0052 14.9539 20.7884 14.1706 21.7547 14.1706C22.7209 14.1706 23.5042 14.9539 23.5042 15.9202Z" fill="url(#paint_linear_98)" fill-rule="nonzero" />
		<path id="Shape" d="M23.5042 24.0844C23.5042 25.0506 22.7209 25.8339 21.7547 25.8339C20.7884 25.8339 20.0052 25.0506 20.0052 24.0844C20.0052 23.1181 20.7884 22.3348 21.7547 22.3348C22.7209 22.3348 23.5042 23.1181 23.5042 24.0844Z" fill="url(#paint_linear_91)" fill-rule="nonzero" />
		<path id="Shape" d="M23.5042 24.0844C23.5042 25.0506 22.7209 25.8339 21.7547 25.8339C20.7884 25.8339 20.0052 25.0506 20.0052 24.0844C20.0052 23.1181 20.7884 22.3348 21.7547 22.3348C22.7209 22.3348 23.5042 23.1181 23.5042 24.0844Z" fill="url(#paint_linear_99)" fill-rule="nonzero" />
		<path id="Shape" d="M13.0039 19.9971L16.5031 17.6644L16.5031 22.3299L13.0039 19.9971Z" fill="url(#paint_linear_91)" fill-rule="evenodd" />
		<path id="Shape" d="M13.0039 19.9971L16.5031 17.6644L16.5031 22.3299L13.0039 19.9971Z" fill="url(#paint_linear_100)" fill-rule="evenodd" />
		<path id="Shape" d="M27.0005 19.9971L23.5013 17.6644L23.5013 22.3299L27.0005 19.9971Z" fill="url(#paint_linear_91)" fill-rule="evenodd" />
		<path id="Shape" d="M27.0005 19.9971L23.5013 17.6644L23.5013 22.3299L27.0005 19.9971Z" fill="url(#paint_linear_101)" fill-rule="evenodd" />
		<path id="Shape" d="M20.0052 27.0005L22.3379 23.5013L17.6724 23.5013L20.0052 27.0005Z" fill="url(#paint_linear_91)" fill-rule="evenodd" />
		<path id="Shape" d="M20.0052 27.0005L22.3379 23.5013L17.6724 23.5013L20.0052 27.0005Z" fill="url(#paint_linear_102)" fill-rule="evenodd" />
		<path id="Shape" d="M20.0052 13.0039L22.3379 16.5031L17.6724 16.5031L20.0052 13.0039Z" fill="url(#paint_linear_91)" fill-rule="evenodd" />
		<path id="Shape" d="M20.0052 13.0039L22.3379 16.5031L17.6724 16.5031L20.0052 13.0039Z" fill="url(#paint_linear_103)" fill-rule="evenodd" />
		<path id="Shape" d="M14.8534 14.6534L18.9772 15.4781L15.6782 18.7772L14.8534 14.6534Z" fill="url(#paint_linear_91)" fill-rule="evenodd" />
		<path id="Shape" d="M14.8534 14.6534L18.9772 15.4781L15.6782 18.7772L14.8534 14.6534Z" fill="url(#paint_linear_104)" fill-rule="evenodd" />
		<path id="Shape" d="M14.6534 25.3145L15.4782 21.1907L18.7772 24.4897L14.6534 25.3145Z" fill="url(#paint_linear_91)" fill-rule="evenodd" />
		<path id="Shape" d="M14.6534 25.3145L15.4782 21.1907L18.7772 24.4897L14.6534 25.3145Z" fill="url(#paint_linear_105)" fill-rule="evenodd" />
		<path id="Shape" d="M25.1797 14.6758L24.3549 18.7996L21.0559 15.5005L25.1797 14.6758Z" fill="url(#paint_linear_91)" fill-rule="evenodd" />
		<path id="Shape" d="M25.1797 14.6758L24.3549 18.7996L21.0559 15.5005L25.1797 14.6758Z" fill="url(#paint_linear_106)" fill-rule="evenodd" />
		<path id="Shape" d="M25.2924 25.2874L21.1686 24.4626L24.4676 21.1636L25.2924 25.2874Z" fill="url(#paint_linear_91)" fill-rule="evenodd" />
		<path id="Shape" d="M25.2924 25.2874L21.1686 24.4626L24.4676 21.1636L25.2924 25.2874Z" fill="url(#paint_linear_107)" fill-rule="evenodd" />
		<path id="Shape" d="M19.8141 18.2619C19.8738 18.1127 19.9037 18.0381 19.9458 18.0156C19.9823 17.9961 20.0255 17.9961 20.062 18.0156C20.1041 18.0381 20.134 18.1127 20.1937 18.2619L20.5669 19.1946C20.5845 19.2387 20.5934 19.2608 20.6075 19.2776C20.6199 19.2924 20.6353 19.3042 20.6526 19.3121C20.6721 19.321 20.6946 19.3229 20.7398 19.3268L21.6987 19.4098C21.8539 19.4232 21.9315 19.4299 21.965 19.4655C21.994 19.4964 22.0073 19.5402 22.0008 19.5831C21.9933 19.6328 21.9341 19.6861 21.8156 19.7929L21.0896 20.4471C21.0547 20.4785 21.0372 20.4943 21.0263 20.5137C21.0166 20.531 21.0107 20.5503 21.0089 20.5703C21.0068 20.5928 21.0121 20.6164 21.0227 20.6635L21.2433 21.6418C21.279 21.8004 21.2969 21.8797 21.2755 21.9243C21.2569 21.963 21.222 21.9901 21.1815 21.9971C21.1348 22.0052 21.0688 21.9632 20.9367 21.8792L20.1101 21.3537C20.0715 21.3292 20.0522 21.3169 20.0316 21.3121C20.0134 21.3079 19.9945 21.3079 19.9762 21.3121C19.9556 21.3169 19.9363 21.3292 19.8978 21.3537L19.0712 21.8792C18.9391 21.9632 18.873 22.0052 18.8263 21.9971C18.7858 21.9901 18.7509 21.963 18.7324 21.9243C18.711 21.8797 18.7288 21.8004 18.7646 21.6418L18.9851 20.6635C18.9957 20.6164 19.001 20.5928 18.999 20.5703C18.9972 20.5503 18.9912 20.531 18.9815 20.5137C18.9706 20.4943 18.9532 20.4785 18.9183 20.4471L18.1923 19.7929C18.0738 19.6861 18.0145 19.6328 18.007 19.5831C18.0005 19.5402 18.0138 19.4964 18.0429 19.4655C18.0763 19.4299 18.1539 19.4232 18.3091 19.4098L19.268 19.3268C19.3132 19.3229 19.3358 19.321 19.3552 19.3121C19.3725 19.3042 19.3879 19.2924 19.4003 19.2776C19.4144 19.2608 19.4233 19.2387 19.4409 19.1946L19.8141 18.2619Z" fill="url(#paint_linear_91)" fill-rule="nonzero" />
		<path id="Shape" d="M19.8141 18.2619C19.8738 18.1127 19.9037 18.0381 19.9458 18.0156C19.9823 17.9961 20.0255 17.9961 20.062 18.0156C20.1041 18.0381 20.134 18.1127 20.1937 18.2619L20.5669 19.1946C20.5845 19.2387 20.5934 19.2608 20.6075 19.2776C20.6199 19.2924 20.6353 19.3042 20.6526 19.3121C20.6721 19.321 20.6946 19.3229 20.7398 19.3268L21.6987 19.4098C21.8539 19.4232 21.9315 19.4299 21.965 19.4655C21.994 19.4964 22.0073 19.5402 22.0008 19.5831C21.9933 19.6328 21.9341 19.6861 21.8156 19.7929L21.0896 20.4471C21.0547 20.4785 21.0372 20.4943 21.0263 20.5137C21.0166 20.531 21.0107 20.5503 21.0089 20.5703C21.0068 20.5928 21.0121 20.6164 21.0227 20.6635L21.2433 21.6418C21.279 21.8004 21.2969 21.8797 21.2755 21.9243C21.2569 21.963 21.222 21.9901 21.1815 21.9971C21.1348 22.0052 21.0688 21.9632 20.9367 21.8792L20.1101 21.3537C20.0715 21.3292 20.0522 21.3169 20.0316 21.3121C20.0134 21.3079 19.9945 21.3079 19.9762 21.3121C19.9556 21.3169 19.9363 21.3292 19.8978 21.3537L19.0712 21.8792C18.9391 21.9632 18.873 22.0052 18.8263 21.9971C18.7858 21.9901 18.7509 21.963 18.7324 21.9243C18.711 21.8797 18.7288 21.8004 18.7646 21.6418L18.9851 20.6635C18.9957 20.6164 19.001 20.5928 18.999 20.5703C18.9972 20.5503 18.9912 20.531 18.9815 20.5137C18.9706 20.4943 18.9532 20.4785 18.9183 20.4471L18.1923 19.7929C18.0738 19.6861 18.0145 19.6328 18.007 19.5831C18.0005 19.5402 18.0138 19.4964 18.0429 19.4655C18.0763 19.4299 18.1539 19.4232 18.3091 19.4098L19.268 19.3268C19.3132 19.3229 19.3358 19.321 19.3552 19.3121C19.3725 19.3042 19.3879 19.2924 19.4003 19.2776C19.4144 19.2608 19.4233 19.2387 19.4409 19.1946L19.8141 18.2619Z" fill="rgb(255,255,255)" fill-rule="nonzero" />
	</g>
</svg>
