<svg viewBox="0 0 22.0044 10.0044" xmlns="http://www.w3.org/2000/svg" xmlns:xlink="http://www.w3.org/1999/xlink" width="22.004395" height="10.004395" fill="none" customFrame="#000000">
	<rect id="Milli S" width="22.004395" height="10.004395" x="0.000000" y="0.000000" fill="rgb(255,255,255)" fill-opacity="0" />
	<rect id="BG" width="22.000000" height="10.000000" x="0.000000" y="0.000000" />
	<path id="Shape" d="M15.3369 3.75156C15.3369 4.4422 14.777 5.00211 14.0863 5.00211C13.3957 5.00211 12.8358 4.4422 12.8358 3.75156C12.8358 3.06088 13.3957 2.50101 14.0863 2.50101C14.777 2.50101 15.3369 3.06088 15.3369 3.75156Z" fill="rgb(37,38,41)" fill-rule="nonzero" />
	<path id="Shape" d="M20.3389 5.00226C20.3389 6.84402 18.8459 8.33707 17.0041 8.33707C15.1624 8.33707 13.6693 6.84402 13.6693 5.00226C13.6693 3.16049 15.1624 1.66745 17.0041 1.66745C18.8459 1.66745 20.3389 3.16049 20.3389 5.00226Z" fill="rgb(37,38,41)" fill-rule="nonzero" />
	<path id="Shape" d="M20.3389 5.00226C20.3389 6.84402 18.8459 8.33707 17.0041 8.33707C15.1624 8.33707 13.6693 6.84402 13.6693 5.00226C13.6693 3.16049 15.1624 1.66745 17.0041 1.66745C18.8459 1.66745 20.3389 3.16049 20.3389 5.00226Z" fill="rgb(37,38,41)" fill-rule="nonzero" />
	<path id="Shape" d="M15.3369 6.25256C15.3369 6.94321 14.777 7.50311 14.0863 7.50311C13.3957 7.50311 12.8358 6.94321 12.8358 6.25256C12.8358 5.56189 13.3957 5.00211 14.0863 5.00211C14.777 5.00211 15.3369 5.56189 15.3369 6.25256Z" fill="rgb(37,38,41)" fill-rule="nonzero" />
	<path id="Shape" d="M15.3369 6.25256C15.3369 6.94321 14.777 7.50311 14.0863 7.50311C13.3957 7.50311 12.8358 6.94321 12.8358 6.25256C12.8358 5.56189 13.3957 5.00211 14.0863 5.00211C14.777 5.00211 15.3369 5.56189 15.3369 6.25256Z" fill="rgb(37,38,41)" fill-rule="nonzero" />
	<path id="Shape" d="M21.1728 3.75156C21.1728 4.4422 20.6129 5.00211 19.9223 5.00211C19.2316 5.00211 18.6717 4.4422 18.6717 3.75156C18.6717 3.06088 19.2316 2.50101 19.9223 2.50101C20.6129 2.50101 21.1728 3.06088 21.1728 3.75156Z" fill="rgb(37,38,41)" fill-rule="nonzero" />
	<path id="Shape" d="M21.1728 3.75156C21.1728 4.4422 20.6129 5.00211 19.9223 5.00211C19.2316 5.00211 18.6717 4.4422 18.6717 3.75156C18.6717 3.06088 19.2316 2.50101 19.9223 2.50101C20.6129 2.50101 21.1728 3.06088 21.1728 3.75156Z" fill="rgb(37,38,41)" fill-rule="nonzero" />
	<path id="Shape" d="M21.1728 6.25256C21.1728 6.94321 20.6129 7.50311 19.9223 7.50311C19.2316 7.50311 18.6717 6.94321 18.6717 6.25256C18.6717 5.56189 19.2316 5.00211 19.9223 5.00211C20.6129 5.00211 21.1728 5.56189 21.1728 6.25256Z" fill="rgb(37,38,41)" fill-rule="nonzero" />
	<path id="Shape" d="M21.1728 6.25256C21.1728 6.94321 20.6129 7.50311 19.9223 7.50311C19.2316 7.50311 18.6717 6.94321 18.6717 6.25256C18.6717 5.56189 19.2316 5.00211 19.9223 5.00211C20.6129 5.00211 21.1728 5.56189 21.1728 6.25256Z" fill="rgb(37,38,41)" fill-rule="nonzero" />
	<path id="Shape" d="M17.0044 2.08447C17.0044 2.77512 16.4445 3.33502 15.7538 3.33502C15.0631 3.33502 14.5033 2.77512 14.5033 2.08447C14.5033 1.3938 15.0631 0.833923 15.7538 0.833923C16.4445 0.833923 17.0044 1.3938 17.0044 2.08447Z" fill="rgb(37,38,41)" fill-rule="nonzero" />
	<path id="Shape" d="M17.0044 2.08447C17.0044 2.77512 16.4445 3.33502 15.7538 3.33502C15.0631 3.33502 14.5033 2.77512 14.5033 2.08447C14.5033 1.3938 15.0631 0.833923 15.7538 0.833923C16.4445 0.833923 17.0044 1.3938 17.0044 2.08447Z" fill="rgb(37,38,41)" fill-rule="nonzero" />
	<path id="Shape" d="M17.0044 7.92001C17.0044 8.61069 16.4445 9.17056 15.7538 9.17056C15.0631 9.17056 14.5033 8.61069 14.5033 7.92001C14.5033 7.22937 15.0631 6.66946 15.7538 6.66946C16.4445 6.66946 17.0044 7.22937 17.0044 7.92001Z" fill="rgb(37,38,41)" fill-rule="nonzero" />
	<path id="Shape" d="M17.0044 7.92001C17.0044 8.61069 16.4445 9.17056 15.7538 9.17056C15.0631 9.17056 14.5033 8.61069 14.5033 7.92001C14.5033 7.22937 15.0631 6.66946 15.7538 6.66946C16.4445 6.66946 17.0044 7.22937 17.0044 7.92001Z" fill="rgb(37,38,41)" fill-rule="nonzero" />
	<path id="Shape" d="M19.5054 2.08447C19.5054 2.77512 18.9455 3.33502 18.2548 3.33502C17.5641 3.33502 17.0044 2.77512 17.0044 2.08447C17.0044 1.3938 17.5641 0.833923 18.2548 0.833923C18.9455 0.833923 19.5054 1.3938 19.5054 2.08447Z" fill="rgb(37,38,41)" fill-rule="nonzero" />
	<path id="Shape" d="M19.5054 2.08447C19.5054 2.77512 18.9455 3.33502 18.2548 3.33502C17.5641 3.33502 17.0044 2.77512 17.0044 2.08447C17.0044 1.3938 17.5641 0.833923 18.2548 0.833923C18.9455 0.833923 19.5054 1.3938 19.5054 2.08447Z" fill="rgb(37,38,41)" fill-rule="nonzero" />
	<path id="Shape" d="M19.5054 7.92001C19.5054 8.61069 18.9455 9.17056 18.2548 9.17056C17.5641 9.17056 17.0044 8.61069 17.0044 7.92001C17.0044 7.22937 17.5641 6.66946 18.2548 6.66946C18.9455 6.66946 19.5054 7.22937 19.5054 7.92001Z" fill="rgb(37,38,41)" fill-rule="nonzero" />
	<path id="Shape" d="M19.5054 7.92001C19.5054 8.61069 18.9455 9.17056 18.2548 9.17056C17.5641 9.17056 17.0044 8.61069 17.0044 7.92001C17.0044 7.22937 17.5641 6.66946 18.2548 6.66946C18.9455 6.66946 19.5054 7.22937 19.5054 7.92001Z" fill="rgb(37,38,41)" fill-rule="nonzero" />
	<path id="Shape" d="M12 4.99857L14.5011 3.33118L14.5011 6.66595L12 4.99857Z" fill="rgb(37,38,41)" fill-rule="evenodd" />
	<path id="Shape" d="M12 4.99857L14.5011 3.33118L14.5011 6.66595L12 4.99857Z" fill="rgb(37,38,41)" fill-rule="evenodd" />
	<path id="Shape" d="M22.0044 4.99857L19.5033 3.33118L19.5033 6.66595L22.0044 4.99857Z" fill="rgb(37,38,41)" fill-rule="evenodd" />
	<path id="Shape" d="M22.0044 4.99857L19.5033 3.33118L19.5033 6.66595L22.0044 4.99857Z" fill="rgb(37,38,41)" fill-rule="evenodd" />
	<path id="Shape" d="M17.0043 10.0044L18.6717 7.5033L15.3369 7.5033L17.0043 10.0044Z" fill="rgb(37,38,41)" fill-rule="evenodd" />
	<path id="Shape" d="M17.0043 10.0044L18.6717 7.5033L15.3369 7.5033L17.0043 10.0044Z" fill="rgb(37,38,41)" fill-rule="evenodd" />
	<path id="Shape" d="M17.0043 0L18.6717 2.5011L15.3369 2.5011L17.0043 0Z" fill="rgb(37,38,41)" fill-rule="evenodd" />
	<path id="Shape" d="M17.0043 0L18.6717 2.5011L15.3369 2.5011L17.0043 0Z" fill="rgb(37,38,41)" fill-rule="evenodd" />
	<path id="Shape" d="M13.322 1.17902L16.2695 1.76855L13.9115 4.12659L13.322 1.17902Z" fill="rgb(37,38,41)" fill-rule="evenodd" />
	<path id="Shape" d="M13.322 1.17902L16.2695 1.76855L13.9115 4.12659L13.322 1.17902Z" fill="rgb(37,38,41)" fill-rule="evenodd" />
	<path id="Shape" d="M13.179 8.79926L13.7685 5.85168L16.1266 8.20972L13.179 8.79926Z" fill="rgb(37,38,41)" fill-rule="evenodd" />
	<path id="Shape" d="M13.179 8.79926L13.7685 5.85168L16.1266 8.20972L13.179 8.79926Z" fill="rgb(37,38,41)" fill-rule="evenodd" />
	<path id="Shape" d="M20.7029 1.19501L20.1134 4.14258L17.7553 1.78452L20.7029 1.19501Z" fill="rgb(37,38,41)" fill-rule="evenodd" />
	<path id="Shape" d="M20.7029 1.19501L20.1134 4.14258L17.7553 1.78452L20.7029 1.19501Z" fill="rgb(37,38,41)" fill-rule="evenodd" />
	<path id="Shape" d="M20.7835 8.77991L17.8359 8.1904L20.194 5.83234L20.7835 8.77991Z" fill="rgb(37,38,41)" fill-rule="evenodd" />
	<path id="Shape" d="M20.7835 8.77991L17.8359 8.1904L20.194 5.83234L20.7835 8.77991Z" fill="rgb(37,38,41)" fill-rule="evenodd" />
	<path id="Shape" d="M16.8457 3.55087C16.8954 3.42645 16.9203 3.36426 16.9554 3.34549C16.9859 3.32916 17.0219 3.32916 17.0524 3.34549C17.0875 3.36426 17.1124 3.42645 17.1622 3.55087L17.4734 4.3287C17.4882 4.36554 17.4955 4.38394 17.5073 4.39795C17.5177 4.41031 17.5305 4.42014 17.5449 4.4267C17.5612 4.43414 17.58 4.43576 17.6177 4.43903L18.4174 4.50821C18.5468 4.51941 18.6115 4.52502 18.6394 4.55469C18.6637 4.58044 18.6748 4.61691 18.6694 4.6528C18.6631 4.69412 18.6137 4.73868 18.5148 4.82773L17.9093 5.37332C17.8802 5.39957 17.8657 5.41266 17.8566 5.42892C17.8485 5.4433 17.8436 5.45938 17.842 5.47601C17.8403 5.49484 17.8448 5.5145 17.8536 5.55383L18.0375 6.36978C18.0674 6.50201 18.0822 6.56815 18.0644 6.60535C18.0489 6.6376 18.0198 6.66016 17.986 6.66602C17.9471 6.67276 17.892 6.63773 17.7818 6.56769L17.0925 6.12943C17.0603 6.10895 17.0442 6.09872 17.027 6.09473C17.0118 6.09119 16.996 6.09119 16.9809 6.09473C16.9637 6.09872 16.9476 6.10895 16.9154 6.12943L16.226 6.56769C16.1158 6.63773 16.0607 6.67276 16.0218 6.66602C15.988 6.66016 15.9589 6.6376 15.9434 6.60535C15.9256 6.56815 15.9405 6.50201 15.9703 6.36978L16.1542 5.55383C16.1631 5.5145 16.1675 5.49484 16.1658 5.47601C16.1643 5.45938 16.1593 5.4433 16.1513 5.42892C16.1421 5.41266 16.1276 5.39957 16.0985 5.37332L15.493 4.82773C15.3942 4.73868 15.3447 4.69412 15.3385 4.6528C15.3331 4.61691 15.3442 4.58044 15.3684 4.55469C15.3963 4.52502 15.461 4.51941 15.5904 4.50821L16.3902 4.43903C16.4278 4.43576 16.4467 4.43414 16.4629 4.4267C16.4773 4.42014 16.4901 4.41031 16.5005 4.39795C16.5123 4.38394 16.5197 4.36554 16.5344 4.3287L16.8457 3.55087Z" fill="rgb(37,38,41)" fill-rule="nonzero" />
	<path id="Shape" d="M16.8457 3.55087C16.8954 3.42645 16.9203 3.36426 16.9554 3.34549C16.9859 3.32916 17.0219 3.32916 17.0524 3.34549C17.0875 3.36426 17.1124 3.42645 17.1622 3.55087L17.4734 4.3287C17.4882 4.36554 17.4955 4.38394 17.5073 4.39795C17.5177 4.41031 17.5305 4.42014 17.5449 4.4267C17.5612 4.43414 17.58 4.43576 17.6177 4.43903L18.4174 4.50821C18.5468 4.51941 18.6115 4.52502 18.6394 4.55469C18.6637 4.58044 18.6748 4.61691 18.6694 4.6528C18.6631 4.69412 18.6137 4.73868 18.5148 4.82773L17.9093 5.37332C17.8802 5.39957 17.8657 5.41266 17.8566 5.42892C17.8485 5.4433 17.8436 5.45938 17.842 5.47601C17.8403 5.49484 17.8448 5.5145 17.8536 5.55383L18.0375 6.36978C18.0674 6.50201 18.0822 6.56815 18.0644 6.60535C18.0489 6.6376 18.0198 6.66016 17.986 6.66602C17.9471 6.67276 17.892 6.63773 17.7818 6.56769L17.0925 6.12943C17.0603 6.10895 17.0442 6.09872 17.027 6.09473C17.0118 6.09119 16.996 6.09119 16.9809 6.09473C16.9637 6.09872 16.9476 6.10895 16.9154 6.12943L16.226 6.56769C16.1158 6.63773 16.0607 6.67276 16.0218 6.66602C15.988 6.66016 15.9589 6.6376 15.9434 6.60535C15.9256 6.56815 15.9405 6.50201 15.9703 6.36978L16.1542 5.55383C16.1631 5.5145 16.1675 5.49484 16.1658 5.47601C16.1643 5.45938 16.1593 5.4433 16.1513 5.42892C16.1421 5.41266 16.1276 5.39957 16.0985 5.37332L15.493 4.82773C15.3942 4.73868 15.3447 4.69412 15.3385 4.6528C15.3331 4.61691 15.3442 4.58044 15.3684 4.55469C15.3963 4.52502 15.461 4.51941 15.5904 4.50821L16.3902 4.43903C16.4278 4.43576 16.4467 4.43414 16.4629 4.4267C16.4773 4.42014 16.4901 4.41031 16.5005 4.39795C16.5123 4.38394 16.5197 4.36554 16.5344 4.3287L16.8457 3.55087Z" fill="rgb(255,255,255)" fill-rule="nonzero" />
</svg>
