<svg width="28.000000" height="20.000000" viewBox="0 0 28 20" fill="none" xmlns="http://www.w3.org/2000/svg" xmlns:xlink="http://www.w3.org/1999/xlink">
	<desc>
			Created with Pixso.
	</desc>
	<defs>
		<linearGradient id="paint_linear_17_7521_0" x1="14.002197" y1="3.003906" x2="14.002197" y2="17.000488" gradientUnits="userSpaceOnUse">
			<stop offset="0.276042" stop-color="#BB9026"/>
			<stop offset="0.661458" stop-color="#C39931"/>
			<stop offset="1.000000" stop-color="#D0A742"/>
		</linearGradient>
	</defs>
	<rect id="BG" rx="2.000000" width="28.000000" height="20.000000" fill="#F0F2F5" fill-opacity="1.000000"/>
	<path id="Vector" d="M14 3L14.92 4.38C15.17 4.24 15.45 4.17 15.75 4.17C16.4 4.17 16.97 4.52 17.27 5.05L19.17 4.67L18.78 6.64C19.4 6.91 19.83 7.53 19.83 8.25C19.83 8.55 19.76 8.83 19.62 9.08L21 9.99L19.62 10.91C19.76 11.16 19.83 11.44 19.83 11.75C19.83 12.42 19.45 13.01 18.89 13.3L19.29 15.28L17.3 14.89C17.01 15.45 16.43 15.83 15.75 15.83C15.45 15.83 15.17 15.75 14.92 15.62L14 17L13.08 15.62C12.84 15.75 12.55 15.83 12.25 15.83C11.58 15.83 11 15.45 10.7 14.9L8.65 15.31L9.06 13.27C8.53 12.97 8.17 12.4 8.17 11.75C8.17 11.44 8.24 11.16 8.38 10.91L7 9.99L8.38 9.07C8.24 8.83 8.17 8.55 8.17 8.25C8.17 7.52 8.61 6.9 9.25 6.63L8.85 4.65L10.74 5.03C11.05 4.51 11.61 4.17 12.25 4.17C12.55 4.17 12.84 4.24 13.08 4.38L14 3Z" fill="url(#paint_linear_17_7521_0)" fill-opacity="1.000000" fill-rule="evenodd"/>
	<path id="Star" d="M13.81 8.26C13.87 8.11 13.9 8.03 13.94 8.01C13.98 7.99 14.02 7.99 14.06 8.01C14.1 8.03 14.13 8.11 14.19 8.26L14.56 9.19C14.58 9.23 14.59 9.26 14.6 9.27C14.61 9.29 14.63 9.3 14.65 9.31C14.67 9.32 14.69 9.32 14.73 9.32L15.69 9.4C15.85 9.42 15.93 9.42 15.96 9.46C15.99 9.49 16 9.54 16 9.58C15.99 9.63 15.93 9.68 15.81 9.79L15.08 10.44C15.05 10.47 15.03 10.49 15.02 10.51C15.01 10.53 15.01 10.55 15 10.57C15 10.59 15.01 10.61 15.02 10.66L15.24 11.64C15.27 11.8 15.29 11.87 15.27 11.92C15.25 11.96 15.22 11.99 15.18 11.99C15.13 12 15.06 11.96 14.93 11.87L14.11 11.35C14.07 11.32 14.05 11.31 14.03 11.31C14.01 11.3 13.99 11.3 13.97 11.31C13.95 11.31 13.93 11.32 13.89 11.35L13.07 11.87C12.93 11.96 12.87 12 12.82 11.99C12.78 11.99 12.75 11.96 12.73 11.92C12.71 11.87 12.72 11.8 12.76 11.64L12.98 10.66C12.99 10.61 13 10.59 12.99 10.57C12.99 10.55 12.99 10.53 12.98 10.51C12.97 10.49 12.95 10.47 12.91 10.44L12.19 9.79C12.07 9.68 12.01 9.63 12 9.58C12 9.54 12.01 9.49 12.04 9.46C12.07 9.42 12.15 9.42 12.3 9.4L13.26 9.32C13.31 9.32 13.33 9.32 13.35 9.31C13.37 9.3 13.38 9.29 13.4 9.27C13.41 9.26 13.42 9.23 13.44 9.19L13.81 8.26Z" fill="#FFFFFF" fill-opacity="1.000000" fill-rule="nonzero"/>
</svg>
