<svg width="23.000000" height="11.000000" viewBox="0 0 23 11" fill="none" xmlns="http://www.w3.org/2000/svg" xmlns:xlink="http://www.w3.org/1999/xlink">
	<desc>
			Created with Pixso.
	</desc>
	<defs/>
	<rect id="Milli S" width="22.004395" height="10.004395" fill="#FFFFFF" fill-opacity="0"/>
	<path id="Vector" d="M17 0L17.66 0.98C17.83 0.88 18.03 0.83 18.25 0.83C18.72 0.83 19.12 1.08 19.34 1.46L20.7 1.19L20.42 2.6C20.86 2.79 21.17 3.23 21.17 3.75C21.17 3.96 21.11 4.16 21.02 4.34L22 4.99L21.02 5.65C21.11 5.83 21.17 6.03 21.17 6.25C21.17 6.73 20.89 7.15 20.49 7.36L20.78 8.77L19.36 8.49C19.15 8.89 18.73 9.17 18.25 9.17C18.03 9.17 17.83 9.11 17.66 9.02L17 10L16.34 9.02C16.17 9.11 15.96 9.17 15.75 9.17C15.27 9.17 14.85 8.9 14.64 8.5L13.17 8.79L13.47 7.34C13.09 7.12 12.83 6.71 12.83 6.25C12.83 6.03 12.89 5.83 12.98 5.65L12 4.99L12.98 4.34C12.88 4.16 12.83 3.96 12.83 3.75C12.83 3.23 13.15 2.78 13.6 2.59L13.32 1.17L14.67 1.44C14.89 1.08 15.29 0.83 15.75 0.83C15.96 0.83 16.17 0.88 16.34 0.98L17 0Z" fill="#23262D" fill-opacity="1.000000" fill-rule="evenodd"/>
	<path id="Star" d="M16.84 3.55C16.89 3.42 16.92 3.36 16.95 3.34C16.98 3.32 17.02 3.32 17.05 3.34C17.08 3.36 17.11 3.42 17.16 3.55L17.47 4.32C17.48 4.36 17.49 4.38 17.5 4.39C17.51 4.41 17.53 4.42 17.54 4.42C17.56 4.43 17.58 4.43 17.61 4.43L18.41 4.5C18.54 4.51 18.61 4.52 18.63 4.55C18.66 4.58 18.67 4.61 18.66 4.65C18.66 4.69 18.61 4.73 18.51 4.82L17.9 5.37C17.88 5.39 17.86 5.41 17.85 5.42C17.84 5.44 17.84 5.45 17.84 5.47C17.84 5.49 17.84 5.51 17.85 5.55L18.03 6.36C18.06 6.5 18.08 6.56 18.06 6.6C18.04 6.63 18.01 6.66 17.98 6.66C17.94 6.67 17.89 6.63 17.78 6.56L17.09 6.12C17.06 6.1 17.04 6.09 17.02 6.09C17.01 6.09 16.99 6.09 16.98 6.09C16.96 6.09 16.94 6.1 16.91 6.12L16.22 6.56C16.11 6.63 16.06 6.67 16.02 6.66C15.98 6.66 15.95 6.63 15.94 6.6C15.92 6.56 15.94 6.5 15.97 6.36L16.15 5.55C16.16 5.51 16.16 5.49 16.16 5.47C16.16 5.45 16.15 5.44 16.15 5.42C16.14 5.41 16.12 5.39 16.09 5.37L15.49 4.82C15.39 4.73 15.34 4.69 15.33 4.65C15.33 4.61 15.34 4.58 15.36 4.55C15.39 4.52 15.46 4.51 15.59 4.5L16.39 4.43C16.42 4.43 16.44 4.43 16.46 4.42C16.47 4.42 16.49 4.41 16.5 4.39C16.51 4.38 16.51 4.36 16.53 4.32L16.84 3.55Z" fill="#FFFFFF" fill-opacity="1.000000" fill-rule="nonzero"/>
</svg>
