<svg width="22.004395" height="10.004395" viewBox="0 0 22.0044 10.0044" fill="none" xmlns="http://www.w3.org/2000/svg" xmlns:xlink="http://www.w3.org/1999/xlink">
	<desc>
			Created with Pixso.
	</desc>
	<defs/>
	<rect id="Milli S" rx="-0.500000" width="21.004395" height="9.004395" transform="translate(0.500000 0.500000)" fill="#FFFFFF" fill-opacity="0"/>
	<path id="Vector" d="M15.33 3.75C15.33 4.44 14.77 5 14.08 5C13.39 5 12.83 4.44 12.83 3.75C12.83 3.06 13.39 2.5 14.08 2.5C14.77 2.5 15.33 3.06 15.33 3.75Z" fill="#252629" fill-opacity="1.000000" fill-rule="nonzero"/>
	<path id="Vector" d="M20.33 5C20.33 6.84 18.84 8.33 17 8.33C15.16 8.33 13.66 6.84 13.66 5C13.66 3.16 15.16 1.66 17 1.66C18.84 1.66 20.33 3.16 20.33 5Z" fill="#252629" fill-opacity="1.000000" fill-rule="nonzero"/>
	<path id="Vector" d="M15.33 6.25C15.33 6.94 14.77 7.5 14.08 7.5C13.39 7.5 12.83 6.94 12.83 6.25C12.83 5.56 13.39 5 14.08 5C14.77 5 15.33 5.56 15.33 6.25Z" fill="#252629" fill-opacity="1.000000" fill-rule="nonzero"/>
	<path id="Vector" d="M21.17 3.75C21.17 4.44 20.61 5 19.92 5C19.23 5 18.67 4.44 18.67 3.75C18.67 3.06 19.23 2.5 19.92 2.5C20.61 2.5 21.17 3.06 21.17 3.75Z" fill="#252629" fill-opacity="1.000000" fill-rule="nonzero"/>
	<path id="Vector" d="M21.17 6.25C21.17 6.94 20.61 7.5 19.92 7.5C19.23 7.5 18.67 6.94 18.67 6.25C18.67 5.56 19.23 5 19.92 5C20.61 5 21.17 5.56 21.17 6.25Z" fill="#252629" fill-opacity="1.000000" fill-rule="nonzero"/>
	<path id="Vector" d="M17 2.08C17 2.77 16.44 3.33 15.75 3.33C15.06 3.33 14.5 2.77 14.5 2.08C14.5 1.39 15.06 0.83 15.75 0.83C16.44 0.83 17 1.39 17 2.08Z" fill="#252629" fill-opacity="1.000000" fill-rule="nonzero"/>
	<path id="Vector" d="M17 7.92C17 8.61 16.44 9.17 15.75 9.17C15.06 9.17 14.5 8.61 14.5 7.92C14.5 7.22 15.06 6.66 15.75 6.66C16.44 6.66 17 7.22 17 7.92Z" fill="#252629" fill-opacity="1.000000" fill-rule="nonzero"/>
	<path id="Vector" d="M19.5 2.08C19.5 2.77 18.94 3.33 18.25 3.33C17.56 3.33 17 2.77 17 2.08C17 1.39 17.56 0.83 18.25 0.83C18.94 0.83 19.5 1.39 19.5 2.08Z" fill="#252629" fill-opacity="1.000000" fill-rule="nonzero"/>
	<path id="Vector" d="M19.5 7.92C19.5 8.61 18.94 9.17 18.25 9.17C17.56 9.17 17 8.61 17 7.92C17 7.22 17.56 6.66 18.25 6.66C18.94 6.66 19.5 7.22 19.5 7.92Z" fill="#252629" fill-opacity="1.000000" fill-rule="nonzero"/>
	<path id="Vector" d="M12 4.99L14.5 3.33L14.5 6.66L12 4.99Z" fill="#252629" fill-opacity="1.000000" fill-rule="nonzero"/>
	<path id="Vector" d="M22 4.99L19.5 3.33L19.5 6.66L22 4.99Z" fill="#252629" fill-opacity="1.000000" fill-rule="nonzero"/>
	<path id="Vector" d="M17 10L18.67 7.5L15.33 7.5L17 10Z" fill="#252629" fill-opacity="1.000000" fill-rule="nonzero"/>
	<path id="Vector" d="M17 0L18.67 2.5L15.33 2.5L17 0Z" fill="#252629" fill-opacity="1.000000" fill-rule="nonzero"/>
	<path id="Vector" d="M13.32 1.17L16.26 1.76L13.91 4.12L13.32 1.17Z" fill="#252629" fill-opacity="1.000000" fill-rule="nonzero"/>
	<path id="Vector" d="M13.17 8.79L13.76 5.85L16.12 8.2L13.17 8.79Z" fill="#252629" fill-opacity="1.000000" fill-rule="nonzero"/>
	<path id="Vector" d="M20.7 1.19L20.11 4.14L17.75 1.78L20.7 1.19Z" fill="#252629" fill-opacity="1.000000" fill-rule="nonzero"/>
	<path id="Vector" d="M20.78 8.77L17.83 8.19L20.19 5.83L20.78 8.77Z" fill="#252629" fill-opacity="1.000000" fill-rule="nonzero"/>
	<path id="Star" d="M16.84 3.55C16.89 3.42 16.92 3.36 16.95 3.34C16.98 3.32 17.02 3.32 17.05 3.34C17.08 3.36 17.11 3.42 17.16 3.55L17.47 4.32C17.48 4.36 17.49 4.38 17.5 4.39C17.51 4.41 17.53 4.42 17.54 4.42C17.56 4.43 17.58 4.43 17.61 4.43L18.41 4.5C18.54 4.51 18.61 4.52 18.63 4.55C18.66 4.58 18.67 4.61 18.66 4.65C18.66 4.69 18.61 4.73 18.51 4.82L17.9 5.37C17.88 5.39 17.86 5.41 17.85 5.42C17.84 5.44 17.84 5.45 17.84 5.47C17.84 5.49 17.84 5.51 17.85 5.55L18.03 6.36C18.06 6.5 18.08 6.56 18.06 6.6C18.04 6.63 18.01 6.66 17.98 6.66C17.94 6.67 17.89 6.63 17.78 6.56L17.09 6.12C17.06 6.1 17.04 6.09 17.02 6.09C17.01 6.09 16.99 6.09 16.98 6.09C16.96 6.09 16.94 6.1 16.91 6.12L16.22 6.56C16.11 6.63 16.06 6.67 16.02 6.66C15.98 6.66 15.95 6.63 15.94 6.6C15.92 6.56 15.94 6.5 15.97 6.36L16.15 5.55C16.16 5.51 16.16 5.49 16.16 5.47C16.16 5.45 16.15 5.44 16.15 5.42C16.14 5.41 16.12 5.39 16.09 5.37L15.49 4.82C15.39 4.73 15.34 4.69 15.33 4.65C15.33 4.61 15.34 4.58 15.36 4.55C15.39 4.52 15.46 4.51 15.59 4.5L16.39 4.43C16.42 4.43 16.44 4.43 16.46 4.42C16.47 4.42 16.49 4.41 16.5 4.39C16.51 4.38 16.51 4.36 16.53 4.32L16.84 3.55Z" fill="#FFFFFF" fill-opacity="1.000000" fill-rule="nonzero"/>
</svg>
