<svg width="22.000000" height="10.000000" viewBox="0 0 22 10" fill="none" xmlns="http://www.w3.org/2000/svg" xmlns:xlink="http://www.w3.org/1999/xlink">
	<desc>
			Created with Pixso.
	</desc>
	<defs/>
	<rect id="Mir White S" rx="-0.500000" width="21.000000" height="9.000000" transform="translate(0.500000 0.500000)" fill="#FFFFFF" fill-opacity="0"/>
	<path id="Union" d="M7.38 3C6.93 3 6.52 3.3 6.4 3.74L5.65 6.33L5.52 6.33L4.77 3.74C4.65 3.3 4.24 3 3.79 3L2 3L2 8.64L3.79 8.64L3.79 5.3L3.92 5.3L4.94 8.64L6.23 8.64L7.25 5.3L7.38 5.3L7.38 8.64L9.17 8.64L9.17 3L7.38 3ZM14.06 3C13.66 3 13.3 3.23 13.13 3.59L11.87 6.33L11.74 6.33L11.74 3L9.94 3L9.94 8.64L11.47 8.64C11.87 8.64 12.23 8.4 12.4 8.04L13.66 5.3L13.79 5.3L13.79 8.64L15.59 8.64L15.59 3L14.06 3ZM16.1 3C16.34 4.31 17.49 5.3 18.87 5.3L21.96 5.3C21.98 5.18 21.99 5.05 21.99 4.92C21.99 3.86 21.13 3 20.07 3L16.1 3ZM16.35 8.64L16.35 5.56L21.88 5.56C21.62 6.31 20.91 6.84 20.07 6.84L18.15 6.84L18.15 8.64L16.35 8.64Z" fill="#FFFFFF" fill-opacity="1.000000" fill-rule="evenodd"/>
</svg>
