<svg width="28.000000" height="20.000000" viewBox="0 0 28 20" fill="none" xmlns="http://www.w3.org/2000/svg" xmlns:xlink="http://www.w3.org/1999/xlink">
	<desc>
			Created with Pixso.
	</desc>
	<defs/>
	<rect id="Mir M" rx="-0.500000" width="27.000000" height="19.000000" transform="translate(0.500000 0.500000)" fill="#FFFFFF" fill-opacity="0"/>
	<rect id="BG" rx="2.000000" width="28.000000" height="20.000000" fill="#F0F2F5" fill-opacity="1.000000"/>
	<path id="Union" d="M9.22 7C8.74 7 8.31 7.32 8.18 7.78L7.38 10.54L7.24 10.54L6.45 7.78C6.31 7.32 5.89 7 5.4 7L3.5 7L3.5 12.99L5.4 12.99L5.4 9.45L5.54 9.45L6.63 12.99L7.99 12.99L9.09 9.45L9.22 9.45L9.22 12.99L11.13 12.99L11.13 7L9.22 7ZM16.33 7C15.9 7 15.52 7.24 15.34 7.63L13.99 10.54L13.86 10.54L13.86 7L11.95 7L11.95 12.99L13.57 12.99C13.99 12.99 14.38 12.75 14.56 12.36L15.9 9.45L16.04 9.45L16.04 12.99L17.95 12.99L17.95 7L16.33 7ZM18.49 7C18.75 8.39 19.97 9.45 21.44 9.45L24.73 9.45C24.75 9.32 24.77 9.18 24.77 9.04C24.77 7.91 23.85 7 22.72 7L18.49 7ZM18.77 13L18.77 9.72L24.65 9.72C24.37 10.52 23.61 11.09 22.72 11.09L20.67 11.09L20.67 13L18.77 13Z" fill="#29313D" fill-opacity="1.000000" fill-rule="evenodd"/>
</svg>
