<svg width="40.000000" height="40.000000" viewBox="0 0 40 40" fill="none" xmlns="http://www.w3.org/2000/svg" xmlns:xlink="http://www.w3.org/1999/xlink">
	<desc>
			Created with Pixso.
	</desc>
	<defs/>
	<rect id="PayPal L" width="40.000000" height="40.000000" fill="#FFFFFF" fill-opacity="0"/>
	<rect id="PayPal M" width="28.000000" height="20.000000" transform="translate(6.000000 10.000000)" fill="#FFFFFF" fill-opacity="0"/>
	<rect id="BG" x="6.000000" y="10.000000" rx="2.000000" width="28.000000" height="20.000000" fill="#F0F2F5" fill-opacity="1.000000"/>
	<path id="Union" d="M13.6 17.03C13.83 16.76 13.98 16.38 13.94 16C13.61 16.01 13.22 16.21 12.98 16.49C12.77 16.73 12.59 17.12 12.64 17.5C13 17.52 13.37 17.31 13.6 17.03ZM20.11 16.95Q19.67 16.81 19.1 16.81L17.32 16.81L17.32 22.99L18.54 22.99L18.54 20.78L19.1 20.78Q20.32 20.78 20.87 20.27C21.24 19.93 21.43 19.44 21.43 18.79C21.43 18.49 21.38 18.22 21.28 17.98C21.18 17.74 21.03 17.53 20.84 17.36Q20.55 17.09 20.11 16.95ZM14.42 19.45C14.41 18.65 15.06 18.25 15.12 18.22C15.12 18.22 15.12 18.22 15.12 18.21C14.74 17.65 14.15 17.58 13.93 17.57C13.62 17.54 13.32 17.66 13.08 17.75C12.92 17.81 12.79 17.87 12.69 17.87C12.58 17.87 12.44 17.81 12.29 17.75C12.08 17.67 11.85 17.58 11.61 17.58C11.06 17.59 10.55 17.91 10.27 18.4C9.69 19.4 10.12 20.87 10.68 21.68C10.95 22.07 11.28 22.52 11.71 22.5C12.12 22.49 12.28 22.24 12.77 22.24C13.03 22.24 13.19 22.31 13.34 22.37C13.49 22.44 13.64 22.5 13.85 22.5C14.29 22.49 14.57 22.09 14.84 21.7C15.16 21.24 15.29 20.79 15.29 20.77C15.28 20.77 14.43 20.44 14.42 19.45ZM19.88 19.54Q19.62 19.81 19.1 19.81L18.54 19.81L18.54 17.78L19.1 17.78Q19.62 17.78 19.88 18.04Q20.13 18.3 20.13 18.79Q20.13 19.29 19.88 19.54ZM21.91 18.64C22.18 18.53 22.44 18.46 22.7 18.41C22.96 18.37 23.24 18.34 23.55 18.34Q24.23 18.34 24.62 18.52C24.88 18.64 25.08 18.79 25.21 18.96C25.35 19.14 25.43 19.33 25.46 19.54C25.51 19.74 25.53 19.93 25.53 20.1L25.53 22.99L24.38 22.99L24.38 22.32L24.36 22.32C24.34 22.36 24.3 22.43 24.24 22.52C24.18 22.6 24.1 22.68 23.99 22.77C23.88 22.84 23.74 22.91 23.57 22.97C23.41 23.03 23.2 23.06 22.96 23.06C22.68 23.06 22.44 23.02 22.24 22.94C22.04 22.86 21.87 22.75 21.74 22.62C21.62 22.49 21.52 22.35 21.46 22.18Q21.4 22.01 21.38 21.83L21.38 21.83Q21.37 21.74 21.37 21.66C21.37 21.5 21.4 21.34 21.45 21.16C21.5 20.98 21.61 20.82 21.77 20.67C21.93 20.52 22.16 20.4 22.44 20.3Q22.88 20.15 23.59 20.15L23.59 20.15Q23.76 20.15 23.92 20.16L24.35 20.16L24.35 19.97C24.35 19.84 24.32 19.73 24.27 19.63C24.21 19.53 24.14 19.45 24.05 19.39C23.96 19.32 23.85 19.27 23.72 19.24C23.6 19.2 23.47 19.18 23.34 19.18C23.15 19.18 22.93 19.21 22.7 19.26C22.47 19.31 22.21 19.42 21.91 19.59L21.91 18.64ZM26.57 24.9C26.69 24.93 26.8 24.94 26.91 24.94C27.22 24.94 27.48 24.9 27.69 24.82C27.9 24.74 28.06 24.63 28.2 24.49C28.33 24.37 28.44 24.22 28.52 24.04C28.6 23.88 28.68 23.71 28.74 23.54L30.63 18.41L29.44 18.41L28.63 20.9L28.35 21.81L28.31 21.81L28.06 20.94L27.22 18.41L25.93 18.41L27.69 23.24L27.58 23.51C27.5 23.71 27.4 23.84 27.27 23.91C27.14 23.98 26.97 24.02 26.77 24.02C26.64 24.02 26.53 24 26.45 23.97C26.37 23.95 26.3 23.92 26.23 23.89L26.23 24.81C26.33 24.85 26.45 24.88 26.57 24.9ZM24.15 20.91C23.99 20.91 23.82 20.92 23.63 20.93C23.44 20.94 23.27 20.96 23.11 21.01C22.95 21.06 22.82 21.13 22.72 21.23C22.62 21.33 22.56 21.47 22.56 21.65C22.56 21.82 22.62 21.96 22.73 22.08C22.84 22.19 23.02 22.24 23.28 22.24C23.4 22.24 23.53 22.23 23.65 22.19C23.78 22.16 23.89 22.09 24 22.01C24.1 21.92 24.18 21.79 24.25 21.64C24.32 21.48 24.35 21.27 24.35 21.03L24.35 20.91L24.15 20.91Z" fill="#23262D" fill-opacity="1.000000" fill-rule="evenodd"/>
</svg>
