<svg width="28.000000" height="20.000000" viewBox="0 0 28 20" fill="none" xmlns="http://www.w3.org/2000/svg" xmlns:xlink="http://www.w3.org/1999/xlink">
	<desc>
			Created with Pixso.
	</desc>
	<defs/>
	<rect id="Troyka M" width="28.000000" height="20.000000" fill="#FFFFFF" fill-opacity="0"/>
	<rect id="BG" rx="2.000000" width="28.000000" height="20.000000" fill="#F0F2F5" fill-opacity="1.000000"/>
	<path id="Union" d="M5.33 5.87L5.7 6.07L5.33 8.05C5.33 8.05 5.33 8.06 5.33 8.07C5.33 8.3 5.52 8.5 5.76 8.5L5.88 8.5C6.11 8.5 6.3 8.31 6.3 8.08L6.3 8.07L6.3 8.06C6.3 7.99 6.34 7.93 6.41 7.91L7.15 7.62L7.05 9.92L10.25 9.92L10.25 8.5C10.25 8.5 10.25 5 7.3 5C5.82 5 5.33 5.87 5.33 5.87ZM11.48 5.87L11.85 6.07L11.48 8.05C11.48 8.05 11.48 8.06 11.48 8.07C11.48 8.3 11.67 8.5 11.91 8.5L12.04 8.5C12.27 8.5 12.45 8.31 12.45 8.08L12.45 8.07L12.45 8.06C12.45 7.99 12.49 7.93 12.56 7.91L13.3 7.62L13.2 9.92L16.4 9.92L16.4 8.5C16.4 8.5 16.4 5 13.45 5C11.97 5 11.48 5.87 11.48 5.87ZM17.63 5.87L18 6.07L17.63 8.05C17.63 8.05 17.63 8.06 17.63 8.07C17.63 8.3 17.83 8.5 18.06 8.5L18.19 8.5C18.42 8.5 18.6 8.31 18.6 8.08L18.6 8.07L18.6 8.06C18.6 7.99 18.65 7.93 18.71 7.91L19.46 7.62L19.35 9.92L22.55 9.92L22.55 8.5C22.55 8.5 22.55 5 19.6 5C18.12 5 17.63 5.87 17.63 5.87ZM15.33 12.3C15.5 12.3 15.64 12.16 15.64 11.98C15.64 11.81 15.5 11.66 15.33 11.66C15.16 11.66 15.03 11.81 15.03 11.98C15.03 12.16 15.16 12.3 15.33 12.3ZM5.99 12.54L4.26 12.54C4.11 12.54 4 12.67 4 12.82C4 12.98 4.11 13.1 4.26 13.1L4.86 13.1L4.86 15.36C4.86 15.51 4.98 15.64 5.12 15.64C5.27 15.64 5.39 15.51 5.39 15.36L5.39 13.1L5.99 13.1C6.13 13.1 6.25 12.98 6.25 12.82C6.25 12.67 6.13 12.54 5.99 12.54ZM8.71 12.54L7.88 12.54C7.73 12.54 7.61 12.67 7.61 12.82L7.61 15.36C7.61 15.51 7.73 15.64 7.88 15.64C8.03 15.64 8.15 15.51 8.15 15.36L8.15 14.42L8.71 14.42C9.2 14.42 9.6 14 9.6 13.48C9.6 12.96 9.2 12.54 8.71 12.54ZM11.87 12.54C11.3 12.54 10.84 13.08 10.84 13.74L10.84 14.44C10.84 15.1 11.3 15.64 11.87 15.64C12.45 15.64 12.91 15.1 12.91 14.44L12.91 13.74C12.91 13.08 12.45 12.54 11.87 12.54ZM16.17 12.54C16.02 12.54 15.9 12.67 15.9 12.82L15.9 13.17L14.77 14.25L14.77 12.82C14.77 12.67 14.65 12.54 14.5 12.54C14.35 12.54 14.23 12.67 14.23 12.82L14.23 15.36C14.23 15.51 14.35 15.64 14.5 15.64C14.65 15.64 14.77 15.51 14.77 15.36L14.77 15.01L15.9 13.92L15.9 15.36C15.9 15.51 16.02 15.64 16.17 15.64C16.31 15.64 16.43 15.51 16.43 15.36L16.43 12.82C16.43 12.67 16.31 12.54 16.17 12.54ZM20.3 15.08L20.07 15.08L19.44 14.09L20.15 12.98C20.18 12.93 20.2 12.88 20.2 12.82C20.2 12.73 20.16 12.64 20.08 12.59C19.96 12.51 19.79 12.54 19.71 12.67L18.98 13.81L18.58 13.81L18.58 12.83C18.58 12.67 18.46 12.55 18.31 12.55C18.17 12.55 18.05 12.67 18.05 12.83L18.05 15.36C18.05 15.51 18.17 15.64 18.31 15.64C18.46 15.64 18.58 15.51 18.58 15.36L18.58 14.37L18.98 14.37L19.71 15.51C19.76 15.59 19.84 15.64 19.93 15.64L20.3 15.64C20.45 15.64 20.57 15.51 20.57 15.36C20.57 15.2 20.45 15.08 20.3 15.08ZM23.98 15.28L23.83 14.89C23.83 14.84 23.81 14.78 23.77 14.74L23.02 12.75C22.98 12.64 22.88 12.57 22.77 12.57C22.66 12.57 22.56 12.65 22.52 12.76L21.85 14.75C21.82 14.79 21.8 14.85 21.8 14.9L21.67 15.28C21.66 15.31 21.65 15.34 21.65 15.37C21.65 15.49 21.72 15.59 21.83 15.64C21.97 15.69 22.12 15.61 22.17 15.46L22.26 15.19L23.37 15.19L23.48 15.49C23.52 15.59 23.62 15.66 23.73 15.66C23.76 15.66 23.79 15.66 23.83 15.64C23.93 15.6 24 15.49 24 15.38C24 15.35 23.99 15.31 23.98 15.28ZM8.71 13.86L8.15 13.86L8.15 13.1L8.71 13.1C8.91 13.1 9.07 13.27 9.07 13.48C9.07 13.69 8.91 13.86 8.71 13.86ZM12.43 14.44C12.43 14.79 12.18 15.08 11.87 15.08C11.57 15.08 11.32 14.79 11.32 14.44L11.32 13.74C11.32 13.39 11.57 13.1 11.87 13.1C12.18 13.1 12.43 13.39 12.43 13.74L12.43 14.44ZM22.45 14.64L22.79 13.65L23.16 14.64L22.45 14.64Z" fill="#29313D" fill-opacity="1.000000" fill-rule="evenodd"/>
</svg>
