<svg width="28" height="20" viewBox="0 0 28 20" fill="none" xmlns="http://www.w3.org/2000/svg">
<rect width="28" height="20" rx="2" fill="#F0F2F5"/>
<path fill-rule="evenodd" clip-rule="evenodd" d="M13.275 6.62988L11.7537 13.7424H9.91357L11.435 6.62988H13.275Z" fill="#23262D"/>
<path fill-rule="evenodd" clip-rule="evenodd" d="M24.7718 13.7424H23.0705L22.8474 12.6802H20.487L20.1035 13.7424H18.1709L20.932 7.15128C21.064 6.83501 21.362 6.62988 21.7159 6.62988H23.2853L24.7718 13.7424ZM21.9851 8.55176L21.0164 11.2229H22.5422L21.9851 8.55176Z" fill="#23262D"/>
<path fill-rule="evenodd" clip-rule="evenodd" d="M18.2663 11.4205C18.2743 9.54348 15.6715 9.4394 15.6888 8.60064C15.6945 8.34575 15.9375 8.07441 16.4691 8.00502C16.7326 7.97101 17.4596 7.94351 18.2839 8.32322L18.6062 6.81433C18.1634 6.65426 17.5937 6.5 16.885 6.5C15.066 6.5 13.7863 7.46621 13.776 8.85097C13.7644 9.87495 14.6903 10.446 15.3862 10.787C16.1038 11.1354 16.3443 11.3591 16.3408 11.6705C16.3358 12.1477 15.7684 12.359 15.2404 12.3669C14.3147 12.3814 13.7782 12.1169 13.3506 11.9174L13.0166 13.4767C13.4472 13.6737 14.2407 13.8454 15.0622 13.8541C16.996 13.8541 18.2607 12.8992 18.2663 11.4205Z" fill="#23262D"/>
<path fill-rule="evenodd" clip-rule="evenodd" d="M10.6457 6.62988L7.66427 13.7424H5.71942L4.25213 8.06606C4.16325 7.71718 4.08571 7.58876 3.8152 7.44141C3.37273 7.2009 2.6422 6.97614 2 6.83639L2.0434 6.62988H5.17452C5.57345 6.62988 5.93215 6.89528 6.02338 7.35475L6.79842 11.4707L8.71258 6.62988H10.6457Z" fill="#23262D"/>
</svg>
