<svg width="28.000000" height="20.000000" viewBox="0 0 28 20" fill="none" xmlns="http://www.w3.org/2000/svg" xmlns:xlink="http://www.w3.org/1999/xlink">
	<desc>
			Created with Pixso.
	</desc>
	<defs/>
	<rect id="Visa M" rx="-0.500000" width="27.000000" height="19.000000" transform="translate(0.500000 0.500000)" fill="#FFFFFF" fill-opacity="0"/>
	<rect id="Rectangle 10.1" rx="2.000000" width="28.000000" height="20.000000" fill="#F0F2F5" fill-opacity="1.000000"/>
	<path id="Path" d="M13.27 6.62L11.75 13.74L9.91 13.74L11.43 6.62L13.27 6.62Z" fill="#252629" fill-opacity="1.000000" fill-rule="evenodd"/>
	<path id="Subtract" d="M23.0705 13.7424L24.7718 13.7424L23.2853 6.62988L21.7159 6.62988C21.362 6.62988 21.064 6.83502 20.932 7.15128L18.1709 13.7424L20.1035 13.7424L20.487 12.6802L22.8474 12.6802L23.0705 13.7424ZM21.985 8.55176L21.0164 11.2229L22.5423 11.2229L21.985 8.55176Z" clip-rule="evenodd" fill="#252629" fill-opacity="1.000000" fill-rule="evenodd"/>
	<path id="Path" d="M18.26 11.42C18.27 9.54 15.67 9.43 15.68 8.6C15.69 8.34 15.93 8.07 16.46 8C16.73 7.97 17.45 7.94 18.28 8.32L18.6 6.81C18.16 6.65 17.59 6.5 16.88 6.5C15.06 6.5 13.78 7.46 13.77 8.85C13.76 9.87 14.69 10.44 15.38 10.78C16.1 11.13 16.34 11.35 16.34 11.67C16.33 12.14 15.76 12.35 15.24 12.36C14.31 12.38 13.77 12.11 13.35 11.91L13.01 13.47C13.44 13.67 14.24 13.84 15.06 13.85C16.99 13.85 18.26 12.89 18.26 11.42Z" fill="#252629" fill-opacity="1.000000" fill-rule="evenodd"/>
	<path id="Path" d="M10.64 6.62L7.66 13.74L5.71 13.74L4.25 8.06C4.16 7.71 4.08 7.58 3.81 7.44C3.37 7.2 2.64 6.97 2 6.83L2.04 6.62L5.17 6.62C5.57 6.62 5.93 6.89 6.02 7.35L6.79 11.47L8.71 6.62L10.64 6.62Z" fill="#252629" fill-opacity="1.000000" fill-rule="evenodd"/>
</svg>
