<svg width="23.000000" height="10.000000" viewBox="0 0 23 10" fill="none" xmlns="http://www.w3.org/2000/svg" xmlns:xlink="http://www.w3.org/1999/xlink">
	<desc>
			Created with Pixso.
	</desc>
	<defs/>
	<rect id="Visa S" width="22.000078" height="10.000000" fill="#FFFFFF" fill-opacity="0"/>
	<path id="Union" d="M11.9 2.11L10.56 8.36L8.95 8.36L10.28 2.11L11.9 2.11ZM18.7 6.14L19.55 3.8L20.04 6.14L18.7 6.14ZM20.5 8.36L22 8.36L20.69 2.11L19.31 2.11C19 2.11 18.74 2.29 18.62 2.57L16.2 8.36L17.89 8.36L18.23 7.42L20.3 7.42L20.5 8.36ZM16.28 6.32C16.29 4.67 14 4.58 14.02 3.84C14.02 3.62 14.24 3.38 14.7 3.32C14.93 3.29 15.57 3.26 16.3 3.6L16.58 2.27C16.19 2.13 15.69 2 15.07 2C13.47 2 12.35 2.84 12.34 4.06C12.33 4.96 13.14 5.46 13.75 5.76C14.38 6.07 14.59 6.26 14.59 6.54C14.59 6.96 14.09 7.14 13.62 7.15C12.81 7.16 12.34 6.93 11.96 6.75L11.67 8.12C12.05 8.3 12.75 8.45 13.47 8.45C15.17 8.45 16.28 7.62 16.28 6.32ZM9.59 2.11L6.97 8.36L5.26 8.36L3.97 3.37C3.89 3.06 3.83 2.95 3.59 2.82C3.2 2.61 2.56 2.41 2 2.29L2.03 2.11L4.78 2.11C5.13 2.11 5.45 2.34 5.53 2.75L6.21 6.36L7.89 2.11L9.59 2.11Z" fill="#23262D" fill-opacity="1.000000" fill-rule="evenodd"/>
</svg>
