<svg width="24" height="24" viewBox="0 0 24 24" fill="none" xmlns="http://www.w3.org/2000/svg">
<path fill-rule="evenodd" clip-rule="evenodd" d="M14.6622 20.6742C14.3033 20.6742 14.0122 20.9653 14.0122 21.3242C14.0122 21.6832 14.3033 21.9742 14.6622 21.9742H20.3279C20.6869 21.9742 20.9779 21.6832 20.9779 21.3242C20.9779 20.9653 20.6869 20.6742 20.3279 20.6742L14.6622 20.6742ZM4.24557 21.7762L11.1758 14.6132L13.6797 17.1172L13.7056 17.143L12.471 18.3776C12.2172 18.6314 12.2172 19.043 12.471 19.2968C12.7248 19.5507 13.1364 19.5507 13.3902 19.2968L20.7873 11.8999C21.0412 11.6461 21.0412 11.2345 20.7874 10.9807C20.5335 10.7268 20.122 10.7268 19.8681 10.9806L18.6597 12.1891L18.6338 12.1631L12.8388 6.36815L12.8217 6.35108L14.1383 5.03448C14.3922 4.78064 14.3922 4.36908 14.1383 4.11524C13.8845 3.8614 13.4729 3.86139 13.2191 4.11523L5.63165 11.7025C5.37781 11.9564 5.37781 12.3679 5.63164 12.6218C5.88548 12.8756 6.29704 12.8756 6.55088 12.6218L7.86762 11.3051L7.88474 11.3222L10.2564 13.6938L3.31127 20.8723C3.06166 21.1303 3.06845 21.5418 3.32645 21.7914C3.58445 22.041 3.99595 22.0342 4.24557 21.7762ZM17.7145 13.0824L11.9195 7.28738L8.80398 10.4029L14.599 16.1979L17.7145 13.0824Z" fill="#626F84"/>
</svg>
