<svg width="24" height="24" viewBox="0 0 24 24" fill="none" xmlns="http://www.w3.org/2000/svg">
<path d="M10.0001 13.4803C9.64111 13.4803 9.3501 13.7714 9.3501 14.1303C9.3501 14.4893 9.64111 14.7803 10.0001 14.7803H14.0001C14.3591 14.7803 14.6501 14.4893 14.6501 14.1303C14.6501 13.7714 14.3591 13.4803 14.0001 13.4803H10.0001Z" fill="#626F84"/>
<path fill-rule="evenodd" clip-rule="evenodd" d="M7 4C5.34315 4 4 5.34315 4 7V17C4 18.6569 5.34315 20 7 20H17C18.6569 20 20 18.6569 20 17V7C20 5.34315 18.6569 4 17 4H7ZM17 5.3H7C6.06112 5.3 5.3 6.06112 5.3 7V9.35H18.7V7C18.7 6.06112 17.9389 5.3 17 5.3ZM5.3 17V10.65H18.7V17C18.7 17.9389 17.9389 18.7 17 18.7H7C6.06112 18.7 5.3 17.9389 5.3 17Z" fill="#626F84"/>
</svg>
