<svg width="24" height="24" viewBox="0 0 24 24" fill="none" xmlns="http://www.w3.org/2000/svg">
<path fill-rule="evenodd" clip-rule="evenodd" d="M12.3683 11.4309L10.3891 9.45165C10.7779 8.88634 11.0054 8.20154 11.0054 7.4636C11.0054 5.52358 9.43272 3.95089 7.4927 3.95089C5.55268 3.95089 3.97998 5.52358 3.97998 7.4636C3.97998 9.40362 5.55268 10.9763 7.4927 10.9763C8.22503 10.9763 8.90502 10.7522 9.46782 10.3688L11.0883 11.9893L9.51091 13.5668C8.93987 13.1652 8.24382 12.9295 7.4927 12.9295C5.55268 12.9295 3.97998 14.5022 3.97998 16.4422C3.97998 18.3822 5.55268 19.9549 7.4927 19.9549C9.43272 19.9549 11.0054 18.3822 11.0054 16.4422C11.0054 15.7231 10.7893 15.0544 10.4185 14.4976L12.0075 12.9086L18.954 19.8551C19.2079 20.109 19.6194 20.109 19.8733 19.8552C20.1271 19.6013 20.1271 19.1898 19.8733 18.9359L12.566 11.6286C12.5411 11.5898 12.5117 11.553 12.4778 11.5191C12.4439 11.4851 12.4071 11.4557 12.3683 11.4309ZM9.15823 14.9854C9.49894 15.3746 9.70541 15.8843 9.70541 16.4422C9.70541 17.6642 8.71475 18.6549 7.4927 18.6549C6.27065 18.6549 5.27998 17.6642 5.27998 16.4422C5.27998 15.2201 6.27065 14.2295 7.4927 14.2295C8.07509 14.2295 8.60493 14.4545 9.00003 14.8223C9.02286 14.856 9.0492 14.888 9.07905 14.9179C9.10402 14.9428 9.13051 14.9653 9.15823 14.9854ZM9.70541 7.4636C9.70541 8.68565 8.71475 9.67632 7.4927 9.67632C6.27065 9.67632 5.27998 8.68565 5.27998 7.4636C5.27998 6.24155 6.27065 5.25089 7.4927 5.25089C8.71475 5.25089 9.70541 6.24155 9.70541 7.4636ZM13.397 9.68059C13.1432 9.93443 13.1432 10.346 13.397 10.5998C13.6509 10.8537 14.0624 10.8537 14.3163 10.5998L19.8728 5.04325C20.1266 4.78941 20.1266 4.37785 19.8728 4.12401C19.619 3.87017 19.2074 3.87017 18.9536 4.12402L13.397 9.68059Z" fill="#626F84"/>
</svg>
