<svg width="24" height="24" viewBox="0 0 24 24" fill="none" xmlns="http://www.w3.org/2000/svg">
<path fill-rule="evenodd" clip-rule="evenodd" d="M21 12C21 16.9706 16.9706 21 12 21C7.02944 21 3 16.9706 3 12C3 7.02944 7.02944 3 12 3C16.9706 3 21 7.02944 21 12ZM8.66243 16.2263C9.28263 16.2263 9.7854 15.7235 9.7854 15.1034C9.7854 14.4832 9.28263 13.9804 8.66243 13.9804C8.04223 13.9804 7.53946 14.4832 7.53946 15.1034C7.53946 15.7235 8.04223 16.2263 8.66243 16.2263ZM8.66243 17.5263C10.0006 17.5263 11.0854 16.4415 11.0854 15.1034C11.0854 14.6815 10.9776 14.2849 10.7881 13.9395L11.7764 12.9511L16.1693 17.3441C16.4232 17.5979 16.8347 17.5979 17.0886 17.3441C17.3424 17.0903 17.3424 16.6787 17.0886 16.4249L10.7701 10.1063C10.9708 9.75342 11.0854 9.34521 11.0854 8.91023C11.0854 7.57206 10.0006 6.48726 8.66243 6.48726C7.32426 6.48726 6.23946 7.57206 6.23946 8.91023C6.23946 10.2484 7.32426 11.3332 8.66243 11.3332C9.0934 11.3332 9.49809 11.2207 9.84872 11.0234L10.8572 12.0319L9.88064 13.0084C9.52274 12.7999 9.10654 12.6804 8.66243 12.6804C7.32426 12.6804 6.23946 13.7652 6.23946 15.1034C6.23946 16.4415 7.32426 17.5263 8.66243 17.5263ZM9.7854 8.91023C9.7854 9.53043 9.28263 10.0332 8.66243 10.0332C8.04223 10.0332 7.53946 9.53043 7.53946 8.91023C7.53946 8.29003 8.04223 7.78726 8.66243 7.78726C9.28263 7.78726 9.7854 8.29003 9.7854 8.91023ZM13.1455 9.74352C12.8917 9.99736 12.8917 10.4089 13.1455 10.6628C13.3994 10.9166 13.8109 10.9166 14.0648 10.6628L17.1631 7.56439C17.417 7.31055 17.417 6.89899 17.1631 6.64515C16.9093 6.39131 16.4977 6.39131 16.2439 6.64515L13.1455 9.74352Z" fill="#626F84"/>
</svg>
