<svg width="24" height="24" viewBox="0 0 24 24" fill="none" xmlns="http://www.w3.org/2000/svg">
<path d="M4 5.3C4 4.58203 4.58203 4 5.3 4H6.7C7.41797 4 8 4.58203 8 5.3V6.7C8 7.41797 7.41797 8 6.7 8H5.3C4.58203 8 4 7.41797 4 6.7V5.3Z" fill="#626F84"/>
<path d="M4 11.3C4 10.582 4.58203 10 5.3 10H6.7C7.41797 10 8 10.582 8 11.3V12.7C8 13.418 7.41797 14 6.7 14H5.3C4.58203 14 4 13.418 4 12.7V11.3Z" fill="#626F84"/>
<path d="M5.3 16C4.58203 16 4 16.582 4 17.3V18.7C4 19.418 4.58203 20 5.3 20H6.7C7.41797 20 8 19.418 8 18.7V17.3C8 16.582 7.41797 16 6.7 16H5.3Z" fill="#626F84"/>
<path d="M10 5.3C10 4.58203 10.582 4 11.3 4H12.7C13.418 4 14 4.58203 14 5.3V6.7C14 7.41797 13.418 8 12.7 8H11.3C10.582 8 10 7.41797 10 6.7V5.3Z" fill="#626F84"/>
<path d="M11.3 10C10.582 10 10 10.582 10 11.3V12.7C10 13.418 10.582 14 11.3 14H12.7C13.418 14 14 13.418 14 12.7V11.3C14 10.582 13.418 10 12.7 10H11.3Z" fill="#626F84"/>
<path d="M10 17.3C10 16.582 10.582 16 11.3 16H12.7C13.418 16 14 16.582 14 17.3V18.7C14 19.418 13.418 20 12.7 20H11.3C10.582 20 10 19.418 10 18.7V17.3Z" fill="#626F84"/>
<path d="M17.3 4C16.582 4 16 4.58203 16 5.3V6.7C16 7.41797 16.582 8 17.3 8H18.7C19.418 8 20 7.41797 20 6.7V5.3C20 4.58203 19.418 4 18.7 4H17.3Z" fill="#626F84"/>
<path d="M16 11.3C16 10.582 16.582 10 17.3 10H18.7C19.418 10 20 10.582 20 11.3V12.7C20 13.418 19.418 14 18.7 14H17.3C16.582 14 16 13.418 16 12.7V11.3Z" fill="#626F84"/>
<path d="M17.3 16C16.582 16 16 16.582 16 17.3V18.7C16 19.418 16.582 20 17.3 20H18.7C19.418 20 20 19.418 20 18.7V17.3C20 16.582 19.418 16 18.7 16H17.3Z" fill="#626F84"/>
</svg>
