<svg width="24" height="24" viewBox="0 0 24 24" fill="none" xmlns="http://www.w3.org/2000/svg">
<path fill-rule="evenodd" clip-rule="evenodd" d="M5.3 4C4.58203 4 4 4.58203 4 5.3V6.7C4 7.41797 4.58203 8 5.3 8H6.7C7.41797 8 8 7.41797 8 6.7V5.3C8 4.58203 7.41797 4 6.7 4H5.3ZM5.75499 5.29999C5.5037 5.29999 5.29999 5.5037 5.29999 5.75499V6.24499C5.29999 6.49628 5.5037 6.69999 5.75499 6.69999H6.24499C6.49628 6.69999 6.69999 6.49628 6.69999 6.24499V5.75499C6.69999 5.5037 6.49628 5.29999 6.24499 5.29999H5.75499Z" fill="#717681"/>
<path fill-rule="evenodd" clip-rule="evenodd" d="M5.3 10C4.58203 10 4 10.582 4 11.3V12.7C4 13.418 4.58203 14 5.3 14H6.7C7.41797 14 8 13.418 8 12.7V11.3C8 10.582 7.41797 10 6.7 10H5.3ZM5.75499 11.3C5.5037 11.3 5.29999 11.5037 5.29999 11.755V12.245C5.29999 12.4963 5.5037 12.7 5.75499 12.7H6.24499C6.49628 12.7 6.69999 12.4963 6.69999 12.245V11.755C6.69999 11.5037 6.49628 11.3 6.24499 11.3H5.75499Z" fill="#717681"/>
<path fill-rule="evenodd" clip-rule="evenodd" d="M4 17.3C4 16.582 4.58203 16 5.3 16H6.7C7.41797 16 8 16.582 8 17.3V18.7C8 19.418 7.41797 20 6.7 20H5.3C4.58203 20 4 19.418 4 18.7V17.3ZM5.29999 17.755C5.29999 17.5037 5.5037 17.3 5.75499 17.3H6.24499C6.49628 17.3 6.69999 17.5037 6.69999 17.755V18.245C6.69999 18.4963 6.49628 18.7 6.24499 18.7H5.75499C5.5037 18.7 5.29999 18.4963 5.29999 18.245V17.755Z" fill="#717681"/>
<path fill-rule="evenodd" clip-rule="evenodd" d="M11.3 4C10.582 4 10 4.58203 10 5.3V6.7C10 7.41797 10.582 8 11.3 8H12.7C13.418 8 14 7.41797 14 6.7V5.3C14 4.58203 13.418 4 12.7 4H11.3ZM11.755 5.29999C11.5037 5.29999 11.3 5.5037 11.3 5.75499V6.24499C11.3 6.49628 11.5037 6.69999 11.755 6.69999H12.245C12.4963 6.69999 12.7 6.49628 12.7 6.24499V5.75499C12.7 5.5037 12.4963 5.29999 12.245 5.29999H11.755Z" fill="#717681"/>
<path fill-rule="evenodd" clip-rule="evenodd" d="M10 11.3C10 10.582 10.582 10 11.3 10H12.7C13.418 10 14 10.582 14 11.3V12.7C14 13.418 13.418 14 12.7 14H11.3C10.582 14 10 13.418 10 12.7V11.3ZM11.3 11.755C11.3 11.5037 11.5037 11.3 11.755 11.3H12.245C12.4963 11.3 12.7 11.5037 12.7 11.755V12.245C12.7 12.4963 12.4963 12.7 12.245 12.7H11.755C11.5037 12.7 11.3 12.4963 11.3 12.245V11.755Z" fill="#717681"/>
<path fill-rule="evenodd" clip-rule="evenodd" d="M11.3 16C10.582 16 10 16.582 10 17.3V18.7C10 19.418 10.582 20 11.3 20H12.7C13.418 20 14 19.418 14 18.7V17.3C14 16.582 13.418 16 12.7 16H11.3ZM11.755 17.3C11.5037 17.3 11.3 17.5037 11.3 17.755V18.245C11.3 18.4963 11.5037 18.7 11.755 18.7H12.245C12.4963 18.7 12.7 18.4963 12.7 18.245V17.755C12.7 17.5037 12.4963 17.3 12.245 17.3H11.755Z" fill="#717681"/>
<path fill-rule="evenodd" clip-rule="evenodd" d="M16 5.3C16 4.58203 16.582 4 17.3 4H18.7C19.418 4 20 4.58203 20 5.3V6.7C20 7.41797 19.418 8 18.7 8H17.3C16.582 8 16 7.41797 16 6.7V5.3ZM17.3 5.75499C17.3 5.5037 17.5037 5.29999 17.755 5.29999H18.245C18.4963 5.29999 18.7 5.5037 18.7 5.75499V6.24499C18.7 6.49628 18.4963 6.69999 18.245 6.69999H17.755C17.5037 6.69999 17.3 6.49628 17.3 6.24499V5.75499Z" fill="#717681"/>
<path fill-rule="evenodd" clip-rule="evenodd" d="M17.3 10C16.582 10 16 10.582 16 11.3V12.7C16 13.418 16.582 14 17.3 14H18.7C19.418 14 20 13.418 20 12.7V11.3C20 10.582 19.418 10 18.7 10H17.3ZM17.755 11.3C17.5037 11.3 17.3 11.5037 17.3 11.755V12.245C17.3 12.4963 17.5037 12.7 17.755 12.7H18.245C18.4963 12.7 18.7 12.4963 18.7 12.245V11.755C18.7 11.5037 18.4963 11.3 18.245 11.3H17.755Z" fill="#717681"/>
<path fill-rule="evenodd" clip-rule="evenodd" d="M16 17.3C16 16.582 16.582 16 17.3 16H18.7C19.418 16 20 16.582 20 17.3V18.7C20 19.418 19.418 20 18.7 20H17.3C16.582 20 16 19.418 16 18.7V17.3ZM17.3 17.755C17.3 17.5037 17.5037 17.3 17.755 17.3H18.245C18.4963 17.3 18.7 17.5037 18.7 17.755V18.245C18.7 18.4963 18.4963 18.7 18.245 18.7H17.755C17.5037 18.7 17.3 18.4963 17.3 18.245V17.755Z" fill="#717681"/>
</svg>
