<svg width="24" height="24" viewBox="0 0 24 24" fill="none" xmlns="http://www.w3.org/2000/svg">
<path d="M15.9927 10.245C15.9927 9.88606 15.7016 9.59504 15.3426 9.59504L8.65811 9.59504C8.29913 9.59504 8.00811 9.88605 8.00811 10.245C8.00811 10.604 8.29913 10.895 8.65811 10.895L15.3426 10.895C15.7016 10.895 15.9927 10.604 15.9927 10.245Z" fill="#626F84"/>
<path d="M15.9927 13.755C15.9927 13.396 15.7016 13.105 15.3427 13.105L8.65781 13.105C8.29883 13.105 8.00781 13.396 8.00781 13.755C8.00781 14.114 8.29883 14.405 8.65781 14.405L15.3427 14.405C15.7016 14.405 15.9927 14.1139 15.9927 13.755Z" fill="#626F84"/>
</svg>
