<svg width="24" height="24" viewBox="0 0 24 24" fill="none" xmlns="http://www.w3.org/2000/svg">
<path d="M12.0001 14.7734C12.3591 14.7734 12.6501 14.4823 12.6501 14.1234V8.97715C12.6501 8.61816 12.3591 8.32715 12.0001 8.32715C11.6411 8.32715 11.3501 8.61816 11.3501 8.97715V14.1234C11.3501 14.4823 11.6411 14.7734 12.0001 14.7734Z" fill="#717681"/>
<path d="M12.8499 16.9789C12.8499 17.4483 12.4693 17.8289 11.9999 17.8289C11.5305 17.8289 11.1499 17.4483 11.1499 16.9789C11.1499 16.5095 11.5305 16.1289 11.9999 16.1289C12.4693 16.1289 12.8499 16.5095 12.8499 16.9789Z" fill="#717681"/>
<path fill-rule="evenodd" clip-rule="evenodd" d="M5.16213 21H18.8382C21.14 21 22.5843 18.5148 21.4448 16.5149L14.6068 4.51283C13.456 2.49296 10.5443 2.49296 9.39355 4.51283L2.55551 16.5149C1.41606 18.5148 2.86036 21 5.16213 21ZM5.16213 19.7H18.8382C20.1426 19.7 20.961 18.2917 20.3153 17.1584L13.4773 5.15637C12.8251 4.01178 11.1752 4.01178 10.5231 5.15637L3.68505 17.1584C3.03936 18.2917 3.8578 19.7 5.16213 19.7Z" fill="#717681"/>
</svg>
