<svg width="24" height="24" viewBox="0 0 24 24" fill="none" xmlns="http://www.w3.org/2000/svg">
<path fill-rule="evenodd" clip-rule="evenodd" d="M5.16213 21H18.8382C21.14 21 22.5843 18.5148 21.4448 16.5149L14.6068 4.5128C13.456 2.49293 10.5443 2.49293 9.39355 4.5128L2.55551 16.5149C1.41606 18.5148 2.86036 21 5.16213 21ZM12.65 14.1275C12.65 14.4865 12.359 14.7775 12 14.7775C11.641 14.7775 11.35 14.4865 11.35 14.1275V8.98128C11.35 8.6223 11.641 8.33128 12 8.33128C12.359 8.33128 12.65 8.6223 12.65 8.98128V14.1275ZM12.75 16.8813C12.75 17.2955 12.4142 17.6313 12 17.6313C11.5858 17.6313 11.25 17.2955 11.25 16.8813C11.25 16.4671 11.5858 16.1313 12 16.1313C12.4142 16.1313 12.75 16.4671 12.75 16.8813Z" fill="#626F84"/>
</svg>
