<svg width="24" height="24" viewBox="0 0 24 24" fill="none" xmlns="http://www.w3.org/2000/svg">
<path d="M12.0001 13.6954C12.3591 13.6954 12.6501 13.4043 12.6501 13.0454V7.89915C12.6501 7.54016 12.3591 7.24915 12.0001 7.24915C11.6411 7.24915 11.3501 7.54016 11.3501 7.89915V13.0454C11.3501 13.4043 11.6411 13.6954 12.0001 13.6954Z" fill="#717681"/>
<path d="M12.8499 15.9009C12.8499 16.3703 12.4693 16.7509 11.9999 16.7509C11.5305 16.7509 11.1499 16.3703 11.1499 15.9009C11.1499 15.4315 11.5305 15.0509 11.9999 15.0509C12.4693 15.0509 12.8499 15.4315 12.8499 15.9009Z" fill="#717681"/>
<path fill-rule="evenodd" clip-rule="evenodd" d="M3 12C3 7.02944 7.02944 3 12 3C16.9706 3 21 7.02944 21 12C21 16.9706 16.9706 21 12 21C7.02944 21 3 16.9706 3 12ZM12 4.3C7.74741 4.3 4.3 7.74741 4.3 12C4.3 16.2526 7.74741 19.7 12 19.7C16.2526 19.7 19.7 16.2526 19.7 12C19.7 7.74741 16.2526 4.3 12 4.3Z" fill="#717681"/>
</svg>
