<svg width="24" height="24" viewBox="0 0 24 24" fill="none" xmlns="http://www.w3.org/2000/svg">
<path d="M11.9998 9.7C11.9998 9.3134 11.682 8.99158 11.3058 9.08066C9.98355 9.39379 8.99976 10.582 8.99976 12C8.99976 13.6569 10.3429 15 11.9998 15C13.4178 15 14.606 14.0162 14.9191 12.6939C15.0082 12.3178 14.6864 12 14.2998 12H13.2998C12.5818 12 11.9998 11.418 11.9998 10.7V9.7Z" fill="#626F84"/>
<path fill-rule="evenodd" clip-rule="evenodd" d="M2.77296 10.7185C4.1356 8.69823 7.27521 5 11.9998 5C16.7243 5 19.8639 8.69823 21.2266 10.7185C21.7546 11.5014 21.7546 12.4986 21.2266 13.2815C19.8639 15.3018 16.7243 19 11.9998 19C7.27521 19 4.1356 15.3018 2.77296 13.2815C2.24495 12.4986 2.24495 11.5014 2.77296 10.7185ZM7.34977 12C7.34977 9.43185 9.43165 7.34998 11.9998 7.34998C14.5679 7.34998 16.6498 9.43185 16.6498 12C16.6498 14.5681 14.5679 16.65 11.9998 16.65C9.43165 16.65 7.34977 14.5681 7.34977 12Z" fill="#626F84"/>
</svg>
