<svg width="24" height="24" viewBox="0 0 24 24" fill="none" xmlns="http://www.w3.org/2000/svg">
<path d="M6.81163 13.2807C7.04887 13.3442 7.23191 13.5289 7.31832 13.7588C8.03006 15.6525 9.85777 17 12.0002 17C13.2053 17 14.3108 16.5737 15.1742 15.8636C15.3638 15.7077 15.6145 15.6394 15.8516 15.7029L17.1757 16.0577C17.453 16.132 17.7503 16.0313 17.9056 15.7898C18.2873 15.1963 18.582 14.5415 18.7715 13.8434C18.8807 13.4414 19.2849 13.1746 19.6873 13.2825L21.1665 13.6788C21.54 13.7789 21.7616 14.1627 21.6615 14.5361L21.447 15.3366C21.2085 16.0121 20.8995 16.6544 20.5289 17.2546C20.3731 17.5068 20.0674 17.6175 19.7811 17.5408L18.5923 17.2223C18.3282 17.1515 18.049 17.2429 17.863 17.4432C16.4021 19.016 14.3161 20 12.0002 20C8.09498 20 4.84331 17.2018 4.14079 13.501C4.05137 13.03 4.49818 12.6608 4.96128 12.7849L6.81163 13.2807Z" fill="#626F84"/>
<path d="M8.91042 8.06866C8.72215 8.21684 8.47728 8.28038 8.24586 8.21837L6.88308 7.85321C6.60963 7.77994 6.3162 7.87682 6.15913 8.11235C5.96876 8.39781 5.79876 8.69802 5.6512 9.0109C5.49633 9.33928 5.1354 9.53095 4.7847 9.43698L3.21674 9.01685C2.82721 8.91247 2.60414 8.50025 2.76014 8.12837C2.97505 7.61607 3.23132 7.12541 3.52477 6.66058C3.68172 6.41196 3.98505 6.30374 4.26904 6.37984L5.47754 6.70365C5.73862 6.77361 6.01472 6.68511 6.20094 6.48921C7.65844 4.9559 9.71769 4 12.0002 4C15.8636 4 19.0874 6.73859 19.8362 10.3804C19.9335 10.8539 19.4849 11.2299 19.018 11.1048L17.144 10.6026C16.9125 10.5406 16.7322 10.363 16.643 10.1406C15.9052 8.29993 14.1045 7 12.0002 7C10.8339 7 9.76092 7.39931 8.91042 8.06866Z" fill="#626F84"/>
</svg>
