<svg width="20" height="20" viewBox="0 0 20 20" fill="none" xmlns="http://www.w3.org/2000/svg">
<path d="M4.0001 7.5C3.64111 7.5 3.3501 7.79102 3.3501 8.15C3.3501 8.50899 3.64111 8.8 4.0001 8.8L16.0001 8.8C16.3591 8.8 16.6501 8.50899 16.6501 8.15C16.6501 7.79101 16.3591 7.5 16.0001 7.5H4.0001Z" fill="#626F84"/>
<path d="M4.0001 11.2C3.64111 11.2 3.3501 11.491 3.3501 11.85C3.3501 12.2089 3.64111 12.5 4.0001 12.5L16.0001 12.5C16.3591 12.5 16.6501 12.2089 16.6501 11.85C16.6501 11.491 16.3591 11.2 16.0001 11.2L4.0001 11.2Z" fill="#626F84"/>
</svg>
