<svg width="24" height="24" viewBox="0 0 24 24" fill="none" xmlns="http://www.w3.org/2000/svg">
<path d="M15.8028 9.11807C16.0589 8.86899 16.0665 8.4575 15.8197 8.19899C15.5729 7.94048 15.1653 7.93284 14.9092 8.18193L12 11.0388L9.09077 8.18193C8.83466 7.93284 8.427 7.94048 8.18024 8.19899C7.93347 8.4575 7.94104 8.86899 8.19714 9.11807L11.0719 11.9415L8.19711 14.7649C7.94101 15.0139 7.93344 15.4254 8.18021 15.6839C8.42698 15.9425 8.83463 15.9501 9.09074 15.701L12 12.8441L14.9092 15.701C15.1653 15.9501 15.573 15.9425 15.8197 15.6839C16.0665 15.4254 16.0589 15.0139 15.8028 14.7649L12.928 11.9415L15.8028 9.11807Z" fill="#717681"/>
</svg>
