<svg width="24" height="24" viewBox="0 0 24 24" fill="none" xmlns="http://www.w3.org/2000/svg">
<path fill-rule="evenodd" clip-rule="evenodd" d="M9.45094 10.7534V11.0012V18.6967H16.4093C17.1892 18.6967 17.869 18.1661 18.0584 17.4095L19.3712 12.1656C19.6398 11.0925 18.8282 10.0528 17.722 10.0528H15.5741C15.1723 10.0528 14.793 9.86695 14.5468 9.54937C14.3006 9.2318 14.215 8.8182 14.3151 8.42901L14.8371 6.3992V5.54217C14.8371 4.92766 14.3389 4.4295 13.7244 4.4295C13.1099 4.4295 12.6118 4.92766 12.6118 5.54217V5.63961C12.6118 6.54501 12.2893 7.42082 11.7023 8.1101L9.45094 10.7534ZM8.63947 9.70125L10.7126 7.26718C11.0993 6.81308 11.3118 6.23609 11.3118 5.63961V5.54217C11.3118 4.20969 12.3919 3.1295 13.7244 3.1295C15.0569 3.1295 16.1371 4.20969 16.1371 5.54217V6.56369L15.9085 7.45279L15.5741 8.75279H16.9164H17.722C19.6741 8.75279 21.1063 10.5877 20.6322 12.4813L19.3195 17.7252C18.9853 19.0603 17.7855 19.9967 16.4093 19.9967L9.45094 19.9967H8.15094H5.29317C4.5752 19.9967 3.99316 19.4147 3.99316 18.6967L3.99316 11.0012C3.99316 10.2833 4.57519 9.70125 5.29316 9.70125H8.15094H8.63947ZM8.12112 11.0012L8.12109 18.6967V18.6967H5.29316V11.0012L8.12112 11.0012Z" fill="#626F84"/>
</svg>
