<svg width="24" height="24" viewBox="0 0 24 24" fill="none" xmlns="http://www.w3.org/2000/svg">
<path fill-rule="evenodd" clip-rule="evenodd" d="M15.2659 3.05017V3.05017L19.4236 3.05017C20.1416 3.05017 20.7236 3.6322 20.7236 4.35017V12.0456C20.7236 12.7636 20.1416 13.3456 19.4236 13.3456H16.0778L14.0047 15.7797C13.6179 16.2338 13.4055 16.8108 13.4055 17.4073V17.5047C13.4055 18.8372 12.3253 19.9174 10.9929 19.9174C9.66037 19.9174 8.58018 18.8372 8.58018 17.5047V16.4832L9.14314 14.2941H6.99524C5.04314 14.2941 3.61099 12.4592 4.08505 10.5655L5.3978 5.32164C5.73202 3.98659 6.93175 3.05017 8.308 3.05017L15.2659 3.05017ZM15.2659 12.294V4.35017L8.308 4.35017C7.52813 4.35017 6.84828 4.88081 6.65889 5.63734L5.34613 10.8812C5.0775 11.9543 5.88905 12.9941 6.99524 12.9941H9.14314C9.54499 12.9941 9.92425 13.1799 10.1705 13.4975C10.4167 13.8151 10.5023 14.2287 10.4022 14.6179L9.88018 16.6477V17.5047C9.88018 18.1192 10.3783 18.6174 10.9929 18.6174C11.6074 18.6174 12.1055 18.1192 12.1055 17.5047V17.4073C12.1055 16.5019 12.428 15.626 13.015 14.9368L15.2659 12.294ZM16.5962 12.0456L16.5962 4.35017H19.4236V12.0456L16.5962 12.0456Z" fill="#626F84"/>
</svg>
