<svg width="24" height="24" viewBox="0 0 24 24" fill="none" xmlns="http://www.w3.org/2000/svg">
<path fill-rule="evenodd" clip-rule="evenodd" d="M5.29316 9.71284C4.57519 9.71284 3.99316 10.2949 3.99316 11.0128L3.99316 18.7083C3.99316 19.4263 4.5752 20.0083 5.29317 20.0083H9.45094L16.4093 20.0083C17.7855 20.0083 18.9853 19.0719 19.3195 17.7368L20.6322 12.4929C21.1063 10.5993 19.6741 8.76439 17.722 8.76439H16.9164H15.5741L15.9085 7.46439L16.1371 6.57528V5.55377C16.1371 4.22128 15.0569 3.14109 13.7244 3.14109C12.3919 3.14109 11.3118 4.22128 11.3118 5.55377V5.65121C11.3118 6.24769 11.0993 6.82468 10.7126 7.27878L8.63947 9.71284H5.29316ZM9.45094 10.765L11.7023 8.1217C12.2893 7.43242 12.6118 6.55661 12.6118 5.65121V5.55377C12.6118 4.93925 13.1099 4.44109 13.7244 4.44109C14.3389 4.44109 14.8371 4.93925 14.8371 5.55377V6.4108L14.3151 8.44061C14.215 8.8298 14.3006 9.2434 14.5468 9.56097C14.793 9.87854 15.1723 10.0644 15.5741 10.0644H17.722C18.8282 10.0644 19.6398 11.1041 19.3712 12.1772L18.0584 17.4211C17.869 18.1777 17.1892 18.7083 16.4093 18.7083H9.45094V10.765Z" fill="#626F84"/>
</svg>
