<svg width="24" height="24" viewBox="0 0 24 24" fill="none" xmlns="http://www.w3.org/2000/svg">
<path fill-rule="evenodd" clip-rule="evenodd" d="M19.4236 13.3456C20.1416 13.3456 20.7236 12.7636 20.7236 12.0456V4.35017C20.7236 3.6322 20.1416 3.05017 19.4236 3.05017L15.2962 3.05017L15.2659 3.05017L8.308 3.05017C6.93175 3.05017 5.73202 3.98659 5.39781 5.32164L4.08505 10.5655C3.61099 12.4592 5.04314 14.2941 6.99524 14.2941H7.80084H9.14314L8.80882 15.5941L8.58018 16.4832V17.5047C8.58018 18.8372 9.66037 19.9174 10.9929 19.9174C12.3253 19.9174 13.4055 18.8372 13.4055 17.5047V17.4073C13.4055 16.8108 13.6179 16.2338 14.0047 15.7797L16.0778 13.3456H19.4236ZM15.2659 12.294L13.015 14.9368C12.428 15.626 12.1055 16.5019 12.1055 17.4073V17.5047C12.1055 18.1192 11.6074 18.6174 10.9929 18.6174C10.3783 18.6174 9.88018 18.1192 9.88018 17.5047V16.6477L10.4022 14.6179C10.5023 14.2287 10.4167 13.8151 10.1705 13.4975C9.92425 13.1799 9.54499 12.9941 9.14314 12.9941H6.99524C5.88905 12.9941 5.0775 11.9543 5.34613 10.8812L6.65889 5.63734C6.84828 4.88081 7.52813 4.35017 8.308 4.35017L15.2659 4.35017V12.294Z" fill="#626F84"/>
</svg>
