<svg xmlns="http://www.w3.org/2000/svg" fill="none" viewBox="0 0 24 24" focusable="false"><path fill="#74767B" fill-rule="evenodd" d="M11.81 3.34c.12-.21.35-.33.59-.33l3.25.07c.24.01.46.14.57.35l1.47 2.65c.06.09.09.21.09.32v.14c0 .12-.04.24-.1.34l-1.34 2.26 1.4 2.39c.05.11.09.22.09.34v.15c0 .12-.04.24-.1.35l-1.43 2.36 1.39 2.4c.05.1.09.21.09.33v.14q0 .18-.09.33l-1.53 2.71c-.12.21-.34.34-.58.34h-.12l-3.14-.07a.69.69 0 0 1-.57-.34l-1.35-2.38-2.91-.07a.67.67 0 0 1-.57-.34l-1.51-2.65a.7.7 0 0 1-.08-.33v-.14c0-.12.03-.23.09-.34l1.38-2.37-1.36-2.32a.67.67 0 0 1-.09-.34v-.14c0-.12.03-.23.09-.34L7 6.11c.12-.21.35-.33.59-.33l2.76.06zm-.38 5.62-1.02-1.78-2.45-.05-1.21 2.09 1.21 2.06 2.12.05.25.01 1.25-2.11zm1.29-.45-.12-.21-1.04-1.88 1.21-2.06 2.47.05 1.13 2.05-1.25 2.11zm-2.67 4.16.38.01 1.13 2.06-1.25 2.11-2.41-.06-1.17-2.06 1.23-2.1zm1.53-.7 1.19-2.09 2.48.05 1.17 2.01-1.29 2.14-2.37-.05zm1.16 3.45-1.18 2.1 1.17 2.06 2.46.05 1.18-2.1-1.19-2.06z"/></svg>