<svg xmlns="http://www.w3.org/2000/svg" fill="none" viewBox="0 0 24 24" focusable="false"><g fill="#74767B" fill-rule="evenodd"><path d="M6.99 4H17c1.65 0 3 1.34 3 3v10c0 1.65-1.35 3-3 3H6.99c-1.65 0-3-1.35-3-3V7c0-1.66 1.35-3 3-3m8.73 13.26V6.72c0-.36-.29-.65-.65-.65s-.65.29-.65.65v10.54c0 .37.29.65.65.65s.65-.28.65-.65M12.88 6.72v10.55c0 .36-.28.65-.65.65-.36 0-.65-.29-.65-.65V6.72c0-.36.29-.65.65-.65.37 0 .65.29.65.65m-6.79.21v6.17c0 .37.28.65.65.65.36 0 .65-.28.65-.65V6.93c0-.37-.29-.65-.65-.65-.37 0-.65.28-.65.65m3.96 0v10.34c0 .36-.29.65-.65.65-.37 0-.65-.29-.65-.65V6.93c0-.37.28-.65.65-.65.36 0 .65.28.65.65m8.33 6.77v-3.45c0-.37-.28-.65-.65-.65-.36 0-.65.28-.65.65v3.45c0 .37.29.65.65.65.37 0 .65-.28.65-.65M7.39 15.56v1.71c0 .36-.29.65-.65.65-.37 0-.65-.29-.65-.65v-1.71c0-.37.28-.65.65-.65.36 0 .65.28.65.65"/><path d="M6.99 4H17c1.65 0 3 1.34 3 3v10c0 1.65-1.35 3-3 3H6.99c-1.65 0-3-1.35-3-3V7c0-1.66 1.35-3 3-3m10.03 4.43V6.72c0-.14-.01-.28-.05-.42-.02-.11-.06-.22-.1-.33-.05-.12-.11-.23-.18-.34-.07-.1-.15-.2-.24-.29-.02-.01-.03-.03-.05-.05h.6c.13 0 .27.02.4.05.09.02.17.05.26.09s.17.08.26.13c.1.07.19.15.28.23.09.09.16.18.23.29a2 2 0 0 1 .22.51c.03.13.05.27.05.41v1.55c-.07-.04-.14-.07-.21-.1-.11-.05-.22-.08-.33-.11-.14-.03-.28-.04-.43-.04-.14 0-.29.01-.42.04-.1.02-.2.05-.29.09m0 7.09v1.74c0 .15-.01.29-.05.43-.02.11-.06.22-.1.33-.05.12-.11.23-.18.34-.07.1-.15.2-.24.29-.02.01-.03.03-.05.05h.6c.13 0 .27-.02.4-.05.09-.02.17-.05.26-.09s.17-.08.26-.13c.1-.07.19-.15.28-.23.09-.09.16-.18.23-.29a2 2 0 0 0 .22-.51c.03-.13.05-.27.05-.4v-1.6c-.07.04-.14.07-.21.1-.11.05-.22.08-.33.11-.14.03-.28.04-.43.04-.14 0-.29-.01-.42-.04-.1-.03-.2-.05-.29-.09m-3.28 3.18c-.02-.02-.03-.04-.05-.05-.01-.02-.03-.03-.04-.04-.01.01-.02.02-.03.04-.02.01-.04.03-.06.05zm-2.84 0a.12.12 0 0 0-.05-.05c-.01-.02-.02-.03-.03-.04-.02.01-.03.02-.04.04-.02.01-.03.03-.05.05zm-2.83 0v-.01zm-1.7-5.06a.65.65 0 0 1-.28-.54V6.93c0-.37.28-.65.65-.65.36 0 .65.28.65.65v6.17c0 .23-.11.42-.29.54-.1.07-.23.11-.36.11-.14 0-.27-.04-.37-.11m.73 1.38a.64.64 0 0 0-.36-.11.636.636 0 0 0-.65.65v1.71c0 .36.28.65.65.65.36 0 .65-.29.65-.65v-1.71c0-.23-.11-.43-.29-.54m.97-9.52c.07-.07.15-.14.24-.19 0-.01.01-.01.01-.02h-.51l.02.02c.08.05.16.12.24.19m2.4-.21.02.02c.08.05.16.11.23.18.04-.05.09-.1.13-.15a.12.12 0 0 0 .05-.05zm3.09 0c.02.02.04.04.06.05.01.02.02.03.03.04.01-.01.03-.02.04-.04.02-.01.03-.03.05-.05zm2.16 11.97V6.72c0-.36-.29-.65-.65-.65s-.65.29-.65.65v10.54c0 .37.29.65.65.65s.65-.28.65-.65M12.88 6.72v10.55c0 .36-.28.65-.65.65-.36 0-.65-.29-.65-.65V6.72c0-.36.29-.65.65-.65.37 0 .65.29.65.65m-2.83.21v10.34c0 .36-.29.65-.65.65-.37 0-.65-.29-.65-.65V6.93c0-.37.28-.65.65-.65.36 0 .65.28.65.65m8.33 6.77v-3.45c0-.37-.28-.65-.65-.65-.36 0-.65.28-.65.65v3.45c0 .37.29.65.65.65.37 0 .65-.28.65-.65"/></g></svg>