<svg xmlns="http://www.w3.org/2000/svg" fill="none" viewBox="0 0 24 24" focusable="false"><defs><clipPath id="ClickHouse_Outline_svg__a"><path fill="#fff" fill-opacity="0" d="M0 0h24v24H0z"/></clipPath></defs><g clip-path="url(#ClickHouse_Outline_svg__a)"><path fill="#717681" fill-rule="evenodd" d="M11.98 19.03c0 .36.29.64.65.64.36 0 .65-.28.65-.64V4.61c0-.35-.29-.64-.65-.64-.36 0-.65.29-.65.64zm4.54.64a.64.64 0 0 1-.65-.64V4.61c0-.35.29-.64.65-.64.36 0 .65.29.65.64v14.42c0 .36-.29.64-.65.64m-8.44-.63c0 .35.29.64.65.64.36 0 .65-.29.65-.64V4.62c0-.35-.29-.64-.65-.64-.36 0-.65.29-.65.64zm-3.24-3.58a.64.64 0 0 1-.65-.64V4.62c0-.35.29-.64.65-.64.35 0 .65.29.65.64v10.2c0 .36-.3.64-.65.64m15.58-1.41c-.36 0-.65-.29-.65-.64v-3.17c0-.35.29-.64.65-.64.36 0 .65.29.65.64v3.17c0 .35-.29.64-.65.64M4.84 19.68c-.36 0-.65-.29-.65-.64v-1.63c0-.35.29-.64.65-.64.35 0 .65.29.65.64v1.63c0 .35-.3.64-.65.64"/></g></svg>