<svg xmlns="http://www.w3.org/2000/svg" fill="none" viewBox="0 0 24 24" focusable="false"><path fill="#74767B" fill-rule="evenodd" d="M4 5.92c0-.6.4-1.12.98-1.26l6.29-1.58c.48-.11.98-.11 1.45 0l6.29 1.58c.58.14.99.66.99 1.26v5.23c0 3.1-1.6 5.99-4.23 7.63l-3.09 1.93a1.3 1.3 0 0 1-1.37 0l-3.09-1.93A8.99 8.99 0 0 1 4 11.15zm14.7 0v5.23c0 2.65-1.37 5.12-3.62 6.53L12 19.6l-3.09-1.92a7.72 7.72 0 0 1-3.62-6.53V5.92l6.29-1.57c.27-.07.56-.07.83 0zm-9.49 8.2c-.28 0-.55-.05-.8-.16-.25-.1-.47-.25-.66-.44-.1-.1-.19-.21-.26-.32s-.13-.22-.18-.34q-.075-.18-.12-.36c-.03-.15-.05-.29-.05-.44q0-.23.05-.44c.03-.13.07-.25.12-.37q.075-.18.18-.33c.07-.12.16-.23.26-.33.1-.09.21-.18.32-.26.11-.07.22-.13.34-.18l.15-.06a3.3 3.3 0 0 1 .26-1.26q.11-.28.28-.53a3.3 3.3 0 0 1 1.44-1.2q.285-.12.57-.18c.23-.05.46-.08.7-.08a3.5 3.5 0 0 1 1.14.21 3.5 3.5 0 0 1 .97.57c.15.13.28.27.4.42.12.14.22.29.31.44.1.17.26.44.32.62q.23.05.44.14c.15.07.29.14.42.22a3.1 3.1 0 0 1 .72.72c.08.13.15.27.22.42.06.14.1.29.14.44.04.18.05.36.05.54 0 .19-.01.37-.05.55-.04.15-.08.3-.14.44-.07.15-.14.28-.22.41-.1.14-.21.28-.33.4a2.4 2.4 0 0 1-.81.54q-.21.09-.44.14c-.18.04-.36.06-.55.06zm-.29-1.35c.09.03.19.05.29.05h5.2c.16 0 .33-.03.48-.09q.225-.105.39-.27c.12-.11.21-.25.27-.39.03-.07.05-.13.06-.2a1.36 1.36 0 0 0-.06-.77q-.04-.1-.1-.19c-.05-.07-.11-.14-.17-.2q-.165-.18-.39-.27a.8.8 0 0 0-.2-.06 1.4 1.4 0 0 0-.28-.04c-.09 0-.17-.01-.24-.04a.6.6 0 0 1-.21-.12q-.09-.08-.15-.18-.06-.11-.08-.23c-.02-.11-.05-.22-.08-.32-.04-.11-.09-.22-.15-.32-.11-.2-.25-.37-.43-.52a1.84 1.84 0 0 0-.85-.42 1.84 1.84 0 0 0-.85 0c-.11.03-.22.06-.32.11-.11.04-.21.1-.3.16-.12.07-.22.16-.32.25q-.14.15-.25.31v.01c-.07.1-.12.2-.17.3-.04.11-.07.21-.1.32-.03.14-.05.29-.05.44 0 .13.01.25.04.37.01.05.01.11.01.16s-.01.1-.03.16c-.02.09-.07.18-.13.26a.7.7 0 0 1-.24.18c-.04.02-.09.04-.14.05s-.1.02-.16.02c-.1 0-.2.02-.29.06-.09.03-.18.09-.25.16-.08.08-.13.16-.17.25a.7.7 0 0 0-.06.3c0 .1.02.2.06.29a.8.8 0 0 0 .42.42"/></svg>