<svg xmlns="http://www.w3.org/2000/svg" fill="none" viewBox="0 0 24 24" focusable="false"><path fill="#74767B" fill-rule="evenodd" d="M4 5.92c0-.6.4-1.12.98-1.26l6.29-1.58c.48-.11.98-.11 1.45 0l6.29 1.58c.58.14.99.66.99 1.26v5.23c0 3.1-1.6 5.99-4.23 7.63l-3.09 1.93a1.3 1.3 0 0 1-1.37 0l-3.09-1.93A8.99 8.99 0 0 1 4 11.15zm4.41 8.01c.25.11.52.17.8.17h5.2c.34 0 .67-.07.98-.2q.465-.195.81-.54c.23-.24.42-.51.54-.81.07-.14.11-.29.15-.45.04-.17.05-.35.05-.53s-.01-.35-.05-.52c-.03-.14-.07-.28-.12-.41s-.12-.26-.19-.38a2.446 2.446 0 0 0-.63-.7c-.12-.1-.25-.18-.38-.24q-.21-.105-.42-.18l-.25-.06a3.2 3.2 0 0 0-1.08-1.54c-.15-.12-.3-.22-.47-.31-.14-.08-.3-.14-.46-.2-.15-.05-.3-.1-.46-.13-.2-.04-.41-.05-.62-.05-.24 0-.47.02-.7.07-.19.04-.38.1-.56.18-.19.08-.37.17-.54.28-.18.12-.34.26-.5.41-.16.16-.3.33-.42.52-.1.16-.2.33-.27.51q-.12.27-.18.57c-.05.22-.08.45-.08.69-.12.04-.23.09-.34.15s-.21.12-.3.2c-.09.07-.18.16-.26.25-.09.1-.17.2-.23.31-.06.1-.11.2-.15.31s-.07.22-.1.33c-.02.13-.04.27-.04.41a2.1 2.1 0 0 0 .17.8c.05.11.11.22.17.33.08.11.17.22.27.32s.2.19.32.26c.1.07.22.13.34.18"/></svg>