<svg xmlns="http://www.w3.org/2000/svg" fill="none" viewBox="0 0 24 24" focusable="false"><defs><clipPath id="Dion_Outline_svg__a"><path fill="#fff" fill-opacity="0" d="M0 0h24v24H0z"/></clipPath></defs><g clip-path="url(#Dion_Outline_svg__a)"><path fill="#74767B" fill-rule="evenodd" d="M10.33 15.93v-3.94c0-1.98.79-3.88 2.2-5.29a7.5 7.5 0 0 1 5.3-2.19h.42a.4.4 0 0 1 .29.12.4.4 0 0 1 .12.29v2.31a.4.4 0 0 1-.12.29c-.08.07-.18.12-.29.12h-4.16a.4.4 0 0 0-.29.12c-.08.07-.12.17-.12.28v3.93c0 1.98-.79 3.89-2.19 5.29a7.54 7.54 0 0 1-5.3 2.19h-.45a.4.4 0 0 1-.29-.12.38.38 0 0 1-.12-.28v-2.33c0-.1.04-.21.12-.28a.4.4 0 0 1 .29-.12h4.19c.11 0 .2-.04.28-.12.07-.07.12-.17.12-.27M8.9 7.62H5.73a.4.4 0 0 1-.28-.11.4.4 0 0 1-.12-.29V4.91c0-.1.04-.21.12-.28.07-.08.18-.12.28-.12h5.85c.05 0 .11.01.17.04.05.02.1.06.13.1.04.04.07.1.09.15.01.06.02.12.01.18-.12.73-.49 1.41-1.05 1.89-.57.49-1.28.75-2.03.75m9.33 8.72h-3.16c-.75 0-1.47.27-2.03.76-.57.49-.94 1.17-1.05 1.91-.01.06-.01.12.01.17.01.06.04.11.08.16.04.04.08.08.14.1.05.03.11.04.17.04h5.84c.1 0 .21-.04.28-.12a.4.4 0 0 0 .12-.29v-2.33c0-.1-.04-.21-.12-.28a.38.38 0 0 0-.28-.12"/></g></svg>