<svg xmlns="http://www.w3.org/2000/svg" fill="none" viewBox="0 0 24 24" focusable="false"><defs><clipPath id="Docker_Outline_svg__a"><path fill="#fff" fill-opacity="0" d="M0 0h24v24H0z"/></clipPath></defs><g clip-path="url(#Docker_Outline_svg__a)"><path fill="#717681" fill-rule="evenodd" d="M9.55 3.54c-.36 0-.65.29-.65.65V8H5.08c-.36 0-.65.29-.65.65v3.82H3.2c-.36 0-.65.29-.65.65 0 2.05.66 4 1.95 5.44 1.29 1.46 3.18 2.36 5.54 2.36 5.26 0 7.88-3.47 9.09-5.45.39-.04.87-.13 1.35-.35.58-.27 1.03-.77 1.31-1.15.18-.23.34-.47.47-.73h.01c.13-.26.07-.57-.14-.77-.15-.14-.32-.28-.48-.41-.27-.2-.67-.48-1.07-.61-.29-.11-.62-.13-.86-.13-.07-.23-.19-.49-.37-.75-.24-.33-.69-.71-1.02-.97-.21-.17-.43-.34-.65-.49a.633.633 0 0 0-.53-.1c-.19.04-.34.17-.43.34-.1.2-.19.4-.29.6-.15.34-.34.79-.44 1.16-.13.45-.17.92-.15 1.36h-1.18V4.19c0-.36-.29-.65-.64-.65zM13.37 8V4.84H10.2V8zM10.2 9.3h3.17v3.17H10.2zm-4.47 3.17H8.9V9.3H5.73zm-1.85 1.3h12.73c.21 0 .41-.11.53-.28.12-.17.15-.39.09-.59-.11-.3-.15-.89.01-1.43.06-.24.19-.54.31-.83.33.26.63.53.74.68.22.32.27.69.27.72.03.37.36.64.73.6.28-.03.6-.06.87.03.19.07.44.23.68.41-.24.34-.53.68-.91.86-.4.18-.83.24-1.24.27-.21.01-.4.13-.51.31-1.07 1.82-3.35 5.1-8.14 5.1-2 0-3.53-.76-4.57-1.92-.92-1.03-1.47-2.41-1.59-3.93"/></g></svg>