<svg xmlns="http://www.w3.org/2000/svg" fill="none" viewBox="0 0 24 24" focusable="false"><defs><clipPath id="Docker_Solid_svg__a"><path fill="#fff" fill-opacity="0" d="M0 0h24v24H0z"/></clipPath></defs><g clip-path="url(#Docker_Solid_svg__a)"><path fill="#717681" fill-rule="evenodd" d="M9.91 3.54c-.35 0-.63.29-.63.65v3.82H5.62c-.35 0-.63.29-.63.65v3.81H3.81c-.35 0-.62.29-.62.65 0 2.05.63 4 1.87 5.45s3.05 2.36 5.31 2.36c5.05 0 7.57-3.48 8.73-5.45.38-.05.84-.14 1.29-.36.57-.27 1-.77 1.27-1.14.17-.23.32-.48.45-.73a.65.65 0 0 0-.13-.77c-.14-.15-.3-.28-.46-.41-.25-.21-.64-.48-1.02-.62-.28-.1-.6-.12-.83-.13-.07-.23-.18-.49-.36-.75-.23-.33-.66-.71-.97-.97a27 27 0 0 0-.63-.49.62.62 0 0 0-.51-.1c-.18.05-.33.17-.41.34-.09.2-.19.4-.27.61-.15.33-.33.78-.44 1.16-.12.44-.16.92-.14 1.35h-1.12V4.19c0-.36-.28-.65-.63-.65zm3.66 4.47V4.84h-3.04v3.17zm-3.04 1.3h3.04v3.16h-3.04zm-4.29 3.16h3.04V9.31H6.24z"/></g></svg>