<svg xmlns="http://www.w3.org/2000/svg" fill="none" viewBox="0 0 24 24" focusable="false"><defs><clipPath id="ETCD_Outline_svg__a"><path fill="#fff" fill-opacity="0" d="M0 0h24v24H0z"/></clipPath></defs><g clip-path="url(#ETCD_Outline_svg__a)"><path fill="#74767B" fill-rule="evenodd" d="m18.86 6.67-1.39 1.28.38.27c.93.67 1.32 1.87.96 2.96l-.09.29 1.74.23c.83.11 1.36.95 1.1 1.75l-.79 2.42a1.34 1.34 0 0 1-1.92.77l-1.54-.83-.14.42a2.645 2.645 0 0 1-2.52 1.83h-.3l.33 1.79c.16.83-.48 1.6-1.32 1.6h-2.55c-.84 0-1.48-.77-1.33-1.6l.33-1.79h-.47c-1.15 0-2.16-.74-2.52-1.83l-.14-.43-1.55.84c-.74.4-1.66.04-1.92-.77l-.79-2.42c-.26-.8.27-1.64 1.11-1.75l1.74-.24-.09-.28c-.35-1.09.04-2.29.96-2.96l.39-.28-1.39-1.27a1.35 1.35 0 0 1 .1-2.07l2.04-1.53c.67-.51 1.64-.28 2.02.47l.87 1.75.27-.19c.93-.68 2.18-.68 3.11 0l.28.2.88-1.76c.37-.75 1.34-.98 2.02-.47l2.03 1.53c.67.51.72 1.5.1 2.07m-2.46.5-1.51-1.1 1.05-1.96 2.04 1.6zm-7.29-1.1L7.6 7.16 6.03 5.64l2.1-1.52zm3.68.08c-.47-.34-1.11-.34-1.59 0L6.91 9.27c-.48.35-.67.95-.49 1.51l1.64 5.05c.18.56.7.93 1.28.93h5.31c.59 0 1.1-.37 1.28-.93l1.64-5.05c.19-.56-.01-1.16-.49-1.51zm-3.1 3.94c-.77 0-1.4.63-1.4 1.4s.63 1.4 1.4 1.4 1.4-.63 1.4-1.4-.63-1.4-1.4-1.4m4.61 0c-.77 0-1.4.63-1.4 1.4s.63 1.4 1.4 1.4 1.4-.63 1.4-1.4-.63-1.4-1.4-1.4m-8.62 2.63.59 1.83-1.83.92-.74-2.48zm12.04 1.83.59-1.83 2.02.33-.86 2.45zm-6.59 3.51h1.9l.33 2.09-2.6-.06z"/></g></svg>