<svg xmlns="http://www.w3.org/2000/svg" fill="none" viewBox="0 0 24 24" focusable="false"><path fill="#74767B" fill-rule="evenodd" d="M12 2C6.47 2 2 6.58 2 12.25c0 4.53 2.86 8.37 6.84 9.73.5.1.68-.23.68-.5 0-.23-.02-1.05-.02-1.9-2.78.61-3.36-1.22-3.36-1.22-.45-1.19-1.11-1.49-1.11-1.49-.91-.63.06-.63.06-.63 1.01.07 1.54 1.05 1.54 1.05.9 1.56 2.34 1.12 2.92.85.08-.66.35-1.12.63-1.38-2.22-.23-4.56-1.12-4.56-5.05 0-1.13.4-2.04 1.03-2.75-.1-.26-.45-1.31.1-2.72 0 0 .85-.27 2.75 1.05.82-.22 1.66-.34 2.5-.34.85 0 1.71.12 2.51.34 1.9-1.32 2.75-1.05 2.75-1.05.54 1.41.19 2.46.1 2.72.64.71 1.02 1.62 1.02 2.75 0 3.93-2.33 4.8-4.57 5.05.36.33.68.94.68 1.91 0 1.37-.02 2.47-.02 2.81 0 .27.18.6.68.5 3.98-1.36 6.85-5.2 6.85-9.73C22.01 6.58 17.52 2 12 2"/></svg>