<svg xmlns="http://www.w3.org/2000/svg" fill="none" viewBox="0 0 24 24" focusable="false"><defs><clipPath id="GitLab_Solid_svg__a"><path fill="#fff" fill-opacity="0" d="M0 0h24v24H0z"/></clipPath></defs><g clip-path="url(#GitLab_Solid_svg__a)"><path fill="#74767B" fill-rule="evenodd" d="M14.33 19.91c-.18.15-.36.28-.56.39-.18.1-.36.18-.54.25-.19.06-.39.12-.58.15a3.5 3.5 0 0 1-1.29 0 3.32 3.32 0 0 1-1.12-.4q-.3-.165-.57-.39l-.49-.42c-.15-.12-.14-.35.01-.47l2.63-1.94a.3.3 0 0 1 .36 0l2.63 1.95c.15.11.16.34.01.47zm1.61-1.66-2.53-1.88a.3.3 0 0 1 0-.48l6.6-4.89c.09-.07.23-.03.27.08.08.24.14.49.19.73a4.6 4.6 0 0 1-.05 1.74c-.07.32-.17.63-.31.93-.15.31-.32.59-.51.85-.2.26-.43.5-.69.71l-2.6 2.2a.3.3 0 0 1-.37.01m3.64-8.55-7.4 5.49a.3.3 0 0 1-.36 0l-7.4-5.48c-.1-.08-.14-.22-.1-.35l1.49-4.22a.952.952 0 0 1 .37-.48c.08-.05.15-.08.23-.11.09-.03.21-.05.31-.04.1 0 .2.01.29.04.08.03.17.07.24.12.08.06.15.12.21.2s.11.18.15.29l1.26 3.83c.02.02.11.12.14.14.02 0 .13.04.15.04h5.65c.03 0 .11-.03.16-.05.02-.02.12-.11.14-.14l1.32-3.84c.03-.11.09-.21.15-.29.06-.07.13-.14.21-.19q.12-.075.24-.12c.09-.03.19-.04.29-.04.11-.01.2.01.3.04.08.03.16.06.24.11.08.06.15.12.2.19.07.09.13.19.16.29l1.46 4.23c.05.12 0 .26-.1.34m-15.6 1.29a.167.167 0 0 0-.26.08c-.09.25-.15.49-.19.74-.05.25-.07.51-.07.77 0 .33.04.66.11.97.07.32.17.63.31.93.15.31.31.59.51.85.2.25.43.49.68.71l2.61 2.2c.11.09.27.09.38.01l2.52-1.88a.3.3 0 0 0 0-.48z"/></g></svg>