<svg xmlns="http://www.w3.org/2000/svg" fill="none" viewBox="0 0 24 24" focusable="false"><defs><clipPath id="Helm_Solid_svg__a"><path fill="#fff" fill-opacity="0" d="M0 0h24v24H0z"/></clipPath></defs><g clip-path="url(#Helm_Solid_svg__a)"><path fill="#717681" fill-rule="evenodd" d="M11.34 4.9V3.25c0-.37.29-.65.65-.65.37 0 .65.28.65.65V4.9c1.48.14 2.83.72 3.91 1.62l1.17-1.17a.64.64 0 0 1 .92 0 .651.651 0 0 1 0 .92l-1.17 1.17a7.14 7.14 0 0 1 1.62 3.9h1.65c.37 0 .65.29.65.65 0 .37-.28.65-.65.65h-1.65a7.14 7.14 0 0 1-1.62 3.91l1.17 1.17a.65.65 0 0 1 0 .92.64.64 0 0 1-.92 0l-1.17-1.17a7.14 7.14 0 0 1-3.91 1.62v1.65c0 .37-.28.65-.65.65-.36 0-.65-.28-.65-.65v-1.65a7.14 7.14 0 0 1-3.9-1.62l-1.17 1.17a.64.64 0 0 1-.92 0 .651.651 0 0 1 0-.92l1.17-1.17a7.14 7.14 0 0 1-1.62-3.91H3.25a.65.65 0 1 1 0-1.3H4.9a7.14 7.14 0 0 1 1.62-3.9L5.35 6.27a.65.65 0 0 1 0-.92.64.64 0 0 1 .92 0l1.17 1.17a7.14 7.14 0 0 1 3.9-1.62m2.33 6.45V8.77c0-.37.28-.65.65-.65.36 0 .65.28.65.65v6.45c0 .37-.29.65-.65.65-.37 0-.65-.28-.65-.65v-2.57h-3.35v2.57c0 .37-.29.65-.65.65s-.65-.28-.65-.65V8.77c0-.37.29-.65.65-.65s.65.28.65.65v2.58z"/></g></svg>