<svg xmlns="http://www.w3.org/2000/svg" fill="none" viewBox="0 0 24 24" focusable="false"><path fill="#717681" fill-rule="evenodd" d="M7 4h10c1.65 0 3 1.34 3 3v10c0 1.65-1.35 3-3 3H7c-1.66 0-3-1.35-3-3V7c0-1.66 1.34-3 3-3m10.65 4.19c-.53.25-1.1.46-1.69.63 0 .04.01.08.01.13v2.03h.34c.36 0 .65.29.65.65 0 .37-.29.65-.65.65h-.34v4.11c0 .37-.29.65-.65.65-.37 0-.65-.28-.65-.65v-4.11H9.01v4.11c0 .37-.28.65-.65.65-.36 0-.65-.28-.65-.65v-4.11h-.3c-.37 0-.65-.28-.65-.65 0-.36.28-.65.65-.65h.3V9.2c-.38-.05-.78-.1-1.18-.16a.645.645 0 1 1 .18-1.28c1.01.14 1.94.24 2.78.3.97.06 1.87.08 2.71.04 1.9-.08 3.53-.45 4.9-1.09.33-.16.71-.02.86.31.16.33.02.71-.31.87m-5.16 1.2c.76-.04 1.49-.13 2.18-.26v1.85h-2.18zM9.4 9.35c.62.05 1.22.07 1.79.07v1.56H9.01V9.32z"/></svg>