<svg xmlns="http://www.w3.org/2000/svg" fill="none" viewBox="0 0 24 24" focusable="false"><path fill="#74767B" d="M12.41 4.75c0 1.3-.89 2.39-2.1 2.68v1.12c.79.15 1.5.57 2 1.16l1.29-.74a2.76 2.76 0 1 1 5.42-.73A2.76 2.76 0 0 1 16.26 11c-.81 0-1.53-.34-2.03-.89l-1.26.72c.12.37.19.76.19 1.17 0 .4-.07.79-.19 1.16l1.26.72c.5-.55 1.22-.89 2.03-.89a2.76 2.76 0 1 1 0 5.52 2.76 2.76 0 0 1-2.66-3.49l-1.29-.74c-.5.59-1.21 1.01-2 1.16v1.12c1.21.29 2.1 1.38 2.1 2.68A2.76 2.76 0 0 1 9.65 22c-1.52 0-2.75-1.24-2.75-2.76 0-1.3.9-2.39 2.11-2.69v-1.11A3.5 3.5 0 0 1 6.15 12c0-1.72 1.23-3.15 2.86-3.45V7.44A2.78 2.78 0 0 1 6.9 4.75C6.9 3.23 8.13 2 9.65 2a2.75 2.75 0 0 1 2.76 2.75"/></svg>