<svg xmlns="http://www.w3.org/2000/svg" fill="none" viewBox="0 0 24 24" focusable="false"><path fill="#717681" fill-rule="evenodd" d="M7.58 4.33 5.54 5.51c-.32.18-.42.57-.24.89.18.31.57.42.89.24l2.04-1.18 2.59-1.5c.18-.1.37-.18.57-.23.19-.06.4-.08.61-.08s.41.02.6.08c.2.05.39.13.57.23l2.59 1.5 2.04 1.18c.32.18.71.07.89-.24.18-.32.08-.71-.24-.89l-2.04-1.18-2.59-1.49c-.28-.17-.58-.29-.88-.37s-.62-.12-.94-.12c-.33 0-.65.04-.95.12s-.6.2-.88.37zM6.74 8l4.41-2.55a1.535 1.535 0 0 1 .83-.22 1.54 1.54 0 0 1 .83.22L17.22 8c.13.07.24.16.34.26s.19.21.27.34c.07.13.12.26.16.4s.06.28.06.43v5.1q0 .21-.06.42c-.04.14-.09.27-.16.4-.08.13-.17.24-.27.34s-.21.19-.34.26l-4.41 2.55c-.13.08-.27.13-.4.17a1.54 1.54 0 0 1-.86 0c-.14-.04-.27-.09-.4-.17l-4.41-2.55a1.5 1.5 0 0 1-.34-.26c-.1-.1-.19-.21-.27-.34-.07-.13-.12-.26-.16-.4q-.06-.21-.06-.42v-5.1c0-.15.02-.29.06-.43s.09-.27.16-.4c.08-.13.17-.24.27-.34s.21-.19.34-.26m5.07-1.43L7.32 9.18c-.02.02-.1.22-.11.25v5.1c0 .03.04.14.05.17.02.03.11.11.13.13l4.42 2.55c.02.01.14.04.17.04s.15-.03.17-.04l4.42-2.55c.03-.02.11-.11.13-.13.02-.03.04-.15.05-.17v-5.1c0-.04-.04-.15-.05-.18-.02-.03-.11-.11-.13-.13l-4.42-2.55a1 1 0 0 0-.17-.04c-.03 0-.15.03-.17.04M4.47 9.61c0-.36-.29-.65-.65-.65-.37 0-.65.29-.65.65v5.35c0 .33.04.64.12.95.08.3.2.6.37.88a3.56 3.56 0 0 0 1.33 1.33l2.59 1.5 2.05 1.18c.31.18.7.08.88-.24.19-.31.08-.7-.23-.89l-2.05-1.18L5.64 17c-.36-.21-.65-.5-.86-.86-.1-.18-.18-.37-.23-.57-.06-.19-.08-.4-.08-.61V9.61m16.35 0v5.35c0 .66-.16 1.26-.49 1.83-.32.56-.77 1.01-1.33 1.33l-2.59 1.5-2.05 1.18c-.31.18-.7.08-.88-.24-.19-.31-.08-.7.23-.89L18.35 17c.18-.11.34-.23.48-.37.15-.15.27-.31.38-.49.1-.18.18-.37.23-.57.06-.19.08-.4.08-.61V9.61c0-.36.29-.65.65-.65.37 0 .65.29.65.65"/></svg>