<svg xmlns="http://www.w3.org/2000/svg" fill="none" viewBox="0 0 24 24" focusable="false"><defs><clipPath id="Kaspersky_Solid_svg__a"><path fill="#fff" fill-opacity="0" d="M0 0h24v24H0z"/></clipPath></defs><g clip-path="url(#Kaspersky_Solid_svg__a)"><path fill="#74767B" fill-rule="evenodd" d="m5.64 5.51 2.05-1.18 2.59-1.49c.28-.17.57-.29.88-.37a3.748 3.748 0 0 1 1.89 0c.3.08.59.2.88.37l2.59 1.49 2.04 1.18c.32.18.42.57.24.89-.18.31-.57.42-.89.24l-2.04-1.18-2.59-1.5c-.18-.1-.37-.18-.57-.23-.19-.06-.4-.08-.61-.08s-.41.02-.61.08c-.19.05-.38.13-.56.23l-2.59 1.5-2.05 1.18c-.31.18-.7.07-.88-.24a.64.64 0 0 1 .23-.89M6.86 8l4.42-2.55c.13-.08.26-.13.4-.17.13-.04.28-.05.42-.05a1.54 1.54 0 0 1 .83.22L17.34 8c.13.07.25.16.35.26s.18.21.26.34c.07.13.13.26.16.4.04.14.06.28.06.43v5.1q0 .21-.06.42c-.03.14-.09.27-.16.4-.08.13-.16.24-.26.34s-.22.19-.35.26l-4.41 2.55c-.13.08-.26.13-.4.17a1.54 1.54 0 0 1-.85 0c-.14-.04-.27-.09-.4-.17l-4.42-2.55a1.5 1.5 0 0 1-.34-.26c-.1-.1-.19-.21-.26-.34a1.509 1.509 0 0 1-.22-.82v-5.1a1.54 1.54 0 0 1 .22-.83c.07-.13.16-.24.26-.34s.21-.19.34-.26m-2.93.96c.36 0 .65.29.65.65v5.35c0 .21.02.42.07.61q.09.3.24.57c.21.36.5.65.86.86l2.59 1.49 2.04 1.18c.32.19.42.58.24.89-.18.32-.57.42-.89.24l-2.04-1.18-2.59-1.5c-.28-.16-.53-.35-.76-.57a4.4 4.4 0 0 1-.58-.76c-.16-.28-.28-.58-.36-.88-.08-.31-.12-.62-.12-.95V9.61c0-.36.28-.65.65-.65m17 6V9.61c0-.36-.29-.65-.65-.65-.37 0-.65.29-.65.65v5.35c0 .21-.03.42-.08.61q-.075.3-.24.57c-.1.18-.22.34-.37.49-.14.14-.3.26-.49.37l-4.63 2.67c-.31.19-.42.58-.24.89.19.32.58.42.89.24l2.05-1.18 2.58-1.5c.57-.32 1.01-.77 1.34-1.33.33-.57.49-1.17.49-1.83"/></g></svg>