<svg xmlns="http://www.w3.org/2000/svg" fill="none" viewBox="0 0 24 24" focusable="false"><defs><clipPath id="Kubernetes_Solid_svg__a"><path fill="#fff" fill-opacity="0" d="M0 0h24v24H0z"/></clipPath></defs><g clip-path="url(#Kubernetes_Solid_svg__a)"><path fill="#717681" fill-rule="evenodd" d="M11.34 2.88c.42-.19.89-.19 1.31 0L18.7 5.8c.42.2.71.57.82 1.02l1.49 6.56c.1.44 0 .91-.29 1.27l-4.19 5.25c-.28.36-.72.57-1.17.57H8.63c-.45 0-.89-.21-1.17-.57l-4.19-5.25c-.29-.36-.39-.83-.29-1.27l1.49-6.56c.11-.45.4-.82.82-1.02zm1.3 3.77c0-.36-.29-.65-.65-.65-.35 0-.65.29-.65.65v1.12c-.86.13-1.63.52-2.24 1.09l-.89-.71a.642.642 0 0 0-.91.11c-.23.28-.18.68.1.91l.89.71c-.36.62-.56 1.34-.56 2.11 0 .1 0 .21.01.31l-1.12.26a.652.652 0 0 0 .29 1.27l1.13-.26c.31.79.85 1.46 1.54 1.93l-.5 1.05c-.16.32-.02.71.3.86.32.16.71.03.87-.3l.5-1.04c.4.12.81.18 1.25.18.43 0 .84-.06 1.24-.18l.5 1.04c.16.33.55.46.87.3.32-.15.46-.54.3-.86l-.5-1.05c.69-.47 1.23-1.14 1.54-1.93l1.13.26c.35.08.7-.14.77-.49.08-.35-.13-.7-.48-.78l-1.12-.26c0-.1.01-.21.01-.31 0-.77-.2-1.49-.56-2.11l.89-.71a.65.65 0 0 0 .1-.91.642.642 0 0 0-.91-.11l-.89.71c-.61-.57-1.38-.96-2.25-1.09zm-.64 8.3a2.966 2.966 0 0 0 0-5.93 2.97 2.97 0 0 0-2.97 2.97c0 1.63 1.33 2.96 2.97 2.96m-.01-1.96c.56 0 1-.45 1-1 0-.56-.44-1-1-1-.55 0-1 .44-1 1 0 .55.45 1 1 1"/></g></svg>