<svg xmlns="http://www.w3.org/2000/svg" fill="none" viewBox="0 0 24 24" focusable="false"><defs><clipPath id="Matryoshka_Outline_svg__a"><path fill="#fff" fill-opacity="0" d="M0 0h24v24H0z"/></clipPath></defs><g clip-path="url(#Matryoshka_Outline_svg__a)"><path fill="#717681" fill-rule="evenodd" d="M17.71 12.24c.16-1.14 1.05-2.27 2-2.92.19-.14.38-.29.55-.46 1.5-1.51 1.5-3.95 0-5.46a3.875 3.875 0 0 0-5.46 0c-.17.18-.32.36-.45.55-.66.95-1.78 1.84-2.93 2q-.735.105-1.44.39c-.84.34-.91 1.41-.27 2.05l5.56 5.56c.64.64 1.71.57 2.05-.26.19-.48.32-.96.39-1.45m-1.29-.18c.22-1.62 1.42-3.03 2.55-3.82.13-.08.25-.18.37-.3a2.56 2.56 0 1 0-3.62-3.62c-.11.12-.21.24-.3.37-.78 1.13-2.2 2.33-3.82 2.55-.32.04-.65.12-.96.24l5.54 5.54c.12-.31.2-.64.24-.96M5.41 14.63c-.25.32-.45.7-.58 1.1H3.34c-.46 0-.85.34-.85.79 0 1.94.87 3.66 2.23 4.75.27.22.61.32.96.32h4.98c.35 0 .7-.1.97-.32 1.36-1.09 2.23-2.81 2.23-4.75 0-.45-.39-.79-.85-.79h-1.49c-.13-.4-.33-.78-.58-1.1-.43-.58-.54-1.46-.4-2.17a2.4 2.4 0 0 0-2.36-2.84 2.403 2.403 0 0 0-2.37 2.84c.14.7.03 1.59-.4 2.17m3.85-2.41a1.103 1.103 0 0 0-1.08-1.3c-.61 0-1.11.49-1.11 1.1 0 .07.01.14.02.2.18.93.08 2.23-.64 3.19-.08.1-.15.21-.21.32h3.87c-.06-.11-.13-.22-.21-.32-.72-.96-.82-2.26-.64-3.19m-5.44 4.81c.13 1.33.78 2.48 1.71 3.23h5.29l-.16.03c.11 0 .15-.03.16-.03.93-.75 1.58-1.9 1.71-3.23z"/></g></svg>