<svg xmlns="http://www.w3.org/2000/svg" fill="none" viewBox="0 0 24 24" focusable="false"><defs><clipPath id="Matryoshka_Solid_svg__a"><path fill="#fff" fill-opacity="0" d="M0 0h24v24H0z"/></clipPath></defs><g clip-path="url(#Matryoshka_Solid_svg__a)"><path fill="#717681" fill-rule="evenodd" d="M19.71 9.31c-.95.66-1.84 1.78-2 2.92-.07.5-.2.98-.39 1.45-.34.84-1.41.91-2.05.27L9.71 8.39c-.64-.64-.57-1.71.27-2.05.47-.19.95-.32 1.44-.39 1.15-.16 2.27-1.05 2.93-2 .13-.19.28-.38.45-.55 1.51-1.5 3.95-1.5 5.46 0 1.5 1.51 1.5 3.95 0 5.46-.17.17-.36.32-.55.45m-14.3 5.31c-.25.33-.45.7-.58 1.11H3.34c-.46 0-.85.34-.85.79 0 1.94.87 3.66 2.23 4.75.27.22.61.32.96.32h4.98c.35 0 .7-.1.97-.32 1.36-1.09 2.23-2.81 2.23-4.75 0-.45-.39-.79-.85-.79h-1.49c-.13-.41-.33-.78-.58-1.11-.43-.57-.54-1.46-.4-2.16a2.4 2.4 0 0 0-2.36-2.84c-1.33 0-2.41 1.07-2.41 2.4 0 .15.02.29.04.44.14.7.03 1.59-.4 2.16m3.85-2.4a1.103 1.103 0 0 0-1.08-1.3c-.61 0-1.11.49-1.11 1.1 0 .07.01.14.02.2.18.93.08 2.23-.65 3.19-.07.1-.14.2-.2.32h3.87c-.06-.12-.13-.22-.21-.32-.72-.96-.82-2.26-.64-3.19"/></g></svg>