<svg xmlns="http://www.w3.org/2000/svg" fill="none" viewBox="0 0 24 24" focusable="false"><defs><clipPath id="Mongo_Outline_svg__a"><path fill="#fff" fill-opacity="0" d="M0 0h24v24H0z"/></clipPath></defs><g clip-path="url(#Mongo_Outline_svg__a)"><path fill="#717681" fill-rule="evenodd" d="M12.55 3.89H6.9c-1.66 0-3 1.35-3 3v10.2c0 1.66 1.34 3 3 3h6.35c.36 0 .65-.29.65-.65 0-.35-.29-.65-.65-.65H6.9c-.94 0-1.7-.76-1.7-1.7V12.6h4.16c.36 0 .65-.29.65-.65 0-.36-.29-.65-.65-.65H5.2V6.89c0-.93.76-1.7 1.7-1.7h5.65c.36 0 .65-.29.65-.65 0-.35-.29-.65-.65-.65m3.03.38c.37-.47 1.3-.46 1.67.02.16.2.33.42.51.64 1.29 1.62 2.96 3.71 2.96 6.74 0 3.31-2.09 5.83-3.6 7.05v1.15c0 .36-.29.65-.65.65-.36 0-.65-.29-.65-.65v-1.08c-1.48-1.17-3.61-3.69-3.61-7.12 0-3.2 1.64-5.23 2.93-6.84.15-.19.3-.38.44-.56m1.54 12.68v-6.64c0-.36-.29-.65-.65-.65-.36 0-.65.29-.65.65v6.73c-1.14-1.18-2.31-3.05-2.31-5.37 0-2.72 1.35-4.4 2.64-6.02.08-.11.17-.22.26-.33.11.15.23.3.35.44 1.3 1.65 2.66 3.37 2.66 5.91 0 2.23-1.16 4.08-2.3 5.28"/></g></svg>