<svg xmlns="http://www.w3.org/2000/svg" fill="none" viewBox="0 0 24 24" focusable="false"><defs><clipPath id="Mongo_Solid_svg__a"><path fill="#fff" fill-opacity="0" d="M0 0h24v24H0z"/></clipPath></defs><g clip-path="url(#Mongo_Solid_svg__a)"><path fill="#717681" fill-rule="evenodd" d="M12.91 3.89H6.9c-1.66 0-3 1.35-3 3v4.41h6.98c.09-2.71 1.42-4.76 2.58-6.26.35-.47.03-1.15-.55-1.15m2.91 14.9c-1.48-1.17-3.61-3.69-3.61-7.12 0-3.2 1.64-5.23 2.93-6.84.15-.19.3-.38.44-.56.37-.47 1.31-.46 1.67.02.14.18.29.36.44.56.16.2.4.49.57.71 1.18 1.53 2.46 3.46 2.46 6.11 0 3.31-2.09 5.83-3.6 7.05v1.15c0 .36-.29.65-.65.65-.36 0-.65-.29-.65-.65zm.65-9.13c.36 0 .65.29.65.65v5.92c0 .36-.29.65-.65.65-.36 0-.65-.29-.65-.65v-5.92c0-.36.29-.65.65-.65M3.9 17.09V12.6h6.98c.25 2.58 1.59 4.65 2.85 6.05.45.5.11 1.44-.57 1.44H6.9c-1.66 0-3-1.34-3-3"/></g></svg>