<svg xmlns="http://www.w3.org/2000/svg" fill="none" viewBox="0 0 24 24" focusable="false"><path fill="none" d="M0 0h24v24H0z"/><path fill="#74767B" fill-rule="evenodd" d="m11.36 10.26-3.2-3.52c.32-.63.74-1.22 1.28-1.76Q11.405 3 14.18 3c1.86 0 3.44.66 4.75 1.98q1.95 1.98 1.95 4.77v.01c0 1.85-.65 3.44-1.95 4.75-1.31 1.33-2.89 1.99-4.75 1.99-1.85 0-3.43-.66-4.74-1.99l-.03-.02-.85-.94-5.45-5.99.66-.61a2.994 2.994 0 0 1 4.21.2l1.64 1.8 2.6 2.87c.55.54 1.2.8 1.96.8.78 0 1.44-.27 1.99-.83s.83-1.24.83-2.04-.28-1.49-.83-2.05-1.21-.83-1.99-.83c-.77 0-1.43.27-1.98.83a2.8 2.8 0 0 0-.84 2.05zm-3.88 2.78V21h.3c1.98 0 3.58-1.61 3.58-3.58v-1.07c-.5-.21-1.03-.55-1.56-1.01-.96-.81-1.73-1.58-2.32-2.3"/></svg>