<svg xmlns="http://www.w3.org/2000/svg" fill="none" viewBox="0 0 24 24" focusable="false"><defs><clipPath id="PostgreSQL_Solid_svg__a"><path fill="#fff" fill-opacity="0" d="M0 0h24v24H0z"/></clipPath></defs><g clip-path="url(#PostgreSQL_Solid_svg__a)"><path fill="#717681" fill-rule="evenodd" d="M14.78 16.87c.3 2.65 2.55 4.72 5.28 4.72.88 0 1.58-.71 1.58-1.58v-2.45c0-.58-.46-1.05-1.04-1.05-.74 0-1.34-.61-1.33-1.35l.09-4.45c.08-4.28-3.37-7.79-7.65-7.79H8.42c-.38 0-.7.31-.7.7v7.6c0 2.4 1.95 4.35 4.35 4.35h3.57c.36 0 .65.29.65.65s-.29.65-.65.65zM5.72 2.92H3.46c-.41 0-.75.34-.75.75v10.38a5.65 5.65 0 0 0 5.65 5.65h2.88c.91 0 1.65-.74 1.65-1.65v-.48c0-.39-.31-.7-.7-.7h-.12a5.65 5.65 0 0 1-5.65-5.65v-7.6c0-.38-.31-.7-.7-.7M16.53 12c0 .55-.44 1-1 1-.55 0-1-.45-1-1 0-.56.45-1 1-1 .56 0 1 .44 1 1"/></g></svg>