<svg xmlns="http://www.w3.org/2000/svg" fill="none" viewBox="0 0 24 24" focusable="false"><path fill="#74767B" fill-rule="evenodd" d="M6.42 2.92h5.29c4.28 0 7.73 3.51 7.65 7.79l-.09 4.45c-.01.74.59 1.35 1.33 1.35.58 0 1.04.47 1.04 1.05v2.45c0 .87-.7 1.58-1.58 1.58-2.73 0-4.98-2.07-5.28-4.72h-1.89v1.18c0 .91-.74 1.65-1.65 1.65H8.36a5.65 5.65 0 0 1-5.65-5.65V3.67c0-.41.34-.75.75-.75zm1.3 8.3v-7h3.99c3.55 0 6.42 2.92 6.35 6.47l-.09 4.45a2.64 2.64 0 0 0 2.38 2.66v2.21c0 .15-.13.28-.29.28-2.01 0-3.68-1.49-3.97-3.42h.01c.36 0 .65-.29.65-.65s-.29-.65-.65-.65h-4.03c-2.4 0-4.35-1.95-4.35-4.35m-1.3 0c0 2.96 2.28 5.38 5.17 5.63v1.2c0 .19-.15.35-.35.35H8.36c-2.4 0-4.35-1.95-4.35-4.35V4.22h2.41zM15.53 13c.56 0 1-.45 1-1 0-.56-.44-1-1-1-.55 0-1 .44-1 1 0 .55.45 1 1 1"/></svg>