<svg xmlns="http://www.w3.org/2000/svg" fill="none" viewBox="0 0 24 24" focusable="false"><defs><clipPath id="Python_Outline_svg__a"><path fill="#fff" fill-opacity="0" d="M0 0h24v24H0z"/></clipPath></defs><g clip-path="url(#Python_Outline_svg__a)"><path fill="#717681" fill-rule="evenodd" d="M7.48 7.48H5.81c-.55 0-1.04.12-1.46.37-.42.26-.72.62-.93 1.05-.41.82-.51 1.92-.51 3.1 0 1.17.1 2.27.51 3.09.21.43.51.79.93 1.05.42.25.91.37 1.46.37h1.67v1.67c0 .55.11 1.04.36 1.46.25.42.62.72 1.04.93.82.41 1.92.51 3.12.51 1.19 0 2.3-.1 3.11-.51.43-.21.79-.51 1.04-.93.25-.42.36-.91.36-1.46v-1.67h1.67c.55 0 1.04-.11 1.46-.36.42-.25.72-.61.93-1.04.41-.82.51-1.92.51-3.11 0-1.2-.1-2.3-.51-3.12-.21-.43-.51-.79-.93-1.04-.42-.25-.91-.36-1.46-.36h-1.67V5.81c0-.55-.12-1.04-.37-1.46a2.48 2.48 0 0 0-1.05-.93c-.82-.41-1.92-.51-3.09-.51-1.18 0-2.28.1-3.1.51-.43.21-.79.51-1.05.93-.25.42-.37.91-.37 1.46zm7.73-1.67V9.5c0 1.02-.83 1.84-1.85 1.84h-2.73a3.15 3.15 0 0 0-3.15 3.15v.72H5.81c-.37 0-.61-.08-.79-.18-.17-.11-.32-.27-.44-.52-.26-.52-.37-1.36-.37-2.51 0-1.16.11-2 .37-2.52.12-.25.27-.41.44-.52.18-.1.42-.18.79-.18h5.7c.36 0 .65-.29.65-.65 0-.36-.29-.65-.65-.65H8.78V5.81c0-.37.08-.61.18-.79.11-.17.27-.32.52-.44.52-.26 1.36-.37 2.52-.37s1.99.11 2.52.37c.24.12.4.27.51.44.1.18.18.42.18.79m1.3 2.97v.72c0 1.73-1.41 3.15-3.15 3.15h-2.73c-1.02 0-1.85.82-1.85 1.84v3.69c0 .37.08.62.18.79.1.17.26.32.5.44.52.26 1.35.37 2.54.37 1.18 0 2.01-.11 2.53-.37.24-.12.4-.27.5-.44.1-.17.18-.42.18-.79v-1.67h-2.73c-.36 0-.65-.29-.65-.65 0-.36.29-.65.65-.65h5.7c.37 0 .62-.08.79-.18.17-.1.32-.26.44-.5.26-.52.37-1.35.37-2.53 0-1.19-.11-2.02-.37-2.54-.12-.24-.27-.4-.44-.5-.17-.1-.42-.18-.79-.18H17z"/></g></svg>