<svg xmlns="http://www.w3.org/2000/svg" fill="none" viewBox="0 0 24 24" focusable="false"><defs><clipPath id="Python_Solid_svg__a"><path fill="#fff" fill-opacity="0" d="M0 0h24v24H0z"/></clipPath></defs><g clip-path="url(#Python_Solid_svg__a)"><path fill="#74767B" fill-rule="evenodd" d="M16.13 5.12V9.5c0 1.02-.83 1.85-1.85 1.85H9.72a3.15 3.15 0 0 0-3.15 3.15v1.33c0 .16-.14.3-.3.3H5.13c-.4 0-.68-.1-.88-.23-.21-.14-.39-.36-.53-.69-.31-.7-.43-1.77-.43-3.21s.12-2.52.43-3.22c.14-.33.32-.55.53-.69.2-.13.48-.23.88-.23h6.33c.36 0 .65-.29.65-.65 0-.35-.29-.65-.65-.65H8.17c-.17 0-.3-.13-.3-.3V5.12c0-.4.09-.68.22-.88.14-.21.36-.39.7-.53.69-.31 1.77-.43 3.21-.43 1.43 0 2.51.12 3.21.43.33.14.55.32.69.53.13.2.23.48.23.88m1.3 3.04V9.5a3.15 3.15 0 0 1-3.15 3.15H9.72c-1.03 0-1.85.82-1.85 1.85v4.37c0 .41.09.68.22.89.13.2.35.38.68.52.68.31 1.75.43 3.23.43 1.47 0 2.54-.12 3.23-.43.32-.14.54-.32.67-.52.13-.21.23-.48.23-.89v-1.14a.3.3 0 0 0-.3-.3h-3.3c-.36 0-.65-.29-.65-.65s.29-.65.65-.65h6.33c.41 0 .69-.09.89-.23.2-.13.38-.34.52-.67.31-.69.43-1.76.43-3.23 0-1.48-.12-2.55-.43-3.24-.14-.33-.32-.54-.52-.67-.2-.14-.48-.23-.89-.23h-1.13a.3.3 0 0 0-.3.3"/></g></svg>