<svg xmlns="http://www.w3.org/2000/svg" fill="none" viewBox="0 0 24 24" focusable="false"><defs><clipPath id="Rabbit_Outline_svg__a"><path fill="#fff" fill-opacity="0" d="M0 0h24v24H0z"/></clipPath></defs><g clip-path="url(#Rabbit_Outline_svg__a)"><path fill="#74767B" fill-rule="evenodd" d="M3.93 5.57c0-.91.74-1.65 1.65-1.65h1.04c.91 0 1.65.74 1.65 1.65v4.27h1.56V5.57c0-.91.74-1.65 1.65-1.65h1.04c.91 0 1.65.74 1.65 1.65v4.27h4.24c.91 0 1.65.74 1.65 1.65v6.75c0 .91-.74 1.65-1.65 1.65H5.58c-.91 0-1.65-.74-1.65-1.65zm1.65-.35c-.2 0-.35.16-.35.35v12.67c0 .19.15.35.35.35h12.83c.2 0 .35-.16.35-.35v-6.75c0-.2-.15-.35-.35-.35h-4.89c-.36 0-.65-.29-.65-.65V5.57c0-.19-.15-.35-.35-.35h-1.04c-.19 0-.35.16-.35.35v4.92c0 .36-.29.65-.65.65H7.62c-.36 0-.65-.29-.65-.65V5.57c0-.19-.16-.35-.35-.35zm8.87 8.73c-.2 0-.35.16-.35.35v1.16c0 .2.15.35.35.35h1.15c.2 0 .35-.15.35-.35V14.3c0-.19-.15-.35-.35-.35zm-1.65.35c0-.91.73-1.65 1.65-1.65h1.15c.91 0 1.65.74 1.65 1.65v1.16c0 .91-.74 1.65-1.65 1.65h-1.15c-.92 0-1.65-.74-1.65-1.65z"/></g></svg>