<svg xmlns="http://www.w3.org/2000/svg" fill="none" viewBox="0 0 24 24" focusable="false"><defs><clipPath id="Skylla_Solid_svg__a"><path fill="#fff" fill-opacity="0" d="M0 0h24v24H0z"/></clipPath></defs><g clip-path="url(#Skylla_Solid_svg__a)"><path fill="#717681" fill-rule="evenodd" d="M20.08 11.99v4.3c0 1.19-.09 3.44-2.24 3.44-1.31 0-1.53-.63-1.7-1.13-.1-.32-.19-.59-.55-.59-.28 0-.34.27-.42.63-.16.76-.42 1.96-3.16 1.96-2.75 0-3-1.2-3.17-1.96-.08-.36-.13-.63-.42-.63-.33 0-.37.24-.42.54-.08.5-.2 1.18-1.82 1.18-2.16 0-2.25-2.25-2.25-3.44v-4.3c0-4.28 3.62-7.75 8.08-7.75 4.45 0 8.07 3.47 8.07 7.75m-10.09.03c1.13 0 2.04-.88 2.04-1.96s-.91-1.95-2.04-1.95c-1.12 0-2.03.87-2.03 1.95s.91 1.96 2.03 1.96"/></g></svg>