<svg xmlns="http://www.w3.org/2000/svg" fill="none" viewBox="0 0 24 24" focusable="false"><path fill="#74767B" fill-rule="evenodd" d="M20.14 12.01v3.96c0 .45-.01.92-.03 1.17-.04.46-.13.85-.27 1.19-.16.38-.38.69-.67.93-.06.05-.12.09-.18.13-.42.28-.97.44-1.58.44s-1.12-.14-1.54-.41a3 3 0 0 1-.22-.16c-.08-.07-.16-.15-.23-.23-.14.24-.31.45-.51.64-.19.19-.42.35-.67.48-.6.32-1.35.48-2.24.48q-1.35 0-2.25-.48a2.7 2.7 0 0 1-.67-.48c-.2-.19-.37-.4-.51-.64-.07.08-.15.16-.23.23-.05.05-.12.09-.18.13-.42.28-.97.44-1.58.44s-1.12-.14-1.54-.41a3 3 0 0 1-.22-.16c-.29-.24-.51-.55-.67-.93-.13-.34-.22-.73-.27-1.19-.02-.26-.03-.61-.03-1.06v-4.07c0-.59.06-1.16.19-1.71.11-.46.26-.9.45-1.34s.43-.86.7-1.25q.45-.66 1.05-1.23c.39-.39.82-.72 1.28-1.01.41-.26.84-.48 1.3-.67s.92-.33 1.4-.43c.58-.12 1.17-.19 1.78-.19.6 0 1.19.07 1.77.19.48.1.94.24 1.4.43s.89.41 1.3.67c.46.29.89.62 1.29 1.01q.585.57 1.05 1.23c.27.39.5.81.69 1.25s.34.88.45 1.34c.13.55.19 1.12.19 1.71m-1.3 0V16c0 .42-.01.81-.03 1.03q-.045.51-.18.84c-.09.22-.22.39-.39.5-.2.14-.48.21-.83.21s-.63-.07-.83-.21c-.17-.11-.29-.28-.39-.51q-.135-.33-.18-.84c-.02-.21-.03-.6-.03-1.02 0-.35-.29-.62-.65-.62-.37 0-.65.27-.65.62v.11c0 .25 0 .44-.01.58-.01.22-.02.41-.04.59-.05.43-.15.78-.3 1.06-.09.17-.21.33-.35.46-.11.1-.23.19-.37.26-.4.21-.94.32-1.61.32-.68 0-1.22-.11-1.62-.32-.14-.07-.26-.16-.37-.26-.14-.13-.26-.29-.35-.46-.15-.28-.25-.64-.3-1.06a9 9 0 0 1-.04-.59c0-.12-.01-.29-.01-.51V16c0-.35-.28-.62-.65-.62-.36 0-.65.27-.65.62v.25q0 .495-.03.78-.045.51-.18.84c-.09.22-.22.39-.39.5-.2.14-.48.21-.83.21s-.63-.07-.83-.21q-.24-.165-.39-.51-.135-.33-.18-.84c-.02-.21-.03-.6-.03-1.02v-3.99c0-.5.05-.99.17-1.46.09-.38.21-.74.37-1.1.16-.37.35-.72.57-1.04.26-.38.56-.73.89-1.05.34-.33.71-.61 1.1-.86.34-.21.7-.4 1.08-.55.37-.15.76-.27 1.15-.36.49-.1 1-.16 1.52-.16.51 0 1.02.06 1.51.16a7.42 7.42 0 0 1 2.24.91c.39.25.75.53 1.09.86.33.32.63.67.89 1.05.22.32.41.67.57 1.04.16.36.29.72.37 1.1.12.47.17.96.17 1.46M9.98 7.56c-1.44 0-2.61 1.13-2.61 2.51 0 1.39 1.17 2.52 2.61 2.52 1.45 0 2.62-1.13 2.62-2.52 0-1.38-1.17-2.51-2.62-2.51m0 1.25c-.72 0-1.31.57-1.31 1.26 0 .7.59 1.27 1.31 1.27.73 0 1.32-.57 1.32-1.27 0-.69-.59-1.26-1.32-1.26"/></svg>