<svg xmlns="http://www.w3.org/2000/svg" fill="none" viewBox="0 0 24 24" focusable="false"><defs><clipPath id="Space_Ops_Solid_svg__a"><path fill="#fff" fill-opacity="0" d="M0 0h24v24H0z"/></clipPath></defs><g clip-path="url(#Space_Ops_Solid_svg__a)"><path fill="#74767B" fill-rule="evenodd" d="M10 12c0-3.32 2.68-6 6-6 3.31 0 6 2.68 6 6 0 3.31-2.69 6-6 6-3.32 0-6-2.69-6-6M9 7.09c-.71.15-1.38.45-1.94.86-.9.65-1.5 1.53-1.83 2.5-.13.42-.21.85-.23 1.27V10c0-.56-.46-1.02-1-.84a2.972 2.972 0 0 0-1.86 1.91c-.21.62-.2 1.27 0 1.85.21.63.59 1.14 1.08 1.5.25.18.51.32.78.41.54.18 1-.28 1-.83v-1.73c.02.43.1.86.23 1.27.35 1.04.99 1.9 1.83 2.5.6.44 1.25.72 1.94.86.54.11 1-.35 1-.9V8c0-.56-.46-1.02-1-.91"/></g></svg>