<svg xmlns="http://www.w3.org/2000/svg" fill="none" viewBox="0 0 24 24" focusable="false"><path fill="#74767B" fill-rule="evenodd" d="M12.64 3c0-.36-.29-.65-.65-.65s-.65.29-.65.65v2.35c-1.63.3-2.89 1.7-2.96 3.41l-2.65 4.6c-.33-.25-.64-.53-.93-.82a.64.64 0 0 0-.92 0c-.26.25-.26.66 0 .91.38.38.78.73 1.19 1.05l-.31.54a2.65 2.65 0 0 0-.07 2.52l1.43 2.83c.11.21.33.35.57.35.24.01.46-.11.58-.32l2.22-3.88c1.65.37 3.36.37 5.01 0l2.22 3.88c.12.21.35.33.58.32.24 0 .46-.14.57-.35l1.43-2.83c.41-.8.38-1.75-.07-2.52l-.31-.54c.42-.32.82-.67 1.19-1.05.26-.25.26-.66 0-.91a.63.63 0 0 0-.91 0c-.3.29-.61.57-.94.82l-2.65-4.6a3.626 3.626 0 0 0-2.97-3.41zM12 6.59c-1.28 0-2.32 1.04-2.32 2.32s1.04 2.31 2.32 2.31c1.27 0 2.31-1.03 2.31-2.31A2.32 2.32 0 0 0 12 6.59m1.51 5.6c.71-.33 1.3-.88 1.67-1.57l2.93 5.07c.22.39.24.87.03 1.28l-.89 1.76zm-1.51.33h-.2l-1.63 2.83c1.21.22 2.44.22 3.65 0l-1.63-2.83zm-3.19-1.9c.37.69.96 1.25 1.67 1.57l-3.74 6.54-.89-1.76c-.21-.41-.19-.89.04-1.28z"/></svg>