<svg xmlns="http://www.w3.org/2000/svg" fill="none" viewBox="0 0 24 24" focusable="false"><defs><clipPath id="Veeam_Outline_svg__a"><path fill="#fff" fill-opacity="0" d="M0 0h24v24H0z"/></clipPath></defs><g clip-path="url(#Veeam_Outline_svg__a)"><path fill="#74767B" fill-rule="evenodd" d="M18.7 10.99c.71 0 1.3-.58 1.3-1.3V5.3c0-.72-.59-1.3-1.3-1.3h-4.4c-.72 0-1.3.58-1.3 1.3v4.39c0 .72.58 1.3 1.3 1.3zM4.21 4.2a.64.64 0 0 1 .92 0l4.59 4.59V4.66c0-.36.29-.65.65-.65s.65.29.65.65v5.7c0 .36-.29.65-.65.65h-5.7c-.36 0-.65-.29-.65-.65s.29-.65.65-.65H8.8L4.21 5.12a.66.66 0 0 1 0-.92M14.3 9.69h4.4V5.3h-4.4zm-1.11 3.5a.64.64 0 0 1 .92 0l4.59 4.59v-4.13c0-.36.29-.65.65-.65s.65.29.65.65v5.7c0 .36-.29.65-.65.65h-5.7c-.36 0-.65-.29-.65-.65s.29-.65.65-.65h4.13l-4.59-4.59a.64.64 0 0 1 0-.92M9.69 20c.72 0 1.3-.59 1.3-1.3v-4.4c0-.72-.58-1.3-1.3-1.3H5.3c-.72 0-1.3.58-1.3 1.3v4.4c0 .71.58 1.3 1.3 1.3zM5.3 18.7h4.39v-4.4H5.3z"/></g></svg>