<svg xmlns="http://www.w3.org/2000/svg" fill="none" viewBox="0 0 24 24" focusable="false"><path fill="#74767B" fill-rule="evenodd" d="M11.3501 4L7 4C5.34326 4 4 5.34326 4 7L4 8.48804L11.3501 8.48804L11.3501 4ZM4 9.78809L4 14.2126L7.64258 14.2126L7.64258 9.78809L4 9.78809ZM4 15.5127L4 16.9888C4 18.6458 5.34326 19.9888 7 19.9888L11.3501 19.9888L11.3501 15.5127L4 15.5127ZM12.6499 19.9888L17.002 19.9888C18.6587 19.9888 20.002 18.6458 20.002 16.9888L20.002 15.5127L12.6499 15.5127L12.6499 19.9888ZM20.002 14.2126L20.002 9.78809L16.3574 9.78809L16.3574 14.2126L20.002 14.2126ZM20.002 8.48804L20.002 7C20.002 5.34326 18.6587 4 17.002 4L12.6499 4L12.6499 8.48804L20.002 8.48804ZM15.0576 9.78809L15.0576 14.2126L8.94238 14.2126L8.94238 9.78809L11.9868 9.78809L15.0576 9.78809Z"/></svg>