<svg xmlns="http://www.w3.org/2000/svg" fill="none" viewBox="0 0 24 24" focusable="false"><defs><clipPath id="Wecloud_Solid_svg__a"><path fill="#fff" fill-opacity="0" d="M0 0h24v24H0z"/></clipPath></defs><g clip-path="url(#Wecloud_Solid_svg__a)"><path fill="#74767B" fill-rule="evenodd" d="M8.51 7.78c.28-1.93 1.98-3.41 4.03-3.41 2.24 0 4.07 1.78 4.07 3.99v.03c-.01.58-.14 1.13-.37 1.63-.17.38-.41.72-.69 1.03-.09.1-.19.19-.29.28a6 6 0 0 0-.74-.56c-.34-.22-.7-.39-1.09-.53a5.3 5.3 0 0 0-2.56-.21 5.1 5.1 0 0 0-2.36-2.25m-2.21.58c-2.25 0-4.07 1.79-4.07 4 0 2.2 1.82 3.99 4.07 3.99.15 0 .3-.01.44-.02a5.2 5.2 0 0 1-.17-1.31c0-2.13 1.34-3.95 3.23-4.7a4.09 4.09 0 0 0-3.5-1.96m9.66 3.78c.58.82.92 1.81.92 2.88 0 .84-.21 1.63-.58 2.32.28.05.56.08.85.08 2.55 0 4.61-2.03 4.61-4.53 0-2.32-1.78-4.23-4.07-4.5a5 5 0 0 1-1.73 3.75m-4.24-1.12c-.15 0-.3.01-.44.03-.37.04-.72.13-1.06.25-.1.04-.19.09-.29.13-1.35.65-2.28 2.01-2.28 3.59 0 .36.05.72.15 1.05.47 1.7 2.05 2.95 3.92 2.95 1.51 0 2.83-.81 3.53-2 .34-.59.54-1.27.54-2 0-.84-.26-1.61-.71-2.26q-.315-.45-.75-.81c-.16-.13-.32-.24-.49-.34-.27-.17-.57-.3-.87-.4-.03-.01-.07-.01-.1-.02-.36-.11-.74-.16-1.14-.17z"/></g></svg>