<svg xmlns="http://www.w3.org/2000/svg" fill="none" viewBox="0 0 24 24" focusable="false"><defs><clipPath id="Wecloud_Outline_svg__a"><path fill="#fff" fill-opacity="0" d="M0 0h24v24H0z"/></clipPath></defs><g clip-path="url(#Wecloud_Outline_svg__a)"><path fill="#717681" fill-rule="evenodd" d="M10.81 10.06c.35-.09.71-.13 1.09-.13 1.33 0 2.53.53 3.4 1.4a3.66 3.66 0 0 0 1.02-2.54c0-2.02-1.65-3.67-3.67-3.67-1.84 0-3.36 1.35-3.63 3.11.76.42 1.38 1.06 1.79 1.83m5.12 2.04c.51.76.8 1.68.8 2.66 0 .52-.08 1.01-.22 1.47a3.495 3.495 0 0 0 4.14-3.43c0-1.89-1.5-3.43-3.37-3.5a4.666 4.666 0 0 1-1.35 2.8m.17 5.06c.34.08.69.12 1.05.12 2.48 0 4.48-2.01 4.48-4.48 0-2.44-1.93-4.42-4.35-4.48-.24-2.35-2.22-4.19-4.63-4.19-2.25 0-4.13 1.6-4.56 3.71-.4-.11-.82-.17-1.25-.17-2.48 0-4.48 2-4.48 4.48 0 2.48 2 4.48 4.48 4.48.2 0 .39-.01.59-.03.72 1.76 2.45 3 4.47 3 1.8 0 3.37-.99 4.2-2.44m-8.95-1.53c-.11.01-.21.02-.31.02-1.93 0-3.5-1.57-3.5-3.5s1.57-3.5 3.5-3.5c1.29 0 2.41.7 3.02 1.73a4.839 4.839 0 0 0-2.71 5.25m4.75-4.71c-2.12 0-3.84 1.72-3.84 3.84a3.845 3.845 0 1 0 3.84-3.84"/></g></svg>