<svg width="24" height="24" viewBox="0 0 24 24" fill="none" xmlns="http://www.w3.org/2000/svg">
<path d="M5.6416 11.5C5.6416 11.32 5.7116 11.15 5.8516 11.02C6.1216 10.78 6.5316 10.8 6.7716 11.06L11.1716 15.8956L11.1716 4.99999C11.1716 4.64101 11.4626 4.34999 11.8216 4.34999C12.1806 4.34999 12.4716 4.64101 12.4716 4.99999L12.4716 15.8956L16.8716 11.06C17.1116 10.79 17.5216 10.78 17.7916 11.02C18.0516 11.26 18.0716 11.67 17.8316 11.94L12.3416 17.98C12.0616 18.29 11.5816 18.29 11.3016 17.98L5.8116 11.94C5.6916 11.81 5.6416 11.66 5.6416 11.5Z" fill="#626F84"/>
</svg>
