<svg width="24" height="24" viewBox="0 0 24 24" fill="none" xmlns="http://www.w3.org/2000/svg">
<path d="M20.5184 12.5463C20.7182 12.6683 20.9867 12.5463 20.9947 12.3123C20.9982 12.2086 21 12.1045 21 12C21 7.02944 16.9706 3 12 3C7.02944 3 3 7.02944 3 12C3 16.9706 7.02944 21 12 21C12.1045 21 12.2086 20.9982 12.3123 20.9947C12.5463 20.9867 12.6683 20.7182 12.5463 20.5184C12.1063 19.7979 11.8191 18.9738 11.7298 18.0913C11.5057 17.9888 11.35 17.7626 11.35 17.5V9.0995L8.55676 12.0024C8.30785 12.2611 7.89637 12.269 7.63769 12.0201C7.37901 11.7712 7.37109 11.3597 7.62 11.1011L11.5315 7.03594C11.6201 6.94386 11.7293 6.88355 11.8449 6.85529C11.8603 6.85152 11.8759 6.8483 11.8917 6.84566C11.9564 6.83477 12.0226 6.83371 12.0877 6.84253C12.1059 6.84501 12.1241 6.84825 12.1421 6.85227C12.2625 6.8791 12.3766 6.94043 12.4685 7.03596L16.9786 11.7231C17.1503 11.7078 17.3242 11.7 17.5 11.7C18.6057 11.7 19.6391 12.0094 20.5184 12.5463Z" fill="#717681"/>
<path d="M12.65 14.318L12.65 9.09952L15.4948 12.056C14.3215 12.4883 13.3264 13.2891 12.65 14.318Z" fill="#717681"/>
<path fill-rule="evenodd" clip-rule="evenodd" d="M22 17.5C22 19.9853 19.9853 22 17.5 22C15.0147 22 13 19.9853 13 17.5C13 15.0147 15.0147 13 17.5 13C19.9853 13 22 15.0147 22 17.5ZM17.8478 16.3745C17.6602 16.1055 17.2826 16.0546 17.0305 16.2642L16.709 16.5317C16.433 16.7612 16.0231 16.7236 15.7936 16.4476C15.564 16.1715 15.6017 15.7617 15.8777 15.5322L16.1993 15.2647C17.0368 14.5682 18.291 14.7373 18.9141 15.6308C19.4421 16.3879 19.3349 17.4177 18.6623 18.0499L17.9339 18.7346H18.979C19.3379 18.7346 19.629 19.0256 19.629 19.3846C19.629 19.7435 19.3379 20.0345 18.979 20.0345H16.2933C16.0268 20.0345 15.7872 19.8718 15.689 19.624C15.5908 19.3761 15.6539 19.0935 15.8482 18.9109L17.772 17.1027C17.9744 16.9124 18.0067 16.6024 17.8478 16.3745Z" fill="#717681"/>
</svg>
