<svg width="24" height="24" viewBox="0 0 24 24" fill="none" xmlns="http://www.w3.org/2000/svg">
<path fill-rule="evenodd" clip-rule="evenodd" d="M19.4657 1.79677C19.9488 1.27098 20.8028 1.36226 21.1639 1.9783C21.4001 2.38119 21.3453 2.89108 21.029 3.23467L17.6214 6.93635C17.4466 7.12618 17.4007 7.4014 17.5044 7.63768C17.608 7.87397 17.8416 8.02658 18.0996 8.02658H22.3654C22.7244 8.02658 23.0154 7.73557 23.0154 7.37658C23.0154 7.0176 22.7244 6.72658 22.3654 6.72658H19.5815L21.9855 4.11514C22.6889 3.35098 22.8107 2.21694 22.2854 1.32089C21.4823 -0.0492113 19.583 -0.25223 18.5084 0.917158L18.1196 1.34024C17.8768 1.60457 17.8941 2.01576 18.1585 2.25866C18.4228 2.50156 18.834 2.48419 19.0769 2.21985L19.4657 1.79677ZM5.8208 11.9603C5.8208 12.1403 5.8908 12.3103 6.0308 12.4403C6.3008 12.6803 6.7108 12.6603 6.9508 12.4003L11.3508 7.56465L11.3508 18.4603C11.3508 18.8193 11.6418 19.1103 12.0008 19.1103C12.3598 19.1103 12.6508 18.8193 12.6508 18.4603L12.6508 7.56465L17.0508 12.4003C17.2908 12.6703 17.7008 12.6803 17.9708 12.4403C18.2308 12.2003 18.2508 11.7903 18.0108 11.5203L12.5208 5.4803C12.2408 5.1703 11.7608 5.1703 11.4808 5.4803L5.9908 11.5203C5.8708 11.6503 5.8208 11.8003 5.8208 11.9603Z" fill="#626F84"/>
</svg>
