<svg width="24" height="24" viewBox="0 0 24 24" fill="none" xmlns="http://www.w3.org/2000/svg">
<path d="M8.39178 11.5625C8.57178 11.5625 8.74178 11.4925 8.87178 11.3525C9.11178 11.0825 9.09177 10.6725 8.83177 10.4325L7.27733 8.95005L17.3535 8.96714C17.7129 8.96775 18.0046 8.67654 18.0046 8.31711C18.0046 7.95857 17.7143 7.66773 17.3558 7.667C13.9959 7.66012 10.641 7.64702 7.28121 7.64702L8.83177 6.27252C9.10178 6.03252 9.11178 5.62252 8.87178 5.35252C8.63178 5.09252 8.22178 5.07252 7.95178 5.31252L5.24178 7.77702C4.93178 8.05702 4.93178 8.53702 5.24178 8.81702L7.95178 11.3925C8.08178 11.5125 8.23178 11.5625 8.39178 11.5625Z" fill="#626F84"/>
<path d="M15.6259 18.911C15.4459 18.911 15.2759 18.841 15.1459 18.701C14.9059 18.431 14.9259 18.021 15.1859 17.781L16.7403 16.2986L6.66012 16.3157C6.30069 16.3163 6.00899 16.0251 6.00899 15.6657C6.00899 15.3071 6.29931 15.0163 6.65786 15.0156C10.019 15.0096 13.3753 14.9955 16.7364 14.9955L15.1859 13.621C14.9159 13.381 14.9059 12.971 15.1459 12.701C15.3859 12.441 15.7959 12.421 16.0659 12.661L18.7759 15.1255C19.0859 15.4055 19.0859 15.8855 18.7759 16.1655L16.0659 18.741C15.9359 18.861 15.7859 18.911 15.6259 18.911Z" fill="#626F84"/>
</svg>
