<svg width="24" height="24" viewBox="0 0 24 24" fill="none" xmlns="http://www.w3.org/2000/svg">
<path fill-rule="evenodd" clip-rule="evenodd" d="M20.9578 0.69702C20.9578 0.460708 20.8295 0.243012 20.6228 0.128474C20.4161 0.013936 20.1635 0.0206021 19.9632 0.145884L17.3084 1.80577C17.004 1.99609 16.9116 2.39712 17.1019 2.7015C17.2922 3.00589 17.6932 3.09836 17.9976 2.90804L19.6578 1.87003V7.37652C19.6578 7.73551 19.9488 8.02653 20.3078 8.02653C20.6668 8.02653 20.9578 7.73551 20.9578 7.37652V0.69702ZM6.03031 11.0201C5.89031 11.1501 5.82031 11.3201 5.82031 11.5001C5.82031 11.6601 5.87031 11.8101 5.99031 11.9401L11.4803 17.9801C11.7603 18.2901 12.2403 18.2901 12.5203 17.9801L18.0103 11.9401C18.2503 11.6701 18.2303 11.2601 17.9703 11.0201C17.7003 10.7801 17.2903 10.7901 17.0503 11.0601L12.6503 15.8957L12.6503 5.0001C12.6503 4.64111 12.3593 4.3501 12.0003 4.3501C11.6413 4.3501 11.3503 4.64111 11.3503 5.0001L11.3503 15.8957L6.95031 11.0601C6.71031 10.8001 6.30031 10.7801 6.03031 11.0201Z" fill="#626F84"/>
</svg>
