<svg width="24" height="24" viewBox="0 0 24 24" fill="none" xmlns="http://www.w3.org/2000/svg">
<path fill-rule="evenodd" clip-rule="evenodd" d="M19.4657 1.79678C19.9488 1.27099 20.8028 1.36227 21.1639 1.97831C21.4001 2.3812 21.3453 2.89109 21.029 3.23468L17.6214 6.93636C17.4466 7.12619 17.4007 7.40141 17.5044 7.63769C17.608 7.87398 17.8416 8.02659 18.0996 8.02659H22.3654C22.7244 8.02659 23.0154 7.73558 23.0154 7.37659C23.0154 7.01761 22.7244 6.72659 22.3654 6.72659H19.5815L21.9855 4.11515C22.6889 3.35098 22.8107 2.21695 22.2854 1.32089C21.4823 -0.0492036 19.583 -0.252223 18.5084 0.917166L18.1196 1.34025C17.8768 1.60458 17.8941 2.01577 18.1585 2.25867C18.4228 2.50157 18.834 2.48419 19.0769 2.21986L19.4657 1.79678ZM6.0308 11.02C5.8908 11.15 5.8208 11.32 5.8208 11.5C5.8208 11.66 5.8708 11.81 5.9908 11.94L11.4808 17.98C11.7608 18.29 12.2408 18.29 12.5208 17.98L18.0108 11.94C18.2508 11.67 18.2308 11.26 17.9708 11.02C17.7008 10.78 17.2908 10.79 17.0508 11.06L12.6508 15.8956L12.6508 4.99998C12.6508 4.64099 12.3598 4.34998 12.0008 4.34998C11.6418 4.34998 11.3508 4.64099 11.3508 4.99998L11.3508 15.8956L6.9508 11.06C6.7108 10.8 6.3008 10.78 6.0308 11.02Z" fill="#626F84"/>
</svg>
