<svg width="24" height="24" viewBox="0 0 24 24" fill="none" xmlns="http://www.w3.org/2000/svg">
<path d="M5.8208 11.5C5.8208 11.32 5.8908 11.15 6.0308 11.02C6.3008 10.78 6.7108 10.8 6.9508 11.06L11.3508 15.8956L11.3508 4.99999C11.3508 4.64101 11.6418 4.34999 12.0008 4.34999C12.3598 4.34999 12.6508 4.64101 12.6508 4.99999L12.6508 15.8956L17.0508 11.06C17.2908 10.79 17.7008 10.78 17.9708 11.02C18.2308 11.26 18.2508 11.67 18.0108 11.94L12.5208 17.98C12.2408 18.29 11.7608 18.29 11.4808 17.98L5.9908 11.94C5.8708 11.81 5.8208 11.66 5.8208 11.5Z" fill="#626F84"/>
</svg>
