<svg width="24" height="24" viewBox="0 0 24 24" fill="none" xmlns="http://www.w3.org/2000/svg">
<path d="M5.31205 12.4403C5.17205 12.3103 5.10205 12.1403 5.10205 11.9603C5.10205 11.8003 5.15205 11.6503 5.27205 11.5203L10.7621 5.48034C11.0421 5.17034 11.522 5.17034 11.8021 5.48034L17.292 11.5203C17.532 11.7903 17.512 12.2003 17.252 12.4403C16.982 12.6803 16.572 12.6703 16.332 12.4003L11.9321 7.5647L11.9321 18.4603C11.9321 18.8193 11.641 19.1103 11.2821 19.1103C10.9231 19.1103 10.6321 18.8193 10.6321 18.4603L10.6321 7.56469L6.23205 12.4003C5.99205 12.6603 5.58205 12.6803 5.31205 12.4403Z" fill="#626F84"/>
</svg>
