<svg width="24" height="24" viewBox="0 0 24 24" fill="none" xmlns="http://www.w3.org/2000/svg">
<path d="M6.0308 12.4403C5.8908 12.3103 5.8208 12.1403 5.8208 11.9603C5.8208 11.8003 5.8708 11.6503 5.9908 11.5203L11.4808 5.48034C11.7608 5.17034 12.2408 5.17034 12.5208 5.48034L18.0108 11.5203C18.2508 11.7903 18.2308 12.2003 17.9708 12.4403C17.7008 12.6803 17.2908 12.6703 17.0508 12.4003L12.6508 7.5647L12.6508 18.4603C12.6508 18.8193 12.3598 19.1103 12.0008 19.1103C11.6418 19.1103 11.3508 18.8193 11.3508 18.4603L11.3508 7.56469L6.9508 12.4003C6.7108 12.6603 6.3008 12.6803 6.0308 12.4403Z" fill="#626F84"/>
</svg>
