<svg width="24" height="24" viewBox="0 0 24 24" fill="none" xmlns="http://www.w3.org/2000/svg">
<path fill-rule="evenodd" clip-rule="evenodd" d="M4.35176 11.9175C4.35176 7.69617 7.77385 4.27408 11.9952 4.27408C16.2166 4.27408 19.6387 7.69617 19.6387 11.9175V12.2571C19.6387 13.2081 18.8677 13.9791 17.9166 13.9791C16.9655 13.9791 16.1945 13.2081 16.1945 12.2571V8.52681C16.1945 8.16782 15.9035 7.87681 15.5445 7.87681C15.1855 7.87681 14.8945 8.16782 14.8945 8.52681V8.91606C14.1437 8.19064 13.1215 7.74434 11.9951 7.74434C9.69028 7.74434 7.82188 9.61275 7.82188 11.9175C7.82188 14.2223 9.69028 16.0907 11.9951 16.0907C13.4904 16.0907 14.802 15.3043 15.5388 14.1225C16.0921 14.8268 16.9515 15.2791 17.9166 15.2791C19.5857 15.2791 20.9387 13.9261 20.9387 12.2571V11.9175C20.9387 6.9782 16.9346 2.97408 11.9952 2.97408C7.05588 2.97408 3.05176 6.9782 3.05176 11.9175C3.05176 16.8552 7.02123 20.861 11.9952 20.861C14.8383 20.861 16.8864 19.7268 18.1088 18.7663C18.3911 18.5445 18.4401 18.1358 18.2183 17.8536C17.9965 17.5713 17.5878 17.5223 17.3056 17.7441C16.2454 18.5772 14.472 19.561 11.9952 19.561C7.74257 19.561 4.35176 16.1406 4.35176 11.9175ZM14.8683 11.9175C14.8683 13.5044 13.5819 14.7907 11.9951 14.7907C10.4083 14.7907 9.12187 13.5044 9.12187 11.9175C9.12187 10.3307 10.4083 9.04434 11.9951 9.04434C13.5819 9.04434 14.8683 10.3307 14.8683 11.9175Z" fill="#626F84"/>
</svg>
