<svg width="24" height="24" viewBox="0 0 24 24" fill="none" xmlns="http://www.w3.org/2000/svg">
<path fill-rule="evenodd" clip-rule="evenodd" d="M21 12C21 16.9706 16.9706 21 12 21C7.02944 21 3 16.9706 3 12C3 7.02944 7.02944 3 12 3C16.9706 3 21 7.02944 21 12ZM11.9959 5.78885C8.61108 5.78885 5.86717 8.53276 5.86717 11.9175C5.86717 15.304 8.58582 18.0462 11.9959 18.0462C13.9868 18.0462 15.4112 17.2558 16.2629 16.5865C16.5452 16.3647 16.9538 16.4138 17.1756 16.696C17.3974 16.9783 17.3484 17.3869 17.0662 17.6087C16.0523 18.4055 14.3531 19.3462 11.9959 19.3462C7.86448 19.3462 4.56717 16.0186 4.56717 11.9175C4.56717 7.81479 7.89311 4.48886 11.9959 4.48886C16.0986 4.48886 19.4245 7.81479 19.4245 11.9175V12.1951C19.4245 13.6248 18.2655 14.7839 16.8357 14.7839C16.0236 14.7839 15.2989 14.41 14.8242 13.8249C14.2112 14.7321 13.1732 15.3285 11.9959 15.3285C10.1121 15.3285 8.58496 13.8014 8.58496 11.9175C8.58496 10.0337 10.1121 8.50656 11.9959 8.50656C12.8585 8.50656 13.6462 8.82671 14.2469 9.35467V9.14612C14.2469 8.78713 14.5379 8.49612 14.8969 8.49612C15.2559 8.49612 15.5469 8.78713 15.5469 9.14612V12.1951C15.5469 12.9069 16.1239 13.4839 16.8357 13.4839C17.5475 13.4839 18.1245 12.9069 18.1245 12.1951V11.9175C18.1245 8.53276 15.3806 5.78885 11.9959 5.78885ZM14.1069 11.9175C14.1069 13.0834 13.1618 14.0285 11.9959 14.0285C10.8301 14.0285 9.88496 13.0834 9.88496 11.9175C9.88496 10.7517 10.8301 9.80656 11.9959 9.80656C13.1618 9.80656 14.1069 10.7517 14.1069 11.9175Z" fill="#626F84"/>
</svg>
