<svg width="24" height="24" viewBox="0 0 24 24" fill="none" xmlns="http://www.w3.org/2000/svg">
<path fill-rule="evenodd" clip-rule="evenodd" d="M15.856 5.21178C14.9383 4.29405 13.4503 4.29405 12.5326 5.21178L6.38078 11.3636C4.95537 12.789 4.95537 15.1001 6.38078 16.5255L7.72428 17.869C9.1497 19.2944 11.4607 19.2944 12.8862 17.869L18.6844 12.0707C18.9383 11.8169 19.3498 11.8169 19.6037 12.0707C19.8575 12.3246 19.8575 12.7361 19.6037 12.99L13.8054 18.7882C11.8723 20.7213 8.73814 20.7213 6.80504 18.7882L5.46154 17.4447C3.52845 15.5116 3.52844 12.3775 5.46154 10.4444L11.6134 4.29254C13.0388 2.86713 15.3498 2.86713 16.7752 4.29254L17.4824 4.99965C18.9078 6.42506 18.9078 8.73611 17.4824 10.1615L11.6841 15.9598C10.9226 16.7213 9.68789 16.7213 8.92636 15.9598L8.28997 15.3234C7.52845 14.5619 7.52844 13.3272 8.28997 12.5657L13.7347 7.12097C13.9885 6.86713 14.4001 6.86713 14.6539 7.12097C14.9078 7.37481 14.9078 7.78637 14.6539 8.04021L9.20921 13.4849C8.95536 13.7388 8.95537 14.1503 9.20921 14.4042L9.8456 15.0406C10.0994 15.2944 10.511 15.2944 10.7648 15.0406L16.5631 9.24229C17.4808 8.32456 17.4808 6.83662 16.5631 5.91889L15.856 5.21178Z" fill="#717681"/>
</svg>
