<svg width="24" height="24" viewBox="0 0 24 24" fill="none" xmlns="http://www.w3.org/2000/svg">
<path fill-rule="evenodd" clip-rule="evenodd" d="M7.46826 3.99998V2.65C7.46826 2.29102 7.75928 2 8.11826 2C8.47725 2 8.76826 2.29101 8.76826 2.65V3.99998H11.3501V2.65C11.3501 2.29102 11.6411 2 12.0001 2C12.3591 2 12.6501 2.29101 12.6501 2.65V3.99998H15.2324V2.65C15.2324 2.29102 15.5234 2 15.8824 2C16.2414 2 16.5324 2.29101 16.5324 2.65V3.99998H17C18.6569 3.99998 20 5.34312 20 6.99998V11.4018C20 11.7608 19.709 12.0518 19.35 12.0518C18.991 12.0518 18.7 11.7608 18.7 11.4018V10.6274H5.3V17C5.3 17.9389 6.06112 18.7 7 18.7H9.88506C10.244 18.7 10.5351 18.991 10.5351 19.35C10.5351 19.709 10.244 20 9.88506 20H7C5.34315 20 4 18.6568 4 17V6.99998C4 5.34312 5.34315 3.99998 7 3.99998H7.46826ZM8.11826 7.51536C7.75928 7.51536 7.46826 7.22434 7.46826 6.86536V5.29998H7C6.06112 5.29998 5.3 6.06109 5.3 6.99998V9.32737H18.7V6.99998C18.7 6.06109 17.9389 5.29998 17 5.29998H16.5324V6.86536C16.5324 7.22434 16.2414 7.51536 15.8824 7.51536C15.5234 7.51536 15.2324 7.22434 15.2324 6.86536V5.29998H12.6501V6.86536C12.6501 7.22434 12.3591 7.51536 12.0001 7.51536C11.6411 7.51536 11.3501 7.22434 11.3501 6.86536V5.29998H8.76826V6.86536C8.76826 7.22434 8.47725 7.51536 8.11826 7.51536Z" fill="#717681"/>
<path d="M15.272 18.5754L14.4228 17.7413C14.5248 19.3977 15.9004 20.7095 17.5825 20.7095C19.3309 20.7095 20.7482 19.2921 20.7482 17.5437C20.7482 15.7953 19.3309 14.378 17.5825 14.378C17.2176 14.378 16.8684 14.4394 16.5439 14.5521C16.2047 14.6698 15.8344 14.4903 15.7167 14.1512C15.599 13.812 15.7785 13.4417 16.1176 13.324C16.5773 13.1644 17.0705 13.078 17.5825 13.078C20.0488 13.078 22.0482 15.0774 22.0482 17.5437C22.0482 20.0101 20.0488 22.0095 17.5825 22.0095C15.2428 22.0095 13.3234 20.2103 13.1323 17.92L12.4639 18.6006C12.2123 18.8567 11.8008 18.8604 11.5447 18.6088C11.2886 18.3573 11.2849 17.9457 11.5364 17.6896L13.3834 15.8093C13.6349 15.5532 14.0465 15.5495 14.3026 15.801L16.1829 17.648C16.439 17.8996 16.4427 18.3111 16.1912 18.5672C15.9396 18.8233 15.5281 18.827 15.272 18.5754Z" fill="#717681"/>
</svg>
