<svg width="24" height="24" viewBox="0 0 24 24" fill="none" xmlns="http://www.w3.org/2000/svg">
<path d="M8.78998 2.59995C8.78998 2.24097 8.49897 1.94995 8.13998 1.94995C7.781 1.94995 7.48998 2.24097 7.48998 2.59995V3.98996H7C5.34 3.98996 4 5.32996 4 6.98996V8.64996C4 9.03996 4.31 9.34996 4.7 9.34996H19.3C19.69 9.34996 20 9.03996 20 8.64996V6.98996C20 5.32996 18.65 3.98996 17 3.98996H16.5V2.59995C16.5 2.24097 16.209 1.94995 15.85 1.94995C15.491 1.94995 15.2 2.24097 15.2 2.59995V3.98996H12.65V2.59995C12.65 2.24097 12.359 1.94995 12 1.94995C11.641 1.94995 11.35 2.24097 11.35 2.59995V3.98996H8.78998V2.59995Z" fill="#626F84"/>
<path d="M4.7 10.6274H19.3C19.68 10.6274 20 10.9374 20 11.3274V12.3186C20 12.5267 19.7929 12.672 19.5927 12.6149C19.0625 12.4638 18.5028 12.383 17.9242 12.383C14.5686 12.383 11.8484 15.1032 11.8484 18.4588C11.8484 18.8563 11.8866 19.245 11.9595 19.6212C11.9968 19.8141 11.8536 20 11.6571 20H7C5.34315 20 4 18.6569 4 17V11.3274C4 10.9374 4.31 10.6274 4.7 10.6274Z" fill="#626F84"/>
<path d="M15.6123 18.6059L16.1128 19.0975C16.3689 19.3491 16.7804 19.3454 17.032 19.0893C17.2835 18.8332 17.2799 18.4217 17.0237 18.1701L15.4457 16.62C15.1895 16.3685 14.778 16.3722 14.5265 16.6283L12.9764 18.2064C12.7248 18.4625 12.7285 18.874 12.9846 19.1256C13.2407 19.3771 13.6523 19.3734 13.9038 19.1173L14.3113 18.7025C14.5762 20.5719 16.1829 22.0095 18.1254 22.0095C20.253 22.0095 21.9778 20.2847 21.9778 18.1571C21.9778 16.0295 20.253 14.3047 18.1254 14.3047C17.6839 14.3047 17.2584 14.3792 16.8617 14.5169C16.5226 14.6347 16.3431 15.005 16.4608 15.3441C16.5785 15.6833 16.9488 15.8628 17.288 15.7451C17.5494 15.6543 17.8309 15.6047 18.1254 15.6047C19.535 15.6047 20.6778 16.7475 20.6778 18.1571C20.6778 19.5668 19.535 20.7095 18.1254 20.7095C16.8688 20.7095 15.8244 19.8016 15.6123 18.6059Z" fill="#626F84"/>
</svg>
