<svg width="24" height="24" viewBox="0 0 24 24" fill="none" xmlns="http://www.w3.org/2000/svg">
<path fill-rule="evenodd" clip-rule="evenodd" d="M7.46826 4.00001V2.65003C7.46826 2.29105 7.75928 2.00003 8.11826 2.00003C8.47725 2.00003 8.76826 2.29105 8.76826 2.65003V4.00001H11.3501V2.65003C11.3501 2.29105 11.6411 2.00003 12.0001 2.00003C12.3591 2.00003 12.6501 2.29105 12.6501 2.65003V4.00001H15.2324V2.65003C15.2324 2.29105 15.5234 2.00003 15.8824 2.00003C16.2414 2.00003 16.5324 2.29105 16.5324 2.65003V4.00001H17C18.6569 4.00001 20 5.34315 20 7.00001V11.4019C20 11.7609 19.709 12.0519 19.35 12.0519C18.991 12.0519 18.7 11.7609 18.7 11.4019V10.6274H5.3V17C5.3 17.9389 6.06112 18.7 7 18.7H9.88506C10.244 18.7 10.5351 18.991 10.5351 19.35C10.5351 19.709 10.244 20 9.88506 20H7C5.34315 20 4 18.6569 4 17V7.00001C4 5.34315 5.34315 4.00001 7 4.00001H7.46826ZM8.11826 7.51539C7.75928 7.51539 7.46826 7.22437 7.46826 6.86539V5.30001H7C6.06112 5.30001 5.3 6.06112 5.3 7.00001V9.3274H18.7V7.00001C18.7 6.06112 17.9389 5.30001 17 5.30001H16.5324V6.86539C16.5324 7.22437 16.2414 7.51539 15.8824 7.51539C15.5234 7.51539 15.2324 7.22437 15.2324 6.86539V5.30001H12.6501V6.86539C12.6501 7.22437 12.3591 7.51539 12.0001 7.51539C11.6411 7.51539 11.3501 7.22437 11.3501 6.86539V5.30001H8.76826V6.86539C8.76826 7.22437 8.47725 7.51539 8.11826 7.51539Z" fill="#626F84"/>
<path d="M15.272 18.5755L14.4228 17.7413C14.5248 19.3977 15.9004 20.7095 17.5825 20.7095C19.3309 20.7095 20.7482 19.2922 20.7482 17.5438C20.7482 15.7954 19.3309 14.378 17.5825 14.378C17.2176 14.378 16.8684 14.4395 16.5439 14.5521C16.2047 14.6698 15.8344 14.4903 15.7167 14.1512C15.599 13.8121 15.7785 13.4417 16.1176 13.324C16.5773 13.1644 17.0705 13.078 17.5825 13.078C20.0488 13.078 22.0482 15.0774 22.0482 17.5438C22.0482 20.0101 20.0488 22.0095 17.5825 22.0095C15.2428 22.0095 13.3234 20.2103 13.1323 17.9201L12.4639 18.6006C12.2123 18.8567 11.8008 18.8604 11.5447 18.6089C11.2886 18.3573 11.2849 17.9458 11.5364 17.6897L13.3834 15.8093C13.6349 15.5532 14.0465 15.5495 14.3026 15.8011L16.1829 17.648C16.439 17.8996 16.4427 18.3111 16.1912 18.5672C15.9396 18.8233 15.5281 18.827 15.272 18.5755Z" fill="#626F84"/>
</svg>
