<svg width="24" height="24" viewBox="0 0 24 24" fill="none" xmlns="http://www.w3.org/2000/svg">
<path fill-rule="evenodd" clip-rule="evenodd" d="M4.38181 2.20692C4.66633 1.98801 5.07443 2.0412 5.29334 2.32572L8.06777 5.93172C9.0352 5.28871 10.1964 4.91407 11.4451 4.91407C14.4774 4.91407 16.9937 7.12326 17.4723 10.0199C17.4789 10.0599 17.5136 10.0893 17.554 10.0893C20.0079 10.0893 21.9971 12.0785 21.9971 14.5323C21.9971 16.8083 20.2858 18.6845 18.0798 18.9446L19.5944 20.9131C19.8133 21.1976 19.7601 21.6057 19.4756 21.8246C19.191 22.0435 18.7829 21.9904 18.564 21.7058L4.26301 3.11845C4.0441 2.83393 4.09729 2.42583 4.38181 2.20692ZM17.1033 17.6754L17.554 17.6754C19.2899 17.6754 20.6971 16.2682 20.6971 14.5323C20.6971 12.7965 19.2899 11.3893 17.554 11.3893C16.8767 11.3893 16.2999 10.8988 16.1897 10.2318C15.8131 7.95259 13.8309 6.21407 11.4451 6.21407C10.4948 6.21407 9.60896 6.48968 8.86302 6.96532L17.1033 17.6754Z" fill="#717681"/>
<path d="M5.33594 11.0232C5.33594 9.8483 5.66762 8.75082 6.24247 7.81934L7.10756 8.94371C6.80528 9.57307 6.63594 10.2784 6.63594 11.0232C6.63594 11.3361 6.66563 11.6407 6.72199 11.9349C6.89164 12.8205 6.20468 13.6108 5.33569 13.6108C4.2133 13.6108 3.30342 14.5207 3.30342 15.6431C3.30342 16.7655 4.2133 17.6754 5.33569 17.6754L5.33955 17.6754L5.34194 17.6754L13.8256 17.6754L14.8259 18.9754L5.33569 18.9754C3.49533 18.9754 2.00342 17.4835 2.00342 15.6431C2.00342 13.8027 3.49533 12.3108 5.33569 12.3108C5.40499 12.3108 5.45825 12.2476 5.44521 12.1795C5.37349 11.8051 5.33594 11.4186 5.33594 11.0232Z" fill="#717681"/>
</svg>
