<svg width="24" height="24" viewBox="0 0 24 24" fill="none" xmlns="http://www.w3.org/2000/svg">
<path d="M4.38181 2.20692C4.66633 1.98801 5.07443 2.0412 5.29334 2.32572L8.06789 5.93188C9.0353 5.28892 10.1965 4.91431 11.4451 4.91431C14.3028 4.91431 16.7021 6.87636 17.3696 9.52681C17.4341 9.78283 17.6158 9.99759 17.8665 10.0804C17.9193 10.0978 17.9742 10.1088 18.0294 10.1147C20.2597 10.3519 21.9971 12.2394 21.9971 14.5326C21.9971 16.8085 20.2859 18.6847 18.08 18.9448L19.5944 20.9131C19.8133 21.1976 19.7601 21.6057 19.4756 21.8246C19.191 22.0435 18.7829 21.9904 18.564 21.7058L4.26301 3.11845C4.0441 2.83393 4.09729 2.42583 4.38181 2.20692Z" fill="#717681"/>
<path d="M5.33594 11.0235C5.33594 9.84854 5.66762 8.75106 6.24247 7.81959L14.8261 18.9759H5.33609C3.49572 18.9759 2.00342 17.4837 2.00342 15.6433C2.00342 13.9654 3.24364 12.5771 4.85741 12.3451C4.89394 12.3399 4.93018 12.3319 4.96521 12.3203C5.23815 12.2302 5.39923 11.952 5.36934 11.6662C5.34726 11.455 5.33594 11.2405 5.33594 11.0235Z" fill="#717681"/>
</svg>
