<svg width="24" height="24" viewBox="0 0 24 24" fill="none" xmlns="http://www.w3.org/2000/svg">
<path fill-rule="evenodd" clip-rule="evenodd" d="M9.97841 5.08343C10.1073 4.84512 9.90384 4.55061 9.6449 4.63033C6.47501 5.60621 4.17109 8.55814 4.17109 12.0482C4.17109 16.334 7.64543 19.8083 11.9312 19.8083C15.4012 19.8083 18.341 17.5298 19.3329 14.3874C19.4145 14.129 19.1215 13.9235 18.8823 14.0507C17.9594 14.5414 16.9058 14.8199 15.7877 14.8199C12.1422 14.8199 9.18704 11.8647 9.18704 8.2193C9.18704 7.08448 9.47397 6.01613 9.97841 5.08343ZM20.8305 11.62C20.7113 11.484 20.5364 11.3982 20.3414 11.3982C20.1286 11.3982 19.9398 11.5004 19.8212 11.6584C19.8086 11.6752 19.795 11.6913 19.7806 11.7065C19.7744 11.7129 19.7683 11.7195 19.7624 11.7263C18.7911 12.8262 17.3704 13.5199 15.7877 13.5199C12.8602 13.5199 10.487 11.1468 10.487 8.2193C10.487 6.63896 11.1786 5.22015 12.2757 4.24902C12.3338 4.19756 12.3821 4.138 12.4207 4.07336C12.4301 4.05772 12.4403 4.04263 12.4513 4.02806C12.5329 3.91942 12.5812 3.78437 12.5812 3.63804C12.5812 3.45335 12.5042 3.28665 12.3805 3.16832C12.3065 3.08375 12.2072 3.0245 12.0839 3.00606C12.0349 2.99428 11.9838 2.98804 11.9312 2.98804C6.92746 2.98804 2.87109 7.0444 2.87109 12.0482C2.87109 17.052 6.92746 21.1083 11.9312 21.1083C16.4384 21.1083 20.177 17.8171 20.8746 13.5068C20.9572 13.0169 21.0002 12.5134 21.0002 12C21.0002 11.837 20.9341 11.7096 20.8305 11.62Z" fill="#626F84"/>
</svg>
