<svg width="24" height="24" viewBox="0 0 24 24" fill="none" xmlns="http://www.w3.org/2000/svg">
<path fill-rule="evenodd" clip-rule="evenodd" d="M12.4344 4.04961C12.3936 4.12342 12.3409 4.19132 12.2757 4.24902C11.1786 5.22015 10.487 6.63896 10.487 8.2193C10.487 11.1468 12.8602 13.5199 15.7877 13.5199C17.3704 13.5199 18.7911 12.8262 19.7624 11.7263C19.7754 11.7116 19.7889 11.6975 19.8028 11.6841C19.9197 11.5116 20.1173 11.3982 20.3414 11.3982C20.5364 11.3982 20.7113 11.484 20.8305 11.62C20.9341 11.7096 21.0002 11.837 21.0002 12C21.0002 12.5134 20.9572 13.0169 20.8746 13.5068C20.177 17.8171 16.4384 21.1083 11.9312 21.1083C6.92746 21.1083 2.87109 17.052 2.87109 12.0482C2.87109 7.0444 6.92746 2.98804 11.9312 2.98804C11.9838 2.98804 12.0349 2.99428 12.0839 3.00606C12.2072 3.0245 12.3065 3.08375 12.3805 3.16832C12.5042 3.28665 12.5812 3.45335 12.5812 3.63804C12.5812 3.79421 12.5262 3.93753 12.4344 4.04961Z" fill="#626F84"/>
</svg>
