<svg width="24" height="24" viewBox="0 0 24 24" fill="none" xmlns="http://www.w3.org/2000/svg">
<path d="M7.99906 7.51626C7.85906 7.64626 7.78906 7.81626 7.78906 7.99626C7.78906 8.15626 7.83906 8.30626 7.95906 8.43626L11.5453 12.4194C11.8253 12.7294 12.3053 12.7294 12.5853 12.4194L16.0431 8.44016C16.2831 8.17016 16.2631 7.76016 16.0031 7.52016C15.7331 7.28016 15.3231 7.29016 15.0831 7.56016L12.0653 11.0494L8.91906 7.55626C8.67906 7.29626 8.26906 7.27626 7.99906 7.51626Z" fill="#626F84"/>
<path d="M7.99906 11.5163C7.85906 11.6463 7.78906 11.8163 7.78906 11.9963C7.78906 12.1563 7.83906 12.3063 7.95906 12.4363L11.5453 16.4194C11.8253 16.7294 12.3053 16.7294 12.5853 16.4194L16.0431 12.4402C16.2831 12.1702 16.2631 11.7602 16.0031 11.5202C15.7331 11.2802 15.3231 11.2902 15.0831 11.5602L12.0653 15.0494L8.91906 11.5563C8.67906 11.2963 8.26906 11.2763 7.99906 11.5163Z" fill="#626F84"/>
</svg>
