<svg width="24" height="24" viewBox="0 0 24 24" fill="none" xmlns="http://www.w3.org/2000/svg">
<path d="M8.51681 7.99888C8.64681 7.85888 8.81681 7.78888 8.99681 7.78888C9.15681 7.78888 9.30681 7.83888 9.43681 7.95888L13.4199 11.5451C13.7299 11.8251 13.7299 12.3051 13.4199 12.5851L9.44071 16.0429C9.17071 16.2829 8.76071 16.2629 8.52071 16.0029C8.28071 15.7329 8.29071 15.3229 8.56071 15.0829L12.0499 12.0651L8.55681 8.91888C8.29681 8.67888 8.27681 8.26888 8.51681 7.99888Z" fill="#626F84"/>
<path d="M12.5168 7.99888C12.6468 7.85888 12.8168 7.78888 12.9968 7.78888C13.1568 7.78888 13.3068 7.83888 13.4368 7.95888L17.4199 11.5451C17.7299 11.8251 17.7299 12.3051 17.4199 12.5851L13.4407 16.0429C13.1707 16.2829 12.7607 16.2629 12.5207 16.0029C12.2807 15.7329 12.2907 15.3229 12.5607 15.0829L16.0499 12.0651L12.5568 8.91888C12.2968 8.67888 12.2768 8.26888 12.5168 7.99888Z" fill="#626F84"/>
</svg>
