<svg width="24" height="24" viewBox="0 0 24 24" fill="none" xmlns="http://www.w3.org/2000/svg">
<path fill-rule="evenodd" clip-rule="evenodd" d="M3 12C3 7.02944 7.02944 3 12 3C16.9706 3 21 7.02944 21 12C21 16.9706 16.9706 21 12 21C7.02944 21 3 16.9706 3 12ZM15.3312 13.0378C15.3312 12.8578 15.2612 12.6878 15.1212 12.5578C14.8512 12.3178 14.4412 12.3378 14.2012 12.5978L11.9533 15.0976L9.79702 12.602C9.55702 12.332 9.14702 12.322 8.87702 12.562C8.61702 12.802 8.59702 13.212 8.83702 13.482L11.4333 16.4676C11.7133 16.7776 12.1933 16.7776 12.4733 16.4676L15.1612 13.4778C15.2812 13.3478 15.3312 13.1978 15.3312 13.0378ZM15.3312 9.13792C15.3312 8.95792 15.2612 8.78792 15.1212 8.65792C14.8512 8.41792 14.4412 8.43792 14.2012 8.69792L11.9533 11.1977L9.79704 8.70207C9.55704 8.43207 9.14704 8.42207 8.87704 8.66207C8.61704 8.90207 8.59704 9.31207 8.83703 9.58207L11.4333 12.5677C11.7133 12.8777 12.1933 12.8777 12.4733 12.5677L15.1612 9.57792C15.2812 9.44792 15.3312 9.29792 15.3312 9.13792Z" fill="#626F84"/>
</svg>
