<svg width="24" height="24" viewBox="0 0 24 24" fill="none" xmlns="http://www.w3.org/2000/svg">
<path d="M14.1008 4.1989C15.8145 5.47064 17.673 6.66062 19.3316 8.02296C19.6741 8.3043 19.6533 8.82872 19.299 9.09498L13.5618 13.4056C12.6366 14.1007 11.3634 14.1007 10.4382 13.4056L10.0506 13.1144C10.0233 13.09 9.99435 13.0684 9.96404 13.0493L4.69881 9.09332C4.34445 8.82708 4.32369 8.30269 4.66503 8.01995C6.27669 6.68497 8.05581 5.49524 9.71069 4.22892C11.0038 3.24161 12.7943 3.22937 14.1008 4.1989Z" fill="#626F84"/>
<path d="M4.23265 10.3691C3.73026 9.99165 3 10.1987 3 10.8271V17.4952C3 19.1552 4.34 20.4952 6 20.4952H18C19.66 20.4952 21 19.1552 21 17.4952V10.8271C21 10.1986 20.2691 9.99209 19.7666 10.3696L15.465 13.6017L18.0091 15.5159C18.296 15.7317 18.3536 16.1392 18.1378 16.4261C17.9219 16.713 17.5144 16.7705 17.2276 16.5547L14.3831 14.4145L14.3427 14.4449C12.9549 15.4876 11.0451 15.4876 9.6573 14.4449L9.61688 14.4146L6.77245 16.5547C6.48559 16.7705 6.07808 16.7129 5.86225 16.4261C5.64642 16.1392 5.704 15.7317 5.99085 15.5159L8.535 13.6017L4.23265 10.3691Z" fill="#626F84"/>
</svg>
