<svg width="24" height="24" viewBox="0 0 24 24" fill="none" xmlns="http://www.w3.org/2000/svg">
<path d="M4.1319 8.645C3.67232 8.28652 3.00157 8.61215 3.00139 9.195C3.00085 11.0144 3 14.1413 3 16C3 17.66 4.34 19 6 19H18C19.66 19 21 17.66 21 16C21 13.7199 21.0511 11.432 21.0248 9.14991C21.0182 8.57996 20.3669 8.26657 19.913 8.61128L15.3407 12.0834L17.9233 14.0264C18.2101 14.2423 18.2677 14.6498 18.0519 14.9366C17.836 15.2235 17.4285 15.2811 17.1417 15.0653L14.2646 12.9006L14.132 13.0013C12.8131 14.0028 10.9854 13.9909 9.67963 12.9724L9.56193 12.8806L9.56056 12.8816L6.65835 15.0653C6.3715 15.2811 5.96399 15.2235 5.74815 14.9366C5.53232 14.6498 5.5899 14.2423 5.87676 14.0264L8.50031 12.0525L4.1319 8.645Z" fill="#626F84"/>
<path d="M3.72052 6.04703C3.4959 6.30912 3.57889 6.69492 3.85106 6.90722L10.4792 12.0774C11.3199 12.7331 12.4967 12.7408 13.3458 12.096L20.1525 6.92701C20.4286 6.71734 20.5159 6.3304 20.292 6.06566C19.7406 5.4135 18.9166 5 18 5H6C5.08668 5 4.27022 5.40564 3.72052 6.04703Z" fill="#626F84"/>
</svg>
