<svg width="25" height="24" viewBox="0 0 25 24" fill="none" xmlns="http://www.w3.org/2000/svg">
<path fill-rule="evenodd" clip-rule="evenodd" d="M12.5 21C17.4706 21 21.5 16.9706 21.5 12C21.5 7.02944 17.4706 3 12.5 3C7.52944 3 3.5 7.02944 3.5 12C3.5 16.9706 7.52944 21 12.5 21ZM15.5 10.1195C15.5 9.70533 15.1642 9.36954 14.75 9.36954C14.3358 9.36954 14 9.70533 14 10.1195C14 10.5338 14.3358 10.8695 14.75 10.8695C15.1642 10.8695 15.5 10.5338 15.5 10.1195ZM12.5006 13.9202C11.5698 13.9202 10.7462 14.3794 10.2439 15.0864C10.036 15.3791 9.63019 15.4477 9.33754 15.2398C9.0449 15.0319 8.97622 14.6261 9.18414 14.3335C9.91985 13.298 11.1311 12.6202 12.5006 12.6202C13.8702 12.6202 15.0814 13.298 15.8171 14.3335C16.025 14.6261 15.9564 15.0319 15.6637 15.2398C15.3711 15.4477 14.9653 15.3791 14.7574 15.0864C14.255 14.3794 13.4314 13.9202 12.5006 13.9202ZM10.25 9.36954C10.6642 9.36954 11 9.70533 11 10.1195C11 10.5338 10.6642 10.8695 10.25 10.8695C9.83579 10.8695 9.5 10.5338 9.5 10.1195C9.5 9.70533 9.83579 9.36954 10.25 9.36954Z" fill="#717681"/>
</svg>
