<svg width="25" height="24" viewBox="0 0 25 24" fill="none" xmlns="http://www.w3.org/2000/svg">
<path d="M8.57959 13.9762C8.57959 14.3352 8.8706 14.6262 9.22959 14.6262H14.8028C15.1618 14.6262 15.4528 14.3352 15.4528 13.9762C15.4528 13.6173 15.1618 13.3262 14.8028 13.3262H9.22959C8.8706 13.3262 8.57959 13.6173 8.57959 13.9762Z" fill="#717681"/>
<path d="M14.2656 9.36954C14.6798 9.36954 15.0156 9.70533 15.0156 10.1195C15.0156 10.5338 14.6798 10.8695 14.2656 10.8695C13.8514 10.8695 13.5156 10.5338 13.5156 10.1195C13.5156 9.70533 13.8514 9.36954 14.2656 9.36954Z" fill="#717681"/>
<path d="M10.5156 10.1195C10.5156 9.70533 10.1798 9.36954 9.76562 9.36954C9.35141 9.36954 9.01562 9.70533 9.01562 10.1195C9.01562 10.5338 9.35141 10.8695 9.76562 10.8695C10.1798 10.8695 10.5156 10.5338 10.5156 10.1195Z" fill="#717681"/>
<path fill-rule="evenodd" clip-rule="evenodd" d="M21.0156 12C21.0156 16.9706 16.9862 21 12.0156 21C7.04506 21 3.01562 16.9706 3.01562 12C3.01562 7.02944 7.04506 3 12.0156 3C16.9862 3 21.0156 7.02944 21.0156 12ZM19.7156 12C19.7156 16.2526 16.2682 19.7 12.0156 19.7C7.76303 19.7 4.31562 16.2526 4.31562 12C4.31562 7.74741 7.76303 4.3 12.0156 4.3C16.2682 4.3 19.7156 7.74741 19.7156 12Z" fill="#717681"/>
</svg>
