<svg width="24" height="24" viewBox="0 0 24 24" fill="none" xmlns="http://www.w3.org/2000/svg">
<path d="M16.0201 10.5103C16.1501 10.6503 16.3201 10.7203 16.5001 10.7203C16.6601 10.7203 16.8101 10.6703 16.9401 10.5503L21.0001 6.72482C21.3101 6.44482 21.3101 5.96482 21.0001 5.68481L16.9801 2.18032C16.7101 1.94032 16.3001 1.96032 16.0601 2.22032C15.8201 2.49032 15.8301 2.90032 16.1001 3.14032L18.9607 5.55481L18.9607 5.57032H15.0001C12.9843 5.57032 11.3501 7.20448 11.3501 9.22032V14C11.3501 14.359 11.6411 14.65 12.0001 14.65C12.3591 14.65 12.6501 14.359 12.6501 14V9.22032C12.6501 7.92245 13.7022 6.87032 15.0001 6.87032H18.9512L16.0601 9.59029C15.8001 9.83029 15.7801 10.2403 16.0201 10.5103Z" fill="#626F84"/>
<path d="M9.35 4C9.70899 4 10 4.29101 10 4.65C10 5.00899 9.70899 5.3 9.35 5.3H8C7.06112 5.3 6.3 6.06112 6.3 7V17C6.3 17.9389 7.06112 18.7 8 18.7H16C16.9389 18.7 17.7 17.9389 17.7 17V12.65C17.7 12.291 17.991 12 18.35 12C18.709 12 19 12.291 19 12.65V17C19 18.6569 17.6569 20 16 20H8C6.34315 20 5 18.6569 5 17V7C5 5.34315 6.34315 4 8 4H9.35Z" fill="#626F84"/>
</svg>
