<svg width="24" height="24" viewBox="0 0 24 24" fill="none" xmlns="http://www.w3.org/2000/svg">
<path d="M3.78477 4.70001C3.42578 4.70001 3.13477 4.99103 3.13477 5.35001C3.13477 5.709 3.42578 6.00001 3.78477 6.00001H4.40683L4.56002 7.26997C4.87002 10.38 6.50001 13 10.2506 14.5V19.738C10.2506 20.1226 10.6667 20.3632 11 20.1713L13.2494 18.8867C13.4045 18.7975 13.5 18.6323 13.5 18.4534V14.5C17 13.5 19.07 10.47 19.39 7.26997C19.39 7.26997 19.4986 6.50992 19.5484 6.00001H20.2126C20.5716 6.00001 20.8626 5.709 20.8626 5.35001C20.8626 4.99103 20.5716 4.70001 20.2126 4.70001H3.78477Z" fill="#626F84"/>
</svg>
