<svg width="24" height="24" viewBox="0 0 24 24" fill="none" xmlns="http://www.w3.org/2000/svg">
<path fill-rule="evenodd" clip-rule="evenodd" d="M3.79014 4.69009C3.43115 4.69009 3.14014 4.98111 3.14014 5.34009C3.14014 5.69908 3.43115 5.99009 3.79014 5.99009H4.40572L4.5601 7.26996C4.8701 10.38 6.9201 13.24 9.6501 14.17V20.0952C9.6501 20.4798 10.0662 20.7204 10.3995 20.5286L13.8295 18.5542C13.9846 18.465 14.0801 18.2997 14.0801 18.1208V14.25C16.9201 13.38 19.0701 10.47 19.3901 7.26996L19.5495 5.99009H20.2101C20.5691 5.99009 20.8601 5.69908 20.8601 5.34009C20.8601 4.98111 20.5691 4.69009 20.2101 4.69009H3.79014ZM18.1001 7.13996L18.2401 5.99996H5.7201L5.8601 7.10996C6.1201 9.79996 7.8501 12.18 10.0701 12.94L10.9501 13.24V18.71L12.7801 17.65V13.28L13.7001 13C15.9801 12.31 17.8301 9.83996 18.1001 7.13996Z" fill="#626F84"/>
</svg>
