<svg width="24" height="24" viewBox="0 0 24 24" fill="none" xmlns="http://www.w3.org/2000/svg">
<path d="M17.0001 12C17.0001 14.7614 14.7615 17 12.0001 17C9.23867 17 7.0001 14.7614 7.0001 12C7.0001 9.23855 9.23867 6.99998 12.0001 6.99998C14.7615 6.99998 17.0001 9.23855 17.0001 12Z" fill="#626F84"/>
<path fill-rule="evenodd" clip-rule="evenodd" d="M12.0002 2.00037C12.3592 2.00037 12.6502 2.2914 12.6502 2.65038L12.6502 5.09765C12.6501 5.45663 12.3591 5.74764 12.0001 5.74763C11.6412 5.74762 11.3501 5.4566 11.3502 5.09762L11.3502 2.65035C11.3502 2.29137 11.6412 2.00036 12.0002 2.00037Z" fill="#626F84"/>
<path fill-rule="evenodd" clip-rule="evenodd" d="M12.0001 21.9996C11.6411 21.9996 11.3501 21.7086 11.3501 21.3496L11.3502 18.9023C11.3502 18.5433 11.6412 18.2523 12.0002 18.2523C12.3591 18.2523 12.6502 18.5433 12.6502 18.9023L12.6501 21.3496C12.6501 21.7086 12.3591 21.9996 12.0001 21.9996Z" fill="#626F84"/>
<path fill-rule="evenodd" clip-rule="evenodd" d="M4.92936 4.92894C5.1832 4.67511 5.59476 4.67512 5.8486 4.92896L7.57904 6.65948C7.83287 6.91332 7.83286 7.32488 7.57902 7.57872C7.32517 7.83255 6.91361 7.83254 6.65978 7.5787L4.92934 5.84818C4.6755 5.59434 4.67551 5.18278 4.92936 4.92894Z" fill="#626F84"/>
<path fill-rule="evenodd" clip-rule="evenodd" d="M19.0708 19.0706C18.817 19.3245 18.4054 19.3244 18.1516 19.0706L16.4212 17.3401C16.1673 17.0862 16.1673 16.6747 16.4212 16.4208C16.675 16.167 17.0866 16.167 17.3404 16.4209L19.0709 18.1514C19.3247 18.4052 19.3247 18.8168 19.0708 19.0706Z" fill="#626F84"/>
<path fill-rule="evenodd" clip-rule="evenodd" d="M2.00049 11.9999C2.0005 11.6409 2.29152 11.3499 2.6505 11.3499L5.09777 11.3499C5.45675 11.3499 5.74776 11.641 5.74775 11.9999C5.74775 12.3589 5.45672 12.6499 5.09774 12.6499L2.65047 12.6499C2.29149 12.6499 2.00048 12.3588 2.00049 11.9999Z" fill="#626F84"/>
<path fill-rule="evenodd" clip-rule="evenodd" d="M21.9997 12C21.9997 12.359 21.7087 12.65 21.3497 12.65L18.9024 12.6499C18.5434 12.6499 18.2524 12.3589 18.2524 11.9999C18.2524 11.6409 18.5435 11.3499 18.9025 11.3499L21.3497 11.35C21.7087 11.35 21.9997 11.641 21.9997 12Z" fill="#626F84"/>
<path fill-rule="evenodd" clip-rule="evenodd" d="M4.92931 19.0708C4.67547 18.817 4.67548 18.4054 4.92933 18.1516L6.65984 16.4212C6.91369 16.1673 7.32525 16.1673 7.57908 16.4212C7.83292 16.675 7.83291 17.0866 7.57906 17.3404L5.84855 19.0709C5.5947 19.3247 5.18314 19.3247 4.92931 19.0708Z" fill="#626F84"/>
<path fill-rule="evenodd" clip-rule="evenodd" d="M19.071 4.92935C19.3248 5.1832 19.3248 5.59475 19.071 5.84859L17.3405 7.57903C17.0866 7.83286 16.675 7.83285 16.4212 7.57901C16.1674 7.32516 16.1674 6.91361 16.4212 6.65977L18.1517 4.92933C18.4056 4.67549 18.8172 4.6755 19.071 4.92935Z" fill="#626F84"/>
</svg>
