<svg width="24" height="24" viewBox="0 0 24 24" fill="none" xmlns="http://www.w3.org/2000/svg">
<path d="M17.0001 12C17.0001 14.7614 14.7615 17 12.0001 17C9.23867 17 7.0001 14.7614 7.0001 12C7.0001 9.23858 9.23867 7.00001 12.0001 7.00001C14.7615 7.00001 17.0001 9.23858 17.0001 12Z" fill="#717681"/>
<path fill-rule="evenodd" clip-rule="evenodd" d="M12.0002 2.0004C12.3592 2.0004 12.6502 2.29143 12.6502 2.65041L12.6502 5.09768C12.6501 5.45666 12.3591 5.74767 12.0001 5.74766C11.6412 5.74765 11.3501 5.45663 11.3502 5.09765L11.3502 2.65038C11.3502 2.2914 11.6412 2.00039 12.0002 2.0004Z" fill="#717681"/>
<path fill-rule="evenodd" clip-rule="evenodd" d="M12.0001 21.9996C11.6411 21.9996 11.3501 21.7086 11.3501 21.3496L11.3502 18.9023C11.3502 18.5434 11.6412 18.2523 12.0002 18.2523C12.3591 18.2524 12.6502 18.5434 12.6502 18.9024L12.6501 21.3496C12.6501 21.7086 12.3591 21.9996 12.0001 21.9996Z" fill="#717681"/>
<path fill-rule="evenodd" clip-rule="evenodd" d="M4.92936 4.92897C5.1832 4.67514 5.59476 4.67515 5.8486 4.92899L7.57904 6.65951C7.83287 6.91336 7.83286 7.32491 7.57902 7.57875C7.32517 7.83258 6.91361 7.83257 6.65978 7.57873L4.92934 5.84821C4.6755 5.59437 4.67551 5.18281 4.92936 4.92897Z" fill="#717681"/>
<path fill-rule="evenodd" clip-rule="evenodd" d="M19.0708 19.0707C18.817 19.3245 18.4054 19.3245 18.1516 19.0706L16.4212 17.3401C16.1673 17.0863 16.1673 16.6747 16.4212 16.4209C16.675 16.167 17.0866 16.1671 17.3404 16.4209L19.0709 18.1514C19.3247 18.4053 19.3247 18.8168 19.0708 19.0707Z" fill="#717681"/>
<path fill-rule="evenodd" clip-rule="evenodd" d="M2.00049 11.9999C2.0005 11.6409 2.29152 11.3499 2.6505 11.3499L5.09777 11.35C5.45675 11.35 5.74776 11.641 5.74775 12C5.74775 12.359 5.45672 12.65 5.09774 12.65L2.65047 12.6499C2.29149 12.6499 2.00048 12.3589 2.00049 11.9999Z" fill="#717681"/>
<path fill-rule="evenodd" clip-rule="evenodd" d="M21.9997 12C21.9997 12.359 21.7087 12.65 21.3497 12.65L18.9024 12.65C18.5434 12.6499 18.2524 12.3589 18.2524 11.9999C18.2524 11.641 18.5435 11.3499 18.9025 11.35L21.3497 11.35C21.7087 11.35 21.9997 11.641 21.9997 12Z" fill="#717681"/>
<path fill-rule="evenodd" clip-rule="evenodd" d="M4.92931 19.0709C4.67547 18.817 4.67548 18.4055 4.92933 18.1516L6.65984 16.4212C6.91369 16.1674 7.32525 16.1674 7.57908 16.4212C7.83292 16.6751 7.83291 17.0866 7.57906 17.3404L5.84855 19.0709C5.5947 19.3247 5.18314 19.3247 4.92931 19.0709Z" fill="#717681"/>
<path fill-rule="evenodd" clip-rule="evenodd" d="M19.071 4.92938C19.3248 5.18323 19.3248 5.59478 19.071 5.84862L17.3405 7.57906C17.0866 7.83289 16.675 7.83289 16.4212 7.57904C16.1674 7.32519 16.1674 6.91364 16.4212 6.6598L18.1517 4.92936C18.4056 4.67552 18.8172 4.67553 19.071 4.92938Z" fill="#717681"/>
</svg>
