<svg width="24" height="24" viewBox="0 0 24 24" fill="none" xmlns="http://www.w3.org/2000/svg">
<path fill-rule="evenodd" clip-rule="evenodd" d="M5.49087 2.25093C5.27195 1.96659 4.86384 1.91345 4.57933 2.13224C4.29482 2.35102 4.24165 2.75889 4.46057 3.04323L18.8585 21.7439C19.0774 22.0283 19.4855 22.0814 19.77 21.8626C20.0546 21.6439 20.1077 21.236 19.8888 20.9516L16.4707 16.5121C18.0171 15.2286 19.0017 13.2925 19.0017 11.1266C19.0017 10.7678 18.7107 10.477 18.3517 10.477C17.9927 10.477 17.7017 10.7678 17.7017 11.1266C17.7017 12.8732 16.9154 14.4363 15.6773 15.4815L14.8128 14.3587C15.7156 13.5734 16.2863 12.4166 16.2863 11.1265V6.28333C16.2863 3.91772 14.3674 2.00001 12.0004 2.00001C9.97563 2.00001 8.27881 3.4032 7.83041 5.28964L5.49087 2.25093ZM9.01449 6.82757L14.018 13.3263C14.6131 12.7808 14.9863 11.9972 14.9863 11.1265V6.28333C14.9863 4.63526 13.6494 3.29923 12.0004 3.29923C10.3513 3.29923 9.01449 4.63526 9.01449 6.28333V6.82757Z" fill="#626F84"/>
<path d="M8.25219 10.0887C8.07748 9.86181 7.71449 9.98536 7.71449 10.2718V11.1265C7.71449 13.4921 9.63335 15.4098 12.0004 15.4098C12.1461 15.4098 12.2211 15.2437 12.1322 15.1282L11.3457 14.1067C11.3043 14.0529 11.2456 14.0153 11.1803 13.9967C9.92998 13.6405 9.01449 12.4904 9.01449 11.1265C9.01449 11.0956 9.00426 11.0656 8.9854 11.0411L8.25219 10.0887Z" fill="#626F84"/>
<path d="M13.4384 16.8248C13.3664 16.7314 13.2465 16.6894 13.1308 16.7127C12.7654 16.7862 12.3873 16.8247 12.0002 16.8247C8.85132 16.8247 6.29867 14.2736 6.29867 11.1266C6.29867 10.7678 6.00765 10.477 5.64867 10.477C5.28968 10.477 4.99867 10.7678 4.99867 11.1266C4.99867 14.7724 7.78851 17.7669 11.351 18.0943L11.3505 18.109L11.3503 18.124V20.6941H8.65023C8.29124 20.6941 8.00023 20.985 8.00023 21.3437C8.00023 21.7025 8.29124 21.9933 8.65023 21.9933H15.3502C15.7092 21.9933 16.0002 21.7025 16.0002 21.3437C16.0002 20.985 15.7092 20.6941 15.3502 20.6941H12.6503V18.124L12.6501 18.1058L12.6497 18.0942C13.0316 18.0591 13.4047 17.9934 13.7663 17.8994C13.9669 17.8473 14.0412 17.6078 13.9148 17.4436L13.4384 16.8248Z" fill="#626F84"/>
</svg>
