<svg width="24" height="24" viewBox="0 0 24 24" fill="none" xmlns="http://www.w3.org/2000/svg">
<path d="M12.0003 2C9.63331 2 7.71445 3.91835 7.71445 6.28476V11.1295C7.71445 13.496 9.63331 15.4143 12.0003 15.4143C14.3674 15.4143 16.2862 13.496 16.2862 11.1295V6.28476C16.2862 3.91835 14.3674 2 12.0003 2Z" fill="#717681"/>
<path d="M6.29854 11.1297C6.29854 10.7708 6.00752 10.4798 5.64854 10.4798C5.28955 10.4798 4.99854 10.7708 4.99854 11.1297C4.99854 14.7766 7.78838 17.7722 11.3509 18.0996C11.3504 18.1095 11.3502 18.1194 11.3502 18.1294V20.7003H8.6501C8.29111 20.7003 8.0001 20.9913 8.0001 21.3502C8.0001 21.7091 8.29111 22 8.6501 22H15.3501C15.7091 22 16.0001 21.7091 16.0001 21.3502C16.0001 20.9913 15.7091 20.7003 15.3501 20.7003H12.6502V18.1294C12.6502 18.1233 12.6501 18.1172 12.6499 18.1112C12.6498 18.1073 12.6497 18.1034 12.6495 18.0996C16.2119 17.772 19.0016 14.7765 19.0016 11.1297C19.0016 10.7708 18.7106 10.4798 18.3516 10.4798C17.9926 10.4798 17.7016 10.7708 17.7016 11.1297C17.7016 14.2777 15.1489 16.8297 12.0001 16.8297C8.85119 16.8297 6.29854 14.2777 6.29854 11.1297Z" fill="#717681"/>
</svg>
