<svg width="24" height="24" viewBox="0 0 24 24" fill="none" xmlns="http://www.w3.org/2000/svg">
<path fill-rule="evenodd" clip-rule="evenodd" d="M12.5998 2.58008C12.5998 2.2211 12.3088 1.93008 11.9498 1.93008C11.5908 1.93008 11.2998 2.2211 11.2998 2.58008V4.62379C9.37148 4.88493 7.76707 6.29302 7.2898 8.22008L5.52484 15.2799H4.7999C4.44092 15.2799 4.1499 15.571 4.1499 15.9299C4.1499 16.2889 4.44092 16.5799 4.7999 16.5799H19.0999C19.4589 16.5799 19.7499 16.2889 19.7499 15.9299C19.7499 15.571 19.4589 15.2799 19.0999 15.2799H18.3748L16.6098 8.22008C16.1325 6.29302 14.5281 4.88493 12.5998 4.62379V2.58008ZM17.0398 15.2799L15.3498 8.54008C14.9598 6.97008 13.5598 5.88008 11.9498 5.88008C10.3398 5.88008 8.93981 6.98008 8.54981 8.54008L6.85984 15.2799H17.0398Z" fill="#626F84"/>
<path d="M10.6497 18.5846C10.6411 18.2258 10.3433 17.9417 9.98439 17.9503C9.6255 17.9588 9.34149 18.2567 9.35004 18.6156C9.38092 19.913 10.5234 20.8501 11.7999 20.8501C13.0763 20.8501 14.2188 19.913 14.2497 18.6156C14.2582 18.2567 13.9742 17.9588 13.6153 17.9503C13.2564 17.9417 12.9586 18.2258 12.95 18.5846C12.9386 19.0664 12.4858 19.5501 11.7999 19.5501C11.1139 19.5501 10.6611 19.0664 10.6497 18.5846Z" fill="#626F84"/>
</svg>
