<svg width="24" height="24" viewBox="0 0 24 24" fill="none" xmlns="http://www.w3.org/2000/svg">
<path fill-rule="evenodd" clip-rule="evenodd" d="M12 3C9.33497 3 7.26365 5.32002 7.56456 7.96802L7.8266 10.274C8.06781 12.3966 9.86377 14 12 14C14.1363 14 15.9322 12.3966 16.1734 10.274L16.4355 7.96803C16.7364 5.32002 14.6651 3 12 3ZM14.8817 10.1272L15.1438 7.82124C15.3571 5.94439 13.889 4.3 12 4.3C10.1111 4.3 8.64297 5.94439 8.85625 7.82124L9.11829 10.1272C9.28484 11.5928 10.5249 12.7 12 12.7C13.4751 12.7 14.7152 11.5928 14.8817 10.1272Z" fill="#717681"/>
<path d="M10.1464 15C7.33419 15 4.89931 16.9532 4.28926 19.6984L4.18932 20.1481C4.09217 20.5853 4.42482 21 4.87265 21H11.6571C12.0161 21 12.3071 20.709 12.3071 20.35C12.3071 19.991 12.0161 19.7 11.6571 19.7H5.62966C6.20474 17.6982 8.04051 16.3 10.1464 16.3H11.6571C12.0161 16.3 12.3071 16.009 12.3071 15.65C12.3071 15.291 12.0161 15 11.6571 15H10.1464Z" fill="#717681"/>
<path fill-rule="evenodd" clip-rule="evenodd" d="M14.318 14.318C12.5607 16.0754 12.5607 18.9246 14.318 20.682C16.0754 22.4393 18.9246 22.4393 20.682 20.682C22.4393 18.9246 22.4393 16.0754 20.682 14.318C18.9246 12.5607 16.0754 12.5607 14.318 14.318ZM19.7627 15.2373C18.6705 14.145 16.9852 14.0074 15.7435 14.8244L20.1756 19.2565C20.9926 18.0148 20.855 16.3295 19.7627 15.2373ZM15.2373 19.7627C14.1451 18.6706 14.0074 16.9854 14.8243 15.7437L19.2563 20.1757C18.0147 20.9926 16.3294 20.8549 15.2373 19.7627Z" fill="#717681"/>
</svg>
