<svg width="24" height="24" viewBox="0 0 24 24" fill="none" xmlns="http://www.w3.org/2000/svg">
<path d="M7.23311 7.22436L9.94931 7.22436L9.94931 9.94057L7.2331 9.94057L7.23311 7.22436Z" fill="#626F84"/>
<path d="M7.23311 14.0595L9.94931 14.0595L9.94931 16.7757L7.2331 16.7757L7.23311 14.0595Z" fill="#626F84"/>
<path d="M14.0681 7.22436L16.7843 7.22436V9.94057L14.0681 9.94057L14.0681 7.22436Z" fill="#626F84"/>
<path fill-rule="evenodd" clip-rule="evenodd" d="M19.0503 1.99988H5.05029C3.39344 1.99988 2.05029 3.34302 2.05029 4.99988V18.9999C2.05029 20.6567 3.39344 21.9999 5.05029 21.9999H19.0503C20.7071 21.9999 22.0503 20.6567 22.0503 18.9999V4.99988C22.0503 3.34302 20.7071 1.99988 19.0503 1.99988ZM5.93311 7.22436C5.93311 6.50639 6.51514 5.92436 7.23311 5.92436H9.94931C10.6673 5.92436 11.2493 6.50639 11.2493 7.22436V9.94057C11.2493 10.6585 10.6673 11.2406 9.94931 11.2406H7.2331C6.51513 11.2406 5.93311 10.6585 5.93311 9.94057V7.22436ZM5.93311 14.0595C5.93311 13.3415 6.51514 12.7595 7.23311 12.7595H9.94931C10.6673 12.7595 11.2493 13.3415 11.2493 14.0595V16.7757C11.2493 17.4937 10.6673 18.0757 9.94931 18.0757H7.2331C6.51513 18.0757 5.93311 17.4937 5.93311 16.7757V14.0595ZM14.5852 18.2789H16.7845C17.5024 18.2789 18.0845 17.6969 18.0845 16.9789V14.6064C18.0845 14.2474 17.7935 13.9564 17.4345 13.9564C17.0755 13.9564 16.7845 14.2474 16.7845 14.6064V16.9789H14.5852C14.2262 16.9789 13.9352 17.2699 13.9352 17.6289C13.9352 17.9879 14.2262 18.2789 14.5852 18.2789ZM12.7681 7.22436C12.7681 6.50639 13.3501 5.92436 14.0681 5.92436H16.7843C17.5022 5.92436 18.0843 6.50639 18.0843 7.22436V9.94057C18.0843 10.6585 17.5022 11.2406 16.7843 11.2406H14.0681C13.3501 11.2406 12.7681 10.6585 12.7681 9.94057V7.22436ZM14.0679 13.3669C14.0679 13.0079 13.7769 12.7169 13.4179 12.7169C13.0589 12.7169 12.7679 13.0079 12.7679 13.3669V14.3459C12.7679 14.7049 13.0589 14.9959 13.4179 14.9959C13.7769 14.9959 14.0679 14.7049 14.0679 14.3459V13.3669Z" fill="#626F84"/>
</svg>
