<svg width="24" height="24" viewBox="0 0 24 24" fill="none" xmlns="http://www.w3.org/2000/svg">
<path d="M10.2215 6.38058C11.0103 6.01792 11.888 5.81001 12.82 5.81001C16.2316 5.81001 19.01 8.57961 19.01 12C19.01 15.421 16.241 18.19 12.82 18.19C9.40082 18.19 6.63998 15.4129 6.63998 12C6.63998 11.8907 6.64279 11.782 6.6484 11.674L7.73997 12.84C7.86997 12.98 8.04997 13.05 8.21997 13.05C8.37997 13.05 8.52997 13 8.63997 12.87C8.89997 12.62 8.91997 12.21 8.66997 11.95L6.47997 9.60001C6.20997 9.30001 5.73997 9.30001 5.45997 9.60001L3.26997 11.95C3.01997 12.21 3.03997 12.62 3.29997 12.87C3.55997 13.12 3.96997 13.1 4.21997 12.84L5.34876 11.6343C5.3429 11.7557 5.33997 11.8777 5.33997 12C5.33997 16.1271 8.67913 19.49 12.82 19.49C16.959 19.49 20.31 16.139 20.31 12C20.31 7.86041 16.9483 4.51001 12.82 4.51001C11.692 4.51001 10.6297 4.7621 9.67845 5.19944C9.35229 5.3494 9.20944 5.73537 9.3594 6.06154C9.50936 6.3877 9.89534 6.53054 10.2215 6.38058Z" fill="#626F84"/>
</svg>
