<svg width="24" height="24" viewBox="0 0 24 24" fill="none" xmlns="http://www.w3.org/2000/svg">
<path fill-rule="evenodd" clip-rule="evenodd" d="M12 3C16.9706 3 21 7.02944 21 12C21 16.9706 16.9706 21 12 21C7.02944 21 3 16.9706 3 12C3 7.02944 7.02944 3 12 3ZM16.1 11.9965C16.1 11.3786 15.9623 10.7968 15.7219 10.2734C15.572 9.94717 15.7149 9.56124 16.0411 9.41137C16.3673 9.2615 16.7533 9.40445 16.9031 9.73065C17.2182 10.4164 17.4 11.1828 17.4 11.9965C17.4 14.9744 14.9851 17.4 12 17.4C9.01557 17.4 6.6 14.982 6.6 11.9965C6.6 9.12588 8.8387 6.78907 11.654 6.61092L11 5.97C10.74 5.72 10.72 5.31 10.97 5.05C11.22 4.79 11.63 4.77 11.89 5.02L13.775 6.83671C14.075 7.11671 14.075 7.58671 13.775 7.85671L11.92 9.5C11.66 9.75 11.25 9.73 11 9.47C10.87 9.36 10.82 9.21 10.82 9.05C10.82 8.88 10.89 8.7 11.03 8.57L11.7887 7.90535C9.626 8.01516 7.9 9.80105 7.9 11.9965C7.9 14.2649 9.73443 16.1 12 16.1C14.2649 16.1 16.1 14.2586 16.1 11.9965Z" fill="#717681"/>
</svg>
