<svg width="24" height="24" viewBox="0 0 24 24" fill="none" xmlns="http://www.w3.org/2000/svg">
<path d="M17.3209 10.5199C17.6835 11.3087 17.8914 12.1863 17.8914 13.1183C17.8914 16.53 15.1218 19.3083 11.7014 19.3083C8.28041 19.3083 5.51142 16.5394 5.51143 13.1183C5.51143 9.69919 8.28855 6.93835 11.7014 6.93835C11.8107 6.93835 11.9194 6.94116 12.0274 6.94677L10.8614 8.03834C10.7214 8.16834 10.6514 8.34834 10.6514 8.51834C10.6514 8.67834 10.7014 8.82834 10.8314 8.93834C11.0814 9.19834 11.4914 9.21834 11.7514 8.96834L14.1014 6.77834C14.4014 6.50834 14.4014 6.03834 14.1014 5.75834L11.7514 3.56834C11.4914 3.31834 11.0814 3.33834 10.8314 3.59834C10.5814 3.85834 10.6014 4.26834 10.8614 4.51834L12.0672 5.64713C11.9457 5.64127 11.8237 5.63835 11.7014 5.63835C7.5743 5.63835 4.21143 8.9775 4.21143 13.1183C4.21143 17.2573 7.56244 20.6083 11.7014 20.6083C15.841 20.6083 19.1914 17.2467 19.1914 13.1183C19.1914 11.9904 18.9393 10.928 18.502 9.97682C18.352 9.65066 17.9661 9.50782 17.6399 9.65778C17.3137 9.80774 17.1709 10.1937 17.3209 10.5199Z" fill="#717681"/>
</svg>
