<svg width="24" height="24" viewBox="0 0 24 24" fill="none" xmlns="http://www.w3.org/2000/svg">
<path d="M10.2435 9.32442C11.4852 8.50742 13.1705 8.64503 14.2627 9.73726C15.355 10.8295 15.4926 12.5148 14.6756 13.7565L10.2435 9.32442Z" fill="#626F84"/>
<path d="M9.32428 10.2437C8.50743 11.4854 8.64509 13.1706 9.73726 14.2627C10.8294 15.3549 12.5147 15.4926 13.7563 14.6757L9.32428 10.2437Z" fill="#626F84"/>
<path fill-rule="evenodd" clip-rule="evenodd" d="M12 3C7.02944 3 3 7.02944 3 12C3 16.9706 7.02944 21 12 21C16.9706 21 21 16.9706 21 12C21 7.02944 16.9706 3 12 3ZM8.81802 15.182C7.06066 13.4246 7.06066 10.5754 8.81802 8.81802C10.5754 7.06066 13.4246 7.06066 15.182 8.81802C16.9393 10.5754 16.9393 13.4246 15.182 15.182C13.4246 16.9393 10.5754 16.9393 8.81802 15.182Z" fill="#626F84"/>
</svg>
