<svg width="13" height="15" viewBox="0 0 13 15" fill="none" xmlns="http://www.w3.org/2000/svg">
<path d="M0.641602 7.49999C0.641602 7.31999 0.7116 7.14999 0.851601 7.01999C1.1216 6.77999 1.5316 6.79999 1.7716 7.05999L6.1716 11.8956L6.1716 0.999991C6.1716 0.641006 6.46262 0.349991 6.8216 0.349991C7.18059 0.349991 7.4716 0.641006 7.4716 0.999991L7.4716 11.8956L11.8716 7.05999C12.1116 6.78999 12.5216 6.77999 12.7916 7.01999C13.0516 7.25999 13.0716 7.66999 12.8316 7.93999L7.3416 13.98C7.0616 14.29 6.5816 14.29 6.3016 13.98L0.8116 7.93999C0.6916 7.80999 0.641602 7.65999 0.641602 7.49999Z" fill="#626F84"/>
</svg>
