<svg width="18" height="18" viewBox="0 0 18 18" fill="none" xmlns="http://www.w3.org/2000/svg">
<path fill-rule="evenodd" clip-rule="evenodd" d="M9 0C13.9706 2.1727e-07 18 4.02944 18 9C18 13.9706 13.9706 18 9 18C4.02944 18 -2.1727e-07 13.9706 0 9C2.1727e-07 4.02944 4.02944 -2.1727e-07 9 0ZM4.44183 9.5C4.44183 9.32 4.51183 9.15 4.65183 9.02C4.92183 8.78 5.33183 8.8 5.57183 9.06L8.40548 11.9476V5C8.40548 4.64102 8.6965 4.35 9.05548 4.35C9.41447 4.35 9.70548 4.64102 9.70548 5V11.9406L12.5218 9.04C12.7618 8.77 13.1718 8.76 13.4418 9C13.7018 9.24 13.7218 9.65 13.4818 9.92L9.57548 13.98C9.29548 14.29 8.81548 14.29 8.53548 13.98L4.61182 9.94C4.49183 9.81 4.44183 9.66 4.44183 9.5Z" fill="#626F84"/>
</svg>
