<svg width="24" height="24" viewBox="0 0 24 24" fill="none" xmlns="http://www.w3.org/2000/svg">
<mask id="path-1-inside-1_5100_1120" fill="white">
<path d="M15.9375 19.7H9C8.06112 19.7 7.3 18.9389 7.3 18L7.3 17.7125C7.3 17.3535 7.00899 17.0625 6.65 17.0625C6.29102 17.0625 6 17.3535 6 17.7125V18C6 19.6569 7.34315 21 9 21H15.9375C17.5944 21 18.9375 19.6569 18.9375 18L18.9375 6C18.9375 4.34315 17.5944 3 15.9375 3H9C7.34315 3 6 4.34315 6 6V6.35C6 6.70898 6.29102 7 6.65 7C7.00899 7 7.3 6.70898 7.3 6.35V6C7.3 5.06112 8.06112 4.3 9 4.3L15.9375 4.3C16.1612 4.3 16.3748 4.34321 16.5705 4.42174L15.0239 5.33303C14.1087 5.87232 13.5469 6.85541 13.5469 7.9177V16.041C13.5469 17.0921 14.097 18.0665 14.997 18.6096L16.5895 19.5705C16.3887 19.6539 16.1685 19.7 15.9375 19.7Z"/>
<path d="M6.99118 8.91053C7.23289 8.64511 7.644 8.62589 7.90942 8.8676L10.6853 11.3955C10.8971 11.5884 10.9521 11.889 10.843 12.1374C10.813 12.2465 10.7541 12.3491 10.6666 12.4331L7.95863 15.0337C7.69971 15.2823 7.28823 15.274 7.03958 15.0151C6.79093 14.7561 6.79926 14.3447 7.05818 14.096L8.60344 12.6121L3.70078 12.6121C3.3418 12.6121 3.05078 12.321 3.05078 11.9621C3.05078 11.6031 3.3418 11.3121 3.70078 11.3121H8.6629L7.03411 9.82877C6.76869 9.58706 6.74947 9.17595 6.99118 8.91053Z"/>
</mask>
<path d="M15.9375 19.7H9C8.06112 19.7 7.3 18.9389 7.3 18L7.3 17.7125C7.3 17.3535 7.00899 17.0625 6.65 17.0625C6.29102 17.0625 6 17.3535 6 17.7125V18C6 19.6569 7.34315 21 9 21H15.9375C17.5944 21 18.9375 19.6569 18.9375 18L18.9375 6C18.9375 4.34315 17.5944 3 15.9375 3H9C7.34315 3 6 4.34315 6 6V6.35C6 6.70898 6.29102 7 6.65 7C7.00899 7 7.3 6.70898 7.3 6.35V6C7.3 5.06112 8.06112 4.3 9 4.3L15.9375 4.3C16.1612 4.3 16.3748 4.34321 16.5705 4.42174L15.0239 5.33303C14.1087 5.87232 13.5469 6.85541 13.5469 7.9177V16.041C13.5469 17.0921 14.097 18.0665 14.997 18.6096L16.5895 19.5705C16.3887 19.6539 16.1685 19.7 15.9375 19.7Z" fill="#626F84"/>
<path d="M6.99118 8.91053C7.23289 8.64511 7.644 8.62589 7.90942 8.8676L10.6853 11.3955C10.8971 11.5884 10.9521 11.889 10.843 12.1374C10.813 12.2465 10.7541 12.3491 10.6666 12.4331L7.95863 15.0337C7.69971 15.2823 7.28823 15.274 7.03958 15.0151C6.79093 14.7561 6.79926 14.3447 7.05818 14.096L8.60344 12.6121L3.70078 12.6121C3.3418 12.6121 3.05078 12.321 3.05078 11.9621C3.05078 11.6031 3.3418 11.3121 3.70078 11.3121H8.6629L7.03411 9.82877C6.76869 9.58706 6.74947 9.17595 6.99118 8.91053Z" fill="#626F84"/>
<path d="M15.9375 19.7H9C8.06112 19.7 7.3 18.9389 7.3 18L7.3 17.7125C7.3 17.3535 7.00899 17.0625 6.65 17.0625C6.29102 17.0625 6 17.3535 6 17.7125V18C6 19.6569 7.34315 21 9 21H15.9375C17.5944 21 18.9375 19.6569 18.9375 18L18.9375 6C18.9375 4.34315 17.5944 3 15.9375 3H9C7.34315 3 6 4.34315 6 6V6.35C6 6.70898 6.29102 7 6.65 7C7.00899 7 7.3 6.70898 7.3 6.35V6C7.3 5.06112 8.06112 4.3 9 4.3L15.9375 4.3C16.1612 4.3 16.3748 4.34321 16.5705 4.42174L15.0239 5.33303C14.1087 5.87232 13.5469 6.85541 13.5469 7.9177V16.041C13.5469 17.0921 14.097 18.0665 14.997 18.6096L16.5895 19.5705C16.3887 19.6539 16.1685 19.7 15.9375 19.7Z" stroke="#626F84" stroke-width="2.6" mask="url(#path-1-inside-1_5100_1120)"/>
<path d="M6.99118 8.91053C7.23289 8.64511 7.644 8.62589 7.90942 8.8676L10.6853 11.3955C10.8971 11.5884 10.9521 11.889 10.843 12.1374C10.813 12.2465 10.7541 12.3491 10.6666 12.4331L7.95863 15.0337C7.69971 15.2823 7.28823 15.274 7.03958 15.0151C6.79093 14.7561 6.79926 14.3447 7.05818 14.096L8.60344 12.6121L3.70078 12.6121C3.3418 12.6121 3.05078 12.321 3.05078 11.9621C3.05078 11.6031 3.3418 11.3121 3.70078 11.3121H8.6629L7.03411 9.82877C6.76869 9.58706 6.74947 9.17595 6.99118 8.91053Z" stroke="#626F84" stroke-width="2.6" mask="url(#path-1-inside-1_5100_1120)"/>
</svg>
