<svg width="24" height="24" viewBox="0 0 24 24" fill="none" xmlns="http://www.w3.org/2000/svg">
<path fill-rule="evenodd" clip-rule="evenodd" d="M3 12C3 7.02944 7.02944 3 12 3C16.9706 3 21 7.02944 21 12C21 16.9706 16.9706 21 12 21C7.02944 21 3 16.9706 3 12ZM13.6433 15.1778C13.5133 15.3178 13.3433 15.3878 13.1633 15.3878C13.0033 15.3878 12.8533 15.3378 12.7233 15.2178L9.73354 12.53C9.42354 12.25 9.42354 11.77 9.73354 11.49L12.7191 8.89368C12.9891 8.65368 13.3991 8.67368 13.6391 8.93368C13.8791 9.20368 13.8691 9.61368 13.5991 9.85368L11.1035 12.01L13.6033 14.2578C13.8633 14.4978 13.8833 14.9078 13.6433 15.1778Z" fill="#626F84"/>
</svg>
