<svg width="24" height="24" viewBox="0 0 24 24" fill="none" xmlns="http://www.w3.org/2000/svg">
<path fill-rule="evenodd" clip-rule="evenodd" d="M11.4898 6.09009C11.767 5.79039 12.2408 5.79055 12.5178 6.09044L16.1163 9.98598C16.5304 10.4343 16.2124 11.161 15.6021 11.161H8.40024C7.78967 11.161 7.47176 10.4338 7.88637 9.98563L11.4898 6.09009ZM12.0033 7.44934L14.231 9.86096H9.77257L12.0033 7.44934Z" fill="#626F84"/>
<path fill-rule="evenodd" clip-rule="evenodd" d="M12.5105 17.9099C12.2333 18.2096 11.7594 18.2094 11.4824 17.9096L7.88397 14.014C7.46982 13.5657 7.78781 12.839 8.39816 12.839L15.6 12.839C16.2106 12.839 16.5285 13.5662 16.1139 14.0144L12.5105 17.9099ZM11.9969 16.5507L9.76922 14.139L14.2277 14.139L11.9969 16.5507Z" fill="#626F84"/>
</svg>
