<svg width="24" height="24" viewBox="0 0 24 24" fill="none" xmlns="http://www.w3.org/2000/svg">
<path d="M13.1357 11.2567L14.9328 9.45962C15.1866 9.20578 15.1866 8.79422 14.9328 8.54038L13.1357 6.74332C12.8819 6.48948 12.4703 6.48948 12.2165 6.74332C11.9626 6.99716 11.9626 7.40872 12.2165 7.66256L12.9039 8.35H12C9.98416 8.35 8.35 9.98416 8.35 12V12.8253L7.66256 12.1379C7.40872 11.884 6.99716 11.884 6.74332 12.1379C6.48948 12.3917 6.48948 12.8033 6.74332 13.0571L8.54038 14.8542C8.79422 15.108 9.20578 15.108 9.45962 14.8542L11.2567 13.0571C11.5105 12.8033 11.5105 12.3917 11.2567 12.1379C11.0028 11.884 10.5913 11.884 10.3374 12.1379L9.65 12.8253V12C9.65 10.7021 10.7021 9.65 12 9.65H12.9039L12.2165 10.3374C11.9626 10.5913 11.9626 11.0028 12.2165 11.2567C12.4703 11.5105 12.8819 11.5105 13.1357 11.2567Z" fill="#717681"/>
<path d="M6.35 17C6.35 16.641 6.64102 16.35 7 16.35H15C15.359 16.35 15.65 16.641 15.65 17C15.65 17.359 15.359 17.65 15 17.65H7C6.64102 17.65 6.35 17.359 6.35 17Z" fill="#717681"/>
<path d="M17.65 7C17.65 6.64102 17.359 6.35 17 6.35C16.641 6.35 16.35 6.64101 16.35 7L16.35 15C16.35 15.359 16.641 15.65 17 15.65C17.359 15.65 17.65 15.359 17.65 15V7Z" fill="#717681"/>
<path fill-rule="evenodd" clip-rule="evenodd" d="M4 7C4 5.34315 5.34315 4 7 4H17C18.6569 4 20 5.34315 20 7V17C20 18.6569 18.6569 20 17 20H7C5.34315 20 4 18.6569 4 17V7ZM7 5.3H17C17.9389 5.3 18.7 6.06112 18.7 7V17C18.7 17.9389 17.9389 18.7 17 18.7H7C6.06112 18.7 5.3 17.9389 5.3 17V7C5.3 6.06112 6.06112 5.3 7 5.3Z" fill="#717681"/>
</svg>
