<svg width="24" height="24" viewBox="0 0 24 24" fill="none" xmlns="http://www.w3.org/2000/svg">
<path d="M12 3C14.665 3 16.7363 5.32002 16.4354 7.96802L16.1734 10.274C15.9322 12.3966 14.1362 14 12 14C9.86374 14 8.06778 12.3966 7.82657 10.274L7.56453 7.96803C7.26362 5.32002 9.33494 3 12 3Z" fill="#626F84"/>
<path d="M12.1152 16.042C11.9861 15.5434 12.3308 15 12.8459 15H13.8536C16.6658 15 19.1007 16.9532 19.7107 19.6984L19.8107 20.1481C19.9078 20.5853 19.5752 21 19.1274 21H12.5342C11.9557 21 11.6042 20.317 11.8323 19.7854C12.1333 19.0841 12.3 18.3115 12.3 17.5C12.3 16.9964 12.2358 16.5078 12.1152 16.042Z" fill="#626F84"/>
<path fill-rule="evenodd" clip-rule="evenodd" d="M1.99998 17.5C1.99998 19.9853 4.0147 22 6.49998 22C8.98526 22 11 19.9853 11 17.5C11 15.0147 8.98526 13 6.49998 13C4.0147 13 1.99998 15.0147 1.99998 17.5ZM6.15625 20.144C6.28625 20.284 6.45625 20.354 6.63625 20.354C6.79625 20.354 6.94625 20.304 7.07625 20.184L9.42397 17.9466C9.73397 17.6666 9.73397 17.1866 9.42397 16.9066L7.07625 14.6793C6.80625 14.4393 6.39625 14.4593 6.15625 14.7193C5.91625 14.9893 5.92625 15.3993 6.19625 15.6393L7.38454 16.7766H4.01319C3.65421 16.7766 3.36319 17.0676 3.36319 17.4266C3.36319 17.7856 3.65421 18.0766 4.01319 18.0766H7.39159L6.19625 19.224C5.93625 19.464 5.91625 19.874 6.15625 20.144Z" fill="#626F84"/>
</svg>
