<svg width="24" height="24" viewBox="0 0 24 24" fill="none" xmlns="http://www.w3.org/2000/svg">
<path d="M5.18159 9.58726C4.92775 9.8411 4.92775 10.2527 5.18159 10.5065L8.84199 14.1669C9.09583 14.4207 9.50739 14.4207 9.76123 14.1669C10.0151 13.9131 10.0151 13.5015 9.76123 13.2477L7.21045 10.6969H15.3463C16.6442 10.6969 17.6963 11.749 17.6963 13.0469V13.3076C17.6963 14.6055 16.6442 15.6576 15.3463 15.6576H12.6458C12.2868 15.6576 11.9958 15.9486 11.9958 16.3076C11.9958 16.6666 12.2868 16.9576 12.6458 16.9576H15.3463C17.3621 16.9576 18.9963 15.3235 18.9963 13.3076V13.0469C18.9963 11.031 17.3621 9.39688 15.3463 9.39688H7.21045L9.76123 6.8461C10.0151 6.59226 10.0151 6.1807 9.76123 5.92686C9.50739 5.67302 9.09583 5.67302 8.84199 5.92686L5.18159 9.58726Z" fill="#717681"/>
</svg>
