<svg width="24" height="24" viewBox="0 0 24 24" fill="none" xmlns="http://www.w3.org/2000/svg">
<path d="M7.13008 11.54C7.00008 11.68 6.83008 11.75 6.65008 11.75C6.49008 11.75 6.34008 11.7 6.21008 11.58L3.50008 9.00446C3.19008 8.72446 3.19008 8.24446 3.50008 7.96446L6.21008 5.49996C6.48008 5.25996 6.89008 5.27996 7.13008 5.53996C7.37008 5.80996 7.36008 6.21996 7.09008 6.45996L5.53951 7.83446C5.71778 7.83446 5.89038 7.83548 6.05736 7.83748L16.8501 7.8557C18.8659 7.8557 20.5001 9.48986 20.5001 11.5057V13.85C20.5001 15.8658 18.8659 17.5 16.8501 17.5L10.6501 17.5C10.2911 17.5 10.0001 17.209 10.0001 16.85C10.0001 16.491 10.2911 16.2 10.6501 16.2L16.8501 16.2C18.148 16.2 19.2001 15.1479 19.2001 13.85V11.5057C19.2001 10.2078 18.148 9.1557 16.8501 9.1557L5.53563 9.13748L7.09008 10.62C7.35008 10.86 7.37008 11.27 7.13008 11.54Z" fill="#717681"/>
</svg>
