<svg width="24" height="24" viewBox="0 0 24 24" fill="none" xmlns="http://www.w3.org/2000/svg">
<path d="M6.082 10.5199C5.71934 11.3087 5.51143 12.1863 5.51143 13.1184C5.51143 16.53 8.28103 19.3084 11.7014 19.3084C15.1224 19.3084 17.8914 16.5394 17.8914 13.1184C17.8914 9.69919 15.1143 6.93835 11.7014 6.93835C11.5921 6.93835 11.4834 6.94117 11.3754 6.94678L12.5414 8.03835C12.6814 8.16835 12.7514 8.34835 12.7514 8.51835C12.7514 8.67835 12.7014 8.82835 12.5714 8.93835C12.3214 9.19835 11.9114 9.21835 11.6514 8.96835L9.30143 6.77835C9.00143 6.50835 9.00143 6.03835 9.30143 5.75835L11.6514 3.56835C11.9114 3.31835 12.3214 3.33835 12.5714 3.59835C12.8214 3.85835 12.8014 4.26835 12.5414 4.51835L11.3357 5.64714C11.4572 5.64128 11.5791 5.63835 11.7014 5.63835C15.8286 5.63835 19.1914 8.97751 19.1914 13.1184C19.1914 17.2573 15.8404 20.6084 11.7014 20.6084C7.56182 20.6084 4.21143 17.2467 4.21143 13.1184C4.21143 11.9904 4.46352 10.928 4.90086 9.97683C5.05082 9.65066 5.43679 9.50782 5.76295 9.65778C6.08912 9.80774 6.23196 10.1937 6.082 10.5199Z" fill="#717681"/>
</svg>
