<svg width="24" height="24" viewBox="0 0 24 24" fill="none" xmlns="http://www.w3.org/2000/svg">
<path fill-rule="evenodd" clip-rule="evenodd" d="M12 3C7.02944 3 3 7.02944 3 12C3 16.9706 7.02944 21 12 21C16.9706 21 21 16.9706 21 12C21 7.02944 16.9706 3 12 3ZM7.9 11.9965C7.9 11.3786 8.03766 10.7968 8.27814 10.2734C8.42801 9.94717 8.28507 9.56124 7.95886 9.41137C7.63266 9.2615 7.24672 9.40445 7.09685 9.73065C6.78178 10.4164 6.6 11.1828 6.6 11.9965C6.6 14.9744 9.01495 17.4 12 17.4C14.9844 17.4 17.4 14.982 17.4 11.9965C17.4 9.12588 15.1613 6.78907 12.346 6.61092L13 5.97C13.26 5.72 13.28 5.31 13.03 5.05C12.78 4.79 12.37 4.77 12.11 5.02L10.225 6.83671C9.925 7.11671 9.925 7.58671 10.225 7.85671L12.08 9.5C12.34 9.75 12.75 9.73 13 9.47C13.13 9.36 13.18 9.21 13.18 9.05C13.18 8.88 13.11 8.7 12.97 8.57L12.2113 7.90535C14.374 8.01516 16.1 9.80105 16.1 11.9965C16.1 14.2649 14.2656 16.1 12 16.1C9.73505 16.1 7.9 14.2586 7.9 11.9965Z" fill="#717681"/>
</svg>
