<svg width="24" height="24" viewBox="0 0 24 24" fill="none" xmlns="http://www.w3.org/2000/svg">
<path d="M19.2961 4.50317C17.2849 2.49196 14.0241 2.49197 12.0129 4.50317L10.9896 5.46759C10.7358 5.72144 10.7358 6.13299 10.9896 6.38683C11.2435 6.64067 11.655 6.64067 11.9089 6.38683L12.9322 5.42241C14.4357 3.91889 16.8734 3.91889 18.3769 5.4224C19.8804 6.92592 19.8804 9.36361 18.3769 10.8671L17.3536 11.8316C17.0997 12.0854 17.0997 12.497 17.3536 12.7508C17.6074 13.0046 18.019 13.0046 18.2728 12.7508L19.2961 11.7864C21.3073 9.77517 21.3073 6.51437 19.2961 4.50317Z" fill="#626F84"/>
<path d="M4.57969 19.2196C6.59089 21.2308 9.85169 21.2308 11.8629 19.2196L12.7416 18.3665C12.9955 18.1126 12.9955 17.7011 12.7416 17.4472C12.4878 17.1934 12.0762 17.1934 11.8224 17.4472L10.9437 18.3003C9.44013 19.8039 7.00245 19.8039 5.49893 18.3003C3.99541 16.7968 3.99541 14.3591 5.49893 12.8556L6.37768 12.0025C6.63152 11.7487 6.63152 11.3371 6.37768 11.0833C6.12384 10.8294 5.71228 10.8294 5.45844 11.0833L4.57969 11.9364C2.56849 13.9476 2.56849 17.2084 4.57969 19.2196Z" fill="#626F84"/>
<path d="M5.79194 5.83533C6.04578 5.58149 6.45734 5.58149 6.71118 5.83533L18.2074 17.3316C18.4612 17.5854 18.4612 17.997 18.2074 18.2508C17.9535 18.5046 17.542 18.5046 17.2881 18.2508L5.79194 6.75457C5.5381 6.50073 5.5381 6.08917 5.79194 5.83533Z" fill="#626F84"/>
</svg>
