<svg width="24" height="24" viewBox="0 0 24 24" fill="none" xmlns="http://www.w3.org/2000/svg">
<path d="M19.2961 4.50315C17.2849 2.49195 14.0241 2.49195 12.0129 4.50315L10.9896 5.46758C10.7358 5.72142 10.7358 6.13298 10.9896 6.38682C11.2435 6.64066 11.655 6.64066 11.9089 6.38682L12.9322 5.42239C14.4357 3.91887 16.8734 3.91887 18.3769 5.42239C19.8804 6.92591 19.8804 9.36359 18.3769 10.8671L17.3536 11.8315C17.0997 12.0854 17.0997 12.4969 17.3536 12.7508C17.6074 13.0046 18.019 13.0046 18.2728 12.7508L19.2961 11.7863C21.3073 9.77515 21.3073 6.51435 19.2961 4.50315Z" fill="#717681"/>
<path d="M4.57969 19.2196C6.59089 21.2308 9.85169 21.2308 11.8629 19.2196L12.7416 18.3664C12.9955 18.1126 12.9955 17.701 12.7416 17.4472C12.4878 17.1934 12.0762 17.1934 11.8224 17.4472L10.9437 18.3003C9.44013 19.8039 7.00245 19.8039 5.49893 18.3003C3.99541 16.7968 3.99541 14.3591 5.49893 12.8556L6.37768 12.0025C6.63152 11.7486 6.63152 11.3371 6.37768 11.0832C6.12384 10.8294 5.71228 10.8294 5.45844 11.0832L4.57969 11.9364C2.56849 13.9476 2.56849 17.2084 4.57969 19.2196Z" fill="#717681"/>
<path d="M5.79194 5.83531C6.04578 5.58147 6.45734 5.58147 6.71118 5.83531L18.2074 17.3315C18.4612 17.5854 18.4612 17.9969 18.2074 18.2508C17.9535 18.5046 17.542 18.5046 17.2881 18.2508L5.79194 6.75455C5.5381 6.50071 5.5381 6.08915 5.79194 5.83531Z" fill="#717681"/>
</svg>
