<svg width="24" height="24" viewBox="0 0 24 24" fill="none" xmlns="http://www.w3.org/2000/svg">
<path d="M7.56456 7.96802C7.26365 5.32002 9.33497 3 12 3C14.6651 3 16.7364 5.32002 16.4355 7.96803L16.1734 10.274C15.9322 12.3966 14.1363 14 12 14C9.86377 14 8.06781 12.3966 7.8266 10.274L7.56456 7.96802Z" fill="#626F84"/>
<path d="M11.1541 15C11.6692 15 12.0139 15.5434 11.8848 16.042C11.7642 16.5078 11.7 16.9964 11.7 17.5C11.7 18.3115 11.8667 19.0841 12.1677 19.7854C12.3958 20.317 12.0443 21 11.4658 21H4.87265C4.42482 21 4.09217 20.5853 4.18932 20.1481L4.28926 19.6984C4.89931 16.9532 7.33419 15 10.1464 15H11.1541Z" fill="#626F84"/>
<path fill-rule="evenodd" clip-rule="evenodd" d="M20.682 14.318C22.4393 16.0753 22.4393 18.9246 20.682 20.6819C18.9246 22.4393 16.0754 22.4393 14.318 20.6819C12.5607 18.9246 12.5607 16.0753 14.318 14.318C16.0754 12.5606 18.9246 12.5606 20.682 14.318ZM16.5405 15.6212C16.2866 15.3674 15.8751 15.3674 15.6212 15.6212C15.3674 15.875 15.3674 16.2866 15.6212 16.5404L16.5808 17.5L15.717 18.3638C15.4631 18.6176 15.4631 19.0292 15.717 19.283C15.9708 19.5369 16.3824 19.5369 16.6362 19.283L17.5 18.4192L18.4596 19.3788C18.7134 19.6326 19.125 19.6326 19.3788 19.3788C19.6327 19.1249 19.6327 18.7134 19.3788 18.4595L18.4193 17.5L19.2831 16.6362C19.5369 16.3823 19.5369 15.9708 19.2831 15.7169C19.0292 15.4631 18.6177 15.4631 18.3638 15.7169L17.5 16.5807L16.5405 15.6212Z" fill="#626F84"/>
</svg>
