<svg width="24" height="24" viewBox="0 0 24 24" fill="none" xmlns="http://www.w3.org/2000/svg">
<path d="M7.56456 7.96802C7.26365 5.32002 9.33497 3 12 3C14.6651 3 16.7364 5.32002 16.4355 7.96803L16.1734 10.274C15.9322 12.3966 14.1363 14 12 14C9.86377 14 8.06781 12.3966 7.8266 10.274L7.56456 7.96802Z" fill="#717681"/>
<path d="M11.1541 15C11.6692 15 12.0139 15.5434 11.8848 16.042C11.7642 16.5078 11.7 16.9964 11.7 17.5C11.7 18.3115 11.8667 19.0841 12.1677 19.7854C12.3958 20.317 12.0443 21 11.4658 21H4.87265C4.42482 21 4.09217 20.5853 4.18932 20.1481L4.28926 19.6984C4.89931 16.9532 7.33419 15 10.1464 15H11.1541Z" fill="#717681"/>
<path fill-rule="evenodd" clip-rule="evenodd" d="M17.5 13C15.0147 13 13 15.0147 13 17.5C13 19.9853 15.0147 22 17.5 22C19.9853 22 22 19.9853 22 17.5C22 15.0147 19.9853 13 17.5 13ZM17.6363 14.646C17.4563 14.646 17.2863 14.716 17.1563 14.856C16.9163 15.126 16.9363 15.536 17.1963 15.776L18.3916 16.9234H15.0132C14.6542 16.9234 14.3632 17.2144 14.3632 17.5734C14.3632 17.9323 14.6542 18.2234 15.0132 18.2234H18.3846L17.1963 19.3607C16.9263 19.6007 16.9163 20.0107 17.1563 20.2807C17.3963 20.5407 17.8063 20.5607 18.0763 20.3207L20.424 18.0934C20.734 17.8134 20.734 17.3334 20.424 17.0534L18.0763 14.816C17.9463 14.696 17.7963 14.646 17.6363 14.646Z" fill="#717681"/>
</svg>
