<svg width="28" height="20" viewBox="0 0 28 20" fill="none" xmlns="http://www.w3.org/2000/svg">
<rect width="28" height="20" rx="2" fill="#F0F2F5"/>
<path fill-rule="evenodd" clip-rule="evenodd" d="M11.6113 14.4012H16.3638V5.6853H11.6113V14.4012Z" fill="#FF5F00"/>
<path fill-rule="evenodd" clip-rule="evenodd" d="M11.9228 10C11.9228 8.2456 12.7353 6.68317 14.0002 5.67599C13.0749 4.93938 11.9077 4.5 10.6389 4.5C7.63512 4.5 5.2002 6.96257 5.2002 10C5.2002 13.0374 7.63512 15.5 10.6389 15.5C11.9077 15.5 13.0749 15.0606 14.0002 14.324C12.7353 13.3169 11.9228 11.7544 11.9228 10Z" fill="#EB001B"/>
<path fill-rule="evenodd" clip-rule="evenodd" d="M22.7883 9.99982C22.7883 13.0377 20.3533 15.5 17.3494 15.5C16.0805 15.5 14.9133 15.0606 13.9883 14.324C15.2533 13.3172 16.0654 11.7543 16.0654 9.99982C16.0654 8.24536 15.2533 6.68288 13.9883 5.67567C14.9133 4.9394 16.0805 4.5 17.3494 4.5C20.3533 4.5 22.7883 6.96229 22.7883 9.99982Z" fill="#F79E1B"/>
</svg>
