<svg width="22" height="10" viewBox="0 0 22 10" fill="none" xmlns="http://www.w3.org/2000/svg">
<path fill-rule="evenodd" clip-rule="evenodd" d="M13.1354 3.59586C13.3031 3.2325 13.6666 3 14.0668 3H15.59V8.64101H13.7951V5.30775H13.667L12.4033 8.04515C12.2354 8.40851 11.8721 8.64101 11.4722 8.64101H9.94856V3H11.7436V6.33325H11.8721L13.1354 3.59586Z" fill="white"/>
<path fill-rule="evenodd" clip-rule="evenodd" d="M16.3594 5.56452V8.64164H18.1507V6.84671H20.0774C20.9143 6.84671 21.6243 6.31102 21.8887 5.56452H16.3594Z" fill="white"/>
<path fill-rule="evenodd" clip-rule="evenodd" d="M16.1023 3C16.3437 4.31284 17.4924 5.30775 18.8748 5.30775H21.9614C21.9863 5.18334 21.9998 5.05478 21.9998 4.923C21.9998 3.8611 21.1388 3 20.0769 3H16.1023Z" fill="white"/>
<path fill-rule="evenodd" clip-rule="evenodd" d="M6.40139 3.74153C6.52826 3.30242 6.93013 3 7.38684 3H9.17932V8.64136H7.38438V5.30768H7.25632L6.23069 8.64136H4.94857L3.923 5.30768H3.79451V8.64136H2V3H3.79248C4.24919 3 4.65106 3.30242 4.77793 3.74153L5.52563 6.33367H5.65369L6.40139 3.74153Z" fill="white"/>
</svg>
