<svg width="28.000000" height="20.000000" viewBox="0 0 28 20" fill="none" xmlns="http://www.w3.org/2000/svg" xmlns:xlink="http://www.w3.org/1999/xlink">
	<desc>
			Created with Pixso.
	</desc>
	<defs/>
	<rect id="PayPal M" width="28.000000" height="20.000000" fill="#FFFFFF" fill-opacity="0"/>
	<rect id="BG" rx="2.000000" width="28.000000" height="20.000000" fill="#F0F2F5" fill-opacity="1.000000"/>
	<path id="Union" d="M7.6 7.03C7.83 6.76 7.98 6.38 7.94 6C7.61 6.01 7.22 6.21 6.98 6.49C6.77 6.73 6.59 7.12 6.64 7.5C7 7.52 7.37 7.31 7.6 7.03ZM14.11 6.95Q13.67 6.81 13.1 6.81L11.32 6.81L11.32 12.99L12.54 12.99L12.54 10.78L13.1 10.78Q14.32 10.78 14.87 10.27Q14.96 10.19 15.02 10.11Q15.43 9.61 15.43 8.79Q15.43 8.34 15.28 7.98C15.18 7.74 15.03 7.53 14.84 7.36Q14.55 7.09 14.11 6.95ZM8.42 9.45C8.41 8.65 9.06 8.25 9.12 8.22C9.12 8.22 9.12 8.22 9.12 8.21C8.74 7.65 8.15 7.58 7.93 7.57C7.62 7.54 7.32 7.66 7.08 7.75C6.92 7.81 6.79 7.87 6.69 7.87C6.58 7.87 6.44 7.81 6.29 7.75C6.08 7.67 5.85 7.58 5.61 7.58C5.06 7.59 4.55 7.91 4.27 8.4C3.69 9.4 4.12 10.87 4.68 11.68C4.95 12.07 5.28 12.52 5.71 12.5C6.12 12.49 6.28 12.24 6.77 12.24C7.03 12.24 7.19 12.31 7.34 12.37C7.49 12.44 7.64 12.5 7.85 12.5C8.29 12.49 8.57 12.09 8.84 11.7C9.16 11.24 9.29 10.79 9.29 10.77C9.28 10.77 8.43 10.44 8.42 9.45ZM13.88 9.54Q13.62 9.81 13.1 9.81L12.54 9.81L12.54 7.78L13.1 7.78Q13.62 7.78 13.88 8.04Q14.13 8.3 14.13 8.79Q14.13 9.29 13.88 9.54ZM15.91 8.64C16.18 8.53 16.44 8.46 16.7 8.41Q17.09 8.34 17.55 8.34Q18.23 8.34 18.62 8.52C18.88 8.64 19.08 8.79 19.21 8.96C19.35 9.14 19.43 9.33 19.46 9.54Q19.53 9.84 19.53 10.1L19.53 12.99L18.38 12.99L18.38 12.32L18.36 12.32C18.34 12.36 18.3 12.43 18.24 12.52C18.18 12.6 18.1 12.68 17.99 12.77C17.88 12.84 17.74 12.91 17.57 12.97C17.41 13.03 17.2 13.06 16.96 13.06Q16.54 13.06 16.24 12.94Q15.93 12.82 15.74 12.62C15.62 12.49 15.52 12.35 15.46 12.18Q15.4 12.01 15.38 11.83L15.38 11.83Q15.37 11.74 15.37 11.66C15.37 11.5 15.4 11.34 15.45 11.16C15.5 10.98 15.61 10.82 15.77 10.67C15.93 10.52 16.16 10.4 16.44 10.3Q16.88 10.15 17.59 10.15L17.59 10.15Q17.76 10.15 17.92 10.16L18.35 10.16L18.35 9.97C18.35 9.84 18.32 9.73 18.27 9.63C18.21 9.53 18.14 9.45 18.05 9.39C17.96 9.32 17.85 9.27 17.72 9.24C17.6 9.2 17.47 9.18 17.34 9.18C17.15 9.18 16.93 9.21 16.7 9.26C16.47 9.31 16.21 9.42 15.91 9.59L15.91 8.64ZM20.57 14.9C20.69 14.93 20.8 14.94 20.91 14.94C21.22 14.94 21.48 14.9 21.69 14.82C21.9 14.74 22.06 14.63 22.2 14.49C22.33 14.37 22.44 14.22 22.52 14.04C22.6 13.88 22.68 13.71 22.74 13.54L24.63 8.41L23.44 8.41L22.63 10.9L22.35 11.81L22.31 11.81L22.06 10.94L21.22 8.41L19.93 8.41L21.69 13.24L21.58 13.51C21.5 13.71 21.4 13.84 21.27 13.91C21.14 13.98 20.97 14.02 20.77 14.02C20.64 14.02 20.53 14 20.45 13.97C20.37 13.95 20.3 13.92 20.23 13.89L20.23 14.81C20.33 14.85 20.45 14.88 20.57 14.9ZM18.15 10.91C17.99 10.91 17.82 10.92 17.63 10.93C17.44 10.94 17.27 10.96 17.11 11.01C16.95 11.06 16.82 11.13 16.72 11.23C16.62 11.33 16.56 11.47 16.56 11.65C16.56 11.82 16.62 11.96 16.73 12.08C16.84 12.19 17.02 12.24 17.28 12.24Q17.46 12.24 17.65 12.19C17.78 12.16 17.89 12.09 18 12.01C18.1 11.92 18.18 11.79 18.25 11.64Q18.35 11.4 18.35 11.03L18.35 10.91L18.15 10.91Z" fill="#23262D" fill-opacity="1.000000" fill-rule="evenodd"/>
</svg>
