<svg width="22.000000" height="10.000000" viewBox="0 0 22 10" fill="none" xmlns="http://www.w3.org/2000/svg" xmlns:xlink="http://www.w3.org/1999/xlink">
	<desc>
			Created with Pixso.
	</desc>
	<defs/>
	<rect id="PayPal White S" width="22.000000" height="10.000000" fill="#FFFFFF" fill-opacity="0"/>
	<path id="Union" d="M9.6 2.75C9.76 2.55 9.87 2.27 9.84 2C9.61 2 9.32 2.15 9.15 2.35C9 2.53 8.87 2.81 8.9 3.08C9.17 3.1 9.43 2.94 9.6 2.75ZM14.3 2.68Q13.98 2.58 13.56 2.58L12.28 2.58L12.28 7.04L13.17 7.04L13.17 5.45L13.56 5.45Q14.45 5.45 14.85 5.08C15.11 4.83 15.25 4.48 15.25 4.02Q15.25 3.69 15.14 3.43C15.07 3.25 14.96 3.1 14.82 2.98Q14.62 2.79 14.3 2.68ZM10.19 4.49C10.18 3.91 10.65 3.62 10.7 3.6L10.7 3.6C10.42 3.19 9.99 3.14 9.84 3.13C9.61 3.11 9.4 3.19 9.22 3.26C9.11 3.31 9.01 3.35 8.94 3.35C8.86 3.35 8.76 3.31 8.65 3.26C8.5 3.21 8.34 3.14 8.16 3.14C7.76 3.15 7.4 3.37 7.19 3.73C6.78 4.45 7.09 5.52 7.49 6.1C7.69 6.38 7.92 6.7 8.23 6.69C8.53 6.68 8.64 6.5 9 6.5C9.18 6.5 9.3 6.55 9.41 6.6C9.52 6.65 9.62 6.69 9.78 6.69C10.1 6.68 10.3 6.4 10.5 6.11C10.72 5.78 10.82 5.46 10.82 5.44C10.81 5.44 10.2 5.2 10.19 4.49ZM14.13 4.56Q13.95 4.75 13.56 4.75L13.17 4.75L13.17 3.28L13.56 3.28Q13.95 3.28 14.13 3.47Q14.31 3.66 14.31 4.02Q14.31 4.37 14.13 4.56ZM15.59 3.91C15.79 3.83 15.98 3.77 16.17 3.74C16.35 3.71 16.56 3.69 16.78 3.69C17.11 3.69 17.36 3.73 17.55 3.82C17.74 3.9 17.89 4.01 17.98 4.14C18.08 4.26 18.14 4.4 18.16 4.55C18.19 4.7 18.2 4.84 18.2 4.96L18.2 7.04L17.38 7.04L17.38 6.56L17.36 6.56C17.35 6.59 17.32 6.64 17.28 6.7C17.24 6.76 17.17 6.82 17.1 6.88C17.02 6.94 16.92 6.99 16.8 7.03C16.68 7.07 16.53 7.09 16.35 7.09Q16.05 7.09 15.83 7.01C15.69 6.95 15.57 6.87 15.48 6.78Q15.39 6.69 15.33 6.58Q15.29 6.52 15.27 6.46C15.23 6.34 15.21 6.21 15.21 6.09Q15.21 5.91 15.26 5.72C15.3 5.6 15.38 5.48 15.49 5.37C15.61 5.26 15.77 5.17 15.98 5.1C16.19 5.03 16.46 5 16.81 5C16.89 5 16.97 5 17.05 5L17.36 5L17.36 4.86C17.36 4.77 17.34 4.69 17.3 4.62C17.26 4.55 17.21 4.49 17.14 4.44C17.07 4.4 16.99 4.36 16.9 4.33C16.82 4.31 16.72 4.3 16.63 4.3C16.49 4.3 16.33 4.31 16.17 4.35C16 4.39 15.81 4.47 15.59 4.59L15.59 3.91ZM18.96 8.42C19.04 8.44 19.13 8.46 19.21 8.46C19.43 8.46 19.62 8.43 19.77 8.37C19.92 8.31 20.04 8.23 20.13 8.13C20.23 8.04 20.31 7.93 20.36 7.81C20.43 7.69 20.48 7.57 20.53 7.44L21.89 3.74L21.03 3.74L20.45 5.54L20.25 6.19L20.21 6.19L20.03 5.56L19.43 3.74L18.5 3.74L19.77 7.23L19.69 7.42C19.63 7.56 19.56 7.66 19.46 7.71C19.37 7.76 19.25 7.79 19.11 7.79C19.01 7.79 18.93 7.78 18.87 7.75C18.82 7.74 18.76 7.72 18.71 7.7L18.71 8.36C18.79 8.39 18.87 8.41 18.96 8.42ZM17.21 5.54Q17.04 5.54 16.83 5.56C16.7 5.56 16.58 5.58 16.46 5.61C16.35 5.65 16.25 5.7 16.18 5.77Q16.16 5.79 16.15 5.81L16.15 5.81Q16.07 5.91 16.07 6.08C16.07 6.2 16.11 6.3 16.19 6.38C16.27 6.47 16.4 6.51 16.59 6.51C16.67 6.51 16.76 6.49 16.85 6.47C16.94 6.44 17.03 6.4 17.1 6.33C17.18 6.27 17.24 6.18 17.28 6.07Q17.36 5.89 17.36 5.63L17.36 5.54L17.21 5.54Z" fill="#FFFFFF" fill-opacity="1.000000" fill-rule="evenodd"/>
</svg>
