<svg width="28" height="20" viewBox="0 0 28 20" fill="none" xmlns="http://www.w3.org/2000/svg">
<rect width="28" height="20" rx="2" fill="#F0F2F5"/>
<path d="M5.70245 6.0798L5.33331 5.87501C5.33331 5.87501 5.8255 5 7.30229 5C10.2552 5 10.2552 8.50002 10.2552 8.50002V9.92191H7.05218L7.15637 7.62502L6.41233 7.91079C6.34627 7.93616 6.30341 8.00048 6.30544 8.07122C6.31215 8.30603 6.12362 8.50002 5.88872 8.50002H5.76288C5.52564 8.50002 5.33331 8.30769 5.33331 8.07045C5.33331 8.06517 5.3338 8.05991 5.33476 8.05472L5.70245 6.0798Z" fill="#29313D"/>
<path d="M11.8545 6.0798L11.4854 5.87501C11.4854 5.87501 11.9776 5 13.4544 5C16.4073 5 16.4073 8.50002 16.4073 8.50002V9.92191H13.2042L13.3084 7.62502L12.5644 7.91079C12.4983 7.93616 12.4555 8.00048 12.4575 8.07122C12.4642 8.30603 12.2757 8.50002 12.0408 8.50002H11.9149C11.6777 8.50002 11.4854 8.30769 11.4854 8.07045C11.4854 8.06517 11.4859 8.05991 11.4868 8.05472L11.8545 6.0798Z" fill="#29313D"/>
<path d="M18.0068 6.0798L17.6376 5.87501C17.6376 5.87501 18.1298 5 19.6066 5C22.5595 5 22.5595 8.50002 22.5595 8.50002V9.92191H19.3565L19.4607 7.62502L18.7166 7.91079C18.6506 7.93616 18.6077 8.00048 18.6097 8.07122C18.6165 8.30603 18.4279 8.50002 18.193 8.50002H18.0672C17.8299 8.50002 17.6376 8.30769 17.6376 8.07045C17.6376 8.06517 17.6381 8.05991 17.6391 8.05472L18.0068 6.0798Z" fill="#29313D"/>
<path d="M5.99049 12.5485H4.26661C4.11936 12.5485 4 12.6735 4 12.8277C4 12.9819 4.11936 13.1069 4.26661 13.1069H4.86195V15.3616C4.86195 15.5158 4.98131 15.6408 5.12856 15.6408C5.2758 15.6408 5.39516 15.5158 5.39516 15.3616V13.1069H5.99049C6.13774 13.1069 6.2571 12.9819 6.2571 12.8277C6.2571 12.6735 6.13774 12.5485 5.99049 12.5485Z" fill="#29313D"/>
<path d="M8.71098 12.5485H7.88492C7.73767 12.5485 7.61832 12.6735 7.61832 12.8277V15.3616C7.61832 15.5158 7.73767 15.6408 7.88492 15.6408C8.03217 15.6408 8.15153 15.5158 8.15153 15.3616V14.4214H8.71098C9.20405 14.4214 9.60518 14.0013 9.60518 13.4849C9.60518 12.9686 9.20405 12.5485 8.71098 12.5485ZM8.71098 13.863H8.15153V13.1069H8.71098C8.91002 13.1069 9.07197 13.2765 9.07197 13.4849C9.07197 13.6934 8.91002 13.863 8.71098 13.863Z" fill="#29313D"/>
<path d="M11.8792 12.5485C11.3079 12.5485 10.8431 13.085 10.8431 13.7446V14.4447C10.8431 15.1042 11.3079 15.6408 11.8792 15.6408C12.4505 15.6408 12.9153 15.1042 12.9153 14.4447V13.7446C12.9153 13.085 12.4505 12.5485 11.8792 12.5485ZM12.4316 14.4447C12.4316 14.7963 12.1838 15.0824 11.8792 15.0824C11.5746 15.0824 11.3269 14.7963 11.3269 14.4447V13.7446C11.3269 13.3929 11.5746 13.1069 11.8792 13.1069C12.1838 13.1069 12.4316 13.3929 12.4316 13.7446V14.4447Z" fill="#29313D"/>
<path d="M20.3042 15.0825H20.0788L19.4476 14.0948L20.158 12.9831C20.2399 12.855 20.2071 12.6816 20.0848 12.5958C19.9624 12.5101 19.7968 12.5444 19.7149 12.6725L18.9844 13.8156H18.5848V12.833C18.5848 12.6788 18.4654 12.5538 18.3181 12.5538C18.1709 12.5538 18.0515 12.6788 18.0515 12.833V15.3617C18.0515 15.5159 18.1709 15.6409 18.3181 15.6409C18.4654 15.6409 18.5848 15.5159 18.5848 15.3617V14.374H18.9844L19.7149 15.517C19.7644 15.5944 19.8475 15.6409 19.9365 15.6409H20.3042C20.4514 15.6409 20.5708 15.5159 20.5708 15.3617C20.5708 15.2075 20.4514 15.0825 20.3042 15.0825Z" fill="#29313D"/>
<path d="M23.9814 15.2847L23.836 14.8994C23.8318 14.8411 23.8107 14.7878 23.7776 14.745L23.0245 12.7507C22.9836 12.6424 22.8837 12.5717 22.7716 12.5743C22.6604 12.5764 22.5622 12.6507 22.5252 12.7605L21.8523 14.7571C21.8232 14.7992 21.8052 14.8501 21.8024 14.9054L21.6748 15.284C21.6258 15.4294 21.6986 15.5889 21.8374 15.6402C21.9763 15.6915 22.1286 15.6153 22.1776 15.4698L22.2686 15.1996H23.3759L23.4856 15.4901C23.527 15.5997 23.6274 15.6666 23.7336 15.6666C23.7662 15.6666 23.7994 15.6603 23.8315 15.647C23.9685 15.5903 24.0356 15.4281 23.9814 15.2847ZM22.4568 14.6412L22.7908 13.6502L23.165 14.6412H22.4568Z" fill="#29313D"/>
<path d="M16.1715 12.5485C16.0242 12.5485 15.9048 12.6735 15.9048 12.8277V13.1724L14.7716 14.2596V12.8277C14.7716 12.6735 14.6522 12.5485 14.505 12.5485C14.3577 12.5485 14.2384 12.6735 14.2384 12.8277V15.3616C14.2384 15.5158 14.3577 15.6408 14.505 15.6408C14.6522 15.6408 14.7716 15.5158 14.7716 15.3616V15.0169L15.9048 13.9297V15.3616C15.9048 15.5158 16.0242 15.6408 16.1715 15.6408C16.3187 15.6408 16.4381 15.5158 16.4381 15.3616V12.8277C16.4381 12.6735 16.3187 12.5485 16.1715 12.5485Z" fill="#29313D"/>
<path d="M15.3385 12.3088C15.5078 12.3088 15.6451 12.165 15.6451 11.9877C15.6451 11.8103 15.5078 11.6666 15.3385 11.6666C15.1692 11.6666 15.0319 11.8103 15.0319 11.9877C15.0319 12.165 15.1692 12.3088 15.3385 12.3088Z" fill="#29313D"/>
</svg>
