<svg width="40" height="40" viewBox="0 0 40 40" fill="none" xmlns="http://www.w3.org/2000/svg">
<rect x="6" y="10" width="28" height="20" rx="2" fill="#F0F2F5"/>
<path d="M11.7025 16.0798L11.3333 15.875C11.3333 15.875 11.8255 15 13.3023 15C16.2552 15 16.2552 18.5 16.2552 18.5V19.9219H13.0522L13.1564 17.625L12.4123 17.9108C12.3463 17.9362 12.3034 18.0005 12.3054 18.0712C12.3121 18.306 12.1236 18.5 11.8887 18.5H11.7629C11.5256 18.5 11.3333 18.3077 11.3333 18.0704C11.3333 18.0652 11.3338 18.0599 11.3348 18.0547L11.7025 16.0798Z" fill="#29313D"/>
<path d="M17.8545 16.0798L17.4854 15.875C17.4854 15.875 17.9776 15 19.4544 15C22.4073 15 22.4073 18.5 22.4073 18.5V19.9219H19.2042L19.3084 17.625L18.5644 17.9108C18.4983 17.9362 18.4555 18.0005 18.4575 18.0712C18.4642 18.306 18.2757 18.5 18.0408 18.5H17.9149C17.6777 18.5 17.4854 18.3077 17.4854 18.0704C17.4854 18.0652 17.4859 18.0599 17.4868 18.0547L17.8545 16.0798Z" fill="#29313D"/>
<path d="M24.0068 16.0798L23.6376 15.875C23.6376 15.875 24.1298 15 25.6066 15C28.5595 15 28.5595 18.5 28.5595 18.5V19.9219H25.3565L25.4607 17.625L24.7166 17.9108C24.6506 17.9362 24.6077 18.0005 24.6097 18.0712C24.6165 18.306 24.4279 18.5 24.193 18.5H24.0672C23.8299 18.5 23.6376 18.3077 23.6376 18.0704C23.6376 18.0652 23.6381 18.0599 23.6391 18.0547L24.0068 16.0798Z" fill="#29313D"/>
<path d="M11.9905 22.5485H10.2666C10.1194 22.5485 10 22.6735 10 22.8277C10 22.9819 10.1194 23.1069 10.2666 23.1069H10.8619V25.3616C10.8619 25.5158 10.9813 25.6408 11.1286 25.6408C11.2758 25.6408 11.3952 25.5158 11.3952 25.3616V23.1069H11.9905C12.1377 23.1069 12.2571 22.9819 12.2571 22.8277C12.2571 22.6735 12.1377 22.5485 11.9905 22.5485Z" fill="#29313D"/>
<path d="M14.711 22.5485H13.8849C13.7377 22.5485 13.6183 22.6735 13.6183 22.8277V25.3616C13.6183 25.5158 13.7377 25.6408 13.8849 25.6408C14.0322 25.6408 14.1515 25.5158 14.1515 25.3616V24.4214H14.711C15.204 24.4214 15.6052 24.0013 15.6052 23.4849C15.6052 22.9686 15.204 22.5485 14.711 22.5485ZM14.711 23.863H14.1515V23.1069H14.711C14.91 23.1069 15.072 23.2765 15.072 23.4849C15.072 23.6934 14.91 23.863 14.711 23.863Z" fill="#29313D"/>
<path d="M17.8792 22.5485C17.3079 22.5485 16.8431 23.085 16.8431 23.7446V24.4447C16.8431 25.1042 17.3079 25.6408 17.8792 25.6408C18.4505 25.6408 18.9153 25.1042 18.9153 24.4447V23.7446C18.9153 23.085 18.4505 22.5485 17.8792 22.5485ZM18.4316 24.4447C18.4316 24.7963 18.1838 25.0824 17.8792 25.0824C17.5746 25.0824 17.3269 24.7963 17.3269 24.4447V23.7446C17.3269 23.3929 17.5746 23.1069 17.8792 23.1069C18.1838 23.1069 18.4316 23.3929 18.4316 23.7446V24.4447Z" fill="#29313D"/>
<path d="M26.3042 25.0825H26.0788L25.4476 24.0948L26.158 22.9831C26.2399 22.855 26.2071 22.6816 26.0848 22.5958C25.9624 22.5101 25.7968 22.5444 25.7149 22.6725L24.9844 23.8156H24.5848V22.833C24.5848 22.6788 24.4654 22.5538 24.3181 22.5538C24.1709 22.5538 24.0515 22.6788 24.0515 22.833V25.3617C24.0515 25.5159 24.1709 25.6409 24.3181 25.6409C24.4654 25.6409 24.5848 25.5159 24.5848 25.3617V24.374H24.9844L25.7149 25.517C25.7644 25.5944 25.8475 25.6409 25.9365 25.6409H26.3042C26.4514 25.6409 26.5708 25.5159 26.5708 25.3617C26.5708 25.2075 26.4514 25.0825 26.3042 25.0825Z" fill="#29313D"/>
<path d="M29.9814 25.2847L29.836 24.8994C29.8318 24.8411 29.8107 24.7878 29.7776 24.745L29.0245 22.7507C28.9836 22.6424 28.8837 22.5717 28.7716 22.5743C28.6604 22.5764 28.5622 22.6507 28.5252 22.7605L27.8523 24.7571C27.8232 24.7992 27.8052 24.8501 27.8024 24.9054L27.6748 25.284C27.6258 25.4294 27.6986 25.5889 27.8374 25.6402C27.9763 25.6915 28.1286 25.6153 28.1776 25.4698L28.2686 25.1996H29.3759L29.4856 25.4901C29.527 25.5997 29.6274 25.6666 29.7336 25.6666C29.7662 25.6666 29.7994 25.6603 29.8315 25.647C29.9685 25.5903 30.0356 25.4281 29.9814 25.2847ZM28.4568 24.6412L28.7908 23.6502L29.165 24.6412H28.4568Z" fill="#29313D"/>
<path d="M22.1715 22.5485C22.0242 22.5485 21.9048 22.6735 21.9048 22.8277V23.1724L20.7716 24.2596V22.8277C20.7716 22.6735 20.6522 22.5485 20.505 22.5485C20.3577 22.5485 20.2384 22.6735 20.2384 22.8277V25.3616C20.2384 25.5158 20.3577 25.6408 20.505 25.6408C20.6522 25.6408 20.7716 25.5158 20.7716 25.3616V25.0169L21.9048 23.9297V25.3616C21.9048 25.5158 22.0242 25.6408 22.1715 25.6408C22.3187 25.6408 22.4381 25.5158 22.4381 25.3616V22.8277C22.4381 22.6735 22.3187 22.5485 22.1715 22.5485Z" fill="#29313D"/>
<path d="M21.3385 22.3088C21.5078 22.3088 21.6451 22.165 21.6451 21.9877C21.6451 21.8103 21.5078 21.6666 21.3385 21.6666C21.1692 21.6666 21.0319 21.8103 21.0319 21.9877C21.0319 22.165 21.1692 22.3088 21.3385 22.3088Z" fill="#29313D"/>
</svg>
