<svg width="40.000000" height="40.000000" viewBox="0 0 40 40" fill="none" xmlns="http://www.w3.org/2000/svg" xmlns:xlink="http://www.w3.org/1999/xlink">
	<desc>
			Created with Pixso.
	</desc>
	<defs/>
	<rect id="Troyka L" width="40.000000" height="40.000000" fill="#FFFFFF" fill-opacity="0"/>
	<rect id="Troyka M" width="28.000000" height="20.000000" transform="translate(6.000000 10.000000)" fill="#FFFFFF" fill-opacity="0"/>
	<rect id="BG" x="6.000000" y="10.000000" rx="2.000000" width="28.000000" height="20.000000" fill="#F0F2F5" fill-opacity="1.000000"/>
	<path id="Union" d="M11.33 15.87L11.7 16.07L11.33 18.05C11.33 18.05 11.33 18.06 11.33 18.07C11.33 18.3 11.52 18.5 11.76 18.5L11.88 18.5C12.11 18.5 12.3 18.31 12.3 18.08L12.3 18.07L12.3 18.06C12.3 17.99 12.34 17.93 12.41 17.91L13.15 17.62L13.05 19.92L16.25 19.92L16.25 18.5C16.25 18.5 16.25 15 13.3 15C11.82 15 11.33 15.87 11.33 15.87ZM17.48 15.87L17.85 16.07L17.48 18.05C17.48 18.05 17.48 18.06 17.48 18.07C17.48 18.3 17.67 18.5 17.91 18.5L18.04 18.5C18.27 18.5 18.45 18.31 18.45 18.08L18.45 18.07L18.45 18.06C18.45 17.99 18.49 17.93 18.56 17.91L19.3 17.62L19.2 19.92L22.4 19.92L22.4 18.5C22.4 18.5 22.4 15 19.45 15C17.97 15 17.48 15.87 17.48 15.87ZM23.63 15.87L24 16.07L23.63 18.05C23.63 18.05 23.63 18.06 23.63 18.07C23.63 18.3 23.83 18.5 24.06 18.5L24.19 18.5C24.42 18.5 24.6 18.31 24.6 18.08L24.6 18.07L24.6 18.06C24.6 17.99 24.65 17.93 24.71 17.91L25.46 17.62L25.35 19.92L28.55 19.92L28.55 18.5C28.55 18.5 28.55 15 25.6 15C24.12 15 23.63 15.87 23.63 15.87ZM21.33 22.3C21.5 22.3 21.64 22.16 21.64 21.98C21.64 21.81 21.5 21.66 21.33 21.66C21.16 21.66 21.03 21.81 21.03 21.98C21.03 22.16 21.16 22.3 21.33 22.3ZM11.99 22.54L10.26 22.54C10.11 22.54 10 22.67 10 22.82C10 22.98 10.11 23.1 10.26 23.1L10.86 23.1L10.86 25.36C10.86 25.51 10.98 25.64 11.12 25.64C11.27 25.64 11.39 25.51 11.39 25.36L11.39 23.1L11.99 23.1C12.13 23.1 12.25 22.98 12.25 22.82C12.25 22.67 12.13 22.54 11.99 22.54ZM14.71 22.54L13.88 22.54C13.73 22.54 13.61 22.67 13.61 22.82L13.61 25.36C13.61 25.51 13.73 25.64 13.88 25.64C14.03 25.64 14.15 25.51 14.15 25.36L14.15 24.42L14.71 24.42C15.2 24.42 15.6 24 15.6 23.48C15.6 22.96 15.2 22.54 14.71 22.54ZM17.87 22.54C17.3 22.54 16.84 23.08 16.84 23.74L16.84 24.44C16.84 25.1 17.3 25.64 17.87 25.64C18.45 25.64 18.91 25.1 18.91 24.44L18.91 23.74C18.91 23.08 18.45 22.54 17.87 22.54ZM22.17 22.54C22.02 22.54 21.9 22.67 21.9 22.82L21.9 23.17L20.77 24.25L20.77 22.82C20.77 22.67 20.65 22.54 20.5 22.54C20.35 22.54 20.23 22.67 20.23 22.82L20.23 25.36C20.23 25.51 20.35 25.64 20.5 25.64C20.65 25.64 20.77 25.51 20.77 25.36L20.77 25.01L21.9 23.92L21.9 25.36C21.9 25.51 22.02 25.64 22.17 25.64C22.31 25.64 22.43 25.51 22.43 25.36L22.43 22.82C22.43 22.67 22.31 22.54 22.17 22.54ZM26.3 25.08L26.07 25.08L25.44 24.09L26.15 22.98C26.18 22.93 26.2 22.88 26.2 22.82C26.2 22.73 26.16 22.64 26.08 22.59C25.96 22.51 25.79 22.54 25.71 22.67L24.98 23.81L24.58 23.81L24.58 22.83C24.58 22.67 24.46 22.55 24.31 22.55C24.17 22.55 24.05 22.67 24.05 22.83L24.05 25.36C24.05 25.51 24.17 25.64 24.31 25.64C24.46 25.64 24.58 25.51 24.58 25.36L24.58 24.37L24.98 24.37L25.71 25.51C25.76 25.59 25.84 25.64 25.93 25.64L26.3 25.64C26.45 25.64 26.57 25.51 26.57 25.36C26.57 25.2 26.45 25.08 26.3 25.08ZM29.98 25.28L29.83 24.89C29.83 24.84 29.81 24.78 29.77 24.74L29.02 22.75C28.98 22.64 28.88 22.57 28.77 22.57C28.66 22.57 28.56 22.65 28.52 22.76L27.85 24.75C27.82 24.79 27.8 24.85 27.8 24.9L27.67 25.28C27.66 25.31 27.65 25.34 27.65 25.37C27.65 25.49 27.72 25.59 27.83 25.64C27.97 25.69 28.12 25.61 28.17 25.46L28.26 25.19L29.37 25.19L29.48 25.49C29.52 25.59 29.62 25.66 29.73 25.66C29.76 25.66 29.79 25.66 29.83 25.64C29.93 25.6 30 25.49 30 25.38C30 25.35 29.99 25.31 29.98 25.28ZM14.71 23.86L14.15 23.86L14.15 23.1L14.71 23.1C14.91 23.1 15.07 23.27 15.07 23.48C15.07 23.69 14.91 23.86 14.71 23.86ZM18.43 24.44C18.43 24.79 18.18 25.08 17.87 25.08C17.57 25.08 17.32 24.79 17.32 24.44L17.32 23.74C17.32 23.39 17.57 23.1 17.87 23.1C18.18 23.1 18.43 23.39 18.43 23.74L18.43 24.44ZM28.45 24.64L28.79 23.65L29.16 24.64L28.45 24.64Z" fill="#29313D" fill-opacity="1.000000" fill-rule="evenodd"/>
</svg>
