<svg width="40" height="40" viewBox="0 0 40 40" fill="none" xmlns="http://www.w3.org/2000/svg">
<rect x="6" y="10" width="28" height="20" rx="2" fill="#F0F2F5"/>
<path fill-rule="evenodd" clip-rule="evenodd" d="M21.343 17.6337C21.5214 17.2473 21.9079 17 22.3336 17H23.9536V22.9996H22.0446V19.4544H21.9084L20.5643 22.3658C20.3858 22.7523 19.9994 22.9996 19.5741 22.9996H17.9536V17H19.8627V20.5451H19.9994L21.343 17.6337Z" fill="#29313D"/>
<path fill-rule="evenodd" clip-rule="evenodd" d="M24.7715 19.7275V23.0002H26.6766V21.0912H28.7257C29.6158 21.0912 30.371 20.5215 30.6522 19.7275H24.7715Z" fill="#29313D"/>
<path fill-rule="evenodd" clip-rule="evenodd" d="M24.499 17C24.7558 18.3963 25.9775 19.4544 27.4478 19.4544H30.7305C30.757 19.3221 30.7714 19.1854 30.7714 19.0452C30.7714 17.9158 29.8556 17 28.7262 17H24.499Z" fill="#29313D"/>
<path fill-rule="evenodd" clip-rule="evenodd" d="M14.1811 17.7887C14.3161 17.3216 14.7435 17 15.2292 17H17.1356V22.9999H15.2266V19.4544H15.0904L13.9996 22.9999H12.636L11.5452 19.4544H11.4086V22.9999H9.5V17H11.4064C11.8922 17 12.3196 17.3216 12.4545 17.7887L13.2497 20.5456H13.3859L14.1811 17.7887Z" fill="#29313D"/>
</svg>
