<svg width="40" height="40" viewBox="0 0 40 40" fill="none" xmlns="http://www.w3.org/2000/svg">
<rect x="6" y="10" width="28" height="20" rx="2" fill="#F0F2F5"/>
<path d="M14.4261 19.4583C14.4187 18.6346 15.0988 18.2391 15.1296 18.2198C14.7468 17.6599 14.1512 17.5832 13.9387 17.5742C13.4321 17.5229 12.9497 17.8724 12.6929 17.8724C12.4362 17.8724 12.0391 17.5816 11.619 17.5898C11.0661 17.598 10.557 17.911 10.2723 18.4057C9.69846 19.4012 10.1259 20.8767 10.6846 21.6848C10.9582 22.0799 11.2839 22.5249 11.7122 22.5085C12.1248 22.4921 12.2807 22.2419 12.7787 22.2419C13.2767 22.2419 13.417 22.5085 13.853 22.5007C14.2964 22.4921 14.5778 22.0971 14.8494 21.7008C15.1628 21.2422 15.2924 20.7984 15.2998 20.775C15.2899 20.7709 14.4351 20.4431 14.4261 19.4583Z" fill="#2F3441"/>
<path d="M13.6071 17.0394C13.8343 16.7642 13.9877 16.3815 13.9455 16C13.6181 16.0131 13.2219 16.2182 12.9868 16.4935C12.7764 16.7367 12.5918 17.1264 12.6418 17.5001C13.0069 17.5284 13.3798 17.3143 13.6071 17.0394Z" fill="#2F3441"/>
<path d="M19.1007 16.8136C19.4862 16.8136 19.8257 16.8607 20.1192 16.9548C20.4127 17.0489 20.6544 17.1842 20.8443 17.3607C21.0399 17.5313 21.1866 17.7402 21.2845 17.9873C21.3823 18.2285 21.4312 18.4991 21.4312 18.7991C21.4312 19.4404 21.2471 19.9316 20.8788 20.2728C20.5105 20.614 19.9178 20.7847 19.1007 20.7847H18.5483V22.9908H17.3226V16.8136H19.1007ZM19.1007 19.814C19.7912 19.814 20.1365 19.4757 20.1365 18.7991C20.1365 18.1226 19.7912 17.7843 19.1007 17.7843H18.5483V19.814H19.1007Z" fill="#2F3441"/>
<path d="M21.9136 18.6491C22.184 18.5373 22.4487 18.4609 22.7077 18.4197C22.9666 18.3726 23.2486 18.3491 23.5536 18.3491C24.0082 18.3491 24.3649 18.4079 24.6239 18.5256C24.8886 18.6432 25.0871 18.7903 25.2194 18.9668C25.3518 19.1433 25.4352 19.3345 25.4698 19.5404C25.51 19.7463 25.5302 19.9346 25.5302 20.1052V22.9908H24.3822V22.3201H24.3649C24.3419 22.3672 24.3016 22.4348 24.2441 22.5231C24.1865 22.6054 24.1031 22.6878 23.9938 22.7702C23.8844 22.8466 23.7463 22.9143 23.5795 22.9731C23.4126 23.032 23.2083 23.0614 22.9666 23.0614C22.6846 23.0614 22.443 23.0231 22.2416 22.9467C22.0402 22.8643 21.8762 22.7584 21.7496 22.629C21.623 22.4995 21.528 22.3525 21.4647 22.1877C21.4072 22.0171 21.3784 21.8436 21.3784 21.6671C21.3784 21.5083 21.4043 21.3406 21.4561 21.1641C21.5079 20.9876 21.6143 20.8258 21.7755 20.6788C21.9366 20.5258 22.161 20.4023 22.4487 20.3081C22.7364 20.2081 23.1191 20.1581 23.5967 20.1581C23.706 20.1581 23.8154 20.1611 23.9247 20.1669C24.034 20.1669 24.1434 20.1669 24.2527 20.1669H24.3563V19.9728C24.3563 19.8493 24.3275 19.7375 24.27 19.6375C24.2182 19.5375 24.1463 19.4551 24.0542 19.3904C23.9621 19.3257 23.8528 19.2757 23.7262 19.2404C23.6053 19.2051 23.4788 19.1874 23.3464 19.1874C23.1508 19.1874 22.9378 19.2139 22.7077 19.2668C22.4775 19.3139 22.2128 19.4227 21.9136 19.5933V18.6491ZM24.1578 20.917C23.9966 20.917 23.8211 20.9229 23.6312 20.9347C23.4471 20.9406 23.2745 20.967 23.1133 21.0141C22.958 21.0612 22.8285 21.1347 22.7249 21.2347C22.6213 21.3347 22.5696 21.4759 22.5696 21.6583C22.5696 21.823 22.6242 21.9642 22.7336 22.0819C22.8429 22.1936 23.027 22.2495 23.286 22.2495C23.4068 22.2495 23.5305 22.2319 23.6571 22.1966C23.7837 22.1613 23.8988 22.0995 24.0024 22.0113C24.106 21.923 24.1894 21.7995 24.2527 21.6406C24.3218 21.4818 24.3563 21.2788 24.3563 21.0317V20.917H24.1578Z" fill="#2F3441"/>
<path d="M26.9162 24.9498C26.8068 24.9498 26.6917 24.9351 26.5709 24.9057C26.4501 24.8822 26.3378 24.8528 26.2343 24.8175V23.8997C26.3033 23.9291 26.3781 23.9556 26.4587 23.9791C26.5392 24.0085 26.6457 24.0232 26.7781 24.0232C26.9795 24.0232 27.1435 23.9879 27.2701 23.9174C27.4024 23.8468 27.5089 23.7114 27.5894 23.5114L27.693 23.2467L25.9322 18.4197H27.2269L28.0642 20.9435L28.3145 21.8171H28.3576L28.6338 20.9082L29.4452 18.4197H30.6364L28.746 23.5467C28.6828 23.7173 28.6079 23.885 28.5216 24.0497C28.4411 24.2203 28.3346 24.3703 28.2023 24.4998C28.0699 24.6351 27.9002 24.7439 27.693 24.8263C27.4858 24.9086 27.2269 24.9498 26.9162 24.9498Z" fill="#2F3441"/>
</svg>
