<svg width="22" height="10" viewBox="0 0 22 10" fill="none" xmlns="http://www.w3.org/2000/svg">
<path d="M10.1947 4.49623C10.1894 3.90169 10.6803 3.61626 10.7025 3.60234C10.4263 3.19819 9.99636 3.14282 9.84299 3.1363C9.47732 3.09929 9.12912 3.35156 8.94378 3.35156C8.75843 3.35156 8.47181 3.14163 8.16862 3.14756C7.7695 3.15348 7.40206 3.37939 7.19657 3.73647C6.78235 4.45507 7.09087 5.52009 7.49414 6.10338C7.69163 6.38851 7.92672 6.70976 8.23583 6.69792C8.5337 6.68607 8.64621 6.50546 9.00566 6.50546C9.3651 6.50546 9.46637 6.69792 9.7811 6.69229C10.1012 6.68607 10.3043 6.40094 10.5003 6.11492C10.7265 5.7839 10.8201 5.46354 10.8254 5.44666C10.8183 5.4437 10.2012 5.20713 10.1947 4.49623Z" fill="#23262D"/>
<path d="M9.6034 2.75027C9.76743 2.5516 9.87817 2.27535 9.84767 2C9.61138 2.00948 9.32537 2.15752 9.15571 2.35619C9.00382 2.53178 8.87059 2.81305 8.90669 3.0828C9.17022 3.10323 9.43935 2.94866 9.6034 2.75027Z" fill="#23262D"/>
<path d="M13.569 2.58735C13.8473 2.58735 14.0924 2.62132 14.3042 2.68926C14.516 2.7572 14.6905 2.85487 14.8275 2.98226C14.9688 3.1054 15.0747 3.25615 15.1453 3.4345C15.2159 3.6086 15.2512 3.80393 15.2512 4.02049C15.2512 4.48335 15.1183 4.83792 14.8525 5.08421C14.5866 5.3305 14.1588 5.45364 13.569 5.45364H13.1703V7.04603H12.2856V2.58735H13.569ZM13.569 4.75299C14.0674 4.75299 14.3167 4.50883 14.3167 4.02049C14.3167 3.53216 14.0674 3.288 13.569 3.288H13.1703V4.75299H13.569Z" fill="#23262D"/>
<path d="M15.5994 3.91221C15.7946 3.83153 15.9856 3.77633 16.1725 3.7466C16.3595 3.71263 16.563 3.69565 16.7831 3.69565C17.1112 3.69565 17.3688 3.73811 17.5557 3.82304C17.7467 3.90797 17.89 4.01413 17.9856 4.14152C18.0811 4.26891 18.1413 4.40691 18.1662 4.55554C18.1953 4.70416 18.2098 4.84004 18.2098 4.96319V7.04603H17.3812V6.56195H17.3688C17.3521 6.59592 17.3231 6.64475 17.2815 6.70845C17.24 6.76789 17.1798 6.82734 17.1009 6.88679C17.0219 6.942 16.9223 6.99083 16.8018 7.03329C16.6814 7.07576 16.5339 7.09699 16.3595 7.09699C16.1559 7.09699 15.9815 7.06939 15.8361 7.01418C15.6907 6.95473 15.5724 6.8783 15.481 6.78488C15.3896 6.69146 15.3211 6.5853 15.2754 6.4664C15.2338 6.34326 15.2131 6.21799 15.2131 6.0906C15.2131 5.97595 15.2318 5.85493 15.2692 5.72753C15.3065 5.60014 15.3834 5.48337 15.4997 5.37721C15.616 5.2668 15.778 5.17763 15.9856 5.10969C16.1933 5.0375 16.4695 5.00141 16.8143 5.00141C16.8932 5.00141 16.9721 5.00353 17.051 5.00778C17.1299 5.00778 17.2088 5.00778 17.2878 5.00778H17.3625V4.86765C17.3625 4.77847 17.3418 4.69779 17.3002 4.6256C17.2628 4.55341 17.2109 4.49396 17.1445 4.44725C17.078 4.40054 16.9991 4.36445 16.9077 4.33897C16.8205 4.31349 16.7291 4.30076 16.6336 4.30076C16.4924 4.30076 16.3387 4.31986 16.1725 4.35808C16.0064 4.39205 15.8153 4.47061 15.5994 4.59375V3.91221ZM17.2192 5.54919C17.1029 5.54919 16.9763 5.55343 16.8392 5.56193C16.7063 5.56617 16.5817 5.58528 16.4654 5.61925C16.3532 5.65322 16.2598 5.7063 16.185 5.77849C16.1102 5.85068 16.0729 5.95259 16.0729 6.08423C16.0729 6.20313 16.1123 6.30504 16.1912 6.38997C16.2702 6.47065 16.4031 6.51099 16.59 6.51099C16.6772 6.51099 16.7665 6.49825 16.8579 6.47277C16.9493 6.44729 17.0323 6.40271 17.1071 6.33901C17.1819 6.27532 17.2421 6.18614 17.2878 6.07149C17.3376 5.95684 17.3625 5.81034 17.3625 5.63199V5.54919H17.2192Z" fill="#23262D"/>
<path d="M19.2102 8.46007C19.1313 8.46007 19.0483 8.44946 18.961 8.42823C18.8738 8.41124 18.7928 8.39001 18.7181 8.36453V7.7021C18.7679 7.72333 18.8219 7.74244 18.88 7.75942C18.9382 7.78065 19.015 7.79127 19.1106 7.79127C19.2559 7.79127 19.3743 7.76579 19.4657 7.71484C19.5612 7.66388 19.6381 7.56621 19.6962 7.42183L19.771 7.23075L18.5 3.7466H19.4345L20.0389 5.5683L20.2196 6.19888H20.2507L20.4501 5.54282L21.0357 3.7466H21.8955L20.5311 7.44731C20.4854 7.57046 20.4314 7.69148 20.3691 7.81038C20.3109 7.93352 20.2341 8.04181 20.1386 8.13523C20.043 8.23289 19.9205 8.31145 19.771 8.3709C19.6214 8.43035 19.4345 8.46007 19.2102 8.46007Z" fill="#23262D"/>
</svg>
