<svg width="28" height="20" viewBox="0 0 28 20" fill="none" xmlns="http://www.w3.org/2000/svg">
<rect width="28" height="20" rx="2" fill="#F0F2F5"/>
<path d="M8.42605 9.45825C8.41867 8.63456 9.09879 8.23913 9.12955 8.21985C8.74683 7.65992 8.15122 7.58321 7.93873 7.57419C7.43213 7.52291 6.94973 7.8724 6.69295 7.8724C6.43616 7.8724 6.03908 7.58157 5.61904 7.58978C5.06608 7.59798 4.55702 7.91096 4.27234 8.40567C3.69846 9.40123 4.1259 10.8767 4.68459 11.6848C4.9582 12.0799 5.2839 12.5249 5.71215 12.5085C6.12482 12.4921 6.28069 12.2419 6.77868 12.2419C7.27667 12.2419 7.41696 12.5085 7.853 12.5007C8.29643 12.4921 8.57783 12.0971 8.84939 11.7008C9.16278 11.2422 9.2924 10.7984 9.29979 10.775C9.28994 10.7709 8.43508 10.4431 8.42605 9.45825Z" fill="#2F3441"/>
<path d="M7.60705 7.03945C7.8343 6.7642 7.98771 6.38147 7.94546 6C7.61809 6.01314 7.22186 6.21823 6.98681 6.49348C6.77638 6.73674 6.59179 7.12642 6.64181 7.50013C7.0069 7.52843 7.37976 7.31429 7.60705 7.03945Z" fill="#2F3441"/>
<path d="M13.1007 6.81362C13.4862 6.81362 13.8257 6.86068 14.1192 6.95481C14.4127 7.04894 14.6544 7.18425 14.8443 7.36074C15.0399 7.53135 15.1866 7.74019 15.2845 7.98728C15.3823 8.22848 15.4312 8.4991 15.4312 8.79914C15.4312 9.44038 15.2471 9.93161 14.8788 10.2728C14.5105 10.614 13.9178 10.7847 13.1007 10.7847H12.5483V12.9908H11.3226V6.81362H13.1007ZM13.1007 9.81395C13.7912 9.81395 14.1365 9.47568 14.1365 8.79914C14.1365 8.12259 13.7912 7.78432 13.1007 7.78432H12.5483V9.81395H13.1007Z" fill="#2F3441"/>
<path d="M15.9136 8.64912C16.184 8.53734 16.4487 8.46086 16.7077 8.41968C16.9666 8.37262 17.2486 8.34909 17.5536 8.34909C18.0082 8.34909 18.3649 8.40792 18.6239 8.52558C18.8886 8.64324 19.0871 8.79031 19.2194 8.9668C19.3518 9.14329 19.4352 9.33449 19.4698 9.54039C19.51 9.7463 19.5302 9.93456 19.5302 10.1052V12.9908H18.3822V12.3201H18.3649C18.3419 12.3672 18.3016 12.4348 18.2441 12.5231C18.1865 12.6054 18.1031 12.6878 17.9938 12.7702C17.8844 12.8466 17.7463 12.9143 17.5795 12.9731C17.4126 13.032 17.2083 13.0614 16.9666 13.0614C16.6846 13.0614 16.443 13.0231 16.2416 12.9467C16.0402 12.8643 15.8762 12.7584 15.7496 12.629C15.623 12.4995 15.528 12.3525 15.4647 12.1877C15.4072 12.0171 15.3784 11.8436 15.3784 11.6671C15.3784 11.5083 15.4043 11.3406 15.4561 11.1641C15.5079 10.9876 15.6143 10.8258 15.7755 10.6788C15.9366 10.5258 16.161 10.4023 16.4487 10.3081C16.7364 10.2081 17.1191 10.1581 17.5967 10.1581C17.706 10.1581 17.8154 10.1611 17.9247 10.1669C18.034 10.1669 18.1434 10.1669 18.2527 10.1669H18.3563V9.9728C18.3563 9.84925 18.3275 9.73748 18.27 9.63746C18.2182 9.53745 18.1463 9.45509 18.0542 9.39038C17.9621 9.32566 17.8528 9.27566 17.7262 9.24036C17.6053 9.20506 17.4788 9.18741 17.3464 9.18741C17.1508 9.18741 16.9378 9.21389 16.7077 9.26683C16.4775 9.3139 16.2128 9.42273 15.9136 9.59334V8.64912ZM18.1578 10.917C17.9966 10.917 17.8211 10.9229 17.6312 10.9347C17.4471 10.9406 17.2745 10.967 17.1133 11.0141C16.958 11.0612 16.8285 11.1347 16.7249 11.2347C16.6213 11.3347 16.5696 11.4759 16.5696 11.6583C16.5696 11.823 16.6242 11.9642 16.7336 12.0819C16.8429 12.1936 17.027 12.2495 17.286 12.2495C17.4068 12.2495 17.5305 12.2319 17.6571 12.1966C17.7837 12.1613 17.8988 12.0995 18.0024 12.0113C18.106 11.923 18.1894 11.7995 18.2527 11.6406C18.3218 11.4818 18.3563 11.2788 18.3563 11.0317V10.917H18.1578Z" fill="#2F3441"/>
<path d="M20.9162 14.9498C20.8068 14.9498 20.6917 14.9351 20.5709 14.9057C20.4501 14.8822 20.3378 14.8528 20.2343 14.8175V13.8997C20.3033 13.9291 20.3781 13.9556 20.4587 13.9791C20.5392 14.0085 20.6457 14.0232 20.7781 14.0232C20.9795 14.0232 21.1435 13.9879 21.2701 13.9174C21.4024 13.8468 21.5089 13.7114 21.5894 13.5114L21.693 13.2467L19.9322 8.41968H21.2269L22.0642 10.9435L22.3145 11.8171H22.3576L22.6338 10.9082L23.4452 8.41968H24.6364L22.746 13.5467C22.6828 13.7173 22.6079 13.885 22.5216 14.0497C22.4411 14.2203 22.3346 14.3703 22.2023 14.4998C22.0699 14.6351 21.9002 14.7439 21.693 14.8263C21.4858 14.9086 21.2269 14.9498 20.9162 14.9498Z" fill="#2F3441"/>
</svg>
