<svg width="40" height="40" viewBox="0 0 40 40" fill="none" xmlns="http://www.w3.org/2000/svg">
<rect x="6" y="10" width="28" height="20" rx="2" fill="#F0F2F5"/>
<path fill-rule="evenodd" clip-rule="evenodd" d="M19.275 16.6299L17.7537 23.7424H15.9136L17.435 16.6299H19.275Z" fill="#29313D"/>
<path fill-rule="evenodd" clip-rule="evenodd" d="M30.7718 23.7424H29.0705L28.8474 22.6802H26.487L26.1035 23.7424H24.1709L26.932 17.1513C27.064 16.835 27.362 16.6299 27.7159 16.6299H29.2853L30.7718 23.7424ZM27.9851 18.5518L27.0164 21.2229H28.5422L27.9851 18.5518Z" fill="#29313D"/>
<path fill-rule="evenodd" clip-rule="evenodd" d="M24.2663 21.4205C24.2743 19.5435 21.6715 19.4394 21.6888 18.6006C21.6945 18.3457 21.9375 18.0744 22.4691 18.005C22.7326 17.971 23.4596 17.9435 24.2839 18.3232L24.6062 16.8143C24.1634 16.6543 23.5937 16.5 22.885 16.5C21.066 16.5 19.7863 17.4662 19.776 18.851C19.7644 19.875 20.6903 20.446 21.3862 20.787C22.1038 21.1354 22.3443 21.3591 22.3408 21.6705C22.3358 22.1477 21.7684 22.359 21.2404 22.3669C20.3147 22.3814 19.7782 22.1169 19.3506 21.9174L19.0166 23.4767C19.4472 23.6737 20.2407 23.8454 21.0622 23.8541C22.996 23.8541 24.2607 22.8992 24.2663 21.4205Z" fill="#29313D"/>
<path fill-rule="evenodd" clip-rule="evenodd" d="M16.6457 16.6299L13.6643 23.7424H11.7194L10.2521 18.0661C10.1633 17.7172 10.0857 17.5888 9.8152 17.4414C9.37273 17.2009 8.6422 16.9761 8 16.8364L8.0434 16.6299H11.1745C11.5734 16.6299 11.9321 16.8953 12.0234 17.3547L12.7984 21.4707L14.7126 16.6299H16.6457Z" fill="#29313D"/>
</svg>
