<svg viewBox="0 0 24 24" xmlns="http://www.w3.org/2000/svg" xmlns:xlink="http://www.w3.org/1999/xlink" width="24.000000" height="24.000000" fill="none">
	<rect id="Solid/Pixso Solid" width="24.000000" height="24.000000" x="0.000000" y="0.000000" />
	<path id="Shape" d="M8.16724 6.74219L11.3665 10.2643L11.3665 9.75089C11.3665 8.95108 11.6443 8.26981 12.2014 7.70557C12.7515 7.14984 13.4131 6.87195 14.186 6.87195C14.9604 6.87195 15.6221 7.14984 16.1721 7.70557C16.7278 8.26981 17.0071 8.95108 17.0071 9.75089C17.0071 10.5507 16.7278 11.2319 16.1721 11.7948C15.6221 12.3505 14.9604 12.6298 14.186 12.6298C13.4243 12.6298 12.7712 12.3632 12.2268 11.8244L9.62427 8.95676L7.98682 7.15973C6.88086 5.94382 4.99634 5.85355 3.77905 6.95801L3.11328 7.56171L8.56226 13.5537L9.41138 14.4903L9.44092 14.5185C10.75 15.843 12.3313 16.5017 14.186 16.5017C16.041 16.5017 17.6235 15.8402 18.9326 14.5157C20.1533 13.2819 20.8023 11.8087 20.8786 10.0963C20.8837 9.98222 20.8862 9.86708 20.8862 9.75089C20.8862 7.89178 20.2346 6.3035 18.9326 4.98605C17.6235 3.66156 16.041 3 14.186 3C12.3313 3 10.75 3.66156 9.44092 4.98605C8.90649 5.52631 8.48193 6.11166 8.16724 6.74219ZM7.4873 13.0473L7.4873 21L7.78223 21C9.76123 21 11.3665 19.3976 11.3665 17.4214L11.3665 16.3593C10.8601 16.1407 10.3367 15.8036 9.80078 15.3465C8.84302 14.5327 8.07129 13.7667 7.4873 13.0473Z" fill="rgb(116,118,123)" fill-rule="evenodd" />
</svg>
