<svg width="24.000000" height="24.000000" viewBox="0 0 24 24" fill="none" xmlns="http://www.w3.org/2000/svg" xmlns:xlink="http://www.w3.org/1999/xlink">
	<desc>
			Created with Pixso.
	</desc>
	<defs>
		<clipPath id="clip6973_1275">
			<rect id="Solid / Space Ops Solid" width="24.000000" height="24.000000" fill="white" fill-opacity="0"/>
		</clipPath>
	</defs>
	<g clip-path="url(#clip6973_1275)">
		<path id="Shape" d="M10 12C10 8.68 12.68 6 16 6C19.31 6 22 8.68 22 12C22 15.31 19.31 18 16 18C12.68 18 10 15.31 10 12ZM9 7.09C8.29 7.24 7.62 7.54 7.06 7.95C6.16 8.6 5.56 9.48 5.23 10.45C5.1 10.87 5.02 11.3 5 11.72L5 10C5 9.44 4.54 8.98 4 9.16C3.72 9.26 3.46 9.4 3.22 9.57C2.69 9.95 2.33 10.49 2.14 11.07C1.93 11.69 1.94 12.34 2.14 12.92C2.35 13.55 2.73 14.06 3.22 14.42C3.47 14.6 3.73 14.74 4 14.83C4.54 15.01 5 14.55 5 14L5 12.27C5.02 12.7 5.1 13.13 5.23 13.54C5.58 14.58 6.22 15.44 7.06 16.04C7.66 16.48 8.31 16.76 9 16.9C9.54 17.01 10 16.55 10 16L10 8C10 7.44 9.54 6.98 9 7.09Z" fill="#74767B" fill-opacity="1.000000" fill-rule="evenodd"/>
	</g>
</svg>
