<svg width="24" height="24" viewBox="0 0 24 24" fill="none" xmlns="http://www.w3.org/2000/svg">
<path fill-rule="evenodd" clip-rule="evenodd" d="M7.30444 12.6285C7.04651 12.8782 6.635 12.8715 6.38532 12.6136C6.13564 12.3556 6.14234 11.9441 6.40027 11.6944L11.548 6.71142C11.8 6.46746 12.2002 6.46746 12.4522 6.71142L17.5999 11.6944C17.8579 11.9441 17.8646 12.3556 17.6149 12.6136C17.3652 12.8715 16.9537 12.8782 16.6958 12.6285L12.6488 8.71108L12.6488 19.35C12.6488 19.709 12.3578 20 11.9988 20C11.6399 20 11.3488 19.709 11.3488 19.35L11.3488 8.71352L7.30444 12.6285ZM4.69064 5.3C4.31579 5.3 4.01191 5.00898 4.01191 4.65C4.01191 4.29101 4.31579 4 4.69064 4L19.3095 4C19.6844 4 19.9883 4.29101 19.9883 4.65C19.9883 5.00898 19.6844 5.3 19.3095 5.3L4.69064 5.3Z" fill="#626F84"/>
</svg>
