<svg width="24" height="24" viewBox="0 0 24 24" fill="none" xmlns="http://www.w3.org/2000/svg">
<path fill-rule="evenodd" clip-rule="evenodd" d="M19.35 5.96338C19.709 5.96338 20 6.25439 20 6.61338C20 6.97236 19.709 7.26338 19.35 7.26338H4.65C4.29102 7.26338 4 6.97236 4 6.61338C4 6.25439 4.29101 5.96338 4.65 5.96338H19.35ZM19.35 13.7933C19.709 13.7933 20 14.0843 20 14.4433C20 14.8023 19.709 15.0933 19.35 15.0933H4.65C4.29102 15.0933 4 14.8023 4 14.4433C4 14.0843 4.29101 13.7933 4.65 13.7933H19.35ZM20 10.5283C20 10.1693 19.709 9.8783 19.35 9.8783H11.6422C11.2832 9.8783 10.9922 10.1693 10.9922 10.5283C10.9922 10.8873 11.2832 11.1783 11.6422 11.1783H19.35C19.709 11.1783 20 10.8873 20 10.5283ZM19.35 17.7083C19.709 17.7083 20 17.9993 20 18.3583C20 18.7172 19.709 19.0083 19.35 19.0083H11.6422C11.2832 19.0083 10.9922 18.7172 10.9922 18.3583C10.9922 17.9993 11.2832 17.7083 11.6422 17.7083H19.35Z" fill="#626F84"/>
</svg>
