<svg width="24" height="24" viewBox="0 0 24 24" fill="none" xmlns="http://www.w3.org/2000/svg">
<path fill-rule="evenodd" clip-rule="evenodd" d="M12.6496 16.0725L12.6496 21.4009C12.6496 21.7599 12.3586 22.0509 11.9996 22.0509C11.6406 22.0509 11.3496 21.7599 11.3496 21.4009L11.3496 16.0734L8.89592 18.5271C8.64208 18.7809 8.23052 18.7809 7.97668 18.5271C7.72284 18.2733 7.72284 17.8617 7.97668 17.6079L11.5404 14.0441C11.7943 13.7903 12.2058 13.7903 12.4597 14.0441L16.0235 17.6079C16.2773 17.8617 16.2773 18.2733 16.0235 18.5271C15.7696 18.7809 15.3581 18.7809 15.1042 18.5271L12.6496 16.0725ZM11.5405 10.0339L7.97668 6.47012C7.72284 6.21628 7.72284 5.80472 7.97668 5.55088C8.23052 5.29704 8.64208 5.29704 8.89592 5.55088L11.3506 8.00552L11.3506 2.67708C11.3506 2.31809 11.6416 2.02708 12.0006 2.02708C12.3595 2.02708 12.6506 2.31809 12.6506 2.67708L12.6506 8.00454L15.1042 5.55088C15.3581 5.29704 15.7696 5.29704 16.0235 5.55088C16.2773 5.80472 16.2773 6.21628 16.0235 6.47012L12.4597 10.0339C12.2058 10.2877 11.7943 10.2877 11.5405 10.0339ZM4.63729 11.35C4.2783 11.35 3.98728 11.641 3.98728 12C3.98728 12.359 4.2783 12.65 4.63729 12.65L19.3632 12.65C19.7222 12.65 20.0132 12.359 20.0132 12C20.0132 11.641 19.7222 11.35 19.3632 11.35L4.63729 11.35Z" fill="#626F84"/>
</svg>
