<svg width="24" height="24" viewBox="0 0 24 24" fill="none" xmlns="http://www.w3.org/2000/svg">
<path fill-rule="evenodd" clip-rule="evenodd" d="M7.31616 12.6285C7.05823 12.8782 6.64672 12.8715 6.39704 12.6136C6.14736 12.3556 6.15405 11.9441 6.41199 11.6944L11.5597 6.71142C11.8118 6.46746 12.2119 6.46746 12.4639 6.71142L17.6116 11.6944C17.8696 11.9441 17.8763 12.3556 17.6266 12.6136C17.3769 12.8715 16.9654 12.8782 16.7075 12.6285L12.6606 8.71108L12.6606 19.35C12.6606 19.709 12.3695 20 12.0106 20C11.6516 20 11.3606 19.709 11.3606 19.35L11.3606 8.71352L7.31616 12.6285ZM4.67483 5.3C4.29997 5.3 3.99609 5.00898 3.99609 4.65C3.99609 4.29101 4.29997 4 4.67483 4L19.3213 4C19.6961 4 20 4.29101 20 4.65C20 5.00898 19.6961 5.3 19.3213 5.3L4.67483 5.3Z" fill="#626F84"/>
</svg>
