<svg width="24" height="24" viewBox="0 0 24 24" fill="none" xmlns="http://www.w3.org/2000/svg">
<path fill-rule="evenodd" clip-rule="evenodd" d="M12.6483 16.0287L12.6483 21.3508C12.6483 21.7093 12.3578 22 11.9993 22C11.6409 22 11.3504 21.7093 11.3504 21.3508L11.3504 16.0296L8.9007 18.4804C8.64727 18.7339 8.23638 18.7339 7.98295 18.4804C7.72952 18.2269 7.72952 17.8158 7.98295 17.5622L11.541 14.0027C11.7944 13.7492 12.2053 13.7492 12.4587 14.0027L16.0167 17.5622C16.2702 17.8158 16.2702 18.2269 16.0167 18.4804C15.7633 18.7339 15.3524 18.7339 15.099 18.4804L12.6483 16.0287ZM11.541 9.99728L7.98295 6.43775C7.72952 6.18422 7.72952 5.77315 7.98295 5.51961C8.23638 5.26607 8.64727 5.26607 8.9007 5.51961L11.3514 7.97133L11.3514 2.64923C11.3514 2.29067 11.6419 2 12.0003 2C12.3587 2 12.6493 2.29067 12.6493 2.64923L12.6493 7.97035L15.099 5.51961C15.3524 5.26607 15.7633 5.26607 16.0167 5.51961C16.2702 5.77315 16.2702 6.18422 16.0167 6.43776L12.4587 9.99728C12.2053 10.2508 11.7944 10.2508 11.541 9.99728ZM4.64895 11.3118C4.29055 11.3118 4 11.6025 4 11.961C4 12.3196 4.29055 12.6103 4.64895 12.6103L19.3511 12.6103C19.7095 12.6103 20 12.3196 20 11.961C20 11.6025 19.7095 11.3118 19.3511 11.3118L4.64895 11.3118Z" fill="#626F84"/>
</svg>
