<svg width="24" height="24" viewBox="0 0 24 24" fill="none" xmlns="http://www.w3.org/2000/svg">
<path fill-rule="evenodd" clip-rule="evenodd" d="M9.22247 19.3875C9.11867 19.3079 9.01889 19.2206 8.92389 19.1256L4.90114 15.1028C3.72957 13.9312 3.72957 12.0317 4.90114 10.8602L10.1289 5.63245L8.60073 4.10431C8.34689 3.85047 8.34689 3.43891 8.60073 3.18507C8.85457 2.93123 9.26613 2.93123 9.51997 3.18507L12.5921 6.25715C12.6096 6.27469 12.6259 6.29297 12.641 6.31191L18.8156 12.4865C18.957 12.6279 19.0253 12.8147 19.0204 13C19.0159 13.173 18.9479 13.3446 18.8159 13.4767L13.1668 19.1258C12.0901 20.2024 10.3987 20.2896 9.22247 19.3875ZM5.32256 13H17.4537L17.4721 12.9815L11.0452 6.55458L5.82038 11.7794C5.48373 12.1161 5.31779 12.5588 5.32256 13Z" fill="#626F84"/>
<path d="M20.5726 18.5C20.5726 19.3284 19.901 20 19.0726 20C18.2441 20 17.5726 19.3284 17.5726 18.5C17.5726 17.3037 18.5269 16.4267 18.9131 16.1207C19.0079 16.0456 19.1372 16.0456 19.232 16.1207C19.6182 16.4267 20.5726 17.3037 20.5726 18.5Z" fill="#626F84"/>
</svg>
