<svg width="24" height="24" viewBox="0 0 24 24" fill="none" xmlns="http://www.w3.org/2000/svg">
<path fill-rule="evenodd" clip-rule="evenodd" d="M6.99641 20.0029C5.34154 20.0029 4 18.6598 4 17.0029V7C4 5.34315 5.34154 4 6.99641 4H17.0036C18.6585 4 20 5.34315 20 7L20 17C20 18.5047 18.8935 19.7507 17.4507 19.9668C17.2988 19.9906 17.1431 20.0029 16.9844 20.0029H6.99641ZM7.54653 15.7521C7.54653 16.1387 7.85956 16.4521 8.2457 16.4521H11.3666C11.3501 16.3948 11.3412 16.3341 11.3412 16.2714V15.0763C11.3412 14.7173 11.6318 14.4263 11.9904 14.4263C12.349 14.4263 12.6396 14.7173 12.6396 15.0763V16.2714C12.6396 16.3341 12.6308 16.3948 12.6142 16.4521H15.7543C16.1404 16.4521 16.4535 16.1387 16.4535 15.7521L16.4535 12.6197C16.3914 12.6394 16.3253 12.6501 16.2567 12.6501H15.063C14.7045 12.6501 14.4138 12.3591 14.4138 12.0001C14.4138 11.6411 14.7045 11.3501 15.063 11.3501H16.2567C16.3253 11.3501 16.3914 11.3607 16.4535 11.3805L16.4535 8.25078C16.4535 7.86418 16.1404 7.55078 15.7543 7.55078H12.615C12.6311 7.6073 12.6396 7.66695 12.6396 7.72861V8.92373C12.6396 9.28272 12.349 9.57373 11.9904 9.57373C11.6318 9.57373 11.3412 9.28272 11.3412 8.92373V7.72861C11.3412 7.66695 11.3498 7.6073 11.3658 7.55078H8.2457C7.85956 7.55078 7.54653 7.86418 7.54653 8.25078V11.3747C7.60298 11.3587 7.66257 11.3501 7.72415 11.3501H8.91784C9.27639 11.3501 9.56706 11.6411 9.56706 12.0001C9.56706 12.3591 9.27639 12.6501 8.91784 12.6501H7.72415C7.66257 12.6501 7.60298 12.6415 7.54653 12.6255V15.7521Z" fill="#626F84"/>
</svg>
