<svg width="24" height="24" viewBox="0 0 24 24" fill="none" xmlns="http://www.w3.org/2000/svg">
<path d="M11.9987 4.06338C11.6396 4.06338 11.3484 4.35348 11.3484 4.71135L11.3484 19.352C11.3484 19.7099 11.6396 20 11.9987 20C12.3579 20 12.649 19.7099 12.649 19.352L12.649 4.71135C12.649 4.35348 12.3579 4.06338 11.9987 4.06338Z" fill="#717681"/>
<path d="M7.72145 11.3789C7.36231 11.3789 7.07117 11.669 7.07117 12.0269C7.07117 12.3848 7.36231 12.6749 7.72145 12.6749H8.9171C9.27624 12.6749 9.56738 12.3848 9.56738 12.0269C9.56738 11.669 9.27624 11.3789 8.9171 11.3789H7.72145Z" fill="#717681"/>
<path d="M15.0723 11.3789C14.7132 11.3789 14.422 11.669 14.422 12.0269C14.422 12.3848 14.7132 12.6749 15.0723 12.6749H16.268C16.6271 12.6749 16.9183 12.3848 16.9183 12.0269C16.9183 11.669 16.6271 11.3789 16.268 11.3789H15.0723Z" fill="#717681"/>
<path d="M7.6516 5.29595C7.46008 5.29595 7.27474 5.31864 7.0978 5.36116C6.74867 5.44507 6.39738 5.23107 6.31317 4.88318C6.22896 4.53529 6.44373 4.18525 6.79286 4.10134C7.0689 4.03499 7.35658 4 7.6516 4H8.30892C8.66806 4 8.9592 4.29011 8.9592 4.64798C8.9592 5.00584 8.66806 5.29595 8.30892 5.29595H7.6516Z" fill="#717681"/>
<path d="M15.0408 4.64798C15.0408 4.29011 15.3319 4 15.6911 4H16.3484C16.6434 4 16.9311 4.03499 17.2071 4.10134C17.5563 4.18525 17.771 4.53529 17.6868 4.88318C17.6026 5.23107 17.2513 5.44507 16.9022 5.36116C16.7253 5.31864 16.5399 5.29595 16.3484 5.29595H15.6911C15.3319 5.29595 15.0408 5.00584 15.0408 4.64798Z" fill="#717681"/>
<path d="M4.88633 6.30496C5.23546 6.38887 5.45022 6.73892 5.36601 7.08681C5.32334 7.26312 5.30057 7.4478 5.30057 7.63864V8.29379C5.30057 8.65166 5.00943 8.94177 4.65028 8.94177C4.29114 8.94177 4 8.65166 4 8.29379V7.63864C4 7.34467 4.03512 7.05801 4.1017 6.78294C4.18591 6.43505 4.5372 6.22105 4.88633 6.30496Z" fill="#717681"/>
<path d="M19.1137 6.30496C19.4628 6.22105 19.8141 6.43505 19.8983 6.78294C19.9649 7.05801 20 7.34467 20 7.63864V8.29379C20 8.65166 19.7089 8.94177 19.3497 8.94177C18.9906 8.94177 18.6994 8.65166 18.6994 8.29379V7.63864C18.6994 7.4478 18.6767 7.26312 18.634 7.08681C18.5498 6.73892 18.7645 6.38887 19.1137 6.30496Z" fill="#717681"/>
<path d="M19.3497 10.6696C19.7089 10.6696 20 10.9597 20 11.3176V12.6279C20 12.9858 19.7089 13.2759 19.3497 13.2759C18.9906 13.2759 18.6994 12.9858 18.6994 12.6279V11.3176C18.6994 10.9597 18.9906 10.6696 19.3497 10.6696Z" fill="#717681"/>
<path d="M4.65028 10.6696C5.00943 10.6696 5.30057 10.9597 5.30057 11.3176V12.6279C5.30057 12.9858 5.00943 13.2759 4.65028 13.2759C4.29114 13.2759 4 12.9858 4 12.6279V11.3176C4 10.9597 4.29114 10.6696 4.65028 10.6696Z" fill="#717681"/>
<path d="M19.3497 15.0037C19.7089 15.0037 20 15.2939 20 15.6517V16.3069C20 16.6008 19.9649 16.8875 19.8983 17.1626C19.8141 17.5105 19.4628 17.7245 19.1137 17.6406C18.7645 17.5566 18.5498 17.2066 18.634 16.8587C18.6767 16.6824 18.6994 16.4977 18.6994 16.3069V15.6517C18.6994 15.2939 18.9906 15.0037 19.3497 15.0037Z" fill="#717681"/>
<path d="M4.65028 15.0037C5.00943 15.0037 5.30057 15.2939 5.30057 15.6517V16.3069C5.30057 16.4977 5.32334 16.6824 5.36601 16.8587C5.45022 17.2066 5.23546 17.5566 4.88633 17.6406C4.5372 17.7245 4.18591 17.5105 4.1017 17.1626C4.03512 16.8875 4 16.6008 4 16.3069V15.6517C4 15.2939 4.29114 15.0037 4.65028 15.0037Z" fill="#717681"/>
<path d="M6.31317 19.0623C6.39738 18.7144 6.74867 18.5004 7.0978 18.5843C7.27474 18.6269 7.46008 18.6496 7.6516 18.6496H8.30892C8.66806 18.6496 8.9592 18.9397 8.9592 19.2975C8.9592 19.6554 8.66806 19.9455 8.30892 19.9455H7.6516C7.35658 19.9455 7.0689 19.9105 6.79285 19.8442C6.44372 19.7603 6.22896 19.4102 6.31317 19.0623Z" fill="#717681"/>
<path d="M17.6868 19.0623C17.771 19.4102 17.5563 19.7603 17.2071 19.8442C16.9311 19.9105 16.6434 19.9455 16.3484 19.9455H15.6911C15.3319 19.9455 15.0408 19.6554 15.0408 19.2975C15.0408 18.9397 15.3319 18.6496 15.6911 18.6496H16.3484C16.5399 18.6496 16.7253 18.6269 16.9022 18.5843C17.2513 18.5004 17.6026 18.7144 17.6868 19.0623Z" fill="#717681"/>
</svg>
