<svg width="24" height="24" viewBox="0 0 24 24" fill="none" xmlns="http://www.w3.org/2000/svg">
<path d="M4.01019 7.55078H4V7C4 5.34315 5.34315 4 7 4H17C18.6569 4 20 5.34315 20 7V7.54449C20.0011 7.58162 20.0017 7.61888 20.0017 7.65625V8.31345C20.0017 8.67244 19.7107 8.96345 19.3517 8.96345C18.9927 8.96345 18.7017 8.67244 18.7017 8.31345V7.65625C18.7017 7.62088 18.7009 7.58572 18.6994 7.55078H12.6243C12.6411 7.60845 12.6501 7.66944 12.6501 7.73252V8.92764C12.6501 9.28662 12.3591 9.57764 12.0001 9.57764C11.6411 9.57764 11.3501 9.28662 11.3501 8.92764V7.73252C11.3501 7.66944 11.3591 7.60845 11.3758 7.55078H5.311C5.30947 7.58572 5.30869 7.62088 5.30869 7.65625V8.31345C5.30869 8.67244 5.01768 8.96345 4.65869 8.96345C4.29971 8.96345 4.00869 8.67244 4.00869 8.31345V7.65625C4.00869 7.62099 4.00919 7.58583 4.01019 7.55078Z" fill="#717681"/>
<path d="M20.0017 11.3467C20.0017 10.9877 19.7107 10.6967 19.3517 10.6967C18.9927 10.6967 18.7017 10.9877 18.7017 11.3467V12.6611C18.7017 13.0201 18.9927 13.3111 19.3517 13.3111C19.7107 13.3111 20.0017 13.0201 20.0017 12.6611V11.3467Z" fill="#717681"/>
<path d="M5.30869 11.3467C5.30869 10.9877 5.01768 10.6967 4.65869 10.6967C4.29971 10.6967 4.00869 10.9877 4.00869 11.3467V12.6611C4.00869 13.0201 4.29971 13.3111 4.65869 13.3111C5.01768 13.3111 5.30869 13.0201 5.30869 12.6611V11.3467Z" fill="#717681"/>
<path d="M20.0017 15.6944C20.0017 15.3354 19.7107 15.0444 19.3517 15.0444C18.9927 15.0444 18.7017 15.3354 18.7017 15.6944V16.3516C18.7017 16.543 18.6789 16.7283 18.6363 16.9051C18.5521 17.2541 18.7668 17.6052 19.1157 17.6894C19.4647 17.7736 19.8159 17.5589 19.9 17.2099C19.9666 16.934 20.0017 16.6465 20.0017 16.3516V15.6944Z" fill="#717681"/>
<path d="M5.30869 15.6944C5.30869 15.3354 5.01768 15.0444 4.65869 15.0444C4.29971 15.0444 4.00869 15.3354 4.00869 15.6944V16.3516C4.00869 16.6465 4.04379 16.934 4.11035 17.2099C4.19452 17.5589 4.54566 17.7736 4.89463 17.6894C5.24361 17.6052 5.45828 17.2541 5.37411 16.9051C5.33145 16.7283 5.30869 16.543 5.30869 16.3516V15.6944Z" fill="#717681"/>
<path d="M7.10514 18.6361C6.75616 18.552 6.40502 18.7666 6.32085 19.1156C6.23668 19.4646 6.45135 19.8157 6.80032 19.8999C7.07625 19.9665 7.3638 20.0016 7.65869 20.0016H8.31572C8.67471 20.0016 8.96572 19.7105 8.96572 19.3516C8.96572 18.9926 8.67471 18.7016 8.31572 18.7016H7.65869C7.46726 18.7016 7.282 18.6788 7.10514 18.6361Z" fill="#717681"/>
<path d="M17.2101 19.8999C17.559 19.8157 17.7737 19.4646 17.6895 19.1156C17.6054 18.7666 17.2542 18.552 16.9052 18.6361C16.7284 18.6788 16.5431 18.7016 16.3517 18.7016H15.6947C15.3357 18.7016 15.0447 18.9926 15.0447 19.3516C15.0447 19.7105 15.3357 20.0016 15.6947 20.0016H16.3517C16.6466 20.0016 16.9341 19.9665 17.2101 19.8999Z" fill="#717681"/>
<path d="M11.3482 18.7016C10.9892 18.7016 10.6982 18.9926 10.6982 19.3516C10.6982 19.7105 10.9892 20.0016 11.3482 20.0016H12.6622C13.0212 20.0016 13.3122 19.7105 13.3122 19.3516C13.3122 18.9926 13.0212 18.7016 12.6622 18.7016H11.3482Z" fill="#717681"/>
<path d="M15.0763 11.354C14.7173 11.354 14.4263 11.645 14.4263 12.004C14.4263 12.363 14.7173 12.654 15.0763 12.654H16.2714C16.6304 12.654 16.9214 12.363 16.9214 12.004C16.9214 11.645 16.6304 11.354 16.2714 11.354H15.0763Z" fill="#717681"/>
<path d="M12.0001 16.9233C11.6411 16.9233 11.3501 16.6323 11.3501 16.2733V15.0782C11.3501 14.7192 11.6411 14.4282 12.0001 14.4282C12.3591 14.4282 12.6501 14.7192 12.6501 15.0782V16.2733C12.6501 16.6323 12.3591 16.9233 12.0001 16.9233Z" fill="#717681"/>
<path d="M7.72861 11.354C7.36963 11.354 7.07861 11.645 7.07861 12.004C7.07861 12.363 7.36963 12.654 7.72861 12.654H8.92373C9.28272 12.654 9.57373 12.363 9.57373 12.004C9.57373 11.645 9.28272 11.354 8.92373 11.354H7.72861Z" fill="#717681"/>
</svg>
