<svg width="24" height="24" viewBox="0 0 24 24" fill="none" xmlns="http://www.w3.org/2000/svg">
<path d="M7.6516 5.3C7.46008 5.3 7.27474 5.32276 7.0978 5.36541C6.74867 5.44959 6.39738 5.23492 6.31317 4.88594C6.22896 4.53696 6.44373 4.18583 6.79286 4.10166C7.0689 4.0351 7.35658 4 7.6516 4H8.30892C8.66806 4 8.9592 4.29101 8.9592 4.65C8.9592 5.00898 8.66806 5.3 8.30892 5.3H7.6516Z" fill="#626F84"/>
<path d="M10.6924 4.65C10.6924 4.29101 10.9835 4 11.3427 4H12.6573C13.0165 4 13.3076 4.29101 13.3076 4.65C13.3076 5.00898 13.0165 5.3 12.6573 5.3H11.3427C10.9835 5.3 10.6924 5.00898 10.6924 4.65Z" fill="#626F84"/>
<path d="M15.0408 4.65C15.0408 4.29101 15.3319 4 15.6911 4H16.3484C16.6434 4 16.9311 4.0351 17.2071 4.10166C17.5563 4.18583 17.771 4.53696 17.6868 4.88594C17.6026 5.23492 17.2513 5.44959 16.9022 5.36541C16.7253 5.32276 16.5399 5.3 16.3484 5.3H15.6911C15.3319 5.3 15.0408 5.00898 15.0408 4.65Z" fill="#626F84"/>
<path d="M4.88633 6.31216C5.23546 6.39633 5.45022 6.74747 5.36601 7.09645C5.32334 7.27331 5.30057 7.45856 5.30057 7.65V8.3072C5.30057 8.66619 5.00943 8.9572 4.65028 8.9572C4.29114 8.9572 4 8.66619 4 8.3072V7.65C4 7.35511 4.03512 7.06756 4.1017 6.79163C4.18591 6.44265 4.5372 6.22799 4.88633 6.31216Z" fill="#626F84"/>
<path d="M19.1137 6.31216C19.4628 6.22799 19.8141 6.44265 19.8983 6.79163C19.9649 7.06756 20 7.35511 20 7.65V8.3072C20 8.66619 19.7089 8.9572 19.3497 8.9572C18.9906 8.9572 18.6994 8.66619 18.6994 8.3072V7.65C18.6994 7.45856 18.6767 7.27331 18.634 7.09645C18.5498 6.74747 18.7645 6.39633 19.1137 6.31216Z" fill="#626F84"/>
<path d="M19.3497 15.0381C19.7089 15.0381 20 15.3291 20 15.6881V16.3453C20 16.6402 19.9649 16.9278 19.8983 17.2037C19.8141 17.5527 19.4628 17.7673 19.1137 17.6832C18.7645 17.599 18.5498 17.2478 18.634 16.8989C18.6767 16.722 18.6994 16.5367 18.6994 16.3453V15.6881C18.6994 15.3291 18.9906 15.0381 19.3497 15.0381Z" fill="#626F84"/>
<path d="M4.65028 15.0381C5.00943 15.0381 5.30057 15.3291 5.30057 15.6881V16.3453C5.30057 16.5367 5.32334 16.722 5.36601 16.8989C5.45022 17.2478 5.23546 17.599 4.88633 17.6832C4.5372 17.7673 4.18591 17.5527 4.1017 17.2037C4.03512 16.9278 4 16.6402 4 16.3453V15.6881C4 15.3291 4.29114 15.0381 4.65028 15.0381Z" fill="#626F84"/>
<path d="M6.31317 19.1094C6.39738 18.7604 6.74867 18.5457 7.0978 18.6299C7.27474 18.6726 7.46008 18.6953 7.6516 18.6953H8.30892C8.66806 18.6953 8.9592 18.9863 8.9592 19.3453C8.9592 19.7043 8.66806 19.9953 8.30892 19.9953H7.6516C7.35658 19.9953 7.0689 19.9602 6.79285 19.8937C6.44372 19.8095 6.22896 19.4583 6.31317 19.1094Z" fill="#626F84"/>
<path d="M17.6868 19.1094C17.771 19.4583 17.5563 19.8095 17.2071 19.8937C16.9311 19.9602 16.6434 19.9953 16.3484 19.9953H15.6911C15.3319 19.9953 15.0408 19.7043 15.0408 19.3453C15.0408 18.9863 15.3319 18.6953 15.6911 18.6953H16.3484C16.5399 18.6953 16.7253 18.6726 16.9022 18.6299C17.2513 18.5457 17.6026 18.7604 17.6868 19.1094Z" fill="#626F84"/>
<path d="M10.6924 19.3453C10.6924 18.9863 10.9835 18.6953 11.3427 18.6953H12.6573C13.0165 18.6953 13.3076 18.9863 13.3076 19.3453C13.3076 19.7043 13.0165 19.9953 12.6573 19.9953H11.3427C10.9835 19.9953 10.6924 19.7043 10.6924 19.3453Z" fill="#626F84"/>
<path d="M11.3445 16.269C11.3445 16.628 11.6357 16.919 11.9948 16.919C12.354 16.919 12.6451 16.628 12.6451 16.269V15.0739C12.6451 14.7149 12.354 14.4239 11.9948 14.4239C11.6357 14.4239 11.3445 14.7149 11.3445 15.0739V16.269Z" fill="#626F84"/>
<path d="M11.3445 8.92138C11.3445 9.28037 11.6357 9.57138 11.9948 9.57138C12.354 9.57138 12.6451 9.28037 12.6451 8.92138V7.72627C12.6451 7.36728 12.354 7.07627 11.9948 7.07627C11.6357 7.07627 11.3445 7.36728 11.3445 7.72627V8.92138Z" fill="#626F84"/>
<path d="M4.00293 11.9937C4.00293 12.3526 4.29407 12.6437 4.65322 12.6437H19.346C19.7052 12.6437 19.9963 12.3526 19.9963 11.9937C19.9963 11.6347 19.7052 11.3436 19.346 11.3436H4.65322C4.29407 11.3436 4.00293 11.6347 4.00293 11.9937Z" fill="#626F84"/>
</svg>
