<svg width="24" height="24" viewBox="0 0 24 24" fill="none" xmlns="http://www.w3.org/2000/svg">
<path d="M16.6247 18.6794C16.5346 18.6899 16.4427 18.6953 16.3494 18.6953H15.6919C15.3329 18.6953 15.0419 18.9863 15.0419 19.3453C15.0419 19.7043 15.3329 19.9953 15.6919 19.9953H15.982L15.9935 19.9954H16.3491C18.0644 19.9954 19.5033 18.8123 19.8943 17.2176L19.8978 17.2037C19.9643 16.9278 19.9994 16.6402 19.9994 16.3453V15.6881L19.9994 15.6802L19.9991 15.6678L19.9991 12.6752C19.9993 12.6684 19.9994 12.6616 19.9994 12.6549V11.3405C19.9994 11.3337 19.9993 11.3269 19.9991 11.3201L19.9991 8.32753C19.9993 8.32078 19.9994 8.314 19.9994 8.3072V7.65C19.9994 7.35511 19.9643 7.06756 19.8978 6.79163C19.8927 6.77074 19.8867 6.75033 19.8798 6.73043C19.5506 5.47562 18.5701 4.48459 17.3214 4.14035C17.2855 4.12426 17.2475 4.11123 17.2078 4.10166C16.9319 4.0351 16.6443 4 16.3494 4H15.6919C15.3329 4 15.0419 4.29101 15.0419 4.65C15.0419 5.00898 15.3329 5.3 15.6919 5.3H15.8826C15.9186 5.30619 15.9557 5.30941 15.9935 5.30941H16.3491C17.647 5.30941 18.6991 6.36154 18.6991 7.65941L18.6991 16.3454C18.6991 17.5501 17.7927 18.543 16.6247 18.6794Z" fill="#626F84"/>
<path d="M7.09645 5.36541C7.27331 5.32276 7.45856 5.3 7.65 5.3H8.30752C8.6665 5.3 8.95752 5.00898 8.95752 4.65C8.95752 4.29101 8.6665 4 8.30752 4H7.65C7.35511 4 7.06756 4.0351 6.79163 4.10166C6.44265 4.18583 6.22799 4.53696 6.31216 4.88594C6.39633 5.23492 6.74747 5.44959 7.09645 5.36541Z" fill="#626F84"/>
<path d="M11.3422 4C10.9832 4 10.6922 4.29101 10.6922 4.65C10.6922 5.00898 10.9832 5.3 11.3422 5.3H12.6572C13.0162 5.3 13.3072 5.00898 13.3072 4.65C13.3072 4.29101 13.0162 4 12.6572 4H11.3422Z" fill="#626F84"/>
<path d="M5.36541 7.09645C5.44959 6.74747 5.23492 6.39633 4.88594 6.31216C4.53697 6.22799 4.18583 6.44265 4.10166 6.79163C4.0351 7.06756 4 7.35511 4 7.65V8.3072C4 8.66619 4.29101 8.9572 4.65 8.9572C5.00899 8.9572 5.3 8.66619 5.3 8.3072V7.65C5.3 7.45856 5.32276 7.27331 5.36541 7.09645Z" fill="#626F84"/>
<path d="M5.3 11.3405C5.3 10.9815 5.00899 10.6905 4.65 10.6905C4.29101 10.6905 4 10.9815 4 11.3405V12.6549C4 13.0138 4.29101 13.3049 4.65 13.3049C5.00899 13.3049 5.3 13.0138 5.3 12.6549V11.3405Z" fill="#626F84"/>
<path d="M5.3 15.6881C5.3 15.3291 5.00899 15.0381 4.65 15.0381C4.29101 15.0381 4 15.3291 4 15.6881V16.3453C4 16.6402 4.0351 16.9278 4.10166 17.2037C4.18583 17.5527 4.53697 17.7673 4.88594 17.6832C5.23492 17.599 5.44959 17.2478 5.36541 16.8989C5.32276 16.722 5.3 16.5367 5.3 16.3453V15.6881Z" fill="#626F84"/>
<path d="M7.09645 18.6299C6.74747 18.5457 6.39633 18.7604 6.31216 19.1094C6.22799 19.4583 6.44265 19.8095 6.79163 19.8937C7.06756 19.9602 7.35511 19.9953 7.65 19.9953H8.30752C8.6665 19.9953 8.95752 19.7043 8.95752 19.3453C8.95752 18.9863 8.6665 18.6953 8.30752 18.6953H7.65C7.45856 18.6953 7.27331 18.6726 7.09645 18.6299Z" fill="#626F84"/>
<path d="M11.3422 18.6953C10.9832 18.6953 10.6922 18.9863 10.6922 19.3453C10.6922 19.7043 10.9832 19.9953 11.3422 19.9953H12.6572C13.0162 19.9953 13.3072 19.7043 13.3072 19.3453C13.3072 18.9863 13.0162 18.6953 12.6572 18.6953H11.3422Z" fill="#626F84"/>
<path d="M11.9942 9.57148C11.6353 9.57148 11.3442 9.28047 11.3442 8.92148V7.72637C11.3442 7.36738 11.6353 7.07637 11.9942 7.07637C12.3532 7.07637 12.6442 7.36738 12.6442 7.72637V8.92148C12.6442 9.28047 12.3532 9.57148 11.9942 9.57148Z" fill="#626F84"/>
<path d="M15.0719 11.3478C14.7129 11.3478 14.4219 11.6389 14.4219 11.9978C14.4219 12.3568 14.7129 12.6478 15.0719 12.6478H16.2681C16.6271 12.6478 16.9181 12.3568 16.9181 11.9978C16.9181 11.6389 16.6271 11.3478 16.2681 11.3478H15.0719Z" fill="#626F84"/>
<path d="M11.9942 16.9172C11.6353 16.9172 11.3442 16.6262 11.3442 16.2672V15.0721C11.3442 14.7131 11.6353 14.4221 11.9942 14.4221C12.3532 14.4221 12.6442 14.7131 12.6442 15.0721V16.2672C12.6442 16.6262 12.3532 16.9172 11.9942 16.9172Z" fill="#626F84"/>
<path d="M7.7208 11.3477C7.36182 11.3477 7.0708 11.6387 7.0708 11.9977C7.0708 12.3567 7.36182 12.6477 7.7208 12.6477H8.91701C9.276 12.6477 9.56701 12.3567 9.56701 11.9977C9.56701 11.6387 9.276 11.3477 8.91701 11.3477H7.7208Z" fill="#626F84"/>
</svg>
