<svg width="24" height="24" viewBox="0 0 24 24" fill="none" xmlns="http://www.w3.org/2000/svg">
<path fill-rule="evenodd" clip-rule="evenodd" d="M17 5.2963H7C6.06112 5.2963 5.3 6.05525 5.3 6.99146V8.91534L18.7 8.91534V6.99146C18.7 6.05525 17.9389 5.2963 17 5.2963ZM5.3 13.7886L5.3 10.2116H8.89551V13.7886H5.3ZM5.3 15.0849V17.0085C5.3 17.9447 6.06112 18.7037 7 18.7037H17C17.9389 18.7037 18.7 17.9447 18.7 17.0085V15.0849H5.3ZM18.7 13.7886H15.0918V10.2116L18.7 10.2116V13.7886ZM13.7918 13.7886V10.2116H10.1955V13.7886H13.7918ZM7 4C5.34315 4 4 5.33932 4 6.99146L4 17.0085C4 18.6607 5.34315 20 7 20H17C18.6569 20 20 18.6607 20 17.0085V6.99146C20 5.33932 18.6569 4 17 4H7Z" fill="#626F84"/>
</svg>
