<svg width="24" height="24" viewBox="0 0 24 24" fill="none" xmlns="http://www.w3.org/2000/svg">
<path fill-rule="evenodd" clip-rule="evenodd" d="M7.02148 4.07025C5.36463 4.07025 4.02148 5.4134 4.02148 7.07025V17.0743C4.02148 18.7312 5.36463 20.0743 7.02148 20.0743H17.0215C18.6783 20.0743 20.0215 18.7312 20.0215 17.0743V7.07025C20.0215 5.4134 18.6783 4.07025 17.0215 4.07025H7.02148ZM11.3677 5.37025H7.02148C6.0826 5.37025 5.32148 6.13137 5.32148 7.07025V8.97881H11.3677V5.37025ZM12.6677 5.37025H17.0215C17.9604 5.37025 18.7215 6.13137 18.7215 7.07025V8.97881H12.6677V5.37025ZM5.32148 13.866L5.32148 10.2788H18.7215V13.866H5.32148ZM5.32148 15.166V17.0743C5.32148 18.0132 6.0826 18.7743 7.02148 18.7743H11.3499V15.166H5.32148ZM12.6499 15.166V18.7743H17.0215C17.9604 18.7743 18.7215 18.0132 18.7215 17.0743V15.166H12.6499Z" fill="#626F84"/>
</svg>
