<svg width="24" height="24" viewBox="0 0 24 24" fill="none" xmlns="http://www.w3.org/2000/svg">
<path d="M6.52256 16.325C6.16357 16.325 5.87256 16.034 5.87256 15.675C5.87256 15.316 6.16357 15.025 6.52256 15.025H10.5909C10.9498 15.025 11.2409 15.316 11.2409 15.675C11.2409 16.034 10.9498 16.325 10.5909 16.325H6.52256Z" fill="#626F84"/>
<path fill-rule="evenodd" clip-rule="evenodd" d="M14.0566 7V7.67501H15.35C15.709 7.67501 16 7.96602 16 8.32501C16 8.68399 15.709 8.97501 15.35 8.97501H14.0566V17C14.0566 18.6569 12.7135 20 11.0566 20H6.05664C4.39979 20 3.05664 18.6569 3.05664 17V7C3.05664 5.34315 4.39979 4 6.05664 4H11.0566C12.7135 4 14.0566 5.34315 14.0566 7ZM6.05664 5.3H11.0566C11.9955 5.3 12.7566 6.06112 12.7566 7V7.67501H6.52256C6.16357 7.67501 5.87256 7.96602 5.87256 8.32501C5.87256 8.68399 6.16357 8.97501 6.52256 8.97501H12.7566V11.35H4.35664V7C4.35664 6.06112 5.11776 5.3 6.05664 5.3ZM4.35664 12.65H12.7566V17C12.7566 17.9389 11.9955 18.7 11.0566 18.7H6.05664C5.11776 18.7 4.35664 17.9389 4.35664 17V12.65Z" fill="#626F84"/>
<path d="M15.5189 16.0966C15.3845 15.9716 15.3093 15.7956 15.3118 15.6121C15.3142 15.4286 15.3941 15.2547 15.5318 15.1333L17.756 13.1716C18.0253 12.9342 18.436 12.96 18.6735 13.2292C18.9109 13.4984 18.8852 13.9092 18.6159 14.1466L17.6199 15.025H19.0276C19.3866 15.025 19.6776 14.734 19.6776 14.375V9.64412C19.6776 9.28514 19.3866 8.99412 19.0276 8.99412H17.9984C17.6394 8.99412 17.3484 8.70311 17.3484 8.34412C17.3484 7.98514 17.6394 7.69412 17.9984 7.69412H19.0276C20.1045 7.69412 20.9776 8.56717 20.9776 9.64412V14.375C20.9776 15.452 20.1045 16.325 19.0276 16.325H17.6726L18.6289 17.215C18.8917 17.4595 18.9064 17.8708 18.6619 18.1336C18.4173 18.3964 18.006 18.4112 17.7432 18.1666L15.5189 16.0966Z" fill="#626F84"/>
</svg>
