<svg width="24" height="24" viewBox="0 0 24 24" fill="none" xmlns="http://www.w3.org/2000/svg">
<path fill-rule="evenodd" clip-rule="evenodd" d="M4.66904 4.00522C5.02803 4.00522 5.31904 4.29623 5.31904 4.65522L5.31904 18.3635C5.31904 18.5568 5.47574 18.7135 5.66904 18.7135H19.3564C19.7153 18.7135 20.0064 19.0045 20.0064 19.3635C20.0064 19.7225 19.7153 20.0135 19.3564 20.0135H5.66904C4.75777 20.0135 4.01904 19.2748 4.01904 18.3635L4.01904 4.65522C4.01904 4.29623 4.31006 4.00522 4.66904 4.00522ZM14.572 10.0783C14.213 10.0783 13.922 10.3693 13.922 10.7283V16.8271C13.922 17.1861 14.213 17.4771 14.572 17.4771C14.931 17.4771 15.222 17.1861 15.222 16.8271V10.7283C15.222 10.3693 14.931 10.0783 14.572 10.0783ZM10.6212 4.74272C10.6212 4.38374 10.9122 4.09272 11.2712 4.09272C11.6302 4.09272 11.9212 4.38373 11.9212 4.74272L11.9212 16.8271C11.9212 17.1861 11.6302 17.4771 11.2712 17.4771C10.9122 17.4771 10.6212 17.1861 10.6212 16.8271L10.6212 4.74272ZM7.96992 10.0783C7.61094 10.0783 7.31992 10.3693 7.31992 10.7283V16.8271C7.31992 17.1861 7.61094 17.4771 7.96992 17.4771C8.32891 17.4771 8.61992 17.1861 8.61992 16.8271V10.7283C8.61992 10.3693 8.32891 10.0783 7.96992 10.0783ZM18.523 16.8271C18.523 17.1861 18.232 17.4771 17.873 17.4771C17.5141 17.4771 17.223 17.1861 17.223 16.8271L17.223 7.74918C17.223 7.39019 17.5141 7.09918 17.873 7.09918C18.232 7.09918 18.523 7.39019 18.523 7.74918V16.8271Z" fill="#626F84"/>
</svg>
