<svg width="24" height="24" viewBox="0 0 24 24" fill="none" xmlns="http://www.w3.org/2000/svg">
<path fill-rule="evenodd" clip-rule="evenodd" d="M4.66904 4.03485C5.02803 4.03485 5.31904 4.32587 5.31904 4.68485L5.31904 18.3038C5.31904 18.4971 5.47574 18.6538 5.66904 18.6538H19.3564C19.7153 18.6538 20.0064 18.9448 20.0064 19.3038C20.0064 19.6628 19.7153 19.9538 19.3564 19.9538H5.66904C4.75777 19.9538 4.01904 19.215 4.01904 18.3038L4.01904 4.68485C4.01904 4.32587 4.31006 4.03485 4.66904 4.03485ZM19.8218 8.09098C19.6938 7.95949 19.5161 7.88825 19.3327 7.89484L16.2961 8.00398C15.9374 8.01688 15.657 8.31816 15.6699 8.67691C15.6828 9.03566 15.9841 9.31604 16.3428 9.30314L17.6767 9.2552L14.0983 12.8336L11.2386 9.97383C11.1167 9.85193 10.9513 9.78345 10.7789 9.78345C10.6065 9.78345 10.4412 9.85193 10.3193 9.97383L6.99995 13.2932C6.74611 13.547 6.74611 13.9586 6.99995 14.2124C7.25379 14.4663 7.66535 14.4663 7.91919 14.2124L10.7789 11.3527L13.6387 14.2124C13.7606 14.3343 13.9259 14.4028 14.0983 14.4028C14.2707 14.4028 14.436 14.3343 14.5579 14.2124L18.603 10.1674L18.5216 11.4636C18.4992 11.8219 18.7714 12.1306 19.1297 12.1531C19.488 12.1755 19.7966 11.9033 19.8191 11.545L20.0048 8.58512C20.0163 8.40196 19.9498 8.22247 19.8218 8.09098Z" fill="#626F84"/>
</svg>
