<svg width="24" height="24" viewBox="0 0 24 24" fill="none" xmlns="http://www.w3.org/2000/svg">
<path fill-rule="evenodd" clip-rule="evenodd" d="M8.70733 12.6674C9.06675 12.6674 9.35812 12.3744 9.35812 12.0128C9.35812 11.6513 9.06675 11.3583 8.70733 11.3583L7.33083 11.3583L7.33083 9.97373C7.33083 9.61221 7.03946 9.31914 6.68004 9.31914C6.32061 9.31914 6.02924 9.61221 6.02924 9.97373L6.02924 11.3583L4.65274 11.3583C4.29332 11.3583 4.00195 11.6513 4.00195 12.0128C4.00195 12.3744 4.29332 12.6674 4.65274 12.6674L6.02924 12.6674L6.02924 14.052C6.02924 14.4135 6.32061 14.7066 6.68004 14.7066C7.03946 14.7066 7.33083 14.4135 7.33083 14.052L7.33083 12.6674L8.70733 12.6674ZM13.6619 18.6908L16.3475 18.6908C17.647 18.6908 18.7004 17.6313 18.7004 16.3242L18.7004 7.67577C18.7004 6.36874 17.647 5.30918 16.3475 5.30918L13.6619 5.30918L13.6619 18.6908ZM12.3603 5.30918L9.36301 5.30918C8.24041 5.30918 7.33036 6.22454 7.33036 7.35369C7.33036 7.71521 7.03899 8.00828 6.67957 8.00828C6.32015 8.00828 6.02878 7.71521 6.02878 7.35369C6.02878 5.5015 7.52156 4 9.36301 4L16.3475 4C18.3658 4 20.002 5.6457 20.002 7.67577L20.002 16.3242C20.002 18.3543 18.3658 20 16.3475 20L9.32693 20C7.50541 20 6.02878 18.5147 6.02878 16.6826C6.02878 16.3211 6.32015 16.028 6.67957 16.028C7.03899 16.028 7.33036 16.3211 7.33036 16.6826C7.33036 17.7917 8.22425 18.6908 9.32693 18.6908L12.3603 18.6908L12.3603 5.30918Z" fill="#626F84"/>
</svg>
