<svg width="24" height="24" viewBox="0 0 24 24" fill="none" xmlns="http://www.w3.org/2000/svg">
<path fill-rule="evenodd" clip-rule="evenodd" d="M4.4183 2.0998C4.70282 1.8809 5.11093 1.93409 5.32983 2.2186L7.99987 5.68892V5.30611C7.99987 4.58814 8.5819 4.00611 9.29987 4.00611H14.6999C15.4178 4.00611 15.9999 4.58814 15.9999 5.30611V16.0867L19.7714 20.9886C19.9903 21.2732 19.9371 21.6813 19.6526 21.9002C19.3681 22.1191 18.96 22.0659 18.7411 21.7814L4.2995 3.01133C4.0806 2.72681 4.13378 2.31871 4.4183 2.0998ZM14.6999 14.3971L14.6999 5.30611H9.29987V7.37856L14.6999 14.3971ZM7.99987 18.7061L7.99987 9.95115L9.29987 11.6408V18.7061L14.6999 18.7061V18.6593L15.5151 19.7188C15.2921 19.8985 15.0085 20.0061 14.6999 20.0061H9.29987C8.5819 20.0061 7.99987 19.4241 7.99987 18.7061Z" fill="#626F84"/>
</svg>
