<svg width="24" height="24" viewBox="0 0 24 24" fill="none" xmlns="http://www.w3.org/2000/svg">
<path fill-rule="evenodd" clip-rule="evenodd" d="M15.2927 12.6674C14.9332 12.6674 14.6419 12.3744 14.6419 12.0128C14.6419 11.6513 14.9332 11.3583 15.2927 11.3583L16.6692 11.3583L16.6692 9.97373C16.6692 9.61221 16.9605 9.31914 17.32 9.31914C17.6794 9.31914 17.9708 9.61221 17.9708 9.97373L17.9708 11.3583L19.3473 11.3583C19.7067 11.3583 19.998 11.6513 19.998 12.0128C19.998 12.3744 19.7067 12.6674 19.3473 12.6674L17.9708 12.6674L17.9708 14.052C17.9708 14.4135 17.6794 14.7066 17.32 14.7066C16.9605 14.7066 16.6692 14.4135 16.6692 14.052L16.6692 12.6674L15.2927 12.6674ZM10.3381 18.6908L7.65249 18.6908C6.35304 18.6908 5.29963 17.6313 5.29963 16.3242L5.29963 7.67577C5.29963 6.36874 6.35304 5.30918 7.65249 5.30918L10.3381 5.30918L10.3381 18.6908ZM11.6397 5.30918L14.637 5.30918C15.7596 5.30918 16.6696 6.22454 16.6696 7.35369C16.6696 7.71521 16.961 8.00828 17.3204 8.00828C17.6799 8.00828 17.9712 7.71521 17.9712 7.35369C17.9712 5.5015 16.4784 4 14.637 4L7.65249 4C5.6342 4 3.99805 5.6457 3.99805 7.67577L3.99805 16.3242C3.99805 18.3543 5.6342 20 7.65249 20L14.6731 20C16.4946 20 17.9712 18.5147 17.9712 16.6826C17.9712 16.3211 17.6799 16.028 17.3204 16.028C16.961 16.028 16.6696 16.3211 16.6696 16.6826C16.6696 17.7917 15.7757 18.6908 14.6731 18.6908L11.6397 18.6908L11.6397 5.30918Z" fill="#626F84"/>
</svg>
