<svg width="24" height="24" viewBox="0 0 24 24" fill="none" xmlns="http://www.w3.org/2000/svg">
<path fill-rule="evenodd" clip-rule="evenodd" d="M15.2946 12.6674C14.9352 12.6674 14.6438 12.3744 14.6438 12.0128C14.6438 11.6513 14.9352 11.3583 15.2946 11.3583L16.6711 11.3583L16.6711 9.97373C16.6711 9.61221 16.9625 9.31914 17.3219 9.31914C17.6813 9.31914 17.9727 9.61221 17.9727 9.97373L17.9727 11.3583L19.3492 11.3583C19.7086 11.3583 20 11.6513 20 12.0128C20 12.3744 19.7086 12.6674 19.3492 12.6674L17.9727 12.6674L17.9727 14.052C17.9727 14.4135 17.6813 14.7066 17.3219 14.7066C16.9625 14.7066 16.6711 14.4135 16.6711 14.052L16.6711 12.6674L15.2946 12.6674ZM10.3401 18.6908L7.65445 18.6908C6.355 18.6908 5.30158 17.6313 5.30158 16.3242L5.30158 7.67577C5.30158 6.36874 6.35499 5.30918 7.65444 5.30918L10.3401 5.30918L10.3401 18.6908ZM11.6416 5.30918L14.6389 5.30918C15.7615 5.30918 16.6716 6.22454 16.6716 7.35369C16.6716 7.71521 16.963 8.00828 17.3224 8.00828C17.6818 8.00828 17.9732 7.71521 17.9732 7.35369C17.9732 5.5015 16.4804 4 14.6389 4L7.65444 4C5.63615 4 4 5.6457 4 7.67577L4 16.3242C4 18.3543 5.63615 20 7.65445 20L14.675 20C16.4965 20 17.9732 18.5147 17.9732 16.6826C17.9732 16.3211 17.6818 16.028 17.3224 16.028C16.963 16.028 16.6716 16.3211 16.6716 16.6826C16.6716 17.7917 15.7777 18.6908 14.675 18.6908L11.6416 18.6908L11.6416 5.30918Z" fill="#626F84"/>
</svg>
