<svg width="24" height="24" viewBox="0 0 24 24" fill="none" xmlns="http://www.w3.org/2000/svg">
<path fill-rule="evenodd" clip-rule="evenodd" d="M4.16675 2.15836C4.45127 1.93946 4.85938 1.99265 5.07828 2.27716L6.40561 4.00232H19.3446C19.7036 4.00232 19.9946 4.29334 19.9946 4.65232C19.9946 5.01131 19.7036 5.30232 19.3446 5.30232H13.52L12.458 11.8688L19.4313 20.9321C19.6502 21.2167 19.597 21.6248 19.3125 21.8437C19.028 22.0626 18.6199 22.0094 18.401 21.7249L4.04795 3.06989C3.82905 2.78538 3.88224 2.37727 4.16675 2.15836ZM11.3699 10.4545L7.40582 5.30232H12.2031L11.3699 10.4545ZM11.891 15.3751L10.8028 13.9608L9.9292 19.3626C9.87188 19.717 10.1127 20.0507 10.4671 20.108C10.8215 20.1653 11.1552 19.9245 11.2125 19.5701L11.891 15.3751Z" fill="#626F84"/>
</svg>
