<svg width="24" height="24" viewBox="0 0 24 24" fill="none" xmlns="http://www.w3.org/2000/svg">
<path fill-rule="evenodd" clip-rule="evenodd" d="M4.97604 2.11957C5.26056 1.90066 5.66867 1.95385 5.88757 2.23837L7.2733 4.03943H16.9785C18.6354 4.03943 19.9785 5.38257 19.9785 7.03943V17.1052C19.9785 17.9743 19.609 18.757 19.0185 19.3049L20.2987 20.9689C20.5176 21.2534 20.4644 21.6615 20.1799 21.8804C19.8954 22.0993 19.4873 22.0461 19.2684 21.7616L4.85725 3.0311C4.63834 2.74658 4.69153 2.33848 4.97604 2.11957ZM18.2198 18.2668C18.5043 17.9629 18.6785 17.5544 18.6785 17.1052V12.65H13.8982L18.2198 18.2668ZM12.898 11.35L12.6321 11.0044V5.33943H16.9785C17.9174 5.33943 18.6785 6.10054 18.6785 7.03943V11.35H12.898ZM11.3321 9.31472L8.27351 5.33943H11.3321L11.3321 9.31472ZM3.97851 7.03943C3.97851 6.26123 4.27481 5.55224 4.76075 5.01912L5.5759 6.07858C5.38829 6.35192 5.27851 6.68285 5.27851 7.03943L5.27851 11.35L9.63171 11.35L10.6319 12.65L5.27851 12.65V17.1052C5.27851 18.0441 6.03963 18.8052 6.97851 18.8052H11.3321V13.56L12.6321 15.2497V18.8052H15.3677L16.3679 20.1052H6.97851C5.32166 20.1052 3.97851 18.7621 3.97851 17.1052V7.03943Z" fill="#626F84"/>
</svg>
