<svg width="24" height="24" viewBox="0 0 24 24" fill="none" xmlns="http://www.w3.org/2000/svg">
<path fill-rule="evenodd" clip-rule="evenodd" d="M4.70645 4.09439C5.06543 4.09439 5.35644 4.38541 5.35644 4.74439L5.35645 19.467C5.35645 19.826 5.06543 20.117 4.70645 20.117C4.34746 20.117 4.05645 19.826 4.05645 19.467L4.05645 4.74439C4.05645 4.38541 4.34746 4.09439 4.70645 4.09439ZM18.7259 12.7554L18.7259 19.467C18.7259 19.826 19.0169 20.117 19.3759 20.117C19.7349 20.117 20.0259 19.826 20.0259 19.467L20.0259 4.74439C20.0259 4.38541 19.7349 4.09439 19.3759 4.09439C19.0169 4.09439 18.7259 4.38541 18.7259 4.74439L18.7259 11.4554L7.66588 11.4554C7.30689 11.4554 7.01588 11.7464 7.01588 12.1054C7.01588 12.4644 7.30689 12.7554 7.66588 12.7554L18.7259 12.7554Z" fill="#626F84"/>
</svg>
