<svg width="24" height="24" viewBox="0 0 24 24" fill="none" xmlns="http://www.w3.org/2000/svg">
<path fill-rule="evenodd" clip-rule="evenodd" d="M4.65124 4C5.01092 4 5.30249 4.2906 5.30249 4.64908L5.30249 19.3509C5.30249 19.7094 5.01092 20 4.65125 20C4.29157 20 4 19.7094 4 19.3509L4 4.64908C4 4.2906 4.29157 4 4.65124 4ZM18.6975 12.6488L18.6975 19.3509C18.6975 19.7094 18.9891 20 19.3488 20C19.7084 20 20 19.7094 20 19.3509L20 4.64908C20 4.2906 19.7084 4 19.3488 4C18.9891 4 18.6975 4.2906 18.6975 4.64908L18.6975 11.3506L7.61634 11.3506C7.25667 11.3506 6.9651 11.6412 6.9651 11.9997C6.9651 12.3582 7.25667 12.6488 7.61634 12.6488L18.6975 12.6488Z" fill="#626F84"/>
</svg>
