<svg width="24" height="24" viewBox="0 0 24 24" fill="none" xmlns="http://www.w3.org/2000/svg">
<path fill-rule="evenodd" clip-rule="evenodd" d="M4.35889 4.7444C4.35889 4.38541 4.06787 4.0944 3.70889 4.0944C3.3499 4.0944 3.05889 4.38541 3.05889 4.7444L3.05889 19.467C3.05889 19.826 3.3499 20.117 3.70889 20.117C4.06787 20.117 4.35889 19.826 4.35889 19.467L4.35889 4.7444ZM20.9497 4.7444C20.9497 4.38541 20.6587 4.0944 20.2997 4.0944C19.9407 4.0944 19.6497 4.38541 19.6497 4.7444L19.6497 19.467C19.6497 19.826 19.9407 20.117 20.2997 20.117C20.6587 20.117 20.9497 19.826 20.9497 19.467L20.9497 4.7444ZM6.18726 15.4436L8.77495 12.8559C9.02879 12.602 9.44035 12.602 9.69419 12.8559C9.94803 13.1097 9.94803 13.5213 9.69419 13.7751L8.13434 15.335L14.3396 15.335C15.6375 15.335 16.6896 14.2828 16.6896 12.985L16.6896 10.4081C16.6896 9.11028 15.6375 8.05815 14.3396 8.05814L10.1134 8.05814C9.75444 8.05814 9.46342 7.76713 9.46342 7.40814C9.46342 7.04916 9.75444 6.75814 10.1134 6.75814L14.3396 6.75814C16.3555 6.75814 17.9896 8.39231 17.9896 10.4081L17.9896 12.985C17.9896 15.0008 16.3555 16.635 14.3396 16.635L8.29789 16.635L9.69419 18.0313C9.94803 18.2851 9.94803 18.6967 9.69419 18.9505C9.44035 19.2044 9.0288 19.2044 8.77495 18.9505L6.18726 16.3628C5.93341 16.109 5.93341 15.6974 6.18726 15.4436Z" fill="#626F84"/>
</svg>
