<svg width="24" height="24" viewBox="0 0 24 24" fill="none" xmlns="http://www.w3.org/2000/svg">
<path fill-rule="evenodd" clip-rule="evenodd" d="M5.29935 4.64871C5.29935 4.29044 5.00848 4 4.64968 4C4.29087 4 4 4.29044 4 4.64871L4 19.342C4 19.7003 4.29087 19.9907 4.64968 19.9907C5.00848 19.9907 5.29935 19.7003 5.29935 19.342L5.29935 4.64871ZM19.8097 11.5459C20.0634 11.7993 20.0634 12.21 19.8097 12.4633L16.2477 16.02C15.994 16.2734 15.5827 16.2734 15.329 16.02C15.0753 15.7667 15.0753 15.356 15.329 15.1026L17.7821 12.6531L7.66283 12.6531C7.30402 12.6531 7.01315 12.3627 7.01315 12.0044C7.01315 11.6461 7.30402 11.3557 7.66283 11.3557L17.7816 11.3557L15.329 8.90666C15.0753 8.65333 15.0753 8.24259 15.329 7.98925C15.5827 7.73592 15.994 7.73592 16.2477 7.98925L19.8097 11.5459ZM11.9947 4.00931C12.3535 4.00931 12.6443 4.29975 12.6443 4.65802L12.6443 9.36558C12.6443 9.72385 12.3535 10.0143 11.9947 10.0143C11.6359 10.0143 11.345 9.72385 11.345 9.36558L11.345 4.65802C11.345 4.29975 11.6359 4.00931 11.9947 4.00931ZM12.6443 14.6437C12.6443 14.2855 12.3535 13.995 11.9947 13.995C11.6359 13.995 11.345 14.2855 11.345 14.6437L11.345 19.3513C11.345 19.7096 11.6359 20 11.9947 20C12.3535 20 12.6443 19.7096 12.6443 19.3513L12.6443 14.6437Z" fill="#626F84"/>
</svg>
