<svg width="25" height="24" viewBox="0 0 25 24" fill="none" xmlns="http://www.w3.org/2000/svg">
<path fill-rule="evenodd" clip-rule="evenodd" d="M5.12331 13.6401L9.31451 9.44893L14.9554 15.0898L10.7642 19.281C10.4647 19.5805 10.0813 19.7448 9.68966 19.7741L9.43452 19.7741C9.0429 19.7448 8.65949 19.5805 8.36001 19.281L5.12331 16.0443C4.45942 15.3804 4.45942 14.304 5.12331 13.6401ZM16.7937 15.0899L12.1095 19.7741L16.7432 19.7741C17.1021 19.7741 17.3932 20.0651 17.3932 20.4241C17.3932 20.7831 17.1021 21.0741 16.7432 21.0741L9.73161 21.0741C9.6166 21.0806 9.50129 21.0805 9.38629 21.0738C9.37205 21.0733 9.35793 21.0724 9.34393 21.071C8.65042 21.0207 7.97104 20.7305 7.44077 20.2002L4.20407 16.9635C3.0325 15.7919 3.0325 13.8925 4.20408 12.7209L12.9964 3.9286C13.7618 3.16317 14.8379 2.89782 15.8188 3.13256C16.3393 3.25709 16.8329 3.52245 17.2391 3.92863L20.4758 7.16533C21.6474 8.3369 21.6474 10.2364 20.4758 11.408L16.7938 15.09L16.7937 15.0899Z" fill="#626F84"/>
</svg>
