<svg width="24" height="24" viewBox="0 0 24 24" fill="none" xmlns="http://www.w3.org/2000/svg">
<path fill-rule="evenodd" clip-rule="evenodd" d="M13.9 16.6957C13.6503 16.9536 13.657 17.3651 13.9149 17.6148C14.1728 17.8644 14.5843 17.8578 14.834 17.5998L19.817 12.4521C20.061 12.2001 20.061 11.7999 19.817 11.5479L14.834 6.40017C14.5843 6.14223 14.1728 6.13554 13.9149 6.38522C13.657 6.6349 13.6503 7.0464 13.9 7.30434L17.8174 11.3513L7.17845 11.3513C6.81947 11.3513 6.52845 11.6423 6.52845 12.0013C6.52845 12.3602 6.81947 12.6513 7.17845 12.6513L17.8149 12.6513L13.9 16.6957ZM5.3 19.3094C5.3 19.6843 5.00898 19.9882 4.65 19.9882C4.29101 19.9882 4 19.6843 4 19.3094L4 4.69054C4 4.31569 4.29101 4.01181 4.65 4.01181C5.00898 4.01181 5.3 4.31569 5.3 4.69054L5.3 19.3094Z" fill="#626F84"/>
</svg>
