<svg width="24" height="24" viewBox="0 0 24 24" fill="none" xmlns="http://www.w3.org/2000/svg">
<path fill-rule="evenodd" clip-rule="evenodd" d="M10.1 16.6956C10.3497 16.9536 10.343 17.3651 10.0851 17.6147C9.82717 17.8644 9.41566 17.8577 9.16598 17.5998L4.18297 12.4521C3.93901 12.2 3.93901 11.7999 4.18297 11.5479L9.16598 6.40014C9.41566 6.1422 9.82717 6.13551 10.0851 6.38519C10.343 6.63487 10.3497 7.04637 10.1 7.30431L6.18263 11.3512L16.8215 11.3512C17.1805 11.3512 17.4715 11.6422 17.4715 12.0012C17.4715 12.3602 17.1805 12.6512 16.8215 12.6512L6.18507 12.6512L10.1 16.6956ZM18.7 19.3094C18.7 19.6843 18.991 19.9882 19.35 19.9882C19.709 19.9882 20 19.6843 20 19.3094L20 4.69051C20 4.31566 19.709 4.01178 19.35 4.01178C18.991 4.01178 18.7 4.31566 18.7 4.69051L18.7 19.3094Z" fill="#626F84"/>
</svg>
