<svg width="24" height="24" viewBox="0 0 24 24" fill="none" xmlns="http://www.w3.org/2000/svg">
<path fill-rule="evenodd" clip-rule="evenodd" d="M20.0181 17.8229C20.0181 18.1819 19.7271 18.4729 19.3681 18.4729L4.66807 18.4729C4.30908 18.4729 4.01807 18.1819 4.01807 17.8229C4.01807 17.4639 4.30908 17.1729 4.66807 17.1729H19.3681C19.7271 17.1729 20.0181 17.4639 20.0181 17.8229ZM20.0181 10.0229C20.0181 10.3819 19.7271 10.6729 19.3681 10.6729H12.6226C12.2636 10.6729 11.9726 10.3819 11.9726 10.0229C11.9726 9.66393 12.2636 9.37291 12.6226 9.37291L19.3681 9.37291C19.7271 9.37291 20.0181 9.66393 20.0181 10.0229ZM19.3681 14.5729C19.7271 14.5729 20.0181 14.2819 20.0181 13.9229C20.0181 13.5639 19.7271 13.2729 19.3681 13.2729H12.6226C12.2636 13.2729 11.9726 13.5639 11.9726 13.9229C11.9726 14.2819 12.2636 14.5729 12.6226 14.5729H19.3681ZM20.0181 6.12289C20.0181 6.48187 19.7271 6.77289 19.3681 6.77289L4.66807 6.77289C4.30908 6.77289 4.01807 6.48187 4.01807 6.12289C4.01807 5.7639 4.30908 5.47289 4.66807 5.47289L19.3681 5.47289C19.7271 5.47289 20.0181 5.7639 20.0181 6.12289ZM4.20736 11.5241C4.07301 11.6492 3.99778 11.8252 4.00023 12.0087C4.00268 12.1922 4.08259 12.3661 4.22023 12.4875L6.4445 14.4491C6.71374 14.6866 7.12449 14.6608 7.36194 14.3916C7.59939 14.1224 7.57362 13.7116 7.30439 13.4742L5.6182 11.987L7.31733 10.4058C7.58013 10.1612 7.59491 9.74996 7.35035 9.48716C7.10579 9.22437 6.6945 9.20958 6.4317 9.45414L4.20736 11.5241Z" fill="#626F84"/>
</svg>
