<svg width="24" height="24" viewBox="0 0 24 24" fill="none" xmlns="http://www.w3.org/2000/svg">
<path fill-rule="evenodd" clip-rule="evenodd" d="M5.21186 11.5404C4.95802 11.7942 4.95802 12.2058 5.21186 12.4596L11.7339 18.9817C11.9878 19.2355 12.3993 19.2355 12.6532 18.9817C12.907 18.7279 12.907 18.3163 12.6532 18.0625L6.59072 12L12.6532 5.93756C12.907 5.68372 12.907 5.27216 12.6532 5.01832C12.3993 4.76448 11.9878 4.76448 11.7339 5.01832L5.21186 11.5404ZM17.8526 5.01832L11.3305 11.5404C11.0767 11.7942 11.0767 12.2058 11.3305 12.4596L17.8526 18.9817C18.1064 19.2355 18.518 19.2355 18.7718 18.9817C19.0257 18.7279 19.0257 18.3163 18.7718 18.0625L12.7094 12L18.7718 5.93756C19.0257 5.68372 19.0257 5.27216 18.7718 5.01832C18.518 4.76448 18.1064 4.76448 17.8526 5.01832Z" fill="#626F84"/>
</svg>
