<svg width="24" height="24" viewBox="0 0 24 24" fill="none" xmlns="http://www.w3.org/2000/svg">
<path fill-rule="evenodd" clip-rule="evenodd" d="M6.64288 5.90603C6.82638 5.90358 7.00237 5.97882 7.1274 6.11316L9.19739 8.33751C9.44195 8.6003 9.42717 9.0116 9.16437 9.25616C8.90158 9.50071 8.49029 9.48593 8.24573 9.22314L7.3288 8.23784L7.3288 10.75C7.3288 11.109 7.03778 11.4 6.6788 11.4C6.31981 11.4 6.0288 11.109 6.0288 10.75L6.0288 8.24479L5.17737 9.21019C4.93992 9.47943 4.52917 9.50519 4.25994 9.26774C3.9907 9.03029 3.96494 8.61954 4.20239 8.35031L6.16407 6.12603C6.28546 5.9884 6.45938 5.90849 6.64288 5.90603ZM10.9907 6.75001C10.9907 6.39103 11.2817 6.10001 11.6407 6.10001H19.3499C19.7089 6.10001 19.9999 6.39103 19.9999 6.75001C19.9999 7.109 19.7089 7.40001 19.3499 7.40001H11.6407C11.2817 7.40001 10.9907 7.109 10.9907 6.75001ZM10.9907 12.05C10.9907 11.691 11.2817 11.4 11.6407 11.4H19.3499C19.7089 11.4 19.9999 11.691 19.9999 12.05C19.9999 12.409 19.7089 12.7 19.3499 12.7H11.6407C11.2817 12.7 10.9907 12.409 10.9907 12.05ZM7.3288 15.7996L7.3288 13.35C7.3288 12.991 7.03778 12.7 6.6788 12.7C6.31981 12.7 6.0288 12.991 6.0288 13.35L6.0288 15.807L5.11167 14.8215C4.86712 14.5587 4.45582 14.5439 4.19303 14.7884C3.93023 15.033 3.91545 15.4443 4.16001 15.7071L6.23001 17.9314C6.35503 18.0658 6.53102 18.141 6.71452 18.1386C6.89803 18.1361 7.07194 18.0562 7.19333 17.9186L9.15502 15.6943C9.39247 15.4251 9.3667 15.0143 9.09747 14.7769C8.82823 14.5394 8.41748 14.5652 8.18003 14.8344L7.3288 15.7996ZM11.6407 16.7C11.2817 16.7 10.9907 16.991 10.9907 17.35C10.9907 17.709 11.2817 18 11.6407 18H19.3499C19.7089 18 19.9999 17.709 19.9999 17.35C19.9999 16.991 19.7089 16.7 19.3499 16.7H11.6407Z" fill="#717681"/>
</svg>
