<svg width="24" height="24" viewBox="0 0 24 24" fill="none" xmlns="http://www.w3.org/2000/svg">
<path fill-rule="evenodd" clip-rule="evenodd" d="M18.7718 12.4596C19.0257 12.2058 19.0257 11.7942 18.7718 11.5404L12.2498 5.01829C11.9959 4.76445 11.5844 4.76445 11.3305 5.01829C11.0767 5.27213 11.0767 5.68369 11.3305 5.93753L17.393 12L11.3305 18.0624C11.0767 18.3163 11.0767 18.7278 11.3305 18.9817C11.5844 19.2355 11.9959 19.2355 12.2498 18.9817L18.7718 12.4596ZM6.1311 18.9817L12.6532 12.4596C12.907 12.2058 12.907 11.7942 12.6532 11.5404L6.1311 5.01829C5.87726 4.76445 5.46571 4.76445 5.21187 5.01829C4.95802 5.27213 4.95802 5.68369 5.21186 5.93753L11.2743 12L5.21186 18.0624C4.95802 18.3163 4.95802 18.7278 5.21187 18.9817C5.46571 19.2355 5.87726 19.2355 6.1311 18.9817Z" fill="#626F84"/>
</svg>
