<svg width="24" height="24" viewBox="0 0 24 24" fill="none" xmlns="http://www.w3.org/2000/svg">
<path d="M11.9873 14.644C11.6258 14.644 11.3327 14.9354 11.3327 15.2948V16.6712H9.94815C9.58663 16.6712 9.29356 16.9626 9.29356 17.322C9.29356 17.6814 9.58663 17.9728 9.94815 17.9728H11.3327V19.3492C11.3327 19.7086 11.6258 20 11.9873 20C12.3488 20 12.6419 19.7086 12.6419 19.3492V17.9728L14.0264 17.9728C14.3879 17.9728 14.681 17.6814 14.681 17.322C14.681 16.9626 14.3879 16.6712 14.0264 16.6712H12.6419V15.2948C12.6419 14.9354 12.3488 14.644 11.9873 14.644Z" fill="#717681"/>
<path fill-rule="evenodd" clip-rule="evenodd" d="M18.6908 14.6386V11.6417H5.30918V14.6747C5.30918 15.7773 6.20829 16.6712 7.3174 16.6712C7.67892 16.6712 7.97199 16.9626 7.97199 17.322C7.97199 17.6814 7.67892 17.9728 7.3174 17.9728C5.48525 17.9728 4 16.4962 4 14.6747V7.65434C4 5.6361 5.6457 4 7.67577 4H16.3242C18.3543 4 20 5.6361 20 7.65433V14.6386C20 16.48 18.4985 17.9728 16.6463 17.9728C16.2848 17.9728 15.9917 17.6814 15.9917 17.322C15.9917 16.9626 16.2848 16.6712 16.6463 16.6712C17.7755 16.6712 18.6908 15.7612 18.6908 14.6386ZM5.30918 7.65434V10.3401H18.6908V7.65433C18.6908 6.35492 17.6313 5.30154 16.3242 5.30154H7.67577C6.36874 5.30154 5.30918 6.35492 5.30918 7.65434Z" fill="#717681"/>
</svg>
