<svg width="24" height="24" viewBox="0 0 24 24" fill="none" xmlns="http://www.w3.org/2000/svg">
<path fill-rule="evenodd" clip-rule="evenodd" d="M4.59541 2.05913C4.87993 1.84023 5.28804 1.89342 5.50694 2.17793L10.1007 8.14849H18.6787C19.3967 8.14849 19.9787 8.73052 19.9787 9.44849V14.8485C19.9787 15.5665 19.3967 16.1485 18.6787 16.1485H16.2558L20.0111 21.0294C20.23 21.3139 20.1768 21.722 19.8923 21.9409C19.6078 22.1598 19.1997 22.1066 18.9808 21.8221L4.47661 2.97066C4.25771 2.68615 4.3109 2.27804 4.59541 2.05913ZM15.2556 14.8485L18.6787 14.8485V9.44849H11.1009L15.2556 14.8485ZM5.27874 8.14849L6.82112 8.14849L7.82133 9.44849L5.27874 9.44849V14.8485H11.9761L12.9763 16.1485H5.27874C4.56077 16.1485 3.97874 15.5665 3.97874 14.8485V9.44849C3.97874 8.73052 4.56077 8.14849 5.27874 8.14849Z" fill="#626F84"/>
</svg>
