<svg width="24" height="24" viewBox="0 0 24 24" fill="none" xmlns="http://www.w3.org/2000/svg">
<path fill-rule="evenodd" clip-rule="evenodd" d="M11.3677 7.7013C11.3677 8.06028 11.6587 8.3513 12.0177 8.3513C12.3767 8.3513 12.6677 8.06028 12.6677 7.7013V6.32647L14.0425 6.32647C14.4015 6.32647 14.6925 6.03546 14.6925 5.67647C14.6925 5.31749 14.4015 5.02647 14.0425 5.02647L12.6677 5.02647V3.65165C12.6677 3.29266 12.3767 3.00165 12.0177 3.00165C11.6587 3.00165 11.3677 3.29266 11.3677 3.65165V5.02647L9.99287 5.02647C9.63389 5.02647 9.34287 5.31749 9.34287 5.67647C9.34287 6.03546 9.63389 6.32647 9.99287 6.32647L11.3677 6.32647V7.7013ZM5.38643 12.6501V15.3327C5.38643 16.6305 6.43856 17.6827 7.73642 17.6827H16.3242C17.6221 17.6827 18.6742 16.6305 18.6742 15.3327V12.6501L5.38643 12.6501ZM18.6742 11.3501V8.35667C18.6742 7.23543 17.7653 6.32649 16.6441 6.32649C16.2851 6.32649 15.9941 6.03548 15.9941 5.67649C15.9941 5.31751 16.2851 5.02649 16.6441 5.02649C18.4833 5.02649 19.9742 6.51746 19.9742 8.35667V15.3327C19.9742 17.3485 18.3401 18.9827 16.3242 18.9827H7.73642C5.72058 18.9827 4.08643 17.3485 4.08643 15.3327L4.08643 8.32063C4.08643 6.50133 5.56126 5.02649 7.38057 5.02649C7.73955 5.02649 8.03057 5.31751 8.03057 5.67649C8.03057 6.03548 7.73955 6.32649 7.38057 6.32649C6.27923 6.32649 5.38643 7.2193 5.38643 8.32063V11.3501L18.6742 11.3501Z" fill="#626F84"/>
</svg>
