<svg width="24" height="24" viewBox="0 0 24 24" fill="none" xmlns="http://www.w3.org/2000/svg">
<path fill-rule="evenodd" clip-rule="evenodd" d="M12.0715 3.96433C12.3183 3.96463 12.5437 4.10475 12.6532 4.32601L18.0141 15.1579C18.1733 15.4796 18.0416 15.8695 17.7198 16.0287C17.3981 16.188 17.0082 16.0562 16.8489 15.7345L16.3999 14.8272H7.71135L5.22712 19.8162C5.0671 20.1375 4.67688 20.2683 4.35553 20.1083C4.03418 19.9483 3.90339 19.558 4.06341 19.2367L11.4888 4.32459C11.5989 4.1036 11.8246 3.96403 12.0715 3.96433ZM12.0689 6.07614L15.7565 13.5272H8.35868L12.0689 6.07614ZM20.8148 17.0465C21.0678 16.7918 21.0664 16.3802 20.8117 16.1272C20.557 15.8742 20.1455 15.8756 19.8925 16.1303L17.4338 18.6056L16.1068 17.2787C15.853 17.0248 15.4414 17.0248 15.1876 17.2787C14.9338 17.5325 14.9338 17.9441 15.1876 18.1979L16.9757 19.986C17.0979 20.1082 17.2637 20.1767 17.4364 20.1764C17.6092 20.1761 17.7747 20.1071 17.8965 19.9845L20.8148 17.0465Z" fill="#626F84"/>
</svg>
