<svg width="24" height="24" viewBox="0 0 24 24" fill="none" xmlns="http://www.w3.org/2000/svg">
<path fill-rule="evenodd" clip-rule="evenodd" d="M17 5.30392H12.6465L12.6465 11.2755L18.7 11.2755V7.00905C18.7 6.06734 17.9389 5.30392 17 5.30392ZM18.7 12.5795H12.6465V18.6961H17C17.9389 18.6961 18.7 17.9327 18.7 16.9909V12.5795ZM11.3465 12.5795V18.6961H7C6.06112 18.6961 5.3 17.9327 5.3 16.9909V12.5795H11.3465ZM5.3 11.2755L5.3 7.00906C5.3 6.06734 6.06112 5.30392 7 5.30392H11.3465V11.2755H5.3ZM7 4C5.34315 4 4 5.3472 4 7.00906L4 16.9909C4 18.6528 5.34315 20 7 20H17C18.6569 20 20 18.6528 20 16.9909V7.00905C20 5.3472 18.6569 4 17 4H7Z" fill="#626F84"/>
</svg>
