<svg width="24" height="24" viewBox="0 0 24 24" fill="none" xmlns="http://www.w3.org/2000/svg">
<path fill-rule="evenodd" clip-rule="evenodd" d="M13 5.00665C13.0035 4.45437 12.5586 4.00386 12.0063 4.0004C11.454 3.99693 11.0035 4.44183 11 4.99411L10.9624 11.0024H9.18063L5.91649 4.54902C5.66721 4.05619 5.06562 3.85876 4.57279 4.10803C4.07996 4.35731 3.88252 4.9589 4.1318 5.45173L7.4483 12.0086L4.13094 18.5983C3.8826 19.0916 4.08119 19.6928 4.57449 19.9412C5.06779 20.1895 5.66901 19.9909 5.91735 19.4976L9.18715 13.0024H10.9498L10.9117 19.0894C10.9082 19.6417 11.3531 20.0922 11.9054 20.0957C12.4576 20.0991 12.9082 19.6542 12.9116 19.102L12.9499 13.0024H14.8606L18.1304 19.4976C18.3788 19.9909 18.98 20.1895 19.4733 19.9412C19.9666 19.6928 20.1652 19.0916 19.9168 18.5983L16.5995 12.0086L19.916 5.45173C20.1653 4.9589 19.9678 4.35731 19.475 4.10803C18.9822 3.85876 18.3806 4.05619 18.1313 4.54902L14.8672 11.0024H12.9624L13 5.00665Z" fill="#626F84"/>
</svg>
