<svg width="24" height="24" viewBox="0 0 24 24" fill="none" xmlns="http://www.w3.org/2000/svg">
<path fill-rule="evenodd" clip-rule="evenodd" d="M9.20296 4.04114C9.54709 4.14336 9.74319 4.5052 9.64096 4.84932L7.90848 10.6815H11.9901C12.0355 10.6815 12.0797 10.6862 12.1224 10.695L18.939 4.28041C19.2005 4.0344 19.6118 4.0469 19.8578 4.30834C20.1038 4.56977 20.0913 4.98114 19.8299 5.22715L13.2037 11.4625L17.6823 18.9798C17.866 19.2882 17.765 19.6871 17.4566 19.8709C17.1482 20.0546 16.7492 19.9536 16.5655 19.6452L11.9997 11.9815C11.9965 11.9815 11.9933 11.9815 11.9901 11.9815L7.52231 11.9815L5.27228 19.556C5.17006 19.9001 4.80823 20.0962 4.4641 19.994C4.11998 19.8918 3.92388 19.5299 4.0261 19.1858L8.39478 4.47914C8.49701 4.13501 8.85884 3.93892 9.20296 4.04114Z" fill="#626F84"/>
</svg>
