<svg width="24" height="24" viewBox="0 0 24 24" fill="none" xmlns="http://www.w3.org/2000/svg">
<path fill-rule="evenodd" clip-rule="evenodd" d="M4 19.349C4 19.7086 4.29911 20 4.66809 20H19.3319C19.7009 20 20 19.7086 20 19.349C20 18.9895 19.7009 18.6981 19.3319 18.6981H4.66809C4.29911 18.6981 4 18.9895 4 19.349ZM15.5927 4C15.2238 4 14.9246 4.29145 14.9246 4.65096L14.9246 10.46H10.7862C9.45227 10.46 8.37086 9.40628 8.37086 8.10649V4.67165C8.37086 4.31213 8.07175 4.02069 7.70278 4.02069C7.3338 4.02069 7.03469 4.31213 7.03469 4.67165V8.10649C7.03469 10.1253 8.71432 11.7619 10.7862 11.7619H14.9246V16.384C14.9246 16.7435 15.2238 17.035 15.5927 17.035C15.9617 17.035 16.2608 16.7435 16.2608 16.384L16.2608 4.65096C16.2608 4.29145 15.9617 4 15.5927 4Z" fill="#626F84"/>
</svg>
