<svg width="24" height="24" viewBox="0 0 24 24" fill="none" xmlns="http://www.w3.org/2000/svg">
<path fill-rule="evenodd" clip-rule="evenodd" d="M4.23438 19.3382C4.23438 19.6972 4.52539 19.9882 4.88437 19.9882H19.1512C19.5102 19.9882 19.8012 19.6972 19.8012 19.3382C19.8012 18.9792 19.5102 18.6882 19.1512 18.6882H4.88437C4.52539 18.6882 4.23438 18.9792 4.23438 19.3382ZM15.5133 4.0119C15.1543 4.0119 14.8633 4.30292 14.8633 4.6619L14.8633 10.4623H10.8369C9.53905 10.4623 8.48691 9.41018 8.48691 8.11231V4.68256C8.48691 4.32357 8.1959 4.03256 7.83691 4.03256C7.47793 4.03256 7.18691 4.32357 7.18691 4.68256V8.11231C7.18691 10.1281 8.82107 11.7623 10.8369 11.7623H14.8633V16.3776C14.8633 16.7366 15.1543 17.0276 15.5133 17.0276C15.8723 17.0276 16.1633 16.7366 16.1633 16.3776L16.1633 4.6619C16.1633 4.30292 15.8723 4.0119 15.5133 4.0119Z" fill="#626F84"/>
</svg>
