<svg width="24.000000" height="24.000000" viewBox="0 0 24 24" fill="none" xmlns="http://www.w3.org/2000/svg" xmlns:xlink="http://www.w3.org/1999/xlink">
	<desc>
			Created with Pixso.
	</desc>
	<defs>
		<clipPath id="clip17_1105">
			<rect id="Solid / Location Solid" width="24.000000" height="24.000000" fill="white" fill-opacity="0"/>
		</clipPath>
	</defs>
	<g>
		<path id="Shape" d="M11.62 3.12C14.89 2.93 18.37 4.83 18.88 9.06C18.92 9.36 18.94 9.64 18.95 9.89C18.96 11.23 18.54 12.59 17.92 13.85C17.31 15.12 16.49 16.31 15.68 17.34C14.87 18.38 14.06 19.25 13.45 19.87C13.15 20.17 12.89 20.42 12.71 20.59C12.62 20.67 12.55 20.74 12.51 20.78C12.48 20.81 12.45 20.83 12.43 20.85L12.43 20.85C12.18 21.07 11.81 21.07 11.56 20.85C11.54 20.83 11.51 20.81 11.49 20.78C11.44 20.74 11.37 20.67 11.28 20.59C11.1 20.42 10.84 20.17 10.54 19.87C9.93 19.25 9.12 18.38 8.31 17.34C7.5 16.31 6.68 15.12 6.07 13.85C5.45 12.59 5.03 11.23 5.05 9.89C5.11 5.63 8.35 3.32 11.62 3.12ZM7.85 10.1C7.85 7.8 9.7 5.94 12 5.94C14.29 5.94 16.15 7.8 16.15 10.1C16.15 12.39 14.29 14.25 12 14.25C9.7 14.25 7.85 12.39 7.85 10.1Z" fill="#717681" fill-opacity="1.000000" fill-rule="evenodd"/>
	</g>
</svg>
