<svg width="24.000000" height="24.000000" viewBox="0 0 24 24" fill="none" xmlns="http://www.w3.org/2000/svg" xmlns:xlink="http://www.w3.org/1999/xlink">
	<desc>
			Created with Pixso.
	</desc>
	<defs>
		<clipPath id="clip17_1096">
			<rect id="Outline / Location Outline" width="24.000000" height="24.000000" fill="white" fill-opacity="0"/>
		</clipPath>
	</defs>
	<g clip-path="url(#clip17_1096)">
		<path id="Shape" d="M18.88 9.06C18.37 4.83 14.89 2.93 11.62 3.12C8.35 3.32 5.11 5.63 5.05 9.89C5.03 11.23 5.45 12.59 6.07 13.85C6.68 15.12 7.5 16.31 8.31 17.34C9.12 18.38 9.93 19.25 10.54 19.87C10.87 20.2 11.21 20.54 11.56 20.85C11.81 21.07 12.18 21.07 12.43 20.85C12.78 20.54 13.12 20.2 13.45 19.87C14.06 19.25 14.87 18.38 15.68 17.34C16.49 16.31 17.31 15.12 17.92 13.85C18.54 12.59 18.96 11.23 18.95 9.89C18.94 9.64 18.92 9.36 18.88 9.06ZM11.46 18.95C11.67 19.16 11.85 19.34 12 19.48C12.14 19.34 12.32 19.16 12.53 18.95C13.11 18.36 13.89 17.52 14.66 16.54C15.43 15.56 16.19 14.44 16.76 13.28C17.32 12.13 17.66 10.97 17.65 9.9C17.64 9.71 17.63 9.49 17.59 9.22C17.18 5.82 14.44 4.26 11.7 4.42C8.96 4.59 6.39 6.47 6.35 9.9C6.33 10.97 6.67 12.13 7.24 13.28C7.8 14.44 8.56 15.56 9.33 16.54C10.1 17.52 10.88 18.36 11.46 18.95ZM12 5.94C9.7 5.94 7.85 7.8 7.85 10.1C7.85 12.39 9.7 14.25 12 14.25C14.29 14.25 16.15 12.39 16.15 10.1C16.15 7.8 14.29 5.94 12 5.94ZM9.15 10.1C9.15 8.52 10.42 7.25 12 7.25C13.57 7.25 14.85 8.52 14.85 10.1C14.85 11.67 13.57 12.95 12 12.95C10.42 12.95 9.15 11.67 9.15 10.1Z" fill="#74767B" fill-opacity="1.000000" fill-rule="evenodd"/>
	</g>
</svg>
