<svg width="24.000000" height="24.000000" viewBox="0 0 24 24" fill="none" xmlns="http://www.w3.org/2000/svg" xmlns:xlink="http://www.w3.org/1999/xlink">
	<desc>
			Created with Pixso.
	</desc>
	<defs>
		<clipPath id="clip17_163">
			<rect id="Outline / Agreed Outline" width="24.000000" height="24.000000" fill="white" fill-opacity="0"/>
		</clipPath>
	</defs>
	<g clip-path="url(#clip17_163)">
		<path id="Shape" d="M14.66 20.67C14.3 20.67 14.01 20.96 14.01 21.32C14.01 21.68 14.3 21.97 14.66 21.97L20.32 21.97C20.68 21.97 20.97 21.68 20.97 21.32C20.97 20.96 20.68 20.67 20.32 20.67L14.66 20.67ZM4.24 21.77L11.17 14.61L13.67 17.11L13.7 17.14L12.47 18.37C12.21 18.63 12.21 19.04 12.47 19.29C12.72 19.55 13.13 19.55 13.39 19.29L20.78 11.89C21.04 11.64 21.04 11.23 20.78 10.98C20.53 10.72 20.12 10.72 19.86 10.98L18.65 12.18L18.63 12.16L12.83 6.36L12.82 6.35L14.13 5.03C14.39 4.78 14.39 4.36 14.13 4.11C13.88 3.86 13.47 3.86 13.21 4.11L5.63 11.7C5.37 11.95 5.37 12.36 5.63 12.62C5.88 12.87 6.29 12.87 6.55 12.62L7.86 11.3L7.88 11.32L10.25 13.69L3.31 20.87C3.06 21.13 3.06 21.54 3.32 21.79C3.58 22.04 3.99 22.03 4.24 21.77ZM17.71 13.08L11.91 7.28L8.8 10.4L14.59 16.19L17.71 13.08Z" fill="#717681" fill-opacity="1.000000" fill-rule="evenodd"/>
	</g>
</svg>
