<svg width="24.000000" height="24.000000" viewBox="0 0 24 24" fill="none" xmlns="http://www.w3.org/2000/svg" xmlns:xlink="http://www.w3.org/1999/xlink">
	<desc>
			Created with Pixso.
	</desc>
	<defs>
		<clipPath id="clip17_147">
			<rect id="Outline / Archive Outline" width="24.000000" height="24.000000" fill="white" fill-opacity="0"/>
		</clipPath>
	</defs>
	<g clip-path="url(#clip17_147)">
		<path id="Shape" d="M4 7C4 5.34 5.34 4 7 4L17 4C18.65 4 20 5.34 20 7L20 17C20 18.65 18.65 20 17 20L7 20C5.34 20 4 18.65 4 17L4 7ZM7 5.3L17 5.3C17.93 5.3 18.7 6.06 18.7 7L18.7 9.35L5.29 9.35L5.29 7C5.29 6.06 6.06 5.3 7 5.3ZM5.29 10.65L5.29 17C5.29 17.93 6.06 18.7 7 18.7L17 18.7C17.93 18.7 18.7 17.93 18.7 17L18.7 10.65L5.29 10.65ZM9.35 14.13C9.35 13.77 9.64 13.48 10 13.48L14 13.48C14.35 13.48 14.64 13.77 14.64 14.13C14.64 14.48 14.35 14.78 14 14.78L10 14.78C9.64 14.78 9.35 14.48 9.35 14.13Z" fill="#74767B" fill-opacity="1.000000" fill-rule="evenodd"/>
	</g>
</svg>
