<svg width="24" height="24" viewBox="0 0 24 24" fill="none" xmlns="http://www.w3.org/2000/svg">
<path d="M9.99316 5C9.99316 6.10457 9.09773 7 7.99316 7C6.88859 7 5.99316 6.10457 5.99316 5C5.99316 3.89543 6.8886 3 7.99316 3C9.09773 3 9.99316 3.89543 9.99316 5Z" fill="#717681"/>
<path d="M9.99316 19C9.99316 20.1046 9.09773 21 7.99316 21C6.88859 21 5.99316 20.1046 5.99316 19C5.99316 17.8954 6.88859 17 7.99316 17C9.09773 17 9.99316 17.8954 9.99316 19Z" fill="#717681"/>
<path d="M9.99316 12C9.99316 13.1046 9.09773 14 7.99316 14C6.88859 14 5.99316 13.1046 5.99316 12C5.99316 10.8954 6.88859 10 7.99316 10C9.09773 10 9.99316 10.8954 9.99316 12Z" fill="#717681"/>
<path d="M18 5C18 6.10457 17.1046 7 16 7C14.8954 7 14 6.10457 14 5C14 3.89543 14.8954 3 16 3C17.1046 3 18 3.89543 18 5Z" fill="#717681"/>
<path d="M18 19C18 20.1046 17.1046 21 16 21C14.8954 21 14 20.1046 14 19C14 17.8954 14.8954 17 16 17C17.1046 17 18 17.8954 18 19Z" fill="#717681"/>
<path d="M18 12C18 13.1046 17.1046 14 16 14C14.8954 14 14 13.1046 14 12C14 10.8954 14.8954 10 16 10C17.1046 10 18 10.8954 18 12Z" fill="#717681"/>
</svg>
