<svg width="24.000000" height="24.000000" viewBox="0 0 24 24" fill="none" xmlns="http://www.w3.org/2000/svg" xmlns:xlink="http://www.w3.org/1999/xlink">
	<desc>
			Created with Pixso.
	</desc>
	<defs>
		<clipPath id="clip17_149">
			<rect id="Outline  / Drag Outline" width="24.000000" height="24.000000" fill="white" fill-opacity="0"/>
		</clipPath>
	</defs>
	<g clip-path="url(#clip17_149)">
		<path id="Shape" d="M7.99 7C9.09 7 9.99 6.1 9.99 5C9.99 3.89 9.09 3 7.99 3C6.88 3 5.99 3.89 5.99 5C5.99 6.1 6.88 7 7.99 7ZM16 7C17.1 7 18 6.1 18 5C18 3.89 17.1 3 16 3C14.89 3 14 3.89 14 5C14 6.1 14.89 7 16 7ZM9.99 12C9.99 13.1 9.09 14 7.99 14C6.88 14 5.99 13.1 5.99 12C5.99 10.89 6.88 10 7.99 10C9.09 10 9.99 10.89 9.99 12ZM16 14C17.1 14 18 13.1 18 12C18 10.89 17.1 10 16 10C14.89 10 14 10.89 14 12C14 13.1 14.89 14 16 14ZM7.99 21C9.09 21 9.99 20.1 9.99 19C9.99 17.89 9.09 17 7.99 17C6.88 17 5.99 17.89 5.99 19C5.99 20.1 6.88 21 7.99 21ZM18 19C18 20.1 17.1 21 16 21C14.89 21 14 20.1 14 19C14 17.89 14.89 17 16 17C17.1 17 18 17.89 18 19Z" fill="#74767B" fill-opacity="1.000000" fill-rule="evenodd"/>
	</g>
</svg>
