<svg width="24.000000" height="24.000000" viewBox="0 0 24 24" fill="none" xmlns="http://www.w3.org/2000/svg" xmlns:xlink="http://www.w3.org/1999/xlink">
	<desc>
			Created with Pixso.
	</desc>
	<defs>
		<clipPath id="clip17_49">
			<rect id="Outline / Error Outline" width="24.000000" height="24.000000" fill="white" fill-opacity="0"/>
		</clipPath>
	</defs>
	<g >
		<path id="Shape" d="M12 3C7.02 3 3 7.02 3 12C3 16.97 7.02 21 12 21C16.97 21 21 16.97 21 12C21 7.02 16.97 3 12 3ZM4.29 12C4.29 7.74 7.74 4.29 12 4.29C16.25 4.29 19.7 7.74 19.7 12C19.7 16.25 16.25 19.7 12 19.7C7.74 19.7 4.29 16.25 4.29 12ZM12 13.69C12.35 13.69 12.64 13.4 12.64 13.04L12.64 7.89C12.64 7.54 12.35 7.24 12 7.24C11.64 7.24 11.35 7.54 11.35 7.89L11.35 13.04C11.35 13.4 11.64 13.69 12 13.69ZM12.85 15.9C12.85 16.37 12.46 16.75 12 16.75C11.53 16.75 11.14 16.37 11.14 15.9C11.14 15.43 11.53 15.05 12 15.05C12.46 15.05 12.85 15.43 12.85 15.9Z" fill="#74767B" fill-opacity="1.000000" fill-rule="evenodd"/>
	</g>
</svg>
