<svg width="24.000000" height="24.000000" viewBox="0 0 24 24" fill="none" xmlns="http://www.w3.org/2000/svg" xmlns:xlink="http://www.w3.org/1999/xlink">
	<desc>
			Created with Pixso.
	</desc>
	<defs>
		<clipPath id="clip17_88">
			<rect id="Solid / Error Triangle Solid" width="24.000000" height="24.000000" fill="white" fill-opacity="0"/>
		</clipPath>
	</defs>
	<g clip-path="url(#clip17_88)">
		<path id="Shape" d="M18.83 21L5.16 21C2.86 21 1.41 18.51 2.55 16.51L9.39 4.51C10.54 2.49 13.45 2.49 14.6 4.51L21.44 16.51C22.58 18.51 21.14 21 18.83 21ZM12.64 14.12C12.64 14.48 12.35 14.77 12 14.77C11.64 14.77 11.35 14.48 11.35 14.12L11.35 8.97C11.35 8.61 11.64 8.32 12 8.32C12.35 8.32 12.64 8.61 12.64 8.97L12.64 14.12ZM12 17.82C12.46 17.82 12.85 17.44 12.85 16.97C12.85 16.5 12.46 16.12 12 16.12C11.53 16.12 11.14 16.5 11.14 16.97C11.14 17.44 11.53 17.82 12 17.82Z" fill="#74767B" fill-opacity="1.000000" fill-rule="evenodd"/>
	</g>
</svg>
