<svg width="24" height="24" viewBox="0 0 24 24" fill="none" xmlns="http://www.w3.org/2000/svg">
<path fill-rule="evenodd" clip-rule="evenodd" d="M4.38156 2.20692C4.66608 1.98801 5.07419 2.0412 5.29309 2.32572L8.05337 5.91332C9.21132 5.35854 10.5287 5.00001 11.9998 5.00001C16.7243 5.00001 19.8639 8.69823 21.2266 10.7185C21.7546 11.5014 21.7546 12.4986 21.2266 13.2815C20.4203 14.4769 18.9917 16.2599 16.9808 17.5166L19.5941 20.9131C19.813 21.1976 19.7598 21.6057 19.4753 21.8246C19.1908 22.0436 18.7827 21.9904 18.5638 21.7058L4.26276 3.11845C4.04386 2.83393 4.09705 2.42583 4.38156 2.20692ZM15.2756 15.3002C16.1243 14.4578 16.6498 13.2903 16.6498 12C16.6498 9.43186 14.5679 7.34998 11.9998 7.34998C11.1421 7.34998 10.3387 7.58217 9.64894 7.98712L10.6243 9.25477C11.0197 9.06759 11.4619 8.9629 11.9285 8.9629C13.6142 8.9629 14.9807 10.3294 14.9807 12.0151C14.9807 12.198 14.9646 12.3772 14.9338 12.5512C14.9353 12.5975 14.9306 12.6452 14.9191 12.694C14.8402 13.027 14.7058 13.3386 14.5262 13.6184C14.447 13.7465 14.3586 13.8682 14.2619 13.9828L15.2756 15.3002ZM5.85386 7.31457C4.44732 8.4476 3.41369 9.76856 2.77296 10.7185C2.24495 11.5014 2.24495 12.4986 2.77296 13.2815C4.1356 15.3018 7.27521 19 11.9998 19C12.9115 19 13.7641 18.8623 14.5564 18.6255L12.9601 16.5507C12.6502 16.6158 12.329 16.65 11.9998 16.65C9.43165 16.65 7.34977 14.5681 7.34977 12C7.34977 11.2465 7.529 10.5348 7.84716 9.90531L5.85386 7.31457Z" fill="#717681"/>
</svg>
