<svg width="24.000000" height="24.000000" viewBox="0 0 24 24" fill="none" xmlns="http://www.w3.org/2000/svg" xmlns:xlink="http://www.w3.org/1999/xlink">
	<desc>
			Created with Pixso.
	</desc>
	<defs>
		<clipPath id="clip123737_908">
			<rect id="Solid / Eye Off Solid" width="24.000000" height="24.000000" fill="white" fill-opacity="0"/>
		</clipPath>
	</defs>
	<g clip-path="url(#clip123737_908)">
		<path id="Union" d="M4.38 2.2C4.66 1.98 5.07 2.04 5.29 2.32L8.05 5.91C9.21 5.35 10.52 4.99 12 4.99C16.72 4.99 19.86 8.69 21.22 10.71C21.75 11.5 21.75 12.49 21.22 13.28C20.42 14.47 18.99 16.25 16.98 17.51L19.59 20.91C19.81 21.19 19.75 21.6 19.47 21.82C19.19 22.04 18.78 21.99 18.56 21.7L4.26 3.11C4.04 2.83 4.09 2.42 4.38 2.2ZM15.27 15.3C16.12 14.45 16.64 13.29 16.64 11.99C16.64 9.43 14.56 7.34 12 7.34C11.14 7.34 10.33 7.58 9.64 7.98L10.62 9.25C11.01 9.06 11.46 8.96 11.92 8.96C13.61 8.96 14.98 10.32 14.98 12.01C14.98 12.19 14.96 12.37 14.93 12.55C14.93 12.59 14.93 12.64 14.91 12.69C14.84 13.02 14.7 13.33 14.52 13.61C14.44 13.74 14.35 13.86 14.26 13.98L15.27 15.3ZM5.85 7.31C4.44 8.44 3.41 9.76 2.77 10.71C2.24 11.5 2.24 12.49 2.77 13.28C4.13 15.3 7.27 19 12 19C12.91 19 13.76 18.86 14.55 18.62L12.96 16.55C12.65 16.61 12.32 16.65 12 16.65C9.43 16.65 7.34 14.56 7.34 11.99C7.34 11.24 7.52 10.53 7.84 9.9L5.85 7.31Z" fill="#717681" fill-opacity="1.000000" fill-rule="evenodd"/>
	</g>
</svg>
