<svg width="24.000000" height="24.000000" viewBox="0 0 24 24" fill="none" xmlns="http://www.w3.org/2000/svg" xmlns:xlink="http://www.w3.org/1999/xlink">
	<desc>
			Created with Pixso.
	</desc>
	<defs>
		<clipPath id="clip123737_907">
			<rect id="Outline / Eye Off Outline" width="24.000000" height="24.000000" fill="white" fill-opacity="0"/>
		</clipPath>
	</defs>
	<g clip-path="url(#clip123737_907)">
		<path id="Union" d="M4.38 2.2C4.66 1.98 5.07 2.04 5.29 2.32L8.01 5.86C9.18 5.33 10.51 4.99 12 4.99C16.88 4.99 20.13 8.65 21.56 10.68C22.12 11.48 22.12 12.51 21.56 13.31C20.7 14.53 19.18 16.34 17.04 17.59L19.59 20.91C19.81 21.19 19.76 21.6 19.47 21.82C19.19 22.04 18.78 21.99 18.56 21.7L4.26 3.11C4.04 2.83 4.09 2.42 4.38 2.2ZM15.92 16.13C17.01 15.09 17.7 13.62 17.7 12C17.7 8.85 15.14 6.29 12 6.29C10.9 6.29 9.87 6.61 9 7.14L10.62 9.25C11.02 9.06 11.46 8.96 11.92 8.96C13.61 8.96 14.98 10.32 14.98 12.01C14.98 12.19 14.96 12.37 14.93 12.55C14.93 12.59 14.93 12.64 14.91 12.69C14.84 13.02 14.7 13.33 14.52 13.61C14.44 13.74 14.35 13.86 14.26 13.98L15.92 16.13ZM5.76 7.19C4.24 8.34 3.12 9.7 2.43 10.68C1.87 11.48 1.87 12.51 2.43 13.31C3.86 15.34 7.11 19 12 19C12.91 19 13.77 18.87 14.57 18.64L13.65 17.45C13.13 17.61 12.57 17.7 12 17.7C8.85 17.7 6.29 15.14 6.29 12C6.29 10.89 6.61 9.87 7.15 9L5.76 7.19ZM11.81 15.06L11.79 15.06C11.78 15.02 11.76 14.99 11.73 14.96L11.81 15.06ZM5.7 8.92C4.76 9.77 4.02 10.69 3.49 11.43C3.25 11.78 3.25 12.21 3.49 12.56C4.02 13.3 4.76 14.22 5.7 15.07C5.25 14.14 5 13.1 5 12C5 10.89 5.25 9.85 5.7 8.92ZM18.29 8.92C19.23 9.77 19.97 10.69 20.5 11.43C20.74 11.78 20.74 12.21 20.5 12.56C19.97 13.3 19.23 14.22 18.29 15.07C18.74 14.14 19 13.1 19 12C19 10.89 18.74 9.85 18.29 8.92Z" fill="#74767B" fill-opacity="1.000000" fill-rule="evenodd"/>
	</g>
</svg>
