<svg width="24.000000" height="24.000000" viewBox="0 0 24 24" fill="none" xmlns="http://www.w3.org/2000/svg" xmlns:xlink="http://www.w3.org/1999/xlink">
	<desc>
			Created with Pixso.
	</desc>
	<defs>
		<clipPath id="clip6812_1398">
			<rect id="Outline / Greater or Equal Outline" width="24.000000" height="24.000000" fill="white" fill-opacity="0"/>
		</clipPath>
	</defs>
	<g clip-path="url(#clip6812_1398)">
		<path id="Shape" d="M9.64 14.42C9.46 14.42 9.29 14.35 9.16 14.21C8.92 13.94 8.94 13.53 9.2 13.29L12.7 10.14L9.21 7.12C8.94 6.88 8.93 6.47 9.17 6.2C9.41 5.94 9.82 5.92 10.09 6.16L14.07 9.62C14.38 9.9 14.38 10.38 14.07 10.66L10.08 14.25C9.95 14.37 9.8 14.42 9.64 14.42ZM15.48 11.99C15.24 11.72 14.83 11.7 14.56 11.94L10.91 15.23C10.65 15.47 10.63 15.88 10.87 16.15C11.11 16.41 11.52 16.43 11.78 16.19L15.43 12.91C15.7 12.67 15.72 12.26 15.48 11.99Z" fill="#74767B" fill-opacity="1.000000" fill-rule="evenodd"/>
	</g>
</svg>
