<svg width="24.000000" height="24.000000" viewBox="0 0 24 24" fill="none" xmlns="http://www.w3.org/2000/svg" xmlns:xlink="http://www.w3.org/1999/xlink">
	<desc>
			Created with Pixso.
	</desc>
	<defs>
		<clipPath id="clip17_55">
			<rect id="Outline / Info Outline" width="24.000000" height="24.000000" fill="white" fill-opacity="0"/>
		</clipPath>
	</defs>
	<g >
		<path id="Shape" d="M3 12C3 7.02 7.02 3 12 3C16.97 3 21 7.02 21 12C21 16.97 16.97 21 12 21C7.02 21 3 16.97 3 12ZM12 4.29C7.74 4.29 4.29 7.74 4.29 12C4.29 16.25 7.74 19.7 12 19.7C16.25 19.7 19.7 16.25 19.7 12C19.7 7.74 16.25 4.29 12 4.29ZM12 7.34C12.41 7.34 12.75 7.68 12.75 8.09C12.75 8.51 12.41 8.84 12 8.84C11.58 8.84 11.25 8.51 11.25 8.09C11.25 7.68 11.58 7.34 12 7.34ZM12 10.2C12.35 10.2 12.64 10.49 12.64 10.85L12.64 14.7C12.64 15.05 12.94 15.35 13.29 15.35L13.35 15.35C13.7 15.35 14 15.64 14 16C14 16.35 13.7 16.65 13.35 16.65L13.29 16.65C12.22 16.65 11.35 15.77 11.35 14.7L11.35 10.85C11.35 10.49 11.64 10.2 12 10.2Z" fill="#74767B" fill-opacity="1.000000" fill-rule="evenodd"/>
	</g>
</svg>
