<svg width="24.000000" height="24.000000" viewBox="0 0 24 24" fill="none" xmlns="http://www.w3.org/2000/svg" xmlns:xlink="http://www.w3.org/1999/xlink">
	<desc>
			Created with Pixso.
	</desc>
	<defs>
		<clipPath id="clip6812_1401">
			<rect id="Solid / Less or Equal Solid" width="24.000000" height="24.000000" transform="matrix(-1 0 0 1 24 0)" fill="white" fill-opacity="0"/>
		</clipPath>
	</defs>
	<g >
		<path id="Shape" d="M3 12C3 7.02 7.02 3 12 3C16.97 3 21 7.02 21 12C21 16.97 16.97 21 12 21C7.02 21 3 16.97 3 12ZM10 12.67C9.73 12.43 9.32 12.45 9.08 12.72C8.84 12.98 8.86 13.39 9.13 13.63L12.21 16.4C12.47 16.64 12.88 16.62 13.12 16.36C13.36 16.09 13.34 15.68 13.08 15.44L10 12.67ZM14.83 14.45C14.7 14.59 14.53 14.66 14.35 14.66C14.19 14.66 14.04 14.61 13.91 14.49L10.92 11.8C10.61 11.52 10.61 11.04 10.92 10.76L13.9 8.16C14.17 7.92 14.58 7.94 14.82 8.2C15.06 8.47 15.05 8.88 14.78 9.12L12.29 11.28L14.79 13.53C15.05 13.77 15.07 14.18 14.83 14.45Z" fill="#74767B" fill-opacity="1.000000" fill-rule="evenodd"/>
	</g>
</svg>
