<svg width="24.000000" height="24.000000" viewBox="0 0 24 24" fill="none" xmlns="http://www.w3.org/2000/svg" xmlns:xlink="http://www.w3.org/1999/xlink">
	<desc>
			Created with Pixso.
	</desc>
	<defs>
		<clipPath id="clip17_109">
			<rect id="Outline / Pause Outline" width="24.000000" height="24.000000" fill="white" fill-opacity="0"/>
		</clipPath>
	</defs>
	<g clip-path="url(#clip17_109)">
		<path id="Shape" d="M21 12C21 16.97 16.97 21 12 21C7.02 21 3 16.97 3 12C3 7.02 7.02 3 12 3C16.97 3 21 7.02 21 12ZM19.7 12C19.7 16.25 16.25 19.7 12 19.7C7.74 19.7 4.29 16.25 4.29 12C4.29 7.74 7.74 4.3 12 4.3C16.25 4.3 19.7 7.74 19.7 12ZM10.21 8.43C10.57 8.43 10.86 8.72 10.86 9.08L10.86 14.94C10.86 15.3 10.57 15.59 10.21 15.59C9.85 15.59 9.56 15.3 9.56 14.94L9.56 9.08C9.56 8.72 9.85 8.43 10.21 8.43ZM13.78 8.43C14.14 8.43 14.43 8.72 14.43 9.08L14.43 14.94C14.43 15.3 14.14 15.59 13.78 15.59C13.42 15.59 13.13 15.3 13.13 14.94L13.13 9.08C13.13 8.72 13.42 8.43 13.78 8.43Z" fill="#717681" fill-opacity="1.000000" fill-rule="evenodd"/>
	</g>
</svg>
