<svg width="20.000000" height="20.000000" viewBox="0 0 20 20" fill="none" xmlns="http://www.w3.org/2000/svg" xmlns:xlink="http://www.w3.org/1999/xlink">
	<desc>
			Created with Pixso.
	</desc>
	<defs>
		<clipPath id="clip6746_1217">
			<rect id="Outline / Size Changer Horizontal Outline" width="20.000000" height="20.000000" fill="white" fill-opacity="0"/>
		</clipPath>
	</defs>
	<g clip-path="url(#clip6746_1217)">
		<path id="Shape" d="M8.14 3.34C8.5 3.34 8.79 3.64 8.79 4L8.79 16C8.79 16.35 8.5 16.65 8.14 16.65C7.79 16.65 7.5 16.35 7.5 16L7.5 4C7.5 3.64 7.79 3.34 8.14 3.34ZM11.85 3.34C12.2 3.34 12.5 3.64 12.5 4L12.5 16C12.5 16.35 12.2 16.65 11.85 16.65C11.49 16.65 11.2 16.35 11.2 16L11.2 4C11.2 3.64 11.49 3.34 11.85 3.34Z" fill="#74767B" fill-opacity="1.000000" fill-rule="evenodd"/>
	</g>
</svg>
