<svg width="24.000000" height="24.000000" viewBox="0 0 24 24" fill="none" xmlns="http://www.w3.org/2000/svg" xmlns:xlink="http://www.w3.org/1999/xlink">
	<desc>
			Created with Pixso.
	</desc>
	<defs>
		<clipPath id="clip2023_703">
			<rect id="Solid / Small Close Solid" width="24.000000" height="24.000000" fill="white" fill-opacity="0"/>
		</clipPath>
	</defs>
	<g >
		<path id="Shape" d="M12 3C7.02 3 3 7.02 3 12C3 16.97 7.02 21 12 21C16.97 21 21 16.97 21 12C21 7.02 16.97 3 12 3ZM14.81 9.19C15.06 9.45 15.05 9.86 14.8 10.11L12.92 11.94L14.8 13.76C15.05 14.01 15.06 14.42 14.81 14.68C14.57 14.94 14.16 14.95 13.9 14.7L12 12.84L10.09 14.7C9.83 14.95 9.42 14.94 9.18 14.68C8.93 14.42 8.94 14.01 9.19 13.76L11.07 11.94L9.19 10.11C8.94 9.86 8.93 9.45 9.18 9.19C9.42 8.94 9.83 8.93 10.09 9.18L12 11.03L13.9 9.18C14.16 8.93 14.57 8.94 14.81 9.19Z" fill="#74767B" fill-opacity="1.000000" fill-rule="evenodd"/>
	</g>
</svg>
