<svg width="24.000000" height="24.000000" viewBox="0 0 24 24" fill="none" xmlns="http://www.w3.org/2000/svg" xmlns:xlink="http://www.w3.org/1999/xlink">
	<desc>
			Created with Pixso.
	</desc>
	<defs>
		<clipPath id="clip2023_693">
			<rect id="Outline / Small Close Outline" width="24.000000" height="24.000000" fill="white" fill-opacity="0"/>
		</clipPath>
	</defs>
	<g clip-path="url(#clip2023_693)">
		<path id="Shape" d="M15.8 9.11C16.05 8.86 16.06 8.45 15.81 8.19C15.57 7.94 15.16 7.93 14.9 8.18L12 11.03L9.09 8.18C8.83 7.93 8.42 7.94 8.18 8.19C7.93 8.45 7.94 8.86 8.19 9.11L11.07 11.94L8.19 14.76C7.94 15.01 7.93 15.42 8.18 15.68C8.42 15.94 8.83 15.95 9.09 15.7L12 12.84L14.9 15.7C15.16 15.95 15.57 15.94 15.81 15.68C16.06 15.42 16.05 15.01 15.8 14.76L12.92 11.94L15.8 9.11Z" fill="#74767B" fill-opacity="1.000000" fill-rule="nonzero"/>
	</g>
</svg>
