<svg width="24" height="24" viewBox="0 0 24 24" fill="none" xmlns="http://www.w3.org/2000/svg">
<path fill-rule="evenodd" clip-rule="evenodd" d="M9 10.3C9 9.58203 9.58203 9 10.3 9H13.7C14.418 9 15 9.58203 15 10.3V13.7C15 14.418 14.418 15 13.7 15H10.3C9.58203 15 9 14.418 9 13.7V10.3ZM13.7 10.3V13.7L10.3 13.7V10.3H13.7Z" fill="#717681"/>
<path fill-rule="evenodd" clip-rule="evenodd" d="M3 12C3 7.02944 7.02944 3 12 3C16.9706 3 21 7.02944 21 12C21 16.9706 16.9706 21 12 21C7.02944 21 3 16.9706 3 12ZM4.3 12C4.3 7.74741 7.74741 4.3 12 4.3C16.2526 4.3 19.7 7.74741 19.7 12C19.7 16.2526 16.2526 19.7 12 19.7C7.74741 19.7 4.3 16.2526 4.3 12Z" fill="#717681"/>
</svg>
