<svg width="24.000000" height="24.000000" viewBox="0 0 24 24" fill="none" xmlns="http://www.w3.org/2000/svg" xmlns:xlink="http://www.w3.org/1999/xlink">
	<desc>
			Created with Pixso.
	</desc>
	<defs>
		<clipPath id="clip17_178">
			<rect id="Outline / Thumbs Down Outline" width="24.000000" height="24.000000" transform=" rotate(0.000005)" fill="white" fill-opacity="0"/>
		</clipPath>
	</defs>
	<g>
		<path id="Shape" d="M19.69 4C20.41 4 20.99 4.58 20.99 5.31L20.99 13.06C20.99 13.78 20.41 14.37 19.69 14.37L16.08 14.37L14.01 16.82C13.62 17.28 13.41 17.86 13.41 18.47L13.41 18.56C13.41 19.91 12.33 21 10.99 21C9.66 21 8.58 19.91 8.58 18.56L8.58 17.91C8.58 17.66 8.61 17.41 8.67 17.17L9.14 15.33L7 15.33C5.04 15.33 3.61 13.48 4.09 11.57L5.4 6.28C5.73 4.94 6.93 4 8.31 4L19.69 4ZM15.27 13.31L15.27 5.31L8.31 5.31C7.53 5.31 6.85 5.84 6.66 6.6L5.35 11.89C5.08 12.97 5.89 14.02 7 14.02L9.14 14.02C9.55 14.02 9.93 14.2 10.17 14.52C10.42 14.84 10.5 15.26 10.4 15.65L9.97 17.33C9.91 17.58 9.88 17.83 9.88 18.08L9.88 18.56C9.88 19.18 10.38 19.68 10.99 19.68C11.61 19.68 12.11 19.18 12.11 18.56L12.11 18.47C12.11 17.55 12.43 16.67 13.02 15.98L15.27 13.31ZM16.6 13.06L16.6 5.31L19.69 5.31L19.69 13.06L16.6 13.06Z" fill="#717681" fill-opacity="1.000000" fill-rule="evenodd"/>
	</g>
</svg>
