<svg xmlns="http://www.w3.org/2000/svg" fill="none" viewBox="0 0 24 24" focusable="false"><defs><clipPath id="FaceID_Outline_svg__a"><path fill="#fff" fill-opacity="0" d="M0 0h24v24H0z"/></clipPath></defs><g clip-path="url(#FaceID_Outline_svg__a)"><path fill="#717681" fill-rule="evenodd" d="M4.89 2h.8c.35 0 .65.29.65.65 0 .35-.3.65-.65.65h-.8c-.94 0-1.7.76-1.7 1.7v.69c0 .36-.29.65-.65.65s-.65-.29-.65-.65V5c0-1.66 1.34-3 3-3m17 3.69c0 .36-.29.65-.65.65s-.65-.29-.65-.65V5c0-.94-.76-1.7-1.7-1.7h-.59c-.35 0-.65-.3-.65-.65 0-.36.3-.65.65-.65h.59c1.65 0 3 1.34 3 3zM7.5 8c.35 0 .65.29.65.65v1.75a.655.655 0 0 1-1.31 0V8.65c0-.36.3-.65.66-.65M12 8c.35 0 .65.29.65.65v3.15c0 1.23-.99 2.22-2.23 2.22h-.08c-.36 0-.66-.29-.66-.65s.3-.65.66-.65h.08c.52 0 .93-.41.93-.92V8.65c0-.36.29-.65.65-.65m4.5 0c.35 0 .65.29.65.65v1.75c0 .36-.3.65-.65.65-.36 0-.65-.29-.65-.65V8.65c0-.36.29-.65.65-.65m-.52 7.25c.13.13.2.31.2.48 0 .16-.05.32-.17.44-.8.86-2.2 1.4-3.63 1.49-1.44.08-3.04-.3-4.21-1.47a.64.64 0 0 1-.19-.46c0-.17.06-.33.19-.46.26-.25.67-.25.92 0 .84.84 2.04 1.16 3.22 1.09 1.2-.07 2.24-.53 2.75-1.08.25-.26.66-.27.92-.03M1.89 18.3c0-.35.29-.65.65-.65s.65.3.65.65v.7c0 .93.76 1.7 1.7 1.7h.8c.35 0 .65.29.65.65 0 .35-.3.65-.65.65h-.8c-1.66 0-3-1.35-3-3zm18.7 0c0-.35.29-.65.65-.65s.65.3.65.65v.7c0 1.65-1.35 3-3 3h-.59c-.35 0-.65-.3-.65-.65 0-.36.3-.65.65-.65h.59c.94 0 1.7-.77 1.7-1.7z"/></g></svg>