<svg xmlns="http://www.w3.org/2000/svg" fill="none" viewBox="0 0 24 24" focusable="false"><path fill="#717681" fill-rule="evenodd" d="M12 8.006a.65.65 0 0 1 .65.65v3.146c0 1.233-.99 2.223-2.223 2.223h-.087a.65.65 0 1 1 0-1.3h.087a.916.916 0 0 0 .923-.923V8.656a.65.65 0 0 1 .65-.65M15.983 15.26a.65.65 0 0 1 .03.918c-.802.855-2.203 1.4-3.626 1.483-1.44.084-3.04-.297-4.21-1.468a.65.65 0 1 1 .919-.919c.838.84 2.034 1.158 3.216 1.089 1.198-.07 2.244-.53 2.753-1.074a.65.65 0 0 1 .918-.03M7.5 8.006a.65.65 0 0 1 .65.65v1.748a.65.65 0 1 1-1.3 0V8.656a.65.65 0 0 1 .65-.65M16.5 8.006a.65.65 0 0 1 .65.65v1.748a.65.65 0 1 1-1.3 0V8.656a.65.65 0 0 1 .65-.65" clip-rule="evenodd"/><path fill="#717681" d="M4.892 2h.799a.65.65 0 0 1 0 1.3h-.8a1.7 1.7 0 0 0-1.7 1.7v.691a.65.65 0 1 1-1.3 0v-.69a3 3 0 0 1 3-3M2.542 17.659a.65.65 0 0 0-.65.65V19a3 3 0 0 0 3 3h.799a.65.65 0 1 0 0-1.3h-.8a1.7 1.7 0 0 1-1.7-1.7v-.691a.65.65 0 0 0-.65-.65M21.242 17.659a.65.65 0 0 0-.65.65V19a1.7 1.7 0 0 1-1.7 1.7h-.583a.65.65 0 1 0 0 1.3h.583a3 3 0 0 0 3-3v-.691a.65.65 0 0 0-.65-.65M21.242 6.341a.65.65 0 0 0 .65-.65v-.69a3 3 0 0 0-3-3h-.583a.65.65 0 1 0 0 1.3h.583a1.7 1.7 0 0 1 1.7 1.7v.69c0 .36.29.65.65.65"/></svg>