<svg xmlns="http://www.w3.org/2000/svg" fill="none" viewBox="0 0 24 24" focusable="false"><path fill="#717681" fill-rule="evenodd" d="M5 2h14a3 3 0 0 1 3 3v14a3 3 0 0 1-3 3H5a3 3 0 0 1-3-3V5a3 3 0 0 1 3-3m2.5 6.01a.65.65 0 0 1 .65.65v1.748a.65.65 0 1 1-1.3 0V8.66a.65.65 0 0 1 .65-.65m5.15.65a.65.65 0 1 0-1.3 0v3.146a.916.916 0 0 1-.923.922h-.087a.65.65 0 1 0 0 1.3h.087c1.233 0 2.223-.99 2.223-2.222zm3.363 7.522a.65.65 0 1 0-.948-.889c-.51.543-1.555 1.004-2.753 1.074-1.181.069-2.378-.25-3.216-1.089a.65.65 0 0 0-.92.92c1.171 1.17 2.771 1.55 4.211 1.467 1.423-.084 2.824-.628 3.626-1.483M17.15 8.66a.65.65 0 1 0-1.3 0v1.748a.65.65 0 1 0 1.3 0z" clip-rule="evenodd"/></svg>