<svg xmlns="http://www.w3.org/2000/svg" fill="none" viewBox="0 0 24 24" focusable="false"><path fill="#74767B" fill-rule="evenodd" d="M19 2H5C3.34 2 2 3.34 2 5v14c0 1.65 1.34 3 3 3h14c1.65 0 3-1.35 3-3V5c0-1.66-1.35-3-3-3M8.01 7.14A6.38 6.38 0 0 1 12 5.75c1.68 0 3.22.65 4.36 1.72.26.24.67.23.92-.03.24-.27.23-.68-.03-.92A7.65 7.65 0 0 0 12 4.45c-1.82 0-3.49.62-4.8 1.67a7.69 7.69 0 0 0-2.9 6.03c0 .54.05 1.08.16 1.59.07.35.42.58.77.5.35-.07.58-.41.5-.77a6.395 6.395 0 0 1 2.28-6.33m10.93 1.67a.653.653 0 0 0-.87-.3c-.33.15-.46.54-.31.86.41.84.64 1.78.64 2.78v.02c0 .76 0 1.16-.23 2.57-.05.36.19.69.54.75.36.05.69-.19.75-.54.23-1.51.24-1.96.24-2.8 0-1.2-.28-2.33-.76-3.34M12 7.38c-.36 0-.65.29-.65.65s.29.65.65.65c1.66 0 3.05 1.18 3.37 2.74.08.36.42.58.77.51.35-.08.58-.42.51-.77A4.75 4.75 0 0 0 12 7.38m-1.97 1.91a.647.647 0 1 0-.74-1.06 4.74 4.74 0 0 0-2.05 3.9c0 1.1-.1 1.77-.28 2.29s-.46.95-.9 1.57c-.21.3-.14.7.15.91s.7.14.91-.15c.45-.63.82-1.19 1.07-1.9.25-.72.35-1.55.35-2.72s.59-2.21 1.49-2.84M12 11.27c-.47 0-.84.37-.84.84 0 .35-.29.65-.65.65s-.65-.3-.65-.65c0-1.18.96-2.14 2.14-2.14 1.17 0 2.13.96 2.13 2.14 0 2.51-.34 4.27-1.67 7.1-.16.32-.54.46-.87.31a.65.65 0 0 1-.31-.86c1.26-2.67 1.55-4.23 1.55-6.55a.83.83 0 0 0-.83-.84m-1.35 2.39c.35.07.57.42.5.77-.45 2.1-1.24 3.31-1.83 4.12-.22.29-.62.35-.91.14a.653.653 0 0 1-.14-.91c.53-.72 1.21-1.76 1.6-3.62.08-.35.42-.58.78-.5m6.34.01c0-.36-.29-.65-.65-.65s-.65.29-.65.65c0 1.16-.2 2.2-.41 2.95-.1.37-.2.67-.28.88-.03.1-.06.17-.09.22-.01.03-.01.05-.02.06v.01c-.15.33 0 .72.32.86.33.15.72 0 .86-.33l.01-.01.01-.02c0-.01.01-.04.03-.07.02-.07.06-.16.1-.28.09-.23.2-.57.32-.98.22-.83.45-1.99.45-3.29"/></svg>