<svg xmlns="http://www.w3.org/2000/svg" fill="none" viewBox="0 0 24 24" focusable="false"><path fill="#717681" fill-rule="evenodd" d="M4.89 2h.8c.35 0 .65.29.65.65 0 .35-.3.65-.65.65h-.8c-.94 0-1.7.76-1.7 1.7v.69c0 .36-.29.65-.65.65s-.65-.29-.65-.65V5c0-1.66 1.34-3 3-3m17 3.69c0 .36-.29.65-.65.65s-.65-.29-.65-.65V5c0-.94-.76-1.7-1.7-1.7h-.59c-.35 0-.65-.3-.65-.65 0-.36.3-.65.65-.65h.59c1.65 0 3 1.34 3 3zM12 5.75c-1.51 0-2.9.52-3.99 1.39a6.4 6.4 0 0 0-2.28 6.33c.01.05.02.09.02.14 0 .3-.21.57-.52.63-.35.08-.7-.15-.77-.5a7.6 7.6 0 0 1-.16-1.59 7.69 7.69 0 0 1 2.9-6.03A7.64 7.64 0 0 1 12 4.45c2.02 0 3.87.78 5.25 2.07.14.13.2.3.2.47 0 .16-.05.32-.17.45-.25.26-.66.27-.92.03A6.36 6.36 0 0 0 12 5.75m-.65 2.28c0-.36.29-.65.65-.65 2.29 0 4.2 1.62 4.65 3.78 0 .04.01.09.01.13 0 .3-.21.57-.52.64a.655.655 0 0 1-.77-.51A3.444 3.444 0 0 0 12 8.68c-.36 0-.65-.29-.65-.65m-1.04.73c0 .21-.1.41-.28.53-.9.63-1.49 1.67-1.49 2.84s-.1 2-.35 2.72c-.25.71-.62 1.27-1.07 1.9a.65.65 0 0 1-1.18-.38c0-.13.04-.26.12-.38.44-.62.72-1.05.9-1.57s.28-1.19.28-2.29c0-1.62.82-3.05 2.05-3.9.3-.21.7-.14.91.16.07.11.11.24.11.37m7.76-.25c.32-.16.71-.02.87.3.48 1.01.76 2.14.76 3.34 0 .84-.01 1.29-.24 2.8-.06.35-.39.59-.75.54a.65.65 0 0 1-.55-.64c0-.04.01-.07.01-.11.22-1.4.23-1.8.23-2.55v-.04c0-1-.23-1.94-.64-2.78a.647.647 0 0 1 .31-.86M12 11.27c-.47 0-.84.37-.84.84 0 .35-.29.65-.65.65s-.65-.3-.65-.65c0-1.18.96-2.14 2.14-2.14 1.17 0 2.13.96 2.13 2.14 0 2.51-.34 4.27-1.67 7.1-.16.32-.54.46-.87.31a.65.65 0 0 1-.31-.86c1.26-2.67 1.55-4.23 1.55-6.55a.83.83 0 0 0-.83-.84m4.34 1.75c.36 0 .65.29.65.65 0 1.3-.23 2.46-.45 3.29-.12.41-.23.75-.32.98-.04.12-.08.21-.1.28-.02.03-.03.05-.03.07l-.01.02-.01.01c-.14.33-.53.48-.86.33a.643.643 0 0 1-.32-.86v-.01c.01-.01.01-.03.02-.06.03-.05.06-.12.09-.22.08-.21.18-.51.28-.88.21-.75.41-1.79.41-2.95 0-.36.29-.65.65-.65m-5.69.64c.3.06.51.33.51.63 0 .05 0 .09-.01.14-.45 2.1-1.24 3.31-1.83 4.12-.22.29-.62.35-.91.14a.63.63 0 0 1-.27-.52c0-.14.04-.27.13-.39.53-.72 1.21-1.76 1.6-3.62.08-.35.42-.58.78-.5M1.89 18.3c0-.35.29-.65.65-.65s.65.3.65.65v.7c0 .93.76 1.7 1.7 1.7h.8c.35 0 .65.29.65.65 0 .35-.3.65-.65.65h-.8c-1.66 0-3-1.35-3-3zm18.7 0c0-.35.29-.65.65-.65s.65.3.65.65v.7c0 1.65-1.35 3-3 3h-.59c-.35 0-.65-.3-.65-.65 0-.36.3-.65.65-.65h.59c.94 0 1.7-.77 1.7-1.7z"/></svg>