<svg xmlns="http://www.w3.org/2000/svg" fill="none" viewBox="0 0 24 24" focusable="false"><defs><clipPath id="Incognito_Solid_svg__a"><path fill="#fff" fill-opacity="0" d="M0 0h24v24H0z"/></clipPath></defs><g clip-path="url(#Incognito_Solid_svg__a)"><path fill="#717681" fill-rule="evenodd" d="M15.14 3.41c1.12-.41 2.35.27 2.58 1.45l1.43 7.1h1.21c.36 0 .65.29.65.65s-.29.65-.65.65H3.66c-.36 0-.65-.29-.65-.65s.29-.65.65-.65h1.47l1.42-7.1a1.953 1.953 0 0 1 2.59-1.45l2.18.81c.53.19 1.11.19 1.63 0zm-10 12.54c0-.72.58-1.31 1.3-1.31h11.4c.71 0 1.3.59 1.3 1.31v1.52c0 1.67-1.35 3.03-3.01 3.03h-.24c-1.66 0-3.01-1.36-3.01-3.03v-.77c0-.41-.33-.75-.74-.75-.42 0-.75.34-.75.75v.77c0 1.67-1.34 3.03-3 3.03h-.25c-1.66 0-3-1.36-3-3.03zm4.95.4c0-.22-.18-.4-.4-.4H6.84c-.22 0-.4.18-.4.4v1.12c0 .95.76 1.71 1.7 1.71h.25c.94 0 1.7-.76 1.7-1.71zm4.49-.4c-.22 0-.4.18-.4.4v1.12c0 .95.77 1.71 1.71 1.71h.24c.94 0 1.71-.76 1.71-1.71v-1.12c0-.22-.18-.4-.4-.4z"/></g></svg>