<svg xmlns="http://www.w3.org/2000/svg" fill="none" viewBox="0 0 24 24" focusable="false"><path fill="#717681" fill-rule="evenodd" d="M12.4 3.55a3 3 0 0 0-4.24 0L3.92 7.8a3 3 0 0 0 0 4.24l2.12 2.12a3 3 0 0 0 4.24 0l.34-.33 6.68 6.68c.25.26.57.43.92.51.99.22 1.97-.38 2.23-1.37l.16-.63c.22-.87-.03-1.79-.67-2.42l-.34-.35c-.25-.24-.58-.38-.92-.38h-.61c-.34 0-.62-.24-.69-.57l-.39-1.99c-.05-.26-.17-.5-.36-.68l-2.43-2.39.32-.32a2.982 2.982 0 0 0 0-4.24zm-1.87 4.21c.25-.25.25-.66 0-.92a.658.658 0 0 0-.92 0L7.25 9.2a.64.64 0 0 0 0 .92c.25.26.66.26.92 0z"/></svg>