<svg xmlns="http://www.w3.org/2000/svg" fill="none" viewBox="0 0 24 24" focusable="false"><path fill="#74767B" fill-rule="evenodd" d="M8.01 8.99V7.08a3.975 3.975 0 0 1 7.95 0v1.91H16c1.65 0 3 1.35 3 3v5c0 1.66-1.35 3-3 3H8c-1.66 0-3-1.34-3-3v-5c0-1.65 1.34-3 3-3zm1.33-1.91a2.646 2.646 0 0 1 5.29 0v1.91H9.34zM8 10.29h8c.93 0 1.7.77 1.7 1.7v5c0 .94-.77 1.71-1.7 1.71H8c-.94 0-1.7-.77-1.7-1.71v-5c0-.93.76-1.7 1.7-1.7m4 2.7c.35 0 .65.29.65.65v1.71c0 .36-.3.65-.65.65-.36 0-.65-.29-.65-.65v-1.71c0-.36.29-.65.65-.65"/></svg>