<svg xmlns="http://www.w3.org/2000/svg" width="24" height="24" fill="none"><path fill="#717681" d="M12.65 13.642a.65.65 0 1 0-1.3 0v1.716a.65.65 0 0 0 1.3 0v-1.716Z"/><path fill="#717681" fill-rule="evenodd" d="M8.016 7.084V9H8a3 3 0 0 0-3 3v5a3 3 0 0 0 3 3h8a3 3 0 0 0 3-3v-5a3 3 0 0 0-3-3h-.04V7.084a3.972 3.972 0 0 0-7.944 0Zm3.972-2.642a2.642 2.642 0 0 0-2.642 2.642V9h5.284V7.084a2.642 2.642 0 0 0-2.642-2.642ZM16 10.3H8A1.7 1.7 0 0 0 6.3 12v5A1.7 1.7 0 0 0 8 18.7h8a1.7 1.7 0 0 0 1.7-1.7v-5a1.7 1.7 0 0 0-1.7-1.7Z" clip-rule="evenodd"/></svg>