<svg xmlns="http://www.w3.org/2000/svg" fill="none" viewBox="0 0 24 24" focusable="false"><path fill="#74767B" fill-rule="evenodd" d="M4.89 2h.8c.35 0 .65.29.65.65 0 .35-.3.65-.65.65h-.8c-.94 0-1.7.76-1.7 1.7v.69c0 .36-.29.65-.65.65s-.65-.29-.65-.65V5c0-1.66 1.34-3 3-3m17 3.69c0 .36-.29.65-.65.65s-.65-.29-.65-.65V5c0-.94-.76-1.7-1.7-1.7h-.59c-.35 0-.65-.3-.65-.65 0-.36.3-.65.65-.65h.59c1.65 0 3 1.34 3 3zM7.75 12c0 .82-.68 1.5-1.5 1.5-.83 0-1.5-.68-1.5-1.5 0-.83.67-1.5 1.5-1.5.82 0 1.5.67 1.5 1.5m5.75 0c0 .82-.68 1.5-1.5 1.5-.83 0-1.5-.68-1.5-1.5 0-.83.67-1.5 1.5-1.5.82 0 1.5.67 1.5 1.5m5.75 0c0 .82-.68 1.5-1.5 1.5-.83 0-1.5-.68-1.5-1.5 0-.83.67-1.5 1.5-1.5.82 0 1.5.67 1.5 1.5M1.89 18.3c0-.35.29-.65.65-.65s.65.3.65.65v.7c0 .93.76 1.7 1.7 1.7h.8c.35 0 .65.29.65.65 0 .35-.3.65-.65.65h-.8c-1.66 0-3-1.35-3-3zm18.7 0c0-.35.29-.65.65-.65s.65.3.65.65v.7c0 1.65-1.35 3-3 3h-.59c-.35 0-.65-.3-.65-.65 0-.36.3-.65.65-.65h.59c.94 0 1.7-.77 1.7-1.7z"/></svg>