<svg xmlns="http://www.w3.org/2000/svg" fill="none" viewBox="0 0 24 24" focusable="false"><path fill="#717681" d="M7.75 12a1.5 1.5 0 1 1-3 0 1.5 1.5 0 0 1 3 0M13.5 12a1.5 1.5 0 1 1-3 0 1.5 1.5 0 0 1 3 0M19.25 12a1.5 1.5 0 1 1-3 0 1.5 1.5 0 0 1 3 0M4.892 2h.799a.65.65 0 0 1 0 1.3h-.8a1.7 1.7 0 0 0-1.7 1.7v.691a.65.65 0 1 1-1.3 0v-.69a3 3 0 0 1 3-3M2.542 17.659a.65.65 0 0 0-.65.65V19a3 3 0 0 0 3 3h.799a.65.65 0 1 0 0-1.3h-.8a1.7 1.7 0 0 1-1.7-1.7v-.691a.65.65 0 0 0-.65-.65M21.242 17.659a.65.65 0 0 0-.65.65V19a1.7 1.7 0 0 1-1.7 1.7h-.583a.65.65 0 1 0 0 1.3h.583a3 3 0 0 0 3-3v-.691a.65.65 0 0 0-.65-.65M21.242 6.341a.65.65 0 0 0 .65-.65v-.69a3 3 0 0 0-3-3h-.583a.65.65 0 1 0 0 1.3h.583a1.7 1.7 0 0 1 1.7 1.7v.69c0 .36.29.65.65.65"/></svg>