<svg xmlns="http://www.w3.org/2000/svg" fill="none" viewBox="0 0 24 24" focusable="false"><path fill="#74767B" fill-rule="evenodd" d="M4 5.92c0-.6.4-1.12.98-1.26l6.29-1.58c.48-.11.98-.11 1.45 0l6.29 1.58c.58.14.99.66.99 1.26v5.23c0 3.1-1.6 5.99-4.23 7.63l-3.09 1.93a1.3 1.3 0 0 1-1.37 0l-3.09-1.93A8.99 8.99 0 0 1 4 11.15zm6.67 1.62a.64.64 0 0 0 0 .92c.25.26.66.26.91 0l.62-.61c.74-.74 1.93-.74 2.67 0s.74 1.93 0 2.67l-.61.62a.64.64 0 0 0 0 .92c.25.25.66.25.92 0l.61-.62a3.18 3.18 0 0 0 0-4.51 3.18 3.18 0 0 0-4.51 0zm2.76 2.67a.64.64 0 0 0 0-.92.63.63 0 0 0-.91 0l-2.05 2.04c-.25.25-.25.66 0 .92.26.25.67.25.92 0zM8.11 14.6a3.223 3.223 0 0 1 .03-4.53l.64-.64c.25-.25.66-.25.92 0 .25.26.25.67 0 .92l-.64.64c-.74.74-.75 1.94-.02 2.7.74.73 1.93.73 2.67 0l.66-.67c.25-.25.67-.25.92 0 .25.26.25.67 0 .92l-.66.67a3.21 3.21 0 0 1-4.52-.01"/></svg>