<svg xmlns="http://www.w3.org/2000/svg" fill="none" viewBox="0 0 24 24" focusable="false"><defs><clipPath id="Safety_Outline_svg__a"><path fill="#fff" fill-opacity="0" d="M0 0h24v24H0z"/></clipPath></defs><g clip-path="url(#Safety_Outline_svg__a)"><path fill="#717681" fill-rule="evenodd" d="M4.98 4.75C4.4 4.89 4 5.41 4 6.01v5.23c0 3.1 1.59 5.99 4.22 7.63l3.09 1.93c.42.26.95.26 1.37 0l3.09-1.93A8.998 8.998 0 0 0 20 11.24V6.01c0-.6-.41-1.12-.99-1.26l-6.29-1.57c-.48-.12-.97-.12-1.45 0zm13.72 6.49V6.01l-6.29-1.57c-.27-.07-.56-.07-.83 0L5.3 6.01v5.23c0 2.66 1.36 5.12 3.61 6.53L12 19.7l3.08-1.93a7.702 7.702 0 0 0 3.62-6.53m-1.81-1.73-2.98-.43a.295.295 0 0 1-.23-.16l-1.33-2.7c-.14-.3-.57-.3-.71 0l-1.34 2.7c-.04.09-.12.15-.22.16l-2.98.43c-.33.05-.46.45-.22.68l2.15 2.1c.07.07.11.17.09.27l-.51 2.97c-.05.32.29.57.58.42l2.66-1.4c.09-.05.2-.05.28 0l2.67 1.39c.29.16.63-.09.58-.42l-.51-2.96c-.02-.1.01-.2.08-.27l2.16-2.1c.24-.23.11-.63-.22-.68m-2 1.03-1.17-.17a1.61 1.61 0 0 1-1.2-.88l-.53-1.06-.52 1.06c-.23.47-.68.8-1.2.88l-1.17.17.84.82c.38.37.55.9.46 1.42l-.2 1.17 1.05-.55c.47-.25 1.02-.25 1.49 0l1.05.55-.2-1.17c-.09-.52.08-1.05.46-1.42z"/></g></svg>