<svg xmlns="http://www.w3.org/2000/svg" fill="none" viewBox="0 0 24 24" focusable="false"><path fill="#717681" fill-rule="evenodd" d="M4 5.923a1.3 1.3 0 0 1 .985-1.262l6.287-1.571a3 3 0 0 1 1.456 0l6.287 1.572A1.3 1.3 0 0 1 20 5.922v5.231a9 9 0 0 1-4.23 7.632l-3.081 1.926a1.3 1.3 0 0 1-1.378 0L8.23 18.785A9 9 0 0 1 4 11.153zm7.049 7.479c.28.28.74.27 1.01-.02l3.06-3.29c.24-.27.22-.68-.04-.92a.65.65 0 0 0-.92.04l-2.63 2.83-1.421-1.403a.66.66 0 0 0-.92 0c-.25.25-.25.67 0 .92z" clip-rule="evenodd"/></svg>