<svg xmlns="http://www.w3.org/2000/svg" fill="none" viewBox="0 0 24 24" focusable="false"><defs><clipPath id="Safety_Solid_svg__a"><path fill="#fff" fill-opacity="0" d="M0 0h24v24H0z"/></clipPath></defs><g clip-path="url(#Safety_Solid_svg__a)"><path fill="#717681" fill-rule="evenodd" d="M4 6.01c0-.6.4-1.12.98-1.26l6.29-1.57c.48-.12.97-.12 1.45 0l6.29 1.57c.58.14.99.66.99 1.26v5.23c0 3.1-1.6 5.99-4.23 7.63l-3.09 1.93a1.3 1.3 0 0 1-1.37 0l-3.09-1.93A8.99 8.99 0 0 1 4 11.24zm9.68 2.91-1.33-2.7c-.14-.3-.57-.3-.71 0l-1.34 2.7c-.04.09-.12.15-.22.16l-2.98.43c-.33.05-.46.45-.22.68l2.15 2.1c.07.07.11.17.09.27l-.51 2.97c-.05.32.29.57.58.42l2.66-1.4c.09-.05.2-.05.28 0l2.67 1.39c.29.16.63-.09.58-.42l-.51-2.96c-.02-.1.01-.2.08-.27l2.16-2.1c.24-.23.11-.63-.22-.68l-2.98-.43a.3.3 0 0 1-.23-.16"/></g></svg>