<svg xmlns="http://www.w3.org/2000/svg" fill="none" viewBox="0 0 24 24" focusable="false"><defs><clipPath id="Safe_Certificate_Outline_svg__a"><path fill="#fff" fill-opacity="0" d="M0 0h24v24H0z"/></clipPath></defs><g clip-path="url(#Safe_Certificate_Outline_svg__a)"><path fill="#717681" fill-rule="evenodd" d="M4 6.01c0-.6.4-1.12.98-1.26l6.29-1.57c.48-.12.97-.12 1.45 0l6.29 1.57c.58.14.99.66.99 1.26v5.23c0 3.1-1.6 5.99-4.23 7.63l-3.09 1.93a1.3 1.3 0 0 1-1.37 0l-3.09-1.93A8.989 8.989 0 0 1 4 11.24zm14.7 0v5.23c0 2.66-1.37 5.12-3.62 6.53L12 19.7l-3.09-1.93a7.693 7.693 0 0 1-3.61-6.53V6.01l6.28-1.57c.27-.07.56-.07.83 0zm-7.66 7.39c.28.28.74.27 1.01-.02l3.06-3.29c.24-.27.22-.68-.04-.92a.65.65 0 0 0-.92.04l-2.63 2.83-1.42-1.41a.658.658 0 0 0-.92 0c-.25.25-.25.67 0 .92z"/></g></svg>