<svg xmlns="http://www.w3.org/2000/svg" fill="none" viewBox="0 0 24 24" focusable="false"><defs><clipPath id="Safety_Certificate_Outline_svg__a"><path fill="#fff" fill-opacity="0" d="M0 0h24v24H0z"/></clipPath></defs><g clip-path="url(#Safety_Certificate_Outline_svg__a)"><path fill="#717681" fill-rule="evenodd" d="M4 5.92c0-.6.4-1.12.98-1.26l6.29-1.58c.48-.11.98-.11 1.45 0l6.29 1.58c.58.14.99.66.99 1.26v5.23c0 3.1-1.6 5.99-4.23 7.63l-3.09 1.93a1.3 1.3 0 0 1-1.37 0l-3.09-1.93A8.989 8.989 0 0 1 4 11.15zm14.7 0v5.23c0 2.65-1.37 5.12-3.62 6.53L12 19.6l-3.09-1.92a7.715 7.715 0 0 1-3.62-6.53V5.92l6.29-1.57c.27-.07.56-.07.83 0zm-8.03 2.54a.64.64 0 0 1 0-.92l.61-.61a3.18 3.18 0 0 1 4.51 0 3.18 3.18 0 0 1 0 4.51l-.61.61a.64.64 0 0 1-.92 0 .628.628 0 0 1 0-.91l.61-.62c.74-.74.74-1.93 0-2.67s-1.93-.74-2.67 0l-.61.61a.64.64 0 0 1-.92 0m2.76 1.75a.64.64 0 0 0 0-.92.628.628 0 0 0-.91 0l-2.05 2.04c-.25.25-.25.66 0 .92.26.25.67.25.92 0zm-5.29-.14a3.223 3.223 0 0 0-.03 4.53l.01.01a3.199 3.199 0 0 0 4.51 0l.66-.67c.25-.25.25-.66 0-.92a.658.658 0 0 0-.92 0l-.66.67c-.74.73-1.93.73-2.67 0-.73-.76-.72-1.96.02-2.7l.64-.64c.25-.25.25-.66 0-.92a.658.658 0 0 0-.92 0z"/></g></svg>