<svg xmlns="http://www.w3.org/2000/svg" fill="none" viewBox="0 0 24 24" focusable="false"><path fill="#74767B" fill-rule="evenodd" d="M14.31 7.11c0-1.48 1.21-2.69 2.69-2.69a2.69 2.69 0 0 1 2.69 2.69v.08c0 .36.29.65.65.65s.65-.29.65-.65v-.08c0-2.2-1.79-3.99-3.99-3.99s-3.99 1.79-3.99 3.99V9H8c-1.66 0-3 1.34-3 3v5c0 1.65 1.34 3 3 3h8c1.65 0 3-1.35 3-3v-5c0-1.66-1.35-3-3-3h-1.69zM8 10.3h8c.93 0 1.7.76 1.7 1.7v5c0 .93-.77 1.7-1.7 1.7H8c-.94 0-1.7-.77-1.7-1.7v-5c0-.94.76-1.7 1.7-1.7m4 2.69c.35 0 .65.29.65.65v1.71c0 .36-.3.65-.65.65-.36 0-.65-.29-.65-.65v-1.71c0-.36.29-.65.65-.65"/></svg>