<svg xmlns="http://www.w3.org/2000/svg" fill="none" viewBox="0 0 24 24" focusable="false"><defs><clipPath id="Unsafety_Outline_svg__a"><path fill="#fff" fill-opacity="0" d="M0 0h24v24H0z"/></clipPath></defs><g clip-path="url(#Unsafety_Outline_svg__a)"><path fill="#74767B" fill-rule="evenodd" d="M4.98 4.75C4.4 4.89 4 5.41 4 6.01v5.23c0 3.1 1.59 5.99 4.22 7.63l3.09 1.93c.42.26.95.26 1.37 0l3.09-1.93A9 9 0 0 0 20 11.24V6.01c0-.6-.41-1.12-.99-1.26l-6.29-1.57c-.48-.12-.97-.12-1.45 0zm13.72 6.49V6.01l-6.29-1.57c-.27-.07-.56-.07-.83 0L5.3 6.01v5.23c0 2.66 1.36 5.12 3.61 6.53L12 19.7l3.08-1.93a7.7 7.7 0 0 0 3.62-6.53M12 13.79c.35 0 .65-.29.65-.65V8c0-.36-.3-.65-.65-.65-.36 0-.65.29-.65.65v5.14c0 .36.29.65.65.65m0 2.86a.749.749 0 1 0 0-1.5c-.42 0-.75.33-.75.75 0 .41.33.75.75.75"/></g></svg>