<svg width="24.000000" height="24.000000" viewBox="0 0 24 24" fill="none" xmlns="http://www.w3.org/2000/svg" xmlns:xlink="http://www.w3.org/1999/xlink">
	<desc>
			Created with Pixso.
	</desc>
	<defs>
		<clipPath id="clip17_1026">
			<rect id="Outline / Card TP Outline" width="24.000000" height="24.000000" fill="white" fill-opacity="0"/>
		</clipPath>
	</defs>
	<g clip-path="url(#clip17_1026)">
		<path id="Shape" d="M3 15.99C3 17.65 4.34 18.99 6 18.99L18 18.99C19.65 18.99 21 17.65 21 15.99L21 7.99C21 6.44 19.81 5.16 18.3 5.01C18.2 5 18.1 4.99 18 4.99L6 4.99C4.34 4.99 3 6.34 3 7.99L3 15.99ZM18 6.29C18.93 6.29 19.7 7.06 19.7 7.99L19.7 8.28L4.49 8.28C4.42 8.28 4.36 8.29 4.3 8.31L4.3 7.99C4.3 7.06 5.06 6.29 6 6.29L18 6.29ZM4.3 9.55L4.3 15.99C4.3 16.93 5.06 17.69 6 17.69L18 17.69C18.93 17.69 19.7 16.93 19.7 15.99L19.7 9.58L4.49 9.58C4.42 9.58 4.36 9.57 4.3 9.55ZM7.14 10.54C6.78 10.54 6.49 10.83 6.49 11.19C6.49 11.55 6.78 11.84 7.14 11.84L8.49 11.84L8.49 16.1C8.49 16.46 8.78 16.75 9.14 16.75C9.49 16.75 9.79 16.46 9.79 16.1L9.79 11.84L11.14 11.84C11.49 11.84 11.79 11.55 11.79 11.19C11.79 10.83 11.49 10.54 11.14 10.54L7.14 10.54ZM13.44 10.54L15.21 10.54C16.48 10.54 17.5 11.56 17.5 12.83C17.5 14.1 16.48 15.12 15.21 15.12L14.09 15.12L14.09 16.1C14.09 16.46 13.79 16.75 13.44 16.75C13.08 16.75 12.79 16.46 12.79 16.1L12.79 11.19C12.79 10.83 13.08 10.54 13.44 10.54ZM14.09 11.84L14.09 13.82L15.21 13.82C15.76 13.82 16.2 13.38 16.2 12.83C16.2 12.28 15.76 11.84 15.21 11.84L14.09 11.84Z" fill="#74767B" fill-opacity="1.000000" fill-rule="evenodd"/>
	</g>
</svg>
