<svg width="24.000000" height="24.000000" viewBox="0 0 24 24" fill="none" xmlns="http://www.w3.org/2000/svg" xmlns:xlink="http://www.w3.org/1999/xlink">
	<desc>
			Created with Pixso.
	</desc>
	<defs>
		<clipPath id="clip8700_805">
			<rect id="Solid / Cashbox Solid" width="24.000000" height="24.000000" fill="white" fill-opacity="0"/>
		</clipPath>
	</defs>
	<g>
		<path id="Shape" d="M10.99 4.34C10.99 3.62 11.58 3.04 12.29 3.04L17.7 3.04C18.41 3.04 19 3.62 19 4.34L19 5.66C19 6.38 18.41 6.96 17.7 6.96L15.65 6.96L15.65 8.63L16.88 8.63C17.52 8.63 18.07 9.1 18.17 9.73L18.76 13.53C18.88 14.31 18.27 15.03 17.48 15.03L6.51 15.03C5.72 15.03 5.11 14.31 5.23 13.53L5.82 9.73C5.92 9.1 6.47 8.63 7.11 8.63L14.35 8.63L14.35 6.96L12.29 6.96C11.58 6.96 10.99 6.38 10.99 5.66L10.99 4.34ZM7.01 11.65C7.01 11.29 7.31 11 7.66 11L10.78 11C11.14 11 11.43 11.29 11.43 11.65C11.43 12.01 11.14 12.3 10.78 12.3L7.66 12.3C7.31 12.3 7.01 12.01 7.01 11.65ZM5.28 16.37C4.56 16.37 3.98 16.95 3.98 17.67L3.98 18.71C3.98 19.43 4.56 20.02 5.28 20.02L18.71 20.02C19.43 20.02 20.01 19.43 20.01 18.71L20.01 17.67C20.01 16.95 19.43 16.37 18.71 16.37L5.28 16.37Z" fill="#717681" fill-opacity="1.000000" fill-rule="evenodd"/>
	</g>
</svg>
