<svg width="24.000000" height="24.000000" viewBox="0 0 24 24" fill="none" xmlns="http://www.w3.org/2000/svg" xmlns:xlink="http://www.w3.org/1999/xlink">
	<desc>
			Created with Pixso.
	</desc>
	<defs>
		<clipPath id="clip17_1005">
			<rect id="Solid / Cash Solid" width="24.000000" height="24.000000" fill="white" fill-opacity="0"/>
		</clipPath>
	</defs>
	<g >
		<path id="Shape" d="M7.1 3L16.9 3C17.41 3 17.75 3.53 17.53 3.99L15.65 8C16.79 9.8 19 13.61 19 16.07C19 19.69 16 21.07 12 21.07C8 21.07 5 19.69 5 16.07C5 13.61 7.2 9.8 8.34 8L6.46 3.99C6.24 3.53 6.58 3 7.1 3ZM11.41 14.23L12.83 14.23C14.08 14.23 15.09 13.22 15.09 11.98C15.09 10.73 14.08 9.72 12.83 9.72L11.06 9.72C10.54 9.72 10.11 10.14 10.11 10.67L10.11 12.93L9.56 12.93C9.2 12.93 8.91 13.23 8.91 13.58C8.91 13.94 9.2 14.23 9.56 14.23L10.11 14.23L10.11 15.18L9.55 15.18C9.19 15.18 8.9 15.47 8.9 15.83C8.9 16.19 9.19 16.48 9.55 16.48L10.11 16.48L10.11 17.12C10.11 17.48 10.4 17.77 10.76 17.77C11.12 17.77 11.41 17.48 11.41 17.12L11.41 16.48L13.45 16.48C13.81 16.48 14.1 16.19 14.1 15.83C14.1 15.47 13.81 15.18 13.45 15.18L11.41 15.18L11.41 14.23ZM11.41 11.02L11.41 12.93L12.83 12.93C13.36 12.93 13.79 12.51 13.79 11.98C13.79 11.45 13.36 11.02 12.83 11.02L11.41 11.02Z" fill="#74767B" fill-opacity="1.000000" fill-rule="evenodd"/>
	</g>
</svg>
