<svg width="24" height="24" viewBox="0 0 24 24" fill="none" xmlns="http://www.w3.org/2000/svg">
<path fill-rule="evenodd" clip-rule="evenodd" d="M15.2594 10.8267C15.2443 10.8264 15.2291 10.8262 15.2139 10.8262H13.6497C13.6416 10.8262 13.6335 10.8264 13.6253 10.8267H13.6011C13.2678 10.8267 12.9977 11.0968 12.9977 11.4301V15.9879C12.9977 16.3211 13.2678 16.5913 13.6011 16.5913C13.6066 16.5913 13.6122 16.5912 13.6177 16.5911C13.6283 16.5916 13.639 16.5918 13.6497 16.5918C14.0087 16.5918 14.2997 16.3008 14.2997 15.9418V15.1568H15.2139C16.4098 15.1568 17.3792 14.1874 17.3792 12.9915C17.3792 12.9844 17.3792 12.9773 17.3791 12.9702C17.3792 12.9645 17.3792 12.9589 17.3792 12.9532C17.3792 11.781 16.4308 10.8303 15.2594 10.8267ZM14.2997 13.8568H15.2139C15.6918 13.8568 16.0792 13.4694 16.0792 12.9915C16.0792 12.5136 15.6918 12.1262 15.2139 12.1262H14.2997V13.8568Z" fill="#717681"/>
<path d="M8.8734 14.3648H8.4297V15.9477C8.4297 16.3067 8.13869 16.5977 7.7797 16.5977C7.42071 16.5977 7.1297 16.3067 7.1297 15.9477V11.4821C7.1297 11.1231 7.42071 10.8321 7.7797 10.8321C8.13868 10.8321 8.4297 11.1231 8.4297 11.4821V13.0648H8.92983C8.94363 13.0438 8.9588 13.0234 8.97534 13.0037L10.6002 11.0646C10.8308 10.7894 11.2407 10.7533 11.5159 10.9838C11.791 11.2144 11.8272 11.6244 11.5966 11.8995L10.0472 13.7485L11.5403 15.5303C11.7708 15.8054 11.7347 16.2154 11.4595 16.446C11.1844 16.6765 10.7744 16.6404 10.5439 16.3652L8.91899 14.4261C8.90242 14.4064 8.88722 14.3859 8.8734 14.3648Z" fill="#717681"/>
<path fill-rule="evenodd" clip-rule="evenodd" d="M3 16.0001C3 17.6569 4.34314 19.0001 6 19.0001H18C19.6569 19.0001 21 17.6569 21 16.0001V8.00006C21 6.44676 19.8195 5.16918 18.3067 5.01555C18.2059 5.00531 18.1036 5.00006 18 5.00006H6C4.34315 5.00006 3 6.34321 3 8.00006V16.0001ZM18 6.30006C18.9389 6.30006 19.7 7.06118 19.7 8.00006V8.28961H4.49531C4.42726 8.28961 4.36165 8.30007 4.3 8.31947V8.00006C4.3 7.06118 5.06112 6.30006 6 6.30006L18 6.30006ZM4.3 9.55976L4.3 16.0001C4.3 16.9389 5.06112 17.7001 6 17.7001H18C18.9389 17.7001 19.7 16.9389 19.7 16.0001V9.58961H4.49531C4.42726 9.58961 4.36165 9.57915 4.3 9.55976Z" fill="#717681"/>
</svg>
