<svg width="24.000000" height="24.000000" viewBox="0 0 24 24" fill="none" xmlns="http://www.w3.org/2000/svg" xmlns:xlink="http://www.w3.org/1999/xlink">
	<desc>
			Created with Pixso.
	</desc>
	<defs>
		<clipPath id="clip3618_640">
			<rect id="Solid / DigitalMoney Solid" width="24.000000" height="24.000000" fill="white" fill-opacity="0"/>
		</clipPath>
	</defs>
	<g clip-path="url(#clip3618_640)">
		<path id="Shape" d="M12.65 3.64L12.65 6.32C13.24 6.39 13.81 6.55 14.34 6.79L14.34 4.64C14.34 4.28 14.63 3.99 14.99 3.99C15.35 3.99 15.64 4.28 15.64 4.64L15.64 7.59L15.64 7.6C15.91 7.82 16.16 8.07 16.38 8.34L19.36 8.34C19.72 8.34 20.01 8.63 20.01 8.99C20.01 9.35 19.72 9.64 19.36 9.64L17.2 9.64C17.44 10.17 17.6 10.74 17.67 11.35L20.37 11.35C20.73 11.35 21.02 11.64 21.02 12C21.02 12.35 20.73 12.65 20.37 12.65L17.67 12.65C17.6 13.24 17.44 13.82 17.2 14.35L19.35 14.35C19.71 14.35 20 14.64 20 15C20 15.35 19.71 15.65 19.35 15.65L16.39 15.65C16.16 15.91 15.91 16.16 15.64 16.39L15.64 19.35C15.64 19.71 15.35 20 14.99 20C14.63 20 14.34 19.71 14.34 19.35L14.34 17.2C13.81 17.44 13.24 17.6 12.65 17.67L12.65 20.34C12.65 20.7 12.35 20.99 12 20.99C11.64 20.99 11.35 20.7 11.35 20.34L11.35 17.67C10.75 17.6 10.18 17.44 9.65 17.2L9.65 19.36C9.65 19.72 9.36 20.01 9 20.01C8.64 20.01 8.35 19.72 8.35 19.36L8.35 16.39C8.08 16.16 7.83 15.92 7.6 15.65L4.64 15.65C4.28 15.65 3.99 15.35 3.99 15C3.99 14.64 4.28 14.35 4.64 14.35L6.79 14.35C6.55 13.82 6.39 13.24 6.32 12.65L3.65 12.65C3.29 12.65 3 12.35 3 12C3 11.64 3.29 11.35 3.65 11.35L6.32 11.35C6.39 10.74 6.55 10.17 6.79 9.64L4.65 9.64C4.29 9.64 4 9.35 4 8.99C4 8.63 4.29 8.34 4.65 8.34L7.61 8.34C7.83 8.07 8.08 7.83 8.34 7.6L8.34 4.64C8.34 4.28 8.64 3.99 8.99 3.99C9.35 3.99 9.64 4.28 9.64 4.64L9.64 6.79C10.17 6.55 10.75 6.39 11.35 6.32L11.35 3.64C11.35 3.28 11.64 2.99 12 2.99C12.35 2.99 12.65 3.28 12.65 3.64ZM13.07 12.5L11.29 12.5L11.29 13.2L13.04 13.2C13.4 13.2 13.69 13.49 13.69 13.85C13.69 14.21 13.4 14.5 13.04 14.5L11.29 14.5L11.29 15C11.29 15.35 11 15.65 10.64 15.65C10.28 15.65 9.99 15.35 9.99 15L9.99 14.5L9.57 14.5C9.21 14.5 8.92 14.21 8.92 13.85C8.92 13.49 9.21 13.2 9.57 13.2L9.99 13.2L9.99 12.5L9.58 12.5C9.22 12.5 8.93 12.21 8.93 11.85C8.93 11.49 9.22 11.2 9.58 11.2L9.99 11.2L9.99 9.29C9.99 8.77 10.42 8.34 10.94 8.34L13.07 8.34C14.22 8.34 15.15 9.28 15.15 10.42C15.15 11.57 14.22 12.5 13.07 12.5ZM11.29 11.2L11.29 9.64L13.07 9.64C13.5 9.64 13.85 9.99 13.85 10.42C13.85 10.85 13.5 11.2 13.07 11.2L11.29 11.2Z" fill="#717681" fill-opacity="1.000000" fill-rule="evenodd"/>
	</g>
</svg>
