<svg width="24" height="24" viewBox="0 0 24 24" fill="none" xmlns="http://www.w3.org/2000/svg">
<path fill-rule="evenodd" clip-rule="evenodd" d="M11.584 12.5364H12.8643C13.8504 12.5364 14.6498 11.737 14.6498 10.7509C14.6498 9.76481 13.8504 8.96541 12.8643 8.96541H11.234C10.7097 8.96541 10.284 9.39014 10.284 9.91525V11.2364H9.8643C9.50532 11.2364 9.2143 11.5274 9.2143 11.8864C9.2143 12.2454 9.50532 12.5364 9.8643 12.5364H10.284V13.1401H9.85067C9.49168 13.1401 9.20067 13.4311 9.20067 13.7901C9.20067 14.1491 9.49168 14.4401 9.85067 14.4401H10.284V14.7566C10.284 15.1156 10.575 15.4066 10.934 15.4066C11.293 15.4066 11.584 15.1156 11.584 14.7566V14.4401H12.8364C13.1954 14.4401 13.4864 14.1491 13.4864 13.7901C13.4864 13.4311 13.1954 13.1401 12.8364 13.1401H11.584V12.5364ZM11.584 10.2654V11.2364H12.8643C13.1325 11.2364 13.3498 11.0191 13.3498 10.7509C13.3498 10.4828 13.1325 10.2654 12.8643 10.2654H11.584Z" fill="#717681"/>
<path fill-rule="evenodd" clip-rule="evenodd" d="M12.6501 6.32723L12.6501 3.64055C12.6501 3.28157 12.3591 2.99055 12.0001 2.99055C11.6411 2.99055 11.3501 3.28157 11.3501 3.64055V6.32716C10.7501 6.39512 10.1784 6.55605 9.64959 6.79521V4.64563C9.64959 4.28665 9.35858 3.99563 8.99959 3.99563C8.64061 3.99563 8.34959 4.28665 8.34959 4.64563L8.34959 7.60968C8.08281 7.83174 7.83659 8.07765 7.6142 8.34414H4.65199C4.29301 8.34414 4.00199 8.63516 4.00199 8.99414C4.00199 9.35313 4.29301 9.64414 4.65199 9.64414H6.7976C6.55708 10.1744 6.39526 10.748 6.32704 11.35H3.65261C3.29362 11.35 3.00261 11.641 3.00261 12C3.00261 12.3589 3.29362 12.65 3.65261 12.65H6.32705C6.39502 13.2497 6.55593 13.8214 6.79503 14.35H4.64456C4.28557 14.35 3.99456 14.6411 3.99456 15C3.99456 15.359 4.28557 15.65 4.64456 15.65H7.60948C7.83433 15.9202 8.08364 16.1693 8.35401 16.3938V19.3653C8.35402 19.7243 8.64503 20.0153 9.00401 20.0153C9.363 20.0153 9.65402 19.7243 9.65402 19.3653V17.2066C10.1816 17.4447 10.7518 17.6049 11.3501 17.6727V20.3476C11.3501 20.7066 11.6411 20.9976 12.0001 20.9976C12.3591 20.9976 12.6501 20.7066 12.6501 20.3476L12.6501 17.6726C13.2485 17.6048 13.8188 17.4444 14.3465 17.2062V19.3515C14.3465 19.7105 14.6375 20.0015 14.9965 20.0015C15.3555 20.0015 15.6465 19.7105 15.6465 19.3515V16.393C15.9165 16.1686 16.1655 15.9198 16.3901 15.65L19.3566 15.65C19.7156 15.65 20.0066 15.359 20.0066 15C20.0066 14.641 19.7156 14.35 19.3566 14.35H17.2045C17.4436 13.8213 17.6045 13.2498 17.6725 12.65H20.3797C20.7387 12.65 21.0297 12.359 21.0297 12C21.0297 11.641 20.7387 11.35 20.3797 11.35L17.6725 11.35C17.6043 10.748 17.4424 10.1744 17.2019 9.64402H19.3667C19.7256 9.64402 20.0167 9.353 20.0167 8.99402C20.0167 8.63503 19.7256 8.34402 19.3667 8.34402L16.3852 8.34402C16.1619 8.07636 15.9145 7.82947 15.6463 7.60666C15.6464 7.60264 15.6464 7.59861 15.6464 7.59457L15.6464 4.64559C15.6464 4.2866 15.3554 3.99559 14.9964 3.99559C14.6374 3.99559 14.3464 4.2866 14.3464 4.64559V6.79362C13.8188 6.55542 13.2485 6.39508 12.6501 6.32723ZM11.9998 16.4092C14.435 16.4092 16.4091 14.4351 16.4091 11.9999C16.4091 9.56472 14.435 7.5906 11.9998 7.5906C9.56457 7.5906 7.59045 9.56472 7.59045 11.9999C7.59045 14.4351 9.56457 16.4092 11.9998 16.4092Z" fill="#717681"/>
</svg>
