<svg width="24.000000" height="24.000000" viewBox="0 0 24 24" fill="none" xmlns="http://www.w3.org/2000/svg" xmlns:xlink="http://www.w3.org/1999/xlink">
	<desc>
			Created with Pixso.
	</desc>
	<defs>
		<clipPath id="clip3618_641">
			<rect id="Outline / DigitalMoney Outline" width="24.000000" height="24.000000" fill="white" fill-opacity="0"/>
		</clipPath>
	</defs>
	<g clip-path="url(#clip3618_641)">
		<path id="Shape" d="M12.65 3.64L12.65 6.32C13.24 6.39 13.81 6.55 14.34 6.79L14.34 4.64C14.34 4.28 14.63 3.99 14.99 3.99C15.35 3.99 15.64 4.28 15.64 4.64L15.64 7.59L15.64 7.6C15.91 7.82 16.16 8.07 16.38 8.34L19.36 8.34C19.72 8.34 20.01 8.63 20.01 8.99C20.01 9.35 19.72 9.64 19.36 9.64L17.2 9.64C17.44 10.17 17.6 10.74 17.67 11.35L20.37 11.35C20.73 11.35 21.02 11.64 21.02 12C21.02 12.35 20.73 12.65 20.37 12.65L17.67 12.65C17.6 13.24 17.44 13.82 17.2 14.35L19.35 14.35C19.71 14.35 20 14.64 20 15C20 15.35 19.71 15.65 19.35 15.65L16.39 15.65C16.16 15.91 15.91 16.16 15.64 16.39L15.64 19.35C15.64 19.71 15.35 20 14.99 20C14.63 20 14.34 19.71 14.34 19.35L14.34 17.2C13.81 17.44 13.24 17.6 12.65 17.67L12.65 20.34C12.65 20.7 12.35 20.99 12 20.99C11.64 20.99 11.35 20.7 11.35 20.34L11.35 17.67C10.75 17.6 10.18 17.44 9.65 17.2L9.65 19.36C9.65 19.72 9.36 20.01 9 20.01C8.64 20.01 8.35 19.72 8.35 19.36L8.35 16.39C8.08 16.16 7.83 15.92 7.6 15.65L4.64 15.65C4.28 15.65 3.99 15.35 3.99 15C3.99 14.64 4.28 14.35 4.64 14.35L6.79 14.35C6.55 13.82 6.39 13.24 6.32 12.65L3.65 12.65C3.29 12.65 3 12.35 3 12C3 11.64 3.29 11.35 3.65 11.35L6.32 11.35C6.39 10.74 6.55 10.17 6.79 9.64L4.65 9.64C4.29 9.64 4 9.35 4 8.99C4 8.63 4.29 8.34 4.65 8.34L7.61 8.34C7.83 8.07 8.08 7.83 8.34 7.6L8.34 4.64C8.34 4.28 8.64 3.99 8.99 3.99C9.35 3.99 9.64 4.28 9.64 4.64L9.64 6.79C10.17 6.55 10.75 6.39 11.35 6.32L11.35 3.64C11.35 3.28 11.64 2.99 12 2.99C12.35 2.99 12.65 3.28 12.65 3.64ZM16.4 12C16.4 14.43 14.43 16.4 11.99 16.4C9.56 16.4 7.59 14.43 7.59 12C7.59 9.56 9.56 7.59 11.99 7.59C14.43 7.59 16.4 9.56 16.4 12ZM12.86 12.53L11.58 12.53L11.58 13.14L12.83 13.14C13.19 13.14 13.48 13.43 13.48 13.79C13.48 14.14 13.19 14.44 12.83 14.44L11.58 14.44L11.58 14.75C11.58 15.11 11.29 15.4 10.93 15.4C10.57 15.4 10.28 15.11 10.28 14.75L10.28 14.44L9.85 14.44C9.49 14.44 9.2 14.14 9.2 13.79C9.2 13.43 9.49 13.14 9.85 13.14L10.28 13.14L10.28 12.53L9.86 12.53C9.5 12.53 9.21 12.24 9.21 11.88C9.21 11.52 9.5 11.23 9.86 11.23L10.28 11.23L10.28 9.91C10.28 9.39 10.7 8.96 11.23 8.96L12.86 8.96C13.85 8.96 14.64 9.76 14.64 10.75C14.64 11.73 13.85 12.53 12.86 12.53ZM11.58 11.23L11.58 10.26L12.86 10.26C13.13 10.26 13.34 10.48 13.34 10.75C13.34 11.01 13.13 11.23 12.86 11.23L11.58 11.23Z" fill="#717681" fill-opacity="1.000000" fill-rule="evenodd"/>
	</g>
</svg>
