<svg width="24.000000" height="24.000000" viewBox="0 0 24 24" fill="none" xmlns="http://www.w3.org/2000/svg" xmlns:xlink="http://www.w3.org/1999/xlink">
	<desc>
			Created with Pixso.
	</desc>
	<defs>
		<clipPath id="clip17_907">
			<rect id="Outline / EUR Outline" width="24.000000" height="24.000000" fill="white" fill-opacity="0"/>
		</clipPath>
	</defs>
	<g>
		<path id="Shape" d="M3 12C3 7.02 7.02 3 12 3C16.97 3 21 7.02 21 12C21 16.97 16.97 21 12 21C7.02 21 3 16.97 3 12ZM4.3 12C4.3 7.74 7.74 4.29 12 4.29C16.25 4.29 19.7 7.74 19.7 12C19.7 16.25 16.25 19.7 12 19.7C7.74 19.7 4.3 16.25 4.3 12ZM7.68 12C7.68 11.82 7.69 11.65 7.71 11.48L6.98 11.48C6.62 11.48 6.33 11.19 6.33 10.83C6.33 10.47 6.62 10.18 6.98 10.18L8.05 10.18C8.76 8.51 10.41 7.34 12.33 7.34C13.51 7.34 14.59 7.78 15.41 8.51C15.68 8.75 15.7 9.16 15.47 9.43C15.23 9.69 14.82 9.72 14.55 9.48C13.96 8.96 13.18 8.65 12.33 8.65C11.15 8.65 10.11 9.26 9.52 10.18L12.69 10.18C13.05 10.18 13.34 10.47 13.34 10.83C13.34 11.19 13.05 11.48 12.69 11.48L9.02 11.48C9 11.65 8.98 11.82 8.98 12C8.98 12.17 9 12.34 9.02 12.51L12.69 12.51C13.05 12.51 13.34 12.8 13.34 13.16C13.34 13.52 13.05 13.81 12.69 13.81L9.52 13.81C10.11 14.73 11.15 15.35 12.33 15.35C13.18 15.35 13.96 15.03 14.55 14.51C14.82 14.27 15.23 14.3 15.47 14.56C15.7 14.83 15.68 15.24 15.41 15.48C14.59 16.21 13.51 16.65 12.33 16.65C10.41 16.65 8.76 15.48 8.05 13.81L6.98 13.81C6.62 13.81 6.33 13.52 6.33 13.16C6.33 12.8 6.62 12.51 6.98 12.51L7.71 12.51C7.69 12.34 7.68 12.17 7.68 12Z" fill="#717681" fill-opacity="1.000000" fill-rule="evenodd"/>
	</g>
</svg>
