<svg width="24.000000" height="24.000000" viewBox="0 0 24 24" fill="none" xmlns="http://www.w3.org/2000/svg" xmlns:xlink="http://www.w3.org/1999/xlink">
	<desc>
			Created with Pixso.
	</desc>
	<defs>
		<clipPath id="clip17_925">
			<rect id="Solid / Finance Solid" width="24.000000" height="24.000000" fill="white" fill-opacity="0"/>
		</clipPath>
	</defs>
	<g>
		<path id="Shape" d="M14 5.64C14 7.1 11.54 8.28 8.5 8.28C5.47 8.28 3 7.1 3 5.64C3 4.17 5.47 2.99 8.5 2.99C11.54 2.99 14 4.17 14 5.64ZM3.15 8.58C3.38 8.3 3.79 8.26 4.07 8.48C4.35 8.71 5.83 9.78 8.5 9.78C8.86 9.78 9.15 10.07 9.15 10.43C9.15 10.79 8.86 11.08 8.5 11.08C5.47 11.08 3.7 9.86 3.25 9.49C3.09 9.36 3.01 9.18 3.01 8.99C3.01 8.84 3.05 8.7 3.15 8.58ZM20.95 12.32C20.95 13.78 18.48 14.97 15.45 14.97C12.41 14.97 9.95 13.78 9.95 12.32C9.95 10.86 12.41 9.67 15.45 9.67C18.48 9.67 20.95 10.86 20.95 12.32ZM3.15 11.23C3.38 10.95 3.79 10.91 4.07 11.13C4.36 11.37 5.89 12.49 8.55 12.49C8.91 12.49 9.2 12.78 9.2 13.14C9.2 13.5 8.91 13.79 8.55 13.79C5.51 13.79 3.7 12.51 3.25 12.14C3.09 12.01 3.01 11.83 3.01 11.64C3.01 11.49 3.05 11.35 3.15 11.23ZM3.15 13.97C3.38 13.69 3.79 13.65 4.07 13.87C4.36 14.11 5.89 15.23 8.55 15.23C8.91 15.23 9.2 15.52 9.2 15.88C9.2 16.24 8.91 16.53 8.55 16.53C5.51 16.53 3.7 15.25 3.25 14.88C3.09 14.76 3.01 14.57 3.01 14.38C3.01 14.23 3.05 14.09 3.15 13.97ZM10.09 15.26C10.32 14.98 10.73 14.94 11.01 15.17C11.29 15.4 12.77 16.46 15.44 16.46C18.12 16.46 19.54 15.47 19.87 15.18C20.14 14.95 20.55 14.97 20.79 15.24C20.9 15.37 20.95 15.52 20.95 15.67C20.95 15.85 20.88 16.03 20.73 16.16C20.18 16.65 18.46 17.76 15.44 17.76C12.41 17.76 10.65 16.55 10.19 16.18C10.03 16.05 9.95 15.86 9.95 15.67C9.95 15.53 9.99 15.38 10.09 15.26ZM10.09 17.91C10.32 17.63 10.73 17.59 11.01 17.82C11.3 18.05 12.84 19.17 15.49 19.17C18.16 19.17 19.53 18.14 19.87 17.83C20.14 17.6 20.55 17.62 20.79 17.89C20.9 18.02 20.95 18.17 20.95 18.32C20.95 18.5 20.88 18.68 20.73 18.81C20.19 19.28 18.53 20.47 15.49 20.47C12.45 20.47 10.64 19.19 10.19 18.83C10.03 18.7 9.95 18.51 9.95 18.32C9.95 18.18 9.99 18.03 10.09 17.91Z" fill="#717681" fill-opacity="1.000000" fill-rule="evenodd"/>
	</g>
</svg>
