<svg width="24" height="24" viewBox="0 0 24 24" fill="none" xmlns="http://www.w3.org/2000/svg">
<path d="M9.51319 12.7029L8.49334 10.3044L7.47857 12.7029H9.51319Z" fill="#717681"/>
<path fill-rule="evenodd" clip-rule="evenodd" d="M5.00024 5.005C3.34334 5.005 2.00018 6.34822 2.00024 8.00512L2.00055 15.9951C2.00062 17.6519 3.34375 18.995 5.00056 18.995H19C20.6569 18.995 22.0001 17.6518 22 15.9949L21.9997 8.00489C21.9996 6.34808 20.6565 5.005 18.9997 5.005H5.00024ZM9.09002 8.38535C8.98793 8.14524 8.75217 7.98945 8.49126 7.98969C8.23036 7.98992 7.99488 8.14614 7.89322 8.38642L5.05374 15.098C4.91386 15.4286 5.06849 15.81 5.3991 15.9499C5.72971 16.0897 6.11112 15.9351 6.25099 15.6045L6.92858 14.0029H10.0659L10.7474 15.6056C10.8878 15.9359 11.2695 16.0899 11.5999 15.9494C11.9303 15.8089 12.0842 15.4273 11.9437 15.0969L9.09002 8.38535ZM13.9997 9.99533C14.3587 9.99533 14.6497 10.2863 14.6497 10.6453V13.1791C14.6497 14.023 15.3338 14.7071 16.1777 14.7071C17.0216 14.7071 17.7057 14.023 17.7057 13.1791V10.6453C17.7057 10.2863 17.9967 9.99533 18.3557 9.99533C18.7146 9.99533 19.0057 10.2863 19.0057 10.6453V13.1791C19.0057 14.741 17.7395 16.0071 16.1777 16.0071C14.6159 16.0071 13.3497 14.741 13.3497 13.1791V10.6453C13.3497 10.2863 13.6408 9.99533 13.9997 9.99533Z" fill="#717681"/>
</svg>
