<svg width="24.000000" height="24.000000" viewBox="0 0 24 24" fill="none" xmlns="http://www.w3.org/2000/svg" xmlns:xlink="http://www.w3.org/1999/xlink">
	<desc>
			Created with Pixso.
	</desc>
	<defs>
		<clipPath id="clip17_1041">
			<rect id="Solid / IIS Solid" width="24.000000" height="24.000000" transform="matrix(1 -6.12324e-17 -6.12324e-17 -1 0 24)" fill="white" fill-opacity="0"/>
		</clipPath>
	</defs>
	<g>
		<path id="Shape" d="M4 7C4 5.34 5.34 4 7 4L17 4C18.65 4 20 5.34 20 7L20 17C20 18.65 18.65 20 17 20L7 20C5.34 20 4 18.65 4 17L4 7ZM6.65 11.35C7.01 11.35 7.3 11.64 7.3 12L7.3 17.3C7.3 17.66 7.01 17.95 6.65 17.95C6.29 17.95 6 17.66 6 17.3L6 12C6 11.64 6.29 11.35 6.65 11.35ZM10.84 8.61C10.84 8.25 10.55 7.96 10.19 7.96C9.83 7.96 9.54 8.25 9.54 8.61L9.54 15.27C9.54 15.63 9.83 15.92 10.19 15.92C10.55 15.92 10.84 15.63 10.84 15.27L10.84 8.61ZM13.72 5.83C14.08 5.83 14.37 6.12 14.37 6.48L14.37 17.33C14.37 17.68 14.08 17.98 13.72 17.98C13.36 17.98 13.07 17.68 13.07 17.33L13.07 6.48C13.07 6.12 13.36 5.83 13.72 5.83ZM17.91 8.56C17.91 8.2 17.62 7.91 17.26 7.91C16.9 7.91 16.61 8.2 16.61 8.56L16.61 15.28C16.61 15.64 16.9 15.93 17.26 15.93C17.62 15.93 17.91 15.64 17.91 15.28L17.91 8.56Z" fill="#717681" fill-opacity="1.000000" fill-rule="evenodd"/>
	</g>
</svg>
