<svg width="24" height="24" viewBox="0 0 24 24" fill="none" xmlns="http://www.w3.org/2000/svg">
<path fill-rule="evenodd" clip-rule="evenodd" d="M5.00019 5.005C3.34329 5.005 2.00013 6.34822 2.00019 8.00512L2.0005 15.9951C2.00057 17.6519 3.34369 18.995 5.0005 18.995H19C20.6569 18.995 22 17.6518 22 15.9949L21.9997 8.00489C21.9996 6.34808 20.6565 5.005 18.9996 5.005H5.00019ZM5.99928 12.9541V15.3746C5.99928 15.7336 6.29029 16.0246 6.64928 16.0246C7.00826 16.0246 7.29928 15.7336 7.29928 15.3746V13.5948H9.2108C10.7626 13.5948 12.0205 12.3369 12.0205 10.7851C12.0205 9.23333 10.7626 7.97537 9.21082 7.97536L7.34929 7.97534C6.6037 7.97534 5.99928 8.57975 5.99928 9.32534V12.9356L5.99922 12.9448L5.99928 12.9541ZM7.29928 12.2948V9.32534C7.29928 9.29773 7.32167 9.27534 7.34928 9.27534L9.21081 9.27535C10.0446 9.27536 10.7205 9.9513 10.7205 10.7851C10.7205 11.6189 10.0446 12.2948 9.2108 12.2948H7.29928ZM18.0008 11.6432V8.6254C18.0008 8.26642 17.7097 7.9754 17.3508 7.9754C16.9918 7.9754 16.7008 8.26642 16.7008 8.6254V11.0025L15.4976 11.0025C14.1108 11.0025 12.9865 12.1267 12.9865 13.5136C12.9865 14.9004 14.1107 16.0247 15.4976 16.0247L16.6507 16.0247C17.3963 16.0247 18.0008 15.4203 18.0008 14.6747L18.0008 11.6617L18.0008 11.6525L18.0008 11.6432ZM16.7008 12.3025V14.6747C16.7008 14.7023 16.6784 14.7247 16.6508 14.7247L15.4976 14.7247C14.8287 14.7247 14.2865 14.1824 14.2865 13.5136C14.2865 12.8447 14.8287 12.3025 15.4976 12.3025H16.7008Z" fill="#717681"/>
</svg>
