<svg width="24.000000" height="24.000000" viewBox="0 0 24 24" fill="none" xmlns="http://www.w3.org/2000/svg" xmlns:xlink="http://www.w3.org/1999/xlink">
	<desc>
			Created with Pixso.
	</desc>
	<defs>
		<clipPath id="clip17_969">
			<rect id="Outline / Payroll Card Outline" width="24.000000" height="24.000000" fill="white" fill-opacity="0"/>
		</clipPath>
	</defs>
	<g clip-path="url(#clip17_969)">
		<path id="Shape" d="M6 19C4.34 19 3 17.65 3 16L3 8C3 6.34 4.34 5 6 5L18 5C18.1 5 18.2 5 18.3 5.01C19.81 5.16 21 6.44 21 8L21 16C21 17.65 19.65 19 18 19L6 19ZM19.7 8C19.7 7.06 18.93 6.3 18 6.3L6 6.3C5.06 6.3 4.3 7.06 4.3 8L4.3 8.31C4.36 8.3 4.42 8.28 4.49 8.28L19.7 8.28L19.7 8ZM4.3 16L4.3 9.55C4.36 9.57 4.42 9.58 4.49 9.58L19.7 9.58L19.7 16C19.7 16.93 18.93 17.7 18 17.7L6 17.7C5.06 17.7 4.3 16.93 4.3 16ZM12.32 11.39C12.32 11.03 12.61 10.74 12.97 10.74L16.28 10.74C16.64 10.74 16.93 11.03 16.93 11.39L16.93 15.86C16.93 16.22 16.64 16.51 16.28 16.51C15.92 16.51 15.63 16.22 15.63 15.86L15.63 12.04L13.62 12.04L13.62 15.86C13.62 16.22 13.33 16.51 12.97 16.51C12.61 16.51 12.32 16.22 12.32 15.86L12.32 11.39ZM8.71 12.06C8.5 12.06 8.3 12.13 8.14 12.26L8.12 12.27C7.84 12.5 7.43 12.46 7.21 12.18C6.98 11.9 7.02 11.49 7.3 11.26L7.32 11.25C7.71 10.93 8.2 10.76 8.71 10.76L9.17 10.76C10.13 10.76 10.91 11.54 10.91 12.5C10.91 12.88 10.78 13.24 10.57 13.53C10.85 13.85 11.02 14.27 11.02 14.73C11.02 15.72 10.22 16.52 9.23 16.52L8.75 16.52C8.23 16.52 7.72 16.34 7.32 16.01L7.3 15.99C7.02 15.77 6.98 15.36 7.21 15.08C7.43 14.8 7.84 14.76 8.12 14.98L8.14 15C8.31 15.14 8.53 15.22 8.75 15.22L9.23 15.22C9.5 15.22 9.72 15 9.72 14.73C9.72 14.46 9.5 14.24 9.23 14.24L9.14 14.24L9.13 14.24L9.08 14.24C8.72 14.24 8.43 13.95 8.43 13.59C8.43 13.23 8.72 12.94 9.08 12.94L9.17 12.94C9.41 12.94 9.61 12.74 9.61 12.5C9.61 12.25 9.41 12.06 9.17 12.06L8.71 12.06Z" fill="#74767B" fill-opacity="1.000000" fill-rule="evenodd"/>
	</g>
</svg>
