<svg width="24.000000" height="24.000000" viewBox="0 0 24 24" fill="none" xmlns="http://www.w3.org/2000/svg" xmlns:xlink="http://www.w3.org/1999/xlink">
	<desc>
			Created with Pixso.
	</desc>
	<defs>
		<clipPath id="clip17_972">
			<rect id="Solid / Payroll Card Solid" width="24.000000" height="24.000000" fill="white" fill-opacity="0"/>
		</clipPath>
	</defs>
	<g>
		<path id="Shape" d="M3.7 8.28C3.31 8.28 2.97 7.97 3.02 7.58C3.22 6.12 4.48 5 6 5L18 5C18.1 5 18.2 5 18.3 5.01C19.7 5.15 20.82 6.26 20.98 7.65C21.02 8 20.71 8.28 20.36 8.28L3.7 8.28ZM6 19C4.34 19 3 17.65 3 16L3 10.28C3 9.9 3.31 9.58 3.7 9.58L20.29 9.58C20.68 9.58 21 9.9 21 10.28L21 16C21 17.65 19.65 19 18 19L6 19ZM12.97 11.39C12.61 11.39 12.32 11.68 12.32 12.04L12.32 16.51C12.32 16.87 12.61 17.16 12.97 17.16C13.33 17.16 13.62 16.87 13.62 16.51L13.62 12.69L15.63 12.69L15.63 16.51C15.63 16.87 15.92 17.16 16.28 17.16C16.64 17.16 16.93 16.87 16.93 16.51L16.93 12.04C16.93 11.68 16.64 11.39 16.28 11.39L12.97 11.39ZM8.71 12.7C8.5 12.7 8.3 12.77 8.14 12.91L8.12 12.92C7.84 13.15 7.43 13.1 7.21 12.83C6.98 12.55 7.02 12.14 7.3 11.91L7.32 11.9C7.71 11.58 8.2 11.4 8.71 11.4L9.17 11.4C10.13 11.4 10.91 12.18 10.91 13.14C10.91 13.53 10.78 13.89 10.57 14.18C10.85 14.5 11.02 14.91 11.02 15.37C11.02 16.36 10.22 17.16 9.23 17.16L8.75 17.16C8.23 17.16 7.72 16.98 7.32 16.65L7.3 16.64C7.02 16.41 6.98 16 7.21 15.73C7.43 15.45 7.84 15.4 8.12 15.63L8.14 15.65C8.31 15.79 8.53 15.86 8.75 15.86L9.23 15.86C9.5 15.86 9.72 15.64 9.72 15.37C9.72 15.1 9.5 14.88 9.23 14.88L9.14 14.88L9.13 14.88L9.08 14.88C8.72 14.88 8.43 14.59 8.43 14.23C8.43 13.88 8.72 13.58 9.08 13.58L9.17 13.58C9.41 13.58 9.61 13.39 9.61 13.14C9.61 12.9 9.41 12.7 9.17 12.7L8.71 12.7Z" fill="#717681" fill-opacity="1.000000" fill-rule="evenodd"/>
	</g>
</svg>
