<svg width="24.000000" height="24.000000" viewBox="0 0 24 24" fill="none" xmlns="http://www.w3.org/2000/svg" xmlns:xlink="http://www.w3.org/1999/xlink">
	<desc>
			Created with Pixso.
	</desc>
	<defs>
		<clipPath id="clip17_1014">
			<rect id="Outline / Treasury Outline" width="24.000000" height="24.000000" fill="white" fill-opacity="0"/>
		</clipPath>
	</defs>
	<g clip-path="url(#clip17_1014)">
		<path id="Shape" d="M12 13.41C15.15 13.41 17.7 10.86 17.7 7.7C17.7 4.55 15.15 2 12 2C8.84 2 6.29 4.55 6.29 7.7C6.29 10.86 8.84 13.41 12 13.41ZM12 12.11C14.43 12.11 16.4 10.14 16.4 7.7C16.4 5.27 14.43 3.3 12 3.3C9.56 3.3 7.59 5.27 7.59 7.7C7.59 10.14 9.56 12.11 12 12.11ZM12.86 8.24L11.58 8.24L11.58 8.84L12.83 8.84C13.19 8.84 13.48 9.14 13.48 9.49C13.48 9.85 13.19 10.14 12.83 10.14L11.58 10.14L11.58 10.46C11.58 10.82 11.29 11.11 10.93 11.11C10.57 11.11 10.28 10.82 10.28 10.46L10.28 10.14L9.85 10.14C9.49 10.14 9.2 9.85 9.2 9.49C9.2 9.14 9.49 8.84 9.85 8.84L10.28 8.84L10.28 8.24L9.86 8.24C9.5 8.24 9.21 7.95 9.21 7.59C9.21 7.23 9.5 6.94 9.86 6.94L10.28 6.94L10.28 5.62C10.28 5.09 10.7 4.67 11.23 4.67L12.86 4.67C13.85 4.67 14.65 5.47 14.65 6.46C14.65 7.44 13.85 8.24 12.86 8.24ZM11.58 6.94L11.58 5.97L12.86 5.97C13.13 5.97 13.35 6.19 13.35 6.46C13.35 6.72 13.13 6.94 12.86 6.94L11.58 6.94ZM6.24 16.7L7.77 14.94C8.84 15.56 10.05 15.95 11.35 16.04C11.35 16.05 11.35 16.06 11.35 16.06L11.35 17.94C11.35 18.3 11.64 18.59 12 18.59C12.35 18.59 12.65 18.3 12.65 17.94L12.65 16.06C12.65 16.06 12.64 16.05 12.64 16.04C13.97 15.93 15.21 15.51 16.29 14.86L17.75 16.54C17.98 16.81 18.39 16.84 18.66 16.6C18.93 16.37 18.96 15.96 18.73 15.68L16.98 13.66C16.96 13.64 16.94 13.62 16.93 13.6C16.69 13.33 16.29 13.3 16 13.5C14.85 14.3 13.46 14.77 11.96 14.77C10.53 14.77 9.19 14.34 8.07 13.6C7.8 13.42 7.43 13.44 7.2 13.66C7.15 13.69 7.1 13.74 7.05 13.79L5.26 15.85C5.03 16.12 5.06 16.53 5.33 16.77C5.6 17.01 6.01 16.98 6.24 16.7ZM5.41 18.65C5.41 19.36 4.83 19.95 4.11 19.95C3.39 19.95 2.81 19.36 2.81 18.65C2.81 17.93 3.39 17.35 4.11 17.35C4.83 17.35 5.41 17.93 5.41 18.65ZM19.88 19.95C20.6 19.95 21.18 19.36 21.18 18.65C21.18 17.93 20.6 17.35 19.88 17.35C19.17 17.35 18.58 17.93 18.58 18.65C18.58 19.36 19.17 19.95 19.88 19.95ZM13.3 20.7C13.3 21.41 12.71 22 12 22C11.28 22 10.7 21.41 10.7 20.7C10.7 19.98 11.28 19.4 12 19.4C12.71 19.4 13.3 19.98 13.3 20.7Z" fill="#74767B" fill-opacity="1.000000" fill-rule="evenodd"/>
	</g>
</svg>
