<svg width="24.000000" height="24.000000" viewBox="0 0 24 24" fill="none" xmlns="http://www.w3.org/2000/svg" xmlns:xlink="http://www.w3.org/1999/xlink">
	<desc>
			Created with Pixso.
	</desc>
	<defs>
		<clipPath id="clip17_1011">
			<rect id="Solid / Treasury Solid" width="24.000000" height="24.000000" fill="white" fill-opacity="0"/>
		</clipPath>
	</defs>
	<g clip-path="url(#clip17_1011)">
		<path id="Shape" d="M17.7 7.7C17.7 10.86 15.15 13.41 12 13.41C8.84 13.41 6.29 10.86 6.29 7.7C6.29 4.55 8.84 2 12 2C15.15 2 17.7 4.55 17.7 7.7ZM11.29 8.21L13.07 8.21C14.22 8.21 15.15 7.28 15.15 6.13C15.15 4.98 14.22 4.05 13.07 4.05L10.94 4.05C10.42 4.05 9.99 4.48 9.99 5L9.99 6.91L9.58 6.91C9.22 6.91 8.93 7.2 8.93 7.56C8.93 7.92 9.22 8.21 9.58 8.21L9.99 8.21L9.99 8.91L9.57 8.91C9.21 8.91 8.92 9.2 8.92 9.56C8.92 9.92 9.21 10.21 9.57 10.21L9.99 10.21L9.99 10.7C9.99 11.06 10.28 11.35 10.64 11.35C11 11.35 11.29 11.06 11.29 10.7L11.29 10.21L13.04 10.21C13.4 10.21 13.69 9.92 13.69 9.56C13.69 9.2 13.4 8.91 13.04 8.91L11.29 8.91L11.29 8.21ZM11.29 6.91L11.29 5.35L13.07 5.35C13.5 5.35 13.85 5.7 13.85 6.13C13.85 6.56 13.5 6.91 13.07 6.91L11.29 6.91ZM7.77 14.94L6.24 16.7C6.01 16.98 5.6 17.01 5.33 16.77C5.06 16.53 5.03 16.12 5.26 15.85L7.05 13.79C7.1 13.74 7.15 13.69 7.2 13.66C7.43 13.44 7.8 13.42 8.07 13.6C9.19 14.34 10.53 14.77 11.96 14.77C13.46 14.77 14.85 14.3 16 13.5C16.29 13.3 16.69 13.33 16.93 13.6C16.94 13.62 16.96 13.64 16.98 13.66L18.73 15.68C18.96 15.96 18.93 16.37 18.66 16.6C18.39 16.84 17.98 16.81 17.75 16.54L16.29 14.86C15.21 15.51 13.97 15.93 12.64 16.04C12.64 16.05 12.65 16.06 12.65 16.06L12.65 17.94C12.65 18.3 12.35 18.59 12 18.59C11.64 18.59 11.35 18.3 11.35 17.94L11.35 16.06C11.35 16.06 11.35 16.05 11.35 16.04C10.05 15.95 8.84 15.56 7.77 14.94ZM4.11 19.95C4.83 19.95 5.41 19.36 5.41 18.65C5.41 17.93 4.83 17.35 4.11 17.35C3.39 17.35 2.81 17.93 2.81 18.65C2.81 19.36 3.39 19.95 4.11 19.95ZM21.18 18.65C21.18 19.36 20.6 19.95 19.88 19.95C19.17 19.95 18.58 19.36 18.58 18.65C18.58 17.93 19.17 17.35 19.88 17.35C20.6 17.35 21.18 17.93 21.18 18.65ZM13.3 20.7C13.3 21.41 12.71 22 12 22C11.28 22 10.7 21.41 10.7 20.7C10.7 19.98 11.28 19.4 12 19.4C12.71 19.4 13.3 19.98 13.3 20.7Z" fill="#717681" fill-opacity="1.000000" fill-rule="evenodd"/>
	</g>
</svg>
