<svg width="24.000000" height="24.000000" viewBox="0 0 24 24" fill="none" xmlns="http://www.w3.org/2000/svg" xmlns:xlink="http://www.w3.org/1999/xlink">
	<desc>
			Created with Pixso.
	</desc>
	<defs>
		<clipPath id="clip17_1047">
			<rect id="Solid / UAH Solid" width="24.000000" height="24.000000" fill="white" fill-opacity="0"/>
		</clipPath>
	</defs>
	<g clip-path="url(#clip17_1047)">
		<path id="Shape" d="M12 21C16.97 21 21 16.97 21 12C21 7.02 16.97 3 12 3C7.02 3 3 7.02 3 12C3 16.97 7.02 21 12 21ZM11.45 8.02C11.67 7.91 11.91 7.85 12.16 7.85L12.34 7.85C13.11 7.85 13.74 8.48 13.74 9.25C13.74 9.61 13.61 9.95 13.37 10.2L8.35 10.2C7.99 10.2 7.7 10.49 7.7 10.85C7.7 11.21 7.99 11.5 8.35 11.5L11.66 11.5L10.35 12.47L8.35 12.47C7.99 12.47 7.7 12.76 7.7 13.12C7.7 13.48 7.99 13.77 8.35 13.77L9.33 13.77C9.21 14.07 9.15 14.39 9.15 14.72C9.15 16.21 10.36 17.42 11.86 17.42L12.04 17.42C12.49 17.42 12.93 17.32 13.33 17.12L14.68 16.44C15 16.28 15.13 15.89 14.97 15.57C14.81 15.25 14.42 15.12 14.1 15.28L12.75 15.95C12.53 16.06 12.29 16.12 12.04 16.12L11.86 16.12C11.08 16.12 10.45 15.49 10.45 14.72C10.45 14.37 10.59 14.03 10.82 13.77L15.85 13.77C16.21 13.77 16.5 13.48 16.5 13.12C16.5 12.76 16.21 12.47 15.85 12.47L12.54 12.47L13.85 11.5L15.85 11.5C16.21 11.5 16.5 11.21 16.5 10.85C16.5 10.49 16.21 10.2 15.85 10.2L14.87 10.2C14.98 9.9 15.04 9.58 15.04 9.25C15.04 7.76 13.83 6.55 12.34 6.55L12.16 6.55C11.71 6.55 11.27 6.66 10.87 6.86L9.51 7.53C9.19 7.69 9.06 8.08 9.22 8.41C9.38 8.73 9.77 8.86 10.1 8.7L11.45 8.02Z" fill="#717681" fill-opacity="1.000000" fill-rule="evenodd"/>
	</g>
</svg>
