<svg width="24.000000" height="24.000000" viewBox="0 0 24 24" fill="none" xmlns="http://www.w3.org/2000/svg" xmlns:xlink="http://www.w3.org/1999/xlink">
	<desc>
			Created with Pixso.
	</desc>
	<defs>
		<clipPath id="clip17_897">
			<rect id="Solid / USD Solid" width="24.000000" height="24.000000" fill="white" fill-opacity="0"/>
		</clipPath>
	</defs>
	<g clip-path="url(#clip17_897)">
		<path id="Shape" d="M3 12C3 7.02 7.02 3 12 3C16.97 3 21 7.02 21 12C21 16.97 16.97 21 12 21C7.02 21 3 16.97 3 12ZM12.56 7.39L12.56 6.66C12.56 6.3 12.27 6.01 11.91 6.01C11.55 6.01 11.26 6.3 11.26 6.66L11.26 7.42C10.08 7.71 9.37 8.68 9.31 9.74C9.24 11.02 10.14 12.26 11.88 12.55C12.65 12.68 13.13 12.96 13.39 13.24C13.65 13.51 13.74 13.82 13.71 14.1C13.66 14.65 13.12 15.32 11.99 15.32C11.38 15.32 11.01 15.08 10.77 14.79C10.5 14.48 10.43 14.14 10.43 14.05C10.43 13.69 10.13 13.4 9.78 13.4C9.42 13.4 9.13 13.69 9.13 14.05C9.13 14.49 9.34 15.11 9.77 15.63C10.11 16.04 10.61 16.39 11.26 16.54L11.26 17.35C11.26 17.71 11.55 18 11.91 18C12.27 18 12.56 17.71 12.56 17.35L12.56 16.58C13.94 16.37 14.9 15.4 15.01 14.22C15.07 13.56 14.85 12.89 14.34 12.35C13.83 11.81 13.07 11.43 12.09 11.27C10.94 11.08 10.58 10.36 10.61 9.81C10.64 9.22 11.09 8.64 11.99 8.64C12.57 8.64 12.9 8.87 13.1 9.14C13.32 9.44 13.41 9.82 13.41 10.05C13.41 10.41 13.7 10.7 14.06 10.7C14.42 10.7 14.71 10.41 14.71 10.05C14.71 9.58 14.56 8.92 14.14 8.37C13.8 7.9 13.27 7.52 12.56 7.39Z" fill="#717681" fill-opacity="1.000000" fill-rule="evenodd"/>
	</g>
</svg>
