<svg viewBox="0 0 28 28" xmlns="http://www.w3.org/2000/svg" xmlns:xlink="http://www.w3.org/1999/xlink" width="28.000000" height="28.000000" fill="none">
	<defs>
		<filter id="pixso_custom_mask_type_alpha">
			<feColorMatrix type="matrix" values="0 0 0 0 1 0 0 0 0 1 0 0 0 0 1 0 0 0 1 0 " />
		</filter>
	</defs>
	<mask id="mask_283" width="28.000000" height="20.000000" x="0.000000" y="4.000000" maskUnits="userSpaceOnUse">
		<g filter="url(#pixso_custom_mask_type_alpha)">
			<rect id="Mask Copy" width="28.000000" height="20.000000" x="0.000000" y="4.000000" rx="3.000000" fill="rgb(27,47,76)" />
			<rect id="Mask Copy" width="27.500000" height="19.500000" x="0.250000" y="4.250000" rx="2.750000" stroke="rgb(245,245,245)" stroke-opacity="0" stroke-width="0.5" />
		</g>
	</mask>
	<rect id="Abkhazia" width="28.000000" height="28.000000" x="0.000000" y="0.000000" fill="rgb(255,255,255)" fill-opacity="0" transform="matrix(-1,-6.12324e-17,6.12324e-17,-1,28,28)" />
	<path id="Vector" d="M23.3333 0L0 0L0 23.3333L23.3333 23.3333L23.3333 0Z" opacity="0" fill="rgb(96,96,96)" fill-rule="evenodd" transform="matrix(-1,-6.12324e-17,6.12324e-17,-1,25.6666,25.6667)" />
	<rect id="Mask Copy" width="28.000000" height="20.000000" x="0.000000" y="4.000000" rx="3.000000" fill="rgb(255,255,255)" />
	<rect id="Mask Copy" width="27.500000" height="19.500000" x="0.250000" y="4.250000" rx="2.750000" stroke="rgb(245,245,245)" stroke-width="0.5" />
	<path id="Subtract" d="M0.00332304 2.85754C0.0776896 1.26683 1.3909 0 3 0L25 0C26.6091 0 27.9223 1.26683 27.9967 2.85754L0.00332304 2.85754ZM0 8.57238L28 8.57238L28 5.71484L0 5.71484L0 8.57238ZM0.00332839 17.1426C0.0777526 18.7332 1.39094 20 3 20L25 20C26.6091 20 27.9222 18.7332 27.9967 17.1426L0.00332839 17.1426ZM0 14.2853L0 11.4297L28 11.4297L28 14.2853L0 14.2853Z" fill="rgb(0,153,62)" fill-rule="evenodd" transform="matrix(-1,-6.12324e-17,6.12324e-17,-1,28,24)" />
	<path id="Subtract" d="M0.00332304 2.85754C0.0776896 1.26683 1.3909 0 3 0L25 0C26.6091 0 27.9223 1.26683 27.9967 2.85754L0.00332304 2.85754ZM0.582847 2.35754L27.4172 2.35754C27.3803 2.21855 27.3311 2.08278 27.2697 1.95021Q27.1774 1.75098 27.0538 1.57344L27.0538 1.57341Q26.9116 1.36907 26.7282 1.1935C26.4991 0.974329 26.2388 0.804988 25.9471 0.685473Q25.7522 0.605652 25.5497 0.560183L25.5496 0.560174Q25.2816 0.5 25 0.5L3 0.5Q2.71844 0.5 2.45038 0.56017L2.45037 0.560172Q2.2478 0.605642 2.05294 0.685473Q1.85162 0.767954 1.6702 0.882078L1.6702 0.882081L1.67019 0.882083Q1.45731 1.016 1.27183 1.1935Q1.08838 1.36905 0.946232 1.57333L0.946231 1.57333L0.946227 1.57334Q0.82266 1.75092 0.730296 1.95021Q0.638141 2.14906 0.582847 2.35754ZM28 8.57238L0 8.57238L0 5.71484L28 5.71484L28 8.57238ZM0.5 8.07238L27.5 8.07238L27.5 6.21484L0.5 6.21484L0.5 8.07238ZM0 14.2853L0 11.4297L28 11.4297L28 14.2853L0 14.2853ZM0.5 13.7853L27.5 13.7853L27.5 11.9297L0.5 11.9297L0.5 13.7853ZM3 20C1.39094 20 0.0777526 18.7332 0.00332839 17.1426L27.9967 17.1426C27.9222 18.7332 26.6091 20 25 20L3 20ZM0.582877 17.6426C0.619742 17.7815 0.668892 17.9173 0.730325 18.0498C0.862743 18.3355 1.04326 18.5878 1.27186 18.8065Q1.45743 18.9841 1.67044 19.1181Q1.85176 19.2321 2.05297 19.3145Q2.24777 19.3943 2.45028 19.4398L2.45031 19.4398L2.45045 19.4398Q2.71848 19.5 3 19.5L25 19.5C25.3296 19.5 25.6452 19.4382 25.947 19.3145C26.2387 19.195 26.4991 19.0257 26.7281 18.8065C26.9567 18.5878 27.1373 18.3355 27.2697 18.0498C27.3311 17.9173 27.3803 17.7815 27.4171 17.6426L0.582877 17.6426Z" fill="rgb(245,245,245)" fill-opacity="0" fill-rule="evenodd" transform="matrix(-1,-6.12324e-17,6.12324e-17,-1,28,24)" />
	<g id="Mask group" mask="url(#mask_283)">
		<rect id="Rectangle 240649412" width="14.181152" height="8.570312" x="0.000000" y="4.000000" fill="rgb(200,49,42)" />
	</g>
	<g id="Group 1321316403">
		<path id="Rectangle 240649413" d="M6.08448 6.97493C6.70105 6.73073 7.04219 6.76239 7.61217 6.97493C7.71838 7.99906 7.79321 8.3768 8.0241 9.38894C8.0241 9.38894 8.24727 8.92569 8.50472 8.71952C8.76217 8.51335 8.91664 8.71952 8.91664 8.71952C8.91664 8.71952 8.71067 9.54322 8.40171 10.0755C8.09275 10.6078 7.698 10.8308 7.698 10.8308L7.69798 11.4313L6.08447 11.4313L6.08447 10.9337L5.8271 10.333C5.61744 8.944 5.68482 8.36103 6.08448 6.97493Z" fill="rgb(255,255,255)" fill-rule="nonzero" />
		<circle id="Ellipse 2979" cx="6.92215157" cy="5.47220039" r="0.391511679" fill="rgb(255,255,255)" />
		<circle id="Ellipse 2980" cx="4.8796711" cy="5.97000313" r="0.391511679" fill="rgb(255,255,255)" />
		<circle id="Ellipse 2983" cx="0.391511679" cy="0.391511679" r="0.391511679" fill="rgb(255,255,255)" transform="matrix(-1,0,0,1,9.47632,5.57849)" />
		<circle id="Ellipse 2981" cx="3.02591109" cy="7.27444649" r="0.391511679" fill="rgb(255,255,255)" />
		<circle id="Ellipse 2984" cx="0.391511679" cy="0.391511679" r="0.391511679" fill="rgb(255,255,255)" transform="matrix(-1,0,0,1,11.3302,6.88293)" />
		<circle id="Ellipse 2982" cx="2.01309371" cy="9.1452961" r="0.391511679" fill="rgb(255,255,255)" />
		<circle id="Ellipse 2985" cx="0.391511679" cy="0.391511679" r="0.391511679" fill="rgb(255,255,255)" transform="matrix(-1,0,0,1,12.3428,8.75378)" />
	</g>
</svg>
