<svg width="28" height="28" viewBox="0 0 28 28" fill="none" xmlns="http://www.w3.org/2000/svg">
<rect y="4" width="28" height="20" rx="3" fill="white"/>
<mask id="mask0_17_6169" style="mask-type:luminance" maskUnits="userSpaceOnUse" x="0" y="4" width="28" height="20">
<rect y="4" width="28" height="20" rx="3" fill="white"/>
</mask>
<g mask="url(#mask0_17_6169)">
<rect x="13.3333" y="4" width="14.6667" height="20" fill="#1AB11F"/>
<path fill-rule="evenodd" clip-rule="evenodd" d="M0 24H9.33333V4H0V24Z" fill="#262626"/>
<path fill-rule="evenodd" clip-rule="evenodd" d="M9.33331 24H18.6666V4H9.33331V24Z" fill="#DC0D18"/>
<path opacity="0.75" d="M11.3333 13.3333L11.9109 13.0004L10.6666 10.8415V13.3333H11.3333ZM12.6636 15.6415L12.329 16.2181L14.4871 17.4703L13.2412 15.3086L12.6636 15.6415ZM15.4348 15.5814L14.8502 15.2611L15.794 16.1431L15.4348 15.5814ZM16.6666 13.3333H17.3333L16.082 13.013L16.6666 13.3333ZM10.6666 13.3333C10.6666 14.5664 11.3365 15.6422 12.329 16.2181L12.9982 15.0648C12.3999 14.7177 12 14.0718 12 13.3333H10.6666ZM13.2412 15.3086L11.9109 13.0004L10.7557 13.6662L12.086 15.9744L13.2412 15.3086ZM15.794 16.1431C16.7182 15.552 17.3333 14.5147 17.3333 13.3333H16C16 14.041 15.6329 14.6634 15.0756 15.0198L15.794 16.1431ZM16.082 13.013L14.8502 15.2611L16.0195 15.9018L17.2513 13.6537L16.082 13.013Z" fill="white"/>
<path fill-rule="evenodd" clip-rule="evenodd" d="M14 14.6667C14.7364 14.6667 15.3334 13.7713 15.3334 12.6667C15.3334 11.5621 14.7364 10.6667 14 10.6667C13.2636 10.6667 12.6667 11.5621 12.6667 12.6667C12.6667 13.7713 13.2636 14.6667 14 14.6667Z" fill="white" fill-opacity="0.5"/>
</g>
</svg>
