<svg width="28.000000" height="28.000000" viewBox="0 0 28 28" fill="none" xmlns="http://www.w3.org/2000/svg" xmlns:xlink="http://www.w3.org/1999/xlink">
	<desc>
			Created with Pixso.
	</desc>
	<defs/>
	<rect id="Algeria" width="28.000000" height="28.000000" fill="#FFFFFF" fill-opacity="0"/>
	<rect id="Mask" y="4.000000" rx="3.000000" width="28.000000" height="20.000000" fill="#FFFFFF" fill-opacity="1.000000"/>
	<rect id="Mask" x="0.250000" y="4.250000" rx="3.000000" width="27.500000" height="19.500000" stroke="#D6D8DD" stroke-opacity="1.000000" stroke-width="0.500000"/>
	<mask id="mask17_6300" mask-type="alpha" maskUnits="userSpaceOnUse" x="0.000000" y="4.000000" width="28.000000" height="20.000000">
		<rect id="Mask" y="4.000000" rx="3.000000" width="28.000000" height="20.000000" fill="#FFFFFF" fill-opacity="1.000000"/>
		<rect id="Mask" x="0.250000" y="4.250000" rx="3.000000" width="27.500000" height="19.500000" stroke="#F5F5F5" stroke-opacity="1.000000" stroke-width="0.500000"/>
	</mask>
	<g mask="url(#mask17_6300)">
		<path id="Rectangle 2" d="M0 24L14.66 24L14.66 4L0 4L0 24Z" fill="#048345" fill-opacity="1.000000" fill-rule="evenodd"/>
		<path id="Rectangle 2" d="M14.66 24L14.66 4L0 4L0 24L14.66 24Z" stroke="#979797" stroke-opacity="0" stroke-width="0.000000"/>
	</g>
	<g mask="url(#mask17_6300)">
		<path id="Star 8" d="M17.33 15.04L15.76 16.15L16.34 14.32L14.79 13.17L16.72 13.15L17.33 11.33L17.94 13.15L19.86 13.17L18.32 14.32L18.9 16.15L17.33 15.04Z" fill="#E81B42" fill-opacity="1.000000" fill-rule="evenodd"/>
		<path id="Star 8" d="M15.76 16.15L16.34 14.32L14.79 13.17L16.72 13.15L17.33 11.33L17.94 13.15L19.86 13.17L18.32 14.32L18.9 16.15L17.33 15.04L15.76 16.15Z" stroke="#979797" stroke-opacity="0" stroke-width="0.000000"/>
	</g>
	<g mask="url(#mask17_6300)">
		<mask id="mask_17_6303" fill="white">
			<path id="Oval 3" d="M17.68 18.3813C16.6519 19.3853 15.2702 20 13.7509 20C10.5748 20 8 17.3137 8 14C8 10.6863 10.5748 8 13.7509 8C15.2702 8 16.6519 8.61469 17.68 9.61865C16.9709 9.28113 16.1688 9.09088 15.3193 9.09088C12.4319 9.09088 10.0912 11.2888 10.0912 14C10.0912 16.7112 12.4319 18.9091 15.3193 18.9091C16.1688 18.9091 16.9709 18.7189 17.68 18.3813Z" clip-rule="evenodd" fill="" fill-opacity="1.000000" fill-rule="evenodd"/>
		</mask>
		<path id="Oval 3" d="M17.68 18.3813C16.6519 19.3853 15.2702 20 13.7509 20C10.5748 20 8 17.3137 8 14C8 10.6863 10.5748 8 13.7509 8C15.2702 8 16.6519 8.61469 17.68 9.61865C16.9709 9.28113 16.1688 9.09088 15.3193 9.09088C12.4319 9.09088 10.0912 11.2888 10.0912 14C10.0912 16.7112 12.4319 18.9091 15.3193 18.9091C16.1688 18.9091 16.9709 18.7189 17.68 18.3813Z" clip-rule="evenodd" fill="#E81B42" fill-opacity="1.000000" fill-rule="evenodd" mask="url(#mask_17_6303)"/>
		<path id="Oval 3" d="" fill="#979797" fill-opacity="0.000000" fill-rule="nonzero"/>
	</g>
</svg>
