<svg width="28.000000" height="28.000000" viewBox="0 0 28 28" fill="none" xmlns="http://www.w3.org/2000/svg" xmlns:xlink="http://www.w3.org/1999/xlink">
	<desc>
			Created with Pixso.
	</desc>
	<defs>
		<clipPath id="clip107628_1719">
			<rect id="American Samoa" width="28.000000" height="28.000000" fill="white" fill-opacity="0"/>
		</clipPath>
	</defs>
	<rect id="American Samoa" width="28.000000" height="28.000000" fill="#FFFFFF" fill-opacity="0"/>
	<g>
		<path id="Mask" d="M0 21C0 22.65 1.34 24 3 24L25 24C26.65 24 28 22.65 28 21L28 7C28 5.34 26.65 4 25 4L3 4C1.34 4 0 5.34 0 7L0 21Z" fill="#FFFFFF" fill-opacity="1.000000" fill-rule="nonzero"/>
		<path id="Mask" d="M3 24C1.34 24 0 22.65 0 21L0 7C0 5.34 1.34 4 3 4L25 4C26.65 4 28 5.34 28 7L28 21C28 22.65 26.65 24 25 24L3 24ZM3 23.5L25 23.5Q25.28 23.5 25.56 23.43Q25.77 23.38 25.97 23.3Q26.18 23.21 26.36 23.09Q26.58 22.95 26.76 22.76Q26.95 22.58 27.09 22.36Q27.21 22.18 27.3 21.97Q27.38 21.77 27.43 21.56Q27.5 21.28 27.5 21L27.5 7Q27.5 6.71 27.43 6.43Q27.38 6.22 27.3 6.02Q27.21 5.81 27.09 5.63Q26.95 5.41 26.76 5.23Q26.58 5.04 26.36 4.9Q26.18 4.78 25.97 4.69Q25.77 4.61 25.56 4.56Q25.28 4.5 25 4.5L3 4.5Q2.71 4.5 2.43 4.56Q2.22 4.61 2.02 4.69Q1.81 4.78 1.63 4.9Q1.41 5.04 1.23 5.23Q1.04 5.41 0.9 5.63Q0.78 5.81 0.69 6.02Q0.61 6.22 0.56 6.43Q0.5 6.71 0.5 7L0.5 21Q0.5 21.28 0.56 21.56Q0.61 21.77 0.69 21.97Q0.78 22.18 0.9 22.36Q1.04 22.58 1.23 22.76Q1.41 22.95 1.63 23.09Q1.81 23.21 2.02 23.3Q2.22 23.38 2.43 23.43Q2.71 23.5 3 23.5Z" fill="#D6D8DD" fill-opacity="1.000000" fill-rule="evenodd"/>
		<mask id="mask107628_1709" mask-type="alpha" maskUnits="userSpaceOnUse" x="0.000000" y="4.000000" width="28.000000" height="20.000000">
			<path id="Mask" d="M3 24L25 24C26.65 24 28 22.65 28 21L28 7C28 5.34 26.65 4 25 4L3 4C1.34 4 0 5.34 0 7L0 21C0 22.65 1.34 24 3 24Z" fill="#000661" fill-opacity="1.000000" fill-rule="nonzero"/>
		</mask>
		<g mask="url(#mask107628_1709)">
			<path id="Vector" d="M22.1 16.14C22.1 16.14 21.91 15.96 22.14 15.67C22.01 15.55 22.13 15.32 22.13 15.32C22.13 15.32 21.92 15.23 22.14 14.86C21.98 14.74 22.05 14.47 22.05 14.47C22.05 14.47 21.52 14.25 22.02 14.04C21.61 14.24 21.23 13.77 21.23 13.77L20.64 13.79C20.54 13.23 19.75 13.72 20.34 12.12C20.19 12.09 20.02 12.04 19.85 12.18C19.68 12.32 19.2 12.62 18.92 12.32C18.63 12.02 19.1 11.59 19.11 11.58C19.12 11.57 19.74 11.21 19.83 10.97C19.82 10.79 19.63 10.65 19.8 10.26C20.01 9.89 21.26 9.54 21.83 9.42C22.1 9.28 22.23 9.01 22.23 9.01L22.29 9.27C22.29 9.27 23.55 8.85 23.61 8.65C23.67 8.45 23.64 8.83 23.64 8.83C24.13 8.78 24.76 8.3 24.85 8.52C25.27 8.43 26.07 8.03 26.07 8.03C26.07 8.03 26.34 8.02 26.15 8.36C26.18 8.42 26.2 8.5 26.19 8.57C26.18 8.65 26.15 8.72 26.1 8.77C26.09 8.77 26.16 8.99 26 9.11C26.05 9.3 25.9 9.45 25.9 9.45C25.9 9.45 25.97 9.68 25.69 9.8C25.71 10 25.53 10.04 25.53 10.04C25.53 10.04 25.55 10.25 25.43 10.34C25.43 10.5 25.29 10.58 25.29 10.58C25.29 10.58 25.37 10.64 25.25 10.74C25.13 10.84 23.84 11.73 23.84 11.72C23.84 11.71 24.78 11.91 24.84 11.95C24.9 11.99 25.61 12.52 25.61 12.52L24.9 13.52C24.9 13.52 24.1 13.42 24.06 13.47C24.03 13.52 24.23 13.54 24.28 13.62C24.32 13.7 24.39 13.89 24.53 13.87C24.67 13.85 24.27 14.16 24 14.19C24 14.3 24.34 14.31 24.43 14.22C24.51 14.13 24.21 14.48 24.18 14.53C24.14 14.58 24.58 14.46 24.58 14.46C24.58 14.46 24.51 14.79 24.12 14.89C24.27 15.17 24.21 15.35 24.2 15.35C24.2 15.35 23.95 15.07 23.72 15.12C23.79 15.39 23.97 15.64 24.03 15.68C24.08 15.72 23.61 15.71 23.55 15.56C23.49 15.41 23.43 15.92 23.6 16.08C23.41 16.09 23.24 15.96 23.24 15.96C23.24 15.96 23.12 16.26 23.2 16.41C23.28 16.56 22.93 16.11 22.93 16.11L22.25 16.43L22.1 16.14L22.1 16.14Z" fill="#8C301C" fill-opacity="1.000000" fill-rule="evenodd"/>
		</g>
		<g mask="url(#mask107628_1709)">
			<path id="Vector" d="M16.89 15.54C16.91 15.54 17.87 15.53 18.31 15.24C18.53 15.63 18.83 15.9 18.83 15.9L18.98 15.33C18.98 15.33 19.32 15.35 19.36 15.44C19.31 15.54 19.29 15.69 19.29 15.69C19.29 15.69 19.53 15.7 19.54 15.74C19.56 15.77 19.48 16.08 19.48 16.08L20.49 16.34C20.49 16.34 20.57 15.9 20.65 15.95C20.73 16.01 21.08 16.56 21.57 16.59C22.06 16.63 22.09 16.13 22.09 16.13L22.2 16.2C22.2 16.2 22.4 15.7 22.44 15.7C22.47 15.7 22.52 15.77 22.78 15.77C22.86 15.88 22.89 16.13 22.89 16.13C22.89 16.13 22.59 16.47 22.69 16.74C22.78 17 22.8 16.93 22.8 16.93L24.98 17.52C24.98 17.52 25.09 17.71 24.9 17.82C24.9 17.84 22.7 17.25 22.7 17.25C22.7 17.25 22.5 17.52 22.34 17.46C22.18 17.41 22.29 17.57 22.29 17.57L24.66 17.79C24.66 17.79 24.84 18.04 24.71 18.11C24.55 18.12 22.15 17.93 22.15 17.93C22.15 17.93 22.01 18.27 21.85 17.98C21.74 18.18 21.61 17.93 21.61 17.93C21.61 17.93 21.41 18.11 21.38 17.91C21.2 18.05 21.09 17.82 21.09 17.82L20.08 17.75L20.02 17.86C20.02 17.86 20.19 17.91 19.92 18.04C19.65 18.16 21.54 18.11 21.58 18.12C21.63 18.14 21.46 18.3 21.46 18.3C21.46 18.3 22.42 18.37 22.59 18.14C22.77 17.91 22.53 18.44 22.53 18.44C22.53 18.44 23.29 18.41 23.29 18.37C23.29 18.34 23.27 18.64 22.75 18.6C23.07 18.84 23.46 18.98 23.46 18.98C23.46 18.98 23.07 19.09 22.61 18.96C22.69 19.19 23.04 19.41 23.04 19.41C23.04 19.41 22.78 19.66 22.22 19.05C22.37 19.37 22.25 19.5 22.23 19.46C22.22 19.42 21.95 18.98 21.31 18.82C21.71 19.1 21.54 19.23 21.54 19.23C21.54 19.23 21.33 18.82 21 19.23C20.87 18.86 20.38 18.64 19.78 18.61C19.59 18.36 19.48 18.43 19.04 18.29C18.79 17.96 18.42 17.61 18.42 17.61C18.42 17.61 18.44 17.13 18.87 17.18C18.91 17.34 18.91 17.29 18.91 17.29C18.91 17.29 19.39 17.09 19.53 17.36C19.74 16.95 20.02 17.3 20.07 17.44C20.2 17.46 20.89 17.48 20.89 17.48C20.89 17.48 20.81 17.32 20.86 17.34C20.9 17.36 21.28 17.18 21.27 17.13C21.25 17.07 21.23 16.9 21.3 16.91C21.36 16.93 20.76 16.82 20.43 17.11C20.32 16.98 20.4 16.65 20.4 16.65L19.42 16.42L19.37 16.7C19.37 16.7 19.09 16.75 19.1 16.68C19.12 16.61 19.04 16.93 19.04 16.93C19.04 16.93 18.66 16.82 18.66 16.81C18.66 16.79 18.77 16.17 18.77 16.18C18.77 16.2 18.45 16.22 18.01 16.59C17.89 16.15 16.89 15.56 16.89 15.54L16.89 15.54Z" fill="#F0BC1E" fill-opacity="1.000000" fill-rule="evenodd"/>
		</g>
		<g mask="url(#mask107628_1709)">
			<path id="Vector" d="M18.12 14.08C18.12 14.08 17.46 14.72 18.12 15.1C18.16 14.85 18.2 14.81 18.2 14.81C18.2 14.81 18.75 15.05 19.09 14.49C18.94 14.26 18.69 14.35 18.69 14.35C18.69 14.35 18.17 14.35 18.12 14.08Z" fill="#F0BC1E" fill-opacity="1.000000" fill-rule="evenodd"/>
		</g>
		<g mask="url(#mask107628_1709)">
			<path id="Vector" d="M18.15 14.09C18.15 14.09 18.23 13.99 18.26 13.87C18.29 13.75 18.23 13.62 18.33 13.51C18.44 13.4 19.84 12.73 19.95 12.6C20.07 12.47 20.28 12.19 20.31 12.13C20.34 12.07 20.42 12.43 20.18 12.59C20.43 12.51 20.6 12.42 20.71 12.46C20.6 12.63 20.32 12.91 20.18 12.91C20.5 12.78 20.78 12.67 20.86 12.74C20.94 12.81 20.48 13.16 20.29 13.18C20.6 13.09 21.02 12.95 21.07 13.1C20.9 13.16 20.96 13.21 20.61 13.43C20.57 13.47 20.35 13.48 20.35 13.48C20.61 13.45 20.97 13.33 21.01 13.55C20.8 13.64 20.72 13.76 20.54 13.81C20.36 13.86 19.95 13.95 19.71 14.06C19.46 14.17 19.09 14.49 19.09 14.49C19.09 14.49 18.3 14.52 18.3 14.51C18.3 14.5 18.15 14.1 18.14 14.09L18.15 14.09Z" fill="#F9EBC2" fill-opacity="1.000000" fill-rule="evenodd"/>
		</g>
		<g mask="url(#mask107628_1709)">
			<path id="Vector" d="M18.54 14.02L18.49 14.02C18.49 14.01 18.5 13.8 18.59 13.72C18.62 13.7 18.68 13.67 18.76 13.62C18.9 13.54 19.1 13.44 19.15 13.34C19.17 13.31 19.19 13.29 19.21 13.3C19.23 13.32 19.22 13.33 19.2 13.39C19.17 13.45 19.08 13.66 19.1 13.72L19.05 13.74C19.03 13.68 19.06 13.58 19.11 13.47C19.01 13.55 18.89 13.62 18.78 13.68L18.72 13.71C18.8 13.75 18.89 13.85 18.85 13.98L18.8 13.96C18.84 13.82 18.68 13.75 18.67 13.75L18.67 13.74C18.65 13.75 18.64 13.76 18.62 13.77C18.57 13.82 18.55 13.97 18.54 14.02L18.54 14.02Z" fill="#100F0D" fill-opacity="1.000000" fill-rule="nonzero"/>
		</g>
		<g mask="url(#mask107628_1709)">
			<path id="Vector" d="M18.76 13.69C18.69 13.69 18.64 13.76 18.64 13.83C18.64 13.91 18.69 13.97 18.76 13.97C18.83 13.97 18.88 13.91 18.88 13.83C18.88 13.76 18.83 13.69 18.76 13.69ZM18.76 14.02C18.67 14.02 18.59 13.94 18.59 13.83C18.59 13.73 18.67 13.64 18.76 13.64C18.85 13.64 18.93 13.73 18.93 13.83C18.93 13.94 18.85 14.02 18.76 14.02Z" fill="#100F0D" fill-opacity="1.000000" fill-rule="nonzero"/>
		</g>
		<g mask="url(#mask107628_1709)">
			<path id="Vector" d="M24.91 13.48L26.45 13.81C26.45 13.81 26.62 13.59 26.53 13.47C26.76 13.41 26.7 13.07 26.7 13.07C26.7 13.07 26.96 12.94 26.74 12.64C26.89 12.47 26.71 12.34 26.71 12.34C26.71 12.34 26.77 12.04 26.57 12.01C26.62 11.77 26.24 11.69 26.24 11.69C26.24 11.69 25.43 11.94 24.86 11.96C25.05 12.17 24.79 12.3 24.79 12.3C24.79 12.3 24.94 12.42 24.9 12.52C24.85 12.62 24.92 12.73 24.73 12.8C24.99 12.93 24.7 13.15 24.7 13.15C24.7 13.15 24.99 13.37 24.91 13.48L24.91 13.48Z" fill="#F9EBC2" fill-opacity="1.000000" fill-rule="evenodd"/>
		</g>
		<g mask="url(#mask107628_1709)">
			<path id="Vector" d="M28 24L0 24L0 14L28 24ZM0 4L28 4L0 14L0 4Z" fill="#000661" fill-opacity="1.000000" fill-rule="nonzero"/>
		</g>
		<g mask="url(#mask107628_1709)">
			<path id="Vector" d="M0 14L28 4L28 5L3 14L28 23L28 24L0 14Z" fill="#AB1A2E" fill-opacity="1.000000" fill-rule="nonzero"/>
		</g>
	</g>
</svg>
