<svg viewBox="0 0 28 28" xmlns="http://www.w3.org/2000/svg" xmlns:xlink="http://www.w3.org/1999/xlink" width="28.000000" height="28.000000" fill="none">
	<rect id="Antarctica" width="28.000000" height="28.000000" x="0.000000" y="0.000000" fill="rgb(255,255,255)" fill-opacity="0" transform="matrix(-1,-6.12324e-17,6.12324e-17,-1,28,28)" />
	<path id="Vector" d="M23.3333 0L0 0L0 23.3333L23.3333 23.3333L23.3333 0Z" opacity="0" fill="rgb(96,96,96)" fill-rule="evenodd" transform="matrix(-1,-6.12324e-17,6.12324e-17,-1,25.6666,25.6667)" />
	<rect id="Mask Copy" width="28.000000" height="20.000000" x="0.000000" y="4.000000" rx="3.000000" fill="rgb(255,255,255)" />
	<rect id="Mask Copy" width="27.500000" height="19.500000" x="0.250000" y="4.250000" rx="2.750000" stroke="rgb(214,216,221)" stroke-width="0.500000" />
	<path id="Subtract" d="M0 7L0 0L28 0L28 7C28 8.65685 26.6569 10 25 10L3 10C1.34315 10 0 8.65685 0 7ZM9.03589 0.000103951L14.0011 8.06377L18.964 0.000103951L9.03589 0.000103951Z" fill="rgb(27,47,76)" fill-rule="evenodd" transform="matrix(-1,-6.12324e-17,6.12324e-17,-1,28,14)" />
	<path id="Subtract" d="M8.44864 0L0 0L0 7C0 8.65685 1.34315 10 3 10L25 10C26.6569 10 28 8.65685 28 7L28 0L8.44864 0ZM8.75651 0.5L0.5 0.5L0.5 7Q0.5 7.51776 0.683054 7.9597Q0.866113 8.40165 1.23223 8.76777Q1.59835 9.13388 2.04029 9.31694Q2.48223 9.5 3 9.5L25 9.5Q25.5178 9.5 25.9597 9.31694Q26.4016 9.13388 26.7678 8.76777Q27.1339 8.40165 27.3169 7.95971Q27.5 7.51777 27.5 7L27.5 0.5L19.2435 0.5L14.0012 9.01754L8.75651 0.5ZM18.964 0.000103951L9.03589 0.000103951L9.3437 0.5L9.34376 0.500104L13.7074 7.58691L14.0011 8.06377L14.2946 7.58686L18.6563 0.500104L18.6564 0.5L18.964 0.000103951Z" fill="rgb(245,245,245)" fill-opacity="0" fill-rule="evenodd" transform="matrix(-1,-6.12324e-17,6.12324e-17,-1,28,14)" />
	<path id="Rectangle 35924" d="M4.96298 0L9.92815 8.06366L4.96407 6.05844L0 8.06366L4.96298 0Z" fill="rgb(27,47,76)" fill-rule="nonzero" transform="matrix(1,0,0,-1,9.03595,22.0638)" />
</svg>
