<svg viewBox="0 0 28 28" xmlns="http://www.w3.org/2000/svg" xmlns:xlink="http://www.w3.org/1999/xlink" width="28.000000" height="28.000000" fill="none">
	<rect id="Antarctica" width="28.000000" height="28.000000" x="0.000000" y="0.000000" fill="rgb(255,255,255)" fill-opacity="0" transform="matrix(-1,-6.12324e-17,6.12324e-17,-1,28,28)" />
	<path id="Vector" d="M23.3333 0L0 0L0 23.3333L23.3333 23.3333L23.3333 0Z" opacity="0" fill="rgb(96,96,96)" fill-rule="evenodd" transform="matrix(-1,-6.12324e-17,6.12324e-17,-1,25.6666,25.6667)" />
	<rect id="Mask Copy" width="28.000000" height="20.000000" x="0.000000" y="4.000000" rx="3.000000" fill="rgb(255,255,255)" />
	<rect id="Mask Copy" width="27.500000" height="19.500000" x="0.250000" y="4.250000" rx="2.750000" stroke="rgb(214,216,221)" stroke-width="0.5" />
	<path id="Subtract" d="M0 7L0 0L28 0L28 7C28 8.65685 26.6569 10 25 10L3 10C1.34315 10 0 8.65685 0 7ZM9.03589 0.000103951L14.0011 8.06377L18.964 0.000103951L9.03589 0.000103951Z" fill="rgb(27,47,76)" fill-rule="evenodd" transform="matrix(-1,-6.12324e-17,6.12324e-17,-1,28,14)" />
	<path id="Subtract" d="M0 7L0 0L28 0L28 7C28 8.65685 26.6569 10 25 10L3 10C1.34315 10 0 8.65685 0 7ZM9.03589 0.000103951L14.0011 8.06377L18.964 0.000103951L9.03589 0.000103951ZM8.75651 0.5L0.5 0.5L0.5 7Q0.5 7.28724 0.56251 7.56016Q0.610761 7.77082 0.696257 7.97296C0.822739 8.27199 1.0014 8.53693 1.23223 8.76777Q1.41798 8.95352 1.63319 9.09423L1.63361 9.09451Q1.81936 9.2159 2.02704 9.30374Q2.2292 9.38925 2.43988 9.4375L2.44026 9.43759Q2.71299 9.5 3 9.5L25 9.5Q25.2872 9.5 25.5601 9.4375Q25.7708 9.38925 25.973 9.30374C26.272 9.17726 26.5369 8.9986 26.7678 8.76777C26.9986 8.53693 27.1773 8.272 27.3037 7.97296Q27.3892 7.77086 27.4375 7.56024L27.4377 7.55931Q27.5 7.28678 27.5 7L27.5 0.5L19.2435 0.5L14.0012 9.01754L8.75651 0.5Z" fill="rgb(245,245,245)" fill-opacity="0" fill-rule="evenodd" transform="matrix(-1,-6.12324e-17,6.12324e-17,-1,28,14)" />
	<path id="Rectangle 35924" d="M4.96298 0L9.92815 8.06366L4.96407 6.05844L0 8.06366L4.96298 0Z" fill="rgb(27,47,76)" fill-rule="nonzero" transform="matrix(1,0,0,-1,9.03595,22.0638)" />
</svg>
