<svg viewBox="0 0 28 28" xmlns="http://www.w3.org/2000/svg" xmlns:xlink="http://www.w3.org/1999/xlink" width="28.000000" height="28.000000" fill="none" customFrame="#000000">
	<defs>
		<filter id="pixso_custom_mask_type_alpha">
			<feColorMatrix type="matrix" values="0 0 0 0 1 0 0 0 0 1 0 0 0 0 1 0 0 0 1 0 " />
		</filter>
		<g id="pixso_custom_effect_26">
			<effect x="0.000000" y="1.000000" visibility="visible" fill="rgb(0,0,0)" fill-opacity="0.159999996" effectType="dropShadow" showShadowBehind="1" stdDeviation="1" radius="0" />
		</g>
		<filter id="filter_26" width="30.000000" height="22.000000" x="-1.000000" y="4.000000" filterUnits="userSpaceOnUse" customEffect="url(#pixso_custom_effect_26)" color-interpolation-filters="sRGB">
			<feFlood flood-opacity="0" result="BackgroundImageFix" />
			<feOffset dx="0.000000" dy="1.000000" in="SourceAlpha" />
			<feGaussianBlur stdDeviation="0.333333343" />
			<feColorMatrix type="matrix" values="0 0 0 0 0 0 0 0 0 0 0 0 0 0 0 0 0 0 0.16 0 " />
			<feBlend result="effect_dropShadow_1" in2="BackgroundImageFix" mode="normal" />
			<feBlend result="shape" in="SourceGraphic" in2="effect_dropShadow_1" mode="normal" />
		</filter>
	</defs>
	<mask id="mask_325" width="28.000000" height="20.000000" x="0.000000" y="4.000000" maskUnits="userSpaceOnUse">
		<g filter="url(#pixso_custom_mask_type_alpha)">
			<rect id="Mask" width="28.000000" height="20.000000" x="0.000000" y="4.000000" rx="3.000000" fill="rgb(255,255,255)" />
			<rect id="Mask" width="28.000000" height="20.000000" x="0.000000" y="4.000000" rx="3.000000" stroke="rgb(150.96,150.96,150.96)" stroke-opacity="0" stroke-width="0" />
		</g>
	</mask>
	<rect id="Aruba" width="28.000000" height="28.000000" x="0.000000" y="0.000000" fill="rgb(255,255,255)" fill-opacity="0" />
	<rect id="Mask" width="28.000000" height="20.000000" x="0.000000" y="4.000000" rx="3.000000" fill="rgb(255,255,255)" />
	<rect id="Mask" width="28.000000" height="20.000000" x="0.000000" y="4.000000" rx="3.000000" stroke="rgb(150.96,150.96,150.96)" stroke-opacity="0" stroke-width="0" />
	<g mask="url(#mask_325)">
		<g filter="url(#filter_26)">
			<rect id="Mask Copy" width="28.000000" height="20.000000" x="0.000000" y="4.000000" fill="rgb(65,137,221)" />
			<rect id="Mask Copy" width="28.000000" height="20.000000" x="0.000000" y="4.000000" stroke="rgb(150.96,150.96,150.96)" stroke-opacity="0" stroke-width="0" />
		</g>
		<path id="Star 2" d="M2 2.96982L0.585786 3.41421L1.03018 2L0.585786 0.585786L2 1.03018L3.41421 0.585786L2.96982 2L3.41421 3.41421L2 2.96982Z" fill="rgb(210,16,52)" fill-rule="evenodd" transform="matrix(-0.707107,0.707107,-0.707107,-0.707107,8.16351,8.66669)" />
		<path id="Star 2" d="M0.331374 2L-0.0502189 3.21436L-0.433228 4.43323L2 3.66863L4.43323 4.43323L3.66863 2L4.43323 -0.433228L2 0.331374L-0.433228 -0.433228L0.331374 2ZM1.03018 2L0.585786 3.41421L1.36115 3.17057L2 2.96982L2.63885 3.17057L3.41421 3.41421L3.17057 2.63885L2.96982 2L3.17057 1.36115L3.41421 0.585786L2 1.03018L0.585786 0.585786L1.03018 2Z" fill="rgb(255,255,255)" fill-rule="evenodd" transform="matrix(-0.707107,0.707107,-0.707107,-0.707107,8.16351,8.66669)" />
		<rect id="Rectangle 1223" width="28.000000" height="1.333333" x="0.000000" y="18.666687" fill="rgb(249,214,22)" />
		<rect id="Rectangle 1223" width="28.000000" height="1.333333" x="0.000000" y="18.666687" stroke="rgb(150.96,150.96,150.96)" stroke-opacity="0" stroke-width="0" />
		<rect id="Rectangle 1223" width="28.000000" height="1.333333" x="0.000000" y="16.000000" fill="rgb(249,214,22)" />
		<rect id="Rectangle 1223" width="28.000000" height="1.333333" x="0.000000" y="16.000000" stroke="rgb(150.96,150.96,150.96)" stroke-opacity="0" stroke-width="0" />
	</g>
</svg>
