<svg width="28.000000" height="28.000000" viewBox="0 0 28 28" fill="none" xmlns="http://www.w3.org/2000/svg" xmlns:xlink="http://www.w3.org/1999/xlink">
	<desc>
			Created with Pixso.
	</desc>
	<defs>
		<filter id="filter_17_6255_dd" x="12.000000" y="12.000000" width="4.000000" height="5.000000" filterUnits="userSpaceOnUse" color-interpolation-filters="sRGB">
			<feFlood flood-opacity="0" result="BackgroundImageFix"/>
			<feColorMatrix in="SourceAlpha" type="matrix" values="0 0 0 0 0 0 0 0 0 0 0 0 0 0 0 0 0 0 127 0" result="hardAlpha"/>
			<feOffset dx="0" dy="1"/>
			<feGaussianBlur stdDeviation="0"/>
			<feComposite in2="hardAlpha" operator="out" k2="-1" k3="1"/>
			<feColorMatrix type="matrix" values="0 0 0 0 0 0 0 0 0 0 0 0 0 0 0 0 0 0 0.059 0"/>
			<feBlend mode="normal" in2="BackgroundImageFix" result="effect_dropShadow_1"/>
			<feBlend mode="normal" in="SourceGraphic" in2="effect_dropShadow_1" result="shape"/>
		</filter>
	</defs>
	<rect id="Azerbaijan" width="28.000000" height="28.000000" fill="#FFFFFF" fill-opacity="0"/>
	<rect id="Mask" y="4.000000" rx="3.000000" width="28.000000" height="20.000000" fill="#FFFFFF" fill-opacity="1.000000"/>
	<rect id="Mask" y="4.000000" rx="3.000000" width="28.000000" height="20.000000" stroke="#979797" stroke-opacity="0" stroke-width="0.000000"/>
	<mask id="mask17_6251" mask-type="alpha" maskUnits="userSpaceOnUse" x="0.000000" y="4.000000" width="28.000000" height="20.000000">
		<rect id="Mask" y="4.000000" rx="3.000000" width="28.000000" height="20.000000" fill="#FFFFFF" fill-opacity="1.000000"/>
		<rect id="Mask" y="4.000000" rx="3.000000" width="28.000000" height="20.000000" stroke="#979797" stroke-opacity="0" stroke-width="0.000000"/>
	</mask>
	<g mask="url(#mask17_6251)">
		<path id="Rectangle 2" d="M0 10.66L28 10.66L28 4L0 4L0 10.66Z" fill="#24AAD5" fill-opacity="1.000000" fill-rule="evenodd"/>
		<path id="Rectangle 2" d="M28 10.66L28 4L0 4L0 10.66L28 10.66Z" stroke="#979797" stroke-opacity="0" stroke-width="0.000000"/>
	</g>
	<g mask="url(#mask17_6251)">
		<path id="Rectangle 2" d="M0 24L28 24L28 17.33L0 17.33L0 24Z" fill="#21BF75" fill-opacity="1.000000" fill-rule="evenodd"/>
		<path id="Rectangle 2" d="M28 24L28 17.33L0 17.33L0 24L28 24Z" stroke="#979797" stroke-opacity="0" stroke-width="0.000000"/>
	</g>
	<g mask="url(#mask17_6251)">
		<path id="Rectangle 2" d="M0 17.33L28 17.33L28 10.66L0 10.66L0 17.33Z" fill="#ED1845" fill-opacity="1.000000" fill-rule="evenodd"/>
		<path id="Rectangle 2" d="M28 17.33L28 10.66L0 10.66L0 17.33L28 17.33Z" stroke="#979797" stroke-opacity="0" stroke-width="0.000000"/>
	</g>
	<g mask="url(#mask17_6251)">
		<g filter="url(#filter_17_6255_dd)">
			<mask id="mask_17_6255" fill="white">
				<path id="Oval 68" d="M15.1114 15.663C14.7936 15.8759 14.4113 16 14 16C12.8954 16 12 15.1046 12 14C12 12.8954 12.8954 12 14 12C14.4113 12 14.7936 12.1241 15.1114 12.337C15.0746 12.3346 15.0374 12.3333 15 12.3333C14.0795 12.3333 13.3333 13.0795 13.3333 14C13.3333 14.9205 14.0795 15.6667 15 15.6667C15.0374 15.6667 15.0746 15.6654 15.1114 15.663ZM16 14C16 14.3682 15.7015 14.6667 15.3333 14.6667C14.9651 14.6667 14.6667 14.3682 14.6667 14C14.6667 13.6318 14.9651 13.3333 15.3333 13.3333C15.7015 13.3333 16 13.6318 16 14Z" clip-rule="evenodd" fill="" fill-opacity="1.000000" fill-rule="evenodd"/>
			</mask>
			<path id="Oval 68" d="M15.1114 15.663C14.7936 15.8759 14.4113 16 14 16C12.8954 16 12 15.1046 12 14C12 12.8954 12.8954 12 14 12C14.4113 12 14.7936 12.1241 15.1114 12.337C15.0746 12.3346 15.0374 12.3333 15 12.3333C14.0795 12.3333 13.3333 13.0795 13.3333 14C13.3333 14.9205 14.0795 15.6667 15 15.6667C15.0374 15.6667 15.0746 15.6654 15.1114 15.663ZM16 14C16 14.3682 15.7015 14.6667 15.3333 14.6667C14.9651 14.6667 14.6667 14.3682 14.6667 14C14.6667 13.6318 14.9651 13.3333 15.3333 13.3333C15.7015 13.3333 16 13.6318 16 14Z" clip-rule="evenodd" fill="#FFFFFF" fill-opacity="1.000000" fill-rule="evenodd" mask="url(#mask_17_6255)"/>
		</g>
		<path id="Oval 68" d="" fill="#979797" fill-opacity="0.000000" fill-rule="nonzero"/>
	</g>
</svg>
