<svg width="28.000000" height="28.000000" viewBox="0 0 28 28" fill="none" xmlns="http://www.w3.org/2000/svg" xmlns:xlink="http://www.w3.org/1999/xlink">
	<desc>
			Created with Pixso.
	</desc>
	<defs>
		<linearGradient id="paint_linear_17_5998_0" x1="0.000000" y1="10.666687" x2="0.000000" y2="17.333353" gradientUnits="userSpaceOnUse">
			<stop stop-color="#FCE569"/>
			<stop offset="1.000000" stop-color="#FADF52"/>
		</linearGradient>
	</defs>
	<rect id="Bahamas" width="28.000000" height="28.000000" fill="#FFFFFF" fill-opacity="0"/>
	<rect id="Mask" y="4.000000" rx="3.000000" width="28.000000" height="20.000000" fill="#FFFFFF" fill-opacity="1.000000"/>
	<rect id="Mask" y="4.000000" rx="3.000000" width="28.000000" height="20.000000" stroke="#979797" stroke-opacity="0" stroke-width="0.000000"/>
	<mask id="mask17_5995" mask-type="alpha" maskUnits="userSpaceOnUse" x="0.000000" y="4.000000" width="28.000000" height="20.000000">
		<rect id="Mask" y="4.000000" rx="3.000000" width="28.000000" height="20.000000" fill="#FFFFFF" fill-opacity="1.000000"/>
		<rect id="Mask" y="4.000000" rx="3.000000" width="28.000000" height="20.000000" stroke="#979797" stroke-opacity="0" stroke-width="0.000000"/>
	</mask>
	<g mask="url(#mask17_5995)">
		<path id="Rectangle 2" d="M0 24L28 24L28 17.33L0 17.33L0 24Z" fill="#22B7D5" fill-opacity="1.000000" fill-rule="evenodd"/>
		<path id="Rectangle 2" d="M28 24L28 17.33L0 17.33L0 24L28 24Z" stroke="#979797" stroke-opacity="0" stroke-width="0.000000"/>
	</g>
	<g mask="url(#mask17_5995)">
		<path id="Rectangle 2" d="M0 10.66L28 10.66L28 4L0 4L0 10.66Z" fill="#22B7D5" fill-opacity="1.000000" fill-rule="evenodd"/>
		<path id="Rectangle 2" d="M28 10.66L28 4L0 4L0 10.66L28 10.66Z" stroke="#979797" stroke-opacity="0" stroke-width="0.000000"/>
	</g>
	<g mask="url(#mask17_5995)">
		<path id="Rectangle 2" d="M0 17.33L28 17.33L28 10.66L0 10.66L0 17.33Z" fill="url(#paint_linear_17_5998_0)" fill-opacity="1.000000" fill-rule="evenodd"/>
		<path id="Rectangle 2" d="M28 17.33L28 10.66L0 10.66L0 17.33L28 17.33Z" stroke="#979797" stroke-opacity="0" stroke-width="0.000000"/>
	</g>
	<g mask="url(#mask17_5995)">
		<path id="Rectangle 83" d="M0 4L13.33 14L0 24L0 4Z" fill="#262626" fill-opacity="1.000000" fill-rule="evenodd"/>
		<path id="Rectangle 83" d="M13.33 14L0 24L0 4L13.33 14Z" stroke="#979797" stroke-opacity="0" stroke-width="0.000000"/>
	</g>
</svg>
