<svg viewBox="0 0 28 28" xmlns="http://www.w3.org/2000/svg" xmlns:xlink="http://www.w3.org/1999/xlink" width="28.000000" height="28.000000" fill="none" customFrame="#000000">
	<defs>
		<filter id="pixso_custom_mask_type_alpha">
			<feColorMatrix type="matrix" values="0 0 0 0 1 0 0 0 0 1 0 0 0 0 1 0 0 0 1 0 " />
		</filter>
	</defs>
	<mask id="mask_362" width="28.000000" height="20.000000" x="0.000000" y="4.000000" maskUnits="userSpaceOnUse">
		<g filter="url(#pixso_custom_mask_type_alpha)">
			<rect id="Mask" width="28.000000" height="20.000000" x="0.000000" y="4.000000" rx="3.000000" fill="rgb(255,255,255)" />
			<rect id="Mask" width="28.000000" height="20.000000" x="0.000000" y="4.000000" rx="3.000000" stroke="rgb(150.96,150.96,150.96)" stroke-opacity="0" stroke-width="0" />
		</g>
	</mask>
	<rect id="Bangladesh" width="28.000000" height="28.000000" x="0.000000" y="0.000000" fill="rgb(255,255,255)" fill-opacity="0" />
	<rect id="Mask" width="28.000000" height="20.000000" x="0.000000" y="4.000000" rx="3.000000" fill="rgb(255,255,255)" />
	<rect id="Mask" width="28.000000" height="20.000000" x="0.000000" y="4.000000" rx="3.000000" stroke="rgb(150.96,150.96,150.96)" stroke-opacity="0" stroke-width="0" />
	<g mask="url(#mask_362)">
		<rect id="Mask Copy" width="28.000000" height="20.000000" x="0.000000" y="4.000000" fill="rgb(18,131,99)" />
		<rect id="Mask Copy" width="28.000000" height="20.000000" x="0.000000" y="4.000000" stroke="rgb(150.96,150.96,150.96)" stroke-opacity="0" stroke-width="0" />
		<path id="Oval 9" d="M12.6667 20C15.9804 20 18.6667 17.3137 18.6667 14C18.6667 10.6863 15.9804 8 12.6667 8C9.35298 8 6.66669 10.6863 6.66669 14C6.66669 17.3137 9.35298 20 12.6667 20Z" fill="rgb(242,60,83)" fill-rule="evenodd" />
		<path id="Oval 9" d="M18.6667 14C18.6667 10.6863 15.9804 8 12.6667 8C9.35298 8 6.66669 10.6863 6.66669 14C6.66669 17.3137 9.35298 20 12.6667 20C15.9804 20 18.6667 17.3137 18.6667 14Z" fill-rule="evenodd" stroke="rgb(150.96,150.96,150.96)" stroke-opacity="0" stroke-width="0" />
	</g>
</svg>
