<svg width="30.000000" height="28.000000" viewBox="0 0 30 28" fill="none" xmlns="http://www.w3.org/2000/svg" xmlns:xlink="http://www.w3.org/1999/xlink">
	<desc>
			Created with Pixso.
	</desc>
	<defs/>
	<rect id="Belarus" width="28.000000" height="28.000000" transform="translate(2.000000 0.000000)" fill="#FFFFFF" fill-opacity="0"/>
	<rect id="Mask" x="2.000000" y="4.000000" rx="3.000000" width="28.000000" height="20.000000" fill="#FFFFFF" fill-opacity="1.000000"/>
	<rect id="Mask" x="2.000000" y="4.000000" rx="3.000000" width="28.000000" height="20.000000" stroke="#979797" stroke-opacity="0" stroke-width="0.000000"/>
	<mask id="mask17_6064" mask-type="alpha" maskUnits="userSpaceOnUse" x="2.000000" y="4.000000" width="28.000000" height="20.000000">
		<rect id="Mask" x="2.000000" y="4.000000" rx="3.000000" width="28.000000" height="20.000000" fill="#FFFFFF" fill-opacity="1.000000"/>
		<rect id="Mask" x="2.000000" y="4.000000" rx="3.000000" width="28.000000" height="20.000000" stroke="#979797" stroke-opacity="0" stroke-width="0.000000"/>
	</mask>
	<g mask="url(#mask17_6064)">
		<path id="Rectangle 2" d="M2 17.33L30 17.33L30 4L2 4L2 17.33Z" fill="#E54252" fill-opacity="1.000000" fill-rule="evenodd"/>
		<path id="Rectangle 2" d="M30 17.33L30 4L2 4L2 17.33L30 17.33Z" stroke="#979797" stroke-opacity="0" stroke-width="0.000000"/>
	</g>
	<g mask="url(#mask17_6064)">
		<path id="Rectangle 2" d="M2 24L30 24L30 17.33L2 17.33L2 24Z" fill="#5CBE6B" fill-opacity="1.000000" fill-rule="evenodd"/>
		<path id="Rectangle 2" d="M30 24L30 17.33L2 17.33L2 24L30 24Z" stroke="#979797" stroke-opacity="0" stroke-width="0.000000"/>
	</g>
	<g mask="url(#mask17_6064)">
		<mask id="mask_17_6067" fill="white">
			<path id="Rectangle 1512" d="M2 4L6 4L6 7L5.33333 8L6 9L6 11L5.33333 12L6 13L6 15L5.33333 16L6 17L6 19L5.33333 20L6 21L6 24L2 24L2 4Z" clip-rule="evenodd" fill="" fill-opacity="1.000000" fill-rule="evenodd"/>
		</mask>
		<path id="Rectangle 1512" d="M2 4L6 4L6 7L5.33333 8L6 9L6 11L5.33333 12L6 13L6 15L5.33333 16L6 17L6 19L5.33333 20L6 21L6 24L2 24L2 4Z" clip-rule="evenodd" fill="#FFFFFF" fill-opacity="1.000000" fill-rule="evenodd" mask="url(#mask_17_6067)"/>
		<path id="Rectangle 1512" d="" fill="#979797" fill-opacity="0.000000" fill-rule="nonzero"/>
	</g>
	<g mask="url(#mask17_6064)">
		<mask id="mask_17_6073" fill="white">
			<path id="Rectangle 1513" d="M1.33333 6L0 8L1.33333 10L0 12L1.33333 14L0 16L1.33333 18L0 20L1.33333 22L2.66667 20L1.33333 18L2.66667 16L1.33333 14L2.66667 12L1.33333 10L2.66667 8L1.33333 6Z" clip-rule="evenodd" fill="" fill-opacity="1.000000" fill-rule="evenodd"/>
		</mask>
		<path id="Rectangle 1513" d="M1.33333 6L0 8L1.33333 10L0 12L1.33333 14L0 16L1.33333 18L0 20L1.33333 22L2.66667 20L1.33333 18L2.66667 16L1.33333 14L2.66667 12L1.33333 10L2.66667 8L1.33333 6Z" clip-rule="evenodd" fill="#E54252" fill-opacity="1.000000" fill-rule="evenodd" mask="url(#mask_17_6073)"/>
		<path id="Rectangle 1513" d="" fill="#979797" fill-opacity="0.000000" fill-rule="nonzero"/>
	</g>
	<g mask="url(#mask17_6064)">
		<mask id="mask_17_6078" fill="white">
			<path id="Rectangle 1513" d="M2.66669 6L4.00002 4L5.33336 6L4.00002 8L2.66669 6ZM4.00002 12L2.66669 10L4.00002 8L5.33336 10L4.00002 12ZM4.00002 16L2.66669 14L4.00002 12L5.33336 14L4.00002 16ZM4.00002 20L5.33336 18L4.00002 16L2.66669 18L4.00002 20ZM4.00002 20L5.33336 22L4.00002 24L2.66669 22L4.00002 20Z" clip-rule="evenodd" fill="" fill-opacity="1.000000" fill-rule="evenodd"/>
		</mask>
		<path id="Rectangle 1513" d="M2.66669 6L4.00002 4L5.33336 6L4.00002 8L2.66669 6ZM4.00002 12L2.66669 10L4.00002 8L5.33336 10L4.00002 12ZM4.00002 16L2.66669 14L4.00002 12L5.33336 14L4.00002 16ZM4.00002 20L5.33336 18L4.00002 16L2.66669 18L4.00002 20ZM4.00002 20L5.33336 22L4.00002 24L2.66669 22L4.00002 20Z" clip-rule="evenodd" fill="#E54252" fill-opacity="1.000000" fill-rule="evenodd" mask="url(#mask_17_6078)"/>
		<path id="Rectangle 1513" d="" fill="#979797" fill-opacity="0.000000" fill-rule="nonzero"/>
	</g>
</svg>
