<svg viewBox="0 0 29.8022 28" xmlns="http://www.w3.org/2000/svg" xmlns:xlink="http://www.w3.org/1999/xlink" width="29.802170" height="28.000000" fill="none" customFrame="#000000">
	<mask id="mask_221" width="5.333333" height="6.666667" x="19.135483" y="10.666687" maskUnits="userSpaceOnUse">
		<g filter="url(#pixso_custom_mask_type_alpha)">
			<path id="Mask" d="M19.1355 14C19.1355 12 19.1355 10.6667 19.1355 10.6667L21.8021 10.6667L24.4688 10.6667C24.4688 10.6667 24.4688 12 24.4688 14C24.4688 16 21.8021 17.3334 21.8021 17.3334C21.8021 17.3334 19.1355 16 19.1355 14Z" fill="rgb(255,255,255)" fill-rule="evenodd" />
			<path id="Mask" d="M19.1355 10.6667L21.8021 10.6667L24.4688 10.6667C24.4688 10.6667 24.4688 12 24.4688 14C24.4688 16 21.8021 17.3334 21.8021 17.3334C21.8021 17.3334 19.1355 16 19.1355 14C19.1355 12 19.1355 10.6667 19.1355 10.6667Z" fill-rule="evenodd" stroke="rgb(150.96,150.96,150.96)" stroke-opacity="0" stroke-width="0.000000" />
		</g>
	</mask>
	<defs>
		<filter id="pixso_custom_mask_type_alpha">
			<feColorMatrix type="matrix" values="0 0 0 0 1 0 0 0 0 1 0 0 0 0 1 0 0 0 1 0 " />
		</filter>
		<linearGradient id="paint_linear_72" x1="19.8021698" x2="19.8021698" y1="12" y2="14.666667" gradientUnits="userSpaceOnUse">
			<stop stop-color="rgb(225.802,10.874,11.8878)" offset="0" stop-opacity="1" />
			<stop stop-color="rgb(212,0,1)" offset="1" stop-opacity="1" />
		</linearGradient>
		<linearGradient id="paint_linear_73" x1="1.8021698" x2="1.8021698" y1="4" y2="13.333333" gradientUnits="userSpaceOnUse">
			<stop stop-color="rgb(219,30,54)" offset="0" stop-opacity="1" />
			<stop stop-color="rgb(213,25,49)" offset="1" stop-opacity="1" />
		</linearGradient>
	</defs>
	<mask id="mask_220" width="28.000000" height="20.000000" x="1.802170" y="4.000000" maskUnits="userSpaceOnUse">
		<g filter="url(#pixso_custom_mask_type_alpha)">
			<rect id="Mask" width="28.000000" height="20.000000" x="1.802170" y="4.000000" rx="3.000000" fill="rgb(255,255,255)" />
			<rect id="Mask" width="28.000000" height="20.000000" x="1.802170" y="4.000000" rx="3.000000" stroke="rgb(150.96,150.96,150.96)" stroke-opacity="0" stroke-width="0.000000" />
		</g>
	</mask>
	<rect id="Bermuda" width="28.000000" height="28.000000" x="1.802170" y="0.000000" fill="rgb(255,255,255)" fill-opacity="0" />
	<rect id="Mask" width="28.000000" height="20.000000" x="1.802170" y="4.000000" rx="3.000000" fill="rgb(255,255,255)" />
	<rect id="Mask" width="28.000000" height="20.000000" x="1.802170" y="4.000000" rx="3.000000" stroke="rgb(150.96,150.96,150.96)" stroke-opacity="0" stroke-width="0.000000" />
	<g mask="url(#mask_220)">
		<rect id="Mask Copy" width="28.000000" height="20.000000" x="1.802170" y="4.000000" fill="rgb(220,31,55)" />
		<rect id="Mask Copy" width="28.000000" height="20.000000" x="1.802170" y="4.000000" stroke="rgb(150.96,150.96,150.96)" stroke-opacity="0" stroke-width="0.000000" />
		<rect id="Rectangle 1115" width="12.000000" height="9.333333" x="1.802170" y="4.000000" fill="rgb(4,44,144)" />
		<rect id="Rectangle 1115" width="12.000000" height="9.333333" x="1.802170" y="4.000000" stroke="rgb(150.96,150.96,150.96)" stroke-opacity="0" stroke-width="0.000000" />
		<g id="Rectangle 1105">
			<path id="Mask" d="M19.1355 14C19.1355 12 19.1355 10.6667 19.1355 10.6667L21.8021 10.6667L24.4688 10.6667C24.4688 10.6667 24.4688 12 24.4688 14C24.4688 16 21.8021 17.3334 21.8021 17.3334C21.8021 17.3334 19.1355 16 19.1355 14Z" fill="rgb(255,255,255)" fill-rule="evenodd" />
			<path id="Mask" d="M19.1355 10.6667L21.8021 10.6667L24.4688 10.6667C24.4688 10.6667 24.4688 12 24.4688 14C24.4688 16 21.8021 17.3334 21.8021 17.3334C21.8021 17.3334 19.1355 16 19.1355 14C19.1355 12 19.1355 10.6667 19.1355 10.6667Z" fill-rule="evenodd" stroke="rgb(150.96,150.96,150.96)" stroke-opacity="0" stroke-width="0.000000" />
			<g mask="url(#mask_221)">
				<path id="Oval 173" d="M21.8022 16C22.5386 16 23.1355 15.4031 23.1355 14.6667C23.1355 13.9303 22.5386 13.3334 21.8022 13.3334C21.0658 13.3334 20.4689 13.9303 20.4689 14.6667C20.4689 15.4031 21.0658 16 21.8022 16Z" fill="rgb(101,181,210)" fill-rule="evenodd" />
				<path id="Oval 173" d="M23.1355 14.6667C23.1355 13.9303 22.5386 13.3334 21.8022 13.3334C21.0658 13.3334 20.4689 13.9303 20.4689 14.6667C20.4689 15.4031 21.0658 16 21.8022 16C22.5386 16 23.1355 15.4031 23.1355 14.6667Z" fill-rule="evenodd" stroke="rgb(150.96,150.96,150.96)" stroke-opacity="0" stroke-width="0.000000" />
				<path id="Oval 174" d="M21.8022 13.3333C22.1704 13.3333 22.4688 13.0349 22.4688 12.6667C22.4688 12.2985 22.1704 12 21.8022 12C21.434 12 21.1355 12.2985 21.1355 12.6667C21.1355 13.0349 21.434 13.3333 21.8022 13.3333ZM20.4688 14.6667C20.837 14.6667 21.1355 14.3682 21.1355 14C21.1355 13.6318 20.837 13.3333 20.4688 13.3333C20.1006 13.3333 19.8022 13.6318 19.8022 14C19.8022 14.3682 20.1006 14.6667 20.4688 14.6667ZM23.8022 14C23.8022 14.3682 23.5037 14.6667 23.1355 14.6667C22.7673 14.6667 22.4688 14.3682 22.4688 14C22.4688 13.6318 22.7673 13.3333 23.1355 13.3333C23.5037 13.3333 23.8022 13.6318 23.8022 14Z" fill="url(#paint_linear_72)" fill-rule="evenodd" />
				<path id="Oval 174" d="M21.8022 13.3333C22.1704 13.3333 22.4688 13.0349 22.4688 12.6667C22.4688 12.2985 22.1704 12 21.8022 12C21.434 12 21.1355 12.2985 21.1355 12.6667C21.1355 13.0349 21.434 13.3333 21.8022 13.3333ZM20.4688 14.6667C20.837 14.6667 21.1355 14.3682 21.1355 14C21.1355 13.6318 20.837 13.3333 20.4688 13.3333C20.1006 13.3333 19.8022 13.6318 19.8022 14C19.8022 14.3682 20.1006 14.6667 20.4688 14.6667ZM23.8022 14C23.8022 14.3682 23.5037 14.6667 23.1355 14.6667C22.7673 14.6667 22.4688 14.3682 22.4688 14C22.4688 13.6318 22.7673 13.3333 23.1355 13.3333C23.5037 13.3333 23.8022 13.6318 23.8022 14Z" fill-rule="evenodd" stroke="rgb(150.96,150.96,150.96)" stroke-opacity="0" stroke-width="0.000000" />
				<rect id="Rectangle 1106" width="5.333333" height="1.333333" x="19.135483" y="16.000000" fill="rgb(47,143,34)" />
				<rect id="Rectangle 1106" width="5.333333" height="1.333333" x="19.135483" y="16.000000" stroke="rgb(150.96,150.96,150.96)" stroke-opacity="0" stroke-width="0.000000" />
			</g>
		</g>
		<path id="Rectangle 36" d="M6.46884 8L1.80217 4L2.46884 4L7.1355 7.33333L8.46884 7.33333L13.8022 4L13.8022 4.49513C13.8022 4.60278 13.7502 4.7038 13.6626 4.76637L9.1355 8L9.1355 9.33333L13.3496 12.9455C13.5051 13.0787 13.4109 13.3333 13.2062 13.3333L13.2062 13.3333C13.1602 13.3333 13.1154 13.319 13.078 13.2923L8.46884 10L7.1355 10L1.80217 13.3333L1.80217 12.6667L6.46884 9.33333L6.46884 8Z" fill="rgb(219,30,54)" fill-rule="evenodd" />
		<path id="Rectangle 36" d="M2.68248 3.33333L-1.78814e-06 3.33333L5.80217 8.30662L5.80217 8.99026L1.1355 12.3236L1.1355 14.5362L7.3267 10.6667L8.25519 10.6667L12.6905 13.8348C12.7676 13.8898 12.8492 13.9311 12.9351 13.9587C13.021 13.9862 13.1114 14 13.2062 14C13.3096 14 13.4074 13.9839 13.4996 13.9518C13.5817 13.9232 13.6593 13.882 13.7325 13.828C13.8007 13.7777 13.8596 13.7203 13.9093 13.6558C13.9631 13.5858 14.0061 13.5074 14.0382 13.4206C14.0703 13.3339 14.0887 13.2464 14.0933 13.1582C14.0976 13.0769 14.0902 12.995 14.0712 12.9125C14.0508 12.8238 14.0187 12.742 13.975 12.6669C13.9259 12.5824 13.862 12.5066 13.7835 12.4393L9.80217 9.02671L9.80217 8.34308L14.0501 5.30886C14.1158 5.26194 14.1743 5.2088 14.2256 5.14944C14.2769 5.09008 14.3211 5.0245 14.358 4.95271C14.395 4.88091 14.4227 4.80688 14.4411 4.7306C14.4596 4.65435 14.4688 4.57586 14.4688 4.49513L14.4688 2.79717L8.27764 6.66667L7.34915 6.66667L2.68248 3.33333ZM7.1355 7.33333L4.6152 5.53312L2.46884 4L1.80217 4L2.21567 4.35443L2.46884 4.57143L4.20372 6.05847L6.46884 8L6.46884 9.33333L1.80217 12.6667L1.80217 13.3333L2.13139 13.1276L2.46884 12.9167L3.51132 12.2651L7.1355 10L8.46884 10L10.9891 11.8002L12.7622 13.0667L13.078 13.2923C13.1154 13.319 13.1602 13.3333 13.2062 13.3333C13.4109 13.3333 13.5051 13.0787 13.3496 12.9455L13.0551 12.693L11.4006 11.2749L9.1355 9.33333L9.1355 8L12.4638 5.62265L13.6626 4.76637C13.7502 4.7038 13.8022 4.60278 13.8022 4.49513L13.8022 4L13.1449 4.41077L13.1355 4.41667L12.093 5.06822L8.46884 7.33333L7.1355 7.33333Z" fill="rgb(255,255,255)" fill-rule="evenodd" />
		<path id="Rectangle 2" d="M1.80217 7.33333L1.80217 10L6.46884 10L6.46884 13.3333C6.46884 13.7015 6.76731 14 7.1355 14L8.46884 14C8.83703 14 9.1355 13.7015 9.1355 13.3333L9.1355 10L13.8022 10C14.1704 10 14.4688 9.70152 14.4688 9.33333L14.4688 8C14.4688 7.63181 14.1704 7.33333 13.8022 7.33333L9.1355 7.33333L9.1355 4L6.46884 4L6.46884 7.33333L1.80217 7.33333Z" fill="rgb(255,255,255)" fill-rule="evenodd" />
		<path id="Rectangle 2" d="M1.80217 10L6.46884 10L6.46884 13.3333C6.46884 13.7015 6.76731 14 7.1355 14L8.46884 14C8.83703 14 9.1355 13.7015 9.1355 13.3333L9.1355 10L13.8022 10C14.1704 10 14.4688 9.70152 14.4688 9.33333L14.4688 8C14.4688 7.63181 14.1704 7.33333 13.8022 7.33333L9.1355 7.33333L9.1355 4L6.46884 4L6.46884 7.33333L1.80217 7.33333L1.80217 10Z" fill-rule="evenodd" stroke="rgb(150.96,150.96,150.96)" stroke-opacity="0" stroke-width="0.000000" />
		<path id="Rectangle 36" d="M1.80217 8L7.1355 8L7.1355 7.33333L7.1355 4L8.46884 4L8.46884 7.33333L8.46884 8L13.8022 8L13.8022 9.33333L8.46884 9.33333L8.46884 10L8.46884 13.3333L7.1355 13.3333L7.1355 10L7.1355 9.33333L1.80217 9.33333L1.80217 8Z" fill="url(#paint_linear_73)" fill-rule="evenodd" />
		<path id="Rectangle 36" d="M7.1355 8L7.1355 7.33333L7.1355 4L8.46884 4L8.46884 7.33333L8.46884 8L13.8022 8L13.8022 9.33333L8.46884 9.33333L8.46884 10L8.46884 13.3333L7.1355 13.3333L7.1355 10L7.1355 9.33333L1.80217 9.33333L1.80217 8L7.1355 8Z" fill-rule="evenodd" stroke="rgb(150.96,150.96,150.96)" stroke-opacity="0" stroke-width="0.000000" />
	</g>
</svg>
