<svg viewBox="0 0 28 28" xmlns="http://www.w3.org/2000/svg" xmlns:xlink="http://www.w3.org/1999/xlink" width="28.000000" height="28.000000" fill="none">
	<rect id="Bonaire" width="28.000000" height="28.000000" x="0.000000" y="0.000000" fill="rgb(255,255,255)" fill-opacity="0" transform="matrix(-1,-6.12324e-17,6.12324e-17,-1,28,28)" />
	<path id="Vector" d="M23.3333 0L0 0L0 23.3333L23.3333 23.3333L23.3333 0Z" opacity="0" fill="rgb(96,96,96)" fill-rule="evenodd" transform="matrix(-1,-6.12324e-17,6.12324e-17,-1,25.6666,25.6667)" />
	<rect id="Mask Copy" width="28.000000" height="20.000000" x="0.000000" y="4.000000" rx="3.000000" fill="rgb(255,255,255)" />
	<rect id="Mask Copy" width="27.500000" height="19.500000" x="0.250000" y="4.250000" rx="2.750000" stroke="rgb(214,216,221)" stroke-width="0.5" />
	<path id="Subtract" d="M26.9235 0.697717C26.4028 0.262163 25.732 0 25 0L3 0C1.34315 0 0 1.34315 0 3L0 17C0 17.8566 0.359046 18.6294 0.934859 19.1761L26.9235 0.697717Z" fill="rgb(0,48,135)" fill-rule="evenodd" transform="matrix(-1,-6.12324e-17,6.12324e-17,-1,28,24)" />
	<path id="Subtract" d="M26.9235 0.697717C26.4028 0.262163 25.732 0 25 0L3 0C1.34315 0 0 1.34315 0 3L0 17C0 17.8566 0.359046 18.6294 0.934859 19.1761L26.9235 0.697717ZM25.8675 0.654457Q25.9495 0.684821 26.0286 0.720491L1.00744 18.511Q0.969527 18.4611 0.934244 18.4095L0.934212 18.4095Q0.803835 18.2187 0.709362 18.0034C0.569787 17.6853 0.5 17.3508 0.5 17L0.5 3Q0.5 2.71276 0.562511 2.43984L0.562514 2.43982Q0.610765 2.22917 0.696257 2.02704Q0.784096 1.81937 0.905488 1.63362L0.905489 1.63362L0.90549 1.63362Q1.04629 1.41817 1.23223 1.23223Q1.41817 1.0463 1.63361 0.905498L1.63361 0.905494Q1.81936 0.784098 2.02704 0.696257Q2.22917 0.610765 2.43982 0.562514L2.43984 0.562511Q2.71276 0.5 3 0.5L25 0.5C25.3 0.5 25.5892 0.551486 25.8675 0.654457Z" fill="rgb(245,245,245)" fill-opacity="0" fill-rule="evenodd" transform="matrix(-1,-6.12324e-17,6.12324e-17,-1,28,24)" />
	<path id="Subtract" d="M0 8.14725L8.45861 8.14725C10.1155 8.14725 11.4586 6.80411 11.4586 5.14725L11.4586 0L0 8.14725Z" fill="rgb(255,215,0)" fill-rule="evenodd" transform="matrix(-1,-6.12324e-17,6.12324e-17,-1,11.4586,12.1472)" />
	<path id="Subtract" d="M0 8.14725L8.45861 8.14725C10.1155 8.14725 11.4586 6.80411 11.4586 5.14725L11.4586 0L0 8.14725ZM8.45861 7.64725L1.56607 7.64725L10.9586 0.969011L10.9586 5.14725Q10.9586 5.43447 10.8961 5.70737L10.8961 5.70749Q10.8478 5.91812 10.7624 6.12021C10.6359 6.41925 10.4572 6.68418 10.2264 6.91502C9.99554 7.14585 9.73061 7.32451 9.43157 7.45099C9.12224 7.58183 8.79792 7.64725 8.45861 7.64725Z" fill="rgb(245,245,245)" fill-opacity="0" fill-rule="evenodd" transform="matrix(-1,-6.12324e-17,6.12324e-17,-1,11.4586,12.1472)" />
	<circle id="Ellipse 2890" cx="7.65053272" cy="12.6438189" r="3.8081255" fill="rgb(217,217,217)" fill-opacity="0" />
	<circle id="Ellipse 2890" cx="7.65053272" cy="12.6438189" r="3.45812559" stroke="rgb(0,0,0)" stroke-width="0.699999988" />
	<path id="Union" d="M8.31171 11.5156L7.65044 10.3651L6.98918 11.5156L5.69217 11.5156L6.34067 12.6438L5.69214 13.7722L6.98921 13.7722L7.65047 14.9226L8.31174 13.7722L9.60875 13.7722L8.96024 12.6439L9.60878 11.5156L8.31171 11.5156Z" fill="rgb(213,0,50)" fill-rule="evenodd" />
</svg>
