<svg width="28.000000" height="28.000000" viewBox="0 0 28 28" fill="none" xmlns="http://www.w3.org/2000/svg" xmlns:xlink="http://www.w3.org/1999/xlink">
	<desc>
			Created with Pixso.
	</desc>
	<defs>
		<filter id="filter_17_6048_dd" x="8.666626" y="4.000000" width="14.000000" height="20.000000" filterUnits="userSpaceOnUse" color-interpolation-filters="sRGB">
			<feFlood flood-opacity="0" result="BackgroundImageFix"/>
			<feColorMatrix in="SourceAlpha" type="matrix" values="0 0 0 0 0 0 0 0 0 0 0 0 0 0 0 0 0 0 127 0" result="hardAlpha"/>
			<feOffset dx="0" dy="0"/>
			<feGaussianBlur stdDeviation="0"/>
			<feComposite in2="hardAlpha" operator="out" k2="-1" k3="1"/>
			<feColorMatrix type="matrix" values="0 0 0 0 0 0 0 0 0 0 0 0 0 0 0 0 0 0 0.059 0"/>
			<feBlend mode="normal" in2="BackgroundImageFix" result="effect_dropShadow_1"/>
			<feBlend mode="normal" in="SourceGraphic" in2="effect_dropShadow_1" result="shape"/>
		</filter>
	</defs>
	<rect id="Bosnia and Herzegovina" width="28.000000" height="28.000000" fill="#FFFFFF" fill-opacity="0"/>
	<rect id="Mask" y="4.000000" rx="3.000000" width="28.000000" height="20.000000" fill="#FFFFFF" fill-opacity="1.000000"/>
	<rect id="Mask" y="4.000000" rx="3.000000" width="28.000000" height="20.000000" stroke="#979797" stroke-opacity="0" stroke-width="0.000000"/>
	<mask id="mask17_6046" mask-type="alpha" maskUnits="userSpaceOnUse" x="0.000000" y="4.000000" width="28.000000" height="20.000000">
		<rect id="Mask" y="4.000000" rx="3.000000" width="28.000000" height="20.000000" fill="#FFFFFF" fill-opacity="1.000000"/>
		<rect id="Mask" y="4.000000" rx="3.000000" width="28.000000" height="20.000000" stroke="#979797" stroke-opacity="0" stroke-width="0.000000"/>
	</mask>
	<g mask="url(#mask17_6046)">
		<rect id="Mask Copy" y="4.000000" width="28.000000" height="20.000000" fill="#0B36B2" fill-opacity="1.000000"/>
		<rect id="Mask Copy" y="4.000000" width="28.000000" height="20.000000" stroke="#979797" stroke-opacity="0" stroke-width="0.000000"/>
	</g>
	<g mask="url(#mask17_6046)">
		<g filter="url(#filter_17_6048_dd)">
			<path id="Rectangle 2" d="M22.66 24L22.66 4L8.66 4L22.66 24Z" fill="#FFD045" fill-opacity="1.000000" fill-rule="evenodd"/>
		</g>
		<path id="Rectangle 2" d="M22.66 4L8.66 4L22.66 24L22.66 4Z" stroke="#979797" stroke-opacity="0" stroke-width="0.000000"/>
	</g>
	<g mask="url(#mask17_6046)">
		<path id="Star 2" d="M17.33 22.66L16.39 22.94L16.66 22L16.39 21.05L17.33 21.33L18.27 21.05L18 22L18.27 22.94L17.33 22.66Z" fill="#FFFFFF" fill-opacity="1.000000" fill-rule="evenodd"/>
		<path id="Star 2" d="M16.39 22.94L16.66 22L16.39 21.05L17.33 21.33L18.27 21.05L18 22L18.27 22.94L17.33 22.66L16.39 22.94Z" stroke="#979797" stroke-opacity="0" stroke-width="0.000000"/>
	</g>
	<g mask="url(#mask17_6046)">
		<path id="Star 2" d="M14.66 18.66L13.72 18.94L14 18L13.72 17.05L14.66 17.33L15.6 17.05L15.33 18L15.6 18.94L14.66 18.66Z" fill="#FFFFFF" fill-opacity="1.000000" fill-rule="evenodd"/>
		<path id="Star 2" d="M13.72 18.94L14 18L13.72 17.05L14.66 17.33L15.6 17.05L15.33 18L15.6 18.94L14.66 18.66L13.72 18.94Z" stroke="#979797" stroke-opacity="0" stroke-width="0.000000"/>
	</g>
	<g mask="url(#mask17_6046)">
		<path id="Star 2" d="M12 14.66L11.05 14.94L11.33 14L11.05 13.05L12 13.33L12.94 13.05L12.66 14L12.94 14.94L12 14.66Z" fill="#FFFFFF" fill-opacity="1.000000" fill-rule="evenodd"/>
		<path id="Star 2" d="M11.05 14.94L11.33 14L11.05 13.05L12 13.33L12.94 13.05L12.66 14L12.94 14.94L12 14.66L11.05 14.94Z" stroke="#979797" stroke-opacity="0" stroke-width="0.000000"/>
	</g>
	<g mask="url(#mask17_6046)">
		<path id="Star 2" d="M9.33 10.66L8.39 10.94L8.66 10L8.39 9.05L9.33 9.33L10.27 9.05L10 10L10.27 10.94L9.33 10.66Z" fill="#FFFFFF" fill-opacity="1.000000" fill-rule="evenodd"/>
		<path id="Star 2" d="M8.39 10.94L8.66 10L8.39 9.05L9.33 9.33L10.27 9.05L10 10L10.27 10.94L9.33 10.66L8.39 10.94Z" stroke="#979797" stroke-opacity="0" stroke-width="0.000000"/>
	</g>
	<g mask="url(#mask17_6046)">
		<path id="Star 2" d="M6.66 6.66L5.72 6.94L6 6L5.72 5.05L6.66 5.33L7.6 5.05L7.33 6L7.6 6.94L6.66 6.66Z" fill="#FFFFFF" fill-opacity="1.000000" fill-rule="evenodd"/>
		<path id="Star 2" d="M5.72 6.94L6 6L5.72 5.05L6.66 5.33L7.6 5.05L7.33 6L7.6 6.94L6.66 6.66L5.72 6.94Z" stroke="#979797" stroke-opacity="0" stroke-width="0.000000"/>
	</g>
</svg>
