<svg width="28.000000" height="28.000000" viewBox="0 0 28 28" fill="none" xmlns="http://www.w3.org/2000/svg" xmlns:xlink="http://www.w3.org/1999/xlink">
	<desc>
			Created with Pixso.
	</desc>
	<defs/>
	<rect id="Bouvet Island" width="28.000000" height="28.000000" fill="#FFFFFF" fill-opacity="0"/>
	<rect id="Mask" y="4.000000" rx="3.000000" width="28.000000" height="20.000000" fill="#FFFFFF" fill-opacity="1.000000"/>
	<rect id="Mask" x="0.250000" y="4.250000" rx="3.000000" width="27.500000" height="19.500000" stroke="#D6D8DD" stroke-opacity="1.000000" stroke-width="0.500000"/>
	<mask id="mask107628_810" mask-type="alpha" maskUnits="userSpaceOnUse" x="0.000000" y="4.000000" width="28.000000" height="20.000000">
		<rect id="Mask" y="4.000000" rx="3.000000" width="28.000000" height="20.000000" fill="#FFFFFF" fill-opacity="1.000000"/>
		<rect id="Mask" x="0.250000" y="4.250000" rx="3.000000" width="27.500000" height="19.500000" stroke="#F5F5F5" stroke-opacity="1.000000" stroke-width="0.500000"/>
	</mask>
	<g mask="url(#mask107628_810)">
		<mask id="mask_107628_811" fill="white">
			<path id="Combined Shape" d="M8 4L0 4L0 12L8 12L8 4ZM12 4L12 12L28 12L28 4L12 4ZM28 16L12 16L12 24L28 24L28 16ZM8 24L8 16L0 16L0 24L8 24Z" clip-rule="evenodd" fill="" fill-opacity="1.000000" fill-rule="evenodd"/>
		</mask>
		<path id="Combined Shape" d="M8 4L0 4L0 12L8 12L8 4ZM12 4L12 12L28 12L28 4L12 4ZM28 16L12 16L12 24L28 24L28 16ZM8 24L8 16L0 16L0 24L8 24Z" clip-rule="evenodd" fill="#F14247" fill-opacity="1.000000" fill-rule="evenodd" mask="url(#mask_107628_811)"/>
		<path id="Combined Shape" d="" fill="#979797" fill-opacity="0.000000" fill-rule="nonzero"/>
	</g>
	<g mask="url(#mask107628_810)">
		<path id="Rectangle 2" d="M0 14.66L9.33 14.66L9.33 24L10.66 24L10.66 14.66L28 14.66L28 13.33L10.66 13.33L10.66 4L9.33 4L9.33 13.33L0 13.33L0 14.66Z" fill="#0A3A85" fill-opacity="1.000000" fill-rule="evenodd"/>
		<path id="Rectangle 2" d="M9.33 14.66L9.33 24L10.66 24L10.66 14.66L28 14.66L28 13.33L10.66 13.33L10.66 4L9.33 4L9.33 13.33L0 13.33L0 14.66L9.33 14.66Z" stroke="#979797" stroke-opacity="0" stroke-width="0.000000"/>
	</g>
</svg>
