<svg width="28.000000" height="28.000000" viewBox="0 0 28 28" fill="none" xmlns="http://www.w3.org/2000/svg" xmlns:xlink="http://www.w3.org/1999/xlink">
	<desc>
			Created with Pixso.
	</desc>
	<defs/>
	<rect id="Brazil" width="28.000000" height="28.000000" fill="#FFFFFF" fill-opacity="0"/>
	<rect id="Mask" y="4.000000" rx="3.000000" width="28.000000" height="20.000000" fill="#FFFFFF" fill-opacity="1.000000"/>
	<rect id="Mask" y="4.000000" rx="3.000000" width="28.000000" height="20.000000" stroke="#979797" stroke-opacity="0" stroke-width="0.000000"/>
	<mask id="mask17_6099" mask-type="alpha" maskUnits="userSpaceOnUse" x="0.000000" y="4.000000" width="28.000000" height="20.000000">
		<rect id="Mask" y="4.000000" rx="3.000000" width="28.000000" height="20.000000" fill="#FFFFFF" fill-opacity="1.000000"/>
		<rect id="Mask" y="4.000000" rx="3.000000" width="28.000000" height="20.000000" stroke="#979797" stroke-opacity="0" stroke-width="0.000000"/>
	</mask>
	<g mask="url(#mask17_6099)">
		<rect id="Mask Copy" y="4.000000" width="28.000000" height="20.000000" fill="#05AB41" fill-opacity="1.000000"/>
		<rect id="Mask Copy" y="4.000000" width="28.000000" height="20.000000" stroke="#979797" stroke-opacity="0" stroke-width="0.000000"/>
	</g>
	<g mask="url(#mask17_6099)">
		<path id="Rectangle 60" d="M3.53 14.55C3.12 14.29 3.12 13.7 3.53 13.44L13.63 6.9C13.85 6.75 14.14 6.75 14.36 6.9L24.46 13.44C24.87 13.7 24.87 14.29 24.46 14.55L14.36 21.09C14.14 21.24 13.85 21.24 13.63 21.09L3.53 14.55Z" fill="#FDD216" fill-opacity="1.000000" fill-rule="evenodd"/>
		<path id="Rectangle 60" d="M13.63 6.9C13.85 6.75 14.14 6.75 14.36 6.9L24.46 13.44C24.87 13.7 24.87 14.29 24.46 14.55L14.36 21.09C14.14 21.24 13.85 21.24 13.63 21.09L3.53 14.55C3.12 14.29 3.12 13.7 3.53 13.44L13.63 6.9Z" stroke="#979797" stroke-opacity="0" stroke-width="0.000000"/>
	</g>
	<g mask="url(#mask17_6099)">
		<path id="Mask" d="M14 18.66C16.57 18.66 18.66 16.57 18.66 14C18.66 11.42 16.57 9.33 14 9.33C11.42 9.33 9.33 11.42 9.33 14C9.33 16.57 11.42 18.66 14 18.66Z" fill="#053087" fill-opacity="1.000000" fill-rule="evenodd"/>
		<path id="Mask" d="M18.66 14C18.66 11.42 16.57 9.33 14 9.33C11.42 9.33 9.33 11.42 9.33 14C9.33 16.57 11.42 18.66 14 18.66C16.57 18.66 18.66 16.57 18.66 14Z" stroke="#979797" stroke-opacity="0" stroke-width="0.000000"/>
		<mask id="mask17_6104" mask-type="alpha" maskUnits="userSpaceOnUse" x="9.333313" y="9.333313" width="9.333336" height="9.333313">
			<path id="Mask" d="M14 18.66C16.57 18.66 18.66 16.57 18.66 14C18.66 11.42 16.57 9.33 14 9.33C11.42 9.33 9.33 11.42 9.33 14C9.33 16.57 11.42 18.66 14 18.66Z" fill="#053087" fill-opacity="1.000000" fill-rule="evenodd"/>
			<path id="Mask" d="M18.66 14C18.66 11.42 16.57 9.33 14 9.33C11.42 9.33 9.33 11.42 9.33 14C9.33 16.57 11.42 18.66 14 18.66C16.57 18.66 18.66 16.57 18.66 14Z" stroke="#979797" stroke-opacity="0" stroke-width="0.000000"/>
		</mask>
		<g mask="url(#mask17_6104)">
			<path id="Line" d="M9.21 13.28L8.68 13.71L7.84 12.68L8.37 12.24L9.21 13.28ZM19.68 15.44L20.11 15.98L19.08 16.82L18.64 16.28L19.68 15.44Z" fill="#D8D8D8" fill-opacity="0" fill-rule="nonzero"/>
			<path id="Line" d="M8.77 12.78C9.51 12.18 11.87 12.74 14.08 13.33C16.29 13.92 18.59 15.16 19.17 15.88" stroke="#FFFFFF" stroke-opacity="1.000000" stroke-width="1.333333" stroke-linecap="square"/>
		</g>
	</g>
</svg>
