<svg width="36.000000" height="28.000000" viewBox="0 0 36 28" fill="none" xmlns="http://www.w3.org/2000/svg" xmlns:xlink="http://www.w3.org/1999/xlink">
	<desc>
			Created with Pixso.
	</desc>
	<defs/>
	<rect id="British Indian Ocean Territory" width="28.000000" height="28.000000" transform="translate(1.000000 0.000000)" fill="#FFFFFF" fill-opacity="0"/>
	<path id="Mask" d="M1 21C1 22.65 2.34 24 4 24L26 24C27.65 24 29 22.65 29 21L29 7C29 5.34 27.65 4 26 4L4 4C2.34 4 1 5.34 1 7L1 21Z" fill="#FFFFFF" fill-opacity="1.000000" fill-rule="nonzero"/>
	<path id="Mask" d="M4 24C2.34 24 1 22.65 1 21L1 7C1 5.34 2.34 4 4 4L26 4C27.65 4 29 5.34 29 7L29 21C29 22.65 27.65 24 26 24L4 24ZM4 23.5L26 23.5Q26.28 23.5 26.56 23.43Q26.77 23.38 26.97 23.3Q27.18 23.21 27.36 23.09Q27.58 22.95 27.76 22.76Q27.95 22.58 28.09 22.36Q28.21 22.18 28.3 21.97Q28.38 21.77 28.43 21.56Q28.5 21.28 28.5 21L28.5 7Q28.5 6.71 28.43 6.43Q28.38 6.22 28.3 6.02Q28.21 5.81 28.09 5.63Q27.95 5.41 27.76 5.23Q27.58 5.04 27.36 4.9Q27.18 4.78 26.97 4.69Q26.77 4.61 26.56 4.56Q26.28 4.5 26 4.5L4 4.5Q3.71 4.5 3.43 4.56Q3.22 4.61 3.02 4.69Q2.81 4.78 2.63 4.9Q2.41 5.04 2.23 5.23Q2.04 5.41 1.9 5.63Q1.78 5.81 1.69 6.02Q1.61 6.22 1.56 6.43Q1.5 6.71 1.5 7L1.5 21Q1.5 21.28 1.56 21.56Q1.61 21.77 1.69 21.97Q1.78 22.18 1.9 22.36Q2.04 22.58 2.23 22.76Q2.41 22.95 2.63 23.09Q2.81 23.21 3.02 23.3Q3.22 23.38 3.43 23.43Q3.71 23.5 4 23.5Z" fill="#D6D8DD" fill-opacity="1.000000" fill-rule="evenodd"/>
	<mask id="mask107628_1766" mask-type="alpha" maskUnits="userSpaceOnUse" x="1.000000" y="4.000000" width="28.000000" height="20.000000">
		<path id="Mask" d="M4 24L26 24C27.65 24 29 22.65 29 21L29 7C29 5.34 27.65 4 26 4L4 4C2.34 4 1 5.34 1 7L1 21C1 22.65 2.34 24 4 24Z" fill="#FFFFFF" fill-opacity="1.000000" fill-rule="nonzero"/>
	</mask>
	<g mask="url(#mask107628_1766)">
		<path id="path16" d="M35.28 18.9C34.9 19.13 34.57 19.67 33.55 19.67C31.5 19.67 31 18.54 29.46 18.54C28.44 18.54 27.93 19.67 26.91 19.67C24.87 19.67 24.36 18.54 22.83 18.54C21.81 18.54 21.3 19.67 20.28 19.67C18.24 19.67 17.73 18.54 16.2 18.54C15.18 18.54 14.67 19.67 13.65 19.67C11.61 19.67 11.1 18.54 9.57 18.54C8.55 18.54 8.04 19.67 7.02 19.67C4.97 19.67 4.46 18.54 2.93 18.54C1.91 18.54 1.61 19.35 1 19.35L1 20.81C1.61 20.81 1.91 20 2.93 20C4.46 20 4.97 21.14 7.02 21.14C8.04 21.14 8.55 20 9.57 20C11.1 20 11.61 21.14 13.65 21.14C14.67 21.14 15.18 20 16.2 20C17.73 20 18.24 21.14 20.28 21.14C21.3 21.14 21.81 20 22.83 20C24.36 20 24.87 21.14 26.91 21.14C27.93 21.14 28.44 20 29.46 20C31 20 31.5 21.14 33.55 21.14C34.57 21.14 34.9 20.82 35.28 20.58L35.28 18.9Z" fill="#2A337A" fill-opacity="1.000000" fill-rule="evenodd"/>
	</g>
	<g mask="url(#mask107628_1766)">
		<path id="path18" d="M35.28 21.62C34.9 21.85 34.57 22.39 33.55 22.39C31.5 22.39 31 21.26 29.46 21.26C28.44 21.26 27.93 22.39 26.91 22.39C24.87 22.39 24.36 21.26 22.83 21.26C21.81 21.26 21.3 22.39 20.28 22.39C18.24 22.39 17.73 21.26 16.2 21.26C15.18 21.26 14.67 22.39 13.65 22.39C11.61 22.39 11.1 21.26 9.57 21.26C8.55 21.26 8.04 22.39 7.02 22.39C4.97 22.39 4.46 21.26 2.93 21.26C1.91 21.26 1.61 22.07 1 22.07L1 23.53C1.61 23.53 1.91 22.72 2.93 22.72C4.46 22.72 4.97 23.86 7.02 23.86C8.04 23.86 8.55 22.72 9.57 22.72C11.1 22.72 11.61 23.86 13.65 23.86C14.67 23.86 15.18 22.72 16.2 22.72C17.73 22.72 18.24 23.86 20.28 23.86C21.3 23.86 21.81 22.72 22.83 22.72C24.36 22.72 24.87 23.86 26.91 23.86C27.93 23.86 28.44 22.72 29.46 22.72C31 22.72 31.5 23.86 33.55 23.86C34.57 23.86 34.9 23.54 35.28 23.31L35.28 21.62Z" fill="#2A337A" fill-opacity="1.000000" fill-rule="evenodd"/>
	</g>
	<g mask="url(#mask107628_1766)">
		<path id="path20" d="M35.28 16.06C34.9 16.29 34.57 16.83 33.55 16.83C31.5 16.83 31 15.69 29.46 15.69C28.44 15.69 27.93 16.83 26.91 16.83C24.87 16.83 24.36 15.69 22.83 15.69C21.81 15.69 21.3 16.83 20.28 16.83C18.24 16.83 17.73 15.69 16.2 15.69C15.18 15.69 14.67 16.83 13.65 16.83C11.61 16.83 11.1 15.69 9.57 15.69C8.55 15.69 8.04 16.83 7.02 16.83C4.97 16.83 4.46 15.69 2.93 15.69C1.91 15.69 1.61 16.5 1 16.5L1 17.97C1.61 17.97 1.91 17.16 2.93 17.16C4.46 17.16 4.97 18.29 7.02 18.29C8.04 18.29 8.55 17.16 9.57 17.16C11.1 17.16 11.61 18.29 13.65 18.29C14.67 18.29 15.18 17.16 16.2 17.16C17.73 17.16 18.24 18.29 20.28 18.29C21.3 18.29 21.81 17.16 22.83 17.16C24.36 17.16 24.87 18.29 26.91 18.29C27.93 18.29 28.44 17.16 29.46 17.16C31 17.16 31.5 18.29 33.55 18.29C34.57 18.29 34.9 17.97 35.28 17.74L35.28 16.06Z" fill="#2A337A" fill-opacity="1.000000" fill-rule="evenodd"/>
	</g>
	<g mask="url(#mask107628_1766)">
		<path id="path22" d="M35.28 13.22C34.9 13.45 34.57 13.99 33.55 13.99C31.5 13.99 31 12.85 29.46 12.85C28.44 12.85 27.93 13.99 26.91 13.99C24.87 13.99 24.36 12.85 22.83 12.85C21.81 12.85 21.3 13.99 20.28 13.99C18.24 13.99 17.73 12.85 16.2 12.85C15.18 12.85 14.67 13.99 13.65 13.99C11.61 13.99 11.1 12.85 9.57 12.85C8.55 12.85 8.04 13.99 7.02 13.99C4.97 13.99 4.46 12.85 2.93 12.85C1.91 12.85 1.61 13.66 1 13.66L1 15.12C1.61 15.12 1.91 14.31 2.93 14.31C4.46 14.31 4.97 15.45 7.02 15.45C8.04 15.45 8.55 14.31 9.57 14.31C11.1 14.31 11.61 15.45 13.65 15.45C14.67 15.45 15.18 14.31 16.2 14.31C17.73 14.31 18.24 15.45 20.28 15.45C21.3 15.45 21.81 14.31 22.83 14.31C24.36 14.31 24.87 15.45 26.91 15.45C27.93 15.45 28.44 14.31 29.46 14.31C31 14.31 31.5 15.45 33.55 15.45C34.57 15.45 34.9 15.13 35.28 14.9L35.28 13.22Z" fill="#2A337A" fill-opacity="1.000000" fill-rule="evenodd"/>
	</g>
	<g mask="url(#mask107628_1766)">
		<path id="path26" d="M35.28 7.53C34.9 7.76 34.57 8.3 33.55 8.3C31.5 8.3 31 7.17 29.46 7.17C28.44 7.17 27.93 8.3 26.91 8.3C24.87 8.3 24.36 7.17 22.83 7.17C21.81 7.17 21.3 8.3 20.28 8.3C18.24 8.3 17.73 7.17 16.2 7.17C15.18 7.17 14.67 8.3 13.65 8.3C11.61 8.3 11.1 7.17 9.57 7.17C8.55 7.17 8.04 8.3 7.02 8.3C4.97 8.3 4.46 7.17 2.93 7.17C1.91 7.17 1.61 7.97 1 7.97L1 9.44C1.61 9.44 1.91 8.63 2.93 8.63C4.46 8.63 4.97 9.77 7.02 9.77C8.04 9.77 8.55 8.63 9.57 8.63C11.1 8.63 11.61 9.77 13.65 9.77C14.67 9.77 15.18 8.63 16.2 8.63C17.73 8.63 18.24 9.77 20.28 9.77C21.3 9.77 21.81 8.63 22.83 8.63C24.36 8.63 24.87 9.77 26.91 9.77C27.93 9.77 28.44 8.63 29.46 8.63C31 8.63 31.5 9.77 33.55 9.77C34.57 9.77 34.9 9.44 35.28 9.21L35.28 7.53Z" fill="#2A337A" fill-opacity="1.000000" fill-rule="evenodd"/>
	</g>
	<g mask="url(#mask107628_1766)">
		<path id="path26" d="M35.28 10.53C34.9 10.76 34.57 11.3 33.55 11.3C31.5 11.3 31 10.17 29.46 10.17C28.44 10.17 27.93 11.3 26.91 11.3C24.87 11.3 24.36 10.17 22.83 10.17C21.81 10.17 21.3 11.3 20.28 11.3C18.24 11.3 17.73 10.17 16.2 10.17C15.18 10.17 14.67 11.3 13.65 11.3C11.61 11.3 11.1 10.17 9.57 10.17C8.55 10.17 8.04 11.3 7.02 11.3C4.97 11.3 4.46 10.17 2.93 10.17C1.91 10.17 1.61 10.97 1 10.97L1 12.44C1.61 12.44 1.91 11.63 2.93 11.63C4.46 11.63 4.97 12.77 7.02 12.77C8.04 12.77 8.55 11.63 9.57 11.63C11.1 11.63 11.61 12.77 13.65 12.77C14.67 12.77 15.18 11.63 16.2 11.63C17.73 11.63 18.24 12.77 20.28 12.77C21.3 12.77 21.81 11.63 22.83 11.63C24.36 11.63 24.87 12.77 26.91 12.77C27.93 12.77 28.44 11.63 29.46 11.63C31 11.63 31.5 12.77 33.55 12.77C34.57 12.77 34.9 12.44 35.28 12.21L35.28 10.53Z" fill="#2A337A" fill-opacity="1.000000" fill-rule="evenodd"/>
	</g>
	<g mask="url(#mask107628_1766)">
		<path id="path28" d="M35.28 4.69C34.9 4.92 34.57 5.46 33.55 5.46C31.5 5.46 31 4.32 29.46 4.32C28.44 4.32 27.93 5.46 26.91 5.46C24.87 5.46 24.36 4.32 22.83 4.32C21.81 4.32 21.3 5.46 20.28 5.46C18.24 5.46 17.73 4.32 16.2 4.32C15.18 4.32 14.67 5.46 13.65 5.46C11.61 5.46 11.1 4.32 9.57 4.32C8.55 4.32 8.04 5.46 7.02 5.46C4.97 5.46 4.46 4.32 2.93 4.32C1.91 4.32 1.61 5.13 1 5.13L1 6.6C1.61 6.6 1.91 5.79 2.93 5.79C4.46 5.79 4.97 6.92 7.02 6.92C8.04 6.92 8.55 5.79 9.57 5.79C11.1 5.79 11.61 6.92 13.65 6.92C14.67 6.92 15.18 5.79 16.2 5.79C17.73 5.79 18.24 6.92 20.28 6.92C21.3 6.92 21.81 5.79 22.83 5.79C24.36 5.79 24.87 6.92 26.91 6.92C27.93 6.92 28.44 5.79 29.46 5.79C31 5.79 31.5 6.92 33.55 6.92C34.57 6.92 34.9 6.6 35.28 6.37L35.28 4.69Z" fill="#2A337A" fill-opacity="1.000000" fill-rule="evenodd"/>
	</g>
	<g mask="url(#mask107628_1766)">
		<rect id="Rectangle 2335" x="23.557007" y="10.772705" width="1.045455" height="10.227273" fill="#951D24" fill-opacity="1.000000"/>
		<path id="Subtract" d="M24.5569 10.8105L26.3401 9L21.7738 9L23.5197 10.7727L24.5569 10.7727L24.5569 10.8105Z" clip-rule="evenodd" fill="#7AA351" fill-opacity="1.000000" fill-rule="evenodd"/>
		<path id="Vector 45" d="M21.53 18.65L26.55 18.65L26.55 17.77C27.68 16.68 26.78 14.22 24.59 15.5L24.59 14.61L25.09 14.61L25.09 13.61L24.59 13.61L24.59 13.13L23.55 13.13L23.55 13.61L23.05 13.61L23.05 14.61L23.55 14.61L23.55 15.5C22.39 14.47 19.91 15.72 21.53 17.77L21.53 18.65Z" fill="#FADA61" fill-opacity="1.000000" fill-rule="evenodd"/>
		<path id="Vector 46" d="M22.5 17.65L25.57 17.65L25.57 17.29L25.98 16.88C26.28 16.54 25.78 15.88 25.34 16.2L24.59 16.88L23.55 16.88L22.75 16.2C22.46 16.06 21.87 16.2 22.07 16.88L22.5 17.29L22.5 17.65Z" fill="#C72A31" fill-opacity="1.000000" fill-rule="evenodd"/>
	</g>
	<g mask="url(#mask107628_1766)">
		<rect id="Frame 881231804" width="12.666667" height="10.000000" transform="translate(1.000000 4.000000)" fill="#2A337A" fill-opacity="1.000000"/>
		<path id="Rectangle 37" d="M5.66 8L1 4L1.66 4L6.33 7.33L7.66 7.33L13 4L13 4.49C13 4.6 12.94 4.7 12.86 4.76L8.33 8L8.33 9.33L12.54 12.94C12.7 13.07 12.6 13.33 12.4 13.33L12.4 13.33C12.35 13.33 12.31 13.31 12.27 13.29L7.66 10L6.33 10L1 13.33L1 12.66L5.66 9.33L5.66 8Z" fill="#DB1E36" fill-opacity="1.000000" fill-rule="evenodd"/>
		<path id="Rectangle 37" d="M1.88 3.33L-0.81 3.33L5 8.3L5 8.99L0.33 12.32L0.33 14.53L6.52 10.66L7.45 10.66L11.88 13.83Q12 13.91 12.13 13.95Q12.26 14 12.4 14Q12.55 14 12.69 13.95Q12.82 13.9 12.93 13.82Q13.03 13.75 13.1 13.65Q13.18 13.55 13.23 13.42Q13.28 13.29 13.29 13.15Q13.29 13.03 13.26 12.91Q13.23 12.77 13.17 12.66Q13.09 12.54 12.98 12.43L9 9.02L9 8.34L13.24 5.3Q13.34 5.23 13.42 5.14Q13.5 5.06 13.55 4.95Q13.61 4.84 13.63 4.73Q13.66 4.61 13.66 4.49L13.66 2.79L7.47 6.66L6.54 6.66L1.88 3.33ZM6.33 7.33L3.81 5.53L1.66 4L1 4L1.41 4.35L1.66 4.57L3.4 6.05L5.66 8L5.66 9.33L1 12.66L1 13.33L1.32 13.12L1.66 12.91L2.7 12.26L6.33 10L7.66 10L10.18 11.8L11.96 13.06L12.27 13.29C12.31 13.31 12.35 13.33 12.4 13.33C12.6 13.33 12.7 13.07 12.54 12.94L12.25 12.69L10.59 11.27L8.33 9.33L8.33 8L11.66 5.62L12.86 4.76C12.94 4.7 13 4.6 13 4.49L13 4L12.34 4.41L12.33 4.41L11.29 5.06L7.66 7.33L6.33 7.33Z" fill="#FFFFFF" fill-opacity="1.000000" fill-rule="evenodd"/>
		<path id="Rectangle 2" d="M1 7.33L1 10L5.66 10L5.66 13.33C5.66 13.7 5.96 14 6.33 14L7.66 14C8.03 14 8.33 13.7 8.33 13.33L8.33 10L13 10C13.36 10 13.66 9.7 13.66 9.33L13.66 8C13.66 7.63 13.36 7.33 13 7.33L8.33 7.33L8.33 4L5.66 4L5.66 7.33L1 7.33Z" fill="#FFFFFF" fill-opacity="1.000000" fill-rule="evenodd"/>
		<path id="Rectangle 2" d="M1 10L5.66 10L5.66 13.33C5.66 13.7 5.96 14 6.33 14L7.66 14C8.03 14 8.33 13.7 8.33 13.33L8.33 10L13 10C13.36 10 13.66 9.7 13.66 9.33L13.66 8C13.66 7.63 13.36 7.33 13 7.33L8.33 7.33L8.33 4L5.66 4L5.66 7.33L1 7.33L1 10Z" stroke="#979797" stroke-opacity="0" stroke-width="0.000000"/>
		<path id="Rectangle 36" d="M1 8L6.33 8L6.33 7.33L6.33 4L7.66 4L7.66 7.33L7.66 8L13 8L13 9.33L7.66 9.33L7.66 10L7.66 13.33L6.33 13.33L6.33 10L6.33 9.33L1 9.33L1 8Z" fill="#DB1E36" fill-opacity="1.000000" fill-rule="evenodd"/>
		<path id="Rectangle 36" d="M6.33 8L6.33 7.33L6.33 4L7.66 4L7.66 7.33L7.66 8L13 8L13 9.33L7.66 9.33L7.66 10L7.66 13.33L6.33 13.33L6.33 10L6.33 9.33L1 9.33L1 8L6.33 8Z" stroke="#979797" stroke-opacity="0" stroke-width="0.000000"/>
	</g>
</svg>
