<svg viewBox="0 0 36.0869 28" xmlns="http://www.w3.org/2000/svg" xmlns:xlink="http://www.w3.org/1999/xlink" width="36.086914" height="28.000000" fill="none" customFrame="#000000">
	<defs>
		<filter id="pixso_custom_mask_type_alpha">
			<feColorMatrix type="matrix" values="0 0 0 0 1 0 0 0 0 1 0 0 0 0 1 0 0 0 1 0 " />
		</filter>
		<clipPath id="clipPath_7">
			<rect width="12.666667" height="10.000000" x="1.802185" y="4.000000" fill="rgb(255,255,255)" />
		</clipPath>
	</defs>
	<mask id="mask_268" width="28.000000" height="20.000000" x="0.000000" y="0.000000" maskUnits="objectBoundingBox">
		<g filter="url(#pixso_custom_mask_type_alpha)">
			<path id="Mask" d="M3 0L25 0C26.6569 0 28 1.34315 28 3L28 17C28 18.6569 26.6569 20 25 20L3 20C1.34315 20 0 18.6569 0 17L0 3C0 1.34315 1.34315 0 3 0Z" fill="rgb(255,255,255)" fill-rule="nonzero" transform="matrix(1,0,0,-1,1.80219,24)" />
		</g>
	</mask>
	<rect id="British Indian Ocean Territory" width="28.000000" height="28.000000" x="1.802185" y="0.000000" fill="rgb(255,255,255)" fill-opacity="0" />
	<path id="Mask" d="M0 3C0 1.34315 1.34315 0 3 0L25 0C26.6569 0 28 1.34315 28 3L28 17C28 18.6569 26.6569 20 25 20L3 20C1.34315 20 0 18.6569 0 17L0 3Z" fill="rgb(255,255,255)" fill-rule="nonzero" transform="matrix(1,0,0,-1,1.80219,24)" />
	<path id="Mask" d="M3 0C1.34315 0 0 1.34315 0 3L0 17C0 18.6569 1.34315 20 3 20L25 20C26.6569 20 28 18.6569 28 17L28 3C28 1.34315 26.6569 0 25 0L3 0ZM3 0.5L25 0.5C25.1915 0.5 25.3782 0.520836 25.5602 0.562508C25.7006 0.594676 25.8382 0.639259 25.973 0.696257C26.1114 0.754813 26.2425 0.824554 26.3664 0.905477C26.51 0.999348 26.6438 1.10827 26.7678 1.23223C26.8917 1.35619 27.0006 1.48998 27.0945 1.63361C27.1754 1.75744 27.2452 1.88859 27.3037 2.02704C27.3607 2.16178 27.4053 2.29935 27.4375 2.43977C27.4792 2.62174 27.5 2.80848 27.5 3L27.5 17C27.5 17.1915 27.4792 17.3782 27.4375 17.5602C27.4053 17.7006 27.3607 17.8382 27.3037 17.973C27.2452 18.1114 27.1754 18.2426 27.0945 18.3664C27.0006 18.51 26.8917 18.6438 26.7678 18.7678C26.6438 18.8917 26.51 19.0006 26.3664 19.0945C26.2426 19.1754 26.1114 19.2452 25.973 19.3037C25.8382 19.3607 25.7006 19.4053 25.5602 19.4375C25.3782 19.4792 25.1915 19.5 25 19.5L3 19.5C2.80849 19.5 2.62175 19.4792 2.43978 19.4375C2.29936 19.4053 2.16178 19.3607 2.02704 19.3037C1.88858 19.2452 1.75742 19.1754 1.63358 19.0945C1.48997 19.0006 1.35618 18.8917 1.23223 18.7678C1.10827 18.6438 0.99935 18.51 0.90548 18.3664C0.824555 18.2425 0.754814 18.1114 0.696257 17.973C0.639259 17.8382 0.594676 17.7006 0.562509 17.5602C0.520836 17.3782 0.5 17.1915 0.5 17L0.5 3C0.5 2.8085 0.520838 2.62178 0.562513 2.43983C0.59468 2.29939 0.639262 2.16179 0.696257 2.02704C0.754818 1.88859 0.824564 1.75745 0.905494 1.63361C0.999361 1.48999 1.10827 1.35619 1.23223 1.23223C1.3562 1.10827 1.48999 0.999353 1.63363 0.905484C1.75746 0.824558 1.88859 0.754815 2.02704 0.696257C2.16179 0.639262 2.29939 0.594681 2.43982 0.562514C2.62178 0.520838 2.8085 0.5 3 0.5Z" fill="rgb(214,216,221)" fill-rule="evenodd" transform="matrix(1,0,0,-1,1.80219,24)" />
	<g mask="url(#mask_268)">
		<path id="path16" d="M34.2847 2.23475C33.9018 2.00466 33.5711 1.46367 32.5506 1.46367C30.5095 1.46367 30.0003 2.60069 28.4697 2.60069C27.4492 2.60069 26.9389 1.46367 25.9184 1.46367C23.8774 1.46367 23.3671 2.60069 21.8363 2.60069C20.8158 2.60069 20.3057 1.46367 19.2852 1.46367C17.2452 1.46367 16.735 2.60069 15.2042 2.60069C14.1848 2.60069 13.6735 1.46367 12.6529 1.46367C10.6119 1.46367 10.1028 2.60069 8.57091 2.60069C7.55156 2.60069 7.0413 1.46367 6.02079 1.46367C3.97977 1.46367 3.46953 2.60069 1.93877 2.60069C0.918255 2.60069 0.612572 1.79045 0 1.79045L0 0.326716C0.612572 0.326716 0.918255 1.13702 1.93877 1.13702C3.46953 1.13702 3.97977 0 6.02079 0C7.0413 0 7.55156 1.13702 8.57091 1.13702C10.1028 1.13702 10.6119 0 12.6529 0C13.6735 0 14.1848 1.13702 15.2042 1.13702C16.735 1.13702 17.2452 0 19.2852 0C20.3057 0 20.8158 1.13702 21.8363 1.13702C23.3671 1.13702 23.8774 0 25.9184 0C26.9389 0 27.4492 1.13702 28.4697 1.13702C30.0003 1.13702 30.5095 0 32.5506 0C33.5711 0 33.9018 0.322157 34.2847 0.552842L34.2847 2.23475Z" fill="rgb(42,51,122)" fill-rule="evenodd" transform="matrix(1,0,0,-1,1.80219,21.1425)" />
		<path id="path18" d="M34.2847 2.23588C33.9018 2.00412 33.5711 1.4636 32.5506 1.4636C30.5095 1.4636 30.0003 2.60115 28.4697 2.60115C27.4492 2.60115 26.9389 1.4636 25.9184 1.4636C23.8774 1.4636 23.3671 2.60115 21.8363 2.60115C20.8158 2.60115 20.3057 1.4636 19.2852 1.4636C17.2452 1.4636 16.735 2.60115 15.2042 2.60115C14.1848 2.60115 13.6735 1.4636 12.6529 1.4636C10.6119 1.4636 10.1028 2.60115 8.57091 2.60115C7.55156 2.60115 7.0413 1.4636 6.02079 1.4636C3.97977 1.4636 3.46953 2.60115 1.93877 2.60115C0.918255 2.60115 0.612572 1.7903 0 1.7903L0 0.327246C0.612572 0.327246 0.918255 1.13689 1.93877 1.13689C3.46953 1.13689 3.97977 0 6.02079 0C7.0413 0 7.55156 1.13689 8.57091 1.13689C10.1028 1.13689 10.6119 0 12.6529 0C13.6735 0 14.1848 1.13689 15.2042 1.13689C16.735 1.13689 17.2452 0 19.2852 0C20.3057 0 20.8158 1.13689 21.8363 1.13689C23.3671 1.13689 23.8774 0 25.9184 0C26.9389 0 27.4492 1.13689 28.4697 1.13689C30.0003 1.13689 30.5095 0 32.5506 0C33.5711 0 33.9018 0.322089 34.2847 0.553311L34.2847 2.23588Z" fill="rgb(42,51,122)" fill-rule="evenodd" transform="matrix(1,0,0,-1,1.80219,23.8635)" />
		<path id="path20" d="M34.2847 2.23595C33.9018 2.00413 33.5711 1.46427 32.5506 1.46427C30.5095 1.46427 30.0003 2.60123 28.4697 2.60123C27.4492 2.60123 26.9389 1.46427 25.9184 1.46427C23.8774 1.46427 23.3671 2.60123 21.8363 2.60123C20.8158 2.60123 20.3057 1.46427 19.2852 1.46427C17.2452 1.46427 16.735 2.60123 15.2042 2.60123C14.1848 2.60123 13.6735 1.46427 12.6529 1.46427C10.6119 1.46427 10.1028 2.60123 8.57091 2.60123C7.55156 2.60123 7.0413 1.46427 6.02079 1.46427C3.97977 1.46427 3.46953 2.60123 1.93877 2.60123C0.918255 2.60123 0.612572 1.79105 0 1.79105L0 0.327248C0.612572 0.327248 0.918255 1.13697 1.93877 1.13697C3.46953 1.13697 3.97977 0 6.02079 0C7.0413 0 7.55156 1.13697 8.57091 1.13697C10.1028 1.13697 10.6119 0 12.6529 0C13.6735 0 14.1848 1.13697 15.2042 1.13697C16.735 1.13697 17.2452 0 19.2852 0C20.3057 0 20.8158 1.13697 21.8363 1.13697C23.3671 1.13697 23.8774 0 25.9184 0C26.9389 0 27.4492 1.13697 28.4697 1.13697C30.0003 1.13697 30.5095 0 32.5506 0C33.5711 0 33.9018 0.322756 34.2847 0.553458L34.2847 2.23595Z" fill="rgb(42,51,122)" fill-rule="evenodd" transform="matrix(1,0,0,-1,1.80219,18.2997)" />
		<path id="path22" d="M34.2847 2.23641C33.9018 2.00519 33.5711 1.46427 32.5506 1.46427C30.5095 1.46427 30.0003 2.60243 28.4697 2.60243C27.4492 2.60243 26.9389 1.46427 25.9184 1.46427C23.8774 1.46427 23.3671 2.60243 21.8363 2.60243C20.8158 2.60243 20.3057 1.46427 19.2852 1.46427C17.2452 1.46427 16.735 2.60243 15.2042 2.60243C14.1848 2.60243 13.6735 1.46427 12.6529 1.46427C10.6119 1.46427 10.1028 2.60243 8.57091 2.60243C7.55156 2.60243 7.0413 1.46427 6.02079 1.46427C3.97977 1.46427 3.46953 2.60243 1.93877 2.60243C0.918255 2.60243 0.612572 1.79211 0 1.79211L0 0.327848C0.612572 0.327848 0.918255 1.13817 1.93877 1.13817C3.46953 1.13817 3.97977 0 6.02079 0C7.0413 0 7.55156 1.13817 8.57091 1.13817C10.1028 1.13817 10.6119 0 12.6529 0C13.6735 0 14.1848 1.13817 15.2042 1.13817C16.735 1.13817 17.2452 0 19.2852 0C20.3057 0 20.8158 1.13817 21.8363 1.13817C23.3671 1.13817 23.8774 0 25.9184 0C26.9389 0 27.4492 1.13817 28.4697 1.13817C30.0003 1.13817 30.5095 0 32.5506 0C33.5711 0 33.9018 0.322688 34.2847 0.554522L34.2847 2.23641Z" fill="rgb(42,51,122)" fill-rule="evenodd" transform="matrix(1,0,0,-1,1.80219,15.4575)" />
		<path id="path26" d="M34.2847 2.23533C33.9018 2.00465 33.5711 1.46433 32.5506 1.46433C30.5095 1.46433 30.0003 2.60075 28.4697 2.60075C27.4492 2.60075 26.9389 1.46433 25.9184 1.46433C23.8774 1.46433 23.3671 2.60075 21.8363 2.60075C20.8158 2.60075 20.3057 1.46433 19.2852 1.46433C17.2452 1.46433 16.735 2.60075 15.2042 2.60075C14.1848 2.60075 13.6735 1.46433 12.6529 1.46433C10.6119 1.46433 10.1028 2.60075 8.57091 2.60075C7.55156 2.60075 7.0413 1.46433 6.02079 1.46433C3.97977 1.46433 3.46953 2.60075 1.93877 2.60075C0.918255 2.60075 0.612572 1.79103 0 1.79103L0 0.326768C0.612572 0.326768 0.918255 1.13762 1.93877 1.13762C3.46953 1.13762 3.97977 0 6.02079 0C7.0413 0 7.55156 1.13762 8.57091 1.13762C10.1028 1.13762 10.6119 0 12.6529 0C13.6735 0 14.1848 1.13762 15.2042 1.13762C16.735 1.13762 17.2452 0 19.2852 0C20.3057 0 20.8158 1.13762 21.8363 1.13762C23.3671 1.13762 23.8774 0 25.9184 0C26.9389 0 27.4492 1.13762 28.4697 1.13762C30.0003 1.13762 30.5095 0 32.5506 0C33.5711 0 33.9018 0.322757 34.2847 0.55291L34.2847 2.23533Z" fill="rgb(42,51,122)" fill-rule="evenodd" transform="matrix(1,0,0,-1,1.80219,9.77087)" />
		<path id="path26" d="M34.2847 2.23533C33.9018 2.00465 33.5711 1.46433 32.5506 1.46433C30.5095 1.46433 30.0003 2.60075 28.4697 2.60075C27.4492 2.60075 26.9389 1.46433 25.9184 1.46433C23.8774 1.46433 23.3671 2.60075 21.8363 2.60075C20.8158 2.60075 20.3057 1.46433 19.2852 1.46433C17.2452 1.46433 16.735 2.60075 15.2042 2.60075C14.1848 2.60075 13.6735 1.46433 12.6529 1.46433C10.6119 1.46433 10.1028 2.60075 8.57091 2.60075C7.55156 2.60075 7.0413 1.46433 6.02079 1.46433C3.97977 1.46433 3.46953 2.60075 1.93877 2.60075C0.918255 2.60075 0.612572 1.79103 0 1.79103L0 0.326768C0.612572 0.326768 0.918255 1.13762 1.93877 1.13762C3.46953 1.13762 3.97977 0 6.02079 0C7.0413 0 7.55156 1.13762 8.57091 1.13762C10.1028 1.13762 10.6119 0 12.6529 0C13.6735 0 14.1848 1.13762 15.2042 1.13762C16.735 1.13762 17.2452 0 19.2852 0C20.3057 0 20.8158 1.13762 21.8363 1.13762C23.3671 1.13762 23.8774 0 25.9184 0C26.9389 0 27.4492 1.13762 28.4697 1.13762C30.0003 1.13762 30.5095 0 32.5506 0C33.5711 0 33.9018 0.322757 34.2847 0.55291L34.2847 2.23533Z" fill="rgb(42,51,122)" fill-rule="evenodd" transform="matrix(1,0,0,-1,1.80219,12.7709)" />
		<path id="path28" d="M34.2847 2.23475C33.9018 2.0035 33.5711 1.4642 32.5506 1.4642C30.5095 1.4642 30.0003 2.60074 28.4697 2.60074C27.4492 2.60074 26.9389 1.4642 25.9184 1.4642C23.8774 1.4642 23.3671 2.60074 21.8363 2.60074C20.8158 2.60074 20.3057 1.4642 19.2852 1.4642C17.2452 1.4642 16.735 2.60074 15.2042 2.60074C14.1848 2.60074 13.6735 1.4642 12.6529 1.4642C10.6119 1.4642 10.1028 2.60074 8.57091 2.60074C7.55156 2.60074 7.0413 1.4642 6.02079 1.4642C3.97977 1.4642 3.46953 2.60074 1.93877 2.60074C0.918255 2.60074 0.612572 1.79042 0 1.79042L0 0.32663C0.612572 0.32663 0.918255 1.13746 1.93877 1.13746C3.46953 1.13746 3.97977 0 6.02079 0C7.0413 0 7.55156 1.13746 8.57091 1.13746C10.1028 1.13746 10.6119 0 12.6529 0C13.6735 0 14.1848 1.13746 15.2042 1.13746C16.735 1.13746 17.2452 0 19.2852 0C20.3057 0 20.8158 1.13746 21.8363 1.13746C23.3671 1.13746 23.8774 0 25.9184 0C26.9389 0 27.4492 1.13746 28.4697 1.13746C30.0003 1.13746 30.5095 0 32.5506 0C33.5711 0 33.9018 0.321488 34.2847 0.552739L34.2847 2.23475Z" fill="rgb(42,51,122)" fill-rule="evenodd" transform="matrix(1,0,0,-1,1.80219,6.92749)" />
		<g id="Group 25">
			<rect id="Rectangle 2335" width="1.045455" height="10.227273" x="24.359192" y="10.772705" fill="rgb(149,29,36)" />
			<path id="Subtract" d="M25.3591 10.8106L27.1423 9L22.576 9L24.3219 10.7727L25.3591 10.7727L25.3591 10.8106Z" fill="rgb(122,163,81)" fill-rule="evenodd" />
			<g id="Group 24">
				<path id="Vector 45" d="M27.3551 18.6591L22.3324 18.6591L22.3324 17.7727C20.7188 15.7273 23.196 14.4773 24.3551 15.5L24.3551 14.6136L23.8551 14.6136L23.8551 13.6136L24.3551 13.6136L24.3551 13.1364L25.4006 13.1364L25.4006 13.6136L25.9006 13.6136L25.9006 14.6136L25.4006 14.6136L25.4006 15.5C27.5824 14.2273 28.4915 16.6818 27.3551 17.7727L27.3551 18.6591Z" fill="rgb(250,218,97)" fill-rule="evenodd" />
				<path id="Vector 46" d="M26.3778 17.6591L23.3096 17.6591L23.3096 17.2954L22.8778 16.8863C22.6732 16.2045 23.2641 16.0681 23.5596 16.2045L24.355 16.8863L25.4005 16.8863L26.1505 16.2045C26.5823 15.8863 27.0823 16.5454 26.7869 16.8863L26.3778 17.2954L26.3778 17.6591Z" fill="rgb(199,42,49)" fill-rule="evenodd" />
			</g>
		</g>
		<g id="Frame 881231804" customFrame="url(#clipPath_7)">
			<rect id="Frame 881231804" width="12.666667" height="10.000000" x="1.802185" y="4.000000" fill="rgb(42,51,122)" />
			<path id="Rectangle 37" d="M6.46885 8L1.80219 4L2.46885 4L7.13552 7.33333L8.46885 7.33333L13.8022 4L13.8022 4.49513C13.8022 4.60278 13.7502 4.7038 13.6626 4.76637L9.13552 8L9.13552 9.33333L13.3497 12.9455C13.5051 13.0787 13.4109 13.3333 13.2062 13.3333L13.2062 13.3333C13.1602 13.3333 13.1154 13.319 13.078 13.2923L8.46885 10L7.13552 10L1.80219 13.3333L1.80219 12.6667L6.46885 9.33333L6.46885 8Z" fill="rgb(219,30,54)" fill-rule="evenodd" />
			<path id="Rectangle 37" d="M2.6825 3.33333L1.34706e-05 3.33333L5.80219 8.30662L5.80219 8.99026L1.13552 12.3236L1.13552 14.5362L7.32672 10.6667L8.25521 10.6667L12.6905 13.8348C12.7676 13.8898 12.8492 13.9311 12.9351 13.9587C13.0211 13.9862 13.1114 14 13.2062 14C13.3096 14 13.4074 13.9839 13.4997 13.9518C13.5817 13.9232 13.6593 13.882 13.7325 13.828C13.8007 13.7777 13.8596 13.7203 13.9093 13.6558C13.9631 13.5858 14.0061 13.5074 14.0382 13.4206C14.0703 13.3339 14.0887 13.2464 14.0933 13.1582C14.0976 13.0769 14.0902 12.995 14.0712 12.9125C14.0508 12.8238 14.0187 12.742 13.975 12.6669C13.9259 12.5824 13.862 12.5066 13.7835 12.4393L9.80219 9.02671L9.80219 8.34308L14.0501 5.30886C14.1158 5.26194 14.1743 5.2088 14.2256 5.14944C14.2769 5.09008 14.3211 5.0245 14.358 4.95271C14.395 4.88091 14.4227 4.80688 14.4412 4.7306C14.4596 4.65435 14.4689 4.57586 14.4689 4.49513L14.4689 2.79717L8.27765 6.66667L7.34916 6.66667L2.6825 3.33333ZM7.13552 7.33333L4.61521 5.53312L2.46885 4L1.80219 4L2.21569 4.35443L2.46885 4.57143L4.20374 6.05847L6.46885 8L6.46885 9.33333L1.80219 12.6667L1.80219 13.3333L2.1314 13.1276L2.46885 12.9167L3.51134 12.2651L7.13552 10L8.46885 10L10.9892 11.8002L12.7622 13.0667L13.078 13.2923C13.1154 13.319 13.1602 13.3333 13.2062 13.3333C13.4109 13.3333 13.5051 13.0787 13.3497 12.9455L13.0551 12.693L11.4006 11.2749L9.13552 9.33333L9.13552 8L12.4638 5.62265L13.6626 4.76637C13.7502 4.7038 13.8022 4.60278 13.8022 4.49513L13.8022 4L13.145 4.41077L13.1355 4.41667L12.093 5.06822L8.46885 7.33333L7.13552 7.33333Z" fill="rgb(255,255,255)" fill-rule="evenodd" />
			<path id="Rectangle 2" d="M1.80219 7.33333L1.80219 10L6.46885 10L6.46885 13.3333C6.46885 13.7015 6.76733 14 7.13552 14L8.46885 14C8.83704 14 9.13552 13.7015 9.13552 13.3333L9.13552 10L13.8022 10C14.1704 10 14.4689 9.70152 14.4689 9.33333L14.4689 8C14.4689 7.63181 14.1704 7.33333 13.8022 7.33333L9.13552 7.33333L9.13552 4L6.46885 4L6.46885 7.33333L1.80219 7.33333Z" fill="rgb(255,255,255)" fill-rule="evenodd" />
			<path id="Rectangle 2" d="M1.80219 10L6.46885 10L6.46885 13.3333C6.46885 13.7015 6.76733 14 7.13552 14L8.46885 14C8.83704 14 9.13552 13.7015 9.13552 13.3333L9.13552 10L13.8022 10C14.1704 10 14.4689 9.70152 14.4689 9.33333L14.4689 8C14.4689 7.63181 14.1704 7.33333 13.8022 7.33333L9.13552 7.33333L9.13552 4L6.46885 4L6.46885 7.33333L1.80219 7.33333L1.80219 10Z" fill-rule="evenodd" stroke="rgb(150.96,150.96,150.96)" stroke-opacity="0" stroke-width="0.000000" />
			<path id="Rectangle 36" d="M1.80219 8L7.13552 8L7.13552 7.33333L7.13552 4L8.46885 4L8.46885 7.33333L8.46885 8L13.8022 8L13.8022 9.33333L8.46885 9.33333L8.46885 10L8.46885 13.3333L7.13552 13.3333L7.13552 10L7.13552 9.33333L1.80219 9.33333L1.80219 8Z" fill="rgb(219,30,54)" fill-rule="evenodd" />
			<path id="Rectangle 36" d="M7.13552 8L7.13552 7.33333L7.13552 4L8.46885 4L8.46885 7.33333L8.46885 8L13.8022 8L13.8022 9.33333L8.46885 9.33333L8.46885 10L8.46885 13.3333L7.13552 13.3333L7.13552 10L7.13552 9.33333L1.80219 9.33333L1.80219 8L7.13552 8Z" fill-rule="evenodd" stroke="rgb(150.96,150.96,150.96)" stroke-opacity="0" stroke-width="0.000000" />
		</g>
	</g>
</svg>
