<svg viewBox="0 0 28 28" xmlns="http://www.w3.org/2000/svg" xmlns:xlink="http://www.w3.org/1999/xlink" width="28.000000" height="28.000000" fill="none" customFrame="#000000">
	<defs>
		<filter id="pixso_custom_mask_type_alpha">
			<feColorMatrix type="matrix" values="0 0 0 0 1 0 0 0 0 1 0 0 0 0 1 0 0 0 1 0 " />
		</filter>
	</defs>
	<mask id="mask_346" width="28.000000" height="20.000000" x="0.000000" y="4.000000" maskUnits="userSpaceOnUse">
		<g filter="url(#pixso_custom_mask_type_alpha)">
			<rect id="Mask" width="28.000000" height="20.000000" x="0.000000" y="4.000000" rx="3.000000" fill="rgb(255,255,255)" />
			<rect id="Mask" width="28.000000" height="20.000000" x="0.000000" y="4.000000" rx="3.000000" stroke="rgb(150.96,150.96,150.96)" stroke-opacity="0" stroke-width="0" />
		</g>
	</mask>
	<rect id="Burkina Faso" width="28.000000" height="28.000000" x="0.000000" y="0.000000" fill="rgb(255,255,255)" fill-opacity="0" />
	<rect id="Mask" width="28.000000" height="20.000000" x="0.000000" y="4.000000" rx="3.000000" fill="rgb(255,255,255)" />
	<rect id="Mask" width="28.000000" height="20.000000" x="0.000000" y="4.000000" rx="3.000000" stroke="rgb(150.96,150.96,150.96)" stroke-opacity="0" stroke-width="0" />
	<g mask="url(#mask_346)">
		<path id="Rectangle 2" d="M0 24L28 24L28 14.6667L0 14.6667L0 24Z" fill="rgb(0,176,81)" fill-rule="evenodd" />
		<path id="Rectangle 2" d="M28 24L28 14.6667L0 14.6667L0 24L28 24Z" fill-rule="evenodd" stroke="rgb(150.96,150.96,150.96)" stroke-opacity="0" stroke-width="0" />
		<path id="Rectangle 2" d="M0 14.6667L28 14.6667L28 4L0 4L0 14.6667Z" fill="rgb(250,73,75)" fill-rule="evenodd" />
		<path id="Rectangle 2" d="M28 14.6667L28 4L0 4L0 14.6667L28 14.6667Z" fill-rule="evenodd" stroke="rgb(150.96,150.96,150.96)" stroke-opacity="0" stroke-width="0" />
		<path id="Star 8" d="M14 16.2267L11.6489 17.9028L12.5164 15.1488L10.1958 13.4306L13.0831 13.4046L14 10.6667L14.9169 13.4046L17.8042 13.4306L15.4836 15.1488L16.3511 17.9028L14 16.2267Z" fill="rgb(253,210,22)" fill-rule="evenodd" />
		<path id="Star 8" d="M11.6489 17.9028L12.5164 15.1488L10.1958 13.4306L13.0831 13.4046L14 10.6667L14.9169 13.4046L17.8042 13.4306L15.4836 15.1488L16.3511 17.9028L14 16.2267L11.6489 17.9028Z" fill-rule="evenodd" stroke="rgb(150.96,150.96,150.96)" stroke-opacity="0" stroke-width="0" />
	</g>
</svg>
