<svg viewBox="0 0 33.5473 28" xmlns="http://www.w3.org/2000/svg" xmlns:xlink="http://www.w3.org/1999/xlink" width="33.547302" height="28.000000" fill="none" customFrame="#000000">
	<defs>
		<filter id="pixso_custom_mask_type_alpha">
			<feColorMatrix type="matrix" values="0 0 0 0 1 0 0 0 0 1 0 0 0 0 1 0 0 0 1 0 " />
		</filter>
	</defs>
	<mask id="mask_205" width="28.000000" height="20.000000" x="2.773682" y="4.000000" maskUnits="userSpaceOnUse">
		<g filter="url(#pixso_custom_mask_type_alpha)">
			<rect id="Mask" width="28.000000" height="20.000000" x="2.773682" y="4.000000" rx="3.000000" fill="rgb(255,255,255)" />
			<rect id="Mask" width="28.000000" height="20.000000" x="2.773682" y="4.000000" rx="3.000000" stroke="rgb(150.96,150.96,150.96)" stroke-opacity="0" stroke-width="0.000000" />
		</g>
	</mask>
	<rect id="Burundi" width="28.000000" height="28.000000" x="2.773682" y="0.000000" fill="rgb(255,255,255)" fill-opacity="0" />
	<rect id="Mask" width="28.000000" height="20.000000" x="2.773682" y="4.000000" rx="3.000000" fill="rgb(255,255,255)" />
	<rect id="Mask" width="28.000000" height="20.000000" x="2.773682" y="4.000000" rx="3.000000" stroke="rgb(150.96,150.96,150.96)" stroke-opacity="0" stroke-width="0.000000" />
	<g mask="url(#mask_205)">
		<rect id="Mask Copy" width="28.000000" height="20.000000" x="2.773682" y="4.000000" fill="rgb(228,35,59)" />
		<rect id="Mask Copy" width="28.000000" height="20.000000" x="2.773682" y="4.000000" stroke="rgb(150.96,150.96,150.96)" stroke-opacity="0" stroke-width="0.000000" />
		<path id="Rectangle 253" d="M2.77368 4L14.7737 14L2.77368 24L2.77368 4Z" fill="rgb(52,205,78)" fill-rule="evenodd" />
		<path id="Rectangle 253" d="M14.7737 14L2.77368 24L2.77368 4L14.7737 14Z" fill-rule="evenodd" stroke="rgb(150.96,150.96,150.96)" stroke-opacity="0" stroke-width="0.000000" />
		<path id="Rectangle 253" d="M0 0L12 10L0 20L0 0Z" fill="rgb(52,205,78)" fill-rule="evenodd" transform="matrix(-1,0,0,1,30.7737,4)" />
		<path id="Rectangle 253" d="M12 10L0 20L0 0L12 10Z" fill-rule="evenodd" stroke="rgb(150.96,150.96,150.96)" stroke-opacity="0" stroke-width="0.000000" transform="matrix(-1,0,0,1,30.7737,4)" />
		<path id="Rectangle 2" d="M33.5473 23.7057L32.0561 25.9165L19.7357 17.6063C18.93 18.2688 17.8983 18.6667 16.7736 18.6667C15.649 18.6667 14.6173 18.2688 13.8116 17.6063L1.49118 25.9165L0 23.7057L12.3194 15.3961C12.1814 14.9553 12.107 14.4863 12.107 14C12.107 13.5137 12.1814 13.0447 12.3194 12.6039L0 4.29432L1.49118 2.08356L13.8116 10.3938C14.6173 9.73116 15.649 9.33334 16.7736 9.33334C17.8983 9.33334 18.93 9.73116 19.7357 10.3938L32.0561 2.08356L33.5473 4.29432L21.2279 12.6039C21.3659 13.0447 21.4403 13.5137 21.4403 14C21.4403 14.4863 21.3659 14.9553 21.2279 15.3961L33.5473 23.7057Z" fill="rgb(255,255,255)" fill-rule="evenodd" />
		<path id="Rectangle 2" d="M33.5473 23.7057L32.0561 25.9165L19.7357 17.6063C18.93 18.2688 17.8983 18.6667 16.7736 18.6667C15.649 18.6667 14.6173 18.2688 13.8116 17.6063L1.49118 25.9165L0 23.7057L12.3194 15.3961C12.1814 14.9553 12.107 14.4863 12.107 14C12.107 13.5137 12.1814 13.0447 12.3194 12.6039L0 4.29432L1.49118 2.08356L13.8116 10.3938C14.6173 9.73116 15.649 9.33334 16.7736 9.33334C17.8983 9.33334 18.93 9.73116 19.7357 10.3938L32.0561 2.08356L33.5473 4.29432L21.2279 12.6039C21.3659 13.0447 21.4403 13.5137 21.4403 14C21.4403 14.4863 21.3659 14.9553 21.2279 15.3961L33.5473 23.7057Z" fill-rule="evenodd" stroke="rgb(150.96,150.96,150.96)" stroke-opacity="0" stroke-width="0.000000" />
		<path id="Star 2" d="M16.7737 12.6667L15.8309 12.9428L16.107 12L15.8309 11.0572L16.7737 11.3333L17.7165 11.0572L17.4403 12L17.7165 12.9428L16.7737 12.6667ZM14.7737 16L13.8309 16.2761L14.107 15.3333L13.8309 14.3905L14.7737 14.6667L15.7165 14.3905L15.4403 15.3333L15.7165 16.2761L14.7737 16ZM17.8309 16.2761L18.7737 16L19.7165 16.2761L19.4403 15.3333L19.7165 14.3905L18.7737 14.6667L17.8309 14.3905L18.107 15.3333L17.8309 16.2761Z" fill="rgb(223,34,57)" fill-rule="evenodd" />
		<path id="Star 2" d="M16.7737 12.6667L15.8309 12.9428L16.107 12L15.8309 11.0572L16.7737 11.3333L17.7165 11.0572L17.4403 12L17.7165 12.9428L16.7737 12.6667ZM14.7737 16L13.8309 16.2761L14.107 15.3333L13.8309 14.3905L14.7737 14.6667L15.7165 14.3905L15.4403 15.3333L15.7165 16.2761L14.7737 16ZM17.8309 16.2761L18.7737 16L19.7165 16.2761L19.4403 15.3333L19.7165 14.3905L18.7737 14.6667L17.8309 14.3905L18.107 15.3333L17.8309 16.2761Z" fill-rule="evenodd" stroke="rgb(150.96,150.96,150.96)" stroke-opacity="0" stroke-width="0.000000" />
	</g>
</svg>
