<svg width="33.000000" height="28.000000" viewBox="0 0 33 28" fill="none" xmlns="http://www.w3.org/2000/svg" xmlns:xlink="http://www.w3.org/1999/xlink">
	<desc>
			Created with Pixso.
	</desc>
	<defs/>
	<rect id="Burundi" width="28.000000" height="28.000000" transform="translate(2.000000 0.000000)" fill="#FFFFFF" fill-opacity="0"/>
	<rect id="Mask" x="2.000000" y="4.000000" rx="3.000000" width="28.000000" height="20.000000" fill="#FFFFFF" fill-opacity="1.000000"/>
	<rect id="Mask" x="2.000000" y="4.000000" rx="3.000000" width="28.000000" height="20.000000" stroke="#979797" stroke-opacity="0" stroke-width="0.000000"/>
	<mask id="mask17_6015" mask-type="alpha" maskUnits="userSpaceOnUse" x="2.000000" y="4.000000" width="28.000000" height="20.000000">
		<rect id="Mask" x="2.000000" y="4.000000" rx="3.000000" width="28.000000" height="20.000000" fill="#FFFFFF" fill-opacity="1.000000"/>
		<rect id="Mask" x="2.000000" y="4.000000" rx="3.000000" width="28.000000" height="20.000000" stroke="#979797" stroke-opacity="0" stroke-width="0.000000"/>
	</mask>
	<g mask="url(#mask17_6015)">
		<rect id="Mask Copy" x="2.000000" y="4.000000" width="28.000000" height="20.000000" fill="#E4233B" fill-opacity="1.000000"/>
		<rect id="Mask Copy" x="2.000000" y="4.000000" width="28.000000" height="20.000000" stroke="#979797" stroke-opacity="0" stroke-width="0.000000"/>
	</g>
	<g mask="url(#mask17_6015)">
		<path id="Rectangle 253" d="M2 4L14 14L2 24L2 4Z" fill="#34CD4E" fill-opacity="1.000000" fill-rule="evenodd"/>
		<path id="Rectangle 253" d="M14 14L2 24L2 4L14 14Z" stroke="#979797" stroke-opacity="0" stroke-width="0.000000"/>
	</g>
	<g mask="url(#mask17_6015)">
		<path id="Rectangle 253" d="M30 4L18 14L30 24L30 4Z" fill="#34CD4E" fill-opacity="1.000000" fill-rule="evenodd"/>
		<path id="Rectangle 253" d="M18 14L30 24L30 4L18 14Z" stroke="#979797" stroke-opacity="0" stroke-width="0.000000"/>
	</g>
	<g mask="url(#mask17_6015)">
		<mask id="mask_17_6019" fill="white">
			<path id="Rectangle 2" d="M18.962 10.3937C18.1563 9.73114 17.1246 9.33331 15.9999 9.33331C14.8754 9.33331 13.8436 9.73114 13.0379 10.3937L0.717529 2.08356L-0.773682 4.29431L11.5457 12.6039C11.4077 13.0447 11.3333 13.5137 11.3333 14C11.3333 14.4863 11.4077 14.9553 11.5457 15.3961L-0.773682 23.7057L0.717529 25.9164L13.0379 17.6063C13.8436 18.2689 14.8754 18.6667 15.9999 18.6667C17.1246 18.6667 18.1563 18.2689 18.962 17.6063L31.2824 25.9164L32.7736 23.7057L20.4542 15.3961C20.5922 14.9553 20.6666 14.4863 20.6666 14C20.6666 13.5137 20.5922 13.0447 20.4542 12.6039L32.7736 4.29431L31.2824 2.08356L18.962 10.3937Z" clip-rule="evenodd" fill="" fill-opacity="1.000000" fill-rule="evenodd"/>
		</mask>
		<path id="Rectangle 2" d="M18.962 10.3937C18.1563 9.73114 17.1246 9.33331 15.9999 9.33331C14.8754 9.33331 13.8436 9.73114 13.0379 10.3937L0.717529 2.08356L-0.773682 4.29431L11.5457 12.6039C11.4077 13.0447 11.3333 13.5137 11.3333 14C11.3333 14.4863 11.4077 14.9553 11.5457 15.3961L-0.773682 23.7057L0.717529 25.9164L13.0379 17.6063C13.8436 18.2689 14.8754 18.6667 15.9999 18.6667C17.1246 18.6667 18.1563 18.2689 18.962 17.6063L31.2824 25.9164L32.7736 23.7057L20.4542 15.3961C20.5922 14.9553 20.6666 14.4863 20.6666 14C20.6666 13.5137 20.5922 13.0447 20.4542 12.6039L32.7736 4.29431L31.2824 2.08356L18.962 10.3937Z" clip-rule="evenodd" fill="#FFFFFF" fill-opacity="1.000000" fill-rule="evenodd" mask="url(#mask_17_6019)"/>
		<path id="Rectangle 2" d="" fill="#979797" fill-opacity="0.000000" fill-rule="nonzero"/>
	</g>
	<g mask="url(#mask17_6015)">
		<mask id="mask_17_6023" fill="white">
			<path id="Star 2" d="M15.0572 12.9429L16 12.6667L16.9428 12.9429L16.6667 12.0001L16.9428 11.0573L16 11.3334L15.0572 11.0573L15.3333 12.0001L15.0572 12.9429ZM14 16.0001L13.0572 16.2762L13.3333 15.3334L13.0572 14.3906L14 14.6667L14.9428 14.3906L14.6667 15.3334L14.9428 16.2762L14 16.0001ZM17.0572 16.2762L18 16.0001L18.9428 16.2762L18.6667 15.3334L18.9428 14.3906L18 14.6667L17.0572 14.3906L17.3333 15.3334L17.0572 16.2762Z" clip-rule="evenodd" fill="" fill-opacity="1.000000" fill-rule="evenodd"/>
		</mask>
		<path id="Star 2" d="M15.0572 12.9429L16 12.6667L16.9428 12.9429L16.6667 12.0001L16.9428 11.0573L16 11.3334L15.0572 11.0573L15.3333 12.0001L15.0572 12.9429ZM14 16.0001L13.0572 16.2762L13.3333 15.3334L13.0572 14.3906L14 14.6667L14.9428 14.3906L14.6667 15.3334L14.9428 16.2762L14 16.0001ZM17.0572 16.2762L18 16.0001L18.9428 16.2762L18.6667 15.3334L18.9428 14.3906L18 14.6667L17.0572 14.3906L17.3333 15.3334L17.0572 16.2762Z" clip-rule="evenodd" fill="#DF2239" fill-opacity="1.000000" fill-rule="evenodd" mask="url(#mask_17_6023)"/>
		<path id="Star 2" d="" fill="#979797" fill-opacity="0.000000" fill-rule="nonzero"/>
	</g>
</svg>
