<svg width="28.000000" height="28.000000" viewBox="0 0 28 28" fill="none" xmlns="http://www.w3.org/2000/svg" xmlns:xlink="http://www.w3.org/1999/xlink">
	<desc>
			Created with Pixso.
	</desc>
	<defs/>
	<rect id="Cambodia" width="28.000000" height="28.000000" fill="#FFFFFF" fill-opacity="0"/>
	<rect id="Mask" y="4.000000" rx="3.000000" width="28.000000" height="20.000000" fill="#FFFFFF" fill-opacity="1.000000"/>
	<rect id="Mask" y="4.000000" rx="3.000000" width="28.000000" height="20.000000" stroke="#979797" stroke-opacity="0" stroke-width="0.000000"/>
	<mask id="mask17_5134" mask-type="alpha" maskUnits="userSpaceOnUse" x="0.000000" y="4.000000" width="28.000000" height="20.000000">
		<rect id="Mask" y="4.000000" rx="3.000000" width="28.000000" height="20.000000" fill="#FFFFFF" fill-opacity="1.000000"/>
		<rect id="Mask" y="4.000000" rx="3.000000" width="28.000000" height="20.000000" stroke="#979797" stroke-opacity="0" stroke-width="0.000000"/>
	</mask>
	<g mask="url(#mask17_5134)">
		<path id="Rectangle 2" d="M0 9.33L28 9.33L28 4L0 4L0 9.33Z" fill="#0F3EB6" fill-opacity="1.000000" fill-rule="evenodd"/>
		<path id="Rectangle 2" d="M28 9.33L28 4L0 4L0 9.33L28 9.33Z" stroke="#979797" stroke-opacity="0" stroke-width="0.000000"/>
	</g>
	<g mask="url(#mask17_5134)">
		<path id="Rectangle 2" d="M0 24L28 24L28 18.66L0 18.66L0 24Z" fill="#0F3EB6" fill-opacity="1.000000" fill-rule="evenodd"/>
		<path id="Rectangle 2" d="M28 24L28 18.66L0 18.66L0 24L28 24Z" stroke="#979797" stroke-opacity="0" stroke-width="0.000000"/>
	</g>
	<g mask="url(#mask17_5134)">
		<path id="Rectangle 2" d="M0 18.66L28 18.66L28 9.33L0 9.33L0 18.66Z" fill="#ED1A3C" fill-opacity="1.000000" fill-rule="evenodd"/>
		<path id="Rectangle 2" d="M28 18.66L28 9.33L0 9.33L0 18.66L28 18.66Z" stroke="#979797" stroke-opacity="0" stroke-width="0.000000"/>
	</g>
	<g mask="url(#mask17_5134)">
		<mask id="mask_17_5138" fill="white">
			<path id="Rectangle 621" d="M12 12.7272L13.3333 12.7272L13.3333 12C13.3333 11.6318 13.6318 11.3333 14 11.3333C14.3682 11.3333 14.6667 11.6318 14.6667 12L14.6667 12.7272L16 12.7272L16 14L12 14L12 12.7272ZM10.6667 12C10.2985 12 10 12.2985 10 12.6667L10 14L11.3333 14L11.3333 12.6667C11.3333 12.2985 11.0349 12 10.6667 12ZM17.3333 12C16.9651 12 16.6667 12.2985 16.6667 12.6667L16.6667 14L18 14L18 12.6667C18 12.2985 17.7015 12 17.3333 12ZM11.3333 14.6667L10 14.6667L8.66666 17.3333L11.3333 17.3333L11.3333 14.6667ZM16 14.6667L12 14.6667L12 17.3333L16 17.3333L16 14.6667ZM16.6667 14.6667L18 14.6667L19.3333 17.3333L16.6667 17.3333L16.6667 14.6667Z" clip-rule="evenodd" fill="" fill-opacity="1.000000" fill-rule="evenodd"/>
		</mask>
		<path id="Rectangle 621" d="M12 12.7272L13.3333 12.7272L13.3333 12C13.3333 11.6318 13.6318 11.3333 14 11.3333C14.3682 11.3333 14.6667 11.6318 14.6667 12L14.6667 12.7272L16 12.7272L16 14L12 14L12 12.7272ZM10.6667 12C10.2985 12 10 12.2985 10 12.6667L10 14L11.3333 14L11.3333 12.6667C11.3333 12.2985 11.0349 12 10.6667 12ZM17.3333 12C16.9651 12 16.6667 12.2985 16.6667 12.6667L16.6667 14L18 14L18 12.6667C18 12.2985 17.7015 12 17.3333 12ZM11.3333 14.6667L10 14.6667L8.66666 17.3333L11.3333 17.3333L11.3333 14.6667ZM16 14.6667L12 14.6667L12 17.3333L16 17.3333L16 14.6667ZM16.6667 14.6667L18 14.6667L19.3333 17.3333L16.6667 17.3333L16.6667 14.6667Z" clip-rule="evenodd" fill="#FFFFFF" fill-opacity="1.000000" fill-rule="evenodd" mask="url(#mask_17_5138)"/>
		<path id="Rectangle 621" d="" fill="#979797" fill-opacity="0.000000" fill-rule="nonzero"/>
	</g>
</svg>
