<svg viewBox="0 0 28 28" xmlns="http://www.w3.org/2000/svg" xmlns:xlink="http://www.w3.org/1999/xlink" width="28.000000" height="28.000000" fill="none" customFrame="#000000">
	<defs>
		<filter id="pixso_custom_mask_type_alpha">
			<feColorMatrix type="matrix" values="0 0 0 0 1 0 0 0 0 1 0 0 0 0 1 0 0 0 1 0 " />
		</filter>
	</defs>
	<mask id="mask_381" width="28.000000" height="20.000000" x="0.000000" y="4.000000" maskUnits="userSpaceOnUse">
		<g filter="url(#pixso_custom_mask_type_alpha)">
			<rect id="Mask" width="28.000000" height="20.000000" x="0.000000" y="4.000000" rx="3.000000" fill="rgb(255,255,255)" />
			<rect id="Mask" width="27.500000" height="19.500000" x="0.250000" y="4.250000" rx="2.750000" stroke="rgb(245,245,245)" stroke-width="0.5" />
		</g>
	</mask>
	<rect id="Canada" width="28.000000" height="28.000000" x="0.000000" y="0.000000" fill="rgb(255,255,255)" fill-opacity="0" />
	<rect id="Mask" width="28.000000" height="20.000000" x="0.000000" y="4.000000" rx="3.000000" fill="rgb(255,255,255)" />
	<rect id="Mask" width="27.500000" height="19.500000" x="0.250000" y="4.250000" rx="2.750000" stroke="rgb(214,216,221)" stroke-width="0.5" />
	<g mask="url(#mask_381)">
		<rect id="Mask" width="8.000000" height="20.000000" x="20.000000" y="4.000000" fill="rgb(255,49,49)" />
		<rect id="Mask" width="8.000000" height="20.000000" x="20.000000" y="4.000000" stroke="rgb(150.96,150.96,150.96)" stroke-opacity="0" stroke-width="0" />
		<path id="Rectangle 2" d="M0 24L8 24L8 4L0 4L0 24Z" fill="rgb(255,49,49)" fill-rule="evenodd" />
		<path id="Rectangle 2" d="M8 24L8 4L0 4L0 24L8 24Z" fill-rule="evenodd" stroke="rgb(150.96,150.96,150.96)" stroke-opacity="0" stroke-width="0" />
		<path id="Rectangle 66" d="M16.1118 13.2215C15.8786 13.4547 15.4845 13.2438 15.5492 12.9204L16 10.6666L14.6666 11.3333L14 9.33331L13.3333 11.3333L12 10.6666L12.4507 12.9204C12.5154 13.2438 12.1214 13.4547 11.8882 13.2215L11.569 12.9023C11.4388 12.7722 11.2278 12.7722 11.0976 12.9023L10.6666 13.3333L9.33331 12.6666L9.99998 14L9.56901 14.4309C9.43884 14.5611 9.43884 14.7722 9.56902 14.9023L11.3333 16.6666L13.3333 16.6666L13.6666 18.6666L14.3333 18.6666L14.6666 16.6666L16.6666 16.6666L18.4309 14.9023C18.5611 14.7722 18.5611 14.5611 18.4309 14.4309L18 14L18.6666 12.6666L17.3333 13.3333L16.9023 12.9023C16.7722 12.7722 16.5611 12.7722 16.4309 12.9023L16.1118 13.2215Z" fill="rgb(255,49,49)" fill-rule="evenodd" />
		<path id="Rectangle 66" d="M16 10.6666L14.6666 11.3333L14 9.33331L13.3333 11.3333L12 10.6666L12.4507 12.9204C12.5154 13.2438 12.1214 13.4547 11.8882 13.2215L11.569 12.9023C11.4388 12.7722 11.2278 12.7722 11.0976 12.9023L10.6666 13.3333L9.33331 12.6666L9.99998 14L9.56902 14.4309C9.43884 14.5611 9.43884 14.7722 9.56902 14.9023L11.3333 16.6666L13.3333 16.6666L13.6666 18.6666L14.3333 18.6666L14.6666 16.6666L16.6666 16.6666L18.4309 14.9023C18.5611 14.7722 18.5611 14.5611 18.4309 14.4309L18 14L18.6666 12.6666L17.3333 13.3333L16.9023 12.9023C16.7722 12.7722 16.5611 12.7722 16.4309 12.9023L16.1118 13.2215C15.8786 13.4547 15.4845 13.2438 15.5492 12.9204L16 10.6666Z" fill-rule="evenodd" stroke="rgb(150.96,150.96,150.96)" stroke-opacity="0" stroke-linejoin="bevel" stroke-width="0" />
	</g>
</svg>
