<svg width="29.000000" height="28.000000" viewBox="0 0 29 28" fill="none" xmlns="http://www.w3.org/2000/svg" xmlns:xlink="http://www.w3.org/1999/xlink">
	<desc>
			Created with Pixso.
	</desc>
	<defs>
		<linearGradient id="paint_linear_17_5977_0" x1="18.333313" y1="9.333313" x2="18.333313" y2="18.666645" gradientUnits="userSpaceOnUse">
			<stop stop-color="#FFFFFF"/>
			<stop offset="1.000000" stop-color="#F0F0F0"/>
		</linearGradient>
		<linearGradient id="paint_linear_17_5978_0" x1="18.333313" y1="9.333313" x2="18.333313" y2="18.666645" gradientUnits="userSpaceOnUse">
			<stop stop-color="#FFFFFF"/>
			<stop offset="1.000000" stop-color="#F0F0F0"/>
		</linearGradient>
	</defs>
	<rect id="Cayman Islands" width="28.000000" height="28.000000" transform="translate(1.000000 0.000000)" fill="#FFFFFF" fill-opacity="0"/>
	<rect id="Mask" x="1.000000" y="4.000000" rx="3.000000" width="28.000000" height="20.000000" fill="#FFFFFF" fill-opacity="1.000000"/>
	<rect id="Mask" x="1.000000" y="4.000000" rx="3.000000" width="28.000000" height="20.000000" stroke="#979797" stroke-opacity="0" stroke-width="0.000000"/>
	<mask id="mask17_5973" mask-type="alpha" maskUnits="userSpaceOnUse" x="1.000000" y="4.000000" width="28.000000" height="20.000000">
		<rect id="Mask" x="1.000000" y="4.000000" rx="3.000000" width="28.000000" height="20.000000" fill="#FFFFFF" fill-opacity="1.000000"/>
		<rect id="Mask" x="1.000000" y="4.000000" rx="3.000000" width="28.000000" height="20.000000" stroke="#979797" stroke-opacity="0" stroke-width="0.000000"/>
	</mask>
	<g mask="url(#mask17_5973)">
		<rect id="Mask Copy" x="1.000000" y="4.000000" width="28.000000" height="20.000000" fill="#07319C" fill-opacity="1.000000"/>
		<rect id="Mask Copy" x="1.000000" y="4.000000" width="28.000000" height="20.000000" stroke="#979797" stroke-opacity="0" stroke-width="0.000000"/>
	</g>
	<g mask="url(#mask17_5973)">
		<path id="Oval 180" d="M21.66 10.66C22.77 10.66 23.66 10.06 23.66 9.33C23.66 8.59 22.77 8 21.66 8C20.56 8 19.66 8.59 19.66 9.33C19.66 10.06 20.56 10.66 21.66 10.66Z" fill="#FAD051" fill-opacity="1.000000" fill-rule="evenodd"/>
		<path id="Oval 180" d="M23.66 9.33C23.66 8.59 22.77 8 21.66 8C20.56 8 19.66 8.59 19.66 9.33C19.66 10.06 20.56 10.66 21.66 10.66C22.77 10.66 23.66 10.06 23.66 9.33Z" stroke="#979797" stroke-opacity="0" stroke-width="0.000000"/>
	</g>
	<g mask="url(#mask17_5973)">
		<path id="Mask" d="M18.33 14C18.33 12 18.33 9.33 18.33 9.33L25 9.33C25 9.33 25 12 25 14C25 17.33 21.66 18.66 21.66 18.66C21.66 18.66 18.33 17.33 18.33 14Z" fill="url(#paint_linear_17_5977_0)" fill-opacity="1.000000" fill-rule="evenodd"/>
		<path id="Mask" d="M18.33 9.33L25 9.33C25 9.33 25 12 25 14C25 17.33 21.66 18.66 21.66 18.66C21.66 18.66 18.33 17.33 18.33 14C18.33 12 18.33 9.33 18.33 9.33Z" stroke="#979797" stroke-opacity="0" stroke-width="0.000000"/>
		<mask id="mask17_5978" mask-type="alpha" maskUnits="userSpaceOnUse" x="18.333313" y="9.333313" width="6.666664" height="9.333313">
			<path id="Mask" d="M18.33 14C18.33 12 18.33 9.33 18.33 9.33L25 9.33C25 9.33 25 12 25 14C25 17.33 21.66 18.66 21.66 18.66C21.66 18.66 18.33 17.33 18.33 14Z" fill="url(#paint_linear_17_5978_0)" fill-opacity="1.000000" fill-rule="evenodd"/>
			<path id="Mask" d="M18.33 9.33L25 9.33C25 9.33 25 12 25 14C25 17.33 21.66 18.66 21.66 18.66C21.66 18.66 18.33 17.33 18.33 14C18.33 12 18.33 9.33 18.33 9.33Z" stroke="#979797" stroke-opacity="0" stroke-width="0.000000"/>
		</mask>
		<g mask="url(#mask17_5978)">
			<path id="Rectangle 1106" d="M18.33 9.33L25 9.33L25 10.66L22.33 10.66L21 10.66L18.33 10.66L18.33 9.33Z" fill="#CF142C" fill-opacity="1.000000" fill-rule="evenodd"/>
			<path id="Rectangle 1106" d="M25 9.33L25 10.66L22.33 10.66L21 10.66L18.33 10.66L18.33 9.33L25 9.33Z" stroke="#979797" stroke-opacity="0" stroke-width="0.000000"/>
		</g>
		<g mask="url(#mask17_5978)">
			<mask id="mask_17_5980" fill="white">
				<path id="Rectangle 1106" d="M25 12L18.3333 12L18.3333 13.3333L25 13.3333L25 12ZM18.3333 14.6667L25 14.6667L25 16L18.3333 16L18.3333 14.6667ZM18.3333 17.3333L25 17.3333L25 18.6667L18.3333 18.6667L18.3333 17.3333Z" clip-rule="evenodd" fill="" fill-opacity="1.000000" fill-rule="evenodd"/>
			</mask>
			<path id="Rectangle 1106" d="M25 12L18.3333 12L18.3333 13.3333L25 13.3333L25 12ZM18.3333 14.6667L25 14.6667L25 16L18.3333 16L18.3333 14.6667ZM18.3333 17.3333L25 17.3333L25 18.6667L18.3333 18.6667L18.3333 17.3333Z" clip-rule="evenodd" fill="#125FBA" fill-opacity="1.000000" fill-rule="evenodd" mask="url(#mask_17_5980)"/>
			<path id="Rectangle 1106" d="" fill="#979797" fill-opacity="0.000000" fill-rule="nonzero"/>
		</g>
	</g>
	<g mask="url(#mask17_5973)">
		<path id="Rectangle 36" d="M5.66 8L1 4L1.66 4L6.33 7.33L7.66 7.33L13 4L13 4.49C13 4.6 12.94 4.7 12.86 4.76L8.33 8L8.33 9.33L12.54 12.94C12.7 13.07 12.6 13.33 12.4 13.33L12.4 13.33C12.35 13.33 12.31 13.31 12.27 13.29L7.66 10L6.33 10L1 13.33L1 12.66L5.66 9.33L5.66 8Z" fill="#DB1E36" fill-opacity="1.000000" fill-rule="evenodd"/>
		<path id="Rectangle 36" d="M1.88 3.33L-0.81 3.33L5 8.3L5 8.99L0.33 12.32L0.33 14.53L6.52 10.66L7.45 10.66L11.88 13.83Q12 13.91 12.13 13.95Q12.26 14 12.4 14Q12.55 14 12.69 13.95Q12.82 13.9 12.93 13.82Q13.03 13.75 13.1 13.65Q13.18 13.55 13.23 13.42Q13.28 13.29 13.29 13.15Q13.29 13.03 13.26 12.91Q13.23 12.77 13.17 12.66Q13.09 12.54 12.98 12.43L9 9.02L9 8.34L13.24 5.3Q13.34 5.23 13.42 5.14Q13.5 5.06 13.55 4.95Q13.61 4.84 13.63 4.73Q13.66 4.61 13.66 4.49L13.66 2.79L7.47 6.66L6.54 6.66L1.88 3.33ZM6.33 7.33L3.81 5.53L1.66 4L1 4L1.41 4.35L1.66 4.57L3.4 6.05L5.66 8L5.66 9.33L1 12.66L1 13.33L1.32 13.12L1.66 12.91L2.7 12.26L6.33 10L7.66 10L10.18 11.8L11.96 13.06L12.27 13.29C12.31 13.31 12.35 13.33 12.4 13.33C12.6 13.33 12.7 13.07 12.54 12.94L12.25 12.69L10.59 11.27L8.33 9.33L8.33 8L11.66 5.62L12.86 4.76C12.94 4.7 13 4.6 13 4.49L13 4L12.34 4.41L12.33 4.41L11.29 5.06L7.66 7.33L6.33 7.33Z" fill="#FFFFFF" fill-opacity="1.000000" fill-rule="evenodd"/>
	</g>
	<g mask="url(#mask17_5973)">
		<path id="Rectangle 2" d="M1 7.33L1 10L5.66 10L5.66 13.33C5.66 13.7 5.96 14 6.33 14L7.66 14C8.03 14 8.33 13.7 8.33 13.33L8.33 10L13 10C13.36 10 13.66 9.7 13.66 9.33L13.66 8C13.66 7.63 13.36 7.33 13 7.33L8.33 7.33L8.33 4L5.66 4L5.66 7.33L1 7.33Z" fill="#FFFFFF" fill-opacity="1.000000" fill-rule="evenodd"/>
		<path id="Rectangle 2" d="M1 10L5.66 10L5.66 13.33C5.66 13.7 5.96 14 6.33 14L7.66 14C8.03 14 8.33 13.7 8.33 13.33L8.33 10L13 10C13.36 10 13.66 9.7 13.66 9.33L13.66 8C13.66 7.63 13.36 7.33 13 7.33L8.33 7.33L8.33 4L5.66 4L5.66 7.33L1 7.33L1 10Z" stroke="#979797" stroke-opacity="0" stroke-width="0.000000"/>
	</g>
	<g mask="url(#mask17_5973)">
		<path id="Rectangle 36" d="M1 8L6.33 8L6.33 7.33L6.33 4L7.66 4L7.66 7.33L7.66 8L13 8L13 9.33L7.66 9.33L7.66 10L7.66 13.33L6.33 13.33L6.33 10L6.33 9.33L1 9.33L1 8Z" fill="#DB1E36" fill-opacity="1.000000" fill-rule="evenodd"/>
		<path id="Rectangle 36" d="M6.33 8L6.33 7.33L6.33 4L7.66 4L7.66 7.33L7.66 8L13 8L13 9.33L7.66 9.33L7.66 10L7.66 13.33L6.33 13.33L6.33 10L6.33 9.33L1 9.33L1 8L6.33 8Z" stroke="#979797" stroke-opacity="0" stroke-width="0.000000"/>
	</g>
</svg>
