<svg viewBox="0 0 28 28" xmlns="http://www.w3.org/2000/svg" xmlns:xlink="http://www.w3.org/1999/xlink" width="28.000000" height="28.000000" fill="none" customFrame="#000000">
	<defs>
		<filter id="pixso_custom_mask_type_alpha">
			<feColorMatrix type="matrix" values="0 0 0 0 1 0 0 0 0 1 0 0 0 0 1 0 0 0 1 0 " />
		</filter>
	</defs>
	<mask id="mask_382" width="28.000000" height="20.000000" x="0.000000" y="4.000000" maskUnits="userSpaceOnUse">
		<g filter="url(#pixso_custom_mask_type_alpha)">
			<rect id="Mask" width="28.000000" height="20.000000" x="0.000000" y="4.000000" rx="3.000000" fill="rgb(255,255,255)" />
			<rect id="Mask" width="27.500000" height="19.500000" x="0.250000" y="4.250000" rx="2.750000" stroke="rgb(245,245,245)" stroke-width="0.5" />
		</g>
	</mask>
	<rect id="Central African Republic" width="28.000000" height="28.000000" x="0.000000" y="0.000000" fill="rgb(255,255,255)" fill-opacity="0" />
	<rect id="Mask" width="28.000000" height="20.000000" x="0.000000" y="4.000000" rx="3.000000" fill="rgb(255,255,255)" />
	<rect id="Mask" width="27.500000" height="19.500000" x="0.250000" y="4.250000" rx="2.750000" stroke="rgb(214,216,221)" stroke-width="0.5" />
	<g mask="url(#mask_382)">
		<path id="Rectangle 2" d="M0 9.33333L28 9.33333L28 4L0 4L0 9.33333Z" fill="rgb(8,61,150)" fill-rule="evenodd" />
		<path id="Rectangle 2" d="M28 9.33333L28 4L0 4L0 9.33333L28 9.33333Z" fill-rule="evenodd" stroke="rgb(150.96,150.96,150.96)" stroke-opacity="0" stroke-width="0" />
		<path id="Rectangle 2" d="M0 18.6666L28 18.6666L28 13.3333L0 13.3333L0 18.6666Z" fill="rgb(55,174,57)" fill-rule="evenodd" />
		<path id="Rectangle 2" d="M28 18.6666L28 13.3333L0 13.3333L0 18.6666L28 18.6666Z" fill-rule="evenodd" stroke="rgb(150.96,150.96,150.96)" stroke-opacity="0" stroke-width="0" />
		<path id="Rectangle 2" d="M0 24L28 24L28 18.6667L0 18.6667L0 24Z" fill="rgb(255,209,63)" fill-rule="evenodd" />
		<path id="Rectangle 2" d="M28 24L28 18.6667L0 18.6667L0 24L28 24Z" fill-rule="evenodd" stroke="rgb(150.96,150.96,150.96)" stroke-opacity="0" stroke-width="0" />
		<path id="Rectangle 2" d="M10.6667 24L17.3334 24L17.3334 4L10.6667 4L10.6667 24Z" fill="rgb(228,35,70)" fill-rule="evenodd" />
		<path id="Rectangle 2" d="M17.3334 24L17.3334 4L10.6667 4L10.6667 24L17.3334 24Z" fill-rule="evenodd" stroke="rgb(150.96,150.96,150.96)" stroke-opacity="0" stroke-width="0" />
		<path id="Star 8" d="M4.66669 7.44669L3.49112 8.28472L3.92486 6.90772L2.76457 6.04865L4.20821 6.03565L4.66669 4.66669L5.12516 6.03565L6.5688 6.04865L5.40851 6.90772L5.84226 8.28472L4.66669 7.44669Z" fill="rgb(255,208,59)" fill-rule="evenodd" />
		<path id="Star 8" d="M3.49112 8.28472L3.92486 6.90772L2.76457 6.04865L4.20821 6.03565L4.66669 4.66669L5.12516 6.03565L6.5688 6.04865L5.40851 6.90772L5.84226 8.28472L4.66669 7.44669L3.49112 8.28472Z" fill-rule="evenodd" stroke="rgb(150.96,150.96,150.96)" stroke-opacity="0" stroke-width="0" />
	</g>
</svg>
