<svg width="28.000000" height="28.000000" viewBox="0 0 28 28" fill="none" xmlns="http://www.w3.org/2000/svg" xmlns:xlink="http://www.w3.org/1999/xlink">
	<desc>
			Created with Pixso.
	</desc>
	<defs/>
	<rect id="CEU" width="28.000000" height="28.000000" fill="#FFFFFF" fill-opacity="0"/>
	<rect id="Mask" y="4.000000" rx="3.000000" width="28.000000" height="20.000000" fill="#FFFFFF" fill-opacity="1.000000"/>
	<rect id="Mask" y="4.000000" rx="3.000000" width="28.000000" height="20.000000" stroke="#979797" stroke-opacity="0" stroke-width="0.000000"/>
	<mask id="mask17_3874" mask-type="alpha" maskUnits="userSpaceOnUse" x="0.000000" y="4.000000" width="28.000000" height="20.000000">
		<rect id="Mask" y="4.000000" rx="3.000000" width="28.000000" height="20.000000" fill="#FFFFFF" fill-opacity="1.000000"/>
		<rect id="Mask" y="4.000000" rx="3.000000" width="28.000000" height="20.000000" stroke="#979797" stroke-opacity="0" stroke-width="0.000000"/>
	</mask>
	<g mask="url(#mask17_3874)">
		<rect id="Mask Copy" y="4.000000" width="28.000000" height="20.000000" fill="#19BFBF" fill-opacity="1.000000"/>
		<rect id="Mask Copy" y="4.000000" width="28.000000" height="20.000000" stroke="#979797" stroke-opacity="0" stroke-width="0.000000"/>
	</g>
	<g mask="url(#mask17_3874)">
		<mask id="mask_17_3876" fill="white">
			<path id="Rectangle 1073" d="M16.0556 20.7224L17.0976 21.7644C17.2278 21.8946 17.4388 21.8946 17.569 21.7644L18.6284 20.705C18.6537 20.6797 18.6748 20.6504 18.6909 20.6184L19.2716 19.4569C19.3111 19.3778 19.3804 19.3177 19.4643 19.2898L21.1054 18.7427C21.2415 18.6974 21.3333 18.57 21.3333 18.4265L21.3333 16.7677C21.3333 16.7019 21.3528 16.6375 21.3893 16.5828L22.4572 14.9809C22.5684 14.8141 22.5083 14.5876 22.3289 14.4979L21.3333 14.0001L19.5452 12.808C19.4201 12.7246 19.3663 12.5678 19.4138 12.4252L19.9348 10.8622C19.9748 10.7424 19.9436 10.6104 19.8543 10.5211L19.431 10.0977C19.3684 10.0352 19.3333 9.95041 19.3333 9.862L19.3333 8.07877C19.3333 8.02701 19.3213 7.97598 19.2981 7.92969L18.7588 6.85101C18.7023 6.73807 18.5869 6.66675 18.4606 6.66675L17.3874 6.66675C17.3516 6.66675 17.316 6.67252 17.282 6.68387L15.408 7.30853C15.3589 7.32489 15.3143 7.35248 15.2777 7.38907L13.3333 9.3334L12.0976 10.5691C12.0351 10.6316 12 10.7164 12 10.8048L12 11.862C12 11.9504 12.0351 12.0352 12.0976 12.0977L12.4968 12.4969C12.5982 12.5983 12.7532 12.6235 12.8815 12.5593L13.5252 12.2375C13.7433 12.1284 14 12.287 14 12.5309C14 12.6179 14.0345 12.7013 14.0961 12.7628L14.569 13.2358C14.6315 13.2983 14.7163 13.3334 14.8047 13.3334L15.0931 13.3334C15.2365 13.3334 15.3639 13.2416 15.4093 13.1055L15.9829 11.3847C15.9942 11.3507 16 11.3152 16 11.2793L16 10.1382C16 10.0497 16.0351 9.96497 16.0976 9.90244L17.0976 8.90247C17.2278 8.77228 17.4388 8.77228 17.569 8.90247L17.8301 9.16354C17.9315 9.26498 17.9567 9.41998 17.8925 9.54831L17.3685 10.5964C17.3454 10.6426 17.3333 10.6937 17.3333 10.7454L17.3333 11.6667C17.3333 11.8508 17.4826 12.0001 17.6667 12.0001L18.3333 12.0001C18.5174 12.0001 18.6667 12.1493 18.6667 12.3334C18.6667 12.5175 18.5174 12.6667 18.3333 12.6667L17.5736 12.6667C17.4301 12.6667 17.3027 12.7585 17.2574 12.8947L16.7426 14.4388C16.6973 14.575 16.5699 14.6667 16.4264 14.6667L14.8727 14.6667C14.7464 14.6667 14.631 14.5954 14.5745 14.4825L14.2068 13.7471C14.1051 13.5436 13.8339 13.4995 13.673 13.6604L13.431 13.9025C13.3684 13.965 13.3333 14.0497 13.3333 14.1382L13.3333 14.3334C13.3333 14.5175 13.1841 14.6667 13 14.6667L12.0787 14.6667C12.0269 14.6667 11.9759 14.6788 11.9296 14.7019L10.737 15.2982C10.6908 15.3214 10.6397 15.3334 10.588 15.3334L9.57358 15.3334C9.43011 15.3334 9.30273 15.4252 9.25735 15.5613L8.68378 17.2821C8.67242 17.3161 8.66666 17.3517 8.66666 17.3875L8.66666 18.3334C8.66666 18.5175 8.51743 18.6667 8.33331 18.6667L7 18.6667C6.81589 18.6667 6.66666 18.816 6.66666 19.0001L6.66666 21.1274C6.66666 21.2537 6.73798 21.3691 6.85092 21.4255L7.85092 21.9255C7.94476 21.9725 8.05521 21.9725 8.14905 21.9255L9.20984 21.3952C9.28891 21.3556 9.34903 21.2863 9.37698 21.2024L9.95633 19.4644C9.98428 19.3805 10.0444 19.3112 10.1235 19.2717L11.2629 18.7019C11.3092 18.6788 11.3603 18.6667 11.412 18.6667L13.1273 18.6667C13.2536 18.6667 13.369 18.7381 13.4254 18.851L13.9648 19.9297C13.9879 19.976 14 20.027 14 20.0788L14 21.1953C14 21.2838 14.0351 21.3685 14.0976 21.4311L14.431 21.7644C14.5611 21.8946 14.7722 21.8946 14.9023 21.7644L15.1999 21.4669C15.2827 21.3841 15.3159 21.2639 15.2875 21.1503L14.7701 19.0806C14.7176 18.8704 14.8766 18.6667 15.0933 18.6667C15.2366 18.6667 15.3639 18.7585 15.4092 18.8945L15.9751 20.5921C15.9915 20.6412 16.019 20.6858 16.0556 20.7224ZM9.33331 12.6667C9.33331 13.0349 9.03485 13.3334 8.66666 13.3334C8.29846 13.3334 8 13.0349 8 12.6667C8 12.2986 8.29846 12.0001 8.66666 12.0001C9.03485 12.0001 9.33331 12.2986 9.33331 12.6667ZM11.3333 21.3334C11.7015 21.3334 12 21.0349 12 20.6667C12 20.2986 11.7015 20.0001 11.3333 20.0001C10.9651 20.0001 10.6667 20.2986 10.6667 20.6667C10.6667 21.0349 10.9651 21.3334 11.3333 21.3334Z" clip-rule="evenodd" fill="" fill-opacity="1.000000" fill-rule="evenodd"/>
		</mask>
		<path id="Rectangle 1073" d="M16.0556 20.7224L17.0976 21.7644C17.2278 21.8946 17.4388 21.8946 17.569 21.7644L18.6284 20.705C18.6537 20.6797 18.6748 20.6504 18.6909 20.6184L19.2716 19.4569C19.3111 19.3778 19.3804 19.3177 19.4643 19.2898L21.1054 18.7427C21.2415 18.6974 21.3333 18.57 21.3333 18.4265L21.3333 16.7677C21.3333 16.7019 21.3528 16.6375 21.3893 16.5828L22.4572 14.9809C22.5684 14.8141 22.5083 14.5876 22.3289 14.4979L21.3333 14.0001L19.5452 12.808C19.4201 12.7246 19.3663 12.5678 19.4138 12.4252L19.9348 10.8622C19.9748 10.7424 19.9436 10.6104 19.8543 10.5211L19.431 10.0977C19.3684 10.0352 19.3333 9.95041 19.3333 9.862L19.3333 8.07877C19.3333 8.02701 19.3213 7.97598 19.2981 7.92969L18.7588 6.85101C18.7023 6.73807 18.5869 6.66675 18.4606 6.66675L17.3874 6.66675C17.3516 6.66675 17.316 6.67252 17.282 6.68387L15.408 7.30853C15.3589 7.32489 15.3143 7.35248 15.2777 7.38907L13.3333 9.3334L12.0976 10.5691C12.0351 10.6316 12 10.7164 12 10.8048L12 11.862C12 11.9504 12.0351 12.0352 12.0976 12.0977L12.4968 12.4969C12.5982 12.5983 12.7532 12.6235 12.8815 12.5593L13.5252 12.2375C13.7433 12.1284 14 12.287 14 12.5309C14 12.6179 14.0345 12.7013 14.0961 12.7628L14.569 13.2358C14.6315 13.2983 14.7163 13.3334 14.8047 13.3334L15.0931 13.3334C15.2365 13.3334 15.3639 13.2416 15.4093 13.1055L15.9829 11.3847C15.9942 11.3507 16 11.3152 16 11.2793L16 10.1382C16 10.0497 16.0351 9.96497 16.0976 9.90244L17.0976 8.90247C17.2278 8.77228 17.4388 8.77228 17.569 8.90247L17.8301 9.16354C17.9315 9.26498 17.9567 9.41998 17.8925 9.54831L17.3685 10.5964C17.3454 10.6426 17.3333 10.6937 17.3333 10.7454L17.3333 11.6667C17.3333 11.8508 17.4826 12.0001 17.6667 12.0001L18.3333 12.0001C18.5174 12.0001 18.6667 12.1493 18.6667 12.3334C18.6667 12.5175 18.5174 12.6667 18.3333 12.6667L17.5736 12.6667C17.4301 12.6667 17.3027 12.7585 17.2574 12.8947L16.7426 14.4388C16.6973 14.575 16.5699 14.6667 16.4264 14.6667L14.8727 14.6667C14.7464 14.6667 14.631 14.5954 14.5745 14.4825L14.2068 13.7471C14.1051 13.5436 13.8339 13.4995 13.673 13.6604L13.431 13.9025C13.3684 13.965 13.3333 14.0497 13.3333 14.1382L13.3333 14.3334C13.3333 14.5175 13.1841 14.6667 13 14.6667L12.0787 14.6667C12.0269 14.6667 11.9759 14.6788 11.9296 14.7019L10.737 15.2982C10.6908 15.3214 10.6397 15.3334 10.588 15.3334L9.57358 15.3334C9.43011 15.3334 9.30273 15.4252 9.25735 15.5613L8.68378 17.2821C8.67242 17.3161 8.66666 17.3517 8.66666 17.3875L8.66666 18.3334C8.66666 18.5175 8.51743 18.6667 8.33331 18.6667L7 18.6667C6.81589 18.6667 6.66666 18.816 6.66666 19.0001L6.66666 21.1274C6.66666 21.2537 6.73798 21.3691 6.85092 21.4255L7.85092 21.9255C7.94476 21.9725 8.05521 21.9725 8.14905 21.9255L9.20984 21.3952C9.28891 21.3556 9.34903 21.2863 9.37698 21.2024L9.95633 19.4644C9.98428 19.3805 10.0444 19.3112 10.1235 19.2717L11.2629 18.7019C11.3092 18.6788 11.3603 18.6667 11.412 18.6667L13.1273 18.6667C13.2536 18.6667 13.369 18.7381 13.4254 18.851L13.9648 19.9297C13.9879 19.976 14 20.027 14 20.0788L14 21.1953C14 21.2838 14.0351 21.3685 14.0976 21.4311L14.431 21.7644C14.5611 21.8946 14.7722 21.8946 14.9023 21.7644L15.1999 21.4669C15.2827 21.3841 15.3159 21.2639 15.2875 21.1503L14.7701 19.0806C14.7176 18.8704 14.8766 18.6667 15.0933 18.6667C15.2366 18.6667 15.3639 18.7585 15.4092 18.8945L15.9751 20.5921C15.9915 20.6412 16.019 20.6858 16.0556 20.7224ZM9.33331 12.6667C9.33331 13.0349 9.03485 13.3334 8.66666 13.3334C8.29846 13.3334 8 13.0349 8 12.6667C8 12.2986 8.29846 12.0001 8.66666 12.0001C9.03485 12.0001 9.33331 12.2986 9.33331 12.6667ZM11.3333 21.3334C11.7015 21.3334 12 21.0349 12 20.6667C12 20.2986 11.7015 20.0001 11.3333 20.0001C10.9651 20.0001 10.6667 20.2986 10.6667 20.6667C10.6667 21.0349 10.9651 21.3334 11.3333 21.3334Z" clip-rule="evenodd" fill="#FFFFFF" fill-opacity="1.000000" fill-rule="evenodd" mask="url(#mask_17_3876)"/>
		<path id="Rectangle 1073" d="" fill="#979797" fill-opacity="0.000000" fill-rule="nonzero"/>
	</g>
	<g mask="url(#mask17_3874)">
		<path id="Rectangle 1078" d="M9.96 12.73C9.98 12.69 10 12.63 10 12.58L10 12.07C10 12.02 9.98 11.97 9.96 11.92L9.57 11.14C9.46 10.92 9.62 10.66 9.87 10.66L10.33 10.66C10.51 10.66 10.66 10.81 10.66 11L10.66 12.58C10.66 12.63 10.67 12.69 10.7 12.73L11.09 13.51C11.2 13.73 11.04 14 10.79 14L9.87 14C9.62 14 9.46 13.73 9.57 13.51L9.96 12.73Z" fill="#FFFFFF" fill-opacity="1.000000" fill-rule="evenodd"/>
		<path id="Rectangle 1078" d="M10 12.07C10 12.02 9.98 11.97 9.96 11.92L9.57 11.14C9.46 10.92 9.62 10.66 9.87 10.66L10.33 10.66C10.51 10.66 10.66 10.81 10.66 11L10.66 12.58C10.66 12.63 10.67 12.69 10.7 12.73L11.09 13.51C11.2 13.73 11.04 14 10.79 14L9.87 14C9.62 14 9.46 13.73 9.57 13.51L9.96 12.73C9.98 12.69 10 12.63 10 12.58L10 12.07Z" stroke="#979797" stroke-opacity="0" stroke-width="0.000000"/>
	</g>
</svg>
