<svg viewBox="0 0 28 28" xmlns="http://www.w3.org/2000/svg" xmlns:xlink="http://www.w3.org/1999/xlink" width="28.000000" height="28.000000" fill="none" customFrame="#000000">
	<defs>
		<filter id="pixso_custom_mask_type_alpha">
			<feColorMatrix type="matrix" values="0 0 0 0 1 0 0 0 0 1 0 0 0 0 1 0 0 0 1 0 " />
		</filter>
	</defs>
	<mask id="mask_379" width="28.000000" height="20.000000" x="0.000000" y="4.000000" maskUnits="userSpaceOnUse">
		<g filter="url(#pixso_custom_mask_type_alpha)">
			<rect id="Mask" width="28.000000" height="20.000000" x="0.000000" y="4.000000" rx="3.000000" fill="rgb(255,255,255)" />
			<rect id="Mask" width="27.500000" height="19.500000" x="0.250000" y="4.250000" rx="2.750000" stroke="rgb(245,245,245)" stroke-width="0.5" />
		</g>
	</mask>
	<rect id="Chile" width="28.000000" height="28.000000" x="0.000000" y="0.000000" fill="rgb(255,255,255)" fill-opacity="0" />
	<rect id="Mask" width="28.000000" height="20.000000" x="0.000000" y="4.000000" rx="3.000000" fill="rgb(255,255,255)" />
	<rect id="Mask" width="27.500000" height="19.500000" x="0.250000" y="4.250000" rx="2.750000" stroke="rgb(214,216,221)" stroke-width="0.5" />
	<g mask="url(#mask_379)">
		<path id="Rectangle 2" d="M0 24L28 24L28 13.3333L0 13.3333L0 24Z" fill="rgb(234,59,46)" fill-rule="evenodd" />
		<path id="Rectangle 2" d="M28 24L28 13.3333L0 13.3333L0 24L28 24Z" fill-rule="evenodd" stroke="rgb(150.96,150.96,150.96)" stroke-opacity="0" stroke-width="0" />
		<rect id="Rectangle 83" width="9.333333" height="9.333333" x="0.000000" y="4.000000" fill="rgb(11,72,194)" />
		<rect id="Rectangle 83" width="9.333333" height="9.333333" x="0.000000" y="4.000000" stroke="rgb(150.96,150.96,150.96)" stroke-opacity="0" stroke-width="0" />
		<path id="Star 8" d="M4.66667 9.70667L3.09924 10.824L3.67757 8.98804L2.13052 7.84262L4.05537 7.82529L4.66667 6L5.27796 7.82529L7.20282 7.84262L5.65577 8.98804L6.23409 10.824L4.66667 9.70667Z" fill="rgb(255,255,255)" fill-rule="evenodd" />
		<path id="Star 8" d="M3.09924 10.824L3.67757 8.98804L2.13052 7.84262L4.05537 7.82529L4.66667 6L5.27796 7.82529L7.20282 7.84262L5.65577 8.98804L6.23409 10.824L4.66667 9.70667L3.09924 10.824Z" fill-rule="evenodd" stroke="rgb(150.96,150.96,150.96)" stroke-opacity="0" stroke-width="0" />
	</g>
</svg>
