<svg width="28.000000" height="28.000000" viewBox="0 0 28 28" fill="none" xmlns="http://www.w3.org/2000/svg" xmlns:xlink="http://www.w3.org/1999/xlink">
	<desc>
			Created with Pixso.
	</desc>
	<defs>
		<clipPath id="clip107628_877">
			<rect id="Christmas Island" width="28.000000" height="28.000000" fill="white" fill-opacity="0"/>
		</clipPath>
	</defs>
	<rect id="Christmas Island" width="28.000000" height="28.000000" fill="#FFFFFF" fill-opacity="0"/>
	<g clip-path="url(#clip107628_877)">
		<mask id="mask107628_864" mask-type="alpha" maskUnits="userSpaceOnUse" x="0.000000" y="3.999939" width="28.000000" height="20.000000">
			<path id="path14" d="M25 23.99L3 23.99C1.34 23.99 0 22.65 0 20.99L0 6.99C0 5.34 1.34 3.99 3 3.99L25 3.99C26.65 3.99 28 5.34 28 6.99L28 20.99C28 22.65 26.65 23.99 25 23.99Z" fill="#FFFFFF" fill-opacity="1.000000" fill-rule="nonzero"/>
		</mask>
		<g mask="url(#mask107628_864)">
			<path id="path16" d="M28 24L28 4L0 4L28 24Z" fill="#2C8D3D" fill-opacity="1.000000" fill-rule="nonzero"/>
		</g>
		<g mask="url(#mask107628_864)">
			<path id="path18" d="M0 4L28 24L0 24L0 4Z" fill="#2A3D98" fill-opacity="1.000000" fill-rule="nonzero"/>
		</g>
		<g mask="url(#mask107628_864)">
			<path id="path20" d="M15.98 12.23C15.98 12.2 15.98 12.18 15.98 12.16C15.98 12.14 15.99 12.11 15.96 12.1C15.93 12.09 15.9 12.1 15.88 12.12C15.81 12.2 15.68 12.19 15.64 12.1C15.62 12.07 15.6 12.05 15.57 12.06C15.54 12.06 15.51 12.08 15.51 12.11C15.52 12.22 15.43 12.29 15.38 12.36C15.35 12.39 15.32 12.4 15.31 12.35C15.3 12.31 15.28 12.29 15.24 12.3C15.2 12.31 15.18 12.33 15.18 12.37C15.19 12.41 15.18 12.44 15.19 12.48C15.19 12.51 15.18 12.53 15.16 12.55C14.82 12.95 14.41 13.16 13.89 13.15C13.83 13.15 13.79 13.14 13.77 13.08C13.76 13.06 13.73 13.05 13.7 13.04C13.64 13.02 13.58 13.01 13.53 13.03C13.45 13.05 13.39 13.03 13.33 12.99C13.27 12.95 13.22 12.9 13.18 12.85C13.09 12.76 13.02 12.66 12.95 12.55C12.93 12.53 12.91 12.51 12.88 12.53C12.79 12.59 12.77 12.75 12.85 12.82C12.89 12.86 12.94 12.9 12.98 12.94C13.04 13 13.05 13.18 12.99 13.24C12.98 13.25 12.97 13.26 12.95 13.26C12.83 13.26 12.8 13.35 12.8 13.44C12.8 13.58 12.74 13.66 12.62 13.71C12.55 13.74 12.49 13.79 12.46 13.86C12.44 13.93 12.46 13.96 12.53 14.02C12.59 14.06 12.63 14.02 12.66 13.98C12.7 13.94 12.73 13.88 12.77 13.84C12.79 13.81 12.81 13.8 12.84 13.81C12.99 13.83 13.15 13.82 13.3 13.82C13.38 13.81 13.45 13.82 13.49 13.9C13.51 13.94 13.56 13.97 13.6 13.99C13.65 14 13.7 14.01 13.75 13.98C13.82 13.94 13.92 13.95 13.97 14C14.02 14.04 14.06 14.06 14.12 14.07C14.23 14.08 14.33 14.08 14.43 14.11C14.55 14.16 14.61 14.23 14.62 14.36C14.64 14.63 14.62 14.91 14.56 15.18C14.55 15.21 14.56 15.23 14.6 15.24C14.76 15.27 14.92 15.3 15.09 15.3C15.14 15.3 15.16 15.28 15.16 15.23C15.16 15.12 15.16 15 15.16 14.89C15.16 14.84 15.17 14.79 15.19 14.75C15.29 14.61 15.3 14.45 15.33 14.3C15.34 14.25 15.34 14.2 15.32 14.15C15.29 14.06 15.31 13.97 15.33 13.88C15.33 13.86 15.34 13.84 15.37 13.84C15.47 13.83 15.52 13.76 15.55 13.69C15.64 13.5 15.79 13.38 15.96 13.28C16.04 13.24 16.14 13.22 16.14 13.1C16.14 13.1 16.15 13.1 16.15 13.1C16.2 13.02 16.2 13.02 16.11 12.99C16.09 12.99 16.08 12.98 16.06 12.97C15.98 12.94 15.97 12.92 16 12.84C16.05 12.7 16.05 12.57 16.01 12.43C15.98 12.36 15.98 12.29 15.98 12.23ZM12.24 12.52C12.34 12.34 12.45 12.16 12.6 12C13 11.56 13.5 11.29 14.1 11.22C15.28 11.07 16.34 11.81 16.67 12.88C16.86 13.47 16.82 14.04 16.56 14.6C16.55 14.63 16.54 14.65 16.54 14.67C16.4 14.92 16.24 15.15 16.03 15.34C15.65 15.7 15.2 15.91 14.69 15.98C14.05 16.05 13.47 15.9 12.95 15.52C12.44 15.14 12.13 14.63 12.02 14C11.94 13.49 12.01 13.01 12.23 12.55C12.23 12.54 12.23 12.53 12.24 12.52Z" fill="#FAC225" fill-opacity="1.000000" fill-rule="evenodd"/>
		</g>
		<g mask="url(#mask107628_864)">
			<path id="path22" d="M15.98 12.23C15.98 12.29 15.98 12.36 16.01 12.43C16.05 12.57 16.05 12.7 16 12.84C15.97 12.92 15.98 12.94 16.06 12.97C16.08 12.98 16.09 12.99 16.11 12.99C16.2 13.02 16.2 13.02 16.15 13.1C16.15 13.1 16.14 13.1 16.14 13.1C16.14 13.22 16.04 13.24 15.96 13.28C15.79 13.38 15.64 13.5 15.55 13.69C15.52 13.76 15.47 13.83 15.37 13.84C15.34 13.84 15.33 13.86 15.33 13.88C15.31 13.97 15.29 14.06 15.32 14.15C15.34 14.2 15.34 14.25 15.33 14.3C15.3 14.45 15.29 14.61 15.19 14.75C15.17 14.79 15.16 14.84 15.16 14.89C15.16 15 15.16 15.12 15.16 15.23C15.16 15.28 15.14 15.3 15.09 15.3C14.92 15.3 14.76 15.27 14.6 15.24C14.56 15.23 14.55 15.21 14.56 15.18C14.62 14.91 14.64 14.63 14.62 14.36C14.61 14.23 14.55 14.16 14.43 14.11C14.33 14.08 14.23 14.08 14.12 14.07C14.06 14.06 14.02 14.04 13.97 14C13.92 13.95 13.82 13.94 13.75 13.98C13.7 14.01 13.65 14 13.6 13.99C13.56 13.97 13.51 13.94 13.49 13.9C13.45 13.82 13.38 13.81 13.3 13.82C13.15 13.82 12.99 13.83 12.84 13.81C12.81 13.8 12.79 13.81 12.77 13.84C12.73 13.88 12.7 13.94 12.66 13.98C12.63 14.02 12.59 14.06 12.53 14.02C12.46 13.96 12.44 13.93 12.46 13.86C12.49 13.79 12.55 13.74 12.62 13.71C12.74 13.66 12.8 13.58 12.8 13.44C12.8 13.35 12.83 13.26 12.95 13.26C12.97 13.26 12.98 13.25 12.99 13.24C13.05 13.18 13.04 13 12.98 12.94C12.94 12.9 12.89 12.86 12.85 12.82C12.77 12.75 12.79 12.59 12.88 12.53C12.91 12.51 12.93 12.53 12.95 12.55C13.02 12.66 13.09 12.76 13.18 12.85C13.22 12.9 13.27 12.95 13.33 12.99C13.39 13.03 13.45 13.05 13.53 13.03C13.58 13.01 13.64 13.02 13.7 13.04C13.73 13.05 13.76 13.06 13.77 13.08C13.79 13.14 13.83 13.15 13.89 13.15C14.41 13.16 14.82 12.95 15.16 12.55C15.18 12.53 15.19 12.51 15.18 12.48C15.18 12.44 15.19 12.41 15.18 12.37C15.18 12.33 15.2 12.31 15.24 12.3C15.28 12.29 15.3 12.31 15.31 12.35C15.32 12.4 15.35 12.39 15.38 12.36C15.43 12.29 15.52 12.22 15.51 12.11C15.51 12.08 15.54 12.06 15.57 12.06C15.6 12.05 15.62 12.07 15.64 12.1C15.68 12.19 15.81 12.2 15.88 12.12C15.9 12.1 15.93 12.09 15.96 12.1C15.99 12.11 15.98 12.14 15.98 12.16C15.98 12.18 15.98 12.2 15.98 12.23Z" fill="#2E8D3C" fill-opacity="1.000000" fill-rule="evenodd"/>
		</g>
		<g mask="url(#mask107628_864)">
			<path id="path24" d="M26.17 10.69C26.21 10.69 26.25 10.68 26.26 10.64C26.28 10.6 26.24 10.57 26.21 10.55C26.17 10.53 26.12 10.52 26.08 10.53C26.02 10.55 26.01 10.59 26.04 10.63C26.08 10.67 26.12 10.69 26.17 10.69ZM19.93 13.35C19.33 13.35 18.72 13.26 18.13 13.07C18.08 13.06 18.04 13.03 17.99 13.01C17.97 13 17.96 12.99 17.96 12.97C17.96 12.94 17.99 12.94 18.01 12.94C18.08 12.91 18.15 12.94 18.22 12.95C18.87 13.03 19.51 13.09 20.17 13.07C21 13.04 21.78 12.82 22.5 12.4C22.81 12.22 23.1 12.02 23.4 11.84C23.5 11.77 23.56 11.68 23.6 11.57C23.65 11.43 23.72 11.3 23.78 11.17C23.85 11.02 23.89 10.86 23.9 10.7C23.91 10.59 23.85 10.5 23.78 10.43C23.7 10.33 23.58 10.27 23.49 10.19C23.22 9.93 22.9 9.75 22.58 9.58C22.06 9.3 21.61 8.92 21.2 8.5C21.16 8.46 21.12 8.42 21.09 8.38C21.03 8.32 21.05 8.25 21.14 8.22C21.21 8.2 21.27 8.2 21.34 8.22C21.7 8.33 22.07 8.39 22.43 8.49C22.96 8.64 23.44 8.87 23.85 9.25C23.91 9.3 23.99 9.3 24.06 9.28C24.11 9.27 24.12 9.21 24.13 9.17C24.13 8.94 24.19 8.71 24.19 8.48C24.19 8.34 24.15 8.22 24.04 8.13C23.82 7.95 23.67 7.72 23.55 7.47C23.5 7.35 23.47 7.22 23.38 7.11C23.3 7.01 23.24 6.9 23.23 6.76C23.23 6.65 23.17 6.54 23.12 6.44C23.05 6.29 22.96 6.14 22.88 5.99C22.85 5.93 22.85 5.86 22.9 5.81C22.94 5.75 23 5.76 23.06 5.79C23.1 5.8 23.14 5.83 23.17 5.85C23.71 6.3 24.23 6.76 24.69 7.3C24.78 7.39 24.85 7.5 24.93 7.6C25.07 7.79 25.11 8.01 25.14 8.23C25.2 8.68 25.23 9.13 25.31 9.58C25.34 9.75 25.38 9.92 25.46 10.08C25.54 10.26 25.74 10.37 25.94 10.35C25.99 10.34 26.03 10.32 26.07 10.3C26.28 10.21 26.47 10.24 26.66 10.35C26.71 10.38 26.76 10.41 26.8 10.44C26.84 10.46 26.88 10.49 26.91 10.52C26.95 10.55 27 10.59 26.99 10.65C26.98 10.71 26.92 10.72 26.86 10.73C26.84 10.74 26.82 10.74 26.8 10.77C26.76 10.86 26.67 10.9 26.58 10.92C26.53 10.93 26.5 10.95 26.49 11C26.48 11.07 26.42 11.12 26.35 11.15C26.25 11.2 26.15 11.22 26.04 11.23C25.98 11.23 25.93 11.25 25.87 11.28C25.71 11.37 25.53 11.42 25.36 11.48C25.01 11.6 24.66 11.69 24.32 11.84C23.96 12 23.61 12.2 23.28 12.4C23.07 12.53 22.85 12.63 22.61 12.67C22.44 12.7 22.29 12.78 22.14 12.87C21.94 12.98 21.72 13.05 21.5 13.12C21 13.28 20.48 13.35 19.93 13.35Z" fill="#FAC225" fill-opacity="1.000000" fill-rule="evenodd"/>
		</g>
		<g mask="url(#mask107628_864)">
			<path id="path26" d="M27.79 13.64C27.73 13.65 27.68 13.63 27.64 13.58C27.59 13.53 27.61 13.47 27.67 13.46C27.73 13.44 27.79 13.45 27.84 13.48C27.88 13.5 27.92 13.53 27.9 13.59C27.89 13.64 27.84 13.64 27.79 13.64Z" fill="#328E3C" fill-opacity="1.000000" fill-rule="evenodd"/>
		</g>
		<g mask="url(#mask107628_864)">
			<path id="path28" d="M8.53 15.61C8.58 15.73 8.63 15.86 8.68 15.99C8.69 16.02 8.7 16.03 8.74 16.02C8.87 15.97 9 15.94 9.14 15.89C9.06 16.02 9 16.14 8.93 16.25C8.91 16.29 8.91 16.3 8.94 16.33C9.05 16.4 9.16 16.48 9.29 16.56C9.19 16.58 9.1 16.59 9.02 16.6C9 16.6 8.98 16.61 8.95 16.61C8.82 16.63 8.82 16.63 8.84 16.77C8.84 16.87 8.85 16.97 8.86 17.09C8.75 16.99 8.65 16.91 8.56 16.82C8.52 16.78 8.5 16.78 8.47 16.82C8.38 16.91 8.28 16.99 8.17 17.09C8.18 16.99 8.18 16.9 8.19 16.81C8.22 16.63 8.22 16.63 8.04 16.6C7.95 16.58 7.86 16.57 7.75 16.55C7.87 16.47 7.96 16.4 8.07 16.34C8.12 16.3 8.13 16.28 8.1 16.22C8.03 16.12 7.98 16.01 7.91 15.89C8.03 15.93 8.14 15.96 8.25 15.99C8.35 16.02 8.35 16.02 8.39 15.93C8.43 15.82 8.47 15.72 8.51 15.62C8.52 15.62 8.52 15.61 8.53 15.61Z" fill="#FCFCFE" fill-opacity="1.000000" fill-rule="evenodd"/>
		</g>
		<g mask="url(#mask107628_864)">
			<path id="path30" d="M2.65 16.61C2.7 16.75 2.75 16.87 2.79 17C2.81 17.04 2.83 17.04 2.87 17.03C2.99 16.99 3.12 16.95 3.26 16.91C3.18 17.04 3.12 17.16 3.05 17.27C3.03 17.3 3.03 17.32 3.06 17.34C3.17 17.41 3.28 17.49 3.41 17.58C3.26 17.6 3.13 17.62 3 17.64C2.95 17.64 2.95 17.66 2.95 17.71C2.96 17.84 2.97 17.97 2.98 18.11C2.87 18.01 2.77 17.92 2.68 17.83C2.65 17.8 2.63 17.8 2.6 17.83C2.5 17.92 2.4 18.01 2.3 18.11C2.31 17.96 2.31 17.84 2.33 17.71C2.34 17.65 2.31 17.64 2.26 17.63C2.13 17.61 2.01 17.59 1.87 17.57C1.99 17.49 2.1 17.41 2.21 17.34C2.25 17.32 2.25 17.29 2.23 17.25C2.16 17.14 2.1 17.03 2.03 16.91C2.16 16.95 2.29 16.98 2.41 17.02C2.46 17.04 2.48 17.04 2.5 16.98C2.54 16.86 2.59 16.74 2.65 16.61Z" fill="#FCFCFE" fill-opacity="1.000000" fill-rule="evenodd"/>
		</g>
		<g mask="url(#mask107628_864)">
			<path id="path32" d="M6.25 13.63C6.17 13.75 6.11 13.87 6.04 13.99C6.02 14.02 6.02 14.04 6.05 14.06C6.16 14.13 6.27 14.21 6.39 14.29C6.26 14.31 6.15 14.33 6.03 14.35C6.03 14.35 6.02 14.35 6.01 14.35C5.95 14.35 5.93 14.38 5.94 14.44C5.95 14.56 5.96 14.69 5.97 14.83C5.88 14.74 5.8 14.67 5.72 14.6C5.63 14.51 5.63 14.51 5.53 14.6C5.45 14.67 5.37 14.74 5.28 14.82C5.29 14.68 5.3 14.55 5.32 14.42C5.32 14.37 5.31 14.36 5.26 14.35C5.13 14.33 5.01 14.31 4.86 14.29C4.98 14.21 5.08 14.13 5.19 14.07C5.24 14.04 5.24 14.01 5.21 13.96C5.15 13.86 5.09 13.75 5.02 13.63C5.09 13.63 5.14 13.66 5.19 13.67C5.23 13.68 5.27 13.7 5.31 13.71C5.46 13.76 5.46 13.76 5.52 13.6C5.56 13.52 5.59 13.43 5.63 13.33C5.68 13.46 5.73 13.58 5.78 13.7C5.79 13.75 5.81 13.76 5.86 13.74C5.99 13.7 6.11 13.67 6.25 13.63Z" fill="#FCFCFE" fill-opacity="1.000000" fill-rule="evenodd"/>
		</g>
		<g mask="url(#mask107628_864)">
			<path id="path34" d="M6.3 20.82C6.24 20.93 6.17 21.05 6.1 21.16C6.08 21.2 6.09 21.21 6.12 21.23C6.23 21.3 6.34 21.38 6.46 21.47C6.37 21.48 6.29 21.49 6.22 21.51C6.15 21.52 6.06 21.51 6.01 21.55C5.97 21.59 6.02 21.68 6.02 21.74C6.02 21.82 6.03 21.9 6.03 21.99C5.93 21.9 5.83 21.81 5.74 21.72C5.7 21.69 5.68 21.69 5.65 21.72C5.55 21.81 5.46 21.9 5.35 22C5.36 21.85 5.37 21.72 5.38 21.59C5.39 21.54 5.37 21.53 5.33 21.52C5.2 21.5 5.07 21.48 4.94 21.46C4.94 21.43 4.97 21.43 4.98 21.42C5.08 21.36 5.17 21.29 5.27 21.23C5.3 21.21 5.31 21.19 5.29 21.15C5.22 21.04 5.16 20.92 5.08 20.79C5.22 20.84 5.35 20.87 5.47 20.91C5.52 20.93 5.53 20.92 5.55 20.87C5.6 20.75 5.65 20.63 5.7 20.5C5.75 20.63 5.8 20.75 5.84 20.87C5.86 20.92 5.88 20.93 5.93 20.92C6.05 20.88 6.17 20.84 6.29 20.81C6.3 20.82 6.3 20.82 6.3 20.82Z" fill="#FCFCFE" fill-opacity="1.000000" fill-rule="evenodd"/>
		</g>
		<g mask="url(#mask107628_864)">
			<path id="path36" d="M6.09 19.37C6.14 19.21 6.18 19.08 6.22 18.95C6.23 18.92 6.23 18.89 6.19 18.87C6.07 18.79 5.96 18.71 5.83 18.62C5.98 18.62 6.12 18.61 6.25 18.61C6.31 18.61 6.34 18.58 6.35 18.53C6.39 18.41 6.43 18.28 6.48 18.14C6.53 18.29 6.58 18.42 6.62 18.55C6.64 18.59 6.66 18.6 6.7 18.6C6.84 18.6 6.98 18.6 7.13 18.6C7.01 18.69 6.9 18.78 6.79 18.86C6.75 18.88 6.75 18.91 6.76 18.94C6.81 19.07 6.85 19.2 6.89 19.34C6.79 19.27 6.68 19.21 6.58 19.13C6.52 19.09 6.47 19.08 6.41 19.14C6.32 19.21 6.21 19.28 6.09 19.37Z" fill="#FBFBFE" fill-opacity="1.000000" fill-rule="evenodd"/>
		</g>
		<g mask="url(#mask107628_864)">
			<path id="path38" d="M4.92 21.75C4.92 21.75 4.93 21.74 4.93 21.74C4.93 21.75 4.93 21.75 4.93 21.76C4.93 21.76 4.92 21.75 4.92 21.75Z" fill="#FCFCFE" fill-opacity="1.000000" fill-rule="evenodd"/>
		</g>
	</g>
</svg>
