<svg width="28.000000" height="28.000000" viewBox="0 0 28 28" fill="none" xmlns="http://www.w3.org/2000/svg" xmlns:xlink="http://www.w3.org/1999/xlink">
	<desc>
			Created with Pixso.
	</desc>
	<defs/>
	<rect id="CNA" width="28.000000" height="28.000000" fill="#FFFFFF" fill-opacity="0"/>
	<rect id="Mask" y="4.000000" rx="3.000000" width="28.000000" height="20.000000" fill="#FFFFFF" fill-opacity="1.000000"/>
	<rect id="Mask" y="4.000000" rx="3.000000" width="28.000000" height="20.000000" stroke="#979797" stroke-opacity="0" stroke-width="0.000000"/>
	<mask id="mask17_3858" mask-type="alpha" maskUnits="userSpaceOnUse" x="0.000000" y="4.000000" width="28.000000" height="20.000000">
		<rect id="Mask" y="4.000000" rx="3.000000" width="28.000000" height="20.000000" fill="#FFFFFF" fill-opacity="1.000000"/>
		<rect id="Mask" y="4.000000" rx="3.000000" width="28.000000" height="20.000000" stroke="#979797" stroke-opacity="0" stroke-width="0.000000"/>
	</mask>
	<g mask="url(#mask17_3858)">
		<rect id="Mask Copy" y="4.000000" width="28.000000" height="20.000000" fill="#19BFBF" fill-opacity="1.000000"/>
		<rect id="Mask Copy" y="4.000000" width="28.000000" height="20.000000" stroke="#979797" stroke-opacity="0" stroke-width="0.000000"/>
	</g>
	<g mask="url(#mask17_3858)">
		<path id="Rectangle 1064" d="M13.33 18.66L12.75 17.51C12.7 17.4 12.58 17.33 12.46 17.33L12.13 17.33C12.04 17.33 11.96 17.29 11.9 17.23L9.43 14.76C9.36 14.7 9.33 14.61 9.33 14.52L9.33 13.47C9.33 13.38 9.29 13.29 9.23 13.23L8.06 12.06C8.02 12.02 7.99 11.96 7.97 11.91L7.37 9.51C7.35 9.4 7.26 9.31 7.15 9.27L5.35 8.67C5.34 8.66 5.32 8.66 5.31 8.65L4.18 8.09C4.07 8.03 4 7.92 4 7.79L4 7C4 6.81 4.14 6.66 4.33 6.66L5.19 6.66C5.28 6.66 5.36 6.7 5.43 6.76L5.9 7.23C5.96 7.29 6.04 7.33 6.13 7.33L7.19 7.33C7.28 7.33 7.36 7.29 7.43 7.23L7.9 6.76C7.96 6.7 8.04 6.66 8.13 6.66L10.58 6.66C10.63 6.66 10.69 6.67 10.73 6.7L11.92 7.29C11.97 7.32 12.02 7.33 12.07 7.33L13.25 7.33C13.3 7.33 13.35 7.32 13.4 7.29L14.59 6.7C14.64 6.67 14.69 6.66 14.74 6.66L17 6.66C17.18 6.66 17.33 6.81 17.33 7L17.33 7.66C17.33 7.85 17.18 8 17 8L16.33 8C16.14 8 16 8.14 16 8.33L16 9.79C16 9.92 16.07 10.03 16.18 10.09L16.85 10.42C17.07 10.53 17.33 10.37 17.33 10.12L17.33 9C17.33 8.81 17.48 8.66 17.66 8.66L19 8.66C19.18 8.66 19.33 8.81 19.33 9L19.33 9C19.33 9.18 19.48 9.33 19.66 9.33L21 9.33C21.18 9.33 21.33 9.48 21.33 9.66L21.33 10.61C21.33 10.64 21.32 10.68 21.31 10.71L20.69 12.59C20.67 12.64 20.64 12.68 20.61 12.72L18.7 14.62C18.67 14.65 18.65 14.68 18.64 14.71L18.03 15.92C18.01 15.97 18 16.02 18 16.07L18 17C18 17.18 17.85 17.33 17.66 17.33L17.53 17.33C17.41 17.33 17.29 17.26 17.24 17.14L16.75 16.18C16.7 16.07 16.58 16 16.46 16L14.87 16C14.74 16 14.63 16.07 14.57 16.18L14.07 17.18C14.02 17.27 14.02 17.38 14.07 17.48L14.57 18.48C14.63 18.59 14.74 18.66 14.87 18.66L15.86 18.66C15.95 18.66 16.03 18.7 16.09 18.76L17.23 19.9C17.29 19.96 17.33 20.04 17.33 20.13L17.33 21C17.33 21.18 17.18 21.33 17 21.33L16.2 21.33C16.07 21.33 15.96 21.26 15.9 21.14L15.42 20.18C15.36 20.07 15.25 20 15.12 20L14.2 20C14.07 20 13.96 19.92 13.9 19.81L13.33 18.66Z" fill="#FFFFFF" fill-opacity="1.000000" fill-rule="evenodd"/>
		<path id="Rectangle 1064" d="M12.75 17.51C12.7 17.4 12.58 17.33 12.46 17.33L12.13 17.33C12.04 17.33 11.96 17.29 11.9 17.23L9.43 14.76C9.36 14.7 9.33 14.61 9.33 14.52L9.33 13.47C9.33 13.38 9.29 13.29 9.23 13.23L8.06 12.06C8.02 12.02 7.99 11.96 7.97 11.91L7.37 9.51C7.35 9.4 7.26 9.31 7.15 9.27L5.35 8.67C5.34 8.67 5.32 8.65 5.31 8.65L4.18 8.09C4.07 8.03 4 7.92 4 7.79L4 7C4 6.81 4.14 6.66 4.33 6.66L5.19 6.66C5.28 6.66 5.36 6.7 5.43 6.76L5.9 7.23C5.96 7.29 6.04 7.33 6.13 7.33L7.19 7.33C7.28 7.33 7.36 7.29 7.43 7.23L7.9 6.76C7.96 6.7 8.04 6.66 8.13 6.66L10.58 6.66C10.63 6.66 10.69 6.67 10.73 6.7L11.92 7.29C11.97 7.32 12.02 7.33 12.07 7.33L13.25 7.33C13.3 7.33 13.35 7.32 13.4 7.29L14.59 6.7C14.64 6.67 14.69 6.66 14.74 6.66L17 6.66C17.18 6.66 17.33 6.81 17.33 7L17.33 7.66C17.33 7.85 17.18 8 17 8L16.33 8C16.14 8 16 8.14 16 8.33L16 9.79C16 9.92 16.07 10.03 16.18 10.09L16.85 10.42C17.07 10.53 17.33 10.37 17.33 10.12L17.33 9C17.33 8.81 17.48 8.66 17.66 8.66L19 8.66C19.18 8.66 19.33 8.81 19.33 9C19.33 9.18 19.48 9.33 19.66 9.33L21 9.33C21.18 9.33 21.33 9.48 21.33 9.66L21.33 10.61C21.33 10.64 21.32 10.68 21.31 10.71L20.69 12.59C20.67 12.64 20.64 12.68 20.61 12.72L18.7 14.62C18.67 14.65 18.65 14.68 18.64 14.71L18.03 15.92C18.01 15.97 18 16.02 18 16.07L18 17C18 17.18 17.85 17.33 17.66 17.33L17.53 17.33C17.41 17.33 17.29 17.26 17.24 17.14L16.75 16.18C16.7 16.07 16.58 16 16.46 16L14.87 16C14.74 16 14.63 16.07 14.57 16.18L14.07 17.18C14.02 17.27 14.02 17.38 14.07 17.48L14.57 18.48C14.63 18.59 14.74 18.66 14.87 18.66L15.86 18.66C15.95 18.66 16.03 18.7 16.09 18.76L17.23 19.9C17.29 19.96 17.33 20.04 17.33 20.13L17.33 21C17.33 21.18 17.18 21.33 17 21.33L16.2 21.33C16.07 21.33 15.96 21.26 15.9 21.14L15.42 20.18C15.36 20.07 15.25 20 15.12 20L14.2 20C14.07 20 13.96 19.92 13.9 19.81L13.33 18.66L12.75 17.51Z" stroke="#979797" stroke-opacity="0" stroke-width="0.000000"/>
	</g>
</svg>
