<svg width="28.000000" height="28.000000" viewBox="0 0 28 28" fill="none" xmlns="http://www.w3.org/2000/svg" xmlns:xlink="http://www.w3.org/1999/xlink">
	<desc>
			Created with Pixso.
	</desc>
	<defs>
		<linearGradient id="paint_linear_17_3895_0" x1="0.000000" y1="4.000000" x2="0.000000" y2="24.000000" gradientUnits="userSpaceOnUse">
			<stop stop-color="#19BFBF"/>
			<stop offset="1.000000" stop-color="#10ACAC"/>
		</linearGradient>
	</defs>
	<rect id="COC" width="28.000000" height="28.000000" fill="#FFFFFF" fill-opacity="0"/>
	<rect id="Mask" y="4.000000" rx="3.000000" width="28.000000" height="20.000000" fill="#FFFFFF" fill-opacity="1.000000"/>
	<rect id="Mask" y="4.000000" rx="3.000000" width="28.000000" height="20.000000" stroke="#979797" stroke-opacity="0" stroke-width="0.000000"/>
	<mask id="mask17_3894" mask-type="alpha" maskUnits="userSpaceOnUse" x="0.000000" y="4.000000" width="28.000000" height="20.000000">
		<rect id="Mask" y="4.000000" rx="3.000000" width="28.000000" height="20.000000" fill="#FFFFFF" fill-opacity="1.000000"/>
		<rect id="Mask" y="4.000000" rx="3.000000" width="28.000000" height="20.000000" stroke="#979797" stroke-opacity="0" stroke-width="0.000000"/>
	</mask>
	<g mask="url(#mask17_3894)">
		<rect id="Mask Copy" y="4.000000" width="28.000000" height="20.000000" fill="url(#paint_linear_17_3895_0)" fill-opacity="1.000000"/>
		<rect id="Mask Copy" y="4.000000" width="28.000000" height="20.000000" stroke="#979797" stroke-opacity="0" stroke-width="0.000000"/>
	</g>
	<g mask="url(#mask17_3894)">
		<mask id="mask_17_3896" fill="white">
			<path id="Rectangle 1078" d="M13.4445 7.3334L13.794 7.3334C13.9203 7.3334 14.0357 7.40475 14.0921 7.51767L14.5746 8.48248C14.631 8.59543 14.7464 8.66675 14.8727 8.66675L16.4607 8.66675C16.5869 8.66675 16.7023 8.59543 16.7588 8.48248L17.2364 7.52728C17.2943 7.4115 17.2716 7.27167 17.1801 7.18015C16.9906 6.99069 17.1248 6.66675 17.3927 6.66675L17.8113 6.66675C17.9284 6.66675 18.0369 6.72818 18.0971 6.82858L20 10.0001L22.6107 13.9161C22.6472 13.9709 22.6667 14.0352 22.6667 14.101L22.6667 16.5658C22.6667 16.6316 22.6472 16.696 22.6107 16.7507L20.099 20.5183C20.0371 20.6111 19.9331 20.6667 19.8216 20.6667L17.454 20.6667C17.376 20.6667 17.3005 20.6394 17.2406 20.5895L13.4261 17.4107C13.3661 17.3607 13.2906 17.3334 13.2127 17.3334L10.7454 17.3334C10.6936 17.3334 10.6426 17.3455 10.5963 17.3686L6.88156 19.226C6.75323 19.2901 6.59824 19.265 6.4968 19.1635L5.43097 18.0977C5.36847 18.0352 5.33334 17.9504 5.33334 17.862L5.33334 16.101C5.33334 16.0352 5.31387 15.9709 5.27737 15.9161L4.1073 14.161C4.04095 14.0615 4.03302 13.9341 4.08652 13.8271L5.28366 11.4328C5.31592 11.3683 5.36823 11.316 5.43274 11.2837L7.96729 10.0164C7.98904 10.0056 8.0119 9.99121 8.03552 9.99121L10.6014 9.34973C10.6445 9.33896 10.685 9.31967 10.7205 9.29303L13.2444 7.40009C13.3022 7.35681 13.3723 7.3334 13.4445 7.3334ZM19.3333 21.3334L18 21.3334L18.431 21.7644C18.5612 21.8946 18.7722 21.8946 18.9024 21.7644L19.3333 21.3334Z" clip-rule="evenodd" fill="" fill-opacity="1.000000" fill-rule="evenodd"/>
		</mask>
		<path id="Rectangle 1078" d="M13.4445 7.3334L13.794 7.3334C13.9203 7.3334 14.0357 7.40475 14.0921 7.51767L14.5746 8.48248C14.631 8.59543 14.7464 8.66675 14.8727 8.66675L16.4607 8.66675C16.5869 8.66675 16.7023 8.59543 16.7588 8.48248L17.2364 7.52728C17.2943 7.4115 17.2716 7.27167 17.1801 7.18015C16.9906 6.99069 17.1248 6.66675 17.3927 6.66675L17.8113 6.66675C17.9284 6.66675 18.0369 6.72818 18.0971 6.82858L20 10.0001L22.6107 13.9161C22.6472 13.9709 22.6667 14.0352 22.6667 14.101L22.6667 16.5658C22.6667 16.6316 22.6472 16.696 22.6107 16.7507L20.099 20.5183C20.0371 20.6111 19.9331 20.6667 19.8216 20.6667L17.454 20.6667C17.376 20.6667 17.3005 20.6394 17.2406 20.5895L13.4261 17.4107C13.3661 17.3607 13.2906 17.3334 13.2127 17.3334L10.7454 17.3334C10.6936 17.3334 10.6426 17.3455 10.5963 17.3686L6.88156 19.226C6.75323 19.2901 6.59824 19.265 6.4968 19.1635L5.43097 18.0977C5.36847 18.0352 5.33334 17.9504 5.33334 17.862L5.33334 16.101C5.33334 16.0352 5.31387 15.9709 5.27737 15.9161L4.1073 14.161C4.04095 14.0615 4.03302 13.9341 4.08652 13.8271L5.28366 11.4328C5.31592 11.3683 5.36823 11.316 5.43274 11.2837L7.96729 10.0164C7.98904 10.0056 8.0119 9.99121 8.03552 9.99121L10.6014 9.34973C10.6445 9.33896 10.685 9.31967 10.7205 9.29303L13.2444 7.40009C13.3022 7.35681 13.3723 7.3334 13.4445 7.3334ZM19.3333 21.3334L18 21.3334L18.431 21.7644C18.5612 21.8946 18.7722 21.8946 18.9024 21.7644L19.3333 21.3334Z" clip-rule="evenodd" fill="#FFFFFF" fill-opacity="1.000000" fill-rule="evenodd" mask="url(#mask_17_3896)"/>
		<path id="Rectangle 1078" d="" fill="#979797" fill-opacity="0.000000" fill-rule="nonzero"/>
	</g>
</svg>
