<svg width="28.000000" height="28.000000" viewBox="0 0 28 28" fill="none" xmlns="http://www.w3.org/2000/svg" xmlns:xlink="http://www.w3.org/1999/xlink">
	<desc>
			Created with Pixso.
	</desc>
	<defs>
		<clipPath id="clip107709_1127">
			<rect id="Cocos Keeling Islands" width="28.000000" height="28.000000" transform="translate(28.000000 28.000000) rotate(180.000000)" fill="white" fill-opacity="0"/>
		</clipPath>
	</defs>
	<rect id="Cocos Keeling Islands" width="28.000000" height="28.000000" transform="translate(28.000000 28.000000) rotate(180.000000)" fill="#FFFFFF" fill-opacity="0"/>
	<g clip-path="url(#clip107709_1127)">
		<rect id="Mask Copy" y="4.000000" rx="3.000000" width="28.000000" height="20.000000" fill="#008000" fill-opacity="1.000000"/>
		<rect id="Mask Copy" x="0.250000" y="4.250000" rx="3.000000" width="27.500000" height="19.500000" stroke="#F5F5F5" stroke-opacity="0" stroke-width="0.500000"/>
		<path id="Subtract" d="M14.5424 10.8176C12.6935 10.8176 11.1947 12.3165 11.1947 14.1653C11.1947 16.0142 12.6935 17.513 14.5424 17.513C15.4154 17.513 16.2104 17.1788 16.8064 16.6313C16.4397 16.8126 16.0268 16.9144 15.5901 16.9144C14.0719 16.9144 12.8412 15.6837 12.8412 14.1654C12.8412 12.6472 14.0719 11.4164 15.5901 11.4164C16.027 11.4164 16.4401 11.5184 16.8069 11.6997C16.2109 11.152 15.4157 10.8176 14.5424 10.8176Z" clip-rule="evenodd" fill="#FFE000" fill-opacity="1.000000" fill-rule="evenodd"/>
		<circle id="Ellipse 2893" cx="4.789795" cy="9.379272" r="3.445186" fill="#FFE000" fill-opacity="1.000000"/>
		<path id="Star 30" d="M18.56 12.04L18.33 12.7L17.67 12.46L18.05 13.05L17.46 13.42L18.15 13.49L18.07 14.19L18.56 13.69L19.05 14.19L18.96 13.49L19.66 13.42L19.06 13.05L19.44 12.46L18.78 12.7L18.56 12.04Z" fill="#FFE000" fill-opacity="1.000000" fill-rule="evenodd"/>
		<path id="Star 31" d="M22.54 7.72L22.31 8.38L21.65 8.14L22.03 8.73L21.44 9.1L22.13 9.17L22.05 9.86L22.54 9.36L23.03 9.86L22.94 9.17L23.64 9.1L23.04 8.73L23.42 8.14L22.76 8.38L22.54 7.72Z" fill="#FFE000" fill-opacity="1.000000" fill-rule="evenodd"/>
		<path id="Star 32" d="M26.08 11.01L25.86 11.67L25.2 11.43L25.58 12.02L24.98 12.39L25.68 12.46L25.59 13.15L26.08 12.66L26.57 13.15L26.49 12.46L27.18 12.39L26.59 12.02L26.97 11.43L26.31 11.67L26.08 11.01Z" fill="#FFE000" fill-opacity="1.000000" fill-rule="evenodd"/>
		<path id="Star 33" d="M22.54 18.35L22.31 19.01L21.65 18.78L22.03 19.37L21.44 19.73L22.13 19.81L22.05 20.5L22.54 20L23.03 20.5L22.94 19.81L23.64 19.73L23.04 19.37L23.42 18.78L22.76 19.01L22.54 18.35Z" fill="#FFE000" fill-opacity="1.000000" fill-rule="evenodd"/>
		<path id="Star 34" d="M24.15 14.14L23.97 14.57L23.51 14.61L23.86 14.92L23.75 15.37L24.15 15.14L24.55 15.37L24.45 14.92L24.8 14.61L24.34 14.57L24.15 14.14Z" fill="#FFE000" fill-opacity="1.000000" fill-rule="evenodd"/>
		<path id="Vector 1334 (Stroke)" d="M5.06 8.74C5.14 8.74 5.21 8.8 5.21 8.88C5.22 9.77 5.17 11 4.78 11.81C4.68 12.01 4.05 11.96 4.14 11.76C4.63 10.75 4.93 10.04 4.92 8.89C4.92 8.81 4.98 8.74 5.06 8.74Z" fill="#7B3100" fill-opacity="1.000000" fill-rule="evenodd"/>
		<path id="Vector 1335" d="M3.57 7.25C4.24 7.27 4.52 8.18 4.67 8.01C4.53 6.22 6.08 6.96 6.03 6.97C5.46 7.09 5.19 8.04 5.38 8.17C5.47 8.23 5.71 7.86 6.03 7.86C6.85 7.86 6.95 8.69 6.9 9.05C6.18 8.59 5.65 8.67 5.98 8.9C6.3 9.13 6.16 9.86 6.1 10.09C5.93 9.66 5.39 9.15 5.14 9.11C4.82 9.05 3.95 10.31 3.89 10.01C3.84 9.7 4.19 8.91 4.14 8.8C4.07 8.64 2.76 8.93 2.1 9.2C2.06 9.17 2.09 8.99 2.59 8.5C3.1 8 3.76 7.93 4.03 7.96C3.66 7.72 3.04 7.23 3.57 7.25Z" fill="#008000" fill-opacity="1.000000" fill-rule="nonzero"/>
		<path id="Vector 1335" d="M3.57 7.25C3.04 7.23 3.66 7.72 4.03 7.96C3.76 7.93 3.1 8 2.59 8.5C2.09 8.99 2.06 9.17 2.1 9.2C2.76 8.93 4.07 8.64 4.14 8.8C4.19 8.91 3.84 9.7 3.89 10.01C3.95 10.31 4.82 9.05 5.14 9.11C5.39 9.15 5.93 9.66 6.1 10.09C6.16 9.86 6.3 9.13 5.98 8.9C5.65 8.67 6.18 8.59 6.9 9.05C6.95 8.69 6.85 7.86 6.03 7.86C5.71 7.86 5.47 8.23 5.38 8.17C5.19 8.04 5.46 7.09 6.03 6.97C6.08 6.96 4.53 6.22 4.67 8.01C4.52 8.18 4.24 7.27 3.57 7.25Z" stroke="#000000" stroke-opacity="0" stroke-width="1.000000"/>
	</g>
</svg>
