<svg width="28" height="28" viewBox="0 0 28 28" fill="none" xmlns="http://www.w3.org/2000/svg">
<rect y="4" width="28" height="20" rx="3" fill="#008000"/>
<path fill-rule="evenodd" clip-rule="evenodd" d="M16.8069 11.6997C16.4401 11.5184 16.027 11.4165 15.5901 11.4165C14.0719 11.4165 12.8411 12.6472 12.8411 14.1654C12.8411 15.6836 14.0719 16.9144 15.5901 16.9144C16.0268 16.9144 16.4397 16.8126 16.8064 16.6314C16.2104 17.1788 15.4154 17.513 14.5424 17.513C12.6935 17.513 11.1947 16.0142 11.1947 14.1653C11.1947 12.3164 12.6935 10.8176 14.5424 10.8176C15.4157 10.8176 16.2108 11.152 16.8069 11.6997Z" fill="#FFE000"/>
<circle cx="4.78979" cy="9.37927" r="3.44519" fill="#FFE000"/>
<path d="M18.5623 12.0436L18.7877 12.705L19.4454 12.4689L19.0688 13.0575L19.6635 13.4244L18.9685 13.497L19.0524 14.1907L18.5623 13.6927L18.0722 14.1907L18.1561 13.497L17.4611 13.4244L18.0557 13.0575L17.6792 12.4689L18.3368 12.705L18.5623 12.0436Z" fill="#FFE000"/>
<path d="M22.542 7.72009L22.7675 8.38148L23.4251 8.14537L23.0486 8.73399L23.6432 9.10095L22.9482 9.17356L23.0321 9.86726L22.542 9.36918L22.0519 9.86726L22.1358 9.17356L21.4408 9.10095L22.0355 8.73399L21.6589 8.14537L22.3166 8.38148L22.542 7.72009Z" fill="#FFE000"/>
<path d="M26.0878 11.0114L26.3133 11.6727L26.9709 11.4366L26.5944 12.0252L27.189 12.3922L26.494 12.4648L26.5779 13.1585L26.0878 12.6604L25.5977 13.1585L25.6816 12.4648L24.9866 12.3922L25.5813 12.0252L25.2047 11.4366L25.8624 11.6727L26.0878 11.0114Z" fill="#FFE000"/>
<path d="M22.542 18.3573L22.7675 19.0187L23.4251 18.7826L23.0486 19.3712L23.6432 19.7382L22.9482 19.8108L23.0321 20.5045L22.542 20.0064L22.0519 20.5045L22.1358 19.8108L21.4408 19.7382L22.0355 19.3712L21.6589 18.7826L22.3166 19.0187L22.542 18.3573Z" fill="#FFE000"/>
<path d="M24.1578 14.1481L24.3418 14.5755L24.8052 14.6184L24.4556 14.9256L24.5579 15.3795L24.1578 15.1419L23.7576 15.3795L23.8599 14.9256L23.5103 14.6184L23.9737 14.5755L24.1578 14.1481Z" fill="#FFE000"/>
<path fill-rule="evenodd" clip-rule="evenodd" d="M5.06572 8.74647C5.14557 8.74569 5.21093 8.8098 5.2117 8.88965C5.22026 9.77447 5.17929 11.0027 4.78732 11.8159C4.68903 12.0198 4.05329 11.963 4.14995 11.7625C4.63617 10.7538 4.93367 10.0423 4.92254 8.89245C4.92176 8.8126 4.98587 8.74724 5.06572 8.74647Z" fill="#7B3100"/>
<path d="M3.57725 7.25686C4.24163 7.27974 4.52415 8.18087 4.67687 8.01284C4.53941 6.22589 6.08211 6.96449 6.03617 6.97428C5.46343 7.09646 5.19085 8.0424 5.38707 8.17324C5.47694 8.23317 5.71544 7.86779 6.03617 7.86779C6.85517 7.86779 6.95765 8.69508 6.90674 9.05146C6.18127 8.59326 5.65893 8.67421 5.98272 8.90636C6.30651 9.13851 6.16599 9.86601 6.1049 10.09C5.9369 9.66237 5.39929 9.15531 5.1427 9.11255C4.82197 9.05909 3.95137 10.3191 3.89795 10.0137C3.84452 9.7082 4.1974 8.91327 4.14995 8.80708C4.07878 8.6478 2.7652 8.93691 2.10337 9.20419C2.0601 9.17619 2.09881 8.99647 2.59977 8.50163C3.10073 8.00678 3.76561 7.93907 4.03543 7.96708C3.66124 7.72271 3.04574 7.23855 3.57725 7.25686Z" fill="#008000"/>
</svg>
