<svg viewBox="0 0 28 28" xmlns="http://www.w3.org/2000/svg" xmlns:xlink="http://www.w3.org/1999/xlink" width="28.000000" height="28.000000" fill="none" customFrame="#000000">
	<defs>
		<filter id="pixso_custom_mask_type_alpha">
			<feColorMatrix type="matrix" values="0 0 0 0 1 0 0 0 0 1 0 0 0 0 1 0 0 0 1 0 " />
		</filter>
	</defs>
	<mask id="mask_373" width="28.000000" height="20.000000" x="0.000000" y="4.000000" maskUnits="userSpaceOnUse">
		<g filter="url(#pixso_custom_mask_type_alpha)">
			<rect id="Mask" width="28.000000" height="20.000000" x="0.000000" y="4.000000" rx="3.000000" fill="rgb(255,255,255)" />
			<rect id="Mask" width="27.500000" height="19.500000" x="0.250000" y="4.250000" rx="2.750000" stroke="rgb(245,245,245)" stroke-width="0.5" />
		</g>
	</mask>
	<rect id="Comoros" width="28.000000" height="28.000000" x="0.000000" y="0.000000" fill="rgb(255,255,255)" fill-opacity="0" />
	<rect id="Mask" width="28.000000" height="20.000000" x="0.000000" y="4.000000" rx="3.000000" fill="rgb(255,255,255)" />
	<rect id="Mask" width="27.500000" height="19.500000" x="0.250000" y="4.250000" rx="2.750000" stroke="rgb(214,216,221)" stroke-width="0.5" />
	<g mask="url(#mask_373)">
		<path id="Rectangle 2" d="M0 9.33333L28 9.33333L28 4L0 4L0 9.33333Z" fill="rgb(255,203,73)" fill-rule="evenodd" />
		<path id="Rectangle 2" d="M28 9.33333L28 4L0 4L0 9.33333L28 9.33333Z" fill-rule="evenodd" stroke="rgb(150.96,150.96,150.96)" stroke-opacity="0" stroke-width="0" />
		<path id="Rectangle 2" d="M0 18.6666L28 18.6666L28 13.3333L0 13.3333L0 18.6666Z" fill="rgb(220,29,52)" fill-rule="evenodd" />
		<path id="Rectangle 2" d="M28 18.6666L28 13.3333L0 13.3333L0 18.6666L28 18.6666Z" fill-rule="evenodd" stroke="rgb(150.96,150.96,150.96)" stroke-opacity="0" stroke-width="0" />
		<path id="Rectangle 2" d="M0 24L28 24L28 18.6667L0 18.6667L0 24Z" fill="rgb(73,133,212)" fill-rule="evenodd" />
		<path id="Rectangle 2" d="M28 24L28 18.6667L0 18.6667L0 24L28 24Z" fill-rule="evenodd" stroke="rgb(150.96,150.96,150.96)" stroke-opacity="0" stroke-width="0" />
		<path id="Rectangle 2" d="M0 24L13.3333 14L0 4L0 24Z" fill="rgb(75,163,67)" fill-rule="evenodd" />
		<path id="Rectangle 2" d="M13.3333 14L0 4L0 24L13.3333 14Z" fill-rule="evenodd" stroke="rgb(150.96,150.96,150.96)" stroke-opacity="0" stroke-width="0" />
		<path id="Oval 12" d="M6.33331 17.874C6.01369 17.9562 5.67861 18 5.33331 18C3.12417 18 1.33331 16.2091 1.33331 14C1.33331 11.7909 3.12417 10 5.33331 10C5.67861 10 6.01369 10.0438 6.33331 10.126C4.60809 10.5701 3.33331 12.1362 3.33331 14C3.33331 15.8638 4.60809 17.4299 6.33331 17.874ZM7.33331 12C7.7015 12 7.99998 11.7015 7.99998 11.3333C7.99998 10.9651 7.7015 10.6667 7.33331 10.6667C6.96512 10.6667 6.66665 10.9651 6.66665 11.3333C6.66665 11.7015 6.96512 12 7.33331 12ZM7.33331 14.6667C7.7015 14.6667 7.99998 14.3682 7.99998 14C7.99998 13.6318 7.7015 13.3333 7.33331 13.3333C6.96512 13.3333 6.66665 13.6318 6.66665 14C6.66665 14.3682 6.96512 14.6667 7.33331 14.6667ZM7.33331 17.3333C7.7015 17.3333 7.99998 17.0349 7.99998 16.6667C7.99998 16.2985 7.7015 16 7.33331 16C6.96512 16 6.66665 16.2985 6.66665 16.6667C6.66665 17.0349 6.96512 17.3333 7.33331 17.3333Z" fill="rgb(255,255,255)" fill-rule="evenodd" />
		<path id="Oval 12" d="M6.33331 17.874C6.01369 17.9562 5.67861 18 5.33331 18C3.12417 18 1.33331 16.2091 1.33331 14C1.33331 11.7909 3.12417 10 5.33331 10C5.67861 10 6.01369 10.0438 6.33331 10.126C4.60809 10.5701 3.33331 12.1362 3.33331 14C3.33331 15.8638 4.60809 17.4299 6.33331 17.874ZM7.33331 12C7.7015 12 7.99998 11.7015 7.99998 11.3333C7.99998 10.9651 7.7015 10.6667 7.33331 10.6667C6.96512 10.6667 6.66665 10.9651 6.66665 11.3333C6.66665 11.7015 6.96512 12 7.33331 12ZM7.33331 14.6667C7.7015 14.6667 7.99998 14.3682 7.99998 14C7.99998 13.6318 7.7015 13.3333 7.33331 13.3333C6.96512 13.3333 6.66665 13.6318 6.66665 14C6.66665 14.3682 6.96512 14.6667 7.33331 14.6667ZM7.33331 17.3333C7.7015 17.3333 7.99998 17.0349 7.99998 16.6667C7.99998 16.2985 7.7015 16 7.33331 16C6.96512 16 6.66665 16.2985 6.66665 16.6667C6.66665 17.0349 6.96512 17.3333 7.33331 17.3333Z" fill-rule="evenodd" stroke="rgb(150.96,150.96,150.96)" stroke-opacity="0" stroke-width="0" />
	</g>
</svg>
