<svg width="28.000000" height="28.000000" viewBox="0 0 28 28" fill="none" xmlns="http://www.w3.org/2000/svg" xmlns:xlink="http://www.w3.org/1999/xlink">
	<desc>
			Created with Pixso.
	</desc>
	<defs/>
	<rect id="Comoros" width="28.000000" height="28.000000" fill="#FFFFFF" fill-opacity="0"/>
	<rect id="Mask" y="4.000000" rx="3.000000" width="28.000000" height="20.000000" fill="#FFFFFF" fill-opacity="1.000000"/>
	<rect id="Mask" x="0.250000" y="4.250000" rx="3.000000" width="27.500000" height="19.500000" stroke="#D6D8DD" stroke-opacity="1.000000" stroke-width="0.500000"/>
	<mask id="mask17_5897" mask-type="alpha" maskUnits="userSpaceOnUse" x="0.000000" y="4.000000" width="28.000000" height="20.000000">
		<rect id="Mask" y="4.000000" rx="3.000000" width="28.000000" height="20.000000" fill="#FFFFFF" fill-opacity="1.000000"/>
		<rect id="Mask" x="0.250000" y="4.250000" rx="3.000000" width="27.500000" height="19.500000" stroke="#F5F5F5" stroke-opacity="1.000000" stroke-width="0.500000"/>
	</mask>
	<g mask="url(#mask17_5897)">
		<path id="Rectangle 2" d="M0 9.33L28 9.33L28 4L0 4L0 9.33Z" fill="#FFCB49" fill-opacity="1.000000" fill-rule="evenodd"/>
		<path id="Rectangle 2" d="M28 9.33L28 4L0 4L0 9.33L28 9.33Z" stroke="#979797" stroke-opacity="0" stroke-width="0.000000"/>
	</g>
	<g mask="url(#mask17_5897)">
		<path id="Rectangle 2" d="M0 18.66L28 18.66L28 13.33L0 13.33L0 18.66Z" fill="#DC1D34" fill-opacity="1.000000" fill-rule="evenodd"/>
		<path id="Rectangle 2" d="M28 18.66L28 13.33L0 13.33L0 18.66L28 18.66Z" stroke="#979797" stroke-opacity="0" stroke-width="0.000000"/>
	</g>
	<g mask="url(#mask17_5897)">
		<path id="Rectangle 2" d="M0 24L28 24L28 18.66L0 18.66L0 24Z" fill="#4985D4" fill-opacity="1.000000" fill-rule="evenodd"/>
		<path id="Rectangle 2" d="M28 24L28 18.66L0 18.66L0 24L28 24Z" stroke="#979797" stroke-opacity="0" stroke-width="0.000000"/>
	</g>
	<g mask="url(#mask17_5897)">
		<path id="Rectangle 2" d="M0 24L13.33 14L0 4L0 24Z" fill="#4BA343" fill-opacity="1.000000" fill-rule="evenodd"/>
		<path id="Rectangle 2" d="M13.33 14L0 4L0 24L13.33 14Z" stroke="#979797" stroke-opacity="0" stroke-width="0.000000"/>
	</g>
	<g mask="url(#mask17_5897)">
		<mask id="mask_17_5902" fill="white">
			<path id="Oval 12" d="M6.33331 17.874C6.01369 17.9562 5.67862 18 5.33331 18C3.12418 18 1.33331 16.2092 1.33331 14C1.33331 11.7908 3.12418 10 5.33331 10C5.67862 10 6.01369 10.0438 6.33331 10.126C4.60808 10.5701 3.33331 12.1362 3.33331 14C3.33331 15.8638 4.60808 17.4299 6.33331 17.874ZM7.99998 11.3333C7.99998 11.7015 7.70151 12 7.33331 12C6.96512 12 6.66664 11.7015 6.66664 11.3333C6.66664 10.9651 6.96512 10.6667 7.33331 10.6667C7.70151 10.6667 7.99998 10.9651 7.99998 11.3333ZM7.33331 14.6667C7.70151 14.6667 7.99998 14.3682 7.99998 14C7.99998 13.6318 7.70151 13.3333 7.33331 13.3333C6.96512 13.3333 6.66664 13.6318 6.66664 14C6.66664 14.3682 6.96512 14.6667 7.33331 14.6667ZM7.99998 16.6667C7.99998 17.0349 7.70151 17.3333 7.33331 17.3333C6.96512 17.3333 6.66664 17.0349 6.66664 16.6667C6.66664 16.2985 6.96512 16 7.33331 16C7.70151 16 7.99998 16.2985 7.99998 16.6667Z" clip-rule="evenodd" fill="" fill-opacity="1.000000" fill-rule="evenodd"/>
		</mask>
		<path id="Oval 12" d="M6.33331 17.874C6.01369 17.9562 5.67862 18 5.33331 18C3.12418 18 1.33331 16.2092 1.33331 14C1.33331 11.7908 3.12418 10 5.33331 10C5.67862 10 6.01369 10.0438 6.33331 10.126C4.60808 10.5701 3.33331 12.1362 3.33331 14C3.33331 15.8638 4.60808 17.4299 6.33331 17.874ZM7.99998 11.3333C7.99998 11.7015 7.70151 12 7.33331 12C6.96512 12 6.66664 11.7015 6.66664 11.3333C6.66664 10.9651 6.96512 10.6667 7.33331 10.6667C7.70151 10.6667 7.99998 10.9651 7.99998 11.3333ZM7.33331 14.6667C7.70151 14.6667 7.99998 14.3682 7.99998 14C7.99998 13.6318 7.70151 13.3333 7.33331 13.3333C6.96512 13.3333 6.66664 13.6318 6.66664 14C6.66664 14.3682 6.96512 14.6667 7.33331 14.6667ZM7.99998 16.6667C7.99998 17.0349 7.70151 17.3333 7.33331 17.3333C6.96512 17.3333 6.66664 17.0349 6.66664 16.6667C6.66664 16.2985 6.96512 16 7.33331 16C7.70151 16 7.99998 16.2985 7.99998 16.6667Z" clip-rule="evenodd" fill="#FFFFFF" fill-opacity="1.000000" fill-rule="evenodd" mask="url(#mask_17_5902)"/>
		<path id="Oval 12" d="" fill="#979797" fill-opacity="0.000000" fill-rule="nonzero"/>
	</g>
</svg>
