<svg viewBox="0 0 38.0842 28" xmlns="http://www.w3.org/2000/svg" xmlns:xlink="http://www.w3.org/1999/xlink" width="38.084167" height="28.000000" fill="none" customFrame="#000000">
	<defs>
		<filter id="pixso_custom_mask_type_alpha">
			<feColorMatrix type="matrix" values="0 0 0 0 1 0 0 0 0 1 0 0 0 0 1 0 0 0 1 0 " />
		</filter>
	</defs>
	<mask id="mask_190" width="28.000000" height="20.000000" x="5.725037" y="4.000000" maskUnits="userSpaceOnUse">
		<g filter="url(#pixso_custom_mask_type_alpha)">
			<rect id="Mask" width="28.000000" height="20.000000" x="5.725037" y="4.000000" rx="3.000000" fill="rgb(255,255,255)" />
			<rect id="Mask" width="28.000000" height="20.000000" x="5.725037" y="4.000000" rx="3.000000" stroke="rgb(150.96,150.96,150.96)" stroke-opacity="0" stroke-width="0.000000" />
		</g>
	</mask>
	<rect id="Congo Democratic Republic" width="28.000000" height="28.000000" x="5.725037" y="0.000000" fill="rgb(255,255,255)" fill-opacity="0" />
	<rect id="Mask" width="28.000000" height="20.000000" x="5.725037" y="4.000000" rx="3.000000" fill="rgb(255,255,255)" />
	<rect id="Mask" width="28.000000" height="20.000000" x="5.725037" y="4.000000" rx="3.000000" stroke="rgb(150.96,150.96,150.96)" stroke-opacity="0" stroke-width="0.000000" />
	<g mask="url(#mask_190)">
		<rect id="Mask Copy" width="28.000000" height="20.000000" x="5.725037" y="4.000000" rx="2.000000" fill="rgb(21,138,255)" />
		<rect id="Mask Copy" width="28.000000" height="20.000000" x="5.725037" y="4.000000" rx="2.000000" stroke="rgb(150.96,150.96,150.96)" stroke-opacity="0" stroke-width="0.000000" />
		<path id="Rectangle 69 Copy" d="M0 2.59052e-16L38.6667 2.59052e-16L38.6667 8L0 8L0 2.59052e-16Z" fill="rgb(253,210,22)" fill-rule="evenodd" transform="matrix(-0.891007,0.45399,-0.45399,-0.891007,38.0842,9.20453)" />
		<path id="Rectangle 69 Copy" d="M38.6667 2.59052e-16L38.6667 8L0 8L0 2.59052e-16L38.6667 2.59052e-16Z" fill-rule="evenodd" stroke="rgb(150.96,150.96,150.96)" stroke-opacity="0" stroke-width="0.000000" transform="matrix(-0.891007,0.45399,-0.45399,-0.891007,38.0842,9.20453)" />
		<rect id="Rectangle 69" width="38.666668" height="5.333333" x="0.000000" y="0.000000" fill="rgb(206,17,32)" transform="matrix(-0.891007,0.45399,-0.45399,-0.891007,37.8467,7.7738)" />
		<rect id="Rectangle 69" width="38.666668" height="5.333333" x="0.000000" y="0.000000" stroke="rgb(150.96,150.96,150.96)" stroke-opacity="0" stroke-width="0.000000" transform="matrix(-0.891007,0.45399,-0.45399,-0.891007,37.8467,7.7738)" />
		<path id="Star 8" d="M10.3917 9.96665L8.43246 11.3634L9.15537 9.06837L7.22156 7.63659L9.62762 7.61492L10.3917 5.33331L11.1559 7.61492L13.5619 7.63659L11.6281 9.06837L12.351 11.3634L10.3917 9.96665Z" fill="rgb(253,210,22)" fill-rule="evenodd" />
		<path id="Star 8" d="M8.43246 11.3634L9.15537 9.06837L7.22156 7.63659L9.62762 7.61492L10.3917 5.33331L11.1559 7.61492L13.5619 7.63659L11.6281 9.06837L12.351 11.3634L10.3917 9.96665L8.43246 11.3634Z" fill-rule="evenodd" stroke="rgb(150.96,150.96,150.96)" stroke-opacity="0" stroke-width="0.000000" />
	</g>
</svg>
