<svg width="32.000000" height="32.000000" viewBox="0 0 32 32" fill="none" xmlns="http://www.w3.org/2000/svg" xmlns:xlink="http://www.w3.org/1999/xlink">
	<desc>
			Created with Pixso.
	</desc>
	<defs/>
	<rect id="Congo Republic" width="28.000000" height="28.000000" transform="translate(1.000000 2.000000)" fill="#FFFFFF" fill-opacity="0"/>
	<rect id="Mask" x="1.000000" y="6.000000" rx="3.000000" width="28.000000" height="20.000000" fill="#FFFFFF" fill-opacity="1.000000"/>
	<rect id="Mask" x="1.000000" y="6.000000" rx="3.000000" width="28.000000" height="20.000000" stroke="#979797" stroke-opacity="0" stroke-width="0.000000"/>
	<mask id="mask17_5849" mask-type="alpha" maskUnits="userSpaceOnUse" x="1.000000" y="6.000000" width="28.000000" height="20.000000">
		<rect id="Mask" x="1.000000" y="6.000000" rx="3.000000" width="28.000000" height="20.000000" fill="#FFFFFF" fill-opacity="1.000000"/>
		<rect id="Mask" x="1.000000" y="6.000000" rx="3.000000" width="28.000000" height="20.000000" stroke="#979797" stroke-opacity="0" stroke-width="0.000000"/>
	</mask>
	<g mask="url(#mask17_5849)">
		<path id="Rectangle 74" d="M7.66 24.66L27.66 6L29 6L29 26L7.66 26L7.66 24.66Z" fill="#F33630" fill-opacity="1.000000" fill-rule="evenodd"/>
		<path id="Rectangle 74" d="M27.66 6L29 6L29 26L7.66 26L7.66 24.66L27.66 6Z" stroke="#979797" stroke-opacity="0" stroke-width="0.000000"/>
	</g>
	<g mask="url(#mask17_5849)">
		<path id="Rectangle 74 Copy" d="M22.33 7.33L2.33 26L1 26L1 6L22.33 6L22.33 7.33Z" fill="#009643" fill-opacity="1.000000" fill-rule="evenodd"/>
		<path id="Rectangle 74 Copy" d="M2.33 26L1 26L1 6L22.33 6L22.33 7.33L2.33 26Z" stroke="#979797" stroke-opacity="0" stroke-width="0.000000"/>
	</g>
	<g mask="url(#mask17_5849)">
		<path id="Rectangle 69 Copy" d="M31.24 3.94L4.38 31.75L-0.42 27.12L26.44 -0.69L31.24 3.94Z" fill="#FCDF4A" fill-opacity="1.000000" fill-rule="evenodd"/>
		<path id="Rectangle 69 Copy" d="M4.38 31.75L-0.42 27.12L26.44 -0.69L31.24 3.94L4.38 31.75Z" stroke="#979797" stroke-opacity="0" stroke-width="0.000000"/>
	</g>
</svg>
