<svg width="28.000000" height="28.000000" viewBox="0 0 28 28" fill="none" xmlns="http://www.w3.org/2000/svg" xmlns:xlink="http://www.w3.org/1999/xlink">
	<desc>
			Created with Pixso.
	</desc>
	<defs>
		<linearGradient id="paint_linear_17_5955_0" x1="10.666687" y1="10.666687" x2="10.666687" y2="18.666687" gradientUnits="userSpaceOnUse">
			<stop stop-color="#FF212E"/>
			<stop offset="1.000000" stop-color="#FD0D1B"/>
		</linearGradient>
	</defs>
	<rect id="Croatia" width="28.000000" height="28.000000" fill="#FFFFFF" fill-opacity="0"/>
	<rect id="Mask" y="4.000000" rx="3.000000" width="28.000000" height="20.000000" fill="#FFFFFF" fill-opacity="1.000000"/>
	<rect id="Mask" x="0.250000" y="4.250000" rx="3.000000" width="27.500000" height="19.500000" stroke="#D6D8DD" stroke-opacity="1.000000" stroke-width="0.500000"/>
	<mask id="mask17_5945" mask-type="alpha" maskUnits="userSpaceOnUse" x="0.000000" y="4.000000" width="28.000000" height="20.000000">
		<rect id="Mask" y="4.000000" rx="3.000000" width="28.000000" height="20.000000" fill="#FFFFFF" fill-opacity="1.000000"/>
		<rect id="Mask" x="0.250000" y="4.250000" rx="3.000000" width="27.500000" height="19.500000" stroke="#F5F5F5" stroke-opacity="1.000000" stroke-width="0.500000"/>
	</mask>
	<g mask="url(#mask17_5945)">
		<path id="Rectangle 2" d="M0 10.66L28 10.66L28 4L0 4L0 10.66Z" fill="#FF202D" fill-opacity="1.000000" fill-rule="evenodd"/>
		<path id="Rectangle 2" d="M28 10.66L28 4L0 4L0 10.66L28 10.66Z" stroke="#979797" stroke-opacity="0" stroke-width="0.000000"/>
	</g>
	<g mask="url(#mask17_5945)">
		<g opacity="0.500000">
			<mask id="mask_17_5947" fill="white">
				<path id="Rectangle 675" d="M10.6667 9.33337L11.3334 8.66669L12 9.33337L12 10.6667L10.6667 10.6667L10.6667 9.33337ZM13.3334 9.33337L14 8.66669L14.6667 9.33337L14.6667 10.6667L13.3334 10.6667L13.3334 9.33337ZM16.6667 8.66669L16 9.33337L16 10.6667L17.3334 10.6667L17.3334 9.33337L16.6667 8.66669Z" clip-rule="evenodd" fill="" fill-opacity="1.000000" fill-rule="evenodd"/>
			</mask>
			<path id="Rectangle 675" d="M10.6667 9.33337L11.3334 8.66669L12 9.33337L12 10.6667L10.6667 10.6667L10.6667 9.33337ZM13.3334 9.33337L14 8.66669L14.6667 9.33337L14.6667 10.6667L13.3334 10.6667L13.3334 9.33337ZM16.6667 8.66669L16 9.33337L16 10.6667L17.3334 10.6667L17.3334 9.33337L16.6667 8.66669Z" clip-rule="evenodd" fill="#1895DB" fill-opacity="1.000000" fill-rule="evenodd" mask="url(#mask_17_5947)"/>
			<path id="Rectangle 675" d="" fill="#979797" fill-opacity="0.000000" fill-rule="nonzero"/>
		</g>
	</g>
	<g mask="url(#mask17_5945)">
		<g opacity="0.500000">
			<mask id="mask_17_5951" fill="white">
				<path id="Rectangle 675" d="M12.6667 8.66669L12 9.33337L12 10.6667L13.3333 10.6667L13.3333 9.33337L12.6667 8.66669ZM15.3333 8.66669L14.6667 9.33337L14.6667 10.6667L16 10.6667L16 9.33337L15.3333 8.66669Z" clip-rule="evenodd" fill="" fill-opacity="1.000000" fill-rule="evenodd"/>
			</mask>
			<path id="Rectangle 675" d="M12.6667 8.66669L12 9.33337L12 10.6667L13.3333 10.6667L13.3333 9.33337L12.6667 8.66669ZM15.3333 8.66669L14.6667 9.33337L14.6667 10.6667L16 10.6667L16 9.33337L15.3333 8.66669Z" clip-rule="evenodd" fill="#191F94" fill-opacity="1.000000" fill-rule="evenodd" mask="url(#mask_17_5951)"/>
			<path id="Rectangle 675" d="" fill="#979797" fill-opacity="0.000000" fill-rule="nonzero"/>
		</g>
	</g>
	<g mask="url(#mask17_5945)">
		<path id="Rectangle 2" d="M0 24L28 24L28 17.33L0 17.33L0 24Z" fill="#2027AC" fill-opacity="1.000000" fill-rule="evenodd"/>
		<path id="Rectangle 2" d="M28 24L28 17.33L0 17.33L0 24L28 24Z" stroke="#979797" stroke-opacity="0" stroke-width="0.000000"/>
	</g>
	<g mask="url(#mask17_5945)">
		<mask id="mask_17_5955" fill="white">
			<path id="Rectangle 657" d="M11.3334 10.6667L12 10.6667L12 12L10.6667 12L11.3334 10.6667ZM13.3334 10.6667L14.6667 10.6667L14.6667 12L13.3334 12L13.3334 10.6667ZM16 10.6667L16.6667 10.6667L17.3334 12L16 12L16 10.6667ZM12 12L13.3334 12L13.3334 13.3334L12 13.3334L12 12ZM14.6667 12L16 12L16 13.3334L14.6667 13.3334L14.6667 12ZM10.6667 13.3334L12 13.3334L12 14.6667L10.6667 14.6667L10.6667 13.3334ZM13.3334 13.3334L14.6667 13.3334L14.6667 14.6667L13.3334 14.6667L13.3334 13.3334ZM16 13.3334L17.3334 13.3334L17.3334 14.6667L16 14.6667L16 13.3334ZM12 14.6667L13.3334 14.6667L13.3334 16L12 16L12 14.6667ZM14.6667 14.6667L16 14.6667L16 16L14.6667 16L14.6667 14.6667ZM10.6667 16L12 16L12 17.3334L10.6667 17.3334L10.6667 16ZM13.3334 16L14.6667 16L14.6667 17.3334L13.3334 17.3334L13.3334 16ZM16 16L17.3334 16L17.3334 17.3334L16 17.3334L16 16ZM12 17.3334L13.3334 17.3334L13.3334 18.6667L12 18.6667L12 17.3334ZM14.6667 17.3334L16 17.3334L16 18.6667L14.6667 18.6667L14.6667 17.3334Z" clip-rule="evenodd" fill="" fill-opacity="1.000000" fill-rule="evenodd"/>
		</mask>
		<path id="Rectangle 657" d="M11.3334 10.6667L12 10.6667L12 12L10.6667 12L11.3334 10.6667ZM13.3334 10.6667L14.6667 10.6667L14.6667 12L13.3334 12L13.3334 10.6667ZM16 10.6667L16.6667 10.6667L17.3334 12L16 12L16 10.6667ZM12 12L13.3334 12L13.3334 13.3334L12 13.3334L12 12ZM14.6667 12L16 12L16 13.3334L14.6667 13.3334L14.6667 12ZM10.6667 13.3334L12 13.3334L12 14.6667L10.6667 14.6667L10.6667 13.3334ZM13.3334 13.3334L14.6667 13.3334L14.6667 14.6667L13.3334 14.6667L13.3334 13.3334ZM16 13.3334L17.3334 13.3334L17.3334 14.6667L16 14.6667L16 13.3334ZM12 14.6667L13.3334 14.6667L13.3334 16L12 16L12 14.6667ZM14.6667 14.6667L16 14.6667L16 16L14.6667 16L14.6667 14.6667ZM10.6667 16L12 16L12 17.3334L10.6667 17.3334L10.6667 16ZM13.3334 16L14.6667 16L14.6667 17.3334L13.3334 17.3334L13.3334 16ZM16 16L17.3334 16L17.3334 17.3334L16 17.3334L16 16ZM12 17.3334L13.3334 17.3334L13.3334 18.6667L12 18.6667L12 17.3334ZM14.6667 17.3334L16 17.3334L16 18.6667L14.6667 18.6667L14.6667 17.3334Z" clip-rule="evenodd" fill="url(#paint_linear_17_5955_0)" fill-opacity="1.000000" fill-rule="evenodd" mask="url(#mask_17_5955)"/>
		<path id="Rectangle 657" d="" fill="#979797" fill-opacity="0.000000" fill-rule="nonzero"/>
	</g>
</svg>
