<svg width="28.000000" height="28.000000" viewBox="0 0 28 28" fill="none" xmlns="http://www.w3.org/2000/svg" xmlns:xlink="http://www.w3.org/1999/xlink">
	<desc>
			Created with Pixso.
	</desc>
	<defs/>
	<rect id="CSA" width="28.000000" height="28.000000" fill="#FFFFFF" fill-opacity="0"/>
	<rect id="Mask" y="4.000000" rx="3.000000" width="28.000000" height="20.000000" fill="#FFFFFF" fill-opacity="1.000000"/>
	<rect id="Mask" y="4.000000" rx="3.000000" width="28.000000" height="20.000000" stroke="#979797" stroke-opacity="0" stroke-width="0.000000"/>
	<mask id="mask17_3863" mask-type="alpha" maskUnits="userSpaceOnUse" x="0.000000" y="4.000000" width="28.000000" height="20.000000">
		<rect id="Mask" y="4.000000" rx="3.000000" width="28.000000" height="20.000000" fill="#FFFFFF" fill-opacity="1.000000"/>
		<rect id="Mask" y="4.000000" rx="3.000000" width="28.000000" height="20.000000" stroke="#979797" stroke-opacity="0" stroke-width="0.000000"/>
	</mask>
	<g mask="url(#mask17_3863)">
		<rect id="Mask Copy" y="4.000000" width="28.000000" height="20.000000" fill="#19BFBF" fill-opacity="1.000000"/>
		<rect id="Mask Copy" y="4.000000" width="28.000000" height="20.000000" stroke="#979797" stroke-opacity="0" stroke-width="0.000000"/>
	</g>
	<g mask="url(#mask17_3863)">
		<path id="Rectangle 1068" d="M10 20.04C10 20.01 10 19.98 10.01 19.96L10.66 17.33L11.3 14.76C11.32 14.69 11.32 14.63 11.3 14.57L10.71 12.79C10.68 12.71 10.62 12.64 10.54 12.6L9.51 12.09C9.4 12.03 9.33 11.92 9.33 11.79L9.33 9.41C9.33 9.36 9.34 9.3 9.36 9.26L10 8L10.57 6.85C10.63 6.73 10.74 6.66 10.87 6.66L14.33 6.66C14.51 6.66 14.66 6.81 14.66 7L14.66 7.66C14.66 7.85 14.81 8 15 8L15.66 8C15.85 8 16 8.14 16 8.33L16 9.12C16 9.25 16.07 9.36 16.18 9.42L18.48 10.57C18.59 10.63 18.66 10.74 18.66 10.87L18.66 11.92C18.66 11.97 18.65 12.02 18.63 12.07L18.03 13.25C18.01 13.3 17.97 13.35 17.92 13.38L16.07 14.61C16.02 14.64 15.98 14.69 15.96 14.74L14.7 17.25C14.68 17.3 14.64 17.35 14.59 17.38L12.74 18.61C12.69 18.64 12.65 18.69 12.62 18.74L11.42 21.14C11.36 21.26 11.25 21.33 11.12 21.33L10.33 21.33C10.14 21.33 10 21.18 10 21L10 20.04Z" fill="#FFFFFF" fill-opacity="1.000000" fill-rule="evenodd"/>
		<path id="Rectangle 1068" d="M10.66 17.33L11.3 14.76C11.32 14.69 11.32 14.63 11.3 14.57L10.71 12.79C10.68 12.71 10.62 12.64 10.54 12.6L9.51 12.09C9.4 12.03 9.33 11.92 9.33 11.79L9.33 9.41C9.33 9.36 9.34 9.3 9.36 9.26L10 8L10.57 6.85C10.63 6.73 10.74 6.66 10.87 6.66L14.33 6.66C14.51 6.66 14.66 6.81 14.66 7L14.66 7.66C14.66 7.85 14.81 8 15 8L15.66 8C15.85 8 16 8.14 16 8.33L16 9.12C16 9.25 16.07 9.36 16.18 9.42L18.48 10.57C18.59 10.63 18.66 10.74 18.66 10.87L18.66 11.92C18.66 11.97 18.65 12.02 18.63 12.07L18.03 13.25C18.01 13.3 17.97 13.35 17.92 13.38L16.07 14.61C16.02 14.64 15.98 14.69 15.96 14.74L14.7 17.25C14.68 17.3 14.64 17.35 14.59 17.38L12.74 18.61C12.69 18.64 12.65 18.69 12.62 18.74L11.42 21.14C11.36 21.26 11.25 21.33 11.12 21.33L10.33 21.33C10.14 21.33 10 21.18 10 21L10 20.04C10 20.01 10.01 19.98 10.01 19.96L10.66 17.33Z" stroke="#979797" stroke-opacity="0" stroke-width="0.000000"/>
	</g>
</svg>
