<svg viewBox="0 0 28 28" xmlns="http://www.w3.org/2000/svg" xmlns:xlink="http://www.w3.org/1999/xlink" width="28.000000" height="28.000000" fill="none" customFrame="#000000">
	<defs>
		<filter id="pixso_custom_mask_type_alpha">
			<feColorMatrix type="matrix" values="0 0 0 0 1 0 0 0 0 1 0 0 0 0 1 0 0 0 1 0 " />
		</filter>
	</defs>
	<mask id="mask_370" width="28.000000" height="20.000000" x="0.000000" y="4.000000" maskUnits="userSpaceOnUse">
		<g filter="url(#pixso_custom_mask_type_alpha)">
			<rect id="Mask" width="28.000000" height="20.000000" x="0.000000" y="4.000000" rx="3.000000" fill="rgb(255,255,255)" />
			<rect id="Mask" width="27.500000" height="19.500000" x="0.250000" y="4.250000" rx="2.750000" stroke="rgb(245,245,245)" stroke-width="0.5" />
		</g>
	</mask>
	<rect id="Cuba" width="28.000000" height="28.000000" x="0.000000" y="0.000000" fill="rgb(255,255,255)" fill-opacity="0" />
	<rect id="Mask" width="28.000000" height="20.000000" x="0.000000" y="4.000000" rx="3.000000" fill="rgb(255,255,255)" />
	<rect id="Mask" width="27.500000" height="19.500000" x="0.250000" y="4.250000" rx="2.750000" stroke="rgb(214,216,221)" stroke-width="0.5" />
	<g mask="url(#mask_370)">
		<path id="Rectangle 2" d="M0 8L28 8L28 4L0 4L0 8Z" fill="rgb(11,56,159)" fill-rule="evenodd" />
		<path id="Rectangle 2" d="M28 8L28 4L0 4L0 8L28 8Z" fill-rule="evenodd" stroke="rgb(150.96,150.96,150.96)" stroke-opacity="0" stroke-width="0" />
		<path id="Rectangle 2" d="M0 16L28 16L28 12L0 12L0 16Z" fill="rgb(11,56,159)" fill-rule="evenodd" />
		<path id="Rectangle 2" d="M28 16L28 12L0 12L0 16L28 16Z" fill-rule="evenodd" stroke="rgb(150.96,150.96,150.96)" stroke-opacity="0" stroke-width="0" />
		<path id="Rectangle 2" d="M0 24L28 24L28 20L0 20L0 24Z" fill="rgb(11,56,159)" fill-rule="evenodd" />
		<path id="Rectangle 2" d="M28 24L28 20L0 20L0 24L28 24Z" fill-rule="evenodd" stroke="rgb(150.96,150.96,150.96)" stroke-opacity="0" stroke-width="0" />
		<path id="Rectangle 83" d="M0 4L13.3333 14L0 24L0 4Z" fill="rgb(225,42,67)" fill-rule="evenodd" />
		<path id="Rectangle 83" d="M13.3333 14L0 24L0 4L13.3333 14Z" fill-rule="evenodd" stroke="rgb(150.96,150.96,150.96)" stroke-opacity="0" stroke-width="0" />
		<path id="Star 53" d="M4.66667 15.0227L3.09924 16.1574L3.69403 14.316L2.13052 13.1759L4.06555 13.1726L4.66667 11.3333L5.26779 13.1726L7.20282 13.1759L5.6393 14.316L6.23409 16.1574L4.66667 15.0227Z" fill="rgb(255,255,255)" fill-rule="evenodd" />
		<path id="Star 53" d="M3.09924 16.1574L3.69403 14.316L2.13052 13.1759L4.06555 13.1726L4.66667 11.3333L5.26779 13.1726L7.20282 13.1759L5.6393 14.316L6.23409 16.1574L4.66667 15.0227L3.09924 16.1574Z" fill-rule="evenodd" stroke="rgb(150.96,150.96,150.96)" stroke-opacity="0" stroke-width="0" />
	</g>
</svg>
