<svg width="28.000000" height="28.000000" viewBox="0 0 28 28" fill="none" xmlns="http://www.w3.org/2000/svg" xmlns:xlink="http://www.w3.org/1999/xlink">
	<desc>
			Created with Pixso.
	</desc>
	<defs/>
	<rect id="Curacao" width="28.000000" height="28.000000" transform="translate(0.000000 -0.000061)" fill="#FFFFFF" fill-opacity="0"/>
	<mask id="mask107628_1800" mask-type="alpha" maskUnits="userSpaceOnUse" x="0.000000" y="3.999939" width="28.000000" height="20.000000">
		<rect id="Rectangle 2314" y="3.999939" rx="3.000000" width="28.000000" height="20.000000" fill="#0A2D7A" fill-opacity="1.000000"/>
	</mask>
	<g mask="url(#mask107628_1800)">
		<rect id="Rectangle 2316" y="3.999939" width="28.000000" height="20.000000" fill="#0A2D7A" fill-opacity="1.000000"/>
	</g>
	<g mask="url(#mask107628_1800)">
		<rect id="Rectangle 2315" y="16.488220" width="28.000000" height="2.535211" fill="#F7E750" fill-opacity="1.000000"/>
	</g>
	<g mask="url(#mask107628_1800)">
		<path id="Star 98" d="M6.47 8.41L5.97 9.97L4.33 9.97L5.66 10.93L5.15 12.48L6.47 11.52L7.8 12.48L7.29 10.93L8.62 9.97L6.98 9.97L6.47 8.41Z" fill="#FFFFFF" fill-opacity="1.000000" fill-rule="nonzero"/>
	</g>
	<g mask="url(#mask107628_1800)">
		<path id="Star 99" d="M3.14 5.69L2.77 6.82L1.58 6.82L2.54 7.52L2.17 8.66L3.14 7.96L4.11 8.66L3.74 7.52L4.7 6.82L3.51 6.82L3.14 5.69Z" fill="#FFFFFF" fill-opacity="1.000000" fill-rule="nonzero"/>
	</g>
</svg>
