<svg viewBox="0 0 28 28" xmlns="http://www.w3.org/2000/svg" xmlns:xlink="http://www.w3.org/1999/xlink" width="28.000000" height="28.000000" fill="none" customFrame="#000000" mask="url(#mask_296)">
	<defs>
		<filter id="pixso_custom_mask_type_alpha">
			<feColorMatrix type="matrix" values="0 0 0 0 1 0 0 0 0 1 0 0 0 0 1 0 0 0 1 0 " />
		</filter>
	</defs>
	<mask id="mask_296" width="28.000000" height="20.000000" x="0.000000" y="4.000000" maskUnits="userSpaceOnUse">
		<g filter="url(#pixso_custom_mask_type_alpha)">
			<rect id="Rectangle 2314" width="28.000000" height="20.000000" x="0.000000" y="4.000000" rx="3.000000" fill="rgb(10,45,122)" />
		</g>
	</mask>
	<rect id="Curacao" width="28.000000" height="28.000000" x="0.000000" y="0.000000" fill="rgb(255,255,255)" fill-opacity="0" />
	<rect id="Rectangle 2316" width="28.000000" height="20.000000" x="0.000000" y="4.000000" fill="rgb(10,45,122)" />
	<rect id="Rectangle 2315" width="28.000000" height="2.535211" x="0.000000" y="16.488281" fill="rgb(247,231,80)" />
	<path id="Star 98" d="M6.98481 9.97029L8.62209 9.97029L7.2975 10.9327L7.80345 12.4898L6.47886 11.5274L5.15428 12.4898L5.66022 10.9327L4.33564 9.97029L5.97292 9.97029L6.47886 8.41315L6.98481 9.97029Z" fill="rgb(255,255,255)" fill-rule="evenodd" />
	<path id="Star 99" d="M3.51443 6.82554L4.70828 6.82554L3.74244 7.52727L4.11136 8.66269L3.14551 7.96096L2.17967 8.66269L2.54859 7.52727L1.58274 6.82554L2.77659 6.82554L3.14551 5.69012L3.51443 6.82554Z" fill="rgb(255,255,255)" fill-rule="evenodd" />
</svg>
