<svg width="28.000000" height="28.000000" viewBox="0 0 28 28" fill="none" xmlns="http://www.w3.org/2000/svg" xmlns:xlink="http://www.w3.org/1999/xlink">
	<desc>
			Created with Pixso.
	</desc>
	<defs/>
	<rect id="Cyprus" width="28.000000" height="28.000000" fill="#FFFFFF" fill-opacity="0"/>
	<rect id="Mask" y="4.000000" rx="3.000000" width="28.000000" height="20.000000" fill="#FFFFFF" fill-opacity="1.000000"/>
	<rect id="Mask" x="0.250000" y="4.250000" rx="3.000000" width="27.500000" height="19.500000" stroke="#D6D8DD" stroke-opacity="1.000000" stroke-width="0.500000"/>
	<mask id="mask17_5933" mask-type="alpha" maskUnits="userSpaceOnUse" x="0.000000" y="4.000000" width="28.000000" height="20.000000">
		<rect id="Mask" y="4.000000" rx="3.000000" width="28.000000" height="20.000000" fill="#FFFFFF" fill-opacity="1.000000"/>
		<rect id="Mask" x="0.250000" y="4.250000" rx="3.000000" width="27.500000" height="19.500000" stroke="#F5F5F5" stroke-opacity="1.000000" stroke-width="0.500000"/>
	</mask>
	<g mask="url(#mask17_5933)">
		<path id="Line" d="M20 7.33C20.36 7.15 20.73 7.56 20.5 7.9L20.06 8.56C20.02 8.63 19.96 8.68 19.89 8.73L18.05 9.96C18.01 9.98 17.98 10.01 17.95 10.04L17.8 10.19C17.54 10.45 17.54 10.87 17.8 11.13L18.19 11.52C18.45 11.78 18.45 12.21 18.19 12.47L17.67 12.99C17.47 13.19 17.16 13.24 16.9 13.11L16.59 12.96C16.26 12.8 15.86 12.93 15.7 13.26L15.45 13.75C15.37 13.91 15.23 14.03 15.07 14.08L13.43 14.63C13.36 14.65 13.29 14.66 13.22 14.66L12.41 14.66C12.15 14.66 11.92 14.8 11.81 15.03L11.63 15.4C11.46 15.73 11.06 15.86 10.73 15.7L8.76 14.71C8.69 14.68 8.64 14.64 8.59 14.59L7.52 13.52C7.4 13.4 7.33 13.23 7.33 13.05L7.33 12.47C7.33 12.21 7.54 12 7.8 12L7.8 12C7.92 12 8.04 11.95 8.13 11.86L9.13 10.86C9.26 10.73 9.43 10.66 9.6 10.66L10.18 10.66C10.47 10.66 10.72 10.48 10.81 10.21L11.14 9.22C11.25 8.9 11.58 8.71 11.91 8.78L14.51 9.3C14.61 9.32 14.71 9.32 14.81 9.29L17.26 8.68C17.3 8.67 17.35 8.65 17.39 8.63L18.66 8L20 7.33L20 7.33Z" fill="#E7832C" fill-opacity="1.000000" fill-rule="evenodd"/>
		<path id="Line" d="M20.06 8.56C20.02 8.63 19.96 8.68 19.89 8.73L18.05 9.96C18.01 9.98 17.98 10.01 17.95 10.04L17.8 10.19C17.54 10.45 17.54 10.87 17.8 11.13L18.19 11.52C18.45 11.78 18.45 12.21 18.19 12.47L17.67 12.99C17.47 13.19 17.16 13.24 16.9 13.11L16.59 12.96C16.26 12.8 15.86 12.93 15.7 13.26L15.45 13.75C15.37 13.91 15.23 14.03 15.07 14.08L13.43 14.63C13.36 14.65 13.29 14.66 13.22 14.66L12.41 14.66C12.15 14.66 11.92 14.8 11.81 15.03L11.63 15.4C11.46 15.73 11.06 15.86 10.73 15.7L8.76 14.71C8.69 14.68 8.64 14.64 8.59 14.59L7.52 13.52C7.4 13.4 7.33 13.23 7.33 13.05L7.33 12.47C7.33 12.21 7.54 12 7.8 12C7.92 12 8.04 11.95 8.13 11.86L9.13 10.86C9.26 10.73 9.43 10.66 9.6 10.66L10.18 10.66C10.47 10.66 10.72 10.48 10.81 10.21L11.14 9.22C11.25 8.9 11.58 8.71 11.91 8.78L14.51 9.3C14.61 9.32 14.71 9.32 14.81 9.29L17.26 8.68C17.3 8.67 17.35 8.65 17.39 8.63L18.66 8L20 7.33C20.36 7.15 20.73 7.56 20.5 7.9L20.06 8.56Z" stroke="#979797" stroke-opacity="0" stroke-width="0.000000"/>
	</g>
	<g mask="url(#mask17_5933)">
		<path id="Oval 81" d="M14 20C14.36 20 14.66 19.7 14.66 19.33C14.66 18.96 14.36 18.66 14 18.66C13.63 18.66 13.33 18.96 13.33 19.33C13.33 19.7 13.63 20 14 20Z" fill="#445128" fill-opacity="1.000000" fill-rule="evenodd"/>
		<path id="Oval 81" d="M14.66 19.33C14.66 18.96 14.36 18.66 14 18.66C13.63 18.66 13.33 18.96 13.33 19.33C13.33 19.7 13.63 20 14 20C14.36 20 14.66 19.7 14.66 19.33Z" stroke="#979797" stroke-opacity="0" stroke-width="0.000000"/>
	</g>
	<g mask="url(#mask17_5933)">
		<g opacity="0.750000">
			<path id="Line" d="M16.22 19.27L16.21 19.29C15.85 19.41 15.48 19.23 15.36 18.87C15.24 18.52 15.43 18.15 15.78 18.03L15.81 18.04L16.22 19.27ZM18.07 16.39L18.07 16.36C18.23 16.03 18.63 15.9 18.96 16.07C19.29 16.23 19.42 16.63 19.26 16.96L19.23 16.97L18.07 16.39Z" fill="#D8D8D8" fill-opacity="0" fill-rule="nonzero"/>
			<path id="Line" d="M16 18.66C16 18.66 18 18 18.66 16.66" stroke="#445128" stroke-opacity="1.000000" stroke-width="1.333333" stroke-linecap="round"/>
		</g>
	</g>
	<g mask="url(#mask17_5933)">
		<g opacity="0.750000">
			<path id="Line" d="M11.77 19.27L11.78 19.29C12.14 19.41 12.51 19.23 12.63 18.87C12.75 18.52 12.56 18.15 12.21 18.03L12.18 18.04L11.77 19.27ZM9.92 16.39L9.92 16.36C9.76 16.03 9.36 15.9 9.03 16.07C8.7 16.23 8.57 16.63 8.73 16.96L8.76 16.97L9.92 16.39Z" fill="#D8D8D8" fill-opacity="0" fill-rule="nonzero"/>
			<path id="Line" d="M12 18.66C12 18.66 10 18 9.33 16.66" stroke="#445128" stroke-opacity="1.000000" stroke-width="1.333333" stroke-linecap="round"/>
		</g>
	</g>
</svg>
