<svg width="28.000000" height="28.000000" viewBox="0 0 28 28" fill="none" xmlns="http://www.w3.org/2000/svg" xmlns:xlink="http://www.w3.org/1999/xlink">
	<desc>
			Created with Pixso.
	</desc>
	<defs/>
	<rect id="Denmark" width="28.000000" height="28.000000" fill="#FFFFFF" fill-opacity="0"/>
	<rect id="Mask" y="4.000000" rx="3.000000" width="28.000000" height="20.000000" fill="#FFFFFF" fill-opacity="1.000000"/>
	<rect id="Mask" x="0.250000" y="4.250000" rx="3.000000" width="27.500000" height="19.500000" stroke="#D6D8DD" stroke-opacity="1.000000" stroke-width="0.500000"/>
	<mask id="mask17_5796" mask-type="alpha" maskUnits="userSpaceOnUse" x="0.000000" y="4.000000" width="28.000000" height="20.000000">
		<rect id="Mask" y="4.000000" rx="3.000000" width="28.000000" height="20.000000" fill="#FFFFFF" fill-opacity="1.000000"/>
		<rect id="Mask" x="0.250000" y="4.250000" rx="3.000000" width="27.500000" height="19.500000" stroke="#F5F5F5" stroke-opacity="1.000000" stroke-width="0.500000"/>
	</mask>
	<g mask="url(#mask17_5796)">
		<mask id="mask_17_5797" fill="white">
			<path id="Combined Shape" d="M12 4L26 4C27.1046 4 28 4.89545 28 6L28 12L12 12L12 4ZM8 4L2 4C0.895447 4 0 4.89545 0 6L0 12L8 12L8 4ZM0 16L0 22C0 23.1046 0.895447 24 2 24L8 24L8 16L0 16ZM12 24L26 24C27.1046 24 28 23.1046 28 22L28 16L12 16L12 24Z" clip-rule="evenodd" fill="" fill-opacity="1.000000" fill-rule="evenodd"/>
		</mask>
		<path id="Combined Shape" d="M12 4L26 4C27.1046 4 28 4.89545 28 6L28 12L12 12L12 4ZM8 4L2 4C0.895447 4 0 4.89545 0 6L0 12L8 12L8 4ZM0 16L0 22C0 23.1046 0.895447 24 2 24L8 24L8 16L0 16ZM12 24L26 24C27.1046 24 28 23.1046 28 22L28 16L12 16L12 24Z" clip-rule="evenodd" fill="#EF264D" fill-opacity="1.000000" fill-rule="evenodd" mask="url(#mask_17_5797)"/>
		<path id="Combined Shape" d="" fill="#979797" fill-opacity="0.000000" fill-rule="nonzero"/>
	</g>
</svg>
