<svg viewBox="0 0 28 28" xmlns="http://www.w3.org/2000/svg" xmlns:xlink="http://www.w3.org/1999/xlink" width="28.000000" height="28.000000" fill="none" customFrame="#000000">
	<defs>
		<filter id="pixso_custom_mask_type_alpha">
			<feColorMatrix type="matrix" values="0 0 0 0 1 0 0 0 0 1 0 0 0 0 1 0 0 0 1 0 " />
		</filter>
	</defs>
	<mask id="mask_385" width="28.000000" height="20.000000" x="0.000000" y="4.000000" maskUnits="userSpaceOnUse">
		<g filter="url(#pixso_custom_mask_type_alpha)">
			<rect id="Mask" width="28.000000" height="20.000000" x="0.000000" y="4.000000" rx="3.000000" fill="rgb(255,255,255)" />
			<rect id="Mask" width="28.000000" height="20.000000" x="0.000000" y="4.000000" rx="3.000000" stroke="rgb(150.96,150.96,150.96)" stroke-opacity="0" stroke-width="0" />
		</g>
	</mask>
	<rect id="Djibouti" width="28.000000" height="28.000000" x="0.000000" y="0.000000" fill="rgb(255,255,255)" fill-opacity="0" />
	<rect id="Mask" width="28.000000" height="20.000000" x="0.000000" y="4.000000" rx="3.000000" fill="rgb(255,255,255)" />
	<rect id="Mask" width="28.000000" height="20.000000" x="0.000000" y="4.000000" rx="3.000000" stroke="rgb(150.96,150.96,150.96)" stroke-opacity="0" stroke-width="0" />
	<g mask="url(#mask_385)">
		<path id="Rectangle 2" d="M0 24L28 24L28 13.3334L0 13.3334L0 24Z" fill="rgb(29,200,55)" fill-rule="evenodd" />
		<path id="Rectangle 2" d="M28 24L28 13.3334L0 13.3334L0 24L28 24Z" fill-rule="evenodd" stroke="rgb(150.96,150.96,150.96)" stroke-opacity="0" stroke-width="0" />
		<path id="Rectangle 2" d="M0 13.3333L28 13.3333L28 4L0 4L0 13.3333Z" fill="rgb(130,197,245)" fill-rule="evenodd" />
		<path id="Rectangle 2" d="M28 13.3333L28 4L0 4L0 13.3333L28 13.3333Z" fill-rule="evenodd" stroke="rgb(150.96,150.96,150.96)" stroke-opacity="0" stroke-width="0" />
		<path id="Rectangle 83" d="M0 4L13.3333 14L0 24L0 4Z" fill="rgb(255,255,255)" fill-rule="evenodd" />
		<path id="Rectangle 83" d="M13.3333 14L0 24L0 4L13.3333 14Z" fill-rule="evenodd" stroke="rgb(150.96,150.96,150.96)" stroke-opacity="0" stroke-width="0" />
		<path id="Star 8" d="M4.66665 15.3L2.70736 16.6967L3.43027 14.4017L1.49646 12.9699L3.90253 12.9482L4.66665 10.6666L5.43077 12.9482L7.83683 12.9699L5.90302 14.4017L6.62593 16.6967L4.66665 15.3Z" fill="rgb(226,28,33)" fill-rule="evenodd" />
		<path id="Star 8" d="M2.70736 16.6967L3.43027 14.4017L1.49646 12.9699L3.90253 12.9482L4.66665 10.6666L5.43077 12.9482L7.83683 12.9699L5.90302 14.4017L6.62593 16.6967L4.66665 15.3L2.70736 16.6967Z" fill-rule="evenodd" stroke="rgb(150.96,150.96,150.96)" stroke-opacity="0" stroke-width="0" />
	</g>
</svg>
