<svg width="28.000000" height="28.000000" viewBox="0 0 28 28" fill="none" xmlns="http://www.w3.org/2000/svg" xmlns:xlink="http://www.w3.org/1999/xlink">
	<desc>
			Created with Pixso.
	</desc>
	<defs/>
	<rect id="Djibouti" width="28.000000" height="28.000000" fill="#FFFFFF" fill-opacity="0"/>
	<rect id="Mask" y="4.000000" rx="3.000000" width="28.000000" height="20.000000" fill="#FFFFFF" fill-opacity="1.000000"/>
	<rect id="Mask" y="4.000000" rx="3.000000" width="28.000000" height="20.000000" stroke="#979797" stroke-opacity="0" stroke-width="0.000000"/>
	<mask id="mask17_5802" mask-type="alpha" maskUnits="userSpaceOnUse" x="0.000000" y="4.000000" width="28.000000" height="20.000000">
		<rect id="Mask" y="4.000000" rx="3.000000" width="28.000000" height="20.000000" fill="#FFFFFF" fill-opacity="1.000000"/>
		<rect id="Mask" y="4.000000" rx="3.000000" width="28.000000" height="20.000000" stroke="#979797" stroke-opacity="0" stroke-width="0.000000"/>
	</mask>
	<g mask="url(#mask17_5802)">
		<path id="Rectangle 2" d="M0 24L28 24L28 13.33L0 13.33L0 24Z" fill="#1DC837" fill-opacity="1.000000" fill-rule="evenodd"/>
		<path id="Rectangle 2" d="M28 24L28 13.33L0 13.33L0 24L28 24Z" stroke="#979797" stroke-opacity="0" stroke-width="0.000000"/>
	</g>
	<g mask="url(#mask17_5802)">
		<path id="Rectangle 2" d="M0 13.33L28 13.33L28 4L0 4L0 13.33Z" fill="#82C5F5" fill-opacity="1.000000" fill-rule="evenodd"/>
		<path id="Rectangle 2" d="M28 13.33L28 4L0 4L0 13.33L28 13.33Z" stroke="#979797" stroke-opacity="0" stroke-width="0.000000"/>
	</g>
	<g mask="url(#mask17_5802)">
		<path id="Rectangle 83" d="M0 4L13.33 14L0 24L0 4Z" fill="#FFFFFF" fill-opacity="1.000000" fill-rule="evenodd"/>
		<path id="Rectangle 83" d="M13.33 14L0 24L0 4L13.33 14Z" stroke="#979797" stroke-opacity="0" stroke-width="0.000000"/>
	</g>
	<g mask="url(#mask17_5802)">
		<path id="Star 8" d="M4.66 15.3L2.7 16.69L3.43 14.4L1.49 12.96L3.9 12.94L4.66 10.66L5.43 12.94L7.83 12.96L5.9 14.4L6.62 16.69L4.66 15.3Z" fill="#E21C21" fill-opacity="1.000000" fill-rule="evenodd"/>
		<path id="Star 8" d="M2.7 16.69L3.43 14.4L1.49 12.96L3.9 12.94L4.66 10.66L5.43 12.94L7.83 12.96L5.9 14.4L6.62 16.69L4.66 15.3L2.7 16.69Z" stroke="#979797" stroke-opacity="0" stroke-width="0.000000"/>
	</g>
</svg>
