<svg width="28.000000" height="28.000000" viewBox="0 0 28 28" fill="none" xmlns="http://www.w3.org/2000/svg" xmlns:xlink="http://www.w3.org/1999/xlink">
	<desc>
			Created with Pixso.
	</desc>
	<defs/>
	<rect id="Equatorial Guinea" width="28.000000" height="28.000000" fill="#FFFFFF" fill-opacity="0"/>
	<rect id="Mask" y="4.000000" rx="3.000000" width="28.000000" height="20.000000" fill="#FFFFFF" fill-opacity="1.000000"/>
	<rect id="Mask" x="0.250000" y="4.250000" rx="3.000000" width="27.500000" height="19.500000" stroke="#D6D8DD" stroke-opacity="1.000000" stroke-width="0.500000"/>
	<mask id="mask17_5789" mask-type="alpha" maskUnits="userSpaceOnUse" x="0.000000" y="4.000000" width="28.000000" height="20.000000">
		<rect id="Mask" y="4.000000" rx="3.000000" width="28.000000" height="20.000000" fill="#FFFFFF" fill-opacity="1.000000"/>
		<rect id="Mask" x="0.250000" y="4.250000" rx="3.000000" width="27.500000" height="19.500000" stroke="#F5F5F5" stroke-opacity="1.000000" stroke-width="0.500000"/>
	</mask>
	<g mask="url(#mask17_5789)">
		<path id="Rectangle 2" d="M0 24L28 24L28 17.33L0 17.33L0 24Z" fill="#EC3938" fill-opacity="1.000000" fill-rule="evenodd"/>
		<path id="Rectangle 2" d="M28 24L28 17.33L0 17.33L0 24L28 24Z" stroke="#979797" stroke-opacity="0" stroke-width="0.000000"/>
	</g>
	<g mask="url(#mask17_5789)">
		<path id="Rectangle 2" d="M0 10.66L28 10.66L28 4L0 4L0 10.66Z" fill="#51B422" fill-opacity="1.000000" fill-rule="evenodd"/>
		<path id="Rectangle 2" d="M28 10.66L28 4L0 4L0 10.66L28 10.66Z" stroke="#979797" stroke-opacity="0" stroke-width="0.000000"/>
	</g>
	<g mask="url(#mask17_5789)">
		<path id="Rectangle 721" d="M13.6 15.71C13.63 15.68 13.65 15.64 13.65 15.59L13.66 13.62C13.66 13.46 13.53 13.33 13.37 13.33L13.37 13.33C13.11 13.33 12.98 13.01 13.16 12.83L13.76 12.23C13.89 12.1 14.1 12.1 14.23 12.23L14.83 12.83C15.01 13.01 14.88 13.33 14.62 13.33L14.62 13.33C14.46 13.33 14.33 13.46 14.33 13.62L14.33 15.59C14.33 15.64 14.35 15.68 14.38 15.71L14.38 15.71C14.48 15.82 14.41 16 14.26 16L13.72 16C13.57 16 13.5 15.82 13.6 15.71L13.6 15.71Z" fill="#159940" fill-opacity="1.000000" fill-rule="evenodd"/>
		<path id="Rectangle 721" d="M13.66 13.62C13.66 13.46 13.53 13.33 13.37 13.33C13.11 13.33 12.98 13.01 13.16 12.83L13.76 12.23C13.89 12.1 14.1 12.1 14.23 12.23L14.83 12.83C15.01 13.01 14.88 13.33 14.62 13.33C14.46 13.33 14.33 13.46 14.33 13.62L14.33 15.59C14.33 15.64 14.35 15.68 14.38 15.71C14.48 15.82 14.41 16 14.26 16L13.72 16C13.57 16 13.5 15.82 13.6 15.71C13.63 15.68 13.65 15.64 13.65 15.59L13.66 13.62Z" stroke="#979797" stroke-opacity="0" stroke-width="0.000000"/>
	</g>
	<g mask="url(#mask17_5789)">
		<path id="Rectangle 83" d="M0 4L9.33 14L0 24L0 4Z" fill="#258DE7" fill-opacity="1.000000" fill-rule="evenodd"/>
		<path id="Rectangle 83" d="M9.33 14L0 24L0 4L9.33 14Z" stroke="#979797" stroke-opacity="0" stroke-width="0.000000"/>
	</g>
</svg>
