<svg viewBox="0 0 28 28" xmlns="http://www.w3.org/2000/svg" xmlns:xlink="http://www.w3.org/1999/xlink" width="28.000000" height="28.000000" fill="none" customFrame="#000000">
	<defs>
		<filter id="pixso_custom_mask_type_alpha">
			<feColorMatrix type="matrix" values="0 0 0 0 1 0 0 0 0 1 0 0 0 0 1 0 0 0 1 0 " />
		</filter>
	</defs>
	<mask id="mask_387" width="28.000000" height="20.000000" x="0.000000" y="4.000000" maskUnits="userSpaceOnUse">
		<g filter="url(#pixso_custom_mask_type_alpha)">
			<rect id="Mask" width="28.000000" height="20.000000" x="0.000000" y="4.000000" rx="3.000000" fill="rgb(255,255,255)" />
			<rect id="Mask" width="27.500000" height="19.500000" x="0.250000" y="4.250000" rx="2.750000" stroke="rgb(245,245,245)" stroke-width="0.5" />
		</g>
	</mask>
	<rect id="Equatorial Guinea" width="28.000000" height="28.000000" x="0.000000" y="0.000000" fill="rgb(255,255,255)" fill-opacity="0" />
	<rect id="Mask" width="28.000000" height="20.000000" x="0.000000" y="4.000000" rx="3.000000" fill="rgb(255,255,255)" />
	<rect id="Mask" width="27.500000" height="19.500000" x="0.250000" y="4.250000" rx="2.750000" stroke="rgb(214,216,221)" stroke-width="0.5" />
	<g mask="url(#mask_387)">
		<path id="Rectangle 2" d="M0 24L28 24L28 17.3334L0 17.3334L0 24Z" fill="rgb(236,57,56)" fill-rule="evenodd" />
		<path id="Rectangle 2" d="M28 24L28 17.3334L0 17.3334L0 24L28 24Z" fill-rule="evenodd" stroke="rgb(150.96,150.96,150.96)" stroke-opacity="0" stroke-width="0" />
		<path id="Rectangle 2" d="M0 10.6667L28 10.6667L28 4L0 4L0 10.6667Z" fill="rgb(81,180,34)" fill-rule="evenodd" />
		<path id="Rectangle 2" d="M28 10.6667L28 4L0 4L0 10.6667L28 10.6667Z" fill-rule="evenodd" stroke="rgb(150.96,150.96,150.96)" stroke-opacity="0" stroke-width="0" />
		<path id="Rectangle 721" d="M13.6068 15.7151C13.6366 15.684 13.6534 15.6426 13.6537 15.5995L13.6649 13.6274C13.6659 13.4653 13.5347 13.3333 13.3725 13.3333L13.3725 13.3333C13.112 13.3333 12.9816 13.0184 13.1658 12.8342L13.7643 12.2357C13.8944 12.1055 14.1055 12.1055 14.2357 12.2357L14.8333 12.8333C15.0178 13.0178 14.8871 13.3333 14.6262 13.3333L14.6262 13.3333C14.4644 13.3333 14.3333 13.4645 14.3333 13.6262L14.3333 15.5976C14.3333 15.6418 14.3509 15.6842 14.3821 15.7155L14.3821 15.7155C14.4871 15.8205 14.4127 16 14.2643 16L13.7282 16C13.5799 16 13.5041 15.8221 13.6068 15.7151L13.6068 15.7151Z" fill="rgb(21,153,64)" fill-rule="evenodd" />
		<path id="Rectangle 721" d="M13.6666 13.6274C13.6676 13.4653 13.5347 13.3333 13.3725 13.3333C13.112 13.3333 12.9816 13.0184 13.1658 12.8342L13.7643 12.2357C13.8944 12.1055 14.1055 12.1055 14.2357 12.2357L14.8333 12.8333C15.0178 13.0178 14.8871 13.3333 14.6262 13.3333C14.4644 13.3333 14.3333 13.4645 14.3333 13.6262L14.3333 15.5976C14.3333 15.6418 14.3509 15.6842 14.3821 15.7155C14.4871 15.8205 14.4127 16 14.2643 16L13.7282 16C13.5799 16 13.5041 15.8221 13.6068 15.7151C13.6366 15.684 13.653 15.6426 13.6533 15.5995L13.6666 13.6274Z" fill-rule="evenodd" stroke="rgb(150.96,150.96,150.96)" stroke-opacity="0" stroke-width="0" />
		<path id="Rectangle 83" d="M0 4L9.33333 14L0 24L0 4Z" fill="rgb(37,141,231)" fill-rule="evenodd" />
		<path id="Rectangle 83" d="M9.33333 14L0 24L0 4L9.33333 14Z" fill-rule="evenodd" stroke="rgb(150.96,150.96,150.96)" stroke-opacity="0" stroke-width="0" />
	</g>
</svg>
