<svg width="28.000000" height="28.000000" viewBox="0 0 28 28" fill="none" xmlns="http://www.w3.org/2000/svg" xmlns:xlink="http://www.w3.org/1999/xlink">
	<desc>
			Created with Pixso.
	</desc>
	<defs/>
	<rect id="Eswatini" width="28.000000" height="28.000000" fill="#FFFFFF" fill-opacity="0"/>
	<rect id="Mask" y="4.000000" rx="3.000000" width="28.000000" height="20.000000" fill="#FFFFFF" fill-opacity="1.000000"/>
	<rect id="Mask" y="4.000000" rx="3.000000" width="28.000000" height="20.000000" stroke="#979797" stroke-opacity="0" stroke-width="0.000000"/>
	<mask id="mask17_4455" mask-type="alpha" maskUnits="userSpaceOnUse" x="0.000000" y="4.000000" width="28.000000" height="20.000000">
		<rect id="Mask" y="4.000000" rx="3.000000" width="28.000000" height="20.000000" fill="#FFFFFF" fill-opacity="1.000000"/>
		<rect id="Mask" y="4.000000" rx="3.000000" width="28.000000" height="20.000000" stroke="#979797" stroke-opacity="0" stroke-width="0.000000"/>
	</mask>
	<g mask="url(#mask17_4455)">
		<path id="Rectangle 2" d="M0 8L28 8L28 4L0 4L0 8Z" fill="#486BCA" fill-opacity="1.000000" fill-rule="evenodd"/>
		<path id="Rectangle 2" d="M28 8L28 4L0 4L0 8L28 8Z" stroke="#979797" stroke-opacity="0" stroke-width="0.000000"/>
	</g>
	<g mask="url(#mask17_4455)">
		<path id="Rectangle 2" d="M0 24L28 24L28 20L0 20L0 24Z" fill="#486BCA" fill-opacity="1.000000" fill-rule="evenodd"/>
		<path id="Rectangle 2" d="M28 24L28 20L0 20L0 24L28 24Z" stroke="#979797" stroke-opacity="0" stroke-width="0.000000"/>
	</g>
	<g mask="url(#mask17_4455)">
		<path id="Rectangle 2" d="M0 20L28 20L28 8L0 8L0 20Z" fill="#FFDF20" fill-opacity="1.000000" fill-rule="evenodd"/>
		<path id="Rectangle 2" d="M28 20L28 8L0 8L0 20L28 20Z" stroke="#979797" stroke-opacity="0" stroke-width="0.000000"/>
	</g>
	<g mask="url(#mask17_4455)">
		<path id="Rectangle 2 Copy 4" d="M0 18.66L28 18.66L28 9.33L0 9.33L0 18.66Z" fill="#CF1615" fill-opacity="1.000000" fill-rule="evenodd"/>
		<path id="Rectangle 2 Copy 4" d="M28 18.66L28 9.33L0 9.33L0 18.66L28 18.66Z" stroke="#979797" stroke-opacity="0" stroke-width="0.000000"/>
	</g>
	<g mask="url(#mask17_4455)">
		<path id="Mask" d="M14 17.33C17.31 17.33 20 14 20 14C20 14 17.31 10.66 14 10.66C10.68 10.66 8 14 8 14C8 14 10.68 17.33 14 17.33Z" fill="#FFFFFF" fill-opacity="1.000000" fill-rule="evenodd"/>
		<path id="Mask" d="M20 14C20 14 17.31 10.66 14 10.66C10.68 10.66 8 14 8 14C8 14 10.68 17.33 14 17.33C17.31 17.33 20 14 20 14Z" stroke="#979797" stroke-opacity="0" stroke-width="0.000000"/>
		<mask id="mask17_4462" mask-type="alpha" maskUnits="userSpaceOnUse" x="8.000000" y="10.666687" width="12.000000" height="6.666687">
			<path id="Mask" d="M14 17.33C17.31 17.33 20 14 20 14C20 14 17.31 10.66 14 10.66C10.68 10.66 8 14 8 14C8 14 10.68 17.33 14 17.33Z" fill="#FFFFFF" fill-opacity="1.000000" fill-rule="evenodd"/>
			<path id="Mask" d="M20 14C20 14 17.31 10.66 14 10.66C10.68 10.66 8 14 8 14C8 14 10.68 17.33 14 17.33C17.31 17.33 20 14 20 14Z" stroke="#979797" stroke-opacity="0" stroke-width="0.000000"/>
		</mask>
		<g mask="url(#mask17_4462)">
			<path id="Rectangle 1180" d="M14.66 10.66L8 10.66L8 17.33L13.33 17.33L14.66 10.66Z" fill="#262626" fill-opacity="1.000000" fill-rule="evenodd"/>
			<path id="Rectangle 1180" d="M8 10.66L8 17.33L13.33 17.33L14.66 10.66L8 10.66Z" stroke="#979797" stroke-opacity="0" stroke-width="0.000000"/>
		</g>
		<g mask="url(#mask17_4462)">
			<path id="Oval 191" d="M15.33 14.66C15.7 14.66 16 14.36 16 14C16 13.63 15.7 13.33 15.33 13.33C14.96 13.33 14.66 13.63 14.66 14C14.66 14.36 14.96 14.66 15.33 14.66Z" fill="#1A1A1A" fill-opacity="1.000000" fill-rule="evenodd"/>
			<path id="Oval 191" d="M16 14C16 13.63 15.7 13.33 15.33 13.33C14.96 13.33 14.66 13.63 14.66 14C14.66 14.36 14.96 14.66 15.33 14.66C15.7 14.66 16 14.36 16 14Z" stroke="#979797" stroke-opacity="0" stroke-width="0.000000"/>
		</g>
		<g mask="url(#mask17_4462)">
			<path id="Oval 191" d="M12.66 14.66C13.03 14.66 13.33 14.36 13.33 14C13.33 13.63 13.03 13.33 12.66 13.33C12.29 13.33 12 13.63 12 14C12 14.36 12.29 14.66 12.66 14.66Z" fill="#F6F6F6" fill-opacity="1.000000" fill-rule="evenodd"/>
			<path id="Oval 191" d="M13.33 14C13.33 13.63 13.03 13.33 12.66 13.33C12.29 13.33 12 13.63 12 14C12 14.36 12.29 14.66 12.66 14.66C13.03 14.66 13.33 14.36 13.33 14Z" stroke="#979797" stroke-opacity="0" stroke-width="0.000000"/>
		</g>
	</g>
</svg>
