<svg width="28.000000" height="28.000000" viewBox="0 0 28 28" fill="none" xmlns="http://www.w3.org/2000/svg" xmlns:xlink="http://www.w3.org/1999/xlink">
	<desc>
			Created with Pixso.
	</desc>
	<defs>
		<linearGradient id="paint_linear_17_5786_0" x1="10.666656" y1="10.666626" x2="10.666656" y2="16.696682" gradientUnits="userSpaceOnUse">
			<stop stop-color="#FFDC42"/>
			<stop offset="1.000000" stop-color="#FDD217"/>
		</linearGradient>
	</defs>
	<rect id="Ethiopia" width="28.000000" height="28.000000" fill="#FFFFFF" fill-opacity="0"/>
	<rect id="Mask" y="4.000000" rx="3.000000" width="28.000000" height="20.000000" fill="#FFFFFF" fill-opacity="1.000000"/>
	<rect id="Mask" y="4.000000" rx="3.000000" width="28.000000" height="20.000000" stroke="#979797" stroke-opacity="0" stroke-width="0.000000"/>
	<mask id="mask17_5781" mask-type="alpha" maskUnits="userSpaceOnUse" x="0.000000" y="4.000000" width="28.000000" height="20.000000">
		<rect id="Mask" y="4.000000" rx="3.000000" width="28.000000" height="20.000000" fill="#FFFFFF" fill-opacity="1.000000"/>
		<rect id="Mask" y="4.000000" rx="3.000000" width="28.000000" height="20.000000" stroke="#979797" stroke-opacity="0" stroke-width="0.000000"/>
	</mask>
	<g mask="url(#mask17_5781)">
		<path id="Rectangle 2" d="M0 10.66L28 10.66L28 4L0 4L0 10.66Z" fill="#20AA46" fill-opacity="1.000000" fill-rule="evenodd"/>
		<path id="Rectangle 2" d="M28 10.66L28 4L0 4L0 10.66L28 10.66Z" stroke="#979797" stroke-opacity="0" stroke-width="0.000000"/>
	</g>
	<g mask="url(#mask17_5781)">
		<path id="Rectangle 2" d="M0 24L28 24L28 17.33L0 17.33L0 24Z" fill="#E92F3B" fill-opacity="1.000000" fill-rule="evenodd"/>
		<path id="Rectangle 2" d="M28 24L28 17.33L0 17.33L0 24L28 24Z" stroke="#979797" stroke-opacity="0" stroke-width="0.000000"/>
	</g>
	<g mask="url(#mask17_5781)">
		<path id="Rectangle 2" d="M0 17.33L28 17.33L28 10.66L0 10.66L0 17.33Z" fill="#FADF50" fill-opacity="1.000000" fill-rule="evenodd"/>
		<path id="Rectangle 2" d="M28 17.33L28 10.66L0 10.66L0 17.33L28 17.33Z" stroke="#979797" stroke-opacity="0" stroke-width="0.000000"/>
	</g>
	<g mask="url(#mask17_5781)">
		<path id="Oval 95" d="M14 18.66C16.57 18.66 18.66 16.57 18.66 14C18.66 11.42 16.57 9.33 14 9.33C11.42 9.33 9.33 11.42 9.33 14C9.33 16.57 11.42 18.66 14 18.66Z" fill="#205CCA" fill-opacity="1.000000" fill-rule="evenodd"/>
		<path id="Oval 95" d="M18.66 14C18.66 11.42 16.57 9.33 14 9.33C11.42 9.33 9.33 11.42 9.33 14C9.33 16.57 11.42 18.66 14 18.66C16.57 18.66 18.66 16.57 18.66 14Z" stroke="#979797" stroke-opacity="0" stroke-width="0.000000"/>
	</g>
	<g mask="url(#mask17_5781)">
		<path id="Star 8" d="M14 15.3L12.04 16.69L12.76 14.4L10.82 12.96L13.23 12.94L14 10.66L14.76 12.94L17.17 12.96L15.23 14.4L15.95 16.69L14 15.3Z" fill="url(#paint_linear_17_5786_0)" fill-opacity="0" fill-rule="evenodd"/>
		<path id="Star 8" d="M12.76 14.4L12.37 15.64L12.04 16.69L12.94 16.05L14 15.3L15.05 16.05L15.95 16.69L15.62 15.64L15.23 14.4L16.28 13.62L17.17 12.96L16.06 12.96L14.76 12.94L14.35 11.71L14 10.66L13.64 11.71L13.23 12.94L11.93 12.96L10.82 12.96L12.76 14.4ZM12.82 13.61L13.54 14.14L13.27 14.99L14 14.48L14.72 14.99L14.45 14.14L15.17 13.61L14.28 13.61L14 12.76L13.71 13.61L12.82 13.61Z" fill="#FFDB3D" fill-opacity="1.000000" fill-rule="evenodd"/>
	</g>
</svg>
