<svg viewBox="0 0 28 28" xmlns="http://www.w3.org/2000/svg" xmlns:xlink="http://www.w3.org/1999/xlink" width="28.000000" height="28.000000" fill="none" customFrame="#000000">
	<defs>
		<filter id="pixso_custom_mask_type_alpha">
			<feColorMatrix type="matrix" values="0 0 0 0 1 0 0 0 0 1 0 0 0 0 1 0 0 0 1 0 " />
		</filter>
		<linearGradient id="paint_linear_150" x1="10.6666565" x2="10.6666565" y1="10.666626" y2="16.696682" gradientUnits="userSpaceOnUse">
			<stop stop-color="rgb(255,220,66)" offset="0" stop-opacity="1" />
			<stop stop-color="rgb(253,210,23)" offset="1" stop-opacity="1" />
		</linearGradient>
	</defs>
	<mask id="mask_388" width="28.000000" height="20.000000" x="0.000000" y="4.000000" maskUnits="userSpaceOnUse">
		<g filter="url(#pixso_custom_mask_type_alpha)">
			<rect id="Mask" width="28.000000" height="20.000000" x="0.000000" y="4.000000" rx="3.000000" fill="rgb(255,255,255)" />
			<rect id="Mask" width="28.000000" height="20.000000" x="0.000000" y="4.000000" rx="3.000000" stroke="rgb(150.96,150.96,150.96)" stroke-opacity="0" stroke-width="0" />
		</g>
	</mask>
	<rect id="Ethiopia" width="28.000000" height="28.000000" x="0.000000" y="0.000000" fill="rgb(255,255,255)" fill-opacity="0" />
	<rect id="Mask" width="28.000000" height="20.000000" x="0.000000" y="4.000000" rx="3.000000" fill="rgb(255,255,255)" />
	<rect id="Mask" width="28.000000" height="20.000000" x="0.000000" y="4.000000" rx="3.000000" stroke="rgb(150.96,150.96,150.96)" stroke-opacity="0" stroke-width="0" />
	<g mask="url(#mask_388)">
		<path id="Rectangle 2" d="M0 10.6667L28 10.6667L28 4L0 4L0 10.6667Z" fill="rgb(32,170,70)" fill-rule="evenodd" />
		<path id="Rectangle 2" d="M28 10.6667L28 4L0 4L0 10.6667L28 10.6667Z" fill-rule="evenodd" stroke="rgb(150.96,150.96,150.96)" stroke-opacity="0" stroke-width="0" />
		<path id="Rectangle 2" d="M0 24L28 24L28 17.3334L0 17.3334L0 24Z" fill="rgb(233,47,59)" fill-rule="evenodd" />
		<path id="Rectangle 2" d="M28 24L28 17.3334L0 17.3334L0 24L28 24Z" fill-rule="evenodd" stroke="rgb(150.96,150.96,150.96)" stroke-opacity="0" stroke-width="0" />
		<path id="Rectangle 2" d="M0 17.3333L28 17.3333L28 10.6666L0 10.6666L0 17.3333Z" fill="rgb(250,223,80)" fill-rule="evenodd" />
		<path id="Rectangle 2" d="M28 17.3333L28 10.6666L0 10.6666L0 17.3333L28 17.3333Z" fill-rule="evenodd" stroke="rgb(150.96,150.96,150.96)" stroke-opacity="0" stroke-width="0" />
		<path id="Oval 95" d="M14 18.6667C16.5773 18.6667 18.6667 16.5774 18.6667 14C18.6667 11.4227 16.5773 9.33337 14 9.33337C11.4227 9.33337 9.33334 11.4227 9.33334 14C9.33334 16.5774 11.4227 18.6667 14 18.6667Z" fill="rgb(32,92,202)" fill-rule="evenodd" />
		<path id="Oval 95" d="M18.6667 14C18.6667 11.4227 16.5773 9.33337 14 9.33337C11.4227 9.33337 9.33334 11.4227 9.33334 14C9.33334 16.5774 11.4227 18.6667 14 18.6667C16.5773 18.6667 18.6667 16.5774 18.6667 14Z" fill-rule="evenodd" stroke="rgb(150.96,150.96,150.96)" stroke-opacity="0" stroke-width="0" />
		<path id="Star 8" d="M14 15.3L12.0407 16.6967L12.7636 14.4017L10.8298 12.9699L13.2359 12.9482L14 10.6666L14.7641 12.9482L17.1702 12.9699L15.2364 14.4017L15.9593 16.6967L14 15.3Z" fill="url(#paint_linear_150)" fill-opacity="0" fill-rule="evenodd" />
		<path id="Star 8" d="M12.7636 14.4017L12.3733 15.6409L12.0407 16.6967L12.9421 16.0541L14 15.3L15.0579 16.0541L15.9593 16.6967L15.6267 15.6409L15.2364 14.4017L16.2805 13.6286L17.1702 12.9699L16.0633 12.9599L14.7641 12.9482L14.3515 11.7163L14 10.6666L13.6485 11.7163L13.2359 12.9482L11.9367 12.9599L10.8298 12.9699L12.7636 14.4017ZM12.8263 13.6186L13.5423 14.1487L13.2746 14.9983L14 14.4812L14.7253 14.9983L14.4577 14.1487L15.1736 13.6186L14.2829 13.6106L14 12.7659L13.7171 13.6106L12.8263 13.6186Z" fill="rgb(255,219,61)" fill-rule="evenodd" />
	</g>
</svg>
