<svg viewBox="0 0 29.8022 28" xmlns="http://www.w3.org/2000/svg" xmlns:xlink="http://www.w3.org/1999/xlink" width="29.802185" height="28.000000" fill="none" customFrame="#000000">
	<mask id="mask_170" width="6.666667" height="9.333333" x="19.135559" y="9.333374" maskUnits="userSpaceOnUse">
		<g filter="url(#pixso_custom_mask_type_alpha)">
			<path id="Mask" d="M19.1356 14C19.1356 12.9063 19.1356 11.6132 19.1356 10.6659C19.1356 9.92948 19.7325 9.33337 20.4689 9.33337L24.4689 9.33337C25.2053 9.33337 25.8022 9.92948 25.8022 10.6659C25.8022 11.6132 25.8022 12.9063 25.8022 14C25.8022 17.3334 22.4689 18.6667 22.4689 18.6667C22.4689 18.6667 19.1356 17.3334 19.1356 14Z" fill="rgb(0,0,0)" fill-rule="evenodd" />
			<path id="Mask" d="M19.1356 10.6659L19.1356 14C19.1356 17.3334 22.4689 18.6667 22.4689 18.6667C22.4689 18.6667 25.8022 17.3334 25.8022 14L25.8022 10.6659C25.8022 9.92948 25.2053 9.33337 24.4689 9.33337L20.4689 9.33337C19.7325 9.33337 19.1356 9.92948 19.1356 10.6659ZM22.4689 17.9312C22.5278 17.9004 22.5919 17.8655 22.6611 17.8263C23.0355 17.6141 23.3784 17.3679 23.6896 17.0878C24.1167 16.7035 24.4506 16.2825 24.6914 15.825C24.803 15.6131 24.8935 15.3947 24.963 15.1699C25.078 14.7977 25.1356 14.4078 25.1356 14L25.1356 10.6667C25.1356 10.5747 25.1193 10.4894 25.0867 10.4108C25.0542 10.3322 25.0054 10.2604 24.9403 10.1953C24.8752 10.1302 24.8034 10.0814 24.7248 10.0489C24.6462 10.0163 24.5609 10 24.4689 10L20.4689 10C20.3768 10 20.2915 10.0163 20.213 10.0489C20.1344 10.0814 20.0626 10.1302 19.9975 10.1953C19.9324 10.2604 19.8836 10.3322 19.851 10.4108C19.8185 10.4894 19.8022 10.5747 19.8022 10.6667L19.8022 12.7467L19.8022 14C19.8022 14.4078 19.8598 14.7977 19.9748 15.1699C20.0443 15.3947 20.1348 15.6131 20.2463 15.825C20.4871 16.2825 20.8211 16.7034 21.2482 17.0878C21.5594 17.3679 21.9022 17.6141 22.2767 17.8263C22.3459 17.8655 22.41 17.9004 22.4689 17.9312Z" fill="rgb(255,255,255)" fill-rule="evenodd" />
		</g>
	</mask>
	<mask id="mask_169" width="6.666667" height="9.333333" x="19.135559" y="9.333374" maskUnits="userSpaceOnUse">
		<g filter="url(#pixso_custom_mask_type_alpha)">
			<path id="Mask" d="M19.1356 14C19.1356 12.9063 19.1356 11.6132 19.1356 10.6659C19.1356 9.92948 19.7325 9.33337 20.4689 9.33337L24.4689 9.33337C25.2053 9.33337 25.8022 9.92948 25.8022 10.6659C25.8022 11.6132 25.8022 12.9063 25.8022 14C25.8022 17.3334 22.4689 18.6667 22.4689 18.6667C22.4689 18.6667 19.1356 17.3334 19.1356 14Z" fill="rgb(0,114,196)" fill-rule="evenodd" />
			<path id="Mask" d="M19.1356 10.6667C19.1356 9.93033 19.7325 9.33337 20.4689 9.33337L24.4689 9.33337C25.2053 9.33337 25.8022 9.93033 25.8022 10.6667C25.8022 11.614 25.8022 12.9066 25.8022 14C25.8022 17.3334 22.4689 18.6667 22.4689 18.6667C22.4689 18.6667 19.1356 17.3334 19.1356 14C19.1356 12.9066 19.1356 11.614 19.1356 10.6667Z" fill-rule="evenodd" stroke="url(#paint_linear_61)" stroke-opacity="0" stroke-width="0.000000" />
		</g>
	</mask>
	<defs>
		<filter id="pixso_custom_mask_type_alpha">
			<feColorMatrix type="matrix" values="0 0 0 0 1 0 0 0 0 1 0 0 0 0 1 0 0 0 1 0 " />
		</filter>
		<linearGradient id="paint_linear_60" x1="19.1355591" x2="19.1355591" y1="9.33337402" y2="18.6667061" gradientUnits="userSpaceOnUse">
			<stop stop-color="rgb(255,255,255)" offset="0" stop-opacity="1" />
			<stop stop-color="rgb(239.7,239.7,239.7)" offset="1" stop-opacity="1" />
		</linearGradient>
		<linearGradient id="paint_linear_61" x1="19.1355591" x2="19.1355591" y1="9.33337402" y2="18.6667061" gradientUnits="userSpaceOnUse">
			<stop stop-color="rgb(255,255,255)" offset="0" stop-opacity="1" />
			<stop stop-color="rgb(239.7,239.7,239.7)" offset="1" stop-opacity="1" />
		</linearGradient>
		<linearGradient id="paint_linear_62" x1="19.1355591" x2="19.1355591" y1="9.33337402" y2="18.6667061" gradientUnits="userSpaceOnUse">
			<stop stop-color="rgb(255,207.953,51.3994)" offset="0" stop-opacity="1" />
			<stop stop-color="rgb(254,196,3)" offset="1" stop-opacity="1" />
		</linearGradient>
	</defs>
	<mask id="mask_168" width="28.000000" height="20.000000" x="1.802185" y="4.000000" maskUnits="userSpaceOnUse">
		<g filter="url(#pixso_custom_mask_type_alpha)">
			<rect id="Mask" width="28.000000" height="20.000000" x="1.802185" y="4.000000" rx="3.000000" fill="rgb(255,255,255)" />
			<rect id="Mask" width="28.000000" height="20.000000" x="1.802185" y="4.000000" rx="3.000000" stroke="rgb(150.96,150.96,150.96)" stroke-opacity="0" stroke-width="0.000000" />
		</g>
	</mask>
	<rect id="Falkland Islands" width="28.000000" height="28.000000" x="1.802185" y="0.000000" fill="rgb(255,255,255)" fill-opacity="0" />
	<rect id="Mask" width="28.000000" height="20.000000" x="1.802185" y="4.000000" rx="3.000000" fill="rgb(255,255,255)" />
	<rect id="Mask" width="28.000000" height="20.000000" x="1.802185" y="4.000000" rx="3.000000" stroke="rgb(150.96,150.96,150.96)" stroke-opacity="0" stroke-width="0.000000" />
	<g mask="url(#mask_168)">
		<rect id="Mask Copy" width="28.000000" height="20.000000" x="1.802185" y="4.000000" fill="rgb(7,49,156)" />
		<rect id="Mask Copy" width="28.000000" height="20.000000" x="1.802185" y="4.000000" stroke="rgb(150.96,150.96,150.96)" stroke-opacity="0" stroke-width="0.000000" />
		<g id="Rectangle 1105">
			<g id="Rectangle 1238">
				<path id="Mask" d="M19.1356 14C19.1356 12.9063 19.1356 11.6132 19.1356 10.6659C19.1356 9.92948 19.7325 9.33337 20.4689 9.33337L24.4689 9.33337C25.2053 9.33337 25.8022 9.92948 25.8022 10.6659C25.8022 11.6132 25.8022 12.9063 25.8022 14C25.8022 17.3334 22.4689 18.6667 22.4689 18.6667C22.4689 18.6667 19.1356 17.3334 19.1356 14Z" fill="rgb(0,114,196)" fill-rule="evenodd" />
				<path id="Mask" d="M19.1356 10.6667C19.1356 9.93033 19.7325 9.33337 20.4689 9.33337L24.4689 9.33337C25.2053 9.33337 25.8022 9.93033 25.8022 10.6667C25.8022 11.614 25.8022 12.9066 25.8022 14C25.8022 17.3334 22.4689 18.6667 22.4689 18.6667C22.4689 18.6667 19.1356 17.3334 19.1356 14C19.1356 12.9066 19.1356 11.614 19.1356 10.6667Z" fill-rule="evenodd" stroke="url(#paint_linear_60)" stroke-opacity="0" stroke-width="0.000000" />
				<g mask="url(#mask_169)">
					<path id="Path 66" d="M20.6713 13.2677C19.9881 13.9578 21.327 13.8702 21.327 13.8702L22.2806 13.5649C22.2806 13.5649 22.7094 13.6168 22.9988 13.704C23.1905 13.7618 23.724 14 23.724 14C23.724 14 24.8507 13.7751 24.4545 13.2677C24.0583 12.7603 21.3545 12.5776 20.6713 13.2677Z" fill="rgb(0,81,33)" fill-rule="evenodd" />
					<path id="Path 66" d="M21.327 13.8702L22.2806 13.5649C22.2806 13.5649 22.7094 13.6168 22.9988 13.704C23.1905 13.7618 23.724 14 23.724 14C23.724 14 24.8507 13.7751 24.4545 13.2677C24.0583 12.7603 21.3545 12.5776 20.6713 13.2677C19.9881 13.9578 21.327 13.8702 21.327 13.8702Z" fill-rule="evenodd" stroke="rgb(150.96,150.96,150.96)" stroke-opacity="0" stroke-width="0.000000" />
					<g id="Group 2">
						<g id="Group">
							<path id="Fill 41" d="M23.5121 12.5509C23.5395 12.5447 23.6035 12.5461 23.6274 12.5751C23.6649 12.6206 23.7416 12.6055 23.7791 12.6493C23.8164 12.6932 23.8598 12.7337 23.8598 12.7962C23.8598 12.8587 23.8526 13.0136 23.8539 13.0476C23.8558 13.1001 23.8649 13.1082 23.9188 13.1068C23.9838 13.1052 24.0736 13.1001 24.0764 12.9836C24.0784 12.9025 23.9976 12.8518 23.9741 12.5632C24.0095 12.5329 24.041 12.5058 24.0292 12.4654C24.0173 12.4249 24.0961 12.4046 24.0883 12.3438C24.0803 12.2831 24.167 12.2459 24.1315 12.1784C24.0961 12.1109 24.1748 12.1076 24.1434 12.0535C24.1118 11.9995 24.1945 11.9522 24.1591 11.905C24.1237 11.8577 24.2064 11.8139 24.1631 11.7565C24.1197 11.6991 24.1867 11.6653 24.1434 11.6214C24.1709 11.5776 24.1472 11.4526 24.0606 11.3817C23.9741 11.3108 23.852 11.2737 23.781 11.2466C23.649 11.1963 23.403 11.2196 23.2296 11.2399C23.0563 11.2601 22.7333 11.2804 22.6348 11.2669C22.5364 11.2535 22.3041 11.2399 22.1209 11.2703C22.0582 11.2807 21.9869 11.2619 21.9496 11.2264C21.9197 11.1981 21.9024 11.2012 21.8748 11.2028C21.8472 11.2045 21.8314 11.196 21.8176 11.1622C21.7933 11.1028 21.7389 11.1436 21.7133 11.0694C21.6961 11.0197 21.6068 11.0626 21.5794 11.0205C21.5517 10.9783 21.5184 10.9732 21.4434 10.9783C21.4395 10.9529 21.3982 10.9344 21.3607 10.9411C21.3667 10.8989 21.3253 10.8652 21.2564 10.8668C21.2643 10.8145 21.1678 10.774 21.1185 10.8061C21.0871 10.7673 21.024 10.7756 21.0083 10.8061C20.9748 10.7673 20.8684 10.7791 20.8428 10.8212C20.7976 10.796 20.7096 10.8581 20.7169 10.9563C20.7188 10.9834 20.7206 11.0115 20.6754 11.0205C20.5908 11.0374 20.5416 11.1318 20.4686 11.1453C20.3958 11.1589 20.323 11.1825 20.3092 11.223C20.2954 11.2635 20.321 11.3058 20.2935 11.326C20.2659 11.3463 20.3111 11.3649 20.3249 11.3749C20.3387 11.385 20.3603 11.4019 20.3643 11.4256C20.3699 11.4591 20.4252 11.4691 20.4825 11.4323C20.5061 11.4172 20.5474 11.4628 20.6144 11.4306C20.6813 11.3986 20.7764 11.4155 20.7601 11.4678C20.7523 11.4931 20.7699 11.5202 20.7917 11.5454C20.8133 11.5707 20.8458 11.647 20.8271 11.6906C20.7995 11.7547 20.8547 11.7903 20.8409 11.8475C20.8271 11.905 20.8487 11.9574 20.8192 12.0349C20.7896 12.1125 20.7892 12.2097 20.833 12.2375C20.8941 12.2763 20.8572 12.3533 20.9098 12.3861C20.953 12.413 20.9275 12.4789 21.0083 12.4991C21.089 12.5194 21.0418 12.5734 21.1264 12.5852C21.2111 12.597 21.2406 12.6578 21.3292 12.6442C21.3945 12.6343 21.4289 12.6502 21.4669 12.6652C21.4748 12.7193 21.4573 12.9177 21.4533 12.9684C21.4498 13.0132 21.4258 13.0847 21.4258 13.1288C21.4258 13.1557 21.4809 13.1624 21.544 13.1624C21.6068 13.1624 21.6345 13.1372 21.6187 13.0663C21.6029 12.9953 21.5991 12.8225 21.6031 12.7144C21.6578 12.7407 21.7098 12.7776 21.7074 12.8182C21.7034 12.884 21.7044 13.0021 21.6935 13.0629C21.6858 13.1068 21.6975 13.176 21.7015 13.2216C21.7055 13.2384 21.8117 13.2367 21.8551 13.2216C21.8984 13.2064 21.8984 13.1659 21.8944 12.9819C21.8924 12.8908 21.7958 12.7977 21.9181 12.7523C21.9772 12.7303 22.0598 12.6796 22.0914 12.6325C22.1228 12.5852 22.1918 12.6037 22.241 12.6275C22.2902 12.6511 22.369 12.6871 22.4184 12.6713C22.4813 12.6511 22.5483 12.7016 22.6034 12.6713C22.6585 12.6409 22.7295 12.6932 22.7747 12.6562C22.82 12.6189 22.8988 12.6544 22.9323 12.6189C22.9658 12.5835 23.1035 12.6393 23.1529 12.592C23.2021 12.5447 23.269 12.6055 23.3144 12.5701C23.3262 12.5607 23.3403 12.5586 23.3557 12.5598C23.3539 12.6396 23.3389 12.7668 23.336 12.8064C23.3324 12.8513 23.3084 12.9227 23.3084 12.9666C23.3084 12.9937 23.3635 13.0004 23.4265 13.0004C23.4896 13.0004 23.5172 12.9751 23.5015 12.9043C23.4856 12.8334 23.5083 12.6591 23.5121 12.5509Z" fill="rgb(163,163,163)" fill-rule="evenodd" />
							<path id="Fill 43" d="M20.3254 11.32C20.3518 11.3008 20.3274 11.2609 20.3405 11.2226C20.3537 11.1844 20.4235 11.162 20.4933 11.1493C20.5631 11.1365 20.6102 11.0472 20.6914 11.0312C20.7346 11.0227 20.7328 10.9962 20.7309 10.9707C20.7241 10.8778 20.8082 10.8192 20.8517 10.8432C20.8761 10.8032 20.978 10.792 21.01 10.8287C21.0251 10.8 21.0854 10.792 21.1157 10.8287C21.1628 10.7985 21.2552 10.8367 21.2477 10.8861C21.3137 10.8846 21.3533 10.9164 21.3477 10.9563C21.3835 10.95 21.4231 10.9675 21.4269 10.9914C21.4208 11.0306 21.5105 11.0406 21.469 11.066C21.4327 11.0882 21.3982 11.0795 21.3568 11.0491C21.3155 11.0187 21.1776 11.0457 21.1579 11.0609C21.1382 11.0762 21.1165 11.0829 21.1007 11.0711C21.085 11.0593 21.0477 11.0406 21.0299 11.0424C21.0121 11.0441 20.9748 11.0441 20.953 11.0086C20.9314 10.9732 20.8762 10.9681 20.8665 10.9816C20.8567 10.995 20.8881 11.0441 20.9197 11.0626C20.9511 11.0813 20.9354 11.1167 20.9728 11.1369C20.9973 11.1502 20.9748 11.1959 20.961 11.223C20.9472 11.25 20.894 11.2415 20.89 11.2213C20.8862 11.2011 20.8722 11.1875 20.8408 11.2179C20.8093 11.2484 20.7425 11.2399 20.7266 11.2315C20.7109 11.223 20.6675 11.2079 20.638 11.2162C20.6084 11.2248 20.6518 11.2382 20.6558 11.25C20.6597 11.2618 20.6084 11.2669 20.5789 11.2669C20.5494 11.2669 20.5395 11.2837 20.5573 11.2871C20.5751 11.2905 20.6438 11.294 20.6715 11.2804C20.6991 11.2669 20.7837 11.2804 20.7917 11.3058C20.7995 11.331 20.7425 11.3412 20.7088 11.3378C20.6594 11.3328 20.5868 11.3597 20.5514 11.3681C20.5159 11.3766 20.4214 11.3547 20.3839 11.3648C20.3466 11.3749 20.3097 11.3351 20.3254 11.32Z" fill="rgb(163,163,163)" fill-rule="evenodd" />
							<path id="Fill 44" d="M20.9589 11.5269C20.9235 11.5403 20.9354 11.5808 20.9669 11.5977C20.9985 11.6146 21.0693 11.6213 21.1146 11.613C21.1598 11.6045 21.1697 11.618 21.1403 11.6349C21.1106 11.6517 21.1854 11.6551 21.1795 11.6822C21.1737 11.7091 21.2071 11.704 21.2386 11.7024C21.2702 11.7007 21.3115 11.6804 21.3469 11.6618C21.3823 11.6433 21.408 11.6568 21.3745 11.6889C21.3411 11.7209 21.2288 11.7615 21.1403 11.7565C21.0515 11.7514 21.0043 11.7716 21.024 11.8003C21.0437 11.829 21.1382 11.834 21.1874 11.8188C21.2367 11.8037 21.2288 11.8307 21.1914 11.8492C21.1539 11.8678 21.1007 11.8695 21.0555 11.8678C21.0102 11.8662 20.9708 11.905 21.0299 11.9269C21.089 11.9488 21.1678 11.9354 21.1973 11.9539C21.2269 11.9725 21.3174 11.9438 21.3194 11.9759C21.3213 12.0079 21.2937 12.0197 21.2406 12.0164C21.1874 12.013 21.2031 12.037 21.2426 12.05C21.278 12.062 21.3411 12.062 21.3745 12.0585C21.408 12.0552 21.3982 12.0889 21.3647 12.1007C21.3312 12.1125 21.2229 12.1294 21.1697 12.1278C21.1166 12.1261 21.142 12.1599 21.2111 12.1599C21.4217 12.1599 21.4927 12.0602 21.5459 11.991C21.572 11.9571 21.6226 11.9387 21.6345 11.959C21.6463 11.9792 21.6483 11.9843 21.6247 12.0012C21.601 12.018 21.6068 12.0282 21.6502 12.0299C21.6934 12.0315 21.7566 12.0197 21.794 12.0097C21.8314 11.9995 21.9416 12.0634 21.8511 12.0653C21.6915 12.0687 21.4946 12.1261 21.4297 12.1497C21.3647 12.1733 21.2563 12.2178 21.1894 12.2155C21.1403 12.2139 21.1204 12.2324 21.1403 12.2544C21.1598 12.2763 21.2229 12.2763 21.2583 12.2662C21.2937 12.256 21.3016 12.2662 21.278 12.2864C21.2545 12.3067 21.1954 12.3151 21.1539 12.3219C21.1127 12.3286 21.0923 12.3551 21.1244 12.3657C21.1854 12.386 21.1303 12.4046 21.1737 12.4147C21.217 12.4249 21.1697 12.4569 21.217 12.4671C21.2643 12.4772 21.2918 12.4721 21.3272 12.4485C21.3628 12.4249 21.3823 12.4113 21.4198 12.4147C21.4573 12.4182 21.4829 12.4012 21.5046 12.3759C21.5262 12.3506 21.5991 12.305 21.6226 12.327C21.6463 12.349 21.6955 12.3083 21.7054 12.3303C21.7152 12.3523 21.7566 12.3388 21.7665 12.3692C21.7773 12.4029 21.8235 12.4097 21.8551 12.3979C21.8865 12.386 21.9121 12.3573 21.9121 12.3151C21.9121 12.2729 21.924 12.256 21.9358 12.3016C21.9475 12.3472 21.9909 12.3606 22.0126 12.3388C22.0342 12.3168 22.042 12.2409 22.0263 12.2055C22.0106 12.1699 22.0086 12.1243 22.0244 12.1159C22.0401 12.1076 22.0776 12.1852 22.0933 12.2189C22.1091 12.2527 22.1503 12.2425 22.1524 12.2088C22.1543 12.175 22.1918 12.1581 22.2194 12.1835C22.2469 12.2088 22.2312 12.2932 22.2391 12.3337C22.2469 12.3742 22.3237 12.3236 22.3317 12.337C22.3395 12.3506 22.369 12.3539 22.3808 12.3252C22.3927 12.2965 22.4203 12.2712 22.436 12.2881C22.4518 12.305 22.4754 12.3337 22.4851 12.3657C22.4951 12.3979 22.5305 12.4147 22.5521 12.381C22.5737 12.3472 22.5896 12.2814 22.5817 12.2357C22.5737 12.1902 22.5877 12.1615 22.6072 12.1852C22.6269 12.2088 22.625 12.2729 22.6269 12.3252C22.629 12.3775 22.6939 12.3726 22.6939 12.2949C22.6939 12.2594 22.7136 12.2527 22.7195 12.2729C22.7254 12.2932 22.7254 12.327 22.7314 12.3421C22.7459 12.3796 22.7964 12.359 22.8022 12.3337C22.8081 12.3083 22.7983 12.2172 22.7865 12.1768C22.7746 12.1361 22.7983 12.1076 22.818 12.1294C22.8377 12.1514 22.8416 12.2088 22.8456 12.2729C22.8494 12.337 22.8908 12.3405 22.9126 12.3219C22.9342 12.3032 22.9342 12.2493 22.9244 12.2104C22.9145 12.1717 22.946 12.1717 22.9598 12.1953C22.9736 12.2189 22.9973 12.2037 22.9933 12.1852C22.9894 12.1666 23.009 12.1497 23.0287 12.175C23.0484 12.2004 23.0425 12.2578 23.0327 12.3032C23.0228 12.349 23.0819 12.3438 23.1094 12.305C23.137 12.2662 23.1232 12.1599 23.0997 12.1261C23.076 12.0923 23.078 12.0484 23.0917 12.0097C23.1056 11.9708 23.1312 11.969 23.1331 11.986C23.1351 12.0028 23.1469 12.0315 23.1686 12.0535C23.1902 12.0754 23.202 12.0789 23.2059 12.045C23.2099 12.0113 23.2296 12.0197 23.2374 12.045C23.2454 12.0704 23.2591 12.0905 23.2788 12.0687C23.2985 12.0467 23.3241 12.0636 23.3084 12.0974C23.2926 12.1312 23.2926 12.1615 23.3044 12.1953C23.3163 12.2291 23.3576 12.224 23.3616 12.1852C23.3697 12.1044 23.3813 12.1581 23.3911 12.1935C23.4008 12.2291 23.4305 12.2273 23.4364 12.2071C23.4423 12.1868 23.4483 12.1819 23.4483 12.2037C23.4483 12.2257 23.458 12.2442 23.4837 12.2442C23.5093 12.2442 23.5034 12.2004 23.5151 12.1733C23.5269 12.1463 23.5486 12.1835 23.5782 12.2459C23.6077 12.3083 23.6293 12.2493 23.6983 12.3911C23.7265 12.4489 23.7672 12.3995 23.7653 12.3793C23.7632 12.359 23.7691 12.3455 23.8026 12.3455C23.8361 12.3455 23.8637 12.3388 23.852 12.3168C23.8401 12.2949 23.848 12.2544 23.846 12.2088C23.8441 12.1632 23.8499 12.1379 23.8558 12.1632C23.8617 12.1885 23.8814 12.224 23.9128 12.2425C23.9444 12.2611 23.966 12.2104 23.9404 12.1784C23.9149 12.1463 23.8795 12.0704 23.8814 12.0062C23.8829 11.959 23.905 11.9741 23.905 12.0079C23.905 12.0417 23.9247 12.1025 23.9543 12.1159C23.9838 12.1294 23.9957 12.0669 23.9819 12.0349C23.9681 12.0028 23.9603 11.959 23.9897 11.9505C24.0192 11.9421 23.9819 11.9067 23.9563 11.8813C23.9306 11.856 23.9149 11.8307 23.9603 11.8324C24.0054 11.834 23.9681 11.8053 23.9463 11.7868C23.9247 11.7683 23.8874 11.7311 23.9463 11.7361C24.0054 11.7412 23.9859 11.7109 23.9622 11.694C23.9385 11.6771 23.9247 11.645 23.966 11.6467C24.0075 11.6484 24.033 11.6281 24.0291 11.613C24.014 11.5544 23.9149 11.4864 23.8539 11.434C23.7928 11.3817 23.6943 11.3294 23.6411 11.3209C23.588 11.3124 23.586 11.3463 23.5998 11.3665C23.6136 11.3867 23.6411 11.4003 23.6451 11.3799C23.649 11.3598 23.6903 11.3817 23.71 11.4086C23.7297 11.4357 23.7967 11.4695 23.8382 11.4998C23.8795 11.5302 23.7829 11.5151 23.7357 11.4745C23.7087 11.4513 23.712 11.4795 23.7475 11.5116C23.7829 11.5438 23.7376 11.5572 23.7003 11.5302C23.6628 11.5032 23.5663 11.4273 23.5053 11.3783C23.4443 11.3294 23.4343 11.3412 23.4324 11.3732C23.4305 11.4053 23.4521 11.4273 23.4915 11.4542C23.5309 11.4813 23.5801 11.5234 23.6176 11.5521C23.6549 11.5808 23.6235 11.5994 23.5998 11.5791C23.5761 11.5589 23.4955 11.5032 23.4483 11.4644C23.4008 11.4255 23.3576 11.407 23.3281 11.4121C23.2985 11.4172 23.3006 11.4459 23.336 11.4762C23.3714 11.5065 23.4148 11.5639 23.4148 11.5977C23.4148 11.6315 23.3832 11.6551 23.3674 11.5944C23.3517 11.5336 23.2768 11.4627 23.2217 11.4086C23.1666 11.3547 23.1114 11.3445 23.07 11.3479C23.0287 11.3512 23.0306 11.3918 23.0306 11.4239C23.0306 11.4559 23.0031 11.4373 23.0011 11.4137C22.9992 11.3901 22.9677 11.3699 22.9499 11.3716C22.9323 11.3732 22.9382 11.4222 22.9323 11.4442C22.9263 11.466 22.8988 11.4864 22.8988 11.4357C22.8988 11.385 22.8337 11.3598 22.8062 11.358C22.7786 11.3563 22.753 11.3665 22.7668 11.3885C22.7806 11.4103 22.7746 11.4695 22.7648 11.5032C22.7549 11.5369 22.7254 11.4778 22.7195 11.4154C22.7136 11.353 22.6211 11.3091 22.5561 11.3276C22.4911 11.3463 22.5404 11.3867 22.5286 11.4255C22.5167 11.4644 22.4989 11.429 22.493 11.3885C22.4872 11.3479 22.4557 11.3225 22.4124 11.3327C22.369 11.3429 22.3395 11.3631 22.3414 11.3901C22.3434 11.4172 22.3434 11.4408 22.3336 11.4846C22.3237 11.5285 22.306 11.5065 22.308 11.4778C22.31 11.4492 22.3001 11.4019 22.2902 11.3749C22.2804 11.3479 22.2646 11.3732 22.2686 11.407C22.2726 11.4408 22.2626 11.5184 22.2469 11.5657C22.2312 11.613 22.2075 11.6146 22.2194 11.5505C22.2312 11.4864 22.2016 11.3918 22.1721 11.3479C22.1509 11.3166 22.1032 11.3058 22.1032 11.3496C22.1032 11.3935 22.117 11.4255 22.1524 11.4577C22.1878 11.4897 22.1603 11.569 22.1248 11.6113C22.0893 11.6535 22.0914 11.5926 22.1032 11.5471C22.1149 11.5015 22.05 11.4864 22.0244 11.4778C21.9988 11.4695 22.052 11.4239 22.0638 11.3631C22.0696 11.3331 22.0617 11.3142 22.0382 11.3124C22.0145 11.3107 21.9515 11.3681 21.924 11.4103C21.9318 11.3665 21.924 11.3276 21.9003 11.3276C21.8767 11.3276 21.8511 11.3699 21.8334 11.4003C21.8157 11.4306 21.7979 11.4137 21.8157 11.3817C21.8334 11.3496 21.8608 11.2635 21.8254 11.245C21.79 11.2264 21.7585 11.3024 21.7211 11.2888C21.7 11.2812 21.729 11.2332 21.7408 11.2112C21.7526 11.1892 21.729 11.1723 21.6758 11.2128C21.6226 11.2535 21.5991 11.3192 21.5851 11.3598C21.5715 11.4003 21.477 11.466 21.4257 11.5015C21.3745 11.5369 21.3528 11.5234 21.3785 11.5082C21.4041 11.4931 21.4552 11.4459 21.4808 11.4273C21.5065 11.4086 21.4946 11.3977 21.4454 11.4297C21.3963 11.4619 21.3066 11.5201 21.2149 11.5403C21.1611 11.5523 21.1539 11.5421 21.2071 11.5269C21.2603 11.5116 21.3823 11.439 21.412 11.4053C21.4305 11.3841 21.3823 11.4019 21.3588 11.407C21.3352 11.4121 21.3155 11.4053 21.3628 11.3885C21.4099 11.3716 21.5597 11.2382 21.5912 11.1892C21.6226 11.1403 21.5951 11.1217 21.5754 11.1234C21.5557 11.1251 21.5281 11.1369 21.534 11.1167C21.54 11.0964 21.5262 11.0693 21.5006 11.0779C21.4749 11.0862 21.477 11.1352 21.4671 11.1622C21.4573 11.1892 21.402 11.2248 21.3666 11.2248C21.3312 11.2248 21.282 11.2315 21.2446 11.2568C21.2071 11.282 21.1894 11.2584 21.2071 11.2382C21.2248 11.2179 21.2643 11.2128 21.3037 11.2112C21.3431 11.2095 21.3863 11.2045 21.4198 11.1723C21.4533 11.1403 21.4552 11.1149 21.4297 11.1133C21.4041 11.1116 21.3607 11.0829 21.3469 11.0711C21.277 11.0111 21.1488 11.0947 21.0988 11.1436C21.0712 11.1707 20.9767 11.2484 20.9472 11.2686C20.9176 11.2888 20.9294 11.3175 20.9786 11.2787C21.028 11.2399 21.0437 11.2669 20.9985 11.2956C20.953 11.3243 20.9197 11.3665 20.9354 11.3817C20.9511 11.3968 21.0121 11.3783 21.0456 11.3598C21.0791 11.3412 21.0949 11.3867 21.0121 11.4019C20.9566 11.4122 20.9371 11.4318 20.9807 11.434C21.0142 11.4357 21.0653 11.4222 21.1127 11.3986C21.1598 11.3749 21.1973 11.3885 21.1579 11.4121C21.1185 11.4357 21.0318 11.4678 20.9886 11.4678C20.9523 11.4678 20.9945 11.5134 20.9589 11.5269Z" fill="rgb(255,255,255)" fill-rule="evenodd" />
							<path id="Fill 45" d="M21.1874 11.1496C21.2348 11.1002 21.2761 11.0786 21.3194 11.1141C21.3586 11.1462 21.3628 11.1602 21.3135 11.1496C21.2643 11.1389 21.2308 11.1496 21.2013 11.1814C21.1717 11.2134 21.1382 11.2009 21.1874 11.1496Z" fill="rgb(163,163,163)" fill-rule="evenodd" />
							<path id="Fill 46" d="M20.4077 11.2749C20.4431 11.2394 20.5001 11.2394 20.5258 11.2005C20.5514 11.1614 20.5789 11.1757 20.5474 11.2129C20.516 11.2501 20.4549 11.2573 20.4293 11.2838C20.4037 11.3104 20.3899 11.2926 20.4077 11.2749Z" fill="rgb(163,163,163)" fill-rule="evenodd" />
							<path id="Fill 47" d="M20.6282 11.1393C20.6496 11.1364 20.6912 11.1109 20.7168 11.0808C20.7425 11.0507 20.7976 11.04 20.8309 11.0755C20.8644 11.1109 20.8822 11.1233 20.8999 11.1305C20.9176 11.1376 20.9176 11.1607 20.89 11.1676C20.8625 11.1748 20.8251 11.1801 20.8054 11.1712C20.7857 11.1624 20.7561 11.1553 20.7325 11.1607C20.7088 11.1659 20.6991 11.1553 20.7188 11.1464C20.7385 11.1376 20.762 11.1109 20.7739 11.1003C20.7857 11.0897 20.8171 11.0985 20.7995 11.1092C20.7817 11.1199 20.7896 11.1428 20.8073 11.1517C20.8251 11.1607 20.8605 11.1607 20.8762 11.1447C20.8527 11.1216 20.8133 11.0915 20.7976 11.0827C20.7817 11.0737 20.7679 11.0701 20.7482 11.0915C20.7285 11.1128 20.6813 11.1641 20.6361 11.1624C20.5908 11.1607 20.6026 11.1428 20.6282 11.1393Z" fill="rgb(163,163,163)" fill-rule="evenodd" />
							<path id="Fill 48" d="M21.8727 11.4574C21.8553 11.4818 21.8393 11.5133 21.8373 11.5381C21.8354 11.5629 21.8581 11.5798 21.8609 11.5487C21.8639 11.5177 21.8668 11.4991 21.8914 11.4761C21.9161 11.453 21.8924 11.4299 21.8727 11.4574Z" fill="rgb(163,163,163)" fill-rule="evenodd" />
							<path id="Fill 49" d="M21.6315 11.4568C21.6519 11.4485 21.6866 11.4293 21.7033 11.4116C21.7201 11.394 21.7309 11.4055 21.7142 11.4249C21.6974 11.4444 21.659 11.4675 21.6413 11.4728C21.6236 11.4781 21.6099 11.4657 21.6315 11.4568Z" fill="rgb(163,163,163)" fill-rule="evenodd" />
							<path id="Fill 50" d="M21.662 11.5554C21.6337 11.5895 21.5222 11.6704 21.4887 11.6855C21.4552 11.7007 21.4671 11.7227 21.5046 11.7109C21.477 11.7327 21.4158 11.7683 21.3766 11.7783C21.3372 11.7885 21.3292 11.8188 21.3883 11.8003C21.4474 11.7817 21.53 11.7327 21.5517 11.7109C21.5735 11.6889 21.5459 11.6787 21.5794 11.6551C21.6129 11.6315 21.6748 11.5883 21.6837 11.5707C21.6975 11.5438 21.6817 11.5318 21.662 11.5554Z" fill="rgb(163,163,163)" fill-rule="evenodd" />
							<path id="Fill 51" d="M21.54 11.8308C21.5822 11.8102 21.661 11.7374 21.6837 11.6956C21.6975 11.6704 21.725 11.6737 21.7034 11.7125C21.6818 11.7514 21.601 11.8206 21.5735 11.8391C21.5459 11.8577 21.4946 11.8526 21.54 11.8308Z" fill="rgb(163,163,163)" fill-rule="evenodd" />
							<path id="Fill 52" d="M22.436 11.4306C22.4244 11.4544 22.4222 11.51 22.4262 11.5369C22.4301 11.564 22.4538 11.5843 22.4498 11.5438C22.4459 11.5033 22.4459 11.4628 22.4595 11.4509C22.4735 11.439 22.4557 11.3901 22.436 11.4306Z" fill="rgb(163,163,163)" fill-rule="evenodd" />
							<path id="Fill 53" d="M22.6762 11.5302C22.6962 11.5486 22.7057 11.6349 22.7038 11.6669C22.7019 11.6991 22.7354 11.6991 22.7333 11.6535C22.7314 11.6079 22.7274 11.5505 22.7097 11.5202C22.6919 11.4897 22.6487 11.5049 22.6762 11.5302Z" fill="rgb(163,163,163)" fill-rule="evenodd" />
							<path id="Fill 54" d="M22.8869 11.5859C22.8991 11.608 22.9145 11.6501 22.9145 11.6804C22.9145 11.7109 22.9401 11.6973 22.942 11.6619C22.944 11.6265 22.9382 11.5961 22.9244 11.5725C22.9106 11.5489 22.8691 11.5538 22.8869 11.5859Z" fill="rgb(163,163,163)" fill-rule="evenodd" />
							<path id="Fill 55" d="M23.017 11.5595C23.0062 11.5323 22.9895 11.508 22.9775 11.5116C22.9658 11.5152 22.9736 11.54 22.9895 11.5666C23.005 11.5932 23.0287 11.5896 23.017 11.5595Z" fill="rgb(163,163,163)" fill-rule="evenodd" />
							<path id="Fill 56" d="M22.1938 11.7479C22.1879 11.8187 22.1504 11.8813 22.1052 11.9032C22.0599 11.9252 22.0677 11.9606 22.1228 11.9252C22.1781 11.8898 22.2194 11.8289 22.2313 11.775C22.243 11.7209 22.1978 11.7007 22.1938 11.7479Z" fill="rgb(163,163,163)" fill-rule="evenodd" />
							<path id="Fill 57" d="M22.0953 11.716C22.0717 11.7396 22.0579 11.7903 22.0579 11.829C22.0579 11.8678 22.0736 11.8391 22.0776 11.8172C22.0816 11.7952 22.0893 11.7649 22.1092 11.7547C22.1287 11.7445 22.119 11.6924 22.0953 11.716Z" fill="rgb(163,163,163)" fill-rule="evenodd" />
							<path id="Fill 58" d="M23.8007 11.7648C23.8215 11.799 23.852 11.8544 23.8618 11.8864C23.8717 11.9185 23.848 11.9269 23.8401 11.8982C23.8321 11.8695 23.7948 11.8053 23.781 11.7834C23.7673 11.7615 23.777 11.726 23.8007 11.7648Z" fill="rgb(163,163,163)" fill-rule="evenodd" />
						</g>
					</g>
					<path id="Path 63" d="M17.8022 13.3333C17.8022 13.3333 20.0701 14.0071 20.4529 14.0071C20.5605 14.0071 22.0295 13.6702 22.4699 13.6702C22.6346 13.6702 24.1552 13.901 24.5522 14.0071C24.9492 14.1132 27.1376 13.3333 27.1376 13.3333" fill="rgb(215.985,215.985,215.985)" fill-opacity="0" fill-rule="evenodd" />
					<path id="Path 63" d="M17.8022 13.3333C17.8022 13.3333 20.0701 14.0071 20.4529 14.0071C20.5605 14.0071 22.0295 13.6702 22.4699 13.6702C22.6346 13.6702 24.1552 13.901 24.5522 14.0071C24.9492 14.1132 27.1376 13.3333 27.1376 13.3333" fill-rule="evenodd" stroke="rgb(255,255,255)" stroke-linecap="round" stroke-linejoin="round" stroke-width="0.666667" />
					<path id="Path 63" d="M17.8022 14.6667C17.8022 14.6667 20.0701 15.3405 20.4529 15.3405C20.5605 15.3405 22.0295 15.0036 22.4699 15.0036C22.6346 15.0036 24.1552 15.2344 24.5522 15.3405C24.9492 15.4466 27.1376 14.6667 27.1376 14.6667" fill="rgb(215.985,215.985,215.985)" fill-opacity="0" fill-rule="evenodd" />
					<path id="Path 63" d="M17.8022 14.6667C17.8022 14.6667 20.0701 15.3405 20.4529 15.3405C20.5605 15.3405 22.0295 15.0036 22.4699 15.0036C22.6346 15.0036 24.1552 15.2344 24.5522 15.3405C24.9492 15.4466 27.1376 14.6667 27.1376 14.6667" fill-rule="evenodd" stroke="rgb(255,255,255)" stroke-linecap="round" stroke-linejoin="round" stroke-width="0.666667" />
					<path id="Path 63" d="M17.8022 17.3333C17.8022 17.3333 20.0701 18.0071 20.4529 18.0071C20.5605 18.0071 21.4362 17.4619 22.4699 17.4619C23.5036 17.4619 24.1552 17.901 24.5522 18.0071C24.9492 18.1132 27.1376 17.3333 27.1376 17.3333L34.315 18.4813" fill="rgb(215.985,215.985,215.985)" fill-opacity="0" fill-rule="evenodd" />
					<path id="Path 63" d="M17.8022 17.3333C17.8022 17.3333 20.0701 18.0071 20.4529 18.0071C20.5605 18.0071 21.4362 17.4619 22.4699 17.4619C23.5036 17.4619 24.1552 17.901 24.5522 18.0071C24.9492 18.1132 27.1376 17.3333 27.1376 17.3333L34.315 18.4813" fill-rule="evenodd" stroke="rgb(255,255,255)" stroke-linecap="round" stroke-linejoin="round" stroke-width="1.333333" />
				</g>
			</g>
			<path id="Mask" d="M19.1356 14C19.1356 12.9063 19.1356 11.6132 19.1356 10.6659C19.1356 9.92948 19.7325 9.33337 20.4689 9.33337L24.4689 9.33337C25.2053 9.33337 25.8022 9.92948 25.8022 10.6659C25.8022 11.6132 25.8022 12.9063 25.8022 14C25.8022 17.3334 22.4689 18.6667 22.4689 18.6667C22.4689 18.6667 19.1356 17.3334 19.1356 14Z" fill="url(#paint_linear_62)" fill-opacity="0" fill-rule="evenodd" />
			<path id="Mask" d="M19.1356 10.6659L19.1356 14C19.1356 17.3334 22.4689 18.6667 22.4689 18.6667C22.4689 18.6667 25.8022 17.3334 25.8022 14L25.8022 10.6659C25.8022 9.92948 25.2053 9.33337 24.4689 9.33337L20.4689 9.33337C19.7325 9.33337 19.1356 9.92948 19.1356 10.6659ZM22.4689 17.9312C22.5278 17.9004 22.5919 17.8655 22.6611 17.8263C23.0355 17.6141 23.3784 17.3679 23.6896 17.0878C24.1167 16.7035 24.4506 16.2825 24.6914 15.825C24.803 15.6131 24.8935 15.3947 24.963 15.1699C25.078 14.7977 25.1356 14.4078 25.1356 14L25.1356 10.6667C25.1356 10.5747 25.1193 10.4894 25.0867 10.4108C25.0542 10.3322 25.0054 10.2604 24.9403 10.1953C24.8752 10.1302 24.8034 10.0814 24.7248 10.0489C24.6462 10.0163 24.5609 10 24.4689 10L20.4689 10C20.3768 10 20.2915 10.0163 20.213 10.0489C20.1344 10.0814 20.0626 10.1302 19.9975 10.1953C19.9324 10.2604 19.8836 10.3322 19.851 10.4108C19.8185 10.4894 19.8022 10.5747 19.8022 10.6667L19.8022 12.7467L19.8022 14C19.8022 14.4078 19.8598 14.7977 19.9748 15.1699C20.0443 15.3947 20.1348 15.6131 20.2463 15.825C20.4871 16.2825 20.8211 16.7034 21.2482 17.0878C21.5594 17.3679 21.9022 17.6141 22.2767 17.8263C22.3459 17.8655 22.41 17.9004 22.4689 17.9312Z" fill="rgb(255,255,255)" fill-rule="evenodd" />
			<g mask="url(#mask_170)" />
		</g>
		<path id="Rectangle 36" d="M6.46885 8L1.80219 4L2.46885 4L7.13552 7.33333L8.46885 7.33333L13.8022 4L13.8022 4.49513C13.8022 4.60278 13.7502 4.7038 13.6626 4.76637L9.13552 8L9.13552 9.33333L13.3497 12.9455C13.5051 13.0787 13.4109 13.3333 13.2062 13.3333L13.2062 13.3333C13.1602 13.3333 13.1154 13.319 13.078 13.2923L8.46885 10L7.13552 10L1.80219 13.3333L1.80219 12.6667L6.46885 9.33333L6.46885 8Z" fill="rgb(219,30,54)" fill-rule="evenodd" />
		<path id="Rectangle 36" d="M2.6825 3.33333L1.34706e-05 3.33333L5.80219 8.30662L5.80219 8.99026L1.13552 12.3236L1.13552 14.5362L7.32672 10.6667L8.25521 10.6667L12.6905 13.8348C12.7676 13.8898 12.8492 13.9311 12.9351 13.9587C13.0211 13.9862 13.1114 14 13.2062 14C13.3096 14 13.4074 13.9839 13.4997 13.9518C13.5817 13.9232 13.6593 13.882 13.7325 13.828C13.8007 13.7777 13.8596 13.7203 13.9093 13.6558C13.9631 13.5858 14.0061 13.5074 14.0382 13.4206C14.0703 13.3339 14.0887 13.2464 14.0933 13.1582C14.0976 13.0769 14.0902 12.995 14.0712 12.9125C14.0508 12.8238 14.0187 12.742 13.975 12.6669C13.9259 12.5824 13.862 12.5066 13.7835 12.4393L9.80219 9.02671L9.80219 8.34308L14.0501 5.30886C14.1158 5.26194 14.1743 5.2088 14.2256 5.14944C14.2769 5.09008 14.3211 5.0245 14.358 4.95271C14.395 4.88091 14.4227 4.80688 14.4412 4.7306C14.4596 4.65435 14.4689 4.57586 14.4689 4.49513L14.4689 2.79717L8.27765 6.66667L7.34916 6.66667L2.6825 3.33333ZM7.13552 7.33333L4.61521 5.53312L2.46885 4L1.80219 4L2.21569 4.35443L2.46885 4.57143L4.20374 6.05847L6.46885 8L6.46885 9.33333L1.80219 12.6667L1.80219 13.3333L2.1314 13.1276L2.46885 12.9167L3.51134 12.2651L7.13552 10L8.46885 10L10.9892 11.8002L12.7622 13.0667L13.078 13.2923C13.1154 13.319 13.1602 13.3333 13.2062 13.3333C13.4109 13.3333 13.5051 13.0787 13.3497 12.9455L13.0551 12.693L11.4006 11.2749L9.13552 9.33333L9.13552 8L12.4638 5.62265L13.6626 4.76637C13.7502 4.7038 13.8022 4.60278 13.8022 4.49513L13.8022 4L13.145 4.41077L13.1355 4.41667L12.093 5.06822L8.46885 7.33333L7.13552 7.33333Z" fill="rgb(255,255,255)" fill-rule="evenodd" />
		<path id="Rectangle 2" d="M1.80219 7.33333L1.80219 10L6.46885 10L6.46885 13.3333C6.46885 13.7015 6.76733 14 7.13552 14L8.46885 14C8.83704 14 9.13552 13.7015 9.13552 13.3333L9.13552 10L13.8022 10C14.1704 10 14.4689 9.70152 14.4689 9.33333L14.4689 8C14.4689 7.63181 14.1704 7.33333 13.8022 7.33333L9.13552 7.33333L9.13552 4L6.46885 4L6.46885 7.33333L1.80219 7.33333Z" fill="rgb(255,255,255)" fill-rule="evenodd" />
		<path id="Rectangle 2" d="M1.80219 10L6.46885 10L6.46885 13.3333C6.46885 13.7015 6.76733 14 7.13552 14L8.46885 14C8.83704 14 9.13552 13.7015 9.13552 13.3333L9.13552 10L13.8022 10C14.1704 10 14.4689 9.70152 14.4689 9.33333L14.4689 8C14.4689 7.63181 14.1704 7.33333 13.8022 7.33333L9.13552 7.33333L9.13552 4L6.46885 4L6.46885 7.33333L1.80219 7.33333L1.80219 10Z" fill-rule="evenodd" stroke="rgb(150.96,150.96,150.96)" stroke-opacity="0" stroke-width="0.000000" />
		<path id="Rectangle 36" d="M1.80219 8L7.13552 8L7.13552 7.33333L7.13552 4L8.46885 4L8.46885 7.33333L8.46885 8L13.8022 8L13.8022 9.33333L8.46885 9.33333L8.46885 10L8.46885 13.3333L7.13552 13.3333L7.13552 10L7.13552 9.33333L1.80219 9.33333L1.80219 8Z" fill="rgb(219,30,54)" fill-rule="evenodd" />
		<path id="Rectangle 36" d="M7.13552 8L7.13552 7.33333L7.13552 4L8.46885 4L8.46885 7.33333L8.46885 8L13.8022 8L13.8022 9.33333L8.46885 9.33333L8.46885 10L8.46885 13.3333L7.13552 13.3333L7.13552 10L7.13552 9.33333L1.80219 9.33333L1.80219 8L7.13552 8Z" fill-rule="evenodd" stroke="rgb(150.96,150.96,150.96)" stroke-opacity="0" stroke-width="0.000000" />
	</g>
</svg>
