<svg width="29.000000" height="28.000000" viewBox="0 0 29 28" fill="none" xmlns="http://www.w3.org/2000/svg" xmlns:xlink="http://www.w3.org/1999/xlink">
	<desc>
			Created with Pixso.
	</desc>
	<defs>
		<linearGradient id="paint_linear_17_5692_0" x1="18.333374" y1="9.333374" x2="18.333374" y2="18.666706" gradientUnits="userSpaceOnUse">
			<stop stop-color="#FFFFFF"/>
			<stop offset="1.000000" stop-color="#F0F0F0"/>
		</linearGradient>
		<linearGradient id="paint_linear_17_5693_0" x1="18.333374" y1="9.333374" x2="18.333374" y2="18.666706" gradientUnits="userSpaceOnUse">
			<stop stop-color="#FFFFFF"/>
			<stop offset="1.000000" stop-color="#F0F0F0"/>
		</linearGradient>
		<linearGradient id="paint_linear_17_5717_0" x1="18.333374" y1="9.333374" x2="18.333374" y2="18.666706" gradientUnits="userSpaceOnUse">
			<stop stop-color="#FFD033"/>
			<stop offset="1.000000" stop-color="#FEC403"/>
		</linearGradient>
	</defs>
	<rect id="Falkland Islands" width="28.000000" height="28.000000" transform="translate(1.000000 0.000000)" fill="#FFFFFF" fill-opacity="0"/>
	<rect id="Mask" x="1.000000" y="4.000000" rx="3.000000" width="28.000000" height="20.000000" fill="#FFFFFF" fill-opacity="1.000000"/>
	<rect id="Mask" x="1.000000" y="4.000000" rx="3.000000" width="28.000000" height="20.000000" stroke="#979797" stroke-opacity="0" stroke-width="0.000000"/>
	<mask id="mask17_5688" mask-type="alpha" maskUnits="userSpaceOnUse" x="1.000000" y="4.000000" width="28.000000" height="20.000000">
		<rect id="Mask" x="1.000000" y="4.000000" rx="3.000000" width="28.000000" height="20.000000" fill="#FFFFFF" fill-opacity="1.000000"/>
		<rect id="Mask" x="1.000000" y="4.000000" rx="3.000000" width="28.000000" height="20.000000" stroke="#979797" stroke-opacity="0" stroke-width="0.000000"/>
	</mask>
	<g mask="url(#mask17_5688)">
		<rect id="Mask Copy" x="1.000000" y="4.000000" width="28.000000" height="20.000000" fill="#07319C" fill-opacity="1.000000"/>
		<rect id="Mask Copy" x="1.000000" y="4.000000" width="28.000000" height="20.000000" stroke="#979797" stroke-opacity="0" stroke-width="0.000000"/>
	</g>
	<g mask="url(#mask17_5688)">
		<path id="Mask" d="M18.33 14C18.33 12.9 18.33 11.61 18.33 10.66C18.33 9.92 18.93 9.33 19.66 9.33L23.66 9.33C24.4 9.33 25 9.92 25 10.66C25 11.61 25 12.9 25 14C25 17.33 21.66 18.66 21.66 18.66C21.66 18.66 18.33 17.33 18.33 14Z" fill="#0072C4" fill-opacity="1.000000" fill-rule="evenodd"/>
		<path id="Mask" d="M18.33 10.66C18.33 9.93 18.93 9.33 19.66 9.33L23.66 9.33C24.4 9.33 25 9.93 25 10.66C25 11.61 25 12.9 25 14C25 17.33 21.66 18.66 21.66 18.66C21.66 18.66 18.33 17.33 18.33 14C18.33 12.9 18.33 11.61 18.33 10.66Z" stroke="url(#paint_linear_17_5692_0)" stroke-opacity="0" stroke-width="0.000000"/>
		<mask id="mask17_5693" mask-type="alpha" maskUnits="userSpaceOnUse" x="18.333374" y="9.333374" width="6.666687" height="9.333313">
			<path id="Mask" d="M18.33 14C18.33 12.9 18.33 11.61 18.33 10.66C18.33 9.92 18.93 9.33 19.66 9.33L23.66 9.33C24.4 9.33 25 9.92 25 10.66C25 11.61 25 12.9 25 14C25 17.33 21.66 18.66 21.66 18.66C21.66 18.66 18.33 17.33 18.33 14Z" fill="#0072C4" fill-opacity="1.000000" fill-rule="evenodd"/>
			<path id="Mask" d="M18.33 10.66C18.33 9.93 18.93 9.33 19.66 9.33L23.66 9.33C24.4 9.33 25 9.93 25 10.66C25 11.61 25 12.9 25 14C25 17.33 21.66 18.66 21.66 18.66C21.66 18.66 18.33 17.33 18.33 14C18.33 12.9 18.33 11.61 18.33 10.66Z" stroke="url(#paint_linear_17_5693_0)" stroke-opacity="0" stroke-width="0.000000"/>
		</mask>
		<g mask="url(#mask17_5693)">
			<path id="Path 66" d="M19.86 13.26C19.18 13.95 20.52 13.87 20.52 13.87L21.47 13.56C21.47 13.56 21.9 13.61 22.19 13.7C22.38 13.76 22.92 14 22.92 14C22.92 14 24.04 13.77 23.65 13.26C23.25 12.76 20.55 12.57 19.86 13.26Z" fill="#005121" fill-opacity="1.000000" fill-rule="evenodd"/>
			<path id="Path 66" d="M20.52 13.87L21.47 13.56C21.47 13.56 21.9 13.61 22.19 13.7C22.38 13.76 22.92 14 22.92 14C22.92 14 24.04 13.77 23.65 13.26C23.25 12.76 20.55 12.57 19.86 13.26C19.18 13.95 20.52 13.87 20.52 13.87Z" stroke="#979797" stroke-opacity="0" stroke-width="0.000000"/>
		</g>
		<g mask="url(#mask17_5693)">
			<path id="Fill 41" d="M22.71 12.55C22.73 12.54 22.8 12.54 22.82 12.57C22.86 12.62 22.93 12.6 22.97 12.64C23.01 12.69 23.05 12.73 23.05 12.79C23.05 12.85 23.05 13.01 23.05 13.04C23.05 13.1 23.06 13.1 23.11 13.1C23.18 13.1 23.27 13.1 23.27 12.98C23.27 12.9 23.19 12.85 23.17 12.56C23.2 12.53 23.23 12.5 23.22 12.46C23.21 12.42 23.29 12.4 23.28 12.34C23.27 12.28 23.36 12.24 23.32 12.17C23.29 12.11 23.37 12.1 23.34 12.05C23.3 11.99 23.39 11.95 23.35 11.9C23.32 11.85 23.4 11.81 23.36 11.75C23.31 11.69 23.38 11.66 23.34 11.62C23.36 11.57 23.34 11.45 23.25 11.38C23.17 11.31 23.04 11.27 22.97 11.24C22.84 11.19 22.6 11.21 22.42 11.23C22.25 11.26 21.93 11.28 21.83 11.26C21.73 11.25 21.5 11.23 21.31 11.27C21.25 11.28 21.18 11.26 21.14 11.22C21.11 11.19 21.1 11.2 21.07 11.2C21.04 11.2 21.02 11.19 21.01 11.16C20.99 11.1 20.93 11.14 20.91 11.06C20.89 11.01 20.8 11.06 20.77 11.02C20.74 10.97 20.71 10.97 20.64 10.97C20.63 10.95 20.59 10.93 20.55 10.94C20.56 10.89 20.52 10.86 20.45 10.86C20.46 10.81 20.36 10.77 20.31 10.8C20.28 10.76 20.22 10.77 20.2 10.8C20.17 10.76 20.06 10.77 20.04 10.82C19.99 10.79 19.9 10.85 19.91 10.95C19.91 10.98 19.91 11.01 19.87 11.02C19.78 11.03 19.73 11.13 19.66 11.14C19.59 11.15 19.52 11.18 19.5 11.22C19.49 11.26 19.51 11.3 19.49 11.32C19.46 11.34 19.5 11.36 19.52 11.37C19.53 11.38 19.55 11.4 19.56 11.42C19.56 11.45 19.62 11.46 19.68 11.43C19.7 11.41 19.74 11.46 19.81 11.43C19.87 11.39 19.97 11.41 19.95 11.46C19.95 11.49 19.96 11.52 19.98 11.54C20.01 11.57 20.04 11.64 20.02 11.69C19.99 11.75 20.05 11.79 20.03 11.84C20.02 11.9 20.04 11.95 20.01 12.03C19.98 12.11 19.98 12.2 20.03 12.23C20.09 12.27 20.05 12.35 20.1 12.38C20.15 12.41 20.12 12.47 20.2 12.49C20.28 12.51 20.23 12.57 20.32 12.58C20.4 12.59 20.43 12.65 20.52 12.64C20.59 12.63 20.62 12.65 20.66 12.66C20.67 12.71 20.65 12.91 20.65 12.96C20.64 13.01 20.62 13.08 20.62 13.12C20.62 13.15 20.67 13.16 20.74 13.16C20.8 13.16 20.83 13.13 20.81 13.06C20.8 12.99 20.79 12.82 20.8 12.71C20.85 12.74 20.9 12.77 20.9 12.81C20.9 12.88 20.9 13 20.89 13.06C20.88 13.1 20.89 13.17 20.89 13.22C20.9 13.23 21 13.23 21.05 13.22C21.09 13.2 21.09 13.16 21.09 12.98C21.09 12.89 20.99 12.79 21.11 12.75C21.17 12.73 21.25 12.67 21.28 12.63C21.32 12.58 21.38 12.6 21.43 12.62C21.48 12.65 21.56 12.68 21.61 12.67C21.67 12.65 21.74 12.7 21.8 12.67C21.85 12.64 21.92 12.69 21.97 12.65C22.01 12.61 22.09 12.65 22.13 12.61C22.16 12.58 22.3 12.63 22.35 12.59C22.39 12.54 22.46 12.6 22.51 12.57C22.52 12.56 22.53 12.55 22.55 12.55C22.55 12.63 22.53 12.76 22.53 12.8C22.53 12.85 22.5 12.92 22.5 12.96C22.5 12.99 22.56 13 22.62 13C22.68 13 22.71 12.97 22.69 12.9C22.68 12.83 22.7 12.65 22.71 12.55Z" fill="#A3A3A3" fill-opacity="1.000000" fill-rule="evenodd"/>
			<path id="Fill 43" d="M19.52 11.32C19.54 11.3 19.52 11.26 19.53 11.22C19.55 11.18 19.62 11.16 19.69 11.14C19.76 11.13 19.8 11.04 19.88 11.03C19.93 11.02 19.93 10.99 19.92 10.97C19.92 10.87 20 10.81 20.04 10.84C20.07 10.8 20.17 10.79 20.2 10.82C20.22 10.8 20.28 10.79 20.31 10.82C20.36 10.79 20.45 10.83 20.44 10.88C20.51 10.88 20.55 10.91 20.54 10.95C20.58 10.95 20.62 10.96 20.62 10.99C20.61 11.03 20.7 11.04 20.66 11.06C20.63 11.08 20.59 11.07 20.55 11.04C20.51 11.01 20.37 11.04 20.35 11.06C20.33 11.07 20.31 11.08 20.29 11.07C20.28 11.05 20.24 11.04 20.22 11.04C20.2 11.04 20.17 11.04 20.15 11C20.12 10.97 20.07 10.96 20.06 10.98C20.05 10.99 20.08 11.04 20.11 11.06C20.14 11.08 20.13 11.11 20.17 11.13C20.19 11.15 20.17 11.19 20.15 11.22C20.14 11.25 20.09 11.24 20.08 11.22C20.08 11.2 20.07 11.18 20.03 11.21C20 11.24 19.94 11.23 19.92 11.23C19.9 11.22 19.86 11.2 19.83 11.21C19.8 11.22 19.84 11.23 19.85 11.25C19.85 11.26 19.8 11.26 19.77 11.26C19.74 11.26 19.73 11.28 19.75 11.28C19.77 11.29 19.84 11.29 19.86 11.28C19.89 11.26 19.98 11.28 19.98 11.3C19.99 11.33 19.94 11.34 19.9 11.33C19.85 11.33 19.78 11.35 19.74 11.36C19.71 11.37 19.61 11.35 19.58 11.36C19.54 11.37 19.5 11.33 19.52 11.32Z" fill="#A3A3A3" fill-opacity="1.000000" fill-rule="evenodd"/>
			<path id="Fill 44" d="M20.15 11.52C20.12 11.54 20.13 11.58 20.16 11.59C20.19 11.61 20.26 11.62 20.31 11.61C20.35 11.6 20.36 11.61 20.33 11.63C20.3 11.65 20.38 11.65 20.37 11.68C20.37 11.7 20.4 11.7 20.43 11.7C20.46 11.7 20.5 11.68 20.54 11.66C20.58 11.64 20.6 11.65 20.57 11.68C20.53 11.72 20.42 11.76 20.33 11.75C20.24 11.75 20.2 11.77 20.22 11.8C20.24 11.82 20.33 11.83 20.38 11.81C20.43 11.8 20.42 11.83 20.38 11.84C20.35 11.86 20.29 11.86 20.25 11.86C20.2 11.86 20.16 11.9 20.22 11.92C20.28 11.94 20.36 11.93 20.39 11.95C20.42 11.97 20.51 11.94 20.51 11.97C20.51 12 20.49 12.01 20.43 12.01C20.38 12.01 20.4 12.03 20.44 12.05C20.47 12.06 20.53 12.06 20.57 12.05C20.6 12.05 20.59 12.08 20.56 12.1C20.52 12.11 20.42 12.12 20.36 12.12C20.31 12.12 20.33 12.15 20.4 12.15C20.61 12.15 20.69 12.06 20.74 11.99C20.76 11.95 20.82 11.93 20.83 11.95C20.84 11.97 20.84 11.98 20.82 12C20.79 12.01 20.8 12.02 20.84 12.02C20.89 12.03 20.95 12.01 20.99 12C21.02 11.99 21.13 12.06 21.04 12.06C20.88 12.06 20.69 12.12 20.62 12.14C20.56 12.17 20.45 12.21 20.38 12.21C20.33 12.21 20.31 12.23 20.33 12.25C20.35 12.27 20.42 12.27 20.45 12.26C20.49 12.25 20.49 12.26 20.47 12.28C20.45 12.3 20.39 12.31 20.35 12.32C20.31 12.32 20.29 12.35 20.32 12.36C20.38 12.38 20.32 12.4 20.37 12.41C20.41 12.42 20.36 12.45 20.41 12.46C20.46 12.47 20.48 12.47 20.52 12.44C20.56 12.42 20.58 12.41 20.61 12.41C20.65 12.41 20.68 12.4 20.7 12.37C20.72 12.35 20.79 12.3 20.82 12.32C20.84 12.34 20.89 12.3 20.9 12.33C20.91 12.35 20.95 12.33 20.96 12.36C20.97 12.4 21.02 12.4 21.05 12.39C21.08 12.38 21.1 12.35 21.1 12.31C21.1 12.27 21.12 12.25 21.13 12.3C21.14 12.34 21.18 12.36 21.21 12.33C21.23 12.31 21.23 12.24 21.22 12.2C21.2 12.16 21.2 12.12 21.22 12.11C21.23 12.1 21.27 12.18 21.29 12.21C21.3 12.25 21.34 12.24 21.35 12.2C21.35 12.17 21.38 12.15 21.41 12.18C21.44 12.2 21.42 12.29 21.43 12.33C21.44 12.37 21.52 12.32 21.52 12.33C21.53 12.35 21.56 12.35 21.57 12.32C21.59 12.29 21.61 12.27 21.63 12.28C21.64 12.3 21.67 12.33 21.68 12.36C21.69 12.39 21.72 12.41 21.74 12.38C21.77 12.34 21.78 12.28 21.77 12.23C21.77 12.19 21.78 12.16 21.8 12.18C21.82 12.2 21.82 12.27 21.82 12.32C21.82 12.37 21.89 12.37 21.89 12.29C21.89 12.25 21.91 12.25 21.91 12.27C21.92 12.29 21.92 12.32 21.92 12.34C21.94 12.37 21.99 12.35 22 12.33C22 12.3 21.99 12.21 21.98 12.17C21.97 12.13 21.99 12.1 22.01 12.12C22.03 12.15 22.03 12.2 22.04 12.27C22.04 12.33 22.08 12.34 22.11 12.32C22.13 12.3 22.13 12.24 22.12 12.21C22.11 12.17 22.14 12.17 22.15 12.19C22.17 12.21 22.19 12.2 22.19 12.18C22.18 12.16 22.2 12.14 22.22 12.17C22.24 12.2 22.24 12.25 22.23 12.3C22.22 12.34 22.27 12.34 22.3 12.3C22.33 12.26 22.32 12.15 22.29 12.12C22.27 12.09 22.27 12.04 22.28 12C22.3 11.97 22.32 11.96 22.33 11.98C22.33 12 22.34 12.03 22.36 12.05C22.38 12.07 22.39 12.07 22.4 12.04C22.4 12.01 22.42 12.01 22.43 12.04C22.44 12.07 22.45 12.09 22.47 12.06C22.49 12.04 22.52 12.06 22.5 12.09C22.49 12.13 22.49 12.16 22.5 12.19C22.51 12.22 22.55 12.22 22.55 12.18C22.56 12.1 22.57 12.15 22.58 12.19C22.59 12.22 22.62 12.22 22.63 12.2C22.64 12.18 22.64 12.18 22.64 12.2C22.64 12.22 22.65 12.24 22.68 12.24C22.7 12.24 22.7 12.2 22.71 12.17C22.72 12.14 22.74 12.18 22.77 12.24C22.8 12.3 22.82 12.24 22.89 12.39C22.92 12.44 22.96 12.39 22.96 12.37C22.96 12.35 22.96 12.34 23 12.34C23.03 12.34 23.06 12.33 23.04 12.31C23.03 12.29 23.04 12.25 23.04 12.2C23.04 12.16 23.04 12.13 23.05 12.16C23.05 12.18 23.07 12.22 23.11 12.24C23.14 12.26 23.16 12.21 23.13 12.17C23.11 12.14 23.07 12.07 23.07 12C23.08 11.95 23.1 11.97 23.1 12C23.1 12.04 23.12 12.1 23.15 12.11C23.18 12.12 23.19 12.06 23.17 12.03C23.16 12 23.15 11.95 23.18 11.95C23.21 11.94 23.17 11.9 23.15 11.88C23.12 11.85 23.11 11.83 23.15 11.83C23.2 11.83 23.16 11.8 23.14 11.78C23.12 11.76 23.08 11.73 23.14 11.73C23.2 11.74 23.18 11.71 23.16 11.69C23.13 11.67 23.12 11.64 23.16 11.64C23.2 11.64 23.23 11.62 23.22 11.61C23.21 11.55 23.11 11.48 23.05 11.43C22.99 11.38 22.89 11.32 22.83 11.32C22.78 11.31 22.78 11.34 22.79 11.36C22.81 11.38 22.83 11.4 22.84 11.37C22.84 11.35 22.88 11.38 22.9 11.4C22.92 11.43 22.99 11.46 23.03 11.49C23.07 11.53 22.98 11.51 22.93 11.47C22.9 11.45 22.9 11.47 22.94 11.51C22.98 11.54 22.93 11.55 22.89 11.53C22.86 11.5 22.76 11.42 22.7 11.37C22.64 11.32 22.63 11.34 22.63 11.37C22.62 11.4 22.64 11.42 22.68 11.45C22.72 11.48 22.77 11.52 22.81 11.55C22.85 11.58 22.82 11.59 22.79 11.57C22.77 11.55 22.69 11.5 22.64 11.46C22.59 11.42 22.55 11.4 22.52 11.41C22.49 11.41 22.49 11.44 22.53 11.47C22.56 11.5 22.61 11.56 22.61 11.59C22.61 11.63 22.58 11.65 22.56 11.59C22.54 11.53 22.47 11.46 22.41 11.4C22.36 11.35 22.3 11.34 22.26 11.34C22.22 11.35 22.22 11.39 22.22 11.42C22.22 11.45 22.2 11.43 22.19 11.41C22.19 11.39 22.16 11.36 22.14 11.37C22.13 11.37 22.13 11.42 22.13 11.44C22.12 11.46 22.09 11.48 22.09 11.43C22.09 11.38 22.03 11.35 22 11.35C21.97 11.35 21.95 11.36 21.96 11.38C21.97 11.41 21.97 11.46 21.96 11.5C21.95 11.53 21.92 11.47 21.91 11.41C21.91 11.35 21.81 11.3 21.75 11.32C21.68 11.34 21.73 11.38 21.72 11.42C21.71 11.46 21.69 11.42 21.69 11.38C21.68 11.34 21.65 11.32 21.61 11.33C21.56 11.34 21.53 11.36 21.53 11.39C21.54 11.41 21.54 11.44 21.53 11.48C21.52 11.52 21.5 11.5 21.5 11.47C21.5 11.44 21.49 11.4 21.48 11.37C21.47 11.34 21.46 11.37 21.46 11.4C21.47 11.44 21.46 11.51 21.44 11.56C21.42 11.61 21.4 11.61 21.41 11.55C21.42 11.48 21.39 11.39 21.36 11.34C21.34 11.31 21.3 11.3 21.3 11.34C21.3 11.39 21.31 11.42 21.35 11.45C21.38 11.48 21.35 11.56 21.32 11.61C21.28 11.65 21.28 11.59 21.3 11.54C21.31 11.5 21.24 11.48 21.22 11.47C21.19 11.46 21.24 11.42 21.26 11.36C21.26 11.33 21.25 11.31 21.23 11.31C21.21 11.31 21.14 11.36 21.12 11.41C21.12 11.36 21.12 11.32 21.09 11.32C21.07 11.32 21.04 11.36 21.03 11.4C21.01 11.43 20.99 11.41 21.01 11.38C21.03 11.34 21.05 11.26 21.02 11.24C20.98 11.22 20.95 11.3 20.91 11.28C20.89 11.28 20.92 11.23 20.93 11.21C20.95 11.18 20.92 11.17 20.87 11.21C20.82 11.25 20.79 11.31 20.78 11.35C20.76 11.4 20.67 11.46 20.62 11.5C20.57 11.53 20.55 11.52 20.57 11.5C20.6 11.49 20.65 11.44 20.67 11.42C20.7 11.4 20.69 11.39 20.64 11.42C20.59 11.46 20.5 11.52 20.41 11.54C20.35 11.55 20.35 11.54 20.4 11.52C20.45 11.51 20.58 11.43 20.6 11.4C20.62 11.38 20.58 11.4 20.55 11.4C20.53 11.41 20.51 11.4 20.56 11.38C20.6 11.37 20.75 11.23 20.78 11.18C20.82 11.14 20.79 11.12 20.77 11.12C20.75 11.12 20.72 11.13 20.73 11.11C20.73 11.09 20.72 11.06 20.69 11.07C20.67 11.08 20.67 11.13 20.66 11.16C20.65 11.18 20.59 11.22 20.56 11.22C20.52 11.22 20.47 11.23 20.44 11.25C20.4 11.28 20.38 11.25 20.4 11.23C20.42 11.21 20.46 11.21 20.5 11.21C20.54 11.2 20.58 11.2 20.61 11.17C20.65 11.14 20.65 11.11 20.62 11.11C20.6 11.11 20.55 11.08 20.54 11.07C20.47 11.01 20.34 11.09 20.29 11.14C20.26 11.17 20.17 11.24 20.14 11.26C20.11 11.28 20.12 11.31 20.17 11.27C20.22 11.23 20.24 11.26 20.19 11.29C20.15 11.32 20.11 11.36 20.13 11.38C20.14 11.39 20.2 11.37 20.24 11.35C20.27 11.34 20.29 11.38 20.2 11.4C20.15 11.41 20.13 11.43 20.17 11.43C20.21 11.43 20.26 11.42 20.31 11.39C20.35 11.37 20.39 11.38 20.35 11.41C20.31 11.43 20.22 11.46 20.18 11.46C20.15 11.46 20.19 11.51 20.15 11.52Z" fill="#FFFFFF" fill-opacity="1.000000" fill-rule="evenodd"/>
			<path id="Fill 45" d="M20.38 11.14C20.43 11.1 20.47 11.07 20.51 11.11C20.55 11.14 20.56 11.16 20.51 11.14C20.46 11.13 20.42 11.14 20.39 11.18C20.36 11.21 20.33 11.2 20.38 11.14Z" fill="#A3A3A3" fill-opacity="1.000000" fill-rule="evenodd"/>
			<path id="Fill 46" d="M19.6 11.27C19.64 11.23 19.69 11.23 19.72 11.2C19.74 11.16 19.77 11.17 19.74 11.21C19.71 11.25 19.65 11.25 19.62 11.28C19.6 11.31 19.58 11.29 19.6 11.27Z" fill="#A3A3A3" fill-opacity="1.000000" fill-rule="evenodd"/>
			<path id="Fill 47" d="M19.82 11.13C19.84 11.13 19.88 11.11 19.91 11.08C19.94 11.05 19.99 11.04 20.02 11.07C20.06 11.11 20.08 11.12 20.09 11.13C20.11 11.13 20.11 11.16 20.08 11.16C20.06 11.17 20.02 11.18 20 11.17C19.98 11.16 19.95 11.15 19.93 11.16C19.9 11.16 19.89 11.15 19.91 11.14C19.93 11.13 19.95 11.11 19.97 11.1C19.98 11.08 20.01 11.09 19.99 11.1C19.97 11.11 19.98 11.14 20 11.15C20.02 11.16 20.05 11.16 20.07 11.14C20.05 11.12 20.01 11.09 19.99 11.08C19.97 11.07 19.96 11.07 19.94 11.09C19.92 11.11 19.87 11.16 19.83 11.16C19.78 11.16 19.8 11.14 19.82 11.13Z" fill="#A3A3A3" fill-opacity="1.000000" fill-rule="evenodd"/>
			<path id="Fill 48" d="M21.07 11.45C21.05 11.48 21.03 11.51 21.03 11.53C21.03 11.56 21.05 11.57 21.05 11.54C21.06 11.51 21.06 11.49 21.08 11.47C21.11 11.45 21.09 11.42 21.07 11.45Z" fill="#A3A3A3" fill-opacity="1.000000" fill-rule="evenodd"/>
			<path id="Fill 49" d="M20.82 11.45C20.84 11.44 20.88 11.42 20.9 11.41C20.91 11.39 20.92 11.4 20.91 11.42C20.89 11.44 20.85 11.46 20.83 11.47C20.82 11.47 20.8 11.46 20.82 11.45Z" fill="#A3A3A3" fill-opacity="1.000000" fill-rule="evenodd"/>
			<path id="Fill 50" d="M20.85 11.55C20.83 11.58 20.72 11.67 20.68 11.68C20.65 11.7 20.66 11.72 20.7 11.71C20.67 11.73 20.61 11.76 20.57 11.77C20.53 11.78 20.52 11.81 20.58 11.8C20.64 11.78 20.72 11.73 20.74 11.71C20.77 11.68 20.74 11.67 20.77 11.65C20.81 11.63 20.87 11.58 20.88 11.57C20.89 11.54 20.87 11.53 20.85 11.55Z" fill="#A3A3A3" fill-opacity="1.000000" fill-rule="evenodd"/>
			<path id="Fill 51" d="M20.73 11.83C20.78 11.81 20.85 11.73 20.88 11.69C20.89 11.67 20.92 11.67 20.9 11.71C20.87 11.75 20.79 11.82 20.77 11.83C20.74 11.85 20.69 11.85 20.73 11.83Z" fill="#A3A3A3" fill-opacity="1.000000" fill-rule="evenodd"/>
			<path id="Fill 52" d="M21.63 11.43C21.62 11.45 21.62 11.51 21.62 11.53C21.62 11.56 21.65 11.58 21.64 11.54C21.64 11.5 21.64 11.46 21.65 11.45C21.67 11.43 21.65 11.39 21.63 11.43Z" fill="#A3A3A3" fill-opacity="1.000000" fill-rule="evenodd"/>
			<path id="Fill 53" d="M21.87 11.53C21.89 11.54 21.9 11.63 21.9 11.66C21.89 11.69 21.93 11.69 21.93 11.65C21.92 11.6 21.92 11.55 21.9 11.52C21.88 11.48 21.84 11.5 21.87 11.53Z" fill="#A3A3A3" fill-opacity="1.000000" fill-rule="evenodd"/>
			<path id="Fill 54" d="M22.08 11.58C22.09 11.6 22.11 11.65 22.11 11.68C22.11 11.71 22.13 11.69 22.13 11.66C22.14 11.62 22.13 11.59 22.12 11.57C22.1 11.54 22.06 11.55 22.08 11.58Z" fill="#A3A3A3" fill-opacity="1.000000" fill-rule="evenodd"/>
			<path id="Fill 55" d="M22.21 11.55C22.2 11.53 22.18 11.5 22.17 11.51C22.16 11.51 22.17 11.54 22.18 11.56C22.2 11.59 22.22 11.58 22.21 11.55Z" fill="#A3A3A3" fill-opacity="1.000000" fill-rule="evenodd"/>
			<path id="Fill 56" d="M21.39 11.74C21.38 11.81 21.34 11.88 21.3 11.9C21.25 11.92 21.26 11.96 21.32 11.92C21.37 11.88 21.41 11.82 21.42 11.77C21.44 11.72 21.39 11.7 21.39 11.74Z" fill="#A3A3A3" fill-opacity="1.000000" fill-rule="evenodd"/>
			<path id="Fill 57" d="M21.29 11.71C21.26 11.73 21.25 11.79 21.25 11.82C21.25 11.86 21.27 11.83 21.27 11.81C21.27 11.79 21.28 11.76 21.3 11.75C21.32 11.74 21.31 11.69 21.29 11.71Z" fill="#A3A3A3" fill-opacity="1.000000" fill-rule="evenodd"/>
			<path id="Fill 58" d="M22.99 11.76C23.01 11.79 23.04 11.85 23.05 11.88C23.06 11.91 23.04 11.92 23.03 11.89C23.03 11.86 22.99 11.8 22.97 11.78C22.96 11.76 22.97 11.72 22.99 11.76Z" fill="#A3A3A3" fill-opacity="1.000000" fill-rule="evenodd"/>
		</g>
		<g mask="url(#mask17_5693)">
			<path id="Path 63" d="M16.92 13.63L16.9 13.65C16.72 13.59 16.62 13.41 16.68 13.23C16.73 13.05 16.91 12.96 17.09 13.01L17.1 13.03L16.92 13.63ZM26.21 13.04L26.22 13.01C26.39 12.95 26.58 13.04 26.64 13.22C26.71 13.39 26.62 13.58 26.44 13.64L26.42 13.63L26.21 13.04Z" fill="#D8D8D8" fill-opacity="0" fill-rule="nonzero"/>
			<path id="Path 63" d="M17 13.33C17 13.33 19.26 14 19.65 14C19.75 14 21.22 13.67 21.66 13.67C21.83 13.67 23.35 13.9 23.75 14C24.14 14.11 26.33 13.33 26.33 13.33" stroke="#FFFFFF" stroke-opacity="1.000000" stroke-width="0.666667" stroke-linejoin="round" stroke-linecap="round"/>
		</g>
		<g mask="url(#mask17_5693)">
			<path id="Path 63" d="M16.92 14.97L16.9 14.98C16.72 14.93 16.62 14.75 16.68 14.57C16.73 14.39 16.91 14.29 17.09 14.34L17.1 14.37L16.92 14.97ZM26.21 14.37L26.22 14.35C26.39 14.29 26.58 14.37 26.64 14.55C26.71 14.73 26.62 14.91 26.44 14.98L26.42 14.96L26.21 14.37Z" fill="#D8D8D8" fill-opacity="0" fill-rule="nonzero"/>
			<path id="Path 63" d="M17 14.66C17 14.66 19.26 15.34 19.65 15.34C19.75 15.34 21.22 15 21.66 15C21.83 15 23.35 15.23 23.75 15.34C24.14 15.44 26.33 14.66 26.33 14.66" stroke="#FFFFFF" stroke-opacity="1.000000" stroke-width="0.666667" stroke-linejoin="round" stroke-linecap="round"/>
		</g>
		<g mask="url(#mask17_5693)">
			<path id="Path 63" d="M16.83 17.95L16.81 17.97C16.45 17.86 16.25 17.5 16.36 17.14C16.46 16.78 16.83 16.58 17.18 16.69L17.2 16.71L16.83 17.95ZM33.59 17.83L33.61 17.82C33.98 17.88 34.23 18.21 34.17 18.58C34.11 18.95 33.77 19.19 33.4 19.13L33.39 19.11L33.59 17.83Z" fill="#D8D8D8" fill-opacity="0" fill-rule="nonzero"/>
			<path id="Path 63" d="M17 17.33C17 17.33 19.26 18 19.65 18C19.75 18 20.63 17.46 21.66 17.46C22.7 17.46 23.35 17.9 23.75 18C24.14 18.11 26.33 17.33 26.33 17.33L33.51 18.48" stroke="#FFFFFF" stroke-opacity="1.000000" stroke-width="1.333333" stroke-linejoin="round" stroke-linecap="round"/>
		</g>
		<path id="Mask" d="M18.33 14C18.33 12.9 18.33 11.61 18.33 10.66C18.33 9.92 18.93 9.33 19.66 9.33L23.66 9.33C24.4 9.33 25 9.92 25 10.66C25 11.61 25 12.9 25 14C25 17.33 21.66 18.66 21.66 18.66C21.66 18.66 18.33 17.33 18.33 14Z" fill="url(#paint_linear_17_5717_0)" fill-opacity="0" fill-rule="evenodd"/>
		<path id="Mask" d="M18.33 14L18.33 10.66C18.33 9.92 18.93 9.33 19.66 9.33L23.66 9.33C24.4 9.33 25 9.92 25 10.66L25 14C25 17.33 21.66 18.66 21.66 18.66C21.66 18.66 18.33 17.33 18.33 14ZM21.66 17.93Q21.75 17.88 21.85 17.82Q22.42 17.5 22.88 17.08Q23.52 16.51 23.88 15.82Q24.05 15.5 24.16 15.16Q24.33 14.61 24.33 14L24.33 10.66Q24.33 10.52 24.28 10.41Q24.23 10.29 24.13 10.19Q24.04 10.09 23.92 10.04Q23.8 10 23.66 10L19.66 10Q19.52 10 19.41 10.04Q19.29 10.09 19.19 10.19Q19.09 10.29 19.04 10.41Q19 10.52 19 10.66L19 12.74L19 14Q19 14.61 19.17 15.16Q19.27 15.5 19.44 15.82Q19.8 16.51 20.44 17.08Q20.91 17.5 21.47 17.82Q21.57 17.88 21.66 17.93Z" fill="#FFFFFF" fill-opacity="1.000000" fill-rule="evenodd"/>
		<mask id="mask17_5718" mask-type="alpha" maskUnits="userSpaceOnUse" x="18.333374" y="9.333374" width="6.666687" height="9.333313">
			<path id="Mask" d="M18.33 14C18.33 12.9 18.33 11.61 18.33 10.66C18.33 9.92 18.93 9.33 19.66 9.33L23.66 9.33C24.4 9.33 25 9.92 25 10.66C25 11.61 25 12.9 25 14C25 17.33 21.66 18.66 21.66 18.66C21.66 18.66 18.33 17.33 18.33 14Z" fill="#000000" fill-opacity="1.000000" fill-rule="evenodd"/>
			<path id="Mask" d="M18.33 14L18.33 10.66C18.33 9.92 18.93 9.33 19.66 9.33L23.66 9.33C24.4 9.33 25 9.92 25 10.66L25 14C25 17.33 21.66 18.66 21.66 18.66C21.66 18.66 18.33 17.33 18.33 14ZM21.66 17.93Q21.75 17.88 21.85 17.82Q22.42 17.5 22.88 17.08Q23.52 16.51 23.88 15.82Q24.05 15.5 24.16 15.16Q24.33 14.61 24.33 14L24.33 10.66Q24.33 10.52 24.28 10.41Q24.23 10.29 24.13 10.19Q24.04 10.09 23.92 10.04Q23.8 10 23.66 10L19.66 10Q19.52 10 19.41 10.04Q19.29 10.09 19.19 10.19Q19.09 10.29 19.04 10.41Q19 10.52 19 10.66L19 12.74L19 14Q19 14.61 19.17 15.16Q19.27 15.5 19.44 15.82Q19.8 16.51 20.44 17.08Q20.91 17.5 21.47 17.82Q21.57 17.88 21.66 17.93Z" fill="#FFFFFF" fill-opacity="1.000000" fill-rule="evenodd"/>
		</mask>
	</g>
	<g mask="url(#mask17_5688)">
		<path id="Rectangle 36" d="M5.66 8L1 4L1.66 4L6.33 7.33L7.66 7.33L13 4L13 4.49C13 4.6 12.94 4.7 12.86 4.76L8.33 8L8.33 9.33L12.54 12.94C12.7 13.07 12.6 13.33 12.4 13.33L12.4 13.33C12.35 13.33 12.31 13.31 12.27 13.29L7.66 10L6.33 10L1 13.33L1 12.66L5.66 9.33L5.66 8Z" fill="#DB1E36" fill-opacity="1.000000" fill-rule="evenodd"/>
		<path id="Rectangle 36" d="M1.88 3.33L-0.81 3.33L5 8.3L5 8.99L0.33 12.32L0.33 14.53L6.52 10.66L7.45 10.66L11.88 13.83Q12 13.91 12.13 13.95Q12.26 14 12.4 14Q12.55 14 12.69 13.95Q12.82 13.9 12.93 13.82Q13.03 13.75 13.1 13.65Q13.18 13.55 13.23 13.42Q13.28 13.29 13.29 13.15Q13.29 13.03 13.26 12.91Q13.23 12.77 13.17 12.66Q13.09 12.54 12.98 12.43L9 9.02L9 8.34L13.24 5.3Q13.34 5.23 13.42 5.14Q13.5 5.06 13.55 4.95Q13.61 4.84 13.63 4.73Q13.66 4.61 13.66 4.49L13.66 2.79L7.47 6.66L6.54 6.66L1.88 3.33ZM6.33 7.33L3.81 5.53L1.66 4L1 4L1.41 4.35L1.66 4.57L3.4 6.05L5.66 8L5.66 9.33L1 12.66L1 13.33L1.32 13.12L1.66 12.91L2.7 12.26L6.33 10L7.66 10L10.18 11.8L11.96 13.06L12.27 13.29C12.31 13.31 12.35 13.33 12.4 13.33C12.6 13.33 12.7 13.07 12.54 12.94L12.25 12.69L10.59 11.27L8.33 9.33L8.33 8L11.66 5.62L12.86 4.76C12.94 4.7 13 4.6 13 4.49L13 4L12.34 4.41L12.33 4.41L11.29 5.06L7.66 7.33L6.33 7.33Z" fill="#FFFFFF" fill-opacity="1.000000" fill-rule="evenodd"/>
	</g>
	<g mask="url(#mask17_5688)">
		<path id="Rectangle 2" d="M1 7.33L1 10L5.66 10L5.66 13.33C5.66 13.7 5.96 14 6.33 14L7.66 14C8.03 14 8.33 13.7 8.33 13.33L8.33 10L13 10C13.36 10 13.66 9.7 13.66 9.33L13.66 8C13.66 7.63 13.36 7.33 13 7.33L8.33 7.33L8.33 4L5.66 4L5.66 7.33L1 7.33Z" fill="#FFFFFF" fill-opacity="1.000000" fill-rule="evenodd"/>
		<path id="Rectangle 2" d="M1 10L5.66 10L5.66 13.33C5.66 13.7 5.96 14 6.33 14L7.66 14C8.03 14 8.33 13.7 8.33 13.33L8.33 10L13 10C13.36 10 13.66 9.7 13.66 9.33L13.66 8C13.66 7.63 13.36 7.33 13 7.33L8.33 7.33L8.33 4L5.66 4L5.66 7.33L1 7.33L1 10Z" stroke="#979797" stroke-opacity="0" stroke-width="0.000000"/>
	</g>
	<g mask="url(#mask17_5688)">
		<path id="Rectangle 36" d="M1 8L6.33 8L6.33 7.33L6.33 4L7.66 4L7.66 7.33L7.66 8L13 8L13 9.33L7.66 9.33L7.66 10L7.66 13.33L6.33 13.33L6.33 10L6.33 9.33L1 9.33L1 8Z" fill="#DB1E36" fill-opacity="1.000000" fill-rule="evenodd"/>
		<path id="Rectangle 36" d="M6.33 8L6.33 7.33L6.33 4L7.66 4L7.66 7.33L7.66 8L13 8L13 9.33L7.66 9.33L7.66 10L7.66 13.33L6.33 13.33L6.33 10L6.33 9.33L1 9.33L1 8L6.33 8Z" stroke="#979797" stroke-opacity="0" stroke-width="0.000000"/>
	</g>
</svg>
