<svg viewBox="0 0 28 28" xmlns="http://www.w3.org/2000/svg" xmlns:xlink="http://www.w3.org/1999/xlink" width="28.000000" height="28.000000" fill="none" customFrame="#000000">
	<mask id="mask_397" width="6.666667" height="9.333333" x="17.333374" y="9.333374" maskUnits="userSpaceOnUse">
		<g filter="url(#pixso_custom_mask_type_alpha)">
			<path id="Mask" d="M17.3334 14C17.3334 12.9063 17.3334 11.6132 17.3334 10.6659C17.3334 9.92948 17.9303 9.33337 18.6667 9.33337L22.6667 9.33337C23.4031 9.33337 24 9.92948 24 10.6659C24 11.6132 24 12.9063 24 14C24 17.3334 20.6667 18.6667 20.6667 18.6667C20.6667 18.6667 17.3334 17.3334 17.3334 14Z" fill="rgb(0,0,0)" fill-rule="evenodd" />
			<path id="Mask" d="M17.3334 10.6659L17.3334 14C17.3334 17.3334 20.6667 18.6667 20.6667 18.6667C20.6667 18.6667 24 17.3334 24 14L24 10.6659C24 9.92948 23.4031 9.33337 22.6667 9.33337L18.6667 9.33337C17.9303 9.33337 17.3334 9.92948 17.3334 10.6659ZM20.6667 17.9312C20.7256 17.9004 20.7897 17.8655 20.8589 17.8263C21.2334 17.6141 21.5762 17.3679 21.8874 17.0878C22.3145 16.7035 22.6485 16.2825 22.8893 15.825C23.0008 15.6131 23.0913 15.3947 23.1608 15.1699C23.2758 14.7977 23.3334 14.4078 23.3334 14L23.3334 10.6667C23.3334 10.5747 23.3171 10.4894 23.2846 10.4108C23.252 10.3322 23.2032 10.2604 23.1381 10.1953C23.073 10.1302 23.0012 10.0814 22.9226 10.0489C22.8441 10.0163 22.7588 10 22.6667 10L18.6667 10C18.5747 10 18.4894 10.0163 18.4108 10.0489C18.3322 10.0814 18.2604 10.1302 18.1953 10.1953C18.1302 10.2604 18.0814 10.3322 18.0489 10.4108C18.0163 10.4894 18 10.5747 18 10.6667L18 12.7467L18 14C18 14.4078 18.0576 14.7977 18.1726 15.1699C18.2421 15.3947 18.3326 15.6131 18.4442 15.825C18.685 16.2825 19.0189 16.7034 19.446 17.0878C19.7572 17.3679 20.1001 17.6141 20.4745 17.8263C20.5437 17.8655 20.6078 17.9004 20.6667 17.9312Z" fill="rgb(255,255,255)" fill-rule="evenodd" />
		</g>
	</mask>
	<mask id="mask_396" width="6.666667" height="9.333333" x="17.333374" y="9.333374" maskUnits="userSpaceOnUse">
		<g filter="url(#pixso_custom_mask_type_alpha)">
			<path id="Mask" d="M17.3334 14C17.3334 12.9063 17.3334 11.6132 17.3334 10.6659C17.3334 9.92948 17.9303 9.33337 18.6667 9.33337L22.6667 9.33337C23.4031 9.33337 24 9.92948 24 10.6659C24 11.6132 24 12.9063 24 14C24 17.3334 20.6667 18.6667 20.6667 18.6667C20.6667 18.6667 17.3334 17.3334 17.3334 14Z" fill="rgb(0,114,196)" fill-rule="evenodd" />
			<path id="Mask" d="M17.3334 10.6667C17.3334 9.93033 17.9303 9.33337 18.6667 9.33337L22.6667 9.33337C23.4031 9.33337 24 9.93033 24 10.6667C24 11.614 24 12.9066 24 14C24 17.3334 20.6667 18.6667 20.6667 18.6667C20.6667 18.6667 17.3334 17.3334 17.3334 14C17.3334 12.9066 17.3334 11.614 17.3334 10.6667Z" fill-rule="evenodd" stroke="url(#paint_linear_153)" stroke-opacity="0" stroke-linejoin="bevel" stroke-width="0" />
		</g>
	</mask>
	<defs>
		<filter id="pixso_custom_mask_type_alpha">
			<feColorMatrix type="matrix" values="0 0 0 0 1 0 0 0 0 1 0 0 0 0 1 0 0 0 1 0 " />
		</filter>
		<linearGradient id="paint_linear_152" x1="17.333374" x2="17.333374" y1="9.33337402" y2="18.6667061" gradientUnits="userSpaceOnUse">
			<stop stop-color="rgb(255,255,255)" offset="0" stop-opacity="1" />
			<stop stop-color="rgb(239.7,239.7,239.7)" offset="1" stop-opacity="1" />
		</linearGradient>
		<linearGradient id="paint_linear_153" x1="17.333374" x2="17.333374" y1="9.33337402" y2="18.6667061" gradientUnits="userSpaceOnUse">
			<stop stop-color="rgb(255,255,255)" offset="0" stop-opacity="1" />
			<stop stop-color="rgb(239.7,239.7,239.7)" offset="1" stop-opacity="1" />
		</linearGradient>
		<linearGradient id="paint_linear_154" x1="17.333374" x2="17.333374" y1="9.33337402" y2="18.6667061" gradientUnits="userSpaceOnUse">
			<stop stop-color="rgb(255,207.953,51.3994)" offset="0" stop-opacity="1" />
			<stop stop-color="rgb(254,196,3)" offset="1" stop-opacity="1" />
		</linearGradient>
	</defs>
	<mask id="mask_395" width="28.000000" height="20.000000" x="0.000000" y="4.000000" maskUnits="userSpaceOnUse">
		<g filter="url(#pixso_custom_mask_type_alpha)">
			<rect id="Mask" width="28.000000" height="20.000000" x="0.000000" y="4.000000" rx="3.000000" fill="rgb(255,255,255)" />
			<rect id="Mask" width="28.000000" height="20.000000" x="0.000000" y="4.000000" rx="3.000000" stroke="rgb(150.96,150.96,150.96)" stroke-opacity="0" stroke-width="0" />
		</g>
	</mask>
	<rect id="Falkland Islands" width="28.000000" height="28.000000" x="0.000000" y="0.000000" fill="rgb(255,255,255)" fill-opacity="0" />
	<rect id="Mask" width="28.000000" height="20.000000" x="0.000000" y="4.000000" rx="3.000000" fill="rgb(255,255,255)" />
	<rect id="Mask" width="28.000000" height="20.000000" x="0.000000" y="4.000000" rx="3.000000" stroke="rgb(150.96,150.96,150.96)" stroke-opacity="0" stroke-width="0" />
	<g mask="url(#mask_395)">
		<rect id="Mask Copy" width="28.000000" height="20.000000" x="0.000000" y="4.000000" fill="rgb(7,49,156)" />
		<rect id="Mask Copy" width="28.000000" height="20.000000" x="0.000000" y="4.000000" stroke="rgb(150.96,150.96,150.96)" stroke-opacity="0" stroke-width="0" />
		<g id="Rectangle 1105">
			<g id="Rectangle 1238">
				<path id="Mask" d="M17.3334 14C17.3334 12.9063 17.3334 11.6132 17.3334 10.6659C17.3334 9.92948 17.9303 9.33337 18.6667 9.33337L22.6667 9.33337C23.4031 9.33337 24 9.92948 24 10.6659C24 11.6132 24 12.9063 24 14C24 17.3334 20.6667 18.6667 20.6667 18.6667C20.6667 18.6667 17.3334 17.3334 17.3334 14Z" fill="rgb(0,114,196)" fill-rule="evenodd" />
				<path id="Mask" d="M17.3334 10.6667C17.3334 9.93033 17.9303 9.33337 18.6667 9.33337L22.6667 9.33337C23.4031 9.33337 24 9.93033 24 10.6667C24 11.614 24 12.9066 24 14C24 17.3334 20.6667 18.6667 20.6667 18.6667C20.6667 18.6667 17.3334 17.3334 17.3334 14C17.3334 12.9066 17.3334 11.614 17.3334 10.6667Z" fill-rule="evenodd" stroke="url(#paint_linear_152)" stroke-opacity="0" stroke-linejoin="bevel" stroke-width="0" />
				<g mask="url(#mask_396)">
					<path id="Path 66" d="M18.8691 13.2677C18.1859 13.9578 19.5248 13.8702 19.5248 13.8702L20.4785 13.5649C20.4785 13.5649 20.9072 13.6168 21.1966 13.704C21.3883 13.7618 21.9218 14 21.9218 14C21.9218 14 23.0485 13.7751 22.6523 13.2677C22.2562 12.7603 19.5523 12.5776 18.8691 13.2677Z" fill="rgb(0,81,33)" fill-rule="evenodd" />
					<path id="Path 66" d="M19.5248 13.8702L20.4785 13.5649C20.4785 13.5649 20.9072 13.6168 21.1966 13.704C21.3883 13.7618 21.9218 14 21.9218 14C21.9218 14 23.0485 13.7751 22.6523 13.2677C22.2562 12.7603 19.5523 12.5776 18.8691 13.2677C18.1859 13.9578 19.5248 13.8702 19.5248 13.8702Z" fill-rule="evenodd" stroke="rgb(150.96,150.96,150.96)" stroke-opacity="0" stroke-width="0" />
					<g id="Group 2">
						<g id="Group">
							<path id="Fill 41" d="M21.7099 12.5509C21.7374 12.5447 21.8014 12.5461 21.8252 12.5751C21.8627 12.6206 21.9394 12.6055 21.9769 12.6493C22.0142 12.6932 22.0577 12.7337 22.0577 12.7962C22.0577 12.8587 22.0504 13.0136 22.0517 13.0476C22.0537 13.1001 22.0627 13.1082 22.1166 13.1068C22.1817 13.1052 22.2714 13.1001 22.2742 12.9836C22.2762 12.9025 22.1954 12.8518 22.1719 12.5632C22.2073 12.5329 22.2388 12.5058 22.227 12.4654C22.2151 12.4249 22.2939 12.4046 22.2861 12.3438C22.2781 12.2831 22.3648 12.2459 22.3294 12.1784C22.2939 12.1109 22.3726 12.1076 22.3412 12.0535C22.3097 11.9995 22.3923 11.9522 22.3569 11.905C22.3215 11.8577 22.4042 11.8139 22.3609 11.7565C22.3175 11.6991 22.3845 11.6653 22.3412 11.6214C22.3688 11.5776 22.3451 11.4526 22.2584 11.3817C22.1719 11.3108 22.0498 11.2737 21.9788 11.2466C21.8468 11.1963 21.6008 11.2196 21.4274 11.2399C21.2541 11.2601 20.9311 11.2804 20.8326 11.2669C20.7342 11.2535 20.5019 11.2399 20.3187 11.2703C20.256 11.2807 20.1848 11.2619 20.1474 11.2264C20.1175 11.1981 20.1002 11.2012 20.0726 11.2028C20.0451 11.2045 20.0292 11.196 20.0154 11.1622C19.9911 11.1028 19.9368 11.1436 19.9111 11.0694C19.8939 11.0197 19.8046 11.0626 19.7772 11.0205C19.7495 10.9783 19.7162 10.9732 19.6412 10.9783C19.6374 10.9529 19.596 10.9344 19.5585 10.9411C19.5645 10.8989 19.5231 10.8652 19.4542 10.8668C19.4621 10.8145 19.3657 10.774 19.3163 10.8061C19.2849 10.7673 19.2218 10.7756 19.2061 10.8061C19.1726 10.7673 19.0662 10.7791 19.0406 10.8212C18.9954 10.796 18.9074 10.8581 18.9147 10.9563C18.9166 10.9834 18.9184 11.0115 18.8732 11.0205C18.7886 11.0374 18.7394 11.1318 18.6664 11.1453C18.5937 11.1589 18.5208 11.1825 18.507 11.223C18.4932 11.2635 18.5188 11.3058 18.4913 11.326C18.4637 11.3463 18.5089 11.3649 18.5227 11.3749C18.5365 11.385 18.5581 11.4019 18.5621 11.4256C18.5677 11.4591 18.623 11.4691 18.6803 11.4323C18.7039 11.4172 18.7452 11.4628 18.8122 11.4306C18.8791 11.3986 18.9742 11.4155 18.9579 11.4678C18.9501 11.4931 18.9677 11.5202 18.9895 11.5454C19.0111 11.5707 19.0436 11.647 19.0249 11.6906C18.9974 11.7547 19.0525 11.7903 19.0387 11.8475C19.0249 11.905 19.0465 11.9574 19.0171 12.0349C18.9874 12.1125 18.987 12.2097 19.0308 12.2375C19.0919 12.2763 19.055 12.3533 19.1076 12.3861C19.1508 12.413 19.1254 12.4789 19.2061 12.4991C19.2868 12.5194 19.2396 12.5734 19.3242 12.5852C19.4089 12.597 19.4384 12.6578 19.527 12.6442C19.5923 12.6343 19.6267 12.6502 19.6648 12.6652C19.6726 12.7193 19.6551 12.9177 19.6511 12.9684C19.6476 13.0132 19.6236 13.0847 19.6236 13.1288C19.6236 13.1557 19.6787 13.1624 19.7418 13.1624C19.8046 13.1624 19.8323 13.1372 19.8165 13.0663C19.8008 12.9953 19.7969 12.8225 19.8009 12.7144C19.8556 12.7407 19.9076 12.7776 19.9052 12.8182C19.9012 12.884 19.9022 13.0021 19.8913 13.0629C19.8836 13.1068 19.8953 13.176 19.8993 13.2216C19.9033 13.2384 20.0095 13.2367 20.0529 13.2216C20.0962 13.2064 20.0962 13.1659 20.0922 12.9819C20.0902 12.8908 19.9937 12.7977 20.1159 12.7523C20.175 12.7303 20.2577 12.6796 20.2892 12.6325C20.3206 12.5852 20.3897 12.6037 20.4388 12.6275C20.488 12.6511 20.5668 12.6871 20.6162 12.6713C20.6791 12.6511 20.7461 12.7016 20.8012 12.6713C20.8563 12.6409 20.9273 12.6932 20.9725 12.6562C21.0178 12.6189 21.0966 12.6544 21.1301 12.6189C21.1636 12.5835 21.3014 12.6393 21.3507 12.592C21.3999 12.5447 21.4668 12.6055 21.5122 12.5701C21.524 12.5607 21.5381 12.5586 21.5535 12.5598C21.5517 12.6396 21.5368 12.7668 21.5338 12.8064C21.5302 12.8513 21.5062 12.9227 21.5062 12.9666C21.5062 12.9937 21.5614 13.0004 21.6243 13.0004C21.6874 13.0004 21.715 12.9751 21.6993 12.9043C21.6834 12.8334 21.7061 12.6591 21.7099 12.5509Z" fill="rgb(163,163,163)" fill-rule="evenodd" />
							<path id="Fill 43" d="M18.5232 11.32C18.5496 11.3008 18.5252 11.2609 18.5384 11.2226C18.5515 11.1844 18.6213 11.162 18.6911 11.1493C18.7609 11.1365 18.808 11.0472 18.8892 11.0312C18.9324 11.0227 18.9307 10.9962 18.9287 10.9707C18.9219 10.8778 19.0061 10.8192 19.0495 10.8432C19.0739 10.8032 19.1758 10.792 19.2078 10.8287C19.2229 10.8 19.2832 10.792 19.3135 10.8287C19.3606 10.7985 19.453 10.8367 19.4455 10.8861C19.5115 10.8846 19.5511 10.9164 19.5455 10.9563C19.5813 10.95 19.6209 10.9675 19.6247 10.9914C19.6187 11.0306 19.7083 11.0406 19.6668 11.066C19.6305 11.0882 19.596 11.0795 19.5547 11.0491C19.5133 11.0187 19.3754 11.0457 19.3557 11.0609C19.336 11.0762 19.3144 11.0829 19.2985 11.0711C19.2828 11.0593 19.2455 11.0406 19.2277 11.0424C19.2099 11.0441 19.1726 11.0441 19.1508 11.0086C19.1292 10.9732 19.0741 10.9681 19.0643 10.9816C19.0545 10.995 19.0859 11.0441 19.1175 11.0626C19.1489 11.0813 19.1332 11.1167 19.1707 11.1369C19.1951 11.1502 19.1726 11.1959 19.1588 11.223C19.145 11.25 19.0918 11.2415 19.0878 11.2213C19.084 11.2011 19.0701 11.1875 19.0387 11.2179C19.0071 11.2484 18.9403 11.2399 18.9244 11.2315C18.9087 11.223 18.8653 11.2079 18.8358 11.2162C18.8062 11.2248 18.8496 11.2382 18.8536 11.25C18.8575 11.2618 18.8062 11.2669 18.7767 11.2669C18.7472 11.2669 18.7373 11.2837 18.7551 11.2871C18.7729 11.2905 18.8416 11.294 18.8693 11.2804C18.8969 11.2669 18.9815 11.2804 18.9895 11.3058C18.9973 11.331 18.9403 11.3412 18.9067 11.3378C18.8572 11.3328 18.7846 11.3597 18.7492 11.3681C18.7138 11.3766 18.6192 11.3547 18.5818 11.3648C18.5444 11.3749 18.5075 11.3351 18.5232 11.32Z" fill="rgb(163,163,163)" fill-rule="evenodd" />
							<path id="Fill 44" d="M19.1567 11.5269C19.1213 11.5403 19.1332 11.5808 19.1647 11.5977C19.1963 11.6146 19.2671 11.6213 19.3124 11.613C19.3576 11.6045 19.3676 11.618 19.3381 11.6349C19.3084 11.6517 19.3833 11.6551 19.3773 11.6822C19.3716 11.7091 19.4049 11.704 19.4364 11.7024C19.468 11.7007 19.5093 11.6804 19.5447 11.6618C19.5801 11.6433 19.6058 11.6568 19.5723 11.6889C19.539 11.7209 19.4267 11.7615 19.3381 11.7565C19.2493 11.7514 19.2021 11.7716 19.2218 11.8003C19.2415 11.829 19.336 11.834 19.3852 11.8188C19.4345 11.8037 19.4267 11.8307 19.3892 11.8492C19.3517 11.8678 19.2985 11.8695 19.2533 11.8678C19.208 11.8662 19.1686 11.905 19.2277 11.9269C19.2868 11.9488 19.3656 11.9354 19.3951 11.9539C19.4247 11.9725 19.5153 11.9438 19.5172 11.9759C19.5191 12.0079 19.4916 12.0197 19.4384 12.0164C19.3852 12.013 19.4009 12.037 19.4404 12.05C19.4758 12.062 19.539 12.062 19.5723 12.0585C19.6058 12.0552 19.596 12.0889 19.5625 12.1007C19.529 12.1125 19.4207 12.1294 19.3676 12.1278C19.3144 12.1261 19.3398 12.1599 19.4089 12.1599C19.6196 12.1599 19.6905 12.0602 19.7437 11.991C19.7698 11.9571 19.8204 11.9387 19.8323 11.959C19.8441 11.9792 19.8461 11.9843 19.8225 12.0012C19.7988 12.018 19.8046 12.0282 19.848 12.0299C19.8913 12.0315 19.9544 12.0197 19.9918 12.0097C20.0292 11.9995 20.1394 12.0634 20.0489 12.0653C19.8893 12.0687 19.6924 12.1261 19.6276 12.1497C19.5625 12.1733 19.4541 12.2178 19.3873 12.2155C19.3381 12.2139 19.3182 12.2324 19.3381 12.2544C19.3576 12.2763 19.4207 12.2763 19.4561 12.2662C19.4916 12.256 19.4994 12.2662 19.4758 12.2864C19.4523 12.3067 19.3932 12.3151 19.3517 12.3219C19.3105 12.3286 19.2901 12.3551 19.3222 12.3657C19.3833 12.386 19.3281 12.4046 19.3716 12.4147C19.4148 12.4249 19.3676 12.4569 19.4148 12.4671C19.4621 12.4772 19.4896 12.4721 19.525 12.4485C19.5606 12.4249 19.5801 12.4113 19.6176 12.4147C19.6551 12.4182 19.6807 12.4012 19.7024 12.3759C19.724 12.3506 19.7969 12.305 19.8204 12.327C19.8441 12.349 19.8933 12.3083 19.9033 12.3303C19.913 12.3523 19.9544 12.3388 19.9643 12.3692C19.9751 12.4029 20.0213 12.4097 20.0529 12.3979C20.0843 12.386 20.1099 12.3573 20.1099 12.3151C20.1099 12.2729 20.1218 12.256 20.1336 12.3016C20.1453 12.3472 20.1887 12.3606 20.2104 12.3388C20.232 12.3168 20.2398 12.2409 20.2241 12.2055C20.2084 12.1699 20.2064 12.1243 20.2222 12.1159C20.2379 12.1076 20.2754 12.1852 20.2911 12.2189C20.307 12.2527 20.3481 12.2425 20.3502 12.2088C20.3521 12.175 20.3896 12.1581 20.4172 12.1835C20.4447 12.2088 20.429 12.2932 20.4369 12.3337C20.4447 12.3742 20.5215 12.3236 20.5295 12.337C20.5373 12.3506 20.5668 12.3539 20.5787 12.3252C20.5905 12.2965 20.6181 12.2712 20.6338 12.2881C20.6496 12.305 20.6732 12.3337 20.683 12.3657C20.6929 12.3979 20.7283 12.4147 20.7499 12.381C20.7716 12.3472 20.7874 12.2814 20.7796 12.2357C20.7716 12.1902 20.7855 12.1615 20.805 12.1852C20.8247 12.2088 20.8228 12.2729 20.8247 12.3252C20.8268 12.3775 20.8917 12.3726 20.8917 12.2949C20.8917 12.2594 20.9114 12.2527 20.9173 12.2729C20.9233 12.2932 20.9233 12.327 20.9292 12.3421C20.9437 12.3796 20.9942 12.359 21 12.3337C21.0059 12.3083 20.9961 12.2172 20.9843 12.1768C20.9724 12.1361 20.9961 12.1076 21.0159 12.1294C21.0356 12.1514 21.0394 12.2088 21.0434 12.2729C21.0473 12.337 21.0886 12.3405 21.1104 12.3219C21.132 12.3032 21.132 12.2493 21.1222 12.2104C21.1123 12.1717 21.1438 12.1717 21.1576 12.1953C21.1714 12.2189 21.1951 12.2037 21.1911 12.1852C21.1873 12.1666 21.2068 12.1497 21.2265 12.175C21.2462 12.2004 21.2403 12.2578 21.2305 12.3032C21.2206 12.349 21.2797 12.3438 21.3073 12.305C21.3348 12.2662 21.321 12.1599 21.2975 12.1261C21.2738 12.0923 21.2758 12.0484 21.2895 12.0097C21.3034 11.9708 21.329 11.969 21.331 11.986C21.3329 12.0028 21.3447 12.0315 21.3664 12.0535C21.388 12.0754 21.3998 12.0789 21.4037 12.045C21.4077 12.0113 21.4274 12.0197 21.4353 12.045C21.4433 12.0704 21.4569 12.0905 21.4766 12.0687C21.4963 12.0467 21.5219 12.0636 21.5062 12.0974C21.4904 12.1312 21.4904 12.1615 21.5022 12.1953C21.5141 12.2291 21.5554 12.224 21.5594 12.1852C21.5676 12.1044 21.5791 12.1581 21.5889 12.1935C21.5987 12.2291 21.6283 12.2273 21.6342 12.2071C21.6401 12.1868 21.6461 12.1819 21.6461 12.2037C21.6461 12.2257 21.6558 12.2442 21.6815 12.2442C21.7071 12.2442 21.7012 12.2004 21.7129 12.1733C21.7247 12.1463 21.7464 12.1835 21.776 12.2459C21.8055 12.3083 21.8271 12.2493 21.8961 12.3911C21.9243 12.4489 21.965 12.3995 21.9631 12.3793C21.961 12.359 21.967 12.3455 22.0004 12.3455C22.0339 12.3455 22.0615 12.3388 22.0498 12.3168C22.0379 12.2949 22.0458 12.2544 22.0438 12.2088C22.0419 12.1632 22.0477 12.1379 22.0536 12.1632C22.0596 12.1885 22.0793 12.224 22.1107 12.2425C22.1422 12.2611 22.1638 12.2104 22.1382 12.1784C22.1127 12.1463 22.0773 12.0704 22.0793 12.0062C22.0807 11.959 22.1028 11.9741 22.1028 12.0079C22.1028 12.0417 22.1225 12.1025 22.1521 12.1159C22.1816 12.1294 22.1935 12.0669 22.1797 12.0349C22.1659 12.0028 22.1581 11.959 22.1876 11.9505C22.217 11.9421 22.1797 11.9067 22.1541 11.8813C22.1284 11.856 22.1127 11.8307 22.1581 11.8324C22.2033 11.834 22.1659 11.8053 22.1441 11.7868C22.1225 11.7683 22.0852 11.7311 22.1441 11.7361C22.2033 11.7412 22.1837 11.7109 22.16 11.694C22.1363 11.6771 22.1225 11.645 22.1638 11.6467C22.2053 11.6484 22.2308 11.6281 22.227 11.613C22.2118 11.5544 22.1127 11.4864 22.0517 11.434C21.9907 11.3817 21.8921 11.3294 21.839 11.3209C21.7858 11.3124 21.7838 11.3463 21.7976 11.3665C21.8114 11.3867 21.839 11.4003 21.843 11.3799C21.8468 11.3598 21.8881 11.3817 21.9078 11.4086C21.9276 11.4357 21.9945 11.4695 22.036 11.4998C22.0773 11.5302 21.9807 11.5151 21.9335 11.4745C21.9065 11.4513 21.9098 11.4795 21.9453 11.5116C21.9807 11.5438 21.9354 11.5572 21.8981 11.5302C21.8606 11.5032 21.7641 11.4273 21.7031 11.3783C21.6421 11.3294 21.6321 11.3412 21.6302 11.3732C21.6283 11.4053 21.6499 11.4273 21.6893 11.4542C21.7287 11.4813 21.7779 11.5234 21.8154 11.5521C21.8527 11.5808 21.8213 11.5994 21.7976 11.5791C21.7739 11.5589 21.6933 11.5032 21.6461 11.4644C21.5987 11.4255 21.5554 11.407 21.5259 11.4121C21.4963 11.4172 21.4984 11.4459 21.5338 11.4762C21.5692 11.5065 21.6126 11.5639 21.6126 11.5977C21.6126 11.6315 21.581 11.6551 21.5652 11.5944C21.5495 11.5336 21.4747 11.4627 21.4196 11.4086C21.3644 11.3547 21.3092 11.3445 21.2678 11.3479C21.2265 11.3512 21.2284 11.3918 21.2284 11.4239C21.2284 11.4559 21.2009 11.4373 21.199 11.4137C21.197 11.3901 21.1655 11.3699 21.1477 11.3716C21.1301 11.3732 21.136 11.4222 21.1301 11.4442C21.1241 11.466 21.0966 11.4864 21.0966 11.4357C21.0966 11.385 21.0316 11.3598 21.004 11.358C20.9764 11.3563 20.9508 11.3665 20.9646 11.3885C20.9784 11.4103 20.9724 11.4695 20.9627 11.5032C20.9527 11.5369 20.9233 11.4778 20.9173 11.4154C20.9114 11.353 20.819 11.3091 20.7539 11.3276C20.6889 11.3463 20.7382 11.3867 20.7264 11.4255C20.7145 11.4644 20.6967 11.429 20.6908 11.3885C20.685 11.3479 20.6535 11.3225 20.6102 11.3327C20.5668 11.3429 20.5373 11.3631 20.5393 11.3901C20.5412 11.4172 20.5412 11.4408 20.5314 11.4846C20.5215 11.5285 20.5038 11.5065 20.5058 11.4778C20.5078 11.4492 20.4979 11.4019 20.488 11.3749C20.4782 11.3479 20.4624 11.3732 20.4664 11.407C20.4704 11.4408 20.4604 11.5184 20.4447 11.5657C20.429 11.613 20.4053 11.6146 20.4172 11.5505C20.429 11.4864 20.3994 11.3918 20.3699 11.3479C20.3487 11.3166 20.301 11.3058 20.301 11.3496C20.301 11.3935 20.3148 11.4255 20.3502 11.4577C20.3856 11.4897 20.3581 11.569 20.3227 11.6113C20.2871 11.6535 20.2892 11.5926 20.301 11.5471C20.3127 11.5015 20.2478 11.4864 20.2222 11.4778C20.1966 11.4695 20.2498 11.4239 20.2616 11.3631C20.2674 11.3331 20.2596 11.3142 20.236 11.3124C20.2123 11.3107 20.1493 11.3681 20.1218 11.4103C20.1296 11.3665 20.1218 11.3276 20.0981 11.3276C20.0745 11.3276 20.0489 11.3699 20.0313 11.4003C20.0135 11.4306 19.9957 11.4137 20.0135 11.3817C20.0313 11.3496 20.0587 11.2635 20.0233 11.245C19.9879 11.2264 19.9563 11.3024 19.919 11.2888C19.8978 11.2812 19.9268 11.2332 19.9387 11.2112C19.9504 11.1892 19.9268 11.1723 19.8736 11.2128C19.8204 11.2535 19.7969 11.3192 19.783 11.3598C19.7693 11.4003 19.6748 11.466 19.6236 11.5015C19.5723 11.5369 19.5507 11.5234 19.5763 11.5082C19.6019 11.4931 19.653 11.4459 19.6787 11.4273C19.7043 11.4086 19.6924 11.3977 19.6433 11.4297C19.5941 11.4619 19.5044 11.5201 19.4127 11.5403C19.359 11.5523 19.3517 11.5421 19.4049 11.5269C19.4581 11.5116 19.5801 11.439 19.6098 11.4053C19.6283 11.3841 19.5801 11.4019 19.5566 11.407C19.533 11.4121 19.5133 11.4053 19.5606 11.3885C19.6077 11.3716 19.7575 11.2382 19.789 11.1892C19.8204 11.1403 19.7929 11.1217 19.7732 11.1234C19.7535 11.1251 19.7259 11.1369 19.7318 11.1167C19.7378 11.0964 19.724 11.0693 19.6984 11.0779C19.6727 11.0862 19.6748 11.1352 19.6649 11.1622C19.6551 11.1892 19.5998 11.2248 19.5644 11.2248C19.529 11.2248 19.4798 11.2315 19.4424 11.2568C19.4049 11.282 19.3873 11.2584 19.4049 11.2382C19.4227 11.2179 19.4621 11.2128 19.5015 11.2112C19.5409 11.2095 19.5841 11.2045 19.6176 11.1723C19.6511 11.1403 19.653 11.1149 19.6276 11.1133C19.6019 11.1116 19.5585 11.0829 19.5447 11.0711C19.4748 11.0111 19.3467 11.0947 19.2966 11.1436C19.269 11.1707 19.1745 11.2484 19.145 11.2686C19.1154 11.2888 19.1273 11.3175 19.1764 11.2787C19.2258 11.2399 19.2415 11.2669 19.1963 11.2956C19.1508 11.3243 19.1175 11.3665 19.1332 11.3817C19.1489 11.3968 19.2099 11.3783 19.2434 11.3598C19.2769 11.3412 19.2927 11.3867 19.2099 11.4019C19.1544 11.4122 19.135 11.4318 19.1785 11.434C19.212 11.4357 19.2631 11.4222 19.3105 11.3986C19.3576 11.3749 19.3951 11.3885 19.3557 11.4121C19.3163 11.4357 19.2296 11.4678 19.1864 11.4678C19.1501 11.4678 19.1923 11.5134 19.1567 11.5269Z" fill="rgb(255,255,255)" fill-rule="evenodd" />
							<path id="Fill 45" d="M19.3852 11.1496C19.4326 11.1002 19.4739 11.0786 19.5172 11.1141C19.5565 11.1462 19.5606 11.1602 19.5113 11.1496C19.4621 11.1389 19.4286 11.1496 19.3991 11.1814C19.3695 11.2134 19.336 11.2009 19.3852 11.1496Z" fill="rgb(163,163,163)" fill-rule="evenodd" />
							<path id="Fill 46" d="M18.6055 11.2749C18.6409 11.2394 18.6979 11.2394 18.7236 11.2005C18.7492 11.1614 18.7768 11.1757 18.7452 11.2129C18.7138 11.2501 18.6528 11.2573 18.6271 11.2838C18.6015 11.3104 18.5877 11.2926 18.6055 11.2749Z" fill="rgb(163,163,163)" fill-rule="evenodd" />
							<path id="Fill 47" d="M18.8261 11.1393C18.8474 11.1364 18.889 11.1109 18.9146 11.0808C18.9403 11.0507 18.9954 11.04 19.0287 11.0755C19.0622 11.1109 19.08 11.1233 19.0978 11.1305C19.1154 11.1376 19.1154 11.1607 19.0878 11.1676C19.0603 11.1748 19.0229 11.1801 19.0032 11.1712C18.9835 11.1624 18.9539 11.1553 18.9303 11.1607C18.9066 11.1659 18.8969 11.1553 18.9166 11.1464C18.9363 11.1376 18.9598 11.1109 18.9717 11.1003C18.9835 11.0897 19.0149 11.0985 18.9973 11.1092C18.9795 11.1199 18.9874 11.1428 19.0052 11.1517C19.0229 11.1607 19.0583 11.1607 19.0741 11.1447C19.0505 11.1216 19.0111 11.0915 18.9954 11.0827C18.9795 11.0737 18.9658 11.0701 18.9461 11.0915C18.9263 11.1128 18.8791 11.1641 18.8339 11.1624C18.7886 11.1607 18.8004 11.1428 18.8261 11.1393Z" fill="rgb(163,163,163)" fill-rule="evenodd" />
							<path id="Fill 48" d="M20.0706 11.4574C20.0531 11.4818 20.0371 11.5133 20.0352 11.5381C20.0332 11.5629 20.0559 11.5798 20.0587 11.5487C20.0617 11.5177 20.0646 11.4991 20.0892 11.4761C20.114 11.453 20.0903 11.4299 20.0706 11.4574Z" fill="rgb(163,163,163)" fill-rule="evenodd" />
							<path id="Fill 49" d="M19.8293 11.4568C19.8497 11.4485 19.8844 11.4293 19.9012 11.4116C19.9179 11.394 19.9287 11.4055 19.912 11.4249C19.8952 11.4444 19.8569 11.4675 19.8391 11.4728C19.8215 11.4781 19.8077 11.4657 19.8293 11.4568Z" fill="rgb(163,163,163)" fill-rule="evenodd" />
							<path id="Fill 50" d="M19.8599 11.5554C19.8316 11.5895 19.72 11.6704 19.6865 11.6855C19.653 11.7007 19.6649 11.7227 19.7024 11.7109C19.6748 11.7327 19.6136 11.7683 19.5744 11.7783C19.535 11.7885 19.527 11.8188 19.5861 11.8003C19.6452 11.7817 19.7279 11.7327 19.7495 11.7109C19.7713 11.6889 19.7437 11.6787 19.7772 11.6551C19.8107 11.6315 19.8726 11.5883 19.8815 11.5707C19.8953 11.5438 19.8796 11.5318 19.8599 11.5554Z" fill="rgb(163,163,163)" fill-rule="evenodd" />
							<path id="Fill 51" d="M19.7378 11.8308C19.78 11.8102 19.8588 11.7374 19.8815 11.6956C19.8953 11.6704 19.9228 11.6737 19.9012 11.7125C19.8796 11.7514 19.7988 11.8206 19.7713 11.8391C19.7437 11.8577 19.6925 11.8526 19.7378 11.8308Z" fill="rgb(163,163,163)" fill-rule="evenodd" />
							<path id="Fill 52" d="M20.6338 11.4306C20.6223 11.4544 20.62 11.51 20.624 11.5369C20.6279 11.564 20.6516 11.5843 20.6476 11.5438C20.6437 11.5033 20.6437 11.4628 20.6574 11.4509C20.6713 11.439 20.6535 11.3901 20.6338 11.4306Z" fill="rgb(163,163,163)" fill-rule="evenodd" />
							<path id="Fill 53" d="M20.8741 11.5302C20.8941 11.5486 20.9035 11.6349 20.9016 11.6669C20.8997 11.6991 20.9332 11.6991 20.9311 11.6535C20.9292 11.6079 20.9252 11.5505 20.9075 11.5202C20.8898 11.4897 20.8465 11.5049 20.8741 11.5302Z" fill="rgb(163,163,163)" fill-rule="evenodd" />
							<path id="Fill 54" d="M21.0847 11.5859C21.0969 11.608 21.1123 11.6501 21.1123 11.6804C21.1123 11.7109 21.1379 11.6973 21.1399 11.6619C21.1418 11.6265 21.136 11.5961 21.1222 11.5725C21.1084 11.5489 21.067 11.5538 21.0847 11.5859Z" fill="rgb(163,163,163)" fill-rule="evenodd" />
							<path id="Fill 55" d="M21.2148 11.5595C21.204 11.5323 21.1873 11.508 21.1753 11.5116C21.1636 11.5152 21.1714 11.54 21.1873 11.5666C21.2028 11.5932 21.2266 11.5896 21.2148 11.5595Z" fill="rgb(163,163,163)" fill-rule="evenodd" />
							<path id="Fill 56" d="M20.3916 11.7479C20.3857 11.8187 20.3482 11.8813 20.303 11.9032C20.2577 11.9252 20.2655 11.9606 20.3206 11.9252C20.3759 11.8898 20.4172 11.8289 20.4291 11.775C20.4408 11.7209 20.3956 11.7007 20.3916 11.7479Z" fill="rgb(163,163,163)" fill-rule="evenodd" />
							<path id="Fill 57" d="M20.2931 11.716C20.2695 11.7396 20.2557 11.7903 20.2557 11.829C20.2557 11.8678 20.2714 11.8391 20.2754 11.8172C20.2794 11.7952 20.2871 11.7649 20.307 11.7547C20.3266 11.7445 20.3168 11.6924 20.2931 11.716Z" fill="rgb(163,163,163)" fill-rule="evenodd" />
							<path id="Fill 58" d="M21.9985 11.7648C22.0193 11.799 22.0498 11.8544 22.0596 11.8864C22.0695 11.9185 22.0458 11.9269 22.038 11.8982C22.03 11.8695 21.9926 11.8053 21.9788 11.7834C21.9651 11.7615 21.9748 11.726 21.9985 11.7648Z" fill="rgb(163,163,163)" fill-rule="evenodd" />
						</g>
					</g>
					<path id="Path 63" d="M16 13.3333C16 13.3333 18.2679 14.0071 18.6507 14.0071C18.7583 14.0071 20.2273 13.6702 20.6677 13.6702C20.8324 13.6702 22.353 13.901 22.75 14.0071C23.1471 14.1132 25.3354 13.3333 25.3354 13.3333" fill="rgb(215.985,215.985,215.985)" fill-opacity="0" fill-rule="evenodd" />
					<path id="Path 63" d="M16 13.3333C16 13.3333 18.2679 14.0071 18.6507 14.0071C18.7583 14.0071 20.2273 13.6702 20.6677 13.6702C20.8324 13.6702 22.353 13.901 22.75 14.0071C23.1471 14.1132 25.3354 13.3333 25.3354 13.3333" fill-rule="evenodd" stroke="rgb(255,255,255)" stroke-linecap="round" stroke-linejoin="round" stroke-width="0.666666687" />
					<path id="Path 63" d="M16 14.6667C16 14.6667 18.2679 15.3405 18.6507 15.3405C18.7583 15.3405 20.2273 15.0036 20.6677 15.0036C20.8324 15.0036 22.353 15.2344 22.75 15.3405C23.1471 15.4466 25.3354 14.6667 25.3354 14.6667" fill="rgb(215.985,215.985,215.985)" fill-opacity="0" fill-rule="evenodd" />
					<path id="Path 63" d="M16 14.6667C16 14.6667 18.2679 15.3405 18.6507 15.3405C18.7583 15.3405 20.2273 15.0036 20.6677 15.0036C20.8324 15.0036 22.353 15.2344 22.75 15.3405C23.1471 15.4466 25.3354 14.6667 25.3354 14.6667" fill-rule="evenodd" stroke="rgb(255,255,255)" stroke-linecap="round" stroke-linejoin="round" stroke-width="0.666666687" />
					<path id="Path 63" d="M16 17.3333C16 17.3333 18.2679 18.0071 18.6507 18.0071C18.7583 18.0071 19.634 17.4619 20.6677 17.4619C21.7014 17.4619 22.353 17.901 22.75 18.0071C23.1471 18.1132 25.3354 17.3333 25.3354 17.3333L32.5128 18.4813" fill="rgb(215.985,215.985,215.985)" fill-opacity="0" fill-rule="evenodd" />
					<path id="Path 63" d="M16 17.3333C16 17.3333 18.2679 18.0071 18.6507 18.0071C18.7583 18.0071 19.634 17.4619 20.6677 17.4619C21.7014 17.4619 22.353 17.901 22.75 18.0071C23.1471 18.1132 25.3354 17.3333 25.3354 17.3333L32.5128 18.4813" fill-rule="evenodd" stroke="rgb(255,255,255)" stroke-linecap="round" stroke-linejoin="round" stroke-width="1.33333337" />
				</g>
			</g>
			<path id="Mask" d="M17.3334 14C17.3334 12.9063 17.3334 11.6132 17.3334 10.6659C17.3334 9.92948 17.9303 9.33337 18.6667 9.33337L22.6667 9.33337C23.4031 9.33337 24 9.92948 24 10.6659C24 11.6132 24 12.9063 24 14C24 17.3334 20.6667 18.6667 20.6667 18.6667C20.6667 18.6667 17.3334 17.3334 17.3334 14Z" fill="url(#paint_linear_154)" fill-opacity="0" fill-rule="evenodd" />
			<path id="Mask" d="M17.3334 10.6659L17.3334 14C17.3334 17.3334 20.6667 18.6667 20.6667 18.6667C20.6667 18.6667 24 17.3334 24 14L24 10.6659C24 9.92948 23.4031 9.33337 22.6667 9.33337L18.6667 9.33337C17.9303 9.33337 17.3334 9.92948 17.3334 10.6659ZM20.6667 17.9312C20.7256 17.9004 20.7897 17.8655 20.8589 17.8263C21.2334 17.6141 21.5762 17.3679 21.8874 17.0878C22.3145 16.7035 22.6485 16.2825 22.8893 15.825C23.0008 15.6131 23.0913 15.3947 23.1608 15.1699C23.2758 14.7977 23.3334 14.4078 23.3334 14L23.3334 10.6667C23.3334 10.5747 23.3171 10.4894 23.2846 10.4108C23.252 10.3322 23.2032 10.2604 23.1381 10.1953C23.073 10.1302 23.0012 10.0814 22.9226 10.0489C22.8441 10.0163 22.7588 10 22.6667 10L18.6667 10C18.5747 10 18.4894 10.0163 18.4108 10.0489C18.3322 10.0814 18.2604 10.1302 18.1953 10.1953C18.1302 10.2604 18.0814 10.3322 18.0489 10.4108C18.0163 10.4894 18 10.5747 18 10.6667L18 12.7467L18 14C18 14.4078 18.0576 14.7977 18.1726 15.1699C18.2421 15.3947 18.3326 15.6131 18.4442 15.825C18.685 16.2825 19.0189 16.7034 19.446 17.0878C19.7572 17.3679 20.1001 17.6141 20.4745 17.8263C20.5437 17.8655 20.6078 17.9004 20.6667 17.9312Z" fill="rgb(255,255,255)" fill-rule="evenodd" />
			<g mask="url(#mask_397)" />
		</g>
		<path id="Rectangle 36" d="M4.66667 8L0 4L0.666667 4L5.33333 7.33333L6.66667 7.33333L12 4L12 4.49513C12 4.60278 11.948 4.7038 11.8604 4.76637L7.33333 8L7.33333 9.33333L11.5475 12.9455C11.7029 13.0787 11.6087 13.3333 11.404 13.3333L11.404 13.3333C11.358 13.3333 11.3132 13.319 11.2758 13.2923L6.66667 10L5.33333 10L0 13.3333L0 12.6667L4.66667 9.33333L4.66667 8Z" fill="rgb(219,30,54)" fill-rule="evenodd" />
		<path id="Rectangle 36" d="M0.88031 3.33333L-1.80217 3.33333L4 8.30662L4 8.99026L-0.666667 12.3236L-0.666667 14.5362L5.52453 10.6667L6.45302 10.6667L10.8883 13.8348C10.9655 13.8898 11.047 13.9311 11.1329 13.9587C11.2189 13.9862 11.3092 14 11.404 14C11.5074 14 11.6052 13.9839 11.6975 13.9518C11.7795 13.9232 11.8572 13.882 11.9304 13.828C11.9985 13.7777 12.0574 13.7203 12.1071 13.6558C12.161 13.5858 12.2039 13.5074 12.236 13.4206C12.2681 13.3339 12.2865 13.2464 12.2911 13.1582C12.2954 13.0769 12.2881 12.995 12.269 12.9125C12.2486 12.8238 12.2165 12.742 12.1728 12.6669C12.1237 12.5824 12.0599 12.5066 11.9813 12.4393L8 9.02671L8 8.34308L12.2479 5.30886C12.3136 5.26194 12.3721 5.2088 12.4234 5.14944C12.4748 5.09008 12.5189 5.0245 12.5558 4.95271C12.5928 4.88091 12.6205 4.80688 12.639 4.7306C12.6574 4.65435 12.6667 4.57586 12.6667 4.49513L12.6667 2.79717L6.47547 6.66667L5.54698 6.66667L0.88031 3.33333ZM5.33333 7.33333L2.81303 5.53312L0.666667 4L0 4L0.413502 4.35443L0.666667 4.57143L2.40155 6.05847L4.66667 8L4.66667 9.33333L0 12.6667L0 13.3333L0.329218 13.1276L0.666667 12.9167L1.70915 12.2651L5.33333 10L6.66667 10L9.18697 11.8002L10.9601 13.0667L11.2758 13.2923C11.3132 13.319 11.358 13.3333 11.404 13.3333C11.6087 13.3333 11.7029 13.0787 11.5475 12.9455L11.2529 12.693L9.59845 11.2749L7.33333 9.33333L7.33333 8L10.6616 5.62265L11.8604 4.76637C11.948 4.7038 12 4.60278 12 4.49513L12 4L11.3428 4.41077L11.3333 4.41667L10.2909 5.06822L6.66667 7.33333L5.33333 7.33333Z" fill="rgb(255,255,255)" fill-rule="evenodd" />
		<path id="Rectangle 2" d="M0 7.33333L0 10L4.66667 10L4.66667 13.3333C4.66667 13.7015 4.96514 14 5.33333 14L6.66667 14C7.03486 14 7.33333 13.7015 7.33333 13.3333L7.33333 10L12 10C12.3682 10 12.6667 9.70152 12.6667 9.33333L12.6667 8C12.6667 7.63181 12.3682 7.33333 12 7.33333L7.33333 7.33333L7.33333 4L4.66667 4L4.66667 7.33333L0 7.33333Z" fill="rgb(255,255,255)" fill-rule="evenodd" />
		<path id="Rectangle 2" d="M0 10L4.66667 10L4.66667 13.3333C4.66667 13.7015 4.96514 14 5.33333 14L6.66667 14C7.03486 14 7.33333 13.7015 7.33333 13.3333L7.33333 10L12 10C12.3682 10 12.6667 9.70152 12.6667 9.33333L12.6667 8C12.6667 7.63181 12.3682 7.33333 12 7.33333L7.33333 7.33333L7.33333 4L4.66667 4L4.66667 7.33333L0 7.33333L0 10Z" fill-rule="evenodd" stroke="rgb(150.96,150.96,150.96)" stroke-opacity="0" stroke-linejoin="bevel" stroke-width="0" />
		<path id="Rectangle 36" d="M0 8L5.33333 8L5.33333 7.33333L5.33333 4L6.66667 4L6.66667 7.33333L6.66667 8L12 8L12 9.33333L6.66667 9.33333L6.66667 10L6.66667 13.3333L5.33333 13.3333L5.33333 10L5.33333 9.33333L0 9.33333L0 8Z" fill="rgb(219,30,54)" fill-rule="evenodd" />
		<path id="Rectangle 36" d="M5.33333 8L5.33333 7.33333L5.33333 4L6.66667 4L6.66667 7.33333L6.66667 8L12 8L12 9.33333L6.66667 9.33333L6.66667 10L6.66667 13.3333L5.33333 13.3333L5.33333 10L5.33333 9.33333L0 9.33333L0 8L5.33333 8Z" fill-rule="evenodd" stroke="rgb(150.96,150.96,150.96)" stroke-opacity="0" stroke-width="0" />
	</g>
</svg>
