<svg viewBox="0 0 28 28" xmlns="http://www.w3.org/2000/svg" xmlns:xlink="http://www.w3.org/1999/xlink" width="28.000000" height="28.000000" fill="none" customFrame="#000000">
	<mask id="mask_401" width="6.666667" height="9.333333" x="17.333313" y="9.333374" maskUnits="userSpaceOnUse">
		<g filter="url(#pixso_custom_mask_type_alpha)">
			<path id="Mask" d="M17.3333 14C17.3333 12 17.3333 9.33337 17.3333 9.33337L24 9.33337C24 9.33337 24 12 24 14C24 17.3334 20.6666 18.6667 20.6666 18.6667C20.6666 18.6667 17.3333 17.3334 17.3333 14Z" fill="rgb(255,255,255)" fill-rule="evenodd" />
			<path id="Mask" d="M17.3333 9.33337L24 9.33337C24 9.33337 24 12 24 14C24 17.3334 20.6666 18.6667 20.6666 18.6667C20.6666 18.6667 17.3333 17.3334 17.3333 14C17.3333 12 17.3333 9.33337 17.3333 9.33337Z" fill-rule="evenodd" stroke="rgb(150.96,150.96,150.96)" stroke-opacity="0" stroke-width="0" />
		</g>
	</mask>
	<defs>
		<filter id="pixso_custom_mask_type_alpha">
			<feColorMatrix type="matrix" values="0 0 0 0 1 0 0 0 0 1 0 0 0 0 1 0 0 0 1 0 " />
		</filter>
		<linearGradient id="paint_linear_155" x1="0" x2="0" y1="4" y2="13.333333" gradientUnits="userSpaceOnUse">
			<stop stop-color="rgb(4.3712,44.3097,144.156)" offset="0" stop-opacity="1" />
			<stop stop-color="rgb(0,36,126)" offset="1" stop-opacity="1" />
		</linearGradient>
		<linearGradient id="paint_linear_156" x1="0" x2="0" y1="4" y2="14" gradientUnits="userSpaceOnUse">
			<stop stop-color="rgb(255,255,255)" offset="0" stop-opacity="1" />
			<stop stop-color="rgb(239.7,239.7,239.7)" offset="1" stop-opacity="1" />
		</linearGradient>
	</defs>
	<mask id="mask_400" width="28.000000" height="20.000000" x="0.000000" y="4.000000" maskUnits="userSpaceOnUse">
		<g filter="url(#pixso_custom_mask_type_alpha)">
			<rect id="Mask" width="28.000000" height="20.000000" x="0.000000" y="4.000000" rx="2.000000" fill="rgb(255,255,255)" />
			<rect id="Mask" width="28.000000" height="20.000000" x="0.000000" y="4.000000" rx="2.000000" stroke="rgb(150.96,150.96,150.96)" stroke-opacity="0" stroke-width="0" />
		</g>
	</mask>
	<rect id="Fiji" width="28.000000" height="28.000000" x="0.000000" y="0.000000" fill="rgb(255,255,255)" fill-opacity="0" />
	<rect id="Mask" width="28.000000" height="20.000000" x="0.000000" y="4.000000" rx="2.000000" fill="rgb(255,255,255)" />
	<rect id="Mask" width="28.000000" height="20.000000" x="0.000000" y="4.000000" rx="2.000000" stroke="rgb(150.96,150.96,150.96)" stroke-opacity="0" stroke-width="0" />
	<g mask="url(#mask_400)">
		<rect id="Mask Copy" width="28.000000" height="20.000000" x="0.000000" y="4.000000" fill="rgb(121,207,246)" />
		<rect id="Mask Copy" width="28.000000" height="20.000000" x="0.000000" y="4.000000" stroke="rgb(150.96,150.96,150.96)" stroke-opacity="0" stroke-width="0" />
		<rect id="Rectangle 1115" width="12.000000" height="9.333333" x="0.000000" y="4.000000" fill="url(#paint_linear_155)" />
		<rect id="Rectangle 1115" width="12.000000" height="9.333333" x="0.000000" y="4.000000" stroke="rgb(150.96,150.96,150.96)" stroke-opacity="0" stroke-width="0" />
		<g id="Rectangle 1105">
			<path id="Mask" d="M17.3333 14C17.3333 12 17.3333 9.33337 17.3333 9.33337L24 9.33337C24 9.33337 24 12 24 14C24 17.3334 20.6666 18.6667 20.6666 18.6667C20.6666 18.6667 17.3333 17.3334 17.3333 14Z" fill="rgb(255,255,255)" fill-rule="evenodd" />
			<path id="Mask" d="M17.3333 9.33337L24 9.33337C24 9.33337 24 12 24 14C24 17.3334 20.6666 18.6667 20.6666 18.6667C20.6666 18.6667 17.3333 17.3334 17.3333 14C17.3333 12 17.3333 9.33337 17.3333 9.33337Z" fill-rule="evenodd" stroke="rgb(150.96,150.96,150.96)" stroke-opacity="0" stroke-width="0" />
			<g mask="url(#mask_401)">
				<path id="Oval 177" d="M19.3333 12C19.3333 12.3682 19.0349 12.6667 18.6667 12.6667C18.2985 12.6667 18 12.3682 18 12C18 11.6319 18.2985 11.3334 18.6667 11.3334C19.0349 11.3334 19.3333 11.6319 19.3333 12ZM23.3333 12C23.3333 12.3682 23.0349 12.6667 22.6667 12.6667C22.2985 12.6667 22 12.3682 22 12C22 11.6319 22.2985 11.3334 22.6667 11.3334C23.0349 11.3334 23.3333 11.6319 23.3333 12Z" fill="rgb(42,145,92)" fill-rule="evenodd" />
				<path id="Oval 177" d="M19.3333 12C19.3333 12.3682 19.0349 12.6667 18.6667 12.6667C18.2985 12.6667 18 12.3682 18 12C18 11.6319 18.2985 11.3334 18.6667 11.3334C19.0349 11.3334 19.3333 11.6319 19.3333 12ZM23.3333 12C23.3333 12.3682 23.0349 12.6667 22.6667 12.6667C22.2985 12.6667 22 12.3682 22 12C22 11.6319 22.2985 11.3334 22.6667 11.3334C23.0349 11.3334 23.3333 11.6319 23.3333 12Z" fill-rule="evenodd" stroke="rgb(150.96,150.96,150.96)" stroke-opacity="0" stroke-width="0" />
				<path id="Rectangle 1106" d="M17.3333 9.33337L24 9.33337L24 10.6667L21.3333 10.6667L21.3333 13.3334L24 13.3334L24 14.6667L21.3333 14.6667L21.3333 18.6667L20 18.6667L20 14.6667L17.3333 14.6667L17.3333 13.3334L20 13.3334L20 10.6667L17.3333 10.6667L17.3333 9.33337Z" fill="rgb(235,29,67)" fill-rule="evenodd" />
				<path id="Rectangle 1106" d="M24 9.33337L24 10.6667L21.3333 10.6667L21.3333 13.3334L24 13.3334L24 14.6667L21.3333 14.6667L21.3333 18.6667L20 18.6667L20 14.6667L17.3333 14.6667L17.3333 13.3334L20 13.3334L20 10.6667L17.3333 10.6667L17.3333 9.33337L24 9.33337Z" fill-rule="evenodd" stroke="rgb(150.96,150.96,150.96)" stroke-opacity="0" stroke-width="0" />
			</g>
		</g>
		<path id="Rectangle 36" d="M4.66667 8L0 4L0.666667 4L5.33333 7.33333L6.66667 7.33333L12 4L12 4.49513C12 4.60278 11.948 4.7038 11.8604 4.76637L7.33333 8L7.33333 9.33333L11.5475 12.9455C11.7029 13.0787 11.6087 13.3333 11.404 13.3333L11.404 13.3333C11.358 13.3333 11.3132 13.319 11.2758 13.2923L6.66667 10L5.33333 10L0 13.3333L0 12.6667L4.66667 9.33333L4.66667 8Z" fill="rgb(219,30,54)" fill-rule="evenodd" />
		<path id="Rectangle 36" d="M0.88031 3.33333L-1.80217 3.33333L4 8.30662L4 8.99026L-0.666667 12.3236L-0.666667 14.5362L5.52453 10.6667L6.45302 10.6667L10.8883 13.8348C10.9655 13.8898 11.047 13.9311 11.1329 13.9587C11.2189 13.9862 11.3092 14 11.404 14C11.5074 14 11.6052 13.9839 11.6975 13.9518C11.7795 13.9232 11.8572 13.882 11.9304 13.828C11.9985 13.7777 12.0574 13.7203 12.1071 13.6558C12.161 13.5858 12.2039 13.5074 12.236 13.4206C12.2681 13.3339 12.2865 13.2464 12.2911 13.1582C12.2954 13.0769 12.2881 12.995 12.269 12.9125C12.2486 12.8238 12.2165 12.742 12.1728 12.6669C12.1237 12.5824 12.0599 12.5066 11.9813 12.4393L8 9.02671L8 8.34308L12.2479 5.30886C12.3136 5.26194 12.3721 5.2088 12.4234 5.14944C12.4748 5.09008 12.5189 5.0245 12.5558 4.95271C12.5928 4.88091 12.6205 4.80688 12.639 4.7306C12.6574 4.65435 12.6667 4.57586 12.6667 4.49513L12.6667 2.79717L6.47547 6.66667L5.54698 6.66667L0.88031 3.33333ZM5.33333 7.33333L2.81303 5.53312L0.666667 4L0 4L0.413502 4.35443L0.666667 4.57143L2.40155 6.05847L4.66667 8L4.66667 9.33333L0 12.6667L0 13.3333L0.329218 13.1276L0.666667 12.9167L1.70915 12.2651L5.33333 10L6.66667 10L9.18697 11.8002L10.9601 13.0667L11.2758 13.2923C11.3132 13.319 11.358 13.3333 11.404 13.3333C11.6087 13.3333 11.7029 13.0787 11.5475 12.9455L11.2529 12.693L9.59845 11.2749L7.33333 9.33333L7.33333 8L10.6616 5.62265L11.8604 4.76637C11.948 4.7038 12 4.60278 12 4.49513L12 4L11.3428 4.41077L11.3333 4.41667L10.2909 5.06822L6.66667 7.33333L5.33333 7.33333Z" fill="rgb(255,255,255)" fill-rule="evenodd" />
		<path id="Rectangle 2" d="M0 7.33333L0 10L4.66667 10L4.66667 13.3333C4.66667 13.7015 4.96514 14 5.33333 14L6.66667 14C7.03486 14 7.33333 13.7015 7.33333 13.3333L7.33333 10L12 10C12.3682 10 12.6667 9.70152 12.6667 9.33333L12.6667 8C12.6667 7.63181 12.3682 7.33333 12 7.33333L7.33333 7.33333L7.33333 4L4.66667 4L4.66667 7.33333L0 7.33333Z" fill="url(#paint_linear_156)" fill-rule="evenodd" />
		<path id="Rectangle 2" d="M0 10L4.66667 10L4.66667 13.3333C4.66667 13.7015 4.96514 14 5.33333 14L6.66667 14C7.03486 14 7.33333 13.7015 7.33333 13.3333L7.33333 10L12 10C12.3682 10 12.6667 9.70152 12.6667 9.33333L12.6667 8C12.6667 7.63181 12.3682 7.33333 12 7.33333L7.33333 7.33333L7.33333 4L4.66667 4L4.66667 7.33333L0 7.33333L0 10Z" fill-rule="evenodd" stroke="rgb(150.96,150.96,150.96)" stroke-opacity="0" stroke-linejoin="bevel" stroke-width="0" />
		<path id="Rectangle 36" d="M0 8L5.33333 8L5.33333 7.33333L5.33333 4L6.66667 4L6.66667 7.33333L6.66667 8L12 8L12 9.33333L6.66667 9.33333L6.66667 10L6.66667 13.3333L5.33333 13.3333L5.33333 10L5.33333 9.33333L0 9.33333L0 8Z" fill="rgb(219,30,54)" fill-rule="evenodd" />
		<path id="Rectangle 36" d="M5.33333 8L5.33333 7.33333L5.33333 4L6.66667 4L6.66667 7.33333L6.66667 8L12 8L12 9.33333L6.66667 9.33333L6.66667 10L6.66667 13.3333L5.33333 13.3333L5.33333 10L5.33333 9.33333L0 9.33333L0 8L5.33333 8Z" fill-rule="evenodd" stroke="rgb(150.96,150.96,150.96)" stroke-opacity="0" stroke-width="0" />
	</g>
</svg>
