<svg width="31.000000" height="28.000000" viewBox="0 0 31 28" fill="none" xmlns="http://www.w3.org/2000/svg" xmlns:xlink="http://www.w3.org/1999/xlink">
	<desc>
			Created with Pixso.
	</desc>
	<defs/>
	<rect id="Finland" width="28.000000" height="28.000000" transform="translate(1.000000 0.000000)" fill="#FFFFFF" fill-opacity="0"/>
	<rect id="Mask" x="1.000000" y="4.000000" rx="3.000000" width="28.000000" height="20.000000" fill="#FFFFFF" fill-opacity="1.000000"/>
	<rect id="Mask" x="1.250000" y="4.250000" rx="3.000000" width="27.500000" height="19.500000" stroke="#D6D8DD" stroke-opacity="1.000000" stroke-width="0.500000"/>
	<mask id="mask17_5679" mask-type="alpha" maskUnits="userSpaceOnUse" x="1.000000" y="4.000000" width="28.000000" height="20.000000">
		<rect id="Mask" x="1.000000" y="4.000000" rx="3.000000" width="28.000000" height="20.000000" fill="#FFFFFF" fill-opacity="1.000000"/>
		<rect id="Mask" x="1.250000" y="4.250000" rx="3.000000" width="27.500000" height="19.500000" stroke="#F5F5F5" stroke-opacity="1.000000" stroke-width="0.500000"/>
	</mask>
	<g mask="url(#mask17_5679)">
		<path id="Rectangle 2" d="M-0.34 15.99L9 15.99L9 25.33L13 25.33L13 15.99L30.33 15.99L30.33 11.99L13 11.99L13 2.66L9 2.66L9 11.99L-0.34 11.99L-0.34 15.99Z" fill="#0848A6" fill-opacity="1.000000" fill-rule="evenodd"/>
		<path id="Rectangle 2" d="M9 15.99L9 25.33L13 25.33L13 15.99L30.33 15.99L30.33 11.99L13 11.99L13 2.66L9 2.66L9 11.99L-0.34 11.99L-0.34 15.99L9 15.99Z" stroke="#979797" stroke-opacity="0" stroke-width="0.000000"/>
	</g>
</svg>
