<svg viewBox="0 0 30.6667 28" xmlns="http://www.w3.org/2000/svg" xmlns:xlink="http://www.w3.org/1999/xlink" width="30.666687" height="28.000000" fill="none" customFrame="#000000">
	<defs>
		<filter id="pixso_custom_mask_type_alpha">
			<feColorMatrix type="matrix" values="0 0 0 0 1 0 0 0 0 1 0 0 0 0 1 0 0 0 1 0 " />
		</filter>
	</defs>
	<mask id="mask_166" width="28.000000" height="20.000000" x="1.333313" y="4.000000" maskUnits="userSpaceOnUse">
		<g filter="url(#pixso_custom_mask_type_alpha)">
			<rect id="Mask" width="28.000000" height="20.000000" x="1.333313" y="4.000000" rx="3.000000" fill="rgb(255,255,255)" />
			<rect id="Mask" width="27.500000" height="19.500000" x="1.583313" y="4.250000" rx="2.750000" stroke="rgb(245,245,245)" stroke-width="0.500000" />
		</g>
	</mask>
	<rect id="Finland" width="28.000000" height="28.000000" x="1.333313" y="0.000000" fill="rgb(255,255,255)" fill-opacity="0" />
	<rect id="Mask" width="28.000000" height="20.000000" x="1.333313" y="4.000000" rx="3.000000" fill="rgb(255,255,255)" />
	<rect id="Mask" width="27.500000" height="19.500000" x="1.583313" y="4.250000" rx="2.750000" stroke="rgb(214,216,221)" stroke-width="0.500000" />
	<g mask="url(#mask_166)">
		<path id="Rectangle 2" d="M0 16L9.33333 16L9.33333 25.3333L13.3333 25.3333L13.3333 16L30.6667 16L30.6667 12L13.3333 12L13.3333 2.66663L9.33333 2.66663L9.33333 12L0 12L0 16Z" fill="rgb(8,72,166)" fill-rule="evenodd" />
		<path id="Rectangle 2" d="M9.33333 16L9.33333 25.3333L13.3333 25.3333L13.3333 16L30.6667 16L30.6667 12L13.3333 12L13.3333 2.66663L9.33333 2.66663L9.33333 12L0 12L0 16L9.33333 16Z" fill-rule="evenodd" stroke="rgb(150.96,150.96,150.96)" stroke-opacity="0" stroke-width="0.000000" />
	</g>
</svg>
