<svg width="28.000000" height="28.000000" viewBox="0 0 28 28" fill="none" xmlns="http://www.w3.org/2000/svg" xmlns:xlink="http://www.w3.org/1999/xlink">
	<desc>
			Created with Pixso.
	</desc>
	<defs/>
	<rect id="French Southern And Antarctic Territories" width="28.000000" height="28.000000" fill="#FFFFFF" fill-opacity="0"/>
	<rect id="Mask" y="4.000000" rx="3.000000" width="28.000000" height="20.000000" fill="#FFFFFF" fill-opacity="1.000000"/>
	<rect id="Mask" y="4.000000" rx="3.000000" width="28.000000" height="20.000000" stroke="#979797" stroke-opacity="0" stroke-width="0.000000"/>
	<mask id="mask107628_1539" mask-type="alpha" maskUnits="userSpaceOnUse" x="0.000000" y="4.000000" width="28.000000" height="20.000000">
		<rect id="Mask" y="4.000000" rx="3.000000" width="28.000000" height="20.000000" fill="#FFFFFF" fill-opacity="1.000000"/>
		<rect id="Mask" y="4.000000" rx="3.000000" width="28.000000" height="20.000000" stroke="#979797" stroke-opacity="0" stroke-width="0.000000"/>
	</mask>
	<g mask="url(#mask107628_1539)">
		<rect id="Mask Copy" y="4.000000" width="28.000000" height="20.000000" fill="#083B9A" fill-opacity="1.000000"/>
		<rect id="Mask Copy" y="4.000000" width="28.000000" height="20.000000" stroke="#979797" stroke-opacity="0" stroke-width="0.000000"/>
	</g>
	<g mask="url(#mask107628_1539)">
		<path id="Rectangle 2" d="M0 15L15 15L15 4L0 4L0 15Z" fill="#083B9A" fill-opacity="1.000000" fill-rule="evenodd"/>
		<path id="Rectangle 2" d="M15 15L15 4L0 4L0 15L15 15Z" stroke="#FFFFFF" stroke-opacity="1.000000" stroke-width="1.000000"/>
	</g>
	<g mask="url(#mask107628_1539)">
		<path id="Rectangle 3" d="M0 15L5 15L5 4L0 4L0 15Z" fill="#083B9A" fill-opacity="1.000000" fill-rule="evenodd"/>
	</g>
	<g mask="url(#mask107628_1539)">
		<path id="Rectangle 4" d="M5 15L10 15L10 4L5 4L5 15Z" fill="#FFFFFF" fill-opacity="1.000000" fill-rule="evenodd"/>
	</g>
	<g mask="url(#mask107628_1539)">
		<path id="Rectangle 5" d="M10 15L15 15L15 4L10 4L10 15Z" fill="#F44653" fill-opacity="1.000000" fill-rule="evenodd"/>
	</g>
	<g mask="url(#mask107628_1539)">
		<path id="Star 121" d="M17.53 14.95L17.31 15.63L16.59 15.63L17.17 16.05L16.95 16.73L17.53 16.31L18.11 16.73L17.89 16.05L18.46 15.63L17.75 15.63L17.53 14.95Z" fill="#FFFFFF" fill-opacity="1.000000" fill-rule="nonzero"/>
		<path id="Star 122" d="M24.86 14.95L24.64 15.63L23.92 15.63L24.5 16.05L24.28 16.73L24.86 16.31L25.44 16.73L25.22 16.05L25.8 15.63L25.08 15.63L24.86 14.95Z" fill="#FFFFFF" fill-opacity="1.000000" fill-rule="nonzero"/>
		<path id="Star 123" d="M23.16 19.49L22.94 20.17L22.23 20.17L22.81 20.59L22.58 21.28L23.16 20.85L23.74 21.28L23.52 20.59L24.1 20.17L23.38 20.17L23.16 19.49Z" fill="#FFFFFF" fill-opacity="1.000000" fill-rule="nonzero"/>
		<path id="Star 124" d="M19.17 19.49L18.95 20.17L18.23 20.17L18.81 20.59L18.59 21.28L19.17 20.85L19.75 21.28L19.53 20.59L20.11 20.17L19.39 20.17L19.17 19.49Z" fill="#FFFFFF" fill-opacity="1.000000" fill-rule="nonzero"/>
		<path id="Star 125" d="M21.14 21.03L20.92 21.71L20.2 21.71L20.78 22.13L20.56 22.81L21.14 22.39L21.72 22.81L21.5 22.13L22.08 21.71L21.36 21.71L21.14 21.03Z" fill="#FFFFFF" fill-opacity="1.000000" fill-rule="nonzero"/>
		<path id="Union" d="M19.99 18.54L21.19 20.42L22.4 18.54L23.41 18.54L23.57 18.84L24.61 18.84L22.94 16.18L21.71 18.1L21.71 16.35L22.45 16.35L23 15.47L21.71 15.47L21.71 14.93L23.35 14.93L23.93 14L18.46 14L19.03 14.93L20.67 14.93L20.67 15.47L19.39 15.47L19.94 16.35L20.67 16.35L20.67 18.1L19.44 16.18L17.77 18.84L18.81 18.84L18.98 18.54L19.99 18.54ZM19.8 17.91L19.47 17.36L19.14 17.91L19.8 17.91ZM22.59 17.91L22.92 17.36L23.25 17.91L22.59 17.91Z" fill="#FFFFFF" fill-opacity="1.000000" fill-rule="evenodd"/>
	</g>
</svg>
