<svg width="28" height="28" viewBox="0 0 28 28" fill="none" xmlns="http://www.w3.org/2000/svg">
<rect y="4" width="28" height="20" rx="3" fill="white"/>
<mask id="mask0_107628_1418" style="mask-type:luminance" maskUnits="userSpaceOnUse" x="0" y="4" width="28" height="20">
<rect y="4" width="28" height="20" rx="3" fill="white"/>
</mask>
<g mask="url(#mask0_107628_1418)">
<rect y="4" width="28" height="20" fill="#083B9A"/>
<path fill-rule="evenodd" clip-rule="evenodd" d="M0 15H15V4H0V15Z" fill="#083B9A" stroke="white"/>
<path fill-rule="evenodd" clip-rule="evenodd" d="M0 15H5V4H0V15Z" fill="#083B9A"/>
<path fill-rule="evenodd" clip-rule="evenodd" d="M5 15H10V4H5V15Z" fill="white"/>
<path fill-rule="evenodd" clip-rule="evenodd" d="M10 15H15V4H10V15Z" fill="#F44653"/>
<path d="M17.5331 14.9574L17.7542 15.6379H18.4697L17.8908 16.0584L18.1119 16.7389L17.5331 16.3184L16.9542 16.7389L17.1753 16.0584L16.5965 15.6379H17.312L17.5331 14.9574Z" fill="white"/>
<path d="M24.8644 14.9574L25.0855 15.6379H25.801L25.2221 16.0584L25.4432 16.7389L24.8644 16.3184L24.2855 16.7389L24.5066 16.0584L23.9278 15.6379H24.6433L24.8644 14.9574Z" fill="white"/>
<path d="M23.1683 19.4985L23.3894 20.179H24.1049L23.5261 20.5995L23.7472 21.28L23.1683 20.8594L22.5895 21.28L22.8106 20.5995L22.2317 20.179H22.9472L23.1683 19.4985Z" fill="white"/>
<path d="M19.1744 19.4985L19.3955 20.179H20.111L19.5322 20.5995L19.7533 21.28L19.1744 20.8594L18.5956 21.28L18.8167 20.5995L18.2378 20.179H18.9533L19.1744 19.4985Z" fill="white"/>
<path d="M21.144 21.0304L21.3651 21.7109H22.0806L21.5017 22.1314L21.7228 22.8119L21.144 22.3914L20.5651 22.8119L20.7862 22.1314L20.2074 21.7109H20.9229L21.144 21.0304Z" fill="white"/>
<path fill-rule="evenodd" clip-rule="evenodd" d="M19.995 18.541L21.1987 20.4286L22.4023 18.541H23.4145L23.5786 18.8419H24.6181L22.9494 16.1884L21.7184 18.1033V16.3526H22.457L23.0042 15.4772H21.7184V14.9301H23.3598L23.9343 14H18.4631L19.0376 14.9301H20.6789V15.4772H19.3932L19.9403 16.3526H20.6789V18.1033L19.4479 16.1884L17.7792 18.8419H18.8187L18.9829 18.541H19.995ZM19.8036 17.9119L19.4753 17.3647L19.147 17.9119H19.8036ZM22.5938 17.9119L22.9221 17.3647L23.2504 17.9119H22.5938Z" fill="white"/>
</g>
</svg>
