<svg viewBox="0 0 28 28" xmlns="http://www.w3.org/2000/svg" xmlns:xlink="http://www.w3.org/1999/xlink" width="28.000000" height="28.000000" fill="none" customFrame="#000000">
	<defs>
		<filter id="pixso_custom_mask_type_alpha">
			<feColorMatrix type="matrix" values="0 0 0 0 1 0 0 0 0 1 0 0 0 0 1 0 0 0 1 0 " />
		</filter>
	</defs>
	<mask id="mask_302" width="28.000000" height="20.000000" x="0.000000" y="4.000000" maskUnits="userSpaceOnUse">
		<g filter="url(#pixso_custom_mask_type_alpha)">
			<rect id="Mask" width="28.000000" height="20.000000" x="0.000000" y="4.000000" rx="3.000000" fill="rgb(255,255,255)" />
			<rect id="Mask" width="28.000000" height="20.000000" x="0.000000" y="4.000000" rx="3.000000" stroke="rgb(150.96,150.96,150.96)" stroke-opacity="0" stroke-width="0" />
		</g>
	</mask>
	<rect id="French Southern And Antarctic Territories" width="28.000000" height="28.000000" x="0.000000" y="0.000000" fill="rgb(255,255,255)" fill-opacity="0" />
	<rect id="Mask" width="28.000000" height="20.000000" x="0.000000" y="4.000000" rx="3.000000" fill="rgb(255,255,255)" />
	<rect id="Mask" width="28.000000" height="20.000000" x="0.000000" y="4.000000" rx="3.000000" stroke="rgb(150.96,150.96,150.96)" stroke-opacity="0" stroke-width="0" />
	<g mask="url(#mask_302)">
		<rect id="Mask Copy" width="28.000000" height="20.000000" x="0.000000" y="4.000000" fill="rgb(8,59,154)" />
		<rect id="Mask Copy" width="28.000000" height="20.000000" x="0.000000" y="4.000000" stroke="rgb(150.96,150.96,150.96)" stroke-opacity="0" stroke-width="0" />
		<path id="Rectangle 2" d="M0 15L15 15L15 4L0 4L0 15Z" fill="rgb(8,59,154)" fill-rule="evenodd" />
		<path id="Rectangle 2" d="M15 15L15 4L0 4L0 15L15 15Z" fill-rule="evenodd" stroke="rgb(255,255,255)" stroke-width="1" />
		<path id="Rectangle 3" d="M0 15L5 15L5 4L0 4L0 15Z" fill="rgb(8,59,154)" fill-rule="evenodd" />
		<path id="Rectangle 4" d="M5 15L10 15L10 4L5 4L5 15Z" fill="rgb(255,255,255)" fill-rule="evenodd" />
		<path id="Rectangle 5" d="M10 15L15 15L15 4L10 4L10 15Z" fill="rgb(244,70,83)" fill-rule="evenodd" />
		<g id="Group 22">
			<path id="Star 121" d="M17.7542 15.6379L18.4697 15.6379L17.8909 16.0584L18.112 16.7389L17.5331 16.3184L16.9543 16.7389L17.1754 16.0584L16.5965 15.6379L17.312 15.6379L17.5331 14.9574L17.7542 15.6379Z" fill="rgb(255,255,255)" fill-rule="evenodd" />
			<path id="Star 122" d="M25.0855 15.6379L25.801 15.6379L25.2221 16.0584L25.4432 16.7389L24.8644 16.3184L24.2855 16.7389L24.5066 16.0584L23.9278 15.6379L24.6433 15.6379L24.8644 14.9574L25.0855 15.6379Z" fill="rgb(255,255,255)" fill-rule="evenodd" />
			<path id="Star 123" d="M23.3895 20.179L24.105 20.179L23.5261 20.5995L23.7472 21.28L23.1684 20.8594L22.5895 21.28L22.8106 20.5995L22.2318 20.179L22.9473 20.179L23.1684 19.4985L23.3895 20.179Z" fill="rgb(255,255,255)" fill-rule="evenodd" />
			<path id="Star 124" d="M19.3955 20.179L20.111 20.179L19.5322 20.5995L19.7533 21.28L19.1744 20.8594L18.5956 21.28L18.8167 20.5995L18.2378 20.179L18.9533 20.179L19.1744 19.4985L19.3955 20.179Z" fill="rgb(255,255,255)" fill-rule="evenodd" />
			<path id="Star 125" d="M21.3651 21.7109L22.0806 21.7109L21.5017 22.1314L21.7228 22.8119L21.144 22.3914L20.5651 22.8119L20.7862 22.1314L20.2074 21.7109L20.9229 21.7109L21.144 21.0304L21.3651 21.7109Z" fill="rgb(255,255,255)" fill-rule="evenodd" />
			<path id="Union" d="M19.9951 18.541L21.1987 20.4286L22.4024 18.541L23.4145 18.541L23.5787 18.8419L24.6182 18.8419L22.9495 16.1884L21.7185 18.1033L21.7185 16.3526L22.4571 16.3526L23.0042 15.4772L21.7185 15.4772L21.7185 14.9301L23.3598 14.9301L23.9343 14L18.4632 14L19.0376 14.9301L20.679 14.9301L20.679 15.4772L19.3932 15.4772L19.9404 16.3526L20.679 16.3526L20.679 18.1033L19.448 16.1884L17.7793 18.8419L18.8188 18.8419L18.9829 18.541L19.9951 18.541ZM19.8036 17.9119L19.4753 17.3647L19.147 17.9119L19.8036 17.9119ZM22.5939 17.9119L22.9221 17.3647L23.2504 17.9119L22.5939 17.9119Z" fill="rgb(255,255,255)" fill-rule="evenodd" />
		</g>
	</g>
</svg>
