<svg width="28.000000" height="28.000000" viewBox="0 0 28 28" fill="none" xmlns="http://www.w3.org/2000/svg" xmlns:xlink="http://www.w3.org/1999/xlink">
	<desc>
			Created with Pixso.
	</desc>
	<defs/>
	<rect id="French Polynesia" width="28.000000" height="28.000000" fill="#FFFFFF" fill-opacity="0"/>
	<rect id="Mask" y="4.000000" rx="3.000000" width="28.000000" height="20.000000" fill="#FFFFFF" fill-opacity="1.000000"/>
	<rect id="Mask" x="0.250000" y="4.250000" rx="3.000000" width="27.500000" height="19.500000" stroke="#D6D8DD" stroke-opacity="1.000000" stroke-width="0.500000"/>
	<mask id="mask17_4763" mask-type="alpha" maskUnits="userSpaceOnUse" x="0.000000" y="4.000000" width="28.000000" height="20.000000">
		<rect id="Mask" y="4.000000" rx="3.000000" width="28.000000" height="20.000000" fill="#FFFFFF" fill-opacity="1.000000"/>
		<rect id="Mask" x="0.250000" y="4.250000" rx="3.000000" width="27.500000" height="19.500000" stroke="#F5F5F5" stroke-opacity="1.000000" stroke-width="0.500000"/>
	</mask>
	<g mask="url(#mask17_4763)">
		<path id="Rectangle 2" d="M0 9.33L28 9.33L28 4L0 4L0 9.33Z" fill="#D82332" fill-opacity="1.000000" fill-rule="evenodd"/>
		<path id="Rectangle 2" d="M28 9.33L28 4L0 4L0 9.33L28 9.33Z" stroke="#979797" stroke-opacity="0" stroke-width="0.000000"/>
	</g>
	<g mask="url(#mask17_4763)">
		<path id="Rectangle 2" d="M0 24L28 24L28 18.66L0 18.66L0 24Z" fill="#D82332" fill-opacity="1.000000" fill-rule="evenodd"/>
		<path id="Rectangle 2" d="M28 24L28 18.66L0 18.66L0 24L28 24Z" stroke="#979797" stroke-opacity="0" stroke-width="0.000000"/>
	</g>
	<g mask="url(#mask17_4763)">
		<path id="Fill 7" d="M13.06 14.75L12.78 15.01C13.04 15.09 13.39 15 13.53 14.75L13.06 14.75Z" fill="#064A89" fill-opacity="1.000000" fill-rule="evenodd"/>
		<path id="Fill 8" d="M10.77 14.93C10.96 15.12 11.28 15.1 11.47 14.98C11.66 14.85 11.81 14.85 11.93 14.86C11.94 14.97 11.97 15.11 12.02 15.25L10.87 15.25C10.84 15.17 10.79 15.01 10.77 14.93Z" fill="#064A89" fill-opacity="1.000000" fill-rule="evenodd"/>
		<path id="Fill 9" d="M10.98 15.44C11.2 15.34 11.43 15.42 11.53 15.5C11.71 15.64 12.02 15.6 12.17 15.52C12.22 15.61 12.29 15.7 12.37 15.77L11.15 15.77C11.1 15.69 11 15.5 10.98 15.44Z" fill="#064A89" fill-opacity="1.000000" fill-rule="evenodd"/>
		<path id="Fill 10" d="M16.29 16.32C16.35 16.27 16.42 16.18 16.47 16.11C16.39 16.1 16.3 16.04 16.2 16C16.02 15.91 15.85 15.91 15.69 16.01C15.47 16.17 15.18 16.21 14.96 16.05C14.72 15.88 14.49 15.92 14.3 16.02C14.12 16.13 14 16.14 13.88 16.14C13.77 16.14 13.65 16.13 13.46 16.02C13.27 15.92 13.04 15.88 12.8 16.05C12.58 16.21 12.3 16.17 12.07 16.01C11.92 15.91 11.74 15.91 11.56 16C11.47 16.04 11.38 16.1 11.3 16.11C11.34 16.18 11.42 16.27 11.47 16.32L16.29 16.32Z" fill="#064A89" fill-opacity="1.000000" fill-rule="evenodd"/>
		<path id="Fill 11" d="M15.7 16.86C15.75 16.82 15.89 16.72 15.96 16.66C15.88 16.68 15.71 16.62 15.62 16.58C15.36 16.44 15.19 16.46 15 16.56C14.81 16.66 14.54 16.72 14.34 16.61C14.14 16.5 14 16.47 13.89 16.47C13.79 16.47 13.65 16.5 13.45 16.61C13.25 16.72 12.98 16.66 12.79 16.56C12.59 16.46 12.42 16.44 12.16 16.58C12.07 16.62 11.9 16.68 11.83 16.66C11.9 16.72 12.03 16.82 12.08 16.86L15.7 16.86Z" fill="#064A89" fill-opacity="1.000000" fill-rule="evenodd"/>
		<path id="Fill 12" d="M14.56 15.79C14.51 15.76 14.45 15.69 14.39 15.61C14.3 15.47 14.15 15.39 13.94 15.39C13.72 15.39 13.57 15.47 13.48 15.61C13.42 15.69 13.36 15.76 13.31 15.79L14.56 15.79Z" fill="#064A89" fill-opacity="1.000000" fill-rule="evenodd"/>
		<path id="Fill 13" d="M14.21 15.29C14.18 15.26 14.14 15.13 14.12 15.07C14.07 15.09 13.97 15.09 13.92 15.09C13.86 15.09 13.76 15.09 13.71 15.07C13.69 15.13 13.65 15.26 13.62 15.29L14.21 15.29Z" fill="#064A89" fill-opacity="1.000000" fill-rule="evenodd"/>
		<path id="Fill 14" d="M14.73 14.75L15.02 15.01C14.76 15.09 14.4 15 14.26 14.75L14.73 14.75Z" fill="#064A89" fill-opacity="1.000000" fill-rule="evenodd"/>
		<path id="Fill 15" d="M17.09 14.93C16.9 15.12 16.58 15.1 16.39 14.98C16.2 14.85 16.06 14.85 15.94 14.86C15.92 14.97 15.9 15.11 15.85 15.25L16.99 15.25C17.02 15.17 17.07 15.01 17.09 14.93Z" fill="#064A89" fill-opacity="1.000000" fill-rule="evenodd"/>
		<path id="Fill 16" d="M16.92 15.44C16.7 15.34 16.47 15.42 16.37 15.5C16.19 15.64 15.89 15.6 15.74 15.52C15.68 15.61 15.61 15.7 15.53 15.77L16.75 15.77C16.8 15.69 16.91 15.5 16.92 15.44Z" fill="#064A89" fill-opacity="1.000000" fill-rule="evenodd"/>
		<path id="Fill 17" d="M15.15 17.07C14.77 17.23 14.35 17.31 13.91 17.31C13.47 17.31 13.06 17.23 12.67 17.07C12.75 17.06 12.86 17.02 12.95 16.97C13.09 16.89 13.35 16.87 13.47 16.95C13.6 17.03 13.75 17.11 13.91 17.11C14.08 17.11 14.23 17.03 14.35 16.95C14.48 16.87 14.73 16.89 14.88 16.97C14.96 17.02 15.07 17.06 15.15 17.07Z" fill="#064A89" fill-opacity="1.000000" fill-rule="evenodd"/>
		<path id="Fill 18" d="M14.62 10.72C13.93 10.58 13.31 10.66 13.31 11.32C13.31 11.97 13.31 12.93 13.31 13.13C13.31 13.33 13.31 13.35 13.54 13.41C14.05 13.53 14.1 13.54 14.65 13.67L14.65 11.81C14.22 11.76 14.05 11.52 14.05 11.23C14.05 10.96 14.24 10.78 14.62 10.72Z" fill="#514537" fill-opacity="1.000000" fill-rule="evenodd"/>
		<path id="Fill 19" d="M12.85 15.82C12.46 15.82 12.06 15.48 12.06 14.84C12.06 14.19 12.06 13.37 12.06 13.23C12.06 13.08 12.08 13.06 12.04 13.03C12.02 13.01 12.06 12.98 12.09 12.95C12.14 12.9 12.16 12.87 12.11 12.81C12.05 12.75 12.07 12.73 12.11 12.7C12.15 12.66 12.16 12.62 12.13 12.59C12.09 12.55 12.08 12.54 12.12 12.5C12.16 12.47 12.14 12.45 12.11 12.42C12.08 12.39 12.07 12.36 12.11 12.32C12.15 12.28 12.15 12.27 12.19 12.27C12.24 12.27 12.34 12.27 12.38 12.27C12.43 12.27 12.43 12.29 12.39 12.33C12.34 12.37 12.33 12.39 12.38 12.45C12.44 12.5 12.44 12.52 12.4 12.56C12.35 12.61 12.33 12.65 12.38 12.7C12.43 12.75 12.44 12.78 12.4 12.82C12.36 12.86 12.35 12.9 12.4 12.94C12.43 12.98 12.43 13 12.43 13.06C12.43 13.42 12.43 14.43 12.43 14.7C12.43 14.98 12.63 15.14 13 15.14C13.37 15.14 13.5 14.99 13.61 14.89C13.54 15.38 13.34 15.82 12.85 15.82Z" fill="#514537" fill-opacity="1.000000" fill-rule="evenodd"/>
		<path id="Fill 20" d="M13.94 14.25C13.99 14.27 14.04 14.34 14.04 14.43L14.14 14.43C14.14 14.36 14.11 14.25 14.06 14.18C14.06 14.16 14.05 14.15 14.05 14.13C14.09 14.08 14.14 14.01 14.14 13.93C14.14 13.89 14.09 13.89 14.08 13.92C14.07 13.95 14.05 14 14.02 14.02C14.02 13.96 13.98 13.89 13.94 13.89C13.89 13.89 13.86 13.96 13.86 14.02C13.82 14 13.8 13.95 13.79 13.92C13.79 13.89 13.73 13.89 13.73 13.93C13.73 14.01 13.78 14.08 13.82 14.13C13.82 14.15 13.82 14.16 13.81 14.18C13.76 14.25 13.73 14.36 13.73 14.43L13.83 14.43C13.83 14.34 13.88 14.27 13.94 14.25Z" fill="#514537" fill-opacity="1.000000" fill-rule="evenodd"/>
		<path id="Fill 21" d="M13.41 14.25C13.46 14.27 13.51 14.34 13.51 14.43L13.61 14.43C13.61 14.36 13.58 14.25 13.53 14.18C13.53 14.16 13.52 14.15 13.52 14.13C13.56 14.08 13.61 14.01 13.61 13.93C13.61 13.89 13.56 13.89 13.55 13.92C13.55 13.95 13.52 14 13.49 14.02C13.49 13.96 13.45 13.89 13.41 13.89C13.36 13.89 13.33 13.96 13.33 14.02C13.29 14 13.27 13.95 13.26 13.92C13.26 13.89 13.2 13.89 13.2 13.93C13.2 14.01 13.26 14.08 13.29 14.13C13.29 14.15 13.29 14.16 13.29 14.18C13.23 14.25 13.2 14.36 13.2 14.43L13.3 14.43C13.3 14.34 13.35 14.27 13.41 14.25Z" fill="#514537" fill-opacity="1.000000" fill-rule="evenodd"/>
		<path id="Fill 22" d="M12.88 14.25C12.93 14.27 12.98 14.34 12.98 14.43L13.08 14.43C13.08 14.36 13.05 14.25 13 14.18C13 14.16 13 14.15 12.99 14.13C13.03 14.08 13.08 14.01 13.08 13.93C13.08 13.89 13.03 13.89 13.02 13.92C13.02 13.95 13 14 12.96 14.02C12.96 13.96 12.92 13.89 12.88 13.89C12.83 13.89 12.8 13.96 12.8 14.02C12.76 14 12.74 13.95 12.73 13.92C12.73 13.89 12.67 13.89 12.67 13.93C12.67 14.01 12.73 14.08 12.76 14.13C12.76 14.15 12.76 14.16 12.76 14.18C12.7 14.25 12.67 14.36 12.67 14.43L12.77 14.43C12.77 14.34 12.83 14.27 12.88 14.25Z" fill="#514537" fill-opacity="1.000000" fill-rule="evenodd"/>
		<path id="Fill 23" d="M14.46 14.25C14.41 14.27 14.36 14.34 14.36 14.43L14.26 14.43C14.26 14.36 14.29 14.25 14.34 14.18C14.34 14.16 14.35 14.15 14.35 14.13C14.31 14.08 14.26 14.01 14.26 13.93C14.26 13.89 14.31 13.89 14.32 13.92C14.33 13.95 14.35 14 14.38 14.02C14.38 13.96 14.42 13.89 14.46 13.89C14.51 13.89 14.55 13.96 14.55 14.02C14.58 14 14.6 13.95 14.61 13.92C14.61 13.89 14.67 13.89 14.67 13.93C14.67 14.01 14.62 14.08 14.58 14.13C14.58 14.15 14.58 14.16 14.59 14.18C14.64 14.25 14.67 14.36 14.67 14.43L14.57 14.43C14.57 14.34 14.52 14.27 14.46 14.25Z" fill="#514537" fill-opacity="1.000000" fill-rule="evenodd"/>
		<path id="Fill 24" d="M14.99 14.25C14.94 14.27 14.89 14.34 14.89 14.43L14.79 14.43C14.79 14.36 14.82 14.25 14.87 14.18C14.87 14.16 14.88 14.15 14.88 14.13C14.84 14.08 14.79 14.01 14.79 13.93C14.79 13.89 14.84 13.89 14.85 13.92C14.86 13.95 14.88 14 14.91 14.02C14.91 13.96 14.95 13.89 14.99 13.89C15.04 13.89 15.07 13.96 15.07 14.02C15.11 14 15.13 13.95 15.14 13.92C15.14 13.89 15.2 13.89 15.2 13.93C15.2 14.01 15.15 14.08 15.11 14.13C15.11 14.15 15.11 14.16 15.11 14.18C15.17 14.25 15.2 14.36 15.2 14.43L15.1 14.43C15.1 14.34 15.05 14.27 14.99 14.25Z" fill="#514537" fill-opacity="1.000000" fill-rule="evenodd"/>
		<path id="Fill 25" d="M12.57 14.53L15.34 14.53L15.34 14.67L12.57 14.67L12.57 14.53Z" fill="#514537" fill-opacity="1.000000" fill-rule="evenodd"/>
		<path id="Fill 26" d="M15.02 15.82C15.4 15.82 15.81 15.48 15.81 14.84C15.81 14.19 15.81 13.37 15.81 13.23C15.81 13.08 15.79 13.06 15.82 13.03C15.84 13.01 15.8 12.98 15.77 12.95C15.73 12.9 15.7 12.87 15.76 12.81C15.82 12.75 15.79 12.73 15.76 12.7C15.72 12.66 15.71 12.62 15.74 12.59C15.77 12.55 15.78 12.54 15.74 12.5C15.71 12.47 15.72 12.45 15.75 12.42C15.79 12.39 15.8 12.36 15.76 12.32C15.72 12.28 15.72 12.27 15.67 12.27C15.63 12.27 15.53 12.27 15.48 12.27C15.44 12.27 15.44 12.29 15.47 12.33C15.52 12.37 15.54 12.39 15.48 12.45C15.43 12.5 15.43 12.52 15.47 12.56C15.52 12.61 15.54 12.65 15.49 12.7C15.43 12.75 15.43 12.78 15.47 12.82C15.51 12.86 15.51 12.9 15.47 12.94C15.44 12.98 15.43 13 15.43 13.06C15.43 13.42 15.43 14.43 15.43 14.7C15.43 14.98 15.24 15.14 14.87 15.14C14.49 15.14 14.37 14.99 14.26 14.89C14.33 15.38 14.53 15.82 15.02 15.82Z" fill="#514537" fill-opacity="1.000000" fill-rule="evenodd"/>
		<path id="Fill 27" d="" fill="#EEA339" fill-opacity="1.000000" fill-rule="nonzero"/>
		<path id="Stroke 28" d="" stroke="#000000" stroke-opacity="1.000000" stroke-width="0.666667"/>
		<path id="Fill 29" d="M12.57 13.67C12.57 13.67 12.57 13.57 12.57 13.46L13.12 13.67L12.57 13.67Z" fill="#EEA339" fill-opacity="1.000000" fill-rule="evenodd"/>
		<path id="Fill 31" d="M11.9 13.77L10.66 13.6C10.7 13.33 10.77 13.06 10.86 12.81L11.9 13.23L11.9 13.77Z" fill="#EEA339" fill-opacity="1.000000" fill-rule="evenodd"/>
		<path id="Fill 33" d="M14.47 11.69L14.69 10.77C14.95 10.83 15.2 10.93 15.44 11.06L14.73 12.44L14.73 11.75C14.65 11.75 14.52 11.73 14.47 11.69Z" fill="#EEA339" fill-opacity="1.000000" fill-rule="evenodd"/>
		<path id="Fill 35" d="M11.93 13.86L10.67 13.78C10.65 14.05 10.67 14.32 10.72 14.59C10.72 14.59 11.93 14.6 11.93 14.59L11.93 13.86Z" fill="#EEA339" fill-opacity="1.000000" fill-rule="evenodd"/>
		<path id="Fill 37" d="M11.92 12.99C11.88 12.94 11.91 12.91 11.95 12.88C11.99 12.85 11.99 12.83 11.97 12.79C11.94 12.74 11.92 12.7 11.96 12.65C12 12.61 11.99 12.59 11.96 12.56C11.92 12.53 11.92 12.49 11.95 12.46C11.98 12.44 11.97 12.42 11.95 12.39C11.93 12.37 11.9 12.32 11.93 12.28L11.41 11.84C11.24 12.05 11.1 12.28 10.98 12.53L11.92 12.99Z" fill="#EEA339" fill-opacity="1.000000" fill-rule="evenodd"/>
		<path id="Fill 39" d="M13.16 13.23L12.54 12.62C12.63 12.53 12.64 12.52 12.58 12.46C12.51 12.39 12.51 12.38 12.64 12.24C12.69 12.2 12.66 12.16 12.6 12.16C12.53 12.16 12.23 12.16 12.19 12.16C12.16 12.16 12.13 12.17 12.1 12.19L11.61 11.71C11.8 11.51 12.01 11.34 12.24 11.2L13.16 12.71L13.16 13.23Z" fill="#EEA339" fill-opacity="1.000000" fill-rule="evenodd"/>
		<path id="Fill 41" d="M12.52 13.32C12.52 13.17 12.52 13.02 12.52 13C12.52 12.96 12.51 12.94 12.48 12.9C12.45 12.87 12.46 12.85 12.49 12.81L13.07 13.31L13.07 13.6L12.52 13.32Z" fill="#EEA339" fill-opacity="1.000000" fill-rule="evenodd"/>
		<path id="Fill 43" d="M13.06 12.44C13.06 12.15 13.06 11.88 13.06 11.73C13.06 11.27 13.09 11.04 13.16 10.99L13.1 10.77C12.84 10.84 12.59 10.94 12.35 11.06L13.06 12.44Z" fill="#EEA339" fill-opacity="1.000000" fill-rule="evenodd"/>
		<path id="Fill 45" d="M15.34 13.67C15.34 13.67 15.34 13.57 15.34 13.46L14.79 13.67L15.34 13.67Z" fill="#EEA339" fill-opacity="1.000000" fill-rule="evenodd"/>
		<path id="Fill 47" d="M15.95 13.77L17.2 13.6C17.16 13.33 17.09 13.06 16.99 12.81L15.95 13.23L15.95 13.77Z" fill="#EEA339" fill-opacity="1.000000" fill-rule="evenodd"/>
		<path id="Fill 49" d="M15.95 13.86L17.22 13.78C17.23 14.05 17.22 14.32 17.17 14.59C17.17 14.59 15.95 14.6 15.95 14.59L15.95 13.86Z" fill="#EEA339" fill-opacity="1.000000" fill-rule="evenodd"/>
		<path id="Fill 51" d="M15.91 12.99C15.95 12.94 15.93 12.91 15.88 12.88C15.84 12.85 15.85 12.83 15.87 12.79C15.89 12.74 15.91 12.7 15.87 12.65C15.83 12.61 15.85 12.59 15.88 12.56C15.91 12.53 15.91 12.49 15.88 12.46C15.86 12.44 15.86 12.42 15.88 12.39C15.9 12.37 15.94 12.32 15.9 12.28L16.42 11.84C16.59 12.05 16.74 12.28 16.85 12.53L15.91 12.99Z" fill="#EEA339" fill-opacity="1.000000" fill-rule="evenodd"/>
		<path id="Fill 53" d="M14.79 13.23L15.4 12.62C15.32 12.53 15.31 12.52 15.37 12.46C15.44 12.39 15.44 12.38 15.3 12.24C15.26 12.2 15.28 12.16 15.35 12.16C15.42 12.16 15.72 12.16 15.75 12.16C15.79 12.16 15.82 12.17 15.84 12.19L16.33 11.71C16.15 11.51 15.94 11.34 15.71 11.2L14.79 12.71L14.79 13.23Z" fill="#EEA339" fill-opacity="1.000000" fill-rule="evenodd"/>
		<path id="Fill 55" d="M15.34 13.32C15.34 13.17 15.34 13.02 15.34 13C15.34 12.96 15.35 12.94 15.38 12.9C15.42 12.87 15.4 12.85 15.37 12.81L14.79 13.31L14.79 13.6L15.34 13.32Z" fill="#EEA339" fill-opacity="1.000000" fill-rule="evenodd"/>
		<path id="Fill 57" d="M12.14 13.03C12.17 13.05 12.17 13.07 12.17 13.13C12.17 13.18 12.17 14.37 12.17 14.84C12.17 15.41 12.52 15.73 12.87 15.73C13.19 15.73 13.4 15.43 13.51 15.09C13.37 15.2 13.16 15.23 12.96 15.23C12.73 15.23 12.36 15.08 12.36 14.74C12.36 14.42 12.36 13.26 12.36 13.07C12.36 13.03 12.31 13.03 12.14 13.03Z" fill="#D82332" fill-opacity="1.000000" fill-rule="evenodd"/>
		<path id="Fill 58" d="M14.16 10.78C13.72 10.73 13.31 10.83 13.31 11.44C13.31 12.08 13.31 12.86 13.31 13.06C13.31 13.33 13.29 13.3 13.51 13.35C13.92 13.46 13.97 13.47 14.47 13.58L14.47 11.94C14.04 11.89 13.86 11.61 13.86 11.29C13.86 11.04 13.97 10.81 14.16 10.78Z" fill="#D82332" fill-opacity="1.000000" fill-rule="evenodd"/>
		<path id="Fill 59" d="M15.73 13.03C15.71 13.05 15.7 13.07 15.7 13.13C15.7 13.18 15.7 14.37 15.7 14.84C15.7 15.41 15.36 15.73 15.01 15.73C14.69 15.73 14.48 15.43 14.37 15.09C14.51 15.2 14.72 15.23 14.91 15.23C15.15 15.23 15.52 15.08 15.52 14.74C15.52 14.42 15.52 13.26 15.52 13.07C15.52 13.03 15.56 13.03 15.73 13.03Z" fill="#D82332" fill-opacity="1.000000" fill-rule="evenodd"/>
		<path id="Mask" d="" fill="#D8D8D8" fill-opacity="0" fill-rule="nonzero"/>
		<path id="Mask" d="M17.33 14C17.33 12.15 15.84 10.66 14 10.66C12.15 10.66 10.66 12.15 10.66 14C10.66 15.84 12.15 17.33 14 17.33C15.84 17.33 17.33 15.84 17.33 14Z" stroke="#979797" stroke-opacity="0" stroke-width="0.000000"/>
		<mask id="mask17_4809" mask-type="alpha" maskUnits="userSpaceOnUse" x="10.666687" y="10.666626" width="6.666672" height="6.666672">
			<path id="Mask" d="M14 17.33C15.84 17.33 17.33 15.84 17.33 14C17.33 12.15 15.84 10.66 14 10.66C12.15 10.66 10.66 12.15 10.66 14C10.66 15.84 12.15 17.33 14 17.33Z" fill="#000000" fill-opacity="1.000000" fill-rule="evenodd"/>
			<path id="Mask" d="M17.33 14C17.33 12.15 15.84 10.66 14 10.66C12.15 10.66 10.66 12.15 10.66 14C10.66 15.84 12.15 17.33 14 17.33C15.84 17.33 17.33 15.84 17.33 14Z" stroke="#979797" stroke-opacity="0" stroke-width="0.000000"/>
		</mask>
		<g mask="url(#mask17_4809)">
			<path id="Oval 210" d="M14 22.66C15.84 22.66 17.33 21.17 17.33 19.33C17.33 17.49 15.84 16 14 16C12.15 16 10.66 17.49 10.66 19.33C10.66 21.17 12.15 22.66 14 22.66Z" fill="#064A89" fill-opacity="1.000000" fill-rule="evenodd"/>
			<path id="Oval 210" d="M17.33 19.33C17.33 17.49 15.84 16 14 16C12.15 16 10.66 17.49 10.66 19.33C10.66 21.17 12.15 22.66 14 22.66C15.84 22.66 17.33 21.17 17.33 19.33Z" stroke="#979797" stroke-opacity="0" stroke-width="0.000000"/>
		</g>
	</g>
</svg>
