<svg viewBox="0 0 28 28" xmlns="http://www.w3.org/2000/svg" xmlns:xlink="http://www.w3.org/1999/xlink" width="28.000000" height="28.000000" fill="none" customFrame="#000000">
	<defs>
		<filter id="pixso_custom_mask_type_alpha">
			<feColorMatrix type="matrix" values="0 0 0 0 1 0 0 0 0 1 0 0 0 0 1 0 0 0 1 0 " />
		</filter>
	</defs>
	<mask id="mask_412" width="28.000000" height="20.000000" x="0.000000" y="4.000000" maskUnits="userSpaceOnUse">
		<g filter="url(#pixso_custom_mask_type_alpha)">
			<rect id="Mask" width="28.000000" height="20.000000" x="0.000000" y="4.000000" rx="3.000000" fill="rgb(255,255,255)" />
			<rect id="Mask" width="27.500000" height="19.500000" x="0.250000" y="4.250000" rx="2.750000" stroke="rgb(245,245,245)" stroke-width="0.5" />
		</g>
	</mask>
	<rect id="Georgia" width="28.000000" height="28.000000" x="0.000000" y="0.000000" fill="rgb(255,255,255)" fill-opacity="0" />
	<rect id="Mask" width="28.000000" height="20.000000" x="0.000000" y="4.000000" rx="3.000000" fill="rgb(255,255,255)" />
	<rect id="Mask" width="27.500000" height="19.500000" x="0.250000" y="4.250000" rx="2.750000" stroke="rgb(214,216,221)" stroke-width="0.5" />
	<g mask="url(#mask_412)">
		<path id="Rectangle 2" d="M16 25.3333L12 25.3333L12 16L-1.33334 16L-1.33334 12L12 12L12 2.66663L16 2.66663L16 12L29.3333 12L29.3333 16L16 16L16 25.3333Z" fill="rgb(255,43,55)" fill-rule="evenodd" />
		<path id="Rectangle 2" d="M16 25.3333L12 25.3333L12 16L-1.33334 16L-1.33334 12L12 12L12 2.66663L16 2.66663L16 12L29.3333 12L29.3333 16L16 16L16 25.3333Z" fill-rule="evenodd" stroke="rgb(150.96,150.96,150.96)" stroke-opacity="0" stroke-width="0" />
		<path id="Rectangle 742" d="M21.6 8.4L20 8.66667L20 7.33333L21.6 7.6L21.3333 6L22.6667 6L22.4 7.6L24 7.33333L24 8.66667L22.4 8.4L22.6667 10L21.3333 10L21.6 8.4Z" fill="rgb(253,13,27)" fill-rule="evenodd" />
		<path id="Rectangle 742" d="M21.6 8.4L20 8.66667L20 7.33333L21.6 7.6L21.3333 6L22.6667 6L22.4 7.6L24 7.33333L24 8.66667L22.4 8.4L22.6667 10L21.3333 10L21.6 8.4Z" fill-rule="evenodd" stroke="rgb(150.96,150.96,150.96)" stroke-opacity="0" stroke-width="0" />
		<path id="Rectangle 742" d="M5.6 8.4L4 8.66667L4 7.33333L5.6 7.6L5.33333 6L6.66667 6L6.4 7.6L8 7.33333L8 8.66667L6.4 8.4L6.66667 10L5.33333 10L5.6 8.4Z" fill="rgb(253,13,27)" fill-rule="evenodd" />
		<path id="Rectangle 742" d="M5.6 8.4L4 8.66667L4 7.33333L5.6 7.6L5.33333 6L6.66667 6L6.4 7.6L8 7.33333L8 8.66667L6.4 8.4L6.66667 10L5.33333 10L5.6 8.4Z" fill-rule="evenodd" stroke="rgb(150.96,150.96,150.96)" stroke-opacity="0" stroke-width="0" />
		<path id="Rectangle 742" d="M5.6 20.4L4 20.6667L4 19.3333L5.6 19.6L5.33333 18L6.66667 18L6.4 19.6L8 19.3333L8 20.6667L6.4 20.4L6.66667 22L5.33333 22L5.6 20.4Z" fill="rgb(253,13,27)" fill-rule="evenodd" />
		<path id="Rectangle 742" d="M5.6 20.4L4 20.6667L4 19.3333L5.6 19.6L5.33333 18L6.66667 18L6.4 19.6L8 19.3333L8 20.6667L6.4 20.4L6.66667 22L5.33333 22L5.6 20.4Z" fill-rule="evenodd" stroke="rgb(150.96,150.96,150.96)" stroke-opacity="0" stroke-width="0" />
		<path id="Rectangle 742" d="M21.6 20.4L20 20.6667L20 19.3333L21.6 19.6L21.3333 18L22.6667 18L22.4 19.6L24 19.3333L24 20.6667L22.4 20.4L22.6667 22L21.3333 22L21.6 20.4Z" fill="rgb(253,13,27)" fill-rule="evenodd" />
		<path id="Rectangle 742" d="M21.6 20.4L20 20.6667L20 19.3333L21.6 19.6L21.3333 18L22.6667 18L22.4 19.6L24 19.3333L24 20.6667L22.4 20.4L22.6667 22L21.3333 22L21.6 20.4Z" fill-rule="evenodd" stroke="rgb(150.96,150.96,150.96)" stroke-opacity="0" stroke-width="0" />
	</g>
</svg>
