<svg width="31.000000" height="28.000000" viewBox="0 0 31 28" fill="none" xmlns="http://www.w3.org/2000/svg" xmlns:xlink="http://www.w3.org/1999/xlink">
	<desc>
			Created with Pixso.
	</desc>
	<defs/>
	<rect id="Georgia" width="28.000000" height="28.000000" transform="translate(1.000000 0.000000)" fill="#FFFFFF" fill-opacity="0"/>
	<rect id="Mask" x="1.000000" y="4.000000" rx="3.000000" width="28.000000" height="20.000000" fill="#FFFFFF" fill-opacity="1.000000"/>
	<rect id="Mask" x="1.250000" y="4.250000" rx="3.000000" width="27.500000" height="19.500000" stroke="#D6D8DD" stroke-opacity="1.000000" stroke-width="0.500000"/>
	<mask id="mask17_5560" mask-type="alpha" maskUnits="userSpaceOnUse" x="1.000000" y="4.000000" width="28.000000" height="20.000000">
		<rect id="Mask" x="1.000000" y="4.000000" rx="3.000000" width="28.000000" height="20.000000" fill="#FFFFFF" fill-opacity="1.000000"/>
		<rect id="Mask" x="1.250000" y="4.250000" rx="3.000000" width="27.500000" height="19.500000" stroke="#F5F5F5" stroke-opacity="1.000000" stroke-width="0.500000"/>
	</mask>
	<g mask="url(#mask17_5560)">
		<mask id="mask_17_5561" fill="white">
			<path id="Rectangle 2" d="M17 25.3333L13 25.3333L13 15.9999L-0.333344 15.9999L-0.333344 11.9999L13 11.9999L13 2.66663L17 2.66663L17 11.9999L30.3333 11.9999L30.3333 15.9999L17 15.9999L17 25.3333Z" clip-rule="evenodd" fill="" fill-opacity="1.000000" fill-rule="evenodd"/>
		</mask>
		<path id="Rectangle 2" d="M17 25.3333L13 25.3333L13 15.9999L-0.333344 15.9999L-0.333344 11.9999L13 11.9999L13 2.66663L17 2.66663L17 11.9999L30.3333 11.9999L30.3333 15.9999L17 15.9999L17 25.3333Z" clip-rule="evenodd" fill="#FF2B37" fill-opacity="1.000000" fill-rule="evenodd" mask="url(#mask_17_5561)"/>
		<path id="Rectangle 2" d="" fill="#979797" fill-opacity="0.000000" fill-rule="nonzero"/>
	</g>
	<g mask="url(#mask17_5560)">
		<mask id="mask_17_5564" fill="white">
			<path id="Rectangle 742" d="M22.6 7.59998L22.3333 6L23.6667 6L23.4 7.59998L25 7.33331L25 8.66669L23.4 8.40002L23.6667 10L22.3333 10L22.6 8.40002L21 8.66669L21 7.33331L22.6 7.59998Z" clip-rule="evenodd" fill="" fill-opacity="1.000000" fill-rule="evenodd"/>
		</mask>
		<path id="Rectangle 742" d="M22.6 7.59998L22.3333 6L23.6667 6L23.4 7.59998L25 7.33331L25 8.66669L23.4 8.40002L23.6667 10L22.3333 10L22.6 8.40002L21 8.66669L21 7.33331L22.6 7.59998Z" clip-rule="evenodd" fill="#FD0D1B" fill-opacity="1.000000" fill-rule="evenodd" mask="url(#mask_17_5564)"/>
		<path id="Rectangle 742" d="" fill="#979797" fill-opacity="0.000000" fill-rule="nonzero"/>
	</g>
	<g mask="url(#mask17_5560)">
		<mask id="mask_17_5567" fill="white">
			<path id="Rectangle 742" d="M6.60001 7.59998L6.33334 6L7.66666 6L7.39999 7.59998L9 7.33331L9 8.66669L7.39999 8.40002L7.66666 10L6.33334 10L6.60001 8.40002L5 8.66669L5 7.33331L6.60001 7.59998Z" clip-rule="evenodd" fill="" fill-opacity="1.000000" fill-rule="evenodd"/>
		</mask>
		<path id="Rectangle 742" d="M6.60001 7.59998L6.33334 6L7.66666 6L7.39999 7.59998L9 7.33331L9 8.66669L7.39999 8.40002L7.66666 10L6.33334 10L6.60001 8.40002L5 8.66669L5 7.33331L6.60001 7.59998Z" clip-rule="evenodd" fill="#FD0D1B" fill-opacity="1.000000" fill-rule="evenodd" mask="url(#mask_17_5567)"/>
		<path id="Rectangle 742" d="" fill="#979797" fill-opacity="0.000000" fill-rule="nonzero"/>
	</g>
	<g mask="url(#mask17_5560)">
		<mask id="mask_17_5570" fill="white">
			<path id="Rectangle 742" d="M6.60001 19.6L6.33334 18L7.66666 18L7.39999 19.6L9 19.3333L9 20.6667L7.39999 20.4L7.66666 22L6.33334 22L6.60001 20.4L5 20.6667L5 19.3333L6.60001 19.6Z" clip-rule="evenodd" fill="" fill-opacity="1.000000" fill-rule="evenodd"/>
		</mask>
		<path id="Rectangle 742" d="M6.60001 19.6L6.33334 18L7.66666 18L7.39999 19.6L9 19.3333L9 20.6667L7.39999 20.4L7.66666 22L6.33334 22L6.60001 20.4L5 20.6667L5 19.3333L6.60001 19.6Z" clip-rule="evenodd" fill="#FD0D1B" fill-opacity="1.000000" fill-rule="evenodd" mask="url(#mask_17_5570)"/>
		<path id="Rectangle 742" d="" fill="#979797" fill-opacity="0.000000" fill-rule="nonzero"/>
	</g>
	<g mask="url(#mask17_5560)">
		<mask id="mask_17_5573" fill="white">
			<path id="Rectangle 742" d="M22.6 19.6L22.3333 18L23.6667 18L23.4 19.6L25 19.3333L25 20.6667L23.4 20.4L23.6667 22L22.3333 22L22.6 20.4L21 20.6667L21 19.3333L22.6 19.6Z" clip-rule="evenodd" fill="" fill-opacity="1.000000" fill-rule="evenodd"/>
		</mask>
		<path id="Rectangle 742" d="M22.6 19.6L22.3333 18L23.6667 18L23.4 19.6L25 19.3333L25 20.6667L23.4 20.4L23.6667 22L22.3333 22L22.6 20.4L21 20.6667L21 19.3333L22.6 19.6Z" clip-rule="evenodd" fill="#FD0D1B" fill-opacity="1.000000" fill-rule="evenodd" mask="url(#mask_17_5573)"/>
		<path id="Rectangle 742" d="" fill="#979797" fill-opacity="0.000000" fill-rule="nonzero"/>
	</g>
</svg>
