<svg width="28.000000" height="28.000000" viewBox="0 0 28 28" fill="none" xmlns="http://www.w3.org/2000/svg" xmlns:xlink="http://www.w3.org/1999/xlink">
	<desc>
			Created with Pixso.
	</desc>
	<defs/>
	<rect id="Gibraltar" width="28.000000" height="28.000000" fill="#FFFFFF" fill-opacity="0"/>
	<rect id="Mask" y="4.000000" rx="3.000000" width="28.000000" height="20.000000" fill="#FFFFFF" fill-opacity="1.000000"/>
	<rect id="Mask" x="0.250000" y="4.250000" rx="3.000000" width="27.500000" height="19.500000" stroke="#D6D8DD" stroke-opacity="1.000000" stroke-width="0.500000"/>
	<mask id="mask17_5643" mask-type="alpha" maskUnits="userSpaceOnUse" x="0.000000" y="4.000000" width="28.000000" height="20.000000">
		<rect id="Mask" y="4.000000" rx="3.000000" width="28.000000" height="20.000000" fill="#FFFFFF" fill-opacity="1.000000"/>
		<rect id="Mask" x="0.250000" y="4.250000" rx="3.000000" width="27.500000" height="19.500000" stroke="#F5F5F5" stroke-opacity="1.000000" stroke-width="0.500000"/>
	</mask>
	<g mask="url(#mask17_5643)">
		<path id="Rectangle 2" d="M0 24L28 24L28 17.33L0 17.33L0 24Z" fill="#E34F4F" fill-opacity="1.000000" fill-rule="evenodd"/>
		<path id="Rectangle 2" d="M28 24L28 17.33L0 17.33L0 24L28 24Z" stroke="#979797" stroke-opacity="0" stroke-width="0.000000"/>
	</g>
	<g mask="url(#mask17_5643)">
		<path id="Rectangle 2" d="M9.33 17.33L17.33 17.33L17.33 12L9.33 12L9.33 17.33Z" fill="#E34F4F" fill-opacity="1.000000" fill-rule="evenodd"/>
		<path id="Rectangle 2" d="M17.33 17.33L17.33 12L9.33 12L9.33 17.33L17.33 17.33Z" stroke="#979797" stroke-opacity="0" stroke-width="0.000000"/>
	</g>
	<g mask="url(#mask17_5643)">
		<path id="Rectangle 2" d="M10.66 17.33L12 17.33L12 16L10.66 16L10.66 17.33Z" fill="#181A1A" fill-opacity="1.000000" fill-rule="evenodd"/>
		<path id="Rectangle 2" d="M12 17.33L12 16L10.66 16L10.66 17.33L12 17.33Z" stroke="#979797" stroke-opacity="0" stroke-width="0.000000"/>
	</g>
	<g mask="url(#mask17_5643)">
		<path id="Rectangle 2" d="M14.66 17.33L16 17.33L16 16L14.66 16L14.66 17.33Z" fill="#181A1A" fill-opacity="1.000000" fill-rule="evenodd"/>
		<path id="Rectangle 2" d="M16 17.33L16 16L14.66 16L14.66 17.33L16 17.33Z" stroke="#979797" stroke-opacity="0" stroke-width="0.000000"/>
	</g>
	<g mask="url(#mask17_5643)">
		<path id="Rectangle 2" d="M9.33 11.99L10.66 11.99L10.66 10.66L9.33 10.66L9.33 11.99Z" fill="#181A1A" fill-opacity="1.000000" fill-rule="evenodd"/>
		<path id="Rectangle 2" d="M10.66 11.99L10.66 10.66L9.33 10.66L9.33 11.99L10.66 11.99Z" stroke="#979797" stroke-opacity="0" stroke-width="0.000000"/>
	</g>
	<g mask="url(#mask17_5643)">
		<path id="Rectangle 2" d="M13.33 11.99L14.66 11.99L14.66 10.66L13.33 10.66L13.33 11.99Z" fill="#181A1A" fill-opacity="1.000000" fill-rule="evenodd"/>
		<path id="Rectangle 2" d="M14.66 11.99L14.66 10.66L13.33 10.66L13.33 11.99L14.66 11.99Z" stroke="#979797" stroke-opacity="0" stroke-width="0.000000"/>
	</g>
	<g mask="url(#mask17_5643)">
		<path id="Rectangle 2" d="M12 11.99L13.33 11.99L13.33 10.66L12 10.66L12 11.99Z" fill="#181A1A" fill-opacity="1.000000" fill-rule="evenodd"/>
		<path id="Rectangle 2" d="M13.33 11.99L13.33 10.66L12 10.66L12 11.99L13.33 11.99Z" stroke="#979797" stroke-opacity="0" stroke-width="0.000000"/>
	</g>
	<g mask="url(#mask17_5643)">
		<path id="Rectangle 2" d="M16 11.99L17.33 11.99L17.33 10.66L16 10.66L16 11.99Z" fill="#181A1A" fill-opacity="1.000000" fill-rule="evenodd"/>
		<path id="Rectangle 2" d="M17.33 11.99L17.33 10.66L16 10.66L16 11.99L17.33 11.99Z" stroke="#979797" stroke-opacity="0" stroke-width="0.000000"/>
	</g>
	<g mask="url(#mask17_5643)">
		<path id="Rectangle 2" d="M9.33 10.66L10.66 10.66L10.66 9.33L9.33 9.33L9.33 10.66Z" fill="#E34F4F" fill-opacity="1.000000" fill-rule="evenodd"/>
		<path id="Rectangle 2" d="M10.66 10.66L10.66 9.33L9.33 9.33L9.33 10.66L10.66 10.66Z" stroke="#979797" stroke-opacity="0" stroke-width="0.000000"/>
	</g>
	<g mask="url(#mask17_5643)">
		<path id="Rectangle 2" d="M13.33 10.66L14.66 10.66L14.66 9.33L13.33 9.33L13.33 10.66Z" fill="#E34F4F" fill-opacity="1.000000" fill-rule="evenodd"/>
		<path id="Rectangle 2" d="M14.66 10.66L14.66 9.33L13.33 9.33L13.33 10.66L14.66 10.66Z" stroke="#979797" stroke-opacity="0" stroke-width="0.000000"/>
	</g>
	<g mask="url(#mask17_5643)">
		<path id="Rectangle 2" d="M12 10.66L13.33 10.66L13.33 9.33L12 9.33L12 10.66Z" fill="#E34F4F" fill-opacity="1.000000" fill-rule="evenodd"/>
		<path id="Rectangle 2" d="M13.33 10.66L13.33 9.33L12 9.33L12 10.66L13.33 10.66Z" stroke="#979797" stroke-opacity="0" stroke-width="0.000000"/>
	</g>
	<g mask="url(#mask17_5643)">
		<path id="Rectangle 2" d="M16 10.66L17.33 10.66L17.33 9.33L16 9.33L16 10.66Z" fill="#E34F4F" fill-opacity="1.000000" fill-rule="evenodd"/>
		<path id="Rectangle 2" d="M17.33 10.66L17.33 9.33L16 9.33L16 10.66L17.33 10.66Z" stroke="#979797" stroke-opacity="0" stroke-width="0.000000"/>
	</g>
</svg>
