<svg viewBox="0 0 28 28" xmlns="http://www.w3.org/2000/svg" xmlns:xlink="http://www.w3.org/1999/xlink" width="28.000000" height="28.000000" fill="none" customFrame="#000000">
	<defs>
		<filter id="pixso_custom_mask_type_alpha">
			<feColorMatrix type="matrix" values="0 0 0 0 1 0 0 0 0 1 0 0 0 0 1 0 0 0 1 0 " />
		</filter>
	</defs>
	<mask id="mask_305" width="28.000000" height="20.000000" x="0.000000" y="4.000000" maskUnits="userSpaceOnUse">
		<g filter="url(#pixso_custom_mask_type_alpha)">
			<rect id="Rectangle 2309" width="28.000000" height="20.000000" x="0.000000" y="4.000000" rx="3.000000" fill="rgb(196,196,196)" />
		</g>
	</mask>
	<rect id="Greenland" width="28.000000" height="28.000000" x="0.000000" y="0.000000" fill="rgb(255,255,255)" fill-opacity="0" />
	<rect id="Rectangle 2308" width="28.000000" height="20.000000" x="0.000000" y="4.000000" rx="3.000000" fill="rgb(255,255,255)" />
	<rect id="Rectangle 2308" width="27.500000" height="19.500000" x="0.250000" y="4.250000" rx="2.750000" stroke="rgb(214,216,221)" stroke-width="0.5" />
	<g mask="url(#mask_305)">
		<path id="Vector" d="M12 7C15.866 7 19 10.134 19 14L5 14C5 10.134 8.13403 7 12 7ZM5 14L0 14L0 24L28 24L28 14L19 14C19 17.866 15.866 21 12 21C8.13401 21 5 17.866 5 14Z" fill="rgb(182,41,54)" fill-rule="evenodd" />
	</g>
</svg>
