<svg viewBox="0 0 28 28" xmlns="http://www.w3.org/2000/svg" xmlns:xlink="http://www.w3.org/1999/xlink" width="28.000000" height="28.000000" fill="none" customFrame="#000000">
	<defs>
		<filter id="pixso_custom_mask_type_alpha">
			<feColorMatrix type="matrix" values="0 0 0 0 1 0 0 0 0 1 0 0 0 0 1 0 0 0 1 0 " />
		</filter>
	</defs>
	<mask id="mask_410" width="28.000000" height="20.000000" x="0.000000" y="4.000000" maskUnits="userSpaceOnUse">
		<g filter="url(#pixso_custom_mask_type_alpha)">
			<rect id="Mask" width="28.000000" height="20.000000" x="0.000000" y="4.000000" rx="3.000000" fill="rgb(255,255,255)" />
			<rect id="Mask" width="27.500000" height="19.500000" x="0.250000" y="4.250000" rx="2.750000" stroke="rgb(245,245,245)" stroke-width="0.5" />
		</g>
	</mask>
	<rect id="Greece" width="28.000000" height="28.000000" x="0.000000" y="0.000000" fill="rgb(255,255,255)" fill-opacity="0" />
	<rect id="Mask" width="28.000000" height="20.000000" x="0.000000" y="4.000000" rx="3.000000" fill="rgb(255,255,255)" />
	<rect id="Mask" width="27.500000" height="19.500000" x="0.250000" y="4.250000" rx="2.750000" stroke="rgb(214,216,221)" stroke-width="0.5" />
	<g mask="url(#mask_410)">
		<path id="Rectangle 537" d="M5.33333 9.33333L5.33333 4L0 4L0 9.33333L5.33333 9.33333ZM13.3333 9.33333L13.3333 6.66667L28 6.66667L28 4L8 4L8 9.33333L13.3333 9.33333ZM13.3333 12L28 12L28 9.33333L13.3333 9.33333L13.3333 12ZM13.3333 12L8 12L8 17.3333L28 17.3333L28 14.6667L13.3333 14.6667L13.3333 12ZM5.33333 17.3333L5.33333 12L0 12L0 17.3333L5.33333 17.3333ZM28 22.6667L28 20L0 20L0 22.6667L28 22.6667Z" fill="rgb(28,109,193)" fill-rule="evenodd" />
		<path id="Rectangle 537" d="M5.33333 9.33333L5.33333 4L0 4L0 9.33333L5.33333 9.33333ZM13.3333 9.33333L13.3333 6.66667L28 6.66667L28 4L8 4L8 9.33333L13.3333 9.33333ZM13.3333 12L28 12L28 9.33333L13.3333 9.33333L13.3333 12ZM13.3333 12L8 12L8 17.3333L28 17.3333L28 14.6667L13.3333 14.6667L13.3333 12ZM5.33333 17.3333L5.33333 12L0 12L0 17.3333L5.33333 17.3333ZM28 22.6667L28 20L0 20L0 22.6667L28 22.6667Z" fill-rule="evenodd" stroke="rgb(150.96,150.96,150.96)" stroke-opacity="0" stroke-width="0" />
	</g>
</svg>
