<svg width="28.000000" height="28.000000" viewBox="0 0 28 28" fill="none" xmlns="http://www.w3.org/2000/svg" xmlns:xlink="http://www.w3.org/1999/xlink">
	<desc>
			Created with Pixso.
	</desc>
	<defs/>
	<rect id="Greenland" width="28.000000" height="28.000000" fill="#FFFFFF" fill-opacity="0"/>
	<rect id="Rectangle 2308" y="4.000000" rx="3.000000" width="28.000000" height="20.000000" fill="#FFFFFF" fill-opacity="1.000000"/>
	<rect id="Rectangle 2308" x="0.250000" y="4.250000" rx="3.000000" width="27.500000" height="19.500000" stroke="#D6D8DD" stroke-opacity="1.000000" stroke-width="0.500000"/>
	<mask id="mask107628_1527" mask-type="alpha" maskUnits="userSpaceOnUse" x="0.000000" y="4.000000" width="28.000000" height="20.000000">
		<rect id="Rectangle 2309" y="4.000000" rx="3.000000" width="28.000000" height="20.000000" fill="#C4C4C4" fill-opacity="1.000000"/>
	</mask>
	<g mask="url(#mask107628_1527)">
		<path id="Vector" d="M12 7C15.86 7 19 10.13 19 14L5 14C5 10.13 8.13 7 12 7ZM5 14C5 17.86 8.13 21 12 21C15.86 21 19 17.86 19 14L28 14L28 24L0 24L0 14L5 14Z" fill="#B62936" fill-opacity="1.000000" fill-rule="evenodd"/>
	</g>
</svg>
