<svg width="28.000000" height="28.000000" viewBox="0 0 28 28" fill="none" xmlns="http://www.w3.org/2000/svg" xmlns:xlink="http://www.w3.org/1999/xlink">
	<desc>
			Created with Pixso.
	</desc>
	<defs>
		<linearGradient id="paint_linear_17_5621_0" x1="10.666687" y1="10.666626" x2="10.666687" y2="17.333292" gradientUnits="userSpaceOnUse">
			<stop stop-color="#E21C30"/>
			<stop offset="1.000000" stop-color="#CE1225"/>
		</linearGradient>
	</defs>
	<rect id="Grenada" width="28.000000" height="28.000000" fill="#FFFFFF" fill-opacity="0"/>
	<rect id="Mask" y="4.000000" rx="3.000000" width="28.000000" height="20.000000" fill="#FFFFFF" fill-opacity="1.000000"/>
	<rect id="Mask" y="4.000000" rx="3.000000" width="28.000000" height="20.000000" stroke="#979797" stroke-opacity="0" stroke-width="0.000000"/>
	<mask id="mask17_5612" mask-type="alpha" maskUnits="userSpaceOnUse" x="0.000000" y="4.000000" width="28.000000" height="20.000000">
		<rect id="Mask" y="4.000000" rx="3.000000" width="28.000000" height="20.000000" fill="#FFFFFF" fill-opacity="1.000000"/>
		<rect id="Mask" y="4.000000" rx="3.000000" width="28.000000" height="20.000000" stroke="#979797" stroke-opacity="0" stroke-width="0.000000"/>
	</mask>
	<g mask="url(#mask17_5612)">
		<rect id="Mask" y="4.000000" width="28.000000" height="20.000000" fill="#E42235" fill-opacity="1.000000"/>
		<rect id="Mask" y="4.000000" width="28.000000" height="20.000000" stroke="#979797" stroke-opacity="0" stroke-width="0.000000"/>
	</g>
	<g mask="url(#mask17_5612)">
		<rect id="Mask" x="2.666687" y="6.666626" width="22.666666" height="14.666667" fill="#079B77" fill-opacity="1.000000"/>
		<rect id="Mask" x="2.666687" y="6.666626" width="22.666666" height="14.666667" stroke="#979797" stroke-opacity="0" stroke-width="0.000000"/>
		<mask id="mask17_5616" mask-type="alpha" maskUnits="userSpaceOnUse" x="2.666687" y="6.666626" width="22.666672" height="14.666687">
			<rect id="Mask" x="2.666687" y="6.666626" width="22.666666" height="14.666667" fill="#079B77" fill-opacity="1.000000"/>
			<rect id="Mask" x="2.666687" y="6.666626" width="22.666666" height="14.666667" stroke="#979797" stroke-opacity="0" stroke-width="0.000000"/>
		</mask>
		<g mask="url(#mask17_5616)">
			<path id="Oval 180" d="M4.39 14.13C4.77 14.73 5.31 15.13 5.81 15.23C6.09 15.29 5.58 14.01 5.8 13.88C5.99 13.76 6.9 14.82 6.98 14.6C7.17 14.09 7.06 13.37 6.65 12.71C6.06 11.78 6.04 12.4 4.46 11.72C4.62 12.68 3.8 13.19 4.39 14.13Z" fill="#FFD938" fill-opacity="1.000000" fill-rule="evenodd"/>
			<path id="Oval 180" d="M5.81 15.23C6.09 15.29 5.58 14.01 5.8 13.88C5.99 13.76 6.9 14.82 6.98 14.6C7.17 14.09 7.06 13.37 6.65 12.71C6.06 11.78 6.04 12.4 4.46 11.72C4.62 12.68 3.8 13.19 4.39 14.13C4.77 14.73 5.31 15.13 5.81 15.23Z" stroke="#979797" stroke-opacity="0" stroke-width="0.000000"/>
		</g>
		<g mask="url(#mask17_5616)">
			<mask id="mask_17_5618" fill="white">
				<path id="Rectangle 1129" d="M14 13.9999L25.3334 6.66663L2.66669 6.66663L14 13.9999ZM14 13.9999L2.66669 21.3333L25.3334 21.3333L14 13.9999Z" clip-rule="evenodd" fill="" fill-opacity="1.000000" fill-rule="evenodd"/>
			</mask>
			<path id="Rectangle 1129" d="M14 13.9999L25.3334 6.66663L2.66669 6.66663L14 13.9999ZM14 13.9999L2.66669 21.3333L25.3334 21.3333L14 13.9999Z" clip-rule="evenodd" fill="#FFD93B" fill-opacity="1.000000" fill-rule="evenodd" mask="url(#mask_17_5618)"/>
			<path id="Rectangle 1129" d="" fill="#979797" fill-opacity="0.000000" fill-rule="nonzero"/>
		</g>
		<g mask="url(#mask17_5616)">
			<path id="Oval 179" d="M14 17.33C15.84 17.33 17.33 15.84 17.33 13.99C17.33 12.15 15.84 10.66 14 10.66C12.15 10.66 10.66 12.15 10.66 13.99C10.66 15.84 12.15 17.33 14 17.33Z" fill="url(#paint_linear_17_5621_0)" fill-opacity="1.000000" fill-rule="evenodd"/>
			<path id="Oval 179" d="M17.33 13.99C17.33 12.15 15.84 10.66 14 10.66C12.15 10.66 10.66 12.15 10.66 13.99C10.66 15.84 12.15 17.33 14 17.33C15.84 17.33 17.33 15.84 17.33 13.99Z" stroke="#979797" stroke-opacity="0" stroke-width="0.000000"/>
		</g>
		<g mask="url(#mask17_5616)">
			<path id="Star 96" d="M14 15.02L12.43 16.15L13.02 14.31L11.46 13.17L13.39 13.16L14 11.33L14.6 13.16L16.53 13.17L14.97 14.31L15.56 16.15L14 15.02Z" fill="#FFD938" fill-opacity="1.000000" fill-rule="evenodd"/>
			<path id="Star 96" d="M12.43 16.15L13.02 14.31L11.46 13.17L13.39 13.16L14 11.33L14.6 13.16L16.53 13.17L14.97 14.31L15.56 16.15L14 15.02L12.43 16.15Z" stroke="#979797" stroke-opacity="0" stroke-width="0.000000"/>
		</g>
	</g>
</svg>
