<svg viewBox="0 0 28 28" xmlns="http://www.w3.org/2000/svg" xmlns:xlink="http://www.w3.org/1999/xlink" width="28.000000" height="28.000000" fill="none">
	<rect id="Guadeloupe" width="28.000000" height="28.000000" x="0.000000" y="0.000000" fill="rgb(255,255,255)" fill-opacity="0" transform="matrix(-1,-6.12324e-17,6.12324e-17,-1,28,28)" />
	<path id="Vector" d="M23.3333 0L0 0L0 23.3333L23.3333 23.3333L23.3333 0Z" opacity="0" fill="rgb(96,96,96)" fill-rule="evenodd" transform="matrix(-1,-6.12324e-17,6.12324e-17,-1,25.6666,25.6667)" />
	<rect id="Mask Copy" width="28.000000" height="20.000000" x="0.000000" y="4.000000" rx="3.000000" fill="rgb(255,255,255)" />
	<rect id="Mask Copy" width="27.500000" height="19.500000" x="0.250000" y="4.250000" rx="2.750000" stroke="rgb(214,216,221)" stroke-width="0.5" />
	<path id="Subtract" d="M0 13.3184L0 0L14 0L14 2.10808C13.9244 2.15493 13.8476 2.20145 13.7696 2.24758C12.8229 2.80026 11.6527 3.10056 9.76956 3.36621L8.80151 3.50277L8.45632 4.41744C7.247 7.62181 6.10762 9.50149 4.61218 10.754C3.15942 11.9707 1.43105 12.7907 0 13.3184Z" fill="rgb(0,166,80)" fill-rule="evenodd" transform="matrix(-1,-6.12324e-17,6.12324e-17,-1,21,20)" />
	<path id="Subtract" d="M1.07031 7.51068C3.02209 5.87599 4.34601 3.64789 5.5308 0.712612C6.53157 0.542912 7.46371 0.327618 8.33925 0L8.33925 8.22681L0 8.22681C0.340782 8.02195 0.680798 7.7976 1.01757 7.55192L1.04463 7.53218L1.07031 7.51068Z" fill="rgb(18,123,202)" fill-rule="evenodd" transform="matrix(-1,-6.12324e-17,6.12324e-17,-1,15.3392,14.2268)" />
	<path id="Subtract" d="M0 5.65932C0.8104 6.44667 1.91631 6.93148 3.13545 6.93148C5.62074 6.93148 7.63545 4.91676 7.63545 2.43148C7.63545 1.53577 7.37376 0.701178 6.92265 0C6.80871 0.0571672 6.6904 0.111788 6.56755 0.163573C4.98576 0.830342 3.53289 0.719801 1.28382 0.490335C1.42573 2.33029 0.860257 4.14629 0 5.65932Z" fill="rgb(255,242,0)" fill-rule="evenodd" transform="matrix(-1,-6.12324e-17,6.12324e-17,-1,12.6354,15.9315)" />
	<path id="Vector 1333 (Stroke)" d="M22.8723 4.87405C22.9894 4.87186 23.0036 5.02628 22.8899 5.05438C21.4559 5.40882 18.2469 6.38456 15.7457 8.47939C14.053 9.89708 12.8383 11.9697 11.6081 15.2295L11.4721 15.5898L11.0908 15.6436C9.18158 15.9129 7.84764 16.2335 6.72381 16.8902C4.63379 18.1253 3.35918 19.6224 2.87915 20.2523C2.81709 20.3337 2.69438 20.2851 2.71386 20.1846C2.87664 19.3448 3.40522 16.8902 6.06788 15.7678C7.64967 15.1011 9.10254 15.2116 11.3516 15.4411C11.1025 12.2116 13.0327 9.05596 14.911 7.48277C17.8105 5.05438 21.3862 4.90182 22.8723 4.87405Z" fill="rgb(46,49,146)" fill-rule="evenodd" />
	<rect id="Rectangle 35921" width="14.040649" height="1.709279" x="6.959290" y="20.945496" fill="rgb(255,242,0)" />
</svg>
