<svg width="28.000000" height="28.000000" viewBox="0 0 28 28" fill="none" xmlns="http://www.w3.org/2000/svg" xmlns:xlink="http://www.w3.org/1999/xlink">
	<desc>
			Created with Pixso.
	</desc>
	<defs>
		<clipPath id="clip107709_1124">
			<rect id="Guadeloupe" width="28.000000" height="28.000000" transform="translate(28.000000 28.000000) rotate(180.000000)" fill="white" fill-opacity="0"/>
		</clipPath>
	</defs>
	<rect id="Guadeloupe" width="28.000000" height="28.000000" transform="translate(28.000000 28.000000) rotate(180.000000)" fill="#FFFFFF" fill-opacity="0"/>
	<g>
		<rect id="Mask Copy" y="4.000000" rx="3.000000" width="28.000000" height="20.000000" fill="#FFFFFF" fill-opacity="1.000000"/>
		<rect id="Mask Copy" x="0.250000" y="4.250000" rx="3.000000" width="27.500000" height="19.500000" stroke="#D6D8DD" stroke-opacity="1.000000" stroke-width="0.500000"/>
		<path id="Subtract" d="M21 6.68L21 20L7 20L7 17.89C7.07 17.84 7.15 17.79 7.23 17.75C8.17 17.19 9.34 16.89 11.23 16.63L12.19 16.49L12.54 15.58C13.75 12.37 14.89 10.49 16.38 9.24C17.84 8.02 19.56 7.2 21 6.68Z" fill="#00A650" fill-opacity="1.000000" fill-rule="evenodd"/>
		<path id="Subtract" d="M14.26 6.71C12.31 8.35 10.99 10.57 9.8 13.51C8.8 13.68 7.87 13.89 6.99 14.22L6.99 6L15.33 6C14.99 6.2 14.65 6.42 14.32 6.67L14.29 6.69L14.26 6.71Z" fill="#127BCA" fill-opacity="1.000000" fill-rule="evenodd"/>
		<path id="Subtract" d="M12.6354 10.2722C11.825 9.4848 10.7191 9 9.49998 9C7.01469 9 4.99998 11.0147 4.99998 13.5C4.99998 14.3957 5.26169 15.2303 5.71278 15.9315C5.82672 15.8743 5.94504 15.8196 6.06789 15.7679C7.64967 15.1011 9.10254 15.2117 11.3516 15.4411C11.2097 13.6011 11.7752 11.7852 12.6354 10.2722Z" clip-rule="evenodd" fill="#FFF200" fill-opacity="1.000000" fill-rule="evenodd"/>
		<path id="Vector 1333 (Stroke)" d="M22.87 4.87C22.98 4.87 23 5.02 22.88 5.05C21.45 5.4 18.24 6.38 15.74 8.47C14.05 9.89 12.83 11.96 11.6 15.22L11.47 15.58L11.09 15.64C9.18 15.91 7.84 16.23 6.72 16.89C4.63 18.12 3.35 19.62 2.87 20.25C2.81 20.33 2.69 20.28 2.71 20.18C2.87 19.34 3.4 16.89 6.06 15.76C7.64 15.1 9.1 15.21 11.35 15.44C11.1 12.21 13.03 9.05 14.91 7.48C17.81 5.05 21.38 4.9 22.87 4.87Z" fill="#2E3192" fill-opacity="1.000000" fill-rule="evenodd"/>
		<rect id="Rectangle 35921" x="6.959290" y="20.945496" width="14.040649" height="1.709279" fill="#FFF200" fill-opacity="1.000000"/>
	</g>
</svg>
