<svg width="28.000000" height="28.000000" viewBox="0 0 28 28" fill="none" xmlns="http://www.w3.org/2000/svg" xmlns:xlink="http://www.w3.org/1999/xlink">
	<desc>
			Created with Pixso.
	</desc>
	<defs/>
	<rect id="Guam" width="28.000000" height="28.000000" fill="#FFFFFF" fill-opacity="0"/>
	<mask id="mask107628_1511" mask-type="alpha" maskUnits="userSpaceOnUse" x="0.000000" y="4.000000" width="28.000000" height="20.000000">
		<path id="path40" d="M3 4L25 4C26.65 4 28 5.34 28 7L28 21C28 22.65 26.65 24 25 24L3 24C1.34 24 0 22.65 0 21L0 7C0 5.34 1.34 4 3 4Z" fill="#C81A38" fill-opacity="1.000000" fill-rule="evenodd"/>
	</mask>
	<g mask="url(#mask107628_1511)">
		<path id="path40" d="M0 4L28 4L28 24L0 24L0 4Z" fill="#C81A38" fill-opacity="1.000000" fill-rule="evenodd"/>
	</g>
	<g mask="url(#mask107628_1511)">
		<path id="path44" d="M3 23L25 23C26.1 23 27 22.1 27 21L27 7C27 5.89 26.1 5 25 5L3 5C1.89 5 1 5.89 1 7L1 21C1 22.1 1.89 23 3 23Z" fill="#273474" fill-opacity="1.000000" fill-rule="evenodd"/>
	</g>
	<g mask="url(#mask107628_1511)">
		<path id="path48" d="M14.45 8.31C14.45 8.31 11.19 10.91 11.19 13.61C11.19 16.31 14.45 18.98 14.45 18.98C14.45 18.98 17.7 16.51 17.7 13.61C17.7 10.71 14.45 8.31 14.45 8.31Z" fill="#9FE0F9" fill-opacity="1.000000" fill-rule="evenodd"/>
		<path id="path52" d="M11.55 15.26C12.4 17.3 14.45 18.98 14.45 18.98C14.45 18.98 16.55 17.39 17.37 15.26L11.55 15.26Z" fill="#4884CD" fill-opacity="1.000000" fill-rule="evenodd"/>
		<path id="path56" d="M17.38 14.67C16.88 15.03 14.04 14.86 14.04 14.86L13.89 15.26L17.26 15.27C17.28 15.22 17.31 15.15 17.32 15.09L17.38 14.67Z" fill="#948120" fill-opacity="1.000000" fill-rule="evenodd"/>
		<path id="path60" d="M13.33 17.63C13.46 17.54 13.55 17.47 13.67 17.47C13.91 17.46 13.99 17.31 14.27 17.31C14.59 17.37 15.02 17.27 15.27 17.22C15.72 17.11 15.5 16.8 15.23 16.69C15.02 16.59 14.61 16.68 14.35 16.59C14.16 16.52 14.32 16.4 14.42 16.37C14.53 16.35 14.64 16.39 14.77 16.41C15 16.43 15.29 16.41 15.5 16.37C15.92 16.31 15.9 16.19 16.1 16.18C16.25 16.18 16.36 16.13 16.46 16.06C16.58 15.98 16.71 15.82 16.85 15.83L16.93 15.83C16.05 17.54 14.45 18.67 14.45 18.67C14.45 18.67 13.94 18.28 13.33 17.63ZM12.31 16.34C12.45 16.35 12.6 16.38 12.73 16.44C12.96 16.56 13.09 16.56 13.34 16.57C13.59 16.57 13.8 16.76 14.08 16.77C14.59 16.78 14.81 17.04 14.41 17.04C14.22 17.04 13.81 16.91 13.62 16.94C13.32 16.97 13.15 16.99 12.93 17.17C12.72 16.92 12.51 16.64 12.31 16.34Z" fill="#FADE35" fill-opacity="1.000000" fill-rule="evenodd"/>
		<path id="path64" d="M15.37 16.37C15.42 16.58 15.48 16.65 15.71 16.71C15.93 16.76 16.26 16.55 16.06 16.34C15.86 16.15 15.65 16.1 15.47 15.92C15.19 15.65 14.81 15.08 14.63 14.55C14.44 13.96 14.47 12.31 14.48 11.48C14.48 11.47 14.5 11.46 14.5 11.46C14.52 11.44 14.53 11.46 14.51 11.34C14.5 11.31 14.48 11.28 14.48 11.24C14.48 11.19 14.28 11.31 14.23 11.41C14.22 11.43 14.27 11.5 14.27 11.51C14.28 12.31 14.19 13.89 14.4 14.61C14.54 15.05 14.78 15.4 14.99 15.71C15.12 15.92 15.31 16.14 15.37 16.37Z" fill="#87391B" fill-opacity="1.000000" fill-rule="evenodd"/>
		<path id="path72" d="M15.61 13.62L15.61 13.25L15.69 13.25L15.76 13.25L15.86 13.55C15.91 13.71 15.96 13.85 15.96 13.86C15.96 13.87 15.97 13.88 15.97 13.88C15.97 13.88 15.98 13.85 15.99 13.8C16.01 13.76 16.06 13.62 16.1 13.49L16.19 13.25L16.25 13.25L16.31 13.25L16.31 13.62L16.31 13.99L16.27 13.99L16.22 13.99L16.22 13.68C16.22 13.51 16.22 13.37 16.22 13.37C16.22 13.37 16.18 13.5 16.12 13.66C16.07 13.81 16.02 13.95 16.01 13.96L16.01 13.99L15.92 13.99L15.81 13.68C15.76 13.5 15.71 13.36 15.71 13.36C15.71 13.36 15.71 13.5 15.71 13.67L15.7 13.99L15.66 13.99L15.61 13.99L15.61 13.62ZM15.05 13.68C15.05 13.68 15.03 13.62 15.01 13.56C14.98 13.49 14.95 13.41 14.94 13.38C14.93 13.35 14.92 13.33 14.92 13.33C14.92 13.33 14.92 13.34 14.92 13.36C14.9 13.41 14.89 13.44 14.85 13.56C14.82 13.63 14.8 13.68 14.8 13.68C14.8 13.69 14.81 13.69 14.93 13.69C15.05 13.69 15.05 13.69 15.05 13.68ZM14.6 13.98C14.6 13.97 14.66 13.8 14.74 13.61L14.87 13.25L14.93 13.25L14.98 13.25L15.13 13.62C15.21 13.82 15.28 13.98 15.28 13.98C15.28 13.99 15.27 13.99 15.22 13.99L15.17 13.99L15.16 13.96C15.15 13.95 15.14 13.9 15.12 13.85L15.08 13.77L14.93 13.77L14.77 13.76L14.73 13.88L14.69 13.99L14.64 13.99L14.59 13.99L14.6 13.98ZM13.79 14C13.72 13.99 13.66 13.97 13.62 13.93C13.59 13.89 13.57 13.85 13.56 13.79C13.55 13.74 13.55 13.72 13.55 13.48L13.55 13.25L13.6 13.25L13.65 13.25L13.65 13.5C13.65 13.76 13.65 13.76 13.66 13.8C13.67 13.85 13.71 13.89 13.76 13.9C13.8 13.92 13.86 13.92 13.91 13.9C13.97 13.89 14 13.86 14.02 13.8C14.03 13.75 14.03 13.76 14.03 13.49L14.03 13.25L14.08 13.25L14.13 13.25L14.13 13.48C14.13 13.6 14.13 13.71 14.12 13.73C14.12 13.84 14.09 13.91 14.02 13.95C13.99 13.97 13.95 13.99 13.91 13.99C13.89 14 13.81 14 13.79 14L13.79 14ZM12.92 13.99C12.83 13.98 12.74 13.93 12.69 13.87C12.64 13.82 12.61 13.75 12.6 13.67C12.6 13.64 12.6 13.58 12.6 13.56C12.61 13.47 12.65 13.39 12.7 13.34C12.78 13.24 12.95 13.21 13.09 13.25C13.18 13.28 13.23 13.33 13.26 13.42C13.27 13.44 13.27 13.45 13.27 13.45C13.27 13.45 13.19 13.47 13.19 13.47C13.18 13.47 13.18 13.47 13.18 13.45C13.16 13.41 13.14 13.38 13.12 13.36C13.07 13.32 12.99 13.31 12.91 13.32C12.86 13.33 12.8 13.35 12.77 13.39C12.73 13.44 12.7 13.51 12.7 13.6C12.7 13.68 12.71 13.75 12.75 13.8C12.81 13.89 12.94 13.93 13.06 13.89C13.1 13.88 13.14 13.86 13.17 13.84L13.19 13.83L13.19 13.76L13.19 13.69L13.08 13.69L12.97 13.69L12.97 13.65L12.97 13.61L13.12 13.61L13.28 13.61L13.28 13.74L13.28 13.88L13.26 13.89C13.19 13.94 13.12 13.97 13.05 13.99C13.02 13.99 12.95 13.99 12.92 13.99L12.92 13.99Z" fill="#BE1D2A" fill-opacity="1.000000" fill-rule="nonzero"/>
		<path id="path76" d="M12.42 11.24C12.44 11.26 12.43 11.34 12.43 11.34C12.45 11.35 12.63 11.18 12.63 11.19C12.63 11.23 12.63 11.3 12.63 11.3C12.63 11.3 12.83 11.11 12.83 11.13C12.84 11.16 12.83 11.26 12.83 11.26C12.83 11.26 12.96 11.12 12.98 11.1C13 11.08 13 11.12 13 11.18C13 11.2 13.21 11.03 13.22 11.03C13.25 11.02 13.25 11.11 13.25 11.14C13.25 11.15 13.44 11.03 13.44 11.04L13.45 11.14C13.5 11.13 13.63 11.09 13.71 11.1C13.73 11.1 13.73 11.11 13.71 11.12C13.34 11.27 13.05 11.5 12.89 11.82C12.83 11.92 12.81 12.02 12.83 12.04C12.83 12.04 12.9 11.9 12.97 11.87C12.98 11.87 12.99 11.97 13 11.96C13 11.96 13.05 11.82 13.1 11.76C13.11 11.75 13.13 11.84 13.14 11.83C13.14 11.83 13.17 11.73 13.22 11.66C13.23 11.65 13.25 11.75 13.26 11.75C13.32 11.69 13.37 11.55 13.4 11.54C13.41 11.53 13.41 11.66 13.43 11.65C13.43 11.65 13.52 11.47 13.57 11.44C13.6 11.42 13.6 11.54 13.6 11.54C13.66 11.47 13.74 11.37 13.77 11.32C13.79 11.3 13.78 11.46 13.79 11.47C13.81 11.47 13.96 11.34 13.97 11.34C13.98 11.34 13.99 11.38 13.97 11.41C13.96 11.41 13.79 11.61 13.79 11.61C13.83 11.62 13.84 11.61 13.86 11.61C13.93 11.63 13.73 11.75 13.73 11.77C13.73 11.77 13.83 11.77 13.8 11.79C13.77 11.8 13.64 11.97 13.64 11.96C13.64 11.96 13.71 11.97 13.71 11.98C13.71 12.02 13.6 12.2 13.6 12.2C13.59 12.19 13.66 12.19 13.67 12.21C13.68 12.24 13.56 12.38 13.58 12.41C13.58 12.41 13.65 12.41 13.68 12.42C13.7 12.42 13.74 12.68 13.73 12.67C13.73 12.67 13.77 12.43 13.8 12.35C13.82 12.31 13.87 12.42 13.88 12.41C13.88 12.41 13.87 12.25 13.88 12.18C13.88 12.16 13.92 12.2 13.92 12.18C13.92 12.14 13.91 12.09 13.92 12.05C13.93 12.02 13.96 12.11 13.98 12.08C13.98 12.08 13.93 11.92 13.95 11.88C13.96 11.85 13.99 11.95 14.01 11.95C14.01 11.95 14 11.83 14.02 11.8L14.07 11.86C14.09 11.84 14.08 11.65 14.1 11.63C14.11 11.62 14.16 11.71 14.17 11.69C14.18 11.68 14.15 11.54 14.16 11.53C14.17 11.51 14.23 11.57 14.23 11.56C14.26 11.54 14.26 11.47 14.27 11.45C14.3 11.38 14.47 11.37 14.49 11.42C14.5 11.44 14.49 11.47 14.49 11.51C14.49 11.51 14.58 11.52 14.58 11.51C14.58 11.51 14.57 11.59 14.57 11.67C14.57 11.69 14.66 11.67 14.66 11.68C14.67 11.76 14.65 11.77 14.65 11.77C14.65 11.78 14.71 11.76 14.71 11.77C14.71 11.81 14.7 11.86 14.67 11.91C14.67 11.91 14.76 11.9 14.76 11.91C14.77 11.97 14.77 12.02 14.76 12.1C14.76 12.11 14.84 12.04 14.84 12.05C14.86 12.12 14.84 12.2 14.85 12.28C14.85 12.29 14.9 12.22 14.91 12.24C14.91 12.26 14.9 12.41 14.9 12.42C14.9 12.42 14.99 12.41 15 12.42C15.07 12.49 15.06 12.6 15.06 12.6C15.08 12.59 15.07 12.45 15.05 12.32C15.05 12.31 15.12 12.31 15.12 12.3C15.12 12.3 15.04 12.25 15.02 12.12C15.01 12.09 15.09 12.1 15.09 12.1C15.07 12.05 15.03 12.04 15 11.99C14.98 11.97 15.08 11.96 15.08 11.96C15.08 11.91 15 11.89 14.96 11.84C14.94 11.81 15.04 11.81 15.04 11.81C15.01 11.77 14.91 11.75 14.86 11.7C14.83 11.67 14.96 11.64 14.96 11.63C14.95 11.59 14.83 11.57 14.77 11.52C14.75 11.51 14.84 11.47 14.84 11.47C14.84 11.46 14.64 11.33 14.74 11.34C14.78 11.34 14.87 11.4 14.87 11.39C14.87 11.39 14.87 11.32 14.88 11.31C14.91 11.28 15.02 11.45 15.06 11.45C15.06 11.45 15.08 11.32 15.09 11.32C15.13 11.31 15.18 11.5 15.22 11.5C15.23 11.5 15.23 11.39 15.25 11.38C15.28 11.38 15.3 11.51 15.33 11.54C15.36 11.57 15.36 11.44 15.38 11.46C15.41 11.5 15.41 11.58 15.45 11.62C15.48 11.64 15.48 11.51 15.51 11.52C15.54 11.55 15.53 11.62 15.57 11.65C15.58 11.67 15.6 11.56 15.61 11.58C15.63 11.59 15.64 11.72 15.66 11.74C15.68 11.77 15.71 11.67 15.74 11.69C15.75 11.7 15.75 11.82 15.77 11.84C15.8 11.89 15.82 11.78 15.84 11.8C15.85 11.81 15.89 11.94 15.9 11.95C15.93 11.97 15.95 11.89 15.97 11.9C15.99 11.91 16.02 12.08 16.04 12.07C16.05 12.07 16.07 11.69 15.92 11.53C15.68 11.26 15.25 11.11 14.9 11.11C14.9 11.11 15.08 11.07 15.08 11.04C15.09 10.98 15.18 10.99 15.24 11C15.25 11.01 15.24 10.9 15.25 10.9C15.3 10.9 15.35 10.93 15.4 10.96C15.42 10.97 15.37 10.86 15.39 10.87C15.45 10.91 15.53 10.92 15.57 10.97C15.58 10.98 15.56 10.88 15.56 10.88C15.59 10.87 15.66 10.92 15.68 10.96C15.7 10.98 15.68 10.84 15.69 10.87C15.69 10.87 15.81 10.91 15.82 10.96C15.82 10.96 15.83 10.87 15.85 10.87C15.9 10.89 15.94 10.96 15.97 10.98C15.97 10.98 15.96 10.9 15.97 10.9C16.06 10.92 16.15 10.98 16.15 10.98C16.1 10.85 15.92 10.72 15.58 10.69C15.52 10.68 15.28 10.67 15.07 10.72C14.9 10.76 14.76 10.78 14.79 10.75C14.9 10.64 15.09 10.63 15.14 10.6C15.17 10.59 15.01 10.52 15.05 10.52C15.08 10.51 15.22 10.5 15.22 10.5C15.25 10.47 15.12 10.43 15.13 10.39C15.17 10.32 15.41 10.39 15.43 10.36C15.44 10.35 15.33 10.29 15.33 10.28C15.35 10.24 15.56 10.3 15.56 10.27C15.56 10.27 15.5 10.23 15.46 10.19C15.45 10.18 15.64 10.13 15.64 10.13C15.64 10.13 15.61 10.11 15.57 10.09C15.52 10.07 15.73 10.02 15.73 10.02C15.47 9.9 14.78 10.24 14.65 10.6C14.61 10.68 14.61 10.59 14.62 10.52C14.62 10.44 14.63 10.37 14.63 10.3C14.62 10.28 14.57 10.36 14.57 10.34C14.55 10.26 14.59 10.18 14.57 10.1C14.57 10.07 14.5 10.18 14.49 10.15C14.46 10.07 14.51 9.96 14.49 9.86C14.48 9.81 14.41 9.95 14.39 9.91C14.37 9.86 14.38 9.7 14.36 9.68C14.35 9.66 14.29 9.76 14.29 9.74C14.21 9.44 14.32 9.41 14.16 9.57C14.16 9.58 14.12 9.4 14.11 9.4C14.05 9.54 13.95 9.31 13.91 9.33C13.88 9.35 13.98 9.44 13.98 9.48C13.99 9.5 13.89 9.5 13.89 9.5C13.89 9.53 14.07 9.63 14.07 9.66C14.08 9.69 13.95 9.69 13.95 9.69C13.95 9.73 14.1 9.77 14.11 9.81C14.11 9.83 14.04 9.84 14.04 9.86C14.05 9.9 14.18 9.98 14.19 10.02C14.19 10.04 14.1 10.05 14.1 10.08C14.09 10.11 14.28 10.21 14.28 10.24C14.28 10.28 14.21 10.26 14.17 10.28C14.13 10.31 14.32 10.42 14.33 10.45C14.34 10.48 14.25 10.46 14.25 10.48C14.24 10.52 14.34 10.57 14.37 10.63C14.39 10.68 14.37 10.7 14.33 10.68C14.27 10.63 14 10.35 13.93 10.27C13.83 10.16 13.62 10.04 13.41 10.03C13.39 10.04 13.52 10.14 13.52 10.17C13.52 10.18 13.46 10.19 13.47 10.19C13.5 10.23 13.62 10.28 13.62 10.28L13.59 10.34C13.59 10.35 13.65 10.36 13.74 10.39C13.74 10.39 13.67 10.43 13.68 10.43C13.72 10.47 13.81 10.5 13.81 10.5L13.72 10.53C13.72 10.54 13.92 10.63 13.92 10.63C13.92 10.63 13.86 10.68 13.86 10.68C13.88 10.7 14.03 10.73 14.03 10.73C14.03 10.74 13.92 10.77 13.92 10.77C13.96 10.81 14.07 10.82 14.1 10.89C14.1 10.89 14.11 10.93 14.07 10.92C13.9 10.86 13.64 10.73 13.13 10.78C12.61 10.85 12.21 11.3 12.22 11.35C12.22 11.35 12.4 11.21 12.42 11.24Z" fill="#2D973F" fill-opacity="1.000000" fill-rule="evenodd"/>
		<path id="path96" d="M13.05 16.03C13.05 16.03 13.35 16.07 13.69 16.03C13.69 16.03 13.7 16.09 13.68 16.12C13.67 16.14 13.27 16.16 13.07 16.13C13.04 16.12 13.04 16.08 13.05 16.03ZM12.48 15.8C12.48 15.8 13.57 15.88 14.24 15.74C14.24 15.74 14.29 15.78 14.21 15.87C14.13 15.96 13.93 15.98 13.82 16C13.82 16 13.79 16.07 13.79 16.1C13.8 16.13 13.86 16.12 13.9 16.12L13.93 16.11C13.93 16.11 13.91 16.23 13.5 16.24C13.37 16.25 12.92 16.26 12.83 16.13C12.83 16.13 12.91 16.13 12.93 16.13C12.95 16.12 12.94 16.03 12.93 16.02C12.92 16.01 12.64 16.02 12.49 15.89C12.45 15.85 12.44 15.81 12.44 15.79C12.44 15.79 12.48 15.8 12.48 15.8Z" fill="#87391B" fill-opacity="1.000000" fill-rule="evenodd"/>
		<path id="path100" d="M12.63 15.75C12.63 15.75 13.04 15.32 12.91 14.42C12.91 14.42 13.34 14.53 13.76 15.15C13.76 15.15 13.89 15.27 14.04 15.72L12.63 15.75Z" fill="#FEFAFD" fill-opacity="1.000000" fill-rule="evenodd"/>
		<path id="path104" d="M14.45 8.62C14.45 8.62 11.38 10.91 11.38 13.61C11.38 16.31 14.45 18.67 14.45 18.67C14.45 18.67 17.51 16.51 17.51 13.61C17.51 10.72 14.45 8.62 14.45 8.62ZM14.46 8C14.46 8 11 10.57 11 13.61C11 16.65 14.46 19.29 14.46 19.29C14.46 19.29 17.89 16.86 17.89 13.61C17.89 10.35 14.46 8 14.46 8Z" fill="#C81A38" fill-opacity="1.000000" fill-rule="evenodd"/>
	</g>
</svg>
