<svg width="28.000000" height="28.000000" viewBox="0 0 28 28" fill="none" xmlns="http://www.w3.org/2000/svg" xmlns:xlink="http://www.w3.org/1999/xlink">
	<desc>
			Created with Pixso.
	</desc>
	<defs/>
	<rect id="Guatemala" width="28.000000" height="28.000000" fill="#FFFFFF" fill-opacity="0"/>
	<rect id="Mask" y="4.000000" rx="3.000000" width="28.000000" height="20.000000" fill="#FFFFFF" fill-opacity="1.000000"/>
	<rect id="Mask" x="0.250000" y="4.250000" rx="3.000000" width="27.500000" height="19.500000" stroke="#D6D8DD" stroke-opacity="1.000000" stroke-width="0.500000"/>
	<mask id="mask17_5597" mask-type="alpha" maskUnits="userSpaceOnUse" x="0.000000" y="4.000000" width="28.000000" height="20.000000">
		<rect id="Mask" y="4.000000" rx="3.000000" width="28.000000" height="20.000000" fill="#FFFFFF" fill-opacity="1.000000"/>
		<rect id="Mask" x="0.250000" y="4.250000" rx="3.000000" width="27.500000" height="19.500000" stroke="#F5F5F5" stroke-opacity="1.000000" stroke-width="0.500000"/>
	</mask>
	<g mask="url(#mask17_5597)">
		<rect id="Mask" x="18.666626" y="4.000000" width="9.333333" height="20.000000" fill="#63AEE3" fill-opacity="1.000000"/>
		<rect id="Mask" x="18.666626" y="4.000000" width="9.333333" height="20.000000" stroke="#979797" stroke-opacity="0" stroke-width="0.000000"/>
	</g>
	<g mask="url(#mask17_5597)">
		<path id="Rectangle 2" d="M0 24L9.33 24L9.33 4L0 4L0 24Z" fill="#63AEE3" fill-opacity="1.000000" fill-rule="evenodd"/>
		<path id="Rectangle 2" d="M9.33 24L9.33 4L0 4L0 24L9.33 24Z" stroke="#979797" stroke-opacity="0" stroke-width="0.000000"/>
	</g>
	<g mask="url(#mask17_5597)">
		<mask id="mask_17_5600" fill="white">
			<path id="Oval 5" d="M12.6637 15.6415C11.8683 15.18 11.3334 14.3192 11.3334 13.3334L12.6637 15.6415ZM16.6667 13.3334C16.6667 14.2779 16.1756 15.1077 15.4349 15.5815L16.6667 13.3334Z" clip-rule="evenodd" fill="" fill-opacity="1.000000" fill-rule="evenodd"/>
		</mask>
		<path id="Oval 5" d="M12.6637 15.6415C11.8683 15.18 11.3334 14.3192 11.3334 13.3334L12.6637 15.6415ZM16.6667 13.3334C16.6667 14.2779 16.1756 15.1077 15.4349 15.5815L16.6667 13.3334Z" clip-rule="evenodd" fill="#D8D8D8" fill-opacity="0.000000" fill-rule="evenodd" mask="url(#mask_17_5600)"/>
		<path id="Oval 5" d="M12.3291 16.2181Q11.5706 15.778 11.1257 15.0222Q10.6667 14.2424 10.6667 13.3334L10.6667 10.8416L13.2412 15.3086L12.3291 16.2181ZM12.9982 15.0649L12.6637 15.6415L12.0861 15.9744L10.7558 13.6663L11.3334 13.3334L12 13.3334Q12 13.8791 12.2748 14.3459Q12.5422 14.8003 12.9982 15.0649ZM17.3334 13.3334Q17.3334 14.2038 16.9103 14.9596Q16.5009 15.6911 15.7941 16.1431L14.8503 15.2612L16.0821 13.013L17.3334 13.3334ZM16 13.3334L16.6667 13.3334L17.2514 13.6537L16.0195 15.9019L15.4349 15.5815L15.0757 15.0199Q15.5007 14.748 15.7469 14.3083Q16 13.856 16 13.3334Z" fill="#628A40" fill-opacity="1.000000" fill-rule="nonzero"/>
	</g>
	<g mask="url(#mask17_5597)">
		<path id="Oval 5" d="M14 14.66C14.73 14.66 15.33 14.06 15.33 13.33C15.33 12.59 14.73 12 14 12C13.26 12 12.66 12.59 12.66 13.33C12.66 14.06 13.26 14.66 14 14.66Z" fill="#DCC26D" fill-opacity="1.000000" fill-rule="evenodd"/>
		<path id="Oval 5" d="M15.33 13.33C15.33 12.59 14.73 12 14 12C13.26 12 12.66 12.59 12.66 13.33C12.66 14.06 13.26 14.66 14 14.66C14.73 14.66 15.33 14.06 15.33 13.33Z" stroke="#979797" stroke-opacity="0" stroke-width="0.000000"/>
	</g>
</svg>
