<svg viewBox="0 0 28 28" xmlns="http://www.w3.org/2000/svg" xmlns:xlink="http://www.w3.org/1999/xlink" width="28.000000" height="28.000000" fill="none" customFrame="#000000">
	<defs>
		<filter id="pixso_custom_mask_type_alpha">
			<feColorMatrix type="matrix" values="0 0 0 0 1 0 0 0 0 1 0 0 0 0 1 0 0 0 1 0 " />
		</filter>
	</defs>
	<mask id="mask_404" width="28.000000" height="20.000000" x="0.000000" y="4.000000" maskUnits="userSpaceOnUse">
		<g filter="url(#pixso_custom_mask_type_alpha)">
			<rect id="Mask" width="28.000000" height="20.000000" x="0.000000" y="4.000000" rx="3.000000" fill="rgb(255,255,255)" />
			<rect id="Mask" width="27.500000" height="19.500000" x="0.250000" y="4.250000" rx="2.750000" stroke="rgb(245,245,245)" stroke-width="0.5" />
		</g>
	</mask>
	<rect id="Guernsey" width="28.000000" height="28.000000" x="0.000000" y="0.000000" fill="rgb(255,255,255)" fill-opacity="0" />
	<rect id="Mask" width="28.000000" height="20.000000" x="0.000000" y="4.000000" rx="3.000000" fill="rgb(255,255,255)" />
	<rect id="Mask" width="27.500000" height="19.500000" x="0.250000" y="4.250000" rx="2.750000" stroke="rgb(214,216,221)" stroke-width="0.5" />
	<g mask="url(#mask_404)">
		<rect id="Mask" width="6.666667" height="20.000000" x="10.666687" y="4.000000" fill="rgb(232,17,45)" />
		<rect id="Mask" width="6.666667" height="20.000000" x="10.666687" y="4.000000" stroke="rgb(150.96,150.96,150.96)" stroke-opacity="0" stroke-width="0" />
		<rect id="Mask" width="28.000000" height="6.666667" x="0.000000" y="10.666626" fill="rgb(232,17,45)" />
		<rect id="Mask" width="28.000000" height="6.666667" x="0.000000" y="10.666626" stroke="rgb(150.96,150.96,150.96)" stroke-opacity="0" stroke-width="0" />
		<g id="Group">
			<rect id="Rectangle 1229" width="1.333333" height="14.666667" x="13.333313" y="6.666626" fill="rgb(249,221,22)" />
			<rect id="Rectangle 1229" width="1.333333" height="14.666667" x="13.333313" y="6.666626" stroke="rgb(150.96,150.96,150.96)" stroke-opacity="0" stroke-width="0" />
			<path id="Triangle 1" d="M14 20L15.3334 21.3333L12.6667 21.3333L14 20Z" fill="rgb(249,221,22)" fill-rule="evenodd" />
			<path id="Triangle 1" d="M15.3334 21.3333L12.6667 21.3333L14 20L15.3334 21.3333Z" fill-rule="evenodd" stroke="rgb(150.96,150.96,150.96)" stroke-opacity="0" stroke-width="0" />
			<rect id="Rectangle 1229" width="14.666667" height="1.333333" x="6.666687" y="13.333313" fill="rgb(249,221,22)" />
			<rect id="Rectangle 1229" width="14.666667" height="1.333333" x="6.666687" y="13.333313" stroke="rgb(150.96,150.96,150.96)" stroke-opacity="0" stroke-width="0" />
			<path id="Triangle 1" d="M1.33333 0L2.66667 1.33333L0 1.33333L1.33333 0Z" fill="rgb(249,221,22)" fill-rule="evenodd" transform="matrix(1,0,0,-1,12.6667,8)" />
			<path id="Triangle 1" d="M2.66667 1.33333L0 1.33333L1.33333 0L2.66667 1.33333Z" fill-rule="evenodd" stroke="rgb(150.96,150.96,150.96)" stroke-opacity="0" stroke-width="0" transform="matrix(1,0,0,-1,12.6667,8)" />
			<path id="Triangle 1" d="M1.33333 0L2.66667 1.33333L0 1.33333L1.33333 0Z" fill="rgb(249,221,22)" fill-rule="evenodd" transform="matrix(-1.83697e-16,-1,-1,1.83697e-16,8,15.3333)" />
			<path id="Triangle 1" d="M2.66667 1.33333L0 1.33333L1.33333 0L2.66667 1.33333Z" fill-rule="evenodd" stroke="rgb(150.96,150.96,150.96)" stroke-opacity="0" stroke-width="0" transform="matrix(-1.83697e-16,-1,-1,1.83697e-16,8,15.3333)" />
			<path id="Triangle 1" d="M1.33333 0L2.66667 1.33333L0 1.33333L1.33333 0Z" fill="rgb(249,221,22)" fill-rule="evenodd" transform="matrix(1.83697e-16,-1,1,1.83697e-16,20,15.3333)" />
			<path id="Triangle 1" d="M2.66667 1.33333L0 1.33333L1.33333 0L2.66667 1.33333Z" fill-rule="evenodd" stroke="rgb(150.96,150.96,150.96)" stroke-opacity="0" stroke-width="0" transform="matrix(1.83697e-16,-1,1,1.83697e-16,20,15.3333)" />
		</g>
	</g>
</svg>
