<svg viewBox="0 0 28 28" xmlns="http://www.w3.org/2000/svg" xmlns:xlink="http://www.w3.org/1999/xlink" width="28.000000" height="28.000000" fill="none" customFrame="#000000">
	<defs>
		<filter id="pixso_custom_mask_type_alpha">
			<feColorMatrix type="matrix" values="0 0 0 0 1 0 0 0 0 1 0 0 0 0 1 0 0 0 1 0 " />
		</filter>
	</defs>
	<mask id="mask_413" width="28.000000" height="20.000000" x="0.000000" y="4.000000" maskUnits="userSpaceOnUse">
		<g filter="url(#pixso_custom_mask_type_alpha)">
			<rect id="Mask" width="28.000000" height="20.000000" x="0.000000" y="4.000000" rx="3.000000" fill="rgb(255,255,255)" />
			<rect id="Mask" width="28.000000" height="20.000000" x="0.000000" y="4.000000" rx="3.000000" stroke="rgb(150.96,150.96,150.96)" stroke-opacity="0" stroke-width="0" />
		</g>
	</mask>
	<rect id="Guinea-Bissau" width="28.000000" height="28.000000" x="0.000000" y="0.000000" fill="rgb(255,255,255)" fill-opacity="0" />
	<rect id="Mask" width="28.000000" height="20.000000" x="0.000000" y="4.000000" rx="3.000000" fill="rgb(255,255,255)" />
	<rect id="Mask" width="28.000000" height="20.000000" x="0.000000" y="4.000000" rx="3.000000" stroke="rgb(150.96,150.96,150.96)" stroke-opacity="0" stroke-width="0" />
	<g mask="url(#mask_413)">
		<path id="Rectangle 2" d="M0 24L28 24L28 13.3334L0 13.3334L0 24Z" fill="rgb(26,181,88)" fill-rule="evenodd" />
		<path id="Rectangle 2" d="M28 24L28 13.3334L0 13.3334L0 24L28 24Z" fill-rule="evenodd" stroke="rgb(150.96,150.96,150.96)" stroke-opacity="0" stroke-width="0" />
		<path id="Rectangle 2" d="M0 13.3333L28 13.3333L28 4L0 4L0 13.3333Z" fill="rgb(255,217,82)" fill-rule="evenodd" />
		<path id="Rectangle 2" d="M28 13.3333L28 4L0 4L0 13.3333L28 13.3333Z" fill-rule="evenodd" stroke="rgb(150.96,150.96,150.96)" stroke-opacity="0" stroke-width="0" />
		<path id="Rectangle 2" d="M0 24L10.6667 24L10.6667 4L0 4L0 24Z" fill="rgb(231,43,66)" fill-rule="evenodd" />
		<path id="Rectangle 2" d="M10.6667 24L10.6667 4L0 4L0 24L10.6667 24Z" fill-rule="evenodd" stroke="rgb(150.96,150.96,150.96)" stroke-opacity="0" stroke-width="0" />
		<path id="Star 53" d="M5.33333 15.2783L3.37405 16.6967L4.11754 14.395L2.16315 12.9699L4.58193 12.9657L5.33333 10.6666L6.08473 12.9657L8.50352 12.9699L6.54913 14.395L7.29262 16.6967L5.33333 15.2783Z" fill="rgb(38,38,38)" fill-rule="evenodd" />
		<path id="Star 53" d="M3.37405 16.6967L4.11754 14.395L2.16315 12.9699L4.58193 12.9657L5.33333 10.6666L6.08473 12.9657L8.50352 12.9699L6.54913 14.395L7.29262 16.6967L5.33333 15.2783L3.37405 16.6967Z" fill-rule="evenodd" stroke="rgb(150.96,150.96,150.96)" stroke-opacity="0" stroke-width="0" />
	</g>
</svg>
