<svg width="28.000000" height="28.000000" viewBox="0 0 28 28" fill="none" xmlns="http://www.w3.org/2000/svg" xmlns:xlink="http://www.w3.org/1999/xlink">
	<desc>
			Created with Pixso.
	</desc>
	<defs>
		<linearGradient id="paint_linear_17_5481_0" x1="9.333313" y1="10.666626" x2="9.333313" y2="18.666626" gradientUnits="userSpaceOnUse">
			<stop stop-color="#FFFFFF"/>
			<stop offset="1.000000" stop-color="#F0F0F0"/>
		</linearGradient>
		<linearGradient id="paint_linear_17_5482_0" x1="9.333313" y1="10.666626" x2="9.333313" y2="18.666626" gradientUnits="userSpaceOnUse">
			<stop stop-color="#FFFFFF"/>
			<stop offset="1.000000" stop-color="#F0F0F0"/>
		</linearGradient>
	</defs>
	<rect id="Haiti" width="28.000000" height="28.000000" fill="#FFFFFF" fill-opacity="0"/>
	<rect id="Mask" y="4.000000" rx="3.000000" width="28.000000" height="20.000000" fill="#FFFFFF" fill-opacity="1.000000"/>
	<rect id="Mask" y="4.000000" rx="3.000000" width="28.000000" height="20.000000" stroke="#979797" stroke-opacity="0" stroke-width="0.000000"/>
	<mask id="mask17_5477" mask-type="alpha" maskUnits="userSpaceOnUse" x="0.000000" y="4.000000" width="28.000000" height="20.000000">
		<rect id="Mask" y="4.000000" rx="3.000000" width="28.000000" height="20.000000" fill="#FFFFFF" fill-opacity="1.000000"/>
		<rect id="Mask" y="4.000000" rx="3.000000" width="28.000000" height="20.000000" stroke="#979797" stroke-opacity="0" stroke-width="0.000000"/>
	</mask>
	<g mask="url(#mask17_5477)">
		<path id="Rectangle 2" d="M0 13.33L28 13.33L28 4L0 4L0 13.33Z" fill="#112EBC" fill-opacity="1.000000" fill-rule="evenodd"/>
		<path id="Rectangle 2" d="M28 13.33L28 4L0 4L0 13.33L28 13.33Z" stroke="#979797" stroke-opacity="0" stroke-width="0.000000"/>
	</g>
	<g mask="url(#mask17_5477)">
		<path id="Rectangle 2" d="M0 24L28 24L28 13.33L0 13.33L0 24Z" fill="#E3264A" fill-opacity="1.000000" fill-rule="evenodd"/>
		<path id="Rectangle 2" d="M28 24L28 13.33L0 13.33L0 24L28 24Z" stroke="#979797" stroke-opacity="0" stroke-width="0.000000"/>
	</g>
	<g mask="url(#mask17_5477)">
		<rect id="Mask" x="9.333313" y="10.666626" rx="0.666667" width="9.333333" height="8.000000" fill="url(#paint_linear_17_5481_0)" fill-opacity="1.000000"/>
		<rect id="Mask" x="9.333313" y="10.666626" rx="0.666667" width="9.333333" height="8.000000" stroke="#979797" stroke-opacity="0" stroke-width="0.000000"/>
		<mask id="mask17_5482" mask-type="alpha" maskUnits="userSpaceOnUse" x="9.333313" y="10.666626" width="9.333313" height="8.000000">
			<rect id="Mask" x="9.333313" y="10.666626" rx="0.666667" width="9.333333" height="8.000000" fill="url(#paint_linear_17_5482_0)" fill-opacity="1.000000"/>
			<rect id="Mask" x="9.333313" y="10.666626" rx="0.666667" width="9.333333" height="8.000000" stroke="#979797" stroke-opacity="0" stroke-width="0.000000"/>
		</mask>
		<g mask="url(#mask17_5482)">
			<path id="Rectangle 181" d="M9.33 17.33L11.43 16.28C11.8 16.09 12.21 16 12.62 16L15.37 16C15.78 16 16.19 16.09 16.56 16.28L18.66 17.33L18.66 18.66L9.33 18.66L9.33 17.33Z" fill="#AABCAE" fill-opacity="1.000000" fill-rule="evenodd"/>
			<path id="Rectangle 181" d="M9.33 17.33L11.43 16.28C11.8 16.09 12.21 16 12.62 16L15.37 16C15.78 16 16.19 16.09 16.56 16.28L18.66 17.33L18.66 18.66L9.33 18.66L9.33 17.33ZM10 17.74L10 18L18 18L18 17.74L16.26 16.87Q16.05 16.77 15.83 16.71Q15.6 16.66 15.37 16.66L12.62 16.66Q12.39 16.66 12.16 16.71Q11.94 16.77 11.73 16.87L10 17.74Z" fill="#366C14" fill-opacity="1.000000" fill-rule="evenodd"/>
		</g>
		<g mask="url(#mask17_5482)">
			<path id="Oval 6" d="M14 16C15.1 16 16 15.1 16 14C16 12.89 15.1 12 14 12C12.89 12 12 12.89 12 14C12 15.1 12.89 16 14 16Z" fill="#D4B872" fill-opacity="1.000000" fill-rule="evenodd"/>
			<path id="Oval 6" d="M16 14C16 12.89 15.1 12 14 12C12.89 12 12 12.89 12 14C12 15.1 12.89 16 14 16C15.1 16 16 15.1 16 14Z" stroke="#979797" stroke-opacity="0" stroke-width="0.000000"/>
		</g>
		<g mask="url(#mask17_5482)">
			<path id="Rectangle 182" d="M10.66 15.38C10.66 14.82 11.31 14.51 11.74 14.86L13.58 16.33C13.82 16.52 14.17 16.52 14.41 16.33L16.25 14.86C16.68 14.51 17.33 14.82 17.33 15.38L17.33 16.66C17.33 17.03 17.03 17.33 16.66 17.33L11.33 17.33C10.96 17.33 10.66 17.03 10.66 16.66L10.66 15.38Z" fill="#C28321" fill-opacity="1.000000" fill-rule="evenodd"/>
			<path id="Rectangle 182" d="M10.66 15.38C10.66 14.82 11.31 14.51 11.74 14.86L13.58 16.33C13.82 16.52 14.17 16.52 14.41 16.33L16.25 14.86C16.68 14.51 17.33 14.82 17.33 15.38L17.33 16.66C17.33 17.03 17.03 17.33 16.66 17.33L11.33 17.33C10.96 17.33 10.66 17.03 10.66 16.66L10.66 15.38ZM12.93 16.66L11.33 15.38L11.33 16.66L12.93 16.66ZM15.06 16.66L16.66 16.66L16.66 15.38L15.06 16.66Z" fill="#0D3488" fill-opacity="1.000000" fill-rule="evenodd"/>
		</g>
		<g mask="url(#mask17_5482)">
			<path id="Rectangle 183" d="M12.56 12.56C12.35 12.35 12.5 12 12.8 12L15.19 12C15.49 12 15.64 12.35 15.43 12.56L14.23 13.76C14.1 13.89 13.89 13.89 13.76 13.76L12.56 12.56Z" fill="#216C30" fill-opacity="1.000000" fill-rule="evenodd"/>
			<path id="Rectangle 183" d="M15.19 12C15.49 12 15.64 12.35 15.43 12.56L14.23 13.76C14.1 13.89 13.89 13.89 13.76 13.76L12.56 12.56C12.35 12.35 12.5 12 12.8 12L15.19 12Z" stroke="#979797" stroke-opacity="0" stroke-width="0.000000"/>
		</g>
	</g>
</svg>
