<svg viewBox="0 0 29.8022 28" xmlns="http://www.w3.org/2000/svg" xmlns:xlink="http://www.w3.org/1999/xlink" width="29.802185" height="28.000000" fill="none" customFrame="#000000">
	<defs>
		<filter id="pixso_custom_mask_type_alpha">
			<feColorMatrix type="matrix" values="0 0 0 0 1 0 0 0 0 1 0 0 0 0 1 0 0 0 1 0 " />
		</filter>
		<linearGradient id="paint_linear_86" x1="1.80218506" x2="1.80218506" y1="4" y2="14" gradientUnits="userSpaceOnUse">
			<stop stop-color="rgb(255,255,255)" offset="0" stop-opacity="1" />
			<stop stop-color="rgb(239.7,239.7,239.7)" offset="1" stop-opacity="1" />
		</linearGradient>
		<linearGradient id="paint_linear_87" x1="1.80218506" x2="1.80218506" y1="4" y2="13.333333" gradientUnits="userSpaceOnUse">
			<stop stop-color="rgb(255,46.4693,58.6845)" offset="0" stop-opacity="1" />
			<stop stop-color="rgb(252,13,27)" offset="1" stop-opacity="1" />
		</linearGradient>
	</defs>
	<mask id="mask_264" width="28.000000" height="20.000000" x="1.802185" y="4.000000" maskUnits="userSpaceOnUse">
		<g filter="url(#pixso_custom_mask_type_alpha)">
			<rect id="Mask" width="28.000000" height="20.000000" x="1.802185" y="4.000000" rx="3.000000" fill="rgb(255,255,255)" />
			<rect id="Mask" width="28.000000" height="20.000000" x="1.802185" y="4.000000" rx="3.000000" stroke="rgb(150.96,150.96,150.96)" stroke-opacity="0" stroke-width="0.000000" />
		</g>
	</mask>
	<rect id="Heard Island and McDonald Islands" width="28.000000" height="28.000000" x="1.802185" y="0.000000" fill="rgb(255,255,255)" fill-opacity="0" />
	<rect id="Mask" width="28.000000" height="20.000000" x="1.802185" y="4.000000" rx="3.000000" fill="rgb(255,255,255)" />
	<rect id="Mask" width="28.000000" height="20.000000" x="1.802185" y="4.000000" rx="3.000000" stroke="rgb(150.96,150.96,150.96)" stroke-opacity="0" stroke-width="0.000000" />
	<g mask="url(#mask_264)">
		<rect id="Mask Copy" width="28.000000" height="20.000000" x="1.802185" y="4.000000" fill="rgb(10,23,167)" />
		<rect id="Mask Copy" width="28.000000" height="20.000000" x="1.802185" y="4.000000" stroke="rgb(150.96,150.96,150.96)" stroke-opacity="0" stroke-width="0.000000" />
		<path id="Rectangle 36" d="M6.46885 8L1.80219 4L2.46885 4L7.13552 7.33333L8.46885 7.33333L13.8022 4L13.8022 4.49513C13.8022 4.60278 13.7502 4.7038 13.6626 4.76637L9.13552 8L9.13552 9.33333L13.3497 12.9455C13.5051 13.0787 13.4109 13.3333 13.2062 13.3333L13.2062 13.3333C13.1602 13.3333 13.1154 13.319 13.078 13.2923L8.46885 10L7.13552 10L1.80219 13.3333L1.80219 12.6667L6.46885 9.33333L6.46885 8Z" fill="rgb(255,46,59)" fill-rule="evenodd" />
		<path id="Rectangle 36" d="M2.6825 3.33333L1.34706e-05 3.33333L5.80219 8.30662L5.80219 8.99026L1.13552 12.3236L1.13552 14.5362L7.32672 10.6667L8.25521 10.6667L12.6905 13.8348C12.7676 13.8898 12.8492 13.9311 12.9351 13.9587C13.0211 13.9862 13.1114 14 13.2062 14C13.3096 14 13.4074 13.9839 13.4997 13.9518C13.5817 13.9232 13.6593 13.882 13.7325 13.828C13.8007 13.7777 13.8596 13.7203 13.9093 13.6558C13.9631 13.5858 14.0061 13.5074 14.0382 13.4206C14.0703 13.3339 14.0887 13.2464 14.0933 13.1582C14.0976 13.0769 14.0902 12.995 14.0712 12.9125C14.0508 12.8238 14.0187 12.742 13.975 12.6669C13.9259 12.5824 13.862 12.5066 13.7835 12.4393L9.80219 9.02671L9.80219 8.34308L14.0501 5.30886C14.1158 5.26194 14.1743 5.2088 14.2256 5.14944C14.2769 5.09008 14.3211 5.0245 14.358 4.95271C14.395 4.88091 14.4227 4.80688 14.4412 4.7306C14.4596 4.65435 14.4689 4.57586 14.4689 4.49513L14.4689 2.79717L8.27765 6.66667L7.34916 6.66667L2.6825 3.33333ZM7.13552 7.33333L4.61521 5.53312L2.46885 4L1.80219 4L2.21569 4.35443L2.46885 4.57143L4.20374 6.05847L6.46885 8L6.46885 9.33333L1.80219 12.6667L1.80219 13.3333L2.1314 13.1276L2.46885 12.9167L3.51134 12.2651L7.13552 10L8.46885 10L10.9892 11.8002L12.7622 13.0667L13.078 13.2923C13.1154 13.319 13.1602 13.3333 13.2062 13.3333C13.4109 13.3333 13.5051 13.0787 13.3497 12.9455L13.0551 12.693L11.4006 11.2749L9.13552 9.33333L9.13552 8L12.4638 5.62265L13.6626 4.76637C13.7502 4.7038 13.8022 4.60278 13.8022 4.49513L13.8022 4L13.145 4.41077L13.1355 4.41667L12.093 5.06822L8.46885 7.33333L7.13552 7.33333Z" fill="rgb(255,255,255)" fill-rule="evenodd" />
		<path id="Rectangle 2" d="M1.80219 7.33333L1.80219 10L6.46885 10L6.46885 13.3333C6.46885 13.7015 6.76733 14 7.13552 14L8.46885 14C8.83704 14 9.13552 13.7015 9.13552 13.3333L9.13552 10L13.8022 10C14.1704 10 14.4689 9.70152 14.4689 9.33333L14.4689 8C14.4689 7.63181 14.1704 7.33333 13.8022 7.33333L9.13552 7.33333L9.13552 4L6.46885 4L6.46885 7.33333L1.80219 7.33333Z" fill="url(#paint_linear_86)" fill-rule="evenodd" />
		<path id="Rectangle 2" d="M1.80219 10L6.46885 10L6.46885 13.3333C6.46885 13.7015 6.76733 14 7.13552 14L8.46885 14C8.83704 14 9.13552 13.7015 9.13552 13.3333L9.13552 10L13.8022 10C14.1704 10 14.4689 9.70152 14.4689 9.33333L14.4689 8C14.4689 7.63181 14.1704 7.33333 13.8022 7.33333L9.13552 7.33333L9.13552 4L6.46885 4L6.46885 7.33333L1.80219 7.33333L1.80219 10Z" fill-rule="evenodd" stroke="rgb(150.96,150.96,150.96)" stroke-opacity="0" stroke-width="0.000000" />
		<path id="Rectangle 36" d="M1.80219 8L7.13552 8L7.13552 7.33333L7.13552 4L8.46885 4L8.46885 7.33333L8.46885 8L13.8022 8L13.8022 9.33333L8.46885 9.33333L8.46885 10L8.46885 13.3333L7.13552 13.3333L7.13552 10L7.13552 9.33333L1.80219 9.33333L1.80219 8Z" fill="url(#paint_linear_87)" fill-rule="evenodd" />
		<path id="Rectangle 36" d="M7.13552 8L7.13552 7.33333L7.13552 4L8.46885 4L8.46885 7.33333L8.46885 8L13.8022 8L13.8022 9.33333L8.46885 9.33333L8.46885 10L8.46885 13.3333L7.13552 13.3333L7.13552 10L7.13552 9.33333L1.80219 9.33333L1.80219 8L7.13552 8Z" fill-rule="evenodd" stroke="rgb(150.96,150.96,150.96)" stroke-opacity="0" stroke-width="0.000000" />
		<path id="Star 2" d="M7.80219 20.3333L6.62661 20.9513L6.85113 19.6423L5.90007 18.7153L7.2144 18.5243L7.80219 17.3333L8.38997 18.5243L9.7043 18.7153L8.75324 19.6423L8.97776 20.9513L7.80219 20.3333Z" fill="rgb(255,255,255)" fill-rule="evenodd" />
		<path id="Star 2" d="M6.62661 20.9513L6.85113 19.6423L5.90007 18.7153L7.2144 18.5243L7.80219 17.3333L8.38997 18.5243L9.7043 18.7153L8.75324 19.6423L8.97776 20.9513L7.80219 20.3333L6.62661 20.9513Z" fill-rule="evenodd" stroke="rgb(150.96,150.96,150.96)" stroke-opacity="0" stroke-width="0.000000" />
		<path id="Star 2" d="M21.8022 21.3333L20.8594 21.6095L21.1355 20.6666L20.8594 19.7238L21.8022 20L22.745 19.7238L22.4689 20.6666L22.745 21.6095L21.8022 21.3333Z" fill="rgb(255,255,255)" fill-rule="evenodd" />
		<path id="Star 2" d="M20.8594 21.6095L21.1355 20.6666L20.8594 19.7238L21.8022 20L22.745 19.7238L22.4689 20.6666L22.745 21.6095L21.8022 21.3333L20.8594 21.6095Z" fill-rule="evenodd" stroke="rgb(150.96,150.96,150.96)" stroke-opacity="0" stroke-width="0.000000" />
		<path id="Star 2" d="M21.8022 8.66669L20.8594 8.94283L21.1355 8.00002L20.8594 7.05721L21.8022 7.33335L22.745 7.05721L22.4689 8.00002L22.745 8.94283L21.8022 8.66669Z" fill="rgb(255,255,255)" fill-rule="evenodd" />
		<path id="Star 2" d="M20.8594 8.94283L21.1355 8.00002L20.8594 7.05721L21.8022 7.33335L22.745 7.05721L22.4689 8.00002L22.745 8.94283L21.8022 8.66669L20.8594 8.94283Z" fill-rule="evenodd" stroke="rgb(150.96,150.96,150.96)" stroke-opacity="0" stroke-width="0.000000" />
		<path id="Star 2" d="M25.8022 12.6667L24.8594 12.9428L25.1355 12L24.8594 11.0572L25.8022 11.3334L26.745 11.0572L26.4689 12L26.745 12.9428L25.8022 12.6667Z" fill="rgb(255,255,255)" fill-rule="evenodd" />
		<path id="Star 2" d="M24.8594 12.9428L25.1355 12L24.8594 11.0572L25.8022 11.3334L26.745 11.0572L26.4689 12L26.745 12.9428L25.8022 12.6667L24.8594 12.9428Z" fill-rule="evenodd" stroke="rgb(150.96,150.96,150.96)" stroke-opacity="0" stroke-width="0.000000" />
		<path id="Star 2" d="M17.8022 14L16.8594 14.2761L17.1355 13.3333L16.8594 12.3905L17.8022 12.6667L18.745 12.3905L18.4689 13.3333L18.745 14.2761L17.8022 14Z" fill="rgb(255,255,255)" fill-rule="evenodd" />
		<path id="Star 2" d="M16.8594 14.2761L17.1355 13.3333L16.8594 12.3905L17.8022 12.6667L18.745 12.3905L18.4689 13.3333L18.745 14.2761L17.8022 14L16.8594 14.2761Z" fill-rule="evenodd" stroke="rgb(150.96,150.96,150.96)" stroke-opacity="0" stroke-width="0.000000" />
		<path id="Star 2" d="M23.8022 15.6667L23.3308 15.8048L23.4688 15.3334L23.3308 14.8619L23.8022 15L24.2736 14.8619L24.1355 15.3334L24.2736 15.8048L23.8022 15.6667Z" fill="rgb(255,255,255)" fill-rule="evenodd" />
		<path id="Star 2" d="M23.3308 15.8048L23.4688 15.3334L23.3308 14.8619L23.8022 15L24.2736 14.8619L24.1355 15.3334L24.2736 15.8048L23.8022 15.6667L23.3308 15.8048Z" fill-rule="evenodd" stroke="rgb(150.96,150.96,150.96)" stroke-opacity="0" stroke-width="0.000000" />
	</g>
</svg>
