<svg width="28.000000" height="28.000000" viewBox="0 0 28 28" fill="none" xmlns="http://www.w3.org/2000/svg" xmlns:xlink="http://www.w3.org/1999/xlink">
	<desc>
			Created with Pixso.
	</desc>
	<defs/>
	<rect id="Holy See" width="28.000000" height="28.000000" fill="#FFFFFF" fill-opacity="0"/>
	<path id="path14" d="M0 20.99C0 22.65 1.34 23.99 3 23.99L25 23.99C26.65 23.99 28 22.65 28 20.99L28 7C28 5.34 26.65 4 25 4L3 4C1.34 4 0 5.34 0 7L0 20.99Z" fill="#FFFFFF" fill-opacity="1.000000" fill-rule="nonzero"/>
	<path id="path14" d="M3 23.99C1.34 23.99 0 22.65 0 20.99L0 7C0 5.34 1.34 4 3 4L25 4C26.65 4 28 5.34 28 7L28 20.99C28 22.65 26.65 23.99 25 23.99L3 23.99ZM3 23.49L25 23.49Q25.28 23.49 25.56 23.43Q25.77 23.38 25.97 23.3Q26.18 23.21 26.36 23.09Q26.58 22.95 26.76 22.76Q26.95 22.58 27.09 22.36Q27.21 22.18 27.3 21.97Q27.38 21.77 27.43 21.56Q27.5 21.28 27.5 20.99L27.5 7Q27.5 6.71 27.43 6.43Q27.38 6.22 27.3 6.02Q27.21 5.81 27.09 5.63Q26.95 5.41 26.76 5.23Q26.58 5.04 26.36 4.9Q26.18 4.78 25.97 4.69Q25.77 4.61 25.56 4.56Q25.28 4.5 25 4.5L3 4.5Q2.71 4.5 2.43 4.56Q2.22 4.61 2.02 4.69Q1.81 4.78 1.63 4.9Q1.41 5.04 1.23 5.23Q1.04 5.41 0.9 5.63Q0.78 5.81 0.69 6.02Q0.61 6.22 0.56 6.43Q0.5 6.71 0.5 7L0.5 20.99Q0.5 21.28 0.56 21.56Q0.61 21.77 0.69 21.97Q0.78 22.18 0.9 22.36Q1.04 22.58 1.23 22.76Q1.41 22.95 1.63 23.09Q1.81 23.21 2.02 23.3Q2.22 23.38 2.43 23.43Q2.71 23.49 3 23.49Z" fill="#D6D8DD" fill-opacity="1.000000" fill-rule="evenodd"/>
	<mask id="mask107628_1048" mask-type="alpha" maskUnits="userSpaceOnUse" x="0.000000" y="4.000122" width="28.000000" height="19.999823">
		<path id="path14" d="M3 23.99L25 23.99C26.65 23.99 28 22.65 28 20.99L28 7C28 5.34 26.65 4 25 4L3 4C1.34 4 0 5.34 0 7L0 20.99C0 22.65 1.34 23.99 3 23.99Z" fill="#FFFFFF" fill-opacity="1.000000" fill-rule="nonzero"/>
	</mask>
	<g mask="url(#mask107628_1048)">
		<path id="path16" d="M0 23.99L14 23.99L14 4L0 4L0 23.99Z" fill="#FBE04B" fill-opacity="1.000000" fill-rule="nonzero"/>
	</g>
	<g mask="url(#mask107628_1048)">
		<path id="Subtract" d="M18.449 17.375C19.106 18.0739 19.9797 18.5 20.9388 18.5C21.8979 18.5 22.7717 18.0739 23.4286 17.375L22.15 17.375C21.7816 17.5813 21.3713 17.6964 20.9388 17.6964C20.5063 17.6964 20.0961 17.5813 19.7276 17.375L18.449 17.375Z" clip-rule="evenodd" fill="#BF2D1B" fill-opacity="1.000000" fill-rule="evenodd"/>
		<path id="Union" d="M21.528 14.9732C21.3729 15.2283 21.2837 15.5278 21.2837 15.8482C21.2837 16.7802 22.0392 17.5357 22.9712 17.5357C23.9031 17.5357 24.6587 16.7802 24.6587 15.8482C24.6587 14.9162 23.9031 14.1607 22.9712 14.1607C22.6508 14.1607 22.3513 14.2499 22.0962 14.405L20.3624 12.6713L19.2931 11.6019L18.3673 12.4119L18.8965 13.0167L19.2564 12.7017L19.4905 12.9358L19.1709 13.2155L19.7 13.8202L20.06 13.5052L21.528 14.9732ZM22.9712 14.9643C23.4594 14.9643 23.8551 15.36 23.8551 15.8482C23.8551 16.3364 23.4594 16.7321 22.9712 16.7321C22.483 16.7321 22.0872 16.3364 22.0872 15.8482C22.0872 15.36 22.483 14.9643 22.9712 14.9643Z" clip-rule="evenodd" fill="#CCCCCC" fill-opacity="1.000000" fill-rule="evenodd"/>
		<path id="Union" d="M20.5338 14.9733C20.6888 15.2284 20.778 15.5279 20.778 15.8482C20.778 16.7802 20.0225 17.5357 19.0905 17.5357C18.1585 17.5357 17.403 16.7802 17.403 15.8482C17.403 14.9162 18.1585 14.1607 19.0905 14.1607C19.4109 14.1607 19.7104 14.25 19.9656 14.405L21.6994 12.6713L22.7687 11.6019L23.6945 12.4119L23.1653 13.0167L22.8054 12.7017L22.5713 12.9358L22.8909 13.2155L22.3618 13.8202L22.0018 13.5052L20.5338 14.9733ZM19.0905 14.9643C18.6023 14.9643 18.2066 15.36 18.2066 15.8482C18.2066 16.3364 18.6023 16.7321 19.0905 16.7321C19.5787 16.7321 19.9745 16.3364 19.9745 15.8482C19.9745 15.36 19.5787 14.9643 19.0905 14.9643Z" clip-rule="evenodd" fill="#FBE04B" fill-opacity="1.000000" fill-rule="evenodd"/>
		<ellipse id="Ellipse 111" cx="21.099457" cy="11.026794" rx="0.964286" ry="1.526786" fill="#C4C4C4" fill-opacity="1.000000"/>
		<mask id="mask107628_1062" mask-type="alpha" maskUnits="userSpaceOnUse" x="20.135162" y="9.500000" width="1.928558" height="3.053589">
			<ellipse id="Ellipse 112" cx="21.099457" cy="11.026794" rx="0.964286" ry="1.526786" fill="#C4C4C4" fill-opacity="1.000000"/>
		</mask>
		<g mask="url(#mask107628_1062)">
			<path id="Vector 124" d="M20.13 10.46L22.06 10.46" stroke="#FBE04B" stroke-opacity="1.000000" stroke-width="0.321429" stroke-linejoin="round"/>
		</g>
		<g mask="url(#mask107628_1062)">
			<path id="Vector 125" d="M19.97 10.94L22.22 10.94" stroke="#FBE04B" stroke-opacity="1.000000" stroke-width="0.321429" stroke-linejoin="round"/>
		</g>
		<g mask="url(#mask107628_1062)">
			<path id="Vector 126" d="M20.13 11.42L22.06 11.42" stroke="#FBE04B" stroke-opacity="1.000000" stroke-width="0.321429" stroke-linejoin="round"/>
		</g>
	</g>
</svg>
