<svg width="28.000000" height="28.000000" viewBox="0 0 28 28" fill="none" xmlns="http://www.w3.org/2000/svg" xmlns:xlink="http://www.w3.org/1999/xlink">
	<desc>
			Created with Pixso.
	</desc>
	<defs/>
	<rect id="Honduras" width="28.000000" height="28.000000" fill="#FFFFFF" fill-opacity="0"/>
	<rect id="Mask" y="4.000000" rx="3.000000" width="28.000000" height="20.000000" fill="#FFFFFF" fill-opacity="1.000000"/>
	<rect id="Mask" x="0.250000" y="4.250000" rx="3.000000" width="27.500000" height="19.500000" stroke="#D6D8DD" stroke-opacity="1.000000" stroke-width="0.500000"/>
	<mask id="mask108089_1125" mask-type="alpha" maskUnits="userSpaceOnUse" x="0.000000" y="4.000000" width="28.000000" height="20.000000">
		<rect id="Mask" y="4.000000" rx="3.000000" width="28.000000" height="20.000000" fill="#FFFFFF" fill-opacity="1.000000"/>
		<rect id="Mask" x="0.250000" y="4.250000" rx="3.000000" width="27.500000" height="19.500000" stroke="#F5F5F5" stroke-opacity="1.000000" stroke-width="0.500000"/>
	</mask>
	<g mask="url(#mask108089_1125)">
		<path id="Rectangle 2" d="M0 10.66L28 10.66L28 4L0 4L0 10.66Z" fill="#0884E6" fill-opacity="1.000000" fill-rule="evenodd"/>
		<path id="Rectangle 2" d="M28 10.66L28 4L0 4L0 10.66L28 10.66Z" stroke="#979797" stroke-opacity="0" stroke-width="0.000000"/>
	</g>
	<g mask="url(#mask108089_1125)">
		<path id="Rectangle 2" d="M0 24L28 24L28 17.33L0 17.33L0 24Z" fill="#0884E6" fill-opacity="1.000000" fill-rule="evenodd"/>
		<path id="Rectangle 2" d="M28 24L28 17.33L0 17.33L0 24L28 24Z" stroke="#979797" stroke-opacity="0" stroke-width="0.000000"/>
	</g>
	<g mask="url(#mask108089_1125)">
		<path id="Star 20" d="M14 14.66L13.05 14.94L13.33 13.99L13.05 13.05L14 13.33L14.94 13.05L14.66 13.99L14.94 14.94L14 14.66Z" fill="#0E88E9" fill-opacity="1.000000" fill-rule="evenodd"/>
		<path id="Star 20" d="M13.05 14.94L13.33 13.99L13.05 13.05L14 13.33L14.94 13.05L14.66 13.99L14.94 14.94L14 14.66L13.05 14.94Z" stroke="#979797" stroke-opacity="0" stroke-width="0.000000"/>
	</g>
	<g mask="url(#mask108089_1125)">
		<path id="Star 20 Copy" d="M19.33 13.33L18.39 13.6L18.66 12.66L18.39 11.72L19.33 12L20.27 11.72L20 12.66L20.27 13.6L19.33 13.33Z" fill="#0E88E9" fill-opacity="1.000000" fill-rule="evenodd"/>
		<path id="Star 20 Copy" d="M18.39 13.6L18.66 12.66L18.39 11.72L19.33 12L20.27 11.72L20 12.66L20.27 13.6L19.33 13.33L18.39 13.6Z" stroke="#979797" stroke-opacity="0" stroke-width="0.000000"/>
	</g>
	<g mask="url(#mask108089_1125)">
		<path id="Star 20 Copy 2" d="M19.33 16L18.39 16.27L18.66 15.33L18.39 14.39L19.33 14.66L20.27 14.39L20 15.33L20.27 16.27L19.33 16Z" fill="#0E88E9" fill-opacity="1.000000" fill-rule="evenodd"/>
		<path id="Star 20 Copy 2" d="M18.39 16.27L18.66 15.33L18.39 14.39L19.33 14.66L20.27 14.39L20 15.33L20.27 16.27L19.33 16L18.39 16.27Z" stroke="#979797" stroke-opacity="0" stroke-width="0.000000"/>
	</g>
	<g mask="url(#mask108089_1125)">
		<path id="Star 20 Copy 3" d="M8.66 16L7.72 16.27L8 15.33L7.72 14.39L8.66 14.66L9.6 14.39L9.33 15.33L9.6 16.27L8.66 16Z" fill="#0E88E9" fill-opacity="1.000000" fill-rule="evenodd"/>
		<path id="Star 20 Copy 3" d="M7.72 16.27L8 15.33L7.72 14.39L8.66 14.66L9.6 14.39L9.33 15.33L9.6 16.27L8.66 16L7.72 16.27Z" stroke="#979797" stroke-opacity="0" stroke-width="0.000000"/>
	</g>
	<g mask="url(#mask108089_1125)">
		<path id="Star 20 Copy 4" d="M8.66 13.33L7.72 13.6L8 12.66L7.72 11.72L8.66 12L9.6 11.72L9.33 12.66L9.6 13.6L8.66 13.33Z" fill="#0E88E9" fill-opacity="1.000000" fill-rule="evenodd"/>
		<path id="Star 20 Copy 4" d="M7.72 13.6L8 12.66L7.72 11.72L8.66 12L9.6 11.72L9.33 12.66L9.6 13.6L8.66 13.33L7.72 13.6Z" stroke="#979797" stroke-opacity="0" stroke-width="0.000000"/>
	</g>
</svg>
