<svg width="28.000000" height="28.000000" viewBox="0 0 28 28" fill="none" xmlns="http://www.w3.org/2000/svg" xmlns:xlink="http://www.w3.org/1999/xlink">
	<desc>
			Created with Pixso.
	</desc>
	<defs/>
	<rect id="Hong Kong" width="28.000000" height="28.000000" fill="#FFFFFF" fill-opacity="0"/>
	<g opacity="0.330000">
		<rect id="Mask" y="4.000000" rx="3.000000" width="28.000000" height="20.000000" fill="#FFFFFF" fill-opacity="1.000000"/>
		<rect id="Mask" y="4.000000" rx="3.000000" width="28.000000" height="20.000000" stroke="#979797" stroke-opacity="0" stroke-width="0.000000"/>
	</g>
	<mask id="mask108089_1182" mask-type="alpha" maskUnits="userSpaceOnUse" x="0.000000" y="4.000000" width="28.000000" height="20.000000">
		<rect id="Mask" y="4.000000" rx="3.000000" width="28.000000" height="20.000000" fill="#FFFFFF" fill-opacity="1.000000"/>
		<rect id="Mask" y="4.000000" rx="3.000000" width="28.000000" height="20.000000" stroke="#979797" stroke-opacity="0" stroke-width="0.000000"/>
	</mask>
	<g mask="url(#mask108089_1182)">
		<path id="Rectangle 2" d="M0 24L28 24L28 4L0 4L0 24Z" fill="#F0371D" fill-opacity="1.000000" fill-rule="evenodd"/>
		<path id="Rectangle 2" d="M28 24L28 4L0 4L0 24L28 24Z" stroke="#979797" stroke-opacity="0" stroke-width="0.000000"/>
	</g>
	<g mask="url(#mask108089_1182)">
		<mask id="mask_108089_1184" fill="white">
			<path id="Oval 145" d="M15.2361 10.4496C15.0054 11.1596 14.9468 11.3398 13.9841 12.1457C13.3708 12.659 13.5818 13.1012 13.6819 13.3111C13.739 13.4307 13.7601 13.4749 13.572 13.4138C12.5215 13.0724 12.0388 11.6603 12.494 10.2596C12.949 8.85895 14.1696 8.00018 15.2201 8.34149C14.9893 9.05194 15.1022 9.45667 15.1946 9.78815C15.2588 10.018 15.3131 10.2126 15.2361 10.4496ZM14.0436 10.0621C14.2188 10.119 14.3146 10.3071 14.2576 10.4822C14.2007 10.6572 14.0127 10.7531 13.8376 10.6962C13.6625 10.6393 13.5667 10.4512 13.6236 10.2761C13.6805 10.1011 13.8686 10.0052 14.0436 10.0621ZM10.764 11.9027C11.3679 12.3415 11.5212 12.4529 11.9901 13.6176C12.2888 14.3595 12.7745 14.2955 13.0051 14.2651C13.1365 14.2477 13.1851 14.2413 13.0688 14.4013C12.4196 15.2949 10.9274 15.3176 9.7359 14.452C8.54437 13.5862 8.1048 12.1601 8.75409 11.2665C9.35846 11.7056 9.7782 11.7233 10.122 11.7377C10.3605 11.7477 10.5624 11.7562 10.764 11.9027ZM16.0001 13.5872C17.064 14.2538 17.2535 14.2538 18.0001 14.2538C18.6085 14.2538 18.7349 13.5872 20.0001 13.5872C20.0001 12.4825 18.8062 11.5872 17.3334 11.5872C15.8606 11.5872 14.6667 12.4825 14.6667 13.5872C14.6667 13.7849 14.7022 13.7512 14.7983 13.6599C14.967 13.4998 15.3223 13.1625 16.0001 13.5872ZM18.0001 12.9999C18.0001 13.1841 17.8508 13.3333 17.6667 13.3333C17.4826 13.3333 17.3334 13.1841 17.3334 12.9999C17.3334 12.8159 17.4826 12.6666 17.6667 12.6666C17.8508 12.6666 18.0001 12.8159 18.0001 12.9999ZM10.027 12.9171C10.1352 12.7681 10.3437 12.7351 10.4926 12.8433C10.6415 12.9515 10.6746 13.16 10.5663 13.309C10.4581 13.4579 10.2497 13.4909 10.1007 13.3827C9.95178 13.2745 9.91876 13.066 10.027 12.9171ZM15.2361 18.058C15.0054 17.3481 14.9468 17.1678 15.2521 15.95C15.4465 15.1742 15.0159 14.9405 14.8115 14.8295C14.6951 14.7663 14.652 14.743 14.8401 14.6819C15.8906 14.3405 17.1111 15.1993 17.5662 16.6C18.0214 18.0007 17.5387 19.4128 16.4882 19.7542C16.0972 18.551 15.4241 18.6368 15.2361 18.058ZM10.764 16.605C11.3679 16.1661 11.5212 16.0547 12.7739 15.9688C13.5717 15.9139 13.6609 15.4322 13.7032 15.2035C13.7274 15.0732 13.7363 15.025 13.8525 15.185C14.5018 16.0786 14.0623 17.5048 12.8707 18.3705C11.6793 19.2361 10.187 19.2135 9.53778 18.3199C10.5613 17.5762 10.2717 16.9626 10.764 16.605ZM16.4286 17.6706C16.2535 17.7275 16.0654 17.6317 16.0085 17.4566C15.9517 17.2815 16.0475 17.0934 16.2225 17.0366C16.3976 16.9797 16.5857 17.0755 16.6426 17.2505C16.6995 17.4257 16.6036 17.6137 16.4286 17.6706ZM11.501 17.6193C11.3928 17.4704 11.4258 17.262 11.5747 17.1537C11.7236 17.0455 11.9321 17.0786 12.0403 17.2275C12.1485 17.3764 12.1155 17.5849 11.9666 17.6931C11.8176 17.8013 11.6091 17.7682 11.501 17.6193Z" clip-rule="evenodd" fill="" fill-opacity="1.000000" fill-rule="evenodd"/>
		</mask>
		<path id="Oval 145" d="M15.2361 10.4496C15.0054 11.1596 14.9468 11.3398 13.9841 12.1457C13.3708 12.659 13.5818 13.1012 13.6819 13.3111C13.739 13.4307 13.7601 13.4749 13.572 13.4138C12.5215 13.0724 12.0388 11.6603 12.494 10.2596C12.949 8.85895 14.1696 8.00018 15.2201 8.34149C14.9893 9.05194 15.1022 9.45667 15.1946 9.78815C15.2588 10.018 15.3131 10.2126 15.2361 10.4496ZM14.0436 10.0621C14.2188 10.119 14.3146 10.3071 14.2576 10.4822C14.2007 10.6572 14.0127 10.7531 13.8376 10.6962C13.6625 10.6393 13.5667 10.4512 13.6236 10.2761C13.6805 10.1011 13.8686 10.0052 14.0436 10.0621ZM10.764 11.9027C11.3679 12.3415 11.5212 12.4529 11.9901 13.6176C12.2888 14.3595 12.7745 14.2955 13.0051 14.2651C13.1365 14.2477 13.1851 14.2413 13.0688 14.4013C12.4196 15.2949 10.9274 15.3176 9.7359 14.452C8.54437 13.5862 8.1048 12.1601 8.75409 11.2665C9.35846 11.7056 9.7782 11.7233 10.122 11.7377C10.3605 11.7477 10.5624 11.7562 10.764 11.9027ZM16.0001 13.5872C17.064 14.2538 17.2535 14.2538 18.0001 14.2538C18.6085 14.2538 18.7349 13.5872 20.0001 13.5872C20.0001 12.4825 18.8062 11.5872 17.3334 11.5872C15.8606 11.5872 14.6667 12.4825 14.6667 13.5872C14.6667 13.7849 14.7022 13.7512 14.7983 13.6599C14.967 13.4998 15.3223 13.1625 16.0001 13.5872ZM18.0001 12.9999C18.0001 13.1841 17.8508 13.3333 17.6667 13.3333C17.4826 13.3333 17.3334 13.1841 17.3334 12.9999C17.3334 12.8159 17.4826 12.6666 17.6667 12.6666C17.8508 12.6666 18.0001 12.8159 18.0001 12.9999ZM10.027 12.9171C10.1352 12.7681 10.3437 12.7351 10.4926 12.8433C10.6415 12.9515 10.6746 13.16 10.5663 13.309C10.4581 13.4579 10.2497 13.4909 10.1007 13.3827C9.95178 13.2745 9.91876 13.066 10.027 12.9171ZM15.2361 18.058C15.0054 17.3481 14.9468 17.1678 15.2521 15.95C15.4465 15.1742 15.0159 14.9405 14.8115 14.8295C14.6951 14.7663 14.652 14.743 14.8401 14.6819C15.8906 14.3405 17.1111 15.1993 17.5662 16.6C18.0214 18.0007 17.5387 19.4128 16.4882 19.7542C16.0972 18.551 15.4241 18.6368 15.2361 18.058ZM10.764 16.605C11.3679 16.1661 11.5212 16.0547 12.7739 15.9688C13.5717 15.9139 13.6609 15.4322 13.7032 15.2035C13.7274 15.0732 13.7363 15.025 13.8525 15.185C14.5018 16.0786 14.0623 17.5048 12.8707 18.3705C11.6793 19.2361 10.187 19.2135 9.53778 18.3199C10.5613 17.5762 10.2717 16.9626 10.764 16.605ZM16.4286 17.6706C16.2535 17.7275 16.0654 17.6317 16.0085 17.4566C15.9517 17.2815 16.0475 17.0934 16.2225 17.0366C16.3976 16.9797 16.5857 17.0755 16.6426 17.2505C16.6995 17.4257 16.6036 17.6137 16.4286 17.6706ZM11.501 17.6193C11.3928 17.4704 11.4258 17.262 11.5747 17.1537C11.7236 17.0455 11.9321 17.0786 12.0403 17.2275C12.1485 17.3764 12.1155 17.5849 11.9666 17.6931C11.8176 17.8013 11.6091 17.7682 11.501 17.6193Z" clip-rule="evenodd" fill="#FFFFFF" fill-opacity="1.000000" fill-rule="evenodd" mask="url(#mask_108089_1184)"/>
		<path id="Oval 145" d="" fill="#979797" fill-opacity="0.000000" fill-rule="nonzero"/>
	</g>
</svg>
