<svg viewBox="0 0 28 28" xmlns="http://www.w3.org/2000/svg" xmlns:xlink="http://www.w3.org/1999/xlink" width="28.000000" height="28.000000" fill="none" customFrame="#000000">
	<defs>
		<filter id="pixso_custom_mask_type_alpha">
			<feColorMatrix type="matrix" values="0 0 0 0 1 0 0 0 0 1 0 0 0 0 1 0 0 0 1 0 " />
		</filter>
	</defs>
	<mask id="mask_421" width="28.000000" height="20.000000" x="0.000000" y="4.000000" maskUnits="userSpaceOnUse">
		<g filter="url(#pixso_custom_mask_type_alpha)">
			<rect id="Mask" width="28.000000" height="20.000000" x="0.000000" y="4.000000" rx="3.000000" fill="rgb(255,255,255)" />
			<rect id="Mask" width="27.500000" height="19.500000" x="0.250000" y="4.250000" rx="2.750000" stroke="rgb(245,245,245)" stroke-width="0.5" />
		</g>
	</mask>
	<rect id="Iraq" width="28.000000" height="28.000000" x="0.000000" y="0.000000" fill="rgb(255,255,255)" fill-opacity="0" />
	<rect id="Mask" width="28.000000" height="20.000000" x="0.000000" y="4.000000" rx="3.000000" fill="rgb(255,255,255)" />
	<rect id="Mask" width="27.500000" height="19.500000" x="0.250000" y="4.250000" rx="2.750000" stroke="rgb(214,216,221)" stroke-width="0.5" />
	<g mask="url(#mask_421)">
		<path id="Rectangle 2" d="M0 10.6667L28 10.6667L28 4L0 4L0 10.6667Z" fill="rgb(223,30,53)" fill-rule="evenodd" />
		<path id="Rectangle 2" d="M28 10.6667L28 4L0 4L0 10.6667L28 10.6667Z" fill-rule="evenodd" stroke="rgb(150.96,150.96,150.96)" stroke-opacity="0" stroke-width="0" />
		<path id="Rectangle 2" d="M0 24L28 24L28 17.3333L0 17.3333L0 24Z" fill="rgb(38,38,38)" fill-rule="evenodd" />
		<path id="Rectangle 2" d="M28 24L28 17.3333L0 17.3333L0 24L28 24Z" fill-rule="evenodd" stroke="rgb(150.96,150.96,150.96)" stroke-opacity="0" stroke-width="0" />
		<path id="Rectangle 213" d="M18.6667 12.5393C18.6667 12.2916 18.9274 12.1304 19.1491 12.2412L19.8157 12.5745C19.9287 12.631 20 12.7464 20 12.8727L20 15.6667C20 15.8508 19.8508 16 19.6667 16L19 16C18.8159 16 18.6667 15.8508 18.6667 15.6667L18.6667 12.5393Z" fill="rgb(15,122,64)" fill-rule="evenodd" />
		<path id="Rectangle 213" d="M19.8157 12.5745C19.9287 12.631 20 12.7464 20 12.8727L20 15.6667C20 15.8508 19.8508 16 19.6667 16L19 16C18.8159 16 18.6667 15.8508 18.6667 15.6667L18.6667 12.5393C18.6667 12.2916 18.9274 12.1304 19.1491 12.2412L19.8157 12.5745Z" fill-rule="evenodd" stroke="rgb(150.96,150.96,150.96)" stroke-opacity="0" stroke-width="0" />
		<path id="Rectangle 213" d="M10.6667 12.5393C10.6667 12.2916 10.9274 12.1304 11.1491 12.2412L11.8157 12.5745C11.9287 12.631 12 12.7464 12 12.8727L12 15.6667C12 15.8508 11.8508 16 11.6667 16L11 16C10.8159 16 10.6667 15.8508 10.6667 15.6667L10.6667 12.5393Z" fill="rgb(15,122,64)" fill-rule="evenodd" />
		<path id="Rectangle 213" d="M11.8157 12.5745C11.9287 12.631 12 12.7464 12 12.8727L12 15.6667C12 15.8508 11.8508 16 11.6667 16L11 16C10.8159 16 10.6667 15.8508 10.6667 15.6667L10.6667 12.5393C10.6667 12.2916 10.9274 12.1304 11.1491 12.2412L11.8157 12.5745Z" fill-rule="evenodd" stroke="rgb(150.96,150.96,150.96)" stroke-opacity="0" stroke-width="0" />
		<path id="Rectangle 213" d="M16 12.8727C16 12.7464 16.0713 12.631 16.1843 12.5745L16.8509 12.2412C17.0726 12.1304 17.3333 12.2916 17.3333 12.5393L17.3333 15.6667C17.3333 15.8508 17.1841 16 17 16L16.3333 16C16.1492 16 16 15.8508 16 15.6667L16 12.8727Z" fill="rgb(15,122,64)" fill-rule="evenodd" />
		<path id="Rectangle 213" d="M16.8509 12.2412C17.0726 12.1304 17.3333 12.2916 17.3333 12.5393L17.3333 15.6667C17.3333 15.8508 17.1841 16 17 16L16.3333 16C16.1492 16 16 15.8508 16 15.6667L16 12.8727C16 12.7464 16.0713 12.631 16.1843 12.5745L16.8509 12.2412Z" fill-rule="evenodd" stroke="rgb(150.96,150.96,150.96)" stroke-opacity="0" stroke-width="0" />
		<path id="Rectangle 213" d="M13.3333 14.206C13.3333 14.0797 13.4047 13.9643 13.5176 13.9078L14.1843 13.5745C14.4059 13.4637 14.6667 13.6249 14.6667 13.8727L14.6667 14.7264L16.6667 14.7264L16.6667 16L14.6667 16L13.6667 16C13.4826 16 13.3333 15.8507 13.3333 15.6666L13.3333 14.206Z" fill="rgb(15,122,64)" fill-rule="evenodd" />
		<path id="Rectangle 213" d="M14.1843 13.5745C14.4059 13.4637 14.6667 13.6249 14.6667 13.8727L14.6667 14.7264L16.6667 14.7264L16.6667 16L14.6667 16L13.6667 16C13.4826 16 13.3333 15.8507 13.3333 15.6666L13.3333 14.206C13.3333 14.0797 13.4047 13.9643 13.5176 13.9078L14.1843 13.5745Z" fill-rule="evenodd" stroke="rgb(150.96,150.96,150.96)" stroke-opacity="0" stroke-linejoin="bevel" stroke-width="0" />
		<path id="Rectangle 213" d="M8 14.206C8 14.0797 8.07133 13.9643 8.18426 13.9078L8.85093 13.5745C9.07256 13.4637 9.33333 13.6249 9.33333 13.8727L9.33333 14.7264L11.3333 14.7264L11.3333 16L9.33333 16L8.33333 16C8.14924 16 8 15.8507 8 15.6666L8 14.206Z" fill="rgb(15,122,64)" fill-rule="evenodd" />
		<path id="Rectangle 213" d="M8.85093 13.5745C9.07256 13.4637 9.33333 13.6249 9.33333 13.8727L9.33333 14.7264L11.3333 14.7264L11.3333 16L9.33333 16L8.33333 16C8.14924 16 8 15.8507 8 15.6666L8 14.206C8 14.0797 8.07133 13.9643 8.18426 13.9078L8.85093 13.5745Z" fill-rule="evenodd" stroke="rgb(150.96,150.96,150.96)" stroke-opacity="0" stroke-linejoin="bevel" stroke-width="0" />
	</g>
</svg>
