<svg width="28" height="28" viewBox="0 0 28 28" fill="none" xmlns="http://www.w3.org/2000/svg">
<rect y="4" width="28" height="20" rx="3" fill="#D01129"/>
<mask id="mask0_17_5329" style="mask-type:luminance" maskUnits="userSpaceOnUse" x="0" y="4" width="28" height="20">
<rect y="4" width="28" height="20" rx="3" fill="white"/>
</mask>
<g mask="url(#mask0_17_5329)">
<path fill-rule="evenodd" clip-rule="evenodd" d="M13.8881 14.0409C14.5491 14.0409 15.0849 13.4783 15.0849 12.7845C15.0849 12.0905 14.5491 11.528 13.8881 11.528C13.2272 11.528 12.6915 12.0905 12.6915 12.7845C12.6915 13.4783 13.2272 14.0409 13.8881 14.0409Z" fill="#FFF101"/>
<path fill-rule="evenodd" clip-rule="evenodd" d="M12.7973 12.2793C13.1362 12.1658 13.5759 12.2979 13.8652 12.5894C14.1723 12.5307 14.4802 12.1258 14.5756 11.7653C14.4708 10.5674 13.7244 9.65986 13.4975 9.03711C13.4257 8.84029 13.093 8.53081 12.747 8.67491C12.4625 8.79344 12.3186 8.70121 11.363 9.20164C10.8463 9.47222 10.4114 9.75014 10.1822 9.79858C9.95294 9.84702 9.71108 9.8902 9.5277 9.73937C9.27546 9.53191 8.99259 9.47454 8.82599 9.31821C8.62187 9.12665 8.49092 8.98206 8.35286 8.92347C8.2148 8.86475 7.9811 8.99515 8.07977 9.30549C8.30242 10.0064 8.82727 10.1199 9.05259 10.7751C9.15896 11.0848 9.31018 11.3176 9.64816 11.0829C9.98614 10.8481 10.4638 10.5363 11.2782 10.5035C11.8251 10.4814 12.3902 10.2703 12.6499 9.92384C12.6473 10.2235 12.748 10.4692 12.7214 10.859C12.695 11.249 12.6992 11.734 12.7973 12.2793Z" fill="white"/>
<path fill-rule="evenodd" clip-rule="evenodd" d="M13.438 12.3122C13.3375 11.7224 13.5196 11.6374 13.3022 10.9462C13.1715 10.5305 13.088 10.0095 13.0859 9.76709L12.9985 9.79376C13.0006 10.0362 13.0843 10.5573 13.2149 10.973C13.4251 11.6413 13.2617 11.7429 13.3416 12.2822C13.3663 12.2875 13.4182 12.3048 13.438 12.3122Z" fill="#FFF101"/>
<path fill-rule="evenodd" clip-rule="evenodd" d="M12.9235 12.2475C12.9242 12.1725 12.9196 12.0942 12.9086 12.0269C13.0622 11.9882 13.3254 12.1373 13.3181 12.0265C13.3159 11.9914 13.3192 11.8778 13.3213 11.8177C13.318 11.9117 12.952 11.7529 12.889 11.7939C12.8213 11.4508 12.9052 11.0978 12.8515 10.8824C12.9737 10.8473 13.1983 10.9238 13.1708 10.8233C13.1552 10.7718 13.1254 10.6437 13.1057 10.5636C13.1249 10.6475 12.9465 10.578 12.8862 10.626C12.8549 10.4399 12.8091 10.0869 12.81 9.92554L12.6499 9.92383C12.6474 10.2235 12.748 10.4691 12.7215 10.859C12.695 11.249 12.6992 11.734 12.7973 12.2793C12.8324 12.2685 12.8902 12.2547 12.9235 12.2475Z" fill="#FFF101"/>
<path fill-rule="evenodd" clip-rule="evenodd" d="M12.5192 9.50802C12.2806 9.86974 11.7106 10.1194 11.1837 10.1746C10.5669 10.2392 10.1529 10.4547 9.84797 10.6657C9.82176 10.6162 9.77445 10.5895 9.73263 10.5568C9.28653 10.2099 9.46991 9.73983 9.63884 9.80698C9.57511 9.78105 9.53807 9.74607 9.50323 9.71977C9.44428 9.67389 9.27418 9.84967 9.2955 10.1288C9.30459 10.2477 9.40152 10.4231 9.4804 10.5161C9.3364 10.4886 9.26743 10.4499 9.18284 10.3426C9.23038 10.3116 9.29189 10.294 9.34152 10.2899C9.32463 10.2474 9.3011 10.2001 9.2955 10.1288C9.22502 10.1282 9.13904 10.154 9.06529 10.2066C8.88832 10.0215 8.70611 9.87389 8.60044 9.65542C8.43139 9.30545 8.60335 9.08454 8.82599 9.31818C8.62187 9.12662 8.49092 8.98203 8.35286 8.92344C8.2148 8.86472 7.9811 8.99512 8.07977 9.30545C8.30242 10.0064 8.82727 10.1199 9.05259 10.7751C9.15896 11.0848 9.31577 11.3261 9.64816 11.0828C9.69197 11.0508 9.70362 11.0432 9.74172 11.0148C9.84715 10.9508 10.0142 11.0582 9.9964 11.2918C10.0818 11.0773 10.0273 11.0116 9.9548 10.8831C9.90121 10.913 9.90552 10.7375 9.87244 10.7144C10.0621 10.5906 10.2928 10.4664 10.5838 10.378C10.5945 10.4828 10.622 10.5941 10.7139 10.578C10.7632 10.5665 10.8132 10.5561 10.8658 10.5469C10.7738 10.5631 10.748 10.4412 10.7374 10.3365C10.8753 10.3033 11.0261 10.2781 11.1913 10.2639C11.3816 10.2475 11.5784 10.2069 11.7632 10.1439C11.7907 10.2444 11.8475 10.4138 11.9423 10.3806C12.0263 10.3523 12.1079 10.3204 12.1846 10.2833C12.0528 10.3492 12.001 10.161 11.9693 10.0614C12.2101 9.95145 12.4153 9.80148 12.5379 9.62252L12.5192 9.50802Z" fill="#FFF101"/>
<path fill-rule="evenodd" clip-rule="evenodd" d="M13.5731 9.68759C13.6894 9.59291 13.7893 9.54814 13.6889 9.34765C13.5249 9.01982 13.6268 9.0187 13.2676 8.81014C12.9018 8.59803 12.9481 8.58139 12.464 8.76059C12.3449 8.80463 12.3715 8.84965 12.3923 9.03093C12.4372 9.42163 12.5225 9.73627 12.6004 10.0577C12.9047 10.016 13.3729 9.85089 13.5731 9.68759Z" fill="#FFF101"/>
<path fill-rule="evenodd" clip-rule="evenodd" d="M12.4375 9.59881C12.3737 9.407 12.3908 9.43306 12.6222 9.49153C12.6979 9.23869 12.8025 9.02528 12.8611 8.82063C12.9266 8.59152 12.9471 8.5503 13.0434 8.60644C13.1667 8.67813 13.3021 8.75384 13.3903 8.79935C13.5443 8.87861 13.5216 8.90638 13.448 9.03238C13.3745 9.15837 13.1341 9.41373 12.9858 9.68015C13.1814 9.82474 13.2442 9.83783 13.1052 9.90009C12.9497 9.9697 12.6913 10.0559 12.5824 10.0764C12.5625 9.95049 12.4982 9.78071 12.4375 9.59881Z" fill="#FFF101"/>
<path fill-rule="evenodd" clip-rule="evenodd" d="M10.1409 11.4024L10.1255 11.5998L9.98695 11.4676L9.832 11.5781L9.84225 11.3812L9.66388 11.3245L9.81627 11.2098L9.74904 11.0268L9.92788 11.0816L10.0224 10.9122L10.0941 11.0931L10.2787 11.0639L10.1883 11.2365L10.3243 11.3698L10.1409 11.4024Z" fill="#FFF101"/>
<path fill-rule="evenodd" clip-rule="evenodd" d="M14.017 14.029C13.7538 13.7775 13.6429 13.3117 13.7388 12.9029C13.5367 12.6531 13.0488 12.5754 12.7037 12.6689C11.7681 13.3633 11.3927 14.4957 10.9925 15.0135C10.866 15.1771 10.7771 15.6343 11.069 15.8769C11.309 16.0763 11.305 16.2532 12.1954 16.8719C12.6769 17.2065 13.1236 17.463 13.2782 17.6472C13.4329 17.8314 13.5894 18.0299 13.5567 18.2719C13.5117 18.605 13.6057 18.891 13.5602 19.1205C13.5041 19.4018 13.4504 19.5933 13.471 19.7481C13.4918 19.903 13.716 20.0503 13.9227 19.8054C14.3894 19.2525 14.2207 18.7185 14.6485 18.1861C14.8507 17.9344 14.9672 17.6805 14.6046 17.4905C14.2419 17.3007 13.746 17.0221 13.3116 16.2982C13.02 15.812 12.5633 15.4036 12.1476 15.3407C12.3962 15.1933 12.5485 14.9788 12.8834 14.808C13.2182 14.6371 13.6162 14.391 14.017 14.029Z" fill="white"/>
<path fill-rule="evenodd" clip-rule="evenodd" d="M13.7236 13.43C13.2875 13.8162 13.1263 13.693 12.6648 14.2364C12.3874 14.5631 11.9995 14.8996 11.8005 15.0227L11.8662 15.0887C12.0652 14.9657 12.4531 14.6291 12.7307 14.3024C13.1769 13.777 13.3423 13.8749 13.7473 13.5325C13.7392 13.5075 13.7275 13.4516 13.7236 13.43Z" fill="#FFF101"/>
<path fill-rule="evenodd" clip-rule="evenodd" d="M13.9275 13.9302C13.8654 13.967 13.8031 14.0103 13.7531 14.054C13.6443 13.9336 13.6357 13.6197 13.5481 13.682C13.5201 13.7013 13.4248 13.7551 13.374 13.7833C13.4535 13.7393 13.5053 14.1515 13.5707 14.1883C13.3215 14.4214 12.9884 14.5216 12.8376 14.6782C12.7476 14.5845 12.6984 14.3422 12.6292 14.4174C12.5946 14.4573 12.5038 14.5484 12.4476 14.6064C12.5072 14.5469 12.539 14.7439 12.6087 14.7747C12.471 14.8963 12.2027 15.1144 12.069 15.1943L12.1477 15.3407C12.3962 15.1933 12.5486 14.9789 12.8834 14.808C13.2182 14.6371 13.6162 14.391 14.017 14.029C13.9905 14.0025 13.9501 13.9568 13.9275 13.9302Z" fill="#FFF101"/>
<path fill-rule="evenodd" clip-rule="evenodd" d="M11.8701 15.6674C12.2878 15.7035 12.7787 16.0969 13.0876 16.5485C13.4493 17.0771 13.8342 17.3457 14.1606 17.5174C14.1329 17.5661 14.1345 17.6224 14.1286 17.6768C14.0654 18.2559 13.586 18.3242 13.5569 18.137C13.5674 18.208 13.557 18.2591 13.5528 18.304C13.5444 18.3806 13.7745 18.4472 13.994 18.2883C14.0876 18.2206 14.1837 18.0448 14.2211 17.9266C14.2703 18.0712 14.2728 18.1533 14.2268 18.2838C14.1773 18.2562 14.1321 18.2089 14.1039 18.166C14.0772 18.2026 14.0501 18.2476 13.994 18.2883C14.0287 18.3528 14.0931 18.418 14.1733 18.4587C14.1091 18.7122 14.0785 18.9517 13.951 19.157C13.747 19.4856 13.4787 19.4398 13.5602 19.1205C13.5041 19.4018 13.4504 19.5933 13.471 19.7481C13.4918 19.903 13.7161 20.0503 13.9227 19.8054C14.3894 19.2525 14.2207 18.7185 14.6486 18.1861C14.8507 17.9344 14.9715 17.6712 14.6046 17.4905C14.5562 17.4668 14.5442 17.4601 14.5018 17.4395C14.3962 17.3757 14.4013 17.17 14.6028 17.0695C14.3833 17.0991 14.3564 17.1815 14.2866 17.3117C14.338 17.3453 14.191 17.4292 14.1885 17.471C13.9916 17.3604 13.774 17.2127 13.5554 16.9922C13.6366 16.9302 13.7147 16.8494 13.6552 16.774C13.6211 16.7349 13.5875 16.6946 13.5536 16.6514C13.6131 16.727 13.5256 16.8113 13.4444 16.8734C13.348 16.7647 13.2519 16.6401 13.1575 16.497C13.0488 16.332 12.9169 16.1735 12.7726 16.037C12.8418 15.9616 12.9531 15.8253 12.8783 15.7557C12.813 15.6935 12.7458 15.6351 12.6769 15.5841C12.7972 15.671 12.6677 15.8122 12.6016 15.8908C12.3903 15.7269 12.1641 15.6152 11.9552 15.5933L11.8701 15.6674Z" fill="#FFF101"/>
<path fill-rule="evenodd" clip-rule="evenodd" d="M11.3218 14.6978C11.1854 14.6394 11.2527 14.5605 11.1375 14.752C10.9491 15.065 10.9127 14.9929 10.9204 15.4239C10.9282 15.8624 11.0093 15.7924 11.3992 16.143C11.699 15.9071 12.0568 15.5504 12.2829 15.3187C12.0964 15.0629 11.5565 14.7984 11.3218 14.6978Z" fill="#FFF101"/>
<path fill-rule="evenodd" clip-rule="evenodd" d="M11.9858 15.6963C11.8595 15.8503 11.8725 15.8218 11.805 15.582C11.5586 15.6395 11.3685 15.706 11.1706 15.755C10.9488 15.8099 10.9046 15.8119 10.9026 15.6963C10.9002 15.5483 10.8951 15.3874 10.8884 15.2844C10.8769 15.1049 10.911 15.1115 11.0518 15.1154C11.1925 15.1192 11.4849 15.1555 11.7788 15.1571C11.8002 14.9069 11.7796 14.8433 11.9006 14.9386C12.0356 15.0452 12.236 15.2371 12.3073 15.3258C12.2134 15.4067 12.1056 15.5502 11.9858 15.6963Z" fill="#FFF101"/>
<path fill-rule="evenodd" clip-rule="evenodd" d="M14.6219 16.8829L14.7923 16.7982L14.7526 16.9901L14.9213 17.0758L14.7537 17.1649L14.7961 17.3555L14.6251 17.2743L14.5078 17.4269L14.4637 17.2368L14.2767 17.2356L14.3902 17.08L14.2737 16.9269L14.4613 16.9227L14.5033 16.7324L14.6219 16.8829Z" fill="#FFF101"/>
<path fill-rule="evenodd" clip-rule="evenodd" d="M14.8502 12.0451C14.7745 12.41 14.4456 12.7439 14.0605 12.8612C13.9555 13.1697 14.1353 13.652 14.385 13.9193C15.4255 14.4228 16.5473 14.1979 17.1745 14.3029C17.3728 14.336 17.7943 14.1883 17.8485 13.8016C17.893 13.4837 18.0408 13.399 18.1059 12.2799C18.1411 11.6747 18.1294 11.1403 18.204 10.9076C18.2787 10.675 18.3641 10.4334 18.5801 10.3421C18.8773 10.2165 19.0662 9.98789 19.2784 9.91462C19.5384 9.82483 19.7231 9.77798 19.8405 9.68184C19.9579 9.58569 19.9672 9.30801 19.662 9.24257C18.9725 9.09456 18.6165 9.51499 17.9633 9.39217C17.6547 9.33419 17.387 9.35511 17.4117 9.77994C17.4364 10.2047 17.4547 10.7949 17.0746 11.5517C16.8194 12.0601 16.7109 12.6795 16.8668 13.0889C16.621 12.9366 16.3679 12.9053 16.0597 12.6864C15.7513 12.4673 15.3492 12.2286 14.8502 12.0451Z" fill="white"/>
<path fill-rule="evenodd" clip-rule="evenodd" d="M14.5028 12.6113C15.0394 12.8147 15.0185 13.0229 15.6973 13.1709C16.1056 13.2599 16.5771 13.4443 16.7781 13.5637L16.7997 13.4709C16.5987 13.3515 16.1271 13.1671 15.719 13.0781C15.0625 12.935 15.0605 12.7356 14.5756 12.5385C14.5591 12.5585 14.5188 12.597 14.5028 12.6113Z" fill="#FFF101"/>
<path fill-rule="evenodd" clip-rule="evenodd" d="M14.8134 12.1758C14.8749 12.2139 14.9418 12.2488 15.0027 12.2726C14.958 12.4316 14.7033 12.5965 14.7985 12.645C14.8284 12.6608 14.9204 12.7205 14.9689 12.7526C14.8931 12.7023 15.207 12.4491 15.2048 12.3712C15.5218 12.4813 15.7709 12.7341 15.9754 12.7929C15.9433 12.9216 15.7678 13.0875 15.8645 13.1128C15.9147 13.1243 16.0353 13.1613 16.1113 13.1834C16.0324 13.1589 16.179 13.0315 16.1695 12.9528C16.3387 13.0172 16.6527 13.1521 16.7854 13.2337L16.8668 13.089C16.621 12.9367 16.3679 12.9053 16.0597 12.6864C15.7513 12.4673 15.3492 12.2287 14.8502 12.0452C14.8416 12.0824 14.8241 12.1419 14.8134 12.1758Z" fill="#FFF101"/>
<path fill-rule="evenodd" clip-rule="evenodd" d="M17.275 13.1779C17.096 12.7801 17.1751 12.137 17.3932 11.6302C17.6483 11.0371 17.6774 10.5528 17.6558 10.1702C17.7098 10.1711 17.7554 10.1414 17.8034 10.1196C18.3125 9.88759 18.6085 10.2893 18.4686 10.4093C18.522 10.3643 18.5694 10.3483 18.6084 10.3297C18.6758 10.2988 18.6158 10.0564 18.3749 9.93627C18.2723 9.88502 18.0793 9.88551 17.963 9.91058C18.0578 9.79352 18.1241 9.75022 18.2548 9.72685C18.2568 9.78569 18.2405 9.8504 18.2191 9.89749C18.2626 9.90337 18.3133 9.90557 18.3749 9.93627C18.4107 9.87242 18.4324 9.78141 18.4259 9.68795C18.667 9.6197 18.8799 9.52783 19.1129 9.54104C19.4861 9.5622 19.5824 9.82911 19.2784 9.91462C19.5384 9.82483 19.7231 9.77798 19.8405 9.68184C19.9579 9.58569 19.9672 9.30801 19.662 9.24257C18.9725 9.09456 18.6165 9.51499 17.9633 9.39217C17.6547 9.33419 17.3772 9.35597 17.4117 9.77994C17.4162 9.83584 17.4167 9.85015 17.421 9.89896C17.421 10.0269 17.2489 10.125 17.0653 9.99205C17.1994 10.177 17.2809 10.1602 17.4231 10.1587C17.4252 10.0949 17.5678 10.1865 17.6035 10.1681C17.6108 10.4024 17.5977 10.6743 17.5252 10.9831C17.4334 10.9404 17.3279 10.9097 17.2952 11.0015C17.28 11.052 17.2636 11.1026 17.245 11.155C17.2776 11.0632 17.3909 11.1008 17.4826 11.1435C17.4412 11.2855 17.3865 11.4352 17.3157 11.5925C17.2339 11.7738 17.1691 11.973 17.1287 12.1726C17.032 12.1473 16.8639 12.1143 16.8438 12.2171C16.8252 12.3075 16.8106 12.3978 16.8029 12.486C16.8145 12.3332 16.9956 12.3802 17.0936 12.4011C17.064 12.6751 17.085 12.9366 17.1713 13.1377L17.275 13.1779Z" fill="#FFF101"/>
<path fill-rule="evenodd" clip-rule="evenodd" d="M16.5585 14.0094C16.5786 14.1626 16.5655 14.2757 16.7811 14.2847C17.1335 14.2995 17.1048 14.3451 17.4564 14.1227C17.8142 13.8963 17.8238 13.941 17.918 13.4112C17.9412 13.2809 17.8908 13.2825 17.7308 13.2109C17.3863 13.0562 17.0851 13.0668 16.7811 12.9769C16.6633 13.2745 16.5241 13.7457 16.5585 14.0094Z" fill="#FFF101"/>
<path fill-rule="evenodd" clip-rule="evenodd" d="M17.241 13.0584C17.4313 13.0961 17.4012 13.0986 17.2373 13.2799C17.408 13.4751 17.5386 13.6125 17.6782 13.7681C17.8344 13.9423 17.8581 13.9814 17.7637 14.041C17.6429 14.1172 17.5129 14.2024 17.4312 14.26C17.2887 14.3603 17.2772 14.3258 17.21 14.1959C17.1427 14.0661 17.0454 13.7841 16.8999 13.5162C16.6827 13.6217 16.6406 13.6723 16.6587 13.5148C16.6791 13.3386 16.7373 13.0605 16.7748 12.9514C16.8885 12.9961 17.0607 13.0224 17.241 13.0584Z" fill="#FFF101"/>
<path fill-rule="evenodd" clip-rule="evenodd" d="M16.9017 10.0681L16.7467 9.95548L16.9249 9.89554L16.9112 9.69933L17.0685 9.80722L17.2045 9.6734L17.2229 9.86936L17.4075 9.8997L17.2728 10.035L17.3653 10.2055L17.1802 10.1802L17.112 10.3627L17.0149 10.1941L16.8368 10.2513L16.9017 10.0681Z" fill="#FFF101"/>
<path fill-rule="evenodd" clip-rule="evenodd" d="M13.8601 12.5949C13.5705 12.303 13.1333 12.1748 12.7995 12.2866L12.7901 12.2807C12.7025 11.7934 12.6827 11.3227 12.7142 10.8584C12.7264 10.6788 12.7159 10.5474 12.6807 10.313C12.6661 10.2158 12.6641 10.2022 12.659 10.162C12.6486 10.0812 12.6431 10.0129 12.6426 9.94547C12.3863 10.2704 11.8442 10.4882 11.2785 10.5112C10.6092 10.5381 10.1913 10.7148 9.65219 11.0892C9.3527 11.2972 9.18167 11.1734 9.04575 10.7777C8.95576 10.516 8.84601 10.3649 8.58278 10.0869L8.56253 10.0655C8.28684 9.77412 8.167 9.60418 8.07288 9.30789C7.98499 9.03149 8.17487 8.8395 8.3556 8.91636C8.36791 8.92158 8.38026 8.92752 8.39274 8.9342C8.45094 8.96533 8.51066 9.01135 8.5897 9.08348C8.61677 9.10818 8.69609 9.18395 8.75751 9.24262L8.75753 9.24264L8.75753 9.24265C8.79121 9.27481 8.8195 9.30184 8.83085 9.31249C8.83985 9.32094 8.84915 9.3291 8.85888 9.3371C8.84507 9.32799 8.8307 9.32204 8.81599 9.31903L8.74751 9.25375C8.68613 9.19512 8.60707 9.11959 8.58015 9.09502C8.50193 9.02364 8.44305 8.97827 8.38613 8.94782C8.37402 8.94134 8.36205 8.93559 8.35014 8.93054C8.18103 8.85861 8.00271 9.03892 8.0867 9.30305C8.17993 9.59657 8.29863 9.76488 8.57286 10.0547L8.59311 10.0761C8.85773 10.3556 8.96854 10.5081 9.05945 10.7725C9.19264 11.1603 9.35464 11.2775 9.64416 11.0765C10.1853 10.7006 10.6056 10.5229 11.2779 10.4959C11.8495 10.4727 12.3966 10.2494 12.6442 9.91909L12.6572 9.92389C12.6566 9.99765 12.662 10.0712 12.6734 10.1599C12.6785 10.2 12.6805 10.2136 12.6951 10.3106C12.7304 10.5461 12.7411 10.6785 12.7287 10.8595C12.6975 11.3199 12.7168 11.7865 12.8029 12.2694L12.7951 12.272L12.8045 12.2779L12.8029 12.2694C13.141 12.1604 13.5791 12.2906 13.8639 12.5819C14.1515 12.5269 14.4674 12.1456 14.5684 11.766C14.5185 11.1962 14.3345 10.681 14.0037 10.0482C13.9526 9.95051 13.8132 9.69426 13.7456 9.56993L13.7084 9.50159C13.603 9.30433 13.5364 9.16531 13.4907 9.03982C13.396 8.78 13.0417 8.56036 12.7497 8.68199C12.7099 8.69855 12.6713 8.71173 12.6289 8.72358C12.6018 8.73117 12.5742 8.73799 12.5365 8.74663C12.1476 8.83566 11.9323 8.91202 11.3663 9.20846L11.3185 9.23361C11.2097 9.29122 10.9476 9.43591 10.7844 9.52596L10.7842 9.52606C10.7151 9.56425 10.6637 9.5926 10.6494 9.60028C10.4253 9.72104 10.285 9.78464 10.1837 9.80605C9.84871 9.87682 9.67936 9.87379 9.52322 9.74537C9.47405 9.70493 9.42149 9.66835 9.3636 9.6335C9.34866 9.62451 9.3335 9.6157 9.31786 9.60692L9.3225 9.60119L9.32047 9.59105C9.33775 9.6007 9.35442 9.61035 9.37085 9.62024C9.42932 9.65544 9.48245 9.69241 9.5322 9.73333C9.68378 9.858 9.84989 9.86097 10.1808 9.79106C10.2803 9.77003 10.4199 9.70678 10.6428 9.58667C10.657 9.57903 10.7082 9.55075 10.7773 9.51263L10.7774 9.51255L10.7775 9.51253C10.9406 9.4225 11.203 9.27765 11.3119 9.21996L11.3598 9.19477C11.9269 8.89774 12.1433 8.82097 12.5334 8.73169C12.5709 8.7231 12.5983 8.71633 12.6252 8.70881C12.667 8.69711 12.7051 8.6841 12.7443 8.66778C13.0447 8.54267 13.4069 8.76724 13.5043 9.03436C13.5497 9.15899 13.616 9.29745 13.7211 9.4941L13.7581 9.56216C13.8257 9.68638 13.9653 9.94297 14.0164 10.0408C14.3481 10.6754 14.5328 11.1923 14.5826 11.7673C14.4801 12.1548 14.1603 12.5407 13.8601 12.5949ZM9.30487 9.58244L9.32047 9.59105L9.32013 9.58936C9.31505 9.58676 9.30996 9.58446 9.30487 9.58244ZM9.25218 9.57155C9.26966 9.57184 9.28726 9.57544 9.30487 9.58244C9.27818 9.56785 9.24985 9.55312 9.2186 9.53747C9.20343 9.52987 9.16978 9.51341 9.13845 9.49811L9.13809 9.49496C9.1257 9.48907 9.1136 9.48412 9.10174 9.48017L9.07357 9.46638C8.98199 9.42094 8.91944 9.38486 8.86892 9.34516L8.86894 9.34437C8.86562 9.34175 8.86227 9.33933 8.85888 9.3371L8.86892 9.34516L8.8686 9.35685L8.86379 9.36021C8.85961 9.35698 8.85552 9.35373 8.85149 9.35044L8.85159 9.35037C8.85449 9.35229 8.85736 9.35436 8.86019 9.3566L8.86053 9.34412L8.85159 9.35037C8.85127 9.35016 8.85096 9.34995 8.85064 9.34974C8.8404 9.34136 8.83062 9.33278 8.82115 9.32389L8.81599 9.31903C8.72243 9.29985 8.61544 9.39941 8.55465 9.55964L8.56545 9.56884L8.86379 9.36021C8.91023 9.39617 8.96648 9.42926 9.04478 9.4689C8.93087 9.46336 8.83518 9.56968 8.71293 9.84178L8.72402 9.85105L9.13381 9.5127C9.16468 9.52778 9.19745 9.54382 9.21233 9.55127C9.22615 9.55819 9.2394 9.56493 9.25218 9.57155ZM9.29911 9.59652C9.28407 9.58829 9.2685 9.58002 9.25218 9.57155C9.12229 9.5694 8.99869 9.74952 8.92459 10.0701L8.93722 10.0769L9.31786 9.60692L9.30468 9.59958L9.30514 9.59902L9.31377 9.60311L9.31141 9.59128L9.30514 9.59902L9.29911 9.59652ZM8.94636 10.042C9.02941 9.70796 9.16614 9.54479 9.29911 9.59652L9.30468 9.59958L8.94636 10.042ZM8.94636 10.042L8.93875 10.0738L8.92612 10.067L8.94636 10.042ZM9.119 9.50548L9.13381 9.5127L9.13959 9.50793L9.13845 9.49811L9.11904 9.48863L9.10174 9.48017C9.08215 9.47363 9.06323 9.4698 9.04478 9.4689L9.06734 9.48021L9.09667 9.49455C8.96901 9.45261 8.87155 9.53351 8.73957 9.81876L8.71501 9.83903L8.7261 9.8483L8.73957 9.81876L9.119 9.50548ZM9.12098 9.50384C9.11275 9.50028 9.10465 9.49718 9.09667 9.49455L9.11302 9.50256L9.119 9.50548L9.12098 9.50384ZM9.12098 9.50384L9.13209 9.50889L9.13059 9.49591L9.12098 9.50384ZM8.57753 9.54202L8.85149 9.35044C8.85121 9.35021 8.85092 9.34998 8.85064 9.34974C8.763 9.29297 8.64645 9.37947 8.57753 9.54202ZM8.57753 9.54202L8.55738 9.55611L8.56818 9.5653C8.57119 9.55738 8.57431 9.54962 8.57753 9.54202Z" fill="black"/>
<path fill-rule="evenodd" clip-rule="evenodd" d="M13.4174 11.7605C13.407 11.9866 13.4106 12.1082 13.4451 12.3108L13.4355 12.3194C13.4245 12.3153 13.4103 12.3104 13.3955 12.3054C13.3735 12.2978 13.3501 12.2898 13.3344 12.2834C13.3081 12.1057 13.3059 11.995 13.3155 11.7864L13.3174 11.7431C13.329 11.475 13.3086 11.2954 13.2079 10.9754C13.0866 10.5891 12.9935 10.0618 12.9965 9.78642L13.0932 9.76703C13.0955 10.0336 13.1882 10.5591 13.3091 10.9438C13.4104 11.2658 13.431 11.4472 13.4193 11.7171L13.4174 11.7605ZM13.4404 12.305L13.4308 12.3135C13.4301 12.3092 13.4293 12.305 13.4286 12.3007C13.4328 12.3022 13.4368 12.3036 13.4404 12.305ZM13.3431 12.2747C13.3616 12.2787 13.4004 12.2908 13.4286 12.3007C13.3959 12.1043 13.3926 11.9821 13.4028 11.7598L13.4048 11.7164C13.4163 11.4483 13.396 11.2687 13.2953 10.9486C13.1739 10.5625 13.0809 10.0354 13.0879 9.77444L13.0058 9.7937C13.0081 10.06 13.1008 10.5857 13.2218 10.9706C13.3231 11.2925 13.3436 11.4739 13.332 11.7438L13.33 11.7871C13.3205 11.9948 13.3226 12.1046 13.3431 12.2747Z" fill="black"/>
<path fill-rule="evenodd" clip-rule="evenodd" d="M11.7186 9.01062C11.637 9.04736 11.6377 9.17759 11.7036 9.38044C11.7564 9.54266 11.8498 9.74646 11.9622 9.95463L11.9755 9.94881L11.7285 9.0156L11.7186 9.01062ZM12.9157 12.0256C12.9264 12.0906 12.9315 12.1684 12.9308 12.2476L12.9249 12.255L12.9 12.2605C12.8636 12.2687 12.8223 12.2779 12.7901 12.2807C12.7025 11.7934 12.6827 11.3227 12.7142 10.8584C12.7264 10.6789 12.7159 10.5474 12.6807 10.313C12.6661 10.2158 12.6641 10.2022 12.659 10.162C12.6475 10.0726 12.642 9.99834 12.65 9.91618L12.8173 9.92558C12.8165 10.0639 12.853 10.382 12.8915 10.6134C12.9122 10.6019 12.9413 10.5988 12.987 10.5996L13.0057 10.6001C13.0484 10.6013 13.0648 10.6009 13.0798 10.5967C13.097 10.5919 13.1027 10.5833 13.0986 10.5654L13.1127 10.5617C13.1178 10.5824 13.1402 10.6749 13.1388 10.6692L13.1408 10.6777C13.1584 10.75 13.1699 10.7949 13.1778 10.8212C13.187 10.8549 13.1717 10.8745 13.1366 10.8816C13.1118 10.8867 13.0877 10.8864 13.0183 10.8827C12.9981 10.8816 12.9867 10.881 12.9742 10.8806C12.9415 10.8794 12.9146 10.8799 12.8928 10.8802C12.8795 10.8805 12.8681 10.8807 12.8585 10.8804C12.8801 10.9671 12.8815 11.0458 12.8731 11.2677C12.865 11.4833 12.8661 11.5934 12.8845 11.7236C12.8874 11.7437 12.8906 11.7634 12.8943 11.7828C12.9216 11.7724 12.9703 11.781 13.0938 11.81L13.1022 11.812C13.1778 11.8297 13.2173 11.8375 13.2518 11.8398C13.2934 11.8425 13.3134 11.8351 13.3141 11.8174L13.3131 11.8461C13.3 11.8543 13.2789 11.8569 13.2509 11.855C13.2153 11.8526 13.1754 11.8448 13.099 11.8269L13.0907 11.8249C12.9601 11.7942 12.9133 11.7871 12.8928 11.8004L12.8819 11.7955C12.8774 11.7727 12.8735 11.7495 12.8701 11.7258C12.8515 11.5944 12.8504 11.4836 12.8586 11.2671C12.8668 11.047 12.8655 10.9689 12.8496 10.875C12.8816 10.8658 12.9205 10.8634 12.9747 10.8653C12.9873 10.8657 12.9987 10.8663 13.0191 10.8674C13.0869 10.8711 13.1107 10.8713 13.1338 10.8666C13.1613 10.861 13.1704 10.8494 13.1639 10.8256C13.1559 10.7992 13.1444 10.7541 13.1267 10.6815L13.1247 10.673C13.1256 10.677 13.1148 10.6322 13.1066 10.5982C13.114 10.5894 13.1163 10.5774 13.1128 10.5618L13.0986 10.5655L13.1066 10.5982C13.1014 10.6043 13.0936 10.6087 13.0835 10.6115C13.0666 10.6162 13.0497 10.6167 13.0053 10.6154L12.9868 10.6149C12.9367 10.614 12.9082 10.6181 12.8906 10.6321L12.879 10.6273C12.8398 10.3942 12.8019 10.0672 12.8099 9.93318L12.6572 9.92389C12.6566 9.99766 12.662 10.0712 12.6734 10.1599C12.6785 10.2 12.6805 10.2136 12.6951 10.3106C12.7304 10.5461 12.7411 10.6785 12.7287 10.8595C12.6973 11.3225 12.717 11.7919 12.7953 12.272C12.8248 12.2629 12.8755 12.2502 12.9162 12.2413L12.9162 12.2474L12.922 12.24L12.9162 12.2413C12.9167 12.1651 12.9118 12.0903 12.9069 12.0195C12.9478 12.0092 12.9973 12.0109 13.0608 12.022C13.0821 12.0257 13.1034 12.0301 13.1333 12.0368C13.225 12.0574 13.2386 12.06 13.2655 12.0606C13.299 12.0612 13.3124 12.0517 13.3108 12.027C13.3092 12.0006 13.3104 11.9306 13.3131 11.8461C13.3228 11.84 13.3282 11.8307 13.3286 11.8179L13.3141 11.8174L13.3141 11.8174L13.3286 11.8179C13.3253 11.9142 13.3235 11.9974 13.3253 12.0259C13.3277 12.0614 13.3062 12.0767 13.2653 12.0759C13.2369 12.0753 13.2234 12.0727 13.1302 12.0518C13.1005 12.0451 13.0795 12.0407 13.0584 12.0371C12.9966 12.0263 12.9489 12.0246 12.9157 12.0256ZM11.7168 9.02856L11.7145 9.01969L11.7244 9.02467C11.7218 9.02585 11.7192 9.02715 11.7168 9.02856ZM11.9452 9.8915C11.8465 9.70365 11.7651 9.52223 11.7174 9.3755C11.6562 9.1872 11.6534 9.06584 11.7168 9.02856L11.9452 9.8915ZM11.9452 9.8915C11.9549 9.90998 11.9648 9.92851 11.9748 9.94709L11.9615 9.9529L11.9452 9.8915ZM11.7611 10.1484L11.761 10.1485L11.761 10.1485L11.7606 10.1486L11.7655 10.1651C11.8343 10.1382 11.9033 10.1065 11.9722 10.0705L11.9667 10.0543L11.9664 10.0544L11.9664 10.0544L11.9663 10.0545L11.7611 10.1484ZM11.7611 10.1484C11.8294 10.1217 11.8978 10.0903 11.9663 10.0545L11.9664 10.0544L11.9719 10.0706L11.7658 10.165L11.761 10.1485L11.7611 10.1484ZM10.582 10.3766C10.5819 10.3766 10.5819 10.3766 10.5818 10.3767L10.5856 10.3936L10.7392 10.3461L10.7358 10.3291C10.7357 10.3291 10.7356 10.3291 10.7356 10.3291L10.7356 10.3291L10.7355 10.3292C10.683 10.3436 10.6321 10.3593 10.5821 10.3766L10.582 10.3766L10.582 10.3766ZM10.582 10.3766L10.5858 10.3935C10.6357 10.3763 10.6866 10.3605 10.739 10.3461L10.7356 10.3291C10.7355 10.3292 10.7355 10.3292 10.7355 10.3292L10.5821 10.3766C10.5821 10.3766 10.582 10.3766 10.582 10.3766Z" fill="black"/>
<path fill-rule="evenodd" clip-rule="evenodd" d="M11.183 10.167C11.7404 10.1086 12.2878 9.84541 12.5132 9.50368L12.5264 9.50674L12.5439 9.62699C12.4248 9.80076 12.2242 9.95334 11.9762 10.059C11.9756 10.0572 11.9863 10.0911 11.9896 10.1013C11.9953 10.1187 12.0004 10.1336 12.0057 10.1477C12.0495 10.264 12.1011 10.3137 12.1769 10.2786C12.1584 10.2875 12.1394 10.2962 12.1198 10.3047C12.0667 10.2981 12.0263 10.244 11.9922 10.1534C11.9868 10.1389 11.9816 10.1238 11.9758 10.1062C11.9725 10.0959 11.9618 10.062 11.9664 10.0544C12.2162 9.94033 12.4146 9.78934 12.5308 9.62382L12.515 9.52747C12.5185 9.52246 12.5219 9.51743 12.5252 9.51238L12.512 9.50933L12.515 9.52747C12.2809 9.86605 11.7375 10.1243 11.1844 10.1822C10.6497 10.2382 10.2398 10.4037 9.84162 10.6694C9.82502 10.6381 9.8051 10.6196 9.755 10.5829L9.75481 10.5828C9.74154 10.5731 9.73557 10.5687 9.72831 10.563C9.52668 10.4062 9.43443 10.2088 9.44785 10.0261C9.45723 9.89837 9.52054 9.8031 9.59346 9.79356C9.60703 9.80117 9.62109 9.80796 9.63622 9.81412L9.64143 9.79984C9.62529 9.79342 9.60915 9.79151 9.59346 9.79356C9.58029 9.78617 9.56758 9.77801 9.55479 9.7689C9.54274 9.76031 9.51081 9.73525 9.50148 9.72793C9.49996 9.72674 9.49904 9.72602 9.49891 9.72592C9.42848 9.67111 9.28484 9.89344 9.30277 10.1282C9.3109 10.2345 9.39686 10.4061 9.48585 10.511L9.4791 10.5236C9.33185 10.4955 9.26205 10.4551 9.17901 10.3362C9.22178 10.3082 9.27856 10.2892 9.3309 10.2833L9.33481 10.2929L9.33505 10.2925L9.34097 10.2823C9.3377 10.2826 9.33441 10.2829 9.3311 10.2833C9.33103 10.2833 9.33097 10.2833 9.3309 10.2833L9.32017 10.257C9.30976 10.2311 9.30209 10.2084 9.29802 10.1866C9.29486 10.1697 9.29387 10.1533 9.29546 10.1365C9.29328 10.1365 9.29109 10.1365 9.28889 10.1365C9.21791 10.1375 9.13651 10.1649 9.06016 10.212C9.04928 10.2007 9.03802 10.189 9.02615 10.177C9.00574 10.1561 8.95277 10.1034 8.91568 10.0665C8.89739 10.0483 8.88296 10.0339 8.87819 10.0291C8.73546 9.88529 8.65453 9.78414 8.59395 9.65889C8.51389 9.49314 8.50439 9.34218 8.56051 9.26338C8.59792 9.21085 8.6571 9.19999 8.72402 9.2313C8.73204 9.23896 8.73991 9.24648 8.74751 9.25374C8.76102 9.26664 8.77367 9.27872 8.78472 9.28927C8.69643 9.21416 8.61642 9.2104 8.57217 9.27253C8.51999 9.3458 8.52912 9.49087 8.60694 9.65197C8.66661 9.77533 8.74663 9.87535 8.88827 10.0181C8.89301 10.0229 8.90737 10.0372 8.9256 10.0553C8.9627 10.0922 9.0158 10.1451 9.0363 10.166C9.04821 10.1781 9.05951 10.1898 9.06121 10.2003C9.12886 10.1521 9.20986 10.124 9.28809 10.1272C9.27045 9.88276 9.42274 9.64762 9.50749 9.71357C9.50767 9.7137 9.50878 9.71457 9.51059 9.71599C9.52051 9.72377 9.5514 9.748 9.56297 9.75625C9.58806 9.77413 9.61276 9.78817 9.64149 9.79986L9.63628 9.81414C9.55655 9.78245 9.47313 9.88077 9.46237 10.0272C9.44935 10.2045 9.53926 10.3969 9.73699 10.5507C9.7441 10.5563 9.74999 10.5606 9.76313 10.5703L9.76333 10.5704C9.81522 10.6083 9.83631 10.6279 9.84397 10.6593C10.2336 10.3897 10.6457 10.2232 11.183 10.167ZM9.33747 10.298C9.28588 10.3029 9.22894 10.3212 9.18846 10.3378C9.26698 10.4374 9.33119 10.4772 9.46126 10.5045C9.41457 10.4458 9.36984 10.3709 9.33747 10.298ZM8.79477 9.27819C8.77065 9.25763 8.74689 9.242 8.72402 9.2313C8.66735 9.17718 8.60373 9.11654 8.58015 9.09502C8.50193 9.02363 8.44305 8.97827 8.38613 8.94781C8.37402 8.94134 8.36205 8.93558 8.35014 8.93053C8.18103 8.85861 8.00271 9.03891 8.0867 9.30304C8.17993 9.59656 8.29863 9.76487 8.57286 10.0547L8.59311 10.0761C8.85773 10.3556 8.96854 10.5081 9.05945 10.7725C9.12108 10.9519 9.18675 11.0695 9.26979 11.1301C9.36859 11.2022 9.49019 11.1892 9.64401 11.0766C9.66222 11.0632 9.67488 11.0541 9.69617 11.0389L9.69681 11.0384C9.7111 11.0281 9.72234 11.0199 9.73809 11.0082C9.85536 10.937 9.99904 11.0558 10.0047 11.2486C10.0003 11.2615 9.99526 11.2748 9.98969 11.2888L10.0037 11.2924C10.0048 11.2774 10.0051 11.2628 10.0047 11.2486C10.0434 11.1373 10.0407 11.0669 10.0049 10.9899C9.99815 10.9754 9.99021 10.9603 9.97925 10.9408C9.97906 10.9404 9.97883 10.94 9.97859 10.9396C9.97287 10.9295 9.95417 10.8964 9.95824 10.8898C9.93972 10.9002 9.92476 10.8919 9.91422 10.87C9.907 10.855 9.90224 10.837 9.89462 10.8009L9.89277 10.792C9.88311 10.7461 9.87693 10.7267 9.86841 10.7208L9.8686 10.7079C10.0936 10.5611 10.3209 10.45 10.5911 10.3772C10.605 10.5137 10.6402 10.5832 10.7124 10.5705C10.7468 10.5625 10.7804 10.5553 10.814 10.5487C10.8291 10.556 10.8467 10.558 10.867 10.5545C10.8166 10.5633 10.767 10.5735 10.7152 10.5855C10.6304 10.6004 10.5914 10.5234 10.5859 10.3853C10.3294 10.4633 10.1055 10.5721 9.88425 10.7157C9.89277 10.7273 9.89845 10.7481 9.90699 10.7887L9.90884 10.7976C9.91617 10.8324 9.92076 10.8497 9.92722 10.8631C9.93448 10.8782 9.94132 10.882 9.96108 10.8792L9.99179 10.933C10.0029 10.9528 10.011 10.9682 10.018 10.9832C10.0598 11.0733 10.0586 11.1555 10.0031 11.2947L9.98915 11.2912C10.005 11.0842 9.85988 10.952 9.74594 11.0211C9.73069 11.0324 9.71939 11.0407 9.70504 11.051L9.7044 11.0515C9.68311 11.0667 9.6705 11.0758 9.65234 11.0891C9.49392 11.2051 9.36582 11.2188 9.26148 11.1426C9.17529 11.0797 9.10833 10.9599 9.04575 10.7777C8.95576 10.516 8.84601 10.3649 8.58278 10.0868L8.56253 10.0655C8.28684 9.77411 8.167 9.60417 8.07288 9.30788C7.98499 9.03148 8.17487 8.83949 8.3556 8.91636C8.36791 8.92158 8.38026 8.92752 8.39274 8.93419C8.45094 8.96532 8.51066 9.01134 8.5897 9.08348C8.61677 9.10818 8.6961 9.18396 8.75753 9.24263C8.77106 9.25556 8.78372 9.26765 8.79477 9.27819ZM10.8646 10.5394L10.867 10.5545L10.8646 10.5394C10.8646 10.5394 10.8646 10.5394 10.8646 10.5394ZM10.8646 10.5394C10.7932 10.5519 10.7591 10.4785 10.7446 10.3357C10.8816 10.3096 11.0323 10.2852 11.1919 10.2715C11.3849 10.2549 11.582 10.2137 11.7655 10.1511C11.8035 10.3189 11.8607 10.4173 11.9446 10.3878C12.0318 10.3585 12.1107 10.3271 12.1826 10.2927C12.1843 10.2919 12.186 10.2911 12.1877 10.2902L12.1816 10.2764C12.18 10.2771 12.1785 10.2779 12.1769 10.2786C12.1784 10.2779 12.1799 10.2772 12.1815 10.2764L12.1876 10.2903C12.186 10.2911 12.1843 10.2919 12.1826 10.2927C12.1598 10.3032 12.139 10.3071 12.1198 10.3047C12.0642 10.3289 12.0044 10.3516 11.9401 10.3733C11.869 10.3983 11.8149 10.3052 11.7702 10.1418C11.5786 10.1988 11.3825 10.2397 11.1907 10.2563C11.0304 10.27 10.8791 10.2945 10.7357 10.3291C10.7431 10.4501 10.7665 10.5257 10.814 10.5487C10.8308 10.5455 10.8477 10.5423 10.8646 10.5394ZM8.79477 9.27819C8.80683 9.28848 8.81898 9.30001 8.83115 9.31278L8.82115 9.32388C8.81429 9.31745 8.80131 9.30509 8.78472 9.28927C8.79664 9.2994 8.8087 9.31084 8.82085 9.32359L8.83085 9.31248C8.82406 9.30611 8.81121 9.29388 8.79477 9.27819Z" fill="black"/>
<path fill-rule="evenodd" clip-rule="evenodd" d="M13.7458 12.9047C13.6498 13.314 13.7627 13.7757 14.0219 14.0234L14.0217 14.0348C13.6638 14.3581 13.2857 14.6112 12.8866 14.8149C12.7693 14.8747 12.6693 14.9418 12.5601 15.0295C12.533 15.0512 12.5062 15.0734 12.4716 15.1028C12.4747 15.1001 12.4056 15.1587 12.3866 15.1747C12.3013 15.2462 12.2377 15.2944 12.1692 15.3365C12.5654 15.4071 13.0161 15.7912 13.3178 16.2942C13.6748 16.8892 14.03 17.1812 14.6079 17.4837C14.9291 17.652 14.9125 17.8694 14.6541 18.191C14.4821 18.4052 14.4137 18.5782 14.3139 18.9646C14.2051 19.3855 14.1294 19.5721 13.9282 19.8105C13.7441 20.0286 13.491 19.952 13.4638 19.7492C13.4542 19.6767 13.4598 19.5947 13.4797 19.4804C13.4886 19.4292 13.5251 19.2536 13.5431 19.1669L13.553 19.119C13.5554 19.1068 13.5575 19.095 13.5592 19.0832C13.5589 19.0996 13.5612 19.1149 13.5658 19.1292L13.5573 19.1706C13.5392 19.2575 13.5029 19.4323 13.494 19.4832C13.4744 19.596 13.4689 19.6765 13.4783 19.7471C13.5037 19.9368 13.7414 20.0088 13.9173 19.8004C14.1166 19.5642 14.1916 19.3794 14.2998 18.9606C14.4001 18.5722 14.4692 18.3975 14.643 18.1812C14.8962 17.866 14.9119 17.6601 14.6014 17.4974C14.0213 17.1938 13.6641 16.9001 13.3055 16.3023C13.0007 15.7941 12.5429 15.4082 12.1466 15.3483L12.1441 15.3341C12.2188 15.2897 12.2853 15.24 12.3775 15.1628C12.3965 15.1468 12.4655 15.0882 12.4624 15.0908C12.4972 15.0615 12.5241 15.0391 12.5513 15.0173C12.6612 14.9291 12.762 14.8614 12.8802 14.8011C13.2759 14.5992 13.6509 14.3486 14.006 14.0288L14.0121 14.0347L14.0122 14.0232L14.006 14.0288C13.747 13.7759 13.6352 13.3124 13.7332 12.9079C13.544 12.6739 13.0715 12.5772 12.7079 12.6752C12.3582 12.9347 12.067 13.2673 11.7907 13.6917C11.7146 13.8086 11.5607 14.0763 11.4109 14.3369L11.4109 14.3369C11.2553 14.6077 11.1041 14.8708 11.0492 14.9489C11.0319 14.9735 11.015 14.9966 10.9982 15.0183C10.8312 15.2344 10.8271 15.6661 11.0736 15.871C11.0851 15.8806 11.0962 15.8902 11.1071 15.9001C11.1404 15.9303 11.1707 15.9614 11.2063 16.0015L11.2483 16.0497L11.2483 16.0498L11.2484 16.0498C11.2764 16.0822 11.3101 16.121 11.3255 16.1383C11.379 16.1981 11.4322 16.2533 11.496 16.3135C11.6607 16.4691 11.8835 16.646 12.1994 16.8656C12.3602 16.9773 12.8659 17.3113 12.8634 17.3096C13.0869 17.4603 13.2135 17.5586 13.2837 17.6422C13.5094 17.9109 13.5918 18.0669 13.5639 18.273C13.5524 18.3584 13.5489 18.4341 13.5523 18.529L13.5453 18.5277L13.5379 18.5347C13.5342 18.4365 13.5376 18.3588 13.5495 18.2709C13.5765 18.0707 13.4957 17.9178 13.2728 17.6523C13.2038 17.5701 13.0778 17.4724 12.8555 17.3224C12.8581 17.3242 12.3524 16.9902 12.1914 16.8783C11.8749 16.6584 11.6515 16.481 11.4863 16.3249C11.4222 16.2644 11.3686 16.2089 11.3149 16.1487C11.2994 16.1314 11.2655 16.0922 11.2374 16.0599L11.1956 16.0119C11.1604 15.9722 11.1305 15.9414 11.0976 15.9117C11.0869 15.9019 11.0759 15.8924 11.0645 15.883C10.811 15.6723 10.8152 15.2308 10.9869 15.0087C11.0035 14.9872 11.0203 14.9642 11.0375 14.9398C11.092 14.8623 11.2425 14.6004 11.3977 14.3304L11.3977 14.3304L11.3977 14.3304L11.3977 14.3304L11.3977 14.3303L11.3977 14.3303L11.3977 14.3303C11.5477 14.0693 11.7022 13.8005 11.7786 13.6831C12.0559 13.2572 12.3482 12.9234 12.7019 12.6615C13.0728 12.5611 13.551 12.6589 13.7458 12.9047ZM13.5387 18.5532L13.5379 18.5347L13.5367 18.5358C13.5371 18.5417 13.5378 18.5475 13.5387 18.5532ZM13.5561 18.6066C13.5476 18.5906 13.5417 18.5727 13.5387 18.5532C13.541 18.6061 13.5453 18.6652 13.5513 18.7349L13.5523 18.7465L13.5499 18.7484C13.5512 18.7626 13.5532 18.7761 13.5558 18.7888C13.5671 18.9283 13.5695 19.0006 13.5613 19.0679L13.5603 19.0685C13.5597 19.0735 13.5594 19.0784 13.5592 19.0832L13.5613 19.0679L13.5707 19.0626L13.5763 19.0654C13.5757 19.0708 13.575 19.0761 13.5742 19.0814L13.5739 19.0813C13.574 19.0777 13.5743 19.074 13.5747 19.0703L13.5643 19.0763L13.5739 19.0813C13.5739 19.0823 13.5738 19.0834 13.5738 19.0844C13.572 19.0969 13.5698 19.1093 13.5673 19.1221L13.5658 19.1292C13.5967 19.2239 13.7324 19.2715 13.8949 19.2465L13.8971 19.2321L13.5763 19.0654C13.5829 19.0083 13.582 18.9472 13.5748 18.8459C13.627 18.9525 13.7627 18.9865 14.0486 18.9615L14.0507 18.9468L13.5667 18.7435L13.5658 18.7335C13.5618 18.6869 13.5586 18.645 13.5561 18.6066ZM13.5532 18.5514C13.5539 18.569 13.5549 18.5874 13.5561 18.6066C13.6195 18.7256 13.8298 18.7478 14.131 18.655L14.1303 18.6401L13.5523 18.529L13.5529 18.5447L13.5522 18.5446L13.5512 18.5347L13.5427 18.5427L13.5522 18.5446L13.5532 18.5514ZM14.0969 18.6492C13.78 18.7407 13.5771 18.698 13.5532 18.5514L13.5529 18.5447L14.0969 18.6492ZM14.0969 18.6492L14.1269 18.6403L14.1276 18.6551L14.0969 18.6492ZM13.5681 18.7605L13.5667 18.7435L13.5598 18.7406L13.5523 18.7465L13.5558 18.7888C13.5602 18.8098 13.5664 18.8288 13.5748 18.8459C13.5735 18.8274 13.572 18.8076 13.5702 18.7863C13.5994 18.9233 13.7149 18.9715 14.0163 18.9488L14.0453 18.961L14.0474 18.9463L14.0163 18.9488L13.5681 18.7605ZM13.5658 18.7595C13.5669 18.7688 13.5684 18.7777 13.5702 18.7863L13.5681 18.7605L13.5658 18.7595ZM13.5658 18.7595L13.5644 18.7469L13.5544 18.7548L13.5658 18.7595ZM13.8689 19.2345L13.5742 19.0814C13.5741 19.0824 13.574 19.0834 13.5738 19.0844C13.5724 19.1913 13.7016 19.2532 13.8689 19.2345ZM13.8689 19.2345L13.8906 19.2458L13.8928 19.2314C13.8848 19.2326 13.8768 19.2337 13.8689 19.2345Z" fill="black"/>
<path fill-rule="evenodd" clip-rule="evenodd" d="M13.2616 13.7339C13.4753 13.6182 13.5641 13.5612 13.7189 13.4242L13.7308 13.4286C13.7329 13.4406 13.7361 13.4562 13.7394 13.4725C13.7442 13.4961 13.7493 13.5212 13.7518 13.5385C13.6136 13.6553 13.5332 13.7058 13.3339 13.8136L13.2929 13.836C13.0838 13.9512 12.9425 14.0645 12.7361 14.3075C12.4782 14.6111 12.0899 14.9593 11.8612 15.0942L11.7968 15.0161C12.0154 14.8809 12.4026 14.5337 12.6594 14.2313C12.8671 13.9867 13.0098 13.8724 13.2206 13.7563L13.2616 13.7339ZM13.7165 13.4314L13.7283 13.4359C13.7251 13.4387 13.722 13.4415 13.7189 13.4442C13.718 13.4396 13.7172 13.4353 13.7165 13.4314ZM13.7189 13.4442C13.5688 13.5762 13.4785 13.6337 13.2682 13.7475L13.2273 13.7698C13.0181 13.8851 12.8768 13.9983 12.6703 14.2415C12.4125 14.545 12.0242 14.8932 11.8055 15.0171L11.8625 15.0821C12.0811 14.9469 12.4683 14.5998 12.7252 14.2973C12.9328 14.0529 13.0756 13.9385 13.2861 13.8225L13.3272 13.8C13.5257 13.6926 13.6055 13.6426 13.7404 13.535C13.7343 13.5161 13.7247 13.4744 13.7189 13.4442Z" fill="black"/>
<path fill-rule="evenodd" clip-rule="evenodd" d="M12.597 15.8967L12.6059 15.8846C12.6663 15.9314 12.7236 15.9803 12.7775 16.0313L12.768 16.0429L12.597 15.8967ZM12.5973 15.8969C12.6573 15.9434 12.7142 15.992 12.7677 16.0427L12.7772 16.031L12.6062 15.8849L12.5973 15.8969ZM13.5606 17.0075C13.5608 17.0077 13.561 17.0079 13.5611 17.0081L13.5724 16.9963L13.5722 16.9961C13.5723 16.9962 13.5724 16.9963 13.5725 16.9964L13.5613 17.0082L13.5606 17.0075ZM13.4396 16.8801L13.5606 17.0075C13.5211 16.9682 13.481 16.926 13.4396 16.8801ZM13.4392 16.8796C13.4393 16.8798 13.4395 16.88 13.4396 16.8801L13.4392 16.8797L13.4392 16.8796ZM13.4507 16.8682L13.4392 16.8796C13.4391 16.8796 13.4391 16.8795 13.4391 16.8795L13.4506 16.8681L13.4507 16.8682ZM13.4512 16.8687L13.5722 16.9961C13.5326 16.9568 13.4926 16.9146 13.4512 16.8687ZM13.4512 16.8687L13.4507 16.8682L13.4507 16.8682C13.4509 16.8684 13.451 16.8685 13.4512 16.8687Z" fill="black"/>
<path fill-rule="evenodd" clip-rule="evenodd" d="M11.8748 15.6733L11.8708 15.6598C11.8766 15.6603 11.8824 15.6609 11.8883 15.6615L11.8748 15.6733ZM12.7257 15.6312C12.7378 15.6606 12.7357 15.6943 12.721 15.7316C12.7076 15.7654 12.685 15.8005 12.6525 15.8413C12.6404 15.8565 12.6284 15.8708 12.5972 15.8969C12.3779 15.7267 12.1542 15.6218 11.9599 15.5992L11.8883 15.6615C12.2847 15.7051 12.7692 16.07 13.0935 16.5441C13.407 17.0022 13.7484 17.292 14.1669 17.5214C14.1493 17.5523 14.144 17.5797 14.1389 17.6438L14.1387 17.6455C14.1375 17.6607 14.1368 17.6687 14.1358 17.6777C14.1073 17.9394 13.9906 18.122 13.8331 18.2012C13.7233 18.2564 13.6131 18.2466 13.5687 18.1852C13.5682 18.1693 13.5667 18.1534 13.5641 18.1359L13.5497 18.1383C13.5525 18.1562 13.5591 18.1719 13.5687 18.1852C13.5695 18.2116 13.5676 18.2382 13.5636 18.273C13.5617 18.2894 13.5608 18.2968 13.5601 18.3049C13.5501 18.3963 13.8053 18.4157 13.9899 18.282C14.0735 18.2215 14.1719 18.0578 14.2142 17.9242L14.228 17.9241C14.2782 18.0719 14.2798 18.1556 14.2234 18.2906C14.179 18.2658 14.135 18.2237 14.1037 18.179C14.1066 18.175 14.1088 18.1719 14.1097 18.1707L14.1092 18.1706L14.0979 18.1704C14.0998 18.1732 14.1017 18.176 14.1036 18.1788C14.1037 18.1788 14.1037 18.1789 14.1037 18.179C14.103 18.18 14.1022 18.1812 14.1013 18.1824C14.0945 18.1919 14.0857 18.2043 14.0819 18.2094C14.0701 18.2254 14.0592 18.2388 14.0471 18.2516C14.0404 18.2587 14.0334 18.2655 14.0263 18.2711C14.0178 18.2779 14.0091 18.2829 14.0004 18.2846C14.0015 18.2866 14.0025 18.2885 14.0037 18.2905C14.0399 18.3545 14.1032 18.4149 14.1804 18.4607C14.1672 18.5127 14.1642 18.5258 14.1353 18.6531C14.0773 18.909 14.0378 19.0312 13.9572 19.1611C13.8605 19.3168 13.7408 19.4009 13.6477 19.3893C13.5856 19.3816 13.547 19.3331 13.5395 19.2564C13.5461 19.2243 13.5523 19.1944 13.5572 19.1709C13.5388 19.2896 13.5757 19.3649 13.6494 19.3741C13.736 19.3849 13.851 19.3041 13.945 19.1528C14.0244 19.0248 14.0635 18.9038 14.1211 18.6495C14.1501 18.5221 14.1531 18.509 14.1702 18.4656C14.0965 18.4282 14.0328 18.3686 13.9964 18.2959C13.8037 18.4341 13.5335 18.4133 13.5456 18.3032C13.5464 18.2951 13.5472 18.2875 13.5491 18.2712C13.5554 18.2166 13.5564 18.1831 13.5497 18.1382L13.5641 18.1358C13.5779 18.2241 13.7007 18.2508 13.8269 18.1874C13.9796 18.1106 14.0934 17.9326 14.1214 17.676C14.1223 17.6671 14.123 17.6593 14.1242 17.6442L14.1244 17.6426C14.1297 17.5761 14.1353 17.5471 14.1574 17.5243C13.7399 17.3046 13.3967 17.0133 13.0817 16.553C12.7549 16.0752 12.2642 15.7091 11.8696 15.675L11.8655 15.6615L11.9559 15.5857C12.1586 15.6069 12.3846 15.7129 12.5961 15.8857C12.6175 15.8606 12.6293 15.8465 12.6413 15.8315C12.673 15.7918 12.6949 15.7579 12.7075 15.7257C12.7291 15.6711 12.7211 15.6273 12.6764 15.5931C12.6928 15.6053 12.7092 15.618 12.7257 15.6312ZM13.5811 16.6976C13.586 16.7523 13.5353 16.8113 13.439 16.8786C13.3391 16.7658 13.2432 16.6404 13.1515 16.5014C13.0421 16.3352 12.9103 16.1775 12.7674 16.0317C12.8799 15.9091 12.9295 15.8136 12.8734 15.7614C12.8229 15.7133 12.7739 15.6699 12.7257 15.6312C12.718 15.6126 12.7046 15.5957 12.6849 15.5807C12.7495 15.6288 12.8151 15.6851 12.8831 15.75C12.9494 15.8117 12.8969 15.9126 12.7775 16.0313C12.9209 16.1669 13.0535 16.3256 13.1635 16.4927C13.2548 16.6311 13.3503 16.756 13.4401 16.8672C13.5508 16.7825 13.5942 16.715 13.548 16.6563C13.559 16.6703 13.57 16.684 13.5811 16.6976ZM13.5593 16.6465L13.548 16.6563C13.548 16.6563 13.548 16.6563 13.548 16.6563L13.5593 16.6465ZM14.1835 17.4595C13.9546 17.3301 13.753 17.181 13.5604 16.9867C13.6715 16.913 13.7157 16.8387 13.6609 16.7691C13.6259 16.7291 13.5925 16.6888 13.5593 16.6465L13.5593 16.6465C13.5724 16.6632 13.5796 16.6802 13.5811 16.6976C13.6037 16.7253 13.6265 16.7524 13.6499 16.7791C13.6965 16.8384 13.6567 16.9054 13.5511 16.986C13.7463 17.1955 13.9515 17.3466 14.1851 17.4777L14.1958 17.4715C14.1965 17.4601 14.2088 17.4459 14.2479 17.4083L14.2546 17.4019C14.2773 17.3799 14.2899 17.3659 14.2976 17.3524C14.3087 17.3331 14.3073 17.3163 14.2904 17.3052C14.2952 17.3098 14.3165 17.2707 14.3257 17.2537C14.3267 17.2519 14.3275 17.2504 14.3282 17.2492C14.3829 17.1498 14.4363 17.1064 14.5632 17.0834C14.4069 17.185 14.3807 17.3751 14.4981 17.4462C14.5152 17.4545 14.5271 17.4603 14.5434 17.4685L14.5439 17.4688C14.577 17.4854 14.5805 17.4872 14.6016 17.4975C14.7713 17.5811 14.8428 17.6852 14.8327 17.8111C14.8242 17.9169 14.7602 18.0353 14.643 18.1811C14.4692 18.3975 14.4001 18.5722 14.2998 18.9606C14.1916 19.3794 14.1166 19.5642 13.9173 19.8003C13.7414 20.0088 13.5037 19.9368 13.4783 19.7471C13.4689 19.6765 13.4744 19.5959 13.494 19.4831C13.5005 19.446 13.5215 19.3431 13.5395 19.2564C13.5369 19.2299 13.5379 19.2 13.5431 19.1672C13.5431 19.1671 13.5431 19.167 13.5431 19.1669C13.5484 19.1416 13.5521 19.1239 13.5531 19.1189L13.5672 19.1225C13.5629 19.1393 13.5596 19.1555 13.5572 19.1709C13.5572 19.1708 13.5573 19.1707 13.5573 19.1705C13.5626 19.145 13.5663 19.1271 13.5673 19.1221L13.5531 19.1185C13.5488 19.1354 13.5455 19.1516 13.5431 19.1672C13.525 19.2541 13.4886 19.4292 13.4797 19.4804C13.4598 19.5946 13.4542 19.6767 13.4638 19.7492C13.491 19.952 13.7441 20.0286 13.9282 19.8105C14.1294 19.5721 14.2051 19.3855 14.3139 18.9646C14.4137 18.5782 14.4821 18.4052 14.6541 18.191C14.7731 18.0429 14.8384 17.9221 14.8472 17.8123C14.8579 17.6794 14.7826 17.5697 14.6077 17.4836C14.5867 17.4733 14.5833 17.4716 14.5502 17.455L14.5496 17.4547C14.5333 17.4465 14.5214 17.4406 14.5048 17.4326C14.3908 17.3636 14.4273 17.1655 14.6059 17.0764L14.6019 17.0619C14.4405 17.0837 14.378 17.1281 14.3156 17.2416C14.3103 17.2511 14.2953 17.2795 14.2865 17.2961C14.2833 17.3021 14.281 17.3066 14.2802 17.308C14.2919 17.3242 14.2925 17.3316 14.2852 17.3445C14.2783 17.3564 14.2664 17.3697 14.2447 17.3907L14.2381 17.3971C14.2033 17.4304 14.1887 17.4458 14.1835 17.4595ZM14.5632 17.0834C14.5747 17.076 14.5868 17.069 14.5997 17.0626L14.6037 17.0771C14.5894 17.079 14.576 17.0811 14.5632 17.0834ZM12.6849 15.5807C12.6837 15.5797 12.6824 15.5788 12.6812 15.5779L12.6728 15.5904C12.6741 15.5913 12.6753 15.5922 12.6764 15.5931C12.6752 15.5922 12.674 15.5913 12.6728 15.5904L12.6811 15.5778C12.6824 15.5788 12.6837 15.5797 12.6849 15.5807ZM14.1125 18.1656C14.1427 18.2102 14.1862 18.2527 14.22 18.2812C14.2627 18.16 14.2634 18.0816 14.2211 17.9498C14.1959 18.0217 14.1565 18.0998 14.1125 18.1656Z" fill="black"/>
<path fill-rule="evenodd" clip-rule="evenodd" d="M14.6239 16.8735L14.5089 16.7275L14.4962 16.7307L14.4543 16.921L14.2735 16.9192L14.268 16.9316L14.3845 17.0848L14.2709 17.231L14.2766 17.2433L14.4636 17.2445L14.5008 17.4287L14.5135 17.4317L14.6308 17.2791L14.7931 17.3625L14.8032 17.3538L14.7608 17.1632L14.9246 17.0827L14.9245 17.069L14.7558 16.9832L14.7995 16.7998L14.7892 16.7913L14.6239 16.8735ZM14.7821 16.8118L14.625 16.8899L14.6163 16.8878L14.5067 16.7488L14.5104 16.7341L14.4977 16.7373L14.5067 16.7488L14.4615 16.9304L14.288 16.9342L14.2794 16.9221L14.2738 16.9345L14.288 16.9342L14.396 17.0847L14.2911 17.2285L14.2767 17.228L14.2825 17.2403L14.2911 17.2285L14.4708 17.235L14.5115 17.4106L14.5022 17.4221L14.5149 17.4251L14.5115 17.4106L14.6282 17.2673L14.7861 17.3424L14.789 17.3572L14.7991 17.3485L14.7861 17.3424L14.7504 17.1581L14.9054 17.0758L14.9181 17.0827L14.918 17.069L14.9054 17.0758L14.7455 16.9885L14.7821 16.8118ZM14.7821 16.8118L14.7955 16.8051L14.7852 16.7966L14.7821 16.8118Z" fill="black"/>
<path fill-rule="evenodd" clip-rule="evenodd" d="M14.0585 12.8539C14.4441 12.7364 14.7686 12.4028 14.8431 12.0435L14.8526 12.038C15.2986 12.2019 15.6967 12.4193 16.0638 12.6801C16.216 12.7882 16.3069 12.8317 16.5741 12.9399C16.7014 12.9915 16.7764 13.0258 16.8526 13.0715C16.7127 12.6759 16.8042 12.074 17.0682 11.5482C17.3806 10.9261 17.4438 10.4575 17.4044 9.78044C17.3826 9.40406 17.57 9.31055 17.9646 9.38468C18.222 9.43308 18.4058 9.40914 18.7528 9.31289L18.7797 9.30541C19.1733 9.19605 19.3681 9.17171 19.6635 9.23511C19.9353 9.2934 19.9987 9.56203 19.845 9.6879C19.7867 9.73564 19.7117 9.77288 19.5958 9.81509C19.5593 9.82838 19.4467 9.86614 19.3653 9.89343L19.3653 9.89344C19.3254 9.90681 19.293 9.91767 19.2807 9.92192L19.2686 9.9263C19.2806 9.91864 19.2908 9.90966 19.2993 9.89953L19.3611 9.87879L19.3611 9.87878C19.4425 9.85149 19.5547 9.81386 19.591 9.80065C19.7055 9.75894 19.7793 9.72232 19.836 9.67584C19.9799 9.55807 19.9203 9.30579 19.6605 9.25009C19.368 9.18728 19.175 9.21139 18.7835 9.3202L18.7565 9.32768C18.4076 9.42445 18.2221 9.44862 17.9621 9.39973C17.5754 9.32709 17.3978 9.41567 17.419 9.77951C17.4585 10.4591 17.3949 10.9304 17.0811 11.5553C16.8143 12.0866 16.725 12.6958 16.8736 13.0861L16.8631 13.0955C16.7812 13.0448 16.7054 13.0095 16.5689 12.9542C16.3007 12.8455 16.2091 12.8018 16.0556 12.6927C15.6916 12.4342 15.2971 12.2184 14.8556 12.0552L14.8573 12.0468L14.8478 12.0524L14.8556 12.0552C14.7765 12.417 14.4501 12.7505 14.0674 12.8638C13.969 13.1527 14.1254 13.6305 14.3881 13.9124C14.53 13.981 14.6774 14.0381 14.831 14.0846C15.3041 14.2281 15.6915 14.2593 16.4614 14.2612C16.8566 14.2622 17.0108 14.2678 17.1757 14.2954C17.4374 14.3391 17.7956 14.1269 17.8413 13.8005C17.8489 13.7463 17.8596 13.6966 17.8754 13.6398C17.8851 13.6046 17.928 13.4645 17.9239 13.4783C17.9456 13.4057 17.9627 13.3421 17.9793 13.2688C18.0334 13.0302 18.0729 12.722 18.0987 12.2794C18.1086 12.1088 18.1113 12.0413 18.1242 11.677C18.1404 11.2208 18.1554 11.0355 18.1972 10.9052C18.3062 10.5654 18.3935 10.4128 18.5774 10.3351C18.6511 10.3039 18.7194 10.2665 18.7943 10.2175L18.7967 10.2246L18.8061 10.2278C18.7289 10.2786 18.6587 10.3172 18.5829 10.3493C18.4043 10.4247 18.3187 10.5744 18.211 10.9101C18.1698 11.0383 18.1548 11.2234 18.1388 11.6776C18.1259 12.042 18.1232 12.1096 18.1132 12.2804C18.0874 12.7238 18.0477 13.0328 17.9935 13.2723C17.9768 13.3461 17.9596 13.4099 17.9378 13.4829C17.9418 13.4693 17.8991 13.6091 17.8894 13.6441C17.8738 13.7003 17.8632 13.7493 17.8557 13.8027C17.8087 14.1385 17.4424 14.3554 17.1734 14.3105C17.0096 14.2831 16.8557 14.2775 16.4614 14.2765C15.6902 14.2746 15.3018 14.2433 14.827 14.0993C14.6727 14.0526 14.5246 13.9952 14.3798 13.9247C14.1115 13.6374 13.9532 13.1538 14.0585 12.8539ZM18.821 10.2179L18.8061 10.2278L18.8077 10.2284C18.8124 10.225 18.8168 10.2216 18.821 10.2179ZM18.8563 10.1755C18.8473 10.1912 18.8356 10.2054 18.821 10.2179C18.8453 10.2017 18.8703 10.1843 18.8964 10.1655C18.9111 10.1549 18.9434 10.1311 18.9737 10.1088L18.9765 10.1101C18.9876 10.1018 18.9978 10.0932 19.007 10.0844L19.0374 10.062C19.0902 10.0237 19.1309 9.99646 19.1703 9.97369C19.1934 9.9603 19.2157 9.9488 19.2374 9.9391L19.2401 9.94064C19.2505 9.93658 19.26 9.93178 19.2686 9.9263C19.2583 9.93016 19.2479 9.93442 19.2374 9.9391L19.2285 9.9341L19.228 9.92669C19.2334 9.92426 19.2387 9.92193 19.244 9.9197L19.2442 9.92187C19.2407 9.92355 19.2371 9.92512 19.2334 9.92658L19.245 9.93312L19.2442 9.92187C19.2492 9.91943 19.2539 9.91678 19.2584 9.9139C19.2644 9.9116 19.2703 9.90943 19.2762 9.90739L19.2993 9.89953C19.3643 9.82249 19.3304 9.67925 19.2167 9.54722L19.2019 9.55245L19.228 9.92669C19.207 9.93624 19.1855 9.94742 19.1633 9.96029C19.1273 9.98106 19.0905 10.0055 19.0447 10.0382C19.1061 9.93745 19.0662 9.79717 18.903 9.55005L18.8898 9.5555L18.964 10.0973C18.9342 10.1193 18.9026 10.1425 18.8882 10.1529L18.8563 10.1755ZM18.8123 10.2056C18.8267 10.196 18.8413 10.186 18.8563 10.1755C18.923 10.0585 18.8362 9.85602 18.6088 9.62839L18.5969 9.63649L18.7943 10.2175L18.807 10.2092L18.8072 10.2099L18.7995 10.2157L18.8105 10.2195L18.8072 10.2099L18.8123 10.2056ZM18.6211 9.66224C18.8551 9.90467 18.9213 10.1106 18.8123 10.2056L18.807 10.2092L18.6211 9.66224ZM18.6211 9.66224L18.5988 9.63945L18.6106 9.63135L18.6211 9.66224ZM18.9774 10.0875L18.964 10.0973L18.9651 10.105L18.9737 10.1088L18.99 10.0969L18.99 10.0969L19.007 10.0844C19.0221 10.0699 19.0347 10.0546 19.0447 10.0382L19.0291 10.0494L18.9976 10.0726C19.0959 9.97755 19.0779 9.84834 18.9087 9.5858L18.9042 9.55332L18.891 9.55877L18.9087 9.5858L18.9774 10.0875ZM18.9778 10.0901C18.9848 10.0844 18.9915 10.0786 18.9976 10.0726L18.9815 10.0844L18.9774 10.0875L18.9778 10.0901ZM18.9778 10.0901L18.9681 10.0977L18.9795 10.1028L18.9778 10.0901ZM19.2201 9.57682L19.244 9.9197C19.2488 9.91768 19.2536 9.91575 19.2584 9.9139C19.3475 9.85669 19.329 9.71429 19.2201 9.57682ZM19.2201 9.57682L19.2183 9.55147L19.2034 9.5567C19.2092 9.56339 19.2147 9.5701 19.2201 9.57682Z" fill="black"/>
<path fill-rule="evenodd" clip-rule="evenodd" d="M14.6097 12.6632C14.575 12.6479 14.5387 12.633 14.5003 12.6185L14.4981 12.6055C14.5074 12.5971 14.5193 12.5859 14.5315 12.5744C14.5482 12.5586 14.5656 12.5421 14.5783 12.5314C14.5973 12.5391 14.6158 12.547 14.6339 12.5549C14.7749 12.6169 14.8365 12.6542 15.0231 12.7798C15.2467 12.9305 15.4014 13.001 15.7205 13.0706C16.1 13.1534 16.5814 13.3324 16.8068 13.4727L16.7746 13.5704C16.5536 13.4392 16.0737 13.2607 15.6959 13.1784C15.3748 13.1084 15.2186 13.0371 14.9935 12.8855C14.8087 12.7611 14.7482 12.7243 14.6097 12.6632ZM14.5075 12.6171L14.5053 12.6041C14.5092 12.6056 14.5131 12.6071 14.5169 12.6085C14.5136 12.6116 14.5105 12.6145 14.5075 12.6171ZM14.5811 12.5435C14.5687 12.5585 14.5393 12.5878 14.5169 12.6085C14.5512 12.6218 14.584 12.6353 14.6153 12.6491C14.7548 12.7107 14.8159 12.7477 15.0013 12.8726C15.2251 13.0233 15.3797 13.0939 15.6988 13.1634C16.0781 13.2461 16.5594 13.425 16.7711 13.5619L16.7961 13.4775C16.5756 13.3465 16.0956 13.1681 15.7175 13.0856C15.3965 13.0156 15.2403 12.9443 15.0152 12.7927C14.8294 12.6676 14.7683 12.6305 14.6283 12.569C14.6273 12.5686 14.6263 12.5681 14.6253 12.5677C14.6083 12.5602 14.5913 12.5528 14.5811 12.5435Z" fill="black"/>
<path fill-rule="evenodd" clip-rule="evenodd" d="M17.4917 11.1457C17.5105 11.0894 17.5266 11.0363 17.5404 10.985L17.5243 10.9811L17.5243 10.9813L17.5243 10.9813C17.5242 10.9813 17.5242 10.9814 17.5242 10.9814L17.4758 11.1411C17.4757 11.1412 17.4757 11.1412 17.4757 11.1413L17.4757 11.1413L17.4757 11.1414L17.4917 11.1457ZM17.4757 11.1413L17.4917 11.1455L17.5404 10.9852L17.5243 10.9813L17.5242 10.9814C17.5105 11.0324 17.4944 11.0852 17.4758 11.1411L17.4757 11.1413ZM15.0002 12.2797C14.9412 12.2567 14.8745 12.2224 14.8097 12.1824L14.8065 12.1734L14.8146 12.1475L14.8146 12.1475C14.8259 12.1106 14.839 12.0684 14.8527 12.0379C15.2986 12.2019 15.6967 12.4193 16.0638 12.68C16.2161 12.7882 16.307 12.8316 16.5741 12.9399C16.7114 12.9955 16.7878 13.0311 16.8731 13.0928L16.7817 13.2402C16.6677 13.1701 16.3861 13.0439 16.1772 12.9639C16.1764 12.9855 16.1669 13.0103 16.1493 13.0425C16.1453 13.0499 16.141 13.0573 16.1351 13.0674C16.1077 13.1144 16.1023 13.1245 16.0975 13.1409C16.0918 13.1604 16.0959 13.1706 16.1134 13.176L16.1093 13.1907L16.1092 13.1907L16.1132 13.176L16.0823 13.1669C16.0797 13.1584 16.0802 13.1481 16.0836 13.1364C16.089 13.1181 16.0944 13.108 16.1227 13.0594C16.1285 13.0494 16.1327 13.0421 16.1366 13.035C16.1561 12.9993 16.1647 12.9739 16.1623 12.9537L16.172 12.9456C16.3826 13.0257 16.6722 13.1552 16.7791 13.2298L16.8631 13.0955C16.7812 13.0448 16.7054 13.0095 16.5689 12.9542C16.3007 12.8455 16.2091 12.8017 16.0556 12.6927C15.6895 12.4326 15.2926 12.2159 14.8573 12.047C14.85 12.0784 14.835 12.1313 14.8222 12.1723L14.8171 12.1692L14.8203 12.1782L14.8222 12.1723C14.8846 12.2106 14.9488 12.2436 15.0097 12.2747C15.0075 12.2825 15.0048 12.2904 15.0016 12.2985C14.9832 12.3445 14.9514 12.3902 14.8988 12.4526L14.8734 12.4822L14.8431 12.5177C14.8235 12.541 14.8103 12.5583 14.8008 12.5734C14.7792 12.6076 14.7791 12.6266 14.8018 12.6382C14.8244 12.6501 14.8845 12.6882 14.9497 12.7308C14.9499 12.7428 14.9548 12.7522 14.9651 12.759L14.9728 12.7461L14.9729 12.7461L14.9651 12.759C14.892 12.7108 14.8199 12.6648 14.7953 12.6519C14.7627 12.6353 14.7629 12.6058 14.7886 12.5649C14.7986 12.5491 14.8122 12.5313 14.8322 12.5076L14.8627 12.4718L14.8879 12.4424C14.9396 12.3813 14.9706 12.3366 14.9882 12.2925L14.9887 12.2914C14.9915 12.2843 14.9941 12.2777 15.0002 12.2797ZM14.9728 12.7461L14.9497 12.7308C14.9494 12.7152 14.9574 12.6952 14.9724 12.6714C14.9915 12.6407 15.0182 12.6077 15.0691 12.5496L15.0756 12.5422C15.1696 12.4348 15.1982 12.397 15.1975 12.3714L15.2071 12.3639C15.3246 12.4047 15.4344 12.4637 15.5769 12.5559L15.582 12.5593L15.582 12.5593L15.582 12.5593L15.582 12.5593L15.582 12.5593L15.5821 12.5593C15.6108 12.5783 15.7508 12.6707 15.7907 12.6952C15.8657 12.7413 15.9242 12.7703 15.9825 12.7949C15.9761 12.8204 15.9642 12.8482 15.9466 12.8807C15.9376 12.8973 15.9277 12.9142 15.9142 12.9362L15.9135 12.9373C15.8695 13.0091 15.8608 13.0234 15.8544 13.0387C15.8528 13.0424 15.8513 13.0463 15.8495 13.0511L15.8493 13.0517C15.8374 13.0832 15.8418 13.099 15.8661 13.1053C15.8928 13.1115 15.9372 13.124 16.0114 13.1459L16.0171 13.1476L16.0676 13.1626L16.0823 13.1669C16.0857 13.178 16.0945 13.1862 16.1092 13.1907L16.0636 13.1773L16.0131 13.1623L16.0075 13.1606C15.9336 13.1388 15.8893 13.1263 15.8628 13.1202C15.8283 13.1112 15.821 13.0852 15.8357 13.0461L15.8361 13.0451L15.8361 13.0451L15.8361 13.0451L15.8361 13.0451C15.8381 13.04 15.8396 13.0359 15.8413 13.0319C15.8479 13.0162 15.8569 13.0015 15.9009 12.9296L15.902 12.9279C15.9153 12.9061 15.9251 12.8894 15.9339 12.8732C15.94 12.8619 15.9454 12.8513 15.9503 12.8415L15.9503 12.8415C15.9591 12.8241 15.9664 12.8097 15.9735 12.8003C15.9189 12.7846 15.8594 12.7552 15.7833 12.7084C15.743 12.6837 15.6016 12.5903 15.574 12.5721L15.5739 12.572L15.5739 12.572L15.5693 12.569C15.4312 12.4796 15.3243 12.4218 15.2113 12.3815C15.2063 12.4116 15.1753 12.4509 15.0863 12.5525L15.0798 12.56C15.0295 12.6175 15.0031 12.65 14.9845 12.6798C14.9623 12.7153 14.9588 12.7368 14.9728 12.7461ZM18.0857 12.6987C18.0962 12.6061 17.9885 12.5416 17.7882 12.5001C17.628 12.467 17.4132 12.4501 17.1854 12.4481L17.1835 12.4632L18.0767 12.7052L18.0857 12.6987ZM18.0718 12.688L18.0803 12.6903L18.0712 12.6968C18.0716 12.6939 18.0718 12.691 18.0718 12.688ZM17.2459 12.4643C17.4502 12.4685 17.6405 12.4852 17.7854 12.5151C17.9713 12.5536 18.0728 12.6117 18.0718 12.688L17.2459 12.4643ZM17.2459 12.4643C17.2259 12.4639 17.2056 12.4636 17.1853 12.4634L17.1872 12.4484L17.2459 12.4643ZM17.103 12.402C17.1126 12.3239 17.1259 12.2479 17.143 12.1742L17.1266 12.1714L17.0865 12.3999L17.103 12.402ZM17.1029 12.4023L17.0864 12.4002C17.0961 12.3217 17.1095 12.2452 17.1267 12.171L17.1431 12.1738L17.1029 12.4023Z" fill="black"/>
<path fill-rule="evenodd" clip-rule="evenodd" d="M17.3998 11.6334C17.1691 12.1695 17.1125 12.7988 17.2816 13.1746L17.2725 13.1851L17.1647 13.1409C17.081 12.9458 17.0554 12.6873 17.0922 12.4086L17.0554 12.4007C17.0251 12.3943 17.0013 12.3902 16.9782 12.3877C16.8768 12.3767 16.8188 12.402 16.8107 12.4818C16.8126 12.4606 16.8149 12.4391 16.8176 12.4172C16.8465 12.3764 16.9023 12.3641 16.9797 12.3725C17.0034 12.375 17.0275 12.3793 17.0582 12.3857C17.0666 12.3875 17.0929 12.3932 17.1009 12.402C17.0702 12.6865 17.0954 12.9423 17.1739 13.1306L17.2611 13.1644C17.2635 13.17 17.266 13.1756 17.2685 13.1812L17.2776 13.1707L17.2611 13.1644C17.0989 12.7822 17.1576 12.159 17.3866 11.6271C17.6078 11.1129 17.6761 10.6574 17.6559 10.1625C17.6896 10.1632 17.7155 10.1542 17.7684 10.1281L17.7709 10.1269C17.7854 10.1197 17.7922 10.1164 17.8005 10.1127C18.0306 10.0078 18.2396 10.0226 18.3835 10.1262C18.4836 10.1981 18.5305 10.3025 18.5029 10.3736C18.4904 10.3817 18.4794 10.3904 18.4641 10.4034L18.4733 10.4153C18.487 10.4035 18.4968 10.3894 18.5029 10.3736C18.5227 10.3608 18.546 10.3499 18.5959 10.3272L18.6055 10.3227C18.686 10.2859 18.5744 10.0443 18.3719 9.94321C18.3719 9.94321 18.3718 9.94321 18.3718 9.94321C18.2802 9.89743 18.0959 9.88976 17.9645 9.91811L17.9575 9.90566C18.0544 9.78597 18.1226 9.74278 18.2621 9.72662C18.2639 9.77945 18.2512 9.84052 18.2299 9.89119L18.22 9.88994L18.2202 9.89039L18.2257 9.90082C18.2271 9.89773 18.2284 9.89458 18.2298 9.8914C18.2298 9.89133 18.2299 9.89126 18.2299 9.89119L18.2351 9.89185C18.2766 9.89684 18.3039 9.90131 18.3272 9.91002C18.3418 9.91545 18.3548 9.92253 18.3687 9.93243C18.3698 9.93046 18.3709 9.92846 18.372 9.92645C18.4066 9.86134 18.4247 9.77371 18.424 9.6806C18.4625 9.66971 18.5001 9.65832 18.554 9.6415C18.7253 9.58799 18.7547 9.57925 18.8276 9.56239C18.9316 9.53836 19.0229 9.52832 19.1133 9.53344C19.29 9.54346 19.4193 9.61029 19.4563 9.70072C19.4809 9.76097 19.4604 9.82019 19.4011 9.86536C19.3873 9.86999 19.3739 9.87451 19.3612 9.87877C19.3474 9.88339 19.3345 9.88772 19.323 9.89158C19.429 9.8489 19.4721 9.77804 19.4429 9.70675C19.4085 9.62267 19.2843 9.55845 19.1125 9.54871C19.0236 9.54367 18.9335 9.55357 18.8308 9.57732C18.7583 9.59406 18.7291 9.60278 18.5581 9.65616C18.5042 9.67301 18.4664 9.68443 18.4331 9.68743C18.4391 9.77316 18.4218 9.8608 18.38 9.93035C18.5904 10.0365 18.7082 10.2924 18.6115 10.3367L18.6017 10.3412C18.5217 10.3776 18.5114 10.3831 18.4732 10.4153L18.464 10.4034C18.5301 10.3468 18.4907 10.2218 18.3753 10.1388C18.2356 10.0383 18.032 10.0238 17.8063 10.1267C17.7981 10.1304 17.7915 10.1336 17.7771 10.1407L17.7746 10.1419C17.7197 10.169 17.6923 10.1785 17.6631 10.1697C17.6908 10.6589 17.6221 11.1168 17.3998 11.6334ZM19.3271 9.90626C19.3561 9.89461 19.3809 9.88081 19.4011 9.86536C19.4757 9.84033 19.5604 9.8118 19.591 9.80065C19.7055 9.75894 19.7793 9.72232 19.836 9.67584C19.9799 9.55807 19.9203 9.30579 19.6605 9.25009C19.368 9.18728 19.175 9.21139 18.7835 9.3202L18.7565 9.32768C18.4076 9.42445 18.2221 9.44862 17.9621 9.39973C17.7832 9.36612 17.6535 9.36709 17.562 9.41227C17.4531 9.46606 17.403 9.58312 17.419 9.77932C17.4196 9.78742 17.42 9.79262 17.4205 9.79782C17.4212 9.80721 17.4219 9.81661 17.4238 9.84303L17.4241 9.8462C17.4254 9.86458 17.4266 9.87882 17.4283 9.899C17.4283 10.0412 17.2587 10.1125 17.0968 10.0213C17.0884 10.0108 17.0799 9.99952 17.0711 9.98745L17.0612 9.99838C17.073 10.0069 17.0849 10.0145 17.0968 10.0213C17.1446 10.0809 17.1874 10.1157 17.232 10.1338C17.2738 10.1508 17.3057 10.1533 17.394 10.1515C17.4082 10.1512 17.4146 10.1511 17.4159 10.1584C17.4166 10.1366 17.4307 10.1271 17.4536 10.1283C17.4694 10.1291 17.4868 10.1337 17.5195 10.1445L17.5238 10.1459C17.5724 10.1621 17.5906 10.1662 17.6003 10.1613L17.6108 10.1679C17.6194 10.4453 17.5974 10.7078 17.5222 10.9901C17.4026 10.9345 17.3279 10.9318 17.3022 11.0038C17.2916 11.0389 17.2808 11.0731 17.2694 11.107C17.2558 11.1171 17.2454 11.1321 17.2382 11.1523L17.2518 11.1577C17.2518 11.1577 17.2518 11.1577 17.2518 11.1577C17.2578 11.1408 17.2637 11.1239 17.2694 11.107C17.312 11.0753 17.386 11.0919 17.4896 11.1458C17.4466 11.2931 17.3911 11.443 17.3223 11.5958C17.24 11.7783 17.1758 11.977 17.127 12.1801C16.9699 12.1389 16.866 12.1416 16.851 12.2188C16.8366 12.2886 16.8254 12.3544 16.8176 12.4172C16.8061 12.4334 16.7988 12.4542 16.7962 12.4801C16.796 12.4818 16.7959 12.4836 16.7957 12.4853L16.8102 12.4866C16.8104 12.485 16.8105 12.4834 16.8107 12.4818C16.8105 12.4835 16.8104 12.4851 16.8102 12.4867L16.7957 12.4854M17.5965 10.1783C17.5826 10.1804 17.5625 10.1748 17.5194 10.1605L17.5151 10.1591C17.4837 10.1487 17.467 10.1442 17.4529 10.1435C17.4372 10.1428 17.4308 10.1471 17.4232 10.1663L17.3943 10.1668C17.304 10.1686 17.271 10.166 17.2267 10.1481C17.1714 10.1257 17.1196 10.0795 17.0595 9.99672L17.0695 9.98579C17.2323 10.1037 17.4138 10.0379 17.4138 9.8997C17.4121 9.88015 17.4109 9.86583 17.4095 9.84738L17.4093 9.8442C17.4074 9.8178 17.4067 9.80843 17.4059 9.79906C17.4055 9.79387 17.4051 9.78869 17.4045 9.78062C17.388 9.57856 17.4408 9.45524 17.5558 9.39844C17.6507 9.35154 17.783 9.35055 17.9646 9.38468C18.222 9.43308 18.4058 9.40914 18.7528 9.31289L18.7797 9.30541C19.1733 9.19605 19.3681 9.17171 19.6635 9.23511C19.9353 9.2934 19.9987 9.56203 19.845 9.6879C19.7867 9.73564 19.7117 9.77288 19.5958 9.81509C19.5593 9.82838 19.4467 9.86614 19.3653 9.89344C19.3515 9.89807 19.3386 9.9024 19.3271 9.90626C19.3126 9.91208 19.297 9.91736 19.2804 9.92204L19.2762 9.90739C19.2843 9.90459 19.3011 9.89893 19.323 9.89158C19.3087 9.89735 19.2932 9.9026 19.2766 9.90727L19.2807 9.92192C19.2888 9.91914 19.3054 9.91354 19.3271 9.90626M17.9822 9.89904C18.0541 9.886 18.1382 9.8828 18.2145 9.88984C18.2362 9.8403 18.2496 9.77945 18.2561 9.73442C18.1347 9.75611 18.0699 9.79454 17.9822 9.89904Z" fill="black"/>
</g>
</svg>
