<svg width="28.000000" height="28.000000" viewBox="0 0 28 28" fill="none" xmlns="http://www.w3.org/2000/svg" xmlns:xlink="http://www.w3.org/1999/xlink">
	<desc>
			Created with Pixso.
	</desc>
	<defs/>
	<rect id="Isle of Man" width="28.000000" height="28.000000" fill="#FFFFFF" fill-opacity="0"/>
	<rect id="Mask" y="4.000000" rx="3.000000" width="28.000000" height="20.000000" fill="#D01129" fill-opacity="1.000000"/>
	<rect id="Mask" y="4.000000" rx="3.000000" width="28.000000" height="20.000000" stroke="#979797" stroke-opacity="0" stroke-width="0.000000"/>
	<mask id="mask17_5331" mask-type="alpha" maskUnits="userSpaceOnUse" x="0.000000" y="4.000000" width="28.000000" height="20.000000">
		<rect id="Mask" y="4.000000" rx="3.000000" width="28.000000" height="20.000000" fill="#D01129" fill-opacity="1.000000"/>
		<rect id="Mask" y="4.000000" rx="3.000000" width="28.000000" height="20.000000" stroke="#979797" stroke-opacity="0" stroke-width="0.000000"/>
	</mask>
	<g mask="url(#mask17_5331)">
		<path id="Fill 3" d="" fill="#FFFFFF" fill-opacity="1.000000" fill-rule="nonzero"/>
		<path id="Stroke 4" d="" stroke="#000000" stroke-opacity="0" stroke-width="0.000000"/>
		<path id="Fill 3" d="M13.88 14.04C14.54 14.04 15.08 13.47 15.08 12.78C15.08 12.09 14.54 11.52 13.88 11.52C13.22 11.52 12.69 12.09 12.69 12.78C12.69 13.47 13.22 14.04 13.88 14.04Z" fill="#FFF101" fill-opacity="1.000000" fill-rule="evenodd"/>
		<path id="Stroke 4" d="M15.08 12.78C15.08 12.09 14.54 11.52 13.88 11.52C13.22 11.52 12.69 12.09 12.69 12.78C12.69 13.47 13.22 14.04 13.88 14.04C14.54 14.04 15.08 13.47 15.08 12.78Z" stroke="#000000" stroke-opacity="0" stroke-width="0.000000"/>
		<path id="Fill 5" d="M12.79 12.27C13.13 12.16 13.57 12.29 13.86 12.58C14.17 12.53 14.48 12.12 14.57 11.76C14.47 10.56 13.72 9.65 13.49 9.03C13.42 8.84 13.09 8.53 12.74 8.67C12.46 8.79 12.31 8.7 11.36 9.2C10.84 9.47 10.41 9.75 10.18 9.79C9.95 9.84 9.71 9.89 9.52 9.73C9.27 9.53 8.99 9.47 8.82 9.31C8.62 9.12 8.49 8.98 8.35 8.92C8.21 8.86 7.98 8.99 8.07 9.3C8.3 10 8.82 10.11 9.05 10.77C9.15 11.08 9.31 11.31 9.64 11.08C9.98 10.84 10.46 10.53 11.27 10.5C11.82 10.48 12.39 10.27 12.64 9.92C12.64 10.22 12.74 10.46 12.72 10.85C12.69 11.24 12.69 11.73 12.79 12.27Z" fill="#FFFFFF" fill-opacity="1.000000" fill-rule="evenodd"/>
		<mask id="mask_17_5339" fill="white">
			<path id="Stroke 6" d="M12.7973 12.2792C13.1362 12.1657 13.5759 12.2979 13.8652 12.5894C14.1723 12.5306 14.4802 12.1257 14.5756 11.7653C14.4708 10.5673 13.7244 9.65979 13.4975 9.03705C13.4257 8.84021 13.093 8.53076 12.7469 8.67487C12.4625 8.7934 12.3186 8.70117 11.363 9.2016C10.8463 9.47217 10.4114 9.75006 10.1822 9.79852C9.95294 9.84698 9.71109 9.89014 9.52771 9.73932C9.45847 9.68237 9.3869 9.63672 9.3161 9.59723L9.31693 9.59619C9.31198 9.59369 9.30701 9.59143 9.30203 9.58948C9.24445 9.55798 9.1875 9.53033 9.13281 9.50378L9.13507 9.50189C9.12234 9.49585 9.10983 9.49066 9.09744 9.48651C9.01044 9.44397 8.93033 9.40271 8.86411 9.35077L8.86456 9.35046C8.86148 9.34802 8.85837 9.34576 8.85522 9.34369C8.84512 9.33545 8.83539 9.32697 8.82599 9.31818C8.62189 9.12659 8.49091 8.98199 8.35287 8.9234C8.21481 8.86469 7.98111 8.99512 8.07977 9.30542C8.30243 10.0063 8.82727 10.1199 9.05258 10.775C9.15897 11.0848 9.31018 11.3176 9.64816 11.0828C9.98615 10.8481 10.4638 10.5363 11.2782 10.5035C11.825 10.4813 12.3902 10.2702 12.6499 9.92377C12.6488 10.052 12.6666 10.1703 12.6853 10.2943C12.7102 10.46 12.7366 10.6359 12.7214 10.8589C12.695 11.2489 12.6992 11.7339 12.7973 12.2792ZM8.85522 9.34369C8.75345 9.27606 8.62607 9.39203 8.5614 9.56244L8.86411 9.35077C8.86111 9.34845 8.85815 9.34607 8.85522 9.34369ZM9.09744 9.48651C8.97842 9.44702 8.87177 9.5061 8.71951 9.84497L9.13281 9.50378C9.12091 9.49799 9.1091 9.49225 9.09744 9.48651ZM9.30203 9.58948C9.16507 9.53583 9.01801 9.69836 8.93167 10.0719L9.3161 9.59723C9.3114 9.5946 9.3067 9.59204 9.30203 9.58948Z" clip-rule="evenodd" fill="" fill-opacity="1.000000" fill-rule="evenodd"/>
		</mask>
		<path id="Stroke 6" d="" fill="#000000" fill-opacity="0.000000" fill-rule="nonzero"/>
		<path id="Fill 7" d="M13.43 12.31C13.33 11.72 13.51 11.63 13.3 10.94C13.17 10.53 13.08 10 13.08 9.76L12.99 9.79C13 10.03 13.08 10.55 13.21 10.97C13.42 11.64 13.26 11.74 13.34 12.28C13.36 12.28 13.41 12.3 13.43 12.31Z" fill="#FFF101" fill-opacity="1.000000" fill-rule="evenodd"/>
		<path id="Stroke 8" d="M13.3 10.94C13.17 10.53 13.08 10 13.08 9.76L12.99 9.79C13 10.03 13.08 10.55 13.21 10.97C13.42 11.64 13.26 11.74 13.34 12.28C13.36 12.28 13.41 12.3 13.43 12.31C13.33 11.72 13.51 11.63 13.3 10.94Z" stroke="#000000" stroke-opacity="0" stroke-width="0.000000"/>
		<path id="Fill 9" d="M12.92 12.24C12.92 12.17 12.91 12.09 12.9 12.02C13.06 11.98 13.32 12.13 13.31 12.02C13.31 11.99 13.31 11.87 13.32 11.81C13.31 11.91 12.95 11.75 12.88 11.79C12.82 11.45 12.9 11.09 12.85 10.88C12.97 10.84 13.19 10.92 13.17 10.82C13.15 10.77 13.12 10.64 13.1 10.56C13.12 10.64 12.94 10.57 12.88 10.62C12.85 10.43 12.8 10.08 12.81 9.92L12.65 9.92C12.64 10.22 12.74 10.46 12.72 10.85C12.69 11.24 12.69 11.73 12.79 12.27C12.83 12.26 12.89 12.25 12.92 12.24Z" fill="#FFF101" fill-opacity="1.000000" fill-rule="evenodd"/>
		<mask id="mask_17_5347" fill="white">
			<path id="Stroke 10" d="M11.9685 9.95081C11.7754 9.5929 11.5561 9.0921 11.7215 9.01758L11.9685 9.95081ZM12.9235 12.2474C12.9242 12.1724 12.9197 12.0942 12.9086 12.0269C12.9779 12.0094 13.0694 12.0301 13.1483 12.048C13.2446 12.0697 13.3221 12.0873 13.3181 12.0264C13.3159 11.9913 13.3193 11.8777 13.3214 11.8176C13.3195 11.8708 13.2014 11.8431 13.0879 11.8164C13.0008 11.7959 12.9164 11.7761 12.889 11.7938C12.8529 11.6109 12.8599 11.4252 12.8662 11.259C12.8717 11.1134 12.8766 10.9828 12.8515 10.8823C12.8996 10.8685 12.9636 10.8719 13.0219 10.8751C13.1115 10.88 13.1875 10.8842 13.1708 10.8232C13.1552 10.7717 13.1254 10.6436 13.1057 10.5635C13.1166 10.6108 13.0645 10.6094 13.0062 10.6077C12.9612 10.6064 12.9125 10.605 12.8862 10.6259C12.8549 10.4398 12.8091 10.0868 12.81 9.92548L12.65 9.92377C12.6489 10.052 12.6667 10.1703 12.6853 10.2943C12.7102 10.46 12.7367 10.6359 12.7215 10.8589C12.695 11.2489 12.6992 11.7339 12.7973 12.2792C12.8324 12.2685 12.8902 12.2546 12.9235 12.2474ZM11.9693 10.0613C11.9029 10.0961 11.8341 10.128 11.7632 10.1557L11.9693 10.0613ZM10.5839 10.3839C10.6334 10.3669 10.6844 10.351 10.7374 10.3365L10.5839 10.3839Z" clip-rule="evenodd" fill="" fill-opacity="1.000000" fill-rule="evenodd"/>
		</mask>
		<path id="Stroke 10" d="" fill="#000000" fill-opacity="0.000000" fill-rule="nonzero"/>
		<path id="Fill 11" d="M12.51 9.5C12.28 9.86 11.71 10.11 11.18 10.17C10.56 10.23 10.15 10.45 9.84 10.66C9.82 10.61 9.77 10.58 9.73 10.55C9.28 10.2 9.46 9.73 9.63 9.8C9.57 9.78 9.53 9.74 9.5 9.71C9.44 9.67 9.27 9.84 9.29 10.12C9.3 10.24 9.4 10.42 9.48 10.51C9.33 10.48 9.26 10.44 9.18 10.34C9.23 10.31 9.29 10.29 9.34 10.28C9.32 10.24 9.3 10.2 9.29 10.12C9.22 10.12 9.13 10.15 9.06 10.2C8.88 10.02 8.7 9.87 8.6 9.65C8.43 9.3 8.6 9.08 8.82 9.31C8.62 9.12 8.49 8.98 8.35 8.92C8.21 8.86 7.98 8.99 8.07 9.3C8.3 10 8.82 10.11 9.05 10.77C9.15 11.08 9.31 11.32 9.64 11.08C9.69 11.05 9.7 11.04 9.74 11.01C9.84 10.95 10.01 11.05 9.99 11.29C10.08 11.07 10.02 11.01 9.95 10.88C9.9 10.91 9.9 10.73 9.87 10.71C10.06 10.59 10.29 10.46 10.58 10.37C10.59 10.48 10.62 10.59 10.71 10.57C10.76 10.56 10.81 10.55 10.86 10.54C10.77 10.56 10.74 10.44 10.73 10.33C10.87 10.3 11.02 10.27 11.19 10.26C11.38 10.24 11.57 10.2 11.76 10.14C11.79 10.24 11.84 10.41 11.94 10.38C12.02 10.35 12.1 10.32 12.18 10.28C12.05 10.34 12 10.16 11.96 10.06C12.21 9.95 12.41 9.8 12.53 9.62L12.51 9.5Z" fill="#FFF101" fill-opacity="1.000000" fill-rule="evenodd"/>
		<path id="Stroke 12" d="M9.29 10.12C9.22 10.12 9.13 10.15 9.06 10.2C8.88 10.02 8.7 9.87 8.6 9.65C8.43 9.3 8.6 9.08 8.82 9.31C8.62 9.12 8.49 8.98 8.35 8.92C8.21 8.86 7.98 8.99 8.07 9.3C8.3 10 8.82 10.11 9.05 10.77C9.15 11.08 9.31 11.32 9.64 11.08C9.69 11.05 9.7 11.04 9.74 11.01C9.84 10.95 10.01 11.05 9.99 11.29C10.08 11.07 10.02 11.01 9.95 10.88C9.9 10.91 9.9 10.73 9.87 10.71C10.06 10.59 10.29 10.46 10.58 10.37C10.59 10.48 10.62 10.59 10.71 10.57C10.76 10.56 10.81 10.55 10.86 10.54C10.77 10.56 10.74 10.44 10.73 10.33C10.87 10.3 11.02 10.27 11.19 10.26C11.38 10.24 11.57 10.2 11.76 10.14C11.79 10.24 11.84 10.41 11.94 10.38C12.02 10.35 12.1 10.32 12.18 10.28C12.05 10.34 12 10.16 11.96 10.06C12.21 9.95 12.41 9.8 12.53 9.62L12.51 9.5C12.28 9.86 11.71 10.11 11.18 10.17C10.56 10.23 10.15 10.45 9.84 10.66C9.82 10.61 9.77 10.58 9.73 10.55C9.28 10.2 9.46 9.73 9.63 9.8C9.57 9.78 9.53 9.74 9.5 9.71C9.44 9.67 9.27 9.84 9.29 10.12C9.3 10.24 9.4 10.42 9.48 10.51C9.33 10.48 9.26 10.44 9.18 10.34C9.23 10.31 9.29 10.29 9.34 10.28C9.32 10.24 9.3 10.2 9.29 10.12" stroke="#000000" stroke-opacity="0" stroke-width="0.000000"/>
		<path id="Fill 13" d="M13.57 9.68C13.68 9.59 13.78 9.54 13.68 9.34C13.52 9.01 13.62 9.01 13.26 8.81C12.9 8.59 12.94 8.58 12.46 8.76C12.34 8.8 12.37 8.84 12.39 9.03C12.43 9.42 12.52 9.73 12.6 10.05C12.9 10.01 13.37 9.85 13.57 9.68Z" fill="#FFF101" fill-opacity="1.000000" fill-rule="evenodd"/>
		<path id="Fill 15" d="M12.43 9.59C12.37 9.4 12.39 9.43 12.62 9.49C12.69 9.23 12.8 9.02 12.86 8.82C12.92 8.59 12.94 8.55 13.04 8.6C13.16 8.67 13.3 8.75 13.39 8.79C13.54 8.87 13.52 8.9 13.44 9.03C13.37 9.15 13.13 9.41 12.98 9.68C13.18 9.82 13.24 9.83 13.1 9.9C12.94 9.96 12.69 10.05 12.58 10.07C12.56 9.95 12.49 9.78 12.43 9.59Z" fill="#FFF101" fill-opacity="1.000000" fill-rule="evenodd"/>
		<path id="Fill 17" d="M10.14 11.4L10.12 11.59L9.98 11.46L9.83 11.57L9.84 11.38L9.66 11.32L9.81 11.2L9.74 11.02L9.92 11.08L10.02 10.91L10.09 11.09L10.27 11.06L10.18 11.23L10.32 11.36L10.14 11.4Z" fill="#FFF101" fill-opacity="1.000000" fill-rule="evenodd"/>
		<path id="Stroke 18" d="M10.12 11.59L9.98 11.46L9.83 11.57L9.84 11.38L9.66 11.32L9.81 11.2L9.74 11.02L9.92 11.08L10.02 10.91L10.09 11.09L10.27 11.06L10.18 11.23L10.32 11.36L10.14 11.4L10.12 11.59Z" stroke="#000000" stroke-opacity="0" stroke-width="0.000000"/>
		<path id="Fill 19" d="M14.01 14.02C13.75 13.77 13.64 13.31 13.73 12.9C13.53 12.65 13.04 12.57 12.7 12.66C11.76 13.36 11.39 14.49 10.99 15.01C10.86 15.17 10.77 15.63 11.06 15.87C11.3 16.07 11.3 16.25 12.19 16.87C12.67 17.2 13.12 17.46 13.27 17.64C13.43 17.83 13.58 18.02 13.55 18.27C13.51 18.6 13.6 18.89 13.56 19.12C13.5 19.4 13.45 19.59 13.47 19.74C13.49 19.9 13.71 20.05 13.92 19.8C14.38 19.25 14.22 18.71 14.64 18.18C14.85 17.93 14.96 17.68 14.6 17.49C14.24 17.3 13.74 17.02 13.31 16.29C13.02 15.81 12.56 15.4 12.14 15.34C12.39 15.19 12.54 14.97 12.88 14.8C13.21 14.63 13.61 14.39 14.01 14.02Z" fill="#FFFFFF" fill-opacity="1.000000" fill-rule="evenodd"/>
		<mask id="mask_17_5359" fill="white">
			<path id="Stroke 20" d="M14.017 14.029C13.7538 13.7775 13.6429 13.3117 13.7388 12.9029C13.5368 12.6531 13.0489 12.5754 12.7038 12.6689C11.7681 13.3633 11.3927 14.4957 10.9925 15.0135C10.866 15.1771 10.7771 15.6342 11.0691 15.877C11.3091 16.0763 11.305 16.2532 12.1954 16.8719C12.677 17.2065 13.1236 17.463 13.2782 17.6472C13.433 17.8315 13.5894 18.0298 13.5567 18.2719C13.5443 18.3634 13.5425 18.4513 13.5453 18.5354L13.544 18.5352C13.5444 18.541 13.545 18.5467 13.546 18.5523C13.5487 18.62 13.5544 18.6852 13.5598 18.7478L13.5598 18.7488L13.5572 18.7477C13.5585 18.7623 13.5605 18.7763 13.5633 18.7897C13.5717 18.89 13.5777 18.9835 13.568 19.0696L13.5675 19.0694C13.567 19.0734 13.5667 19.0773 13.5666 19.0812C13.5649 19.0945 13.5627 19.1076 13.5602 19.1205C13.549 19.1767 13.5379 19.2294 13.5274 19.2788C13.4857 19.4769 13.4546 19.6242 13.4711 19.7481C13.4918 19.903 13.7161 20.0503 13.9228 19.8054C14.3895 19.2525 14.2208 18.7185 14.6486 18.1861C14.8507 17.9344 14.9672 17.6805 14.6046 17.4905C14.242 17.3007 13.746 17.0222 13.3117 16.2982C13.0201 15.812 12.5634 15.4036 12.1477 15.3407C12.3962 15.1933 12.5486 14.9789 12.8834 14.808C13.2182 14.6371 13.6162 14.391 14.017 14.029ZM13.5666 19.0812C13.5617 19.2076 13.721 19.2655 13.8939 19.2389L13.568 19.0696C13.5676 19.0735 13.5671 19.0773 13.5666 19.0812ZM13.5633 18.7897C13.5902 18.9174 13.6924 18.9849 14.048 18.9539L13.5598 18.7488C13.561 18.7625 13.5622 18.7762 13.5633 18.7897ZM13.546 18.5523C13.5704 18.7034 13.778 18.7558 14.129 18.6476L13.5453 18.5354C13.5455 18.5411 13.5457 18.5467 13.546 18.5523Z" clip-rule="evenodd" fill="" fill-opacity="1.000000" fill-rule="evenodd"/>
		</mask>
		<path id="Stroke 20" d="" fill="#000000" fill-opacity="0.000000" fill-rule="nonzero"/>
		<path id="Fill 21" d="M13.72 13.43C13.28 13.81 13.12 13.69 12.66 14.23C12.38 14.56 11.99 14.89 11.8 15.02L11.86 15.08C12.06 14.96 12.45 14.62 12.73 14.3C13.17 13.77 13.34 13.87 13.74 13.53C13.73 13.5 13.72 13.45 13.72 13.43Z" fill="#FFF101" fill-opacity="1.000000" fill-rule="evenodd"/>
		<path id="Stroke 22" d="M12.66 14.23C12.38 14.56 11.99 14.89 11.8 15.02L11.86 15.08C12.06 14.96 12.45 14.62 12.73 14.3C13.17 13.77 13.34 13.87 13.74 13.53C13.73 13.5 13.72 13.45 13.72 13.43C13.28 13.81 13.12 13.69 12.66 14.23Z" stroke="#000000" stroke-opacity="0" stroke-width="0.000000"/>
		<path id="Fill 23" d="M13.92 13.93C13.86 13.96 13.8 14.01 13.75 14.05C13.64 13.93 13.63 13.61 13.54 13.68C13.52 13.7 13.42 13.75 13.37 13.78C13.45 13.73 13.5 14.15 13.57 14.18C13.32 14.42 12.98 14.52 12.83 14.67C12.74 14.58 12.69 14.34 12.62 14.41C12.59 14.45 12.5 14.54 12.44 14.6C12.5 14.54 12.53 14.74 12.6 14.77C12.47 14.89 12.2 15.11 12.06 15.19L12.14 15.34C12.39 15.19 12.54 14.97 12.88 14.8C13.21 14.63 13.61 14.39 14.01 14.02C13.99 14 13.95 13.95 13.92 13.93Z" fill="#FFF101" fill-opacity="1.000000" fill-rule="evenodd"/>
		<mask id="mask_17_5367" fill="white">
			<path id="Stroke 24" d="M13.9275 13.9302C13.8654 13.967 13.8031 14.0103 13.7531 14.054C13.704 13.9997 13.6754 13.9061 13.6506 13.8253C13.6205 13.727 13.5962 13.6478 13.5481 13.682C13.5201 13.7013 13.4248 13.7551 13.374 13.7833C13.419 13.7584 13.4551 13.8797 13.4898 13.9962C13.5165 14.0857 13.5423 14.1723 13.5706 14.1883C13.3214 14.4214 12.9884 14.5216 12.8376 14.6782C12.8022 14.6413 12.7731 14.5814 12.7466 14.5269C12.7057 14.443 12.6711 14.3718 12.6292 14.4174C12.5946 14.4573 12.5038 14.5484 12.4475 14.6064C12.4812 14.5728 12.506 14.6209 12.5338 14.6748C12.5552 14.7163 12.5783 14.7613 12.6087 14.7747C12.471 14.8963 12.2027 15.1144 12.069 15.1943L12.1477 15.3407C12.3962 15.1933 12.5486 14.9789 12.8834 14.808C13.2182 14.6371 13.6162 14.391 14.017 14.029C13.9905 14.0025 13.9501 13.9568 13.9275 13.9302ZM12.6016 15.8908C12.6598 15.9359 12.7173 15.9846 12.7726 16.037L12.6016 15.8908ZM12.5107 15.9469C12.3122 16.3014 12.0087 16.7511 11.8644 16.6379L12.5107 15.9469ZM13.5714 17.0093C13.529 16.9665 13.4869 16.9213 13.4444 16.8734L13.5714 17.0093Z" clip-rule="evenodd" fill="" fill-opacity="1.000000" fill-rule="evenodd"/>
		</mask>
		<path id="Stroke 24" d="" fill="#000000" fill-opacity="0.000000" fill-rule="nonzero"/>
		<path id="Fill 25" d="M11.87 15.66C12.28 15.7 12.77 16.09 13.08 16.54C13.44 17.07 13.83 17.34 14.16 17.51C14.13 17.56 14.13 17.62 14.12 17.67C14.06 18.25 13.58 18.32 13.55 18.13C13.56 18.2 13.55 18.25 13.55 18.3C13.54 18.38 13.77 18.44 13.99 18.28C14.08 18.22 14.18 18.04 14.22 17.92C14.27 18.07 14.27 18.15 14.22 18.28C14.17 18.25 14.13 18.2 14.1 18.16C14.07 18.2 14.05 18.24 13.99 18.28C14.02 18.35 14.09 18.41 14.17 18.45C14.1 18.71 14.07 18.95 13.95 19.15C13.74 19.48 13.47 19.43 13.56 19.12C13.5 19.4 13.45 19.59 13.47 19.74C13.49 19.9 13.71 20.05 13.92 19.8C14.38 19.25 14.22 18.71 14.64 18.18C14.85 17.93 14.97 17.67 14.6 17.49C14.55 17.46 14.54 17.46 14.5 17.43C14.39 17.37 14.4 17.17 14.6 17.06C14.38 17.09 14.35 17.18 14.28 17.31C14.33 17.34 14.19 17.42 14.18 17.47C13.99 17.36 13.77 17.21 13.55 16.99C13.63 16.93 13.71 16.84 13.65 16.77C13.62 16.73 13.58 16.69 13.55 16.65C13.61 16.72 13.52 16.81 13.44 16.87C13.34 16.76 13.25 16.64 13.15 16.49C13.04 16.33 12.91 16.17 12.77 16.03C12.84 15.96 12.95 15.82 12.87 15.75C12.81 15.69 12.74 15.63 12.67 15.58C12.79 15.67 12.66 15.81 12.6 15.89C12.39 15.72 12.16 15.61 11.95 15.59L11.87 15.66Z" fill="#FFF101" fill-opacity="1.000000" fill-rule="evenodd"/>
		<path id="Stroke 26" d="M13.99 18.28C14.02 18.35 14.09 18.41 14.17 18.45C14.1 18.71 14.07 18.95 13.95 19.15C13.74 19.48 13.47 19.43 13.56 19.12C13.5 19.4 13.45 19.59 13.47 19.74C13.49 19.9 13.71 20.05 13.92 19.8C14.38 19.25 14.22 18.71 14.64 18.18C14.85 17.93 14.97 17.67 14.6 17.49C14.55 17.46 14.54 17.46 14.5 17.43C14.39 17.37 14.4 17.17 14.6 17.06C14.38 17.09 14.35 17.18 14.28 17.31C14.33 17.34 14.19 17.42 14.18 17.47C13.99 17.36 13.77 17.21 13.55 16.99C13.63 16.93 13.71 16.84 13.65 16.77C13.62 16.73 13.58 16.69 13.55 16.65C13.61 16.72 13.52 16.81 13.44 16.87C13.34 16.76 13.25 16.64 13.15 16.49C13.04 16.33 12.91 16.17 12.77 16.03C12.84 15.96 12.95 15.82 12.87 15.75C12.81 15.69 12.74 15.63 12.67 15.58C12.79 15.67 12.66 15.81 12.6 15.89C12.39 15.72 12.16 15.61 11.95 15.59L11.87 15.66C12.28 15.7 12.77 16.09 13.08 16.54C13.44 17.07 13.83 17.34 14.16 17.51C14.13 17.56 14.13 17.62 14.12 17.67C14.06 18.25 13.58 18.32 13.55 18.13C13.56 18.2 13.55 18.25 13.55 18.3C13.54 18.38 13.77 18.44 13.99 18.28C14.08 18.22 14.18 18.04 14.22 17.92C14.27 18.07 14.27 18.15 14.22 18.28C14.17 18.25 14.13 18.2 14.1 18.16C14.07 18.2 14.05 18.24 13.99 18.28" stroke="#000000" stroke-opacity="0" stroke-width="0.000000"/>
		<path id="Fill 27" d="M11.32 14.69C11.18 14.63 11.25 14.56 11.13 14.75C10.94 15.06 10.91 14.99 10.92 15.42C10.92 15.86 11 15.79 11.39 16.14C11.69 15.9 12.05 15.55 12.28 15.31C12.09 15.06 11.55 14.79 11.32 14.69Z" fill="#FFF101" fill-opacity="1.000000" fill-rule="evenodd"/>
		<path id="Fill 29" d="M11.98 15.69C11.85 15.85 11.87 15.82 11.8 15.58C11.55 15.63 11.36 15.7 11.17 15.75C10.94 15.8 10.9 15.81 10.9 15.69C10.9 15.54 10.89 15.38 10.88 15.28C10.87 15.1 10.91 15.11 11.05 15.11C11.19 15.11 11.48 15.15 11.77 15.15C11.8 14.9 11.77 14.84 11.9 14.93C12.03 15.04 12.23 15.23 12.3 15.32C12.21 15.4 12.1 15.55 11.98 15.69Z" fill="#FFF101" fill-opacity="1.000000" fill-rule="evenodd"/>
		<path id="Fill 31" d="M14.62 16.88L14.79 16.79L14.75 16.99L14.92 17.07L14.75 17.16L14.79 17.35L14.62 17.27L14.5 17.42L14.46 17.23L14.27 17.23L14.39 17.08L14.27 16.92L14.46 16.92L14.5 16.73L14.62 16.88Z" fill="#FFF101" fill-opacity="1.000000" fill-rule="evenodd"/>
		<path id="Stroke 32" d="M14.79 16.79L14.75 16.99L14.92 17.07L14.75 17.16L14.79 17.35L14.62 17.27L14.5 17.42L14.46 17.23L14.27 17.23L14.39 17.08L14.27 16.92L14.46 16.92L14.5 16.73L14.62 16.88L14.79 16.79Z" stroke="#000000" stroke-opacity="0" stroke-width="0.000000"/>
		<path id="Fill 33" d="M14.85 12.04C14.77 12.41 14.44 12.74 14.06 12.86C13.95 13.16 14.13 13.65 14.38 13.91C15.42 14.42 16.54 14.19 17.17 14.3C17.37 14.33 17.79 14.18 17.84 13.8C17.89 13.48 18.04 13.39 18.1 12.27C18.14 11.67 18.12 11.14 18.2 10.9C18.27 10.67 18.36 10.43 18.58 10.34C18.87 10.21 19.06 9.98 19.27 9.91C19.53 9.82 19.72 9.77 19.84 9.68C19.95 9.58 19.96 9.3 19.66 9.24C18.97 9.09 18.61 9.51 17.96 9.39C17.65 9.33 17.38 9.35 17.41 9.77C17.43 10.2 17.45 10.79 17.07 11.55C16.81 12.06 16.71 12.67 16.86 13.08C16.62 12.93 16.36 12.9 16.05 12.68C15.75 12.46 15.34 12.22 14.85 12.04Z" fill="#FFFFFF" fill-opacity="1.000000" fill-rule="evenodd"/>
		<mask id="mask_17_5379" fill="white">
			<path id="Stroke 34" d="M14.8503 12.0452C14.7746 12.41 14.4457 12.7438 14.0607 12.8611C13.9556 13.1697 14.1355 13.652 14.3851 13.9193C15.1006 14.2655 15.8545 14.2673 16.4596 14.2688C16.7345 14.2695 16.9787 14.2701 17.1746 14.3029C17.3729 14.336 17.7944 14.1883 17.8486 13.8016C17.8931 13.4837 18.041 13.399 18.1061 12.2799C18.1412 11.6747 18.1295 11.1403 18.2042 10.9077C18.2788 10.675 18.3642 10.4334 18.5802 10.3422C18.6618 10.3077 18.7353 10.2654 18.8033 10.2207L18.8037 10.222C18.8082 10.2188 18.8126 10.2154 18.8167 10.2119C18.8714 10.1752 18.9227 10.1373 18.972 10.1008L18.9724 10.1039C18.9838 10.0953 18.9944 10.0864 19.004 10.0771C19.0837 10.0186 19.1588 9.96576 19.2358 9.93152L19.2359 9.93359C19.2453 9.92993 19.2538 9.92566 19.2616 9.92084C19.2672 9.91864 19.2729 9.91656 19.2786 9.91461C19.5385 9.82483 19.7233 9.77795 19.8406 9.68182C19.958 9.58569 19.9673 9.30804 19.6621 9.24255C19.3079 9.16656 19.0417 9.24054 18.778 9.31378C18.5284 9.38318 18.2811 9.4519 17.9635 9.39215C17.6548 9.33417 17.3871 9.3551 17.4118 9.77997C17.4365 10.2047 17.4548 10.7949 17.0748 11.5517C16.8195 12.0601 16.711 12.6795 16.8669 13.0889C16.6211 12.9366 16.368 12.9053 16.0598 12.6863C15.7514 12.4673 15.3493 12.2286 14.8503 12.0452ZM19.2616 9.92084C19.3665 9.85571 19.3282 9.69006 19.2093 9.55194L19.2358 9.93152C19.2444 9.92773 19.253 9.92413 19.2616 9.92084ZM19.004 10.0771C19.0959 9.98877 19.1003 9.86206 18.8971 9.55438L18.972 10.1008C18.9828 10.0928 18.9934 10.085 19.004 10.0771ZM18.8167 10.2119C18.9294 10.1141 18.8689 9.89911 18.6039 9.63391L18.8033 10.2207C18.8077 10.2178 18.8122 10.2148 18.8167 10.2119Z" clip-rule="evenodd" fill="" fill-opacity="1.000000" fill-rule="evenodd"/>
		</mask>
		<path id="Stroke 34" d="" fill="#000000" fill-opacity="0.000000" fill-rule="nonzero"/>
		<path id="Fill 35" d="M14.5 12.61C15.03 12.81 15.01 13.02 15.69 13.17C16.1 13.25 16.57 13.44 16.77 13.56L16.79 13.47C16.59 13.35 16.12 13.16 15.71 13.07C15.06 12.93 15.06 12.73 14.57 12.53C14.55 12.55 14.51 12.59 14.5 12.61Z" fill="#FFF101" fill-opacity="1.000000" fill-rule="evenodd"/>
		<path id="Stroke 36" d="M15.69 13.17C16.1 13.25 16.57 13.44 16.77 13.56L16.79 13.47C16.59 13.35 16.12 13.16 15.71 13.07C15.06 12.93 15.06 12.73 14.57 12.53C14.55 12.55 14.51 12.59 14.5 12.61C15.03 12.81 15.01 13.02 15.69 13.17Z" stroke="#000000" stroke-opacity="0" stroke-width="0.000000"/>
		<path id="Fill 37" d="M14.81 12.17C14.87 12.21 14.94 12.24 15 12.27C14.95 12.43 14.7 12.59 14.79 12.64C14.82 12.66 14.92 12.72 14.96 12.75C14.89 12.7 15.2 12.44 15.2 12.37C15.52 12.48 15.77 12.73 15.97 12.79C15.94 12.92 15.76 13.08 15.86 13.11C15.91 13.12 16.03 13.16 16.11 13.18C16.03 13.15 16.17 13.03 16.16 12.95C16.33 13.01 16.65 13.15 16.78 13.23L16.86 13.08C16.62 12.93 16.36 12.9 16.05 12.68C15.75 12.46 15.34 12.22 14.85 12.04C14.84 12.08 14.82 12.14 14.81 12.17Z" fill="#FFF101" fill-opacity="1.000000" fill-rule="evenodd"/>
		<mask id="mask_17_5387" fill="white">
			<path id="Stroke 38" d="M17.5313 10.9832C17.5172 11.0356 17.5009 11.0889 17.4827 11.1435L17.5313 10.9832ZM14.8134 12.1758C14.875 12.2139 14.9418 12.2488 15.0028 12.2726C14.9826 12.3442 14.9198 12.4172 14.8655 12.48C14.7995 12.5566 14.7463 12.6184 14.7985 12.6451C14.8285 12.6608 14.9204 12.7205 14.969 12.7526C14.9261 12.7241 15.008 12.6307 15.0868 12.5408C15.1472 12.4718 15.2057 12.405 15.2048 12.3712C15.5218 12.4813 15.7709 12.7341 15.9755 12.793C15.9628 12.8436 15.9279 12.9 15.8962 12.9514C15.8474 13.0305 15.8059 13.0975 15.8646 13.1128C15.9148 13.1243 16.0353 13.1613 16.1113 13.1834C16.0668 13.1696 16.0941 13.123 16.1246 13.0708C16.1482 13.0306 16.1737 12.9871 16.1696 12.9528C16.3387 13.0172 16.6527 13.1521 16.7854 13.2337L16.8669 13.089C16.621 12.9366 16.368 12.9053 16.0597 12.6864C15.7513 12.4673 15.3492 12.2286 14.8503 12.0452C14.8416 12.0823 14.8242 12.1419 14.8134 12.1758ZM17.0937 12.4011C17.103 12.3257 17.1161 12.2491 17.1338 12.1726L17.0937 12.4011ZM17.1854 12.4558C17.5771 12.4591 18.0998 12.5101 18.0785 12.6978L17.1854 12.4558Z" clip-rule="evenodd" fill="" fill-opacity="1.000000" fill-rule="evenodd"/>
		</mask>
		<path id="Stroke 38" d="" fill="#000000" fill-opacity="0.000000" fill-rule="nonzero"/>
		<path id="Fill 39" d="M17.27 13.17C17.09 12.78 17.17 12.13 17.39 11.63C17.64 11.03 17.67 10.55 17.65 10.17C17.7 10.17 17.75 10.14 17.8 10.11C18.31 9.88 18.6 10.28 18.46 10.4C18.52 10.36 18.56 10.34 18.6 10.32C18.67 10.29 18.61 10.05 18.37 9.93C18.27 9.88 18.07 9.88 17.96 9.91C18.05 9.79 18.12 9.75 18.25 9.72C18.25 9.78 18.24 9.85 18.21 9.89C18.26 9.9 18.31 9.9 18.37 9.93C18.41 9.87 18.43 9.78 18.42 9.68C18.66 9.61 18.87 9.52 19.11 9.54C19.48 9.56 19.58 9.82 19.27 9.91C19.53 9.82 19.72 9.77 19.84 9.68C19.95 9.58 19.96 9.3 19.66 9.24C18.97 9.09 18.61 9.51 17.96 9.39C17.65 9.33 17.37 9.35 17.41 9.77C17.41 9.83 17.41 9.85 17.42 9.89C17.42 10.02 17.24 10.12 17.06 9.99C17.19 10.17 17.28 10.16 17.42 10.15C17.42 10.09 17.56 10.18 17.6 10.16C17.61 10.4 17.59 10.67 17.52 10.98C17.43 10.94 17.32 10.9 17.29 11C17.28 11.05 17.26 11.1 17.24 11.15C17.27 11.06 17.39 11.1 17.48 11.14C17.44 11.28 17.38 11.43 17.31 11.59C17.23 11.77 17.16 11.97 17.12 12.17C17.03 12.14 16.86 12.11 16.84 12.21C16.82 12.3 16.81 12.39 16.8 12.48C16.81 12.33 16.99 12.38 17.09 12.4C17.06 12.67 17.08 12.93 17.17 13.13L17.27 13.17Z" fill="#FFF101" fill-opacity="1.000000" fill-rule="evenodd"/>
		<path id="Stroke 40" d="M18.37 9.93C18.41 9.87 18.43 9.78 18.42 9.68C18.66 9.61 18.87 9.52 19.11 9.54C19.48 9.56 19.58 9.82 19.27 9.91C19.53 9.82 19.72 9.77 19.84 9.68C19.95 9.58 19.96 9.3 19.66 9.24C18.97 9.09 18.61 9.51 17.96 9.39C17.65 9.33 17.37 9.35 17.41 9.77C17.41 9.83 17.41 9.85 17.42 9.89C17.42 10.02 17.24 10.12 17.06 9.99C17.19 10.17 17.28 10.16 17.42 10.15C17.42 10.09 17.56 10.18 17.6 10.16C17.61 10.4 17.59 10.67 17.52 10.98C17.43 10.94 17.32 10.9 17.29 11C17.28 11.05 17.26 11.1 17.24 11.15C17.27 11.06 17.39 11.1 17.48 11.14C17.44 11.28 17.38 11.43 17.31 11.59C17.23 11.77 17.16 11.97 17.12 12.17C17.03 12.14 16.86 12.11 16.84 12.21C16.82 12.3 16.81 12.39 16.8 12.48C16.81 12.33 16.99 12.38 17.09 12.4C17.06 12.67 17.08 12.93 17.17 13.13L17.27 13.17C17.09 12.78 17.17 12.13 17.39 11.63C17.64 11.03 17.67 10.55 17.65 10.17C17.7 10.17 17.75 10.14 17.8 10.11C18.31 9.88 18.6 10.28 18.46 10.4C18.52 10.36 18.56 10.34 18.6 10.32C18.67 10.29 18.61 10.05 18.37 9.93C18.27 9.88 18.07 9.88 17.96 9.91C18.05 9.79 18.12 9.75 18.25 9.72C18.25 9.78 18.24 9.85 18.21 9.89C18.26 9.9 18.31 9.9 18.37 9.93" stroke="#000000" stroke-opacity="0" stroke-width="0.000000"/>
		<path id="Fill 41" d="M16.55 14C16.57 14.16 16.56 14.27 16.78 14.28C17.13 14.29 17.1 14.34 17.45 14.12C17.81 13.89 17.82 13.94 17.91 13.41C17.94 13.28 17.89 13.28 17.73 13.21C17.38 13.05 17.08 13.06 16.78 12.97C16.66 13.27 16.52 13.74 16.55 14Z" fill="#FFF101" fill-opacity="1.000000" fill-rule="evenodd"/>
		<path id="Fill 43" d="M17.24 13.05C17.43 13.09 17.4 13.09 17.23 13.27C17.4 13.47 17.53 13.61 17.67 13.76C17.83 13.94 17.85 13.98 17.76 14.04C17.64 14.11 17.51 14.2 17.43 14.25C17.28 14.36 17.27 14.32 17.2 14.19C17.14 14.06 17.04 13.78 16.89 13.51C16.68 13.62 16.64 13.67 16.65 13.51C16.67 13.33 16.73 13.06 16.77 12.95C16.88 12.99 17.06 13.02 17.24 13.05Z" fill="#FFF101" fill-opacity="1.000000" fill-rule="evenodd"/>
		<path id="Stroke 44" d="M17.24 13.05C17.43 13.09 17.4 13.09 17.23 13.27C17.4 13.47 17.65 13.78 17.79 13.94C17.95 14.11 17.97 14.15 17.88 14.21C17.76 14.29 17.63 14.37 17.54 14.43C17.4 14.53 17.39 14.49 17.32 14.36C17.26 14.23 17.04 13.78 16.89 13.51C16.68 13.62 16.64 13.67 16.65 13.51C16.67 13.33 16.73 13.06 16.77 12.95C16.88 12.99 17.06 13.02 17.24 13.05Z" stroke="#000000" stroke-opacity="0" stroke-width="0.000000"/>
		<path id="Fill 45" d="M16.9 10.06L16.74 9.95L16.92 9.89L16.91 9.69L17.06 9.8L17.2 9.67L17.22 9.86L17.4 9.89L17.27 10.03L17.36 10.2L17.18 10.18L17.11 10.36L17.01 10.19L16.83 10.25L16.9 10.06Z" fill="#FFF101" fill-opacity="1.000000" fill-rule="evenodd"/>
		<path id="Stroke 46" d="M16.74 9.95L16.92 9.89L16.91 9.69L17.06 9.8L17.2 9.67L17.22 9.86L17.4 9.89L17.27 10.03L17.36 10.2L17.18 10.18L17.11 10.36L17.01 10.19L16.83 10.25L16.9 10.06L16.74 9.95Z" stroke="#000000" stroke-opacity="0" stroke-width="0.000000"/>
		<path id="Shape" d="M12.7995 12.2865C13.1333 12.1747 13.5705 12.303 13.8601 12.5948C14.1603 12.5406 14.4801 12.1548 14.5826 11.7673C14.5328 11.1923 14.3481 10.6753 14.0164 10.0408C13.9501 9.91382 13.7348 9.51953 13.7211 9.49402C13.616 9.29736 13.5497 9.15894 13.5043 9.0343C13.4069 8.76715 13.0447 8.5426 12.7443 8.66772C12.7051 8.68402 12.667 8.69702 12.6252 8.70874C12.5983 8.71625 12.5709 8.72302 12.5334 8.73163C12.1433 8.82092 11.9269 8.89771 11.3598 9.1947C11.344 9.203 11.328 9.21136 11.3119 9.21991C11.1568 9.30206 10.6905 9.56091 10.6428 9.58661C10.4199 9.70673 10.2803 9.76996 10.1808 9.79102C9.84988 9.8609 9.68378 9.85797 9.5322 9.73328C9.48245 9.69238 9.42932 9.6554 9.37085 9.62018C9.32474 9.59241 9.2767 9.56653 9.2186 9.53741C9.18918 9.52264 9.0903 9.47461 9.07358 9.46631C8.95764 9.40881 8.88824 9.36627 8.83084 9.31244C8.7988 9.28235 8.63162 9.12164 8.58969 9.08344C8.51065 9.01129 8.45093 8.96527 8.39273 8.93414C8.38025 8.92749 8.36792 8.92151 8.35559 8.91632C8.2063 8.85278 8.05072 8.97284 8.05072 9.1723C8.05072 9.21429 8.05762 9.25977 8.07288 9.3078C8.16699 9.60413 8.28683 9.77405 8.56253 10.0654C8.57266 10.0761 8.57266 10.0761 8.58279 10.0868C8.84601 10.3649 8.95575 10.5159 9.04575 10.7776C9.18167 11.1734 9.35269 11.2972 9.65219 11.0892C10.1913 10.7147 10.6092 10.538 11.2785 10.5111C11.8442 10.4882 12.3863 10.2704 12.6426 9.94543C12.6431 10.0128 12.6486 10.0812 12.659 10.1619C12.6641 10.2021 12.6661 10.2158 12.6807 10.3129C12.7065 10.485 12.7191 10.6017 12.7191 10.7226C12.7191 10.7664 12.7174 10.8107 12.7142 10.8584C12.705 10.9945 12.7001 11.1312 12.7001 11.2686C12.7001 11.6 12.7282 11.9362 12.7902 12.2806L12.7995 12.2865ZM12.8044 12.2778C12.804 12.275 12.8034 12.2722 12.8029 12.2693C12.8003 12.2702 12.7977 12.2711 12.7951 12.272L12.8044 12.2778ZM12.7147 11.2686C12.7147 11.5964 12.7422 11.9288 12.8029 12.2693C13.141 12.1604 13.5791 12.2905 13.8639 12.5818C14.1515 12.5268 14.4674 12.1456 14.5684 11.7659C14.5185 11.1962 14.3345 10.681 14.0037 10.0481C13.9374 9.92133 13.7221 9.52716 13.7084 9.50153C13.603 9.30426 13.5364 9.16522 13.4907 9.03973C13.396 8.77997 13.0417 8.5603 12.7497 8.68195C12.7099 8.69849 12.6713 8.71167 12.6289 8.72351C12.6018 8.73114 12.5742 8.73792 12.5365 8.74658C12.1476 8.83557 11.9323 8.91199 11.3663 9.20837C11.3505 9.21667 11.3346 9.22504 11.3185 9.23358C11.1635 9.31561 10.6973 9.57446 10.6494 9.60022C10.4253 9.72095 10.285 9.78461 10.1837 9.80597C9.84869 9.87677 9.67935 9.87372 9.52322 9.7453C9.47406 9.7049 9.42148 9.66827 9.36359 9.63342C9.31784 9.6059 9.27014 9.58014 9.21234 9.55121C9.18301 9.5365 9.08414 9.48846 9.06735 9.48016C8.95023 9.42206 8.87985 9.37891 8.82114 9.32385C8.78897 9.29364 8.62189 9.13306 8.58014 9.09497C8.50192 9.02356 8.44305 8.97821 8.38614 8.94775C8.37402 8.94128 8.36206 8.93555 8.35013 8.93048C8.21082 8.87122 8.06525 8.98315 8.06525 9.17212C8.06525 9.21252 8.0719 9.25647 8.0867 9.30298C8.17993 9.5965 8.29861 9.76483 8.57285 10.0546C8.58298 10.0653 8.58298 10.0653 8.59311 10.076C8.85773 10.3555 8.96854 10.5081 9.05945 10.7724C9.19263 11.1602 9.35464 11.2775 9.64417 11.0764C10.1853 10.7006 10.6056 10.5229 11.2779 10.4958C11.8495 10.4727 12.3966 10.2493 12.6442 9.91901L12.6572 9.92383L12.6572 9.93536C12.6572 10.0053 12.6626 10.0757 12.6734 10.1599C12.6785 10.2 12.6805 10.2135 12.6951 10.3105C12.721 10.4834 12.7336 10.6008 12.7336 10.7225C12.7336 10.7667 12.732 10.8113 12.7287 10.8595C12.7195 10.9952 12.7147 11.1315 12.7147 11.2686ZM9.32013 9.58929C9.16669 9.51105 9.01157 9.69385 8.92459 10.0701L8.93723 10.0768L9.32251 9.60114L9.32013 9.58929ZM9.3114 9.59125L9.30515 9.59894C9.30801 9.60022 9.31088 9.60156 9.31378 9.60303L9.3114 9.59125ZM8.94635 10.0419L9.30515 9.59894C9.17029 9.53986 9.03067 9.70282 8.94635 10.0419ZM8.94635 10.0419L8.92612 10.067L8.93875 10.0737C8.94122 10.0629 8.94376 10.0524 8.94635 10.0419ZM9.13809 9.49487C8.97882 9.41925 8.86694 9.4989 8.71292 9.84174L8.72403 9.85101L9.13959 9.50787L9.13809 9.49487ZM9.13208 9.50885L9.13058 9.49585L9.12097 9.50378C9.12466 9.50537 9.12836 9.50708 9.13208 9.50885ZM8.73956 9.81873L9.12097 9.50378C8.98105 9.44324 8.87979 9.51562 8.73956 9.81873ZM8.73956 9.81873L8.71503 9.83899L8.7261 9.84827C8.73062 9.83813 8.73511 9.82831 8.73956 9.81873ZM8.86893 9.3443C8.76608 9.26312 8.62735 9.36798 8.55466 9.55957L8.56546 9.56879L8.86859 9.35681L8.86893 9.3443ZM8.8602 9.35651L8.86053 9.34406L8.85159 9.35028C8.85449 9.35223 8.85736 9.35431 8.8602 9.35651ZM8.57751 9.54193L8.85159 9.35028C8.76385 9.2923 8.6467 9.37885 8.57751 9.54193ZM8.57751 9.54193L8.55737 9.55603L8.56818 9.56525C8.5712 9.55731 8.57431 9.54956 8.57751 9.54193Z" clip-rule="evenodd" fill="#000000" fill-opacity="1.000000" fill-rule="evenodd"/>
		<path id="Shape" d="M13.4451 12.3109C13.4106 12.1082 13.407 11.9866 13.4174 11.7605C13.4184 11.7388 13.4184 11.7388 13.4193 11.7171C13.431 11.4472 13.4104 11.2658 13.3091 10.9438C13.1882 10.5591 13.0955 10.0336 13.0932 9.76703L12.9965 9.78644C12.9935 10.0618 13.0866 10.5891 13.2079 10.9753C13.3086 11.2954 13.329 11.475 13.3174 11.743C13.3165 11.7647 13.3165 11.7647 13.3155 11.7864C13.3059 11.9951 13.3081 12.1057 13.3344 12.2834C13.3607 12.2941 13.4081 12.3092 13.4355 12.3194L13.4451 12.3109ZM13.4404 12.305L13.4308 12.3135C13.4301 12.3092 13.4294 12.3049 13.4286 12.3007C13.4328 12.3022 13.4368 12.3036 13.4404 12.305ZM13.343 12.2747C13.3616 12.2787 13.4004 12.2908 13.4286 12.3007C13.3959 12.1043 13.3926 11.9821 13.4028 11.7598C13.4038 11.738 13.4038 11.738 13.4048 11.7164C13.4163 11.4483 13.396 11.2687 13.2953 10.9486C13.1739 10.5625 13.0809 10.0354 13.0879 9.77441L13.0058 9.7937C13.0081 10.06 13.1008 10.5857 13.2218 10.9706C13.3231 11.2925 13.3436 11.4739 13.332 11.7438C13.331 11.7654 13.331 11.7654 13.33 11.7871C13.3205 11.9948 13.3227 12.1046 13.343 12.2747Z" clip-rule="evenodd" fill="#000000" fill-opacity="1.000000" fill-rule="evenodd"/>
		<path id="Shape" d="M12.9308 12.2325C12.9308 12.1586 12.9258 12.0865 12.9158 12.0256C12.9489 12.0247 12.9967 12.0262 13.0584 12.037C13.0795 12.0407 13.1006 12.0451 13.1302 12.0518C13.2234 12.0726 13.2369 12.0753 13.2653 12.0759C13.3042 12.0766 13.3256 12.0629 13.3256 12.031L13.3254 12.0259C13.3249 12.0181 13.3246 12.006 13.3246 11.9907C13.3246 11.9505 13.3262 11.8876 13.3286 11.8179L13.3141 11.8174C13.3134 11.835 13.2934 11.8425 13.2518 11.8397C13.2173 11.8375 13.1778 11.8297 13.1022 11.812C13.098 11.811 13.098 11.811 13.0939 11.81C12.9703 11.7809 12.9217 11.7725 12.8943 11.7828C12.8906 11.7634 12.8874 11.7437 12.8846 11.7236C12.8731 11.6426 12.8683 11.5693 12.8683 11.4736C12.8683 11.4155 12.8701 11.3491 12.8731 11.2678C12.8762 11.1878 12.8779 11.1265 12.8779 11.0767C12.8779 10.9881 12.8724 10.9359 12.8586 10.8804C12.8681 10.8807 12.8795 10.8804 12.8929 10.8802L12.8929 10.8802C12.9146 10.8799 12.9415 10.8794 12.9743 10.8806C12.9868 10.881 12.9981 10.8816 13.0183 10.8827C13.0877 10.8864 13.1118 10.8867 13.1366 10.8817C13.165 10.8759 13.1805 10.8619 13.1805 10.8389C13.1805 10.8335 13.1796 10.8276 13.1779 10.8212C13.1699 10.7949 13.1584 10.75 13.1409 10.6777C13.1399 10.6735 13.1398 10.6731 13.1389 10.6695L13.1388 10.6692C13.1375 10.6636 13.1176 10.5811 13.1128 10.5616L13.0986 10.5654C13.0995 10.569 13.0999 10.5723 13.0999 10.5753C13.0999 10.5867 13.0935 10.5929 13.0798 10.5967C13.0648 10.6009 13.0485 10.6013 13.0058 10.6001C12.9965 10.5999 12.9965 10.5999 12.9871 10.5996C12.9413 10.5988 12.9122 10.6019 12.8915 10.6134C12.8535 10.3845 12.8173 10.0707 12.8173 9.93011L12.8173 9.9256L12.65 9.9162C12.6474 9.94299 12.6462 9.96893 12.6462 9.99487C12.6462 10.0484 12.6512 10.1017 12.659 10.162C12.6642 10.2022 12.6661 10.2158 12.6807 10.313C12.7066 10.4852 12.7191 10.6017 12.7191 10.7227C12.7191 10.7664 12.7175 10.8107 12.7142 10.8585C12.705 10.9946 12.7002 11.1312 12.7002 11.2687C12.7002 11.6001 12.7282 11.9363 12.7902 12.2807C12.8299 12.2773 12.8837 12.2639 12.925 12.255L12.9308 12.2476L12.9308 12.2325ZM12.922 12.24C12.9201 12.2404 12.9182 12.2408 12.9163 12.2413L12.9162 12.2474L12.922 12.24ZM12.7953 12.272C12.8248 12.2629 12.8755 12.2502 12.9163 12.2413L12.9163 12.232C12.9163 12.1591 12.9116 12.0875 12.9069 12.0195C12.9478 12.0092 12.9973 12.0109 13.0608 12.022C13.0822 12.0257 13.1034 12.0301 13.1333 12.0368C13.225 12.0574 13.2386 12.0601 13.2656 12.0605C13.2972 12.0612 13.311 12.0527 13.311 12.0308L13.3109 12.027C13.3103 12.0187 13.3101 12.0063 13.3101 11.9905C13.3101 11.9556 13.3112 11.9043 13.3131 11.8461C13.3 11.8542 13.279 11.8569 13.2509 11.855C13.2154 11.8527 13.1754 11.8448 13.099 11.8269C13.0948 11.8259 13.0948 11.8259 13.0907 11.825C12.9601 11.7943 12.9133 11.7871 12.8929 11.8004L12.8819 11.7955C12.8774 11.7727 12.8735 11.7495 12.8701 11.7258C12.8586 11.644 12.8538 11.5701 12.8538 11.4737C12.8538 11.4153 12.8555 11.3488 12.8586 11.2672C12.8618 11.1811 12.8636 11.1167 12.8636 11.0646C12.8636 10.9835 12.8593 10.9321 12.8496 10.875C12.8816 10.8658 12.9205 10.8634 12.9748 10.8653C12.9874 10.8657 12.9987 10.8663 13.0191 10.8674C13.087 10.8711 13.1107 10.8713 13.1339 10.8666C13.1557 10.8622 13.1659 10.8539 13.1659 10.8387C13.1659 10.8348 13.1653 10.8304 13.1639 10.8256C13.1559 10.7992 13.1444 10.7541 13.1268 10.6815C13.1257 10.6772 13.1256 10.6769 13.1248 10.6733L13.1066 10.5981C13.1014 10.6042 13.0936 10.6087 13.0836 10.6115C13.0667 10.6162 13.0497 10.6166 13.0054 10.6154C12.9961 10.6151 12.9961 10.6151 12.9868 10.6149C12.9368 10.614 12.9082 10.6181 12.8906 10.6321L12.8791 10.6273C12.8434 10.4155 12.8089 10.1263 12.8089 9.97461C12.8089 9.95935 12.8092 9.94543 12.81 9.93317L12.6572 9.92389L12.6572 9.93542C12.6572 10.0054 12.6626 10.0758 12.6734 10.1599C12.6786 10.2 12.6806 10.2136 12.6951 10.3106C12.7211 10.4835 12.7337 10.6008 12.7337 10.7226C12.7337 10.7667 12.732 10.8114 12.7288 10.8596C12.7193 10.9987 12.7145 11.1385 12.7145 11.2789C12.7145 11.6057 12.7406 11.9362 12.7953 12.272ZM13.1066 10.5981C13.1118 10.5922 13.1144 10.5845 13.1144 10.5753C13.1144 10.5711 13.1139 10.5666 13.1128 10.5618L13.0987 10.5655C13.1002 10.5716 13.1032 10.5839 13.1066 10.5981ZM13.3131 11.8461C13.3229 11.84 13.3282 11.8307 13.3286 11.8179L13.3141 11.8174C13.3138 11.8271 13.3134 11.8367 13.3131 11.8461ZM11.7187 9.01062C11.6759 9.02991 11.6557 9.07489 11.6557 9.14252C11.6557 9.20392 11.6723 9.28394 11.7036 9.38043C11.7564 9.54266 11.8498 9.74646 11.9622 9.95465L11.9755 9.94879L11.7285 9.01562L11.7187 9.01062ZM11.7145 9.01971L11.7169 9.02856C11.7193 9.02716 11.7218 9.02582 11.7244 9.02466L11.7145 9.01971ZM11.9453 9.89148L11.7169 9.02856C11.6856 9.04694 11.6704 9.08582 11.6704 9.14301C11.6704 9.20184 11.6864 9.28009 11.7174 9.37549C11.7651 9.52222 11.8466 9.70367 11.9453 9.89148ZM11.9453 9.89148L11.9615 9.95288L11.9749 9.94708C11.9648 9.92853 11.955 9.90997 11.9453 9.89148ZM11.9664 10.0544C11.8979 10.0903 11.8294 10.1217 11.761 10.1485L11.7658 10.165L11.9719 10.0706L11.9664 10.0544ZM11.9722 10.0705L11.9667 10.0543L11.7607 10.1486L11.7655 10.1652C11.8344 10.1382 11.9033 10.1066 11.9722 10.0705ZM10.7358 10.3291C10.6832 10.3436 10.632 10.3594 10.5818 10.3766L10.5857 10.3936L10.7392 10.3461L10.7358 10.3291ZM10.739 10.3461L10.7356 10.3292L10.582 10.3766L10.5859 10.3935C10.6358 10.3763 10.6867 10.3605 10.739 10.3461Z" clip-rule="evenodd" fill="#000000" fill-opacity="1.000000" fill-rule="evenodd"/>
		<path id="Shape" d="M12.5132 9.5036C12.2878 9.84534 11.7404 10.1085 11.183 10.1669C10.6457 10.2231 10.2336 10.3896 9.84396 10.6592C9.8363 10.6279 9.81522 10.6083 9.76334 10.5703L9.76312 10.5702C9.75 10.5605 9.74411 10.5562 9.737 10.5507C9.53928 10.3969 9.44934 10.2045 9.46237 10.0272C9.47311 9.88074 9.55655 9.78241 9.63629 9.81409L9.64148 9.7998C9.61276 9.78809 9.58807 9.77405 9.56296 9.75616C9.54929 9.74646 9.50861 9.71436 9.50751 9.7135C9.42273 9.64758 9.27045 9.88269 9.28809 10.1271C9.20987 10.1239 9.12885 10.152 9.06122 10.2003C9.05951 10.1897 9.04822 10.178 9.03629 10.1659C9.00574 10.1348 8.90265 10.0325 8.88828 10.018C8.74664 9.87531 8.6666 9.77527 8.60693 9.65192C8.52911 9.49078 8.51999 9.34576 8.57217 9.27246C8.61642 9.21033 8.69644 9.21411 8.78473 9.28918C8.8013 9.30505 8.8143 9.31738 8.82114 9.32385L8.83115 9.31274C8.81897 9.29993 8.80682 9.28839 8.79477 9.27814C8.73358 9.21979 8.62274 9.11359 8.58969 9.08344C8.51065 9.01129 8.45093 8.96527 8.39273 8.93414C8.38025 8.92743 8.36792 8.92151 8.35559 8.91632C8.17487 8.83942 7.98499 9.03143 8.07288 9.3078C8.16699 9.60413 8.28683 9.77405 8.56253 10.0654C8.57266 10.0761 8.57266 10.0761 8.58279 10.0868C8.84601 10.3649 8.95575 10.5159 9.04575 10.7776C9.10834 10.9598 9.17529 11.0797 9.26147 11.1426C9.36581 11.2187 9.49393 11.205 9.65234 11.0891C9.6705 11.0757 9.68311 11.0667 9.70441 11.0514L9.70505 11.051C9.71939 11.0406 9.73068 11.0323 9.74594 11.021C9.85989 10.9519 10.0049 11.0841 9.98914 11.2911L10.0031 11.2947C10.0586 11.1555 10.0598 11.0732 10.018 10.9832C10.011 10.9682 10.0029 10.9528 9.99179 10.933C9.98703 10.9245 9.96649 10.8887 9.96109 10.8792C9.94131 10.8819 9.93448 10.8781 9.92722 10.863C9.92075 10.8496 9.91617 10.8323 9.90884 10.7975C9.90793 10.7931 9.90793 10.7931 9.90698 10.7887C9.89844 10.748 9.89276 10.7272 9.88425 10.7156C10.1055 10.5721 10.3293 10.4633 10.5858 10.3853C10.5914 10.5233 10.6304 10.6004 10.7151 10.5855C10.767 10.5734 10.8166 10.5632 10.867 10.5544L10.8646 10.5393C10.7932 10.5519 10.7591 10.4785 10.7446 10.3357C10.8817 10.3095 11.0323 10.2852 11.1919 10.2714C11.3849 10.2548 11.582 10.2136 11.7654 10.1511C11.8035 10.3188 11.8607 10.4172 11.9446 10.3878C12.0318 10.3584 12.1107 10.3271 12.1826 10.2927C12.1843 10.2919 12.1859 10.2911 12.1877 10.2902L12.1877 10.2902L12.1815 10.2763L12.1815 10.2764C12.18 10.2771 12.1784 10.2778 12.1769 10.2786C12.1011 10.3136 12.0495 10.2639 12.0057 10.1477C12.0004 10.1335 11.9953 10.1186 11.9896 10.1013L11.9762 10.059C12.2242 9.95331 12.4247 9.80072 12.5439 9.62695L12.5264 9.50665L12.5132 9.5036ZM12.1198 10.3046C12.139 10.307 12.1598 10.3032 12.1826 10.2927C12.1843 10.2918 12.186 10.291 12.1877 10.2902L12.1815 10.2764C12.1799 10.2771 12.1784 10.2778 12.1769 10.2786C12.1584 10.2875 12.1393 10.2961 12.1198 10.3046ZM12.515 9.5274L12.5308 9.62378C12.4146 9.78931 12.2162 9.94025 11.9664 10.0544C11.9618 10.0619 11.9725 10.0959 11.9758 10.1062C11.9815 10.1237 11.9868 10.1389 11.9922 10.1533C12.0263 10.2439 12.0667 10.298 12.1198 10.3046C12.0642 10.3289 12.0044 10.3516 11.9401 10.3732C11.869 10.3982 11.8149 10.3051 11.7702 10.1417C11.5786 10.1987 11.3825 10.2397 11.1907 10.2562C11.0304 10.27 10.8791 10.2944 10.7357 10.329C10.7431 10.45 10.7664 10.5257 10.814 10.5486C10.7804 10.5552 10.7468 10.5624 10.7124 10.5705C10.6402 10.5831 10.605 10.5136 10.5911 10.3771C10.3209 10.4499 10.0936 10.561 9.86859 10.7078L9.86841 10.7207C9.87692 10.7266 9.88312 10.746 9.89276 10.792C9.89371 10.7964 9.89371 10.7964 9.89462 10.8008C9.90222 10.837 9.90701 10.8549 9.91422 10.8699C9.92474 10.8918 9.93973 10.9001 9.95825 10.8898C9.95416 10.8963 9.97287 10.9294 9.97858 10.9396L9.97925 10.9407C9.9902 10.9602 9.99814 10.9753 10.0049 10.9899C10.0407 11.0668 10.0434 11.1373 10.0047 11.2486C9.99902 11.0557 9.85538 10.937 9.7381 11.0081C9.72232 11.0198 9.71109 11.028 9.69681 11.0383L9.69617 11.0388C9.6749 11.0541 9.66223 11.0632 9.64401 11.0765C9.4902 11.1891 9.36859 11.2021 9.26978 11.13C9.18674 11.0694 9.12109 10.9518 9.05945 10.7724C8.96854 10.5081 8.85773 10.3555 8.59311 10.076C8.58298 10.0653 8.58298 10.0653 8.57285 10.0546C8.29861 9.76483 8.17993 9.5965 8.0867 9.30298C8.00272 9.03888 8.18103 8.85852 8.35013 8.93048C8.36206 8.93555 8.37402 8.94128 8.38614 8.94775C8.44305 8.97821 8.50192 9.02356 8.58014 9.09497C8.60373 9.11646 8.66736 9.17712 8.72403 9.23126C8.6571 9.19995 8.59793 9.21082 8.56052 9.26331C8.50439 9.3421 8.51389 9.4931 8.59396 9.65881C8.65454 9.78406 8.73547 9.88525 8.8782 10.0291C8.89264 10.0436 8.99567 10.1458 9.02615 10.1769C9.03802 10.189 9.04929 10.2006 9.06015 10.212C9.13885 10.1633 9.22296 10.1358 9.29544 10.1364C9.29184 10.1749 9.3017 10.211 9.32016 10.257C9.32166 10.2606 9.327 10.2736 9.33093 10.2832C9.27859 10.2891 9.22177 10.3081 9.17902 10.3361C9.26205 10.455 9.33185 10.4954 9.4791 10.5236L9.48584 10.511C9.39685 10.4061 9.31088 10.2344 9.30276 10.1282C9.28485 9.89337 9.42847 9.67102 9.4989 9.72583C9.49985 9.72656 9.54077 9.75885 9.55478 9.76886C9.56757 9.77795 9.58029 9.78613 9.59348 9.79352C9.52054 9.80304 9.45721 9.89832 9.44785 10.026C9.43445 10.2087 9.52667 10.4061 9.7283 10.5629C9.73557 10.5686 9.74155 10.5731 9.75482 10.5828L9.755 10.5829C9.80508 10.6195 9.82501 10.638 9.84161 10.6694C10.2398 10.4037 10.6497 10.2381 11.1844 10.1821C11.7375 10.1242 12.2809 9.86597 12.515 9.5274ZM9.59348 9.79352C9.60703 9.80109 9.62109 9.80792 9.63623 9.81409L9.64145 9.7998C9.62531 9.79333 9.60916 9.79144 9.59348 9.79352ZM12.515 9.5274L12.512 9.50928L12.5252 9.51233C12.5219 9.5174 12.5185 9.5224 12.515 9.5274ZM9.33093 10.2832C9.33261 10.2874 9.33405 10.2909 9.33481 10.2928L9.34097 10.2822C9.33765 10.2825 9.33429 10.2828 9.33093 10.2832ZM10.0047 11.2486C10.0003 11.2614 9.99527 11.2748 9.98969 11.2888L10.0037 11.2923C10.0048 11.2773 10.0051 11.2628 10.0047 11.2486ZM10.814 10.5486C10.8291 10.556 10.8467 10.558 10.867 10.5544L10.8646 10.5393C10.8477 10.5423 10.8308 10.5454 10.814 10.5486ZM8.72403 9.23126C8.74628 9.2525 8.76746 9.27271 8.78473 9.28918C8.79663 9.29932 8.80872 9.31079 8.82086 9.32355L8.83084 9.31244C8.82407 9.30603 8.81122 9.29382 8.79477 9.27814C8.77066 9.25757 8.74689 9.24194 8.72403 9.23126ZM9.18848 10.3377C9.22894 10.3212 9.28589 10.3029 9.33746 10.2979C9.36984 10.3708 9.41458 10.4457 9.46124 10.5044C9.33121 10.4771 9.267 10.4373 9.18848 10.3377Z" clip-rule="evenodd" fill="#000000" fill-opacity="1.000000" fill-rule="evenodd"/>
		<path id="Shape" d="M13.7119 13.2026C13.7119 13.1028 13.723 13.0022 13.7458 12.9047C13.551 12.6589 13.0728 12.561 12.7019 12.6614C12.3482 12.9233 12.0558 13.2572 11.7787 13.683C11.623 13.922 11.1447 14.7872 11.0375 14.9398C11.0204 14.9642 11.0035 14.9871 10.9868 15.0086C10.9085 15.11 10.8651 15.257 10.8651 15.407C10.8651 15.5856 10.9267 15.7684 11.0645 15.8829C11.0759 15.8924 11.0869 15.9019 11.0976 15.9116C11.1305 15.9414 11.1604 15.9722 11.1956 16.0118C11.2102 16.0282 11.2888 16.1194 11.3149 16.1487C11.3686 16.2088 11.4222 16.2643 11.4863 16.3249C11.6515 16.4809 11.8749 16.6583 12.1914 16.8783C12.3515 16.9895 12.8528 17.3206 12.8555 17.3224L12.8555 17.3224C13.0778 17.4724 13.2038 17.5701 13.2728 17.6523C13.4683 17.8851 13.5545 18.0313 13.5545 18.1988C13.5545 18.2223 13.5528 18.2462 13.5495 18.2708C13.5406 18.3364 13.5365 18.3964 13.5365 18.4633C13.5365 18.5388 13.5417 18.6232 13.5513 18.7348C13.561 18.8479 13.5662 18.922 13.5662 18.9806C13.5662 19.0337 13.562 19.074 13.553 19.1189C13.5487 19.1407 13.4912 19.4142 13.4797 19.4803C13.4661 19.5581 13.4592 19.6209 13.4592 19.676C13.4592 19.7018 13.4608 19.726 13.4638 19.7492C13.491 19.9519 13.7441 20.0285 13.9282 19.8104C14.1294 19.5721 14.2051 19.3855 14.3138 18.9645C14.4137 18.5782 14.4821 18.4051 14.6541 18.191C14.78 18.0343 14.8485 17.9023 14.8485 17.7887C14.8485 17.6692 14.7726 17.57 14.6079 17.4837C14.03 17.1812 13.6748 16.8892 13.3178 16.2941C13.0161 15.7911 12.5654 15.407 12.1692 15.3365C12.2377 15.2943 12.3012 15.2462 12.3866 15.1747C12.4048 15.1594 12.4686 15.1052 12.4716 15.1027L12.4716 15.1026C12.5063 15.0733 12.5331 15.0511 12.5601 15.0294C12.6693 14.9418 12.7693 14.8747 12.8866 14.8148C13.2856 14.6111 13.6638 14.3581 14.0217 14.0348L14.0219 14.0233C13.8245 13.8347 13.7119 13.5219 13.7119 13.2026ZM14.0122 14.0232C14.0102 14.0251 14.0081 14.0269 14.006 14.0288C14.008 14.0307 14.01 14.0327 14.0121 14.0346L14.0122 14.0232ZM12.8802 14.8011C13.2759 14.5991 13.6509 14.3485 14.006 14.0288C13.8098 13.8371 13.6981 13.5246 13.6981 13.2084C13.6981 13.1073 13.7095 13.0058 13.7332 12.9078C13.544 12.6738 13.0715 12.5771 12.7079 12.6751C12.3582 12.9347 12.067 13.2672 11.7907 13.6916C11.6355 13.9299 11.157 14.7955 11.0492 14.9489C11.0319 14.9734 11.015 14.9966 10.9982 15.0182C10.9219 15.1169 10.8797 15.2604 10.8797 15.4068C10.8797 15.5812 10.9396 15.7596 11.0736 15.8709C11.0851 15.8805 11.0962 15.8902 11.1071 15.9C11.1404 15.9302 11.1707 15.9614 11.2063 16.0014C11.221 16.0179 11.2995 16.1091 11.3255 16.1382C11.379 16.198 11.4323 16.2532 11.496 16.3135C11.6606 16.469 11.8835 16.646 12.1994 16.8655C12.3594 16.9767 12.8608 17.3079 12.8633 17.3095C13.0869 17.4603 13.2135 17.5585 13.2837 17.6422C13.4814 17.8775 13.5691 18.0263 13.5691 18.1982C13.5691 18.2226 13.5674 18.2474 13.5639 18.273C13.5551 18.3378 13.5511 18.3971 13.5511 18.4634C13.5511 18.5383 13.5563 18.6223 13.5658 18.7335C13.5756 18.847 13.5808 18.9216 13.5808 18.9808C13.5808 19.0348 13.5764 19.076 13.5673 19.122C13.5629 19.1441 13.5055 19.4172 13.494 19.4831C13.4806 19.56 13.4738 19.622 13.4738 19.676C13.4738 19.7012 13.4753 19.7246 13.4782 19.747C13.5037 19.9368 13.7414 20.0087 13.9173 19.8003C14.1166 19.5641 14.1916 19.3794 14.2998 18.9605C14.4001 18.5721 14.4692 18.3974 14.643 18.1811C14.7667 18.0272 14.8337 17.8993 14.8337 17.7898C14.8337 17.6751 14.7602 17.5806 14.6014 17.4973C14.0213 17.1937 13.6642 16.9001 13.3055 16.3023C13.0007 15.794 12.5429 15.4082 12.1466 15.3482L12.1441 15.334C12.2188 15.2897 12.2853 15.2399 12.3775 15.1627C12.3957 15.1475 12.4595 15.0933 12.4624 15.0908C12.4972 15.0614 12.5241 15.0391 12.5513 15.0172C12.6612 14.929 12.762 14.8614 12.8802 14.8011ZM13.5367 18.5357C13.549 18.7143 13.7773 18.7639 14.131 18.6549L14.1302 18.64L13.5453 18.5276L13.5367 18.5357ZM13.5427 18.5427L13.5522 18.5445C13.5518 18.5413 13.5515 18.538 13.5512 18.5346L13.5427 18.5427ZM14.0969 18.6492L13.5522 18.5445C13.5709 18.6966 13.7752 18.742 14.0969 18.6492ZM14.0969 18.6492L14.1276 18.6551L14.1269 18.6402C14.1168 18.6433 14.1068 18.6463 14.0969 18.6492ZM13.5499 18.7484C13.567 18.9309 13.6888 18.9929 14.0486 18.9615L14.0507 18.9468L13.5598 18.7405L13.5499 18.7484ZM13.5644 18.7469L13.5544 18.7547L13.5658 18.7595C13.5652 18.7554 13.5648 18.7512 13.5644 18.7469ZM14.0163 18.9488L13.5658 18.7595C13.5856 18.9169 13.6961 18.9728 14.0163 18.9488ZM14.0163 18.9488L14.0453 18.961L14.0474 18.9463C14.0368 18.9472 14.0264 18.948 14.0163 18.9488ZM13.5603 19.0684C13.5447 19.2025 13.7007 19.2763 13.8949 19.2465L13.8971 19.232L13.5707 19.0625L13.5603 19.0684ZM13.5747 19.0703L13.5643 19.0762L13.5739 19.0812C13.574 19.0776 13.5743 19.0739 13.5747 19.0703ZM13.869 19.2345L13.5739 19.0812L13.5738 19.0861C13.5738 19.1919 13.7025 19.253 13.869 19.2345ZM13.869 19.2345L13.8906 19.2457L13.8928 19.2313C13.8848 19.2325 13.8768 19.2336 13.869 19.2345Z" clip-rule="evenodd" fill="#000000" fill-opacity="1.000000" fill-rule="evenodd"/>
		<path id="Shape" d="M13.719 13.4241C13.5642 13.5612 13.4753 13.6182 13.2616 13.7339C13.2451 13.7428 13.2327 13.7495 13.2206 13.7562C13.0099 13.8723 12.8672 13.9867 12.6594 14.2313C12.4026 14.5337 12.0155 14.8808 11.7968 15.0161L11.8612 15.0942C12.0899 14.9592 12.4782 14.6111 12.7361 14.3075C12.9425 14.0644 13.0839 13.9512 13.2929 13.836C13.305 13.8293 13.3174 13.8225 13.334 13.8136C13.5332 13.7057 13.6137 13.6553 13.7519 13.5385C13.7475 13.5092 13.736 13.4579 13.7308 13.4286L13.719 13.4241ZM13.7165 13.4314L13.7284 13.4358C13.7252 13.4386 13.722 13.4414 13.7189 13.4442C13.718 13.4396 13.7172 13.4353 13.7165 13.4314ZM13.7189 13.4442C13.5688 13.5762 13.4785 13.6337 13.2683 13.7475C13.2518 13.7564 13.2394 13.7631 13.2274 13.7698C13.0182 13.885 12.8768 13.9983 12.6703 14.2414C12.4126 14.545 12.0243 14.8932 11.8055 15.0171L11.8625 15.0821C12.0811 14.9469 12.4683 14.5998 12.7253 14.2973C12.9329 14.0528 13.0756 13.9385 13.2861 13.8224C13.2983 13.8157 13.3107 13.809 13.3273 13.8C13.5257 13.6926 13.6055 13.6426 13.7404 13.5349C13.7343 13.5161 13.7248 13.4744 13.7189 13.4442Z" clip-rule="evenodd" fill="#000000" fill-opacity="1.000000" fill-rule="evenodd"/>
		<path id="Shape" d="M13.924 13.9235C13.8584 13.9623 13.7967 14.0059 13.7484 14.0481C13.7269 14.0139 13.7024 13.9619 13.6768 13.8841C13.6699 13.8633 13.6458 13.7846 13.6401 13.7676C13.6264 13.7265 13.615 13.7007 13.602 13.6845C13.5853 13.664 13.5656 13.6602 13.544 13.6756C13.521 13.6915 13.4452 13.7352 13.3706 13.7765L13.3774 13.79C13.3925 13.7817 13.4088 13.7964 13.4275 13.8362C13.4429 13.8691 13.4561 13.9086 13.4797 13.9877C13.4959 14.0422 13.4963 14.0433 13.5022 14.0623C13.524 14.1317 13.5409 14.1717 13.559 14.1888C13.4898 14.2526 13.4108 14.3098 13.3148 14.3683C13.2509 14.4073 13.0407 14.5235 13.0102 14.5416C12.9298 14.5893 12.874 14.6297 12.8325 14.6727C12.8185 14.6475 12.7968 14.6117 12.7684 14.5548C12.765 14.5479 12.74 14.4966 12.733 14.4827C12.7198 14.4569 12.7092 14.4386 12.6989 14.4249C12.6738 14.3916 12.6487 14.3851 12.624 14.412C12.6057 14.433 12.5734 14.4669 12.5193 14.5223L12.5183 14.5233L12.4424 14.6009L12.4526 14.6119C12.4704 14.5941 12.485 14.6028 12.5072 14.6407C12.5111 14.6474 12.5151 14.6548 12.5202 14.6646C12.5227 14.6693 12.5268 14.6774 12.5337 14.6906C12.5577 14.7368 12.5751 14.7627 12.5956 14.7762C12.4247 14.9264 12.1801 15.119 12.0654 15.1876L12.1413 15.3444C12.2268 15.3025 12.2939 15.2523 12.3866 15.1747L12.4717 15.1026C12.5063 15.0733 12.5331 15.0511 12.5601 15.0294C12.6693 14.9418 12.7693 14.8747 12.8866 14.8148C13.2857 14.6111 13.6638 14.3581 14.0217 14.0348C13.9988 14.0002 13.9604 13.9574 13.933 13.925L13.924 13.9235ZM13.9221 13.9352C13.9234 13.9367 13.9247 13.9383 13.926 13.9398C13.9277 13.9388 13.9294 13.9378 13.9311 13.9368L13.9221 13.9352ZM14.012 14.0345C13.9895 14.012 13.9533 13.9718 13.926 13.9398C13.8631 13.9775 13.8038 14.0193 13.7478 14.0592C13.7145 14.0224 13.6893 13.9688 13.663 13.8891C13.656 13.8681 13.632 13.7895 13.6263 13.7726C13.6133 13.7332 13.6024 13.7087 13.5909 13.6945C13.5789 13.6796 13.5674 13.6775 13.5521 13.6883C13.5309 13.7029 13.4682 13.7393 13.4016 13.7765C13.4151 13.7844 13.4279 13.8026 13.4405 13.8295C13.4564 13.8633 13.4697 13.9032 13.4936 13.9831C13.5098 14.0375 13.5101 14.0386 13.5161 14.0575C13.5396 14.1322 13.5576 14.1722 13.5741 14.1815L13.5755 14.1939C13.5038 14.261 13.422 14.3206 13.3221 14.3816C13.2579 14.4207 13.0476 14.537 13.0174 14.5549C12.938 14.602 12.8831 14.6417 12.8325 14.6836C12.8069 14.657 12.7845 14.6201 12.7555 14.5619C12.752 14.5548 12.7271 14.5036 12.7201 14.4899C12.7073 14.4648 12.6971 14.4472 12.6874 14.4343C12.6672 14.4075 12.652 14.4036 12.6346 14.4225C12.6162 14.4436 12.5838 14.4776 12.5294 14.5333C12.5281 14.5346 12.5281 14.5346 12.5269 14.5359C12.528 14.5347 12.5285 14.5342 12.5285 14.5342L12.476 14.5878C12.4905 14.5914 12.5046 14.6071 12.5196 14.6328C12.5236 14.6396 12.5278 14.6473 12.533 14.6572C12.5355 14.662 12.5397 14.6701 12.5464 14.6833C12.5727 14.7337 12.5904 14.7583 12.6115 14.7676L12.6134 14.7805C12.4415 14.9323 12.1902 15.1306 12.0754 15.1905L12.1441 15.334C12.2188 15.2897 12.2853 15.24 12.3775 15.1627C12.3961 15.1471 12.4625 15.0907 12.4625 15.0907L12.4624 15.0908C12.4972 15.0614 12.5241 15.0391 12.5513 15.0173C12.6612 14.929 12.762 14.8614 12.8802 14.8011C13.2782 14.5979 13.6553 14.3456 14.012 14.0345ZM12.476 14.5878C12.4652 14.5851 12.4542 14.5892 12.4425 14.6008L12.4527 14.6118C12.4569 14.6074 12.4658 14.5983 12.476 14.5878ZM13.4016 13.7765C13.3917 13.7707 13.3814 13.7705 13.3706 13.7765L13.3774 13.79C13.3855 13.7855 13.3936 13.781 13.4016 13.7765ZM11.8601 16.644C11.9312 16.6998 12.0384 16.6342 12.1727 16.4728C12.2802 16.3438 12.4016 16.1569 12.517 15.9508L12.5055 15.9415L11.8593 16.6325L11.8601 16.644ZM11.8696 16.6433L11.8758 16.6367C11.8734 16.6352 11.8711 16.6336 11.8688 16.6318L11.8696 16.6433ZM12.4734 15.9977L11.8758 16.6367C11.9383 16.6758 12.037 16.6125 12.1617 16.4627C12.2589 16.346 12.3679 16.1812 12.4734 15.9977ZM12.4734 15.9977L12.5159 15.9523L12.5044 15.943C12.4941 15.9614 12.4838 15.9796 12.4734 15.9977ZM12.5973 15.8969C12.6573 15.9434 12.7142 15.992 12.7677 16.0426L12.7772 16.031L12.6062 15.8848L12.5973 15.8969ZM12.6059 15.8846L12.597 15.8967L12.768 16.0428L12.7775 16.0312C12.7236 15.9803 12.6663 15.9314 12.6059 15.8846ZM13.4391 16.8795C13.4809 16.9258 13.5212 16.9684 13.5611 17.008L13.5724 16.9963L13.4506 16.868L13.4391 16.8795ZM13.4507 16.8682L13.4392 16.8796L13.5612 17.0081L13.5725 16.9964C13.5327 16.9568 13.4925 16.9144 13.4507 16.8682Z" clip-rule="evenodd" fill="#000000" fill-opacity="1.000000" fill-rule="evenodd"/>
		<path id="Shape" d="M11.8748 15.6733L11.8708 15.6598C11.8766 15.6603 11.8825 15.6609 11.8884 15.6615L11.8748 15.6733ZM12.7257 15.6312C12.7379 15.6606 12.7357 15.6943 12.721 15.7316C12.7077 15.7654 12.685 15.8005 12.6525 15.8413C12.6404 15.8565 12.6284 15.8708 12.5973 15.8969C12.3779 15.7267 12.1543 15.6218 11.9599 15.5992L11.8884 15.6615C12.2847 15.7051 12.7693 16.07 13.0936 16.5441C13.407 17.0022 13.7484 17.292 14.1669 17.5214C14.1493 17.5523 14.144 17.5797 14.1389 17.6439L14.1388 17.6455C14.1376 17.6607 14.1369 17.6687 14.1359 17.6777C14.1073 17.9395 13.9906 18.122 13.8332 18.2012C13.7233 18.2564 13.6132 18.2466 13.5687 18.1852C13.5682 18.1693 13.5667 18.1534 13.5641 18.1359C13.5779 18.2242 13.7007 18.2508 13.8269 18.1874C13.9796 18.1106 14.0934 17.9326 14.1214 17.676C14.1224 17.6671 14.123 17.6593 14.1243 17.6443L14.1244 17.6426C14.1297 17.5761 14.1353 17.5471 14.1574 17.5243C13.7399 17.3047 13.3967 17.0133 13.0818 16.553C12.7549 16.0752 12.2642 15.7091 11.8696 15.675L11.8655 15.6615L11.956 15.5857C12.1586 15.6069 12.3846 15.7129 12.5962 15.8857C12.6175 15.8606 12.6294 15.8466 12.6413 15.8315C12.673 15.7918 12.6949 15.7578 12.7076 15.7257C12.7291 15.6711 12.7212 15.6273 12.6765 15.5931C12.6928 15.6053 12.7092 15.618 12.7257 15.6312ZM13.5811 16.6976C13.586 16.7523 13.5353 16.8113 13.4391 16.8786C13.3391 16.7658 13.2433 16.6404 13.1516 16.5014C13.0421 16.3352 12.9103 16.1775 12.7674 16.0316C12.8799 15.9091 12.9295 15.8136 12.8734 15.7614C12.823 15.7133 12.7739 15.6699 12.7257 15.6312C12.718 15.6126 12.7046 15.5957 12.685 15.5807C12.7495 15.6288 12.8151 15.6851 12.8831 15.75C12.9494 15.8117 12.8969 15.9126 12.7775 16.0313C12.9209 16.1669 13.0535 16.3256 13.1635 16.4927C13.2549 16.6311 13.3503 16.756 13.4401 16.8672C13.5508 16.7825 13.5942 16.715 13.5481 16.6562C13.5591 16.6703 13.5701 16.684 13.5811 16.6976ZM13.5593 16.6465C13.5724 16.6632 13.5796 16.6802 13.5811 16.6976C13.6037 16.7253 13.6265 16.7524 13.6499 16.7791C13.6966 16.8384 13.6567 16.9054 13.5511 16.986C13.7464 17.1955 13.9516 17.3466 14.1851 17.4777L14.1958 17.4715C14.1965 17.4601 14.2088 17.4459 14.2479 17.4083C14.2513 17.4051 14.2513 17.4051 14.2546 17.4019C14.2773 17.3799 14.2899 17.3659 14.2977 17.3524C14.3087 17.3333 14.3074 17.3166 14.2909 17.3055C14.2964 17.3077 14.3168 17.2702 14.3257 17.2537C14.3267 17.2519 14.3275 17.2504 14.3282 17.2492C14.3829 17.1498 14.4363 17.1064 14.5633 17.0834C14.4069 17.185 14.3808 17.3751 14.4982 17.4462C14.5153 17.4545 14.5271 17.4603 14.5434 17.4685L14.5439 17.4688C14.5771 17.4854 14.5805 17.4872 14.6016 17.4975C14.7714 17.5811 14.8429 17.6852 14.8328 17.8111C14.8243 17.9168 14.7602 18.0353 14.643 18.1812C14.4692 18.3975 14.4002 18.5722 14.2998 18.9606C14.1917 19.3794 14.1166 19.5642 13.9173 19.8003C13.7414 20.0088 13.5037 19.9368 13.4783 19.7471C13.4689 19.6765 13.4744 19.5959 13.494 19.4832C13.5005 19.446 13.5216 19.3431 13.5395 19.2564C13.5471 19.3331 13.5856 19.3816 13.6477 19.3893C13.7408 19.4009 13.8606 19.3168 13.9572 19.1611C14.0378 19.0312 14.0773 18.9089 14.1353 18.6531C14.1642 18.5258 14.1672 18.5127 14.1804 18.4607C14.1009 18.4135 14.0361 18.3508 14.0004 18.2846C14.0163 18.2815 14.0323 18.2673 14.0471 18.2516C14.0592 18.2388 14.0701 18.2254 14.0819 18.2094C14.0862 18.2037 14.0968 18.1887 14.1038 18.179C14.135 18.2237 14.179 18.2658 14.2234 18.2906C14.2798 18.1556 14.2783 18.0719 14.228 17.924L14.2142 17.9242C14.172 18.0578 14.0735 18.2215 13.9899 18.282C13.8053 18.4157 13.5501 18.3963 13.5601 18.3049C13.5609 18.2968 13.5617 18.2894 13.5636 18.273C13.5677 18.2382 13.5695 18.2116 13.5687 18.1852C13.5591 18.1719 13.5526 18.1562 13.5498 18.1382L13.5641 18.1359L13.5641 18.1358L13.5497 18.1382L13.5498 18.1382C13.5564 18.1831 13.5555 18.2166 13.5492 18.2712C13.5472 18.2875 13.5464 18.2951 13.5456 18.3033C13.5336 18.4133 13.8037 18.4341 13.9965 18.2959C14.0328 18.3687 14.0965 18.4282 14.1702 18.4656C14.1531 18.509 14.1501 18.5221 14.1212 18.6495C14.0635 18.9038 14.0244 19.0248 13.945 19.1528C13.8511 19.3041 13.736 19.3849 13.6495 19.3741C13.5757 19.3649 13.5388 19.2896 13.5573 19.1709C13.5626 19.1452 13.5663 19.1271 13.5674 19.1221L13.5532 19.1185C13.5489 19.1354 13.5455 19.1516 13.5431 19.1672C13.5251 19.2541 13.4886 19.4292 13.4797 19.4804C13.4598 19.5946 13.4542 19.6767 13.4639 19.7492C13.491 19.952 13.7441 20.0286 13.9282 19.8105C14.1294 19.5721 14.2052 19.3855 14.3139 18.9646C14.4137 18.5782 14.4821 18.4052 14.6542 18.191C14.7731 18.0429 14.8385 17.9221 14.8473 17.8123C14.8579 17.6794 14.7826 17.5697 14.6078 17.4836C14.5868 17.4733 14.5833 17.4716 14.5502 17.455L14.5497 17.4547C14.5333 17.4465 14.5214 17.4406 14.5049 17.4326C14.3908 17.3636 14.4273 17.1656 14.6059 17.0764L14.6019 17.0619C14.4406 17.0837 14.3781 17.1281 14.3156 17.2415C14.3084 17.2546 14.283 17.3029 14.2803 17.308C14.292 17.3242 14.2926 17.3316 14.2852 17.3445C14.2784 17.3564 14.2664 17.3697 14.2447 17.3907C14.2414 17.3939 14.2414 17.3939 14.2381 17.3971C14.2034 17.4304 14.1888 17.4458 14.1836 17.4595C13.9546 17.3301 13.7531 17.181 13.5605 16.9867C13.6716 16.913 13.7157 16.8387 13.6609 16.7691C13.6259 16.7291 13.5925 16.6888 13.5593 16.6465ZM13.5431 19.1672C13.538 19.2 13.5369 19.2299 13.5395 19.2564C13.5461 19.2243 13.5524 19.1944 13.5573 19.1709C13.5596 19.1555 13.563 19.1393 13.5672 19.1225L13.5531 19.119C13.5521 19.1239 13.5484 19.1418 13.5431 19.1672ZM14.1038 18.179C14.1018 18.1761 14.0998 18.1732 14.0979 18.1703L14.1097 18.1707C14.1088 18.1719 14.1066 18.175 14.1038 18.179ZM14.5633 17.0834C14.576 17.0811 14.5894 17.079 14.6037 17.0771L14.5997 17.0626C14.5869 17.069 14.5747 17.076 14.5633 17.0834ZM13.5593 16.6465L13.5481 16.6562L13.5481 16.6562L13.5593 16.6465ZM12.685 15.5807C12.6837 15.5797 12.6824 15.5788 12.6812 15.5779L12.6729 15.5904C12.6741 15.5913 12.6753 15.5922 12.6765 15.5931C12.6752 15.5922 12.674 15.5913 12.6728 15.5904L12.6811 15.5778C12.6824 15.5788 12.6837 15.5797 12.685 15.5807ZM14.22 18.2812C14.1862 18.2527 14.1427 18.2102 14.1126 18.1656C14.1565 18.0998 14.196 18.0217 14.2211 17.9498C14.2635 18.0816 14.2628 18.1599 14.22 18.2812ZM14.2909 17.3055L14.2905 17.3052L14.2909 17.3055Z" clip-rule="evenodd" fill="#000000" fill-opacity="1.000000" fill-rule="evenodd"/>
		<path id="Shape" d="M14.6239 16.8735L14.5089 16.7275L14.4962 16.7306L14.4543 16.921L14.2735 16.9192L14.268 16.9316L14.3845 17.0848L14.2709 17.231L14.2767 17.2432L14.4637 17.2444L14.5008 17.4287L14.5135 17.4317L14.6309 17.2791L14.7931 17.3624L14.8032 17.3537L14.7608 17.1631L14.9246 17.0827L14.9245 17.069L14.7558 16.9832L14.7995 16.7998L14.7892 16.7913L14.6239 16.8735ZM14.625 16.8898L14.7821 16.8117L14.7455 16.9885L14.9054 17.0757L14.7504 17.1581L14.7861 17.3423L14.6282 17.2673L14.5116 17.4106L14.4708 17.235L14.2911 17.2285L14.396 17.0847L14.2881 16.9342L14.4615 16.9303L14.5068 16.7487L14.6163 16.8878L14.625 16.8898ZM14.5068 16.7487L14.4977 16.7372L14.5104 16.7341L14.5068 16.7487ZM14.2881 16.9342L14.2738 16.9345L14.2794 16.9221L14.2881 16.9342ZM14.2911 17.2285L14.2825 17.2402L14.2768 17.2279L14.2911 17.2285ZM14.5116 17.4106L14.515 17.4251L14.5022 17.4221L14.5116 17.4106ZM14.7861 17.3423L14.7991 17.3485L14.789 17.3572L14.7861 17.3423ZM14.9054 17.0757L14.9181 17.069L14.9182 17.0827L14.9054 17.0757ZM14.7821 16.8117L14.7852 16.7965L14.7955 16.8051L14.7821 16.8117Z" clip-rule="evenodd" fill="#000000" fill-opacity="1.000000" fill-rule="evenodd"/>
		<path id="Shape" d="M14.8431 12.0435C14.7686 12.4028 14.4441 12.7363 14.0586 12.8538C14.0361 12.9177 14.0256 12.9899 14.0256 13.0668C14.0256 13.3509 14.1687 13.6985 14.3799 13.9246C14.5246 13.9952 14.6727 14.0525 14.827 14.0993C15.3018 14.2432 15.6902 14.2745 16.4614 14.2764C16.8557 14.2774 17.0096 14.283 17.1734 14.3104C17.4425 14.3554 17.8087 14.1384 17.8557 13.8027C17.8632 13.7492 17.8738 13.7002 17.8894 13.644C17.8987 13.6107 17.938 13.4819 17.9381 13.4819C17.9598 13.4093 17.9769 13.3457 17.9935 13.2723C18.0478 13.0327 18.0875 12.7237 18.1133 12.2803C18.1232 12.1096 18.1259 12.0419 18.1388 11.6776C18.1549 11.2233 18.1698 11.0383 18.211 10.91C18.3188 10.5743 18.4043 10.4246 18.5829 10.3492C18.6871 10.3051 18.7805 10.2488 18.8964 10.1654C18.925 10.1449 19.0202 10.0745 19.0374 10.062C19.0902 10.0237 19.1309 9.9964 19.1703 9.97363C19.209 9.95123 19.2453 9.93408 19.2808 9.92188C19.3181 9.90894 19.5414 9.83484 19.5958 9.81506C19.7117 9.77283 19.7867 9.7356 19.845 9.68787C19.8998 9.64294 19.927 9.5799 19.927 9.51477C19.927 9.39716 19.8384 9.27258 19.6635 9.23505C19.3681 9.17163 19.1733 9.19598 18.7798 9.30536C18.7663 9.30908 18.7663 9.30908 18.7528 9.31281C18.4058 9.40906 18.2221 9.43304 17.9647 9.38464C17.5907 9.31433 17.4028 9.39465 17.4028 9.72363C17.4028 9.74182 17.4033 9.76068 17.4045 9.7804C17.4112 9.89612 17.4149 10.0058 17.4149 10.1112C17.4149 10.6221 17.3272 11.0324 17.0682 11.5481C16.8874 11.9083 16.7875 12.3043 16.7875 12.6451C16.7875 12.8018 16.8086 12.9468 16.8526 13.0714C16.7764 13.0258 16.7014 12.9914 16.5742 12.9399C16.307 12.8316 16.2161 12.7881 16.0638 12.68C15.6967 12.4193 15.2986 12.2019 14.8527 12.0379L14.8431 12.0435ZM14.8479 12.0523C14.8504 12.0533 14.853 12.0542 14.8556 12.0552C14.8562 12.0524 14.8568 12.0496 14.8574 12.0468L14.8479 12.0523ZM16.0556 12.6927C15.6917 12.4341 15.2972 12.2184 14.8556 12.0552C14.7766 12.417 14.4501 12.7504 14.0674 12.8637C14.0472 12.923 14.0378 12.9904 14.0378 13.0623C14.0378 13.3406 14.1794 13.6883 14.3881 13.9123C14.53 13.981 14.6775 14.038 14.831 14.0846C15.3041 14.228 15.6916 14.2592 16.4614 14.2611C16.8566 14.2621 17.0109 14.2677 17.1757 14.2953C17.4374 14.3391 17.7956 14.1269 17.8413 13.8004C17.8489 13.7462 17.8597 13.6966 17.8754 13.6397C17.8847 13.6062 17.9241 13.4773 17.9242 13.4773L17.9239 13.4782C17.9457 13.4056 17.9627 13.3421 17.9793 13.2687C18.0334 13.0301 18.073 12.722 18.0987 12.2794C18.1086 12.1088 18.1113 12.0412 18.1242 11.6769C18.1404 11.2208 18.1554 11.0355 18.1972 10.9052C18.3063 10.5653 18.3935 10.4127 18.5775 10.335C18.6805 10.2914 18.7731 10.2356 18.8882 10.1528C18.9166 10.1324 19.0118 10.062 19.0292 10.0494C19.0823 10.0109 19.1234 9.98328 19.1633 9.96021C19.2028 9.93738 19.2398 9.91992 19.2762 9.90735C19.3138 9.89435 19.5369 9.82031 19.591 9.8006C19.7055 9.75885 19.7793 9.72229 19.836 9.67578C19.8871 9.63403 19.9125 9.57532 19.9125 9.51453C19.9125 9.40381 19.8282 9.28601 19.6606 9.25006C19.368 9.18719 19.175 9.2113 18.7835 9.32013C18.77 9.32385 18.77 9.32385 18.7566 9.32764C18.4076 9.42438 18.2221 9.44855 17.9621 9.39966C17.596 9.33087 17.4173 9.40668 17.4173 9.72375C17.4173 9.74158 17.4179 9.76013 17.419 9.77942C17.4258 9.89551 17.4295 10.0056 17.4295 10.1113C17.4295 10.6245 17.3413 11.037 17.0811 11.5552C16.9012 11.9135 16.802 12.3071 16.802 12.6452C16.802 12.8085 16.8252 12.9589 16.8736 13.0861L16.8632 13.0955C16.7812 13.0448 16.7055 13.0094 16.5689 12.9541C16.3007 12.8455 16.2091 12.8017 16.0556 12.6927ZM18.8077 10.2283C18.9489 10.1279 18.8757 9.89545 18.6089 9.6283L18.597 9.63641L18.7968 10.2245L18.8077 10.2283ZM18.8105 10.2194L18.8072 10.2098C18.8047 10.2119 18.8022 10.2138 18.7995 10.2156L18.8105 10.2194ZM18.6212 9.66217L18.8072 10.2098C18.8448 10.1797 18.8634 10.1376 18.8634 10.0859C18.8634 9.97797 18.7819 9.82867 18.6212 9.66217ZM18.6212 9.66217L18.6107 9.63129L18.5988 9.6394C18.6064 9.64703 18.6139 9.6546 18.6212 9.66217ZM18.9766 10.11C19.1185 10.0032 19.1087 9.86145 18.903 9.54999L18.8899 9.55542L18.9651 10.1049L18.9766 10.11ZM18.9681 10.0976L18.9795 10.1027L18.9778 10.09C18.9746 10.0926 18.9714 10.0951 18.9681 10.0976ZM18.9087 9.58575L18.9778 10.09C19.0298 10.048 19.0575 10 19.0575 9.93628C19.0575 9.85327 19.0104 9.74359 18.9087 9.58575ZM18.9087 9.58575L18.9043 9.55328L18.8911 9.55872C18.8971 9.56787 18.903 9.5769 18.9087 9.58575ZM19.2402 9.94061C19.3756 9.88757 19.356 9.70892 19.2168 9.54718L19.2019 9.55237L19.2286 9.93402L19.2402 9.94061ZM19.2334 9.92651L19.245 9.93304L19.2442 9.92181C19.2407 9.92346 19.2371 9.92505 19.2334 9.92651ZM19.2201 9.57678L19.2442 9.92181C19.2921 9.89862 19.315 9.85486 19.315 9.80042C19.315 9.73547 19.2823 9.65527 19.2201 9.57678ZM19.2201 9.57678L19.2183 9.55139L19.2035 9.55664C19.2092 9.56335 19.2148 9.57001 19.2201 9.57678Z" clip-rule="evenodd" fill="#000000" fill-opacity="1.000000" fill-rule="evenodd"/>
		<path id="Shape" d="M14.5004 12.6185C14.5387 12.633 14.575 12.6479 14.6097 12.6632C14.7482 12.7244 14.8087 12.761 14.9935 12.8855C15.2186 13.0371 15.3749 13.1084 15.6959 13.1784C16.0738 13.2607 16.5536 13.4391 16.7746 13.5703L16.8068 13.4727C16.5814 13.3324 16.1 13.1534 15.7205 13.0706C15.4014 13.001 15.2468 12.9305 15.0231 12.7798C14.8366 12.6542 14.7749 12.6169 14.634 12.5549C14.6159 12.5469 14.5973 12.5391 14.5783 12.5314C14.5565 12.55 14.5203 12.5856 14.4981 12.6055L14.5004 12.6185ZM14.5076 12.6171L14.5053 12.6041C14.5092 12.6056 14.5131 12.6071 14.5169 12.6085C14.5136 12.6116 14.5105 12.6145 14.5076 12.6171ZM14.5811 12.5435C14.5687 12.5585 14.5393 12.5878 14.5169 12.6085C14.5513 12.6218 14.584 12.6353 14.6154 12.6491C14.7549 12.7107 14.8159 12.7477 15.0013 12.8726C15.2251 13.0233 15.3797 13.0938 15.6989 13.1634C16.0781 13.2461 16.5594 13.425 16.7711 13.5619L16.7961 13.4775C16.5756 13.3465 16.0956 13.1681 15.7176 13.0856C15.3966 13.0156 15.2403 12.9443 15.0152 12.7927C14.8294 12.6675 14.7683 12.6306 14.6283 12.569C14.6104 12.5611 14.5919 12.5533 14.5811 12.5435Z" clip-rule="evenodd" fill="#000000" fill-opacity="1.000000" fill-rule="evenodd"/>
		<path id="Shape" d="M14.8097 12.1824C14.8745 12.2224 14.9413 12.2568 15.0002 12.2797C14.9941 12.2777 14.9915 12.2843 14.9886 12.2914L14.9882 12.2925C14.9706 12.3366 14.9395 12.3813 14.8879 12.4424C14.8789 12.4531 14.8412 12.4968 14.8322 12.5076C14.8122 12.5314 14.7986 12.5491 14.7886 12.5649C14.7765 12.5842 14.77 12.601 14.77 12.6151C14.77 12.6307 14.7781 12.6431 14.7953 12.6519C14.8199 12.6649 14.892 12.7108 14.9651 12.759L14.9728 12.7461C14.9673 12.7424 14.9645 12.7368 14.9645 12.7292C14.9645 12.7177 14.9711 12.7013 14.9845 12.6797C15.0031 12.65 15.0295 12.6174 15.0798 12.5599C15.0831 12.5562 15.0831 12.5562 15.0863 12.5525C15.1754 12.4509 15.2063 12.4116 15.2113 12.3815C15.3243 12.4218 15.4312 12.4796 15.5693 12.569C15.571 12.5701 15.7388 12.6811 15.7834 12.7084C15.8594 12.7551 15.9189 12.7845 15.9735 12.8003C15.9624 12.8149 15.951 12.8417 15.9339 12.8732C15.9251 12.8894 15.9153 12.9061 15.9019 12.9279C15.8448 13.0211 15.8457 13.0198 15.8358 13.0461C15.831 13.0587 15.8285 13.0699 15.8285 13.0797C15.8285 13.1002 15.8394 13.1141 15.8628 13.1202C15.8893 13.1263 15.9336 13.1388 16.0074 13.1606C16.0103 13.1615 16.0103 13.1615 16.0131 13.1623C16.0388 13.1699 16.0388 13.1699 16.0636 13.1773C16.0876 13.1844 16.0969 13.1871 16.1093 13.1907L16.1133 13.1761C16.1007 13.1721 16.0951 13.1657 16.0951 13.1551C16.0951 13.151 16.0959 13.1463 16.0975 13.1409C16.1023 13.1245 16.1077 13.1144 16.1352 13.0674C16.141 13.0573 16.1453 13.0499 16.1493 13.0425C16.1669 13.0103 16.1764 12.9855 16.1772 12.9639C16.386 13.0439 16.6677 13.1701 16.7817 13.2402L16.8731 13.0928C16.7878 13.0311 16.7114 12.9955 16.5742 12.9399C16.3069 12.8317 16.2161 12.7882 16.0638 12.6801C15.6967 12.4193 15.2986 12.2019 14.8527 12.0379C14.8356 12.0759 14.8196 12.132 14.8065 12.1734L14.8097 12.1824ZM14.8203 12.1782C14.821 12.1763 14.8216 12.1743 14.8222 12.1723C14.8205 12.1713 14.8188 12.1702 14.8171 12.1692L14.8203 12.1782ZM14.8573 12.0469C14.85 12.0784 14.835 12.1313 14.8222 12.1723C14.8846 12.2106 14.9488 12.2436 15.0097 12.2747C15.0075 12.2825 15.0048 12.2904 15.0016 12.2985C14.9832 12.3445 14.9514 12.3902 14.8988 12.4526C14.8897 12.4633 14.8521 12.507 14.8431 12.5177C14.8235 12.541 14.8103 12.5582 14.8008 12.5734C14.7901 12.5903 14.7847 12.6035 14.7847 12.614C14.7847 12.6246 14.7903 12.6323 14.8018 12.6382C14.8243 12.6501 14.8845 12.6882 14.9497 12.7308L14.9497 12.7302C14.9497 12.7146 14.9577 12.6949 14.9724 12.6714C14.9915 12.6407 15.0182 12.6077 15.0691 12.5496C15.0723 12.5459 15.0723 12.5459 15.0756 12.5422C15.1684 12.4362 15.1975 12.3979 15.1975 12.3723L15.1975 12.3714L15.2071 12.3639C15.3246 12.4047 15.4344 12.4637 15.5769 12.556C15.5788 12.5571 15.7464 12.668 15.7907 12.6953C15.8658 12.7413 15.9242 12.7703 15.9825 12.7949C15.9761 12.8204 15.9642 12.8482 15.9466 12.8807C15.9376 12.8973 15.9277 12.9141 15.9142 12.9362C15.8582 13.0277 15.8586 13.0268 15.8493 13.0517C15.8451 13.0628 15.843 13.0719 15.843 13.0793C15.843 13.0931 15.8503 13.1012 15.8661 13.1053C15.8929 13.1115 15.9372 13.124 16.0114 13.1459C16.0143 13.1468 16.0143 13.1468 16.0171 13.1476C16.0428 13.1552 16.0428 13.1552 16.0676 13.1625C16.0732 13.1642 16.0781 13.1656 16.0823 13.1669C16.0812 13.1633 16.0806 13.1594 16.0806 13.1552C16.0806 13.1494 16.0816 13.1432 16.0836 13.1364C16.089 13.1181 16.0944 13.108 16.1227 13.0594C16.1285 13.0494 16.1327 13.0421 16.1366 13.0349C16.154 13.0032 16.1627 12.9796 16.1627 12.9606L16.1623 12.9537L16.172 12.9456C16.3826 13.0257 16.6722 13.1552 16.7791 13.2298L16.8631 13.0955C16.7812 13.0448 16.7054 13.0095 16.5689 12.9542C16.3007 12.8455 16.2091 12.8018 16.0556 12.6927C15.6895 12.4326 15.2925 12.2159 14.8573 12.0469ZM16.0823 13.1669C16.0858 13.178 16.0945 13.1862 16.1092 13.1907L16.1133 13.176C16.1037 13.1732 16.0961 13.171 16.0823 13.1669ZM14.9497 12.7308C14.9499 12.7427 14.9548 12.7522 14.9651 12.759L14.9728 12.7461C14.9651 12.741 14.9573 12.7358 14.9497 12.7308ZM18.0857 12.6987C18.0862 12.6945 18.0864 12.6904 18.0864 12.6864C18.0864 12.6004 17.9796 12.5397 17.7882 12.5001C17.628 12.467 17.4132 12.4501 17.1854 12.4481L17.1835 12.4632L18.0767 12.7051L18.0857 12.6987ZM18.0803 12.6904L18.0718 12.688C18.0718 12.691 18.0716 12.6939 18.0713 12.6968L18.0803 12.6904ZM17.2459 12.4643L18.0718 12.688L18.0718 12.687C18.0718 12.6111 17.9704 12.5534 17.7854 12.5151C17.6405 12.4852 17.4502 12.4685 17.2459 12.4643ZM17.2459 12.4643L17.1872 12.4484L17.1853 12.4634C17.2056 12.4636 17.2259 12.4639 17.2459 12.4643ZM17.103 12.402C17.1126 12.3239 17.1259 12.2479 17.143 12.1742L17.1266 12.1714L17.0865 12.3999L17.103 12.402ZM17.0864 12.4003L17.1029 12.4023L17.1431 12.1738L17.1267 12.171C17.1095 12.2452 17.0961 12.3217 17.0864 12.4003ZM17.4917 11.1458C17.5105 11.0894 17.5266 11.0363 17.5404 10.985L17.5243 10.9811L17.4756 11.1414L17.4917 11.1458ZM17.4757 11.1412L17.4917 11.1456L17.5404 10.9852L17.5243 10.9813C17.5105 11.0323 17.4944 11.0852 17.4757 11.1412Z" clip-rule="evenodd" fill="#000000" fill-opacity="1.000000" fill-rule="evenodd"/>
		<path id="Shape" d="M17.2693 11.1069C17.2558 11.1171 17.2454 11.132 17.2382 11.1523L17.2518 11.1577C17.2578 11.1407 17.2637 11.1239 17.2693 11.1069ZM17.0968 10.0212C17.1446 10.0809 17.1873 10.1157 17.232 10.1337C17.2738 10.1507 17.3057 10.1532 17.394 10.1515C17.4082 10.1512 17.4146 10.1511 17.4158 10.1584C17.4166 10.1366 17.4307 10.1271 17.4536 10.1282C17.4694 10.129 17.4868 10.1336 17.5195 10.1445C17.5216 10.1451 17.5216 10.1451 17.5238 10.1459C17.5724 10.162 17.5906 10.1662 17.6003 10.1612L17.6107 10.1678C17.6194 10.4453 17.5974 10.7078 17.5222 10.9901C17.4026 10.9344 17.3279 10.9317 17.3022 11.0037C17.2916 11.0388 17.2808 11.073 17.2693 11.1069C17.312 11.0753 17.386 11.0919 17.4896 11.1457C17.4466 11.293 17.3911 11.4429 17.3223 11.5958C17.24 11.7782 17.1758 11.9769 17.127 12.18C16.9699 12.1389 16.866 12.1415 16.851 12.2187C16.8366 12.2885 16.8254 12.3544 16.8176 12.4171C16.8465 12.3763 16.9023 12.364 16.9797 12.3724C17.0034 12.375 17.0275 12.3792 17.0582 12.3856C17.0666 12.3874 17.0929 12.3931 17.1009 12.4019C17.0702 12.6865 17.0954 12.9423 17.1739 13.1305L17.2611 13.1643C17.2635 13.17 17.266 13.1756 17.2685 13.1811L17.2776 13.1707L17.2611 13.1643C17.0989 12.7822 17.1576 12.159 17.3865 11.627C17.6078 11.1128 17.6761 10.6573 17.6559 10.1625C17.6896 10.1631 17.7155 10.1541 17.7684 10.1281L17.7709 10.1268C17.7854 10.1196 17.7922 10.1164 17.8005 10.1126C18.0306 10.0077 18.2395 10.0226 18.3835 10.1261C18.4836 10.1981 18.5305 10.3025 18.5029 10.3735C18.4904 10.3816 18.4794 10.3904 18.4641 10.4033L18.4732 10.4152C18.487 10.4034 18.4968 10.3893 18.5029 10.3735C18.5227 10.3608 18.546 10.3498 18.5959 10.3271C18.6007 10.3249 18.6007 10.3249 18.6055 10.3226C18.6859 10.2858 18.5744 10.0442 18.3718 9.94318C18.2802 9.8974 18.0959 9.88971 17.9645 9.91803L17.9575 9.90558C18.0544 9.78589 18.1226 9.74274 18.2621 9.72656C18.2639 9.77942 18.2512 9.84045 18.2299 9.89117C18.2268 9.89075 18.2252 9.89056 18.22 9.88989L18.2256 9.90076C18.2271 9.89758 18.2285 9.89441 18.2299 9.89117L18.2351 9.89178C18.3024 9.8999 18.3325 9.90662 18.3687 9.93237C18.4055 9.8667 18.4248 9.77655 18.424 9.68054C18.4625 9.66968 18.5001 9.65826 18.554 9.64142C18.7253 9.58795 18.7547 9.57916 18.8276 9.56232C18.9315 9.53827 19.0229 9.52826 19.1133 9.53339C19.29 9.5434 19.4193 9.61023 19.4563 9.70068C19.4809 9.76093 19.4604 9.82013 19.4012 9.8653C19.3723 9.87494 19.3451 9.88409 19.323 9.89154C19.3087 9.89728 19.2932 9.90253 19.2766 9.90723L19.2807 9.92188C19.2888 9.91907 19.3054 9.91345 19.3271 9.90619C19.3561 9.89453 19.3809 9.88074 19.4012 9.8653C19.4757 9.84027 19.5604 9.81177 19.591 9.8006C19.7055 9.75885 19.7793 9.72229 19.836 9.67578C19.9799 9.55798 19.9203 9.30573 19.6605 9.25006C19.368 9.18719 19.175 9.2113 18.7834 9.32013C18.77 9.32385 18.77 9.32385 18.7565 9.32764C18.4076 9.42438 18.2221 9.44855 17.9621 9.39966C17.7832 9.36609 17.6534 9.367 17.562 9.41223C17.4531 9.466 17.403 9.58307 17.4189 9.77924C17.4208 9.80194 17.4208 9.80194 17.4238 9.84296L17.424 9.84613C17.4254 9.8645 17.4265 9.87878 17.4283 9.89893C17.4283 10.0412 17.2587 10.1124 17.0968 10.0212ZM17.0968 10.0212C17.0884 10.0107 17.0799 9.99945 17.0711 9.98737L17.0612 9.99829C17.073 10.0068 17.0849 10.0145 17.0968 10.0212ZM18.2561 9.73438C18.2496 9.77936 18.2362 9.84027 18.2145 9.88977C18.1382 9.88275 18.0541 9.88593 17.9822 9.89899C18.0699 9.79449 18.1347 9.75604 18.2561 9.73438ZM17.2816 13.1746C17.1125 12.7987 17.1691 12.1694 17.3998 11.6334C17.622 11.1167 17.6908 10.6588 17.6631 10.1697C17.6923 10.1784 17.7197 10.1689 17.7746 10.1419L17.7771 10.1406C17.7915 10.1335 17.7981 10.1303 17.8063 10.1266C18.032 10.0238 18.2356 10.0383 18.3753 10.1387C18.4907 10.2217 18.5301 10.3467 18.464 10.4033L18.4732 10.4152C18.5114 10.383 18.5217 10.3776 18.6017 10.3412C18.6066 10.3389 18.6066 10.3389 18.6115 10.3366C18.7082 10.2923 18.5904 10.0364 18.38 9.9303C18.4218 9.86072 18.4391 9.77307 18.4331 9.68738C18.4664 9.68439 18.5042 9.67297 18.5581 9.65607C18.729 9.60272 18.7583 9.59399 18.8307 9.57727C18.9335 9.55353 19.0236 9.54358 19.1125 9.54865C19.2843 9.55841 19.4085 9.62262 19.4429 9.70667C19.4721 9.77795 19.429 9.84882 19.323 9.89154C19.3011 9.89886 19.2843 9.90454 19.2762 9.90735L19.2803 9.922C19.297 9.9173 19.3126 9.91205 19.3271 9.90619C19.4063 9.87958 19.5531 9.83057 19.5958 9.81506C19.7117 9.77283 19.7867 9.7356 19.845 9.68787C19.9987 9.56195 19.9353 9.29333 19.6635 9.23505C19.3681 9.17163 19.1733 9.19598 18.7797 9.30536C18.7663 9.30908 18.7663 9.30908 18.7528 9.31281C18.4058 9.40906 18.222 9.43304 17.9646 9.38464C17.783 9.35046 17.6507 9.3515 17.5558 9.39838C17.4408 9.4552 17.388 9.57849 17.4044 9.78058C17.4063 9.80322 17.4063 9.80316 17.4093 9.84412L17.4095 9.84735C17.4109 9.86578 17.412 9.88007 17.4138 9.89966C17.4138 10.0378 17.2322 10.1036 17.0695 9.98572L17.0595 9.99664C17.1196 10.0795 17.1714 10.1256 17.2267 10.148C17.271 10.166 17.304 10.1685 17.3943 10.1667C17.4085 10.1665 17.4148 10.1664 17.4232 10.1663C17.4308 10.147 17.4372 10.1427 17.4529 10.1435C17.4669 10.1442 17.4837 10.1486 17.5151 10.159C17.5172 10.1597 17.5172 10.1597 17.5194 10.1605C17.5625 10.1748 17.5826 10.1803 17.5965 10.1782C17.6043 10.4507 17.5821 10.7089 17.5181 10.9813C17.4015 10.9172 17.3186 10.9141 17.2884 10.9988C17.2726 11.0515 17.2561 11.1018 17.2382 11.1523L17.2382 11.1523L17.2518 11.1577L17.2518 11.1577C17.2771 11.0864 17.3545 11.0922 17.4797 11.1505C17.4329 11.2878 17.3777 11.4371 17.3091 11.5892C17.2263 11.7728 17.1618 11.9725 17.1216 12.171C16.9643 12.1216 16.8545 12.1245 16.8367 12.2156C16.8172 12.3102 16.8036 12.3976 16.7962 12.48L16.7957 12.4853L16.8102 12.4866L16.8106 12.4818C16.8126 12.4606 16.8149 12.439 16.8176 12.4171C16.8061 12.4333 16.7988 12.4542 16.7962 12.48L16.8106 12.4818C16.8188 12.4019 16.8768 12.3766 16.9782 12.3876C17.0013 12.3901 17.0251 12.3943 17.0554 12.4006C17.0637 12.4024 17.09 12.4081 17.0922 12.4086C17.0554 12.6873 17.081 12.9457 17.1647 13.1408L17.2725 13.185L17.2816 13.1746Z" clip-rule="evenodd" fill="#000000" fill-opacity="1.000000" fill-rule="evenodd"/>
	</g>
</svg>
