<svg viewBox="0 0 33.5473 28" xmlns="http://www.w3.org/2000/svg" xmlns:xlink="http://www.w3.org/1999/xlink" width="33.547302" height="28.000000" fill="none" customFrame="#000000">
	<defs>
		<filter id="pixso_custom_mask_type_alpha">
			<feColorMatrix type="matrix" values="0 0 0 0 1 0 0 0 0 1 0 0 0 0 1 0 0 0 1 0 " />
		</filter>
	</defs>
	<mask id="mask_133" width="28.000000" height="20.000000" x="2.773621" y="4.000000" maskUnits="userSpaceOnUse">
		<g filter="url(#pixso_custom_mask_type_alpha)">
			<rect id="Mask" width="28.000000" height="20.000000" x="2.773621" y="4.000000" rx="3.000000" fill="rgb(255,255,255)" />
			<rect id="Mask" width="28.000000" height="20.000000" x="2.773621" y="4.000000" rx="3.000000" stroke="rgb(150.96,150.96,150.96)" stroke-opacity="0" stroke-width="0.000000" />
		</g>
	</mask>
	<rect id="Jamaica" width="28.000000" height="28.000000" x="2.773621" y="0.000000" fill="rgb(255,255,255)" fill-opacity="0" />
	<rect id="Mask" width="28.000000" height="20.000000" x="2.773621" y="4.000000" rx="3.000000" fill="rgb(255,255,255)" />
	<rect id="Mask" width="28.000000" height="20.000000" x="2.773621" y="4.000000" rx="3.000000" stroke="rgb(150.96,150.96,150.96)" stroke-opacity="0" stroke-width="0.000000" />
	<g mask="url(#mask_133)">
		<rect id="Mask Copy" width="28.000000" height="20.000000" x="2.773621" y="4.000000" fill="rgb(29,190,79)" />
		<rect id="Mask Copy" width="28.000000" height="20.000000" x="2.773621" y="4.000000" stroke="rgb(150.96,150.96,150.96)" stroke-opacity="0" stroke-width="0.000000" />
		<path id="Rectangle 253" d="M2.77362 4L14.7736 14L2.77362 24L2.77362 4Z" fill="rgb(38,38,38)" fill-rule="evenodd" />
		<path id="Rectangle 253" d="M14.7736 14L2.77362 24L2.77362 4L14.7736 14Z" fill-rule="evenodd" stroke="rgb(150.96,150.96,150.96)" stroke-opacity="0" stroke-width="0.000000" />
		<path id="Rectangle 253" d="M0 0L12 10L0 20L0 0Z" fill="rgb(38,38,38)" fill-rule="evenodd" transform="matrix(-1,0,0,1,30.7736,4)" />
		<path id="Rectangle 253" d="M12 10L0 20L0 0L12 10Z" fill-rule="evenodd" stroke="rgb(150.96,150.96,150.96)" stroke-opacity="0" stroke-width="0.000000" transform="matrix(-1,0,0,1,30.7736,4)" />
		<path id="Rectangle 2" d="M32.0561 25.9165L33.5473 23.7057L19.158 14L33.5473 4.29432L32.0561 2.08356L16.7736 12.3917L1.49118 2.08356L0 4.29432L14.3893 14L0 23.7057L1.49118 25.9165L16.7736 15.6083L32.0561 25.9165Z" fill="rgb(255,214,70)" fill-rule="evenodd" />
		<path id="Rectangle 2" d="M32.0561 25.9165L33.5473 23.7057L19.158 14L33.5473 4.29432L32.0561 2.08356L16.7736 12.3917L1.49118 2.08356L0 4.29432L14.3893 14L0 23.7057L1.49118 25.9165L16.7736 15.6083L32.0561 25.9165Z" fill-rule="evenodd" stroke="rgb(150.96,150.96,150.96)" stroke-opacity="0" stroke-width="0.000000" />
	</g>
</svg>
