<svg width="28.000000" height="28.000000" viewBox="0 0 28 28" fill="none" xmlns="http://www.w3.org/2000/svg" xmlns:xlink="http://www.w3.org/1999/xlink">
	<desc>
			Created with Pixso.
	</desc>
	<defs>
		<linearGradient id="paint_linear_17_5242_0" x1="8.000000" y1="8.000000" x2="8.000000" y2="20.000000" gradientUnits="userSpaceOnUse">
			<stop stop-color="#D81441"/>
			<stop offset="1.000000" stop-color="#BB0831"/>
		</linearGradient>
	</defs>
	<rect id="Japan" width="28.000000" height="28.000000" fill="#FFFFFF" fill-opacity="0"/>
	<rect id="Mask" y="4.000000" rx="3.000000" width="28.000000" height="20.000000" fill="#FFFFFF" fill-opacity="1.000000"/>
	<rect id="Mask" x="0.250000" y="4.250000" rx="3.000000" width="27.500000" height="19.500000" stroke="#D6D8DD" stroke-opacity="1.000000" stroke-width="0.500000"/>
	<mask id="mask17_5241" mask-type="alpha" maskUnits="userSpaceOnUse" x="0.000000" y="4.000000" width="28.000000" height="20.000000">
		<rect id="Mask" y="4.000000" rx="3.000000" width="28.000000" height="20.000000" fill="#FFFFFF" fill-opacity="1.000000"/>
		<rect id="Mask" x="0.250000" y="4.250000" rx="3.000000" width="27.500000" height="19.500000" stroke="#F5F5F5" stroke-opacity="1.000000" stroke-width="0.500000"/>
	</mask>
	<g mask="url(#mask17_5241)">
		<path id="Oval 9" d="M14 20C17.31 20 20 17.31 20 14C20 10.68 17.31 8 14 8C10.68 8 8 10.68 8 14C8 17.31 10.68 20 14 20Z" fill="url(#paint_linear_17_5242_0)" fill-opacity="1.000000" fill-rule="evenodd"/>
		<path id="Oval 9" d="M20 14C20 10.68 17.31 8 14 8C10.68 8 8 10.68 8 14C8 17.31 10.68 20 14 20C17.31 20 20 17.31 20 14Z" stroke="#979797" stroke-opacity="0" stroke-width="0.000000"/>
	</g>
</svg>
