<svg viewBox="0 0 28 28" xmlns="http://www.w3.org/2000/svg" xmlns:xlink="http://www.w3.org/1999/xlink" width="28.000000" height="28.000000" fill="none" customFrame="#000000">
	<mask id="mask_429" width="4.000000" height="5.000000" x="12.666626" y="6.666687" maskUnits="userSpaceOnUse">
		<g filter="url(#pixso_custom_mask_type_alpha)">
			<path id="Mask" d="M12.6666 9.16669C12.6666 8.79588 12.6666 8.3823 12.6666 7.99996C12.6666 7.26358 13.2636 6.66669 14 6.66669L15.3333 6.66669C16.0697 6.66669 16.6666 7.26358 16.6666 7.99996C16.6666 8.3823 16.6666 8.79588 16.6666 9.16669C16.6666 10.9524 14.6666 11.6667 14.6666 11.6667C14.6666 11.6667 12.6666 10.9524 12.6666 9.16669Z" fill="rgb(227,36,59)" fill-rule="evenodd" />
			<path id="Mask" d="M12.6666 8.00002C12.6666 7.26364 13.2636 6.66669 14 6.66669L15.3333 6.66669C16.0697 6.66669 16.6666 7.26364 16.6666 8.00002C16.6666 8.38234 16.6666 8.7959 16.6666 9.16669C16.6666 10.9524 14.6666 11.6667 14.6666 11.6667C14.6666 11.6667 12.6666 10.9524 12.6666 9.16669C12.6666 8.7959 12.6666 8.38234 12.6666 8.00002Z" fill-rule="evenodd" stroke="url(#paint_linear_161)" stroke-opacity="0" stroke-linejoin="bevel" stroke-width="0" />
		</g>
	</mask>
	<defs>
		<filter id="pixso_custom_mask_type_alpha">
			<feColorMatrix type="matrix" values="0 0 0 0 1 0 0 0 0 1 0 0 0 0 1 0 0 0 1 0 " />
		</filter>
		<linearGradient id="paint_linear_160" x1="12.666626" x2="12.666626" y1="6.66668701" y2="11.666687" gradientUnits="userSpaceOnUse">
			<stop stop-color="rgb(255,255,255)" offset="0" stop-opacity="1" />
			<stop stop-color="rgb(239.7,239.7,239.7)" offset="1" stop-opacity="1" />
		</linearGradient>
		<linearGradient id="paint_linear_161" x1="12.666626" x2="12.666626" y1="6.66668701" y2="11.666687" gradientUnits="userSpaceOnUse">
			<stop stop-color="rgb(255,255,255)" offset="0" stop-opacity="1" />
			<stop stop-color="rgb(239.7,239.7,239.7)" offset="1" stop-opacity="1" />
		</linearGradient>
	</defs>
	<mask id="mask_428" width="28.000000" height="20.000000" x="0.000000" y="4.000000" maskUnits="userSpaceOnUse">
		<g filter="url(#pixso_custom_mask_type_alpha)">
			<rect id="Mask" width="28.000000" height="20.000000" x="0.000000" y="4.000000" rx="3.000000" fill="rgb(255,255,255)" />
			<rect id="Mask" width="27.500000" height="19.500000" x="0.250000" y="4.250000" rx="2.750000" stroke="rgb(245,245,245)" stroke-width="0.5" />
		</g>
	</mask>
	<rect id="Jersey" width="28.000000" height="28.000000" x="0.000000" y="0.000000" fill="rgb(255,255,255)" fill-opacity="0" />
	<rect id="Mask" width="28.000000" height="20.000000" x="0.000000" y="4.000000" rx="3.000000" fill="rgb(255,255,255)" />
	<rect id="Mask" width="27.500000" height="19.500000" x="0.250000" y="4.250000" rx="2.750000" stroke="rgb(214,216,221)" stroke-width="0.5" />
	<g mask="url(#mask_428)">
		<rect id="Rectangle 1278" width="2.666667" height="49.333332" x="0.000000" y="0.000000" fill="rgb(227,36,59)" transform="matrix(0.573576,-0.819152,0.819152,0.573576,-6.31152,1.41718)" />
		<rect id="Rectangle 1278" width="2.666667" height="49.333332" x="0.000000" y="0.000000" stroke="rgb(150.96,150.96,150.96)" stroke-opacity="0" stroke-width="0" transform="matrix(0.573576,-0.819152,0.819152,0.573576,-6.31152,1.41718)" />
		<rect id="Rectangle 1278" width="2.666667" height="49.333332" x="0.000000" y="0.000000" fill="rgb(227,36,59)" transform="matrix(-0.573576,-0.819152,-0.819152,0.573576,35.6295,1.41718)" />
		<rect id="Rectangle 1278" width="2.666667" height="49.333332" x="0.000000" y="0.000000" stroke="rgb(150.96,150.96,150.96)" stroke-opacity="0" stroke-width="0" transform="matrix(-0.573576,-0.819152,-0.819152,0.573576,35.6295,1.41718)" />
		<g id="Group">
			<path id="Star 1" d="M13.5925 6.66665L15.7407 6.66665L15.6534 6.61544L16.6402 6.04561L15.3644 6.18807L15.5438 5.33331L14.6666 6.04561L13.7894 5.33331L13.9688 6.18807L12.693 6.04561L13.6798 6.61544L13.5925 6.66665Z" fill="rgb(250.053,238.789,50.284)" fill-rule="evenodd" />
			<path id="Star 1" d="M13.5925 6.66665L15.7407 6.66665L15.6534 6.61544L16.6402 6.04561L15.3644 6.18807L15.5438 5.33331L14.6666 6.04561L13.7894 5.33331L13.9688 6.18807L12.693 6.04561L13.6798 6.61544L13.5925 6.66665Z" fill-rule="evenodd" stroke="rgb(150.96,150.96,150.96)" stroke-opacity="0" stroke-width="0" />
			<path id="Mask" d="M12.6666 9.16669C12.6666 8.79588 12.6666 8.3823 12.6666 7.99996C12.6666 7.26358 13.2636 6.66669 14 6.66669L15.3333 6.66669C16.0697 6.66669 16.6666 7.26358 16.6666 7.99996C16.6666 8.3823 16.6666 8.79588 16.6666 9.16669C16.6666 10.9524 14.6666 11.6667 14.6666 11.6667C14.6666 11.6667 12.6666 10.9524 12.6666 9.16669Z" fill="rgb(227,36,59)" fill-rule="evenodd" />
			<path id="Mask" d="M12.6666 8.00002C12.6666 7.26364 13.2636 6.66669 14 6.66669L15.3333 6.66669C16.0697 6.66669 16.6666 7.26364 16.6666 8.00002C16.6666 8.38234 16.6666 8.7959 16.6666 9.16669C16.6666 10.9524 14.6666 11.6667 14.6666 11.6667C14.6666 11.6667 12.6666 10.9524 12.6666 9.16669C12.6666 8.7959 12.6666 8.38234 12.6666 8.00002Z" fill-rule="evenodd" stroke="url(#paint_linear_160)" stroke-opacity="0" stroke-linejoin="bevel" stroke-width="0" />
			<g mask="url(#mask_429)">
				<rect id="Rectangle 1281" width="0.666667" height="0.666667" x="14.333313" y="10.666687" rx="0.333333" fill="rgb(250.053,238.789,50.284)" />
				<rect id="Rectangle 1281" width="0.666667" height="0.666667" x="14.333313" y="10.666687" rx="0.333333" stroke="rgb(150.96,150.96,150.96)" stroke-opacity="0" stroke-width="0" />
				<rect id="Rectangle 1281" width="2.666667" height="0.666667" x="13.333313" y="9.333313" rx="0.333333" fill="rgb(250.053,238.789,50.284)" />
				<rect id="Rectangle 1281" width="2.666667" height="0.666667" x="13.333313" y="9.333313" rx="0.333333" stroke="rgb(150.96,150.96,150.96)" stroke-opacity="0" stroke-width="0" />
				<rect id="Rectangle 1281" width="2.666667" height="0.666667" x="13.333313" y="8.000000" rx="0.333333" fill="rgb(250.053,238.789,50.284)" />
				<rect id="Rectangle 1281" width="2.666667" height="0.666667" x="13.333313" y="8.000000" rx="0.333333" stroke="rgb(150.96,150.96,150.96)" stroke-opacity="0" stroke-width="0" />
			</g>
		</g>
	</g>
</svg>
