<svg width="42.000000" height="30.000000" viewBox="0 0 42 30" fill="none" xmlns="http://www.w3.org/2000/svg" xmlns:xlink="http://www.w3.org/1999/xlink">
	<desc>
			Created with Pixso.
	</desc>
	<defs>
		<linearGradient id="paint_linear_17_5252_0" x1="18.666626" y1="6.666687" x2="18.666626" y2="11.666687" gradientUnits="userSpaceOnUse">
			<stop stop-color="#FFFFFF"/>
			<stop offset="1.000000" stop-color="#F0F0F0"/>
		</linearGradient>
		<linearGradient id="paint_linear_17_5253_0" x1="18.666626" y1="6.666687" x2="18.666626" y2="11.666687" gradientUnits="userSpaceOnUse">
			<stop stop-color="#FFFFFF"/>
			<stop offset="1.000000" stop-color="#F0F0F0"/>
		</linearGradient>
	</defs>
	<rect id="Jersey" width="28.000000" height="28.000000" transform="translate(6.000000 0.000000)" fill="#FFFFFF" fill-opacity="0"/>
	<rect id="Mask" x="6.000000" y="4.000000" rx="3.000000" width="28.000000" height="20.000000" fill="#FFFFFF" fill-opacity="1.000000"/>
	<rect id="Mask" x="6.250000" y="4.250000" rx="3.000000" width="27.500000" height="19.500000" stroke="#D6D8DD" stroke-opacity="1.000000" stroke-width="0.500000"/>
	<mask id="mask17_5245" mask-type="alpha" maskUnits="userSpaceOnUse" x="6.000000" y="4.000000" width="28.000000" height="20.000000">
		<rect id="Mask" x="6.000000" y="4.000000" rx="3.000000" width="28.000000" height="20.000000" fill="#FFFFFF" fill-opacity="1.000000"/>
		<rect id="Mask" x="6.250000" y="4.250000" rx="3.000000" width="27.500000" height="19.500000" stroke="#F5F5F5" stroke-opacity="1.000000" stroke-width="0.500000"/>
	</mask>
	<g mask="url(#mask17_5245)">
		<rect id="Rectangle 1278" x="-0.311523" y="1.417175" width="2.666667" height="49.333332" transform="rotate(-55 -0.311523 1.417175)" fill="#E3243B" fill-opacity="1.000000"/>
		<rect id="Rectangle 1278" x="-0.311523" y="1.417175" width="2.666667" height="49.333332" transform="rotate(-55 -0.311523 1.417175)" stroke="#979797" stroke-opacity="0" stroke-width="0.000000"/>
	</g>
	<g mask="url(#mask17_5245)">
		<rect id="Rectangle 1278" width="2.666667" height="49.333332" transform="matrix(-0.573576 -0.819152 -0.819152 0.573576 41.6295 1.41718)" fill="#E3243B" fill-opacity="1.000000"/>
		<rect id="Rectangle 1278" width="2.666667" height="49.333332" transform="matrix(-0.573576 -0.819152 -0.819152 0.573576 41.6295 1.41718)" stroke="#979797" stroke-opacity="0" stroke-width="0.000000"/>
	</g>
	<g mask="url(#mask17_5245)">
		<mask id="mask_17_5249" fill="white">
			<path id="Star 1" d="M19.5925 6.66666L21.7407 6.66666L21.6534 6.61545L22.6403 6.04559L21.3644 6.18808L21.5438 5.33331L20.6666 6.04559L19.7894 5.33331L19.9688 6.18808L18.693 6.04559L19.6798 6.61545L19.5925 6.66666Z" clip-rule="evenodd" fill="" fill-opacity="1.000000" fill-rule="evenodd"/>
		</mask>
		<path id="Star 1" d="M19.5925 6.66666L21.7407 6.66666L21.6534 6.61545L22.6403 6.04559L21.3644 6.18808L21.5438 5.33331L20.6666 6.04559L19.7894 5.33331L19.9688 6.18808L18.693 6.04559L19.6798 6.61545L19.5925 6.66666Z" clip-rule="evenodd" fill="#FAEF32" fill-opacity="1.000000" fill-rule="evenodd" mask="url(#mask_17_5249)"/>
		<path id="Star 1" d="" fill="#979797" fill-opacity="0.000000" fill-rule="nonzero"/>
		<path id="Mask" d="M18.66 9.16C18.66 8.79 18.66 8.38 18.66 7.99C18.66 7.26 19.26 6.66 19.99 6.66L21.33 6.66C22.06 6.66 22.66 7.26 22.66 7.99C22.66 8.38 22.66 8.79 22.66 9.16C22.66 10.95 20.66 11.66 20.66 11.66C20.66 11.66 18.66 10.95 18.66 9.16Z" fill="#E3243B" fill-opacity="1.000000" fill-rule="evenodd"/>
		<path id="Mask" d="M18.66 8C18.66 7.26 19.26 6.66 19.99 6.66L21.33 6.66C22.06 6.66 22.66 7.26 22.66 8C22.66 8.38 22.66 8.79 22.66 9.16C22.66 10.95 20.66 11.66 20.66 11.66C20.66 11.66 18.66 10.95 18.66 9.16C18.66 8.79 18.66 8.38 18.66 8Z" stroke="url(#paint_linear_17_5252_0)" stroke-opacity="0" stroke-width="0.000000"/>
		<mask id="mask17_5253" mask-type="alpha" maskUnits="userSpaceOnUse" x="18.666626" y="6.666687" width="4.000000" height="5.000000">
			<path id="Mask" d="M18.66 9.16C18.66 8.79 18.66 8.38 18.66 7.99C18.66 7.26 19.26 6.66 19.99 6.66L21.33 6.66C22.06 6.66 22.66 7.26 22.66 7.99C22.66 8.38 22.66 8.79 22.66 9.16C22.66 10.95 20.66 11.66 20.66 11.66C20.66 11.66 18.66 10.95 18.66 9.16Z" fill="#E3243B" fill-opacity="1.000000" fill-rule="evenodd"/>
			<path id="Mask" d="M18.66 8C18.66 7.26 19.26 6.66 19.99 6.66L21.33 6.66C22.06 6.66 22.66 7.26 22.66 8C22.66 8.38 22.66 8.79 22.66 9.16C22.66 10.95 20.66 11.66 20.66 11.66C20.66 11.66 18.66 10.95 18.66 9.16C18.66 8.79 18.66 8.38 18.66 8Z" stroke="url(#paint_linear_17_5253_0)" stroke-opacity="0" stroke-width="0.000000"/>
		</mask>
		<g mask="url(#mask17_5253)">
			<rect id="Rectangle 1281" x="20.333313" y="10.666687" rx="0.333333" width="0.666667" height="0.666667" fill="#FAEF32" fill-opacity="1.000000"/>
			<rect id="Rectangle 1281" x="20.333313" y="10.666687" rx="0.333333" width="0.666667" height="0.666667" stroke="#979797" stroke-opacity="0" stroke-width="0.000000"/>
		</g>
		<g mask="url(#mask17_5253)">
			<rect id="Rectangle 1281" x="19.333313" y="9.333313" rx="0.333333" width="2.666667" height="0.666667" fill="#FAEF32" fill-opacity="1.000000"/>
			<rect id="Rectangle 1281" x="19.333313" y="9.333313" rx="0.333333" width="2.666667" height="0.666667" stroke="#979797" stroke-opacity="0" stroke-width="0.000000"/>
		</g>
		<g mask="url(#mask17_5253)">
			<rect id="Rectangle 1281" x="19.333313" y="8.000000" rx="0.333333" width="2.666667" height="0.666667" fill="#FAEF32" fill-opacity="1.000000"/>
			<rect id="Rectangle 1281" x="19.333313" y="8.000000" rx="0.333333" width="2.666667" height="0.666667" stroke="#979797" stroke-opacity="0" stroke-width="0.000000"/>
		</g>
	</g>
</svg>
