<svg viewBox="0 0 41.9411 30.4809" xmlns="http://www.w3.org/2000/svg" xmlns:xlink="http://www.w3.org/1999/xlink" width="41.941071" height="30.480865" fill="none" customFrame="#000000">
	<mask id="mask_137" width="4.000000" height="5.000000" x="18.978149" y="7.433929" maskUnits="userSpaceOnUse">
		<g filter="url(#pixso_custom_mask_type_alpha)">
			<path id="Mask" d="M18.9781 9.93393C18.9781 9.56312 18.9781 9.14954 18.9781 8.76721C18.9781 8.03083 19.5751 7.43393 20.3115 7.43393L21.6448 7.43393C22.3812 7.43393 22.9781 8.03083 22.9781 8.76721C22.9781 9.14954 22.9781 9.56312 22.9781 9.93393C22.9781 11.7196 20.9781 12.4339 20.9781 12.4339C20.9781 12.4339 18.9781 11.7196 18.9781 9.93393Z" fill="rgb(227,36,59)" fill-rule="evenodd" />
			<path id="Mask" d="M18.9781 8.76726C18.9781 8.03088 19.5751 7.43393 20.3115 7.43393L21.6448 7.43393C22.3812 7.43393 22.9781 8.03088 22.9781 8.76726C22.9781 9.14958 22.9781 9.56314 22.9781 9.93393C22.9781 11.7196 20.9781 12.4339 20.9781 12.4339C20.9781 12.4339 18.9781 11.7196 18.9781 9.93393C18.9781 9.56314 18.9781 9.14958 18.9781 8.76726Z" fill-rule="evenodd" stroke="url(#paint_linear_54)" stroke-opacity="0" stroke-width="0.000000" />
		</g>
	</mask>
	<defs>
		<filter id="pixso_custom_mask_type_alpha">
			<feColorMatrix type="matrix" values="0 0 0 0 1 0 0 0 0 1 0 0 0 0 1 0 0 0 1 0 " />
		</filter>
		<linearGradient id="paint_linear_53" x1="18.9781494" x2="18.9781494" y1="7.43392944" y2="12.4339294" gradientUnits="userSpaceOnUse">
			<stop stop-color="rgb(255,255,255)" offset="0" stop-opacity="1" />
			<stop stop-color="rgb(239.7,239.7,239.7)" offset="1" stop-opacity="1" />
		</linearGradient>
		<linearGradient id="paint_linear_54" x1="18.9781494" x2="18.9781494" y1="7.43392944" y2="12.4339294" gradientUnits="userSpaceOnUse">
			<stop stop-color="rgb(255,255,255)" offset="0" stop-opacity="1" />
			<stop stop-color="rgb(239.7,239.7,239.7)" offset="1" stop-opacity="1" />
		</linearGradient>
	</defs>
	<mask id="mask_136" width="28.000000" height="20.000000" x="6.311523" y="4.767242" maskUnits="userSpaceOnUse">
		<g filter="url(#pixso_custom_mask_type_alpha)">
			<rect id="Mask" width="28.000000" height="20.000000" x="6.311523" y="4.767242" rx="3.000000" fill="rgb(255,255,255)" />
			<rect id="Mask" width="27.500000" height="19.500000" x="6.561523" y="5.017242" rx="2.750000" stroke="rgb(245,245,245)" stroke-width="0.500000" />
		</g>
	</mask>
	<rect id="Jersey" width="28.000000" height="28.000000" x="6.311523" y="0.767242" fill="rgb(255,255,255)" fill-opacity="0" />
	<rect id="Mask" width="28.000000" height="20.000000" x="6.311523" y="4.767242" rx="3.000000" fill="rgb(255,255,255)" />
	<rect id="Mask" width="27.500000" height="19.500000" x="6.561523" y="5.017242" rx="2.750000" stroke="rgb(214,216,221)" stroke-width="0.500000" />
	<g mask="url(#mask_136)">
		<rect id="Rectangle 1278" width="2.666667" height="49.333332" x="0.000000" y="0.000000" fill="rgb(227,36,59)" transform="matrix(0.573576,-0.819152,0.819152,0.573576,0,2.18442)" />
		<rect id="Rectangle 1278" width="2.666667" height="49.333332" x="0.000000" y="0.000000" stroke="rgb(150.96,150.96,150.96)" stroke-opacity="0" stroke-width="0.000000" transform="matrix(0.573576,-0.819152,0.819152,0.573576,0,2.18442)" />
		<rect id="Rectangle 1278" width="2.666667" height="49.333332" x="0.000000" y="0.000000" fill="rgb(227,36,59)" transform="matrix(-0.573576,-0.819152,-0.819152,0.573576,41.9411,2.18442)" />
		<rect id="Rectangle 1278" width="2.666667" height="49.333332" x="0.000000" y="0.000000" stroke="rgb(150.96,150.96,150.96)" stroke-opacity="0" stroke-width="0.000000" transform="matrix(-0.573576,-0.819152,-0.819152,0.573576,41.9411,2.18442)" />
		<g id="Group">
			<path id="Star 1" d="M19.904 7.43389L22.0523 7.43389L21.965 7.38269L22.9518 6.81285L21.6759 6.95531L21.8553 6.10056L20.9781 6.81285L20.101 6.10056L20.2804 6.95531L19.0045 6.81285L19.9913 7.38269L19.904 7.43389Z" fill="rgb(250.053,238.789,50.284)" fill-rule="evenodd" />
			<path id="Star 1" d="M19.904 7.43389L22.0523 7.43389L21.965 7.38269L22.9518 6.81285L21.6759 6.95531L21.8553 6.10056L20.9781 6.81285L20.101 6.10056L20.2804 6.95531L19.0045 6.81285L19.9913 7.38269L19.904 7.43389Z" fill-rule="evenodd" stroke="rgb(150.96,150.96,150.96)" stroke-opacity="0" stroke-width="0.000000" />
			<path id="Mask" d="M18.9781 9.93393C18.9781 9.56312 18.9781 9.14954 18.9781 8.76721C18.9781 8.03083 19.5751 7.43393 20.3115 7.43393L21.6448 7.43393C22.3812 7.43393 22.9781 8.03083 22.9781 8.76721C22.9781 9.14954 22.9781 9.56312 22.9781 9.93393C22.9781 11.7196 20.9781 12.4339 20.9781 12.4339C20.9781 12.4339 18.9781 11.7196 18.9781 9.93393Z" fill="rgb(227,36,59)" fill-rule="evenodd" />
			<path id="Mask" d="M18.9781 8.76726C18.9781 8.03088 19.5751 7.43393 20.3115 7.43393L21.6448 7.43393C22.3812 7.43393 22.9781 8.03088 22.9781 8.76726C22.9781 9.14958 22.9781 9.56314 22.9781 9.93393C22.9781 11.7196 20.9781 12.4339 20.9781 12.4339C20.9781 12.4339 18.9781 11.7196 18.9781 9.93393C18.9781 9.56314 18.9781 9.14958 18.9781 8.76726Z" fill-rule="evenodd" stroke="url(#paint_linear_53)" stroke-opacity="0" stroke-width="0.000000" />
			<g mask="url(#mask_137)">
				<rect id="Rectangle 1281" width="0.666667" height="0.666667" x="20.644836" y="11.433929" rx="0.333333" fill="rgb(250.053,238.789,50.284)" />
				<rect id="Rectangle 1281" width="0.666667" height="0.666667" x="20.644836" y="11.433929" rx="0.333333" stroke="rgb(150.96,150.96,150.96)" stroke-opacity="0" stroke-width="0.000000" />
				<rect id="Rectangle 1281" width="2.666667" height="0.666667" x="19.644836" y="10.100555" rx="0.333333" fill="rgb(250.053,238.789,50.284)" />
				<rect id="Rectangle 1281" width="2.666667" height="0.666667" x="19.644836" y="10.100555" rx="0.333333" stroke="rgb(150.96,150.96,150.96)" stroke-opacity="0" stroke-width="0.000000" />
				<rect id="Rectangle 1281" width="2.666667" height="0.666667" x="19.644836" y="8.767242" rx="0.333333" fill="rgb(250.053,238.789,50.284)" />
				<rect id="Rectangle 1281" width="2.666667" height="0.666667" x="19.644836" y="8.767242" rx="0.333333" stroke="rgb(150.96,150.96,150.96)" stroke-opacity="0" stroke-width="0.000000" />
			</g>
		</g>
	</g>
</svg>
