<svg width="28.000000" height="28.000000" viewBox="0 0 28 28" fill="none" xmlns="http://www.w3.org/2000/svg" xmlns:xlink="http://www.w3.org/1999/xlink">
	<desc>
			Created with Pixso.
	</desc>
	<defs>
		<filter id="filter_17_5185_dd" x="13.333374" y="6.666687" width="1.333313" height="15.666656" filterUnits="userSpaceOnUse" color-interpolation-filters="sRGB">
			<feFlood flood-opacity="0" result="BackgroundImageFix"/>
			<feColorMatrix in="SourceAlpha" type="matrix" values="0 0 0 0 0 0 0 0 0 0 0 0 0 0 0 0 0 0 127 0" result="hardAlpha"/>
			<feOffset dx="0" dy="1"/>
			<feGaussianBlur stdDeviation="0"/>
			<feComposite in2="hardAlpha" operator="out" k2="-1" k3="1"/>
			<feColorMatrix type="matrix" values="0 0 0 0 0 0 0 0 0 0 0 0 0 0 0 0 0 0 0.059 0"/>
			<feBlend mode="normal" in2="BackgroundImageFix" result="effect_dropShadow_1"/>
			<feBlend mode="normal" in="SourceGraphic" in2="effect_dropShadow_1" result="shape"/>
		</filter>
		<linearGradient id="paint_linear_17_5185_0" x1="13.333374" y1="6.666687" x2="13.333374" y2="21.333353" gradientUnits="userSpaceOnUse">
			<stop stop-color="#FFFFFF"/>
			<stop offset="1.000000" stop-color="#F0F0F0"/>
		</linearGradient>
	</defs>
	<rect id="Kenya" width="28.000000" height="28.000000" fill="#FFFFFF" fill-opacity="0"/>
	<rect id="Mask" y="4.000000" rx="3.000000" width="28.000000" height="20.000000" fill="#FFFFFF" fill-opacity="1.000000"/>
	<rect id="Mask" y="4.000000" rx="3.000000" width="28.000000" height="20.000000" stroke="#979797" stroke-opacity="0" stroke-width="0.000000"/>
	<mask id="mask17_5175" mask-type="alpha" maskUnits="userSpaceOnUse" x="0.000000" y="4.000000" width="28.000000" height="20.000000">
		<rect id="Mask" y="4.000000" rx="3.000000" width="28.000000" height="20.000000" fill="#FFFFFF" fill-opacity="1.000000"/>
		<rect id="Mask" y="4.000000" rx="3.000000" width="28.000000" height="20.000000" stroke="#979797" stroke-opacity="0" stroke-width="0.000000"/>
	</mask>
	<g mask="url(#mask17_5175)">
		<path id="Rectangle 2" d="M0 9.33L28 9.33L28 4L0 4L0 9.33Z" fill="#262626" fill-opacity="1.000000" fill-rule="evenodd"/>
		<path id="Rectangle 2" d="M28 9.33L28 4L0 4L0 9.33L28 9.33Z" stroke="#979797" stroke-opacity="0" stroke-width="0.000000"/>
	</g>
	<g mask="url(#mask17_5175)">
		<path id="Rectangle 2" d="M0 24L28 24L28 18.66L0 18.66L0 24Z" fill="#018301" fill-opacity="1.000000" fill-rule="evenodd"/>
		<path id="Rectangle 2" d="M28 24L28 18.66L0 18.66L0 24L28 24Z" stroke="#979797" stroke-opacity="0" stroke-width="0.000000"/>
	</g>
	<g mask="url(#mask17_5175)">
		<path id="Rectangle 2" d="M0 18.66L28 18.66L28 9.33L0 9.33L0 18.66Z" fill="#FFFFFF" fill-opacity="1.000000" fill-rule="evenodd"/>
		<path id="Rectangle 2" d="M28 18.66L28 9.33L0 9.33L0 18.66L28 18.66Z" stroke="#979797" stroke-opacity="0" stroke-width="0.000000"/>
	</g>
	<g mask="url(#mask17_5175)">
		<path id="Rectangle 2 Copy 4" d="M0 17.33L28 17.33L28 10.66L0 10.66L0 17.33Z" fill="#DC0808" fill-opacity="1.000000" fill-rule="evenodd"/>
		<path id="Rectangle 2 Copy 4" d="M28 17.33L28 10.66L0 10.66L0 17.33L28 17.33Z" stroke="#979797" stroke-opacity="0" stroke-width="0.000000"/>
	</g>
	<g mask="url(#mask17_5175)">
		<path id="Mask" d="M14 20.66C15.33 20.66 17.33 18.05 17.33 14C17.33 9.94 15.33 7.33 14 7.33C12.66 7.33 10.66 9.94 10.66 14C10.66 18.05 12.66 20.66 14 20.66Z" fill="#BC0000" fill-opacity="1.000000" fill-rule="evenodd"/>
		<path id="Mask" d="M17.33 14C17.33 9.94 15.33 7.33 14 7.33C12.66 7.33 10.66 9.94 10.66 14C10.66 18.05 12.66 20.66 14 20.66C15.33 20.66 17.33 18.05 17.33 14Z" stroke="#979797" stroke-opacity="0" stroke-width="0.000000"/>
		<mask id="mask17_5182" mask-type="alpha" maskUnits="userSpaceOnUse" x="10.666687" y="7.333313" width="6.666687" height="13.333344">
			<path id="Mask" d="M14 20.66C15.33 20.66 17.33 18.05 17.33 14C17.33 9.94 15.33 7.33 14 7.33C12.66 7.33 10.66 9.94 10.66 14C10.66 18.05 12.66 20.66 14 20.66Z" fill="#BC0000" fill-opacity="1.000000" fill-rule="evenodd"/>
			<path id="Mask" d="M17.33 14C17.33 9.94 15.33 7.33 14 7.33C12.66 7.33 10.66 9.94 10.66 14C10.66 18.05 12.66 20.66 14 20.66C15.33 20.66 17.33 18.05 17.33 14Z" stroke="#979797" stroke-opacity="0" stroke-width="0.000000"/>
		</mask>
		<g mask="url(#mask17_5182)">
			<path id="Mask Copy" d="M8.66 21.33C10.5 21.33 12 18.05 12 14C12 9.94 10.5 6.66 8.66 6.66C6.82 6.66 5.33 9.94 5.33 14C5.33 18.05 6.82 21.33 8.66 21.33Z" fill="#262626" fill-opacity="1.000000" fill-rule="evenodd"/>
			<path id="Mask Copy" d="M12 14C12 9.94 10.5 6.66 8.66 6.66C6.82 6.66 5.33 9.94 5.33 14C5.33 18.05 6.82 21.33 8.66 21.33C10.5 21.33 12 18.05 12 14Z" stroke="#979797" stroke-opacity="0" stroke-width="0.000000"/>
		</g>
		<g mask="url(#mask17_5182)">
			<path id="Mask Copy 2" d="M19.33 21.33C21.17 21.33 22.66 18.05 22.66 14C22.66 9.94 21.17 6.66 19.33 6.66C17.49 6.66 16 9.94 16 14C16 18.05 17.49 21.33 19.33 21.33Z" fill="#262626" fill-opacity="1.000000" fill-rule="evenodd"/>
			<path id="Mask Copy 2" d="M22.66 14C22.66 9.94 21.17 6.66 19.33 6.66C17.49 6.66 16 9.94 16 14C16 18.05 17.49 21.33 19.33 21.33C21.17 21.33 22.66 18.05 22.66 14Z" stroke="#979797" stroke-opacity="0" stroke-width="0.000000"/>
		</g>
		<g mask="url(#mask17_5182)">
			<g filter="url(#filter_17_5185_dd)">
				<mask id="mask_17_5185" fill="white">
					<path id="Oval 228" d="M14.0001 12C14.3682 12 14.6667 10.8061 14.6667 9.33334C14.6667 7.8606 14.3682 6.66669 14.0001 6.66669C13.6318 6.66669 13.3334 7.8606 13.3334 9.33334C13.3334 10.8061 13.6318 12 14.0001 12ZM14.0001 16C14.3682 16 14.6667 15.1046 14.6667 14C14.6667 12.8954 14.3682 12 14.0001 12C13.6318 12 13.3334 12.8954 13.3334 14C13.3334 15.1046 13.6318 16 14.0001 16ZM14.0001 16C13.6318 16 13.3334 17.1939 13.3334 18.6667C13.3334 20.1394 13.6318 21.3333 14.0001 21.3333C14.3682 21.3333 14.6667 20.1394 14.6667 18.6667C14.6667 17.1939 14.3682 16 14.0001 16Z" clip-rule="evenodd" fill="" fill-opacity="1.000000" fill-rule="evenodd"/>
				</mask>
				<path id="Oval 228" d="M14.0001 12C14.3682 12 14.6667 10.8061 14.6667 9.33334C14.6667 7.8606 14.3682 6.66669 14.0001 6.66669C13.6318 6.66669 13.3334 7.8606 13.3334 9.33334C13.3334 10.8061 13.6318 12 14.0001 12ZM14.0001 16C14.3682 16 14.6667 15.1046 14.6667 14C14.6667 12.8954 14.3682 12 14.0001 12C13.6318 12 13.3334 12.8954 13.3334 14C13.3334 15.1046 13.6318 16 14.0001 16ZM14.0001 16C13.6318 16 13.3334 17.1939 13.3334 18.6667C13.3334 20.1394 13.6318 21.3333 14.0001 21.3333C14.3682 21.3333 14.6667 20.1394 14.6667 18.6667C14.6667 17.1939 14.3682 16 14.0001 16Z" clip-rule="evenodd" fill="url(#paint_linear_17_5185_0)" fill-opacity="1.000000" fill-rule="evenodd" mask="url(#mask_17_5185)"/>
			</g>
			<path id="Oval 228" d="" fill="#979797" fill-opacity="0.000000" fill-rule="nonzero"/>
		</g>
	</g>
</svg>
