<svg width="28.000000" height="28.000000" viewBox="0 0 28 28" fill="none" xmlns="http://www.w3.org/2000/svg" xmlns:xlink="http://www.w3.org/1999/xlink">
	<desc>
			Created with Pixso.
	</desc>
	<defs/>
	<rect id="Korea South" width="28.000000" height="28.000000" fill="#FFFFFF" fill-opacity="0"/>
	<rect id="Mask" y="4.000000" rx="3.000000" width="28.000000" height="20.000000" fill="#FFFFFF" fill-opacity="1.000000"/>
	<rect id="Mask" x="0.250000" y="4.250000" rx="3.000000" width="27.500000" height="19.500000" stroke="#D6D8DD" stroke-opacity="1.000000" stroke-width="0.500000"/>
	<mask id="mask17_5199" mask-type="alpha" maskUnits="userSpaceOnUse" x="0.000000" y="4.000000" width="28.000000" height="20.000000">
		<rect id="Mask" y="4.000000" rx="3.000000" width="28.000000" height="20.000000" fill="#FFFFFF" fill-opacity="1.000000"/>
		<rect id="Mask" x="0.250000" y="4.250000" rx="3.000000" width="27.500000" height="19.500000" stroke="#F5F5F5" stroke-opacity="1.000000" stroke-width="0.500000"/>
	</mask>
	<g mask="url(#mask17_5199)">
		<path id="Mask" d="M14 18.66C16.57 18.66 18.66 16.57 18.66 14C18.66 11.42 16.57 9.33 14 9.33C11.42 9.33 9.33 11.42 9.33 14C9.33 16.57 11.42 18.66 14 18.66Z" fill="#E01B41" fill-opacity="1.000000" fill-rule="evenodd"/>
		<path id="Mask" d="M18.66 14C18.66 11.42 16.57 9.33 14 9.33C11.42 9.33 9.33 11.42 9.33 14C9.33 16.57 11.42 18.66 14 18.66C16.57 18.66 18.66 16.57 18.66 14Z" stroke="#979797" stroke-opacity="0" stroke-width="0.000000"/>
		<mask id="mask17_5202" mask-type="alpha" maskUnits="userSpaceOnUse" x="9.333374" y="9.333313" width="9.333313" height="9.333344">
			<path id="Mask" d="M14 18.66C16.57 18.66 18.66 16.57 18.66 14C18.66 11.42 16.57 9.33 14 9.33C11.42 9.33 9.33 11.42 9.33 14C9.33 16.57 11.42 18.66 14 18.66Z" fill="#E01B41" fill-opacity="1.000000" fill-rule="evenodd"/>
			<path id="Mask" d="M18.66 14C18.66 11.42 16.57 9.33 14 9.33C11.42 9.33 9.33 11.42 9.33 14C9.33 16.57 11.42 18.66 14 18.66C16.57 18.66 18.66 16.57 18.66 14Z" stroke="#979797" stroke-opacity="0" stroke-width="0.000000"/>
		</mask>
		<g mask="url(#mask17_5202)">
			<path id="Rectangle 277" d="M9.33 14.66C10.66 15.91 12.66 16.66 14 14.66C15.33 12.66 18 12.66 18.66 14.66C19.33 16.66 18.66 18.66 18.66 18.66L9.33 18.66C9.33 18.66 8 13.41 9.33 14.66Z" fill="#0E4B9C" fill-opacity="1.000000" fill-rule="evenodd"/>
			<path id="Rectangle 277" d="M14 14.66C15.33 12.66 18 12.66 18.66 14.66C19.33 16.66 18.66 18.66 18.66 18.66L9.33 18.66C9.33 18.66 8 13.41 9.33 14.66C10.66 15.91 12.66 16.66 14 14.66Z" stroke="#979797" stroke-opacity="0" stroke-width="0.000000"/>
		</g>
	</g>
	<g mask="url(#mask17_5199)">
		<g opacity="0.750000">
			<mask id="mask_17_5204" fill="white">
				<path id="Rectangle 278" d="M20.7942 7.76794L21.3715 7.4346C21.531 7.34256 21.7349 7.39719 21.8269 7.55661L23.4935 10.4434C23.5239 10.4958 23.5383 10.5532 23.5383 10.6097C23.5383 10.7249 23.4785 10.837 23.3715 10.8987L22.7942 11.2321C22.6348 11.3241 22.4309 11.2695 22.3389 11.11L20.6722 8.22327C20.6419 8.17078 20.6275 8.11346 20.6275 8.05692C20.6275 7.94171 20.6873 7.82968 20.7942 7.76794ZM6.62842 7.4346L7.20575 7.76794C7.31268 7.82968 7.37244 7.94171 7.37244 8.05692C7.37244 8.11346 7.35803 8.17078 7.32776 8.22327L5.66107 11.11C5.56903 11.2695 5.36517 11.3241 5.20575 11.2321L4.62842 10.8987C4.52148 10.837 4.46167 10.7249 4.46167 10.6097C4.46167 10.5532 4.47607 10.4958 4.50641 10.4434L6.17303 7.55661C6.26508 7.39719 6.46893 7.34256 6.62842 7.4346ZM8.36041 8.4346L8.93781 8.76794C9.04474 8.82968 9.10449 8.94171 9.10449 9.05692C9.10449 9.11346 9.09009 9.17078 9.05981 9.22327L7.39313 12.11C7.30109 12.2695 7.09723 12.3241 6.93781 12.2321L6.36041 11.8987C6.25348 11.837 6.19373 11.7249 6.19373 11.6097C6.19373 11.5532 6.20813 11.4958 6.23846 11.4434L7.90509 8.55661C7.99713 8.39719 8.20099 8.34256 8.36041 8.4346ZM19.0621 8.76794L19.6395 8.4346C19.799 8.34256 20.0028 8.39719 20.0948 8.55661L21.7615 11.4434C21.7918 11.4958 21.8062 11.5532 21.8062 11.6097C21.8062 11.7249 21.7465 11.837 21.6395 11.8987L21.0621 12.2321C20.9027 12.3241 20.6989 12.2695 20.6068 12.11L18.9401 9.22327C18.9099 9.17078 18.8954 9.11346 18.8954 9.05692C18.8954 8.94171 18.9552 8.82968 19.0621 8.76794ZM6.36047 16.1013L6.93781 15.7679C7.09723 15.6759 7.30109 15.7305 7.39313 15.89L9.05981 18.7767C9.09009 18.8292 9.10449 18.8865 9.10449 18.9431C9.10449 19.0583 9.04474 19.1703 8.93781 19.2321L8.36047 19.5654C8.20099 19.6574 7.99713 19.6028 7.90509 19.4434L6.23846 16.5566C6.20813 16.5041 6.19373 16.4468 6.19373 16.3903C6.19373 16.2751 6.25348 16.163 6.36047 16.1013ZM21.0621 15.7679L21.6395 16.1013C21.7465 16.163 21.8062 16.2751 21.8062 16.3903C21.8062 16.4468 21.7918 16.5041 21.7615 16.5566L20.0948 19.4434C20.0028 19.6028 19.799 19.6574 19.6395 19.5654L19.0621 19.2321C18.9552 19.1703 18.8954 19.0583 18.8954 18.9431C18.8954 18.8865 18.9099 18.8292 18.9401 18.7767L20.6068 15.89C20.6989 15.7305 20.9027 15.6759 21.0621 15.7679ZM4.62842 17.1013L5.20575 16.7679C5.36517 16.6759 5.56903 16.7305 5.66107 16.89L7.32776 19.7767C7.35803 19.8292 7.37244 19.8865 7.37244 19.9431C7.37244 20.0583 7.31268 20.1703 7.20575 20.2321L6.62842 20.5654C6.46893 20.6574 6.26508 20.6028 6.17303 20.4434L4.50641 17.5566C4.47607 17.5041 4.46167 17.4468 4.46167 17.3903C4.46167 17.2751 4.52148 17.163 4.62842 17.1013ZM22.7942 16.7679L23.3715 17.1013C23.4785 17.163 23.5383 17.2751 23.5383 17.3903C23.5383 17.4468 23.5239 17.5041 23.4935 17.5566L21.8269 20.4434C21.7349 20.6028 21.531 20.6574 21.3715 20.5654L20.7942 20.2321C20.6873 20.1703 20.6275 20.0583 20.6275 19.9431C20.6275 19.8865 20.6419 19.8292 20.6722 19.7767L22.3389 16.89C22.4309 16.7305 22.6348 16.6759 22.7942 16.7679Z" clip-rule="evenodd" fill="" fill-opacity="1.000000" fill-rule="evenodd"/>
			</mask>
			<path id="Rectangle 278" d="M20.7942 7.76794L21.3715 7.4346C21.531 7.34256 21.7349 7.39719 21.8269 7.55661L23.4935 10.4434C23.5239 10.4958 23.5383 10.5532 23.5383 10.6097C23.5383 10.7249 23.4785 10.837 23.3715 10.8987L22.7942 11.2321C22.6348 11.3241 22.4309 11.2695 22.3389 11.11L20.6722 8.22327C20.6419 8.17078 20.6275 8.11346 20.6275 8.05692C20.6275 7.94171 20.6873 7.82968 20.7942 7.76794ZM6.62842 7.4346L7.20575 7.76794C7.31268 7.82968 7.37244 7.94171 7.37244 8.05692C7.37244 8.11346 7.35803 8.17078 7.32776 8.22327L5.66107 11.11C5.56903 11.2695 5.36517 11.3241 5.20575 11.2321L4.62842 10.8987C4.52148 10.837 4.46167 10.7249 4.46167 10.6097C4.46167 10.5532 4.47607 10.4958 4.50641 10.4434L6.17303 7.55661C6.26508 7.39719 6.46893 7.34256 6.62842 7.4346ZM8.36041 8.4346L8.93781 8.76794C9.04474 8.82968 9.10449 8.94171 9.10449 9.05692C9.10449 9.11346 9.09009 9.17078 9.05981 9.22327L7.39313 12.11C7.30109 12.2695 7.09723 12.3241 6.93781 12.2321L6.36041 11.8987C6.25348 11.837 6.19373 11.7249 6.19373 11.6097C6.19373 11.5532 6.20813 11.4958 6.23846 11.4434L7.90509 8.55661C7.99713 8.39719 8.20099 8.34256 8.36041 8.4346ZM19.0621 8.76794L19.6395 8.4346C19.799 8.34256 20.0028 8.39719 20.0948 8.55661L21.7615 11.4434C21.7918 11.4958 21.8062 11.5532 21.8062 11.6097C21.8062 11.7249 21.7465 11.837 21.6395 11.8987L21.0621 12.2321C20.9027 12.3241 20.6989 12.2695 20.6068 12.11L18.9401 9.22327C18.9099 9.17078 18.8954 9.11346 18.8954 9.05692C18.8954 8.94171 18.9552 8.82968 19.0621 8.76794ZM6.36047 16.1013L6.93781 15.7679C7.09723 15.6759 7.30109 15.7305 7.39313 15.89L9.05981 18.7767C9.09009 18.8292 9.10449 18.8865 9.10449 18.9431C9.10449 19.0583 9.04474 19.1703 8.93781 19.2321L8.36047 19.5654C8.20099 19.6574 7.99713 19.6028 7.90509 19.4434L6.23846 16.5566C6.20813 16.5041 6.19373 16.4468 6.19373 16.3903C6.19373 16.2751 6.25348 16.163 6.36047 16.1013ZM21.0621 15.7679L21.6395 16.1013C21.7465 16.163 21.8062 16.2751 21.8062 16.3903C21.8062 16.4468 21.7918 16.5041 21.7615 16.5566L20.0948 19.4434C20.0028 19.6028 19.799 19.6574 19.6395 19.5654L19.0621 19.2321C18.9552 19.1703 18.8954 19.0583 18.8954 18.9431C18.8954 18.8865 18.9099 18.8292 18.9401 18.7767L20.6068 15.89C20.6989 15.7305 20.9027 15.6759 21.0621 15.7679ZM4.62842 17.1013L5.20575 16.7679C5.36517 16.6759 5.56903 16.7305 5.66107 16.89L7.32776 19.7767C7.35803 19.8292 7.37244 19.8865 7.37244 19.9431C7.37244 20.0583 7.31268 20.1703 7.20575 20.2321L6.62842 20.5654C6.46893 20.6574 6.26508 20.6028 6.17303 20.4434L4.50641 17.5566C4.47607 17.5041 4.46167 17.4468 4.46167 17.3903C4.46167 17.2751 4.52148 17.163 4.62842 17.1013ZM22.7942 16.7679L23.3715 17.1013C23.4785 17.163 23.5383 17.2751 23.5383 17.3903C23.5383 17.4468 23.5239 17.5041 23.4935 17.5566L21.8269 20.4434C21.7349 20.6028 21.531 20.6574 21.3715 20.5654L20.7942 20.2321C20.6873 20.1703 20.6275 20.0583 20.6275 19.9431C20.6275 19.8865 20.6419 19.8292 20.6722 19.7767L22.3389 16.89C22.4309 16.7305 22.6348 16.6759 22.7942 16.7679Z" clip-rule="evenodd" fill="#262626" fill-opacity="1.000000" fill-rule="evenodd" mask="url(#mask_17_5204)"/>
			<path id="Rectangle 278" d="" fill="#979797" fill-opacity="0.000000" fill-rule="nonzero"/>
		</g>
	</g>
</svg>
