<svg width="28.000000" height="28.000000" viewBox="0 0 28 28" fill="none" xmlns="http://www.w3.org/2000/svg" xmlns:xlink="http://www.w3.org/1999/xlink">
	<desc>
			Created with Pixso.
	</desc>
	<defs/>
	<rect id="Kyrgyzstan" width="28.000000" height="28.000000" fill="#FFFFFF" fill-opacity="0"/>
	<rect id="Mask" y="4.000000" rx="3.000000" width="28.000000" height="20.000000" fill="#FFFFFF" fill-opacity="1.000000"/>
	<rect id="Mask" y="4.000000" rx="3.000000" width="28.000000" height="20.000000" stroke="#979797" stroke-opacity="0" stroke-width="0.000000"/>
	<mask id="mask17_5191" mask-type="alpha" maskUnits="userSpaceOnUse" x="0.000000" y="4.000000" width="28.000000" height="20.000000">
		<rect id="Mask" y="4.000000" rx="3.000000" width="28.000000" height="20.000000" fill="#FFFFFF" fill-opacity="1.000000"/>
		<rect id="Mask" y="4.000000" rx="3.000000" width="28.000000" height="20.000000" stroke="#979797" stroke-opacity="0" stroke-width="0.000000"/>
	</mask>
	<g mask="url(#mask17_5191)">
		<rect id="Mask Copy" y="4.000000" width="28.000000" height="20.000000" fill="#F22A46" fill-opacity="1.000000"/>
		<rect id="Mask Copy" y="4.000000" width="28.000000" height="20.000000" stroke="#979797" stroke-opacity="0" stroke-width="0.000000"/>
	</g>
	<g mask="url(#mask17_5191)">
		<path id="Oval 9" d="M14 17.33C15.84 17.33 17.33 15.84 17.33 14C17.33 12.15 15.84 10.66 14 10.66C12.15 10.66 10.66 12.15 10.66 14C10.66 15.84 12.15 17.33 14 17.33Z" fill="#FFF04D" fill-opacity="1.000000" fill-rule="evenodd"/>
		<path id="Oval 9" d="M17.33 14C17.33 12.15 15.84 10.66 14 10.66C12.15 10.66 10.66 12.15 10.66 14C10.66 15.84 12.15 17.33 14 17.33C15.84 17.33 17.33 15.84 17.33 14Z" stroke="#979797" stroke-opacity="0" stroke-width="0.000000"/>
	</g>
	<g mask="url(#mask17_5191)">
		<mask id="mask_17_5194" fill="white">
			<path id="Star 28" d="M13.9999 18.7136L12.3682 21.1495L11.9548 18.2468L9.42767 19.7334L10.3147 16.9389L7.39288 17.1818L9.40454 15.0489L6.66663 14L9.40454 12.9511L7.39288 10.8182L10.3147 11.0611L9.42767 8.26657L11.9548 9.75317L12.3682 6.85052L13.9999 9.28638L15.6318 6.85052L16.0451 9.75317L18.5722 8.26657L17.6852 11.0611L20.6071 10.8182L18.5954 12.9511L21.3333 14L18.5954 15.0489L20.6071 17.1818L17.6852 16.9389L18.5722 19.7334L16.0451 18.2468L15.6318 21.1495L13.9999 18.7136ZM18.6666 14C18.6666 16.5773 16.5773 18.6667 13.9999 18.6667C11.4226 18.6667 9.33331 16.5773 9.33331 14C9.33331 11.4227 11.4226 9.33334 13.9999 9.33334C16.5773 9.33334 18.6666 11.4227 18.6666 14Z" clip-rule="evenodd" fill="" fill-opacity="1.000000" fill-rule="evenodd"/>
		</mask>
		<path id="Star 28" d="M13.9999 18.7136L12.3682 21.1495L11.9548 18.2468L9.42767 19.7334L10.3147 16.9389L7.39288 17.1818L9.40454 15.0489L6.66663 14L9.40454 12.9511L7.39288 10.8182L10.3147 11.0611L9.42767 8.26657L11.9548 9.75317L12.3682 6.85052L13.9999 9.28638L15.6318 6.85052L16.0451 9.75317L18.5722 8.26657L17.6852 11.0611L20.6071 10.8182L18.5954 12.9511L21.3333 14L18.5954 15.0489L20.6071 17.1818L17.6852 16.9389L18.5722 19.7334L16.0451 18.2468L15.6318 21.1495L13.9999 18.7136ZM18.6666 14C18.6666 16.5773 16.5773 18.6667 13.9999 18.6667C11.4226 18.6667 9.33331 16.5773 9.33331 14C9.33331 11.4227 11.4226 9.33334 13.9999 9.33334C16.5773 9.33334 18.6666 11.4227 18.6666 14Z" clip-rule="evenodd" fill="#FFF04D" fill-opacity="1.000000" fill-rule="evenodd" mask="url(#mask_17_5194)"/>
		<path id="Star 28" d="" fill="#979797" fill-opacity="0.000000" fill-rule="nonzero"/>
	</g>
</svg>
