<svg width="28.000000" height="28.000000" viewBox="0 0 28 28" fill="none" xmlns="http://www.w3.org/2000/svg" xmlns:xlink="http://www.w3.org/1999/xlink">
	<desc>
			Created with Pixso.
	</desc>
	<defs/>
	<rect id="Lao People's Democratic Republic" width="28.000000" height="28.000000" fill="#FFFFFF" fill-opacity="0"/>
	<rect id="Mask" y="4.000000" rx="3.000000" width="28.000000" height="20.000000" fill="#FFFFFF" fill-opacity="1.000000"/>
	<rect id="Mask" y="4.000000" rx="3.000000" width="28.000000" height="20.000000" stroke="#979797" stroke-opacity="0" stroke-width="0.000000"/>
	<mask id="mask17_5077" mask-type="alpha" maskUnits="userSpaceOnUse" x="0.000000" y="4.000000" width="28.000000" height="20.000000">
		<rect id="Mask" y="4.000000" rx="3.000000" width="28.000000" height="20.000000" fill="#FFFFFF" fill-opacity="1.000000"/>
		<rect id="Mask" y="4.000000" rx="3.000000" width="28.000000" height="20.000000" stroke="#979797" stroke-opacity="0" stroke-width="0.000000"/>
	</mask>
	<g mask="url(#mask17_5077)">
		<path id="Rectangle 2 Copy 4" d="M0 18.66L28 18.66L28 9.33L0 9.33L0 18.66Z" fill="#073A88" fill-opacity="1.000000" fill-rule="evenodd"/>
		<path id="Rectangle 2 Copy 4" d="M28 18.66L28 9.33L0 9.33L0 18.66L28 18.66Z" stroke="#979797" stroke-opacity="0" stroke-width="0.000000"/>
	</g>
	<g mask="url(#mask17_5077)">
		<path id="Rectangle 2" d="M0 9.33L28 9.33L28 4L0 4L0 9.33Z" fill="#E2273E" fill-opacity="1.000000" fill-rule="evenodd"/>
		<path id="Rectangle 2" d="M28 9.33L28 4L0 4L0 9.33L28 9.33Z" stroke="#979797" stroke-opacity="0" stroke-width="0.000000"/>
	</g>
	<g mask="url(#mask17_5077)">
		<path id="Rectangle 2" d="M0 24L28 24L28 18.66L0 18.66L0 24Z" fill="#E2273E" fill-opacity="1.000000" fill-rule="evenodd"/>
		<path id="Rectangle 2" d="M28 24L28 18.66L0 18.66L0 24L28 24Z" stroke="#979797" stroke-opacity="0" stroke-width="0.000000"/>
	</g>
	<g mask="url(#mask17_5077)">
		<path id="Oval 12" d="M14 17.33C15.84 17.33 17.33 15.84 17.33 14C17.33 12.15 15.84 10.66 14 10.66C12.15 10.66 10.66 12.15 10.66 14C10.66 15.84 12.15 17.33 14 17.33Z" fill="#FFFFFF" fill-opacity="1.000000" fill-rule="evenodd"/>
		<path id="Oval 12" d="M17.33 14C17.33 12.15 15.84 10.66 14 10.66C12.15 10.66 10.66 12.15 10.66 14C10.66 15.84 12.15 17.33 14 17.33C15.84 17.33 17.33 15.84 17.33 14Z" stroke="#979797" stroke-opacity="0" stroke-width="0.000000"/>
	</g>
</svg>
