<svg width="28" height="28" viewBox="0 0 28 28" fill="none" xmlns="http://www.w3.org/2000/svg">
<rect x="0.25" y="4.25" width="27.5" height="19.5" rx="2.75" fill="white" stroke="#D6D8DD" stroke-width="0.5"/>
<mask id="mask0_17_5115" style="mask-type:luminance" maskUnits="userSpaceOnUse" x="0" y="4" width="28" height="20">
<rect x="0.25" y="4.25" width="27.5" height="19.5" rx="2.75" fill="white" stroke="white" stroke-width="0.5"/>
</mask>
<g mask="url(#mask0_17_5115)">
<path fill-rule="evenodd" clip-rule="evenodd" d="M0 9.33333H28V4H0V9.33333Z" fill="#F03340"/>
<path fill-rule="evenodd" clip-rule="evenodd" d="M0 24H28V18.6667H0V24Z" fill="#F03340"/>
<path fill-rule="evenodd" clip-rule="evenodd" d="M12.9428 16.3905C13.1585 16.1748 13.1585 15.8251 12.9428 15.6095L12.8661 15.5328C12.7424 15.409 12.5628 15.3593 12.3931 15.4017L12.0138 15.4965C11.5701 15.6075 11.2948 15.0289 11.6606 14.7545L12.0033 14.4975C12.2158 14.3381 12.1031 14 11.8375 14C11.5458 14 11.453 13.6068 11.7139 13.4764L12.2861 13.1903C12.547 13.0598 12.4542 12.6667 12.1625 12.6667C11.8969 12.6667 11.7842 12.3285 11.9967 12.1691L13.6 10.9667C13.837 10.7889 14.163 10.7889 14.4 10.9667L16.0033 12.1691C16.2158 12.3285 16.1031 12.6667 15.8375 12.6667C15.5458 12.6667 15.453 13.0598 15.7139 13.1903L16.2861 13.4764C16.547 13.6068 16.4542 14 16.1625 14C15.8969 14 15.7842 14.3381 15.9967 14.4975L16.3394 14.7545C16.7052 15.0289 16.4299 15.6075 15.9862 15.4965L15.6069 15.4017C15.4372 15.3593 15.2576 15.409 15.1339 15.5328L15.0572 15.6095C14.8415 15.8251 14.8415 16.1748 15.0572 16.3905C15.4051 16.7384 15.1587 17.3333 14.6667 17.3333H13.3333C12.8413 17.3333 12.5949 16.7384 12.9428 16.3905Z" fill="#1FC065"/>
</g>
</svg>
