<svg width="28.000000" height="28.000000" viewBox="0 0 28 28" fill="none" xmlns="http://www.w3.org/2000/svg" xmlns:xlink="http://www.w3.org/1999/xlink">
	<desc>
			Created with Pixso.
	</desc>
	<defs/>
	<rect id="Malaysia" width="28.000000" height="28.000000" fill="#FFFFFF" fill-opacity="0"/>
	<rect id="Mask" y="4.000000" rx="3.000000" width="28.000000" height="20.000000" fill="#FFFFFF" fill-opacity="1.000000"/>
	<rect id="Mask" y="4.000000" rx="3.000000" width="28.000000" height="20.000000" stroke="#979797" stroke-opacity="0" stroke-width="0.000000"/>
	<mask id="mask17_4929" mask-type="alpha" maskUnits="userSpaceOnUse" x="0.000000" y="4.000000" width="28.000000" height="20.000000">
		<rect id="Mask" y="4.000000" rx="3.000000" width="28.000000" height="20.000000" fill="#FFFFFF" fill-opacity="1.000000"/>
		<rect id="Mask" y="4.000000" rx="3.000000" width="28.000000" height="20.000000" stroke="#979797" stroke-opacity="0" stroke-width="0.000000"/>
	</mask>
	<g mask="url(#mask17_4929)">
		<mask id="mask_17_4930" fill="white">
			<path id="Rectangle 537" d="M13.3333 4L28 4L28 5.33334L13.3333 5.33334L13.3333 4ZM13.3333 6.66666L28 6.66666L28 8L13.3333 8L13.3333 6.66666ZM13.3333 9.33334L28 9.33334L28 10.6667L13.3333 10.6667L13.3333 9.33334ZM13.3333 12L28 12L28 13.3333L13.3333 13.3333L13.3333 12ZM0 14.6667L28 14.6667L28 16L0 16L0 14.6667ZM0 17.3333L28 17.3333L28 18.6667L0 18.6667L0 17.3333ZM0 20L28 20L28 21.3333L0 21.3333L0 20ZM0 22.6667L28 22.6667L28 24L0 24L0 22.6667Z" clip-rule="evenodd" fill="" fill-opacity="1.000000" fill-rule="evenodd"/>
		</mask>
		<path id="Rectangle 537" d="M13.3333 4L28 4L28 5.33334L13.3333 5.33334L13.3333 4ZM13.3333 6.66666L28 6.66666L28 8L13.3333 8L13.3333 6.66666ZM13.3333 9.33334L28 9.33334L28 10.6667L13.3333 10.6667L13.3333 9.33334ZM13.3333 12L28 12L28 13.3333L13.3333 13.3333L13.3333 12ZM0 14.6667L28 14.6667L28 16L0 16L0 14.6667ZM0 17.3333L28 17.3333L28 18.6667L0 18.6667L0 17.3333ZM0 20L28 20L28 21.3333L0 21.3333L0 20ZM0 22.6667L28 22.6667L28 24L0 24L0 22.6667Z" clip-rule="evenodd" fill="#E1244A" fill-opacity="1.000000" fill-rule="evenodd" mask="url(#mask_17_4930)"/>
		<path id="Rectangle 537" d="" fill="#979797" fill-opacity="0.000000" fill-rule="nonzero"/>
	</g>
	<g mask="url(#mask17_4929)">
		<rect id="Rectangle 1568" y="4.000000" width="16.000000" height="10.666667" fill="#0C3F8E" fill-opacity="1.000000"/>
		<rect id="Rectangle 1568" y="4.000000" width="16.000000" height="10.666667" stroke="#979797" stroke-opacity="0" stroke-width="0.000000"/>
	</g>
	<g mask="url(#mask17_4929)">
		<mask id="mask_17_4940" fill="white">
			<path id="Oval 12" d="M9.16492 12.4575C8.48041 13.0055 7.61188 13.3333 6.66675 13.3333C4.45758 13.3333 2.66675 11.5424 2.66675 9.33331C2.66675 7.12418 4.45758 5.33331 6.66675 5.33331C7.61188 5.33331 8.48041 5.6611 9.16492 6.20917C8.80231 6.07391 8.40985 5.99997 8.00006 5.99997C6.15912 5.99997 4.66675 7.49237 4.66675 9.33331C4.66675 11.1743 6.15912 12.6667 8.00006 12.6667C8.40985 12.6667 8.80231 12.5927 9.16492 12.4575ZM9.5097 11.7359L10.6667 10.4266L11.8238 11.7359L11.5215 10.015L13.2665 9.9267L11.7327 9.09003L12.7516 7.67068L11.1411 8.34827L10.6667 6.66666L10.1924 8.34827L8.58185 7.67068L9.60083 9.09003L8.06696 9.9267L9.81195 10.015L9.5097 11.7359Z" clip-rule="evenodd" fill="" fill-opacity="1.000000" fill-rule="evenodd"/>
		</mask>
		<path id="Oval 12" d="M9.16492 12.4575C8.48041 13.0055 7.61188 13.3333 6.66675 13.3333C4.45758 13.3333 2.66675 11.5424 2.66675 9.33331C2.66675 7.12418 4.45758 5.33331 6.66675 5.33331C7.61188 5.33331 8.48041 5.6611 9.16492 6.20917C8.80231 6.07391 8.40985 5.99997 8.00006 5.99997C6.15912 5.99997 4.66675 7.49237 4.66675 9.33331C4.66675 11.1743 6.15912 12.6667 8.00006 12.6667C8.40985 12.6667 8.80231 12.5927 9.16492 12.4575ZM9.5097 11.7359L10.6667 10.4266L11.8238 11.7359L11.5215 10.015L13.2665 9.9267L11.7327 9.09003L12.7516 7.67068L11.1411 8.34827L10.6667 6.66666L10.1924 8.34827L8.58185 7.67068L9.60083 9.09003L8.06696 9.9267L9.81195 10.015L9.5097 11.7359Z" clip-rule="evenodd" fill="#FFD34F" fill-opacity="1.000000" fill-rule="evenodd" mask="url(#mask_17_4940)"/>
		<path id="Oval 12" d="" fill="#979797" fill-opacity="0.000000" fill-rule="nonzero"/>
	</g>
</svg>
