<svg width="28.000000" height="28.000000" viewBox="0 0 28 28" fill="none" xmlns="http://www.w3.org/2000/svg" xmlns:xlink="http://www.w3.org/1999/xlink">
	<desc>
			Created with Pixso.
	</desc>
	<defs/>
	<rect id="Maldives" width="28.000000" height="28.000000" fill="#FFFFFF" fill-opacity="0"/>
	<rect id="Mask" y="4.000000" rx="3.000000" width="28.000000" height="20.000000" fill="#FFFFFF" fill-opacity="1.000000"/>
	<rect id="Mask" y="4.000000" rx="3.000000" width="28.000000" height="20.000000" stroke="#979797" stroke-opacity="0" stroke-width="0.000000"/>
	<mask id="mask17_4954" mask-type="alpha" maskUnits="userSpaceOnUse" x="0.000000" y="4.000000" width="28.000000" height="20.000000">
		<rect id="Mask" y="4.000000" rx="3.000000" width="28.000000" height="20.000000" fill="#FFFFFF" fill-opacity="1.000000"/>
		<rect id="Mask" y="4.000000" rx="3.000000" width="28.000000" height="20.000000" stroke="#979797" stroke-opacity="0" stroke-width="0.000000"/>
	</mask>
	<g mask="url(#mask17_4954)">
		<rect id="Mask Copy" y="4.000000" width="28.000000" height="20.000000" fill="#F32249" fill-opacity="1.000000"/>
		<rect id="Mask Copy" y="4.000000" width="28.000000" height="20.000000" stroke="#979797" stroke-opacity="0" stroke-width="0.000000"/>
	</g>
	<g mask="url(#mask17_4954)">
		<rect id="Rectangle 1568" x="4.000000" y="8.000000" rx="0.666667" width="20.000000" height="12.000000" fill="#15A04F" fill-opacity="1.000000"/>
		<rect id="Rectangle 1568" x="4.000000" y="8.000000" rx="0.666667" width="20.000000" height="12.000000" stroke="#979797" stroke-opacity="0" stroke-width="0.000000"/>
	</g>
	<g mask="url(#mask17_4954)">
		<mask id="mask_17_4957" fill="white">
			<path id="Oval 12" d="M16.3333 18.5593C16.0112 18.6296 15.6766 18.6667 15.3333 18.6667C12.756 18.6667 10.6667 16.5773 10.6667 14C10.6667 11.4226 12.756 9.33331 15.3333 9.33331C15.6766 9.33331 16.0112 9.37036 16.3333 9.4407C14.2365 9.8985 12.6667 11.7659 12.6667 14C12.6667 16.2341 14.2365 18.1015 16.3333 18.5593Z" clip-rule="evenodd" fill="" fill-opacity="1.000000" fill-rule="evenodd"/>
		</mask>
		<path id="Oval 12" d="M16.3333 18.5593C16.0112 18.6296 15.6766 18.6667 15.3333 18.6667C12.756 18.6667 10.6667 16.5773 10.6667 14C10.6667 11.4226 12.756 9.33331 15.3333 9.33331C15.6766 9.33331 16.0112 9.37036 16.3333 9.4407C14.2365 9.8985 12.6667 11.7659 12.6667 14C12.6667 16.2341 14.2365 18.1015 16.3333 18.5593Z" clip-rule="evenodd" fill="#FFFFFF" fill-opacity="1.000000" fill-rule="evenodd" mask="url(#mask_17_4957)"/>
		<path id="Oval 12" d="" fill="#979797" fill-opacity="0.000000" fill-rule="nonzero"/>
	</g>
</svg>
