<svg width="29.000000" height="28.000000" viewBox="0 0 29 28" fill="none" xmlns="http://www.w3.org/2000/svg" xmlns:xlink="http://www.w3.org/1999/xlink">
	<desc>
			Created with Pixso.
	</desc>
	<defs/>
	<rect id="Malta" width="28.000000" height="28.000000" fill="#FFFFFF" fill-opacity="0"/>
	<rect id="Mask" y="4.000000" rx="3.000000" width="28.000000" height="20.000000" fill="#FFFFFF" fill-opacity="1.000000"/>
	<rect id="Mask" x="0.250000" y="4.250000" rx="3.000000" width="27.500000" height="19.500000" stroke="#D6D8DD" stroke-opacity="1.000000" stroke-width="0.500000"/>
	<mask id="mask17_5003" mask-type="alpha" maskUnits="userSpaceOnUse" x="0.000000" y="4.000000" width="28.000000" height="20.000000">
		<rect id="Mask" y="4.000000" rx="3.000000" width="28.000000" height="20.000000" fill="#FFFFFF" fill-opacity="1.000000"/>
		<rect id="Mask" x="0.250000" y="4.250000" rx="3.000000" width="27.500000" height="19.500000" stroke="#F5F5F5" stroke-opacity="1.000000" stroke-width="0.500000"/>
	</mask>
	<g mask="url(#mask17_5003)">
		<path id="Rectangle 2 Copy 2" d="M14.66 24L28 24L28 4L14.66 4L14.66 24Z" fill="#DE233C" fill-opacity="1.000000" fill-rule="evenodd"/>
		<path id="Rectangle 2 Copy 2" d="M28 24L28 4L14.66 4L14.66 24L28 24Z" stroke="#979797" stroke-opacity="0" stroke-width="0.000000"/>
	</g>
	<g mask="url(#mask17_5003)">
		<mask id="mask_17_5005" fill="white">
			<path id="Rectangle 364" d="M5.33336 6.66669L4.00002 6.66669L4.00002 8.00003L2.66669 8.00003L2.66669 9.33334L4.00002 9.33334L4.00002 10.6667L5.33336 10.6667L5.33336 9.33334L6.66669 9.33334L6.66669 8.00003L5.33336 8.00003L5.33336 6.66669Z" clip-rule="evenodd" fill="" fill-opacity="1.000000" fill-rule="evenodd"/>
		</mask>
		<path id="Rectangle 364" d="M5.33336 6.66669L4.00002 6.66669L4.00002 8.00003L2.66669 8.00003L2.66669 9.33334L4.00002 9.33334L4.00002 10.6667L5.33336 10.6667L5.33336 9.33334L6.66669 9.33334L6.66669 8.00003L5.33336 8.00003L5.33336 6.66669Z" clip-rule="evenodd" fill="#CCCCCD" fill-opacity="1.000000" fill-rule="evenodd" mask="url(#mask_17_5005)"/>
		<path id="Rectangle 364" d="M6.00002 7.33334L6.00002 6.00003L3.33336 6.00003L3.33336 7.33334L2.00002 7.33334L2.00002 10L3.33336 10L3.33336 11.3333L6.00002 11.3333L6.00002 10L7.33336 10L7.33336 7.33334L6.00002 7.33334ZM5.33336 7.33334L5.33336 6.66669L4.00002 6.66669L4.00002 8.00003L2.66669 8.00003L2.66669 9.33334L4.00002 9.33334L4.00002 10.6667L5.33336 10.6667L5.33336 9.33334L6.66669 9.33334L6.66669 8.00003L5.33336 8.00003L5.33336 7.33334Z" clip-rule="evenodd" fill="#7B716A" fill-opacity="0.660000" fill-rule="evenodd"/>
	</g>
	<g mask="url(#mask17_5003)">
		<path id="Oval 20" d="M4.66 9.33C5.03 9.33 5.33 9.03 5.33 8.66C5.33 8.29 5.03 8 4.66 8C4.29 8 4 8.29 4 8.66C4 9.03 4.29 9.33 4.66 9.33Z" fill="#7B716A" fill-opacity="1.000000" fill-rule="evenodd"/>
		<path id="Oval 20" d="M5.33 8.66C5.33 8.29 5.03 8 4.66 8C4.29 8 4 8.29 4 8.66C4 9.03 4.29 9.33 4.66 9.33C5.03 9.33 5.33 9.03 5.33 8.66Z" stroke="#979797" stroke-opacity="0" stroke-width="0.000000"/>
	</g>
</svg>
