<svg viewBox="0 0 28 28" xmlns="http://www.w3.org/2000/svg" xmlns:xlink="http://www.w3.org/1999/xlink" width="28.000000" height="28.000000" fill="none" customFrame="#000000">
	<defs>
		<filter id="pixso_custom_mask_type_alpha">
			<feColorMatrix type="matrix" values="0 0 0 0 1 0 0 0 0 1 0 0 0 0 1 0 0 0 1 0 " />
		</filter>
	</defs>
	<mask id="mask_459" width="28.000000" height="20.000000" x="0.000000" y="4.000000" maskUnits="userSpaceOnUse">
		<g filter="url(#pixso_custom_mask_type_alpha)">
			<rect id="Mask" width="28.000000" height="20.000000" x="0.000000" y="4.000000" rx="3.000000" fill="rgb(255,255,255)" />
			<rect id="Mask" width="27.500000" height="19.500000" x="0.250000" y="4.250000" rx="2.750000" stroke="rgb(245,245,245)" stroke-width="0.5" />
		</g>
	</mask>
	<rect id="Malta" width="28.000000" height="28.000000" x="0.000000" y="0.000000" fill="rgb(255,255,255)" fill-opacity="0" />
	<rect id="Mask" width="28.000000" height="20.000000" x="0.000000" y="4.000000" rx="3.000000" fill="rgb(255,255,255)" />
	<rect id="Mask" width="27.500000" height="19.500000" x="0.250000" y="4.250000" rx="2.750000" stroke="rgb(214,216,221)" stroke-width="0.5" />
	<g mask="url(#mask_459)">
		<path id="Rectangle 2 Copy 2" d="M14.6667 24L28 24L28 4L14.6667 4L14.6667 24Z" fill="rgb(222,35,60)" fill-rule="evenodd" />
		<path id="Rectangle 2 Copy 2" d="M28 24L28 4L14.6667 4L14.6667 24L28 24Z" fill-rule="evenodd" stroke="rgb(150.96,150.96,150.96)" stroke-opacity="0" stroke-width="0" />
		<path id="Rectangle 364" d="M5.33335 8.00002L5.33335 6.66669L4.00002 6.66669L4.00002 8.00002L2.66669 8.00002L2.66669 9.33335L4.00002 9.33335L4.00002 10.6667L5.33335 10.6667L5.33335 9.33335L6.66669 9.33335L6.66669 8.00002L5.33335 8.00002Z" fill="rgb(204,204,205)" fill-rule="evenodd" />
		<path id="Rectangle 364" d="M3.33335 6.00002L3.33335 7.33335L2.00002 7.33335L2.00002 10L3.33335 10L3.33335 11.3334L6.00002 11.3334L6.00002 10L7.33335 10L7.33335 7.33335L6.00002 7.33335L6.00002 6.00002L3.33335 6.00002ZM4.00002 6.66669L5.33335 6.66669L5.33335 8.00002L6.66669 8.00002L6.66669 9.33335L5.33335 9.33335L5.33335 10.6667L4.00002 10.6667L4.00002 9.33335L2.66669 9.33335L2.66669 8.00002L4.00002 8.00002L4.00002 6.66669Z" fill="rgb(123,113,106)" fill-opacity="0.660000026" fill-rule="evenodd" />
		<path id="Oval 20" d="M4.66667 9.33333C5.03486 9.33333 5.33333 9.03486 5.33333 8.66667C5.33333 8.29848 5.03486 8 4.66667 8C4.29848 8 4 8.29848 4 8.66667C4 9.03486 4.29848 9.33333 4.66667 9.33333Z" fill="rgb(123,113,106)" fill-rule="evenodd" />
		<path id="Oval 20" d="M5.33333 8.66667C5.33333 8.29848 5.03486 8 4.66667 8C4.29848 8 4 8.29848 4 8.66667C4 9.03486 4.29848 9.33333 4.66667 9.33333C5.03486 9.33333 5.33333 9.03486 5.33333 8.66667Z" fill-rule="evenodd" stroke="rgb(150.96,150.96,150.96)" stroke-opacity="0" stroke-width="0" />
	</g>
</svg>
