<svg viewBox="0 0 28 28" xmlns="http://www.w3.org/2000/svg" xmlns:xlink="http://www.w3.org/1999/xlink" width="28.000000" height="28.000000" fill="none" customFrame="#000000">
	<defs>
		<filter id="pixso_custom_mask_type_alpha">
			<feColorMatrix type="matrix" values="0 0 0 0 1 0 0 0 0 1 0 0 0 0 1 0 0 0 1 0 " />
		</filter>
	</defs>
	<mask id="mask_292" width="28.000000" height="20.000000" x="0.000000" y="4.000000" maskUnits="userSpaceOnUse">
		<g filter="url(#pixso_custom_mask_type_alpha)">
			<rect id="Rectangle 2319" width="28.000000" height="20.000000" x="0.000000" y="4.000000" rx="3.000000" fill="rgb(16,58,142)" />
		</g>
	</mask>
	<rect id="Marshall Islands" width="28.000000" height="28.000000" x="0.000000" y="0.000000" fill="rgb(255,255,255)" fill-opacity="0" />
	<rect id="Rectangle 2317" width="27.500000" height="19.500000" x="0.250000" y="4.250000" rx="2.750000" stroke="rgb(245,245,245)" stroke-width="0.5" />
	<g mask="url(#mask_292)">
		<path id="Subtract" d="M28 10.4682L28 4L0 4L0 23.2424L28 10.4682ZM28 13.7503L0 23.6212L0 24L28 24L28 13.7503Z" fill="rgb(16,58,142)" fill-rule="evenodd" />
		<path id="Union" d="M7.01518 4.90906L7.24482 9.21021L8.20732 6.5054L7.68846 9.32908L9.31821 6.96555L8.08621 9.55872L10.2722 7.69754L8.41098 9.88348L11.0041 8.65148L8.64062 10.2812L11.4643 9.76238L8.75949 10.7249L13.0606 10.9545L8.75949 11.1842L11.4643 12.1467L8.64062 11.6278L11.0041 13.2575L8.41098 12.0255L10.2722 14.2115L8.08621 12.3503L9.31821 14.9435L7.68846 12.5799L8.20732 15.4036L7.24482 12.6988L7.01518 17L6.78554 12.6988L5.82305 15.4036L6.34191 12.5799L4.71215 14.9435L5.94415 12.3503L3.7582 14.2115L5.61939 12.0255L3.02622 13.2575L5.38975 11.6278L2.56607 12.1467L5.27087 11.1842L0.969727 10.9545L5.27087 10.7249L2.56607 9.76238L5.38975 10.2812L3.02622 8.65148L5.61939 9.88348L3.7582 7.69754L5.94415 9.55872L4.71215 6.96555L6.34191 9.32908L5.82305 6.5054L6.78554 9.21021L7.01518 4.90906Z" fill="rgb(255,255,255)" fill-rule="nonzero" />
		<path id="Vector 2" d="M28.8788 6.45459L0 23.091L0 23.2425L28.8788 10.2425L28.8788 6.45459Z" fill="rgb(208,122,44)" fill-rule="evenodd" />
		<path id="Vector 2" d="M28 10.5L0.707031 22.9258L0.875 23.1211L1.03516 23.2539L28 14.5L28 10.5Z" fill="rgb(255,255,255)" fill-rule="evenodd" />
	</g>
</svg>
