<svg width="29.000000" height="28.000000" viewBox="0 0 29 28" fill="none" xmlns="http://www.w3.org/2000/svg" xmlns:xlink="http://www.w3.org/1999/xlink">
	<desc>
			Created with Pixso.
	</desc>
	<defs/>
	<rect id="Marshall Islands" width="28.000000" height="28.000000" fill="#FFFFFF" fill-opacity="0"/>
	<rect id="Rectangle 2317" x="0.250000" y="4.250000" rx="3.000000" width="27.500000" height="19.500000" stroke="#F5F5F5" stroke-opacity="1.000000" stroke-width="0.500000"/>
	<mask id="mask108034_1105" mask-type="alpha" maskUnits="userSpaceOnUse" x="0.000000" y="4.000000" width="28.000000" height="20.000000">
		<rect id="Rectangle 2319" y="4.000000" rx="3.000000" width="28.000000" height="20.000000" fill="#103A8E" fill-opacity="1.000000"/>
	</mask>
	<g mask="url(#mask108034_1105)">
		<path id="Subtract" d="M28 4L0 4L0 23.2424L28 10.4682L28 4ZM28 13.7502L0 23.6212L0 24L28 24L28 13.7502Z" clip-rule="evenodd" fill="#103A8E" fill-opacity="1.000000" fill-rule="evenodd"/>
	</g>
	<g mask="url(#mask108034_1105)">
		<path id="Union" d="M7.24481 9.21021L7.0152 4.90906L6.78555 9.21021L5.82306 6.5054L6.34192 9.32907L4.71216 6.96555L5.94415 9.55872L3.75821 7.69754L5.61938 9.88348L3.02621 8.65149L5.38974 10.2812L2.56607 9.76239L5.27087 10.7249L0.969727 10.9545L5.27087 11.1841L2.56607 12.1466L5.38974 11.6278L3.02621 13.2575L5.61938 12.0255L3.75821 14.2115L5.94415 12.3503L4.71216 14.9435L6.34192 12.58L5.82306 15.4036L6.78555 12.6988L7.0152 17L7.24481 12.6988L8.20731 15.4036L7.68845 12.58L9.31821 14.9435L8.08621 12.3503L10.2722 14.2115L8.41098 12.0255L11.0042 13.2575L8.64062 11.6278L11.4643 12.1466L8.75949 11.1841L13.0606 10.9545L8.75949 10.7249L11.4643 9.76239L8.64062 10.2812L11.0042 8.65149L8.41098 9.88348L10.2722 7.69754L8.08621 9.55872L9.31821 6.96555L7.68845 9.32907L8.20731 6.5054L7.24481 9.21021Z" clip-rule="evenodd" fill="#FFFFFF" fill-opacity="1.000000" fill-rule="evenodd"/>
	</g>
	<g mask="url(#mask108034_1105)">
		<path id="Vector 2" d="M0 23.09L28.87 6.45L28.87 10.24L0 23.24L0 23.09Z" fill="#D07A2C" fill-opacity="1.000000" fill-rule="evenodd"/>
	</g>
	<g mask="url(#mask108034_1105)">
		<path id="Vector 2" d="M0.7 22.92L28 10.5L28 14.5L1.03 23.25L0.87 23.12L0.7 22.92Z" fill="#FFFFFF" fill-opacity="1.000000" fill-rule="evenodd"/>
	</g>
</svg>
