<svg viewBox="0 0 28 28" xmlns="http://www.w3.org/2000/svg" xmlns:xlink="http://www.w3.org/1999/xlink" width="28.000000" height="28.000000" fill="none" customFrame="#000000">
	<defs>
		<filter id="pixso_custom_mask_type_alpha">
			<feColorMatrix type="matrix" values="0 0 0 0 1 0 0 0 0 1 0 0 0 0 1 0 0 0 1 0 " />
		</filter>
	</defs>
	<mask id="mask_455" width="28.000000" height="20.000000" x="0.000000" y="4.000000" maskUnits="userSpaceOnUse">
		<g filter="url(#pixso_custom_mask_type_alpha)">
			<rect id="Mask" width="28.000000" height="20.000000" x="0.000000" y="4.000000" rx="3.000000" fill="rgb(255,255,255)" />
			<rect id="Mask" width="28.000000" height="20.000000" x="0.000000" y="4.000000" rx="3.000000" stroke="rgb(150.96,150.96,150.96)" stroke-opacity="0" stroke-width="0" />
		</g>
	</mask>
	<rect id="Mauritius" width="28.000000" height="28.000000" x="0.000000" y="0.000000" fill="rgb(255,255,255)" fill-opacity="0" />
	<rect id="Mask" width="28.000000" height="20.000000" x="0.000000" y="4.000000" rx="3.000000" fill="rgb(255,255,255)" />
	<rect id="Mask" width="28.000000" height="20.000000" x="0.000000" y="4.000000" rx="3.000000" stroke="rgb(150.96,150.96,150.96)" stroke-opacity="0" stroke-width="0" />
	<g mask="url(#mask_455)">
		<path id="Rectangle 2" d="M0 24L28 24L28 20L0 20L0 24Z" fill="rgb(29,187,99)" fill-rule="evenodd" />
		<path id="Rectangle 2" d="M28 24L28 20L0 20L0 24L28 24Z" fill-rule="evenodd" stroke="rgb(150.96,150.96,150.96)" stroke-opacity="0" stroke-width="0" />
		<path id="Rectangle 2" d="M0 14.6666L28 14.6666L28 9.33331L0 9.33331L0 14.6666Z" fill="rgb(34,43,130)" fill-rule="evenodd" />
		<path id="Rectangle 2" d="M28 14.6666L28 9.33331L0 9.33331L0 14.6666L28 14.6666Z" fill-rule="evenodd" stroke="rgb(150.96,150.96,150.96)" stroke-opacity="0" stroke-width="0" />
		<path id="Rectangle 2" d="M0 20L28 20L28 14.6667L0 14.6667L0 20Z" fill="rgb(255,215,65)" fill-rule="evenodd" />
		<path id="Rectangle 2" d="M28 20L28 14.6667L0 14.6667L0 20L28 20Z" fill-rule="evenodd" stroke="rgb(150.96,150.96,150.96)" stroke-opacity="0" stroke-width="0" />
		<path id="Rectangle 2" d="M0 9.33333L28 9.33333L28 4L0 4L0 9.33333Z" fill="rgb(244,55,74)" fill-rule="evenodd" />
		<path id="Rectangle 2" d="M28 9.33333L28 4L0 4L0 9.33333L28 9.33333Z" fill-rule="evenodd" stroke="rgb(150.96,150.96,150.96)" stroke-opacity="0" stroke-width="0" />
	</g>
</svg>
