<svg viewBox="0 0 28 28" xmlns="http://www.w3.org/2000/svg" xmlns:xlink="http://www.w3.org/1999/xlink" width="28.000000" height="28.000000" fill="none" customFrame="#000000">
	<defs>
		<filter id="pixso_custom_mask_type_alpha">
			<feColorMatrix type="matrix" values="0 0 0 0 1 0 0 0 0 1 0 0 0 0 1 0 0 0 1 0 " />
		</filter>
	</defs>
	<mask id="mask_454" width="28.000000" height="20.000000" x="0.000000" y="4.000000" maskUnits="userSpaceOnUse">
		<g filter="url(#pixso_custom_mask_type_alpha)">
			<rect id="Mask" width="28.000000" height="20.000000" x="0.000000" y="4.000000" rx="3.000000" fill="rgb(255,255,255)" />
			<rect id="Mask" width="28.000000" height="20.000000" x="0.000000" y="4.000000" rx="3.000000" stroke="rgb(150.96,150.96,150.96)" stroke-opacity="0" stroke-width="0" />
		</g>
	</mask>
	<rect id="Mauritania" width="28.000000" height="28.000000" x="0.000000" y="0.000000" fill="rgb(255,255,255)" fill-opacity="0" />
	<rect id="Mask" width="28.000000" height="20.000000" x="0.000000" y="4.000000" rx="3.000000" fill="rgb(255,255,255)" />
	<rect id="Mask" width="28.000000" height="20.000000" x="0.000000" y="4.000000" rx="3.000000" stroke="rgb(150.96,150.96,150.96)" stroke-opacity="0" stroke-width="0" />
	<g mask="url(#mask_454)">
		<rect id="Mask Copy" width="28.000000" height="20.000000" x="0.000000" y="4.000000" fill="rgb(16,139,77)" />
		<rect id="Mask Copy" width="28.000000" height="20.000000" x="0.000000" y="4.000000" stroke="rgb(150.96,150.96,150.96)" stroke-opacity="0" stroke-width="0" />
		<path id="Star 8" d="M12.3519 13.739L14 12.5641L15.6481 13.739L15.04 11.8085L16.6667 10.6041L14.6428 10.5859L14 8.66669L13.3573 10.5859L11.3333 10.6041L12.96 11.8085L12.3519 13.739ZM19.8137 11.7334C19.8622 12.0408 19.8875 12.356 19.8875 12.6771C19.8875 15.9908 17.2012 18.6771 13.8875 18.6771C10.5737 18.6771 7.88745 15.9908 7.88745 12.6771C7.88745 12.356 7.91267 12.0408 7.96124 11.7334C8.41393 14.5987 10.8948 16.7896 13.8875 16.7896C16.8801 16.7896 19.361 14.5987 19.8137 11.7334Z" fill="rgb(255,201,65)" fill-rule="evenodd" />
		<path id="Star 8" d="M12.3519 13.739L14 12.5641L15.6481 13.739L15.04 11.8085L16.6667 10.6041L14.6428 10.5859L14 8.66669L13.3573 10.5859L11.3333 10.6041L12.96 11.8085L12.3519 13.739ZM19.8137 11.7334C19.8622 12.0408 19.8875 12.356 19.8875 12.6771C19.8875 15.9908 17.2012 18.6771 13.8875 18.6771C10.5737 18.6771 7.88745 15.9908 7.88745 12.6771C7.88745 12.356 7.91267 12.0408 7.96124 11.7334C8.41393 14.5987 10.8948 16.7896 13.8875 16.7896C16.8801 16.7896 19.361 14.5987 19.8137 11.7334Z" fill-rule="evenodd" stroke="rgb(150.96,150.96,150.96)" stroke-opacity="0" stroke-width="0" />
	</g>
</svg>
