<svg width="28.000000" height="28.000000" viewBox="0 0 28 28" fill="none" xmlns="http://www.w3.org/2000/svg" xmlns:xlink="http://www.w3.org/1999/xlink">
	<desc>
			Created with Pixso.
	</desc>
	<defs/>
	<rect id="Micronesia" width="28.000000" height="28.000000" fill="#FFFFFF" fill-opacity="0"/>
	<rect id="Mask" y="4.000000" rx="3.000000" width="28.000000" height="20.000000" fill="#FFFFFF" fill-opacity="1.000000"/>
	<rect id="Mask" y="4.000000" rx="3.000000" width="28.000000" height="20.000000" stroke="#979797" stroke-opacity="0" stroke-width="0.000000"/>
	<mask id="mask17_5063" mask-type="alpha" maskUnits="userSpaceOnUse" x="0.000000" y="4.000000" width="28.000000" height="20.000000">
		<rect id="Mask" y="4.000000" rx="3.000000" width="28.000000" height="20.000000" fill="#FFFFFF" fill-opacity="1.000000"/>
		<rect id="Mask" y="4.000000" rx="3.000000" width="28.000000" height="20.000000" stroke="#979797" stroke-opacity="0" stroke-width="0.000000"/>
	</mask>
	<g mask="url(#mask17_5063)">
		<rect id="Mask Copy" y="4.000000" width="28.000000" height="20.000000" fill="#95CEF5" fill-opacity="1.000000"/>
		<rect id="Mask Copy" y="4.000000" width="28.000000" height="20.000000" stroke="#979797" stroke-opacity="0" stroke-width="0.000000"/>
	</g>
	<g mask="url(#mask17_5063)">
		<mask id="mask_17_5065" fill="white">
			<path id="Star 33" d="M14 9.76001L12.4326 10.824L12.9602 9.00452L11.4638 7.84262L13.3573 7.78214L14 6L14.6426 7.78214L16.5361 7.84262L15.0398 9.00452L15.5674 10.824L14 9.76001ZM7.09921 16.1574L8.66664 15.0933L10.2341 16.1574L9.70647 14.3379L11.2028 13.176L9.3093 13.1155L8.66664 11.3333L8.024 13.1155L6.13049 13.176L7.62682 14.3379L7.09921 16.1574ZM19.3333 15.0933L17.7659 16.1574L18.2935 14.3379L16.7972 13.176L18.6907 13.1155L19.3333 11.3333L19.976 13.1155L21.8695 13.176L20.3731 14.3379L20.9007 16.1574L19.3333 15.0933ZM12.4326 21.4907L14 20.4267L15.5674 21.4907L15.0398 19.6712L16.5361 18.5093L14.6426 18.4488L14 16.6667L13.3573 18.4488L11.4638 18.5093L12.9602 19.6712L12.4326 21.4907Z" clip-rule="evenodd" fill="" fill-opacity="1.000000" fill-rule="evenodd"/>
		</mask>
		<path id="Star 33" d="M14 9.76001L12.4326 10.824L12.9602 9.00452L11.4638 7.84262L13.3573 7.78214L14 6L14.6426 7.78214L16.5361 7.84262L15.0398 9.00452L15.5674 10.824L14 9.76001ZM7.09921 16.1574L8.66664 15.0933L10.2341 16.1574L9.70647 14.3379L11.2028 13.176L9.3093 13.1155L8.66664 11.3333L8.024 13.1155L6.13049 13.176L7.62682 14.3379L7.09921 16.1574ZM19.3333 15.0933L17.7659 16.1574L18.2935 14.3379L16.7972 13.176L18.6907 13.1155L19.3333 11.3333L19.976 13.1155L21.8695 13.176L20.3731 14.3379L20.9007 16.1574L19.3333 15.0933ZM12.4326 21.4907L14 20.4267L15.5674 21.4907L15.0398 19.6712L16.5361 18.5093L14.6426 18.4488L14 16.6667L13.3573 18.4488L11.4638 18.5093L12.9602 19.6712L12.4326 21.4907Z" clip-rule="evenodd" fill="#FFFFFF" fill-opacity="1.000000" fill-rule="evenodd" mask="url(#mask_17_5065)"/>
		<path id="Star 33" d="" fill="#979797" fill-opacity="0.000000" fill-rule="nonzero"/>
	</g>
</svg>
