<svg width="28.000000" height="28.000000" viewBox="0 0 28 28" fill="none" xmlns="http://www.w3.org/2000/svg" xmlns:xlink="http://www.w3.org/1999/xlink">
	<desc>
			Created with Pixso.
	</desc>
	<defs>
		<linearGradient id="paint_linear_17_4975_0" x1="2.666626" y1="14.000000" x2="2.666626" y2="20.000000" gradientUnits="userSpaceOnUse">
			<stop stop-color="#F8D246"/>
			<stop offset="1.000000" stop-color="#F9CE2F"/>
		</linearGradient>
	</defs>
	<rect id="Mongolia" width="28.000000" height="28.000000" fill="#FFFFFF" fill-opacity="0"/>
	<rect id="Mask" y="4.000000" rx="3.000000" width="28.000000" height="20.000000" fill="#FFFFFF" fill-opacity="1.000000"/>
	<rect id="Mask" y="4.000000" rx="3.000000" width="28.000000" height="20.000000" stroke="#979797" stroke-opacity="0" stroke-width="0.000000"/>
	<mask id="mask17_4971" mask-type="alpha" maskUnits="userSpaceOnUse" x="0.000000" y="4.000000" width="28.000000" height="20.000000">
		<rect id="Mask" y="4.000000" rx="3.000000" width="28.000000" height="20.000000" fill="#FFFFFF" fill-opacity="1.000000"/>
		<rect id="Mask" y="4.000000" rx="3.000000" width="28.000000" height="20.000000" stroke="#979797" stroke-opacity="0" stroke-width="0.000000"/>
	</mask>
	<g mask="url(#mask17_4971)">
		<path id="Rectangle 2 Copy" d="M9.33 24L18.66 24L18.66 4L9.33 4L9.33 24Z" fill="#146BBC" fill-opacity="1.000000" fill-rule="evenodd"/>
		<path id="Rectangle 2 Copy" d="M18.66 24L18.66 4L9.33 4L9.33 24L18.66 24Z" stroke="#979797" stroke-opacity="0" stroke-width="0.000000"/>
	</g>
	<g mask="url(#mask17_4971)">
		<path id="Rectangle 2" d="M0 24L9.33 24L9.33 4L0 4L0 24Z" fill="#E43642" fill-opacity="1.000000" fill-rule="evenodd"/>
		<path id="Rectangle 2" d="M9.33 24L9.33 4L0 4L0 24L9.33 24Z" stroke="#979797" stroke-opacity="0" stroke-width="0.000000"/>
	</g>
	<g mask="url(#mask17_4971)">
		<path id="Rectangle 2" d="M18.66 24L28 24L28 4L18.66 4L18.66 24Z" fill="#E43642" fill-opacity="1.000000" fill-rule="evenodd"/>
		<path id="Rectangle 2" d="M28 24L28 4L18.66 4L18.66 24L28 24Z" stroke="#979797" stroke-opacity="0" stroke-width="0.000000"/>
	</g>
	<g mask="url(#mask17_4971)">
		<mask id="mask_17_4975" fill="white">
			<path id="Rectangle 1611" d="M3.99997 14.6667L4.66663 14L5.33328 14.6667L4.66663 14.6667L3.99997 14.6667ZM4.66663 16C4.29843 16 3.99997 15.7015 3.99997 15.3333C3.99997 14.9651 4.29843 14.6667 4.66663 14.6667C5.03482 14.6667 5.33328 14.9651 5.33328 15.3333C5.33328 15.7015 5.03482 16 4.66663 16ZM2.66663 16L3.99997 16L3.99997 20L2.66663 20L2.66663 16ZM3.99997 16L5.33328 16L4.66663 17.3333L3.99997 16ZM5.33328 16L6.66663 16L6.66663 20L5.33328 20L5.33328 16ZM4.66663 18.6667C4.29843 18.6667 3.99997 18.3682 3.99997 18C3.99997 17.6318 4.29843 17.3333 4.66663 17.3333C5.03482 17.3333 5.33328 17.6318 5.33328 18C5.33328 18.3682 5.03482 18.6667 4.66663 18.6667ZM3.99997 18.6667L5.33328 18.6667L4.66663 20L3.99997 18.6667Z" clip-rule="evenodd" fill="" fill-opacity="1.000000" fill-rule="evenodd"/>
		</mask>
		<path id="Rectangle 1611" d="M3.99997 14.6667L4.66663 14L5.33328 14.6667L4.66663 14.6667L3.99997 14.6667ZM4.66663 16C4.29843 16 3.99997 15.7015 3.99997 15.3333C3.99997 14.9651 4.29843 14.6667 4.66663 14.6667C5.03482 14.6667 5.33328 14.9651 5.33328 15.3333C5.33328 15.7015 5.03482 16 4.66663 16ZM2.66663 16L3.99997 16L3.99997 20L2.66663 20L2.66663 16ZM3.99997 16L5.33328 16L4.66663 17.3333L3.99997 16ZM5.33328 16L6.66663 16L6.66663 20L5.33328 20L5.33328 16ZM4.66663 18.6667C4.29843 18.6667 3.99997 18.3682 3.99997 18C3.99997 17.6318 4.29843 17.3333 4.66663 17.3333C5.03482 17.3333 5.33328 17.6318 5.33328 18C5.33328 18.3682 5.03482 18.6667 4.66663 18.6667ZM3.99997 18.6667L5.33328 18.6667L4.66663 20L3.99997 18.6667Z" clip-rule="evenodd" fill="url(#paint_linear_17_4975_0)" fill-opacity="1.000000" fill-rule="evenodd" mask="url(#mask_17_4975)"/>
		<path id="Rectangle 1611" d="" fill="#979797" fill-opacity="0.000000" fill-rule="nonzero"/>
	</g>
</svg>
