<svg viewBox="0 0 29.8022 28" xmlns="http://www.w3.org/2000/svg" xmlns:xlink="http://www.w3.org/1999/xlink" width="29.802170" height="28.000000" fill="none" customFrame="#000000">
	<mask id="mask_96" width="6.666667" height="9.333333" x="19.135544" y="9.333313" maskUnits="userSpaceOnUse">
		<g filter="url(#pixso_custom_mask_type_alpha)">
			<path id="Mask" d="M19.1355 14C19.1355 12.9062 19.1355 11.6131 19.1355 10.6658C19.1355 9.92942 19.7325 9.33331 20.4689 9.33331L24.4689 9.33331C25.2053 9.33331 25.8022 9.92942 25.8022 10.6658C25.8022 11.6131 25.8022 12.9062 25.8022 14C25.8022 17.3333 22.4689 18.6666 22.4689 18.6666C22.4689 18.6666 19.1355 17.3333 19.1355 14Z" fill="rgb(8,185,214)" fill-rule="evenodd" />
			<path id="Mask" d="M19.1355 10.6666C19.1355 9.93027 19.7325 9.33331 20.4689 9.33331L24.4689 9.33331C25.2053 9.33331 25.8022 9.93027 25.8022 10.6666C25.8022 11.6139 25.8022 12.9066 25.8022 14C25.8022 17.3333 22.4689 18.6666 22.4689 18.6666C22.4689 18.6666 19.1355 17.3333 19.1355 14C19.1355 12.9066 19.1355 11.6139 19.1355 10.6666Z" fill-rule="evenodd" stroke="rgb(150.96,150.96,150.96)" stroke-opacity="0" stroke-width="0.000000" />
		</g>
	</mask>
	<defs>
		<filter id="pixso_custom_mask_type_alpha">
			<feColorMatrix type="matrix" values="0 0 0 0 1 0 0 0 0 1 0 0 0 0 1 0 0 0 1 0 " />
		</filter>
	</defs>
	<mask id="mask_95" width="28.000000" height="20.000000" x="1.802170" y="4.000000" maskUnits="userSpaceOnUse">
		<g filter="url(#pixso_custom_mask_type_alpha)">
			<rect id="Mask" width="28.000000" height="20.000000" x="1.802170" y="4.000000" rx="3.000000" fill="rgb(255,255,255)" />
			<rect id="Mask" width="28.000000" height="20.000000" x="1.802170" y="4.000000" rx="3.000000" stroke="rgb(150.96,150.96,150.96)" stroke-opacity="0" stroke-width="0.000000" />
		</g>
	</mask>
	<rect id="Montserrat" width="28.000000" height="28.000000" x="1.802170" y="0.000000" fill="rgb(255,255,255)" fill-opacity="0" />
	<rect id="Mask" width="28.000000" height="20.000000" x="1.802170" y="4.000000" rx="3.000000" fill="rgb(255,255,255)" />
	<rect id="Mask" width="28.000000" height="20.000000" x="1.802170" y="4.000000" rx="3.000000" stroke="rgb(150.96,150.96,150.96)" stroke-opacity="0" stroke-width="0.000000" />
	<g mask="url(#mask_95)">
		<rect id="Mask Copy" width="28.000000" height="20.000000" x="1.802170" y="4.000000" fill="rgb(7,49,156)" />
		<rect id="Mask Copy" width="28.000000" height="20.000000" x="1.802170" y="4.000000" stroke="rgb(150.96,150.96,150.96)" stroke-opacity="0" stroke-width="0.000000" />
		<g id="Rectangle 1105">
			<path id="Mask" d="M19.1355 14C19.1355 12.9062 19.1355 11.6131 19.1355 10.6658C19.1355 9.92942 19.7325 9.33331 20.4689 9.33331L24.4689 9.33331C25.2053 9.33331 25.8022 9.92942 25.8022 10.6658C25.8022 11.6131 25.8022 12.9062 25.8022 14C25.8022 17.3333 22.4689 18.6666 22.4689 18.6666C22.4689 18.6666 19.1355 17.3333 19.1355 14Z" fill="rgb(8,185,214)" fill-rule="evenodd" />
			<path id="Mask" d="M19.1355 10.6666C19.1355 9.93027 19.7325 9.33331 20.4689 9.33331L24.4689 9.33331C25.2053 9.33331 25.8022 9.93027 25.8022 10.6666C25.8022 11.6139 25.8022 12.9066 25.8022 14C25.8022 17.3333 22.4689 18.6666 22.4689 18.6666C22.4689 18.6666 19.1355 17.3333 19.1355 14C19.1355 12.9066 19.1355 11.6139 19.1355 10.6666Z" fill-rule="evenodd" stroke="rgb(150.96,150.96,150.96)" stroke-opacity="0" stroke-width="0.000000" />
			<g mask="url(#mask_96)">
				<path id="Rectangle 1106" d="M19.1355 16L25.8022 16L25.8022 18.6667L23.1355 18.6667L21.8022 18.6667L19.1355 18.6667L19.1355 16Z" fill="rgb(166,61,9)" fill-rule="evenodd" />
				<path id="Rectangle 1106" d="M25.8022 16L25.8022 18.6667L23.1355 18.6667L21.8022 18.6667L19.1355 18.6667L19.1355 16L25.8022 16Z" fill-rule="evenodd" stroke="rgb(150.96,150.96,150.96)" stroke-opacity="0" stroke-width="0.000000" />
				<path id="Rectangle 1106" d="M23.1355 10.6667L21.8021 10.6667L21.8021 12L20.4688 12L20.4688 13.3334L21.8021 13.3334L21.8021 16L23.1355 16L23.1355 13.3334L24.4688 13.3334L24.4688 12L23.1355 12L23.1355 10.6667Z" fill="rgb(38,38,38)" fill-rule="evenodd" />
				<path id="Rectangle 1106" d="M23.1355 10.6667L21.8021 10.6667L21.8021 12L20.4688 12L20.4688 13.3334L21.8021 13.3334L21.8021 16L23.1355 16L23.1355 13.3334L24.4688 13.3334L24.4688 12L23.1355 12L23.1355 10.6667Z" fill-rule="evenodd" stroke="rgb(150.96,150.96,150.96)" stroke-opacity="0" stroke-width="0.000000" />
			</g>
		</g>
		<path id="Rectangle 36" d="M6.46884 8L1.80217 4L2.46884 4L7.1355 7.33333L8.46884 7.33333L13.8022 4L13.8022 4.49513C13.8022 4.60278 13.7502 4.7038 13.6626 4.76637L9.1355 8L9.1355 9.33333L13.3496 12.9455C13.5051 13.0787 13.4109 13.3333 13.2062 13.3333L13.2062 13.3333C13.1602 13.3333 13.1154 13.319 13.078 13.2923L8.46884 10L7.1355 10L1.80217 13.3333L1.80217 12.6667L6.46884 9.33333L6.46884 8Z" fill="rgb(219,30,54)" fill-rule="evenodd" />
		<path id="Rectangle 36" d="M2.68248 3.33333L-1.78814e-06 3.33333L5.80217 8.30662L5.80217 8.99026L1.1355 12.3236L1.1355 14.5362L7.3267 10.6667L8.25519 10.6667L12.6905 13.8348C12.7676 13.8898 12.8492 13.9311 12.9351 13.9587C13.021 13.9862 13.1114 14 13.2062 14C13.3096 14 13.4074 13.9839 13.4996 13.9518C13.5817 13.9232 13.6593 13.882 13.7325 13.828C13.8007 13.7777 13.8596 13.7203 13.9093 13.6558C13.9631 13.5858 14.0061 13.5074 14.0382 13.4206C14.0703 13.3339 14.0887 13.2464 14.0933 13.1582C14.0976 13.0769 14.0902 12.995 14.0712 12.9125C14.0508 12.8238 14.0187 12.742 13.975 12.6669C13.9259 12.5824 13.862 12.5066 13.7835 12.4393L9.80217 9.02671L9.80217 8.34308L14.0501 5.30886C14.1158 5.26194 14.1743 5.2088 14.2256 5.14944C14.2769 5.09008 14.3211 5.0245 14.358 4.95271C14.395 4.88091 14.4227 4.80688 14.4411 4.7306C14.4596 4.65435 14.4688 4.57586 14.4688 4.49513L14.4688 2.79717L8.27764 6.66667L7.34915 6.66667L2.68248 3.33333ZM7.1355 7.33333L4.6152 5.53312L2.46884 4L1.80217 4L2.21567 4.35443L2.46884 4.57143L4.20372 6.05847L6.46884 8L6.46884 9.33333L1.80217 12.6667L1.80217 13.3333L2.13139 13.1276L2.46884 12.9167L3.51132 12.2651L7.1355 10L8.46884 10L10.9891 11.8002L12.7622 13.0667L13.078 13.2923C13.1154 13.319 13.1602 13.3333 13.2062 13.3333C13.4109 13.3333 13.5051 13.0787 13.3496 12.9455L13.0551 12.693L11.4006 11.2749L9.1355 9.33333L9.1355 8L12.4638 5.62265L13.6626 4.76637C13.7502 4.7038 13.8022 4.60278 13.8022 4.49513L13.8022 4L13.1449 4.41077L13.1355 4.41667L12.093 5.06822L8.46884 7.33333L7.1355 7.33333Z" fill="rgb(255,255,255)" fill-rule="evenodd" />
		<path id="Rectangle 2" d="M1.80217 7.33333L1.80217 10L6.46884 10L6.46884 13.3333C6.46884 13.7015 6.76731 14 7.1355 14L8.46884 14C8.83703 14 9.1355 13.7015 9.1355 13.3333L9.1355 10L13.8022 10C14.1704 10 14.4688 9.70152 14.4688 9.33333L14.4688 8C14.4688 7.63181 14.1704 7.33333 13.8022 7.33333L9.1355 7.33333L9.1355 4L6.46884 4L6.46884 7.33333L1.80217 7.33333Z" fill="rgb(255,255,255)" fill-rule="evenodd" />
		<path id="Rectangle 2" d="M1.80217 10L6.46884 10L6.46884 13.3333C6.46884 13.7015 6.76731 14 7.1355 14L8.46884 14C8.83703 14 9.1355 13.7015 9.1355 13.3333L9.1355 10L13.8022 10C14.1704 10 14.4688 9.70152 14.4688 9.33333L14.4688 8C14.4688 7.63181 14.1704 7.33333 13.8022 7.33333L9.1355 7.33333L9.1355 4L6.46884 4L6.46884 7.33333L1.80217 7.33333L1.80217 10Z" fill-rule="evenodd" stroke="rgb(150.96,150.96,150.96)" stroke-opacity="0" stroke-width="0.000000" />
		<path id="Rectangle 36" d="M1.80217 8L7.1355 8L7.1355 7.33333L7.1355 4L8.46884 4L8.46884 7.33333L8.46884 8L13.8022 8L13.8022 9.33333L8.46884 9.33333L8.46884 10L8.46884 13.3333L7.1355 13.3333L7.1355 10L7.1355 9.33333L1.80217 9.33333L1.80217 8Z" fill="rgb(219,30,54)" fill-rule="evenodd" />
		<path id="Rectangle 36" d="M7.1355 8L7.1355 7.33333L7.1355 4L8.46884 4L8.46884 7.33333L8.46884 8L13.8022 8L13.8022 9.33333L8.46884 9.33333L8.46884 10L8.46884 13.3333L7.1355 13.3333L7.1355 10L7.1355 9.33333L1.80217 9.33333L1.80217 8L7.1355 8Z" fill-rule="evenodd" stroke="rgb(150.96,150.96,150.96)" stroke-opacity="0" stroke-width="0.000000" />
	</g>
</svg>
