<svg width="28.000000" height="28.000000" viewBox="0 0 28 28" fill="none" xmlns="http://www.w3.org/2000/svg" xmlns:xlink="http://www.w3.org/1999/xlink">
	<desc>
			Created with Pixso.
	</desc>
	<defs>
		<linearGradient id="paint_linear_17_4926_0" x1="8.000000" y1="8.000000" x2="8.000000" y2="20.000000" gradientUnits="userSpaceOnUse">
			<stop stop-color="#FFFFFF"/>
			<stop offset="1.000000" stop-color="#F0F0F0"/>
		</linearGradient>
	</defs>
	<rect id="Morocco" width="28.000000" height="28.000000" fill="#FFFFFF" fill-opacity="0"/>
	<rect id="Mask" y="4.000000" rx="3.000000" width="28.000000" height="20.000000" fill="#FFFFFF" fill-opacity="1.000000"/>
	<rect id="Mask" y="4.000000" rx="3.000000" width="28.000000" height="20.000000" stroke="#979797" stroke-opacity="0" stroke-width="0.000000"/>
	<mask id="mask17_4924" mask-type="alpha" maskUnits="userSpaceOnUse" x="0.000000" y="4.000000" width="28.000000" height="20.000000">
		<rect id="Mask" y="4.000000" rx="3.000000" width="28.000000" height="20.000000" fill="#FFFFFF" fill-opacity="1.000000"/>
		<rect id="Mask" y="4.000000" rx="3.000000" width="28.000000" height="20.000000" stroke="#979797" stroke-opacity="0" stroke-width="0.000000"/>
	</mask>
	<g mask="url(#mask17_4924)">
		<rect id="Mask Copy" y="4.000000" width="28.000000" height="20.000000" fill="#E33B44" fill-opacity="1.000000"/>
		<rect id="Mask Copy" y="4.000000" width="28.000000" height="20.000000" stroke="#979797" stroke-opacity="0" stroke-width="0.000000"/>
	</g>
	<g mask="url(#mask17_4924)">
		<path id="Star 8" d="M14 16.34L10.47 18.85L11.77 14.72L8.29 12.14L12.62 12.1L14 8L15.37 12.1L19.7 12.14L16.22 14.72L17.52 18.85L14 16.34Z" fill="url(#paint_linear_17_4926_0)" fill-opacity="0" fill-rule="evenodd"/>
		<path id="Star 8" d="M11.77 14.72L11.13 16.74L10.47 18.85L12.27 17.56L14 16.34L15.72 17.56L17.52 18.85L16.22 14.72L17.92 13.46L19.7 12.14L17.49 12.12L15.37 12.1L14.7 10.09L14 8L13.29 10.09L12.62 12.1L10.5 12.12L8.29 12.14L10.07 13.46L11.77 14.72ZM12.28 13.44L13.33 14.21L12.94 15.45L14 14.7L15.05 15.45L14.66 14.21L15.71 13.44L14.41 13.43L14 12.19L13.58 13.43L12.28 13.44Z" fill="#0A6135" fill-opacity="1.000000" fill-rule="evenodd"/>
	</g>
</svg>
