<svg width="28.000000" height="28.000000" viewBox="0 0 28 28" fill="none" xmlns="http://www.w3.org/2000/svg" xmlns:xlink="http://www.w3.org/1999/xlink">
	<desc>
			Created with Pixso.
	</desc>
	<defs/>
	<rect id="Mozambique" width="28.000000" height="28.000000" fill="#FFFFFF" fill-opacity="0"/>
	<rect id="Mask" y="4.000000" rx="3.000000" width="28.000000" height="20.000000" fill="#FFFFFF" fill-opacity="1.000000"/>
	<rect id="Mask" y="4.000000" rx="3.000000" width="28.000000" height="20.000000" stroke="#979797" stroke-opacity="0" stroke-width="0.000000"/>
	<mask id="mask17_5024" mask-type="alpha" maskUnits="userSpaceOnUse" x="0.000000" y="4.000000" width="28.000000" height="20.000000">
		<rect id="Mask" y="4.000000" rx="3.000000" width="28.000000" height="20.000000" fill="#FFFFFF" fill-opacity="1.000000"/>
		<rect id="Mask" y="4.000000" rx="3.000000" width="28.000000" height="20.000000" stroke="#979797" stroke-opacity="0" stroke-width="0.000000"/>
	</mask>
	<g mask="url(#mask17_5024)">
		<path id="Rectangle 2" d="M0 24L28 24L28 18.66L0 18.66L0 24Z" fill="#FFE547" fill-opacity="1.000000" fill-rule="evenodd"/>
		<path id="Rectangle 2" d="M28 24L28 18.66L0 18.66L0 24L28 24Z" stroke="#979797" stroke-opacity="0" stroke-width="0.000000"/>
	</g>
	<g mask="url(#mask17_5024)">
		<path id="Rectangle 2" d="M0 9.33L28 9.33L28 4L0 4L0 9.33Z" fill="#118C81" fill-opacity="1.000000" fill-rule="evenodd"/>
		<path id="Rectangle 2" d="M28 9.33L28 4L0 4L0 9.33L28 9.33Z" stroke="#979797" stroke-opacity="0" stroke-width="0.000000"/>
	</g>
	<g mask="url(#mask17_5024)">
		<path id="Rectangle 2" d="M0 18.66L28 18.66L28 9.33L0 9.33L0 18.66Z" fill="#FFFFFF" fill-opacity="1.000000" fill-rule="evenodd"/>
		<path id="Rectangle 2" d="M28 18.66L28 9.33L0 9.33L0 18.66L28 18.66Z" stroke="#979797" stroke-opacity="0" stroke-width="0.000000"/>
	</g>
	<g mask="url(#mask17_5024)">
		<path id="Rectangle 2" d="M0 17.33L28 17.33L28 10.66L0 10.66L0 17.33Z" fill="#262626" fill-opacity="1.000000" fill-rule="evenodd"/>
		<path id="Rectangle 2" d="M28 17.33L28 10.66L0 10.66L0 17.33L28 17.33Z" stroke="#979797" stroke-opacity="0" stroke-width="0.000000"/>
	</g>
	<g mask="url(#mask17_5024)">
		<path id="Rectangle 83" d="M0 4L13.33 14L0 24L0 4Z" fill="#EF2147" fill-opacity="1.000000" fill-rule="evenodd"/>
		<path id="Rectangle 83" d="M13.33 14L0 24L0 4L13.33 14Z" stroke="#979797" stroke-opacity="0" stroke-width="0.000000"/>
	</g>
	<g mask="url(#mask17_5024)">
		<path id="Star 27" d="M4.66 15.27L2.7 16.69L3.45 14.39L1.49 12.97L3.91 12.96L4.66 10.66L5.41 12.96L7.83 12.97L5.87 14.39L6.62 16.69L4.66 15.27Z" fill="#FDE444" fill-opacity="1.000000" fill-rule="evenodd"/>
		<path id="Star 27" d="M2.7 16.69L3.45 14.39L1.49 12.97L3.91 12.96L4.66 10.66L5.41 12.96L7.83 12.97L5.87 14.39L6.62 16.69L4.66 15.27L2.7 16.69Z" stroke="#979797" stroke-opacity="0" stroke-width="0.000000"/>
	</g>
</svg>
