<svg viewBox="0 0 36.324 28" xmlns="http://www.w3.org/2000/svg" xmlns:xlink="http://www.w3.org/1999/xlink" width="36.323975" height="28.000000" fill="none" customFrame="#000000">
	<defs>
		<filter id="pixso_custom_mask_type_alpha">
			<feColorMatrix type="matrix" values="0 0 0 0 1 0 0 0 0 1 0 0 0 0 1 0 0 0 1 0 " />
		</filter>
	</defs>
	<mask id="mask_89" width="28.000000" height="20.000000" x="4.161987" y="4.000000" maskUnits="userSpaceOnUse">
		<g filter="url(#pixso_custom_mask_type_alpha)">
			<rect id="Mask" width="28.000000" height="20.000000" x="4.161987" y="4.000000" rx="3.000000" fill="rgb(255,255,255)" />
			<rect id="Mask" width="28.000000" height="20.000000" x="4.161987" y="4.000000" rx="3.000000" stroke="rgb(150.96,150.96,150.96)" stroke-opacity="0" stroke-width="0.000000" />
		</g>
	</mask>
	<rect id="Namibia" width="28.000000" height="28.000000" x="4.161987" y="0.000000" fill="rgb(255,255,255)" fill-opacity="0" />
	<rect id="Mask" width="28.000000" height="20.000000" x="4.161987" y="4.000000" rx="3.000000" fill="rgb(255,255,255)" />
	<rect id="Mask" width="28.000000" height="20.000000" x="4.161987" y="4.000000" rx="3.000000" stroke="rgb(150.96,150.96,150.96)" stroke-opacity="0" stroke-width="0.000000" />
	<g mask="url(#mask_89)">
		<path id="Rectangle 2" d="M4.16199 17.3333L32.162 4L4.16199 4L4.16199 17.3333Z" fill="rgb(12,71,153)" fill-rule="evenodd" />
		<path id="Rectangle 2" d="M32.162 4L4.16199 4L4.16199 17.3333L32.162 4Z" fill-rule="evenodd" stroke="rgb(150.96,150.96,150.96)" stroke-opacity="0" stroke-width="0.000000" />
		<path id="Star 31" d="M8.82865 10L7.80816 11.1303L7.88585 9.60948L6.36497 9.68716L7.49532 8.66667L6.36497 7.64618L7.88585 7.72386L7.80816 6.20299L8.82865 7.33333L9.84914 6.20299L9.77146 7.72386L11.2923 7.64618L10.162 8.66667L11.2923 9.68716L9.77146 9.60948L9.84914 11.1303L8.82865 10Z" fill="rgb(255,210,67)" fill-rule="evenodd" />
		<path id="Star 31" d="M7.80816 11.1303L7.88585 9.60948L6.36497 9.68716L7.49532 8.66667L6.36497 7.64618L7.88585 7.72386L7.80816 6.20299L8.82865 7.33333L9.84914 6.20299L9.77146 7.72386L11.2923 7.64618L10.162 8.66667L11.2923 9.68716L9.77146 9.60948L9.84914 11.1303L8.82865 10L7.80816 11.1303Z" fill-rule="evenodd" stroke="rgb(150.96,150.96,150.96)" stroke-opacity="0" stroke-width="0.000000" />
		<path id="Rectangle 2" d="M4.16199 24L32.162 24L32.162 10.6667L4.16199 24Z" fill="rgb(27,172,85)" fill-rule="evenodd" />
		<path id="Rectangle 2" d="M32.162 24L32.162 10.6667L4.16199 24L32.162 24Z" fill-rule="evenodd" stroke="rgb(150.96,150.96,150.96)" stroke-opacity="0" stroke-width="0.000000" />
		<path id="Rectangle 2" d="M7.24438 26.6667L34.3327 9.74004L29.0796 1.33331L1.99127 18.26L7.24438 26.6667Z" fill="rgb(255,255,255)" fill-rule="evenodd" />
		<path id="Rectangle 2" d="M34.3327 9.74004L29.0796 1.33331L1.99127 18.26L7.24438 26.6667L34.3327 9.74004Z" fill-rule="evenodd" stroke="rgb(150.96,150.96,150.96)" stroke-opacity="0" stroke-width="0.000000" />
		<path id="Rectangle 2" d="M3.5328 27.0719L36.324 6.58169L32.7912 0.92804L0 21.4183L3.5328 27.0719Z" fill="rgb(229,35,71)" fill-rule="evenodd" />
		<path id="Rectangle 2" d="M36.324 6.58169L32.7912 0.92804L0 21.4183L3.5328 27.0719L36.324 6.58169Z" fill-rule="evenodd" stroke="rgb(150.96,150.96,150.96)" stroke-opacity="0" stroke-width="0.000000" />
	</g>
</svg>
