<svg viewBox="0 0 28 28" xmlns="http://www.w3.org/2000/svg" xmlns:xlink="http://www.w3.org/1999/xlink" width="28.000000" height="28.000000" fill="none" customFrame="#000000" mask="url(#mask_293)">
	<defs>
		<filter id="pixso_custom_mask_type_alpha">
			<feColorMatrix type="matrix" values="0 0 0 0 1 0 0 0 0 1 0 0 0 0 1 0 0 0 1 0 " />
		</filter>
	</defs>
	<mask id="mask_293" width="28.000000" height="20.000000" x="0.000000" y="4.000000" maskUnits="userSpaceOnUse">
		<g filter="url(#pixso_custom_mask_type_alpha)">
			<rect id="Rectangle 2320" width="28.000000" height="20.000000" x="0.000000" y="4.000000" rx="3.000000" fill="rgb(10,45,122)" />
		</g>
	</mask>
	<rect id="Nauru" width="28.000000" height="28.000000" x="0.000000" y="0.000000" fill="rgb(255,255,255)" fill-opacity="0" />
	<rect id="Rectangle 2322" width="28.000000" height="20.000000" x="0.000000" y="4.000000" fill="rgb(10,45,122)" />
	<rect id="Rectangle 2321" width="28.000000" height="1.870000" x="0.000000" y="13.000000" fill="rgb(247,199,75)" />
	<path id="Star 101" d="M8.41937 16.608L9.6535 15.3092L9.14581 17.0274L10.864 16.5197L9.56521 17.7538L11.307 18.1732L9.56521 18.5926L10.864 19.8268L9.14581 19.3191L9.6535 21.0373L8.41937 19.7385L7.99996 21.4803L7.58055 19.7385L6.34641 21.0373L6.85411 19.3191L5.13594 19.8268L6.4347 18.5926L4.69287 18.1732L6.4347 17.7538L5.13594 16.5197L6.85411 17.0274L6.34642 15.3092L7.58055 16.608L7.99996 14.8661L8.41937 16.608Z" fill="rgb(255,255,255)" fill-rule="evenodd" />
</svg>
