<svg width="28.000000" height="28.000000" viewBox="0 0 28 28" fill="none" xmlns="http://www.w3.org/2000/svg" xmlns:xlink="http://www.w3.org/1999/xlink">
	<desc>
			Created with Pixso.
	</desc>
	<defs/>
	<rect id="Nauru" width="28.000000" height="28.000000" fill="#FFFFFF" fill-opacity="0"/>
	<mask id="mask107628_1877" mask-type="alpha" maskUnits="userSpaceOnUse" x="0.000000" y="4.000000" width="28.000000" height="20.000000">
		<rect id="Rectangle 2320" y="4.000000" rx="3.000000" width="28.000000" height="20.000000" fill="#0A2D7A" fill-opacity="1.000000"/>
	</mask>
	<g mask="url(#mask107628_1877)">
		<rect id="Rectangle 2322" y="4.000000" width="28.000000" height="20.000000" fill="#0A2D7A" fill-opacity="1.000000"/>
	</g>
	<g mask="url(#mask107628_1877)">
		<rect id="Rectangle 2321" y="13.000000" width="28.000000" height="1.870000" fill="#F7C74B" fill-opacity="1.000000"/>
	</g>
	<g mask="url(#mask107628_1877)">
		<path id="Star 101" d="M7.99 14.86L7.58 16.6L6.34 15.3L6.85 17.02L5.13 16.51L6.43 17.75L4.69 18.17L6.43 18.59L5.13 19.82L6.85 19.31L6.34 21.03L7.58 19.73L7.99 21.48L8.41 19.73L9.65 21.03L9.14 19.31L10.86 19.82L9.56 18.59L11.3 18.17L9.56 17.75L10.86 16.51L9.14 17.02L9.65 15.3L8.41 16.6L7.99 14.86Z" fill="#FFFFFF" fill-opacity="1.000000" fill-rule="evenodd"/>
	</g>
</svg>
