<svg width="28.000000" height="28.000000" viewBox="0 0 28 28" fill="none" xmlns="http://www.w3.org/2000/svg" xmlns:xlink="http://www.w3.org/1999/xlink">
	<desc>
			Created with Pixso.
	</desc>
	<defs/>
	<rect id="Netherlands Antilles Country" width="28.000000" height="28.000000" fill="#FFFFFF" fill-opacity="0"/>
	<rect id="Mask" y="4.000000" rx="3.000000" width="28.000000" height="20.000000" fill="#FFFFFF" fill-opacity="1.000000"/>
	<rect id="Mask" x="0.250000" y="4.250000" rx="3.000000" width="27.500000" height="19.500000" stroke="#D6D8DD" stroke-opacity="1.000000" stroke-width="0.500000"/>
	<mask id="mask17_6283" mask-type="alpha" maskUnits="userSpaceOnUse" x="0.000000" y="4.000000" width="28.000000" height="20.000000">
		<rect id="Mask" y="4.000000" rx="3.000000" width="28.000000" height="20.000000" fill="#FFFFFF" fill-opacity="1.000000"/>
		<rect id="Mask" x="0.250000" y="4.250000" rx="3.000000" width="27.500000" height="19.500000" stroke="#F5F5F5" stroke-opacity="1.000000" stroke-width="0.500000"/>
	</mask>
	<g mask="url(#mask17_6283)">
		<rect id="Mask" x="10.666687" y="4.000000" width="6.666667" height="20.000000" fill="#D6182D" fill-opacity="1.000000"/>
		<rect id="Mask" x="10.666687" y="4.000000" width="6.666667" height="20.000000" stroke="#979797" stroke-opacity="0" stroke-width="0.000000"/>
	</g>
	<g mask="url(#mask17_6283)">
		<rect id="Mask" y="10.666687" width="28.000000" height="6.666667" fill="#1425A2" fill-opacity="1.000000"/>
		<rect id="Mask" y="10.666687" width="28.000000" height="6.666667" stroke="#979797" stroke-opacity="0" stroke-width="0.000000"/>
	</g>
	<g mask="url(#mask17_6283)">
		<path id="Star 2" d="M11.33 15.66L10.86 15.8L11 15.33L10.86 14.86L11.33 15L11.8 14.86L11.66 15.33L11.8 15.8L11.33 15.66Z" fill="#FFFFFF" fill-opacity="1.000000" fill-rule="evenodd"/>
		<path id="Star 2" d="M10.86 15.8L11 15.33L10.86 14.86L11.33 15L11.8 14.86L11.66 15.33L11.8 15.8L11.33 15.66L10.86 15.8Z" stroke="#979797" stroke-opacity="0" stroke-width="0.000000"/>
	</g>
	<g mask="url(#mask17_6283)">
		<path id="Star 2" d="M16.66 15.66L16.19 15.8L16.33 15.33L16.19 14.86L16.66 15L17.13 14.86L17 15.33L17.13 15.8L16.66 15.66Z" fill="#FFFFFF" fill-opacity="1.000000" fill-rule="evenodd"/>
		<path id="Star 2" d="M16.19 15.8L16.33 15.33L16.19 14.86L16.66 15L17.13 14.86L17 15.33L17.13 15.8L16.66 15.66L16.19 15.8Z" stroke="#979797" stroke-opacity="0" stroke-width="0.000000"/>
	</g>
	<g mask="url(#mask17_6283)">
		<path id="Star 2" d="M8.66 14.33L8.19 14.47L8.33 14L8.19 13.52L8.66 13.66L9.13 13.52L9 14L9.13 14.47L8.66 14.33Z" fill="#FFFFFF" fill-opacity="1.000000" fill-rule="evenodd"/>
		<path id="Star 2" d="M8.19 14.47L8.33 14L8.19 13.52L8.66 13.66L9.13 13.52L9 14L9.13 14.47L8.66 14.33L8.19 14.47Z" stroke="#979797" stroke-opacity="0" stroke-width="0.000000"/>
	</g>
	<g mask="url(#mask17_6283)">
		<path id="Star 2" d="M19.33 14.33L18.86 14.47L19 14L18.86 13.52L19.33 13.66L19.8 13.52L19.66 14L19.8 14.47L19.33 14.33Z" fill="#FFFFFF" fill-opacity="1.000000" fill-rule="evenodd"/>
		<path id="Star 2" d="M18.86 14.47L19 14L18.86 13.52L19.33 13.66L19.8 13.52L19.66 14L19.8 14.47L19.33 14.33L18.86 14.47Z" stroke="#979797" stroke-opacity="0" stroke-width="0.000000"/>
	</g>
	<g mask="url(#mask17_6283)">
		<path id="Star 2" d="M14 13L13.52 13.13L13.66 12.66L13.52 12.19L14 12.33L14.47 12.19L14.33 12.66L14.47 13.13L14 13Z" fill="#FFFFFF" fill-opacity="1.000000" fill-rule="evenodd"/>
		<path id="Star 2" d="M13.52 13.13L13.66 12.66L13.52 12.19L14 12.33L14.47 12.19L14.33 12.66L14.47 13.13L14 13L13.52 13.13Z" stroke="#979797" stroke-opacity="0" stroke-width="0.000000"/>
	</g>
</svg>
