<svg width="28.000000" height="28.000000" viewBox="0 0 28 28" fill="none" xmlns="http://www.w3.org/2000/svg" xmlns:xlink="http://www.w3.org/1999/xlink">
	<desc>
			Created with Pixso.
	</desc>
	<defs>
		<clipPath id="clip107628_800">
			<rect id="New Caledonia" width="28.000000" height="28.000000" fill="white" fill-opacity="0"/>
		</clipPath>
	</defs>
	<g>
		<mask id="mask107628_791" mask-type="alpha" maskUnits="userSpaceOnUse" x="0.000000" y="3.994934" width="28.000000" height="20.000000">
			<rect id="Rectangle 2323" y="3.994934" rx="3.000000" width="28.000000" height="20.000000" fill="#C4C4C4" fill-opacity="1.000000"/>
		</mask>
		<g mask="url(#mask107628_791)">
			<rect id="Rectangle 2324" y="3.994934" width="28.000000" height="6.670000" fill="#0D39A6" fill-opacity="1.000000"/>
		</g>
		<g mask="url(#mask107628_791)">
			<rect id="Rectangle 2325" y="10.664856" width="28.000000" height="6.670000" fill="#DB4F40" fill-opacity="1.000000"/>
		</g>
		<g mask="url(#mask107628_791)">
			<rect id="Rectangle 2326" y="17.335022" width="28.000000" height="6.670000" fill="#41924C" fill-opacity="1.000000"/>
		</g>
		<g mask="url(#mask107628_791)">
			<circle id="Ellipse 7" cx="10.954956" cy="13.994934" r="6.000000" fill="#F7E54D" fill-opacity="1.000000"/>
			<circle id="Ellipse 7" cx="10.954956" cy="13.994934" r="5.808649" stroke="#000000" stroke-opacity="1.000000" stroke-width="0.382703"/>
		</g>
		<g mask="url(#mask107628_791)">
			<path id="Vector" d="M10.71 8.31L11.19 8.31L11.19 9.38C11.51 9.2 11.78 9.01 11.91 8.91C11.82 9.19 11.59 9.69 11.19 10.09L11.19 11.07C11.51 11.17 11.75 11.47 11.75 11.83C11.75 12.19 11.51 12.49 11.19 12.59L11.19 12.75C11.35 12.75 11.71 12.64 11.87 12.19C12.03 11.74 12.23 11.6 12.31 11.59C12.26 11.71 12.19 11.91 12.15 12.19C12.09 12.63 12.08 12.81 11.87 12.95C11.75 13.03 11.67 13.15 11.19 13.15L11.19 13.19L11.91 13.19L11.91 13.59L11.19 13.59L11.19 13.61C11.51 13.68 11.75 13.88 11.75 14.11C11.75 14.34 11.51 14.54 11.19 14.61L11.19 14.63L11.91 14.63L11.91 15.03L11.19 15.03L11.19 15.11C11.67 15.11 11.75 15.23 11.87 15.31C12.08 15.45 12.09 15.91 12.15 16.35C12.19 16.63 12.26 17.07 12.31 17.19C12.23 17.18 12.03 16.84 11.87 16.39C11.71 15.94 11.35 15.67 11.19 15.67L11.19 15.74C11.42 15.89 11.59 16.25 11.59 16.67C11.59 17.09 11.42 17.45 11.19 17.6L11.19 17.92C11.42 17.94 11.64 17.99 11.85 18.07L12.95 19.35C12.95 19.35 12.27 19.87 10.95 19.87C9.63 19.87 8.95 19.35 8.95 19.35L10.05 18.07C10.26 17.99 10.48 17.94 10.71 17.92L10.71 17.6C10.48 17.45 10.31 17.09 10.31 16.67C10.31 16.25 10.48 15.89 10.71 15.74L10.71 15.67C10.55 15.67 10.19 15.94 10.03 16.39C9.87 16.84 9.67 17.18 9.59 17.19C9.64 17.07 9.71 16.63 9.75 16.35C9.81 15.91 9.82 15.45 10.03 15.31C10.15 15.23 10.23 15.11 10.71 15.11L10.71 15.03L9.99 15.03L9.99 14.63L10.71 14.63L10.71 14.61C10.39 14.54 10.15 14.34 10.15 14.11C10.15 13.88 10.39 13.68 10.71 13.61L10.71 13.59L9.99 13.59L9.99 13.19L10.71 13.19L10.71 13.15C10.23 13.15 10.15 13.03 10.03 12.95C9.82 12.81 9.81 12.63 9.75 12.19C9.71 11.91 9.64 11.71 9.59 11.59C9.67 11.6 9.87 11.74 10.03 12.19C10.19 12.64 10.55 12.75 10.71 12.75L10.71 12.59C10.39 12.49 10.15 12.19 10.15 11.83C10.15 11.47 10.39 11.17 10.71 11.07L10.71 10.45C10.61 10.51 10.5 10.55 10.39 10.59L10.11 10.71C10.1 10.65 10.09 10.58 10.09 10.5C10.09 10.19 10.2 9.78 10.63 9.63C10.66 9.62 10.68 9.61 10.71 9.6L10.71 8.31Z" fill="#000000" fill-opacity="1.000000" fill-rule="evenodd"/>
		</g>
	</g>
</svg>
