<svg width="28.000000" height="28.000000" viewBox="0 0 28 28" fill="none" xmlns="http://www.w3.org/2000/svg" xmlns:xlink="http://www.w3.org/1999/xlink">
	<desc>
			Created with Pixso.
	</desc>
	<defs>
		<clipPath id="clip136805_819">
			<rect id="Northern Mariana Islands" width="28.000000" height="28.000000" transform="translate(28.000000 28.000000) rotate(180.000000)" fill="white" fill-opacity="0"/>
		</clipPath>
	</defs>
	<rect id="Northern Mariana Islands" width="28.000000" height="28.000000" transform="translate(28.000000 28.000000) rotate(180.000000)" fill="#FFFFFF" fill-opacity="0"/>
	<g>
		<rect id="Mask Copy" y="4.000000" rx="3.000000" width="28.000000" height="20.000000" fill="#0033A1" fill-opacity="1.000000"/>
		<path id="Ellipse 2971" d="M7.94 18.99C8.36 18.56 8.92 18.43 9.18 18.69C9.44 18.96 9.58 19.77 8.89 19.93C8.2 20.1 7.14 21.25 6.88 20.99C6.62 20.73 7.52 19.41 7.94 18.99Z" fill="#E255AE" fill-opacity="1.000000" fill-rule="nonzero"/>
		<path id="Ellipse 2974" d="M18.96 19.88C18.54 19.46 18.41 18.91 18.67 18.64C18.93 18.38 19.74 18.25 19.91 18.94C20.07 19.63 21.23 20.68 20.97 20.94C20.7 21.2 19.38 20.31 18.96 19.88Z" fill="#E255AE" fill-opacity="1.000000" fill-rule="nonzero"/>
		<circle id="Ellipse 2963" cx="13.999756" cy="13.999756" r="8.147705" fill="#D9D9D9" fill-opacity="0"/>
		<circle id="Ellipse 2963" cx="13.999756" cy="13.999756" r="6.647705" stroke="#FFFFFF" stroke-opacity="1.000000" stroke-width="3.000000"/>
		<circle id="Ellipse 2965" cx="13.999756" cy="13.998718" r="6.884278" fill="#D9D9D9" fill-opacity="0"/>
		<circle id="Ellipse 2965" cx="13.999756" cy="13.998718" r="6.634278" stroke="#F87D6E" stroke-opacity="1.000000" stroke-width="0.500000"/>
		<path id="Ellipse 2964" d="M16.85 10.99C16.61 12.35 15.42 13.39 14 13.39C12.57 13.39 11.38 12.35 11.14 10.99C11.1 10.72 11.32 10.49 11.6 10.49L16.39 10.49C16.67 10.49 16.89 10.72 16.85 10.99Z" fill="#D9D9D9" fill-opacity="1.000000" fill-rule="evenodd"/>
		<path id="Rectangle 240649371" d="M13.25 12.87L14.74 12.87C15 12.87 15.21 13.06 15.24 13.32L16.2 21.59C16.23 21.88 16 22.14 15.7 22.14L12.29 22.14C11.99 22.14 11.76 21.88 11.79 21.59L12.75 13.32C12.78 13.06 12.99 12.87 13.25 12.87Z" fill="#D9D9D9" fill-opacity="1.000000" fill-rule="nonzero"/>
		<path id="Star 36" d="M13.99 12.38L13.22 14.75L10.73 14.75L12.75 16.22L11.98 18.59L13.99 17.13L16.01 18.59L15.24 16.22L17.26 14.75L14.77 14.75L13.99 12.38Z" fill="#FFFFFF" fill-opacity="1.000000" fill-rule="nonzero"/>
		<path id="Star 36" d="M13.99 12.38L13.22 14.75L10.73 14.75L12.75 16.22L11.98 18.59L13.99 17.13L16.01 18.59L15.24 16.22L17.26 14.75L14.77 14.75L13.99 12.38ZM13.99 11.41L13.01 14.45L9.81 14.45L12.4 16.33L11.41 19.38L13.99 17.5L16.58 19.38L15.59 16.33L18.18 14.45L14.98 14.45L13.99 11.41Z" fill="#000000" fill-opacity="1.000000" fill-rule="evenodd"/>
		<path id="Ellipse 2968" d="M6.55 13.51C7.15 13.44 7.67 13.69 7.71 14.05C7.75 14.42 7.35 15.14 6.71 14.84C6.07 14.54 4.52 14.79 4.48 14.43C4.44 14.06 5.96 13.58 6.55 13.51Z" fill="#E255AE" fill-opacity="1.000000" fill-rule="nonzero"/>
		<path id="Ellipse 2969" d="M8.96 8.92C9.39 9.34 9.52 9.9 9.26 10.16C8.99 10.42 8.18 10.55 8.02 9.86C7.85 9.18 6.7 8.12 6.96 7.86C7.22 7.6 8.54 8.49 8.96 8.92Z" fill="#E255AE" fill-opacity="1.000000" fill-rule="nonzero"/>
		<path id="Ellipse 2972" d="M21.01 10.58C20.59 11 20.03 11.13 19.77 10.87C19.51 10.61 19.37 9.79 20.06 9.63C20.75 9.47 21.8 8.31 22.07 8.57C22.33 8.83 21.43 10.16 21.01 10.58Z" fill="#E255AE" fill-opacity="1.000000" fill-rule="nonzero"/>
		<path id="Ellipse 2973" d="M21.28 15.44C20.68 15.44 20.19 15.14 20.19 14.77C20.19 14.4 20.67 13.73 21.28 14.1C21.88 14.48 23.44 14.4 23.44 14.77C23.44 15.14 21.87 15.44 21.28 15.44Z" fill="#E255AE" fill-opacity="1.000000" fill-rule="nonzero"/>
		<path id="Ellipse 2970" d="M14.72 6.94C14.72 7.54 14.42 8.02 14.05 8.02C13.68 8.02 13.01 7.54 13.38 6.94C13.75 6.34 13.68 4.77 14.05 4.77C14.42 4.77 14.72 6.34 14.72 6.94Z" fill="#E255AE" fill-opacity="1.000000" fill-rule="nonzero"/>
	</g>
</svg>
