<svg width="28" height="28" viewBox="0 0 28 28" fill="none" xmlns="http://www.w3.org/2000/svg">
<rect y="4" width="28" height="20" rx="3" fill="#0033A1"/>
<path d="M7.94432 18.9916C8.3673 18.5687 8.92226 18.4378 9.18385 18.6994C9.44545 18.961 9.58083 19.7761 8.89163 19.939C8.20243 20.1018 7.14785 21.2586 6.88625 20.997C6.62466 20.7354 7.52133 19.4146 7.94432 18.9916Z" fill="#E255AE"/>
<path d="M18.9648 19.8888C18.5418 19.4658 18.411 18.9108 18.6726 18.6492C18.9342 18.3876 19.7492 18.2523 19.9121 18.9415C20.0749 19.6307 21.2317 20.6852 20.9702 20.9468C20.7086 21.2084 19.3878 20.3117 18.9648 19.8888Z" fill="#E255AE"/>
<circle cx="13.9998" cy="13.9998" r="6.64771" stroke="white" stroke-width="3"/>
<circle cx="13.9998" cy="13.9987" r="6.63428" stroke="#F87D6E" stroke-width="0.5"/>
<path d="M14 13.393C15.4291 13.393 16.6164 12.3575 16.8523 10.9958C16.8995 10.7237 16.6711 10.498 16.395 10.498H11.605C11.3288 10.498 11.1005 10.7237 11.1476 10.9958C11.3836 12.3575 12.5708 13.393 14 13.393Z" fill="#D9D9D9"/>
<path d="M12.7542 13.3218C12.7835 13.0697 12.997 12.8794 13.2509 12.8794H14.749C15.0028 12.8794 15.2164 13.0697 15.2457 13.3218L16.2047 21.5909C16.2391 21.8879 16.007 22.1485 15.708 22.1485H12.2919C11.9929 22.1485 11.7608 21.8879 11.7952 21.5909L12.7542 13.3218Z" fill="#D9D9D9"/>
<path d="M14.1426 12.3427L13.9999 11.9036L13.8573 12.3427L13.1207 14.6096H10.7371H10.2755L10.649 14.881L12.5773 16.282L11.8408 18.5489L11.6981 18.988L12.0716 18.7166L13.9999 17.3156L15.9283 18.7166L16.3018 18.988L16.1591 18.5489L15.4226 16.282L17.3509 14.881L17.7244 14.6096H17.2628H14.8792L14.1426 12.3427Z" fill="white" stroke="black" stroke-width="0.3"/>
<path d="M6.55967 13.5173C7.15389 13.4486 7.67006 13.6908 7.71256 14.0583C7.75505 14.4258 7.35482 15.1487 6.71356 14.8482C6.07231 14.5477 4.52727 14.7991 4.48477 14.4316C4.44228 14.0641 5.96544 13.586 6.55967 13.5173Z" fill="#E255AE"/>
<path d="M8.96857 8.92251C9.39155 9.34549 9.52238 9.90045 9.26078 10.162C8.99919 10.4236 8.1841 10.559 8.02125 9.86983C7.8584 9.18063 6.70159 8.12604 6.96319 7.86445C7.22478 7.60286 8.54558 8.49953 8.96857 8.92251Z" fill="#E255AE"/>
<path d="M21.013 10.5833C20.5901 11.0063 20.0351 11.1371 19.7735 10.8755C19.5119 10.6139 19.3765 9.79885 20.0657 9.636C20.7549 9.47314 21.8095 8.31634 22.0711 8.57793C22.3327 8.83953 21.436 10.1603 21.013 10.5833Z" fill="#E255AE"/>
<path d="M21.2811 15.4485C20.6829 15.4485 20.198 15.1486 20.198 14.7787C20.198 14.4087 20.6786 13.7366 21.2811 14.1088C21.8836 14.481 23.4473 14.4087 23.4473 14.7787C23.4473 15.1486 21.8793 15.4485 21.2811 15.4485Z" fill="#E255AE"/>
<path d="M14.7243 6.94423C14.7243 7.54241 14.4244 8.02734 14.0544 8.02734C13.6844 8.02734 13.0124 7.54672 13.3845 6.94423C13.7567 6.34173 13.6844 4.77805 14.0544 4.77805C14.4244 4.77805 14.7243 6.34604 14.7243 6.94423Z" fill="#E255AE"/>
</svg>
