<svg viewBox="0 0 28 28" xmlns="http://www.w3.org/2000/svg" xmlns:xlink="http://www.w3.org/1999/xlink" width="28.000000" height="28.000000" fill="none">
	<rect id="Northern Mariana Islands" width="28.000000" height="28.000000" x="0.000000" y="0.000000" fill="rgb(255,255,255)" fill-opacity="0" transform="matrix(-1,-6.12324e-17,6.12324e-17,-1,28,28)" />
	<path id="Vector" d="M23.3333 0L0 0L0 23.3333L23.3333 23.3333L23.3333 0Z" opacity="0" fill="rgb(96,96,96)" fill-rule="evenodd" transform="matrix(-1,-6.12324e-17,6.12324e-17,-1,25.6667,25.6667)" />
	<rect id="Mask Copy" width="28.000000" height="20.000000" x="0.000000" y="4.000000" rx="3.000000" fill="rgb(0,51,161)" />
	<path id="Ellipse 2971" d="M1.44851 2.16618C1.44851 2.76437 1.1486 3.24929 0.778651 3.24929C0.408701 3.24929 -0.263389 2.76867 0.108797 2.16618C0.480982 1.56369 0.408701 0 0.778651 0C1.1486 0 1.44851 1.56799 1.44851 2.16618Z" fill="rgb(226,85,174)" fill-rule="nonzero" transform="matrix(-0.707107,-0.707107,0.707107,-0.707107,7.43683,21.5476)" />
	<path id="Ellipse 2974" d="M1.44851 2.16618C1.44851 2.76437 1.1486 3.24929 0.778651 3.24929C0.408701 3.24929 -0.263389 2.76867 0.108797 2.16618C0.480982 1.56369 0.408701 0 0.778651 0C1.1486 0 1.44851 1.56799 1.44851 2.16618Z" fill="rgb(226,85,174)" fill-rule="nonzero" transform="matrix(-0.707107,0.707107,-0.707107,-0.707107,21.5208,20.3962)" />
	<circle id="Ellipse 2963" cx="13.9997559" cy="13.9997559" r="8.14770508" fill="rgb(217,217,217)" fill-opacity="0" />
	<circle id="Ellipse 2963" cx="13.9997559" cy="13.9997559" r="6.64770508" stroke="rgb(255,255,255)" stroke-width="3" />
	<circle id="Ellipse 2965" cx="13.9997559" cy="13.9987183" r="6.88427782" fill="rgb(217,217,217)" fill-opacity="0" />
	<circle id="Ellipse 2965" cx="13.9997559" cy="13.9987183" r="6.63427782" stroke="rgb(248,125,110)" stroke-width="0.5" />
	<path id="Ellipse 2964" d="M14 13.393C15.4292 13.393 16.6165 12.3574 16.8524 10.9956C16.8995 10.7235 16.6711 10.498 16.395 10.498L11.605 10.498C11.3288 10.498 11.1004 10.7235 11.1476 10.9956C11.3835 12.3574 12.5708 13.393 14 13.393Z" fill="rgb(217,217,217)" fill-rule="evenodd" />
	<path id="Rectangle 240649371" d="M13.2509 12.8795L14.749 12.8795C15.0028 12.8795 15.2164 13.0697 15.2456 13.3219L16.2047 21.5909C16.2391 21.8879 16.0069 22.1485 15.708 22.1485L12.2919 22.1485C11.9929 22.1485 11.7608 21.8879 11.7952 21.5909L12.7542 13.3219C12.7835 13.0697 12.997 12.8795 13.2509 12.8795Z" fill="rgb(217,217,217)" fill-rule="nonzero" />
	<path id="Star 36" d="M14.7702 14.7596L17.2627 14.7596L15.2462 16.2247L16.0165 18.5953L13.9999 17.1302L11.9834 18.5953L12.7537 16.2247L10.7371 14.7596L13.2297 14.7596L13.9999 12.389L14.7702 14.7596Z" fill="rgb(255,255,255)" fill-rule="evenodd" />
	<path id="Star 36" d="M14.7702 14.7596L14.1577 12.8744L13.9999 12.389L13.8422 12.8744L13.2297 14.7596L11.2475 14.7596L10.7371 14.7596L11.15 15.0596L12.7537 16.2247L12.1411 18.1099L11.9834 18.5953L12.3963 18.2953L13.9999 17.1302L15.6035 18.2953L16.0165 18.5953L15.8587 18.1099L15.2462 16.2247L16.8498 15.0596L17.2627 14.7596L14.7702 14.7596ZM15.5989 16.3393L16.5871 19.3807L13.9999 17.501L11.4128 19.3807L12.401 16.3393L9.81382 14.4596L13.0117 14.4596L13.9999 11.4182L14.9881 14.4596L18.186 14.4596L15.5989 16.3393Z" fill="rgb(0,0,0)" fill-rule="evenodd" />
	<path id="Ellipse 2968" d="M1.44851 2.16618C1.44851 2.76437 1.1486 3.24929 0.778651 3.24929C0.408701 3.24929 -0.263389 2.76867 0.108797 2.16618C0.480982 1.56369 0.408701 0 0.778651 0C1.1486 0 1.44851 1.56799 1.44851 2.16618Z" fill="rgb(226,85,174)" fill-rule="nonzero" transform="matrix(-0.114872,-0.99338,0.99338,-0.114872,4.57422,15.2051)" />
	<path id="Ellipse 2969" d="M1.44851 2.16618C1.44851 2.76437 1.1486 3.24929 0.778651 3.24929C0.408701 3.24929 -0.263389 2.76867 0.108797 2.16618C0.480982 1.56369 0.408701 0 0.778651 0C1.1486 0 1.44851 1.56799 1.44851 2.16618Z" fill="rgb(226,85,174)" fill-rule="nonzero" transform="matrix(0.707107,-0.707107,0.707107,0.707107,6.4126,8.41504)" />
	<path id="Ellipse 2972" d="M1.44851 2.16618C1.44851 2.76437 1.1486 3.24929 0.778651 3.24929C0.408701 3.24929 -0.263389 2.76867 0.108797 2.16618C0.480982 1.56369 0.408701 0 0.778651 0C1.1486 0 1.44851 1.56799 1.44851 2.16618Z" fill="rgb(226,85,174)" fill-rule="nonzero" transform="matrix(0.707107,0.707107,-0.707107,0.707107,21.5205,8.02734)" />
	<path id="Ellipse 2973" d="M1.44851 2.16618C1.44851 2.76437 1.1486 3.24929 0.778651 3.24929C0.408701 3.24929 -0.263389 2.76867 0.108797 2.16618C0.480982 1.56369 0.408701 0 0.778651 0C1.1486 0 1.44851 1.56799 1.44851 2.16618Z" fill="rgb(226,85,174)" fill-rule="nonzero" transform="matrix(-5.72122e-18,1,-1,-5.72122e-18,23.4473,14)" />
	<path id="Ellipse 2970" d="M14.7243 6.94426C14.7243 7.54244 14.4244 8.02737 14.0544 8.02737C13.6845 8.02737 13.0124 7.54675 13.3846 6.94426C13.7567 6.34177 13.6845 4.77808 14.0544 4.77808C14.4244 4.77808 14.7243 6.34607 14.7243 6.94426Z" fill="rgb(226,85,174)" fill-rule="nonzero" />
</svg>
