<svg viewBox="0 0 28 28" xmlns="http://www.w3.org/2000/svg" xmlns:xlink="http://www.w3.org/1999/xlink" width="28.000000" height="28.000000" fill="none" customFrame="#000000">
	<defs>
		<filter id="pixso_custom_mask_type_alpha">
			<feColorMatrix type="matrix" values="0 0 0 0 1 0 0 0 0 1 0 0 0 0 1 0 0 0 1 0 " />
		</filter>
	</defs>
	<mask id="mask_484" width="28.000000" height="20.000000" x="0.000000" y="4.000000" maskUnits="userSpaceOnUse">
		<g filter="url(#pixso_custom_mask_type_alpha)">
			<rect id="Mask" width="28.000000" height="20.000000" x="0.000000" y="4.000000" rx="3.000000" fill="rgb(255,255,255)" />
			<rect id="Mask" width="27.500000" height="19.500000" x="0.250000" y="4.250000" rx="2.750000" stroke="rgb(245,245,245)" stroke-width="0.5" />
		</g>
	</mask>
	<rect id="Pakistan" width="28.000000" height="28.000000" x="0.000000" y="0.000000" fill="rgb(255,255,255)" fill-opacity="0" />
	<rect id="Mask" width="28.000000" height="20.000000" x="0.000000" y="4.000000" rx="3.000000" fill="rgb(255,255,255)" />
	<rect id="Mask" width="27.500000" height="19.500000" x="0.250000" y="4.250000" rx="2.750000" stroke="rgb(214,216,221)" stroke-width="0.5" />
	<g mask="url(#mask_484)">
		<path id="Combined Shape" d="M28 24L28 4L8 4L8 24L28 24Z" fill="rgb(10,99,47)" fill-rule="evenodd" />
		<path id="Combined Shape" d="M28 24L28 4L8 4L8 24L28 24Z" fill-rule="evenodd" stroke="rgb(150.96,150.96,150.96)" stroke-opacity="0" stroke-width="0" />
		<g id="Star 8 + Oval 3">
			<path id="Star 8" d="M9.28514 10.7336C8.31005 11.5272 7.0834 12 5.7509 12C2.57477 12 0 9.31371 0 6C0 2.68629 2.57477 0 5.7509 0C7.0834 0 8.31005 0.472813 9.28514 1.26641C8.84242 1.15201 8.37619 1.09091 7.89476 1.09091C5.00736 1.09091 2.66667 3.28878 2.66667 6C2.66667 8.71122 5.00736 10.9091 7.89476 10.9091C8.37619 10.9091 8.84242 10.848 9.28514 10.7336ZM7.76591 8.15738L9.33333 7.04L10.9008 8.15738L10.3224 6.32138L11.8695 5.17595L9.94463 5.15862L9.33333 3.33333L8.72204 5.15862L6.79718 5.17595L8.34423 6.32138L7.76591 8.15738Z" fill="rgb(255,255,255)" fill-rule="evenodd" transform="matrix(0.707107,-0.707107,0.707107,0.707107,9.51471,13.7263)" />
			<path id="Star 8" d="M9.28514 10.7336C8.31005 11.5272 7.0834 12 5.7509 12C2.57477 12 0 9.31371 0 6C0 2.68629 2.57477 0 5.7509 0C7.0834 0 8.31005 0.472813 9.28514 1.26641C8.84242 1.15201 8.37619 1.09091 7.89476 1.09091C5.00736 1.09091 2.66667 3.28878 2.66667 6C2.66667 8.71122 5.00736 10.9091 7.89476 10.9091C8.37619 10.9091 8.84242 10.848 9.28514 10.7336ZM7.76591 8.15738L9.33333 7.04L10.9008 8.15738L10.3224 6.32138L11.8695 5.17595L9.94463 5.15862L9.33333 3.33333L8.72204 5.15862L6.79718 5.17595L8.34423 6.32138L7.76591 8.15738Z" fill-rule="evenodd" stroke="rgb(150.96,150.96,150.96)" stroke-opacity="0" stroke-width="0" transform="matrix(0.707107,-0.707107,0.707107,0.707107,9.51471,13.7263)" />
		</g>
	</g>
</svg>
