<svg width="28.000000" height="28.000000" viewBox="0 0 28 28" fill="none" xmlns="http://www.w3.org/2000/svg" xmlns:xlink="http://www.w3.org/1999/xlink">
	<desc>
			Created with Pixso.
	</desc>
	<defs/>
	<rect id="Palau" width="28.000000" height="28.000000" fill="#FFFFFF" fill-opacity="0"/>
	<rect id="Mask" y="4.000000" rx="3.000000" width="28.000000" height="20.000000" fill="#FFFFFF" fill-opacity="1.000000"/>
	<rect id="Mask" y="4.000000" rx="3.000000" width="28.000000" height="20.000000" stroke="#979797" stroke-opacity="0" stroke-width="0.000000"/>
	<mask id="mask17_4717" mask-type="alpha" maskUnits="userSpaceOnUse" x="0.000000" y="4.000000" width="28.000000" height="20.000000">
		<rect id="Mask" y="4.000000" rx="3.000000" width="28.000000" height="20.000000" fill="#FFFFFF" fill-opacity="1.000000"/>
		<rect id="Mask" y="4.000000" rx="3.000000" width="28.000000" height="20.000000" stroke="#979797" stroke-opacity="0" stroke-width="0.000000"/>
	</mask>
	<g mask="url(#mask17_4717)">
		<rect id="Mask Copy" y="4.000000" width="28.000000" height="20.000000" fill="#65C6EE" fill-opacity="1.000000"/>
		<rect id="Mask Copy" y="4.000000" width="28.000000" height="20.000000" stroke="#979797" stroke-opacity="0" stroke-width="0.000000"/>
	</g>
	<g mask="url(#mask17_4717)">
		<path id="Oval 9" d="M12.66 20C15.98 20 18.66 17.31 18.66 14C18.66 10.68 15.98 8 12.66 8C9.35 8 6.66 10.68 6.66 14C6.66 17.31 9.35 20 12.66 20Z" fill="#FFE044" fill-opacity="1.000000" fill-rule="evenodd"/>
		<path id="Oval 9" d="M18.66 14C18.66 10.68 15.98 8 12.66 8C9.35 8 6.66 10.68 6.66 14C6.66 17.31 9.35 20 12.66 20C15.98 20 18.66 17.31 18.66 14Z" stroke="#979797" stroke-opacity="0" stroke-width="0.000000"/>
	</g>
</svg>
