<svg width="28.000000" height="28.000000" viewBox="0 0 28 28" fill="none" xmlns="http://www.w3.org/2000/svg" xmlns:xlink="http://www.w3.org/1999/xlink">
	<desc>
			Created with Pixso.
	</desc>
	<defs/>
	<rect id="Panama" width="28.000000" height="28.000000" fill="#FFFFFF" fill-opacity="0"/>
	<rect id="Mask" y="4.000000" rx="3.000000" width="28.000000" height="20.000000" fill="#FFFFFF" fill-opacity="1.000000"/>
	<rect id="Mask" x="0.250000" y="4.250000" rx="3.000000" width="27.500000" height="19.500000" stroke="#D6D8DD" stroke-opacity="1.000000" stroke-width="0.500000"/>
	<mask id="mask17_4679" mask-type="alpha" maskUnits="userSpaceOnUse" x="0.000000" y="4.000000" width="28.000000" height="20.000000">
		<rect id="Mask" y="4.000000" rx="3.000000" width="28.000000" height="20.000000" fill="#FFFFFF" fill-opacity="1.000000"/>
		<rect id="Mask" x="0.250000" y="4.250000" rx="3.000000" width="27.500000" height="19.500000" stroke="#F5F5F5" stroke-opacity="1.000000" stroke-width="0.500000"/>
	</mask>
	<g mask="url(#mask17_4679)">
		<mask id="mask_17_4680" fill="white">
			<path id="Combined Shape" d="M28 13.3333L13.3333 13.3333L13.3333 4L28 4L28 13.3333Z" clip-rule="evenodd" fill="" fill-opacity="1.000000" fill-rule="evenodd"/>
		</mask>
		<path id="Combined Shape" d="M28 13.3333L13.3333 13.3333L13.3333 4L28 4L28 13.3333Z" clip-rule="evenodd" fill="#E52448" fill-opacity="1.000000" fill-rule="evenodd" mask="url(#mask_17_4680)"/>
		<path id="Combined Shape" d="" fill="#979797" fill-opacity="0.000000" fill-rule="nonzero"/>
	</g>
	<g mask="url(#mask17_4679)">
		<mask id="mask_17_4683" fill="white">
			<path id="Combined Shape" d="M13.3333 24L0 24L0 13.3334L13.3333 13.3334L13.3333 24Z" clip-rule="evenodd" fill="" fill-opacity="1.000000" fill-rule="evenodd"/>
		</mask>
		<path id="Combined Shape" d="M13.3333 24L0 24L0 13.3334L13.3333 13.3334L13.3333 24Z" clip-rule="evenodd" fill="#1367AE" fill-opacity="1.000000" fill-rule="evenodd" mask="url(#mask_17_4683)"/>
		<path id="Combined Shape" d="" fill="#979797" fill-opacity="0.000000" fill-rule="nonzero"/>
	</g>
	<g mask="url(#mask17_4679)">
		<path id="Star 33" d="M6.66 9.75L5.09 10.82L5.62 9L4.13 7.84L6.02 7.78L6.66 6L7.3 7.78L9.2 7.84L7.7 9L8.23 10.82L6.66 9.75Z" fill="#1367AE" fill-opacity="1.000000" fill-rule="evenodd"/>
		<path id="Star 33" d="M5.09 10.82L5.62 9L4.13 7.84L6.02 7.78L6.66 6L7.3 7.78L9.2 7.84L7.7 9L8.23 10.82L6.66 9.75L5.09 10.82Z" stroke="#979797" stroke-opacity="0" stroke-width="0.000000"/>
	</g>
	<g mask="url(#mask17_4679)">
		<path id="Star 33" d="M20.66 19.76L19.09 20.82L19.62 19L18.13 17.84L20.02 17.78L20.66 16L21.3 17.78L23.2 17.84L21.7 19L22.23 20.82L20.66 19.76Z" fill="#E52448" fill-opacity="1.000000" fill-rule="evenodd"/>
		<path id="Star 33" d="M19.09 20.82L19.62 19L18.13 17.84L20.02 17.78L20.66 16L21.3 17.78L23.2 17.84L21.7 19L22.23 20.82L20.66 19.76L19.09 20.82Z" stroke="#979797" stroke-opacity="0" stroke-width="0.000000"/>
	</g>
</svg>
