<svg width="28.000000" height="28.000000" viewBox="0 0 28 28" fill="none" xmlns="http://www.w3.org/2000/svg" xmlns:xlink="http://www.w3.org/1999/xlink">
	<desc>
			Created with Pixso.
	</desc>
	<defs/>
	<rect id="Philippines" width="28.000000" height="28.000000" fill="#FFFFFF" fill-opacity="0"/>
	<rect id="Mask" y="4.000000" rx="3.000000" width="28.000000" height="20.000000" fill="#FFFFFF" fill-opacity="1.000000"/>
	<rect id="Mask" x="0.250000" y="4.250000" rx="3.000000" width="27.500000" height="19.500000" stroke="#D6D8DD" stroke-opacity="1.000000" stroke-width="0.500000"/>
	<mask id="mask17_4702" mask-type="alpha" maskUnits="userSpaceOnUse" x="0.000000" y="4.000000" width="28.000000" height="20.000000">
		<rect id="Mask" y="4.000000" rx="3.000000" width="28.000000" height="20.000000" fill="#FFFFFF" fill-opacity="1.000000"/>
		<rect id="Mask" x="0.250000" y="4.250000" rx="3.000000" width="27.500000" height="19.500000" stroke="#F5F5F5" stroke-opacity="1.000000" stroke-width="0.500000"/>
	</mask>
	<g mask="url(#mask17_4702)">
		<mask id="mask_17_4703" fill="white">
			<path id="Combined Shape" d="M0 24L28 24L28 13.3334L12.4445 13.3334L13.3333 14L0 24Z" clip-rule="evenodd" fill="" fill-opacity="1.000000" fill-rule="evenodd"/>
		</mask>
		<path id="Combined Shape" d="M0 24L28 24L28 13.3334L12.4445 13.3334L13.3333 14L0 24Z" clip-rule="evenodd" fill="#DD1C34" fill-opacity="1.000000" fill-rule="evenodd" mask="url(#mask_17_4703)"/>
		<path id="Combined Shape" d="" fill="#979797" fill-opacity="0.000000" fill-rule="nonzero"/>
	</g>
	<g mask="url(#mask17_4702)">
		<mask id="mask_17_4706" fill="white">
			<path id="Combined Shape" d="M0 4L12.4445 13.3333L28 13.3333L28 4L0 4Z" clip-rule="evenodd" fill="" fill-opacity="1.000000" fill-rule="evenodd"/>
		</mask>
		<path id="Combined Shape" d="M0 4L12.4445 13.3333L28 13.3333L28 4L0 4Z" clip-rule="evenodd" fill="#0D4BC3" fill-opacity="1.000000" fill-rule="evenodd" mask="url(#mask_17_4706)"/>
		<path id="Combined Shape" d="" fill="#979797" fill-opacity="0.000000" fill-rule="nonzero"/>
	</g>
	<g mask="url(#mask17_4702)">
		<mask id="mask_17_4709" fill="white">
			<path id="Oval 206" d="M2 8.00002C2.36819 8.00002 2.66669 7.70154 2.66669 7.33336C2.66669 6.96516 2.36819 6.66669 2 6.66669C1.63181 6.66669 1.33334 6.96516 1.33334 7.33336C1.33334 7.70154 1.63181 8.00002 2 8.00002ZM4.53207 15.3266L3.39105 17.0796L3.82379 15.0332C3.75415 14.9763 3.6904 14.9125 3.63351 14.8429L1.58707 15.2756L3.34006 14.1346C3.3356 14.0903 3.33334 14.0455 3.33334 14C3.33334 13.9546 3.3356 13.9097 3.34006 13.8654L1.58707 12.7244L3.63351 13.1571C3.6904 13.0875 3.75415 13.0237 3.82379 12.9669L3.39105 10.9204L4.53207 12.6734C4.57635 12.669 4.62125 12.6667 4.66669 12.6667C4.7121 12.6667 4.75702 12.669 4.80127 12.6734L5.94229 10.9204L5.50955 12.9669C5.57919 13.0237 5.64297 13.0875 5.69986 13.1571L7.74628 12.7244L5.99329 13.8654C5.99774 13.9097 6 13.9546 6 14C6 14.0455 5.99774 14.0903 5.99332 14.1346L7.74628 15.2756L5.69986 14.8429C5.64297 14.9125 5.57919 14.9763 5.50955 15.0332L5.94229 17.0796L4.80127 15.3266C4.75702 15.3311 4.7121 15.3334 4.66669 15.3334C4.62125 15.3334 4.57635 15.3311 4.53207 15.3266ZM10 14.6667C10.3682 14.6667 10.6667 14.3682 10.6667 14C10.6667 13.6318 10.3682 13.3334 10 13.3334C9.63184 13.3334 9.33334 13.6318 9.33334 14C9.33334 14.3682 9.63184 14.6667 10 14.6667ZM2.66669 20.6667C2.66669 21.0349 2.36819 21.3334 2 21.3334C1.63181 21.3334 1.33334 21.0349 1.33334 20.6667C1.33334 20.2985 1.63181 20 2 20C2.36819 20 2.66669 20.2985 2.66669 20.6667Z" clip-rule="evenodd" fill="" fill-opacity="1.000000" fill-rule="evenodd"/>
		</mask>
		<path id="Oval 206" d="M2 8.00002C2.36819 8.00002 2.66669 7.70154 2.66669 7.33336C2.66669 6.96516 2.36819 6.66669 2 6.66669C1.63181 6.66669 1.33334 6.96516 1.33334 7.33336C1.33334 7.70154 1.63181 8.00002 2 8.00002ZM4.53207 15.3266L3.39105 17.0796L3.82379 15.0332C3.75415 14.9763 3.6904 14.9125 3.63351 14.8429L1.58707 15.2756L3.34006 14.1346C3.3356 14.0903 3.33334 14.0455 3.33334 14C3.33334 13.9546 3.3356 13.9097 3.34006 13.8654L1.58707 12.7244L3.63351 13.1571C3.6904 13.0875 3.75415 13.0237 3.82379 12.9669L3.39105 10.9204L4.53207 12.6734C4.57635 12.669 4.62125 12.6667 4.66669 12.6667C4.7121 12.6667 4.75702 12.669 4.80127 12.6734L5.94229 10.9204L5.50955 12.9669C5.57919 13.0237 5.64297 13.0875 5.69986 13.1571L7.74628 12.7244L5.99329 13.8654C5.99774 13.9097 6 13.9546 6 14C6 14.0455 5.99774 14.0903 5.99332 14.1346L7.74628 15.2756L5.69986 14.8429C5.64297 14.9125 5.57919 14.9763 5.50955 15.0332L5.94229 17.0796L4.80127 15.3266C4.75702 15.3311 4.7121 15.3334 4.66669 15.3334C4.62125 15.3334 4.57635 15.3311 4.53207 15.3266ZM10 14.6667C10.3682 14.6667 10.6667 14.3682 10.6667 14C10.6667 13.6318 10.3682 13.3334 10 13.3334C9.63184 13.3334 9.33334 13.6318 9.33334 14C9.33334 14.3682 9.63184 14.6667 10 14.6667ZM2.66669 20.6667C2.66669 21.0349 2.36819 21.3334 2 21.3334C1.63181 21.3334 1.33334 21.0349 1.33334 20.6667C1.33334 20.2985 1.63181 20 2 20C2.36819 20 2.66669 20.2985 2.66669 20.6667Z" clip-rule="evenodd" fill="#FDD64D" fill-opacity="1.000000" fill-rule="evenodd" mask="url(#mask_17_4709)"/>
		<path id="Oval 206" d="" fill="#979797" fill-opacity="0.000000" fill-rule="nonzero"/>
	</g>
</svg>
