<svg width="28" height="28" viewBox="0 0 28 28" fill="none" xmlns="http://www.w3.org/2000/svg">
<rect y="4" width="28" height="20" rx="3" fill="white"/>
<mask id="mask0_107628_1005" style="mask-type:luminance" maskUnits="userSpaceOnUse" x="0" y="4" width="28" height="20">
<rect y="4" width="28" height="20" rx="3" fill="white"/>
</mask>
<g mask="url(#mask0_107628_1005)">
<rect y="4" width="28" height="20" fill="#062365"/>
<path d="M0 3.66667H-0.901086L-0.21693 4.25309L4.33333 8.15331V9.16179L-0.193746 12.3954L-0.333333 12.4951V12.6667V13.3333V13.9347L0.176666 13.616L5.42893 10.3333H6.55984L11.0821 13.5635C11.176 13.6306 11.2886 13.6667 11.404 13.6667C11.9182 13.6667 12.1548 13.027 11.7644 12.6924L7.66667 9.18002V8.17154L12.0542 5.03762C12.2294 4.91248 12.3333 4.71043 12.3333 4.49513V4V3.39858L11.8233 3.71733L6.57107 7H5.44016L0.860413 3.72876L0.773488 3.66667H0.666667H0Z" fill="#DB1E36" stroke="white" stroke-width="0.666667"/>
<path fill-rule="evenodd" clip-rule="evenodd" d="M0 7.33333V10H4.66667V13.3333C4.66667 13.7015 4.96514 14 5.33333 14H6.66667C7.03486 14 7.33333 13.7015 7.33333 13.3333V10H12C12.3682 10 12.6667 9.70152 12.6667 9.33333V8C12.6667 7.63181 12.3682 7.33333 12 7.33333H7.33333V4H4.66667V7.33333H0Z" fill="white"/>
<path fill-rule="evenodd" clip-rule="evenodd" d="M0 8H5.33333V7.33333V4H6.66667V7.33333V8H12V9.33333H6.66667V10V13.3333H5.33333V10V9.33333H0V8Z" fill="#DB1E36"/>
<path d="M20.0588 19C17 19 17 15.8824 17 11.2157H23.1176V11.2157C23.1176 15.9608 23.1176 19 20.0588 19Z" fill="#4564B9"/>
<mask id="mask1_107628_1005" style="mask-type:alpha" maskUnits="userSpaceOnUse" x="17" y="11" width="7" height="8">
<path d="M20.0588 19C17 19 17 15.8824 17 11.2157H23.1176V11.2157C23.1176 15.9608 23.1176 19 20.0588 19Z" fill="#C4C4C4"/>
</mask>
<g mask="url(#mask1_107628_1005)">
<path d="M15.0392 19L20.0392 11.2353L25.0392 19H15.0392Z" fill="#E9E41B"/>
<path d="M16.0196 19L20.0392 12.7647L24.0588 19H16.0196Z" fill="#3C732E"/>
</g>
<path d="M18.3334 10.1176L18.804 11.2157H21.3726L20.9217 10.0784L21.3726 9H18.804L18.3334 10.1176Z" fill="#8C8076"/>
</g>
</svg>
