<svg width="28.000000" height="28.000000" viewBox="0 0 28 28" fill="none" xmlns="http://www.w3.org/2000/svg" xmlns:xlink="http://www.w3.org/1999/xlink">
	<desc>
			Created with Pixso.
	</desc>
	<defs>
		<linearGradient id="paint_linear_17_4739_0" x1="8.000000" y1="11.333374" x2="8.000000" y2="16.666708" gradientUnits="userSpaceOnUse">
			<stop stop-color="#FFE94F"/>
			<stop offset="1.000000" stop-color="#FFE633"/>
		</linearGradient>
	</defs>
	<rect id="Portugal" width="28.000000" height="28.000000" fill="#FFFFFF" fill-opacity="0"/>
	<rect id="Mask" y="4.000000" rx="3.000000" width="28.000000" height="20.000000" fill="#FFFFFF" fill-opacity="1.000000"/>
	<rect id="Mask" y="4.000000" rx="3.000000" width="28.000000" height="20.000000" stroke="#979797" stroke-opacity="0" stroke-width="0.000000"/>
	<mask id="mask17_4736" mask-type="alpha" maskUnits="userSpaceOnUse" x="0.000000" y="4.000000" width="28.000000" height="20.000000">
		<rect id="Mask" y="4.000000" rx="3.000000" width="28.000000" height="20.000000" fill="#FFFFFF" fill-opacity="1.000000"/>
		<rect id="Mask" y="4.000000" rx="3.000000" width="28.000000" height="20.000000" stroke="#979797" stroke-opacity="0" stroke-width="0.000000"/>
	</mask>
	<g mask="url(#mask17_4736)">
		<rect id="Mask Copy" y="4.000000" width="28.000000" height="20.000000" fill="#FF2936" fill-opacity="1.000000"/>
		<rect id="Mask Copy" y="4.000000" width="28.000000" height="20.000000" stroke="#979797" stroke-opacity="0" stroke-width="0.000000"/>
	</g>
	<g mask="url(#mask17_4736)">
		<path id="Rectangle 2 Copy" d="M0 24L10.66 24L10.66 4L0 4L0 24Z" fill="#128415" fill-opacity="1.000000" fill-rule="evenodd"/>
		<path id="Rectangle 2 Copy" d="M10.66 24L10.66 4L0 4L0 24L10.66 24Z" stroke="#979797" stroke-opacity="0" stroke-width="0.000000"/>
	</g>
	<g mask="url(#mask17_4736)">
		<path id="Oval 1" d="M10.66 16.66C12.13 16.66 13.33 15.47 13.33 14C13.33 12.52 12.13 11.33 10.66 11.33C9.19 11.33 8 12.52 8 14C8 15.47 9.19 16.66 10.66 16.66Z" fill="url(#paint_linear_17_4739_0)" fill-opacity="0" fill-rule="evenodd"/>
		<path id="Oval 1" d="M14.57 14.85Q14.66 14.43 14.66 14Q14.66 13.56 14.57 13.14Q14.49 12.78 14.35 12.44Q14.2 12.09 14 11.79Q13.78 11.45 13.49 11.17Q13.2 10.88 12.87 10.66Q12.56 10.46 12.22 10.31Q11.87 10.16 11.51 10.09Q11.1 10 10.66 10Q10.23 10 9.81 10.09Q9.45 10.16 9.1 10.31Q8.76 10.46 8.45 10.66Q8.12 10.88 7.83 11.17Q7.55 11.45 7.33 11.79Q7.12 12.09 6.98 12.44Q6.83 12.78 6.75 13.14Q6.66 13.56 6.66 14Q6.66 14.43 6.75 14.85Q6.83 15.21 6.98 15.55Q7.12 15.9 7.33 16.2Q7.55 16.54 7.83 16.82Q8.12 17.11 8.45 17.33Q8.76 17.53 9.1 17.68Q9.45 17.83 9.81 17.9Q10.23 18 10.66 18Q11.1 18 11.51 17.9Q11.87 17.83 12.22 17.68Q12.56 17.53 12.87 17.33Q13.2 17.11 13.49 16.82Q13.78 16.54 14 16.2Q14.2 15.9 14.35 15.55Q14.49 15.21 14.57 14.85ZM13.33 14C13.33 15.47 12.13 16.66 10.66 16.66C9.19 16.66 8 15.47 8 14C8 12.52 9.19 11.33 10.66 11.33C12.13 11.33 13.33 12.52 13.33 14Z" fill="#FAF94F" fill-opacity="1.000000" fill-rule="evenodd"/>
	</g>
	<g mask="url(#mask17_4736)">
		<path id="Rectangle 429" d="M9.33 12.33C9.33 12.14 9.48 12 9.66 12L11.66 12C11.85 12 12 12.14 12 12.33L12 14.66C12 15.4 11.4 16 10.66 16L10.66 16C9.93 16 9.33 15.4 9.33 14.66L9.33 12.33Z" fill="#FFFFFF" fill-opacity="1.000000" fill-rule="evenodd"/>
		<path id="Rectangle 429" d="M11.66 12C11.85 12 12 12.14 12 12.33L12 14.66C12 15.4 11.4 16 10.66 16C9.93 16 9.33 15.4 9.33 14.66L9.33 12.33C9.33 12.14 9.48 12 9.66 12L11.66 12Z" stroke="#979797" stroke-opacity="0" stroke-width="0.000000"/>
	</g>
	<g mask="url(#mask17_4736)">
		<path id="Oval 27" d="M10.66 14.66C11.03 14.66 11.33 13.7 11.33 13.33C11.33 12.96 11.03 12.66 10.66 12.66C10.29 12.66 10 12.96 10 13.33C10 13.7 10.29 14.66 10.66 14.66Z" fill="#1D50B5" fill-opacity="1.000000" fill-rule="evenodd"/>
		<path id="Oval 27" d="M11.33 13.33C11.33 12.96 11.03 12.66 10.66 12.66C10.29 12.66 10 12.96 10 13.33C10 13.7 10.29 14.66 10.66 14.66C11.03 14.66 11.33 13.7 11.33 13.33Z" stroke="#979797" stroke-opacity="0" stroke-width="0.000000"/>
	</g>
</svg>
