<svg width="28.000000" height="28.000000" viewBox="0 0 28 28" fill="none" xmlns="http://www.w3.org/2000/svg" xmlns:xlink="http://www.w3.org/1999/xlink">
	<desc>
			Created with Pixso.
	</desc>
	<defs>
		<clipPath id="clip136805_846">
			<rect id="Reunion" width="28.000000" height="28.000000" transform="translate(28.000000 28.000000) rotate(180.000000)" fill="white" fill-opacity="0"/>
		</clipPath>
	</defs>
	<rect id="Reunion" width="28.000000" height="28.000000" transform="translate(28.000000 28.000000) rotate(180.000000)" fill="#FFFFFF" fill-opacity="0"/>
	<g>
		<mask id="mask136805_838" mask-type="alpha" maskUnits="userSpaceOnUse" x="0.000000" y="4.000000" width="28.000000" height="20.000000">
			<rect id="Mask Copy" y="4.000000" rx="3.000000" width="28.000000" height="20.000000" fill="#3366FF" fill-opacity="1.000000"/>
		</mask>
		<g mask="url(#mask136805_838)">
			<rect id="Mask Copy" y="4.000000" rx="3.000000" width="28.000000" height="20.000000" fill="#3366FF" fill-opacity="1.000000"/>
		</g>
		<g mask="url(#mask136805_838)">
			<path id="Rectangle 240649372" d="M13.98 14.13L27.87 24L-0.13 24L13.98 14.13Z" fill="#FF0000" fill-opacity="1.000000" fill-rule="nonzero"/>
		</g>
		<g mask="url(#mask136805_838)">
			<path id="Rectangle 240649373" d="M13.98 14.13L12.61 3.6L15.38 3.6L13.98 14.13Z" fill="#FFFF00" fill-opacity="1.000000" fill-rule="nonzero"/>
		</g>
		<g mask="url(#mask136805_838)">
			<path id="Rectangle 240649375" d="M14 14.14L28 13.1L28 15.2L14 14.14Z" fill="#FFFF00" fill-opacity="1.000000" fill-rule="nonzero"/>
		</g>
		<g mask="url(#mask136805_838)">
			<path id="Rectangle 240649376" d="M14 14.14L0 13.1L0 15.2L14 14.14Z" fill="#FFFF00" fill-opacity="1.000000" fill-rule="nonzero"/>
		</g>
		<g mask="url(#mask136805_838)">
			<path id="Rectangle 240649374" d="M13.99 14.12L25.69 3.13L28.56 4.63L13.99 14.12Z" fill="#FFFF00" fill-opacity="1.000000" fill-rule="nonzero"/>
		</g>
		<g mask="url(#mask136805_838)">
			<path id="Rectangle 240649377" d="M14 14.12L2.3 3.13L-0.57 4.63L14 14.12Z" fill="#FFFF00" fill-opacity="1.000000" fill-rule="nonzero"/>
		</g>
	</g>
</svg>
