<svg viewBox="0 0 28 28" xmlns="http://www.w3.org/2000/svg" xmlns:xlink="http://www.w3.org/1999/xlink" width="28.000000" height="28.000000" fill="none" customFrame="#000000">
	<defs>
		<filter id="pixso_custom_mask_type_alpha">
			<feColorMatrix type="matrix" values="0 0 0 0 1 0 0 0 0 1 0 0 0 0 1 0 0 0 1 0 " />
		</filter>
		<g id="pixso_custom_effect_44">
			<effect x="0.000000" y="0.000000" visibility="visible" fill="rgb(0,0,0)" fill-opacity="0.0599999987" effectType="dropShadow" showShadowBehind="1" stdDeviation="0" radius="0" />
			<effect x="0.000000" y="1.000000" visibility="hidden" fill="rgb(255,216.88,100.278)" fill-opacity="1" effectType="innerShadow" showShadowBehind="1" stdDeviation="0" radius="0" />
		</g>
		<filter id="filter_44" width="28.000000" height="5.333336" x="0.000000" y="18.666672" filterUnits="userSpaceOnUse" customEffect="url(#pixso_custom_effect_44)" color-interpolation-filters="sRGB">
			<feFlood flood-opacity="0" result="BackgroundImageFix" />
			<feOffset dx="0.000000" dy="0.000000" in="SourceAlpha" />
			<feColorMatrix type="matrix" values="0 0 0 0 0 0 0 0 0 0 0 0 0 0 0 0 0 0 0.06 0 " />
			<feBlend result="effect_dropShadow_1" in2="BackgroundImageFix" mode="normal" />
			<feBlend result="shape" in="SourceGraphic" in2="effect_dropShadow_1" mode="normal" />
		</filter>
	</defs>
	<mask id="mask_495" width="28.000000" height="20.000000" x="0.000000" y="4.000000" maskUnits="userSpaceOnUse">
		<g filter="url(#pixso_custom_mask_type_alpha)">
			<rect id="Mask" width="28.000000" height="20.000000" x="0.000000" y="4.000000" rx="3.000000" fill="rgb(255,255,255)" />
			<rect id="Mask" width="28.000000" height="20.000000" x="0.000000" y="4.000000" rx="3.000000" stroke="rgb(150.96,150.96,150.96)" stroke-opacity="0" stroke-width="0" />
		</g>
	</mask>
	<rect id="Rwanda" width="28.000000" height="28.000000" x="0.000000" y="0.000000" fill="rgb(255,255,255)" fill-opacity="0" />
	<rect id="Mask" width="28.000000" height="20.000000" x="0.000000" y="4.000000" rx="3.000000" fill="rgb(255,255,255)" />
	<rect id="Mask" width="28.000000" height="20.000000" x="0.000000" y="4.000000" rx="3.000000" stroke="rgb(150.96,150.96,150.96)" stroke-opacity="0" stroke-width="0" />
	<g mask="url(#mask_495)">
		<g filter="url(#filter_44)">
			<path id="Rectangle 2" d="M0 24L28 24L28 18.6666L0 18.6666L0 24Z" fill="rgb(45,117,77)" fill-rule="evenodd" />
			<path id="Rectangle 2" d="M28 24L28 18.6666L0 18.6666L0 24L28 24Z" fill-rule="evenodd" stroke="rgb(150.96,150.96,150.96)" stroke-opacity="0" stroke-width="0" />
		</g>
		<path id="Rectangle 2" d="M0 13.3333L28 13.3333L28 4L0 4L0 13.3333Z" fill="rgb(37,177,235)" fill-rule="evenodd" />
		<path id="Rectangle 2" d="M28 13.3333L28 4L0 4L0 13.3333L28 13.3333Z" fill-rule="evenodd" stroke="rgb(150.96,150.96,150.96)" stroke-opacity="0" stroke-width="0" />
		<path id="Rectangle 2" d="M0 18.6667L28 18.6667L28 13.3334L0 13.3334L0 18.6667Z" fill="rgb(254,203,47)" fill-rule="evenodd" />
		<path id="Rectangle 2" d="M28 18.6667L28 13.3334L0 13.3334L0 18.6667L28 18.6667Z" fill-rule="evenodd" stroke="rgb(150.96,150.96,150.96)" stroke-opacity="0" stroke-width="0" />
		<path id="Star 31" d="M21.3334 10L20.3129 11.1303L20.3905 9.60948L18.8697 9.68716L20 8.66667L18.8697 7.64618L20.3905 7.72386L20.3129 6.20299L21.3334 7.33333L22.3538 6.20299L22.2762 7.72386L23.797 7.64618L22.6667 8.66667L23.797 9.68716L22.2762 9.60948L22.3538 11.1303L21.3334 10Z" fill="rgb(254,203,47)" fill-rule="evenodd" />
		<path id="Star 31" d="M20.3129 11.1303L20.3905 9.60948L18.8697 9.68716L20 8.66667L18.8697 7.64618L20.3905 7.72386L20.3129 6.20299L21.3334 7.33333L22.3538 6.20299L22.2762 7.72386L23.797 7.64618L22.6667 8.66667L23.797 9.68716L22.2762 9.60948L22.3538 11.1303L21.3334 10L20.3129 11.1303Z" fill-rule="evenodd" stroke="rgb(150.96,150.96,150.96)" stroke-opacity="0" stroke-width="0" />
	</g>
</svg>
