<svg width="28.000000" height="28.000000" viewBox="0 0 28 28" fill="none" xmlns="http://www.w3.org/2000/svg" xmlns:xlink="http://www.w3.org/1999/xlink">
	<desc>
			Created with Pixso.
	</desc>
	<defs>
		<filter id="filter_17_4667_dd" x="0.000000" y="18.666626" width="28.000000" height="5.333336" filterUnits="userSpaceOnUse" color-interpolation-filters="sRGB">
			<feFlood flood-opacity="0" result="BackgroundImageFix"/>
			<feColorMatrix in="SourceAlpha" type="matrix" values="0 0 0 0 0 0 0 0 0 0 0 0 0 0 0 0 0 0 127 0" result="hardAlpha"/>
			<feOffset dx="0" dy="0"/>
			<feGaussianBlur stdDeviation="0"/>
			<feComposite in2="hardAlpha" operator="out" k2="-1" k3="1"/>
			<feColorMatrix type="matrix" values="0 0 0 0 0 0 0 0 0 0 0 0 0 0 0 0 0 0 0.059 0"/>
			<feBlend mode="normal" in2="BackgroundImageFix" result="effect_dropShadow_1"/>
			<feBlend mode="normal" in="SourceGraphic" in2="effect_dropShadow_1" result="shape"/>
		</filter>
	</defs>
	<rect id="Rwanda" width="28.000000" height="28.000000" fill="#FFFFFF" fill-opacity="0"/>
	<rect id="Mask" y="4.000000" rx="3.000000" width="28.000000" height="20.000000" fill="#FFFFFF" fill-opacity="1.000000"/>
	<rect id="Mask" y="4.000000" rx="3.000000" width="28.000000" height="20.000000" stroke="#979797" stroke-opacity="0" stroke-width="0.000000"/>
	<mask id="mask17_4666" mask-type="alpha" maskUnits="userSpaceOnUse" x="0.000000" y="4.000000" width="28.000000" height="20.000000">
		<rect id="Mask" y="4.000000" rx="3.000000" width="28.000000" height="20.000000" fill="#FFFFFF" fill-opacity="1.000000"/>
		<rect id="Mask" y="4.000000" rx="3.000000" width="28.000000" height="20.000000" stroke="#979797" stroke-opacity="0" stroke-width="0.000000"/>
	</mask>
	<g mask="url(#mask17_4666)">
		<g filter="url(#filter_17_4667_dd)">
			<path id="Rectangle 2" d="M0 24L28 24L28 18.66L0 18.66L0 24Z" fill="#2D754D" fill-opacity="1.000000" fill-rule="evenodd"/>
		</g>
		<path id="Rectangle 2" d="M28 24L28 18.66L0 18.66L0 24L28 24Z" stroke="#979797" stroke-opacity="0" stroke-width="0.000000"/>
	</g>
	<g mask="url(#mask17_4666)">
		<path id="Rectangle 2" d="M0 13.33L28 13.33L28 4L0 4L0 13.33Z" fill="#25B1EB" fill-opacity="1.000000" fill-rule="evenodd"/>
		<path id="Rectangle 2" d="M28 13.33L28 4L0 4L0 13.33L28 13.33Z" stroke="#979797" stroke-opacity="0" stroke-width="0.000000"/>
	</g>
	<g mask="url(#mask17_4666)">
		<path id="Rectangle 2" d="M0 18.66L28 18.66L28 13.33L0 13.33L0 18.66Z" fill="#FECB2F" fill-opacity="1.000000" fill-rule="evenodd"/>
		<path id="Rectangle 2" d="M28 18.66L28 13.33L0 13.33L0 18.66L28 18.66Z" stroke="#979797" stroke-opacity="0" stroke-width="0.000000"/>
	</g>
	<g mask="url(#mask17_4666)">
		<path id="Star 31" d="M21.33 10L20.31 11.13L20.39 9.6L18.86 9.68L20 8.66L18.86 7.64L20.39 7.72L20.31 6.2L21.33 7.33L22.35 6.2L22.27 7.72L23.79 7.64L22.66 8.66L23.79 9.68L22.27 9.6L22.35 11.13L21.33 10Z" fill="#FECB2F" fill-opacity="1.000000" fill-rule="evenodd"/>
		<path id="Star 31" d="M20.31 11.13L20.39 9.6L18.86 9.68L20 8.66L18.86 7.64L20.39 7.72L20.31 6.2L21.33 7.33L22.35 6.2L22.27 7.72L23.79 7.64L22.66 8.66L23.79 9.68L22.27 9.6L22.35 11.13L21.33 10L20.31 11.13Z" stroke="#979797" stroke-opacity="0" stroke-width="0.000000"/>
	</g>
</svg>
