<svg viewBox="0 0 29.8022 28" xmlns="http://www.w3.org/2000/svg" xmlns:xlink="http://www.w3.org/1999/xlink" width="29.802172" height="28.000000" fill="none" customFrame="#000000">
	<mask id="mask_62" width="6.666667" height="9.333333" x="19.135485" y="9.333374" maskUnits="userSpaceOnUse">
		<g filter="url(#pixso_custom_mask_type_alpha)">
			<path id="Mask" d="M19.1355 14C19.1355 12.9063 19.1355 11.6132 19.1355 10.6659C19.1355 9.92948 19.7324 9.33337 20.4688 9.33337L24.4688 9.33337C25.2052 9.33337 25.8022 9.92948 25.8022 10.6659C25.8022 11.6132 25.8022 12.9063 25.8022 14C25.8022 17.3334 22.4688 18.6667 22.4688 18.6667C22.4688 18.6667 19.1355 17.3334 19.1355 14Z" fill="rgb(0,0,0)" fill-rule="evenodd" />
			<path id="Mask" d="M19.1355 10.6659L19.1355 14C19.1355 17.3334 22.4688 18.6667 22.4688 18.6667C22.4688 18.6667 25.8022 17.3334 25.8022 14L25.8022 10.6659C25.8022 9.92948 25.2052 9.33337 24.4688 9.33337L20.4688 9.33337C19.7324 9.33337 19.1355 9.92948 19.1355 10.6659ZM22.4688 17.9312C22.5277 17.9004 22.5918 17.8655 22.661 17.8263C23.0355 17.6141 23.3783 17.3679 23.6895 17.0878C24.1166 16.7035 24.4506 16.2825 24.6914 15.825C24.8029 15.6131 24.8934 15.3947 24.9629 15.1699C25.078 14.7977 25.1355 14.4078 25.1355 14L25.1355 10.6667C25.1355 10.5747 25.1192 10.4894 25.0867 10.4108C25.0541 10.3322 25.0053 10.2604 24.9402 10.1953C24.8751 10.1302 24.8033 10.0814 24.7247 10.0489C24.6462 10.0163 24.5609 10 24.4688 10L20.4688 10C20.3768 10 20.2915 10.0163 20.2129 10.0489C20.1343 10.0814 20.0625 10.1302 19.9974 10.1953C19.9323 10.2604 19.8835 10.3322 19.851 10.4108C19.8184 10.4894 19.8022 10.5747 19.8022 10.6667L19.8022 12.7467L19.8022 14C19.8022 14.4078 19.8597 14.7977 19.9747 15.1699C20.0442 15.3947 20.1348 15.6131 20.2463 15.825C20.4871 16.2825 20.821 16.7034 21.2481 17.0878C21.5593 17.3679 21.9022 17.6141 22.2767 17.8263C22.3458 17.8655 22.4099 17.9004 22.4688 17.9312Z" fill="rgb(255,255,255)" fill-rule="evenodd" />
		</g>
	</mask>
	<mask id="mask_61" width="6.666667" height="9.333333" x="19.135485" y="9.333374" maskUnits="userSpaceOnUse">
		<g filter="url(#pixso_custom_mask_type_alpha)">
			<path id="Mask" d="M19.1355 14C19.1355 12.9063 19.1355 11.6132 19.1355 10.6659C19.1355 9.92948 19.7324 9.33337 20.4688 9.33337L24.4688 9.33337C25.2052 9.33337 25.8022 9.92948 25.8022 10.6659C25.8022 11.6132 25.8022 12.9063 25.8022 14C25.8022 17.3334 22.4688 18.6667 22.4688 18.6667C22.4688 18.6667 19.1355 17.3334 19.1355 14Z" fill="rgb(143,197,255)" fill-rule="evenodd" />
			<path id="Mask" d="M19.1355 10.6667C19.1355 9.93033 19.7324 9.33337 20.4688 9.33337L24.4688 9.33337C25.2052 9.33337 25.8022 9.93033 25.8022 10.6667C25.8022 11.614 25.8022 12.9066 25.8022 14C25.8022 17.3334 22.4688 18.6667 22.4688 18.6667C22.4688 18.6667 19.1355 17.3334 19.1355 14C19.1355 12.9066 19.1355 11.614 19.1355 10.6667Z" fill-rule="evenodd" stroke="url(#paint_linear_45)" stroke-opacity="0" stroke-width="0.000000" />
		</g>
	</mask>
	<defs>
		<filter id="pixso_custom_mask_type_alpha">
			<feColorMatrix type="matrix" values="0 0 0 0 1 0 0 0 0 1 0 0 0 0 1 0 0 0 1 0 " />
		</filter>
		<linearGradient id="paint_linear_43" x1="1.80217171" x2="1.80217171" y1="4" y2="24" gradientUnits="userSpaceOnUse">
			<stop stop-color="rgb(6.60947,49.3875,156.333)" offset="0" stop-opacity="1" />
			<stop stop-color="rgb(0,36,126)" offset="1" stop-opacity="1" />
		</linearGradient>
		<linearGradient id="paint_linear_44" x1="19.1354847" x2="19.1354847" y1="9.33337402" y2="18.6667061" gradientUnits="userSpaceOnUse">
			<stop stop-color="rgb(255,255,255)" offset="0" stop-opacity="1" />
			<stop stop-color="rgb(239.7,239.7,239.7)" offset="1" stop-opacity="1" />
		</linearGradient>
		<linearGradient id="paint_linear_45" x1="19.1354847" x2="19.1354847" y1="9.33337402" y2="18.6667061" gradientUnits="userSpaceOnUse">
			<stop stop-color="rgb(255,255,255)" offset="0" stop-opacity="1" />
			<stop stop-color="rgb(239.7,239.7,239.7)" offset="1" stop-opacity="1" />
		</linearGradient>
		<linearGradient id="paint_linear_46" x1="19.1354847" x2="19.1354847" y1="9.33337402" y2="18.6667061" gradientUnits="userSpaceOnUse">
			<stop stop-color="rgb(255,207.953,51.3994)" offset="0" stop-opacity="1" />
			<stop stop-color="rgb(254,196,3)" offset="1" stop-opacity="1" />
		</linearGradient>
	</defs>
	<mask id="mask_60" width="28.000000" height="20.000000" x="1.802172" y="4.000000" maskUnits="userSpaceOnUse">
		<g filter="url(#pixso_custom_mask_type_alpha)">
			<rect id="Mask" width="28.000000" height="20.000000" x="1.802172" y="4.000000" rx="3.000000" fill="rgb(255,255,255)" />
			<rect id="Mask" width="28.000000" height="20.000000" x="1.802172" y="4.000000" rx="3.000000" stroke="rgb(150.96,150.96,150.96)" stroke-opacity="0" stroke-width="0.000000" />
		</g>
	</mask>
	<rect id="Saint Helena" width="28.000000" height="28.000000" x="1.802172" y="0.000000" fill="rgb(255,255,255)" fill-opacity="0" />
	<rect id="Mask" width="28.000000" height="20.000000" x="1.802172" y="4.000000" rx="3.000000" fill="rgb(255,255,255)" />
	<rect id="Mask" width="28.000000" height="20.000000" x="1.802172" y="4.000000" rx="3.000000" stroke="rgb(150.96,150.96,150.96)" stroke-opacity="0" stroke-width="0.000000" />
	<g mask="url(#mask_60)">
		<rect id="Mask Copy" width="28.000000" height="20.000000" x="1.802172" y="4.000000" fill="url(#paint_linear_43)" />
		<rect id="Mask Copy" width="28.000000" height="20.000000" x="1.802172" y="4.000000" stroke="rgb(150.96,150.96,150.96)" stroke-opacity="0" stroke-width="0.000000" />
		<g id="Rectangle 1105">
			<g id="Rectangle 1238">
				<path id="Mask" d="M19.1355 14C19.1355 12.9063 19.1355 11.6132 19.1355 10.6659C19.1355 9.92948 19.7324 9.33337 20.4688 9.33337L24.4688 9.33337C25.2052 9.33337 25.8022 9.92948 25.8022 10.6659C25.8022 11.6132 25.8022 12.9063 25.8022 14C25.8022 17.3334 22.4688 18.6667 22.4688 18.6667C22.4688 18.6667 19.1355 17.3334 19.1355 14Z" fill="rgb(143,197,255)" fill-rule="evenodd" />
				<path id="Mask" d="M19.1355 10.6667C19.1355 9.93033 19.7324 9.33337 20.4688 9.33337L24.4688 9.33337C25.2052 9.33337 25.8022 9.93033 25.8022 10.6667C25.8022 11.614 25.8022 12.9066 25.8022 14C25.8022 17.3334 22.4688 18.6667 22.4688 18.6667C22.4688 18.6667 19.1355 17.3334 19.1355 14C19.1355 12.9066 19.1355 11.614 19.1355 10.6667Z" fill-rule="evenodd" stroke="url(#paint_linear_44)" stroke-opacity="0" stroke-width="0.000000" />
				<g mask="url(#mask_61)">
					<path id="Path 61" d="M21.892 15.8836C21.892 15.8836 22.5594 15.0195 22.9519 15.0195C23.3444 15.0195 23.4165 15.5933 24.02 15.5933C24.6236 15.5933 24.9419 14.6788 25.5233 14.6788C26.1046 14.6788 25.5233 17.6789 25.5233 17.6789L24.7355 18.4914L20.1241 19.024L21.892 15.8836Z" fill="rgb(54,108,201)" fill-rule="evenodd" />
					<path id="Path 61" d="M22.9519 15.0195C23.3444 15.0195 23.4165 15.5933 24.02 15.5933C24.6236 15.5933 24.9419 14.6788 25.5233 14.6788C26.1046 14.6788 25.5233 17.6789 25.5233 17.6789L24.7355 18.4914L20.1241 19.024L21.892 15.8836C21.892 15.8836 22.5594 15.0195 22.9519 15.0195Z" fill-rule="evenodd" stroke="rgb(150.96,150.96,150.96)" stroke-opacity="0" stroke-width="0.000000" />
					<path id="Path 61" d="M19.9284 14.5512L20.5169 14L21.0951 15.4157L21.8714 14L22.539 18.0354L21.4288 17.8095L17.8022 16.1514L19.9284 14.5512Z" fill="rgb(207,98,0)" fill-rule="evenodd" />
					<path id="Path 61" d="M20.5169 14L21.0951 15.4157L21.8714 14L22.539 18.0354L21.4288 17.8095L17.8022 16.1514L19.9284 14.5512L20.5169 14Z" fill-rule="evenodd" stroke="rgb(150.96,150.96,150.96)" stroke-opacity="0" stroke-width="0.000000" />
					<rect id="Rectangle 1238" width="6.666667" height="4.000000" x="19.135485" y="9.333374" fill="rgb(255,255,0)" />
					<rect id="Rectangle 1238" width="6.666667" height="4.000000" x="19.135485" y="9.333374" stroke="rgb(150.96,150.96,150.96)" stroke-opacity="0" stroke-width="0.000000" />
				</g>
			</g>
			<path id="Mask" d="M19.1355 14C19.1355 12.9063 19.1355 11.6132 19.1355 10.6659C19.1355 9.92948 19.7324 9.33337 20.4688 9.33337L24.4688 9.33337C25.2052 9.33337 25.8022 9.92948 25.8022 10.6659C25.8022 11.6132 25.8022 12.9063 25.8022 14C25.8022 17.3334 22.4688 18.6667 22.4688 18.6667C22.4688 18.6667 19.1355 17.3334 19.1355 14Z" fill="url(#paint_linear_46)" fill-opacity="0" fill-rule="evenodd" />
			<path id="Mask" d="M19.1355 10.6659L19.1355 14C19.1355 17.3334 22.4688 18.6667 22.4688 18.6667C22.4688 18.6667 25.8022 17.3334 25.8022 14L25.8022 10.6659C25.8022 9.92948 25.2052 9.33337 24.4688 9.33337L20.4688 9.33337C19.7324 9.33337 19.1355 9.92948 19.1355 10.6659ZM22.4688 17.9312C22.5277 17.9004 22.5918 17.8655 22.661 17.8263C23.0355 17.6141 23.3783 17.3679 23.6895 17.0878C24.1166 16.7035 24.4506 16.2825 24.6914 15.825C24.8029 15.6131 24.8934 15.3947 24.9629 15.1699C25.078 14.7977 25.1355 14.4078 25.1355 14L25.1355 10.6667C25.1355 10.5747 25.1192 10.4894 25.0867 10.4108C25.0541 10.3322 25.0053 10.2604 24.9402 10.1953C24.8751 10.1302 24.8033 10.0814 24.7247 10.0489C24.6462 10.0163 24.5609 10 24.4688 10L20.4688 10C20.3768 10 20.2915 10.0163 20.2129 10.0489C20.1343 10.0814 20.0625 10.1302 19.9974 10.1953C19.9323 10.2604 19.8835 10.3322 19.851 10.4108C19.8184 10.4894 19.8022 10.5747 19.8022 10.6667L19.8022 12.7467L19.8022 14C19.8022 14.4078 19.8597 14.7977 19.9747 15.1699C20.0442 15.3947 20.1348 15.6131 20.2463 15.825C20.4871 16.2825 20.821 16.7034 21.2481 17.0878C21.5593 17.3679 21.9022 17.6141 22.2767 17.8263C22.3458 17.8655 22.4099 17.9004 22.4688 17.9312Z" fill="rgb(255,255,255)" fill-rule="evenodd" />
			<g mask="url(#mask_62)" />
		</g>
		<path id="Rectangle 36" d="M6.46884 8L1.80217 4L2.46884 4L7.13551 7.33333L8.46884 7.33333L13.8022 4L13.8022 4.49513C13.8022 4.60278 13.7502 4.7038 13.6626 4.76637L9.13551 8L9.13551 9.33333L13.3496 12.9455C13.5051 13.0787 13.4109 13.3333 13.2062 13.3333L13.2062 13.3333C13.1602 13.3333 13.1154 13.319 13.078 13.2923L8.46884 10L7.13551 10L1.80217 13.3333L1.80217 12.6667L6.46884 9.33333L6.46884 8Z" fill="rgb(219,30,54)" fill-rule="evenodd" />
		<path id="Rectangle 36" d="M2.68248 3.33333L1.19209e-07 3.33333L5.80217 8.30662L5.80217 8.99026L1.1355 12.3236L1.1355 14.5362L7.3267 10.6667L8.25519 10.6667L12.6905 13.8348C12.7676 13.8898 12.8492 13.9311 12.9351 13.9587C13.021 13.9862 13.1114 14 13.2062 14C13.3096 14 13.4074 13.9839 13.4996 13.9518C13.5817 13.9232 13.6593 13.882 13.7325 13.828C13.8007 13.7777 13.8596 13.7203 13.9093 13.6558C13.9631 13.5858 14.0061 13.5074 14.0382 13.4206C14.0703 13.3339 14.0887 13.2464 14.0933 13.1582C14.0976 13.0769 14.0902 12.995 14.0712 12.9125C14.0508 12.8238 14.0187 12.742 13.975 12.6669C13.9259 12.5824 13.862 12.5066 13.7835 12.4393L9.80217 9.02671L9.80217 8.34308L14.0501 5.30886C14.1158 5.26194 14.1743 5.2088 14.2256 5.14944C14.2769 5.09008 14.3211 5.0245 14.358 4.95271C14.395 4.88091 14.4227 4.80688 14.4411 4.7306C14.4596 4.65435 14.4688 4.57586 14.4688 4.49513L14.4688 2.79717L8.27764 6.66667L7.34915 6.66667L2.68248 3.33333ZM7.13551 7.33333L4.6152 5.53312L2.46884 4L1.80217 4L2.21567 4.35443L2.46884 4.57143L4.20372 6.05847L6.46884 8L6.46884 9.33333L1.80217 12.6667L1.80217 13.3333L2.13139 13.1276L2.46884 12.9167L3.51132 12.2651L7.13551 10L8.46884 10L10.9891 11.8002L12.7622 13.0667L13.078 13.2923C13.1154 13.319 13.1602 13.3333 13.2062 13.3333C13.4109 13.3333 13.5051 13.0787 13.3496 12.9455L13.0551 12.693L11.4006 11.2749L9.13551 9.33333L9.13551 8L12.4638 5.62265L13.6626 4.76637C13.7502 4.7038 13.8022 4.60278 13.8022 4.49513L13.8022 4L13.1449 4.41077L13.1355 4.41667L12.093 5.06822L8.46884 7.33333L7.13551 7.33333Z" fill="rgb(255,255,255)" fill-rule="evenodd" />
		<path id="Rectangle 2" d="M1.80217 7.33333L1.80217 10L6.46884 10L6.46884 13.3333C6.46884 13.7015 6.76731 14 7.1355 14L8.46884 14C8.83703 14 9.13551 13.7015 9.13551 13.3333L9.13551 10L13.8022 10C14.1704 10 14.4688 9.70152 14.4688 9.33333L14.4688 8C14.4688 7.63181 14.1704 7.33333 13.8022 7.33333L9.13551 7.33333L9.13551 4L6.46884 4L6.46884 7.33333L1.80217 7.33333Z" fill="rgb(255,255,255)" fill-rule="evenodd" />
		<path id="Rectangle 2" d="M1.80217 10L6.46884 10L6.46884 13.3333C6.46884 13.7015 6.76731 14 7.1355 14L8.46884 14C8.83703 14 9.13551 13.7015 9.13551 13.3333L9.13551 10L13.8022 10C14.1704 10 14.4688 9.70152 14.4688 9.33333L14.4688 8C14.4688 7.63181 14.1704 7.33333 13.8022 7.33333L9.13551 7.33333L9.13551 4L6.46884 4L6.46884 7.33333L1.80217 7.33333L1.80217 10Z" fill-rule="evenodd" stroke="rgb(150.96,150.96,150.96)" stroke-opacity="0" stroke-width="0.000000" />
		<path id="Rectangle 36" d="M1.80217 8L7.13551 8L7.13551 7.33333L7.13551 4L8.46884 4L8.46884 7.33333L8.46884 8L13.8022 8L13.8022 9.33333L8.46884 9.33333L8.46884 10L8.46884 13.3333L7.13551 13.3333L7.13551 10L7.13551 9.33333L1.80217 9.33333L1.80217 8Z" fill="rgb(219,30,54)" fill-rule="evenodd" />
		<path id="Rectangle 36" d="M7.13551 8L7.13551 7.33333L7.13551 4L8.46884 4L8.46884 7.33333L8.46884 8L13.8022 8L13.8022 9.33333L8.46884 9.33333L8.46884 10L8.46884 13.3333L7.13551 13.3333L7.13551 10L7.13551 9.33333L1.80217 9.33333L1.80217 8L7.13551 8Z" fill-rule="evenodd" stroke="rgb(150.96,150.96,150.96)" stroke-opacity="0" stroke-width="0.000000" />
	</g>
</svg>
