<svg width="29.000000" height="28.000000" viewBox="0 0 29 28" fill="none" xmlns="http://www.w3.org/2000/svg" xmlns:xlink="http://www.w3.org/1999/xlink">
	<desc>
			Created with Pixso.
	</desc>
	<defs>
		<linearGradient id="paint_linear_17_4598_0" x1="1.000000" y1="4.000000" x2="1.000000" y2="24.000000" gradientUnits="userSpaceOnUse">
			<stop stop-color="#07319C"/>
			<stop offset="1.000000" stop-color="#00247E"/>
		</linearGradient>
		<linearGradient id="paint_linear_17_4601_0" x1="18.333313" y1="9.333374" x2="18.333313" y2="18.666706" gradientUnits="userSpaceOnUse">
			<stop stop-color="#FFFFFF"/>
			<stop offset="1.000000" stop-color="#F0F0F0"/>
		</linearGradient>
		<linearGradient id="paint_linear_17_4602_0" x1="18.333313" y1="9.333374" x2="18.333313" y2="18.666706" gradientUnits="userSpaceOnUse">
			<stop stop-color="#FFFFFF"/>
			<stop offset="1.000000" stop-color="#F0F0F0"/>
		</linearGradient>
		<linearGradient id="paint_linear_17_4606_0" x1="18.333313" y1="9.333374" x2="18.333313" y2="18.666706" gradientUnits="userSpaceOnUse">
			<stop stop-color="#FFD033"/>
			<stop offset="1.000000" stop-color="#FEC403"/>
		</linearGradient>
	</defs>
	<rect id="Saint Helena" width="28.000000" height="28.000000" transform="translate(1.000000 0.000000)" fill="#FFFFFF" fill-opacity="0"/>
	<rect id="Mask" x="1.000000" y="4.000000" rx="3.000000" width="28.000000" height="20.000000" fill="#FFFFFF" fill-opacity="1.000000"/>
	<rect id="Mask" x="1.000000" y="4.000000" rx="3.000000" width="28.000000" height="20.000000" stroke="#979797" stroke-opacity="0" stroke-width="0.000000"/>
	<mask id="mask17_4597" mask-type="alpha" maskUnits="userSpaceOnUse" x="1.000000" y="4.000000" width="28.000000" height="20.000000">
		<rect id="Mask" x="1.000000" y="4.000000" rx="3.000000" width="28.000000" height="20.000000" fill="#FFFFFF" fill-opacity="1.000000"/>
		<rect id="Mask" x="1.000000" y="4.000000" rx="3.000000" width="28.000000" height="20.000000" stroke="#979797" stroke-opacity="0" stroke-width="0.000000"/>
	</mask>
	<g mask="url(#mask17_4597)">
		<rect id="Mask Copy" x="1.000000" y="4.000000" width="28.000000" height="20.000000" fill="url(#paint_linear_17_4598_0)" fill-opacity="1.000000"/>
		<rect id="Mask Copy" x="1.000000" y="4.000000" width="28.000000" height="20.000000" stroke="#979797" stroke-opacity="0" stroke-width="0.000000"/>
	</g>
	<g mask="url(#mask17_4597)">
		<path id="Mask" d="M18.33 14C18.33 12.9 18.33 11.61 18.33 10.66C18.33 9.92 18.93 9.33 19.66 9.33L23.66 9.33C24.4 9.33 25 9.92 25 10.66C25 11.61 25 12.9 25 14C25 17.33 21.66 18.66 21.66 18.66C21.66 18.66 18.33 17.33 18.33 14Z" fill="#8FC5FF" fill-opacity="1.000000" fill-rule="evenodd"/>
		<path id="Mask" d="M18.33 10.66C18.33 9.93 18.93 9.33 19.66 9.33L23.66 9.33C24.4 9.33 25 9.93 25 10.66C25 11.61 25 12.9 25 14C25 17.33 21.66 18.66 21.66 18.66C21.66 18.66 18.33 17.33 18.33 14C18.33 12.9 18.33 11.61 18.33 10.66Z" stroke="url(#paint_linear_17_4601_0)" stroke-opacity="0" stroke-width="0.000000"/>
		<mask id="mask17_4602" mask-type="alpha" maskUnits="userSpaceOnUse" x="18.333313" y="9.333374" width="6.666666" height="9.333332">
			<path id="Mask" d="M18.33 14C18.33 12.9 18.33 11.61 18.33 10.66C18.33 9.92 18.93 9.33 19.66 9.33L23.66 9.33C24.4 9.33 25 9.92 25 10.66C25 11.61 25 12.9 25 14C25 17.33 21.66 18.66 21.66 18.66C21.66 18.66 18.33 17.33 18.33 14Z" fill="#8FC5FF" fill-opacity="1.000000" fill-rule="evenodd"/>
			<path id="Mask" d="M18.33 10.66C18.33 9.93 18.93 9.33 19.66 9.33L23.66 9.33C24.4 9.33 25 9.93 25 10.66C25 11.61 25 12.9 25 14C25 17.33 21.66 18.66 21.66 18.66C21.66 18.66 18.33 17.33 18.33 14C18.33 12.9 18.33 11.61 18.33 10.66Z" stroke="url(#paint_linear_17_4602_0)" stroke-opacity="0" stroke-width="0.000000"/>
		</mask>
		<g mask="url(#mask17_4602)">
			<path id="Path 61" d="M21.08 15.88C21.08 15.88 21.75 15.01 22.14 15.01C22.54 15.01 22.61 15.59 23.21 15.59C23.82 15.59 24.13 14.67 24.72 14.67C25.3 14.67 24.72 17.67 24.72 17.67L23.93 18.49L19.32 19.02L21.08 15.88Z" fill="#366CC9" fill-opacity="1.000000" fill-rule="evenodd"/>
			<path id="Path 61" d="M22.14 15.01C22.54 15.01 22.61 15.59 23.21 15.59C23.82 15.59 24.13 14.67 24.72 14.67C25.3 14.67 24.72 17.67 24.72 17.67L23.93 18.49L19.32 19.02L21.08 15.88C21.08 15.88 21.75 15.01 22.14 15.01Z" stroke="#979797" stroke-opacity="0" stroke-width="0.000000"/>
		</g>
		<g mask="url(#mask17_4602)">
			<path id="Path 61" d="M19.12 14.55L19.71 14L20.29 15.41L21.06 14L21.73 18.03L20.62 17.8L17 16.15L19.12 14.55Z" fill="#CF6200" fill-opacity="1.000000" fill-rule="evenodd"/>
			<path id="Path 61" d="M19.71 14L20.29 15.41L21.06 14L21.73 18.03L20.62 17.8L17 16.15L19.12 14.55L19.71 14Z" stroke="#979797" stroke-opacity="0" stroke-width="0.000000"/>
		</g>
		<g mask="url(#mask17_4602)">
			<rect id="Rectangle 1238" x="18.333313" y="9.333374" width="6.666667" height="4.000000" fill="#FFFF00" fill-opacity="1.000000"/>
			<rect id="Rectangle 1238" x="18.333313" y="9.333374" width="6.666667" height="4.000000" stroke="#979797" stroke-opacity="0" stroke-width="0.000000"/>
		</g>
		<path id="Mask" d="M18.33 14C18.33 12.9 18.33 11.61 18.33 10.66C18.33 9.92 18.93 9.33 19.66 9.33L23.66 9.33C24.4 9.33 25 9.92 25 10.66C25 11.61 25 12.9 25 14C25 17.33 21.66 18.66 21.66 18.66C21.66 18.66 18.33 17.33 18.33 14Z" fill="url(#paint_linear_17_4606_0)" fill-opacity="0" fill-rule="evenodd"/>
		<path id="Mask" d="M18.33 14L18.33 10.66C18.33 9.92 18.93 9.33 19.66 9.33L23.66 9.33C24.4 9.33 25 9.92 25 10.66L25 14C25 17.33 21.66 18.66 21.66 18.66C21.66 18.66 18.33 17.33 18.33 14ZM21.66 17.93Q21.75 17.88 21.85 17.82Q22.42 17.5 22.88 17.08Q23.52 16.51 23.88 15.82Q24.05 15.5 24.16 15.16Q24.33 14.61 24.33 14L24.33 10.66Q24.33 10.52 24.28 10.41Q24.23 10.29 24.13 10.19Q24.04 10.09 23.92 10.04Q23.8 10 23.66 10L19.66 10Q19.52 10 19.41 10.04Q19.29 10.09 19.19 10.19Q19.09 10.29 19.04 10.41Q19 10.52 19 10.66L19 12.74L19 14Q19 14.61 19.17 15.16Q19.27 15.5 19.44 15.82Q19.8 16.51 20.44 17.08Q20.91 17.5 21.47 17.82Q21.57 17.88 21.66 17.93Z" fill="#FFFFFF" fill-opacity="1.000000" fill-rule="evenodd"/>
		<mask id="mask17_4607" mask-type="alpha" maskUnits="userSpaceOnUse" x="18.333313" y="9.333374" width="6.666666" height="9.333332">
			<path id="Mask" d="M18.33 14C18.33 12.9 18.33 11.61 18.33 10.66C18.33 9.92 18.93 9.33 19.66 9.33L23.66 9.33C24.4 9.33 25 9.92 25 10.66C25 11.61 25 12.9 25 14C25 17.33 21.66 18.66 21.66 18.66C21.66 18.66 18.33 17.33 18.33 14Z" fill="#000000" fill-opacity="1.000000" fill-rule="evenodd"/>
			<path id="Mask" d="M18.33 14L18.33 10.66C18.33 9.92 18.93 9.33 19.66 9.33L23.66 9.33C24.4 9.33 25 9.92 25 10.66L25 14C25 17.33 21.66 18.66 21.66 18.66C21.66 18.66 18.33 17.33 18.33 14ZM21.66 17.93Q21.75 17.88 21.85 17.82Q22.42 17.5 22.88 17.08Q23.52 16.51 23.88 15.82Q24.05 15.5 24.16 15.16Q24.33 14.61 24.33 14L24.33 10.66Q24.33 10.52 24.28 10.41Q24.23 10.29 24.13 10.19Q24.04 10.09 23.92 10.04Q23.8 10 23.66 10L19.66 10Q19.52 10 19.41 10.04Q19.29 10.09 19.19 10.19Q19.09 10.29 19.04 10.41Q19 10.52 19 10.66L19 12.74L19 14Q19 14.61 19.17 15.16Q19.27 15.5 19.44 15.82Q19.8 16.51 20.44 17.08Q20.91 17.5 21.47 17.82Q21.57 17.88 21.66 17.93Z" fill="#FFFFFF" fill-opacity="1.000000" fill-rule="evenodd"/>
		</mask>
	</g>
	<g mask="url(#mask17_4597)">
		<path id="Rectangle 36" d="M5.66 8L1 4L1.66 4L6.33 7.33L7.66 7.33L13 4L13 4.49C13 4.6 12.94 4.7 12.86 4.76L8.33 8L8.33 9.33L12.54 12.94C12.7 13.07 12.6 13.33 12.4 13.33L12.4 13.33C12.35 13.33 12.31 13.31 12.27 13.29L7.66 10L6.33 10L1 13.33L1 12.66L5.66 9.33L5.66 8Z" fill="#DB1E36" fill-opacity="1.000000" fill-rule="evenodd"/>
		<path id="Rectangle 36" d="M1.88 3.33L-0.81 3.33L5 8.3L5 8.99L0.33 12.32L0.33 14.53L6.52 10.66L7.45 10.66L11.88 13.83Q12 13.91 12.13 13.95Q12.26 14 12.4 14Q12.55 14 12.69 13.95Q12.82 13.9 12.93 13.82Q13.03 13.75 13.1 13.65Q13.18 13.55 13.23 13.42Q13.28 13.29 13.29 13.15Q13.29 13.03 13.26 12.91Q13.23 12.77 13.17 12.66Q13.09 12.54 12.98 12.43L9 9.02L9 8.34L13.24 5.3Q13.34 5.23 13.42 5.14Q13.5 5.06 13.55 4.95Q13.61 4.84 13.63 4.73Q13.66 4.61 13.66 4.49L13.66 2.79L7.47 6.66L6.54 6.66L1.88 3.33ZM6.33 7.33L3.81 5.53L1.66 4L1 4L1.41 4.35L1.66 4.57L3.4 6.05L5.66 8L5.66 9.33L1 12.66L1 13.33L1.32 13.12L1.66 12.91L2.7 12.26L6.33 10L7.66 10L10.18 11.8L11.96 13.06L12.27 13.29C12.31 13.31 12.35 13.33 12.4 13.33C12.6 13.33 12.7 13.07 12.54 12.94L12.25 12.69L10.59 11.27L8.33 9.33L8.33 8L11.66 5.62L12.86 4.76C12.94 4.7 13 4.6 13 4.49L13 4L12.34 4.41L12.33 4.41L11.29 5.06L7.66 7.33L6.33 7.33Z" fill="#FFFFFF" fill-opacity="1.000000" fill-rule="evenodd"/>
	</g>
	<g mask="url(#mask17_4597)">
		<path id="Rectangle 2" d="M1 7.33L1 10L5.66 10L5.66 13.33C5.66 13.7 5.96 14 6.33 14L7.66 14C8.03 14 8.33 13.7 8.33 13.33L8.33 10L13 10C13.36 10 13.66 9.7 13.66 9.33L13.66 8C13.66 7.63 13.36 7.33 13 7.33L8.33 7.33L8.33 4L5.66 4L5.66 7.33L1 7.33Z" fill="#FFFFFF" fill-opacity="1.000000" fill-rule="evenodd"/>
		<path id="Rectangle 2" d="M1 10L5.66 10L5.66 13.33C5.66 13.7 5.96 14 6.33 14L7.66 14C8.03 14 8.33 13.7 8.33 13.33L8.33 10L13 10C13.36 10 13.66 9.7 13.66 9.33L13.66 8C13.66 7.63 13.36 7.33 13 7.33L8.33 7.33L8.33 4L5.66 4L5.66 7.33L1 7.33L1 10Z" stroke="#979797" stroke-opacity="0" stroke-width="0.000000"/>
	</g>
	<g mask="url(#mask17_4597)">
		<path id="Rectangle 36" d="M1 8L6.33 8L6.33 7.33L6.33 4L7.66 4L7.66 7.33L7.66 8L13 8L13 9.33L7.66 9.33L7.66 10L7.66 13.33L6.33 13.33L6.33 10L6.33 9.33L1 9.33L1 8Z" fill="#DB1E36" fill-opacity="1.000000" fill-rule="evenodd"/>
		<path id="Rectangle 36" d="M6.33 8L6.33 7.33L6.33 4L7.66 4L7.66 7.33L7.66 8L13 8L13 9.33L7.66 9.33L7.66 10L7.66 13.33L6.33 13.33L6.33 10L6.33 9.33L1 9.33L1 8L6.33 8Z" stroke="#979797" stroke-opacity="0" stroke-width="0.000000"/>
	</g>
</svg>
