<svg viewBox="0 0 28 28" xmlns="http://www.w3.org/2000/svg" xmlns:xlink="http://www.w3.org/1999/xlink" width="28.000000" height="28.000000" fill="none">
	<rect id="Saint Barthelemy" width="28.000000" height="28.000000" x="0.000000" y="0.000000" fill="rgb(255,255,255)" fill-opacity="0" transform="matrix(-1,-6.12324e-17,6.12324e-17,-1,28,28)" />
	<path id="Vector" d="M23.3333 0L0 0L0 23.3333L23.3333 23.3333L23.3333 0Z" opacity="0" fill="rgb(96,96,96)" fill-rule="evenodd" transform="matrix(-1,-6.12324e-17,6.12324e-17,-1,25.6666,25.6666)" />
	<rect id="Mask Copy" width="28.000000" height="20.000000" x="0.000000" y="4.000000" rx="3.000000" fill="rgb(255,255,255)" />
	<rect id="Mask Copy" width="27.500000" height="19.500000" x="0.250000" y="4.250000" rx="2.750000" stroke="rgb(245,245,245)" stroke-width="0.5" />
	<g id="Flag_of_Saint_BartheÌlemy_(Local) 1">
		<g id="elm1">
			<path id="Vector" d="M7.0607 18.7464C7.05952 18.7515 7.09154 18.793 7.13186 18.8385C7.24157 18.9624 7.33804 19.015 7.68061 19.1381C7.84026 19.1954 8.03305 19.2733 8.10903 19.3113C8.2601 19.3866 8.34559 19.4533 8.44637 19.4514C8.51801 19.4501 8.69816 19.4229 8.70194 19.4066C8.70501 19.3932 8.45062 19.2054 8.33506 19.1319C8.13344 19.0036 7.9589 18.9491 7.69527 18.9321C7.4492 18.9163 7.29938 18.8703 7.06676 18.7393C7.0646 18.7381 7.06188 18.7413 7.0607 18.7464Z" fill="rgb(234,190,78)" fill-rule="nonzero" />
			<path id="Vector" d="M8.58567 19.4256C8.32971 19.4253 7.44886 19.1264 7.38032 19.2926C7.36488 19.3301 7.39362 19.3989 7.43657 19.4274C7.79558 19.6655 8.46965 19.8522 8.90002 19.8364C9.00103 19.8327 8.7142 19.4129 8.67737 19.3829C8.67737 19.3829 8.65002 19.4256 8.58567 19.4256Z" fill="rgb(226,9,9)" fill-rule="nonzero" />
			<path id="Vector" d="M9.30132 19.786C9.23997 19.7831 9.02578 19.7761 8.60043 19.7304C8.17893 19.6851 7.78659 19.5954 7.55282 19.4909C7.4452 19.4428 7.40392 19.3793 7.42523 19.4263C7.44586 19.4719 7.48702 19.8012 7.48392 19.9259C7.47837 20.1486 7.38011 20.4702 7.2728 20.6168C7.2448 20.6551 7.24147 20.668 7.25605 20.6816C7.40896 20.8252 7.6828 20.8169 7.6828 20.8169C7.91355 20.8109 8.86846 20.7863 9.08563 21.1306C9.0896 21.1369 10.5994 20.2415 10.603 20.226C10.607 20.2089 10.6452 20.1619 10.6634 20.1464C10.7105 20.1062 10.4902 19.9907 10.4589 19.9759C10.1428 19.8261 9.30132 19.786 9.30132 19.786Z" fill="rgb(234,190,78)" fill-rule="nonzero" />
			<path id="Vector" d="M6.88161 19.4632C6.94916 19.5651 7.08906 19.665 7.25607 19.7306C7.46484 19.8125 7.52864 19.8342 7.50882 19.7066L7.48705 19.6145L7.25513 19.5682C7.09337 19.531 7.05481 19.5178 6.96679 19.4699C6.93218 19.4494 6.89606 19.4317 6.85873 19.4167C6.85519 19.4179 6.86548 19.4388 6.88161 19.4632Z" fill="rgb(234,190,78)" fill-rule="nonzero" />
		</g>
		<g id="elm1">
			<path id="Vector" d="M3.16407e-05 0.00739466C-0.00114913 0.0125251 0.0308667 0.0539717 0.0711866 0.0994873C0.180897 0.223367 0.277373 0.276035 0.619943 0.399062C0.779592 0.456401 0.972377 0.534328 1.04836 0.572241C1.19943 0.647618 1.28492 0.714317 1.3857 0.712411C1.45734 0.711055 1.63749 0.683903 1.64127 0.667552C1.64434 0.654232 1.38995 0.466411 1.27439 0.392871C1.07277 0.264571 0.898227 0.210073 0.6346 0.193109C0.388532 0.177276 0.238707 0.131303 0.00608772 0.000250731C0.00393242 -0.00094723 0.00120898 0.00226422 3.16407e-05 0.00739466Z" fill="rgb(234,190,78)" fill-rule="nonzero" transform="matrix(-1,0,0,1,20.9398,18.7023)" />
			<path id="Vector" d="M1.20957 0.183324C0.953613 0.182984 0.072764 -0.115901 0.00422478 0.0502978C-0.0112181 0.0877491 0.0175169 0.156624 0.0604751 0.185113C0.419482 0.42321 1.09355 0.609872 1.52393 0.594128C1.62493 0.590433 1.33811 0.170605 1.30127 0.140625C1.30127 0.140625 1.27393 0.183324 1.20957 0.183324Z" fill="rgb(226,9,9)" fill-rule="nonzero" transform="matrix(-1,0,0,1,20.6099,19.2102)" />
			<path id="Vector" d="M2.05376 0.376221C1.99241 0.373299 1.77822 0.366321 1.35287 0.320618C0.93137 0.275327 0.539034 0.185631 0.305258 0.0811128C0.197639 0.0329881 0.15636 -0.0305274 0.17767 0.01653C0.198305 0.0620989 0.239464 0.391415 0.236358 0.516158C0.230816 0.738771 0.132547 1.06037 0.0252444 1.20703C-0.00276073 1.24531 -0.00608703 1.25818 0.00849131 1.27186C0.161404 1.41537 0.435239 1.40708 0.435239 1.40708C0.665991 1.40112 1.69648 1.42438 1.91365 1.76869C1.91762 1.77498 3.3518 0.831683 3.35543 0.816197C3.35941 0.799148 3.3976 0.752069 3.4158 0.736571C3.46297 0.696424 3.24267 0.580941 3.21135 0.566096C2.89528 0.416318 2.05376 0.376221 2.05376 0.376221Z" fill="rgb(234,190,78)" fill-rule="nonzero" transform="matrix(-1,0,0,1,20.7529,19.373)" />
			<path id="Vector" d="M1.48633 0.145508C1.68164 0.141602 1.68381 -0.00682804 1.73132 0.000299567C1.73143 0.001461 1.77813 0.502523 1.73132 0.572329C1.5837 0.599982 0.00616808 0.446916 1.5406e-05 0.262266C-0.00467327 0.121555 0.388672 0.0595703 0.720863 0.0559883C1.05305 0.0524062 1.29102 0.149414 1.48633 0.145508Z" fill="rgb(226,9,9)" fill-rule="evenodd" transform="matrix(-1,0,0,1,19.0531,20.0963)" />
			<path id="Vector" d="M10.4343 20.2727C10.6296 20.2688 10.6318 20.1204 10.6793 20.1275C10.6794 20.1287 10.7261 20.6297 10.6793 20.6995C10.5317 20.7272 8.95417 20.5741 8.94801 20.3895C8.94333 20.2488 9.33667 20.1868 9.66886 20.1832C10.0011 20.1796 10.239 20.2766 10.4343 20.2727Z" fill="rgb(226,9,9)" fill-rule="evenodd" />
			<path id="Vector" d="M0.02358 0.0464282C0.0911265 0.148368 0.231033 0.248282 0.398037 0.313831C0.606807 0.395776 0.670605 0.417445 0.65079 0.289827L0.629021 0.197703L0.3971 0.151468C0.235341 0.114226 0.196777 0.101079 0.108755 0.0531567C0.0741483 0.0327016 0.0380236 0.0149298 0.000698495 0C-0.00284554 0.00119109 0.00744968 0.022084 0.02358 0.0464282Z" fill="rgb(234,190,78)" fill-rule="nonzero" transform="matrix(-1,0,0,1,21.1403,19.3732)" />
		</g>
		<path id="Vector" d="M12.8908 20.3835C12.6679 20.399 12.292 20.4297 12.0555 20.4516C10.2691 20.6172 9.7418 20.6109 9.04416 20.434C8.99605 20.4218 8.95315 20.4118 8.94882 20.4118C8.9445 20.4118 8.95233 20.4309 8.96623 20.4541C9.01067 20.5286 9.04191 20.6448 9.06139 20.8082C9.08379 20.9961 9.06059 21.2617 9.00552 21.4479C8.95701 21.6119 8.95622 21.6065 9.03237 21.6331C9.76386 21.656 10.5515 21.5331 11.3112 21.4948C12.8978 21.4213 14.5083 21.4213 16.1327 21.4949C16.6634 21.519 17.1119 21.5488 17.8044 21.6061C18.1545 21.6369 18.6612 21.7163 18.9033 21.6055C18.9086 21.5938 18.8918 21.5547 18.8872 21.5161C18.8521 21.225 18.8354 20.8455 18.9258 20.5755C18.9446 20.5194 19.0703 20.3401 19.0518 20.3577C19.0108 20.3967 18.9149 20.4152 18.8965 20.4221C18.2533 20.5357 18.0574 20.53 17.3988 20.5183C16.7209 20.5009 16.3646 20.5223 15.471 20.4467C14.9588 20.4033 14.2756 20.3586 13.9907 20.3498C13.7362 20.3419 13.2927 20.3555 12.8908 20.3835Z" fill="rgb(234,190,78)" fill-rule="nonzero" />
		<path id="Vector" d="M18.2034 9.59375L9.76477 9.59375L9.76477 10.1912L18.2034 10.1912L18.2034 9.59375Z" fill="rgb(102,102,102)" fill-rule="nonzero" />
		<path id="Vector" d="M9.76477 9.59375L9.76477 10.1912L18.2034 10.1912L18.2034 9.59375L9.76477 9.59375Z" fill-rule="nonzero" stroke="rgb(85,34,0)" stroke-width="0.0257810839" />
		<path id="Vector" d="M9.76481 10.1918L8.80964 7.9442L8.64911 7.99299L8.29846 7.18973L8.94257 6.99943L9.08842 7.37651L9.39939 7.28433L9.2663 6.91469L9.92231 6.76338L10.0389 7.1485L10.3619 7.08632L10.2501 6.69743L10.908 6.58273L10.9981 6.97451L11.4333 6.91287L11.4711 7.11088L11.6327 7.09043L11.5995 6.8934L11.9329 6.85001L11.967 7.05042L12.13 7.03398L12.1055 6.83198L12.4367 6.80173L12.4645 7.00357L12.7868 6.97885L12.728 6.38119L13.3955 6.34708L13.4174 6.74031L13.7357 6.73546L13.7299 6.3385L14.4002 6.33853L14.3899 6.74031L14.7139 6.74694L14.7375 6.34705L15.4034 6.37631L15.3426 6.98245L15.6647 7.00475L15.6926 6.80498L16.0229 6.8353L15.9967 7.03538L16.1632 7.05169L16.1933 6.85654L16.5256 6.89212L16.4937 7.09154L16.6583 7.11439L16.6981 6.91513L17.1284 6.97878L17.2196 6.5838L17.8767 6.69848L17.7748 7.09461L18.0849 7.15548L18.2051 6.76555L18.8599 6.91388L18.7236 7.29865L19.0357 7.38387L19.1864 6.99888L19.833 7.18327L19.4823 7.98656L19.2056 7.8954L18.2329 10.1919C15.5467 9.41901 12.3587 9.41579 9.76481 10.1918Z" fill="rgb(234,206,36)" fill-rule="nonzero" />
		<path id="Vector" d="M13.786 8.33218L13.786 7.61983C13.786 7.3349 14.2986 7.3349 14.2986 7.61983L14.2986 8.33218" fill="rgb(94,82,14)" fill-rule="nonzero" />
		<path id="Vector" d="M10.0437 8.81606L9.82254 8.12798C9.73412 7.85278 10.2292 7.74216 10.3177 8.01739L10.5388 8.70547" fill="rgb(94,82,14)" fill-rule="nonzero" />
		<path id="Vector" d="M17.5042 8.67981L17.7252 7.99177C17.8138 7.71654 18.3088 7.82713 18.2204 8.10233L17.9993 8.79041" fill="rgb(94,82,14)" fill-rule="nonzero" />
		<path id="Vector" d="M9.7655 10.1917C9.74304 11.6304 9.74304 13.0693 9.7655 14.5082C9.78579 15.8943 9.85376 16.9761 10.4641 17.8219C11.1993 18.8407 12.4241 19.576 13.9996 20.2984C15.5751 19.576 16.7999 18.8407 17.5351 17.8219C18.1454 16.9761 18.2134 15.8943 18.2337 14.5082C18.2549 13.0694 18.2549 11.6306 18.2337 10.1917L9.7655 10.1917Z" fill="rgb(19,83,180)" fill-rule="nonzero" />
		<path id="Vector" d="M18.1154 16.308C18.1182 15.9482 18.193 15.7774 18.1931 15.4177C18.2304 14.6958 18.2447 13.9788 18.2334 13.2594L9.76524 13.2594C9.75395 13.9788 9.76824 14.6894 9.80551 15.4177C9.80564 15.7774 9.8826 15.9483 9.88531 16.308L18.1154 16.308Z" fill="rgb(206,15,37)" fill-rule="nonzero" />
		<path id="Vector" d="M9.75269 13.2405L18.2451 13.2405M9.87939 16.3079L18.115 16.3079" fill-rule="nonzero" stroke="rgb(85,68,0)" stroke-width="0.0257810839" />
		<path id="Vector" d="M12.9438 15.2254L13.9722 14.8065L13.5532 15.8348L14.0102 15.5302L14.4673 15.8348L14.0483 14.8065L15.0767 15.2254L14.772 14.7684L15.0767 14.3114L14.0483 14.7303L14.4673 13.702L14.0102 14.0067L13.5532 13.702L13.9722 14.7303L12.9438 14.3114L13.2485 14.7684L12.9438 15.2254Z" fill="rgb(255,255,255)" fill-rule="nonzero" />
		<g id="bird">
			<path id="Vector" d="M0.0220171 0.237069C0.0110172 1.48339 0 1.52749 0 1.52749C0.545899 2.06241 0.610667 2.25835 0.771993 2.43193C0.981526 2.12859 1.30688 2.2499 1.30688 2.2499C1.37309 1.96318 1.72053 1.71501 1.72053 1.71501C1.23525 1.67643 0.39702 1.42819 0.330845 1.32896C0.111068 0.999299 0.413548 0 0.413548 0L0.0220171 0.237069Z" fill="rgb(234,206,36)" fill-rule="nonzero" transform="matrix(-1,0,0,1,20.8127,17.7634)" />
			<path id="Vector" d="M0.538115 0.413295L0 0L0.639482 0.382088" fill="rgb(234,206,36)" fill-rule="nonzero" transform="matrix(-1,0,0,1,20.1326,19.5396)" />
			<path id="Vector" d="M0 2.07373C0 2.07373 0.67423 1.7985 1.36524 2.28336C1.41957 2.2989 1.47694 2.30045 1.53202 2.28786C1.66559 2.14463 1.96854 1.72358 2.20252 1.77818C2.21975 1.42241 2.1791 5.81531e-05 2.1791 5.81531e-05C2.07776 -0.00389495 2.04263 0.195009 2.04263 0.195009C2.10115 0.600518 1.86715 3.06499 0.907919 1.43498L0.229413 1.50518L0 2.07373Z" fill="rgb(234,206,36)" fill-rule="nonzero" transform="matrix(-1,0,0,1,20.3931,15.3369)" />
			<path id="Vector" d="M0 0.461475C0.579043 0.671008 0.586292 0.781726 1.15973 1.28905C1.61743 1.47108 2.29913 1.91736 2.33774 2.01666L2.3006 2.16161C2.38885 2.21672 2.47219 2.01344 2.47219 2.01344C2.38397 1.51156 0.77231 0 0.77231 0L0.0624092 0.149484L0 0.461475Z" fill="rgb(234,206,36)" fill-rule="nonzero" transform="matrix(-1,0,0,1,20.7622,11.2476)" />
			<path id="Union" d="M1.36252 1.15699C1.35653 0.695046 1.77514 0.353099 1.96863 0.195044C2.02667 0.147638 2.06445 0.116775 2.06445 0.104179C2.00954 -0.230513 1.37769 0.320571 1.0786 0.640237C1.14404 0.419672 1.25264 0.241064 1.31297 0.141834C1.34419 0.0904825 1.36249 0.060389 1.35519 0.05674C1.15538 -0.0431547 0.911536 0.325605 0.75817 0.617106C0.758862 0.60469 0.759548 0.592487 0.76022 0.580527L0.76022 0.580525C0.769116 0.422235 0.775612 0.306641 0.762395 0.306641C0.509037 0.306641 0.358313 1.01341 0.358888 1.34521C0.299013 1.07855 0.271957 0.850204 0.247702 0.805664C-0.152828 0.883678 0.052748 1.88189 0.052748 1.88189C0.0605339 1.95987 0.583047 2.58378 0.583047 2.58378L0.722905 2.23401C0.733374 2.24458 0.739009 2.24851 0.739009 2.24851L0.794867 1.61551L0.990943 1.2349C0.998709 1.24993 1.00376 1.25839 1.00376 1.25839L1.36252 1.15699Z" fill="rgb(223,223,223)" fill-rule="evenodd" transform="matrix(-1,0,0,1,21.916,9.90063)" />
			<path id="Union" d="M1.36252 1.15699C1.35653 0.695046 1.77514 0.353099 1.96863 0.195044C2.02667 0.147638 2.06445 0.116775 2.06445 0.104179C2.00954 -0.230513 1.37769 0.320571 1.0786 0.640237C1.14404 0.419672 1.25264 0.241064 1.31297 0.141834C1.34419 0.0904825 1.36249 0.060389 1.35519 0.05674C1.15538 -0.0431547 0.911536 0.325605 0.75817 0.617106C0.758862 0.60469 0.759548 0.592487 0.76022 0.580527L0.76022 0.580525C0.769116 0.422235 0.775612 0.306641 0.762395 0.306641C0.509037 0.306641 0.358313 1.01341 0.358888 1.34521C0.299013 1.07855 0.271957 0.850204 0.247702 0.805664C-0.152828 0.883678 0.052748 1.88189 0.052748 1.88189C0.0605339 1.95987 0.583047 2.58378 0.583047 2.58378L0.722905 2.23401C0.733374 2.24458 0.739009 2.24851 0.739009 2.24851L0.794867 1.61551L0.990943 1.2349C0.998709 1.24993 1.00376 1.25839 1.00376 1.25839L1.36252 1.15699Z" fill-rule="evenodd" stroke="rgb(0,0,0)" stroke-width="0.0257810839" transform="matrix(-1,0,0,1,21.916,9.90063)" />
			<path id="Vector" d="M1.09179 2.30838C1.09179 2.30838 0.990386 0.95144 1.16196 0.748699L0.655078 0L0 1.30235L0.592674 2.3864L1.09179 2.30838Z" fill="rgb(255,255,255)" fill-rule="nonzero" transform="matrix(-1,0,0,1,21.8014,12.0168)" />
			<path id="Vector" d="M1.16196 0.748699L0.655078 0L0 1.30235L0.592674 2.3864L1.09179 2.30838C1.09179 2.30838 0.990385 0.95144 1.16196 0.748699Z" fill-rule="nonzero" stroke="rgb(0,0,0)" stroke-width="0.0257810839" transform="matrix(-1,0,0,1,21.8014,12.0168)" />
			<path id="Vector" d="M1.09179 2.30838C1.09179 2.30838 0.990386 0.95144 1.16196 0.748699L0.655078 0L0 1.30235L0.592674 2.3864L1.09179 2.30838Z" fill="rgb(223,223,223)" fill-rule="nonzero" transform="matrix(-1,0,0,1,21.8014,12.0168)" />
			<path id="Vector" d="M1.16196 0.748699L0.655078 0L0 1.30235L0.592674 2.3864L1.09179 2.30838C1.09179 2.30838 0.990385 0.95144 1.16196 0.748699Z" fill-rule="nonzero" stroke="rgb(0,0,0)" stroke-width="0.0257810839" transform="matrix(-1,0,0,1,21.8014,12.0168)" />
			<path id="Vector" d="M0.746173 6.51948C0.968439 6.80409 1.07705 7.44593 1.07705 7.44593L1.14322 7.23633C1.17442 7.25583 1.19335 7.41836 1.23696 7.41836C1.25646 7.41836 1.25304 7.25082 1.29762 7.24182C1.31711 7.23799 1.30419 7.47347 1.34727 7.47347C1.38236 7.47347 1.38517 7.30576 1.39688 7.31352C1.42445 7.33186 1.4299 7.53616 1.45205 7.42934C1.42088 6.33362 3.56877 5.43696 3.52554 4.20877C3.58013 2.93762 2.21304 2.45518 1.37484 1.38537C1.37484 1.38537 1.13933 0.683827 1.57333 0.99384C1.92431 0.939248 1.8932 0.591299 1.8932 0.591299L2.08621 0.591299C2.17204 -0.15737 1.41897 0.0178009 1.41897 0.0178009C0.721005 0.0178009 0.657988 0.740178 0.657988 0.740178C0.478607 1.67997 1.69631 2.79914 1.69631 2.79914C1.87566 3.18908 1.69471 3.8615 1.69471 3.8615L0 5.45813" fill="rgb(223,223,223)" fill-rule="nonzero" transform="matrix(-1,0,0,1,21.933,10.7631)" />
			<path id="Vector" d="M0.746173 6.51947C0.968439 6.80409 1.07705 7.44593 1.07705 7.44593L1.14322 7.23633C1.17442 7.25583 1.19335 7.41836 1.23696 7.41836C1.25646 7.41836 1.25304 7.25082 1.29762 7.24182C1.31711 7.23799 1.30419 7.47347 1.34727 7.47347C1.38236 7.47347 1.38517 7.30576 1.39688 7.31351C1.42445 7.33186 1.4299 7.53616 1.45205 7.42934C1.42088 6.33362 3.56877 5.43696 3.52554 4.20877C3.58013 2.93762 2.21304 2.45518 1.37484 1.38537C1.37484 1.38537 1.13933 0.683827 1.57333 0.99384C1.92431 0.939248 1.8932 0.591299 1.8932 0.591299L2.08621 0.591299C2.17204 -0.15737 1.41897 0.0178009 1.41897 0.0178009C0.721005 0.0178009 0.657988 0.740178 0.657988 0.740178C0.478607 1.67997 1.69631 2.79914 1.69631 2.79914C1.87566 3.18908 1.69471 3.8615 1.69471 3.8615L0 5.45813" fill-rule="nonzero" stroke="rgb(0,0,0)" stroke-width="0.0257810839" transform="matrix(-1,0,0,1,21.933,10.7631)" />
			<path id="Vector" d="M1.24243 0C1.14882 0.113112 0.668008 0.682908 0.551036 0.881754C0.385406 1.06436 0.707381 1.01299 0.707381 1.01299C0.707381 1.01299 0.231263 1.51632 0 1.66354C0.0709942 1.87652 0.527616 1.56801 0.527616 1.56801C0.527616 1.56801 0.0830542 1.84098 0.106506 1.89557C0.242144 1.99908 0.636772 1.70844 0.636772 1.70844C0.636772 1.70844 0.542518 1.84098 0.621169 1.88779C0.753775 1.88779 1.05788 1.64606 1.05788 1.64606C1.05788 1.64606 0.995504 1.78642 1.0657 1.80978C1.1925 1.72985 1.98599 1.06886 1.98599 1.06886" fill="rgb(223,223,223)" fill-rule="nonzero" transform="matrix(-1,0,0,1,23.1558,16.2087)" />
			<path id="Vector" d="M1.24243 0C1.14882 0.113112 0.668008 0.682908 0.551036 0.881754C0.385406 1.06436 0.707381 1.01299 0.707381 1.01299C0.707381 1.01299 0.231263 1.51632 0 1.66354C0.0709942 1.87652 0.527616 1.56801 0.527616 1.56801C0.527616 1.56801 0.0830542 1.84098 0.106506 1.89557C0.242144 1.99908 0.636772 1.70844 0.636772 1.70844C0.636772 1.70844 0.542518 1.84098 0.621169 1.88779C0.753775 1.88779 1.05788 1.64606 1.05788 1.64606C1.05788 1.64606 0.995504 1.78642 1.0657 1.80978C1.1925 1.72985 1.986 1.06886 1.986 1.06886" fill-rule="nonzero" stroke="rgb(0,0,0)" stroke-width="0.0257810839" transform="matrix(-1,0,0,1,23.1558,16.2087)" />
			<path id="Vector" d="M0.132619 0C0.132619 0 -0.104514 0.314317 0.055404 0.264701" fill-rule="nonzero" stroke="rgb(0,0,0)" stroke-width="0.0257810839" transform="matrix(-1,0,0,1,21.7393,15.8713)" />
			<path id="Union" d="M1.95512 1.24669C1.33752 0.667645 1.25476 0.00594715 1.18858 0.000362965C0.988568 -0.0162777 1.1098 0.543066 1.20558 0.895726C1.09082 0.74031 1.01276 0.600987 0.958031 0.503311C0.904676 0.408084 0.8735 0.352443 0.852123 0.36007C0.57025 0.471392 0.929307 1.23142 0.929307 1.23142C0.966196 1.38711 1.37757 1.78943 1.58655 1.98591C0.887088 1.57501 0.65986 1.13432 0.547192 0.915807C0.496957 0.818379 0.469496 0.765122 0.433106 0.778369C0.184376 1.45254 1.04329 2.09057 1.70702 2.58361C1.73122 2.60159 1.75516 2.61937 1.77877 2.63695C1.13494 2.43224 0.715837 1.96071 0.474983 1.68972C0.358975 1.5592 0.284318 1.47521 0.245817 1.48996C-0.0298924 1.59474 0.549127 2.33919 0.549127 2.33919C0.792182 2.56511 1.1168 2.75988 1.37304 2.89505C0.616282 2.60292 0.338799 2.3331 0.199187 2.19734C0.130465 2.13052 0.095149 2.09618 0.0525202 2.10765C-0.189661 2.29182 0.475899 2.85622 0.624782 2.97779C0.449756 2.91098 0.331194 2.85453 0.247568 2.81471C0.150094 2.7683 0.100084 2.74449 0.063448 2.75322C-0.119189 3.00149 0.763834 3.54174 0.763834 3.54174C0.864372 3.59963 0.972056 3.65184 1.08085 3.6985C0.856509 3.61259 0.646299 3.51485 0.48823 3.44136C0.321968 3.36406 0.213394 3.31358 0.206741 3.33188C-0.0765617 3.66375 1.14973 4.21973 1.41991 4.19213L1.45543 4.19438C0.970831 4.61251 0.817356 5.05843 0.895986 5.08469C0.965931 5.10802 1.14689 4.96518 1.33043 4.8203C1.45079 4.7253 1.57226 4.62941 1.66427 4.57893C1.40906 5.00931 1.23674 5.51138 1.38185 5.54211C1.42332 5.54407 1.49024 5.43996 1.58009 5.30019C1.7385 5.05374 1.96818 4.69643 2.25527 4.61407C2.08272 4.98726 1.92413 5.48979 2.15867 5.73013C2.19821 5.7425 2.26728 5.56703 2.348 5.36195C2.44626 5.11231 2.56178 4.81881 2.66231 4.76692C2.60117 5.23159 2.70883 5.34027 2.76048 5.345C2.8487 5.3008 3.00313 4.6611 3.17958 4.62252L2.74398 4.49959C2.78038 4.37553 2.81491 4.25781 2.81491 4.25781L2.54469 4.37142L2.56194 4.35644L2.35511 4.25453C2.35701 4.25353 2.35886 4.25255 2.36065 4.2516L2.37943 4.25279L2.37223 4.24547C2.39082 4.23562 2.40146 4.22993 2.40146 4.22993L2.347 4.21986L2.04205 3.91022L1.89024 3.33226C1.87531 3.32911 1.8605 3.32596 1.84582 3.3228L1.78913 3.06276L1.77889 2.63704C1.7862 2.64248 1.79347 2.6479 1.80071 2.6533L1.68183 2.07437C1.69789 2.08908 1.70688 2.09719 1.70688 2.09719L1.98135 1.72877L2.02678 1.76505L2.01544 1.68301L2.04964 1.63711C2.03479 1.62888 2.02013 1.62058 2.00565 1.6122L1.95512 1.24669Z" fill="rgb(223,223,223)" fill-rule="evenodd" transform="matrix(-1,0,0,1,23.9702,10.593)" />
			<path id="Union" d="M1.95512 1.24669C1.33752 0.667645 1.25476 0.00594715 1.18858 0.000362965C0.988568 -0.0162777 1.1098 0.543066 1.20558 0.895726C1.09082 0.74031 1.01276 0.600987 0.958031 0.503311C0.904676 0.408084 0.8735 0.352443 0.852123 0.36007C0.57025 0.471392 0.929307 1.23142 0.929307 1.23142C0.966196 1.38711 1.37757 1.78943 1.58655 1.98591C0.887088 1.57501 0.65986 1.13432 0.547192 0.915807C0.496957 0.818379 0.469496 0.765122 0.433106 0.778369C0.184376 1.45254 1.04329 2.09057 1.70702 2.58361C1.73122 2.60159 1.75516 2.61937 1.77877 2.63695C1.13494 2.43224 0.715837 1.96071 0.474983 1.68972C0.358975 1.5592 0.284318 1.47521 0.245817 1.48996C-0.0298924 1.59474 0.549127 2.33919 0.549127 2.33919C0.792182 2.56511 1.1168 2.75988 1.37304 2.89505C0.616282 2.60292 0.338799 2.3331 0.199187 2.19734C0.130465 2.13052 0.095149 2.09618 0.0525202 2.10765C-0.189661 2.29182 0.475899 2.85622 0.624782 2.97779C0.449756 2.91098 0.331194 2.85453 0.247568 2.81471C0.150094 2.7683 0.100084 2.74449 0.063448 2.75322C-0.119189 3.00149 0.763834 3.54174 0.763834 3.54174C0.864372 3.59963 0.972056 3.65184 1.08085 3.6985C0.856509 3.61259 0.646299 3.51485 0.48823 3.44136C0.321968 3.36406 0.213394 3.31358 0.206741 3.33188C-0.0765617 3.66375 1.14973 4.21973 1.41991 4.19213L1.45543 4.19438C0.970831 4.61251 0.817356 5.05843 0.895986 5.08469C0.965931 5.10802 1.14689 4.96518 1.33043 4.8203C1.45079 4.7253 1.57226 4.62941 1.66427 4.57893C1.40906 5.00931 1.23674 5.51138 1.38185 5.54211C1.42332 5.54407 1.49024 5.43996 1.58009 5.30019C1.7385 5.05374 1.96818 4.69643 2.25527 4.61407C2.08272 4.98726 1.92413 5.48979 2.15867 5.73013C2.19821 5.7425 2.26728 5.56703 2.348 5.36195C2.44626 5.11231 2.56178 4.81881 2.66231 4.76692C2.60117 5.23159 2.70883 5.34027 2.76048 5.345C2.8487 5.3008 3.00313 4.6611 3.17958 4.62252L2.74398 4.49959C2.78038 4.37553 2.81491 4.25781 2.81491 4.25781L2.54469 4.37142L2.56194 4.35644L2.35511 4.25453C2.35701 4.25353 2.35886 4.25255 2.36065 4.2516L2.37943 4.25279L2.37223 4.24547C2.39082 4.23562 2.40146 4.22993 2.40146 4.22993L2.347 4.21986L2.04205 3.91022L1.89024 3.33226C1.87531 3.32911 1.8605 3.32596 1.84582 3.3228L1.78913 3.06276L1.77889 2.63704C1.7862 2.64248 1.79347 2.6479 1.80071 2.6533L1.68183 2.07437C1.69789 2.08908 1.70688 2.09719 1.70688 2.09719L1.98135 1.72877L2.02678 1.76505L2.01544 1.68301L2.04964 1.63711C2.03479 1.62888 2.02013 1.62058 2.00565 1.6122L1.95512 1.24669Z" fill-rule="evenodd" stroke="rgb(0,0,0)" stroke-width="0.0257810839" transform="matrix(-1,0,0,1,23.9702,10.593)" />
			<path id="Vector" d="M2.55979 3.07272C2.55979 3.07272 2.55979 2.70617 2.38044 2.69057C2.09364 2.67458 1.80595 2.69028 1.52259 2.73738C0.488031 2.11975 1.29847 1.32641 1.15601 1.05284C1.10923 0.63173 0.415157 0 0.415157 0C0.34496 0.0624418 0.42929 0.455538 0.376141 0.42896C0.235782 0.358796 0.322345 0.667785 0.282558 0.748702C0.149984 0.701924 0.156781 0.902589 0.188974 1.05284C0.0797897 1.06848 0.118746 1.25561 0.142167 1.38822C-0.0719308 1.27045 0.206964 1.72209 0.134351 1.70793C-0.193177 1.66112 0.181157 2.01991 0.181157 2.01991C-0.00601381 2.09011 0.0814151 2.22932 0.212395 2.28506C0.0485837 2.40203 0.216255 2.58878 0.27474 2.59705C0.126564 2.675 0.291461 2.78773 0.376111 2.86998C0.243536 2.99476 0.485296 3.04806 0.602332 3.09611C0.508716 3.24429 0.618764 3.27632 0.719272 3.32227C0.656892 3.43924 0.810397 3.43056 0.906406 3.41592C0.789467 3.54067 0.98442 3.59527 1.0624 3.5796C1.0624 3.5796 1.10401 3.74151 1.24182 3.68103C1.20286 3.80589 1.48361 3.79025 1.48361 3.79025C1.48361 3.91514 1.89693 3.86826 1.89693 3.86826" fill="rgb(223,223,223)" fill-rule="nonzero" transform="matrix(-1,0,0,1,22.4661,11.4865)" />
			<path id="Vector" d="M2.55979 3.07272C2.55979 3.07272 2.55979 2.70617 2.38044 2.69057C2.09364 2.67458 1.80595 2.69028 1.52259 2.73738C0.488031 2.11975 1.29847 1.32641 1.15601 1.05284C1.10923 0.63173 0.415157 0 0.415157 0C0.34496 0.0624418 0.42929 0.455538 0.376141 0.42896C0.235782 0.358796 0.322345 0.667785 0.282558 0.748701C0.149984 0.701924 0.156781 0.902589 0.188974 1.05284C0.0797897 1.06848 0.118746 1.25561 0.142167 1.38822C-0.0719308 1.27045 0.206964 1.72209 0.134351 1.70793C-0.193177 1.66112 0.181157 2.01991 0.181157 2.01991C-0.00601381 2.09011 0.0814151 2.22932 0.212395 2.28506C0.0485837 2.40203 0.216255 2.58878 0.27474 2.59705C0.126564 2.675 0.291461 2.78773 0.376111 2.86998C0.243536 2.99476 0.485296 3.04806 0.602332 3.09611C0.508716 3.24429 0.618764 3.27632 0.719272 3.32227C0.656892 3.43924 0.810397 3.43056 0.906406 3.41592C0.789467 3.54067 0.98442 3.59527 1.0624 3.5796C1.0624 3.5796 1.10401 3.74151 1.24182 3.68103C1.20286 3.80589 1.48361 3.79025 1.48361 3.79025C1.48361 3.91514 1.89693 3.86826 1.89693 3.86826" fill-rule="nonzero" stroke="rgb(0,0,0)" stroke-width="0.0257810839" transform="matrix(-1,0,0,1,22.4661,11.4865)" />
		</g>
		<g id="bird">
			<path id="Vector" d="M7.20732 18.001C7.19632 19.2473 7.1853 19.2914 7.1853 19.2914C7.7312 19.8263 7.79597 20.0223 7.9573 20.1958C8.16683 19.8925 8.49219 20.0138 8.49219 20.0138C8.55839 19.7271 8.90583 19.4789 8.90583 19.4789C8.42056 19.4403 7.58232 19.1921 7.51615 19.0929C7.29637 18.7632 7.59885 17.7639 7.59885 17.7639L7.20732 18.001Z" fill="rgb(234,206,36)" fill-rule="nonzero" />
			<path id="Vector" d="M8.40359 19.9533L7.86548 19.54L8.50496 19.9221" fill="rgb(234,206,36)" fill-rule="nonzero" />
			<path id="Vector" d="M7.60498 17.411C7.60498 17.411 8.27921 17.1358 8.97022 17.6206C9.02455 17.6362 9.08192 17.6377 9.137 17.6251C9.27057 17.4819 9.57352 17.0609 9.8075 17.1155C9.82473 16.7597 9.78408 15.3373 9.78408 15.3373C9.68274 15.3334 9.64761 15.5323 9.64761 15.5323C9.70613 15.9378 9.47213 18.4023 8.5129 16.7723L7.83439 16.8425L7.60498 17.411Z" fill="rgb(234,206,36)" fill-rule="nonzero" />
			<path id="Vector" d="M7.23584 11.7094C7.81488 11.9189 7.82213 12.0297 8.39557 12.537C8.85327 12.719 9.53497 13.1653 9.57358 13.2646L9.53644 13.4095C9.62469 13.4646 9.70803 13.2614 9.70803 13.2614C9.61981 12.7595 8.00815 11.2479 8.00815 11.2479L7.29825 11.3974L7.23584 11.7094Z" fill="rgb(234,206,36)" fill-rule="nonzero" />
			<path id="Union" d="M7.44455 11.058C7.43856 10.596 7.85717 10.2541 8.05067 10.096C8.1087 10.0486 8.14648 10.0178 8.14648 10.0052C8.09157 9.67049 7.45972 10.2216 7.16064 10.5412C7.22608 10.3207 7.33467 10.1421 7.395 10.0428C7.42622 9.99148 7.44452 9.96139 7.43722 9.95774C7.23741 9.85785 6.99357 10.2266 6.8402 10.5181C6.84089 10.5057 6.84158 10.4935 6.84225 10.4815L6.84225 10.4815C6.85115 10.3232 6.85764 10.2076 6.84443 10.2076C6.59107 10.2076 6.44034 10.9144 6.44092 11.2462C6.38104 10.9795 6.35399 10.7512 6.32973 10.7067C5.9292 10.7847 6.13478 11.7829 6.13478 11.7829C6.14257 11.8609 6.66508 12.4848 6.66508 12.4848L6.80494 12.135C6.8154 12.1456 6.82104 12.1495 6.82104 12.1495L6.8769 11.5165L7.07297 11.1359C7.08074 11.1509 7.08579 11.1594 7.08579 11.1594L7.44455 11.058Z" fill="rgb(223,223,223)" fill-rule="evenodd" />
			<path id="Union" d="M7.44455 11.058C7.43856 10.596 7.85717 10.2541 8.05067 10.096C8.1087 10.0486 8.14648 10.0178 8.14648 10.0052C8.09157 9.67049 7.45972 10.2216 7.16064 10.5412C7.22608 10.3207 7.33467 10.1421 7.395 10.0428C7.42622 9.99148 7.44452 9.96139 7.43722 9.95774C7.23741 9.85785 6.99357 10.2266 6.8402 10.5181C6.84089 10.5057 6.84158 10.4935 6.84225 10.4815L6.84225 10.4815C6.85115 10.3232 6.85764 10.2076 6.84443 10.2076C6.59107 10.2076 6.44034 10.9144 6.44092 11.2462C6.38104 10.9795 6.35399 10.7512 6.32973 10.7067C5.9292 10.7847 6.13478 11.7829 6.13478 11.7829C6.14257 11.8609 6.66508 12.4848 6.66508 12.4848L6.80494 12.135C6.8154 12.1456 6.82104 12.1495 6.82104 12.1495L6.8769 11.5165L7.07297 11.1359C7.08074 11.1509 7.08579 11.1594 7.08579 11.1594L7.44455 11.058Z" fill-rule="evenodd" stroke="rgb(0,0,0)" stroke-width="0.0257810839" />
			<path id="Vector" d="M7.28845 14.3256C7.28845 14.3256 7.18704 12.9687 7.35861 12.7659L6.85173 12.0172L6.19666 13.3196L6.78933 14.4036L7.28845 14.3256Z" fill="rgb(255,255,255)" fill-rule="nonzero" />
			<path id="Vector" d="M7.35861 12.7659L6.85173 12.0172L6.19666 13.3196L6.78933 14.4036L7.28845 14.3256C7.28845 14.3256 7.18704 12.9687 7.35861 12.7659Z" fill-rule="nonzero" stroke="rgb(0,0,0)" stroke-width="0.0257810839" />
			<path id="Vector" d="M7.28845 14.3256C7.28845 14.3256 7.18704 12.9687 7.35861 12.7659L6.85173 12.0172L6.19666 13.3196L6.78933 14.4036L7.28845 14.3256Z" fill="rgb(223,223,223)" fill-rule="nonzero" />
			<path id="Vector" d="M7.35861 12.7659L6.85173 12.0172L6.19666 13.3196L6.78933 14.4036L7.28845 14.3256C7.28845 14.3256 7.18704 12.9687 7.35861 12.7659Z" fill-rule="nonzero" stroke="rgb(0,0,0)" stroke-width="0.0257810839" />
			<path id="Vector" d="M6.81124 17.2829C7.0335 17.5675 7.14211 18.2094 7.14211 18.2094L7.20828 17.9998C7.23949 18.0193 7.25841 18.1818 7.30203 18.1818C7.32152 18.1818 7.31811 18.0142 7.36268 18.0052C7.38218 18.0014 7.36925 18.2369 7.41233 18.2369C7.44743 18.2369 7.45023 18.0692 7.46194 18.0769C7.48951 18.0953 7.49497 18.2996 7.51712 18.1928C7.48594 17.097 9.63383 16.2004 9.5906 14.9722C9.64519 13.701 8.2781 13.2186 7.4399 12.1488C7.4399 12.1488 7.20439 11.4473 7.6384 11.7573C7.98938 11.7027 7.95826 11.3547 7.95826 11.3547L8.15128 11.3547C8.23711 10.6061 7.48404 10.7812 7.48404 10.7812C6.78607 10.7812 6.72305 11.5036 6.72305 11.5036C6.54367 12.4434 7.76137 13.5626 7.76137 13.5626C7.94072 13.9525 7.75978 14.6249 7.75978 14.6249L6.06506 16.2216" fill="rgb(223,223,223)" fill-rule="nonzero" />
			<path id="Vector" d="M6.81124 17.2829C7.0335 17.5675 7.14211 18.2094 7.14211 18.2094L7.20828 17.9998C7.23949 18.0193 7.25841 18.1818 7.30203 18.1818C7.32152 18.1818 7.31811 18.0142 7.36268 18.0052C7.38218 18.0014 7.36925 18.2369 7.41233 18.2369C7.44743 18.2369 7.45023 18.0692 7.46194 18.0769C7.48951 18.0953 7.49497 18.2996 7.51712 18.1928C7.48594 17.097 9.63383 16.2004 9.5906 14.9722C9.64519 13.701 8.2781 13.2186 7.4399 12.1488C7.4399 12.1488 7.20439 11.4473 7.6384 11.7573C7.98938 11.7027 7.95826 11.3547 7.95826 11.3547L8.15128 11.3547C8.23711 10.6061 7.48404 10.7812 7.48404 10.7812C6.78607 10.7812 6.72305 11.5036 6.72305 11.5036C6.54367 12.4434 7.76137 13.5626 7.76137 13.5626C7.94072 13.9525 7.75978 14.6249 7.75978 14.6249L6.06506 16.2216" fill-rule="nonzero" stroke="rgb(0,0,0)" stroke-width="0.0257810839" />
			<path id="Vector" d="M6.08472 16.2091C5.9911 16.3222 5.51029 16.892 5.39332 17.0909C5.22769 17.2735 5.54967 17.2221 5.54967 17.2221C5.54967 17.2221 5.07355 17.7254 4.84229 17.8727C4.91328 18.0856 5.3699 17.7771 5.3699 17.7771C5.3699 17.7771 4.92534 18.0501 4.94879 18.1047C5.08443 18.2082 5.47906 17.9175 5.47906 17.9175C5.47906 17.9175 5.3848 18.0501 5.46345 18.0969C5.59606 18.0969 5.90017 17.8552 5.90017 17.8552C5.90017 17.8552 5.83779 17.9955 5.90798 18.0189C6.03478 17.939 6.82828 17.278 6.82828 17.278" fill="rgb(223,223,223)" fill-rule="nonzero" />
			<path id="Vector" d="M6.08472 16.2091C5.9911 16.3222 5.51029 16.892 5.39332 17.0909C5.22769 17.2735 5.54967 17.2221 5.54967 17.2221C5.54967 17.2221 5.07355 17.7254 4.84229 17.8727C4.91328 18.0856 5.3699 17.7771 5.3699 17.7771C5.3699 17.7771 4.92534 18.0501 4.94879 18.1047C5.08443 18.2082 5.47906 17.9175 5.47906 17.9175C5.47906 17.9175 5.3848 18.0501 5.46345 18.0969C5.59606 18.0969 5.90017 17.8552 5.90017 17.8552C5.90017 17.8552 5.83779 17.9955 5.90798 18.0189C6.03478 17.939 6.82828 17.278 6.82828 17.278" fill-rule="nonzero" stroke="rgb(0,0,0)" stroke-width="0.0257810839" />
			<path id="Vector" d="M6.39141 15.8717C6.39141 15.8717 6.15427 16.186 6.31419 16.1364" fill-rule="nonzero" stroke="rgb(0,0,0)" stroke-width="0.0257810839" />
			<path id="Union" d="M5.98295 11.8401C5.36536 11.261 5.28259 10.5993 5.21641 10.5937C5.0164 10.5771 5.13764 11.1364 5.23341 11.4891C5.11865 11.3337 5.04059 11.1944 4.98586 11.0967C4.93251 11.0015 4.90133 10.9458 4.87995 10.9535C4.59808 11.0648 4.95714 11.8248 4.95714 11.8248C4.99403 11.9805 5.4054 12.3828 5.61438 12.5793C4.91492 12.1684 4.68769 11.7277 4.57502 11.5092C4.52479 11.4118 4.49733 11.3585 4.46094 11.3718C4.21221 12.0459 5.07112 12.6839 5.73485 13.177C5.75905 13.195 5.78299 13.2128 5.8066 13.2303C5.16277 13.0256 4.74367 12.5541 4.50282 12.2831C4.38681 12.1526 4.31215 12.0686 4.27365 12.0833C3.99794 12.1881 4.57696 12.9326 4.57696 12.9326C4.82001 13.1585 5.14464 13.3533 5.40088 13.4884C4.64411 13.1963 4.36663 12.9265 4.22702 12.7907C4.1583 12.7239 4.12298 12.6896 4.08035 12.701C3.83817 12.8852 4.50373 13.4496 4.65261 13.5712C4.47759 13.5044 4.35903 13.4479 4.2754 13.4081C4.17793 13.3617 4.12792 13.3379 4.09128 13.3466C3.90864 13.5949 4.79167 14.1351 4.79167 14.1351C4.8922 14.193 4.99989 14.2452 5.10868 14.2919C4.88434 14.206 4.67413 14.1082 4.51606 14.0347C4.3498 13.9574 4.24123 13.907 4.23457 13.9253C3.95127 14.2571 5.17756 14.8131 5.44775 14.7855L5.48326 14.7878C4.99866 15.2059 4.84519 15.6518 4.92382 15.6781C4.99376 15.7014 5.17472 15.5586 5.35826 15.4137C5.47862 15.3187 5.60009 15.2228 5.6921 15.1723C5.43689 15.6027 5.26458 16.1048 5.40969 16.1355C5.45115 16.1375 5.51807 16.0333 5.60792 15.8936C5.76633 15.6471 5.99601 15.2898 6.2831 15.2075C6.11055 15.5806 5.95197 16.0832 6.18651 16.3235C6.22604 16.3359 6.29511 16.1604 6.37583 15.9553C6.47409 15.7057 6.58961 15.4122 6.69014 15.3603C6.62901 15.825 6.73666 15.9337 6.78831 15.9384C6.87653 15.8942 7.03096 15.2545 7.20741 15.2159L6.77181 15.093C6.80821 14.9689 6.84274 14.8512 6.84274 14.8512L6.57252 14.9648L6.58977 14.9498L6.38294 14.8479C6.38484 14.8469 6.38669 14.8459 6.38848 14.845L6.40726 14.8462L6.40006 14.8389C6.41865 14.829 6.42929 14.8233 6.42929 14.8233L6.37484 14.8132L6.06988 14.5036L5.91807 13.9256C5.90314 13.9225 5.88833 13.9193 5.87366 13.9162L5.81696 13.6561L5.80672 13.2304C5.81403 13.2359 5.8213 13.2413 5.82854 13.2467L5.70966 12.6678C5.72572 12.6825 5.73471 12.6906 5.73471 12.6906L6.00918 12.3222L6.05461 12.3584L6.04327 12.2764L6.07747 12.2305C6.06262 12.2223 6.04796 12.214 6.03348 12.2056L5.98295 11.8401Z" fill="rgb(223,223,223)" fill-rule="evenodd" />
			<path id="Union" d="M5.98295 11.8401C5.36536 11.261 5.28259 10.5993 5.21641 10.5937C5.0164 10.5771 5.13764 11.1364 5.23341 11.4891C5.11865 11.3337 5.04059 11.1944 4.98586 11.0967C4.93251 11.0015 4.90133 10.9458 4.87995 10.9535C4.59808 11.0648 4.95714 11.8248 4.95714 11.8248C4.99403 11.9805 5.4054 12.3828 5.61438 12.5793C4.91492 12.1684 4.68769 11.7277 4.57502 11.5092C4.52479 11.4118 4.49733 11.3585 4.46094 11.3718C4.21221 12.0459 5.07112 12.6839 5.73485 13.177C5.75905 13.195 5.78299 13.2128 5.8066 13.2303C5.16277 13.0256 4.74367 12.5541 4.50282 12.2831C4.38681 12.1526 4.31215 12.0686 4.27365 12.0833C3.99794 12.1881 4.57696 12.9326 4.57696 12.9326C4.82001 13.1585 5.14464 13.3533 5.40088 13.4884C4.64411 13.1963 4.36663 12.9265 4.22702 12.7907C4.1583 12.7239 4.12298 12.6896 4.08035 12.701C3.83817 12.8852 4.50373 13.4496 4.65261 13.5712C4.47759 13.5044 4.35903 13.4479 4.2754 13.4081C4.17793 13.3617 4.12792 13.3379 4.09128 13.3466C3.90864 13.5949 4.79167 14.1351 4.79167 14.1351C4.8922 14.193 4.99989 14.2452 5.10868 14.2919C4.88434 14.206 4.67413 14.1082 4.51606 14.0347C4.3498 13.9574 4.24123 13.907 4.23457 13.9253C3.95127 14.2571 5.17756 14.8131 5.44775 14.7855L5.48326 14.7878C4.99866 15.2059 4.84519 15.6518 4.92382 15.6781C4.99376 15.7014 5.17472 15.5586 5.35826 15.4137C5.47862 15.3187 5.60009 15.2228 5.6921 15.1723C5.43689 15.6027 5.26458 16.1048 5.40969 16.1355C5.45115 16.1375 5.51807 16.0333 5.60792 15.8936C5.76633 15.6471 5.99601 15.2898 6.2831 15.2075C6.11055 15.5806 5.95197 16.0832 6.18651 16.3235C6.22604 16.3359 6.29511 16.1604 6.37583 15.9553C6.47409 15.7057 6.58961 15.4122 6.69014 15.3603C6.62901 15.825 6.73666 15.9337 6.78831 15.9384C6.87653 15.8942 7.03096 15.2545 7.20741 15.2159L6.77181 15.093C6.80821 14.9689 6.84274 14.8512 6.84274 14.8512L6.57252 14.9648L6.58977 14.9498L6.38294 14.8479C6.38484 14.8469 6.38669 14.8459 6.38848 14.845L6.40726 14.8462L6.40006 14.8389C6.41865 14.829 6.42929 14.8233 6.42929 14.8233L6.37484 14.8132L6.06988 14.5036L5.91807 13.9256C5.90314 13.9225 5.88833 13.9193 5.87366 13.9162L5.81696 13.6561L5.80672 13.2304C5.81403 13.2359 5.8213 13.2413 5.82854 13.2467L5.70966 12.6678C5.72572 12.6825 5.73471 12.6906 5.73471 12.6906L6.00918 12.3222L6.05461 12.3584L6.04327 12.2764L6.07747 12.2305C6.06262 12.2223 6.04796 12.214 6.03348 12.2056L5.98295 11.8401Z" fill-rule="evenodd" stroke="rgb(0,0,0)" stroke-width="0.0257810839" />
			<path id="Vector" d="M8.09178 14.5595C8.09178 14.5595 8.09178 14.193 7.91243 14.1774C7.62562 14.1614 7.33793 14.1771 7.05457 14.2242C6.02001 13.6066 6.83046 12.8132 6.68799 12.5397C6.64121 12.1185 5.94714 11.4868 5.94714 11.4868C5.87694 11.5493 5.96127 11.9424 5.90812 11.9158C5.76776 11.8456 5.85433 12.1546 5.81454 12.2355C5.68197 12.1887 5.68876 12.3894 5.72096 12.5397C5.61177 12.5553 5.65073 12.7424 5.67415 12.875C5.46005 12.7573 5.73895 13.2089 5.66633 13.1947C5.33881 13.1479 5.71314 13.5067 5.71314 13.5067C5.52597 13.5769 5.6134 13.7161 5.74438 13.7719C5.58057 13.8888 5.74824 14.0756 5.80672 14.0839C5.65855 14.1618 5.82344 14.2745 5.90809 14.3568C5.77552 14.4816 6.01728 14.5349 6.13431 14.5829C6.0407 14.7311 6.15075 14.7631 6.25125 14.8091C6.18887 14.9261 6.34238 14.9174 6.43839 14.9027C6.32145 15.0275 6.5164 15.0821 6.59438 15.0664C6.59438 15.0664 6.63599 15.2283 6.7738 15.1678C6.73484 15.2927 7.01559 15.2771 7.01559 15.2771C7.01559 15.402 7.42891 15.3551 7.42891 15.3551" fill="rgb(223,223,223)" fill-rule="nonzero" />
			<path id="Vector" d="M8.09178 14.5595C8.09178 14.5595 8.09178 14.193 7.91243 14.1774C7.62562 14.1614 7.33793 14.1771 7.05457 14.2242C6.02001 13.6066 6.83046 12.8132 6.68799 12.5397C6.64121 12.1185 5.94714 11.4868 5.94714 11.4868C5.87694 11.5493 5.96127 11.9424 5.90812 11.9158C5.76776 11.8456 5.85433 12.1546 5.81454 12.2355C5.68197 12.1887 5.68876 12.3894 5.72096 12.5397C5.61177 12.5553 5.65073 12.7424 5.67415 12.875C5.46005 12.7573 5.73895 13.2089 5.66633 13.1947C5.33881 13.1479 5.71314 13.5067 5.71314 13.5067C5.52597 13.5769 5.6134 13.7161 5.74438 13.7719C5.58057 13.8888 5.74824 14.0756 5.80672 14.0839C5.65855 14.1618 5.82344 14.2745 5.90809 14.3568C5.77552 14.4816 6.01728 14.5349 6.13431 14.5829C6.0407 14.7311 6.15075 14.7631 6.25125 14.8091C6.18887 14.9261 6.34238 14.9174 6.43839 14.9027C6.32145 15.0275 6.5164 15.0821 6.59438 15.0664C6.59438 15.0664 6.63599 15.2283 6.7738 15.1678C6.73484 15.2927 7.01559 15.2771 7.01559 15.2771C7.01559 15.402 7.42891 15.3551 7.42891 15.3551" fill-rule="nonzero" stroke="rgb(0,0,0)" stroke-width="0.0257810839" />
		</g>
		<path id="Subtract" d="M16.7838 12.8633C16.7838 12.8633 16.9304 12.7393 16.9547 12.5989C16.9641 12.5446 16.9515 12.4863 16.9335 12.4328C16.9429 12.4428 16.9531 12.4522 16.9641 12.4606C17.0209 12.5112 17.2026 12.5383 17.2026 12.5383C17.2026 12.5383 17.1028 12.4084 17.0771 12.3506C17.0709 12.3365 17.0646 12.3232 17.0586 12.3104C17.0412 12.2734 17.0254 12.2398 17.0158 12.2008L16.5551 12.2008C16.5455 12.2399 16.5296 12.2737 16.5121 12.3107C16.5061 12.3235 16.4999 12.3366 16.4937 12.3506C16.468 12.4084 16.3682 12.5383 16.3682 12.5383C16.3682 12.5383 16.5499 12.5112 16.6067 12.4606C16.6163 12.4532 16.6254 12.4451 16.6338 12.4365C16.616 12.489 16.6037 12.5459 16.6129 12.5989C16.6372 12.7393 16.7838 12.8633 16.7838 12.8633ZM16.5648 11.9996L17.0061 11.9996C17.011 11.9239 17.0245 11.8464 17.052 11.8003C17.0684 11.7728 17.1086 11.7407 17.1399 11.742C17.1707 11.7434 17.2131 11.7528 17.2277 11.7808C17.2422 11.8156 17.2487 11.8533 17.2466 11.8909C17.2421 11.9313 17.1963 12.0139 17.1963 12.0139C17.1963 12.0139 17.3605 11.9799 17.416 11.9362C17.471 11.893 17.5302 11.811 17.5478 11.742C17.5669 11.6794 17.5668 11.6125 17.5476 11.55C17.5237 11.4892 17.4865 11.4345 17.4387 11.3899C17.3341 11.2971 17.1311 11.324 17.0896 11.3471C17.081 11.3519 17.072 11.3576 17.0629 11.364C17.0826 11.336 17.1099 11.297 17.1255 11.2574C17.1415 11.2132 17.1493 11.1665 17.1485 11.1196C17.1486 11.0744 17.1414 11.0296 17.127 10.9868C17.1062 10.9303 17.0678 10.882 17.0176 10.8489L16.9715 10.8198C16.9314 10.7945 16.9004 10.775 16.8864 10.7659C16.8303 10.7293 16.7934 10.6183 16.7854 10.5941L16.7838 10.5895L16.7821 10.5941C16.7741 10.6183 16.7372 10.7293 16.6812 10.7659L16.6745 10.7703C16.6522 10.7848 16.6079 10.8137 16.5522 10.8489C16.502 10.882 16.4637 10.9303 16.4429 10.9868C16.4285 11.0296 16.4212 11.0744 16.4214 11.1196C16.4206 11.1665 16.4284 11.2133 16.4444 11.2574C16.4598 11.2964 16.4866 11.3348 16.5062 11.3628C16.4977 11.3569 16.4893 11.3516 16.4812 11.3471C16.4396 11.324 16.2367 11.2971 16.1322 11.3899C16.0844 11.4345 16.0471 11.4892 16.0232 11.55C16.004 11.6125 16.004 11.6794 16.0231 11.742C16.0406 11.811 16.0999 11.893 16.1548 11.9362C16.2104 11.9799 16.3745 12.0139 16.3745 12.0139C16.3745 12.0139 16.3287 11.9313 16.3243 11.8909C16.3223 11.8533 16.3287 11.8157 16.3432 11.7808C16.3577 11.7528 16.4002 11.7434 16.431 11.742C16.4624 11.7407 16.5025 11.7728 16.5189 11.8003C16.5463 11.8464 16.5599 11.9239 16.5648 11.9996Z" fill="rgb(234,206,36)" fill-rule="evenodd" />
		<path id="Subtract" d="M14.0085 12.8633C14.0085 12.8633 14.155 12.7393 14.1793 12.5989C14.1887 12.5446 14.1761 12.4863 14.1581 12.4328C14.1675 12.4428 14.1777 12.4522 14.1888 12.4606C14.2455 12.5112 14.4272 12.5383 14.4272 12.5383C14.4272 12.5383 14.3274 12.4084 14.3017 12.3506C14.2955 12.3365 14.2892 12.3232 14.2832 12.3104C14.2658 12.2734 14.25 12.2398 14.2404 12.2008L13.7797 12.2008C13.7701 12.2399 13.7542 12.2737 13.7368 12.3107C13.7307 12.3235 13.7245 12.3366 13.7183 12.3506C13.6926 12.4084 13.5928 12.5383 13.5928 12.5383C13.5928 12.5383 13.7745 12.5112 13.8313 12.4606C13.8409 12.4532 13.85 12.4451 13.8584 12.4365C13.8406 12.489 13.8283 12.5459 13.8375 12.5989C13.8618 12.7393 14.0085 12.8633 14.0085 12.8633ZM13.7894 11.9996L14.2307 11.9996C14.2356 11.9239 14.2492 11.8464 14.2766 11.8003C14.293 11.7728 14.3332 11.7407 14.3645 11.742C14.3953 11.7434 14.4378 11.7528 14.4523 11.7808C14.4668 11.8156 14.4733 11.8533 14.4712 11.8909C14.4667 11.9313 14.4209 12.0139 14.4209 12.0139C14.4209 12.0139 14.5851 11.9799 14.6407 11.9362C14.6956 11.893 14.7548 11.811 14.7724 11.742C14.7915 11.6794 14.7914 11.6125 14.7722 11.55C14.7483 11.4892 14.7111 11.4345 14.6633 11.3899C14.5587 11.2971 14.3558 11.324 14.3142 11.3471C14.3056 11.3519 14.2966 11.3576 14.2875 11.364C14.3072 11.336 14.3345 11.297 14.3501 11.2574C14.3661 11.2132 14.3739 11.1665 14.3731 11.1196C14.3732 11.0744 14.366 11.0296 14.3516 10.9868C14.3308 10.9303 14.2924 10.882 14.2422 10.8489L14.1961 10.8198C14.156 10.7945 14.1251 10.775 14.111 10.7659C14.0549 10.7293 14.018 10.6183 14.01 10.5941L14.0084 10.5895L14.0068 10.5941C13.9987 10.6183 13.9618 10.7293 13.9058 10.7659L13.8991 10.7703C13.8768 10.7848 13.8325 10.8137 13.7768 10.8489C13.7266 10.882 13.6883 10.9303 13.6675 10.9868C13.6531 11.0296 13.6459 11.0744 13.6461 11.1196C13.6453 11.1665 13.6531 11.2133 13.6691 11.2574C13.6844 11.2964 13.7112 11.3348 13.7308 11.3628C13.7223 11.3569 13.7139 11.3516 13.7058 11.3471C13.6643 11.324 13.4613 11.2971 13.3568 11.3899C13.309 11.4345 13.2717 11.4892 13.2478 11.55C13.2286 11.6125 13.2286 11.6794 13.2477 11.742C13.2652 11.811 13.3245 11.893 13.3795 11.9362C13.435 11.9799 13.5991 12.0139 13.5991 12.0139C13.5991 12.0139 13.5533 11.9313 13.5489 11.8909C13.5469 11.8533 13.5533 11.8157 13.5678 11.7808C13.5823 11.7528 13.6248 11.7434 13.6556 11.742C13.687 11.7407 13.7271 11.7728 13.7435 11.8003C13.771 11.8464 13.7846 11.9239 13.7894 11.9996Z" fill="rgb(234,206,36)" fill-rule="evenodd" />
		<path id="Subtract" d="M11.2326 12.8633C11.2326 12.8633 11.3792 12.7393 11.4035 12.5989C11.4128 12.5446 11.4002 12.4863 11.3822 12.4328C11.3916 12.4428 11.4019 12.4522 11.4129 12.4606C11.4696 12.5112 11.6513 12.5383 11.6513 12.5383C11.6513 12.5383 11.5515 12.4084 11.5258 12.3506C11.5196 12.3365 11.5133 12.3232 11.5073 12.3104C11.4899 12.2734 11.4741 12.2398 11.4645 12.2008L11.0039 12.2008C10.9942 12.2399 10.9783 12.2737 10.9609 12.3107C10.9548 12.3235 10.9486 12.3366 10.9424 12.3506C10.9168 12.4084 10.8169 12.5383 10.8169 12.5383C10.8169 12.5383 10.9986 12.5112 11.0554 12.4606C11.065 12.4532 11.0741 12.4451 11.0825 12.4365C11.0647 12.489 11.0525 12.5459 11.0616 12.5989C11.086 12.7393 11.2326 12.8633 11.2326 12.8633ZM11.0135 11.9996L11.4548 11.9996C11.4597 11.9239 11.4733 11.8464 11.5007 11.8003C11.5171 11.7728 11.5573 11.7407 11.5886 11.742C11.6194 11.7434 11.6619 11.7528 11.6765 11.7808C11.691 11.8156 11.6974 11.8533 11.6953 11.8909C11.6908 11.9313 11.6451 12.0139 11.6451 12.0139C11.6451 12.0139 11.8092 11.9799 11.8648 11.9362C11.9197 11.893 11.979 11.811 11.9965 11.742C12.0156 11.6794 12.0155 11.6125 11.9964 11.55C11.9724 11.4892 11.9352 11.4345 11.8874 11.3899C11.7829 11.2971 11.5799 11.324 11.5384 11.3471C11.5297 11.3519 11.5207 11.3576 11.5117 11.364C11.5313 11.336 11.5586 11.297 11.5742 11.2574C11.5902 11.2132 11.598 11.1665 11.5972 11.1196C11.5974 11.0744 11.5901 11.0296 11.5758 10.9868C11.5549 10.9303 11.5166 10.882 11.4664 10.8489L11.4202 10.8198C11.3801 10.7945 11.3492 10.775 11.3351 10.7659C11.2791 10.7293 11.2422 10.6183 11.2341 10.5941L11.2325 10.5895L11.2309 10.5941C11.2229 10.6183 11.186 10.7293 11.1299 10.7659L11.1232 10.7703C11.1009 10.7848 11.0566 10.8137 11.0009 10.8489C10.9507 10.882 10.9124 10.9303 10.8916 10.9868C10.8772 11.0296 10.87 11.0744 10.8702 11.1196C10.8694 11.1665 10.8772 11.2133 10.8932 11.2574C10.9086 11.2964 10.9353 11.3348 10.9549 11.3628C10.9464 11.3569 10.9381 11.3516 10.93 11.3471C10.8884 11.324 10.6855 11.2971 10.5809 11.3899C10.5331 11.4345 10.4959 11.4892 10.472 11.55C10.4528 11.6125 10.4527 11.6794 10.4718 11.742C10.4893 11.811 10.5487 11.893 10.6036 11.9362C10.6592 11.9799 10.8232 12.0139 10.8232 12.0139C10.8232 12.0139 10.7774 11.9313 10.7731 11.8909C10.771 11.8533 10.7774 11.8157 10.7919 11.7808C10.8064 11.7528 10.8489 11.7434 10.8797 11.742C10.9111 11.7407 10.9512 11.7728 10.9676 11.8003C10.9951 11.8464 11.0087 11.9239 11.0135 11.9996Z" fill="rgb(234,206,36)" fill-rule="evenodd" />
		<path id="Union" d="M13.2241 19.4178L13.1492 19.4928L13.2241 19.5683C13.2241 19.6086 13.2314 19.6406 13.2314 19.6832L14.7848 19.6832C14.7848 19.6399 14.7912 19.6079 14.7912 19.5681L14.8663 19.493L14.7912 19.4179C14.7912 19.2196 14.7862 19.012 14.8162 18.8087C14.8194 18.8094 14.8227 18.8099 14.8261 18.8102C14.838 18.8113 14.8501 18.8096 14.8613 18.8052C14.8726 18.8008 14.8826 18.7939 14.8907 18.785C14.8988 18.7761 14.9047 18.7654 14.908 18.7539C14.9113 18.7423 14.9118 18.7301 14.9096 18.7183C14.9074 18.7064 14.9025 18.6953 14.8952 18.6857C14.8879 18.6761 14.8786 18.6683 14.8678 18.6629C14.8602 18.6591 14.8521 18.6566 14.8438 18.6555C14.8745 18.5131 14.9189 18.3754 14.9812 18.2472C14.9451 18.2365 14.9067 18.2361 14.8705 18.2463C14.8343 18.2565 14.8017 18.2768 14.7765 18.3047C14.7513 18.3327 14.7346 18.3672 14.7282 18.4043C14.7219 18.4414 14.7262 18.4795 14.7407 18.5143C14.7137 18.5017 14.6842 18.4954 14.6545 18.4957C14.6247 18.4961 14.5954 18.5031 14.5687 18.5162C14.5421 18.5294 14.5187 18.5484 14.5003 18.5718C14.4819 18.5952 14.4691 18.6225 14.4626 18.6515C14.4562 18.6806 14.4563 18.7107 14.4631 18.7397C14.4698 18.7686 14.483 18.7957 14.5016 18.819C14.5203 18.8422 14.5438 18.8609 14.5707 18.8738C14.5975 18.8867 14.6269 18.8934 14.6566 18.8934C14.6706 18.8934 14.6845 18.8919 14.6982 18.889C14.6833 19.0232 14.6145 19.1248 14.5317 19.1248C14.4679 19.1248 14.4124 19.0643 14.3835 18.975C14.3546 19.0643 14.299 19.1248 14.2352 19.1248C14.1463 19.1248 14.0734 19.0074 14.0663 18.8582C14.0919 18.8759 14.1214 18.8873 14.1522 18.8915C14.183 18.8958 14.2144 18.8927 14.2438 18.8826C14.2733 18.8725 14.2999 18.8556 14.3217 18.8334C14.3434 18.8111 14.3596 18.784 14.3689 18.7543C14.3783 18.7246 14.3805 18.6932 14.3755 18.6625C14.3705 18.6318 14.3583 18.6026 14.34 18.5775C14.3217 18.5523 14.2977 18.5318 14.27 18.5176C14.2424 18.5034 14.2117 18.4959 14.1806 18.4957C14.1979 18.4655 14.207 18.4312 14.207 18.3963C14.2069 18.3615 14.1977 18.3272 14.1802 18.2971C14.1627 18.2669 14.1377 18.2419 14.1074 18.2245C14.0772 18.207 14.043 18.1979 14.0081 18.1979C13.9733 18.1979 13.939 18.207 13.9088 18.2245C13.8786 18.2419 13.8535 18.2669 13.8361 18.2971C13.8186 18.3272 13.8094 18.3615 13.8093 18.3963C13.8092 18.4312 13.8183 18.4655 13.8357 18.4957C13.8046 18.4959 13.774 18.5035 13.7463 18.5177C13.7186 18.5319 13.6947 18.5524 13.6764 18.5775C13.6581 18.6027 13.646 18.6318 13.641 18.6625C13.636 18.6932 13.6382 18.7246 13.6476 18.7542C13.6569 18.7839 13.6731 18.811 13.6948 18.8332C13.7165 18.8555 13.7431 18.8724 13.7725 18.8825C13.8019 18.8926 13.8333 18.8957 13.8641 18.8914C13.8949 18.8872 13.9243 18.8758 13.9499 18.8582C13.9428 19.0074 13.87 19.1248 13.7811 19.1248C13.7173 19.1248 13.6617 19.0643 13.6328 18.975C13.6039 19.0643 13.5484 19.1248 13.4846 19.1248C13.4019 19.1248 13.333 19.0232 13.3181 18.889C13.3318 18.8919 13.3457 18.8934 13.3597 18.8934C13.3895 18.8934 13.4188 18.8867 13.4457 18.8738C13.4725 18.8609 13.4961 18.8422 13.5147 18.819C13.5333 18.7958 13.5465 18.7687 13.5533 18.7397C13.56 18.7107 13.5602 18.6806 13.5537 18.6515C13.5473 18.6224 13.5344 18.5952 13.5161 18.5718C13.4977 18.5484 13.4743 18.5294 13.4476 18.5162C13.4209 18.503 13.3916 18.496 13.3618 18.4957C13.3321 18.4954 13.3026 18.5017 13.2756 18.5143C13.2901 18.4795 13.2944 18.4414 13.2881 18.4043C13.2817 18.3672 13.265 18.3327 13.2398 18.3047C13.2146 18.2767 13.182 18.2565 13.1458 18.2463C13.1096 18.2361 13.0712 18.2365 13.0352 18.2472C13.0974 18.3753 13.1418 18.513 13.1725 18.6553C13.1638 18.6564 13.1554 18.6589 13.1476 18.6628C13.1368 18.6682 13.1274 18.676 13.1201 18.6856C13.1128 18.6952 13.1079 18.7063 13.1056 18.7182C13.1034 18.73 13.104 18.7422 13.1072 18.7538C13.1105 18.7654 13.1164 18.7761 13.1245 18.785C13.1326 18.7939 13.1427 18.8008 13.1539 18.8052C13.1651 18.8096 13.1772 18.8113 13.1892 18.8102C13.1929 18.8099 13.1965 18.8093 13.2001 18.8085C13.2302 19.0125 13.2242 19.221 13.2241 19.4178Z" fill="rgb(234,206,36)" fill-rule="evenodd" />
		<path id="Union" d="M11.6563 17.659L11.5813 17.734L11.6563 17.8095C11.6562 17.8498 11.6636 17.8818 11.6636 17.9244L13.2169 17.9244C13.2169 17.8811 13.2234 17.8491 13.2234 17.8093L13.2985 17.7342L13.2234 17.6592C13.2234 17.4608 13.2183 17.2533 13.2483 17.0499C13.2516 17.0506 13.2549 17.0511 13.2582 17.0514C13.2702 17.0525 13.2822 17.0508 13.2935 17.0464C13.3047 17.0421 13.3147 17.0351 13.3228 17.0262C13.3309 17.0173 13.3368 17.0067 13.3401 16.9951C13.3434 16.9835 13.344 16.9713 13.3417 16.9595C13.3395 16.9476 13.3346 16.9365 13.3273 16.9269C13.3201 16.9173 13.3107 16.9095 13.2999 16.9041C13.2924 16.9003 13.2843 16.8978 13.276 16.8967C13.3066 16.7543 13.351 16.6166 13.4133 16.4884C13.3772 16.4777 13.3389 16.4774 13.3026 16.4875C13.2664 16.4977 13.2338 16.518 13.2086 16.5459C13.1835 16.5739 13.1667 16.6084 13.1604 16.6455C13.154 16.6826 13.1583 16.7207 13.1728 16.7555C13.1458 16.7429 13.1164 16.7366 13.0866 16.7369C13.0569 16.7373 13.0276 16.7443 13.0009 16.7574C12.9742 16.7706 12.9508 16.7896 12.9324 16.813C12.9141 16.8364 12.9012 16.8637 12.8948 16.8927C12.8883 16.9218 12.8885 16.9519 12.8952 16.9809C12.902 17.0099 12.9151 17.037 12.9338 17.0602C12.9524 17.0834 12.976 17.1021 13.0028 17.115C13.0296 17.1279 13.059 17.1346 13.0887 17.1346C13.1027 17.1346 13.1167 17.1331 13.1304 17.1302C13.1154 17.2644 13.0466 17.366 12.9639 17.366C12.9 17.366 12.8445 17.3055 12.8156 17.2162C12.7867 17.3055 12.7312 17.366 12.6673 17.366C12.5784 17.366 12.5055 17.2486 12.4985 17.0994C12.5241 17.1171 12.5535 17.1285 12.5843 17.1327C12.6151 17.137 12.6465 17.1339 12.676 17.1238C12.7054 17.1137 12.7321 17.0969 12.7538 17.0746C12.7755 17.0523 12.7917 17.0252 12.8011 16.9955C12.8104 16.9659 12.8127 16.9344 12.8077 16.9037C12.8026 16.873 12.7905 16.8439 12.7722 16.8187C12.7538 16.7935 12.7299 16.773 12.7022 16.7588C12.6745 16.7446 12.6438 16.7371 12.6127 16.7369C12.6301 16.7067 12.6392 16.6724 12.6391 16.6376C12.639 16.6027 12.6298 16.5685 12.6123 16.5383C12.5949 16.5081 12.5698 16.4831 12.5396 16.4657C12.5094 16.4483 12.4751 16.4391 12.4403 16.4391C12.4054 16.4391 12.3712 16.4483 12.341 16.4657C12.3108 16.4831 12.2857 16.5081 12.2682 16.5383C12.2507 16.5685 12.2415 16.6027 12.2414 16.6376C12.2414 16.6724 12.2505 16.7067 12.2678 16.7369C12.2367 16.7371 12.2061 16.7447 12.1784 16.7589C12.1508 16.7731 12.1268 16.7936 12.1085 16.8187C12.0902 16.8439 12.0781 16.873 12.0731 16.9037C12.0681 16.9344 12.0703 16.9658 12.0797 16.9955C12.089 17.0251 12.1052 17.0522 12.1269 17.0744C12.1486 17.0967 12.1753 17.1136 12.2047 17.1237C12.2341 17.1338 12.2654 17.1369 12.2963 17.1327C12.3271 17.1284 12.3565 17.1171 12.3821 17.0994C12.375 17.2486 12.3021 17.366 12.2132 17.366C12.1495 17.366 12.0938 17.3055 12.065 17.2162C12.036 17.3055 11.9805 17.366 11.9167 17.366C11.834 17.366 11.7652 17.2644 11.7503 17.1302C11.7639 17.1331 11.7779 17.1346 11.7918 17.1346C11.8216 17.1346 11.851 17.1279 11.8778 17.115C11.9046 17.1021 11.9282 17.0834 11.9468 17.0602C11.9655 17.037 11.9786 17.0099 11.9854 16.9809C11.9922 16.9519 11.9923 16.9218 11.9859 16.8927C11.9794 16.8636 11.9666 16.8364 11.9482 16.813C11.9298 16.7896 11.9064 16.7706 11.8797 16.7574C11.853 16.7442 11.8237 16.7372 11.794 16.7369C11.7642 16.7366 11.7347 16.7429 11.7078 16.7555C11.7222 16.7207 11.7265 16.6826 11.7202 16.6455C11.7139 16.6084 11.6971 16.5739 11.672 16.5459C11.6468 16.518 11.6142 16.4977 11.5779 16.4875C11.5417 16.4774 11.5033 16.4777 11.4673 16.4884C11.5295 16.6166 11.5739 16.7542 11.6046 16.8965C11.596 16.8976 11.5875 16.9002 11.5797 16.9041C11.5689 16.9094 11.5595 16.9172 11.5522 16.9268C11.545 16.9364 11.54 16.9476 11.5378 16.9594C11.5355 16.9712 11.5361 16.9834 11.5394 16.995C11.5426 17.0066 11.5486 17.0173 11.5566 17.0262C11.5647 17.0351 11.5748 17.0421 11.586 17.0464C11.5972 17.0508 11.6093 17.0525 11.6213 17.0515C11.625 17.0511 11.6287 17.0505 11.6322 17.0497C11.6623 17.2537 11.6563 17.4622 11.6563 17.659Z" fill="rgb(234,206,36)" fill-rule="evenodd" />
		<path id="Union" d="M14.8083 17.659L14.7333 17.734L14.8082 17.8095C14.8082 17.8498 14.8156 17.8818 14.8156 17.9244L16.3689 17.9244C16.3689 17.8811 16.3753 17.8491 16.3753 17.8093L16.4504 17.7342L16.3753 17.6592C16.3753 17.4608 16.3703 17.2533 16.4003 17.0499C16.4035 17.0506 16.4068 17.0511 16.4102 17.0514C16.4221 17.0525 16.4342 17.0508 16.4454 17.0464C16.4567 17.0421 16.4667 17.0351 16.4748 17.0262C16.4829 17.0173 16.4888 17.0067 16.4921 16.9951C16.4954 16.9835 16.4959 16.9713 16.4937 16.9595C16.4915 16.9476 16.4866 16.9365 16.4793 16.9269C16.472 16.9173 16.4627 16.9095 16.4519 16.9041C16.4443 16.9003 16.4362 16.8978 16.4279 16.8967C16.4586 16.7543 16.503 16.6166 16.5653 16.4884C16.5292 16.4777 16.4909 16.4774 16.4546 16.4875C16.4184 16.4977 16.3858 16.518 16.3606 16.5459C16.3354 16.5739 16.3187 16.6084 16.3124 16.6455C16.306 16.6826 16.3103 16.7207 16.3248 16.7555C16.2978 16.7429 16.2683 16.7366 16.2386 16.7369C16.2088 16.7373 16.1795 16.7443 16.1528 16.7574C16.1262 16.7706 16.1028 16.7896 16.0844 16.813C16.066 16.8364 16.0532 16.8637 16.0467 16.8927C16.0403 16.9218 16.0404 16.9519 16.0472 16.9809C16.054 17.0099 16.0671 17.037 16.0857 17.0602C16.1044 17.0834 16.1279 17.1021 16.1548 17.115C16.1816 17.1279 16.211 17.1346 16.2407 17.1346C16.2547 17.1346 16.2686 17.1331 16.2823 17.1302C16.2674 17.2644 16.1986 17.366 16.1158 17.366C16.052 17.366 15.9965 17.3055 15.9676 17.2162C15.9387 17.3055 15.8831 17.366 15.8193 17.366C15.7304 17.366 15.6575 17.2486 15.6504 17.0994C15.6761 17.1171 15.7055 17.1285 15.7363 17.1327C15.7671 17.137 15.7985 17.1339 15.828 17.1238C15.8574 17.1137 15.884 17.0969 15.9058 17.0746C15.9275 17.0523 15.9437 17.0252 15.953 16.9955C15.9624 16.9659 15.9647 16.9344 15.9596 16.9037C15.9546 16.873 15.9425 16.8439 15.9241 16.8187C15.9058 16.7935 15.8818 16.773 15.8542 16.7588C15.8265 16.7446 15.7958 16.7371 15.7647 16.7369C15.7821 16.7067 15.7912 16.6724 15.7911 16.6376C15.791 16.6027 15.7818 16.5685 15.7643 16.5383C15.7469 16.5081 15.7218 16.4831 15.6916 16.4657C15.6614 16.4483 15.6271 16.4391 15.5922 16.4391C15.5574 16.4391 15.5231 16.4483 15.4929 16.4657C15.4627 16.4831 15.4376 16.5081 15.4202 16.5383C15.4027 16.5685 15.3935 16.6027 15.3934 16.6376C15.3933 16.6724 15.4024 16.7067 15.4198 16.7369C15.3887 16.7371 15.3581 16.7447 15.3304 16.7589C15.3028 16.7731 15.2788 16.7936 15.2605 16.8187C15.2422 16.8439 15.2301 16.873 15.2251 16.9037C15.2201 16.9344 15.2223 16.9658 15.2317 16.9955C15.241 17.0251 15.2572 17.0522 15.2789 17.0744C15.3006 17.0967 15.3272 17.1136 15.3566 17.1237C15.386 17.1338 15.4174 17.1369 15.4482 17.1327C15.479 17.1284 15.5084 17.1171 15.534 17.0994C15.527 17.2486 15.4541 17.366 15.3652 17.366C15.3014 17.366 15.2458 17.3055 15.217 17.2162C15.188 17.3055 15.1325 17.366 15.0687 17.366C14.986 17.366 14.9172 17.2644 14.9023 17.1302C14.9159 17.1331 14.9298 17.1346 14.9438 17.1346C14.9736 17.1346 15.0029 17.1279 15.0298 17.115C15.0566 17.1021 15.0802 17.0834 15.0988 17.0602C15.1174 17.037 15.1306 17.0099 15.1374 16.9809C15.1441 16.9519 15.1443 16.9218 15.1379 16.8927C15.1314 16.8636 15.1185 16.8364 15.1002 16.813C15.0818 16.7896 15.0584 16.7706 15.0317 16.7574C15.005 16.7442 14.9757 16.7372 14.9459 16.7369C14.9162 16.7366 14.8867 16.7429 14.8597 16.7555C14.8742 16.7207 14.8785 16.6826 14.8722 16.6455C14.8658 16.6084 14.8491 16.5739 14.8239 16.5459C14.7988 16.518 14.7662 16.4977 14.7299 16.4875C14.6937 16.4774 14.6553 16.4777 14.6193 16.4884C14.6815 16.6166 14.7259 16.7542 14.7566 16.8965C14.7479 16.8976 14.7395 16.9002 14.7317 16.9041C14.7209 16.9094 14.7115 16.9172 14.7042 16.9268C14.6969 16.9364 14.692 16.9476 14.6898 16.9594C14.6875 16.9712 14.6881 16.9834 14.6913 16.995C14.6946 17.0066 14.7005 17.0173 14.7086 17.0262C14.7167 17.0351 14.7268 17.0421 14.738 17.0464C14.7492 17.0508 14.7613 17.0525 14.7733 17.0515C14.777 17.0511 14.7806 17.0505 14.7842 17.0497C14.8143 17.2537 14.8083 17.4622 14.8083 17.659Z" fill="rgb(234,206,36)" fill-rule="evenodd" />
	</g>
</svg>
