<svg width="29.000000" height="28.000000" viewBox="0 0 29 28" fill="none" xmlns="http://www.w3.org/2000/svg" xmlns:xlink="http://www.w3.org/1999/xlink">
	<desc>
			Created with Pixso.
	</desc>
	<defs/>
	<rect id="Samoa" width="28.000000" height="28.000000" transform="translate(1.000000 0.000000)" fill="#FFFFFF" fill-opacity="0"/>
	<rect id="Mask" x="1.000000" y="4.000000" rx="3.000000" width="28.000000" height="20.000000" fill="#FFFFFF" fill-opacity="1.000000"/>
	<rect id="Mask" x="1.000000" y="4.000000" rx="3.000000" width="28.000000" height="20.000000" stroke="#979797" stroke-opacity="0" stroke-width="0.000000"/>
	<mask id="mask17_4193" mask-type="alpha" maskUnits="userSpaceOnUse" x="1.000000" y="4.000000" width="28.000000" height="20.000000">
		<rect id="Mask" x="1.000000" y="4.000000" rx="3.000000" width="28.000000" height="20.000000" fill="#FFFFFF" fill-opacity="1.000000"/>
		<rect id="Mask" x="1.000000" y="4.000000" rx="3.000000" width="28.000000" height="20.000000" stroke="#979797" stroke-opacity="0" stroke-width="0.000000"/>
	</mask>
	<g mask="url(#mask17_4193)">
		<rect id="Mask Copy" x="1.000000" y="4.000000" width="28.000000" height="20.000000" fill="#E31F37" fill-opacity="1.000000"/>
		<rect id="Mask Copy" x="1.000000" y="4.000000" width="28.000000" height="20.000000" stroke="#979797" stroke-opacity="0" stroke-width="0.000000"/>
	</g>
	<g mask="url(#mask17_4193)">
		<path id="Rectangle 2" d="M-0.34 14.66L15.66 14.66L15.66 2.66L-0.34 2.66L-0.34 14.66Z" fill="#083B9A" fill-opacity="1.000000" fill-rule="evenodd"/>
		<path id="Rectangle 2" d="M15.66 14.66L15.66 2.66L-0.34 2.66L-0.34 14.66L15.66 14.66Z" stroke="#979797" stroke-opacity="0" stroke-width="0.000000"/>
	</g>
	<g mask="url(#mask17_4193)">
		<mask id="mask_17_4196" fill="white">
			<path id="Star 2" d="M7.66669 6.6666L6.72388 6.94275L7 5.99994L6.72388 5.05713L7.66669 5.33327L8.6095 5.05713L8.33331 5.99994L8.6095 6.94275L7.66669 6.6666ZM11 9.33327L10.0572 9.60941L10.3333 8.6666L10.0572 7.72379L11 7.99994L11.9428 7.72379L11.6667 8.6666L11.9428 9.60941L11 9.33327ZM4.05719 10.2761L5 9.99994L5.94281 10.2761L5.66669 9.33327L5.94281 8.39046L5 8.6666L4.05719 8.39046L4.33331 9.33327L4.05719 10.2761ZM9.66669 10.9999C9.66669 11.184 9.51746 11.3333 9.33331 11.3333C9.14923 11.3333 9 11.184 9 10.9999C9 10.8158 9.14923 10.6666 9.33331 10.6666C9.51746 10.6666 9.66669 10.8158 9.66669 10.9999ZM6.72388 13.6094L7.66669 13.3333L8.6095 13.6094L8.33331 12.6666L8.6095 11.7238L7.66669 11.9999L6.72388 11.7238L7 12.6666L6.72388 13.6094Z" clip-rule="evenodd" fill="" fill-opacity="1.000000" fill-rule="evenodd"/>
		</mask>
		<path id="Star 2" d="M7.66669 6.6666L6.72388 6.94275L7 5.99994L6.72388 5.05713L7.66669 5.33327L8.6095 5.05713L8.33331 5.99994L8.6095 6.94275L7.66669 6.6666ZM11 9.33327L10.0572 9.60941L10.3333 8.6666L10.0572 7.72379L11 7.99994L11.9428 7.72379L11.6667 8.6666L11.9428 9.60941L11 9.33327ZM4.05719 10.2761L5 9.99994L5.94281 10.2761L5.66669 9.33327L5.94281 8.39046L5 8.6666L4.05719 8.39046L4.33331 9.33327L4.05719 10.2761ZM9.66669 10.9999C9.66669 11.184 9.51746 11.3333 9.33331 11.3333C9.14923 11.3333 9 11.184 9 10.9999C9 10.8158 9.14923 10.6666 9.33331 10.6666C9.51746 10.6666 9.66669 10.8158 9.66669 10.9999ZM6.72388 13.6094L7.66669 13.3333L8.6095 13.6094L8.33331 12.6666L8.6095 11.7238L7.66669 11.9999L6.72388 11.7238L7 12.6666L6.72388 13.6094Z" clip-rule="evenodd" fill="#FFFFFF" fill-opacity="1.000000" fill-rule="evenodd" mask="url(#mask_17_4196)"/>
		<path id="Star 2" d="" fill="#979797" fill-opacity="0.000000" fill-rule="nonzero"/>
	</g>
</svg>
