<svg width="28.000000" height="28.000000" viewBox="0 0 28 28" fill="none" xmlns="http://www.w3.org/2000/svg" xmlns:xlink="http://www.w3.org/1999/xlink">
	<desc>
			Created with Pixso.
	</desc>
	<defs/>
	<rect id="Senegal" width="28.000000" height="28.000000" fill="#FFFFFF" fill-opacity="0"/>
	<rect id="Mask" y="4.000000" rx="3.000000" width="28.000000" height="20.000000" fill="#FFFFFF" fill-opacity="1.000000"/>
	<rect id="Mask" y="4.000000" rx="3.000000" width="28.000000" height="20.000000" stroke="#979797" stroke-opacity="0" stroke-width="0.000000"/>
	<mask id="mask17_4556" mask-type="alpha" maskUnits="userSpaceOnUse" x="0.000000" y="4.000000" width="28.000000" height="20.000000">
		<rect id="Mask" y="4.000000" rx="3.000000" width="28.000000" height="20.000000" fill="#FFFFFF" fill-opacity="1.000000"/>
		<rect id="Mask" y="4.000000" rx="3.000000" width="28.000000" height="20.000000" stroke="#979797" stroke-opacity="0" stroke-width="0.000000"/>
	</mask>
	<g mask="url(#mask17_4556)">
		<rect id="Mask" x="13.333313" y="4.000000" width="14.666667" height="20.000000" fill="#F13642" fill-opacity="1.000000"/>
		<rect id="Mask" x="13.333313" y="4.000000" width="14.666667" height="20.000000" stroke="#979797" stroke-opacity="0" stroke-width="0.000000"/>
	</g>
	<g mask="url(#mask17_4556)">
		<path id="Rectangle 2" d="M0 24L9.33 24L9.33 4L0 4L0 24Z" fill="#17A052" fill-opacity="1.000000" fill-rule="evenodd"/>
		<path id="Rectangle 2" d="M9.33 24L9.33 4L0 4L0 24L9.33 24Z" stroke="#979797" stroke-opacity="0" stroke-width="0.000000"/>
	</g>
	<g mask="url(#mask17_4556)">
		<path id="Rectangle 2 Copy" d="M9.33 24L18.66 24L18.66 4L9.33 4L9.33 24Z" fill="#FFF166" fill-opacity="1.000000" fill-rule="evenodd"/>
		<path id="Rectangle 2 Copy" d="M18.66 24L18.66 4L9.33 4L9.33 24L18.66 24Z" stroke="#979797" stroke-opacity="0" stroke-width="0.000000"/>
	</g>
	<g mask="url(#mask17_4556)">
		<path id="Star 33" d="M14 15.36L12.04 16.69L12.7 14.42L10.82 12.96L13.19 12.89L14 10.66L14.8 12.89L17.17 12.96L15.29 14.42L15.95 16.69L14 15.36Z" fill="#17A052" fill-opacity="1.000000" fill-rule="evenodd"/>
		<path id="Star 33" d="M12.04 16.69L12.7 14.42L10.82 12.96L13.19 12.89L14 10.66L14.8 12.89L17.17 12.96L15.29 14.42L15.95 16.69L14 15.36L12.04 16.69Z" stroke="#979797" stroke-opacity="0" stroke-width="0.000000"/>
	</g>
</svg>
