<svg width="28.000000" height="28.000000" viewBox="0 0 28 28" fill="none" xmlns="http://www.w3.org/2000/svg" xmlns:xlink="http://www.w3.org/1999/xlink">
	<desc>
			Created with Pixso.
	</desc>
	<defs>
		<linearGradient id="paint_linear_17_4547_0" x1="0.000000" y1="4.000000" x2="0.000000" y2="24.000000" gradientUnits="userSpaceOnUse">
			<stop stop-color="#1DBE4F"/>
			<stop offset="1.000000" stop-color="#159B3F"/>
		</linearGradient>
	</defs>
	<rect id="Seychelles" width="28.000000" height="28.000000" fill="#FFFFFF" fill-opacity="0"/>
	<rect id="Mask" y="4.000000" rx="3.000000" width="28.000000" height="20.000000" fill="#FFFFFF" fill-opacity="1.000000"/>
	<rect id="Mask" x="0.250000" y="4.250000" rx="3.000000" width="27.500000" height="19.500000" stroke="#D6D8DD" stroke-opacity="1.000000" stroke-width="0.500000"/>
	<mask id="mask17_4546" mask-type="alpha" maskUnits="userSpaceOnUse" x="0.000000" y="4.000000" width="28.000000" height="20.000000">
		<rect id="Mask" y="4.000000" rx="3.000000" width="28.000000" height="20.000000" fill="#FFFFFF" fill-opacity="1.000000"/>
		<rect id="Mask" x="0.250000" y="4.250000" rx="3.000000" width="27.500000" height="19.500000" stroke="#F5F5F5" stroke-opacity="1.000000" stroke-width="0.500000"/>
	</mask>
	<g mask="url(#mask17_4546)">
		<mask id="mask_17_4547" fill="white">
			<path id="Combined Shape" d="M28 4L0 4L0 24L28 24L28 17.3333L0 24L28 10.6667L28 4Z" clip-rule="evenodd" fill="" fill-opacity="1.000000" fill-rule="evenodd"/>
		</mask>
		<path id="Combined Shape" d="M28 4L0 4L0 24L28 24L28 17.3333L0 24L28 10.6667L28 4Z" clip-rule="evenodd" fill="url(#paint_linear_17_4547_0)" fill-opacity="1.000000" fill-rule="evenodd" mask="url(#mask_17_4547)"/>
		<path id="Combined Shape" d="" fill="#979797" fill-opacity="0.000000" fill-rule="nonzero"/>
	</g>
	<g mask="url(#mask17_4546)">
		<path id="Rectangle 253" d="M0 4L9.33 4L0 24L0 4Z" fill="#0858B4" fill-opacity="1.000000" fill-rule="evenodd"/>
		<path id="Rectangle 253" d="M9.33 4L0 24L0 4L9.33 4Z" stroke="#979797" stroke-opacity="0" stroke-width="0.000000"/>
	</g>
	<g mask="url(#mask17_4546)">
		<path id="Rectangle 253" d="M18.66 4L28 4L28 10.66L0 24L18.66 4Z" fill="#ED3535" fill-opacity="1.000000" fill-rule="evenodd"/>
		<path id="Rectangle 253" d="M28 4L28 10.66L0 24L18.66 4L28 4Z" stroke="#979797" stroke-opacity="0" stroke-width="0.000000"/>
	</g>
	<g mask="url(#mask17_4546)">
		<path id="Rectangle 253" d="M28 24L28 17.33L0 24L28 24Z" fill="#08964F" fill-opacity="1.000000" fill-rule="evenodd"/>
		<path id="Rectangle 253" d="M28 17.33L0 24L28 24L28 17.33Z" stroke="#979797" stroke-opacity="0" stroke-width="0.000000"/>
	</g>
	<g mask="url(#mask17_4546)">
		<path id="Rectangle 253" d="M9.33 4L18.66 4L0 24L9.33 4Z" fill="#FFDD67" fill-opacity="1.000000" fill-rule="evenodd"/>
		<path id="Rectangle 253" d="M18.66 4L0 24L9.33 4L18.66 4Z" stroke="#979797" stroke-opacity="0" stroke-width="0.000000"/>
	</g>
</svg>
