<svg width="28.000000" height="28.000000" viewBox="0 0 28 28" fill="none" xmlns="http://www.w3.org/2000/svg" xmlns:xlink="http://www.w3.org/1999/xlink">
	<desc>
			Created with Pixso.
	</desc>
	<defs/>
	<rect id="Singapore" width="28.000000" height="28.000000" fill="#FFFFFF" fill-opacity="0"/>
	<rect id="Mask" y="4.000000" rx="3.000000" width="28.000000" height="20.000000" fill="#FFFFFF" fill-opacity="1.000000"/>
	<rect id="Mask" x="0.250000" y="4.250000" rx="3.000000" width="27.500000" height="19.500000" stroke="#D6D8DD" stroke-opacity="1.000000" stroke-width="0.500000"/>
	<mask id="mask17_4563" mask-type="alpha" maskUnits="userSpaceOnUse" x="0.000000" y="4.000000" width="28.000000" height="20.000000">
		<rect id="Mask" y="4.000000" rx="3.000000" width="28.000000" height="20.000000" fill="#FFFFFF" fill-opacity="1.000000"/>
		<rect id="Mask" x="0.250000" y="4.250000" rx="3.000000" width="27.500000" height="19.500000" stroke="#F5F5F5" stroke-opacity="1.000000" stroke-width="0.500000"/>
	</mask>
	<g mask="url(#mask17_4563)">
		<path id="Rectangle 2" d="M0 14.66L28 14.66L28 4L0 4L0 14.66Z" fill="#E12237" fill-opacity="1.000000" fill-rule="evenodd"/>
		<path id="Rectangle 2" d="M28 14.66L28 4L0 4L0 14.66L28 14.66Z" stroke="#979797" stroke-opacity="0" stroke-width="0.000000"/>
	</g>
	<g mask="url(#mask17_4563)">
		<mask id="mask_17_4565" fill="white">
			<path id="Oval 12" d="M9.16479 12.4575C8.48029 13.0056 7.61176 13.3334 6.66663 13.3334C4.45746 13.3334 2.66663 11.5425 2.66663 9.33337C2.66663 7.12423 4.45746 5.33337 6.66663 5.33337C7.61176 5.33337 8.48029 5.66115 9.16479 6.20923C8.80219 6.07397 8.40973 6.00004 7.99994 6.00004C6.159 6.00004 4.66663 7.49242 4.66663 9.33337C4.66663 11.1743 6.159 12.6667 7.99994 12.6667C8.40973 12.6667 8.80219 12.5928 9.16479 12.4575ZM10.6666 6.66671C10.6666 7.0349 10.3682 7.33337 9.99994 7.33337C9.63177 7.33337 9.33331 7.0349 9.33331 6.66671C9.33331 6.29852 9.63177 6.00004 9.99994 6.00004C10.3682 6.00004 10.6666 6.29852 10.6666 6.66671ZM7.99994 8.66671C7.99994 9.0349 7.70148 9.33337 7.33331 9.33337C6.96509 9.33337 6.66663 9.0349 6.66663 8.66671C6.66663 8.29852 6.96509 8.00004 7.33331 8.00004C7.70148 8.00004 7.99994 8.29852 7.99994 8.66671ZM12.6666 9.33337C13.0349 9.33337 13.3333 9.0349 13.3333 8.66671C13.3333 8.29852 13.0349 8.00004 12.6666 8.00004C12.2985 8.00004 11.9999 8.29852 11.9999 8.66671C11.9999 9.0349 12.2985 9.33337 12.6666 9.33337ZM8.66663 12C9.03485 12 9.33331 11.7016 9.33331 11.3334C9.33331 10.9652 9.03485 10.6667 8.66663 10.6667C8.29846 10.6667 7.99994 10.9652 7.99994 11.3334C7.99994 11.7016 8.29846 12 8.66663 12ZM11.9999 11.3334C11.9999 11.7016 11.7015 12 11.3333 12C10.9651 12 10.6666 11.7016 10.6666 11.3334C10.6666 10.9652 10.9651 10.6667 11.3333 10.6667C11.7015 10.6667 11.9999 10.9652 11.9999 11.3334Z" clip-rule="evenodd" fill="" fill-opacity="1.000000" fill-rule="evenodd"/>
		</mask>
		<path id="Oval 12" d="M9.16479 12.4575C8.48029 13.0056 7.61176 13.3334 6.66663 13.3334C4.45746 13.3334 2.66663 11.5425 2.66663 9.33337C2.66663 7.12423 4.45746 5.33337 6.66663 5.33337C7.61176 5.33337 8.48029 5.66115 9.16479 6.20923C8.80219 6.07397 8.40973 6.00004 7.99994 6.00004C6.159 6.00004 4.66663 7.49242 4.66663 9.33337C4.66663 11.1743 6.159 12.6667 7.99994 12.6667C8.40973 12.6667 8.80219 12.5928 9.16479 12.4575ZM10.6666 6.66671C10.6666 7.0349 10.3682 7.33337 9.99994 7.33337C9.63177 7.33337 9.33331 7.0349 9.33331 6.66671C9.33331 6.29852 9.63177 6.00004 9.99994 6.00004C10.3682 6.00004 10.6666 6.29852 10.6666 6.66671ZM7.99994 8.66671C7.99994 9.0349 7.70148 9.33337 7.33331 9.33337C6.96509 9.33337 6.66663 9.0349 6.66663 8.66671C6.66663 8.29852 6.96509 8.00004 7.33331 8.00004C7.70148 8.00004 7.99994 8.29852 7.99994 8.66671ZM12.6666 9.33337C13.0349 9.33337 13.3333 9.0349 13.3333 8.66671C13.3333 8.29852 13.0349 8.00004 12.6666 8.00004C12.2985 8.00004 11.9999 8.29852 11.9999 8.66671C11.9999 9.0349 12.2985 9.33337 12.6666 9.33337ZM8.66663 12C9.03485 12 9.33331 11.7016 9.33331 11.3334C9.33331 10.9652 9.03485 10.6667 8.66663 10.6667C8.29846 10.6667 7.99994 10.9652 7.99994 11.3334C7.99994 11.7016 8.29846 12 8.66663 12ZM11.9999 11.3334C11.9999 11.7016 11.7015 12 11.3333 12C10.9651 12 10.6666 11.7016 10.6666 11.3334C10.6666 10.9652 10.9651 10.6667 11.3333 10.6667C11.7015 10.6667 11.9999 10.9652 11.9999 11.3334Z" clip-rule="evenodd" fill="#FFFFFF" fill-opacity="1.000000" fill-rule="evenodd" mask="url(#mask_17_4565)"/>
		<path id="Oval 12" d="" fill="#979797" fill-opacity="0.000000" fill-rule="nonzero"/>
	</g>
</svg>
