<svg width="28" height="28" viewBox="0 0 28 28" fill="none" xmlns="http://www.w3.org/2000/svg">
<rect x="0.25" y="4.25" width="27.5" height="19.5" rx="2.75" fill="white" stroke="#F5F5F5" stroke-width="0.5"/>
<mask id="mask0_136805_1069" style="mask-type:alpha" maskUnits="userSpaceOnUse" x="3" y="4" width="25" height="21">
<path d="M2.99995 4.00019H24.9998C26.6566 4.00019 27.9998 5.34334 27.9998 7.00019V21.0002C27.9998 22.657 26.6566 24.0002 24.9998 24.0002H2.99995L17.0117 14.1572L2.99995 4.00019Z" fill="#1B2F4C"/>
</mask>
<g mask="url(#mask0_136805_1069)">
<rect x="0.0408936" y="14.1569" width="27.9591" height="20" fill="#012A87"/>
<rect x="0.0408936" y="-5.84309" width="27.9591" height="20" fill="#DC171D"/>
</g>
<circle cx="6.49683" cy="11.8546" r="1.84571" fill="#F9D90F"/>
<path d="M6.41804 11.5225L6.49664 11.5635L6.57524 11.5225C6.72529 11.4443 6.92364 11.4094 7.16468 11.4011C7.3767 11.3939 7.60563 11.4074 7.8454 11.4215C7.87753 11.4234 7.90985 11.4253 7.94235 11.4272C8.2124 11.4428 8.49401 11.4556 8.75368 11.4311C8.88419 11.4188 9.01359 11.3967 9.13646 11.3587C8.93829 12.3452 8.94386 13.0918 9.006 13.6778C9.03795 13.9791 9.08479 14.2369 9.12478 14.4571C9.12783 14.4739 9.13084 14.4904 9.1338 14.5068C9.17636 14.7418 9.2067 14.9229 9.2067 15.0795C9.2067 15.5099 9.0744 15.7524 8.89272 15.903C8.70146 16.0616 8.43024 16.1402 8.11105 16.1864C7.9533 16.2092 7.79058 16.2233 7.62632 16.2373L7.61359 16.2384C7.45548 16.2519 7.29508 16.2656 7.14565 16.2874C6.91566 16.3209 6.67556 16.3775 6.49664 16.5129C6.31772 16.3775 6.07761 16.3209 5.84763 16.2874C5.69818 16.2656 5.53777 16.2519 5.37965 16.2385L5.36695 16.2374C5.20269 16.2234 5.03997 16.2093 4.88222 16.1864C4.56303 16.1403 4.29182 16.0617 4.10056 15.9031C3.91889 15.7525 3.78658 15.5101 3.78658 15.0797C3.78658 14.923 3.81692 14.742 3.85948 14.5069C3.86244 14.4906 3.86545 14.474 3.8685 14.4572C3.9085 14.2371 3.95534 13.9793 3.98728 13.678C4.04942 13.0919 4.05499 12.3453 3.85682 11.3588C3.9797 11.3968 4.1091 11.4189 4.23961 11.4313C4.49928 11.4558 4.78089 11.4429 5.05094 11.4273C5.08344 11.4254 5.11576 11.4235 5.14788 11.4216C5.38765 11.4074 5.61658 11.3939 5.82861 11.4012C6.06965 11.4094 6.268 11.4443 6.41804 11.5225Z" fill="#62AFE1" stroke="#DC171D" stroke-width="0.340174"/>
<path d="M6.09236 12.6991L6.51986 12.2609L6.94737 12.6991V13.087L7.78826 13.6834V14.3229H8.03923V15.3216H4.97833V14.3229H5.2015V13.6834L6.09236 13.087V12.6991Z" fill="white"/>
<path fill-rule="evenodd" clip-rule="evenodd" d="M3.48628 16.1878C3.21417 15.8505 3.05103 15.3915 3.00009 14.8516L3.17974 14.8836L3.3485 13.9341L2.67865 13.8151L2.56167 14.4732H2.30243C2.30243 15.2748 2.49428 16.0417 2.95674 16.615C3.29224 17.0309 3.75277 17.3232 4.33478 17.4574L4.26125 17.6119C4.76265 17.8505 5.59958 17.99 6.50872 17.99C7.41787 17.99 8.25479 17.8505 8.75619 17.6119L8.6765 17.4444C9.23312 17.305 9.67558 17.018 10.0007 16.615C10.4631 16.0417 10.655 15.2748 10.655 14.4732H10.3959L10.2789 13.8151L9.60907 13.9341L9.77783 14.8836L9.95731 14.8517C9.90636 15.3916 9.74322 15.8505 9.47112 16.1878C9.14675 16.59 8.63513 16.8599 7.8536 16.8599V17.1858C7.4854 17.2616 7.02288 17.3097 6.50872 17.3097C5.96621 17.3097 5.48119 17.2562 5.1038 17.173V16.8599C4.32227 16.8599 3.81065 16.59 3.48628 16.1878Z" fill="#F9D90F"/>
<path d="M4.28937 10.6508H6.11249L6.51011 10.8584L6.9411 10.6508H8.61219" stroke="#BC715F" stroke-width="0.510261" stroke-linecap="round" stroke-linejoin="round"/>
<rect x="7.84277" y="12.0087" width="0.392578" height="0.970703" fill="white"/>
<circle cx="5.06047" cy="12.4487" r="0.409589" fill="#F9D90F"/>
</svg>
