<svg width="28.000000" height="28.000000" viewBox="0 0 28 28" fill="none" xmlns="http://www.w3.org/2000/svg" xmlns:xlink="http://www.w3.org/1999/xlink">
	<desc>
			Created with Pixso.
	</desc>
	<defs>
		<filter id="filter_17_4586_dd" x="0.000000" y="17.333374" width="28.000000" height="6.666666" filterUnits="userSpaceOnUse" color-interpolation-filters="sRGB">
			<feFlood flood-opacity="0" result="BackgroundImageFix"/>
			<feColorMatrix in="SourceAlpha" type="matrix" values="0 0 0 0 0 0 0 0 0 0 0 0 0 0 0 0 0 0 127 0" result="hardAlpha"/>
			<feOffset dx="0" dy="0"/>
			<feGaussianBlur stdDeviation="0"/>
			<feComposite in2="hardAlpha" operator="out" k2="-1" k3="1"/>
			<feColorMatrix type="matrix" values="0 0 0 0 0 0 0 0 0 0 0 0 0 0 0 0 0 0 0.059 0"/>
			<feBlend mode="normal" in2="BackgroundImageFix" result="effect_dropShadow_1"/>
			<feBlend mode="normal" in="SourceGraphic" in2="effect_dropShadow_1" result="shape"/>
		</filter>
	</defs>
	<rect id="Slovenia" width="28.000000" height="28.000000" fill="#FFFFFF" fill-opacity="0"/>
	<rect id="Mask" y="4.000000" rx="3.000000" width="28.000000" height="20.000000" fill="#FFFFFF" fill-opacity="1.000000"/>
	<rect id="Mask" x="0.250000" y="4.250000" rx="3.000000" width="27.500000" height="19.500000" stroke="#D6D8DD" stroke-opacity="1.000000" stroke-width="0.500000"/>
	<mask id="mask17_4581" mask-type="alpha" maskUnits="userSpaceOnUse" x="0.000000" y="4.000000" width="28.000000" height="20.000000">
		<rect id="Mask" y="4.000000" rx="3.000000" width="28.000000" height="20.000000" fill="#FFFFFF" fill-opacity="1.000000"/>
		<rect id="Mask" x="0.250000" y="4.250000" rx="3.000000" width="27.500000" height="19.500000" stroke="#F5F5F5" stroke-opacity="1.000000" stroke-width="0.500000"/>
	</mask>
	<g mask="url(#mask17_4581)">
		<mask id="mask_17_4582" fill="white">
			<path id="Combined Shape" d="M0 17.3333L28 17.3333L28 10.6666L9.24396 10.6666L9.24396 9.33329C9.24396 9.33329 8.30365 8.66663 7.33331 8.66663C6.36298 8.66663 5.33331 9.33329 5.33331 9.33329L5.33331 10.6666L0 10.6666L0 17.3333ZM8.66669 12C8.66669 12.7363 8.0697 13.3333 7.33331 13.3333C6.59692 13.3333 6 12.7363 6 12C6 11.2636 6.59692 10.6666 7.33331 10.6666C8.0697 10.6666 8.66669 11.2636 8.66669 12Z" clip-rule="evenodd" fill="" fill-opacity="1.000000" fill-rule="evenodd"/>
		</mask>
		<path id="Combined Shape" d="M0 17.3333L28 17.3333L28 10.6666L9.24396 10.6666L9.24396 9.33329C9.24396 9.33329 8.30365 8.66663 7.33331 8.66663C6.36298 8.66663 5.33331 9.33329 5.33331 9.33329L5.33331 10.6666L0 10.6666L0 17.3333ZM8.66669 12C8.66669 12.7363 8.0697 13.3333 7.33331 13.3333C6.59692 13.3333 6 12.7363 6 12C6 11.2636 6.59692 10.6666 7.33331 10.6666C8.0697 10.6666 8.66669 11.2636 8.66669 12Z" clip-rule="evenodd" fill="#0C47B7" fill-opacity="1.000000" fill-rule="evenodd" mask="url(#mask_17_4582)"/>
		<path id="Combined Shape" d="" fill="#979797" fill-opacity="0.000000" fill-rule="nonzero"/>
	</g>
	<g mask="url(#mask17_4581)">
		<g filter="url(#filter_17_4586_dd)">
			<path id="Rectangle 2" d="M0 24L28 24L28 17.33L0 17.33L0 24Z" fill="#E53B35" fill-opacity="1.000000" fill-rule="evenodd"/>
		</g>
		<path id="Rectangle 2" d="M28 24L28 17.33L0 17.33L0 24L28 24Z" stroke="#979797" stroke-opacity="0" stroke-width="0.000000"/>
	</g>
</svg>
