<svg viewBox="0 0 28 28" xmlns="http://www.w3.org/2000/svg" xmlns:xlink="http://www.w3.org/1999/xlink" width="28.000000" height="28.000000" fill="none" customFrame="#000000">
	<defs>
		<filter id="pixso_custom_mask_type_alpha">
			<feColorMatrix type="matrix" values="0 0 0 0 1 0 0 0 0 1 0 0 0 0 1 0 0 0 1 0 " />
		</filter>
		<linearGradient id="paint_linear_173" x1="0" x2="0" y1="4" y2="24" gradientUnits="userSpaceOnUse">
			<stop stop-color="rgb(28.8062,189.529,79.182)" offset="0" stop-opacity="1" />
			<stop stop-color="rgb(21,155,63)" offset="1" stop-opacity="1" />
		</linearGradient>
		<g id="pixso_custom_effect_47">
			<effect x="0.000000" y="0.000000" visibility="visible" fill="rgb(0,0,0)" fill-opacity="0.0599999987" effectType="dropShadow" showShadowBehind="1" stdDeviation="0" radius="0" />
			<effect x="0.000000" y="1.000000" visibility="hidden" fill="rgb(255,216.88,100.278)" fill-opacity="1" effectType="innerShadow" showShadowBehind="1" stdDeviation="0" radius="0" />
		</g>
		<filter id="filter_47" width="28.000000" height="20.000000" x="0.000000" y="4.000000" filterUnits="userSpaceOnUse" customEffect="url(#pixso_custom_effect_47)" color-interpolation-filters="sRGB">
			<feFlood flood-opacity="0" result="BackgroundImageFix" />
			<feOffset dx="0.000000" dy="0.000000" in="SourceAlpha" />
			<feColorMatrix type="matrix" values="0 0 0 0 0 0 0 0 0 0 0 0 0 0 0 0 0 0 0.06 0 " />
			<feBlend result="effect_dropShadow_1" in2="BackgroundImageFix" mode="normal" />
			<feBlend result="shape" in="SourceGraphic" in2="effect_dropShadow_1" mode="normal" />
		</filter>
		<linearGradient id="paint_linear_174" x1="0" x2="0" y1="4" y2="24" gradientUnits="userSpaceOnUse">
			<stop stop-color="rgb(6.42017,95.6495,212.419)" offset="0" stop-opacity="1" />
			<stop stop-color="rgb(0,81,187)" offset="1" stop-opacity="1" />
		</linearGradient>
	</defs>
	<mask id="mask_512" width="28.000000" height="20.000000" x="0.000000" y="4.000000" maskUnits="userSpaceOnUse">
		<g filter="url(#pixso_custom_mask_type_alpha)">
			<rect id="Mask" width="28.000000" height="20.000000" x="0.000000" y="4.000000" rx="3.000000" fill="rgb(255,255,255)" />
			<rect id="Mask" width="28.000000" height="20.000000" x="0.000000" y="4.000000" rx="3.000000" stroke="rgb(150.96,150.96,150.96)" stroke-opacity="0" stroke-width="0" />
		</g>
	</mask>
	<rect id="Solomon Islands" width="28.000000" height="28.000000" x="0.000000" y="0.000000" fill="rgb(255,255,255)" fill-opacity="0" />
	<rect id="Mask" width="28.000000" height="20.000000" x="0.000000" y="4.000000" rx="3.000000" fill="rgb(255,255,255)" />
	<rect id="Mask" width="28.000000" height="20.000000" x="0.000000" y="4.000000" rx="3.000000" stroke="rgb(150.96,150.96,150.96)" stroke-opacity="0" stroke-width="0" />
	<g mask="url(#mask_512)">
		<rect id="Mask Copy" width="28.000000" height="20.000000" x="0.000000" y="4.000000" fill="url(#paint_linear_173)" />
		<rect id="Mask Copy" width="28.000000" height="20.000000" x="0.000000" y="4.000000" stroke="rgb(150.96,150.96,150.96)" stroke-opacity="0" stroke-width="0" />
		<g filter="url(#filter_47)">
			<path id="Rectangle 253" d="M0 4L28 4L0 24L0 4Z" fill="url(#paint_linear_174)" fill-rule="evenodd" />
			<path id="Rectangle 253" d="M28 4L0 24L0 4L28 4Z" fill-rule="evenodd" stroke="rgb(150.96,150.96,150.96)" stroke-opacity="0" stroke-width="0" />
		</g>
		<path id="Rectangle 253" d="M0 0L28 20L0 20L0 0Z" fill="rgb(44,116,66)" fill-rule="evenodd" transform="matrix(-1,0,0,1,28,4)" />
		<path id="Rectangle 253" d="M28 20L0 20L0 0L28 20Z" fill-rule="evenodd" stroke="rgb(150.96,150.96,150.96)" stroke-opacity="0" stroke-width="0" transform="matrix(-1,0,0,1,28,4)" />
		<rect id="Rectangle 2" width="36.775467" height="1.872501" x="0.000000" y="0.000000" fill="rgb(255,214,70)" transform="matrix(0.829038,-0.559193,0.559193,0.829038,-2.77368,23.7057)" />
		<rect id="Rectangle 2" width="36.775467" height="1.872501" x="0.000000" y="0.000000" stroke="rgb(150.96,150.96,150.96)" stroke-opacity="0" stroke-width="0" transform="matrix(0.829038,-0.559193,0.559193,0.829038,-2.77368,23.7057)" />
		<path id="Star 2" d="M2.20746 7.25756L2.02037 8.3484L3.00001 7.83337L3.97965 8.3484L3.79256 7.25756L4.58511 6.48501L3.48983 6.32586L3.00001 5.33337L2.51019 6.32586L1.41492 6.48501L2.20746 7.25756ZM8.87413 7.25756L8.68704 8.3484L9.66668 7.83337L10.6463 8.3484L10.4592 7.25756L11.2518 6.48501L10.1565 6.32586L9.66668 5.33337L9.17686 6.32586L8.08158 6.48501L8.87413 7.25756ZM5.3537 10.3484L5.5408 9.25756L4.74825 8.48501L5.84352 8.32586L6.33334 7.33337L6.82317 8.32586L7.91844 8.48501L7.12589 9.25756L7.31299 10.3484L6.33334 9.83337L5.3537 10.3484ZM2.02037 12.3484L2.20746 11.2576L1.41492 10.485L2.51019 10.3259L3.00001 9.33337L3.48983 10.3259L4.58511 10.485L3.79256 11.2576L3.97965 12.3484L3.00001 11.8334L2.02037 12.3484ZM8.68704 12.3484L8.87413 11.2576L8.08158 10.485L9.17686 10.3259L9.66668 9.33337L10.1565 10.3259L11.2518 10.485L10.4592 11.2576L10.6463 12.3484L9.66668 11.8334L8.68704 12.3484Z" fill="rgb(255,255,255)" fill-rule="evenodd" />
		<path id="Star 2" d="M2.20746 7.25756L2.02037 8.3484L3.00001 7.83337L3.97965 8.3484L3.79256 7.25756L4.58511 6.48501L3.48983 6.32586L3.00001 5.33337L2.51019 6.32586L1.41492 6.48501L2.20746 7.25756ZM8.87413 7.25756L8.68704 8.3484L9.66668 7.83337L10.6463 8.3484L10.4592 7.25756L11.2518 6.48501L10.1565 6.32586L9.66668 5.33337L9.17686 6.32586L8.08158 6.48501L8.87413 7.25756ZM5.3537 10.3484L5.5408 9.25756L4.74825 8.48501L5.84352 8.32586L6.33334 7.33337L6.82317 8.32586L7.91844 8.48501L7.12589 9.25756L7.31299 10.3484L6.33334 9.83337L5.3537 10.3484ZM2.02037 12.3484L2.20746 11.2576L1.41492 10.485L2.51019 10.3259L3.00001 9.33337L3.48983 10.3259L4.58511 10.485L3.79256 11.2576L3.97965 12.3484L3.00001 11.8334L2.02037 12.3484ZM8.68704 12.3484L8.87413 11.2576L8.08158 10.485L9.17686 10.3259L9.66668 9.33337L10.1565 10.3259L11.2518 10.485L10.4592 11.2576L10.6463 12.3484L9.66668 11.8334L8.68704 12.3484Z" fill-rule="evenodd" stroke="rgb(150.96,150.96,150.96)" stroke-opacity="0" stroke-width="0" />
	</g>
</svg>
