<svg viewBox="0 0 28 28" xmlns="http://www.w3.org/2000/svg" xmlns:xlink="http://www.w3.org/1999/xlink" width="28.000000" height="28.000000" fill="none" customFrame="#000000">
	<defs>
		<filter id="pixso_custom_mask_type_alpha">
			<feColorMatrix type="matrix" values="0 0 0 0 1 0 0 0 0 1 0 0 0 0 1 0 0 0 1 0 " />
		</filter>
	</defs>
	<mask id="mask_518" width="28.000000" height="20.000000" x="0.000000" y="4.000000" maskUnits="userSpaceOnUse">
		<g filter="url(#pixso_custom_mask_type_alpha)">
			<rect id="Mask" width="28.000000" height="20.000000" x="0.000000" y="4.000000" rx="3.000000" fill="rgb(6,168,110)" />
			<rect id="Mask" width="28.000000" height="20.000000" x="0.000000" y="4.000000" rx="3.000000" stroke="rgb(150.96,150.96,150.96)" stroke-opacity="0" stroke-width="0" />
		</g>
	</mask>
	<rect id="South Africa" width="28.000000" height="28.000000" x="0.000000" y="0.000000" fill="rgb(255,255,255)" fill-opacity="0" />
	<rect id="Mask" width="28.000000" height="20.000000" x="0.000000" y="4.000000" rx="3.000000" fill="rgb(6,168,110)" />
	<rect id="Mask" width="28.000000" height="20.000000" x="0.000000" y="4.000000" rx="3.000000" stroke="rgb(150.96,150.96,150.96)" stroke-opacity="0" stroke-width="0" />
	<g mask="url(#mask_518)">
		<path id="Rectangle 83" d="M0 6.66663L9.33333 14L0 21.3333L0 6.66663Z" fill="rgb(255,191,46)" fill-rule="evenodd" />
		<path id="Rectangle 83" d="M9.33333 14L0 21.3333L0 6.66663L9.33333 14Z" fill-rule="evenodd" stroke="rgb(150.96,150.96,150.96)" stroke-opacity="0" stroke-width="0" />
		<path id="Rectangle 83 Copy 5" d="M-1.33331 7L7.66669 14L-1.33331 21L-1.33331 7Z" fill="rgb(38,38,38)" fill-rule="evenodd" />
		<path id="Rectangle 83 Copy 5" d="M7.66669 14L-1.33331 21L-1.33331 7L7.66669 14Z" fill-rule="evenodd" stroke="rgb(150.96,150.96,150.96)" stroke-opacity="0" stroke-width="0" />
		<path id="Rectangle 83 Copy" d="M12 12L2.66669 4L28 4L28 12L12 12Z" fill="rgb(255,255,255)" fill-rule="evenodd" />
		<path id="Rectangle 83 Copy" d="M2.66669 4L28 4L28 12L12 12L2.66669 4Z" fill-rule="evenodd" stroke="rgb(150.96,150.96,150.96)" stroke-opacity="0" stroke-width="0" />
		<path id="Rectangle 83 Copy 3" d="M12.3333 10.6667L4.33331 4L28 4L28 10.6667L12.3333 10.6667Z" fill="rgb(244,78,70)" fill-rule="evenodd" />
		<path id="Rectangle 83 Copy 3" d="M4.33331 4L28 4L28 10.6667L12.3333 10.6667L4.33331 4Z" fill-rule="evenodd" stroke="rgb(150.96,150.96,150.96)" stroke-opacity="0" stroke-width="0" />
		<path id="Rectangle 83 Copy 2" d="M2.66669 24L28 24L28 16L12 16L2.66669 24Z" fill="rgb(255,255,255)" fill-rule="evenodd" />
		<path id="Rectangle 83 Copy 2" d="M28 24L28 16L12 16L2.66669 24L28 24Z" fill-rule="evenodd" stroke="rgb(150.96,150.96,150.96)" stroke-opacity="0" stroke-width="0" />
		<path id="Rectangle 83 Copy 4" d="M4.33331 24L28 24L28 17.3334L12.3333 17.3334L4.33331 24Z" fill="rgb(7,44,180)" fill-rule="evenodd" />
		<path id="Rectangle 83 Copy 4" d="M28 24L28 17.3334L12.3333 17.3334L4.33331 24L28 24Z" fill-rule="evenodd" stroke="rgb(150.96,150.96,150.96)" stroke-opacity="0" stroke-width="0" />
	</g>
</svg>
