<svg width="29.000000" height="28.000000" viewBox="0 0 29 28" fill="none" xmlns="http://www.w3.org/2000/svg" xmlns:xlink="http://www.w3.org/1999/xlink">
	<desc>
			Created with Pixso.
	</desc>
	<defs/>
	<rect id="South Sudan" width="28.000000" height="28.000000" fill="#FFFFFF" fill-opacity="0"/>
	<rect id="Mask" y="4.000000" rx="3.000000" width="28.000000" height="20.000000" fill="#FFFFFF" fill-opacity="1.000000"/>
	<rect id="Mask" x="0.250000" y="4.250000" rx="3.000000" width="27.500000" height="19.500000" stroke="#D6D8DD" stroke-opacity="1.000000" stroke-width="0.500000"/>
	<mask id="mask107628_1609" mask-type="alpha" maskUnits="userSpaceOnUse" x="0.000000" y="4.000000" width="28.000000" height="20.000000">
		<rect id="Mask" y="4.000000" rx="3.000000" width="28.000000" height="20.000000" fill="#FFFFFF" fill-opacity="1.000000"/>
		<rect id="Mask" x="0.250000" y="4.250000" rx="3.000000" width="27.500000" height="19.500000" stroke="#F5F5F5" stroke-opacity="1.000000" stroke-width="0.500000"/>
	</mask>
	<g mask="url(#mask107628_1609)">
		<path id="Rectangle 2" d="M0 24L28 24L28 17.33L0 17.33L0 24Z" fill="#427D32" fill-opacity="1.000000" fill-rule="evenodd"/>
		<path id="Rectangle 2" d="M28 24L28 17.33L0 17.33L0 24L28 24Z" stroke="#979797" stroke-opacity="0" stroke-width="0.000000"/>
	</g>
	<g mask="url(#mask107628_1609)">
		<path id="Rectangle 2" d="M0 10.66L28 10.66L28 4L0 4L0 10.66Z" fill="#000000" fill-opacity="1.000000" fill-rule="evenodd"/>
		<path id="Rectangle 2" d="M28 10.66L28 4L0 4L0 10.66L28 10.66Z" stroke="#979797" stroke-opacity="0" stroke-width="0.000000"/>
	</g>
	<g mask="url(#mask107628_1609)">
		<path id="Rectangle 84" d="M0 16.5L29 16.5L29 11.5L0 11.5L0 16.5Z" fill="#C92F29" fill-opacity="1.000000" fill-rule="evenodd"/>
	</g>
	<g mask="url(#mask107628_1609)">
		<path id="Rectangle 83" d="M0 4L13.33 14L0 24L0 4Z" fill="#1E49A9" fill-opacity="1.000000" fill-rule="evenodd"/>
	</g>
	<g mask="url(#mask107628_1609)">
		<path id="Star 126" d="M3.84 10.95L3.86 13.13L1.79 13.82L3.87 14.48L3.89 16.65L5.16 14.88L7.24 15.53L5.94 13.78L7.2 12.01L5.14 12.7L3.84 10.95Z" fill="#F8DD4C" fill-opacity="1.000000" fill-rule="nonzero"/>
	</g>
</svg>
