<svg width="29.000000" height="28.000000" viewBox="0 0 29 28" fill="none" xmlns="http://www.w3.org/2000/svg" xmlns:xlink="http://www.w3.org/1999/xlink">
	<desc>
			Created with Pixso.
	</desc>
	<defs>
		<linearGradient id="paint_linear_107628_1494_0" x1="1.000000" y1="4.000000" x2="1.000000" y2="14.000000" gradientUnits="userSpaceOnUse">
			<stop stop-color="#FFFFFF"/>
			<stop offset="1.000000" stop-color="#F0F0F0"/>
		</linearGradient>
		<linearGradient id="paint_linear_107628_1495_0" x1="1.000000" y1="4.000000" x2="1.000000" y2="13.333333" gradientUnits="userSpaceOnUse">
			<stop stop-color="#FF2E3B"/>
			<stop offset="1.000000" stop-color="#FC0D1B"/>
		</linearGradient>
	</defs>
	<rect id="South Georgia and the South Sandwich Islands" width="28.000000" height="28.000000" transform="translate(1.000000 0.000000)" fill="#FFFFFF" fill-opacity="0"/>
	<rect id="Mask" x="1.000000" y="4.000000" rx="3.000000" width="28.000000" height="20.000000" fill="#FFFFFF" fill-opacity="1.000000"/>
	<rect id="Mask" x="1.000000" y="4.000000" rx="3.000000" width="28.000000" height="20.000000" stroke="#979797" stroke-opacity="0" stroke-width="0.000000"/>
	<mask id="mask107628_1491" mask-type="alpha" maskUnits="userSpaceOnUse" x="1.000000" y="4.000000" width="28.000000" height="20.000000">
		<rect id="Mask" x="1.000000" y="4.000000" rx="3.000000" width="28.000000" height="20.000000" fill="#FFFFFF" fill-opacity="1.000000"/>
		<rect id="Mask" x="1.000000" y="4.000000" rx="3.000000" width="28.000000" height="20.000000" stroke="#979797" stroke-opacity="0" stroke-width="0.000000"/>
	</mask>
	<g mask="url(#mask107628_1491)">
		<rect id="Mask Copy" x="1.000000" y="4.000000" width="28.000000" height="20.000000" fill="#0A17A7" fill-opacity="1.000000"/>
		<rect id="Mask Copy" x="1.000000" y="4.000000" width="28.000000" height="20.000000" stroke="#979797" stroke-opacity="0" stroke-width="0.000000"/>
	</g>
	<g mask="url(#mask107628_1491)">
		<path id="Rectangle 36" d="M5.66 8L1 4L1.66 4L6.33 7.33L7.66 7.33L13 4L13 4.49C13 4.6 12.94 4.7 12.86 4.76L8.33 8L8.33 9.33L12.54 12.94C12.7 13.07 12.6 13.33 12.4 13.33L12.4 13.33C12.35 13.33 12.31 13.31 12.27 13.29L7.66 10L6.33 10L1 13.33L1 12.66L5.66 9.33L5.66 8Z" fill="#FF2E3B" fill-opacity="1.000000" fill-rule="evenodd"/>
		<path id="Rectangle 36" d="M1.88 3.33L-0.81 3.33L5 8.3L5 8.99L0.33 12.32L0.33 14.53L6.52 10.66L7.45 10.66L11.88 13.83Q12 13.91 12.13 13.95Q12.26 14 12.4 14Q12.55 14 12.69 13.95Q12.82 13.9 12.93 13.82Q13.03 13.75 13.1 13.65Q13.18 13.55 13.23 13.42Q13.28 13.29 13.29 13.15Q13.29 13.03 13.26 12.91Q13.23 12.77 13.17 12.66Q13.09 12.54 12.98 12.43L9 9.02L9 8.34L13.24 5.3Q13.34 5.23 13.42 5.14Q13.5 5.06 13.55 4.95Q13.61 4.84 13.63 4.73Q13.66 4.61 13.66 4.49L13.66 2.79L7.47 6.66L6.54 6.66L1.88 3.33ZM6.33 7.33L3.81 5.53L1.66 4L1 4L1.41 4.35L1.66 4.57L3.4 6.05L5.66 8L5.66 9.33L1 12.66L1 13.33L1.32 13.12L1.66 12.91L2.7 12.26L6.33 10L7.66 10L10.18 11.8L11.96 13.06L12.27 13.29C12.31 13.31 12.35 13.33 12.4 13.33C12.6 13.33 12.7 13.07 12.54 12.94L12.25 12.69L10.59 11.27L8.33 9.33L8.33 8L11.66 5.62L12.86 4.76C12.94 4.7 13 4.6 13 4.49L13 4L12.34 4.41L12.33 4.41L11.29 5.06L7.66 7.33L6.33 7.33Z" fill="#FFFFFF" fill-opacity="1.000000" fill-rule="evenodd"/>
	</g>
	<g mask="url(#mask107628_1491)">
		<path id="Rectangle 2" d="M1 7.33L1 10L5.66 10L5.66 13.33C5.66 13.7 5.96 14 6.33 14L7.66 14C8.03 14 8.33 13.7 8.33 13.33L8.33 10L13 10C13.36 10 13.66 9.7 13.66 9.33L13.66 8C13.66 7.63 13.36 7.33 13 7.33L8.33 7.33L8.33 4L5.66 4L5.66 7.33L1 7.33Z" fill="url(#paint_linear_107628_1494_0)" fill-opacity="1.000000" fill-rule="evenodd"/>
		<path id="Rectangle 2" d="M1 10L5.66 10L5.66 13.33C5.66 13.7 5.96 14 6.33 14L7.66 14C8.03 14 8.33 13.7 8.33 13.33L8.33 10L13 10C13.36 10 13.66 9.7 13.66 9.33L13.66 8C13.66 7.63 13.36 7.33 13 7.33L8.33 7.33L8.33 4L5.66 4L5.66 7.33L1 7.33L1 10Z" stroke="#979797" stroke-opacity="0" stroke-width="0.000000"/>
	</g>
	<g mask="url(#mask107628_1491)">
		<path id="Rectangle 36" d="M1 8L6.33 8L6.33 7.33L6.33 4L7.66 4L7.66 7.33L7.66 8L13 8L13 9.33L7.66 9.33L7.66 10L7.66 13.33L6.33 13.33L6.33 10L6.33 9.33L1 9.33L1 8Z" fill="url(#paint_linear_107628_1495_0)" fill-opacity="1.000000" fill-rule="evenodd"/>
		<path id="Rectangle 36" d="M6.33 8L6.33 7.33L6.33 4L7.66 4L7.66 7.33L7.66 8L13 8L13 9.33L7.66 9.33L7.66 10L7.66 13.33L6.33 13.33L6.33 10L6.33 9.33L1 9.33L1 8L6.33 8Z" stroke="#979797" stroke-opacity="0" stroke-width="0.000000"/>
	</g>
	<g mask="url(#mask107628_1491)">
		<path id="Vector 132" d="M19.4 10.99L19.67 10.21L21.37 10.21L21.67 10.99L19.4 10.99Z" fill="#8E361C" fill-opacity="1.000000" fill-rule="evenodd"/>
		<path id="path138" d="M19.89 7.69C19.89 7.69 19.99 7.56 19.99 7.53C19.99 7.5 20.41 7.48 20.65 6.91C20.79 6.61 20.65 6.78 20.65 6.78L20.64 6.64C20.64 6.64 20.81 6.44 20.75 6.33C20.69 6.22 20.71 6.47 20.61 6.46C20.51 6.46 20.56 6.19 20.56 6.19C20.56 6.19 20.56 6.16 20.53 6.15C20.48 6.15 20.5 6.25 20.46 6.26C20.42 6.27 20.39 6.04 20.39 6.04C20.39 6.04 20.33 5.93 20.27 6.26C20.3 6.61 20.48 6.54 20.48 6.77C20.48 7 20.32 7.17 20.28 7.18C20.23 7.18 20.25 6.99 20.25 6.99C20.25 6.99 20.22 6.89 20.21 6.89C20.19 6.89 20.3 6.87 20.28 6.61C20.24 6.3 20.21 6.69 20.15 6.67C20.08 6.65 20.13 6.39 20.16 6.35C20.18 6.32 20.13 6.19 19.98 6.53C19.97 6.69 19.95 6.48 19.92 6.49C19.87 6.62 19.88 6.72 19.95 6.84C20.06 6.96 20.12 7.08 20.12 7.14C20.12 7.2 20.06 7.34 19.99 7.34C19.91 7.34 19.99 7.17 19.99 7.11C19.98 7.05 19.86 6.85 19.86 6.85C19.86 6.85 19.77 6.67 19.78 6.67C19.79 6.66 19.77 6.63 19.73 6.82C19.69 7 19.64 6.7 19.64 6.7C19.64 6.7 19.58 6.92 19.7 7.05C19.61 7.04 19.6 7.09 19.6 7.09C19.6 7.15 19.73 7.17 19.75 7.28C19.76 7.39 19.61 7.45 19.61 7.45C19.61 7.45 19.68 7.56 19.85 7.35C19.85 7.49 19.78 7.58 19.78 7.58C19.84 7.61 19.89 7.61 19.89 7.69Z" fill="#C8AA41" fill-opacity="1.000000" fill-rule="nonzero"/>
		<path id="path142" d="M19.33 7.69C19.33 7.69 19.25 7.55 19.24 7.52C19.24 7.49 18.86 7.56 18.68 6.98C18.57 6.71 18.68 6.87 18.68 6.87L18.69 6.73C18.69 6.73 18.57 6.54 18.62 6.45C18.67 6.35 18.65 6.57 18.72 6.57C18.8 6.57 18.76 6.33 18.76 6.33C18.76 6.33 18.76 6.3 18.79 6.29C18.82 6.29 18.84 6.43 18.87 6.44C18.9 6.45 18.97 6.27 18.99 6.24C19.02 6.23 19.02 6.09 19.06 6.39C19.04 6.71 18.83 6.64 18.83 6.85C18.83 7.06 18.96 7.22 19 7.23C19.04 7.23 19.03 7.05 19.03 7.05C19.03 7.05 19.05 6.97 19.06 6.97C19.07 6.97 18.94 7 18.95 6.76C18.98 6.54 19.05 6.78 19.11 6.76C19.17 6.75 19.1 6.53 19.12 6.5C19.12 6.46 19.21 6.32 19.24 6.64C19.25 6.78 19.31 6.51 19.34 6.52C19.38 6.64 19.32 6.79 19.26 6.9C19.17 7.01 19.13 7.13 19.13 7.19C19.14 7.24 19.16 7.31 19.22 7.31C19.29 7.31 19.24 7.22 19.25 7.16C19.25 7.11 19.36 6.94 19.36 6.94C19.38 6.9 19.36 6.82 19.38 6.79C19.42 6.79 19.43 6.73 19.47 6.89C19.5 7.06 19.54 6.79 19.54 6.79C19.54 6.79 19.59 6.99 19.49 7.11C19.57 7.1 19.58 7.14 19.58 7.14C19.58 7.2 19.54 7.22 19.52 7.32C19.51 7.42 19.56 7.48 19.56 7.48C19.56 7.48 19.51 7.57 19.36 7.38C19.36 7.5 19.42 7.59 19.42 7.59C19.37 7.62 19.33 7.62 19.33 7.69Z" fill="#C8AA41" fill-opacity="1.000000" fill-rule="nonzero"/>
		<path id="path496" d="M19.91 7.71C19.91 7.71 20.1 7.51 20.3 7.69C20.21 8.03 19.88 7.9 19.88 7.9C19.88 7.9 19.89 8.07 19.86 8.16C19.93 8.22 19.98 8.42 19.98 8.42C19.98 8.42 20.32 8.32 20.39 8.5C20.52 8.48 20.61 8.5 20.61 8.5C20.61 8.5 20.87 8.42 20.96 8.42C21.05 8.42 21.35 8.52 21.37 8.58C21.4 8.65 21.5 9.11 21.56 9.1C21.63 9.09 21.41 9.21 21.35 9.09C21.29 8.98 21.3 9.24 21.3 9.24C21.3 9.24 21.49 9.49 21.51 9.54C21.53 9.59 21.4 10.04 21.5 10.34C21.41 10.35 21.4 10.47 21.4 10.47C21.4 10.6 21.26 10.64 21.26 10.64L21.23 10.46L21.14 10.52L21.17 10.38C21.17 10.38 21.3 10 21.31 9.88C21.32 9.76 21.2 9.54 21.1 9.54C21 9.54 20.93 9.93 20.93 9.93C20.93 9.93 20.88 10.22 20.9 10.25C20.91 10.27 20.83 10.15 20.83 10.15C20.83 10.15 20.79 10.33 20.76 10.38C20.72 10.44 20.65 10.46 20.65 10.46C20.65 10.46 20.6 10.28 20.62 10.21C20.64 10.14 20.89 9.88 20.86 9.69C20.84 9.5 20.86 9.55 20.86 9.54C20.85 9.53 20.73 9.4 20.72 9.32C20.72 9.25 20.56 9.42 20.35 9.36C20.29 9.5 20.28 9.85 20.28 9.85C20.28 9.85 20.26 10.26 20.3 10.31C20.35 10.36 20.2 10.46 20.2 10.46L20.09 10.64C20.09 10.64 20.05 10.52 20.05 10.53C20.05 10.54 19.97 10.6 19.97 10.6L20.02 10.46C20.01 10.36 20.12 10.08 20.12 9.84C20.12 9.6 20.14 9.35 20.14 9.35C20.14 9.35 19.94 9.34 19.94 9.59C19.95 9.85 19.89 9.87 19.9 9.94C19.91 10.02 19.97 10.23 19.95 10.29C19.94 10.35 19.87 10.37 19.87 10.37L19.85 10.4C19.85 10.4 19.65 10.52 19.66 10.57C19.66 10.61 19.65 10.43 19.65 10.43L19.64 10.23C19.64 10.23 19.76 10.14 19.76 9.9C19.76 9.66 19.73 9.63 19.74 9.57C19.75 9.52 19.77 9.32 19.77 9.3C19.76 9.28 19.65 9.36 19.62 9.36C19.59 9.36 19.68 9.21 19.69 9.11C19.7 9.01 19.58 9.21 19.49 9.09C19.53 8.97 19.6 8.93 19.61 8.83C19.62 8.74 19.53 8.92 19.46 8.85C19.46 8.76 19.54 8.68 19.54 8.68C19.54 8.68 19.48 8.67 19.45 8.68C19.4 8.66 19.51 8.56 19.51 8.43C19.52 8.29 19.45 8.24 19.45 8.23C19.45 8.22 19.34 8.11 19.33 8.06C19.31 8.01 19.31 7.96 19.31 7.96C19.31 7.96 19.13 8.12 18.92 7.78C19.11 7.57 19.32 7.72 19.32 7.72C19.32 7.72 19.38 7.53 19.63 7.55C19.88 7.56 19.92 7.74 19.91 7.71Z" fill="#8E361C" fill-opacity="1.000000" fill-rule="nonzero"/>
		<ellipse id="Ellipse 128" cx="17.263458" cy="14.931946" rx="0.984898" ry="2.682999" fill="#D9D9DB" fill-opacity="1.000000"/>
		<ellipse id="Ellipse 129" cx="23.648346" cy="14.931946" rx="0.984898" ry="2.682999" fill="#010101" fill-opacity="1.000000"/>
		<path id="Vector 127" d="M18.72 13.74L22.18 13.74C22.18 15.47 22.32 18.12 20.52 18.12C18.72 18.12 18.72 15.54 18.72 13.74Z" fill="#FFFFFF" fill-opacity="1.000000" fill-rule="evenodd"/>
		<path id="Vector 128" d="M19.26 13.74L21.64 13.74L20.45 17.64L19.26 13.74Z" fill="#62C977" fill-opacity="1.000000" fill-rule="evenodd"/>
		<path id="Vector" d="M22.45 19.99C21.99 19.41 21.28 19.04 20.48 19.04C19.69 19.04 18.98 19.41 18.52 19.99L17.47 19.99C18.03 18.9 19.17 18.15 20.48 18.15C21.8 18.15 22.94 18.9 23.5 19.99L22.45 19.99Z" fill="#EEC543" fill-opacity="1.000000" fill-rule="nonzero"/>
		<path id="Vector" d="M18.6 18.92C18.96 19.68 18.92 20.46 18.51 20.65C18.11 20.84 17.48 20.38 17.13 19.62C16.77 18.85 16.81 18.08 17.21 17.89C17.62 17.7 18.24 18.16 18.6 18.92Z" fill="#EEC543" fill-opacity="1.000000" fill-rule="nonzero"/>
		<path id="Vector" d="M22.29 18.92C21.93 19.68 21.97 20.46 22.38 20.65C22.78 20.84 23.41 20.38 23.76 19.62C24.12 18.85 24.08 18.08 23.67 17.89C23.27 17.7 22.65 18.16 22.29 18.92Z" fill="#EEC543" fill-opacity="1.000000" fill-rule="nonzero"/>
		<path id="Vector 129" d="M19.06 13.7L19.37 11.06C19.39 10.92 19.5 10.82 19.64 10.82L21.4 10.82C21.54 10.82 21.65 10.92 21.67 11.06L21.98 13.7L19.06 13.7Z" fill="#646263" fill-opacity="1.000000" fill-rule="evenodd"/>
		<path id="Vector 130" d="M18.21 9.67L19.31 10.83C19.37 10.89 19.39 10.96 19.39 11.04L19.34 11.61C19.34 11.7 19.4 11.77 19.49 11.77C19.55 11.77 19.61 11.82 19.63 11.88L19.77 12.54C19.79 12.65 19.75 12.76 19.66 12.82L19.31 13.06C19.22 13.12 19.1 13.12 19.01 13.07L18.55 12.78C18.48 12.74 18.44 12.68 18.42 12.61L18.09 11.01C18.08 10.95 18.05 10.9 18 10.86L17.32 10.31C17.17 10.18 17.2 9.94 17.38 9.85L17.9 9.61C18 9.56 18.13 9.58 18.21 9.67Z" fill="#FFFFFF" fill-opacity="1.000000" fill-rule="evenodd"/>
		<path id="Vector 131" d="M22.76 9.67L21.66 10.83C21.6 10.89 21.58 10.96 21.58 11.04L21.63 11.61C21.63 11.7 21.57 11.77 21.48 11.77C21.42 11.77 21.36 11.82 21.34 11.88L21.2 12.54C21.18 12.65 21.22 12.76 21.31 12.82L21.66 13.06C21.75 13.12 21.87 13.12 21.96 13.07L22.42 12.78C22.49 12.74 22.53 12.68 22.55 12.61L22.88 11.01C22.89 10.95 22.92 10.9 22.97 10.86L23.65 10.31C23.8 10.18 23.77 9.94 23.59 9.85L23.07 9.61C22.97 9.56 22.84 9.58 22.76 9.67Z" fill="#FFFFFF" fill-opacity="1.000000" fill-rule="evenodd"/>
	</g>
</svg>
