<svg width="30.000000" height="28.000000" viewBox="0 0 30 28" fill="none" xmlns="http://www.w3.org/2000/svg" xmlns:xlink="http://www.w3.org/1999/xlink">
	<desc>
			Created with Pixso.
	</desc>
	<defs/>
	<rect id="South Africa" width="28.000000" height="28.000000" transform="translate(1.000000 0.000000)" fill="#FFFFFF" fill-opacity="0"/>
	<rect id="Mask" x="1.000000" y="4.000000" rx="3.000000" width="28.000000" height="20.000000" fill="#06A86E" fill-opacity="1.000000"/>
	<rect id="Mask" x="1.000000" y="4.000000" rx="3.000000" width="28.000000" height="20.000000" stroke="#979797" stroke-opacity="0" stroke-width="0.000000"/>
	<mask id="mask17_4493" mask-type="alpha" maskUnits="userSpaceOnUse" x="1.000000" y="4.000000" width="28.000000" height="20.000000">
		<rect id="Mask" x="1.000000" y="4.000000" rx="3.000000" width="28.000000" height="20.000000" fill="#06A86E" fill-opacity="1.000000"/>
		<rect id="Mask" x="1.000000" y="4.000000" rx="3.000000" width="28.000000" height="20.000000" stroke="#979797" stroke-opacity="0" stroke-width="0.000000"/>
	</mask>
	<g mask="url(#mask17_4493)">
		<path id="Rectangle 83" d="M1 6.66L10.33 14L1 21.33L1 6.66Z" fill="#FFBF2E" fill-opacity="1.000000" fill-rule="evenodd"/>
		<path id="Rectangle 83" d="M10.33 14L1 21.33L1 6.66L10.33 14Z" stroke="#979797" stroke-opacity="0" stroke-width="0.000000"/>
	</g>
	<g mask="url(#mask17_4493)">
		<path id="Rectangle 83 Copy 5" d="M-0.34 7L8.66 14L-0.34 21L-0.34 7Z" fill="#262626" fill-opacity="1.000000" fill-rule="evenodd"/>
		<path id="Rectangle 83 Copy 5" d="M8.66 14L-0.34 21L-0.34 7L8.66 14Z" stroke="#979797" stroke-opacity="0" stroke-width="0.000000"/>
	</g>
	<g mask="url(#mask17_4493)">
		<path id="Rectangle 83 Copy" d="M13 12L3.66 4L29 4L29 12L13 12Z" fill="#FFFFFF" fill-opacity="1.000000" fill-rule="evenodd"/>
		<path id="Rectangle 83 Copy" d="M3.66 4L29 4L29 12L13 12L3.66 4Z" stroke="#979797" stroke-opacity="0" stroke-width="0.000000"/>
	</g>
	<g mask="url(#mask17_4493)">
		<path id="Rectangle 83 Copy 3" d="M13.33 10.66L5.33 4L29 4L29 10.66L13.33 10.66Z" fill="#F44E46" fill-opacity="1.000000" fill-rule="evenodd"/>
		<path id="Rectangle 83 Copy 3" d="M5.33 4L29 4L29 10.66L13.33 10.66L5.33 4Z" stroke="#979797" stroke-opacity="0" stroke-width="0.000000"/>
	</g>
	<g mask="url(#mask17_4493)">
		<path id="Rectangle 83 Copy 2" d="M3.66 24L29 24L29 16L13 16L3.66 24Z" fill="#FFFFFF" fill-opacity="1.000000" fill-rule="evenodd"/>
		<path id="Rectangle 83 Copy 2" d="M29 24L29 16L13 16L3.66 24L29 24Z" stroke="#979797" stroke-opacity="0" stroke-width="0.000000"/>
	</g>
	<g mask="url(#mask17_4493)">
		<path id="Rectangle 83 Copy 4" d="M5.33 24L29 24L29 17.33L13.33 17.33L5.33 24Z" fill="#072CB4" fill-opacity="1.000000" fill-rule="evenodd"/>
		<path id="Rectangle 83 Copy 4" d="M29 24L29 17.33L13.33 17.33L5.33 24L29 24Z" stroke="#979797" stroke-opacity="0" stroke-width="0.000000"/>
	</g>
</svg>
