<svg viewBox="0 0 29.3333 28" xmlns="http://www.w3.org/2000/svg" xmlns:xlink="http://www.w3.org/1999/xlink" width="29.333328" height="28.000000" fill="none" customFrame="#000000">
	<defs>
		<filter id="pixso_custom_mask_type_alpha">
			<feColorMatrix type="matrix" values="0 0 0 0 1 0 0 0 0 1 0 0 0 0 1 0 0 0 1 0 " />
		</filter>
	</defs>
	<mask id="mask_47" width="28.000000" height="20.000000" x="1.333328" y="4.000000" maskUnits="userSpaceOnUse">
		<g filter="url(#pixso_custom_mask_type_alpha)">
			<rect id="Mask" width="28.000000" height="20.000000" x="1.333328" y="4.000000" rx="3.000000" fill="rgb(6,168,110)" />
			<rect id="Mask" width="28.000000" height="20.000000" x="1.333328" y="4.000000" rx="3.000000" stroke="rgb(150.96,150.96,150.96)" stroke-opacity="0" stroke-width="0.000000" />
		</g>
	</mask>
	<rect id="South Africa" width="28.000000" height="28.000000" x="1.333328" y="0.000000" fill="rgb(255,255,255)" fill-opacity="0" />
	<rect id="Mask" width="28.000000" height="20.000000" x="1.333328" y="4.000000" rx="3.000000" fill="rgb(6,168,110)" />
	<rect id="Mask" width="28.000000" height="20.000000" x="1.333328" y="4.000000" rx="3.000000" stroke="rgb(150.96,150.96,150.96)" stroke-opacity="0" stroke-width="0.000000" />
	<g mask="url(#mask_47)">
		<path id="Rectangle 83" d="M1.33333 6.66663L10.6667 14L1.33333 21.3333L1.33333 6.66663Z" fill="rgb(255,191,46)" fill-rule="evenodd" />
		<path id="Rectangle 83" d="M10.6667 14L1.33333 21.3333L1.33333 6.66663L10.6667 14Z" fill-rule="evenodd" stroke="rgb(150.96,150.96,150.96)" stroke-opacity="0" stroke-width="0.000000" />
		<path id="Rectangle 83 Copy 5" d="M1.52588e-05 7L9.00002 14L1.52588e-05 21L1.52588e-05 7Z" fill="rgb(38,38,38)" fill-rule="evenodd" />
		<path id="Rectangle 83 Copy 5" d="M9.00002 14L1.52588e-05 21L1.52588e-05 7L9.00002 14Z" fill-rule="evenodd" stroke="rgb(150.96,150.96,150.96)" stroke-opacity="0" stroke-width="0.000000" />
		<path id="Rectangle 83 Copy" d="M13.3333 12L4.00002 4L29.3333 4L29.3333 12L13.3333 12Z" fill="rgb(255,255,255)" fill-rule="evenodd" />
		<path id="Rectangle 83 Copy" d="M4.00002 4L29.3333 4L29.3333 12L13.3333 12L4.00002 4Z" fill-rule="evenodd" stroke="rgb(150.96,150.96,150.96)" stroke-opacity="0" stroke-width="0.000000" />
		<path id="Rectangle 83 Copy 3" d="M13.6666 10.6667L5.66664 4L29.3333 4L29.3333 10.6667L13.6666 10.6667Z" fill="rgb(244,78,70)" fill-rule="evenodd" />
		<path id="Rectangle 83 Copy 3" d="M5.66664 4L29.3333 4L29.3333 10.6667L13.6666 10.6667L5.66664 4Z" fill-rule="evenodd" stroke="rgb(150.96,150.96,150.96)" stroke-opacity="0" stroke-width="0.000000" />
		<path id="Rectangle 83 Copy 2" d="M4.00002 24L29.3333 24L29.3333 16L13.3333 16L4.00002 24Z" fill="rgb(255,255,255)" fill-rule="evenodd" />
		<path id="Rectangle 83 Copy 2" d="M29.3333 24L29.3333 16L13.3333 16L4.00002 24L29.3333 24Z" fill-rule="evenodd" stroke="rgb(150.96,150.96,150.96)" stroke-opacity="0" stroke-width="0.000000" />
		<path id="Rectangle 83 Copy 4" d="M5.66664 24L29.3333 24L29.3333 17.3334L13.6666 17.3334L5.66664 24Z" fill="rgb(7,44,180)" fill-rule="evenodd" />
		<path id="Rectangle 83 Copy 4" d="M29.3333 24L29.3333 17.3334L13.6666 17.3334L5.66664 24L29.3333 24Z" fill-rule="evenodd" stroke="rgb(150.96,150.96,150.96)" stroke-opacity="0" stroke-width="0.000000" />
	</g>
</svg>
