<svg width="28.000000" height="28.000000" viewBox="0 0 28 28" fill="none" xmlns="http://www.w3.org/2000/svg" xmlns:xlink="http://www.w3.org/1999/xlink">
	<desc>
			Created with Pixso.
	</desc>
	<defs/>
	<rect id="Spain" width="28.000000" height="28.000000" fill="#FFFFFF" fill-opacity="0"/>
	<rect id="Mask" y="4.000000" rx="3.000000" width="28.000000" height="20.000000" fill="#FFFFFF" fill-opacity="1.000000"/>
	<rect id="Mask" y="4.000000" rx="3.000000" width="28.000000" height="20.000000" stroke="#979797" stroke-opacity="0" stroke-width="0.000000"/>
	<mask id="mask17_5764" mask-type="alpha" maskUnits="userSpaceOnUse" x="0.000000" y="4.000000" width="28.000000" height="20.000000">
		<rect id="Mask" y="4.000000" rx="3.000000" width="28.000000" height="20.000000" fill="#FFFFFF" fill-opacity="1.000000"/>
		<rect id="Mask" y="4.000000" rx="3.000000" width="28.000000" height="20.000000" stroke="#979797" stroke-opacity="0" stroke-width="0.000000"/>
	</mask>
	<g mask="url(#mask17_5764)">
		<path id="Rectangle 2" d="M0 9.33L28 9.33L28 4L0 4L0 9.33Z" fill="#DD172C" fill-opacity="1.000000" fill-rule="evenodd"/>
		<path id="Rectangle 2" d="M28 9.33L28 4L0 4L0 9.33L28 9.33Z" stroke="#979797" stroke-opacity="0" stroke-width="0.000000"/>
	</g>
	<g mask="url(#mask17_5764)">
		<path id="Rectangle 2" d="M0 23.99L28 23.99L28 18.66L0 18.66L0 23.99Z" fill="#DD172C" fill-opacity="1.000000" fill-rule="evenodd"/>
		<path id="Rectangle 2" d="M28 23.99L28 18.66L0 18.66L0 23.99L28 23.99Z" stroke="#979797" stroke-opacity="0" stroke-width="0.000000"/>
	</g>
	<g mask="url(#mask17_5764)">
		<path id="Rectangle 2" d="M0 18.66L28 18.66L28 9.33L0 9.33L0 18.66Z" fill="#FFD133" fill-opacity="1.000000" fill-rule="evenodd"/>
		<path id="Rectangle 2" d="M28 18.66L28 9.33L0 9.33L0 18.66L28 18.66Z" stroke="#979797" stroke-opacity="0" stroke-width="0.000000"/>
	</g>
	<g mask="url(#mask17_5764)">
		<path id="Rectangle 139 Copy" d="M7.33 13.33L8.66 13.33L8.66 14L7.33 14L7.33 13.33Z" fill="#FFEDB1" fill-opacity="1.000000" fill-rule="evenodd"/>
		<path id="Rectangle 139 Copy" d="M8.66 13.33L8.66 14L7.33 14L7.33 13.33L8.66 13.33Z" stroke="#979797" stroke-opacity="0" stroke-width="0.000000"/>
	</g>
	<g mask="url(#mask17_5764)">
		<path id="Rectangle 137" d="M5.72 13.38C5.69 13 6 12.66 6.39 12.66L8.27 12.66C8.66 12.66 8.97 13 8.93 13.38L8.76 15.44C8.71 16.13 8.13 16.66 7.43 16.66L7.22 16.66C6.53 16.66 5.95 16.13 5.89 15.44L5.72 13.38Z" fill="#FFFFFF" fill-opacity="0" fill-rule="evenodd"/>
		<path id="Rectangle 137" d="M5.72 13.38C5.69 13 6 12.66 6.39 12.66L8.27 12.66C8.66 12.66 8.97 13 8.93 13.38L8.76 15.44C8.71 16.13 8.13 16.66 7.43 16.66L7.22 16.66C6.53 16.66 5.95 16.13 5.89 15.44L5.72 13.38ZM6.39 13.33L8.27 13.33L8.1 15.38Q8.09 15.51 8.04 15.62Q7.98 15.73 7.89 15.82Q7.79 15.91 7.68 15.95Q7.56 15.99 7.43 15.99L7.22 15.99Q7.09 15.99 6.98 15.95Q6.87 15.91 6.77 15.82Q6.67 15.73 6.62 15.62Q6.57 15.51 6.56 15.38L6.39 13.33Z" fill="#A41517" fill-opacity="1.000000" fill-rule="evenodd"/>
	</g>
	<g mask="url(#mask17_5764)">
		<path id="Rectangle 139" d="M6 14L8.66 14L8.66 14.66L8 14.66L7.33 16L6.66 14.66L6 14.66L6 14Z" fill="#A41517" fill-opacity="1.000000" fill-rule="evenodd"/>
		<path id="Rectangle 139" d="M8.66 14L8.66 14.66L8 14.66L7.33 16L6.66 14.66L6 14.66L6 14L8.66 14Z" stroke="#979797" stroke-opacity="0" stroke-width="0.000000"/>
	</g>
	<g mask="url(#mask17_5764)">
		<rect id="Rectangle 135" x="4.000000" y="12.000000" rx="0.666667" width="1.333333" height="4.666667" fill="#A41517" fill-opacity="1.000000"/>
		<rect id="Rectangle 135" x="4.000000" y="12.000000" rx="0.666667" width="1.333333" height="4.666667" stroke="#979797" stroke-opacity="0" stroke-width="0.000000"/>
	</g>
	<g mask="url(#mask17_5764)">
		<rect id="Rectangle 135 Copy" x="9.333344" y="12.000000" rx="0.666667" width="1.333333" height="4.666667" fill="#A41517" fill-opacity="1.000000"/>
		<rect id="Rectangle 135 Copy" x="9.333344" y="12.000000" rx="0.666667" width="1.333333" height="4.666667" stroke="#979797" stroke-opacity="0" stroke-width="0.000000"/>
	</g>
	<g mask="url(#mask17_5764)">
		<path id="Rectangle 138" d="M7.06 10.66L7.6 10.66C8.18 10.66 8.66 11.14 8.66 11.73C8.66 11.88 8.54 11.99 8.39 11.99L6.26 11.99C6.11 11.99 6 11.88 6 11.73C6 11.14 6.47 10.66 7.06 10.66Z" fill="#A41517" fill-opacity="1.000000" fill-rule="evenodd"/>
		<path id="Rectangle 138" d="M7.6 10.66C8.18 10.66 8.66 11.14 8.66 11.73C8.66 11.88 8.54 11.99 8.39 11.99L6.26 11.99C6.11 11.99 6 11.88 6 11.73C6 11.14 6.47 10.66 7.06 10.66L7.6 10.66Z" stroke="#979797" stroke-opacity="0" stroke-width="0.000000"/>
	</g>
</svg>
