<svg viewBox="0 0 28 28" xmlns="http://www.w3.org/2000/svg" xmlns:xlink="http://www.w3.org/1999/xlink" width="28.000000" height="28.000000" fill="none" customFrame="#000000">
	<defs>
		<filter id="pixso_custom_mask_type_alpha">
			<feColorMatrix type="matrix" values="0 0 0 0 1 0 0 0 0 1 0 0 0 0 1 0 0 0 1 0 " />
		</filter>
	</defs>
	<mask id="mask_390" width="28.000000" height="20.000000" x="0.000000" y="4.000000" maskUnits="userSpaceOnUse">
		<g filter="url(#pixso_custom_mask_type_alpha)">
			<rect id="Mask" width="28.000000" height="20.000000" x="0.000000" y="4.000000" rx="3.000000" fill="rgb(255,255,255)" />
			<rect id="Mask" width="28.000000" height="20.000000" x="0.000000" y="4.000000" rx="3.000000" stroke="rgb(150.96,150.96,150.96)" stroke-opacity="0" stroke-width="0" />
		</g>
	</mask>
	<rect id="Spain" width="28.000000" height="28.000000" x="0.000000" y="0.000000" fill="rgb(255,255,255)" fill-opacity="0" />
	<rect id="Mask" width="28.000000" height="20.000000" x="0.000000" y="4.000000" rx="3.000000" fill="rgb(255,255,255)" />
	<rect id="Mask" width="28.000000" height="20.000000" x="0.000000" y="4.000000" rx="3.000000" stroke="rgb(150.96,150.96,150.96)" stroke-opacity="0" stroke-width="0" />
	<g mask="url(#mask_390)">
		<path id="Rectangle 2" d="M0 9.33333L28 9.33333L28 4L0 4L0 9.33333Z" fill="rgb(221,23,44)" fill-rule="evenodd" />
		<path id="Rectangle 2" d="M28 9.33333L28 4L0 4L0 9.33333L28 9.33333Z" fill-rule="evenodd" stroke="rgb(150.96,150.96,150.96)" stroke-opacity="0" stroke-width="0" />
		<path id="Rectangle 2" d="M0 24L28 24L28 18.6666L0 18.6666L0 24Z" fill="rgb(221,23,44)" fill-rule="evenodd" />
		<path id="Rectangle 2" d="M28 24L28 18.6666L0 18.6666L0 24L28 24Z" fill-rule="evenodd" stroke="rgb(150.96,150.96,150.96)" stroke-opacity="0" stroke-width="0" />
		<path id="Rectangle 2" d="M0 18.6667L28 18.6667L28 9.33337L0 9.33337L0 18.6667Z" fill="rgb(255,209,51)" fill-rule="evenodd" />
		<path id="Rectangle 2" d="M28 18.6667L28 9.33337L0 9.33337L0 18.6667L28 18.6667Z" fill-rule="evenodd" stroke="rgb(150.96,150.96,150.96)" stroke-opacity="0" stroke-width="0" />
		<path id="Rectangle 139 Copy" d="M7.33334 13.3333L8.66668 13.3333L8.66668 14L7.33334 14L7.33334 13.3333Z" fill="rgb(255,237.048,176.595)" fill-rule="evenodd" />
		<path id="Rectangle 139 Copy" d="M8.66668 13.3333L8.66668 14L7.33334 14L7.33334 13.3333L8.66668 13.3333Z" fill-rule="evenodd" stroke="rgb(150.96,150.96,150.96)" stroke-opacity="0" stroke-width="0" />
		<path id="Rectangle 137" d="M5.72683 13.3887C5.69444 13 6.00116 12.6666 6.39119 12.6666L8.27546 12.6666C8.66548 12.6666 8.97221 13 8.93982 13.3887L8.76854 15.444C8.71095 16.1351 8.13326 16.6666 7.43981 16.6666L7.22683 16.6666C6.53338 16.6666 5.95569 16.1351 5.89811 15.444L5.72683 13.3887Z" fill="rgb(255,255,255)" fill-opacity="0" fill-rule="evenodd" />
		<path id="Rectangle 137" d="M6.39119 12.6666C6.00116 12.6666 5.69444 13 5.72683 13.3887L5.89811 15.444C5.95569 16.1351 6.53338 16.6666 7.22683 16.6666L7.43981 16.6666C8.13326 16.6666 8.71095 16.1351 8.76854 15.444L8.93982 13.3887C8.97221 13 8.66548 12.6666 8.27546 12.6666L6.39119 12.6666ZM6.39119 13.3333L8.27546 13.3333L8.10418 15.3887C8.09698 15.475 8.07563 15.5545 8.04014 15.627C8.00465 15.6996 7.95501 15.7652 7.89122 15.8239C7.82743 15.8826 7.75792 15.9266 7.68268 15.9559C7.60745 15.9853 7.52649 16 7.43981 16L7.22683 16C7.14015 16 7.0592 15.9853 6.98396 15.9559C6.90873 15.9266 6.83922 15.8826 6.77543 15.8239C6.71164 15.7652 6.662 15.6996 6.62651 15.627C6.59101 15.5545 6.56967 15.475 6.56247 15.3887L6.39119 13.3333Z" fill="rgb(164,21,23)" fill-rule="evenodd" />
		<path id="Rectangle 139" d="M6 14L8.66667 14L8.66667 14.6667L8 14.6667L7.33333 16L6.66667 14.6667L6 14.6667L6 14Z" fill="rgb(164,21,23)" fill-rule="evenodd" />
		<path id="Rectangle 139" d="M8.66667 14L8.66667 14.6667L8 14.6667L7.33333 16L6.66667 14.6667L6 14.6667L6 14L8.66667 14Z" fill-rule="evenodd" stroke="rgb(150.96,150.96,150.96)" stroke-opacity="0" stroke-width="0" />
		<rect id="Rectangle 135" width="1.333333" height="4.666667" x="4.000000" y="12.000000" rx="0.666667" fill="rgb(164,21,23)" />
		<rect id="Rectangle 135" width="1.333333" height="4.666667" x="4.000000" y="12.000000" rx="0.666667" stroke="rgb(150.96,150.96,150.96)" stroke-opacity="0" stroke-width="0" />
		<rect id="Rectangle 135 Copy" width="1.333333" height="4.666667" x="9.333344" y="12.000000" rx="0.666667" fill="rgb(164,21,23)" />
		<rect id="Rectangle 135 Copy" width="1.333333" height="4.666667" x="9.333344" y="12.000000" rx="0.666667" stroke="rgb(150.96,150.96,150.96)" stroke-opacity="0" stroke-width="0" />
		<path id="Rectangle 138" d="M7.6 10.6666C8.1891 10.6666 8.66667 11.1442 8.66667 11.7333C8.66667 11.8806 8.54728 12 8.4 12L6.26667 12C6.11939 12 6 11.8806 6 11.7333C6 11.1442 6.47756 10.6666 7.06667 10.6666L7.6 10.6666Z" fill="rgb(164,21,23)" fill-rule="evenodd" />
		<path id="Rectangle 138" d="M7.6 10.6666C8.1891 10.6666 8.66667 11.1442 8.66667 11.7333C8.66667 11.8806 8.54728 12 8.4 12L6.26667 12C6.11939 12 6 11.8806 6 11.7333C6 11.1442 6.47756 10.6666 7.06667 10.6666L7.6 10.6666Z" fill-rule="evenodd" stroke="rgb(150.96,150.96,150.96)" stroke-opacity="0" stroke-width="0" />
	</g>
</svg>
