<svg width="28.000000" height="28.000000" viewBox="0 0 28 28" fill="none" xmlns="http://www.w3.org/2000/svg" xmlns:xlink="http://www.w3.org/1999/xlink">
	<desc>
			Created with Pixso.
	</desc>
	<defs/>
	<rect id="Sri Lanka" width="28.000000" height="28.000000" fill="#FFFFFF" fill-opacity="0"/>
	<rect id="Mask" y="4.000000" rx="3.000000" width="28.000000" height="20.000000" fill="#FFFFFF" fill-opacity="1.000000"/>
	<rect id="Mask" y="4.000000" rx="3.000000" width="28.000000" height="20.000000" stroke="#979797" stroke-opacity="0" stroke-width="0.000000"/>
	<mask id="mask17_4635" mask-type="alpha" maskUnits="userSpaceOnUse" x="0.000000" y="4.000000" width="28.000000" height="20.000000">
		<rect id="Mask" y="4.000000" rx="3.000000" width="28.000000" height="20.000000" fill="#FFFFFF" fill-opacity="1.000000"/>
		<rect id="Mask" y="4.000000" rx="3.000000" width="28.000000" height="20.000000" stroke="#979797" stroke-opacity="0" stroke-width="0.000000"/>
	</mask>
	<g mask="url(#mask17_4635)">
		<rect id="Mask Copy" y="4.000000" width="28.000000" height="20.000000" fill="#FFBF19" fill-opacity="1.000000"/>
		<rect id="Mask Copy" y="4.000000" width="28.000000" height="20.000000" stroke="#979797" stroke-opacity="0" stroke-width="0.000000"/>
	</g>
	<g mask="url(#mask17_4635)">
		<path id="Rectangle 1568" d="M10.66 5.33L25.33 5.33C26.06 5.33 26.66 5.93 26.66 6.66L26.66 21.33C26.66 22.06 26.06 22.66 25.33 22.66L10.66 22.66L10.66 5.33Z" fill="#A52531" fill-opacity="1.000000" fill-rule="evenodd"/>
		<path id="Rectangle 1568" d="M25.33 5.33C26.06 5.33 26.66 5.93 26.66 6.66L26.66 21.33C26.66 22.06 26.06 22.66 25.33 22.66L10.66 22.66L10.66 5.33L25.33 5.33Z" stroke="#979797" stroke-opacity="0" stroke-width="0.000000"/>
	</g>
	<g mask="url(#mask17_4635)">
		<path id="Rectangle 1568" d="M2.66 5.33L5.33 5.33L5.33 22.66L2.66 22.66C1.93 22.66 1.33 22.06 1.33 21.33L1.33 6.66C1.33 5.93 1.93 5.33 2.66 5.33Z" fill="#03664F" fill-opacity="1.000000" fill-rule="evenodd"/>
		<path id="Rectangle 1568" d="M5.33 5.33L5.33 22.66L2.66 22.66C1.93 22.66 1.33 22.06 1.33 21.33L1.33 6.66C1.33 5.93 1.93 5.33 2.66 5.33L5.33 5.33Z" stroke="#979797" stroke-opacity="0" stroke-width="0.000000"/>
	</g>
	<g mask="url(#mask17_4635)">
		<rect id="Rectangle 1568" x="5.333374" y="5.333374" rx="0.666667" width="4.000000" height="17.333334" fill="#FF6816" fill-opacity="1.000000"/>
		<rect id="Rectangle 1568" x="5.333374" y="5.333374" rx="0.666667" width="4.000000" height="17.333334" stroke="#979797" stroke-opacity="0" stroke-width="0.000000"/>
	</g>
	<g mask="url(#mask17_4635)">
		<mask id="mask_17_4640" fill="white">
			<path id="Oval 157" d="M13.3333 7.33329C13.3333 7.70148 13.0349 7.99996 12.6667 7.99996C12.2985 7.99996 12 7.70148 12 7.33329L12 6.66663L12.6667 6.66663C13.0349 6.66663 13.3333 6.9651 13.3333 7.33329ZM24 7.33329C24 7.70148 24.2985 7.99996 24.6667 7.99996C25.0349 7.99996 25.3333 7.70148 25.3333 7.33329L25.3333 6.66663L24.6667 6.66663C24.2985 6.66663 24 6.9651 24 7.33329ZM13.3333 20.6666C13.3333 20.2984 13.0349 20 12.6667 20C12.2985 20 12 20.2984 12 20.6666L12 21.3333L12.6667 21.3333C13.0349 21.3333 13.3333 21.0348 13.3333 20.6666ZM24.6667 20C24.2985 20 24 20.2984 24 20.6666C24 21.0348 24.2985 21.3333 24.6667 21.3333L25.3333 21.3333L25.3333 20.6666C25.3333 20.2984 25.0349 20 24.6667 20Z" clip-rule="evenodd" fill="" fill-opacity="1.000000" fill-rule="evenodd"/>
		</mask>
		<path id="Oval 157" d="M13.3333 7.33329C13.3333 7.70148 13.0349 7.99996 12.6667 7.99996C12.2985 7.99996 12 7.70148 12 7.33329L12 6.66663L12.6667 6.66663C13.0349 6.66663 13.3333 6.9651 13.3333 7.33329ZM24 7.33329C24 7.70148 24.2985 7.99996 24.6667 7.99996C25.0349 7.99996 25.3333 7.70148 25.3333 7.33329L25.3333 6.66663L24.6667 6.66663C24.2985 6.66663 24 6.9651 24 7.33329ZM13.3333 20.6666C13.3333 20.2984 13.0349 20 12.6667 20C12.2985 20 12 20.2984 12 20.6666L12 21.3333L12.6667 21.3333C13.0349 21.3333 13.3333 21.0348 13.3333 20.6666ZM24.6667 20C24.2985 20 24 20.2984 24 20.6666C24 21.0348 24.2985 21.3333 24.6667 21.3333L25.3333 21.3333L25.3333 20.6666C25.3333 20.2984 25.0349 20 24.6667 20Z" clip-rule="evenodd" fill="#FFBF18" fill-opacity="1.000000" fill-rule="evenodd" mask="url(#mask_17_4640)"/>
		<path id="Oval 157" d="" fill="#979797" fill-opacity="0.000000" fill-rule="nonzero"/>
	</g>
	<g mask="url(#mask17_4635)">
		<path id="Rectangle 1067" d="M16 16.57C16 16.25 15.74 16 15.42 16L15.42 16C15.36 16 15.3 15.99 15.24 15.96C14.85 15.83 13.33 15.24 13.33 14.66C13.33 14.3 13.53 13.93 13.71 13.68C13.87 13.45 13.92 13.16 13.83 12.91C13.6 12.31 13.23 11.22 13.33 10.66C13.38 10.36 13.58 10.1 13.81 9.89C14.16 9.56 14.66 9.87 14.66 10.35L14.66 12.92C14.66 13.17 14.8 13.4 15.03 13.51L15.71 13.85C15.88 13.94 16.09 13.9 16.22 13.77L16.22 13.77C16.44 13.55 16.38 13.19 16.11 13.05L15.33 12.66L15.33 12L15.33 12C15.66 12 15.77 11.55 15.47 11.4L15.33 11.33L15.33 10.66L16.39 10.66C16.56 10.66 16.73 10.59 16.86 10.47L17.13 10.19C17.26 10.07 17.43 10 17.6 10L18.25 10C18.5 10 18.73 10.14 18.85 10.36L19.2 11.08C19.28 11.24 19.3 11.42 19.24 11.59L18.95 12.45C18.81 12.88 19.13 13.33 19.59 13.33L21.78 13.33C21.92 13.33 22.05 13.27 22.15 13.18L22.15 13.18C22.4 12.92 22.33 12.5 22.01 12.34L21.47 12.07C21.38 12.02 21.27 12 21.17 12L20.66 12C20.29 12 20 11.7 20 11.33L20 10.94C20 10.76 20.07 10.59 20.19 10.47L20.66 10L20.66 10.66C20.66 11.03 20.96 11.33 21.33 11.33L21.33 11.33L22.25 11.33C22.5 11.33 22.73 11.47 22.85 11.7L23.27 12.55C23.31 12.63 23.33 12.7 23.34 12.78C23.37 13.12 23.44 14.08 23.33 14.66C23.23 15.13 22.97 15.56 22.81 15.8C22.72 15.93 22.66 16.08 22.66 16.24L22.66 18.15C22.66 18.43 22.43 18.66 22.15 18.66L22.15 18.66C21.77 18.66 21.53 18.26 21.7 17.92L21.92 17.47C21.97 17.38 21.97 17.28 21.92 17.19L21.89 17.12C21.75 16.84 21.33 16.94 21.33 17.26L21.33 17.26C21.33 17.3 21.32 17.35 21.3 17.39L20.83 18.33C20.73 18.53 20.52 18.66 20.29 18.66L20.29 18.66C19.85 18.66 19.56 18.2 19.76 17.8L19.92 17.47C19.97 17.38 20 17.27 20 17.17L20 16.66C20 16.29 19.7 16 19.33 16L18 16C17.63 16 17.33 16.29 17.33 16.66L17.33 17.17C17.33 17.27 17.3 17.38 17.26 17.47L16.83 18.33C16.73 18.53 16.52 18.66 16.29 18.66L16.29 18.66C15.85 18.66 15.56 18.2 15.76 17.8L15.92 17.47C15.97 17.38 16 17.27 16 17.17L16 16.57Z" fill="#FFBF18" fill-opacity="1.000000" fill-rule="evenodd"/>
		<path id="Rectangle 1067" d="M13.33 14.66C13.33 14.3 13.53 13.93 13.71 13.68C13.87 13.45 13.92 13.16 13.83 12.91C13.6 12.31 13.23 11.22 13.33 10.66C13.38 10.36 13.58 10.1 13.81 9.89C14.16 9.56 14.66 9.87 14.66 10.35L14.66 12.92C14.66 13.17 14.8 13.4 15.03 13.51L15.71 13.85C15.88 13.94 16.09 13.9 16.22 13.77C16.44 13.55 16.38 13.19 16.11 13.05L15.33 12.66L15.33 12C15.66 12 15.77 11.55 15.47 11.4L15.33 11.33L15.33 10.66L16.39 10.66C16.56 10.66 16.73 10.59 16.86 10.47L17.13 10.19C17.26 10.07 17.43 10 17.6 10L18.25 10C18.5 10 18.73 10.14 18.85 10.36L19.2 11.08C19.28 11.24 19.3 11.42 19.24 11.59L18.95 12.45C18.81 12.88 19.13 13.33 19.59 13.33L21.78 13.33C21.92 13.33 22.05 13.27 22.15 13.18C22.4 12.92 22.33 12.5 22.01 12.34L21.47 12.07C21.38 12.02 21.27 12 21.17 12L20.66 12C20.29 12 20 11.7 20 11.33L20 10.94C20 10.76 20.07 10.59 20.19 10.47L20.66 10L20.66 10.66C20.66 11.03 20.96 11.33 21.33 11.33L22.25 11.33C22.5 11.33 22.73 11.47 22.85 11.7L23.27 12.55C23.31 12.63 23.34 12.7 23.34 12.78C23.37 13.12 23.44 14.08 23.33 14.66C23.23 15.13 22.97 15.56 22.81 15.8C22.72 15.93 22.66 16.08 22.66 16.24L22.66 18.15C22.66 18.43 22.43 18.66 22.15 18.66C21.77 18.66 21.53 18.26 21.7 17.92L21.89 17.53C21.96 17.4 21.96 17.25 21.89 17.12C21.75 16.84 21.33 16.94 21.33 17.26C21.33 17.3 21.32 17.35 21.3 17.39L20.83 18.33C20.73 18.53 20.52 18.66 20.29 18.66C19.85 18.66 19.56 18.2 19.76 17.8L19.92 17.47C19.97 17.38 20 17.27 20 17.17L20 16.66C20 16.29 19.7 16 19.33 16L18 16C17.63 16 17.33 16.29 17.33 16.66L17.33 17.17C17.33 17.27 17.3 17.38 17.26 17.47L16.83 18.33C16.73 18.53 16.52 18.66 16.29 18.66C15.85 18.66 15.56 18.2 15.76 17.8L15.92 17.47C15.97 17.38 16 17.27 16 17.17L16 16.57C16 16.25 15.74 16 15.42 16C15.36 16 15.3 15.99 15.24 15.96C14.85 15.83 13.33 15.24 13.33 14.66Z" stroke="#979797" stroke-opacity="0" stroke-width="0.000000"/>
	</g>
</svg>
