<svg viewBox="0 0 28 28" xmlns="http://www.w3.org/2000/svg" xmlns:xlink="http://www.w3.org/1999/xlink" width="28.000000" height="28.000000" fill="none" customFrame="#000000">
	<defs>
		<filter id="pixso_custom_mask_type_alpha">
			<feColorMatrix type="matrix" values="0 0 0 0 1 0 0 0 0 1 0 0 0 0 1 0 0 0 1 0 " />
		</filter>
	</defs>
	<mask id="mask_513" width="28.000000" height="20.000000" x="0.000000" y="4.000000" maskUnits="userSpaceOnUse">
		<g filter="url(#pixso_custom_mask_type_alpha)">
			<rect id="Mask" width="28.000000" height="20.000000" x="0.000000" y="4.000000" rx="3.000000" fill="rgb(255,255,255)" />
			<rect id="Mask" width="27.500000" height="19.500000" x="0.250000" y="4.250000" rx="2.750000" stroke="rgb(245,245,245)" stroke-width="0.5" />
		</g>
	</mask>
	<rect id="Syrian Arab Republic" width="28.000000" height="28.000000" x="0.000000" y="0.000000" fill="rgb(255,255,255)" fill-opacity="0" />
	<rect id="Mask" width="28.000000" height="20.000000" x="0.000000" y="4.000000" rx="3.000000" fill="rgb(255,255,255)" />
	<rect id="Mask" width="27.500000" height="19.500000" x="0.250000" y="4.250000" rx="2.750000" stroke="rgb(214,216,221)" stroke-width="0.5" />
	<g mask="url(#mask_513)">
		<path id="Rectangle 2" d="M0 24L28 24L28 17.3334L0 17.3334L0 24Z" fill="rgb(38,38,38)" fill-rule="evenodd" />
		<path id="Rectangle 2" d="M28 24L28 17.3334L0 17.3334L0 24L28 24Z" fill-rule="evenodd" stroke="rgb(150.96,150.96,150.96)" stroke-opacity="0" stroke-width="0" />
		<path id="Rectangle 2" d="M0 10.6667L28 10.6667L28 4L0 4L0 10.6667Z" fill="rgb(227,33,57)" fill-rule="evenodd" />
		<path id="Rectangle 2" d="M28 10.6667L28 4L0 4L0 10.6667L28 10.6667Z" fill-rule="evenodd" stroke="rgb(150.96,150.96,150.96)" stroke-opacity="0" stroke-width="0" />
		<path id="Star 33" d="M9.33335 15.0934L7.76593 16.1574L8.29353 14.3379L6.7972 13.176L8.69071 13.1155L9.33335 11.3334L9.976 13.1155L11.8695 13.176L10.3732 14.3379L10.9008 16.1574L9.33335 15.0934Z" fill="rgb(18,138,73)" fill-rule="evenodd" />
		<path id="Star 33" d="M7.76593 16.1574L8.29353 14.3379L6.7972 13.176L8.69071 13.1155L9.33335 11.3334L9.976 13.1155L11.8695 13.176L10.3732 14.3379L10.9008 16.1574L9.33335 15.0934L7.76593 16.1574Z" fill-rule="evenodd" stroke="rgb(150.96,150.96,150.96)" stroke-opacity="0" stroke-width="0" />
		<path id="Star 33" d="M18.6667 15.0934L17.0992 16.1574L17.6268 14.3379L16.1305 13.176L18.024 13.1155L18.6667 11.3334L19.3093 13.1155L21.2028 13.176L19.7065 14.3379L20.2341 16.1574L18.6667 15.0934Z" fill="rgb(18,138,73)" fill-rule="evenodd" />
		<path id="Star 33" d="M17.0992 16.1574L17.6268 14.3379L16.1305 13.176L18.024 13.1155L18.6667 11.3334L19.3093 13.1155L21.2028 13.176L19.7065 14.3379L20.2341 16.1574L18.6667 15.0934L17.0992 16.1574Z" fill-rule="evenodd" stroke="rgb(150.96,150.96,150.96)" stroke-opacity="0" stroke-width="0" />
	</g>
</svg>
