<svg viewBox="0 0 28 28" xmlns="http://www.w3.org/2000/svg" xmlns:xlink="http://www.w3.org/1999/xlink" width="28.000000" height="28.000000" fill="none" customFrame="#000000">
	<defs>
		<filter id="pixso_custom_mask_type_alpha">
			<feColorMatrix type="matrix" values="0 0 0 0 1 0 0 0 0 1 0 0 0 0 1 0 0 0 1 0 " />
		</filter>
	</defs>
	<mask id="mask_543" width="28.000000" height="20.000000" x="0.000000" y="4.000000" maskUnits="userSpaceOnUse">
		<g filter="url(#pixso_custom_mask_type_alpha)">
			<rect id="Mask" width="28.000000" height="20.000000" x="0.000000" y="4.000000" rx="3.000000" fill="rgb(255,255,255)" />
			<rect id="Mask" width="28.000000" height="20.000000" x="0.000000" y="4.000000" rx="3.000000" stroke="rgb(150.96,150.96,150.96)" stroke-opacity="0" stroke-width="0" />
		</g>
	</mask>
	<rect id="Taiwan" width="28.000000" height="28.000000" x="0.000000" y="0.000000" fill="rgb(255,255,255)" fill-opacity="0" />
	<rect id="Mask" width="28.000000" height="20.000000" x="0.000000" y="4.000000" rx="3.000000" fill="rgb(255,255,255)" />
	<rect id="Mask" width="28.000000" height="20.000000" x="0.000000" y="4.000000" rx="3.000000" stroke="rgb(150.96,150.96,150.96)" stroke-opacity="0" stroke-width="0" />
	<g mask="url(#mask_543)">
		<path id="Rectangle 2" d="M-1.33331 25.3333L29.3334 25.3333L29.3334 2.66663L-1.33331 2.66663L-1.33331 25.3333Z" fill="rgb(254,48,48)" fill-rule="evenodd" />
		<path id="Rectangle 2" d="M29.3334 25.3333L29.3334 2.66663L-1.33331 2.66663L-1.33331 25.3333L29.3334 25.3333Z" fill-rule="evenodd" stroke="rgb(150.96,150.96,150.96)" stroke-opacity="0" stroke-width="0" />
		<path id="Rectangle 2" d="M-1.33331 14.6666L14.6667 14.6666L14.6667 2.66663L-1.33331 2.66663L-1.33331 14.6666Z" fill="rgb(9,9,182)" fill-rule="evenodd" />
		<path id="Rectangle 2" d="M14.6667 14.6666L14.6667 2.66663L-1.33331 2.66663L-1.33331 14.6666L14.6667 14.6666Z" fill-rule="evenodd" stroke="rgb(150.96,150.96,150.96)" stroke-opacity="0" stroke-width="0" />
		<path id="Star 27" d="M7.33333 11L6.05772 12.4129L6.15482 10.5118L4.25374 10.6089L5.66667 9.33333L4.25374 8.05772L6.15482 8.15482L6.05772 6.25374L7.33333 7.66667L8.60894 6.25374L8.51184 8.15482L10.4129 8.05772L9 9.33333L10.4129 10.6089L8.51184 10.5118L8.60894 12.4129L7.33333 11Z" fill="rgb(255,255,255)" fill-rule="evenodd" />
		<path id="Star 27" d="M6.05772 12.4129L6.15482 10.5118L4.25374 10.6089L5.66667 9.33333L4.25374 8.05772L6.15482 8.15482L6.05772 6.25374L7.33333 7.66667L8.60894 6.25374L8.51184 8.15482L10.4129 8.05772L9 9.33333L10.4129 10.6089L8.51184 10.5118L8.60894 12.4129L7.33333 11L6.05772 12.4129Z" fill-rule="evenodd" stroke="rgb(150.96,150.96,150.96)" stroke-opacity="0" stroke-width="0" />
	</g>
</svg>
