<svg viewBox="0 0 30.6667 28" xmlns="http://www.w3.org/2000/svg" xmlns:xlink="http://www.w3.org/1999/xlink" width="30.666672" height="28.000000" fill="none" customFrame="#000000">
	<defs>
		<filter id="pixso_custom_mask_type_alpha">
			<feColorMatrix type="matrix" values="0 0 0 0 1 0 0 0 0 1 0 0 0 0 1 0 0 0 1 0 " />
		</filter>
	</defs>
	<mask id="mask_22" width="28.000000" height="20.000000" x="1.333328" y="4.000000" maskUnits="userSpaceOnUse">
		<g filter="url(#pixso_custom_mask_type_alpha)">
			<rect id="Mask" width="28.000000" height="20.000000" x="1.333328" y="4.000000" rx="3.000000" fill="rgb(255,255,255)" />
			<rect id="Mask" width="28.000000" height="20.000000" x="1.333328" y="4.000000" rx="3.000000" stroke="rgb(150.96,150.96,150.96)" stroke-opacity="0" stroke-width="0.000000" />
		</g>
	</mask>
	<rect id="Taiwan" width="28.000000" height="28.000000" x="1.333328" y="0.000000" fill="rgb(255,255,255)" fill-opacity="0" />
	<rect id="Mask" width="28.000000" height="20.000000" x="1.333328" y="4.000000" rx="3.000000" fill="rgb(255,255,255)" />
	<rect id="Mask" width="28.000000" height="20.000000" x="1.333328" y="4.000000" rx="3.000000" stroke="rgb(150.96,150.96,150.96)" stroke-opacity="0" stroke-width="0.000000" />
	<g mask="url(#mask_22)">
		<path id="Rectangle 2" d="M1.52588e-05 25.3333L30.6667 25.3333L30.6667 2.66663L1.52588e-05 2.66663L1.52588e-05 25.3333Z" fill="rgb(254,48,48)" fill-rule="evenodd" />
		<path id="Rectangle 2" d="M30.6667 25.3333L30.6667 2.66663L1.52588e-05 2.66663L1.52588e-05 25.3333L30.6667 25.3333Z" fill-rule="evenodd" stroke="rgb(150.96,150.96,150.96)" stroke-opacity="0" stroke-width="0.000000" />
		<path id="Rectangle 2" d="M1.52588e-05 14.6666L16 14.6666L16 2.66663L1.52588e-05 2.66663L1.52588e-05 14.6666Z" fill="rgb(9,9,182)" fill-rule="evenodd" />
		<path id="Rectangle 2" d="M16 14.6666L16 2.66663L1.52588e-05 2.66663L1.52588e-05 14.6666L16 14.6666Z" fill-rule="evenodd" stroke="rgb(150.96,150.96,150.96)" stroke-opacity="0" stroke-width="0.000000" />
		<path id="Star 27" d="M8.66666 11L7.39105 12.4129L7.48815 10.5118L5.58706 10.6089L6.99999 9.33333L5.58706 8.05772L7.48815 8.15482L7.39105 6.25374L8.66666 7.66667L9.94227 6.25374L9.84517 8.15482L11.7463 8.05772L10.3333 9.33333L11.7463 10.6089L9.84517 10.5118L9.94227 12.4129L8.66666 11Z" fill="rgb(255,255,255)" fill-rule="evenodd" />
		<path id="Star 27" d="M7.39105 12.4129L7.48815 10.5118L5.58706 10.6089L6.99999 9.33333L5.58706 8.05772L7.48815 8.15482L7.39105 6.25374L8.66666 7.66667L9.94227 6.25374L9.84517 8.15482L11.7463 8.05772L10.3333 9.33333L11.7463 10.6089L9.84517 10.5118L9.94227 12.4129L8.66666 11L7.39105 12.4129Z" fill-rule="evenodd" stroke="rgb(150.96,150.96,150.96)" stroke-opacity="0" stroke-width="0.000000" />
	</g>
</svg>
