<svg width="28.000000" height="28.000000" viewBox="0 0 28 28" fill="none" xmlns="http://www.w3.org/2000/svg" xmlns:xlink="http://www.w3.org/1999/xlink">
	<desc>
			Created with Pixso.
	</desc>
	<defs/>
	<rect id="Tajikistan" width="28.000000" height="28.000000" fill="#FFFFFF" fill-opacity="0"/>
	<rect id="Mask" y="4.000000" rx="3.000000" width="28.000000" height="20.000000" fill="#FFFFFF" fill-opacity="1.000000"/>
	<rect id="Mask" x="0.250000" y="4.250000" rx="3.000000" width="27.500000" height="19.500000" stroke="#D6D8DD" stroke-opacity="1.000000" stroke-width="0.500000"/>
	<mask id="mask17_4329" mask-type="alpha" maskUnits="userSpaceOnUse" x="0.000000" y="4.000000" width="28.000000" height="20.000000">
		<rect id="Mask" y="4.000000" rx="3.000000" width="28.000000" height="20.000000" fill="#FFFFFF" fill-opacity="1.000000"/>
		<rect id="Mask" x="0.250000" y="4.250000" rx="3.000000" width="27.500000" height="19.500000" stroke="#F5F5F5" stroke-opacity="1.000000" stroke-width="0.500000"/>
	</mask>
	<g mask="url(#mask17_4329)">
		<path id="Rectangle 2" d="M0 10.66L28 10.66L28 4L0 4L0 10.66Z" fill="#D9101C" fill-opacity="1.000000" fill-rule="evenodd"/>
		<path id="Rectangle 2" d="M28 10.66L28 4L0 4L0 10.66L28 10.66Z" stroke="#979797" stroke-opacity="0" stroke-width="0.000000"/>
	</g>
	<g mask="url(#mask17_4329)">
		<path id="Rectangle 2" d="M0 24L28 24L28 17.33L0 17.33L0 24Z" fill="#0F7811" fill-opacity="1.000000" fill-rule="evenodd"/>
		<path id="Rectangle 2" d="M28 24L28 17.33L0 17.33L0 24L28 24Z" stroke="#979797" stroke-opacity="0" stroke-width="0.000000"/>
	</g>
	<g mask="url(#mask17_4329)">
		<mask id="mask_17_4332" fill="white">
			<path id="Oval 36" d="M13.3334 12.6667C13.3334 13.0349 13.0349 13.3333 12.6667 13.3333C12.2985 13.3333 12.0001 13.0349 12.0001 12.6667C12.0001 12.2985 12.2985 12 12.6667 12C13.0349 12 13.3334 12.2985 13.3334 12.6667ZM16.0001 12.6667C16.0001 13.0349 15.7015 13.3333 15.3334 13.3333C14.9652 13.3333 14.6667 13.0349 14.6667 12.6667C14.6667 12.2985 14.9652 12 15.3334 12C15.7015 12 16.0001 12.2985 16.0001 12.6667ZM10.6667 14C10.6667 14.3682 10.3682 14.6667 10.0001 14.6667C9.63184 14.6667 9.33337 14.3682 9.33337 14C9.33337 13.6318 9.63184 13.3333 10.0001 13.3333C10.3682 13.3333 10.6667 13.6318 10.6667 14ZM14.6667 14C14.6667 14.1206 14.6347 14.3767 14.5787 14.6667L15.3334 14.6667C15.7015 14.6667 16.0001 14.9651 16.0001 15.3333C16.0001 15.7015 15.7015 16 15.3334 16L12.6667 16C12.2985 16 12.0001 15.7015 12.0001 15.3333C12.0001 14.9651 12.2985 14.6667 12.6667 14.6667L13.4214 14.6667C13.3654 14.3767 13.3334 14.1206 13.3334 14C13.3334 13.6318 13.6318 13.3333 14.0001 13.3333C14.3682 13.3333 14.6667 13.6318 14.6667 14ZM18.0001 14.6667C18.3682 14.6667 18.6667 14.3682 18.6667 14C18.6667 13.6318 18.3682 13.3333 18.0001 13.3333C17.6318 13.3333 17.3334 13.6318 17.3334 14C17.3334 14.3682 17.6318 14.6667 18.0001 14.6667Z" clip-rule="evenodd" fill="" fill-opacity="1.000000" fill-rule="evenodd"/>
		</mask>
		<path id="Oval 36" d="M13.3334 12.6667C13.3334 13.0349 13.0349 13.3333 12.6667 13.3333C12.2985 13.3333 12.0001 13.0349 12.0001 12.6667C12.0001 12.2985 12.2985 12 12.6667 12C13.0349 12 13.3334 12.2985 13.3334 12.6667ZM16.0001 12.6667C16.0001 13.0349 15.7015 13.3333 15.3334 13.3333C14.9652 13.3333 14.6667 13.0349 14.6667 12.6667C14.6667 12.2985 14.9652 12 15.3334 12C15.7015 12 16.0001 12.2985 16.0001 12.6667ZM10.6667 14C10.6667 14.3682 10.3682 14.6667 10.0001 14.6667C9.63184 14.6667 9.33337 14.3682 9.33337 14C9.33337 13.6318 9.63184 13.3333 10.0001 13.3333C10.3682 13.3333 10.6667 13.6318 10.6667 14ZM14.6667 14C14.6667 14.1206 14.6347 14.3767 14.5787 14.6667L15.3334 14.6667C15.7015 14.6667 16.0001 14.9651 16.0001 15.3333C16.0001 15.7015 15.7015 16 15.3334 16L12.6667 16C12.2985 16 12.0001 15.7015 12.0001 15.3333C12.0001 14.9651 12.2985 14.6667 12.6667 14.6667L13.4214 14.6667C13.3654 14.3767 13.3334 14.1206 13.3334 14C13.3334 13.6318 13.6318 13.3333 14.0001 13.3333C14.3682 13.3333 14.6667 13.6318 14.6667 14ZM18.0001 14.6667C18.3682 14.6667 18.6667 14.3682 18.6667 14C18.6667 13.6318 18.3682 13.3333 18.0001 13.3333C17.6318 13.3333 17.3334 13.6318 17.3334 14C17.3334 14.3682 17.6318 14.6667 18.0001 14.6667Z" clip-rule="evenodd" fill="#FAD14E" fill-opacity="1.000000" fill-rule="evenodd" mask="url(#mask_17_4332)"/>
		<path id="Oval 36" d="" fill="#979797" fill-opacity="0.000000" fill-rule="nonzero"/>
	</g>
</svg>
