<svg viewBox="0 0 28 28" xmlns="http://www.w3.org/2000/svg" xmlns:xlink="http://www.w3.org/1999/xlink" width="28.000000" height="28.000000" fill="none" customFrame="#000000">
	<defs>
		<filter id="pixso_custom_mask_type_alpha">
			<feColorMatrix type="matrix" values="0 0 0 0 1 0 0 0 0 1 0 0 0 0 1 0 0 0 1 0 " />
		</filter>
	</defs>
	<mask id="mask_533" width="28.000000" height="20.000000" x="0.000000" y="4.000000" maskUnits="userSpaceOnUse">
		<g filter="url(#pixso_custom_mask_type_alpha)">
			<rect id="Mask" width="28.000000" height="20.000000" x="0.000000" y="4.000000" rx="3.000000" fill="rgb(255,255,255)" />
			<rect id="Mask" width="28.000000" height="20.000000" x="0.000000" y="4.000000" rx="3.000000" stroke="rgb(150.96,150.96,150.96)" stroke-opacity="0" stroke-width="0" />
		</g>
	</mask>
	<rect id="Tanzania" width="28.000000" height="28.000000" x="0.000000" y="0.000000" fill="rgb(255,255,255)" fill-opacity="0" />
	<rect id="Mask" width="28.000000" height="20.000000" x="0.000000" y="4.000000" rx="3.000000" fill="rgb(255,255,255)" />
	<rect id="Mask" width="28.000000" height="20.000000" x="0.000000" y="4.000000" rx="3.000000" stroke="rgb(150.96,150.96,150.96)" stroke-opacity="0" stroke-width="0" />
	<g mask="url(#mask_533)">
		<path id="Rectangle 2" d="M0 17.3333L28 4L0 4L0 17.3333Z" fill="rgb(51,204,77)" fill-rule="evenodd" />
		<path id="Rectangle 2" d="M28 4L0 4L0 17.3333L28 4Z" fill-rule="evenodd" stroke="rgb(150.96,150.96,150.96)" stroke-opacity="0" stroke-width="0" />
		<path id="Rectangle 2" d="M0 24L28 24L28 10.6666L0 24Z" fill="rgb(45,175,228)" fill-rule="evenodd" />
		<path id="Rectangle 2" d="M28 24L28 10.6666L0 24L28 24Z" fill-rule="evenodd" stroke="rgb(150.96,150.96,150.96)" stroke-opacity="0" stroke-width="0" />
		<path id="Rectangle 2" d="M3.08239 26.6666L30.1707 9.73998L24.9176 1.33325L-2.17072 18.2599L3.08239 26.6666Z" fill="rgb(255,216,79)" fill-rule="evenodd" />
		<path id="Rectangle 2" d="M30.1707 9.73998L24.9176 1.33325L-2.17072 18.2599L3.08239 26.6666L30.1707 9.73998Z" fill-rule="evenodd" stroke="rgb(150.96,150.96,150.96)" stroke-opacity="0" stroke-width="0" />
		<path id="Rectangle 2" d="M-0.629192 27.072L32.162 6.58175L28.6292 0.928101L-4.16199 21.4183L-0.629192 27.072Z" fill="rgb(38,38,38)" fill-rule="evenodd" />
		<path id="Rectangle 2" d="M32.162 6.58175L28.6292 0.928101L-4.16199 21.4183L-0.629192 27.072L32.162 6.58175Z" fill-rule="evenodd" stroke="rgb(150.96,150.96,150.96)" stroke-opacity="0" stroke-width="0" />
	</g>
</svg>
