<svg viewBox="0 0 36.324 28" xmlns="http://www.w3.org/2000/svg" xmlns:xlink="http://www.w3.org/1999/xlink" width="36.323975" height="28.000000" fill="none" customFrame="#000000">
	<defs>
		<filter id="pixso_custom_mask_type_alpha">
			<feColorMatrix type="matrix" values="0 0 0 0 1 0 0 0 0 1 0 0 0 0 1 0 0 0 1 0 " />
		</filter>
	</defs>
	<mask id="mask_32" width="28.000000" height="20.000000" x="4.161987" y="4.000000" maskUnits="userSpaceOnUse">
		<g filter="url(#pixso_custom_mask_type_alpha)">
			<rect id="Mask" width="28.000000" height="20.000000" x="4.161987" y="4.000000" rx="3.000000" fill="rgb(255,255,255)" />
			<rect id="Mask" width="28.000000" height="20.000000" x="4.161987" y="4.000000" rx="3.000000" stroke="rgb(150.96,150.96,150.96)" stroke-opacity="0" stroke-width="0.000000" />
		</g>
	</mask>
	<rect id="Tanzania" width="28.000000" height="28.000000" x="4.161987" y="0.000000" fill="rgb(255,255,255)" fill-opacity="0" />
	<rect id="Mask" width="28.000000" height="20.000000" x="4.161987" y="4.000000" rx="3.000000" fill="rgb(255,255,255)" />
	<rect id="Mask" width="28.000000" height="20.000000" x="4.161987" y="4.000000" rx="3.000000" stroke="rgb(150.96,150.96,150.96)" stroke-opacity="0" stroke-width="0.000000" />
	<g mask="url(#mask_32)">
		<path id="Rectangle 2" d="M4.16199 17.3333L32.162 4L4.16199 4L4.16199 17.3333Z" fill="rgb(51,204,77)" fill-rule="evenodd" />
		<path id="Rectangle 2" d="M32.162 4L4.16199 4L4.16199 17.3333L32.162 4Z" fill-rule="evenodd" stroke="rgb(150.96,150.96,150.96)" stroke-opacity="0" stroke-width="0.000000" />
		<path id="Rectangle 2" d="M4.16199 24L32.162 24L32.162 10.6666L4.16199 24Z" fill="rgb(45,175,228)" fill-rule="evenodd" />
		<path id="Rectangle 2" d="M32.162 24L32.162 10.6666L4.16199 24L32.162 24Z" fill-rule="evenodd" stroke="rgb(150.96,150.96,150.96)" stroke-opacity="0" stroke-width="0.000000" />
		<path id="Rectangle 2" d="M7.24438 26.6666L34.3327 9.73998L29.0796 1.33325L1.99127 18.2599L7.24438 26.6666Z" fill="rgb(255,216,79)" fill-rule="evenodd" />
		<path id="Rectangle 2" d="M34.3327 9.73998L29.0796 1.33325L1.99127 18.2599L7.24438 26.6666L34.3327 9.73998Z" fill-rule="evenodd" stroke="rgb(150.96,150.96,150.96)" stroke-opacity="0" stroke-width="0.000000" />
		<path id="Rectangle 2" d="M3.5328 27.072L36.324 6.58175L32.7912 0.928101L0 21.4183L3.5328 27.072Z" fill="rgb(38,38,38)" fill-rule="evenodd" />
		<path id="Rectangle 2" d="M36.324 6.58175L32.7912 0.928101L0 21.4183L3.5328 27.072L36.324 6.58175Z" fill-rule="evenodd" stroke="rgb(150.96,150.96,150.96)" stroke-opacity="0" stroke-width="0.000000" />
	</g>
</svg>
