<svg width="37.000000" height="28.000000" viewBox="0 0 37 28" fill="none" xmlns="http://www.w3.org/2000/svg" xmlns:xlink="http://www.w3.org/1999/xlink">
	<desc>
			Created with Pixso.
	</desc>
	<defs/>
	<rect id="Tanzania" width="28.000000" height="28.000000" transform="translate(4.000000 0.000000)" fill="#FFFFFF" fill-opacity="0"/>
	<rect id="Mask" x="4.000000" y="4.000000" rx="3.000000" width="28.000000" height="20.000000" fill="#FFFFFF" fill-opacity="1.000000"/>
	<rect id="Mask" x="4.000000" y="4.000000" rx="3.000000" width="28.000000" height="20.000000" stroke="#979797" stroke-opacity="0" stroke-width="0.000000"/>
	<mask id="mask17_4397" mask-type="alpha" maskUnits="userSpaceOnUse" x="4.000000" y="4.000000" width="28.000000" height="20.000000">
		<rect id="Mask" x="4.000000" y="4.000000" rx="3.000000" width="28.000000" height="20.000000" fill="#FFFFFF" fill-opacity="1.000000"/>
		<rect id="Mask" x="4.000000" y="4.000000" rx="3.000000" width="28.000000" height="20.000000" stroke="#979797" stroke-opacity="0" stroke-width="0.000000"/>
	</mask>
	<g mask="url(#mask17_4397)">
		<path id="Rectangle 2" d="M4 17.33L32 4L4 4L4 17.33Z" fill="#33CC4D" fill-opacity="1.000000" fill-rule="evenodd"/>
		<path id="Rectangle 2" d="M32 4L4 4L4 17.33L32 4Z" stroke="#979797" stroke-opacity="0" stroke-width="0.000000"/>
	</g>
	<g mask="url(#mask17_4397)">
		<path id="Rectangle 2" d="M4 24L32 24L32 10.66L4 24Z" fill="#2DAFE4" fill-opacity="1.000000" fill-rule="evenodd"/>
		<path id="Rectangle 2" d="M32 24L32 10.66L4 24L32 24Z" stroke="#979797" stroke-opacity="0" stroke-width="0.000000"/>
	</g>
	<g mask="url(#mask17_4397)">
		<path id="Rectangle 2" d="M7.08 26.66L34.17 9.73L28.91 1.33L1.82 18.25L7.08 26.66Z" fill="#FFD84F" fill-opacity="1.000000" fill-rule="evenodd"/>
		<path id="Rectangle 2" d="M34.17 9.73L28.91 1.33L1.82 18.25L7.08 26.66L34.17 9.73Z" stroke="#979797" stroke-opacity="0" stroke-width="0.000000"/>
	</g>
	<g mask="url(#mask17_4397)">
		<path id="Rectangle 2" d="M3.37 27.07L36.16 6.58L32.62 0.92L-0.17 21.41L3.37 27.07Z" fill="#262626" fill-opacity="1.000000" fill-rule="evenodd"/>
		<path id="Rectangle 2" d="M36.16 6.58L32.62 0.92L-0.17 21.41L3.37 27.07L36.16 6.58Z" stroke="#979797" stroke-opacity="0" stroke-width="0.000000"/>
	</g>
</svg>
