<svg width="28.000000" height="28.000000" viewBox="0 0 28 28" fill="none" xmlns="http://www.w3.org/2000/svg" xmlns:xlink="http://www.w3.org/1999/xlink">
	<desc>
			Created with Pixso.
	</desc>
	<defs/>
	<rect id="Timor-Leste" width="28.000000" height="28.000000" fill="#FFFFFF" fill-opacity="0"/>
	<rect id="Mask" y="4.000000" rx="3.000000" width="28.000000" height="20.000000" fill="#FFFFFF" fill-opacity="1.000000"/>
	<rect id="Mask" y="4.000000" rx="3.000000" width="28.000000" height="20.000000" stroke="#979797" stroke-opacity="0" stroke-width="0.000000"/>
	<mask id="mask17_4341" mask-type="alpha" maskUnits="userSpaceOnUse" x="0.000000" y="4.000000" width="28.000000" height="20.000000">
		<rect id="Mask" y="4.000000" rx="3.000000" width="28.000000" height="20.000000" fill="#FFFFFF" fill-opacity="1.000000"/>
		<rect id="Mask" y="4.000000" rx="3.000000" width="28.000000" height="20.000000" stroke="#979797" stroke-opacity="0" stroke-width="0.000000"/>
	</mask>
	<g mask="url(#mask17_4341)">
		<rect id="Mask Copy" y="4.000000" width="28.000000" height="20.000000" fill="#FF323E" fill-opacity="1.000000"/>
		<rect id="Mask Copy" y="4.000000" width="28.000000" height="20.000000" stroke="#979797" stroke-opacity="0" stroke-width="0.000000"/>
	</g>
	<g mask="url(#mask17_4341)">
		<path id="Rectangle 83" d="M0 4L17.33 14L0 24L0 4Z" fill="#FFCC51" fill-opacity="1.000000" fill-rule="evenodd"/>
		<path id="Rectangle 83" d="M17.33 14L0 24L0 4L17.33 14Z" stroke="#979797" stroke-opacity="0" stroke-width="0.000000"/>
	</g>
	<g mask="url(#mask17_4341)">
		<path id="Rectangle 83" d="M0 4L12 14L0 24L0 4Z" fill="#262626" fill-opacity="1.000000" fill-rule="evenodd"/>
		<path id="Rectangle 83" d="M12 14L0 24L0 4L12 14Z" stroke="#979797" stroke-opacity="0" stroke-width="0.000000"/>
	</g>
	<g mask="url(#mask17_4341)">
		<path id="Star 8" d="M5.94 14.82L5.05 16.76L4.59 14.68L2.48 14.44L4.31 13.35L3.89 11.27L5.48 12.68L7.34 11.63L6.49 13.58L8.06 15.02L5.94 14.82Z" fill="#FFFFFF" fill-opacity="1.000000" fill-rule="evenodd"/>
		<path id="Star 8" d="M5.05 16.76L4.59 14.68L2.48 14.44L4.31 13.35L3.89 11.27L5.48 12.68L7.34 11.63L6.49 13.58L8.06 15.02L5.94 14.82L5.05 16.76Z" stroke="#979797" stroke-opacity="0" stroke-width="0.000000"/>
	</g>
</svg>
