<svg width="28.000000" height="28.000000" viewBox="0 0 28 28" fill="none" xmlns="http://www.w3.org/2000/svg" xmlns:xlink="http://www.w3.org/1999/xlink">
	<desc>
			Created with Pixso.
	</desc>
	<defs/>
	<rect id="Tokelau" width="28.000000" height="28.000000" fill="#FFFFFF" fill-opacity="0"/>
	<mask id="mask107608_784" mask-type="alpha" maskUnits="userSpaceOnUse" x="0.000000" y="4.000000" width="28.000000" height="20.000000">
		<rect id="image 1" y="4.000000" rx="3.000000" width="28.000000" height="20.000000" fill="#062365" fill-opacity="1.000000"/>
	</mask>
	<g mask="url(#mask107608_784)">
		<rect id="image 2" y="4.000000" width="28.000000" height="20.000000" fill="#062365" fill-opacity="1.000000"/>
	</g>
	<g mask="url(#mask107608_784)">
		<path id="Vector 35" d="M5.54 19.84L26.05 20.06L26.42 19.81L25.89 19.48L5.54 19.31C5.38 19.4 5.15 19.62 5.54 19.84Z" fill="#F8D147" fill-opacity="1.000000" fill-rule="evenodd"/>
	</g>
	<g mask="url(#mask107608_784)">
		<path id="Vector 36" d="M5.68 19.03L26.47 19.2L26.47 19.08C23.36 19.08 18.69 12.15 22.58 8.26C19.22 9.67 12.99 13.65 11.23 15.18C9.5 16.68 6.85 18.42 5.68 19.03Z" fill="#F8D147" fill-opacity="1.000000" fill-rule="evenodd"/>
	</g>
	<g mask="url(#mask107608_784)">
		<path id="Star 107" d="M5.9 8.13L5.73 8.64L5.2 8.64L5.63 8.95L5.47 9.46L5.9 9.14L6.33 9.46L6.16 8.95L6.59 8.64L6.06 8.64L5.9 8.13Z" fill="#FFFFFF" fill-opacity="1.000000" fill-rule="nonzero"/>
	</g>
	<g mask="url(#mask107608_784)">
		<path id="Star 110" d="M5.9 16.31L5.71 16.88L5.11 16.88L5.6 17.23L5.41 17.8L5.9 17.45L6.38 17.8L6.2 17.23L6.68 16.88L6.08 16.88L5.9 16.31Z" fill="#FFFFFF" fill-opacity="1.000000" fill-rule="nonzero"/>
	</g>
	<g mask="url(#mask107608_784)">
		<path id="Star 108" d="M2.73 11.31L2.56 11.81L2.03 11.81L2.46 12.12L2.3 12.63L2.73 12.32L3.16 12.63L2.99 12.12L3.42 11.81L2.89 11.81L2.73 11.31Z" fill="#FFFFFF" fill-opacity="1.000000" fill-rule="nonzero"/>
	</g>
	<g mask="url(#mask107608_784)">
		<path id="Star 109" d="M8.63 10.65L8.5 11.05L8.09 11.05L8.42 11.3L8.3 11.69L8.63 11.45L8.97 11.69L8.84 11.3L9.18 11.05L8.76 11.05L8.63 10.65Z" fill="#FFFFFF" fill-opacity="1.000000" fill-rule="nonzero"/>
	</g>
</svg>
