<svg viewBox="0 0 28 28" xmlns="http://www.w3.org/2000/svg" xmlns:xlink="http://www.w3.org/1999/xlink" width="28.000000" height="28.000000" fill="none" customFrame="#000000" mask="url(#mask_323)">
	<defs>
		<filter id="pixso_custom_mask_type_alpha">
			<feColorMatrix type="matrix" values="0 0 0 0 1 0 0 0 0 1 0 0 0 0 1 0 0 0 1 0 " />
		</filter>
	</defs>
	<mask id="mask_323" width="28.000000" height="20.000000" x="0.000000" y="4.000000" maskUnits="userSpaceOnUse">
		<g filter="url(#pixso_custom_mask_type_alpha)">
			<rect id="image 1" width="28.000000" height="20.000000" x="0.000000" y="4.000000" rx="3.000000" fill="rgb(6,35,101)" />
		</g>
	</mask>
	<rect id="Tokelau" width="28.000000" height="28.000000" x="0.000000" y="0.000000" fill="rgb(255,255,255)" fill-opacity="0" />
	<rect id="image 2" width="28.000000" height="20.000000" x="0.000000" y="4.000000" fill="rgb(6,35,101)" />
	<path id="Vector 35" d="M26.052 20.064L5.54481 19.8464C5.15923 19.6225 5.38415 19.4007 5.54481 19.3177L25.8965 19.4888L26.4251 19.8153L26.052 20.064Z" fill="rgb(248,209,71)" fill-rule="evenodd" />
	<path id="Vector 36" d="M26.4718 19.2089L5.68481 19.0378C6.85606 18.4263 9.50109 16.6861 11.2353 15.1821C12.9921 13.6584 19.2267 9.67825 22.585 8.26343C18.6981 12.1503 23.3623 19.0845 26.4718 19.0845L26.4718 19.2089Z" fill="rgb(248,209,71)" fill-rule="evenodd" />
	<path id="Star 107" d="M6.06655 8.64408L6.59745 8.64408L6.16794 8.95614L6.332 9.46107L5.90249 9.14901L5.47297 9.46107L5.63703 8.95614L5.20752 8.64408L5.73843 8.64408L5.90249 8.13916L6.06655 8.64408Z" fill="rgb(255,255,255)" fill-rule="evenodd" />
	<path id="Star 110" d="M6.08751 16.8865L6.6862 16.8865L6.20185 17.2384L6.38685 17.8078L5.90251 17.4559L5.41816 17.8078L5.60317 17.2384L5.11882 16.8865L5.71751 16.8865L5.90251 16.3171L6.08751 16.8865Z" fill="rgb(255,255,255)" fill-rule="evenodd" />
	<path id="Star 108" d="M2.89479 11.8157L3.4257 11.8157L2.99619 12.1278L3.16025 12.6327L2.73073 12.3206L2.30122 12.6327L2.46528 12.1278L2.03576 11.8157L2.56667 11.8157L2.73073 11.3108L2.89479 11.8157Z" fill="rgb(255,255,255)" fill-rule="evenodd" />
	<path id="Star 109" d="M8.76789 11.0552L9.18584 11.0552L8.84771 11.3009L8.97686 11.6984L8.63873 11.4527L8.30061 11.6984L8.42976 11.3009L8.09163 11.0552L8.50958 11.0552L8.63873 10.6577L8.76789 11.0552Z" fill="rgb(255,255,255)" fill-rule="evenodd" />
</svg>
