<svg width="28" height="28" viewBox="0 0 28 28" fill="none" xmlns="http://www.w3.org/2000/svg">
<rect y="4" width="28" height="20" rx="3" fill="white"/>
<mask id="mask0_17_4362" style="mask-type:luminance" maskUnits="userSpaceOnUse" x="0" y="4" width="28" height="20">
<rect y="4" width="28" height="20" rx="3" fill="white"/>
</mask>
<g mask="url(#mask0_17_4362)">
<rect y="4" width="28" height="20" fill="#E92434"/>
<path fill-rule="evenodd" clip-rule="evenodd" d="M20 14C20 17.3137 17.3137 20 14 20C10.6863 20 8 17.3137 8 14C8 10.6863 10.6863 8 14 8C17.3137 8 20 10.6863 20 14ZM12 14C12 16.2165 13.6641 18.0443 15.8111 18.3022C15.2543 18.5369 14.6423 18.6667 14 18.6667C11.4227 18.6667 9.33333 16.5773 9.33333 14C9.33333 11.4227 11.4227 9.33333 14 9.33333C14.6423 9.33333 15.2543 9.46309 15.8111 9.69781C13.6641 9.95568 12 11.7835 12 14ZM15.1294 16.6551L16.3542 15.1701L18.1574 15.8437L17.1236 14.22L18.3215 12.7132L16.4577 13.1946L15.3948 11.5897L15.2768 13.511L13.422 14.026L15.2128 14.732L15.1294 16.6551Z" fill="white"/>
</g>
</svg>
