<svg width="28.000000" height="28.000000" viewBox="0 0 28 28" fill="none" xmlns="http://www.w3.org/2000/svg" xmlns:xlink="http://www.w3.org/1999/xlink">
	<desc>
			Created with Pixso.
	</desc>
	<defs/>
	<rect id="Tunisia" width="28.000000" height="28.000000" fill="#FFFFFF" fill-opacity="0"/>
	<rect id="Mask" y="4.000000" rx="3.000000" width="28.000000" height="20.000000" fill="#FFFFFF" fill-opacity="1.000000"/>
	<rect id="Mask" y="4.000000" rx="3.000000" width="28.000000" height="20.000000" stroke="#979797" stroke-opacity="0" stroke-width="0.000000"/>
	<mask id="mask17_4364" mask-type="alpha" maskUnits="userSpaceOnUse" x="0.000000" y="4.000000" width="28.000000" height="20.000000">
		<rect id="Mask" y="4.000000" rx="3.000000" width="28.000000" height="20.000000" fill="#FFFFFF" fill-opacity="1.000000"/>
		<rect id="Mask" y="4.000000" rx="3.000000" width="28.000000" height="20.000000" stroke="#979797" stroke-opacity="0" stroke-width="0.000000"/>
	</mask>
	<g mask="url(#mask17_4364)">
		<rect id="Mask Copy" y="4.000000" width="28.000000" height="20.000000" fill="#E92434" fill-opacity="1.000000"/>
		<rect id="Mask Copy" y="4.000000" width="28.000000" height="20.000000" stroke="#979797" stroke-opacity="0" stroke-width="0.000000"/>
	</g>
	<g mask="url(#mask17_4364)">
		<mask id="mask_17_4366" fill="white">
			<path id="Oval 41" d="M20 14C20 17.3137 17.3137 20 14 20C10.6863 20 8 17.3137 8 14C8 10.6863 10.6863 8 14 8C17.3137 8 20 10.6863 20 14ZM15.8111 18.3022C15.2542 18.5369 14.6423 18.6667 14 18.6667C11.4227 18.6667 9.33334 16.5773 9.33334 14C9.33334 11.4227 11.4227 9.33333 14 9.33333C14.6423 9.33333 15.2542 9.46309 15.8111 9.69781C13.6641 9.95568 12 11.7835 12 14C12 16.2165 13.6641 18.0443 15.8111 18.3022ZM15.1294 16.6551L16.3542 15.1701L18.1574 15.8437L17.1236 14.22L18.3215 12.7132L16.4577 13.1946L15.3948 11.5897L15.2768 13.511L13.422 14.026L15.2128 14.732L15.1294 16.6551Z" clip-rule="evenodd" fill="" fill-opacity="1.000000" fill-rule="evenodd"/>
		</mask>
		<path id="Oval 41" d="M20 14C20 17.3137 17.3137 20 14 20C10.6863 20 8 17.3137 8 14C8 10.6863 10.6863 8 14 8C17.3137 8 20 10.6863 20 14ZM15.8111 18.3022C15.2542 18.5369 14.6423 18.6667 14 18.6667C11.4227 18.6667 9.33334 16.5773 9.33334 14C9.33334 11.4227 11.4227 9.33333 14 9.33333C14.6423 9.33333 15.2542 9.46309 15.8111 9.69781C13.6641 9.95568 12 11.7835 12 14C12 16.2165 13.6641 18.0443 15.8111 18.3022ZM15.1294 16.6551L16.3542 15.1701L18.1574 15.8437L17.1236 14.22L18.3215 12.7132L16.4577 13.1946L15.3948 11.5897L15.2768 13.511L13.422 14.026L15.2128 14.732L15.1294 16.6551Z" clip-rule="evenodd" fill="#FFFFFF" fill-opacity="1.000000" fill-rule="evenodd" mask="url(#mask_17_4366)"/>
		<path id="Oval 41" d="" fill="#979797" fill-opacity="0.000000" fill-rule="nonzero"/>
	</g>
</svg>
