<svg viewBox="0 0 29.8022 28" xmlns="http://www.w3.org/2000/svg" xmlns:xlink="http://www.w3.org/1999/xlink" width="29.802170" height="28.000000" fill="none" customFrame="#000000">
	<mask id="mask_31" width="6.666667" height="9.333333" x="19.135483" y="9.333374" maskUnits="userSpaceOnUse">
		<g filter="url(#pixso_custom_mask_type_alpha)">
			<path id="Mask" d="M19.1355 14C19.1355 12.9063 19.1355 11.6132 19.1355 10.6659C19.1355 9.92948 19.7324 9.33337 20.4688 9.33337L24.4688 9.33337C25.2052 9.33337 25.8021 9.92948 25.8021 10.6659C25.8021 11.6132 25.8021 12.9063 25.8021 14C25.8021 17.3334 22.4688 18.6667 22.4688 18.6667C22.4688 18.6667 19.1355 17.3334 19.1355 14Z" fill="rgb(255,208,51)" fill-rule="evenodd" />
			<path id="Mask" d="M19.1355 10.6659L19.1355 14C19.1355 17.3334 22.4688 18.6667 22.4688 18.6667C22.4688 18.6667 25.8021 17.3334 25.8021 14L25.8021 10.6659C25.8021 9.92948 25.2052 9.33337 24.4688 9.33337L20.4688 9.33337C19.7324 9.33337 19.1355 9.92948 19.1355 10.6659ZM22.4688 17.9312C22.5277 17.9004 22.5918 17.8655 22.661 17.8263C23.0355 17.6141 23.3783 17.3679 23.6895 17.0878C24.1166 16.7035 24.4506 16.2825 24.6914 15.825C24.8029 15.6131 24.8934 15.3947 24.9629 15.1699C25.078 14.7977 25.1355 14.4078 25.1355 14L25.1355 10.6667C25.1355 10.5747 25.1192 10.4894 25.0867 10.4108C25.0541 10.3322 25.0053 10.2604 24.9402 10.1953C24.8751 10.1302 24.8033 10.0814 24.7247 10.0489C24.6462 10.0163 24.5609 10 24.4688 10L20.4688 10C20.3768 10 20.2915 10.0163 20.2129 10.0489C20.1343 10.0814 20.0625 10.1302 19.9974 10.1953C19.9323 10.2604 19.8835 10.3322 19.851 10.4108C19.8184 10.4894 19.8021 10.5747 19.8021 10.6667L19.8021 12.7467L19.8021 14C19.8021 14.4078 19.8597 14.7977 19.9747 15.1699C20.0442 15.3947 20.1348 15.6131 20.2463 15.825C20.4871 16.2825 20.821 16.7034 21.2481 17.0878C21.5593 17.3679 21.9022 17.6141 22.2767 17.8263C22.3458 17.8655 22.4099 17.9004 22.4688 17.9312Z" fill="rgb(255,255,255)" fill-rule="evenodd" />
		</g>
	</mask>
	<defs>
		<filter id="pixso_custom_mask_type_alpha">
			<feColorMatrix type="matrix" values="0 0 0 0 1 0 0 0 0 1 0 0 0 0 1 0 0 0 1 0 " />
		</filter>
	</defs>
	<mask id="mask_30" width="28.000000" height="20.000000" x="1.802170" y="4.000000" maskUnits="userSpaceOnUse">
		<g filter="url(#pixso_custom_mask_type_alpha)">
			<rect id="Mask" width="28.000000" height="20.000000" x="1.802170" y="4.000000" rx="3.000000" fill="rgb(255,255,255)" />
			<rect id="Mask" width="28.000000" height="20.000000" x="1.802170" y="4.000000" rx="3.000000" stroke="rgb(150.96,150.96,150.96)" stroke-opacity="0" stroke-width="0.000000" />
		</g>
	</mask>
	<rect id="Turks and Caicos Islands" width="28.000000" height="28.000000" x="1.802170" y="0.000000" fill="rgb(255,255,255)" fill-opacity="0" />
	<rect id="Mask" width="28.000000" height="20.000000" x="1.802170" y="4.000000" rx="3.000000" fill="rgb(255,255,255)" />
	<rect id="Mask" width="28.000000" height="20.000000" x="1.802170" y="4.000000" rx="3.000000" stroke="rgb(150.96,150.96,150.96)" stroke-opacity="0" stroke-width="0.000000" />
	<g mask="url(#mask_30)">
		<rect id="Mask Copy" width="28.000000" height="20.000000" x="1.802170" y="4.000000" fill="rgb(7,49,156)" />
		<rect id="Mask Copy" width="28.000000" height="20.000000" x="1.802170" y="4.000000" stroke="rgb(150.96,150.96,150.96)" stroke-opacity="0" stroke-width="0.000000" />
		<g id="Rectangle 1105">
			<path id="Mask" d="M19.1355 14C19.1355 12.9063 19.1355 11.6132 19.1355 10.6659C19.1355 9.92948 19.7324 9.33337 20.4688 9.33337L24.4688 9.33337C25.2052 9.33337 25.8021 9.92948 25.8021 10.6659C25.8021 11.6132 25.8021 12.9063 25.8021 14C25.8021 17.3334 22.4688 18.6667 22.4688 18.6667C22.4688 18.6667 19.1355 17.3334 19.1355 14Z" fill="rgb(255,208,51)" fill-rule="evenodd" />
			<path id="Mask" d="M19.1355 10.6659L19.1355 14C19.1355 17.3334 22.4688 18.6667 22.4688 18.6667C22.4688 18.6667 25.8021 17.3334 25.8021 14L25.8021 10.6659C25.8021 9.92948 25.2052 9.33337 24.4688 9.33337L20.4688 9.33337C19.7324 9.33337 19.1355 9.92948 19.1355 10.6659ZM22.4688 17.9312C22.5277 17.9004 22.5918 17.8655 22.661 17.8263C23.0355 17.6141 23.3783 17.3679 23.6895 17.0878C24.1166 16.7035 24.4506 16.2825 24.6914 15.825C24.8029 15.6131 24.8934 15.3947 24.9629 15.1699C25.078 14.7977 25.1355 14.4078 25.1355 14L25.1355 10.6667C25.1355 10.5747 25.1192 10.4894 25.0867 10.4108C25.0541 10.3322 25.0053 10.2604 24.9402 10.1953C24.8751 10.1302 24.8033 10.0814 24.7247 10.0489C24.6462 10.0163 24.5609 10 24.4688 10L20.4688 10C20.3768 10 20.2915 10.0163 20.2129 10.0489C20.1343 10.0814 20.0625 10.1302 19.9974 10.1953C19.9323 10.2604 19.8835 10.3322 19.851 10.4108C19.8184 10.4894 19.8021 10.5747 19.8021 10.6667L19.8021 12.7467L19.8021 14C19.8021 14.4078 19.8597 14.7977 19.9747 15.1699C20.0442 15.3947 20.1348 15.6131 20.2463 15.825C20.4871 16.2825 20.821 16.7034 21.2481 17.0878C21.5593 17.3679 21.9022 17.6141 22.2767 17.8263C22.3458 17.8655 22.4099 17.9004 22.4688 17.9312Z" fill="rgb(255,255,255)" fill-rule="evenodd" />
			<g mask="url(#mask_31)">
				<path id="Oval 193" d="M23.8021 13.3333C24.1703 13.3333 24.4688 12.7363 24.4688 12C24.4688 11.2636 24.1703 10.6666 23.8021 10.6666C23.434 10.6666 23.1355 11.2636 23.1355 12C23.1355 12.7363 23.434 13.3333 23.8021 13.3333Z" fill="rgb(186,91,31)" fill-rule="evenodd" />
				<path id="Oval 193" d="M24.4688 12C24.4688 11.2636 24.1703 10.6666 23.8021 10.6666C23.434 10.6666 23.1355 11.2636 23.1355 12C23.1355 12.7363 23.434 13.3333 23.8021 13.3333C24.1703 13.3333 24.4688 12.7363 24.4688 12Z" fill-rule="evenodd" stroke="rgb(150.96,150.96,150.96)" stroke-opacity="0" stroke-width="0.000000" />
				<path id="Oval 193" d="M0.666667 2.66667C1.03486 2.66667 1.33333 2.06971 1.33333 1.33333C1.33333 0.596954 1.03486 0 0.666667 0C0.298477 0 0 0.596954 0 1.33333C0 2.06971 0.298477 2.66667 0.666667 2.66667Z" fill="rgb(255,159,62)" fill-rule="evenodd" transform="matrix(0.939693,-0.34202,0.34202,0.939693,19.8022,11.0153)" />
				<path id="Oval 193" d="M1.33333 1.33333C1.33333 0.596954 1.03486 0 0.666667 0C0.298477 0 0 0.596954 0 1.33333C0 2.06971 0.298477 2.66667 0.666667 2.66667C1.03486 2.66667 1.33333 2.06971 1.33333 1.33333Z" fill-rule="evenodd" stroke="rgb(150.96,150.96,150.96)" stroke-opacity="0" stroke-width="0.000000" transform="matrix(0.939693,-0.34202,0.34202,0.939693,19.8022,11.0153)" />
				<path id="Oval 193" d="M0.666667 2.66667C1.03486 2.66667 1.33333 2.06971 1.33333 1.33333C1.33333 0.596954 1.03486 0 0.666667 0C0.298477 0 0 0.596954 0 1.33333C0 2.06971 0.298477 2.66667 0.666667 2.66667Z" fill="rgb(255,147,127)" fill-rule="evenodd" transform="matrix(0.906308,0.422618,-0.422618,0.906308,21.3765,10.5723)" />
				<path id="Oval 193" d="M1.33333 1.33333C1.33333 0.596954 1.03486 0 0.666667 0C0.298477 0 0 0.596954 0 1.33333C0 2.06971 0.298477 2.66667 0.666667 2.66667C1.03486 2.66667 1.33333 2.06971 1.33333 1.33333Z" fill-rule="evenodd" stroke="rgb(150.96,150.96,150.96)" stroke-opacity="0" stroke-width="0.000000" transform="matrix(0.906308,0.422618,-0.422618,0.906308,21.3765,10.5723)" />
				<path id="Rectangle 1188" d="M21.8022 14.6667L22.4688 13.3334L23.1355 14.6667L23.1355 16L21.8022 16L21.8022 14.6667Z" fill="rgb(1,168,39)" fill-rule="evenodd" />
				<path id="Rectangle 1188" d="M22.4688 13.3334L23.1355 14.6667L23.1355 16L21.8022 16L21.8022 14.6667L22.4688 13.3334Z" fill-rule="evenodd" stroke="rgb(150.96,150.96,150.96)" stroke-opacity="0" stroke-width="0.000000" />
			</g>
		</g>
		<path id="Rectangle 36" d="M6.46884 8L1.80217 4L2.46884 4L7.1355 7.33333L8.46884 7.33333L13.8022 4L13.8022 4.49513C13.8022 4.60278 13.7502 4.7038 13.6626 4.76637L9.1355 8L9.1355 9.33333L13.3496 12.9455C13.5051 13.0787 13.4109 13.3333 13.2062 13.3333L13.2062 13.3333C13.1602 13.3333 13.1154 13.319 13.078 13.2923L8.46884 10L7.1355 10L1.80217 13.3333L1.80217 12.6667L6.46884 9.33333L6.46884 8Z" fill="rgb(219,30,54)" fill-rule="evenodd" />
		<path id="Rectangle 36" d="M2.68248 3.33333L-1.78814e-06 3.33333L5.80217 8.30662L5.80217 8.99026L1.1355 12.3236L1.1355 14.5362L7.3267 10.6667L8.25519 10.6667L12.6905 13.8348C12.7676 13.8898 12.8492 13.9311 12.9351 13.9587C13.021 13.9862 13.1114 14 13.2062 14C13.3096 14 13.4074 13.9839 13.4996 13.9518C13.5817 13.9232 13.6593 13.882 13.7325 13.828C13.8007 13.7777 13.8596 13.7203 13.9093 13.6558C13.9631 13.5858 14.0061 13.5074 14.0382 13.4206C14.0703 13.3339 14.0887 13.2464 14.0933 13.1582C14.0976 13.0769 14.0902 12.995 14.0712 12.9125C14.0508 12.8238 14.0187 12.742 13.975 12.6669C13.9259 12.5824 13.862 12.5066 13.7835 12.4393L9.80217 9.02671L9.80217 8.34308L14.0501 5.30886C14.1158 5.26194 14.1743 5.2088 14.2256 5.14944C14.2769 5.09008 14.3211 5.0245 14.358 4.95271C14.395 4.88091 14.4227 4.80688 14.4411 4.7306C14.4596 4.65435 14.4688 4.57586 14.4688 4.49513L14.4688 2.79717L8.27764 6.66667L7.34915 6.66667L2.68248 3.33333ZM7.1355 7.33333L4.6152 5.53312L2.46884 4L1.80217 4L2.21567 4.35443L2.46884 4.57143L4.20372 6.05847L6.46884 8L6.46884 9.33333L1.80217 12.6667L1.80217 13.3333L2.13139 13.1276L2.46884 12.9167L3.51132 12.2651L7.1355 10L8.46884 10L10.9891 11.8002L12.7622 13.0667L13.078 13.2923C13.1154 13.319 13.1602 13.3333 13.2062 13.3333C13.4109 13.3333 13.5051 13.0787 13.3496 12.9455L13.0551 12.693L11.4006 11.2749L9.1355 9.33333L9.1355 8L12.4638 5.62265L13.6626 4.76637C13.7502 4.7038 13.8022 4.60278 13.8022 4.49513L13.8022 4L13.1449 4.41077L13.1355 4.41667L12.093 5.06822L8.46884 7.33333L7.1355 7.33333Z" fill="rgb(255,255,255)" fill-rule="evenodd" />
		<path id="Rectangle 2" d="M1.80217 7.33333L1.80217 10L6.46884 10L6.46884 13.3333C6.46884 13.7015 6.76731 14 7.1355 14L8.46884 14C8.83703 14 9.1355 13.7015 9.1355 13.3333L9.1355 10L13.8022 10C14.1704 10 14.4688 9.70152 14.4688 9.33333L14.4688 8C14.4688 7.63181 14.1704 7.33333 13.8022 7.33333L9.1355 7.33333L9.1355 4L6.46884 4L6.46884 7.33333L1.80217 7.33333Z" fill="rgb(255,255,255)" fill-rule="evenodd" />
		<path id="Rectangle 2" d="M1.80217 10L6.46884 10L6.46884 13.3333C6.46884 13.7015 6.76731 14 7.1355 14L8.46884 14C8.83703 14 9.1355 13.7015 9.1355 13.3333L9.1355 10L13.8022 10C14.1704 10 14.4688 9.70152 14.4688 9.33333L14.4688 8C14.4688 7.63181 14.1704 7.33333 13.8022 7.33333L9.1355 7.33333L9.1355 4L6.46884 4L6.46884 7.33333L1.80217 7.33333L1.80217 10Z" fill-rule="evenodd" stroke="rgb(150.96,150.96,150.96)" stroke-opacity="0" stroke-width="0.000000" />
		<path id="Rectangle 36" d="M1.80217 8L7.1355 8L7.1355 7.33333L7.1355 4L8.46884 4L8.46884 7.33333L8.46884 8L13.8022 8L13.8022 9.33333L8.46884 9.33333L8.46884 10L8.46884 13.3333L7.1355 13.3333L7.1355 10L7.1355 9.33333L1.80217 9.33333L1.80217 8Z" fill="rgb(219,30,54)" fill-rule="evenodd" />
		<path id="Rectangle 36" d="M7.1355 8L7.1355 7.33333L7.1355 4L8.46884 4L8.46884 7.33333L8.46884 8L13.8022 8L13.8022 9.33333L8.46884 9.33333L8.46884 10L8.46884 13.3333L7.1355 13.3333L7.1355 10L7.1355 9.33333L1.80217 9.33333L1.80217 8L7.1355 8Z" fill-rule="evenodd" stroke="rgb(150.96,150.96,150.96)" stroke-opacity="0" stroke-width="0.000000" />
	</g>
</svg>
