<svg width="28.000000" height="28.000000" viewBox="0 0 28 28" fill="none" xmlns="http://www.w3.org/2000/svg" xmlns:xlink="http://www.w3.org/1999/xlink">
	<desc>
			Created with Pixso.
	</desc>
	<defs/>
	<rect id="Turkmenistan" width="28.000000" height="28.000000" fill="#FFFFFF" fill-opacity="0"/>
	<rect id="Mask" y="4.000000" rx="3.000000" width="28.000000" height="20.000000" fill="#FFFFFF" fill-opacity="1.000000"/>
	<rect id="Mask" y="4.000000" rx="3.000000" width="28.000000" height="20.000000" stroke="#979797" stroke-opacity="0" stroke-width="0.000000"/>
	<mask id="mask17_4413" mask-type="alpha" maskUnits="userSpaceOnUse" x="0.000000" y="4.000000" width="28.000000" height="20.000000">
		<rect id="Mask" y="4.000000" rx="3.000000" width="28.000000" height="20.000000" fill="#FFFFFF" fill-opacity="1.000000"/>
		<rect id="Mask" y="4.000000" rx="3.000000" width="28.000000" height="20.000000" stroke="#979797" stroke-opacity="0" stroke-width="0.000000"/>
	</mask>
	<g mask="url(#mask17_4413)">
		<path id="Rectangle 2" d="M0 24L28 24L28 4L0 4L0 24Z" fill="#30C375" fill-opacity="1.000000" fill-rule="evenodd"/>
		<path id="Rectangle 2" d="M28 24L28 4L0 4L0 24L28 24Z" stroke="#979797" stroke-opacity="0" stroke-width="0.000000"/>
	</g>
	<g mask="url(#mask17_4413)">
		<rect id="Rectangle 1092" x="4.000000" y="4.000000" width="4.000000" height="20.000000" fill="#DE414F" fill-opacity="1.000000"/>
		<rect id="Rectangle 1092" x="4.000000" y="4.000000" width="4.000000" height="20.000000" stroke="#979797" stroke-opacity="0" stroke-width="0.000000"/>
	</g>
	<g mask="url(#mask17_4413)">
		<path id="Mask" d="M6 8C7.1 8 8 7.4 8 6.66C8 5.93 7.1 5.33 6 5.33C4.89 5.33 4 5.93 4 6.66C4 7.4 4.89 8 6 8Z" fill="#FFFFFF" fill-opacity="1.000000" fill-rule="evenodd"/>
		<path id="Mask" d="M8 6.66C8 5.93 7.1 5.33 6 5.33C4.89 5.33 4 5.93 4 6.66C4 7.4 4.89 8 6 8C7.1 8 8 7.4 8 6.66Z" stroke="#FFFFFF" stroke-opacity="0" stroke-width="0.000000"/>
		<mask id="mask17_4418" mask-type="alpha" maskUnits="userSpaceOnUse" x="4.000000" y="5.333374" width="4.000000" height="2.666667">
			<path id="Mask" d="M6 8C7.1 8 8 7.4 8 6.66C8 5.93 7.1 5.33 6 5.33C4.89 5.33 4 5.93 4 6.66C4 7.4 4.89 8 6 8Z" fill="#FFFFFF" fill-opacity="1.000000" fill-rule="evenodd"/>
			<path id="Mask" d="M8 6.66C8 5.93 7.1 5.33 6 5.33C4.89 5.33 4 5.93 4 6.66C4 7.4 4.89 8 6 8C7.1 8 8 7.4 8 6.66Z" stroke="#FFFFFF" stroke-opacity="0" stroke-width="0.000000"/>
		</mask>
		<g mask="url(#mask17_4418)">
			<path id="Oval 166" d="M5.99 7.33C6.36 7.33 6.66 7.03 6.66 6.66C6.66 6.29 6.36 6 5.99 6C5.63 6 5.33 6.29 5.33 6.66C5.33 7.03 5.63 7.33 5.99 7.33Z" fill="#DD404F" fill-opacity="1.000000" fill-rule="evenodd"/>
			<path id="Oval 166" d="M6.66 6.66C6.66 6.29 6.36 6 5.99 6C5.63 6 5.33 6.29 5.33 6.66C5.33 7.03 5.63 7.33 5.99 7.33C6.36 7.33 6.66 7.03 6.66 6.66Z" stroke="#979797" stroke-opacity="0" stroke-width="0.000000"/>
		</g>
		<g mask="url(#mask17_4418)">
			<rect id="Rectangle 1093" x="4.000000" y="5.333374" width="2.000000" height="1.333333" fill="#FBAF29" fill-opacity="1.000000"/>
			<rect id="Rectangle 1093" x="4.000000" y="5.333374" width="2.000000" height="1.333333" stroke="#979797" stroke-opacity="0" stroke-width="0.000000"/>
		</g>
		<g mask="url(#mask17_4418)">
			<rect id="Rectangle 1093 Copy" x="6.000000" y="6.666626" width="2.000000" height="1.333333" fill="#FBAF29" fill-opacity="1.000000"/>
			<rect id="Rectangle 1093 Copy" x="6.000000" y="6.666626" width="2.000000" height="1.333333" stroke="#979797" stroke-opacity="0" stroke-width="0.000000"/>
		</g>
	</g>
	<g mask="url(#mask17_4413)">
		<path id="Mask" d="M6 22.66C7.1 22.66 8 22.06 8 21.33C8 20.59 7.1 20 6 20C4.89 20 4 20.59 4 21.33C4 22.06 4.89 22.66 6 22.66Z" fill="#FFFFFF" fill-opacity="1.000000" fill-rule="evenodd"/>
		<path id="Mask" d="M8 21.33C8 20.59 7.1 20 6 20C4.89 20 4 20.59 4 21.33C4 22.06 4.89 22.66 6 22.66C7.1 22.66 8 22.06 8 21.33Z" stroke="#FFFFFF" stroke-opacity="0" stroke-width="0.000000"/>
		<mask id="mask17_4424" mask-type="alpha" maskUnits="userSpaceOnUse" x="4.000000" y="20.000000" width="4.000000" height="2.666666">
			<path id="Mask" d="M6 22.66C7.1 22.66 8 22.06 8 21.33C8 20.59 7.1 20 6 20C4.89 20 4 20.59 4 21.33C4 22.06 4.89 22.66 6 22.66Z" fill="#FFFFFF" fill-opacity="1.000000" fill-rule="evenodd"/>
			<path id="Mask" d="M8 21.33C8 20.59 7.1 20 6 20C4.89 20 4 20.59 4 21.33C4 22.06 4.89 22.66 6 22.66C7.1 22.66 8 22.06 8 21.33Z" stroke="#FFFFFF" stroke-opacity="0" stroke-width="0.000000"/>
		</mask>
		<g mask="url(#mask17_4424)">
			<path id="Oval 166" d="M5.99 22C6.36 22 6.66 21.7 6.66 21.33C6.66 20.96 6.36 20.66 5.99 20.66C5.63 20.66 5.33 20.96 5.33 21.33C5.33 21.7 5.63 22 5.99 22Z" fill="#DD404F" fill-opacity="1.000000" fill-rule="evenodd"/>
			<path id="Oval 166" d="M6.66 21.33C6.66 20.96 6.36 20.66 5.99 20.66C5.63 20.66 5.33 20.96 5.33 21.33C5.33 21.7 5.63 22 5.99 22C6.36 22 6.66 21.7 6.66 21.33Z" stroke="#979797" stroke-opacity="0" stroke-width="0.000000"/>
		</g>
		<g mask="url(#mask17_4424)">
			<rect id="Rectangle 1093" x="4.000000" y="20.000000" width="2.000000" height="1.333333" fill="#FBAF29" fill-opacity="1.000000"/>
			<rect id="Rectangle 1093" x="4.000000" y="20.000000" width="2.000000" height="1.333333" stroke="#979797" stroke-opacity="0" stroke-width="0.000000"/>
		</g>
		<g mask="url(#mask17_4424)">
			<rect id="Rectangle 1093 Copy" x="6.000000" y="21.333374" width="2.000000" height="1.333333" fill="#FBAF29" fill-opacity="1.000000"/>
			<rect id="Rectangle 1093 Copy" x="6.000000" y="21.333374" width="2.000000" height="1.333333" stroke="#979797" stroke-opacity="0" stroke-width="0.000000"/>
		</g>
	</g>
	<g mask="url(#mask17_4413)">
		<path id="Mask" d="M6 16C7.1 16 8 15.4 8 14.66C8 13.93 7.1 13.33 6 13.33C4.89 13.33 4 13.93 4 14.66C4 15.4 4.89 16 6 16Z" fill="#28AE67" fill-opacity="1.000000" fill-rule="evenodd"/>
		<path id="Mask" d="M8 14.66C8 13.93 7.1 13.33 6 13.33C4.89 13.33 4 13.93 4 14.66C4 15.4 4.89 16 6 16C7.1 16 8 15.4 8 14.66Z" stroke="#979797" stroke-opacity="0" stroke-width="0.000000"/>
		<mask id="mask17_4430" mask-type="alpha" maskUnits="userSpaceOnUse" x="4.000000" y="13.333374" width="4.000000" height="2.666666">
			<path id="Mask" d="M6 16C7.1 16 8 15.4 8 14.66C8 13.93 7.1 13.33 6 13.33C4.89 13.33 4 13.93 4 14.66C4 15.4 4.89 16 6 16Z" fill="#28AE67" fill-opacity="1.000000" fill-rule="evenodd"/>
			<path id="Mask" d="M8 14.66C8 13.93 7.1 13.33 6 13.33C4.89 13.33 4 13.93 4 14.66C4 15.4 4.89 16 6 16C7.1 16 8 15.4 8 14.66Z" stroke="#979797" stroke-opacity="0" stroke-width="0.000000"/>
		</mask>
		<g mask="url(#mask17_4430)">
			<path id="Oval 166" d="M6 15.33C6.73 15.33 7.33 15.03 7.33 14.66C7.33 14.29 6.73 14 6 14C5.26 14 4.66 14.29 4.66 14.66C4.66 15.03 5.26 15.33 6 15.33Z" fill="#DD404F" fill-opacity="1.000000" fill-rule="evenodd"/>
			<path id="Oval 166" d="M7.33 14.66C7.33 14.29 6.73 14 6 14C5.26 14 4.66 14.29 4.66 14.66C4.66 15.03 5.26 15.33 6 15.33C6.73 15.33 7.33 15.03 7.33 14.66Z" stroke="#979797" stroke-opacity="0" stroke-width="0.000000"/>
		</g>
	</g>
	<g mask="url(#mask17_4413)">
		<path id="Mask" d="M6 18.66C7.1 18.66 8 18.36 8 18C8 17.63 7.1 17.33 6 17.33C4.89 17.33 4 17.63 4 18C4 18.36 4.89 18.66 6 18.66Z" fill="#28AE67" fill-opacity="1.000000" fill-rule="evenodd"/>
		<path id="Mask" d="M8 18C8 17.63 7.1 17.33 6 17.33C4.89 17.33 4 17.63 4 18C4 18.36 4.89 18.66 6 18.66C7.1 18.66 8 18.36 8 18Z" stroke="#979797" stroke-opacity="0" stroke-width="0.000000"/>
		<mask id="mask17_4434" mask-type="alpha" maskUnits="userSpaceOnUse" x="4.000000" y="17.333374" width="4.000000" height="1.333334">
			<path id="Mask" d="M6 18.66C7.1 18.66 8 18.36 8 18C8 17.63 7.1 17.33 6 17.33C4.89 17.33 4 17.63 4 18C4 18.36 4.89 18.66 6 18.66Z" fill="#28AE67" fill-opacity="1.000000" fill-rule="evenodd"/>
			<path id="Mask" d="M8 18C8 17.63 7.1 17.33 6 17.33C4.89 17.33 4 17.63 4 18C4 18.36 4.89 18.66 6 18.66C7.1 18.66 8 18.36 8 18Z" stroke="#979797" stroke-opacity="0" stroke-width="0.000000"/>
		</mask>
	</g>
	<g mask="url(#mask17_4413)">
		<path id="Mask" d="M6 12C7.1 12 8 11.4 8 10.66C8 9.93 7.1 9.33 6 9.33C4.89 9.33 4 9.93 4 10.66C4 11.4 4.89 12 6 12Z" fill="#FBAF29" fill-opacity="1.000000" fill-rule="evenodd"/>
		<path id="Mask" d="M8 10.66C8 9.93 7.1 9.33 6 9.33C4.89 9.33 4 9.93 4 10.66C4 11.4 4.89 12 6 12C7.1 12 8 11.4 8 10.66Z" stroke="#979797" stroke-opacity="0" stroke-width="0.000000"/>
		<mask id="mask17_4437" mask-type="alpha" maskUnits="userSpaceOnUse" x="4.000000" y="9.333374" width="4.000000" height="2.666667">
			<path id="Mask" d="M6 12C7.1 12 8 11.4 8 10.66C8 9.93 7.1 9.33 6 9.33C4.89 9.33 4 9.93 4 10.66C4 11.4 4.89 12 6 12Z" fill="#FBAF29" fill-opacity="1.000000" fill-rule="evenodd"/>
			<path id="Mask" d="M8 10.66C8 9.93 7.1 9.33 6 9.33C4.89 9.33 4 9.93 4 10.66C4 11.4 4.89 12 6 12C7.1 12 8 11.4 8 10.66Z" stroke="#979797" stroke-opacity="0" stroke-width="0.000000"/>
		</mask>
		<g mask="url(#mask17_4437)">
			<path id="Oval 166" d="M5.99 11.33C6.36 11.33 6.66 11.03 6.66 10.66C6.66 10.29 6.36 10 5.99 10C5.63 10 5.33 10.29 5.33 10.66C5.33 11.03 5.63 11.33 5.99 11.33Z" fill="#DD404F" fill-opacity="1.000000" fill-rule="evenodd"/>
			<path id="Oval 166" d="M6.66 10.66C6.66 10.29 6.36 10 5.99 10C5.63 10 5.33 10.29 5.33 10.66C5.33 11.03 5.63 11.33 5.99 11.33C6.36 11.33 6.66 11.03 6.66 10.66Z" stroke="#979797" stroke-opacity="0" stroke-width="0.000000"/>
		</g>
		<g mask="url(#mask17_4437)">
			<rect id="Rectangle 1093" x="4.000000" y="9.333374" width="1.333333" height="2.666667" fill="#28AE67" fill-opacity="1.000000"/>
			<rect id="Rectangle 1093" x="4.000000" y="9.333374" width="1.333333" height="2.666667" stroke="#979797" stroke-opacity="0" stroke-width="0.000000"/>
		</g>
		<g mask="url(#mask17_4437)">
			<rect id="Rectangle 1093 Copy 2" x="6.666687" y="9.333374" width="1.333333" height="2.666667" fill="#28AE67" fill-opacity="1.000000"/>
			<rect id="Rectangle 1093 Copy 2" x="6.666687" y="9.333374" width="1.333333" height="2.666667" stroke="#979797" stroke-opacity="0" stroke-width="0.000000"/>
		</g>
	</g>
	<g mask="url(#mask17_4413)">
		<mask id="mask_17_4441" fill="white">
			<path id="Oval 68" d="M14.4286 6.82261C14.1465 6.58594 13.726 6.62273 13.4893 6.90478C13.2527 7.18683 13.2895 7.60734 13.5715 7.844C13.8536 8.08067 14.2741 8.04388 14.5107 7.76183C14.7474 7.47978 14.7106 7.05928 14.4286 6.82261ZM14.9048 9.17734C14.6228 8.94067 14.586 8.52017 14.8227 8.23812C15.0593 7.95607 15.4798 7.91928 15.7619 8.15594C16.0439 8.39261 16.0807 8.81312 15.8441 9.09517C15.6074 9.37722 15.1869 9.41401 14.9048 9.17734ZM12.8227 8.90478C13.0593 8.62273 13.4798 8.58594 13.7619 8.82261C14.0439 9.05928 14.0807 9.47978 13.8441 9.76183C13.6074 10.0439 13.1869 10.0807 12.9048 9.844C12.6228 9.60734 12.586 9.18683 12.8227 8.90478ZM10.8227 9.57145C11.0593 9.2894 11.4798 9.25261 11.7619 9.48928C12.0439 9.72595 12.0807 10.1465 11.8441 10.4285C11.6074 10.7106 11.1869 10.7473 10.9048 10.5107C10.6228 10.274 10.586 9.8535 10.8227 9.57145ZM13.0952 10.8226C12.8132 10.5859 12.3927 10.6227 12.156 10.9048C11.9193 11.1868 11.9561 11.6073 12.2382 11.844C12.5202 12.0807 12.9407 12.0439 13.1774 11.7618C13.4141 11.4798 13.3773 11.0593 13.0952 10.8226Z" clip-rule="evenodd" fill="" fill-opacity="1.000000" fill-rule="evenodd"/>
		</mask>
		<path id="Oval 68" d="M14.4286 6.82261C14.1465 6.58594 13.726 6.62273 13.4893 6.90478C13.2527 7.18683 13.2895 7.60734 13.5715 7.844C13.8536 8.08067 14.2741 8.04388 14.5107 7.76183C14.7474 7.47978 14.7106 7.05928 14.4286 6.82261ZM14.9048 9.17734C14.6228 8.94067 14.586 8.52017 14.8227 8.23812C15.0593 7.95607 15.4798 7.91928 15.7619 8.15594C16.0439 8.39261 16.0807 8.81312 15.8441 9.09517C15.6074 9.37722 15.1869 9.41401 14.9048 9.17734ZM12.8227 8.90478C13.0593 8.62273 13.4798 8.58594 13.7619 8.82261C14.0439 9.05928 14.0807 9.47978 13.8441 9.76183C13.6074 10.0439 13.1869 10.0807 12.9048 9.844C12.6228 9.60734 12.586 9.18683 12.8227 8.90478ZM10.8227 9.57145C11.0593 9.2894 11.4798 9.25261 11.7619 9.48928C12.0439 9.72595 12.0807 10.1465 11.8441 10.4285C11.6074 10.7106 11.1869 10.7473 10.9048 10.5107C10.6228 10.274 10.586 9.8535 10.8227 9.57145ZM13.0952 10.8226C12.8132 10.5859 12.3927 10.6227 12.156 10.9048C11.9193 11.1868 11.9561 11.6073 12.2382 11.844C12.5202 12.0807 12.9407 12.0439 13.1774 11.7618C13.4141 11.4798 13.3773 11.0593 13.0952 10.8226Z" clip-rule="evenodd" fill="#FFFFFF" fill-opacity="1.000000" fill-rule="evenodd" mask="url(#mask_17_4441)"/>
		<path id="Oval 68" d="" fill="#979797" fill-opacity="0.000000" fill-rule="nonzero"/>
	</g>
	<g mask="url(#mask17_4413)">
		<path id="Star 8" d="M17.47 13.45C15.88 15.03 13.31 15.03 11.72 13.45C11.57 13.29 11.43 13.13 11.3 12.96C12.89 14.11 15.13 13.98 16.57 12.54C18 11.11 18.14 8.87 16.98 7.28C17.15 7.4 17.32 7.54 17.47 7.69C19.06 9.28 19.06 11.86 17.47 13.45Z" fill="#FFFFFF" fill-opacity="1.000000" fill-rule="evenodd"/>
		<path id="Star 8" d="M11.72 13.45C11.57 13.29 11.43 13.13 11.3 12.96C12.89 14.11 15.13 13.98 16.57 12.54C18 11.11 18.14 8.87 16.98 7.28C17.15 7.4 17.32 7.54 17.47 7.69C19.06 9.28 19.06 11.86 17.47 13.45C15.88 15.03 13.31 15.03 11.72 13.45Z" stroke="#979797" stroke-opacity="0" stroke-width="0.000000"/>
	</g>
</svg>
