<svg width="28" height="28" viewBox="0 0 28 28" fill="none" xmlns="http://www.w3.org/2000/svg">
<rect y="3.99998" width="28" height="20" rx="3" fill="white"/>
<mask id="mask0_107608_844" style="mask-type:luminance" maskUnits="userSpaceOnUse" x="0" y="4" width="28" height="20">
<rect y="3.99998" width="28" height="20" rx="3" fill="white"/>
</mask>
<g mask="url(#mask0_107608_844)">
<rect y="3.99998" width="28" height="20" fill="#52B3EB"/>
<rect y="3.99123" width="12.6491" height="10.0088" fill="#062365"/>
<path d="M0 3.66665H-0.901086L-0.21693 4.25307L4.33333 8.15329V9.16177L-0.193746 12.3954L-0.333333 12.4951V12.6666V13.3333V13.9347L0.176666 13.616L5.42893 10.3333H6.55984L11.0821 13.5635C11.176 13.6306 11.2886 13.6666 11.404 13.6666C11.9181 13.6666 12.1548 13.027 11.7644 12.6923L7.66667 9.18V8.17152L12.0542 5.0376C12.2294 4.91246 12.3333 4.71041 12.3333 4.49511V3.99998V3.39856L11.8233 3.71731L6.57107 6.99998H5.44016L0.860413 3.72874L0.773488 3.66665H0.666667H0Z" fill="#DB1E36" stroke="white" stroke-width="0.666667"/>
<path fill-rule="evenodd" clip-rule="evenodd" d="M0 7.33331V9.99998H4.66667V13.3333C4.66667 13.7015 4.96514 14 5.33333 14H6.66667C7.03486 14 7.33333 13.7015 7.33333 13.3333V9.99998H12C12.3682 9.99998 12.6667 9.7015 12.6667 9.33331V7.99998C12.6667 7.63179 12.3682 7.33331 12 7.33331H7.33333V3.99998H4.66667V7.33331H0Z" fill="white"/>
<path fill-rule="evenodd" clip-rule="evenodd" d="M0 7.99998H5.33333V7.33331V3.99998H6.66667V7.33331V7.99998H12V9.33331H6.66667V9.99998V13.3333H5.33333V9.99998V9.33331H0V7.99998Z" fill="#DB1E36"/>
<path d="M24.223 6L24.5354 6.96155L25.5464 6.96155L24.7285 7.55582L25.0409 8.51736L24.223 7.92309L23.405 8.51736L23.7175 7.55582L22.8995 6.96155L23.9106 6.96155L24.223 6Z" fill="#F9DD4A"/>
<path d="M25.2351 12.747L25.5664 13.7668H26.6387L25.7712 14.3971L26.1026 15.4169L25.2351 14.7867L24.3675 15.4169L24.6989 14.3971L23.8314 13.7668H24.9037L25.2351 12.747Z" fill="#F9DD4A"/>
<path d="M21.2711 14.7712L21.5835 15.7327L22.5945 15.7327L21.7766 16.327L22.089 17.2885L21.2711 16.6943L20.4531 17.2885L20.7656 16.327L19.9476 15.7327L20.9587 15.7327L21.2711 14.7712Z" fill="#F9DD4A"/>
<path d="M10.3916 20.1688L10.704 21.1303L11.715 21.1303L10.8971 21.7246L11.2095 22.6861L10.3916 22.0919L9.57362 22.6861L9.88605 21.7246L9.06811 21.1303L10.0791 21.1303L10.3916 20.1688Z" fill="#F9DD4A"/>
<path d="M20.8214 9.10723L21.6486 9.71925L22.4863 9.12165L22.1599 10.0975L22.9871 10.7095L21.9581 10.7006L21.6317 11.6764L21.3222 10.6951L20.2932 10.6862L21.1309 10.0886L20.8214 9.10723Z" fill="#F9DD4A"/>
<path d="M17.1525 10.0517L18.0042 10.6818L18.8667 10.0666L18.5306 11.0713L19.3823 11.7014L18.3229 11.6922L17.9868 12.6969L17.6681 11.6866L16.6087 11.6774L17.4712 11.0621L17.1525 10.0517Z" fill="#F9DD4A"/>
<path d="M14.5106 14.2527L15.3463 14.871L16.1926 14.2673L15.8628 15.2531L16.6985 15.8714L15.659 15.8624L15.3292 16.8483L15.0165 15.8569L13.977 15.8479L14.8233 15.2441L14.5106 14.2527Z" fill="#F9DD4A"/>
<path d="M18.5986 18.0479L19.4343 18.6662L20.2806 18.0625L19.9508 19.0483L20.7865 19.6666L19.747 19.6576L19.4172 20.6435L19.1045 19.652L18.065 19.643L18.9113 19.0393L18.5986 18.0479Z" fill="#F9DD4A"/>
<path d="M14.2973 19.3129L15.1329 19.9312L15.9792 19.3275L15.6494 20.3133L16.4851 20.9316L15.4456 20.9226L15.1158 21.9085L14.8032 20.9171L13.7636 20.9081L14.6099 20.3043L14.2973 19.3129Z" fill="#F9DD4A"/>
</g>
</svg>
