<svg viewBox="0 0 29.8022 28" xmlns="http://www.w3.org/2000/svg" xmlns:xlink="http://www.w3.org/1999/xlink" width="29.802170" height="28.000000" fill="none" customFrame="#000000">
	<defs>
		<filter id="pixso_custom_mask_type_alpha">
			<feColorMatrix type="matrix" values="0 0 0 0 1 0 0 0 0 1 0 0 0 0 1 0 0 0 1 0 " />
		</filter>
	</defs>
	<mask id="mask_243" width="28.000000" height="19.999996" x="1.802170" y="4.000000" maskUnits="userSpaceOnUse">
		<g filter="url(#pixso_custom_mask_type_alpha)">
			<rect id="Mask" width="28.000000" height="19.999996" x="1.802170" y="4.000000" rx="3.000000" fill="rgb(255,255,255)" />
			<rect id="Mask" width="28.000000" height="19.999996" x="1.802170" y="4.000000" rx="3.000000" stroke="rgb(150.96,150.96,150.96)" stroke-opacity="0" stroke-width="0.000000" />
		</g>
	</mask>
	<rect id="Tuvalu" width="28.000000" height="28.000000" x="1.802170" y="0.000000" fill="rgb(255,255,255)" fill-opacity="0" />
	<rect id="Mask" width="28.000000" height="19.999996" x="1.802170" y="4.000000" rx="3.000000" fill="rgb(255,255,255)" />
	<rect id="Mask" width="28.000000" height="19.999996" x="1.802170" y="4.000000" rx="3.000000" stroke="rgb(150.96,150.96,150.96)" stroke-opacity="0" stroke-width="0.000000" />
	<g mask="url(#mask_243)">
		<rect id="Mask Copy" width="28.000000" height="19.999996" x="1.802170" y="4.000000" fill="rgb(82,179,235)" />
		<rect id="Mask Copy" width="28.000000" height="19.999996" x="1.802170" y="4.000000" stroke="rgb(150.96,150.96,150.96)" stroke-opacity="0" stroke-width="0.000000" />
		<rect id="Mask Copy" width="12.649121" height="10.008772" x="1.802170" y="3.991211" fill="rgb(6,35,101)" />
		<rect id="Mask Copy" width="12.649121" height="10.008772" x="1.802170" y="3.991211" stroke="rgb(150.96,150.96,150.96)" stroke-opacity="0" stroke-width="0.000000" />
		<path id="Rectangle 36" d="M6.46884 8L1.80217 4L2.46884 4L7.1355 7.33333L8.46884 7.33333L13.8022 4L13.8022 4.49513C13.8022 4.60278 13.7502 4.7038 13.6626 4.76637L9.1355 8L9.1355 9.33333L13.3496 12.9455C13.5051 13.0787 13.4109 13.3333 13.2062 13.3333L13.2062 13.3333C13.1602 13.3333 13.1154 13.319 13.078 13.2923L8.46884 10L7.1355 10L1.80217 13.3333L1.80217 12.6667L6.46884 9.33333L6.46884 8Z" fill="rgb(219,30,54)" fill-rule="evenodd" />
		<path id="Rectangle 36" d="M2.68248 3.33333L-1.78814e-06 3.33333L5.80217 8.30662L5.80217 8.99026L1.1355 12.3236L1.1355 14.5362L7.3267 10.6667L8.25519 10.6667L12.6905 13.8348C12.7676 13.8898 12.8492 13.9311 12.9351 13.9587C13.021 13.9862 13.1114 14 13.2062 14C13.3096 14 13.4074 13.9839 13.4996 13.9518C13.5817 13.9232 13.6593 13.882 13.7325 13.828C13.8007 13.7777 13.8596 13.7203 13.9093 13.6558C13.9631 13.5858 14.0061 13.5074 14.0382 13.4206C14.0703 13.3339 14.0887 13.2464 14.0933 13.1582C14.0976 13.0769 14.0902 12.995 14.0712 12.9125C14.0508 12.8238 14.0187 12.742 13.975 12.6669C13.9259 12.5824 13.862 12.5066 13.7835 12.4393L9.80217 9.02671L9.80217 8.34308L14.0501 5.30886C14.1158 5.26194 14.1743 5.2088 14.2256 5.14944C14.2769 5.09008 14.3211 5.0245 14.358 4.95271C14.395 4.88091 14.4227 4.80688 14.4411 4.7306C14.4596 4.65435 14.4688 4.57586 14.4688 4.49513L14.4688 2.79717L8.27764 6.66667L7.34915 6.66667L2.68248 3.33333ZM7.1355 7.33333L4.6152 5.53312L2.46884 4L1.80217 4L2.21567 4.35443L2.46884 4.57143L6.46884 8L6.46884 9.33333L3.14055 11.7107L1.80217 12.6667L1.80217 13.3333L2.13139 13.1276L2.46884 12.9167L3.51133 12.2651L7.1355 10L8.46884 10L10.9891 11.8002L12.7622 13.0667L13.078 13.2923C13.1154 13.319 13.1602 13.3333 13.2062 13.3333C13.4109 13.3333 13.5051 13.0787 13.3496 12.9455L13.0551 12.693L11.4006 11.2749L9.1355 9.33333L9.1355 8L12.4638 5.62266L13.6626 4.76637C13.7502 4.7038 13.8022 4.60278 13.8022 4.49513L13.8022 4L13.1449 4.41077L13.1355 4.41667L12.093 5.06821L8.46884 7.33333L7.1355 7.33333Z" fill="rgb(255,255,255)" fill-rule="evenodd" />
		<path id="Rectangle 2" d="M1.80217 7.33333L1.80217 10L6.46884 10L6.46884 13.3333C6.46884 13.7015 6.76731 14 7.1355 14L8.46884 14C8.83703 14 9.1355 13.7015 9.1355 13.3333L9.1355 10L13.8022 10C14.1704 10 14.4688 9.70152 14.4688 9.33333L14.4688 8C14.4688 7.63181 14.1704 7.33333 13.8022 7.33333L9.1355 7.33333L9.1355 4L6.46884 4L6.46884 7.33333L1.80217 7.33333Z" fill="rgb(255,255,255)" fill-rule="evenodd" />
		<path id="Rectangle 2" d="M1.80217 10L6.46884 10L6.46884 13.3333C6.46884 13.7015 6.76731 14 7.1355 14L8.46884 14C8.83703 14 9.1355 13.7015 9.1355 13.3333L9.1355 10L13.8022 10C14.1704 10 14.4688 9.70152 14.4688 9.33333L14.4688 8C14.4688 7.63181 14.1704 7.33333 13.8022 7.33333L9.1355 7.33333L9.1355 4L6.46884 4L6.46884 7.33333L1.80217 7.33333L1.80217 10Z" fill-rule="evenodd" stroke="rgb(150.96,150.96,150.96)" stroke-opacity="0" stroke-width="0.000000" />
		<path id="Rectangle 36" d="M1.80217 8L7.1355 8L7.1355 7.33333L7.1355 4L8.46884 4L8.46884 7.33333L8.46884 8L13.8022 8L13.8022 9.33333L8.46884 9.33333L8.46884 10L8.46884 13.3333L7.1355 13.3333L7.1355 10L7.1355 9.33333L1.80217 9.33333L1.80217 8Z" fill="rgb(219,30,54)" fill-rule="evenodd" />
		<path id="Rectangle 36" d="M7.1355 8L7.1355 7.33333L7.1355 4L8.46884 4L8.46884 7.33333L8.46884 8L13.8022 8L13.8022 9.33333L8.46884 9.33333L8.46884 10L8.46884 13.3333L7.1355 13.3333L7.1355 10L7.1355 9.33333L1.80217 9.33333L1.80217 8L7.1355 8Z" fill-rule="evenodd" stroke="rgb(150.96,150.96,150.96)" stroke-opacity="0" stroke-width="0.000000" />
		<path id="Star 111" d="M26.3376 6.96155L27.3486 6.96155L26.5307 7.55582L26.8431 8.51736L26.0252 7.92309L25.2072 8.51736L25.5196 7.55582L24.7017 6.96155L25.7127 6.96155L26.0252 6L26.3376 6.96155Z" fill="rgb(249,221,74)" fill-rule="evenodd" />
		<path id="Star 112" d="M27.3686 13.7669L28.4409 13.7669L27.5734 14.3972L27.9047 15.417L27.0372 14.7867L26.1697 15.417L26.5011 14.3972L25.6336 13.7669L26.7059 13.7669L27.0372 12.7471L27.3686 13.7669Z" fill="rgb(249,221,74)" fill-rule="evenodd" />
		<path id="Star 113" d="M23.3857 15.7328L24.3967 15.7328L23.5788 16.3271L23.8912 17.2886L23.0732 16.6943L22.2553 17.2886L22.5677 16.3271L21.7498 15.7328L22.7608 15.7328L23.0732 14.7712L23.3857 15.7328Z" fill="rgb(249,221,74)" fill-rule="evenodd" />
		<path id="Star 119" d="M12.5062 21.1302L13.5172 21.1302L12.6992 21.7245L13.0117 22.6861L12.1937 22.0918L11.3758 22.6861L11.6882 21.7245L10.8703 21.1302L11.8813 21.1302L12.1937 20.1687L12.5062 21.1302Z" fill="rgb(249,221,74)" fill-rule="evenodd" />
		<path id="Star 114" d="M1.73427 0.978633L2.76326 0.978633L1.93079 1.58346L2.24877 2.56209L1.41629 1.95727L0.583816 2.56209L0.901793 1.58346L0.0693183 0.978633L1.09831 0.978633L1.41629 0L1.73427 0.978633Z" fill="rgb(249,221,74)" fill-rule="evenodd" transform="matrix(0.814079,-0.580755,0.580754,0.814079,21.4706,9.92969)" />
		<path id="Star 115" d="M1.78559 1.00759L2.84504 1.00759L1.98793 1.63032L2.31532 2.63792L1.4582 2.01519L0.601093 2.63792L0.928481 1.63032L0.0713697 1.00759L1.13082 1.00759L1.4582 0L1.78559 1.00759Z" fill="rgb(249,221,74)" fill-rule="evenodd" transform="matrix(0.814079,-0.580755,0.580754,0.814079,17.7676,10.8986)" />
		<path id="Star 116" d="M1.75207 0.988678L2.79163 0.988678L1.95061 1.59971L2.27185 2.58839L1.43083 1.97736L0.589809 2.58839L0.91105 1.59971L0.0700298 0.988678L1.10959 0.988678L1.43083 0L1.75207 0.988678Z" fill="rgb(249,221,74)" fill-rule="evenodd" transform="matrix(0.814079,-0.580754,0.580755,0.814079,15.148,15.0837)" />
		<path id="Star 117" d="M1.75207 0.988678L2.79163 0.988678L1.95061 1.59972L2.27185 2.58839L1.43083 1.97736L0.589809 2.58839L0.91105 1.59972L0.0700298 0.988678L1.10959 0.988678L1.43083 0L1.75207 0.988678Z" fill="rgb(249,221,74)" fill-rule="evenodd" transform="matrix(0.814079,-0.580755,0.580755,0.814079,19.236,18.8789)" />
		<path id="Star 118" d="M1.75207 0.988678L2.79163 0.988678L1.95061 1.59971L2.27185 2.58839L1.43083 1.97736L0.589809 2.58839L0.91105 1.59971L0.0700298 0.988678L1.10959 0.988678L1.43083 0L1.75207 0.988678Z" fill="rgb(249,221,74)" fill-rule="evenodd" transform="matrix(0.814079,-0.580754,0.580755,0.814079,14.9346,20.1438)" />
	</g>
</svg>
