<svg viewBox="0 0 29.3333 28" xmlns="http://www.w3.org/2000/svg" xmlns:xlink="http://www.w3.org/1999/xlink" width="29.333344" height="28.000000" fill="none" customFrame="#000000">
	<defs>
		<filter id="pixso_custom_mask_type_alpha">
			<feColorMatrix type="matrix" values="0 0 0 0 1 0 0 0 0 1 0 0 0 0 1 0 0 0 1 0 " />
		</filter>
		<g id="pixso_custom_effect_0">
			<effect x="0.000000" y="0.000000" visibility="visible" fill="rgb(0,0,0)" fill-opacity="0.0599999987" effectType="dropShadow" showShadowBehind="1" stdDeviation="0" radius="0" />
			<effect x="0.000000" y="1.000000" visibility="hidden" fill="rgb(255,216.88,100.278)" fill-opacity="1" effectType="innerShadow" showShadowBehind="1" stdDeviation="0" radius="0" />
		</g>
		<filter id="filter_0" width="28.000000" height="8.000000" x="1.333344" y="16.000000" filterUnits="userSpaceOnUse" customEffect="url(#pixso_custom_effect_0)" color-interpolation-filters="sRGB">
			<feFlood flood-opacity="0" result="BackgroundImageFix" />
			<feOffset dx="0.000000" dy="0.000000" in="SourceAlpha" />
			<feColorMatrix type="matrix" values="0 0 0 0 0 0 0 0 0 0 0 0 0 0 0 0 0 0 0.06 0 " />
			<feBlend result="effect_dropShadow_1" in2="BackgroundImageFix" mode="normal" />
			<feBlend result="shape" in="SourceGraphic" in2="effect_dropShadow_1" mode="normal" />
		</filter>
		<g id="pixso_custom_effect_1">
			<effect x="0.000000" y="0.000000" visibility="visible" fill="rgb(0,0,0)" fill-opacity="0.0599999987" effectType="dropShadow" showShadowBehind="1" stdDeviation="0" radius="0" />
			<effect x="0.000000" y="1.000000" visibility="hidden" fill="rgb(255,216.88,100.278)" fill-opacity="1" effectType="innerShadow" showShadowBehind="1" stdDeviation="0" radius="0" />
		</g>
		<filter id="filter_1" width="28.000000" height="8.000000" x="1.333344" y="4.000000" filterUnits="userSpaceOnUse" customEffect="url(#pixso_custom_effect_1)" color-interpolation-filters="sRGB">
			<feFlood flood-opacity="0" result="BackgroundImageFix" />
			<feOffset dx="0.000000" dy="0.000000" in="SourceAlpha" />
			<feColorMatrix type="matrix" values="0 0 0 0 0 0 0 0 0 0 0 0 0 0 0 0 0 0 0.06 0 " />
			<feBlend result="effect_dropShadow_1" in2="BackgroundImageFix" mode="normal" />
			<feBlend result="shape" in="SourceGraphic" in2="effect_dropShadow_1" mode="normal" />
		</filter>
	</defs>
	<mask id="mask_13" width="28.000000" height="20.000000" x="1.333344" y="4.000000" maskUnits="userSpaceOnUse">
		<g filter="url(#pixso_custom_mask_type_alpha)">
			<rect id="Mask" width="28.000000" height="20.000000" x="1.333344" y="4.000000" rx="3.000000" fill="rgb(255,255,255)" />
			<rect id="Mask" width="28.000000" height="20.000000" x="1.333344" y="4.000000" rx="3.000000" stroke="rgb(150.96,150.96,150.96)" stroke-opacity="0" stroke-width="0.000000" />
		</g>
	</mask>
	<rect id="Vanuatu" width="28.000000" height="28.000000" x="1.333344" y="0.000000" fill="rgb(255,255,255)" fill-opacity="0" />
	<rect id="Mask" width="28.000000" height="20.000000" x="1.333344" y="4.000000" rx="3.000000" fill="rgb(255,255,255)" />
	<rect id="Mask" width="28.000000" height="20.000000" x="1.333344" y="4.000000" rx="3.000000" stroke="rgb(150.96,150.96,150.96)" stroke-opacity="0" stroke-width="0.000000" />
	<g mask="url(#mask_13)">
		<g filter="url(#filter_0)">
			<path id="Rectangle 2" d="M1.33334 24L29.3333 24L29.3333 16L1.33334 16L1.33334 24Z" fill="rgb(0,149,67)" fill-rule="evenodd" />
			<path id="Rectangle 2" d="M29.3333 24L29.3333 16L1.33334 16L1.33334 24L29.3333 24Z" fill-rule="evenodd" stroke="rgb(150.96,150.96,150.96)" stroke-opacity="0" stroke-width="0.000000" />
		</g>
		<g filter="url(#filter_1)">
			<path id="Rectangle 2" d="M1.33334 12L29.3333 12L29.3333 4L1.33334 4L1.33334 12Z" fill="rgb(210,16,52)" fill-rule="evenodd" />
			<path id="Rectangle 2" d="M29.3333 12L29.3333 4L1.33334 4L1.33334 12L29.3333 12Z" fill-rule="evenodd" stroke="rgb(150.96,150.96,150.96)" stroke-opacity="0" stroke-width="0.000000" />
		</g>
		<path id="Rectangle 2" d="M1.33334 16L29.3333 16L29.3333 12L1.33334 12L1.33334 16Z" fill="rgb(38,38,38)" fill-rule="evenodd" />
		<path id="Rectangle 2" d="M29.3333 16L29.3333 12L1.33334 12L1.33334 16L29.3333 16Z" fill-rule="evenodd" stroke="rgb(150.96,150.96,150.96)" stroke-opacity="0" stroke-width="0.000000" />
		<path id="Rectangle 83" d="M1.33334 4L14.6667 14L1.33334 24L1.33334 4Z" fill="rgb(38,38,38)" fill-rule="evenodd" />
		<path id="Rectangle 83" d="M14.6667 14L1.33334 24L1.33334 4L14.6667 14Z" fill-rule="evenodd" stroke="rgb(150.96,150.96,150.96)" stroke-opacity="0" stroke-width="0.000000" />
		<path id="Rectangle 83" d="M0 5.33337L12 14L0 22.6667L0 5.33337Z" fill="rgb(253,206,18)" fill-opacity="0" fill-rule="evenodd" />
		<path id="Rectangle 83" d="M10.8614 13.1777L12 14L10.8614 14.8224L1.33333 21.7037L0 22.6667L0 5.33337L1.33333 6.29634L10.8614 13.1777ZM1.33333 7.94105L9.72271 14L1.33333 20.059L1.33333 7.94105Z" fill="rgb(253,206,18)" fill-rule="evenodd" />
		<path id="Rectangle 2" d="M10.6667 14.6667L29.3334 14.6667L29.3334 13.3334L10.6667 13.3334L10.6667 14.6667Z" fill="rgb(253,206,18)" fill-rule="evenodd" />
		<path id="Rectangle 2" d="M29.3334 14.6667L29.3334 13.3334L10.6667 13.3334L10.6667 14.6667L29.3334 14.6667Z" fill-rule="evenodd" stroke="rgb(150.96,150.96,150.96)" stroke-opacity="0" stroke-width="0.000000" />
	</g>
</svg>
