<svg width="29.000000" height="28.000000" viewBox="0 0 29 28" fill="none" xmlns="http://www.w3.org/2000/svg" xmlns:xlink="http://www.w3.org/1999/xlink">
	<desc>
			Created with Pixso.
	</desc>
	<defs>
		<filter id="filter_17_4215_dd" x="1.000000" y="16.000000" width="28.000000" height="8.000000" filterUnits="userSpaceOnUse" color-interpolation-filters="sRGB">
			<feFlood flood-opacity="0" result="BackgroundImageFix"/>
			<feColorMatrix in="SourceAlpha" type="matrix" values="0 0 0 0 0 0 0 0 0 0 0 0 0 0 0 0 0 0 127 0" result="hardAlpha"/>
			<feOffset dx="0" dy="0"/>
			<feGaussianBlur stdDeviation="0"/>
			<feComposite in2="hardAlpha" operator="out" k2="-1" k3="1"/>
			<feColorMatrix type="matrix" values="0 0 0 0 0 0 0 0 0 0 0 0 0 0 0 0 0 0 0.059 0"/>
			<feBlend mode="normal" in2="BackgroundImageFix" result="effect_dropShadow_1"/>
			<feBlend mode="normal" in="SourceGraphic" in2="effect_dropShadow_1" result="shape"/>
		</filter>
		<filter id="filter_17_4216_dd" x="1.000000" y="4.000000" width="28.000000" height="8.000000" filterUnits="userSpaceOnUse" color-interpolation-filters="sRGB">
			<feFlood flood-opacity="0" result="BackgroundImageFix"/>
			<feColorMatrix in="SourceAlpha" type="matrix" values="0 0 0 0 0 0 0 0 0 0 0 0 0 0 0 0 0 0 127 0" result="hardAlpha"/>
			<feOffset dx="0" dy="0"/>
			<feGaussianBlur stdDeviation="0"/>
			<feComposite in2="hardAlpha" operator="out" k2="-1" k3="1"/>
			<feColorMatrix type="matrix" values="0 0 0 0 0 0 0 0 0 0 0 0 0 0 0 0 0 0 0.059 0"/>
			<feBlend mode="normal" in2="BackgroundImageFix" result="effect_dropShadow_1"/>
			<feBlend mode="normal" in="SourceGraphic" in2="effect_dropShadow_1" result="shape"/>
		</filter>
	</defs>
	<rect id="Vanuatu" width="28.000000" height="28.000000" transform="translate(1.000000 0.000000)" fill="#FFFFFF" fill-opacity="0"/>
	<rect id="Mask" x="1.000000" y="4.000000" rx="3.000000" width="28.000000" height="20.000000" fill="#FFFFFF" fill-opacity="1.000000"/>
	<rect id="Mask" x="1.000000" y="4.000000" rx="3.000000" width="28.000000" height="20.000000" stroke="#979797" stroke-opacity="0" stroke-width="0.000000"/>
	<mask id="mask17_4214" mask-type="alpha" maskUnits="userSpaceOnUse" x="1.000000" y="4.000000" width="28.000000" height="20.000000">
		<rect id="Mask" x="1.000000" y="4.000000" rx="3.000000" width="28.000000" height="20.000000" fill="#FFFFFF" fill-opacity="1.000000"/>
		<rect id="Mask" x="1.000000" y="4.000000" rx="3.000000" width="28.000000" height="20.000000" stroke="#979797" stroke-opacity="0" stroke-width="0.000000"/>
	</mask>
	<g mask="url(#mask17_4214)">
		<g filter="url(#filter_17_4215_dd)">
			<path id="Rectangle 2" d="M1 24L29 24L29 16L1 16L1 24Z" fill="#009543" fill-opacity="1.000000" fill-rule="evenodd"/>
		</g>
		<path id="Rectangle 2" d="M29 24L29 16L1 16L1 24L29 24Z" stroke="#979797" stroke-opacity="0" stroke-width="0.000000"/>
	</g>
	<g mask="url(#mask17_4214)">
		<g filter="url(#filter_17_4216_dd)">
			<path id="Rectangle 2" d="M1 12L29 12L29 4L1 4L1 12Z" fill="#D21034" fill-opacity="1.000000" fill-rule="evenodd"/>
		</g>
		<path id="Rectangle 2" d="M29 12L29 4L1 4L1 12L29 12Z" stroke="#979797" stroke-opacity="0" stroke-width="0.000000"/>
	</g>
	<g mask="url(#mask17_4214)">
		<path id="Rectangle 2" d="M1 16L29 16L29 12L1 12L1 16Z" fill="#262626" fill-opacity="1.000000" fill-rule="evenodd"/>
		<path id="Rectangle 2" d="M29 16L29 12L1 12L1 16L29 16Z" stroke="#979797" stroke-opacity="0" stroke-width="0.000000"/>
	</g>
	<g mask="url(#mask17_4214)">
		<path id="Rectangle 83" d="M1 4L14.33 14L1 24L1 4Z" fill="#262626" fill-opacity="1.000000" fill-rule="evenodd"/>
		<path id="Rectangle 83" d="M14.33 14L1 24L1 4L14.33 14Z" stroke="#979797" stroke-opacity="0" stroke-width="0.000000"/>
	</g>
	<g mask="url(#mask17_4214)">
		<path id="Rectangle 83" d="M-0.34 5.33L11.66 14L-0.34 22.66L-0.34 5.33Z" fill="#FDCE12" fill-opacity="0" fill-rule="evenodd"/>
		<path id="Rectangle 83" d="M10.52 13.17L11.66 14L10.52 14.82L1 21.7L-0.34 22.66L-0.34 5.33L1 6.29L10.52 13.17ZM1 7.94L9.38 14L1 20.05L1 7.94Z" fill="#FDCE12" fill-opacity="1.000000" fill-rule="evenodd"/>
	</g>
	<g mask="url(#mask17_4214)">
		<path id="Rectangle 2" d="M10.33 14.66L29 14.66L29 13.33L10.33 13.33L10.33 14.66Z" fill="#FDCE12" fill-opacity="1.000000" fill-rule="evenodd"/>
		<path id="Rectangle 2" d="M29 14.66L29 13.33L10.33 13.33L10.33 14.66L29 14.66Z" stroke="#979797" stroke-opacity="0" stroke-width="0.000000"/>
	</g>
</svg>
