<svg width="28.000000" height="28.000000" viewBox="0 0 28 28" fill="none" xmlns="http://www.w3.org/2000/svg" xmlns:xlink="http://www.w3.org/1999/xlink">
	<desc>
			Created with Pixso.
	</desc>
	<defs>
		<clipPath id="clip136805_1196">
			<rect id="Virgin Islands of the United States" width="28.000000" height="28.000000" transform="translate(28.000000 28.000000) rotate(180.000000)" fill="white" fill-opacity="0"/>
		</clipPath>
	</defs>
	<rect id="Virgin Islands of the United States" width="28.000000" height="28.000000" transform="translate(28.000000 28.000000) rotate(180.000000)" fill="#FFFFFF" fill-opacity="0"/>
	<g clip-path="url(#clip136805_1196)">
		<rect id="Mask Copy" y="4.000000" rx="3.000000" width="28.000000" height="20.000000" fill="#FFFFFF" fill-opacity="1.000000"/>
		<rect id="Mask Copy" x="0.250000" y="4.250000" rx="3.000000" width="27.500000" height="19.500000" stroke="#F5F5F5" stroke-opacity="1.000000" stroke-width="0.500000"/>
		<path id="Vector" d="M9.03 17.45C9.03 17.45 9.01 17.31 9.28 17.2C9.56 17.1 9.58 16.7 9.52 16.44C9.52 16.44 9.38 16.69 9.2 16.77C9.2 16.77 8.92 16.92 8.91 17.2C8.91 17.2 8.91 17.3 8.88 17.38C8.87 17.43 8.75 17.03 8.98 16.74C9.23 16.43 9.3 16.18 9.1 15.7C9.1 15.7 9.09 15.99 8.89 16.16C8.7 16.33 8.68 16.34 8.68 16.74C8.68 16.74 8.68 16.88 8.61 16.92C8.61 16.92 8.46 16.7 8.42 16.56C8.38 16.41 8.36 16.35 8.53 16.19C8.53 16.19 9.08 15.83 8.69 15.06C8.69 15.06 8.67 15.32 8.48 15.48C8.3 15.64 8.31 15.75 8.3 16.02C8.29 16.29 8.27 16.27 8.25 16.31C8.25 16.31 7.9 15.67 8.17 15.33C8.44 14.99 8.59 14.92 8.3 14.29C8.3 14.29 8.31 14.61 8.07 14.77C7.83 14.93 7.89 15.31 7.89 15.31C7.89 15.31 7.9 15.45 7.86 15.55C7.86 15.55 7.52 14.9 7.84 14.55C8.11 14.25 8.13 14.04 7.98 13.62C7.98 13.62 7.97 13.81 7.82 13.92C7.67 14.02 7.55 14.13 7.58 14.54C7.58 14.54 7.59 14.82 7.55 14.9C7.55 14.9 7.41 14.64 7.37 14.47C7.33 14.3 7.32 14.2 7.42 14.03C7.52 13.86 7.94 13.37 7.44 12.67C7.44 12.67 7.43 12.9 7.3 13.1C7.18 13.31 7.24 13.55 7.26 13.74C7.29 13.93 7.2 14.11 7.2 14.11C7.2 14.11 6.99 13.71 7.03 13.27C7.08 12.82 6.89 12.45 6.48 12.18C6.48 12.18 6.18 12.88 6.59 13.24C6.59 13.24 6.94 13.58 7.03 14C7.03 14 6.76 13.98 6.52 13.51C6.28 13.04 5.78 13.11 5.75 13.11C5.75 13.11 5.83 13.84 6.6 14.04C6.6 14.04 7.09 14.13 7.18 14.49C7.18 14.49 7.26 14.73 7.3 14.87C7.3 14.87 7.14 14.8 7 14.59C6.86 14.38 6.87 14.35 6.39 14.31C6.39 14.31 6.19 14.28 6.09 14.15C6.09 14.15 6.29 14.91 6.82 14.91C6.82 14.91 7.3 14.86 7.57 15.49C7.57 15.49 7.51 15.45 7.44 15.41C7.37 15.36 7.2 15.27 6.85 15.31C6.5 15.35 6.4 15.29 6.31 15.26C6.31 15.26 6.66 15.91 7.16 15.72C7.66 15.53 7.91 16.23 7.91 16.24C7.91 16.24 7.84 16.19 7.76 16.11C7.67 16.02 7.48 15.91 7.14 16.02C7.14 16.02 6.89 16.12 6.63 16.04C6.63 16.04 6.88 16.51 7.45 16.43C8.02 16.35 8.16 16.85 8.16 16.85C8.16 16.85 8.08 16.81 8.03 16.77C7.98 16.73 7.79 16.62 7.38 16.74C6.96 16.86 6.82 16.72 6.82 16.72C6.82 16.72 7.04 17.14 7.48 17.19C7.48 17.19 7.73 17.18 7.83 17.14C7.94 17.1 8.21 17.04 8.4 17.32C8.4 17.32 8.35 17.33 8.27 17.29C8.27 17.29 7.97 17.19 7.75 17.37C7.75 17.37 7.55 17.57 7.27 17.54C7.27 17.54 7.64 17.89 8.21 17.59C8.21 17.59 8.41 17.45 8.55 17.56C8.7 17.67 9.03 17.45 9.03 17.45Z" fill="#369443" fill-opacity="1.000000" fill-rule="nonzero"/>
		<path id="Union" d="M15.6 10.22C15.53 10.32 15.24 10.35 15.24 10.35C15.24 10.35 15.54 10.57 15.66 10.9C15.79 11.22 12.27 10.9 12.27 10.9C12.27 10.9 12.42 10.79 12.52 10.58C12.52 10.58 12.37 10.64 12.21 10.49C12.21 10.49 12.33 10.52 12.48 10.29C12.48 10.29 12.7 10.01 12.86 9.93C12.84 9.94 12.77 9.96 12.62 9.88C12.62 9.88 12.92 9.84 13.03 9.32C13.03 9.32 13.05 9.2 13.16 9.03C13.19 8.99 13.21 8.97 13.23 8.96C13.23 8.85 13.2 8.55 12.87 8.55C12.83 8.55 12.79 8.55 12.76 8.56L12.76 8.56C12.7 8.57 12.64 8.58 12.53 8.56C12.4 8.54 12.32 8.64 12.27 8.71C12.26 8.72 12.25 8.74 12.24 8.74C12.24 8.74 12.17 8.15 12.65 8.09C12.75 8.08 12.83 8.07 12.91 8.07C12.91 8.05 12.92 8.03 12.93 8.01C12.98 7.88 13.08 7.86 13.14 7.86C13.14 7.86 13.14 7.86 13.14 7.86L13.14 7.86L13.14 7.86L13.14 7.85L13.14 7.85L13.14 7.85L13.17 7.87L13.17 7.87C13.18 7.87 13.18 7.85 13.19 7.84C13.21 7.79 13.26 7.7 13.4 7.62C13.6 7.53 14.11 7.57 14.19 7.61C14.2 7.62 14.21 7.62 14.23 7.63C14.34 7.68 14.6 7.8 14.77 8.21C14.83 8.38 14.84 8.51 14.86 8.64C14.88 8.87 14.9 9.1 15.22 9.54C15.22 9.54 15.02 9.59 14.89 9.55C14.89 9.55 15.15 10.01 15.6 10.22Z" fill="#F4C53D" fill-opacity="1.000000" fill-rule="evenodd"/>
		<path id="Union" d="M16.7698 14.1093C16.7698 14.1093 17.1482 14.4178 17.4655 14.1093C17.4655 14.1093 17.5937 14.2635 17.8499 14.2185C18.1063 14.1735 18.149 14.0386 18.1734 13.9614C18.1734 13.9614 18.3951 14.0908 18.5822 13.9886C18.7694 13.8865 18.7694 13.7322 18.7694 13.7322C18.7694 13.7322 19.0949 13.7964 19.2617 13.5758C19.4285 13.3552 19.3268 13.1367 19.2372 13.111C19.2372 13.111 19.5891 13.2032 19.6848 12.9011C19.7661 12.644 19.5831 12.5112 19.5831 12.5112C19.5831 12.5112 20.3245 12.5076 20.6286 12.2755C20.6286 12.2755 20.8808 12.117 20.7303 11.9499C20.7303 11.9499 21.3975 11.8428 21.5643 11.5772C21.5643 11.5772 21.6375 11.5043 21.6131 11.3758C21.6131 11.3758 21.6091 11.303 21.5358 11.2987C21.5358 11.2987 22.2967 11.1812 22.5163 10.9302C22.5163 10.9302 22.6221 10.8145 22.5692 10.6603C22.5692 10.6603 22.558 10.6196 22.5397 10.5923C22.5397 10.5923 23.2323 10.4461 23.574 10.1376C23.574 10.1376 23.7713 9.96181 23.6696 9.72617C23.6696 9.72617 24.8271 9.40921 24.5586 8.89936C24.5586 8.89936 25.0996 8.72369 24.9288 8.23528C24.9288 8.23528 25.3763 8.00819 25.181 7.6483C25.0504 7.40765 24.7309 7.53255 24.3185 7.6938C24.1406 7.76334 23.9454 7.83965 23.7407 7.8963C23.7407 7.8963 22.1454 8.39858 21.1949 8.59193C21.0991 8.6019 21.0078 8.62721 21.0078 8.62721L21.0062 8.6276C21.003 8.62817 20.9997 8.62872 20.9965 8.62927L20.9958 8.63026C18.4099 9.28907 17.7042 9.70766 17.7042 9.70766C17.2159 10.0033 17.335 10.7166 17.6553 10.9544C17.7863 11.0516 17.7773 11.2199 17.6822 11.3112C17.5682 11.4205 17.4234 11.3208 17.4234 11.3208C16.9933 11.1076 16.7522 11.2886 16.7522 11.2886C16.7522 11.2886 16.3558 13.2123 16.8589 13.484L16.7698 14.1093Z" clip-rule="evenodd" fill="#F4C53D" fill-opacity="1.000000" fill-rule="evenodd"/>
		<path id="Union" d="M21.2072 14.7495L21.6395 12.7926L20.2928 14.2156L20.6816 14.3177L19.4338 16.6961L19.8206 15.0264L20.1751 15.2321L20.1118 13.2241L19.1607 14.9657L19.5613 14.9584L18.9868 17.3996L19.2303 17.5746L19.2567 17.4606L19.3296 17.5031L20.9153 14.4541L21.2072 14.7495ZM22.405 14.1177L21.5659 15.922L21.3445 15.5651L19.5728 17.6585L19.381 17.4438L21.1459 15.3768L20.7889 15.1852L22.405 14.1177Z" clip-rule="evenodd" fill="#0081C6" fill-opacity="1.000000" fill-rule="evenodd"/>
		<path id="Union" d="M11.2265 14.1093C11.2265 14.1093 10.8482 14.4178 10.5309 14.1093C10.5309 14.1093 10.4027 14.2635 10.1464 14.2185C9.89014 14.1735 9.84738 14.0386 9.82297 13.9615C9.82297 13.9615 9.60126 14.0908 9.41412 13.9886C9.22696 13.8865 9.22696 13.7322 9.22696 13.7322C9.22696 13.7322 8.90149 13.7964 8.73471 13.5758C8.5679 13.3552 8.66962 13.1367 8.75912 13.111C8.75912 13.111 8.40723 13.2032 8.31158 12.9011C8.23022 12.644 8.4133 12.5112 8.4133 12.5112C8.4133 12.5112 7.67188 12.5076 7.36777 12.2755C7.36777 12.2755 7.11554 12.117 7.26605 11.9499C7.26605 11.9499 6.59888 11.8428 6.43207 11.5772C6.43207 11.5772 6.35886 11.5043 6.38324 11.3758C6.38324 11.3758 6.38733 11.303 6.46054 11.2987C6.46054 11.2987 5.69968 11.1812 5.48007 10.9302C5.48007 10.9302 5.37433 10.8145 5.42719 10.6603C5.42719 10.6603 5.43839 10.6196 5.4567 10.5923C5.4567 10.5923 4.76407 10.4461 4.42233 10.1376C4.42233 10.1376 4.22507 9.96181 4.32675 9.72617C4.32675 9.72617 3.16928 9.40921 3.43781 8.89936C3.43781 8.89936 2.89673 8.72369 3.0676 8.23528C3.0676 8.23528 2.62006 8.00819 2.81537 7.6483C2.94592 7.40765 3.26544 7.53256 3.67789 7.69381C3.85577 7.76335 4.0509 7.83965 4.25565 7.8963C4.25565 7.8963 5.85071 8.3985 6.80121 8.59188C6.89722 8.60181 6.98883 8.62721 6.98883 8.62721L6.99091 8.62773C6.9939 8.62825 6.99689 8.62877 6.99988 8.62927L7.00049 8.63018C9.58667 9.28904 10.2924 9.70766 10.2924 9.70766C10.7806 10.0033 10.6616 10.7166 10.3412 10.9544C10.2103 11.0516 10.2192 11.2199 10.3144 11.3112C10.4283 11.4205 10.5731 11.3208 10.5731 11.3208C11.0033 11.1076 11.2444 11.2886 11.2444 11.2886C11.2444 11.2886 11.6408 13.2129 11.1375 13.4841L11.2265 14.1093Z" clip-rule="evenodd" fill="#F4C53D" fill-opacity="1.000000" fill-rule="evenodd"/>
		<path id="Union" d="M10.5808 15.2701C11.1985 14.7437 11.2764 14.3254 11.2764 14.3254C11.2764 14.3254 12.3417 15.6049 12.3539 15.8435C12.3661 16.0821 11.882 16.2647 11.882 16.2647C11.4548 16.496 11.3857 16.7574 11.3857 16.7574C11.2799 17.1516 11.0073 17.2073 11.0073 17.2073C10.8568 17.2544 10.8283 17.3615 10.8283 17.3615C10.8148 17.32 10.8059 17.278 10.8006 17.2366C10.6206 17.2884 10.2727 17.4662 10.1735 17.5233C10.0487 17.5952 9.88055 17.6519 9.79102 17.7119C9.72437 17.7565 9.65677 17.7504 9.58356 18.1232C9.51031 18.4959 9.35571 18.4617 8.98141 18.5688C8.60715 18.6759 8.59494 18.4531 8.59494 18.4531C8.38339 18.5088 8.35492 18.2946 8.35492 18.2946C8.3183 18.2817 8.16373 18.2174 8.21658 17.9175C8.26947 17.6176 8.39883 17.5208 8.52579 17.4034C8.70782 17.235 9.35165 17.3134 9.35165 17.3134C9.61404 17.3074 9.84445 17.0445 9.95877 16.8878C9.89026 16.8938 9.84381 16.8902 9.84381 16.8902C9.85464 16.8805 9.8652 16.8712 9.87543 16.8622C10.0419 16.7152 10.1281 16.6391 10.1164 16.1747C10.1042 15.6906 10.5808 15.2701 10.5808 15.2701Z" clip-rule="evenodd" fill="#F4C53D" fill-opacity="1.000000" fill-rule="evenodd"/>
		<path id="Union" d="M17.4168 15.2701C16.7991 14.7437 16.7212 14.3254 16.7212 14.3254C16.7212 14.3254 15.6559 15.6049 15.6436 15.8435C15.6314 16.0821 16.1156 16.2647 16.1156 16.2647C16.5428 16.496 16.6119 16.7574 16.6119 16.7574C16.7177 17.1516 16.9903 17.2073 16.9903 17.2073C17.1408 17.2544 17.1693 17.3615 17.1693 17.3615C17.1828 17.32 17.1917 17.278 17.197 17.2367C17.377 17.2885 17.7248 17.4662 17.8241 17.5233C17.9488 17.5952 18.117 17.6519 18.2065 17.7119C18.2731 17.7565 18.3408 17.7504 18.414 18.1232C18.4872 18.4959 18.6418 18.4617 19.0161 18.5688C19.3904 18.6759 19.4026 18.4531 19.4026 18.4531C19.6141 18.5088 19.6426 18.2946 19.6426 18.2946C19.6792 18.2817 19.8338 18.2174 19.7809 17.9175C19.7281 17.6176 19.5987 17.5208 19.4718 17.4034C19.2897 17.235 18.6459 17.3134 18.6459 17.3134C18.3835 17.3074 18.1531 17.0445 18.0388 16.8878C18.1073 16.8938 18.1538 16.8902 18.1538 16.8902C18.1429 16.8805 18.1324 16.8712 18.1222 16.8622C17.9557 16.7152 17.8695 16.6391 17.8812 16.1747C17.8934 15.6906 17.4168 15.2701 17.4168 15.2701Z" clip-rule="evenodd" fill="#F4C53D" fill-opacity="1.000000" fill-rule="evenodd"/>
		<path id="Vector" d="M15.22 19.68C15.22 19.68 15.18 18.82 14.43 17.59M15.69 19.37C15.69 19.37 15.8 18.87 14.75 17.4C14.75 17.4 14.87 17.05 14.5 16.82M16.05 18.95C16.05 18.95 16.08 18.42 15.05 17.19C15.05 17.19 15.14 16.87 14.77 16.62M16.35 18.57C16.35 18.57 16.31 18.03 15.31 16.97C15.31 16.97 15.36 16.64 15 16.44M16.72 18.26C16.72 18.26 16.65 17.64 15.59 16.69C15.59 16.69 15.62 16.45 15.27 16.2" stroke="#010002" stroke-opacity="1.000000" stroke-width="0.172176"/>
		<path id="Vector" d="M12.77 19.68C12.77 19.68 12.81 18.82 13.55 17.59M12.3 19.37C12.3 19.37 12.18 18.87 13.23 17.4C13.23 17.4 13.11 17.05 13.49 16.82" stroke="#010002" stroke-opacity="1.000000" stroke-width="0.172176"/>
		<path id="Vector" d="M11.94 18.95C11.94 18.95 11.9 18.42 12.93 17.19C12.93 17.19 12.84 16.87 13.22 16.62M11.64 18.57C11.64 18.57 11.67 18.03 12.68 16.97C12.68 16.97 12.63 16.64 12.99 16.44" stroke="#010002" stroke-opacity="1.000000" stroke-width="0.172176"/>
		<path id="Union" d="M15.82 16.5C15.83 16.41 15.77 16.27 15.59 16.06C15.14 15.55 14.43 16.62 14.23 16.95C14.16 16.87 14.08 16.82 13.99 16.82C13.9 16.82 13.82 16.87 13.76 16.95C13.56 16.62 12.85 15.55 12.4 16.06C12.22 16.27 12.16 16.41 12.17 16.5C10.41 18.12 11.27 18.26 11.27 18.26C11.27 18.67 11.64 18.57 11.64 18.57C11.59 19.02 11.94 18.96 11.94 18.96C11.93 19.45 12.3 19.37 12.3 19.37C12.36 19.9 12.77 19.68 12.77 19.68C12.75 20.14 13.02 20.16 13.02 20.16C13.34 20.2 13.47 19.87 13.5 19.75C13.51 19.83 13.51 19.9 13.52 19.98C13.54 20.33 13.73 20.62 13.99 20.62C14.25 20.62 14.44 20.33 14.47 19.98C14.48 19.9 14.48 19.83 14.48 19.75C14.52 19.87 14.65 20.2 14.97 20.16C14.97 20.16 15.24 20.14 15.22 19.68C15.22 19.68 15.62 19.9 15.69 19.37C15.69 19.37 16.05 19.45 16.05 18.96C16.05 18.96 16.39 19.02 16.35 18.57C16.35 18.57 16.72 18.67 16.72 18.26C16.72 18.26 17.58 18.12 15.82 16.5Z" fill="#F4C53D" fill-opacity="1.000000" fill-rule="evenodd"/>
		<path id="Vector" d="M13.99 17.24C13.99 17.24 17.05 15.89 17.06 12.75L10.93 12.75C10.94 15.89 13.99 17.24 13.99 17.24Z" fill="#FFFFFF" fill-opacity="1.000000" fill-rule="nonzero"/>
		<path id="Vector" d="M12.34 12.75L12.82 12.75M11.4 12.75L11.87 12.75M13.29 12.75L13.76 12.75" stroke="#010002" stroke-opacity="1.000000" stroke-width="0.172176"/>
		<path id="Vector" d="M11.4 12.75L11.4 14.75C11.4 14.75 11.64 15.22 11.87 15.51L11.87 12.75L11.4 12.75ZM12.34 12.75L12.34 16.05C12.34 16.05 12.64 16.34 12.82 16.48L12.82 12.75L12.34 12.75ZM13.29 12.75L13.29 16.83C13.29 16.83 13.62 17.05 13.76 17.12L13.76 12.75L13.29 12.75Z" fill="#A60032" fill-opacity="1.000000" fill-rule="nonzero"/>
		<path id="Vector" d="" stroke="#010002" stroke-opacity="1.000000" stroke-width="0.172176"/>
		<path id="Vector" d="M16.58 12.75L16.58 14.75C16.58 14.75 16.35 15.22 16.11 15.51L16.11 12.75L16.58 12.75ZM15.64 12.75L15.64 16.05C15.64 16.05 15.35 16.34 15.17 16.48L15.17 12.75L15.64 12.75ZM14.7 12.75L14.7 16.83C14.7 16.83 14.36 17.05 14.23 17.12L14.23 12.75L14.7 12.75Z" fill="#A60032" fill-opacity="1.000000" fill-rule="nonzero"/>
		<path id="Union" d="M17.7818 20.4396L17.669 20.916L18.2747 20.6333L18.6835 21.1823L19.143 19.2411L18.9789 19.0776L19.0465 18.949L18.8799 18.6636L18.9366 18.4315C18.936 18.431 18.9353 18.4305 18.9346 18.4299L19.0853 18.2385C19.0886 18.1895 19.0706 18.1471 19.0453 18.1123L19.0461 18.1108C18.9634 17.9784 18.7994 17.9785 18.7989 17.9785L18.5729 18.4166L18.1321 18.4152L17.9462 18.7685L17.8285 18.7394L16.5573 20.2262L17.2181 20.2761L17.3343 20.963L17.7818 20.4396Z" clip-rule="evenodd" fill="#0081C6" fill-opacity="1.000000" fill-rule="evenodd"/>
		<path id="Vector" d="M8.96 18.34C8.96 18.34 8.95 18.08 9.28 18.06L10.25 19.41C10.25 19.41 10.22 19.5 9.78 19.49C9.78 19.49 9.73 19.49 9.71 19.54C9.67 19.62 8.96 18.34 8.96 18.34Z" fill="#369443" fill-opacity="1.000000" fill-rule="nonzero"/>
		<path id="Vector" d="M17.06 10.48C17.06 10.48 15.56 11.26 13.99 10.42C12.43 11.26 10.93 10.48 10.93 10.48L10.93 12.76L17.06 12.76L17.06 10.48Z" fill="#162667" fill-opacity="1.000000" fill-rule="nonzero"/>
		<path id="Vector" d="M3.3 16.38C3.45 16.32 3.56 16.26 3.56 16.1C3.56 16.06 3.54 15.98 3.5 15.85L2.5 12.81C2.44 12.62 2.4 12.52 2.38 12.48C2.33 12.39 2.24 12.36 2.12 12.31L3.39 12.31C3.25 12.37 3.13 12.42 3.13 12.57C3.13 12.63 3.15 12.7 3.18 12.81L3.94 15.2L4.7 12.81C4.74 12.7 4.75 12.63 4.75 12.57C4.75 12.42 4.62 12.37 4.49 12.31L5.72 12.31C5.61 12.35 5.52 12.39 5.47 12.48C5.45 12.52 5.4 12.62 5.34 12.81L4.35 15.85C4.31 15.98 4.29 16.07 4.28 16.1C4.28 16.1 4.24 16.3 4.54 16.38L3.3 16.38ZM24.54 16.07L24.54 12.62C24.54 12.56 24.53 12.51 24.51 12.48C24.49 12.45 24.41 12.36 24.29 12.31L25.43 12.31C25.31 12.35 25.22 12.45 25.2 12.48C25.18 12.51 25.17 12.56 25.17 12.62L25.17 16.07C25.17 16.13 25.18 16.18 25.2 16.21C25.22 16.24 25.31 16.32 25.43 16.38L24.29 16.38C24.41 16.32 24.49 16.24 24.51 16.21C24.53 16.17 24.54 16.13 24.54 16.07Z" fill="#0081C6" fill-opacity="1.000000" fill-rule="nonzero"/>
	</g>
</svg>
