<svg width="28.000000" height="28.000000" viewBox="0 0 28 28" fill="none" xmlns="http://www.w3.org/2000/svg" xmlns:xlink="http://www.w3.org/1999/xlink">
	<desc>
			Created with Pixso.
	</desc>
	<defs/>
	<rect id="Western Sahara" width="28.000000" height="28.000000" fill="#FFFFFF" fill-opacity="0"/>
	<rect id="Rectangle 2312" y="4.000000" rx="3.000000" width="28.000000" height="20.000000" fill="#FFFFFF" fill-opacity="1.000000"/>
	<rect id="Rectangle 2312" x="0.250000" y="4.250000" rx="3.000000" width="27.500000" height="19.500000" stroke="#D6D8DD" stroke-opacity="1.000000" stroke-width="0.500000"/>
	<mask id="mask107628_1531" mask-type="alpha" maskUnits="userSpaceOnUse" x="0.000000" y="4.000000" width="28.000000" height="20.000000">
		<rect id="Rectangle 2313" y="4.000000" rx="3.000000" width="28.000000" height="20.000000" fill="#347743" fill-opacity="1.000000"/>
	</mask>
	<g mask="url(#mask107628_1531)">
		<rect id="Rectangle 2310" y="4.000000" width="28.000000" height="6.730769" fill="#000000" fill-opacity="1.000000"/>
	</g>
	<g mask="url(#mask107628_1531)">
		<rect id="Rectangle 2311" y="17.269287" width="28.000000" height="6.730769" fill="#347743" fill-opacity="1.000000"/>
	</g>
	<g mask="url(#mask107628_1531)">
		<path id="Vector 1" d="M0 4L10 14L0 24L0 4Z" fill="#B42A26" fill-opacity="1.000000" fill-rule="evenodd"/>
	</g>
	<g mask="url(#mask107628_1531)">
		<path id="Subtract" d="M17.57 11.42C16.32 11.65 15.37 12.74 15.37 14.05C15.37 15.36 16.32 16.46 17.57 16.68C17.41 16.71 17.25 16.73 17.09 16.73C15.61 16.73 14.41 15.53 14.41 14.05C14.41 12.58 15.61 11.38 17.09 11.38C17.25 11.38 17.41 11.39 17.57 11.42Z" fill="#B42A26" fill-opacity="1.000000" fill-rule="nonzero"/>
	</g>
	<g mask="url(#mask107628_1531)">
		<path id="Star 97" d="M17.49 12.15L17.06 13.48L15.66 13.48L16.79 14.3L16.36 15.63L17.49 14.81L18.62 15.63L18.19 14.3L19.32 13.48L17.92 13.48L17.49 12.15Z" fill="#B42A26" fill-opacity="1.000000" fill-rule="nonzero"/>
	</g>
</svg>
