<svg width="28.000000" height="28.000000" viewBox="0 0 28 28" fill="none" xmlns="http://www.w3.org/2000/svg" xmlns:xlink="http://www.w3.org/1999/xlink">
	<desc>
			Created with Pixso.
	</desc>
	<defs/>
	<rect id="Zambia" width="28.000000" height="28.000000" fill="#FFFFFF" fill-opacity="0"/>
	<rect id="Mask" y="4.000000" rx="3.000000" width="28.000000" height="20.000000" fill="#009F60" fill-opacity="1.000000"/>
	<rect id="Mask" y="4.000000" rx="3.000000" width="28.000000" height="20.000000" stroke="#979797" stroke-opacity="0" stroke-width="0.000000"/>
	<mask id="mask17_3913" mask-type="alpha" maskUnits="userSpaceOnUse" x="0.000000" y="4.000000" width="28.000000" height="20.000000">
		<rect id="Mask" y="4.000000" rx="3.000000" width="28.000000" height="20.000000" fill="#009F60" fill-opacity="1.000000"/>
		<rect id="Mask" y="4.000000" rx="3.000000" width="28.000000" height="20.000000" stroke="#979797" stroke-opacity="0" stroke-width="0.000000"/>
	</mask>
	<g mask="url(#mask17_3913)">
		<rect id="Mask" x="24.000000" y="14.666626" width="4.000000" height="9.333333" fill="#EA8B42" fill-opacity="1.000000"/>
		<rect id="Mask" x="24.000000" y="14.666626" width="4.000000" height="9.333333" stroke="#979797" stroke-opacity="0" stroke-width="0.000000"/>
	</g>
	<g mask="url(#mask17_3913)">
		<path id="Rectangle 2" d="M20 24L24 24L24 14.66L20 14.66L20 24Z" fill="#1A1919" fill-opacity="1.000000" fill-rule="evenodd"/>
		<path id="Rectangle 2" d="M24 24L24 14.66L20 14.66L20 24L24 24Z" stroke="#979797" stroke-opacity="0" stroke-width="0.000000"/>
	</g>
	<g mask="url(#mask17_3913)">
		<path id="Rectangle 2" d="M16 24L20 24L20 14.66L16 14.66L16 24Z" fill="#DB3C36" fill-opacity="1.000000" fill-rule="evenodd"/>
		<path id="Rectangle 2" d="M20 24L20 14.66L16 14.66L16 24L20 24Z" stroke="#979797" stroke-opacity="0" stroke-width="0.000000"/>
	</g>
	<g mask="url(#mask17_3913)">
		<path id="Fill 11" d="M21.01 7.48C20.92 7.48 20.85 7.45 20.83 7.4C20.98 7.31 21.08 7.33 21.2 7.44C21.23 7.35 21.2 7.25 21.15 7.2C21.1 7.14 21.05 7.14 20.98 7.13C20.91 7.13 20.84 7.11 20.79 7.11C20.72 6.95 20.54 7.02 20.37 7.08C20.09 7.19 19.84 7.38 19.73 7.56C19.68 7.65 19.67 7.68 19.64 7.73C19.67 7.73 19.67 7.73 19.68 7.72C19.66 7.93 19.64 8.13 19.68 8.26C19.63 8.44 19.67 8.56 19.72 8.62C19.78 8.68 19.81 8.7 19.82 8.77C19.83 8.84 19.85 8.9 19.9 8.94C19.95 8.98 19.98 9.04 19.98 9.07C19.99 9.11 20.14 9.25 20.2 9.29C20.23 9.31 20.23 9.34 20.26 9.38C20.2 9.75 20.45 10.12 20.39 10.48C20.43 10.49 20.49 10.48 20.55 10.47C20.6 10.78 20.63 10.93 20.36 11.02C20.09 11.12 19.94 11.21 20.01 11.31C20.07 11.38 20.18 11.32 20.25 11.26C20.3 11.21 20.36 11.16 20.41 11.15C20.46 11.14 20.47 11.15 20.44 11.21C20.42 11.28 20.29 11.41 20.28 11.48C20.28 11.55 20.34 11.6 20.43 11.54C20.52 11.49 20.6 11.35 20.62 11.27C20.64 11.21 20.66 11.17 20.66 11.27C20.65 11.36 20.59 11.54 20.72 11.57C20.85 11.6 20.89 11.44 20.85 11.3C20.81 11.16 20.79 11.08 20.81 11.03C20.83 10.98 20.85 10.96 20.9 10.97C20.95 10.98 21.04 10.96 21.04 10.89C21.03 10.81 20.97 10.75 20.89 10.79C20.81 10.83 20.75 10.83 20.79 10.73C20.81 10.66 20.85 10.58 20.86 10.53C20.91 10.6 21.21 10.61 21.33 10.54C21.36 10.69 21.44 10.82 21.27 10.96C21.1 11.09 20.97 11.22 20.97 11.32C20.98 11.42 21.01 11.48 21.1 11.43C21.19 11.38 21.24 11.31 21.26 11.25C21.28 11.18 21.32 11.18 21.3 11.26C21.28 11.34 21.25 11.45 21.26 11.52C21.27 11.59 21.38 11.59 21.42 11.53C21.47 11.47 21.46 11.38 21.45 11.3C21.44 11.22 21.45 11.13 21.47 11.1C21.49 11.06 21.53 11.01 21.57 11.11C21.61 11.2 21.63 11.27 21.7 11.3C21.78 11.32 21.84 11.29 21.83 11.19C21.81 11.1 21.71 11 21.61 10.92C21.51 10.84 21.54 10.8 21.55 10.73C21.55 10.66 21.54 10.53 21.53 10.47C21.62 10.54 21.72 10.53 21.77 10.53C21.82 10.53 21.9 10.51 21.82 10.44C21.66 10.29 21.71 10.2 21.6 10.1C21.49 9.99 21.39 9.82 21.36 9.68C21.32 9.54 21.25 9.28 21.1 9.15C21.02 9.08 20.99 8.88 21.01 8.65C21.03 8.42 21.04 8.17 20.83 8.05C20.62 7.93 20.63 7.84 20.7 7.73C20.76 7.63 20.85 7.53 20.96 7.52C20.99 7.52 21.04 7.52 21.07 7.5C21.06 7.49 21.04 7.48 21.01 7.48Z" fill="#EA8B42" fill-opacity="1.000000" fill-rule="evenodd"/>
		<path id="Stroke 12" d="M20.83 7.4C20.98 7.31 21.08 7.33 21.2 7.44C21.23 7.35 21.2 7.25 21.15 7.2C21.1 7.14 21.05 7.14 20.98 7.13C20.91 7.13 20.84 7.11 20.79 7.11C20.72 6.95 20.54 7.02 20.37 7.08C20.09 7.19 19.84 7.38 19.73 7.56C19.68 7.65 19.67 7.68 19.64 7.73C19.67 7.73 19.67 7.73 19.68 7.72C19.66 7.93 19.64 8.13 19.68 8.26C19.63 8.44 19.67 8.56 19.72 8.62C19.78 8.68 19.81 8.7 19.82 8.77C19.83 8.84 19.85 8.9 19.9 8.94C19.95 8.98 19.98 9.04 19.98 9.07C19.99 9.11 20.14 9.25 20.2 9.29C20.23 9.31 20.23 9.34 20.26 9.38C20.2 9.75 20.45 10.12 20.39 10.48C20.43 10.49 20.49 10.48 20.55 10.47C20.6 10.78 20.63 10.93 20.36 11.02C20.09 11.12 19.94 11.21 20.01 11.31C20.07 11.38 20.18 11.32 20.25 11.26C20.3 11.21 20.36 11.16 20.41 11.15C20.46 11.14 20.47 11.15 20.44 11.21C20.42 11.28 20.29 11.41 20.28 11.48C20.28 11.55 20.34 11.6 20.43 11.54C20.52 11.49 20.6 11.35 20.62 11.27C20.64 11.21 20.66 11.17 20.66 11.27C20.65 11.36 20.59 11.54 20.72 11.57C20.85 11.6 20.89 11.44 20.85 11.3C20.81 11.16 20.79 11.08 20.81 11.03C20.83 10.98 20.85 10.96 20.9 10.97C20.95 10.98 21.04 10.96 21.04 10.89C21.03 10.81 20.97 10.75 20.89 10.79C20.81 10.83 20.75 10.83 20.79 10.73C20.81 10.66 20.85 10.58 20.86 10.53C20.91 10.6 21.21 10.61 21.33 10.54C21.36 10.69 21.44 10.82 21.27 10.96C21.1 11.09 20.97 11.22 20.97 11.32C20.98 11.42 21.01 11.48 21.1 11.43C21.19 11.38 21.24 11.31 21.26 11.25C21.28 11.18 21.32 11.18 21.3 11.26C21.28 11.34 21.25 11.45 21.26 11.52C21.27 11.59 21.38 11.59 21.42 11.53C21.47 11.47 21.46 11.38 21.45 11.3C21.44 11.22 21.45 11.13 21.47 11.1C21.49 11.06 21.53 11.01 21.57 11.11C21.61 11.2 21.63 11.27 21.7 11.3C21.78 11.32 21.84 11.29 21.83 11.19C21.81 11.1 21.71 11 21.61 10.92C21.51 10.84 21.54 10.8 21.55 10.73C21.55 10.66 21.54 10.53 21.53 10.47C21.62 10.54 21.72 10.53 21.77 10.53C21.82 10.53 21.9 10.51 21.82 10.44C21.66 10.29 21.71 10.2 21.6 10.1C21.49 9.99 21.39 9.82 21.36 9.68C21.32 9.54 21.25 9.28 21.1 9.15C21.02 9.08 20.99 8.88 21.01 8.65C21.03 8.42 21.04 8.17 20.83 8.05C20.62 7.93 20.63 7.84 20.7 7.73C20.76 7.63 20.85 7.53 20.96 7.52C20.99 7.52 21.04 7.52 21.07 7.5C21.06 7.49 21.04 7.48 21.01 7.48C20.92 7.48 20.85 7.45 20.83 7.4Z" stroke="#000000" stroke-opacity="0" stroke-width="0.000000"/>
		<path id="Fill 13" d="M19.66 8.01C19.65 8.1 19.66 8.19 19.68 8.26C19.63 8.44 19.67 8.56 19.72 8.62C19.78 8.68 19.81 8.7 19.82 8.77C19.83 8.84 19.85 8.9 19.9 8.94C19.95 8.98 19.98 9.04 19.98 9.07C19.99 9.11 20.14 9.25 20.2 9.29C20.23 9.31 20.23 9.34 20.26 9.38C20.23 9.53 20.26 9.68 20.3 9.84C19.96 10.12 19.62 9.99 19.76 9.7C19.48 9.92 18.99 9.92 19.1 9.7C18.65 9.85 18.52 9.72 18.58 9.58C18.2 9.73 18.01 9.59 18.06 9.48C17.75 9.57 17.55 9.51 17.52 9.46C17.49 9.41 17.57 9.29 17.64 9.23C17.5 9.29 17.36 9.29 17.23 9.27C17.1 9.25 17.13 9.21 17.16 9.15C17.19 9.09 17.22 9 17.32 8.91C17.08 8.96 16.77 8.99 16.55 8.92C16.51 8.9 16.44 8.89 16.48 8.84C16.53 8.8 16.66 8.69 16.82 8.62C16.45 8.68 15.77 8.72 15.57 8.5C15.76 8.54 16 8.46 16.16 8.4C15.55 8.33 14.72 7.91 14.71 7.5C14.88 7.78 15.18 7.88 15.48 7.97C15.08 7.73 14.91 7.44 14.89 7.25C15.12 7.47 15.48 7.73 15.83 7.79C15.58 7.65 15.26 7.27 15.17 7C15.35 7.16 15.81 7.42 16.12 7.5C15.91 7.33 15.55 6.93 15.57 6.7C15.66 6.79 15.86 6.94 16.27 7.19C16.69 7.43 16.92 7.41 17.26 7.49C17.2 7.4 17.14 7.29 17.13 7.26C17.24 7.27 17.33 7.31 17.62 7.49C17.91 7.67 18.55 7.73 18.91 7.89C19.17 8.01 19.55 7.93 19.66 8.01Z" fill="#EA8B42" fill-opacity="1.000000" fill-rule="evenodd"/>
		<path id="Stroke 14" d="M19.68 8.26C19.63 8.44 19.67 8.56 19.72 8.62C19.78 8.68 19.81 8.7 19.82 8.77C19.83 8.84 19.85 8.9 19.9 8.94C19.95 8.98 19.98 9.04 19.98 9.07C19.99 9.11 20.14 9.25 20.2 9.29C20.23 9.31 20.23 9.34 20.26 9.38C20.23 9.53 20.26 9.68 20.3 9.84C19.96 10.12 19.62 9.99 19.76 9.7C19.48 9.92 18.99 9.92 19.1 9.7C18.65 9.85 18.52 9.72 18.58 9.58C18.2 9.73 18.01 9.59 18.06 9.48C17.75 9.57 17.55 9.51 17.52 9.46C17.49 9.41 17.57 9.29 17.64 9.23C17.5 9.29 17.36 9.29 17.23 9.27C17.1 9.25 17.13 9.21 17.16 9.15C17.19 9.09 17.22 9 17.32 8.91C17.08 8.96 16.77 8.99 16.55 8.92C16.51 8.9 16.44 8.89 16.48 8.84C16.53 8.8 16.66 8.69 16.82 8.62C16.45 8.68 15.77 8.72 15.57 8.5C15.76 8.54 16 8.46 16.16 8.4C15.55 8.33 14.72 7.91 14.71 7.5C14.88 7.78 15.18 7.88 15.48 7.97C15.08 7.73 14.91 7.44 14.89 7.25C15.12 7.47 15.48 7.73 15.83 7.79C15.58 7.65 15.26 7.27 15.17 7C15.35 7.16 15.81 7.42 16.12 7.5C15.91 7.33 15.55 6.93 15.57 6.7C15.66 6.79 15.86 6.94 16.27 7.19C16.69 7.43 16.92 7.41 17.26 7.49C17.2 7.4 17.14 7.29 17.13 7.26C17.24 7.27 17.33 7.31 17.62 7.49C17.91 7.67 18.55 7.73 18.91 7.89C19.17 8.01 19.55 7.93 19.66 8.01C19.65 8.1 19.66 8.19 19.68 8.26Z" stroke="#000000" stroke-opacity="0" stroke-width="0.000000"/>
		<path id="Fill 15" d="M21.84 10.51C21.86 10.5 21.86 10.47 21.82 10.44C21.66 10.29 21.71 10.2 21.6 10.1C21.49 9.99 21.39 9.82 21.36 9.68C21.32 9.54 21.25 9.28 21.1 9.15C21.02 9.08 20.99 8.88 21.01 8.65C21.03 8.45 21.04 8.24 20.91 8.11C21.15 8.04 21.37 8.03 21.45 8.1C21.85 8 22.2 7.97 22.54 7.95C22.93 7.92 23.67 7.75 24.2 7.39C24.17 7.52 23.99 7.72 23.83 7.82C24.36 7.69 25.01 7.45 25.55 7.04C25.55 7.32 25.32 7.54 25.18 7.65C25.55 7.45 26.1 7.19 26.29 6.86C26.37 7.19 25.81 7.63 25.51 7.87C25.82 7.72 26.22 7.58 26.37 7.36C26.37 7.63 26.02 7.97 25.68 8.16C26.02 8.03 26.4 7.9 26.62 7.69C26.65 7.97 25.6 8.59 25.08 8.76C25.53 8.65 26.12 8.5 26.38 8.34C26.37 8.4 26.26 8.48 26.18 8.53C25.87 8.77 25.39 8.89 25.09 8.95C25.13 9.11 25.08 9.2 24.9 9.21C24.72 9.23 24.28 9.16 24.06 9.05C24.03 9.07 23.99 9.07 23.95 9.08C24.16 9.24 24.23 9.36 24.19 9.42C24.14 9.49 23.99 9.48 23.88 9.46C23.97 9.71 23.66 9.7 23.41 9.55C23.51 9.68 23.52 9.79 23.38 9.82C23.24 9.85 23.13 9.84 22.99 9.76C22.99 9.85 22.89 9.92 22.77 9.89C23.19 10.14 23.17 10.24 23.1 10.34C23.02 10.43 22.77 10.41 22.63 10.33C22.58 10.53 22.35 10.53 22.17 10.37C22.17 10.45 22.01 10.61 21.84 10.51Z" fill="#EA8B42" fill-opacity="1.000000" fill-rule="evenodd"/>
		<mask id="mask_17_3924" fill="white">
			<path id="Stroke 16" d="M21.8257 10.4434C21.8501 10.4656 21.8596 10.4825 21.8596 10.4951C21.8596 10.5031 21.8558 10.5095 21.8496 10.5144C22.0123 10.6104 22.1769 10.4523 22.1784 10.3727C22.3508 10.5318 22.5819 10.5311 22.6399 10.3312C22.7751 10.4189 23.0289 10.4384 23.1012 10.3408C23.1245 10.3095 23.1428 10.2785 23.1428 10.2423C23.1428 10.1659 23.0612 10.0661 22.7728 9.89075C22.8967 9.92326 22.9901 9.85823 22.9997 9.76068C23.1349 9.8486 23.2462 9.85823 23.3863 9.82898C23.4578 9.81407 23.489 9.77763 23.489 9.72803C23.489 9.68036 23.4602 9.62053 23.4105 9.55595C23.6348 9.68425 23.8981 9.7132 23.8981 9.54449C23.8981 9.52069 23.8929 9.49295 23.8815 9.46098C23.9974 9.48524 24.1497 9.49763 24.193 9.42934C24.201 9.41676 24.2051 9.40253 24.2051 9.38669C24.2051 9.31647 24.1249 9.21443 23.9515 9.08318C23.995 9.07837 24.0338 9.07166 24.066 9.05222C24.2849 9.16284 24.7214 9.23268 24.9017 9.2196C25.045 9.20935 25.107 9.1498 25.107 9.0442C25.107 9.01689 25.1028 8.98651 25.0949 8.95311C25.3904 8.89565 25.8737 8.77058 26.1888 8.53763C26.2653 8.4812 26.3704 8.40378 26.3832 8.34856C26.1255 8.50459 25.5394 8.6541 25.0884 8.76456C25.6007 8.59613 26.6285 7.98509 26.6285 7.70859C26.6285 7.7052 26.6283 7.70186 26.628 7.69858C26.4091 7.90004 26.0291 8.03664 25.6876 8.16653C26.0225 7.9716 26.3736 7.63681 26.3768 7.36705C26.2222 7.58812 25.8228 7.72627 25.5135 7.87578C25.5193 7.87122 25.5251 7.86658 25.5311 7.86186C25.8165 7.63541 26.3011 7.25078 26.3011 6.93506C26.3011 6.91183 26.2985 6.88898 26.293 6.86658C26.1061 7.19156 25.5588 7.45152 25.1851 7.6597C25.3205 7.54254 25.5523 7.32817 25.5588 7.04207C25.0112 7.45152 24.367 7.69205 23.8323 7.8221C23.9935 7.72455 24.1738 7.52963 24.2061 7.39957C23.6777 7.75706 22.937 7.92603 22.5441 7.95216C22.2028 7.9747 21.8547 8.00568 21.4537 8.10803C21.3766 8.03011 21.1541 8.04491 20.9125 8.1132C21.0042 8.20627 21.0276 8.34122 21.0276 8.48193C21.0276 8.53918 21.0238 8.59738 21.019 8.6541C21.0148 8.70332 21.0127 8.75121 21.0127 8.79677C21.0127 8.9633 21.0414 9.09889 21.106 9.1563C21.2537 9.2879 21.3281 9.54633 21.3621 9.68774C21.3958 9.82898 21.4973 9.99484 21.6084 10.102C21.7195 10.2092 21.6663 10.2971 21.8257 10.4434ZM17.2587 7.4873C17.3167 7.57178 17.5003 7.73436 17.6227 7.76688L17.2587 7.4873ZM17.6194 7.71802C17.6129 7.84482 17.6839 8.03337 17.8997 8.0984C18.1155 8.16344 18.3022 8.14383 18.4183 8.10803L17.6194 7.71802ZM18.4142 8.10803C18.2177 8.15277 17.9833 8.2739 17.9254 8.38107C17.9072 8.41481 17.8989 8.44176 17.8989 8.46368C17.8989 8.51151 17.9387 8.53535 18.0027 8.55328C18.3152 8.6412 18.6694 8.54692 18.9206 8.3649L18.4142 8.10803ZM18.407 8.06435C18.4005 8.19905 18.679 8.35509 19.1429 8.28026L18.407 8.06435ZM18.7145 8.28352L18.2443 8.43819C18.4825 8.40797 18.6147 8.33739 18.7145 8.28352ZM18.9142 8.2966C18.8691 8.44284 19.1976 8.55328 19.6582 8.43956L18.9142 8.2966ZM19.1074 8.46881L18.5696 8.7126C18.7757 8.64757 18.985 8.54039 19.1074 8.46881ZM18.3184 8.5858C18.2765 8.64757 18.2535 8.84937 18.4312 8.87192C18.7918 8.9175 19.291 8.67372 19.4875 8.47208L18.3184 8.5858ZM18.7629 8.8394C18.7325 8.89082 18.717 8.94383 18.717 8.99266C18.717 9.09196 18.7814 9.17398 18.9175 9.19037C19.1203 9.2148 19.4731 9.04912 19.7871 8.69316L18.7629 8.8394ZM18.9754 8.95639C19.2217 8.86383 19.4585 8.67853 19.6759 8.54193L18.9754 8.95639ZM19.2363 9.11725C19.1851 9.19025 19.1583 9.24429 19.1583 9.29121C19.1583 9.31947 19.168 9.34515 19.188 9.37083C19.2411 9.43896 19.3474 9.39027 19.4923 9.31216C19.6373 9.23424 19.8353 9.07338 19.9464 8.98563L19.2363 9.11725ZM19.8499 8.86383C19.7484 8.93213 19.4441 9.1563 19.3668 9.23424L19.8499 8.86383ZM19.7582 9.12704C19.7411 9.17195 19.7336 9.21077 19.7336 9.24419C19.7336 9.33409 19.7877 9.38489 19.8547 9.40971C19.9464 9.44395 20.0914 9.46339 20.2267 9.33179L19.7582 9.12704ZM19.1011 9.69737C19.3039 9.61943 19.6373 9.3951 19.7436 9.30736L19.1011 9.69737ZM19.8449 9.40491L19.386 9.69737C19.5698 9.61943 19.7628 9.48782 19.8449 9.40491ZM19.7678 9.70236C19.932 9.60481 20.1639 9.43896 20.2413 9.34641L19.7678 9.70236ZM20.2509 9.50726L20.0237 9.77548C20.0963 9.69737 20.2073 9.56577 20.2509 9.50726ZM19.357 9.37566L18.8547 9.60963C18.9996 9.55113 19.1976 9.45857 19.357 9.37566ZM18.5745 9.58038C18.7 9.53651 19.0479 9.35123 19.159 9.2879L18.5745 9.58038ZM18.3765 9.47801C18.6518 9.41953 18.8691 9.25385 18.99 9.19037L18.3765 9.47801ZM18.0672 9.48283C18.2991 9.43414 18.6372 9.2148 18.7725 9.12704L18.0672 9.48283ZM18.7145 8.97583L17.9559 9.33179C18.241 9.25867 18.5357 9.08318 18.7145 8.97583ZM17.642 9.23923C17.8304 9.19037 18.2073 9.02469 18.4875 8.86864L17.642 9.23923ZM18.2991 8.77608L17.502 9.05875C17.7338 8.99045 18.0914 8.86864 18.2991 8.77608ZM17.328 8.91251C17.5937 8.87346 17.9368 8.68817 18.1058 8.57617L17.328 8.91251ZM16.1251 7.50365C16.2667 7.62064 16.5165 7.67415 16.6855 7.7034L16.1251 7.50365ZM15.8995 7.0713C16.1218 7.28258 16.4697 7.52637 16.8754 7.57504L15.8995 7.0713ZM16.6984 7.53926C16.6533 7.62064 16.6435 7.84482 16.985 7.79922L16.6984 7.53926ZM16.8207 7.79922C16.7661 7.91638 16.8562 8.11458 17.2781 7.98468L16.8207 7.79922ZM17.1943 7.83827C17.262 8.09187 17.5776 8.14709 17.7418 8.01393L17.1943 7.83827ZM16.8062 7.88869C16.6034 7.84962 16.381 7.81557 16.3037 7.84962C16.2266 7.88387 16.2005 7.9594 16.2989 8.0351C16.6226 8.28352 17.8015 8.28851 18.1155 8.22021L16.8062 7.88869ZM16.381 8.08379C16.2651 8.12267 16.2725 8.24757 16.4631 8.32257C16.7482 8.43475 17.5453 8.49823 17.8982 8.46399L16.381 8.08379ZM16.3665 8.26907C16.3418 8.29393 16.3311 8.32117 16.3311 8.34857C16.3311 8.39093 16.3567 8.43372 16.3956 8.46881C16.6675 8.71483 17.3337 8.68163 17.8982 8.48344L16.3665 8.26907ZM16.1636 8.40161L16.3351 8.37389C16.2893 8.3689 16.212 8.38135 16.1636 8.40161ZM15.4874 7.9716C15.7095 8.11302 15.985 8.17635 16.3135 8.20558L15.4874 7.9716ZM16.2361 7.91718C16.0959 7.86171 15.9995 7.84161 15.8304 7.79131L16.2361 7.91718ZM22.8661 8.14055C23.0981 8.10167 23.6134 7.90657 23.8323 7.82864L22.8661 8.14055ZM21.019 8.5598C21.1882 8.65562 21.478 8.69083 21.5119 8.45918L21.019 8.5598ZM21.4925 8.52249C21.6663 8.62486 22.0192 8.56154 22.0093 8.36646L21.4925 8.52249ZM21.9852 8.44438C22.164 8.51268 22.4249 8.51767 22.4683 8.2787L21.9852 8.44438Z" clip-rule="evenodd" fill="" fill-opacity="1.000000" fill-rule="evenodd"/>
		</mask>
		<path id="Stroke 16" d="" fill="#000000" fill-opacity="0.000000" fill-rule="nonzero"/>
		<mask id="mask_17_3966" fill="white">
			<path id="Stroke 17" d="M22.4153 8.39574C22.647 8.43961 22.9175 8.24467 22.8548 8.07901L22.4153 8.39574ZM21.4587 8.10808C21.3524 8.13831 21.2895 8.17865 21.2267 8.21901L21.4587 8.10808ZM23.42 8.55023C23.2978 8.44614 22.9498 8.34222 22.7566 8.30318L22.8274 8.77766C23.0336 8.81673 23.1431 8.83617 23.3621 8.79712C23.4747 8.77711 23.5192 8.7399 23.5192 8.69431C23.5192 8.65125 23.4795 8.60072 23.42 8.55023ZM23.4394 8.56641C23.6326 8.58585 23.8114 8.53716 23.8887 8.46404C23.966 8.39091 24.0094 8.2495 23.7534 8.19101C23.4973 8.13251 23.1109 8.196 22.879 8.33243L23.4394 8.56641ZM23.7389 8.34222C23.5698 8.34222 23.2558 8.37743 23.1109 8.40268L23.7389 8.34222ZM23.8597 8.22523C24.3574 8.10808 24.9854 7.85948 25.1883 7.65973L23.8597 8.22523ZM23.4925 8.75169C23.8259 8.71745 24.0287 8.60046 24.2028 8.45921C24.278 8.39796 24.3959 8.16658 24.2221 8.1227L23.4925 8.75169ZM23.5457 8.7467C23.7147 8.81999 24.0481 8.85887 24.1882 8.76631C24.3282 8.67375 24.309 8.53233 24.1979 8.46404L23.5457 8.7467ZM23.9514 9.08322C23.821 8.97105 23.188 8.83943 22.9805 8.80038L23.9514 9.08322ZM24.066 9.05225C24.1368 9.02954 24.238 8.88812 24.1738 8.77766L24.066 9.05225ZM21.618 8.56641C21.8355 8.76132 22.2896 9.00511 22.5795 9.04915C22.8694 9.09303 23.0964 9.03917 22.9467 8.8735C22.7969 8.70782 22.4103 8.55177 22.2123 8.48347L21.618 8.56641ZM22.9707 9.01492C23.2172 9.17096 23.5674 9.38791 23.8815 9.46103L22.9707 9.01492ZM23.0216 8.92596C23.0057 8.91948 22.9904 8.91333 22.9756 8.90756L23.0216 8.92596ZM23.0216 8.92596C23.2889 9.03479 23.7227 9.23756 23.937 9.29277L23.0216 8.92596ZM22.6712 9.06378C22.8742 9.24408 23.2268 9.46825 23.4104 9.556L22.6712 9.06378ZM22.8548 9.05879C22.9853 9.16597 23.3766 9.36606 23.5651 9.46825L22.8548 9.05879ZM21.8788 8.53233C22.1108 8.66396 22.4442 8.82481 22.6858 8.91255L21.8788 8.53233ZM23.2606 8.65414C22.9225 8.5762 22.6229 8.49828 22.2848 8.46886L23.2606 8.65414ZM21.3427 9.60966C21.3812 9.68777 21.4537 9.79015 21.5698 9.83401C21.6857 9.87788 21.763 9.78033 21.7678 9.67798C21.7686 9.66118 21.7689 9.64568 21.7689 9.63133C21.7689 9.55818 21.7594 9.51486 21.7472 9.48236L21.3427 9.60966ZM21.1396 8.60545C21.1736 8.89793 21.4247 9.30258 21.6373 9.42937C21.8499 9.556 22.0191 9.50731 22.0624 9.444C22.0752 9.42542 22.084 9.39661 22.084 9.3618C22.084 9.27766 22.0324 9.15846 21.8595 9.06378C21.6781 8.96434 21.4537 8.76132 21.3524 8.62009L21.1396 8.60545ZM21.246 8.62489C21.2847 8.74188 21.5842 9.13191 21.7388 9.22946L21.246 8.62489ZM21.5165 9.556C21.4587 9.41475 21.1205 8.92717 21.0092 8.78094L21.5165 9.556ZM21.4393 8.59084C21.5165 8.67857 21.8403 8.9418 22.0093 9.0101L21.4393 8.59084ZM22.0141 9.17578C22.106 9.21965 22.1735 9.22946 22.2365 9.23427C22.2863 9.23824 22.321 9.21742 22.321 9.16957C22.321 9.15723 22.3187 9.14308 22.3138 9.12709C22.2896 9.04915 22.2365 8.97105 22.1881 8.92218L22.0141 9.17578ZM22.0544 9.45053C22.1735 9.62274 22.5828 9.85345 22.7694 9.88924L22.0544 9.45053ZM22.309 9.21002C22.4216 9.33011 22.8241 9.6747 23.0014 9.76245L22.309 9.21002ZM21.7582 9.5123C21.9514 9.74609 22.4852 10.2435 22.6398 10.3312L21.7582 9.5123ZM21.7003 9.8194C21.7774 9.92175 22.0287 10.2557 22.1783 10.3727L21.7003 9.8194ZM22.0141 9.18558C22.1688 9.32683 22.5311 9.58524 22.6712 9.68279L22.0141 9.18558ZM21.6615 10.1654C21.7242 10.18 21.734 10.1411 21.7388 10.1021C21.7436 10.063 21.705 9.96082 21.6471 9.83884L21.6615 10.1654ZM24.2123 8.45268C24.7599 8.33569 25.1077 8.08228 25.5135 7.8741L24.2123 8.45268ZM24.309 8.23814C24.6954 8.09517 25.2946 7.8741 25.8099 7.46465L24.309 8.23814ZM24.2833 8.60219C24.8566 8.45921 25.4686 8.22523 25.8872 7.88065L24.2833 8.60219ZM24.2446 8.71263C25.1143 8.58911 25.3654 8.29665 25.6875 8.16658L24.2446 8.71263ZM24.193 8.84702C24.4056 8.86728 24.855 8.87225 25.0868 8.76132L24.193 8.84702ZM24.1738 8.9418C24.3574 8.98714 24.8405 9.00722 25.0916 8.95193L24.1738 8.9418ZM19.6856 7.72545C19.7773 7.67677 19.7897 7.71634 19.8571 7.64752C19.8693 7.63498 19.882 7.62244 19.895 7.60992L19.6856 7.72545ZM20.4803 7.20142C20.3425 7.2561 20.0823 7.43005 19.895 7.60992L20.7944 7.11368C20.7037 7.11142 20.6442 7.13542 20.5324 7.18053C20.5162 7.18706 20.499 7.19402 20.4803 7.20142ZM20.4689 7.20932C20.4677 7.20969 20.4663 7.21017 20.4649 7.21083L20.4689 7.20932ZM20.4689 7.20932C20.4835 7.20517 20.4936 7.21761 20.5059 7.23293C20.5272 7.25935 20.5555 7.29436 20.626 7.26788C20.6776 7.24844 20.6811 7.20084 20.6838 7.16519C20.6852 7.14627 20.6863 7.13072 20.6943 7.12454L20.4689 7.20932ZM20.7017 7.12175C20.6987 7.12202 20.6963 7.12299 20.6943 7.12454L20.7017 7.12175ZM20.8306 7.40132C20.7676 7.43404 20.7267 7.48186 20.6951 7.53732L20.8306 7.40132ZM19.8643 7.83522C19.8402 7.91797 19.8353 8.02533 19.8402 8.09346L19.8643 7.83522ZM19.8546 8.23006C19.8353 8.31281 19.8546 8.49329 19.874 8.57121L19.8546 8.23006ZM19.9078 8.75652C19.927 8.81198 19.9899 8.8774 20.0237 8.9126L19.9078 8.75652ZM20.014 8.35686C20.0134 8.36469 20.0131 8.37297 20.0131 8.38167C20.0131 8.5081 20.0764 8.71767 20.1397 8.79074C20.1541 8.90274 20.2314 9.09784 20.3765 9.24408L20.014 8.35686ZM19.9803 8.0107C19.9707 8.06438 19.9755 8.14714 19.9851 8.21544L19.9803 8.0107ZM20.1687 7.52313C20.1297 7.62152 20.1127 7.78951 20.1127 7.88666C20.1127 7.90996 20.1136 7.92918 20.1155 7.9424C20.1163 7.94792 20.1166 7.95399 20.1166 7.9606C20.1166 7.97765 20.1144 7.99829 20.1118 8.02248C20.1081 8.05672 20.1036 8.09807 20.1036 8.14641C20.1036 8.21425 20.1124 8.29587 20.1445 8.39091L20.1687 7.52313ZM20.3185 7.63049C20.2702 7.83023 20.275 8.196 20.3185 8.34222L20.3185 7.63049ZM20.2604 8.40555C20.2362 8.51273 20.2362 8.64452 20.2702 8.7467L20.2604 8.40555ZM20.4488 7.70343C20.444 7.85466 20.5117 8.0692 20.647 8.22025L20.4488 7.70343ZM20.415 8.23987C20.4107 8.2939 20.4086 8.34706 20.4086 8.39766C20.4086 8.51587 20.4203 8.62001 20.444 8.6882C20.4778 8.78575 20.4731 8.98567 20.5552 9.10266L20.415 8.23987ZM20.5811 8.51489C20.5805 8.51254 20.5799 8.51021 20.5793 8.5079L20.5938 8.76132C20.6051 8.73537 20.6094 8.7067 20.6094 8.67731C20.6094 8.62122 20.5938 8.5625 20.5811 8.51489ZM20.7581 8.69319C20.7629 8.6347 20.7435 8.49329 20.7049 8.36649L20.7581 8.69319ZM20.7629 9.01492C20.7726 9.1221 20.816 9.24408 20.8547 9.31221L20.7629 9.01492ZM20.6035 9.30739C20.6374 9.40976 20.7049 9.54636 20.7726 9.59987L20.6035 9.30739ZM21.1978 9.64873C21.1688 9.56099 21.1396 9.47324 21.0576 9.35625L21.1978 9.64873Z" clip-rule="evenodd" fill="" fill-opacity="1.000000" fill-rule="evenodd"/>
		</mask>
		<path id="Stroke 17" d="" fill="#000000" fill-opacity="0.000000" fill-rule="nonzero"/>
		<mask id="mask_17_4020" fill="white">
			<path id="Stroke 18" d="M20.3072 9.38344C20.2944 9.38281 20.2805 9.38211 20.2653 9.38049L20.517 9.59727C20.5991 9.72331 20.728 9.86649 20.7968 9.89731C20.8837 9.93637 21.0479 10.0191 21.0721 10.1605C21.0732 10.158 21.0743 10.1555 21.0754 10.1529C21.0834 10.1353 21.0915 10.1171 21.0991 10.0985L21.3083 10.2787C21.3148 10.3789 21.3229 10.4841 21.3361 10.5457L21.3123 10.2821L21.5391 10.4774C21.4811 10.4141 21.4055 10.2971 21.3861 10.2044C21.3668 10.1118 21.2315 9.97525 21.1107 9.82419C21.1568 9.92493 21.1328 10.0163 21.0991 10.0985L20.517 9.59727C20.4951 9.56363 20.4766 9.5312 20.4633 9.50247C20.4109 9.38861 20.3719 9.38667 20.3072 9.38344ZM21.2996 10.1416C21.3024 10.1824 21.3052 10.23 21.3083 10.2787L21.3123 10.2821L21.2996 10.1416ZM21.2996 10.1416C21.2969 10.1027 21.2942 10.07 21.2911 10.0484L21.2996 10.1416ZM20.4246 9.71375C20.4601 9.82092 20.4923 9.9608 20.4955 10.0453L20.4246 9.71375ZM20.7789 9.88922C20.9174 10.133 20.9593 10.4287 20.9207 10.5717L20.7789 9.88922ZM20.7499 10.276C20.7467 10.2142 20.7081 10.0484 20.6663 9.93155L20.7499 10.276ZM21.1235 10.2336C21.1557 10.3116 21.1751 10.432 21.1688 10.5034L21.1235 10.2336ZM20.5535 10.4709C20.5986 10.4613 20.6791 10.4028 20.7177 10.3604C20.7726 10.3897 20.882 10.4449 20.9013 10.5652L20.5535 10.4709Z" clip-rule="evenodd" fill="" fill-opacity="1.000000" fill-rule="evenodd"/>
		</mask>
		<path id="Stroke 18" d="" fill="#000000" fill-opacity="0.000000" fill-rule="nonzero"/>
		<path id="Fill 19" d="M19.87 11.49C19.88 11.43 19.89 11.36 19.94 11.31C19.99 11.27 20.02 11.23 20.07 11.27C20.11 11.32 20.08 11.36 20.02 11.38C19.96 11.4 19.92 11.45 19.91 11.49C19.9 11.53 19.87 11.55 19.87 11.49Z" fill="#000000" fill-opacity="1.000000" fill-rule="evenodd"/>
		<path id="Fill 20" d="M20.22 11.79C20.19 11.69 20.21 11.55 20.24 11.52C20.28 11.48 20.32 11.45 20.36 11.49C20.41 11.53 20.42 11.58 20.35 11.62C20.28 11.65 20.27 11.72 20.27 11.77C20.27 11.82 20.24 11.85 20.22 11.79Z" fill="#000000" fill-opacity="1.000000" fill-rule="evenodd"/>
		<path id="Fill 21" d="M20.67 11.53C20.65 11.57 20.68 11.74 20.76 11.78C20.82 11.81 20.85 11.8 20.82 11.75C20.78 11.69 20.79 11.64 20.81 11.61C20.83 11.58 20.83 11.53 20.79 11.5C20.75 11.48 20.69 11.49 20.67 11.53Z" fill="#000000" fill-opacity="1.000000" fill-rule="evenodd"/>
		<path id="Fill 22" d="M21.04 11.37C20.99 11.33 20.94 11.38 20.92 11.41C20.88 11.48 20.91 11.58 20.97 11.64C21.03 11.69 21.02 11.62 21 11.58C20.98 11.55 20.98 11.49 21.02 11.48C21.06 11.47 21.09 11.41 21.04 11.37Z" fill="#000000" fill-opacity="1.000000" fill-rule="evenodd"/>
		<path id="Fill 23" d="M21.34 11.48C21.29 11.47 21.24 11.52 21.24 11.59C21.25 11.64 21.25 11.7 21.3 11.73C21.33 11.75 21.36 11.77 21.34 11.71C21.32 11.65 21.35 11.6 21.38 11.58C21.41 11.57 21.4 11.5 21.34 11.48Z" fill="#000000" fill-opacity="1.000000" fill-rule="evenodd"/>
		<path id="Fill 24" d="M21.77 11.21C21.73 11.23 21.73 11.29 21.77 11.32C21.8 11.34 21.86 11.37 21.85 11.43C21.84 11.48 21.87 11.5 21.89 11.44C21.92 11.38 21.92 11.29 21.89 11.25C21.86 11.2 21.8 11.18 21.77 11.21Z" fill="#000000" fill-opacity="1.000000" fill-rule="evenodd"/>
		<path id="Shape" d="M21.0139 7.47328C20.9269 7.47574 20.8627 7.44644 20.8403 7.39685C20.9774 7.32761 21.0739 7.34038 21.2002 7.45302L21.2177 7.44786C21.2422 7.35881 21.2191 7.2569 21.1621 7.19412C21.1485 7.17914 21.1351 7.16747 21.1214 7.15846C21.0901 7.13797 21.0642 7.13245 21.0024 7.12828C20.9943 7.12773 20.9943 7.12773 20.9859 7.12717C20.9597 7.12543 20.9346 7.12207 20.8954 7.11568C20.8268 7.10451 20.8151 7.10287 20.7918 7.10287C20.7391 6.97142 20.6331 6.97855 20.3694 7.07758C20.0912 7.18195 19.8397 7.37187 19.7263 7.56319C19.7113 7.58835 19.6993 7.61049 19.6883 7.63283C19.682 7.64548 19.6643 7.68324 19.6644 7.68326L19.6645 7.68298C19.66 7.69238 19.66 7.69238 19.6553 7.70152C19.6498 7.71216 19.6442 7.72186 19.6378 7.73181L19.6481 7.74829C19.657 7.74716 19.657 7.74716 19.6635 7.7462C19.668 7.74545 19.6714 7.74466 19.6746 7.74355C19.6737 7.75319 19.6727 7.76416 19.6711 7.7809C19.6434 8.07504 19.6406 8.16933 19.6703 8.26723C19.6263 8.43051 19.6498 8.56029 19.7213 8.63243C19.7897 8.70125 19.8019 8.7198 19.8102 8.7776C19.8207 8.85164 19.8524 8.91566 19.901 8.95496C19.9424 8.98837 19.974 9.04254 19.9792 9.07986C19.9844 9.11682 20.133 9.26515 20.2017 9.30692C20.2095 9.31161 20.2153 9.31836 20.2225 9.3307C20.2248 9.33463 20.234 9.35147 20.2365 9.35567C20.2429 9.36707 20.2493 9.37691 20.2568 9.38693C20.228 9.53633 20.247 9.66254 20.3194 9.94267C20.3901 10.2166 20.4088 10.3364 20.3851 10.4855C20.4402 10.503 20.4996 10.4977 20.5578 10.483C20.6049 10.8644 20.5873 10.9398 20.3584 11.0181C20.2139 11.0677 20.1136 11.1135 20.0541 11.1595C19.9864 11.2117 19.9697 11.2666 20.0102 11.3223C20.0613 11.3926 20.1625 11.3579 20.258 11.2702C20.3143 11.2187 20.3745 11.1786 20.4181 11.1654C20.4568 11.1537 20.46 11.1593 20.4388 11.2145C20.4303 11.2368 20.4207 11.251 20.3622 11.3318C20.3558 11.3407 20.3558 11.3407 20.3494 11.3496C20.3033 11.4144 20.2809 11.4545 20.2786 11.4858C20.2726 11.5712 20.3481 11.6128 20.4398 11.5592C20.5251 11.5093 20.6132 11.3748 20.6379 11.2747C20.6419 11.2585 20.6468 11.2441 20.6509 11.2345C20.6515 11.2434 20.6514 11.2558 20.6506 11.2715C20.6498 11.2886 20.6486 11.2989 20.6424 11.3439C20.6396 11.3646 20.6379 11.3778 20.6365 11.3916C20.6253 11.5031 20.6464 11.5668 20.7267 11.5849C20.858 11.6143 20.9153 11.4665 20.8649 11.303C20.8198 11.1564 20.8088 11.0854 20.8259 11.0421C20.8472 10.9884 20.8636 10.9741 20.8998 10.9849C20.9694 11.006 21.0585 10.9676 21.0538 10.8912C21.0479 10.799 20.9678 10.7397 20.888 10.7849C20.851 10.806 20.8204 10.8138 20.8049 10.8075C20.7906 10.8016 20.7875 10.7802 20.8019 10.7394C20.8085 10.7208 20.8149 10.7047 20.83 10.6687L20.8301 10.6685C20.8541 10.6111 20.8661 10.5798 20.8716 10.5542C20.9528 10.6194 21.2082 10.6247 21.3303 10.5622C21.3337 10.5777 21.3378 10.5941 21.3443 10.6193C21.3761 10.7417 21.3803 10.7896 21.3514 10.852C21.3354 10.8865 21.3084 10.9194 21.2683 10.9518C21.0619 11.1183 20.9602 11.2345 20.9647 11.3263C20.9706 11.4415 21.0223 11.4921 21.1111 11.4423C21.1953 11.3952 21.2538 11.3267 21.2755 11.2558C21.2831 11.231 21.2942 11.2169 21.2972 11.2174C21.299 11.2178 21.3011 11.2346 21.2936 11.2647C21.2909 11.2755 21.2803 11.3166 21.2787 11.3229C21.2731 11.3451 21.2688 11.3632 21.2651 11.3806C21.2514 11.444 21.2472 11.4918 21.2548 11.5279C21.2715 11.6059 21.3899 11.6123 21.4384 11.5414C21.4766 11.4858 21.4791 11.4323 21.4644 11.3057L21.4643 11.3049C21.4556 11.23 21.4673 11.1422 21.4872 11.1067C21.4989 11.0861 21.511 11.0722 21.5219 11.0691C21.5345 11.0655 21.5489 11.0776 21.5646 11.1154C21.5699 11.1278 21.5875 11.1718 21.5914 11.1811C21.6238 11.2586 21.652 11.2943 21.7066 11.3116C21.7958 11.3398 21.8562 11.2936 21.8412 11.1973C21.8278 11.1116 21.744 11.0129 21.6198 10.9174C21.5724 10.881 21.5542 10.8534 21.5521 10.8227C21.5512 10.8101 21.5521 10.8022 21.5566 10.7734C21.559 10.7578 21.5603 10.7479 21.561 10.7365C21.563 10.7065 21.562 10.6657 21.5586 10.6145C21.5573 10.5941 21.5555 10.5727 21.5534 10.5486C21.5526 10.5385 21.5502 10.5134 21.5485 10.4943C21.5566 10.4994 21.565 10.5041 21.5735 10.5084C21.6313 10.5371 21.6815 10.5435 21.7595 10.5421C21.7691 10.5419 21.7691 10.5419 21.7773 10.5418C21.8102 10.5418 21.8397 10.5361 21.8561 10.5229C21.8809 10.5029 21.8731 10.4723 21.8329 10.4354C21.7604 10.3689 21.7365 10.3279 21.7012 10.2338C21.6909 10.2066 21.6846 10.1914 21.676 10.1746C21.6609 10.1453 21.6421 10.1197 21.6157 10.0943C21.5037 9.98611 21.405 9.82155 21.3724 9.68523C21.3152 9.44722 21.236 9.25784 21.113 9.14825C21.0386 9.08203 21.0092 8.89632 21.0296 8.65501C21.0574 8.32291 21.0205 8.14645 20.8406 8.04515C20.6595 7.94322 20.6329 7.85861 20.709 7.74358C20.7935 7.61551 20.8741 7.54463 20.9665 7.53864C21.0172 7.53551 21.0571 7.52858 21.0784 7.51303C21.0582 7.48007 21.0416 7.47267 21.0139 7.47328L21.0139 7.47328ZM21.0145 7.49478L21.0144 7.49478C20.9197 7.49744 20.8473 7.4644 20.8251 7.392C20.9697 7.30716 21.0741 7.31746 21.201 7.42525C21.1999 7.43092 21.1985 7.43654 21.197 7.44211L21.2145 7.43695C21.21 7.43292 21.2054 7.42903 21.201 7.42525C21.2166 7.34749 21.1948 7.26198 21.1463 7.20862C21.1339 7.19492 21.1218 7.18443 21.1097 7.17648C21.0823 7.15858 21.0593 7.15367 21.001 7.14973C20.9929 7.14919 20.9929 7.14919 20.9844 7.14862C20.9575 7.14682 20.9318 7.1434 20.892 7.1369C20.8251 7.12601 20.8134 7.12437 20.782 7.11809C20.7268 6.99628 20.6296 7.00281 20.3769 7.09772C20.103 7.20049 19.8555 7.38745 19.7447 7.57417C19.73 7.59888 19.7183 7.62053 19.7075 7.64241C19.7014 7.65483 19.6837 7.6925 19.6837 7.69252L19.6838 7.69226C19.6791 7.7019 19.6791 7.7019 19.6743 7.71146C19.6722 7.71542 19.6702 7.71927 19.6681 7.72304C19.6661 7.7238 19.6638 7.72435 19.66 7.72498C19.6543 7.72585 19.6543 7.72585 19.6455 7.72696L19.6558 7.74345C19.6602 7.73665 19.6642 7.72995 19.6681 7.72304L19.6693 7.72255C19.6714 7.72156 19.6734 7.7204 19.6816 7.71536L19.6978 7.72552C19.6962 7.74258 19.6951 7.75439 19.6924 7.78293C19.665 8.07336 19.6623 8.16701 19.691 8.2668C19.6487 8.42911 19.671 8.55106 19.7365 8.61726C19.8079 8.68907 19.8223 8.71101 19.8314 8.77458C19.8411 8.84357 19.8704 8.90263 19.9144 8.9382C19.96 8.97498 19.9944 9.03403 20.0005 9.07686C20.0045 9.10532 20.1493 9.24992 20.2127 9.28848C20.2242 9.29533 20.2321 9.30463 20.241 9.31982C20.2435 9.32405 20.2527 9.34103 20.255 9.34496C20.2611 9.35565 20.267 9.36476 20.2759 9.38228C20.2498 9.5359 20.2686 9.66008 20.3401 9.93729C20.4117 10.2141 20.4305 10.3358 20.3968 10.4765C20.4365 10.4809 20.4879 10.477 20.5497 10.4722C20.555 10.4718 20.5604 10.4714 20.5658 10.4709C20.6275 10.8704 20.6077 10.9555 20.3653 11.0385C20.2229 11.0873 20.1243 11.1324 20.0671 11.1765C20.0078 11.2223 19.9949 11.2647 20.0275 11.3096C20.0676 11.3648 20.1566 11.3343 20.2435 11.2543C20.302 11.2008 20.3646 11.1591 20.4119 11.1448C20.4712 11.1269 20.4855 11.1526 20.4588 11.2222C20.4493 11.2472 20.4401 11.2608 20.3796 11.3445C20.3732 11.3533 20.3732 11.3533 20.3669 11.3622C20.3234 11.4232 20.3019 11.4616 20.3 11.4874C20.2953 11.5547 20.3516 11.5858 20.429 11.5406C20.5089 11.4939 20.5937 11.3644 20.6172 11.2695C20.6253 11.2365 20.6355 11.2115 20.6458 11.2046C20.6584 11.1962 20.6677 11.2056 20.6707 11.2206C20.6728 11.2313 20.6733 11.2485 20.6721 11.2726C20.6711 11.2906 20.6699 11.301 20.6636 11.3469C20.6609 11.3672 20.6592 11.3802 20.6579 11.3937C20.6476 11.4957 20.6652 11.549 20.7314 11.5639C20.841 11.5884 20.8908 11.4598 20.8445 11.3093C20.7978 11.1578 20.7864 11.0838 20.806 11.0341C20.8309 10.9714 20.8562 10.9494 20.9059 10.9643C20.9634 10.9817 21.0359 10.9503 21.0324 10.8925C21.0275 10.8148 20.9631 10.7671 20.8986 10.8037C20.8563 10.8277 20.8202 10.8369 20.7969 10.8274C20.7687 10.8159 20.764 10.7824 20.7817 10.7322C20.7885 10.713 20.795 10.6967 20.8103 10.6604L20.8104 10.6601C20.8405 10.5881 20.8511 10.5583 20.8536 10.5301L20.8732 10.525C20.9226 10.5976 21.216 10.6068 21.3323 10.5365L21.3483 10.5436C21.3523 10.5636 21.3566 10.5813 21.3651 10.6139C21.3981 10.7411 21.4026 10.7925 21.3708 10.8611C21.3533 10.8987 21.3243 10.9342 21.2817 10.9685C21.0815 11.13 20.9821 11.2437 20.9861 11.3252C20.9913 11.4268 21.029 11.4637 21.1006 11.4236C21.1802 11.379 21.235 11.3148 21.2551 11.2495C21.2655 11.2151 21.283 11.1929 21.3011 11.1963C21.3212 11.2001 21.3246 11.2285 21.3144 11.2699C21.3117 11.2809 21.3011 11.322 21.2995 11.3282C21.2939 11.3502 21.2897 11.368 21.286 11.3852C21.2729 11.4458 21.2689 11.4911 21.2758 11.5234C21.288 11.5809 21.3819 11.586 21.4207 11.5292C21.4548 11.4796 21.4572 11.4295 21.4431 11.3082L21.4431 11.3074C21.4339 11.2284 21.4461 11.1361 21.4686 11.0961C21.483 11.0707 21.4979 11.0536 21.516 11.0484C21.5419 11.041 21.5649 11.0605 21.5844 11.1071C21.5897 11.1197 21.6074 11.1636 21.6112 11.1728C21.6414 11.245 21.666 11.2762 21.713 11.2911C21.7877 11.3147 21.8325 11.2805 21.8201 11.2007C21.8077 11.1221 21.7268 11.0268 21.6068 10.9345C21.5549 10.8946 21.5333 10.8619 21.5307 10.8242C21.5297 10.8093 21.5306 10.8007 21.5355 10.7701C21.5378 10.7551 21.539 10.7457 21.5397 10.7351C21.5416 10.7063 21.5406 10.6662 21.5372 10.6159C21.5359 10.5957 21.5342 10.5744 21.5321 10.5504C21.5307 10.5348 21.5259 10.4829 21.5251 10.4735L21.5422 10.464C21.5552 10.4737 21.5689 10.482 21.5831 10.4891C21.637 10.5159 21.6843 10.522 21.7591 10.5206C21.7687 10.5204 21.7687 10.5204 21.7773 10.5203C21.8056 10.5203 21.8312 10.5153 21.8427 10.5061C21.8544 10.4967 21.8503 10.4805 21.8185 10.4513C21.743 10.3821 21.7176 10.3383 21.6812 10.2414C21.6712 10.2149 21.6651 10.2003 21.6569 10.1844C21.6429 10.1572 21.6255 10.1335 21.6009 10.1098C21.486 9.99887 21.3851 9.83073 21.3516 9.69026C21.2954 9.45638 21.2175 9.27008 21.0988 9.16434C21.0176 9.09206 20.9873 8.90092 21.0082 8.6532C21.0354 8.32903 20.9999 8.15955 20.8301 8.0639C20.6387 7.95616 20.6078 7.85774 20.6912 7.73169C20.7791 7.59848 20.8641 7.52374 20.9651 7.51718C20.9797 7.51628 20.9934 7.515 21.0059 7.51384C21.033 7.51132 21.0544 7.50934 21.0656 7.51286C21.0487 7.49983 21.0363 7.49431 21.0145 7.49478Z" clip-rule="evenodd" fill="#000000" fill-opacity="1.000000" fill-rule="evenodd"/>
		<path id="Shape" d="M19.402 7.95984C19.5672 7.96567 19.6273 7.97308 19.6691 8.0018L19.6737 8.01123C19.668 8.12154 19.6727 8.20091 19.691 8.2668C19.6488 8.42912 19.671 8.55107 19.7366 8.61728C19.8079 8.68909 19.8224 8.71101 19.8315 8.77458C19.8412 8.84358 19.8705 8.90263 19.9146 8.93822C19.96 8.97499 19.9945 9.03404 20.0005 9.07687C20.0045 9.10533 20.1494 9.24992 20.2128 9.28848C20.2242 9.29535 20.2322 9.30464 20.241 9.31984C20.2435 9.32407 20.2528 9.34105 20.2551 9.34497C20.2612 9.35565 20.267 9.36476 20.2759 9.38229C20.2534 9.51489 20.2677 9.64737 20.3113 9.85033C20.1497 9.98566 19.9751 10.0375 19.8517 9.99852C19.7398 9.96315 19.6958 9.86079 19.7422 9.73326C19.6107 9.82619 19.436 9.88042 19.2886 9.87959C19.1368 9.87875 19.0511 9.81808 19.0851 9.7186C18.7184 9.84172 18.5144 9.77199 18.5646 9.60208C18.2612 9.71527 18.0096 9.63675 18.0494 9.50194C17.7889 9.56879 17.5621 9.54518 17.5168 9.47234C17.4887 9.42673 17.5325 9.33456 17.599 9.26474C17.4838 9.29855 17.3665 9.30228 17.2345 9.28238C17.1723 9.2729 17.1415 9.2583 17.1332 9.2334C17.127 9.2144 17.1289 9.20866 17.1525 9.15685C17.154 9.15356 17.154 9.15356 17.1555 9.15022L17.1763 9.1028C17.1857 9.08226 17.1949 9.06401 17.2053 9.04582C17.229 9.00439 17.2575 8.96625 17.2936 8.93008C16.9922 8.98648 16.7351 8.99423 16.5516 8.93236C16.5473 8.93092 16.5287 8.92502 16.5241 8.92349C16.4985 8.91499 16.4827 8.90756 16.4727 8.89708C16.4576 8.88132 16.4599 8.86159 16.4797 8.84163C16.5383 8.78256 16.642 8.70667 16.7521 8.65013C16.2291 8.71907 15.7285 8.689 15.571 8.51018L15.5812 8.49252C15.728 8.52281 15.9167 8.48532 16.1207 8.40625C15.4528 8.31706 14.7125 7.88211 14.7035 7.50392L14.7233 7.49802C14.8588 7.71809 15.0396 7.82281 15.412 7.93777C15.0896 7.72925 14.9036 7.47015 14.8873 7.25571L14.9054 7.24715C15.1688 7.50211 15.4825 7.70117 15.7707 7.76834C15.532 7.6131 15.2496 7.26169 15.1679 7.00961L15.1852 6.99828C15.3672 7.16205 15.7896 7.39337 16.0823 7.48364C15.8157 7.25978 15.5521 6.89806 15.5684 6.70807L15.5867 6.70142C15.6885 6.80424 15.9222 6.96939 16.2849 7.1823C16.5097 7.31415 16.6809 7.37469 16.9065 7.41637C16.9384 7.42227 16.9693 7.42752 17.0179 7.43549C17.1378 7.45514 17.182 7.46269 17.2388 7.4744C17.1862 7.39838 17.1343 7.2991 17.129 7.26645L17.1411 7.25404C17.2538 7.27029 17.3616 7.32063 17.6331 7.48953C17.764 7.571 17.924 7.61887 18.312 7.70917L18.33 7.71333C18.6432 7.78624 18.7824 7.82462 18.917 7.88383C18.9872 7.91476 19.0692 7.9341 19.1669 7.94536C19.2331 7.95299 19.2809 7.95557 19.402 7.95984ZM15.5897 6.70992C15.5891 6.71761 15.5889 6.72562 15.5892 6.73392C15.5829 6.72795 15.577 6.72218 15.5715 6.71657L15.5897 6.70992ZM17.1544 7.27795C17.1701 7.32193 17.2231 7.41827 17.2721 7.48416L17.2613 7.5011C17.1897 7.48584 17.1522 7.47928 17.0145 7.45671C16.9657 7.44873 16.9348 7.44345 16.9026 7.43752C16.6747 7.39542 16.5012 7.33405 16.2741 7.20085C15.9294 6.99857 15.7004 6.83896 15.5892 6.73392C15.5968 6.93074 15.8732 7.29332 16.1365 7.50002L16.1271 7.51888C15.846 7.44464 15.4117 7.21434 15.2018 7.04085C15.1968 7.02798 15.1923 7.01535 15.1883 7.00296L15.171 7.0143C15.1806 7.02296 15.1909 7.03183 15.2018 7.04085C15.304 7.30438 15.6034 7.65796 15.8354 7.78183L15.8286 7.80193C15.5269 7.75105 15.1927 7.54898 14.9119 7.28308C14.9105 7.27332 14.9094 7.26364 14.9086 7.25407L14.8906 7.26263C14.8976 7.26949 14.9047 7.27631 14.9119 7.28308C14.9437 7.49933 15.1485 7.75969 15.4927 7.96234L15.4843 7.98193C15.0764 7.86243 14.8754 7.76154 14.7292 7.54668C14.7267 7.53217 14.7253 7.51773 14.7249 7.5034L14.7051 7.50931C14.713 7.52214 14.721 7.53459 14.7292 7.54668C14.7924 7.90842 15.5217 8.31786 16.1648 8.39001L16.1677 8.41064C15.9606 8.49544 15.7668 8.54045 15.6108 8.51936C15.6022 8.51187 15.5942 8.50406 15.5871 8.49594L15.5769 8.5136C15.588 8.51588 15.5993 8.51781 15.6108 8.51936C15.7932 8.6767 16.3039 8.69536 16.8192 8.61905L16.825 8.63957C16.6948 8.69534 16.563 8.78821 16.4949 8.8568C16.4827 8.86909 16.4819 8.87567 16.4882 8.88219C16.4949 8.88927 16.5085 8.89566 16.5308 8.90308C16.5353 8.90454 16.5539 8.91045 16.5584 8.91196C16.7448 8.97481 17.0122 8.96397 17.3259 8.90198L17.3351 8.92059C17.3285 8.92642 17.3285 8.92642 17.3223 8.93225C17.2501 8.99997 17.2297 9.0354 17.1751 9.15892C17.1735 9.1624 17.1735 9.1624 17.172 9.1658C17.152 9.20966 17.15 9.21568 17.1536 9.22661C17.1584 9.24113 17.183 9.25278 17.2377 9.26111C17.3842 9.28322 17.5117 9.27556 17.6384 9.22913L17.6488 9.24754C17.5709 9.31175 17.51 9.42036 17.5351 9.46098C17.5748 9.52495 17.8035 9.547 18.0643 9.47574L18.0768 9.49091C18.0153 9.61484 18.2645 9.69939 18.5785 9.57367L18.5924 9.58771C18.5255 9.75272 18.7177 9.82497 19.1008 9.69051L19.1139 9.70544C19.0673 9.79955 19.1389 9.85727 19.2887 9.85809C19.4437 9.85895 19.6308 9.79675 19.761 9.69225L19.7774 9.70535C19.7127 9.83878 19.7488 9.94344 19.8581 9.97801C19.9738 10.0146 20.1411 9.96484 20.2941 9.84465C20.2463 9.64989 20.2316 9.51483 20.2568 9.38695C20.2493 9.37692 20.243 9.36708 20.2365 9.35567C20.2341 9.35149 20.2249 9.33463 20.2226 9.33072C20.2153 9.31836 20.2096 9.31163 20.2017 9.30692C20.1331 9.26517 19.9845 9.11684 19.9793 9.07986C19.9741 9.04256 19.9424 8.98837 19.9011 8.95496C19.8524 8.91566 19.8207 8.85165 19.8103 8.77762C19.802 8.71982 19.7898 8.70126 19.7214 8.63245C19.6499 8.56029 19.6263 8.43051 19.6704 8.26723C19.6516 8.2054 19.6467 8.12572 19.652 8.01633C19.6537 8.01736 19.6553 8.01843 19.6569 8.01955L19.6523 8.01012L19.652 8.01633C19.6149 7.99365 19.5538 7.98672 19.4012 7.98134C19.2796 7.97704 19.2314 7.97444 19.1645 7.96672C19.0648 7.95523 18.9808 7.93542 18.9083 7.90353C18.7755 7.84505 18.637 7.80687 18.3251 7.73428L18.3072 7.73012C17.9164 7.63919 17.7555 7.59105 17.6218 7.50781C17.3661 7.34875 17.258 7.29626 17.1544 7.27795ZM17.1544 7.27795C17.1489 7.27699 17.1435 7.27612 17.1381 7.27534L17.1501 7.26294C17.1508 7.2668 17.1522 7.27188 17.1544 7.27795Z" clip-rule="evenodd" fill="#000000" fill-opacity="1.000000" fill-rule="evenodd"/>
		<path id="Shape" d="M20.9325 8.1188C21.009 8.20398 21.0381 8.31364 21.0381 8.47786C21.0381 8.53088 21.0352 8.5896 21.0297 8.65501C21.0254 8.70496 21.0233 8.75252 21.0233 8.79712C21.0233 8.96808 21.054 9.09575 21.113 9.14825C21.236 9.25786 21.3153 9.44724 21.3724 9.68523C21.405 9.82156 21.5037 9.98611 21.6158 10.0943C21.6421 10.1197 21.6609 10.1453 21.676 10.1746C21.6847 10.1914 21.691 10.2066 21.7012 10.2338C21.7366 10.3279 21.7604 10.3689 21.8329 10.4354C21.8578 10.4582 21.8704 10.4787 21.8704 10.4957C21.8704 10.5013 21.869 10.5065 21.8663 10.5113C21.9963 10.5763 22.1657 10.4706 22.1676 10.3724L22.1856 10.3647C22.3597 10.5254 22.5762 10.5122 22.6295 10.3282L22.6456 10.3221C22.7842 10.4121 23.0276 10.422 23.0925 10.3344C23.1168 10.3018 23.1306 10.2711 23.1306 10.2393C23.1306 10.1539 23.0311 10.0604 22.7672 9.89995L22.7754 9.88036C22.8885 9.91005 22.9796 9.8546 22.989 9.75963L23.0055 9.75166C23.1304 9.83284 23.236 9.84938 23.384 9.81847C23.4474 9.80524 23.4783 9.77351 23.4783 9.72664C23.4783 9.68375 23.4525 9.62819 23.4019 9.56253L23.4157 9.54662C23.5428 9.61935 23.6812 9.659 23.7753 9.64958C23.848 9.6423 23.8875 9.60756 23.8875 9.54466C23.8875 9.52173 23.8822 9.49506 23.8714 9.4646L23.8837 9.45047C24.0323 9.48157 24.1502 9.47667 24.184 9.42354C24.1909 9.41266 24.1943 9.40028 24.1943 9.38647C24.1943 9.31924 24.1119 9.21811 23.9449 9.09177L23.9503 9.07249C24.0027 9.06668 24.0338 9.05905 24.0707 9.04262C24.2698 9.14319 24.7001 9.22345 24.9009 9.20889C25.0397 9.19896 25.1008 9.14319 25.1008 9.02533C25.1008 9.00053 25.0981 8.97299 25.0928 8.94257C25.5236 8.8588 25.92 8.72293 26.1824 8.52898C26.2108 8.50798 26.2236 8.49849 26.2397 8.48604C26.2628 8.46831 26.2824 8.45242 26.2996 8.43735C26.326 8.41406 26.3458 8.39333 26.3583 8.37544C26.1374 8.49887 25.7514 8.61325 25.0909 8.77501L25.085 8.75433C25.6715 8.56151 26.5795 7.9743 26.6165 7.72327C26.4644 7.85622 26.2501 7.96201 25.892 8.10014C25.8621 8.11172 25.8312 8.12349 25.7911 8.13872C25.7409 8.15775 25.7128 8.16838 25.6913 8.17659L25.6821 8.15724C26.0429 7.9473 26.3337 7.63913 26.3636 7.40254C26.2637 7.52672 26.0985 7.62234 25.7807 7.76549C25.7767 7.76726 25.6648 7.81743 25.633 7.83189C25.5889 7.85188 25.5522 7.86899 25.5181 7.88547L25.5068 7.86736C25.6656 7.74127 25.7209 7.69641 25.8073 7.62111C25.97 7.47931 26.0941 7.35059 26.1775 7.22906C26.2515 7.12131 26.2904 7.02309 26.2904 6.93518C26.2904 6.92189 26.2896 6.90884 26.2877 6.89604C26.1722 7.07915 25.949 7.24699 25.5915 7.44916C25.5061 7.49744 25.2272 7.64853 25.1902 7.6691L25.178 7.65155C25.4059 7.45445 25.5342 7.28183 25.5471 7.06407C25.0596 7.42406 24.4614 7.68015 23.8348 7.83255L23.8267 7.8129C23.9794 7.72052 24.1394 7.54793 24.1865 7.42546C23.7274 7.72668 23.0445 7.92964 22.5447 7.96291C22.0925 7.99275 21.7998 8.03079 21.4461 8.11562C21.3787 8.04752 21.1799 8.05115 20.9325 8.1188ZM26.3583 8.37544C26.3688 8.36957 26.3789 8.36368 26.3887 8.35776L26.3727 8.34612C26.3707 8.3548 26.3658 8.36459 26.3583 8.37544ZM26.6165 7.72327C26.6228 7.71773 26.629 7.71214 26.6352 7.70651L26.6172 7.6996C26.6176 7.70233 26.6177 7.70511 26.6177 7.70795C26.6177 7.71289 26.6172 7.718 26.6165 7.72327ZM26.3636 7.40254C26.3713 7.39294 26.3786 7.38319 26.3856 7.37323L26.3661 7.36693C26.366 7.37859 26.3651 7.39047 26.3636 7.40254ZM26.2877 6.89604C26.2928 6.88805 26.2976 6.88002 26.3022 6.87195L26.2826 6.86916C26.2847 6.87801 26.2864 6.88696 26.2877 6.89604ZM25.5471 7.06407C25.5532 7.05963 25.5591 7.05516 25.5651 7.05069L25.548 7.04182C25.5479 7.04929 25.5475 7.05672 25.5471 7.06407ZM24.1865 7.42546C24.1951 7.41985 24.2036 7.41418 24.212 7.40848L24.1956 7.39697C24.1934 7.4061 24.1903 7.41562 24.1865 7.42546ZM20.9325 8.1188C20.9285 8.11435 20.9244 8.10997 20.9201 8.10565L20.9154 8.12355C20.9211 8.12193 20.9268 8.12035 20.9325 8.1188ZM21.8562 10.5228C21.8606 10.5193 21.864 10.5155 21.8663 10.5113C21.8625 10.5094 21.8587 10.5074 21.855 10.5051L21.8562 10.5228ZM21.8428 10.506L21.8441 10.5237C21.9809 10.6044 22.1629 10.5038 22.1865 10.3943C22.3642 10.5461 22.5827 10.5315 22.6459 10.3476C22.7943 10.436 23.0385 10.4433 23.1097 10.3472C23.1372 10.3103 23.1526 10.2755 23.1526 10.2397C23.1526 10.1513 23.0591 10.0568 22.8237 9.90958C22.9178 9.91408 22.9915 9.86169 23.0078 9.77861C23.1318 9.8553 23.2406 9.87039 23.3884 9.83952C23.4638 9.82379 23.4999 9.78448 23.4999 9.72881C23.4999 9.68915 23.4816 9.64116 23.4462 9.58749C23.5649 9.64799 23.6886 9.67987 23.7773 9.67097C23.8616 9.66254 23.9087 9.61871 23.9087 9.54453C23.9087 9.52374 23.905 9.50058 23.8974 9.47516C24.0465 9.50404 24.1628 9.4969 24.202 9.4351C24.2113 9.42055 24.2159 9.40437 24.2159 9.38667C24.2159 9.31288 24.1356 9.21249 23.9787 9.09056C24.0191 9.0847 24.0465 9.07648 24.0715 9.06143C24.2637 9.16418 24.6979 9.24516 24.9024 9.23033C25.0482 9.21991 25.1176 9.15842 25.1176 9.04399C25.1176 9.01604 25.1135 8.98492 25.1053 8.95062C25.5306 8.87935 25.9296 8.74261 26.1951 8.5463C26.2236 8.52522 26.2365 8.51569 26.2528 8.50311C26.2762 8.48512 26.2961 8.46895 26.3137 8.45352C26.3594 8.41327 26.3868 8.37982 26.3936 8.351L26.3776 8.33936C26.1849 8.45607 25.846 8.56342 25.2705 8.70828C25.868 8.46323 26.639 7.93958 26.639 7.70694C26.639 7.70377 26.6389 7.70064 26.6386 7.69756L26.6207 7.69066C26.4702 7.82918 26.2548 7.93712 25.8843 8.08008C25.8558 8.09108 25.8265 8.10226 25.7891 8.11647C26.1279 7.89557 26.3848 7.5963 26.3875 7.36719L26.368 7.36087C26.2739 7.49545 26.1105 7.59337 25.7719 7.74586C25.768 7.74762 25.656 7.79781 25.6241 7.8123C25.613 7.81734 25.6024 7.82219 25.5922 7.82689C25.6987 7.74193 25.7492 7.70024 25.8214 7.63734C25.9853 7.49446 26.1105 7.36456 26.1951 7.24126C26.2714 7.13031 26.3119 7.02811 26.3119 6.9353C26.3119 6.91087 26.3091 6.8871 26.3033 6.864L26.2837 6.86121C26.1755 7.04938 25.9508 7.22127 25.5809 7.43044C25.5203 7.46475 25.3611 7.55136 25.2613 7.60576C25.4573 7.42314 25.5646 7.25485 25.5695 7.04231L25.5523 7.03345C25.0798 7.38683 24.5001 7.64119 23.8906 7.79649C24.0424 7.68854 24.1877 7.51784 24.2164 7.40216L24.2 7.39066C23.7444 7.69891 23.0489 7.90779 22.5433 7.94144C22.0899 7.97137 21.796 8.00955 21.451 8.09763C21.3846 8.02301 21.1724 8.02856 20.9096 8.10286L20.9049 8.12076C20.9857 8.20287 21.0167 8.31096 21.0167 8.47855C21.0167 8.53067 21.0137 8.58856 21.0083 8.6532C21.004 8.7039 21.0018 8.75224 21.0018 8.79767C21.0018 8.9742 21.0342 9.10686 21.0988 9.16434C21.2175 9.27008 21.2954 9.45638 21.3516 9.69026C21.3852 9.83073 21.486 9.99887 21.6009 10.1098C21.6255 10.1335 21.6429 10.1573 21.657 10.1844C21.6652 10.2003 21.6712 10.2149 21.6812 10.2414C21.7176 10.3383 21.743 10.3821 21.8185 10.4513C21.8399 10.4709 21.8488 10.4846 21.8488 10.4944C21.8488 10.4991 21.8467 10.5029 21.8428 10.506ZM17.2499 7.49341C17.3201 7.59589 17.5079 7.74754 17.6199 7.77728L17.6292 7.75835L17.2652 7.47878L17.2499 7.49341ZM17.2675 7.48122L17.2521 7.49585L17.3334 7.55821C17.3065 7.53125 17.2837 7.50481 17.2675 7.48122ZM17.5491 7.72391L17.3334 7.55821C17.3949 7.62004 17.4774 7.68463 17.5491 7.72391ZM17.5491 7.72391L17.6161 7.77542L17.6254 7.75648C17.6028 7.75049 17.5767 7.73909 17.5491 7.72391ZM17.6086 7.71747C17.6083 7.72377 17.6082 7.73009 17.6082 7.73639C17.6082 7.89555 17.711 8.0528 17.8965 8.1087C18.0876 8.16626 18.2745 8.16362 18.4214 8.11832L18.4229 8.09837L17.624 7.70836L17.6086 7.71747ZM17.6301 7.71858L17.6147 7.72769L17.6296 7.73499C17.6296 7.72951 17.6298 7.72404 17.6301 7.71858ZM18.3883 8.10541L17.6296 7.73499L17.6296 7.73639C17.6296 7.88654 17.7267 8.0351 17.9027 8.0881C18.0781 8.14096 18.2498 8.14192 18.3883 8.10541ZM18.3883 8.10541L18.4135 8.11771L18.4151 8.09776C18.4063 8.10046 18.3974 8.10301 18.3883 8.10541ZM18.4117 8.09755C18.2021 8.14528 17.9732 8.27008 17.916 8.37595C17.8971 8.41086 17.8878 8.43985 17.8878 8.46416C17.8878 8.51295 17.9254 8.54283 17.9998 8.56364C18.3002 8.64813 18.6576 8.56871 18.9268 8.37363L18.9254 8.3553L18.4189 8.09845L18.4117 8.09755ZM18.4093 8.11765L18.4127 8.11938C18.414 8.11909 18.4152 8.11882 18.4165 8.11853L18.4093 8.11765ZM18.8998 8.36646L18.4127 8.11938C18.2096 8.1665 17.988 8.28769 17.9348 8.3862C17.9177 8.41776 17.9091 8.44287 17.9091 8.46338C17.9091 8.50243 17.9406 8.52473 18.0056 8.54294C18.294 8.62407 18.6375 8.55037 18.8998 8.36646ZM18.8998 8.36646L18.9156 8.3745L18.9142 8.35619C18.9095 8.35965 18.9047 8.36307 18.8998 8.36646ZM18.3962 8.06383C18.3879 8.23448 18.726 8.3584 19.1445 8.29088L19.1459 8.26994L18.4099 8.05402L18.3962 8.06383ZM18.4039 8.07466L18.4178 8.07877C18.4176 8.07582 18.4175 8.07288 18.4175 8.06992L18.4176 8.06487L18.4039 8.07466ZM19.0925 8.27667L18.4178 8.07877C18.4297 8.21771 18.7209 8.32414 19.0925 8.27667ZM19.0925 8.27667L19.1398 8.29057L19.1412 8.26964C19.1248 8.27228 19.1085 8.27463 19.0925 8.27667ZM18.7095 8.27399C18.6586 8.3015 18.6127 8.32443 18.5679 8.3437L18.7177 8.29443L18.7095 8.27399ZM18.3916 8.40169C18.4547 8.38705 18.5105 8.36836 18.5679 8.3437L18.3916 8.40169ZM18.3916 8.40169C18.3467 8.41209 18.2983 8.42047 18.2429 8.42747L18.2474 8.4491L18.3916 8.40169ZM18.7194 8.29372L18.7112 8.27327L18.241 8.42795L18.2455 8.44957C18.4424 8.42459 18.5549 8.38255 18.7194 8.29372ZM18.9039 8.29343C18.8501 8.46799 19.2271 8.55707 19.6607 8.45001L19.6602 8.42902L18.9162 8.28604L18.9039 8.29343ZM18.9122 8.30727L18.9221 8.3092C18.9227 8.30609 18.9235 8.30295 18.9244 8.29977L18.9122 8.30727ZM19.6062 8.44261L18.9221 8.3092C18.921 8.3147 18.9204 8.32011 18.9204 8.32542C18.9204 8.45419 19.2325 8.52405 19.6062 8.44261ZM19.6062 8.44261L19.6561 8.45236L19.6556 8.43105C19.639 8.4352 19.6226 8.43904 19.6062 8.44261ZM19.102 8.45952C18.9417 8.55324 18.7429 8.64664 18.5664 8.70235L18.574 8.7224L19.1118 8.47862L19.102 8.45952ZM19.1127 8.4781L19.103 8.45901L18.5652 8.7028L18.5728 8.72285C18.751 8.66661 18.9512 8.57256 19.1127 8.4781ZM18.3094 8.57976C18.2401 8.68216 18.2733 8.86273 18.4297 8.88258C18.7595 8.92427 19.266 8.71471 19.4951 8.4796L19.4864 8.46138L18.3173 8.5751L18.3094 8.57976ZM18.3193 8.59651L18.3244 8.59601C18.3253 8.5946 18.3262 8.59322 18.3271 8.59184L18.3193 8.59651ZM19.4583 8.48572L18.3244 8.59601C18.306 8.62511 18.2966 8.66074 18.2966 8.69638C18.2966 8.77295 18.3402 8.84955 18.4324 8.86125C18.7452 8.90077 19.2246 8.7076 19.4583 8.48572ZM19.4583 8.48572L19.4885 8.48279L19.4797 8.46457C19.4728 8.47165 19.4657 8.4787 19.4583 8.48572ZM18.7535 8.83392C18.7214 8.88861 18.7057 8.94293 18.7057 8.99245C18.7057 9.09984 18.7792 9.18456 18.9161 9.20103C19.1424 9.2283 19.5006 9.03406 19.7951 8.70029L19.7856 8.68251L18.7613 8.82875L18.7535 8.83392ZM18.7643 8.85004L18.7694 8.8493C18.7703 8.84782 18.7711 8.84634 18.772 8.84486L18.7643 8.85004ZM19.7594 8.70798L18.7694 8.8493C18.741 8.89912 18.7271 8.94798 18.7271 8.99228C18.7271 9.08946 18.7938 9.16466 18.9187 9.17969C19.1318 9.20537 19.473 9.0235 19.7594 8.70798ZM19.7594 8.70798L19.7886 8.70381L19.7791 8.68604C19.7725 8.69342 19.766 8.70073 19.7594 8.70798ZM19.6701 8.53282C19.6362 8.55414 19.6006 8.57739 19.556 8.60713C19.5342 8.62163 19.4552 8.6747 19.4389 8.68561C19.3784 8.72603 19.3246 8.76094 19.2753 8.7914L19.6813 8.55119L19.6701 8.53282ZM19.1798 8.84792C19.21 8.83093 19.2416 8.81221 19.2753 8.7914L19.1798 8.84792ZM19.1798 8.84792C19.1057 8.88953 19.0399 8.92067 18.9716 8.94632L18.9808 8.96565L19.1798 8.84792ZM19.6815 8.55106L19.6703 8.53267L18.9699 8.94713L18.9791 8.96646C19.118 8.91428 19.2465 8.84003 19.4507 8.70352C19.4671 8.69258 19.5461 8.63951 19.5678 8.62505C19.6123 8.5954 19.6478 8.57225 19.6815 8.55106ZM19.2275 9.11105C19.1738 9.18764 19.1473 9.2437 19.1473 9.29178C19.1473 9.32249 19.1581 9.34996 19.1795 9.37746C19.231 9.44344 19.3095 9.42291 19.4973 9.32164C19.5486 9.29404 19.6091 9.25487 19.6784 9.20518C19.7025 9.1879 19.7275 9.16942 19.7538 9.14969C19.7878 9.12396 19.8227 9.09698 19.8624 9.0658C19.8842 9.0486 19.9492 8.99704 19.9529 8.99408L19.9444 8.97507L19.2343 9.10667L19.2275 9.11105ZM19.2382 9.12782L19.2426 9.12703C19.2433 9.12584 19.2442 9.12463 19.2451 9.12344L19.2382 9.12782ZM19.9058 9.00409L19.2426 9.12703C19.1927 9.19853 19.1689 9.24893 19.1689 9.2912C19.1689 9.31767 19.1783 9.34094 19.1964 9.36421C19.2377 9.41713 19.31 9.39822 19.4872 9.30269C19.5376 9.27559 19.5974 9.23688 19.666 9.18768C19.6899 9.1705 19.7148 9.15213 19.7409 9.13249C19.7748 9.10687 19.8096 9.07999 19.8491 9.04887C19.8609 9.03961 19.8853 9.02034 19.9058 9.00409ZM19.9058 9.00409L19.9483 8.9962L19.9397 8.97719C19.938 8.97856 19.9233 8.99022 19.9058 9.00409ZM19.8439 8.8549C19.7076 8.94655 19.426 9.15924 19.3591 9.22665L19.3732 9.24278L19.8563 8.87238L19.8439 8.8549ZM19.8558 8.87276L19.8433 8.85529L19.3602 9.22569L19.3743 9.24182C19.4399 9.1757 19.7207 8.96365 19.8558 8.87276ZM19.7481 9.12323C19.731 9.16833 19.7228 9.20891 19.7228 9.2448C19.7228 9.33057 19.7693 9.38957 19.8509 9.4198C19.983 9.46912 20.1164 9.45404 20.2341 9.33951L20.2309 9.32193L19.7624 9.11719L19.7481 9.12323ZM19.7538 9.13692L19.7642 9.14146C19.7655 9.13797 19.7668 9.13445 19.7681 9.13089L19.7538 9.13692ZM20.2074 9.33511L19.7642 9.14146C19.7506 9.17999 19.7441 9.21442 19.7441 9.24483C19.7441 9.32147 19.7854 9.3726 19.8583 9.39964C19.9789 9.44466 20.0993 9.43311 20.2074 9.33511ZM20.2074 9.33511L20.2224 9.34164L20.2192 9.32407C20.2153 9.32787 20.2114 9.33154 20.2074 9.33511ZM19.1049 9.70741C19.2794 9.64034 19.6064 9.43451 19.7504 9.31566L19.738 9.29816L19.0955 9.68817L19.1049 9.70741ZM19.0972 9.68733L19.1066 9.70657L19.3347 9.56812C19.2459 9.61923 19.161 9.6628 19.0972 9.68733ZM19.4846 9.47708L19.3347 9.56812C19.3845 9.53946 19.4354 9.50844 19.4846 9.47708ZM19.4846 9.47708L19.7491 9.31656L19.7368 9.29906C19.6768 9.34854 19.5844 9.41351 19.4846 9.47708ZM19.8372 9.39732C19.7996 9.43532 19.743 9.47998 19.6775 9.52431L19.8506 9.41399L19.8372 9.39732ZM19.5911 9.57933C19.621 9.56139 19.65 9.54288 19.6775 9.52431L19.5911 9.57933ZM19.5911 9.57933C19.5228 9.62042 19.45 9.65852 19.3818 9.68747L19.3917 9.70645L19.5911 9.57933ZM19.8525 9.41248L19.8391 9.39583L19.3802 9.68829L19.3901 9.70728C19.5618 9.63449 19.7609 9.50494 19.8525 9.41248ZM19.7732 9.71162C19.958 9.60184 20.1774 9.43958 20.2494 9.35332L20.2347 9.3378L19.7613 9.69376L19.7732 9.71162ZM19.7623 9.69312L19.7741 9.71097L20.2476 9.35501L20.233 9.33949C20.1629 9.4234 19.9451 9.58449 19.7623 9.69312ZM20.2422 9.50084C20.198 9.56023 20.0867 9.69183 20.0158 9.76816L20.0318 9.78244L20.259 9.51424L20.2422 9.50084ZM20.2594 9.5137L20.2426 9.50031L20.0155 9.76852L20.0315 9.78281C20.1028 9.70596 20.2147 9.57376 20.2594 9.5137ZM19.3521 9.3661C19.1907 9.45001 18.9933 9.54205 18.8507 9.59966L18.8592 9.61938L19.3615 9.38541L19.3521 9.3661ZM19.3619 9.38521L19.3525 9.36591L18.8502 9.59988L18.8587 9.61961C19.002 9.56174 19.2 9.46941 19.3619 9.38521ZM18.5779 9.59055C18.6827 9.55391 18.9918 9.39555 19.1642 9.29726L19.1542 9.27829L18.5696 9.57077L18.5779 9.59055ZM18.5709 9.57024L18.5792 9.59001L19.1638 9.29753L19.1537 9.27856C18.9824 9.37621 18.674 9.53418 18.5709 9.57024ZM18.3786 9.48854C18.5043 9.46184 18.6243 9.41263 18.7536 9.34145C18.8082 9.31142 18.9686 9.21373 18.9949 9.19989L18.9854 9.18062L18.3719 9.46828L18.3786 9.48854ZM18.3741 9.4675L18.3809 9.48776L18.4945 9.43452C18.4546 9.44791 18.4147 9.45889 18.3741 9.4675ZM18.7885 9.29668L18.4945 9.43452C18.5761 9.40714 18.6576 9.36978 18.7433 9.32259C18.7545 9.31644 18.7703 9.30734 18.7885 9.29668ZM18.7885 9.29668L18.9944 9.2001L18.985 9.18083C18.9635 9.19212 18.8581 9.25592 18.7885 9.29668ZM18.0693 9.49336C18.1445 9.47758 18.2341 9.44357 18.3359 9.39418C18.3917 9.36711 18.4502 9.33585 18.5112 9.3009C18.6005 9.24976 18.6703 9.2061 18.7782 9.13608L18.7676 9.11745L18.0623 9.47324L18.0693 9.49336ZM18.0649 9.47232L18.072 9.49245L18.1786 9.43866C18.1375 9.45374 18.0995 9.46504 18.0649 9.47232ZM18.5746 9.23883L18.1786 9.43866C18.2242 9.42189 18.2737 9.40047 18.3265 9.37482C18.3818 9.34798 18.4399 9.31694 18.5005 9.28223C18.5264 9.26741 18.5507 9.25322 18.5746 9.23883ZM18.5746 9.23883L18.7772 9.13666L18.7666 9.11803C18.6902 9.16753 18.6331 9.20378 18.5746 9.23883ZM18.7089 8.9666C18.6331 9.01213 18.5635 9.05278 18.4984 9.0891L18.719 8.98557L18.7089 8.9666ZM18.0961 9.27785C18.2211 9.2337 18.3478 9.173 18.4984 9.0891L18.0961 9.27785ZM18.0961 9.27785C18.0486 9.29463 18.0014 9.30901 17.9532 9.32137L17.9604 9.34152L18.0961 9.27785ZM18.72 8.98506L18.7099 8.96608L17.9514 9.32204L17.9586 9.34221C18.1909 9.28259 18.4005 9.17686 18.72 8.98506ZM17.6447 9.24963C17.8331 9.20078 18.2101 9.03535 18.4927 8.87805L18.4832 8.8588L17.6377 9.22937L17.6447 9.24963ZM17.6393 9.22882L17.6463 9.24908L17.9109 9.1331C17.804 9.17682 17.7086 9.21085 17.6393 9.22882ZM18.1426 9.03154L17.9109 9.1331C17.9843 9.10312 18.063 9.06857 18.1426 9.03154ZM18.1426 9.03154L18.4918 8.87849L18.4823 8.85924C18.3773 8.91768 18.2592 8.97728 18.1426 9.03154ZM18.2947 8.76625C18.1056 8.85052 17.7613 8.97112 17.4989 9.04843L17.5055 9.06889L18.3027 8.78622L18.2947 8.76625ZM18.3034 8.78592L18.2955 8.76595L17.4984 9.04861L17.5049 9.06908C17.7682 8.9915 18.1133 8.87062 18.3034 8.78592ZM17.3295 8.92316C17.5568 8.88974 17.8763 8.74101 18.1116 8.58514L18.1014 8.5663L17.3237 8.90263L17.3295 8.92316ZM17.3264 8.90187L17.3322 8.92239L17.4281 8.88091C17.3926 8.89006 17.3585 8.89716 17.3264 8.90187ZM17.976 8.64397L17.4281 8.88091C17.5979 8.83714 17.7998 8.74646 17.976 8.64397ZM17.976 8.64397L18.1099 8.58604L18.0998 8.5672C18.0606 8.59315 18.0191 8.61891 17.976 8.64397ZM16.1182 7.51196C16.2378 7.61078 16.4247 7.6692 16.6836 7.71399L16.689 7.69327L16.1286 7.49353L16.1182 7.51196ZM16.1318 7.49536L16.1215 7.51379L16.1956 7.54024C16.1724 7.52626 16.1512 7.51134 16.1318 7.49536ZM16.547 7.66547L16.1956 7.54024C16.2844 7.5937 16.4012 7.6333 16.547 7.66547ZM16.547 7.66547L16.6818 7.71353L16.6873 7.69279C16.6378 7.68425 16.5911 7.6752 16.547 7.66547ZM15.892 7.07912C16.1774 7.35022 16.519 7.54312 16.8741 7.58572L16.8802 7.56549L15.9043 7.06175L15.892 7.07912ZM15.9068 7.06351L15.8945 7.08087L15.9656 7.11758C15.9458 7.09995 15.9261 7.08191 15.9068 7.06351ZM16.8134 7.55516L15.9656 7.11758C16.218 7.34163 16.5101 7.50317 16.8134 7.55516ZM16.8134 7.55516L16.8705 7.58461L16.8766 7.56438C16.8555 7.56184 16.8344 7.55876 16.8134 7.55516ZM16.6889 7.53404C16.6735 7.56189 16.6649 7.59671 16.6649 7.63176C16.6649 7.66341 16.6719 7.69522 16.6873 7.72221C16.7302 7.7972 16.8288 7.83092 16.9863 7.80989L16.9921 7.79124L16.7054 7.5313L16.6889 7.53404ZM16.6911 7.54724L16.7016 7.55675C16.7034 7.55252 16.7054 7.54842 16.7076 7.54449L16.6911 7.54724ZM16.9602 7.79132L16.7016 7.55675C16.6917 7.57913 16.6863 7.60541 16.6863 7.63176C16.6863 7.65984 16.6924 7.68797 16.7059 7.7115C16.7418 7.77428 16.8244 7.80521 16.9602 7.79132ZM16.9602 7.79132L16.9777 7.80721L16.9835 7.78856C16.9756 7.78963 16.9678 7.79054 16.9602 7.79132ZM16.811 7.79466C16.7278 7.97289 16.9186 8.1066 17.2812 7.99496L17.282 7.97472L16.8247 7.78926L16.811 7.79466ZM16.8167 7.80919L16.8263 7.8131C16.8276 7.81001 16.8289 7.8069 16.8304 7.80379L16.8167 7.80919ZM17.2454 7.98306L16.8263 7.8131C16.8177 7.83406 16.8135 7.85428 16.8135 7.87328C16.8135 7.98904 16.9698 8.05997 17.2454 7.98306ZM17.2454 7.98306L17.274 7.99466L17.2749 7.97441C17.265 7.97748 17.2551 7.98036 17.2454 7.98306ZM17.1839 7.84106C17.2495 8.08676 17.5649 8.17114 17.7485 8.02229L17.745 8.00369L17.1975 7.82803L17.1839 7.84106ZM17.2046 7.83549L17.191 7.84853L17.2104 7.85475C17.2083 7.84845 17.2063 7.84204 17.2046 7.83549ZM17.7188 8.01785L17.2104 7.85475C17.2805 8.06305 17.55 8.13638 17.7188 8.01785ZM17.7188 8.01785L17.7385 8.02417L17.735 8.00557C17.7297 8.00987 17.7243 8.01396 17.7188 8.01785ZM16.8081 7.87813C16.5388 7.82626 16.369 7.80913 16.2993 7.83978C16.2057 7.88135 16.1953 7.96901 16.2924 8.04362C16.5695 8.25639 17.6766 8.32666 18.1177 8.23073L18.1181 8.20979L16.8087 7.87827L16.8081 7.87813ZM16.8035 7.89911L16.8038 7.89919L16.8041 7.89925L16.8035 7.89911ZM18.0663 8.21884L16.8038 7.89919C16.5408 7.84856 16.3715 7.8315 16.308 7.85947C16.2673 7.8775 16.2455 7.90421 16.2455 7.93472C16.2455 7.96332 16.2647 7.99527 16.3054 8.02655C16.5671 8.22743 17.6033 8.29948 18.0663 8.21884ZM18.0663 8.21884L18.1129 8.23064L18.1132 8.2097C18.0983 8.21294 18.0826 8.21599 18.0663 8.21884ZM16.3776 8.07359C16.2393 8.12 16.2736 8.25957 16.4592 8.3326C16.73 8.43913 17.5191 8.51158 17.8991 8.4747L17.9007 8.45357L16.3835 8.07335L16.3776 8.07359ZM16.3784 8.09422L16.3815 8.09499C16.3824 8.09465 16.3834 8.09431 16.3843 8.09398L16.3784 8.09422ZM17.8314 8.45836L16.3815 8.09499C16.337 8.11072 16.3148 8.13788 16.3148 8.16908C16.3148 8.21628 16.3656 8.27269 16.467 8.31258C16.7195 8.41194 17.4353 8.48184 17.8314 8.45836ZM17.8314 8.45836L17.8955 8.47443L17.8971 8.45329C17.8763 8.45531 17.8544 8.45699 17.8314 8.45836ZM16.3588 8.26149C16.3326 8.28795 16.3203 8.31793 16.3203 8.34885C16.3203 8.39212 16.3444 8.43718 16.3884 8.47682C16.6489 8.71257 17.2936 8.70705 17.9017 8.49359L17.8996 8.47279L16.3679 8.25842L16.3588 8.26149ZM16.3649 8.27972L16.3704 8.28049C16.3715 8.27921 16.3727 8.27792 16.374 8.27666L16.3649 8.27972ZM17.8521 8.48785L16.3704 8.28049C16.3511 8.30147 16.3419 8.32487 16.3419 8.3492C16.3419 8.38614 16.3631 8.42514 16.4027 8.46083C16.6498 8.68448 17.2634 8.68454 17.8521 8.48785ZM17.8521 8.48785L17.8966 8.49409L17.8946 8.4733C17.8804 8.47826 17.8663 8.48311 17.8521 8.48785ZM16.1676 8.41223C16.2143 8.39267 16.2899 8.38046 16.3339 8.38525L16.3334 8.36322L16.1619 8.39096L16.1676 8.41223ZM16.1595 8.39168L16.1652 8.41295L16.3367 8.38522L16.3361 8.36319C16.2885 8.35802 16.2094 8.37079 16.1595 8.39168ZM15.4816 7.9807C15.6904 8.1136 15.952 8.1842 16.3125 8.21631L16.3163 8.19524L15.4902 7.96126L15.4816 7.9807ZM15.493 7.96254L15.4844 7.98196L15.5654 8.00491C15.5406 7.99156 15.5165 7.97745 15.493 7.96254ZM16.1897 8.18172L15.5654 8.00491C15.7325 8.09464 15.9337 8.15012 16.1897 8.18172ZM16.1897 8.18172L16.3105 8.21594L16.3144 8.19489C16.2714 8.19106 16.2299 8.18668 16.1897 8.18172ZM15.8274 7.80234C15.8787 7.81763 16.0271 7.85936 16.0271 7.85931L16.0263 7.85907C16.0488 7.86554 16.0684 7.87134 16.0872 7.87711C16.1377 7.89267 16.1833 7.90854 16.2323 7.9279L16.2392 7.90688L15.8334 7.78101L15.8274 7.80234ZM15.8333 7.78098L15.8273 7.80231L16.233 7.92816L16.2399 7.90714C16.1904 7.88756 16.1443 7.87152 16.0933 7.8558C16.0744 7.84999 16.0547 7.84416 16.032 7.83765L16.0328 7.83789C16.0328 7.83795 15.8845 7.79622 15.8333 7.78098ZM23.8287 7.81851C23.8188 7.82213 23.5323 7.92581 23.4296 7.96173C23.3981 7.97276 23.3677 7.98328 23.3381 7.99333C23.1253 8.06589 22.9651 8.11305 22.8643 8.12996L22.8694 8.15079L23.8356 7.83888L23.8287 7.81851ZM23.8287 7.81851L23.829 7.81842L23.8287 7.81851ZM23.8359 7.83878L23.829 7.81841L22.8629 8.13033L22.8679 8.15117C22.9702 8.13402 23.1311 8.08661 23.345 8.01369C23.3746 8.00362 23.4051 7.99309 23.4366 7.98204C23.5413 7.94545 23.8361 7.83875 23.8361 7.83868L23.8359 7.83878ZM21.0139 8.56599C21.2342 8.68678 21.4913 8.66599 21.5224 8.4608L21.5098 8.44864L21.0169 8.54601L21.0139 8.56599ZM21.0241 8.55011L21.0211 8.57076L21.0512 8.56461C21.0421 8.56003 21.0331 8.55519 21.0241 8.55011ZM21.4984 8.47331L21.0512 8.56461C21.2477 8.66368 21.4614 8.64191 21.4984 8.47331ZM21.4984 8.47331L21.5139 8.47014L21.5012 8.45757C21.5004 8.46295 21.4995 8.4682 21.4984 8.47331ZM21.487 8.53177C21.6823 8.64676 22.0297 8.55914 22.02 8.36591L21.4894 8.51219L21.487 8.53177ZM21.4979 8.51321L21.4955 8.53279L21.5205 8.52525C21.5128 8.52155 21.5052 8.51753 21.4979 8.51321ZM22.0124 8.37675L21.5205 8.52525C21.7064 8.61421 22.0074 8.53212 22.0124 8.37675ZM21.9813 8.45444C22.2168 8.54437 22.4396 8.49625 22.4788 8.28064L22.4648 8.26854L21.9817 8.4342L21.9813 8.45444ZM21.989 8.43434L21.9886 8.45456L22.0176 8.44461C22.0081 8.44142 21.9985 8.438 21.989 8.43434ZM22.4538 8.29503L22.0176 8.44461C22.2241 8.51373 22.4106 8.46989 22.4538 8.29503ZM22.4538 8.29503L22.4717 8.28888L22.4577 8.27678C22.4565 8.28302 22.4553 8.28909 22.4538 8.29503Z" clip-rule="evenodd" fill="#000000" fill-opacity="1.000000" fill-rule="evenodd"/>
		<path id="Shape" d="M22.8647 8.0752C22.8715 8.09305 22.8747 8.11116 22.8747 8.12926C22.8747 8.28883 22.6277 8.44691 22.4132 8.40631L22.4172 8.38518C22.6201 8.42357 22.8532 8.27351 22.8532 8.12912C22.8532 8.11354 22.8505 8.09804 22.8447 8.08284L22.8647 8.0752ZM21.2211 8.20993C21.3156 8.14909 21.366 8.12326 21.4558 8.09772L21.4615 8.11916C21.374 8.14401 21.3253 8.16901 21.2324 8.22881L21.2211 8.20993ZM23.413 8.55844C23.3093 8.47012 23.004 8.36418 22.7544 8.31372L22.7587 8.29265C23.0117 8.3438 23.3195 8.45062 23.4269 8.54204C23.4932 8.59834 23.5298 8.64966 23.5298 8.69427L23.5297 8.69865C23.5268 8.75194 23.472 8.78853 23.3639 8.80771C23.1703 8.84224 23.0825 8.83694 22.8253 8.78825L22.8293 8.76712C23.0841 8.81537 23.1696 8.82053 23.3602 8.78653C23.4595 8.76889 23.5061 8.73782 23.5084 8.69748L23.5084 8.69432C23.5084 8.65797 23.475 8.61104 23.413 8.55844ZM23.751 8.20149C23.4985 8.14381 23.1147 8.20618 22.8843 8.34171L22.8735 8.32315C23.1086 8.18488 23.4979 8.12163 23.7557 8.18053C23.8767 8.20816 23.9424 8.25661 23.9564 8.31972C23.9583 8.32799 23.9592 8.33638 23.9592 8.34485C23.9592 8.38908 23.935 8.43497 23.896 8.47188C23.8121 8.55124 23.6259 8.59599 23.4382 8.57712L23.4404 8.55571C23.6224 8.57404 23.8025 8.53073 23.8813 8.45622C23.9164 8.42302 23.9377 8.38239 23.9377 8.3447C23.9377 8.3378 23.937 8.33101 23.9355 8.32439C23.9236 8.27092 23.8647 8.22748 23.751 8.20149ZM23.7388 8.35371C23.5867 8.35371 23.2797 8.38489 23.1127 8.414L23.1091 8.39209C23.2773 8.36278 23.5854 8.33148 23.7388 8.33148L23.7388 8.35371ZM23.8572 8.21478C24.3882 8.08977 24.9907 7.83908 25.1807 7.65207L25.1957 7.66742C25.0021 7.85793 24.3967 8.10988 23.8621 8.23572L23.8572 8.21478ZM24.3016 8.2343C24.3016 8.1828 24.2755 8.14728 24.2195 8.13315L24.2247 8.11229C24.2915 8.12915 24.323 8.17349 24.323 8.23436C24.323 8.25078 24.3207 8.26839 24.3162 8.28699C24.2997 8.3553 24.2526 8.43251 24.2094 8.46759C23.998 8.63918 23.7915 8.73181 23.4935 8.76241L23.4914 8.74101C23.785 8.71086 23.9877 8.61996 24.1959 8.45088C24.2353 8.41884 24.28 8.34575 24.2953 8.28192C24.2995 8.26485 24.3016 8.24892 24.3016 8.2343ZM24.194 8.77531C24.0635 8.8616 23.7386 8.84213 23.5414 8.75659L23.5499 8.73685C23.7412 8.81981 24.0589 8.83885 24.1823 8.75734C24.2459 8.71524 24.2766 8.66052 24.2766 8.60777C24.2766 8.55661 24.2477 8.50731 24.1923 8.47322L24.2035 8.45488C24.2657 8.49315 24.298 8.54945 24.298 8.60768C24.298 8.66731 24.2642 8.72894 24.194 8.77531ZM22.9824 8.78983C23.4203 8.87219 23.8522 8.98383 23.9584 9.07506L23.9444 9.0914C23.8427 9.00395 23.4101 8.89217 22.9785 8.81096L22.9824 8.78983ZM24.2039 8.85384C24.2039 8.94366 24.1411 9.03943 24.0692 9.0625L24.0626 9.04202C24.1257 9.02177 24.1824 8.93414 24.1824 8.85373C24.1824 8.82874 24.1769 8.80446 24.1645 8.78311L24.183 8.77226C24.1974 8.79715 24.2039 8.8252 24.2039 8.85384ZM22.5778 9.0598C22.3006 9.01767 21.8438 8.78323 21.6108 8.57443L21.625 8.5584C21.8551 8.76456 22.3082 8.99709 22.5811 9.03853C22.7263 9.06052 22.8528 9.0574 22.924 9.02988C22.9631 9.01479 22.9835 8.99367 22.9835 8.96591C22.9835 8.94241 22.9689 8.91415 22.9387 8.88074C22.8166 8.74573 22.5185 8.60051 22.2087 8.49365L22.2157 8.47331C22.5289 8.58136 22.8292 8.72763 22.9546 8.86629C22.9883 8.90369 23.0048 8.93767 23.0048 8.9668C23.0048 9.00279 22.9797 9.0314 22.9317 9.04996C22.8563 9.07909 22.7264 9.08228 22.5778 9.0598ZM22.9764 9.00583C23.3748 9.25806 23.6273 9.39084 23.8839 9.45056L23.879 9.47151C23.6193 9.41106 23.3654 9.27754 22.9649 9.02402L22.9764 9.00583ZM23.1613 8.9962C23.0814 8.9621 23.0217 8.93727 22.9717 8.91759L22.9795 8.89757C23.0298 8.91734 23.0897 8.94223 23.1696 8.97643C23.2131 8.995 23.3705 9.0629 23.3906 9.07152C23.4121 9.08076 23.4121 9.08076 23.4337 9.09C23.6799 9.19524 23.8346 9.25531 23.9396 9.28236L23.9343 9.30319C23.8278 9.27576 23.6725 9.21548 23.4253 9.10979C23.4037 9.10054 23.4037 9.10054 23.3821 9.09129C23.362 9.08266 23.2047 9.01476 23.1613 8.9962ZM22.6782 9.05574C22.8649 9.22159 23.212 9.44933 23.415 9.5463L23.4058 9.56572C23.201 9.4679 22.8523 9.23904 22.6641 9.07184L22.6782 9.05574ZM23.1722 9.26883C23.0147 9.18143 22.9056 9.11452 22.848 9.06712L22.8615 9.05048C22.9179 9.09677 23.0262 9.16324 23.1826 9.25002C23.2026 9.26112 23.2233 9.27257 23.2451 9.28444C23.3209 9.32582 23.5496 9.44769 23.5701 9.4588L23.5599 9.47772C23.5395 9.46667 23.3108 9.34477 23.2349 9.30333C23.2131 9.29144 23.1922 9.27997 23.1722 9.26883ZM22.6821 8.92267C22.4518 8.83905 22.1202 8.6817 21.8735 8.5417L21.8841 8.52299C22.1298 8.66241 22.4603 8.81926 22.6894 8.90245L22.6821 8.92267ZM22.7705 8.55385C22.5925 8.51711 22.4388 8.49306 22.2838 8.47958L22.2857 8.45815C22.4415 8.47171 22.596 8.4959 22.7748 8.53279C22.8465 8.54758 22.9205 8.56403 23.0154 8.58598C23.048 8.59352 23.2148 8.63257 23.2629 8.64368L23.2581 8.66464C23.2099 8.65352 23.0432 8.61447 23.0106 8.60693C22.9159 8.58502 22.842 8.5686 22.7705 8.55385ZM21.5659 9.84409C21.4633 9.8053 21.3851 9.72003 21.333 9.61446L21.3522 9.6049C21.4021 9.70604 21.4767 9.78738 21.5735 9.82396C21.6715 9.86107 21.7519 9.78705 21.757 9.67747C21.7578 9.66066 21.7582 9.645 21.7582 9.63037C21.7582 9.56717 21.7509 9.52299 21.7371 9.48616L21.7572 9.47859C21.772 9.51797 21.7796 9.56468 21.7796 9.63049C21.7796 9.64546 21.7792 9.66141 21.7784 9.67848C21.7726 9.80118 21.6794 9.88705 21.5659 9.84409ZM21.6318 9.43863C21.4127 9.30794 21.1628 8.89784 21.129 8.6067L21.1503 8.60422C21.1833 8.88889 21.4296 9.293 21.6428 9.42014C21.8211 9.52638 22 9.51613 22.0536 9.43791C22.0685 9.41621 22.076 9.38977 22.076 9.3606C22.076 9.2709 22.0045 9.15546 21.8543 9.07323C21.6784 8.97679 21.4504 8.77524 21.3436 8.62637L21.361 8.61382C21.4659 8.76006 21.6915 8.95946 21.8646 9.05435C22.0209 9.13998 22.0973 9.26277 22.0973 9.36108C22.0973 9.39435 22.0886 9.42482 22.0712 9.4501C22.0103 9.53909 21.8188 9.55005 21.6318 9.43863ZM21.733 9.23857C21.5876 9.14684 21.2792 8.75975 21.2357 8.6283L21.256 8.62152C21.298 8.74817 21.6032 9.13124 21.7444 9.22037L21.733 9.23857ZM21.5065 9.56009C21.4584 9.44255 21.1603 8.9973 21.0006 8.78748L21.0176 8.77443C21.1785 8.98582 21.4773 9.43201 21.5263 9.55193L21.5065 9.56009ZM22.0052 9.02008C21.8568 8.96008 21.5308 8.71115 21.4312 8.59796L21.4473 8.58372C21.5447 8.69458 21.8681 8.94148 22.0132 9.00014L22.0052 9.02008ZM22.2356 9.24501C22.1522 9.23862 22.09 9.22397 22.0095 9.1855L22.0187 9.16608C22.0966 9.20331 22.1563 9.21736 22.2372 9.22357C22.2839 9.22728 22.3103 9.2088 22.3103 9.16963C22.3103 9.15825 22.3081 9.14513 22.3035 9.13029C22.2817 9.06 22.2329 8.98277 22.1805 8.92978L22.1957 8.91463C22.2504 8.96996 22.3011 9.05013 22.324 9.1239C22.3291 9.14056 22.3316 9.15576 22.3316 9.16934C22.3316 9.22147 22.2952 9.24976 22.2356 9.24501ZM22.7674 9.89981C22.562 9.86046 22.1588 9.62033 22.0455 9.45668L22.0632 9.44441C22.173 9.60316 22.5713 9.84033 22.7714 9.87869L22.7674 9.89981ZM22.3167 9.20265C22.4586 9.35391 22.853 9.67705 23.006 9.75281L22.9966 9.77209C22.8409 9.69502 22.4446 9.37036 22.3011 9.21739L22.3167 9.20265ZM21.7664 9.50545C21.9605 9.74039 22.493 10.2356 22.6451 10.3219L22.6345 10.3406C22.4799 10.2528 21.9456 9.75595 21.7499 9.51917L21.7664 9.50545ZM21.9933 10.1703C22.0698 10.2586 22.1347 10.325 22.1849 10.3642L22.1717 10.3812C22.1202 10.3409 22.0544 10.2737 21.9771 10.1844C21.9563 10.1604 21.9348 10.135 21.9127 10.1083C21.8373 10.017 21.7764 9.93834 21.6917 9.82588L21.7087 9.81291C21.7933 9.92513 21.854 10.0036 21.9293 10.0945C21.9512 10.1211 21.9726 10.1465 21.9933 10.1703ZM22.665 9.69164C22.4105 9.51436 22.1324 9.30821 22.0068 9.19354L22.0213 9.17764C22.1459 9.29144 22.4236 9.49727 22.6772 9.67397L22.665 9.69164ZM21.7285 10.0946C21.7285 10.0563 21.6951 9.96506 21.6374 9.84348L21.6567 9.83421C21.716 9.95909 21.7498 10.0513 21.7498 10.0952C21.7498 10.0981 21.7497 10.1009 21.7494 10.1034C21.7419 10.1639 21.7197 10.19 21.659 10.1758L21.6639 10.1549C21.7092 10.1655 21.722 10.1503 21.7281 10.1007C21.7283 10.0989 21.7285 10.0968 21.7285 10.0946ZM25.2404 8.00996C25.3643 7.94072 25.4312 7.90421 25.5085 7.86453L25.5183 7.88368C25.4413 7.9232 25.3745 7.95963 25.2507 8.02875L25.2223 8.04466C24.7859 8.28841 24.5596 8.38948 24.2145 8.46321L24.2101 8.44217C24.5525 8.369 24.7772 8.26865 25.2119 8.02586L25.2404 8.00996ZM25.3648 7.77852C25.0489 7.96124 24.7866 8.07292 24.3127 8.24825L24.3053 8.22807C24.7781 8.05315 25.0396 7.94183 25.3541 7.75989C25.5153 7.66663 25.6651 7.56593 25.8032 7.45622L25.8165 7.47308C25.6776 7.58348 25.5269 7.68475 25.3648 7.77852ZM25.8939 7.88896C25.5121 8.20332 24.9428 8.44879 24.2858 8.61264L24.2807 8.59177C24.9348 8.42862 25.5013 8.18433 25.8804 7.87233L25.8939 7.88896ZM25.5847 8.20195C25.6191 8.1844 25.6516 8.16949 25.6834 8.15662L25.6914 8.17656C25.6602 8.18919 25.6283 8.20386 25.5943 8.22115C25.5476 8.24487 25.2826 8.39835 25.1885 8.44548C24.9258 8.57719 24.6378 8.66765 24.246 8.7233L24.243 8.702C24.6325 8.64668 24.9183 8.55692 25.179 8.42624C25.2722 8.37949 25.5372 8.22604 25.5847 8.20195ZM24.1939 8.83629C24.5076 8.8662 24.8909 8.84317 25.0823 8.75157L25.0912 8.77176C24.8955 8.86545 24.5092 8.88866 24.192 8.85841L24.1939 8.83629ZM24.1762 8.93135C24.3798 8.98161 24.8597 8.99196 25.0894 8.94142L25.0938 8.96317C24.861 9.0144 24.3778 9.00397 24.1713 8.95297L24.1762 8.93135ZM19.7752 7.70602C19.739 7.71295 19.7229 7.7178 19.6906 7.73497L19.6805 7.71596C19.7151 7.6976 19.733 7.6922 19.7712 7.68491C19.7796 7.6833 19.7846 7.68221 19.7897 7.68073C19.8088 7.67517 19.8255 7.66437 19.8493 7.64C20.0271 7.45818 20.3154 7.25531 20.4763 7.19142L20.4764 7.19142C20.4774 7.19101 20.5779 7.15054 20.6013 7.14166C20.6405 7.12682 20.6701 7.11749 20.699 7.11139C20.7301 7.10483 20.7606 7.10208 20.7946 7.10294L20.7941 7.12444C20.7617 7.12363 20.7328 7.12622 20.7034 7.13243C20.6913 7.13498 20.685 7.13586 20.6788 7.13718C20.6605 7.14099 20.643 7.14836 20.4843 7.21143C20.3262 7.27411 20.0404 7.47527 19.8646 7.65506C19.8383 7.68192 19.8185 7.69472 19.7957 7.70137C19.7897 7.70309 19.7842 7.70432 19.7752 7.70602ZM20.4864 7.22701C20.4792 7.21976 20.4752 7.21837 20.4692 7.22113L20.4604 7.2009C20.4757 7.19382 20.4886 7.19817 20.5014 7.2112C20.506 7.2159 20.5219 7.23544 20.5221 7.23567C20.5485 7.26643 20.5745 7.27545 20.6223 7.25755C20.6502 7.24704 20.6636 7.22766 20.6693 7.19728C20.6711 7.18776 20.6718 7.1814 20.6732 7.1626C20.6759 7.12601 20.6802 7.11292 20.7007 7.11105L20.7026 7.13315C20.6984 7.13353 20.6964 7.13974 20.6945 7.16432C20.6931 7.18401 20.6924 7.19086 20.6904 7.20152C20.6833 7.23895 20.6653 7.26494 20.6296 7.2784C20.5729 7.29965 20.538 7.28752 20.5061 7.2504C20.5052 7.24947 20.4901 7.23083 20.4864 7.22701ZM20.6859 7.53201C20.722 7.46852 20.7657 7.42291 20.8257 7.39172L20.8353 7.41159C20.7793 7.44072 20.7385 7.48328 20.7043 7.5433L20.6859 7.53201ZM19.8276 8.04103C19.8276 7.97073 19.8365 7.89217 19.8539 7.83223L19.8745 7.83824C19.8577 7.8961 19.8491 7.97269 19.8491 8.04106C19.8491 8.05899 19.8497 8.07637 19.8509 8.09268L19.8295 8.09425C19.8282 8.07741 19.8276 8.05949 19.8276 8.04103ZM19.836 8.32457C19.836 8.28592 19.8385 8.25165 19.8442 8.22762L19.865 8.23253C19.8597 8.25494 19.8574 8.28732 19.8574 8.3241C19.8574 8.40398 19.8684 8.50456 19.8843 8.56863L19.8636 8.57384C19.8472 8.50821 19.836 8.40654 19.836 8.32457ZM19.92 8.80516C19.91 8.78932 19.9025 8.7744 19.8976 8.76039L19.9178 8.75288C19.9221 8.76511 19.9288 8.77853 19.9379 8.79303C19.9493 8.81119 19.9641 8.83051 19.9818 8.85117C19.9964 8.86824 20.0084 8.88109 20.0312 8.90489L20.016 8.92056C19.9929 8.89648 19.9808 8.88342 19.9658 8.86594C19.9474 8.84451 19.932 8.82436 19.92 8.80516ZM20.0024 8.38162C20.0024 8.37267 20.0027 8.36411 20.0034 8.35602L20.0247 8.35771C20.0241 8.3653 20.0238 8.37334 20.0238 8.38176C20.0238 8.50575 20.0865 8.71318 20.1503 8.78938C20.1675 8.92319 20.2574 9.10889 20.384 9.23651L20.3688 9.25168C20.2389 9.12068 20.1469 8.93062 20.1316 8.79782C20.0665 8.72275 20.0024 8.51082 20.0024 8.38162ZM19.9643 8.08301C19.9643 8.05478 19.966 8.02937 19.9697 8.00882L19.9908 8.01262C19.9874 8.03186 19.9857 8.05594 19.9857 8.08289C19.9857 8.12248 19.9892 8.16826 19.9957 8.21394L19.9744 8.21695C19.9679 8.17038 19.9643 8.12375 19.9643 8.08301ZM20.1014 7.88303C20.1014 7.77585 20.1238 7.6073 20.1587 7.51917L20.1786 7.52711C20.1447 7.61259 20.1229 7.77892 20.1229 7.88303C20.1229 7.90579 20.1239 7.92558 20.1261 7.94092C20.1271 7.94801 20.1277 7.95305 20.1277 7.96004C20.1277 7.97249 20.1258 7.99121 20.1207 8.03915C20.1166 8.07899 20.1142 8.11577 20.1142 8.15129C20.1142 8.22961 20.1257 8.30182 20.1546 8.38748L20.1343 8.39438C20.1046 8.30627 20.0928 8.23187 20.0928 8.15143C20.0928 8.1151 20.0952 8.07751 20.0994 8.0369C20.1044 7.98988 20.1062 7.97189 20.1062 7.96024C20.1062 7.95415 20.1057 7.9498 20.1049 7.94394C20.1025 7.92772 20.1014 7.90689 20.1014 7.88303ZM20.2733 7.99831C20.2733 7.86375 20.2847 7.72456 20.308 7.62796L20.3289 7.63304C20.3059 7.72803 20.2947 7.86565 20.2947 7.9985C20.2947 8.13354 20.3063 8.26369 20.3287 8.33916L20.3082 8.34532C20.2851 8.26781 20.2733 8.13547 20.2733 7.99831ZM20.2325 8.56258C20.2325 8.50885 20.2384 8.45422 20.2499 8.40318L20.2708 8.40793C20.2596 8.45744 20.254 8.5105 20.254 8.56259C20.254 8.62717 20.2627 8.69026 20.2803 8.74332L20.2599 8.75011C20.2416 8.69479 20.2325 8.62939 20.2325 8.56258ZM20.4378 7.71933C20.4378 7.71388 20.4379 7.70847 20.438 7.70311L20.4595 7.70378C20.4593 7.70894 20.4592 7.71413 20.4592 7.71936C20.4592 7.87846 20.5341 8.07819 20.6549 8.21307L20.639 8.22745C20.5146 8.08861 20.4378 7.88376 20.4378 7.71933ZM20.3978 8.39767C20.3978 8.34709 20.3999 8.29372 20.4043 8.23901L20.4257 8.24074C20.4213 8.29488 20.4192 8.34769 20.4192 8.39764C20.4192 8.51617 20.4312 8.61865 20.4541 8.68469C20.4633 8.71143 20.4696 8.74278 20.4784 8.79994C20.4825 8.82664 20.4847 8.8418 20.4867 8.85426C20.4901 8.87549 20.4931 8.89331 20.4964 8.91035C20.512 8.99199 20.5324 9.05151 20.564 9.09648L20.5464 9.10886C20.5128 9.06087 20.4915 8.99878 20.4753 8.91441C20.472 8.89711 20.4689 8.87907 20.4656 8.85764C20.4636 8.84508 20.4612 8.82986 20.4572 8.80322C20.4486 8.74734 20.4425 8.71684 20.4338 8.69176C20.41 8.62321 20.3978 8.51843 20.3978 8.39767ZM20.5769 8.54114C20.5728 8.5255 20.5728 8.5255 20.5688 8.51068L20.5895 8.50516C20.5935 8.51996 20.5935 8.51996 20.5977 8.53575C20.6088 8.57886 20.6154 8.61136 20.6184 8.6438C20.6195 8.65541 20.6201 8.66663 20.6201 8.67746C20.6201 8.71031 20.6149 8.73962 20.6036 8.76562L20.584 8.75705C20.5939 8.73399 20.5986 8.7075 20.5986 8.6774C20.5986 8.66728 20.5981 8.65675 20.597 8.64581C20.5941 8.61475 20.5878 8.58324 20.5769 8.54114ZM20.748 8.67226C20.748 8.6028 20.7268 8.47552 20.6946 8.36964L20.7151 8.36336C20.7479 8.47108 20.7695 8.60023 20.7695 8.67253C20.7695 8.68044 20.7692 8.68765 20.7687 8.69409L20.7473 8.69232C20.7478 8.68636 20.748 8.67963 20.748 8.67226ZM20.8454 9.31755C20.8013 9.23994 20.7613 9.11597 20.7521 9.01591L20.7735 9.01395C20.7823 9.11089 20.8214 9.2319 20.864 9.30688L20.8454 9.31755ZM20.7659 9.60832C20.7031 9.55869 20.6337 9.43277 20.5932 9.31079L20.6135 9.304C20.6528 9.42232 20.7205 9.54501 20.7792 9.59143L20.7659 9.60832ZM21.1876 9.65211C21.1447 9.52216 21.1165 9.45903 21.0487 9.36246L21.0663 9.35007C21.1355 9.4487 21.1644 9.51357 21.2079 9.64536L21.1876 9.65211Z" clip-rule="evenodd" fill="#000000" fill-opacity="1.000000" fill-rule="evenodd"/>
		<path id="Shape" d="M20.3089 9.39424C20.2859 9.3931 20.2776 9.39256 20.2642 9.39113L20.2665 9.36975C20.2793 9.37112 20.2874 9.37164 20.3099 9.37277C20.3684 9.37569 20.3918 9.38248 20.4206 9.41302C20.4383 9.43176 20.4552 9.45903 20.4731 9.49791C20.5355 9.63358 20.7177 9.84999 20.8011 9.88745C20.9457 9.95241 21.0433 10.0248 21.0751 10.1273C21.1316 9.99883 21.1436 9.92159 21.101 9.82863L21.119 9.81741C21.1315 9.83299 21.1447 9.84915 21.1593 9.86678C21.3494 10.0957 21.3782 10.1294 21.3892 10.1682C21.3921 10.1781 21.3937 10.1883 21.3967 10.2021C21.4136 10.2834 21.4804 10.3974 21.5469 10.4701L21.5312 10.4846C21.4622 10.4093 21.3936 10.2921 21.3757 10.2066C21.367 10.1652 21.3695 10.1583 21.3053 10.0777C21.3041 10.0655 21.303 10.0553 21.3018 10.0468L21.2826 10.0495C21.2502 10.0098 21.2054 9.95593 21.1429 9.88054C21.1423 9.87981 21.1417 9.87906 21.1411 9.87833C21.1596 9.95619 21.1411 10.0316 21.0924 10.1413C21.0871 10.1532 21.0871 10.1532 21.0818 10.1649L21.0615 10.1623C21.0433 10.0554 20.9499 9.97955 20.8038 9.91228C20.7988 9.90268 20.7936 9.8932 20.7883 9.88385L20.7697 9.89444C20.675 9.83302 20.5129 9.63588 20.4536 9.50693C20.4366 9.46999 20.4209 9.44461 20.405 9.42783C20.381 9.40236 20.3622 9.39691 20.3089 9.39424ZM20.9119 10.5631C20.9508 10.4067 20.8951 10.1153 20.7697 9.8945L20.7697 9.89444C20.7778 9.89969 20.7854 9.90395 20.7924 9.90707C20.7963 9.9088 20.8 9.91054 20.8038 9.91228C20.9224 10.1365 20.9727 10.4202 20.9311 10.5745L20.9104 10.5688C20.9109 10.5671 20.9113 10.5653 20.9118 10.5634L20.9119 10.5634L20.9119 10.5631ZM20.9119 10.5631L20.9118 10.5634L20.8908 10.5668C20.8807 10.5042 20.8451 10.4558 20.7891 10.4154C20.7668 10.3993 20.7524 10.3911 20.7256 10.3676C20.6822 10.4154 20.6003 10.4718 20.5558 10.4814L20.5513 10.4603C20.5908 10.4519 20.6691 10.3979 20.7228 10.3509C20.7634 10.3725 20.7783 10.3811 20.8016 10.3979C20.8618 10.4413 20.9007 10.4943 20.9119 10.5631ZM21.2826 10.0495L21.2806 10.0498C21.2834 10.0703 21.2862 10.1015 21.2894 10.1491C21.2907 10.1691 21.2975 10.2787 21.2997 10.3106C21.3074 10.4236 21.3151 10.4989 21.3256 10.5479L21.3466 10.5434C21.3364 10.4957 21.3287 10.4211 21.3211 10.3091C21.3189 10.2773 21.3121 10.1677 21.3107 10.1476C21.3088 10.1188 21.3071 10.096 21.3053 10.0777C21.2985 10.0692 21.291 10.0598 21.2826 10.0495ZM20.4144 9.71709C20.452 9.83055 20.4818 9.96678 20.4849 10.0456L20.5063 10.0448C20.5032 9.96361 20.4729 9.82553 20.4348 9.7103L20.4144 9.71709ZM20.7393 10.2765C20.7359 10.2129 20.696 10.0462 20.6562 9.93513L20.6764 9.92786C20.7168 10.0407 20.7572 10.2093 20.7607 10.2754L20.7393 10.2765ZM21.1136 10.2377C21.1447 10.3129 21.1644 10.4317 21.1581 10.5024L21.1794 10.5043C21.186 10.43 21.1658 10.3078 21.1334 10.2295L21.1136 10.2377Z" clip-rule="evenodd" fill="#000000" fill-opacity="1.000000" fill-rule="evenodd"/>
	</g>
</svg>
