<svg viewBox="0 0 28 28" xmlns="http://www.w3.org/2000/svg" xmlns:xlink="http://www.w3.org/1999/xlink" width="28.000000" height="28.000000" fill="none" customFrame="#000000">
	<defs>
		<filter id="pixso_custom_mask_type_alpha">
			<feColorMatrix type="matrix" values="0 0 0 0 1 0 0 0 0 1 0 0 0 0 1 0 0 0 1 0 " />
		</filter>
		<linearGradient id="paint_linear_178" x1="0.666687012" x2="0.666687012" y1="10.666626" y2="17.333292" gradientUnits="userSpaceOnUse">
			<stop stop-color="rgb(240.702,47.3047,31.0185)" offset="0" stop-opacity="1" />
			<stop stop-color="rgb(222,32,16)" offset="1" stop-opacity="1" />
		</linearGradient>
	</defs>
	<mask id="mask_557" width="28.000000" height="20.000000" x="0.000000" y="4.000000" maskUnits="userSpaceOnUse">
		<g filter="url(#pixso_custom_mask_type_alpha)">
			<rect id="Mask" width="28.000000" height="20.000000" x="0.000000" y="4.000000" rx="3.000000" fill="rgb(255,255,255)" />
			<rect id="Mask" width="28.000000" height="20.000000" x="0.000000" y="4.000000" rx="3.000000" stroke="rgb(150.96,150.96,150.96)" stroke-opacity="0" stroke-width="0" />
		</g>
	</mask>
	<rect id="Zimbabwe" width="28.000000" height="28.000000" x="0.000000" y="0.000000" fill="rgb(255,255,255)" fill-opacity="0" />
	<rect id="Mask" width="28.000000" height="20.000000" x="0.000000" y="4.000000" rx="3.000000" fill="rgb(255,255,255)" />
	<rect id="Mask" width="28.000000" height="20.000000" x="0.000000" y="4.000000" rx="3.000000" stroke="rgb(150.96,150.96,150.96)" stroke-opacity="0" stroke-width="0" />
	<g mask="url(#mask_557)">
		<path id="Rectangle 2" d="M0 6.66667L28 6.66667L28 4L0 4L0 6.66667Z" fill="rgb(54,157,12)" fill-rule="evenodd" />
		<path id="Rectangle 2" d="M28 6.66667L28 4L0 4L0 6.66667L28 6.66667Z" fill-rule="evenodd" stroke="rgb(150.96,150.96,150.96)" stroke-opacity="0" stroke-width="0" />
		<path id="Rectangle 2" d="M0 24L28 24L28 21.3334L0 21.3334L0 24Z" fill="rgb(54,157,12)" fill-rule="evenodd" />
		<path id="Rectangle 2" d="M28 24L28 21.3334L0 21.3334L0 24L28 24Z" fill-rule="evenodd" stroke="rgb(150.96,150.96,150.96)" stroke-opacity="0" stroke-width="0" />
		<path id="Rectangle 2" d="M0 12L28 12L28 9.33337L0 9.33337L0 12Z" fill="rgb(54,157,12)" fill-rule="evenodd" />
		<path id="Rectangle 2" d="M28 12L28 9.33337L0 9.33337L0 12L28 12Z" fill-rule="evenodd" stroke="rgb(150.96,150.96,150.96)" stroke-opacity="0" stroke-width="0" />
		<path id="Rectangle 2" d="M0 18.6667L28 18.6667L28 16L0 16L0 18.6667Z" fill="rgb(54,157,12)" fill-rule="evenodd" />
		<path id="Rectangle 2" d="M28 18.6667L28 16L0 16L0 18.6667L28 18.6667Z" fill-rule="evenodd" stroke="rgb(150.96,150.96,150.96)" stroke-opacity="0" stroke-width="0" />
		<path id="Rectangle 2" d="M0 16L28 16L28 12L0 12L0 16Z" fill="rgb(38,38,38)" fill-rule="evenodd" />
		<path id="Rectangle 2" d="M28 16L28 12L0 12L0 16L28 16Z" fill-rule="evenodd" stroke="rgb(150.96,150.96,150.96)" stroke-opacity="0" stroke-width="0" />
		<path id="Rectangle 2" d="M0 9.33329L28 9.33329L28 6.66663L0 6.66663L0 9.33329Z" fill="rgb(255,212,14)" fill-rule="evenodd" />
		<path id="Rectangle 2" d="M28 9.33329L28 6.66663L0 6.66663L0 9.33329L28 9.33329Z" fill-rule="evenodd" stroke="rgb(150.96,150.96,150.96)" stroke-opacity="0" stroke-width="0" />
		<path id="Rectangle 2" d="M0 21.3333L28 21.3333L28 18.6666L0 18.6666L0 21.3333Z" fill="rgb(255,212,14)" fill-rule="evenodd" />
		<path id="Rectangle 2" d="M28 21.3333L28 18.6666L0 18.6666L0 21.3333L28 21.3333Z" fill-rule="evenodd" stroke="rgb(150.96,150.96,150.96)" stroke-opacity="0" stroke-width="0" />
		<path id="Rectangle 83" d="M-1.33331 24L-1.33331 4L2.03848e-05 4L13.3334 14L2.03848e-05 24L-1.33331 24Z" fill="rgb(255,255,255)" fill-rule="evenodd" />
		<path id="Rectangle 83" d="M-1.33331 4L-1.33331 24L2.03848e-05 24L12.2222 14.8333L13.3334 14L12.2222 13.1667L2.03848e-05 4L-1.33331 4ZM2.03848e-05 5.66667L2.03848e-05 22.3333L11.1111 14L2.03848e-05 5.66667Z" fill="rgb(38,38,38)" fill-rule="evenodd" />
		<path id="Star 8" d="M4.00002 15.3L2.04074 16.6967L2.76365 14.4017L0.829832 12.9699L3.2359 12.9482L4.00002 10.6666L4.76414 12.9482L7.17021 12.9699L5.23639 14.4017L5.9593 16.6967L4.00002 15.3Z" fill="url(#paint_linear_178)" fill-rule="evenodd" />
		<path id="Star 8" d="M2.04074 16.6967L2.76365 14.4017L0.829832 12.9699L3.2359 12.9482L4.00002 10.6666L4.76414 12.9482L7.17021 12.9699L5.23639 14.4017L5.9593 16.6967L4.00002 15.3L2.04074 16.6967Z" fill-rule="evenodd" stroke="rgb(150.96,150.96,150.96)" stroke-opacity="0" stroke-width="0" />
	</g>
</svg>
