<svg width="29.000000" height="28.000000" viewBox="0 0 29 28" fill="none" xmlns="http://www.w3.org/2000/svg" xmlns:xlink="http://www.w3.org/1999/xlink">
	<desc>
			Created with Pixso.
	</desc>
	<defs>
		<linearGradient id="paint_linear_17_3910_0" x1="1.666687" y1="10.666626" x2="1.666687" y2="17.333292" gradientUnits="userSpaceOnUse">
			<stop stop-color="#F12F1F"/>
			<stop offset="1.000000" stop-color="#DE2010"/>
		</linearGradient>
	</defs>
	<rect id="Zimbabwe" width="28.000000" height="28.000000" transform="translate(1.000000 0.000000)" fill="#FFFFFF" fill-opacity="0"/>
	<rect id="Mask" x="1.000000" y="4.000000" rx="3.000000" width="28.000000" height="20.000000" fill="#FFFFFF" fill-opacity="1.000000"/>
	<rect id="Mask" x="1.000000" y="4.000000" rx="3.000000" width="28.000000" height="20.000000" stroke="#979797" stroke-opacity="0" stroke-width="0.000000"/>
	<mask id="mask17_3901" mask-type="alpha" maskUnits="userSpaceOnUse" x="1.000000" y="4.000000" width="28.000000" height="20.000000">
		<rect id="Mask" x="1.000000" y="4.000000" rx="3.000000" width="28.000000" height="20.000000" fill="#FFFFFF" fill-opacity="1.000000"/>
		<rect id="Mask" x="1.000000" y="4.000000" rx="3.000000" width="28.000000" height="20.000000" stroke="#979797" stroke-opacity="0" stroke-width="0.000000"/>
	</mask>
	<g mask="url(#mask17_3901)">
		<path id="Rectangle 2" d="M1 6.66L29 6.66L29 4L1 4L1 6.66Z" fill="#369D0C" fill-opacity="1.000000" fill-rule="evenodd"/>
		<path id="Rectangle 2" d="M29 6.66L29 4L1 4L1 6.66L29 6.66Z" stroke="#979797" stroke-opacity="0" stroke-width="0.000000"/>
	</g>
	<g mask="url(#mask17_3901)">
		<path id="Rectangle 2" d="M1 24L29 24L29 21.33L1 21.33L1 24Z" fill="#369D0C" fill-opacity="1.000000" fill-rule="evenodd"/>
		<path id="Rectangle 2" d="M29 24L29 21.33L1 21.33L1 24L29 24Z" stroke="#979797" stroke-opacity="0" stroke-width="0.000000"/>
	</g>
	<g mask="url(#mask17_3901)">
		<path id="Rectangle 2" d="M1 12L29 12L29 9.33L1 9.33L1 12Z" fill="#369D0C" fill-opacity="1.000000" fill-rule="evenodd"/>
		<path id="Rectangle 2" d="M29 12L29 9.33L1 9.33L1 12L29 12Z" stroke="#979797" stroke-opacity="0" stroke-width="0.000000"/>
	</g>
	<g mask="url(#mask17_3901)">
		<path id="Rectangle 2" d="M1 18.66L29 18.66L29 16L1 16L1 18.66Z" fill="#369D0C" fill-opacity="1.000000" fill-rule="evenodd"/>
		<path id="Rectangle 2" d="M29 18.66L29 16L1 16L1 18.66L29 18.66Z" stroke="#979797" stroke-opacity="0" stroke-width="0.000000"/>
	</g>
	<g mask="url(#mask17_3901)">
		<path id="Rectangle 2" d="M1 16L29 16L29 12L1 12L1 16Z" fill="#262626" fill-opacity="1.000000" fill-rule="evenodd"/>
		<path id="Rectangle 2" d="M29 16L29 12L1 12L1 16L29 16Z" stroke="#979797" stroke-opacity="0" stroke-width="0.000000"/>
	</g>
	<g mask="url(#mask17_3901)">
		<path id="Rectangle 2" d="M1 9.33L29 9.33L29 6.66L1 6.66L1 9.33Z" fill="#FFD40E" fill-opacity="1.000000" fill-rule="evenodd"/>
		<path id="Rectangle 2" d="M29 9.33L29 6.66L1 6.66L1 9.33L29 9.33Z" stroke="#979797" stroke-opacity="0" stroke-width="0.000000"/>
	</g>
	<g mask="url(#mask17_3901)">
		<path id="Rectangle 2" d="M1 21.33L29 21.33L29 18.66L1 18.66L1 21.33Z" fill="#FFD40E" fill-opacity="1.000000" fill-rule="evenodd"/>
		<path id="Rectangle 2" d="M29 21.33L29 18.66L1 18.66L1 21.33L29 21.33Z" stroke="#979797" stroke-opacity="0" stroke-width="0.000000"/>
	</g>
	<g mask="url(#mask17_3901)">
		<path id="Rectangle 83" d="M-0.34 24L-0.34 4L1 4L14.33 14L1 24L-0.34 24Z" fill="#FFFFFF" fill-opacity="1.000000" fill-rule="evenodd"/>
		<path id="Rectangle 83" d="M-0.34 4L-0.34 24L1 24L13.22 14.83L14.33 14L13.22 13.16L1 4L-0.34 4ZM1 5.66L1 22.33L12.11 14L1 5.66Z" fill="#262626" fill-opacity="1.000000" fill-rule="evenodd"/>
	</g>
	<g mask="url(#mask17_3901)">
		<path id="Star 8" d="M5 15.3L3.04 16.69L3.76 14.4L1.82 12.96L4.23 12.94L5 10.66L5.76 12.94L8.17 12.96L6.23 14.4L6.95 16.69L5 15.3Z" fill="url(#paint_linear_17_3910_0)" fill-opacity="1.000000" fill-rule="evenodd"/>
		<path id="Star 8" d="M3.04 16.69L3.76 14.4L1.82 12.96L4.23 12.94L5 10.66L5.76 12.94L8.17 12.96L6.23 14.4L6.95 16.69L5 15.3L3.04 16.69Z" stroke="#979797" stroke-opacity="0" stroke-width="0.000000"/>
	</g>
</svg>
