<svg viewBox="0 0 29.3333 28" xmlns="http://www.w3.org/2000/svg" xmlns:xlink="http://www.w3.org/1999/xlink" width="29.333313" height="28.000000" fill="none" customFrame="#000000">
	<defs>
		<filter id="pixso_custom_mask_type_alpha">
			<feColorMatrix type="matrix" values="0 0 0 0 1 0 0 0 0 1 0 0 0 0 1 0 0 0 1 0 " />
		</filter>
		<linearGradient id="paint_linear_36" x1="2" x2="2" y1="10.666626" y2="17.333292" gradientUnits="userSpaceOnUse">
			<stop stop-color="rgb(240.702,47.3047,31.0185)" offset="0" stop-opacity="1" />
			<stop stop-color="rgb(222,32,16)" offset="1" stop-opacity="1" />
		</linearGradient>
	</defs>
	<mask id="mask_8" width="28.000000" height="20.000000" x="1.333313" y="4.000000" maskUnits="userSpaceOnUse">
		<g filter="url(#pixso_custom_mask_type_alpha)">
			<rect id="Mask" width="28.000000" height="20.000000" x="1.333313" y="4.000000" rx="3.000000" fill="rgb(255,255,255)" />
			<rect id="Mask" width="28.000000" height="20.000000" x="1.333313" y="4.000000" rx="3.000000" stroke="rgb(150.96,150.96,150.96)" stroke-opacity="0" stroke-width="0.000000" />
		</g>
	</mask>
	<rect id="Zimbabwe" width="28.000000" height="28.000000" x="1.333313" y="0.000000" fill="rgb(255,255,255)" fill-opacity="0" />
	<rect id="Mask" width="28.000000" height="20.000000" x="1.333313" y="4.000000" rx="3.000000" fill="rgb(255,255,255)" />
	<rect id="Mask" width="28.000000" height="20.000000" x="1.333313" y="4.000000" rx="3.000000" stroke="rgb(150.96,150.96,150.96)" stroke-opacity="0" stroke-width="0.000000" />
	<g mask="url(#mask_8)">
		<path id="Rectangle 2" d="M1.33331 6.66667L29.3333 6.66667L29.3333 4L1.33331 4L1.33331 6.66667Z" fill="rgb(54,157,12)" fill-rule="evenodd" />
		<path id="Rectangle 2" d="M29.3333 6.66667L29.3333 4L1.33331 4L1.33331 6.66667L29.3333 6.66667Z" fill-rule="evenodd" stroke="rgb(150.96,150.96,150.96)" stroke-opacity="0" stroke-width="0.000000" />
		<path id="Rectangle 2" d="M1.33331 24L29.3333 24L29.3333 21.3334L1.33331 21.3334L1.33331 24Z" fill="rgb(54,157,12)" fill-rule="evenodd" />
		<path id="Rectangle 2" d="M29.3333 24L29.3333 21.3334L1.33331 21.3334L1.33331 24L29.3333 24Z" fill-rule="evenodd" stroke="rgb(150.96,150.96,150.96)" stroke-opacity="0" stroke-width="0.000000" />
		<path id="Rectangle 2" d="M1.33331 12L29.3333 12L29.3333 9.33337L1.33331 9.33337L1.33331 12Z" fill="rgb(54,157,12)" fill-rule="evenodd" />
		<path id="Rectangle 2" d="M29.3333 12L29.3333 9.33337L1.33331 9.33337L1.33331 12L29.3333 12Z" fill-rule="evenodd" stroke="rgb(150.96,150.96,150.96)" stroke-opacity="0" stroke-width="0.000000" />
		<path id="Rectangle 2" d="M1.33331 18.6667L29.3333 18.6667L29.3333 16L1.33331 16L1.33331 18.6667Z" fill="rgb(54,157,12)" fill-rule="evenodd" />
		<path id="Rectangle 2" d="M29.3333 18.6667L29.3333 16L1.33331 16L1.33331 18.6667L29.3333 18.6667Z" fill-rule="evenodd" stroke="rgb(150.96,150.96,150.96)" stroke-opacity="0" stroke-width="0.000000" />
		<path id="Rectangle 2" d="M1.33331 16L29.3333 16L29.3333 12L1.33331 12L1.33331 16Z" fill="rgb(38,38,38)" fill-rule="evenodd" />
		<path id="Rectangle 2" d="M29.3333 16L29.3333 12L1.33331 12L1.33331 16L29.3333 16Z" fill-rule="evenodd" stroke="rgb(150.96,150.96,150.96)" stroke-opacity="0" stroke-width="0.000000" />
		<path id="Rectangle 2" d="M1.33331 9.33329L29.3333 9.33329L29.3333 6.66663L1.33331 6.66663L1.33331 9.33329Z" fill="rgb(255,212,14)" fill-rule="evenodd" />
		<path id="Rectangle 2" d="M29.3333 9.33329L29.3333 6.66663L1.33331 6.66663L1.33331 9.33329L29.3333 9.33329Z" fill-rule="evenodd" stroke="rgb(150.96,150.96,150.96)" stroke-opacity="0" stroke-width="0.000000" />
		<path id="Rectangle 2" d="M1.33331 21.3333L29.3333 21.3333L29.3333 18.6666L1.33331 18.6666L1.33331 21.3333Z" fill="rgb(255,212,14)" fill-rule="evenodd" />
		<path id="Rectangle 2" d="M29.3333 21.3333L29.3333 18.6666L1.33331 18.6666L1.33331 21.3333L29.3333 21.3333Z" fill-rule="evenodd" stroke="rgb(150.96,150.96,150.96)" stroke-opacity="0" stroke-width="0.000000" />
		<path id="Rectangle 83" d="M0 24L0 4L1.33333 4L14.6667 14L1.33333 24L0 24Z" fill="rgb(255,255,255)" fill-rule="evenodd" />
		<path id="Rectangle 83" d="M0 4L0 24L1.33333 24L13.5556 14.8333L14.6667 14L13.5556 13.1667L1.33333 4L0 4ZM1.33333 5.66667L1.33333 22.3333L12.4444 14L1.33333 5.66667Z" fill="rgb(38,38,38)" fill-rule="evenodd" />
		<path id="Star 8" d="M5.33333 15.3L3.37405 16.6967L4.09696 14.4017L2.16315 12.9699L4.56921 12.9482L5.33333 10.6666L6.09745 12.9482L8.50352 12.9699L6.56971 14.4017L7.29262 16.6967L5.33333 15.3Z" fill="url(#paint_linear_36)" fill-rule="evenodd" />
		<path id="Star 8" d="M3.37405 16.6967L4.09696 14.4017L2.16315 12.9699L4.56921 12.9482L5.33333 10.6666L6.09745 12.9482L8.50352 12.9699L6.56971 14.4017L7.29262 16.6967L5.33333 15.3L3.37405 16.6967Z" fill-rule="evenodd" stroke="rgb(150.96,150.96,150.96)" stroke-opacity="0" stroke-width="0.000000" />
	</g>
</svg>
