<svg width="24.000000" height="24.000000" viewBox="0 0 24 24" fill="none" xmlns="http://www.w3.org/2000/svg" xmlns:xlink="http://www.w3.org/1999/xlink">
	<desc>
			Created with Pixso.
	</desc>
	<defs>
		<clipPath id="clip123737_722">
			<rect id="Outline / No Wifi Outline" width="24.000000" height="24.000000" fill="white" fill-opacity="0"/>
		</clipPath>
	</defs>
	<g>
		<path id="Shape" d="M4.36 2.2C4.65 1.98 5.05 2.04 5.27 2.32L8.03 5.9C9.3 5.47 10.64 5.25 12 5.25C13.63 5.25 15.25 5.57 16.77 6.2C18.28 6.83 19.66 7.75 20.81 8.9C21.07 9.16 21.07 9.57 20.81 9.82C20.56 10.08 20.15 10.08 19.89 9.82C18.86 8.79 17.63 7.96 16.27 7.4C14.91 6.84 13.46 6.55 12 6.55C10.94 6.55 9.88 6.7 8.87 7L10.22 8.75C10.8 8.63 11.4 8.57 12 8.57C13.2 8.57 14.39 8.81 15.5 9.27C16.61 9.73 17.61 10.4 18.46 11.25C18.72 11.51 18.72 11.92 18.46 12.17C18.21 12.43 17.8 12.43 17.54 12.17C16.82 11.44 15.95 10.87 15 10.47C14.05 10.08 13.03 9.87 12 9.87C11.7 9.87 11.41 9.89 11.12 9.92L12.67 11.94C13.21 12 13.73 12.14 14.22 12.34C14.93 12.63 15.57 13.06 16.11 13.6C16.37 13.86 16.37 14.27 16.11 14.52C15.86 14.78 15.45 14.78 15.19 14.52C14.85 14.18 14.44 13.89 14.01 13.67L19.57 20.91C19.79 21.19 19.74 21.6 19.46 21.82C19.17 22.04 18.76 21.99 18.54 21.7L4.24 3.11C4.02 2.83 4.08 2.42 4.36 2.2ZM3.18 8.9C3.91 8.17 4.72 7.54 5.61 7.01L6.4 8.05C5.56 8.54 4.79 9.13 4.1 9.82C3.84 10.08 3.43 10.08 3.18 9.82C2.92 9.57 2.92 9.16 3.18 8.9ZM5.53 11.25C6.16 10.63 6.87 10.09 7.65 9.67L8.46 10.72C7.71 11.09 7.04 11.58 6.45 12.17C6.19 12.43 5.78 12.43 5.53 12.17C5.27 11.92 5.27 11.51 5.53 11.25ZM7.88 13.6C8.41 13.08 9.03 12.65 9.72 12.36L10.55 13.44C10.45 13.47 10.36 13.5 10.26 13.54C9.72 13.77 9.22 14.1 8.8 14.52C8.54 14.78 8.13 14.78 7.88 14.52C7.62 14.27 7.62 13.86 7.88 13.6ZM10.52 15.33C10.92 15.17 11.35 15.07 11.79 15.05L13.55 17.34L12.21 18.68C12.09 18.8 11.9 18.8 11.78 18.68L9.48 16.38C9.36 16.26 9.36 16.07 9.49 15.96C9.8 15.7 10.14 15.49 10.52 15.33Z" fill="#717681" fill-opacity="1.000000" fill-rule="evenodd"/>
	</g>
</svg>
