<svg width="24.000000" height="24.000000" viewBox="0 0 24 24" fill="none" xmlns="http://www.w3.org/2000/svg" xmlns:xlink="http://www.w3.org/1999/xlink">
	<desc>
			Created with Pixso.
	</desc>
	<defs>
		<clipPath id="clip123737_721">
			<rect id="Solid / No Wifi Solid" width="24.000000" height="24.000000" fill="white" fill-opacity="0"/>
		</clipPath>
	</defs>
	<g clip-path="url(#clip123737_721)">
		<path id="Shape" d="M4.36 2.2C4.65 1.98 5.05 2.04 5.27 2.32L6.97 4.53C8.41 3.56 10.13 3 12 3C16.97 3 21 7.02 21 12C21 14.69 19.81 17.12 17.93 18.76L19.57 20.91C19.79 21.19 19.74 21.6 19.46 21.82C19.17 22.04 18.76 21.99 18.54 21.7L4.24 3.11C4.02 2.83 4.08 2.42 4.36 2.2ZM15.01 14.98C15.12 14.95 15.22 14.89 15.3 14.81C15.56 14.55 15.56 14.14 15.3 13.89C14.87 13.45 14.35 13.11 13.78 12.87C13.61 12.8 13.43 12.74 13.25 12.69L15.01 14.98ZM12.13 11.23C12.87 11.25 13.6 11.4 14.28 11.69C15 11.99 15.66 12.42 16.21 12.98C16.47 13.23 16.88 13.23 17.13 12.98C17.38 12.72 17.38 12.31 17.13 12.06C16.46 11.38 15.66 10.85 14.77 10.48C13.89 10.12 12.95 9.93 12 9.93C11.72 9.93 11.44 9.95 11.17 9.98L12.13 11.23ZM10.27 8.82C10.84 8.7 11.42 8.64 12 8.64C13.12 8.64 14.23 8.87 15.27 9.3C16.3 9.73 17.25 10.36 18.04 11.15C18.29 11.4 18.71 11.4 18.96 11.15C19.21 10.9 19.21 10.48 18.96 10.23C18.05 9.32 16.96 8.59 15.76 8.09C14.57 7.6 13.29 7.34 12 7.34C11.12 7.34 10.25 7.46 9.41 7.69L10.27 8.82ZM3 12C3 9.82 3.76 7.83 5.04 6.28L6.94 8.74C6.24 9.16 5.6 9.66 5.03 10.23C4.78 10.48 4.78 10.9 5.03 11.15C5.28 11.4 5.7 11.4 5.95 11.15C6.48 10.62 7.08 10.16 7.74 9.78L8.53 10.81C7.92 11.14 7.35 11.56 6.86 12.06C6.61 12.31 6.61 12.72 6.86 12.98C7.11 13.23 7.52 13.23 7.78 12.98C8.23 12.52 8.76 12.15 9.33 11.86L10.14 12.9C9.6 13.14 9.11 13.47 8.69 13.89C8.43 14.14 8.43 14.55 8.69 14.81C8.94 15.06 9.35 15.06 9.61 14.81C9.92 14.49 10.29 14.25 10.7 14.08C10.79 14.04 10.88 14.01 10.97 13.98L11.84 15.11C11.5 15.13 11.16 15.21 10.85 15.34C10.58 15.45 10.32 15.6 10.1 15.78C9.97 15.89 9.97 16.08 10.09 16.2L11.78 17.9C11.9 18.01 12.09 18.01 12.21 17.9L13.21 16.89L15.74 20.18C14.6 20.7 13.33 21 12 21C7.02 21 3 16.97 3 12Z" fill="#717681" fill-opacity="1.000000" fill-rule="evenodd"/>
	</g>
</svg>
