<svg viewBox="0 0 24 24" xmlns="http://www.w3.org/2000/svg" xmlns:xlink="http://www.w3.org/1999/xlink" width="24.000000" height="24.000000" fill="none">
	<rect id="Outline/Phone Outline" width="24.000000" height="24.000000" x="0.000000" y="0.000000" />
	<path id="Shape" d="M2.56979 1.01117C3.14793 0.277503 4.02858 -0.000299033 4.84242 2.41518e-07L6.32645 0.000546041C7.40313 0.000941995 8.27573 0.87387 8.27573 1.95055L8.27573 4.39652C8.27573 5.47347 7.40269 6.34652 6.32574 6.34652L5.08227 6.34652C5.07959 6.34652 5.07732 6.34671 5.07545 6.34698C4.87803 6.96828 4.54928 8.24781 4.54928 9.8681C4.54928 11.4884 4.87803 12.7679 5.07545 13.3892C5.07732 13.3895 5.07959 13.3897 5.08227 13.3897L6.32574 13.3897C7.40269 13.3897 8.27573 14.2627 8.27573 15.3397L8.27573 17.8506C8.27573 18.9279 7.40225 19.801 6.32502 19.8006L4.89372 19.8001C4.04392 19.7998 3.13388 19.4956 2.55176 18.725C1.54363 17.3904 0 14.5655 0 9.8221C0 5.05548 1.5569 2.29654 2.56979 1.01117ZM4.84194 1.3C4.29856 1.2998 3.85276 1.48344 3.59086 1.81579C2.74842 2.88486 1.3 5.36351 1.3 9.8221C1.3 14.2604 2.73741 16.814 3.58907 17.9414C3.85991 18.3 4.32887 18.4999 4.8942 18.5001L6.3255 18.5006C6.68458 18.5008 6.97574 18.2097 6.97574 17.8506L6.97574 15.3397C6.97574 14.9807 6.68472 14.6897 6.32574 14.6897L5.08227 14.6897C4.54287 14.6897 4.02135 14.3612 3.84174 13.7994C3.61696 13.0963 3.24928 11.6722 3.24928 9.8681C3.24928 8.06402 3.61696 6.63996 3.84174 5.93682C4.02135 5.37502 4.54287 5.04652 5.08227 5.04652L6.32574 5.04652C6.68472 5.04652 6.97574 4.7555 6.97574 4.39652L6.97574 1.95055C6.97574 1.59165 6.68487 1.30068 6.32597 1.30055L4.84194 1.3Z" fill="rgb(116,118,123)" fill-rule="evenodd" transform="matrix(0.814079,-0.580754,0.580754,0.814079,1.94104,7.05005)" />
</svg>
