<svg width="24.000000" height="24.000000" viewBox="0 0 24 24" fill="none" xmlns="http://www.w3.org/2000/svg" xmlns:xlink="http://www.w3.org/1999/xlink">
	<desc>
			Created with Pixso.
	</desc>
	<defs>
		<clipPath id="clip17_1065">
			<rect id="Outline / Phone Outline" width="24.000000" height="24.000000" fill="white" fill-opacity="0"/>
		</clipPath>
	</defs>
	<g clip-path="url(#clip17_1065)">
		<path id="Shape" d="M4.62 6.38C4.66 5.44 5.22 4.71 5.88 4.23L7.09 3.37C7.96 2.75 9.18 2.95 9.81 3.83L11.23 5.82C11.85 6.69 11.65 7.91 10.77 8.54L9.76 9.26C9.76 9.26 9.76 9.26 9.75 9.26C9.95 9.88 10.43 11.12 11.37 12.44C12.31 13.76 13.32 14.61 13.84 15C13.85 15 13.85 15 13.85 14.99L14.86 14.27C15.74 13.65 16.96 13.85 17.58 14.73L19.04 16.77C19.67 17.65 19.46 18.87 18.58 19.49L17.42 20.32C16.73 20.82 15.81 21.1 14.89 20.81C13.29 20.31 10.4 18.9 7.64 15.04C4.87 11.16 4.54 8.01 4.62 6.38ZM6.63 5.29C6.19 5.61 5.93 6.02 5.91 6.44C5.85 7.8 6.11 10.66 8.7 14.29C11.28 17.9 13.93 19.14 15.28 19.57C15.71 19.7 16.2 19.59 16.66 19.26L17.83 18.43C18.12 18.22 18.19 17.82 17.98 17.53L16.52 15.48C16.31 15.19 15.91 15.12 15.62 15.33L14.6 16.05C14.17 16.37 13.55 16.4 13.08 16.05C12.49 15.61 11.36 14.66 10.31 13.19C9.26 11.72 8.74 10.35 8.51 9.65C8.33 9.09 8.57 8.52 9 8.2L10.02 7.48C10.31 7.27 10.38 6.87 10.17 6.57L8.75 4.58C8.54 4.29 8.13 4.22 7.84 4.43L6.63 5.29Z" fill="#74767B" fill-opacity="1.000000" fill-rule="evenodd"/>
	</g>
</svg>
