<svg width="24.000000" height="24.000000" viewBox="0 0 24 24" fill="none" xmlns="http://www.w3.org/2000/svg" xmlns:xlink="http://www.w3.org/1999/xlink">
	<desc>
			Created with Pixso.
	</desc>
	<defs>
		<clipPath id="clip17_1088">
			<rect id="Solid / Telegramm Solid" width="24.000000" height="24.000000" fill="white" fill-opacity="0"/>
		</clipPath>
	</defs>
	<g clip-path="url(#clip17_1088)">
		<path id="Shape" d="M5.44 3.32C4.47 2.79 3.33 3.64 3.55 4.72L4.79 10.78C4.85 11.11 5.14 11.35 5.47 11.35L11.27 11.35C11.62 11.35 11.92 11.64 11.92 11.99C11.92 12.35 11.62 12.65 11.27 12.65L5.47 12.65C5.14 12.65 4.85 12.88 4.79 13.21L3.55 19.27C3.33 20.35 4.47 21.2 5.44 20.67L20.36 12.61C20.85 12.35 20.85 11.64 20.36 11.38L5.44 3.32Z" fill="#717681" fill-opacity="1.000000" fill-rule="nonzero"/>
	</g>
</svg>
