<svg width="24.000000" height="24.000000" viewBox="0 0 24 24" fill="none" xmlns="http://www.w3.org/2000/svg" xmlns:xlink="http://www.w3.org/1999/xlink">
	<g>
		<rect id="Solid / VK Video Solid" width="24.000000" height="24.000000" fill="white" fill-opacity="0"/>
		<path id="Shape" d="M20.84 6.89C20.68 5.72 20.36 4.89 19.73 4.26C19.1 3.63 18.27 3.31 17.1 3.15C16.99 3.14 16.87 3.12 16.76 3.11C15.63 3 14.2 3 12.36 3L11.63 3C9.65 3 8.15 3 6.99 3.14C5.76 3.29 4.91 3.61 4.26 4.26C3.63 4.89 3.31 5.72 3.15 6.89C3.14 7 3.12 7.12 3.11 7.23C3 8.36 3 9.79 3 11.64L3 12.36C3 14.34 3 15.84 3.14 17C3.29 18.23 3.61 19.08 4.26 19.73C4.8 20.27 5.49 20.58 6.42 20.76C7.65 21 9.31 21 11.63 21L12.36 21C14.39 21 15.92 21 17.1 20.84C18.27 20.68 19.1 20.36 19.73 19.73C20.27 19.19 20.58 18.5 20.76 17.57C21 16.34 21 14.68 21 12.36L21 11.64C21 9.6 21 8.07 20.84 6.89ZM10.65 8.68C10.43 8.98 10.43 9.5 10.43 10.56L10.43 13.44C10.43 14.48 10.43 15.01 10.65 15.31C10.84 15.58 11.14 15.75 11.46 15.78C11.84 15.82 12.29 15.56 13.19 15.04L15.72 13.58C16.61 13.06 17.06 12.81 17.21 12.46C17.35 12.17 17.35 11.82 17.21 11.53C17.06 11.18 16.61 10.92 15.7 10.39L13.2 8.95C12.29 8.43 11.84 8.17 11.46 8.21C11.14 8.24 10.84 8.41 10.65 8.68ZM7.88 20.21C7.56 20.19 7.26 20.16 6.99 20.12C5.89 19.98 5.25 19.7 4.77 19.22C4.29 18.74 4.01 18.1 3.87 17C3.72 15.88 3.71 14.41 3.71 12.36L3.71 11.64C3.71 9.58 3.72 8.11 3.87 6.99C4.01 5.89 4.29 5.25 4.77 4.77C5.25 4.29 5.89 4.01 6.99 3.87C7.26 3.83 7.55 3.8 7.87 3.78C7.65 3.92 7.45 4.07 7.26 4.26C6 5.52 6 7.56 6 11.63L6 12.35C6 16.43 6 18.46 7.26 19.73C7.45 19.91 7.65 20.07 7.88 20.21Z" fill="#74767B" fill-opacity="1.000000" fill-rule="evenodd"/>
	</g>
</svg>
