<svg width="24.000000" height="24.000000" viewBox="0 0 24 24" fill="none" xmlns="http://www.w3.org/2000/svg" xmlns:xlink="http://www.w3.org/1999/xlink">
	<g>
		<rect id="Solid / Wechat Solid" width="24.000000" height="24.000000" fill="white" fill-opacity="0"/>
		<path id="Shape" d="M3 10.44C3 7.41 5.89 5 9.48 5C12.75 5 15.44 7 15.89 9.58L15.53 9.58C12.26 9.58 9.61 11.8 9.61 14.54C9.61 15 9.68 15.45 9.81 15.89L9.45 15.89C8.71 15.89 7.98 15.81 7.32 15.61C7.26 15.58 7.19 15.57 7.12 15.57C7 15.57 6.91 15.57 6.79 15.65L5.36 16.47C5.33 16.49 5.28 16.51 5.24 16.51C5.21 16.51 5.19 16.51 5.16 16.5C5.13 16.49 5.11 16.47 5.09 16.45Q5.08 16.44 5.07 16.42Q5.06 16.4 5.05 16.38C5.04 16.36 5.03 16.33 5.04 16.3C5.04 16.26 5.07 16.17 5.08 16.14C5.08 16.1 5.24 15.44 5.36 15.03C5.38 14.98 5.39 14.93 5.39 14.87C5.39 14.8 5.36 14.62 5.24 14.54C3.85 13.56 3 12.08 3 10.44ZM7.15 9.57C7.21 9.58 7.27 9.58 7.32 9.58C7.38 9.58 7.43 9.58 7.49 9.56C7.54 9.55 7.6 9.54 7.65 9.51Q7.69 9.5 7.74 9.47Q7.77 9.46 7.8 9.43C7.84 9.4 7.89 9.37 7.93 9.33C7.97 9.29 8 9.24 8.03 9.2C8.06 9.15 8.09 9.1 8.11 9.05C8.13 9 8.15 8.94 8.16 8.89C8.17 8.83 8.18 8.78 8.18 8.72C8.18 8.67 8.17 8.61 8.16 8.55C8.15 8.5 8.13 8.44 8.11 8.39C8.09 8.34 8.06 8.29 8.03 8.24C8 8.2 7.97 8.15 7.93 8.11C7.89 8.07 7.84 8.04 7.8 8.01C7.75 7.98 7.7 7.95 7.65 7.93C7.59 7.91 7.54 7.89 7.48 7.88C7.43 7.87 7.37 7.86 7.32 7.86C7.26 7.86 7.2 7.87 7.15 7.88C7.09 7.89 7.04 7.91 6.99 7.93C6.94 7.95 6.89 7.98 6.84 8.01C6.79 8.04 6.75 8.08 6.71 8.12C6.67 8.16 6.63 8.2 6.6 8.25C6.57 8.29 6.54 8.34 6.52 8.4C6.5 8.45 6.49 8.5 6.47 8.56C6.46 8.61 6.46 8.67 6.46 8.73C6.46 8.78 6.46 8.84 6.48 8.89C6.49 8.95 6.5 9 6.52 9.05C6.55 9.11 6.57 9.16 6.6 9.2C6.64 9.25 6.67 9.29 6.71 9.33C6.75 9.37 6.8 9.41 6.84 9.44C6.89 9.47 6.94 9.5 6.99 9.52C7.04 9.54 7.1 9.56 7.15 9.57ZM11.48 9.57C11.54 9.58 11.59 9.58 11.65 9.58C12.14 9.58 12.55 9.17 12.51 8.72C12.51 8.27 12.1 7.86 11.65 7.86C11.59 7.86 11.54 7.87 11.48 7.88C11.42 7.89 11.37 7.91 11.32 7.93C11.27 7.95 11.22 7.98 11.17 8.01C11.12 8.04 11.08 8.07 11.04 8.11Q11.01 8.15 10.98 8.19Q10.95 8.21 10.93 8.25C10.9 8.29 10.87 8.34 10.85 8.39C10.83 8.45 10.82 8.5 10.8 8.56C10.79 8.61 10.79 8.67 10.79 8.72C10.79 8.78 10.79 8.84 10.8 8.89C10.82 8.95 10.83 9 10.85 9.05C10.87 9.1 10.9 9.15 10.93 9.2Q10.95 9.23 10.98 9.26Q11.01 9.3 11.04 9.33C11.08 9.37 11.12 9.41 11.17 9.44C11.22 9.47 11.27 9.5 11.32 9.52C11.37 9.54 11.42 9.56 11.48 9.57ZM21 14.54C21 15.93 20.26 17.16 19.12 17.98C19.06 18.02 19.02 18.07 18.99 18.12C18.96 18.18 18.94 18.24 18.94 18.31C18.94 18.35 18.95 18.39 18.96 18.43C19.04 18.76 19.2 19.27 19.21 19.32C19.23 19.36 19.24 19.41 19.24 19.46C19.24 19.5 19.22 19.54 19.19 19.57C19.16 19.6 19.12 19.62 19.08 19.62C19.04 19.61 18.99 19.6 18.96 19.58L17.77 18.88C17.68 18.83 17.59 18.8 17.48 18.8C17.44 18.8 17.41 18.81 17.32 18.84C16.79 19.01 16.18 19.09 15.57 19.09C12.55 19.09 10.14 17.04 10.14 14.54C10.14 12.04 12.55 9.99 15.57 9.99C18.59 9.99 21 12.04 21 14.54ZM13.69 13.8Q13.73 13.8 13.77 13.8C13.82 13.8 13.87 13.8 13.91 13.79C13.96 13.78 14.01 13.77 14.05 13.75C14.1 13.73 14.14 13.71 14.18 13.68C14.22 13.65 14.26 13.62 14.29 13.59C14.33 13.55 14.36 13.52 14.38 13.47C14.41 13.43 14.43 13.39 14.45 13.35C14.47 13.3 14.48 13.26 14.49 13.21C14.5 13.16 14.51 13.11 14.51 13.06C14.51 13.02 14.5 12.97 14.49 12.92C14.48 12.87 14.47 12.83 14.45 12.78C14.43 12.74 14.41 12.69 14.38 12.65C14.35 12.61 14.32 12.58 14.29 12.54C14.25 12.51 14.22 12.48 14.18 12.45C14.14 12.42 14.09 12.4 14.05 12.38C14 12.36 13.96 12.35 13.91 12.34C13.86 12.33 13.81 12.33 13.77 12.33C13.72 12.33 13.67 12.33 13.62 12.34C13.57 12.35 13.53 12.36 13.48 12.38C13.44 12.4 13.4 12.42 13.36 12.45C13.32 12.48 13.28 12.51 13.24 12.54Q13.22 12.57 13.2 12.59Q13.17 12.62 13.15 12.66C13.13 12.7 13.1 12.74 13.08 12.78C13.07 12.83 13.05 12.87 13.04 12.92C13.03 12.97 13.03 13.02 13.03 13.07C13.03 13.12 13.03 13.16 13.04 13.21C13.05 13.26 13.07 13.3 13.09 13.35C13.1 13.39 13.13 13.44 13.15 13.48C13.18 13.52 13.21 13.55 13.25 13.59C13.28 13.62 13.32 13.65 13.36 13.68C13.4 13.71 13.44 13.73 13.49 13.75C13.53 13.77 13.58 13.78 13.63 13.79Q13.66 13.8 13.69 13.8ZM17.22 13.79C17.27 13.8 17.31 13.8 17.36 13.8C17.41 13.8 17.46 13.8 17.51 13.79C17.55 13.78 17.6 13.77 17.64 13.75Q17.67 13.73 17.7 13.72Q17.74 13.7 17.77 13.68C17.81 13.65 17.85 13.62 17.88 13.59C17.92 13.55 17.95 13.52 17.98 13.47C18 13.43 18.02 13.39 18.04 13.35C18.06 13.3 18.07 13.26 18.08 13.21C18.09 13.16 18.1 13.11 18.1 13.06C18.1 13.02 18.09 12.97 18.08 12.92C18.07 12.87 18.06 12.83 18.04 12.78C18.02 12.74 18 12.69 17.97 12.65C17.95 12.61 17.91 12.58 17.88 12.54C17.85 12.51 17.81 12.48 17.77 12.45C17.73 12.42 17.69 12.4 17.64 12.38C17.6 12.36 17.55 12.35 17.5 12.34C17.45 12.33 17.41 12.33 17.36 12.33C17.31 12.33 17.26 12.33 17.21 12.34C17.17 12.35 17.12 12.36 17.07 12.38C17.03 12.4 16.99 12.42 16.95 12.45C16.91 12.48 16.87 12.51 16.84 12.54C16.8 12.58 16.77 12.62 16.74 12.66C16.72 12.7 16.69 12.74 16.68 12.78C16.66 12.83 16.64 12.87 16.63 12.92C16.62 12.97 16.62 13.02 16.62 13.07C16.62 13.12 16.63 13.16 16.64 13.21C16.64 13.26 16.66 13.3 16.68 13.35C16.7 13.39 16.72 13.44 16.75 13.48C16.77 13.52 16.8 13.55 16.84 13.59C16.87 13.62 16.91 13.65 16.95 13.68C16.99 13.71 17.03 13.73 17.08 13.75C17.12 13.77 17.17 13.78 17.22 13.79Z" fill="#74767B" fill-opacity="1.000000" fill-rule="evenodd"/>
	</g>
</svg>
