<svg width="24.000000" height="24.000000" viewBox="0 0 24 24" fill="none" xmlns="http://www.w3.org/2000/svg" xmlns:xlink="http://www.w3.org/1999/xlink">
	<desc>
			Created with Pixso.
	</desc>
	<defs>
		<clipPath id="clip17_1231">
			<rect id="Outline / Align Top Outline" width="24.000000" height="24.000000" fill="white" fill-opacity="0"/>
		</clipPath>
	</defs>
	<g clip-path="url(#clip17_1231)">
		<path id="Shape" d="M7.31 12.63C7.06 12.88 6.64 12.87 6.39 12.61C6.14 12.35 6.15 11.94 6.41 11.69L11.56 6.71C11.81 6.46 12.21 6.46 12.46 6.71L17.61 11.69C17.87 11.94 17.87 12.35 17.62 12.61C17.37 12.87 16.96 12.88 16.7 12.63L12.66 8.71L12.66 19.35C12.66 19.71 12.37 20 12.01 20C11.65 20 11.36 19.71 11.36 19.35L11.36 8.71L7.31 12.63ZM4.67 5.3C4.3 5.3 3.99 5.01 3.99 4.65C3.99 4.29 4.3 4 4.67 4L19.32 4C19.69 4 20 4.29 20 4.65C20 5.01 19.69 5.3 19.32 5.3L4.67 5.3Z" fill="#74767B" fill-opacity="1.000000" fill-rule="evenodd"/>
	</g>
</svg>
