<svg width="24.000000" height="24.000000" viewBox="0 0 24 24" fill="none" xmlns="http://www.w3.org/2000/svg" xmlns:xlink="http://www.w3.org/1999/xlink">
	<desc>
			Created with Pixso.
	</desc>
	<defs>
		<clipPath id="clip132973_94">
			<rect id="Outline / Amount Outline" width="24.000000" height="24.000000" fill="white" fill-opacity="0"/>
		</clipPath>
	</defs>
	<g clip-path="url(#clip132973_94)">
		<path id="Shape" d="M18.97 15.67L18.97 18.05Q18.97 18.44 18.82 18.8Q18.67 19.16 18.4 19.42Q18.13 19.69 17.78 19.84Q17.42 20 17.02 20L6.27 20L6.27 19.35L6.27 20Q5.83 20 5.48 19.74Q5.15 19.5 5.01 19.12Q4.87 18.75 4.95 18.36Q5.04 17.93 5.38 17.64L5.38 17.64L11.69 12.03Q11.71 12.02 11.71 12Q11.71 11.97 11.69 11.96L5.38 6.35Q5.04 6.06 4.95 5.63Q4.87 5.24 5.01 4.87Q5.15 4.49 5.48 4.25Q5.83 3.99 6.27 3.99L17.02 3.99Q17.42 3.99 17.78 4.15Q18.13 4.3 18.4 4.57Q18.67 4.84 18.82 5.19Q18.97 5.55 18.97 5.94L18.97 8.32L17.67 8.32L17.67 5.94Q17.67 5.68 17.48 5.48Q17.29 5.29 17.02 5.29L6.27 5.29Q6.24 5.29 6.22 5.33Q6.21 5.36 6.24 5.38L12.56 10.99Q12.78 11.18 12.9 11.45Q13.01 11.71 13.01 12Q13.01 12.28 12.9 12.54Q12.78 12.81 12.56 13L6.24 18.61L5.81 18.12L6.24 18.61Q6.21 18.63 6.22 18.66Q6.24 18.7 6.27 18.7L6.27 18.7L17.02 18.7Q17.29 18.7 17.48 18.51Q17.67 18.31 17.67 18.05L17.67 15.67L18.97 15.67ZM18.95 8.3L18.97 8.32C18.97 8.68 18.69 8.97 18.32 8.97C17.96 8.97 17.67 8.68 17.67 8.32L17.69 8.3L18.95 8.3ZM17.69 15.69L17.67 15.67C17.67 15.31 17.96 15.02 18.32 15.02C18.69 15.02 18.97 15.31 18.97 15.67L18.95 15.69L17.69 15.69Z" fill="#717681" fill-opacity="1.000000" fill-rule="evenodd"/>
	</g>
</svg>
