<svg width="24.000000" height="24.000000" viewBox="0 0 24 24" fill="none" xmlns="http://www.w3.org/2000/svg" xmlns:xlink="http://www.w3.org/1999/xlink">
	<desc>
			Created with Pixso.
	</desc>
	<defs>
		<clipPath id="clip7534_822">
			<rect id="Outline / Bg Color Outline" width="24.000000" height="24.000000" transform="matrix(1 -6.12324e-17 -6.12324e-17 -1 0 24)" fill="white" fill-opacity="0"/>
		</clipPath>
	</defs>
	<g >
		<path id="Shape" d="M8.92 19.12C9.01 19.22 9.11 19.3 9.22 19.38C10.39 20.28 12.09 20.2 13.16 19.12L18.81 13.47C18.94 13.34 19.01 13.17 19.02 13C19.02 12.81 18.95 12.62 18.81 12.48L12.64 6.31C12.62 6.29 12.6 6.27 12.59 6.25L9.52 3.18C9.26 2.93 8.85 2.93 8.6 3.18C8.34 3.43 8.34 3.85 8.6 4.1L10.12 5.63L4.9 10.86C3.72 12.03 3.72 13.93 4.9 15.1L8.92 19.12ZM17.45 13L5.32 13C5.31 12.55 5.48 12.11 5.82 11.77L11.04 6.55L17.47 12.98L17.45 13ZM19.07 20C19.9 20 20.57 19.32 20.57 18.5C20.57 17.3 19.61 16.42 19.23 16.12C19.13 16.04 19 16.04 18.91 16.12C18.52 16.42 17.57 17.3 17.57 18.5C17.57 19.32 18.24 20 19.07 20Z" fill="#74767B" fill-opacity="1.000000" fill-rule="evenodd"/>
	</g>
</svg>
