<svg width="24" height="24" viewBox="0 0 24 24" fill="none" xmlns="http://www.w3.org/2000/svg">
<path d="M7.6516 5.3C7.46008 5.3 7.27474 5.32276 7.0978 5.36541C6.74867 5.44959 6.39738 5.23492 6.31317 4.88594C6.22896 4.53696 6.44373 4.18583 6.79286 4.10166C7.0689 4.0351 7.35658 4 7.6516 4H8.30892C8.66806 4 8.9592 4.29101 8.9592 4.65C8.9592 5.00898 8.66806 5.3 8.30892 5.3H7.6516Z" fill="#717681"/>
<path d="M10.6924 4.65C10.6924 4.29101 10.9835 4 11.3427 4H12.6573C13.0165 4 13.3076 4.29101 13.3076 4.65C13.3076 5.00898 13.0165 5.3 12.6573 5.3H11.3427C10.9835 5.3 10.6924 5.00898 10.6924 4.65Z" fill="#717681"/>
<path d="M15.0408 4.65C15.0408 4.29101 15.3319 4 15.6911 4H16.3484C16.6434 4 16.9311 4.0351 17.2071 4.10166C17.5563 4.18583 17.771 4.53696 17.6868 4.88594C17.6026 5.23492 17.2513 5.44959 16.9022 5.36541C16.7253 5.32276 16.5399 5.3 16.3484 5.3H15.6911C15.3319 5.3 15.0408 5.00898 15.0408 4.65Z" fill="#717681"/>
<path d="M4.88633 6.31216C5.23546 6.39633 5.45022 6.74747 5.36601 7.09645C5.32334 7.27331 5.30057 7.45856 5.30057 7.65V8.3072C5.30057 8.66619 5.00943 8.9572 4.65028 8.9572C4.29114 8.9572 4 8.66619 4 8.3072V7.65C4 7.35511 4.03512 7.06756 4.1017 6.79163C4.18591 6.44265 4.5372 6.22799 4.88633 6.31216Z" fill="#717681"/>
<path d="M19.1137 6.31216C19.4628 6.22799 19.8141 6.44265 19.8983 6.79163C19.9649 7.06756 20 7.35511 20 7.65V8.3072C20 8.66619 19.7089 8.9572 19.3497 8.9572C18.9906 8.9572 18.6994 8.66619 18.6994 8.3072V7.65C18.6994 7.45856 18.6767 7.27331 18.634 7.09645C18.5498 6.74747 18.7645 6.39633 19.1137 6.31216Z" fill="#717681"/>
<path d="M19.3497 10.6905C19.7089 10.6905 20 10.9815 20 11.3405V12.6549C20 13.0138 19.7089 13.3049 19.3497 13.3049C18.9906 13.3049 18.6994 13.0138 18.6994 12.6549V11.3405C18.6994 10.9815 18.9906 10.6905 19.3497 10.6905Z" fill="#717681"/>
<path d="M4.65028 10.6905C5.00943 10.6905 5.30057 10.9815 5.30057 11.3405V12.6549C5.30057 13.0138 5.00943 13.3049 4.65028 13.3049C4.29114 13.3049 4 13.0138 4 12.6549V11.3405C4 10.9815 4.29114 10.6905 4.65028 10.6905Z" fill="#717681"/>
<path d="M19.3497 15.0381C19.7089 15.0381 20 15.3291 20 15.6881V16.3453C20 16.6402 19.9649 16.9278 19.8983 17.2037C19.8141 17.5527 19.4628 17.7673 19.1137 17.6832C18.7645 17.599 18.5498 17.2478 18.634 16.8989C18.6767 16.722 18.6994 16.5367 18.6994 16.3453V15.6881C18.6994 15.3291 18.9906 15.0381 19.3497 15.0381Z" fill="#717681"/>
<path d="M4.65028 15.0381C5.00943 15.0381 5.30057 15.3291 5.30057 15.6881V16.3453C5.30057 16.5367 5.32334 16.722 5.36601 16.8989C5.45022 17.2478 5.23546 17.599 4.88633 17.6832C4.5372 17.7673 4.18591 17.5527 4.1017 17.2037C4.03512 16.9278 4 16.6402 4 16.3453V15.6881C4 15.3291 4.29114 15.0381 4.65028 15.0381Z" fill="#717681"/>
<path d="M6.31317 19.1094C6.39738 18.7604 6.74867 18.5457 7.0978 18.6299C7.27474 18.6726 7.46008 18.6953 7.6516 18.6953H8.30892C8.66806 18.6953 8.9592 18.9863 8.9592 19.3453C8.9592 19.7043 8.66806 19.9953 8.30892 19.9953H7.6516C7.35658 19.9953 7.0689 19.9602 6.79285 19.8937C6.44372 19.8095 6.22896 19.4583 6.31317 19.1094Z" fill="#717681"/>
<path d="M17.6868 19.1094C17.771 19.4583 17.5563 19.8095 17.2071 19.8937C16.9311 19.9602 16.6434 19.9953 16.3484 19.9953H15.6911C15.3319 19.9953 15.0408 19.7043 15.0408 19.3453C15.0408 18.9863 15.3319 18.6953 15.6911 18.6953H16.3484C16.5399 18.6953 16.7253 18.6726 16.9022 18.6299C17.2513 18.5457 17.6026 18.7604 17.6868 19.1094Z" fill="#717681"/>
<path d="M10.6924 19.3453C10.6924 18.9863 10.9835 18.6953 11.3427 18.6953H12.6573C13.0165 18.6953 13.3076 18.9863 13.3076 19.3453C13.3076 19.7043 13.0165 19.9953 12.6573 19.9953H11.3427C10.9835 19.9953 10.6924 19.7043 10.6924 19.3453Z" fill="#717681"/>
<path d="M11.9949 9.57151C11.6358 9.57151 11.3446 9.28049 11.3446 8.92151V7.72639C11.3446 7.36741 11.6358 7.07639 11.9949 7.07639C12.3541 7.07639 12.6452 7.36741 12.6452 7.72639V8.92151C12.6452 9.28049 12.3541 9.57151 11.9949 9.57151Z" fill="#717681"/>
<path d="M15.0724 11.3479C14.7133 11.3479 14.4221 11.6389 14.4221 11.9979C14.4221 12.3569 14.7133 12.6479 15.0724 12.6479H16.2681C16.6272 12.6479 16.9184 12.3569 16.9184 11.9979C16.9184 11.6389 16.6272 11.3479 16.2681 11.3479H15.0724Z" fill="#717681"/>
<path d="M11.9949 16.9192C11.6358 16.9192 11.3446 16.6281 11.3446 16.2692V15.074C11.3446 14.7151 11.6358 14.424 11.9949 14.424C12.3541 14.424 12.6452 14.7151 12.6452 15.074V16.2692C12.6452 16.6281 12.3541 16.9192 11.9949 16.9192Z" fill="#717681"/>
<path d="M7.72155 11.3479C7.36241 11.3479 7.07127 11.6389 7.07127 11.9979C7.07127 12.3569 7.36241 12.6479 7.72155 12.6479H8.91719C9.27634 12.6479 9.56748 12.3569 9.56748 11.9979C9.56748 11.6389 9.27634 11.3479 8.91719 11.3479H7.72155Z" fill="#717681"/>
</svg>
