<svg width="24.000000" height="24.000000" viewBox="0 0 24 24" fill="none" xmlns="http://www.w3.org/2000/svg" xmlns:xlink="http://www.w3.org/1999/xlink">
	<desc>
			Created with Pixso.
	</desc>
	<defs>
		<clipPath id="clip7011_967">
			<rect id="Outline / Border Bold Right Outline" width="24.000000" height="24.000000" transform="matrix(1 -6.12324e-17 -6.12324e-17 -1 0 24)" fill="white" fill-opacity="0"/>
		</clipPath>
	</defs>
	<g>
		<path id="Shape" d="M15.67 4C15.31 4 15.02 4.29 15.02 4.65C15.02 5.01 15.31 5.3 15.67 5.3L16.33 5.3C16.37 5.3 16.41 5.3 16.45 5.3L16.45 11.38C16.38 11.36 16.32 11.35 16.25 11.35L15.06 11.35C14.7 11.35 14.41 11.64 14.41 12C14.41 12.36 14.7 12.65 15.06 12.65L16.25 12.65C16.32 12.65 16.38 12.64 16.45 12.62L16.45 18.69C16.41 18.7 16.37 18.7 16.33 18.7L15.67 18.7C15.31 18.7 15.02 18.99 15.02 19.35C15.02 19.71 15.31 20 15.67 20L16.33 20C16.37 20 16.41 20 16.45 19.99L17 20C18.65 20 20 18.65 20 17L20 7C20 5.34 18.65 4 17 4L16.45 4L16.45 4C16.41 4 16.37 4 16.33 4L15.67 4ZM7.09 5.37C7.27 5.32 7.45 5.3 7.64 5.3L8.3 5.3C8.66 5.3 8.95 5.01 8.95 4.65C8.95 4.29 8.66 4 8.3 4L7.64 4C7.35 4 7.06 4.04 6.79 4.1C6.49 4.17 6.29 4.44 6.29 4.73C6.29 4.78 6.29 4.84 6.31 4.89C6.39 5.24 6.74 5.45 7.09 5.37ZM11.33 4C10.97 4 10.68 4.29 10.68 4.65C10.68 5.01 10.97 5.3 11.33 5.3L12.64 5.3C13 5.3 13.29 5.01 13.29 4.65C13.29 4.29 13 4 12.64 4L11.33 4ZM5.36 7.1C5.37 7.05 5.38 7 5.38 6.94C5.38 6.65 5.18 6.39 4.88 6.31C4.53 6.23 4.18 6.44 4.1 6.79C4.03 7.07 4 7.36 4 7.65L4 8.31C4 8.67 4.29 8.96 4.64 8.96C5 8.96 5.29 8.67 5.29 8.31L5.29 7.65C5.29 7.46 5.32 7.27 5.36 7.1ZM11.98 9.57C12.34 9.57 12.63 9.28 12.63 8.92L12.63 7.73C12.63 7.37 12.34 7.08 11.98 7.08C11.62 7.08 11.33 7.37 11.33 7.73L11.33 8.92C11.33 9.28 11.62 9.57 11.98 9.57ZM5.29 11.34C5.29 10.98 5 10.69 4.64 10.69C4.29 10.69 4 10.98 4 11.34L4 12.66C4 13.02 4.29 13.31 4.64 13.31C5 13.31 5.29 13.02 5.29 12.66L5.29 11.34ZM7.71 11.35C7.35 11.35 7.06 11.64 7.06 12C7.06 12.36 7.35 12.65 7.71 12.65L8.91 12.65C9.27 12.65 9.56 12.36 9.56 12C9.56 11.64 9.27 11.35 8.91 11.35L7.71 11.35ZM11.98 16.92C12.34 16.92 12.63 16.63 12.63 16.27L12.63 15.07C12.63 14.71 12.34 14.42 11.98 14.42C11.62 14.42 11.33 14.71 11.33 15.07L11.33 16.27C11.33 16.63 11.62 16.92 11.98 16.92ZM5.29 15.69C5.29 15.33 5 15.04 4.64 15.04C4.29 15.04 4 15.33 4 15.69L4 16.35C4 16.64 4.03 16.93 4.1 17.2C4.18 17.55 4.53 17.77 4.88 17.68C5.18 17.61 5.38 17.35 5.38 17.05C5.38 17 5.37 16.95 5.36 16.9C5.32 16.72 5.29 16.54 5.29 16.35L5.29 15.69ZM7.09 18.63C6.74 18.55 6.39 18.76 6.31 19.11C6.29 19.16 6.29 19.21 6.29 19.26C6.29 19.56 6.49 19.82 6.79 19.89C7.06 19.96 7.35 20 7.64 20L8.3 20C8.66 20 8.95 19.71 8.95 19.35C8.95 18.99 8.66 18.7 8.3 18.7L7.64 18.7C7.45 18.7 7.27 18.67 7.09 18.63ZM11.33 18.7C10.97 18.7 10.68 18.99 10.68 19.35C10.68 19.71 10.97 20 11.33 20L12.64 20C13 20 13.29 19.71 13.29 19.35C13.29 18.99 13 18.7 12.64 18.7L11.33 18.7Z" fill="#717681" fill-opacity="1.000000" fill-rule="evenodd"/>
	</g>
</svg>
