<svg width="24.000000" height="24.000000" viewBox="0 0 24 24" fill="none" xmlns="http://www.w3.org/2000/svg" xmlns:xlink="http://www.w3.org/1999/xlink">
	<desc>
			Created with Pixso.
	</desc>
	<defs>
		<clipPath id="clip7011_956">
			<rect id="Outline / Border Horizontal Outline" width="24.000000" height="24.000000" transform="matrix(1 -6.12324e-17 -6.12324e-17 -1 0 24)" fill="white" fill-opacity="0"/>
		</clipPath>
	</defs>
	<g>
		<path id="Shape" d="M7.09 5.36C7.27 5.32 7.45 5.3 7.65 5.3L8.3 5.3C8.66 5.3 8.95 5 8.95 4.64C8.95 4.29 8.66 4 8.3 4L7.65 4C7.35 4 7.06 4.03 6.79 4.1C6.49 4.17 6.29 4.43 6.29 4.73C6.29 4.78 6.3 4.83 6.31 4.88C6.39 5.23 6.74 5.44 7.09 5.36ZM11.34 4C10.98 4 10.69 4.29 10.69 4.64C10.69 5 10.98 5.3 11.34 5.3L12.65 5.3C13.01 5.3 13.3 5 13.3 4.64C13.3 4.29 13.01 4 12.65 4L11.34 4ZM15.69 4C15.33 4 15.04 4.29 15.04 4.64C15.04 5 15.33 5.3 15.69 5.3L16.34 5.3C16.54 5.3 16.72 5.32 16.9 5.36C17.25 5.44 17.6 5.23 17.68 4.88C17.69 4.83 17.7 4.78 17.7 4.73C17.7 4.43 17.5 4.17 17.2 4.1C16.93 4.03 16.64 4 16.34 4L15.69 4ZM5.38 6.94C5.38 6.65 5.18 6.38 4.88 6.31C4.53 6.22 4.18 6.44 4.1 6.79C4.03 7.06 4 7.35 4 7.64L4 8.3C4 8.66 4.29 8.95 4.65 8.95C5 8.95 5.3 8.66 5.3 8.3L5.3 7.64C5.3 7.45 5.32 7.27 5.36 7.09C5.37 7.04 5.38 6.99 5.38 6.94ZM19.89 6.79C19.81 6.44 19.46 6.22 19.11 6.31C18.81 6.38 18.61 6.65 18.61 6.94C18.61 6.99 18.62 7.04 18.63 7.09C18.67 7.27 18.69 7.45 18.69 7.64L18.69 8.3C18.69 8.66 18.99 8.95 19.34 8.95C19.7 8.95 20 8.66 20 8.3L20 7.64C20 7.35 19.96 7.06 19.89 6.79ZM11.34 8.92C11.34 9.28 11.63 9.57 11.99 9.57C12.35 9.57 12.64 9.28 12.64 8.92L12.64 7.72C12.64 7.36 12.35 7.07 11.99 7.07C11.63 7.07 11.34 7.36 11.34 7.72L11.34 8.92ZM4 11.99C4 12.35 4.29 12.64 4.65 12.64L19.34 12.64C19.7 12.64 19.99 12.35 19.99 11.99C19.99 11.63 19.7 11.34 19.34 11.34L4.65 11.34C4.29 11.34 4 11.63 4 11.99ZM11.34 16.26C11.34 16.62 11.63 16.91 11.99 16.91C12.35 16.91 12.64 16.62 12.64 16.26L12.64 15.07C12.64 14.71 12.35 14.42 11.99 14.42C11.63 14.42 11.34 14.71 11.34 15.07L11.34 16.26ZM20 15.68C20 15.32 19.7 15.03 19.34 15.03C18.99 15.03 18.69 15.32 18.69 15.68L18.69 16.34C18.69 16.53 18.67 16.72 18.63 16.89C18.62 16.95 18.61 17 18.61 17.05C18.61 17.34 18.81 17.61 19.11 17.68C19.46 17.76 19.81 17.55 19.89 17.2C19.96 16.92 20 16.64 20 16.34L20 15.68ZM5.3 15.68C5.3 15.32 5 15.03 4.65 15.03C4.29 15.03 4 15.32 4 15.68L4 16.34C4 16.64 4.03 16.92 4.1 17.2C4.18 17.55 4.53 17.76 4.88 17.68C5.18 17.61 5.38 17.34 5.38 17.05C5.38 17 5.37 16.95 5.36 16.89C5.32 16.72 5.3 16.53 5.3 16.34L5.3 15.68ZM7.09 18.62C6.74 18.54 6.39 18.76 6.31 19.1C6.3 19.16 6.29 19.21 6.29 19.26C6.29 19.55 6.49 19.82 6.79 19.89C7.06 19.96 7.35 19.99 7.65 19.99L8.3 19.99C8.66 19.99 8.95 19.7 8.95 19.34C8.95 18.98 8.66 18.69 8.3 18.69L7.65 18.69C7.45 18.69 7.27 18.67 7.09 18.62ZM17.7 19.26C17.7 19.21 17.69 19.16 17.68 19.1C17.6 18.76 17.25 18.54 16.9 18.62C16.72 18.67 16.54 18.69 16.34 18.69L15.69 18.69C15.33 18.69 15.04 18.98 15.04 19.34C15.04 19.7 15.33 19.99 15.69 19.99L16.34 19.99C16.64 19.99 16.93 19.96 17.2 19.89C17.5 19.82 17.7 19.55 17.7 19.26ZM10.69 19.34C10.69 19.7 10.98 19.99 11.34 19.99L12.65 19.99C13.01 19.99 13.3 19.7 13.3 19.34C13.3 18.98 13.01 18.69 12.65 18.69L11.34 18.69C10.98 18.69 10.69 18.98 10.69 19.34Z" fill="#717681" fill-opacity="1.000000" fill-rule="evenodd"/>
	</g>
</svg>
