<svg width="24.000000" height="24.000000" viewBox="0 0 24 24" fill="none" xmlns="http://www.w3.org/2000/svg" xmlns:xlink="http://www.w3.org/1999/xlink">
	<desc>
			Created with Pixso.
	</desc>
	<defs>
		<clipPath id="clip7021_1406">
			<rect id="Outline / Border Style Outline" width="24.000000" height="24.000000" fill="white" fill-opacity="0"/>
		</clipPath>
	</defs>
	<g clip-path="url(#clip7021_1406)">
		<path id="Shape" d="M4 6.65C4 6.29 4.29 6 4.65 6L19.35 6C19.71 6 20 6.29 20 6.65C20 7.01 19.71 7.3 19.35 7.3L4.65 7.3C4.29 7.3 4 7.01 4 6.65ZM4 12C4 11.64 4.29 11.35 4.65 11.35L10.34 11.35C10.7 11.35 10.99 11.64 10.99 12C10.99 12.35 10.7 12.65 10.34 12.65L4.65 12.65C4.29 12.65 4 12.35 4 12ZM13 12C13 11.64 13.29 11.35 13.65 11.35L19.35 11.35C19.71 11.35 20 11.64 20 12C20 12.35 19.71 12.65 19.35 12.65L13.65 12.65C13.29 12.65 13 12.35 13 12ZM4 17.35C4 16.99 4.29 16.7 4.65 16.7L5.84 16.7C6.2 16.7 6.49 16.99 6.49 17.35C6.49 17.7 6.2 18 5.84 18L4.65 18C4.29 18 4 17.7 4 17.35ZM8.49 17.35C8.49 16.99 8.78 16.7 9.14 16.7L10.34 16.7C10.7 16.7 10.99 16.99 10.99 17.35C10.99 17.7 10.7 18 10.34 18L9.14 18C8.78 18 8.49 17.7 8.49 17.35ZM12.99 17.35C12.99 16.99 13.28 16.7 13.64 16.7L14.83 16.7C15.19 16.7 15.48 16.99 15.48 17.35C15.48 17.7 15.19 18 14.83 18L13.64 18C13.28 18 12.99 17.7 12.99 17.35ZM17.48 17.35C17.48 16.99 17.77 16.7 18.13 16.7L19.33 16.7C19.69 16.7 19.98 16.99 19.98 17.35C19.98 17.7 19.69 18 19.33 18L18.13 18C17.77 18 17.48 17.7 17.48 17.35Z" fill="#74767B" fill-opacity="1.000000" fill-rule="evenodd"/>
	</g>
</svg>
