<svg width="24.000000" height="24.000000" viewBox="0 0 24 24" fill="none" xmlns="http://www.w3.org/2000/svg" xmlns:xlink="http://www.w3.org/1999/xlink">
	<desc>
			Created with Pixso.
	</desc>
	<defs>
		<clipPath id="clip7011_959">
			<rect id="Outline / Border Left Outline" width="24.000000" height="24.000000" transform="matrix(1 -6.12324e-17 -6.12324e-17 -1 0 24)" fill="white" fill-opacity="0"/>
		</clipPath>
	</defs>
	<g>
		<path id="Shape" d="M5.29 7.65C5.3 6.36 6.35 5.3 7.64 5.3L8 5.3C8.04 5.3 8.08 5.3 8.11 5.3L8.3 5.3C8.66 5.3 8.95 5 8.95 4.65C8.95 4.29 8.66 4 8.3 4L7.64 4C7.35 4 7.06 4.03 6.79 4.1C6.75 4.11 6.71 4.12 6.67 4.14C5.42 4.48 4.44 5.47 4.11 6.73C4.11 6.75 4.1 6.77 4.1 6.79C4.03 7.06 4 7.35 4 7.65L4 16.34C4 18.36 5.63 19.99 7.64 19.99L8 19.99L8.01 19.99L8.3 19.99C8.66 19.99 8.95 19.7 8.95 19.34C8.95 18.98 8.66 18.69 8.3 18.69L7.64 18.69C7.56 18.69 7.48 18.69 7.39 18.68C6.21 18.55 5.29 17.55 5.29 16.34L5.29 7.65ZM11.34 4C10.98 4 10.69 4.29 10.69 4.65C10.69 5 10.98 5.3 11.34 5.3L12.65 5.3C13.01 5.3 13.3 5 13.3 4.65C13.3 4.29 13.01 4 12.65 4L11.34 4ZM15.69 4C15.33 4 15.04 4.29 15.04 4.65C15.04 5 15.33 5.3 15.69 5.3L16.34 5.3C16.54 5.3 16.72 5.32 16.9 5.36C17.25 5.44 17.6 5.23 17.68 4.88C17.69 4.83 17.7 4.78 17.7 4.73C17.7 4.43 17.5 4.17 17.2 4.1C16.93 4.03 16.64 4 16.34 4L15.69 4ZM19.89 6.79C19.81 6.44 19.46 6.22 19.11 6.31C18.81 6.38 18.61 6.65 18.61 6.94C18.61 6.99 18.62 7.04 18.63 7.09C18.67 7.27 18.69 7.45 18.69 7.65L18.69 8.3C18.69 8.66 18.99 8.95 19.34 8.95C19.7 8.95 19.99 8.66 19.99 8.3L19.99 7.65C19.99 7.35 19.96 7.06 19.89 6.79ZM11.99 9.57C12.35 9.57 12.64 9.28 12.64 8.92L12.64 7.72C12.64 7.36 12.35 7.07 11.99 7.07C11.63 7.07 11.34 7.36 11.34 7.72L11.34 8.92C11.34 9.28 11.63 9.57 11.99 9.57ZM19.99 11.34C19.99 10.98 19.7 10.69 19.34 10.69C18.99 10.69 18.69 10.98 18.69 11.34L18.69 12.65C18.69 13.01 18.99 13.3 19.34 13.3C19.7 13.3 19.99 13.01 19.99 12.65L19.99 11.34ZM7.72 11.34C7.36 11.34 7.07 11.63 7.07 11.99C7.07 12.35 7.36 12.64 7.72 12.64L8.91 12.64C9.27 12.64 9.56 12.35 9.56 11.99C9.56 11.63 9.27 11.34 8.91 11.34L7.72 11.34ZM15.07 11.34C14.71 11.34 14.42 11.63 14.42 11.99C14.42 12.35 14.71 12.64 15.07 12.64L16.26 12.64C16.62 12.64 16.91 12.35 16.91 11.99C16.91 11.63 16.62 11.34 16.26 11.34L15.07 11.34ZM11.99 16.91C12.35 16.91 12.64 16.62 12.64 16.26L12.64 15.07C12.64 14.71 12.35 14.42 11.99 14.42C11.63 14.42 11.34 14.71 11.34 15.07L11.34 16.26C11.34 16.62 11.63 16.91 11.99 16.91ZM19.99 15.68C19.99 15.32 19.7 15.03 19.34 15.03C18.99 15.03 18.69 15.32 18.69 15.68L18.69 16.34C18.69 16.53 18.67 16.72 18.63 16.89C18.62 16.95 18.61 17 18.61 17.05C18.61 17.34 18.81 17.61 19.11 17.68C19.46 17.76 19.81 17.55 19.89 17.2C19.96 16.92 19.99 16.64 19.99 16.34L19.99 15.68ZM17.2 19.89C17.5 19.82 17.7 19.55 17.7 19.26C17.7 19.21 17.69 19.16 17.68 19.1C17.6 18.76 17.25 18.54 16.9 18.62C16.72 18.67 16.54 18.69 16.34 18.69L15.69 18.69C15.33 18.69 15.04 18.98 15.04 19.34C15.04 19.7 15.33 19.99 15.69 19.99L16.34 19.99C16.64 19.99 16.93 19.96 17.2 19.89ZM11.34 18.69C10.98 18.69 10.69 18.98 10.69 19.34C10.69 19.7 10.98 19.99 11.34 19.99L12.65 19.99C13.01 19.99 13.3 19.7 13.3 19.34C13.3 18.98 13.01 18.69 12.65 18.69L11.34 18.69Z" fill="#717681" fill-opacity="1.000000" fill-rule="evenodd"/>
	</g>
</svg>
