<svg width="24.000000" height="24.000000" viewBox="0 0 24 24" fill="none" xmlns="http://www.w3.org/2000/svg" xmlns:xlink="http://www.w3.org/1999/xlink">
	<desc>
			Created with Pixso.
	</desc>
	<defs>
		<clipPath id="clip17_1177">
			<rect id="Outline / Cells Merge Outline" width="24.000000" height="24.000000" transform="matrix(1 -6.12324e-17 -6.12324e-17 -1 0 24)" fill="white" fill-opacity="0"/>
		</clipPath>
	</defs>
	<g clip-path="url(#clip17_1177)">
		<path id="Shape" d="M7 4C5.34 4 4 5.34 4 7L4 17C4 18.66 5.34 20 7 20L17 20C18.65 20 20 18.66 20 17L20 7C20 5.34 18.65 4 17 4L7 4ZM11.34 5.29L7 5.29C6.06 5.29 5.29 6.06 5.29 7L5.29 8.9L11.34 8.9L11.34 5.29ZM12.64 5.29L17 5.29C17.93 5.29 18.7 6.06 18.7 7L18.7 8.9L12.64 8.9L12.64 5.29ZM5.29 13.79L5.29 10.2L18.7 10.2L18.7 13.79L5.29 13.79ZM5.29 15.09L5.29 17C5.29 17.94 6.06 18.7 7 18.7L11.32 18.7L11.32 15.09L5.29 15.09ZM12.62 15.09L12.62 18.7L17 18.7C17.93 18.7 18.7 17.94 18.7 17L18.7 15.09L12.62 15.09Z" fill="#717681" fill-opacity="1.000000" fill-rule="evenodd"/>
	</g>
</svg>
