<svg width="24.000000" height="24.000000" viewBox="0 0 24 24" fill="none" xmlns="http://www.w3.org/2000/svg" xmlns:xlink="http://www.w3.org/1999/xlink">
	<desc>
			Created with Pixso.
	</desc>
	<defs>
		<clipPath id="clip6746_1220">
			<rect id="Outline / Columns Outline" width="24.000000" height="24.000000" fill="white" fill-opacity="0"/>
		</clipPath>
	</defs>
	<g>
		<path id="Shape" d="M4.89 6C4.54 6 4.25 6.29 4.25 6.65C4.25 7.01 4.54 7.31 4.89 7.31L9.93 7.31C10.29 7.31 10.58 7.01 10.58 6.65C10.58 6.29 10.29 6 9.93 6L4.89 6ZM14.05 6C13.69 6 13.4 6.29 13.4 6.65C13.4 7.01 13.69 7.31 14.05 7.31L19.09 7.31C19.45 7.31 19.75 7.01 19.75 6.65C19.75 6.29 19.45 6 19.09 6L14.05 6ZM13.4 11.99C13.4 11.63 13.69 11.34 14.05 11.34L19.09 11.34C19.45 11.34 19.75 11.63 19.75 11.99C19.75 12.35 19.45 12.65 19.09 12.65L14.05 12.65C13.69 12.65 13.4 12.35 13.4 11.99ZM4.89 11.34C4.54 11.34 4.25 11.63 4.25 12C4.25 12.36 4.54 12.65 4.89 12.65L9.93 12.65C10.29 12.65 10.58 12.36 10.58 12C10.58 11.63 10.29 11.34 9.93 11.34L4.89 11.34ZM13.4 17.34C13.4 16.97 13.69 16.68 14.05 16.68L19.09 16.68C19.45 16.68 19.75 16.97 19.75 17.34C19.75 17.7 19.45 17.99 19.09 17.99L14.05 17.99C13.69 17.99 13.4 17.7 13.4 17.34ZM4.9 16.68C4.54 16.68 4.25 16.98 4.25 17.34C4.25 17.7 4.54 18 4.9 18L9.93 18C10.29 18 10.58 17.7 10.58 17.34C10.58 16.98 10.29 16.68 9.93 16.68L4.9 16.68Z" fill="#717681" fill-opacity="1.000000" fill-rule="evenodd"/>
	</g>
</svg>
