<svg width="24.000000" height="24.000000" viewBox="0 0 24 24" fill="none" xmlns="http://www.w3.org/2000/svg" xmlns:xlink="http://www.w3.org/1999/xlink">
	<desc>
			Created with Pixso.
	</desc>
	<defs>
		<clipPath id="clip108376_1126">
			<rect id="Outline / Delete Table Outline" width="24.000000" height="24.000000" fill="white" fill-opacity="0"/>
		</clipPath>
	</defs>
	<g clip-path="url(#clip108376_1126)">
		<path id="Shape" d="M4.99 2.13C5.28 1.91 5.68 1.96 5.9 2.25L7.29 4.05L17 4.05C18.65 4.05 20 5.39 20 7.05L20 17.12C20 17.98 19.63 18.77 19.04 19.32L20.32 20.98C20.53 21.26 20.48 21.67 20.2 21.89C19.91 22.11 19.5 22.06 19.29 21.77L4.87 3.04C4.65 2.76 4.71 2.35 4.99 2.13ZM18.24 18.28C18.52 17.97 18.7 17.56 18.7 17.12L18.7 12.66L13.91 12.66L18.24 18.28ZM12.91 11.36L12.65 11.01L12.65 5.35L17 5.35C17.93 5.35 18.7 6.11 18.7 7.05L18.7 11.36L12.91 11.36ZM11.35 9.33L8.29 5.35L11.35 5.35L11.35 9.33ZM4 7.05C4 6.27 4.29 5.56 4.78 5.03L5.59 6.09C5.4 6.36 5.29 6.69 5.29 7.05L5.29 11.36L9.65 11.36L10.65 12.66L5.29 12.66L5.29 17.12C5.29 18.05 6.06 18.82 7 18.82L11.35 18.82L11.35 13.57L12.65 15.26L12.65 18.82L15.38 18.82L16.38 20.12L7 20.12C5.34 20.12 4 18.77 4 17.12L4 7.05Z" fill="#717681" fill-opacity="1.000000" fill-rule="evenodd"/>
	</g>
</svg>
