<svg width="24" height="24" viewBox="0 0 24 24" fill="none" xmlns="http://www.w3.org/2000/svg">
<path fill-rule="evenodd" clip-rule="evenodd" d="M4.99753 2.13492C5.28205 1.91601 5.69015 1.9692 5.90906 2.25372L7.29478 4.05478H17C18.6569 4.05478 20 5.39792 20 7.05477V17.1206C20 17.9896 19.6305 18.7724 19.04 19.3203L20.3202 20.9842C20.5391 21.2688 20.4859 21.6769 20.2014 21.8958C19.9169 22.1147 19.5088 22.0615 19.2899 21.777L4.87873 3.04645C4.65982 2.76193 4.71301 2.35382 4.99753 2.13492ZM18.2413 18.2822C18.5258 17.9782 18.7 17.5698 18.7 17.1206V12.6654H13.9197L18.2413 18.2822ZM12.9195 11.3654L12.6536 11.0197V5.35478H17C17.9389 5.35478 18.7 6.11589 18.7 7.05477V11.3654H12.9195ZM11.3536 9.33007L8.29499 5.35478H11.3536L11.3536 9.33007ZM4 7.05477C4 6.27658 4.2963 5.56759 4.78224 5.03447L5.59738 6.09393C5.40978 6.36727 5.3 6.6982 5.3 7.05477L5.3 11.3654L9.65319 11.3654L10.6534 12.6654L5.3 12.6654V17.1206C5.3 18.0595 6.06111 18.8206 7 18.8206H11.3536V13.5754L12.6536 15.265V18.8206H15.3892L16.3894 20.1206H7C5.34314 20.1206 4 18.7774 4 17.1206V7.05477Z" fill="#717681"/>
</svg>
