<svg width="24.000000" height="24.000000" viewBox="0 0 24 24" fill="none" xmlns="http://www.w3.org/2000/svg" xmlns:xlink="http://www.w3.org/1999/xlink">
	<desc>
			Created with Pixso.
	</desc>
	<defs>
		<clipPath id="clip108380_1130">
			<rect id="Outline / Element Grow Vertically Outline" width="24.000000" height="24.000000" transform="translate(24.000000 24.000000) rotate(-179.999985)" fill="white" fill-opacity="0"/>
		</clipPath>
	</defs>
	<g>
		<path id="Shape" d="M4.29 4.64C4.29 4.29 4 4 3.64 4C3.29 4 3 4.29 3 4.64L3 19.35C3 19.7 3.29 20 3.64 20C4 20 4.29 19.7 4.29 19.35L4.29 4.64ZM21 4.64C21 4.29 20.7 4 20.35 4C19.99 4 19.7 4.29 19.7 4.64L19.7 19.35C19.7 19.7 19.99 20 20.35 20C20.7 20 21 19.7 21 19.35L21 4.64ZM6.12 15.33L8.7 12.74C8.96 12.49 9.37 12.49 9.62 12.74C9.88 13 9.88 13.41 9.62 13.66L8.06 15.22L14.26 15.22C15.56 15.22 16.61 14.17 16.61 12.87L16.61 10.3C16.61 9 15.56 7.95 14.26 7.95L10.04 7.95C9.68 7.95 9.39 7.66 9.39 7.3C9.39 6.95 9.68 6.65 10.04 6.65L14.26 6.65C16.27 6.65 17.91 8.29 17.91 10.3L17.91 12.87C17.91 14.89 16.27 16.52 14.26 16.52L8.23 16.52L9.62 17.91C9.88 18.17 9.88 18.58 9.62 18.83C9.37 19.08 8.96 19.08 8.7 18.83L6.12 16.25C5.87 15.99 5.87 15.58 6.12 15.33Z" fill="#717681" fill-opacity="1.000000" fill-rule="evenodd"/>
	</g>
</svg>
