<svg width="24.000000" height="24.000000" viewBox="0 0 24 24" fill="none" xmlns="http://www.w3.org/2000/svg" xmlns:xlink="http://www.w3.org/1999/xlink">
	<desc>
			Created with Pixso.
	</desc>
	<defs>
		<clipPath id="clip17_1149">
			<rect id="Outline / Element Grow Horizontally Outline" width="24.000000" height="24.000000" transform="matrix(1 -8.74228e-08 -8.74228e-08 -1 0 24)" fill="white" fill-opacity="0"/>
		</clipPath>
	</defs>
	<g clip-path="url(#clip17_1149)">
		<path id="Shape" d="M5.29 4.64C5.29 4.29 5 4 4.64 4C4.29 4 4 4.29 4 4.64L4 19.34C4 19.7 4.29 19.99 4.64 19.99C5 19.99 5.29 19.7 5.29 19.34L5.29 4.64ZM19.8 11.54C20.06 11.79 20.06 12.21 19.8 12.46L16.24 16.02C15.99 16.27 15.58 16.27 15.32 16.02C15.07 15.76 15.07 15.35 15.32 15.1L17.78 12.65L7.66 12.65C7.3 12.65 7.01 12.36 7.01 12C7.01 11.64 7.3 11.35 7.66 11.35L17.78 11.35L15.32 8.9C15.07 8.65 15.07 8.24 15.32 7.98C15.58 7.73 15.99 7.73 16.24 7.98L19.8 11.54ZM11.99 4C12.35 4 12.64 4.29 12.64 4.65L12.64 9.36C12.64 9.72 12.35 10.01 11.99 10.01C11.63 10.01 11.34 9.72 11.34 9.36L11.34 4.65C11.34 4.29 11.63 4 11.99 4ZM12.64 14.64C12.64 14.28 12.35 13.99 11.99 13.99C11.63 13.99 11.34 14.28 11.34 14.64L11.34 19.35C11.34 19.7 11.63 20 11.99 20C12.35 20 12.64 19.7 12.64 19.35L12.64 14.64Z" fill="#74767B" fill-opacity="1.000000" fill-rule="evenodd"/>
	</g>
</svg>
