<svg viewBox="0 0 24 24" xmlns="http://www.w3.org/2000/svg" xmlns:xlink="http://www.w3.org/1999/xlink" width="24.000000" height="24.000000" fill="none">
	<rect id="Outline/Element Grow Vertically Outline" width="24.000000" height="24.000000" x="0.000000" y="0.000000" transform="matrix(-1,-8.74228e-08,8.74228e-08,-1,24,24)" />
	<path id="Shape" d="M16.7016 15.3509C16.7016 15.7094 16.9923 16 17.3508 16C17.7094 16 18 15.7094 18 15.3509L18 0.649083C18 0.290605 17.7094 0 17.3508 0C16.9923 0 16.7016 0.290605 16.7016 0.649084L16.7016 15.3509ZM2.02399e-06 15.3509C2.07101e-06 15.7094 0.290649 16 0.649179 16C1.00771 16 1.29836 15.7094 1.29836 15.3509L1.29835 0.649085C1.29835 0.290606 1.00771 -4.52829e-07 0.649177 1.45183e-06C0.290646 1.49884e-06 0 0.290606 0 0.649085L2.02399e-06 15.3509ZM14.8756 4.66681L12.2912 7.25086C12.0377 7.50435 11.6267 7.50435 11.3731 7.25086C11.1196 6.99738 11.1196 6.5864 11.3731 6.33292L12.931 4.77526L6.73356 4.77526C5.43734 4.77526 4.38654 5.82591 4.38654 7.12195L4.38654 9.69515C4.38654 10.9912 5.43734 12.0418 6.73356 12.0418L10.9544 12.0418C11.313 12.0418 11.6036 12.3324 11.6036 12.6909C11.6036 13.0494 11.313 13.34 10.9544 13.34L6.73356 13.34C4.72027 13.34 3.08818 11.7081 3.08818 9.69515L3.08818 7.12195C3.08818 5.10895 4.72028 3.4771 6.73356 3.4771L12.7677 3.4771L11.3731 2.08276C11.1196 1.82928 11.1196 1.4183 11.3731 1.16482C11.6267 0.911335 12.0377 0.911335 12.2912 1.16482L14.8756 3.74887C15.1291 4.00235 15.1291 4.41333 14.8756 4.66681Z" fill="rgb(116,118,123)" fill-rule="evenodd" transform="matrix(-1,-8.74228e-08,8.74228e-08,-1,21,20)" />
</svg>
