<svg width="24.000000" height="24.000000" viewBox="0 0 24 24" fill="none" xmlns="http://www.w3.org/2000/svg" xmlns:xlink="http://www.w3.org/1999/xlink">
	<desc>
			Created with Pixso.
	</desc>
	<defs>
		<clipPath id="clip17_1158">
			<rect id="Outline / Eraser Outline" width="24.000000" height="24.000000" transform=" rotate(0.000010)" fill="white" fill-opacity="0"/>
		</clipPath>
	</defs>
	<g clip-path="url(#clip17_1158)">
		<path id="Shape" d="M15.99 4.71L19.23 7.95C19.89 8.61 19.89 9.69 19.23 10.35L15.55 14.04L9.91 8.4L13.59 4.71C14.25 4.05 15.33 4.05 15.99 4.71ZM8.99 9.32L4.8 13.51C4.13 14.17 4.13 15.25 4.8 15.91L8.03 19.15C8.33 19.45 8.71 19.61 9.11 19.64L9.36 19.64C9.75 19.61 10.14 19.45 10.44 19.15L14.63 14.96L8.99 9.32ZM11.78 19.64L20.15 11.27C21.32 10.1 21.32 8.2 20.15 7.03L16.91 3.79C15.74 2.62 13.84 2.62 12.67 3.79L3.88 12.59C2.7 13.76 2.7 15.66 3.88 16.83L7.11 20.07C7.64 20.6 8.32 20.89 9.02 20.94C9.03 20.94 9.04 20.94 9.06 20.94C9.17 20.95 9.29 20.95 9.4 20.94L16.42 20.94C16.77 20.94 17.07 20.65 17.07 20.29C17.07 19.93 16.77 19.64 16.42 19.64L11.78 19.64Z" fill="#74767B" fill-opacity="1.000000" fill-rule="evenodd"/>
	</g>
</svg>
