<svg width="24.000000" height="24.000000" viewBox="0 0 24 24" fill="none" xmlns="http://www.w3.org/2000/svg" xmlns:xlink="http://www.w3.org/1999/xlink">
	<desc>
			Created with Pixso.
	</desc>
	<defs>
		<clipPath id="clip4179_670">
			<rect id="Solid / Eraser Solid" width="24.000000" height="24.000000" fill="white" fill-opacity="0"/>
		</clipPath>
	</defs>
	<g >
		<path id="Shape" d="M4.8 13.51L8.99 9.32L14.63 14.96L10.44 19.15C10.14 19.45 9.75 19.61 9.36 19.64L9.11 19.64C8.72 19.61 8.33 19.45 8.03 19.15L4.8 15.91C4.13 15.25 4.13 14.17 4.8 13.51ZM16.47 14.96L11.78 19.64L16.42 19.64C16.77 19.64 17.07 19.93 17.07 20.29C17.07 20.65 16.77 20.94 16.42 20.94L9.4 20.94C9.29 20.95 9.17 20.95 9.06 20.94C9.04 20.94 9.03 20.94 9.02 20.94C8.32 20.89 7.64 20.6 7.11 20.07L3.88 16.83C2.7 15.66 2.7 13.76 3.88 12.59L12.67 3.79C13.43 3.03 14.51 2.76 15.49 3C16.01 3.12 16.51 3.39 16.91 3.79L20.15 7.03C21.32 8.2 21.32 10.1 20.15 11.27L16.47 14.96L16.47 14.96Z" fill="#74767B" fill-opacity="1.000000" fill-rule="evenodd"/>
	</g>
</svg>
