<svg width="24.000000" height="24.000000" viewBox="0 0 24 24" fill="none" xmlns="http://www.w3.org/2000/svg" xmlns:xlink="http://www.w3.org/1999/xlink">
	<desc>
			Created with Pixso.
	</desc>
	<defs>
		<clipPath id="clip17_1183">
			<rect id="Outline / Font Style Outline" width="24.000000" height="24.000000" fill="white" fill-opacity="0"/>
		</clipPath>
	</defs>
	<g>
		<path id="Shape" d="M14.29 3.97L9.15 3.97C8.79 3.97 8.5 4.26 8.5 4.62C8.5 4.98 8.79 5.27 9.15 5.27L13.64 5.27L13.64 19.27C13.64 19.63 13.93 19.92 14.29 19.92C14.65 19.92 14.94 19.63 14.94 19.27L14.94 5.27L19.43 5.27C19.79 5.27 20.08 4.98 20.08 4.62C20.08 4.26 19.79 3.97 19.43 3.97L14.29 3.97ZM8.11 19.92C8.47 19.92 8.76 19.63 8.76 19.27L8.76 11.89L11.34 11.89C11.7 11.89 11.99 11.6 11.99 11.24C11.99 10.88 11.7 10.59 11.34 10.59L4.88 10.59C4.52 10.59 4.23 10.88 4.23 11.24C4.23 11.6 4.52 11.89 4.88 11.89L7.46 11.89L7.46 19.27C7.46 19.63 7.75 19.92 8.11 19.92Z" fill="#717681" fill-opacity="1.000000" fill-rule="evenodd"/>
	</g>
</svg>
