<svg width="24" height="24" viewBox="0 0 24 24" fill="none" xmlns="http://www.w3.org/2000/svg">
<path fill-rule="evenodd" clip-rule="evenodd" d="M14.2945 3.97613L9.15488 3.97613C8.7959 3.97613 8.50488 4.26714 8.50488 4.62613C8.50488 4.98511 8.7959 5.27612 9.15488 5.27612H13.6445L13.6445 19.2712C13.6445 19.6302 13.9355 19.9212 14.2945 19.9212C14.6535 19.9212 14.9445 19.6302 14.9445 19.2712L14.9445 5.27612L19.4337 5.27612C19.7927 5.27612 20.0837 4.98511 20.0837 4.62613C20.0837 4.26714 19.7927 3.97613 19.4337 3.97613L14.2945 3.97613ZM8.11416 19.9212C8.47315 19.9212 8.76416 19.6302 8.76416 19.2712V11.8973L11.3443 11.8973C11.7032 11.8973 11.9943 11.6063 11.9943 11.2473C11.9943 10.8884 11.7032 10.5973 11.3443 10.5973H4.88438C4.52539 10.5973 4.23437 10.8884 4.23437 11.2473C4.23437 11.6063 4.52539 11.8973 4.88437 11.8973L7.46416 11.8973V19.2712C7.46416 19.6302 7.75518 19.9212 8.11416 19.9212Z" fill="#717681"/>
</svg>
