<svg width="24" height="24" viewBox="0 0 24 24" fill="none" xmlns="http://www.w3.org/2000/svg">
<path fill-rule="evenodd" clip-rule="evenodd" d="M12.547 6.6105L11.7882 6.15522C10.6078 5.44696 9.09682 5.63297 8.12341 6.60638L7.64301 7.08678L7.64296 7.08673L6.72374 8.00599L3.90111 10.8287C2.75231 11.9775 2.72679 13.8321 3.84355 15.0121L9.34774 20.828C9.47197 20.9593 9.6418 21.0371 9.82141 21.046C9.85674 21.052 9.89305 21.0551 9.93007 21.0551H16.6378C16.9968 21.0551 17.2878 20.764 17.2878 20.4051C17.2878 20.0461 16.9968 19.7551 16.6378 19.7551H14.0819L17.1675 16.6236L17.6541 16.1371C18.6275 15.1637 18.8135 13.6527 18.1053 12.4722L17.5965 11.6244C17.2271 11.0087 17.4268 10.2102 18.0424 9.84082L19.5896 8.91252C21.2632 7.90837 21.5475 5.59879 20.1674 4.21872L19.8709 3.92216C18.4229 2.47423 15.982 2.87034 15.0663 4.70184L14.3786 6.07714C14.04 6.75445 13.1964 7.00011 12.547 6.6105ZM8.56225 8.00602L16.2544 15.6982L16.7349 15.2178C17.2864 14.6662 17.3919 13.81 16.9905 13.1411L16.4818 12.2932C15.743 11.0619 16.1423 9.46487 17.3736 8.72608L18.9208 7.79778C19.8691 7.22876 20.0302 5.92 19.2482 5.13796L18.9516 4.8414C18.1311 4.02091 16.7479 4.24537 16.229 5.28322L15.5414 6.65851C14.8641 8.01315 13.1769 8.50446 11.8782 7.72524L11.1194 7.26996C10.4505 6.86861 9.59425 6.97402 9.04265 7.52561L8.56225 8.00602ZM4.82036 11.7479L7.522 9.0462L7.52203 9.04623L15.2142 16.7384L15.2218 16.746L12.2649 19.7469H10.1144L4.78775 14.1185C4.15492 13.4498 4.16938 12.3989 4.82036 11.7479Z" fill="#717681"/>
</svg>
