<svg width="24.000000" height="24.000000" viewBox="0 0 24 24" fill="none" xmlns="http://www.w3.org/2000/svg" xmlns:xlink="http://www.w3.org/1999/xlink">
	<desc>
			Created with Pixso.
	</desc>
	<defs>
		<clipPath id="clip17_1228">
			<rect id="Outline / Hide right panel Outline" width="24.000000" height="24.000000" fill="white" fill-opacity="0"/>
		</clipPath>
	</defs>
	<g clip-path="url(#clip17_1228)">
		<path id="Shape" d="M13.89 16.69C13.65 16.95 13.65 17.36 13.91 17.61C14.17 17.86 14.58 17.85 14.83 17.59L19.81 12.45C20.06 12.2 20.06 11.8 19.81 11.54L14.83 6.4C14.58 6.14 14.17 6.13 13.91 6.38C13.65 6.63 13.65 7.04 13.89 7.3L17.81 11.35L7.17 11.35C6.81 11.35 6.52 11.64 6.52 12C6.52 12.36 6.81 12.65 7.17 12.65L17.81 12.65L13.89 16.69ZM5.29 19.32C5.29 19.69 5 20 4.64 20C4.29 20 4 19.69 4 19.32L4 4.67C4 4.3 4.29 4 4.64 4C5 4 5.3 4.3 5.3 4.67L5.29 19.32Z" fill="#74767B" fill-opacity="1.000000" fill-rule="evenodd"/>
	</g>
</svg>
