<svg width="24.000000" height="24.000000" viewBox="0 0 24 24" fill="none" xmlns="http://www.w3.org/2000/svg" xmlns:xlink="http://www.w3.org/1999/xlink">
	<desc>
			Created with Pixso.
	</desc>
	<defs>
		<clipPath id="clip17_1134">
			<rect id="Outline / Indent Increase Outline" width="24.000000" height="24.000000" fill="white" fill-opacity="0"/>
		</clipPath>
	</defs>
	<g>
		<path id="Shape" d="M4 6.14C4 5.79 4.29 5.5 4.64 5.5L19.33 5.5C19.69 5.5 19.98 5.79 19.98 6.14C19.98 6.5 19.69 6.79 19.33 6.79L4.64 6.79C4.29 6.79 4 6.5 4 6.14ZM4 13.95C4 13.59 4.29 13.3 4.64 13.3L11.38 13.3C11.74 13.3 12.03 13.59 12.03 13.95C12.03 14.3 11.74 14.6 11.38 14.6L4.64 14.6C4.29 14.6 4 14.3 4 13.95ZM4.64 9.39C4.29 9.39 4 9.69 4 10.05C4 10.4 4.29 10.7 4.64 10.7L11.38 10.7C11.74 10.7 12.03 10.4 12.03 10.05C12.03 9.69 11.74 9.39 11.38 9.39L4.64 9.39ZM4 17.85C4 17.49 4.29 17.2 4.64 17.2L19.33 17.2C19.69 17.2 19.98 17.49 19.98 17.85C19.98 18.2 19.69 18.5 19.33 18.5L4.64 18.5C4.29 18.5 4 18.2 4 17.85ZM19.79 12.44C19.92 12.32 20 12.14 20 11.96C19.99 11.78 19.91 11.6 19.78 11.48L17.55 9.52C17.28 9.28 16.87 9.31 16.64 9.58C16.4 9.85 16.43 10.26 16.69 10.49L18.38 11.98L16.68 13.56C16.42 13.81 16.4 14.22 16.65 14.48C16.89 14.74 17.3 14.76 17.57 14.51L19.79 12.44Z" fill="#717681" fill-opacity="1.000000" fill-rule="evenodd"/>
	</g>
</svg>
