<svg width="24.000000" height="24.000000" viewBox="0 0 24 24" fill="none" xmlns="http://www.w3.org/2000/svg" xmlns:xlink="http://www.w3.org/1999/xlink">
	<desc>
			Created with Pixso.
	</desc>
	<defs>
		<clipPath id="clip17_1131">
			<rect id="Outline / Indent Decrease Outline" width="24.000000" height="24.000000" transform="matrix(1 1.22465e-16 1.22465e-16 -1 0 24)" fill="white" fill-opacity="0"/>
		</clipPath>
	</defs>
	<g clip-path="url(#clip17_1131)">
		<path id="Shape" d="M20 17.85C20 18.2 19.7 18.5 19.34 18.5L4.66 18.5C4.3 18.5 4.01 18.2 4.01 17.85C4.01 17.49 4.3 17.2 4.66 17.2L19.34 17.2C19.7 17.2 20 17.49 20 17.85ZM20 10.05C20 10.4 19.7 10.7 19.34 10.7L12.62 10.7C12.26 10.7 11.97 10.4 11.97 10.05C11.97 9.69 12.26 9.4 12.62 9.4L19.34 9.4C19.7 9.4 20 9.69 20 10.05ZM19.34 14.6C19.7 14.6 20 14.3 20 13.95C20 13.59 19.7 13.3 19.34 13.3L12.62 13.3C12.26 13.3 11.97 13.59 11.97 13.95C11.97 14.3 12.26 14.6 12.62 14.6L19.34 14.6ZM20 6.14C20 6.5 19.7 6.79 19.34 6.79L4.66 6.79C4.3 6.79 4.01 6.5 4.01 6.14C4.01 5.79 4.3 5.5 4.66 5.5L19.34 5.5C19.7 5.5 20 5.79 20 6.14ZM4.2 11.55C4.07 11.67 3.99 11.85 4 12.03C4 12.21 4.08 12.39 4.22 12.51L6.44 14.47C6.71 14.71 7.12 14.68 7.36 14.41C7.6 14.14 7.57 13.73 7.3 13.5L5.61 12.01L7.31 10.43C7.58 10.18 7.59 9.77 7.35 9.51C7.1 9.25 6.69 9.23 6.43 9.48L4.2 11.55Z" fill="#717681" fill-opacity="1.000000" fill-rule="evenodd"/>
	</g>
</svg>
