<svg width="24.000000" height="24.000000" viewBox="0 0 24 24" fill="none" xmlns="http://www.w3.org/2000/svg" xmlns:xlink="http://www.w3.org/1999/xlink">
	<desc>
			Created with Pixso.
	</desc>
	<defs>
		<clipPath id="clip17_1110">
			<rect id="Outline / List Bulleted Outline" width="24.000000" height="24.000000" fill="white" fill-opacity="0"/>
		</clipPath>
	</defs>
	<g clip-path="url(#clip17_1110)">
		<path id="Shape" d="M4.64 5.75C4.09 5.75 3.64 6.19 3.64 6.75C3.64 7.3 4.09 7.75 4.64 7.75C5.2 7.75 5.64 7.3 5.64 6.75C5.64 6.19 5.2 5.75 4.64 5.75ZM8.64 6.1C8.28 6.1 7.99 6.39 7.99 6.75C7.99 7.1 8.28 7.4 8.64 7.4L19.35 7.4C19.7 7.4 20 7.1 20 6.75C20 6.39 19.7 6.1 19.35 6.1L8.64 6.1ZM8.64 11.4C8.28 11.4 7.99 11.69 7.99 12.05C7.99 12.4 8.28 12.7 8.64 12.7L19.35 12.7C19.7 12.7 20 12.4 20 12.05C20 11.69 19.7 11.4 19.35 11.4L8.64 11.4ZM7.99 17.35C7.99 16.99 8.28 16.7 8.64 16.7L19.35 16.7C19.7 16.7 20 16.99 20 17.35C20 17.7 19.7 18 19.35 18L8.64 18C8.28 18 7.99 17.7 7.99 17.35ZM3.64 12C3.64 11.44 4.09 11 4.64 11C5.2 11 5.64 11.44 5.64 12C5.64 12.55 5.2 13 4.64 13C4.09 13 3.64 12.55 3.64 12ZM4.64 16.35C4.09 16.35 3.64 16.79 3.64 17.35C3.64 17.9 4.09 18.35 4.64 18.35C5.2 18.35 5.64 17.9 5.64 17.35C5.64 16.79 5.2 16.35 4.64 16.35Z" fill="#74767B" fill-opacity="1.000000" fill-rule="evenodd"/>
	</g>
</svg>
