<svg width="24.000000" height="24.000000" viewBox="0 0 24 24" fill="none" xmlns="http://www.w3.org/2000/svg" xmlns:xlink="http://www.w3.org/1999/xlink">
	<desc>
			Created with Pixso.
	</desc>
	<defs>
		<clipPath id="clip17_1113">
			<rect id="Outline / List Numbered Outline" width="24.000000" height="24.000000" fill="white" fill-opacity="0"/>
		</clipPath>
	</defs>
	<g clip-path="url(#clip17_1113)">
		<path id="Shape" d="M3.66 4.59C3.3 4.59 3.01 4.88 3.01 5.24C3.01 5.6 3.3 5.89 3.66 5.89L3.93 5.89L3.93 8.25C3.93 8.61 4.22 8.9 4.58 8.9C4.94 8.9 5.23 8.61 5.23 8.25L5.23 5.24C5.23 4.88 4.94 4.59 4.58 4.59L3.66 4.59ZM8.66 6.09C8.3 6.09 8.01 6.39 8.01 6.74C8.01 7.1 8.3 7.39 8.66 7.39L19.35 7.39C19.7 7.39 20 7.1 20 6.74C20 6.39 19.7 6.09 19.35 6.09L8.66 6.09ZM8.66 11.4C8.3 11.4 8.01 11.69 8.01 12.05C8.01 12.4 8.3 12.7 8.66 12.7L19.35 12.7C19.7 12.7 20 12.4 20 12.05C20 11.69 19.7 11.4 19.35 11.4L8.66 11.4ZM8.01 17.35C8.01 16.99 8.3 16.7 8.66 16.7L19.35 16.7C19.7 16.7 20 16.99 20 17.35C20 17.7 19.7 18 19.35 18L8.66 18C8.3 18 8.01 17.7 8.01 17.35ZM2.97 10.58C2.97 10.22 3.26 9.93 3.62 9.93L4.77 9.93C5.54 9.93 6.16 10.55 6.16 11.31C6.16 11.69 6 12.06 5.72 12.32L5.25 12.76L5.6 12.76C5.95 12.76 6.25 13.05 6.25 13.41C6.25 13.77 5.95 14.06 5.6 14.06L3.62 14.06C3.35 14.06 3.11 13.9 3.02 13.65C2.92 13.41 2.98 13.12 3.17 12.94L4.83 11.37C4.85 11.36 4.86 11.33 4.86 11.31C4.86 11.26 4.82 11.23 4.77 11.23L3.62 11.23C3.26 11.23 2.97 10.94 2.97 10.58ZM5.58 15.18L3.57 15.18C3.21 15.18 2.92 15.47 2.92 15.83C2.92 16.19 3.21 16.48 3.57 16.48L4.31 16.48L4.15 16.7C4.01 16.9 3.99 17.16 4.1 17.38C4.21 17.6 4.43 17.73 4.68 17.73L4.7 17.73C4.83 17.73 4.93 17.84 4.94 17.97C4.94 18.1 4.83 18.21 4.7 18.21L3.57 18.21C3.21 18.21 2.92 18.5 2.92 18.86C2.92 19.22 3.21 19.51 3.57 19.51L4.7 19.51C5.55 19.51 6.25 18.81 6.24 17.95C6.23 17.49 6.02 17.07 5.69 16.79L6.1 16.21C6.25 16.01 6.27 15.75 6.15 15.53C6.04 15.32 5.82 15.18 5.58 15.18Z" fill="#74767B" fill-opacity="1.000000" fill-rule="evenodd"/>
	</g>
</svg>
