<svg width="24.000000" height="24.000000" viewBox="0 0 24 24" fill="none" xmlns="http://www.w3.org/2000/svg" xmlns:xlink="http://www.w3.org/1999/xlink">
	<desc>
			Created with Pixso.
	</desc>
	<defs>
		<clipPath id="clip17_1207">
			<rect id="Outline / Resize Table Outline" width="24.000000" height="24.000000" transform="matrix(1 -6.12324e-17 -6.12324e-17 -1 0 24)" fill="white" fill-opacity="0"/>
		</clipPath>
	</defs>
	<g clip-path="url(#clip17_1207)">
		<path id="Shape" d="M12.64 5.3L17 5.3C17.93 5.3 18.7 6.06 18.7 7.01L18.7 16.98C18.7 17.93 17.93 18.69 17 18.69L12.64 18.69L12.64 15.59C12.64 15.23 12.35 14.94 11.99 14.94C11.63 14.94 11.34 15.23 11.34 15.59L11.34 18.69L7 18.69C6.06 18.69 5.3 17.93 5.3 16.98L5.3 7.01C5.3 6.06 6.06 5.3 7 5.3L11.34 5.3L11.34 8.31C11.34 8.67 11.63 8.96 11.99 8.96C12.35 8.96 12.64 8.67 12.64 8.31L12.64 5.3ZM4 7.01C4 5.34 5.34 4 7 4L17 4C18.65 4 20 5.34 20 7.01L20 16.98C20 18.65 18.65 20 17 20L7 20C5.34 20 4 18.65 4 16.98L4 7.01ZM10.28 13.45L9.34 12.57L14.61 12.57L13.69 13.39C13.42 13.63 13.4 14.04 13.63 14.31C13.87 14.58 14.28 14.6 14.55 14.37L16.78 12.4C16.91 12.28 16.99 12.1 17 11.92C17 11.73 16.92 11.56 16.79 11.43L14.57 9.35C14.3 9.11 13.89 9.12 13.65 9.39C13.4 9.65 13.42 10.06 13.68 10.31L14.71 11.27L9.26 11.27L10.27 10.37C10.54 10.14 10.56 9.72 10.33 9.45C10.09 9.18 9.68 9.16 9.41 9.4L7.18 11.36C7.05 11.49 6.97 11.66 6.96 11.84C6.96 12.03 7.04 12.21 7.17 12.33L9.39 14.41C9.66 14.65 10.07 14.64 10.31 14.38C10.56 14.11 10.54 13.7 10.28 13.45Z" fill="#717681" fill-opacity="1.000000" fill-rule="evenodd"/>
	</g>
</svg>
