<svg width="24.000000" height="24.000000" viewBox="0 0 24 24" fill="none" xmlns="http://www.w3.org/2000/svg" xmlns:xlink="http://www.w3.org/1999/xlink">
	<desc>
			Created with Pixso.
	</desc>
	<defs>
		<clipPath id="clip17_1174">
			<rect id="Outline / Row Insert below Outline" width="24.000000" height="24.000000" fill="white" fill-opacity="0"/>
		</clipPath>
	</defs>
	<g clip-path="url(#clip17_1174)">
		<path id="Shape" d="M11.33 8.7C11.33 9.06 11.62 9.35 11.98 9.35C12.34 9.35 12.64 9.06 12.64 8.7L12.64 7.33L14.02 7.33C14.38 7.33 14.68 7.03 14.68 6.67C14.68 6.32 14.38 6.02 14.02 6.02L12.64 6.02L12.64 4.65C12.64 4.29 12.34 4 11.98 4C11.62 4 11.33 4.29 11.33 4.65L11.33 6.02L9.94 6.02C9.58 6.02 9.29 6.32 9.29 6.67C9.29 7.03 9.58 7.33 9.94 7.33L11.33 7.33L11.33 8.7ZM5.3 13.66L5.3 16.34C5.3 17.64 6.36 18.7 7.67 18.7L16.32 18.7C17.63 18.7 18.69 17.64 18.69 16.34L18.69 13.66L5.3 13.66ZM18.69 12.36L18.69 9.36C18.69 8.24 17.77 7.33 16.64 7.33C16.28 7.33 15.99 7.03 15.99 6.67C15.99 6.32 16.28 6.02 16.64 6.02C18.49 6.02 20 7.52 20 9.36L20 16.34C20 18.36 18.35 20 16.32 20L7.67 20C5.64 20 4 18.36 4 16.34L4 9.32C4 7.5 5.48 6.02 7.31 6.02C7.67 6.02 7.97 6.32 7.97 6.67C7.97 7.03 7.67 7.33 7.31 7.33C6.2 7.33 5.3 8.22 5.3 9.32L5.3 12.36L18.69 12.36Z" fill="#74767B" fill-opacity="1.000000" fill-rule="evenodd"/>
	</g>
</svg>
