<svg width="24.000000" height="24.000000" viewBox="0 0 24 24" fill="none" xmlns="http://www.w3.org/2000/svg" xmlns:xlink="http://www.w3.org/1999/xlink">
	<desc>
			Created with Pixso.
	</desc>
	<defs>
		<clipPath id="clip125102_729">
			<rect id="Outline / Row Insert after Outline" width="24.000000" height="24.000000" fill="white" fill-opacity="0"/>
		</clipPath>
	</defs>
	<g clip-path="url(#clip125102_729)">
		<path id="Shape" d="M18.69 11.64L18.69 14.63C18.69 15.76 17.77 16.67 16.64 16.67C16.28 16.67 15.99 16.96 15.99 17.32C15.99 17.68 16.28 17.97 16.64 17.97C18.49 17.97 20 16.48 20 14.63L20 7.65C20 5.63 18.35 4 16.32 4L7.67 4C5.64 4 4 5.63 4 7.65L4 14.67C4 16.49 5.48 17.97 7.31 17.97C7.67 17.97 7.97 17.68 7.97 17.32C7.97 16.96 7.67 16.67 7.31 16.67C6.2 16.67 5.3 15.77 5.3 14.67L5.3 11.64L18.69 11.64ZM5.3 10.34L5.3 7.65C5.3 6.35 6.36 5.3 7.67 5.3L16.32 5.3C17.63 5.3 18.69 6.35 18.69 7.65L18.69 10.34L5.3 10.34ZM11.33 15.29C11.33 14.93 11.62 14.64 11.98 14.64C12.34 14.64 12.64 14.93 12.64 15.29L12.64 16.67L14.02 16.67C14.38 16.67 14.68 16.96 14.68 17.32C14.68 17.68 14.38 17.97 14.02 17.97L12.64 17.97L12.64 19.34C12.64 19.7 12.34 20 11.98 20C11.62 20 11.33 19.7 11.33 19.34L11.33 17.97L9.94 17.97C9.58 17.97 9.29 17.68 9.29 17.32C9.29 16.96 9.58 16.67 9.94 16.67L11.33 16.67L11.33 15.29Z" fill="#74767B" fill-opacity="1.000000" fill-rule="evenodd"/>
	</g>
</svg>
