<svg width="24" height="24" viewBox="0 0 24 24" fill="none" xmlns="http://www.w3.org/2000/svg">
<path d="M4.26797 4.09163C4.55547 3.87665 4.95918 3.9381 5.16968 4.22888L10.0141 10.9208L14.8586 4.22888C15.0691 3.9381 15.4728 3.87665 15.7603 4.09163C16.0478 4.30661 16.1102 4.71662 15.8997 5.00741L10.8165 12.0292L15.8995 19.0507C16.11 19.3415 16.0476 19.7515 15.7601 19.9665C15.4726 20.1815 15.0689 20.12 14.8584 19.8292L10.0141 13.1375L5.16984 19.8292C4.95934 20.12 4.55563 20.1815 4.26813 19.9665C3.98064 19.7515 3.91823 19.3415 4.12874 19.0507L9.21177 12.0292L4.12858 5.00741C3.91807 4.71662 3.98048 4.30661 4.26797 4.09163Z" fill="#717681"/>
<path d="M20.5543 15.9521C20.1932 15.336 19.3393 15.2447 18.8561 15.7705L18.4673 16.1936C18.2244 16.458 17.8132 16.4753 17.5489 16.2324C17.2846 15.9895 17.2672 15.5783 17.5101 15.314L17.8989 14.8909C18.9735 13.7215 20.8727 13.9246 21.6759 15.2947C22.2011 16.1907 22.0794 17.3247 21.3759 18.0889L18.9719 20.7003H21.3404C21.6994 20.7003 21.9904 20.9914 21.9904 21.3503C21.9904 21.7093 21.6994 22.0004 21.3404 22.0004H17.4901C17.232 22.0004 16.9985 21.8477 16.8948 21.6115C16.7912 21.3752 16.8371 21.0999 17.0118 20.9101L20.4195 17.2084C20.7358 16.8649 20.7905 16.355 20.5543 15.9521Z" fill="#717681"/>
</svg>
