<svg width="24.000000" height="24.000000" viewBox="0 0 24 24" fill="none" xmlns="http://www.w3.org/2000/svg" xmlns:xlink="http://www.w3.org/1999/xlink">
	<desc>
			Created with Pixso.
	</desc>
	<defs>
		<clipPath id="clip17_1192">
			<rect id="Outline / Text bold Outline" width="24.000000" height="24.000000" transform="matrix(1 -6.12324e-17 -6.12324e-17 -1 0 24)" fill="white" fill-opacity="0"/>
		</clipPath>
	</defs>
	<g clip-path="url(#clip17_1192)">
		<path id="Shape" d="M13 5C13 4.45 12.55 4 12 4C11.45 3.99 11 4.44 11 4.99L10.96 11L9.18 11L5.91 4.54C5.66 4.05 5.06 3.85 4.57 4.1C4.08 4.35 3.88 4.95 4.13 5.45L7.44 12L4.13 18.59C3.88 19.09 4.08 19.69 4.57 19.94C5.06 20.18 5.66 19.99 5.91 19.49L9.18 13L10.95 13L10.91 19.08C10.9 19.64 11.35 20.09 11.9 20.09C12.45 20.09 12.9 19.65 12.91 19.1L12.95 13L14.86 13L18.13 19.49C18.37 19.99 18.98 20.18 19.47 19.94C19.96 19.69 20.16 19.09 19.91 18.59L16.59 12L19.91 5.45C20.16 4.95 19.96 4.35 19.47 4.1C18.98 3.85 18.38 4.05 18.13 4.54L14.86 11L12.96 11L13 5Z" fill="#74767B" fill-opacity="1.000000" fill-rule="evenodd"/>
	</g>
</svg>
