<svg width="24.000000" height="24.000000" viewBox="0 0 24 24" fill="none" xmlns="http://www.w3.org/2000/svg" xmlns:xlink="http://www.w3.org/1999/xlink">
	<desc>
			Created with Pixso.
	</desc>
	<defs>
		<clipPath id="clip7534_821">
			<rect id="Outline / Txt Color Outline" width="24.000000" height="24.000000" transform="matrix(1 -6.12324e-17 -6.12324e-17 -1 0 24)" fill="white" fill-opacity="0"/>
		</clipPath>
	</defs>
	<g>
		<path id="Shape" d="M12.02 5C11.77 4.99 11.53 5.13 11.41 5.37L6.05 17.11C5.9 17.43 6.04 17.82 6.37 17.97C6.7 18.12 7.08 17.97 7.23 17.65L9.06 13.65L14.96 13.65L16.79 17.65C16.94 17.97 17.32 18.12 17.65 17.97C17.98 17.82 18.12 17.43 17.97 17.11L12.61 5.37C12.5 5.14 12.26 5 12.02 5ZM12.01 7.2L9.65 12.35L14.37 12.35L12.01 7.2Z" fill="#717681" fill-opacity="1.000000" fill-rule="evenodd"/>
	</g>
</svg>
