<svg xmlns="http://www.w3.org/2000/svg" fill="none" viewBox="0 0 40 40" focusable="false"><path d="M0 0H40V40H0z"/><path fill="#0D0B22" d="M1 12.4C1 10.1598 1 9.03969 1.43597 8.18404C1.81947 7.43139 2.43139 6.81947 3.18404 6.43597C4.03969 6 5.15979 6 7.4 6L32.6 6C34.8402 6 35.9603 6 36.816 6.43597C37.5686 6.81947 38.1805 7.43139 38.564 8.18404C39 9.03969 39 10.1598 39 12.4L39 27.6C39 29.8402 39 30.9603 38.564 31.816C38.1805 32.5686 37.5686 33.1805 36.816 33.564C35.9603 34 34.8402 34 32.6 34L7.4 34C5.15979 34 4.03969 34 3.18404 33.564C2.43139 33.1805 1.81947 32.5686 1.43597 31.816C1 30.9603 1 29.8402 1 27.6L1 12.4Z"/><path fill="#009C32" d="M30.3779 19.8088C30.0797 19.0842 29.3364 18.6858 28.5342 18.8266L26.8879 19.1084C26.615 19.1567 26.4344 19.4062 26.4806 19.6679C26.531 19.9296 26.7914 20.1026 27.0643 20.0584L28.7106 19.7766C29.1012 19.7082 29.3448 19.9336 29.4414 20.167C29.538 20.4005 29.5212 20.7226 29.1852 20.9278L26.7662 22.4293C26.5436 22.5701 26.2664 22.5782 26.0354 22.4574C25.8002 22.3367 25.6616 22.1113 25.6616 21.8537L25.6616 16.983C25.6616 16.7174 25.4391 16.5 25.1577 16.5C24.8805 16.5 24.6537 16.7174 24.6537 16.983L24.6537 21.8456C24.6537 22.4615 24.9897 23.0009 25.5524 23.2947C25.8128 23.4316 26.0942 23.5 26.3756 23.5C26.699 23.5 27.0223 23.4114 27.3121 23.2303L29.7311 21.7288C30.4157 21.3062 30.6761 20.5333 30.3779 19.8088ZM21.8735 18.8226L20.2272 19.1044C19.9542 19.1527 19.7736 19.4022 19.8198 19.6639C19.8702 19.9255 20.1306 20.0986 20.4036 20.0543L22.0499 19.7726C22.4405 19.7042 22.6841 19.9296 22.7806 20.163C22.8772 20.3965 22.8604 20.7185 22.5245 20.9238L20.1054 22.4252C19.8828 22.5661 19.6056 22.5742 19.3746 22.4534C19.1394 22.3327 19.0008 22.1073 19.0008 21.8497L19.0008 18.1544C19.0008 17.5385 18.6648 16.9991 18.1021 16.7053C17.5393 16.4114 16.88 16.4356 16.3424 16.7697L10.2654 20.5454C9.58086 20.9721 9.32468 21.745 9.62286 22.4695C9.92104 23.1941 10.6644 23.5926 11.4665 23.4517L16.775 22.5379C17.048 22.4896 17.2286 22.2401 17.1824 21.9785C17.132 21.7168 16.8716 21.5437 16.5986 21.5879L11.2902 22.5017C10.8996 22.5701 10.656 22.3447 10.5594 22.1113C10.4628 21.8778 10.4796 21.5557 10.8156 21.3505L16.8926 17.5748C17.1152 17.4339 17.3923 17.4258 17.6233 17.5466C17.8585 17.6673 17.9971 17.8927 17.9971 18.1503L17.9971 21.8456C17.9971 22.4615 18.3331 23.0009 18.8958 23.2947C19.1562 23.4316 19.4376 23.5 19.719 23.5C20.0424 23.5 20.3658 23.4114 20.6514 23.2303L23.0704 21.7288C23.755 21.3022 24.0112 20.5293 23.713 19.8048C23.419 19.0802 22.6757 18.6857 21.8735 18.8226Z"/></svg>