<svg xmlns="http://www.w3.org/2000/svg" fill="none" viewBox="0 0 40 40" focusable="false"><path fill="none" d="M0 0h40v40H0z"/><path fill="#F4F5F6" d="M1 12.4c0-2.25 0-3.37.43-4.22a4 4 0 0 1 1.75-1.75C4.03 6 5.15 6 7.4 6h25.19c2.25 0 3.37 0 4.22.43a4 4 0 0 1 1.75 1.75c.44.85.44 1.97.44 4.22v15.2c0 2.24 0 3.36-.44 4.21a4 4 0 0 1-1.75 1.75c-.85.44-1.97.44-4.22.44H7.4c-2.25 0-3.37 0-4.22-.44a4 4 0 0 1-1.75-1.75C1 30.96 1 29.84 1 27.6z"/><path fill="#04E061" d="M16.14 28.4c2.89 0 5.24-2.34 5.24-5.21 0-2.88-2.35-5.21-5.24-5.21-2.9 0-5.25 2.33-5.25 5.21 0 2.87 2.35 5.21 5.25 5.21"/><path fill="#FF4053" d="M25.23 27.74c1.75 0 3.16-1.41 3.16-3.15s-1.41-3.15-3.16-3.15-3.17 1.41-3.17 3.15 1.42 3.15 3.17 3.15"/><path fill="#965EEB" d="M17.14 17.3c1.08 0 1.96-.87 1.96-1.95a1.961 1.961 0 0 0-3.92 0c0 1.08.88 1.95 1.96 1.95"/><path fill="#0AF" d="M24 20.76c2.35 0 4.26-1.89 4.26-4.23S26.35 12.3 24 12.3c-2.36 0-4.26 1.89-4.26 4.23s1.9 4.23 4.26 4.23"/></svg>