<svg xmlns="http://www.w3.org/2000/svg" fill="none" viewBox="0 0 40 40" focusable="false"><path d="M0 0H40V40H0z"/><path fill="#194478" d="M1 12.4C1 10.1598 1 9.03969 1.43597 8.18404C1.81947 7.43139 2.43139 6.81947 3.18404 6.43597C4.03969 6 5.15979 6 7.4 6L32.6 6C34.8402 6 35.9603 6 36.816 6.43597C37.5686 6.81947 38.1805 7.43139 38.564 8.18404C39 9.03969 39 10.1598 39 12.4L39 27.6C39 29.8402 39 30.9603 38.564 31.816C38.1805 32.5686 37.5686 33.1805 36.816 33.564C35.9603 34 34.8402 34 32.6 34L7.4 34C5.15979 34 4.03969 34 3.18404 33.564C2.43139 33.1805 1.81947 32.5686 1.43597 31.816C1 30.9603 1 29.8402 1 27.6L1 12.4Z"/><path fill="#FFF" fill-rule="evenodd" d="M27.7667 21.5123C27.6919 21.7852 27.5125 22.2785 27.0752 22.8766C26.5071 23.5269 25.7671 24.0053 24.9261 24.2557C24.4963 24.3828 24.0515 24.4501 23.5993 24.4501C22.4443 24.4501 21.338 24.024 20.4858 23.2466C20.4634 23.2242 20.4597 23.1868 20.4784 23.1644C21.2521 22.2225 21.6781 21.0302 21.6781 19.808C21.6781 19.5688 21.6594 19.3371 21.6295 19.1091C21.4202 17.5692 20.5456 16.2423 19.3085 15.42C18.475 14.8669 17.4771 14.5454 16.4081 14.5454C16.154 14.5454 15.8998 14.5641 15.6494 14.6015C14.8981 14.7099 14.1768 14.9827 13.5339 15.4014C13.5227 15.4051 13.5115 15.4088 13.5003 15.4088C13.4853 15.4088 13.4666 15.4014 13.4591 15.3901C13.4367 15.3715 13.4367 15.3378 13.4517 15.3117C14.8047 13.3457 16.9575 12.1048 19.3048 11.8992C19.5365 11.8805 19.7682 11.8693 20.0037 11.8693C20.0635 11.8693 20.127 11.8693 20.1868 11.8693C22.2388 11.9142 24.1674 12.7402 25.6213 14.1941C27.1874 15.7602 28.0321 17.928 27.9461 20.1406C27.9237 20.6041 27.8639 21.0601 27.7667 21.5123ZM26.5482 24.6856C25.0607 26.8422 22.6125 28.1316 19.9962 28.1316C19.9364 28.1316 19.8766 28.1316 19.8168 28.1279C19.6449 28.1242 19.4767 28.1129 19.3085 28.1017C17.4472 27.941 15.7167 27.1374 14.3823 25.8031C12.8163 24.2371 11.9678 22.0692 12.0575 19.8566C12.0762 19.3931 12.136 18.9334 12.2369 18.4811C12.3117 18.2083 12.4911 17.7149 12.9284 17.1169C13.4965 16.4666 14.2403 15.9882 15.0775 15.7377C15.5074 15.6107 15.9521 15.5434 16.4044 15.5434C17.4659 15.5434 18.4825 15.9059 19.3048 16.5638C19.3795 16.6236 19.4505 16.6834 19.5178 16.7469C19.5402 16.7693 19.544 16.8067 19.5215 16.8291C19.4468 16.9226 19.372 17.0197 19.301 17.1169C18.6656 18.0065 18.318 19.0829 18.318 20.1892C18.318 20.4247 18.3367 20.6602 18.3666 20.8882C18.4862 21.7553 18.8114 22.5551 19.301 23.2354C20.2578 24.5734 21.8239 25.4518 23.5918 25.4518C23.8459 25.4518 24.1001 25.4331 24.3505 25.3994C25.1018 25.2911 25.8231 25.0182 26.4623 24.5996C26.4735 24.5921 26.4847 24.5884 26.4959 24.5884C26.5109 24.5884 26.5296 24.5959 26.5408 24.6071C26.5632 24.6295 26.5669 24.6631 26.5482 24.6856ZM20 10.1986C19.7682 10.1986 19.5365 10.2061 19.3048 10.2248C14.2179 10.5798 10.2 14.8183 10.2 19.9986C10.2 25.1789 14.2179 29.4174 19.3048 29.7762C19.5328 29.7911 19.7645 29.8023 20 29.8023C25.412 29.8023 29.8 25.4144 29.8 20.0023C29.8 14.5866 25.412 10.1986 20 10.1986Z"/></svg>