<svg xmlns="http://www.w3.org/2000/svg" fill="none" viewBox="0 0 40 40" focusable="false"><path fill="none" d="M0 0h40v40H0z"/><path fill="#F4F5F6" d="M1 12.4c0-2.25 0-3.37.43-4.22a4 4 0 0 1 1.75-1.75C4.03 6 5.15 6 7.4 6h25.19c2.25 0 3.37 0 4.22.43a4 4 0 0 1 1.75 1.75c.44.85.44 1.97.44 4.22v15.2c0 2.24 0 3.36-.44 4.21a4 4 0 0 1-1.75 1.75c-.85.44-1.97.44-4.22.44H7.4c-2.25 0-3.37 0-4.22-.44a4 4 0 0 1-1.75-1.75C1 30.96 1 29.84 1 27.6z"/><path fill="#003B70" d="M16.16 23.3c-.54.55-1.21.88-1.86.88-1.36 0-2.34-1.02-2.34-2.42s.98-2.42 2.34-2.42c.65 0 1.28.29 1.83.85l.9-1.02c-.72-.86-1.62-1.31-2.69-1.31s-2.05.37-2.76 1.02c-.77.7-1.17 1.7-1.17 2.88s.4 2.17 1.17 2.88c.71.65 1.69 1.01 2.76 1.01s1.94-.41 2.67-1.27zM17.91 25.51h1.55v-7.52h-1.55zM25.49 23.87c-.41.26-.79.38-1.14.38-.49 0-.72-.26-.72-.85v-3.99h1.57v-1.42h-1.57v-2.34l-1.51.81v1.53h-1.3v1.42h1.3v4.25c0 1.15.69 1.95 1.71 1.97a2.5 2.5 0 0 0 1.37-.35zM26.77 25.51h1.54v-7.52h-1.54z"/><path fill="#D9261C" fill-rule="evenodd" d="M29.23 16.65c-1.41-2-3.75-3.19-6.13-3.19-2.39 0-4.73 1.19-6.14 3.19l-.07.11h1.78c1.2-1.25 2.8-1.93 4.43-1.93 1.62 0 3.2.66 4.41 1.9l1.8.03z"/></svg>