<svg xmlns="http://www.w3.org/2000/svg" fill="none" viewBox="0 0 40 40" focusable="false"><path fill="none" d="M0 0h40v40H0z"/><path fill="#BB0032" d="M1 12.4c0-2.25 0-3.37.43-4.22a4 4 0 0 1 1.75-1.75C4.03 6 5.15 6 7.4 6h25.19c2.25 0 3.37 0 4.22.43a4 4 0 0 1 1.75 1.75c.44.85.44 1.97.44 4.22v15.2c0 2.24 0 3.36-.44 4.21a4 4 0 0 1-1.75 1.75c-.85.44-1.97.44-4.22.44H7.4c-2.25 0-3.37 0-4.22-.44a4 4 0 0 1-1.75-1.75C1 30.96 1 29.84 1 27.6z"/><path fill="#FFF" fill-rule="evenodd" d="m16.65 21.3 4.8-4.8h8.48l-3.39 3.4h-3.69l-6.15 6.2-7.2-7.2 2.35-2.4h4.8l-2.4 2.4zm1.72 4.02-.68.68h4.82l2.02-2.03h2l3.41-3.4h-6.82z"/></svg>