<svg xmlns="http://www.w3.org/2000/svg" fill="none" viewBox="0 0 40 40" focusable="false"><path fill="none" d="M0 0h40v40H0z"/><linearGradient id="Gazprombank_svg__a" x1="20" x2="20" y1="6" y2="34" gradientUnits="userSpaceOnUse"><stop stop-color="#2571EB"/><stop offset="1" stop-color="#0026B2"/></linearGradient><path fill="url(#Gazprombank_svg__a)" d="M1 10c0-2.21 1.79-4 4-4h30c2.2 0 4 1.79 4 4v20c0 2.2-1.8 4-4 4H5c-2.21 0-4-1.8-4-4z"/><path fill="#FFF" fill-rule="evenodd" d="M28 18.68c-.11.09-.21.16-.31.25-.7.53-1.81.96-3.33 1.36-3.16.86-5.45.98-8.05 1.61-.51.13-1.04.3-1.53.5.49.26 1.02.48 1.55.68 1.06-.31 1.57-.44 3.1-.69.59-.11 2.39-.43 3.69-.69 2.35-.51 5.79-1.6 4.88-3.02m-1.52-2.95c-.51-.22-1.13-.44-1.79-.62-.3.24-.64.44-1.14.64.83.14 1.45.38 2.16.57.11.06.67-.46.77-.59m-11.51 3.14c3.07-.9 6.29-1.18 9.56-2.05-1.27-.34-1.98-.49-3.33-.32-1.95.23-4.1.65-5.95 1.19-.72.23-4.52 1.3-3.42 2.81 0 .01.64-.9 3.14-1.63m-2.11 5.17c-.02.28.16.53.53.85.05-.15.12-.27.22-.42-.25-.13-.5-.26-.75-.43m1.43-.13c.24-.15.52-.28.83-.4-.43-.19-.89-.38-1.33-.59-.21.13-.4.27-.55.4.36.21.7.4 1.05.59m11.8-6.53c-.62.3-1.5.59-2.77.9-1.05.27-3.59.64-6.32 1.23-.86.19-3.21.74-4.36 1.71.32.27.53.33.88.53.48-.31 1.13-.6 2.09-.85 1.66-.45 2.92-.64 4.43-.89 1.49-.22 4.31-.81 5.86-1.37.52-.18.99-.41 1.33-.7-.11-.11-1.11-.6-1.14-.56m.9-.54c.31.14.59.25.86.44.19-.37.07-.61-.33-.95-.16.2-.34.36-.53.51m-14.28 5.53c-.28-.14-.46-.26-.69-.41-.12.27.12.56.35.7.1-.11.24-.2.34-.29m13.05-8.47c-.05.21-.27.46-.42.62.46.12.93.29 1.37.46-.06-.42-.53-.82-.95-1.08m-14.44 2.61c3.22-2.1 6.78-3.33 12.81-2.29.32-.19.51-.38.6-.76-1.5-.55-3.14-.74-5.25-.71-1.9.06-5.31.76-7.14 1.84l.56-.69c1.27-.76 4.6-1.74 7.09-1.79 1.76-.04 2.66.06 4.76.62-.2-.35-.62-.53-1.26-.82-2.02-.91-5.79-1-8.87.38.38-.27.76-.5 1.27-.72 1.01-.48 2.68-.94 4.77-.89 1.67.03 3.65.6 4.86 1.8.2.25.32.5.36.7.96.48 1.52.94 1.83 1.47.14.28.18.58.12.92.4.23.59.44.8.71.13.22.24.47.27.69.04.3.07.64-.24 1.03.32.17.59.62.62.82.16.72-.31 1.43-.91 1.98-.71.61-2.28 1.35-3.55 1.68-2.51.63-4.74.9-6.51 1.22.8.2 1.87.45 3.63.45 3.77 0 7.09-1.78 7.09-1.78s-.07.23-.15.44c-2.39 1.44-6.18 2.05-7.81 1.97-1.64-.07-3.03-.32-4.39-.74-.41.12-.82.26-1.22.42 2.07.94 3.63 1.15 5.39 1.28 1.8.14 4.78-.29 7.29-1.21-.11.12-.17.3-.29.4-1.29.68-4 1.36-5.38 1.42-1.36.06-3.01 0-4.46-.27-1.24-.25-2.26-.63-3.32-1.1-.19.14-.28.32-.32.53 4.15 2.17 8.01 2.21 12.43.84l-.4.38c-4.86 1.98-8.65 1.21-11.59-.2-.1-.05-.22-.09-.31-.15.28.47 2.52 2.11 5.03 2.32 1.73.14 3.84-.15 5.1-.65l-.74.38c-.6.3-2.21.98-4.46.83-3-.21-4.68-1.54-5.43-2.23-.36-.33-.52-.7-.62-1.15-.68-.36-1.11-.73-1.46-1.29-.21-.31-.17-.68-.12-.99l.09-.26c-.33-.24-.67-.49-.8-.74-.3-.53-.12-.99.09-1.35-.18-.2-.34-.41-.42-.62-.08-.23-.1-.47-.07-.74.06-.44.3-.85.61-1.21.64-.75 1.68-1.34 3.44-1.92 1.72-.57 2.42-.66 3.72-.96 1.52-.35 3.33-.47 4.86-1-4.24-.74-8.64-.06-12.23 2.41z"/></svg>