<svg xmlns="http://www.w3.org/2000/svg" fill="none" viewBox="0 0 40 40" focusable="false"><path fill="none" d="M0 0h40v40H0z"/><rect width="38" height="28" x="1" y="6" fill="#FF0032" rx="4"/><path fill="#FFF" fill-rule="evenodd" d="m15.55 10.89-1.51 3.25-1.5-3.25h-1.65v4.9h1.16v-3.5l1.47 2.96h1.05l1.47-2.96v3.5h1.16v-4.9zm8.65 0v.98h1.91v3.92h1.07v-3.92h1.92v-.98zm3.61 16.99c.12-.11.19-.27.21-.45h1.08c-.03.39-.16.72-.37.98-.2.24-.47.42-.81.53-.33.1-.76.15-1.25.15-.51 0-.95-.07-1.32-.23s-.66-.42-.86-.78c-.19-.35-.29-.81-.29-1.38v-.11c0-.57.1-1.03.29-1.38.2-.36.49-.62.86-.78q.555-.24 1.32-.24c.49 0 .92.06 1.25.16.34.11.61.29.81.53.21.26.33.59.37.98h-1.08a.73.73 0 0 0-.21-.46.8.8 0 0 0-.43-.23c-.17-.04-.43-.07-.71-.07s-.53.04-.74.12c-.21.07-.37.21-.49.39-.11.19-.17.45-.17.79v.48c0 .35.06.61.17.8.12.18.28.31.49.39s.46.11.74.11.54-.02.71-.06c.18-.05.33-.13.43-.24"/></svg>