<svg xmlns="http://www.w3.org/2000/svg" fill="none" viewBox="0 0 40 40" focusable="false"><path d="M0 0H40V40H0z"/><path fill="#005BFF" d="M1 12.4C1 10.1598 1 9.03969 1.43597 8.18404C1.81947 7.43139 2.43139 6.81947 3.18404 6.43597C4.03969 6 5.15979 6 7.4 6L32.6 6C34.8402 6 35.9603 6 36.816 6.43597C37.5686 6.81947 38.1805 7.43139 38.564 8.18404C39 9.03969 39 10.1598 39 12.4L39 27.6C39 29.8402 39 30.9603 38.564 31.816C38.1805 32.5686 37.5686 33.1805 36.816 33.564C35.9603 34 34.8402 34 32.6 34L7.4 34C5.15979 34 4.03969 34 3.18404 33.564C2.43139 33.1805 1.81947 32.5686 1.43597 31.816C1 30.9603 1 29.8402 1 27.6L1 12.4Z"/><path fill="#FFF" fill-rule="evenodd" d="M14.9072 15.0002C14.9072 16.7683 13.6339 18 11.9166 18C10.1993 18 8.9259 16.7683 8.9259 15.0002C8.9259 13.2321 10.1993 12 11.9166 12C13.6339 12 14.9072 13.2321 14.9072 15.0002ZM23.231 18C24.9482 18 26.2217 16.7683 26.2217 15.0002C26.2217 13.2321 24.9482 12 23.231 12C21.5138 12 20.2402 13.2321 20.2402 15.0002C20.2402 16.7683 21.5138 18 23.231 18ZM32.0741 17.8173L32.0741 14.3418C32.0741 12.683 31.2094 12 30.0408 12.0007C29.2462 12.0007 28.616 12.3907 28.2538 13.0371L28.2538 12.183L26.8402 12.183L26.8402 17.8173L28.2653 17.8173L28.2653 15.0608C28.2653 13.8414 28.7909 13.3901 29.5272 13.3901C30.2281 13.3901 30.6368 13.7801 30.6368 14.6948L30.6368 17.8173L32.0741 17.8173ZM19.9207 16.5002L19.9207 17.818L15.2247 17.818L15.2247 16.6106L17.97 13.5004L15.2344 13.4997L15.2344 12.183L19.7223 12.183L19.7223 13.3781L16.9535 16.5002L19.9207 16.5002ZM11.916 16.5859C11.0398 16.5859 10.3977 15.9636 10.3977 15.0002C10.3977 14.0364 11.0404 13.4147 11.916 13.4144C12.7921 13.4144 13.4227 14.0364 13.4227 15.0002C13.4227 15.9636 12.7921 16.5859 11.916 16.5859ZM21.7126 15.0002C21.7126 15.9636 22.3547 16.5859 23.2317 16.5859C24.1078 16.5859 24.7384 15.9636 24.7384 15.0002C24.7384 14.0364 24.1078 13.4144 23.2317 13.4144C22.3547 13.4147 21.7126 14.0364 21.7126 15.0002ZM10.8397 22.1676C11.0129 22.1331 11.1931 22.1155 11.3807 22.1155C12.9044 22.1155 13.9548 23.2463 13.9548 24.985C13.9548 26.7602 12.835 28 10.9883 28C9.9928 28 9.08704 27.6368 8.52917 26.7273C8.50903 26.694 8.46863 26.6236 8.4187 26.5176C8.37012 26.4139 8.31238 26.2766 8.25562 26.1075C8.20386 25.953 8.14832 25.7467 8.10608 25.5403C8.05713 25.2917 8.02344 25.0039 8.01208 24.6859C8.00415 24.5397 7.99939 24.3795 8 24.2077C8.00037 24.122 8.00195 24.0332 8.00476 23.9418L8.00854 23.8368C8.01868 23.5301 8.07068 23.1054 8.13855 22.7482C8.18176 22.5345 8.23547 22.3135 8.30518 22.0826C8.42346 21.7652 8.57397 21.4748 8.76074 21.2242C8.9353 20.9896 9.1416 20.7896 9.38293 20.6344C9.60669 20.4955 9.90015 20.3748 10.208 20.2688C10.2765 20.2462 10.9716 20.0239 12.2472 20L13.7207 20L13.7207 21.2711L13.4973 21.2704L13.142 21.2698C12.7961 21.2694 12.4053 21.2701 12.0447 21.2727C11.0984 21.2797 10.6938 21.4552 10.6938 21.4552C10.6226 21.4781 10.5551 21.5034 10.4919 21.5296C9.38293 21.9247 9.43433 23.0223 9.43433 23.0223L9.61743 22.809C9.84619 22.6026 10.3491 22.2049 10.8397 22.1676ZM18.8693 22.2005L18.8693 22.716C18.1941 22.0251 17.3051 22.0284 17.3051 22.0284L17.1686 22.0201L17.068 22.0181C15.6715 22.0181 14.5054 23.0878 14.5054 25.0089C14.5054 26.9296 15.6715 27.9993 17.068 27.9993C17.9338 27.9993 18.5337 27.6102 18.8687 27.027L18.8687 27.8169L20.2769 27.8169L20.2769 22.2005L18.8693 22.2005ZM26.6115 27.8179L26.6115 22.2005L25.1919 22.2005L25.1919 24.2187L22.8486 24.2187L22.8486 22.2005L21.4404 22.2005L21.4404 27.8179L22.8486 27.8179L22.8486 25.5805L25.1919 25.5805L25.1919 27.8179L26.6115 27.8179ZM29.1556 25.1305L31.1527 27.8179L33 27.8179L30.5295 24.754L32.7113 22.2005L30.9106 22.2005L29.1556 24.5231L29.1556 22.2005L27.7476 22.2005L27.7476 27.8179L29.1556 27.8179L29.1556 25.1305ZM17.4264 26.5897C16.572 26.5897 15.9836 25.9573 15.9836 25.0089C15.9836 24.0601 16.5726 23.4284 17.4264 23.4284C18.2808 23.4284 18.8693 24.0608 18.8693 25.0089C18.8693 25.9566 18.2808 26.5897 17.4264 26.5897ZM9.48804 25.0089C9.48804 25.9939 10.1572 26.5897 10.9771 26.5897C11.808 26.5897 12.4772 25.9939 12.4779 25.0089C12.4779 24.0243 11.808 23.4288 10.9771 23.4288C10.1572 23.4288 9.48804 24.0243 9.48804 25.0089Z"/></svg>