<svg xmlns="http://www.w3.org/2000/svg" fill="none" viewBox="0 0 40 40" focusable="false"><path fill="none" d="M0 0h40v40H0z"/><path fill="#005BFF" d="M1 12.4c0-2.25 0-3.37.43-4.22a4 4 0 0 1 1.75-1.75C4.03 6 5.15 6 7.4 6h25.19c2.25 0 3.37 0 4.22.43a4 4 0 0 1 1.75 1.75c.44.85.44 1.97.44 4.22v15.2c0 2.24 0 3.36-.44 4.21a4 4 0 0 1-1.75 1.75c-.85.44-1.97.44-4.22.44H7.4c-2.25 0-3.37 0-4.22-.44a4 4 0 0 1-1.75-1.75C1 30.96 1 29.84 1 27.6z"/><path fill="#FFF" fill-rule="evenodd" d="M14.9 15c0 1.76-1.27 3-2.99 3s-2.99-1.24-2.99-3c0-1.77 1.27-3 2.99-3s2.99 1.23 2.99 3m8.33 3c1.71 0 2.99-1.24 2.99-3 0-1.77-1.28-3-2.99-3-1.72 0-2.99 1.23-2.99 3 0 1.76 1.27 3 2.99 3m8.84-.19v-3.47c0-1.66-.87-2.34-2.03-2.34-.8 0-1.43.39-1.79 1.03v-.85h-1.41v5.63h1.42v-2.75c0-1.22.53-1.67 1.26-1.67.7 0 1.11.39 1.11 1.3v3.12zM19.92 16.5v1.31h-4.7v-1.2l2.74-3.11-2.73-.01v-1.31h4.49v1.19l-2.77 3.13zm-8.01.08c-.88 0-1.52-.62-1.52-1.58 0-.97.65-1.59 1.52-1.59.88 0 1.51.62 1.51 1.59 0 .96-.63 1.58-1.51 1.58m9.8-1.58c0 .96.64 1.58 1.52 1.58.87 0 1.5-.62 1.5-1.58 0-.97-.63-1.59-1.5-1.59-.88 0-1.52.62-1.52 1.59m-10.33 7.11c-.19 0-.37.02-.55.05-.49.04-.99.44-1.22.64l-.18.22s-.05-1.1 1.06-1.5c.06-.02.13-.05.2-.07 0 0 .4-.18 1.35-.18.36 0 .75-.01 1.1-.01l.35.01h.23V20h-1.48c-1.27.02-1.97.24-2.04.26-.3.11-.6.23-.82.37-.24.15-.45.35-.62.59-.19.25-.34.54-.46.86-.07.23-.12.45-.17.66-.06.36-.12.79-.13 1.09v.37c-.01.17 0 .33.01.48.01.32.04.61.09.86.04.2.1.41.15.56.06.17.12.31.16.41.05.11.09.18.11.21.56.91 1.47 1.28 2.46 1.28 1.85 0 2.97-1.24 2.97-3.02 0-1.74-1.05-2.87-2.57-2.87m7.48.6v-.51h1.41v5.61h-1.41v-.79c-.33.59-.93.97-1.8.97-1.39 0-2.56-1.07-2.56-2.99s1.17-2.99 2.56-2.99l.1.01h.14s.89 0 1.56.69m7.75-.51v5.61h-1.42v-2.23h-2.35v2.23h-1.4V22.2h1.4v2.01h2.35V22.2zm4.54 5.61-2-2.68v2.68h-1.41V22.2h1.41v2.32l1.76-2.32h1.8l-2.19 2.55L33 27.81zM15.98 25c0 .95.59 1.58 1.44 1.58.86 0 1.44-.63 1.44-1.58 0-.94-.58-1.58-1.44-1.58-.85 0-1.44.64-1.44 1.58m-5.01 1.58c-.82 0-1.49-.59-1.49-1.58 0-.98.67-1.58 1.49-1.58.83 0 1.5.6 1.5 1.58 0 .99-.67 1.58-1.5 1.58"/></svg>