<svg xmlns="http://www.w3.org/2000/svg" fill="none" viewBox="0 0 40 40" focusable="false"><path fill="none" d="M0 0h40v40H0z"/><path fill="#CC013D" d="M1 12.4c0-2.25 0-3.37.43-4.22a4 4 0 0 1 1.75-1.75C4.03 6 5.15 6 7.4 6h25.19c2.25 0 3.37 0 4.22.43a4 4 0 0 1 1.75 1.75c.44.85.44 1.97.44 4.22v15.2c0 2.24 0 3.36-.44 4.21a4 4 0 0 1-1.75 1.75c-.85.44-1.97.44-4.22.44H7.4c-2.25 0-3.37 0-4.22-.44a4 4 0 0 1-1.75-1.75C1 30.96 1 29.84 1 27.6z"/><path fill="#FFF" d="m27.9 19.51-.17-2.19H26.7c-.02.73-.05 1.45-.08 2.19h-.84l.16-4.56h1.26c.69 0 1.13.37 1.23 1.06.08.54.12 1.1.18 1.65.06.58.11 1.16.16 1.74v.11zm-1.15-2.99h.91c.01-.64-.31-.91-.91-.77zM15.91 21.2c.5 0 .98-.04 1.46.01.6.06.93.4 1.03 1.01.07.47.1.95.15 1.42.06.68.13 1.35.19 2.03l-.47.09c-.4 0-.4 0-.43-.39-.04-.57-.08-1.13-.13-1.69 0-.04-.01-.08-.01-.12h-1.02c-.02.32-.03.64-.04.97-.02.36-.03.72-.04 1.08 0 .12-.04.15-.15.15-.23-.01-.45 0-.7 0zm1.69 1.57c.01-.66-.2-.88-.89-.78v.78zm4.83 2.98h-.85v-2.31h-1.12v2.31h-.85v-4.56c.26 0 .52 0 .77.01.03 0 .07.07.07.12.01.37.01.75.01 1.13v.17h1.11v-.72c0-.2.01-.39 0-.59 0-.09.03-.13.13-.12h.6c.11-.01.13.04.13.13v4.43m-7.89-4.56v.79h-.39c-.32 0-.65.01-.97 0-.09 0-.13.03-.13.13.01.19 0 .38 0 .56.27.01.52.01.77.05.63.11 1.04.57 1.11 1.21.03.34 0 .68-.14 1.01-.21.47-.56.77-1.07.8-.5.04-1.01.01-1.53.01v-.14c0-1.42 0-2.84-.01-4.26 0-.12.03-.16.17-.16.72.01 1.44 0 2.19 0m-1.47 3.82c.37.04.7.05.91-.3.18-.28.15-.85-.05-1.08-.15-.18-.56-.27-.86-.17zm1.85-10.05v4.56c-.27 0-.52 0-.77-.01a.8.8 0 0 1-.08-.19v-3.59h-1.01v3.78h-.86v-4.55zm8.6 10.79V21.2h.84v1.47c.55.13.85-.08.92-.62.03-.22.04-.44.06-.67l.02-.16h.84c-.03.28-.07.55-.11.82-.05.38-.16.74-.44 1.03-.03.02-.02.11 0 .15.29.79.59 1.58.89 2.37l.06.17c-.3 0-.59 0-.88-.01-.03 0-.07-.07-.09-.11-.24-.68-.49-1.36-.73-2.05-.03-.11-.09-.14-.2-.13-.1.01-.2 0-.33 0v2.29zm-1.62-6.23h-.77c-.11 0-.08-.09-.08-.15-.01-.62 0-1.25 0-1.88v-.18h-.6c-.39-.01-.74-.13-.98-.45-.1-.13-.2-.31-.21-.47-.03-.47-.01-.95-.01-1.43h.86v1.18c0 .21.09.34.3.36.2.03.4.03.63.04v-1.58h.86zm1.59-3.79h-.67v-.77h2.23v.76h-.68v3.79c-.28 0-.54.01-.81 0-.01-.04-.07-.16-.07-.2z"/><path fill="#FFF" fill-rule="evenodd" d="M17.15 19.65c.85 0 1.53-1.1 1.53-2.45 0-1.36-.68-2.45-1.53-2.45-.84 0-1.53 1.09-1.53 2.45 0 1.35.69 2.45 1.53 2.45m0-.88c.41 0 .75-.71.75-1.57 0-.87-.34-1.58-.75-1.58s-.74.71-.74 1.58c0 .86.33 1.57.74 1.57"/><path fill="#CC013D" d="M26.75 16.52v-.77c.6-.15.92.12.91.77zm-9.15 6.25h-.89v-.78c.69-.1.9.12.89.78m-4.53 2.24v-1.55c.3-.1.71-.01.86.17.2.23.23.8.05 1.08-.21.35-.54.34-.91.3"/></svg>