<svg xmlns="http://www.w3.org/2000/svg" fill="none" viewBox="0 0 40 40" focusable="false"><path d="M0 0H40V40H0z"/><rect width="38" height="28" x="1" y="6" fill="#BEA980" rx="4"/><path fill="#FFF" d="M20 18.7551C20.8842 18.7551 21.5842 19.4681 21.5842 20.3688C21.5842 21.2695 20.8842 21.9826 20 21.9826C19.1158 21.9826 18.4157 21.2695 18.4157 20.3688C18.4527 19.4681 19.1526 18.7551 20 18.7551ZM22.3578 15.5276C21.4737 15.5276 20.7736 16.2406 20.7736 17.1413C20.7736 18.042 21.4737 18.7551 22.3578 18.7551C23.2421 18.7551 23.9421 18.042 23.9421 17.1413C23.9421 16.2406 23.2421 15.5276 22.3578 15.5276ZM17.642 15.5276C16.7579 15.5276 16.0578 16.2406 16.0578 17.1413C16.0578 18.042 16.7579 18.7551 17.642 18.7551C18.5262 18.7551 19.2263 18.042 19.2263 17.1413C19.2263 16.2406 18.5262 15.5276 17.642 15.5276ZM24.7158 12.3C25.6 12.3 26.2999 13.0131 26.2999 13.9138C26.2999 14.8145 25.6 15.5276 24.7158 15.5276C23.8315 15.5276 23.1316 14.8145 23.1316 13.9138C23.1684 13.0131 23.8683 12.3 24.7158 12.3ZM20 12.3C20.8842 12.3 21.5842 13.0131 21.5842 13.9138C21.5842 14.8145 20.8842 15.5276 20 15.5276C19.1158 15.5276 18.4157 14.8145 18.4157 13.9138C18.4527 13.0131 19.1526 12.3 20 12.3ZM16.8684 13.9138C16.8684 14.8145 16.1684 15.5276 15.2842 15.5276C14.4 15.5276 13.7 14.8145 13.7 13.9138C13.7 13.0131 14.4 12.3 15.2842 12.3C16.1684 12.3 16.8684 13.0131 16.8684 13.9138ZM22.3578 21.945C21.4737 21.945 20.7736 22.6581 20.7736 23.5588C20.7736 24.4595 21.4737 25.1726 22.3578 25.1726C23.2421 25.1726 23.9421 24.4595 23.9421 23.5588C23.9421 22.6957 23.2421 21.945 22.3578 21.945ZM17.642 21.945C16.7579 21.945 16.0578 22.6581 16.0578 23.5588C16.0578 24.4595 16.7579 25.1726 17.642 25.1726C18.5262 25.1726 19.2263 24.4595 19.2263 23.5588C19.2263 22.6957 18.5262 21.945 17.642 21.945ZM24.7158 25.1726C25.6 25.1726 26.2999 25.8857 26.2999 26.7864C26.2999 27.6495 25.6 28.4 24.7158 28.4C23.8315 28.4 23.1316 27.6495 23.1316 26.7864C23.1684 25.8857 23.8683 25.1726 24.7158 25.1726ZM20 25.1726C20.8842 25.1726 21.5842 25.8857 21.5842 26.7864C21.5842 27.6495 20.8842 28.4 20 28.4C19.1158 28.4 18.4157 27.6495 18.4157 26.7864C18.4527 25.8857 19.1526 25.1726 20 25.1726ZM15.2842 25.1726C16.1684 25.1726 16.8684 25.8857 16.8684 26.7864C16.8684 27.6495 16.1684 28.4 15.2842 28.4C14.4 28.4 13.7 27.6495 13.7 26.7864C13.7368 25.8857 14.4368 25.1726 15.2842 25.1726Z"/></svg>