<svg xmlns="http://www.w3.org/2000/svg" fill="none" viewBox="0 0 40 40" focusable="false"><path fill="none" d="M0 0h40v40H0z"/><path fill="#FF8C00" d="M1 12.4c0-2.25 0-3.37.43-4.22a4 4 0 0 1 1.75-1.75C4.03 6 5.15 6 7.4 6h25.19c2.25 0 3.37 0 4.22.43a4 4 0 0 1 1.75 1.75c.44.85.44 1.97.44 4.22v15.2c0 2.24 0 3.36-.44 4.21a4 4 0 0 1-1.75 1.75c-.85.44-1.97.44-4.22.44H7.4c-2.25 0-3.37 0-4.22-.44a4 4 0 0 1-1.75-1.75C1 30.96 1 29.84 1 27.6z"/><path fill="#FFF" d="M25.49 22.89c.26.13.36.63.38.85.04.4-.05.55-.15.55s-.24-.15-.39-.46-.21-.66-.13-.84c.05-.12.16-.17.29-.1m-1.27 1.4c.18 0 .39.09.58.26.36.32.46.68.28.95-.11.14-.28.22-.48.22s-.41-.07-.55-.21c-.32-.29-.41-.78-.21-1.05.09-.11.21-.17.38-.17m-3.98 3.11c-4 0-7.24-3.42-7.24-7.64s3.24-7.64 7.24-7.64c3.99 0 7.24 3.42 7.24 7.64 0 1.43-.38 2.78-1.02 3.92-.26-1.87-1.43-2.93-3-3.24-.14-.02-.16-.11.02-.13.48-.05 1.16-.04 1.52.03.02-.19.03-.39.03-.59 0-2.79-2.14-5.05-4.78-5.05-2.65 0-4.79 2.26-4.79 5.05s2.14 5.05 4.79 5.05h.22c-.08-.45-.11-.9-.1-1.36.01-.31.08-.36.2-.11.67 1.21 1.61 2.3 3.46 2.73 1.52.35 3.04.76 4.67 2.95.14.19-.08.39-.25.24-1.66-1.56-3.17-2.07-4.55-2.07-1.55.01-2.6.22-3.66.22"/></svg>