<svg xmlns="http://www.w3.org/2000/svg" fill="none" viewBox="0 0 40 40" focusable="false"><rect width="38" height="27.444" x="1" y="7" fill="#FFE600" rx="4"/><path fill="#2B2D34" d="M23.913 19.389V16.77l.949-.949v2.276l.823.823 3.316-3.316.823.823c0-.617-.126-2.4-1.647-3.898-1.634-1.578-3.407-.87-4.001-.263L20.86 15.58l.846.846-1.715 1.704-1.703-1.704.846-.846-3.316-3.304c-.606-.606-2.367-1.315-4.002.263a5.478 5.478 0 0 0-1.646 3.887l.823-.823 3.316 3.316.812-.823V15.82l.949.95v2.618l1.326 1.337-6.552 6.563 2.596 2.584 6.551-6.551 6.552 6.551 2.595-2.584-6.552-6.563 1.327-1.337Z"/></svg>