<svg xmlns="http://www.w3.org/2000/svg" fill="none" viewBox="0 0 40 40" focusable="false"><path d="M0 0H40V40H0z"/><path fill="#C43268" d="M1 12.4C1 10.1598 1 9.03969 1.43597 8.18404C1.81947 7.43139 2.43139 6.81947 3.18404 6.43597C4.03969 6 5.15979 6 7.4 6L32.6 6C34.8402 6 35.9603 6 36.816 6.43597C37.5686 6.81947 38.1805 7.43139 38.564 8.18404C39 9.03969 39 10.1598 39 12.4L39 27.6C39 29.8402 39 30.9603 38.564 31.816C38.1805 32.5686 37.5686 33.1805 36.816 33.564C35.9603 34 34.8402 34 32.6 34L7.4 34C5.15979 34 4.03969 34 3.18404 33.564C2.43139 33.1805 1.81947 32.5686 1.43597 31.816C1 30.9603 1 29.8402 1 27.6L1 12.4Z"/><path fill="#FFF" d="M16.4988 27.7L14.4 27.7L14.4 18.6438C14.4 15.5325 16.9313 13 20.0439 13L27 13L27 18.5812C27 21.6925 24.4687 24.225 21.3562 24.225L17.8333 24.225L18.6369 22.125L21.3562 22.125C23.31 22.125 24.9 20.5349 24.9 18.5812L24.9 15.1012L20.0426 15.1012C18.0888 15.1012 16.4988 16.6913 16.4988 18.6451L16.4988 27.7Z"/></svg>