<svg xmlns="http://www.w3.org/2000/svg" fill="none" viewBox="0 0 40 40" focusable="false"><path d="M0 0H40V40H0z"/><path fill="#F4F5F6" d="M1 12.4C1 10.1598 1 9.03969 1.43597 8.18404C1.81947 7.43139 2.43139 6.81947 3.18404 6.43597C4.03969 6 5.15979 6 7.4 6L32.6 6C34.8402 6 35.9603 6 36.816 6.43597C37.5686 6.81947 38.1805 7.43139 38.564 8.18404C39 9.03969 39 10.1598 39 12.4L39 27.6C39 29.8402 39 30.9603 38.564 31.816C38.1805 32.5686 37.5686 33.1805 36.816 33.564C35.9603 34 34.8402 34 32.6 34L7.4 34C5.15979 34 4.03969 34 3.18404 33.564C2.43139 33.1805 1.81947 32.5686 1.43597 31.816C1 30.9603 1 29.8402 1 27.6L1 12.4Z"/><path fill="#00274F" fill-rule="evenodd" d="M21.2545 16.0727C19.5377 16.0727 18.1423 17.1319 17.7964 17.5703L17.7964 16.2994L14.75 16.2994L14.75 29.3001L17.7773 29.3001L17.7773 24.676C18.1327 25.124 19.5184 26.164 21.2448 26.164C24.1097 26.164 25.6875 24.6093 25.6875 21.111C25.6875 17.6127 24.1119 16.0727 21.2545 16.0727ZM20.17 23.6455C18.3662 23.6455 17.7985 22.9899 17.7985 21.1036C17.7985 19.2173 18.362 18.5617 20.17 18.5617C21.978 18.5617 22.5308 19.2077 22.5308 21.1036C22.5308 22.9994 21.9865 23.6412 20.17 23.6412L20.17 23.6455Z"/><path fill="#00274F" d="M24.9333 9.9375L14.75 11.2576L14.75 14.4634L24.9333 13.3726L24.9333 9.9375Z"/><path fill="#E4003A" d="M24.9333 9.9375L14.75 11.2576L14.75 14.4634L24.9333 13.3726L24.9333 9.9375Z"/></svg>