<svg xmlns="http://www.w3.org/2000/svg" fill="none" viewBox="0 0 40 40" focusable="false"><rect width="38" height="27.444" x="1" y="7" fill="#F0F2F5" rx="4"/><path fill="url(#Sber_svg__a)" fill-rule="evenodd" d="M19.8 11.6c2.208 0 4.241.782 5.824 2.08l-1.583 1.269a7.2 7.2 0 0 0-4.241-1.38 7.232 7.232 0 0 0 0 14.462 7.23 7.23 0 0 0 7.231-7.231v-.276l1.84-1.325c.083.515.129 1.058.129 1.601 0 5.078-4.122 9.2-9.2 9.2s-9.2-4.122-9.2-9.2 4.122-9.2 9.2-9.2" clip-rule="evenodd"/><path fill="#229E39" fill-rule="evenodd" d="m16.341 18.555 3.46 2.245 7.47-5.474 1.113 1.803-8.584 6.266-3.459-2.162z" clip-rule="evenodd"/><defs><linearGradient id="Sber_svg__a" x1="24.734" x2="14.989" y1="14.145" y2="27.284" gradientUnits="userSpaceOnUse"><stop stop-color="#0187C8"/><stop offset=".313" stop-color="#08A652"/><stop offset=".724" stop-color="#08A652"/><stop offset="1" stop-color="#FAEF23"/></linearGradient></defs></svg>