<svg xmlns="http://www.w3.org/2000/svg" fill="none" viewBox="0 0 40 40" focusable="false"><rect width="38" height="27.444" x="1" y="7" fill="#F7F7F7" rx="4"/><path fill="#5B57A2" fill-rule="evenodd" d="m11.36 14.88 2.46 4.35v2.65l-2.46 4.34z"/><path fill="#D90751" fill-rule="evenodd" d="m20.79 17.65 2.3-1.4h4.71l-7.01 4.25z"/><path fill="#FAB718" fill-rule="evenodd" d="m20.78 14.86.01 5.75-2.46-1.49v-8.61z"/><path fill="#ED6F26" fill-rule="evenodd" d="M27.8 16.25h-4.71l-2.31-1.39-2.45-4.35z"/><path fill="#63B22F" fill-rule="evenodd" d="M20.79 26.25v-2.8l-2.46-1.47v8.62z"/><path fill="#1487C9" fill-rule="evenodd" d="m23.09 24.86-9.27-5.63-2.46-4.35 16.43 9.98z"/><path fill="#017F36" fill-rule="evenodd" d="m18.33 30.6 2.46-4.35 2.3-1.39h4.7z"/><path fill="#984995" fill-rule="evenodd" d="m11.36 26.22 6.99-4.24L16 20.56l-2.18 1.32z"/></svg>