<svg xmlns="http://www.w3.org/2000/svg" fill="none" viewBox="0 0 40 40" focusable="false"><rect width="38" height="27.444" x="1" y="7" fill="#F7F7F7" rx="4"/><path fill="#5B57A2" fill-rule="evenodd" d="m11.365 14.888 2.457 4.348v2.651l-2.453 4.34-.004-11.339Z" clip-rule="evenodd"/><path fill="#D90751" fill-rule="evenodd" d="m20.796 17.654 2.302-1.397 4.708-.003-7.01 4.253v-2.853Z" clip-rule="evenodd"/><path fill="#FAB718" fill-rule="evenodd" d="m20.784 14.863.013 5.756-2.462-1.498v-8.605l2.449 4.347Z" clip-rule="evenodd"/><path fill="#ED6F26" fill-rule="evenodd" d="m27.806 16.254-4.708.003-2.314-1.394-2.45-4.347 9.472 5.738Z" clip-rule="evenodd"/><path fill="#63B22F" fill-rule="evenodd" d="M20.796 26.252v-2.793l-2.461-1.47v8.613l2.461-4.35Z" clip-rule="evenodd"/><path fill="#1487C9" fill-rule="evenodd" d="m23.092 24.867-9.27-5.63-2.457-4.349 16.432 9.974-4.705.005Z" clip-rule="evenodd"/><path fill="#017F36" fill-rule="evenodd" d="m18.335 30.602 2.461-4.35 2.296-1.385 4.705-.005-9.462 5.74Z" clip-rule="evenodd"/><path fill="#984995" fill-rule="evenodd" d="m11.37 26.227 6.984-4.238-2.349-1.427-2.183 1.325-2.453 4.34Z" clip-rule="evenodd"/></svg>