<svg xmlns="http://www.w3.org/2000/svg" fill="none" viewBox="0 0 40 40" focusable="false"><path d="M0 0H40V40H0z"/><path fill="#174882" d="M1 12.4C1 10.1598 1 9.03969 1.43597 8.18404C1.81947 7.43139 2.43139 6.81947 3.18404 6.43597C4.03969 6 5.15979 6 7.4 6L32.6 6C34.8402 6 35.9603 6 36.816 6.43597C37.5686 6.81947 38.1805 7.43139 38.564 8.18404C39 9.03969 39 10.1598 39 12.4L39 27.6C39 29.8402 39 30.9603 38.564 31.816C38.1805 32.5686 37.5686 33.1805 36.816 33.564C35.9603 34 34.8402 34 32.6 34L7.4 34C5.15979 34 4.03969 34 3.18404 33.564C2.43139 33.1805 1.81947 32.5686 1.43597 31.816C1 30.9603 1 29.8402 1 27.6L1 12.4Z"/><path fill="#FFF" fill-rule="evenodd" d="M18.9181 12.3842L21.6372 12.3842C23.133 12.3842 24.349 13.6006 24.349 15.0956L24.349 15.0963C24.349 16.5945 23.1292 17.8154 21.6302 17.8154L21.2433 17.8154L21.2433 17.1857L21.6306 17.1857C22.7816 17.1857 23.7185 16.2484 23.7185 15.0967C23.7185 13.9483 22.7841 13.0142 21.6361 13.0142L19.5482 13.0142L19.5482 17.8169L18.9181 17.8169L18.9181 12.3842ZM21.6317 16.4016C22.351 16.4016 22.9352 15.8163 22.9352 15.0978C22.9352 14.3811 22.3528 13.7983 21.6361 13.7983L20.3326 13.7983L20.3326 15.9215L20.3286 15.9215L20.3286 17.8169L19.7021 17.8169L19.7021 13.1675L21.6364 13.1675C22.7 13.1675 23.566 14.0338 23.566 15.0967C23.566 16.1636 22.6982 17.0313 21.631 17.0313L21.2437 17.0313L21.2437 16.4016L21.6317 16.4016ZM13.1054 27.0468L10.375 25.2075C10.375 25.2075 20.1051 24.739 20.1051 22.6537C20.1051 19.9928 14.4755 19.0206 14.4755 16.4486C14.4755 14.618 17.2058 14.0025 18.6669 13.8045C18.328 13.8802 17.9528 13.9788 17.5789 14.1041C15.9784 14.6431 15.1321 15.4414 15.1321 16.4133C15.1321 17.3142 16.3482 18.0433 17.7562 18.8877C19.5194 19.9448 21.5167 21.142 21.5167 22.9412C21.5167 25.3411 14.7051 26.7494 13.1054 27.0468ZM18.4118 13.9625C17.3562 14.3727 16.0221 15.0756 16.0221 16.2873C16.0221 17.9952 22.9472 18.4273 22.9476 23.4272C22.9476 26.4851 15.5016 28.6615 15.5016 28.6615L13.2968 27.176C14.0754 27.0282 15.6534 26.6974 17.2171 26.1925C20.1775 25.2381 21.6797 24.1443 21.6797 22.9412C21.6797 21.0499 19.6399 19.8272 17.8403 18.7487C16.4742 17.9297 15.2941 17.2221 15.2941 16.4125C15.2941 15.0166 17.0242 14.2879 18.4118 13.9625ZM26.526 17.0525C26.9082 16.7238 27.3931 16.548 27.9031 16.5571C29.0333 16.5774 29.9254 17.526 29.9258 18.6559L29.9258 21.9887L29.2815 21.9887L29.2815 18.594C29.2815 18.2085 29.1286 17.8485 28.8509 17.5788C28.5743 17.3102 28.2059 17.1682 27.8233 17.1795C27.3101 17.1951 26.8438 17.4969 26.6072 17.9686L26.5304 18.1212L26.4547 17.9679C26.2094 17.4729 25.6928 17.1613 25.1428 17.1791C24.3861 17.2017 23.7713 17.8511 23.7713 18.626L23.7713 21.9883L23.1263 21.9883L23.1263 18.6555C23.1263 17.5264 24.0188 16.5778 25.1476 16.5571C25.659 16.548 26.1435 16.7238 26.526 17.0525ZM26.4478 18.6224L26.4478 21.9883L25.8035 21.9883L25.8035 18.5893C25.8035 18.2686 25.5651 17.9872 25.2459 17.957C24.8797 17.9221 24.5692 18.2118 24.5692 18.5714L24.5692 21.9887L23.9245 21.9887L23.9245 18.594C23.9245 18.2489 24.0683 17.913 24.3198 17.6713C24.5699 17.4303 24.8957 17.3076 25.2382 17.3171C25.9047 17.3429 26.4478 17.9286 26.4478 18.6224ZM29.1276 18.6224L29.1276 21.9883L28.4836 21.9883L28.4836 18.5893C28.4836 18.2686 28.2456 17.9872 27.926 17.957C27.5598 17.9221 27.2493 18.2118 27.2493 18.5714L27.2493 21.9887L26.6047 21.9887L26.6047 18.594C26.6047 18.2489 26.7423 17.9261 26.9916 17.6855C27.2413 17.4459 27.5671 17.3229 27.9151 17.3335C28.5834 17.3589 29.1276 17.937 29.1276 18.6224Z"/></svg>