<svg xmlns="http://www.w3.org/2000/svg" fill="none" viewBox="0 0 40 40" focusable="false"><path d="M0 0H40V40H0z"/><path fill="#18417E" d="M1 12.4C1 10.1598 1 9.03969 1.43597 8.18404C1.81947 7.43139 2.43139 6.81947 3.18404 6.43597C4.03969 6 5.15979 6 7.4 6L32.6 6C34.8402 6 35.9603 6 36.816 6.43597C37.5686 6.81947 38.1805 7.43139 38.564 8.18404C39 9.03969 39 10.1598 39 12.4L39 27.6C39 29.8402 39 30.9603 38.564 31.816C38.1805 32.5686 37.5686 33.1805 36.816 33.564C35.9603 34 34.8402 34 32.6 34L7.4 34C5.15979 34 4.03969 34 3.18404 33.564C2.43139 33.1805 1.81947 32.5686 1.43597 31.816C1 30.9603 1 29.8402 1 27.6L1 12.4Z"/><path fill="#FBBA00" fill-rule="evenodd" d="M18.2138 22.3046L20.1739 22.3021C20.5528 22.3021 20.8904 22.1922 21.1479 22.0124C21.4223 21.8275 21.6264 21.5552 21.7502 21.248L22.7582 18.3953L20.8661 18.3953C20.4896 18.3953 20.1545 18.4678 19.8824 18.6526C19.591 18.835 19.3456 19.1797 19.2679 19.4345L18.2138 22.3071L18.2138 22.3046Z"/><path fill="#FBBA00" fill-rule="evenodd" d="M23.2318 20.6735L22.8262 21.7276C22.6538 22.1273 22.338 22.5644 22.1364 22.7093C21.7381 23.019 21.1697 23.2938 20.5504 23.2938L16.8002 23.2963L17.813 20.029L18.2186 18.9749C18.3911 18.5752 18.7068 18.1381 18.9084 17.9932C19.3092 17.6859 19.8727 17.4087 20.4921 17.4087L24.0261 17.4062L23.2318 20.6735ZM29.0975 15.8L17.2228 15.8125C16.567 15.8125 15.6926 15.9973 14.9664 16.5219C14.2984 17.0315 14.1697 17.5061 13.9123 18.0481C13.8685 18.158 13.786 18.3029 13.752 18.4303L12.1416 23.2963L11.6 24.9L23.8245 24.8875C24.4778 24.8875 25.3547 24.7051 26.0809 24.1781C26.744 23.671 26.8776 23.1964 27.1326 22.6518C27.1763 22.5419 27.2589 22.3971 27.2978 22.2722L29.1 15.8325L29.0878 15.8325L29.1 15.8L29.0975 15.8Z"/><path fill="#FFF" fill-rule="evenodd" d="M23.2318 20.6735L22.8262 21.7276C22.6538 22.1273 22.338 22.5644 22.1364 22.7093C21.7381 23.019 21.1697 23.2938 20.5504 23.2938L16.8002 23.2963L17.813 20.029L18.2186 18.9749C18.3911 18.5752 18.7068 18.1381 18.9084 17.9932C19.3092 17.6859 19.8727 17.4087 20.4921 17.4087L24.0261 17.4062L23.2318 20.6735ZM29.0975 15.8L17.2228 15.8125C16.567 15.8125 15.6926 15.9973 14.9664 16.5219C14.2984 17.0315 14.1697 17.5061 13.9123 18.0481C13.8685 18.158 13.786 18.3029 13.752 18.4303L12.1416 23.2963L11.6 24.9L23.8245 24.8875C24.4778 24.8875 25.3547 24.7051 26.0809 24.1781C26.744 23.671 26.8776 23.1964 27.1326 22.6518C27.1763 22.5419 27.2589 22.3971 27.2978 22.2722L29.1 15.8325L29.0878 15.8325L29.1 15.8L29.0975 15.8Z"/></svg>