<svg xmlns="http://www.w3.org/2000/svg" fill="none" viewBox="0 0 40 40" focusable="false"><path d="M0 0H40V40H0z"/><path fill="#F4F5F6" d="M1 12.4C1 10.1598 1 9.03969 1.43597 8.18404C1.81947 7.43139 2.43139 6.81947 3.18404 6.43597C4.03969 6 5.15979 6 7.4 6L32.6 6C34.8402 6 35.9603 6 36.816 6.43597C37.5686 6.81947 38.1805 7.43139 38.564 8.18404C39 9.03969 39 10.1598 39 12.4L39 27.6C39 29.8402 39 30.9603 38.564 31.816C38.1805 32.5686 37.5686 33.1805 36.816 33.564C35.9603 34 34.8402 34 32.6 34L7.4 34C5.15979 34 4.03969 34 3.18404 33.564C2.43139 33.1805 1.81947 32.5686 1.43597 31.816C1 30.9603 1 29.8402 1 27.6L1 12.4Z"/><path fill="#E2001A" fill-rule="evenodd" d="M20.4007 14.9109C20.4069 14.9022 20.413 14.8925 20.42 14.8829 20.5819 14.6476 20.5145 14.4726 20.406 14.3789 20.3377 14.3186 18.7137 13.3351 18.7137 13.3351 18.5965 13.2563 18.5186 13.1224 18.5186 12.9693 18.5186 12.7287 18.663 12.5467 18.9902 12.4566 20.0341 12.1696 23.7048 12.0191 24.9525 12.0191 25.3848 12.0191 26.1302 12.0173 26.7996 12.0366L26.7699 12.0077C24.9411 10.4458 22.5664 9.50256 19.9729 9.50256 14.1882 9.50256 9.5 14.1899 9.5 19.9745 9.5 22.5173 10.4056 24.8474 11.9124 26.6622 13.2284 24.7695 16.4764 20.1067 17.1877 19.1538 18.0076 18.0557 19.8784 15.6144 20.1943 15.2005L20.21 15.1813 20.4007 14.9109ZM13.5871 28.2755C15.3546 29.637 17.5684 30.4464 19.9729 30.4464 25.7566 30.4464 30.4449 25.7581 30.4449 19.9744 30.4449 18.2235 30.0153 16.5741 29.2566 15.1242L29.2575 15.1251C29.618 14.7777 30.0336 14.2282 29.7606 13.5387 29.6749 13.334 29.268 12.8685 29.163 12.7556L29.1779 12.7959C29.4325 13.565 28.9285 14.0471 28.5663 14.3744 28.3676 14.5555 25.7085 17.0624 22.59 19.7889 19.8408 22.1925 16.7669 24.6381 14.9854 25.9716 12.4802 27.8459 11.9928 28.1189 11.9928 28.1189 11.9263 28.1547 11.8161 28.1854 11.7356 28.1854 11.5825 28.1854 11.4495 28.1171 11.3655 28.0069L11.3629 28.0042C11.3497 28.0366 11.3454 28.0646 11.3567 28.0839 11.6253 28.5196 12.0707 29.0227 12.3306 29.0227 12.4111 29.0227 12.5222 28.9921 12.5887 28.9571 12.5887 28.9571 12.7856 28.8477 13.5871 28.2755Z"/><path fill="#E2001A" fill-rule="evenodd" d="M13.5871 28.2755C15.3546 29.637 17.5684 30.4464 19.9729 30.4464C25.7566 30.4464 30.4449 25.7581 30.4449 19.9744C30.4449 18.2235 30.0153 16.5741 29.2566 15.1242L29.2575 15.1251C29.618 14.7777 30.0336 14.2282 29.7606 13.5387C29.6749 13.334 29.268 12.8685 29.163 12.7556L29.1779 12.7959C29.4325 13.565 28.9285 14.0471 28.5663 14.3744C28.3676 14.5555 25.7085 17.0624 22.59 19.7889C19.8408 22.1925 16.7669 24.6381 14.9854 25.9716C12.4802 27.8459 11.9928 28.1189 11.9928 28.1189C11.9263 28.1547 11.8161 28.1854 11.7356 28.1854C11.5825 28.1854 11.4495 28.1171 11.3655 28.0069L11.3629 28.0042C11.3497 28.0366 11.3454 28.0646 11.3567 28.0839C11.6253 28.5196 12.0707 29.0227 12.3306 29.0227C12.4111 29.0227 12.5222 28.9921 12.5887 28.9571C12.5887 28.9571 12.7856 28.8477 13.5871 28.2755Z"/><path fill="#E2001A" fill-rule="evenodd" d="M20.4155 14.883C20.5765 14.6485 20.5093 14.4735 20.4016 14.379C20.3333 14.3195 18.7094 13.3351 18.7094 13.3351C18.592 13.2564 18.5142 13.1234 18.5142 12.9702C18.5142 12.7287 18.6585 12.5476 18.9859 12.4566C20.0288 12.1696 23.7003 12.0199 24.9472 12.0199C25.5361 12.0199 26.7025 12.0156 27.4698 12.0664C28.3309 12.1224 28.9845 12.3009 29.1463 12.7174C29.4657 13.5337 28.9381 14.0377 28.5636 14.3772C28.3658 14.5575 25.7067 17.0644 22.5882 19.7909C19.8389 22.1945 16.7642 24.6393 14.9835 25.9736C12.4785 27.8479 11.9911 28.1209 11.9911 28.1209C11.9246 28.1568 11.8143 28.1874 11.733 28.1874C11.474 28.1874 11.2701 27.9888 11.2701 27.728C11.2701 27.63 11.2998 27.5373 11.3523 27.4629C11.3523 27.4629 16.2847 20.3561 17.1833 19.1539C18.081 17.9534 20.2353 15.1411 20.2353 15.1411C20.2353 15.1411 20.2607 15.1096 20.4155 14.883Z"/><path fill="#FEFEFE" fill-rule="evenodd" d="M20.4155 14.883C20.5765 14.6485 20.5093 14.4735 20.4016 14.379C20.3333 14.3195 18.7094 13.3351 18.7094 13.3351C18.592 13.2564 18.5142 13.1234 18.5142 12.9702C18.5142 12.7287 18.6585 12.5476 18.9859 12.4566C20.0288 12.1696 23.7003 12.0199 24.9472 12.0199C25.5361 12.0199 26.7025 12.0156 27.4698 12.0664C28.3309 12.1224 28.9845 12.3009 29.1463 12.7174C29.4657 13.5337 28.9381 14.0377 28.5636 14.3772C28.3658 14.5575 25.7067 17.0644 22.5882 19.7909C19.8389 22.1945 16.7642 24.6393 14.9835 25.9736C12.4785 27.8479 11.9911 28.1209 11.9911 28.1209C11.9246 28.1568 11.8143 28.1874 11.733 28.1874C11.474 28.1874 11.2701 27.9888 11.2701 27.728C11.2701 27.63 11.2998 27.5373 11.3523 27.4629C11.3523 27.4629 16.2847 20.3561 17.1833 19.1539C18.081 17.9534 20.2353 15.1411 20.2353 15.1411C20.2353 15.1411 20.2607 15.1096 20.4155 14.883Z"/></svg>