<svg xmlns="http://www.w3.org/2000/svg" fill="none" viewBox="0 0 40 40" focusable="false"><path fill="none" d="M0 0h40v40H0z"/><path fill="#F4F5F6" d="M1 12.4c0-2.25 0-3.37.43-4.22a4 4 0 0 1 1.75-1.75C4.03 6 5.15 6 7.4 6h25.19c2.25 0 3.37 0 4.22.43a4 4 0 0 1 1.75 1.75c.44.85.44 1.97.44 4.22v15.2c0 2.24 0 3.36-.44 4.21a4 4 0 0 1-1.75 1.75c-.85.44-1.97.44-4.22.44H7.4c-2.25 0-3.37 0-4.22-.44a4 4 0 0 1-1.75-1.75C1 30.96 1 29.84 1 27.6z"/><path fill="#DF3333" d="M11.48 12h6.98c.98 0 1.58.73 1.36 1.62l-3.25 12.75c-.23.89-1.21 1.63-2.18 1.63H7.4c-.98 0-1.58-.73-1.36-1.63L9.3 13.62c.23-.89 1.2-1.62 2.18-1.62"/><path fill="#004989" d="M17.89 12h8.04c.97 0 .53.73.3 1.62l-3.25 12.75c-.23.89-.16 1.63-1.14 1.63h-8.03c-.98 0-1.59-.73-1.36-1.63l3.25-12.75c.24-.89 1.21-1.62 2.19-1.62"/><path fill="#00808A" d="M25.6 12h6.99c.98 0 1.59.73 1.36 1.62l-3.26 12.75c-.23.89-1.21 1.63-2.18 1.63h-6.99c-.98 0-1.58-.73-1.36-1.63l3.26-12.75c.23-.89 1.2-1.62 2.18-1.62"/><path fill="#FFF" fill-rule="evenodd" d="M24.43 24h.66l.19-.58h-.66zm.53-1.6-.22.68s.25-.11.38-.15l.34-.05.16-.48zm.33-.98-.22.66s.24-.1.38-.13c.13-.04.34-.05.34-.05l.16-.47zm1.46 0L25.89 24h.25l-.18.53h-.25l-.05.16h-.81l.06-.16h-1.65l.17-.5h.16l.87-2.61.17-.53h.83l-.09.27s.22-.15.43-.19c.2-.05 1.4-.07 1.4-.07l-.18.53z"/><path fill="#FFF" d="M27.2 20.9h.8v.29l.33.08-.17.5h-.47c-.41.02-.68-.16-.67-.34zM27.23 23.25h-.84l.14-.45h.96l.14-.4h-.95l.16-.5h2.64l-.16.5h-.88l-.14.4h.89l-.15.45h-.96l-.17.18h.39l.09.55c.02.03.17.15.24.15l-.06.54h-.31c-.04 0-.11 0-.21-.01-.15-.02-.3-.09-.35-.22l-.11-.6-.43.55a.78.78 0 0 1-.65.3h-.61l.16-.48h.23c.07 0 .13-.02.17-.04zM18.02 22.04h2.23l-.17.48h-.89l-.14.41h.91l-.17.51h-.9l-.22.67c-.02.05.13.07.22.08l.54-.05-.19.55h-1.02a.9.9 0 0 1-.36-.12c-.03-.03-.12-.16-.1-.23l.3-.9h-.51l.17-.51h.5l.14-.41h-.51z"/><path fill="#FFF" d="M19.52 21.17h.91l-.17.51h-1.24c-.08.08-.51.27-.7.27l-.3.09.06-.58c.1 0 .3 0 .33-.02.04-.02.09-.08.14-.16l.23-.38h.91z"/><path fill="#FFF" fill-rule="evenodd" d="M21.27 22s.25-.21.68-.27c.09-.02.7-.01.7-.01l.09-.28h-1.28zm1.2.21H21.2l-.08.24h1.11c.13-.02.16 0 .17-.01zm-1.65-1.32h.78l-.11.36s.25-.18.42-.24c.14-.05.43-.1.53-.11l1.28-.01-.42 1.3c-.07.23-.16.37-.21.43-.05.07-.1.13-.21.18-.1.06-.2.08-.29.09-.08.01-.21.02-.39.02h-1.21l-.35 1.03c-.03.1-.04.15-.02.17l.65.01-.18.57h-.6c-.19 0-.33-.01-.43-.01-.1-.02-.29-.09-.35-.17.01-.05 0-.22.03-.31z"/><path fill="#FFF" d="m23.09 23-.07.32c-.03.1-.06.17-.15.23-.08.07-.18.14-.42.14l-.43.01v.36l.23.13.42-.02-.17.51h-.47c-.34 0-.58 0-.66-.06-.08-.05-.1-.1-.09-.21l.03-1.38.89-.12-.14.4h.18c.02-.01.17-.06.18-.09l.17-.33zM12.3 16.07c-.02.11-.5 2.16-.5 2.16-.11.41-.19.71-.44.89-.15.12-.32.17-.52.17-.32 0-.5-.15-.54-.42 0 0 .09-.65.1-.65 0 0 .51-1.87.6-2.11-1 0-1.17-.03-1.18-.04l-.55 2.23-.05.18-.08.58c0 .18.04.32.11.44.25.38.92.43 1.3.43.49 0 .95-.1 1.26-.27.54-.29.69-.75.82-1.16l.05-.2s.53-1.94.62-2.19c-.72.01-.92-.02-1-.04M15.2 19.91c-.36 0-.48 0-.89.02l.09-.46.05-.19c.07-.3.16-.66.16-.76.01-.07.03-.23-.17-.23-.09 0-.17.04-.27.08-.04.16-.15.62-.19.82-.1.44-.12.49-.16.71-.36-.01-.51.02-.93.04.07-.26.12-.55.19-.81.17-.71.21-.97.26-1.33.41-.05.54-.09.98-.17l-.03.27c.07-.05.14-.08.21-.12.21-.09.44-.12.57-.12.19 0 .41.05.5.25.08.18.03.41-.09.85l-.05.23c-.11.48-.17.59-.23.92M16.64 19.92c-.21 0-.35-.01-.48 0-.13 0-.26 0-.46.01.06-.18.06-.28.08-.35.03-.07.06-.13.11-.32.06-.25.1-.42.12-.57.03-.14.05-.27.07-.41.21-.02.37-.06.51-.08.14-.03.27-.05.49-.09-.03.16-.06.34-.1.5-.03.16-.08.3-.12.46-.07.32-.11.44-.13.53-.01.08-.06.15-.09.32M18.87 18.78c-.02.08-.09.39-.2.52-.08.09-.17.15-.27.15-.03 0-.2 0-.2-.23-.01-.12.02-.24.06-.37.08-.37.2-.69.48-.69.21 0 .23.24.13.62m.92.03c.13-.5.03-.73-.09-.87-.18-.21-.5-.28-.84-.28-.2 0-.68.02-1.06.34-.27.22-.39.53-.47.83s-.16.85.39 1.05c.17.07.41.08.57.08.4 0 .81-.1 1.12-.4.23-.24.35-.6.38-.75M28.39 19.95c-.43 0-.55 0-.94.01.11-.37.2-.77.29-1.14.12-.48.15-.68.19-.97.42-.05.57-.09 1-.16-.08.3-.14.64-.21.94-.16.64-.27.99-.33 1.32"/><path fill="#FFF" d="M27.74 18.82c-.03.09-.09.39-.21.52-.07.09-.24.15-.34.15-.02 0-.2 0-.2-.23 0-.12.02-.23.05-.37.1-.36.2-.68.48-.68.23 0 .31.24.22.61m.84.03c.13-.49-.37-.04-.45-.2-.12-.26-.05-.77-.54-.94-.18-.07-.63.02-1 .33-.27.23-.4.54-.47.83-.07.3-.16.84.39 1.03.17.07.33.09.48.08.56-.02.97-.78 1.28-1.08.23-.23.28.1.31-.05M22.18 19.91c-.35 0-.47 0-.88.02.04-.15.05-.31.1-.46l.04-.19c.08-.3.15-.66.16-.76.01-.07.03-.23-.16-.23-.09 0-.18.04-.27.08-.05.16-.15.62-.2.82-.1.44-.11.49-.15.71-.36-.01-.51.02-.93.04.07-.26.12-.55.18-.81.18-.71.22-.97.27-1.33.41-.05.54-.09.98-.17l-.03.27c.07-.05.15-.08.22-.12.21-.09.44-.12.56-.12.19 0 .4.05.49.25.09.18.03.41-.09.85l-.05.23c-.11.48-.17.59-.24.92M25.23 16.07h-.29c-.76.01-1.06.01-1.19-.01l-.3 1.3-.68 2.56c.66 0 .93 0 1.04.01.03-.12.18-.8.18-.8s.13-.5.14-.52c.57 0 1.36-.07 1.87-.41.34-.24.57-.58.68-1 .02-.1.05-.23.05-.35 0-.16-.04-.32-.14-.44-.25-.33-.76-.34-1.36-.34m.38 1.2c-.06.25-.24.47-.48.57-.19.1-.42.1-.67.1h-.16.16l.14-1.2s.73-.05.75-.05c.23.09.33.3.26.58M31.85 17.68c-.44.08-.56.07-.95.11-.3.63-.32.53-.56 1.01l-.07-1.12c-.46.08-.5.06-.92.1.05.25.01.27.05.66.03.19.06.38.09.56.04.32.07.48.11.95-.28.43-.35.59-.62.97.41-.01.43.17.74.17l.15-.22c.23-.45 1.98-3.19 1.98-3.19M17.02 17.95c.23-.15.26-.36.06-.46-.19-.11-.54-.07-.77.08-.24.14-.27.34-.07.45.2.1.55.07.78-.07"/><path fill="#FFF" d="m29.87 20.87-.38.57c-.11.19-.3.32-.62.32l-.54-.01v-.48c.06 0 .36-.01.39-.02l.26-.33z"/></svg>