<svg xmlns="http://www.w3.org/2000/svg" fill="none" viewBox="0 0 40 40" focusable="false"><path d="M0 0H40V40H0z"/><path fill="#F4F5F6" d="M1 12.4C1 10.1598 1 9.03969 1.43597 8.18404C1.81947 7.43139 2.43139 6.81947 3.18404 6.43597C4.03969 6 5.15979 6 7.4 6L32.6 6C34.8402 6 35.9603 6 36.816 6.43597C37.5686 6.81947 38.1805 7.43139 38.564 8.18404C39 9.03969 39 10.1598 39 12.4L39 27.6C39 29.8402 39 30.9603 38.564 31.816C38.1805 32.5686 37.5686 33.1805 36.816 33.564C35.9603 34 34.8402 34 32.6 34L7.4 34C5.15979 34 4.03969 34 3.18404 33.564C2.43139 33.1805 1.81947 32.5686 1.43597 31.816C1 30.9603 1 29.8402 1 27.6L1 12.4Z"/><path fill="#DF3333" d="M11.4809 12.0002L18.4674 12.0002C19.4451 12.0002 20.0496 12.7319 19.8244 13.6208L16.5713 26.3794C16.34 27.2683 15.3623 28 14.3906 28L7.40391 28C6.42617 28 5.82188 27.2737 6.04707 26.3794L9.30039 13.6208C9.53144 12.7319 10.5031 12.0002 11.4809 12.0002Z"/><path fill="#DF3333" d="M17.8963 12L25.9316 12C26.9094 12 26.465 12.7317 26.2398 13.6206L22.9807 26.3794C22.7555 27.2683 22.8266 28 21.8488 28L13.8135 28C12.8357 28 12.2254 27.2737 12.4564 26.3794L15.7039 13.6206C15.9408 12.7317 16.9127 12 17.8963 12Z"/><path fill="#004989" d="M17.8963 12L25.9316 12C26.9094 12 26.465 12.7317 26.2398 13.6206L22.9807 26.3794C22.7555 27.2683 22.8266 28 21.8488 28L13.8135 28C12.8357 28 12.2254 27.2737 12.4564 26.3794L15.7039 13.6206C15.9408 12.7317 16.9127 12 17.8963 12Z"/><path fill="#DF3333" d="M25.6076 12L32.5939 12C33.5719 12 34.1822 12.7317 33.951 13.6206L30.6979 26.3794C30.4666 27.2683 29.4889 28 28.517 28L21.5248 28C20.5471 28 19.9426 27.2737 20.1678 26.3794L23.4211 13.6206C23.6521 12.7317 24.6299 12 25.6076 12Z"/><path fill="#00808A" d="M25.6076 12L32.5939 12C33.5719 12 34.1822 12.7317 33.951 13.6206L30.6979 26.3794C30.4666 27.2683 29.4889 28 28.517 28L21.5248 28C20.5471 28 19.9426 27.2737 20.1678 26.3794L23.4211 13.6206C23.6521 12.7317 24.6299 12 25.6076 12Z"/><path fill="#DF3333" fill-rule="evenodd" d="M24.4395 24.0055L25.0973 24.0055L25.2869 23.4256L24.6291 23.4256L24.4395 24.0055ZM24.9668 22.4066L24.7418 23.0896C24.7418 23.0896 24.9906 22.9757 25.1268 22.9379C25.2572 22.9107 25.4646 22.8836 25.4646 22.8836L25.6246 22.4066L24.9668 22.4066ZM25.2928 21.4256L25.0736 22.0814C25.0736 22.0814 25.3164 21.9839 25.4527 21.9513C25.5891 21.9189 25.7965 21.9081 25.7965 21.9081L25.9506 21.431L25.2928 21.4256ZM26.7506 21.4256L25.8973 24.0001L26.143 24.0001L25.9652 24.5313L25.7195 24.5313L25.666 24.6992L24.8543 24.6992L24.9135 24.5313L23.2662 24.5313L23.432 24.038L23.598 24.038L24.4631 21.4256L24.635 20.8999L25.4646 20.8999L25.3758 21.1654C25.3758 21.1654 25.5949 21.019 25.8023 20.9704C26.0098 20.9215 27.2068 20.9053 27.2068 20.9053L27.0291 21.431L26.7506 21.4256Z"/><path fill="#FFF" fill-rule="evenodd" d="M24.4395 24.0055L25.0973 24.0055L25.2869 23.4256L24.6291 23.4256L24.4395 24.0055ZM24.9668 22.4066L24.7418 23.0896C24.7418 23.0896 24.9906 22.9757 25.1268 22.9379C25.2572 22.9107 25.4646 22.8836 25.4646 22.8836L25.6246 22.4066L24.9668 22.4066ZM25.2928 21.4256L25.0736 22.0814C25.0736 22.0814 25.3164 21.9839 25.4527 21.9513C25.5891 21.9189 25.7965 21.9081 25.7965 21.9081L25.9506 21.431L25.2928 21.4256ZM26.7506 21.4256L25.8973 24.0001L26.143 24.0001L25.9652 24.5313L25.7195 24.5313L25.666 24.6992L24.8543 24.6992L24.9135 24.5313L23.2662 24.5313L23.432 24.038L23.598 24.038L24.4631 21.4256L24.635 20.8999L25.4646 20.8999L25.3758 21.1654C25.3758 21.1654 25.5949 21.019 25.8023 20.9704C26.0098 20.9215 27.2068 20.9053 27.2068 20.9053L27.0291 21.431L26.7506 21.4256Z"/><path fill="#DF3333" d="M27.2068 20.9053L28.0035 20.9065L28.0092 21.1983L28.3352 21.2742L28.1691 21.7729L27.6951 21.7729C27.2803 21.7999 27.0172 21.6154 27.0291 21.431L27.2068 20.9053Z"/><path fill="#FFF" d="M27.2068 20.9053L28.0035 20.9065L28.0092 21.1983L28.3352 21.2742L28.1691 21.7729L27.6951 21.7729C27.2803 21.7999 27.0172 21.6154 27.0291 21.431L27.2068 20.9053Z"/><path fill="#DF3333" d="M27.2318 23.2523L26.3904 23.2523L26.5326 22.8079L27.4926 22.8079L27.635 22.4069L26.6809 22.4069L26.8467 21.9082L29.4896 21.9082L29.3236 22.4069L28.4408 22.4069L28.3045 22.8079L29.1934 22.8079L29.0451 23.2523L28.0852 23.2523L27.9133 23.4367L28.3045 23.4367L28.3992 23.9894C28.4172 24.0111 28.565 24.1358 28.6363 24.1358L28.5711 24.6777L28.2688 24.6777C28.2215 24.6777 28.1562 24.6777 28.0555 24.6669C27.9049 24.643 27.7531 24.5755 27.701 24.4441L27.5934 23.8431L27.1607 24.3906C27.0244 24.564 26.835 24.6995 26.5148 24.6995L25.9045 24.6995L26.0645 24.2171L26.2955 24.2171C26.3668 24.2171 26.426 24.19 26.4676 24.1738L27.2318 23.2523Z"/><path fill="#FFF" d="M27.2318 23.2523L26.3904 23.2523L26.5326 22.8079L27.4926 22.8079L27.635 22.4069L26.6809 22.4069L26.8467 21.9082L29.4896 21.9082L29.3236 22.4069L28.4408 22.4069L28.3045 22.8079L29.1934 22.8079L29.0451 23.2523L28.0852 23.2523L27.9133 23.4367L28.3045 23.4367L28.3992 23.9894C28.4172 24.0111 28.565 24.1358 28.6363 24.1358L28.5711 24.6777L28.2688 24.6777C28.2215 24.6777 28.1562 24.6777 28.0555 24.6669C27.9049 24.643 27.7531 24.5755 27.701 24.4441L27.5934 23.8431L27.1607 24.3906C27.0244 24.564 26.835 24.6995 26.5148 24.6995L25.9045 24.6995L26.0645 24.2171L26.2955 24.2171C26.3668 24.2171 26.426 24.19 26.4676 24.1738L27.2318 23.2523Z"/><path fill="#DF3333" d="M18.0225 22.0437L20.2504 22.0437L20.0846 22.5259L19.1957 22.5259L19.0535 22.9379L19.966 22.9379L19.8 23.4419L18.8936 23.4419L18.6742 24.1141C18.6582 24.1657 18.8041 24.1872 18.8988 24.1957L19.4326 24.1411L19.249 24.6939L18.2238 24.6939C18.1203 24.6834 17.9441 24.6363 17.8619 24.5775C17.8383 24.5401 17.7424 24.411 17.7676 24.3417L18.0639 23.4474L17.5543 23.4474L17.7203 22.9379L18.2299 22.9379L18.3602 22.5259L17.8564 22.5259L18.0225 22.0437Z"/><path fill="#FFF" d="M18.0225 22.0437L20.2504 22.0437L20.0846 22.5259L19.1957 22.5259L19.0535 22.9379L19.966 22.9379L19.8 23.4419L18.8936 23.4419L18.6742 24.1141C18.6582 24.1657 18.8041 24.1872 18.8988 24.1957L19.4326 24.1411L19.249 24.6939L18.2238 24.6939C18.1203 24.6834 17.9441 24.6363 17.8619 24.5775C17.8383 24.5401 17.7424 24.411 17.7676 24.3417L18.0639 23.4474L17.5543 23.4474L17.7203 22.9379L18.2299 22.9379L18.3602 22.5259L17.8564 22.5259L18.0225 22.0437Z"/><path fill="#DF3333" d="M19.5207 21.1711L20.4332 21.1711L20.2672 21.6806L19.0229 21.6806C18.9402 21.7601 18.5133 21.957 18.3236 21.957L18.0225 22.0437L18.0865 21.4692C18.1873 21.4692 18.3828 21.4637 18.4184 21.4421C18.4598 21.4203 18.5014 21.3662 18.5547 21.2849L18.7857 20.9054L19.6926 20.9054L19.5207 21.1711Z"/><path fill="#FFF" d="M19.5207 21.1711L20.4332 21.1711L20.2672 21.6806L19.0229 21.6806C18.9402 21.7601 18.5133 21.957 18.3236 21.957L18.0225 22.0437L18.0865 21.4692C18.1873 21.4692 18.3828 21.4637 18.4184 21.4421C18.4598 21.4203 18.5014 21.3662 18.5547 21.2849L18.7857 20.9054L19.6926 20.9054L19.5207 21.1711Z"/><path fill="#DF3333" fill-rule="evenodd" d="M21.2764 22.0054C21.2764 22.0054 21.5254 21.7995 21.952 21.7346C22.0469 21.7128 22.6572 21.7236 22.6572 21.7236L22.7461 21.4419L21.466 21.4419L21.2764 22.0054ZM22.4793 22.2169L21.2055 22.2169L21.1283 22.4553L22.2363 22.4553C22.3668 22.4391 22.3904 22.4553 22.4023 22.4499L22.4793 22.2169ZM20.826 20.8998L21.6082 20.8998L21.4957 21.2575C21.4957 21.2575 21.7445 21.0787 21.9164 21.0137C22.0584 20.9644 22.3461 20.9188 22.4416 20.9044L23.7297 20.8944L23.3029 22.1952C23.232 22.4228 23.149 22.5638 23.0957 22.6288C23.0482 22.6939 22.9949 22.7534 22.8883 22.8076C22.7814 22.8619 22.6809 22.8889 22.5979 22.8997C22.515 22.9051 22.3846 22.9107 22.2068 22.9107L20.992 22.9107L20.6482 23.9405C20.6188 24.0434 20.601 24.0923 20.6246 24.1193L21.2764 24.1247L21.0928 24.6939L20.4941 24.6939C20.3045 24.6939 20.1623 24.6884 20.0676 24.683C19.9611 24.6659 19.7771 24.5971 19.7115 24.5187C19.7229 24.4642 19.7172 24.2958 19.7477 24.2006L20.826 20.8998Z"/><path fill="#FFF" fill-rule="evenodd" d="M21.2764 22.0054C21.2764 22.0054 21.5254 21.7995 21.952 21.7346C22.0469 21.7128 22.6572 21.7236 22.6572 21.7236L22.7461 21.4419L21.466 21.4419L21.2764 22.0054ZM22.4793 22.2169L21.2055 22.2169L21.1283 22.4553L22.2363 22.4553C22.3668 22.4391 22.3904 22.4553 22.4023 22.4499L22.4793 22.2169ZM20.826 20.8998L21.6082 20.8998L21.4957 21.2575C21.4957 21.2575 21.7445 21.0787 21.9164 21.0137C22.0584 20.9644 22.3461 20.9188 22.4416 20.9044L23.7297 20.8944L23.3029 22.1952C23.232 22.4228 23.149 22.5638 23.0957 22.6288C23.0482 22.6939 22.9949 22.7534 22.8883 22.8076C22.7814 22.8619 22.6809 22.8889 22.5979 22.8997C22.515 22.9051 22.3846 22.9107 22.2068 22.9107L20.992 22.9107L20.6482 23.9405C20.6188 24.0434 20.601 24.0923 20.6246 24.1193L21.2764 24.1247L21.0928 24.6939L20.4941 24.6939C20.3045 24.6939 20.1623 24.6884 20.0676 24.683C19.9611 24.6659 19.7771 24.5971 19.7115 24.5187C19.7229 24.4642 19.7172 24.2958 19.7477 24.2006L20.826 20.8998Z"/><path fill="#DF3333" d="M23.0914 23.0086L23.0203 23.323C22.9906 23.4205 22.9611 23.4965 22.8781 23.556C22.7951 23.6211 22.6943 23.6915 22.4574 23.6915L22.0248 23.7078L22.0248 24.0655L22.2559 24.1956L22.6707 24.174L22.5047 24.6889L22.0307 24.6889C21.6988 24.6889 21.4559 24.6835 21.3729 24.6238C21.29 24.575 21.2781 24.5208 21.2842 24.4178L21.3137 23.0357L22.2068 22.9107L22.0604 23.3176L22.2441 23.3176C22.2619 23.3013 22.416 23.2579 22.4219 23.2255L22.5979 22.8997L23.0914 23.0086Z"/><path fill="#FFF" d="M23.0914 23.0086L23.0203 23.323C22.9906 23.4205 22.9611 23.4965 22.8781 23.556C22.7951 23.6211 22.6943 23.6915 22.4574 23.6915L22.0248 23.7078L22.0248 24.0655L22.2559 24.1956L22.6707 24.174L22.5047 24.6889L22.0307 24.6889C21.6988 24.6889 21.4559 24.6835 21.3729 24.6238C21.29 24.575 21.2781 24.5208 21.2842 24.4178L21.3137 23.0357L22.2068 22.9107L22.0604 23.3176L22.2441 23.3176C22.2619 23.3013 22.416 23.2579 22.4219 23.2255L22.5979 22.8997L23.0914 23.0086Z"/><path fill="#DF3333" d="M12.31 16.0761C12.2803 16.1899 11.8004 18.2332 11.8004 18.2332C11.6938 18.6452 11.6166 18.9433 11.3619 19.1275C11.2137 19.2414 11.0418 19.2955 10.8463 19.2955C10.5264 19.2955 10.3426 19.1492 10.307 18.8729C10.307 18.8729 10.3959 18.2278 10.4018 18.2224C10.4018 18.2224 10.9115 16.3578 11.0004 16.114C10.0049 16.1194 9.83887 16.0869 9.82715 16.0707L9.27598 18.3091L9.22852 18.4879L9.14551 19.0679C9.14551 19.2414 9.18125 19.3823 9.2582 19.5015C9.50117 19.8809 10.1707 19.9351 10.5559 19.9351C11.0477 19.9351 11.5041 19.8376 11.8182 19.6641C12.3574 19.3714 12.5055 18.9161 12.6301 18.5097L12.6893 18.3037C12.6893 18.3037 13.2166 16.3688 13.3055 16.114C12.5824 16.1248 12.3811 16.0924 12.31 16.0761Z"/><path fill="#FFF" d="M12.31 16.0761C12.2803 16.1899 11.8004 18.2332 11.8004 18.2332C11.6938 18.6452 11.6166 18.9433 11.3619 19.1275C11.2137 19.2414 11.0418 19.2955 10.8463 19.2955C10.5264 19.2955 10.3426 19.1492 10.307 18.8729C10.307 18.8729 10.3959 18.2278 10.4018 18.2224C10.4018 18.2224 10.9115 16.3578 11.0004 16.114C10.0049 16.1194 9.83887 16.0869 9.82715 16.0707L9.27598 18.3091L9.22852 18.4879L9.14551 19.0679C9.14551 19.2414 9.18125 19.3823 9.2582 19.5015C9.50117 19.8809 10.1707 19.9351 10.5559 19.9351C11.0477 19.9351 11.5041 19.8376 11.8182 19.6641C12.3574 19.3714 12.5055 18.9161 12.6301 18.5097L12.6893 18.3037C12.6893 18.3037 13.2166 16.3688 13.3055 16.114C12.5824 16.1248 12.3811 16.0924 12.31 16.0761Z"/><path fill="#DF3333" d="M15.2029 19.9189C14.8475 19.9135 14.7289 19.9135 14.3143 19.9353C14.3498 19.7889 14.3734 19.6208 14.409 19.4799L14.4564 19.2849C14.5275 18.9813 14.6105 18.629 14.6164 18.5206C14.6225 18.4555 14.6461 18.2983 14.4445 18.2983C14.3557 18.2983 14.2729 18.3309 14.1779 18.3742C14.1305 18.5369 14.0297 18.9922 13.9824 19.1981C13.8816 19.6316 13.8697 19.6859 13.8283 19.9027C13.4668 19.8973 13.3127 19.9243 12.892 19.9461C12.9631 19.686 13.0105 19.3932 13.0816 19.1331C13.2596 18.4284 13.2949 18.1628 13.3482 17.8052C13.7514 17.7565 13.8816 17.7184 14.3201 17.6371L14.2906 17.9027C14.3615 17.8593 14.4387 17.8214 14.5098 17.7834C14.7172 17.6913 14.9482 17.6643 15.0787 17.6643C15.2684 17.6643 15.4816 17.7129 15.5705 17.9189C15.6535 18.0979 15.6002 18.3201 15.4875 18.7645L15.4342 18.9922C15.3215 19.4799 15.2682 19.5829 15.2029 19.9189Z"/><path fill="#FFF" d="M15.2029 19.9189C14.8475 19.9135 14.7289 19.9135 14.3143 19.9353C14.3498 19.7889 14.3734 19.6208 14.409 19.4799L14.4564 19.2849C14.5275 18.9813 14.6105 18.629 14.6164 18.5206C14.6225 18.4555 14.6461 18.2983 14.4445 18.2983C14.3557 18.2983 14.2729 18.3309 14.1779 18.3742C14.1305 18.5369 14.0297 18.9922 13.9824 19.1981C13.8816 19.6316 13.8697 19.6859 13.8283 19.9027C13.4668 19.8973 13.3127 19.9243 12.892 19.9461C12.9631 19.686 13.0105 19.3932 13.0816 19.1331C13.2596 18.4284 13.2949 18.1628 13.3482 17.8052C13.7514 17.7565 13.8816 17.7184 14.3201 17.6371L14.2906 17.9027C14.3615 17.8593 14.4387 17.8214 14.5098 17.7834C14.7172 17.6913 14.9482 17.6643 15.0787 17.6643C15.2684 17.6643 15.4816 17.7129 15.5705 17.9189C15.6535 18.0979 15.6002 18.3201 15.4875 18.7645L15.4342 18.9922C15.3215 19.4799 15.2682 19.5829 15.2029 19.9189Z"/><path fill="#DF3333" d="M16.6437 19.9202C16.4303 19.9202 16.2998 19.9148 16.1633 19.9202C16.033 19.9202 15.9025 19.9256 15.7068 19.9364C15.7602 19.7519 15.766 19.6544 15.7898 19.5839C15.8195 19.5189 15.8432 19.4538 15.8906 19.2639C15.9559 19.0199 15.9916 18.8464 16.0152 18.6999C16.0447 18.5535 16.0625 18.4288 16.0863 18.2878C16.2998 18.2606 16.4598 18.2227 16.5963 18.2011C16.7326 18.1793 16.8689 18.1576 17.0883 18.1196C17.0527 18.2715 17.0291 18.4559 16.9875 18.6132C16.952 18.7705 16.9045 18.9168 16.8689 19.0741C16.7918 19.3996 16.7563 19.5189 16.7385 19.6056C16.7209 19.687 16.6734 19.7575 16.6437 19.9202Z"/><path fill="#FFF" d="M16.6437 19.9202C16.4303 19.9202 16.2998 19.9148 16.1633 19.9202C16.033 19.9202 15.9025 19.9256 15.7068 19.9364C15.7602 19.7519 15.766 19.6544 15.7898 19.5839C15.8195 19.5189 15.8432 19.4538 15.8906 19.2639C15.9559 19.0199 15.9916 18.8464 16.0152 18.6999C16.0447 18.5535 16.0625 18.4288 16.0863 18.2878C16.2998 18.2606 16.4598 18.2227 16.5963 18.2011C16.7326 18.1793 16.8689 18.1576 17.0883 18.1196C17.0527 18.2715 17.0291 18.4559 16.9875 18.6132C16.952 18.7705 16.9045 18.9168 16.8689 19.0741C16.7918 19.3996 16.7563 19.5189 16.7385 19.6056C16.7209 19.687 16.6734 19.7575 16.6437 19.9202Z"/><path fill="#DF3333" d="M18.8771 18.7807C18.8592 18.8619 18.7822 19.1709 18.6756 19.301C18.5986 19.3985 18.5096 19.4581 18.409 19.4581C18.3793 19.4581 18.2076 19.4581 18.2016 19.2251C18.1955 19.1058 18.2254 18.9865 18.2607 18.8566C18.3496 18.4826 18.4623 18.1681 18.7408 18.1681C18.9541 18.1681 18.9719 18.4067 18.8771 18.7807ZM19.7955 18.8131C19.9201 18.3198 19.8252 18.0868 19.7068 17.9459C19.5229 17.7345 19.2031 17.664 18.8652 17.664C18.6637 17.664 18.1838 17.6804 17.8045 18.0001C17.5379 18.2278 17.4135 18.5367 17.3363 18.8348C17.2594 19.1383 17.1764 19.6804 17.7217 19.8863C17.8936 19.9513 18.1363 19.9676 18.2904 19.9676C18.6934 19.9676 19.1023 19.8646 19.4104 19.5665C19.6475 19.3226 19.76 18.9649 19.7955 18.8131Z"/><path fill="#FFF" d="M18.8771 18.7807C18.8592 18.8619 18.7822 19.1709 18.6756 19.301C18.5986 19.3985 18.5096 19.4581 18.409 19.4581C18.3793 19.4581 18.2076 19.4581 18.2016 19.2251C18.1955 19.1058 18.2254 18.9865 18.2607 18.8566C18.3496 18.4826 18.4623 18.1681 18.7408 18.1681C18.9541 18.1681 18.9719 18.4067 18.8771 18.7807ZM19.7955 18.8131C19.9201 18.3198 19.8252 18.0868 19.7068 17.9459C19.5229 17.7345 19.2031 17.664 18.8652 17.664C18.6637 17.664 18.1838 17.6804 17.8045 18.0001C17.5379 18.2278 17.4135 18.5367 17.3363 18.8348C17.2594 19.1383 17.1764 19.6804 17.7217 19.8863C17.8936 19.9513 18.1363 19.9676 18.2904 19.9676C18.6934 19.9676 19.1023 19.8646 19.4104 19.5665C19.6475 19.3226 19.76 18.9649 19.7955 18.8131Z"/><path fill="#DF3333" d="M28.3945 19.9515C27.9678 19.9515 27.8494 19.9515 27.4582 19.9624C27.565 19.5938 27.6537 19.1982 27.7428 18.8296C27.8672 18.3418 27.8908 18.1413 27.9324 17.8595C28.3531 17.8053 28.5014 17.7674 28.9396 17.6915C28.8568 17.995 28.7975 18.331 28.7205 18.6345C28.5605 19.2741 28.4598 19.6209 28.3945 19.9515Z"/><path fill="#FFF" d="M28.3945 19.9515C27.9678 19.9515 27.8494 19.9515 27.4582 19.9624C27.565 19.5938 27.6537 19.1982 27.7428 18.8296C27.8672 18.3418 27.8908 18.1413 27.9324 17.8595C28.3531 17.8053 28.5014 17.7674 28.9396 17.6915C28.8568 17.995 28.7975 18.331 28.7205 18.6345C28.5605 19.2741 28.4598 19.6209 28.3945 19.9515Z"/><path fill="#DF3333" d="M27.7428 18.8296C27.7189 18.9109 27.6508 19.2145 27.5383 19.3445C27.4672 19.4368 27.2953 19.4963 27.1945 19.4963C27.1709 19.4963 26.999 19.4963 26.993 19.2632C26.993 19.1495 27.0168 19.0302 27.0463 18.8947C27.1412 18.5315 27.2479 18.2172 27.5264 18.2172C27.7516 18.2172 27.8316 18.4503 27.7428 18.8296ZM28.5871 18.8568C28.7115 18.3635 28.2137 18.8134 28.1367 18.6508C28.0123 18.3961 28.0895 17.8867 27.5975 17.7131C27.4139 17.6427 26.9693 17.7349 26.5961 18.0492C26.3293 18.2714 26.199 18.5803 26.1279 18.873C26.0508 19.1711 25.9621 19.7186 26.5131 19.9082C26.685 19.9733 26.8449 19.9949 26.999 19.9895C27.55 19.9625 27.9648 19.2091 28.273 18.9055C28.5041 18.6779 28.5516 19.0031 28.5871 18.8568Z"/><path fill="#FFF" d="M27.7428 18.8296C27.7189 18.9109 27.6508 19.2145 27.5383 19.3445C27.4672 19.4368 27.2953 19.4963 27.1945 19.4963C27.1709 19.4963 26.999 19.4963 26.993 19.2632C26.993 19.1495 27.0168 19.0302 27.0463 18.8947C27.1412 18.5315 27.2479 18.2172 27.5264 18.2172C27.7516 18.2172 27.8316 18.4503 27.7428 18.8296ZM28.5871 18.8568C28.7115 18.3635 28.2137 18.8134 28.1367 18.6508C28.0123 18.3961 28.0895 17.8867 27.5975 17.7131C27.4139 17.6427 26.9693 17.7349 26.5961 18.0492C26.3293 18.2714 26.199 18.5803 26.1279 18.873C26.0508 19.1711 25.9621 19.7186 26.5131 19.9082C26.685 19.9733 26.8449 19.9949 26.999 19.9895C27.55 19.9625 27.9648 19.2091 28.273 18.9055C28.5041 18.6779 28.5516 19.0031 28.5871 18.8568Z"/><path fill="#DF3333" d="M22.1895 19.9189C21.8398 19.9135 21.7154 19.9135 21.3064 19.9353C21.342 19.7889 21.3598 19.6208 21.4014 19.4799L21.4486 19.2849C21.5256 18.9813 21.5969 18.629 21.6088 18.5206C21.6146 18.4555 21.6383 18.2983 21.4428 18.2983C21.3539 18.2983 21.265 18.3309 21.1762 18.3742C21.1287 18.5369 21.0279 18.9922 20.9746 19.1981C20.8738 19.6316 20.868 19.6859 20.8266 19.9027C20.465 19.8973 20.3109 19.9243 19.8961 19.9461C19.9672 19.686 20.0146 19.3932 20.0799 19.1331C20.2576 18.4284 20.2992 18.1628 20.3465 17.8052C20.7555 17.7565 20.8857 17.7184 21.3242 17.6371L21.2947 17.9027C21.3656 17.8593 21.4428 17.8214 21.5139 17.7834C21.7213 17.6913 21.9523 17.6643 22.077 17.6643C22.2664 17.6643 22.4797 17.7129 22.5688 17.9189C22.6516 18.0979 22.5982 18.3201 22.4797 18.7645L22.4266 18.9922C22.3139 19.4799 22.2545 19.5829 22.1895 19.9189Z"/><path fill="#FFF" d="M22.1895 19.9189C21.8398 19.9135 21.7154 19.9135 21.3064 19.9353C21.342 19.7889 21.3598 19.6208 21.4014 19.4799L21.4486 19.2849C21.5256 18.9813 21.5969 18.629 21.6088 18.5206C21.6146 18.4555 21.6383 18.2983 21.4428 18.2983C21.3539 18.2983 21.265 18.3309 21.1762 18.3742C21.1287 18.5369 21.0279 18.9922 20.9746 19.1981C20.8738 19.6316 20.868 19.6859 20.8266 19.9027C20.465 19.8973 20.3109 19.9243 19.8961 19.9461C19.9672 19.686 20.0146 19.3932 20.0799 19.1331C20.2576 18.4284 20.2992 18.1628 20.3465 17.8052C20.7555 17.7565 20.8857 17.7184 21.3242 17.6371L21.2947 17.9027C21.3656 17.8593 21.4428 17.8214 21.5139 17.7834C21.7213 17.6913 21.9523 17.6643 22.077 17.6643C22.2664 17.6643 22.4797 17.7129 22.5688 17.9189C22.6516 18.0979 22.5982 18.3201 22.4797 18.7645L22.4266 18.9922C22.3139 19.4799 22.2545 19.5829 22.1895 19.9189Z"/><path fill="#DF3333" d="M25.2377 16.0756L24.9475 16.0756C24.1889 16.0865 23.8807 16.081 23.7562 16.0648L23.4541 17.3657C23.4541 17.3657 22.8023 19.8155 22.7727 19.9292C23.4363 19.9238 23.7088 19.9238 23.8156 19.9346C23.8451 19.8155 23.9992 19.1326 23.9992 19.1326C23.9992 19.1326 24.1297 18.6339 24.1355 18.6177C24.7043 18.6177 25.4926 18.5418 26.0021 18.2003C26.3457 17.9673 26.577 17.6203 26.6836 17.203C26.7072 17.1 26.7311 16.9753 26.7311 16.8562C26.7311 16.6935 26.6953 16.5363 26.5947 16.4118C26.3457 16.081 25.8361 16.0756 25.2377 16.0756ZM25.617 17.2734C25.5518 17.5283 25.374 17.745 25.1369 17.848C24.9414 17.9401 24.7102 17.9455 24.4674 17.9455L24.3074 17.9455L24.4674 17.9455L24.6096 16.7423C24.6096 16.7423 25.3324 16.699 25.3502 16.699C25.5873 16.7803 25.682 16.9971 25.617 17.2734Z"/><path fill="#FFF" d="M25.2377 16.0756L24.9475 16.0756C24.1889 16.0865 23.8807 16.081 23.7562 16.0648L23.4541 17.3657C23.4541 17.3657 22.8023 19.8155 22.7727 19.9292C23.4363 19.9238 23.7088 19.9238 23.8156 19.9346C23.8451 19.8155 23.9992 19.1326 23.9992 19.1326C23.9992 19.1326 24.1297 18.6339 24.1355 18.6177C24.7043 18.6177 25.4926 18.5418 26.0021 18.2003C26.3457 17.9673 26.577 17.6203 26.6836 17.203C26.7072 17.1 26.7311 16.9753 26.7311 16.8562C26.7311 16.6935 26.6953 16.5363 26.5947 16.4118C26.3457 16.081 25.8361 16.0756 25.2377 16.0756ZM25.617 17.2734C25.5518 17.5283 25.374 17.745 25.1369 17.848C24.9414 17.9401 24.7102 17.9455 24.4674 17.9455L24.3074 17.9455L24.4674 17.9455L24.6096 16.7423C24.6096 16.7423 25.3324 16.699 25.3502 16.699C25.5873 16.7803 25.682 16.9971 25.617 17.2734Z"/><path fill="#DF3333" d="M31.8506 17.686C31.418 17.7673 31.2996 17.7511 30.9025 17.7945C30.6064 18.4233 30.5885 18.3202 30.3455 18.8079L30.2744 17.6806C29.8182 17.7619 29.7707 17.7456 29.3559 17.7891C29.4033 18.0329 29.3619 18.0546 29.4094 18.4447C29.433 18.6345 29.4686 18.8243 29.4922 19.0085C29.5336 19.3228 29.5619 19.48 29.6094 19.957C29.3248 20.3852 29.2598 20.5478 28.9871 20.9218C29.3961 20.9109 29.4156 21.0968 29.7238 21.0968L29.8773 20.8729C30.1025 20.4231 31.8506 17.686 31.8506 17.686Z"/><path fill="#FFF" d="M31.8506 17.686C31.418 17.7673 31.2996 17.7511 30.9025 17.7945C30.6064 18.4233 30.5885 18.3202 30.3455 18.8079L30.2744 17.6806C29.8182 17.7619 29.7707 17.7456 29.3559 17.7891C29.4033 18.0329 29.3619 18.0546 29.4094 18.4447C29.433 18.6345 29.4686 18.8243 29.4922 19.0085C29.5336 19.3228 29.5619 19.48 29.6094 19.957C29.3248 20.3852 29.2598 20.5478 28.9871 20.9218C29.3961 20.9109 29.4156 21.0968 29.7238 21.0968L29.8773 20.8729C30.1025 20.4231 31.8506 17.686 31.8506 17.686Z"/><path fill="#DF3333" d="M17.0215 17.9511C17.2525 17.8047 17.2822 17.5989 17.0867 17.4958C16.891 17.3875 16.5475 17.42 16.3105 17.5717C16.0734 17.7181 16.0496 17.9186 16.2451 18.0269C16.4408 18.13 16.7904 18.0974 17.0215 17.9511Z"/><path fill="#FFF" d="M17.0215 17.9511C17.2525 17.8047 17.2822 17.5989 17.0867 17.4958C16.891 17.3875 16.5475 17.42 16.3105 17.5717C16.0734 17.7181 16.0496 17.9186 16.2451 18.0269C16.4408 18.13 16.7904 18.0974 17.0215 17.9511Z"/><path fill="#DF3333" d="M29.8773 20.8729L29.4994 21.4473C29.3867 21.6317 29.1912 21.7672 28.8713 21.7672L28.332 21.7564L28.3352 21.2742C28.3943 21.2742 28.6936 21.2685 28.723 21.2577L28.9871 20.9218L29.8773 20.8729Z"/><path fill="#FFF" d="M29.8773 20.8729L29.4994 21.4473C29.3867 21.6317 29.1912 21.7672 28.8713 21.7672L28.332 21.7564L28.3352 21.2742C28.3943 21.2742 28.6936 21.2685 28.723 21.2577L28.9871 20.9218L29.8773 20.8729Z"/></svg>