<svg xmlns="http://www.w3.org/2000/svg" fill="none" viewBox="0 0 40 40" focusable="false"><path d="M0 0H40V40H0z"/><path fill="#163360" d="M1 12.4C1 10.1598 1 9.03969 1.43597 8.18404C1.81947 7.43139 2.43139 6.81947 3.18404 6.43597C4.03969 6 5.15979 6 7.4 6L32.6 6C34.8402 6 35.9603 6 36.816 6.43597C37.5686 6.81947 38.1805 7.43139 38.564 8.18404C39 9.03969 39 10.1598 39 12.4L39 27.6C39 29.8402 39 30.9603 38.564 31.816C38.1805 32.5686 37.5686 33.1805 36.816 33.564C35.9603 34 34.8402 34 32.6 34L7.4 34C5.15979 34 4.03969 34 3.18404 33.564C2.43139 33.1805 1.81947 32.5686 1.43597 31.816C1 30.9603 1 29.8402 1 27.6L1 12.4Z"/><path fill="#FFF" fill-rule="evenodd" d="M13.4705 23.8953C13.729 25.8461 14.6969 27.3913 16.4118 28.5384C18.4579 25.7765 18.7817 22.5701 19.1066 19.3529C19.1174 19.2461 19.1282 19.1392 19.139 19.0324C18.3551 18.9503 18.307 18.9909 18.1759 19.6333C17.7551 21.6888 17.0212 23.6104 15.7581 25.3084C15.5661 25.5669 15.3497 25.8084 15.1254 26.0588C15.0279 26.1676 14.929 26.278 14.8299 26.3923C14.791 26.3376 14.7575 26.2919 14.728 26.2516C14.6715 26.1746 14.6296 26.1175 14.5931 26.0555C13.4639 24.1613 13.7328 21.9426 15.2893 20.3285C17.6787 17.857 22.0992 17.7797 24.5651 20.1729C25.6094 21.186 26.1857 22.4095 26.0914 23.8849C26.0493 24.7887 25.7187 25.6552 25.1481 26.3574C25.1038 26.3164 25.063 26.2806 25.0252 26.2476C24.9535 26.1847 24.8927 26.1315 24.8396 26.0697C24.8144 26.0413 24.7892 26.0128 24.764 25.9844C24.5714 25.7673 24.3773 25.5485 24.2038 25.315C22.9388 23.6038 22.1841 21.6681 21.7558 19.5975C21.6304 18.9918 21.5153 18.9173 20.7814 19.0494C20.8257 19.4054 20.8665 19.7626 20.9073 20.1201C20.9941 20.8804 21.0811 21.6424 21.203 22.3982C21.4955 24.2349 21.9445 26.032 22.9105 27.6535C23.0356 27.8683 23.1893 28.0685 23.3468 28.2734C23.4196 28.3683 23.4932 28.4641 23.5651 28.5629C25.5537 27.2177 26.5659 25.398 26.6102 23.0916C26.664 20.1899 24.7179 17.6315 21.8936 16.8156C21.5058 16.7033 21.3276 16.5533 21.3276 16.1241C21.3198 15.2166 21.2849 14.3101 21.2501 13.4035C21.2385 13.101 21.2269 12.7986 21.2162 12.496C21.2045 12.3969 21.1852 12.2989 21.1587 12.2027L20.7078 12.2423L20.7078 16.4977C20.2852 16.6448 20.2239 16.4448 20.2239 16.1147L20.2239 9.5L19.7097 9.5L19.7097 10.2103C19.7078 12.1756 19.7044 14.1406 19.6994 16.1052C19.6975 16.5769 19.6928 16.5769 19.19 16.4826L19.19 15.9345C19.1913 15.6666 19.1923 15.3988 19.1934 15.1309C19.1966 14.2828 19.1999 13.4347 19.2135 12.5866C19.2201 12.2404 19.1013 12.1347 18.7419 12.263C18.7419 12.3227 18.7426 12.3816 18.7434 12.44C18.7448 12.5551 18.7463 12.6682 18.7419 12.7809C18.7277 13.1477 18.7127 13.5145 18.6978 13.8812C18.666 14.6606 18.6342 15.44 18.6098 16.2194C18.5994 16.5665 18.4513 16.7259 18.1117 16.8203C14.9799 17.7334 13.0413 20.6634 13.4705 23.8953ZM21.9087 29.3091C20.7465 29.7317 19.189 29.7289 18.0306 29.3091C19.2045 26.6039 19.3763 23.7377 19.5487 20.8603C19.5871 20.2208 19.6254 19.5808 19.6748 18.9419C19.7681 18.9212 19.8626 18.9067 19.9578 18.8985C20.0579 18.9004 20.1578 18.9086 20.2569 18.923C20.3131 19.6004 20.3559 20.2797 20.3986 20.9589C20.5766 23.7887 20.7546 26.6176 21.9087 29.3091Z"/></svg>