<svg xmlns="http://www.w3.org/2000/svg" fill="none" viewBox="0 0 22.087 10" focusable="false"><path fill="none" d="M0 0H22V10H0z"/><path d="M0 0H21.904V10H0z"/><path fill="#EB001B" fill-rule="evenodd" d="M8 5.25903C8 2.90686 9.90685 1 12.259 1C14.6113 1 16.5181 2.90686 16.5181 5.25903C16.5181 7.61127 14.6113 9.51807 12.259 9.51807C9.90685 9.51807 8 7.61127 8 5.25903Z"/><path fill="#EB001B" fill-rule="evenodd" d="M13.5693 5.25903C13.5693 2.90686 15.4762 1 17.8284 1C20.1806 1 22.0874 2.90686 22.0874 5.25903C22.0874 7.61127 20.1806 9.51807 17.8284 9.51807C15.4762 9.51807 13.5693 7.61127 13.5693 5.25903Z"/><path fill="#0099DF" fill-rule="evenodd" d="M13.5693 5.25903C13.5693 2.90686 15.4762 1 17.8284 1C20.1806 1 22.0874 2.90686 22.0874 5.25903C22.0874 7.61127 20.1806 9.51807 17.8284 9.51807C15.4762 9.51807 13.5693 7.61127 13.5693 5.25903Z"/><path fill="#EB001B" fill-rule="evenodd" d="M15.0434 2.03687C15.9463 2.81781 16.5181 3.97162 16.5181 5.25903C16.5181 6.54645 15.9463 7.70068 15.0434 8.48163C14.1406 7.70068 13.5693 6.54645 13.5693 5.25903C13.5693 3.97162 14.1406 2.81781 15.0434 2.03687Z"/><path fill="#6C6BBD" fill-rule="evenodd" d="M15.0434 2.03687C15.9463 2.81781 16.5181 3.97162 16.5181 5.25903C16.5181 6.54645 15.9463 7.70068 15.0434 8.48163C14.1406 7.70068 13.5693 6.54645 13.5693 5.25903C13.5693 3.97162 14.1406 2.81781 15.0434 2.03687Z"/></svg>