<svg xmlns="http://www.w3.org/2000/svg" fill="none" viewBox="0 0 40 40" focusable="false"><rect width="28" height="20" x="6" y="10" fill="#F0F2F5" rx="2"/><path fill="#6C6BBD" fill-rule="evenodd" d="M17.611 24.401h4.753v-8.716H17.61z" clip-rule="evenodd"/><path fill="#EB001B" fill-rule="evenodd" d="M17.923 20c0-1.754.812-3.317 2.077-4.324A5.377 5.377 0 0 0 16.64 14.5c-3.004 0-5.439 2.463-5.439 5.5s2.435 5.5 5.439 5.5c1.269 0 2.436-.44 3.361-1.176A5.513 5.513 0 0 1 17.923 20" clip-rule="evenodd"/><path fill="#0099DF" fill-rule="evenodd" d="M28.788 20c0 3.038-2.435 5.5-5.439 5.5a5.376 5.376 0 0 1-3.36-1.176A5.512 5.512 0 0 0 22.064 20a5.513 5.513 0 0 0-2.077-4.324A5.377 5.377 0 0 1 23.35 14.5c3.004 0 5.44 2.462 5.44 5.5" clip-rule="evenodd"/></svg>