<svg xmlns="http://www.w3.org/2000/svg" fill="none" viewBox="0 0 28 20" focusable="false"><path fill="none" d="M0 0h28v20H0z"/><rect width="28" height="20" fill="#F0F2F5" rx="2"/><path fill="#FF5F00" fill-rule="evenodd" d="M11.61 14.4h4.75V5.68h-4.75z"/><path fill="#EB001B" fill-rule="evenodd" d="M11.92 10c0-1.76.81-3.32 2.08-4.33-.93-.74-2.1-1.17-3.37-1.17-3 0-5.43 2.46-5.43 5.5 0 3.03 2.43 5.5 5.43 5.5 1.27 0 2.44-.44 3.37-1.18A5.503 5.503 0 0 1 11.92 10"/><path fill="#F79E1B" fill-rule="evenodd" d="M22.78 9.99c0 3.04-2.43 5.51-5.44 5.51-1.26 0-2.43-.44-3.36-1.18a5.508 5.508 0 0 0 2.08-4.33c0-1.75-.81-3.31-2.08-4.32.93-.74 2.1-1.17 3.36-1.17 3.01 0 5.44 2.46 5.44 5.49"/></svg>