<svg xmlns="http://www.w3.org/2000/svg" fill="none" viewBox="0 0 40 40" focusable="false"><path fill="none" d="M0 0h40v40H0z"/><path fill="none" d="M6 10h28v20H6z"/><rect width="28" height="20" x="6" y="10" fill="#F0F2F5" rx="2"/><path fill="#FF5F00" fill-rule="evenodd" d="M17.61 24.4h4.75v-8.72h-4.75z"/><path fill="#EB001B" fill-rule="evenodd" d="M17.92 20c0-1.76.81-3.32 2.08-4.33-.93-.74-2.1-1.17-3.37-1.17-3 0-5.43 2.46-5.43 5.5 0 3.03 2.43 5.5 5.43 5.5 1.27 0 2.44-.44 3.37-1.18A5.5 5.5 0 0 1 17.92 20"/><path fill="#F79E1B" fill-rule="evenodd" d="M28.78 19.99c0 3.04-2.43 5.51-5.44 5.51-1.26 0-2.43-.44-3.36-1.18a5.5 5.5 0 0 0 2.08-4.33c0-1.75-.81-3.31-2.08-4.32.93-.74 2.1-1.17 3.36-1.17 3.01 0 5.44 2.46 5.44 5.49"/></svg>