<svg xmlns="http://www.w3.org/2000/svg" fill="none" viewBox="0 0 28 20" focusable="false"><rect width="28" height="20" fill="#F0F2F5" rx="2"/><path fill="#FF5F00" fill-rule="evenodd" d="M11.611 14.401h4.753V5.685H11.61z" clip-rule="evenodd"/><path fill="#EB001B" fill-rule="evenodd" d="M11.923 10c0-1.754.812-3.317 2.077-4.324A5.38 5.38 0 0 0 10.64 4.5C7.635 4.5 5.2 6.963 5.2 10s2.435 5.5 5.439 5.5c1.269 0 2.436-.44 3.361-1.176A5.51 5.51 0 0 1 11.923 10" clip-rule="evenodd"/><path fill="#F79E1B" fill-rule="evenodd" d="M22.788 10c0 3.038-2.435 5.5-5.439 5.5a5.38 5.38 0 0 1-3.36-1.176A5.51 5.51 0 0 0 16.064 10a5.51 5.51 0 0 0-2.077-4.324A5.38 5.38 0 0 1 17.35 4.5c3.004 0 5.44 2.462 5.44 5.5" clip-rule="evenodd"/></svg>