<svg xmlns="http://www.w3.org/2000/svg" fill="none" viewBox="0 0 23 11" focusable="false"><path fill="none" d="M0 0h22.004v10.004H0z"/><path fill="#fff" fill-rule="evenodd" d="M17.66.98 17 0l-.66.98c-.17-.1-.38-.15-.59-.15-.46 0-.86.25-1.08.61l-1.35-.27.28 1.42c-.45.19-.77.64-.77 1.16 0 .21.05.41.15.59l-.98.65.98.66c-.09.18-.15.38-.15.6 0 .46.26.87.64 1.09l-.3 1.45 1.47-.29a1.253 1.253 0 0 0 1.7.52L17 10l.66-.98c.17.09.37.15.59.15.48 0 .9-.28 1.11-.68l1.42.28-.29-1.41c.4-.21.68-.63.68-1.11 0-.22-.06-.42-.15-.6l.98-.66-.98-.65a1.247 1.247 0 0 0-.6-1.74l.28-1.41-1.36.27c-.22-.38-.62-.63-1.09-.63-.22 0-.42.05-.59.15m-.71 2.36c-.03.02-.06.08-.11.21l-.31.77c-.02.04-.02.06-.03.07-.02.02-.03.02-.04.03-.02.01-.04.01-.08.01l-.79.07c-.13.01-.2.02-.23.05-.02.03-.03.06-.03.1.01.04.06.08.16.17l.6.55c.03.02.05.04.06.05 0 .02.01.03.01.05s0 .04-.01.08l-.18.81c-.03.14-.05.2-.03.24.01.03.04.05.08.06s.09-.03.2-.1l.69-.44c.03-.02.05-.03.07-.03h.04c.02 0 .04.01.07.03l.69.44c.11.07.16.11.2.1.03-.01.06-.03.08-.06.02-.04 0-.1-.03-.24l-.18-.81c-.01-.04-.01-.06-.01-.08s0-.03.01-.05c.01-.01.02-.03.05-.05l.61-.55c.1-.09.15-.13.15-.17.01-.04 0-.07-.03-.1-.02-.03-.09-.04-.22-.05l-.8-.07c-.04 0-.05 0-.07-.01-.01-.01-.03-.01-.04-.03-.01-.01-.02-.03-.03-.07l-.31-.77c-.05-.13-.08-.19-.11-.21a.09.09 0 0 0-.1 0"/></svg>