<svg xmlns="http://www.w3.org/2000/svg" fill="none" viewBox="0 0 23 11" focusable="false"><path fill="none" d="M0 0h22.004v10.004H0z"/><path fill="#23262D" fill-rule="evenodd" d="m17 0 .66.98c.17-.1.37-.15.59-.15.47 0 .87.25 1.09.63l1.36-.27-.28 1.41a1.247 1.247 0 0 1 .6 1.74l.98.65-.98.66c.09.18.15.38.15.6 0 .48-.28.9-.68 1.11l.29 1.41-1.42-.28c-.21.4-.63.68-1.11.68-.22 0-.42-.06-.59-.15L17 10l-.66-.98a1.253 1.253 0 0 1-1.7-.52l-1.47.29.3-1.45a1.27 1.27 0 0 1-.64-1.09c0-.22.06-.42.15-.6L12 4.99l.98-.65c-.1-.18-.15-.38-.15-.59 0-.52.32-.97.77-1.16l-.28-1.42 1.35.27c.22-.36.62-.61 1.08-.61.21 0 .42.05.59.15z"/><path fill="#FFF" d="M16.84 3.55c.05-.13.08-.19.11-.21a.09.09 0 0 1 .1 0c.03.02.06.08.11.21l.31.77c.01.04.02.06.03.07.01.02.03.03.04.03.02.01.04.01.07.01l.8.07c.13.01.2.02.22.05.03.03.04.06.03.1 0 .04-.05.08-.15.17l-.61.55-.05.05c-.01.02-.01.03-.01.05 0 .02 0 .04.01.08l.18.81c.03.14.05.2.03.24-.02.03-.05.06-.08.06-.04.01-.09-.03-.2-.1l-.69-.44c-.03-.02-.05-.03-.07-.03h-.04c-.02 0-.04.01-.07.03l-.69.44c-.11.07-.16.11-.2.1-.04 0-.07-.03-.08-.06-.02-.04 0-.1.03-.24l.18-.81c.01-.04.01-.06.01-.08 0-.02-.01-.03-.01-.05a.38.38 0 0 0-.06-.05l-.6-.55c-.1-.09-.15-.13-.16-.17 0-.04.01-.07.03-.1.03-.03.1-.04.23-.05l.8-.07c.03 0 .05 0 .07-.01.01 0 .03-.01.04-.03.01-.01.01-.03.03-.07z"/></svg>