<svg xmlns="http://www.w3.org/2000/svg" fill="none" viewBox="0 0 28 20" focusable="false"><rect width="28" height="20" fill="#F0F2F5" rx="2"/><path fill="url(#Milli_M_svg__a)" d="M11.672 8.252a1.75 1.75 0 1 1-3.499 0 1.75 1.75 0 0 1 3.5 0"/><path fill="url(#Milli_M_svg__b)" d="M18.67 10.002a4.665 4.665 0 1 1-9.33 0 4.665 4.665 0 0 1 9.33 0"/><path fill="url(#Milli_M_svg__c)" d="M11.672 11.752a1.75 1.75 0 1 1-3.499 0 1.75 1.75 0 0 1 3.5 0"/><path fill="url(#Milli_M_svg__d)" d="M19.837 8.252a1.75 1.75 0 1 1-3.5 0 1.75 1.75 0 0 1 3.5 0"/><path fill="url(#Milli_M_svg__e)" d="M19.837 11.752a1.75 1.75 0 1 1-3.499 0 1.75 1.75 0 0 1 3.5 0"/><path fill="url(#Milli_M_svg__f)" d="M14.005 5.92a1.75 1.75 0 1 1-3.499 0 1.75 1.75 0 0 1 3.5 0"/><path fill="url(#Milli_M_svg__g)" d="M14.005 14.084a1.75 1.75 0 1 1-3.499 0 1.75 1.75 0 0 1 3.5 0"/><path fill="url(#Milli_M_svg__h)" d="M17.504 5.92a1.75 1.75 0 1 1-3.499 0 1.75 1.75 0 0 1 3.5 0"/><path fill="url(#Milli_M_svg__i)" d="M17.504 14.084a1.75 1.75 0 1 1-3.499 0 1.75 1.75 0 0 1 3.5 0"/><path fill="url(#Milli_M_svg__j)" d="m7.004 9.997 3.5-2.333v4.666l-3.5-2.333"/><path fill="url(#Milli_M_svg__k)" d="m21 9.997-3.499-2.333v4.666l3.5-2.333"/><path fill="url(#Milli_M_svg__l)" d="m14.005 17 2.333-3.499h-4.666l2.333 3.5"/><path fill="url(#Milli_M_svg__m)" d="m14.005 3.004 2.333 3.499h-4.666l2.333-3.5"/><path fill="url(#Milli_M_svg__n)" d="m8.853 4.653 4.124.825-3.299 3.3-.825-4.125"/><path fill="url(#Milli_M_svg__o)" d="m8.653 15.314.825-4.123 3.3 3.299-4.125.824"/><path fill="url(#Milli_M_svg__p)" d="M19.18 4.676 18.355 8.8l-3.3-3.3 4.125-.824"/><path fill="url(#Milli_M_svg__q)" d="m19.292 15.287-4.123-.824 3.299-3.3.824 4.124"/><path fill="#fff" d="M13.814 8.262c.06-.15.09-.224.132-.246.036-.02.08-.02.116 0 .042.022.072.097.132.246l.373.933a.308.308 0 0 0 .04.083.129.129 0 0 0 .046.034c.02.009.042.01.087.015l.959.083c.155.013.232.02.266.056.029.03.042.074.036.117-.008.05-.067.103-.185.21l-.727.654a.296.296 0 0 0-.063.067.142.142 0 0 0-.017.056.322.322 0 0 0 .014.094l.22.978c.036.158.054.238.032.282a.13.13 0 0 1-.094.073c-.046.008-.112-.034-.244-.118l-.827-.525a.279.279 0 0 0-.078-.042.12.12 0 0 0-.056 0 .277.277 0 0 0-.078.042l-.827.525c-.132.084-.198.126-.245.118a.13.13 0 0 1-.094-.073c-.021-.044-.003-.124.033-.282l.22-.978A.322.322 0 0 0 13 10.57a.14.14 0 0 0-.018-.056.294.294 0 0 0-.063-.067l-.726-.654c-.118-.107-.178-.16-.185-.21a.141.141 0 0 1 .036-.117c.033-.036.11-.043.266-.056l.959-.083c.045-.004.068-.006.087-.015a.128.128 0 0 0 .045-.034.308.308 0 0 0 .04-.083l.374-.933"/><defs><linearGradient id="Milli_M_svg__a" x1="14.002" x2="14.002" y1="3.004" y2="17" gradientUnits="userSpaceOnUse"><stop offset=".276" stop-color="#BB9026"/><stop offset=".661" stop-color="#C39931"/><stop offset="1" stop-color="#D0A742"/></linearGradient><linearGradient id="Milli_M_svg__b" x1="14.002" x2="14.002" y1="3.004" y2="17" gradientUnits="userSpaceOnUse"><stop offset=".276" stop-color="#BB9026"/><stop offset=".661" stop-color="#C39931"/><stop offset="1" stop-color="#D0A742"/></linearGradient><linearGradient id="Milli_M_svg__c" x1="14.002" x2="14.002" y1="3.004" y2="17" gradientUnits="userSpaceOnUse"><stop offset=".276" stop-color="#BB9026"/><stop offset=".661" stop-color="#C39931"/><stop offset="1" stop-color="#D0A742"/></linearGradient><linearGradient id="Milli_M_svg__d" x1="14.002" x2="14.002" y1="3.004" y2="17" gradientUnits="userSpaceOnUse"><stop offset=".276" stop-color="#BB9026"/><stop offset=".661" stop-color="#C39931"/><stop offset="1" stop-color="#D0A742"/></linearGradient><linearGradient id="Milli_M_svg__e" x1="14.002" x2="14.002" y1="3.004" y2="17" gradientUnits="userSpaceOnUse"><stop offset=".276" stop-color="#BB9026"/><stop offset=".661" stop-color="#C39931"/><stop offset="1" stop-color="#D0A742"/></linearGradient><linearGradient id="Milli_M_svg__f" x1="14.002" x2="14.002" y1="3.004" y2="17" gradientUnits="userSpaceOnUse"><stop offset=".276" stop-color="#BB9026"/><stop offset=".661" stop-color="#C39931"/><stop offset="1" stop-color="#D0A742"/></linearGradient><linearGradient id="Milli_M_svg__g" x1="14.002" x2="14.002" y1="3.004" y2="17" gradientUnits="userSpaceOnUse"><stop offset=".276" stop-color="#BB9026"/><stop offset=".661" stop-color="#C39931"/><stop offset="1" stop-color="#D0A742"/></linearGradient><linearGradient id="Milli_M_svg__h" x1="14.002" x2="14.002" y1="3.004" y2="17" gradientUnits="userSpaceOnUse"><stop offset=".276" stop-color="#BB9026"/><stop offset=".661" stop-color="#C39931"/><stop offset="1" stop-color="#D0A742"/></linearGradient><linearGradient id="Milli_M_svg__i" x1="14.002" x2="14.002" y1="3.004" y2="17" gradientUnits="userSpaceOnUse"><stop offset=".276" stop-color="#BB9026"/><stop offset=".661" stop-color="#C39931"/><stop offset="1" stop-color="#D0A742"/></linearGradient><linearGradient id="Milli_M_svg__j" x1="14.002" x2="14.002" y1="3.004" y2="17" gradientUnits="userSpaceOnUse"><stop offset=".276" stop-color="#BB9026"/><stop offset=".661" stop-color="#C39931"/><stop offset="1" stop-color="#D0A742"/></linearGradient><linearGradient id="Milli_M_svg__k" x1="14.002" x2="14.002" y1="3.004" y2="17" gradientUnits="userSpaceOnUse"><stop offset=".276" stop-color="#BB9026"/><stop offset=".661" stop-color="#C39931"/><stop offset="1" stop-color="#D0A742"/></linearGradient><linearGradient id="Milli_M_svg__l" x1="14.002" x2="14.002" y1="3.004" y2="17" gradientUnits="userSpaceOnUse"><stop offset=".276" stop-color="#BB9026"/><stop offset=".661" stop-color="#C39931"/><stop offset="1" stop-color="#D0A742"/></linearGradient><linearGradient id="Milli_M_svg__m" x1="14.002" x2="14.002" y1="3.004" y2="17" gradientUnits="userSpaceOnUse"><stop offset=".276" stop-color="#BB9026"/><stop offset=".661" stop-color="#C39931"/><stop offset="1" stop-color="#D0A742"/></linearGradient><linearGradient id="Milli_M_svg__n" x1="14.002" x2="14.002" y1="3.004" y2="17" gradientUnits="userSpaceOnUse"><stop offset=".276" stop-color="#BB9026"/><stop offset=".661" stop-color="#C39931"/><stop offset="1" stop-color="#D0A742"/></linearGradient><linearGradient id="Milli_M_svg__o" x1="14.002" x2="14.002" y1="3.004" y2="17" gradientUnits="userSpaceOnUse"><stop offset=".276" stop-color="#BB9026"/><stop offset=".661" stop-color="#C39931"/><stop offset="1" stop-color="#D0A742"/></linearGradient><linearGradient id="Milli_M_svg__p" x1="14.002" x2="14.002" y1="3.004" y2="17" gradientUnits="userSpaceOnUse"><stop offset=".276" stop-color="#BB9026"/><stop offset=".661" stop-color="#C39931"/><stop offset="1" stop-color="#D0A742"/></linearGradient><linearGradient id="Milli_M_svg__q" x1="14.002" x2="14.002" y1="3.004" y2="17" gradientUnits="userSpaceOnUse"><stop offset=".276" stop-color="#BB9026"/><stop offset=".661" stop-color="#C39931"/><stop offset="1" stop-color="#D0A742"/></linearGradient></defs></svg>