<svg xmlns="http://www.w3.org/2000/svg" fill="none" viewBox="0 0 28 20" focusable="false"><defs><linearGradient id="Milli_M_svg__a" x1="14.002" x2="14.002" y1="3.004" y2="17" gradientUnits="userSpaceOnUse"><stop offset=".276" stop-color="#BB9026"/><stop offset=".661" stop-color="#C39931"/><stop offset="1" stop-color="#D0A742"/></linearGradient></defs><rect width="28" height="20" fill="#F0F2F5" rx="2"/><path fill="url(#Milli_M_svg__a)" fill-rule="evenodd" d="m14 3 .92 1.38c.25-.14.53-.21.83-.21.65 0 1.22.35 1.52.88l1.9-.38-.39 1.97c.62.27 1.05.89 1.05 1.61 0 .3-.07.58-.21.83l1.38.91-1.38.92c.14.25.21.53.21.84 0 .67-.38 1.26-.94 1.55l.4 1.98-1.99-.39c-.29.56-.87.94-1.55.94-.3 0-.58-.08-.83-.21L14 17l-.92-1.38c-.24.13-.53.21-.83.21-.67 0-1.25-.38-1.55-.93l-2.05.41.41-2.04c-.53-.3-.89-.87-.89-1.52 0-.31.07-.59.21-.84L7 9.99l1.38-.92c-.14-.24-.21-.52-.21-.82 0-.73.44-1.35 1.08-1.62l-.4-1.98 1.89.38c.31-.52.87-.86 1.51-.86.3 0 .59.07.83.21z"/><path fill="#FFF" d="M13.81 8.26c.06-.15.09-.23.13-.25.04-.02.08-.02.12 0 .04.02.07.1.13.25l.37.93c.02.04.03.07.04.08.01.02.03.03.05.04.02.01.04.01.08.01l.96.08c.16.02.24.02.27.06.03.03.04.08.04.12-.01.05-.07.1-.19.21l-.73.65c-.03.03-.05.05-.06.07-.01.02-.01.04-.02.06 0 .02.01.04.02.09l.22.98c.03.16.05.23.03.28-.02.04-.05.07-.09.07-.05.01-.12-.03-.25-.12l-.82-.52c-.04-.03-.06-.04-.08-.04a.064.064 0 0 0-.06 0c-.02 0-.04.01-.08.04l-.82.52c-.14.09-.2.13-.25.12-.04 0-.07-.03-.09-.07-.02-.05-.01-.12.03-.28l.22-.98c.01-.05.02-.07.01-.09 0-.02 0-.04-.01-.06a.223.223 0 0 0-.07-.07l-.72-.65c-.12-.11-.18-.16-.19-.21 0-.04.01-.09.04-.12.03-.04.11-.04.26-.06l.96-.08c.05 0 .07 0 .09-.01.02-.01.03-.02.05-.04.01-.01.02-.04.04-.08z"/></svg>