<svg xmlns="http://www.w3.org/2000/svg" fill="none" viewBox="0 0 40 40" focusable="false"><path fill="none" d="M0 0h40v40H0z"/><path fill="none" d="M6 10h28v20H6z"/><rect width="28" height="20" x="6" y="10" fill="#F0F2F5" rx="2"/><path fill="#29313D" fill-rule="evenodd" d="M15.22 17c-.48 0-.91.32-1.04.78l-.8 2.76h-.14l-.79-2.76c-.14-.46-.56-.78-1.05-.78H9.5v5.99h1.9v-3.54h.14l1.09 3.54h1.36l1.1-3.54h.13v3.54h1.91V17zm7.11 0c-.43 0-.81.24-.99.63l-1.35 2.91h-.13V17h-1.91v5.99h1.62c.42 0 .81-.24.99-.63l1.34-2.91h.14v3.54h1.91V17zm2.16 0a3.006 3.006 0 0 0 2.95 2.45h3.29A2.044 2.044 0 0 0 28.72 17zm.28 6v-3.28h5.88c-.28.8-1.04 1.37-1.93 1.37h-2.05V23z"/></svg>