<svg xmlns="http://www.w3.org/2000/svg" fill="none" viewBox="0 0 40 40" focusable="false"><rect width="28" height="20" x="6" y="10" fill="#F0F2F5" rx="2"/><path fill="#29313D" fill-rule="evenodd" d="M21.343 17.634a1.09 1.09 0 0 1 .99-.634h1.62v6h-1.908v-3.546h-.137l-1.344 2.912a1.09 1.09 0 0 1-.99.634h-1.62v-6h1.909v3.545h.136zM24.772 19.728V23h1.905v-1.909h2.049c.89 0 1.645-.57 1.926-1.364zM24.499 17a3 3 0 0 0 2.949 2.454h3.282A2.045 2.045 0 0 0 28.726 17zM14.181 17.789A1.091 1.091 0 0 1 15.23 17h1.907v6h-1.91v-3.546h-.136L14 23h-1.364l-1.09-3.546h-.137V23H9.5v-6h1.906c.486 0 .914.322 1.048.789l.796 2.757h.136z" clip-rule="evenodd"/></svg>