<svg xmlns="http://www.w3.org/2000/svg" fill="none" viewBox="0 0 28 20" focusable="false"><path fill="none" d="M0 0h28v20H0z"/><rect width="28" height="20" fill="#f0f2f5" rx="2"/><path fill="#29313d" fill-rule="evenodd" d="M9.22 7c-.48 0-.91.32-1.04.78l-.8 2.76h-.14l-.79-2.76C6.31 7.32 5.89 7 5.4 7H3.5v5.99h1.9V9.45h.14l1.09 3.54h1.36l1.1-3.54h.13v3.54h1.91V7zm7.11 0c-.43 0-.81.24-.99.63l-1.35 2.91h-.13V7h-1.91v5.99h1.62c.42 0 .81-.24.99-.63l1.34-2.91h.14v3.54h1.91V7zm2.16 0a3.006 3.006 0 0 0 2.95 2.45h3.29A2.044 2.044 0 0 0 22.72 7zm.28 6V9.72h5.88c-.28.8-1.04 1.37-1.93 1.37h-2.05V13z"/></svg>