<svg xmlns="http://www.w3.org/2000/svg" fill="none" viewBox="0 0 28 20" focusable="false"><rect width="28" height="20" fill="#f0f2f5" rx="2"/><path fill="#29313d" fill-rule="evenodd" d="M15.343 7.634a1.09 1.09 0 0 1 .99-.634h1.62v6h-1.908V9.454h-.137l-1.344 2.912a1.09 1.09 0 0 1-.99.634h-1.62V7h1.909v3.545h.136zM18.772 9.728V13h1.905v-1.909h2.049c.89 0 1.645-.57 1.926-1.363zM18.499 7a3 3 0 0 0 2.949 2.454h3.282q.04-.198.041-.409c0-1.13-.915-2.045-2.045-2.045zM8.181 7.789A1.09 1.09 0 0 1 9.23 7h1.907v6h-1.91V9.454H9.09L8 13H6.636l-1.09-3.546h-.137V13H3.5V7h1.906c.486 0 .914.322 1.049.789l.795 2.757h.136z" clip-rule="evenodd"/></svg>