<svg xmlns="http://www.w3.org/2000/svg" fill="none" viewBox="0 0 22 10" focusable="false"><path fill="none" d="M0 0h22v10H0z"/><path fill="#23262D" fill-rule="evenodd" d="M7.38 2.81c-.45 0-.86.31-.98.74l-.75 2.6h-.13l-.75-2.6c-.12-.43-.53-.74-.98-.74H2v5.64h1.79V5.12h.13l1.02 3.33h1.29l1.02-3.33h.13v3.33h1.79V2.81zm6.68 0c-.4 0-.76.24-.93.6l-1.26 2.74h-.13V2.81h-1.8v5.64h1.53c.4 0 .76-.23.93-.59l1.26-2.74h.13v3.33h1.8V2.81zm2.04 0a2.814 2.814 0 0 0 2.77 2.31h3.09c.02-.12.03-.25.03-.38 0-1.07-.86-1.93-1.92-1.93zm.25 5.64V5.38h5.53a1.92 1.92 0 0 1-1.81 1.28h-1.92v1.79z"/></svg>