<svg xmlns="http://www.w3.org/2000/svg" fill="none" viewBox="0 0 22 10" focusable="false"><path fill="none" d="M0 0H22V10H0z"/><path d="M0 0H22V10H0z"/><path fill="#252629" fill-rule="evenodd" d="M7.38684 2.81836C6.93013 2.81836 6.52826 3.12078 6.40139 3.55989L5.65369 6.15203L5.52563 6.15203L4.77793 3.55989C4.65106 3.12078 4.24919 2.81836 3.79248 2.81836L2 2.81836L2 8.45971L3.79451 8.45971L3.79451 5.12604L3.923 5.12604L4.94857 8.45971L6.23069 8.45971L7.25632 5.12604L7.38438 5.12604L7.38438 8.45971L9.17932 8.45971L9.17932 2.81836L7.38684 2.81836ZM13.1354 3.41422C13.3031 3.05086 13.6666 2.81836 14.0668 2.81836L15.59 2.81836L15.59 8.45937L13.7951 8.45937L13.7951 5.12611L13.667 5.12611L12.4033 7.86351C12.2354 8.22687 11.8721 8.45937 11.4722 8.45937L9.94856 8.45937L9.94856 2.81836L11.7436 2.81836L11.7436 6.15161L11.8721 6.15161L13.1354 3.41422ZM16.1023 2.81836C16.3437 4.1312 17.4924 5.12611 18.8748 5.12611L21.9614 5.12611C21.9863 5.0017 21.9998 4.87314 21.9998 4.74136C21.9998 3.67946 21.1388 2.81836 20.0769 2.81836L16.1023 2.81836ZM16.3594 8.46L16.3594 5.38288L21.8887 5.38288C21.6243 6.12938 20.9143 6.66507 20.0774 6.66507L18.1507 6.66507L18.1507 8.46L16.3594 8.46Z"/></svg>