<svg xmlns="http://www.w3.org/2000/svg" fill="none" viewBox="0 0 22 10" focusable="false"><path fill="#23262d" fill-rule="evenodd" d="M13.135 3.414c.168-.363.532-.596.932-.596h1.523V8.46h-1.795V5.126h-.128l-1.264 2.738a1.03 1.03 0 0 1-.93.595H9.948V2.82h1.795v3.333h.128zM16.36 5.383V8.46h1.79V6.665h1.927c.837 0 1.547-.536 1.812-1.282zM16.102 2.818a2.82 2.82 0 0 0 2.773 2.308h3.086Q22 4.94 22 4.741a1.923 1.923 0 0 0-1.923-1.923zM6.401 3.56c.127-.44.53-.742.986-.742h1.792V8.46H7.384V5.126h-.128L6.231 8.46H4.949L3.923 5.126h-.128V8.46H2V2.818h1.792c.457 0 .86.303.986.742l.748 2.592h.128z" clip-rule="evenodd"/></svg>