<svg xmlns="http://www.w3.org/2000/svg" fill="none" viewBox="0 0 22 10" focusable="false"><path fill="none" d="M0 0h22v10H0z"/><path fill="#fff" fill-rule="evenodd" d="M7.38 3c-.45 0-.86.3-.98.74l-.75 2.59h-.13l-.75-2.59C4.65 3.3 4.24 3 3.79 3H2v5.64h1.79V5.3h.13l1.02 3.34h1.29L7.25 5.3h.13v3.34h1.79V3zm6.68 0c-.4 0-.76.23-.93.59l-1.26 2.74h-.13V3h-1.8v5.64h1.53c.4 0 .76-.24.93-.6l1.26-2.74h.13v3.34h1.8V3zm2.04 0c.24 1.31 1.39 2.3 2.77 2.3h3.09c.02-.12.03-.25.03-.38 0-1.06-.86-1.92-1.92-1.92zm.25 5.64V5.56h5.53c-.26.75-.97 1.28-1.81 1.28h-1.92v1.8z"/></svg>