<svg xmlns="http://www.w3.org/2000/svg" fill="none" viewBox="0 0 22 10" focusable="false"><path fill="none" d="M0 0h22v10H0z"/><path fill="#23262D" fill-rule="evenodd" d="M9.6 2.75c.16-.2.27-.48.24-.75-.23 0-.52.15-.69.35-.15.18-.28.46-.25.73.27.02.53-.14.7-.33m4.7-.07q-.32-.1-.74-.1h-1.28v4.46h.89V5.45h.39q.89 0 1.29-.37c.26-.25.4-.6.4-1.06q0-.33-.11-.59c-.07-.18-.18-.33-.32-.45q-.2-.19-.52-.3m-4.11 1.81c-.01-.58.46-.87.51-.89-.28-.41-.71-.46-.86-.47-.23-.02-.44.06-.62.13-.11.05-.21.09-.28.09a.8.8 0 0 1-.29-.09c-.15-.05-.31-.12-.49-.12-.4.01-.76.23-.97.59-.41.72-.1 1.79.3 2.37.2.28.43.6.74.59.3-.01.41-.19.77-.19.18 0 .3.05.41.1s.21.09.37.09c.32-.01.52-.29.72-.58.22-.33.32-.65.32-.67-.01 0-.62-.24-.63-.95m3.94.07q-.18.19-.57.19h-.39V3.28h.39q.39 0 .57.19t.18.55q0 .35-.18.54m1.46-.65c.2-.08.39-.14.58-.17.18-.03.39-.05.61-.05.33 0 .58.04.77.13.19.08.34.19.43.32.1.12.16.26.18.41.03.15.04.29.04.41v2.08h-.82v-.48h-.02a.8.8 0 0 1-.08.14c-.04.06-.11.12-.18.18q-.12.09-.3.15t-.45.06q-.3 0-.52-.08a1.1 1.1 0 0 1-.35-.23q-.09-.09-.15-.2-.04-.06-.06-.12c-.04-.12-.06-.25-.06-.37q0-.18.05-.37c.04-.12.12-.24.23-.35.12-.11.28-.2.49-.27s.48-.1.83-.1h.55v-.14q0-.135-.06-.24a.55.55 0 0 0-.16-.18c-.07-.04-.15-.08-.24-.11-.08-.02-.18-.03-.27-.03-.14 0-.3.01-.46.05-.17.04-.36.12-.58.24zm3.37 4.51c.08.02.17.04.25.04.22 0 .41-.03.56-.09q.225-.09.36-.24c.1-.09.18-.2.23-.32.07-.12.12-.24.17-.37l1.36-3.7h-.86l-.58 1.8-.2.65h-.04l-.18-.63-.6-1.82h-.93l1.27 3.49-.08.19c-.06.14-.13.24-.23.29-.09.05-.21.08-.35.08-.1 0-.18-.01-.24-.04a1 1 0 0 1-.16-.05v.66c.08.03.16.05.25.06m-1.75-2.88q-.17 0-.38.02c-.13 0-.25.02-.37.05-.11.04-.21.09-.28.16q-.02.02-.03.04-.08.1-.08.27 0 .18.12.3c.08.09.21.13.4.13.08 0 .17-.02.26-.04.09-.03.18-.07.25-.14.08-.06.14-.15.18-.26q.08-.18.08-.44v-.09z"/></svg>