<svg xmlns="http://www.w3.org/2000/svg" fill="none" viewBox="0 0 22 10" focusable="false"><path fill="#23262D" d="M10.195 4.496c-.006-.594.485-.88.508-.894a1.1 1.1 0 0 0-.86-.466c-.366-.037-.714.216-.9.216-.185 0-.471-.21-.774-.204a1.15 1.15 0 0 0-.972.588c-.415.72-.106 1.784.297 2.367.198.286.433.607.742.595.298-.012.41-.193.77-.193s.46.193.775.187c.32-.006.523-.291.72-.577.226-.331.32-.651.324-.668-.007-.003-.624-.24-.63-.95M9.603 2.75c.164-.198.275-.475.245-.75-.237.01-.523.158-.692.356-.152.176-.285.457-.25.727.264.02.533-.134.697-.333M13.569 2.587q.417 0 .735.102t.524.293q.211.185.317.452.106.262.106.586 0 .695-.399 1.064-.398.37-1.283.37h-.399v1.592h-.884V2.587zm0 2.166q.747 0 .748-.733 0-.732-.748-.732h-.399v1.465zM15.6 3.912a2.6 2.6 0 0 1 .572-.165q.281-.051.611-.051.492 0 .773.127.285.127.43.319a.94.94 0 0 1 .18.414q.044.222.044.407v2.083h-.829v-.484h-.012a.817.817 0 0 1-.268.325 1.24 1.24 0 0 1-.741.21q-.305 0-.524-.083a1 1 0 0 1-.355-.23.9.9 0 0 1-.206-.318 1.17 1.17 0 0 1-.006-.738.77.77 0 0 1 .23-.35q.175-.166.487-.268.31-.11.828-.109a4 4 0 0 1 .237.007h.312v-.14q0-.135-.063-.242a.5.5 0 0 0-.155-.179.8.8 0 0 0-.237-.108 1 1 0 0 0-.274-.038q-.212 0-.462.057a2 2 0 0 0-.573.236zm1.62 1.637a6 6 0 0 0-.38.013 1.5 1.5 0 0 0-.375.057.7.7 0 0 0-.28.16.4.4 0 0 0-.112.305q0 .18.118.306.12.12.399.121a1 1 0 0 0 .268-.038.65.65 0 0 0 .25-.134.7.7 0 0 0 .18-.268 1.1 1.1 0 0 0 .075-.439v-.083zM19.21 8.46q-.118 0-.249-.032a2 2 0 0 1-.243-.063v-.663q.075.031.162.057a.7.7 0 0 0 .23.032.7.7 0 0 0 .356-.076q.143-.077.23-.293l.075-.191L18.5 3.747h.934l.605 1.821.18.63h.032l.2-.655.585-1.796h.86l-1.365 3.7q-.069.184-.162.363a1.1 1.1 0 0 1-.23.325 1.05 1.05 0 0 1-.368.236q-.225.09-.56.09"/></svg>