<svg xmlns="http://www.w3.org/2000/svg" width="22" height="10" fill="none"><path fill="#fff" fill-rule="evenodd" d="m11.903 2.114-1.337 6.247H8.95l1.337-6.247h1.616Zm6.799 4.034.85-2.346.49 2.346h-1.34Zm1.804 2.213H22l-1.305-6.247h-1.379c-.31 0-.572.18-.688.458l-2.425 5.789H17.9l.337-.933h2.073l.196.933Zm-4.22-2.04c.008-1.648-2.279-1.74-2.263-2.476.005-.224.218-.462.685-.523.231-.03.87-.054 1.594.28l.283-1.326A4.359 4.359 0 0 0 15.073 2c-1.597 0-2.721.849-2.73 2.065-.01.9.803 1.4 1.414 1.7.63.306.841.503.838.776-.004.42-.502.605-.966.612-.813.013-1.284-.22-1.66-.395l-.293 1.37c.378.173 1.075.323 1.796.331 1.699 0 2.81-.839 2.815-2.137ZM9.594 2.115 6.975 8.361H5.267L3.978 3.375c-.078-.306-.146-.419-.384-.548-.388-.211-1.03-.409-1.594-.532l.038-.181h2.75c.35 0 .666.233.746.637l.68 3.615 1.682-4.252h1.697Z" clip-rule="evenodd"/></svg>