<svg xmlns="http://www.w3.org/2000/svg" fill="none" viewBox="0 0 28 20" focusable="false"><path fill="none" d="M0 0h28v20H0z"/><rect width="28" height="20" fill="#f0f2f5" rx="2"/><path fill="#23262d" fill-rule="evenodd" d="m13.27 6.62-1.52 7.12H9.91l1.52-7.12z"/><path fill="#23262d" fill-rule="evenodd" d="M23.07 13.742h1.702L23.285 6.63h-1.57a.84.84 0 0 0-.783.521l-2.761 6.591h1.933l.383-1.062h2.36zm-1.085-5.19-.969 2.67h1.526z" clip-rule="evenodd"/><path fill="#23262d" fill-rule="evenodd" d="M18.26 11.42c.01-1.88-2.59-1.99-2.58-2.82.01-.26.25-.53.78-.6.27-.03.99-.06 1.82.32l.32-1.51c-.44-.16-1.01-.31-1.72-.31-1.82 0-3.1.96-3.11 2.35-.01 1.02.92 1.59 1.61 1.93.72.35.96.57.96.89-.01.47-.58.68-1.1.69-.93.02-1.47-.25-1.89-.45l-.34 1.56c.43.2 1.23.37 2.05.38 1.93 0 3.2-.96 3.2-2.43M10.64 6.62l-2.98 7.12H5.71L4.25 8.06c-.09-.35-.17-.48-.44-.62-.44-.24-1.17-.47-1.81-.61l.04-.21h3.13c.4 0 .76.27.85.73l.77 4.12 1.92-4.85z"/></svg>