<svg xmlns="http://www.w3.org/2000/svg" fill="none" viewBox="0 0 40 40" focusable="false"><path fill="none" d="M0 0h40v40H0z"/><path fill="none" d="M6 10h28v20H6z"/><rect width="28" height="20" x="6" y="10" fill="#f0f2f5" rx="2"/><path fill="#23262d" fill-rule="evenodd" d="m19.27 16.62-1.52 7.12h-1.84l1.52-7.12z"/><path fill="#23262d" fill-rule="evenodd" d="M29.07 23.742h1.702l-1.487-7.112h-1.57a.84.84 0 0 0-.783.521l-2.761 6.591h1.933l.383-1.062h2.36zm-1.085-5.19-.969 2.67h1.526z" clip-rule="evenodd"/><path fill="#23262d" fill-rule="evenodd" d="M24.26 21.42c.01-1.88-2.59-1.99-2.58-2.82.01-.26.25-.53.78-.6.27-.03.99-.06 1.82.32l.32-1.51c-.44-.16-1.01-.31-1.72-.31-1.82 0-3.1.96-3.11 2.35-.01 1.02.92 1.59 1.61 1.93.72.35.96.57.96.89-.01.47-.58.68-1.1.69-.93.02-1.47-.25-1.89-.45l-.34 1.56c.43.2 1.23.37 2.05.38 1.93 0 3.2-.96 3.2-2.43M16.64 16.62l-2.98 7.12h-1.95l-1.46-5.68c-.09-.35-.17-.48-.44-.62-.44-.24-1.17-.47-1.81-.61l.04-.21h3.13c.4 0 .76.27.85.73l.77 4.12 1.92-4.85z"/></svg>