<svg xmlns="http://www.w3.org/2000/svg" fill="none" viewBox="0 0 40 40" focusable="false"><rect width="38" height="28" x="1" y="6" fill="#35383F" rx="4"/><path fill="#fff" fill-rule="evenodd" d="M27.569 16.199a.787.787 0 0 0-.607-.195l-3.655.394a.786.786 0 1 0 .168 1.564l1.661-.18-4.319 4.32-3.46-3.46a.786.786 0 0 0-1.111 0l-4.016 4.016a.786.786 0 1 0 1.112 1.112l3.46-3.46 3.46 3.46a.786.786 0 0 0 1.111 0l4.904-4.904.014 1.515a.786.786 0 1 0 1.572-.014l-.031-3.588a.786.786 0 0 0-.263-.58Z" clip-rule="evenodd"/></svg>