<svg xmlns="http://www.w3.org/2000/svg" fill="none" viewBox="0 0 40 40" focusable="false"><path fill="none" d="M0 0h40v40H0z"/><rect width="38" height="28" x="1" y="6" fill="#35383f" rx="4"/><path fill="#fff" fill-rule="evenodd" d="M27.56 16.19a.8.8 0 0 0-.6-.19l-3.66.39c-.43.05-.74.44-.7.87.05.43.44.74.87.7l1.66-.18-4.32 4.32-3.46-3.46a.75.75 0 0 0-.55-.23c-.21 0-.41.08-.56.23l-4.01 4.01c-.31.31-.31.81 0 1.11.3.31.8.31 1.11 0l3.46-3.45 3.46 3.45c.14.15.34.24.55.24s.41-.09.56-.24l4.9-4.9.02 1.52c0 .43.35.78.79.78.43-.01.78-.36.78-.8l-.03-3.59c0-.22-.1-.43-.27-.58"/></svg>