<svg xmlns="http://www.w3.org/2000/svg" fill="none" viewBox="0 0 40 40" focusable="false"><path fill="none" d="M0 0H40V40H0z"/><rect width="38" height="28" x="1" y="6" fill="#37383B" rx="4"/><path fill="#FFF" fill-rule="evenodd" d="M15.5687 7.80098C15.4029 7.9486 15.1824 8.01925 14.9616 7.99548L11.3069 7.60186C10.8751 7.55535 10.5628 7.16762 10.6093 6.73583C10.6558 6.30404 11.0435 5.99171 11.4753 6.03821L13.1363 6.2171L8.81763 1.8984L5.35802 5.35802C5.21055 5.50549 5.01054 5.58833 4.80199 5.58833C4.59344 5.58833 4.39343 5.50549 4.24596 5.35802L0.230315 1.34237C-0.0767718 1.03529 -0.0767715 0.537402 0.230315 0.230315C0.537402 -0.0767713 1.03529 -0.0767713 1.34237 0.230315L4.80199 3.68993L8.2616 0.230315C8.40907 0.0828468 8.60908 0 8.81763 0C9.02618 0 9.22619 0.0828468 9.37366 0.230315L14.2776 5.13424L14.2908 3.6191C14.2946 3.18484 14.6497 2.83586 15.0839 2.83964C15.5182 2.84342 15.8672 3.19853 15.8634 3.6328L15.8322 7.2205C15.8302 7.44251 15.7345 7.65335 15.5687 7.80098Z" transform="matrix(1 0 0 -1 12 24)"/></svg>