<svg xmlns="http://www.w3.org/2000/svg" fill="none" viewBox="0 0 40 40" focusable="false"><path fill="none" d="M0 0h40v40H0z"/><rect width="38" height="28" x="1" y="6" fill="#35383F" rx="4"/><path fill="#FFF" fill-rule="evenodd" d="M16.03 13.86c0-.48.39-.86.87-.86h4.44c2.45 0 4.43 1.98 4.43 4.43 0 2.45-1.98 4.43-4.43 4.43h-3.58v1.4h4.03a.87.87 0 0 1 0 1.74h-4.03v1.13c0 .48-.39.87-.86.87a.87.87 0 0 1-.87-.87V25h-.94c-.48 0-.86-.39-.86-.87s.38-.87.86-.87h.94v-1.4h-.93a.87.87 0 0 1-.87-.87c0-.47.39-.86.87-.86h.93zm1.73 6.27h3.58c1.49 0 2.7-1.21 2.7-2.7 0-1.49-1.21-2.7-2.7-2.7h-3.58z"/></svg>