<svg xmlns="http://www.w3.org/2000/svg" fill="none" viewBox="0 0 40 40" focusable="false"><rect width="38" height="28" x="1" y="6" fill="#35383f" rx="4"/><path fill="#fff" fill-rule="evenodd" d="M16.034 13.868c0-.48.388-.868.867-.868h4.441a4.434 4.434 0 0 1 0 8.867h-3.574v1.4h4.03a.868.868 0 0 1 0 1.734h-4.03v1.131a.867.867 0 1 1-1.735 0v-1.13h-.936a.867.867 0 0 1 0-1.736h.937v-1.399h-.929a.868.868 0 0 1 0-1.735h.928zm1.734 6.264h3.574a2.699 2.699 0 1 0 0-5.397h-3.574z" clip-rule="evenodd"/></svg>