<svg xmlns="http://www.w3.org/2000/svg" fill="none" viewBox="0 0 40 40" focusable="false"><rect width="38" height="28" x="1" y="6" fill="#35383F" rx="4"/><path fill="#fff" fill-rule="evenodd" d="M19.16 14.89c.284-.142.596-.216.913-.216h.236A1.806 1.806 0 0 1 21.64 17.7h-6.473a.837.837 0 1 0 0 1.675h4.269l-1.688 1.25h-2.58a.837.837 0 1 0 0 1.675h1.26a3.48 3.48 0 0 0 3.259 4.7h.236c.577 0 1.145-.134 1.661-.392l1.742-.87a.837.837 0 1 0-.748-1.498l-1.742.87a2.043 2.043 0 0 1-.913.216h-.236a1.806 1.806 0 0 1-1.331-3.026h6.473a.837.837 0 0 0 0-1.675H20.56l1.688-1.25h2.581a.837.837 0 1 0 0-1.675h-1.26a3.478 3.478 0 0 0-3.26-4.7h-.236c-.577 0-1.145.134-1.661.392l-1.742.87a.837.837 0 1 0 .748 1.499z" clip-rule="evenodd"/></svg>