<svg xmlns="http://www.w3.org/2000/svg" fill="none" viewBox="0 0 40 40" focusable="false"><path fill="none" d="M0 0h40v40H0z"/><rect width="38" height="28" x="1" y="6" fill="#35383f" rx="4"/><path fill="#fff" d="M21.3 13.01c1.05-.08 2.21.22 2.95.94.38.36.39.97.02 1.35a.95.95 0 0 1-1.35.02c-.25-.23-.81-.45-1.49-.4-.64.04-1.2.31-1.5.78-.37.56-.48 1.14-.47 1.96 0 .38.03.77.06 1.24l.02.19.03.57h2.37c.53 0 .96.42.96.95s-.43.96-.96.96h-2.36c-.11 1.3-.51 2.42-1.04 3.3-.04.07-.09.14-.13.21h5.96c.52 0 .95.43.95.96s-.43.95-.95.95l-8.42.01c-.47 0-.87-.34-.94-.81a.95.95 0 0 1 .63-1.06c.27-.09.79-.47 1.26-1.25.36-.6.66-1.39.76-2.31h-1.65a.96.96 0 0 1-.96-.96c0-.53.43-.95.96-.95h1.64c0-.15-.01-.3-.02-.44l-.02-.19c-.03-.46-.06-.91-.06-1.35-.01-1.01.12-2.03.78-3.03.72-1.1 1.9-1.57 2.97-1.64"/></svg>