<svg xmlns="http://www.w3.org/2000/svg" fill="none" viewBox="0 0 40 40" focusable="false"><rect width="38" height="28" x="1" y="6" fill="#35383f" rx="4"/><path fill="#fff" d="M21.31 13.01c1.05-.071 2.202.226 2.944.942a.957.957 0 1 1-1.329 1.378c-.248-.24-.811-.455-1.486-.41-.649.044-1.2.317-1.508.785-.367.56-.474 1.141-.466 1.963.004.374.031.77.063 1.233l.013.193q.018.272.035.567h2.367a.957.957 0 1 1 0 1.915h-2.357a7.6 7.6 0 0 1-1.175 3.51h5.96a.957.957 0 1 1 0 1.914h-8.413a.957.957 0 0 1-.309-1.864c.266-.09.786-.471 1.255-1.25a5.7 5.7 0 0 0 .759-2.31h-1.647a.957.957 0 0 1 0-1.915h1.643l-.028-.438-.013-.19a24 24 0 0 1-.067-1.344c-.01-1.014.12-2.03.78-3.034.72-1.097 1.902-1.572 2.979-1.645"/></svg>