<svg xmlns="http://www.w3.org/2000/svg" fill="none" viewBox="0 0 40 40" focusable="false"><path fill="none" d="M0 0h40v40H0z"/><rect width="38" height="28" x="1" y="6" fill="#35383f" rx="4"/><path fill="#fff" fill-rule="evenodd" d="M19.16 14.88c.28-.14.59-.21.91-.21h.23c1 0 1.81.81 1.81 1.81 0 .45-.17.89-.47 1.22h-6.48c-.46 0-.83.37-.83.83s.37.84.83.84h4.27l-1.69 1.25h-2.58c-.46 0-.83.38-.83.84s.37.83.83.83h1.26c-.14.39-.22.8-.22 1.23 0 1.92 1.56 3.48 3.48 3.48h.24c.57 0 1.14-.14 1.66-.4l1.74-.87c.41-.2.58-.71.38-1.12a.855.855 0 0 0-1.13-.38l-1.74.88c-.28.14-.6.21-.91.21h-.24c-1 0-1.8-.81-1.8-1.8 0-.46.17-.9.47-1.23h6.47c.47 0 .84-.37.84-.83s-.37-.84-.84-.84h-4.26l1.68-1.25h2.58c.47 0 .84-.38.84-.84a.83.83 0 0 0-.84-.83h-1.26c.15-.39.22-.8.22-1.22A3.47 3.47 0 0 0 20.3 13h-.23c-.58 0-1.15.13-1.66.39l-1.75.87c-.41.2-.58.71-.37 1.12s.71.58 1.12.38z"/></svg>