<svg xmlns="http://www.w3.org/2000/svg" width="40" height="40" fill="none"><rect width="38" height="28" x="1" y="6" fill="#35383F" rx="4"/><path fill="#fff" d="M15.426 18.783a6.582 6.582 0 0 0 0 1.434H14.41a.909.909 0 0 0 0 1.817h1.49a6.502 6.502 0 0 0 10.288 2.34.909.909 0 1 0-1.203-1.362 4.662 4.662 0 0 1-3.097 1.17 4.679 4.679 0 0 1-3.938-2.148h4.439a.909.909 0 0 0 0-1.817h-5.129a4.709 4.709 0 0 1 0-1.434h5.129a.909.909 0 0 0 0-1.817h-4.44a4.679 4.679 0 0 1 3.94-2.149c1.187 0 2.27.442 3.096 1.17a.909.909 0 0 0 1.203-1.362 6.502 6.502 0 0 0-10.287 2.34h-1.491a.909.909 0 0 0 0 1.818h1.017Z"/></svg>