<svg width="40.000000" height="40.000000" viewBox="0 0 40 40" fill="none" xmlns="http://www.w3.org/2000/svg" xmlns:xlink="http://www.w3.org/1999/xlink">
	<desc>
			Created with Pixso.
	</desc>
	<defs/>
	<rect id="Payments Master UAH" width="40.000000" height="40.000000" fill="#FFFFFF" fill-opacity="0"/>
	<rect id="BG" x="1.000000" y="6.000000" rx="4.000000" width="38.000000" height="28.000000" fill="#35383F" fill-opacity="1.000000"/>
	<path id="Union" d="M19.16 14.88C19.44 14.74 19.75 14.67 20.07 14.67L20.3 14.67C21.3 14.67 22.11 15.48 22.11 16.48C22.11 16.93 21.94 17.37 21.64 17.7L15.16 17.7C14.7 17.7 14.33 18.07 14.33 18.53C14.33 18.99 14.7 19.37 15.16 19.37L19.43 19.37L17.74 20.62L15.16 20.62C14.7 20.62 14.33 21 14.33 21.46C14.33 21.92 14.7 22.29 15.16 22.29L16.42 22.29C16.28 22.68 16.2 23.09 16.2 23.52C16.2 25.44 17.76 27 19.68 27L19.92 27C20.49 27 21.06 26.86 21.58 26.6L23.32 25.73C23.73 25.53 23.9 25.02 23.7 24.61C23.49 24.2 22.99 24.03 22.57 24.23L20.83 25.11C20.55 25.25 20.23 25.32 19.92 25.32L19.68 25.32C18.68 25.32 17.88 24.51 17.88 23.52C17.88 23.06 18.05 22.62 18.35 22.29L24.82 22.29C25.29 22.29 25.66 21.92 25.66 21.46C25.66 21 25.29 20.62 24.82 20.62L20.56 20.62L22.24 19.37L24.82 19.37C25.29 19.37 25.66 18.99 25.66 18.53C25.66 18.07 25.29 17.7 24.82 17.7L23.56 17.7C23.71 17.31 23.78 16.9 23.78 16.48C23.78 14.55 22.23 13 20.3 13L20.07 13C19.49 13 18.92 13.13 18.41 13.39L16.66 14.26C16.25 14.46 16.08 14.97 16.29 15.38C16.5 15.79 17 15.96 17.41 15.76L19.16 14.88Z" fill="#FFFFFF" fill-opacity="1.000000" fill-rule="evenodd"/>
</svg>
