<svg width="24" height="24" viewBox="0 0 24 24" fill="none" xmlns="http://www.w3.org/2000/svg">
<path fill-rule="evenodd" clip-rule="evenodd" d="M7.84979 10.1C7.84979 7.80799 9.70781 5.94998 11.9998 5.94998C14.2918 5.94998 16.1498 7.80799 16.1498 10.1C16.1498 12.392 14.2918 14.25 11.9998 14.25C9.70781 14.25 7.84979 12.392 7.84979 10.1ZM11.9998 7.24998C10.4258 7.24998 9.14979 8.52596 9.14979 10.1C9.14979 11.674 10.4258 12.95 11.9998 12.95C13.5738 12.95 14.8498 11.674 14.8498 10.1C14.8498 8.52596 13.5738 7.24998 11.9998 7.24998Z" fill="#626F84"/>
<path fill-rule="evenodd" clip-rule="evenodd" d="M11.6234 3.12992C14.8959 2.93229 18.372 4.83979 18.8885 9.06708C18.9248 9.36477 18.9468 9.64161 18.9503 9.89087C18.9691 11.2372 18.5412 12.5995 17.9291 13.8584C17.3147 15.1218 16.4959 16.3198 15.6867 17.3491C14.876 18.3802 14.0649 19.2548 13.457 19.8712C13.1239 20.2091 12.7863 20.5433 12.4313 20.8583C12.1853 21.0762 11.8146 21.0756 11.5686 20.8577C11.6132 20.8083 11.5688 20.8578 11.5686 20.8577C11.2144 20.5423 10.8765 20.2088 10.5436 19.8712C9.93575 19.2548 9.12463 18.3802 8.31397 17.3491C7.50474 16.3198 6.68593 15.1218 6.07161 13.8584C5.45949 12.5995 5.03155 11.2372 5.0504 9.89087C5.10997 5.63742 8.35235 3.32746 11.6234 3.12992ZM12.0003 19.483C11.8529 19.3414 11.673 19.1651 11.4693 18.9585C10.8853 18.3663 10.1087 17.5286 9.33595 16.5456C8.56174 15.5609 7.80133 14.4428 7.24073 13.2899C6.67795 12.1325 6.33531 10.9781 6.35028 9.90908C6.39836 6.47559 8.96127 4.59305 11.7017 4.42756C14.4406 4.26215 17.1822 5.82109 17.5981 9.22474C17.6306 9.49131 17.6478 9.71955 17.6504 9.90908C17.6654 10.9781 17.3227 12.1325 16.7599 13.2899C16.1993 14.4428 15.4389 15.5609 14.6647 16.5456C13.8919 17.5286 13.1153 18.3663 12.5314 18.9585C12.3276 19.1651 12.1478 19.3414 12.0003 19.483Z" fill="#626F84"/>
</svg>
