<svg width="24" height="24" viewBox="0 0 24 24" fill="none" xmlns="http://www.w3.org/2000/svg">
<path fill-rule="evenodd" clip-rule="evenodd" d="M4 7C4.00001 5.34314 5.34315 4 7.00001 4L17 4C18.6569 4.00001 20 5.34315 20 7.00001L20 17C20 18.6569 18.6569 20 17 20L7 20C5.34314 20 4 18.6569 4 17L4 7ZM6.32247 5.9001C6.68146 5.9001 6.97247 6.19111 6.97247 6.5501L6.97247 16.3541C6.97247 16.713 7.26348 17.0041 7.62247 17.0041L17.4935 17.0041C17.8524 17.0041 18.1435 17.2951 18.1435 17.6541C18.1435 18.0131 17.8524 18.3041 17.4935 18.3041L7.62247 18.3041C6.54551 18.3041 5.67247 17.431 5.67247 16.3541L5.67247 6.5501C5.67247 6.19111 5.96349 5.9001 6.32247 5.9001ZM17.3064 8.68778C17.4885 8.66459 17.6718 8.71943 17.8113 8.83877C17.9507 8.95811 18.0331 9.13082 18.0383 9.31427L18.1006 11.5269C18.1107 11.8858 17.828 12.1849 17.4692 12.195C17.1104 12.2051 16.8113 11.9224 16.8012 11.5635L16.7872 11.0687L14.2099 13.7671C14.0872 13.8956 13.9174 13.9682 13.7398 13.9682C13.5622 13.9682 13.3924 13.8956 13.2698 13.7671L11.3735 11.7818L9.4773 13.7671C9.22935 14.0267 8.8179 14.0362 8.5583 13.7882C8.2987 13.5403 8.28925 13.1288 8.5372 12.8692L10.9035 10.3918C11.0261 10.2634 11.196 10.1907 11.3735 10.1907C11.5511 10.1907 11.7209 10.2634 11.8436 10.3918L13.7398 12.3771L15.8325 10.1861L15.221 10.264C14.8649 10.3094 14.5395 10.0575 14.4941 9.70138C14.4487 9.34527 14.7006 9.01981 15.0567 8.97443L17.3064 8.68778Z" fill="#626F84"/>
</svg>
