<svg width="24" height="24" viewBox="0 0 24 24" fill="none" xmlns="http://www.w3.org/2000/svg">
<path fill-rule="evenodd" clip-rule="evenodd" d="M3 16.0001C3 17.6569 4.34314 19.0001 6 19.0001H18C19.6569 19.0001 21 17.6569 21 16.0001V8.00006C21 6.44676 19.8195 5.16918 18.3067 5.01555C18.2059 5.00531 18.1036 5.00006 18 5.00006H6C4.34315 5.00006 3 6.34321 3 8.00006V16.0001ZM18 6.30006C18.9389 6.30006 19.7 7.06118 19.7 8.00006V8.28961H4.49531C4.42726 8.28961 4.36165 8.30007 4.3 8.31947V8.00006C4.3 7.06118 5.06112 6.30006 6 6.30006L18 6.30006ZM4.3 9.55976L4.3 16.0001C4.3 16.9389 5.06112 17.7001 6 17.7001H18C18.9389 17.7001 19.7 16.9389 19.7 16.0001V9.58961H4.49531C4.42726 9.58961 4.36165 9.57915 4.3 9.55976Z" fill="#717681"/>
<path d="M10 10.5443C9.64102 10.5443 9.35 10.8353 9.35 11.1943C9.35 11.5533 9.64102 11.8443 10 11.8443H11.35V16.1042C11.35 16.4632 11.641 16.7542 12 16.7542C12.359 16.7542 12.65 16.4632 12.65 16.1042L12.65 11.8443H14C14.359 11.8443 14.65 11.5533 14.65 11.1943C14.65 10.8353 14.359 10.5443 14 10.5443H10Z" fill="#717681"/>
</svg>
