<svg width="24" height="24" viewBox="0 0 24 24" fill="none" xmlns="http://www.w3.org/2000/svg">
<path d="M2.99998 8C2.99998 6.34315 4.34313 5 5.99998 5H18C19.6568 5 21 6.34315 21 8V8.27051H2.99998V8Z" fill="#717681"/>
<path d="M14.09 12.4863V14.4679H15.2191C15.7663 14.4679 16.2099 14.0243 16.2099 13.4771C16.2099 12.9299 15.7663 12.4863 15.2191 12.4863H14.09Z" fill="#717681"/>
<path fill-rule="evenodd" clip-rule="evenodd" d="M2.99998 9.57051H21V16C21 17.6569 19.6568 19 18 19H5.99999C4.34313 19 2.99998 17.6569 2.99998 16V9.57051ZM7.14004 11.1863C6.78105 11.1863 6.49004 11.4773 6.49004 11.8363C6.49004 12.1953 6.78105 12.4863 7.14004 12.4863H8.49004V16.7462C8.49004 17.1052 8.78105 17.3962 9.14004 17.3962C9.49902 17.3962 9.79004 17.1052 9.79004 16.7462L9.79004 12.4863H11.14C11.499 12.4863 11.79 12.1953 11.79 11.8363C11.79 11.4773 11.499 11.1863 11.14 11.1863H7.14004ZM13.44 11.1863H15.2191C16.4843 11.1863 17.5099 12.2119 17.5099 13.4771C17.5099 14.7423 16.4843 15.7679 15.2191 15.7679H14.09V16.7461C14.09 17.1051 13.799 17.3961 13.44 17.3961C13.081 17.3961 12.79 17.1051 12.79 16.7461V11.8363C12.79 11.4773 13.081 11.1863 13.44 11.1863Z" fill="#717681"/>
</svg>
