<svg width="24" height="24" viewBox="0 0 24 24" fill="none" xmlns="http://www.w3.org/2000/svg">
<path d="M3 8C3 6.34315 4.34315 5 6 5H18C19.6569 5 21 6.34315 21 8V8.27051H3V8Z" fill="#626F84"/>
<path d="M14.09 12.4863V14.4679H15.2191C15.7663 14.4679 16.21 14.0243 16.21 13.4771C16.21 12.9299 15.7663 12.4863 15.2191 12.4863H14.09Z" fill="#626F84"/>
<path fill-rule="evenodd" clip-rule="evenodd" d="M3 9.57051H21V16C21 17.6569 19.6569 19 18 19H6C4.34315 19 3 17.6569 3 16V9.57051ZM7.14005 11.1863C6.78107 11.1863 6.49005 11.4773 6.49005 11.8363C6.49005 12.1953 6.78107 12.4863 7.14005 12.4863H8.49005V16.7462C8.49005 17.1052 8.78107 17.3962 9.14005 17.3962C9.49904 17.3962 9.79005 17.1052 9.79005 16.7462L9.79005 12.4863H11.1401C11.499 12.4863 11.7901 12.1953 11.7901 11.8363C11.7901 11.4773 11.499 11.1863 11.1401 11.1863H7.14005ZM13.44 11.1863H15.2191C16.4843 11.1863 17.51 12.2119 17.51 13.4771C17.51 14.7423 16.4843 15.7679 15.2191 15.7679H14.09V16.7461C14.09 17.1051 13.799 17.3961 13.44 17.3961C13.0811 17.3961 12.79 17.1051 12.79 16.7461V11.8363C12.79 11.4773 13.0811 11.1863 13.44 11.1863Z" fill="#626F84"/>
</svg>
