<svg width="24" height="24" viewBox="0 0 24 24" fill="none" xmlns="http://www.w3.org/2000/svg">
<path d="M7.14005 10.5442C6.78107 10.5442 6.49005 10.8352 6.49005 11.1942C6.49005 11.5532 6.78107 11.8442 7.14005 11.8442H8.49005V16.1042C8.49005 16.4631 8.78107 16.7542 9.14005 16.7542C9.49904 16.7542 9.79005 16.4631 9.79005 16.1042L9.79005 11.8442H11.1401C11.499 11.8442 11.7901 11.5532 11.7901 11.1942C11.7901 10.8352 11.499 10.5442 11.1401 10.5442H7.14005Z" fill="#626F84"/>
<path fill-rule="evenodd" clip-rule="evenodd" d="M13.44 10.5442H15.2191C16.4843 10.5442 17.51 11.5698 17.51 12.835C17.51 14.1002 16.4843 15.1258 15.2191 15.1258H14.09V16.104C14.09 16.463 13.799 16.754 13.44 16.754C13.0811 16.754 12.79 16.463 12.79 16.104V11.1942C12.79 10.8352 13.0811 10.5442 13.44 10.5442ZM14.09 11.8442V13.8258H15.2191C15.7663 13.8258 16.21 13.3822 16.21 12.835C16.21 12.2878 15.7663 11.8442 15.2191 11.8442H14.09Z" fill="#626F84"/>
<path fill-rule="evenodd" clip-rule="evenodd" d="M6 18.9998C4.34314 18.9998 3 17.6566 3 15.9998V7.99976C3 6.3429 4.34315 4.99976 6 4.99976H18C18.1036 4.99976 18.2059 5.005 18.3067 5.01524C19.8195 5.16887 21 6.44646 21 7.99976V15.9998C21 17.6566 19.6569 18.9998 18 18.9998H6ZM19.7 7.99976C19.7 7.06087 18.9389 6.29976 18 6.29976L6 6.29976C5.06112 6.29976 4.3 7.06087 4.3 7.99976V8.31916C4.36165 8.29976 4.42726 8.28931 4.49531 8.28931H19.7V7.99976ZM4.3 15.9998L4.3 9.55945C4.36165 9.57885 4.42726 9.58931 4.49531 9.58931H19.7V15.9998C19.7 16.9386 18.9389 17.6998 18 17.6998H6C5.06112 17.6998 4.3 16.9386 4.3 15.9998Z" fill="#626F84"/>
</svg>
