<svg width="24" height="24" viewBox="0 0 24 24" fill="none" xmlns="http://www.w3.org/2000/svg">
<path d="M11.4115 12.9394V11.0277H12.838C13.3659 11.0277 13.7939 11.4556 13.7939 11.9835C13.7939 12.5115 13.3659 12.9394 12.838 12.9394H11.4115Z" fill="#626F84"/>
<path fill-rule="evenodd" clip-rule="evenodd" d="M16.9 3H7.1C6.58765 3 6.24889 3.53234 6.46589 3.99647L8.3409 8.00688C7.20519 9.80719 5 13.6187 5 16.0715C5 19.6965 8 21.0715 12 21.0715C16 21.0715 19 19.6965 19 16.0715C19 13.6187 16.7948 9.80719 15.6591 8.00688L17.5341 3.99647C17.7511 3.53234 17.4124 3 16.9 3ZM12.838 14.2394H11.4115V15.1869H13.453C13.812 15.1869 14.103 15.4779 14.103 15.8369C14.103 16.1959 13.812 16.4869 13.453 16.4869H11.4115V17.1223C11.4115 17.4813 11.1204 17.7723 10.7615 17.7723C10.4025 17.7723 10.1115 17.4813 10.1115 17.1223V16.4869H9.55588C9.1969 16.4869 8.90588 16.1959 8.90588 15.8369C8.90588 15.4779 9.1969 15.1869 9.55588 15.1869H10.1115V14.2394H9.56438C9.20539 14.2394 8.91438 13.9484 8.91438 13.5894C8.91438 13.2304 9.20539 12.9394 9.56438 12.9394H10.1115V10.6763C10.1115 10.1477 10.5407 9.72766 11.0615 9.72766H12.838C14.0839 9.72766 15.0939 10.7377 15.0939 11.9835C15.0939 13.2294 14.0839 14.2394 12.838 14.2394Z" fill="#626F84"/>
</svg>
