<svg width="24" height="24" viewBox="0 0 24 24" fill="none" xmlns="http://www.w3.org/2000/svg">
<path fill-rule="evenodd" clip-rule="evenodd" d="M11.0002 4.36639C11.0002 3.6208 11.6047 3.01639 12.3502 3.01639H17.6498C18.3953 3.01639 18.9998 3.6208 18.9998 4.36639V5.6471C18.9998 6.39268 18.3953 6.9971 17.6498 6.9971H15.65V8.71573L16.18 8.71574C17.1412 8.71574 17.959 9.41606 18.1068 10.3657L18.7513 14.5052C19.4911 14.7821 20.0177 15.4955 20.0177 16.332V18.0325C20.0177 19.1095 19.1447 19.9825 18.0677 19.9825H5.9323C4.85535 19.9825 3.9823 19.1095 3.9823 18.0325V16.332C3.9823 15.4956 4.50892 14.7821 5.24869 14.5052L5.89319 10.3657C6.04105 9.41606 6.85884 8.71574 7.81997 8.71574H14.35C14.35 8.71574 14.35 8.71574 14.35 8.71573V6.9971H12.3502C11.6047 6.9971 11.0002 6.39268 11.0002 5.6471V4.36639ZM12.3502 4.31639C12.3226 4.31639 12.3002 4.33877 12.3002 4.36639V5.6471C12.3002 5.67471 12.3226 5.6971 12.3502 5.6971H17.6498C17.6774 5.6971 17.6998 5.67471 17.6998 5.6471V4.36639C17.6998 4.33877 17.6774 4.31639 17.6498 4.31639H12.3502ZM5.9323 15.682H18.0677C18.4267 15.682 18.7177 15.973 18.7177 16.332V18.0325C18.7177 18.3915 18.4267 18.6825 18.0677 18.6825H5.9323C5.57332 18.6825 5.2823 18.3915 5.2823 18.0325V16.332C5.2823 15.973 5.57331 15.682 5.9323 15.682ZM16.8223 10.5657L17.4165 14.382H6.58353L7.17771 10.5657C7.227 10.2492 7.4996 10.0157 7.81997 10.0157H16.18C16.5004 10.0157 16.773 10.2492 16.8223 10.5657ZM8.84629 11.2978C8.48731 11.2978 8.1963 11.5888 8.1963 11.9478C8.1963 12.3068 8.48731 12.5978 8.84629 12.5978H11.9612C12.3201 12.5978 12.6112 12.3068 12.6112 11.9478C12.6112 11.5888 12.3201 11.2978 11.9612 11.2978H8.84629Z" fill="#717681"/>
</svg>
