<svg width="24" height="24" viewBox="0 0 24 24" fill="none" xmlns="http://www.w3.org/2000/svg">
<path fill-rule="evenodd" clip-rule="evenodd" d="M10.9994 4.3448C10.9994 3.62683 11.5814 3.0448 12.2994 3.0448H17.7007C18.4187 3.0448 19.0007 3.62683 19.0007 4.3448V5.6655C19.0007 6.38347 18.4187 6.9655 17.7007 6.9655H15.65V8.63524H16.8875C17.5279 8.63524 18.0729 9.10169 18.1719 9.73445L18.7654 13.5312C18.8887 14.3196 18.279 15.032 17.481 15.032H6.51904C5.72101 15.032 5.11138 14.3196 5.23464 13.5312L5.82818 9.73445C5.9271 9.10169 6.47213 8.63524 7.11258 8.63524H14.35V6.9655H12.2994C11.5814 6.9655 10.9994 6.38347 10.9994 5.6655V4.3448ZM7.01947 11.6561C7.01947 11.2971 7.31049 11.0061 7.66947 11.0061H10.7843C11.1433 11.0061 11.4343 11.2971 11.4343 11.6561C11.4343 12.0151 11.1433 12.3061 10.7843 12.3061H7.66947C7.31049 12.3061 7.01947 12.0151 7.01947 11.6561ZM5.28718 16.3701C4.56921 16.3701 3.98718 16.9521 3.98718 17.6701V18.7201C3.98718 19.438 4.56921 20.0201 5.28718 20.0201H18.7129C19.4308 20.0201 20.0129 19.438 20.0129 18.7201V17.6701C20.0129 16.9521 19.4308 16.3701 18.7129 16.3701H5.28718Z" fill="#626F84"/>
</svg>
