<svg width="24" height="24" viewBox="0 0 24 24" fill="none" xmlns="http://www.w3.org/2000/svg">
<path d="M11.2984 9.64991V11.2071H13.077C13.507 11.2071 13.8555 10.8585 13.8555 10.4285C13.8555 9.99849 13.507 9.64991 13.077 9.64991H11.2984Z" fill="#626F84"/>
<path fill-rule="evenodd" clip-rule="evenodd" d="M12.65 6.32722L12.65 3.64054C12.65 3.28155 12.359 2.99054 12 2.99054C11.6411 2.99054 11.35 3.28155 11.35 3.64054V6.32715C10.7501 6.3951 10.1784 6.55604 9.64955 6.7952V4.64562C9.64955 4.28663 9.35853 3.99562 8.99955 3.99562C8.64056 3.99562 8.34955 4.28663 8.34955 4.64562L8.34955 7.60967C8.08277 7.83172 7.83654 8.07763 7.61416 8.34413H4.65194C4.29296 8.34413 4.00194 8.63514 4.00194 8.99413C4.00194 9.35311 4.29296 9.64413 4.65194 9.64413H6.79755C6.55703 10.1744 6.39521 10.748 6.327 11.3499H3.65256C3.29358 11.3499 3.00256 11.641 3.00256 11.9999C3.00256 12.3589 3.29358 12.6499 3.65256 12.6499H6.327C6.39498 13.2497 6.55589 13.8213 6.79498 14.35H4.64451C4.28553 14.35 3.99451 14.641 3.99451 15C3.99451 15.359 4.28553 15.65 4.64451 15.65H7.60943C7.83428 15.9202 8.08359 16.1692 8.35397 16.3938V19.3653C8.35397 19.7243 8.64498 20.0153 9.00397 20.0153C9.36295 20.0153 9.65397 19.7243 9.65397 19.3653V17.2066C10.1815 17.4447 10.7518 17.6049 11.3501 17.6727V20.3476C11.3501 20.7066 11.6411 20.9976 12.0001 20.9976C12.359 20.9976 12.6501 20.7066 12.6501 20.3476L12.6501 17.6726C13.2485 17.6047 13.8188 17.4444 14.3465 17.2062V19.3515C14.3465 19.7104 14.6375 20.0015 14.9965 20.0015C15.3554 20.0015 15.6465 19.7104 15.6465 19.3515V16.393C15.9165 16.1686 16.1655 15.9198 16.3901 15.65L19.3566 15.65C19.7156 15.65 20.0066 15.359 20.0066 15C20.0066 14.641 19.7156 14.35 19.3566 14.35H17.2045C17.4436 13.8213 17.6045 13.2497 17.6724 12.65H20.3797C20.7386 12.65 21.0297 12.359 21.0297 12C21.0297 11.641 20.7386 11.35 20.3797 11.35L17.6725 11.35C17.6042 10.748 17.4424 10.1743 17.2018 9.644H19.3666C19.7256 9.644 20.0166 9.35299 20.0166 8.994C20.0166 8.63502 19.7256 8.344 19.3666 8.344L16.3852 8.344C16.1618 8.07635 15.9144 7.82945 15.6463 7.60664C15.6463 7.60262 15.6464 7.59859 15.6464 7.59455L15.6464 4.64557C15.6464 4.28659 15.3554 3.99557 14.9964 3.99557C14.6374 3.99557 14.3464 4.28659 14.3464 4.64557V6.7936C13.8187 6.55541 13.2484 6.39506 12.65 6.32722ZM11.2984 12.5071H13.077C14.2249 12.5071 15.1555 11.5764 15.1555 10.4285C15.1555 9.28052 14.2249 8.34991 13.077 8.34991H10.9484C10.4271 8.34991 9.99839 8.77067 9.99839 9.29872V11.2071H9.58348C9.2245 11.2071 8.93348 11.4981 8.93348 11.8571C8.93348 12.216 9.2245 12.5071 9.58348 12.5071H9.99839V13.2064H9.57499C9.216 13.2064 8.92499 13.4974 8.92499 13.8564C8.92499 14.2154 9.216 14.5064 9.57499 14.5064H9.99839V14.9999C9.99839 15.3589 10.2894 15.6499 10.6484 15.6499C11.0074 15.6499 11.2984 15.3589 11.2984 14.9999V14.5064H13.0419C13.4008 14.5064 13.6919 14.2154 13.6919 13.8564C13.6919 13.4974 13.4008 13.2064 13.0419 13.2064H11.2984V12.5071Z" fill="#626F84"/>
</svg>
