<svg width="24" height="24" viewBox="0 0 24 24" fill="none" xmlns="http://www.w3.org/2000/svg">
<path fill-rule="evenodd" clip-rule="evenodd" d="M11.5839 12.5364H12.8643C13.8504 12.5364 14.6498 11.737 14.6498 10.7509C14.6498 9.76479 13.8504 8.96539 12.8643 8.96539H11.2339C10.7097 8.96539 10.2839 9.39012 10.2839 9.91524V11.2364H9.86425C9.50527 11.2364 9.21426 11.5274 9.21426 11.8864C9.21426 12.2454 9.50527 12.5364 9.86425 12.5364H10.2839V13.1401H9.85062C9.49164 13.1401 9.20062 13.4311 9.20062 13.7901C9.20062 14.1491 9.49164 14.4401 9.85062 14.4401H10.2839V14.7566C10.2839 15.1156 10.5749 15.4066 10.9339 15.4066C11.2929 15.4066 11.5839 15.1156 11.5839 14.7566V14.4401H12.8364C13.1954 14.4401 13.4864 14.1491 13.4864 13.7901C13.4864 13.4311 13.1954 13.1401 12.8364 13.1401H11.5839V12.5364ZM11.5839 10.2654V11.2364H12.8643C13.1324 11.2364 13.3498 11.019 13.3498 10.7509C13.3498 10.4828 13.1324 10.2654 12.8643 10.2654H11.5839Z" fill="#626F84"/>
<path fill-rule="evenodd" clip-rule="evenodd" d="M12.65 6.32722L12.65 3.64054C12.65 3.28155 12.359 2.99054 12 2.99054C11.6411 2.99054 11.35 3.28155 11.35 3.64054V6.32715C10.7501 6.3951 10.1784 6.55604 9.64955 6.7952V4.64562C9.64955 4.28663 9.35853 3.99562 8.99955 3.99562C8.64056 3.99562 8.34955 4.28663 8.34955 4.64562L8.34955 7.60967C8.08277 7.83172 7.83654 8.07763 7.61416 8.34413H4.65194C4.29296 8.34413 4.00194 8.63514 4.00194 8.99413C4.00194 9.35311 4.29296 9.64413 4.65194 9.64413H6.79755C6.55703 10.1744 6.39521 10.748 6.327 11.3499H3.65256C3.29358 11.3499 3.00256 11.641 3.00256 11.9999C3.00256 12.3589 3.29358 12.6499 3.65256 12.6499H6.327C6.39498 13.2497 6.55589 13.8213 6.79498 14.35H4.64451C4.28553 14.35 3.99451 14.641 3.99451 15C3.99451 15.359 4.28553 15.65 4.64451 15.65H7.60943C7.83428 15.9202 8.08359 16.1692 8.35397 16.3938V19.3653C8.35397 19.7243 8.64498 20.0153 9.00397 20.0153C9.36295 20.0153 9.65397 19.7243 9.65397 19.3653V17.2066C10.1815 17.4447 10.7518 17.6049 11.3501 17.6727V20.3476C11.3501 20.7066 11.6411 20.9976 12.0001 20.9976C12.359 20.9976 12.6501 20.7066 12.6501 20.3476L12.6501 17.6726C13.2485 17.6047 13.8188 17.4444 14.3465 17.2062V19.3515C14.3465 19.7104 14.6375 20.0015 14.9965 20.0015C15.3554 20.0015 15.6465 19.7104 15.6465 19.3515V16.393C15.9165 16.1686 16.1655 15.9198 16.3901 15.65L19.3566 15.65C19.7156 15.65 20.0066 15.359 20.0066 15C20.0066 14.641 19.7156 14.35 19.3566 14.35H17.2045C17.4436 13.8213 17.6045 13.2497 17.6724 12.65H20.3797C20.7386 12.65 21.0297 12.359 21.0297 12C21.0297 11.641 20.7386 11.35 20.3797 11.35L17.6725 11.35C17.6042 10.748 17.4424 10.1743 17.2018 9.644H19.3666C19.7256 9.644 20.0166 9.35299 20.0166 8.994C20.0166 8.63502 19.7256 8.344 19.3666 8.344L16.3852 8.344C16.1618 8.07635 15.9144 7.82945 15.6463 7.60664C15.6463 7.60262 15.6464 7.59859 15.6464 7.59455L15.6464 4.64557C15.6464 4.28659 15.3554 3.99557 14.9964 3.99557C14.6374 3.99557 14.3464 4.28659 14.3464 4.64557V6.7936C13.8187 6.55541 13.2484 6.39506 12.65 6.32722ZM11.9997 16.4092C14.4349 16.4092 16.409 14.4351 16.409 11.9999C16.409 9.56471 14.4349 7.59059 11.9997 7.59059C9.56453 7.59059 7.59041 9.56471 7.59041 11.9999C7.59041 14.4351 9.56453 16.4092 11.9997 16.4092Z" fill="#626F84"/>
</svg>
