<svg width="24" height="24" viewBox="0 0 24 24" fill="none" xmlns="http://www.w3.org/2000/svg">
<path d="M5.50015 19.3499C5.50015 19.7089 5.79117 19.9999 6.15015 19.9999C6.50914 19.9999 6.80015 19.7089 6.80015 19.3499L6.80015 12.4997C6.80015 12.1407 6.50914 11.8497 6.15015 11.8497C5.79117 11.8497 5.50015 12.1407 5.50015 12.4997L5.50015 19.3499Z" fill="#717681"/>
<path d="M13.3002 19.3499C13.3002 19.7089 13.5912 19.9999 13.9502 19.9999C14.3092 19.9999 14.6002 19.7089 14.6002 19.3499L14.6002 4.64991C14.6002 4.29092 14.3092 3.99991 13.9502 3.99991C13.5912 3.99991 13.3002 4.29092 13.3002 4.64991L13.3002 19.3499Z" fill="#717681"/>
<path d="M10.0501 17.0215C9.69107 17.0215 9.40006 16.7304 9.40006 16.3715L9.40005 7.62834C9.40005 7.26936 9.69107 6.97835 10.0501 6.97835C10.409 6.97835 10.7001 7.26936 10.7001 7.62834V16.3715C10.7001 16.7304 10.409 17.0215 10.0501 17.0215Z" fill="#717681"/>
<path d="M17.2001 16.3715C17.2001 16.7304 17.4911 17.0215 17.8501 17.0215C18.2091 17.0215 18.5001 16.7304 18.5001 16.3715V7.62834C18.5001 7.26936 18.2091 6.97834 17.8501 6.97834C17.4911 6.97834 17.2001 7.26936 17.2001 7.62834V16.3715Z" fill="#717681"/>
</svg>
