<svg width="24" height="24" viewBox="0 0 24 24" fill="none" xmlns="http://www.w3.org/2000/svg">
<path d="M5.50012 19.3499C5.50012 19.7089 5.79114 19.9999 6.15012 19.9999C6.50911 19.9999 6.80012 19.7089 6.80012 19.3499L6.80012 12.4997C6.80012 12.1407 6.50911 11.8497 6.15012 11.8497C5.79114 11.8497 5.50012 12.1407 5.50012 12.4997L5.50012 19.3499Z" fill="#626F84"/>
<path d="M13.3002 19.3499C13.3002 19.7089 13.5912 19.9999 13.9502 19.9999C14.3092 19.9999 14.6002 19.7089 14.6002 19.3499L14.6002 4.64988C14.6002 4.29089 14.3092 3.99988 13.9502 3.99988C13.5912 3.99988 13.3002 4.29089 13.3002 4.64988L13.3002 19.3499Z" fill="#626F84"/>
<path d="M10.05 17.0214C9.69104 17.0214 9.40002 16.7304 9.40002 16.3714L9.40002 7.62831C9.40002 7.26933 9.69104 6.97831 10.05 6.97831C10.409 6.97831 10.7 7.26933 10.7 7.62831V16.3714C10.7 16.7304 10.409 17.0214 10.05 17.0214Z" fill="#626F84"/>
<path d="M17.2001 16.3714C17.2001 16.7304 17.4911 17.0214 17.8501 17.0214C18.2091 17.0214 18.5001 16.7304 18.5001 16.3714V7.62831C18.5001 7.26933 18.2091 6.97831 17.8501 6.97831C17.4911 6.97831 17.2001 7.26933 17.2001 7.62831V16.3714Z" fill="#626F84"/>
</svg>
