<svg width="24" height="24" viewBox="0 0 24 24" fill="none" xmlns="http://www.w3.org/2000/svg">
<path fill-rule="evenodd" clip-rule="evenodd" d="M5.00024 5.00504C3.34334 5.00504 2.00018 6.34825 2.00024 8.00515L2.00055 15.9952C2.00062 17.652 3.34375 18.995 5.00056 18.995H19C20.6569 18.995 22.0001 17.6518 22 15.9949L21.9997 8.00492C21.9996 6.34811 20.6565 5.00504 18.9997 5.00504H5.00024ZM5.99933 12.9541V15.3746C5.99933 15.7336 6.29035 16.0246 6.64933 16.0246C7.00832 16.0246 7.29933 15.7336 7.29933 15.3746V13.5949H9.21085C10.7626 13.5949 12.0206 12.3369 12.0206 10.7851C12.0206 9.23336 10.7626 7.9754 9.21087 7.97539L7.34934 7.97537C6.60375 7.97537 5.99933 8.57978 5.99933 9.32537V12.9356L5.99927 12.9449L5.99933 12.9541ZM7.29933 12.2949V9.32537C7.29933 9.29776 7.32172 9.27537 7.34933 9.27537L9.21086 9.27539C10.0447 9.27539 10.7206 9.95133 10.7206 10.7851C10.7206 11.6189 10.0447 12.2949 9.21085 12.2949H7.29933ZM18.0008 11.6433V8.62543C18.0008 8.26645 17.7098 7.97543 17.3508 7.97543C16.9918 7.97543 16.7008 8.26645 16.7008 8.62543V11.0025L15.4976 11.0025C14.1108 11.0025 12.9866 12.1268 12.9866 13.5136C12.9866 14.9004 14.1108 16.0247 15.4976 16.0247L16.6508 16.0247C17.3964 16.0247 18.0008 15.4203 18.0008 14.6747L18.0008 11.6618L18.0009 11.6525L18.0008 11.6433ZM16.7008 12.3025V14.6747C16.7008 14.7023 16.6784 14.7247 16.6508 14.7247L15.4976 14.7247C14.8288 14.7247 14.2866 14.1825 14.2866 13.5136C14.2866 12.8447 14.8288 12.3025 15.4976 12.3025H16.7008Z" fill="#626F84"/>
</svg>
