<svg width="24" height="24" viewBox="0 0 24 24" fill="none" xmlns="http://www.w3.org/2000/svg">
<path d="M11.5083 8.41638C11.7599 8.16027 12.1714 8.15659 12.4275 8.40814L14.6509 10.592C14.907 10.8436 14.9107 11.2551 14.6591 11.5112C14.4076 11.7673 13.996 11.771 13.7399 11.5195L12.6608 10.4595V15.3635C12.6608 15.7225 12.3698 16.0135 12.0108 16.0135C11.6518 16.0135 11.3608 15.7225 11.3608 15.3635V10.4218L10.2519 11.5507C10.0003 11.8068 9.58881 11.8105 9.3327 11.5589C9.0766 11.3074 9.07291 10.8958 9.32447 10.6397L11.5083 8.41638Z" fill="#626F84"/>
<path fill-rule="evenodd" clip-rule="evenodd" d="M21 7C21 5.34315 19.6569 4 18 4H6C4.34315 4 3 5.34315 3 7V17C3 18.6569 4.34315 20 6 20H18C19.6569 20 21 18.6569 21 17V14.9652C21.5733 14.8298 22 14.3147 22 13.7V10.3C22 9.68528 21.5733 9.17022 21 9.03479V7ZM4.3 7C4.3 6.06112 5.06112 5.3 6 5.3H18C18.9389 5.3 19.7 6.06112 19.7 7V9H19C17.3431 9 16 10.3431 16 12C16 13.6569 17.3431 15 19 15H19.7V17C19.7 17.9389 18.9389 18.7 18 18.7H6C5.06112 18.7 4.3 17.9389 4.3 17V7ZM20.7 13.7H19C18.0611 13.7 17.3 12.9389 17.3 12C17.3 11.0611 18.0611 10.3 19 10.3H20.7V13.7Z" fill="#626F84"/>
</svg>
