<svg width="24" height="24" viewBox="0 0 24 24" fill="none" xmlns="http://www.w3.org/2000/svg">
<path fill-rule="evenodd" clip-rule="evenodd" d="M3 7C3 5.34315 4.34315 4 6 4H18C19.6569 4 21 5.34315 21 7V8.3C21 8.6866 20.6866 9 20.3 9H19C17.3431 9 16 10.3431 16 12C16 13.6569 17.3431 15 19 15H20.3C20.6866 15 21 15.3134 21 15.7V17C21 18.6569 19.6569 20 18 20H6C4.34315 20 3 18.6569 3 17V7ZM11.5165 8.41636C11.7681 8.16025 12.1796 8.15657 12.4357 8.40812L14.6591 10.592C14.9152 10.8436 14.9189 11.2551 14.6673 11.5112C14.4158 11.7673 14.0042 11.771 13.7481 11.5194L12.6693 10.4598V15.3635C12.6693 15.7225 12.3783 16.0135 12.0193 16.0135C11.6603 16.0135 11.3693 15.7225 11.3693 15.3635V10.4214L10.2601 11.5507C10.0085 11.8068 9.59697 11.8105 9.34086 11.5589C9.08476 11.3074 9.08107 10.8958 9.33263 10.6397L11.5165 8.41636Z" fill="#626F84"/>
<path d="M19.0371 10.2729C18.0897 10.2729 17.3216 11.0409 17.3216 11.9883C17.3216 12.9358 18.0897 13.7038 19.0371 13.7038H21.3C21.6866 13.7038 22 13.3904 22 13.0038V10.9729C22 10.5863 21.6866 10.2729 21.3 10.2729H19.0371Z" fill="#626F84"/>
</svg>
