<svg width="24" height="24" viewBox="0 0 24 24" fill="none" xmlns="http://www.w3.org/2000/svg">
<path d="M12.3249 11.3972C12.3249 11.0382 12.6159 10.7472 12.9749 10.7472H16.2835C16.6425 10.7472 16.9335 11.0382 16.9335 11.3972V15.8683C16.9335 16.2273 16.6425 16.5183 16.2835 16.5183C15.9245 16.5183 15.6335 16.2273 15.6335 15.8683V12.0472H13.6249V15.8683C13.6249 16.2273 13.3339 16.5183 12.9749 16.5183C12.6159 16.5183 12.3249 16.2273 12.3249 15.8683V11.3972Z" fill="#626F84"/>
<path d="M8.71193 12.0611C8.505 12.0611 8.3044 12.1325 8.144 12.2632L8.12717 12.2769C7.84892 12.5038 7.43948 12.4621 7.21267 12.1838C6.98585 11.9056 7.02755 11.4961 7.3058 11.2693L7.32262 11.2556C7.715 10.9357 8.20571 10.7611 8.71193 10.7611H9.17018C10.1315 10.7611 10.9108 11.5404 10.9108 12.5017C10.9108 12.8891 10.7843 13.2469 10.5703 13.536C10.8552 13.8529 11.0285 14.2721 11.0285 14.7318C11.0285 15.7201 10.2274 16.5213 9.23907 16.5213H8.75751C8.23524 16.5213 7.72892 16.3413 7.32387 16.0116L7.30616 15.9971C7.02774 15.7705 6.98576 15.3611 7.21238 15.0827C7.439 14.8043 7.84841 14.7623 8.12682 14.9889L8.14453 15.0033C8.31772 15.1443 8.5342 15.2213 8.75751 15.2213H9.23907C9.50939 15.2213 9.72852 15.0021 9.72852 14.7318C9.72852 14.4615 9.50938 14.2424 9.23907 14.2424H9.14737L9.13929 14.2423H9.0841C8.72511 14.2423 8.4341 13.9513 8.4341 13.5923C8.4341 13.2334 8.72511 12.9423 9.0841 12.9423H9.17018C9.41353 12.9423 9.6108 12.7451 9.61081 12.5017C9.61081 12.2584 9.41353 12.0611 9.17018 12.0611H8.71193Z" fill="#626F84"/>
<path fill-rule="evenodd" clip-rule="evenodd" d="M3 16C3 17.6569 4.34314 19 6 19H18C19.6569 19 21 17.6569 21 16V8C21 6.4467 19.8195 5.16912 18.3067 5.01549C18.2059 5.00525 18.1036 5 18 5H6C4.34315 5 3 6.34315 3 8V16ZM18 6.3C18.9389 6.3 19.7 7.06112 19.7 8V8.28955H4.49531C4.42726 8.28955 4.36165 8.30001 4.3 8.31941V8C4.3 7.06112 5.06112 6.3 6 6.3L18 6.3ZM4.3 9.5597L4.3 16C4.3 16.9389 5.06112 17.7 6 17.7H18C18.9389 17.7 19.7 16.9389 19.7 16V9.58955H4.49531C4.42726 9.58955 4.36165 9.57909 4.3 9.5597Z" fill="#626F84"/>
</svg>
