<svg width="24" height="24" viewBox="0 0 24 24" fill="none" xmlns="http://www.w3.org/2000/svg">
<path fill-rule="evenodd" clip-rule="evenodd" d="M5.00019 5.005C3.34329 5.005 2.00013 6.34822 2.00019 8.00512L2.0005 15.9951C2.00057 17.6519 3.34369 18.995 5.0005 18.995H19C20.6569 18.995 22 17.6518 22 15.9949L21.9997 8.00489C21.9996 6.34808 20.6565 5.005 18.9996 5.005H5.00019ZM6.05006 15.3746V12.9541L6.05 12.9448L6.05006 12.9356V9.32534C6.05006 8.57975 6.65448 7.97534 7.40007 7.97534L9.2616 7.97536C10.8134 7.97537 12.0713 9.23333 12.0713 10.7851C12.0713 12.3369 10.8134 13.5948 9.26158 13.5948H7.35006V15.3746C7.35006 15.7336 7.05905 16.0246 6.70006 16.0246C6.34108 16.0246 6.05006 15.7336 6.05006 15.3746ZM7.35006 9.32534V12.2948H9.26158C10.0954 12.2948 10.7713 11.6189 10.7713 10.7851C10.7713 9.9513 10.0954 9.27536 9.26159 9.27535L7.40006 9.27534C7.37245 9.27534 7.35006 9.29773 7.35006 9.32534ZM16.3202 8.75653C16.3202 8.39755 16.0292 8.10653 15.6702 8.10653C15.3112 8.10653 15.0202 8.39755 15.0202 8.75653V10.0005H14.0346C13.6756 10.0005 13.3846 10.2915 13.3846 10.6505C13.3846 11.0094 13.6756 11.3005 14.0346 11.3005H15.0202V14.0895C15.0202 15.1664 15.8933 16.0395 16.9702 16.0395H17.9928C18.3518 16.0395 18.6428 15.7485 18.6428 15.3895C18.6428 15.0305 18.3518 14.7395 17.9928 14.7395H16.9702C16.6112 14.7395 16.3202 14.4485 16.3202 14.0895V11.3005L17.3826 11.3005C17.7416 11.3005 18.0326 11.0094 18.0326 10.6505C18.0326 10.2915 17.7416 10.0005 17.3826 10.0005H16.3202V8.75653Z" fill="#717681"/>
</svg>
