<svg width="24" height="24" viewBox="0 0 24 24" fill="none" xmlns="http://www.w3.org/2000/svg">
<path fill-rule="evenodd" clip-rule="evenodd" d="M5.00024 5.00504C3.34334 5.00504 2.00018 6.34825 2.00024 8.00515L2.00055 15.9952C2.00062 17.652 3.34375 18.995 5.00056 18.995H19C20.6569 18.995 22.0001 17.6518 22 15.9949L21.9997 8.00492C21.9996 6.34811 20.6565 5.00504 18.9997 5.00504H5.00024ZM6.05011 15.3746V12.9541L6.05005 12.9449L6.05011 12.9356V9.32537C6.05011 8.57978 6.65453 7.97537 7.40012 7.97537L9.26165 7.97539C10.8134 7.9754 12.0714 9.23336 12.0714 10.7851C12.0714 12.3369 10.8134 13.5949 9.26163 13.5949H7.35011V15.3746C7.35011 15.7336 7.0591 16.0246 6.70011 16.0246C6.34113 16.0246 6.05011 15.7336 6.05011 15.3746ZM7.35011 9.32537V12.2949H9.26163C10.0954 12.2949 10.7714 11.6189 10.7714 10.7851C10.7714 9.95133 10.0954 9.27539 9.26164 9.27539L7.40011 9.27537C7.3725 9.27537 7.35011 9.29776 7.35011 9.32537ZM16.3203 8.75656C16.3203 8.39758 16.0293 8.10656 15.6703 8.10656C15.3113 8.10656 15.0203 8.39758 15.0203 8.75656V10.0005H14.0346C13.6757 10.0005 13.3846 10.2915 13.3846 10.6505C13.3846 11.0095 13.6757 11.3005 14.0346 11.3005H15.0203V14.0895C15.0203 15.1665 15.8933 16.0395 16.9703 16.0395H17.9928C18.3518 16.0395 18.6428 15.7485 18.6428 15.3895C18.6428 15.0305 18.3518 14.7395 17.9928 14.7395H16.9703C16.6113 14.7395 16.3203 14.4485 16.3203 14.0895V11.3005L17.3827 11.3005C17.7417 11.3005 18.0327 11.0095 18.0327 10.6505C18.0327 10.2915 17.7417 10.0005 17.3827 10.0005H16.3203V8.75656Z" fill="#626F84"/>
</svg>
