<svg width="24" height="24" viewBox="0 0 24 24" fill="none" xmlns="http://www.w3.org/2000/svg">
<path d="M9.51319 12.7029L8.49334 10.3044L7.47857 12.7029H9.51319Z" fill="#626F84"/>
<path d="M15.7063 10.1776C15.201 10.1776 14.7913 10.5873 14.7913 11.0917C14.7913 11.5783 15.1724 11.9767 15.6529 12.0044H15.7597C16.2402 11.9767 16.6213 11.5783 16.6213 11.0917C16.6213 10.5873 16.2116 10.1776 15.7063 10.1776Z" fill="#626F84"/>
<path fill-rule="evenodd" clip-rule="evenodd" d="M5.00024 5.005C3.34334 5.005 2.00018 6.34822 2.00024 8.00512L2.00055 15.9951C2.00062 17.6519 3.34375 18.995 5.00056 18.995H19C20.6569 18.995 22.0001 17.6518 22 15.9949L21.9997 8.00489C21.9996 6.34808 20.6565 5.005 18.9997 5.005H5.00024ZM9.09002 8.38535C8.98793 8.14524 8.75217 7.98945 8.49126 7.98969C8.23036 7.98992 7.99488 8.14614 7.89322 8.38642L5.05374 15.098C4.91386 15.4286 5.06849 15.81 5.3991 15.9499C5.72971 16.0897 6.11112 15.9351 6.25099 15.6045L6.92858 14.0029H10.0659L10.7474 15.6056C10.8878 15.9359 11.2695 16.0899 11.5999 15.9494C11.9303 15.8089 12.0842 15.4273 11.9437 15.0969L9.09002 8.38535ZM16.1981 13.2511C17.1842 13.0275 17.9213 12.1459 17.9213 11.0917C17.9213 10.7641 17.8501 10.4531 17.7223 10.1734H18.379C18.738 10.1734 19.029 9.88236 19.029 9.52338C19.029 9.16439 18.738 8.87338 18.379 8.87338H15.7493C15.7234 8.87338 15.6979 8.87489 15.6728 8.87783C14.4658 8.89575 13.4913 9.87964 13.4913 11.0917C13.4913 11.5558 13.6342 11.9865 13.8783 12.3423C13.342 12.7017 12.9889 13.3133 12.9889 14.0074C12.9889 15.1136 13.8857 16.0104 14.9919 16.0104H18.357C18.7159 16.0104 19.007 15.7194 19.007 15.3604C19.007 15.0014 18.7159 14.7104 18.357 14.7104H14.9919C14.6037 14.7104 14.2889 14.3957 14.2889 14.0074C14.2889 13.6191 14.6037 13.3044 14.9919 13.3044H15.6232C15.6508 13.3054 15.6785 13.3059 15.7063 13.3059C15.7341 13.3059 15.7618 13.3054 15.7894 13.3044H15.9399C16.0317 13.3044 16.1189 13.2854 16.1981 13.2511Z" fill="#626F84"/>
</svg>
