<svg width="24" height="24" viewBox="0 0 24 24" fill="none" xmlns="http://www.w3.org/2000/svg">
<path d="M7.77652 14.9461L6.24833 16.7094C6.01323 16.9807 5.60272 17.01 5.33143 16.7749C5.06015 16.5398 5.03082 16.1293 5.26592 15.858L7.05562 13.7929C7.10055 13.7411 7.1519 13.6981 7.20746 13.664C7.43992 13.4429 7.80533 13.4233 8.07965 13.6047C9.19472 14.3422 10.5314 14.7716 11.9684 14.7716C13.468 14.7716 14.8585 14.3039 16.0018 13.5065C16.2938 13.3027 16.6984 13.3322 16.9312 13.6017C16.9496 13.6229 16.9663 13.645 16.9815 13.6678L18.7339 15.6899C18.969 15.9612 18.9397 16.3717 18.6684 16.6068C18.3971 16.8419 17.9866 16.8126 17.7515 16.5413L16.2981 14.8642C15.218 15.5196 13.9775 15.9372 12.6494 16.0443C12.6498 16.0526 12.6499 16.0609 12.6499 16.0693V17.9457C12.6499 18.3046 12.3589 18.5957 11.9999 18.5957C11.6409 18.5957 11.3499 18.3046 11.3499 17.9457V16.0693C11.3499 16.0625 11.35 16.0558 11.3502 16.0491C10.0546 15.9544 8.84107 15.5644 7.77652 14.9461Z" fill="#626F84"/>
<path d="M5.41226 18.6507C5.41226 19.3687 4.83023 19.9507 4.11226 19.9507C3.39429 19.9507 2.81226 19.3687 2.81226 18.6507C2.81226 17.9327 3.39429 17.3507 4.11226 17.3507C4.83023 17.3507 5.41226 17.9327 5.41226 18.6507Z" fill="#626F84"/>
<path d="M13.3 20.7C13.3 21.418 12.7179 22 12 22C11.282 22 10.7 21.418 10.7 20.7C10.7 19.9821 11.282 19.4 12 19.4C12.7179 19.4 13.3 19.9821 13.3 20.7Z" fill="#626F84"/>
<path d="M19.888 19.9507C20.6059 19.9507 21.188 19.3687 21.188 18.6507C21.188 17.9327 20.6059 17.3507 19.888 17.3507C19.17 17.3507 18.588 17.9327 18.588 18.6507C18.588 19.3687 19.17 19.9507 19.888 19.9507Z" fill="#626F84"/>
<path d="M11.2986 6.91647V5.35933H13.0771C13.5071 5.35933 13.8557 5.70791 13.8557 6.1379C13.8557 6.56789 13.5071 6.91647 13.0771 6.91647H11.2986Z" fill="#626F84"/>
<path fill-rule="evenodd" clip-rule="evenodd" d="M11.9999 13.4186C15.1531 13.4186 17.7092 10.8625 17.7092 7.70932C17.7092 4.55615 15.1531 2 11.9999 2C8.84674 2 6.29059 4.55615 6.29059 7.70932C6.29059 10.8625 8.84674 13.4186 11.9999 13.4186ZM13.0771 8.21647H11.2986V8.9158L13.042 8.9158C13.401 8.9158 13.692 9.20682 13.692 9.5658C13.692 9.92479 13.401 10.2158 13.042 10.2158H11.2986V10.7093C11.2986 11.0683 11.0076 11.3593 10.6486 11.3593C10.2896 11.3593 9.99857 11.0683 9.99857 10.7093V10.2158H9.57517C9.21619 10.2158 8.92517 9.92479 8.92517 9.5658C8.92517 9.20682 9.21619 8.9158 9.57517 8.9158H9.99857V8.21647H9.58366C9.22468 8.21647 8.93367 7.92545 8.93367 7.56647C8.93367 7.20748 9.22468 6.91647 9.58366 6.91647H9.99857V5.00813C9.99857 4.48008 10.4273 4.05933 10.9486 4.05933H13.0771C14.2251 4.05933 15.1557 4.98993 15.1557 6.1379C15.1557 7.28586 14.2251 8.21647 13.0771 8.21647Z" fill="#626F84"/>
</svg>
