<svg width="24.000000" height="24.000000" viewBox="0 0 24 24" fill="none" xmlns="http://www.w3.org/2000/svg" xmlns:xlink="http://www.w3.org/1999/xlink">
	<desc>
			Created with Pixso.
	</desc>
	<defs>
		<clipPath id="clip17_466">
			<rect id="Solid / Accept Solid" width="24.000000" height="24.000000" fill="white" fill-opacity="0"/>
		</clipPath>
	</defs>
	<g >
		<path id="Shape" d="M11.76 3.01C9.83 3.01 8.4 4.8 8.83 6.67L10.27 13L5.58 13C4.76 13 4.14 13.74 4.3 14.55L4.51 15.6C4.79 17 6.03 18.01 7.46 18.01L16.53 18.01C17.96 18.01 19.2 17 19.48 15.6L19.69 14.55C19.85 13.74 19.23 13 18.41 13L13.84 13L15.21 6.64C15.61 4.77 14.19 3.01 12.28 3.01L11.76 3.01ZM6.42 20.32C6.42 19.96 6.71 19.67 7.07 19.67L16.92 19.67C17.28 19.67 17.57 19.96 17.57 20.32C17.57 20.68 17.28 20.97 16.92 20.97L7.07 20.97C6.71 20.97 6.42 20.68 6.42 20.32Z" fill="#74767B" fill-opacity="1.000000" fill-rule="evenodd"/>
	</g>
</svg>
