<svg width="24.000000" height="24.000000" viewBox="0 0 24 24" fill="none" xmlns="http://www.w3.org/2000/svg" xmlns:xlink="http://www.w3.org/1999/xlink">
	<desc>
			Created with Pixso.
	</desc>
	<defs>
		<clipPath id="clip17_463">
			<rect id="Outline / Accept Outline" width="24.000000" height="24.000000" fill="white" fill-opacity="0"/>
		</clipPath>
	</defs>
	<g>
		<path id="Shape" d="M10.27 13L8.83 6.67C8.4 4.8 9.83 3.01 11.76 3.01L12.28 3.01C14.19 3.01 15.61 4.77 15.21 6.64L13.84 13L18.41 13C19.23 13 19.85 13.74 19.69 14.55L19.48 15.6C19.2 17 17.96 18.01 16.53 18.01L7.46 18.01C6.03 18.01 4.79 17 4.51 15.6L4.3 14.55C4.14 13.74 4.76 13 5.58 13L10.27 13ZM11.76 4.31L12.28 4.31C13.36 4.31 14.17 5.31 13.94 6.37L12.51 13L11.6 13L10.1 6.39C9.86 5.32 10.66 4.31 11.76 4.31ZM18.41 14.3L5.58 14.3L5.79 15.35C5.95 16.14 6.65 16.71 7.46 16.71L16.53 16.71C17.34 16.71 18.04 16.14 18.2 15.35L18.41 14.3ZM6.42 20.32C6.42 19.96 6.71 19.67 7.07 19.67L16.92 19.67C17.28 19.67 17.57 19.96 17.57 20.32C17.57 20.68 17.28 20.97 16.92 20.97L7.07 20.97C6.71 20.97 6.42 20.68 6.42 20.32Z" fill="#717681" fill-opacity="1.000000" fill-rule="evenodd"/>
	</g>
</svg>
