<svg width="24.000000" height="24.000000" viewBox="0 0 24 24" fill="none" xmlns="http://www.w3.org/2000/svg" xmlns:xlink="http://www.w3.org/1999/xlink">
	<desc>
			Created with Pixso.
	</desc>
	<defs>
		<clipPath id="clip17_559">
			<rect id="Outline / Acuring Modern Outline" width="24.000000" height="24.000000" fill="white" fill-opacity="0"/>
		</clipPath>
	</defs>
	<g >
		<path id="Shape" d="M8.5 3.3L15.5 3.3C16.43 3.3 17.18 4.04 17.19 4.97L16.74 16.7L7.25 16.7L6.8 4.97C6.81 4.04 7.56 3.3 8.5 3.3ZM18.04 16.75L18.5 5C18.5 3.34 17.15 2 15.5 2L8.5 2C6.84 2 5.5 3.34 5.5 5L5.95 16.75C5.97 17.4 6.48 17.93 7.12 17.99L7.12 18L7.12 20.29C7.12 21.23 7.88 22 8.82 22L15.17 22C16.11 22 16.87 21.23 16.87 20.29L16.87 18L16.87 17.99C17.51 17.93 18.02 17.4 18.04 16.75ZM8.42 18L9.84 18L9.84 20.7L8.82 20.7C8.6 20.7 8.42 20.52 8.42 20.29L8.42 18ZM11.14 20.7L11.14 18L15.57 18L15.57 20.29C15.57 20.52 15.39 20.7 15.17 20.7L11.14 20.7ZM11.27 12C11.27 11.64 10.98 11.35 10.62 11.35L8.92 11.35C8.56 11.35 8.27 11.64 8.27 12C8.27 12.36 8.56 12.65 8.92 12.65L10.62 12.65C10.98 12.65 11.27 12.36 11.27 12ZM10.62 13.81C10.98 13.81 11.27 14.1 11.27 14.46C11.27 14.82 10.98 15.11 10.62 15.11L8.92 15.11C8.56 15.11 8.27 14.82 8.27 14.46C8.27 14.1 8.56 13.81 8.92 13.81L10.62 13.81ZM15.7 12C15.7 11.64 15.41 11.35 15.05 11.35L13.35 11.35C12.99 11.35 12.7 11.64 12.7 12C12.7 12.36 12.99 12.65 13.35 12.65L15.05 12.65C15.41 12.65 15.7 12.36 15.7 12ZM15.05 13.81C15.41 13.81 15.7 14.1 15.7 14.46C15.7 14.82 15.41 15.11 15.05 15.11L13.35 15.11C12.99 15.11 12.7 14.82 12.7 14.46C12.7 14.1 12.99 13.81 13.35 13.81L15.05 13.81ZM9.38 5.82L14.59 5.82L14.49 8.45L9.47 8.41L9.38 5.82ZM8.08 5.86C8.05 5.13 8.64 4.52 9.38 4.52L14.59 4.52C15.33 4.52 15.92 5.13 15.89 5.87L15.79 8.5C15.77 9.2 15.19 9.76 14.48 9.75L9.46 9.71C8.76 9.7 8.2 9.15 8.17 8.46L8.08 5.86Z" fill="#74767B" fill-opacity="1.000000" fill-rule="evenodd"/>
	</g>
</svg>
