<svg width="24.000000" height="24.000000" viewBox="0 0 24 24" fill="none" xmlns="http://www.w3.org/2000/svg" xmlns:xlink="http://www.w3.org/1999/xlink">
	<desc>
			Created with Pixso.
	</desc>
	<defs>
		<clipPath id="clip17_568">
			<rect id="Solid / Acuring Future Solid" width="24.000000" height="24.000000" fill="white" fill-opacity="0"/>
		</clipPath>
	</defs>
	<g >
		<path id="Shape" d="M15.14 19.7L9.14 19.7C8.2 19.7 7.44 18.93 7.44 18L7.44 15.8L16.84 15.8L16.84 18C16.84 18.93 16.08 19.7 15.14 19.7ZM18.14 15.1L18.14 18C18.14 19.65 16.8 21 15.14 21L9.14 21C7.48 21 6.14 19.65 6.14 18L6.14 6.06C6.14 4.4 7.48 3.06 9.14 3.06L15.14 3.06C16.8 3.06 18.14 4.4 18.14 6.06L18.14 6.75L18.14 15.1ZM12.25 11.42C12.12 11.73 11.74 11.84 11.44 11.69C11.1 11.52 10.99 11.1 11.12 10.75C11.25 10.38 11.32 9.98 11.32 9.56C11.32 9.16 11.25 8.77 11.13 8.41C11 8.05 11.12 7.64 11.46 7.47C11.76 7.32 12.14 7.43 12.27 7.75C12.5 8.31 12.62 8.92 12.62 9.56C12.62 10.22 12.49 10.85 12.25 11.42ZM13.73 12.82C14.04 12.98 14.42 12.86 14.56 12.54C14.96 11.63 15.19 10.62 15.19 9.56C15.19 8.51 14.97 7.52 14.57 6.62C14.43 6.3 14.05 6.18 13.74 6.34C13.41 6.5 13.29 6.91 13.43 7.25C13.72 7.96 13.89 8.74 13.89 9.56C13.89 10.39 13.72 11.19 13.41 11.91C13.27 12.25 13.39 12.66 13.73 12.82ZM9.45 10.23C9.81 10.23 10.11 9.94 10.11 9.58C10.11 9.22 9.81 8.93 9.45 8.93C9.1 8.93 8.81 9.22 8.81 9.58C8.81 9.94 9.1 10.23 9.45 10.23ZM9.05 17.75C9.05 17.39 9.34 17.1 9.7 17.1L14.79 17.1C15.15 17.1 15.44 17.39 15.44 17.75C15.44 18.11 15.15 18.4 14.79 18.4L9.7 18.4C9.34 18.4 9.05 18.11 9.05 17.75Z" fill="#74767B" fill-opacity="1.000000" fill-rule="evenodd"/>
	</g>
</svg>
