<svg width="24" height="24" viewBox="0 0 24 24" fill="none" xmlns="http://www.w3.org/2000/svg">
<path fill-rule="evenodd" clip-rule="evenodd" d="M15.1445 19.7H9.14453C8.20565 19.7 7.44453 18.9389 7.44453 18V15.8031H16.8445V18C16.8445 18.9389 16.0834 19.7 15.1445 19.7ZM18.1445 15.1031V18C18.1445 19.6568 16.8014 21 15.1445 21H9.14453C7.48768 21 6.14453 19.6568 6.14453 18V6.06383C6.14453 4.40697 7.48768 3.06383 9.14453 3.06383H15.1445C16.8014 3.06383 18.1445 4.40697 18.1445 6.06383V6.75573V15.1031ZM12.253 11.4223C12.1216 11.7344 11.7489 11.844 11.4455 11.6936C11.1075 11.5261 10.9919 11.1051 11.12 10.7503C11.2536 10.3804 11.3265 9.98129 11.3265 9.56521C11.3265 9.1609 11.2577 8.77266 11.1312 8.41155C11.0073 8.05783 11.1243 7.64097 11.4601 7.47452C11.7659 7.32294 12.1414 7.43516 12.2708 7.75097C12.5001 8.31052 12.6265 8.9231 12.6265 9.56521C12.6265 10.2238 12.4935 10.8513 12.253 11.4223ZM13.7298 12.826C14.0405 12.98 14.4203 12.8628 14.561 12.5458C14.9655 11.6348 15.1903 10.6263 15.1903 9.56523C15.1903 8.51982 14.9721 7.52538 14.5788 6.62494C14.4394 6.3057 14.0578 6.18681 13.7457 6.34153C13.4151 6.50541 13.2914 6.91114 13.4325 7.25209C13.7275 7.96473 13.8903 8.74597 13.8903 9.56523C13.8903 10.3973 13.7224 11.1901 13.4186 11.9117C13.2749 12.2532 13.3978 12.6614 13.7298 12.826ZM9.46018 10.234C9.81917 10.234 10.1102 9.943 10.1102 9.58401C10.1102 9.22503 9.81917 8.93401 9.46018 8.93401C9.1012 8.93401 8.81018 9.22503 8.81018 9.58401C8.81018 9.943 9.1012 10.234 9.46018 10.234ZM9.05322 17.7534C9.05322 17.3944 9.34429 17.1033 9.70334 17.1033H14.7967C15.1557 17.1033 15.4468 17.3944 15.4468 17.7534C15.4468 18.1125 15.1557 18.4036 14.7967 18.4036H9.70334C9.34429 18.4036 9.05322 18.1125 9.05322 17.7534Z" fill="#717681"/>
</svg>
