<svg width="24.000000" height="24.000000" viewBox="0 0 24 24" fill="none" xmlns="http://www.w3.org/2000/svg" xmlns:xlink="http://www.w3.org/1999/xlink">
	<desc>
			Created with Pixso.
	</desc>
	<defs>
		<clipPath id="clip17_475">
			<rect id="Outline / Add Comment Outline" width="24.000000" height="24.000000" fill="white" fill-opacity="0"/>
		</clipPath>
	</defs>
	<g>
		<path id="Shape" d="M7 5C5.34 5 4 6.34 4 8L4 18.71C4 19.8 5.26 20.4 6.11 19.72L9.52 17L17 17C18.65 17 20 15.65 20 14L20 8C20 6.34 18.65 5 17 5L7 5ZM9.06 15.7L5.29 18.71L5.29 8C5.29 7.06 6.06 6.3 7 6.3L17 6.3C17.93 6.3 18.7 7.06 18.7 8L18.7 14C18.7 14.93 17.93 15.7 17 15.7L9.06 15.7ZM11.99 7.84C12.34 7.84 12.64 8.13 12.64 8.49L12.64 10.34L14.49 10.34C14.84 10.34 15.14 10.63 15.14 10.99C15.14 11.35 14.84 11.64 14.49 11.64L12.64 11.64L12.64 13.49C12.64 13.85 12.34 14.14 11.99 14.14C11.63 14.14 11.34 13.85 11.34 13.49L11.34 11.64L9.49 11.64C9.13 11.64 8.84 11.35 8.84 10.99C8.84 10.63 9.13 10.34 9.49 10.34L11.34 10.34L11.34 8.49C11.34 8.13 11.63 7.84 11.99 7.84Z" fill="#717681" fill-opacity="1.000000" fill-rule="evenodd"/>
	</g>
</svg>
