<svg viewBox="0 0 24 24" xmlns="http://www.w3.org/2000/svg" xmlns:xlink="http://www.w3.org/1999/xlink" width="24.000000" height="24.000000" fill="none">
	<rect id="Outline/Add Comment Outline" width="24.000000" height="24.000000" x="0.000000" y="0.000000" />
	<path id="Shape" d="M7 5C5.34315 5 4 6.34315 4 8L4 18.7129C4 19.803 5.26091 20.409 6.1121 19.7281L9.52219 17L17 17C18.6569 17 20 15.6569 20 14L20 8C20 6.34315 18.6569 5 17 5L7 5ZM9.06618 15.7L5.3 18.7129L5.3 8C5.3 7.06112 6.06112 6.3 7 6.3L17 6.3C17.9389 6.3 18.7 7.06112 18.7 8L18.7 14C18.7 14.9389 17.9389 15.7 17 15.7L9.06618 15.7ZM12.6403 8.49552C12.6403 8.13653 12.3493 7.84552 11.9903 7.84552C11.6313 7.84552 11.3403 8.13653 11.3403 8.49552L11.3403 10.3455L9.49033 10.3455C9.13135 10.3455 8.84033 10.6365 8.84033 10.9955C8.84033 11.3545 9.13135 11.6455 9.49033 11.6455L11.3403 11.6455L11.3403 13.4955C11.3403 13.8545 11.6313 14.1455 11.9903 14.1455C12.3493 14.1455 12.6403 13.8545 12.6403 13.4955L12.6403 11.6455L14.4903 11.6455C14.8493 11.6455 15.1403 11.3545 15.1403 10.9955C15.1403 10.6365 14.8493 10.3455 14.4903 10.3455L12.6403 10.3455L12.6403 8.49552Z" fill="rgb(116,118,123)" fill-rule="evenodd" />
</svg>
