<svg width="24.000000" height="24.000000" viewBox="0 0 24 24" fill="none" xmlns="http://www.w3.org/2000/svg" xmlns:xlink="http://www.w3.org/1999/xlink">
	<desc>
			Created with Pixso.
	</desc>
	<defs>
		<clipPath id="clip106725_867">
			<rect id="Solid / Administrator AT Solid" width="24.000000" height="24.000000" fill="white" fill-opacity="0"/>
		</clipPath>
	</defs>
	<g>
		<path id="Shape" d="M19.56 12.05C19.76 12.13 20 11.98 20 11.76L20 7C20 5.34 18.65 4 17 4L7 4C5.34 4 4 5.34 4 7L4 17C4 18.65 5.34 20 7 20L11.76 20C11.98 20 12.13 19.76 12.05 19.56C11.8 18.91 11.66 18.2 11.66 17.47C11.66 16.41 11.95 15.42 12.44 14.57L9.24 14.57L8.19 16.69C8.03 17.01 7.64 17.14 7.32 16.99C7 16.83 6.87 16.44 7.03 16.11L11.4 7.3C11.52 7.07 11.75 6.93 11.99 6.94C12.24 6.93 12.47 7.07 12.59 7.3L15.02 12.2C15.77 11.86 16.59 11.66 17.47 11.66C18.2 11.66 18.91 11.8 19.56 12.05ZM13.91 12.88L11.99 9.02L9.89 13.27L13.46 13.27C13.6 13.13 13.75 13 13.91 12.88ZM16.93 12.97C16.46 12.97 16.07 13.3 16 13.74C15.92 14.28 15.33 14.61 14.79 14.4C14.36 14.23 13.86 14.4 13.63 14.78L13.12 15.61C12.89 15.99 12.99 16.47 13.35 16.74C13.81 17.1 13.8 17.78 13.33 18.14C12.96 18.41 12.86 18.9 13.09 19.28L13.59 20.11C13.83 20.49 14.31 20.65 14.74 20.49C15.3 20.29 15.92 20.64 16 21.2C16.07 21.64 16.46 21.97 16.93 21.97L17.94 21.97C18.4 21.97 18.79 21.65 18.86 21.22C18.96 20.63 19.6 20.28 20.19 20.49C20.62 20.65 21.1 20.49 21.34 20.11L21.84 19.28C22.07 18.9 21.97 18.41 21.6 18.14C21.13 17.78 21.12 17.1 21.58 16.74C21.94 16.47 22.04 15.99 21.81 15.61L21.3 14.78C21.07 14.4 20.57 14.23 20.14 14.4C19.58 14.62 18.95 14.28 18.86 13.72C18.79 13.29 18.4 12.97 17.94 12.97L16.93 12.97ZM18.97 17.47C18.97 18.3 18.29 18.97 17.47 18.97C16.64 18.97 15.97 18.3 15.97 17.47C15.97 16.64 16.64 15.97 17.47 15.97C18.29 15.97 18.97 16.64 18.97 17.47Z" fill="#717681" fill-opacity="1.000000" fill-rule="evenodd"/>
	</g>
</svg>
