<svg width="24.000000" height="24.000000" viewBox="0 0 24 24" fill="none" xmlns="http://www.w3.org/2000/svg" xmlns:xlink="http://www.w3.org/1999/xlink">
	<desc>
			Created with Pixso.
	</desc>
	<defs>
		<clipPath id="clip106725_870">
			<rect id="Solid / Administrator HT Solid" width="24.000000" height="24.000000" fill="white" fill-opacity="0"/>
		</clipPath>
	</defs>
	<g clip-path="url(#clip106725_870)">
		<path id="Union" d="M20 11.76C20 11.98 19.76 12.13 19.56 12.05C18.91 11.8 18.2 11.66 17.47 11.66C16.96 11.66 16.47 11.73 16 11.85L16 7.61C16 7.26 15.71 6.96 15.35 6.96C15 6.96 14.71 7.26 14.71 7.61L14.71 11.01L9.33 11.01L9.33 7.61C9.33 7.26 9.04 6.96 8.68 6.96C8.33 6.96 8.03 7.26 8.03 7.61L8.03 16.4C8.03 16.76 8.33 17.05 8.68 17.05C9.04 17.05 9.33 16.76 9.33 16.4L9.33 12.31L14.71 12.31L14.71 12.36C12.89 13.34 11.66 15.26 11.66 17.47C11.66 18.2 11.8 18.91 12.05 19.56C12.13 19.76 11.98 20 11.76 20L7 20C5.34 20 4 18.65 4 17L4 7C4 5.34 5.34 4 7 4L17 4C18.65 4 20 5.34 20 7L20 11.76ZM16 13.74C16.07 13.3 16.46 12.97 16.93 12.97L17.94 12.97C18.4 12.97 18.79 13.29 18.86 13.72C18.95 14.28 19.58 14.62 20.14 14.4C20.57 14.23 21.07 14.4 21.3 14.78L21.81 15.61C22.04 15.99 21.94 16.47 21.58 16.74C21.12 17.1 21.13 17.78 21.6 18.14C21.97 18.41 22.07 18.9 21.84 19.28L21.34 20.11C21.1 20.49 20.62 20.65 20.19 20.49C19.6 20.28 18.96 20.63 18.86 21.22C18.79 21.65 18.4 21.97 17.94 21.97L16.93 21.97C16.46 21.97 16.07 21.64 16 21.2C15.92 20.64 15.3 20.29 14.74 20.49C14.31 20.65 13.83 20.49 13.59 20.11L13.09 19.28C12.86 18.9 12.96 18.41 13.33 18.14C13.8 17.78 13.81 17.1 13.35 16.74C12.99 16.47 12.89 15.99 13.12 15.61L13.63 14.78C13.86 14.4 14.36 14.23 14.79 14.4C15.33 14.61 15.92 14.28 16 13.74ZM17.47 18.97C18.29 18.97 18.97 18.3 18.97 17.47C18.97 16.64 18.29 15.97 17.47 15.97C16.64 15.97 15.97 16.64 15.97 17.47C15.97 18.3 16.64 18.97 17.47 18.97Z" fill="#74767B" fill-opacity="1.000000" fill-rule="evenodd"/>
	</g>
</svg>
