<svg width="24.000000" height="24.000000" viewBox="0 0 24 24" fill="none" xmlns="http://www.w3.org/2000/svg" xmlns:xlink="http://www.w3.org/1999/xlink">
	<desc>
			Created with Pixso.
	</desc>
	<defs>
		<clipPath id="clip106725_891">
			<rect id="Outline / Administrator HT Outline" width="24.000000" height="24.000000" fill="white" fill-opacity="0"/>
		</clipPath>
	</defs>
	<g clip-path="url(#clip106725_891)">
		<path id="Shape" d="M20 11.42C20 11.84 19.55 12.12 19.15 12C18.89 11.92 18.7 11.69 18.7 11.42L18.7 7C18.7 6.06 17.93 5.3 17 5.3L7 5.3C6.06 5.3 5.3 6.06 5.3 7L5.3 17C5.3 17.93 6.06 18.7 7 18.7L11.42 18.7C11.69 18.7 11.92 18.89 12 19.15C12.12 19.55 11.84 20 11.42 20L7 20C5.34 20 4 18.65 4 17L4 7C4 5.34 5.34 4 7 4L17 4C18.65 4 20 5.34 20 7L20 11.42ZM16.96 13C16.49 13 16.1 13.32 16.03 13.76C16.02 13.83 16 13.89 15.98 13.95L15.98 7.6C15.98 7.24 15.69 6.95 15.33 6.95C14.97 6.95 14.68 7.24 14.68 7.6L14.68 10.99L9.31 10.99L9.31 7.6C9.31 7.24 9.02 6.95 8.66 6.95C8.3 6.95 8.01 7.24 8.01 7.6L8.01 16.39C8.01 16.75 8.3 17.04 8.66 17.04C9.02 17.04 9.31 16.75 9.31 16.39L9.31 12.29L14.68 12.29L14.68 14.38C14.28 14.3 13.87 14.46 13.66 14.8L13.15 15.63C12.92 16.01 13.02 16.49 13.38 16.77C13.84 17.12 13.83 17.81 13.36 18.16C12.99 18.43 12.89 18.92 13.12 19.3L13.62 20.13C13.86 20.51 14.34 20.68 14.77 20.52C15.33 20.31 15.95 20.66 16.03 21.23C16.1 21.67 16.49 22 16.96 22L17.97 22C18.43 22 18.82 21.68 18.89 21.24C18.99 20.66 19.63 20.3 20.22 20.52C20.65 20.68 21.13 20.51 21.37 20.13L21.87 19.3C22.1 18.92 22 18.43 21.63 18.16C21.16 17.81 21.15 17.12 21.61 16.77C21.97 16.49 22.07 16.01 21.84 15.63L21.33 14.8C21.1 14.42 20.6 14.26 20.17 14.43C19.61 14.64 18.98 14.31 18.89 13.75C18.82 13.31 18.43 13 17.97 13L16.96 13ZM17.47 14.3C17.33 14.3 17.21 14.38 17.16 14.51C16.75 15.43 15.74 15.92 14.77 15.75C14.68 15.74 14.59 15.78 14.54 15.86C14.49 15.94 14.5 16.05 14.56 16.12C15.19 16.92 15.17 18.04 14.53 18.82C14.47 18.9 14.46 19 14.51 19.09C14.56 19.16 14.65 19.2 14.74 19.19C15.73 19.03 16.76 19.54 17.16 20.49C17.22 20.61 17.33 20.7 17.46 20.7L17.47 20.7C17.6 20.7 17.72 20.61 17.77 20.49C18.19 19.53 19.25 19.02 20.25 19.19C20.34 19.2 20.43 19.16 20.48 19.08C20.53 19 20.52 18.9 20.46 18.82C19.82 18.04 19.8 16.92 20.43 16.12C20.49 16.05 20.5 15.94 20.45 15.86C20.4 15.78 20.31 15.74 20.22 15.76C19.24 15.92 18.2 15.44 17.77 14.5C17.72 14.38 17.6 14.3 17.47 14.3ZM17.5 19C18.32 19 19 18.32 19 17.5C19 16.67 18.32 16 17.5 16C16.67 16 16 16.67 16 17.5C16 18.32 16.67 19 17.5 19Z" fill="#717681" fill-opacity="1.000000" fill-rule="evenodd"/>
	</g>
</svg>
