<svg width="24.000000" height="24.000000" viewBox="0 0 24 24" fill="none" xmlns="http://www.w3.org/2000/svg" xmlns:xlink="http://www.w3.org/1999/xlink">
	<desc>
			Created with Pixso.
	</desc>
	<defs>
		<clipPath id="clip17_457">
			<rect id="Solid / Alert Solid" width="24.000000" height="24.000000" fill="white" fill-opacity="0"/>
		</clipPath>
	</defs>
	<g>
		<path id="Shape" d="M12 0.5C12.39 0.5 12.71 0.82 12.71 1.21L12.71 3.1C12.71 3.49 12.39 3.82 12 3.82C11.6 3.82 11.28 3.49 11.28 3.1L11.28 1.21C11.28 0.82 11.6 0.5 12 0.5ZM3.86 3.86C4.14 3.58 4.6 3.58 4.88 3.86L6.21 5.19C6.35 5.33 6.42 5.52 6.42 5.7C6.42 5.89 6.35 6.07 6.21 6.21C5.93 6.49 5.47 6.49 5.19 6.21L3.86 4.88C3.72 4.74 3.65 4.56 3.65 4.37C3.65 4.19 3.72 4 3.86 3.86ZM17.78 6.21C17.64 6.07 17.57 5.89 17.57 5.7C17.57 5.52 17.64 5.33 17.78 5.19L19.11 3.86C19.39 3.58 19.85 3.58 20.13 3.86C20.27 4 20.34 4.19 20.34 4.37C20.34 4.56 20.27 4.74 20.13 4.88L18.8 6.21C18.52 6.49 18.06 6.49 17.78 6.21ZM5 12C5 8.13 8.13 5 12 5C15.86 5 19 8.13 19 12L19 17.7C19 18.08 18.68 18.4 18.29 18.4L5.69 18.4C5.31 18.4 5 18.08 5 17.7L5 12ZM12 12.74C12.35 12.74 12.64 12.45 12.64 12.09L12.64 9.04C12.64 8.68 12.35 8.39 12 8.39C11.64 8.39 11.35 8.68 11.35 9.04L11.35 12.09C11.35 12.45 11.64 12.74 12 12.74ZM0.49 12C0.49 11.6 0.82 11.28 1.21 11.28L3.09 11.28C3.49 11.28 3.81 11.6 3.81 12C3.81 12.39 3.49 12.72 3.09 12.72L1.21 12.72C0.82 12.72 0.49 12.39 0.49 12ZM20.18 12C20.18 11.6 20.5 11.28 20.9 11.28L22.78 11.28C23.17 11.28 23.5 11.6 23.5 12C23.5 12.39 23.17 12.72 22.78 12.72L20.9 12.72C20.5 12.72 20.18 12.39 20.18 12ZM12 15.6C12.41 15.6 12.75 15.26 12.75 14.85C12.75 14.43 12.41 14.1 12 14.1C11.58 14.1 11.25 14.43 11.25 14.85C11.25 15.26 11.58 15.6 12 15.6ZM3.79 19.7L20.2 19.7C20.56 19.7 20.85 19.99 20.85 20.34C20.85 20.7 20.56 21 20.2 21L3.79 21C3.43 21 3.14 20.7 3.14 20.34C3.14 19.99 3.43 19.7 3.79 19.7Z" fill="#717681" fill-opacity="1.000000" fill-rule="evenodd"/>
	</g>
</svg>
