<svg width="24.000000" height="24.000000" viewBox="0 0 24 24" fill="none" xmlns="http://www.w3.org/2000/svg" xmlns:xlink="http://www.w3.org/1999/xlink">
	<desc>
			Created with Pixso.
	</desc>
	<defs>
		<clipPath id="clip127696_762">
			<rect id="Solid / Anchor Solid" width="24.000000" height="24.000000" fill="white" fill-opacity="0"/>
		</clipPath>
	</defs>
	<g>
		<path id="Shape" d="M21 12C21 16.97 16.97 21 12 21C7.02 21 3 16.97 3 12C3 7.02 7.02 3 12 3C16.97 3 21 7.02 21 12ZM14 6.49C14 7.38 13.42 8.13 12.63 8.39L12.63 9.68L14.3 9.68C14.66 9.68 14.95 9.97 14.95 10.33C14.95 10.69 14.66 10.98 14.3 10.98L12.63 10.98L12.63 17.68C15.47 17.38 17.62 15.13 17.62 12.47L17.62 12.16L16.29 13.42C16.03 13.66 15.62 13.65 15.37 13.39C15.12 13.12 15.14 12.71 15.4 12.47L17.83 10.18C18.02 10.01 18.29 9.96 18.53 10.06C18.77 10.17 18.92 10.4 18.92 10.66L18.92 12.47C18.92 16.12 15.78 19.01 11.99 19.01C8.21 19.01 5.07 16.12 5.07 12.47L5.07 10.66C5.07 10.4 5.22 10.17 5.46 10.06C5.69 9.96 5.97 10.01 6.16 10.18L8.59 12.47C8.85 12.71 8.87 13.12 8.62 13.39C8.37 13.65 7.96 13.66 7.7 13.42L6.37 12.16L6.37 12.47C6.37 15.12 8.5 17.37 11.33 17.68L11.33 10.98L9.66 10.98C9.31 10.98 9.01 10.69 9.01 10.33C9.01 9.97 9.31 9.68 9.66 9.68L11.33 9.68L11.33 8.38C10.55 8.11 10 7.37 10 6.49C10 5.39 10.89 4.49 12 4.49C13.1 4.49 14 5.39 14 6.49ZM12.7 6.49C12.7 6.88 12.38 7.19 12 7.19C11.61 7.19 11.3 6.88 11.3 6.49C11.3 6.11 11.61 5.79 12 5.79C12.38 5.79 12.7 6.11 12.7 6.49Z" fill="#717681" fill-opacity="1.000000" fill-rule="evenodd"/>
	</g>
</svg>
