<svg width="24" height="24" viewBox="0 0 24 24" fill="none" xmlns="http://www.w3.org/2000/svg">
<path d="M12 7.19913C12.3866 7.19913 12.7 6.88573 12.7 6.49913C12.7 6.11253 12.3866 5.79913 12 5.79913C11.6134 5.79913 11.3 6.11253 11.3 6.49913C11.3 6.88573 11.6134 7.19913 12 7.19913Z" fill="#717681"/>
<path fill-rule="evenodd" clip-rule="evenodd" d="M12 21C16.9706 21 21 16.9706 21 12C21 7.02944 16.9706 3 12 3C7.02944 3 3 7.02944 3 12C3 16.9706 7.02944 21 12 21ZM12.636 8.39589C13.4288 8.13019 14 7.38137 14 6.49913C14 5.39456 13.1046 4.49913 12 4.49913C10.8954 4.49913 10 5.39456 10 6.49913C10 7.37093 10.5578 8.11245 11.336 8.38626V9.68207H9.66957C9.31059 9.68207 9.01957 9.97309 9.01957 10.3321C9.01957 10.6911 9.31059 10.9821 9.66957 10.9821H11.336L11.336 17.6801C8.50958 17.3726 6.3702 15.1253 6.3702 12.4706V12.1656L7.70625 13.42C7.96797 13.6657 8.37932 13.6527 8.62503 13.391C8.87074 13.1292 8.85776 12.7179 8.59604 12.4722L6.16509 10.19C5.97614 10.0126 5.69986 9.96438 5.46201 10.0673C5.22416 10.1703 5.0702 10.4047 5.0702 10.6638V12.4706C5.0702 16.1236 8.21192 19.016 11.9997 19.016C15.7875 19.016 18.9292 16.1236 18.9292 12.4706V10.6638C18.9292 10.4047 18.7753 10.1703 18.5374 10.0673C18.2996 9.96438 18.0233 10.0126 17.8344 10.19L15.4034 12.4722C15.1417 12.7179 15.1287 13.1292 15.3744 13.391C15.6201 13.6527 16.0315 13.6657 16.2932 13.42L17.6292 12.1656V12.4706C17.6292 15.1339 15.476 17.3872 12.636 17.6831V10.9821H14.302C14.661 10.9821 14.952 10.6911 14.952 10.3321C14.952 9.97309 14.661 9.68207 14.302 9.68207H12.636V8.39589Z" fill="#717681"/>
</svg>
