<svg width="24.000000" height="24.000000" viewBox="0 0 24 24" fill="none" xmlns="http://www.w3.org/2000/svg" xmlns:xlink="http://www.w3.org/1999/xlink">
	<desc>
			Created with Pixso.
	</desc>
	<defs>
		<clipPath id="clip127622_745">
			<rect id="Solid / Area Chart Solid" width="24.000000" height="24.000000" transform="matrix(1 -6.12324e-17 -6.12324e-17 -1 0 24)" fill="white" fill-opacity="0"/>
		</clipPath>
	</defs>
	<g >
		<path id="Shape" d="M3.37 19.34C3.37 18.98 3.67 18.69 4.02 18.69L4.74 18.69L4.74 8.91C4.74 7.43 6.31 6.49 7.61 7.19L9.99 8.46C10.21 8.57 10.47 8.56 10.67 8.41L16.3 4.43C17.59 3.52 19.38 4.44 19.38 6.02L19.38 18.69L19.99 18.69C20.35 18.69 20.64 18.98 20.64 19.34C20.64 19.7 20.35 19.99 19.99 19.99L4.02 19.99C3.67 19.99 3.37 19.7 3.37 19.34ZM6.04 15.37C6.23 15.26 6.46 15.19 6.69 15.19L10.75 15.19C10.98 15.19 11.21 15.13 11.42 15.01L16.76 11.8C17.2 11.54 17.69 11.57 18.08 11.79L18.08 6.02C18.08 5.49 17.48 5.19 17.05 5.49L11.42 9.47C10.82 9.9 10.03 9.95 9.38 9.6L7 8.33C6.57 8.1 6.04 8.42 6.04 8.91L6.04 15.37Z" fill="#74767B" fill-opacity="1.000000" fill-rule="evenodd"/>
	</g>
</svg>
