<svg viewBox="0 0 24 24" xmlns="http://www.w3.org/2000/svg" xmlns:xlink="http://www.w3.org/1999/xlink" width="24.000000" height="24.000000" fill="none" customFrame="#000000">
	<rect id="Outline/Area Chart Outline" width="24.000000" height="24.000000" x="0.000000" y="0.000000" />
	<path id="Shape" d="M3.36719 19.3105C3.36719 18.9515 3.6582 18.6605 4.01719 18.6605L4.73462 18.6605L4.73462 16.4643C4.73462 16.4618 4.73462 16.4593 4.73463 16.4568L4.73462 8.87701C4.73462 7.40466 6.30386 6.46344 7.60278 7.1567L9.98238 8.42673C10.1993 8.54252 10.463 8.52596 10.6638 8.38395L16.2945 4.401C17.586 3.48741 19.3706 4.41098 19.3706 5.99297L19.3706 18.6605L19.9825 18.6605C20.3415 18.6605 20.6325 18.9515 20.6325 19.3105C20.6325 19.6695 20.3415 19.9605 19.9825 19.9605L4.01719 19.9605C3.6582 19.9605 3.36719 19.6695 3.36719 19.3105ZM6.03463 16.4599L6.03464 18.6594L18.0705 18.6594L18.0705 12.8862C18.0705 12.3809 17.5193 12.0689 17.0861 12.3289L11.7421 15.5362C11.439 15.7181 11.0922 15.8143 10.7386 15.8143L6.68462 15.8143C6.32707 15.8143 6.03695 16.1029 6.03463 16.4599ZM6.03463 14.6252C6.23793 14.5534 6.45671 14.5143 6.68462 14.5143L10.7386 14.5143C10.8565 14.5143 10.9721 14.4822 11.0731 14.4216L16.4171 11.2142C16.955 10.8913 17.5537 10.8625 18.0706 11.0471L18.0706 5.99297C18.0706 5.46564 17.4757 5.15778 17.0452 5.46231L11.4145 9.44526C10.8123 9.8713 10.0211 9.92097 9.37028 9.57361L6.99068 8.30357C6.5577 8.07249 6.03462 8.38623 6.03462 8.87701L6.03463 14.6252Z" fill="rgb(116,118,123)" fill-rule="evenodd" />
</svg>
