<svg width="24" height="24" viewBox="0 0 24 24" fill="none" xmlns="http://www.w3.org/2000/svg">
<path d="M12.7163 3.23045C12.2743 2.94987 11.7099 2.95014 11.2682 3.23113L4.56534 7.49492C3.42566 8.2199 3.93919 9.98399 5.28992 9.98399H18.7096C20.061 9.98399 20.574 8.2185 19.4331 7.49424L12.7163 3.23045Z" fill="#717681"/>
<path d="M11.9997 11.2724C12.3587 11.2724 12.6497 11.5634 12.6497 11.9224V16.8049C12.6497 17.1639 12.3587 17.4549 11.9997 17.4549C11.6407 17.4549 11.3497 17.1639 11.3497 16.8049V11.9224C11.3497 11.5634 11.6407 11.2724 11.9997 11.2724Z" fill="#717681"/>
<path d="M3.98663 19.4C3.98663 19.041 4.27765 18.75 4.63663 18.75H19.3628C19.7218 18.75 20.0128 19.041 20.0128 19.4C20.0128 19.759 19.7218 20.05 19.3628 20.05H4.63663C4.27765 20.05 3.98663 19.759 3.98663 19.4Z" fill="#717681"/>
<path d="M8.28248 11.9224C8.28248 11.5634 7.99147 11.2724 7.63248 11.2724C7.2735 11.2724 6.98248 11.5634 6.98248 11.9224V16.8049C6.98248 17.1639 7.2735 17.4549 7.63248 17.4549C7.99147 17.4549 8.28248 17.1639 8.28248 16.8049V11.9224Z" fill="#717681"/>
<path d="M16.367 11.2724C16.726 11.2724 17.017 11.5634 17.017 11.9224V16.8049C17.017 17.1639 16.726 17.4549 16.367 17.4549C16.0081 17.4549 15.717 17.1639 15.717 16.8049V11.9224C15.717 11.5634 16.0081 11.2724 16.367 11.2724Z" fill="#717681"/>
</svg>
