<svg viewBox="0 0 24 24" xmlns="http://www.w3.org/2000/svg" xmlns:xlink="http://www.w3.org/1999/xlink" width="24.000000" height="24.000000" fill="none" customFrame="#000000">
	<rect id="Solid/Bar Chart Plus Solid" width="24.000000" height="24.000000" x="0.000000" y="0.000000" />
	<path id="Shape" d="M4.83872 20L4.83872 19.9947L4.01719 19.9947C3.6582 19.9947 3.36719 19.7037 3.36719 19.3447C3.36719 18.9857 3.6582 18.6947 4.01719 18.6947L4.83872 18.6947L4.83872 8.97522C4.83872 7.8989 5.71125 7.02637 6.78757 7.02637C7.86389 7.02637 8.73643 7.8989 8.73643 8.97522L8.73643 18.6947L10.0365 18.6947L10.0365 11.9968C10.0365 10.9199 10.9095 10.0469 11.9864 10.0469C13.0633 10.0469 13.9363 10.9199 13.9363 11.9968L13.9363 18.6947L15.2362 18.6947L15.2362 5.94992C15.2362 4.87301 16.1092 4 17.1861 4C18.263 4 19.136 4.87301 19.136 5.94992L19.136 18.6947L19.9825 18.6947C20.3415 18.6947 20.6325 18.9857 20.6325 19.3447C20.6325 19.7037 20.3415 19.9947 19.9825 19.9947L19.1339 19.9947L19.1339 20L15.2362 20L15.2362 19.9947L13.9342 19.9947L13.9342 20L10.0365 20L10.0365 19.9947L8.73643 19.9947L8.73643 20L4.83872 20ZM16.5362 12.8438L17.836 12.8438L17.836 5.94992C17.836 5.59098 17.545 5.3 17.1861 5.3C16.8272 5.3 16.5362 5.59098 16.5362 5.94992L16.5362 12.8438ZM11.3365 11.9968L11.3365 15.9775L12.6363 15.9775L12.6363 11.9968C12.6363 11.6379 12.3453 11.3469 11.9864 11.3469C11.6275 11.3469 11.3365 11.6379 11.3365 11.9968ZM6.13872 11.7158L7.43643 11.7158L7.43643 8.97522C7.43643 8.61687 7.14592 8.32637 6.78757 8.32637C6.42922 8.32637 6.13872 8.61687 6.13872 8.97522L6.13872 11.7158Z" fill="rgb(116,118,123)" fill-rule="evenodd" />
</svg>
