<svg width="24" height="24" viewBox="0 0 24 24" fill="none" xmlns="http://www.w3.org/2000/svg">
<mask id="path-1-inside-1_127622_729" fill="white">
<path d="M6.80027 7.02637C5.72395 7.02637 4.85142 7.8989 4.85142 8.97522V18.6947H4.02988C3.6709 18.6947 3.37988 18.9857 3.37988 19.3447C3.37988 19.7037 3.6709 19.9947 4.02988 19.9947H5.46506C5.49336 19.9982 5.52218 20 5.55142 20H8.04912C8.07836 20 8.10718 19.9982 8.13547 19.9947H10.6628C10.6911 19.9982 10.7199 20 10.7492 20H13.249C13.2782 20 13.3071 19.9982 13.3354 19.9947H15.8625C15.8908 19.9982 15.9196 20 15.9489 20H18.4487C18.478 20 18.5068 19.9982 18.5351 19.9947H19.9952C20.3541 19.9947 20.6452 19.7037 20.6452 19.3447C20.6452 18.9857 20.3541 18.6947 19.9952 18.6947H19.1487V5.94992C19.1487 4.87301 18.2757 4 17.1988 4C16.1219 4 15.2489 4.87301 15.2489 5.94992V18.6947H13.949V11.9968C13.949 10.9199 13.076 10.0469 11.9991 10.0469C10.9222 10.0469 10.0492 10.9199 10.0492 11.9968V18.6947H8.74912V8.97522C8.74912 7.8989 7.87659 7.02637 6.80027 7.02637Z"/>
</mask>
<path d="M6.80027 7.02637C5.72395 7.02637 4.85142 7.8989 4.85142 8.97522V18.6947H4.02988C3.6709 18.6947 3.37988 18.9857 3.37988 19.3447C3.37988 19.7037 3.6709 19.9947 4.02988 19.9947H5.46506C5.49336 19.9982 5.52218 20 5.55142 20H8.04912C8.07836 20 8.10718 19.9982 8.13547 19.9947H10.6628C10.6911 19.9982 10.7199 20 10.7492 20H13.249C13.2782 20 13.3071 19.9982 13.3354 19.9947H15.8625C15.8908 19.9982 15.9196 20 15.9489 20H18.4487C18.478 20 18.5068 19.9982 18.5351 19.9947H19.9952C20.3541 19.9947 20.6452 19.7037 20.6452 19.3447C20.6452 18.9857 20.3541 18.6947 19.9952 18.6947H19.1487V5.94992C19.1487 4.87301 18.2757 4 17.1988 4C16.1219 4 15.2489 4.87301 15.2489 5.94992V18.6947H13.949V11.9968C13.949 10.9199 13.076 10.0469 11.9991 10.0469C10.9222 10.0469 10.0492 10.9199 10.0492 11.9968V18.6947H8.74912V8.97522C8.74912 7.8989 7.87659 7.02637 6.80027 7.02637Z" fill="#717681" stroke="#717681" stroke-width="2.6" mask="url(#path-1-inside-1_127622_729)"/>
</svg>
