<svg width="24.000000" height="24.000000" viewBox="0 0 24 24" fill="none" xmlns="http://www.w3.org/2000/svg" xmlns:xlink="http://www.w3.org/1999/xlink">
	<desc>
			Created with Pixso.
	</desc>
	<defs>
		<clipPath id="clip127622_729">
			<rect id="Outline / Bar Chart Solid" width="24.000000" height="24.000000" transform="matrix(1 -6.12324e-17 -6.12324e-17 -1 0 24)" fill="white" fill-opacity="0"/>
		</clipPath>
	</defs>
	<g clip-path="url(#clip127622_729)">
		<path id="Shape" d="M6.8 7.02C5.72 7.02 4.85 7.89 4.85 8.97L4.85 18.69L4.02 18.69C3.67 18.69 3.37 18.98 3.37 19.34C3.37 19.7 3.67 19.99 4.02 19.99L5.46 19.99C5.49 19.99 5.52 20 5.55 20L8.04 20C8.07 20 8.1 19.99 8.13 19.99L10.66 19.99C10.69 19.99 10.72 20 10.74 20L13.24 20C13.27 20 13.3 19.99 13.33 19.99L15.86 19.99C15.89 19.99 15.91 20 15.94 20L18.44 20C18.47 20 18.5 19.99 18.53 19.99L19.99 19.99C20.35 19.99 20.64 19.7 20.64 19.34C20.64 18.98 20.35 18.69 19.99 18.69L19.14 18.69L19.14 5.94C19.14 4.87 18.27 4 17.19 4C16.12 4 15.24 4.87 15.24 5.94L15.24 18.69L13.94 18.69L13.94 11.99C13.94 10.91 13.07 10.04 11.99 10.04C10.92 10.04 10.04 10.91 10.04 11.99L10.04 18.69L8.74 18.69L8.74 8.97C8.74 7.89 7.87 7.02 6.8 7.02Z" fill="#717681" fill-opacity="1.000000" fill-rule="nonzero"/>
		<path id="Shape" d="M8.74 17.39L8.74 8.97C8.74 7.89 7.87 7.02 6.8 7.02C5.72 7.02 4.85 7.89 4.85 8.97L4.85 18.69L4.03 18.69L4.02 18.69C3.67 18.69 3.37 18.98 3.37 19.34C3.37 19.7 3.67 19.99 4.02 19.99L5.46 19.99C5.49 19.99 5.52 20 5.55 20L8.04 20C8.07 20 8.1 19.99 8.13 19.99L10.66 19.99C10.69 19.99 10.72 20 10.74 20L13.24 20C13.27 20 13.3 19.99 13.33 19.99L15.86 19.99C15.89 19.99 15.91 20 15.94 20L18.44 20C18.47 20 18.5 19.99 18.53 19.99L19.99 19.99C20.35 19.99 20.64 19.7 20.64 19.34C20.64 18.98 20.35 18.69 19.99 18.69L19.99 18.69L19.14 18.69L19.14 5.94C19.14 4.87 18.27 4 17.19 4C16.12 4 15.24 4.87 15.24 5.94L15.24 18.69L13.94 18.69L13.94 11.99C13.94 11.98 13.94 11.98 13.94 11.97C13.93 10.9 13.06 10.04 11.99 10.04C10.92 10.04 10.04 10.91 10.04 11.99L10.04 18.69L10.04 18.69L8.74 18.69L8.74 18.69L8.74 17.39ZM7.44 18.7L7.44 8.97Q7.44 8.84 7.4 8.72Q7.35 8.61 7.25 8.51Q7.16 8.42 7.04 8.37Q6.93 8.32 6.8 8.32Q6.66 8.32 6.55 8.37Q6.43 8.42 6.34 8.51Q6.24 8.61 6.19 8.72Q6.15 8.84 6.15 8.97L6.15 18.7L7.44 18.7ZM11.34 18.7L12.64 18.7L12.64 11.99Q12.64 11.86 12.6 11.74Q12.55 11.63 12.45 11.53Q12.36 11.44 12.24 11.39Q12.13 11.34 11.99 11.34Q11.86 11.34 11.74 11.39Q11.63 11.44 11.53 11.53Q11.44 11.63 11.39 11.74Q11.34 11.86 11.34 11.99L11.34 18.7ZM16.54 18.7L17.84 18.7L17.84 5.94Q17.84 5.81 17.8 5.7Q17.75 5.58 17.65 5.49Q17.56 5.39 17.44 5.34Q17.33 5.29 17.19 5.29Q17.06 5.29 16.94 5.34Q16.83 5.39 16.73 5.49Q16.64 5.58 16.59 5.7Q16.54 5.81 16.54 5.94L16.54 18.7Z" fill="#717681" fill-opacity="1.000000" fill-rule="evenodd"/>
	</g>
</svg>
