<svg viewBox="0 0 24 24" xmlns="http://www.w3.org/2000/svg" xmlns:xlink="http://www.w3.org/1999/xlink" width="24.000000" height="24.000000" fill="none" customFrame="#000000">
	<rect id="Outline/Bar Chart Solid" width="24.000000" height="24.000000" x="0.000000" y="0.000000" />
	<path id="Shape" d="M6.78757 7.02637C5.71125 7.02637 4.83872 7.8989 4.83872 8.97522L4.83872 18.6947L4.01719 18.6947C3.6582 18.6947 3.36719 18.9857 3.36719 19.3447C3.36719 19.7037 3.6582 19.9947 4.01719 19.9947L5.45237 19.9947C5.48067 19.9982 5.50948 20 5.53872 20L8.03643 20C8.06566 20 8.09448 19.9982 8.12278 19.9947L10.6501 19.9947C10.6784 19.9982 10.7072 20 10.7365 20L13.2363 20C13.2656 20 13.2944 19.9982 13.3227 19.9947L15.8498 19.9947C15.8781 19.9982 15.9069 20 15.9362 20L18.436 20C18.4653 20 18.4941 19.9982 18.5224 19.9947L19.9825 19.9947C20.3415 19.9947 20.6325 19.7037 20.6325 19.3447C20.6325 18.9857 20.3415 18.6947 19.9825 18.6947L19.136 18.6947L19.136 5.94992C19.136 4.87301 18.263 4 17.1861 4C16.1092 4 15.2362 4.87301 15.2362 5.94992L15.2362 18.6947L13.9363 18.6947L13.9363 11.9968C13.9363 10.9199 13.0633 10.0469 11.9864 10.0469C10.9095 10.0469 10.0365 10.9199 10.0365 11.9968L10.0365 18.6947L8.73643 18.6947L8.73643 8.97522C8.73643 7.8989 7.86389 7.02637 6.78757 7.02637Z" fill="rgb(116,118,123)" fill-rule="nonzero" />
	<path id="Shape" d="M8.73643 17.3947L8.73643 8.97522C8.73643 7.8989 7.86389 7.02637 6.78757 7.02637C5.71125 7.02637 4.83872 7.8989 4.83872 8.97522L4.83872 18.6947L4.01839 18.6947L4.01719 18.6947C3.6582 18.6947 3.36719 18.9857 3.36719 19.3447C3.36719 19.7037 3.6582 19.9947 4.01719 19.9947L5.45237 19.9947C5.48067 19.9982 5.50948 20 5.53872 20L8.03643 20C8.06566 20 8.09448 19.9982 8.12278 19.9947L10.6501 19.9947C10.6784 19.9982 10.7072 20 10.7365 20L13.2363 20C13.2656 20 13.2944 19.9982 13.3227 19.9947L15.8498 19.9947C15.8781 19.9982 15.9069 20 15.9362 20L18.436 20C18.4653 20 18.4941 19.9982 18.5224 19.9947L19.9825 19.9947C20.3415 19.9947 20.6325 19.7037 20.6325 19.3447C20.6325 18.9857 20.3415 18.6947 19.9825 18.6947L19.9813 18.6947L19.136 18.6947L19.136 5.94992C19.136 4.87301 18.263 4 17.1861 4C16.1092 4 15.2362 4.87301 15.2362 5.94992L15.2362 18.6947L13.9363 18.6947L13.9363 11.9968C13.9363 11.9891 13.9363 11.9814 13.9362 11.9737C13.9238 10.9074 13.0556 10.0469 11.9864 10.0469C10.9095 10.0469 10.0365 10.9199 10.0365 11.9968L10.0365 18.6947L10.0364 18.6947L8.73647 18.6947L8.73643 18.6947L8.73643 17.3947ZM7.43643 18.7L7.43643 8.97522C7.43643 8.88563 7.42059 8.8026 7.38892 8.72614C7.35724 8.64967 7.30973 8.57976 7.24638 8.51641C7.18303 8.45306 7.11313 8.40555 7.03666 8.37388C6.96019 8.34221 6.87716 8.32637 6.78757 8.32637C6.69798 8.32637 6.61496 8.34221 6.53849 8.37388C6.46202 8.40555 6.39211 8.45306 6.32876 8.51641C6.26542 8.57976 6.21791 8.64967 6.18623 8.72614C6.15456 8.8026 6.13872 8.88563 6.13872 8.97522L6.13872 18.7L7.43643 18.7ZM11.3365 18.7L12.6363 18.7L12.6363 11.9968C12.6363 11.9071 12.6205 11.8239 12.5887 11.7473C12.557 11.6707 12.5094 11.6007 12.446 11.5372C12.3825 11.4738 12.3125 11.4262 12.2359 11.3945C12.1593 11.3627 12.0761 11.3469 11.9864 11.3469C11.8967 11.3469 11.8135 11.3627 11.7369 11.3945C11.6603 11.4262 11.5903 11.4738 11.5268 11.5372C11.4634 11.6007 11.4158 11.6707 11.3841 11.7473C11.3523 11.8239 11.3365 11.9071 11.3365 11.9968L11.3365 18.7ZM16.5362 18.7L17.836 18.7L17.836 5.94992C17.836 5.86018 17.8202 5.77702 17.7884 5.70042C17.7567 5.62383 17.7091 5.55381 17.6457 5.49036C17.5822 5.4269 17.5122 5.37931 17.4356 5.34759C17.359 5.31586 17.2758 5.3 17.1861 5.3C17.0964 5.3 17.0132 5.31586 16.9366 5.34759C16.86 5.37932 16.79 5.42691 16.7265 5.49036C16.6631 5.55381 16.6155 5.62383 16.5838 5.70043C16.552 5.77702 16.5362 5.86018 16.5362 5.94992L16.5362 18.7Z" fill="rgb(116,118,123)" fill-rule="evenodd" />
</svg>
