<svg width="24.000000" height="24.000000" viewBox="0 0 24 24" fill="none" xmlns="http://www.w3.org/2000/svg" xmlns:xlink="http://www.w3.org/1999/xlink">
	<desc>
			Created with Pixso.
	</desc>
	<defs>
		<clipPath id="clip127622_733">
			<rect id="Solid / Bar Chart Plus Solid" width="24.000000" height="24.000000" transform="matrix(1 -6.12324e-17 -6.12324e-17 -1 0 24)" fill="white" fill-opacity="0"/>
		</clipPath>
	</defs>
	<g clip-path="url(#clip127622_733)">
		<path id="Shape" d="M4.85 20L4.85 19.99L4.02 19.99C3.67 19.99 3.37 19.7 3.37 19.34C3.37 18.98 3.67 18.69 4.02 18.69L4.85 18.69L4.85 8.97C4.85 7.89 5.72 7.02 6.8 7.02C7.87 7.02 8.74 7.89 8.74 8.97L8.74 18.69L10.04 18.69L10.04 11.99C10.04 10.91 10.92 10.04 11.99 10.04C13.07 10.04 13.94 10.91 13.94 11.99L13.94 18.69L15.24 18.69L15.24 5.94C15.24 4.87 16.12 4 17.19 4C18.27 4 19.14 4.87 19.14 5.94L19.14 18.69L19.99 18.69C20.35 18.69 20.64 18.98 20.64 19.34C20.64 19.7 20.35 19.99 19.99 19.99L19.14 19.99L19.14 20L15.24 20L15.24 19.99L13.94 19.99L13.94 20L10.04 20L10.04 19.99L8.74 19.99L8.74 20L4.85 20ZM16.54 12.84L17.84 12.84L17.84 5.94C17.84 5.59 17.55 5.29 17.19 5.29C16.83 5.29 16.54 5.59 16.54 5.94L16.54 12.84ZM11.34 11.99L11.34 15.97L12.64 15.97L12.64 11.99C12.64 11.63 12.35 11.34 11.99 11.34C11.64 11.34 11.34 11.63 11.34 11.99ZM6.15 11.71L7.44 11.71L7.44 8.97C7.44 8.61 7.15 8.32 6.8 8.32C6.44 8.32 6.15 8.61 6.15 8.97L6.15 11.71Z" fill="#74767B" fill-opacity="1.000000" fill-rule="evenodd"/>
	</g>
</svg>
