<svg width="24" height="24" viewBox="0 0 24 24" fill="none" xmlns="http://www.w3.org/2000/svg">
<path fill-rule="evenodd" clip-rule="evenodd" d="M4.85142 20V19.9947H4.02988C3.6709 19.9947 3.37988 19.7037 3.37988 19.3447C3.37988 18.9857 3.6709 18.6947 4.02988 18.6947H4.85142V8.97522C4.85142 7.8989 5.72395 7.02637 6.80027 7.02637C7.87659 7.02637 8.74912 7.8989 8.74912 8.97522V18.6947H10.0492V11.9968C10.0492 10.9199 10.9222 10.0469 11.9991 10.0469C13.076 10.0469 13.949 10.9199 13.949 11.9968V18.6947H15.2489V5.94992C15.2489 4.87301 16.1219 4 17.1988 4C18.2757 4 19.1487 4.87301 19.1487 5.94992V18.6947H19.9952C20.3541 18.6947 20.6452 18.9857 20.6452 19.3447C20.6452 19.7037 20.3541 19.9947 19.9952 19.9947H19.1466V20H15.2489V19.9947H13.9469V20H10.0492V19.9947H8.74912V20H4.85142ZM16.5489 12.8438H17.8487V5.94992C17.8487 5.59098 17.5577 5.3 17.1988 5.3C16.8399 5.3 16.5489 5.59098 16.5489 5.94992V12.8438ZM11.3492 11.9968V15.9775H12.649V11.9968C12.649 11.6379 12.358 11.3469 11.9991 11.3469C11.6401 11.3469 11.3492 11.6379 11.3492 11.9968ZM6.15142 11.7158H7.44912V8.97522C7.44912 8.61687 7.15862 8.32637 6.80027 8.32637C6.44192 8.32637 6.15142 8.61687 6.15142 8.97522V11.7158Z" fill="#717681"/>
</svg>
