<svg viewBox="0 0 24 24" xmlns="http://www.w3.org/2000/svg" xmlns:xlink="http://www.w3.org/1999/xlink" width="24.000000" height="24.000000" fill="none" customFrame="#000000">
	<rect id="Outline/Bar Chart Plus Outline" width="24.000000" height="24.000000" x="0.000000" y="0.000000" />
	<path id="Shape" d="M5.45237 19.9947L4.01719 19.9947C3.6582 19.9947 3.36719 19.7037 3.36719 19.3447C3.36719 18.9857 3.6582 18.6947 4.01719 18.6947L4.83872 18.6947L4.83872 8.97522C4.83872 7.8989 5.71125 7.02637 6.78757 7.02637C7.86389 7.02637 8.73643 7.8989 8.73643 8.97522L8.73643 18.6947L10.0365 18.6947L10.0365 11.9968C10.0365 10.9199 10.9095 10.0469 11.9864 10.0469C13.0633 10.0469 13.9363 10.9199 13.9363 11.9968L13.9363 18.6947L15.2362 18.6947L15.2362 5.94992C15.2362 4.87301 16.1092 4 17.1861 4C18.263 4 19.136 4.87301 19.136 5.94992L19.136 18.6947L19.9825 18.6947C20.3415 18.6947 20.6325 18.9857 20.6325 19.3447C20.6325 19.7037 20.3415 19.9947 19.9825 19.9947L18.5224 19.9947C18.4941 19.9982 18.4653 20 18.436 20L15.9362 20C15.9069 20 15.8781 19.9982 15.8498 19.9947L13.3227 19.9947C13.2944 19.9982 13.2656 20 13.2363 20L10.7365 20C10.7072 20 10.6784 19.9982 10.6501 19.9947L8.12278 19.9947C8.09448 19.9982 8.06566 20 8.03643 20L5.53872 20C5.50948 20 5.48067 19.9982 5.45237 19.9947ZM16.5362 18.6947L17.836 18.6947L17.836 14.1632L16.5362 14.1632L16.5362 18.6947ZM16.5362 12.8632L16.5362 5.94992C16.5362 5.59098 16.8272 5.3 17.1861 5.3C17.545 5.3 17.836 5.59098 17.836 5.94992L17.836 12.8632L16.5362 12.8632ZM11.3365 17.2701L11.3365 18.6947L12.6363 18.6947L12.6363 17.2701L11.3365 17.2701ZM11.3365 15.9701L12.6363 15.9701L12.6363 11.9968C12.6363 11.6379 12.3453 11.3469 11.9864 11.3469C11.6275 11.3469 11.3365 11.6379 11.3365 11.9968L11.3365 15.9701ZM7.43643 18.6947L6.13872 18.6947L6.13872 13.0162L7.43643 13.0162L7.43643 18.6947ZM7.43643 11.7162L6.13872 11.7162L6.13872 8.97522C6.13872 8.61687 6.42922 8.32637 6.78757 8.32637C7.14592 8.32637 7.43643 8.61687 7.43643 8.97522L7.43643 11.7162Z" fill="rgb(116,118,123)" fill-rule="evenodd" />
</svg>
