<svg width="24.000000" height="24.000000" viewBox="0 0 24 24" fill="none" xmlns="http://www.w3.org/2000/svg" xmlns:xlink="http://www.w3.org/1999/xlink">
	<desc>
			Created with Pixso.
	</desc>
	<defs>
		<clipPath id="clip5083_887">
			<rect id="Outline / Book Outline" width="24.000000" height="24.000000" fill="white" fill-opacity="0"/>
		</clipPath>
	</defs>
	<g>
		<path id="Shape" d="M5 7C5 5.34 6.34 4 8 4L16 4C17.65 4 19 5.34 19 7L19 17C19 18.65 17.65 20 16 20L8 20C6.34 20 5 18.65 5 17L5 15.44L5 15.44L5 15.44L5 7ZM8 5.3C7.06 5.3 6.29 6.06 6.29 7L6.29 14.61C6.74 14.31 7.28 14.14 7.85 14.14L16 14.14C16.93 14.14 17.7 13.38 17.7 12.44L17.7 7C17.7 6.06 16.93 5.3 16 5.3L8 5.3ZM8.19 7.64C8.19 7.28 8.48 6.99 8.84 6.99L15.15 6.99C15.51 6.99 15.8 7.28 15.8 7.64C15.8 8 15.51 8.29 15.15 8.29L8.84 8.29C8.48 8.29 8.19 8 8.19 7.64ZM8.84 9.58C8.48 9.58 8.19 9.87 8.19 10.23C8.19 10.59 8.48 10.88 8.84 10.88L15.15 10.88C15.51 10.88 15.8 10.59 15.8 10.23C15.8 9.87 15.51 9.58 15.15 9.58L8.84 9.58ZM16 15.44C16.63 15.44 17.21 15.25 17.7 14.92L17.7 17C17.7 17.93 16.93 18.7 16 18.7L8 18.7C7.08 18.7 6.33 17.97 6.3 17.07C6.3 17.04 6.3 17.02 6.3 17C6.3 16.14 6.99 15.44 7.85 15.44L16 15.44Z" fill="#717681" fill-opacity="1.000000" fill-rule="evenodd"/>
	</g>
</svg>
