<svg width="24.000000" height="24.000000" viewBox="0 0 24 24" fill="none" xmlns="http://www.w3.org/2000/svg" xmlns:xlink="http://www.w3.org/1999/xlink">
	<desc>
			Created with Pixso.
	</desc>
	<defs>
		<clipPath id="clip5083_888">
			<rect id="Solid / Book Solid" width="24.000000" height="24.000000" fill="white" fill-opacity="0"/>
		</clipPath>
	</defs>
	<g >
		<path id="Shape" d="M5 7C5 5.34 6.34 4 8 4L16 4C17.65 4 19 5.34 19 7L19 17C19 18.65 17.65 20 16 20L8 20C6.34 20 5 18.65 5 17L5 7ZM6.3 17.07C6.33 17.97 7.08 18.7 8 18.7L16 18.7C16.93 18.7 17.7 17.93 17.7 17L17.7 14.92C17.21 15.25 16.63 15.44 16 15.44L7.85 15.44C6.99 15.44 6.3 16.14 6.3 17C6.3 17.02 6.3 17.04 6.3 17.07ZM8.64 9.61L15.35 9.61C15.61 9.7 15.8 9.94 15.8 10.23C15.8 10.59 15.51 10.88 15.15 10.88L8.84 10.88C8.48 10.88 8.19 10.59 8.19 10.23C8.19 9.94 8.38 9.7 8.64 9.61ZM8.84 6.99C8.48 6.99 8.19 7.28 8.19 7.64C8.19 8 8.48 8.29 8.84 8.29L15.15 8.29C15.51 8.29 15.8 8 15.8 7.64C15.8 7.28 15.51 6.99 15.15 6.99L8.84 6.99Z" fill="#74767B" fill-opacity="1.000000" fill-rule="evenodd"/>
	</g>
</svg>
