<svg width="24.000000" height="24.000000" viewBox="0 0 24 24" fill="none" xmlns="http://www.w3.org/2000/svg" xmlns:xlink="http://www.w3.org/1999/xlink">
	<desc>
			Created with Pixso.
	</desc>
	<defs>
		<clipPath id="clip6973_1273">
			<rect id="Outline / Boxes Outline" width="24.000000" height="24.000000" fill="white" fill-opacity="0"/>
		</clipPath>
	</defs>
	<g clip-path="url(#clip6973_1273)">
		<path id="Shape" d="M14.82 3.36C14.66 3.35 14.36 3.35 13.91 3.35L10.07 3.35C9.63 3.35 9.33 3.35 9.17 3.36C8.87 3.39 8.61 3.45 8.41 3.56C8.22 3.65 8.06 3.77 7.91 3.91C7.77 4.06 7.65 4.22 7.56 4.41C7.45 4.61 7.39 4.87 7.36 5.17C7.35 5.33 7.34 5.63 7.34 6.08L7.34 9.92C7.34 10.36 7.35 10.66 7.36 10.82C7.38 11.02 7.41 11.19 7.46 11.35L6.07 11.35C5.63 11.35 5.33 11.35 5.17 11.37C4.87 11.39 4.61 11.45 4.41 11.56C4.22 11.65 4.06 11.77 3.91 11.91C3.77 12.06 3.65 12.22 3.56 12.41C3.45 12.61 3.39 12.87 3.36 13.17C3.35 13.33 3.34 13.63 3.34 14.08L3.34 17.92C3.34 18.36 3.35 18.66 3.36 18.82C3.39 19.12 3.45 19.38 3.56 19.58C3.65 19.77 3.77 19.93 3.91 20.08C4.06 20.22 4.22 20.34 4.41 20.43C4.61 20.54 4.87 20.6 5.17 20.63C5.33 20.64 5.63 20.65 6.07 20.65L9.91 20.65C10.36 20.65 10.66 20.64 10.82 20.63C11.12 20.6 11.38 20.54 11.58 20.43C11.73 20.35 11.87 20.26 11.99 20.15C12.12 20.26 12.26 20.35 12.41 20.43C12.61 20.54 12.87 20.6 13.17 20.63C13.33 20.64 13.63 20.65 14.07 20.65L17.91 20.65C18.36 20.65 18.66 20.64 18.82 20.63C19.12 20.6 19.38 20.54 19.58 20.43C19.77 20.34 19.93 20.22 20.08 20.08C20.22 19.93 20.34 19.77 20.43 19.58C20.54 19.38 20.6 19.12 20.62 18.82C20.64 18.66 20.64 18.36 20.64 17.92L20.64 14.08C20.64 13.63 20.64 13.33 20.62 13.17C20.6 12.87 20.54 12.61 20.43 12.41C20.34 12.22 20.22 12.06 20.08 11.91C19.93 11.77 19.77 11.65 19.58 11.56C19.38 11.45 19.12 11.39 18.82 11.37C18.66 11.35 18.36 11.35 17.91 11.35L16.53 11.35C16.58 11.19 16.61 11.02 16.62 10.82C16.64 10.66 16.64 10.36 16.64 9.92L16.64 6.08C16.64 5.63 16.64 5.33 16.62 5.17C16.6 4.87 16.54 4.61 16.43 4.41C16.34 4.22 16.22 4.06 16.08 3.91C15.93 3.77 15.77 3.65 15.58 3.56C15.38 3.45 15.12 3.39 14.82 3.36ZM10.07 4.65L13.91 4.65C14.32 4.65 14.59 4.65 14.72 4.66C14.85 4.67 14.94 4.69 14.99 4.72C15.05 4.75 15.11 4.79 15.15 4.83C15.2 4.88 15.24 4.94 15.27 5C15.3 5.05 15.32 5.14 15.33 5.27C15.34 5.4 15.34 5.67 15.34 6.08L15.34 9.92C15.34 10.32 15.34 10.59 15.33 10.72C15.32 10.85 15.3 10.94 15.27 10.99C15.24 11.05 15.2 11.11 15.15 11.16C15.11 11.2 15.05 11.24 14.99 11.27C14.94 11.3 14.85 11.32 14.72 11.33C14.59 11.34 14.32 11.35 13.91 11.35L10.07 11.35C9.67 11.35 9.4 11.34 9.27 11.33C9.14 11.32 9.05 11.3 9 11.27C8.94 11.24 8.88 11.2 8.83 11.16C8.79 11.11 8.75 11.05 8.72 10.99C8.69 10.94 8.67 10.85 8.66 10.72C8.65 10.59 8.64 10.32 8.64 9.92L8.64 6.08C8.64 5.67 8.65 5.4 8.66 5.27C8.67 5.14 8.69 5.05 8.72 5C8.75 4.94 8.79 4.88 8.83 4.83C8.88 4.79 8.94 4.75 9 4.72C9.05 4.69 9.14 4.67 9.27 4.66C9.4 4.65 9.67 4.65 10.07 4.65ZM12.99 5.35L10.99 5.35C10.63 5.35 10.34 5.63 10.34 6C10.34 6.36 10.63 6.65 10.99 6.65L12.99 6.65C13.36 6.65 13.64 6.36 13.64 6C13.64 5.63 13.36 5.35 12.99 5.35ZM11.34 14.08L11.34 17.92C11.34 18.32 11.34 18.59 11.33 18.72C11.32 18.85 11.3 18.94 11.27 18.99C11.24 19.05 11.2 19.11 11.15 19.16C11.11 19.2 11.05 19.24 10.99 19.27C10.94 19.3 10.85 19.32 10.72 19.33C10.59 19.34 10.32 19.35 9.91 19.35L6.07 19.35C5.67 19.35 5.4 19.34 5.27 19.33C5.14 19.32 5.05 19.3 5 19.27C4.94 19.24 4.88 19.2 4.83 19.16C4.79 19.11 4.75 19.05 4.72 18.99C4.69 18.94 4.67 18.85 4.66 18.72C4.65 18.59 4.64 18.32 4.64 17.92L4.64 14.08C4.64 13.67 4.65 13.4 4.66 13.27C4.67 13.14 4.69 13.05 4.72 13C4.75 12.94 4.79 12.88 4.83 12.83C4.88 12.79 4.94 12.75 5 12.72C5.05 12.69 5.14 12.67 5.27 12.66C5.4 12.65 5.67 12.65 6.07 12.65L9.91 12.65C10.32 12.65 10.59 12.65 10.72 12.66C10.85 12.67 10.94 12.69 10.99 12.72C11.05 12.75 11.11 12.79 11.15 12.83C11.2 12.88 11.24 12.94 11.27 13C11.3 13.05 11.32 13.14 11.33 13.27C11.34 13.4 11.34 13.67 11.34 14.08ZM12.64 17.92L12.64 14.08C12.64 13.67 12.65 13.4 12.66 13.27C12.67 13.14 12.69 13.05 12.72 13C12.75 12.94 12.79 12.88 12.83 12.83C12.88 12.79 12.94 12.75 13 12.72C13.05 12.69 13.14 12.67 13.27 12.66C13.4 12.65 13.67 12.65 14.07 12.65L17.91 12.65C18.32 12.65 18.59 12.65 18.72 12.66C18.85 12.67 18.94 12.69 18.99 12.72C19.05 12.75 19.11 12.79 19.15 12.83C19.2 12.88 19.24 12.94 19.27 13C19.3 13.05 19.32 13.14 19.33 13.27C19.34 13.4 19.34 13.67 19.34 14.08L19.34 17.92C19.34 18.32 19.34 18.59 19.33 18.72C19.32 18.85 19.3 18.94 19.27 18.99C19.24 19.05 19.2 19.11 19.15 19.16C19.11 19.2 19.05 19.24 18.99 19.27C18.94 19.3 18.85 19.32 18.72 19.33C18.59 19.34 18.32 19.35 17.91 19.35L14.07 19.35C13.67 19.35 13.4 19.34 13.27 19.33C13.14 19.32 13.05 19.3 13 19.27C12.94 19.24 12.88 19.2 12.83 19.16C12.79 19.11 12.75 19.05 12.72 18.99C12.69 18.94 12.67 18.85 12.66 18.72C12.65 18.59 12.64 18.32 12.64 17.92ZM8.99 13.35L6.99 13.35C6.63 13.35 6.34 13.63 6.34 14C6.34 14.36 6.63 14.65 6.99 14.65L8.99 14.65C9.36 14.65 9.64 14.36 9.64 14C9.64 13.63 9.36 13.35 8.99 13.35ZM14.99 13.35L16.99 13.35C17.36 13.35 17.64 13.63 17.64 14C17.64 14.36 17.36 14.65 16.99 14.65L14.99 14.65C14.63 14.65 14.34 14.36 14.34 14C14.34 13.63 14.63 13.35 14.99 13.35Z" fill="#74767B" fill-opacity="1.000000" fill-rule="evenodd"/>
	</g>
</svg>
