<svg width="24.000000" height="24.000000" viewBox="0 0 24 24" fill="none" xmlns="http://www.w3.org/2000/svg" xmlns:xlink="http://www.w3.org/1999/xlink">
	<desc>
			Created with Pixso.
	</desc>
	<defs>
		<clipPath id="clip9606_1065">
			<rect id="Outline / Branches Outline" width="24.000000" height="24.000000" fill="white" fill-opacity="0"/>
		</clipPath>
	</defs>
	<g clip-path="url(#clip9606_1065)">
		<path id="Shape" d="M6.64 8.93C7.99 8.63 9 7.43 9 6C9 4.34 7.65 3 6 3C4.34 3 3 4.34 3 6C3 7.43 4 8.63 5.35 8.93C5.35 8.95 5.35 8.97 5.35 9L5.35 15.07C4 15.36 3 16.56 3 18C3 19.65 4.34 21 6 21C7.42 21 8.61 20 8.92 18.67L15 18.67C17.01 18.67 18.64 17.03 18.64 15.02L18.64 14.92C19.99 14.63 21 13.43 21 12C21 10.34 19.65 9 18 9C16.34 9 15 10.34 15 12C15 13.43 16 14.63 17.34 14.92L17.34 15.02C17.34 16.31 16.29 17.37 15 17.37L8.93 17.37C8.68 16.22 7.79 15.32 6.65 15.07L6.65 9C6.65 8.97 6.64 8.95 6.64 8.93ZM7.69 6C7.69 6.93 6.93 7.7 6 7.7C5.06 7.7 4.3 6.93 4.3 6C4.3 5.06 5.06 4.29 6 4.29C6.93 4.29 7.69 5.06 7.69 6ZM18 13.7C18.93 13.7 19.7 12.93 19.7 12C19.7 11.06 18.93 10.3 18 10.3C17.06 10.3 16.29 11.06 16.29 12C16.29 12.93 17.06 13.7 18 13.7ZM7.69 18C7.69 18.93 6.93 19.7 6 19.7C5.06 19.7 4.3 18.93 4.3 18C4.3 17.06 5.06 16.29 6 16.29C6.93 16.29 7.69 17.06 7.69 18Z" fill="#74767B" fill-opacity="1.000000" fill-rule="evenodd"/>
	</g>
</svg>
