<svg viewBox="0 0 24 24" xmlns="http://www.w3.org/2000/svg" xmlns:xlink="http://www.w3.org/1999/xlink" width="24.000000" height="24.000000" fill="none">
	<rect id="Outline/Bug Outline" width="24.000000" height="24.000000" x="0.000000" y="0.000000" />
	<path id="Shape" d="M12.0037 3.01172C9.47266 3.01172 7.37746 4.76509 7.01862 7.04972C6.95863 7.43163 7.27776 7.74707 7.66436 7.74707L16.343 7.74707C16.7296 7.74707 17.0487 7.43163 16.9887 7.04972C16.6299 4.76509 14.5347 3.01172 12.0037 3.01172ZM12.0037 4.31172C13.6086 4.31172 14.9168 5.22472 15.4645 6.44707L8.54281 6.44707C9.09048 5.22472 10.3988 4.31172 12.0037 4.31172ZM3.11969 7.58015C3.33584 7.29353 3.74341 7.23639 4.03003 7.45253L6.14567 9.04793C6.16378 9.04652 6.18209 9.04581 6.20056 9.04581L17.7996 9.04581C17.8157 9.04581 17.8316 9.04635 17.8474 9.04742L19.9619 7.45289C20.2485 7.23674 20.6561 7.29388 20.8722 7.5805C21.0884 7.86713 21.0312 8.2747 20.7446 8.49084L18.5107 10.1754L18.4996 10.1836L18.4996 12.988L21.3442 12.988C21.7032 12.988 21.9942 13.279 21.9942 13.638C21.9942 13.997 21.7032 14.288 21.3442 14.288L18.4996 14.288L18.4996 14.3282C18.4996 15.3459 18.2856 16.3113 17.9022 17.178L19.6761 18.9519C19.93 19.2058 19.93 19.6173 19.6761 19.8712C19.4223 20.125 19.0107 20.125 18.7569 19.8712L17.2381 18.3524C16.0549 20.0333 14.1493 21.1241 12.0001 21.1241C9.80503 21.1241 7.86414 19.9863 6.68737 18.2441L5.0603 19.8712C4.80646 20.125 4.39491 20.125 4.14106 19.8712C3.88722 19.6173 3.88722 19.2058 4.14106 18.9519L6.04286 17.0501C5.69408 16.2167 5.50056 15.2961 5.50056 14.3282L5.50056 14.2881L2.64756 14.2881C2.28857 14.2881 1.99756 13.9971 1.99756 13.6381C1.99756 13.2791 2.28857 12.9881 2.64756 12.9881L5.50056 12.9881L5.50056 10.1891C5.49405 10.1846 5.48759 10.1799 5.4812 10.1751L3.24731 8.49049C2.96069 8.27434 2.90355 7.86677 3.11969 7.58015ZM11.35 19.7811C8.82559 19.4449 6.80056 17.1778 6.80056 14.3282L6.80056 10.3458L11.35 10.3458L11.35 19.7811ZM12.65 19.7811C15.1745 19.445 17.1996 17.1779 17.1996 14.3282L17.1996 10.3458L12.65 10.3458L12.65 19.7811Z" fill="rgb(116,118,123)" fill-rule="evenodd" />
	<path id="Shape" d="M16.6917 6.00667C16.4179 5.35596 15.9951 4.77588 15.4629 4.30358C14.5603 3.5027 13.343 3.01172 12.0037 3.01172C10.6643 3.01172 9.44697 3.50272 8.54442 4.30363C8.01217 4.77593 7.58938 5.35601 7.31559 6.00672C7.17631 6.33773 7.07558 6.68703 7.01862 7.04972C6.96083 7.41762 7.25485 7.72383 7.62209 7.74581C7.63608 7.74665 7.65017 7.74707 7.66436 7.74707L16.343 7.74707C16.3572 7.74707 16.3712 7.74665 16.3852 7.74581C16.7525 7.72383 17.0465 7.41762 16.9887 7.04972C16.9317 6.68701 16.831 6.3377 16.6917 6.00667ZM16.4154 9.04581L11.35 9.04581L7.59198 9.04581L7.59196 9.04581L6.20056 9.04581L6.19945 9.04581C6.18135 9.04584 6.16342 9.04655 6.14567 9.04793L6.14286 9.04581L4.03003 7.45253C3.74341 7.23639 3.33584 7.29353 3.11969 7.58015C2.90355 7.86677 2.96069 8.27434 3.24731 8.49049L3.24777 8.49083L5.4812 10.1751C5.48759 10.1799 5.49405 10.1846 5.50056 10.1891L5.50056 12.9881L2.64756 12.9881C2.28857 12.9881 1.99756 13.2791 1.99756 13.6381C1.99756 13.9971 2.28857 14.2881 2.64756 14.2881L5.50056 14.2881L5.50056 14.3282C5.50056 15.2961 5.69408 16.2167 6.04286 17.0501L6.04158 17.0514L4.14178 18.9512L4.14106 18.9519C3.88722 19.2058 3.88722 19.6173 4.14106 19.8712C4.39491 20.125 4.80646 20.125 5.0603 19.8712L5.06118 19.8703L6.68737 18.2441C6.9329 18.6076 7.21169 18.9448 7.51911 19.2508C7.62993 19.3612 7.74448 19.4674 7.86253 19.5694C8.80714 20.3856 9.97611 20.928 11.2582 21.0803C11.2888 21.0839 11.3194 21.0873 11.35 21.0905C11.5638 21.1127 11.7807 21.1241 12.0001 21.1241C12.2194 21.1241 12.4362 21.1127 12.65 21.0905C12.6807 21.0874 12.7112 21.084 12.7418 21.0803C14.0237 20.9281 15.1925 20.3859 16.1371 19.5699C16.2227 19.4959 16.3066 19.4196 16.3885 19.3412C16.7014 19.0416 16.9861 18.7104 17.2381 18.3524L17.2393 18.3535L18.1689 19.2832L18.7569 19.8712C19.0107 20.125 19.4223 20.125 19.6761 19.8712C19.93 19.6173 19.93 19.2058 19.6761 18.9519L17.9022 17.178C18.2856 16.3113 18.4996 15.3459 18.4996 14.3282L18.4996 14.288L21.3442 14.288C21.7032 14.288 21.9942 13.997 21.9942 13.638C21.9942 13.279 21.7032 12.988 21.3442 12.988L21.343 12.988L19.7996 12.988L18.4996 12.988L18.4996 11.688L18.4996 10.1838L18.4996 10.1836L18.5107 10.1754L20.7436 8.49163L20.7446 8.49084C21.0312 8.2747 21.0884 7.86713 20.8722 7.5805C20.6561 7.29388 20.2485 7.23674 19.9619 7.45289L19.9609 7.45368L17.8495 9.04581L17.8474 9.04742C17.8316 9.04635 17.8157 9.04581 17.7996 9.04581L16.4154 9.04581ZM17.1996 10.3458L15.8996 10.3458L13.95 10.3458L12.65 10.3458L12.65 19.7811C13.1023 19.7209 13.5385 19.5987 13.95 19.4222C14.7121 19.0955 15.3891 18.5827 15.9252 17.9331C16.0373 17.7973 16.1432 17.6556 16.2425 17.5083C16.3986 17.2767 16.5381 17.0315 16.6593 16.7744C16.8034 16.4685 16.9214 16.1457 17.0099 15.809C17.1334 15.3398 17.1996 14.8435 17.1996 14.3282L17.1996 14.288L17.1996 12.988L17.1996 11.6458L17.1996 10.3458ZM11.35 18.4655L11.35 11.6458L11.35 10.3458L10.05 10.3458L8.10056 10.3458L6.80056 10.3458L6.80056 11.6458L6.80056 12.9881L6.80056 14.3282C6.80056 14.7898 6.85369 15.2361 6.95347 15.6613C7.03606 16.0134 7.15061 16.351 7.29345 16.671C7.40974 16.9315 7.54478 17.1803 7.69659 17.4157C7.79895 17.5744 7.90894 17.727 8.02594 17.8729C8.56956 18.551 9.26459 19.0854 10.05 19.4222C10.4615 19.5986 10.8977 19.7208 11.35 19.7811L11.35 18.4655ZM11.9234 4.31247C11.9501 4.31197 11.9768 4.31172 12.0037 4.31172C12.0287 4.31172 12.0537 4.31194 12.0787 4.31238C12.2381 4.31519 12.3953 4.32698 12.5504 4.34775C13.2786 4.44488 13.9274 4.73303 14.4467 5.14707C14.4604 5.15804 14.4741 5.16909 14.4877 5.18023L14.4886 5.18103C14.9135 5.53005 15.2483 5.96445 15.4645 6.44707L8.54281 6.44707C8.75904 5.96445 9.09386 5.53005 9.51868 5.18103L9.51965 5.18023C9.53322 5.16909 9.54689 5.15804 9.56064 5.14707C10.0799 4.73303 10.7287 4.44489 11.4569 4.34776C11.6103 4.32721 11.7658 4.31545 11.9234 4.31247Z" fill="rgb(0,0,0)" fill-opacity="0" fill-rule="evenodd" />
</svg>
