<svg width="24.000000" height="24.000000" viewBox="0 0 24 24" fill="none" xmlns="http://www.w3.org/2000/svg" xmlns:xlink="http://www.w3.org/1999/xlink">
	<desc>
			Created with Pixso.
	</desc>
	<defs>
		<clipPath id="clip17_586">
			<rect id="Solid / Bus Solid" width="24.000000" height="24.000000" fill="white" fill-opacity="0"/>
		</clipPath>
	</defs>
	<g>
		<path id="Shape" d="M3 12.14C3 12.1 3 12.05 3 12L3 5.45C3 3.79 4.34 2.45 6 2.45L18 2.45C19.65 2.45 21 3.79 21 5.45L21 14.23C21 14.67 20.64 15.03 20.2 15.03L18.01 15.03C17.65 15.03 17.36 15.32 17.36 15.68C17.36 16.04 17.65 16.33 18.01 16.33L20.2 16.33C20.64 16.33 21 16.69 21 17.13L21 18.74L21 18.75L21 20.7C21 21.42 20.41 22 19.7 22L18.54 22C17.83 22 17.25 21.42 17.25 20.7L17.25 18.83C17.24 18.8 17.23 18.78 17.23 18.76C16.85 17.15 15.4 15.95 13.67 15.95L11.99 15.96L10.34 15.96C8.61 15.96 7.17 17.15 6.79 18.76C6.78 18.78 6.78 18.8 6.77 18.81L6.77 20.7C6.77 21.42 6.19 22 5.47 22L4.32 22C3.6 22 3.02 21.42 3.02 20.7L3.02 18.86C3.02 18.82 3.01 18.78 3.01 18.74L3.01 17.13C3.01 16.69 3.37 16.33 3.81 16.33L6 16.33C6.36 16.33 6.65 16.04 6.65 15.68C6.65 15.32 6.36 15.03 6 15.03L3.81 15.03C3.37 15.03 3.01 14.67 3.01 14.23L3.01 12.27C3.01 12.23 3.01 12.18 3 12.14ZM6 3.75L18 3.75C18.93 3.75 19.7 4.51 19.7 5.45L19.7 11.2C19.7 11.64 19.34 12 18.9 12L5.1 12C4.66 12 4.3 11.64 4.3 11.2L4.3 5.45C4.3 4.51 5.06 3.75 6 3.75ZM6.99 5.04C6.63 5.04 6.34 5.33 6.34 5.69C6.34 6.05 6.63 6.34 6.99 6.34L17.02 6.34C17.38 6.34 17.67 6.05 17.67 5.69C17.67 5.33 17.38 5.04 17.02 5.04L6.99 5.04ZM15.2 19.54C15.65 19.54 16.03 19.16 15.86 18.74C15.52 17.87 14.66 17.25 13.67 17.25L11.99 17.26L10.34 17.26C9.35 17.26 8.5 17.87 8.15 18.74C7.99 19.16 8.36 19.54 8.81 19.54L15.2 19.54Z" fill="#717681" fill-opacity="1.000000" fill-rule="evenodd"/>
	</g>
</svg>
