<svg width="24" height="24" viewBox="0 0 24 24" fill="none" xmlns="http://www.w3.org/2000/svg">
<path fill-rule="evenodd" clip-rule="evenodd" d="M5.01267 2.12388C5.29718 1.90497 5.70529 1.95816 5.9242 2.24268L10.3584 8.00588H12.8805C14.5794 8.00588 16.0245 6.7668 16.2837 5.08776C16.38 4.46411 16.9167 4.00388 17.5478 4.00388H18.6999C19.4179 4.00388 19.9999 4.58591 19.9999 5.30388L19.9999 20.5372L20.3287 20.9645C20.5476 21.249 20.4944 21.6571 20.2099 21.876C19.9253 22.0949 19.5172 22.0418 19.2983 21.7572L4.89387 3.03541C4.67496 2.75089 4.72815 2.34279 5.01267 2.12388ZM18.6999 18.8476L18.6999 5.30388H17.5657C17.2012 7.60777 15.2148 9.30588 12.8805 9.30588H11.3586L18.6999 18.8476Z" fill="#717681"/>
<path fill-rule="evenodd" clip-rule="evenodd" d="M6.98145 8.00588C7.04333 8.00588 7.1017 8.03462 7.13944 8.08366L7.70823 8.82294C7.86002 9.02022 7.71938 9.30588 7.47047 9.30588H6.98145C6.04256 9.30588 5.28145 10.067 5.28145 11.0059V13.0069C5.28145 13.9458 6.04256 14.7069 6.98145 14.7069H12.0384C12.1625 14.7069 12.2797 14.7646 12.3554 14.863L13.0298 15.7396C13.1128 15.8474 13.0258 16.0069 12.8896 16.0069H11.7696V18.707C11.7696 19.9733 10.743 20.9999 9.47666 20.9999C8.37463 20.9999 7.42848 20.2159 7.22368 19.1331L6.6285 15.9863C5.13797 15.8117 3.98145 14.5443 3.98145 13.0069V11.0059C3.98145 9.34902 5.32459 8.00588 6.98145 8.00588ZM8.50103 18.8915L7.95703 16.0153H10.4696V18.707C10.4696 19.2554 10.025 19.6999 9.47666 19.6999C8.99944 19.6999 8.58972 19.3604 8.50103 18.8915Z" fill="#717681"/>
<path d="M7.01994 12C7.01994 11.4502 7.46765 11 8.01994 11C8.57222 11 9.01994 11.4502 9.01994 12C9.01994 12.5498 8.57222 13 8.01994 13C7.46765 13 7.01994 12.5498 7.01994 12Z" fill="#717681"/>
</svg>
