<svg width="24.000000" height="24.000000" viewBox="0 0 24 24" fill="none" xmlns="http://www.w3.org/2000/svg" xmlns:xlink="http://www.w3.org/1999/xlink">
	<desc>
			Created with Pixso.
	</desc>
	<defs>
		<clipPath id="clip116957_1057">
			<rect id="Solid / Cancel Megaphone Solid" width="24.000000" height="24.000000" fill="white" fill-opacity="0"/>
		</clipPath>
	</defs>
	<g >
		<path id="Shape" d="M5.97 2.24C5.76 1.95 5.35 1.9 5.06 2.12C4.78 2.34 4.73 2.75 4.94 3.03L19.35 21.75C19.57 22.04 19.98 22.09 20.26 21.87C20.55 21.65 20.6 21.24 20.38 20.96L20 20.46L20 5.3C20 4.58 19.41 4 18.7 4L17.54 4C16.91 4 16.38 4.46 16.28 5.08C16.02 6.76 14.57 8 12.88 8L10.41 8L5.97 2.24ZM6.98 8L6.98 8C5.32 8 3.98 9.34 3.98 11L3.98 13C3.98 14.66 5.32 16 6.98 16L12.88 16C13.04 16 13.14 15.82 13.05 15.69L7.22 8.12C7.16 8.04 7.08 8 6.98 8ZM6.47 12C6.47 11.45 6.92 11 7.47 11C8.02 11 8.47 11.45 8.47 12C8.47 12.54 8.02 13 7.47 13C6.92 13 6.47 12.54 6.47 12ZM11.75 18.7L11.75 17.98C11.75 17.59 11.44 17.28 11.06 17.28L8.66 17.28C8.22 17.28 7.89 17.68 7.97 18.11L8.16 19.13C8.37 20.21 9.08 21 10.18 21C11.45 21 11.75 19.97 11.75 18.7Z" fill="#74767B" fill-opacity="1.000000" fill-rule="evenodd"/>
	</g>
</svg>
