<svg width="24.000000" height="24.000000" viewBox="0 0 24 24" fill="none" xmlns="http://www.w3.org/2000/svg" xmlns:xlink="http://www.w3.org/1999/xlink">
	<desc>
			Created with Pixso.
	</desc>
	<defs>
		<clipPath id="clip17_338">
			<rect id="Outline / Car Outline" width="24.000000" height="24.000000" fill="white" fill-opacity="0"/>
		</clipPath>
	</defs>
	<g clip-path="url(#clip17_338)">
		<path id="Shape" d="M16.41 4C17.53 4 18.56 4.62 19.08 5.62L21.15 9.65C21.67 10.19 22 10.92 22 11.73L22 18.6C22 19.71 21.1 20.6 20 20.6L19.01 20.6C17.91 20.6 17.01 19.71 17.01 18.6L17.01 17.99L6.98 17.99L6.98 18.6C6.98 19.71 6.08 20.6 4.98 20.6L4 20.6C2.89 20.6 2 19.71 2 18.6L2 11.73C2 10.92 2.32 10.19 2.84 9.65L4.91 5.62C5.43 4.62 6.46 4 7.58 4L16.41 4ZM7.58 5.29L16.41 5.29C17.05 5.29 17.63 5.65 17.92 6.22L19.2 8.7L4.79 8.7L6.07 6.22C6.36 5.65 6.94 5.29 7.58 5.29ZM18.31 17.99L20.7 17.99L20.7 18.6C20.7 18.99 20.38 19.3 20 19.3L19.01 19.3C18.62 19.3 18.31 18.99 18.31 18.6L18.31 17.99ZM3.29 17.99L5.68 17.99L5.68 18.6C5.68 18.99 5.37 19.3 4.98 19.3L4 19.3C3.61 19.3 3.29 18.99 3.29 18.6L3.29 17.99ZM5 10.03L19 10.03C19.82 10.03 20.5 10.62 20.66 11.39L18.59 11.39C18.23 11.39 17.94 11.68 17.94 12.04C17.94 12.4 18.23 12.69 18.59 12.69L20.7 12.69L20.7 16.7L18.07 16.7C18.06 16.67 18.05 16.65 18.05 16.62L16.71 13.28C16.26 12.14 15.15 11.39 13.93 11.39L10.06 11.39C8.84 11.39 7.73 12.14 7.28 13.28L5.94 16.62C5.94 16.65 5.93 16.67 5.92 16.7L3.29 16.7L3.29 12.69L5.4 12.69C5.76 12.69 6.05 12.4 6.05 12.04C6.05 11.68 5.76 11.39 5.4 11.39L3.33 11.39C3.49 10.62 4.17 10.03 5 10.03ZM7.32 16.7L16.67 16.7L15.51 13.76C15.25 13.11 14.62 12.69 13.93 12.69L10.06 12.69C9.37 12.69 8.74 13.11 8.48 13.76L7.32 16.7Z" fill="#74767B" fill-opacity="1.000000" fill-rule="evenodd"/>
	</g>
</svg>
