<svg width="24.000000" height="24.000000" viewBox="0 0 24 24" fill="none" xmlns="http://www.w3.org/2000/svg" xmlns:xlink="http://www.w3.org/1999/xlink">
	<desc>
			Created with Pixso.
	</desc>
	<defs>
		<clipPath id="clip5086_930">
			<rect id="Solid / Chair Solid" width="24.000000" height="24.000000" fill="white" fill-opacity="0"/>
		</clipPath>
	</defs>
	<g clip-path="url(#clip5086_930)">
		<path id="Shape" d="M7 6C7 4.34 8.34 3 10 3L14 3C15.65 3 17 4.34 17 6L17 11.99C17.58 12.24 18 12.82 18 13.5C18 13.55 18 13.61 18 13.67L18 20.45C18 20.81 17.7 21.1 17.35 21.1C16.99 21.1 16.7 20.81 16.7 20.45L16.7 15.09C16.59 15.11 16.48 15.12 16.37 15.12L7.62 15.12C7.51 15.12 7.4 15.11 7.29 15.09L7.29 20.45C7.29 20.81 7 21.1 6.64 21.1C6.29 21.1 6 20.81 6 20.45L6 13.67C6 13.61 6 13.55 6 13.5C6 12.82 6.41 12.24 7 11.99L7 6ZM8.29 11.87L15.7 11.87L15.7 9L8.29 9L8.29 11.87Z" fill="#717681" fill-opacity="1.000000" fill-rule="evenodd"/>
	</g>
</svg>
