<svg width="24.000000" height="24.000000" viewBox="0 0 24 24" fill="none" xmlns="http://www.w3.org/2000/svg" xmlns:xlink="http://www.w3.org/1999/xlink">
	<desc>
			Created with Pixso.
	</desc>
	<defs>
		<clipPath id="clip17_268">
			<rect id="Solid / Chart Solid" width="24.000000" height="24.000000" fill="white" fill-opacity="0"/>
		</clipPath>
	</defs>
	<g clip-path="url(#clip17_268)">
		<path id="Shape" d="M17.07 7.68C18.18 7.68 19.07 6.78 19.07 5.68C19.07 4.57 18.18 3.68 17.07 3.68C15.97 3.68 15.07 4.57 15.07 5.68C15.07 5.97 15.14 6.25 15.25 6.5L13.01 8.58C12.71 8.4 12.37 8.3 12 8.3C11.42 8.3 10.91 8.54 10.55 8.92L8.89 8.03C8.91 7.92 8.92 7.8 8.92 7.68C8.92 6.57 8.02 5.68 6.92 5.68C5.81 5.68 4.92 6.57 4.92 7.68C4.92 8.78 5.81 9.68 6.92 9.68C7.43 9.68 7.9 9.48 8.25 9.17L10 10.11C10 10.17 10 10.24 10 10.3C10 11.41 10.89 12.3 12 12.3C13.1 12.3 14 11.41 14 10.3C14 10.04 13.95 9.79 13.86 9.57L16.14 7.45C16.42 7.59 16.74 7.68 17.07 7.68ZM18.73 18.68L18.73 10.68C18.73 9.77 17.99 9.03 17.08 9.03C16.16 9.03 15.43 9.77 15.43 10.68L15.43 18.68L13.65 18.68L13.65 15.24C13.65 14.33 12.91 13.59 12 13.59C11.08 13.59 10.34 14.33 10.34 15.24L10.34 18.68L8.56 18.68L8.56 12.68C8.56 11.77 7.82 11.03 6.91 11.03C6 11.03 5.26 11.77 5.26 12.68L5.26 18.68L3.93 18.68C3.57 18.68 3.28 18.97 3.28 19.33C3.28 19.69 3.57 19.98 3.93 19.98L6.2 19.98L6.21 19.98L7.61 19.98L7.62 19.98L11.28 19.98L11.29 19.98L12.7 19.98L12.71 19.98L16.37 19.98L16.38 19.98L17.78 19.98L17.79 19.98L20.06 19.98C20.42 19.98 20.71 19.69 20.71 19.33C20.71 18.97 20.42 18.68 20.06 18.68L18.73 18.68Z" fill="#717681" fill-opacity="1.000000" fill-rule="evenodd"/>
	</g>
</svg>
