<svg width="24.000000" height="24.000000" viewBox="0 0 24 24" fill="none" xmlns="http://www.w3.org/2000/svg" xmlns:xlink="http://www.w3.org/1999/xlink">
	<desc>
			Created with Pixso.
	</desc>
	<defs>
		<clipPath id="clip17_265">
			<rect id="Outline / Chart Outline" width="24.000000" height="24.000000" fill="white" fill-opacity="0"/>
		</clipPath>
	</defs>
	<g >
		<path id="Shape" d="M19.02 18.69L19.02 10.99C19.02 9.91 18.15 9.04 17.07 9.04C16 9.04 15.12 9.91 15.12 10.99L15.12 18.69L13.95 18.69L13.95 15.55C13.95 14.47 13.07 13.6 12 13.6C10.92 13.6 10.05 14.47 10.05 15.55L10.05 18.69L8.87 18.69L8.87 12.99C8.87 11.91 7.99 11.04 6.92 11.04C5.84 11.04 4.97 11.91 4.97 12.99L4.97 18.69L3.93 18.69C3.57 18.69 3.28 18.98 3.28 19.34C3.28 19.7 3.57 19.99 3.93 19.99L5.92 19.99C5.92 19.99 5.92 19.99 5.92 19.99L7.92 19.99C7.92 19.99 7.92 19.99 7.92 19.99L10.99 19.99C10.99 19.99 10.99 19.99 10.99 19.99L13 19.99C13 19.99 13 19.99 13 19.99L16.07 19.99C16.07 19.99 16.07 19.99 16.07 19.99L18.07 19.99C18.07 19.99 18.07 19.99 18.07 19.99L20.06 19.99C20.42 19.99 20.71 19.7 20.71 19.34C20.71 18.98 20.42 18.69 20.06 18.69L19.02 18.69ZM17.72 18.69L17.72 10.99C17.72 10.63 17.43 10.34 17.07 10.34C16.71 10.34 16.42 10.63 16.42 10.99L16.42 18.69L17.72 18.69ZM6.27 18.69L6.27 12.99C6.27 12.63 6.56 12.34 6.92 12.34C7.28 12.34 7.57 12.63 7.57 12.99L7.57 18.69L6.27 18.69ZM11.35 18.69L12.64 18.69L12.64 15.55C12.64 15.19 12.35 14.9 12 14.9C11.64 14.9 11.35 15.19 11.35 15.55L11.35 18.69Z" fill="#74767B" fill-opacity="1.000000" fill-rule="evenodd"/>
		<path id="Shape" d="M19.07 5.69C19.07 6.79 18.18 7.69 17.07 7.69C16.74 7.69 16.42 7.6 16.14 7.46L13.86 9.58C13.85 9.56 13.84 9.55 13.84 9.53C13.94 9.77 14 10.03 14 10.31C14 11.42 13.1 12.31 12 12.31C10.89 12.31 10 11.42 10 10.31C10 10.25 10 10.18 10 10.12L8.25 9.18C7.9 9.49 7.43 9.69 6.92 9.69C5.81 9.69 4.92 8.79 4.92 7.69C4.92 6.58 5.81 5.69 6.92 5.69C8.02 5.69 8.92 6.58 8.92 7.69C8.92 7.81 8.91 7.93 8.89 8.04L10.55 8.93C10.51 8.97 10.48 9 10.45 9.04C10.82 8.59 11.37 8.31 12 8.31C12.37 8.31 12.71 8.41 13.01 8.59C13.01 8.59 13.01 8.59 13.01 8.59L15.25 6.51C15.14 6.26 15.07 5.98 15.07 5.69C15.07 4.58 15.97 3.69 17.07 3.69C18.18 3.69 19.07 4.58 19.07 5.69ZM17.77 5.69C17.77 6.07 17.46 6.39 17.07 6.39C16.69 6.39 16.37 6.07 16.37 5.69C16.37 5.3 16.69 4.99 17.07 4.99C17.46 4.99 17.77 5.3 17.77 5.69ZM7.62 7.69C7.62 8.07 7.3 8.39 6.92 8.39C6.53 8.39 6.22 8.07 6.22 7.69C6.22 7.3 6.53 6.99 6.92 6.99C7.3 6.99 7.62 7.3 7.62 7.69ZM12 11.01C12.38 11.01 12.7 10.7 12.7 10.31C12.7 9.92 12.38 9.61 12 9.61C11.61 9.61 11.3 9.92 11.3 10.31C11.3 10.7 11.61 11.01 12 11.01Z" fill="#74767B" fill-opacity="1.000000" fill-rule="evenodd"/>
	</g>
</svg>
