<svg width="24.000000" height="24.000000" viewBox="0 0 24 24" fill="none" xmlns="http://www.w3.org/2000/svg" xmlns:xlink="http://www.w3.org/1999/xlink">
	<desc>
			Created with Pixso.
	</desc>
	<defs>
		<clipPath id="clip17_220">
			<rect id="Solid / Chat Solid" width="24.000000" height="24.000000" fill="white" fill-opacity="0"/>
		</clipPath>
	</defs>
	<g clip-path="url(#clip17_220)">
		<path id="Shape" d="M4 8C4 6.34 5.34 5 7 5L17 5C18.65 5 20 6.34 20 8L20 14C20 15.65 18.65 17 17 17L9.52 17L6.11 19.73C5.26 20.41 4 19.8 4 18.71L4 8ZM8.5 10C9.05 10 9.5 10.44 9.5 11C9.5 11.55 9.05 12 8.5 12C7.94 12 7.5 11.55 7.5 11C7.5 10.44 7.94 10 8.5 10ZM15.5 10C16.05 10 16.5 10.44 16.5 11C16.5 11.55 16.05 12 15.5 12C14.94 12 14.5 11.55 14.5 11C14.5 10.44 14.94 10 15.5 10ZM12 10C12.55 10 13 10.44 13 11C13 11.55 12.55 12 12 12C11.44 12 11 11.55 11 11C11 10.44 11.44 10 12 10Z" fill="#74767B" fill-opacity="1.000000" fill-rule="evenodd"/>
	</g>
</svg>
