<svg width="24.000000" height="24.000000" viewBox="0 0 24 24" fill="none" xmlns="http://www.w3.org/2000/svg" xmlns:xlink="http://www.w3.org/1999/xlink">
	<desc>
			Created with Pixso.
	</desc>
	<defs>
		<clipPath id="clip17_217">
			<rect id="Outline / Chat Outline" width="24.000000" height="24.000000" fill="white" fill-opacity="0"/>
		</clipPath>
	</defs>
	<g >
		<path id="Shape" d="M4 8C4 6.34 5.34 5 7 5L17 5C18.65 5 20 6.34 20 8L20 14C20 15.65 18.65 17 17 17L9.52 17L6.11 19.72C5.26 20.4 4 19.8 4 18.71L4 8ZM5.29 18.71L9.06 15.7L17 15.7C17.93 15.7 18.7 14.93 18.7 14L18.7 8C18.7 7.06 17.93 6.3 17 6.3L7 6.3C6.06 6.3 5.29 7.06 5.29 8L5.29 18.71ZM9.5 11C9.5 10.44 9.05 10 8.5 10C7.94 10 7.5 10.44 7.5 11C7.5 11.55 7.94 12 8.5 12C9.05 12 9.5 11.55 9.5 11ZM12 10C12.55 10 13 10.44 13 11C13 11.55 12.55 12 12 12C11.44 12 11 11.55 11 11C11 10.44 11.44 10 12 10ZM16.5 11C16.5 10.44 16.05 10 15.5 10C14.94 10 14.5 10.44 14.5 11C14.5 11.55 14.94 12 15.5 12C16.05 12 16.5 11.55 16.5 11Z" fill="#74767B" fill-opacity="1.000000" fill-rule="evenodd"/>
	</g>
</svg>
