<svg width="24.000000" height="24.000000" viewBox="0 0 24 24" fill="none" xmlns="http://www.w3.org/2000/svg" xmlns:xlink="http://www.w3.org/1999/xlink">
	<desc>
			Created with Pixso.
	</desc>
	<defs>
		<clipPath id="clip5563_769">
			<rect id="Outline / Chess King Outline" width="24.000000" height="24.000000" fill="white" fill-opacity="0"/>
		</clipPath>
	</defs>
	<g clip-path="url(#clip5563_769)">
		<path id="Shape" d="M12.64 8.1L12.64 6.42L14.33 6.42C14.69 6.42 14.98 6.13 14.98 5.77C14.98 5.42 14.69 5.12 14.33 5.12L12.64 5.12L12.64 3.65C12.64 3.29 12.35 3 11.99 3C11.64 3 11.34 3.29 11.34 3.65L11.34 5.12L9.66 5.12C9.3 5.12 9.01 5.42 9.01 5.77C9.01 6.13 9.3 6.42 9.66 6.42L11.34 6.42L11.34 8.1L7.95 8.1C5.97 8.1 4.53 9.99 5.06 11.9L6.6 17.5C6.76 18.07 7.27 18.46 7.85 18.46L16.14 18.46C16.72 18.46 17.23 18.07 17.39 17.5L18.93 11.9C19.46 9.99 18.02 8.1 16.04 8.1L12.64 8.1ZM7.85 17.16L6.31 11.55C6.01 10.47 6.83 9.4 7.95 9.4L16.04 9.4C17.16 9.4 17.98 10.47 17.68 11.55L16.14 17.16L7.85 17.16ZM5.02 20.41C5.02 20.05 5.31 19.76 5.67 19.76L18.32 19.76C18.68 19.76 18.97 20.05 18.97 20.41C18.97 20.77 18.68 21.06 18.32 21.06L5.67 21.06C5.31 21.06 5.02 20.77 5.02 20.41Z" fill="#717681" fill-opacity="1.000000" fill-rule="evenodd"/>
	</g>
</svg>
