<svg width="24.000000" height="24.000000" viewBox="0 0 24 24" fill="none" xmlns="http://www.w3.org/2000/svg" xmlns:xlink="http://www.w3.org/1999/xlink">
	<desc>
			Created with Pixso.
	</desc>
	<defs>
		<clipPath id="clip17_532">
			<rect id="Solid / Chip Solid" width="24.000000" height="24.000000" fill="white" fill-opacity="0"/>
		</clipPath>
	</defs>
	<g >
		<path id="Shape" d="M11.35 5.94L11.35 2.94C11.35 2.58 11.64 2.29 12 2.29C12.35 2.29 12.64 2.58 12.64 2.94L12.64 5.94L14.35 5.94L14.35 3.94C14.35 3.58 14.64 3.29 15 3.29C15.35 3.29 15.64 3.58 15.64 3.94L15.64 6.01C16.78 6.26 17.67 7.16 17.92 8.29L20 8.29C20.35 8.29 20.65 8.58 20.65 8.94C20.65 9.3 20.35 9.59 20 9.59L18 9.59L18 11.29L21 11.29C21.35 11.29 21.65 11.58 21.65 11.94C21.65 12.3 21.35 12.59 21 12.59L18 12.59L18 14.29L20 14.29C20.35 14.29 20.65 14.58 20.65 14.94C20.65 15.3 20.35 15.59 20 15.59L17.92 15.59C17.67 16.73 16.78 17.62 15.64 17.87L15.64 19.94C15.64 20.3 15.35 20.59 15 20.59C14.64 20.59 14.35 20.3 14.35 19.94L14.35 17.94L12.64 17.94L12.64 20.94C12.64 21.3 12.35 21.59 12 21.59C11.64 21.59 11.35 21.3 11.35 20.94L11.35 17.94L9.64 17.94L9.64 19.94C9.64 20.3 9.35 20.59 9 20.59C8.64 20.59 8.35 20.3 8.35 19.94L8.35 17.87C7.21 17.62 6.32 16.73 6.07 15.59L4 15.59C3.64 15.59 3.35 15.3 3.35 14.94C3.35 14.58 3.64 14.29 4 14.29L6 14.29L6 12.59L3 12.59C2.64 12.59 2.35 12.3 2.35 11.94C2.35 11.58 2.64 11.29 3 11.29L6 11.29L6 9.59L4 9.59C3.64 9.59 3.35 9.3 3.35 8.94C3.35 8.58 3.64 8.29 4 8.29L6.07 8.29C6.32 7.16 7.21 6.26 8.35 6.01L8.35 3.94C8.35 3.58 8.64 3.29 9 3.29C9.35 3.29 9.64 3.58 9.64 3.94L9.64 5.94L11.35 5.94ZM14.39 14.94C14.73 14.94 15 14.67 15 14.34L15 9.54C15 9.21 14.73 8.94 14.39 8.94L9.6 8.94C9.26 8.94 9 9.21 9 9.54L9 14.34C9 14.67 9.26 14.94 9.6 14.94L14.39 14.94ZM13.39 13.64C13.56 13.64 13.7 13.51 13.7 13.34L13.7 10.54C13.7 10.38 13.56 10.24 13.39 10.24L10.6 10.24C10.43 10.24 10.29 10.38 10.29 10.54L10.29 13.34C10.29 13.51 10.43 13.64 10.6 13.64L13.39 13.64Z" fill="#74767B" fill-opacity="1.000000" fill-rule="evenodd"/>
	</g>
</svg>
