<svg width="24.000000" height="24.000000" viewBox="0 0 24 24" fill="none" xmlns="http://www.w3.org/2000/svg" xmlns:xlink="http://www.w3.org/1999/xlink">
	<desc>
			Created with Pixso.
	</desc>
	<defs>
		<clipPath id="clip1100_1481">
			<rect id="Outline / City Outline" width="24.000000" height="24.000000" fill="white" fill-opacity="0"/>
		</clipPath>
	</defs>
	<g >
		<path id="Shape" d="M12.86 2.58L12.86 3.67L14.26 3.67C14.35 3.67 14.45 3.68 14.54 3.69C14.62 3.71 14.7 3.74 14.78 3.77C14.86 3.8 14.93 3.84 15 3.89C15.08 3.94 15.15 4 15.21 4.06C15.28 4.12 15.33 4.19 15.38 4.27C15.43 4.34 15.47 4.41 15.5 4.49C15.53 4.57 15.56 4.65 15.58 4.73C15.6 4.82 15.61 4.92 15.61 5.02L15.61 7.36L18.92 6.13C19.04 6.08 19.16 6.06 19.28 6.05C19.38 6.04 19.48 6.04 19.58 6.06C19.68 6.07 19.78 6.09 19.87 6.13C19.97 6.17 20.07 6.22 20.16 6.28C20.26 6.35 20.34 6.42 20.41 6.51C20.48 6.58 20.54 6.66 20.58 6.75C20.63 6.84 20.67 6.94 20.7 7.04C20.73 7.15 20.74 7.27 20.74 7.39L20.74 19.63C20.74 19.72 20.73 19.82 20.71 19.91C20.7 19.99 20.67 20.07 20.64 20.15C20.6 20.23 20.57 20.3 20.52 20.37C20.47 20.45 20.41 20.52 20.35 20.58C20.29 20.64 20.22 20.7 20.14 20.75C20.07 20.8 20 20.84 19.92 20.87C19.84 20.9 19.76 20.93 19.68 20.95C19.59 20.97 19.49 20.98 19.39 20.98L13.75 20.98L10.54 20.98L4.6 20.97C4.5 20.97 4.41 20.97 4.31 20.95C4.23 20.93 4.15 20.9 4.07 20.87C3.99 20.84 3.92 20.8 3.85 20.75C3.77 20.7 3.71 20.64 3.64 20.58C3.58 20.52 3.52 20.45 3.47 20.37C3.42 20.3 3.39 20.23 3.35 20.15C3.32 20.07 3.29 19.99 3.28 19.91C3.26 19.82 3.25 19.72 3.25 19.62L3.25 13.37C3.25 12.89 3.29 12.43 3.39 11.98C3.49 11.52 3.63 11.08 3.83 10.65C4.02 10.22 4.25 9.81 4.53 9.44C4.8 9.07 5.11 8.72 5.46 8.41L7.02 7.02C7.14 6.91 7.28 6.85 7.45 6.85C7.62 6.85 7.76 6.91 7.88 7.02L8.8 7.84L8.8 5.02C8.8 4.92 8.81 4.82 8.83 4.73C8.85 4.65 8.88 4.57 8.91 4.49C8.94 4.41 8.98 4.34 9.03 4.27C9.08 4.19 9.14 4.12 9.2 4.06C9.26 4 9.33 3.94 9.41 3.89C9.48 3.84 9.55 3.8 9.63 3.77C9.71 3.74 9.79 3.71 9.87 3.69C9.96 3.68 10.06 3.67 10.15 3.67L11.56 3.67L11.56 2.58C11.56 2.22 11.84 1.93 12.21 1.93C12.57 1.93 12.86 2.22 12.86 2.58ZM14.35 7.82C14.32 7.75 14.31 7.67 14.31 7.59L14.26 4.97L10.1 5.02L10.1 9.1C10.2 9.21 10.29 9.32 10.37 9.44C10.65 9.81 10.88 10.22 11.07 10.65C11.27 11.08 11.41 11.52 11.51 11.98C11.6 12.43 11.65 12.89 11.65 13.36L11.65 19.68L13.1 19.67L13.1 9.22C13.1 9.08 13.12 8.95 13.16 8.82C13.21 8.69 13.27 8.57 13.35 8.45C13.43 8.34 13.52 8.24 13.63 8.16C13.73 8.07 13.85 8.01 13.99 7.96L14.35 7.82ZM19.38 7.35L14.44 9.18L14.4 19.68L19.44 19.63L19.43 16.62L16.66 16.62C16.3 16.62 16.02 16.33 16.02 15.97C16.02 15.6 16.3 15.32 16.66 15.32L19.42 15.32L19.41 14.01L16.66 14.01C16.3 14.01 16.02 13.72 16.02 13.36C16.02 12.99 16.3 12.71 16.66 12.71L19.41 12.71L19.4 11.39L16.66 11.39C16.3 11.39 16.02 11.11 16.02 10.74C16.02 10.38 16.3 10.09 16.66 10.09L19.39 10.09L19.38 7.35ZM4.55 13.37L4.55 19.62L10.35 19.67L10.35 13.36C10.35 12.98 10.31 12.61 10.24 12.25C10.16 11.88 10.04 11.53 9.89 11.18C9.73 10.83 9.54 10.51 9.32 10.21C9.1 9.91 8.85 9.63 8.57 9.38L7.45 8.38L6.33 9.38C6.05 9.63 5.79 9.91 5.58 10.21C5.36 10.51 5.17 10.83 5.01 11.18C4.86 11.53 4.74 11.88 4.66 12.25C4.58 12.61 4.55 12.98 4.55 13.37ZM8.37 12.64L6.53 12.64C6.16 12.64 5.88 12.36 5.88 11.99C5.88 11.63 6.16 11.34 6.53 11.34L8.37 11.34C8.73 11.34 9.02 11.63 9.02 11.99C9.02 12.36 8.73 12.64 8.37 12.64ZM8.37 15.26L6.53 15.26C6.16 15.26 5.88 14.97 5.88 14.61C5.88 14.24 6.16 13.96 6.53 13.96L8.37 13.96C8.73 13.96 9.02 14.24 9.02 14.61C9.02 14.97 8.73 15.26 8.37 15.26ZM8.37 17.87L6.53 17.87C6.16 17.87 5.88 17.58 5.88 17.22C5.88 16.85 6.16 16.57 6.53 16.57L8.37 16.57C8.73 16.57 9.02 16.85 9.02 17.22C9.02 17.58 8.73 17.87 8.37 17.87Z" fill="#74767B" fill-opacity="1.000000" fill-rule="evenodd"/>
	</g>
</svg>
