<svg viewBox="0 0 24 24" xmlns="http://www.w3.org/2000/svg" xmlns:xlink="http://www.w3.org/1999/xlink" width="24.000000" height="24.000000" fill="none">
	<rect id="Outline/Clean Outline" width="24.000000" height="24.000000" x="0.000000" y="0.000000" />
	<path id="Shape" d="M16.2981 3.28729C16.8502 2.22144 18.1618 1.80493 19.2276 2.35701C20.2952 2.90996 20.711 4.22457 20.1556 5.29087L17.6427 10.1157C18.215 11.0081 18.3843 12.1373 18.008 13.2078C17.8481 13.6626 17.672 14.1525 17.4872 14.6487C17.4752 14.7064 17.455 14.7634 17.4262 14.8182L17.4183 14.833C17.1394 15.5751 16.8432 16.3232 16.5546 16.9809C15.8232 18.6479 14.9714 20.0178 14.4863 20.7443C14.1027 21.3188 13.3881 21.5771 12.7195 21.3513C11.8471 21.0566 10.226 20.4206 8.41789 19.2707C5.8074 17.6104 4.38416 16.2927 3.65414 15.4883C3.31834 15.1183 3.30532 14.6401 3.47812 14.2752C3.64355 13.9259 3.98315 13.6565 4.40156 13.5919C5.11694 13.4813 6.26894 13.1698 7.66244 12.3053C8.63984 11.699 9.78362 10.5116 10.7133 9.42355C11.5024 8.50012 12.6722 7.97837 13.8533 8.0188C13.8627 7.99302 13.8739 7.96755 13.8868 7.94253L16.2981 3.28729ZM19.0026 4.69036L16.695 9.1211C16.5481 9.01652 16.392 8.9218 16.2272 8.83826L15.3902 8.41388C15.3147 8.3756 15.2385 8.34021 15.1618 8.30764L17.4524 3.8852C17.6743 3.45687 18.2014 3.28949 18.6297 3.51135C19.0587 3.73356 19.2258 4.26185 19.0026 4.69036ZM6.4468 8.53342C6.4468 9.05349 6.0252 9.47509 5.50514 9.47509C4.98507 9.47509 4.56348 9.05349 4.56348 8.53343C4.56348 8.01336 4.98507 7.59176 5.50514 7.59176C6.0252 7.59176 6.4468 8.01336 6.4468 8.53342ZM16.4902 13.5929C16.5913 13.3139 16.689 13.04 16.7816 12.7766C17.1582 11.7054 16.6706 10.5206 15.6393 9.99774L14.8023 9.57336C13.7756 9.05281 12.4869 9.34911 11.7017 10.2681C11.5475 10.4485 11.3846 10.6352 11.2148 10.8245L16.4902 13.5929ZM3.88332 11.428C3.88332 11.948 3.46173 12.3696 2.94166 12.3696C2.4216 12.3696 2 11.948 2 11.428C2 10.9079 2.4216 10.4863 2.94166 10.4863C3.46173 10.4863 3.88332 10.9079 3.88332 11.428ZM10.2867 11.8055C9.65859 12.4305 8.9892 13.0121 8.34774 13.41C6.92378 14.2934 5.69552 14.6764 4.82603 14.8381C5.27482 15.3037 5.96828 15.9422 7.00329 16.7199C7.03028 16.7093 7.06666 16.6938 7.11176 16.6718C7.25611 16.6013 7.49335 16.4621 7.7998 16.1993C8.07318 15.9648 8.48927 15.99 8.72916 16.2554C8.96905 16.5209 8.9419 16.9262 8.66852 17.1607C8.48678 17.3165 8.31748 17.4438 8.16309 17.5477C8.4599 17.7496 8.77697 17.9584 9.11554 18.1737C9.5319 18.4385 9.93764 18.6741 10.3247 18.883L10.341 18.8688C10.3568 18.8547 10.3824 18.8316 10.4161 18.7996C10.4837 18.7354 10.584 18.6358 10.7051 18.5015C10.9476 18.2325 11.2716 17.8273 11.585 17.2934C11.7672 16.983 12.1678 16.8738 12.4799 17.0495C12.7919 17.2251 12.8972 17.6191 12.715 17.9295C12.3492 18.5528 11.969 19.0294 11.6773 19.3529C11.6328 19.4022 11.5902 19.4481 11.5501 19.4904C12.2036 19.7862 12.7518 19.99 13.1355 20.1196C13.2332 20.1526 13.3396 20.1205 13.4052 20.0224C13.865 19.3337 14.6735 18.0326 15.3642 16.4586C15.5847 15.9561 15.8114 15.3946 16.0322 14.8207L10.2952 11.8101L10.2867 11.8055Z" fill="rgb(116,118,123)" fill-rule="evenodd" />
</svg>
