<svg width="24.000000" height="24.000000" viewBox="0 0 24 24" fill="none" xmlns="http://www.w3.org/2000/svg" xmlns:xlink="http://www.w3.org/1999/xlink">
	<desc>
			Created with Pixso.
	</desc>
	<defs>
		<clipPath id="clip17_550">
			<rect id="Solid / Clipboard Solid" width="24.000000" height="24.000000" fill="white" fill-opacity="0"/>
		</clipPath>
	</defs>
	<g clip-path="url(#clip17_550)">
		<path id="Shape" d="M10.12 5C10.04 4.78 10 4.54 10 4.3C10 3.19 10.89 2.3 12 2.3C13.1 2.3 14 3.19 14 4.3C14 4.54 13.95 4.78 13.87 5L16 5C17.65 5 19 6.34 19 8L19 18C19 19.65 17.65 21 16 21L8 21C6.34 21 5 19.65 5 18L5 8C5 6.34 6.34 5 8 5L10.12 5ZM11.99 5C11.6 4.99 11.29 4.68 11.29 4.3C11.29 3.91 11.61 3.6 12 3.6C12.38 3.6 12.7 3.91 12.7 4.3C12.7 4.68 12.39 4.99 12 5L11.99 5ZM11.98 6.29L9.34 6.29C9.52 7.04 10.19 7.59 11 7.59L13 7.59C13.8 7.59 14.47 7.04 14.65 6.29L12.01 6.29C12 6.3 12 6.3 12 6.3C11.99 6.3 11.99 6.3 11.98 6.29ZM14.43 11.52C14.7 11.76 14.72 12.17 14.47 12.43L12.19 14.92C11.82 15.32 11.2 15.33 10.82 14.95L9.54 13.67C9.28 13.42 9.28 13 9.54 12.75C9.79 12.5 10.2 12.5 10.45 12.75L11.48 13.77L13.52 11.56C13.76 11.29 14.17 11.27 14.43 11.52Z" fill="#74767B" fill-opacity="1.000000" fill-rule="evenodd"/>
	</g>
</svg>
