<svg width="24.000000" height="24.000000" viewBox="0 0 24 24" fill="none" xmlns="http://www.w3.org/2000/svg" xmlns:xlink="http://www.w3.org/1999/xlink">
	<desc>
			Created with Pixso.
	</desc>
	<defs>
		<clipPath id="clip17_547">
			<rect id="Outline / Clipboard Outline" width="24.000000" height="24.000000" fill="white" fill-opacity="0"/>
		</clipPath>
	</defs>
	<g >
		<path id="Shape" d="M10 4.3C10 4.54 10.04 4.78 10.12 5L8 5C6.34 5 5 6.34 5 8L5 18C5 19.65 6.34 21 8 21L16 21C17.65 21 19 19.65 19 18L19 8C19 6.34 17.65 5 16 5L13.87 5C13.95 4.78 14 4.54 14 4.3C14 3.19 13.1 2.3 12 2.3C10.89 2.3 10 3.19 10 4.3ZM11.29 4.3C11.29 4.68 11.6 4.99 11.99 5L12 5C12.39 4.99 12.7 4.68 12.7 4.3C12.7 3.91 12.38 3.6 12 3.6C11.61 3.6 11.29 3.91 11.29 4.3ZM8.02 6.29L8 6.29C7.06 6.29 6.29 7.06 6.29 8L6.29 18C6.29 18.93 7.06 19.7 8 19.7L16 19.7C16.93 19.7 17.7 18.93 17.7 18L17.7 8C17.7 7.06 16.93 6.29 16 6.29L15.97 6.29C15.77 7.76 14.52 8.9 13 8.9L11 8.9C9.47 8.9 8.22 7.76 8.02 6.29ZM9.34 6.29L11.98 6.29L12 6.3L12.01 6.29L14.65 6.29C14.47 7.04 13.8 7.59 13 7.59L11 7.59C10.19 7.59 9.52 7.04 9.34 6.29ZM14.43 11.52C14.7 11.76 14.72 12.17 14.47 12.43L12.19 14.92C11.82 15.32 11.2 15.33 10.82 14.95L9.54 13.67C9.28 13.42 9.28 13 9.54 12.75C9.79 12.5 10.2 12.5 10.45 12.75L11.48 13.77L13.52 11.56C13.76 11.29 14.17 11.27 14.43 11.52Z" fill="#74767B" fill-opacity="1.000000" fill-rule="evenodd"/>
	</g>
</svg>
