<svg width="24.000000" height="24.000000" viewBox="0 0 24 24" fill="none" xmlns="http://www.w3.org/2000/svg" xmlns:xlink="http://www.w3.org/1999/xlink">
	<desc>
			Created with Pixso.
	</desc>
	<defs>
		<clipPath id="clip17_481">
			<rect id="Outline / Color Outline" width="24.000000" height="24.000000" fill="white" fill-opacity="0"/>
		</clipPath>
	</defs>
	<g >
		<path id="Shape" d="M3.35 12C3.35 7.22 7.22 3.34 12 3.34C16.77 3.34 20.64 7.22 20.64 12C20.64 16.77 16.77 20.65 12 20.65C7.22 20.65 3.35 16.77 3.35 12ZM7.51 6.59C7.39 6.47 7.39 6.26 7.53 6.15C8.53 5.39 9.72 4.88 11.02 4.71C11.19 4.69 11.35 4.82 11.35 5L11.35 7.61C11.35 7.76 11.24 7.88 11.09 7.92C10.61 8.02 10.15 8.21 9.75 8.47C9.62 8.55 9.46 8.54 9.36 8.44L7.51 6.59ZM8.47 9.75C8.55 9.62 8.54 9.46 8.44 9.36L6.59 7.51C6.47 7.38 6.26 7.39 6.15 7.53C5.39 8.53 4.88 9.72 4.71 11.02C4.69 11.19 4.83 11.35 5 11.35L7.61 11.35C7.76 11.35 7.88 11.24 7.92 11.09C8.02 10.61 8.21 10.15 8.47 9.75ZM7.92 12.9C7.88 12.75 7.76 12.65 7.61 12.65L5 12.65C4.83 12.65 4.69 12.8 4.71 12.97C4.88 14.27 5.39 15.46 6.15 16.46C6.26 16.6 6.47 16.61 6.59 16.48L8.44 14.63C8.54 14.53 8.55 14.37 8.47 14.24C8.21 13.84 8.02 13.38 7.92 12.9ZM9.75 15.52C9.62 15.44 9.46 15.45 9.36 15.55L7.51 17.4C7.39 17.52 7.39 17.73 7.53 17.84C8.53 18.6 9.72 19.11 11.02 19.28C11.19 19.3 11.35 19.17 11.35 18.99L11.35 16.38C11.35 16.23 11.24 16.11 11.09 16.07C10.61 15.97 10.15 15.78 9.75 15.52ZM12.9 16.07C12.75 16.11 12.64 16.23 12.64 16.38L12.64 18.99C12.64 19.17 12.8 19.3 12.97 19.28C14.27 19.11 15.46 18.6 16.46 17.84C16.6 17.73 16.61 17.52 16.48 17.4L14.63 15.55C14.53 15.45 14.37 15.44 14.24 15.52C13.84 15.78 13.38 15.97 12.9 16.07ZM15.52 14.24C15.44 14.37 15.45 14.53 15.55 14.63L17.4 16.48C17.52 16.61 17.73 16.6 17.84 16.46C18.6 15.46 19.11 14.27 19.28 12.97C19.3 12.8 19.17 12.65 18.99 12.65L16.38 12.65C16.23 12.65 16.11 12.75 16.07 12.9C15.97 13.38 15.78 13.84 15.52 14.24ZM16.07 11.09C16.11 11.24 16.23 11.35 16.38 11.35L18.99 11.35C19.17 11.35 19.3 11.19 19.28 11.02C19.11 9.72 18.6 8.53 17.84 7.53C17.73 7.39 17.52 7.38 17.4 7.51L15.55 9.36C15.45 9.46 15.44 9.62 15.52 9.75C15.78 10.15 15.97 10.61 16.07 11.09ZM14.24 8.47C14.37 8.55 14.53 8.54 14.63 8.44L16.48 6.59C16.61 6.47 16.6 6.26 16.46 6.15C15.46 5.39 14.27 4.88 12.97 4.71C12.8 4.69 12.64 4.82 12.64 5L12.64 7.61C12.64 7.76 12.75 7.88 12.9 7.92C13.38 8.02 13.84 8.21 14.24 8.47ZM9.12 12C9.12 10.41 10.41 9.12 12 9.12C13.58 9.12 14.87 10.41 14.87 12C14.87 13.58 13.58 14.87 12 14.87C10.41 14.87 9.12 13.58 9.12 12Z" fill="#74767B" fill-opacity="1.000000" fill-rule="evenodd"/>
	</g>
</svg>
