<svg width="24.000000" height="24.000000" viewBox="0 0 24 24" fill="none" xmlns="http://www.w3.org/2000/svg" xmlns:xlink="http://www.w3.org/1999/xlink">
	<desc>
			Created with Pixso.
	</desc>
	<defs>
		<clipPath id="clip17_484">
			<rect id="Solid / Color Solid" width="24.000000" height="24.000000" fill="white" fill-opacity="0"/>
		</clipPath>
	</defs>
	<g >
		<path id="Shape" d="M11.35 7.61C11.35 7.76 11.24 7.88 11.09 7.92C10.61 8.02 10.15 8.21 9.75 8.47C9.62 8.55 9.46 8.54 9.36 8.44L6.58 5.66C6.53 5.61 6.5 5.53 6.5 5.45C6.5 5.37 6.53 5.29 6.6 5.23C7.84 4.24 9.36 3.58 11.02 3.4C11.2 3.38 11.35 3.52 11.35 3.69L11.35 7.61ZM14.63 8.44C14.53 8.54 14.37 8.55 14.24 8.47C13.84 8.21 13.38 8.02 12.9 7.92C12.75 7.88 12.65 7.76 12.65 7.61L12.65 3.69C12.65 3.52 12.79 3.38 12.97 3.4C14.63 3.58 16.15 4.24 17.39 5.23C17.46 5.29 17.49 5.37 17.49 5.45C17.49 5.53 17.46 5.61 17.41 5.66L14.63 8.44ZM8.44 9.36C8.5 9.41 8.53 9.49 8.53 9.57C8.53 9.63 8.51 9.69 8.47 9.75C8.21 10.15 8.02 10.61 7.92 11.09C7.88 11.24 7.76 11.35 7.61 11.35L3.69 11.35C3.53 11.35 3.4 11.21 3.4 11.06C3.4 11.05 3.4 11.03 3.4 11.02C3.58 9.36 4.24 7.84 5.23 6.6C5.34 6.47 5.54 6.46 5.66 6.58L8.44 9.36ZM16.38 11.35C16.23 11.35 16.11 11.24 16.07 11.09C15.97 10.61 15.78 10.15 15.52 9.75C15.48 9.69 15.47 9.63 15.47 9.57C15.47 9.49 15.5 9.41 15.55 9.36L18.33 6.58C18.45 6.46 18.65 6.47 18.76 6.6C19.75 7.84 20.41 9.36 20.59 11.02C20.59 11.03 20.59 11.05 20.59 11.06C20.59 11.21 20.46 11.35 20.3 11.35L16.38 11.35ZM15.55 14.63C15.5 14.58 15.47 14.5 15.47 14.42C15.47 14.36 15.48 14.3 15.52 14.24C15.78 13.84 15.97 13.38 16.07 12.9C16.11 12.75 16.23 12.65 16.38 12.65L20.3 12.65C20.46 12.65 20.59 12.78 20.59 12.93C20.59 12.95 20.59 12.96 20.59 12.97C20.41 14.63 19.75 16.15 18.76 17.39C18.65 17.52 18.45 17.53 18.33 17.41L15.55 14.63ZM8.47 14.24C8.51 14.3 8.52 14.36 8.52 14.42C8.52 14.5 8.5 14.58 8.44 14.63L5.66 17.41C5.54 17.53 5.34 17.52 5.23 17.39C4.24 16.15 3.58 14.63 3.4 12.97C3.4 12.96 3.4 12.95 3.4 12.93C3.4 12.78 3.53 12.65 3.69 12.65L7.61 12.65C7.76 12.65 7.88 12.75 7.92 12.9C8.02 13.38 8.21 13.84 8.47 14.24ZM12.65 16.38C12.65 16.23 12.75 16.11 12.9 16.07C13.38 15.97 13.84 15.78 14.24 15.52C14.37 15.44 14.53 15.45 14.63 15.55L17.41 18.33C17.46 18.38 17.49 18.46 17.49 18.54C17.49 18.62 17.46 18.7 17.39 18.76C16.15 19.75 14.63 20.41 12.97 20.59C12.79 20.61 12.65 20.47 12.65 20.3L12.65 16.38ZM11.09 16.07C11.24 16.11 11.35 16.23 11.35 16.38L11.35 20.3C11.35 20.47 11.2 20.61 11.02 20.59C9.36 20.41 7.84 19.75 6.6 18.76C6.53 18.7 6.5 18.62 6.5 18.54C6.5 18.46 6.53 18.38 6.58 18.33L9.36 15.55C9.46 15.45 9.62 15.44 9.75 15.52C10.15 15.78 10.61 15.97 11.09 16.07Z" fill="#74767B" fill-opacity="1.000000" fill-rule="evenodd"/>
	</g>
</svg>
