<svg width="24.000000" height="24.000000" viewBox="0 0 24 24" fill="none" xmlns="http://www.w3.org/2000/svg" xmlns:xlink="http://www.w3.org/1999/xlink">
	<desc>
			Created with Pixso.
	</desc>
	<defs>
		<clipPath id="clip9606_1067">
			<rect id="Outline / Commits Outline" width="24.000000" height="24.000000" fill="white" fill-opacity="0"/>
		</clipPath>
	</defs>
	<g >
		<path id="Shape" d="M12 3C12.35 3 12.65 3.29 12.65 3.65L12.65 8.05C14.55 8.36 16 10.01 16 12C16 13.98 14.55 15.63 12.65 15.94L12.65 20.35C12.65 20.71 12.35 21 12 21C11.64 21 11.35 20.71 11.35 20.35L11.35 15.94C9.44 15.63 8 13.98 8 12C8 10.01 9.44 8.36 11.35 8.05L11.35 3.65C11.35 3.29 11.64 3 12 3ZM12.01 14.7C12.01 14.69 12 14.69 12 14.69C11.99 14.69 11.98 14.69 11.98 14.7C10.5 14.69 9.3 13.48 9.3 12C9.3 10.5 10.5 9.29 12 9.29C13.49 9.29 14.7 10.5 14.7 12C14.7 13.48 13.49 14.69 12.01 14.7Z" fill="#74767B" fill-opacity="1.000000" fill-rule="evenodd"/>
	</g>
</svg>
