<svg width="24.000000" height="24.000000" viewBox="0 0 24 24" fill="none" xmlns="http://www.w3.org/2000/svg" xmlns:xlink="http://www.w3.org/1999/xlink">
	<desc>
			Created with Pixso.
	</desc>
	<defs>
		<clipPath id="clip17_230">
			<rect id="Solid / Comment Solid" width="24.000000" height="24.000000" fill="white" fill-opacity="0"/>
		</clipPath>
	</defs>
	<g >
		<path id="Shape" d="M4 8C4 6.34 5.34 5 7 5L17 5C18.65 5 20 6.34 20 8L20 14C20 15.65 18.65 17 17 17L9.52 17L6.11 19.72C5.26 20.4 4 19.8 4 18.71L4 8ZM8.49 9.64C8.49 9.28 8.78 8.99 9.14 8.99L14.85 8.99C15.21 8.99 15.5 9.28 15.5 9.64C15.5 10 15.21 10.29 14.85 10.29L9.14 10.29C8.78 10.29 8.49 10 8.49 9.64ZM8.49 12.63C8.49 12.27 8.78 11.98 9.14 11.98L12.79 11.98C13.14 11.98 13.44 12.27 13.44 12.63C13.44 12.99 13.14 13.28 12.79 13.28L9.14 13.28C8.78 13.28 8.49 12.99 8.49 12.63Z" fill="#74767B" fill-opacity="1.000000" fill-rule="evenodd"/>
	</g>
</svg>
