<svg width="24" height="24" viewBox="0 0 24 24" fill="none" xmlns="http://www.w3.org/2000/svg">
<path fill-rule="evenodd" clip-rule="evenodd" d="M9 19C10.0736 19 11.0907 18.7583 12 18.3264C12.9092 18.7583 13.9264 19 15 19C18.866 19 22 15.866 22 12C22 8.13401 18.866 5 15 5C13.9264 5 12.9093 5.24169 12 5.67363C11.0907 5.24169 10.0736 5 9 5C5.79634 5 3.09533 7.15214 2.26388 10.0895C2.09199 10.6968 2 11.3377 2 12C2 12.4526 2.04295 12.8951 2.125 13.3238C2.21817 13.8106 2.36175 14.2794 2.55009 14.7247C3.61275 17.2371 6.1005 19 9 19ZM13.3747 17.4649C13.8898 17.6179 14.4353 17.7 15 17.7C18.148 17.7 20.7 15.148 20.7 12C20.7 8.85198 18.148 6.3 15 6.3C14.4353 6.3 13.8898 6.38212 13.3747 6.53507C14.9752 7.81792 16 9.78928 16 12C16 14.2107 14.9752 16.1821 13.3747 17.4649ZM10.6253 17.4649C10.1102 17.6179 9.5647 17.7 9 17.7C5.85198 17.7 3.3 15.148 3.3 12C3.3 8.85196 5.85198 6.29999 9 6.29999C9.56471 6.29999 10.1102 6.38211 10.6253 6.53506C9.02482 7.81791 8 9.78927 8 12C8 12 8 12 8 12C8 13.1053 8.25621 14.1509 8.71247 15.0804C9.16873 16.0099 9.82505 16.8235 10.6253 17.4649Z" fill="#717681"/>
</svg>
