<svg width="24" height="24" viewBox="0 0 24 24" fill="none" xmlns="http://www.w3.org/2000/svg">
<path d="M12 9.60069C13.8227 9.60069 15.3003 8.12307 15.3003 6.30034C15.3003 4.47761 13.8227 3 12 3C10.1773 3 8.69965 4.47761 8.69965 6.30034C8.69965 8.12307 10.1773 9.60069 12 9.60069Z" fill="#717681"/>
<path d="M12 21.0001C13.8237 21.0001 15.3021 19.5217 15.3021 17.698C15.3021 15.8743 13.8237 14.3959 12 14.3959C10.1763 14.3959 8.69794 15.8743 8.69794 17.698C8.69794 19.5217 10.1763 21.0001 12 21.0001Z" fill="#717681"/>
<path d="M6.30012 8.69993C8.12273 8.69993 9.60024 10.1774 9.60024 12.0001C9.60024 13.8227 8.12273 15.3002 6.30012 15.3002C4.47751 15.3002 3 13.8227 3 12.0001C3 10.1774 4.47751 8.69993 6.30012 8.69993Z" fill="#717681"/>
<path d="M21 12C21 10.178 19.5229 8.70102 17.7009 8.70102C15.8789 8.70102 14.4019 10.178 14.4019 12C14.4019 13.822 15.8789 15.2991 17.7009 15.2991C19.5229 15.2991 21 13.822 21 12Z" fill="#717681"/>
</svg>
