<svg width="24.000000" height="24.000000" viewBox="0 0 24 24" fill="none" xmlns="http://www.w3.org/2000/svg" xmlns:xlink="http://www.w3.org/1999/xlink">
	<desc>
			Created with Pixso.
	</desc>
	<defs>
		<clipPath id="clip9606_1071">
			<rect id="Outline / Compare Outline" width="24.000000" height="24.000000" fill="white" fill-opacity="0"/>
		</clipPath>
	</defs>
	<g clip-path="url(#clip9606_1071)">
		<path id="Shape" d="M12 18.32C11.09 18.75 10.07 19 9 19C5.13 19 2 15.86 2 12C2 8.13 5.13 5 9 5C10.07 5 11.09 5.24 12 5.67C12.9 5.24 13.92 5 15 5C18.86 5 22 8.13 22 12C22 15.86 18.86 19 15 19C13.92 19 12.9 18.75 12 18.32ZM10.62 17.46C10.11 17.61 9.56 17.7 9 17.7C5.85 17.7 3.3 15.14 3.3 12C3.3 8.85 5.85 6.29 9 6.29C9.56 6.29 10.11 6.38 10.62 6.53C9.02 7.81 8 9.78 8 12C8 14.21 9.02 16.18 10.62 17.46ZM12 16.84C10.37 15.84 9.3 14.04 9.3 12C9.3 9.95 10.37 8.15 12 7.15C13.62 8.15 14.7 9.95 14.7 12C14.7 14.04 13.62 15.84 12 16.84ZM13.37 6.53C13.88 6.38 14.43 6.29 15 6.29C18.14 6.29 20.7 8.85 20.7 12C20.7 15.14 18.14 17.7 15 17.7C14.43 17.7 13.88 17.61 13.37 17.46C14.97 16.18 16 14.21 16 12C16 9.78 14.97 7.81 13.37 6.53Z" fill="#717681" fill-opacity="1.000000" fill-rule="evenodd"/>
	</g>
</svg>
