<svg width="24.000000" height="24.000000" viewBox="0 0 24 24" fill="none" xmlns="http://www.w3.org/2000/svg" xmlns:xlink="http://www.w3.org/1999/xlink">
	<desc>
			Created with Pixso.
	</desc>
	<defs>
		<clipPath id="clip17_496">
			<rect id="Solid / Component Solid" width="24.000000" height="24.000000" fill="white" fill-opacity="0"/>
		</clipPath>
	</defs>
	<g>
		<path id="Shape" d="M15.3 6.3C15.3 8.12 13.82 9.6 12 9.6C10.17 9.6 8.69 8.12 8.69 6.3C8.69 4.47 10.17 3 12 3C13.82 3 15.3 4.47 15.3 6.3ZM6.3 8.69C8.12 8.69 9.6 10.17 9.6 12C9.6 13.82 8.12 15.3 6.3 15.3C4.47 15.3 3 13.82 3 12C3 10.17 4.47 8.69 6.3 8.69ZM17.7 8.7C19.52 8.7 21 10.17 21 12C21 13.82 19.52 15.29 17.7 15.29C15.87 15.29 14.4 13.82 14.4 12C14.4 10.17 15.87 8.7 17.7 8.7ZM15.3 17.69C15.3 19.52 13.82 21 12 21C10.17 21 8.69 19.52 8.69 17.69C8.69 15.87 10.17 14.39 12 14.39C13.82 14.39 15.3 15.87 15.3 17.69Z" fill="#717681" fill-opacity="1.000000" fill-rule="evenodd"/>
	</g>
</svg>
