<svg width="24" height="24" viewBox="0 0 24 24" fill="none" xmlns="http://www.w3.org/2000/svg">
<mask id="path-1-inside-1_9606_1074" fill="white">
<path d="M14.232 2.97528C14.4773 3.2374 14.4636 3.64873 14.2015 3.89402L12.6456 5.34998H15.0001C17.0159 5.34998 18.6501 6.98414 18.6501 8.99998V12.7135C18.6501 13.0725 18.3591 13.3635 18.0001 13.3635C17.6411 13.3635 17.3501 13.0725 17.3501 12.7135V8.99998C17.3501 7.70211 16.298 6.64998 15.0001 6.64998H12.6247L14.2058 8.15695C14.4656 8.40463 14.4755 8.81607 14.2278 9.07593C13.9801 9.33578 13.5687 9.34566 13.3088 9.09798L10.5678 6.48535C10.4342 6.36631 10.3501 6.19297 10.3501 5.99998C10.3501 5.9511 10.3555 5.90347 10.3657 5.85767C10.3816 5.78621 10.4097 5.71685 10.4501 5.6529C10.4731 5.61646 10.5001 5.58186 10.5309 5.54971C10.5408 5.53946 10.5509 5.5296 10.5612 5.52013L13.3132 2.94481C13.5754 2.69952 13.9867 2.71317 14.232 2.97528Z"/>
<path d="M6.64639 8.93019C6.64884 8.95312 6.6501 8.9764 6.6501 8.99998L6.6501 20.359C6.6501 20.718 6.35908 21.009 6.0001 21.009C5.64111 21.009 5.3501 20.718 5.3501 20.359V8.99998C5.3501 8.97642 5.35135 8.95315 5.3538 8.93023C4.00754 8.63469 3 7.43501 3 6C3 4.34315 4.34315 3 6 3C7.65685 3 9 4.34315 9 6C9 7.43494 7.99256 8.63457 6.64639 8.93019Z"/>
<path d="M18.6501 15.2801C18.6501 14.9211 18.3591 14.6301 18.0001 14.6301C17.6411 14.6301 17.3501 14.9211 17.3501 15.2801V17.1696H15.4605C15.1015 17.1696 14.8105 17.4606 14.8105 17.8196C14.8105 18.1785 15.1015 18.4696 15.4605 18.4696H17.3501V20.359C17.3501 20.718 17.6411 21.009 18.0001 21.009C18.3591 21.009 18.6501 20.718 18.6501 20.359V18.4696H20.5395C20.8984 18.4696 21.1895 18.1785 21.1895 17.8196C21.1895 17.4606 20.8984 17.1696 20.5395 17.1696H18.6501V15.2801Z"/>
</mask>
<path d="M14.232 2.97528C14.4773 3.2374 14.4636 3.64873 14.2015 3.89402L12.6456 5.34998H15.0001C17.0159 5.34998 18.6501 6.98414 18.6501 8.99998V12.7135C18.6501 13.0725 18.3591 13.3635 18.0001 13.3635C17.6411 13.3635 17.3501 13.0725 17.3501 12.7135V8.99998C17.3501 7.70211 16.298 6.64998 15.0001 6.64998H12.6247L14.2058 8.15695C14.4656 8.40463 14.4755 8.81607 14.2278 9.07593C13.9801 9.33578 13.5687 9.34566 13.3088 9.09798L10.5678 6.48535C10.4342 6.36631 10.3501 6.19297 10.3501 5.99998C10.3501 5.9511 10.3555 5.90347 10.3657 5.85767C10.3816 5.78621 10.4097 5.71685 10.4501 5.6529C10.4731 5.61646 10.5001 5.58186 10.5309 5.54971C10.5408 5.53946 10.5509 5.5296 10.5612 5.52013L13.3132 2.94481C13.5754 2.69952 13.9867 2.71317 14.232 2.97528Z" fill="#717681"/>
<path d="M6.64639 8.93019C6.64884 8.95312 6.6501 8.9764 6.6501 8.99998L6.6501 20.359C6.6501 20.718 6.35908 21.009 6.0001 21.009C5.64111 21.009 5.3501 20.718 5.3501 20.359V8.99998C5.3501 8.97642 5.35135 8.95315 5.3538 8.93023C4.00754 8.63469 3 7.43501 3 6C3 4.34315 4.34315 3 6 3C7.65685 3 9 4.34315 9 6C9 7.43494 7.99256 8.63457 6.64639 8.93019Z" fill="#717681"/>
<path d="M18.6501 15.2801C18.6501 14.9211 18.3591 14.6301 18.0001 14.6301C17.6411 14.6301 17.3501 14.9211 17.3501 15.2801V17.1696H15.4605C15.1015 17.1696 14.8105 17.4606 14.8105 17.8196C14.8105 18.1785 15.1015 18.4696 15.4605 18.4696H17.3501V20.359C17.3501 20.718 17.6411 21.009 18.0001 21.009C18.3591 21.009 18.6501 20.718 18.6501 20.359V18.4696H20.5395C20.8984 18.4696 21.1895 18.1785 21.1895 17.8196C21.1895 17.4606 20.8984 17.1696 20.5395 17.1696H18.6501V15.2801Z" fill="#717681"/>
<path d="M14.232 2.97528C14.4773 3.2374 14.4636 3.64873 14.2015 3.89402L12.6456 5.34998H15.0001C17.0159 5.34998 18.6501 6.98414 18.6501 8.99998V12.7135C18.6501 13.0725 18.3591 13.3635 18.0001 13.3635C17.6411 13.3635 17.3501 13.0725 17.3501 12.7135V8.99998C17.3501 7.70211 16.298 6.64998 15.0001 6.64998H12.6247L14.2058 8.15695C14.4656 8.40463 14.4755 8.81607 14.2278 9.07593C13.9801 9.33578 13.5687 9.34566 13.3088 9.09798L10.5678 6.48535C10.4342 6.36631 10.3501 6.19297 10.3501 5.99998C10.3501 5.9511 10.3555 5.90347 10.3657 5.85767C10.3816 5.78621 10.4097 5.71685 10.4501 5.6529C10.4731 5.61646 10.5001 5.58186 10.5309 5.54971C10.5408 5.53946 10.5509 5.5296 10.5612 5.52013L13.3132 2.94481C13.5754 2.69952 13.9867 2.71317 14.232 2.97528Z" stroke="#717681" stroke-width="2.6" mask="url(#path-1-inside-1_9606_1074)"/>
<path d="M6.64639 8.93019C6.64884 8.95312 6.6501 8.9764 6.6501 8.99998L6.6501 20.359C6.6501 20.718 6.35908 21.009 6.0001 21.009C5.64111 21.009 5.3501 20.718 5.3501 20.359V8.99998C5.3501 8.97642 5.35135 8.95315 5.3538 8.93023C4.00754 8.63469 3 7.43501 3 6C3 4.34315 4.34315 3 6 3C7.65685 3 9 4.34315 9 6C9 7.43494 7.99256 8.63457 6.64639 8.93019Z" stroke="#717681" stroke-width="2.6" mask="url(#path-1-inside-1_9606_1074)"/>
<path d="M18.6501 15.2801C18.6501 14.9211 18.3591 14.6301 18.0001 14.6301C17.6411 14.6301 17.3501 14.9211 17.3501 15.2801V17.1696H15.4605C15.1015 17.1696 14.8105 17.4606 14.8105 17.8196C14.8105 18.1785 15.1015 18.4696 15.4605 18.4696H17.3501V20.359C17.3501 20.718 17.6411 21.009 18.0001 21.009C18.3591 21.009 18.6501 20.718 18.6501 20.359V18.4696H20.5395C20.8984 18.4696 21.1895 18.1785 21.1895 17.8196C21.1895 17.4606 20.8984 17.1696 20.5395 17.1696H18.6501V15.2801Z" stroke="#717681" stroke-width="2.6" mask="url(#path-1-inside-1_9606_1074)"/>
</svg>
