<svg width="24.000000" height="24.000000" viewBox="0 0 24 24" fill="none" xmlns="http://www.w3.org/2000/svg" xmlns:xlink="http://www.w3.org/1999/xlink">
	<desc>
			Created with Pixso.
	</desc>
	<defs>
		<clipPath id="clip115541_926">
			<rect id="Outline / Create Fork Outline" width="24.000000" height="24.000000" fill="white" fill-opacity="0"/>
		</clipPath>
	</defs>
	<g >
		<path id="Shape" d="M18 2.98C18.36 2.98 18.65 3.27 18.65 3.63L18.65 5.34L20.36 5.34C20.72 5.34 21.01 5.64 21.01 5.99C21.01 6.35 20.72 6.64 20.36 6.64L18.65 6.64L18.65 8.36C18.65 8.72 18.36 9.01 18 9.01C17.64 9.01 17.35 8.72 17.35 8.36L17.35 6.64L15.64 6.64C15.28 6.64 14.99 6.35 14.99 5.99C14.99 5.64 15.28 5.34 15.64 5.34L17.35 5.34L17.35 3.63C17.35 3.27 17.64 2.98 18 2.98ZM12.67 6.65C11.37 6.65 10.32 7.7 10.32 9L10.32 11.99L10.32 12L10.32 12.02L10.32 15.01C10.32 16.3 11.37 17.36 12.67 17.36L18.73 17.36L17.14 15.84C16.88 15.59 16.87 15.18 17.12 14.92C17.36 14.66 17.78 14.65 18.04 14.9L21.29 18L18.03 21.05C17.77 21.3 17.36 21.29 17.11 21.02C16.87 20.76 16.88 20.35 17.14 20.1L18.69 18.66L12.67 18.66C10.65 18.66 9.02 17.02 9.02 15.01L9.02 12.65L3.64 12.65C3.28 12.65 2.99 12.36 2.99 12C2.99 11.64 3.28 11.35 3.64 11.35L9.02 11.35L9.02 9C9.02 6.98 10.65 5.35 12.67 5.35L13.09 5.35C13.45 5.35 13.74 5.64 13.74 6C13.74 6.36 13.45 6.65 13.09 6.65L12.67 6.65Z" fill="#74767B" fill-opacity="1.000000" fill-rule="evenodd"/>
	</g>
</svg>
