<svg width="24" height="24" viewBox="0 0 24 24" fill="none" xmlns="http://www.w3.org/2000/svg">
<path d="M18 2.81055C18.359 2.81055 18.65 3.10156 18.65 3.46055V5.3501H20.5396C20.8985 5.3501 21.1896 5.64111 21.1896 6.0001C21.1896 6.35908 20.8985 6.6501 20.5396 6.6501H18.65V8.5395C18.65 8.89848 18.359 9.1895 18 9.1895C17.641 9.1895 17.35 8.89848 17.35 8.5395V6.6501H15.4606C15.1016 6.6501 14.8106 6.35908 14.8106 6.0001C14.8106 5.64111 15.1016 5.3501 15.4606 5.3501H17.35V3.46055C17.35 3.10156 17.641 2.81055 18 2.81055Z" fill="#717681"/>
<path fill-rule="evenodd" clip-rule="evenodd" d="M9 5.99998C9 7.43495 7.99251 8.63461 6.6463 8.93018C6.64874 8.95311 6.65 8.9764 6.65 8.99998L6.65 15.0706C7.79206 15.3229 8.68967 16.226 8.93396 17.371L15 17.371C16.2979 17.371 17.35 16.3189 17.35 15.021L17.35 11.1418C17.35 10.7828 17.641 10.4918 18 10.4918C18.359 10.4918 18.65 10.7828 18.65 11.1418V15.021C18.65 17.0368 17.0158 18.671 15 18.671L8.92467 18.671C8.61991 20.0048 7.42617 21 6 21C4.34315 21 3 19.6568 3 18C3 16.5663 4.00564 15.3675 5.35 15.0706L5.35 8.99998C5.35 8.9764 5.35126 8.95311 5.3537 8.93018C4.00749 8.63461 3 7.43495 3 5.99998C3 4.34312 4.34315 2.99998 6 2.99998C7.65685 2.99998 9 4.34312 9 5.99998ZM6 7.69998C6.93888 7.69998 7.7 6.93886 7.7 5.99998C7.7 5.06109 6.93888 4.29998 6 4.29998C5.06112 4.29998 4.3 5.06109 4.3 5.99998C4.3 6.93886 5.06112 7.69998 6 7.69998ZM7.7 18C7.7 18.9389 6.93888 19.7 6 19.7C5.06112 19.7 4.3 18.9389 4.3 18C4.3 17.0611 5.06112 16.3 6 16.3C6.93888 16.3 7.7 17.0611 7.7 18Z" fill="#717681"/>
</svg>
