<svg width="24.000000" height="24.000000" viewBox="0 0 24 24" fill="none" xmlns="http://www.w3.org/2000/svg" xmlns:xlink="http://www.w3.org/1999/xlink">
	<desc>
			Created with Pixso.
	</desc>
	<defs>
		<clipPath id="clip17_195">
			<rect id="Solid / Credit Solid" width="24.000000" height="24.000000" fill="white" fill-opacity="0"/>
		</clipPath>
	</defs>
	<g >
		<path id="Shape" d="M8.79 2.6C8.79 2.24 8.49 1.95 8.14 1.95C7.78 1.95 7.48 2.24 7.48 2.6L7.48 3.98L7 3.98C5.33 3.98 4 5.33 4 6.98L4 17C4 18.66 5.33 20 7 20L17 20C18.66 20 20 18.66 20 17L20 6.98C20 5.33 18.64 3.98 17 3.98L16.5 3.98L16.5 2.6C16.5 2.24 16.2 1.95 15.85 1.95C15.49 1.95 15.2 2.24 15.2 2.6L15.2 3.98L12.64 3.98L12.64 2.6C12.64 2.24 12.35 1.95 12 1.95C11.64 1.95 11.35 2.24 11.35 2.6L11.35 3.98L8.79 3.98L8.79 2.6ZM11 9.59C11 10.69 10.1 11.59 9 11.59C7.89 11.59 7 10.69 7 9.59C7 8.48 7.89 7.59 9 7.59C10.1 7.59 11 8.48 11 9.59ZM15.5 8.48C15.75 8.73 15.75 9.14 15.5 9.4L9.5 15.44C9.24 15.7 8.83 15.7 8.58 15.44C8.32 15.19 8.32 14.78 8.58 14.52L14.58 8.48C14.83 8.23 15.24 8.23 15.5 8.48ZM9 10.29C9.38 10.29 9.7 9.97 9.7 9.59C9.7 9.2 9.38 8.89 9 8.89C8.61 8.89 8.29 9.2 8.29 9.59C8.29 9.97 8.61 10.29 9 10.29ZM17 14.4C17 15.51 16.1 16.4 15 16.4C13.89 16.4 13 15.51 13 14.4C13 13.3 13.89 12.4 15 12.4C16.1 12.4 17 13.3 17 14.4ZM15 15.1C15.38 15.1 15.7 14.79 15.7 14.4C15.7 14.02 15.38 13.7 15 13.7C14.61 13.7 14.3 14.02 14.3 14.4C14.3 14.79 14.61 15.1 15 15.1Z" fill="#74767B" fill-opacity="1.000000" fill-rule="evenodd"/>
	</g>
</svg>
