<svg width="24.000000" height="24.000000" viewBox="0 0 24 24" fill="none" xmlns="http://www.w3.org/2000/svg" xmlns:xlink="http://www.w3.org/1999/xlink">
	<desc>
			Created with Pixso.
	</desc>
	<defs>
		<clipPath id="clip5086_1015">
			<rect id="Outline / Cube Outline" width="24.000000" height="24.000000" fill="white" fill-opacity="0"/>
		</clipPath>
	</defs>
	<g>
		<path id="Shape" d="M10.79 4.25L5.79 6.43C4.7 6.91 4 7.99 4 9.18L4 15.26C4 16.45 4.7 17.53 5.79 18.01L10.79 20.19C11.56 20.53 12.43 20.53 13.2 20.19L18.2 18.01C19.29 17.53 20 16.45 20 15.26L20 9.18C20 7.99 19.29 6.91 18.2 6.43L13.2 4.25C12.43 3.91 11.56 3.91 10.79 4.25ZM11.31 5.44L6.31 7.63C6.24 7.66 6.16 7.7 6.09 7.74C5.92 7.85 5.96 8.1 6.16 8.18L11.72 10.62C11.88 10.69 12.07 10.69 12.24 10.62L17.83 8.18C18.02 8.1 18.07 7.85 17.89 7.74C17.82 7.7 17.75 7.66 17.68 7.63L12.68 5.44C12.24 5.25 11.75 5.25 11.31 5.44ZM5.29 15.26L5.29 9.68C5.29 9.47 5.52 9.32 5.72 9.41L11.2 11.81C11.28 11.85 11.35 11.93 11.35 12.02L11.35 18.98C11.35 19 11.33 19.01 11.31 19L6.31 16.82C5.69 16.55 5.29 15.93 5.29 15.26ZM12.64 18.98C12.64 19 12.66 19.01 12.68 19L17.68 16.82C18.3 16.55 18.7 15.93 18.7 15.26L18.7 9.68C18.7 9.46 18.47 9.32 18.28 9.4L12.76 11.81C12.69 11.84 12.64 11.9 12.64 11.98L12.64 18.98Z" fill="#717681" fill-opacity="1.000000" fill-rule="evenodd"/>
	</g>
</svg>
