<svg width="24" height="24" viewBox="0 0 24 24" fill="none" xmlns="http://www.w3.org/2000/svg">
<path d="M4 9.30205C4 8.79814 4.5164 8.45931 4.97866 8.65991L10.5636 11.0835C11.0387 11.2897 11.3461 11.7582 11.3461 12.2761V19.6708C11.3461 20.1757 10.828 20.5145 10.3655 20.3121L5.79743 18.3134C4.70553 17.8356 4 16.7568 4 15.565V9.30205Z" fill="#717681"/>
<path d="M20 9.30211C20 8.7982 19.4836 8.45937 19.0213 8.65997L13.4364 11.0836C12.9613 11.2897 12.6539 11.7582 12.6539 12.2761V19.6709C12.6539 20.1757 13.172 20.5146 13.6345 20.3122L18.2026 18.3134C19.2945 17.8357 20 16.7569 20 15.565V9.30211Z" fill="#717681"/>
<path d="M10.7766 4.25358C11.5443 3.91612 12.4182 3.9154 13.1865 4.25162L18.8907 6.74791C19.1305 6.85286 19.1303 7.19311 18.8904 7.29774L12.502 10.0834C12.1701 10.2281 11.7929 10.2279 11.4613 10.0828L5.09909 7.29888C4.85966 7.19412 4.85937 6.85457 5.09863 6.7494L10.7766 4.25358Z" fill="#717681"/>
</svg>
