<svg width="24.000000" height="24.000000" viewBox="0 0 24 24" fill="none" xmlns="http://www.w3.org/2000/svg" xmlns:xlink="http://www.w3.org/1999/xlink">
	<desc>
			Created with Pixso.
	</desc>
	<defs>
		<clipPath id="clip5086_1016">
			<rect id="Solid / Cube Solid" width="24.000000" height="24.000000" fill="white" fill-opacity="0"/>
		</clipPath>
	</defs>
	<g clip-path="url(#clip5086_1016)">
		<path id="Shape" d="M13.18 4.25C12.41 3.91 11.54 3.91 10.77 4.25L5.09 6.74C4.85 6.85 4.85 7.19 5.09 7.29L11.46 10.08C11.79 10.22 12.16 10.22 12.5 10.08L18.89 7.29C19.13 7.19 19.13 6.85 18.89 6.74L13.18 4.25ZM4 9.3C4 8.79 4.51 8.45 4.97 8.65L10.56 11.08C11.03 11.28 11.34 11.75 11.34 12.27L11.34 19.67C11.34 20.17 10.82 20.51 10.36 20.31L5.79 18.31C4.7 17.83 4 16.75 4 15.56L4 9.3ZM20 9.3C20 8.79 19.48 8.45 19.02 8.66L13.43 11.08C12.96 11.28 12.65 11.75 12.65 12.27L12.65 19.67C12.65 20.17 13.17 20.51 13.63 20.31L18.2 18.31C19.29 17.83 20 16.75 20 15.56L20 9.3Z" fill="#717681" fill-opacity="1.000000" fill-rule="evenodd"/>
	</g>
</svg>
