<svg width="24.000000" height="24.000000" viewBox="0 0 24 24" fill="none" xmlns="http://www.w3.org/2000/svg" xmlns:xlink="http://www.w3.org/1999/xlink">
	<desc>
			Created with Pixso.
	</desc>
	<defs>
		<clipPath id="clip116914_907">
			<rect id="Solid / Danger Solid" width="24.000000" height="24.000000" fill="white" fill-opacity="0"/>
		</clipPath>
	</defs>
	<g clip-path="url(#clip116914_907)">
		<path id="Shape" d="M11.99 3C7.02 3 3 7.02 3 12C3 16.97 7.02 21 12 21C16.97 21 21 16.97 21 12C21 7.03 16.97 3 12 3L12 2.99L11.99 3ZM8.55 5.11C6.04 6.37 4.31 8.96 4.3 11.97L9 11.98C9 10.81 9.67 9.8 10.65 9.31L8.55 5.11ZM13.34 9.31C14.32 9.8 14.99 10.81 15 11.98L19.7 11.97C19.68 8.96 17.95 6.37 15.44 5.11L13.34 9.31ZM13.8 14.39C13.3 14.77 12.68 15 12 15C11.32 15 10.69 14.77 10.19 14.39L7.35 18.14C8.64 19.12 10.25 19.7 12 19.7C13.74 19.7 15.35 19.12 16.64 18.14L13.8 14.39ZM13.7 12C13.7 12.94 12.94 13.7 12 13.7C11.06 13.7 10.29 12.94 10.29 12C10.29 11.06 11.06 10.3 12 10.3C12.94 10.3 13.7 11.06 13.7 12Z" fill="#717681" fill-opacity="1.000000" fill-rule="evenodd"/>
	</g>
</svg>
