<svg width="24.000000" height="24.000000" viewBox="0 0 24 24" fill="none" xmlns="http://www.w3.org/2000/svg" xmlns:xlink="http://www.w3.org/1999/xlink">
	<desc>
			Created with Pixso.
	</desc>
	<defs>
		<clipPath id="clip17_434">
			<rect id="Solid / Delivery Solid" width="24.000000" height="24.000000" fill="white" fill-opacity="0"/>
		</clipPath>
	</defs>
	<g >
		<path id="Shape" d="M10.69 3.26C10.69 3.17 10.7 3.08 10.72 3L8.06 3C6.4 3 5.06 4.34 5.06 6L5.06 8.45C5.06 8.99 5.66 9.33 6.12 9.05L8.65 7.51C10.18 6.58 12.17 7.02 13.16 8.51C14.11 9.93 13.98 11.98 12.5 12.93C12.01 13.26 12.22 13.76 12.66 13.76L18.05 12.24C18.11 12.22 18.17 12.21 18.23 12.19C18.61 12.11 18.93 11.8 18.93 11.41L18.93 6C18.93 4.34 17.59 3 15.93 3L13.27 3C13.29 3.08 13.29 3.17 13.29 3.26L13.29 4.9C13.29 5.62 12.71 6.2 12 6.2C11.28 6.2 10.69 5.62 10.69 4.9L10.69 3.26ZM2.4 14.99C2.22 13.8 2.77 12.61 3.8 11.98L9.33 8.62C10.26 8.05 11.47 8.32 12.08 9.23C12.66 10.1 12.48 11.26 11.68 11.93L9.79 13.48C9.54 13.68 9.45 14.02 9.57 14.32C9.66 14.56 9.87 14.74 10.13 14.79L11.63 15.08C12.09 15.16 12.56 15.14 13.01 15.02L18.4 13.49C19.33 13.23 20.29 13.75 20.58 14.66C20.85 15.52 20.44 16.45 19.62 16.82L12.66 19.94C12.1 20.19 11.47 20.26 10.87 20.15L5.03 19.02C3.78 18.78 2.82 17.78 2.63 16.52L2.4 14.99Z" fill="#74767B" fill-opacity="1.000000" fill-rule="evenodd"/>
	</g>
</svg>
