<svg width="24.000000" height="24.000000" viewBox="0 0 24 24" fill="none" xmlns="http://www.w3.org/2000/svg" xmlns:xlink="http://www.w3.org/1999/xlink">
	<desc>
			Created with Pixso.
	</desc>
	<defs>
		<clipPath id="clip17_392">
			<rect id="Outline / Delivery Outline" width="24.000000" height="24.000000" fill="white" fill-opacity="0"/>
		</clipPath>
	</defs>
	<g clip-path="url(#clip17_392)">
		<path id="Shape" d="M5 6.63C5 4.62 6.63 2.98 8.65 2.98L15.34 2.98C17.36 2.98 18.99 4.62 18.99 6.63L18.99 11C18.99 11.35 18.7 11.65 18.34 11.65C17.98 11.65 17.69 11.35 17.69 11L17.69 6.63C17.69 5.33 16.64 4.28 15.34 4.28L13.3 4.28L13.3 5.66C13.3 6.38 12.71 6.96 12 6.96C11.28 6.96 10.7 6.38 10.7 5.66L10.7 4.28L8.65 4.28C7.35 4.28 6.3 5.33 6.3 6.63L6.3 7.49C6.3 7.85 6.01 8.14 5.65 8.14C5.29 8.14 5 7.85 5 7.49L5 6.63ZM10.02 9.33C10.62 8.96 11.41 9.14 11.81 9.73C12.18 10.3 12.07 11.06 11.55 11.49L9.72 12.99C9.26 13.37 9.1 13.99 9.31 14.55C9.48 14.99 9.87 15.31 10.33 15.4L11.77 15.68C12.33 15.78 12.9 15.76 13.45 15.6L18.66 14.13C19.22 13.97 19.8 14.28 19.98 14.84C20.14 15.36 19.89 15.91 19.39 16.14L12.67 19.15C12.23 19.35 11.74 19.41 11.27 19.32L5.69 18.24C4.72 18.05 3.96 17.27 3.81 16.29L3.61 14.92C3.47 13.99 3.9 13.06 4.71 12.56L10.02 9.33ZM12.89 9.01C12.11 7.84 10.54 7.49 9.34 8.22L4.03 11.45C2.78 12.22 2.1 13.66 2.32 15.12L2.53 16.48C2.76 18.01 3.93 19.22 5.45 19.52L11.02 20.59C11.76 20.74 12.52 20.65 13.21 20.34L19.92 17.32C21.02 16.83 21.58 15.59 21.22 14.45C20.83 13.22 19.54 12.53 18.31 12.88L13.1 14.35C12.74 14.45 12.37 14.47 12.01 14.4L10.58 14.12C10.55 14.12 10.53 14.1 10.52 14.08C10.51 14.05 10.52 14.02 10.54 14L12.37 12.49C13.41 11.64 13.64 10.13 12.89 9.01Z" fill="#717681" fill-opacity="1.000000" fill-rule="evenodd"/>
	</g>
</svg>
