<svg width="24" height="24" viewBox="0 0 24 24" fill="none" xmlns="http://www.w3.org/2000/svg">
<path d="M13.0001 12C13.0001 12.5523 12.5524 13 12.0001 13C11.4478 13 11.0001 12.5523 11.0001 12C11.0001 11.4477 11.4478 11 12.0001 11C12.5524 11 13.0001 11.4477 13.0001 12Z" fill="#717681"/>
<path fill-rule="evenodd" clip-rule="evenodd" d="M15.9479 12.6479C15.6383 14.5489 13.9886 16 12.0001 16C9.79096 16 8.0001 14.2091 8.0001 12C8.0001 9.79086 9.79096 8 12.0001 8C13.9886 8 15.6383 9.45105 15.9479 11.3521C15.9651 11.3507 15.9825 11.35 16.0001 11.35H17.0001C17.3591 11.35 17.6501 11.641 17.6501 12C17.6501 12.359 17.3591 12.65 17.0001 12.65H16.0001C15.9825 12.65 15.9651 12.6493 15.9479 12.6479ZM14.7001 12C14.7001 13.4912 13.4913 14.7 12.0001 14.7C10.5089 14.7 9.3001 13.4912 9.3001 12C9.3001 10.5088 10.5089 9.3 12.0001 9.3C13.4913 9.3 14.7001 10.5088 14.7001 12Z" fill="#717681"/>
<path fill-rule="evenodd" clip-rule="evenodd" d="M4.0001 17V15.65H3.0001C2.64111 15.65 2.3501 15.359 2.3501 15C2.3501 14.641 2.64111 14.35 3.0001 14.35H4.0001V9.65H3.0001C2.64111 9.65 2.3501 9.35898 2.3501 9C2.3501 8.64102 2.64111 8.35 3.0001 8.35H4.0001V7C4.0001 5.34315 5.34324 4 7.0001 4H17.0001C18.657 4 20.0001 5.34315 20.0001 7V17C20.0001 18.6569 18.657 20 17.0001 20H7.0001C5.34324 20 4.0001 18.6569 4.0001 17ZM7.0001 5.3H17.0001C17.939 5.3 18.7001 6.06112 18.7001 7V17C18.7001 17.9389 17.939 18.7 17.0001 18.7H7.0001C6.06121 18.7 5.3001 17.9389 5.3001 17V15.65H6.0001C6.35908 15.65 6.6501 15.359 6.6501 15C6.6501 14.641 6.35908 14.35 6.0001 14.35H5.3001V9.65H6.0001C6.35908 9.65 6.6501 9.35898 6.6501 9C6.6501 8.64102 6.35908 8.35 6.0001 8.35H5.3001V7C5.3001 6.06112 6.06121 5.3 7.0001 5.3Z" fill="#717681"/>
</svg>
