<svg width="24.000000" height="24.000000" viewBox="0 0 24 24" fill="none" xmlns="http://www.w3.org/2000/svg" xmlns:xlink="http://www.w3.org/1999/xlink">
	<desc>
			Created with Pixso.
	</desc>
	<defs>
		<clipPath id="clip17_207">
			<rect id="Solid / Deposit Solid" width="24.000000" height="24.000000" fill="white" fill-opacity="0"/>
		</clipPath>
	</defs>
	<g clip-path="url(#clip17_207)">
		<path id="Shape" d="M12 14.7C13.49 14.7 14.7 13.49 14.7 12C14.7 10.5 13.49 9.29 12 9.29C10.5 9.29 9.29 10.5 9.29 12C9.29 13.49 10.5 14.7 12 14.7ZM13 12C13 12.55 12.55 13 12 13C11.44 13 11 12.55 11 12C11 11.44 11.44 11 12 11C12.55 11 13 11.44 13 12Z" fill="#74767B" fill-opacity="1.000000" fill-rule="evenodd"/>
		<path id="Shape" d="M4 7C4 5.34 5.34 4 7 4L17 4C18.65 4 20 5.34 20 7L20 17C20 18.65 18.65 20 17 20L7 20C5.34 20 4 18.65 4 17L4 15.65L2.64 15.65C2.29 15.65 2 15.35 2 15C2 14.64 2.29 14.35 2.64 14.35L4 14.35L4 9.65L2.64 9.65C2.29 9.65 2 9.35 2 9C2 8.64 2.29 8.35 2.64 8.35L4 8.35L4 7ZM15.94 12.64C15.63 14.54 13.98 16 12 16C9.79 16 8 14.2 8 12C8 9.79 9.79 8 12 8C13.98 8 15.63 9.45 15.94 11.35C15.96 11.35 15.98 11.35 16 11.35L17 11.35C17.35 11.35 17.64 11.64 17.64 12C17.64 12.35 17.35 12.65 17 12.65L16 12.65C15.98 12.65 15.96 12.64 15.94 12.64Z" fill="#74767B" fill-opacity="1.000000" fill-rule="evenodd"/>
	</g>
</svg>
