<svg width="24.000000" height="24.000000" viewBox="0 0 24 24" fill="none" xmlns="http://www.w3.org/2000/svg" xmlns:xlink="http://www.w3.org/1999/xlink">
	<desc>
			Created with Pixso.
	</desc>
	<defs>
		<clipPath id="clip17_250">
			<rect id="Solid / Desktop Solid" width="24.000000" height="24.000000" fill="white" fill-opacity="0"/>
		</clipPath>
	</defs>
	<g clip-path="url(#clip17_250)">
		<path id="Shape" d="M3 7C3 5.34 4.34 4 6 4L18 4C19.65 4 21 5.34 21 7L21 14C21 15.65 19.65 17 18 17L14 17L14 18.7L15.35 18.7C15.71 18.7 16 18.99 16 19.35C16 19.7 15.71 20 15.35 20L8.64 20C8.29 20 7.99 19.7 7.99 19.35C7.99 18.99 8.29 18.7 8.64 18.7L10 18.7L10 17L6 17C4.34 17 3 15.65 3 14L3 7ZM4.34 14.39C4.52 15.14 5.19 15.7 6 15.7L18 15.7C18.8 15.7 19.47 15.14 19.65 14.39L4.34 14.39Z" fill="#717681" fill-opacity="1.000000" fill-rule="evenodd"/>
	</g>
</svg>
