<svg width="24.000000" height="24.000000" viewBox="0 0 24 24" fill="none" xmlns="http://www.w3.org/2000/svg" xmlns:xlink="http://www.w3.org/1999/xlink">
	<desc>
			Created with Pixso.
	</desc>
	<defs>
		<clipPath id="clip106725_912">
			<rect id="Outline / Developer Outline" width="24.000000" height="24.000000" fill="white" fill-opacity="0"/>
		</clipPath>
	</defs>
	<g clip-path="url(#clip106725_912)">
		<path id="Shape" d="M7 4C5.34 4 4 5.34 4 7L4 17C4 18.65 5.34 20 7 20L17 20C18.65 20 20 18.65 20 17L20 7C20 5.34 18.65 4 17 4L7 4ZM17 5.29L7 5.29C6.06 5.29 5.3 6.06 5.3 7L5.3 17C5.3 17.93 6.06 18.7 7 18.7L17 18.7C17.93 18.7 18.7 17.93 18.7 17L18.7 7C18.7 6.06 17.93 5.29 17 5.29ZM12.84 9.3C13.18 9.41 13.37 9.77 13.27 10.12L11.96 14.26C11.86 14.61 11.49 14.8 11.15 14.69C10.81 14.58 10.62 14.22 10.72 13.87L12.03 9.73C12.13 9.38 12.5 9.19 12.84 9.3ZM9.7 10.32C9.93 10.05 9.88 9.65 9.59 9.43C9.31 9.21 8.89 9.25 8.66 9.52L6.92 11.6C6.72 11.83 6.72 12.16 6.92 12.39L8.66 14.47C8.89 14.74 9.31 14.78 9.59 14.56C9.88 14.34 9.93 13.94 9.7 13.67L8.29 12L9.7 10.32ZM14.29 10.32C14.06 10.05 14.11 9.65 14.39 9.43C14.68 9.21 15.1 9.25 15.33 9.52L17.07 11.6C17.27 11.83 17.27 12.16 17.07 12.39L15.33 14.47C15.1 14.74 14.68 14.78 14.39 14.56C14.11 14.34 14.06 13.94 14.29 13.67L15.7 12L14.29 10.32Z" fill="#717681" fill-opacity="1.000000" fill-rule="evenodd"/>
	</g>
</svg>
