<svg width="24.000000" height="24.000000" viewBox="0 0 24 24" fill="none" xmlns="http://www.w3.org/2000/svg" xmlns:xlink="http://www.w3.org/1999/xlink">
	<desc>
			Created with Pixso.
	</desc>
	<defs>
		<clipPath id="clip106725_852">
			<rect id="Solid / DevOps Engineer Solid" width="24.000000" height="24.000000" fill="white" fill-opacity="0"/>
		</clipPath>
	</defs>
	<g clip-path="url(#clip106725_852)">
		<path id="Shape" d="M4 7C4 5.34 5.34 4 7 4L17 4C18.65 4 20 5.34 20 7L20 11.3C20 11.52 19.76 11.67 19.56 11.59C18.94 11.35 18.27 11.21 17.56 11.2L16.1 9.23C15.88 8.94 15.49 8.89 15.22 9.12C14.95 9.36 14.91 9.78 15.12 10.07L16.09 11.37C13.55 11.99 11.66 14.28 11.66 17.01C11.66 17.91 11.87 18.77 12.24 19.53C12.34 19.74 12.19 20 11.96 20L7 20C5.34 20 4 18.65 4 17L4 7ZM8.77 9.12C9.04 9.36 9.08 9.78 8.87 10.07L7.44 12L8.87 13.92C9.08 14.21 9.04 14.63 8.77 14.87C8.51 15.1 8.11 15.05 7.9 14.76L6.15 12.42C5.97 12.17 5.97 11.82 6.15 11.57L7.9 9.23C8.11 8.94 8.51 8.89 8.77 9.12ZM13.27 9.82C13.37 9.48 13.17 9.12 12.82 9.02C12.47 8.93 12.12 9.13 12.02 9.47L10.72 14.17C10.62 14.51 10.82 14.87 11.17 14.97C11.52 15.06 11.87 14.86 11.97 14.52L13.27 9.82ZM16 13.27C16.07 12.84 16.46 12.51 16.93 12.51L17.94 12.51C18.4 12.51 18.79 12.83 18.86 13.26C18.95 13.82 19.58 14.16 20.14 13.94C20.57 13.77 21.07 13.94 21.3 14.32L21.81 15.15C22.04 15.53 21.94 16.01 21.58 16.28C21.12 16.64 21.13 17.32 21.6 17.67C21.97 17.95 22.07 18.44 21.84 18.82L21.34 19.65C21.1 20.03 20.62 20.19 20.19 20.03C19.6 19.82 18.96 20.17 18.86 20.76C18.79 21.19 18.4 21.51 17.94 21.51L16.93 21.51C16.46 21.51 16.07 21.18 16 20.74C15.92 20.18 15.3 19.83 14.74 20.03C14.31 20.19 13.83 20.03 13.59 19.65L13.09 18.82C12.86 18.44 12.96 17.95 13.33 17.67C13.8 17.32 13.81 16.64 13.35 16.28C12.99 16.01 12.89 15.53 13.12 15.15L13.63 14.32C13.86 13.94 14.36 13.77 14.79 13.94C15.33 14.15 15.92 13.82 16 13.27ZM17.47 18.51C18.29 18.51 18.97 17.84 18.97 17.01C18.97 16.18 18.29 15.51 17.47 15.51C16.64 15.51 15.97 16.18 15.97 17.01C15.97 17.84 16.64 18.51 17.47 18.51Z" fill="#717681" fill-opacity="1.000000" fill-rule="evenodd"/>
	</g>
</svg>
