<svg width="24.000000" height="24.000000" viewBox="0 0 24 24" fill="none" xmlns="http://www.w3.org/2000/svg" xmlns:xlink="http://www.w3.org/1999/xlink">
	<desc>
			Created with Pixso.
	</desc>
	<defs>
		<clipPath id="clip1100_1476">
			<rect id="Solid / Dump Solid" width="24.000000" height="24.000000" transform="matrix(-1 0 0 1 24 0)" fill="white" fill-opacity="0"/>
		</clipPath>
	</defs>
	<g >
		<path id="Shape" d="M18.62 10.5L16.31 6.5C15.79 5.6 14.49 5.6 13.97 6.5L12.49 9.07L12.49 7.66C12.49 6.92 11.89 6.31 11.14 6.31L8.32 6.31C9.2 4.39 11.14 3.06 13.38 3.06C16.46 3.06 18.95 5.55 18.95 8.62C18.95 9.28 18.83 9.92 18.62 10.5ZM15.1 7.15C15.11 7.14 15.11 7.13 15.12 7.13C15.12 7.13 15.13 7.13 15.14 7.13C15.15 7.13 15.16 7.13 15.17 7.13C15.17 7.13 15.18 7.14 15.19 7.15L18.54 12.97C18.55 12.98 18.55 12.99 18.55 12.99C18.55 13 18.55 13.01 18.54 13.02C18.54 13.03 18.53 13.03 18.53 13.04C18.52 13.04 18.52 13.04 18.5 13.04L11.79 13.04C11.77 13.04 11.76 13.04 11.76 13.04C11.75 13.03 11.75 13.03 11.74 13.02C11.74 13.01 11.73 13 11.73 12.99C11.73 12.99 11.73 12.98 11.74 12.97L15.1 7.15ZM10.43 13.04L5.81 13.04C5.79 13.04 5.76 13.02 5.76 12.99L5.76 7.66C5.76 7.63 5.79 7.61 5.81 7.61L11.14 7.61C11.17 7.61 11.19 7.63 11.19 7.66L11.19 11.32L10.62 12.32C10.48 12.55 10.42 12.8 10.43 13.04ZM4.21 14.53C4.33 14.41 4.49 14.34 4.67 14.34L19.43 14.34C19.79 14.34 20.08 14.63 20.08 14.99L20.08 16.9C20.08 18.64 18.67 20.05 16.93 20.05L7.17 20.05C5.43 20.05 4.02 18.64 4.02 16.9L4.02 14.99C4.02 14.82 4.08 14.65 4.21 14.53Z" fill="#74767B" fill-opacity="1.000000" fill-rule="evenodd"/>
	</g>
</svg>
