<svg width="24.000000" height="24.000000" viewBox="0 0 24 24" fill="none" xmlns="http://www.w3.org/2000/svg" xmlns:xlink="http://www.w3.org/1999/xlink">
	<desc>
			Created with Pixso.
	</desc>
	<defs>
		<clipPath id="clip1100_1476">
			<rect id="Solid / Dump Solid" width="24.000000" height="24.000000" transform="matrix(-1 0 0 1 24 -0.999878)" fill="white" fill-opacity="0"/>
		</clipPath>
	</defs>
	<g clip-path="url(#clip1100_1476)">
		<path id="Shape" d="M18.62 9.5L16.31 5.5C15.79 4.6 14.49 4.6 13.97 5.5L12.49 8.07L12.49 6.66C12.49 5.92 11.89 5.31 11.14 5.31L8.32 5.31C9.2 3.39 11.14 2.06 13.38 2.06C16.46 2.06 18.95 4.55 18.95 7.62C18.95 8.28 18.83 8.92 18.62 9.5ZM15.1 6.15C15.11 6.14 15.11 6.13 15.12 6.13C15.12 6.13 15.13 6.13 15.14 6.13C15.15 6.13 15.16 6.13 15.17 6.13C15.17 6.13 15.18 6.14 15.19 6.15L18.54 11.97C18.55 11.98 18.55 11.99 18.55 11.99C18.55 12 18.55 12.01 18.54 12.02C18.54 12.03 18.53 12.03 18.53 12.04C18.52 12.04 18.52 12.04 18.5 12.04L11.79 12.04C11.77 12.04 11.76 12.04 11.76 12.04C11.75 12.03 11.75 12.03 11.74 12.02C11.74 12.01 11.73 12 11.73 11.99C11.73 11.99 11.73 11.98 11.74 11.97L15.1 6.15ZM10.43 12.04L5.81 12.04C5.79 12.04 5.76 12.02 5.76 11.99L5.76 6.66C5.76 6.63 5.79 6.61 5.81 6.61L11.14 6.61C11.17 6.61 11.19 6.63 11.19 6.66L11.19 10.32L10.62 11.32C10.48 11.55 10.42 11.8 10.43 12.04ZM4.21 13.53C4.33 13.41 4.49 13.34 4.67 13.34L19.43 13.34C19.79 13.34 20.08 13.63 20.08 13.99L20.08 15.9C20.08 17.64 18.67 19.05 16.93 19.05L7.17 19.05C5.43 19.05 4.02 17.64 4.02 15.9L4.02 13.99C4.02 13.82 4.08 13.65 4.21 13.53Z" fill="#717681" fill-opacity="1.000000" fill-rule="evenodd"/>
	</g>
</svg>
