<svg width="24.000000" height="24.000000" viewBox="0 0 24 24" fill="none" xmlns="http://www.w3.org/2000/svg" xmlns:xlink="http://www.w3.org/1999/xlink">
	<desc>
			Created with Pixso.
	</desc>
	<defs>
		<clipPath id="clip1735_584">
			<rect id="Outline / Elderly Outline" width="24.000000" height="24.000000" fill="white" fill-opacity="0"/>
		</clipPath>
	</defs>
	<g>
		<path id="Shape" d="M10.52 2C9.69 2 9.02 2.67 9.02 3.5L9.02 4.5C9.02 5.32 9.69 6 10.52 6C11.35 6 12.02 5.32 12.02 4.5L12.02 3.5C12.02 2.67 11.35 2 10.52 2ZM7.76 17.5L6.65 17.5C6.21 17.5 5.88 17.09 5.96 16.66L7.41 9.28C7.67 7.95 8.84 7 10.19 7C10.96 7 11.66 7.29 12.17 7.79C12.85 8.46 13.55 9.14 14.26 9.78C14.69 10.19 15.27 10.42 15.87 10.42L17.37 10.42C17.73 10.42 18.02 10.71 18.02 11.07C18.02 11.36 17.83 11.61 17.56 11.69C18.15 12.07 18.54 12.74 18.54 13.5L18.54 21.35C18.54 21.71 18.25 22 17.89 22C17.53 22 17.24 21.71 17.24 21.35L17.24 13.5C17.24 13.03 16.86 12.65 16.39 12.65C15.92 12.65 15.54 13.03 15.54 13.5L15.54 14.59C15.54 14.95 15.25 15.24 14.89 15.24C14.53 15.24 14.24 14.95 14.24 14.59L14.24 13.5C14.24 12.72 14.65 12.05 15.26 11.67C14.55 11.55 13.89 11.22 13.36 10.72L13.02 10.4L13.02 16.79C13.02 17.18 12.71 17.5 12.32 17.5L11.67 17.5L11.67 21.35C11.67 21.71 11.38 22 11.02 22C10.66 22 10.37 21.71 10.37 21.35L10.37 17.5L9.06 17.5L9.06 21.35C9.06 21.71 8.77 22 8.41 22C8.05 22 7.76 21.71 7.76 21.35L7.76 17.5ZM10.19 8.29C9.91 8.29 9.65 8.37 9.42 8.5C8.74 9.04 8.55 9.75 8.69 10.53C8.82 11.36 9.31 12.22 9.93 12.86C10.18 13.11 10.18 13.53 9.92 13.78C9.66 14.03 9.25 14.02 9 13.76C8.66 13.42 8.35 13.02 8.09 12.57L7.38 16.2L11.72 16.2L11.72 9.82C11.72 8.98 11.03 8.29 10.19 8.29Z" fill="#717681" fill-opacity="1.000000" fill-rule="evenodd"/>
	</g>
</svg>
