<svg width="24.000000" height="24.000000" viewBox="0 0 24 24" fill="none" xmlns="http://www.w3.org/2000/svg" xmlns:xlink="http://www.w3.org/1999/xlink">
	<desc>
			Created with Pixso.
	</desc>
	<defs>
		<clipPath id="clip1735_585">
			<rect id="Solid / Elderly Solid" width="24.000000" height="24.000000" fill="white" fill-opacity="0"/>
		</clipPath>
	</defs>
	<g clip-path="url(#clip1735_585)">
		<path id="Shape" d="M9.02 3.5C9.02 2.67 9.69 2 10.52 2C11.35 2 12.02 2.67 12.02 3.5L12.02 4.5C12.02 5.32 11.35 6 10.52 6C9.69 6 9.02 5.32 9.02 4.5L9.02 3.5ZM9.06 17.5L10.37 17.5L10.37 21.35C10.37 21.71 10.66 22 11.02 22C11.38 22 11.67 21.71 11.67 21.35L11.67 17.5L12.32 17.5C12.71 17.5 13.02 17.18 13.02 16.79L13.02 10.4L13.36 10.72C13.89 11.22 14.55 11.55 15.26 11.67C14.65 12.05 14.24 12.72 14.24 13.5L14.24 14.59C14.24 14.95 14.53 15.24 14.89 15.24C15.25 15.24 15.54 14.95 15.54 14.59L15.54 13.5C15.54 13.03 15.92 12.65 16.39 12.65C16.86 12.65 17.24 13.03 17.24 13.5L17.24 21.35C17.24 21.71 17.53 22 17.89 22C18.25 22 18.54 21.71 18.54 21.35L18.54 13.5C18.54 12.74 18.15 12.07 17.56 11.69C17.83 11.61 18.02 11.36 18.02 11.07C18.02 10.71 17.73 10.42 17.37 10.42L15.87 10.42C15.27 10.42 14.69 10.19 14.26 9.78L12.5 8.04C11.94 7.42 11.18 7 10.28 7C9.67 7 9.09 7.2 8.63 7.55C8 8.24 7.67 9.12 7.76 10.07C7.85 11.07 8.41 12.21 9.72 13.29C9.99 13.52 10.03 13.93 9.81 14.21C9.58 14.48 9.17 14.52 8.89 14.29C8.06 13.61 7.45 12.87 7.05 12.11L6.18 16.66C6.1 17.1 6.43 17.5 6.87 17.5L7.76 17.5L7.76 21.35C7.76 21.71 8.05 22 8.41 22C8.77 22 9.06 21.71 9.06 21.35L9.06 17.5Z" fill="#717681" fill-opacity="1.000000" fill-rule="evenodd"/>
	</g>
</svg>
