<svg viewBox="0 0 24 24" xmlns="http://www.w3.org/2000/svg" xmlns:xlink="http://www.w3.org/1999/xlink" width="24.000000" height="24.000000" fill="none">
	<rect id="Outline/Emails Outline" width="24.000000" height="24.000000" x="0.000000" y="0.000000" />
	<path id="Shape" d="M5.64634 7.44443C5.64634 5.98088 6.83279 4.79443 8.29634 4.79443L18.3329 4.79443C19.7965 4.79443 20.9829 5.98088 20.9829 7.44443L20.9829 14.0049C20.9829 15.4685 19.7965 16.6549 18.3329 16.6549L8.29634 16.6549C6.83279 16.6549 5.64634 15.4685 5.64634 14.0049L5.64634 7.44443ZM7.08096 6.85607L11.9064 10.4669C12.7411 11.0915 13.8875 11.0915 14.7223 10.4669L19.5481 6.85571C19.3294 6.40509 18.8675 6.09443 18.3329 6.09443L8.29634 6.09443C7.76167 6.09443 7.2996 6.40526 7.08096 6.85607ZM16.3604 10.8647L18.4117 12.4327C18.6969 12.6507 18.7514 13.0587 18.5333 13.3439C18.3153 13.6291 17.9074 13.6836 17.6222 13.4655L15.2698 11.6674C14.0622 12.4344 12.512 12.4245 11.3132 11.6379L8.92228 13.4655C8.63708 13.6836 8.22914 13.6291 8.01113 13.3439C7.79312 13.0587 7.84759 12.6507 8.13279 12.4327L10.2257 10.8329L6.94634 8.37901L6.94634 14.0049C6.94634 14.7505 7.55076 15.3549 8.29634 15.3549L18.3329 15.3549C19.0785 15.3549 19.6829 14.7505 19.6829 14.0049L19.6829 8.37851L16.3604 10.8647ZM4.31709 9.20542C4.31709 8.84643 4.02607 8.55542 3.66709 8.55542C3.3081 8.55542 3.01709 8.84643 3.01709 9.20542L3.01709 16.5552C3.01709 18.0187 4.20354 19.2052 5.66709 19.2052L17.48 19.2052C17.8389 19.2052 18.13 18.9142 18.13 18.5552C18.13 18.1962 17.8389 17.9052 17.48 17.9052L5.66709 17.9052C4.92151 17.9052 4.31709 17.3008 4.31709 16.5552L4.31709 9.20542Z" fill="rgb(116,118,123)" fill-rule="evenodd" />
</svg>
