<svg width="24" height="24" viewBox="0 0 24 24" fill="none" xmlns="http://www.w3.org/2000/svg">
<path d="M15 4.3H9C8.06112 4.3 7.3 5.06112 7.3 6V11.4911L6.00412 10.5295L6 10.5422L4.29248 9.27515C4.09368 9.12762 4.07427 8.83504 4.27692 8.69285L6 7.48389V6C6 4.34315 7.34315 3 9 3H15C16.6569 3 18 4.34315 18 6V7.48389L19.7231 8.69285C19.9779 8.87166 19.9443 9.23851 19.6922 9.42118L18 10.6474L17.9945 10.6293L16.7 11.5673V6C16.7 5.06112 15.9389 4.3 15 4.3Z" fill="#717681"/>
<path d="M4.07338 10.7314C3.63322 10.4048 3 10.6006 3 11.1487V18C3 19.6569 4.34315 21 6 21H18C19.6569 21 21 19.6569 21 18V11.1487C21 10.6658 20.4463 10.4801 20.0553 10.7634L15.4556 14.0966L18.0079 16.0155C18.2949 16.2313 18.3526 16.6387 18.1369 16.9257C17.9211 17.2126 17.5137 17.2703 17.2267 17.0546L14.354 14.8948L14.1587 15.0363C12.8686 15.9711 11.1213 15.9612 9.84194 15.0119L9.66348 14.8795L6.77035 17.0546C6.48341 17.2703 6.07592 17.2126 5.8602 16.9257C5.64447 16.6387 5.70219 16.2313 5.98913 16.0155L8.57475 14.0716L4.07338 10.7314Z" fill="#717681"/>
<path d="M8.9624 7.28367C8.9624 6.92468 9.25342 6.63367 9.6124 6.63367L14.366 6.63367C14.725 6.63367 15.016 6.92468 15.016 7.28367C15.016 7.64265 14.725 7.93367 14.366 7.93367L9.6124 7.93367C9.25342 7.93367 8.9624 7.64265 8.9624 7.28367Z" fill="#717681"/>
<path d="M9.6124 9.66418C9.25342 9.66418 8.9624 9.9552 8.9624 10.3142C8.9624 10.6732 9.25342 10.9642 9.6124 10.9642L14.366 10.9642C14.725 10.9642 15.016 10.6732 15.016 10.3142C15.016 9.9552 14.725 9.66419 14.366 9.66419L9.6124 9.66418Z" fill="#717681"/>
</svg>
