<svg width="24.000000" height="24.000000" viewBox="0 0 24 24" fill="none" xmlns="http://www.w3.org/2000/svg" xmlns:xlink="http://www.w3.org/1999/xlink">
	<desc>
			Created with Pixso.
	</desc>
	<defs>
		<clipPath id="clip5086_1077">
			<rect id="Solid / Envelope Solid" width="24.000000" height="24.000000" fill="white" fill-opacity="0"/>
		</clipPath>
	</defs>
	<g clip-path="url(#clip5086_1077)">
		<path id="Shape" d="M9 4.29L15 4.29C15.93 4.29 16.7 5.06 16.7 6L16.7 11.56L17.99 10.62L18 10.64L19.69 9.42C19.94 9.23 19.97 8.87 19.72 8.69L18 7.48L18 6C18 4.34 16.65 3 15 3L9 3C7.34 3 6 4.34 6 6L6 7.48L4.27 8.69C4.07 8.83 4.09 9.12 4.29 9.27L6 10.54L6 10.52L7.29 11.49L7.29 6C7.29 5.06 8.06 4.29 9 4.29ZM8.96 7.28C8.96 6.92 9.25 6.63 9.61 6.63L14.36 6.63C14.72 6.63 15.01 6.92 15.01 7.28C15.01 7.64 14.72 7.93 14.36 7.93L9.61 7.93C9.25 7.93 8.96 7.64 8.96 7.28ZM8.96 10.31C8.96 9.95 9.25 9.66 9.61 9.66L14.36 9.66C14.72 9.66 15.01 9.95 15.01 10.31C15.01 10.67 14.72 10.96 14.36 10.96L9.61 10.96C9.25 10.96 8.96 10.67 8.96 10.31ZM3 11.14C3 10.6 3.63 10.4 4.07 10.73L8.57 14.07L5.98 16.01C5.7 16.23 5.64 16.63 5.86 16.92C6.07 17.21 6.48 17.27 6.77 17.05L9.66 14.87L9.84 15.01C11.12 15.96 12.86 15.97 14.15 15.03L14.35 14.89L17.22 17.05C17.51 17.27 17.92 17.21 18.13 16.92C18.35 16.63 18.29 16.23 18 16.01L15.45 14.09L20.05 10.76C20.44 10.48 21 10.66 21 11.14L21 18C21 19.65 19.65 21 18 21L6 21C4.34 21 3 19.65 3 18L3 11.14Z" fill="#74767B" fill-opacity="1.000000" fill-rule="evenodd"/>
	</g>
</svg>
