<svg width="24" height="24" viewBox="0 0 24 24" fill="none" xmlns="http://www.w3.org/2000/svg">
<path d="M8.9624 7.28361C8.9624 6.92462 9.25342 6.63361 9.6124 6.63361L14.366 6.63361C14.725 6.63361 15.016 6.92462 15.016 7.28361C15.016 7.64259 14.725 7.93361 14.366 7.93361L9.6124 7.93361C9.25342 7.93361 8.9624 7.64259 8.9624 7.28361Z" fill="#717681"/>
<path d="M9.6124 9.66418C9.25342 9.66418 8.9624 9.9552 8.9624 10.3142C8.9624 10.6732 9.25342 10.9642 9.6124 10.9642L14.366 10.9642C14.725 10.9642 15.016 10.6732 15.016 10.3142C15.016 9.9552 14.725 9.66419 14.366 9.66419L9.6124 9.66418Z" fill="#717681"/>
<path fill-rule="evenodd" clip-rule="evenodd" d="M18 7.48389L19.7231 8.69285C20.5235 9.25445 21 10.1709 21 11.1487V18C21 19.6569 19.6569 21 18 21H6C4.34315 21 3 19.6569 3 18V11.1487C3 10.1709 3.47651 9.25445 4.27692 8.69285L6 7.48389V6C6 4.34315 7.34315 3 9 3H15C16.6569 3 18 4.34315 18 6V7.48389ZM15 4.3H9C8.06112 4.3 7.3 5.06112 7.3 6V11.494L10.6072 13.9563C11.4347 14.5723 12.5672 14.5767 13.3994 13.967L16.7 11.549V6C16.7 5.06112 15.9389 4.3 15 4.3ZM18 10.5966L19.0603 9.81981C19.0331 9.79811 19.0051 9.77717 18.9764 9.75704L18 9.07196V10.5966ZM6 9.07196L5.02359 9.75704C5.01389 9.76385 5.00427 9.77075 4.99473 9.77774L6 10.5262V9.07196ZM15.4392 14.0842L19.6906 10.9696C19.6968 11.0287 19.7 11.0885 19.7 11.1487V18C19.7 18.9389 18.9389 19.7 18 19.7H6C5.06112 19.7 4.3 18.9389 4.3 18V11.1487C4.3 11.0632 4.30643 10.9785 4.31896 10.8953L8.57991 14.0676L5.9891 16.0155C5.70217 16.2312 5.64444 16.6387 5.86017 16.9256C6.0759 17.2126 6.48339 17.2703 6.77032 17.0546L9.66685 14.8769L9.83091 14.999C11.1161 15.9559 12.8751 15.9626 14.1677 15.0157L14.3435 14.8869L17.2267 17.0546C17.5137 17.2703 17.9212 17.2126 18.1369 16.9256C18.3526 16.6387 18.2949 16.2312 18.008 16.0155L15.4392 14.0842Z" fill="#717681"/>
</svg>
