<svg width="24.000000" height="24.000000" viewBox="0 0 24 24" fill="none" xmlns="http://www.w3.org/2000/svg" xmlns:xlink="http://www.w3.org/1999/xlink">
	<desc>
			Created with Pixso.
	</desc>
	<defs>
		<clipPath id="clip5873_731">
			<rect id="Solid / Flag Solid" width="24.000000" height="24.000000" fill="white" fill-opacity="0"/>
		</clipPath>
	</defs>
	<g clip-path="url(#clip5873_731)">
		<path id="Shape" d="M3.99 15.33L3.99 20.31C3.99 20.67 4.28 20.96 4.64 20.96C5 20.96 5.29 20.67 5.29 20.31L5.29 15.98L18.28 15.98C19.62 15.98 20.4 14.47 19.63 13.37L17.01 9.67L19.72 5.59C20.45 4.49 19.66 3.03 18.35 3.03L5.64 3.03C4.73 3.03 3.99 3.77 3.99 4.68L3.99 15.32C3.99 15.33 3.99 15.33 3.99 15.33C3.99 15.33 3.99 15.33 3.99 15.33Z" fill="#74767B" fill-opacity="1.000000" fill-rule="evenodd"/>
	</g>
</svg>
