<svg width="24.000000" height="24.000000" viewBox="0 0 24 24" fill="none" xmlns="http://www.w3.org/2000/svg" xmlns:xlink="http://www.w3.org/1999/xlink">
	<desc>
			Created with Pixso.
	</desc>
	<defs>
		<clipPath id="clip5873_730">
			<rect id="Outline / Flag Outline" width="24.000000" height="24.000000" fill="white" fill-opacity="0"/>
		</clipPath>
	</defs>
	<g clip-path="url(#clip5873_730)">
		<path id="Shape" d="M5.65 4.35C5.46 4.35 5.3 4.5 5.3 4.7L5.3 14.7L18.29 14.7C18.57 14.7 18.74 14.38 18.58 14.14L15.7 10.08C15.54 9.86 15.54 9.57 15.69 9.34L18.65 4.89C18.8 4.66 18.64 4.35 18.36 4.35L5.65 4.35ZM4 15.35L4 20.33C4 20.69 4.29 20.98 4.65 20.98C5.01 20.98 5.3 20.69 5.3 20.33L5.3 16L18.29 16C19.63 16 20.41 14.49 19.64 13.39L17.02 9.69L19.73 5.61C20.46 4.51 19.67 3.05 18.36 3.05L5.65 3.05C4.74 3.05 4 3.78 4 4.7L4 15.34C4 15.34 4 15.34 4 15.35C4 15.35 4 15.35 4 15.35Z" fill="#717681" fill-opacity="1.000000" fill-rule="evenodd"/>
	</g>
</svg>
