<svg width="24.000000" height="24.000000" viewBox="0 0 24 24" fill="none" xmlns="http://www.w3.org/2000/svg" xmlns:xlink="http://www.w3.org/1999/xlink">
	<desc>
			Created with Pixso.
	</desc>
	<defs>
		<clipPath id="clip131296_100">
			<rect id="Outline / Flash Light Outline" width="24.000000" height="24.000000" fill="white" fill-opacity="0"/>
		</clipPath>
	</defs>
	<g >
		<path id="Shape" d="M6.26 3.12C6.56 2.91 6.96 2.97 7.17 3.26L8.98 5.77C9.19 6.06 9.13 6.46 8.83 6.67C8.54 6.89 8.14 6.82 7.93 6.53L6.12 4.03C5.91 3.73 5.97 3.33 6.26 3.12ZM17.7 3.12C17.41 2.91 17.01 2.97 16.79 3.26L14.99 5.77C14.78 6.06 14.84 6.46 15.13 6.67C15.42 6.89 15.83 6.82 16.04 6.53L17.85 4.03C18.06 3.73 17.99 3.33 17.7 3.12ZM12.63 3.65C12.63 3.29 12.34 3 11.98 3C11.62 3 11.33 3.29 11.33 3.65L11.33 6.15C11.33 6.51 11.62 6.8 11.98 6.8C12.34 6.8 12.63 6.51 12.63 6.15L12.63 3.65ZM16.46 11.54L15.24 13.3L15.23 13.3L15.23 18.02C15.23 19.68 13.89 21.02 12.23 21.02L11.25 21.02C9.59 21.02 8.25 19.68 8.25 18.02L8.25 13.3L8.23 13.3L7.01 11.54C6.66 11.03 6.48 10.44 6.48 9.83L6.48 9.75C6.48 8.81 7.24 8.05 8.18 8.05L15.3 8.05C16.23 8.05 17 8.81 17 9.75L17 9.83C17 10.44 16.81 11.04 16.46 11.54ZM8.18 9.35L15.3 9.35C15.52 9.35 15.7 9.53 15.7 9.75L15.7 9.83C15.7 10.18 15.59 10.51 15.39 10.8L14.56 12L8.91 12L8.08 10.8C7.88 10.51 7.78 10.18 7.78 9.83L7.78 9.75C7.78 9.53 7.95 9.35 8.18 9.35ZM9.55 13.32L13.93 13.32L13.93 18.02C13.93 18.96 13.17 19.72 12.23 19.72L11.25 19.72C10.31 19.72 9.55 18.96 9.55 18.02L9.55 13.32ZM11.74 16.52C12.29 16.52 12.74 16.07 12.74 15.52C12.74 14.97 12.29 14.52 11.74 14.52C11.18 14.52 10.74 14.97 10.74 15.52C10.74 16.07 11.18 16.52 11.74 16.52Z" fill="#74767B" fill-opacity="1.000000" fill-rule="evenodd"/>
	</g>
</svg>
