<svg width="24" height="24" viewBox="0 0 24 24" fill="none" xmlns="http://www.w3.org/2000/svg">
<path d="M6.28083 3.09814C6.5718 2.88789 6.97812 2.95333 7.18837 3.2443L8.99696 5.74723C9.20722 6.0382 9.14178 6.44452 8.85081 6.65477C8.55984 6.86502 8.15352 6.79959 7.94327 6.50862L6.13467 4.00569C5.92442 3.71472 5.98985 3.3084 6.28083 3.09814Z" fill="#717681"/>
<path d="M12.6499 3.62499C12.6499 3.26601 12.3589 2.97499 11.9999 2.97499C11.6409 2.97499 11.3499 3.26601 11.3499 3.62499V6.12792C11.3499 6.48691 11.6409 6.77792 11.9999 6.77792C12.3589 6.77792 12.6499 6.48691 12.6499 6.12792V3.62499Z" fill="#717681"/>
<path d="M6.49209 9.15781C6.49171 8.5352 6.99633 8.03027 7.61894 8.03027H15.8854C16.5075 8.03027 17.012 8.53439 17.0124 9.1565C17.0125 9.38594 16.9591 9.61225 16.8563 9.81739L16.0876 11.3521C15.969 11.589 15.7267 11.7386 15.4617 11.7386H8.04217C7.77711 11.7386 7.53478 11.5888 7.41617 11.3518L6.64785 9.81629C6.54556 9.61185 6.49223 9.38641 6.49209 9.15781Z" fill="#717681"/>
<path fill-rule="evenodd" clip-rule="evenodd" d="M14.5449 13.0386C14.9315 13.0386 15.2449 13.352 15.2449 13.7386V18C15.2449 19.6568 13.9018 21 12.2449 21H11.2614C9.60456 21 8.26141 19.6568 8.26141 18V13.7386C8.26141 13.352 8.57481 13.0386 8.96141 13.0386H14.5449ZM11.7529 16.499C12.3052 16.499 12.7529 16.0513 12.7529 15.499C12.7529 14.9467 12.3052 14.499 11.7529 14.499C11.2006 14.499 10.7529 14.9467 10.7529 15.499C10.7529 16.0513 11.2006 16.499 11.7529 16.499Z" fill="#717681"/>
<path d="M16.8114 3.2443C17.0217 2.95333 17.428 2.88789 17.719 3.09814C18.0099 3.3084 18.0754 3.71472 17.8651 4.00569L16.0565 6.50862C15.8463 6.79959 15.44 6.86502 15.149 6.65477C14.858 6.44452 14.7926 6.0382 15.0028 5.74723L16.8114 3.2443Z" fill="#717681"/>
</svg>
