<svg width="24" height="24" viewBox="0 0 24 24" fill="none" xmlns="http://www.w3.org/2000/svg">
<path d="M6.26935 3.1232C6.56032 2.91295 6.96664 2.97838 7.1769 3.26935L8.98549 5.77228C9.19574 6.06325 9.13031 6.46957 8.83934 6.67983C8.54837 6.89008 8.14205 6.82464 7.93179 6.53367L6.1232 4.03074C5.91295 3.73977 5.97838 3.33345 6.26935 3.1232Z" fill="#717681"/>
<path d="M12.6384 3.65005C12.6384 3.29106 12.3474 3.00005 11.9884 3.00005C11.6294 3.00005 11.3384 3.29106 11.3384 3.65005V6.15298C11.3384 6.51196 11.6294 6.80298 11.9884 6.80298C12.3474 6.80298 12.6384 6.51196 12.6384 6.15298V3.65005Z" fill="#717681"/>
<path d="M12.7414 15.5241C12.7414 16.0764 12.2936 16.5241 11.7414 16.5241C11.1891 16.5241 10.7414 16.0764 10.7414 15.5241C10.7414 14.9718 11.1891 14.5241 11.7414 14.5241C12.2936 14.5241 12.7414 14.9718 12.7414 15.5241Z" fill="#717681"/>
<path fill-rule="evenodd" clip-rule="evenodd" d="M16.4688 11.5417L15.247 13.3092H15.2337V18.025C15.2337 19.6819 13.8905 21.025 12.2337 21.025H11.2501C9.59329 21.025 8.25015 19.6819 8.25014 18.025V13.3092H8.2335L7.01208 11.5404C6.66625 11.0395 6.48092 10.4454 6.48072 9.83674L6.48069 9.75589C6.48038 8.81678 7.24159 8.05532 8.18069 8.05532H15.301C16.2396 8.05532 17.0007 8.81609 17.001 9.75475L17.001 9.83484C17.0012 10.4447 16.8156 11.04 16.4688 11.5417ZM8.18069 9.35532H15.301C15.5218 9.35532 15.7009 9.53433 15.701 9.75519L15.701 9.83527C15.7011 10.1808 15.5959 10.5182 15.3994 10.8025L14.5653 12.0092H8.91565L8.08182 10.8017C7.88585 10.5179 7.78084 10.1812 7.78072 9.8363L7.78069 9.75545C7.78062 9.53449 7.95973 9.35532 8.18069 9.35532ZM9.55014 13.3231H13.9337V18.025C13.9337 18.9639 13.1725 19.725 12.2337 19.725H11.2501C10.3113 19.725 9.55015 18.9639 9.55014 18.025V13.3231Z" fill="#717681"/>
<path d="M16.8 3.26935C17.0102 2.97838 17.4165 2.91295 17.7075 3.1232C17.9985 3.33345 18.0639 3.73977 17.8537 4.03074L16.0451 6.53367C15.8348 6.82464 15.4285 6.89008 15.1375 6.67983C14.8465 6.46957 14.7811 6.06325 14.9914 5.77228L16.8 3.26935Z" fill="#717681"/>
</svg>
