<svg width="24.000000" height="24.000000" viewBox="0 0 24 24" fill="none" xmlns="http://www.w3.org/2000/svg" xmlns:xlink="http://www.w3.org/1999/xlink">
	<desc>
			Created with Pixso.
	</desc>
	<defs>
		<clipPath id="clip131296_101">
			<rect id="Solid / Flash Light Solid" width="24.000000" height="24.000000" fill="white" fill-opacity="0"/>
		</clipPath>
	</defs>
	<g clip-path="url(#clip131296_101)">
		<path id="Shape" d="M6.28 3.09C6.57 2.88 6.97 2.95 7.18 3.24L8.99 5.74C9.2 6.03 9.14 6.44 8.85 6.65C8.56 6.86 8.15 6.79 7.94 6.5L6.13 4C5.92 3.71 5.98 3.3 6.28 3.09ZM17.71 3.09C17.42 2.88 17.02 2.95 16.81 3.24L15 5.74C14.79 6.03 14.85 6.44 15.14 6.65C15.44 6.86 15.84 6.79 16.05 6.5L17.86 4C18.07 3.71 18.01 3.3 17.71 3.09ZM12.65 3.62C12.65 3.26 12.35 2.97 12 2.97C11.64 2.97 11.35 3.26 11.35 3.62L11.35 6.12C11.35 6.48 11.64 6.77 12 6.77C12.35 6.77 12.65 6.48 12.65 6.12L12.65 3.62ZM7.61 8.03C6.99 8.03 6.49 8.53 6.49 9.15C6.49 9.38 6.54 9.61 6.64 9.81L7.41 11.35C7.53 11.58 7.77 11.73 8.04 11.73L15.46 11.73C15.72 11.73 15.96 11.58 16.08 11.35L16.85 9.81C16.95 9.61 17.01 9.38 17.01 9.15C17.01 8.53 16.5 8.03 15.88 8.03L7.61 8.03ZM14.54 13.03C14.93 13.03 15.24 13.35 15.24 13.73L15.24 18C15.24 19.65 13.9 21 12.24 21L11.26 21C9.6 21 8.26 19.65 8.26 18L8.26 13.73C8.26 13.35 8.57 13.03 8.96 13.03L14.54 13.03ZM11.75 16.49C12.3 16.49 12.75 16.05 12.75 15.49C12.75 14.94 12.3 14.49 11.75 14.49C11.2 14.49 10.75 14.94 10.75 15.49C10.75 16.05 11.2 16.49 11.75 16.49Z" fill="#74767B" fill-opacity="1.000000" fill-rule="evenodd"/>
	</g>
</svg>
