<svg width="24.000000" height="24.000000" viewBox="0 0 24 24" fill="none" xmlns="http://www.w3.org/2000/svg" xmlns:xlink="http://www.w3.org/1999/xlink">
	<desc>
			Created with Pixso.
	</desc>
	<defs>
		<clipPath id="clip130941_119">
			<rect id="Solid / Gallery Solid" width="24.000000" height="24.000000" fill="white" fill-opacity="0"/>
		</clipPath>
	</defs>
	<g>
		<path id="Shape" d="M3 7C3 5.34 4.34 4 6 4L18 4C19.65 4 21 5.34 21 7L21 17C21 17.18 20.98 17.36 20.95 17.53C20.71 18.87 19.57 19.91 18.17 19.99C18.12 19.99 18.07 19.99 18.01 19.99C18.01 20 18 20 18 20L6 20C5.17 20 4.42 19.66 3.88 19.12C3.33 18.58 3 17.83 3 17L3 7ZM4.6 17.96C4.9 18.41 5.42 18.7 6 18.7L8.64 18.7L10.54 15.64L9.73 14.33C9.06 13.26 7.5 13.26 6.84 14.34L4.6 17.96ZM10.22 18.7L18 18.7C18.93 18.7 19.7 17.93 19.7 17L19.7 15.51L17.38 11.79C16.72 10.72 15.16 10.72 14.49 11.8L10.22 18.7ZM10.18 8.98C10.18 10.08 9.28 10.97 8.18 10.97C7.08 10.97 6.19 10.08 6.19 8.98C6.19 7.88 7.08 6.99 8.18 6.99C9.28 6.99 10.18 7.88 10.18 8.98Z" fill="#717681" fill-opacity="1.000000" fill-rule="evenodd"/>
	</g>
</svg>
