<svg width="24" height="24" viewBox="0 0 24 24" fill="none" xmlns="http://www.w3.org/2000/svg">
<path d="M18.4615 10.4762C18.4615 11.2891 17.8025 11.9481 16.9896 11.9481C16.1767 11.9481 15.5177 11.2891 15.5177 10.4762C15.5177 9.66336 16.1767 9.00438 16.9896 9.00438C17.8025 9.00438 18.4615 9.66336 18.4615 10.4762Z" fill="#717681"/>
<path fill-rule="evenodd" clip-rule="evenodd" d="M2.02148 10.8674C2.02148 7.80569 4.5035 5.32367 7.56522 5.32367H16.4352C19.4969 5.32367 21.9789 7.80568 21.9789 10.8674V16.9453C21.9789 18.4873 20.7289 19.7374 19.1868 19.7374C18.1728 19.7374 17.2385 19.1876 16.7461 18.3012L15.8236 17.0746C14.9199 15.8729 13.5038 15.166 12.0002 15.166C10.4966 15.166 9.08049 15.8729 8.17678 17.0746L7.25433 18.3012C6.76189 19.1876 5.82759 19.7374 4.81359 19.7374C3.27155 19.7374 2.02148 18.4873 2.02148 16.9453V10.8674ZM19.7615 10.4762C19.7615 12.0071 18.5205 13.2481 16.9896 13.2481C15.4587 13.2481 14.2177 12.0071 14.2177 10.4762C14.2177 8.94539 15.4587 7.70438 16.9896 7.70438C18.5205 7.70438 19.7615 8.94539 19.7615 10.4762ZM6.37737 8.34775C6.37737 7.98877 6.66839 7.69775 7.02737 7.69775C7.38636 7.69775 7.67737 7.98877 7.67737 8.34775V9.82031H9.14985C9.50884 9.82031 9.79985 10.1113 9.79985 10.4703C9.79985 10.8293 9.50884 11.1203 9.14985 11.1203H7.67737V12.5928C7.67737 12.9518 7.38636 13.2428 7.02737 13.2428C6.66839 13.2428 6.37737 12.9518 6.37737 12.5928V11.1203H4.90477C4.54578 11.1203 4.25477 10.8293 4.25477 10.4703C4.25477 10.1113 4.54578 9.82031 4.90477 9.82031H6.37737V8.34775Z" fill="#717681"/>
</svg>
