<svg width="24.000000" height="24.000000" viewBox="0 0 24 24" fill="none" xmlns="http://www.w3.org/2000/svg" xmlns:xlink="http://www.w3.org/1999/xlink">
	<desc>
			Created with Pixso.
	</desc>
	<defs/>
	<path id="Shape" d="M7.56 5.32C4.5 5.32 2.02 7.8 2.02 10.86L2.02 16.94C2.02 18.48 3.27 19.73 4.81 19.73C5.82 19.73 6.76 19.18 7.25 18.3L8.17 17.07C9.08 15.87 10.49 15.16 12 15.16C13.5 15.16 14.91 15.87 15.82 17.07L16.74 18.3C17.23 19.18 18.17 19.73 19.18 19.73C20.72 19.73 21.97 18.48 21.97 16.94L21.97 10.86C21.97 7.8 19.49 5.32 16.43 5.32L7.56 5.32ZM7.02 7.69C6.66 7.69 6.37 7.98 6.37 8.34L6.37 9.82L4.9 9.82C4.54 9.82 4.25 10.11 4.25 10.47C4.25 10.82 4.54 11.12 4.9 11.12L6.37 11.12L6.37 12.59C6.37 12.95 6.66 13.24 7.02 13.24C7.38 13.24 7.67 12.95 7.67 12.59L7.67 11.12L9.14 11.12C9.5 11.12 9.79 10.82 9.79 10.47C9.79 10.11 9.5 9.82 9.14 9.82L7.67 9.82L7.67 8.34C7.67 7.98 7.38 7.69 7.02 7.69ZM16.98 13.24C18.52 13.24 19.76 12 19.76 10.47C19.76 8.94 18.52 7.7 16.98 7.7C15.45 7.7 14.21 8.94 14.21 10.47C14.21 12 15.45 13.24 16.98 13.24ZM16.98 11.94C17.8 11.94 18.46 11.28 18.46 10.47C18.46 9.66 17.8 9 16.98 9C16.17 9 15.51 9.66 15.51 10.47C15.51 11.28 16.17 11.94 16.98 11.94Z" fill="#717681" fill-opacity="1.000000" fill-rule="evenodd"/>
</svg>
