<svg viewBox="0 0 24 24" xmlns="http://www.w3.org/2000/svg" xmlns:xlink="http://www.w3.org/1999/xlink" width="24.000000" height="24.000000" fill="none" customFrame="#000000">
	<rect id="Outline/Gantt Chart Outline" width="24.000000" height="24.000000" x="0.000000" y="0.000000" />
	<path id="Shape" d="M4 20.6153C4 20.9743 4.29102 21.2653 4.65 21.2653C5.00899 21.2653 5.3 20.9743 5.3 20.6153L5.3 4.65C5.3 4.29101 5.00899 4 4.65 4C4.29102 4 4 4.29101 4 4.65L4 20.6153ZM12.0177 7.45778C12.0177 6.38087 11.1447 5.50786 10.0678 5.50786L8.54108 5.50786C7.46417 5.50786 6.59116 6.38087 6.59116 7.45778C6.59116 8.53469 7.46417 9.4077 8.54108 9.4077L10.0678 9.4077C11.1447 9.4077 12.0177 8.53469 12.0177 7.45778ZM8.54108 8.1077L10.0678 8.1077C10.4267 8.1077 10.7177 7.81672 10.7177 7.45778C10.7177 7.09884 10.4267 6.80786 10.0678 6.80786L8.54108 6.80786C8.18214 6.80786 7.89116 7.09884 7.89116 7.45778C7.89116 7.81672 8.18214 8.1077 8.54108 8.1077ZM16.0448 10.7168C17.1217 10.7168 17.9947 11.5899 17.9947 12.6668C17.9947 13.7437 17.1217 14.6167 16.0448 14.6167L10.7515 14.6167C9.67462 14.6167 8.80161 13.7437 8.80161 12.6668C8.80161 11.5898 9.67462 10.7168 10.7515 10.7168L16.0448 10.7168ZM16.0448 13.3167L10.7515 13.3167C10.3926 13.3167 10.1016 13.0257 10.1016 12.6668C10.1016 12.3078 10.3926 12.0168 10.7515 12.0168L16.0448 12.0168C16.4037 12.0168 16.6947 12.3078 16.6947 12.6668C16.6947 13.0257 16.4037 13.3167 16.0448 13.3167ZM18.1024 15.8926C19.1793 15.8926 20.0523 16.7656 20.0523 17.8425C20.0523 18.9195 19.1793 19.7925 18.1024 19.7925L15.6175 19.7925C14.5406 19.7925 13.6676 18.9195 13.6676 17.8425C13.6676 16.7656 14.5406 15.8926 15.6175 15.8926L18.1024 15.8926ZM18.1024 18.4925L15.6175 18.4925C15.2586 18.4925 14.9676 18.2015 14.9676 17.8425C14.9676 17.4836 15.2586 17.1926 15.6175 17.1926L18.1024 17.1926C18.4614 17.1926 18.7523 17.4836 18.7523 17.8425C18.7523 18.2015 18.4614 18.4925 18.1024 18.4925Z" fill="rgb(116,118,123)" fill-rule="evenodd" />
</svg>
