<svg viewBox="0 0 24 24" xmlns="http://www.w3.org/2000/svg" xmlns:xlink="http://www.w3.org/1999/xlink" width="24.000000" height="24.000000" fill="none" customFrame="#000000">
	<rect id="Solid/Gantt Chart Solid" width="24.000000" height="24.000000" x="0.000000" y="0.000000" />
	<path id="Shape" d="M3.97388 19.9826C3.97388 20.3416 4.26489 20.6326 4.62388 20.6326C4.98286 20.6326 5.27388 20.3416 5.27388 19.9826L5.27388 4.01737C5.27388 3.65838 4.98286 3.36737 4.62388 3.36737C4.26489 3.36737 3.97388 3.65838 3.97388 4.01737L3.97388 19.9826ZM10.0416 4.87523C11.1185 4.87523 11.9916 5.74824 11.9916 6.82515C11.9916 7.90206 11.1185 8.77507 10.0416 8.77507L8.51496 8.77507C7.43805 8.77507 6.56504 7.90206 6.56504 6.82515C6.56504 5.74824 7.43805 4.87523 8.51496 4.87523L10.0416 4.87523ZM17.9686 12.0341C17.9686 10.9572 17.0956 10.0842 16.0187 10.0842L10.7254 10.0842C9.6485 10.0842 8.77549 10.9572 8.77549 12.0341C8.77549 13.111 9.6485 13.9841 10.7254 13.9841L16.0187 13.9841C17.0956 13.9841 17.9686 13.111 17.9686 12.0341ZM20.0262 17.2099C20.0262 16.133 19.1532 15.26 18.0763 15.26L15.5914 15.26C14.5145 15.26 13.6415 16.133 13.6415 17.2099C13.6415 18.2868 14.5145 19.1598 15.5914 19.1598L18.0763 19.1598C19.1532 19.1598 20.0262 18.2868 20.0262 17.2099Z" fill="rgb(116,118,123)" fill-rule="evenodd" />
</svg>
