<svg width="24" height="24" viewBox="0 0 24 24" fill="none" xmlns="http://www.w3.org/2000/svg">
<path d="M4.0061 19.9648C4.0061 20.3238 4.29712 20.6148 4.6561 20.6148C5.01509 20.6148 5.3061 20.3238 5.3061 19.9648V3.99955C5.3061 3.64056 5.01509 3.34955 4.6561 3.34955C4.29712 3.34955 4.0061 3.64056 4.0061 3.99955V19.9648Z" fill="#717681"/>
<path d="M18.1085 15.2422C19.1854 15.2422 20.0584 16.1152 20.0584 17.1921C20.0584 18.269 19.1854 19.142 18.1085 19.142H15.6236C14.5467 19.142 13.6737 18.269 13.6737 17.1921C13.6737 16.1152 14.5467 15.2422 15.6236 15.2422H18.1085Z" fill="#717681"/>
<path d="M18.0008 12.0163C18.0008 10.9394 17.1278 10.0664 16.0509 10.0664H10.7576C9.68072 10.0664 8.80771 10.9394 8.80771 12.0163C8.80771 13.0932 9.68072 13.9662 10.7576 13.9662H16.0509C17.1278 13.9662 18.0008 13.0932 18.0008 12.0163Z" fill="#717681"/>
<path d="M12.0238 6.80733C12.0238 5.73041 11.1508 4.8574 10.0739 4.8574H8.54719C7.47027 4.8574 6.59727 5.73041 6.59727 6.80733C6.59727 7.88424 7.47027 8.75725 8.54719 8.75725H10.0739C11.1508 8.75725 12.0238 7.88424 12.0238 6.80733Z" fill="#717681"/>
</svg>
