<svg width="24.000000" height="24.000000" viewBox="0 0 24 24" fill="none" xmlns="http://www.w3.org/2000/svg" xmlns:xlink="http://www.w3.org/1999/xlink">
	<desc>
			Created with Pixso.
	</desc>
	<defs>
		<clipPath id="clip17_520">
			<rect id="Outline / Government Outline" width="24.000000" height="24.000000" fill="white" fill-opacity="0"/>
		</clipPath>
	</defs>
	<g>
		<path id="Shape" d="M12.47 1.8L12.26 2.22C12.15 2.44 11.84 2.44 11.73 2.22L11.52 1.8C11.42 1.61 11.57 1.37 11.79 1.37L12.2 1.37C12.42 1.37 12.57 1.61 12.47 1.8ZM11.19 2.48C11.32 2.46 11.44 2.53 11.5 2.64L11.73 3.1C11.84 3.32 12.15 3.32 12.26 3.1L12.49 2.64C12.55 2.53 12.67 2.46 12.8 2.48C13.14 2.54 13.47 2.65 13.64 2.82C14.02 3.2 13.69 4.3 13.31 4.77C13.26 4.84 13.18 4.87 13.1 4.87L10.89 4.87C10.81 4.87 10.73 4.84 10.68 4.77C10.3 4.3 9.97 3.2 10.35 2.82C10.52 2.65 10.85 2.54 11.19 2.48ZM8.51 5.92C8.53 5.92 8.56 5.92 8.58 5.92L11.08 5.92C11.29 5.92 11.42 6.12 11.33 6.3C11.26 6.41 11.18 6.55 11.08 6.68C11.03 6.75 10.97 6.82 10.91 6.88C11.21 7.19 11.64 7.72 12.01 8.44C12.38 7.73 12.81 7.2 13.1 6.89C13.04 6.82 12.98 6.75 12.93 6.68C12.83 6.55 12.75 6.41 12.68 6.3C12.59 6.12 12.73 5.92 12.93 5.92L15.43 5.92C15.46 5.92 15.48 5.92 15.5 5.92C15.55 5.92 15.6 5.92 15.64 5.92C16.63 5.92 17.35 6.39 17.09 7.27C17.08 7.31 17.04 7.34 17 7.34L16.16 7.34C15.54 7.34 14.93 8.27 14.87 9.79C14.86 10.07 14.87 10.38 14.87 10.72C14.88 10.98 15.09 11.18 15.33 11.18C15.57 11.18 15.77 10.98 15.77 10.74L15.77 10.56C15.77 10.09 15.94 9.63 16.26 9.28L19.24 6C19.61 5.6 20.3 5.56 20.68 6.07C21.8 7.59 22.17 10.2 21.59 12.41C21.3 13.53 20.75 14.6 19.88 15.4C18.99 16.2 17.81 16.69 16.34 16.69L16.07 16.69C15.65 16.69 15.31 16.35 15.31 15.93C15.31 15.7 15.12 15.51 14.88 15.51C14.64 15.51 14.45 15.7 14.45 15.94L14.45 16.2C14.45 16.37 14.5 16.59 14.63 16.85C14.76 17.1 14.94 17.37 15.14 17.63C15.23 17.76 15.33 17.88 15.43 18L15.43 18.01C15.52 18.13 15.62 18.25 15.7 18.36C15.78 18.47 15.87 18.59 15.93 18.71C15.99 18.82 16.09 19.01 16.09 19.23C16.09 19.78 15.76 20.21 15.44 20.49C15.12 20.79 14.69 21.04 14.28 21.23C13.87 21.42 13.43 21.57 13.04 21.67C12.66 21.78 12.29 21.85 12.01 21.85C11.73 21.85 11.35 21.78 10.98 21.67C10.59 21.57 10.15 21.42 9.73 21.23C9.32 21.04 8.9 20.79 8.57 20.49C8.25 20.21 7.93 19.78 7.93 19.23C7.93 19.01 8.03 18.82 8.08 18.71C8.15 18.59 8.23 18.47 8.32 18.36C8.4 18.25 8.49 18.13 8.59 18.01C8.68 17.88 8.79 17.76 8.88 17.63C9.08 17.37 9.26 17.1 9.38 16.85C9.51 16.59 9.57 16.37 9.57 16.2L9.57 15.94C9.57 15.7 9.38 15.51 9.13 15.51C8.9 15.51 8.7 15.7 8.7 15.93C8.7 16.35 8.37 16.69 7.95 16.69L7.68 16.69C6.2 16.69 5.03 16.2 4.14 15.4C3.27 14.6 2.72 13.53 2.43 12.41C1.85 10.2 2.22 7.59 3.34 6.07C3.71 5.56 4.41 5.6 4.78 6L7.75 9.28C8.07 9.63 8.25 10.09 8.25 10.56L8.25 10.74C8.25 10.98 8.45 11.18 8.69 11.18C8.93 11.18 9.14 10.98 9.14 10.72C9.15 10.39 9.16 10.09 9.15 9.82C9.1 8.28 8.48 7.34 7.86 7.34L7.02 7.34C6.97 7.34 6.93 7.31 6.92 7.27C6.66 6.39 7.38 5.92 8.37 5.92C8.42 5.92 8.46 5.92 8.51 5.92ZM10.43 9.31C10.46 9.78 10.45 10.27 10.44 10.75C10.42 11.7 9.65 12.48 8.69 12.48C7.73 12.48 6.95 11.7 6.95 10.74L6.95 10.56C6.95 10.41 6.9 10.26 6.79 10.15L4.14 7.23C3.48 8.44 3.24 10.36 3.68 12.08C3.93 13.02 4.37 13.85 5.02 14.43C5.62 14.98 6.42 15.35 7.49 15.39C7.72 14.7 8.37 14.21 9.13 14.21C10.09 14.21 10.87 14.98 10.87 15.94L10.87 16.2C10.87 16.65 10.73 17.07 10.55 17.43C10.37 17.79 10.14 18.12 9.92 18.41C9.81 18.55 9.71 18.69 9.61 18.81L9.61 18.81C9.51 18.93 9.43 19.04 9.36 19.13C9.31 19.2 9.27 19.25 9.25 19.29C9.27 19.34 9.32 19.42 9.44 19.53C9.64 19.71 9.93 19.88 10.28 20.04C10.62 20.2 10.99 20.33 11.32 20.42C11.66 20.51 11.9 20.55 12.01 20.55C12.12 20.55 12.36 20.51 12.7 20.42C13.03 20.33 13.4 20.2 13.74 20.04C14.09 19.88 14.38 19.71 14.57 19.53C14.69 19.42 14.75 19.34 14.77 19.29C14.74 19.25 14.71 19.2 14.66 19.13C14.59 19.04 14.5 18.93 14.41 18.81L14.4 18.81C14.31 18.69 14.2 18.55 14.1 18.41C13.88 18.12 13.65 17.79 13.47 17.43C13.29 17.07 13.14 16.65 13.14 16.2L13.14 15.94C13.14 14.98 13.93 14.21 14.88 14.21C15.64 14.21 16.29 14.7 16.52 15.39C17.6 15.35 18.4 14.98 19 14.43C19.64 13.85 20.09 13.02 20.33 12.08C20.78 10.36 20.54 8.44 19.88 7.23L17.22 10.15C17.12 10.26 17.06 10.41 17.06 10.56L17.06 10.74C17.06 11.7 16.29 12.48 15.33 12.48C14.37 12.48 13.59 11.7 13.57 10.75C13.56 10.27 13.55 9.78 13.59 9.31C13.59 9.04 13.27 8.91 13.13 9.14C13.04 9.29 12.97 9.46 12.87 9.69C12.86 9.73 12.85 9.76 12.83 9.8C12.72 10.14 12.39 10.39 12.01 10.39C11.62 10.39 11.3 10.14 11.18 9.8C11.17 9.76 11.16 9.73 11.15 9.7C11.05 9.46 10.98 9.29 10.88 9.14C10.75 8.91 10.43 9.04 10.43 9.31Z" fill="#717681" fill-opacity="1.000000" fill-rule="evenodd"/>
	</g>
</svg>
