<svg width="24.000000" height="24.000000" viewBox="0 0 24 24" fill="none" xmlns="http://www.w3.org/2000/svg" xmlns:xlink="http://www.w3.org/1999/xlink">
	<desc>
			Created with Pixso.
	</desc>
	<defs>
		<clipPath id="clip17_326">
			<rect id="Solid / Grid Solid" width="24.000000" height="24.000000" fill="white" fill-opacity="0"/>
		</clipPath>
	</defs>
	<g clip-path="url(#clip17_326)">
		<path id="Shape" d="M4 5.29C4 4.58 4.58 4 5.29 4L9.7 4C10.41 4 11 4.58 11 5.29L11 9.7C11 10.41 10.41 11 9.7 11L5.29 11C4.58 11 4 10.41 4 9.7L4 5.29ZM13 5.29C13 4.58 13.58 4 14.29 4L18.7 4C19.41 4 20 4.58 20 5.29L20 9.7C20 10.41 19.41 11 18.7 11L14.29 11C13.58 11 13 10.41 13 9.7L13 5.29ZM4 14.3C4 13.58 4.58 13 5.29 13L9.7 13C10.41 13 11 13.58 11 14.3L11 18.7C11 19.41 10.41 20 9.7 20L5.29 20C4.58 20 4 19.41 4 18.7L4 14.3ZM13 14.3C13 13.58 13.58 13 14.29 13L18.7 13C19.41 13 20 13.58 20 14.3L20 18.7C20 19.41 19.41 20 18.7 20L14.29 20C13.58 20 13 19.41 13 18.7L13 14.3Z" fill="#74767B" fill-opacity="1.000000" fill-rule="evenodd"/>
	</g>
</svg>
