<svg width="24.000000" height="24.000000" viewBox="0 0 24 24" fill="none" xmlns="http://www.w3.org/2000/svg" xmlns:xlink="http://www.w3.org/1999/xlink">
	<g>
    <rect id="Solid / Hand Solid" width="24.000000" height="24.000000" fill="white" fill-opacity="0"/>
		<path id="Shape" d="M13.2 11.5L13.27 2.89C13.27 2.78 13.25 2.68 13.21 2.59C13.17 2.47 13.1 2.36 13 2.26C12.96 2.23 12.93 2.2 12.89 2.18C12.83 2.13 12.76 2.1 12.69 2.07C12.65 2.05 12.6 2.03 12.55 2.02C12.48 2 12.4 2 12.32 2C12.23 2 12.14 2.01 12.05 2.03C12 2.04 11.95 2.06 11.9 2.08C11.83 2.11 11.76 2.14 11.7 2.19C11.65 2.22 11.61 2.25 11.57 2.29C11.5 2.36 11.45 2.42 11.4 2.5C11.38 2.53 11.36 2.57 11.34 2.61C11.32 2.67 11.3 2.73 11.29 2.79C11.27 2.86 11.26 2.92 11.26 2.99L11.25 10.99C11.25 11.26 11.04 11.47 10.77 11.47C10.49 11.47 10.28 11.26 10.28 10.99L10.29 4.48C10.29 4.37 10.27 4.27 10.24 4.17C10.19 4.05 10.12 3.95 10.02 3.85C9.98 3.81 9.94 3.78 9.9 3.75C9.84 3.71 9.78 3.68 9.72 3.65C9.67 3.64 9.62 3.62 9.58 3.61C9.5 3.59 9.42 3.58 9.34 3.58C9.25 3.58 9.16 3.59 9.08 3.61C9.02 3.63 8.97 3.64 8.93 3.66C8.85 3.69 8.78 3.73 8.72 3.77C8.67 3.81 8.63 3.84 8.59 3.88C8.53 3.94 8.47 4.01 8.43 4.08C8.4 4.12 8.38 4.16 8.37 4.2C8.34 4.25 8.32 4.31 8.31 4.37C8.3 4.44 8.29 4.51 8.29 4.58L8.28 12.29L8.28 14.25C8.28 14.34 8.27 14.42 8.24 14.49C8.21 14.56 8.17 14.63 8.11 14.7C8.05 14.76 7.98 14.81 7.9 14.85C7.82 14.88 7.74 14.9 7.64 14.9C7.58 14.9 7.52 14.9 7.46 14.88C7.41 14.87 7.37 14.85 7.32 14.83C7.27 14.8 7.23 14.77 7.19 14.74C7.14 14.7 7.09 14.65 7.05 14.59L5.07 11.65C5.02 11.56 4.95 11.49 4.87 11.42C4.8 11.36 4.72 11.31 4.63 11.27C4.54 11.23 4.45 11.21 4.36 11.19C4.26 11.18 4.17 11.18 4.07 11.19C4 11.2 3.94 11.21 3.87 11.23C3.78 11.26 3.7 11.31 3.61 11.36C3.55 11.4 3.49 11.45 3.44 11.51C3.41 11.54 3.38 11.59 3.35 11.63C3.32 11.68 3.29 11.73 3.27 11.78C3.24 11.84 3.22 11.9 3.21 11.97C3.2 12.03 3.19 12.1 3.19 12.17C3.19 12.22 3.21 12.31 3.22 12.36C3.24 12.48 3.29 12.59 3.36 12.69C4.02 13.72 4.72 14.8 5.45 15.93C6.9 18.18 7.81 19.55 8.15 20.03C8.58 20.63 9.03 21.09 9.5 21.41C9.87 21.66 10.25 21.83 10.65 21.93C10.82 21.97 11 22 11.18 22.01L15.74 22.01C15.98 22 16.21 21.96 16.43 21.9C16.65 21.84 16.86 21.76 17.06 21.67C17.24 21.58 17.41 21.49 17.57 21.38C17.78 21.23 17.97 21.07 18.16 20.88C18.32 20.71 18.46 20.53 18.59 20.34C18.71 20.15 18.82 19.96 18.91 19.75C18.99 19.56 19.06 19.36 19.11 19.16C19.17 18.91 19.2 18.65 19.22 18.39L19.22 12.29L19.22 7.32C19.22 7.21 19.2 7.1 19.16 7.01C19.12 6.89 19.05 6.79 18.95 6.69C18.91 6.65 18.87 6.62 18.83 6.59C18.77 6.55 18.71 6.52 18.65 6.49C18.6 6.47 18.55 6.46 18.51 6.45C18.43 6.43 18.35 6.42 18.27 6.42C18.18 6.42 18.09 6.43 18 6.45C17.95 6.46 17.9 6.48 17.85 6.5C17.78 6.53 17.71 6.57 17.65 6.61C17.6 6.64 17.56 6.68 17.52 6.72C17.45 6.78 17.4 6.85 17.36 6.92C17.33 6.96 17.31 7 17.3 7.04C17.27 7.09 17.25 7.15 17.24 7.21C17.22 7.28 17.22 7.35 17.22 7.42L17.22 11.98C17.22 12.26 17 12.47 16.73 12.47C16.46 12.47 16.24 12.26 16.24 11.98L16.24 4.27C16.24 4.16 16.23 4.06 16.19 3.97C16.14 3.85 16.07 3.74 15.97 3.64C15.94 3.61 15.9 3.58 15.87 3.56C15.81 3.51 15.74 3.48 15.67 3.45C15.62 3.43 15.57 3.41 15.53 3.4C15.45 3.38 15.37 3.38 15.29 3.38C15.2 3.38 15.11 3.39 15.03 3.41C14.98 3.42 14.93 3.44 14.88 3.46C14.81 3.49 14.74 3.52 14.67 3.57C14.63 3.6 14.58 3.63 14.54 3.67C14.48 3.74 14.42 3.8 14.38 3.88C14.36 3.91 14.34 3.95 14.32 3.99C14.3 4.05 14.28 4.11 14.26 4.17C14.25 4.24 14.24 4.3 14.24 4.37L14.18 11.5C14.18 11.78 13.96 11.99 13.69 11.99C13.42 11.99 13.2 11.78 13.2 11.5Z" fill="#74767B" fill-opacity="1.000000" fill-rule="evenodd"/>
	</g>
</svg>
