<svg width="24.000000" height="24.000000" viewBox="0 0 24 24" fill="none" xmlns="http://www.w3.org/2000/svg" xmlns:xlink="http://www.w3.org/1999/xlink">
	<g>
    <rect id="Outline / Hand Outline" width="24.000000" height="24.000000" fill="white" fill-opacity="0"/>
		<path id="Shape" d="M13.55 3.28L13.6 10.98C13.6 11.34 13.89 11.63 14.25 11.63C14.61 11.63 14.9 11.34 14.9 10.98L14.85 4.64C14.85 4.56 14.87 4.48 14.9 4.4C14.93 4.31 14.99 4.22 15.07 4.14C15.14 4.08 15.21 4.03 15.29 3.99C15.4 3.94 15.51 3.92 15.63 3.92C15.73 3.92 15.83 3.94 15.92 3.98C15.99 4.01 16.06 4.06 16.11 4.11C16.19 4.18 16.24 4.26 16.27 4.35C16.29 4.41 16.3 4.48 16.3 4.55L16.3 11.68C16.3 12.04 16.59 12.33 16.95 12.33C17.32 12.33 17.6 12.04 17.6 11.68L17.6 7.46C17.6 7.37 17.62 7.29 17.65 7.22C17.68 7.12 17.74 7.03 17.82 6.95C17.89 6.89 17.96 6.84 18.05 6.8C18.15 6.76 18.26 6.73 18.38 6.73C18.48 6.73 18.58 6.75 18.67 6.79C18.74 6.82 18.81 6.87 18.87 6.93C18.94 7 18.99 7.07 19.02 7.15C19.04 7.22 19.06 7.29 19.06 7.36L19.06 11.96L19.05 17.59C19.04 17.82 19.01 18.05 18.95 18.27C18.91 18.44 18.85 18.61 18.78 18.77C18.7 18.95 18.61 19.13 18.5 19.29C18.39 19.46 18.27 19.61 18.13 19.76C17.97 19.92 17.8 20.07 17.61 20.19C17.47 20.29 17.33 20.37 17.18 20.44C17 20.53 16.81 20.6 16.63 20.65C16.43 20.7 16.24 20.73 16.04 20.75L11.84 20.75C11.69 20.74 11.54 20.71 11.4 20.68C11.05 20.6 10.71 20.44 10.39 20.22C9.97 19.94 9.57 19.53 9.19 19C8.87 18.55 8.05 17.3 6.71 15.23C6.04 14.19 5.39 13.19 4.77 12.22C4.7 12.12 4.66 12.03 4.65 11.92C4.64 11.85 4.64 11.78 4.66 11.7C4.68 11.61 4.71 11.53 4.76 11.46C4.8 11.38 4.87 11.32 4.94 11.27C5.01 11.23 5.07 11.2 5.14 11.17C5.18 11.16 5.23 11.15 5.28 11.14C5.35 11.13 5.42 11.13 5.49 11.14C5.56 11.15 5.63 11.17 5.69 11.2C5.76 11.23 5.82 11.27 5.87 11.31C5.93 11.36 5.97 11.41 6.02 11.48L7.85 14.19C7.89 14.26 7.94 14.32 8 14.37C8.05 14.41 8.11 14.45 8.17 14.48C8.22 14.51 8.28 14.53 8.34 14.55C8.41 14.57 8.48 14.57 8.56 14.57C8.64 14.57 8.71 14.56 8.79 14.54C8.82 14.53 8.86 14.52 8.89 14.5C8.93 14.48 8.97 14.46 9.01 14.43C9.06 14.4 9.1 14.36 9.14 14.32C9.21 14.24 9.26 14.16 9.3 14.06C9.33 13.97 9.35 13.88 9.35 13.77L9.35 11.96L9.35 4.83C9.35 4.75 9.37 4.67 9.4 4.59C9.43 4.5 9.49 4.41 9.57 4.33C9.64 4.27 9.71 4.22 9.79 4.18C9.89 4.13 10.01 4.11 10.13 4.11C10.23 4.11 10.33 4.13 10.41 4.17C10.49 4.2 10.55 4.25 10.61 4.3C10.69 4.37 10.74 4.45 10.77 4.53C10.79 4.6 10.8 4.67 10.8 4.74L10.84 10.45C10.84 10.81 11.13 11.1 11.49 11.1C11.86 11.1 12.14 10.81 12.14 10.45L12.1 4.74L12.1 3.37C12.1 3.28 12.12 3.2 12.15 3.13C12.18 3.03 12.24 2.94 12.32 2.87C12.39 2.8 12.46 2.75 12.54 2.71C12.64 2.67 12.76 2.65 12.88 2.65C12.98 2.65 13.08 2.67 13.17 2.71C13.24 2.74 13.31 2.78 13.36 2.84C13.44 2.91 13.49 2.99 13.52 3.07C13.54 3.13 13.55 3.2 13.55 3.28ZM17.6 5.58C17.71 5.54 17.81 5.51 17.92 5.48C18.07 5.45 18.22 5.43 18.38 5.43C18.53 5.43 18.67 5.45 18.81 5.48C18.92 5.5 19.03 5.54 19.14 5.58C19.27 5.63 19.38 5.7 19.49 5.77C19.59 5.83 19.68 5.91 19.77 5.99C19.88 6.1 19.98 6.22 20.06 6.35C20.11 6.43 20.16 6.52 20.2 6.61C20.25 6.72 20.29 6.84 20.31 6.97C20.34 7.1 20.36 7.23 20.36 7.36L20.36 11.96L20.35 17.62C20.34 17.93 20.3 18.25 20.22 18.55C20.16 18.8 20.08 19.05 19.98 19.29C19.87 19.54 19.74 19.78 19.59 20.01C19.43 20.24 19.26 20.46 19.06 20.66C18.85 20.88 18.62 21.08 18.37 21.25C18.17 21.39 17.96 21.51 17.73 21.62C17.48 21.74 17.22 21.83 16.96 21.9C16.68 21.98 16.39 22.03 16.1 22.05L11.79 22.05C11.5 22.03 11.19 21.98 10.92 21.9C9.87 21.6 8.94 20.89 8.13 19.75C7.8 19.29 6.97 18.02 5.62 15.94C4.94 14.9 4.3 13.89 3.67 12.92C3.63 12.86 3.59 12.79 3.55 12.72C3.47 12.56 3.42 12.39 3.38 12.21C3.36 12.09 3.35 11.97 3.34 11.85C3.34 11.71 3.36 11.58 3.38 11.45C3.41 11.32 3.45 11.19 3.5 11.07C3.54 10.96 3.6 10.85 3.67 10.75C3.73 10.65 3.81 10.55 3.89 10.46C3.99 10.36 4.1 10.27 4.22 10.19C4.38 10.08 4.55 10 4.73 9.94C4.86 9.9 4.99 9.87 5.13 9.85C5.31 9.83 5.49 9.83 5.67 9.86C5.86 9.88 6.04 9.94 6.22 10.02C6.4 10.1 6.56 10.2 6.71 10.32C6.85 10.44 6.98 10.59 7.1 10.75L8.05 12.17L8.05 11.96L8.05 4.83C8.05 4.69 8.07 4.56 8.1 4.42C8.12 4.29 8.16 4.16 8.22 4.04C8.26 3.94 8.32 3.84 8.38 3.75C8.46 3.62 8.56 3.5 8.67 3.4C8.76 3.31 8.85 3.23 8.95 3.17C9.07 3.09 9.19 3.02 9.33 2.97C9.44 2.92 9.55 2.89 9.67 2.86C9.82 2.83 9.97 2.81 10.13 2.81C10.27 2.81 10.42 2.83 10.56 2.86C10.66 2.88 10.75 2.91 10.85 2.94C10.88 2.82 10.92 2.69 10.97 2.57C11.02 2.47 11.07 2.37 11.13 2.28C11.21 2.15 11.31 2.04 11.42 1.93C11.51 1.84 11.6 1.77 11.7 1.7C11.82 1.62 11.94 1.56 12.08 1.5C12.19 1.46 12.3 1.42 12.42 1.39C12.57 1.36 12.72 1.35 12.88 1.35C13.02 1.35 13.17 1.36 13.31 1.39C13.42 1.42 13.53 1.45 13.64 1.49C13.76 1.54 13.87 1.6 13.97 1.67C14.07 1.73 14.17 1.81 14.27 1.9C14.38 2.01 14.47 2.12 14.55 2.24C14.6 2.33 14.65 2.42 14.7 2.52C14.74 2.61 14.77 2.7 14.79 2.79C14.9 2.75 15.05 2.7 15.17 2.67C15.32 2.64 15.47 2.62 15.63 2.62C15.77 2.62 15.92 2.64 16.05 2.67C16.17 2.69 16.28 2.72 16.39 2.77C16.51 2.82 16.62 2.87 16.72 2.94C16.83 3.01 16.92 3.09 17.02 3.18C17.13 3.28 17.22 3.4 17.3 3.52C17.36 3.61 17.4 3.7 17.45 3.79C17.5 3.91 17.54 4.03 17.56 4.16C17.59 4.28 17.6 4.42 17.6 4.55L17.6 5.58Z" fill="#74767B" fill-opacity="1.000000" fill-rule="evenodd"/>
	</g>
</svg>
