<svg width="24.000000" height="24.000000" viewBox="0 0 24 24" fill="none" xmlns="http://www.w3.org/2000/svg" xmlns:xlink="http://www.w3.org/1999/xlink">
	<desc>
			Created with Pixso.
	</desc>
	<defs>
		<clipPath id="clip17_344">
			<rect id="Solid / Home-Autocredit Solid" width="24.000000" height="24.000000" fill="white" fill-opacity="0"/>
		</clipPath>
	</defs>
	<g clip-path="url(#clip17_344)">
		<path id="Shape" d="M12.91 2.38L21 10.46C21.27 10.7 21.3 11.11 21.06 11.38C20.83 11.65 20.42 11.68 20.14 11.45C19.77 11.07 19.03 10.33 18.08 9.39C16.41 7.71 14.08 5.39 12 3.3L3.85 11.45C3.57 11.68 3.16 11.65 2.93 11.38C2.69 11.11 2.72 10.7 3 10.46L11.08 2.38C11.58 1.87 12.41 1.87 12.91 2.38ZM5.54 13.25L6.86 10.64C7.37 9.63 8.41 8.99 9.54 8.99L14.45 8.99C15.58 8.99 16.62 9.63 17.13 10.64L18.42 13.2C18.62 13.47 18.77 13.77 18.87 14.1C18.94 14.33 18.75 14.55 18.51 14.55L16.98 14.55C16.62 14.55 16.33 14.84 16.33 15.2C16.33 15.56 16.62 15.85 16.98 15.85L18.6 15.85C18.82 15.85 19 16.03 19 16.25L19 19.76C19 20.44 18.45 21 17.77 21C17.09 21 16.54 20.44 16.54 19.76L16.54 18.99L16.54 18.99L15.37 16.36C14.89 15.28 13.82 14.58 12.63 14.58L11.38 14.58C10.19 14.58 9.11 15.28 8.63 16.36L7.47 18.99L7.47 19.76C7.47 20.44 6.92 21 6.23 21C5.55 21 5 20.44 5 19.76L5 16.25C5 16.03 5.18 15.85 5.4 15.85L7.01 15.85C7.37 15.85 7.66 15.56 7.66 15.2C7.66 14.84 7.37 14.55 7.01 14.55L5.49 14.55C5.25 14.55 5.06 14.33 5.13 14.1C5.22 13.79 5.36 13.5 5.54 13.25ZM16.18 11.98C16.12 11.98 16.06 11.97 16 11.97L8 11.97C7.94 11.97 7.88 11.98 7.82 11.98L7.64 11.98L8.02 11.22C8.31 10.65 8.9 10.29 9.54 10.29L14.45 10.29C15.09 10.29 15.68 10.65 15.97 11.22L16.35 11.98L16.18 11.98ZM12.63 15.88L11.38 15.88C10.7 15.88 10.09 16.27 9.82 16.89L9.18 18.43C9.07 18.7 9.26 18.99 9.55 18.99L14.51 18.99C14.8 18.99 15 18.69 14.88 18.42L14.19 16.89C13.91 16.27 13.3 15.88 12.63 15.88Z" fill="#74767B" fill-opacity="1.000000" fill-rule="evenodd"/>
	</g>
</svg>
