<svg width="24.000000" height="24.000000" viewBox="0 0 24 24" fill="none" xmlns="http://www.w3.org/2000/svg" xmlns:xlink="http://www.w3.org/1999/xlink">
	<desc>
			Created with Pixso.
	</desc>
	<defs>
		<clipPath id="clip17_341">
			<rect id="Outline / Home-Autocredit Outline" width="24.000000" height="24.000000" fill="white" fill-opacity="0"/>
		</clipPath>
	</defs>
	<g clip-path="url(#clip17_341)">
		<path id="Shape" d="M21 10.46L12.91 2.38C12.41 1.87 11.58 1.87 11.08 2.38L3 10.46C2.72 10.7 2.69 11.11 2.93 11.38C3.16 11.65 3.57 11.68 3.85 11.45L12 3.3C14.08 5.39 16.4 7.71 18.08 9.38L18.08 9.39C19.03 10.33 19.77 11.07 20.14 11.45C20.42 11.68 20.83 11.65 21.06 11.38C21.3 11.11 21.27 10.7 21 10.46ZM5 14.97C5 14.33 5.2 13.74 5.54 13.25L6.86 10.64C7.37 9.63 8.41 8.99 9.54 8.99L14.45 8.99C15.58 8.99 16.62 9.63 17.13 10.64L18.42 13.2C18.79 13.7 19 14.31 19 14.97L19 19.7C19 20.41 18.42 21 17.7 21L16.24 21C15.52 21 14.94 20.41 14.94 19.7L14.94 18.99L9.06 18.99L9.06 19.7C9.06 20.41 8.48 21 7.76 21L6.3 21C5.58 21 5 20.41 5 19.7L5 14.97ZM7.82 11.98L7.64 11.98L8.02 11.22C8.31 10.65 8.9 10.29 9.54 10.29L14.45 10.29C15.09 10.29 15.68 10.65 15.97 11.22L16.35 11.98L16.18 11.98C16.12 11.98 16.06 11.97 16 11.97L8 11.97C7.94 11.97 7.88 11.98 7.82 11.98ZM17.7 17.69L15.96 17.69L15.37 16.36C14.89 15.28 13.82 14.58 12.63 14.58L11.38 14.58C10.19 14.58 9.11 15.28 8.63 16.36L8.04 17.69L6.3 17.69L6.3 15.85L7.36 15.85C7.72 15.85 8.01 15.56 8.01 15.2C8.01 14.84 7.72 14.55 7.36 14.55L6.35 14.55C6.53 13.86 7.13 13.34 7.87 13.28L16.13 13.28C16.87 13.34 17.47 13.86 17.65 14.55L16.6 14.55C16.24 14.55 15.95 14.84 15.95 15.2C15.95 15.56 16.24 15.85 16.6 15.85L17.7 15.85L17.7 17.69ZM14.19 16.89L14.54 17.69L9.47 17.69L9.82 16.89C10.09 16.27 10.7 15.88 11.38 15.88L12.63 15.88C13.3 15.88 13.91 16.27 14.19 16.89ZM7.76 19.7L6.3 19.7L6.3 19.01L7.76 19.01L7.76 19.7ZM16.24 19.7L17.7 19.7L17.7 19.01L16.24 19.01L16.24 19.7Z" fill="#717681" fill-opacity="1.000000" fill-rule="evenodd"/>
	</g>
</svg>
