<svg width="24.000000" height="24.000000" viewBox="0 0 24 24" fill="none" xmlns="http://www.w3.org/2000/svg" xmlns:xlink="http://www.w3.org/1999/xlink">
	<desc>
			Created with Pixso.
	</desc>
	<defs>
		<clipPath id="clip17_574">
			<rect id="Outline / Hook Outline" width="24.000000" height="24.000000" fill="white" fill-opacity="0"/>
		</clipPath>
	</defs>
	<g clip-path="url(#clip17_574)">
		<path id="Shape" d="M10.65 2.64C10.65 2.29 10.35 2 10 2C9.64 2 9.35 2.29 9.35 2.64L9.35 5L8.3 5C7.91 5 7.54 5.17 7.3 5.47L6.06 6.98C5.14 8.11 5.16 9.75 6.13 10.85L9.74 14.98C10.38 15.72 11.29 16.06 12.18 16C13.39 16.1 14.35 17.11 14.35 18.35C14.35 19.64 13.29 20.7 12 20.7C10.7 20.7 9.65 19.64 9.65 18.35C9.65 17.99 9.35 17.7 9 17.7C8.64 17.7 8.35 17.99 8.35 18.35C8.35 20.36 9.98 22 12 22C14.01 22 15.65 20.36 15.65 18.35C15.65 17.05 14.98 15.92 13.97 15.27C14.07 15.18 14.16 15.09 14.25 14.98L17.86 10.85C18.83 9.75 18.85 8.11 17.93 6.98L16.69 5.47C16.45 5.17 16.08 5 15.69 5L14.65 5L14.65 2.64C14.65 2.29 14.35 2 14 2C13.64 2 13.35 2.29 13.35 2.64L13.35 5L10.65 5L10.65 2.64ZM8.3 6.3L10 6.3L14 6.3L15.69 6.3L16.92 7.8C17.45 8.45 17.43 9.37 16.88 10L13.28 14.13C12.98 14.47 12.58 14.66 12.17 14.7C12.11 14.7 12.05 14.7 12 14.7C11.96 14.7 11.92 14.7 11.88 14.7C11.45 14.68 11.03 14.48 10.72 14.13L7.11 10C6.56 9.37 6.54 8.45 7.07 7.8L8.3 6.3ZM11.5 8.05C11.77 7.77 12.22 7.77 12.49 8.05L12.91 8.47C13.19 8.74 13.19 9.19 12.91 9.46L12.49 9.88C12.22 10.16 11.77 10.16 11.5 9.88L11.08 9.46C10.8 9.19 10.8 8.74 11.08 8.47L11.5 8.05Z" fill="#717681" fill-opacity="1.000000" fill-rule="evenodd"/>
	</g>
</svg>
