<svg width="24.000000" height="24.000000" viewBox="0 0 24 24" fill="none" xmlns="http://www.w3.org/2000/svg" xmlns:xlink="http://www.w3.org/1999/xlink">
	<desc>
			Created with Pixso.
	</desc>
	<defs>
		<clipPath id="clip17_526">
			<rect id="Solid / Icons Solid" width="24.000000" height="24.000000" fill="white" fill-opacity="0"/>
		</clipPath>
	</defs>
	<g clip-path="url(#clip17_526)">
		<path id="Shape" d="M12.46 10.1C12.23 10.5 12.52 10.99 12.98 10.99L19.93 10.99C20.39 10.99 20.67 10.5 20.45 10.1L16.98 3.96C16.75 3.55 16.16 3.55 15.93 3.96L12.46 10.1ZM4.29 3.69C3.96 3.69 3.69 3.96 3.69 4.29L3.69 10.39C3.69 10.73 3.96 10.99 4.29 10.99L10.39 10.99C10.73 10.99 11 10.73 11 10.39L11 4.29C11 3.96 10.73 3.69 10.39 3.69L4.29 3.69ZM7.06 12.67C7.29 12.43 7.67 12.43 7.9 12.67L11.32 16.09C11.56 16.32 11.56 16.7 11.32 16.93L7.9 20.35C7.67 20.59 7.29 20.59 7.06 20.35L3.64 16.93C3.4 16.7 3.4 16.32 3.64 16.09L7.06 12.67ZM16.45 12.61C14.33 12.61 12.61 14.33 12.61 16.45C12.61 18.58 14.33 20.29 16.45 20.29C18.58 20.29 20.29 18.58 20.29 16.45C20.29 14.33 18.58 12.61 16.45 12.61Z" fill="#717681" fill-opacity="1.000000" fill-rule="evenodd"/>
	</g>
</svg>
