<svg width="24" height="24" viewBox="0 0 24 24" fill="none" xmlns="http://www.w3.org/2000/svg">
<path fill-rule="evenodd" clip-rule="evenodd" d="M16.0143 14.9752V17.9893C16.0143 19.6521 14.6664 21 13.0036 21H10.9965C9.33374 21 7.98581 19.6521 7.98581 17.9893V14.9752C6.37843 13.7593 5.33984 11.831 5.33984 9.6602C5.33984 5.98187 8.32172 3 12 3C15.6784 3 18.6602 5.98187 18.6602 9.6602C18.6602 11.831 17.6217 13.7593 16.0143 14.9752ZM9.29044 15.2647H14.7096V17.9893C14.7096 18.9316 13.9458 19.6954 13.0036 19.6954H10.9965C10.0543 19.6954 9.29044 18.9316 9.29044 17.9893V15.2647ZM8.77288 13.9347L8.80633 13.96H9.9816V10.2457H9.21335C8.85309 10.2457 8.56104 9.95364 8.56104 9.59338C8.56104 9.23311 8.85309 8.94106 9.21335 8.94106H14.8313C15.1916 8.94106 15.4836 9.23311 15.4836 9.59338C15.4836 9.95364 15.1916 10.2457 14.8313 10.2457H14.063V13.96H15.1938L15.2272 13.9347C16.5227 12.9548 17.3556 11.405 17.3556 9.6602C17.3556 6.7024 14.9579 4.30462 12 4.30462C9.04224 4.30462 6.64447 6.7024 6.64447 9.6602C6.64447 11.405 7.47743 12.9548 8.77288 13.9347ZM12.7584 13.96V10.2457H11.2862V13.96H12.7584Z" fill="#717681"/>
</svg>
