<svg width="24.000000" height="24.000000" viewBox="0 0 24 24" fill="none" xmlns="http://www.w3.org/2000/svg" xmlns:xlink="http://www.w3.org/1999/xlink">
	<desc>
			Created with Pixso.
	</desc>
	<defs>
		<clipPath id="clip17_284">
			<rect id="Outline / Idea Outline" width="24.000000" height="24.000000" fill="white" fill-opacity="0"/>
		</clipPath>
	</defs>
	<g >
		<path id="Shape" d="M16.01 14.97L16.01 17.98C16.01 19.65 14.66 21 13 21L10.99 21C9.33 21 7.98 19.65 7.98 17.98L7.98 14.97C6.37 13.75 5.33 11.83 5.33 9.66C5.33 5.98 8.32 3 12 3C15.67 3 18.66 5.98 18.66 9.66C18.66 11.83 17.62 13.75 16.01 14.97ZM9.29 15.26L14.7 15.26L14.7 17.98C14.7 18.93 13.94 19.69 13 19.69L10.99 19.69C10.05 19.69 9.29 18.93 9.29 17.98L9.29 15.26ZM8.77 13.93L8.8 13.96L9.98 13.96L9.98 10.24L9.21 10.24C8.85 10.24 8.56 9.95 8.56 9.59C8.56 9.23 8.85 8.94 9.21 8.94L14.83 8.94C15.19 8.94 15.48 9.23 15.48 9.59C15.48 9.95 15.19 10.24 14.83 10.24L14.06 10.24L14.06 13.96L15.19 13.96L15.22 13.93C16.52 12.95 17.35 11.4 17.35 9.66C17.35 6.7 14.95 4.3 12 4.3C9.04 4.3 6.64 6.7 6.64 9.66C6.64 11.4 7.47 12.95 8.77 13.93ZM12.75 13.96L12.75 10.24L11.28 10.24L11.28 13.96L12.75 13.96Z" fill="#74767B" fill-opacity="1.000000" fill-rule="evenodd"/>
	</g>
</svg>
