<svg width="24.000000" height="24.000000" viewBox="0 0 24 24" fill="none" xmlns="http://www.w3.org/2000/svg" xmlns:xlink="http://www.w3.org/1999/xlink">
	<desc>
			Created with Pixso.
	</desc>
	<defs>
		<clipPath id="clip1100_1478">
			<rect id="Solid / Item converter Solid" width="24.000000" height="24.000000" fill="white" fill-opacity="0"/>
		</clipPath>
	</defs>
	<g clip-path="url(#clip1100_1478)">
		<path id="Shape" d="M20.58 6.06C20.58 7.74 19.22 9.09 17.54 9.09C15.9 9.09 14.55 7.78 14.51 6.14L11.98 6.14C11.77 6.13 11.48 6.1 11.28 6.05C11.08 6 10.88 5.93 10.68 5.83C10.49 5.74 10.31 5.63 10.14 5.5C9.96 5.36 9.8 5.21 9.66 5.03C9.57 4.92 9.41 4.83 9.3 4.78C9.21 4.75 9.14 4.74 9.09 4.77L7.19 5.87C7.14 5.9 7.1 6.01 7.08 6.1C7.08 6.2 7.09 6.39 7.13 6.49C7.21 6.71 7.27 6.92 7.3 7.14C7.31 7.28 7.32 7.41 7.32 7.54C7.32 7.62 7.32 7.7 7.31 7.78C7.3 7.99 7.26 8.2 7.2 8.4C7.13 8.63 7.04 8.85 6.92 9.06C6.79 9.28 6.65 9.47 6.49 9.64C6.34 9.79 6.18 9.93 6 10.05C5.82 10.17 5.64 10.27 5.44 10.35C5.24 10.44 5.02 10.5 4.8 10.54C4.66 10.56 4.5 10.64 4.4 10.72C4.32 10.78 4.29 10.84 4.29 10.9L4.29 13.16C4.29 13.22 4.37 13.31 4.43 13.37C4.51 13.43 4.61 13.46 4.72 13.48C4.95 13.52 5.18 13.58 5.4 13.66C5.51 13.7 5.61 13.75 5.71 13.8C5.94 13.92 6.14 14.06 6.33 14.22C6.4 14.28 6.47 14.35 6.54 14.43C6.68 14.57 6.8 14.73 6.9 14.89C6.98 15.03 7.05 15.18 7.11 15.33C7.14 15.4 7.17 15.47 7.19 15.54C7.28 15.83 7.32 16.13 7.32 16.44C7.32 16.65 7.3 16.85 7.26 17.04C7.23 17.2 7.19 17.35 7.13 17.5C7.1 17.6 7.08 17.71 7.08 17.82C7.08 17.86 7.09 17.9 7.09 17.94C7.11 18.03 7.14 18.09 7.19 18.12L9.09 19.22C9.14 19.25 9.26 19.23 9.35 19.2C9.46 19.15 9.57 19.07 9.66 18.96C9.8 18.78 9.96 18.63 10.14 18.49C10.31 18.36 10.49 18.25 10.68 18.16C10.88 18.06 11.08 17.99 11.28 17.94C11.47 17.9 11.67 17.87 11.88 17.86L14.51 17.86C14.55 16.21 15.89 14.9 17.54 14.9C19.22 14.9 20.58 16.25 20.58 17.93C20.58 19.6 19.22 20.96 17.54 20.96C16.29 20.96 15.22 20.2 14.76 19.12C14.69 19.14 14.62 19.16 14.55 19.16L11.99 19.16C11.85 19.16 11.71 19.18 11.57 19.21C11.46 19.24 11.35 19.28 11.25 19.33C11.14 19.38 11.04 19.44 10.94 19.51C10.84 19.59 10.75 19.68 10.66 19.79C10.62 19.84 10.57 19.89 10.52 19.94C10.43 20.03 10.34 20.1 10.24 20.18C10.07 20.29 9.9 20.38 9.71 20.44C9.51 20.51 9.3 20.54 9.1 20.54C8.96 20.53 8.83 20.5 8.71 20.46C8.62 20.43 8.53 20.39 8.44 20.34L6.54 19.25C6.45 19.2 6.37 19.14 6.3 19.07C6.2 18.99 6.11 18.87 6.04 18.76C5.93 18.59 5.86 18.4 5.82 18.19C5.79 18.07 5.78 17.94 5.78 17.81C5.78 17.74 5.78 17.67 5.79 17.61C5.8 17.49 5.82 17.37 5.85 17.25C5.87 17.18 5.89 17.12 5.91 17.05C5.94 16.97 5.97 16.89 5.98 16.81C6.01 16.69 6.02 16.57 6.02 16.44C6.02 16.17 5.97 15.93 5.86 15.71C5.79 15.56 5.65 15.38 5.54 15.26C5.42 15.14 5.27 15.04 5.12 14.96C5.08 14.94 5.04 14.92 5 14.9C4.85 14.84 4.69 14.79 4.52 14.77C4.44 14.75 4.36 14.74 4.29 14.72C4.18 14.69 4.08 14.65 3.98 14.6C3.81 14.52 3.64 14.4 3.5 14.29C3.37 14.16 3.22 13.96 3.14 13.8C3.08 13.69 3.04 13.58 3.02 13.46C3 13.36 2.99 13.27 2.99 13.16L2.99 10.9C2.99 10.8 3 10.7 3.02 10.61C3.04 10.48 3.09 10.34 3.16 10.22C3.25 10.04 3.38 9.89 3.54 9.74C3.68 9.62 3.85 9.51 4.03 9.43C4.14 9.37 4.26 9.33 4.38 9.3C4.44 9.28 4.51 9.27 4.58 9.26C4.71 9.23 4.84 9.2 4.96 9.15C5.07 9.1 5.17 9.05 5.27 8.98C5.37 8.91 5.45 8.84 5.53 8.76C5.63 8.65 5.72 8.54 5.79 8.41C5.86 8.29 5.92 8.16 5.96 8.02C5.99 7.91 6.01 7.8 6.02 7.68C6.02 7.64 6.02 7.59 6.02 7.55C6.02 7.47 6.02 7.4 6.01 7.33C5.99 7.2 5.96 7.07 5.91 6.94C5.89 6.88 5.87 6.81 5.85 6.75C5.82 6.63 5.8 6.51 5.79 6.38C5.78 6.32 5.78 6.25 5.78 6.19C5.78 6.05 5.79 5.92 5.82 5.8C5.86 5.59 5.94 5.38 6.05 5.22C6.12 5.1 6.2 5 6.3 4.92C6.38 4.85 6.46 4.79 6.54 4.74L8.44 3.65C8.53 3.6 8.62 3.56 8.71 3.53C8.83 3.49 8.98 3.46 9.11 3.45C9.31 3.45 9.51 3.48 9.71 3.55C9.9 3.61 10.07 3.7 10.24 3.81C10.34 3.88 10.43 3.96 10.52 4.05C10.57 4.1 10.61 4.15 10.66 4.2C10.74 4.31 10.84 4.4 10.94 4.48C11.04 4.55 11.14 4.61 11.25 4.66C11.35 4.71 11.46 4.75 11.57 4.78C11.71 4.81 11.85 4.83 11.99 4.83L14.58 4.84C14.64 4.84 14.7 4.84 14.76 4.86C15.23 3.78 16.3 3.03 17.54 3.03C19.22 3.03 20.58 4.39 20.58 6.06ZM15.39 12.65C15.09 14.24 13.68 15.45 12 15.45C10.09 15.45 8.54 13.9 8.54 12C8.54 10.09 10.09 8.54 12 8.54C13.68 8.54 15.09 9.75 15.39 11.35L19.93 11.35C20.29 11.35 20.58 11.63 20.58 12C20.58 12.36 20.29 12.65 19.93 12.65L15.39 12.65Z" fill="#74767B" fill-opacity="1.000000" fill-rule="evenodd"/>
	</g>
</svg>
