<svg width="24.000000" height="24.000000" viewBox="0 0 24 24" fill="none" xmlns="http://www.w3.org/2000/svg" xmlns:xlink="http://www.w3.org/1999/xlink">
	<desc>
			Created with Pixso.
	</desc>
	<defs>
		<clipPath id="clip1100_1480">
			<rect id="Solid / Keys Solid" width="24.000000" height="24.000000" fill="white" fill-opacity="0"/>
		</clipPath>
	</defs>
	<g >
		<path id="Shape" d="M18.82 6.79C19.18 6.79 19.47 6.49 19.47 6.14C19.47 5.78 19.18 5.49 18.82 5.49L14.28 5.49C12.65 5.49 11.33 6.81 11.33 8.44L11.33 8.71L2.87 8.71C2.51 8.71 2.22 9 2.22 9.36C2.22 9.72 2.51 10.01 2.87 10.01L12 10.01C12.35 10.01 12.65 9.72 12.65 9.36C12.65 9.32 12.64 9.27 12.63 9.23L12.63 8.44C12.63 7.52 13.37 6.79 14.28 6.79L18.82 6.79ZM21.91 10.92C21.91 9.29 20.59 7.97 18.96 7.97L16.52 7.97C14.89 7.97 13.57 9.29 13.57 10.92L13.57 11.2L4.84 11.2C3.91 11.2 3.18 12 3.26 12.92C3.39 14.36 4.59 15.47 6.04 15.47L6.4 15.47C6.55 15.47 6.69 15.42 6.81 15.33L7.61 14.68C7.79 14.52 8.06 14.51 8.26 14.65L9.96 15.79C10.07 15.87 10.2 15.9 10.33 15.9L13.57 15.9L13.57 16.12C13.57 17.75 14.89 19.07 16.52 19.07L18.96 19.07C20.59 19.07 21.91 17.75 21.91 16.12L21.91 10.92ZM18.2 15.92C17.84 15.92 17.55 15.63 17.55 15.27L17.55 12.04C17.55 11.68 17.84 11.39 18.2 11.39C18.56 11.39 18.85 11.68 18.85 12.04L18.85 15.27C18.85 15.63 18.56 15.92 18.2 15.92Z" fill="#74767B" fill-opacity="1.000000" fill-rule="evenodd"/>
	</g>
</svg>
