<svg width="24.000000" height="24.000000" viewBox="0 0 24 24" fill="none" xmlns="http://www.w3.org/2000/svg" xmlns:xlink="http://www.w3.org/1999/xlink">
	<desc>
			Created with Pixso.
	</desc>
	<defs>
		<clipPath id="clip116914_903">
			<rect id="Solid / Label Solid" width="24.000000" height="24.000000" fill="white" fill-opacity="0"/>
		</clipPath>
	</defs>
	<g clip-path="url(#clip116914_903)">
		<path id="Shape" d="M7.17 3.69C7.2 3.33 7.52 3.07 7.88 3.11L12.57 3.55C13.4 3.63 14.18 3.99 14.77 4.57L20.31 9.98C20.57 10.23 20.57 10.65 20.32 10.9C20.07 11.16 19.66 11.16 19.4 10.91L13.87 5.5C13.48 5.13 12.98 4.9 12.45 4.85L7.76 4.4C7.4 4.37 7.14 4.05 7.17 3.69ZM5.04 5.39C4.21 5.3 3.51 6 3.6 6.82L4.33 13.48C4.4 14.16 4.7 14.8 5.19 15.28L9.89 19.99C11.07 21.16 12.96 21.16 14.14 19.99L18.2 15.92C19.37 14.75 19.37 12.85 18.2 11.68L13.49 6.97C13.01 6.49 12.38 6.18 11.7 6.11L5.04 5.39ZM7.88 10.68C8.43 10.68 8.88 10.23 8.88 9.68C8.88 9.13 8.43 8.68 7.88 8.68C7.33 8.68 6.88 9.13 6.88 9.68C6.88 10.23 7.33 10.68 7.88 10.68Z" fill="#74767B" fill-opacity="1.000000" fill-rule="evenodd"/>
	</g>
</svg>
