<svg width="24.000000" height="24.000000" viewBox="0 0 24 24" fill="none" xmlns="http://www.w3.org/2000/svg" xmlns:xlink="http://www.w3.org/1999/xlink">
	<desc>
			Created with Pixso.
	</desc>
	<defs>
		<clipPath id="clip116914_902">
			<rect id="Outline / Label Outline" width="24.000000" height="24.000000" fill="white" fill-opacity="0"/>
		</clipPath>
	</defs>
	<g >
		<path id="Shape" d="M7.17 3.69C7.2 3.33 7.52 3.07 7.88 3.11L12.57 3.55C13.4 3.63 14.18 3.99 14.77 4.57L20.31 9.98C20.57 10.23 20.57 10.65 20.32 10.9C20.07 11.16 19.66 11.16 19.4 10.91L13.87 5.5C13.48 5.13 12.98 4.9 12.45 4.85L7.76 4.4C7.4 4.37 7.14 4.05 7.17 3.69ZM3.6 6.82C3.51 6 4.21 5.3 5.04 5.39L11.7 6.11C12.38 6.18 13.01 6.49 13.49 6.97L18.2 11.68C19.37 12.85 19.37 14.75 18.2 15.92L14.14 19.99C12.96 21.16 11.07 21.16 9.89 19.99L5.19 15.28C4.7 14.8 4.4 14.16 4.33 13.48L3.6 6.82ZM17.28 15L13.22 19.07C12.55 19.73 11.48 19.73 10.81 19.07L6.11 14.36C5.83 14.09 5.66 13.73 5.62 13.34L4.9 6.68L11.56 7.4C11.94 7.45 12.3 7.62 12.57 7.89L17.28 12.6C17.95 13.26 17.95 14.34 17.28 15ZM7.88 10.68C8.43 10.68 8.88 10.23 8.88 9.68C8.88 9.13 8.43 8.68 7.88 8.68C7.33 8.68 6.88 9.13 6.88 9.68C6.88 10.23 7.33 10.68 7.88 10.68Z" fill="#74767B" fill-opacity="1.000000" fill-rule="evenodd"/>
	</g>
</svg>
