<svg width="24.000000" height="24.000000" viewBox="0 0 24 24" fill="none" xmlns="http://www.w3.org/2000/svg" xmlns:xlink="http://www.w3.org/1999/xlink">
	<desc>
			Created with Pixso.
	</desc>
	<defs>
		<clipPath id="clip17_499">
			<rect id="Outline / Layout Outline" width="24.000000" height="24.000000" fill="white" fill-opacity="0"/>
		</clipPath>
	</defs>
	<g>
		<path id="Shape" d="M18.83 7.99C19.49 7.92 20 7.37 20 6.7L20 5.29C20 4.58 19.41 4 18.7 4L5.29 4C4.58 4 4 4.58 4 5.29L4 6.7C4 7.37 4.5 7.92 5.16 7.99C5.2 7.99 5.25 8 5.29 8L18.7 8C18.74 8 18.79 7.99 18.83 7.99ZM7.57 9.29C7.52 9.29 7.46 9.28 7.4 9.28L5.29 9.28C5.25 9.28 5.2 9.29 5.16 9.29C4.5 9.36 4 9.91 4 10.58L4 18.7C4 19.41 4.58 20 5.29 20L7.4 20C8.08 20 8.64 19.48 8.7 18.81C8.7 18.77 8.7 18.73 8.7 18.7L8.7 10.58C8.7 10.54 8.7 10.51 8.7 10.47C8.64 9.86 8.17 9.37 7.57 9.29ZM18.83 9.29C18.79 9.29 18.74 9.28 18.7 9.28L11.29 9.28C11.24 9.28 11.18 9.29 11.13 9.29C10.53 9.37 10.05 9.86 10 10.47C10 10.51 10 10.54 10 10.58L10 18.7C10 18.73 10 18.77 10 18.81C10.06 19.48 10.62 20 11.29 20L18.7 20C19.41 20 20 19.41 20 18.7L20 10.58C20 9.91 19.49 9.36 18.83 9.29ZM5.6 5.29C5.43 5.29 5.29 5.43 5.29 5.59L5.29 6.4C5.29 6.56 5.43 6.7 5.6 6.7L18.39 6.7C18.56 6.7 18.7 6.56 18.7 6.4L18.7 5.59C18.7 5.43 18.56 5.29 18.39 5.29L5.6 5.29ZM5.6 10.58C5.43 10.58 5.29 10.72 5.29 10.88L5.29 18.4C5.29 18.56 5.43 18.7 5.6 18.7L7.1 18.7C7.27 18.7 7.4 18.56 7.4 18.4L7.4 10.88C7.4 10.72 7.27 10.58 7.1 10.58L5.6 10.58ZM11.6 10.58C11.43 10.58 11.29 10.72 11.29 10.88L11.29 18.4C11.29 18.56 11.43 18.7 11.6 18.7L18.39 18.7C18.56 18.7 18.7 18.56 18.7 18.4L18.7 10.88C18.7 10.72 18.56 10.58 18.39 10.58L11.6 10.58Z" fill="#717681" fill-opacity="1.000000" fill-rule="evenodd"/>
	</g>
</svg>
