<svg width="24.000000" height="24.000000" viewBox="0 0 24 24" fill="none" xmlns="http://www.w3.org/2000/svg" xmlns:xlink="http://www.w3.org/1999/xlink">
	<desc>
			Created with Pixso.
	</desc>
	<defs>
		<clipPath id="clip17_502">
			<rect id="Solid / Layout Solid" width="24.000000" height="24.000000" fill="white" fill-opacity="0"/>
		</clipPath>
	</defs>
	<g >
		<path id="Shape" d="M5.29 4C4.58 4 4 4.58 4 5.29L4 6.7C4 7.41 4.58 8 5.29 8L18.7 8C19.41 8 20 7.41 20 6.7L20 5.29C20 4.58 19.41 4 18.7 4L5.29 4ZM5.29 9.28C4.58 9.28 4 9.87 4 10.58L4 18.7C4 19.41 4.58 20 5.29 20L7.4 20C8.12 20 8.7 19.41 8.7 18.7L8.7 10.58C8.7 9.87 8.12 9.28 7.4 9.28L5.29 9.28ZM10 10.58C10 9.87 10.58 9.28 11.29 9.28L18.7 9.28C19.41 9.28 20 9.87 20 10.58L20 18.7C20 19.41 19.41 20 18.7 20L11.29 20C10.58 20 10 19.41 10 18.7L10 10.58Z" fill="#74767B" fill-opacity="1.000000" fill-rule="evenodd"/>
	</g>
</svg>
