<svg width="24.000000" height="24.000000" viewBox="0 0 24 24" fill="none" xmlns="http://www.w3.org/2000/svg" xmlns:xlink="http://www.w3.org/1999/xlink">
	<desc>
			Created with Pixso.
	</desc>
	<defs>
		<clipPath id="clip5563_744">
			<rect id="Solid / Level Up Solid" width="24.000000" height="24.000000" fill="white" fill-opacity="0"/>
		</clipPath>
	</defs>
	<g>
		<path id="Shape" d="M3 12C3 16.97 7.02 21 12 21C16.97 21 21 16.97 21 12C21 7.02 16.97 3 12 3C7.02 3 3 7.02 3 12ZM15.74 10.45C15.99 10.71 16.4 10.71 16.65 10.45C16.91 10.2 16.91 9.79 16.65 9.54L13.65 6.54C13.4 6.28 12.99 6.28 12.74 6.54L9.74 9.54C9.48 9.79 9.48 10.2 9.74 10.45C9.99 10.71 10.4 10.71 10.65 10.45L12.54 8.56L12.54 13C12.54 14.29 11.49 15.35 10.2 15.35L8.7 15.35C8.34 15.35 8.04 15.64 8.04 16C8.04 16.35 8.34 16.65 8.7 16.65L10.2 16.65C12.21 16.65 13.85 15.01 13.85 13L13.85 8.56L15.74 10.45Z" fill="#717681" fill-opacity="1.000000" fill-rule="evenodd"/>
	</g>
</svg>
