<svg viewBox="0 0 24 24" xmlns="http://www.w3.org/2000/svg" xmlns:xlink="http://www.w3.org/1999/xlink" width="24.000000" height="24.000000" fill="none">
	<rect id="Outline/Level Up Outline" width="24.000000" height="24.000000" x="0.000000" y="0.000000" />
	<path id="Shape" d="M4.73251 8.70815C4.91251 8.70815 5.08251 8.63815 5.21251 8.49815C5.45251 8.22815 5.43251 7.81815 5.17251 7.57815L2.28136 4.85817L10.35 4.85817C11.6479 4.85817 12.7 5.91031 12.7 7.20817L12.7 8.98785C12.7 9.34683 12.991 9.63785 13.35 9.63785C13.709 9.63785 14 9.34683 14 8.98785L14 7.20817C14 5.19234 12.3658 3.55817 10.35 3.55817L2.27185 3.55817L2.27194 3.54267L5.13249 1.12817C5.40249 0.888175 5.41249 0.478175 5.17249 0.208174C4.93249 -0.0518255 4.52249 -0.0718255 4.25249 0.168174L0.232501 3.67267C-0.0775003 3.95267 -0.0775003 4.43267 0.232501 4.71267L4.29251 8.53815C4.42251 8.65815 4.57251 8.70815 4.73251 8.70815Z" fill="rgb(116,118,123)" fill-rule="nonzero" transform="matrix(-4.37114e-08,1,-1,-4.37114e-08,16.6377,5)" />
</svg>
