<svg width="24.000000" height="24.000000" viewBox="0 0 24 24" fill="none" xmlns="http://www.w3.org/2000/svg" xmlns:xlink="http://www.w3.org/1999/xlink">
	<desc>
			Created with Pixso.
	</desc>
	<defs>
		<clipPath id="clip5052_677">
			<rect id="Outline / Lightning Outline" width="24.000000" height="24.000000" fill="white" fill-opacity="0"/>
		</clipPath>
	</defs>
	<g >
		<path id="Shape" d="M13.77 3.3C13.57 3.27 13.37 3.33 13.23 3.47L4.76 11.83C4.38 12.2 4.57 12.83 5.09 12.93L8.93 13.7C9.97 13.9 10.66 14.92 10.46 15.97L9.72 19.96C9.66 20.3 9.89 20.63 10.22 20.69C10.42 20.72 10.62 20.66 10.76 20.52L19.23 12.16C19.61 11.79 19.42 11.16 18.9 11.06L15.06 10.29C14.02 10.09 13.33 9.07 13.53 8.02L14.27 4.02C14.33 3.69 14.1 3.36 13.77 3.3ZM12.31 2.55C12.75 2.11 13.37 1.92 13.98 2.02C15.04 2.2 15.74 3.21 15.55 4.26L14.8 8.26C14.74 8.61 14.97 8.95 15.32 9.02L19.16 9.78C20.69 10.09 21.26 11.98 20.15 13.08L11.68 21.44C11.24 21.88 10.61 22.07 10.01 21.97C8.95 21.79 8.25 20.78 8.44 19.73L9.19 15.73C9.25 15.38 9.02 15.04 8.67 14.97L4.83 14.21C3.3 13.9 2.73 12.01 3.84 10.91L12.31 2.55Z" fill="#74767B" fill-opacity="1.000000" fill-rule="evenodd"/>
	</g>
</svg>
