<svg viewBox="0 0 24 24" xmlns="http://www.w3.org/2000/svg" xmlns:xlink="http://www.w3.org/1999/xlink" width="24.000000" height="24.000000" fill="none">
	<rect id="Solid/Line Chart Solid" width="24.000000" height="24.000000" x="0.000000" y="0.000000" transform="matrix(1,-6.12324e-17,-6.12324e-17,-1,0,24)" />
	<path id="Shape" d="M11.0697 13.2016L8.75729 10.8862C8.88219 10.623 8.95206 10.3287 8.95206 10.018C8.95206 8.89808 8.04421 7.99023 6.92432 7.99023C5.80443 7.99023 4.89658 8.89808 4.89658 10.018C4.89658 11.1379 5.80443 12.0457 6.92432 12.0457C7.25917 12.0457 7.57506 11.9646 7.85339 11.8208L10.1659 14.1363C10.0411 14.3994 9.97129 14.6937 9.97129 15.0043C9.97129 16.1242 10.8791 17.032 11.999 17.032C13.1189 17.032 14.0268 16.1242 14.0268 15.0043C14.0268 14.6088 13.9136 14.2398 13.7178 13.9278L16.647 8.9284C16.7991 8.96484 16.9578 8.98413 17.1211 8.98413C18.241 8.98413 19.1488 8.07628 19.1488 6.95639C19.1488 5.8365 18.241 4.92865 17.1211 4.92865C16.0012 4.92865 15.0934 5.8365 15.0934 6.95639C15.0934 7.44092 15.2633 7.88575 15.5468 8.23454L12.6963 13.0996C12.4789 13.02 12.244 12.9766 11.999 12.9766C11.6641 12.9766 11.3481 13.0578 11.0697 13.2016ZM3.37988 19.3447C3.37988 18.9857 3.6709 18.6947 4.02988 18.6947L19.9952 18.6947C20.3541 18.6947 20.6452 18.9857 20.6452 19.3447C20.6452 19.7037 20.3541 19.9947 19.9952 19.9947L4.02988 19.9947C3.6709 19.9947 3.37988 19.7037 3.37988 19.3447Z" fill="rgb(116,118,123)" fill-rule="evenodd" />
</svg>
