<svg viewBox="0 0 24 24" xmlns="http://www.w3.org/2000/svg" xmlns:xlink="http://www.w3.org/1999/xlink" width="24.000000" height="24.000000" fill="none" customFrame="#000000">
	<rect id="Outline/Line Chart Outline" width="24.000000" height="24.000000" x="0.000000" y="0.000000" />
	<path id="Shape" d="M11.057 12.7398L8.7446 10.4245C8.86949 10.1613 8.93937 9.86694 8.93937 9.55624C8.93937 8.43635 8.03152 7.5285 6.91163 7.5285C5.79174 7.5285 4.88389 8.43635 4.88389 9.55624C4.88389 10.6761 5.79174 11.584 6.91163 11.584C7.24647 11.584 7.56236 11.5028 7.84069 11.3591L10.1532 13.6746C10.0284 13.9377 9.95859 14.232 9.95859 14.5426C9.95859 15.6625 10.8664 16.5703 11.9863 16.5703C13.1062 16.5703 14.0141 15.6625 14.0141 14.5426C14.0141 14.1471 13.9009 13.778 13.7051 13.4661L16.6343 8.46667C16.7864 8.50311 16.9451 8.5224 17.1084 8.5224C18.2283 8.5224 19.1361 7.61455 19.1361 6.49466C19.1361 5.37477 18.2283 4.46692 17.1084 4.46692C15.9885 4.46692 15.0807 5.37477 15.0807 6.49466C15.0807 6.97918 15.2506 7.42402 15.5341 7.77281L12.6836 12.6379C12.4662 12.5583 12.2313 12.5148 11.9863 12.5148C11.6514 12.5148 11.3354 12.596 11.057 12.7398ZM17.1084 7.2224C17.5103 7.2224 17.8361 6.89658 17.8361 6.49466C17.8361 6.09274 17.5103 5.76692 17.1084 5.76692C16.7065 5.76692 16.3807 6.09274 16.3807 6.49466C16.3807 6.89658 16.7065 7.2224 17.1084 7.2224ZM6.91163 10.284C7.31355 10.284 7.63937 9.95816 7.63937 9.55624C7.63937 9.15432 7.31355 8.8285 6.91163 8.8285C6.50971 8.8285 6.18389 9.15432 6.18389 9.55624C6.18389 9.95816 6.50971 10.284 6.91163 10.284ZM12.7141 14.5426C12.7141 14.9445 12.3883 15.2703 11.9863 15.2703C11.5844 15.2703 11.2586 14.9445 11.2586 14.5426C11.2586 14.1407 11.5844 13.8148 11.9863 13.8148C12.3883 13.8148 12.7141 14.1407 12.7141 14.5426ZM3.36719 18.883C3.36719 18.524 3.6582 18.233 4.01719 18.233L19.9825 18.233C20.3415 18.233 20.6325 18.524 20.6325 18.883C20.6325 19.242 20.3415 19.533 19.9825 19.533L4.01719 19.533C3.6582 19.533 3.36719 19.242 3.36719 18.883Z" fill="rgb(116,118,123)" fill-rule="evenodd" />
</svg>
