<svg width="24.000000" height="24.000000" viewBox="0 0 24 24" fill="none" xmlns="http://www.w3.org/2000/svg" xmlns:xlink="http://www.w3.org/1999/xlink">
	<desc>
			Created with Pixso.
	</desc>
	<defs>
		<clipPath id="clip127622_739">
			<rect id="Solid / Line Chart Solid" width="24.000000" height="24.000000" transform="matrix(1 -6.12324e-17 -6.12324e-17 -1 0 24)" fill="white" fill-opacity="0"/>
		</clipPath>
	</defs>
	<g clip-path="url(#clip127622_739)">
		<path id="Shape" d="M11.06 13.2L8.75 10.88C8.88 10.62 8.95 10.32 8.95 10.01C8.95 8.89 8.04 7.99 6.92 7.99C5.8 7.99 4.89 8.89 4.89 10.01C4.89 11.13 5.8 12.04 6.92 12.04C7.25 12.04 7.57 11.96 7.85 11.82L10.16 14.13C10.04 14.39 9.97 14.69 9.97 15C9.97 16.12 10.87 17.03 11.99 17.03C13.11 17.03 14.02 16.12 14.02 15C14.02 14.6 13.91 14.23 13.71 13.92L16.64 8.92C16.79 8.96 16.95 8.98 17.12 8.98C18.24 8.98 19.14 8.07 19.14 6.95C19.14 5.83 18.24 4.92 17.12 4.92C16 4.92 15.09 5.83 15.09 6.95C15.09 7.44 15.26 7.88 15.54 8.23L12.69 13.09C12.47 13.02 12.24 12.97 11.99 12.97C11.66 12.97 11.34 13.05 11.06 13.2ZM3.37 19.34C3.37 18.98 3.67 18.69 4.02 18.69L19.99 18.69C20.35 18.69 20.64 18.98 20.64 19.34C20.64 19.7 20.35 19.99 19.99 19.99L4.02 19.99C3.67 19.99 3.37 19.7 3.37 19.34Z" fill="#74767B" fill-opacity="1.000000" fill-rule="evenodd"/>
		<path id="Shape" d="M8.95 10.01C8.95 10.32 8.88 10.62 8.75 10.88L11.06 13.2C11.34 13.05 11.66 12.97 11.99 12.97C12.24 12.97 12.47 13.02 12.69 13.09L15.54 8.23C15.26 7.88 15.09 7.44 15.09 6.95C15.09 5.83 16 4.92 17.12 4.92C18.24 4.92 19.14 5.83 19.14 6.95C19.14 8.07 18.24 8.98 17.12 8.98C16.95 8.98 16.79 8.96 16.64 8.92L13.71 13.92C13.91 14.23 14.02 14.6 14.02 15C14.02 16.12 13.11 17.03 11.99 17.03C10.87 17.03 9.97 16.12 9.97 15C9.97 14.69 10.04 14.39 10.16 14.13L7.85 11.82C7.57 11.96 7.25 12.04 6.92 12.04C5.8 12.04 4.89 11.13 4.89 10.01C4.89 8.89 5.8 7.99 6.92 7.99C8.04 7.99 8.95 8.89 8.95 10.01ZM7.47 10.55L7.25 10.66Q7.19 10.69 7.12 10.71Q7.02 10.74 6.92 10.74Q6.77 10.74 6.64 10.69Q6.51 10.63 6.4 10.53Q6.3 10.42 6.24 10.29Q6.19 10.16 6.19 10.01Q6.19 9.86 6.24 9.73Q6.3 9.6 6.4 9.5Q6.51 9.39 6.64 9.34Q6.77 9.29 6.92 9.29Q7.07 9.29 7.2 9.34Q7.33 9.39 7.43 9.5Q7.54 9.6 7.59 9.73Q7.65 9.86 7.65 10.01Q7.65 10.11 7.62 10.21Q7.6 10.27 7.58 10.32L7.47 10.55ZM11.44 14.47L11.34 14.69Q11.31 14.75 11.29 14.8Q11.27 14.9 11.27 15Q11.27 15.15 11.32 15.28Q11.37 15.41 11.48 15.51Q11.59 15.62 11.71 15.67Q11.84 15.73 11.99 15.73Q12.14 15.73 12.27 15.67Q12.4 15.62 12.51 15.51Q12.62 15.41 12.67 15.28Q12.72 15.15 12.72 15Q12.72 14.88 12.69 14.78Q12.66 14.69 12.61 14.61L12.48 14.4L12.24 14.32Q12.21 14.3 12.17 14.29Q12.09 14.27 11.99 14.27Q11.89 14.27 11.79 14.3Q11.73 14.32 11.66 14.35L11.44 14.47ZM16.71 7.6L16.95 7.66Q16.95 7.66 16.95 7.66Q17.03 7.68 17.12 7.68Q17.27 7.68 17.4 7.63Q17.52 7.57 17.63 7.47Q17.74 7.36 17.79 7.23Q17.84 7.1 17.84 6.95Q17.84 6.8 17.79 6.67Q17.74 6.54 17.63 6.44Q17.52 6.33 17.4 6.28Q17.27 6.22 17.12 6.22Q16.97 6.22 16.84 6.28Q16.71 6.33 16.6 6.44Q16.5 6.54 16.44 6.67Q16.39 6.8 16.39 6.95Q16.39 7.08 16.43 7.2Q16.47 7.31 16.55 7.41L16.71 7.6ZM4.02 18.69C3.67 18.69 3.37 18.98 3.37 19.34C3.37 19.7 3.67 19.99 4.02 19.99L19.99 19.99C20.35 19.99 20.64 19.7 20.64 19.34C20.64 18.98 20.35 18.69 19.99 18.69L4.02 18.69Z" fill="#74767B" fill-opacity="1.000000" fill-rule="evenodd"/>
	</g>
</svg>
