<svg width="24.000000" height="24.000000" viewBox="0 0 24 24" fill="none" xmlns="http://www.w3.org/2000/svg" xmlns:xlink="http://www.w3.org/1999/xlink">
	<desc>
			Created with Pixso.
	</desc>
	<defs>
		<clipPath id="clip17_235">
			<rect id="Outline / Magnet Outline" width="24.000000" height="24.000000" fill="white" fill-opacity="0"/>
		</clipPath>
	</defs>
	<g >
		<path id="Shape" d="M15.81 18.69L20.52 13.99C21.03 13.48 21.03 12.66 20.52 12.15L18.48 10.11C17.97 9.6 17.15 9.6 16.64 10.11L12.14 14.62C11.36 15.39 10.1 15.39 9.32 14.62C8.54 13.84 8.54 12.58 9.32 11.8L13.83 7.3C14.34 6.79 14.34 5.96 13.83 5.46L11.75 3.38C11.24 2.87 10.42 2.87 9.91 3.38L5.21 8.09C2.28 11.01 2.28 15.76 5.21 18.69C8.14 21.62 12.89 21.62 15.81 18.69ZM17.13 15.53L14.89 17.77C12.47 20.19 8.55 20.19 6.13 17.77C3.71 15.35 3.71 11.43 6.13 9L8.37 6.77L10.44 8.84L8.4 10.88C7.12 12.17 7.12 14.25 8.4 15.54C9.69 16.82 11.77 16.82 13.06 15.54L15.1 13.5L17.13 15.53ZM11.36 7.92L9.28 5.85L10.83 4.3L12.91 6.38L11.36 7.92ZM18.05 14.61L19.6 13.07L17.56 11.03L16.01 12.58L18.05 14.61Z" fill="#74767B" fill-opacity="1.000000" fill-rule="evenodd"/>
	</g>
</svg>
