<svg width="24.000000" height="24.000000" viewBox="0 0 24 24" fill="none" xmlns="http://www.w3.org/2000/svg" xmlns:xlink="http://www.w3.org/1999/xlink">
	<desc>
			Created with Pixso.
	</desc>
	<defs>
		<clipPath id="clip17_356">
			<rect id="Outline / Maintenance Outline" width="24.000000" height="24.000000" fill="white" fill-opacity="0"/>
		</clipPath>
	</defs>
	<g clip-path="url(#clip17_356)">
		<path id="Shape" d="M21.73 13.38C23.2 12.01 23.29 9.71 21.93 8.24L18.47 4.47C17.13 3.02 14.87 2.89 13.38 4.19L11.95 5.44L10.65 4.27C9.14 2.93 6.84 3.07 5.5 4.57L2.02 8.46C0.68 9.97 0.81 12.27 2.32 13.61L9.66 20.16C11.07 21.42 13.21 21.39 14.58 20.1L21.31 13.78L21.31 13.77L21.73 13.38ZM8.78 8.2L10.96 6.3L9.78 5.24C8.81 4.38 7.33 4.47 6.47 5.43L2.99 9.33C2.13 10.3 2.21 11.78 3.18 12.64L4.72 14.02C6.06 12.98 7.99 13 9.33 14.14L11.55 16.06C12.61 16.97 13.04 18.39 12.72 19.7C13.07 19.6 13.41 19.42 13.69 19.15L17.85 15.24L13.91 11.33C13.67 11.1 13.3 11.08 13.04 11.29L12.06 12.09C11.06 12.91 9.61 12.85 8.68 11.95C7.61 10.91 7.65 9.18 8.78 8.2ZM11.37 19.67C11.72 18.75 11.46 17.7 10.71 17.05L8.48 15.13C7.68 14.45 6.57 14.39 5.72 14.91L10.52 19.19C10.77 19.42 11.06 19.58 11.37 19.67ZM20.97 9.12C21.85 10.07 21.79 11.55 20.84 12.43L18.79 14.34L14.83 10.41C14.12 9.71 12.99 9.65 12.22 10.29L11.24 11.09C10.75 11.49 10.04 11.46 9.58 11.02C9.06 10.51 9.08 9.66 9.63 9.18L14.24 5.17C15.2 4.34 16.65 4.42 17.51 5.35L20.97 9.12Z" fill="#717681" fill-opacity="1.000000" fill-rule="evenodd"/>
	</g>
</svg>
