<svg width="24.000000" height="24.000000" viewBox="0 0 24 24" fill="none" xmlns="http://www.w3.org/2000/svg" xmlns:xlink="http://www.w3.org/1999/xlink">
	<desc>
			Created with Pixso.
	</desc>
	<defs>
		<clipPath id="clip17_359">
			<rect id="Solid / Maintenance Solid" width="24.000000" height="24.000000" fill="white" fill-opacity="0"/>
		</clipPath>
	</defs>
	<g clip-path="url(#clip17_359)">
		<path id="Shape" d="M19.71 15.3L14.32 9.94C13.6 9.22 12.44 9.18 11.67 9.86L10.97 10.47C10.39 10.98 9.51 10.95 8.96 10.42C8.33 9.81 8.36 8.8 9.02 8.23L13.74 4.11C15.19 2.93 17.32 3.09 18.57 4.49L22.04 8.38C23.29 9.79 23.21 11.93 21.86 13.23L19.71 15.3ZM18.74 16.16L14.55 20.1C13.87 20.73 13.01 21.06 12.15 21.09L12.48 20.32C13.12 18.86 12.72 17.14 11.51 16.1L9.27 14.17C7.73 12.85 5.4 13.03 4.1 14.59L3.79 14.96L2.28 13.61C0.78 12.27 0.65 9.97 1.99 8.46L5.46 4.57C6.8 3.07 9.11 2.93 10.61 4.27L11.09 4.7L8.16 7.25C6.93 8.32 6.88 10.21 8.05 11.35C9.09 12.36 10.73 12.4 11.82 11.45L12.52 10.84C12.78 10.61 13.17 10.63 13.41 10.87L18.74 16.16ZM9.62 20.16C9.98 20.48 10.39 20.72 10.82 20.87L11.29 19.8C11.7 18.86 11.44 17.76 10.66 17.09L8.42 15.16C7.43 14.3 5.93 14.42 5.09 15.43L4.76 15.82L9.62 20.16Z" fill="#74767B" fill-opacity="1.000000" fill-rule="evenodd"/>
	</g>
</svg>
