<svg width="24.000000" height="24.000000" viewBox="0 0 24 24" fill="none" xmlns="http://www.w3.org/2000/svg" xmlns:xlink="http://www.w3.org/1999/xlink">
	<desc>
			Created with Pixso.
	</desc>
	<defs>
		<clipPath id="clip5563_702">
			<rect id="Outline / Male Outline" width="24.000000" height="24.000000" fill="white" fill-opacity="0"/>
		</clipPath>
	</defs>
	<g clip-path="url(#clip5563_702)">
		<path id="Shape" d="M12 2C11.17 2 10.5 2.67 10.5 3.5L10.5 4.5C10.5 5.32 11.17 6 12 6C12.82 6 13.5 5.32 13.5 4.5L13.5 3.5C13.5 2.67 12.82 2 12 2ZM9.22 9.63C9.09 9.81 8.97 10.02 8.86 10.26C8.4 11.27 8.16 12.7 8.16 14.38C8.16 14.74 7.87 15.03 7.51 15.03C7.15 15.03 6.86 14.74 6.86 14.38C6.86 12.6 7.11 10.97 7.68 9.72C8.07 8.85 8.64 8.14 9.41 7.73C9.52 7.67 9.66 7.6 9.83 7.54C10.06 7.46 10.3 7.4 10.56 7.37C10.94 7.31 11.41 7.27 11.99 7.27C12.59 7.27 13.07 7.31 13.45 7.37C13.67 7.4 13.87 7.45 14.06 7.51C14.31 7.59 14.5 7.68 14.63 7.76C15.37 8.18 15.92 8.88 16.31 9.72C16.88 10.97 17.12 12.6 17.12 14.38C17.12 14.74 16.83 15.03 16.47 15.03C16.11 15.03 15.82 14.74 15.82 14.38C15.82 12.7 15.59 11.27 15.12 10.26C15.02 10.02 14.9 9.82 14.77 9.63L14 14.83L14 21.36C14 21.72 13.71 22.01 13.35 22.01C12.99 22.01 12.7 21.72 12.7 21.36L12.7 15.19L11.3 15.19L11.3 21.36C11.3 21.72 11.01 22.01 10.65 22.01C10.29 22.01 10 21.72 10 21.36L10 14.82L9.22 9.63ZM11.99 8.57C12.48 8.57 12.86 8.6 13.14 8.64C13.17 8.64 13.2 8.65 13.22 8.65C13.24 8.65 13.25 8.66 13.26 8.66C13.4 8.68 13.51 8.7 13.6 8.73L12.82 13.89L11.18 13.89L10.39 8.73C10.49 8.7 10.6 8.68 10.74 8.65L10.76 8.65C10.78 8.65 10.81 8.65 10.83 8.64C11.12 8.6 11.5 8.57 11.99 8.57Z" fill="#74767B" fill-opacity="1.000000" fill-rule="evenodd"/>
	</g>
</svg>
