<svg width="24.000000" height="24.000000" viewBox="0 0 24 24" fill="none" xmlns="http://www.w3.org/2000/svg" xmlns:xlink="http://www.w3.org/1999/xlink">
	<desc>
			Created with Pixso.
	</desc>
	<defs>
		<clipPath id="clip5048_626">
			<rect id="Solid / Martini Solid" width="24.000000" height="24.000000" fill="white" fill-opacity="0"/>
		</clipPath>
	</defs>
	<g clip-path="url(#clip5048_626)">
		<path id="Shape" d="M3.77 5.13C3.07 4.28 3.67 3 4.77 3L19.22 3C20.32 3 20.92 4.28 20.22 5.13L12.65 14.22L12.65 19.7L16.35 19.7C16.7 19.7 17 19.99 17 20.35C17 20.7 16.7 21 16.35 21L7.64 21C7.29 21 7 20.7 7 20.35C7 19.99 7.29 19.7 7.64 19.7L11.35 19.7L11.35 14.22C8.82 11.19 6.29 8.16 3.77 5.13ZM16.34 7.75C14.67 7.23 13.57 7.33 12.59 7.62C11.53 7.92 10.93 8.29 9.81 8.29C8.33 8.29 7.49 7.53 7.24 7.26L4.77 4.3L19.22 4.3L16.34 7.75Z" fill="#74767B" fill-opacity="1.000000" fill-rule="evenodd"/>
	</g>
</svg>
