<svg width="24.000000" height="24.000000" viewBox="0 0 24 24" fill="none" xmlns="http://www.w3.org/2000/svg" xmlns:xlink="http://www.w3.org/1999/xlink">
	<desc>
			Created with Pixso.
	</desc>
	<defs>
		<clipPath id="clip17_305">
			<rect id="Solid / Medal Solid" width="24.000000" height="24.000000" fill="white" fill-opacity="0"/>
		</clipPath>
	</defs>
	<g >
		<path id="Shape" d="M12 16C15.58 16 18.5 13.08 18.5 9.5C18.5 5.91 15.58 3 12 3C8.41 3 5.5 5.91 5.5 9.5C5.5 13.08 8.41 16 12 16ZM13.27 7.69L12.25 5.96C12.14 5.77 11.85 5.77 11.74 5.96L10.72 7.69L8.77 8.12C8.54 8.17 8.46 8.44 8.61 8.61L9.94 10.11L9.74 12.1C9.72 12.33 9.95 12.5 10.16 12.41L12 11.6L13.83 12.41C14.04 12.5 14.27 12.33 14.25 12.1L14.05 10.11L15.38 8.61C15.53 8.44 15.45 8.17 15.22 8.12L13.27 7.69ZM6.69 15.22C6.3 14.85 5.63 14.95 5.43 15.45L4.05 18.83C3.96 19.06 4 19.31 4.16 19.5C4.32 19.68 4.56 19.76 4.8 19.71L7.96 18.98L9.66 21.68C9.79 21.89 10.02 22.01 10.27 21.99C10.51 21.96 10.72 21.81 10.81 21.58L12.15 18.3C12.34 17.83 11.97 17.31 11.47 17.28C9.63 17.15 7.96 16.39 6.69 15.22ZM13.17 21.58L12.69 20.41L13.77 17.76C13.96 17.29 14.06 17.02 14.23 16.97C15.38 16.63 16.43 16.02 17.29 15.22C17.68 14.86 18.35 14.96 18.56 15.45L19.93 18.83C20.02 19.05 19.98 19.31 19.83 19.5C19.67 19.68 19.42 19.76 19.19 19.71L16.04 19.02L14.32 21.69C14.19 21.89 13.95 22.01 13.71 21.99C13.47 21.96 13.26 21.81 13.17 21.58Z" fill="#74767B" fill-opacity="1.000000" fill-rule="evenodd"/>
	</g>
</svg>
