<svg width="24.000000" height="24.000000" viewBox="0 0 24 24" fill="none" xmlns="http://www.w3.org/2000/svg" xmlns:xlink="http://www.w3.org/1999/xlink">
	<desc>
			Created with Pixso.
	</desc>
	<defs>
		<clipPath id="clip17_317">
			<rect id="Outline / Megaphone Outline" width="24.000000" height="24.000000" fill="white" fill-opacity="0"/>
		</clipPath>
	</defs>
	<g>
		<path id="Shape" d="M12.88 8L11.76 8L11.76 8L7 8C5.34 8 4 9.34 4 11L4 13C4 14.53 5.14 15.79 6.62 15.98L7.22 19.13C7.42 20.21 8.37 21 9.47 21C10.74 21 11.76 19.97 11.76 18.7L11.76 16.01L12.89 16.01C14.58 16.01 16.02 17.24 16.28 18.91C16.37 19.53 16.91 19.99 17.54 19.99L18.7 19.99C19.41 19.99 20 19.41 20 18.69L20 5.3C20 4.58 19.41 4 18.7 4L17.54 4C16.91 4 16.37 4.46 16.28 5.08C16.02 6.76 14.57 8 12.88 8ZM17.56 18.69L18.7 18.69L18.7 5.3L17.56 5.3C17.2 7.6 15.21 9.3 12.88 9.3L11.77 9.3L11.77 14.71L12.89 14.71C15.21 14.71 17.19 16.4 17.56 18.69ZM6.95 14.7L10.46 14.7L10.46 9.3L7 9.3C6.06 9.3 5.29 10.06 5.29 11L5.29 13C5.29 13.92 6.03 14.68 6.95 14.7ZM8.02 11C7.46 11 7.02 11.45 7.02 12C7.02 12.54 7.46 13 8.02 13C8.57 13 9.02 12.54 9.02 12C9.02 11.45 8.57 11 8.02 11ZM8.5 18.89L7.95 16L10.46 16L10.46 18.7C10.46 19.25 10.02 19.7 9.47 19.7C9 19.7 8.59 19.36 8.5 18.89Z" fill="#717681" fill-opacity="1.000000" fill-rule="evenodd"/>
	</g>
</svg>
