<svg width="24.000000" height="24.000000" viewBox="0 0 24 24" fill="none" xmlns="http://www.w3.org/2000/svg" xmlns:xlink="http://www.w3.org/1999/xlink">
	<desc>
			Created with Pixso.
	</desc>
	<defs>
		<clipPath id="clip17_320">
			<rect id="Solid / Megaphone Solid" width="24.000000" height="24.000000" fill="white" fill-opacity="0"/>
		</clipPath>
	</defs>
	<g clip-path="url(#clip17_320)">
		<path id="Shape" d="M13.71 16.11C15.03 16.43 16.06 17.52 16.28 18.91C16.38 19.53 16.91 19.99 17.54 19.99L18.7 19.99C19.41 19.99 20 19.41 20 18.69L20 5.3C20 4.58 19.41 4 18.7 4L17.54 4C16.91 4 16.38 4.46 16.28 5.08C16.06 6.48 15.03 7.57 13.7 7.9C13.34 7.99 13.05 8.29 13.05 8.66L13.05 15.34C13.05 15.72 13.34 16.02 13.71 16.11ZM4 13C4 14.53 5.14 15.79 6.62 15.98L6.62 15.98L11.06 15.98C11.44 15.98 11.75 15.67 11.75 15.28L11.75 8.7C11.75 8.31 11.44 8 11.06 8L7 8C5.34 8 4 9.34 4 11L4 13ZM7.47 12C7.47 11.45 7.92 11 8.47 11C9.02 11 9.47 11.45 9.47 12C9.47 12.54 9.02 13 8.47 13C7.92 13 7.47 12.54 7.47 12ZM11.75 17.98L11.75 18.7C11.75 19.97 11.45 20.99 10.18 20.99C9.08 20.99 8.37 20.21 8.16 19.13L7.97 18.11C7.89 17.68 8.22 17.28 8.66 17.28L11.06 17.28C11.44 17.28 11.75 17.59 11.75 17.98Z" fill="#74767B" fill-opacity="1.000000" fill-rule="evenodd"/>
	</g>
</svg>
