<svg width="24.000000" height="24.000000" viewBox="0 0 24 24" fill="none" xmlns="http://www.w3.org/2000/svg" xmlns:xlink="http://www.w3.org/1999/xlink">
	<desc>
			Created with Pixso.
	</desc>
	<defs>
		<clipPath id="clip125508_725">
			<rect id="Solid / Metro Solid" width="24.000000" height="24.000000" fill="white" fill-opacity="0"/>
		</clipPath>
	</defs>
	<g clip-path="url(#clip125508_725)">
		<path id="Shape" d="M17.88 19.4C19.61 17.81 20.7 15.53 20.7 13C20.7 8.19 16.8 4.29 12 4.29C7.19 4.29 3.3 8.19 3.3 13C3.3 15.53 4.38 17.81 6.11 19.4C6.3 19.57 6.6 19.7 7 19.7L16.99 19.7C17.39 19.7 17.69 19.57 17.88 19.4ZM18.77 20.35C18.29 20.79 17.64 21 16.99 21L7 21C6.35 21 5.7 20.79 5.22 20.35C3.24 18.53 2 15.91 2 13C2 7.47 6.47 3 12 3C17.52 3 22 7.47 22 13C22 15.91 20.75 18.53 18.77 20.35ZM9.04 8.35C8.11 8.35 7.34 9.11 7.34 10.05L7.34 12.32L16.65 12.32L16.65 10.05C16.65 9.11 15.88 8.35 14.95 8.35L9.04 8.35ZM9.04 7.05C7.39 7.05 6.04 8.4 6.04 10.05L6.04 12.32C6.04 12.4 6.05 12.47 6.06 12.55C6.05 12.58 6.04 12.61 6.04 12.65L6.04 14.18C6.04 14.35 6.18 14.48 6.34 14.48L8.36 14.48C8.72 14.48 9.01 14.77 9.01 15.13C9.01 15.49 8.72 15.78 8.36 15.78L6.42 15.78C6.24 15.78 6.1 15.95 6.14 16.12C6.48 17.41 7.65 18.37 9.04 18.37L14.95 18.37C16.34 18.37 17.51 17.41 17.85 16.12C17.89 15.95 17.75 15.78 17.57 15.78L15.63 15.78C15.27 15.78 14.98 15.49 14.98 15.13C14.98 14.77 15.27 14.48 15.63 14.48L17.65 14.48C17.81 14.48 17.95 14.35 17.95 14.18L17.95 12.65C17.95 12.61 17.94 12.58 17.93 12.55C17.94 12.47 17.95 12.4 17.95 12.32L17.95 10.05C17.95 8.4 16.6 7.05 14.95 7.05L9.04 7.05Z" fill="#717681" fill-opacity="1.000000" fill-rule="evenodd"/>
	</g>
</svg>
