<svg width="24.000000" height="24.000000" viewBox="0 0 24 24" fill="none" xmlns="http://www.w3.org/2000/svg" xmlns:xlink="http://www.w3.org/1999/xlink">
	<desc>
			Created with Pixso.
	</desc>
	<defs>
		<clipPath id="clip17_368">
			<rect id="Outline / Mobile Outline" width="24.000000" height="24.000000" fill="white" fill-opacity="0"/>
		</clipPath>
	</defs>
	<g clip-path="url(#clip17_368)">
		<path id="Shape" d="M8.98 3L9 3L15 3L15.01 3C15.73 3 16.39 3.26 16.91 3.69C17.57 4.24 18 5.07 18 6L18 18C18 19.65 16.65 21 15 21L9 21C7.34 21 6 19.65 6 18L6 6C6 5.17 6.33 4.42 6.86 3.88C7.4 3.34 8.15 3 8.98 3ZM13.7 4.29L10.29 4.29L10.29 4.94C10.29 5.3 10.58 5.59 10.94 5.59L13.05 5.59C13.41 5.59 13.7 5.3 13.7 4.94L13.7 4.29ZM15 5.07C15 5.03 15 4.98 15 4.94L15 4.3C15.53 4.3 15.99 4.54 16.3 4.91C16.55 5.21 16.7 5.58 16.7 6L16.7 18C16.7 18.93 15.93 19.7 15 19.7L9 19.7C8.06 19.7 7.29 18.93 7.29 18L7.29 6C7.29 5.58 7.44 5.21 7.69 4.91C7.96 4.58 8.37 4.35 8.82 4.3C8.88 4.3 8.93 4.3 8.99 4.3L8.99 4.94C8.99 4.98 8.99 5.03 8.99 5.07C9.06 6.08 9.9 6.89 10.94 6.89L13.05 6.89C14.09 6.89 14.93 6.08 15 5.07ZM12.26 18.4C12.68 18.28 12.99 17.89 12.99 17.43C12.99 16.88 12.55 16.44 12 16.44C11.44 16.44 11 16.88 11 17.43C11 17.89 11.31 18.28 11.73 18.4C11.81 18.42 11.9 18.43 12 18.43C12.09 18.43 12.18 18.42 12.26 18.4Z" fill="#717681" fill-opacity="1.000000" fill-rule="evenodd"/>
	</g>
</svg>
