<svg width="24.000000" height="24.000000" viewBox="0 0 24 24" fill="none" xmlns="http://www.w3.org/2000/svg" xmlns:xlink="http://www.w3.org/1999/xlink">
	<desc>
			Created with Pixso.
	</desc>
	<defs>
		<clipPath id="clip17_371">
			<rect id="Solid / Mobile Solid" width="24.000000" height="24.000000" fill="white" fill-opacity="0"/>
		</clipPath>
	</defs>
	<g clip-path="url(#clip17_371)">
		<path id="Shape" d="M9 3C7.34 3 6 4.34 6 6L6 18C6 19.65 7.34 21 9 21L15 21C16.65 21 18 19.65 18 18L18 6C18 4.34 16.65 3 15 3L9 3ZM9.29 4.29L14.7 4.29L14.7 4.94C14.7 5.3 14.41 5.59 14.05 5.59L9.94 5.59C9.58 5.59 9.29 5.3 9.29 4.94L9.29 4.29ZM12.99 17.43C12.99 17.98 12.55 18.43 12 18.43C11.44 18.43 11 17.98 11 17.43C11 16.88 11.44 16.44 12 16.44C12.55 16.44 12.99 16.88 12.99 17.43Z" fill="#717681" fill-opacity="1.000000" fill-rule="evenodd"/>
	</g>
</svg>
