<svg width="24.000000" height="24.000000" viewBox="0 0 24 24" fill="none" xmlns="http://www.w3.org/2000/svg" xmlns:xlink="http://www.w3.org/1999/xlink">
	<desc>
			Created with Pixso.
	</desc>
	<defs>
		<clipPath id="clip17_454">
			<rect id="Solid / Multibonus Solid" width="24.000000" height="24.000000" fill="white" fill-opacity="0"/>
		</clipPath>
	</defs>
	<g >
		<path id="Shape" d="M6.89 6.34C6.61 5.83 6.5 5.22 6.63 4.6L6.65 4.51C6.83 3.68 7.43 3.01 8.24 2.75C9.7 2.29 11.2 2.88 12 4.05C12.79 2.88 14.29 2.29 15.75 2.75C16.56 3.01 17.16 3.68 17.34 4.51L17.36 4.6C17.49 5.22 17.38 5.83 17.1 6.34C18.71 6.39 20 7.72 20 9.34L20 11.98L20 13.28L20 17C20 18.65 18.65 20 17 20L7 20C5.34 20 4 18.65 4 17L4 13.28L4 11.98L4 9.34C4 7.72 5.28 6.39 6.89 6.34ZM12.75 5.63L12.65 6.33L12.65 6.33L14.9 6.33C15.67 6.33 16.25 5.62 16.09 4.87L16.07 4.78C15.99 4.41 15.71 4.11 15.35 3.99C14.16 3.61 12.91 4.4 12.75 5.63ZM11.24 5.63L11.34 6.33L11.34 6.33L9.09 6.33C8.32 6.33 7.74 5.62 7.9 4.87L7.92 4.78C8 4.41 8.27 4.11 8.64 3.99C9.83 3.61 11.08 4.4 11.24 5.63ZM9.25 9.89C9.49 9.79 9.77 9.85 9.95 10.04L12 12.08L14.04 10.04C14.22 9.85 14.5 9.79 14.74 9.89C14.99 10 15.14 10.23 15.14 10.5L15.14 15.5C15.14 15.85 14.85 16.15 14.5 16.15C14.14 16.15 13.85 15.85 13.85 15.5L13.85 12.06L12.45 13.45C12.2 13.71 11.79 13.71 11.54 13.45L10.14 12.06L10.14 15.5C10.14 15.85 9.85 16.15 9.5 16.15C9.14 16.15 8.85 15.85 8.85 15.5L8.85 10.5C8.85 10.23 9 10 9.25 9.89Z" fill="#74767B" fill-opacity="1.000000" fill-rule="evenodd"/>
	</g>
</svg>
