<svg width="24.000000" height="24.000000" viewBox="0 0 24 24" fill="none" xmlns="http://www.w3.org/2000/svg" xmlns:xlink="http://www.w3.org/1999/xlink">
	<desc>
			Created with Pixso.
	</desc>
	<defs>
		<clipPath id="clip123737_709">
			<rect id="Solid / Organisation Solid" width="24.000000" height="24.000000" fill="white" fill-opacity="0"/>
		</clipPath>
	</defs>
	<g>
		<path id="Shape" d="M5.25 3.34C4.53 3.34 3.95 3.92 3.95 4.64L3.95 19.72C3.95 20.44 4.53 21.02 5.25 21.02L6.07 21.02L6.07 12.59C6.07 11.16 7.24 9.99 8.67 9.99L15.97 9.99L15.97 4.64C15.97 3.92 15.39 3.34 14.67 3.34L5.25 3.34ZM7.36 12.56C7.36 11.84 7.94 11.26 8.66 11.26L18.68 11.26C19.4 11.26 19.98 11.84 19.98 12.56L19.98 19.7C19.98 20.42 19.4 21 18.68 21L16.79 21C16.08 21 15.5 20.42 15.5 19.7L15.5 15.72C15.5 15.32 15.17 15.01 14.78 15.02L12.18 15.08C11.8 15.09 11.5 15.4 11.5 15.78L11.5 19.77C11.5 20.5 10.89 21.08 10.16 21.07L7.36 21L7.36 12.56ZM9.3 7.65C9.3 8.01 9.59 8.3 9.95 8.3C10.31 8.3 10.6 8.01 10.6 7.65L10.6 6.08C10.6 5.73 10.31 5.43 9.95 5.43C9.59 5.43 9.3 5.73 9.3 6.08L9.3 7.65ZM12.56 8.3C12.2 8.3 11.91 8.01 11.91 7.65L11.91 6.08C11.91 5.73 12.2 5.43 12.56 5.43C12.92 5.43 13.21 5.73 13.21 6.08L13.21 7.65C13.21 8.01 12.92 8.3 12.56 8.3ZM6.71 7.65C6.71 8.01 7 8.3 7.36 8.3C7.72 8.3 8.01 8.01 8.01 7.65L8.01 6.08C8.01 5.73 7.72 5.43 7.36 5.43C7 5.43 6.71 5.73 6.71 6.08L6.71 7.65Z" fill="#717681" fill-opacity="1.000000" fill-rule="evenodd"/>
	</g>
</svg>
