<svg width="24.000000" height="24.000000" viewBox="0 0 24 24" fill="none" xmlns="http://www.w3.org/2000/svg" xmlns:xlink="http://www.w3.org/1999/xlink">
	<desc>
			Created with Pixso.
	</desc>
	<defs>
		<clipPath id="clip123231_729">
			<rect id="Solid / Person VIP Solid" width="24.000000" height="24.000000" fill="white" fill-opacity="0"/>
		</clipPath>
	</defs>
	<g clip-path="url(#clip123231_729)">
		<path id="Shape" d="M12 3C9.33 3 7.26 5.32 7.56 7.96L7.82 10.27C8.06 12.39 9.86 14 12 14C14.13 14 15.93 12.39 16.17 10.27L16.43 7.96C16.73 5.32 14.66 3 12 3ZM10.14 15C7.33 15 4.89 16.95 4.28 19.69L4.18 20.14C4.09 20.58 4.42 21 4.87 21L9.49 21C9.82 21 10.1 20.76 10.17 20.44L11.11 15.84C11.2 15.4 10.87 15 10.43 15L10.14 15ZM12.87 15.84C12.78 15.4 13.11 15 13.55 15L13.85 15C16.66 15 19.1 16.95 19.71 19.69L19.81 20.14C19.9 20.58 19.57 21 19.12 21L14.5 21C14.17 21 13.88 20.76 13.82 20.44L12.87 15.84Z" fill="#717681" fill-opacity="1.000000" fill-rule="evenodd"/>
	</g>
</svg>
