<svg width="24.000000" height="24.000000" viewBox="0 0 24 24" fill="none" xmlns="http://www.w3.org/2000/svg" xmlns:xlink="http://www.w3.org/1999/xlink">
	<desc>
			Created with Pixso.
	</desc>
	<defs>
		<clipPath id="clip123231_728">
			<rect id="Outline / Person VIP Outline" width="24.000000" height="24.000000" fill="white" fill-opacity="0"/>
		</clipPath>
	</defs>
	<g clip-path="url(#clip123231_728)">
		<path id="Shape" d="M7.56 7.96C7.26 5.32 9.33 3 12 3C14.66 3 16.73 5.32 16.43 7.96L16.17 10.27C15.93 12.39 14.13 14 12 14C9.86 14 8.06 12.39 7.82 10.27L7.56 7.96ZM15.14 7.82L14.88 10.12C14.71 11.59 13.47 12.7 12 12.7C10.52 12.7 9.28 11.59 9.11 10.12L8.85 7.82C8.64 5.94 10.11 4.29 12 4.29C13.88 4.29 15.35 5.94 15.14 7.82ZM4.28 19.69C4.89 16.95 7.33 15 10.14 15L13.85 15C16.66 15 19.1 16.95 19.71 19.69L19.81 20.14C19.9 20.58 19.57 21 19.12 21L4.87 21C4.42 21 4.09 20.58 4.18 20.14L4.28 19.69ZM10.27 19.39C10.23 19.57 10.07 19.7 9.89 19.7L6.16 19.7C5.89 19.7 5.7 19.44 5.8 19.19C6.52 17.46 8.22 16.29 10.14 16.29L10.53 16.29C10.79 16.29 10.98 16.54 10.92 16.79L10.27 19.39ZM18.19 19.19C18.29 19.44 18.1 19.7 17.83 19.7L14.1 19.7C13.92 19.7 13.76 19.57 13.71 19.39L13.06 16.79C13 16.54 13.19 16.29 13.45 16.29L13.85 16.29C15.77 16.29 17.47 17.46 18.19 19.19Z" fill="#717681" fill-opacity="1.000000" fill-rule="evenodd"/>
	</g>
</svg>
