<svg width="25.000000" height="24.000000" viewBox="0 0 25 24" fill="none" xmlns="http://www.w3.org/2000/svg" xmlns:xlink="http://www.w3.org/1999/xlink">
	<desc>
			Created with Pixso.
	</desc>
	<defs>
		<clipPath id="clip17_386">
			<rect id="Outline / Pickup Outline" width="24.119415" height="24.000000" fill="white" fill-opacity="0"/>
		</clipPath>
	</defs>
	<g clip-path="url(#clip17_386)">
		<path id="Shape" d="M6 5.13C6.37 5.01 6.76 5.23 6.85 5.61L9.21 16.23C9.65 18.22 11.64 19.46 13.63 18.99L19.31 17.65C19.66 17.57 19.88 17.21 19.79 16.87C19.71 16.52 19.36 16.3 19.01 16.38L13.33 17.72C12.05 18.03 10.77 17.23 10.48 15.94L8.12 5.32C7.87 4.2 6.69 3.53 5.59 3.9L4.41 4.29C4.06 4.4 3.88 4.77 3.99 5.11C4.11 5.45 4.48 5.64 4.82 5.52L6 5.13ZM7.52 20.5C8.35 20.5 9.03 19.82 9.03 19C9.03 18.17 8.35 17.5 7.52 17.5C6.69 17.5 6.02 18.17 6.02 19C6.02 19.82 6.69 20.5 7.52 20.5ZM9.82 6.52C9.65 5.79 10.12 5.07 10.85 4.91L15.01 4C15.74 3.84 16.46 4.3 16.62 5.03L18.54 13.66C18.7 14.39 18.24 15.11 17.51 15.27L13.35 16.18C12.62 16.34 11.89 15.88 11.73 15.16L9.82 6.52ZM11.13 6.18C11.1 6.19 11.09 6.22 11.09 6.24L11.9 9.89L16.16 8.95L15.35 5.31C15.34 5.28 15.31 5.26 15.29 5.27L11.13 6.18ZM16.44 10.22L12.18 11.16L13.01 14.88C13.02 14.9 13.04 14.92 13.07 14.91L17.23 14C17.25 13.99 17.27 13.97 17.26 13.94L16.44 10.22Z" fill="#717681" fill-opacity="1.000000" fill-rule="evenodd"/>
	</g>
</svg>
