<svg width="24.000000" height="24.000000" viewBox="0 0 24 24" fill="none" xmlns="http://www.w3.org/2000/svg" xmlns:xlink="http://www.w3.org/1999/xlink">
	<desc>
			Created with Pixso.
	</desc>
	<defs>
		<clipPath id="clip17_262">
			<rect id="Solid / Pin Solid" width="24.000000" height="24.000000" fill="white" fill-opacity="0"/>
		</clipPath>
	</defs>
	<g clip-path="url(#clip17_262)">
		<path id="Shape" d="M14.45 2.92C13.68 2.15 12.37 2.6 12.24 3.68L12.25 5.79L7.42 10.62L5.32 10.61C4.24 10.73 3.78 12.05 4.55 12.82L7.41 15.68L2.91 20.18C2.66 20.43 2.66 20.85 2.91 21.1C3.16 21.35 3.58 21.35 3.83 21.1L8.33 16.6L11.17 19.44C11.94 20.21 13.26 19.75 13.38 18.67L13.37 16.57L18.2 11.74L20.31 11.75C21.39 11.62 21.84 10.31 21.07 9.54L14.45 2.92Z" fill="#717681" fill-opacity="1.000000" fill-rule="nonzero"/>
	</g>
</svg>
