<svg width="24.000000" height="24.000000" viewBox="0 0 24 24" fill="none" xmlns="http://www.w3.org/2000/svg" xmlns:xlink="http://www.w3.org/1999/xlink">
	<desc>
			Created with Pixso.
	</desc>
	<defs>
		<clipPath id="clip17_407">
			<rect id="Solid / Plane Solid" width="24.000000" height="24.000000" fill="white" fill-opacity="0"/>
		</clipPath>
	</defs>
	<g clip-path="url(#clip17_407)">
		<path id="Shape" d="M21.15 5.24C20.09 4.06 18.45 4.18 17.28 5.24L12.96 9.13L7.43 6.38C6.6 5.96 5.59 6.1 4.9 6.72C3.97 7.56 3.9 9 4.75 9.92L8.05 13.56L4.89 16.41L3.46 14.98C3.18 14.7 2.73 14.7 2.45 14.98C2.17 15.26 2.17 15.71 2.45 15.99L3.88 17.43C3.97 17.53 4.07 17.63 4.17 17.72L4.18 17.73C4.2 17.75 4.21 17.76 4.23 17.78C6.38 19.73 9.23 19.41 11.43 17.43L20.6 9.13C21.77 8.07 22.21 6.41 21.15 5.24ZM13.35 17.41L14.66 18.85C15.5 19.77 16.93 19.85 17.86 19C18.55 18.38 18.79 17.39 18.45 16.52L17.4 13.74L13.35 17.41Z" fill="#717681" fill-opacity="1.000000" fill-rule="evenodd"/>
	</g>
</svg>
