<svg width="24.000000" height="24.000000" viewBox="0 0 24 24" fill="none" xmlns="http://www.w3.org/2000/svg" xmlns:xlink="http://www.w3.org/1999/xlink">
	<desc>
			Created with Pixso.
	</desc>
	<defs>
		<clipPath id="clip17_395">
			<rect id="Outline / Plane Outline" width="24.000000" height="24.000000" fill="white" fill-opacity="0"/>
		</clipPath>
	</defs>
	<g clip-path="url(#clip17_395)">
		<path id="Shape" d="M12.5 16.47L11.43 17.43C9.23 19.41 6.38 19.73 4.23 17.78C4.21 17.76 4.2 17.75 4.18 17.73L4.17 17.72C4.07 17.63 3.97 17.53 3.88 17.43L2.45 15.99C2.17 15.71 2.17 15.26 2.45 14.98C2.73 14.7 3.18 14.7 3.46 14.98L4.89 16.41L8.05 13.56L4.75 9.92C3.9 9 3.97 7.56 4.9 6.72C5.59 6.1 6.6 5.96 7.43 6.38L12.96 9.13L17.28 5.24C18.45 4.18 20.09 4.06 21.15 5.24C22.21 6.41 21.77 8.07 20.6 9.13L16.92 12.46L18.45 16.52C18.79 17.39 18.55 18.38 17.86 19C16.93 19.85 15.5 19.77 14.66 18.85L12.5 16.47ZM6.85 7.54L13.17 10.69L18.15 6.2C18.92 5.5 19.72 5.59 20.19 6.11C20.42 6.37 20.49 6.66 20.43 7C20.37 7.37 20.14 7.8 19.73 8.17L10.56 16.46C9.64 17.3 8.64 17.72 7.73 17.78C7.08 17.82 6.43 17.69 5.81 17.33L9.89 13.65L5.71 9.05C5.35 8.65 5.38 8.04 5.77 7.69C6.07 7.42 6.5 7.36 6.85 7.54ZM13.46 15.59L15.62 17.97C15.98 18.37 16.59 18.4 16.99 18.04C17.28 17.77 17.38 17.36 17.24 16.99L17.24 16.98L15.89 13.4L13.46 15.59Z" fill="#74767B" fill-opacity="1.000000" fill-rule="evenodd"/>
	</g>
</svg>
