<svg width="24" height="24" viewBox="0 0 24 24" fill="none" xmlns="http://www.w3.org/2000/svg">
<path fill-rule="evenodd" clip-rule="evenodd" d="M12.5003 16.4712L11.436 17.4341C9.23654 19.4186 6.38266 19.7326 4.23569 17.7816C4.21796 17.7669 4.20078 17.7513 4.18421 17.7347L4.17829 17.7287C4.07771 17.6348 3.9798 17.5366 3.8848 17.4341L2.45164 15.9957C2.17294 15.7159 2.17378 15.2632 2.45352 14.9845C2.73325 14.7058 3.18595 14.7067 3.46465 14.9864L4.89181 16.4189L8.05652 13.5635L4.75084 9.92802C3.90842 9.00155 3.9785 7.56709 4.90722 6.72716C5.59802 6.10241 6.60104 5.96471 7.43464 6.38018L12.9637 9.13591L17.2816 5.24005C18.453 4.18314 20.0993 4.06865 21.1562 5.24006C22.2131 6.41146 21.779 8.07899 20.6075 9.13591L16.9274 12.4656L18.4589 16.5271C18.7906 17.3974 18.5552 18.3821 17.8657 19.0083C16.9388 19.8502 15.5043 19.7793 14.665 18.85L12.5003 16.4712ZM6.85474 7.54367L13.1768 10.6946L18.1524 6.20525C18.9266 5.50679 19.729 5.5989 20.191 6.11092C20.4255 6.37086 20.4973 6.66505 20.4373 7.00477C20.3719 7.37489 20.1399 7.80688 19.7367 8.17071L10.5645 16.4695C9.64304 17.3007 8.64728 17.7262 7.73081 17.7865C7.08492 17.829 6.434 17.6944 5.81434 17.3374L9.89631 13.6544L5.71267 9.05344C5.35418 8.65919 5.384 8.04876 5.77921 7.69133C6.07318 7.42547 6.50001 7.36687 6.85474 7.54367ZM13.4643 15.599L15.6296 17.9786C15.9868 18.374 16.5972 18.4042 16.9917 18.046C17.2851 17.7795 17.3853 17.3605 17.2441 16.9901L17.2425 16.9858L15.8919 13.404L13.4643 15.599Z" fill="#717681"/>
</svg>
