<svg width="24.000000" height="24.000000" viewBox="0 0 24 24" fill="none" xmlns="http://www.w3.org/2000/svg" xmlns:xlink="http://www.w3.org/1999/xlink">
	<desc>
			Created with Pixso.
	</desc>
	<defs>
		<clipPath id="clip17_415">
			<rect id="Solid / Post Solid" width="24.000000" height="24.000000" fill="white" fill-opacity="0"/>
		</clipPath>
	</defs>
	<g>
		<path id="Shape" d="M2.39 5.96C2.39 5.6 2.68 5.31 3.04 5.31L13.64 5.31C14.69 5.31 15.54 6.16 15.54 7.21L16.29 7.21C17.51 7.21 18.61 7.94 19.08 9.07L20.24 11.88C20.39 12.25 20.47 12.64 20.47 13.04L20.47 14.78C20.47 15.51 19.89 16.09 19.16 16.09L4.78 16.09C4.07 16.09 3.48 15.51 3.48 14.79L3.48 11.26C3.48 10.84 3.83 10.49 4.26 10.49L5.39 10.49C5.75 10.49 6.04 10.2 6.04 9.84C6.04 9.49 5.75 9.2 5.39 9.2L4.13 9.2C3.77 9.2 3.48 8.91 3.48 8.55C3.48 8.19 3.77 7.9 4.13 7.9L7.33 7.9C7.69 7.9 7.98 7.61 7.98 7.26C7.98 6.9 7.69 6.61 7.33 6.61L3.04 6.61C2.68 6.61 2.39 6.32 2.39 5.96ZM15.45 9.2C15.45 8.81 15.77 8.49 16.16 8.49L16.65 8.49C17.18 8.49 17.66 8.81 17.86 9.3L18.66 11.23C18.86 11.69 18.51 12.2 18.01 12.2L16.16 12.2C15.77 12.2 15.45 11.89 15.45 11.5L15.45 9.2ZM9.27 18.24C9.27 19.07 8.6 19.74 7.77 19.74C6.94 19.74 6.27 19.07 6.27 18.24C6.27 17.41 6.94 16.74 7.77 16.74C8.6 16.74 9.27 17.41 9.27 18.24ZM16.12 19.74C16.95 19.74 17.62 19.07 17.62 18.24C17.62 17.41 16.95 16.74 16.12 16.74C15.29 16.74 14.62 17.41 14.62 18.24C14.62 19.07 15.29 19.74 16.12 19.74Z" fill="#717681" fill-opacity="1.000000" fill-rule="evenodd"/>
	</g>
</svg>
