<svg width="24.000000" height="24.000000" viewBox="0 0 24 24" fill="none" xmlns="http://www.w3.org/2000/svg" xmlns:xlink="http://www.w3.org/1999/xlink">
	<desc>
			Created with Pixso.
	</desc>
	<defs>
		<clipPath id="clip17_426">
			<rect id="Outline / Post automat Outline" width="24.000000" height="24.000000" fill="white" fill-opacity="0"/>
		</clipPath>
	</defs>
	<g>
		<path id="Shape" d="M4 7C4 5.34 5.34 4 7 4L17 4C18.65 4 20 5.34 20 7L20 18.7C20 19.41 19.41 20 18.7 20L5.29 20C4.58 20 4 19.41 4 18.7L4 7ZM10.64 5.3L7 5.3C6.06 5.3 5.29 6.06 5.29 7L5.29 8.21C5.29 8.6 5.61 8.91 6 8.91L10.64 8.91C11.03 8.91 11.35 8.6 11.35 8.21L11.35 6C11.35 5.61 11.03 5.3 10.64 5.3ZM13.35 5.3L17 5.3C17.93 5.3 18.7 6.06 18.7 7L18.7 18C18.7 18.38 18.38 18.7 18 18.7L13.35 18.7C12.96 18.7 12.64 18.38 12.64 18L12.64 6C12.64 5.61 12.96 5.3 13.35 5.3ZM5.29 10.91C5.29 10.52 5.61 10.21 6 10.21L10.64 10.21C11.03 10.21 11.35 10.52 11.35 10.91L11.35 13.13C11.35 13.51 11.03 13.83 10.64 13.83L6 13.83C5.61 13.83 5.29 13.51 5.29 13.13L5.29 10.91ZM13.94 11.39C13.94 11.01 14.26 10.69 14.64 10.69L16.65 10.69C17.04 10.69 17.35 11.01 17.35 11.39L17.35 12.6C17.35 12.98 17.04 13.3 16.65 13.3L14.64 13.3C14.26 13.3 13.94 12.98 13.94 12.6L13.94 11.39ZM5.29 18C5.29 18.38 5.61 18.7 6 18.7L10.64 18.7C11.03 18.7 11.35 18.38 11.35 18L11.35 15.83C11.35 15.44 11.03 15.13 10.64 15.13L6 15.13C5.61 15.13 5.29 15.44 5.29 15.83L5.29 18Z" fill="#717681" fill-opacity="1.000000" fill-rule="evenodd"/>
	</g>
</svg>
