<svg width="24" height="24" viewBox="0 0 24 24" fill="none" xmlns="http://www.w3.org/2000/svg">
<path d="M12.9521 5.52351C12.026 6.70193 9.33471 6.73105 8.54963 4.33939C8.48965 4.15667 8.63368 3.97834 8.82412 3.95162C9.55926 3.84846 9.94694 3.43487 10.4172 2.93323C10.5719 2.7681 10.7357 2.59343 10.9237 2.41714C10.9437 2.3976 10.9642 2.37863 10.9852 2.36025L11.0047 2.34253C11.258 2.12817 11.5777 2 11.9276 2C12.823 2 13.5189 2.84364 13.4178 3.80655L13.3298 4.64508C13.294 4.98593 13.1565 5.29024 12.9521 5.52351Z" fill="#717681"/>
<path fill-rule="evenodd" clip-rule="evenodd" d="M8.88708 10.9772L7.82605 17.6529C7.7971 17.8351 7.93787 18 8.12233 18H9.54736L9.54736 21.3501C9.54736 21.7091 9.83838 22.0001 10.1974 22.0001C10.5563 22.0001 10.8474 21.7091 10.8474 21.3501L10.8474 18H12.1458L12.1458 21.3501C12.1458 21.7091 12.4368 22.0001 12.7958 22.0001C13.1548 22.0001 13.4458 21.7091 13.4458 21.3501V18H14.7393C14.8428 18 14.939 17.9466 14.9938 17.8588L15.5592 16.9526C16.844 14.8934 16.0527 12.1747 13.8637 11.1265C13.7022 11.0492 13.6517 10.8437 13.7589 10.7003L13.7975 10.6487C14.4446 9.78315 14.4018 8.58387 13.6948 7.76661L13.4204 7.44944C13.1734 7.16402 12.8147 7 12.4372 7H11.4118C11.1141 7 10.8266 7.10856 10.6032 7.30533C9.67776 8.12045 9.0871 9.24953 8.94527 10.4746L8.88708 10.9772ZM10.1012 11.6202L9.29382 16.7H14.1845L14.4563 16.2644C15.3307 14.8629 14.7922 13.0124 13.3022 12.299C12.4018 11.8679 12.1199 10.7214 12.7177 9.92188L12.7563 9.87024C13.0376 9.49393 13.0191 8.9725 12.7116 8.61717L12.4372 8.3H11.554C10.8481 9.46404 10.9502 10.954 11.8221 12.0125L13.1051 13.5702C13.3334 13.8472 13.2937 14.2569 13.0167 14.4851C12.7396 14.7134 12.3299 14.6737 12.1017 14.3967L10.8187 12.839C10.511 12.4654 10.2715 12.0535 10.1012 11.6202Z" fill="#717681"/>
</svg>
