<svg width="24.000000" height="24.000000" viewBox="0 0 24 24" fill="none" xmlns="http://www.w3.org/2000/svg" xmlns:xlink="http://www.w3.org/1999/xlink">
	<desc>
			Created with Pixso.
	</desc>
	<defs>
		<clipPath id="clip17_544">
			<rect id="Solid / Pregnant Solid" width="24.000000" height="24.000000" fill="white" fill-opacity="0"/>
		</clipPath>
	</defs>
	<g clip-path="url(#clip17_544)">
		<path id="Shape" d="M8.94 10.47C9.01 9.85 9.2 9.25 9.49 8.71C9.32 10.22 9.83 11.78 10.96 12.92L12.46 14.44C12.71 14.69 13.12 14.69 13.38 14.44C13.64 14.19 13.64 13.78 13.38 13.52L11.88 12C10.61 10.72 10.43 8.69 11.37 7.17C11.44 7.06 11.56 7 11.69 7L12.43 7C12.81 7 13.17 7.16 13.42 7.44L13.69 7.76C14.4 8.58 14.44 9.78 13.79 10.64L13.75 10.7C13.65 10.84 13.7 11.04 13.86 11.12C16.05 12.17 16.84 14.89 15.55 16.95L14.99 17.85C14.93 17.94 14.84 18 14.73 18L13.86 18L13.86 21.35C13.86 21.7 13.57 22 13.21 22C12.85 22 12.56 21.7 12.56 21.35L12.56 18L11.27 18L11.27 21.35C11.27 21.7 10.98 22 10.62 22C10.26 22 9.97 21.7 9.97 21.35L9.97 18L8.12 18C7.93 18 7.79 17.83 7.82 17.65L8.88 10.97L8.94 10.47Z" fill="#74767B" fill-opacity="1.000000" fill-rule="nonzero"/>
		<path id="Shape" d="M12.95 5.52C12.02 6.7 9.33 6.73 8.54 4.33C8.48 4.15 8.63 3.97 8.82 3.95C9.55 3.84 9.94 3.43 10.41 2.93C10.57 2.76 10.73 2.59 10.92 2.41C10.94 2.39 10.96 2.37 10.98 2.36C10.99 2.35 10.99 2.34 11 2.34C11.25 2.12 11.57 2 11.92 2C12.82 2 13.51 2.84 13.41 3.8L13.32 4.64C13.29 4.98 13.15 5.29 12.95 5.52Z" fill="#74767B" fill-opacity="1.000000" fill-rule="nonzero"/>
	</g>
</svg>
