<svg width="24" height="24" viewBox="0 0 24 24" fill="none" xmlns="http://www.w3.org/2000/svg">
<path d="M14.2015 3.89405C14.4636 3.64876 14.4773 3.23743 14.232 2.97531C13.9867 2.7132 13.5754 2.69955 13.3132 2.94484L10.5632 5.51823C10.5517 5.52869 10.5405 5.53963 10.5296 5.55106C10.4419 5.6431 10.3865 5.75417 10.3631 5.87024C10.3546 5.91217 10.3501 5.95557 10.3501 6.00001C10.3501 6.19335 10.4345 6.36697 10.5685 6.48603L13.3088 9.09796C13.5687 9.34564 13.9801 9.33577 14.2278 9.07591C14.4755 8.81605 14.4656 8.40462 14.2058 8.15694L12.6247 6.65001H15.0001C16.298 6.65001 17.3501 7.70214 17.3501 9.00001V15C17.3501 15.0236 17.3514 15.0469 17.3538 15.0698C16.0075 15.3653 15 16.565 15 18C15 19.6569 16.3431 21 18 21C19.6569 21 21 19.6569 21 18C21 16.5651 19.9926 15.3654 18.6464 15.0698C18.6488 15.0469 18.6501 15.0236 18.6501 15V9.00001C18.6501 6.98417 17.0159 5.35001 15.0001 5.35001H12.6456L14.2015 3.89405Z" fill="#717681"/>
<path d="M3 6.00001C3 7.43501 4.00754 8.6347 5.3538 8.93024C5.35135 8.95316 5.3501 8.97644 5.3501 9.00001L5.3501 20.3591C5.3501 20.7181 5.64111 21.0091 6.0001 21.0091C6.35908 21.0091 6.6501 20.7181 6.6501 20.3591L6.6501 9.00001C6.6501 8.97643 6.64884 8.95313 6.64639 8.93019C7.99256 8.63458 9 7.43495 9 6.00001C9 4.34315 7.65685 3.00001 6 3.00001C4.34315 3.00001 3 4.34315 3 6.00001Z" fill="#717681"/>
</svg>
