<svg width="24.000000" height="24.000000" viewBox="0 0 24 24" fill="none" xmlns="http://www.w3.org/2000/svg" xmlns:xlink="http://www.w3.org/1999/xlink">
	<desc>
			Created with Pixso.
	</desc>
	<defs>
		<clipPath id="clip113192_1253">
			<rect id="Solid / Receipt Info Solid" width="24.000000" height="24.000000" fill="white" fill-opacity="0"/>
		</clipPath>
	</defs>
	<g clip-path="url(#clip113192_1253)">
		<path id="Shape" d="M8 3C6.34 3 5 4.34 5 6L5 19.37C5 20.28 5.73 21.01 6.64 21.01C6.96 21.01 7.27 20.92 7.54 20.75L9.04 19.76C9.29 19.6 9.61 19.61 9.84 19.79L10.97 20.64C11.25 20.86 11.59 20.97 11.92 20.99C12.36 21.01 12.5 20.5 12.3 20.11C11.9 19.33 11.68 18.44 11.68 17.5C11.68 14.29 14.27 11.7 17.48 11.7C17.69 11.7 17.89 11.71 18.1 11.73C18.56 11.78 19 11.44 19 10.98L19 6C19 4.34 17.65 3 16 3L8 3ZM8.66 6.99C8.3 6.99 8.01 7.28 8.01 7.64C8.01 8 8.3 8.29 8.66 8.29L15.36 8.29C15.72 8.29 16.01 8 16.01 7.64C16.01 7.28 15.72 6.99 15.36 6.99L8.66 6.99ZM8.01 10.65C8.01 10.3 8.3 10 8.66 10L11.87 10C12.23 10 12.52 10.3 12.52 10.65C12.52 11.01 12.23 11.3 11.87 11.3L8.66 11.3C8.3 11.3 8.01 11.01 8.01 10.65ZM17.5 15.59C17.86 15.59 18.15 15.3 18.15 14.94C18.15 14.59 17.86 14.29 17.5 14.29C17.14 14.29 16.85 14.59 16.85 14.94C16.85 15.3 17.14 15.59 17.5 15.59ZM20.66 14.31C22.42 16.07 22.42 18.92 20.66 20.68C18.9 22.43 16.05 22.43 14.29 20.68C12.54 18.92 12.54 16.07 14.29 14.31C16.05 12.56 18.9 12.56 20.66 14.31ZM17.5 16.87C17.86 16.87 18.15 17.16 18.15 17.52L18.15 19.99C18.15 20.35 17.86 20.64 17.5 20.64C17.14 20.64 16.85 20.35 16.85 19.99L16.85 17.52C16.85 17.16 17.14 16.87 17.5 16.87Z" fill="#717681" fill-opacity="1.000000" fill-rule="evenodd"/>
	</g>
</svg>
