<svg width="24.000000" height="24.000000" viewBox="0 0 24 24" fill="none" xmlns="http://www.w3.org/2000/svg" xmlns:xlink="http://www.w3.org/1999/xlink">
	<desc>
			Created with Pixso.
	</desc>
	<defs>
		<clipPath id="clip17_332">
			<rect id="Solid / Receipt Solid" width="24.000000" height="24.000000" fill="white" fill-opacity="0"/>
		</clipPath>
	</defs>
	<g >
		<path id="Shape" d="M7.45 20.74C6.39 21.41 5 20.65 5 19.39L5 5.59C5 4.16 6.17 3 7.6 3L16.39 3C17.83 3 19 4.16 19 5.59L18.99 19.39C18.99 20.65 17.61 21.41 16.54 20.75L14.87 19.71C14.66 19.59 14.39 19.6 14.2 19.74L12.91 20.69C12.34 21.1 11.58 21.1 11.01 20.69L9.73 19.75C9.54 19.6 9.27 19.59 9.06 19.72L7.45 20.74ZM8.64 7C8.28 7 7.99 7.29 7.99 7.65C7.99 8 8.28 8.3 8.64 8.3L15.34 8.3C15.7 8.3 15.99 8 15.99 7.65C15.99 7.29 15.7 7 15.34 7L8.64 7ZM7.99 10.65C7.99 10.29 8.28 10 8.64 10L15.34 10C15.7 10 15.99 10.29 15.99 10.65C15.99 11 15.7 11.3 15.34 11.3L8.64 11.3C8.28 11.3 7.99 11 7.99 10.65ZM7.99 13.65C7.99 13.29 8.28 13 8.64 13L11.84 13C12.2 13 12.49 13.29 12.49 13.65C12.49 14 12.2 14.3 11.84 14.3L8.64 14.3C8.28 14.3 7.99 14 7.99 13.65Z" fill="#74767B" fill-opacity="1.000000" fill-rule="evenodd"/>
	</g>
</svg>
