<svg width="24" height="24" viewBox="0 0 24 24" fill="none" xmlns="http://www.w3.org/2000/svg">
<path fill-rule="evenodd" clip-rule="evenodd" d="M8.0376 3C6.38074 3 5.0376 4.34315 5.0376 6V19.3762C5.0376 20.2835 5.7731 21.019 6.68038 21.019C6.99987 21.019 7.31242 20.9258 7.57978 20.7509L9.08055 19.769C9.32801 19.6071 9.65052 19.6182 9.88629 19.7967L11.0131 20.6497C11.1599 20.7608 11.3202 20.8451 11.4876 20.9025C11.9094 21.0471 12.1799 20.5772 12.0707 20.1448C11.9501 19.6672 11.886 19.1671 11.886 18.652C11.886 15.2964 14.6062 12.5762 17.9618 12.5762C18.0439 12.5762 18.1256 12.5778 18.207 12.5811C18.6425 12.5984 19.0376 12.2709 19.0376 11.835V6C19.0376 4.34315 17.6945 3 16.0376 3H8.0376ZM8.70615 6.9929C8.34717 6.9929 8.05615 7.28392 8.05615 7.6429C8.05615 8.00189 8.34717 8.2929 8.70615 8.2929H15.4062C15.7651 8.2929 16.0562 8.00189 16.0562 7.6429C16.0562 7.28392 15.7651 6.9929 15.4062 6.9929H8.70615ZM8.05615 10.6421C8.05615 10.2831 8.34717 9.99207 8.70615 9.99207H15.4062C15.7651 9.99207 16.0562 10.2831 16.0562 10.6421C16.0562 11.001 15.7651 11.2921 15.4062 11.2921H8.70615C8.34717 11.2921 8.05615 11.001 8.05615 10.6421ZM8.70615 12.9911C8.34717 12.9911 8.05615 13.2821 8.05615 13.6411C8.05615 14.0001 8.34717 14.2911 8.70615 14.2911H11.9131C12.2721 14.2911 12.5631 14.0001 12.5631 13.6411C12.5631 13.2821 12.2721 12.9911 11.9131 12.9911H8.70615Z" fill="#717681"/>
<path d="M15.7206 18.6101L16.2211 19.1017C16.4772 19.3533 16.8888 19.3496 17.1403 19.0935C17.3919 18.8374 17.3882 18.4258 17.1321 18.1743L15.554 16.6242C15.2979 16.3727 14.8863 16.3764 14.6348 16.6325L13.0847 18.2106C12.8332 18.4667 12.8368 18.8782 13.093 19.1298C13.3491 19.3813 13.7606 19.3776 14.0122 19.1215L14.4196 18.7067C14.6845 20.5761 16.2912 22.0137 18.2337 22.0137C20.3613 22.0137 22.0861 20.289 22.0861 18.1613C22.0861 16.0337 20.3613 14.3089 18.2337 14.3089C17.7922 14.3089 17.3667 14.3835 16.97 14.5212C16.6309 14.6389 16.4514 15.0092 16.5691 15.3484C16.6868 15.6875 17.0572 15.867 17.3963 15.7493C17.6578 15.6585 17.9393 15.6089 18.2337 15.6089C19.6433 15.6089 20.7861 16.7517 20.7861 18.1613C20.7861 19.571 19.6433 20.7137 18.2337 20.7137C16.9772 20.7137 15.9327 19.8058 15.7206 18.6101Z" fill="#717681"/>
</svg>
