<svg width="24.000000" height="24.000000" viewBox="0 0 24 24" fill="none" xmlns="http://www.w3.org/2000/svg" xmlns:xlink="http://www.w3.org/1999/xlink">
	<desc>
			Created with Pixso.
	</desc>
	<defs>
		<clipPath id="clip17_589">
			<rect id="Outline / Receipt Update Outline" width="24.000000" height="24.000000" fill="white" fill-opacity="0"/>
		</clipPath>
	</defs>
	<g >
		<path id="Shape" d="M8.74 18.41C9.2 18.11 9.8 18.13 10.24 18.46L10.62 18.75C10.78 18.87 10.88 19.06 10.88 19.27C10.88 19.8 10.25 20.1 9.82 19.78C9.6 19.61 9.3 19.6 9.06 19.75L7.54 20.75C7.27 20.92 6.96 21.01 6.64 21.01C5.73 21.01 5 20.28 5 19.37L5 6C5 4.34 6.34 3 8 3L16 3C17.65 3 19 4.34 19 6L19 10.64C19 11 18.7 11.29 18.35 11.29C17.99 11.29 17.7 11 17.7 10.64L17.7 6C17.7 5.06 16.93 4.3 16 4.3L8 4.3C7.06 4.3 6.29 5.06 6.29 6L6.29 19.37C6.29 19.56 6.45 19.71 6.64 19.71C6.7 19.71 6.77 19.69 6.83 19.66L8.74 18.41ZM8.01 7.64C8.01 7.28 8.3 6.99 8.66 6.99L15.36 6.99C15.72 6.99 16.01 7.28 16.01 7.64C16.01 8 15.72 8.29 15.36 8.29L8.66 8.29C8.3 8.29 8.01 8 8.01 7.64ZM8.66 9.99C8.3 9.99 8.01 10.28 8.01 10.64C8.01 11 8.3 11.29 8.66 11.29L15.36 11.29C15.72 11.29 16.01 11 16.01 10.64C16.01 10.28 15.72 9.99 15.36 9.99L8.66 9.99ZM8.66 12.99C8.3 12.99 8.01 13.28 8.01 13.64C8.01 14 8.3 14.29 8.66 14.29L11.87 14.29C12.23 14.29 12.52 14 12.52 13.64C12.52 13.28 12.23 12.99 11.87 12.99L8.66 12.99ZM15.27 18.57L14.42 17.74C14.52 19.4 15.9 20.71 17.58 20.71C19.33 20.71 20.74 19.29 20.74 17.54C20.74 15.79 19.33 14.38 17.58 14.38C17.21 14.38 16.86 14.44 16.54 14.55C16.2 14.67 15.83 14.49 15.71 14.15C15.59 13.81 15.77 13.44 16.11 13.32C16.57 13.16 17.07 13.08 17.58 13.08C20.04 13.08 22.04 15.08 22.04 17.54C22.04 20.01 20.04 22.01 17.58 22.01C15.24 22.01 13.32 20.21 13.13 17.92L12.46 18.6C12.21 18.86 11.8 18.86 11.54 18.61C11.28 18.36 11.28 17.95 11.53 17.69L13.38 15.81C13.63 15.55 14.04 15.55 14.3 15.8L16.18 17.65C16.43 17.9 16.44 18.31 16.19 18.57C15.93 18.82 15.52 18.83 15.27 18.57Z" fill="#74767B" fill-opacity="1.000000" fill-rule="evenodd"/>
	</g>
</svg>
