<svg width="24.000000" height="24.000000" viewBox="0 0 24 24" fill="none" xmlns="http://www.w3.org/2000/svg" xmlns:xlink="http://www.w3.org/1999/xlink">
	<desc>
			Created with Pixso.
	</desc>
	<defs>
		<clipPath id="clip113192_1251">
			<rect id="Solid / Receipt Favorites Solid" width="24.000000" height="24.000000" fill="white" fill-opacity="0"/>
		</clipPath>
	</defs>
	<g >
		<path id="Shape" d="M5 6C5 4.34 6.34 3 8 3L16 3C17.65 3 19 4.34 19 6L19 11.54C19 11.88 18.7 12.15 18.35 12.15C15.24 12.15 12.71 14.67 12.71 17.79C12.71 18.58 12.88 19.34 13.17 20.02C13.27 20.24 13.21 20.51 13.02 20.65C12.41 21.1 11.58 21.1 10.97 20.64L9.84 19.79C9.61 19.61 9.29 19.6 9.04 19.76L7.54 20.75C7.27 20.92 6.96 21.01 6.64 21.01C5.73 21.01 5 20.28 5 19.37L5 6ZM8.01 7.64C8.01 7.28 8.3 6.99 8.66 6.99L15.36 6.99C15.72 6.99 16.01 7.28 16.01 7.64C16.01 8 15.72 8.29 15.36 8.29L8.66 8.29C8.3 8.29 8.01 8 8.01 7.64ZM8.66 9.99C8.3 9.99 8.01 10.28 8.01 10.64C8.01 11 8.3 11.29 8.66 11.29L15.36 11.29C15.72 11.29 16.01 11 16.01 10.64C16.01 10.28 15.72 9.99 15.36 9.99L8.66 9.99ZM8.01 13.64C8.01 13.28 8.3 12.99 8.66 12.99L11.87 12.99C12.23 12.99 12.52 13.28 12.52 13.64C12.52 14 12.23 14.29 11.87 14.29L8.66 14.29C8.3 14.29 8.01 14 8.01 13.64ZM19.71 15.97L18.61 14.13C18.49 13.94 18.21 13.94 18.1 14.13L16.99 15.97L14.91 16.45C14.68 16.5 14.6 16.77 14.75 16.94L16.15 18.56L15.97 20.69C15.95 20.91 16.17 21.08 16.38 20.99L18.35 20.16L20.33 20.99C20.53 21.08 20.76 20.91 20.74 20.69L20.56 18.56L21.96 16.94C22.11 16.77 22.02 16.5 21.8 16.45L19.71 15.97Z" fill="#74767B" fill-opacity="1.000000" fill-rule="evenodd"/>
	</g>
</svg>
