<svg width="24.000000" height="24.000000" viewBox="0 0 24 24" fill="none" xmlns="http://www.w3.org/2000/svg" xmlns:xlink="http://www.w3.org/1999/xlink">
	<desc>
			Created with Pixso.
	</desc>
	<defs>
		<clipPath id="clip113192_1250">
			<rect id="Outline / Receipt Favorites Outline" width="24.000000" height="24.000000" fill="white" fill-opacity="0"/>
		</clipPath>
	</defs>
	<g clip-path="url(#clip113192_1250)">
		<path id="Shape" d="M10.24 18.46C9.8 18.13 9.2 18.11 8.74 18.41L6.83 19.66C6.77 19.69 6.7 19.71 6.64 19.71C6.45 19.71 6.29 19.56 6.29 19.37L6.29 6C6.29 5.06 7.06 4.3 8 4.3L16 4.3C16.93 4.3 17.7 5.06 17.7 6L17.7 12.04C17.7 12.4 17.99 12.69 18.35 12.69C18.7 12.69 19 12.4 19 12.04L19 6C19 4.34 17.65 3 16 3L8 3C6.34 3 5 4.34 5 6L5 19.37C5 20.28 5.73 21.01 6.64 21.01C6.96 21.01 7.27 20.92 7.54 20.75L9.45 19.49L10.97 20.64C11.58 21.1 12.41 21.1 13.02 20.65L13.96 19.94C14.22 19.74 14.3 19.39 14.14 19.1C13.95 18.76 13.5 18.66 13.18 18.9L12.24 19.61C12.09 19.72 11.9 19.72 11.76 19.61L10.24 18.46ZM8.01 7.64C8.01 7.28 8.3 6.99 8.66 6.99L15.36 6.99C15.72 6.99 16.01 7.28 16.01 7.64C16.01 8 15.72 8.29 15.36 8.29L8.66 8.29C8.3 8.29 8.01 8 8.01 7.64ZM8.66 9.99C8.3 9.99 8.01 10.28 8.01 10.64C8.01 11 8.3 11.29 8.66 11.29L15.36 11.29C15.72 11.29 16.01 11 16.01 10.64C16.01 10.28 15.72 9.99 15.36 9.99L8.66 9.99ZM8.66 12.99C8.3 12.99 8.01 13.28 8.01 13.64C8.01 14 8.3 14.29 8.66 14.29L11.87 14.29C12.23 14.29 12.52 14 12.52 13.64C12.52 13.28 12.23 12.99 11.87 12.99L8.66 12.99ZM18.61 14.13L19.71 15.97L21.8 16.45C22.02 16.5 22.11 16.77 21.96 16.94L20.56 18.56L20.74 20.69C20.76 20.91 20.53 21.08 20.33 20.99L18.35 20.16L16.38 20.99C16.17 21.08 15.95 20.91 15.96 20.69L16.15 18.56L14.75 16.94C14.6 16.77 14.68 16.5 14.91 16.45L16.99 15.97L18.1 14.13C18.21 13.94 18.49 13.94 18.61 14.13ZM19.89 17.34L18.88 17.11L18.35 16.22L17.82 17.11L16.82 17.34L17.49 18.12L17.4 19.15L18.35 18.74L19.3 19.15L19.21 18.12L19.89 17.34Z" fill="#717681" fill-opacity="1.000000" fill-rule="evenodd"/>
	</g>
</svg>
