<svg width="24.000000" height="24.000000" viewBox="0 0 24 24" fill="none" xmlns="http://www.w3.org/2000/svg" xmlns:xlink="http://www.w3.org/1999/xlink">
	<desc>
			Created with Pixso.
	</desc>
	<defs>
		<clipPath id="clip113192_1252">
			<rect id="Outline / Receipt Info Outline" width="24.000000" height="24.000000" fill="white" fill-opacity="0"/>
		</clipPath>
	</defs>
	<g clip-path="url(#clip113192_1252)">
		<path id="Shape" d="M10.22 18.46C9.78 18.13 9.18 18.11 8.72 18.41L6.81 19.66C6.75 19.69 6.69 19.71 6.62 19.71C6.43 19.71 6.28 19.56 6.28 19.37L6.28 6C6.28 5.06 7.04 4.3 7.98 4.3L15.98 4.3C16.92 4.3 17.68 5.06 17.68 6L17.68 9.99C17.68 10.35 17.97 10.64 18.33 10.64C18.69 10.64 18.98 10.35 18.98 9.99L18.98 6C18.98 4.34 17.63 3 15.98 3L7.98 3C6.32 3 4.98 4.34 4.98 6L4.98 19.37C4.98 20.28 5.71 21.01 6.62 21.01C6.94 21.01 7.25 20.92 7.52 20.75L9.04 19.75C9.28 19.6 9.58 19.61 9.81 19.78C10.23 20.1 10.86 19.8 10.86 19.27C10.86 19.06 10.76 18.87 10.6 18.75L10.22 18.46ZM8.01 7.64C8.01 7.28 8.3 6.99 8.66 6.99L15.36 6.99C15.72 6.99 16.01 7.28 16.01 7.64C16.01 8 15.72 8.29 15.36 8.29L8.66 8.29C8.3 8.29 8.01 8 8.01 7.64ZM8.66 9.99C8.3 9.99 8.01 10.28 8.01 10.64C8.01 11 8.3 11.29 8.66 11.29L11.87 11.29C12.23 11.29 12.52 11 12.52 10.64C12.52 10.28 12.23 9.99 11.87 9.99L8.66 9.99ZM13.46 13.48C15.41 11.53 18.57 11.53 20.51 13.48C22.46 15.43 22.46 18.58 20.51 20.53C18.57 22.48 15.41 22.48 13.46 20.53C11.51 18.58 11.51 15.43 13.46 13.48ZM19.6 14.4C18.15 12.96 15.82 12.96 14.38 14.4C12.94 15.84 12.94 18.17 14.38 19.61C15.82 21.05 18.15 21.05 19.6 19.61C21.04 18.17 21.04 15.84 19.6 14.4ZM17.64 15.23C17.64 15.59 17.35 15.88 16.99 15.88C16.63 15.88 16.34 15.59 16.34 15.23C16.34 14.87 16.63 14.58 16.99 14.58C17.35 14.58 17.64 14.87 17.64 15.23ZM16.99 17.18C17.35 17.18 17.64 17.47 17.64 17.83L17.64 18.76C17.64 19.12 17.35 19.41 16.99 19.41C16.63 19.41 16.34 19.12 16.34 18.76L16.34 17.83C16.34 17.47 16.63 17.18 16.99 17.18Z" fill="#74767B" fill-opacity="1.000000" fill-rule="evenodd"/>
	</g>
</svg>
