<svg width="24.000000" height="24.000000" viewBox="0 0 24 24" fill="none" xmlns="http://www.w3.org/2000/svg" xmlns:xlink="http://www.w3.org/1999/xlink">
	<desc>
			Created with Pixso.
	</desc>
	<defs>
		<clipPath id="clip119387_784">
			<rect id="Outline / Reliz Outline" width="24.000000" height="24.000000" fill="white" fill-opacity="0"/>
		</clipPath>
	</defs>
	<g clip-path="url(#clip119387_784)">
		<path id="Shape" d="M6.66 6.03C6.66 4.38 8 3.03 9.66 3.03L14.33 3.03C15.99 3.03 17.33 4.38 17.33 6.03L17.33 10.71C17.33 12.36 15.99 13.71 14.33 13.71L9.66 13.71C8 13.71 6.66 12.36 6.66 10.71L6.66 6.03ZM13 4.33L14.33 4.33C15.27 4.33 16.03 5.09 16.03 6.03L16.03 10.71C16.03 11.65 15.27 12.41 14.33 12.41L9.66 12.41C8.72 12.41 7.96 11.65 7.96 10.71L7.96 6.03C7.96 5.09 8.72 4.33 9.66 4.33L11 4.33L11 6.24C11 6.79 11.44 7.24 12 7.24C12.55 7.24 13 6.79 13 6.24L13 4.33ZM3 18C3 19.66 4.33 21 5.99 21L18 21C19.66 21 21 19.66 21 18C21 16.35 19.66 15.01 18 15.01L5.99 15.01C4.33 15.01 3 16.35 3 18ZM5.99 16.31C5.05 16.31 4.3 17.07 4.3 18C4.3 18.94 5.05 19.7 5.99 19.7C6.92 19.7 7.68 18.94 7.68 18C7.68 17.07 6.92 16.31 5.99 16.31ZM15.54 16.31L8.45 16.31C8.78 16.8 8.98 17.38 8.98 18C8.98 18.63 8.78 19.21 8.45 19.7L15.54 19.7C15.21 19.21 15.01 18.63 15.01 18C15.01 17.38 15.21 16.8 15.54 16.31ZM18 16.31C17.07 16.31 16.31 17.07 16.31 18C16.31 18.94 17.07 19.7 18 19.7C18.94 19.7 19.7 18.94 19.7 18C19.7 17.07 18.94 16.31 18 16.31Z" fill="#74767B" fill-opacity="1.000000" fill-rule="evenodd"/>
	</g>
</svg>
