<svg width="24.000000" height="24.000000" viewBox="0 0 24 24" fill="none" xmlns="http://www.w3.org/2000/svg" xmlns:xlink="http://www.w3.org/1999/xlink">
	<desc>
			Created with Pixso.
	</desc>
	<defs>
		<clipPath id="clip110074_1515">
			<rect id="Solid / RIP Solid" width="24.000000" height="24.000000" fill="white" fill-opacity="0"/>
		</clipPath>
	</defs>
	<g >
		<path id="Shape" d="M12 4C8.13 4 5 7.13 5 10.99L5 18.7L3.64 18.7C3.29 18.7 3 18.99 3 19.35C3 19.7 3.29 20 3.64 20L20.35 20C20.7 20 21 19.7 21 19.35C21 18.99 20.7 18.7 20.35 18.7L19 18.7L19 10.99C19 7.13 15.86 4 12 4ZM11.35 15C11.35 15.36 11.64 15.65 12 15.65C12.35 15.65 12.65 15.36 12.65 15L12.65 11.29L13.99 11.29C14.35 11.29 14.64 11 14.64 10.64C14.64 10.28 14.35 9.99 13.99 9.99L12.65 9.99L12.65 8.65C12.65 8.29 12.35 8 12 8C11.64 8 11.35 8.29 11.35 8.65L11.35 9.99L10.02 9.99C9.66 9.99 9.37 10.28 9.37 10.64C9.37 11 9.66 11.29 10.02 11.29L11.35 11.29L11.35 15Z" fill="#74767B" fill-opacity="1.000000" fill-rule="evenodd"/>
	</g>
</svg>
