<svg width="24.000000" height="24.000000" viewBox="0 0 24 24" fill="none" xmlns="http://www.w3.org/2000/svg" xmlns:xlink="http://www.w3.org/1999/xlink">
	<desc>
			Created with Pixso.
	</desc>
	<defs>
		<clipPath id="clip110074_1516">
			<rect id="Outline / RIP Outline" width="24.000000" height="24.000000" fill="white" fill-opacity="0"/>
		</clipPath>
	</defs>
	<g clip-path="url(#clip110074_1516)">
		<path id="Shape" d="M11.99 4C8.12 4 4.99 7.13 4.99 11L4.99 18.7L3.64 18.7C3.29 18.7 3 18.99 3 19.35C3 19.7 3.29 20 3.64 20L20.35 20C20.7 20 21 19.7 21 19.35C21 18.99 20.7 18.7 20.35 18.7L18.99 18.7L18.99 11C18.99 7.13 15.85 4 11.99 4ZM17.69 18.69L17.69 11C17.69 7.85 15.14 5.29 11.99 5.29C8.84 5.29 6.29 7.85 6.29 11L6.29 18.69L17.69 18.69ZM11.34 15C11.34 15.36 11.63 15.65 11.99 15.65C12.35 15.65 12.64 15.36 12.64 15L12.64 11.29L13.98 11.29C14.34 11.29 14.63 11 14.63 10.64C14.63 10.28 14.34 9.99 13.98 9.99L12.64 9.99L12.64 8.65C12.64 8.29 12.35 8 11.99 8C11.63 8 11.34 8.29 11.34 8.65L11.34 9.99L10.01 9.99C9.65 9.99 9.36 10.28 9.36 10.64C9.36 11 9.65 11.29 10.01 11.29L11.34 11.29L11.34 15Z" fill="#717681" fill-opacity="1.000000" fill-rule="evenodd"/>
	</g>
</svg>
