<svg viewBox="0 0 24 24" xmlns="http://www.w3.org/2000/svg" xmlns:xlink="http://www.w3.org/1999/xlink" width="24.000000" height="24.000000" fill="none">
	<rect id="Outline/RIP Outline" width="24.000000" height="24.000000" x="0.000000" y="0.000000" />
	<path id="Shape" d="M11.9934 4C8.12737 4 4.99336 7.13401 4.99336 11L4.99336 18.7002L3.65 18.7002C3.29101 18.7002 3 18.9912 3 19.3502C3 19.7092 3.29101 20.0002 3.65 20.0002L20.35 20.0002C20.709 20.0002 21 19.7092 21 19.3502C21 18.9912 20.709 18.7002 20.35 18.7002L18.9934 18.7002L18.9934 11C18.9934 7.13401 15.8594 4 11.9934 4ZM17.6934 18.6948L17.6934 11C17.6934 7.85198 15.1414 5.3 11.9934 5.3C8.84534 5.3 6.29336 7.85198 6.29336 11L6.29336 18.6948L17.6934 18.6948ZM11.9933 15.654C11.6343 15.654 11.3433 15.363 11.3433 15.004L11.3433 11.298L10.0152 11.298C9.65625 11.298 9.36523 11.007 9.36523 10.648C9.36523 10.289 9.65625 9.99798 10.0152 9.99798L11.3433 9.99798L11.3433 8.65115C11.3433 8.29217 11.6343 8.00115 11.9933 8.00115C12.3522 8.00115 12.6433 8.29217 12.6433 8.65115L12.6433 9.99798L13.9849 9.99798C14.3439 9.99798 14.6349 10.289 14.6349 10.648C14.6349 11.007 14.3439 11.298 13.9849 11.298L12.6433 11.298L12.6433 15.004C12.6433 15.363 12.3522 15.654 11.9933 15.654Z" fill="rgb(116,118,123)" fill-rule="evenodd" />
</svg>
