<svg width="24.000000" height="24.000000" viewBox="0 0 24 24" fill="none" xmlns="http://www.w3.org/2000/svg" xmlns:xlink="http://www.w3.org/1999/xlink">
	<desc>
			Created with Pixso.
	</desc>
	<defs>
		<clipPath id="clip125508_740">
			<rect id="Outline / Robot Outline" width="24.000000" height="24.000000" fill="white" fill-opacity="0"/>
		</clipPath>
	</defs>
	<g clip-path="url(#clip125508_740)">
		<path id="Shape" d="M11.36 4L11.36 2.64C11.36 2.29 11.65 1.99 12.01 1.99C12.37 1.99 12.66 2.29 12.66 2.64L12.66 4L17 4C18.65 4 20 5.34 20 7L20 10.99L21.34 10.99C21.7 10.99 22 11.29 22 11.64C22 12 21.7 12.29 21.34 12.29L20 12.29L20 17C20 18.65 18.65 20 17 20L7 20C5.34 20 4 18.65 4 17L4 12.29L2.64 12.29C2.29 12.29 1.99 12 1.99 11.64C1.99 11.29 2.29 10.99 2.64 10.99L4 10.99L4 7C4 5.34 5.34 4 7 4L11.36 4ZM15.01 10.11C15.01 9.7 14.67 9.36 14.26 9.36C13.85 9.36 13.51 9.7 13.51 10.11C13.51 10.53 13.85 10.86 14.26 10.86C14.67 10.86 15.01 10.53 15.01 10.11ZM9.22 14.62C8.87 14.62 8.57 14.33 8.57 13.97C8.57 13.61 8.87 13.32 9.22 13.32L14.8 13.32C15.16 13.32 15.45 13.61 15.45 13.97C15.45 14.33 15.16 14.62 14.8 14.62L9.22 14.62ZM10.51 10.11C10.51 9.7 10.17 9.36 9.76 9.36C9.35 9.36 9.01 9.7 9.01 10.11C9.01 10.53 9.35 10.86 9.76 10.86C10.17 10.86 10.51 10.53 10.51 10.11ZM17 5.29L7 5.29C6.06 5.29 5.3 6.06 5.3 7L5.3 17C5.3 17.93 6.06 18.7 7 18.7L17 18.7C17.93 18.7 18.7 17.93 18.7 17L18.7 7C18.7 6.06 17.93 5.29 17 5.29Z" fill="#717681" fill-opacity="1.000000" fill-rule="evenodd"/>
	</g>
</svg>
