<svg width="24.000000" height="24.000000" viewBox="0 0 24 24" fill="none" xmlns="http://www.w3.org/2000/svg" xmlns:xlink="http://www.w3.org/1999/xlink">
	<desc>
			Created with Pixso.
	</desc>
	<defs>
		<clipPath id="clip119372_760">
			<rect id="Solid / Service Request Solid" width="24.000000" height="24.000000" fill="white" fill-opacity="0"/>
		</clipPath>
	</defs>
	<g clip-path="url(#clip119372_760)">
		<path id="Shape" d="M4 8C4 6.34 5.34 5 7 5L17 5C18.65 5 20 6.34 20 8L20 14C20 15.65 18.65 17 17 17L9.52 17L6.11 19.72C5.26 20.4 4 19.8 4 18.71L4 8ZM12.85 13.94C12.85 14.41 12.46 14.79 12 14.79C11.53 14.79 11.14 14.41 11.14 13.94C11.14 13.47 11.53 13.09 12 13.09C12.46 13.09 12.85 13.47 12.85 13.94ZM11.1 7.16C10.74 7.16 10.45 7.45 10.45 7.81C10.45 8.17 10.74 8.46 11.1 8.46L12.99 8.46C13.25 8.46 13.47 8.68 13.47 8.95C13.47 9.17 13.28 9.46 12.9 9.61C12.38 9.81 11.69 10.2 11.35 10.92C11.19 11.24 11.33 11.63 11.65 11.79C11.97 11.94 12.36 11.81 12.52 11.48C12.65 11.2 12.97 10.98 13.37 10.82C14.07 10.54 14.77 9.87 14.77 8.95C14.77 7.96 13.97 7.16 12.99 7.16L11.1 7.16Z" fill="#717681" fill-opacity="1.000000" fill-rule="evenodd"/>
	</g>
</svg>
