<svg viewBox="0 0 24 24" xmlns="http://www.w3.org/2000/svg" xmlns:xlink="http://www.w3.org/1999/xlink" width="24.000000" height="24.000000" fill="none">
	<rect id="Solid/Shop cart Solid" width="24.000000" height="24.000000" x="0.000000" y="0.000000" />
	<path id="Shape" d="M2.3501 3.99998C2.3501 3.64099 2.64111 3.34998 3.0001 3.34998L3.93854 3.34998C5.15454 3.34998 6.2145 4.17756 6.50942 5.35726L7.0076 7.34998L20.0001 7.34998C20.2069 7.34998 20.4013 7.44836 20.5238 7.61496C20.6463 7.78156 20.6822 7.99649 20.6205 8.19385L18.5591 14.7904C18.2134 15.8967 17.1888 16.65 16.0297 16.65L10.0617 16.65C8.84565 16.65 7.7857 15.8224 7.49077 14.6427L5.24824 5.67255C5.09799 5.07158 4.55802 4.64998 3.93854 4.64998L3.0001 4.64998C2.64111 4.64998 2.3501 4.35896 2.3501 3.99998ZM7.3501 19C7.3501 18.0887 8.08883 17.35 9.0001 17.35C9.91137 17.35 10.6501 18.0887 10.6501 19C10.6501 19.9112 9.91137 20.65 9.0001 20.65C8.08883 20.65 7.3501 19.9112 7.3501 19ZM17.0001 17.35C16.0888 17.35 15.3501 18.0887 15.3501 19C15.3501 19.9112 16.0888 20.65 17.0001 20.65C17.9114 20.65 18.6501 19.9112 18.6501 19C18.6501 18.0887 17.9114 17.35 17.0001 17.35Z" fill="rgb(116,118,123)" fill-rule="evenodd" />
</svg>
