<svg width="24" height="24" viewBox="0 0 24 24" fill="none" xmlns="http://www.w3.org/2000/svg">
<path d="M3.0001 3.35C2.64111 3.35 2.3501 3.64101 2.3501 4C2.3501 4.35898 2.64111 4.65 3.0001 4.65H3.93854C4.55802 4.65 5.09799 5.0716 5.24824 5.67258L7.49077 14.6427C7.7857 15.8224 8.84565 16.65 10.0617 16.65H16.0297C17.1888 16.65 18.2134 15.8967 18.5591 14.7904L20.6205 8.19388C20.6822 7.99651 20.6463 7.78158 20.5238 7.61498C20.4013 7.44838 20.2069 7.35 20.0001 7.35H7.0076L6.50942 5.35728C6.2145 4.17759 5.15454 3.35 3.93854 3.35H3.0001Z" fill="#717681"/>
<path d="M7.3501 19C7.3501 18.0887 8.08883 17.35 9.0001 17.35C9.91137 17.35 10.6501 18.0887 10.6501 19C10.6501 19.9113 9.91137 20.65 9.0001 20.65C8.08883 20.65 7.3501 19.9113 7.3501 19Z" fill="#717681"/>
<path d="M15.3501 19C15.3501 18.0887 16.0888 17.35 17.0001 17.35C17.9114 17.35 18.6501 18.0887 18.6501 19C18.6501 19.9113 17.9114 20.65 17.0001 20.65C16.0888 20.65 15.3501 19.9113 15.3501 19Z" fill="#717681"/>
</svg>
