<svg width="24.000000" height="24.000000" viewBox="0 0 24 24" fill="none" xmlns="http://www.w3.org/2000/svg" xmlns:xlink="http://www.w3.org/1999/xlink">
	<desc>
			Created with Pixso.
	</desc>
	<defs>
		<clipPath id="clip17_469">
			<rect id="Outline / Show Table Outline" width="24.000000" height="24.000000" fill="white" fill-opacity="0"/>
		</clipPath>
	</defs>
	<g>
		<path id="Shape" d="M3 7C3 5.34 4.34 4 6 4L18 4C19.65 4 21 5.34 21 7L21 17C21 18.65 19.65 20 18 20L6 20C4.34 20 3 18.65 3 17L3 7ZM6 5.29L18 5.29C18.93 5.29 19.7 6.06 19.7 7L19.7 8.34L4.29 8.34L4.29 7C4.29 6.06 5.06 5.29 6 5.29ZM4.29 9.64L8.56 9.64L8.56 18.7L6 18.7C5.06 18.7 4.29 17.93 4.29 17L4.29 9.64ZM9.86 18.7L9.86 9.64L14.13 9.64L14.13 18.7L9.86 18.7ZM15.43 18.7L18 18.7C18.93 18.7 19.7 17.93 19.7 17L19.7 9.64L15.43 9.64L15.43 18.7Z" fill="#717681" fill-opacity="1.000000" fill-rule="evenodd"/>
	</g>
</svg>
