<svg width="24.000000" height="24.000000" viewBox="0 0 24 24" fill="none" xmlns="http://www.w3.org/2000/svg" xmlns:xlink="http://www.w3.org/1999/xlink">
	<desc>
			Created with Pixso.
	</desc>
	<defs>
		<clipPath id="clip17_472">
			<rect id="Solid / Show Table Solid" width="24.000000" height="24.000000" fill="white" fill-opacity="0"/>
		</clipPath>
	</defs>
	<g clip-path="url(#clip17_472)">
		<path id="Shape" d="M3 7C3 5.34 4.34 4 6 4L18 4C19.65 4 21 5.34 21 7L21 7.64C21 8.03 20.68 8.35 20.29 8.35L3.7 8.35C3.31 8.35 3 8.03 3 7.64L3 7ZM7.85 9.64L3.7 9.64C3.31 9.64 3 9.96 3 10.35L3 17C3 18.65 4.34 20 6 20L7.85 20C8.23 20 8.54 19.68 8.54 19.29L8.54 10.35C8.54 9.96 8.23 9.64 7.85 9.64ZM10.54 9.64L13.45 9.64C13.83 9.64 14.14 9.96 14.14 10.35L14.14 19.29C14.14 19.68 13.83 20 13.45 20L10.54 20C10.16 20 9.85 19.68 9.85 19.29L9.85 10.35C9.85 9.96 10.16 9.64 10.54 9.64ZM15.45 10.35L15.45 19.29C15.45 19.68 15.76 20 16.14 20L18 20C19.65 20 21 18.65 21 17L21 10.35C21 9.96 20.68 9.64 20.29 9.64L16.14 9.64C15.76 9.64 15.45 9.96 15.45 10.35Z" fill="#717681" fill-opacity="1.000000" fill-rule="evenodd"/>
	</g>
</svg>
