<svg width="24.000000" height="24.000000" viewBox="0 0 24 24" fill="none" xmlns="http://www.w3.org/2000/svg" xmlns:xlink="http://www.w3.org/1999/xlink">
	<desc>
			Created with Pixso.
	</desc>
	<defs>
		<clipPath id="clip9606_1070">
			<rect id="Solid / Source Solid" width="24.000000" height="24.000000" fill="white" fill-opacity="0"/>
		</clipPath>
	</defs>
	<g >
		<path id="Shape" d="M2 5C2 3.34 3.34 2 5 2L19 2C20.65 2 22 3.34 22 5L22 19C22 20.65 20.65 22 19 22L5 22C3.34 22 2 20.65 2 19L2 5ZM15.33 16.28C15.15 16.28 14.98 16.21 14.85 16.07C14.61 15.8 14.63 15.39 14.89 15.15L18.39 12.01L14.9 8.99C14.63 8.75 14.62 8.34 14.86 8.07C15.1 7.81 15.51 7.79 15.78 8.03L19.76 11.49C20.07 11.77 20.07 12.25 19.76 12.53L15.77 16.11C15.64 16.23 15.49 16.28 15.33 16.28ZM9.17 7.99C9.04 7.85 8.87 7.78 8.69 7.78C8.53 7.78 8.38 7.83 8.25 7.95L4.27 11.54C3.96 11.82 3.96 12.3 4.27 12.58L8.25 16.04C8.52 16.28 8.93 16.26 9.17 16C9.41 15.73 9.4 15.32 9.13 15.08L5.64 12.06L9.13 8.91C9.39 8.67 9.41 8.26 9.17 7.99Z" fill="#74767B" fill-opacity="1.000000" fill-rule="evenodd"/>
	</g>
</svg>
