<svg width="24.000000" height="24.000000" viewBox="0 0 24 24" fill="none" xmlns="http://www.w3.org/2000/svg" xmlns:xlink="http://www.w3.org/1999/xlink">
	<desc>
			Created with Pixso.
	</desc>
	<defs>
		<clipPath id="clip17_293">
			<rect id="Solid / Study Solid" width="24.000000" height="24.000000" fill="white" fill-opacity="0"/>
		</clipPath>
	</defs>
	<g >
		<path id="Shape" d="M2.7 7.93C1.77 8.42 1.78 9.76 2.71 10.24L10.63 14.29C11.49 14.73 12.5 14.73 13.36 14.29L20.7 10.53L20.72 15.34C20.72 15.7 21.01 15.99 21.37 15.99C21.73 15.99 22.02 15.7 22.02 15.34L22 9.04C22 8.97 21.98 8.91 21.96 8.84C21.9 8.48 21.67 8.13 21.29 7.93L13.4 3.74C12.52 3.27 11.47 3.27 10.59 3.74L2.7 7.93ZM5.76 13.26C5.56 13.16 5.32 13.3 5.32 13.53L5.32 15.86C5.32 16.76 5.73 17.62 6.42 18.2C9.63 20.89 14.32 20.89 17.53 18.2C18.22 17.62 18.62 16.76 18.62 15.86L18.62 13.55C18.62 13.32 18.39 13.18 18.19 13.28L13.96 15.45C12.73 16.08 11.26 16.08 10.03 15.45L5.76 13.26Z" fill="#74767B" fill-opacity="1.000000" fill-rule="evenodd"/>
	</g>
</svg>
