<svg width="24.000000" height="24.000000" viewBox="0 0 24 24" fill="none" xmlns="http://www.w3.org/2000/svg" xmlns:xlink="http://www.w3.org/1999/xlink">
	<desc>
			Created with Pixso.
	</desc>
	<defs>
		<clipPath id="clip17_253">
			<rect id="Solid / Tablet Solid" width="24.000000" height="24.000000" fill="white" fill-opacity="0"/>
		</clipPath>
	</defs>
	<g clip-path="url(#clip17_253)">
		<path id="Shape" d="M16 3C17.65 3 19 4.34 19 6L19 18C19 19.65 17.65 21 16 21L8 21C6.34 21 5 19.65 5 18L5 6C5 4.34 6.34 3 8 3L16 3ZM17.67 18.29L6.32 18.29C6.46 19.09 7.16 19.7 8 19.7L16 19.7C16.83 19.7 17.53 19.09 17.67 18.29ZM16 4.29C16.83 4.29 17.53 4.9 17.67 5.69L6.32 5.69C6.46 4.9 7.16 4.29 8 4.29L16 4.29Z" fill="#717681" fill-opacity="1.000000" fill-rule="evenodd"/>
	</g>
</svg>
