<svg viewBox="0 0 24 24" xmlns="http://www.w3.org/2000/svg" xmlns:xlink="http://www.w3.org/1999/xlink" width="24.000000" height="24.000000" fill="none">
	<rect id="Solid/Tablet Solid" width="24.000000" height="24.000000" x="0.000000" y="0.000000" />
	<path id="Shape" d="M16 3C17.6569 3 19 4.34315 19 6L19 18C19 19.6569 17.6569 21 16 21L8 21C6.34315 21 5 19.6569 5 18L5 6C5 4.34315 6.34315 3 8 3L16 3ZM17.6736 18.3L6.32639 18.3C6.46808 19.0958 7.16348 19.7 8 19.7L16 19.7C16.8365 19.7 17.5319 19.0958 17.6736 18.3ZM16 4.3C16.8365 4.3 17.5319 4.90417 17.6736 5.69995L6.3264 5.69995C6.46811 4.90417 7.1635 4.3 8 4.3L16 4.3Z" fill="rgb(116,118,123)" fill-rule="evenodd" />
</svg>
