<svg width="24.000000" height="24.000000" viewBox="0 0 24 24" fill="none" xmlns="http://www.w3.org/2000/svg" xmlns:xlink="http://www.w3.org/1999/xlink">
	<desc>
			Created with Pixso.
	</desc>
	<defs>
		<clipPath id="clip106725_864">
			<rect id="Solid / Tester AT Solid" width="24.000000" height="24.000000" fill="white" fill-opacity="0"/>
		</clipPath>
	</defs>
	<g>
		<path id="Shape" d="M20 13.14C20 13.39 19.72 13.53 19.51 13.42C18.9 13.11 18.2 12.94 17.47 12.94C16.8 12.94 16.16 13.08 15.59 13.34L12.59 7.3C12.47 7.07 12.24 6.93 11.99 6.94C11.75 6.93 11.52 7.07 11.4 7.3L7.03 16.11C6.87 16.44 7 16.83 7.32 16.99C7.64 17.14 8.03 17.01 8.19 16.69L9.24 14.57L13.99 14.57C13.33 15.35 12.94 16.36 12.94 17.47C12.94 18.2 13.11 18.9 13.42 19.51C13.53 19.72 13.38 20 13.14 20L7 20C5.34 20 4 18.65 4 17L4 7C4 5.34 5.34 4 7 4L17 4C18.65 4 20 5.34 20 7L20 13.14ZM9.89 13.27L11.99 9.02L14.1 13.27L9.89 13.27ZM20.16 19.24L21.8 20.88C22.05 21.13 22.05 21.54 21.8 21.8C21.55 22.05 21.13 22.05 20.88 21.8L19.24 20.16C18.73 20.5 18.12 20.7 17.47 20.7C15.68 20.7 14.24 19.25 14.24 17.47C14.24 15.69 15.68 14.24 17.47 14.24C19.25 14.24 20.69 15.69 20.69 17.47C20.69 18.12 20.5 18.73 20.16 19.24ZM15.54 17.47C15.54 18.53 16.4 19.4 17.47 19.4C18.53 19.4 19.39 18.53 19.39 17.47C19.39 16.41 18.53 15.54 17.47 15.54C16.4 15.54 15.54 16.41 15.54 17.47Z" fill="#717681" fill-opacity="1.000000" fill-rule="evenodd"/>
	</g>
</svg>
