<svg width="24.000000" height="24.000000" viewBox="0 0 24 24" fill="none" xmlns="http://www.w3.org/2000/svg" xmlns:xlink="http://www.w3.org/1999/xlink">
	<desc>
			Created with Pixso.
	</desc>
	<defs>
		<clipPath id="clip106725_941">
			<rect id="Solid / Tester Solid" width="24.000000" height="24.000000" fill="white" fill-opacity="0"/>
		</clipPath>
	</defs>
	<g>
		<path id="Shape" d="M19.51 13.42C19.72 13.53 20 13.39 20 13.14L20 7C20 5.34 18.65 4 17 4L7 4C5.34 4 4 5.34 4 7L4 17C4 18.65 5.34 20 7 20L13.14 20C13.38 20 13.53 19.72 13.42 19.51C13.11 18.9 12.94 18.2 12.94 17.47C12.94 14.97 14.97 12.94 17.47 12.94C18.2 12.94 18.9 13.11 19.51 13.42ZM16 8.49C16 8.13 15.71 7.84 15.35 7.84L8.67 7.84C8.31 7.84 8.02 8.13 8.02 8.49C8.02 8.84 8.31 9.14 8.67 9.14L15.35 9.14C15.71 9.14 16 8.84 16 8.49ZM12.02 12C12.02 11.64 11.73 11.35 11.37 11.35L8.67 11.35C8.31 11.35 8.02 11.64 8.02 12C8.02 12.35 8.31 12.65 8.67 12.65L11.37 12.65C11.73 12.65 12.02 12.35 12.02 12ZM21.8 20.88L20.16 19.24C20.5 18.73 20.69 18.12 20.69 17.47C20.69 15.69 19.25 14.24 17.47 14.24C15.68 14.24 14.24 15.69 14.24 17.47C14.24 19.25 15.68 20.7 17.47 20.7C18.12 20.7 18.73 20.5 19.24 20.16L20.88 21.8C21.13 22.05 21.55 22.05 21.8 21.8C22.05 21.54 22.05 21.13 21.8 20.88ZM17.47 19.4C16.4 19.4 15.54 18.53 15.54 17.47C15.54 16.41 16.4 15.54 17.47 15.54C18.53 15.54 19.39 16.41 19.39 17.47C19.39 18.53 18.53 19.4 17.47 19.4Z" fill="#717681" fill-opacity="1.000000" fill-rule="evenodd"/>
	</g>
</svg>
