<svg width="24.000000" height="24.000000" viewBox="0 0 24 24" fill="none" xmlns="http://www.w3.org/2000/svg" xmlns:xlink="http://www.w3.org/1999/xlink">
	<desc>
			Created with Pixso.
	</desc>
	<defs>
		<clipPath id="clip106725_900">
			<rect id="Outline / Tester HT Outline" width="24.000000" height="24.000000" fill="white" fill-opacity="0"/>
		</clipPath>
	</defs>
	<g clip-path="url(#clip106725_900)">
		<path id="Shape" d="M19.09 13.24C19.5 13.39 20 13.12 20 12.68L20 7C20 5.34 18.65 4 17 4L7 4C5.34 4 4 5.34 4 7L4 17C4 18.65 5.34 20 7 20L12.68 20C13.12 20 13.39 19.5 13.24 19.09C13.15 18.86 12.94 18.7 12.69 18.7L7 18.7C6.06 18.7 5.3 17.93 5.3 17L5.3 7C5.3 6.06 6.06 5.3 7 5.3L17 5.3C17.93 5.3 18.7 6.06 18.7 7L18.7 12.69C18.7 12.94 18.86 13.15 19.09 13.24ZM21.8 20.88L20.16 19.24C20.5 18.73 20.69 18.12 20.69 17.47C20.69 15.69 19.25 14.24 17.47 14.24C16.93 14.24 16.42 14.37 15.98 14.6L15.98 7.6C15.98 7.24 15.69 6.95 15.33 6.95C14.97 6.95 14.68 7.24 14.68 7.6L14.68 10.99L9.31 10.99L9.31 7.6C9.31 7.24 9.02 6.95 8.66 6.95C8.3 6.95 8.01 7.24 8.01 7.6L8.01 16.39C8.01 16.75 8.3 17.04 8.66 17.04C9.02 17.04 9.31 16.75 9.31 16.39L9.31 12.29L14.68 12.29L14.68 15.61C14.68 15.68 14.69 15.74 14.71 15.8C14.41 16.28 14.24 16.86 14.24 17.47C14.24 19.25 15.68 20.7 17.47 20.7C18.12 20.7 18.73 20.5 19.24 20.16L20.88 21.8C21.13 22.05 21.55 22.05 21.8 21.8C22.05 21.54 22.05 21.13 21.8 20.88ZM17.47 19.4C16.4 19.4 15.54 18.53 15.54 17.47C15.54 16.41 16.4 15.54 17.47 15.54C18.53 15.54 19.39 16.41 19.39 17.47C19.39 18.53 18.53 19.4 17.47 19.4Z" fill="#74767B" fill-opacity="1.000000" fill-rule="evenodd"/>
	</g>
</svg>
