<svg viewBox="0 0 24 24" xmlns="http://www.w3.org/2000/svg" xmlns:xlink="http://www.w3.org/1999/xlink" width="24.000000" height="24.000000" fill="none">
	<rect id="Outline/Trees Outline" width="24.000000" height="24.000000" x="0.000000" y="0.000000" />
	<path id="Shape" d="M15.052 15.735C17.8162 15.7042 20.0003 15.2722 20.0003 12.1251C20.0003 9.73973 17.1979 5.60641 15.6629 3.52125C15.171 2.85308 14.1995 2.85311 13.7076 3.52132C12.9788 4.51154 11.9641 5.96365 11.0995 7.4711C10.3547 6.89434 9.41991 6.55109 8.40496 6.55109C5.97217 6.55109 4 8.52326 4 10.9561C4 13.168 5.63033 14.9991 7.75488 15.3134L7.75488 17.7519C7.75488 18.1108 8.0459 18.4019 8.40488 18.4019C8.76387 18.4019 9.05488 18.1108 9.05488 17.7519L9.05488 15.3134C9.55166 15.2399 10.0214 15.0835 10.4496 14.8587C11.2414 15.4826 12.4097 15.673 13.7521 15.722L13.752 15.734L13.752 17.7515C13.752 18.1105 14.043 18.4015 14.402 18.4015C14.7609 18.4015 15.052 18.1105 15.052 17.7515L15.052 15.735ZM14.6853 4.38631C13.917 5.43515 12.8733 6.94467 12.0346 8.45948C12.5236 9.16906 12.8099 10.0291 12.8099 10.9561C12.8099 12.1504 12.3346 13.2337 11.5628 14.0272C11.7345 14.1102 11.9451 14.1831 12.2052 14.2436C12.857 14.3952 13.6788 14.4369 14.6855 14.4369C16.1833 14.4369 17.2058 14.336 17.8512 14.0057C18.129 13.8635 18.3126 13.6885 18.4416 13.4523C18.5788 13.201 18.7003 12.7941 18.7003 12.1251C18.7003 11.7562 18.5856 11.2207 18.323 10.5289C18.0667 9.85358 17.7007 9.10889 17.2732 8.34624C16.4442 6.86728 15.4327 5.40649 14.6853 4.38631ZM8.40496 14.061C10.1198 14.061 11.5099 12.6709 11.5099 10.9561C11.5099 9.24123 10.1198 7.85109 8.40496 7.85109C6.69014 7.85109 5.3 9.24123 5.3 10.9561C5.3 12.6709 6.69014 14.061 8.40496 14.061ZM4.00024 20.3517C4.00024 19.9927 4.29126 19.7017 4.65024 19.7017L19.3502 19.7017C19.7092 19.7017 20.0002 19.9927 20.0002 20.3517C20.0002 20.7106 19.7092 21.0017 19.3502 21.0017L4.65024 21.0017C4.29126 21.0017 4.00024 20.7106 4.00024 20.3517Z" fill="rgb(116,118,123)" fill-rule="evenodd" />
</svg>
