<svg width="24.000000" height="24.000000" viewBox="0 0 24 24" fill="none" xmlns="http://www.w3.org/2000/svg" xmlns:xlink="http://www.w3.org/1999/xlink">
	<desc>
			Created with Pixso.
	</desc>
	<defs>
		<clipPath id="clip5913_799">
			<rect id="Solid / Trees Solid" width="24.000000" height="24.000000" fill="white" fill-opacity="0"/>
		</clipPath>
	</defs>
	<g clip-path="url(#clip5913_799)">
		<path id="Shape" d="M15.05 15.73C17.81 15.7 20 15.27 20 12.12C20 9.73 17.19 5.6 15.66 3.52C15.17 2.85 14.19 2.85 13.7 3.52C13.25 4.13 12.69 4.92 12.12 5.8C11.92 6.1 12 6.51 12.27 6.76C13.4 7.8 14.1 9.29 14.1 10.95C14.1 12.28 13.65 13.49 12.9 14.46C12.53 14.93 12.72 15.66 13.31 15.7C13.45 15.7 13.6 15.71 13.75 15.72L13.75 15.73L13.75 17.75C13.75 18.11 14.04 18.4 14.4 18.4C14.76 18.4 15.05 18.11 15.05 17.75L15.05 15.73ZM12.81 10.95C12.81 13.16 11.17 14.99 9.05 15.31L9.05 17.75C9.05 18.11 8.76 18.4 8.4 18.4C8.04 18.4 7.75 18.11 7.75 17.75L7.75 15.31C5.63 14.99 4 13.16 4 10.95C4 8.52 5.97 6.55 8.4 6.55C10.83 6.55 12.81 8.52 12.81 10.95ZM4.65 19.7C4.29 19.7 4 19.99 4 20.35C4 20.71 4.29 21 4.65 21L19.35 21C19.7 21 20 20.71 20 20.35C20 19.99 19.7 19.7 19.35 19.7L4.65 19.7Z" fill="#74767B" fill-opacity="1.000000" fill-rule="evenodd"/>
	</g>
</svg>
