<svg width="24.000000" height="24.000000" viewBox="0 0 24 24" fill="none" xmlns="http://www.w3.org/2000/svg" xmlns:xlink="http://www.w3.org/1999/xlink">
	<desc>
			Created with Pixso.
	</desc>
	<defs>
		<clipPath id="clip17_487">
			<rect id="Outline / Typography Outline" width="24.000000" height="24.000000" fill="white" fill-opacity="0"/>
		</clipPath>
	</defs>
	<g clip-path="url(#clip17_487)">
		<path id="Shape" d="M4.96 20C4.49 20 4.15 19.53 4.3 19.08L9.13 4.48C9.23 4.19 9.49 4 9.79 4L14.2 4C14.5 4 14.77 4.19 14.86 4.48L19.69 19.08C19.84 19.53 19.5 20 19.03 20L14.6 20C14.29 20 14.02 19.79 13.93 19.49L13.27 17.19C13.23 17.07 13.12 16.98 12.98 16.98L10.75 16.98C10.62 16.98 10.5 17.07 10.46 17.2L9.82 19.48C9.74 19.79 9.46 20 9.15 20L4.96 20ZM9.77 15.68C9.63 15.68 9.51 15.77 9.48 15.9L8.75 18.48C8.72 18.61 8.6 18.7 8.46 18.7L6.21 18.7C6.01 18.7 5.86 18.49 5.93 18.3L10.16 5.5C10.2 5.38 10.32 5.29 10.45 5.29L13.55 5.29C13.67 5.29 13.79 5.38 13.83 5.5L18.07 18.3C18.13 18.49 17.98 18.7 17.78 18.7L15.28 18.7C15.15 18.7 15.03 18.61 14.99 18.48L14.25 15.89C14.21 15.77 14.09 15.68 13.96 15.68L9.77 15.68ZM10.25 13.1L11.59 8.46C11.67 8.17 12.08 8.17 12.17 8.46L13.5 13.1C13.56 13.29 13.41 13.48 13.21 13.48L10.54 13.48C10.34 13.48 10.2 13.29 10.25 13.1Z" fill="#74767B" fill-opacity="1.000000" fill-rule="evenodd"/>
	</g>
</svg>
