<svg viewBox="0 0 24 24" xmlns="http://www.w3.org/2000/svg" xmlns:xlink="http://www.w3.org/1999/xlink" width="24.000000" height="24.000000" fill="none">
	<rect id="Solid/USB Solid" width="24.000000" height="24.000000" x="0.000000" y="0.000000" transform="matrix(1,-6.12324e-17,-6.12324e-17,-1,0,24)" />
	<path id="Shape" d="M12.1032 5.65268C11.8298 5.92606 11.8298 6.36928 12.1032 6.64264L17.4121 11.9515C17.6855 12.2249 18.1287 12.2249 18.4021 11.9515L21.3875 8.9661C21.8952 8.45842 21.8952 7.6353 21.3875 7.12762L16.9271 2.66726C16.4194 2.15958 15.5963 2.15958 15.0886 2.66726L12.1032 5.65268ZM15.2245 6.08112C14.9707 6.33496 14.9707 6.74652 15.2245 7.00036C15.4784 7.2542 15.8899 7.2542 16.1438 7.00036L16.8606 6.28352C17.1145 6.02968 17.1145 5.61812 16.8606 5.36428C16.6068 5.11044 16.1952 5.11044 15.9414 5.36428L15.2245 6.08112ZM8.93632 7.14872C9.444 6.64104 10.2671 6.64104 10.7748 7.14872L16.9062 13.2801C17.4138 13.7878 17.4138 14.6109 16.9062 15.1186L10.8544 21.1703C9.6828 22.3419 7.7833 22.3419 6.61174 21.1703L2.88454 17.4431C1.71296 16.2716 1.71296 14.3721 2.88454 13.2005L8.93632 7.14872ZM17.0544 8.83028C16.8005 8.57644 16.8005 8.16488 17.0544 7.91104L17.7712 7.19418C18.025 6.94034 18.4366 6.94034 18.6904 7.19418C18.9443 7.44802 18.9443 7.85958 18.6904 8.11342L17.9736 8.83028C17.7198 9.08412 17.3082 9.08412 17.0544 8.83028Z" fill="rgb(116,118,123)" fill-rule="evenodd" />
</svg>
