<svg width="24" height="24" viewBox="0 0 24 24" fill="none" xmlns="http://www.w3.org/2000/svg">
<path d="M14.7743 7.45029C14.5205 7.19645 14.5205 6.78489 14.7743 6.53105L15.4912 5.81419C15.745 5.56035 16.1566 5.56035 16.4104 5.81419C16.6643 6.06803 16.6643 6.47959 16.4104 6.73343L15.6936 7.45029C15.4397 7.70413 15.0282 7.70413 14.7743 7.45029Z" fill="#717681"/>
<path d="M16.6044 8.36097C16.3506 8.61481 16.3506 9.02637 16.6044 9.28021C16.8582 9.53405 17.2698 9.53405 17.5236 9.28021L18.2405 8.56336C18.4943 8.30952 18.4943 7.89796 18.2405 7.64412C17.9867 7.39028 17.5751 7.39028 17.3213 7.64412L16.6044 8.36097Z" fill="#717681"/>
<path fill-rule="evenodd" clip-rule="evenodd" d="M11.5941 6.16127C11.0834 5.73544 10.3229 5.7622 9.84351 6.24154L2.88454 13.2005C1.71297 14.3721 1.71297 16.2716 2.88454 17.4432L6.61173 21.1704C7.78331 22.3419 9.6828 22.3419 10.8544 21.1704L17.8134 14.2114C18.2929 13.7318 18.3195 12.9708 17.893 12.4601L21.387 8.9661C21.8947 8.45842 21.8947 7.6353 21.387 7.12762L16.9266 2.66726C16.4189 2.15958 15.5958 2.15958 15.0881 2.66726L11.5941 6.16127ZM10.7628 7.16078L16.8941 13.2921L9.93513 20.2511C9.27124 20.915 8.19486 20.915 7.53097 20.2511L3.80378 16.5239C3.13989 15.86 3.13989 14.7836 3.80378 14.1198L10.7628 7.16078ZM16.0074 3.5865L20.4677 8.04686L17.0069 11.5077L12.5466 7.04732L16.0074 3.5865Z" fill="#717681"/>
</svg>
