<svg width="24.000000" height="24.000000" viewBox="0 0 24 24" fill="none" xmlns="http://www.w3.org/2000/svg" xmlns:xlink="http://www.w3.org/1999/xlink">
	<desc>
			Created with Pixso.
	</desc>
	<defs>
		<clipPath id="clip17_580">
			<rect id="Solid / USB Solid" width="24.000000" height="24.000000" transform="matrix(1 -6.12324e-17 -6.12324e-17 -1 0 24)" fill="white" fill-opacity="0"/>
		</clipPath>
	</defs>
	<g clip-path="url(#clip17_580)">
		<path id="Shape" d="M12.1 5.65C11.83 5.92 11.83 6.36 12.1 6.64L17.41 11.95C17.68 12.22 18.12 12.22 18.4 11.95L21.38 8.96C21.89 8.45 21.89 7.63 21.38 7.12L16.92 2.66C16.41 2.15 15.59 2.15 15.08 2.66L12.1 5.65ZM15.22 6.08C14.97 6.33 14.97 6.74 15.22 7C15.47 7.25 15.89 7.25 16.14 7L16.86 6.28C17.11 6.02 17.11 5.61 16.86 5.36C16.6 5.11 16.19 5.11 15.94 5.36L15.22 6.08ZM8.93 7.14C9.44 6.64 10.26 6.64 10.77 7.14L16.9 13.28C17.41 13.78 17.41 14.61 16.9 15.11L10.85 21.17C9.68 22.34 7.78 22.34 6.61 21.17L2.88 17.44C1.71 16.27 1.71 14.37 2.88 13.2L8.93 7.14ZM17.05 8.83C16.8 8.57 16.8 8.16 17.05 7.91L17.77 7.19C18.02 6.94 18.43 6.94 18.69 7.19C18.94 7.44 18.94 7.85 18.69 8.11L17.97 8.83C17.71 9.08 17.3 9.08 17.05 8.83Z" fill="#74767B" fill-opacity="1.000000" fill-rule="evenodd"/>
	</g>
</svg>
