<svg width="24.000000" height="24.000000" viewBox="0 0 24 24" fill="none" xmlns="http://www.w3.org/2000/svg" xmlns:xlink="http://www.w3.org/1999/xlink">
	<desc>
			Created with Pixso.
	</desc>
	<defs>
		<clipPath id="clip5101_684">
			<rect id="Solid / Utensils Solid" width="24.000000" height="24.000000" fill="white" fill-opacity="0"/>
		</clipPath>
	</defs>
	<g >
		<path id="Shape" d="M5.48 3.64C5.48 3.28 5.77 2.99 6.13 2.99C6.49 2.99 6.78 3.28 6.78 3.64L6.78 6.61C6.78 6.97 7.07 7.26 7.43 7.26C7.79 7.26 8.08 6.97 8.08 6.61L8.08 3.64C8.08 3.28 8.37 2.99 8.73 2.99C9.09 2.99 9.38 3.28 9.38 3.64L9.38 6.61C9.38 6.97 9.67 7.26 10.03 7.26C10.39 7.26 10.68 6.97 10.68 6.61L10.68 3.64C10.68 3.28 10.97 2.99 11.33 2.99C11.69 2.99 11.98 3.28 11.98 3.64L11.98 7.72L11.97 7.72C11.92 8.69 11.43 9.55 10.71 10.11C10.23 10.47 9.86 11 9.92 11.59L10.61 18.98C10.71 20.06 9.86 21 8.77 21C7.7 21 6.85 20.09 6.92 19.02L7.45 11.48C7.49 10.92 7.14 10.42 6.7 10.07C6 9.51 5.54 8.67 5.48 7.72L5.48 7.72L5.48 3.64ZM13.36 4.17C13.36 3.52 13.89 2.99 14.54 2.99C15.04 2.99 15.49 3.31 15.66 3.79L18.04 10.87C18.3 11.65 17.89 12.48 17.12 12.75C16.42 12.99 16.01 13.72 16.16 14.45L17.05 18.76C17.29 19.92 16.4 21 15.22 21C14.19 21 13.36 20.17 13.36 19.14L13.36 4.17Z" fill="#74767B" fill-opacity="1.000000" fill-rule="evenodd"/>
	</g>
</svg>
