<svg width="24.000000" height="24.000000" viewBox="0 0 24 24" fill="none" xmlns="http://www.w3.org/2000/svg" xmlns:xlink="http://www.w3.org/1999/xlink">
	<desc>
			Created with Pixso.
	</desc>
	<defs>
		<clipPath id="clip5101_683">
			<rect id="Outline / Utensils Outline" width="24.000000" height="24.000000" fill="white" fill-opacity="0"/>
		</clipPath>
	</defs>
	<g clip-path="url(#clip5101_683)">
		<path id="Shape" d="M8.28 2.98C8.28 2.98 8.28 2.98 8.28 2.98C7.92 2.98 7.63 3.27 7.63 3.63L7.63 6.02C7.63 6.37 7.34 6.66 6.98 6.66C6.65 6.66 6.38 6.41 6.34 6.09L6.34 5.6L6.34 5.6L6.34 3.63C6.34 3.27 6.05 2.98 5.69 2.98C5.33 2.98 5.04 3.27 5.04 3.63L5.04 6.02C5.04 6.06 5.04 6.1 5.04 6.14L5.04 8.21C5.04 9.22 5.5 10.18 6.29 10.81C6.42 10.91 6.49 11.08 6.48 11.24L6 18.61C5.91 19.94 6.96 21.06 8.29 21.06C9.62 21.06 10.67 19.93 10.58 18.61L10.09 11.24C10.08 11.08 10.15 10.91 10.28 10.81C11.07 10.18 11.53 9.22 11.53 8.21L11.53 6.03C11.53 6.02 11.53 6.02 11.53 6.02L11.53 3.63C11.53 3.27 11.24 2.98 10.88 2.98C10.52 2.98 10.23 3.27 10.23 3.63L10.23 6.02C10.22 6.38 9.94 6.66 9.58 6.66C9.22 6.66 8.93 6.37 8.93 6.02L8.93 3.63C8.93 3.27 8.64 2.98 8.29 2.98C8.28 2.98 8.28 2.98 8.28 2.98ZM10.23 7.85C10.03 7.92 9.81 7.96 9.58 7.96C9.08 7.96 8.63 7.77 8.28 7.47C7.94 7.77 7.48 7.96 6.98 7.96C6.76 7.96 6.54 7.92 6.34 7.85L6.34 8.21C6.34 8.83 6.62 9.41 7.1 9.8C7.56 10.16 7.82 10.74 7.78 11.33L7.3 18.7C7.26 19.27 7.72 19.76 8.29 19.76C8.87 19.76 9.32 19.27 9.28 18.7L8.79 11.33C8.75 10.74 9.01 10.16 9.47 9.79C9.95 9.41 10.23 8.83 10.23 8.21L10.23 7.85ZM13.32 4.72C13.32 3.76 14.1 2.98 15.07 2.98C15.82 2.98 16.48 3.45 16.72 4.16L18.91 10.68C19.28 11.76 18.77 12.94 17.74 13.43C17.34 13.61 17.12 14.05 17.22 14.48L18.01 18.12C18.32 19.6 17.2 20.99 15.69 20.99C14.38 20.99 13.32 19.93 13.32 18.62L13.32 4.72ZM15.07 4.28C14.82 4.28 14.62 4.47 14.62 4.72L14.62 18.62C14.62 19.21 15.1 19.69 15.69 19.69C16.37 19.69 16.88 19.06 16.73 18.4L15.95 14.75C15.72 13.73 16.24 12.69 17.19 12.25C17.62 12.05 17.83 11.55 17.68 11.09L15.49 4.58C15.43 4.4 15.26 4.28 15.07 4.28Z" fill="#717681" fill-opacity="1.000000" fill-rule="evenodd"/>
	</g>
</svg>
