<svg width="24.000000" height="24.000000" viewBox="0 0 24 24" fill="none" xmlns="http://www.w3.org/2000/svg" xmlns:xlink="http://www.w3.org/1999/xlink">
	<desc>
			Created with Pixso.
	</desc>
	<defs>
		<clipPath id="clip17_314">
			<rect id="Outline / Vacation Outline" width="24.000000" height="24.000000" fill="white" fill-opacity="0"/>
		</clipPath>
	</defs>
	<g >
		<path id="Shape" d="M12.14 3.27C11.1 3.55 10.4 4.06 9.95 4.66C9.52 3.98 8.79 3.36 7.59 3.03C6.49 2.74 5.58 2.85 4.87 3.19C4.16 3.51 3.69 4.02 3.4 4.43C3.14 4.8 3.12 5.24 3.29 5.6C3.45 5.95 3.76 6.2 4.14 6.3L6.02 6.78C5.8 6.93 5.58 7.11 5.36 7.33C4.55 8.14 4.2 8.98 4.14 9.77C4.08 10.55 4.3 11.2 4.53 11.66C4.72 12.05 5.09 12.28 5.48 12.31C5.85 12.34 6.22 12.2 6.5 11.93L9 9.43C9.01 9.74 9.02 10.06 9.05 10.39C9.19 12.09 9.58 13.78 10.11 15.23C8.04 15.75 6.34 17.12 5.34 18.94C4.92 18.73 4.48 18.47 4.01 18.16C3.71 17.96 3.31 18.05 3.11 18.34C2.91 18.64 2.99 19.05 3.29 19.25C5.37 20.63 7.12 21.07 8.69 20.96C10.23 20.86 11.53 20.24 12.68 19.68L12.72 19.66C13.89 19.1 14.89 18.61 16 18.53C17.07 18.46 18.33 18.77 19.96 20.02C20.25 20.24 20.66 20.18 20.87 19.9C21.09 19.62 21.04 19.21 20.75 18.99C19.57 18.08 18.49 17.57 17.49 17.35C16.12 15.91 14.1 14.99 12.02 14.99C11.82 14.99 11.62 15 11.42 15.02C10.88 13.64 10.48 11.96 10.35 10.28C10.29 9.56 10.28 8.87 10.32 8.21C10.33 8.08 10.41 7.98 10.53 7.95L15.6 6.54C15.98 6.44 16.29 6.18 16.45 5.83C16.61 5.48 16.59 5.04 16.34 4.68C16.05 4.26 15.58 3.75 14.87 3.42C14.15 3.09 13.25 2.97 12.14 3.27ZM9.14 6.24L9.06 6.22C9.02 6.2 8.98 6.19 8.93 6.18L4.55 5.06C4.75 4.8 5.04 4.54 5.41 4.37C5.83 4.17 6.42 4.07 7.25 4.29C8.48 4.62 8.91 5.31 9.08 5.88C9.12 6 9.14 6.12 9.16 6.24L9.14 6.24ZM15.19 5.3L10.56 6.54C10.57 6.52 10.57 6.49 10.58 6.46C10.63 6.25 10.69 6.04 10.76 5.83C10.81 5.72 10.87 5.61 10.94 5.51C11.19 5.13 11.65 4.75 12.48 4.52C13.31 4.3 13.9 4.41 14.32 4.6C14.7 4.78 14.98 5.04 15.19 5.3ZM6.56 19.42C7.66 17.55 9.64 16.29 12.02 16.29C13.21 16.29 14.4 16.67 15.39 17.3C14.23 17.48 13.2 17.98 12.25 18.45L12.11 18.51C10.94 19.08 9.86 19.58 8.6 19.67C7.99 19.71 7.32 19.65 6.56 19.42ZM9.02 7.57L5.63 10.95C5.5 10.65 5.41 10.28 5.44 9.87C5.47 9.42 5.67 8.86 6.28 8.25C6.89 7.64 7.46 7.43 7.92 7.39C8.33 7.36 8.71 7.45 9.02 7.57ZM18.27 10.84C18.27 11.77 17.51 12.54 16.57 12.54C15.63 12.54 14.87 11.77 14.87 10.84C14.87 9.9 15.63 9.13 16.57 9.13C17.51 9.13 18.27 9.9 18.27 10.84ZM19.57 10.84C19.57 12.49 18.23 13.84 16.57 13.84C14.91 13.84 13.57 12.49 13.57 10.84C13.57 9.18 14.91 7.83 16.57 7.83C18.23 7.83 19.57 9.18 19.57 10.84Z" fill="#74767B" fill-opacity="1.000000" fill-rule="evenodd"/>
	</g>
</svg>
