<svg width="24.000000" height="24.000000" viewBox="0 0 24 24" fill="none" xmlns="http://www.w3.org/2000/svg" xmlns:xlink="http://www.w3.org/1999/xlink">
	<desc>
			Created with Pixso.
	</desc>
	<defs/>
	<path id="Shape" d="M12.73 7.85C13.47 7.56 14 6.84 14 5.99C14 4.89 13.1 3.99 12 3.99C10.89 3.99 10 4.89 10 5.99C10 6.84 10.52 7.57 11.27 7.86C11.26 7.87 11.25 7.88 11.24 7.89L9.38 10.1C8.95 10.61 8.2 10.71 7.65 10.33L5.72 9.01C5.89 8.71 6 8.36 6 7.99C6 6.89 5.1 5.99 4 5.99C2.89 5.99 2 6.89 2 7.99C2 9.06 2.83 9.93 3.88 9.99L4.83 16.2C4.92 16.84 5.47 17.31 6.11 17.31L17.88 17.31C18.52 17.31 19.07 16.84 19.16 16.2L20.11 9.99C21.16 9.93 22 9.06 22 7.99C22 6.89 21.1 5.99 20 5.99C18.89 5.99 18 6.89 18 7.99C18 8.37 18.1 8.72 18.28 9.02L16.37 10.33C15.82 10.71 15.08 10.61 14.65 10.1L12.76 7.89C12.75 7.88 12.74 7.87 12.73 7.85ZM12.7 5.99C12.7 6.38 12.38 6.69 12 6.69C11.61 6.69 11.29 6.38 11.29 5.99C11.29 5.61 11.61 5.29 12 5.29C12.38 5.29 12.7 5.61 12.7 5.99ZM4 8.69C4.38 8.69 4.7 8.38 4.7 7.99C4.7 7.61 4.38 7.29 4 7.29C3.61 7.29 3.29 7.61 3.29 7.99C3.29 8.38 3.61 8.69 4 8.69ZM20.7 7.99C20.7 8.38 20.38 8.69 20 8.69C19.61 8.69 19.29 8.38 19.29 7.99C19.29 7.61 19.61 7.29 20 7.29C20.38 7.29 20.7 7.61 20.7 7.99ZM17.11 11.4L18.76 10.27L17.88 16.01L6.11 16.01L5.23 10.25L6.92 11.4C8.02 12.16 9.51 11.95 10.37 10.93L12 9L13.66 10.95C14.52 11.96 16.01 12.16 17.11 11.4ZM19 19.35C19 19.71 18.7 20 18.35 20L5.64 20C5.29 20 5 19.71 5 19.35C5 18.99 5.29 18.7 5.64 18.7L18.35 18.7C18.7 18.7 19 18.99 19 19.35Z" fill="#717681" fill-opacity="1.000000" fill-rule="evenodd"/>
</svg>
