<svg width="24.000000" height="24.000000" viewBox="0 0 24 24" fill="none" xmlns="http://www.w3.org/2000/svg" xmlns:xlink="http://www.w3.org/1999/xlink">
	<desc>
			Created with Pixso.
	</desc>
	<defs/>
	<path id="Shape" d="M12.79 7.83C13.5 7.52 14 6.82 14 6C14 4.89 13.1 4 12 4C10.89 4 10 4.89 10 6C10 6.81 10.49 7.52 11.19 7.83L8.93 10.17C8.47 10.64 7.74 10.7 7.21 10.3L5.65 9.12C5.87 8.8 6 8.41 6 8C6 6.89 5.1 6 4 6C2.89 6 2 6.89 2 8C2 9.06 2.83 9.94 3.89 9.99L4.82 15.96C4.92 16.59 5.47 17.06 6.11 17.06L17.88 17.06C18.52 17.06 19.07 16.59 19.17 15.96L20.1 9.99C21.16 9.94 22 9.06 22 8C22 6.89 21.1 6 20 6C18.89 6 18 6.89 18 8C18 8.41 18.12 8.79 18.33 9.11L16.74 10.3C16.21 10.7 15.48 10.64 15.02 10.16L12.79 7.83ZM18.35 19.99C18.7 19.99 19 19.7 19 19.34C19 18.99 18.7 18.69 18.35 18.69L5.64 18.69C5.29 18.69 5 18.99 5 19.34C5 19.7 5.29 19.99 5.64 19.99L18.35 19.99Z" fill="#74767B" fill-opacity="1.000000" fill-rule="evenodd"/>
</svg>
