<svg width="24.000000" height="24.000000" viewBox="0 0 24 24" fill="none" xmlns="http://www.w3.org/2000/svg" xmlns:xlink="http://www.w3.org/1999/xlink">
	<desc>
			Created with Pixso.
	</desc>
	<defs>
		<clipPath id="clip106725_849">
			<rect id="Solid / Watcher Solid" width="24.000000" height="24.000000" fill="white" fill-opacity="0"/>
		</clipPath>
	</defs>
	<g>
		<path id="Shape" d="M4 7C4 5.34 5.34 4 7 4L17 4C18.65 4 20 5.34 20 7L20 13.84C20 14.06 19.76 14.21 19.55 14.12C18.9 13.86 18.16 13.69 17.34 13.69C17.19 13.69 17.05 13.7 16.9 13.71L17.84 12.41C18.02 12.16 18.02 11.82 17.84 11.57L16.1 9.23C15.88 8.94 15.49 8.89 15.22 9.12C14.95 9.36 14.91 9.78 15.12 10.07L16.56 12L14.97 14.19C13.66 14.76 12.71 15.72 12.12 16.46C11.41 17.36 11.24 18.51 11.59 19.54C11.66 19.75 11.52 20 11.29 20L7 20C5.34 20 4 18.65 4 17L4 7ZM8.77 9.12C9.04 9.36 9.08 9.78 8.87 10.07L7.44 12L8.87 13.92C9.08 14.21 9.04 14.63 8.77 14.87C8.51 15.1 8.11 15.05 7.9 14.76L6.15 12.42C5.97 12.17 5.97 11.82 6.15 11.57L7.9 9.23C8.11 8.94 8.51 8.89 8.77 9.12ZM13.27 9.82C13.37 9.48 13.17 9.12 12.82 9.02C12.47 8.93 12.12 9.13 12.02 9.47L10.72 14.17C10.62 14.51 10.82 14.87 11.17 14.97C11.52 15.06 11.87 14.86 11.97 14.52L13.27 9.82ZM21.53 19.72C22.12 19 22.12 17.99 21.54 17.26C20.73 16.25 19.33 14.99 17.34 14.99C15.35 14.99 13.95 16.26 13.14 17.27C12.56 17.99 12.57 18.99 13.15 19.72C13.97 20.73 15.38 22 17.34 22C19.3 22 20.71 20.73 21.53 19.72ZM17.35 20.5C18.45 20.5 19.35 19.6 19.35 18.49C19.35 17.39 18.45 16.49 17.35 16.49C16.24 16.49 15.35 17.39 15.35 18.49C15.35 19.6 16.24 20.5 17.35 20.5Z" fill="#717681" fill-opacity="1.000000" fill-rule="evenodd"/>
	</g>
</svg>
