<svg width="24.000000" height="24.000000" viewBox="0 0 24 24" fill="none" xmlns="http://www.w3.org/2000/svg" xmlns:xlink="http://www.w3.org/1999/xlink">
	<desc>
			Created with Pixso.
	</desc>
	<defs>
		<clipPath id="clip17_843">
			<rect id="Outline / FaceID Outline" width="24.000000" height="24.000000" fill="white" fill-opacity="0"/>
		</clipPath>
	</defs>
	<g clip-path="url(#clip17_843)">
		<path id="Shape" d="M4.89 2L5.69 2C6.04 2 6.34 2.29 6.34 2.65C6.34 3 6.04 3.3 5.69 3.3L4.89 3.3C3.95 3.3 3.19 4.06 3.19 5L3.19 5.69C3.19 6.05 2.9 6.34 2.54 6.34C2.18 6.34 1.89 6.05 1.89 5.69L1.89 5C1.89 3.34 3.23 2 4.89 2ZM21.89 5.69C21.89 6.05 21.6 6.34 21.24 6.34C20.88 6.34 20.59 6.05 20.59 5.69L20.59 5C20.59 4.06 19.83 3.3 18.89 3.3L18.3 3.3C17.95 3.3 17.65 3 17.65 2.65C17.65 2.29 17.95 2 18.3 2L18.89 2C20.54 2 21.89 3.34 21.89 5L21.89 5.69ZM7.5 8C7.85 8 8.15 8.29 8.15 8.65L8.15 10.4C8.15 10.76 7.85 11.05 7.5 11.05C7.14 11.05 6.84 10.76 6.84 10.4L6.84 8.65C6.84 8.29 7.14 8 7.5 8ZM12 8C12.35 8 12.65 8.29 12.65 8.65L12.65 11.8C12.65 13.03 11.66 14.02 10.42 14.02L10.34 14.02C9.98 14.02 9.68 13.73 9.68 13.37C9.68 13.01 9.98 12.72 10.34 12.72L10.42 12.72C10.94 12.72 11.35 12.31 11.35 11.8L11.35 8.65C11.35 8.29 11.64 8 12 8ZM16.5 8C16.85 8 17.15 8.29 17.15 8.65L17.15 10.4C17.15 10.76 16.85 11.05 16.5 11.05C16.14 11.05 15.85 10.76 15.85 10.4L15.85 8.65C15.85 8.29 16.14 8 16.5 8ZM15.98 15.25C16.11 15.38 16.18 15.56 16.18 15.73C16.18 15.89 16.13 16.05 16.01 16.17C15.21 17.03 13.81 17.57 12.38 17.66C10.94 17.74 9.34 17.36 8.17 16.19C8.04 16.06 7.98 15.9 7.98 15.73C7.98 15.56 8.04 15.4 8.17 15.27C8.43 15.02 8.84 15.02 9.09 15.27C9.93 16.11 11.13 16.43 12.31 16.36C13.51 16.29 14.55 15.83 15.06 15.28C15.31 15.02 15.72 15.01 15.98 15.25ZM1.89 18.3C1.89 17.95 2.18 17.65 2.54 17.65C2.9 17.65 3.19 17.95 3.19 18.3L3.19 19C3.19 19.93 3.95 20.7 4.89 20.7L5.69 20.7C6.04 20.7 6.34 20.99 6.34 21.35C6.34 21.7 6.04 22 5.69 22L4.89 22C3.23 22 1.89 20.65 1.89 19L1.89 18.3ZM20.59 18.3C20.59 17.95 20.88 17.65 21.24 17.65C21.6 17.65 21.89 17.95 21.89 18.3L21.89 19C21.89 20.65 20.54 22 18.89 22L18.3 22C17.95 22 17.65 21.7 17.65 21.35C17.65 20.99 17.95 20.7 18.3 20.7L18.89 20.7C19.83 20.7 20.59 19.93 20.59 19L20.59 18.3Z" fill="#717681" fill-opacity="1.000000" fill-rule="evenodd"/>
	</g>
</svg>
