<svg width="24.000000" height="24.000000" viewBox="0 0 24 24" fill="none" xmlns="http://www.w3.org/2000/svg" xmlns:xlink="http://www.w3.org/1999/xlink">
	<desc>
			Created with Pixso.
	</desc>
	<defs/>
	<path id="Shape" d="M12.4 3.55C11.23 2.38 9.33 2.38 8.16 3.55L3.92 7.8C2.75 8.97 2.75 10.87 3.92 12.04L6.04 14.16C7.21 15.33 9.11 15.33 10.28 14.16L10.62 13.83L17.3 20.51C17.55 20.77 17.87 20.94 18.22 21.02C19.21 21.24 20.19 20.64 20.45 19.65L20.61 19.02C20.83 18.15 20.58 17.23 19.94 16.6L19.6 16.25C19.35 16.01 19.02 15.87 18.68 15.87L18.07 15.87C17.73 15.87 17.45 15.63 17.38 15.3L16.99 13.31C16.94 13.05 16.82 12.81 16.63 12.63L14.2 10.24L14.52 9.92C15.7 8.75 15.7 6.85 14.52 5.68L12.4 3.55ZM10.53 7.76C10.78 7.51 10.78 7.1 10.53 6.84C10.27 6.59 9.86 6.59 9.61 6.84L7.25 9.2C6.99 9.46 6.99 9.87 7.25 10.12C7.5 10.38 7.91 10.38 8.17 10.12L10.53 7.76Z" fill="#717681" fill-opacity="1.000000" fill-rule="evenodd"/>
</svg>
