<svg width="24.000000" height="24.000000" viewBox="0 0 24 24" fill="none" xmlns="http://www.w3.org/2000/svg" xmlns:xlink="http://www.w3.org/1999/xlink">
	<desc>
			Created with Pixso.
	</desc>
	<defs/>
	<path id="Shape" d="M14.31 7.11C14.31 5.63 15.52 4.42 17 4.42C18.49 4.42 19.69 5.63 19.69 7.11L19.69 7.19C19.69 7.55 19.98 7.84 20.34 7.84C20.7 7.84 20.99 7.55 20.99 7.19L20.99 7.11C20.99 4.91 19.2 3.12 17 3.12C14.8 3.12 13.01 4.91 13.01 7.11L13.01 9L8 9C6.34 9 5 10.34 5 12L5 17C5 18.65 6.34 20 8 20L16 20C17.65 20 19 18.65 19 17L19 12C19 10.34 17.65 9 16 9L14.31 9L14.31 7.11ZM12 12.99C12.35 12.99 12.65 13.28 12.65 13.64L12.65 15.35C12.65 15.71 12.35 16 12 16C11.64 16 11.35 15.71 11.35 15.35L11.35 13.64C11.35 13.28 11.64 12.99 12 12.99Z" fill="#74767B" fill-opacity="1.000000" fill-rule="evenodd"/>
</svg>
