<svg width="24.000000" height="24.000000" viewBox="0 0 24 24" fill="none" xmlns="http://www.w3.org/2000/svg" xmlns:xlink="http://www.w3.org/1999/xlink">
	<desc>
			Created with Pixso.
	</desc>
	<defs>
		<clipPath id="clip17_1099">
			<rect id="Outline / GPS Outline" width="24.000000" height="24.000000" fill="white" fill-opacity="0"/>
		</clipPath>
	</defs>
	<g clip-path="url(#clip17_1099)">
		<path id="Shape" d="M18.59 5.33C18.59 5.33 18.58 5.33 18.57 5.34L5.4 11.09C5.38 11.1 5.38 11.1 5.38 11.1C5.38 11.11 5.37 11.11 5.37 11.11C5.37 11.11 5.37 11.13 5.37 11.14C5.37 11.16 5.38 11.17 5.38 11.18C5.38 11.18 5.38 11.18 5.39 11.18C5.39 11.18 5.4 11.18 5.41 11.19L10.65 11.98C11.37 12.09 11.93 12.65 12.04 13.37L12.82 18.65C12.83 18.66 12.83 18.67 12.83 18.67C12.83 18.67 12.83 18.68 12.83 18.68C12.84 18.68 12.85 18.69 12.87 18.69C12.89 18.69 12.9 18.69 12.9 18.69C12.9 18.69 12.9 18.68 12.91 18.68C12.91 18.68 12.91 18.67 12.92 18.66L18.64 5.4C18.64 5.39 18.64 5.38 18.64 5.38C18.64 5.38 18.64 5.38 18.64 5.37C18.64 5.37 18.64 5.36 18.63 5.35C18.62 5.33 18.61 5.33 18.6 5.33C18.6 5.33 18.6 5.33 18.59 5.33ZM18.06 4.14C19.18 3.65 20.31 4.79 19.83 5.92L14.11 19.18C13.57 20.43 11.74 20.19 11.54 18.84L10.75 13.57C10.73 13.41 10.61 13.29 10.46 13.27L5.22 12.48C3.88 12.27 3.64 10.44 4.88 9.9L18.06 4.14Z" fill="#717681" fill-opacity="1.000000" fill-rule="evenodd"/>
	</g>
</svg>
