<svg width="24.000000" height="24.000000" viewBox="0 0 24 24" fill="none" xmlns="http://www.w3.org/2000/svg" xmlns:xlink="http://www.w3.org/1999/xlink">
	<desc>
			Created with Pixso.
	</desc>
	<defs>
		<clipPath id="clip6973_1267">
			<rect id="Solid / Map Location Solid" width="24.000000" height="24.000000" fill="white" fill-opacity="0"/>
		</clipPath>
	</defs>
	<g clip-path="url(#clip6973_1267)">
		<path id="Shape" d="M16.27 6.98C15.92 4.15 13.59 2.87 11.4 3C9.21 3.14 7.04 4.68 7 7.54C6.98 8.44 7.27 9.35 7.68 10.19C8.09 11.04 8.64 11.84 9.18 12.53C9.73 13.22 10.27 13.81 10.68 14.22C10.88 14.43 11.05 14.6 11.17 14.71C11.23 14.76 11.28 14.81 11.31 14.84C11.48 14.98 11.78 15.03 11.94 14.89C11.98 14.86 12.07 14.76 12.13 14.71C12.26 14.6 12.43 14.43 12.63 14.22C13.04 13.81 13.58 13.22 14.12 12.53C14.67 11.84 15.22 11.04 15.63 10.19C16.04 9.35 16.32 8.44 16.31 7.54C16.31 7.37 16.29 7.18 16.27 6.98ZM11.65 4.89C10.12 4.89 8.87 6.14 8.87 7.68C8.87 9.21 10.12 10.46 11.65 10.46C13.19 10.46 14.43 9.21 14.43 7.68C14.43 6.14 13.19 4.89 11.65 4.89ZM7.12 11.23L4.67 10.5C3.83 10.25 3 10.87 3 11.74L3 18.53C3 19.1 3.37 19.61 3.92 19.77L7.68 20.9C7.89 20.96 8.1 20.97 8.31 20.93L15.19 19.54C15.39 19.5 15.6 19.5 15.79 19.56L19.35 20.54C20.18 20.77 21 20.15 21 19.29L21 12.49C21 11.9 20.6 11.39 20.04 11.23L16.91 10.37C16.72 10.31 16.52 10.41 16.44 10.59C16.04 11.39 15.51 12.23 14.83 13.09C14.36 13.69 13.84 14.28 13.27 14.86C13.09 15.04 12.92 15.21 12.75 15.36C12.7 15.41 12.65 15.46 12.6 15.51C12.54 15.56 12.41 15.67 12.34 15.71C12.27 15.75 12.19 15.78 12.12 15.81C12.05 15.84 11.97 15.86 11.89 15.87C11.82 15.89 11.73 15.89 11.65 15.89C11.57 15.89 11.49 15.89 11.41 15.87C11.34 15.86 11.26 15.84 11.19 15.81C11.14 15.79 11.09 15.77 11.04 15.75C10.94 15.69 10.85 15.63 10.76 15.56C10.72 15.51 10.61 15.41 10.55 15.36C10.39 15.21 10.21 15.04 10.04 14.86C9.47 14.28 8.95 13.69 8.48 13.09C8.01 12.5 7.62 11.93 7.29 11.37C7.25 11.3 7.19 11.25 7.12 11.23Z" fill="#74767B" fill-opacity="1.000000" fill-rule="evenodd"/>
	</g>
</svg>
