<svg width="24.000000" height="24.000000" viewBox="0 0 24 24" fill="none" xmlns="http://www.w3.org/2000/svg" xmlns:xlink="http://www.w3.org/1999/xlink">
	<desc>
			Created with Pixso.
	</desc>
	<defs/>
	<path id="Shape" d="M11.53 3C13.79 2.87 16.2 4.15 16.55 6.98C16.58 7.18 16.59 7.37 16.59 7.54C16.61 8.41 16.33 9.29 15.93 10.11L20.04 11.23C20.6 11.39 21 11.9 21 12.49L21 19.29C21 20.15 20.18 20.77 19.35 20.55L15.79 19.58C15.6 19.52 15.39 19.52 15.19 19.56L8.31 20.93C8.1 20.97 7.89 20.96 7.68 20.9L3.92 19.77C3.37 19.61 3 19.1 3 18.53L3 11.74C3 10.87 3.83 10.25 4.67 10.5L7.68 11.4C7.89 11.46 8.1 11.47 8.31 11.43L8.42 11.41C8.16 11.02 7.91 10.61 7.7 10.19C7.28 9.35 6.98 8.44 7 7.54C7.04 4.68 9.28 3.14 11.53 3ZM9 12.21L8.49 12.31C8.14 12.38 7.77 12.37 7.43 12.26L4.41 11.36C4.35 11.34 4.28 11.34 4.23 11.35C4.17 11.36 4.11 11.38 4.06 11.42C4 11.46 3.96 11.51 3.94 11.56C3.91 11.62 3.89 11.68 3.89 11.74L3.89 18.53C3.89 18.69 4.03 18.87 4.18 18.91C5.46 19.3 7.68 20 8 20C8.31 20 12.69 19.14 15.02 18.67C15.19 18.64 15.36 18.62 15.52 18.63C15.69 18.64 15.86 18.66 16.03 18.71L19.59 19.68C19.65 19.7 19.71 19.7 19.77 19.69C19.83 19.68 19.89 19.65 19.94 19.61C19.99 19.57 20.03 19.52 20.06 19.47C20.08 19.42 20.1 19.36 20.1 19.29L20.1 12.49C20.1 12.33 19.96 12.14 19.8 12.1L15.46 10.96C15.12 11.52 14.73 12.06 14.34 12.53C13.78 13.22 13.22 13.81 12.8 14.22C12.57 14.45 12.34 14.67 12.09 14.89C11.92 15.03 11.67 15.03 11.5 14.89C11.25 14.67 11.02 14.45 10.79 14.22C10.37 13.81 9.81 13.22 9.25 12.53C9.16 12.43 9.08 12.32 9 12.21ZM11.8 13.96C11.69 13.87 11.57 13.75 11.43 13.61C11.03 13.22 10.49 12.65 9.95 12C9.42 11.34 8.9 10.59 8.51 9.81C8.12 9.04 7.88 8.26 7.89 7.55C7.93 5.25 9.7 3.98 11.59 3.87C13.48 3.76 15.37 4.81 15.66 7.09C15.68 7.27 15.7 7.42 15.7 7.55C15.71 8.26 15.47 9.04 15.08 9.81C14.7 10.59 14.17 11.34 13.64 12C13.1 12.65 12.57 13.22 12.16 13.61C12.02 13.75 11.9 13.87 11.8 13.96ZM8.93 7.68C8.93 6.14 10.21 4.89 11.79 4.89C13.38 4.89 14.66 6.14 14.66 7.68C14.66 9.21 13.38 10.46 11.79 10.46C10.21 10.46 8.93 9.21 8.93 7.68ZM11.79 5.77C10.71 5.77 9.83 6.62 9.83 7.68C9.83 8.73 10.71 9.59 11.79 9.59C12.88 9.59 13.76 8.73 13.76 7.68C13.76 6.62 12.88 5.77 11.79 5.77Z" fill="#74767B" fill-opacity="1.000000" fill-rule="evenodd"/>
</svg>
