<svg xmlns="http://www.w3.org/2000/svg" fill="none" viewBox="0 0 24 24" focusable="false"><path fill="#74767B" fill-rule="evenodd" d="M10.9879 1.3C10.6289 1.3 10.3379 1.00899 10.3379 0.650001C10.3379 0.291016 10.6289 0 10.9879 0L17.1991 0C17.5581 0 17.8491 0.291015 17.8491 0.65C17.8491 1.00899 17.5581 1.3 17.1991 1.3L10.9879 1.3ZM1.11715 0.198035L8.04731 7.36099L10.5772 4.83111L9.34273 3.59667C9.08889 3.34284 9.08888 2.93128 9.34272 2.67743C9.59656 2.42359 10.0081 2.42359 10.262 2.67743L17.6591 10.0744C17.9129 10.3282 17.9129 10.7398 17.6591 10.9936C17.4052 11.2475 16.9937 11.2475 16.7398 10.9936L15.5313 9.78509L9.69307 15.6233L11.0096 16.9398C11.2634 17.1936 11.2634 17.6052 11.0096 17.859C10.7557 18.1128 10.3442 18.1129 10.0903 17.859L2.50289 10.2717C2.24904 10.0179 2.24904 9.60632 2.50288 9.35248C2.75671 9.09864 3.16827 9.09863 3.42211 9.35247L4.73898 10.6693L7.12794 8.28035L0.182853 1.10197C-0.0667609 0.843968 -0.0599637 0.432467 0.198035 0.182853C0.456033 -0.0667605 0.867535 -0.0599637 1.11715 0.198035Z" transform="matrix(1 0 0 -1 3.128 21.974)"/></svg>