<svg xmlns="http://www.w3.org/2000/svg" fill="none" viewBox="0 0 24 24" focusable="false"><path fill="#74767B" fill-rule="evenodd" d="M11.5338 1.3C11.1748 1.3 10.8838 1.00899 10.8838 0.65C10.8838 0.291015 11.1748 0 11.5338 0L17.1995 0C17.5584 0 17.8495 0.291016 17.8495 0.650001C17.8495 1.00899 17.5584 1.3 17.1995 1.3L11.5338 1.3ZM1.11715 0.198035L8.04735 7.36103L10.5513 4.85707L10.5772 4.8312L9.34259 3.59664C9.08875 3.3428 9.08875 2.93125 9.34259 2.6774C9.59642 2.42356 10.008 2.42356 10.2618 2.67739L17.6589 10.0743C17.9128 10.3282 17.9128 10.7397 17.6589 10.9936C17.4051 11.2474 16.9935 11.2474 16.7397 10.9936L15.5313 9.78519L15.5053 9.8111L9.71035 15.6061L9.69329 15.6232L11.0099 16.9398C11.2638 17.1936 11.2638 17.6052 11.0099 17.859C10.7561 18.1128 10.3445 18.1129 10.0907 17.859L2.50324 10.2717C2.24939 10.0179 2.24939 9.60632 2.50323 9.35248C2.75706 9.09863 3.16862 9.09863 3.42246 9.35247L4.7392 10.6692L4.75632 10.6521L7.12799 8.2804L0.182853 1.10197C-0.0667609 0.843968 -0.0599637 0.432467 0.198035 0.182853C0.456033 -0.0667605 0.867535 -0.0599637 1.11715 0.198035ZM14.5861 8.89186L8.79111 14.6869L5.67556 11.5713L11.4706 5.77631L14.5861 8.89186Z" transform="matrix(1 0 0 -1 3.128 21.974)"/></svg>