<svg xmlns="http://www.w3.org/2000/svg" fill="none" viewBox="0 0 24 24" focusable="false"><defs><clipPath id="Check_Solid_svg__a"><path fill="#fff" fill-opacity="0" d="M0 0h24v24H0z"/></clipPath></defs><g clip-path="url(#Check_Solid_svg__a)"><path fill="#74767B" fill-rule="evenodd" d="M3 12c0-4.98 4.02-9 9-9 4.97 0 9 4.02 9 9a9 9 0 0 1-9 9c-4.98 0-9-4.03-9-9m7.79 3.28c.27.28.73.27 1-.02l4.42-4.8c.24-.27.22-.68-.03-.92a.66.66 0 0 0-.93.04l-3.98 4.34-2.4-2.4a.67.67 0 0 0-.93 0c-.25.25-.25.67 0 .92z"/></g></svg>