<svg xmlns="http://www.w3.org/2000/svg" fill="none" viewBox="0 0 24 24" focusable="false"><defs><clipPath id="Check_Outline_svg__a"><path fill="#fff" fill-opacity="0" d="M0 0h24v24H0z"/></clipPath></defs><g clip-path="url(#Check_Outline_svg__a)"><path fill="#717681" fill-rule="evenodd" d="M3 12c0-4.98 4.02-9 9-9 4.97 0 9 4.02 9 9a9 9 0 0 1-9 9c-4.98 0-9-4.03-9-9m9-7.71c-4.26 0-7.71 3.45-7.71 7.71 0 4.25 3.45 7.7 7.71 7.7 4.25 0 7.7-3.45 7.7-7.7 0-4.26-3.45-7.71-7.7-7.71m-.21 10.98c-.27.29-.73.3-1 .02l-2.84-2.84a.658.658 0 0 1 0-.92c.25-.25.67-.25.92 0l2.4 2.4 3.99-4.34c.24-.27.65-.28.92-.05.25.24.27.66.04.93z"/></g></svg>