<svg xmlns="http://www.w3.org/2000/svg" fill="none" viewBox="0 0 24 24" focusable="false"><path fill="#717681" fill-rule="evenodd" d="M12 3c-4.98 0-9 4.02-9 9 0 4.97 4.02 9 9 9a9 9 0 0 0 9-9c0-4.98-4.03-9-9-9m-7.71 9c0-4.26 3.45-7.71 7.71-7.71 4.25 0 7.7 3.45 7.7 7.71 0 4.25-3.45 7.7-7.7 7.7-4.26 0-7.71-3.45-7.71-7.7M16 8.08c.25.25.25.66 0 .92l-3.09 3 3 3.08c.26.25.26.66 0 .92-.25.25-.66.25-.91 0l-3-3.09L9 16c-.26.25-.67.25-.92 0a.64.64 0 0 1 0-.92l3-3.08-3-3a.64.64 0 0 1 0-.92.64.64 0 0 1 .92 0l3 3 3.08-3a.64.64 0 0 1 .92 0"/></svg>