<svg xmlns="http://www.w3.org/2000/svg" fill="none" viewBox="0 0 24 24" focusable="false"><defs><clipPath id="Close_Solid_svg__a"><path fill="#fff" fill-opacity="0" d="M0 0h24v24H0z"/></clipPath></defs><g clip-path="url(#Close_Solid_svg__a)"><path fill="#74767B" fill-rule="evenodd" d="M3 12c0-4.98 4.02-9 9-9 4.97 0 9 4.02 9 9a9 9 0 0 1-9 9c-4.98 0-9-4.03-9-9m13-3.92c.25.25.25.66 0 .92l-3.09 3 3 3.08c.26.25.26.66 0 .92-.25.25-.66.25-.91 0l-3-3.09L9 16c-.26.25-.67.25-.92 0a.64.64 0 0 1 0-.92l3-3.08-3-3a.64.64 0 0 1 0-.92.64.64 0 0 1 .92 0l3 3 3.08-3a.64.64 0 0 1 .92 0"/></g></svg>