<svg xmlns="http://www.w3.org/2000/svg" fill="none" viewBox="0 0 24 24" focusable="false"><defs><clipPath id="Close_Outline_svg__a"><path fill="#fff" fill-opacity="0" d="M0 0h24v24H0z"/></clipPath></defs><g clip-path="url(#Close_Outline_svg__a)"><path fill="#717681" d="M6.4 5.49a.63.63 0 0 0-.91 0c-.26.25-.26.66 0 .91l5.59 5.59-5.49 5.5c-.26.25-.26.66 0 .91.25.26.66.26.91 0l5.5-5.49 5.49 5.49c.25.26.66.26.91 0 .26-.25.26-.66 0-.91l-5.49-5.5L18.5 6.4c.26-.25.26-.66 0-.91a.63.63 0 0 0-.91 0L12 11.08z"/></g></svg>