<svg xmlns="http://www.w3.org/2000/svg" fill="none" viewBox="0 0 24 24" focusable="false"><defs><clipPath id="Cut_Outline_svg__a"><path fill="#fff" fill-opacity="0" d="M0 24h24V0H0z"/></clipPath></defs><g clip-path="url(#Cut_Outline_svg__a)"><path fill="#717681" fill-rule="evenodd" d="m12.36 11.43-1.98-1.98a3.508 3.508 0 0 0-2.89-5.5c-1.94 0-3.52 1.57-3.52 3.51s1.58 3.51 3.52 3.51c.73 0 1.41-.22 1.97-.61l1.62 1.62-1.57 1.58a3.54 3.54 0 0 0-2.02-.64c-1.94 0-3.52 1.58-3.52 3.52s1.58 3.51 3.52 3.51S11 18.38 11 16.44c0-.72-.22-1.39-.59-1.95L12 12.9l6.95 6.95c.25.25.66.25.92 0 .25-.25.25-.67 0-.92l-7.31-7.31c-.02-.04-.05-.07-.09-.11a.4.4 0 0 0-.11-.08m-3.21 3.55a2.21 2.21 0 0 1-1.66 3.67 2.22 2.22 0 0 1-2.22-2.21c0-1.22 1-2.22 2.22-2.22.58 0 1.11.23 1.51.6.02.03.04.06.07.09s.06.05.08.07m.55-7.52c0 1.22-.99 2.21-2.21 2.21a2.22 2.22 0 0 1-2.22-2.21c0-1.22 1-2.21 2.22-2.21s2.21.99 2.21 2.21m3.69 2.22c-.25.25-.25.66 0 .91.26.26.67.26.92 0l5.56-5.55c.25-.26.25-.67 0-.92a.66.66 0 0 0-.92 0z"/></g></svg>