<svg xmlns="http://www.w3.org/2000/svg" fill="none" viewBox="0 0 24 24" focusable="false"><path fill="#74767B" fill-rule="evenodd" d="M8.38835 8.61464L6.40912 10.5939C6.79788 11.1592 7.02543 11.844 7.02543 12.5819C7.02543 14.5219 5.45274 16.0946 3.51272 16.0946C1.5727 16.0946 0 14.5219 0 12.5819C0 10.6419 1.5727 9.06921 3.51272 9.06921C4.24505 9.06921 4.92503 9.29332 5.48784 9.67669L7.10833 8.05619L5.53093 6.47878C4.95989 6.88032 4.26383 7.11607 3.51272 7.11607C1.5727 7.11607 0 5.54337 0 3.60335C0 1.66333 1.5727 0.0906379 3.51272 0.0906379C5.45274 0.0906379 7.02543 1.66333 7.02543 3.60335C7.02543 4.32248 6.80934 4.99113 6.43855 5.54792L8.02756 7.13695L14.9741 0.190382C15.2279 -0.0634592 15.6395 -0.0634611 15.8933 0.190378C16.1471 0.444218 16.1471 0.855775 15.8933 1.10962L8.58602 8.41697C8.56116 8.45578 8.53176 8.49253 8.49783 8.52646C8.4639 8.56039 8.42716 8.58978 8.38835 8.61464ZM5.17825 5.06015C5.51895 4.67094 5.72543 4.16126 5.72543 3.60335C5.72543 2.3813 4.73477 1.39064 3.51272 1.39064C2.29067 1.39064 1.3 2.3813 1.3 3.60335C1.3 4.8254 2.29067 5.81607 3.51272 5.81607C4.09511 5.81607 4.62495 5.59107 5.02005 5.22326C5.04288 5.18956 5.06922 5.15753 5.09907 5.12768C5.12404 5.10271 5.15053 5.0802 5.17825 5.06015ZM5.72543 12.5819C5.72543 11.3599 4.73477 10.3692 3.51272 10.3692C2.29067 10.3692 1.3 11.3599 1.3 12.5819C1.3 13.804 2.29067 14.7946 3.51272 14.7946C4.73477 14.7946 5.72543 13.804 5.72543 12.5819ZM9.41706 10.3649C9.16322 10.1111 9.16322 9.69955 9.41706 9.44571C9.6709 9.19187 10.0825 9.19187 10.3363 9.44571L15.8928 15.0023C16.1467 15.2561 16.1467 15.6677 15.8928 15.9215C15.639 16.1754 15.2274 16.1754 14.9736 15.9215L9.41706 10.3649Z" transform="matrix(1 0 0 -1 3.98 20.045)"/></svg>