<svg xmlns="http://www.w3.org/2000/svg" fill="none" viewBox="0 0 24 24" focusable="false"><path fill="#74767B" fill-rule="evenodd" d="M18 9C18 4.02944 13.9706 0 9 0C4.02944 0 0 4.02944 0 9C0 13.9706 4.02944 18 9 18C13.9706 18 18 13.9706 18 9ZM5.66243 4.77368C6.28263 4.77368 6.7854 5.27645 6.7854 5.89665C6.7854 6.51685 6.28263 7.01962 5.66243 7.01962C5.04223 7.01962 4.53946 6.51685 4.53946 5.89665C4.53946 5.27645 5.04223 4.77368 5.66243 4.77368ZM5.66243 3.47368C7.0006 3.47368 8.0854 4.55848 8.0854 5.89665C8.0854 6.31846 7.97761 6.7151 7.78808 7.06052L8.77642 8.04887L13.1693 3.6559C13.4232 3.40206 13.8347 3.40206 14.0886 3.6559C14.3424 3.90974 14.3424 4.32129 14.0886 4.57514L7.77009 10.8937C7.97078 11.2466 8.0854 11.6548 8.0854 12.0898C8.0854 13.4279 7.0006 14.5127 5.66243 14.5127C4.32426 14.5127 3.23946 13.4279 3.23946 12.0898C3.23946 10.7516 4.32426 9.6668 5.66243 9.6668C6.0934 9.6668 6.49809 9.77932 6.84872 9.97658L7.85719 8.96811L6.88064 7.99156C6.52274 8.20013 6.10654 8.31962 5.66243 8.31962C4.32426 8.31962 3.23946 7.23482 3.23946 5.89665C3.23946 4.55848 4.32426 3.47368 5.66243 3.47368ZM6.7854 12.0898C6.7854 11.4696 6.28263 10.9668 5.66243 10.9668C5.04223 10.9668 4.53946 11.4696 4.53946 12.0898C4.53946 12.71 5.04223 13.2127 5.66243 13.2127C6.28263 13.2127 6.7854 12.71 6.7854 12.0898ZM10.1455 11.2565C9.8917 11.0026 9.8917 10.5911 10.1455 10.3372C10.3994 10.0834 10.8109 10.0834 11.0648 10.3372L14.1631 13.4356C14.417 13.6895 14.417 14.101 14.1631 14.3549C13.9093 14.6087 13.4977 14.6087 13.2439 14.3548L10.1455 11.2565Z" transform="matrix(1 0 0 -1 3 21)"/></svg>