<svg xmlns="http://www.w3.org/2000/svg" fill="none" viewBox="0 0 24 24" focusable="false"><path fill="#717681" fill-rule="evenodd" d="M21 12a9 9 0 1 1-18 0 9 9 0 0 1 18 0M8.662 16.226a1.123 1.123 0 1 0 0-2.246 1.123 1.123 0 0 0 0 2.246m0 1.3a2.423 2.423 0 0 0 2.126-3.586l.988-.989 4.393 4.393a.65.65 0 0 0 .92-.92l-6.319-6.318a2.423 2.423 0 1 0-.921.917l1.008 1.009-.976.976a2.423 2.423 0 1 0-1.218 4.518M9.785 8.91a1.123 1.123 0 1 1-2.246 0 1.123 1.123 0 0 1 2.246 0m3.36.834a.65.65 0 0 0 .92.919l3.098-3.099a.65.65 0 1 0-.92-.919l-3.097 3.099" clip-rule="evenodd"/></svg>