<svg xmlns="http://www.w3.org/2000/svg" fill="none" viewBox="0 0 24 24" focusable="false"><defs><clipPath id="Cut_Solid_svg__a"><path fill="#fff" fill-opacity="0" d="M0 24h24V0H0z"/></clipPath></defs><g clip-path="url(#Cut_Solid_svg__a)"><path fill="#74767B" fill-rule="evenodd" d="M21 12a9 9 0 0 1-9 9c-4.98 0-9-4.03-9-9 0-4.98 4.02-9 9-9 4.97 0 9 4.02 9 9M8.66 16.22c.62 0 1.12-.5 1.12-1.12s-.5-1.12-1.12-1.12-1.13.5-1.13 1.12.51 1.12 1.13 1.12m0 1.3c1.34 0 2.42-1.08 2.42-2.42 0-.42-.11-.82-.3-1.17l.99-.98 4.39 4.39c.26.25.67.25.92 0a.64.64 0 0 0 0-.92l-6.31-6.32c.2-.35.31-.76.31-1.19a2.424 2.424 0 1 0-2.42 2.42c.43 0 .83-.11 1.18-.31l1.01 1.01-.97.97c-.36-.21-.78-.32-1.22-.32-1.34 0-2.43 1.08-2.43 2.42s1.09 2.42 2.43 2.42m1.12-8.61c0 .62-.5 1.12-1.12 1.12s-1.13-.5-1.13-1.12.51-1.13 1.13-1.13 1.12.51 1.12 1.13m3.36.83c-.25.25-.25.66 0 .92.25.25.67.25.92 0l3.1-3.1c.25-.25.25-.67 0-.92a.66.66 0 0 0-.92 0z"/></g></svg>