<svg xmlns="http://www.w3.org/2000/svg" fill="none" viewBox="0 0 24 24" focusable="false"><path fill="#717681" fill-rule="evenodd" d="M4 5.29C4 4.58 4.58 4 5.29 4H6.7C7.41 4 8 4.58 8 5.29V6.7C8 7.41 7.41 8 6.7 8H5.29C4.58 8 4 7.41 4 6.7zm6 0c0-.71.58-1.29 1.29-1.29h1.41c.71 0 1.3.58 1.3 1.29V6.7c0 .71-.59 1.3-1.3 1.3h-1.41C10.58 8 10 7.41 10 6.7zm6 0c0-.71.58-1.29 1.29-1.29h1.41c.71 0 1.3.58 1.3 1.29V6.7c0 .71-.59 1.3-1.3 1.3h-1.41C16.58 8 16 7.41 16 6.7zm-10.25 0c-.25 0-.46.21-.46.46v.49c0 .25.21.46.46.46h.49c.25 0 .46-.21.46-.46v-.49c0-.25-.21-.46-.46-.46zm6 0c-.25 0-.46.21-.46.46v.49c0 .25.21.46.46.46h.49c.25 0 .46-.21.46-.46v-.49c0-.25-.21-.46-.46-.46zm6 0c-.25 0-.46.21-.46.46v.49c0 .25.21.46.46.46h.49c.25 0 .46-.21.46-.46v-.49c0-.25-.21-.46-.46-.46zM4 11.3c0-.72.58-1.3 1.29-1.3H6.7c.71 0 1.3.58 1.3 1.3v1.4c0 .71-.59 1.3-1.3 1.3H5.29C4.58 14 4 13.41 4 12.7zm6 0c0-.72.58-1.3 1.29-1.3h1.41c.71 0 1.3.58 1.3 1.3v1.4c0 .71-.59 1.3-1.3 1.3h-1.41c-.71 0-1.29-.59-1.29-1.3zm6 0c0-.72.58-1.3 1.29-1.3h1.41c.71 0 1.3.58 1.3 1.3v1.4c0 .71-.59 1.3-1.3 1.3h-1.41c-.71 0-1.29-.59-1.29-1.3zm-10.25 0c-.25 0-.46.2-.46.45v.49c0 .25.21.46.46.46h.49c.25 0 .46-.21.46-.46v-.49c0-.25-.21-.45-.46-.45zm6 0c-.25 0-.46.2-.46.45v.49c0 .25.21.46.46.46h.49c.25 0 .46-.21.46-.46v-.49c0-.25-.21-.45-.46-.45zm6 0c-.25 0-.46.2-.46.45v.49c0 .25.21.46.46.46h.49c.25 0 .46-.21.46-.46v-.49c0-.25-.21-.45-.46-.45zM4 17.29c0-.71.58-1.29 1.29-1.29H6.7c.71 0 1.3.58 1.3 1.29v1.41c0 .71-.59 1.3-1.3 1.3H5.29C4.58 20 4 19.41 4 18.7zm6 0c0-.71.58-1.29 1.29-1.29h1.41c.71 0 1.3.58 1.3 1.29v1.41c0 .71-.59 1.3-1.3 1.3h-1.41c-.71 0-1.29-.59-1.29-1.3zm6 0c0-.71.58-1.29 1.29-1.29h1.41c.71 0 1.3.58 1.3 1.29v1.41c0 .71-.59 1.3-1.3 1.3h-1.41c-.71 0-1.29-.59-1.29-1.3zm-10.25 0c-.25 0-.46.21-.46.46v.49c0 .25.21.46.46.46h.49c.25 0 .46-.21.46-.46v-.49c0-.25-.21-.46-.46-.46zm6 0c-.25 0-.46.21-.46.46v.49c0 .25.21.46.46.46h.49c.25 0 .46-.21.46-.46v-.49c0-.25-.21-.46-.46-.46zm6 0c-.25 0-.46.21-.46.46v.49c0 .25.21.46.46.46h.49c.25 0 .46-.21.46-.46v-.49c0-.25-.21-.46-.46-.46z"/></svg>