<svg xmlns="http://www.w3.org/2000/svg" width="24" height="24" fill="none"><path fill="#717681" d="M4 5.3A1.3 1.3 0 0 1 5.3 4h1.4A1.3 1.3 0 0 1 8 5.3v1.4A1.3 1.3 0 0 1 6.7 8H5.3A1.3 1.3 0 0 1 4 6.7V5.3ZM4 11.3A1.3 1.3 0 0 1 5.3 10h1.4A1.3 1.3 0 0 1 8 11.3v1.4A1.3 1.3 0 0 1 6.7 14H5.3A1.3 1.3 0 0 1 4 12.7v-1.4ZM5.3 16A1.3 1.3 0 0 0 4 17.3v1.4A1.3 1.3 0 0 0 5.3 20h1.4A1.3 1.3 0 0 0 8 18.7v-1.4A1.3 1.3 0 0 0 6.7 16H5.3ZM10 5.3A1.3 1.3 0 0 1 11.3 4h1.4A1.3 1.3 0 0 1 14 5.3v1.4A1.3 1.3 0 0 1 12.7 8h-1.4A1.3 1.3 0 0 1 10 6.7V5.3ZM11.3 10a1.3 1.3 0 0 0-1.3 1.3v1.4a1.3 1.3 0 0 0 1.3 1.3h1.4a1.3 1.3 0 0 0 1.3-1.3v-1.4a1.3 1.3 0 0 0-1.3-1.3h-1.4ZM10 17.3a1.3 1.3 0 0 1 1.3-1.3h1.4a1.3 1.3 0 0 1 1.3 1.3v1.4a1.3 1.3 0 0 1-1.3 1.3h-1.4a1.3 1.3 0 0 1-1.3-1.3v-1.4ZM17.3 4A1.3 1.3 0 0 0 16 5.3v1.4A1.3 1.3 0 0 0 17.3 8h1.4A1.3 1.3 0 0 0 20 6.7V5.3A1.3 1.3 0 0 0 18.7 4h-1.4ZM16 11.3a1.3 1.3 0 0 1 1.3-1.3h1.4a1.3 1.3 0 0 1 1.3 1.3v1.4a1.3 1.3 0 0 1-1.3 1.3h-1.4a1.3 1.3 0 0 1-1.3-1.3v-1.4ZM17.3 16a1.3 1.3 0 0 0-1.3 1.3v1.4a1.3 1.3 0 0 0 1.3 1.3h1.4a1.3 1.3 0 0 0 1.3-1.3v-1.4a1.3 1.3 0 0 0-1.3-1.3h-1.4Z"/></svg>