<svg xmlns="http://www.w3.org/2000/svg" fill="none" viewBox="0 0 24 24" focusable="false"><path fill="#717681" fill-rule="evenodd" d="M5.3 4A1.3 1.3 0 0 0 4 5.3v1.4A1.3 1.3 0 0 0 5.3 8h1.4A1.3 1.3 0 0 0 8 6.7V5.3A1.3 1.3 0 0 0 6.7 4H5.3Zm.455 1.3a.455.455 0 0 0-.455.455v.49c0 .251.204.455.455.455h.49a.455.455 0 0 0 .455-.455v-.49a.455.455 0 0 0-.455-.455h-.49ZM5.3 10A1.3 1.3 0 0 0 4 11.3v1.4A1.3 1.3 0 0 0 5.3 14h1.4A1.3 1.3 0 0 0 8 12.7v-1.4A1.3 1.3 0 0 0 6.7 10H5.3Zm.455 1.3a.455.455 0 0 0-.455.455v.49c0 .251.204.455.455.455h.49a.455.455 0 0 0 .455-.455v-.49a.455.455 0 0 0-.455-.455h-.49ZM4 17.3A1.3 1.3 0 0 1 5.3 16h1.4A1.3 1.3 0 0 1 8 17.3v1.4A1.3 1.3 0 0 1 6.7 20H5.3A1.3 1.3 0 0 1 4 18.7v-1.4Zm1.3.455c0-.251.204-.455.455-.455h.49c.251 0 .455.204.455.455v.49a.455.455 0 0 1-.455.455h-.49a.455.455 0 0 1-.455-.455v-.49ZM11.3 4A1.3 1.3 0 0 0 10 5.3v1.4A1.3 1.3 0 0 0 11.3 8h1.4A1.3 1.3 0 0 0 14 6.7V5.3A1.3 1.3 0 0 0 12.7 4h-1.4Zm.455 1.3a.455.455 0 0 0-.455.455v.49c0 .251.204.455.455.455h.49a.455.455 0 0 0 .455-.455v-.49a.455.455 0 0 0-.455-.455h-.49ZM10 11.3a1.3 1.3 0 0 1 1.3-1.3h1.4a1.3 1.3 0 0 1 1.3 1.3v1.4a1.3 1.3 0 0 1-1.3 1.3h-1.4a1.3 1.3 0 0 1-1.3-1.3v-1.4Zm1.3.455c0-.251.204-.455.455-.455h.49c.251 0 .455.204.455.455v.49a.455.455 0 0 1-.455.455h-.49a.455.455 0 0 1-.455-.455v-.49ZM11.3 16a1.3 1.3 0 0 0-1.3 1.3v1.4a1.3 1.3 0 0 0 1.3 1.3h1.4a1.3 1.3 0 0 0 1.3-1.3v-1.4a1.3 1.3 0 0 0-1.3-1.3h-1.4Zm.455 1.3a.455.455 0 0 0-.455.455v.49c0 .251.204.455.455.455h.49a.455.455 0 0 0 .455-.455v-.49a.455.455 0 0 0-.455-.455h-.49ZM16 5.3A1.3 1.3 0 0 1 17.3 4h1.4A1.3 1.3 0 0 1 20 5.3v1.4A1.3 1.3 0 0 1 18.7 8h-1.4A1.3 1.3 0 0 1 16 6.7V5.3Zm1.3.455c0-.251.204-.455.455-.455h.49c.251 0 .455.204.455.455v.49a.455.455 0 0 1-.455.455h-.49a.455.455 0 0 1-.455-.455v-.49ZM17.3 10a1.3 1.3 0 0 0-1.3 1.3v1.4a1.3 1.3 0 0 0 1.3 1.3h1.4a1.3 1.3 0 0 0 1.3-1.3v-1.4a1.3 1.3 0 0 0-1.3-1.3h-1.4Zm.455 1.3a.455.455 0 0 0-.455.455v.49c0 .251.204.455.455.455h.49a.455.455 0 0 0 .455-.455v-.49a.455.455 0 0 0-.455-.455h-.49ZM16 17.3a1.3 1.3 0 0 1 1.3-1.3h1.4a1.3 1.3 0 0 1 1.3 1.3v1.4a1.3 1.3 0 0 1-1.3 1.3h-1.4a1.3 1.3 0 0 1-1.3-1.3v-1.4Zm1.3.455c0-.251.204-.455.455-.455h.49c.251 0 .455.204.455.455v.49a.455.455 0 0 1-.455.455h-.49a.455.455 0 0 1-.455-.455v-.49Z" clip-rule="evenodd"/></svg>