<svg xmlns="http://www.w3.org/2000/svg" fill="none" viewBox="0 0 24 24" focusable="false"><defs><clipPath id="Drag_Outline_svg__a"><path fill="#fff" fill-opacity="0" d="M0 0h24v24H0z"/></clipPath></defs><g clip-path="url(#Drag_Outline_svg__a)"><path fill="#74767B" fill-rule="evenodd" d="M7.99 7a2 2 0 1 0 0-4c-1.11 0-2 .89-2 2a2 2 0 0 0 2 2M16 7a2 2 0 1 0 0-4c-1.11 0-2 .89-2 2a2 2 0 0 0 2 2m-6.01 5a2 2 0 1 1-4 0c0-1.11.89-2 2-2a2 2 0 0 1 2 2M16 14a2 2 0 1 0 0-4c-1.11 0-2 .89-2 2a2 2 0 0 0 2 2m-8.01 7a2 2 0 1 0 0-4c-1.11 0-2 .89-2 2a2 2 0 0 0 2 2M18 19a2 2 0 1 1-4 0c0-1.11.89-2 2-2a2 2 0 0 1 2 2"/></g></svg>