<svg xmlns="http://www.w3.org/2000/svg" fill="none" viewBox="0 0 24 24" focusable="false"><defs><clipPath id="Drag_Solid_svg__a"><path fill="#fff" fill-opacity="0" d="M0 0h24v24H0z"/></clipPath></defs><g clip-path="url(#Drag_Solid_svg__a)"><path fill="#74767B" fill-rule="evenodd" d="M3 12c0-4.98 4.02-9 9-9 4.97 0 9 4.02 9 9a9 9 0 0 1-9 9c-4.98 0-9-4.03-9-9m7.7-4.5c0-.72-.59-1.3-1.31-1.3a1.295 1.295 0 0 0 0 2.59c.72 0 1.31-.58 1.31-1.29m0 4.5c0-.72-.59-1.3-1.31-1.3-.71 0-1.29.58-1.29 1.3 0 .71.58 1.3 1.29 1.3.72 0 1.31-.59 1.31-1.3m-1.31 3.2c.72 0 1.31.58 1.31 1.3 0 .71-.59 1.29-1.31 1.29a1.295 1.295 0 0 1 0-2.59m6.5-3.2c0-.72-.58-1.3-1.29-1.3-.72 0-1.31.58-1.31 1.3 0 .71.59 1.3 1.31 1.3.71 0 1.29-.59 1.29-1.3M14.6 6.2a1.295 1.295 0 0 1 0 2.59c-.72 0-1.31-.58-1.31-1.29 0-.72.59-1.3 1.31-1.3m1.29 10.3c0-.72-.58-1.3-1.29-1.3-.72 0-1.31.58-1.31 1.3 0 .71.59 1.29 1.31 1.29.71 0 1.29-.58 1.29-1.29"/></g></svg>