<svg xmlns="http://www.w3.org/2000/svg" fill="none" viewBox="0 0 24 24" focusable="false"><path fill="#717681" d="M12 14.773a.65.65 0 0 0 .65-.65V8.977a.65.65 0 1 0-1.3 0v5.146c0 .36.291.65.65.65M12.85 16.979a.85.85 0 1 1-1.7 0 .85.85 0 0 1 1.7 0"/><path fill="#717681" fill-rule="evenodd" d="M5.162 21h13.676c2.302 0 3.746-2.485 2.607-4.485L14.607 4.513c-1.151-2.02-4.063-2.02-5.213 0L2.556 16.515C1.416 18.515 2.86 21 5.162 21m0-1.3h13.676a1.7 1.7 0 0 0 1.477-2.542L13.477 5.156c-.652-1.144-2.302-1.144-2.954 0L3.685 17.158A1.7 1.7 0 0 0 5.162 19.7" clip-rule="evenodd"/></svg>