<svg xmlns="http://www.w3.org/2000/svg" fill="none" viewBox="0 0 24 24" focusable="false"><defs><clipPath id="Error_Outline_svg__a"><path fill="#fff" fill-opacity="0" d="M0 0h24v24H0z"/></clipPath></defs><g clip-path="url(#Error_Outline_svg__a)"><path fill="#74767B" fill-rule="evenodd" d="M12 3c-4.98 0-9 4.02-9 9 0 4.97 4.02 9 9 9a9 9 0 0 0 9-9c0-4.98-4.03-9-9-9m-7.71 9c0-4.26 3.45-7.71 7.71-7.71 4.25 0 7.7 3.45 7.7 7.71 0 4.25-3.45 7.7-7.7 7.7-4.26 0-7.71-3.45-7.71-7.7M12 13.69c.35 0 .64-.29.64-.65V7.89c0-.35-.29-.65-.64-.65-.36 0-.65.3-.65.65v5.15c0 .36.29.65.65.65m.85 2.21a.856.856 0 0 1-1.71 0 .856.856 0 0 1 1.71 0"/></g></svg>