<svg xmlns="http://www.w3.org/2000/svg" fill="none" viewBox="0 0 24 24" focusable="false"><path fill="#717681" fill-rule="evenodd" d="M18.83 21H5.16c-2.3 0-3.75-2.49-2.61-4.49l6.84-12c1.15-2.02 4.06-2.02 5.21 0l6.84 12c1.14 2-.3 4.49-2.61 4.49m0-1.3H5.16c-1.31 0-2.13-1.41-1.48-2.55l6.84-12c.65-1.14 2.3-1.14 2.95 0l6.84 12c.65 1.14-.17 2.55-1.48 2.55M12 14.77c.35 0 .64-.29.64-.65V8.97c0-.36-.29-.65-.64-.65-.36 0-.65.29-.65.65v5.15c0 .36.29.65.65.65m.85 2.2a.856.856 0 0 1-1.71 0 .856.856 0 0 1 1.71 0"/></svg>