<svg xmlns="http://www.w3.org/2000/svg" fill="none" viewBox="0 0 24 24" focusable="false"><path fill="#717681" fill-rule="evenodd" d="M4.382 2.207a.65.65 0 0 1 .911.119l2.72 3.535A9.7 9.7 0 0 1 12 5c4.88 0 8.134 3.655 9.563 5.682a2.27 2.27 0 0 1 0 2.636c-.86 1.22-2.381 3.03-4.52 4.278l2.551 3.317a.65.65 0 1 1-1.03.793L4.263 3.118a.65.65 0 0 1 .119-.911m11.538 13.93A5.7 5.7 0 0 0 9.004 7.15l1.62 2.106a3.052 3.052 0 0 1 4.31 3.296.6.6 0 0 1-.015.143 3 3 0 0 1-.393.925q-.12.192-.264.364zM5.765 7.2c-1.52 1.144-2.637 2.504-3.328 3.483a2.27 2.27 0 0 0 0 2.636C3.867 15.345 7.119 19 12 19a9.6 9.6 0 0 0 2.575-.351l-.918-1.193a5.7 5.7 0 0 1-6.505-8.454zm6.053 7.866h-.021a1 1 0 0 0-.06-.104zm-6.11-6.138A15 15 0 0 0 3.5 11.432a.97.97 0 0 0 0 1.136c.522.74 1.263 1.654 2.21 2.505A7 7 0 0 1 5 12c0-1.102.255-2.145.709-3.073m12.583 0a15 15 0 0 1 2.21 2.505.97.97 0 0 1 0 1.136 15 15 0 0 1-2.21 2.505c.454-.928.709-1.97.709-3.073a7 7 0 0 0-.709-3.073" clip-rule="evenodd"/></svg>