<svg xmlns="http://www.w3.org/2000/svg" fill="none" viewBox="0 0 24 24" focusable="false"><defs><clipPath id="Eye_Off_Outline_svg__a"><path fill="#fff" fill-opacity="0" d="M0 0h24v24H0z"/></clipPath></defs><g clip-path="url(#Eye_Off_Outline_svg__a)"><path fill="#717681" fill-rule="evenodd" d="M4.38 2.2c.28-.22.69-.16.91.12l2.72 3.54c1.17-.53 2.5-.87 3.99-.87 4.88 0 8.13 3.66 9.56 5.69.56.8.56 1.83 0 2.63-.86 1.22-2.38 3.03-4.52 4.28l2.55 3.32c.22.28.17.69-.12.91-.28.22-.69.17-.91-.12L4.26 3.11a.643.643 0 0 1 .12-.91m11.54 13.93A5.708 5.708 0 0 0 17.7 12c0-3.15-2.56-5.71-5.7-5.71-1.1 0-2.13.32-3 .85l1.62 2.11c.4-.19.84-.29 1.3-.29 1.69 0 3.06 1.36 3.06 3.05 0 .18-.02.36-.05.54 0 .04 0 .09-.02.14-.07.33-.21.64-.39.92-.08.13-.17.25-.26.37zM5.76 7.19C4.24 8.34 3.12 9.7 2.43 10.68c-.56.8-.56 1.83 0 2.63C3.86 15.34 7.11 19 12 19c.91 0 1.77-.13 2.57-.36l-.92-1.19c-.52.16-1.08.25-1.65.25-3.15 0-5.71-2.56-5.71-5.7 0-1.11.32-2.13.86-3zm6.05 7.87h-.02a.207.207 0 0 0-.06-.1zM5.7 8.92c-.94.85-1.68 1.77-2.21 2.51-.24.35-.24.78 0 1.13.53.74 1.27 1.66 2.21 2.51C5.25 14.14 5 13.1 5 12c0-1.11.25-2.15.7-3.08m12.59 0c.94.85 1.68 1.77 2.21 2.51.24.35.24.78 0 1.13-.53.74-1.27 1.66-2.21 2.51.45-.93.71-1.97.71-3.07 0-1.11-.26-2.15-.71-3.08"/></g></svg>