<svg xmlns="http://www.w3.org/2000/svg" fill="none" viewBox="0 0 24 24" focusable="false"><path fill="#717681" fill-rule="evenodd" d="M4.38 2.2c.28-.22.69-.16.91.12l2.76 3.59c1.16-.56 2.47-.92 3.95-.92 4.72 0 7.86 3.7 9.22 5.72.53.79.53 1.78 0 2.57-.8 1.19-2.23 2.97-4.24 4.23l2.61 3.4c.22.28.16.69-.12.91s-.69.17-.91-.12L4.26 3.11a.643.643 0 0 1 .12-.91m10.89 13.1c.85-.85 1.37-2.01 1.37-3.31 0-2.56-2.08-4.65-4.64-4.65-.86 0-1.67.24-2.36.64l.98 1.27c.39-.19.84-.29 1.3-.29 1.69 0 3.06 1.36 3.06 3.05 0 .18-.02.36-.05.54 0 .04 0 .09-.02.14-.07.33-.21.64-.39.92-.08.13-.17.25-.26.37zM5.85 7.31c-1.41 1.13-2.44 2.45-3.08 3.4-.53.79-.53 1.78 0 2.57C4.13 15.3 7.27 19 12 19c.91 0 1.76-.14 2.55-.38l-1.59-2.07c-.31.06-.64.1-.96.1-2.57 0-4.66-2.09-4.66-4.66 0-.75.18-1.46.5-2.09z"/></svg>