<svg xmlns="http://www.w3.org/2000/svg" fill="none" viewBox="0 0 24 24" focusable="false"><defs><clipPath id="Eye_Solid_svg__a"><path fill="#fff" fill-opacity="0" d="M0 0h24v24H0z"/></clipPath></defs><g clip-path="url(#Eye_Solid_svg__a)"><path fill="#717681" fill-rule="evenodd" d="M12 5c-4.73 0-7.87 3.69-9.23 5.71-.53.79-.53 1.78 0 2.57C4.13 15.3 7.27 19 12 19c4.72 0 7.86-3.7 9.22-5.72.53-.79.53-1.78 0-2.57C19.86 8.69 16.72 5 12 5m0 2.34c-2.57 0-4.66 2.09-4.66 4.66 0 2.56 2.09 4.65 4.66 4.65 2.56 0 4.64-2.09 4.64-4.65 0-2.57-2.08-4.66-4.64-4.66m-.7 1.74c.38-.09.7.23.7.62v1c0 .71.58 1.3 1.29 1.3h1c.39 0 .71.31.62.69A3 3 0 0 1 12 15a3.002 3.002 0 0 1-.7-5.92"/></g></svg>