<svg xmlns="http://www.w3.org/2000/svg" fill="none" viewBox="0 0 24 24" focusable="false"><defs><clipPath id="Greater_or_Equal_Outline_svg__a"><path fill="#fff" fill-opacity="0" d="M0 0h24v24H0z"/></clipPath></defs><g clip-path="url(#Greater_or_Equal_Outline_svg__a)"><path fill="#74767B" fill-rule="evenodd" d="M9.64 14.42c-.18 0-.35-.07-.48-.21a.66.66 0 0 1 .04-.92l3.5-3.15-3.49-3.02a.65.65 0 0 1-.04-.92c.24-.26.65-.28.92-.04l3.98 3.46c.31.28.31.76 0 1.04l-3.99 3.59c-.13.12-.28.17-.44.17m5.84-2.43a.65.65 0 0 0-.92-.05l-3.65 3.29c-.26.24-.28.65-.04.92.24.26.65.28.91.04l3.65-3.28a.65.65 0 0 0 .05-.92"/></g></svg>