<svg xmlns="http://www.w3.org/2000/svg" fill="none" viewBox="0 0 24 24" focusable="false"><defs><clipPath id="Help_Solid_svg__a"><path fill="#fff" fill-opacity="0" d="M0 0h24v24H0z"/></clipPath></defs><g clip-path="url(#Help_Solid_svg__a)"><path fill="#717681" fill-rule="evenodd" d="M3 12c0-4.98 4.02-9 9-9 4.97 0 9 4.02 9 9a9 9 0 0 1-9 9c-4.98 0-9-4.03-9-9m8.32 1.63a.65.65 0 1 0 1.3-.01c0-.3.04-.5.15-.78.14-.33.42-.63.72-.94v-.01c.49-.51 1.04-1.08 1.18-1.99.13-.87-.23-1.77-.95-2.34-.74-.59-1.72-.72-2.62-.37-1.18.47-1.85 1.49-1.79 2.75.01.36.33.63.68.62a.65.65 0 0 0 .62-.68c-.03-.49.13-1.15.97-1.48.47-.18.95-.12 1.33.18.36.28.54.71.48 1.13-.08.5-.42.86-.81 1.27l-.02.02c-.36.37-.76.79-.99 1.36-.18.43-.25.8-.25 1.27m1.53 2.72c0 .46-.39.85-.85.85-.47 0-.86-.39-.86-.85a.856.856 0 0 1 1.71 0"/></g></svg>