<svg xmlns="http://www.w3.org/2000/svg" fill="none" viewBox="0 0 24 24" focusable="false"><path fill="#717681" fill-rule="evenodd" d="M3 12c0-4.98 4.02-9 9-9 4.97 0 9 4.02 9 9a9 9 0 0 1-9 9c-4.98 0-9-4.03-9-9m9-7.71c-4.26 0-7.71 3.45-7.71 7.71 0 4.25 3.45 7.7 7.71 7.7 4.25 0 7.7-3.45 7.7-7.7 0-4.26-3.45-7.71-7.7-7.71m0 3.05a.749.749 0 1 1 0 1.5c-.42 0-.75-.33-.75-.75 0-.41.33-.75.75-.75m0 2.86c.35 0 .64.29.64.65v3.85c0 .35.3.65.65.65h.06c.35 0 .65.29.65.65 0 .35-.3.65-.65.65h-.06a1.95 1.95 0 0 1-1.94-1.95v-3.85c0-.36.29-.65.65-.65"/></svg>