<svg xmlns="http://www.w3.org/2000/svg" fill="none" viewBox="0 0 24 24" focusable="false"><defs><clipPath id="Interval_Outline_svg__a"><path fill="#fff" fill-opacity="0" d="M0 0h24v24H0z"/></clipPath></defs><g clip-path="url(#Interval_Outline_svg__a)"><path fill="#74767B" fill-rule="evenodd" d="M18.29 10.25c0-.36.3-.65.65-.65.36 0 .65.29.65.65v2.6c0 .35-.29.65-.65.65-.35 0-.65-.3-.65-.65v-.76H4.89v.76c0 .35-.29.65-.64.65-.36 0-.65-.3-.65-.65v-2.6c0-.36.29-.65.65-.65.35 0 .64.29.64.65v.54h13.4z"/></g></svg>