<svg xmlns="http://www.w3.org/2000/svg" fill="none" viewBox="0 0 24 24" focusable="false"><path fill="#74767B" fill-rule="evenodd" d="M18 9C18 13.9706 13.9706 18 9 18C4.02944 18 0 13.9706 0 9C0 4.02944 4.02944 0 9 0C13.9706 0 18 4.02944 18 9ZM10.9954 8.32639C11.2621 8.56662 11.6731 8.54507 11.9133 8.27829C12.1536 8.01151 12.132 7.60056 11.8652 7.36032L8.78979 4.59116C8.52295 4.35092 8.11194 4.37247 7.8717 4.63925C7.63147 4.90604 7.65308 5.31699 7.91992 5.55722L10.9954 8.32639ZM6.16809 6.54764C6.2981 6.40768 6.46802 6.33768 6.64807 6.33768C6.80811 6.33768 6.95801 6.38766 7.08801 6.50766L10.0778 9.19547C10.3878 9.47549 10.3878 9.95547 10.0778 10.2355L7.09216 12.8318C6.82227 13.0718 6.41223 13.0518 6.17224 12.7918C5.93225 12.5218 5.94226 12.1118 6.21216 11.8718L8.70776 9.71548L6.20801 7.46768C5.948 7.22763 5.9281 6.81766 6.16809 6.54764Z" transform="rotate(180 10.5 10.5)"/></svg>