<svg xmlns="http://www.w3.org/2000/svg" fill="none" viewBox="0 0 24 24" focusable="false"><path fill="#74767B" fill-rule="evenodd" d="M6.48675 4.37133C6.24652 4.63811 5.83551 4.65966 5.56879 4.41942L1.91888 1.13304C1.65204 0.89281 1.63055 0.481861 1.87079 0.215076C2.11102 -0.0517086 2.52191 -0.073254 2.78876 0.16698L6.43866 3.45336C6.70538 3.69359 6.72699 4.10454 6.48675 4.37133ZM0.648192 1.94286C0.468139 1.94286 0.298217 2.01286 0.168212 2.15288C-0.0717784 2.42284 -0.051881 2.83287 0.208129 3.07286L3.70129 6.2191L0.212035 9.23692C-0.0579845 9.47691 -0.0678722 9.88695 0.172118 10.1569C0.412108 10.4169 0.82202 10.4369 1.09204 10.1969L5.07129 6.73912C5.38135 6.45909 5.38135 5.97911 5.07129 5.69914L1.08813 2.11284C0.958129 1.99284 0.808226 1.94286 0.648192 1.94286Z" transform="rotate(180 7.5 8.183)"/></svg>