<svg xmlns="http://www.w3.org/2000/svg" fill="none" viewBox="0 0 24 24" focusable="false"><defs><clipPath id="Menu_Outline_svg__a"><path fill="#fff" fill-opacity="0" d="M0 0h24v24H0z"/></clipPath></defs><g clip-path="url(#Menu_Outline_svg__a)"><path fill="#717681" fill-rule="evenodd" d="M3.99 5.74c0-.36.29-.65.65-.65h14.71c.36 0 .65.29.65.65s-.29.65-.65.65H4.64c-.36 0-.65-.29-.65-.65m.65 5.61c-.36 0-.65.29-.65.65 0 .35.29.65.65.65h14.71c.36 0 .65-.3.65-.65 0-.36-.29-.65-.65-.65zm-.65 7.01c0-.36.29-.65.65-.65h14.71c.36 0 .65.29.65.65s-.29.65-.65.65H4.64c-.36 0-.65-.29-.65-.65"/></g></svg>