<svg xmlns="http://www.w3.org/2000/svg" fill="none" viewBox="0 0 24 24" focusable="false"><path fill="#74767B" fill-rule="evenodd" d="M3 12C3 7.02944 7.02944 3 12 3C16.9706 3 21 7.02944 21 12C21 16.9706 16.9706 21 12 21C7.02944 21 3 16.9706 3 12ZM12 4.3C7.74741 4.3 4.3 7.74741 4.3 12C4.3 16.2526 7.74741 19.7 12 19.7C16.2526 19.7 19.7 16.2526 19.7 12C19.7 7.74741 16.2526 4.3 12 4.3ZM7.65 11.35C7.29101 11.35 7 11.641 7 12C7 12.359 7.29101 12.65 7.65 12.65L16.35 12.65C16.709 12.65 17 12.359 17 12C17 11.641 16.709 11.35 16.35 11.35L7.65 11.35Z"/></svg>