<svg xmlns="http://www.w3.org/2000/svg" fill="none" viewBox="0 0 24 24" focusable="false"><path fill="#74767B" fill-rule="evenodd" d="M12 21c-4.98 0-9-4.03-9-9 0-4.98 4.02-9 9-9 4.97 0 9 4.02 9 9a9 9 0 0 1-9 9m1.25-12.72c.17-.31.57-.41.88-.23s.42.57.24.88l-.38.66h1.35c.36 0 .65.29.65.65s-.29.65-.65.65h-2.1l-1.27 2.21h3.37c.36 0 .65.29.65.65s-.29.65-.65.65h-4.13l-.76 1.33c-.18.31-.58.42-.89.24a.654.654 0 0 1-.24-.89l.39-.68H8.65c-.36 0-.65-.29-.65-.65s.29-.65.65-.65h1.81l1.28-2.21H8.65c-.36 0-.65-.29-.65-.65s.29-.65.65-.65h3.84z"/></svg>