<svg xmlns="http://www.w3.org/2000/svg" fill="none" viewBox="0 0 24 24" focusable="false"><path d="M0 0H24V24H0z" transform="rotate(180 12 12)"/><path fill="#74767B" fill-rule="evenodd" d="M2.73484 7.77339C2.55539 8.08421 2.15795 8.19076 1.84706 8.01127C1.53617 7.83178 1.42973 7.43431 1.60918 7.12349L1.9275 6.57212L0.650002 6.57212C0.291018 6.57212 0 6.2811 0 5.92212C0 5.56313 0.291018 5.27212 0.650002 5.27212L2.67803 5.27212L3.95388 3.06219L0.649999 3.06219C0.291015 3.06219 0 2.77118 0 2.41219C0 2.05321 0.291015 1.76219 0.649999 1.76219L4.70441 1.76219L5.53414 0.324999C5.7136 0.0141785 6.11109 -0.0922838 6.42198 0.0872091C6.73287 0.266701 6.83943 0.664176 6.65997 0.974997L6.20548 1.76219L7.33484 1.76219C7.69382 1.76219 7.98484 2.0532 7.98484 2.41219C7.98484 2.77117 7.69382 3.06219 7.33484 3.06219L5.45491 3.06219L4.17898 5.27212L7.33454 5.27212C7.69352 5.27212 7.98454 5.56313 7.98454 5.92212C7.98454 6.2811 7.69352 6.57212 7.33454 6.57212L3.42841 6.57212L2.73484 7.77339Z" transform="rotate(180 7.992 7.881)"/></svg>