<svg xmlns="http://www.w3.org/2000/svg" fill="none" viewBox="0 0 24 24" focusable="false"><defs><clipPath id="Not_Equal_Outline_svg__a"><path fill="#fff" fill-opacity="0" d="M24 24H0V0h24z"/></clipPath></defs><g clip-path="url(#Not_Equal_Outline_svg__a)"><path fill="#74767B" fill-rule="evenodd" d="M13.25 7.98c.17-.31.57-.41.88-.23s.42.57.24.88l-.32.56h1.28c.36 0 .65.29.65.65 0 .35-.29.65-.65.65H13.3l-1.27 2.21h3.3c.36 0 .65.29.65.65 0 .35-.29.65-.65.65h-4.05l-.83 1.43c-.18.31-.58.42-.89.24a.654.654 0 0 1-.24-.89l.45-.78H8.64c-.35 0-.64-.3-.64-.65 0-.36.29-.65.64-.65h1.88l1.28-2.21H8.65c-.36 0-.65-.3-.65-.65 0-.36.29-.65.65-.65h3.9z"/></g></svg>