<svg xmlns="http://www.w3.org/2000/svg" fill="none" viewBox="0 0 24 24" focusable="false"><path fill="#717681" fill-rule="evenodd" d="M8.24 8.21c.23.07.48 0 .67-.15A4.96 4.96 0 0 1 12 7c2.1 0 3.9 1.29 4.64 3.14.09.22.27.4.5.46l1.87.5c.47.12.92-.25.82-.72A7.99 7.99 0 0 0 12 4c-2.29 0-4.35.95-5.8 2.48-.19.2-.47.29-.73.22l-1.21-.33a.68.68 0 0 0-.74.29c-.29.46-.55.95-.76 1.46-.16.38.06.79.45.89l1.57.42c.35.1.71-.1.87-.42.14-.32.31-.62.5-.9a.65.65 0 0 1 .73-.26zm-.93 5.54a.74.74 0 0 0-.5-.47l-1.85-.5c-.47-.12-.91.25-.82.72a7.999 7.999 0 0 0 13.72 3.94c.18-.2.46-.29.73-.22l1.19.32c.28.07.59-.04.74-.29.37-.6.68-1.24.92-1.92l.22-.8c.1-.37-.12-.76-.5-.86l-1.48-.39c-.4-.11-.8.16-.91.56-.19.7-.49 1.35-.87 1.94-.15.25-.45.35-.73.27l-1.32-.35c-.24-.07-.49 0-.68.16C14.31 16.57 13.2 17 12 17c-2.15 0-3.97-1.35-4.69-3.25"/></svg>