<svg xmlns="http://www.w3.org/2000/svg" fill="none" viewBox="0 0 24 24" focusable="false"><path fill="#74767B" fill-rule="evenodd" d="M13.4397 4.21837C13.2083 4.28038 12.9634 4.21684 12.7751 4.06866C11.9246 3.39931 10.8516 3 9.68535 3C7.58105 3 5.78036 4.29993 5.04252 6.14057C4.95336 6.36301 4.77306 6.54058 4.54159 6.60261L2.66751 7.10476C2.20061 7.22987 1.75203 6.85387 1.84938 6.38041C2.59816 2.73859 5.82194 0 9.68535 0C11.9679 0 14.0271 0.955897 15.4846 2.48921C15.6708 2.68511 15.9469 2.77361 16.208 2.70365L17.4165 2.37984C17.7005 2.30374 18.0038 2.41196 18.1608 2.66058C18.4542 3.12541 18.7105 3.61607 18.9254 4.12837C19.0814 4.50025 18.8583 4.91247 18.4688 5.01685L16.9008 5.43698C16.5502 5.53095 16.1892 5.33928 16.0343 5.0109C15.8868 4.69802 15.7168 4.39781 15.5264 4.11235C15.3693 3.87682 15.0759 3.77994 14.8025 3.85321L13.4397 4.21837ZM14.8739 9.28067C14.6367 9.34424 14.4536 9.52894 14.3672 9.75884C13.6555 11.6525 11.8278 13 9.68535 13C8.48024 13 7.37471 12.5737 6.51136 11.8636C6.32177 11.7077 6.07105 11.6394 5.83393 11.7029L4.50983 12.0577C4.23257 12.132 3.9352 12.0313 3.77994 11.7898C3.39825 11.1963 3.10359 10.5415 2.914 9.84344C2.80481 9.44141 2.40064 9.17463 1.99825 9.28245L0.519 9.67882C0.145574 9.77888 -0.0760335 10.1627 0.0240255 10.5361L0.238498 11.3366C0.477092 12.0121 0.786093 12.6544 1.15668 13.2546C1.31242 13.5068 1.61813 13.6175 1.90447 13.5408L3.09328 13.2223C3.35736 13.1515 3.63651 13.2429 3.82257 13.4432C5.28345 15.016 7.36948 16 9.68535 16C13.5906 16 16.8422 13.2018 17.5448 9.50103C17.6342 9.03 17.1874 8.66079 16.7243 8.78488L14.8739 9.28067Z" transform="matrix(-1 0 0 1 21.686 4)"/></svg>