<svg xmlns="http://www.w3.org/2000/svg" fill="none" viewBox="0 0 24 24" focusable="false"><path fill="#717681" d="M6.812 13.28c.237.064.42.249.506.479a5.002 5.002 0 0 0 7.856 2.105.762.762 0 0 1 .678-.161l1.324.355a.659.659 0 0 0 .73-.268 6.976 6.976 0 0 0 .866-1.947c.109-.402.513-.668.915-.56l1.48.396a.7.7 0 0 1 .494.857l-.214.8a9.966 9.966 0 0 1-.918 1.919.67.67 0 0 1-.748.286l-1.189-.319a.739.739 0 0 0-.729.221 8.003 8.003 0 0 1-13.722-3.942c-.09-.471.357-.84.82-.716l1.85.496M8.91 8.069a.761.761 0 0 1-.664.15l-1.363-.366a.66.66 0 0 0-.724.26c-.19.285-.36.585-.508.898-.155.328-.516.52-.866.426l-1.568-.42c-.39-.105-.613-.517-.457-.889a9.986 9.986 0 0 1 .765-1.467.67.67 0 0 1 .744-.281l1.209.324a.739.739 0 0 0 .723-.215 8.003 8.003 0 0 1 13.635 3.891c.098.474-.351.85-.818.725l-1.874-.502a.762.762 0 0 1-.501-.462A5.002 5.002 0 0 0 8.91 8.069"/></svg>