<svg xmlns="http://www.w3.org/2000/svg" fill="none" viewBox="0 0 24 24" focusable="false"><defs><clipPath id="Pause_Solid_svg__a"><path fill="#fff" fill-opacity="0" d="M0 0h24v24H0z"/></clipPath></defs><g clip-path="url(#Pause_Solid_svg__a)"><path fill="#717681" fill-rule="evenodd" d="M21 12a9 9 0 0 1-9 9c-4.98 0-9-4.03-9-9 0-4.98 4.02-9 9-9 4.97 0 9 4.02 9 9M10.86 9.08c0-.36-.29-.65-.65-.65-.36 0-.65.29-.65.65v5.86c0 .36.29.65.65.65.36 0 .65-.29.65-.65zm3.57 0c0-.36-.29-.65-.65-.65-.36 0-.65.29-.65.65v5.86c0 .36.29.65.65.65.36 0 .65-.29.65-.65z"/></g></svg>