<svg xmlns="http://www.w3.org/2000/svg" fill="none" viewBox="0 0 24 24" focusable="false"><defs><clipPath id="Plus_Circle_Solid_svg__a"><path fill="#fff" fill-opacity="0" d="M0 0h24v24H0z"/></clipPath></defs><g clip-path="url(#Plus_Circle_Solid_svg__a)"><path fill="#717681" fill-rule="evenodd" d="M3 12c0-4.98 4.02-9 9-9 4.97 0 9 4.02 9 9a9 9 0 0 1-9 9c-4.98 0-9-4.03-9-9m9-5c.35 0 .64.29.64.64v3.71h3.71c.35 0 .65.29.65.65 0 .35-.3.65-.65.65h-3.71v3.7c0 .35-.29.65-.64.65-.36 0-.65-.3-.65-.65v-3.7H7.64c-.35 0-.64-.3-.64-.65 0-.36.29-.65.64-.65h3.71V7.64c0-.35.29-.64.65-.64"/></g></svg>