<svg xmlns="http://www.w3.org/2000/svg" fill="none" viewBox="0 0 24 24" focusable="false"><path fill="#74767B" fill-rule="evenodd" d="M12 3c-4.98 0-9 4.02-9 9 0 4.97 4.02 9 9 9a9 9 0 0 0 9-9c0-4.98-4.03-9-9-9m-7.62 7.85C4.94 7.14 8.13 4.29 12 4.29c3.86 0 7.05 2.85 7.61 6.56H16.5c-.26 0-.49.15-.6.38l-1.19 3.66-2.09-8.56a.64.64 0 0 0-.59-.48.64.64 0 0 0-.64.42l-2.56 6.81-1.29-1.95a.65.65 0 0 0-.54-.28zm-.08 1.3A7.7 7.7 0 0 0 12 19.7c4.2 0 7.61-3.37 7.69-7.55h-2.77l-1.78 4.96c-.11.25-.37.41-.64.39a.66.66 0 0 1-.58-.49l-2.03-8.37-2.29 6.08c-.08.23-.29.39-.53.42a.66.66 0 0 1-.62-.28l-1.8-2.71z"/></svg>