<svg xmlns="http://www.w3.org/2000/svg" fill="none" viewBox="0 0 24 24" focusable="false"><defs><clipPath id="Process_Solid_svg__a"><path fill="#fff" fill-opacity="0" d="M0 0h24v24H0z"/></clipPath></defs><g clip-path="url(#Process_Solid_svg__a)"><path fill="#74767B" fill-rule="evenodd" d="M3.04 11.13c-.04.39.28.72.67.72H7c.21 0 .41.1.54.28l1.29 1.95 2.43-7.65c.1-.26.36-.43.64-.42.28.02.52.21.6.49l2.15 8.54 1.25-2.81c.11-.23.34-.38.6-.38h3.78c.39 0 .71-.33.67-.72A8.987 8.987 0 0 0 12 3a8.99 8.99 0 0 0-8.96 8.13m.16 2.8c-.09-.41.24-.78.66-.78h2.79l1.8 2.71c.14.2.38.31.62.28s.45-.19.53-.42l2.16-6.92 2.11 8.36c.07.27.3.46.57.48.28.03.54-.13.65-.38l1.83-4.11h3.21c.42 0 .75.37.66.78C19.9 17.97 16.3 21 12 21c-4.31 0-7.91-3.03-8.8-7.07"/></g></svg>