<svg xmlns="http://www.w3.org/2000/svg" fill="none" viewBox="0 0 24 24" focusable="false"><path fill="#74767B" fill-rule="evenodd" d="M3.71264 11.85C3.32157 11.85 3.00358 11.5284 3.04052 11.1391C3.47389 6.57239 7.3197 3 11.9999 3C16.6801 3 20.5259 6.57239 20.9592 11.1391C20.9962 11.5284 20.6782 11.85 20.2871 11.85L16.4999 11.85C16.243 11.85 16.0102 12.0013 15.9059 12.236L14.6575 15.0449L12.4999 6.5C12.4279 6.22626 12.1869 6.03061 11.9042 6.01626C11.6215 6.0019 11.3621 6.17215 11.2627 6.43719L8.83683 14.0836L7.54072 12.1394C7.42016 11.9586 7.21721 11.85 6.99988 11.85L3.71264 11.85ZM3.20802 13.9332C3.11784 13.5212 3.44586 13.15 3.86761 13.15L6.65201 13.15L8.45905 15.8605C8.59435 16.0635 8.8319 16.1736 9.07422 16.1457C9.31654 16.1178 9.52285 15.9566 9.6085 15.7282L11.7626 8.80647L13.8713 17.1654C13.9415 17.4323 14.1726 17.6257 14.4476 17.6479C14.7227 17.6701 14.9818 17.5161 15.0939 17.264L16.9223 13.15L20.1322 13.15C20.5539 13.15 20.8819 13.5212 20.7917 13.9332C19.9071 17.9747 16.3068 21 11.9999 21C7.69296 21 4.09263 17.9747 3.20802 13.9332Z"/></svg>