<svg xmlns="http://www.w3.org/2000/svg" fill="none" viewBox="0 0 24 24" focusable="false"><path fill="#717681" fill-rule="evenodd" d="M12 3a9 9 0 1 0 0 18 9 9 0 0 0 0-18m-7.615 7.85a7.702 7.702 0 0 1 15.23 0H16.5a.65.65 0 0 0-.594.386l-1.196 3.661-2.081-8.562a.65.65 0 0 0-1.238-.063l-2.554 6.812-1.296-1.945A.65.65 0 0 0 7 10.85H4.385m-.084 1.3a7.7 7.7 0 0 0 15.398 0h-2.777l-1.776 4.966a.65.65 0 0 1-1.222-.099L11.89 8.641 9.61 14.728a.65.65 0 0 1-1.15.133L6.652 12.15h-2.35" clip-rule="evenodd"/></svg>