<svg xmlns="http://www.w3.org/2000/svg" fill="none" viewBox="0 0 24 24" focusable="false"><defs><clipPath id="Share_Outline_svg__a"><path fill="#fff" fill-opacity="0" d="M0 0h24v24H0z"/></clipPath></defs><g clip-path="url(#Share_Outline_svg__a)"><path fill="#74767B" fill-rule="evenodd" d="M21 5.99c0 1.66-1.35 3-3 3-.99 0-1.87-.48-2.42-1.21L8.94 11.4c.03.19.06.39.06.59 0 .21-.03.41-.06.6l6.64 3.63C16.12 15.48 17 15 18 15c1.65 0 3 1.34 3 3 0 1.65-1.35 3-3 3-1.66 0-3-1.35-3-3 0-.2.01-.4.05-.58l-6.64-3.64c-.55.73-1.43 1.21-2.41 1.21-1.66 0-3-1.34-3-3 0-1.65 1.34-3 3-3 .98 0 1.86.48 2.41 1.22l6.64-3.62c-.03-.2-.05-.39-.05-.6C15 4.34 16.34 3 18 3a3 3 0 0 1 3 2.99m-1.3 0a1.705 1.705 0 0 1-3.41 0c0-.93.77-1.7 1.71-1.7.93 0 1.7.77 1.7 1.7m0 12.01c0 .93-.77 1.7-1.7 1.7-.94 0-1.71-.77-1.71-1.7a1.705 1.705 0 0 1 3.41 0M6 13.69c.93 0 1.7-.76 1.7-1.7a1.705 1.705 0 0 0-3.41 0c0 .94.77 1.7 1.71 1.7"/></g></svg>