<svg xmlns="http://www.w3.org/2000/svg" fill="none" viewBox="0 0 24 24" focusable="false"><path d="M0 0H24V24H0z"/><path fill="#74767B" fill-rule="evenodd" d="M12 3C7.02944 3 3 7.02944 3 12C3 16.9706 7.02944 21 12 21C16.9706 21 21 16.9706 21 12C21 7.02944 16.9706 3 12 3ZM12 4.3C7.74741 4.3 4.3 7.74741 4.3 12C4.3 16.2526 7.74741 19.7 12 19.7C16.2526 19.7 19.7 16.2526 19.7 12C19.7 7.74741 16.2526 4.3 12 4.3ZM9 10.3C9 9.58203 9.58203 9 10.3 9L13.7 9C14.418 9 15 9.58203 15 10.3L15 13.7C15 14.418 14.418 15 13.7 15L10.3 15C9.58203 15 9 14.418 9 13.7L9 10.3ZM13.7 10.3L13.7 13.7L10.3 13.7L10.3 10.3L13.7 10.3Z"/></svg>