<svg xmlns="http://www.w3.org/2000/svg" fill="none" viewBox="0 0 24 24" focusable="false"><path fill="#74767B" fill-rule="evenodd" d="M12 3C7.02944 3 3 7.02944 3 12C3 16.9706 7.02944 21 12 21C16.9706 21 21 16.9706 21 12C21 7.02944 16.9706 3 12 3ZM10.3 9C9.58203 9 9 9.58203 9 10.3L9 13.7C9 14.418 9.58203 15 10.3 15L13.7 15C14.418 15 15 14.418 15 13.7L15 10.3C15 9.58203 14.418 9 13.7 9L10.3 9Z"/><path fill="none" d="M3 12C3 7.02944 7.02944 3 12 3C16.9706 3 21 7.02944 21 12C21 16.9706 16.9706 21 12 21C7.02944 21 3 16.9706 3 12ZM10.2797 4.49143C10.8386 4.36381 11.412 4.3 12 4.3C12.588 4.3 13.1614 4.36381 13.7203 4.49143C14.1546 4.59061 14.5801 4.72832 14.9968 4.90457C15.4241 5.08531 15.8288 5.30063 16.2109 5.55054C16.6524 5.83928 17.0636 6.1742 17.4447 6.55528C17.8258 6.93636 18.1607 7.34764 18.4495 7.78911C18.6994 8.17119 18.9147 8.57589 19.0954 9.00321C19.2717 9.41991 19.4094 9.84541 19.5086 10.2797C19.6362 10.8386 19.7 11.412 19.7 12C19.7 12.588 19.6362 13.1614 19.5086 13.7203C19.4094 14.1546 19.2717 14.5801 19.0954 14.9968C18.9147 15.4241 18.6994 15.8287 18.4495 16.2108C18.1608 16.6523 17.8258 17.0636 17.4447 17.4447C17.0636 17.8258 16.6523 18.1607 16.2108 18.4495C15.8288 18.6994 15.4241 18.9147 14.9968 19.0954C14.5801 19.2717 14.1546 19.4094 13.7203 19.5086C13.1614 19.6362 12.588 19.7 12 19.7C11.412 19.7 10.8386 19.6362 10.2797 19.5086C9.8454 19.4094 9.4199 19.2717 9.00321 19.0954C8.57589 18.9147 8.17119 18.6994 7.7891 18.4495C7.34763 18.1607 6.93636 17.8258 6.55528 17.4447C6.1742 17.0636 5.83928 16.6524 5.55053 16.2109C5.30063 15.8288 5.08531 15.4241 4.90457 14.9968C4.72832 14.5801 4.59061 14.1546 4.49143 13.7203C4.36381 13.1614 4.3 12.588 4.3 12C4.3 11.412 4.36381 10.8386 4.49143 10.2797C4.59061 9.84542 4.72832 9.41992 4.90457 9.00321C5.08531 8.57589 5.30064 8.17118 5.55054 7.7891C5.83929 7.34763 6.1742 6.93636 6.55528 6.55528C6.93634 6.17422 7.34759 5.83932 7.78903 5.55059C8.17113 5.30066 8.57586 5.08532 9.00321 4.90457C9.41992 4.72832 9.84542 4.5906 10.2797 4.49143ZM14.2443 7.75685C14.0669 7.71895 13.8855 7.7 13.7 7.7L10.3 7.7C10.1145 7.7 9.93309 7.71895 9.75571 7.75686C9.5964 7.7909 9.44035 7.84023 9.28756 7.90485C9.13675 7.96864 8.99437 8.04509 8.86041 8.1342C8.71792 8.22898 8.58496 8.33809 8.46152 8.46152C8.33809 8.58495 8.22898 8.71791 8.1342 8.8604C8.04509 8.99437 7.96864 9.13675 7.90485 9.28756C7.84023 9.44035 7.79089 9.59641 7.75685 9.75574C7.71895 9.93311 7.7 10.1145 7.7 10.3L7.7 13.7C7.7 13.8855 7.71895 14.0669 7.75685 14.2443C7.7909 14.4036 7.84023 14.5597 7.90485 14.7124C7.96864 14.8632 8.04509 15.0056 8.1342 15.1396C8.22898 15.2821 8.33809 15.415 8.46152 15.5385C8.58496 15.6619 8.71792 15.771 8.86041 15.8658C8.99437 15.9549 9.13676 16.0314 9.28756 16.0951C9.44036 16.1598 9.59641 16.2091 9.75574 16.2431C9.93311 16.281 10.1145 16.3 10.3 16.3L13.7 16.3C13.8855 16.3 14.0669 16.2811 14.2443 16.2432C14.4036 16.2091 14.5596 16.1598 14.7124 16.0951C14.8632 16.0314 15.0056 15.9549 15.1396 15.8658C15.2821 15.771 15.415 15.6619 15.5385 15.5385C15.6619 15.415 15.771 15.2821 15.8658 15.1396C15.9549 15.0056 16.0314 14.8632 16.0951 14.7124C16.1598 14.5596 16.2091 14.4036 16.2432 14.2443C16.281 14.0669 16.3 13.8855 16.3 13.7L16.3 10.3C16.3 10.1145 16.281 9.93309 16.2431 9.75571C16.2091 9.5964 16.1598 9.44035 16.0951 9.28756C16.0314 9.13676 15.9549 8.99438 15.8658 8.86043C15.771 8.71793 15.6619 8.58496 15.5385 8.46152C15.415 8.33809 15.2821 8.22898 15.1396 8.13419C15.0056 8.04508 14.8632 7.96864 14.7124 7.90485C14.5596 7.84023 14.4036 7.7909 14.2443 7.75685ZM9 10.3C9 9.58203 9.58203 9 10.3 9L13.7 9C14.418 9 15 9.58203 15 10.3L15 13.7C15 14.418 14.418 15 13.7 15L10.3 15C9.58203 15 9 14.418 9 13.7L9 10.3Z"/></svg>