<svg xmlns="http://www.w3.org/2000/svg" fill="none" viewBox="0 0 24 24" focusable="false"><defs><clipPath id="Structure_Outline_svg__a"><path fill="#fff" fill-opacity="0" d="M0 0h24v24H0z"/></clipPath></defs><g clip-path="url(#Structure_Outline_svg__a)"><path fill="#74767B" fill-rule="evenodd" d="M12.64 8.92A2.99 2.99 0 0 0 15 6c0-1.66-1.35-3-3-3-1.66 0-3 1.34-3 3 0 1.43 1 2.63 2.35 2.92v2.43H9c-2.02 0-3.65 1.63-3.65 3.65v.07A2.985 2.985 0 0 0 3 18c0 1.65 1.34 3 3 3 1.65 0 3-1.35 3-3 0-1.44-1.01-2.64-2.36-2.93V15c0-1.3 1.06-2.35 2.36-2.35h6c1.29 0 2.35 1.05 2.35 2.35v.07A2.985 2.985 0 0 0 15 18c0 1.65 1.34 3 3 3 1.65 0 3-1.35 3-3 0-1.44-1.01-2.64-2.36-2.93V15c0-2.02-1.63-3.65-3.64-3.65h-2.36zM12 7.7c.93 0 1.7-.77 1.7-1.7 0-.94-.77-1.71-1.7-1.71-.94 0-1.71.77-1.71 1.71 0 .93.77 1.7 1.71 1.7M7.7 18c0 .93-.77 1.7-1.7 1.7-.94 0-1.71-.77-1.71-1.7 0-.94.77-1.71 1.71-1.71.93 0 1.7.77 1.7 1.71m12 0c0 .93-.77 1.7-1.7 1.7-.94 0-1.71-.77-1.71-1.7 0-.94.77-1.71 1.71-1.71.93 0 1.7.77 1.7 1.71"/></g></svg>