<svg xmlns="http://www.w3.org/2000/svg" fill="none" viewBox="0 0 24 24" focusable="false"><path fill="#717681" fill-rule="evenodd" d="M12.65 8.93a3.001 3.001 0 1 0-1.3 0v2.42H9A3.65 3.65 0 0 0 5.35 15v.07a3.001 3.001 0 1 0 1.3 0V15A2.35 2.35 0 0 1 9 12.65h6A2.35 2.35 0 0 1 17.35 15v.07a3.001 3.001 0 1 0 1.3 0V15A3.65 3.65 0 0 0 15 11.35h-2.35V8.93ZM12 7.7a1.7 1.7 0 1 0 0-3.4 1.7 1.7 0 0 0 0 3.4ZM7.7 18a1.7 1.7 0 1 1-3.4 0 1.7 1.7 0 0 1 3.4 0Zm12 0a1.7 1.7 0 1 1-3.4 0 1.7 1.7 0 0 1 3.4 0Z" clip-rule="evenodd"/></svg>