<svg xmlns="http://www.w3.org/2000/svg" fill="none" viewBox="0 0 24 24" focusable="false"><defs><clipPath id="Thumbs_Down_Solid_svg__a"><path fill="#fff" fill-opacity="0" d="M0 0h24v24H0z"/></clipPath></defs><g clip-path="url(#Thumbs_Down_Solid_svg__a)"><path fill="#717681" fill-rule="evenodd" d="M19.7 14.37c.72 0 1.3-.59 1.3-1.31V5.31A1.3 1.3 0 0 0 19.7 4h-1.8c-.72 0-1.3.58-1.3 1.31v7.75c0 .72.58 1.31 1.3 1.31zm-4.42-.7c0 .21-.05.43-.15.61l-1.4 2.64c-.21.4-.32.85-.32 1.31v.33c0 1.35-1.08 2.44-2.42 2.44-1.33 0-2.41-1.09-2.41-2.44v-.65c0-.25.03-.5.09-.74l.47-1.84H7c-1.96 0-3.39-1.85-2.91-3.76L5.4 6.28A2.995 2.995 0 0 1 8.31 4h5.67c.72 0 1.3.58 1.3 1.31z"/></g></svg>