<svg xmlns="http://www.w3.org/2000/svg" fill="none" viewBox="0 0 24 24" focusable="false"><path fill="#717681" fill-rule="evenodd" d="M19.704 14.377c.718 0 1.3-.587 1.3-1.31V5.31c0-.723-.582-1.31-1.3-1.31h-1.801c-.718 0-1.3.587-1.3 1.31v7.756c0 .724.582 1.31 1.3 1.31zm-4.419-.704c0 .215-.053.427-.153.617l-1.397 2.638a2.8 2.8 0 0 0-.323 1.303v.337A2.42 2.42 0 0 1 10.999 21a2.42 2.42 0 0 1-2.413-2.432v-.652a3 3 0 0 1 .094-.742l.47-1.842H7c-1.952 0-3.384-1.849-2.91-3.757l1.313-5.286A3.005 3.005 0 0 1 8.314 4h5.671c.718 0 1.3.587 1.3 1.31z" clip-rule="evenodd"/></svg>