<svg xmlns="http://www.w3.org/2000/svg" fill="none" viewBox="0 0 24 24" focusable="false"><path fill="#717681" fill-rule="evenodd" d="M19.69 4c.72 0 1.3.58 1.3 1.31v7.75c0 .72-.58 1.31-1.3 1.31h-3.61l-2.07 2.45c-.39.46-.6 1.04-.6 1.65v.09c0 1.35-1.08 2.44-2.42 2.44-1.33 0-2.41-1.09-2.41-2.44v-.65c0-.25.03-.5.09-.74l.47-1.84H7c-1.96 0-3.39-1.85-2.91-3.76L5.4 6.28A2.995 2.995 0 0 1 8.31 4zm-4.42 9.31v-8H8.31A1.7 1.7 0 0 0 6.66 6.6l-1.31 5.29A1.71 1.71 0 0 0 7 14.02h2.14c.41 0 .79.18 1.03.5.25.32.33.74.23 1.13l-.43 1.68q-.09.375-.09.75v.48a1.116 1.116 0 1 0 2.23 0v-.09c0-.92.32-1.8.91-2.49zm1.33-.25V5.31h3.09v7.75z"/></svg>