<svg xmlns="http://www.w3.org/2000/svg" fill="none" viewBox="0 0 24 24" focusable="false"><path fill="#74767B" fill-rule="evenodd" d="M9.71 10.68v8h6.97c.78 0 1.46-.53 1.65-1.3l1.31-5.28a1.71 1.71 0 0 0-1.65-2.13h-2.15a1.312 1.312 0 0 1-1.26-1.64l.43-1.68c.06-.24.09-.49.09-.74v-.49a1.116 1.116 0 1 0-2.23 0v.1c0 .91-.32 1.8-.91 2.49zM8.9 9.62l2.07-2.46c.39-.46.6-1.04.6-1.64v-.1c0-1.34 1.08-2.43 2.42-2.43 1.33 0 2.41 1.09 2.41 2.43v.66c0 .25-.03.5-.09.74l-.47 1.84h2.15c1.95 0 3.39 1.85 2.91 3.76l-1.31 5.28a3.01 3.01 0 0 1-2.91 2.29H5.3A1.3 1.3 0 0 1 4 18.68v-7.75c0-.73.58-1.31 1.3-1.31zm-.52 1.31v7.75H5.3v-7.75z"/></svg>