<svg xmlns="http://www.w3.org/2000/svg" fill="none" viewBox="0 0 24 24" focusable="false"><path fill="#717681" fill-rule="evenodd" d="M9.714 10.68v8.006h6.967c.78 0 1.461-.534 1.65-1.297l1.315-5.285c.269-1.082-.544-2.13-1.65-2.13h-2.151c-.403 0-.782-.187-1.029-.507a1.32 1.32 0 0 1-.232-1.13l.43-1.68q.093-.364.093-.742v-.487c0-.619-.499-1.121-1.114-1.121s-1.114.502-1.114 1.121v.099c0 .912-.323 1.795-.91 2.49zm-.812-1.06 2.076-2.453c.387-.458.6-1.04.6-1.64v-.099a2.424 2.424 0 0 1 2.415-2.431 2.424 2.424 0 0 1 2.415 2.431v.653c0 .25-.031.5-.093.742l-.47 1.841h2.15c1.954 0 3.388 1.85 2.914 3.758l-1.315 5.285a3.01 3.01 0 0 1-2.913 2.29H5.3A1.306 1.306 0 0 1 4 18.687V10.93c0-.723.583-1.31 1.301-1.31zm-.519 1.31v7.756H5.301V10.93z" clip-rule="evenodd"/></svg>