<svg width="24.000000" height="24.000000" viewBox="0 0 24 24" fill="none" xmlns="http://www.w3.org/2000/svg" xmlns:xlink="http://www.w3.org/1999/xlink">
	<desc>
			Created with Pixso.
	</desc>
	<defs>
		<clipPath id="clip8745_1297">
			<rect id="Solid / Pixso Solid" width="24.000000" height="24.000000" fill="white" fill-opacity="0"/>
		</clipPath>
	</defs>
	<g clip-path="url(#clip8745_1297)">
		<path id="Shape" d="M11.36 10.26L8.16 6.74C8.48 6.11 8.9 5.52 9.44 4.98C10.75 3.66 12.33 3 14.18 3C16.04 3 17.62 3.66 18.93 4.98C20.23 6.3 20.88 7.89 20.88 9.75L20.88 9.76C20.88 11.61 20.23 13.2 18.93 14.51C17.62 15.84 16.04 16.5 14.18 16.5C12.33 16.5 10.75 15.84 9.44 14.51L9.41 14.49L8.56 13.55L3.11 7.56L3.77 6.95C4.99 5.85 6.88 5.94 7.98 7.15L9.62 8.95L12.22 11.82C12.77 12.36 13.42 12.62 14.18 12.62C14.96 12.62 15.62 12.35 16.17 11.79C16.72 11.23 17 10.55 17 9.75C17 8.95 16.72 8.26 16.17 7.7C15.62 7.14 14.96 6.87 14.18 6.87C13.41 6.87 12.75 7.14 12.2 7.7C11.64 8.26 11.36 8.95 11.36 9.75L11.36 10.26ZM7.48 13.04L7.48 21L7.78 21C9.76 21 11.36 19.39 11.36 17.42L11.36 16.35C10.86 16.14 10.33 15.8 9.8 15.34C8.84 14.53 8.07 13.76 7.48 13.04Z" fill="#74767B" fill-opacity="1.000000" fill-rule="evenodd"/>
	</g>
</svg>
