<svg viewBox="0 0 24 24" xmlns="http://www.w3.org/2000/svg" xmlns:xlink="http://www.w3.org/1999/xlink" width="24.000000" height="24.000000" fill="none">
	<rect id="Solid/Python Solid" width="24.000000" height="24.000000" x="0.000000" y="0.000000" />
	<path id="Shape" d="M16.1305 9.50041L16.1305 5.12883C16.1305 4.72401 16.0379 4.44645 15.9013 4.24391C15.763 4.03907 15.5451 3.85993 15.2108 3.71166C14.513 3.40212 13.44 3.28223 12.0005 3.28223C10.5609 3.28223 9.48795 3.40212 8.79012 3.71165C8.45584 3.85993 8.2379 4.03906 8.09968 4.24389C7.963 4.44643 7.87047 4.72399 7.87047 5.12881L7.87047 6.26993C7.87047 6.43561 8.00478 6.56993 8.17047 6.56993L11.4642 6.56993C11.8232 6.56993 12.1142 6.86095 12.1142 7.21993C12.1142 7.57892 11.8232 7.86993 11.4642 7.86993L5.13558 7.86993C4.73145 7.86993 4.45448 7.9624 4.25237 8.09897C4.04792 8.23712 3.869 8.45504 3.72087 8.78947C3.41167 9.48755 3.29199 10.5609 3.29199 12.0007C3.29199 13.4405 3.41167 14.5138 3.72087 15.2119C3.869 15.5463 4.04792 15.7643 4.25237 15.9024C4.45448 16.039 4.73145 16.1314 5.13558 16.1314L6.27047 16.1314C6.43616 16.1314 6.57047 15.9971 6.57047 15.8314L6.57047 14.5002C6.57047 12.7605 7.98077 11.3502 9.72047 11.3502L14.2805 11.3502C15.3023 11.3502 16.1305 10.5221 16.1305 9.50041ZM17.4305 8.1696L17.4305 9.50042C17.4305 11.2402 16.0201 12.6502 14.2805 12.6502L9.72047 12.6502C8.69874 12.6502 7.87047 13.4785 7.87047 14.5002L7.87047 18.8716C7.87047 19.2804 7.96122 19.5595 8.09491 19.7617C8.22933 19.9651 8.4414 20.1426 8.7701 20.2897C9.45892 20.5979 10.5297 20.7183 12.0005 20.7183C13.4712 20.7183 14.542 20.5979 15.2308 20.2897C15.5595 20.1426 15.7716 19.9651 15.906 19.7617C16.0397 19.5595 16.1305 19.2804 16.1305 18.8716L16.1305 17.7314C16.1305 17.5658 15.9961 17.4314 15.8305 17.4314L12.5358 17.4314C12.1769 17.4314 11.8858 17.1404 11.8858 16.7814C11.8858 16.4225 12.1769 16.1314 12.5358 16.1314L18.8637 16.1314C19.2718 16.1314 19.5503 16.0407 19.7523 15.9071C19.9554 15.7728 20.1327 15.5607 20.2797 15.2318C20.5878 14.5428 20.708 13.4717 20.708 12.0007C20.708 10.5297 20.5878 9.45834 20.2797 8.76901C20.1326 8.44001 19.9553 8.22782 19.7522 8.09337C19.5502 7.95972 19.2717 7.86899 18.8637 7.86899C18.2621 7.86899 18.0672 7.86923 17.8854 7.86946L17.7302 7.8696C17.5646 7.86974 17.4305 8.00401 17.4305 8.1696Z" fill="rgb(116,118,123)" fill-rule="evenodd" />
</svg>
