<svg width="24.000000" height="24.000000" viewBox="0 0 24 24" fill="none" xmlns="http://www.w3.org/2000/svg" xmlns:xlink="http://www.w3.org/1999/xlink">
	<desc>
			Created with Pixso.
	</desc>
	<defs>
		<clipPath id="clip1090_1198">
			<rect id="Solid / Wall Solid" width="24.000000" height="24.000000" fill="white" fill-opacity="0"/>
		</clipPath>
	</defs>
	<g clip-path="url(#clip1090_1198)">
		<path id="Shape" d="M11.35 4L7 4C5.34 4 4 5.34 4 7L4 8.48L11.35 8.48L11.35 4ZM4 9.78L4 14.21L7.64 14.21L7.64 9.78L4 9.78ZM4 15.51L4 16.98C4 18.64 5.34 19.98 7 19.98L11.35 19.98L11.35 15.51L4 15.51ZM12.64 19.98L17 19.98C18.65 19.98 20 18.64 20 16.98L20 15.51L12.64 15.51L12.64 19.98ZM20 14.21L20 9.78L16.35 9.78L16.35 14.21L20 14.21ZM20 8.48L20 7C20 5.34 18.65 4 17 4L12.64 4L12.64 8.48L20 8.48ZM15.05 9.78L15.05 14.21L8.94 14.21L8.94 9.78L11.98 9.78L15.05 9.78Z" fill="#74767B" fill-opacity="1.000000" fill-rule="evenodd"/>
	</g>
</svg>
