<svg width="24.000000" height="24.000000" viewBox="0 0 24 24" fill="none" xmlns="http://www.w3.org/2000/svg" xmlns:xlink="http://www.w3.org/1999/xlink">
	<desc>
			Created with Pixso.
	</desc>
	<defs>
		<clipPath id="clip17_618">
			<rect id="Solid / Account Detail Solid" width="24.000000" height="24.000000" fill="white" fill-opacity="0"/>
		</clipPath>
	</defs>
	<g clip-path="url(#clip17_618)">
		<path id="Shape" d="M7 3C5.34 3 4 4.34 4 6L4 18C4 19.65 5.34 21 7 21L17 21C18.65 21 20 19.65 20 18L20 9.29C20 8.47 19.65 7.67 19.05 7.11L15.53 3.81C14.97 3.29 14.24 3 13.48 3L7 3ZM18.4 8.4C18.62 8.62 18.46 9 18.15 9L15.33 9C14.59 9 14 8.36 14 7.57L14 4.84C14 4.53 14.37 4.37 14.59 4.59L18.4 8.4ZM12.12 8.46C12.12 8.05 11.78 7.71 11.37 7.71C10.96 7.71 10.62 8.05 10.62 8.46C10.62 8.88 10.96 9.21 11.37 9.21C11.78 9.21 12.12 8.88 12.12 8.46ZM12.02 11.21C12.02 10.86 11.73 10.56 11.37 10.56C11.01 10.56 10.72 10.86 10.72 11.21L10.72 15.06C10.72 16.14 11.59 17.01 12.67 17.01L12.72 17.01C13.08 17.01 13.37 16.72 13.37 16.36C13.37 16 13.08 15.71 12.72 15.71L12.67 15.71C12.31 15.71 12.02 15.42 12.02 15.06L12.02 11.21Z" fill="#717681" fill-opacity="1.000000" fill-rule="evenodd"/>
	</g>
</svg>
