<svg width="24.000000" height="24.000000" viewBox="0 0 24 24" fill="none" xmlns="http://www.w3.org/2000/svg" xmlns:xlink="http://www.w3.org/1999/xlink">
	<desc>
			Created with Pixso.
	</desc>
	<defs>
		<clipPath id="clip17_819">
			<rect id="Solid / Archive Solid" width="24.000000" height="24.000000" fill="white" fill-opacity="0"/>
		</clipPath>
	</defs>
	<g clip-path="url(#clip17_819)">
		<path id="Shape" d="M3.93 6.05C3.93 4.39 5.27 3.05 6.93 3.05L13.55 3.05C14.29 3.05 15 3.32 15.55 3.82L19 6.92C19.63 7.49 20 8.3 20 9.15L20 18C20 19.65 18.65 21 17 21L6.93 21C5.27 21 3.93 19.65 3.93 18L3.93 6.05ZM7.89 5.01C7.89 4.65 8.18 4.36 8.54 4.36L9.46 4.36C9.82 4.36 10.11 4.65 10.11 5.01C10.11 5.37 9.82 5.66 9.46 5.66L8.54 5.66C8.18 5.66 7.89 5.37 7.89 5.01ZM8.54 6.96C8.18 6.96 7.89 7.25 7.89 7.61C7.89 7.97 8.18 8.26 8.54 8.26L9.46 8.26C9.82 8.26 10.11 7.97 10.11 7.61C10.11 7.25 9.82 6.96 9.46 6.96L8.54 6.96ZM7.89 10.21C7.89 9.85 8.18 9.56 8.54 9.56L9.46 9.56C9.82 9.56 10.11 9.85 10.11 10.21C10.11 10.57 9.82 10.86 9.46 10.86L8.54 10.86C8.18 10.86 7.89 10.57 7.89 10.21ZM9.44 12.16C9.12 12.16 8.84 12.38 8.76 12.69L8.11 15.25C8 15.69 8.33 16.12 8.79 16.12L11.06 16.12C11.52 16.12 11.85 15.69 11.74 15.25L11.1 12.69C11.02 12.38 10.74 12.16 10.42 12.16L9.44 12.16ZM9.74 6.31C9.74 5.95 10.03 5.66 10.39 5.66L11.31 5.66C11.67 5.66 11.96 5.95 11.96 6.31C11.96 6.67 11.67 6.96 11.31 6.96L10.39 6.96C10.03 6.96 9.74 6.67 9.74 6.31ZM10.39 8.26C10.03 8.26 9.74 8.55 9.74 8.91C9.74 9.27 10.03 9.56 10.39 9.56L11.31 9.56C11.67 9.56 11.96 9.27 11.96 8.91C11.96 8.55 11.67 8.26 11.31 8.26L10.39 8.26Z" fill="#717681" fill-opacity="1.000000" fill-rule="evenodd"/>
	</g>
</svg>
