<svg width="24" height="24" viewBox="0 0 24 24" fill="none" xmlns="http://www.w3.org/2000/svg">
<path fill-rule="evenodd" clip-rule="evenodd" d="M3.93652 6.05551C3.93652 4.39866 5.27967 3.05551 6.93652 3.05551H13.5524C14.2932 3.05551 15.0077 3.32953 15.5584 3.82482L19.006 6.9251C19.6387 7.49405 20 8.30491 20 9.15579V18C20 19.6569 18.6569 21 17 21H6.93652C5.27967 21 3.93652 19.6568 3.93652 18V6.05551ZM7.89624 5.01622C7.89624 4.65724 8.18725 4.36622 8.54624 4.36622H9.46609C9.82507 4.36622 10.1161 4.65724 10.1161 5.01622C10.1161 5.37521 9.82507 5.66622 9.46609 5.66622H8.54624C8.18725 5.66622 7.89624 5.37521 7.89624 5.01622ZM8.54624 6.96622C8.18725 6.96622 7.89624 7.25724 7.89624 7.61622C7.89624 7.97521 8.18725 8.26622 8.54624 8.26622H9.46609C9.82507 8.26622 10.1161 7.97521 10.1161 7.61622C10.1161 7.25724 9.82507 6.96622 9.46609 6.96622H8.54624ZM7.89624 10.2162C7.89624 9.85724 8.18725 9.56622 8.54624 9.56622H9.46609C9.82507 9.56622 10.1161 9.85724 10.1161 10.2162C10.1161 10.5752 9.82507 10.8662 9.46609 10.8662H8.54624C8.18725 10.8662 7.89624 10.5752 7.89624 10.2162ZM9.44133 12.1662C9.1208 12.1662 8.84122 12.3839 8.76267 12.6947L8.11651 15.2513C8.00474 15.6935 8.33903 16.1228 8.79517 16.1228H11.0695C11.5256 16.1228 11.8599 15.6935 11.7481 15.2513L11.1019 12.6947C11.0234 12.3839 10.7438 12.1662 10.4233 12.1662H9.44133ZM9.74854 6.31622C9.74854 5.95724 10.0395 5.66622 10.3985 5.66622H11.3184C11.6774 5.66622 11.9684 5.95724 11.9684 6.31622C11.9684 6.67521 11.6774 6.96622 11.3184 6.96622H10.3985C10.0395 6.96622 9.74854 6.67521 9.74854 6.31622ZM10.3985 8.26622C10.0395 8.26622 9.74854 8.55724 9.74854 8.91622C9.74854 9.27521 10.0395 9.56622 10.3985 9.56622H11.3184C11.6774 9.56622 11.9684 9.27521 11.9684 8.91622C11.9684 8.55724 11.6774 8.26622 11.3184 8.26622H10.3985Z" fill="#717681"/>
</svg>
