<svg width="24" height="24" viewBox="0 0 24 24" fill="none" xmlns="http://www.w3.org/2000/svg">
<path fill-rule="evenodd" clip-rule="evenodd" d="M9.30073 9.89795C9.84824 9.17565 10.8331 8.3472 11.7161 7.68027L11.7178 7.679L11.7969 7.61944C11.9832 7.4798 12.1642 7.34783 12.3346 7.22611C12.5879 7.04521 13.0369 7.38622 13.0172 7.69683C13.0071 7.8563 13.0075 8.02084 13.0205 8.1864C13.024 8.2314 13.0285 8.27648 13.0339 8.32155L13.0342 8.32408C13.0986 8.85637 13.2975 9.38749 13.6951 9.78286C13.8876 9.97432 14.083 10.1545 14.2745 10.3311C15.1816 11.1675 16 11.9221 16 13.4022C16 14.8758 15.0962 16.3555 13.3186 16.8351C13.1802 16.8725 13.0147 16.8212 12.9031 16.6905C12.7732 16.5384 12.7621 16.3354 12.7509 16.1305C12.7407 15.9454 12.7305 15.7588 12.6325 15.6069C12.4545 15.3312 12.1444 15.1486 11.7917 15.1486C11.4864 15.1486 11.2131 15.2854 11.0297 15.5011C10.9011 15.6523 10.8663 15.8779 10.8334 16.0915C10.7887 16.3815 10.7474 16.6492 10.4795 16.6782C10.4226 16.6844 10.3662 16.6772 10.3175 16.6566C9.42154 16.2788 8.72247 15.6108 8.32822 14.7834C7.6251 13.3076 8.09864 11.4838 9.30073 9.89795ZM14.7 13.4022C14.7 14.06 14.4253 14.7125 13.8599 15.1516C13.8234 15.07 13.779 14.986 13.7247 14.9019C13.3173 14.2709 12.6042 13.8486 11.7917 13.8486C11.0892 13.8486 10.4592 14.1652 10.0394 14.6589C9.99212 14.7144 9.94996 14.7709 9.91228 14.8273C9.74348 14.6453 9.60556 14.4419 9.50182 14.2242C9.09504 13.3705 9.28101 12.076 10.3367 10.6833C10.673 10.2397 11.2571 9.7056 11.891 9.19306C12.0496 9.72594 12.3271 10.2559 12.7784 10.7047C12.9884 10.9135 13.199 11.1077 13.386 11.2801L13.3933 11.2868C14.322 12.1432 14.7 12.5474 14.7 13.4022Z" fill="#717681"/>
<path fill-rule="evenodd" clip-rule="evenodd" d="M4 6C4 4.34315 5.34315 3 7 3H17C18.6569 3 20 4.34315 20 6V18C20 19.6569 18.6569 21 17 21H7C5.34315 21 4 19.6569 4 18V6ZM7 4.3H17C17.9389 4.3 18.7 5.06112 18.7 6V18C18.7 18.9389 17.9389 19.7 17 19.7H7C6.06112 19.7 5.3 18.9389 5.3 18V6C5.3 5.06112 6.06112 4.3 7 4.3Z" fill="#717681"/>
</svg>
