<svg width="24" height="24" viewBox="0 0 24 24" fill="none" xmlns="http://www.w3.org/2000/svg">
<path d="M4.26316 2.10792C4.54767 1.88901 4.95578 1.9422 5.17468 2.22672L5.92446 3.20122C6.26022 3.07128 6.62521 3.00002 7.00684 3.00002H17.0001C18.6569 3.00002 20.0001 4.34317 20.0001 6.00002V18C20.0001 18.8797 19.6215 19.6709 19.0183 20.2197L19.6038 20.9806C19.8227 21.2651 19.7695 21.6732 19.485 21.8921C19.2005 22.111 18.7924 22.0578 18.5735 21.7733L17.8781 20.8695C17.8778 20.8696 17.8783 20.8694 17.8781 20.8695L4.84013 3.92507C4.83995 3.92526 4.84032 3.92488 4.84013 3.92507L4.14436 3.01945C3.92545 2.73493 3.97864 2.32683 4.26316 2.10792Z" fill="#717681"/>
<path d="M7.00683 21H16.3372L4.13269 5.13746C4.05082 5.41064 4.00684 5.7002 4.00684 6.00002V18C4.00684 19.6569 5.34998 21 7.00683 21Z" fill="#717681"/>
</svg>
