<svg width="24.000000" height="24.000000" viewBox="0 0 24 24" fill="none" xmlns="http://www.w3.org/2000/svg" xmlns:xlink="http://www.w3.org/1999/xlink">
	<desc>
			Created with Pixso.
	</desc>
	<defs>
		<clipPath id="clip17_609">
			<rect id="Outline / Description Outline" width="24.000000" height="24.000000" fill="white" fill-opacity="0"/>
		</clipPath>
	</defs>
	<g clip-path="url(#clip17_609)">
		<path id="Shape" d="M4 6C4 4.34 5.34 3 7 3L13.48 3C14.24 3 14.97 3.29 15.53 3.81L19.05 7.11C19.65 7.67 20 8.47 20 9.29L20 18C20 19.65 18.65 21 17 21L7 21C5.34 21 4 19.65 4 18L4 6ZM7 4.29L13.48 4.29C13.67 4.29 13.86 4.33 14.04 4.39L14.04 7.05C14.04 8.12 14.92 9 15.99 9L18.67 9C18.69 9.09 18.7 9.19 18.7 9.29L18.7 18C18.7 18.93 17.93 19.7 17 19.7L7 19.7C6.06 19.7 5.3 18.93 5.3 18L5.3 6C5.3 5.06 6.06 4.29 7 4.29ZM17.78 7.7L15.34 5.42L15.34 7.05C15.34 7.41 15.64 7.7 15.99 7.7L17.78 7.7ZM11.35 8.99C11.7 8.99 12 8.7 12 8.34C12 7.98 11.7 7.69 11.35 7.69L8.64 7.69C8.28 7.69 7.99 7.98 7.99 8.34C7.99 8.7 8.28 8.99 8.64 8.99L11.35 8.99ZM16 11.85C16 12.21 15.7 12.5 15.35 12.5L8.64 12.5C8.28 12.5 7.99 12.21 7.99 11.85C7.99 11.49 8.28 11.2 8.64 11.2L15.35 11.2C15.7 11.2 16 11.49 16 11.85ZM15.35 16.01C15.7 16.01 16 15.72 16 15.36C16 15 15.7 14.71 15.35 14.71L8.64 14.71C8.28 14.71 7.99 15 7.99 15.36C7.99 15.72 8.28 16.01 8.64 16.01L15.35 16.01Z" fill="#717681" fill-opacity="1.000000" fill-rule="evenodd"/>
	</g>
</svg>
