<svg width="24.000000" height="24.000000" viewBox="0 0 24 24" fill="none" xmlns="http://www.w3.org/2000/svg" xmlns:xlink="http://www.w3.org/1999/xlink">
	<desc>
			Created with Pixso.
	</desc>
	<defs>
		<clipPath id="clip17_759">
			<rect id="Solid / Doc View Solid" width="24.000000" height="24.000000" fill="white" fill-opacity="0"/>
		</clipPath>
	</defs>
	<g clip-path="url(#clip17_759)">
		<path id="Shape" d="M20 6C20 4.34 18.65 3 17 3L7 3C5.35 3 4 4.34 4 6L4 18C4 19.65 5.35 21 7 21L17 21C18.65 21 20 19.65 20 18L20 6ZM12 8.01C9.55 8.01 7.93 10.09 7.21 11.24C6.93 11.69 6.93 12.28 7.21 12.73C7.93 13.88 9.55 15.95 12 15.95C14.44 15.95 16.07 13.88 16.79 12.73C17.07 12.28 17.07 11.69 16.79 11.24C16.07 10.09 14.44 8.01 12 8.01ZM8.31 11.92C8.63 11.41 9.13 10.74 9.78 10.2C10.43 9.66 11.17 9.31 12 9.31C12.83 9.31 13.57 9.66 14.21 10.2C14.87 10.74 15.37 11.41 15.68 11.92C15.69 11.93 15.7 11.96 15.7 11.98C15.7 12.01 15.69 12.03 15.68 12.04C15.37 12.55 14.87 13.23 14.21 13.77C13.57 14.3 12.83 14.65 12 14.65C11.17 14.65 10.43 14.3 9.78 13.77C9.13 13.23 8.63 12.55 8.31 12.04C8.31 12.03 8.3 12.01 8.3 11.98C8.3 11.96 8.31 11.93 8.31 11.92ZM12 13.73C12.95 13.73 13.73 12.95 13.73 12C13.73 11.04 12.95 10.26 12 10.26C11.04 10.26 10.26 11.04 10.26 12C10.26 12.95 11.04 13.73 12 13.73Z" fill="#717681" fill-opacity="1.000000" fill-rule="evenodd"/>
	</g>
</svg>
