<svg width="24.000000" height="24.000000" viewBox="0 0 24 24" fill="none" xmlns="http://www.w3.org/2000/svg" xmlns:xlink="http://www.w3.org/1999/xlink">
	<desc>
			Created with Pixso.
	</desc>
	<defs>
		<clipPath id="clip17_783">
			<rect id="Outline / Doc Sign Outline" width="24.000000" height="24.000000" fill="white" fill-opacity="0"/>
		</clipPath>
	</defs>
	<g>
		<path id="Shape" d="M7 3C5.34 3 4 4.34 4 6L4 18C4 19.65 5.34 21 7 21L17 21C18.65 21 20 19.65 20 18L20 6C20 4.34 18.65 3 17 3L7 3ZM17 4.29L7 4.29C6.06 4.29 5.3 5.06 5.3 6L5.3 18C5.3 18.93 6.06 19.7 7 19.7L17 19.7C17.93 19.7 18.7 18.93 18.7 18L18.7 6C18.7 5.06 17.93 4.29 17 4.29ZM9.29 13.16C9.57 12.6 9.8 12.05 9.92 11.56C10.05 11 10.09 10.27 9.51 9.77C9 9.32 8.21 9.28 7.32 9.41C6.97 9.46 6.72 9.78 6.77 10.14C6.82 10.5 7.15 10.74 7.51 10.69C8.35 10.57 8.61 10.71 8.66 10.75L8.66 10.75C8.67 10.76 8.68 10.77 8.69 10.83C8.71 10.91 8.7 11.05 8.65 11.26C8.55 11.69 8.31 12.24 7.96 12.91C7.77 13.28 7.57 13.66 7.36 14.05C7.19 14.36 7.02 14.68 6.84 15.03C6.7 15.29 6.76 15.62 6.99 15.82C7.22 16.02 7.55 16.03 7.8 15.85L11.01 13.52L11.56 14.48C11.91 15.08 12.76 15.12 13.16 14.55L14.09 13.22C14.68 12.37 15.88 12.27 16.61 12.99L16.65 13.03C16.9 13.28 17.31 13.28 17.57 13.03C17.82 12.78 17.82 12.36 17.57 12.11L17.53 12.07C16.23 10.77 14.07 10.97 13.02 12.47L12.41 13.35L11.94 12.53C11.66 12.05 11.01 11.91 10.56 12.24L9.29 13.16Z" fill="#717681" fill-opacity="1.000000" fill-rule="evenodd"/>
	</g>
</svg>
