<svg width="24.000000" height="24.000000" viewBox="0 0 24 24" fill="none" xmlns="http://www.w3.org/2000/svg" xmlns:xlink="http://www.w3.org/1999/xlink">
	<desc>
			Created with Pixso.
	</desc>
	<defs>
		<clipPath id="clip17_786">
			<rect id="Solid / Doc Regenerate Solid" width="24.000000" height="24.000000" fill="white" fill-opacity="0"/>
		</clipPath>
	</defs>
	<g >
		<path id="Shape" d="M20 6C20 4.34 18.65 3 17 3L7 3C5.35 3 4 4.34 4 6L4 18C4 19.65 5.35 21 7 21L17 21C18.65 21 20 19.65 20 18L20 6ZM9.81 12.29L10.54 12.87C10.69 12.99 10.88 13.02 11.05 12.99C11.21 12.96 11.35 12.89 11.43 12.74C11.64 12.45 11.59 12.04 11.3 11.83L9.35 10.3C9.03 10.05 8.57 10.14 8.34 10.48L6.89 12.66C6.7 12.96 6.79 13.36 7.09 13.56C7.39 13.76 7.79 13.67 7.99 13.37L8.53 12.53C8.79 14.49 10.47 16 12.5 16C14.7 16 16.5 14.21 16.5 12C16.5 10.25 15.37 8.76 13.8 8.22C13.59 8.15 13.37 8.09 13.14 8.05C12.79 8 12.5 8.28 12.5 8.64C12.5 9 12.79 9.29 13.14 9.38C13.25 9.41 13.36 9.44 13.47 9.48C14.48 9.87 15.2 10.85 15.2 12C15.2 13.49 13.99 14.7 12.5 14.7C11.1 14.7 9.96 13.65 9.81 12.29Z" fill="#74767B" fill-opacity="1.000000" fill-rule="evenodd"/>
	</g>
</svg>
