<svg width="24.000000" height="24.000000" viewBox="0 0 24 24" fill="none" xmlns="http://www.w3.org/2000/svg" xmlns:xlink="http://www.w3.org/1999/xlink">
	<desc>
			Created with Pixso.
	</desc>
	<defs>
		<clipPath id="clip17_601">
			<rect id="Outline / Docs Outline" width="24.000000" height="24.000000" fill="white" fill-opacity="0"/>
		</clipPath>
	</defs>
	<g>
		<path id="Shape" d="M17.64 3.35C19.3 3.35 20.64 4.69 20.64 6.35L20.64 16.35C20.64 18 19.3 19.35 17.64 19.35L9.64 19.35C7.99 19.35 6.64 18 6.64 16.35L6.64 6.35C6.64 4.69 7.99 3.35 9.64 3.35L17.64 3.35ZM9.64 4.65L17.64 4.65C18.58 4.65 19.35 5.41 19.35 6.35L19.35 16.35C19.35 17.28 18.58 18.04 17.64 18.04L9.64 18.04C8.71 18.04 7.94 17.28 7.94 16.35L7.94 6.35C7.94 5.41 8.71 4.65 9.64 4.65ZM14.02 7.89C14.02 8.25 13.73 8.54 13.37 8.54L10.67 8.54C10.31 8.54 10.02 8.25 10.02 7.89C10.02 7.53 10.31 7.24 10.67 7.24L13.37 7.24C13.73 7.24 14.02 7.53 14.02 7.89ZM4.64 8.7C4.29 8.7 4 8.99 4 9.35L4 18.75C4 20.54 5.45 22 7.25 22L15.64 22C16 22 16.29 21.7 16.29 21.35C16.29 20.99 16 20.7 15.64 20.7L7.25 20.7C6.17 20.7 5.3 19.82 5.3 18.75L5.3 9.35C5.3 8.99 5 8.7 4.64 8.7ZM16.62 12.05C16.98 12.05 17.27 11.76 17.27 11.4C17.27 11.04 16.98 10.75 16.62 10.75L10.67 10.75C10.31 10.75 10.02 11.04 10.02 11.4C10.02 11.76 10.31 12.05 10.67 12.05L16.62 12.05ZM16.62 15.56C16.98 15.56 17.27 15.27 17.27 14.91C17.27 14.55 16.98 14.26 16.62 14.26L10.67 14.26C10.31 14.26 10.02 14.55 10.02 14.91C10.02 15.27 10.31 15.56 10.67 15.56L16.62 15.56Z" fill="#717681" fill-opacity="1.000000" fill-rule="evenodd"/>
	</g>
</svg>
