<svg viewBox="0 0 24 24" xmlns="http://www.w3.org/2000/svg" xmlns:xlink="http://www.w3.org/1999/xlink" width="24.000000" height="24.000000" fill="none">
	<rect id="Solid/Docs Solid" width="24.000000" height="24.000000" x="0.000000" y="0.000000" />
	<path id="Shape" d="M17.65 3.35004C19.3069 3.35004 20.65 4.69318 20.65 6.35004L20.65 16.35C20.65 18.0069 19.3069 19.35 17.65 19.35L9.65 19.35C7.99314 19.35 6.65 18.0069 6.65 16.35L6.65 6.35004C6.65 4.69318 7.99314 3.35004 9.65 3.35004L17.65 3.35004ZM14.0246 7.8975C14.0246 8.25649 13.7336 8.5475 13.3746 8.5475L10.6704 8.5475C10.3115 8.54749 10.0204 8.25648 10.0204 7.8975C10.0204 7.53851 10.3115 7.2475 10.6704 7.2475L13.3746 7.2475C13.7336 7.2475 14.0246 7.53852 14.0246 7.8975ZM4.65 8.70004C4.29101 8.70004 4 8.99105 4 9.35004L4 18.75C4 20.545 5.45507 22 7.25 22L15.65 22C16.009 22 16.3 21.709 16.3 21.35C16.3 20.9911 16.009 20.7 15.65 20.7L7.25 20.7C6.17304 20.7 5.3 19.827 5.3 18.75L5.3 9.35004C5.3 8.99105 5.00898 8.70004 4.65 8.70004ZM16.6283 12.0574C16.9873 12.0574 17.2783 11.7664 17.2783 11.4074C17.2783 11.0484 16.9873 10.7574 16.6283 10.7574L10.6704 10.7574C10.3115 10.7574 10.0204 11.0484 10.0204 11.4074C10.0204 11.7664 10.3115 12.0574 10.6704 12.0574L16.6283 12.0574ZM17.2783 14.9173C17.2783 15.2763 16.9873 15.5673 16.6283 15.5673L10.6704 15.5673C10.3115 15.5673 10.0204 15.2763 10.0204 14.9173C10.0204 14.5583 10.3115 14.2673 10.6704 14.2673L16.6283 14.2673C16.9873 14.2673 17.2783 14.5583 17.2783 14.9173Z" fill="rgb(116,118,123)" fill-rule="evenodd" />
</svg>
