<svg width="24.000000" height="24.000000" viewBox="0 0 24 24" fill="none" xmlns="http://www.w3.org/2000/svg" xmlns:xlink="http://www.w3.org/1999/xlink">
	<desc>
			Created with Pixso.
	</desc>
	<defs/>
	<path id="Shape" d="M15 2.34C16.54 2.34 17.81 3.51 17.98 5.01C18.02 5.02 18.07 5.03 18.13 5.04C19.56 5.27 20.65 6.5 20.65 8L20.65 18C20.65 19.65 19.3 21 17.65 21L9.65 21C8.34 21 7.23 20.16 6.82 19C5.24 18.9 4 17.6 4 16L4 5.34C4 3.69 5.34 2.34 7 2.34L15 2.34ZM9.65 5L16.66 5C16.5 4.22 15.82 3.64 15 3.64L7 3.64C6.06 3.64 5.3 4.41 5.3 5.34L5.3 16C5.3 16.75 5.78 17.38 6.44 17.61C6.46 17.61 6.48 17.62 6.5 17.62C6.55 17.64 6.6 17.65 6.65 17.66L6.65 8C6.65 6.34 7.99 5 9.65 5ZM17.65 19.7L9.65 19.7C8.71 19.7 7.94 18.94 7.94 18L7.94 8C7.94 7.06 8.71 6.3 9.65 6.3L17.65 6.3C18.58 6.3 19.35 7.06 19.35 8L19.35 18C19.35 18.94 18.58 19.7 17.65 19.7ZM14.3 9.99C14.3 9.63 14.01 9.34 13.65 9.34C13.29 9.34 13 9.63 13 9.99L13 12.34L10.65 12.34C10.29 12.34 10 12.63 10 12.99C10 13.35 10.29 13.64 10.65 13.64L13 13.64L13 15.99C13 16.35 13.29 16.64 13.65 16.64C14.01 16.64 14.3 16.35 14.3 15.99L14.3 13.64L16.65 13.64C17.01 13.64 17.3 13.35 17.3 12.99C17.3 12.63 17.01 12.34 16.65 12.34L14.3 12.34L14.3 9.99Z" fill="#717681" fill-opacity="1.000000" fill-rule="evenodd"/>
</svg>
