<svg width="24.000000" height="24.000000" viewBox="0 0 24 24" fill="none" xmlns="http://www.w3.org/2000/svg" xmlns:xlink="http://www.w3.org/1999/xlink">
	<desc>
			Created with Pixso.
	</desc>
	<defs>
		<clipPath id="clip116957_1000">
			<rect id="Solid / File CSV Solid" width="24.000000" height="24.000000" fill="white" fill-opacity="0"/>
		</clipPath>
	</defs>
	<rect id="Solid / File CSV Solid" width="24.000000" height="24.000000" fill="#FFFFFF" fill-opacity="0"/>
	<g>
		<path id="Shape" d="M5 6L5 11C3.34 11 2 12.34 2 14L2 18C2 19.65 3.34 21 5 21L19 21C20.65 21 22 19.65 22 18L22 14C22 12.34 20.65 11 19 11L19 9.17C19 8.42 18.71 7.69 18.19 7.13L15.23 3.95C14.67 3.34 13.87 3 13.04 3L8 3C6.34 3 5 4.34 5 6ZM8 4.29L13.04 4.29C13.14 4.29 13.24 4.3 13.34 4.32L13.34 7.04C13.34 8.12 14.22 8.99 15.29 8.99L17.69 8.99C17.69 9.05 17.7 9.11 17.7 9.17L17.7 11L6.3 11L6.3 6C6.3 5.06 7.06 4.29 8 4.29ZM16.94 7.69L14.64 5.23L14.64 7.04C14.64 7.4 14.94 7.69 15.29 7.69L16.94 7.69ZM12.5 13.58C12.86 13.58 13.15 13.87 13.15 14.23C13.15 14.58 12.86 14.88 12.5 14.88L11.64 14.88C11.52 14.88 11.43 14.97 11.43 15.08C11.43 15.17 11.48 15.25 11.57 15.28L12.32 15.56C12.9 15.77 13.28 16.33 13.28 16.94C13.28 17.76 12.62 18.41 11.81 18.41L10.78 18.41C10.42 18.41 10.13 18.12 10.13 17.76C10.13 17.41 10.42 17.11 10.78 17.11L11.81 17.11C11.9 17.11 11.98 17.04 11.98 16.94C11.98 16.87 11.93 16.8 11.87 16.78L11.11 16.5C10.52 16.28 10.13 15.71 10.13 15.08C10.13 14.25 10.81 13.58 11.64 13.58L12.5 13.58ZM7.22 17.1C6.86 17.1 6.57 16.81 6.57 16.45L6.57 15.53C6.57 15.17 6.86 14.88 7.22 14.88L7.91 14.88C8.27 14.88 8.56 14.59 8.56 14.23C8.56 13.87 8.27 13.58 7.91 13.58L7.22 13.58C6.14 13.58 5.27 14.46 5.27 15.53L5.27 16.45C5.27 17.53 6.14 18.4 7.22 18.4L7.91 18.4C8.27 18.4 8.56 18.11 8.56 17.75C8.56 17.39 8.27 17.1 7.91 17.1L7.22 17.1ZM14.9 13.62C15.23 13.49 15.61 13.65 15.75 13.98L16.61 16.06L17.47 13.98C17.61 13.65 17.99 13.49 18.32 13.62C18.65 13.76 18.81 14.14 18.67 14.47L17.21 18.01C17.2 18.03 17.19 18.06 17.17 18.09C17.15 18.12 17.13 18.16 17.1 18.19C17.04 18.27 16.95 18.33 16.86 18.37C16.78 18.4 16.69 18.41 16.61 18.41C16.53 18.41 16.44 18.4 16.36 18.37C16.26 18.33 16.18 18.27 16.12 18.19C16.09 18.16 16.07 18.12 16.04 18.09C16.03 18.06 16.02 18.03 16.01 18.01L14.55 14.47C14.41 14.14 14.57 13.76 14.9 13.62Z" fill="#717681" fill-opacity="1.000000" fill-rule="evenodd"/>
	</g>
</svg>
