<svg width="24.000000" height="24.000000" viewBox="0 0 24 24" fill="none" xmlns="http://www.w3.org/2000/svg" xmlns:xlink="http://www.w3.org/1999/xlink">
	<desc>
			Created with Pixso.
	</desc>
	<defs>
		<clipPath id="clip108904_1380">
			<rect id="Outline / File XML Outline" width="24.000000" height="24.000000" fill="white" fill-opacity="0"/>
		</clipPath>
	</defs>
	<g clip-path="url(#clip108904_1380)">
		<path id="Shape" d="M5 6L5 11C3.34 11 2 12.34 2 14L2 18C2 19.65 3.34 21 5 21L19 21C20.65 21 22 19.65 22 18L22 14C22 12.34 20.65 11 19 11L19 9.17C19 8.42 18.71 7.69 18.19 7.13L15.23 3.95C14.67 3.34 13.87 3 13.04 3L8 3C6.34 3 5 4.34 5 6ZM8 4.29L13.04 4.29C13.14 4.29 13.24 4.3 13.34 4.32L13.34 7.04C13.34 8.12 14.22 8.99 15.29 8.99L17.69 8.99C17.69 9.05 17.7 9.11 17.7 9.17L17.7 11L6.3 11L6.3 6C6.3 5.06 7.06 4.29 8 4.29ZM14.64 7.04L14.64 5.23L16.94 7.69L15.29 7.69C14.94 7.69 14.64 7.4 14.64 7.04ZM19 12.3L5 12.3C4.06 12.3 3.3 13.06 3.3 14L3.3 18C3.3 18.93 4.06 19.7 5 19.7L19 19.7C19.93 19.7 20.7 18.93 20.7 18L20.7 14C20.7 13.06 19.93 12.3 19 12.3ZM8.49 13.69C8.2 13.49 7.79 13.55 7.58 13.85L6.85 14.88L6.11 13.85C5.91 13.55 5.5 13.49 5.21 13.69C4.92 13.9 4.85 14.31 5.06 14.6L6.05 16L5.06 17.39C4.85 17.68 4.92 18.09 5.21 18.3C5.5 18.51 5.91 18.44 6.11 18.14L6.85 17.11L7.58 18.14C7.79 18.44 8.2 18.51 8.49 18.3C8.78 18.09 8.85 17.68 8.64 17.39L7.65 16L8.64 14.6C8.85 14.31 8.78 13.9 8.49 13.69ZM10.17 13.69C9.99 13.82 9.89 14.03 9.89 14.23L9.89 17.77C9.89 18.13 10.19 18.42 10.54 18.42C10.9 18.42 11.19 18.13 11.19 17.77L11.19 16.25L11.86 17.19C11.87 17.2 11.87 17.21 11.88 17.22C11.96 17.31 12.05 17.38 12.15 17.42C12.23 17.45 12.31 17.46 12.39 17.46C12.47 17.46 12.56 17.45 12.63 17.42C12.74 17.38 12.83 17.31 12.9 17.22C12.91 17.21 12.92 17.2 12.92 17.19L13.59 16.26L13.59 17.77C13.59 18.13 13.88 18.42 14.24 18.42C14.6 18.42 14.89 18.13 14.89 17.77L14.89 14.31C14.92 14.08 14.82 13.84 14.62 13.69C14.36 13.51 14 13.54 13.78 13.77C13.74 13.8 13.71 13.84 13.68 13.89L12.39 15.69L11.07 13.85C10.87 13.55 10.46 13.49 10.17 13.69ZM16.84 13.58C17.2 13.58 17.49 13.87 17.49 14.23L17.49 17.12L18.56 17.12C18.92 17.12 19.21 17.41 19.21 17.77C19.21 18.13 18.92 18.42 18.56 18.42L16.84 18.42C16.48 18.42 16.19 18.13 16.19 17.77L16.19 14.23C16.19 13.87 16.48 13.58 16.84 13.58Z" fill="#717681" fill-opacity="1.000000" fill-rule="evenodd"/>
	</g>
</svg>
