<svg width="24.000000" height="24.000000" viewBox="0 0 24 24" fill="none" xmlns="http://www.w3.org/2000/svg" xmlns:xlink="http://www.w3.org/1999/xlink">
	<desc>
			Created with Pixso.
	</desc>
	<defs>
		<clipPath id="clip108904_1387">
			<rect id="Outline / File TXT Outline" width="24.000000" height="24.000000" fill="white" fill-opacity="0"/>
		</clipPath>
	</defs>
	<g>
		<path id="Shape" d="M5 11L5 6C5 4.34 6.34 3 8 3L13.04 3C13.87 3 14.67 3.34 15.23 3.95L18.19 7.13C18.71 7.69 19 8.42 19 9.17L19 11C20.65 11 22 12.34 22 14L22 18C22 19.65 20.65 21 19 21L5 21C3.34 21 2 19.65 2 18L2 14C2 12.34 3.34 11 5 11ZM13.04 4.29L8 4.29C7.06 4.29 6.3 5.06 6.3 6L6.3 11L17.7 11L17.7 9.17C17.7 9.11 17.69 9.05 17.69 8.99L15.29 8.99C14.22 8.99 13.34 8.12 13.34 7.04L13.34 4.32C13.24 4.3 13.14 4.29 13.04 4.29ZM14.64 5.23L16.94 7.69L15.29 7.69C14.94 7.69 14.64 7.4 14.64 7.04L14.64 5.23ZM5 12.3L19 12.3C19.93 12.3 20.7 13.06 20.7 14L20.7 18C20.7 18.93 19.93 19.7 19 19.7L5 19.7C4.06 19.7 3.3 18.93 3.3 18L3.3 14C3.3 13.06 4.06 12.3 5 12.3ZM11.29 13.85C11.08 13.55 10.67 13.49 10.38 13.69C10.09 13.9 10.02 14.31 10.23 14.6L11.23 16L10.23 17.39C10.02 17.68 10.09 18.09 10.38 18.3C10.67 18.51 11.08 18.44 11.29 18.14L12.02 17.11L12.76 18.14C12.97 18.44 13.37 18.51 13.67 18.3C13.96 18.09 14.03 17.68 13.82 17.39L12.82 16L13.82 14.6C14.03 14.31 13.96 13.9 13.67 13.69C13.37 13.49 12.97 13.55 12.76 13.85L12.02 14.88L11.29 13.85ZM8.99 14.24C8.99 14.6 8.7 14.89 8.34 14.89L7.78 14.89L7.78 17.76C7.78 18.12 7.49 18.41 7.13 18.41C6.77 18.41 6.48 18.12 6.48 17.76L6.48 14.89L5.92 14.89C5.56 14.89 5.27 14.6 5.27 14.24C5.27 13.88 5.56 13.59 5.92 13.59L8.34 13.59C8.7 13.59 8.99 13.88 8.99 14.24ZM18.07 14.89C18.43 14.89 18.72 14.6 18.72 14.24C18.72 13.88 18.43 13.59 18.07 13.59L15.65 13.59C15.29 13.59 15 13.88 15 14.24C15 14.6 15.29 14.89 15.65 14.89L16.21 14.89L16.21 17.76C16.21 18.12 16.5 18.41 16.86 18.41C17.22 18.41 17.51 18.12 17.51 17.76L17.51 14.89L18.07 14.89Z" fill="#717681" fill-opacity="1.000000" fill-rule="evenodd"/>
	</g>
</svg>
