<svg width="24" height="24" viewBox="0 0 24 24" fill="none" xmlns="http://www.w3.org/2000/svg">
<mask id="path-1-inside-1_108904_1384" fill="white">
<path fill-rule="evenodd" clip-rule="evenodd" d="M5 11V6C5 4.34315 6.34315 3 8 3H13.042C13.8752 3 14.671 3.34655 15.2385 3.95662L18.1965 7.13629C18.7129 7.69141 19 8.42148 19 9.17967V11C20.6569 11 22 12.3431 22 14V18C22 19.6569 20.6569 21 19 21H5C3.34315 21 2 19.6569 2 18V14C2 12.3431 3.34315 11 5 11ZM13.042 4.3H8C7.06112 4.3 6.3 5.06112 6.3 6V11H17.7V9.17967C17.7 8.75003 17.5373 8.33632 17.2447 8.02175L14.2867 4.84209C13.9651 4.49638 13.5142 4.3 13.042 4.3ZM8.49664 13.6985C8.2044 13.49 7.79848 13.5579 7.58999 13.8501L6.85474 14.8807L6.11948 13.8501C5.91099 13.5579 5.50508 13.49 5.21284 13.6985C4.9206 13.9069 4.8527 14.3129 5.06118 14.6051L6.05628 16L5.06116 17.3948C4.85268 17.6871 4.92057 18.093 5.21281 18.3015C5.50505 18.51 5.91097 18.4421 6.11946 18.1498L6.85474 17.1192L7.59001 18.1498C7.7985 18.4421 8.20442 18.51 8.49666 18.3015C8.7889 18.093 8.8568 17.6871 8.64831 17.3948L7.65319 16L8.64829 14.6051C8.85677 14.3129 8.78888 13.9069 8.49664 13.6985ZM17.495 14.2328C17.495 13.8739 17.204 13.5828 16.845 13.5828C16.486 13.5828 16.195 13.8739 16.195 14.2328V17.7724C16.195 18.1313 16.486 18.4224 16.845 18.4224H18.5638C18.9228 18.4224 19.2138 18.1313 19.2138 17.7724C19.2138 17.4134 18.9228 17.1224 18.5638 17.1224H17.495L17.495 14.2328ZM10.1722 13.6985C10.4645 13.49 10.8704 13.5579 11.0789 13.8501L12.3982 15.6995L13.6883 13.891C13.7154 13.8473 13.7475 13.8071 13.7838 13.7711C14.0041 13.5473 14.3604 13.5103 14.6242 13.6985C14.8264 13.8428 14.9212 14.0817 14.8913 14.312V17.7724C14.8913 18.1313 14.6003 18.4224 14.2413 18.4224C13.8823 18.4224 13.5913 18.1313 13.5913 17.7724V16.2655L12.9379 17.1814C12.9097 17.2234 12.8762 17.2626 12.8375 17.2979C12.7935 17.3384 12.7446 17.372 12.6927 17.3983C12.5994 17.4459 12.4984 17.4689 12.3982 17.4688C12.2384 17.4687 12.0806 17.4098 11.9588 17.2979C11.9202 17.2626 11.8867 17.2234 11.8585 17.1814L11.1994 16.2576V17.7724C11.1994 18.1313 10.9084 18.4224 10.5494 18.4224C10.1904 18.4224 9.89941 18.1313 9.89941 17.7724V14.2329C9.89941 14.22 9.89979 14.2071 9.90053 14.1944C9.91044 14.0033 10.0043 13.8183 10.1722 13.6985Z"/>
</mask>
<path fill-rule="evenodd" clip-rule="evenodd" d="M5 11V6C5 4.34315 6.34315 3 8 3H13.042C13.8752 3 14.671 3.34655 15.2385 3.95662L18.1965 7.13629C18.7129 7.69141 19 8.42148 19 9.17967V11C20.6569 11 22 12.3431 22 14V18C22 19.6569 20.6569 21 19 21H5C3.34315 21 2 19.6569 2 18V14C2 12.3431 3.34315 11 5 11ZM13.042 4.3H8C7.06112 4.3 6.3 5.06112 6.3 6V11H17.7V9.17967C17.7 8.75003 17.5373 8.33632 17.2447 8.02175L14.2867 4.84209C13.9651 4.49638 13.5142 4.3 13.042 4.3ZM8.49664 13.6985C8.2044 13.49 7.79848 13.5579 7.58999 13.8501L6.85474 14.8807L6.11948 13.8501C5.91099 13.5579 5.50508 13.49 5.21284 13.6985C4.9206 13.9069 4.8527 14.3129 5.06118 14.6051L6.05628 16L5.06116 17.3948C4.85268 17.6871 4.92057 18.093 5.21281 18.3015C5.50505 18.51 5.91097 18.4421 6.11946 18.1498L6.85474 17.1192L7.59001 18.1498C7.7985 18.4421 8.20442 18.51 8.49666 18.3015C8.7889 18.093 8.8568 17.6871 8.64831 17.3948L7.65319 16L8.64829 14.6051C8.85677 14.3129 8.78888 13.9069 8.49664 13.6985ZM17.495 14.2328C17.495 13.8739 17.204 13.5828 16.845 13.5828C16.486 13.5828 16.195 13.8739 16.195 14.2328V17.7724C16.195 18.1313 16.486 18.4224 16.845 18.4224H18.5638C18.9228 18.4224 19.2138 18.1313 19.2138 17.7724C19.2138 17.4134 18.9228 17.1224 18.5638 17.1224H17.495L17.495 14.2328ZM10.1722 13.6985C10.4645 13.49 10.8704 13.5579 11.0789 13.8501L12.3982 15.6995L13.6883 13.891C13.7154 13.8473 13.7475 13.8071 13.7838 13.7711C14.0041 13.5473 14.3604 13.5103 14.6242 13.6985C14.8264 13.8428 14.9212 14.0817 14.8913 14.312V17.7724C14.8913 18.1313 14.6003 18.4224 14.2413 18.4224C13.8823 18.4224 13.5913 18.1313 13.5913 17.7724V16.2655L12.9379 17.1814C12.9097 17.2234 12.8762 17.2626 12.8375 17.2979C12.7935 17.3384 12.7446 17.372 12.6927 17.3983C12.5994 17.4459 12.4984 17.4689 12.3982 17.4688C12.2384 17.4687 12.0806 17.4098 11.9588 17.2979C11.9202 17.2626 11.8867 17.2234 11.8585 17.1814L11.1994 16.2576V17.7724C11.1994 18.1313 10.9084 18.4224 10.5494 18.4224C10.1904 18.4224 9.89941 18.1313 9.89941 17.7724V14.2329C9.89941 14.22 9.89979 14.2071 9.90053 14.1944C9.91044 14.0033 10.0043 13.8183 10.1722 13.6985Z" fill="#717681" stroke="#717681" stroke-width="2.6" mask="url(#path-1-inside-1_108904_1384)"/>
<path d="M13.9999 3.93012V7.04926C13.9999 7.76723 14.5819 8.34926 15.2999 8.34926L18.5576 8.34925" stroke="#717681" stroke-width="1.3"/>
</svg>
