<svg width="24" height="24" viewBox="0 0 24 24" fill="none" xmlns="http://www.w3.org/2000/svg">
<path d="M13.3512 14.2329C13.3512 13.8739 13.0601 13.5829 12.7012 13.5829H11.8413C11.0079 13.5829 10.3323 14.2585 10.3323 15.0919C10.3323 15.7225 10.7244 16.2866 11.3155 16.5063L12.0686 16.7863C12.1366 16.8115 12.1816 16.8764 12.1816 16.9489C12.1816 17.0447 12.104 17.1224 12.0081 17.1224H10.9823C10.6233 17.1224 10.3323 17.4134 10.3323 17.7724C10.3323 18.1314 10.6233 18.4224 10.9823 18.4224H12.0081C12.8219 18.4224 13.4816 17.7627 13.4816 16.9489C13.4816 16.3331 13.0987 15.7823 12.5216 15.5677L11.7685 15.2878C11.6866 15.2574 11.6323 15.1792 11.6323 15.0919C11.6323 14.9765 11.7259 14.8829 11.8413 14.8829L12.7012 14.8829C13.0601 14.8829 13.3512 14.5919 13.3512 14.2329Z" fill="#717681"/>
<path d="M6.77354 16.4586C6.77354 16.8176 7.06455 17.1086 7.42354 17.1086H8.11556C8.47455 17.1086 8.76556 17.3996 8.76556 17.7586C8.76556 18.1176 8.47455 18.4086 8.11556 18.4086H7.42354C6.34658 18.4086 5.47354 17.5355 5.47354 16.4586V15.5413C5.47354 14.4643 6.34658 13.5913 7.42354 13.5913H8.11556C8.47455 13.5913 8.76556 13.8823 8.76556 14.2413C8.76556 14.6003 8.47455 14.8913 8.11556 14.8913H7.42354C7.06455 14.8913 6.77354 15.1823 6.77354 15.5413V16.4586Z" fill="#717681"/>
<path d="M15.9517 13.9849C15.8147 13.6531 15.4347 13.4951 15.1029 13.632C14.771 13.769 14.613 14.149 14.75 14.4808L16.2079 18.0135C16.2189 18.0409 16.2317 18.0676 16.2463 18.0934C16.2678 18.1314 16.2929 18.1666 16.3207 18.1987C16.3849 18.2727 16.4668 18.3332 16.5635 18.3732C16.6447 18.4067 16.7288 18.4225 16.8115 18.4225C16.8942 18.4225 16.9783 18.4067 17.0595 18.3732C17.1562 18.3332 17.2381 18.2727 17.3023 18.1987C17.3302 18.1666 17.3552 18.1314 17.3768 18.0934C17.3914 18.0676 17.4042 18.0409 17.4152 18.0135L18.8731 14.4808C19.01 14.149 18.852 13.769 18.5202 13.632C18.1883 13.4951 17.8083 13.6531 17.6714 13.9849L16.8115 16.0684L15.9517 13.9849Z" fill="#717681"/>
<path fill-rule="evenodd" clip-rule="evenodd" d="M5 11V6C5 4.34315 6.34315 3 8 3H13.042C13.8752 3 14.671 3.34655 15.2385 3.95662L18.1965 7.13629C18.7129 7.69141 19 8.42148 19 9.17967V11C20.6569 11 22 12.3431 22 14V18C22 19.6569 20.6569 21 19 21H5C3.34315 21 2 19.6569 2 18V14C2 12.3431 3.34315 11 5 11ZM13.042 4.3H8C7.06112 4.3 6.3 5.06112 6.3 6V11H17.7V9.17967C17.7 9.11913 17.6968 9.05892 17.6904 8.99925L15.2999 8.99926C14.223 8.99926 13.3499 8.12621 13.3499 7.04926V4.32811C13.2491 4.30954 13.1461 4.3 13.042 4.3ZM14.6499 5.23254V7.04926C14.6499 7.40824 14.9409 7.69926 15.2999 7.69926L16.9447 7.69926L14.6499 5.23254ZM5 12.3H19C19.9389 12.3 20.7 13.0611 20.7 14V18C20.7 18.9389 19.9389 19.7 19 19.7H5C4.06112 19.7 3.3 18.9389 3.3 18V14C3.3 13.0611 4.06112 12.3 5 12.3Z" fill="#717681"/>
</svg>
