<svg width="24" height="24" viewBox="0 0 24 24" fill="none" xmlns="http://www.w3.org/2000/svg">
<path d="M17.0391 18.4093C17.398 18.4093 17.6891 18.1183 17.6891 17.7593V17.1936H18.17C18.529 17.1936 18.82 16.9026 18.82 16.5436C18.82 16.1846 18.529 15.8936 18.17 15.8936H17.6891V14.8935H18.7518C19.1108 14.8935 19.4018 14.6024 19.4018 14.2435C19.4018 13.8845 19.1108 13.5935 18.7518 13.5935H17.0391C16.6801 13.5935 16.3891 13.8845 16.3891 14.2435V17.7593C16.3891 18.1183 16.6801 18.4093 17.0391 18.4093Z" fill="#717681"/>
<path d="M13.3824 17.7593C13.3824 18.1183 13.0914 18.4093 12.7324 18.4093C12.3734 18.4093 12.0824 18.1183 12.0824 17.7593V14.2435C12.0824 13.8845 12.3734 13.5935 12.7324 13.5935H14.4513C14.8103 13.5935 15.1013 13.8845 15.1013 14.2435C15.1013 14.6024 14.8103 14.8935 14.4513 14.8935H13.3824V15.8936H13.8634C14.2224 15.8936 14.5134 16.1846 14.5134 16.5436C14.5134 16.9026 14.2224 17.1936 13.8634 17.1936H13.3824V17.7593Z" fill="#717681"/>
<path d="M8.32052 14.2435C8.32052 14.6025 8.02951 14.8935 7.67052 14.8935H7.10947L7.10947 17.7593C7.10947 18.1183 6.81846 18.4093 6.45947 18.4093C6.10049 18.4093 5.80947 18.1183 5.80947 17.7593V14.8935H5.24854C4.88955 14.8935 4.59854 14.6025 4.59854 14.2435C4.59854 13.8845 4.88955 13.5935 5.24854 13.5935H6.45396L6.45947 13.5935L6.46498 13.5935H7.67052C8.02951 13.5935 8.32052 13.8845 8.32052 14.2435Z" fill="#717681"/>
<path d="M10.6207 14.2435C10.6207 13.8845 10.3297 13.5935 9.9707 13.5935C9.61172 13.5935 9.3207 13.8845 9.3207 14.2435V17.7593C9.3207 18.1183 9.61172 18.4093 9.9707 18.4093C10.3297 18.4093 10.6207 18.1183 10.6207 17.7593V14.2435Z" fill="#717681"/>
<path fill-rule="evenodd" clip-rule="evenodd" d="M5 11V6C5 4.34315 6.34315 3 8 3H13.042C13.8752 3 14.671 3.34655 15.2385 3.95662L18.1965 7.13629C18.7129 7.69141 19 8.42148 19 9.17967V11C20.6569 11 22 12.3431 22 14V18C22 19.6569 20.6569 21 19 21H5C3.34315 21 2 19.6569 2 18V14C2 12.3431 3.34315 11 5 11ZM13.042 4.3H8C7.06112 4.3 6.3 5.06112 6.3 6V11H17.7V9.17967C17.7 9.11913 17.6968 9.05892 17.6904 8.99925L15.2999 8.99926C14.223 8.99926 13.3499 8.12621 13.3499 7.04926V4.32811C13.2491 4.30954 13.1461 4.3 13.042 4.3ZM14.6499 5.23254V7.04926C14.6499 7.40824 14.9409 7.69926 15.2999 7.69926L16.9447 7.69926L14.6499 5.23254ZM5 12.3H19C19.9389 12.3 20.7 13.0611 20.7 14V18C20.7 18.9389 19.9389 19.7 19 19.7H5C4.06112 19.7 3.3 18.9389 3.3 18V14C3.3 13.0611 4.06112 12.3 5 12.3Z" fill="#717681"/>
</svg>
