<svg width="24" height="24" viewBox="0 0 24 24" fill="none" xmlns="http://www.w3.org/2000/svg">
<path fill-rule="evenodd" clip-rule="evenodd" d="M11.0562 18.4086C10.8838 18.4086 10.7185 18.3401 10.5966 18.2182C10.4747 18.0963 10.4062 17.931 10.4062 17.7586V14.2413C10.4062 14.0689 10.4747 13.9036 10.5966 13.7817C10.7185 13.6598 10.8838 13.5913 11.0562 13.5913H12.2217C13.2987 13.5913 14.1717 14.4644 14.1717 15.5413V16.4586C14.1717 17.5356 13.2987 18.4086 12.2217 18.4086H11.0562ZM11.7062 14.8913L11.7062 17.1086H12.2217C12.5807 17.1086 12.8717 16.8176 12.8717 16.4586V15.5413C12.8717 15.1823 12.5807 14.8913 12.2217 14.8913H11.7062Z" fill="#717681"/>
<path d="M16.1915 18.4087C16.5505 18.4087 16.8415 18.1177 16.8415 17.7587V17.1915H17.3224C17.6814 17.1915 17.9724 16.9005 17.9724 16.5415C17.9724 16.1825 17.6814 15.8915 17.3224 15.8915H16.8415V14.8914H17.9104C18.2693 14.8914 18.5604 14.6004 18.5604 14.2414C18.5604 13.8824 18.2693 13.5914 17.9104 13.5914H16.1915C15.8325 13.5914 15.5415 13.8824 15.5415 14.2414V17.7587C15.5415 18.1177 15.8325 18.4087 16.1915 18.4087Z" fill="#717681"/>
<path fill-rule="evenodd" clip-rule="evenodd" d="M6.08984 18.4086C6.44883 18.4086 6.73984 18.1176 6.73984 17.7586V17.1861H7.40794C8.40062 17.1861 9.20534 16.3814 9.20534 15.3887C9.20534 14.3961 8.40062 13.5913 7.40794 13.5913H6.08984C5.73086 13.5913 5.43984 13.8823 5.43984 14.2413L5.43984 17.7586C5.43984 18.1176 5.73086 18.4086 6.08984 18.4086ZM6.73984 15.8861V14.8913H7.40794C7.68265 14.8913 7.90534 15.114 7.90534 15.3887C7.90534 15.6634 7.68265 15.8861 7.40794 15.8861H6.73984Z" fill="#717681"/>
<path fill-rule="evenodd" clip-rule="evenodd" d="M5 6V11C3.34315 11 2 12.3431 2 14V18C2 19.6569 3.34315 21 5 21H19C20.6569 21 22 19.6569 22 18V14C22 12.3431 20.6569 11 19 11V9.17967C19 8.42148 18.7129 7.69141 18.1965 7.13629L15.2385 3.95662C14.671 3.34655 13.8752 3 13.042 3H8C6.34315 3 5 4.34315 5 6ZM8 4.3H13.042C13.1461 4.3 13.2491 4.30954 13.3499 4.32811V7.04926C13.3499 8.12621 14.223 8.99926 15.2999 8.99926L17.6904 8.99925C17.6968 9.05892 17.7 9.11913 17.7 9.17967V11H6.3V6C6.3 5.06112 7.06112 4.3 8 4.3ZM16.9447 7.69926L14.6499 5.23254V7.04926C14.6499 7.40824 14.9409 7.69926 15.2999 7.69926L16.9447 7.69926ZM19 12.3H5C4.06112 12.3 3.3 13.0611 3.3 14V18C3.3 18.9389 4.06112 19.7 5 19.7H19C19.9389 19.7 20.7 18.9389 20.7 18V14C20.7 13.0611 19.9389 12.3 19 12.3Z" fill="#717681"/>
</svg>
