<svg width="24.000000" height="24.000000" viewBox="0 0 24 24" fill="none" xmlns="http://www.w3.org/2000/svg" xmlns:xlink="http://www.w3.org/1999/xlink">
	<desc>
			Created with Pixso.
	</desc>
	<defs>
		<clipPath id="clip108904_1415">
			<rect id="Solid/ File PPT Solid" width="24.000000" height="24.000000" fill="white" fill-opacity="0"/>
		</clipPath>
	</defs>
	<g>
		<path id="Shape" d="M19 11C20.65 11 22 12.34 22 14L22 18C22 19.65 20.65 21 19 21L5 21C3.34 21 2 19.65 2 18L2 14C2 12.34 3.34 11 5 11L5 6C5 4.34 6.34 3 8 3L13.04 3C13.87 3 14.67 3.34 15.23 3.95L18.19 7.13C18.71 7.69 19 8.42 19 9.17L19 11ZM13.04 4.29L8 4.29C7.06 4.29 6.3 5.06 6.3 6L6.3 11L17.7 11L17.7 9.17C17.7 9.11 17.69 9.05 17.69 8.99L15.29 8.99C14.22 8.99 13.34 8.12 13.34 7.04L13.34 4.32C13.24 4.3 13.14 4.29 13.04 4.29ZM14.64 5.23L16.94 7.69L15.29 7.69C14.94 7.69 14.64 7.4 14.64 7.04L14.64 5.23ZM6.68 17.75C6.68 18.11 6.39 18.4 6.03 18.4C5.67 18.4 5.38 18.11 5.38 17.75L5.38 14.24C5.38 13.88 5.67 13.59 6.03 13.59L7.35 13.59C8.34 13.59 9.14 14.39 9.14 15.38C9.14 16.38 8.34 17.18 7.35 17.18L6.68 17.18L6.68 17.75ZM10.99 18.4C11.35 18.4 11.64 18.11 11.64 17.75L11.64 17.18L12.31 17.18C13.3 17.18 14.11 16.38 14.11 15.38C14.11 14.39 13.3 13.59 12.31 13.59L10.99 13.59C10.63 13.59 10.34 13.88 10.34 14.24L10.34 17.75C10.34 18.11 10.63 18.4 10.99 18.4ZM17.96 14.89C18.32 14.89 18.61 14.6 18.61 14.24C18.61 13.88 18.32 13.59 17.96 13.59L15.54 13.59C15.18 13.59 14.89 13.88 14.89 14.24C14.89 14.6 15.18 14.89 15.54 14.89L16.1 14.89L16.1 17.76C16.1 18.12 16.39 18.41 16.75 18.41C17.11 18.41 17.4 18.12 17.4 17.76L17.4 14.89L17.96 14.89ZM6.68 15.88L6.68 14.89L7.35 14.89C7.62 14.89 7.84 15.11 7.84 15.38C7.84 15.66 7.62 15.88 7.35 15.88L6.68 15.88ZM12.31 14.89L11.64 14.89L11.64 15.88L12.31 15.88C12.59 15.88 12.81 15.66 12.81 15.38C12.81 15.11 12.59 14.89 12.31 14.89Z" fill="#717681" fill-opacity="1.000000" fill-rule="evenodd"/>
	</g>
</svg>
