<svg width="24.000000" height="24.000000" viewBox="0 0 24 24" fill="none" xmlns="http://www.w3.org/2000/svg" xmlns:xlink="http://www.w3.org/1999/xlink">
	<desc>
			Created with Pixso.
	</desc>
	<defs>
		<clipPath id="clip133303_93">
			<rect id="Solid / Invoice Solid" width="24.000000" height="24.000000" fill="white" fill-opacity="0"/>
		</clipPath>
	</defs>
	<rect id="Solid / Invoice Solid" width="24.000000" height="24.000000" fill="#FFFFFF" fill-opacity="0"/>
	<g>
		<path id="Shape" d="M7 3C5.34 3 4 4.34 4 6L4 18C4 19.65 5.34 21 7 21L17 21C18.65 21 20 19.65 20 18L20 9.29C20 8.47 19.65 7.67 19.05 7.11L15.53 3.81C14.97 3.29 14.24 3 13.48 3L7 3ZM18.4 8.4C18.62 8.62 18.46 9 18.15 9L15.33 9C14.59 9 14 8.36 14 7.57L14 4.84C14 4.53 14.37 4.37 14.59 4.59L18.4 8.4ZM12 8.34C12 8.7 11.7 8.99 11.35 8.99L8.64 8.99C8.28 8.99 7.99 8.7 7.99 8.34C7.99 7.98 8.28 7.69 8.64 7.69L11.35 7.69C11.7 7.69 12 7.98 12 8.34ZM8.62 10.31C8.24 10.31 7.92 10.62 7.92 11.01L7.92 16.29C7.92 16.68 8.24 17 8.62 17L15.3 17C15.68 17 16 16.68 16 16.29L16 11.01C16 10.62 15.68 10.31 15.3 10.31L8.62 10.31ZM14.7 13L9.22 13L9.22 11.61L14.7 11.61L14.7 13ZM9.22 14.3L9.22 15.7L14.7 15.7L14.7 14.3L9.22 14.3Z" fill="#717681" fill-opacity="1.000000" fill-rule="evenodd"/>
	</g>
</svg>
