<svg width="24" height="24" viewBox="0 0 24 24" fill="none" xmlns="http://www.w3.org/2000/svg">
<path d="M7.96523 8.34863C7.96523 7.98965 8.25625 7.69863 8.61523 7.69863H11.3551C11.7141 7.69863 12.0051 7.98965 12.0051 8.34863C12.0051 8.70762 11.7141 8.99863 11.3551 8.99863H8.61523C8.25625 8.99863 7.96523 8.70762 7.96523 8.34863Z" fill="#717681"/>
<path fill-rule="evenodd" clip-rule="evenodd" d="M7.92822 11.0125C7.92822 10.6259 8.24162 10.3125 8.62822 10.3125H15.3C15.6866 10.3125 16 10.6259 16 11.0125V16.3C16 16.6866 15.6866 17 15.3 17H8.62822C8.24162 17 7.92822 16.6866 7.92822 16.3V11.0125ZM9.22822 14.3062V15.7H14.7V14.3062H9.22822ZM14.7 13.0063H9.22822V11.6125H14.7V13.0063Z" fill="#717681"/>
<path fill-rule="evenodd" clip-rule="evenodd" d="M7 3C5.34315 3 4 4.34315 4 6V18C4 19.6569 5.34315 21 7 21H17C18.6569 21 20 19.6569 20 18V9.24264C20 8.44699 19.6839 7.68393 19.1213 7.12132L15.8787 3.87868C15.3161 3.31607 14.553 3 13.7574 3H7ZM13.7574 4.3H7C6.06112 4.3 5.3 5.06112 5.3 6V18C5.3 18.9389 6.06112 19.7 7 19.7H17C17.9389 19.7 18.7 18.9389 18.7 18V9.24264C18.7 9.1605 18.6941 9.07897 18.6824 8.99863H16.3514C15.0535 8.99863 14.0014 7.9465 14.0014 6.64863V4.3176C13.921 4.30594 13.8395 4.3 13.7574 4.3ZM15.3014 5.13984V6.64863C15.3014 7.22853 15.7715 7.69863 16.3514 7.69863H17.8602L15.3014 5.13984Z" fill="#717681"/>
</svg>
