<svg width="24.000000" height="24.000000" viewBox="0 0 24 24" fill="none" xmlns="http://www.w3.org/2000/svg" xmlns:xlink="http://www.w3.org/1999/xlink">
	<desc>
			Created with Pixso.
	</desc>
	<defs>
		<clipPath id="clip132800_788">
			<rect id="Solid / Missing Document Solid" width="24.000000" height="24.000000" fill="white" fill-opacity="0"/>
		</clipPath>
	</defs>
	<rect id="Solid / Missing Document Solid" width="24.000000" height="24.000000" fill="#FFFFFF" fill-opacity="0"/>
	<g clip-path="url(#clip132800_788)">
		<path id="Shape" d="M10.7 3C11.05 3 11.35 3.29 11.35 3.65C11.35 4 11.05 4.29 10.7 4.29L8.64 4.29C8.29 4.29 8 4 8 3.65C8 3.29 8.29 3 8.64 3L10.7 3ZM20 10.7C20 11.05 19.7 11.35 19.35 11.35C18.99 11.35 18.7 11.05 18.7 10.7L18.7 9.24C18.7 9.2 18.69 9.15 18.69 9.11L15.58 9.11C14.64 9.11 13.88 8.35 13.88 7.41L13.88 4.3C13.84 4.3 13.79 4.29 13.75 4.29L13.3 4.29C12.94 4.29 12.64 4 12.64 3.65C12.64 3.29 12.94 3 13.3 3L13.75 3C14.55 3 15.31 3.31 15.87 3.87L19.12 7.12C19.68 7.68 20 8.44 20 9.24L20 10.7ZM4 6C4 4.7 4.82 3.59 5.97 3.17C6.34 3.04 6.69 3.36 6.69 3.76C6.69 4.08 6.45 4.35 6.16 4.51C5.65 4.8 5.3 5.36 5.3 6L5.3 6.04C5.3 6.4 5 6.7 4.64 6.7C4.29 6.7 4 6.4 4 6.04L4 6ZM7.96 8.34C7.96 7.98 8.25 7.69 8.61 7.69L11.35 7.69C11.71 7.69 12 7.98 12 8.34C12 8.7 11.71 8.99 11.35 8.99L8.61 8.99C8.25 8.99 7.96 8.7 7.96 8.34ZM4.64 11.35C4.29 11.35 4 11.05 4 10.7L4 8.65C4 8.29 4.29 8 4.64 8C5 8 5.3 8.29 5.3 8.65L5.3 10.7C5.3 11.05 5 11.35 4.64 11.35ZM8.61 11.19L15.34 11.19C15.7 11.19 15.99 11.48 15.99 11.84C15.99 12.2 15.7 12.49 15.34 12.49L8.61 12.49C8.25 12.49 7.96 12.2 7.96 11.84C7.96 11.48 8.25 11.19 8.61 11.19ZM4.64 12.65C5 12.65 5.3 12.94 5.3 13.3L5.3 15.35C5.3 15.7 5 16 4.64 16C4.29 16 4 15.7 4 15.35L4 13.3C4 12.94 4.29 12.65 4.64 12.65ZM19.35 16C18.99 16 18.7 15.7 18.7 15.35L18.7 13.3C18.7 12.94 18.99 12.65 19.35 12.65C19.7 12.65 20 12.94 20 13.3L20 15.35C20 15.7 19.7 16 19.35 16ZM7.96 15.36C7.96 15 8.25 14.71 8.61 14.71L15.34 14.71C15.7 14.71 15.99 15 15.99 15.36C15.99 15.72 15.7 16.01 15.34 16.01L8.61 16.01C8.25 16.01 7.96 15.72 7.96 15.36ZM6.69 20.23C6.69 20.63 6.34 20.95 5.97 20.82C4.82 20.4 4 19.29 4 18L4 17.95C4 17.59 4.29 17.29 4.64 17.29C5 17.29 5.3 17.59 5.3 17.95L5.3 18C5.3 18.63 5.65 19.19 6.16 19.48C6.45 19.64 6.69 19.91 6.69 20.23ZM19.35 17.29C19.7 17.29 20 17.59 20 17.95L20 18C20 19.29 19.17 20.4 18.02 20.82C17.65 20.95 17.29 20.63 17.29 20.23C17.29 19.91 17.54 19.64 17.83 19.48C18.34 19.19 18.7 18.63 18.7 18L18.7 17.95C18.7 17.59 18.99 17.29 19.35 17.29ZM10.7 21L8.64 21C8.29 21 8 20.7 8 20.35C8 19.99 8.29 19.7 8.64 19.7L10.7 19.7C11.05 19.7 11.35 19.99 11.35 20.35C11.35 20.7 11.05 21 10.7 21ZM16 20.35C16 20.7 15.7 21 15.35 21L13.3 21C12.94 21 12.64 20.7 12.64 20.35C12.64 19.99 12.94 19.7 13.3 19.7L15.35 19.7C15.7 19.7 16 19.99 16 20.35Z" fill="#717681" fill-opacity="1.000000" fill-rule="evenodd"/>
	</g>
</svg>
