<svg width="24.000000" height="24.000000" viewBox="0 0 24 24" fill="none" xmlns="http://www.w3.org/2000/svg" xmlns:xlink="http://www.w3.org/1999/xlink">
	<desc>
			Created with Pixso.
	</desc>
	<defs>
		<clipPath id="clip17_635">
			<rect id="Solid / PDF Solid" width="24.000000" height="24.000000" fill="white" fill-opacity="0"/>
		</clipPath>
	</defs>
	<g clip-path="url(#clip17_635)">
		<path id="Shape" d="M17.64 3.35C19.3 3.35 20.64 4.69 20.64 6.35L20.64 16.35C20.64 18 19.3 19.35 17.64 19.35L9.64 19.35C7.99 19.35 6.64 18 6.64 16.35L6.64 6.35C6.64 4.69 7.99 3.35 9.64 3.35L17.64 3.35ZM12.13 11.63C12.21 11.29 12.3 10.86 12.39 10.39C12.07 10.05 11.71 9.67 11.43 9.3C11.15 8.92 10.85 8.43 10.84 7.9C10.83 7.61 10.92 7.32 11.11 7.07C11.29 6.82 11.55 6.64 11.84 6.51C12.13 6.37 12.46 6.29 12.8 6.36C13.16 6.43 13.41 6.66 13.57 6.91C13.86 7.36 13.91 8 13.9 8.55C13.89 8.99 13.84 9.48 13.77 9.96C13.81 10.01 13.85 10.06 13.89 10.11C14.28 10.64 14.65 11.14 15.07 11.67C16.4 11.45 17.42 11.72 18.01 12.31C18.39 12.69 18.59 13.21 18.46 13.74C18.33 14.27 17.91 14.65 17.37 14.82C16.84 14.98 16.34 14.81 15.96 14.57C15.57 14.33 15.22 13.97 14.91 13.61C14.78 13.46 14.65 13.3 14.52 13.13C14.14 13.24 13.75 13.37 13.37 13.5C13.23 13.55 13.08 13.6 12.94 13.65C12.87 13.9 12.78 14.15 12.7 14.38C12.56 14.77 12.41 15.13 12.24 15.45C12.08 15.75 11.88 16.05 11.63 16.27C10.98 16.82 10.14 16.58 9.67 16.22C9.41 16.02 9.18 15.74 9.07 15.38C8.96 15.01 8.99 14.6 9.21 14.22C9.52 13.68 10.02 13.37 10.72 13.07C11.04 12.93 11.42 12.79 11.88 12.64C11.97 12.3 12.06 11.96 12.13 11.63ZM12.59 8.68C12.6 8.63 12.6 8.58 12.6 8.53C12.61 8.05 12.55 7.77 12.49 7.64C12.47 7.65 12.43 7.67 12.38 7.69C12.22 7.76 12.16 7.82 12.15 7.84C12.14 7.85 12.14 7.86 12.14 7.88C12.14 7.97 12.21 8.17 12.47 8.52C12.51 8.57 12.55 8.62 12.59 8.68ZM4.64 8.7C4.29 8.7 4 8.99 4 9.35L4 18.75C4 20.54 5.45 22 7.25 22L15.64 22C16 22 16.29 21.7 16.29 21.35C16.29 20.99 16 20.7 15.64 20.7L7.25 20.7C6.17 20.7 5.3 19.82 5.3 18.75L5.3 9.35C5.3 8.99 5 8.7 4.64 8.7ZM13.35 12.15C13.38 11.98 13.42 11.83 13.46 11.64C13.54 11.74 13.61 11.85 13.69 11.97C13.7 11.99 13.72 12 13.73 12.02L13.35 12.15ZM16.65 13.47C16.46 13.35 16.25 13.16 16.01 12.9C16.61 12.91 16.95 13.09 17.1 13.23C17.21 13.35 17.2 13.43 17.2 13.43C17.2 13.44 17.18 13.52 16.99 13.58C16.96 13.59 16.87 13.6 16.65 13.47ZM11.38 14.2C11.33 14.22 11.28 14.25 11.23 14.27C10.61 14.53 10.44 14.7 10.34 14.87C10.3 14.94 10.31 14.98 10.32 15.01C10.33 15.05 10.37 15.12 10.45 15.18C10.54 15.25 10.63 15.28 10.7 15.29C10.77 15.3 10.79 15.28 10.79 15.28C10.85 15.22 10.96 15.09 11.09 14.83C11.19 14.66 11.28 14.44 11.38 14.2Z" fill="#717681" fill-opacity="1.000000" fill-rule="evenodd"/>
	</g>
</svg>
