<svg width="24" height="24" viewBox="0 0 24 24" fill="none" xmlns="http://www.w3.org/2000/svg">
<path fill-rule="evenodd" clip-rule="evenodd" d="M11.9935 6.64093C10.5719 6.63126 9.45909 7.862 9.61138 9.2754L9.74424 10.5084C9.86622 11.6404 10.8166 12.5016 11.9551 12.5119C13.1063 12.5222 14.0785 11.6597 14.2055 10.5156L14.3424 9.28305C14.4981 7.87995 13.4052 6.65052 11.9935 6.64093ZM12.9134 10.3722L13.0503 9.1396C13.121 8.50303 12.6251 7.94525 11.9846 7.9409C11.3397 7.93651 10.8348 8.49488 10.9039 9.13613L11.0368 10.3691C11.0881 10.8453 11.4879 11.2076 11.9668 11.2119C12.451 11.2162 12.86 10.8535 12.9134 10.3722Z" fill="#717681"/>
<path fill-rule="evenodd" clip-rule="evenodd" d="M8.8237 14.8919C9.51595 14.0164 10.5707 13.5058 11.6868 13.5058H12.3237C13.4694 13.5058 14.5486 14.0437 15.2383 14.9586L15.4295 15.2122C16.1 16.1018 15.4655 17.3749 14.3515 17.3749H9.64891C8.5205 17.3749 7.89007 16.0727 8.58995 15.1876L8.8237 14.8919ZM11.6868 14.8058C10.9682 14.8058 10.2891 15.1346 9.84344 15.6982L9.60969 15.9939C9.59881 16.0076 9.59803 16.0151 9.59773 16.0185C9.59719 16.0247 9.59821 16.0349 9.6039 16.0467C9.6096 16.0584 9.61699 16.0656 9.62217 16.069C9.62501 16.0708 9.63137 16.0749 9.64891 16.0749H14.3515C14.3685 16.0749 14.3749 16.071 14.3779 16.069C14.3832 16.0656 14.3905 16.0586 14.3962 16.0472C14.4019 16.0358 14.4031 16.0257 14.4026 16.0195C14.4024 16.0159 14.4016 16.0084 14.3914 15.9948L14.2002 15.7412C13.7561 15.1521 13.0613 14.8058 12.3237 14.8058H11.6868Z" fill="#717681"/>
<path fill-rule="evenodd" clip-rule="evenodd" d="M4 6C4 4.34315 5.34315 3 7 3H17C18.6569 3 20 4.34315 20 6V18C20 19.6569 18.6569 21 17 21H7C5.34315 21 4 19.6569 4 18V6ZM7 4.3H17C17.9389 4.3 18.7 5.06112 18.7 6V18C18.7 18.9389 17.9389 19.7 17 19.7H7C6.06112 19.7 5.3 18.9389 5.3 18V6C5.3 5.06112 6.06112 4.3 7 4.3Z" fill="#717681"/>
</svg>
