<svg width="24.000000" height="24.000000" viewBox="0 0 24 24" fill="none" xmlns="http://www.w3.org/2000/svg" xmlns:xlink="http://www.w3.org/1999/xlink">
	<desc>
			Created with Pixso.
	</desc>
	<defs>
		<clipPath id="clip17_638">
			<rect id="Solid / PPT Solid" width="24.000000" height="24.000000" fill="white" fill-opacity="0"/>
		</clipPath>
	</defs>
	<g>
		<path id="Shape" d="M17.64 3.35C19.3 3.35 20.64 4.69 20.64 6.35L20.64 16.35C20.64 18 19.3 19.35 17.64 19.35L9.64 19.35C7.99 19.35 6.64 18 6.64 16.35L6.64 6.35C6.64 4.69 7.99 3.35 9.64 3.35L17.64 3.35ZM12.32 8.46C12.15 8.46 11.99 8.53 11.86 8.65C11.74 8.77 11.67 8.94 11.67 9.11L11.67 13.58C11.67 13.94 11.96 14.23 12.32 14.23C12.68 14.23 12.97 13.94 12.97 13.58L12.97 12.79L13.89 12.79C15.08 12.79 16.05 11.82 16.05 10.63C16.05 9.43 15.08 8.46 13.89 8.46L12.32 8.46ZM4.64 8.7C4.29 8.7 4 8.99 4 9.35L4 18.75C4 20.54 5.45 22 7.25 22L15.64 22C16 22 16.29 21.7 16.29 21.35C16.29 20.99 16 20.7 15.64 20.7L7.25 20.7C6.17 20.7 5.3 19.82 5.3 18.75L5.3 9.35C5.3 8.99 5 8.7 4.64 8.7ZM13.89 11.49L12.97 11.49L12.97 9.76L13.89 9.76C14.36 9.76 14.75 10.15 14.75 10.63C14.75 11.1 14.36 11.49 13.89 11.49Z" fill="#717681" fill-opacity="1.000000" fill-rule="evenodd"/>
	</g>
</svg>
