<svg width="24.000000" height="24.000000" viewBox="0 0 24 24" fill="none" xmlns="http://www.w3.org/2000/svg" xmlns:xlink="http://www.w3.org/1999/xlink">
	<desc>
			Created with Pixso.
	</desc>
	<defs>
		<clipPath id="clip1728_758">
			<rect id="Solid / Rotate Right Solid" width="24.000000" height="24.000000" transform="matrix(1 -6.12324e-17 -6.12324e-17 -1 0 24)" fill="white" fill-opacity="0"/>
		</clipPath>
	</defs>
	<g >
		<path id="Shape" d="M19.13 10.52C19.38 10.77 19.79 10.77 20.05 10.52L21.81 8.75C22.07 8.5 22.07 8.09 21.81 7.83C21.56 7.58 21.15 7.58 20.89 7.83L20.24 8.49C20.23 4.9 17.32 2 13.74 2C13.38 2 13.09 2.29 13.09 2.64C13.09 3 13.38 3.29 13.74 3.29C16.61 3.29 18.93 5.62 18.94 8.49L18.28 7.83C18.03 7.58 17.61 7.58 17.36 7.83C17.11 8.09 17.11 8.5 17.36 8.75L19.13 10.52ZM3 8.69C3 7.04 4.34 5.69 6 5.69L12.75 5.69C14.4 5.69 15.75 7.04 15.75 8.69L15.75 17.99C15.75 19.65 14.4 20.99 12.75 20.99L6 20.99C4.34 20.99 3 19.65 3 17.99L3 8.69Z" fill="#74767B" fill-opacity="1.000000" fill-rule="evenodd"/>
	</g>
</svg>
