<svg width="24.000000" height="24.000000" viewBox="0 0 24 24" fill="none" xmlns="http://www.w3.org/2000/svg" xmlns:xlink="http://www.w3.org/1999/xlink">
	<desc>
			Created with Pixso.
	</desc>
	<defs>
		<clipPath id="clip1728_757">
			<rect id="Outline / Rotate Right Outline" width="24.000000" height="24.000000" fill="white" fill-opacity="0"/>
		</clipPath>
	</defs>
	<g>
		<path id="Shape" d="M19.13 10.52C19.38 10.78 19.79 10.78 20.05 10.52L21.81 8.76C22.07 8.5 22.07 8.09 21.81 7.84C21.56 7.58 21.15 7.58 20.89 7.84L20.24 8.49C20.23 4.91 17.32 2 13.74 2C13.38 2 13.09 2.29 13.09 2.65C13.09 3.01 13.38 3.3 13.74 3.3C16.61 3.3 18.93 5.62 18.94 8.49L18.28 7.84C18.03 7.58 17.61 7.58 17.36 7.84C17.11 8.09 17.11 8.5 17.36 8.76L19.13 10.52ZM6 5.69C4.34 5.69 3 7.04 3 8.69L3 18C3 19.65 4.34 21 6 21L12.75 21C14.4 21 15.75 19.65 15.75 18L15.75 8.69C15.75 7.04 14.4 5.69 12.75 5.69L6 5.69ZM12.75 6.99L6 6.99C5.06 6.99 4.3 7.76 4.3 8.69L4.3 18C4.3 18.93 5.06 19.7 6 19.7L12.75 19.7C13.69 19.7 14.45 18.93 14.45 18L14.45 8.69C14.45 7.76 13.69 6.99 12.75 6.99Z" fill="#717681" fill-opacity="1.000000" fill-rule="evenodd"/>
	</g>
</svg>
