<svg width="24.000000" height="24.000000" viewBox="0 0 24 24" fill="none" xmlns="http://www.w3.org/2000/svg" xmlns:xlink="http://www.w3.org/1999/xlink">
	<desc>
			Created with Pixso.
	</desc>
	<defs>
		<clipPath id="clip1728_760">
			<rect id="Solid / Rotate Left Solid" width="24.000000" height="24.000000" fill="white" fill-opacity="0"/>
		</clipPath>
	</defs>
	<g clip-path="url(#clip1728_760)">
		<path id="Shape" d="M5.87 10.52C5.62 10.78 5.21 10.78 4.95 10.52L3.19 8.76C2.93 8.5 2.93 8.09 3.19 7.84C3.44 7.58 3.85 7.58 4.11 7.84L4.76 8.49C4.77 4.91 7.68 2 11.26 2C11.62 2 11.91 2.29 11.91 2.65C11.91 3.01 11.62 3.3 11.26 3.3C8.39 3.3 6.07 5.62 6.06 8.49L6.72 7.84C6.97 7.58 7.38 7.58 7.64 7.84C7.89 8.09 7.89 8.5 7.64 8.76L5.87 10.52ZM22 8.69C22 7.04 20.65 5.69 19 5.69L12.25 5.69C10.59 5.69 9.25 7.04 9.25 8.69L9.25 18C9.25 19.65 10.59 21 12.25 21L19 21C20.65 21 22 19.65 22 18L22 8.69Z" fill="#717681" fill-opacity="1.000000" fill-rule="evenodd"/>
	</g>
</svg>
