<svg width="24.000000" height="24.000000" viewBox="0 0 24 24" fill="none" xmlns="http://www.w3.org/2000/svg" xmlns:xlink="http://www.w3.org/1999/xlink">
	<desc>
			Created with Pixso.
	</desc>
	<defs>
		<clipPath id="clip130941_142">
			<rect id="Outline / Scan Doc Outline" width="24.000000" height="24.000000" transform="translate(24.000000 24.000000) rotate(180.000000)" fill="white" fill-opacity="0"/>
		</clipPath>
	</defs>
	<rect id="Outline / Scan Doc Outline" width="24.000000" height="24.000000" transform="translate(24.000000 24.000000) rotate(180.000000)" fill="#FFFFFF" fill-opacity="0"/>
	<g clip-path="url(#clip130941_142)">
		<path id="Shape" d="M11 8.01C11 6.36 12.34 5.01 14 5.01L18 5.01C19.65 5.01 21 6.36 21 8.01L21 18.01C21 19.67 19.65 21.01 18 21.01L14 21.01C13.87 21.01 13.74 21.01 13.62 20.99C13.6 20.99 13.58 20.99 13.56 20.99L10.14 20.99C9.78 20.99 9.49 20.7 9.49 20.34C9.49 19.98 9.78 19.69 10.14 19.69L11.51 19.69C11.18 19.21 11 18.64 11 18.01L11 11.69L10.14 11.69C9.78 11.69 9.49 11.4 9.49 11.04C9.49 10.68 9.78 10.39 10.14 10.39L11 10.39L11 8.01ZM10.15 5.24C10.4 5.5 10.4 5.91 10.15 6.16L8.1 8.21C7.85 8.46 7.44 8.46 7.18 8.21C6.93 7.95 6.93 7.54 7.18 7.29L8.12 6.35L6.68 6.35C5.39 6.35 4.33 7.4 4.33 8.7L4.33 9.36C4.33 9.72 4.04 10.01 3.68 10.01C3.32 10.01 3.03 9.72 3.03 9.36L3.03 8.7C3.03 6.69 4.67 5.05 6.68 5.05L8.12 5.05L7.18 4.12C6.93 3.86 6.93 3.45 7.18 3.2C7.44 2.94 7.85 2.94 8.1 3.2L10.15 5.24ZM6.68 19.69C6.49 19.69 6.31 19.67 6.13 19.63C5.78 19.54 5.43 19.76 5.35 20.11C5.26 20.46 5.48 20.81 5.82 20.89C6.1 20.96 6.39 20.99 6.68 20.99L7.3 20.99C7.66 20.99 7.95 20.7 7.95 20.34C7.95 19.98 7.66 19.69 7.3 19.69L6.68 19.69ZM4.4 18.04C4.48 18.39 4.27 18.74 3.92 18.82C3.57 18.9 3.22 18.69 3.13 18.34C3.07 18.07 3.03 17.78 3.03 17.48L3.03 16.98C3.03 16.62 3.32 16.33 3.68 16.33C4.04 16.33 4.33 16.62 4.33 16.98L4.33 17.48C4.33 17.67 4.36 17.86 4.4 18.04ZM3.68 15C4.04 15 4.33 14.71 4.33 14.35L4.33 13.85C4.33 13.66 4.36 13.48 4.4 13.3C4.48 12.95 4.27 12.6 3.92 12.52C3.57 12.43 3.22 12.65 3.13 12.99C3.07 13.27 3.03 13.56 3.03 13.85L3.03 14.35C3.03 14.71 3.32 15 3.68 15ZM6.13 11.75C5.78 11.84 5.43 11.62 5.35 11.27C5.26 10.92 5.48 10.57 5.82 10.49C6.1 10.42 6.39 10.39 6.68 10.39L7.3 10.39C7.66 10.39 7.95 10.68 7.95 11.04C7.95 11.4 7.66 11.69 7.3 11.69L6.68 11.69C6.49 11.69 6.31 11.71 6.13 11.75Z" fill="#74767B" fill-opacity="1.000000" fill-rule="evenodd"/>
	</g>
</svg>
