<svg width="25" height="24" viewBox="0 0 25 24" fill="none" xmlns="http://www.w3.org/2000/svg">
<path fill-rule="evenodd" clip-rule="evenodd" d="M13.8261 4.3H7.33125C6.39237 4.3 5.63125 5.06112 5.63125 6V11.35H19.0312V9.29679C19.0312 9.19632 19.0224 9.0968 19.005 8.99928L16.2839 8.99929C15.207 8.99929 14.3339 8.12625 14.3339 7.04929V4.37761C14.171 4.32659 13.9999 4.3 13.8261 4.3ZM4.33125 6V11.35H3.33115C2.97217 11.35 2.68115 11.641 2.68115 12C2.68115 12.359 2.97217 12.65 3.33115 12.65H21.3312C21.6901 12.65 21.9812 12.359 21.9812 12C21.9812 11.641 21.6901 11.35 21.3312 11.35H20.3312V9.29679C20.3312 8.46927 19.9894 7.67849 19.3866 7.11153L15.8815 3.81474C15.3251 3.29139 14.59 3 13.8261 3H7.33125C5.67439 3 4.33125 4.34315 4.33125 6ZM15.6339 5.36653L18.1141 7.69929L16.2839 7.69929C15.925 7.69929 15.6339 7.40827 15.6339 7.04929V5.36653ZM4.33125 14.5944C4.33125 14.2355 4.62226 13.9444 4.98125 13.9444C5.34023 13.9444 5.63125 14.2355 5.63125 14.5944V18C5.63125 18.9389 6.39237 19.7 7.33125 19.7H12.4519C12.8109 19.7 13.1019 19.991 13.1019 20.35C13.1019 20.709 12.8109 21 12.4519 21H7.33125C5.6744 21 4.33125 19.6569 4.33125 18V14.5944ZM15.6264 16.819C15.2884 16.8184 15.0106 17.0854 14.9977 17.4231C14.9843 17.7765 15.2649 18.0713 15.6185 18.0736C17.2594 18.0844 19.044 18.0751 19.044 18.0751L17.4957 19.4803C17.2375 19.7022 17.2042 20.0956 17.4257 20.3634C17.5459 20.5025 17.707 20.5756 17.88 20.5818C18.0338 20.5872 18.1797 20.5443 18.3088 20.4334L21.0024 18.0502C21.31 17.7916 21.3264 17.3301 21.038 17.0503L18.5101 14.5949C18.2587 14.355 17.8639 14.3601 17.6243 14.6019C17.3843 14.8532 17.3799 15.2477 17.6312 15.4877L19.0818 16.8249L15.6264 16.819Z" fill="#717681"/>
</svg>
