<svg width="24.000000" height="24.000000" viewBox="0 0 24 24" fill="none" xmlns="http://www.w3.org/2000/svg" xmlns:xlink="http://www.w3.org/1999/xlink">
	<desc>
			Created with Pixso.
	</desc>
	<defs>
		<clipPath id="clip114794_1865">
			<rect id="Solid / Scan Redo Solid" width="24.000000" height="24.000000" fill="white" fill-opacity="0"/>
		</clipPath>
	</defs>
	<g >
		<path id="Shape" d="M6.99 3C5.34 3 3.99 4.34 3.99 6L3.99 11.35L2.64 11.35C2.28 11.35 1.99 11.64 1.99 12C1.99 12.35 2.28 12.65 2.64 12.65L21.35 12.65C21.71 12.65 22 12.35 22 12C22 11.64 21.71 11.35 21.35 11.35L19.99 11.35L19.99 9.29C19.99 8.46 19.65 7.67 19.05 7.11L15.55 3.81C14.99 3.29 14.25 3 13.49 3L6.99 3ZM12.16 14.42C12.27 14.21 12.13 13.94 11.89 13.94L4.29 13.94C4.13 13.94 3.99 14.07 3.99 14.24L3.99 18C3.99 19.65 5.34 21 6.99 21L11.86 21C12.1 21 12.24 20.73 12.13 20.52C11.65 19.62 11.37 18.59 11.37 17.5C11.37 16.38 11.66 15.33 12.16 14.42ZM14.98 8.99L18.39 8.99C18.66 8.99 18.79 8.66 18.59 8.48L14.19 4.32C14 4.13 13.68 4.27 13.68 4.53L13.68 7.69C13.68 8.41 14.27 8.99 14.98 8.99ZM17.97 21.35C16.03 21.35 14.42 19.91 14.16 18.04L13.75 18.46C13.5 18.71 13.08 18.71 12.83 18.46C12.57 18.21 12.57 17.8 12.82 17.54L14.37 15.97C14.62 15.71 15.03 15.71 15.29 15.96L16.87 17.51C17.12 17.76 17.13 18.17 16.88 18.43C16.62 18.68 16.21 18.69 15.96 18.44L15.46 17.94C15.67 19.14 16.71 20.05 17.97 20.05C19.38 20.05 20.52 18.9 20.52 17.5C20.52 16.09 19.38 14.94 17.97 14.94C17.67 14.94 17.39 14.99 17.13 15.08C16.79 15.2 16.42 15.02 16.3 14.68C16.19 14.34 16.37 13.97 16.71 13.85C17.1 13.72 17.53 13.64 17.97 13.64C20.1 13.64 21.82 15.37 21.82 17.5C21.82 19.62 20.1 21.35 17.97 21.35Z" fill="#74767B" fill-opacity="1.000000" fill-rule="evenodd"/>
	</g>
</svg>
