<svg width="24.000000" height="24.000000" viewBox="0 0 24 24" fill="none" xmlns="http://www.w3.org/2000/svg" xmlns:xlink="http://www.w3.org/1999/xlink">
	<desc>
			Created with Pixso.
	</desc>
	<defs>
		<clipPath id="clip114794_1867">
			<rect id="Solid / Scan &amp; Send Solid" width="24.000000" height="24.000000" transform="translate(-0.668701 0.000000)" fill="white" fill-opacity="0"/>
		</clipPath>
	</defs>
	<g clip-path="url(#clip114794_1867)">
		<path id="Shape" d="M6.33 3C4.67 3 3.33 4.34 3.33 6L3.33 11.35L2.33 11.35C1.97 11.35 1.68 11.64 1.68 12C1.68 12.35 1.97 12.65 2.33 12.65L7.51 12.65C7.54 12.65 7.57 12.64 7.6 12.64L13.52 12.64C13.58 12.64 13.64 12.62 13.69 12.59C14.58 12.02 15.64 11.7 16.78 11.7C17.53 11.7 18.23 11.83 18.89 12.09C19.09 12.17 19.33 12.02 19.33 11.8L19.33 9.29C19.33 8.46 18.98 7.67 18.38 7.11L14.88 3.81C14.32 3.29 13.59 3 12.82 3L6.33 3ZM11.59 13.94C11.84 13.94 11.98 14.23 11.85 14.44C11.3 15.33 10.98 16.37 10.98 17.5C10.98 18.59 11.29 19.62 11.82 20.5C11.95 20.71 11.8 21 11.56 21L6.33 21C4.67 21 3.33 19.65 3.33 18L3.33 14.24C3.33 14.07 3.46 13.94 3.63 13.94L11.59 13.94ZM14.32 8.99L17.72 8.99C17.99 8.99 18.12 8.66 17.92 8.48L13.52 4.32C13.33 4.13 13.02 4.27 13.02 4.53L13.02 7.69C13.02 8.41 13.6 8.99 14.32 8.99ZM16.78 22C14.3 22 12.28 19.98 12.28 17.5C12.28 15.01 14.3 13 16.78 13C19.27 13 21.28 15.01 21.28 17.5C21.28 19.98 19.27 22 16.78 22ZM16.92 20.35C16.74 20.35 16.57 20.28 16.44 20.14C16.2 19.87 16.22 19.46 16.48 19.22L17.68 18.07L14.3 18.07C13.94 18.07 13.65 17.78 13.65 17.42C13.65 17.06 13.94 16.77 14.3 16.77L17.67 16.77L16.48 15.63C16.21 15.39 16.2 14.98 16.44 14.71C16.68 14.45 17.09 14.43 17.36 14.67L19.71 16.9C20.02 17.18 20.02 17.66 19.71 17.94L17.36 20.18C17.23 20.3 17.08 20.35 16.92 20.35Z" fill="#717681" fill-opacity="1.000000" fill-rule="evenodd"/>
	</g>
</svg>
