<svg width="24" height="24" viewBox="0 0 24 24" fill="none" xmlns="http://www.w3.org/2000/svg">
<path fill-rule="evenodd" clip-rule="evenodd" d="M7.00011 3C5.34326 3 4.00011 4.34315 4.00011 6V11.35H2.64878C2.28979 11.35 1.99878 11.641 1.99878 12C1.99878 12.359 2.28979 12.65 2.64878 12.65L21.3514 12.65C21.7104 12.65 22.0014 12.359 22.0014 12C22.0014 11.641 21.7104 11.35 21.3514 11.35H20.0001V9.29679C20.0001 8.46927 19.6583 7.67849 19.0555 7.11153L15.5504 3.81474C14.994 3.29139 14.2589 3 13.495 3H7.00011ZM12.1634 14.4241C12.2786 14.2138 12.1328 13.9444 11.8931 13.9444H4.30011C4.13443 13.9444 4.00011 14.0788 4.00011 14.2444V18C4.00011 19.6569 5.34326 21 7.00011 21H11.8634C12.1017 21 12.2475 20.7335 12.135 20.5235C11.6524 19.6228 11.3787 18.5933 11.3787 17.5C11.3787 16.3854 11.6631 15.3372 12.1634 14.4241ZM14.9891 8.99986L18.3906 8.99986C18.662 8.99986 18.7939 8.66829 18.5968 8.48187L14.1952 4.32027C14.0039 4.13942 13.6891 4.27502 13.6891 4.53826V7.69986C13.6891 8.41783 14.2711 8.99986 14.9891 8.99986ZM17.9744 21.3524C16.0319 21.3524 14.4253 19.9148 14.1603 18.0455L13.753 18.4602C13.5014 18.7163 13.0899 18.72 12.8338 18.4684C12.5777 18.2169 12.574 17.8053 12.8256 17.5492L14.3756 15.9711C14.6272 15.715 15.0387 15.7114 15.2948 15.9629L16.8729 17.513C17.129 17.7645 17.1327 18.1761 16.8812 18.4322C16.6296 18.6883 16.2181 18.692 15.962 18.4404L15.4613 17.9486C15.6733 19.1443 16.7178 20.0524 17.9744 20.0524C19.384 20.0524 20.5268 18.9096 20.5268 17.5C20.5268 16.0903 19.384 14.9476 17.9744 14.9476C17.6799 14.9476 17.3985 14.9972 17.137 15.0879C16.7979 15.2056 16.4275 15.0261 16.3098 14.687C16.1921 14.3479 16.3716 13.9775 16.7107 13.8598C17.1074 13.7221 17.5329 13.6476 17.9744 13.6476C20.102 13.6476 21.8268 15.3724 21.8268 17.5C21.8268 19.6276 20.102 21.3524 17.9744 21.3524Z" fill="#717681"/>
</svg>
