<svg width="24" height="24" viewBox="0 0 24 24" fill="none" xmlns="http://www.w3.org/2000/svg">
<path d="M16.5821 8.41835C16.3435 8.65774 15.9583 8.6654 15.7104 8.43567C15.4511 8.19534 15.441 7.78843 15.6894 7.53678C16.8421 6.36882 18.1106 5.11352 18.1106 5.11352L16.0221 5.21469C15.6826 5.2404 15.3809 4.98569 15.3481 4.63972C15.3348 4.45641 15.397 4.29084 15.515 4.16412C15.6199 4.05148 15.7534 3.97865 15.9231 3.9658L19.5129 3.74639C19.9133 3.71171 20.2512 4.02639 20.2451 4.4282L20.1939 7.9519C20.1858 8.29933 19.9029 8.57486 19.5626 8.57337C19.2151 8.56533 18.933 8.2895 18.9411 7.94207L19.0212 5.97082L16.5821 8.41835Z" fill="#717681"/>
<path fill-rule="evenodd" clip-rule="evenodd" d="M9.27984 4.47159C8.77215 3.96391 7.94904 3.96391 7.44136 4.47159L5.7443 6.16865C5.23662 6.67633 5.23662 7.49944 5.7443 8.00712L16.2167 18.4795C16.6142 18.8771 17.1155 19.1549 17.6634 19.2813L19.3945 19.6808C20.3306 19.8969 21.1695 19.0579 20.9535 18.1218L20.554 16.3907C20.4276 15.8428 20.1498 15.3415 19.7522 14.944L9.27984 4.47159ZM8.3606 5.39083L6.66354 7.08788L8.28467 8.70902L9.98173 7.01197L8.3606 5.39083ZM10.901 7.9312L18.8329 15.8632C19.0582 16.0885 19.2157 16.3726 19.2873 16.683L19.6868 18.4141L17.9557 18.0146C17.6453 17.943 17.3612 17.7855 17.1359 17.5603L9.20391 9.62826L10.901 7.9312Z" fill="#717681"/>
<path d="M9.10676 18.8349C8.55417 19.3011 7.83343 19.9092 6.65244 19.9092C4.58092 19.9092 3.61403 18.5611 3.23261 18.0293C3.19894 17.9823 3.16983 17.9417 3.14493 17.909C2.92757 17.6233 2.98298 17.2155 3.26869 16.9981C3.5544 16.7808 3.96221 16.8362 4.17956 17.1219C4.21297 17.1658 4.24801 17.2137 4.28518 17.2646C4.6649 17.7839 5.26833 18.6092 6.65245 18.6092C7.33539 18.6092 7.7328 18.2929 8.30111 17.8138L8.32979 17.7896C8.88411 17.322 9.6069 16.7123 10.7938 16.7123C12.7739 16.7123 13.8432 18.1105 14.2552 18.6493C14.3131 18.725 14.358 18.7837 14.3906 18.8192C14.6336 19.0835 14.6164 19.4947 14.3522 19.7377C14.0879 19.9807 13.6767 19.9634 13.4337 19.6992C13.3468 19.6046 13.2574 19.4936 13.1615 19.3744C12.6923 18.7912 12.0657 18.0123 10.7938 18.0123C10.106 18.0123 9.70604 18.3297 9.139 18.8077L9.10676 18.8349Z" fill="#717681"/>
</svg>
