<svg width="24.000000" height="24.000000" viewBox="0 0 24 24" fill="none" xmlns="http://www.w3.org/2000/svg" xmlns:xlink="http://www.w3.org/1999/xlink">
	<desc>
			Created with Pixso.
	</desc>
	<defs>
		<clipPath id="clip17_735">
			<rect id="Solid / Send Sign Solid" width="24.000000" height="24.000000" fill="white" fill-opacity="0"/>
		</clipPath>
	</defs>
	<g>
		<path id="Shape" d="M15.69 8.43C15.94 8.66 16.33 8.65 16.56 8.41L19 5.97L18.92 7.94C18.92 8.28 19.2 8.56 19.55 8.57C19.89 8.57 20.17 8.29 20.18 7.95L20.23 4.42C20.23 4.02 19.9 3.71 19.5 3.74L15.91 3.96C15.74 3.97 15.6 4.05 15.5 4.16C15.38 4.29 15.32 4.45 15.33 4.63C15.36 4.98 15.67 5.24 16 5.21L18.09 5.11C18.09 5.11 16.82 6.36 15.67 7.53C15.42 7.78 15.43 8.19 15.69 8.43ZM7.4 4.98C7.91 4.47 8.73 4.47 9.24 4.98L10.37 6.11C10.64 6.38 10.65 6.82 10.38 7.09L8.36 9.17C8.09 9.45 7.64 9.45 7.36 9.17L6.24 8.05C5.74 7.54 5.74 6.72 6.24 6.21L7.4 4.98ZM9.27 10.1C9 10.37 9 10.81 9.27 11.08L16.72 18.53C17.12 18.92 17.62 19.2 18.17 19.33L19.9 19.73C20.83 19.95 21.13 19.57 20.92 18.63L20.52 16.9C20.39 16.35 20.11 15.85 19.71 15.45L12.28 8.02C12.01 7.74 11.56 7.75 11.29 8.03L9.27 10.1ZM6.64 19.9C7.82 19.9 8.54 19.3 9.09 18.83L9.12 18.8C9.69 18.32 10.09 18.01 10.78 18.01C12.05 18.01 12.68 18.79 13.14 19.37C13.24 19.49 13.33 19.6 13.42 19.69C13.66 19.96 14.07 19.98 14.33 19.73C14.6 19.49 14.62 19.08 14.37 18.81C14.34 18.78 14.3 18.72 14.24 18.64C13.83 18.11 12.76 16.71 10.78 16.71C9.59 16.71 8.87 17.32 8.31 17.78L8.28 17.81C7.72 18.29 7.32 18.6 6.64 18.6C5.25 18.6 4.65 17.78 4.27 17.26C4.23 17.21 4.2 17.16 4.16 17.12C3.94 16.83 3.54 16.78 3.25 16.99C2.97 17.21 2.91 17.62 3.13 17.9C3.15 17.94 3.18 17.98 3.22 18.02C3.6 18.56 4.56 19.9 6.64 19.9Z" fill="#717681" fill-opacity="1.000000" fill-rule="evenodd"/>
	</g>
</svg>
