<svg width="24.000000" height="24.000000" viewBox="0 0 24 24" fill="none" xmlns="http://www.w3.org/2000/svg" xmlns:xlink="http://www.w3.org/1999/xlink">
	<desc>
			Created with Pixso.
	</desc>
	<defs>
		<clipPath id="clip17_732">
			<rect id="Outline / Send Sign Outline" width="24.000000" height="24.000000" fill="white" fill-opacity="0"/>
		</clipPath>
	</defs>
	<g clip-path="url(#clip17_732)">
		<path id="Shape" d="M16.58 8.41C16.34 8.65 15.95 8.66 15.71 8.43C15.45 8.19 15.44 7.78 15.68 7.53C16.84 6.36 18.11 5.11 18.11 5.11L16.02 5.21C15.68 5.24 15.38 4.98 15.34 4.63C15.33 4.45 15.39 4.29 15.51 4.16C15.61 4.05 15.75 3.97 15.92 3.96L19.51 3.74C19.91 3.71 20.25 4.02 20.24 4.42L20.19 7.95C20.18 8.29 19.9 8.57 19.56 8.57C19.21 8.56 18.93 8.28 18.94 7.94L19.02 5.97L16.58 8.41ZM9.27 4.47C8.77 3.96 7.94 3.96 7.44 4.47L5.74 6.16C5.23 6.67 5.23 7.49 5.74 8L16.21 18.47C16.61 18.87 17.11 19.15 17.66 19.28L19.39 19.68C20.33 19.89 21.16 19.05 20.95 18.12L20.55 16.39C20.42 15.84 20.14 15.34 19.75 14.94L9.27 4.47ZM8.36 5.39L6.66 7.08L8.28 8.7L9.98 7.01L8.36 5.39ZM10.9 7.93L18.83 15.86C19.05 16.08 19.21 16.37 19.28 16.68L19.68 18.41L17.95 18.01C17.64 17.94 17.36 17.78 17.13 17.56L9.2 9.62L10.9 7.93ZM6.65 19.9C7.83 19.9 8.55 19.3 9.1 18.83L9.13 18.8C9.7 18.32 10.1 18.01 10.79 18.01C12.06 18.01 12.69 18.79 13.16 19.37C13.25 19.49 13.34 19.6 13.43 19.69C13.67 19.96 14.08 19.98 14.35 19.73C14.61 19.49 14.63 19.08 14.39 18.81C14.35 18.78 14.31 18.72 14.25 18.64C13.84 18.11 12.77 16.71 10.79 16.71C9.6 16.71 8.88 17.32 8.32 17.78L8.3 17.81C7.73 18.29 7.33 18.6 6.65 18.6C5.26 18.6 4.66 17.78 4.28 17.26C4.24 17.21 4.21 17.16 4.17 17.12C3.96 16.83 3.55 16.78 3.26 16.99C2.98 17.21 2.92 17.62 3.14 17.9C3.16 17.94 3.19 17.98 3.23 18.02C3.61 18.56 4.58 19.9 6.65 19.9Z" fill="#74767B" fill-opacity="1.000000" fill-rule="evenodd"/>
	</g>
</svg>
