<svg width="24" height="24" viewBox="0 0 24 24" fill="none" xmlns="http://www.w3.org/2000/svg">
<path d="M20.3378 4C20.6968 4 20.9878 4.29102 20.9878 4.65C20.9878 5.00899 20.6968 5.3 20.3378 5.3H14.3182C13.9592 5.3 13.6682 5.00899 13.6682 4.65C13.6682 4.29102 13.9592 4 14.3182 4H20.3378Z" fill="#717681"/>
<path d="M20.9878 8.18369C20.9878 7.82471 20.6968 7.53369 20.3378 7.53369H17.711C17.352 7.53369 17.061 7.82471 17.061 8.18369C17.061 8.54268 17.352 8.83369 17.711 8.83369H20.3378C20.6968 8.83369 20.9878 8.54268 20.9878 8.18369Z" fill="#717681"/>
<path d="M7.40555 4.98082C7.91335 4.47303 8.73666 4.47303 9.24446 4.98083L10.3775 6.11389C10.6483 6.38469 10.6512 6.82283 10.3841 7.09721L8.36502 9.17073C8.09277 9.45033 7.64447 9.45331 7.36853 9.17736L6.24864 8.05748C5.74084 7.54968 5.74084 6.72638 6.24864 6.21858L7.40555 4.98082Z" fill="#717681"/>
<path d="M9.09456 18.8349C8.54197 19.3011 7.82122 19.9092 6.64024 19.9092C4.56871 19.9092 3.60182 18.5611 3.2204 18.0293C3.18673 17.9823 3.15762 17.9417 3.13272 17.909C2.91537 17.6233 2.97078 17.2155 3.25648 16.9981C3.54219 16.7808 3.95 16.8362 4.16735 17.1219C4.20076 17.1658 4.2358 17.2137 4.27298 17.2646C4.65269 17.7839 5.25612 18.6092 6.64024 18.6092C7.32318 18.6092 7.72059 18.2928 8.2889 17.8138L8.31758 17.7896C8.8719 17.322 9.59469 16.7123 10.7816 16.7123C12.7617 16.7123 13.831 18.1105 14.243 18.6493C14.3009 18.725 14.3458 18.7837 14.3784 18.8192C14.6214 19.0835 14.6042 19.4946 14.34 19.7376C14.0757 19.9806 13.6645 19.9634 13.4215 19.6992C13.3346 19.6046 13.2452 19.4936 13.1493 19.3743C12.6801 18.7912 12.0535 18.0123 10.7816 18.0123C10.0938 18.0123 9.69383 18.3297 9.12679 18.8077L9.09456 18.8349Z" fill="#717681"/>
<path d="M9.27147 10.1035C9.0043 10.3779 9.00721 10.8161 9.27801 11.0869L16.7234 18.5323C17.1211 18.9299 17.6225 19.2078 18.1705 19.3343L19.902 19.7339C20.8383 19.9499 21.1369 19.5705 20.9208 18.6342L20.5212 16.9027C20.3948 16.3547 20.1169 15.8533 19.7192 15.4556L12.287 8.02338C12.0111 7.74743 11.5628 7.75042 11.2905 8.03001L9.27147 10.1035Z" fill="#717681"/>
</svg>
