<svg width="24" height="24" viewBox="0 0 24 24" fill="none" xmlns="http://www.w3.org/2000/svg">
<path fill-rule="evenodd" clip-rule="evenodd" d="M7.4416 4.56863C7.94928 4.06095 8.7724 4.06095 9.28008 4.56863L19.7524 15.041C20.15 15.4386 20.4279 15.9399 20.5543 16.4877L20.9538 18.2188C21.1698 19.1549 20.3308 19.9939 19.3947 19.7779L17.6636 19.3784C17.1158 19.252 16.6145 18.9741 16.2169 18.5765L5.74454 8.10416C5.23686 7.59648 5.23686 6.77336 5.74455 6.26568L7.4416 4.56863ZM6.66378 7.18492L8.36084 5.48787L9.98198 7.109L8.28492 8.80606L6.66378 7.18492ZM18.8332 15.9602L10.9012 8.02824L9.20416 9.7253L17.1361 17.6573C17.3614 17.8826 17.6455 18.04 17.956 18.1117L19.6871 18.5112L19.2876 16.7801C19.2159 16.4696 19.0585 16.1855 18.8332 15.9602Z" fill="#717681"/>
<path d="M6.65269 20.0062C7.83367 20.0062 8.55442 19.3982 9.10701 18.932L9.13924 18.9048C9.70628 18.4268 10.1063 18.1093 10.794 18.1093C12.0659 18.1093 12.6925 18.8881 13.1617 19.4713C13.2576 19.5906 13.347 19.7017 13.434 19.7962C13.677 20.0605 14.0882 20.0777 14.3524 19.8347C14.6166 19.5917 14.6339 19.1805 14.3909 18.9163C14.3582 18.8808 14.3133 18.822 14.2554 18.7463C13.8434 18.2076 12.7741 16.8093 10.794 16.8093C9.60715 16.8093 8.88435 17.419 8.33004 17.8866L8.30135 17.9108C7.73304 18.3899 7.33563 18.7062 6.65269 18.7062C5.26858 18.7062 4.66515 17.881 4.28543 17.3616C4.24825 17.3108 4.21322 17.2629 4.1798 17.2189C3.96245 16.9332 3.55464 16.8778 3.26893 17.0952C2.98323 17.3125 2.92782 17.7203 3.14517 18.0061C3.17007 18.0388 3.19918 18.0794 3.23286 18.1263C3.61427 18.6581 4.58116 20.0062 6.65269 20.0062Z" fill="#717681"/>
</svg>
