<svg width="24.000000" height="24.000000" viewBox="0 0 24 24" fill="none" xmlns="http://www.w3.org/2000/svg" xmlns:xlink="http://www.w3.org/1999/xlink">
	<desc>
			Created with Pixso.
	</desc>
	<defs>
		<clipPath id="clip17_706">
			<rect id="Solid / Tasks Solid" width="24.000000" height="24.000000" fill="white" fill-opacity="0"/>
		</clipPath>
	</defs>
	<g >
		<path id="Shape" d="M20.38 8.82C21.22 8.82 21.22 7.52 20.38 7.52L19 7.52L19 6.03C19 4.37 17.65 3.03 16 3.03L7 3.03C5.34 3.03 4 4.37 4 6.03L4 17.99C4 19.65 5.34 20.99 7 20.99L16 20.99C17.65 20.99 19 19.64 19 17.99L19 16.49L20.38 16.49C20.74 16.49 21.04 16.2 21.04 15.84C21.04 15.49 20.74 15.19 20.38 15.19L19 15.19L19 8.82L20.38 8.82ZM10.79 7.55C11.07 7.78 11.1 8.19 10.86 8.46L9.29 10.29C9.17 10.42 9.01 10.5 8.83 10.51C8.66 10.52 8.48 10.46 8.35 10.34L7.17 9.24C6.91 9 6.9 8.59 7.14 8.33C7.38 8.06 7.79 8.05 8.06 8.29L8.74 8.93L9.88 7.61C10.11 7.34 10.52 7.31 10.79 7.55ZM13.06 9.6C12.7 9.6 12.41 9.31 12.41 8.95C12.41 8.59 12.7 8.3 13.06 8.3L15.35 8.3C15.7 8.3 16 8.59 16 8.95C16 9.31 15.7 9.6 15.35 9.6L13.06 9.6ZM6.99 14.37C6.99 13.65 7.57 13.07 8.29 13.07L9.69 13.07C10.41 13.07 10.99 13.65 10.99 14.37L10.99 15.77C10.99 16.49 10.41 17.07 9.69 17.07L8.29 17.07C7.57 17.07 6.99 16.49 6.99 15.77L6.99 14.37ZM8.29 14.37L9.69 14.37L9.69 15.77L8.29 15.77L8.29 14.37ZM13.06 15.72C12.7 15.72 12.41 15.43 12.41 15.07C12.41 14.71 12.7 14.42 13.06 14.42L15.35 14.42C15.7 14.42 16 14.71 16 15.07C16 15.43 15.7 15.72 15.35 15.72L13.06 15.72Z" fill="#74767B" fill-opacity="1.000000" fill-rule="evenodd"/>
	</g>
</svg>
