<svg width="24.000000" height="24.000000" viewBox="0 0 24 24" fill="none" xmlns="http://www.w3.org/2000/svg" xmlns:xlink="http://www.w3.org/1999/xlink">
	<desc>
			Created with Pixso.
	</desc>
	<defs>
		<clipPath id="clip17_798">
			<rect id="Outline / XML Outline" width="24.000000" height="24.000000" fill="white" fill-opacity="0"/>
		</clipPath>
	</defs>
	<g>
		<path id="Shape" d="M17.64 4.65L9.66 4.65C8.72 4.65 7.96 5.41 7.96 6.35L7.96 16.36C7.96 17.3 8.72 18.06 9.66 18.06L17.64 18.06C18.58 18.06 19.34 17.3 19.34 16.36L19.34 6.35C19.34 5.41 18.58 4.65 17.64 4.65ZM9.66 3.35C8.01 3.35 6.66 4.69 6.66 6.35L6.66 16.36C6.66 18.02 8.01 19.36 9.66 19.36L17.64 19.36C19.3 19.36 20.64 18.02 20.64 16.36L20.64 6.35C20.64 4.69 19.3 3.35 17.64 3.35L9.66 3.35ZM4.71 8.7C5.07 8.7 5.36 8.99 5.36 9.35L5.36 18.81C5.36 19.83 6.19 20.66 7.21 20.66L15.65 20.66C16.01 20.66 16.3 20.95 16.3 21.31C16.3 21.67 16.01 21.96 15.65 21.96L7.21 21.96C5.47 21.96 4.06 20.55 4.06 18.81L4.06 9.35C4.06 8.99 4.35 8.7 4.71 8.7ZM11.62 10.22C11.84 9.94 11.79 9.53 11.51 9.31C11.22 9.09 10.81 9.14 10.59 9.43L9.43 10.93C9.25 11.16 9.25 11.49 9.43 11.72L10.59 13.27C10.8 13.56 11.21 13.62 11.5 13.4C11.79 13.19 11.84 12.78 11.63 12.49L10.76 11.34L11.62 10.22ZM15.85 13.39C15.57 13.18 15.52 12.77 15.73 12.48L16.59 11.37L15.73 10.22C15.51 9.93 15.57 9.52 15.86 9.31C16.15 9.09 16.55 9.15 16.77 9.44L17.93 10.99C18.11 11.22 18.1 11.54 17.93 11.77L16.76 13.28C16.54 13.56 16.14 13.61 15.85 13.39ZM14.76 9.88C14.85 9.53 14.65 9.17 14.3 9.08C13.95 8.99 13.6 9.2 13.5 9.55L12.63 12.84C12.54 13.18 12.75 13.54 13.1 13.63C13.44 13.72 13.8 13.52 13.89 13.17L14.76 9.88Z" fill="#717681" fill-opacity="1.000000" fill-rule="evenodd"/>
	</g>
</svg>
