<svg width="24.000000" height="24.000000" viewBox="0 0 24 24" fill="none" xmlns="http://www.w3.org/2000/svg" xmlns:xlink="http://www.w3.org/1999/xlink">
	<desc>
			Created with Pixso.
	</desc>
	<defs>
		<clipPath id="clip17_801">
			<rect id="Solid / XML Solid" width="24.000000" height="24.000000" fill="white" fill-opacity="0"/>
		</clipPath>
	</defs>
	<g clip-path="url(#clip17_801)">
		<path id="Shape" d="M6.66 6.35C6.66 4.69 8.01 3.35 9.66 3.35L17.64 3.35C19.3 3.35 20.64 4.69 20.64 6.35L20.64 16.36C20.64 18.02 19.3 19.36 17.64 19.36L9.66 19.36C8.01 19.36 6.66 18.02 6.66 16.36L6.66 6.35ZM11.51 9.31C11.79 9.53 11.84 9.94 11.62 10.22L10.76 11.34L11.63 12.49C11.84 12.78 11.79 13.19 11.5 13.4C11.21 13.62 10.8 13.56 10.59 13.27L9.43 11.72C9.25 11.49 9.25 11.16 9.43 10.93L10.59 9.43C10.81 9.14 11.22 9.09 11.51 9.31ZM15.73 12.48C15.52 12.77 15.57 13.18 15.85 13.39C16.14 13.61 16.54 13.56 16.76 13.28L17.93 11.77C18.1 11.54 18.11 11.22 17.93 10.99L16.77 9.44C16.55 9.15 16.15 9.09 15.86 9.31C15.57 9.52 15.51 9.93 15.73 10.22L16.59 11.37L15.73 12.48ZM14.3 9.08C14.65 9.17 14.85 9.53 14.76 9.88L13.89 13.17C13.8 13.52 13.44 13.72 13.1 13.63C12.75 13.54 12.54 13.18 12.63 12.84L13.5 9.55C13.6 9.2 13.95 8.99 14.3 9.08ZM5.36 9.35C5.36 8.99 5.07 8.7 4.71 8.7C4.35 8.7 4.06 8.99 4.06 9.35L4.06 18.81C4.06 20.55 5.47 21.96 7.21 21.96L15.65 21.96C16.01 21.96 16.3 21.67 16.3 21.31C16.3 20.95 16.01 20.66 15.65 20.66L7.21 20.66C6.19 20.66 5.36 19.83 5.36 18.81L5.36 9.35Z" fill="#717681" fill-opacity="1.000000" fill-rule="evenodd"/>
	</g>
</svg>
