<svg width="24.000000" height="24.000000" viewBox="0 0 24 24" fill="none" xmlns="http://www.w3.org/2000/svg" xmlns:xlink="http://www.w3.org/1999/xlink">
	<desc>
			Created with Pixso.
	</desc>
	<defs>
		<clipPath id="clip120059_731">
			<rect id="Outline / ZIP Outline" width="24.000000" height="24.000000" fill="white" fill-opacity="0"/>
		</clipPath>
	</defs>
	<rect id="Outline / ZIP Outline" width="24.000000" height="24.000000" fill="#FFFFFF" fill-opacity="0"/>
	<g>
		<path id="Shape" d="M5 6L5 11C3.34 11 2 12.34 2 14L2 18C2 19.65 3.34 21 5 21L19 21C20.65 21 22 19.65 22 18L22 14C22 12.34 20.65 11 19 11L19 9.17C19 8.42 18.71 7.69 18.19 7.13L15.23 3.95C14.67 3.34 13.87 3 13.04 3L8 3C6.34 3 5 4.34 5 6ZM8 4.29L13.04 4.29C13.14 4.29 13.24 4.3 13.34 4.32L13.34 7.04C13.34 8.12 14.22 8.99 15.29 8.99L17.69 8.99C17.69 9.05 17.7 9.11 17.7 9.17L17.7 11L6.3 11L6.3 6C6.3 5.06 7.06 4.29 8 4.29ZM14.64 7.04L14.64 5.23L16.94 7.69L15.29 7.69C14.94 7.69 14.64 7.4 14.64 7.04ZM19 12.3L5 12.3C4.06 12.3 3.3 13.06 3.3 14L3.3 18C3.3 18.93 4.06 19.7 5 19.7L19 19.7C19.93 19.7 20.7 18.93 20.7 18L20.7 14C20.7 13.06 19.93 12.3 19 12.3ZM15.65 17.75C15.65 18.11 15.35 18.4 15 18.4C14.64 18.4 14.35 18.11 14.35 17.75L14.35 14.24C14.35 13.88 14.64 13.59 15 13.59L16.31 13.59C17.31 13.59 18.11 14.39 18.11 15.38C18.11 16.38 17.31 17.18 16.31 17.18L15.65 17.18L15.65 17.75ZM6.21 14.24C6.21 13.88 6.5 13.59 6.86 13.59L9.24 13.59C9.48 13.59 9.7 13.72 9.82 13.93C9.93 14.15 9.92 14.4 9.78 14.6L8.09 17.1L9.24 17.1C9.6 17.1 9.89 17.39 9.89 17.75C9.89 18.11 9.6 18.4 9.24 18.4L6.86 18.4C6.62 18.4 6.4 18.27 6.29 18.06C6.18 17.85 6.19 17.59 6.32 17.39L8.02 14.89L6.86 14.89C6.5 14.89 6.21 14.6 6.21 14.24ZM12 13.59C12.35 13.59 12.65 13.88 12.65 14.24L12.65 17.76C12.65 18.12 12.35 18.41 12 18.41C11.64 18.41 11.35 18.12 11.35 17.76L11.35 14.24C11.35 13.88 11.64 13.59 12 13.59ZM16.31 15.88C16.59 15.88 16.81 15.66 16.81 15.38C16.81 15.11 16.59 14.89 16.31 14.89L15.65 14.89L15.65 15.88L16.31 15.88Z" fill="#717681" fill-opacity="1.000000" fill-rule="evenodd"/>
	</g>
</svg>
