<svg xmlns="http://www.w3.org/2000/svg" fill="none" viewBox="0 0 28 28" focusable="false"><defs><clipPath id="Abkhazia_svg__a"><path fill="#fff" fill-opacity="0" d="M28 28H0V0h28z"/></clipPath></defs><path fill="none" d="M28 28H0V0h28z"/><g clip-path="url(#Abkhazia_svg__a)"><rect width="28" height="20" y="4" fill="#FFF" rx="3"/><rect width="27.5" height="19.5" x=".25" y="4.25" stroke="#F5F5F5" stroke-width=".5" rx="3"/><mask id="Abkhazia_svg__b" fill="#fff"><path fill-rule="evenodd" d="M27.997 21.143A3 3 0 0 1 25 24H3a3 3 0 0 1-2.997-2.858zM28 15.427H0v2.857h28zM25 4H3A3 3 0 0 0 .003 6.857h27.994A3 3 0 0 0 25 4m3 5.715v2.855H0V9.715z" clip-rule="evenodd"/></mask><path fill="#00993E" fill-rule="evenodd" d="M27.997 21.143A3 3 0 0 1 25 24H3a3 3 0 0 1-2.997-2.858zM28 15.427H0v2.857h28zM25 4H3A3 3 0 0 0 .003 6.857h27.994A3 3 0 0 0 25 4m3 5.715v2.855H0V9.715z" clip-rule="evenodd" mask="url(#Abkhazia_svg__b)"/><mask id="Abkhazia_svg__c" width="28" height="20" x="0" y="4" mask-type="alpha" maskUnits="userSpaceOnUse"><rect width="28" height="20" y="4" fill="#1B2F4C" rx="3"/><rect width="27.5" height="19.5" x=".25" y="4.25" stroke="#F5F5F5" stroke-opacity="0" stroke-width=".5" rx="3"/></mask><g mask="url(#Abkhazia_svg__c)"><path fill="#C8312A" d="M0 4h14.181v8.57H0z"/></g><path fill="#FFF" d="M6.08 6.97c.62-.24.96-.21 1.53 0 .1 1.02.18 1.4.41 2.41 0 0 .22-.46.48-.67.26-.2.41 0 .41 0s-.2.83-.51 1.36-.71.76-.71.76v.6H6.08v-.5l-.26-.6c-.21-1.39-.14-1.97.26-3.36"/><circle cx="6.922" cy="5.472" r=".392" fill="#FFF"/><circle cx="4.88" cy="5.97" r=".392" fill="#FFF"/><circle r=".392" fill="#FFF" transform="matrix(-1 1 0 0 9.085 5.97)"/><circle cx="3.026" cy="7.274" r=".392" fill="#FFF"/><circle r=".392" fill="#FFF" transform="matrix(-1 1 0 0 10.939 7.274)"/><circle cx="2.013" cy="9.145" r=".392" fill="#FFF"/><circle r=".392" fill="#FFF" transform="matrix(-1 1 0 0 11.951 9.145)"/></g></svg>