<svg xmlns="http://www.w3.org/2000/svg" fill="none" viewBox="0 0 28 28" focusable="false"><rect width="27.5" height="19.5" x=".25" y="4.25" fill="#fff" stroke="#f5f5f5" stroke-width=".5" rx="2.75"/><path fill="#00993e" fill-rule="evenodd" d="M.003 6.857h27.994A3 3 0 0 0 25 4H3A3 3 0 0 0 .003 6.857M0 9.715h28v2.855H0zm28 5.713H0v2.857h28zm-.003 5.714A3 3 0 0 1 25 24H3a3 3 0 0 1-2.997-2.858z" clip-rule="evenodd"/><mask id="Abkhazia_svg__a" width="28" height="20" x="0" y="4" maskUnits="userSpaceOnUse" style="mask-type:alpha"><rect width="28" height="20" y="4" fill="#1b2f4c" rx="3"/></mask><g mask="url(#Abkhazia_svg__a)"><path fill="#c8312a" d="M0 4h14.181v8.57H0z"/></g><path fill="#fff" d="M6.084 6.975c.617-.244.958-.213 1.528 0 .106 1.024.181 1.402.412 2.414 0 0 .223-.463.48-.67.258-.206.413 0 .413 0s-.206.824-.515 1.357c-.31.532-.704.755-.704.755v.6H6.084v-.497l-.257-.601c-.21-1.389-.142-1.972.257-3.358"/><circle cx="6.922" cy="5.472" r=".392" fill="#fff"/><circle cx="4.88" cy="5.97" r=".392" fill="#fff"/><circle cx=".392" cy=".392" r=".392" fill="#fff" transform="matrix(-1 0 0 1 9.476 5.579)"/><circle cx="3.026" cy="7.275" r=".392" fill="#fff"/><circle cx=".392" cy=".392" r=".392" fill="#fff" transform="matrix(-1 0 0 1 11.33 6.883)"/><circle cx="2.013" cy="9.145" r=".392" fill="#fff"/><circle cx=".392" cy=".392" r=".392" fill="#fff" transform="matrix(-1 0 0 1 12.343 8.754)"/></svg>