<svg xmlns="http://www.w3.org/2000/svg" fill="none" viewBox="0 0 28 28" focusable="false"><defs><filter id="Afghanistan_svg__a"><feColorMatrix values="0 0 0 0 1 0 0 0 0 1 0 0 0 0 1 0 0 0 1 0"/></filter></defs><mask id="Afghanistan_svg__b" width="28" height="20" x="0" y="4" maskUnits="userSpaceOnUse"><g filter="url(#Afghanistan_svg__a)"><rect width="28" height="20" y="4" fill="#FFF" rx="3"/><rect width="28" height="20" y="4" stroke="#969696" stroke-opacity="0" stroke-width="0" rx="3"/></g></mask><path fill="none" d="M0 0H28V28H0z"/><rect width="28" height="20" y="4" fill="#FFF" rx="3"/><rect width="28" height="20" y="4" rx="3"/><g mask="url(#Afghanistan_svg__b)"><path fill="#1AB11F" d="M13.333 4H28V24H13.333z"/><path d="M13.333 4H28V24H13.333z"/><path fill="#262626" fill-rule="evenodd" d="M0 24L9.33333 24L9.33333 4L0 4L0 24Z"/><path d="M9.33333 24L9.33333 4L0 4L0 24L9.33333 24Z"/><path fill="#DC0D18" fill-rule="evenodd" d="M9.33331 24L18.6666 24L18.6666 4L9.33331 4L9.33331 24Z"/><path d="M18.6666 24L18.6666 4L9.33331 4L9.33331 24L18.6666 24Z"/><g style="mix-blend-mode:normal"><path fill="none" d="M12.6636 15.6415C11.8682 15.1799 11.3333 14.3191 11.3333 13.3333L12.6636 15.6415ZM16.6666 13.3333C16.6666 14.2778 16.1756 15.1077 15.4348 15.5814L16.6666 13.3333Z" opacity=".75"/><path stroke="#FFF" stroke-linecap="round" stroke-width="1.333" d="M12.6636 15.6415C11.8682 15.1799 11.3333 14.3191 11.3333 13.3333L12.6636 15.6415ZM16.6666 13.3333C16.6666 14.2778 16.1756 15.1077 15.4348 15.5814L16.6666 13.3333Z" opacity=".75"/></g><path fill="#FFF" fill-opacity=".5" fill-rule="evenodd" d="M14 14.6667C14.7364 14.6667 15.3334 13.7713 15.3334 12.6667C15.3334 11.5621 14.7364 10.6667 14 10.6667C13.2636 10.6667 12.6667 11.5621 12.6667 12.6667C12.6667 13.7713 13.2636 14.6667 14 14.6667Z"/><path d="M15.3334 12.6667C15.3334 11.5621 14.7364 10.6667 14 10.6667C13.2636 10.6667 12.6667 11.5621 12.6667 12.6667C12.6667 13.7713 13.2636 14.6667 14 14.6667C14.7364 14.6667 15.3334 13.7713 15.3334 12.6667Z"/></g></svg>