<svg xmlns="http://www.w3.org/2000/svg" fill="none" viewBox="0 0 28 28" focusable="false"><path fill="none" d="M0 0h28v28H0z"/><rect width="28" height="20" y="4" fill="#FFF" rx="3"/><rect width="28" height="20" y="4" rx="3"/><mask id="Afghanistan_svg__a" width="28" height="20" x="0" y="4" mask-type="alpha" maskUnits="userSpaceOnUse"><rect width="28" height="20" y="4" fill="#FFF" rx="3"/><rect width="28" height="20" y="4" stroke="#979797" stroke-opacity="0" stroke-width="0" rx="3"/></mask><g mask="url(#Afghanistan_svg__a)"><path fill="#1AB11F" d="M13.333 4H28v20H13.333z"/><path d="M13.333 4H28v20H13.333z"/></g><g mask="url(#Afghanistan_svg__a)"><path fill="#262626" fill-rule="evenodd" d="M0 24h9.33V4H0z"/><path d="M9.33 24V4H0v20z"/></g><g mask="url(#Afghanistan_svg__a)"><path fill="#DC0D18" fill-rule="evenodd" d="M9.33 24h9.33V4H9.33z"/><path d="M18.66 24V4H9.33v20z"/></g><g mask="url(#Afghanistan_svg__a)" opacity=".75"><mask id="Afghanistan_svg__b" fill="#fff"><path fill-rule="evenodd" d="M12.664 15.641a2.666 2.666 0 0 1-1.33-2.308zm4.003-2.308c0 .945-.491 1.775-1.232 2.248z" clip-rule="evenodd"/></mask><path fill="none" d="M12.664 15.641a2.666 2.666 0 0 1-1.33-2.308zm4.003-2.308c0 .945-.491 1.775-1.232 2.248z" clip-rule="evenodd" mask="url(#Afghanistan_svg__b)"/><path fill="#FFF" d="M12.329 16.218q-.759-.44-1.203-1.196-.46-.78-.46-1.689v-2.492l2.575 4.468zm.67-1.153-.335.576-.578.333-1.33-2.308.577-.333H12q0 .546.275 1.013.267.454.723.719m4.334-1.732q0 .87-.423 1.627-.41.731-1.116 1.183l-.944-.882 1.232-2.248zm-1.333 0h.667l.584.32-1.232 2.249-.584-.32-.36-.562q.426-.272.672-.712.253-.452.253-.975"/></g><g mask="url(#Afghanistan_svg__a)"><path fill="#FFF" fill-opacity=".5" fill-rule="evenodd" d="M14 14.66c.73 0 1.33-.89 1.33-2 0-1.1-.6-2-1.33-2-.74 0-1.34.9-1.34 2 0 1.11.6 2 1.34 2"/><path d="M15.33 12.66c0-1.1-.6-2-1.33-2-.74 0-1.34.9-1.34 2 0 1.11.6 2 1.34 2 .73 0 1.33-.89 1.33-2"/></g></svg>