<svg xmlns="http://www.w3.org/2000/svg" fill="none" viewBox="0 0 28 28" focusable="false"><path fill="none" d="M0 0h28v28H0z"/><rect width="28" height="20" y="4" fill="#FFF" rx="3"/><rect width="28" height="20" y="4" rx="3"/><mask id="Aland_Islands_svg__a" width="28" height="20" x="0" y="4" mask-type="alpha" maskUnits="userSpaceOnUse"><rect width="28" height="20" y="4" fill="#FFF" rx="3"/><rect width="28" height="20" y="4" stroke="#979797" stroke-opacity="0" stroke-width="0" rx="3"/></mask><g mask="url(#Aland_Islands_svg__a)"><path fill="#157CBB" d="M0 4h28v20H0z"/><path d="M0 4h28v20H0z"/></g><g mask="url(#Aland_Islands_svg__a)"><path fill="#FFD34D" fill-rule="evenodd" d="M0 16h8v8h4v-8h16v-4H12V4H8v8H0z"/><path d="M8 16v8h4v-8h16v-4H12V4H8v8H0v4z"/></g><g mask="url(#Aland_Islands_svg__a)"><path fill="#EB363A" fill-rule="evenodd" d="M0 14.66h9.33V24h1.33v-9.34H28v-1.33H10.66V4H9.33v9.33H0z"/><path d="M9.33 14.66V24h1.33v-9.34H28v-1.33H10.66V4H9.33v9.33H0v1.33z"/></g></svg>