<svg xmlns="http://www.w3.org/2000/svg" fill="none" viewBox="0 0 28 28" focusable="false"><defs><filter id="Aland_Islands_svg__a"><feColorMatrix values="0 0 0 0 1 0 0 0 0 1 0 0 0 0 1 0 0 0 1 0"/></filter></defs><mask id="Aland_Islands_svg__b" width="28" height="20" x="0" y="4" maskUnits="userSpaceOnUse"><g filter="url(#Aland_Islands_svg__a)"><rect width="28" height="20" y="4" fill="#FFF" rx="3"/><rect width="28" height="20" y="4" stroke="#969696" stroke-opacity="0" stroke-width="0" rx="3"/></g></mask><path fill="none" d="M0 0H28V28H0z"/><rect width="28" height="20" y="4" fill="#FFF" rx="3"/><rect width="28" height="20" y="4" rx="3"/><g mask="url(#Aland_Islands_svg__b)"><path fill="#157CBB" d="M0 4H28V24H0z"/><path d="M0 4H28V24H0z"/><path fill="#FFD34D" fill-rule="evenodd" d="M0 16L8 16L8 24L12 24L12 16L28 16L28 12L12 12L12 4L8 4L8 12L0 12L0 16Z"/><path d="M8 16L8 24L12 24L12 16L28 16L28 12L12 12L12 4L8 4L8 12L0 12L0 16L8 16Z"/><path fill="#EB363A" fill-rule="evenodd" d="M0 14.6667L9.33333 14.6667L9.33333 24L10.6667 24L10.6667 14.6667L28 14.6667L28 13.3333L10.6667 13.3333L10.6667 4L9.33333 4L9.33333 13.3333L0 13.3333L0 14.6667Z"/><path d="M9.33333 14.6667L9.33333 24L10.6667 24L10.6667 14.6667L28 14.6667L28 13.3333L10.6667 13.3333L10.6667 4L9.33333 4L9.33333 13.3333L0 13.3333L0 14.6667L9.33333 14.6667Z"/></g></svg>