<svg xmlns="http://www.w3.org/2000/svg" width="28" height="28" fill="none"><mask id="a" width="28" height="20" x="0" y="4" maskUnits="userSpaceOnUse" style="mask-type:luminance"><rect width="28" height="20" y="4" fill="#fff" rx="3"/></mask><g mask="url(#a)"><path fill="#EE343C" d="M0 4h28v20H0z"/><path fill="#262626" fill-rule="evenodd" d="M12.386 8.386a.667.667 0 0 0-.84-.083l-.59.393a.667.667 0 0 0 .072 1.151l1.27.635a.667.667 0 0 1 .369.597v.254A.667.667 0 0 1 12 12h-.51a.667.667 0 0 1-.297-.07l-2.097-1.048a.667.667 0 0 0-.77.124l-.339.34a.667.667 0 0 0 .174 1.068l.944.472c.399.2.433.755.062 1.003a.58.58 0 0 0 .208 1.053l.562.112c.54.108.697.803.257 1.133l-.503.378a.427.427 0 0 0 .36.756l1.262-.316a.54.54 0 0 1 .58.823.54.54 0 0 0 .448.839h.584c.244 0 .46.156.537.387a.567.567 0 0 0 1.075 0 .566.566 0 0 1 .538-.387h.584a.54.54 0 0 0 .448-.84.54.54 0 0 1 .58-.822l1.262.316a.427.427 0 0 0 .36-.756l-.503-.377a.637.637 0 0 1 .257-1.134l.562-.112a.58.58 0 0 0 .208-1.053.581.581 0 0 1 .062-1.003l.944-.472a.667.667 0 0 0 .174-1.068l-.34-.34a.667.667 0 0 0-.77-.124l-2.096 1.048a.666.666 0 0 1-.298.07H16a.667.667 0 0 1-.667-.667v-.254c0-.253.143-.484.369-.597l1.27-.635a.667.667 0 0 0 .072-1.15l-.59-.394a.667.667 0 0 0-.84.083L14.47 9.53a.667.667 0 0 1-.942 0l-1.143-1.143Z" clip-rule="evenodd"/></g></svg>