<svg xmlns="http://www.w3.org/2000/svg" fill="none" viewBox="0 0 28 28" focusable="false"><path fill="none" d="M0 0h28v28H0z"/><rect width="28" height="20" y="4" fill="none" rx="3"/><rect width="28" height="20" y="4" rx="3"/><mask id="Albania_svg__a" width="28" height="20" x="0" y="4" mask-type="alpha" maskUnits="userSpaceOnUse"><rect width="28" height="20" y="4" fill="#000" rx="3"/><rect width="28" height="20" y="4" stroke="#979797" stroke-opacity="0" stroke-width="0" rx="3"/></mask><g mask="url(#Albania_svg__a)"><path fill="#EE343C" d="M0 4h28v20H0z"/><path d="M0 4h28v20H0z"/></g><g mask="url(#Albania_svg__a)"><path fill="#262626" fill-rule="evenodd" d="M12.38 8.38a.666.666 0 0 0-.84-.08l-.59.39c-.43.29-.39.92.07 1.15l1.27.64c.23.11.37.34.37.59v.26c0 .37-.3.67-.66.67h-.51a.61.61 0 0 1-.3-.08l-2.1-1.04a.667.667 0 0 0-.77.12l-.34.34a.67.67 0 0 0 .18 1.07l.94.47c.4.2.43.76.06 1-.43.29-.3.96.21 1.06l.56.11c.54.11.7.8.26 1.13l-.5.38c-.33.25-.16.77.25.77.04 0 .07-.01.11-.01l1.26-.32c.48-.12.85.41.58.82-.24.36.02.84.45.84h.58c.24 0 .46.16.54.39.17.52.9.52 1.07 0 .08-.23.3-.39.54-.39h.58c.43 0 .69-.48.45-.84-.27-.41.1-.94.58-.82l1.26.32c.04 0 .07.01.11.01.41 0 .58-.52.25-.77l-.5-.38a.635.635 0 0 1 .26-1.13l.56-.11c.51-.1.64-.77.21-1.06-.37-.24-.34-.8.06-1l.94-.47c.41-.2.5-.75.18-1.07l-.34-.34c-.2-.2-.51-.25-.77-.12l-2.1 1.04a.61.61 0 0 1-.3.08H16a.67.67 0 0 1-.67-.67v-.26c0-.25.14-.48.37-.59.39-.2.86-.43 1.27-.64.46-.23.49-.86.07-1.15l-.59-.39a.666.666 0 0 0-.84.08l-1.14 1.14c-.26.26-.69.26-.95 0z"/><path d="M10.95 8.69c-.43.29-.39.92.07 1.15l1.27.64c.23.11.37.34.37.59v.26c0 .37-.3.67-.66.67h-.51a.61.61 0 0 1-.3-.08l-2.1-1.04a.667.667 0 0 0-.77.12l-.34.34a.67.67 0 0 0 .18 1.07l.94.47c.4.2.43.76.06 1-.43.29-.3.96.21 1.06l.5.1c.56.11.73.84.27 1.18l-.45.34c-.33.25-.16.77.25.77.04 0 .07-.01.11-.01l1.26-.32c.48-.12.85.41.58.82-.24.36.02.84.45.84h.58c.24 0 .46.16.54.39.17.52.9.52 1.07 0 .08-.23.3-.39.54-.39h.58c.43 0 .69-.48.45-.84-.27-.41.1-.94.58-.82l1.26.32c.04 0 .07.01.11.01.41 0 .58-.52.25-.77l-.5-.38a.635.635 0 0 1 .26-1.13l.56-.11c.51-.1.64-.77.21-1.06-.37-.24-.34-.8.06-1l.94-.47c.41-.2.5-.75.18-1.07l-.34-.34c-.2-.2-.51-.25-.77-.12l-2.1 1.04a.61.61 0 0 1-.3.08H16a.67.67 0 0 1-.67-.67v-.26c0-.25.14-.48.37-.59.39-.2.86-.43 1.27-.64.46-.23.49-.86.07-1.15l-.59-.39a.666.666 0 0 0-.84.08l-1.14 1.14c-.26.26-.69.26-.95 0l-1.14-1.14a.666.666 0 0 0-.84-.08z"/></g></svg>