<svg xmlns="http://www.w3.org/2000/svg" fill="none" viewBox="0 0 28 28" focusable="false"><rect width="27.5" height="19.5" x=".25" y="4.25" fill="#fff" stroke="#D6D8DD" stroke-width=".5" rx="2.75"/><mask id="Algeria_svg__a" width="28" height="20" x="0" y="4" maskUnits="userSpaceOnUse" style="mask-type:luminance"><rect width="27.5" height="19.5" x=".25" y="4.25" fill="#fff" stroke="#fff" stroke-width=".5" rx="2.75"/></mask><g fill-rule="evenodd" clip-rule="evenodd" mask="url(#Algeria_svg__a)"><path fill="#048345" d="M0 24h14.667V4H0z"/><path fill="#E81B42" d="m17.333 15.04-1.567 1.117.578-1.836-1.547-1.145 1.925-.017.611-1.826.612 1.826 1.924.017-1.547 1.145.579 1.836-1.568-1.117"/><path fill="#E81B42" d="M17.68 18.381A5.605 5.605 0 0 1 13.75 20C10.576 20 8 17.314 8 14s2.575-6 5.75-6c1.52 0 2.902.615 3.93 1.619a5.483 5.483 0 0 0-2.36-.528c-2.888 0-5.229 2.198-5.229 4.909s2.34 4.91 5.228 4.91c.85 0 1.652-.191 2.361-.529"/></g></svg>