<svg xmlns="http://www.w3.org/2000/svg" fill="none" viewBox="0 0 28 28" focusable="false"><defs><clipPath id="American_Samoa_svg__a"><path fill="#fff" fill-opacity="0" d="M0 0h28v28H0z"/></clipPath></defs><path fill="none" d="M0 0h28v28H0z"/><g clip-path="url(#American_Samoa_svg__a)"><path fill="#fff" d="M0 21c0 1.65 1.34 3 3 3h22c1.65 0 3-1.35 3-3V7c0-1.66-1.35-3-3-3H3C1.34 4 0 5.34 0 7z"/><path fill="#d6d8dd" fill-rule="evenodd" d="M3 24c-1.66 0-3-1.35-3-3V7c0-1.66 1.34-3 3-3h22c1.65 0 3 1.34 3 3v14c0 1.65-1.35 3-3 3zm0-.5h22q.28 0 .56-.07.21-.05.41-.13.21-.09.39-.21.22-.14.4-.33.19-.18.33-.4.12-.18.21-.39.08-.2.13-.41.07-.28.07-.56V7q0-.29-.07-.57-.05-.21-.13-.41-.09-.21-.21-.39-.14-.22-.33-.4-.18-.19-.4-.33-.18-.12-.39-.21-.2-.08-.41-.13-.28-.06-.56-.06H3q-.29 0-.57.06-.21.05-.41.13-.21.09-.39.21-.22.14-.4.33-.19.18-.33.4-.12.18-.21.39-.08.2-.13.41Q.5 6.71.5 7v14q0 .28.06.56.05.21.13.41.09.21.21.39.14.22.33.4.18.19.4.33.18.12.39.21.2.08.41.13.28.07.57.07"/><mask id="American_Samoa_svg__b" width="28" height="20" x="0" y="4" mask-type="alpha" maskUnits="userSpaceOnUse"><path fill="#000661" d="M3 24h22c1.65 0 3-1.35 3-3V7c0-1.66-1.35-3-3-3H3C1.34 4 0 5.34 0 7v14c0 1.65 1.34 3 3 3"/></mask><g mask="url(#American_Samoa_svg__b)"><path fill="#8c301c" fill-rule="evenodd" d="M22.1 16.14s-.19-.18.04-.47c-.13-.12-.01-.35-.01-.35s-.21-.09.01-.46c-.16-.12-.09-.39-.09-.39s-.53-.22-.03-.43c-.41.2-.79-.27-.79-.27l-.59.02c-.1-.56-.89-.07-.3-1.67-.15-.03-.32-.08-.49.06s-.65.44-.93.14c-.29-.3.18-.73.19-.74s.63-.37.72-.61c-.01-.18-.2-.32-.03-.71.21-.37 1.46-.72 2.03-.84.27-.14.4-.41.4-.41l.06.26s1.26-.42 1.32-.62.03.18.03.18c.49-.05 1.12-.53 1.21-.31.42-.09 1.22-.49 1.22-.49s.27-.01.08.33c.03.06.05.14.04.21-.01.08-.04.15-.09.2-.01 0 .06.22-.1.34.05.19-.1.34-.1.34s.07.23-.21.35c.02.2-.16.24-.16.24s.02.21-.1.3c0 .16-.14.24-.14.24s.08.06-.04.16-1.41.99-1.41.98.94.19 1 .23.77.57.77.57l-.71 1s-.8-.1-.84-.05c-.03.05.17.07.22.15.04.08.11.27.25.25s-.26.29-.53.32c0 .11.34.12.43.03.08-.09-.22.26-.25.31-.04.05.4-.07.4-.07s-.07.33-.46.43c.15.28.09.46.08.46 0 0-.25-.28-.48-.23.07.27.25.52.31.56.05.04-.42.03-.48-.12s-.12.36.05.52c-.19.01-.36-.12-.36-.12s-.12.3-.04.45-.27-.3-.27-.3l-.68.32z"/></g><g mask="url(#American_Samoa_svg__b)"><path fill="#f0bc1e" fill-rule="evenodd" d="M16.89 15.54c.02 0 .98-.01 1.42-.3.22.39.52.66.52.66l.15-.57s.34.02.38.11c-.05.1-.07.25-.07.25s.24.01.25.05c.02.03-.06.34-.06.34l1.01.26s.08-.44.16-.39c.08.06.43.61.92.64.49.04.52-.46.52-.46l.11.07s.2-.5.24-.5c.03 0 .08.07.34.07.08.11.11.36.11.36s-.3.34-.2.61c.09.26.11.19.11.19l2.18.59s.11.19-.08.3c0 .02-2.2-.57-2.2-.57s-.2.27-.36.21c-.16-.05-.05.11-.05.11l2.37.22s.18.25.05.32c-.16.01-2.56-.18-2.56-.18s-.14.34-.3.05c-.11.2-.24-.05-.24-.05s-.2.18-.23-.02c-.18.14-.29-.09-.29-.09l-1.01-.07-.06.11s.17.05-.1.18c-.27.12 1.62.07 1.66.08.05.02-.12.18-.12.18s.96.07 1.13-.16c.18-.23-.06.3-.06.3s.76-.03.76-.07c0-.03-.02.27-.54.23.32.24.71.38.71.38s-.39.11-.85-.02c.08.23.43.45.43.45s-.26.25-.82-.36c.15.32.03.45.01.41-.01-.04-.28-.48-.92-.64.4.28.23.41.23.41s-.21-.41-.54 0c-.13-.37-.62-.59-1.22-.62-.19-.25-.3-.18-.74-.32-.25-.33-.62-.68-.62-.68s.02-.48.45-.43c.04.16.04.11.04.11s.48-.2.62.07c.21-.41.49-.06.54.08.13.02.82.04.82.04s-.08-.16-.03-.14c.04.02.42-.16.41-.21-.02-.06-.04-.23.03-.22.06.02-.54-.09-.87.2-.11-.13-.03-.46-.03-.46l-.98-.23-.05.28s-.28.05-.27-.02c.02-.07-.06.25-.06.25s-.38-.11-.38-.12c0-.02.11-.64.11-.63 0 .02-.32.04-.76.41-.12-.44-1.12-1.03-1.12-1.05"/></g><g mask="url(#American_Samoa_svg__b)"><path fill="#f0bc1e" fill-rule="evenodd" d="M18.12 14.08s-.66.64 0 1.02c.04-.25.08-.29.08-.29s.55.24.89-.32c-.15-.23-.4-.14-.4-.14s-.52 0-.57-.27"/></g><g mask="url(#American_Samoa_svg__b)"><path fill="#f9ebc2" fill-rule="evenodd" d="M18.15 14.09s.08-.1.11-.22-.03-.25.07-.36c.11-.11 1.51-.78 1.62-.91.12-.13.33-.41.36-.47s.11.3-.13.46c.25-.08.42-.17.53-.13-.11.17-.39.45-.53.45.32-.13.6-.24.68-.17s-.38.42-.57.44c.31-.09.73-.23.78-.08-.17.06-.11.11-.46.33-.04.04-.26.05-.26.05.26-.03.62-.15.66.07-.21.09-.29.21-.47.26s-.59.14-.83.25c-.25.11-.62.43-.62.43s-.79.03-.79.02-.15-.41-.16-.42z"/></g><g mask="url(#American_Samoa_svg__b)"><path fill="#100f0d" d="M18.54 14.02h-.05c0-.01.01-.22.1-.3.03-.02.09-.05.17-.1.14-.08.34-.18.39-.28.02-.03.04-.05.06-.04.02.02.01.03-.01.09-.03.06-.12.27-.1.33l-.05.02c-.02-.06.01-.16.06-.27-.1.08-.22.15-.33.21l-.06.03c.08.04.17.14.13.27l-.05-.02c.04-.14-.12-.21-.13-.21v-.01c-.02.01-.03.02-.05.03-.05.05-.07.2-.08.25"/></g><g mask="url(#American_Samoa_svg__b)"><path fill="#100f0d" d="M18.76 13.69c-.07 0-.12.07-.12.14 0 .08.05.14.12.14s.12-.06.12-.14c0-.07-.05-.14-.12-.14m0 .33c-.09 0-.17-.08-.17-.19 0-.1.08-.19.17-.19s.17.09.17.19c0 .11-.08.19-.17.19"/></g><g mask="url(#American_Samoa_svg__b)"><path fill="#f9ebc2" fill-rule="evenodd" d="m24.91 13.48 1.54.33s.17-.22.08-.34c.23-.06.17-.4.17-.4s.26-.13.04-.43c.15-.17-.03-.3-.03-.3s.06-.3-.14-.33c.05-.24-.33-.32-.33-.32s-.81.25-1.38.27c.19.21-.07.34-.07.34s.15.12.11.22c-.05.1.02.21-.17.28.26.13-.03.35-.03.35s.29.22.21.33"/></g><g mask="url(#American_Samoa_svg__b)"><path fill="#000661" d="M28 24H0V14zM0 4h28L0 14z"/></g><g mask="url(#American_Samoa_svg__b)"><path fill="#ab1a2e" d="M0 14 28 4v1L3 14l25 9v1z"/></g></g></svg>