<svg xmlns="http://www.w3.org/2000/svg" fill="none" viewBox="0 0 29 28" focusable="false"><path fill="none" d="M0 0h28v28H0z"/><rect width="28" height="20" y="4" fill="#fff" rx="3"/><rect width="28" height="20" y="4" rx="3"/><mask id="Andorra_svg__a" width="28" height="20" x="0" y="4" mask-type="alpha" maskUnits="userSpaceOnUse"><rect width="28" height="20" y="4" fill="#fff" rx="3"/><rect width="28" height="20" y="4" stroke="#979797" stroke-opacity="0" stroke-width="0" rx="3"/></mask><g mask="url(#Andorra_svg__a)"><path fill="#1537d1" d="M0 4h28v20H0z"/><path d="M0 4h28v20H0z"/></g><g mask="url(#Andorra_svg__a)"><path fill="#ea3058" d="M13.333 4H28v20H13.333z"/><path d="M13.333 4H28v20H13.333z"/></g><g mask="url(#Andorra_svg__a)"><path fill="#ffcf3c" fill-rule="evenodd" d="M9.33 24h9.33V4H9.33z"/><path d="M18.66 24V4H9.33v20z"/></g><g mask="url(#Andorra_svg__a)"><path fill="#ffedb1" fill-rule="evenodd" d="M12.66 12.66h1.33v.67h-1.33z"/><path d="M13.99 12.66v.67h-1.33v-.67z"/></g><g mask="url(#Andorra_svg__a)"><path fill="none" d="M12.06 12.72c-.04-.39.27-.72.66-.72h2.55c.39 0 .7.33.66.72l-.17 2.05c-.05.69-.63 1.23-1.33 1.23h-.87c-.7 0-1.28-.54-1.33-1.23z"/><path fill="#d32e28" fill-rule="evenodd" d="M12.06 12.72c-.04-.39.27-.72.66-.72h2.55c.39 0 .7.33.66.72l-.17 2.05c-.05.69-.63 1.23-1.33 1.23h-.87c-.7 0-1.28-.54-1.33-1.23zm.66-.06h2.55l-.17 2.06q-.01.13-.06.24-.06.1-.15.19-.1.09-.21.13-.12.05-.25.05h-.87q-.13 0-.25-.05-.11-.04-.21-.13-.09-.09-.15-.19-.05-.11-.06-.24z"/></g><g mask="url(#Andorra_svg__a)"><path fill="#d32e28" fill-rule="evenodd" d="M12.66 13.33h2.67V14h-2.67z"/><path d="M15.33 13.33V14h-2.67v-.67z"/></g></svg>