<svg xmlns="http://www.w3.org/2000/svg" fill="none" viewBox="0 0 28 28" focusable="false"><rect width="28" height="20" y="4" fill="#fff" rx="2"/><mask id="Angola_svg__a" width="28" height="20" x="0" y="4" maskUnits="userSpaceOnUse" style="mask-type:luminance"><rect width="28" height="20" y="4" fill="#fff" rx="2"/></mask><g mask="url(#Angola_svg__a)"><path fill="url(#Angola_svg__b)" d="M0 4h28v20H0z"/><g filter="url(#Angola_svg__c)"><path fill="#262626" fill-rule="evenodd" d="M0 24h28v-9.333H0z" clip-rule="evenodd"/></g><g filter="url(#Angola_svg__d)"><path fill="#DD2137" fill-rule="evenodd" d="M0 14.667h28V4H0v10.667" clip-rule="evenodd"/></g><g filter="url(#Angola_svg__e)"><path fill="#F8D84B" fill-rule="evenodd" d="M16.198 15.553a4 4 0 0 0-2.44-5.848.667.667 0 1 0-.344 1.288 2.667 2.667 0 0 1 1.67 3.817l-2.047-1.365a.667.667 0 0 0-.74 1.11l1.877 1.251a2.66 2.66 0 0 1-2.14.339.667.667 0 1 0-.346 1.287 3.996 3.996 0 0 0 3.66-.844l.949.633a.667.667 0 0 0 .74-1.109l-.84-.56m-3.531-2.886a.667.667 0 1 0 0-1.334.667.667 0 0 0 0 1.334" clip-rule="evenodd"/></g></g><defs><filter id="Angola_svg__c" width="28" height="9.333" x="0" y="14.667" color-interpolation-filters="sRGB" filterUnits="userSpaceOnUse"><feFlood flood-opacity="0" result="BackgroundImageFix"/><feColorMatrix in="SourceAlpha" result="hardAlpha" values="0 0 0 0 0 0 0 0 0 0 0 0 0 0 0 0 0 0 127 0"/><feOffset/><feColorMatrix values="0 0 0 0 0 0 0 0 0 0 0 0 0 0 0 0 0 0 0.06 0"/><feBlend in2="BackgroundImageFix" result="effect1_dropShadow_17_6199"/><feBlend in="SourceGraphic" in2="effect1_dropShadow_17_6199" result="shape"/></filter><filter id="Angola_svg__d" width="28" height="10.667" x="0" y="4" color-interpolation-filters="sRGB" filterUnits="userSpaceOnUse"><feFlood flood-opacity="0" result="BackgroundImageFix"/><feColorMatrix in="SourceAlpha" result="hardAlpha" values="0 0 0 0 0 0 0 0 0 0 0 0 0 0 0 0 0 0 127 0"/><feOffset/><feColorMatrix values="0 0 0 0 0 0 0 0 0 0 0 0 0 0 0 0 0 0 0.06 0"/><feBlend in2="BackgroundImageFix" result="effect1_dropShadow_17_6199"/><feBlend in="SourceGraphic" in2="effect1_dropShadow_17_6199" result="shape"/></filter><filter id="Angola_svg__e" width="6.139" height="8.888" x="11.194" y="9.682" color-interpolation-filters="sRGB" filterUnits="userSpaceOnUse"><feFlood flood-opacity="0" result="BackgroundImageFix"/><feColorMatrix in="SourceAlpha" result="hardAlpha" values="0 0 0 0 0 0 0 0 0 0 0 0 0 0 0 0 0 0 127 0"/><feOffset dy="1"/><feColorMatrix values="0 0 0 0 0 0 0 0 0 0 0 0 0 0 0 0 0 0 0.06 0"/><feBlend in2="BackgroundImageFix" result="effect1_dropShadow_17_6199"/><feBlend in="SourceGraphic" in2="effect1_dropShadow_17_6199" result="shape"/></filter><linearGradient id="Angola_svg__b" x1="0" x2="0" y1="4" y2="24" gradientUnits="userSpaceOnUse"><stop stop-color="#FF323E"/><stop offset="1" stop-color="#FD0D1B"/></linearGradient></defs></svg>