<svg xmlns="http://www.w3.org/2000/svg" fill="none" viewBox="0 0 28 28" focusable="false"><path fill="none" d="M28 28H0V0h28z"/><rect width="28" height="20" y="4" fill="#FFF" rx="3"/><rect width="27.5" height="19.5" x=".25" y="4.25" stroke="#D6D8DD" stroke-width=".5" rx="3"/><mask id="Antarctica_svg__a" fill="#fff"><path fill-rule="evenodd" d="M28 7v7H0V7a3 3 0 0 1 3-3h22a3 3 0 0 1 3 3m-9.036 7L14 5.936 9.036 14z" clip-rule="evenodd"/></mask><path fill="#1B2F4C" fill-rule="evenodd" d="M28 7v7H0V7a3 3 0 0 1 3-3h22a3 3 0 0 1 3 3m-9.036 7L14 5.936 9.036 14z" clip-rule="evenodd" mask="url(#Antarctica_svg__a)"/><path fill="#1B2F4C" d="M13.99 22.06 18.96 14 14 16l-4.97-2z"/></svg>