<svg xmlns="http://www.w3.org/2000/svg" fill="none" viewBox="0 0 28 28" focusable="false"><path fill="none" d="M0 0H28V28H0z" transform="rotate(-180 14 14)"/><rect width="28" height="20" y="4" fill="#FFF" rx="3"/><rect width="27.5" height="19.5" x=".25" y="4.25" stroke="#D6D8DD" stroke-width=".5" rx="2.75"/><path fill="#1B2F4C" fill-rule="evenodd" d="M0 7L0 0L28 0L28 7C28 8.65685 26.6569 10 25 10L3 10C1.34315 10 0 8.65685 0 7ZM9.03589 0.000103951L14.0011 8.06377L18.964 0.000103951L9.03589 0.000103951Z" transform="rotate(-180 14 7)"/><path fill="none" d="M0 7L0 0L28 0L28 7C28 8.65685 26.6569 10 25 10L3 10C1.34315 10 0 8.65685 0 7ZM9.03589 0.000103951L14.0011 8.06377L18.964 0.000103951L9.03589 0.000103951ZM8.75651 0.5L0.5 0.5L0.5 7Q0.5 7.28724 0.56251 7.56016Q0.610761 7.77082 0.696257 7.97296C0.822739 8.27199 1.0014 8.53693 1.23223 8.76777Q1.41798 8.95352 1.63319 9.09423L1.63361 9.09451Q1.81936 9.2159 2.02704 9.30374Q2.2292 9.38925 2.43988 9.4375L2.44026 9.43759Q2.71299 9.5 3 9.5L25 9.5Q25.2872 9.5 25.5601 9.4375Q25.7708 9.38925 25.973 9.30374C26.272 9.17726 26.5369 8.9986 26.7678 8.76777C26.9986 8.53693 27.1773 8.272 27.3037 7.97296Q27.3892 7.77086 27.4375 7.56024L27.4377 7.55931Q27.5 7.28678 27.5 7L27.5 0.5L19.2435 0.5L14.0012 9.01754L8.75651 0.5Z" transform="rotate(-180 14 7)"/><path fill="#1B2F4C" d="M4.96298 0L9.92815 8.06366L4.96407 6.05844L0 8.06366L4.96298 0Z" transform="matrix(1 0 0 -1 9.036 22.064)"/></svg>