<svg xmlns="http://www.w3.org/2000/svg" fill="none" viewBox="0 0 28 28" focusable="false"><rect width="28" height="20" y="4" fill="#fff" rx="3"/><mask id="Antigua_and_Barbuda_svg__a" width="28" height="20" x="0" y="4" maskUnits="userSpaceOnUse" style="mask-type:luminance"><rect width="28" height="20" y="4" fill="#fff" rx="3"/></mask><g mask="url(#Antigua_and_Barbuda_svg__a)"><path fill="#E2243B" d="M0 4h28v20H0z"/><path fill="#262626" fill-rule="evenodd" d="M0 4h28L14 24 0 4Z" clip-rule="evenodd"/><mask id="Antigua_and_Barbuda_svg__b" width="28" height="20" x="0" y="4" maskUnits="userSpaceOnUse" style="mask-type:luminance"><path fill="#fff" fill-rule="evenodd" d="M0 4h28L14 24 0 4Z" clip-rule="evenodd"/></mask><g mask="url(#Antigua_and_Barbuda_svg__b)"><g filter="url(#Antigua_and_Barbuda_svg__c)"><path fill="#FFCF3C" fill-rule="evenodd" d="m14 15-2.296 2.543.175-3.422-3.422.175L11 12 8 9.333l3.879.667-.546-4L14 9.333 16.667 6l-.546 4L20 9.333 17 12l2.543 2.296-3.422-.175.175 3.422L14 15Z" clip-rule="evenodd"/></g><g filter="url(#Antigua_and_Barbuda_svg__d)"><path fill="#1984D8" fill-rule="evenodd" d="M0 17.333h28V12H0v5.333Z" clip-rule="evenodd"/></g><path fill="#fff" fill-rule="evenodd" d="M0 24h28v-6.667H0V24Z" clip-rule="evenodd"/></g></g><defs><filter id="Antigua_and_Barbuda_svg__c" width="12" height="11.543" x="8" y="6" color-interpolation-filters="sRGB" filterUnits="userSpaceOnUse"><feFlood flood-opacity="0" result="BackgroundImageFix"/><feColorMatrix in="SourceAlpha" result="hardAlpha" values="0 0 0 0 0 0 0 0 0 0 0 0 0 0 0 0 0 0 127 0"/><feOffset/><feColorMatrix values="0 0 0 0 0 0 0 0 0 0 0 0 0 0 0 0 0 0 0.06 0"/><feBlend in2="BackgroundImageFix" result="effect1_dropShadow_17_6209"/><feBlend in="SourceGraphic" in2="effect1_dropShadow_17_6209" result="shape"/></filter><filter id="Antigua_and_Barbuda_svg__d" width="28" height="5.333" x="0" y="12" color-interpolation-filters="sRGB" filterUnits="userSpaceOnUse"><feFlood flood-opacity="0" result="BackgroundImageFix"/><feColorMatrix in="SourceAlpha" result="hardAlpha" values="0 0 0 0 0 0 0 0 0 0 0 0 0 0 0 0 0 0 127 0"/><feOffset/><feColorMatrix values="0 0 0 0 0 0 0 0 0 0 0 0 0 0 0 0 0 0 0.06 0"/><feBlend in2="BackgroundImageFix" result="effect1_dropShadow_17_6209"/><feBlend in="SourceGraphic" in2="effect1_dropShadow_17_6209" result="shape"/></filter></defs></svg>