<svg xmlns="http://www.w3.org/2000/svg" fill="none" viewBox="0 0 28 28" focusable="false"><mask id="Antigua_and_Barbuda_svg__c" width="28" height="20" x="0" y="4" maskUnits="userSpaceOnUse"><g fill-rule="evenodd" filter="url(#Antigua_and_Barbuda_svg__a)"><path fill="#262626" d="M0 4L28 4L14 24L0 4Z"/><path stroke="#969696" stroke-opacity="0" stroke-width="0" d="M28 4L14 24L0 4L28 4Z"/></g></mask><defs><filter id="Antigua_and_Barbuda_svg__a"><feColorMatrix values="0 0 0 0 1 0 0 0 0 1 0 0 0 0 1 0 0 0 1 0"/></filter><filter id="Antigua_and_Barbuda_svg__d" width="12" height="11.543" x="8" y="6" color-interpolation-filters="sRGB" filterUnits="userSpaceOnUse"><feFlood flood-opacity="0" result="BackgroundImageFix"/><feOffset in="SourceAlpha"/><feColorMatrix values="0 0 0 0 0 0 0 0 0 0 0 0 0 0 0 0 0 0 0.06 0"/><feBlend in2="BackgroundImageFix" result="effect_dropShadow_1"/><feBlend in="SourceGraphic" in2="effect_dropShadow_1" result="shape"/></filter><filter id="Antigua_and_Barbuda_svg__e" width="28" height="5.333" x="0" y="12" color-interpolation-filters="sRGB" filterUnits="userSpaceOnUse"><feFlood flood-opacity="0" result="BackgroundImageFix"/><feOffset in="SourceAlpha"/><feColorMatrix values="0 0 0 0 0 0 0 0 0 0 0 0 0 0 0 0 0 0 0.06 0"/><feBlend in2="BackgroundImageFix" result="effect_dropShadow_1"/><feBlend in="SourceGraphic" in2="effect_dropShadow_1" result="shape"/></filter></defs><mask id="Antigua_and_Barbuda_svg__b" width="28" height="20" x="0" y="4" maskUnits="userSpaceOnUse"><g filter="url(#Antigua_and_Barbuda_svg__a)"><rect width="28" height="20" y="4" fill="#FFF" rx="3"/><rect width="28" height="20" y="4" stroke="#969696" stroke-opacity="0" stroke-width="0" rx="3"/></g></mask><path fill="none" d="M0 0H28V28H0z"/><rect width="28" height="20" y="4" fill="#FFF" rx="3"/><rect width="28" height="20" y="4" rx="3"/><g mask="url(#Antigua_and_Barbuda_svg__b)"><path fill="#E2243B" d="M0 4H28V24H0z"/><path d="M0 4H28V24H0z"/><path fill="#262626" fill-rule="evenodd" d="M0 4L28 4L14 24L0 4Z"/><path d="M28 4L14 24L0 4L28 4Z"/><g mask="url(#Antigua_and_Barbuda_svg__c)"><g filter="url(#Antigua_and_Barbuda_svg__d)"><path fill="#FFCF3C" fill-rule="evenodd" d="M14 15L11.7039 17.5433L11.8787 14.1213L8.45672 14.2961L11 12L8 9.33333L11.8787 10L11.3333 6L14 9.33333L16.6667 6L16.1213 10L20 9.33333L17 12L19.5433 14.2961L16.1213 14.1213L16.2961 17.5433L14 15Z"/><path d="M11.7039 17.5433L11.8787 14.1213L8.45672 14.2961L11 12L8 9.33333L11.8787 10L11.3333 6L14 9.33333L16.6667 6L16.1213 10L20 9.33333L17 12L19.5433 14.2961L16.1213 14.1213L16.2961 17.5433L14 15L11.7039 17.5433Z"/></g><g filter="url(#Antigua_and_Barbuda_svg__e)"><path fill="#1984D8" fill-rule="evenodd" d="M0 17.3333L28 17.3333L28 12L0 12L0 17.3333Z"/><path d="M28 17.3333L28 12L0 12L0 17.3333L28 17.3333Z"/></g><path fill="#FFF" fill-rule="evenodd" d="M0 24L28 24L28 17.3334L0 17.3334L0 24Z"/><path d="M28 24L28 17.3334L0 17.3334L0 24L28 24Z"/></g></g></svg>