<svg xmlns="http://www.w3.org/2000/svg" fill="none" viewBox="0 0 28 28" focusable="false"><defs><filter id="Antigua_and_Barbuda_svg__c" width="12" height="11.543" x="8" y="6" color-interpolation-filters="sRGB" filterUnits="userSpaceOnUse"><feFlood flood-opacity="0" result="BackgroundImageFix"/><feColorMatrix in="SourceAlpha" result="hardAlpha" values="0 0 0 0 0 0 0 0 0 0 0 0 0 0 0 0 0 0 127 0"/><feOffset/><feGaussianBlur/><feComposite in2="hardAlpha" k2="-1" k3="1" operator="out"/><feColorMatrix values="0 0 0 0 0 0 0 0 0 0 0 0 0 0 0 0 0 0 0.059 0"/><feBlend in2="BackgroundImageFix" result="effect_dropShadow_1"/><feBlend in="SourceGraphic" in2="effect_dropShadow_1" result="shape"/></filter><filter id="Antigua_and_Barbuda_svg__d" width="28" height="5.333" x="0" y="12" color-interpolation-filters="sRGB" filterUnits="userSpaceOnUse"><feFlood flood-opacity="0" result="BackgroundImageFix"/><feColorMatrix in="SourceAlpha" result="hardAlpha" values="0 0 0 0 0 0 0 0 0 0 0 0 0 0 0 0 0 0 127 0"/><feOffset/><feGaussianBlur/><feComposite in2="hardAlpha" k2="-1" k3="1" operator="out"/><feColorMatrix values="0 0 0 0 0 0 0 0 0 0 0 0 0 0 0 0 0 0 0.059 0"/><feBlend in2="BackgroundImageFix" result="effect_dropShadow_1"/><feBlend in="SourceGraphic" in2="effect_dropShadow_1" result="shape"/></filter></defs><path fill="none" d="M0 0h28v28H0z"/><rect width="28" height="20" y="4" fill="#fff" rx="3"/><rect width="28" height="20" y="4" rx="3"/><mask id="Antigua_and_Barbuda_svg__a" width="28" height="20" x="0" y="4" mask-type="alpha" maskUnits="userSpaceOnUse"><rect width="28" height="20" y="4" fill="#fff" rx="3"/><rect width="28" height="20" y="4" stroke="#979797" stroke-opacity="0" stroke-width="0" rx="3"/></mask><g mask="url(#Antigua_and_Barbuda_svg__a)"><path fill="#e2243b" d="M0 4h28v20H0z"/><path d="M0 4h28v20H0z"/></g><g mask="url(#Antigua_and_Barbuda_svg__a)"><path fill="#262626" fill-rule="evenodd" d="M0 4h28L14 24z"/><path d="M28 4 14 24 0 4z"/><mask id="Antigua_and_Barbuda_svg__b" width="28" height="20" x="0" y="4" mask-type="alpha" maskUnits="userSpaceOnUse"><path fill="#262626" fill-rule="evenodd" d="M0 4h28L14 24z"/><path stroke="#979797" stroke-opacity="0" stroke-width="0" d="M28 4 14 24 0 4z"/></mask><g mask="url(#Antigua_and_Barbuda_svg__b)"><g filter="url(#Antigua_and_Barbuda_svg__c)"><path fill="#ffcf3c" fill-rule="evenodd" d="m14 15-2.3 2.54.17-3.42-3.42.17L11 12 8 9.33l3.87.67-.54-4L14 9.33 16.66 6l-.54 4L20 9.33 17 12l2.54 2.29-3.42-.17.17 3.42z"/></g><path d="m11.7 17.54.17-3.42-3.42.17L11 12 8 9.33l3.87.67-.54-4L14 9.33 16.66 6l-.54 4L20 9.33 17 12l2.54 2.29-3.42-.17.17 3.42L14 15z"/></g><g mask="url(#Antigua_and_Barbuda_svg__b)"><g filter="url(#Antigua_and_Barbuda_svg__d)"><path fill="#1984d8" fill-rule="evenodd" d="M0 17.33h28V12H0z"/></g><path d="M28 17.33V12H0v5.33z"/></g><g mask="url(#Antigua_and_Barbuda_svg__b)"><path fill="#fff" fill-rule="evenodd" d="M0 24h28v-6.67H0z"/><path d="M28 24v-6.67H0V24z"/></g></g></svg>