<svg xmlns="http://www.w3.org/2000/svg" fill="none" viewBox="0 0 28 28" focusable="false"><defs><filter id="Aruba_svg__a"><feColorMatrix values="0 0 0 0 1 0 0 0 0 1 0 0 0 0 1 0 0 0 1 0"/></filter><filter id="Aruba_svg__c" width="30" height="22" x="-1" y="4" color-interpolation-filters="sRGB" filterUnits="userSpaceOnUse"><feFlood flood-opacity="0" result="BackgroundImageFix"/><feOffset dy="1" in="SourceAlpha"/><feGaussianBlur stdDeviation=".333"/><feColorMatrix values="0 0 0 0 0 0 0 0 0 0 0 0 0 0 0 0 0 0 0.16 0"/><feBlend in2="BackgroundImageFix" result="effect_dropShadow_1"/><feBlend in="SourceGraphic" in2="effect_dropShadow_1" result="shape"/></filter></defs><mask id="Aruba_svg__b" width="28" height="20" x="0" y="4" maskUnits="userSpaceOnUse"><g filter="url(#Aruba_svg__a)"><rect width="28" height="20" y="4" fill="#FFF" rx="3"/><rect width="28" height="20" y="4" stroke="#969696" stroke-opacity="0" stroke-width="0" rx="3"/></g></mask><path fill="none" d="M0 0H28V28H0z"/><rect width="28" height="20" y="4" fill="#FFF" rx="3"/><rect width="28" height="20" y="4" rx="3"/><g mask="url(#Aruba_svg__b)"><g filter="url(#Aruba_svg__c)"><path fill="#4189DD" d="M0 4H28V24H0z"/><path d="M0 4H28V24H0z"/></g><path fill="#D21034" fill-rule="evenodd" d="M2 2.96982L0.585786 3.41421L1.03018 2L0.585786 0.585786L2 1.03018L3.41421 0.585786L2.96982 2L3.41421 3.41421L2 2.96982Z" transform="rotate(135 2.287 6.024)"/><path fill="#FFF" fill-rule="evenodd" d="M0.331374 2L-0.0502189 3.21436L-0.433228 4.43323L2 3.66863L4.43323 4.43323L3.66863 2L4.43323 -0.433228L2 0.331374L-0.433228 -0.433228L0.331374 2ZM1.03018 2L0.585786 3.41421L1.36115 3.17057L2 2.96982L2.63885 3.17057L3.41421 3.41421L3.17057 2.63885L2.96982 2L3.17057 1.36115L3.41421 0.585786L2 1.03018L0.585786 0.585786L1.03018 2Z" transform="rotate(135 2.287 6.024)"/><path fill="#F9D616" d="M0 18.667H28V20H0z"/><path d="M0 18.667H28V20H0z"/><path fill="#F9D616" d="M0 16H28V17.333H0z"/><path d="M0 16H28V17.333H0z"/></g></svg>