<svg xmlns="http://www.w3.org/2000/svg" fill="none" viewBox="0 0 28 28" focusable="false"><rect width="28" height="20" y="4" fill="#fff" rx="3"/><mask id="Aruba_svg__a" width="28" height="20" x="0" y="4" maskUnits="userSpaceOnUse" style="mask-type:luminance"><rect width="28" height="20" y="4" fill="#fff" rx="3"/></mask><g mask="url(#Aruba_svg__a)"><g filter="url(#Aruba_svg__b)"><path fill="#4189dd" d="M0 4h28v20H0z"/></g><path fill="#d21034" stroke="#fff" stroke-width=".667" d="m5.63 6.512-.295-.566-.295.566-.638 1.222-1.221.637-.566.296.566.295 1.221.638.638 1.22.295.567.296-.566.637-1.221 1.221-.638.567-.295-.567-.296-1.221-.637z"/><path fill="#f9d616" d="M0 18.667h28V20H0zM0 16h28v1.333H0z"/></g><defs><filter id="Aruba_svg__b" width="30" height="22" x="-1" y="4" color-interpolation-filters="sRGB" filterUnits="userSpaceOnUse"><feFlood flood-opacity="0" result="BackgroundImageFix"/><feColorMatrix in="SourceAlpha" result="hardAlpha" values="0 0 0 0 0 0 0 0 0 0 0 0 0 0 0 0 0 0 127 0"/><feOffset dy="1"/><feGaussianBlur stdDeviation=".5"/><feColorMatrix values="0 0 0 0 0 0 0 0 0 0 0 0 0 0 0 0 0 0 0.16 0"/><feBlend in2="BackgroundImageFix" result="effect1_dropShadow_17_6291"/><feBlend in="SourceGraphic" in2="effect1_dropShadow_17_6291" result="shape"/></filter></defs></svg>