<svg xmlns="http://www.w3.org/2000/svg" fill="none" viewBox="0 0 28 28" focusable="false"><rect width="28" height="20" y="4" fill="#fff" rx="3"/><mask id="Australia_svg__a" width="28" height="20" x="0" y="4" maskUnits="userSpaceOnUse" style="mask-type:luminance"><rect width="28" height="20" y="4" fill="#fff" rx="3"/></mask><g mask="url(#Australia_svg__a)"><path fill="#0A17A7" d="M0 4h28v20H0z"/><path fill="#FF2E3B" stroke="#fff" stroke-width=".667" d="M0 3.667h-.901l.684.586 4.55 3.9v1.009l-4.527 3.233-.14.1v1.44l.51-.319 5.253-3.283h1.13l4.523 3.23a.554.554 0 0 0 .682-.87L7.667 9.18V8.172l4.387-3.134a.667.667 0 0 0 .28-.543V3.4l-.51.318L6.57 7h-1.13L.86 3.729l-.088-.062H0Z"/><path fill="url(#Australia_svg__b)" fill-rule="evenodd" d="M0 7.333V10h4.667v3.333c0 .368.298.667.666.667h1.334a.667.667 0 0 0 .666-.667V10H12a.667.667 0 0 0 .667-.667V8A.667.667 0 0 0 12 7.333H7.333V4H4.667v3.333H0" clip-rule="evenodd"/><path fill="url(#Australia_svg__c)" fill-rule="evenodd" d="M0 8h5.333V4h1.334v4H12v1.333H6.667v4H5.333v-4H0z" clip-rule="evenodd"/><path fill="#fff" fill-rule="evenodd" d="m6 20.333-1.176.618.225-1.309-.951-.927 1.314-.19L6 17.332l.588 1.191 1.314.191-.95.927.224 1.31L6 20.332M20 21.333l-.943.277.276-.943-.276-.943L20 20l.943-.276-.276.943.276.942-.943-.276M20 8.667l-.943.276.276-.943-.276-.943.943.276.943-.276-.276.943.276.943L20 8.667M24 12.667l-.943.276.276-.943-.276-.943.943.276.943-.276-.276.943.276.943-.943-.276M16 14l-.943.276.276-.943-.276-.943.943.277.943-.277-.276.943.276.943zM22 15.667l-.471.138.138-.472-.138-.471L22 15l.471-.138-.138.471.138.472-.471-.138" clip-rule="evenodd"/></g><defs><linearGradient id="Australia_svg__b" x1="0" x2="0" y1="4" y2="14" gradientUnits="userSpaceOnUse"><stop stop-color="#fff"/><stop offset="1" stop-color="#F0F0F0"/></linearGradient><linearGradient id="Australia_svg__c" x1="0" x2="0" y1="4" y2="13.333" gradientUnits="userSpaceOnUse"><stop stop-color="#FF2E3B"/><stop offset="1" stop-color="#FC0D1B"/></linearGradient></defs></svg>