<svg xmlns="http://www.w3.org/2000/svg" fill="none" viewBox="0 0 28 28" focusable="false"><rect width="28" height="20" y="4" fill="#fff" rx="3"/><mask id="Azerbaijan_svg__a" width="28" height="20" x="0" y="4" maskUnits="userSpaceOnUse" style="mask-type:luminance"><rect width="28" height="20" y="4" fill="#fff" rx="3"/></mask><g mask="url(#Azerbaijan_svg__a)"><path fill="#24aad5" fill-rule="evenodd" d="M0 10.667h28V4H0z" clip-rule="evenodd"/><path fill="#21bf75" fill-rule="evenodd" d="M0 24h28v-6.667H0z" clip-rule="evenodd"/><path fill="#ed1845" fill-rule="evenodd" d="M0 17.333h28v-6.666H0z" clip-rule="evenodd"/><g filter="url(#Azerbaijan_svg__b)"><path fill="#fff" fill-rule="evenodd" d="M14 16a2 2 0 0 0 1.111-.337l-.111.004a1.667 1.667 0 1 1 .111-3.33A2 2 0 1 0 14 16m2-2a.667.667 0 1 1-1.333 0A.667.667 0 0 1 16 14" clip-rule="evenodd"/></g></g><defs><filter id="Azerbaijan_svg__b" width="4" height="5" x="12" y="12" color-interpolation-filters="sRGB" filterUnits="userSpaceOnUse"><feFlood flood-opacity="0" result="BackgroundImageFix"/><feColorMatrix in="SourceAlpha" result="hardAlpha" values="0 0 0 0 0 0 0 0 0 0 0 0 0 0 0 0 0 0 127 0"/><feOffset dy="1"/><feColorMatrix values="0 0 0 0 0 0 0 0 0 0 0 0 0 0 0 0 0 0 0.06 0"/><feBlend in2="BackgroundImageFix" result="effect1_dropShadow_17_6249"/><feBlend in="SourceGraphic" in2="effect1_dropShadow_17_6249" result="shape"/></filter></defs></svg>