<svg xmlns="http://www.w3.org/2000/svg" fill="none" viewBox="0 0 28 28" focusable="false"><defs><linearGradient id="Barbados_svg__b" x1="0" x2="0" y1="4" y2="24" gradientUnits="userSpaceOnUse"><stop stop-color="#1132C7"/><stop offset="1" stop-color="#0522A5"/></linearGradient></defs><path fill="none" d="M0 0h28v28H0z"/><rect width="28" height="20" y="4" fill="#FFF" rx="3"/><rect width="28" height="20" y="4" rx="3"/><mask id="Barbados_svg__a" width="28" height="20" x="0" y="4" mask-type="alpha" maskUnits="userSpaceOnUse"><rect width="28" height="20" y="4" fill="#FFF" rx="3"/><rect width="28" height="20" y="4" stroke="#979797" stroke-opacity="0" stroke-width="0" rx="3"/></mask><g mask="url(#Barbados_svg__a)"><path fill="url(#Barbados_svg__b)" d="M0 4h28v20H0z"/><path d="M0 4h28v20H0z"/></g><g mask="url(#Barbados_svg__a)"><path fill="#08379D" d="M13.333 4H28v20H13.333z"/><path d="M13.333 4H28v20H13.333z"/></g><g mask="url(#Barbados_svg__a)"><path fill="#08379D" fill-rule="evenodd" d="M0 24h9.33V4H0z"/><path d="M9.33 24V4H0v20z"/></g><g mask="url(#Barbados_svg__a)"><path fill="#FFCC50" fill-rule="evenodd" d="M9.33 24h9.33V4H9.33z"/><path d="M18.66 24V4H9.33v20z"/></g><g mask="url(#Barbados_svg__a)"><path fill="#262626" fill-rule="evenodd" d="M13.74 10.41c.13-.2.43-.2.56 0l.69 1.07c.15.22-.01.52-.28.52h-.01c-.2 0-.35.17-.33.36l.26 2.67c.02.17.16.3.33.3h.23c.09 0 .17-.04.24-.1l.47-.46c.06-.07.1-.15.1-.24v-1.06a.35.35 0 0 0-.1-.24l-.19-.19a.328.328 0 0 1 .13-.55l.95-.32c.24-.08.48.13.44.38l-.5 2.67a.31.31 0 0 1-.09.18l-1.21 1.17c-.07.06-.15.09-.24.09H15c-.19 0-.34.15-.34.34v.66c0 .19-.15.34-.33.34h-.67c-.18 0-.33-.15-.33-.34V17c0-.19-.15-.34-.33-.34h-.2c-.09 0-.17-.03-.24-.1L11.4 15.4a.315.315 0 0 1-.09-.17l-.54-2.67c-.05-.25.19-.46.44-.38l.94.31c.24.08.31.38.13.55l-.19.19a.34.34 0 0 0-.09.24v1.06c0 .09.03.17.09.24l.47.46c.07.06.15.1.24.1h.23c.17 0 .31-.13.33-.3l.27-2.67a.342.342 0 0 0-.34-.36c-.26 0-.42-.3-.27-.53z"/><path d="M14.99 11.48c.15.22-.01.52-.28.52h-.01c-.2 0-.35.17-.33.36l.26 2.67c.02.17.16.3.33.3h.23c.09 0 .17-.04.24-.1l.47-.46c.06-.07.1-.15.1-.24v-1.06a.35.35 0 0 0-.1-.24l-.19-.19a.328.328 0 0 1 .13-.55l.95-.32c.24-.08.48.13.44.38l-.5 2.67a.31.31 0 0 1-.09.18l-1.21 1.17c-.07.06-.15.09-.24.09H15c-.19 0-.34.15-.34.34v.66c0 .19-.15.34-.33.34h-.67c-.18 0-.33-.15-.33-.34V17c0-.19-.15-.34-.33-.34h-.2c-.09 0-.17-.03-.24-.1L11.4 15.4a.315.315 0 0 1-.09-.17l-.54-2.67c-.05-.25.19-.46.44-.38l.94.31c.24.08.31.38.13.55l-.19.19a.34.34 0 0 0-.09.24v1.06c0 .09.03.17.09.24l.47.46c.07.06.15.1.24.1h.23c.17 0 .31-.13.33-.3l.27-2.67a.342.342 0 0 0-.34-.36c-.27 0-.42-.3-.27-.53l.72-1.06c.13-.2.43-.2.56 0z"/></g></svg>