<svg xmlns="http://www.w3.org/2000/svg" fill="none" viewBox="0 0 28 28" focusable="false"><rect width="28" height="20" y="4" fill="#fff" rx="3"/><mask id="Barbados_svg__a" width="28" height="20" x="0" y="4" maskUnits="userSpaceOnUse" style="mask-type:luminance"><rect width="28" height="20" y="4" fill="#fff" rx="3"/></mask><g mask="url(#Barbados_svg__a)"><path fill="url(#Barbados_svg__b)" d="M0 4h28v20H0z"/><path fill="#08379d" d="M13.333 4H28v20H13.333z"/><path fill="#08379d" fill-rule="evenodd" d="M0 24h9.333V4H0z" clip-rule="evenodd"/><path fill="#ffcc50" fill-rule="evenodd" d="M9.333 24h9.334V4H9.333z" clip-rule="evenodd"/><path fill="#262626" fill-rule="evenodd" d="M13.746 10.414a.333.333 0 0 1 .554.005l.696 1.065a.333.333 0 0 1-.279.516h-.015a.333.333 0 0 0-.332.367l.267 2.666c.017.17.16.3.331.3h.228a.33.33 0 0 0 .235-.096l.47-.465a.33.33 0 0 0 .099-.237V13.47a.33.33 0 0 0-.098-.235l-.187-.188a.333.333 0 0 1 .13-.552l.953-.318c.24-.08.48.127.433.377l-.491 2.673a.33.33 0 0 1-.097.18l-1.213 1.166a.33.33 0 0 1-.23.093H15a.333.333 0 0 0-.333.333v.667c0 .184-.15.333-.334.333h-.666a.333.333 0 0 1-.334-.333V17a.333.333 0 0 0-.333-.333h-.195a.33.33 0 0 1-.236-.098l-1.164-1.164a.33.33 0 0 1-.091-.17l-.535-2.672a.333.333 0 0 1 .433-.381l.943.314a.333.333 0 0 1 .13.552l-.187.188a.33.33 0 0 0-.098.235v1.064c0 .089.036.174.099.237l.47.465a.33.33 0 0 0 .235.096h.228c.17 0 .314-.13.331-.3l.267-2.666a.334.334 0 0 0-.332-.367.334.334 0 0 1-.277-.52z" clip-rule="evenodd"/></g><defs><linearGradient id="Barbados_svg__b" x1="0" x2="0" y1="4" y2="24" gradientUnits="userSpaceOnUse"><stop stop-color="#1132c7"/><stop offset="1" stop-color="#0522a5"/></linearGradient></defs></svg>