<svg xmlns="http://www.w3.org/2000/svg" fill="none" viewBox="0 0 28 28" focusable="false"><rect width="28" height="20" y="4" fill="#fff" rx="3"/><mask id="Belarus_svg__a" width="28" height="20" x="0" y="4" maskUnits="userSpaceOnUse" style="mask-type:luminance"><rect width="28" height="20" y="4" fill="#fff" rx="3"/></mask><g fill-rule="evenodd" clip-rule="evenodd" mask="url(#Belarus_svg__a)"><path fill="#e54252" d="M0 17.333h28V4H0z"/><path fill="#5cbe6b" d="M0 24h28v-6.667H0z"/><path fill="#fff" d="M0 4h4v3l-.667 1L4 9v2l-.667 1L4 13v2l-.667 1L4 17v2l-.667 1L4 21v3H0z"/><path fill="#e54252" d="M-.667 6-2 8l1.333 2L-2 12l1.333 2L-2 16l1.333 2L-2 20l1.333 2 1.334-2-1.334-2 1.334-2-1.334-2 1.334-2-1.334-2L.667 8zM.667 6 2 4l1.333 2L2 8zM2 12 .667 10 2 8l1.333 2zm0 4L.667 14 2 12l1.333 2zm0 4 1.333-2L2 16 .667 18zm0 0 1.333 2L2 24 .667 22z"/></g></svg>