<svg xmlns="http://www.w3.org/2000/svg" fill="none" viewBox="0 0 30 28" focusable="false"><path fill="none" d="M2 0h28v28H2z"/><rect width="28" height="20" x="2" y="4" fill="#fff" rx="3"/><rect width="28" height="20" x="2" y="4" rx="3"/><mask id="Belarus_svg__a" width="28" height="20" x="2" y="4" mask-type="alpha" maskUnits="userSpaceOnUse"><rect width="28" height="20" x="2" y="4" fill="#fff" rx="3"/><rect width="28" height="20" x="2" y="4" stroke="#979797" stroke-opacity="0" stroke-width="0" rx="3"/></mask><g mask="url(#Belarus_svg__a)"><path fill="#e54252" fill-rule="evenodd" d="M2 17.33h28V4H2z"/><path d="M30 17.33V4H2v13.33z"/></g><g mask="url(#Belarus_svg__a)"><path fill="#5cbe6b" fill-rule="evenodd" d="M2 24h28v-6.67H2z"/><path d="M30 24v-6.67H2V24z"/></g><g fill="#fff" mask="url(#Belarus_svg__a)"><mask id="Belarus_svg__b"><path fill-rule="evenodd" d="M2 4h4v3l-.667 1L6 9v2l-.667 1L6 13v2l-.667 1L6 17v2l-.667 1L6 21v3H2z" clip-rule="evenodd"/></mask><path fill-rule="evenodd" d="M2 4h4v3l-.667 1L6 9v2l-.667 1L6 13v2l-.667 1L6 17v2l-.667 1L6 21v3H2z" clip-rule="evenodd" mask="url(#Belarus_svg__b)"/></g><g mask="url(#Belarus_svg__a)"><mask id="Belarus_svg__c" fill="#fff"><path fill-rule="evenodd" d="M1.333 6 0 8l1.333 2L0 12l1.333 2L0 16l1.333 2L0 20l1.333 2 1.334-2-1.334-2 1.334-2-1.334-2 1.334-2-1.334-2 1.334-2z" clip-rule="evenodd"/></mask><path fill="#e54252" fill-rule="evenodd" d="M1.333 6 0 8l1.333 2L0 12l1.333 2L0 16l1.333 2L0 20l1.333 2 1.334-2-1.334-2 1.334-2-1.334-2 1.334-2-1.334-2 1.334-2z" clip-rule="evenodd" mask="url(#Belarus_svg__c)"/></g><g mask="url(#Belarus_svg__a)"><mask id="Belarus_svg__d" fill="#fff"><path fill-rule="evenodd" d="M2.667 6 4 4l1.333 2L4 8zM4 12l-1.333-2L4 8l1.333 2zm0 4-1.333-2L4 12l1.333 2zm0 4 1.333-2L4 16l-1.333 2zm0 0 1.333 2L4 24l-1.333-2z" clip-rule="evenodd"/></mask><path fill="#e54252" fill-rule="evenodd" d="M2.667 6 4 4l1.333 2L4 8zM4 12l-1.333-2L4 8l1.333 2zm0 4-1.333-2L4 12l1.333 2zm0 4 1.333-2L4 16l-1.333 2zm0 0 1.333 2L4 24l-1.333-2z" clip-rule="evenodd" mask="url(#Belarus_svg__d)"/></g></svg>