<svg xmlns="http://www.w3.org/2000/svg" width="28" height="28" fill="none"><rect width="28" height="20" y="4" fill="#fff" rx="3"/><mask id="a" width="28" height="20" x="0" y="4" maskUnits="userSpaceOnUse" style="mask-type:luminance"><rect width="28" height="20" y="4" fill="#fff" rx="3"/></mask><g fill-rule="evenodd" clip-rule="evenodd" mask="url(#a)"><path fill="#E54252" d="M0 17.333h28V4H0v13.333Z"/><path fill="#5CBE6B" d="M0 24h28v-6.667H0V24Z"/><path fill="#fff" d="M0 4h4v3l-.667 1L4 9v2l-.667 1L4 13v2l-.667 1L4 17v2l-.667 1L4 21v3H0V4Z"/><path fill="#E54252" d="M-.667 6-2 8l1.333 2L-2 12l1.333 2L-2 16l1.333 2L-2 20l1.333 2 1.334-2-1.334-2 1.334-2-1.334-2 1.334-2-1.334-2L.667 8-.667 6ZM.667 6 2 4l1.333 2L2 8 .667 6ZM2 12 .667 10 2 8l1.333 2L2 12Zm0 4L.667 14 2 12l1.333 2L2 16Zm0 4 1.333-2L2 16 .667 18 2 20Zm0 0 1.333 2L2 24 .667 22 2 20Z"/></g></svg>