<svg xmlns="http://www.w3.org/2000/svg" fill="none" viewBox="0 0 28 28" focusable="false"><defs><filter id="Belarus_svg__a"><feColorMatrix values="0 0 0 0 1 0 0 0 0 1 0 0 0 0 1 0 0 0 1 0"/></filter></defs><mask id="Belarus_svg__b" width="28" height="20" x="0" y="4" maskUnits="userSpaceOnUse"><g filter="url(#Belarus_svg__a)"><rect width="28" height="20" y="4" fill="#FFF" rx="3"/><rect width="28" height="20" y="4" stroke="#969696" stroke-opacity="0" stroke-width="0" rx="3"/></g></mask><path fill="none" d="M0 0H28V28H0z"/><rect width="28" height="20" y="4" fill="#FFF" rx="3"/><rect width="28" height="20" y="4" rx="3"/><g mask="url(#Belarus_svg__b)"><path fill="#E54252" fill-rule="evenodd" d="M0 17.3333L28 17.3333L28 4L0 4L0 17.3333Z"/><path d="M28 17.3333L28 4L0 4L0 17.3333L28 17.3333Z"/><path fill="#5CBE6B" fill-rule="evenodd" d="M0 24L28 24L28 17.3333L0 17.3333L0 24Z"/><path d="M28 24L28 17.3333L0 17.3333L0 24L28 24Z"/><path fill="#FFF" fill-rule="evenodd" d="M4 4L4 7L3.33333 8L4 9L4 11L3.33333 12L4 13L4 15L3.33333 16L4 17L4 19L3.33333 20L4 21L4 24L0 24L0 4L4 4Z"/><path d="M4 4L4 7L3.33333 8L4 9L4 11L3.33333 12L4 13L4 15L3.33333 16L4 17L4 19L3.33333 20L4 21L4 24L0 24L0 4L4 4Z"/><path fill="#E54252" fill-rule="evenodd" d="M-2 8L-0.666667 6L0.666667 8L-0.666667 10L-2 8ZM-0.666667 14L0.666667 12L-0.666667 10L-2 12L-0.666667 14ZM-0.666667 18L-2 16L-0.666667 14L0.666667 16L-0.666667 18ZM-0.666667 18L0.666667 20L-0.666667 22L-2 20L-0.666667 18Z"/><path d="M-2 8L-0.666667 6L0.666667 8L-0.666667 10L-2 8ZM-0.666667 14L0.666667 12L-0.666667 10L-2 12L-0.666667 14ZM-0.666667 18L-2 16L-0.666667 14L0.666667 16L-0.666667 18ZM-0.666667 18L0.666667 20L-0.666667 22L-2 20L-0.666667 18Z"/><path fill="#E54252" fill-rule="evenodd" d="M2.00002 4L0.666687 6L2.00002 8L0.666687 10L2.00002 12L0.666687 14L2.00002 16L0.666687 18L2.00002 20L0.666687 22L2.00002 24L3.33335 22L2.00002 20L3.33335 18L2.00002 16L3.33335 14L2.00002 12L3.33335 10L2.00002 8L3.33335 6L2.00002 4Z"/><path d="M2.00002 4L0.666687 6L2.00002 8L0.666687 10L2.00002 12L0.666687 14L2.00002 16L0.666687 18L2.00002 20L0.666687 22L2.00002 24L3.33335 22L2.00002 20L3.33335 18L2.00002 16L3.33335 14L2.00002 12L3.33335 10L2.00002 8L3.33335 6L2.00002 4Z"/></g></svg>