<svg xmlns="http://www.w3.org/2000/svg" fill="none" viewBox="0 0 28 28" focusable="false"><defs><filter id="Belize_svg__a"><feColorMatrix values="0 0 0 0 1 0 0 0 0 1 0 0 0 0 1 0 0 0 1 0"/></filter></defs><mask id="Belize_svg__b" width="28" height="20" x="0" y="4" maskUnits="userSpaceOnUse"><g filter="url(#Belize_svg__a)"><rect width="28" height="20" y="4" fill="#FFF" rx="3"/><rect width="28" height="20" y="4" stroke="#969696" stroke-opacity="0" stroke-width="0" rx="3"/></g></mask><path fill="none" d="M0 0H28V28H0z"/><rect width="28" height="20" y="4" fill="#FFF" rx="3"/><rect width="28" height="20" y="4" rx="3"/><g mask="url(#Belize_svg__b)"><path fill="#094995" fill-rule="evenodd" d="M0 21.3334L28 21.3334L28 6.66669L0 6.66669L0 21.3334Z"/><path d="M28 21.3334L28 6.66669L0 6.66669L0 21.3334L28 21.3334Z"/><path fill="#D5182F" fill-rule="evenodd" d="M0 6.66667L28 6.66667L28 4L0 4L0 6.66667Z"/><path d="M28 6.66667L28 4L0 4L0 6.66667L28 6.66667Z"/><path fill="#D5182F" fill-rule="evenodd" d="M0 24L28 24L28 21.3333L0 21.3333L0 24Z"/><path d="M28 24L28 21.3333L0 21.3333L0 24L28 24Z"/><path fill="#FFF" fill-rule="evenodd" d="M14 20C17.3137 20 20 17.3137 20 14C20 10.6863 17.3137 8 14 8C10.6863 8 8 10.6863 8 14C8 17.3137 10.6863 20 14 20Z"/><path d="M20 14C20 10.6863 17.3137 8 14 8C10.6863 8 8 10.6863 8 14C8 17.3137 10.6863 20 14 20C17.3137 20 20 17.3137 20 14Z"/><path fill="none" d="M14 18C16.2091 18 18 16.2091 18 14C18 11.7909 16.2091 10 14 10C11.7909 10 10 11.7909 10 14C10 16.2091 11.7909 18 14 18Z"/><path stroke="#118014" stroke-dasharray="0.666667 2" stroke-width="1.333" d="M18 14C18 11.7909 16.2091 10 14 10C11.7909 10 10 11.7909 10 14C10 16.2091 11.7909 18 14 18C16.2091 18 18 16.2091 18 14Z"/></g></svg>