<svg xmlns="http://www.w3.org/2000/svg" fill="none" viewBox="0 0 28 28" focusable="false"><path fill="none" d="M0 0h28v28H0z"/><rect width="28" height="20" y="4" fill="#fff" rx="3"/><rect width="28" height="20" y="4" rx="3"/><mask id="Belize_svg__a" width="28" height="20" x="0" y="4" mask-type="alpha" maskUnits="userSpaceOnUse"><rect width="28" height="20" y="4" fill="#fff" rx="3"/><rect width="28" height="20" y="4" stroke="#979797" stroke-opacity="0" stroke-width="0" rx="3"/></mask><g mask="url(#Belize_svg__a)"><path fill="#094995" fill-rule="evenodd" d="M0 21.33h28V6.66H0z"/><path d="M28 21.33V6.66H0v14.67z"/></g><g mask="url(#Belize_svg__a)"><path fill="#d5182f" fill-rule="evenodd" d="M0 6.66h28V4H0z"/><path d="M28 6.66V4H0v2.66z"/></g><g mask="url(#Belize_svg__a)"><path fill="#d5182f" fill-rule="evenodd" d="M0 24h28v-2.67H0z"/><path d="M28 24v-2.67H0V24z"/></g><g mask="url(#Belize_svg__a)"><path fill="#fff" fill-rule="evenodd" d="M14 20c3.31 0 6-2.69 6-6 0-3.32-2.69-6-6-6-3.32 0-6 2.68-6 6 0 3.31 2.68 6 6 6"/><path d="M20 14c0-3.32-2.69-6-6-6-3.32 0-6 2.68-6 6 0 3.31 2.68 6 6 6 3.31 0 6-2.69 6-6"/></g><g mask="url(#Belize_svg__a)"><path stroke="#118014" stroke-dasharray="0.666667 2" stroke-width="1.333" d="M18 14a3.999 3.999 0 1 0-8.002-.002A3.999 3.999 0 0 0 18 14Z"/></g></svg>