<svg xmlns="http://www.w3.org/2000/svg" fill="none" viewBox="0 0 28 28" focusable="false"><path fill="none" d="M28 28H0V0h28z"/><rect width="28" height="20" y="4" fill="#FFF" rx="3"/><rect width="27.5" height="19.5" x=".25" y="4.25" stroke="#D6D8DD" stroke-width=".5" rx="3"/><mask id="Bonaire_svg__a" fill="#fff"><path fill-rule="evenodd" d="M27.065 4.824 1.076 23.302C1.597 23.738 2.268 24 3 24h22a3 3 0 0 0 3-3V7c0-.857-.359-1.63-.935-2.176" clip-rule="evenodd"/></mask><path fill="#003087" fill-rule="evenodd" d="M27.065 4.824 1.076 23.302C1.597 23.738 2.268 24 3 24h22a3 3 0 0 0 3-3V7c0-.857-.359-1.63-.935-2.176" clip-rule="evenodd" mask="url(#Bonaire_svg__a)"/><mask id="Bonaire_svg__b" fill="#fff"><path fill-rule="evenodd" d="M11.459 4H3a3 3 0 0 0-3 3v5.147z" clip-rule="evenodd"/></mask><path fill="gold" fill-rule="evenodd" d="M11.459 4H3a3 3 0 0 0-3 3v5.147z" clip-rule="evenodd" mask="url(#Bonaire_svg__b)"/><circle cx="7.651" cy="12.644" r="3.808" fill="none"/><circle cx="7.651" cy="12.644" r="3.458" stroke="#000" stroke-width=".7"/><path fill="#D50032" fill-rule="evenodd" d="m8.312 11.516-.662-1.15-.66 1.15H5.691l.649 1.128-.649 1.128H6.99l.661 1.15.662-1.15h1.297l-.649-1.128.649-1.128z" clip-rule="evenodd"/></svg>