<svg xmlns="http://www.w3.org/2000/svg" width="28" height="28" fill="none"><rect width="28" height="20" y="4" fill="#fff" rx="3"/><mask id="a" width="28" height="20" x="0" y="4" maskUnits="userSpaceOnUse" style="mask-type:luminance"><rect width="28" height="20" y="4" fill="#fff" rx="3"/></mask><g mask="url(#a)"><path fill="#0B36B2" d="M0 4h28v20H0z"/><g filter="url(#b)"><path fill="#FFD045" fill-rule="evenodd" d="M22.667 24V4h-14l14 20Z" clip-rule="evenodd"/></g><path fill="#fff" fill-rule="evenodd" d="m17.333 22.667-.942.276.276-.943-.277-.943.943.276.943-.276L18 22l.276.943-.943-.276ZM14.667 18.667l-.943.276L14 18l-.276-.943.943.276.943-.276-.277.943.277.943-.943-.276ZM12 14.667l-.943.276.276-.943-.276-.943.943.276.943-.276-.276.943.276.943-.943-.276ZM9.333 10.667l-.942.276.276-.943-.276-.943.942.276.943-.276L10 10l.276.943-.943-.276ZM6.667 6.667l-.943.276L6 6l-.276-.943.943.276.942-.276L7.333 6l.276.943-.942-.276Z" clip-rule="evenodd"/></g><defs><filter id="b" width="14" height="20" x="8.667" y="4" color-interpolation-filters="sRGB" filterUnits="userSpaceOnUse"><feFlood flood-opacity="0" result="BackgroundImageFix"/><feColorMatrix in="SourceAlpha" result="hardAlpha" values="0 0 0 0 0 0 0 0 0 0 0 0 0 0 0 0 0 0 127 0"/><feOffset/><feColorMatrix values="0 0 0 0 0 0 0 0 0 0 0 0 0 0 0 0 0 0 0.06 0"/><feBlend in2="BackgroundImageFix" result="effect1_dropShadow_17_6044"/><feBlend in="SourceGraphic" in2="effect1_dropShadow_17_6044" result="shape"/></filter></defs></svg>