<svg xmlns="http://www.w3.org/2000/svg" fill="none" viewBox="0 0 28 28" focusable="false"><defs><filter id="Bosnia_and_Herzegovina_svg__a"><feColorMatrix values="0 0 0 0 1 0 0 0 0 1 0 0 0 0 1 0 0 0 1 0"/></filter><filter id="Bosnia_and_Herzegovina_svg__c" width="14" height="20" x="8.667" y="4" color-interpolation-filters="sRGB" filterUnits="userSpaceOnUse"><feFlood flood-opacity="0" result="BackgroundImageFix"/><feOffset in="SourceAlpha"/><feColorMatrix values="0 0 0 0 0 0 0 0 0 0 0 0 0 0 0 0 0 0 0.06 0"/><feBlend in2="BackgroundImageFix" result="effect_dropShadow_1"/><feBlend in="SourceGraphic" in2="effect_dropShadow_1" result="shape"/></filter></defs><mask id="Bosnia_and_Herzegovina_svg__b" width="28" height="20" x="0" y="4" maskUnits="userSpaceOnUse"><g filter="url(#Bosnia_and_Herzegovina_svg__a)"><rect width="28" height="20" y="4" fill="#FFF" rx="3"/><rect width="28" height="20" y="4" stroke="#969696" stroke-opacity="0" stroke-width="0" rx="3"/></g></mask><path fill="none" d="M0 0H28V28H0z"/><rect width="28" height="20" y="4" fill="#FFF" rx="3"/><rect width="28" height="20" y="4" rx="3"/><g mask="url(#Bosnia_and_Herzegovina_svg__b)"><path fill="#0B36B2" d="M0 4H28V24H0z"/><path d="M0 4H28V24H0z"/><g filter="url(#Bosnia_and_Herzegovina_svg__c)"><path fill="#FFD045" fill-rule="evenodd" d="M22.6666 24L22.6666 4L8.66663 4L22.6666 24Z"/><path d="M22.6666 4L8.66663 4L22.6666 24L22.6666 4Z"/></g><path fill="#FFF" fill-rule="evenodd" d="M17.3333 22.6667L16.3905 22.9428L16.6667 22L16.3905 21.0572L17.3333 21.3334L18.2761 21.0572L18 22L18.2761 22.9428L17.3333 22.6667Z"/><path d="M16.3905 22.9428L16.6667 22L16.3905 21.0572L17.3333 21.3334L18.2761 21.0572L18 22L18.2761 22.9428L17.3333 22.6667L16.3905 22.9428Z"/><path fill="#FFF" fill-rule="evenodd" d="M14.6667 18.6667L13.7239 18.9428L14 18L13.7239 17.0572L14.6667 17.3334L15.6095 17.0572L15.3334 18L15.6095 18.9428L14.6667 18.6667Z"/><path d="M13.7239 18.9428L14 18L13.7239 17.0572L14.6667 17.3334L15.6095 17.0572L15.3334 18L15.6095 18.9428L14.6667 18.6667L13.7239 18.9428Z"/><path fill="#FFF" fill-rule="evenodd" d="M12 14.6667L11.0571 14.9428L11.3333 14L11.0571 13.0572L12 13.3334L12.9428 13.0572L12.6666 14L12.9428 14.9428L12 14.6667Z"/><path d="M11.0571 14.9428L11.3333 14L11.0571 13.0572L12 13.3334L12.9428 13.0572L12.6666 14L12.9428 14.9428L12 14.6667L11.0571 14.9428Z"/><path fill="#FFF" fill-rule="evenodd" d="M9.33333 10.6667L8.39052 10.9428L8.66667 10L8.39052 9.05721L9.33333 9.33335L10.2761 9.05721L10 10L10.2761 10.9428L9.33333 10.6667Z"/><path d="M8.39052 10.9428L8.66667 10L8.39052 9.05721L9.33333 9.33335L10.2761 9.05721L10 10L10.2761 10.9428L9.33333 10.6667L8.39052 10.9428Z"/><path fill="#FFF" fill-rule="evenodd" d="M6.66671 6.66669L5.7239 6.94283L6.00004 6.00002L5.7239 5.05721L6.66671 5.33335L7.60952 5.05721L7.33337 6.00002L7.60952 6.94283L6.66671 6.66669Z"/><path d="M5.7239 6.94283L6.00004 6.00002L5.7239 5.05721L6.66671 5.33335L7.60952 5.05721L7.33337 6.00002L7.60952 6.94283L6.66671 6.66669L5.7239 6.94283Z"/></g></svg>