<svg xmlns="http://www.w3.org/2000/svg" fill="none" viewBox="0 0 28 28" focusable="false"><defs><filter id="Bosnia_and_Herzegovina_svg__b" width="14" height="20" x="8.667" y="4" color-interpolation-filters="sRGB" filterUnits="userSpaceOnUse"><feFlood flood-opacity="0" result="BackgroundImageFix"/><feColorMatrix in="SourceAlpha" result="hardAlpha" values="0 0 0 0 0 0 0 0 0 0 0 0 0 0 0 0 0 0 127 0"/><feOffset/><feGaussianBlur/><feComposite in2="hardAlpha" k2="-1" k3="1" operator="out"/><feColorMatrix values="0 0 0 0 0 0 0 0 0 0 0 0 0 0 0 0 0 0 0.059 0"/><feBlend in2="BackgroundImageFix" result="effect_dropShadow_1"/><feBlend in="SourceGraphic" in2="effect_dropShadow_1" result="shape"/></filter></defs><path fill="none" d="M0 0h28v28H0z"/><rect width="28" height="20" y="4" fill="#fff" rx="3"/><rect width="28" height="20" y="4" rx="3"/><mask id="Bosnia_and_Herzegovina_svg__a" width="28" height="20" x="0" y="4" mask-type="alpha" maskUnits="userSpaceOnUse"><rect width="28" height="20" y="4" fill="#fff" rx="3"/><rect width="28" height="20" y="4" stroke="#979797" stroke-opacity="0" stroke-width="0" rx="3"/></mask><g mask="url(#Bosnia_and_Herzegovina_svg__a)"><path fill="#0b36b2" d="M0 4h28v20H0z"/><path d="M0 4h28v20H0z"/></g><g mask="url(#Bosnia_and_Herzegovina_svg__a)"><g filter="url(#Bosnia_and_Herzegovina_svg__b)"><path fill="#ffd045" fill-rule="evenodd" d="M22.66 24V4h-14z"/></g><path d="M22.66 4h-14l14 20z"/></g><g mask="url(#Bosnia_and_Herzegovina_svg__a)"><path fill="#fff" fill-rule="evenodd" d="m17.33 22.66-.94.28.27-.94-.27-.95.94.28.94-.28L18 22l.27.94z"/><path d="m16.39 22.94.27-.94-.27-.95.94.28.94-.28L18 22l.27.94-.94-.28z"/></g><g mask="url(#Bosnia_and_Herzegovina_svg__a)"><path fill="#fff" fill-rule="evenodd" d="m14.66 18.66-.94.28L14 18l-.28-.95.94.28.94-.28-.27.95.27.94z"/><path d="M13.72 18.94 14 18l-.28-.95.94.28.94-.28-.27.95.27.94-.94-.28z"/></g><g mask="url(#Bosnia_and_Herzegovina_svg__a)"><path fill="#fff" fill-rule="evenodd" d="m12 14.66-.95.28.28-.94-.28-.95.95.28.94-.28-.28.95.28.94z"/><path d="m11.05 14.94.28-.94-.28-.95.95.28.94-.28-.28.95.28.94-.94-.28z"/></g><g mask="url(#Bosnia_and_Herzegovina_svg__a)"><path fill="#fff" fill-rule="evenodd" d="m9.33 10.66-.94.28.27-.94-.27-.95.94.28.94-.28L10 10l.27.94z"/><path d="m8.39 10.94.27-.94-.27-.95.94.28.94-.28L10 10l.27.94-.94-.28z"/></g><g mask="url(#Bosnia_and_Herzegovina_svg__a)"><path fill="#fff" fill-rule="evenodd" d="m6.66 6.66-.94.28L6 6l-.28-.95.94.28.94-.28-.27.95.27.94z"/><path d="M5.72 6.94 6 6l-.28-.95.94.28.94-.28-.27.95.27.94-.94-.28z"/></g></svg>