<svg xmlns="http://www.w3.org/2000/svg" fill="none" viewBox="0 0 28 28" focusable="false"><path fill="none" d="M0 0h28v28H0z"/><rect width="28" height="20" y="4" fill="#fff" rx="3"/><rect width="28" height="20" y="4" rx="3"/><mask id="Brazil_svg__a" width="28" height="20" x="0" y="4" mask-type="alpha" maskUnits="userSpaceOnUse"><rect width="28" height="20" y="4" fill="#fff" rx="3"/><rect width="28" height="20" y="4" stroke="#979797" stroke-opacity="0" stroke-width="0" rx="3"/></mask><g mask="url(#Brazil_svg__a)"><path fill="#05ab41" d="M0 4h28v20H0z"/><path d="M0 4h28v20H0z"/></g><g mask="url(#Brazil_svg__a)"><path fill="#fdd216" fill-rule="evenodd" d="M3.53 14.55a.655.655 0 0 1 0-1.11l10.1-6.54c.22-.15.51-.15.73 0l10.1 6.54c.41.26.41.85 0 1.11l-10.1 6.54c-.22.15-.51.15-.73 0z"/><path d="M13.63 6.9c.22-.15.51-.15.73 0l10.1 6.54c.41.26.41.85 0 1.11l-10.1 6.54c-.22.15-.51.15-.73 0l-10.1-6.54a.655.655 0 0 1 0-1.11z"/></g><g mask="url(#Brazil_svg__a)"><path fill="#053087" fill-rule="evenodd" d="M14 18.66a4.665 4.665 0 1 0-.01-9.33 4.665 4.665 0 0 0 .01 9.33"/><path d="M18.66 14c0-2.58-2.09-4.67-4.66-4.67-2.58 0-4.67 2.09-4.67 4.67a4.665 4.665 0 0 0 9.33 0"/><mask id="Brazil_svg__b" width="9.333" height="9.333" x="9.333" y="9.333" mask-type="alpha" maskUnits="userSpaceOnUse"><path fill="#053087" fill-rule="evenodd" d="M14 18.66a4.665 4.665 0 1 0-.01-9.33 4.665 4.665 0 0 0 .01 9.33"/><path stroke="#979797" stroke-opacity="0" stroke-width="0" d="M18.66 14c0-2.58-2.09-4.67-4.66-4.67-2.58 0-4.67 2.09-4.67 4.67a4.665 4.665 0 0 0 9.33 0Z"/></mask><g mask="url(#Brazil_svg__b)"><path fill="none" d="m9.21 13.28-.53.43-.84-1.03.53-.44zm10.47 2.16.43.54-1.03.84-.44-.54z"/><path stroke="#fff" stroke-linecap="square" stroke-width="1.333" d="M8.77 12.78c.74-.6 3.1-.04 5.31.55s4.51 1.83 5.09 2.55"/></g></g></svg>