<svg xmlns="http://www.w3.org/2000/svg" fill="none" viewBox="0 0 28 28" focusable="false"><rect width="28" height="20" y="4" fill="#fff" rx="3"/><mask id="a" width="28" height="20" x="0" y="4" maskUnits="userSpaceOnUse" style="mask-type:luminance"><rect width="28" height="20" y="4" fill="#fff" rx="3"/></mask><g mask="url(#a)"><path fill="#05AB41" d="M0 4h28v20H0z"/><path fill="#FDD216" fill-rule="evenodd" d="M3.532 14.56a.667.667 0 0 1 0-1.12l10.106-6.539a.667.667 0 0 1 .724 0l10.106 6.54a.667.667 0 0 1 0 1.119l-10.106 6.539a.667.667 0 0 1-.724 0l-10.106-6.54Z" clip-rule="evenodd"/><path fill="#053087" fill-rule="evenodd" d="M14 18.667a4.667 4.667 0 1 0 0-9.334 4.667 4.667 0 0 0 0 9.334Z" clip-rule="evenodd"/><mask id="b" width="10" height="10" x="9" y="9" maskUnits="userSpaceOnUse" style="mask-type:luminance"><path fill="#fff" fill-rule="evenodd" d="M14 18.667a4.667 4.667 0 1 0 0-9.334 4.667 4.667 0 0 0 0 9.334Z" clip-rule="evenodd"/></mask><g mask="url(#b)"><path stroke="#fff" stroke-linecap="square" stroke-width="1.333" d="M8.78 12.78c.733-.593 3.097-.031 5.304.558 2.207.588 4.509 1.822 5.095 2.546"/></g></g></svg>