<svg xmlns="http://www.w3.org/2000/svg" fill="none" viewBox="0 0 36 28" focusable="false"><path fill="none" d="M1 0h28v28H1z"/><path fill="#FFF" d="M1 21c0 1.65 1.34 3 3 3h22c1.65 0 3-1.35 3-3V7c0-1.66-1.35-3-3-3H4C2.34 4 1 5.34 1 7z"/><path fill="#D6D8DD" fill-rule="evenodd" d="M4 24c-1.66 0-3-1.35-3-3V7c0-1.66 1.34-3 3-3h22c1.65 0 3 1.34 3 3v14c0 1.65-1.35 3-3 3zm0-.5h22q.28 0 .56-.07.21-.05.41-.13.21-.09.39-.21.22-.14.4-.33.19-.18.33-.4.12-.18.21-.39.08-.2.13-.41.07-.28.07-.56V7q0-.29-.07-.57-.05-.21-.13-.41-.09-.21-.21-.39-.14-.22-.33-.4-.18-.19-.4-.33-.18-.12-.39-.21-.2-.08-.41-.13-.28-.06-.56-.06H4q-.29 0-.57.06-.21.05-.41.13-.21.09-.39.21-.22.14-.4.33-.19.18-.33.4-.12.18-.21.39-.08.2-.13.41-.06.28-.06.57v14q0 .28.06.56.05.21.13.41.09.21.21.39.14.22.33.4.18.19.4.33.18.12.39.21.2.08.41.13.28.07.57.07"/><mask id="British_Indian_Ocean_Territory_svg__a" width="28" height="20" x="1" y="4" mask-type="alpha" maskUnits="userSpaceOnUse"><path fill="#FFF" d="M4 24h22c1.65 0 3-1.35 3-3V7c0-1.66-1.35-3-3-3H4C2.34 4 1 5.34 1 7v14c0 1.65 1.34 3 3 3"/></mask><g mask="url(#British_Indian_Ocean_Territory_svg__a)"><path fill="#2A337A" fill-rule="evenodd" d="M35.28 18.9c-.38.23-.71.77-1.73.77-2.05 0-2.55-1.13-4.09-1.13-1.02 0-1.53 1.13-2.55 1.13-2.04 0-2.55-1.13-4.08-1.13-1.02 0-1.53 1.13-2.55 1.13-2.04 0-2.55-1.13-4.08-1.13-1.02 0-1.53 1.13-2.55 1.13-2.04 0-2.55-1.13-4.08-1.13-1.02 0-1.53 1.13-2.55 1.13-2.05 0-2.56-1.13-4.09-1.13-1.02 0-1.32.81-1.93.81v1.46c.61 0 .91-.81 1.93-.81 1.53 0 2.04 1.14 4.09 1.14 1.02 0 1.53-1.14 2.55-1.14 1.53 0 2.04 1.14 4.08 1.14 1.02 0 1.53-1.14 2.55-1.14 1.53 0 2.04 1.14 4.08 1.14 1.02 0 1.53-1.14 2.55-1.14 1.53 0 2.04 1.14 4.08 1.14 1.02 0 1.53-1.14 2.55-1.14 1.54 0 2.04 1.14 4.09 1.14 1.02 0 1.35-.32 1.73-.56z"/></g><g mask="url(#British_Indian_Ocean_Territory_svg__a)"><path fill="#2A337A" fill-rule="evenodd" d="M35.28 21.62c-.38.23-.71.77-1.73.77-2.05 0-2.55-1.13-4.09-1.13-1.02 0-1.53 1.13-2.55 1.13-2.04 0-2.55-1.13-4.08-1.13-1.02 0-1.53 1.13-2.55 1.13-2.04 0-2.55-1.13-4.08-1.13-1.02 0-1.53 1.13-2.55 1.13-2.04 0-2.55-1.13-4.08-1.13-1.02 0-1.53 1.13-2.55 1.13-2.05 0-2.56-1.13-4.09-1.13-1.02 0-1.32.81-1.93.81v1.46c.61 0 .91-.81 1.93-.81 1.53 0 2.04 1.14 4.09 1.14 1.02 0 1.53-1.14 2.55-1.14 1.53 0 2.04 1.14 4.08 1.14 1.02 0 1.53-1.14 2.55-1.14 1.53 0 2.04 1.14 4.08 1.14 1.02 0 1.53-1.14 2.55-1.14 1.53 0 2.04 1.14 4.08 1.14 1.02 0 1.53-1.14 2.55-1.14 1.54 0 2.04 1.14 4.09 1.14 1.02 0 1.35-.32 1.73-.55z"/></g><g mask="url(#British_Indian_Ocean_Territory_svg__a)"><path fill="#2A337A" fill-rule="evenodd" d="M35.28 16.06c-.38.23-.71.77-1.73.77-2.05 0-2.55-1.14-4.09-1.14-1.02 0-1.53 1.14-2.55 1.14-2.04 0-2.55-1.14-4.08-1.14-1.02 0-1.53 1.14-2.55 1.14-2.04 0-2.55-1.14-4.08-1.14-1.02 0-1.53 1.14-2.55 1.14-2.04 0-2.55-1.14-4.08-1.14-1.02 0-1.53 1.14-2.55 1.14-2.05 0-2.56-1.14-4.09-1.14-1.02 0-1.32.81-1.93.81v1.47c.61 0 .91-.81 1.93-.81 1.53 0 2.04 1.13 4.09 1.13 1.02 0 1.53-1.13 2.55-1.13 1.53 0 2.04 1.13 4.08 1.13 1.02 0 1.53-1.13 2.55-1.13 1.53 0 2.04 1.13 4.08 1.13 1.02 0 1.53-1.13 2.55-1.13 1.53 0 2.04 1.13 4.08 1.13 1.02 0 1.53-1.13 2.55-1.13 1.54 0 2.04 1.13 4.09 1.13 1.02 0 1.35-.32 1.73-.55z"/></g><g mask="url(#British_Indian_Ocean_Territory_svg__a)"><path fill="#2A337A" fill-rule="evenodd" d="M35.28 13.22c-.38.23-.71.77-1.73.77-2.05 0-2.55-1.14-4.09-1.14-1.02 0-1.53 1.14-2.55 1.14-2.04 0-2.55-1.14-4.08-1.14-1.02 0-1.53 1.14-2.55 1.14-2.04 0-2.55-1.14-4.08-1.14-1.02 0-1.53 1.14-2.55 1.14-2.04 0-2.55-1.14-4.08-1.14-1.02 0-1.53 1.14-2.55 1.14-2.05 0-2.56-1.14-4.09-1.14-1.02 0-1.32.81-1.93.81v1.46c.61 0 .91-.81 1.93-.81 1.53 0 2.04 1.14 4.09 1.14 1.02 0 1.53-1.14 2.55-1.14 1.53 0 2.04 1.14 4.08 1.14 1.02 0 1.53-1.14 2.55-1.14 1.53 0 2.04 1.14 4.08 1.14 1.02 0 1.53-1.14 2.55-1.14 1.53 0 2.04 1.14 4.08 1.14 1.02 0 1.53-1.14 2.55-1.14 1.54 0 2.04 1.14 4.09 1.14 1.02 0 1.35-.32 1.73-.55z"/></g><g mask="url(#British_Indian_Ocean_Territory_svg__a)"><path fill="#2A337A" fill-rule="evenodd" d="M35.28 7.53c-.38.23-.71.77-1.73.77-2.05 0-2.55-1.13-4.09-1.13-1.02 0-1.53 1.13-2.55 1.13-2.04 0-2.55-1.13-4.08-1.13-1.02 0-1.53 1.13-2.55 1.13-2.04 0-2.55-1.13-4.08-1.13-1.02 0-1.53 1.13-2.55 1.13-2.04 0-2.55-1.13-4.08-1.13-1.02 0-1.53 1.13-2.55 1.13-2.05 0-2.56-1.13-4.09-1.13-1.02 0-1.32.8-1.93.8v1.47c.61 0 .91-.81 1.93-.81 1.53 0 2.04 1.14 4.09 1.14 1.02 0 1.53-1.14 2.55-1.14 1.53 0 2.04 1.14 4.08 1.14 1.02 0 1.53-1.14 2.55-1.14 1.53 0 2.04 1.14 4.08 1.14 1.02 0 1.53-1.14 2.55-1.14 1.53 0 2.04 1.14 4.08 1.14 1.02 0 1.53-1.14 2.55-1.14 1.54 0 2.04 1.14 4.09 1.14 1.02 0 1.35-.33 1.73-.56z"/></g><g mask="url(#British_Indian_Ocean_Territory_svg__a)"><path fill="#2A337A" fill-rule="evenodd" d="M35.28 10.53c-.38.23-.71.77-1.73.77-2.05 0-2.55-1.13-4.09-1.13-1.02 0-1.53 1.13-2.55 1.13-2.04 0-2.55-1.13-4.08-1.13-1.02 0-1.53 1.13-2.55 1.13-2.04 0-2.55-1.13-4.08-1.13-1.02 0-1.53 1.13-2.55 1.13-2.04 0-2.55-1.13-4.08-1.13-1.02 0-1.53 1.13-2.55 1.13-2.05 0-2.56-1.13-4.09-1.13-1.02 0-1.32.8-1.93.8v1.47c.61 0 .91-.81 1.93-.81 1.53 0 2.04 1.14 4.09 1.14 1.02 0 1.53-1.14 2.55-1.14 1.53 0 2.04 1.14 4.08 1.14 1.02 0 1.53-1.14 2.55-1.14 1.53 0 2.04 1.14 4.08 1.14 1.02 0 1.53-1.14 2.55-1.14 1.53 0 2.04 1.14 4.08 1.14 1.02 0 1.53-1.14 2.55-1.14 1.54 0 2.04 1.14 4.09 1.14 1.02 0 1.35-.33 1.73-.56z"/></g><g mask="url(#British_Indian_Ocean_Territory_svg__a)"><path fill="#2A337A" fill-rule="evenodd" d="M35.28 4.69c-.38.23-.71.77-1.73.77-2.05 0-2.55-1.14-4.09-1.14-1.02 0-1.53 1.14-2.55 1.14-2.04 0-2.55-1.14-4.08-1.14-1.02 0-1.53 1.14-2.55 1.14-2.04 0-2.55-1.14-4.08-1.14-1.02 0-1.53 1.14-2.55 1.14-2.04 0-2.55-1.14-4.08-1.14-1.02 0-1.53 1.14-2.55 1.14-2.05 0-2.56-1.14-4.09-1.14-1.02 0-1.32.81-1.93.81V6.6c.61 0 .91-.81 1.93-.81 1.53 0 2.04 1.13 4.09 1.13 1.02 0 1.53-1.13 2.55-1.13 1.53 0 2.04 1.13 4.08 1.13 1.02 0 1.53-1.13 2.55-1.13 1.53 0 2.04 1.13 4.08 1.13 1.02 0 1.53-1.13 2.55-1.13 1.53 0 2.04 1.13 4.08 1.13 1.02 0 1.53-1.13 2.55-1.13 1.54 0 2.04 1.13 4.09 1.13 1.02 0 1.35-.32 1.73-.55z"/></g><g mask="url(#British_Indian_Ocean_Territory_svg__a)"><path fill="#951D24" d="M23.557 10.773h1.045V21h-1.045z"/><path fill="#7AA351" fill-rule="evenodd" d="M24.557 10.81 26.34 9h-4.566l1.746 1.773h1.037z" clip-rule="evenodd"/><path fill="#FADA61" fill-rule="evenodd" d="M21.53 18.65h5.02v-.88c1.13-1.09.23-3.55-1.96-2.27v-.89h.5v-1h-.5v-.48h-1.04v.48h-.5v1h.5v.89c-1.16-1.03-3.64.22-2.02 2.27z"/><path fill="#C72A31" fill-rule="evenodd" d="M22.5 17.65h3.07v-.36l.41-.41c.3-.34-.2-1-.64-.68l-.75.68h-1.04l-.8-.68c-.29-.14-.88 0-.68.68l.43.41z"/></g><g mask="url(#British_Indian_Ocean_Territory_svg__a)"><path fill="#2A337A" d="M1 4h12.667v10H1z"/><path fill="#DB1E36" fill-rule="evenodd" d="M5.66 8 1 4h.66l4.67 3.33h1.33L13 4v.49c0 .11-.06.21-.14.27L8.33 8v1.33l4.21 3.61c.16.13.06.39-.14.39-.05 0-.09-.02-.13-.04L7.66 10H6.33L1 13.33v-.67l4.66-3.33z"/><path fill="#FFF" fill-rule="evenodd" d="M1.88 3.33H-.81L5 8.3v.69L.33 12.32v2.21l6.19-3.87h.93l4.43 3.17q.12.08.25.12.13.05.27.05.15 0 .29-.05.13-.05.24-.13.1-.07.17-.17.08-.1.13-.23t.06-.27q0-.12-.03-.24-.03-.14-.09-.25-.08-.12-.19-.23L9 9.02v-.68l4.24-3.04q.1-.07.18-.16.08-.08.13-.19.06-.11.08-.22.03-.12.03-.24v-1.7L7.47 6.66h-.93zm4.45 4-2.52-1.8L1.66 4H1l.41.35.25.22L3.4 6.05 5.66 8v1.33L1 12.66v.67l.32-.21.34-.21 1.04-.65L6.33 10h1.33l2.52 1.8 1.78 1.26.31.23c.04.02.08.04.13.04.2 0 .3-.26.14-.39l-.29-.25-1.66-1.42-2.26-1.94V8l3.33-2.38 1.2-.86c.08-.06.14-.16.14-.27V4l-.66.41h-.01l-1.04.65-3.63 2.27z"/><path fill="#FFF" fill-rule="evenodd" d="M1 7.33V10h4.66v3.33c0 .37.3.67.67.67h1.33c.37 0 .67-.3.67-.67V10H13c.36 0 .66-.3.66-.67V8c0-.37-.3-.67-.66-.67H8.33V4H5.66v3.33z"/><path d="M1 10h4.66v3.33c0 .37.3.67.67.67h1.33c.37 0 .67-.3.67-.67V10H13c.36 0 .66-.3.66-.67V8c0-.37-.3-.67-.66-.67H8.33V4H5.66v3.33H1z"/><path fill="#DB1E36" fill-rule="evenodd" d="M1 8h5.33V4h1.33v4H13v1.33H7.66v4H6.33v-4H1z"/><path d="M6.33 8V4h1.33v4H13v1.33H7.66v4H6.33v-4H1V8z"/></g></svg>