<svg xmlns="http://www.w3.org/2000/svg" fill="none" viewBox="0 0 28 28" focusable="false"><mask id="British_Virgin_Islands_svg__e" width="6.667" height="9.333" x="17.333" y="9.333" maskUnits="userSpaceOnUse"><g fill-rule="evenodd" filter="url(#British_Virgin_Islands_svg__a)"><path fill="#008339" d="M17.3334 14C17.3334 12.9062 17.3334 11.6131 17.3334 10.6658C17.3334 9.92942 17.9303 9.33331 18.6667 9.33331L22.6667 9.33331C23.4031 9.33331 24 9.92942 24 10.6658C24 11.6131 24 12.9062 24 14C24 17.3333 20.6667 18.6666 20.6667 18.6666C20.6667 18.6666 17.3334 17.3333 17.3334 14Z"/><path stroke="url(#British_Virgin_Islands_svg__b)" stroke-linejoin="bevel" stroke-opacity="0" stroke-width="0" d="M17.3334 10.6666C17.3334 9.93027 17.9303 9.33331 18.6667 9.33331L22.6667 9.33331C23.4031 9.33331 24 9.93027 24 10.6666C24 11.6139 24 12.9066 24 14C24 17.3333 20.6667 18.6666 20.6667 18.6666C20.6667 18.6666 17.3334 17.3333 17.3334 14C17.3334 12.9066 17.3334 11.6139 17.3334 10.6666Z"/></g></mask><defs><linearGradient id="British_Virgin_Islands_svg__b" x1="17.333" x2="17.333" y1="9.333" y2="18.667" gradientUnits="userSpaceOnUse"><stop offset="0" stop-color="#FFF"/><stop offset="1" stop-color="#EFEFEF"/></linearGradient><filter id="British_Virgin_Islands_svg__a"><feColorMatrix values="0 0 0 0 1 0 0 0 0 1 0 0 0 0 1 0 0 0 1 0"/></filter></defs><mask id="British_Virgin_Islands_svg__c" width="28" height="20" x="0" y="4" maskUnits="userSpaceOnUse"><g filter="url(#British_Virgin_Islands_svg__a)"><rect width="28" height="20" y="4" fill="#FFF" rx="3"/><rect width="28" height="20" y="4" stroke="#969696" stroke-opacity="0" stroke-width="0" rx="3"/></g></mask><path fill="none" d="M0 0H28V28H0z"/><rect width="28" height="20" y="4" fill="#FFF" rx="3"/><rect width="28" height="20" y="4" rx="3"/><g mask="url(#British_Virgin_Islands_svg__c)"><path fill="#07319C" d="M0 4H28V24H0z"/><path d="M0 4H28V24H0z"/><path fill="#008339" fill-rule="evenodd" d="M17.3334 14C17.3334 12.9062 17.3334 11.6131 17.3334 10.6658C17.3334 9.92942 17.9303 9.33331 18.6667 9.33331L22.6667 9.33331C23.4031 9.33331 24 9.92942 24 10.6658C24 11.6131 24 12.9062 24 14C24 17.3333 20.6667 18.6666 20.6667 18.6666C20.6667 18.6666 17.3334 17.3333 17.3334 14Z"/><path d="M17.3334 10.6666C17.3334 9.93027 17.9303 9.33331 18.6667 9.33331L22.6667 9.33331C23.4031 9.33331 24 9.93027 24 10.6666C24 11.6139 24 12.9066 24 14C24 17.3333 20.6667 18.6666 20.6667 18.6666C20.6667 18.6666 17.3334 17.3333 17.3334 14C17.3334 12.9066 17.3334 11.6139 17.3334 10.6666Z"/><g mask="url(#British_Virgin_Islands_svg__e)"><path fill="#FFD033" fill-rule="evenodd" d="M20 11.3333C20 11.7015 19.7015 12 19.3333 12C18.9651 12 18.6666 11.7015 18.6666 11.3333C18.6666 10.9651 18.9651 10.6666 19.3333 10.6666C19.7015 10.6666 20 10.9651 20 11.3333ZM19.3333 13.3333C18.9651 13.3333 18.6666 13.0348 18.6666 12.6666C18.6666 12.2984 18.9651 12 19.3333 12C19.7015 12 20 12.2984 20 12.6666C20 13.0348 19.7015 13.3333 19.3333 13.3333ZM19.3333 14.6666C19.7015 14.6666 20 14.3681 20 14C20 13.6318 19.7015 13.3333 19.3333 13.3333C18.9651 13.3333 18.6666 13.6318 18.6666 14C18.6666 14.3681 18.9651 14.6666 19.3333 14.6666ZM19.3333 14.6666C18.9651 14.6666 18.6666 14.9651 18.6666 15.3333C18.6666 15.7015 18.9651 16 19.3333 16C19.7015 16 20 15.7015 20 15.3333C20 14.9651 19.7015 14.6666 19.3333 14.6666ZM22.6666 11.3333C22.6666 11.7015 22.3681 12 22 12C21.6318 12 21.3333 11.7015 21.3333 11.3333C21.3333 10.9651 21.6318 10.6666 22 10.6666C22.3681 10.6666 22.6666 10.9651 22.6666 11.3333ZM22 13.3333C22.3681 13.3333 22.6666 13.0348 22.6666 12.6666C22.6666 12.2984 22.3681 12 22 12C21.6318 12 21.3333 12.2984 21.3333 12.6666C21.3333 13.0348 21.6318 13.3333 22 13.3333ZM22 14.6666C22.3681 14.6666 22.6666 14.3681 22.6666 14C22.6666 13.6318 22.3681 13.3333 22 13.3333C21.6318 13.3333 21.3333 13.6318 21.3333 14C21.3333 14.3681 21.6318 14.6666 22 14.6666ZM22 14.6666C21.6318 14.6666 21.3333 14.9651 21.3333 15.3333C21.3333 15.7015 21.6318 16 22 16C22.3681 16 22.6666 15.7015 22.6666 15.3333C22.6666 14.9651 22.3681 14.6666 22 14.6666Z"/><path d="M20 11.3333C20 11.7015 19.7015 12 19.3333 12C18.9651 12 18.6666 11.7015 18.6666 11.3333C18.6666 10.9651 18.9651 10.6666 19.3333 10.6666C19.7015 10.6666 20 10.9651 20 11.3333ZM19.3333 13.3333C18.9651 13.3333 18.6666 13.0348 18.6666 12.6666C18.6666 12.2984 18.9651 12 19.3333 12C19.7015 12 20 12.2984 20 12.6666C20 13.0348 19.7015 13.3333 19.3333 13.3333ZM19.3333 14.6666C19.7015 14.6666 20 14.3681 20 14C20 13.6318 19.7015 13.3333 19.3333 13.3333C18.9651 13.3333 18.6666 13.6318 18.6666 14C18.6666 14.3681 18.9651 14.6666 19.3333 14.6666ZM19.3333 14.6666C18.9651 14.6666 18.6666 14.9651 18.6666 15.3333C18.6666 15.7015 18.9651 16 19.3333 16C19.7015 16 20 15.7015 20 15.3333C20 14.9651 19.7015 14.6666 19.3333 14.6666ZM22.6666 11.3333C22.6666 11.7015 22.3681 12 22 12C21.6318 12 21.3333 11.7015 21.3333 11.3333C21.3333 10.9651 21.6318 10.6666 22 10.6666C22.3681 10.6666 22.6666 10.9651 22.6666 11.3333ZM22 13.3333C22.3681 13.3333 22.6666 13.0348 22.6666 12.6666C22.6666 12.2984 22.3681 12 22 12C21.6318 12 21.3333 12.2984 21.3333 12.6666C21.3333 13.0348 21.6318 13.3333 22 13.3333ZM22 14.6666C22.3681 14.6666 22.6666 14.3681 22.6666 14C22.6666 13.6318 22.3681 13.3333 22 13.3333C21.6318 13.3333 21.3333 13.6318 21.3333 14C21.3333 14.3681 21.6318 14.6666 22 14.6666ZM22 14.6666C21.6318 14.6666 21.3333 14.9651 21.3333 15.3333C21.3333 15.7015 21.6318 16 22 16C22.3681 16 22.6666 15.7015 22.6666 15.3333C22.6666 14.9651 22.3681 14.6666 22 14.6666Z"/><path fill="#FFF" fill-rule="evenodd" d="M20.6667 15.3333C21.0349 15.3333 21.3333 14.4379 21.3333 13.3333C21.3333 12.2287 21.0349 11.3333 20.6667 11.3333C20.2985 11.3333 20 12.2287 20 13.3333C20 14.4379 20.2985 15.3333 20.6667 15.3333Z"/><path d="M21.3333 13.3333C21.3333 12.2287 21.0349 11.3333 20.6667 11.3333C20.2985 11.3333 20 12.2287 20 13.3333C20 14.4379 20.2985 15.3333 20.6667 15.3333C21.0349 15.3333 21.3333 14.4379 21.3333 13.3333Z"/></g><path fill="#FFD033" d="M16.6666 17.3334C16.6666 18.6049 18.4878 19.3334 20.6666 19.3334C22.8454 19.3334 24.6666 18.6049 24.6666 17.3334C24.6666 16.9652 24.3681 16.6667 24 16.6667C23.6318 16.6667 23.3333 16.9652 23.3333 17.3334C23.3333 17.3461 23.1717 17.4989 22.7761 17.6572C22.239 17.872 21.4823 18 20.6666 18C19.8509 18 19.0943 17.872 18.5572 17.6572C18.1616 17.4989 18 17.3461 18 17.3334C18 16.9652 17.7015 16.6667 17.3333 16.6667C16.9651 16.6667 16.6666 16.9652 16.6666 17.3334Z"/><path d="M20.6666 19.3334C22.8454 19.3334 24.6666 18.6049 24.6666 17.3334C24.6666 16.9652 24.3681 16.6667 24 16.6667C23.6318 16.6667 23.3333 16.9652 23.3333 17.3334C23.3333 17.3461 23.1717 17.4989 22.7761 17.6572C22.239 17.872 21.4823 18 20.6666 18C19.8509 18 19.0943 17.872 18.5572 17.6572C18.1616 17.4989 18 17.3461 18 17.3334C18 16.9652 17.7015 16.6667 17.3333 16.6667C16.9651 16.6667 16.6666 16.9652 16.6666 17.3334C16.6666 18.6049 18.4878 19.3334 20.6666 19.3334Z"/><path fill="#DB1E36" fill-rule="evenodd" d="M4.66667 8L0 4L0.666667 4L5.33333 7.33333L6.66667 7.33333L12 4L12 4.49513C12 4.60278 11.948 4.7038 11.8604 4.76637L7.33333 8L7.33333 9.33333L11.5475 12.9455C11.7029 13.0787 11.6087 13.3333 11.404 13.3333L11.404 13.3333C11.358 13.3333 11.3132 13.319 11.2758 13.2923L6.66667 10L5.33333 10L0 13.3333L0 12.6667L4.66667 9.33333L4.66667 8Z"/><path fill="#FFF" fill-rule="evenodd" d="M0.88031 3.33333L-1.80217 3.33333L4 8.30662L4 8.99026L-0.666667 12.3236L-0.666667 14.5362L5.52453 10.6667L6.45302 10.6667L10.8883 13.8348C10.9655 13.8898 11.047 13.9311 11.1329 13.9587C11.2189 13.9862 11.3092 14 11.404 14C11.5074 14 11.6052 13.9839 11.6975 13.9518C11.7795 13.9232 11.8572 13.882 11.9304 13.828C11.9985 13.7777 12.0574 13.7203 12.1071 13.6558C12.161 13.5858 12.2039 13.5074 12.236 13.4206C12.2681 13.3339 12.2865 13.2464 12.2911 13.1582C12.2954 13.0769 12.2881 12.995 12.269 12.9125C12.2486 12.8238 12.2165 12.742 12.1728 12.6669C12.1237 12.5824 12.0599 12.5066 11.9813 12.4393L8 9.02671L8 8.34308L12.2479 5.30886C12.3136 5.26194 12.3721 5.2088 12.4234 5.14944C12.4748 5.09008 12.5189 5.0245 12.5558 4.95271C12.5928 4.88091 12.6205 4.80688 12.639 4.7306C12.6574 4.65435 12.6667 4.57586 12.6667 4.49513L12.6667 2.79717L6.47547 6.66667L5.54698 6.66667L0.88031 3.33333ZM5.33333 7.33333L2.81303 5.53312L0.666667 4L0 4L0.413502 4.35443L0.666667 4.57143L2.40155 6.05847L4.66667 8L4.66667 9.33333L0 12.6667L0 13.3333L0.329218 13.1276L0.666667 12.9167L1.70915 12.2651L5.33333 10L6.66667 10L9.18697 11.8002L10.9601 13.0667L11.2758 13.2923C11.3132 13.319 11.358 13.3333 11.404 13.3333C11.6087 13.3333 11.7029 13.0787 11.5475 12.9455L11.2529 12.693L9.59845 11.2749L7.33333 9.33333L7.33333 8L10.6616 5.62265L11.8604 4.76637C11.948 4.7038 12 4.60278 12 4.49513L12 4L11.3428 4.41077L11.3333 4.41667L10.2909 5.06822L6.66667 7.33333L5.33333 7.33333Z"/><path fill="#FFF" fill-rule="evenodd" d="M0 7.33333L0 10L4.66667 10L4.66667 13.3333C4.66667 13.7015 4.96514 14 5.33333 14L6.66667 14C7.03486 14 7.33333 13.7015 7.33333 13.3333L7.33333 10L12 10C12.3682 10 12.6667 9.70152 12.6667 9.33333L12.6667 8C12.6667 7.63181 12.3682 7.33333 12 7.33333L7.33333 7.33333L7.33333 4L4.66667 4L4.66667 7.33333L0 7.33333Z"/><path d="M0 10L4.66667 10L4.66667 13.3333C4.66667 13.7015 4.96514 14 5.33333 14L6.66667 14C7.03486 14 7.33333 13.7015 7.33333 13.3333L7.33333 10L12 10C12.3682 10 12.6667 9.70152 12.6667 9.33333L12.6667 8C12.6667 7.63181 12.3682 7.33333 12 7.33333L7.33333 7.33333L7.33333 4L4.66667 4L4.66667 7.33333L0 7.33333L0 10Z"/><path fill="#DB1E36" fill-rule="evenodd" d="M0 8L5.33333 8L5.33333 7.33333L5.33333 4L6.66667 4L6.66667 7.33333L6.66667 8L12 8L12 9.33333L6.66667 9.33333L6.66667 10L6.66667 13.3333L5.33333 13.3333L5.33333 10L5.33333 9.33333L0 9.33333L0 8Z"/><path d="M5.33333 8L5.33333 7.33333L5.33333 4L6.66667 4L6.66667 7.33333L6.66667 8L12 8L12 9.33333L6.66667 9.33333L6.66667 10L6.66667 13.3333L5.33333 13.3333L5.33333 10L5.33333 9.33333L0 9.33333L0 8L5.33333 8Z"/></g></svg>