<svg xmlns="http://www.w3.org/2000/svg" fill="none" viewBox="0 0 28 28" focusable="false"><rect width="28" height="20" y="4" fill="#fff" rx="3"/><mask id="Burundi_svg__a" width="28" height="20" x="0" y="4" maskUnits="userSpaceOnUse" style="mask-type:luminance"><rect width="28" height="20" y="4" fill="#fff" rx="3"/></mask><g mask="url(#Burundi_svg__a)"><path fill="#E4233B" d="M0 4h28v20H0z"/><path fill="#34CD4E" fill-rule="evenodd" d="m0 4 12 10L0 24V4ZM28 4 16 14l12 10V4Z" clip-rule="evenodd"/><path fill="#fff" fill-rule="evenodd" d="M16.962 10.394A4.647 4.647 0 0 0 14 9.334a4.647 4.647 0 0 0-2.962 1.06l-12.32-8.31-1.492 2.21 12.32 8.31a4.665 4.665 0 0 0 0 2.792l-12.32 8.31 1.492 2.21 12.32-8.31A4.648 4.648 0 0 0 14 18.666a4.648 4.648 0 0 0 2.962-1.06l12.32 8.31 1.492-2.21-12.32-8.31a4.666 4.666 0 0 0 0-2.792l12.32-8.31-1.492-2.21-12.32 8.31Z" clip-rule="evenodd"/><path fill="#DF2239" fill-rule="evenodd" d="m14 12.667-.943.276.276-.943-.276-.943.943.276.943-.276-.276.943.276.943-.943-.276ZM12 16l-.943.276.276-.943-.276-.943.943.277.943-.277-.276.943.276.943L12 16Zm3.057.276L16 16l.943.276-.276-.943.276-.943-.943.277-.943-.277.276.943-.276.943Z" clip-rule="evenodd"/></g></svg>