<svg xmlns="http://www.w3.org/2000/svg" fill="none" viewBox="0 0 33 28" focusable="false"><path fill="none" d="M2 0h28v28H2z"/><rect width="28" height="20" x="2" y="4" fill="#fff" rx="3"/><rect width="28" height="20" x="2" y="4" rx="3"/><mask id="Burundi_svg__a" width="28" height="20" x="2" y="4" mask-type="alpha" maskUnits="userSpaceOnUse"><rect width="28" height="20" x="2" y="4" fill="#fff" rx="3"/><rect width="28" height="20" x="2" y="4" stroke="#979797" stroke-opacity="0" stroke-width="0" rx="3"/></mask><g mask="url(#Burundi_svg__a)"><path fill="#e4233b" d="M2 4h28v20H2z"/><path d="M2 4h28v20H2z"/></g><g mask="url(#Burundi_svg__a)"><path fill="#34cd4e" fill-rule="evenodd" d="m2 4 12 10L2 24z"/><path d="M14 14 2 24V4z"/></g><g mask="url(#Burundi_svg__a)"><path fill="#34cd4e" fill-rule="evenodd" d="M30 4 18 14l12 10z"/><path d="m18 14 12 10V4z"/></g><g fill="#fff" mask="url(#Burundi_svg__a)"><mask id="Burundi_svg__b"><path fill-rule="evenodd" d="M18.962 10.394A4.65 4.65 0 0 0 16 9.334a4.65 4.65 0 0 0-2.962 1.06L.718 2.084l-1.492 2.21 12.32 8.31a4.666 4.666 0 0 0 0 2.792l-12.32 8.31 1.492 2.21 12.32-8.31A4.65 4.65 0 0 0 16 18.666a4.65 4.65 0 0 0 2.962-1.06l12.32 8.31 1.492-2.21-12.32-8.31a4.666 4.666 0 0 0 0-2.792l12.32-8.31-1.492-2.21z" clip-rule="evenodd"/></mask><path fill-rule="evenodd" d="M18.962 10.394A4.65 4.65 0 0 0 16 9.334a4.65 4.65 0 0 0-2.962 1.06L.718 2.084l-1.492 2.21 12.32 8.31a4.666 4.666 0 0 0 0 2.792l-12.32 8.31 1.492 2.21 12.32-8.31A4.65 4.65 0 0 0 16 18.666a4.65 4.65 0 0 0 2.962-1.06l12.32 8.31 1.492-2.21-12.32-8.31a4.666 4.666 0 0 0 0-2.792l12.32-8.31-1.492-2.21z" clip-rule="evenodd" mask="url(#Burundi_svg__b)"/></g><g mask="url(#Burundi_svg__a)"><mask id="Burundi_svg__c" fill="#fff"><path fill-rule="evenodd" d="m15.057 12.943.943-.276.943.276-.276-.943.276-.943-.943.276-.943-.276.276.943zM14 16l-.943.276.276-.943-.276-.942.943.276.943-.276-.276.942.276.943zm3.057.276L18 16l.943.276-.276-.943.276-.942-.943.276-.943-.276.276.942z" clip-rule="evenodd"/></mask><path fill="#df2239" fill-rule="evenodd" d="m15.057 12.943.943-.276.943.276-.276-.943.276-.943-.943.276-.943-.276.276.943zM14 16l-.943.276.276-.943-.276-.942.943.276.943-.276-.276.942.276.943zm3.057.276L18 16l.943.276-.276-.943.276-.942-.943.276-.943-.276.276.942z" clip-rule="evenodd" mask="url(#Burundi_svg__c)"/></g></svg>