<svg xmlns="http://www.w3.org/2000/svg" fill="none" viewBox="0 0 28 28" focusable="false"><defs><filter id="Burundi_svg__a"><feColorMatrix values="0 0 0 0 1 0 0 0 0 1 0 0 0 0 1 0 0 0 1 0"/></filter></defs><mask id="Burundi_svg__b" width="28" height="20" x="0" y="4" maskUnits="userSpaceOnUse"><g filter="url(#Burundi_svg__a)"><rect width="28" height="20" y="4" fill="#FFF" rx="3"/><rect width="28" height="20" y="4" stroke="#969696" stroke-opacity="0" stroke-width="0" rx="3"/></g></mask><path fill="none" d="M0 0H28V28H0z"/><rect width="28" height="20" y="4" fill="#FFF" rx="3"/><rect width="28" height="20" y="4" rx="3"/><g mask="url(#Burundi_svg__b)"><path fill="#E4233B" d="M0 4H28V24H0z"/><path d="M0 4H28V24H0z"/><path fill="#34CD4E" fill-rule="evenodd" d="M0 4L12 14L0 24L0 4Z"/><path d="M12 14L0 24L0 4L12 14Z"/><path fill="#34CD4E" fill-rule="evenodd" d="M0 0L12 10L0 20L0 0Z" transform="matrix(-1 0 0 1 28 4)"/><path d="M12 10L0 20L0 0L12 10Z" transform="matrix(-1 0 0 1 28 4)"/><path fill="#FFF" fill-rule="evenodd" d="M30.7736 23.7057L29.2824 25.9165L16.9621 17.6063C16.1563 18.2688 15.1246 18.6667 14 18.6667C12.8753 18.6667 11.8436 18.2688 11.0379 17.6063L-1.2825 25.9165L-2.77368 23.7057L9.54573 15.3961C9.4077 14.9553 9.3333 14.4863 9.3333 14C9.3333 13.5137 9.4077 13.0447 9.54573 12.6039L-2.77368 4.29432L-1.2825 2.08356L11.0379 10.3938C11.8436 9.73116 12.8753 9.33334 14 9.33334C15.1246 9.33334 16.1563 9.73116 16.9621 10.3938L29.2824 2.08356L30.7736 4.29432L18.4542 12.6039C18.5922 13.0447 18.6666 13.5137 18.6666 14C18.6666 14.4863 18.5922 14.9553 18.4542 15.3961L30.7736 23.7057Z"/><path d="M30.7736 23.7057L29.2824 25.9165L16.9621 17.6063C16.1563 18.2688 15.1246 18.6667 14 18.6667C12.8753 18.6667 11.8436 18.2688 11.0379 17.6063L-1.2825 25.9165L-2.77368 23.7057L9.54573 15.3961C9.4077 14.9553 9.3333 14.4863 9.3333 14C9.3333 13.5137 9.4077 13.0447 9.54573 12.6039L-2.77368 4.29432L-1.2825 2.08356L11.0379 10.3938C11.8436 9.73116 12.8753 9.33334 14 9.33334C15.1246 9.33334 16.1563 9.73116 16.9621 10.3938L29.2824 2.08356L30.7736 4.29432L18.4542 12.6039C18.5922 13.0447 18.6666 13.5137 18.6666 14C18.6666 14.4863 18.5922 14.9553 18.4542 15.3961L30.7736 23.7057Z"/><path fill="#DF2239" fill-rule="evenodd" d="M14 12.6667L13.0572 12.9428L13.3333 12L13.0572 11.0572L14 11.3333L14.9428 11.0572L14.6667 12L14.9428 12.9428L14 12.6667ZM12 16L11.0572 16.2761L11.3333 15.3333L11.0572 14.3905L12 14.6667L12.9428 14.3905L12.6667 15.3333L12.9428 16.2761L12 16ZM15.0572 16.2761L16 16L16.9428 16.2761L16.6667 15.3333L16.9428 14.3905L16 14.6667L15.0572 14.3905L15.3333 15.3333L15.0572 16.2761Z"/><path d="M14 12.6667L13.0572 12.9428L13.3333 12L13.0572 11.0572L14 11.3333L14.9428 11.0572L14.6667 12L14.9428 12.9428L14 12.6667ZM12 16L11.0572 16.2761L11.3333 15.3333L11.0572 14.3905L12 14.6667L12.9428 14.3905L12.6667 15.3333L12.9428 16.2761L12 16ZM15.0572 16.2761L16 16L16.9428 16.2761L16.6667 15.3333L16.9428 14.3905L16 14.6667L15.0572 14.3905L15.3333 15.3333L15.0572 16.2761Z"/></g></svg>