<svg xmlns="http://www.w3.org/2000/svg" fill="none" viewBox="0 0 28 28" focusable="false"><path fill="none" d="M0 0h28v28H0z"/><rect width="28" height="20" y="4" fill="#FFF" rx="3"/><rect width="28" height="20" y="4" rx="3"/><mask id="Cabo_Verde_svg__a" width="28" height="20" x="0" y="4" mask-type="alpha" maskUnits="userSpaceOnUse"><rect width="28" height="20" y="4" fill="#FFF" rx="3"/><rect width="28" height="20" y="4" stroke="#979797" stroke-opacity="0" stroke-width="0" rx="3"/></mask><g mask="url(#Cabo_Verde_svg__a)"><path fill="#0C49AE" fill-rule="evenodd" d="M0 14.66h28V4H0z"/><path d="M28 14.66V4H0v10.66z"/></g><g mask="url(#Cabo_Verde_svg__a)"><path fill="#0C49AE" fill-rule="evenodd" d="M0 24h28v-5.34H0z"/><path d="M28 24v-5.34H0V24z"/></g><g mask="url(#Cabo_Verde_svg__a)"><path fill="#FFF" fill-rule="evenodd" d="M0 18.66h28v-4H0z"/><path d="M28 18.66v-4H0v4z"/></g><g mask="url(#Cabo_Verde_svg__a)"><path fill="#CD232E" fill-rule="evenodd" d="M0 17.33h28V16H0z"/><path d="M28 17.33V16H0v1.33z"/></g><g mask="url(#Cabo_Verde_svg__a)"><path stroke="#F7D035" stroke-dasharray="0.666667 2" stroke-width="1.333" d="M14.66 16.66c0-2.21-1.79-4-4-4s-4 1.79-4 4 1.79 4 4 4 4-1.79 4-4Z"/></g></svg>