<svg xmlns="http://www.w3.org/2000/svg" fill="none" viewBox="0 0 28 28" focusable="false"><rect width="28" height="20" y="4" fill="#fff" rx="3"/><mask id="CAF_svg__a" width="28" height="20" x="0" y="4" maskUnits="userSpaceOnUse" style="mask-type:luminance"><rect width="28" height="20" y="4" fill="#fff" rx="3"/></mask><g mask="url(#CAF_svg__a)"><path fill="#19bfbf" d="M0 4h28v20H0z"/><path fill="#fff" fill-rule="evenodd" d="M8.028 9.503a.33.33 0 0 1 .093-.29l2.448-2.449a.33.33 0 0 1 .236-.097h1.656c.126 0 .241.071.298.184l.482.965A.33.33 0 0 0 13.54 8h2.255c.126 0 .242.071.298.184l1.816 3.632a.33.33 0 0 0 .298.184h1.127c.275 0 .432.314.267.533l-1.582 2.11a.3.3 0 0 0-.031.05l-.618 1.237a.33.33 0 0 0-.036.149v1.176a.3.3 0 0 1-.035.149l-.631 1.263L16 20l-.575 1.15a.33.33 0 0 1-.298.183h-.921a.33.33 0 0 1-.298-.184l-.54-1.079a.33.33 0 0 1-.035-.149v-3.783a.33.33 0 0 0-.097-.236l-.514-.513a.3.3 0 0 1-.08-.13l-.566-1.698a.33.33 0 0 0-.316-.228H8.949a.33.33 0 0 1-.329-.278zM18.667 17.667c0-.184.149-.334.333-.334h.667c.184 0 .333.15.333.334v.921a.33.33 0 0 1-.035.149l-.54 1.079a.33.33 0 0 1-.298.184H19a.333.333 0 0 1-.333-.333z" clip-rule="evenodd"/></g></svg>