<svg xmlns="http://www.w3.org/2000/svg" fill="none" viewBox="0 0 28 28" focusable="false"><path fill="none" d="M0 0h28v28H0z"/><rect width="28" height="20" y="4" fill="#FFF" rx="3"/><rect width="28" height="20" y="4" rx="3"/><mask id="CAF_svg__a" width="28" height="20" x="0" y="4" mask-type="alpha" maskUnits="userSpaceOnUse"><rect width="28" height="20" y="4" fill="#FFF" rx="3"/><rect width="28" height="20" y="4" stroke="#979797" stroke-opacity="0" stroke-width="0" rx="3"/></mask><g mask="url(#CAF_svg__a)"><path fill="#19BFBF" d="M0 4h28v20H0z"/><path d="M0 4h28v20H0z"/></g><g mask="url(#CAF_svg__a)"><path fill="#FFF" fill-rule="evenodd" d="M8.02 9.5c-.01-.11.02-.22.1-.29l2.44-2.45c.07-.06.15-.1.24-.1h1.66c.12 0 .24.07.29.19l.49.96c.05.11.17.19.29.19h2.26c.13 0 .24.07.3.18l1.81 3.63c.06.11.17.19.3.19h1.13c.27 0 .43.31.27.53l-1.59 2.11c-.01.01-.02.03-.03.05l-.62 1.23q-.03.075-.03.15v1.18c0 .05-.01.1-.04.15l-.63 1.26L16 20l-.58 1.14c-.06.12-.17.19-.3.19h-.92c-.13 0-.24-.07-.3-.19l-.54-1.07a.4.4 0 0 1-.03-.15v-3.79c0-.09-.04-.17-.1-.23l-.51-.52a.22.22 0 0 1-.08-.13l-.57-1.69a.324.324 0 0 0-.32-.23H8.94c-.16 0-.3-.12-.32-.28z"/><path d="M10.56 6.76c.07-.06.15-.1.24-.1h1.66c.12 0 .24.07.29.19l.49.96c.05.11.17.19.29.19h2.26c.13 0 .24.07.3.18l1.81 3.63c.06.11.17.19.3.19h1.13c.27 0 .43.31.27.53l-1.59 2.11c-.01.01-.03.03-.03.05l-.62 1.23q-.03.075-.03.15v1.18c0 .05-.01.1-.04.15l-.63 1.26L16 20l-.58 1.14c-.06.12-.17.19-.3.19h-.92c-.13 0-.24-.07-.3-.19l-.54-1.07a.4.4 0 0 1-.03-.15v-3.79c0-.09-.04-.17-.1-.23l-.51-.52a.22.22 0 0 1-.08-.13l-.57-1.69a.324.324 0 0 0-.32-.23H8.94c-.16 0-.3-.12-.32-.28l-.6-3.55c-.01-.11.02-.22.1-.29z"/></g><g mask="url(#CAF_svg__a)"><path fill="#FFF" fill-rule="evenodd" d="M18.66 17.66c0-.18.15-.33.34-.33h.66c.19 0 .34.15.34.33v.92c0 .05-.02.11-.04.15l-.54 1.08c-.06.11-.17.18-.3.18H19c-.19 0-.34-.14-.34-.33z"/><path d="M19.66 17.33c.19 0 .34.15.34.33v.92c0 .05-.02.11-.04.15l-.54 1.08c-.06.11-.17.18-.3.18H19c-.19 0-.34-.14-.34-.33v-2c0-.18.15-.33.34-.33z"/></g></svg>