<svg xmlns="http://www.w3.org/2000/svg" fill="none" viewBox="0 0 28 28" focusable="false"><rect width="28" height="20" y="4" fill="#fff" rx="3"/><mask id="Cambodia_svg__a" width="28" height="20" x="0" y="4" maskUnits="userSpaceOnUse" style="mask-type:luminance"><rect width="28" height="20" y="4" fill="#fff" rx="3"/></mask><g fill-rule="evenodd" clip-rule="evenodd" mask="url(#Cambodia_svg__a)"><path fill="#0F3EB6" d="M0 9.333h28V4H0zM0 24h28v-5.333H0z"/><path fill="#ED1A3C" d="M0 18.667h28V9.333H0z"/><path fill="#fff" d="M12 12.727h1.333V12a.667.667 0 0 1 1.334 0v.727H16V14h-4zM17.333 12a.667.667 0 0 0-.666.667V14H18v-1.333a.667.667 0 0 0-.667-.667m-6 5.333v-2.666H10l-1.333 2.666zM12 14.667v2.666h4v-2.666zm4.667 0H18l1.333 2.666h-2.666zm-6-2.667a.667.667 0 0 0-.667.667V14h1.333v-1.333a.667.667 0 0 0-.666-.667"/></g></svg>