<svg xmlns="http://www.w3.org/2000/svg" fill="none" viewBox="0 0 28 28" focusable="false"><path fill="none" d="M0 0h28v28H0z"/><rect width="28" height="20" y="4" fill="#fff" rx="3"/><rect width="28" height="20" y="4" rx="3"/><mask id="Cambodia_svg__a" width="28" height="20" x="0" y="4" mask-type="alpha" maskUnits="userSpaceOnUse"><rect width="28" height="20" y="4" fill="#fff" rx="3"/><rect width="28" height="20" y="4" stroke="#979797" stroke-opacity="0" stroke-width="0" rx="3"/></mask><g mask="url(#Cambodia_svg__a)"><path fill="#0f3eb6" fill-rule="evenodd" d="M0 9.33h28V4H0z"/><path d="M28 9.33V4H0v5.33z"/></g><g mask="url(#Cambodia_svg__a)"><path fill="#0f3eb6" fill-rule="evenodd" d="M0 24h28v-5.34H0z"/><path d="M28 24v-5.34H0V24z"/></g><g mask="url(#Cambodia_svg__a)"><path fill="#ed1a3c" fill-rule="evenodd" d="M0 18.66h28V9.33H0z"/><path d="M28 18.66V9.33H0v9.33z"/></g><g fill="#fff" mask="url(#Cambodia_svg__a)"><mask id="Cambodia_svg__b"><path fill-rule="evenodd" d="M12 12.727h1.333V12a.667.667 0 0 1 1.334 0v.727H16V14h-4zM10.667 12a.667.667 0 0 0-.667.667V14h1.333v-1.333a.667.667 0 0 0-.666-.667m6.666 0a.667.667 0 0 0-.666.667V14H18v-1.333a.667.667 0 0 0-.667-.667m-6 2.667H10l-1.333 2.666h2.666zm4.667 0h-4v2.666h4zm.667 0H18l1.333 2.666h-2.666z" clip-rule="evenodd"/></mask><path fill-rule="evenodd" d="M12 12.727h1.333V12a.667.667 0 0 1 1.334 0v.727H16V14h-4zM10.667 12a.667.667 0 0 0-.667.667V14h1.333v-1.333a.667.667 0 0 0-.666-.667m6.666 0a.667.667 0 0 0-.666.667V14H18v-1.333a.667.667 0 0 0-.667-.667m-6 2.667H10l-1.333 2.666h2.666zm4.667 0h-4v2.666h4zm.667 0H18l1.333 2.666h-2.666z" clip-rule="evenodd" mask="url(#Cambodia_svg__b)"/></g></svg>