<svg xmlns="http://www.w3.org/2000/svg" fill="none" viewBox="0 0 28 28" focusable="false"><defs><linearGradient id="Cameroon_svg__c" x1="13.333" x2="13.333" y1="4" y2="24" gradientUnits="userSpaceOnUse"><stop offset="0" stop-color="#FFDC43"/><stop offset="1" stop-color="#FDD216"/></linearGradient><filter id="Cameroon_svg__a"><feColorMatrix values="0 0 0 0 1 0 0 0 0 1 0 0 0 0 1 0 0 0 1 0"/></filter></defs><mask id="Cameroon_svg__b" width="28" height="20" x="0" y="4" maskUnits="userSpaceOnUse"><g filter="url(#Cameroon_svg__a)"><rect width="28" height="20" y="4" fill="#FFF" rx="3"/><rect width="28" height="20" y="4" stroke="#969696" stroke-opacity="0" stroke-width="0" rx="3"/></g></mask><path fill="none" d="M0 0H28V28H0z"/><rect width="28" height="20" y="4" fill="#FFF" rx="3"/><rect width="28" height="20" y="4" rx="3"/><g mask="url(#Cameroon_svg__b)"><path fill="url(#Cameroon_svg__c)" d="M13.333 4H28V24H13.333z"/><path d="M13.333 4H28V24H13.333z"/><path fill="#059170" fill-rule="evenodd" d="M0 24L9.33333 24L9.33333 4L0 4L0 24Z"/><path d="M9.33333 24L9.33333 4L0 4L0 24L9.33333 24Z"/><path fill="#E21A30" fill-rule="evenodd" d="M9.33334 24L18.6667 24L18.6667 4L9.33334 4L9.33334 24Z"/><path d="M18.6667 24L18.6667 4L9.33334 4L9.33334 24L18.6667 24Z"/><path fill="#FFDC44" fill-rule="evenodd" d="M18.6667 24L28 24L28 4L18.6667 4L18.6667 24Z"/><path d="M28 24L28 4L18.6667 4L18.6667 24L28 24Z"/><path fill="#FFDC42" fill-rule="evenodd" d="M14 15.3L12.0407 16.6967L12.7636 14.4017L10.8298 12.97L13.2359 12.9483L14 10.6667L14.7641 12.9483L17.1702 12.97L15.2364 14.4017L15.9593 16.6967L14 15.3Z"/><path d="M12.0407 16.6967L12.7636 14.4017L10.8298 12.97L13.2359 12.9483L14 10.6667L14.7641 12.9483L17.1702 12.97L15.2364 14.4017L15.9593 16.6967L14 15.3L12.0407 16.6967Z"/></g></svg>