<svg xmlns="http://www.w3.org/2000/svg" fill="none" viewBox="0 0 28 28" focusable="false"><defs><linearGradient id="Cameroon_svg__b" x1="13.333" x2="13.333" y1="4" y2="24" gradientUnits="userSpaceOnUse"><stop stop-color="#ffdc44"/><stop offset="1" stop-color="#fdd216"/></linearGradient></defs><path fill="none" d="M0 0h28v28H0z"/><rect width="28" height="20" y="4" fill="#fff" rx="3"/><rect width="28" height="20" y="4" rx="3"/><mask id="Cameroon_svg__a" width="28" height="20" x="0" y="4" mask-type="alpha" maskUnits="userSpaceOnUse"><rect width="28" height="20" y="4" fill="#fff" rx="3"/><rect width="28" height="20" y="4" stroke="#979797" stroke-opacity="0" stroke-width="0" rx="3"/></mask><g mask="url(#Cameroon_svg__a)"><path fill="url(#Cameroon_svg__b)" d="M13.333 4H28v20H13.333z"/><path d="M13.333 4H28v20H13.333z"/></g><g mask="url(#Cameroon_svg__a)"><path fill="#059170" fill-rule="evenodd" d="M0 24h9.33V4H0z"/><path d="M9.33 24V4H0v20z"/></g><g mask="url(#Cameroon_svg__a)"><path fill="#e21a30" fill-rule="evenodd" d="M9.33 24h9.33V4H9.33z"/><path d="M18.66 24V4H9.33v20z"/></g><g mask="url(#Cameroon_svg__a)"><path fill="#ffdc44" fill-rule="evenodd" d="M18.66 24H28V4h-9.34z"/><path d="M28 24V4h-9.34v20z"/></g><g mask="url(#Cameroon_svg__a)"><path fill="#ffdc42" fill-rule="evenodd" d="m14 15.3-1.96 1.39.72-2.29-1.94-1.43 2.41-.03.77-2.28.76 2.28 2.41.03-1.94 1.43.72 2.29z"/><path d="m12.04 16.69.72-2.29-1.94-1.43 2.41-.03.77-2.28.76 2.28 2.41.03-1.94 1.43.72 2.29L14 15.3z"/></g></svg>