<svg xmlns="http://www.w3.org/2000/svg" width="28" height="28" fill="none"><rect width="27.5" height="19.5" x=".25" y="4.25" fill="#fff" stroke="#D6D8DD" stroke-width=".5" rx="2.75"/><mask id="a" width="28" height="20" x="0" y="4" maskUnits="userSpaceOnUse" style="mask-type:luminance"><rect width="27.5" height="19.5" x=".25" y="4.25" fill="#fff" stroke="#fff" stroke-width=".5" rx="2.75"/></mask><g fill="#FF3131" mask="url(#a)"><path d="M20 4h8v20h-8z"/><path fill-rule="evenodd" d="M0 24h8V4H0v20ZM16.112 13.222a.333.333 0 0 1-.563-.302L16 10.667l-1.333.666-.667-2-.667 2L12 10.667l.45 2.253a.333.333 0 0 1-.562.302l-.319-.32a.333.333 0 0 0-.471 0l-.431.431-1.334-.666L10 14l-.431.43a.333.333 0 0 0 0 .472l1.764 1.765h2l.334 2h.666l.334-2h2l1.764-1.765a.333.333 0 0 0 0-.471L18 14l.667-1.333-1.334.666-.43-.43a.333.333 0 0 0-.472 0l-.32.319Z" clip-rule="evenodd"/></g></svg>