<svg xmlns="http://www.w3.org/2000/svg" fill="none" viewBox="0 0 28 28" focusable="false"><path fill="none" d="M0 0h28v28H0z"/><rect width="28" height="20" y="4" fill="#FFF" rx="3"/><rect width="27.5" height="19.5" x=".25" y="4.25" stroke="#D6D8DD" stroke-width=".5" rx="3"/><mask id="Canada_svg__a" width="28" height="20" x="0" y="4" mask-type="alpha" maskUnits="userSpaceOnUse"><rect width="28" height="20" y="4" fill="#FFF" rx="3"/><rect width="27.5" height="19.5" x=".25" y="4.25" stroke="#F5F5F5" stroke-width=".5" rx="3"/></mask><g mask="url(#Canada_svg__a)"><path fill="#FF3131" d="M20 4h8v20h-8z"/><path d="M20 4h8v20h-8z"/></g><g mask="url(#Canada_svg__a)"><path fill="#FF3131" fill-rule="evenodd" d="M0 24h8V4H0z"/><path d="M8 24V4H0v20z"/></g><g mask="url(#Canada_svg__a)"><path fill="#FF3131" fill-rule="evenodd" d="M16.11 13.22c-.24.23-.63.02-.57-.3l.46-2.26-1.34.67-.66-2-.67 2-1.33-.67.45 2.26c.06.32-.33.53-.57.3l-.32-.32a.332.332 0 0 0-.47 0l-.43.43-1.33-.67L10 14l-.44.43c-.13.13-.13.34 0 .47l1.77 1.76h2l.33 2h.67l.33-2h2l1.77-1.76c.13-.13.13-.34 0-.47L18 14l.66-1.34-1.33.67-.43-.43a.332.332 0 0 0-.47 0z"/><path d="m16 10.66-1.34.67-.66-2-.67 2-1.33-.67.45 2.26c.06.32-.33.53-.57.3l-.32-.32a.332.332 0 0 0-.47 0l-.43.43-1.33-.67L10 14l-.44.43c-.13.13-.13.34 0 .47l1.77 1.76h2l.33 2h.67l.33-2h2l1.77-1.76c.13-.13.13-.34 0-.47L18 14l.66-1.34-1.33.67-.43-.43a.332.332 0 0 0-.47 0l-.32.32c-.24.23-.63.02-.57-.3z"/></g></svg>