<svg xmlns="http://www.w3.org/2000/svg" fill="none" viewBox="0 0 28 28" focusable="false"><rect width="27.5" height="19.5" x=".25" y="4.25" fill="#fff" stroke="#D6D8DD" stroke-width=".5" rx="2.75"/><mask id="a" width="28" height="20" x="0" y="4" maskUnits="userSpaceOnUse" style="mask-type:luminance"><rect width="27.5" height="19.5" x=".25" y="4.25" fill="#fff" stroke="#fff" stroke-width=".5" rx="2.75"/></mask><g fill-rule="evenodd" clip-rule="evenodd" mask="url(#a)"><path fill="#083D96" d="M0 9.333h28V4H0v5.333Z"/><path fill="#37AE39" d="M0 18.667h28v-5.334H0v5.334Z"/><path fill="#FFD13F" d="M0 24h28v-5.333H0V24Z"/><path fill="#E42346" d="M10.667 24h6.666V4h-6.666v20Z"/><path fill="#FFD03B" d="m4.667 7.447-1.176.838.434-1.377-1.16-.86 1.443-.012.459-1.37.458 1.37 1.444.013-1.16.859.433 1.377-1.175-.838Z"/></g></svg>