<svg xmlns="http://www.w3.org/2000/svg" fill="none" viewBox="0 0 28 28" focusable="false"><path fill="none" d="M0 0h28v28H0z"/><rect width="28" height="20" y="4" fill="#FFF" rx="3"/><rect width="28" height="20" y="4" rx="3"/><mask id="CEU_svg__a" width="28" height="20" x="0" y="4" mask-type="alpha" maskUnits="userSpaceOnUse"><rect width="28" height="20" y="4" fill="#FFF" rx="3"/><rect width="28" height="20" y="4" stroke="#979797" stroke-opacity="0" stroke-width="0" rx="3"/></mask><g mask="url(#CEU_svg__a)"><path fill="#19BFBF" d="M0 4h28v20H0z"/><path d="M0 4h28v20H0z"/></g><g mask="url(#CEU_svg__a)"><mask id="CEU_svg__b" fill="#fff"><path fill-rule="evenodd" d="m16.056 20.722 1.042 1.042c.13.13.34.13.471 0l1.06-1.059a.336.336 0 0 0 .062-.087l.58-1.161c.04-.08.11-.14.193-.167l1.641-.547a.333.333 0 0 0 .228-.316v-1.66c0-.065.02-.13.056-.184l1.068-1.602a.333.333 0 0 0-.128-.483L21.333 14l-1.788-1.192a.333.333 0 0 1-.131-.383l.52-1.563a.333.333 0 0 0-.08-.34l-.423-.424a.333.333 0 0 1-.098-.236V8.079a.333.333 0 0 0-.035-.15l-.54-1.078a.333.333 0 0 0-.297-.184h-1.074a.333.333 0 0 0-.105.017l-1.874.625a.333.333 0 0 0-.13.08l-1.945 1.944-1.235 1.236a.333.333 0 0 0-.098.236v1.057c0 .088.035.173.098.236l.399.399a.333.333 0 0 0 .385.062l.643-.321c.218-.11.475.049.475.293 0 .087.034.17.096.232l.473.473a.333.333 0 0 0 .236.097h.288c.143 0 .27-.091.316-.228l.574-1.72a.334.334 0 0 0 .017-.106v-1.14c0-.09.035-.174.098-.237l1-1c.13-.13.34-.13.471 0l.261.262a.333.333 0 0 1 .063.384l-.524 1.048a.333.333 0 0 0-.036.15v.92c0 .185.15.334.334.334h.666a.333.333 0 1 1 0 .667h-.76a.333.333 0 0 0-.316.228l-.514 1.544a.333.333 0 0 1-.317.228h-1.553a.333.333 0 0 1-.298-.184l-.368-.736a.333.333 0 0 0-.534-.087l-.242.242a.333.333 0 0 0-.098.236v.195c0 .184-.149.334-.333.334h-.921a.334.334 0 0 0-.15.035l-1.192.596a.332.332 0 0 1-.149.035H9.574a.333.333 0 0 0-.317.228l-.573 1.721a.333.333 0 0 0-.017.105v.946c0 .184-.15.334-.334.334H7a.333.333 0 0 0-.333.333v2.127c0 .127.071.242.184.299l1 .5a.333.333 0 0 0 .298 0l1.06-.53c.08-.04.14-.11.168-.194l.58-1.738a.333.333 0 0 1 .166-.192l1.14-.57a.334.334 0 0 1 .149-.035h1.715c.127 0 .242.071.298.184l.54 1.079a.334.334 0 0 1 .035.149v1.116c0 .089.035.174.098.236l.333.333c.13.13.341.13.471 0l.298-.297a.333.333 0 0 0 .088-.317l-.518-2.07a.333.333 0 0 1 .64-.185l.565 1.697c.017.05.044.094.08.13m-6.723-8.055a.667.667 0 1 1-1.333 0 .667.667 0 0 1 1.333 0m2 8.666a.667.667 0 1 0 0-1.333.667.667 0 0 0 0 1.333" clip-rule="evenodd"/></mask><path fill="#FFF" fill-rule="evenodd" d="m16.056 20.722 1.042 1.042c.13.13.34.13.471 0l1.06-1.059a.336.336 0 0 0 .062-.087l.58-1.161c.04-.08.11-.14.193-.167l1.641-.547a.333.333 0 0 0 .228-.316v-1.66c0-.065.02-.13.056-.184l1.068-1.602a.333.333 0 0 0-.128-.483L21.333 14l-1.788-1.192a.333.333 0 0 1-.131-.383l.52-1.563a.333.333 0 0 0-.08-.34l-.423-.424a.333.333 0 0 1-.098-.236V8.079a.333.333 0 0 0-.035-.15l-.54-1.078a.333.333 0 0 0-.297-.184h-1.074a.333.333 0 0 0-.105.017l-1.874.625a.333.333 0 0 0-.13.08l-1.945 1.944-1.235 1.236a.333.333 0 0 0-.098.236v1.057c0 .088.035.173.098.236l.399.399a.333.333 0 0 0 .385.062l.643-.321c.218-.11.475.049.475.293 0 .087.034.17.096.232l.473.473a.333.333 0 0 0 .236.097h.288c.143 0 .27-.091.316-.228l.574-1.72a.334.334 0 0 0 .017-.106v-1.14c0-.09.035-.174.098-.237l1-1c.13-.13.34-.13.471 0l.261.262a.333.333 0 0 1 .063.384l-.524 1.048a.333.333 0 0 0-.036.15v.92c0 .185.15.334.334.334h.666a.333.333 0 1 1 0 .667h-.76a.333.333 0 0 0-.316.228l-.514 1.544a.333.333 0 0 1-.317.228h-1.553a.333.333 0 0 1-.298-.184l-.368-.736a.333.333 0 0 0-.534-.087l-.242.242a.333.333 0 0 0-.098.236v.195c0 .184-.149.334-.333.334h-.921a.334.334 0 0 0-.15.035l-1.192.596a.332.332 0 0 1-.149.035H9.574a.333.333 0 0 0-.317.228l-.573 1.721a.333.333 0 0 0-.017.105v.946c0 .184-.15.334-.334.334H7a.333.333 0 0 0-.333.333v2.127c0 .127.071.242.184.299l1 .5a.333.333 0 0 0 .298 0l1.06-.53c.08-.04.14-.11.168-.194l.58-1.738a.333.333 0 0 1 .166-.192l1.14-.57a.334.334 0 0 1 .149-.035h1.715c.127 0 .242.071.298.184l.54 1.079a.334.334 0 0 1 .035.149v1.116c0 .089.035.174.098.236l.333.333c.13.13.341.13.471 0l.298-.297a.333.333 0 0 0 .088-.317l-.518-2.07a.333.333 0 0 1 .64-.185l.565 1.697c.017.05.044.094.08.13m-6.723-8.055a.667.667 0 1 1-1.333 0 .667.667 0 0 1 1.333 0m2 8.666a.667.667 0 1 0 0-1.333.667.667 0 0 0 0 1.333" clip-rule="evenodd" mask="url(#CEU_svg__b)"/></g><g mask="url(#CEU_svg__a)"><path fill="#FFF" fill-rule="evenodd" d="M9.96 12.73c.02-.04.04-.1.04-.15v-.51c0-.05-.02-.1-.04-.15l-.39-.78c-.11-.22.05-.48.3-.48h.46c.18 0 .33.15.33.34v1.58c0 .05.01.11.04.15l.39.78a.34.34 0 0 1-.3.49h-.92a.34.34 0 0 1-.3-.49z"/><path d="M10 12.07c0-.05-.02-.1-.04-.15l-.39-.78c-.11-.22.05-.48.3-.48h.46c.18 0 .33.15.33.34v1.58c0 .05.01.11.04.15l.39.78a.34.34 0 0 1-.3.49h-.92a.34.34 0 0 1-.3-.49l.39-.78c.02-.04.04-.1.04-.15z"/></g></svg>