<svg xmlns="http://www.w3.org/2000/svg" width="28" height="28" fill="none"><rect width="28" height="20" y="4" fill="#fff" rx="3"/><mask id="a" width="28" height="20" x="0" y="4" maskUnits="userSpaceOnUse" style="mask-type:luminance"><rect width="28" height="20" y="4" fill="#fff" rx="3"/></mask><g mask="url(#a)"><path fill="#19BFBF" d="M0 4h28v20H0z"/><path fill="#fff" fill-rule="evenodd" d="m17.098 21.764-1.042-1.042a.334.334 0 0 1-.08-.13l-.567-1.698a.333.333 0 0 0-.639.187l.518 2.07a.333.333 0 0 1-.088.316l-.298.297a.333.333 0 0 1-.471 0l-.333-.333a.333.333 0 0 1-.098-.236V20.08a.334.334 0 0 0-.035-.15l-.54-1.078a.333.333 0 0 0-.298-.184h-1.715a.333.333 0 0 0-.15.035l-1.139.57a.333.333 0 0 0-.167.192l-.579 1.738a.333.333 0 0 1-.167.193l-1.06.53a.333.333 0 0 1-.3 0l-1-.5a.333.333 0 0 1-.183-.298V19c0-.184.149-.333.333-.333h1.333c.184 0 .334-.15.334-.334v-.946c0-.035.005-.071.017-.105l.573-1.72a.333.333 0 0 1 .317-.229h1.014a.333.333 0 0 0 .149-.035l1.193-.596a.333.333 0 0 1 .149-.035H13c.184 0 .333-.15.333-.334v-.195c0-.088.035-.173.098-.236l.242-.242a.333.333 0 0 1 .534.087l.367.735a.333.333 0 0 0 .299.185h1.553c.144 0 .271-.092.317-.228l.514-1.544a.333.333 0 0 1 .317-.228h.76a.333.333 0 0 0 0-.667h-.667a.333.333 0 0 1-.334-.333v-.922c0-.051.012-.102.036-.149l.523-1.048a.333.333 0 0 0-.062-.385l-.261-.26a.333.333 0 0 0-.471 0l-1 1a.333.333 0 0 0-.098.235v1.141a.334.334 0 0 1-.017.106l-.574 1.72a.333.333 0 0 1-.316.228h-.288a.333.333 0 0 1-.236-.097l-.473-.473A.328.328 0 0 1 14 12.53a.328.328 0 0 0-.475-.294l-.643.322a.333.333 0 0 1-.385-.062l-.4-.4a.334.334 0 0 1-.097-.235v-1.057c0-.089.035-.173.098-.236l1.235-1.236 1.945-1.944a.333.333 0 0 1 .13-.08l1.874-.625a.333.333 0 0 1 .105-.017h1.074c.126 0 .241.071.298.184l.54 1.079a.333.333 0 0 1 .034.149v1.783c0 .088.035.173.098.236l.423.423c.09.09.12.221.08.341l-.52 1.563c-.048.143.006.3.131.383L21.333 14l.996.498c.18.09.24.316.128.483l-1.068 1.602a.334.334 0 0 0-.056.185v1.658c0 .144-.091.271-.228.317l-1.64.547a.333.333 0 0 0-.193.167l-.581 1.161a.333.333 0 0 1-.063.087l-1.059 1.06a.333.333 0 0 1-.471 0Zm-5.765-.43a.667.667 0 1 0 0-1.334.667.667 0 0 0 0 1.333Zm-2-8.667a.667.667 0 1 1-1.333 0 .667.667 0 0 1 1.333 0Z" clip-rule="evenodd"/><path fill="#fff" fill-rule="evenodd" d="M9.965 12.737a.334.334 0 0 0 .035-.149v-.51a.334.334 0 0 0-.035-.148l-.39-.78a.333.333 0 0 1 .298-.483h.46c.184 0 .334.149.334.333v1.588c0 .052.012.103.035.15l.39.78a.333.333 0 0 1-.298.482h-.921a.333.333 0 0 1-.298-.482l.39-.78Z" clip-rule="evenodd"/></g></svg>