<svg xmlns="http://www.w3.org/2000/svg" fill="none" viewBox="0 0 28 28" focusable="false"><defs><filter id="Chile_svg__a"><feColorMatrix values="0 0 0 0 1 0 0 0 0 1 0 0 0 0 1 0 0 0 1 0"/></filter></defs><mask id="Chile_svg__b" width="28" height="20" x="0" y="4" maskUnits="userSpaceOnUse"><g filter="url(#Chile_svg__a)"><rect width="28" height="20" y="4" fill="#FFF" rx="3"/><rect width="27.5" height="19.5" x=".25" y="4.25" stroke="#F5F5F5" stroke-width=".5" rx="2.75"/></g></mask><path fill="none" d="M0 0H28V28H0z"/><rect width="28" height="20" y="4" fill="#FFF" rx="3"/><rect width="27.5" height="19.5" x=".25" y="4.25" stroke="#D6D8DD" stroke-width=".5" rx="2.75"/><g mask="url(#Chile_svg__b)"><path fill="#EA3B2E" fill-rule="evenodd" d="M0 24L28 24L28 13.3333L0 13.3333L0 24Z"/><path d="M28 24L28 13.3333L0 13.3333L0 24L28 24Z"/><path fill="#0B48C2" d="M0 4H9.333V13.333H0z"/><path d="M0 4H9.333V13.333H0z"/><path fill="#FFF" fill-rule="evenodd" d="M4.66667 9.70667L3.09924 10.824L3.67757 8.98804L2.13052 7.84262L4.05537 7.82529L4.66667 6L5.27796 7.82529L7.20282 7.84262L5.65577 8.98804L6.23409 10.824L4.66667 9.70667Z"/><path d="M3.09924 10.824L3.67757 8.98804L2.13052 7.84262L4.05537 7.82529L4.66667 6L5.27796 7.82529L7.20282 7.84262L5.65577 8.98804L6.23409 10.824L4.66667 9.70667L3.09924 10.824Z"/></g></svg>