<svg xmlns="http://www.w3.org/2000/svg" fill="none" viewBox="0 0 28 28" focusable="false"><path fill="none" d="M0 0h28v28H0z"/><rect width="28" height="20" y="4" fill="#FFF" rx="3"/><rect width="27.5" height="19.5" x=".25" y="4.25" stroke="#D6D8DD" stroke-width=".5" rx="3"/><mask id="Chile_svg__a" width="28" height="20" x="0" y="4" mask-type="alpha" maskUnits="userSpaceOnUse"><rect width="28" height="20" y="4" fill="#FFF" rx="3"/><rect width="27.5" height="19.5" x=".25" y="4.25" stroke="#F5F5F5" stroke-width=".5" rx="3"/></mask><g mask="url(#Chile_svg__a)"><path fill="#EA3B2E" fill-rule="evenodd" d="M0 24h28V13.33H0z"/><path d="M28 24V13.33H0V24z"/></g><g mask="url(#Chile_svg__a)"><path fill="#0B48C2" d="M0 4h9.333v9.333H0z"/><path d="M0 4h9.333v9.333H0z"/></g><g mask="url(#Chile_svg__a)"><path fill="#FFF" fill-rule="evenodd" d="m4.66 9.7-1.57 1.12.58-1.84-1.54-1.14 1.92-.02L4.66 6l.61 1.82 1.93.02-1.55 1.14.58 1.84z"/><path d="m3.09 10.82.58-1.84-1.54-1.14 1.92-.02L4.66 6l.61 1.82 1.93.02-1.55 1.14.58 1.84L4.66 9.7z"/></g></svg>