<svg xmlns="http://www.w3.org/2000/svg" fill="none" viewBox="0 0 28 28" focusable="false"><rect width="28" height="20" y="4" fill="#fff" rx="3"/><mask id="China_svg__a" width="28" height="20" x="0" y="4" maskUnits="userSpaceOnUse" style="mask-type:luminance"><rect width="28" height="20" y="4" fill="#fff" rx="3"/></mask><g mask="url(#China_svg__a)"><path fill="#F1361D" d="M0 4h28v20H0z"/><path fill="#FFDC42" fill-rule="evenodd" d="m10.073 7.1.968.166.726.661.165-.968.662-.726-.968-.166-.727-.661-.165.968-.661.727Zm2.594 3.388.839-.51.982.022-.51-.84L14 8.18l-.84.51-.981-.022.51.839-.022.982Zm-1.139 5.483-.82.54-.012-.983-.54-.82.982-.012.821-.54.012.982.54.821-.983.012Zm.713-2.54.977-.108.88.436-.108-.977.435-.88-.976.108-.88-.436.108.977-.436.88ZM6.667 12.227l-2.351 1.676.867-2.754-2.32-1.718 2.887-.026.917-2.738.917 2.738 2.887.026-2.32 1.718.867 2.754-2.351-1.676Z" clip-rule="evenodd"/></g></svg>