<svg xmlns="http://www.w3.org/2000/svg" fill="none" viewBox="0 0 28 28" focusable="false"><path fill="none" d="M0 0h28v28H0z"/><rect width="28" height="20" y="4" fill="#FFF" rx="3"/><rect width="28" height="20" y="4" rx="3"/><mask id="China_svg__a" width="28" height="20" x="0" y="4" mask-type="alpha" maskUnits="userSpaceOnUse"><rect width="28" height="20" y="4" fill="#FFF" rx="3"/><rect width="28" height="20" y="4" stroke="#979797" stroke-opacity="0" stroke-width="0" rx="3"/></mask><g mask="url(#China_svg__a)"><path fill="#F1361D" d="M0 4h28v20H0z"/><path d="M0 4h28v20H0z"/></g><g mask="url(#China_svg__a)"><mask id="China_svg__b" fill="#fff"><path fill-rule="evenodd" d="m10.073 7.1.968.166.726.661.165-.968.662-.726-.968-.166-.727-.661-.165.968zm3.433 2.877-.84.511.023-.982-.51-.84.982.023.839-.51-.023.982.511.839zm-1.265 3.454.977-.108.88.436-.108-.977.435-.88-.976.108-.88-.435.108.976zm-.713 2.54-.82.54-.012-.983-.54-.82.982-.012.821-.54.012.982.54.821z" clip-rule="evenodd"/></mask><path fill="#FFDC42" fill-rule="evenodd" d="m10.073 7.1.968.166.726.661.165-.968.662-.726-.968-.166-.727-.661-.165.968zm3.433 2.877-.84.511.023-.982-.51-.84.982.023.839-.51-.023.982.511.839zm-1.265 3.454.977-.108.88.436-.108-.977.435-.88-.976.108-.88-.435.108.976zm-.713 2.54-.82.54-.012-.983-.54-.82.982-.012.821-.54.012.982.54.821z" clip-rule="evenodd" mask="url(#China_svg__b)"/></g><g mask="url(#China_svg__a)"><path fill="#FFDC42" fill-rule="evenodd" d="M6.66 12.22 4.31 13.9l.87-2.76-2.32-1.71 2.88-.03.92-2.74.92 2.74 2.89.03-2.32 1.71.86 2.76z"/><path d="m4.31 13.9.87-2.76-2.32-1.71 2.88-.03.92-2.74.92 2.74 2.89.03-2.32 1.71.86 2.76-2.35-1.68z"/></g></svg>