<svg xmlns="http://www.w3.org/2000/svg" fill="none" viewBox="0 0 28 28" focusable="false"><path fill="none" d="M0 0h28v28H0z"/><rect width="28" height="20" y="4" fill="#FFF" rx="3"/><rect width="28" height="20" y="4" rx="3"/><mask id="CNA_svg__a" width="28" height="20" x="0" y="4" mask-type="alpha" maskUnits="userSpaceOnUse"><rect width="28" height="20" y="4" fill="#FFF" rx="3"/><rect width="28" height="20" y="4" stroke="#979797" stroke-opacity="0" stroke-width="0" rx="3"/></mask><g mask="url(#CNA_svg__a)"><path fill="#19BFBF" d="M0 4h28v20H0z"/><path d="M0 4h28v20H0z"/></g><g mask="url(#CNA_svg__a)"><path fill="#FFF" fill-rule="evenodd" d="m13.33 18.66-.58-1.15a.32.32 0 0 0-.29-.18h-.33c-.09 0-.17-.04-.23-.1l-2.47-2.47a.31.31 0 0 1-.1-.24v-1.05a.35.35 0 0 0-.1-.24l-1.17-1.17a.5.5 0 0 1-.09-.15l-.6-2.4a.33.33 0 0 0-.22-.24l-1.8-.6c-.01-.01-.03-.01-.04-.02l-1.13-.56a.34.34 0 0 1-.18-.3V7c0-.19.14-.34.33-.34h.86c.09 0 .17.04.24.1l.47.47c.06.06.14.1.23.1h1.06c.09 0 .17-.04.24-.1l.47-.47c.06-.06.14-.1.23-.1h2.45c.05 0 .11.01.15.04l1.19.59c.05.03.1.04.15.04h1.18c.05 0 .1-.01.15-.04l1.19-.59c.05-.03.1-.04.15-.04H17c.18 0 .33.15.33.34v.66c0 .19-.15.34-.33.34h-.67a.32.32 0 0 0-.33.33v1.46c0 .13.07.24.18.3l.67.33c.22.11.48-.05.48-.3V9c0-.19.15-.34.33-.34H19c.18 0 .33.15.33.34 0 .18.15.33.33.33H21c.18 0 .33.15.33.33v.95c0 .03-.01.07-.02.1l-.62 1.88c-.02.05-.05.09-.08.13l-1.91 1.9q-.045.045-.06.09l-.61 1.21q-.03.075-.03.15V17c0 .18-.15.33-.34.33h-.13c-.12 0-.24-.07-.29-.19l-.49-.96a.32.32 0 0 0-.29-.18h-1.59c-.13 0-.24.07-.3.18l-.5 1c-.05.09-.05.2 0 .3l.5 1c.06.11.17.18.3.18h.99c.09 0 .17.04.23.1l1.14 1.14c.06.06.1.14.1.23V21c0 .18-.15.33-.33.33h-.8c-.13 0-.24-.07-.3-.19l-.48-.96a.34.34 0 0 0-.3-.18h-.92c-.13 0-.24-.08-.3-.19z"/><path d="M12.75 17.51a.32.32 0 0 0-.29-.18h-.33c-.09 0-.17-.04-.23-.1l-2.47-2.47a.31.31 0 0 1-.1-.24v-1.05a.35.35 0 0 0-.1-.24l-1.17-1.17a.5.5 0 0 1-.09-.15l-.6-2.4a.33.33 0 0 0-.22-.24l-1.8-.6c-.01 0-.03-.02-.04-.02l-1.13-.56a.34.34 0 0 1-.18-.3V7c0-.19.14-.34.33-.34h.86c.09 0 .17.04.24.1l.47.47c.06.06.14.1.23.1h1.06c.09 0 .17-.04.24-.1l.47-.47c.06-.06.14-.1.23-.1h2.45c.05 0 .11.01.15.04l1.19.59c.05.03.1.04.15.04h1.18c.05 0 .1-.01.15-.04l1.19-.59c.05-.03.1-.04.15-.04H17c.18 0 .33.15.33.34v.66c0 .19-.15.34-.33.34h-.67a.32.32 0 0 0-.33.33v1.46c0 .13.07.24.18.3l.67.33c.22.11.48-.05.48-.3V9c0-.19.15-.34.33-.34H19c.18 0 .33.15.33.34 0 .18.15.33.33.33H21c.18 0 .33.15.33.33v.95c0 .03-.01.07-.02.1l-.62 1.88c-.02.05-.05.09-.08.13l-1.91 1.9q-.045.045-.06.09l-.61 1.21q-.03.075-.03.15V17c0 .18-.15.33-.34.33h-.13c-.12 0-.24-.07-.29-.19l-.49-.96a.32.32 0 0 0-.29-.18h-1.59c-.13 0-.24.07-.3.18l-.5 1c-.05.09-.05.2 0 .3l.5 1c.06.11.17.18.3.18h.99c.09 0 .17.04.23.1l1.14 1.14c.06.06.1.14.1.23V21c0 .18-.15.33-.33.33h-.8c-.13 0-.24-.07-.3-.19l-.48-.96a.34.34 0 0 0-.3-.18h-.92c-.13 0-.24-.08-.3-.19l-.57-1.15z"/></g></svg>