<svg xmlns="http://www.w3.org/2000/svg" fill="none" viewBox="0 0 28 28" focusable="false"><defs><linearGradient id="COC_svg__c" x1="0" x2="0" y1="4" y2="24" gradientUnits="userSpaceOnUse"><stop offset="0" stop-color="#18BEBE"/><stop offset="1" stop-color="#10ACAC"/></linearGradient><filter id="COC_svg__a"><feColorMatrix values="0 0 0 0 1 0 0 0 0 1 0 0 0 0 1 0 0 0 1 0"/></filter></defs><mask id="COC_svg__b" width="28" height="20" x="0" y="4" maskUnits="userSpaceOnUse"><g filter="url(#COC_svg__a)"><rect width="28" height="20" y="4" fill="#FFF" rx="3"/><rect width="28" height="20" y="4" stroke="#969696" stroke-opacity="0" stroke-width="0" rx="3"/></g></mask><path fill="none" d="M0 0H28V28H0z"/><rect width="28" height="20" y="4" fill="#FFF" rx="3"/><rect width="28" height="20" y="4" rx="3"/><g mask="url(#COC_svg__b)"><path fill="url(#COC_svg__c)" d="M0 4H28V24H0z"/><path d="M0 4H28V24H0z"/><path fill="#FFF" fill-rule="evenodd" d="M13.794 7.33341L13.4445 7.33341C13.3723 7.33341 13.3022 7.35681 13.2445 7.40008L10.7205 9.29303C10.685 9.31968 10.6445 9.33897 10.6014 9.34974L8.03551 10.0001C8.01192 10.0001 7.98904 10.0056 7.96729 10.0164L5.43273 11.2837C5.36822 11.316 5.31591 11.3683 5.28366 11.4328L4.08652 13.8271C4.03303 13.9341 4.04096 14.0615 4.10731 14.161L5.27736 15.9161C5.31387 15.9709 5.33335 16.0352 5.33335 16.101L5.33335 17.862C5.33335 17.9504 5.36847 18.0352 5.43098 18.0977L6.49679 19.1635C6.59825 19.265 6.75324 19.2901 6.88157 19.226L10.5963 17.3686C10.6426 17.3455 10.6936 17.3334 10.7454 17.3334L13.2127 17.3334C13.2906 17.3334 13.3662 17.3608 13.4261 17.4107L17.2406 20.5895C17.3005 20.6394 17.3761 20.6667 17.454 20.6667L19.8216 20.6667C19.9331 20.6667 20.0371 20.611 20.099 20.5183L22.6107 16.7507C22.6472 16.696 22.6667 16.6316 22.6667 16.5658L22.6667 14.101C22.6667 14.0352 22.6472 13.9709 22.6107 13.9161L20 10.0001L18.0971 6.82858C18.0369 6.72818 17.9284 6.66675 17.8113 6.66675L17.3927 6.66675C17.1248 6.66675 16.9906 6.99069 17.1801 7.18014C17.2716 7.27168 17.2943 7.41151 17.2364 7.52729L16.7588 8.48249C16.7023 8.59541 16.5869 8.66675 16.4607 8.66675L14.8727 8.66675C14.7464 8.66675 14.631 8.59541 14.5745 8.48249L14.0921 7.51768C14.0357 7.40475 13.9203 7.33341 13.794 7.33341ZM19.3333 21.3334L18 21.3334L18.431 21.7644C18.5612 21.8946 18.7722 21.8946 18.9024 21.7644L19.3333 21.3334Z"/><path d="M13.794 7.33341L13.4445 7.33341C13.3723 7.33341 13.3022 7.35681 13.2445 7.40008L10.7205 9.29303C10.685 9.31968 10.6445 9.33897 10.6014 9.34974L8.03551 10.0001C8.01192 10.0001 7.98904 10.0056 7.96729 10.0164L5.43273 11.2837C5.36822 11.316 5.31591 11.3683 5.28366 11.4328L4.08652 13.8271C4.03303 13.9341 4.04096 14.0615 4.10731 14.161L5.27736 15.9161C5.31387 15.9709 5.33335 16.0352 5.33335 16.101L5.33335 17.862C5.33335 17.9504 5.36847 18.0352 5.43098 18.0977L6.49679 19.1635C6.59825 19.265 6.75324 19.2901 6.88157 19.226L10.5963 17.3686C10.6426 17.3455 10.6936 17.3334 10.7454 17.3334L13.2127 17.3334C13.2906 17.3334 13.3662 17.3608 13.4261 17.4107L17.2406 20.5895C17.3005 20.6394 17.3761 20.6667 17.454 20.6667L19.8216 20.6667C19.9331 20.6667 20.0371 20.611 20.099 20.5183L22.6107 16.7507C22.6472 16.696 22.6667 16.6316 22.6667 16.5658L22.6667 14.101C22.6667 14.0352 22.6472 13.9709 22.6107 13.9161L20 10.0001L18.0971 6.82858C18.0369 6.72818 17.9284 6.66675 17.8113 6.66675L17.3927 6.66675C17.1248 6.66675 16.9906 6.99069 17.1801 7.18014C17.2716 7.27168 17.2943 7.41151 17.2364 7.52729L16.7588 8.48249C16.7023 8.59541 16.5869 8.66675 16.4607 8.66675L14.8727 8.66675C14.7464 8.66675 14.631 8.59541 14.5745 8.48249L14.0921 7.51768C14.0357 7.40475 13.9203 7.33341 13.794 7.33341ZM19.3333 21.3334L18 21.3334L18.431 21.7644C18.5612 21.8946 18.7722 21.8946 18.9024 21.7644L19.3333 21.3334Z"/></g></svg>