<svg xmlns="http://www.w3.org/2000/svg" fill="none" viewBox="0 0 28 28" focusable="false"><defs><linearGradient id="COC_svg__b" x1="0" x2="0" y1="4" y2="24" gradientUnits="userSpaceOnUse"><stop stop-color="#19bfbf"/><stop offset="1" stop-color="#10acac"/></linearGradient></defs><path fill="none" d="M0 0h28v28H0z"/><rect width="28" height="20" y="4" fill="#fff" rx="3"/><rect width="28" height="20" y="4" rx="3"/><mask id="COC_svg__a" width="28" height="20" x="0" y="4" mask-type="alpha" maskUnits="userSpaceOnUse"><rect width="28" height="20" y="4" fill="#fff" rx="3"/><rect width="28" height="20" y="4" stroke="#979797" stroke-opacity="0" stroke-width="0" rx="3"/></mask><g mask="url(#COC_svg__a)"><path fill="url(#COC_svg__b)" d="M0 4h28v20H0z"/><path d="M0 4h28v20H0z"/></g><g fill="#fff" mask="url(#COC_svg__a)"><mask id="COC_svg__c"><path fill-rule="evenodd" d="M13.445 7.333h.349c.126 0 .242.072.298.185l.483.964a.33.33 0 0 0 .298.185h1.588a.33.33 0 0 0 .298-.185l.477-.955a.3.3 0 0 0-.056-.347.3.3 0 0 1 .213-.513h.418c.117 0 .226.061.286.162L20 10l2.61 3.916c.037.055.057.12.057.185v2.465q-.001.1-.056.185l-2.512 3.767a.33.33 0 0 1-.277.149h-2.368a.33.33 0 0 1-.213-.078l-3.815-3.178a.33.33 0 0 0-.213-.078h-2.468a.33.33 0 0 0-.149.036l-3.714 1.857a.33.33 0 0 1-.385-.062L5.43 18.098a.33.33 0 0 1-.098-.236v-1.761q-.001-.1-.056-.185l-1.17-1.755a.33.33 0 0 1-.02-.334l1.197-2.394a.33.33 0 0 1 .149-.15l2.534-1.267c.022-.01.045-.025.069-.025L10.6 9.35a.3.3 0 0 0 .12-.057L13.244 7.4a.33.33 0 0 1 .2-.067m5.888 14H18l.431.431c.13.13.341.13.471 0z" clip-rule="evenodd"/></mask><path fill-rule="evenodd" d="M13.445 7.333h.349c.126 0 .242.072.298.185l.483.964a.33.33 0 0 0 .298.185h1.588a.33.33 0 0 0 .298-.185l.477-.955a.3.3 0 0 0-.056-.347.3.3 0 0 1 .213-.513h.418c.117 0 .226.061.286.162L20 10l2.61 3.916c.037.055.057.12.057.185v2.465q-.001.1-.056.185l-2.512 3.767a.33.33 0 0 1-.277.149h-2.368a.33.33 0 0 1-.213-.078l-3.815-3.178a.33.33 0 0 0-.213-.078h-2.468a.33.33 0 0 0-.149.036l-3.714 1.857a.33.33 0 0 1-.385-.062L5.43 18.098a.33.33 0 0 1-.098-.236v-1.761q-.001-.1-.056-.185l-1.17-1.755a.33.33 0 0 1-.02-.334l1.197-2.394a.33.33 0 0 1 .149-.15l2.534-1.267c.022-.01.045-.025.069-.025L10.6 9.35a.3.3 0 0 0 .12-.057L13.244 7.4a.33.33 0 0 1 .2-.067m5.888 14H18l.431.431c.13.13.341.13.471 0z" clip-rule="evenodd" mask="url(#COC_svg__c)"/></g></svg>