<svg xmlns="http://www.w3.org/2000/svg" fill="none" viewBox="0 0 28 28" focusable="false"><path fill="none" d="M0 0H28V28H0z" transform="rotate(-180 14 14)"/><rect width="28" height="20" y="4" fill="green" rx="3"/><rect width="27.5" height="19.5" x=".25" y="4.25" rx="2.75"/><g fill="#FFE000"><path fill-rule="evenodd" d="M16.8069 11.6997C16.2109 11.152 15.4157 10.8176 14.5424 10.8176C12.6935 10.8176 11.1947 12.3164 11.1947 14.1653C11.1947 16.0142 12.6935 17.513 14.5424 17.513C15.4154 17.513 16.2104 17.1788 16.8064 16.6314C16.4397 16.8126 16.0268 16.9144 15.5901 16.9144C14.0719 16.9144 12.8412 15.6836 12.8412 14.1654C12.8412 12.6472 14.0719 11.4165 15.5901 11.4165C16.027 11.4165 16.4401 11.5184 16.8069 11.6997Z"/><circle cx="4.79" cy="9.379" r="3.445"/><path fill-rule="evenodd" d="M18.7877 12.705 19.4453 12.4689 19.0688 13.0575 19.6634 13.4244 18.9685 13.497 19.0523 14.1907 18.5623 13.6927 18.0722 14.1907 18.156 13.497 17.4611 13.4244 18.0557 13.0575 17.6792 12.4689 18.3368 12.705 18.5623 12.0436 18.7877 12.705ZM22.7674 8.38148 23.4251 8.14537 23.0485 8.73399 23.6432 9.10095 22.9482 9.17356 23.0321 9.86726 22.542 9.36918 22.0519 9.86726 22.1358 9.17356 21.4408 9.10095 22.0354 8.73399 21.6589 8.14537 22.3166 8.38148 22.542 7.72009 22.7674 8.38148ZM26.3133 11.6727 26.971 11.4366 26.5944 12.0252 27.1891 12.3922 26.4941 12.4648 26.578 13.1585 26.0879 12.6604 25.5978 13.1585 25.6817 12.4648 24.9867 12.3922 25.5813 12.0252 25.2048 11.4366 25.8625 11.6727 26.0879 11.0114 26.3133 11.6727ZM22.7674 19.0187 23.4251 18.7826 23.0485 19.3712 23.6432 19.7382 22.9482 19.8108 23.0321 20.5045 22.542 20.0064 22.0519 20.5045 22.1358 19.8108 21.4408 19.7382 22.0354 19.3712 21.6589 18.7826 22.3166 19.0187 22.542 18.3573 22.7674 19.0187ZM24.3418 14.5755 24.8052 14.6184 24.4556 14.9256 24.5579 15.3795 24.1578 15.1419 23.7577 15.3795 23.86 14.9256 23.5104 14.6184 23.9737 14.5755 24.1578 14.1481 24.3418 14.5755Z"/></g><path fill="#7B3100" fill-rule="evenodd" d="M5.06575 8.74647C5.1456 8.74569 5.21096 8.8098 5.21173 8.88965C5.22029 9.77447 5.17932 11.0027 4.78735 11.8159C4.68906 12.0198 4.05332 11.963 4.14998 11.7625C4.6362 10.7538 4.9337 10.0423 4.92257 8.89245C4.92179 8.8126 4.9859 8.74724 5.06575 8.74647Z"/><path fill="green" d="M3.57728 7.25686C4.24166 7.27974 4.52418 8.18087 4.6769 8.01284C4.53944 6.22589 6.08214 6.96449 6.0362 6.97428C5.46346 7.09646 5.19088 8.0424 5.3871 8.17324C5.47697 8.23317 5.71547 7.86779 6.0362 7.86779C6.8552 7.86779 6.95768 8.69508 6.90677 9.05146C6.1813 8.59326 5.65896 8.67421 5.98275 8.90636C6.30654 9.13851 6.16602 9.86601 6.10493 10.09C5.93693 9.66237 5.39932 9.15531 5.14273 9.11255C4.822 9.05909 3.9514 10.3191 3.89798 10.0137C3.84455 9.7082 4.19743 8.91327 4.14998 8.80708C4.07881 8.6478 2.76523 8.93691 2.1034 9.20419C2.06013 9.17619 2.09885 8.99647 2.5998 8.50163C3.10076 8.00678 3.76564 7.93907 4.03546 7.96708C3.66127 7.72271 3.04577 7.23855 3.57728 7.25686Z"/><path d="M3.57728 7.25686C3.04577 7.23855 3.66127 7.72271 4.03546 7.96708C3.76564 7.93907 3.10076 8.00678 2.5998 8.50163C2.09885 8.99647 2.06013 9.17619 2.1034 9.20419C2.76523 8.93691 4.07881 8.6478 4.14998 8.80708C4.19743 8.91327 3.84455 9.7082 3.89798 10.0137C3.9514 10.3191 4.822 9.05909 5.14273 9.11255C5.39932 9.15531 5.93693 9.66237 6.10493 10.09C6.16602 9.86601 6.30654 9.13851 5.98275 8.90636C5.65896 8.67421 6.1813 8.59326 6.90677 9.05146C6.95768 8.69508 6.8552 7.86779 6.0362 7.86779C5.71547 7.86779 5.47697 8.23317 5.3871 8.17324C5.19088 8.0424 5.46346 7.09646 6.0362 6.97428C6.08214 6.96449 4.53944 6.22589 4.6769 8.01284C4.52418 8.18087 4.24166 7.27974 3.57728 7.25686Z"/></svg>