<svg xmlns="http://www.w3.org/2000/svg" fill="none" viewBox="0 0 28 28" focusable="false"><defs><clipPath id="Cocos_Keeling_Islands_svg__a"><path fill="#fff" fill-opacity="0" d="M28 28H0V0h28z"/></clipPath></defs><path fill="none" d="M28 28H0V0h28z"/><g clip-path="url(#Cocos_Keeling_Islands_svg__a)"><rect width="28" height="20" y="4" fill="green" rx="3"/><rect width="27.5" height="19.5" x=".25" y="4.25" rx="3"/><path fill="#FFE000" fill-rule="evenodd" d="M14.542 10.818a3.348 3.348 0 1 0 2.264 5.813 2.749 2.749 0 1 1 0-4.932 3.336 3.336 0 0 0-2.264-.881" clip-rule="evenodd"/><circle cx="4.79" cy="9.379" r="3.445" fill="#FFE000"/><path fill="#FFE000" fill-rule="evenodd" d="m18.56 12.04-.23.66-.66-.24.38.59-.59.37.69.07-.08.7.49-.5.49.5-.09-.7.7-.07-.6-.37.38-.59-.66.24zM22.54 7.72l-.23.66-.66-.24.38.59-.59.37.69.07-.08.69.49-.5.49.5-.09-.69.7-.07-.6-.37.38-.59-.66.24zM26.08 11.01l-.22.66-.66-.24.38.59-.6.37.7.07-.09.69.49-.49.49.49-.08-.69.69-.07-.59-.37.38-.59-.66.24zM22.54 18.35l-.23.66-.66-.23.38.59-.59.36.69.08-.08.69.49-.5.49.5-.09-.69.7-.08-.6-.36.38-.59-.66.23zM24.15 14.14l-.18.43-.46.04.35.31-.11.45.4-.23.4.23-.1-.45.35-.31-.46-.04z"/><path fill="#7B3100" fill-rule="evenodd" d="M5.06 8.74c.08 0 .15.06.15.14.01.89-.04 2.12-.43 2.93-.1.2-.73.15-.64-.05.49-1.01.79-1.72.78-2.87 0-.08.06-.15.14-.15"/><path fill="green" d="M3.57 7.25c.67.02.95.93 1.1.76-.14-1.79 1.41-1.05 1.36-1.04-.57.12-.84 1.07-.65 1.2.09.06.33-.31.65-.31.82 0 .92.83.87 1.19-.72-.46-1.25-.38-.92-.15.32.23.18.96.12 1.19-.17-.43-.71-.94-.96-.98-.32-.06-1.19 1.2-1.25.9-.05-.31.3-1.1.25-1.21-.07-.16-1.38.13-2.04.4-.04-.03-.01-.21.49-.7.51-.5 1.17-.57 1.44-.54-.37-.24-.99-.73-.46-.71"/><path d="M3.57 7.25c-.53-.02.09.47.46.71-.27-.03-.93.04-1.44.54-.5.49-.53.67-.49.7.66-.27 1.97-.56 2.04-.4.05.11-.3.9-.25 1.21.06.3.93-.96 1.25-.9.25.04.79.55.96.98.06-.23.2-.96-.12-1.19-.33-.23.2-.31.92.15.05-.36-.05-1.19-.87-1.19-.32 0-.56.37-.65.31-.19-.13.08-1.08.65-1.2.05-.01-1.5-.75-1.36 1.04-.15.17-.43-.74-1.1-.76"/></g></svg>