<svg xmlns="http://www.w3.org/2000/svg" fill="none" viewBox="0 0 28 28" focusable="false"><defs><filter id="Colombia_svg__a"><feColorMatrix values="0 0 0 0 1 0 0 0 0 1 0 0 0 0 1 0 0 0 1 0"/></filter><filter id="Colombia_svg__c" width="28" height="5.333" x="0" y="13.333" color-interpolation-filters="sRGB" filterUnits="userSpaceOnUse"><feFlood flood-opacity="0" result="BackgroundImageFix"/><feOffset in="SourceAlpha"/><feColorMatrix values="0 0 0 0 0 0 0 0 0 0 0 0 0 0 0 0 0 0 0.06 0"/><feBlend in2="BackgroundImageFix" result="effect_dropShadow_1"/><feBlend in="SourceGraphic" in2="effect_dropShadow_1" result="shape"/></filter><filter id="Colombia_svg__d" width="28" height="5.333" x="0" y="18.667" color-interpolation-filters="sRGB" filterUnits="userSpaceOnUse"><feFlood flood-opacity="0" result="BackgroundImageFix"/><feOffset in="SourceAlpha"/><feColorMatrix values="0 0 0 0 0 0 0 0 0 0 0 0 0 0 0 0 0 0 0.06 0"/><feBlend in2="BackgroundImageFix" result="effect_dropShadow_1"/><feBlend in="SourceGraphic" in2="effect_dropShadow_1" result="shape"/></filter></defs><mask id="Colombia_svg__b" width="28" height="20" x="0" y="4" maskUnits="userSpaceOnUse"><g filter="url(#Colombia_svg__a)"><rect width="28" height="20" y="4" fill="#FFF" rx="3"/><rect width="28" height="20" y="4" stroke="#969696" stroke-opacity="0" stroke-width="0" rx="3"/></g></mask><path fill="none" d="M0 0H28V28H0z"/><rect width="28" height="20" y="4" fill="#FFF" rx="3"/><rect width="28" height="20" y="4" rx="3"/><g mask="url(#Colombia_svg__b)"><g filter="url(#Colombia_svg__c)"><path fill="#0748AE" fill-rule="evenodd" d="M0 18.6666L28 18.6666L28 13.3333L0 13.3333L0 18.6666Z"/><path d="M28 18.6666L28 13.3333L0 13.3333L0 18.6666L28 18.6666Z"/></g><g filter="url(#Colombia_svg__d)"><path fill="#DE2035" fill-rule="evenodd" d="M0 24L28 24L28 18.6667L0 18.6667L0 24Z"/><path d="M28 24L28 18.6667L0 18.6667L0 24L28 24Z"/></g><path fill="#FFD935" fill-rule="evenodd" d="M0 13.3333L28 13.3333L28 4L0 4L0 13.3333Z"/><path d="M28 13.3333L28 4L0 4L0 13.3333L28 13.3333Z"/></g></svg>