<svg xmlns="http://www.w3.org/2000/svg" fill="none" viewBox="0 0 28 28" focusable="false"><path fill="none" d="M0 0h28v28H0z"/><rect width="28" height="20" y="4" fill="#fff" rx="3"/><rect width="27.5" height="19.5" x=".25" y="4.25" stroke="#d6d8dd" stroke-width=".5" rx="3"/><mask id="Comoros_svg__a" width="28" height="20" x="0" y="4" mask-type="alpha" maskUnits="userSpaceOnUse"><rect width="28" height="20" y="4" fill="#fff" rx="3"/><rect width="27.5" height="19.5" x=".25" y="4.25" stroke="#f5f5f5" stroke-width=".5" rx="3"/></mask><g mask="url(#Comoros_svg__a)"><path fill="#ffcb49" fill-rule="evenodd" d="M0 9.33h28V4H0z"/><path d="M28 9.33V4H0v5.33z"/></g><g mask="url(#Comoros_svg__a)"><path fill="#dc1d34" fill-rule="evenodd" d="M0 18.66h28v-5.33H0z"/><path d="M28 18.66v-5.33H0v5.33z"/></g><g mask="url(#Comoros_svg__a)"><path fill="#4985d4" fill-rule="evenodd" d="M0 24h28v-5.34H0z"/><path d="M28 24v-5.34H0V24z"/></g><g mask="url(#Comoros_svg__a)"><path fill="#4ba343" fill-rule="evenodd" d="m0 24 13.33-10L0 4z"/><path d="M13.33 14 0 4v20z"/></g><g fill="#fff" mask="url(#Comoros_svg__a)"><mask id="Comoros_svg__b"><path fill-rule="evenodd" d="M6.333 17.874a4 4 0 1 1 0-7.748 4.002 4.002 0 0 0 0 7.748M8 11.334a.667.667 0 1 1-1.333 0 .667.667 0 0 1 1.333 0m-.667 3.333a.667.667 0 1 0 0-1.334.667.667 0 0 0 0 1.334m.667 2a.667.667 0 1 1-1.333 0 .667.667 0 0 1 1.333 0" clip-rule="evenodd"/></mask><path fill-rule="evenodd" d="M6.333 17.874a4 4 0 1 1 0-7.748 4.002 4.002 0 0 0 0 7.748M8 11.334a.667.667 0 1 1-1.333 0 .667.667 0 0 1 1.333 0m-.667 3.333a.667.667 0 1 0 0-1.334.667.667 0 0 0 0 1.334m.667 2a.667.667 0 1 1-1.333 0 .667.667 0 0 1 1.333 0" clip-rule="evenodd" mask="url(#Comoros_svg__b)"/></g></svg>