<svg xmlns="http://www.w3.org/2000/svg" fill="none" viewBox="0 0 28 28" focusable="false"><defs><filter id="Congo_Republic_svg__a"><feColorMatrix values="0 0 0 0 1 0 0 0 0 1 0 0 0 0 1 0 0 0 1 0"/></filter></defs><mask id="Congo_Republic_svg__b" width="28" height="20" x="0" y="4" maskUnits="userSpaceOnUse"><g filter="url(#Congo_Republic_svg__a)"><rect width="28" height="20" y="4" fill="#FFF" rx="3"/><rect width="28" height="20" y="4" stroke="#969696" stroke-opacity="0" stroke-width="0" rx="3"/></g></mask><path fill="none" d="M0 0H28V28H0z"/><rect width="28" height="20" y="4" fill="#FFF" rx="3"/><rect width="28" height="20" y="4" rx="3"/><g mask="url(#Congo_Republic_svg__b)"><path fill="#F33630" fill-rule="evenodd" d="M6.66669 22.6667L26.6667 4L28 4L28 24L6.66669 24L6.66669 22.6667Z"/><path d="M26.6667 4L28 4L28 24L6.66669 24L6.66669 22.6667L26.6667 4Z"/><path fill="#009643" fill-rule="evenodd" d="M0 18.6667L20 0L21.3333 0L21.3333 20L0 20L0 18.6667Z" transform="rotate(180 10.667 12)"/><path d="M20 0L21.3333 0L21.3333 20L0 20L0 18.6667L20 0Z" transform="rotate(180 10.667 12)"/><path fill="#FCDF4A" fill-rule="evenodd" d="M0 -1.4803e-16L38.6667 -1.4803e-16L38.6667 6.66667L0 6.66667L0 -1.4803e-16Z" transform="rotate(134 14.708 7.389)"/><path d="M38.6667 -1.4803e-16L38.6667 6.66667L0 6.66667L0 -1.4803e-16L38.6667 -1.4803e-16Z" transform="rotate(134 14.708 7.389)"/></g></svg>