<svg xmlns="http://www.w3.org/2000/svg" fill="none" viewBox="0 0 32 32" focusable="false"><path fill="none" d="M1 2h28v28H1z"/><rect width="28" height="20" x="1" y="6" fill="#fff" rx="3"/><rect width="28" height="20" x="1" y="6" rx="3"/><mask id="Congo_Republic_svg__a" width="28" height="20" x="1" y="6" mask-type="alpha" maskUnits="userSpaceOnUse"><rect width="28" height="20" x="1" y="6" fill="#fff" rx="3"/><rect width="28" height="20" x="1" y="6" stroke="#979797" stroke-opacity="0" stroke-width="0" rx="3"/></mask><g mask="url(#Congo_Republic_svg__a)"><path fill="#f33630" fill-rule="evenodd" d="M7.66 24.66 27.66 6H29v20H7.66z"/><path d="M27.66 6H29v20H7.66v-1.34z"/></g><g mask="url(#Congo_Republic_svg__a)"><path fill="#009643" fill-rule="evenodd" d="M22.33 7.33 2.33 26H1V6h21.33z"/><path d="M2.33 26H1V6h21.33v1.33z"/></g><g mask="url(#Congo_Republic_svg__a)"><path fill="#fcdf4a" fill-rule="evenodd" d="M31.24 3.94 4.38 31.75l-4.8-4.63L26.44-.69z"/><path d="m4.38 31.75-4.8-4.63L26.44-.69l4.8 4.63z"/></g></svg>