<svg xmlns="http://www.w3.org/2000/svg" fill="none" viewBox="0 0 28 28" focusable="false"><rect width="28" height="20" y="4" fill="#fff" rx="3"/><mask id="Cook_Islands_svg__a" width="28" height="20" x="0" y="4" maskUnits="userSpaceOnUse" style="mask-type:luminance"><rect width="28" height="20" y="4" fill="#fff" rx="3"/></mask><g mask="url(#Cook_Islands_svg__a)"><path fill="#062365" d="M0 4h28v20H0z"/><path fill="#DB1E36" stroke="#fff" stroke-width=".667" d="M0 3.667h-.901l.684.586 4.55 3.9v1.009l-4.527 3.233-.14.1v1.44l.51-.32 5.253-3.282h1.13l4.523 3.23a.554.554 0 0 0 .682-.87L7.667 9.18V8.171l4.387-3.133a.67.67 0 0 0 .28-.543V3.4l-.51.318L6.57 7h-1.13L.86 3.729l-.088-.062H0Z"/><path fill="#fff" fill-rule="evenodd" d="M0 7.333V10h4.667v3.333c0 .368.298.667.666.667h1.334a.667.667 0 0 0 .666-.667V10H12a.667.667 0 0 0 .667-.667V8A.667.667 0 0 0 12 7.333H7.333V4H4.667v3.333z" clip-rule="evenodd"/><path fill="#DB1E36" fill-rule="evenodd" d="M0 8h5.333V4h1.334v4H12v1.333H6.667v4H5.333v-4H0z" clip-rule="evenodd"/><path stroke="#fff" stroke-dasharray="0.1 1.7" stroke-linecap="round" stroke-width="1.333" d="M20 18a4 4 0 1 0 0-8 4 4 0 0 0 0 8Z" clip-rule="evenodd"/></g></svg>