<svg xmlns="http://www.w3.org/2000/svg" width="28" height="28" fill="none"><rect width="27.5" height="19.5" x=".25" y="4.25" fill="#fff" stroke="#D6D8DD" stroke-width=".5" rx="2.75"/><mask id="a" width="28" height="20" x="0" y="4" maskUnits="userSpaceOnUse" style="mask-type:luminance"><rect width="27.5" height="19.5" x=".25" y="4.25" fill="#fff" stroke="#fff" stroke-width=".5" rx="2.75"/></mask><g fill-rule="evenodd" clip-rule="evenodd" mask="url(#a)"><path fill="#FF202D" d="M0 10.667h28V4H0v6.667Z"/><path fill="#1895DB" d="m10.667 9.333.666-.666.667.666v1.334h-1.333V9.333Zm2.666 0L14 8.667l.667.666v1.334h-1.334V9.333Zm3.334-.666L16 9.333v1.334h1.333V9.333l-.666-.666Z" opacity=".5"/><path fill="#191F94" d="M12.667 8.667 12 9.333v1.334h1.333V9.333l-.666-.666Zm2.666 0-.666.666v1.334H16V9.333l-.667-.666Z" opacity=".5"/><path fill="#2027AC" d="M0 24h28v-6.667H0V24Z"/><path fill="url(#b)" d="M12 10.667h-.667L10.667 12H12v1.333h-1.333v1.334H12V16h-1.333v1.333H12v1.334h1.333v-1.334h1.334v1.334H16v-1.334h1.333V16H16v-1.333h1.333v-1.334H16V12h1.333l-.666-1.333H16V12h-1.333v-1.333h-1.334V12H12v-1.333Zm1.333 2.666V12h1.334v1.333h-1.334Zm0 1.334v-1.334H12v1.334h1.333Zm1.334 0h-1.334V16H12v1.333h1.333V16h1.334v1.333H16V16h-1.333v-1.333Zm0 0H16v-1.334h-1.333v1.334Z"/></g><defs><linearGradient id="b" x1="10.667" x2="10.667" y1="10.667" y2="18.667" gradientUnits="userSpaceOnUse"><stop stop-color="#FF212E"/><stop offset="1" stop-color="#FD0D1B"/></linearGradient></defs></svg>