<svg xmlns="http://www.w3.org/2000/svg" fill="none" viewBox="0 0 28 28" focusable="false"><defs><linearGradient id="Croatia_svg__d" x1="10.667" x2="10.667" y1="10.667" y2="18.667" gradientUnits="userSpaceOnUse"><stop stop-color="#ff212e"/><stop offset="1" stop-color="#fd0d1b"/></linearGradient></defs><path fill="none" d="M0 0h28v28H0z"/><rect width="28" height="20" y="4" fill="#fff" rx="3"/><rect width="27.5" height="19.5" x=".25" y="4.25" stroke="#d6d8dd" stroke-width=".5" rx="3"/><mask id="Croatia_svg__a" width="28" height="20" x="0" y="4" mask-type="alpha" maskUnits="userSpaceOnUse"><rect width="28" height="20" y="4" fill="#fff" rx="3"/><rect width="27.5" height="19.5" x=".25" y="4.25" stroke="#f5f5f5" stroke-width=".5" rx="3"/></mask><g mask="url(#Croatia_svg__a)"><path fill="#ff202d" fill-rule="evenodd" d="M0 10.66h28V4H0z"/><path d="M28 10.66V4H0v6.66z"/></g><g mask="url(#Croatia_svg__a)" opacity=".5"><mask id="Croatia_svg__b" fill="#fff"><path fill-rule="evenodd" d="m10.667 9.333.666-.666.667.666v1.334h-1.333zm2.666 0L14 8.667l.667.666v1.334h-1.334zm3.334-.666L16 9.333v1.334h1.333V9.333z" clip-rule="evenodd"/></mask><path fill="#1895db" fill-rule="evenodd" d="m10.667 9.333.666-.666.667.666v1.334h-1.333zm2.666 0L14 8.667l.667.666v1.334h-1.334zm3.334-.666L16 9.333v1.334h1.333V9.333z" clip-rule="evenodd" mask="url(#Croatia_svg__b)"/></g><g mask="url(#Croatia_svg__a)" opacity=".5"><mask id="Croatia_svg__c" fill="#fff"><path fill-rule="evenodd" d="M12.667 8.667 12 9.333v1.334h1.333V9.333zm2.666 0-.666.666v1.334H16V9.333z" clip-rule="evenodd"/></mask><path fill="#191f94" fill-rule="evenodd" d="M12.667 8.667 12 9.333v1.334h1.333V9.333zm2.666 0-.666.666v1.334H16V9.333z" clip-rule="evenodd" mask="url(#Croatia_svg__c)"/></g><g mask="url(#Croatia_svg__a)"><path fill="#2027ac" fill-rule="evenodd" d="M0 24h28v-6.67H0z"/><path d="M28 24v-6.67H0V24z"/></g><g mask="url(#Croatia_svg__a)"><mask id="Croatia_svg__e" fill="#fff"><path fill-rule="evenodd" d="M11.333 10.667H12V12h-1.333zm2 0h1.334V12h-1.334zm2.667 0h.667L17.333 12H16zM12 12h1.333v1.333H12zm2.667 0H16v1.333h-1.333zm-4 1.333H12v1.334h-1.333zm2.666 0h1.334v1.334h-1.334zm2.667 0h1.333v1.334H16zm-4 1.334h1.333V16H12zm2.667 0H16V16h-1.333zm-4 1.333H12v1.333h-1.333zm2.666 0h1.334v1.333h-1.334zM16 16h1.333v1.333H16zm-4 1.333h1.333v1.334H12zm2.667 0H16v1.334h-1.333z" clip-rule="evenodd"/></mask><path fill="url(#Croatia_svg__d)" fill-rule="evenodd" d="M11.333 10.667H12V12h-1.333zm2 0h1.334V12h-1.334zm2.667 0h.667L17.333 12H16zM12 12h1.333v1.333H12zm2.667 0H16v1.333h-1.333zm-4 1.333H12v1.334h-1.333zm2.666 0h1.334v1.334h-1.334zm2.667 0h1.333v1.334H16zm-4 1.334h1.333V16H12zm2.667 0H16V16h-1.333zm-4 1.333H12v1.333h-1.333zm2.666 0h1.334v1.333h-1.334zM16 16h1.333v1.333H16zm-4 1.333h1.333v1.334H12zm2.667 0H16v1.334h-1.333z" clip-rule="evenodd" mask="url(#Croatia_svg__e)"/></g></svg>