<svg xmlns="http://www.w3.org/2000/svg" fill="none" viewBox="0 0 28 28" focusable="false"><path fill="none" d="M0 0h28v28H0z"/><rect width="28" height="20" y="4" fill="#FFF" rx="3"/><rect width="27.5" height="19.5" x=".25" y="4.25" stroke="#D6D8DD" stroke-width=".5" rx="3"/><mask id="Cuba_svg__a" width="28" height="20" x="0" y="4" mask-type="alpha" maskUnits="userSpaceOnUse"><rect width="28" height="20" y="4" fill="#FFF" rx="3"/><rect width="27.5" height="19.5" x=".25" y="4.25" stroke="#F5F5F5" stroke-width=".5" rx="3"/></mask><g mask="url(#Cuba_svg__a)"><path fill="#0B389F" fill-rule="evenodd" d="M0 8h28V4H0z"/><path d="M28 8V4H0v4z"/></g><g mask="url(#Cuba_svg__a)"><path fill="#0B389F" fill-rule="evenodd" d="M0 16h28v-4H0z"/><path d="M28 16v-4H0v4z"/></g><g mask="url(#Cuba_svg__a)"><path fill="#0B389F" fill-rule="evenodd" d="M0 24h28v-4H0z"/><path d="M28 24v-4H0v4z"/></g><g mask="url(#Cuba_svg__a)"><path fill="#E12A43" fill-rule="evenodd" d="m0 4 13.33 10L0 24z"/><path d="M13.33 14 0 24V4z"/></g><g mask="url(#Cuba_svg__a)"><path fill="#FFF" fill-rule="evenodd" d="m4.66 15.02-1.57 1.13.6-1.84-1.56-1.14h1.93l.6-1.84.6 1.84H7.2l-1.57 1.14.6 1.84z"/><path d="m3.09 16.15.6-1.84-1.56-1.14h1.93l.6-1.84.6 1.84H7.2l-1.57 1.14.6 1.84-1.57-1.13z"/></g></svg>