<svg xmlns="http://www.w3.org/2000/svg" fill="none" viewBox="0 0 28 28" focusable="false"><rect width="27.5" height="19.5" x=".25" y="4.25" fill="#fff" stroke="#D6D8DD" stroke-width=".5" rx="2.75"/><mask id="Cyprus_svg__a" width="28" height="20" x="0" y="4" maskUnits="userSpaceOnUse" style="mask-type:luminance"><rect width="27.5" height="19.5" x=".25" y="4.25" fill="#fff" stroke="#fff" stroke-width=".5" rx="2.75"/></mask><g mask="url(#Cyprus_svg__a)"><path fill="#E7832C" fill-rule="evenodd" d="M20 7.333c.363-.181.732.236.506.574l-.439.659a.605.605 0 0 1-.168.168l-1.844 1.23a.674.674 0 0 0-.102.083l-.148.148a.667.667 0 0 0 0 .943l.39.39c.26.261.26.683 0 .943l-.522.523a.667.667 0 0 1-.77.124l-.307-.153a.667.667 0 0 0-.894.298l-.245.49a.666.666 0 0 1-.386.334l-1.635.546a.669.669 0 0 1-.21.034h-.814a.667.667 0 0 0-.596.368l-.184.369a.667.667 0 0 1-.895.298l-1.974-.987a.667.667 0 0 1-.173-.125L7.53 13.53a.667.667 0 0 1-.196-.472v-.586c0-.26.211-.471.472-.471.125 0 .245-.05.333-.138l1-1a.667.667 0 0 1 .471-.195h.577a.667.667 0 0 0 .633-.456l.328-.986a.667.667 0 0 1 .763-.443l2.61.522c.097.02.196.017.292-.007l2.45-.613a.667.667 0 0 0 .137-.05L18.667 8 20 7.333" clip-rule="evenodd"/><path fill="#445128" fill-rule="evenodd" d="M14 20a.667.667 0 1 0 0-1.333A.667.667 0 0 0 14 20" clip-rule="evenodd"/><path stroke="#445128" stroke-linecap="round" stroke-width="1.333" d="M16 18.667s2-.667 2.667-2M12 18.667s-2-.667-2.667-2" opacity=".75"/></g></svg>