<svg xmlns="http://www.w3.org/2000/svg" fill="none" viewBox="0 0 28 28" focusable="false"><path fill="none" d="M0 0h28v28H0z"/><rect width="28" height="20" y="4" fill="#FFF" rx="3"/><rect width="27.5" height="19.5" x=".25" y="4.25" stroke="#D6D8DD" stroke-width=".5" rx="3"/><mask id="Cyprus_svg__a" width="28" height="20" x="0" y="4" mask-type="alpha" maskUnits="userSpaceOnUse"><rect width="28" height="20" y="4" fill="#FFF" rx="3"/><rect width="27.5" height="19.5" x=".25" y="4.25" stroke="#F5F5F5" stroke-width=".5" rx="3"/></mask><g mask="url(#Cyprus_svg__a)"><path fill="#E7832C" fill-rule="evenodd" d="M20 7.33c.36-.18.73.23.5.57l-.44.66c-.04.07-.1.12-.17.17l-1.84 1.23c-.04.02-.07.05-.1.08l-.15.15c-.26.26-.26.68 0 .94l.39.39c.26.26.26.69 0 .95l-.52.52c-.2.2-.51.25-.77.12l-.31-.15a.664.664 0 0 0-.89.3l-.25.49c-.08.16-.22.28-.38.33l-1.64.55q-.105.03-.21.03h-.81c-.26 0-.49.14-.6.37l-.18.37c-.17.33-.57.46-.9.3l-1.97-.99a.5.5 0 0 1-.17-.12l-1.07-1.07a.67.67 0 0 1-.19-.47v-.58c0-.26.21-.47.47-.47.12 0 .24-.05.33-.14l1-1c.13-.13.3-.2.47-.2h.58c.29 0 .54-.18.63-.45l.33-.99a.67.67 0 0 1 .77-.44l2.6.52c.1.02.2.02.3-.01l2.45-.61c.04-.01.09-.03.13-.05L18.66 8z"/><path d="M20.06 8.56c-.04.07-.1.12-.17.17l-1.84 1.23c-.04.02-.07.05-.1.08l-.15.15c-.26.26-.26.68 0 .94l.39.39c.26.26.26.69 0 .95l-.52.52c-.2.2-.51.25-.77.12l-.31-.15a.664.664 0 0 0-.89.3l-.25.49c-.08.16-.22.28-.38.33l-1.64.55q-.105.03-.21.03h-.81c-.26 0-.49.14-.6.37l-.18.37c-.17.33-.57.46-.9.3l-1.97-.99a.5.5 0 0 1-.17-.12l-1.07-1.07a.67.67 0 0 1-.19-.47v-.58c0-.26.21-.47.47-.47.12 0 .24-.05.33-.14l1-1c.13-.13.3-.2.47-.2h.58c.29 0 .54-.18.63-.45l.33-.99a.67.67 0 0 1 .77-.44l2.6.52c.1.02.2.02.3-.01l2.45-.61c.04-.01.09-.03.13-.05L18.66 8 20 7.33c.36-.18.73.23.5.57z"/></g><g mask="url(#Cyprus_svg__a)"><path fill="#445128" fill-rule="evenodd" d="M14 20c.36 0 .66-.3.66-.67s-.3-.67-.66-.67A.67.67 0 0 0 14 20"/><path d="M14.66 19.33c0-.37-.3-.67-.66-.67A.67.67 0 0 0 14 20c.36 0 .66-.3.66-.67"/></g><g mask="url(#Cyprus_svg__a)" opacity=".75"><path fill="none" d="m16.22 19.27-.01.02a.66.66 0 0 1-.85-.42.66.66 0 0 1 .42-.84l.03.01zm1.85-2.88v-.03c.16-.33.56-.46.89-.29.33.16.46.56.3.89l-.03.01z"/><path stroke="#445128" stroke-linecap="round" stroke-width="1.333" d="M16 18.66s2-.66 2.66-2"/></g><g mask="url(#Cyprus_svg__a)" opacity=".75"><path fill="none" d="m11.77 19.27.01.02c.36.12.73-.06.85-.42a.66.66 0 0 0-.42-.84l-.03.01zm-1.85-2.88v-.03a.65.65 0 0 0-.89-.29c-.33.16-.46.56-.3.89l.03.01z"/><path stroke="#445128" stroke-linecap="round" stroke-width="1.333" d="M12 18.66s-2-.66-2.67-2"/></g></svg>