<svg xmlns="http://www.w3.org/2000/svg" fill="none" viewBox="0 0 28 28" focusable="false"><path fill="none" d="M0 0h28v28H0z"/><rect width="28" height="20" y="4" fill="#fff" rx="3"/><rect width="27.5" height="19.5" x=".25" y="4.25" stroke="#d6d8dd" stroke-width=".5" rx="3"/><mask id="Denmark_svg__a" width="28" height="20" x="0" y="4" mask-type="alpha" maskUnits="userSpaceOnUse"><rect width="28" height="20" y="4" fill="#fff" rx="3"/><rect width="27.5" height="19.5" x=".25" y="4.25" stroke="#f5f5f5" stroke-width=".5" rx="3"/></mask><g mask="url(#Denmark_svg__a)"><mask id="Denmark_svg__b" fill="#fff"><path fill-rule="evenodd" d="M12 4h14a2 2 0 0 1 2 2v6H12zM8 4H2a2 2 0 0 0-2 2v6h8zM0 16v6a2 2 0 0 0 2 2h6v-8zm12 8h14a2 2 0 0 0 2-2v-6H12z" clip-rule="evenodd"/></mask><path fill="#ef264d" fill-rule="evenodd" d="M12 4h14a2 2 0 0 1 2 2v6H12zM8 4H2a2 2 0 0 0-2 2v6h8zM0 16v6a2 2 0 0 0 2 2h6v-8zm12 8h14a2 2 0 0 0 2-2v-6H12z" clip-rule="evenodd" mask="url(#Denmark_svg__b)"/></g></svg>