<svg xmlns="http://www.w3.org/2000/svg" fill="none" viewBox="0 0 28 28" focusable="false"><rect width="27.5" height="19.5" x=".25" y="4.25" fill="#fff" stroke="#d6d8dd" stroke-width=".5" rx="2.75"/><mask id="Denmark_svg__a" width="28" height="20" x="0" y="4" maskUnits="userSpaceOnUse" style="mask-type:luminance"><rect width="27.5" height="19.5" x=".25" y="4.25" fill="#fff" stroke="#fff" stroke-width=".5" rx="2.75"/></mask><g mask="url(#Denmark_svg__a)"><path fill="#ef264d" fill-rule="evenodd" d="M2 4a2 2 0 0 0-2 2v6h8V4zm10 0v8h16V6a2 2 0 0 0-2-2zm16 12H12v8h14a2 2 0 0 0 2-2zM8 24v-8H0v6a2 2 0 0 0 2 2z" clip-rule="evenodd"/></g></svg>