<svg xmlns="http://www.w3.org/2000/svg" fill="none" viewBox="0 0 28 28" focusable="false"><defs><filter id="Djibouti_svg__a"><feColorMatrix values="0 0 0 0 1 0 0 0 0 1 0 0 0 0 1 0 0 0 1 0"/></filter></defs><mask id="Djibouti_svg__b" width="28" height="20" x="0" y="4" maskUnits="userSpaceOnUse"><g filter="url(#Djibouti_svg__a)"><rect width="28" height="20" y="4" fill="#FFF" rx="3"/><rect width="28" height="20" y="4" stroke="#969696" stroke-opacity="0" stroke-width="0" rx="3"/></g></mask><path fill="none" d="M0 0H28V28H0z"/><rect width="28" height="20" y="4" fill="#FFF" rx="3"/><rect width="28" height="20" y="4" rx="3"/><g mask="url(#Djibouti_svg__b)"><path fill="#1DC837" fill-rule="evenodd" d="M0 24L28 24L28 13.3334L0 13.3334L0 24Z"/><path d="M28 24L28 13.3334L0 13.3334L0 24L28 24Z"/><path fill="#82C5F5" fill-rule="evenodd" d="M0 13.3333L28 13.3333L28 4L0 4L0 13.3333Z"/><path d="M28 13.3333L28 4L0 4L0 13.3333L28 13.3333Z"/><path fill="#FFF" fill-rule="evenodd" d="M0 4L13.3333 14L0 24L0 4Z"/><path d="M13.3333 14L0 24L0 4L13.3333 14Z"/><path fill="#E21C21" fill-rule="evenodd" d="M4.66665 15.3L2.70736 16.6967L3.43027 14.4017L1.49646 12.9699L3.90253 12.9482L4.66665 10.6666L5.43077 12.9482L7.83683 12.9699L5.90302 14.4017L6.62593 16.6967L4.66665 15.3Z"/><path d="M2.70736 16.6967L3.43027 14.4017L1.49646 12.9699L3.90253 12.9482L4.66665 10.6666L5.43077 12.9482L7.83683 12.9699L5.90302 14.4017L6.62593 16.6967L4.66665 15.3L2.70736 16.6967Z"/></g></svg>