<svg xmlns="http://www.w3.org/2000/svg" fill="none" viewBox="0 0 28 28" focusable="false"><path fill="none" d="M0 0h28v28H0z"/><rect width="28" height="20" y="4" fill="#FFF" rx="3"/><rect width="28" height="20" y="4" rx="3"/><mask id="Djibouti_svg__a" width="28" height="20" x="0" y="4" mask-type="alpha" maskUnits="userSpaceOnUse"><rect width="28" height="20" y="4" fill="#FFF" rx="3"/><rect width="28" height="20" y="4" stroke="#979797" stroke-opacity="0" stroke-width="0" rx="3"/></mask><g mask="url(#Djibouti_svg__a)"><path fill="#1DC837" fill-rule="evenodd" d="M0 24h28V13.33H0z"/><path d="M28 24V13.33H0V24z"/></g><g mask="url(#Djibouti_svg__a)"><path fill="#82C5F5" fill-rule="evenodd" d="M0 13.33h28V4H0z"/><path d="M28 13.33V4H0v9.33z"/></g><g mask="url(#Djibouti_svg__a)"><path fill="#FFF" fill-rule="evenodd" d="m0 4 13.33 10L0 24z"/><path d="M13.33 14 0 24V4z"/></g><g mask="url(#Djibouti_svg__a)"><path fill="#E21C21" fill-rule="evenodd" d="M4.66 15.3 2.7 16.69l.73-2.29-1.94-1.44 2.41-.02.76-2.28.77 2.28 2.4.02L5.9 14.4l.72 2.29z"/><path d="m2.7 16.69.73-2.29-1.94-1.44 2.41-.02.76-2.28.77 2.28 2.4.02L5.9 14.4l.72 2.29-1.96-1.39z"/></g></svg>