<svg xmlns="http://www.w3.org/2000/svg" fill="none" viewBox="0 0 28 28" focusable="false"><defs><linearGradient id="Dominica_svg__e" x1="9.333" x2="9.333" y1="9.333" y2="18.667" gradientUnits="userSpaceOnUse"><stop stop-color="#E02C42"/><stop offset="1" stop-color="#D22036"/></linearGradient></defs><path fill="none" d="M0 0h28v28H0z"/><rect width="28" height="20" y="4" fill="#FFF" rx="3"/><rect width="28" height="20" y="4" rx="3"/><mask id="Dominica_svg__a" width="28" height="20" x="0" y="4" mask-type="alpha" maskUnits="userSpaceOnUse"><rect width="28" height="20" y="4" fill="#FFF" rx="3"/><rect width="28" height="20" y="4" stroke="#979797" stroke-opacity="0" stroke-width="0" rx="3"/></mask><g mask="url(#Dominica_svg__a)"><path fill="#108753" fill-rule="evenodd" d="M0 12h28V4H0z"/><path d="M28 12V4H0v8z"/></g><g mask="url(#Dominica_svg__a)"><path fill="#108753" fill-rule="evenodd" d="M0 24h28v-8H0z"/><path d="M28 24v-8H0v8z"/></g><g mask="url(#Dominica_svg__a)"><mask id="Dominica_svg__b" fill="#fff"><path fill-rule="evenodd" d="M16 24h-4v-8H0v-4h12V4h4v8h12v4H16z" clip-rule="evenodd"/></mask><path fill="#FFF" fill-rule="evenodd" d="M16 24h-4v-8H0v-4h12V4h4v8h12v4H16z" clip-rule="evenodd" mask="url(#Dominica_svg__b)"/></g><g mask="url(#Dominica_svg__a)"><mask id="Dominica_svg__c" fill="#fff"><path fill-rule="evenodd" d="M14.667 24h-1.334v-9.333H0v-1.334h13.333V4h1.334v9.333H28v1.334H14.667z" clip-rule="evenodd"/></mask><path fill="#262626" fill-rule="evenodd" d="M14.667 24h-1.334v-9.333H0v-1.334h13.333V4h1.334v9.333H28v1.334H14.667z" clip-rule="evenodd" mask="url(#Dominica_svg__c)"/></g><g mask="url(#Dominica_svg__a)"><mask id="Dominica_svg__d" fill="#fff"><path fill-rule="evenodd" d="M13.333 24H12V13.333H0V12h12V4h1.333v8H28v1.333H13.333z" clip-rule="evenodd"/></mask><path fill="#FCD449" fill-rule="evenodd" d="M13.333 24H12V13.333H0V12h12V4h1.333v8H28v1.333H13.333z" clip-rule="evenodd" mask="url(#Dominica_svg__d)"/></g><g mask="url(#Dominica_svg__a)"><path fill="url(#Dominica_svg__e)" fill-rule="evenodd" d="M14 18.66a4.665 4.665 0 1 0-.01-9.33 4.665 4.665 0 0 0 .01 9.33"/><path d="M18.66 14c0-2.58-2.09-4.67-4.66-4.67-2.58 0-4.67 2.09-4.67 4.67a4.665 4.665 0 0 0 9.33 0"/></g><g mask="url(#Dominica_svg__a)"><path stroke="#0E673F" stroke-dasharray="0.666667 2.66667" stroke-width="1.333" d="M17.33 13.99c0-1.84-1.49-3.33-3.33-3.33-1.85 0-3.34 1.49-3.34 3.33 0 1.85 1.49 3.34 3.34 3.34 1.84 0 3.33-1.49 3.33-3.34Z"/></g><g mask="url(#Dominica_svg__a)"><path fill="#0E673F" fill-rule="evenodd" d="M14 15.33c.73 0 .66-.6.66-1.34 0-.73.07-1.33-.66-1.33-.74 0-.67.6-.67 1.33 0 .74-.07 1.34.67 1.34"/><path d="M14.66 13.99c0-.73.07-1.33-.66-1.33-.74 0-.67.6-.67 1.33 0 .74-.07 1.34.67 1.34.73 0 .66-.6.66-1.34"/></g></svg>