<svg xmlns="http://www.w3.org/2000/svg" width="28" height="28" fill="none"><rect width="28" height="20" y="4" fill="#fff" rx="3"/><mask id="a" width="28" height="20" x="0" y="4" maskUnits="userSpaceOnUse" style="mask-type:luminance"><rect width="28" height="20" y="4" fill="#fff" rx="3"/></mask><g clip-rule="evenodd" mask="url(#a)"><path fill="#108753" fill-rule="evenodd" d="M0 12h28V4H0v8ZM0 24h28v-8H0v8Z"/><path fill="#fff" fill-rule="evenodd" d="M16 24h-4v-8H0v-4h12V4h4v8h12v4H16v8Z"/><path fill="#262626" fill-rule="evenodd" d="M14.667 24h-1.334v-9.333H0v-1.334h13.333V4h1.334v9.333H28v1.334H14.667V24Z"/><path fill="#FCD449" fill-rule="evenodd" d="M13.333 24H12V13.333H0V12h12V4h1.333v8H28v1.333H13.333V24Z"/><path fill="url(#b)" fill-rule="evenodd" d="M14 18.667a4.667 4.667 0 1 0 0-9.334 4.667 4.667 0 0 0 0 9.334Z"/><path stroke="#0E673F" stroke-dasharray="0.67 2.67" stroke-linecap="round" stroke-width="1.333" d="M14 17.333a3.333 3.333 0 1 0 0-6.666 3.333 3.333 0 0 0 0 6.666Z"/><path fill="#0E673F" fill-rule="evenodd" d="M14 15.333c.736 0 .667-.597.667-1.333s.07-1.333-.667-1.333c-.736 0-.667.597-.667 1.333s-.07 1.333.667 1.333Z"/></g><defs><linearGradient id="b" x1="9.333" x2="9.333" y1="9.333" y2="18.667" gradientUnits="userSpaceOnUse"><stop stop-color="#E02C42"/><stop offset="1" stop-color="#D22036"/></linearGradient></defs></svg>