<svg xmlns="http://www.w3.org/2000/svg" fill="none" viewBox="0 0 28 28" focusable="false"><path fill="none" d="M0 0h28v28H0z"/><rect width="28" height="20" y="4" fill="#FFF" rx="3"/><rect width="27.5" height="19.5" x=".25" y="4.25" stroke="#D6D8DD" stroke-width=".5" rx="3"/><mask id="Dominican_Republic_svg__a" width="28" height="20" x="0" y="4" mask-type="alpha" maskUnits="userSpaceOnUse"><rect width="28" height="20" y="4" fill="#FFF" rx="3"/><rect width="27.5" height="19.5" x=".25" y="4.25" stroke="#F5F5F5" stroke-width=".5" rx="3"/></mask><g mask="url(#Dominican_Republic_svg__a)"><path fill="#083D7A" fill-rule="evenodd" d="M0 12h12V4H0z"/><path d="M12 12V4H0v8z"/></g><g mask="url(#Dominican_Republic_svg__a)"><path fill="#083D7A" fill-rule="evenodd" d="M16 24h12v-8H16z"/><path d="M28 24v-8H16v8z"/></g><g mask="url(#Dominican_Republic_svg__a)"><path fill="#DF1E35" fill-rule="evenodd" d="M0 24h12v-8H0z"/><path d="M12 24v-8H0v8z"/></g><g mask="url(#Dominican_Republic_svg__a)"><path fill="#DF1E35" fill-rule="evenodd" d="M16 12h12V4H16z"/><path d="M28 12V4H16v8z"/></g><g mask="url(#Dominican_Republic_svg__a)"><path fill="none" d="M12.58 12.58c-.78.78-.78 2.05 0 2.83s2.05.78 2.83 0 .78-2.05 0-2.83"/><path fill="#0F6D1A" fill-rule="evenodd" d="M12.86 13.29q.08-.13.19-.24l-.47-.47c-.78.78-.78 2.05 0 2.83s2.05.78 2.83 0 .78-2.05 0-2.83l-.47.47q.11.11.19.24.06.1.1.2.05.11.07.23.03.13.03.28 0 .14-.03.27-.02.12-.07.23-.04.1-.1.2-.08.13-.19.24t-.24.19q-.1.06-.2.1-.11.05-.23.07-.13.03-.27.03-.15 0-.28-.03-.12-.02-.23-.07-.1-.04-.2-.1-.13-.08-.24-.19t-.19-.24q-.06-.1-.1-.2-.04-.11-.07-.23-.03-.13-.03-.27 0-.15.03-.28.03-.12.07-.23.04-.1.1-.2"/></g><g mask="url(#Dominican_Republic_svg__a)"><path fill="#042F60" fill-rule="evenodd" d="M14 14.66a.666.666 0 0 0 0-1.33c-.37 0-.67.3-.67.67 0 .36.3.66.67.66"/><path d="M14.66 14c0-.37-.3-.67-.66-.67-.37 0-.67.3-.67.67a.666.666 0 0 0 1.33 0"/></g></svg>