<svg xmlns="http://www.w3.org/2000/svg" fill="none" viewBox="0 0 28 28" focusable="false"><path fill="none" d="M0 0h28v28H0z"/><rect width="28" height="20" y="4" fill="#fff" rx="3"/><rect width="28" height="20" y="4" rx="3"/><mask id="Ecuador_svg__a" width="28" height="20" x="0" y="4" mask-type="alpha" maskUnits="userSpaceOnUse"><rect width="28" height="20" y="4" fill="#fff" rx="3"/><rect width="28" height="20" y="4" stroke="#979797" stroke-opacity="0" stroke-width="0" rx="3"/></mask><g mask="url(#Ecuador_svg__a)"><path fill="#0748ae" fill-rule="evenodd" d="M0 18.66h28v-5.33H0z"/><path d="M28 18.66v-5.33H0v5.33z"/></g><g mask="url(#Ecuador_svg__a)"><path fill="#de2035" fill-rule="evenodd" d="M0 23.99h28v-5.33H0z"/><path d="M28 23.99v-5.33H0v5.33z"/></g><g mask="url(#Ecuador_svg__a)"><path fill="#ffd935" fill-rule="evenodd" d="M0 13.33h28V4H0z"/><path d="M28 13.33V4H0v9.33z"/></g><g mask="url(#Ecuador_svg__a)"><mask id="Ecuador_svg__b" fill="#fff"><path fill-rule="evenodd" d="M12.4 12a2.667 2.667 0 1 0 3.2 0l-.933 2.8h-1.334z" clip-rule="evenodd"/></mask><path fill="#ffd935" fill-rule="evenodd" d="M12.4 12a2.667 2.667 0 1 0 3.2 0l-.933 2.8h-1.334z" clip-rule="evenodd" mask="url(#Ecuador_svg__b)"/></g><g mask="url(#Ecuador_svg__a)"><path fill="#5fc0dc" fill-rule="evenodd" d="m14 11.33.66 3.33h-1.33z"/><path d="M14.66 14.66h-1.33l.67-3.33z"/></g><g mask="url(#Ecuador_svg__a)" opacity=".66"><path fill="none" d="m17.41 9.69.02-.01c.18.06.27.24.21.42-.05.18-.24.27-.42.21l-.01-.02zm-6.63.6-.01.02c-.18.06-.37-.03-.42-.21-.06-.18.03-.36.21-.42l.02.01z"/><path stroke="#3f2821" stroke-linecap="round" stroke-linejoin="round" stroke-width=".667" d="m17.33 10-2-.67L14 10.66l-1.34-1.33-2 .67"/></g></svg>