<svg xmlns="http://www.w3.org/2000/svg" fill="none" viewBox="0 0 28 28" focusable="false"><rect width="28" height="20" y="4" fill="#fff" rx="3"/><mask id="Ecuador_svg__a" width="28" height="20" x="0" y="4" maskUnits="userSpaceOnUse" style="mask-type:luminance"><rect width="28" height="20" y="4" fill="#fff" rx="3"/></mask><g mask="url(#Ecuador_svg__a)"><path fill="#0748AE" fill-rule="evenodd" d="M0 18.667h28v-5.334H0v5.334Z" clip-rule="evenodd"/><path fill="#DE2035" fill-rule="evenodd" d="M0 24h28v-5.333H0V24Z" clip-rule="evenodd"/><path fill="#FFD935" fill-rule="evenodd" d="M0 13.333h28V4H0v9.333Z" clip-rule="evenodd"/><path fill="#FFD935" fill-rule="evenodd" d="M12.4 12a2.667 2.667 0 1 0 3.2 0l-.933 2.8h-1.334L12.4 12Z" clip-rule="evenodd"/><path fill="#5FC0DC" fill-rule="evenodd" d="m14 11.333.667 3.334h-1.334L14 11.333Z" clip-rule="evenodd"/><path stroke="#3F2821" stroke-linecap="round" stroke-linejoin="round" stroke-width=".667" d="m17.333 10-2-.667L14 10.667l-1.333-1.334-2 .667" opacity=".66"/></g></svg>