<svg xmlns="http://www.w3.org/2000/svg" fill="none" viewBox="0 0 28 28" focusable="false"><path fill="none" d="M0 0h28v28H0z"/><rect width="28" height="20" y="4" fill="#FFF" rx="3"/><rect width="27.5" height="19.5" x=".25" y="4.25" stroke="#D6D8DD" stroke-width=".5" rx="3"/><mask id="Egypt_svg__a" width="28" height="20" x="0" y="4" mask-type="alpha" maskUnits="userSpaceOnUse"><rect width="28" height="20" y="4" fill="#FFF" rx="3"/><rect width="27.5" height="19.5" x=".25" y="4.25" stroke="#F5F5F5" stroke-width=".5" rx="3"/></mask><g mask="url(#Egypt_svg__a)"><path fill="#E41D33" fill-rule="evenodd" d="M0 10.66h28V4H0z"/><path d="M28 10.66V4H0v6.66z"/></g><g mask="url(#Egypt_svg__a)"><path fill="#262626" fill-rule="evenodd" d="M0 24h28v-6.67H0z"/><path d="M28 24v-6.67H0V24z"/></g><g fill-rule="evenodd" mask="url(#Egypt_svg__a)"><path fill="#F4B32E" fill-opacity=".25" d="M10.66 12.66c0-.37.3-.66.67-.66h.46c.13 0 .24.07.3.18l.57 1.15S13.39 12 14 12c.66 0 1.33 1.33 1.33 1.33l.57-1.15c.06-.11.17-.18.3-.18h.46c.37 0 .67.29.67.66v2.09c0 .53-.6.85-1.04.55l-.96-.64h-.67v.67c0 .37-.3.67-.66.67a.67.67 0 0 1-.67-.67v-.67h-.67l-.96.64a.667.667 0 0 1-1.04-.55z"/><path fill="#C6A846" d="m12.31 12.63-.22-.45a.34.34 0 0 0-.3-.18h-.46c-.37 0-.67.29-.67.66v2.09c0 .53.6.85 1.04.55l.9-.6.06-.04h.67v.67c0 .37.3.67.67.67.36 0 .66-.3.66-.67v-.67h.67l.06.04.9.6c.44.3 1.04-.02 1.04-.55v-2.09c0-.37-.3-.66-.67-.66h-.46c-.13 0-.24.07-.3.18l-.21.43-.36.72s-.17-.33-.42-.66c-.25-.34-.58-.67-.91-.67-.31 0-.65.34-.91.68-.25.33-.43.65-.43.65zm3.38 1.47.97.65v-2.09h-.25zm-.77-.1-.19-.37q-.03-.07-.09-.17-.13-.22-.26-.4-.17-.22-.31-.34-.04-.02-.06-.04l-.06.04q-.14.12-.32.35-.14.18-.28.4-.07.11-.1.18l-.19.35zm-2.62.1-.72-1.44h-.25v2.09z"/></g></svg>