<svg xmlns="http://www.w3.org/2000/svg" fill="none" viewBox="0 0 28 28" focusable="false"><rect width="27.5" height="19.5" x=".25" y="4.25" fill="#fff" stroke="#d6d8dd" stroke-width=".5" rx="2.75"/><mask id="Egypt_svg__a" width="28" height="20" x="0" y="4" maskUnits="userSpaceOnUse" style="mask-type:luminance"><rect width="27.5" height="19.5" x=".25" y="4.25" fill="#fff" stroke="#fff" stroke-width=".5" rx="2.75"/></mask><g mask="url(#Egypt_svg__a)"><path fill="#e41d33" fill-rule="evenodd" d="M0 10.667h28V4H0z" clip-rule="evenodd"/><path fill="#262626" fill-rule="evenodd" d="M0 24h28v-6.667H0z" clip-rule="evenodd"/><path fill="#f4b32e" fill-opacity=".25" stroke="#c6a846" stroke-width=".667" d="m12.369 13.482.284.569.306-.557.001-.002.005-.01a3 3 0 0 1 .108-.18c.075-.12.178-.276.298-.431.122-.157.252-.302.378-.404.134-.11.217-.134.251-.134.057 0 .151.031.281.136.126.1.253.242.369.398a4.5 4.5 0 0 1 .36.566l.02.038.004.01.001.001.298.597.299-.597.574-1.149h.46c.185 0 .334.15.334.334v2.087a.333.333 0 0 1-.518.278l-.964-.643-.084-.056h-1.101v1a.333.333 0 0 1-.666 0v-1h-1.101l-.084.056-.964.643a.333.333 0 0 1-.518-.278v-2.087c0-.184.15-.334.333-.334h.461z"/></g></svg>