<svg xmlns="http://www.w3.org/2000/svg" fill="none" viewBox="0 0 28 28" focusable="false"><defs><linearGradient id="El_Salvador_svg__b" x1="11.333" x2="11.333" y1="11.867" y2="16.667" gradientUnits="userSpaceOnUse"><stop stop-color="#3C7839"/><stop offset="1" stop-color="#31642E"/></linearGradient></defs><path fill="none" d="M0 0h28v28H0z"/><rect width="28" height="20" y="4" fill="#FFF" rx="3"/><rect width="27.5" height="19.5" x=".25" y="4.25" stroke="#D6D8DD" stroke-width=".5" rx="3"/><mask id="El_Salvador_svg__a" width="28" height="20" x="0" y="4" mask-type="alpha" maskUnits="userSpaceOnUse"><rect width="28" height="20" y="4" fill="#FFF" rx="3"/><rect width="27.5" height="19.5" x=".25" y="4.25" stroke="#F5F5F5" stroke-width=".5" rx="3"/></mask><g mask="url(#El_Salvador_svg__a)"><path fill="#1B57C4" fill-rule="evenodd" d="M0 10.66h28V4H0z"/><path d="M28 10.66V4H0v6.66z"/></g><g mask="url(#El_Salvador_svg__a)"><path fill="#1B57C4" fill-rule="evenodd" d="M0 24h28v-6.67H0z"/><path d="M28 24v-6.67H0V24z"/></g><g mask="url(#El_Salvador_svg__a)"><mask id="El_Salvador_svg__c" fill="#fff"><path fill-rule="evenodd" d="M12.4 11.867a2.667 2.667 0 1 0 3.2 0l-.933 2.8h-1.334z" clip-rule="evenodd"/></mask><path fill="url(#El_Salvador_svg__b)" fill-rule="evenodd" d="M12.4 11.867a2.667 2.667 0 1 0 3.2 0l-.933 2.8h-1.334z" clip-rule="evenodd" mask="url(#El_Salvador_svg__c)"/></g><g mask="url(#El_Salvador_svg__a)"><path fill="#F9C92E" fill-rule="evenodd" d="m14 11.33.66 3.33h-1.33z"/><path d="M14.66 14.66h-1.33l.67-3.33z"/></g></svg>