<svg xmlns="http://www.w3.org/2000/svg" fill="none" viewBox="0 0 28 28" focusable="false"><path fill="none" d="M0 0h28v28H0z"/><rect width="28" height="20" y="4" fill="#FFF" rx="3"/><rect width="27.5" height="19.5" x=".25" y="4.25" stroke="#D6D8DD" stroke-width=".5" rx="3"/><mask id="Equatorial_Guinea_svg__a" width="28" height="20" x="0" y="4" mask-type="alpha" maskUnits="userSpaceOnUse"><rect width="28" height="20" y="4" fill="#FFF" rx="3"/><rect width="27.5" height="19.5" x=".25" y="4.25" stroke="#F5F5F5" stroke-width=".5" rx="3"/></mask><g mask="url(#Equatorial_Guinea_svg__a)"><path fill="#EC3938" fill-rule="evenodd" d="M0 24h28v-6.67H0z"/><path d="M28 24v-6.67H0V24z"/></g><g mask="url(#Equatorial_Guinea_svg__a)"><path fill="#51B422" fill-rule="evenodd" d="M0 10.66h28V4H0z"/><path d="M28 10.66V4H0v6.66z"/></g><g mask="url(#Equatorial_Guinea_svg__a)"><path fill="#159940" fill-rule="evenodd" d="M13.6 15.71c.03-.03.05-.07.05-.12l.01-1.97a.29.29 0 0 0-.29-.29c-.26 0-.39-.32-.21-.5l.6-.6c.13-.13.34-.13.47 0l.6.6c.18.18.05.5-.21.5a.29.29 0 0 0-.29.29v1.97c0 .05.02.09.05.12.1.11.03.29-.12.29h-.54c-.15 0-.22-.18-.12-.29"/><path d="M13.66 13.62a.29.29 0 0 0-.29-.29c-.26 0-.39-.32-.21-.5l.6-.6c.13-.13.34-.13.47 0l.6.6c.18.18.05.5-.21.5a.29.29 0 0 0-.29.29v1.97c0 .05.02.09.05.12.1.11.03.29-.12.29h-.54c-.15 0-.22-.18-.12-.29.03-.03.05-.07.05-.12z"/></g><g mask="url(#Equatorial_Guinea_svg__a)"><path fill="#258DE7" fill-rule="evenodd" d="m0 4 9.33 10L0 24z"/><path d="M9.33 14 0 24V4z"/></g></svg>