<svg xmlns="http://www.w3.org/2000/svg" fill="none" viewBox="0 0 28 28" focusable="false"><rect width="27.5" height="19.5" x=".25" y="4.25" fill="#fff" stroke="#D6D8DD" stroke-width=".5" rx="2.75"/><mask id="Equatorial_Guinea_svg__a" width="28" height="20" x="0" y="4" maskUnits="userSpaceOnUse" style="mask-type:luminance"><rect width="27.5" height="19.5" x=".25" y="4.25" fill="#fff" stroke="#fff" stroke-width=".5" rx="2.75"/></mask><g fill-rule="evenodd" clip-rule="evenodd" mask="url(#Equatorial_Guinea_svg__a)"><path fill="#EC3938" d="M0 24h28v-6.667H0z"/><path fill="#51B422" d="M0 10.667h28V4H0z"/><path fill="#159940" d="M13.607 15.715a.17.17 0 0 0 .047-.115l.011-1.973a.29.29 0 0 0-.292-.294.292.292 0 0 1-.207-.499l.598-.598c.13-.13.341-.13.472 0l.597.597c.185.185.054.5-.207.5a.293.293 0 0 0-.293.293v1.972c0 .044.018.086.05.117a.167.167 0 0 1-.119.285h-.536a.168.168 0 0 1-.121-.285"/><path fill="#258DE7" d="m0 4 9.333 10L0 24z"/></g></svg>