<svg xmlns="http://www.w3.org/2000/svg" width="28" height="28" fill="none"><rect width="28" height="20" y="4" fill="#fff" rx="3"/><mask id="a" width="28" height="20" x="0" y="4" maskUnits="userSpaceOnUse" style="mask-type:luminance"><rect width="28" height="20" y="4" fill="#fff" rx="3"/></mask><g mask="url(#a)"><path fill="#29C53F" fill-rule="evenodd" d="M28 4v10H0V4h28Z" clip-rule="evenodd"/><path fill="#579DED" fill-rule="evenodd" d="M28 14v10.667H0V14h28Z" clip-rule="evenodd"/><path fill="#F42D56" fill-rule="evenodd" d="m0 24 28-10L0 4v20Z" clip-rule="evenodd"/><path stroke="#FFC63C" stroke-width="1.333" d="M12.667 14a4 4 0 1 1-8 0 4 4 0 0 1 8 0Z"/><path fill="#FFC63C" fill-rule="evenodd" d="M8 13.333A.667.667 0 1 0 8 12a.667.667 0 0 0 0 1.333Z" clip-rule="evenodd"/><path fill="#FFC63C" fill-rule="evenodd" d="M9.333 14a.667.667 0 1 0 0-1.333.667.667 0 0 0 0 1.333ZM8.667 12.667a.667.667 0 1 0 0-1.334.667.667 0 0 0 0 1.334ZM8 14.667a.667.667 0 1 0 0-1.334.667.667 0 0 0 0 1.334Z" clip-rule="evenodd"/><path fill="#FFC63C" fill-rule="evenodd" d="M9.333 15.333a.667.667 0 1 0 0-1.333.667.667 0 0 0 0 1.333ZM8 16a.667.667 0 1 0 0-1.333A.667.667 0 0 0 8 16Z" clip-rule="evenodd"/><path fill="#FFC63C" fill-rule="evenodd" d="M9.333 16.667a.667.667 0 1 0 0-1.334.667.667 0 0 0 0 1.334Z" clip-rule="evenodd"/></g></svg>