<svg xmlns="http://www.w3.org/2000/svg" fill="none" viewBox="0 0 28 28" focusable="false"><rect width="28" height="20" y="4" fill="#fff" rx="3"/><mask id="Eritrea_svg__a" width="28" height="20" x="0" y="4" maskUnits="userSpaceOnUse" style="mask-type:luminance"><rect width="28" height="20" y="4" fill="#fff" rx="3"/></mask><g mask="url(#Eritrea_svg__a)"><path fill="#29c53f" fill-rule="evenodd" d="M28 4v10H0V4z" clip-rule="evenodd"/><path fill="#579ded" fill-rule="evenodd" d="M28 14v10.667H0V14z" clip-rule="evenodd"/><path fill="#f42d56" fill-rule="evenodd" d="m0 24 28-10L0 4z" clip-rule="evenodd"/><path stroke="#ffc63c" stroke-width="1.333" d="M12.667 14a4 4 0 1 1-8 0 4 4 0 0 1 8 0Z"/><path fill="#ffc63c" fill-rule="evenodd" d="M8 13.333A.667.667 0 1 0 8 12a.667.667 0 0 0 0 1.333" clip-rule="evenodd"/><path fill="#ffc63c" fill-rule="evenodd" d="M9.333 14a.667.667 0 1 0 0-1.333.667.667 0 0 0 0 1.333M8.667 12.667a.667.667 0 1 0 0-1.334.667.667 0 0 0 0 1.334M8 14.667a.667.667 0 1 0 0-1.334.667.667 0 0 0 0 1.334" clip-rule="evenodd"/><path fill="#ffc63c" fill-rule="evenodd" d="M9.333 15.333a.667.667 0 1 0 0-1.333.667.667 0 0 0 0 1.333M8 16a.667.667 0 1 0 0-1.333A.667.667 0 0 0 8 16" clip-rule="evenodd"/><path fill="#ffc63c" fill-rule="evenodd" d="M9.333 16.667a.667.667 0 1 0 0-1.334.667.667 0 0 0 0 1.334" clip-rule="evenodd"/></g></svg>