<svg xmlns="http://www.w3.org/2000/svg" fill="none" viewBox="0 0 28 28" focusable="false"><path fill="none" d="M0 0h28v28H0z"/><rect width="28" height="20" y="4" fill="#fff" rx="3"/><rect width="28" height="20" y="4" rx="3"/><mask id="Eritrea_svg__a" width="28" height="20" x="0" y="4" mask-type="alpha" maskUnits="userSpaceOnUse"><rect width="28" height="20" y="4" fill="#fff" rx="3"/><rect width="28" height="20" y="4" stroke="#979797" stroke-opacity="0" stroke-width="0" rx="3"/></mask><g mask="url(#Eritrea_svg__a)"><path fill="#29c53f" fill-rule="evenodd" d="M28 4v10H0V4z"/><path d="M28 14H0V4h28z"/></g><g mask="url(#Eritrea_svg__a)"><path fill="#579ded" fill-rule="evenodd" d="M28 14v10.66H0V14z"/><path d="M28 24.66H0V14h28z"/></g><g mask="url(#Eritrea_svg__a)"><path fill="#f42d56" fill-rule="evenodd" d="m0 24 28-10L0 4z"/><path d="M28 14 0 4v20z"/></g><g mask="url(#Eritrea_svg__a)"><path fill="none" d="M8.66 18.66c2.58 0 4.67-2.09 4.67-4.66 0-2.58-2.09-4.67-4.67-4.67A4.66 4.66 0 0 0 4 14c0 2.57 2.08 4.66 4.66 4.66"/><path fill="#ffc63c" fill-rule="evenodd" d="M13.33 14c0 2.57-2.09 4.66-4.67 4.66S4 16.57 4 14a4.66 4.66 0 0 1 4.66-4.67c2.58 0 4.67 2.09 4.67 4.67m-1.42-.77q.09.37.09.77 0 .39-.09.76-.07.27-.18.53-.11.28-.27.52-.19.29-.44.54t-.54.44q-.25.16-.52.28-.26.11-.54.17-.37.09-.76.09t-.76-.09q-.27-.06-.54-.17-.27-.12-.51-.28-.29-.19-.55-.44-.25-.25-.44-.54-.15-.24-.27-.52-.11-.26-.18-.53-.08-.37-.08-.76 0-.4.08-.77.07-.27.18-.53.12-.28.27-.52.19-.29.44-.54.26-.25.55-.44.24-.16.51-.28.27-.11.54-.17.37-.09.76-.09t.76.09q.28.06.54.17.27.12.52.28.29.19.54.44t.44.54q.16.24.27.52.11.26.18.53"/></g><g mask="url(#Eritrea_svg__a)"><path fill="#ffc63c" fill-rule="evenodd" d="M8 13.33c.36 0 .66-.3.66-.67S8.36 12 8 12c-.37 0-.67.29-.67.66s.3.67.67.67"/><path d="M8.66 12.66c0-.37-.3-.66-.66-.66-.37 0-.67.29-.67.66s.3.67.67.67c.36 0 .66-.3.66-.67"/></g><g mask="url(#Eritrea_svg__a)"><path fill="#ffc63c" fill-rule="evenodd" d="M9.33 13.99c.37 0 .67-.29.67-.66a.67.67 0 0 0-1.34 0c0 .37.3.66.67.66"/><path d="M10 13.33a.67.67 0 0 0-1.34 0c0 .37.3.66.67.66s.67-.29.67-.66"/></g><g mask="url(#Eritrea_svg__a)"><path fill="#ffc63c" fill-rule="evenodd" d="M8.66 12.66c.37 0 .67-.3.67-.66 0-.37-.3-.67-.67-.67S8 11.63 8 12c0 .36.29.66.66.66"/><path d="M9.33 12c0-.37-.3-.67-.67-.67S8 11.63 8 12c0 .36.29.66.66.66s.67-.3.67-.66"/></g><g mask="url(#Eritrea_svg__a)"><path fill="#ffc63c" fill-rule="evenodd" d="M8 14.66a.666.666 0 0 0 0-1.33c-.37 0-.67.3-.67.67 0 .36.3.66.67.66"/><path d="M8.66 14c0-.37-.3-.67-.66-.67-.37 0-.67.3-.67.67a.666.666 0 0 0 1.33 0"/></g><g mask="url(#Eritrea_svg__a)"><path fill="#ffc63c" fill-rule="evenodd" d="M9.33 15.33c.37 0 .67-.3.67-.67S9.7 14 9.33 14s-.67.29-.67.66.3.67.67.67"/><path d="M10 14.66c0-.37-.3-.66-.67-.66s-.67.29-.67.66a.67.67 0 0 0 1.34 0"/></g><g mask="url(#Eritrea_svg__a)"><path fill="#ffc63c" fill-rule="evenodd" d="M8 15.99c.36 0 .66-.29.66-.66s-.3-.67-.66-.67c-.37 0-.67.3-.67.67s.3.66.67.66"/><path d="M8.66 15.33c0-.37-.3-.67-.66-.67-.37 0-.67.3-.67.67s.3.66.67.66c.36 0 .66-.29.66-.66"/></g><g mask="url(#Eritrea_svg__a)"><path fill="#ffc63c" fill-rule="evenodd" d="M9.33 16.66c.37 0 .67-.3.67-.66a.67.67 0 0 0-1.34 0c0 .36.3.66.67.66"/><path d="M10 16a.67.67 0 0 0-1.34 0c0 .36.3.66.67.66s.67-.3.67-.66"/></g></svg>