<svg xmlns="http://www.w3.org/2000/svg" fill="none" viewBox="0 0 28 28" focusable="false"><rect width="28" height="20" y="4" fill="#fff" rx="3"/><mask id="Eswatini_svg__a" width="28" height="20" x="0" y="4" maskUnits="userSpaceOnUse" style="mask-type:luminance"><rect width="28" height="20" y="4" fill="#fff" rx="3"/></mask><g mask="url(#Eswatini_svg__a)"><path fill="#486bca" fill-rule="evenodd" d="M0 8h28V4H0zM0 24h28v-4H0z" clip-rule="evenodd"/><path fill="#ffdf20" fill-rule="evenodd" d="M0 20h28V8H0z" clip-rule="evenodd"/><path fill="#cf1615" fill-rule="evenodd" d="M0 18.667h28V9.333H0z" clip-rule="evenodd"/><path fill="#fff" fill-rule="evenodd" d="M14 17.333c3.314 0 6-3.333 6-3.333s-2.686-3.333-6-3.333S8 14 8 14s2.686 3.333 6 3.333" clip-rule="evenodd"/><mask id="Eswatini_svg__b" width="12" height="8" x="8" y="10" maskUnits="userSpaceOnUse" style="mask-type:luminance"><path fill="#fff" fill-rule="evenodd" d="M14 17.333c3.314 0 6-3.333 6-3.333s-2.686-3.333-6-3.333S8 14 8 14s2.686 3.333 6 3.333" clip-rule="evenodd"/></mask><g fill-rule="evenodd" clip-rule="evenodd" mask="url(#Eswatini_svg__b)"><path fill="#262626" d="M14.667 10.667H8v6.666h5.333z"/><path fill="#1a1a1a" d="M15.333 14.667a.667.667 0 1 0 0-1.334.667.667 0 0 0 0 1.334"/><path fill="#f6f6f6" d="M12.667 14.667a.667.667 0 1 0 0-1.334.667.667 0 0 0 0 1.334"/></g></g></svg>