<svg xmlns="http://www.w3.org/2000/svg" width="28" height="28" fill="none"><rect width="28" height="20" y="4" fill="#fff" rx="3"/><mask id="a" width="28" height="20" x="0" y="4" maskUnits="userSpaceOnUse" style="mask-type:luminance"><rect width="28" height="20" y="4" fill="#fff" rx="3"/></mask><g mask="url(#a)"><path fill="#20AA46" fill-rule="evenodd" d="M0 10.667h28V4H0v6.667Z" clip-rule="evenodd"/><path fill="#E92F3B" fill-rule="evenodd" d="M0 24h28v-6.667H0V24Z" clip-rule="evenodd"/><path fill="#FADF50" fill-rule="evenodd" d="M0 17.333h28v-6.666H0v6.666Z" clip-rule="evenodd"/><path fill="#205CCA" fill-rule="evenodd" d="M14 18.667a4.667 4.667 0 1 0 0-9.334 4.667 4.667 0 0 0 0 9.334Z" clip-rule="evenodd"/><path stroke="#FFDB3D" stroke-width=".667" d="M14.194 15.028 14 14.891l-.194.137-1.148.82.424-1.346.07-.227-.19-.141-1.134-.84 1.41-.012.239-.003.075-.225.448-1.338.448 1.338.075.225.238.003 1.41.012-1.133.84-.191.141.071.227.424 1.345-1.149-.819Z"/></g></svg>