<svg xmlns="http://www.w3.org/2000/svg" fill="none" viewBox="0 0 28 28" focusable="false"><rect width="28" height="20" y="4" fill="#fff" rx="3"/><mask id="Ethiopia_svg__a" width="28" height="20" x="0" y="4" maskUnits="userSpaceOnUse" style="mask-type:luminance"><rect width="28" height="20" y="4" fill="#fff" rx="3"/></mask><g mask="url(#Ethiopia_svg__a)"><path fill="#20aa46" fill-rule="evenodd" d="M0 10.667h28V4H0z" clip-rule="evenodd"/><path fill="#e92f3b" fill-rule="evenodd" d="M0 24h28v-6.667H0z" clip-rule="evenodd"/><path fill="#fadf50" fill-rule="evenodd" d="M0 17.333h28v-6.666H0z" clip-rule="evenodd"/><path fill="#205cca" fill-rule="evenodd" d="M14 18.667a4.667 4.667 0 1 0 0-9.334 4.667 4.667 0 0 0 0 9.334" clip-rule="evenodd"/><path stroke="#ffdb3d" stroke-width=".667" d="M14.194 15.029 14 14.89l-.194.137-1.148.82.424-1.346.07-.227-.19-.141-1.134-.84 1.41-.012.239-.003.075-.225.448-1.338.448 1.338.075.225.238.003 1.41.012-1.133.84-.191.141.071.227.424 1.345z"/></g></svg>