<svg xmlns="http://www.w3.org/2000/svg" fill="none" viewBox="0 0 29 28" focusable="false"><defs><linearGradient id="Falkland_Islands_svg__c" x1="18.333" x2="18.333" y1="9.333" y2="18.667" gradientUnits="userSpaceOnUse"><stop stop-color="#FFF"/><stop offset="1" stop-color="#F0F0F0"/></linearGradient></defs><path fill="none" d="M1 0h28v28H1z"/><rect width="28" height="20" x="1" y="4" fill="#FFF" rx="3"/><rect width="28" height="20" x="1" y="4" rx="3"/><mask id="Falkland_Islands_svg__a" width="28" height="20" x="1" y="4" mask-type="alpha" maskUnits="userSpaceOnUse"><rect width="28" height="20" x="1" y="4" fill="#FFF" rx="3"/><rect width="28" height="20" x="1" y="4" stroke="#979797" stroke-opacity="0" stroke-width="0" rx="3"/></mask><g mask="url(#Falkland_Islands_svg__a)"><path fill="#07319C" d="M1 4h28v20H1z"/><path d="M1 4h28v20H1z"/></g><g mask="url(#Falkland_Islands_svg__a)"><path fill="#0072C4" fill-rule="evenodd" d="M18.33 14v-3.34c0-.74.6-1.33 1.33-1.33h4c.74 0 1.34.59 1.34 1.33V14c0 3.33-3.34 4.66-3.34 4.66s-3.33-1.33-3.33-4.66"/><path d="M18.33 10.66c0-.73.6-1.33 1.33-1.33h4c.74 0 1.34.6 1.34 1.33V14c0 3.33-3.34 4.66-3.34 4.66s-3.33-1.33-3.33-4.66z"/><mask id="Falkland_Islands_svg__d" width="6.667" height="9.333" x="18.333" y="9.333" mask-type="alpha" maskUnits="userSpaceOnUse"><path fill="#0072C4" fill-rule="evenodd" d="M18.33 14v-3.34c0-.74.6-1.33 1.33-1.33h4c.74 0 1.34.59 1.34 1.33V14c0 3.33-3.34 4.66-3.34 4.66s-3.33-1.33-3.33-4.66"/><path stroke="url(#Falkland_Islands_svg__c)" stroke-opacity="0" stroke-width="0" d="M18.33 10.66c0-.73.6-1.33 1.33-1.33h4c.74 0 1.34.6 1.34 1.33V14c0 3.33-3.34 4.66-3.34 4.66s-3.33-1.33-3.33-4.66z"/></mask><g mask="url(#Falkland_Islands_svg__d)"><path fill="#005121" fill-rule="evenodd" d="M19.86 13.26c-.68.69.66.61.66.61l.95-.31s.43.05.72.14c.19.06.73.3.73.3s1.12-.23.73-.74c-.4-.5-3.1-.69-3.79 0"/><path d="m20.52 13.87.95-.31s.43.05.72.14c.19.06.73.3.73.3s1.12-.23.73-.74c-.4-.5-3.1-.69-3.79 0-.68.69.66.61.66.61"/></g><g fill-rule="evenodd" mask="url(#Falkland_Islands_svg__d)"><path fill="#A3A3A3" d="M22.71 12.55c.02-.01.09-.01.11.02.04.05.11.03.15.07.04.05.08.09.08.15v.25c0 .06.01.06.06.06.07 0 .16 0 .16-.12 0-.08-.08-.13-.1-.42.03-.03.06-.06.05-.1s.07-.06.06-.12.08-.1.04-.17c-.03-.06.05-.07.02-.12-.04-.06.05-.1.01-.15-.03-.05.05-.09.01-.15-.05-.06.02-.09-.02-.13.02-.05 0-.17-.09-.24-.08-.07-.21-.11-.28-.14-.13-.05-.37-.03-.55-.01-.17.03-.49.05-.59.03-.1-.01-.33-.03-.52.01a.2.2 0 0 1-.17-.05c-.03-.03-.04-.02-.07-.02s-.05-.01-.06-.04c-.02-.06-.08-.02-.1-.1-.02-.05-.11 0-.14-.04-.03-.05-.06-.05-.13-.05-.01-.02-.05-.04-.09-.03.01-.05-.03-.08-.1-.08.01-.05-.09-.09-.14-.06-.03-.04-.09-.03-.11 0-.03-.04-.14-.03-.16.02-.05-.03-.14.03-.13.13 0 .03 0 .06-.04.07-.09.01-.14.11-.21.12s-.14.04-.16.08c-.01.04.01.08-.01.1-.03.02.01.04.03.05.01.01.03.03.04.05 0 .03.06.04.12.01.02-.02.06.03.13 0 .06-.04.16-.02.14.03 0 .03.01.06.03.08.03.03.06.1.04.15-.03.06.03.1.01.15-.01.06.01.11-.02.19s-.03.17.02.2c.06.04.02.12.07.15s.02.09.1.11.03.08.12.09c.08.01.11.07.2.06.07-.01.1.01.14.02.01.05-.01.25-.01.3-.01.05-.03.12-.03.16 0 .03.05.04.12.04.06 0 .09-.03.07-.1-.01-.07-.02-.24-.01-.35.05.03.1.06.1.1 0 .07 0 .19-.01.25-.01.04 0 .11 0 .16.01.01.11.01.16 0 .04-.02.04-.06.04-.24 0-.09-.1-.19.02-.23.06-.02.14-.08.17-.12.04-.05.1-.03.15-.01.05.03.13.06.18.05.06-.02.13.03.19 0 .05-.03.12.02.17-.02.04-.04.12 0 .16-.04.03-.03.17.02.22-.02.04-.05.11.01.16-.02.01-.01.02-.02.04-.02 0 .08-.02.21-.02.25 0 .05-.03.12-.03.16 0 .03.06.04.12.04s.09-.03.07-.1c-.01-.07.01-.25.02-.35"/><path fill="#A3A3A3" d="M19.52 11.32c.02-.02 0-.06.01-.1.02-.04.09-.06.16-.08.07-.01.11-.1.19-.11.05-.01.05-.04.04-.06 0-.1.08-.16.12-.13.03-.04.13-.05.16-.02.02-.02.08-.03.11 0 .05-.03.14.01.13.06.07 0 .11.03.1.07.04 0 .08.01.08.04-.01.04.08.05.04.07-.03.02-.07.01-.11-.02s-.18 0-.2.02c-.02.01-.04.02-.06.01-.01-.02-.05-.03-.07-.03s-.05 0-.07-.04c-.03-.03-.08-.04-.09-.02-.01.01.02.06.05.08s.02.05.06.07c.02.02 0 .06-.02.09-.01.03-.06.02-.07 0 0-.02-.01-.04-.05-.01-.03.03-.09.02-.11.02-.02-.01-.06-.03-.09-.02s.01.02.02.04c0 .01-.05.01-.08.01s-.04.02-.02.02c.02.01.09.01.11 0 .03-.02.12 0 .12.02.01.03-.04.04-.08.03-.05 0-.12.02-.16.03-.03.01-.13-.01-.16 0-.04.01-.08-.03-.06-.04"/><path fill="#FFF" d="M20.15 11.52c-.03.02-.02.06.01.07.03.02.1.03.15.02.04-.01.05 0 .02.02s.05.02.04.05c0 .02.03.02.06.02s.07-.02.11-.04.06-.01.03.02c-.04.04-.15.08-.24.07-.09 0-.13.02-.11.05.02.02.11.03.16.01.05-.01.04.02 0 .03-.03.02-.09.02-.13.02-.05 0-.09.04-.03.06s.14.01.17.03.12-.01.12.02-.02.04-.08.04c-.05 0-.03.02.01.04.03.01.09.01.13 0 .03 0 .02.03-.01.05-.04.01-.14.02-.2.02-.05 0-.03.03.04.03.21 0 .29-.09.34-.16.02-.04.08-.06.09-.04s.01.03-.01.05c-.03.01-.02.02.02.02.05.01.11-.01.15-.02.03-.01.14.06.05.06-.16 0-.35.06-.42.08-.06.03-.17.07-.24.07-.05 0-.07.02-.05.04s.09.02.12.01c.04-.01.04 0 .02.02s-.08.03-.12.04c-.04 0-.06.03-.03.04.06.02 0 .04.05.05.04.01-.01.04.04.05s.07.01.11-.02c.04-.02.06-.03.09-.03.04 0 .07-.01.09-.04.02-.02.09-.07.12-.05.02.02.07-.02.08.01.01.02.05 0 .06.03.01.04.06.04.09.03s.05-.04.05-.08.02-.06.03-.01c.01.04.05.06.08.03.02-.02.02-.09.01-.13-.02-.04-.02-.08 0-.09.01-.01.05.07.07.1.01.04.05.03.06-.01 0-.03.03-.05.06-.02.03.02.01.11.02.15s.09-.01.09 0c.01.02.04.02.05-.01.02-.03.04-.05.06-.04.01.02.04.05.05.08s.04.05.06.02c.03-.04.04-.1.03-.15 0-.04.01-.07.03-.05s.02.09.02.14.07.05.07-.03c0-.04.02-.04.02-.02.01.02.01.05.01.07.02.03.07.01.08-.01 0-.03-.01-.12-.02-.16s.01-.07.03-.05c.02.03.02.08.03.15 0 .06.04.07.07.05.02-.02.02-.08.01-.11-.01-.04.02-.04.03-.02.02.02.04.01.04-.01-.01-.02.01-.04.03-.01s.02.08.01.13c-.01.04.04.04.07 0s.02-.15-.01-.18c-.02-.03-.02-.08-.01-.12.02-.03.04-.04.05-.02 0 .02.01.05.03.07s.03.02.04-.01c0-.03.02-.03.03 0s.02.05.04.02c.02-.02.05 0 .03.03a.17.17 0 0 0 0 .1c.01.03.05.03.05-.01.01-.08.02-.03.03.01.01.03.04.03.05.01s.01-.02.01 0 .01.04.04.04c.02 0 .02-.04.03-.07s.03.01.06.07.05 0 .12.15c.03.05.07 0 .07-.02s0-.03.04-.03c.03 0 .06-.01.04-.03-.01-.02 0-.06 0-.11 0-.04 0-.07.01-.04 0 .02.02.06.06.08.03.02.05-.03.02-.07a.34.34 0 0 1-.06-.17c.01-.05.03-.03.03 0 0 .04.02.1.05.11s.04-.05.02-.08c-.01-.03-.02-.08.01-.08.03-.01-.01-.05-.03-.07-.03-.03-.04-.05 0-.05.05 0 .01-.03-.01-.05s-.06-.05 0-.05c.06.01.04-.02.02-.04-.03-.02-.04-.05 0-.05s.07-.02.06-.03c-.01-.06-.11-.13-.17-.18s-.16-.11-.22-.11c-.05-.01-.05.02-.04.04.02.02.04.04.05.01 0-.02.04.01.06.03.02.03.09.06.13.09.04.04-.05.02-.1-.02-.03-.02-.03 0 .01.04.04.03-.01.04-.05.02-.03-.03-.13-.11-.19-.16s-.07-.03-.07 0c-.01.03.01.05.05.08l.13.1c.04.03.01.04-.02.02-.02-.02-.1-.07-.15-.11s-.09-.06-.12-.05c-.03 0-.03.03.01.06.03.03.08.09.08.12 0 .04-.03.06-.05 0s-.09-.13-.15-.19a.2.2 0 0 0-.15-.06c-.04.01-.04.05-.04.08s-.02.01-.03-.01c0-.02-.03-.05-.05-.04-.01 0-.01.05-.01.07-.01.02-.04.04-.04-.01s-.06-.08-.09-.08-.05.01-.04.03c.01.03.01.08 0 .12-.01.03-.04-.03-.05-.09 0-.06-.1-.11-.16-.09-.07.02-.02.06-.03.1s-.03 0-.03-.04c-.01-.04-.04-.06-.08-.05-.05.01-.08.03-.08.06q.015.03 0 .09c-.01.04-.03.02-.03-.01s-.01-.07-.02-.1-.02 0-.02.03c.01.04 0 .11-.02.16s-.04.05-.03-.01a.36.36 0 0 0-.05-.21c-.02-.03-.06-.04-.06 0 0 .05.01.08.05.11.03.03 0 .11-.03.16-.04.04-.04-.02-.02-.07.01-.04-.06-.06-.08-.07-.03-.01.02-.05.04-.11 0-.03-.01-.05-.03-.05s-.09.05-.11.1c0-.05 0-.09-.03-.09-.02 0-.05.04-.06.08-.02.03-.04.01-.02-.02.02-.04.04-.12.01-.14-.04-.02-.07.06-.11.04-.02 0 .01-.05.02-.07.02-.03-.01-.04-.06 0s-.08.1-.09.14c-.02.05-.11.11-.16.15-.05.03-.07.02-.05 0 .03-.01.08-.06.1-.08.03-.02.02-.03-.03 0-.05.04-.14.1-.23.12-.06.01-.06 0-.01-.02.05-.01.18-.09.2-.12.02-.02-.02 0-.05 0-.02.01-.04 0 .01-.02.04-.01.19-.15.22-.2.04-.04.01-.06-.01-.06s-.05.01-.04-.01c0-.02-.01-.05-.04-.04-.02.01-.02.06-.03.09-.01.02-.07.06-.1.06-.04 0-.09.01-.12.03-.04.03-.06 0-.04-.02s.06-.02.1-.02c.04-.01.08-.01.11-.04.04-.03.04-.06.01-.06-.02 0-.07-.03-.08-.04-.07-.06-.2.02-.25.07-.03.03-.12.1-.15.12s-.02.05.03.01.07-.01.02.02c-.04.03-.08.07-.06.09.01.01.07-.01.11-.03.03-.01.05.03-.04.05-.05.01-.07.03-.03.03s.09-.01.14-.04c.04-.02.08-.01.04.02-.04.02-.13.05-.17.05-.03 0 .01.05-.03.06"/><path fill="#A3A3A3" d="M20.38 11.14c.05-.04.09-.07.13-.03.04.03.05.05 0 .03-.05-.01-.09 0-.12.04-.03.03-.06.02-.01-.04M19.6 11.27c.04-.04.09-.04.12-.07.02-.04.05-.03.02.01s-.09.04-.12.07c-.02.03-.04.01-.02-.01M19.82 11.13c.02 0 .06-.02.09-.05s.08-.04.11-.01c.04.04.06.05.07.06.02 0 .02.03-.01.03-.02.01-.06.02-.08.01s-.05-.02-.07-.01c-.03 0-.04-.01-.02-.02s.04-.03.06-.04c.01-.02.04-.01.02 0s-.01.04.01.05.05.01.07-.01a.4.4 0 0 0-.08-.06c-.02-.01-.03-.01-.05.01s-.07.07-.11.07c-.05 0-.03-.02-.01-.03M21.07 11.45c-.02.03-.04.06-.04.08 0 .03.02.04.02.01.01-.03.01-.05.03-.07.03-.02.01-.05-.01-.02M20.82 11.45l.08-.04c.01-.02.02-.01.01.01a.4.4 0 0 1-.08.05c-.01 0-.03-.01-.01-.02M20.85 11.55a.6.6 0 0 1-.17.13c-.03.02-.02.04.02.03-.03.02-.09.05-.13.06s-.05.04.01.03c.06-.02.14-.07.16-.09.03-.03 0-.04.03-.06.04-.02.1-.07.11-.08.01-.03-.01-.04-.03-.02M20.73 11.83c.05-.02.12-.1.15-.14.01-.02.04-.02.02.02-.03.04-.11.11-.13.12-.03.02-.08.02-.04 0M21.63 11.43c-.01.02-.01.08-.01.1 0 .03.03.05.02.01 0-.04 0-.08.01-.09.02-.02 0-.06-.02-.02M21.87 11.53c.02.01.03.1.03.13-.01.03.03.03.03-.01-.01-.05-.01-.1-.03-.13-.02-.04-.06-.02-.03.01M22.08 11.58c.01.02.03.07.03.1s.02.01.02-.02c.01-.04 0-.07-.01-.09-.02-.03-.06-.02-.04.01M22.21 11.55c-.01-.02-.03-.05-.04-.04-.01 0 0 .03.01.05.02.03.04.02.03-.01M21.39 11.74c-.01.07-.05.14-.09.16-.05.02-.04.06.02.02.05-.04.09-.1.1-.15.02-.05-.03-.07-.03-.03M21.29 11.71c-.03.02-.04.08-.04.11 0 .04.02.01.02-.01s.01-.05.03-.06.01-.06-.01-.04M22.99 11.76c.02.03.05.09.06.12s-.01.04-.02.01c0-.03-.04-.09-.06-.11-.01-.02 0-.06.02-.02"/></g><g mask="url(#Falkland_Islands_svg__d)"><path fill="none" d="m16.92 13.63-.02.02a.33.33 0 0 1-.22-.42c.05-.18.23-.27.41-.22l.01.02zm9.29-.59.01-.03c.17-.06.36.03.42.21.07.17-.02.36-.2.42l-.02-.01z"/><path stroke="#FFF" stroke-linecap="round" stroke-linejoin="round" stroke-width=".667" d="M17 13.33s2.26.67 2.65.67c.1 0 1.57-.33 2.01-.33.17 0 1.69.23 2.09.33.39.11 2.58-.67 2.58-.67"/></g><g mask="url(#Falkland_Islands_svg__d)"><path fill="none" d="m16.92 14.97-.02.01a.316.316 0 0 1-.22-.41c.05-.18.23-.28.41-.23l.01.03zm9.29-.6.01-.02c.17-.06.36.02.42.2.07.18-.02.36-.2.43l-.02-.02z"/><path stroke="#FFF" stroke-linecap="round" stroke-linejoin="round" stroke-width=".667" d="M17 14.66s2.26.68 2.65.68c.1 0 1.57-.34 2.01-.34.17 0 1.69.23 2.09.34.39.1 2.58-.68 2.58-.68"/></g><g mask="url(#Falkland_Islands_svg__d)"><path fill="none" d="m16.83 17.95-.02.02a.66.66 0 0 1-.45-.83c.1-.36.47-.56.82-.45l.02.02zm16.76-.12.02-.01c.37.06.62.39.56.76s-.4.61-.77.55l-.01-.02z"/><path stroke="#FFF" stroke-linecap="round" stroke-linejoin="round" stroke-width="1.333" d="M17 17.33s2.26.67 2.65.67c.1 0 .98-.54 2.01-.54 1.04 0 1.69.44 2.09.54.39.11 2.58-.67 2.58-.67l7.18 1.15"/></g><path fill="none" d="M18.33 14v-3.34c0-.74.6-1.33 1.33-1.33h4c.74 0 1.34.59 1.34 1.33V14c0 3.33-3.34 4.66-3.34 4.66s-3.33-1.33-3.33-4.66"/><path fill="#FFF" fill-rule="evenodd" d="M18.33 14v-3.34c0-.74.6-1.33 1.33-1.33h4c.74 0 1.34.59 1.34 1.33V14c0 3.33-3.34 4.66-3.34 4.66s-3.33-1.33-3.33-4.66m3.33 3.93q.09-.05.19-.11.57-.32 1.03-.74.64-.57 1-1.26.17-.32.28-.66.17-.55.17-1.16v-3.34q0-.14-.05-.25-.05-.12-.15-.22-.09-.1-.21-.15-.12-.04-.26-.04h-4q-.14 0-.25.04-.12.05-.22.15t-.15.22q-.04.11-.04.25V14q0 .61.17 1.16.1.34.27.66.36.69 1 1.26.47.42 1.03.74.1.06.19.11"/></g><g fill-rule="evenodd" mask="url(#Falkland_Islands_svg__a)"><path fill="#DB1E36" d="M5.66 8 1 4h.66l4.67 3.33h1.33L13 4v.49c0 .11-.06.21-.14.27L8.33 8v1.33l4.21 3.61c.16.13.06.39-.14.39-.05 0-.09-.02-.13-.04L7.66 10H6.33L1 13.33v-.67l4.66-3.33z"/><path fill="#FFF" d="M1.88 3.33H-.81L5 8.3v.69L.33 12.32v2.21l6.19-3.87h.93l4.43 3.17q.12.08.25.12.13.05.27.05.15 0 .29-.05.13-.05.24-.13.1-.07.17-.17.08-.1.13-.23t.06-.27q0-.12-.03-.24-.03-.14-.09-.25-.08-.12-.19-.23L9 9.02v-.68l4.24-3.04q.1-.07.18-.16.08-.08.13-.19.06-.11.08-.22.03-.12.03-.24v-1.7L7.47 6.66h-.93zm4.45 4-2.52-1.8L1.66 4H1l.41.35.25.22L3.4 6.05 5.66 8v1.33L1 12.66v.67l.32-.21.34-.21 1.04-.65L6.33 10h1.33l2.52 1.8 1.78 1.26.31.23c.04.02.08.04.13.04.2 0 .3-.26.14-.39l-.29-.25-1.66-1.42-2.26-1.94V8l3.33-2.38 1.2-.86c.08-.06.14-.16.14-.27V4l-.66.41h-.01l-1.04.65-3.63 2.27z"/></g><g mask="url(#Falkland_Islands_svg__a)"><path fill="#FFF" fill-rule="evenodd" d="M1 7.33V10h4.66v3.33c0 .37.3.67.67.67h1.33c.37 0 .67-.3.67-.67V10H13c.36 0 .66-.3.66-.67V8c0-.37-.3-.67-.66-.67H8.33V4H5.66v3.33z"/><path d="M1 10h4.66v3.33c0 .37.3.67.67.67h1.33c.37 0 .67-.3.67-.67V10H13c.36 0 .66-.3.66-.67V8c0-.37-.3-.67-.66-.67H8.33V4H5.66v3.33H1z"/></g><g mask="url(#Falkland_Islands_svg__a)"><path fill="#DB1E36" fill-rule="evenodd" d="M1 8h5.33V4h1.33v4H13v1.33H7.66v4H6.33v-4H1z"/><path d="M6.33 8V4h1.33v4H13v1.33H7.66v4H6.33v-4H1V8z"/></g></svg>