<svg xmlns="http://www.w3.org/2000/svg" fill="none" viewBox="0 0 28 28" focusable="false"><rect width="28" height="20" y="4" fill="#fff" rx="3"/><mask id="Falkland_Islands_svg__a" width="28" height="20" x="0" y="4" maskUnits="userSpaceOnUse" style="mask-type:luminance"><rect width="28" height="20" y="4" fill="#fff" rx="3"/></mask><g mask="url(#Falkland_Islands_svg__a)"><path fill="#07319c" d="M0 4h28v20H0z"/><path fill="#0072c4" fill-rule="evenodd" d="M17.333 14v-3.334c0-.737.597-1.333 1.334-1.333h4c.736 0 1.333.596 1.333 1.333V14c0 3.333-3.333 4.667-3.333 4.667S17.333 17.333 17.333 14" clip-rule="evenodd"/><mask id="Falkland_Islands_svg__b" width="7" height="10" x="17" y="9" maskUnits="userSpaceOnUse" style="mask-type:luminance"><path fill="#fff" fill-rule="evenodd" d="M17.333 14v-3.334c0-.737.597-1.333 1.334-1.333h4c.736 0 1.333.596 1.333 1.333V14c0 3.333-3.333 4.667-3.333 4.667S17.333 17.333 17.333 14" clip-rule="evenodd"/></mask><g mask="url(#Falkland_Islands_svg__b)"><path fill="#005121" fill-rule="evenodd" d="M18.87 13.268c-.684.69.655.602.655.602l.954-.305s.428.052.718.14c.191.057.725.295.725.295s1.127-.225.73-.732c-.396-.508-3.1-.69-3.783 0" clip-rule="evenodd"/><path fill="#a3a3a3" fill-rule="evenodd" d="M21.71 12.55c.027-.005.091-.004.115.025.038.046.114.03.152.074s.08.085.08.147c0 .063-.007.218-.005.252.002.052.01.06.065.059.065-.002.154-.007.157-.123.002-.082-.079-.132-.102-.42.035-.031.067-.058.055-.099-.012-.04.067-.06.06-.121-.009-.06.078-.098.042-.166-.035-.067.044-.07.012-.125-.031-.054.051-.1.016-.148s.047-.091.004-.148c-.044-.058.023-.092-.02-.136.028-.043.004-.168-.083-.24-.086-.07-.208-.107-.28-.134-.131-.05-.377-.027-.55-.007s-.497.04-.595.027a2 2 0 0 0-.514.003.21.21 0 0 1-.172-.044c-.03-.028-.047-.025-.074-.023-.028.002-.044-.007-.058-.04-.024-.06-.078-.02-.104-.094-.017-.05-.106-.006-.134-.049-.027-.042-.06-.047-.136-.042-.004-.025-.045-.044-.082-.037.005-.042-.036-.076-.105-.074.008-.053-.088-.093-.138-.06-.031-.04-.094-.031-.11 0-.033-.04-.14-.028-.165.014-.046-.025-.134.037-.126.135.002.027.003.056-.042.065-.084.016-.134.11-.207.124s-.145.037-.159.078c-.014.04.012.083-.016.103-.027.02.018.039.032.049s.035.027.04.05c.005.034.06.044.117.007.024-.015.065.03.132-.001.067-.032.162-.015.146.037-.008.025.01.052.032.077s.054.102.035.146c-.028.064.027.1.014.156-.014.058.008.11-.022.188s-.03.175.014.203c.06.038.024.115.077.148.043.027.017.093.098.113.08.02.034.074.118.086.085.012.114.073.203.06.065-.01.1.005.138.02.008.054-.01.253-.014.303-.003.045-.027.117-.027.16 0 .028.055.034.118.034s.09-.025.075-.096a2 2 0 0 1-.016-.352c.055.027.107.064.104.104-.004.066-.003.184-.014.245-.007.044.004.113.008.159.004.016.11.015.154 0 .043-.016.043-.056.04-.24-.003-.091-.1-.184.023-.23a.4.4 0 0 0 .173-.12c.032-.047.1-.028.15-.005.049.024.128.06.177.044.063-.02.13.03.185 0s.126.022.172-.015.124-.002.157-.037c.034-.035.171.02.22-.027.05-.047.117.013.162-.022a.06.06 0 0 1 .041-.01c-.001.08-.016.207-.02.246-.003.045-.027.117-.027.16 0 .028.055.034.118.034s.091-.025.075-.096c-.016-.07.007-.245.01-.353" clip-rule="evenodd"/><path fill="#a3a3a3" fill-rule="evenodd" d="M18.523 11.32c.027-.02.002-.059.015-.097.014-.039.083-.06.153-.074.07-.012.117-.102.198-.118.044-.008.042-.035.04-.06-.007-.093.077-.152.12-.128.025-.04.127-.05.159-.014.015-.029.075-.037.106 0 .047-.03.14.008.131.057.067-.001.106.03.1.07.036-.006.076.011.08.035-.006.04.083.05.042.075-.036.022-.071.013-.112-.017s-.18-.003-.2.012c-.019.015-.04.022-.056.01s-.053-.03-.071-.028-.055.001-.077-.034-.077-.04-.087-.027.022.062.053.08c.032.02.016.055.054.075.024.013.002.059-.012.086s-.067.019-.071-.002-.018-.033-.05-.003c-.03.03-.098.022-.114.014-.015-.009-.059-.024-.088-.016-.03.009.014.022.018.034s-.048.017-.077.017c-.03 0-.04.017-.022.02a.3.3 0 0 0 .114-.007c.028-.013.113 0 .12.026.008.025-.049.035-.082.032-.05-.005-.122.022-.158.03-.035.009-.13-.013-.167-.003s-.074-.03-.059-.045" clip-rule="evenodd"/><path fill="#fff" fill-rule="evenodd" d="M19.157 11.527c-.036.013-.024.054.008.07a.3.3 0 0 0 .147.016c.046-.008.056.005.026.022s.045.02.04.047c-.006.027.027.022.058.02a.3.3 0 0 0 .109-.04c.035-.019.06-.005.027.027a.4.4 0 0 1-.234.068c-.089-.006-.136.015-.116.043.02.029.114.034.163.019.05-.015.042.012.004.03a.3.3 0 0 1-.136.019c-.045-.002-.084.037-.025.059s.138.008.167.027c.03.018.12-.01.122.022q.003.047-.079.04c-.053-.003-.037.021.002.034a.4.4 0 0 0 .132.008c.034-.003.024.03-.01.043a.8.8 0 0 1-.194.027c-.054-.002-.028.032.04.032.212 0 .282-.1.336-.169.026-.034.076-.052.088-.032s.014.025-.01.042c-.023.017-.017.027.026.029a.6.6 0 0 0 .144-.02c.037-.01.147.053.057.055a1.6 1.6 0 0 0-.421.085c-.066.023-.174.068-.24.066-.05-.002-.07.016-.05.038s.083.022.118.012c.036-.01.043 0 .02.02-.024.02-.083.03-.124.036-.041.007-.062.033-.03.044.061.02.006.039.05.049.043.01-.004.042.043.052s.075.005.11-.019c.036-.023.055-.037.093-.033.037.003.063-.014.084-.04.022-.024.095-.07.118-.048.024.022.073-.019.083.003s.051.009.061.04c.011.033.057.04.089.028a.09.09 0 0 0 .057-.083c0-.042.012-.059.024-.013.011.045.055.059.076.037.022-.022.03-.098.014-.133s-.018-.082-.002-.09.053.07.07.103c.015.034.056.024.058-.01s.04-.05.067-.025.012.11.02.15.084-.01.092.003.038.017.05-.012c.011-.028.04-.054.055-.037.016.017.04.046.049.078s.045.049.067.015a.24.24 0 0 0 .03-.145c-.008-.046.005-.075.025-.05.02.023.018.087.02.14.002.051.067.047.067-.031 0-.036.02-.042.025-.022s.006.054.012.07c.015.037.065.016.071-.01a.5.5 0 0 0-.016-.156c-.012-.04.012-.07.032-.048s.023.08.027.144.046.068.067.049.022-.073.012-.112c-.01-.038.022-.038.036-.015.013.024.037.009.033-.01-.004-.018.016-.035.036-.01s.013.083.003.128c-.01.046.05.04.077.002.028-.039.014-.145-.01-.179-.023-.034-.021-.078-.008-.116.014-.04.04-.041.042-.024a.13.13 0 0 0 .035.067c.022.022.034.026.038-.008s.023-.025.031 0 .022.046.042.024.045-.005.03.028a.12.12 0 0 0-.005.098c.012.034.053.029.057-.01.009-.08.02-.027.03.008s.04.034.045.014c.006-.02.012-.025.012-.003s.01.04.035.04.02-.044.032-.07c.012-.028.033.01.063.072s.051.003.12.145c.028.058.069.008.067-.012s.004-.034.037-.034c.034 0 .061-.006.05-.028-.012-.022-.004-.063-.006-.108-.002-.046.004-.071.01-.046s.025.061.057.08c.031.018.053-.033.027-.065a.3.3 0 0 1-.059-.172c.002-.047.024-.032.024.002s.02.095.05.108c.029.013.04-.05.027-.081-.014-.032-.022-.076.008-.085.029-.008-.008-.043-.034-.069-.026-.025-.041-.05.004-.049s.008-.027-.014-.045c-.021-.019-.059-.056 0-.05.06.004.04-.026.016-.043s-.038-.049.004-.047c.041.001.067-.019.063-.034-.015-.059-.114-.127-.175-.179a.6.6 0 0 0-.213-.113c-.053-.009-.055.025-.041.046s.041.033.045.013.045.002.065.029.086.06.128.09c.041.031-.055.016-.103-.024-.026-.024-.023.005.012.037s-.01.045-.047.018a7 7 0 0 1-.195-.152c-.06-.049-.07-.037-.073-.005s.02.054.06.081.088.07.125.098c.038.029.006.047-.017.027-.024-.02-.105-.076-.152-.115s-.09-.057-.12-.052-.028.034.008.064c.035.03.079.088.079.122s-.032.057-.048-.004c-.016-.06-.09-.131-.145-.185a.19.19 0 0 0-.152-.061c-.041.003-.04.044-.04.076s-.027.013-.029-.01c-.002-.024-.034-.044-.051-.042-.018.001-.012.05-.018.072s-.033.042-.033-.008-.065-.076-.093-.078-.053.008-.04.03c.014.022.008.082-.001.115-.01.034-.04-.025-.046-.088-.006-.062-.098-.106-.163-.087-.065.018-.016.059-.028.098-.011.038-.03.003-.035-.037-.006-.041-.037-.066-.08-.056s-.074.03-.072.057a.3.3 0 0 1-.008.095c-.01.043-.027.022-.025-.007a.3.3 0 0 0-.018-.103c-.01-.027-.026-.002-.022.032a.5.5 0 0 1-.021.159c-.016.047-.04.049-.028-.016a.33.33 0 0 0-.047-.202c-.021-.031-.069-.042-.069.002 0 .043.014.075.05.108.035.032.007.111-.028.153s-.034-.018-.022-.064-.053-.06-.079-.07c-.025-.008.028-.053.04-.114q.009-.047-.026-.05c-.024-.002-.087.055-.114.097.008-.043 0-.082-.024-.082-.023 0-.05.042-.067.072s-.035.014-.017-.018c.017-.032.045-.118.01-.137-.036-.019-.068.057-.105.044-.021-.008.008-.056.02-.078.011-.022-.012-.039-.065.002a.3.3 0 0 0-.091.147c-.014.04-.108.106-.16.142-.05.035-.072.021-.047.006.026-.015.077-.062.103-.08.025-.02.013-.03-.036.002a.8.8 0 0 1-.23.11c-.054.012-.061.002-.008-.013a.7.7 0 0 0 .205-.122c.018-.02-.03-.003-.053.002-.024.005-.044-.002.004-.018a.9.9 0 0 0 .228-.2c.031-.049.004-.067-.016-.066s-.047.014-.041-.006-.008-.048-.034-.04c-.025.01-.023.058-.033.085s-.065.063-.1.063a.23.23 0 0 0-.123.032c-.037.025-.055.001-.037-.019s.057-.025.096-.027c.04-.002.083-.007.117-.039.033-.032.035-.057.01-.059a.2.2 0 0 1-.083-.042c-.07-.06-.198.024-.248.073a2 2 0 0 1-.152.125c-.03.02-.018.049.031.01.05-.04.066-.012.02.017-.045.028-.079.07-.063.086s.077-.004.11-.022c.034-.019.05.027-.033.042-.056.01-.075.03-.032.032a.3.3 0 0 0 .133-.035c.047-.024.084-.01.045.013a.5.5 0 0 1-.17.056c-.036 0 .006.045-.03.059" clip-rule="evenodd"/><path fill="#a3a3a3" fill-rule="evenodd" d="M19.385 11.15c.048-.05.089-.071.132-.036.04.032.044.046-.006.036s-.082 0-.112.031c-.03.033-.063.02-.014-.031M18.606 11.275c.035-.036.092-.036.118-.075s.053-.024.021.013c-.031.037-.092.044-.118.07s-.04.01-.021-.008M18.826 11.14a.2.2 0 0 0 .089-.06c.025-.03.08-.04.114-.005a.2.2 0 0 0 .069.056c.017.007.017.03-.01.037s-.065.012-.085.003a.13.13 0 0 0-.073-.01c-.023.005-.033-.006-.013-.015s.043-.035.055-.046.043-.001.025.01-.01.033.008.042.053.009.07-.007a.5.5 0 0 0-.08-.062c-.015-.01-.03-.013-.049.008-.02.022-.067.073-.112.071-.045-.001-.034-.02-.008-.023M20.07 11.457a.2.2 0 0 0-.035.081c-.002.025.02.042.024.01.003-.03.006-.049.03-.072.025-.023.001-.046-.018-.019M19.83 11.457a.2.2 0 0 0 .071-.045c.017-.018.028-.007.011.013a.2.2 0 0 1-.073.048c-.017.005-.031-.007-.01-.016M19.86 11.555a1 1 0 0 1-.174.13c-.033.016-.021.038.016.026a.4.4 0 0 1-.128.067c-.039.01-.047.04.012.022a.6.6 0 0 0 .164-.09c.021-.021-.006-.031.027-.055.034-.023.096-.067.104-.084.014-.027-.001-.04-.021-.016M19.738 11.83a.5.5 0 0 0 .143-.134c.014-.026.042-.022.02.017a.6.6 0 0 1-.13.126c-.027.019-.079.014-.033-.008M20.634 11.43a.25.25 0 0 0-.01.107c.004.027.028.047.024.007s-.004-.081.01-.093c.013-.012-.005-.06-.024-.02M20.874 11.53c.02.019.03.105.028.137s.031.032.03-.014a.3.3 0 0 0-.024-.133c-.018-.03-.061-.015-.034.01M21.085 11.586a.2.2 0 0 1 .027.094c0 .03.026.017.028-.018a.16.16 0 0 0-.018-.09c-.014-.023-.055-.018-.037.014M21.215 11.56c-.011-.028-.028-.052-.04-.048-.011.003-.004.028.012.055.016.026.04.023.028-.008M20.392 11.748c-.006.07-.044.133-.089.155s-.038.058.018.022a.26.26 0 0 0 .108-.15c.012-.054-.033-.074-.037-.027M20.293 11.716c-.023.024-.037.074-.037.113s.015.01.02-.012c.003-.022.011-.052.031-.062s.01-.063-.014-.039M21.999 11.765c.02.034.05.09.06.121.01.033-.013.04-.021.012a.7.7 0 0 0-.06-.115c-.013-.021-.003-.057.02-.018" clip-rule="evenodd"/><path stroke="#fff" stroke-linecap="round" stroke-linejoin="round" stroke-width=".667" d="M16 13.333s2.268.674 2.65.674c.108 0 1.577-.337 2.018-.337.165 0 1.685.231 2.082.337s2.585-.674 2.585-.674M16 14.667s2.268.674 2.65.674c.108 0 1.577-.337 2.018-.337.165 0 1.685.23 2.082.337.397.106 2.585-.674 2.585-.674"/><path stroke="#fff" stroke-linecap="round" stroke-linejoin="round" stroke-width="1.333" d="M16 17.333s2.268.674 2.65.674c.108 0 .984-.545 2.018-.545s1.685.44 2.082.545 2.585-.674 2.585-.674l7.178 1.148"/></g><path stroke="#fff" stroke-width=".667" d="M17.667 14v-3.334a1 1 0 0 1 1-1h4a1 1 0 0 1 1 1V14c0 1.543-.768 2.626-1.557 3.336a6.2 6.2 0 0 1-1.442.965h-.002a6.243 6.243 0 0 1-1.443-.966c-.788-.709-1.556-1.792-1.556-3.335Z"/><mask id="Falkland_Islands_svg__c" width="7" height="10" x="17" y="9" maskUnits="userSpaceOnUse" style="mask-type:luminance"><path fill="#fff" stroke="#fff" stroke-width=".667" d="M17.667 14v-3.334a1 1 0 0 1 1-1h4a1 1 0 0 1 1 1V14c0 1.543-.768 2.626-1.557 3.336a6.2 6.2 0 0 1-1.442.965h-.002a6.243 6.243 0 0 1-1.443-.966c-.788-.709-1.556-1.792-1.556-3.335Z"/></mask><path fill="#db1e36" stroke="#fff" stroke-width=".667" d="M0 3.667h-.901l.684.586 4.55 3.9v1.009l-4.527 3.233-.14.1v1.44l.51-.319 5.253-3.283h1.13l4.523 3.23a.554.554 0 0 0 .682-.87L7.667 9.18V8.172l4.387-3.134a.67.67 0 0 0 .28-.543V3.4l-.51.318L6.57 7h-1.13L.86 3.729l-.088-.062H0Z"/><path fill="#fff" fill-rule="evenodd" d="M0 7.333V10h4.667v3.333c0 .368.298.667.666.667h1.334a.667.667 0 0 0 .666-.667V10H12a.667.667 0 0 0 .667-.667V8A.667.667 0 0 0 12 7.333H7.333V4H4.667v3.333z" clip-rule="evenodd"/><path fill="#db1e36" fill-rule="evenodd" d="M0 8h5.333V4h1.334v4H12v1.333H6.667v4H5.333v-4H0z" clip-rule="evenodd"/></g></svg>