<svg xmlns="http://www.w3.org/2000/svg" fill="none" viewBox="0 0 28 28" focusable="false"><defs><filter id="Finland_svg__a"><feColorMatrix values="0 0 0 0 1 0 0 0 0 1 0 0 0 0 1 0 0 0 1 0"/></filter></defs><mask id="Finland_svg__b" width="28" height="20" x="0" y="4" maskUnits="userSpaceOnUse"><g filter="url(#Finland_svg__a)"><rect width="28" height="20" y="4" fill="#FFF" rx="3"/><rect width="27.5" height="19.5" x=".25" y="4.25" stroke="#F5F5F5" stroke-width=".5" rx="2.75"/></g></mask><path fill="none" d="M0 0H28V28H0z"/><rect width="28" height="20" y="4" fill="#FFF" rx="3"/><rect width="27.5" height="19.5" x=".25" y="4.25" stroke="#D6D8DD" stroke-width=".5" rx="2.75"/><g mask="url(#Finland_svg__b)"><path fill="#0848A6" fill-rule="evenodd" d="M-1.33331 16L8.00002 16L8.00002 25.3333L12 25.3333L12 16L29.3334 16L29.3334 12L12 12L12 2.66663L8.00002 2.66663L8.00002 12L-1.33331 12L-1.33331 16Z"/><path d="M8.00002 16L8.00002 25.3333L12 25.3333L12 16L29.3334 16L29.3334 12L12 12L12 2.66663L8.00002 2.66663L8.00002 12L-1.33331 12L-1.33331 16L8.00002 16Z"/></g></svg>