<svg xmlns="http://www.w3.org/2000/svg" fill="none" viewBox="0 0 28 28" focusable="false"><path fill="none" d="M0 0h28v28H0z"/><rect width="28" height="20" y="4" fill="#FFF" rx="3"/><rect width="27.5" height="19.5" x=".25" y="4.25" stroke="#D6D8DD" stroke-width=".5" rx="3"/><mask id="French_Polynesia_svg__a" width="28" height="20" x="0" y="4" mask-type="alpha" maskUnits="userSpaceOnUse"><rect width="28" height="20" y="4" fill="#FFF" rx="3"/><rect width="27.5" height="19.5" x=".25" y="4.25" stroke="#F5F5F5" stroke-width=".5" rx="3"/></mask><g mask="url(#French_Polynesia_svg__a)"><path fill="#D82332" fill-rule="evenodd" d="M0 9.33h28V4H0z"/><path d="M28 9.33V4H0v5.33z"/></g><g mask="url(#French_Polynesia_svg__a)"><path fill="#D82332" fill-rule="evenodd" d="M0 24h28v-5.34H0z"/><path d="M28 24v-5.34H0V24z"/></g><g mask="url(#French_Polynesia_svg__a)"><path fill="#064A89" fill-rule="evenodd" d="m13.06 14.75-.28.26c.26.08.61-.01.75-.26zM10.77 14.93c.19.19.51.17.7.05.19-.13.34-.13.46-.12.01.11.04.25.09.39h-1.15c-.03-.08-.08-.24-.1-.32M10.98 15.44c.22-.1.45-.02.55.06.18.14.49.1.64.02.05.09.12.18.2.25h-1.22c-.05-.08-.15-.27-.17-.33M16.29 16.32c.06-.05.13-.14.18-.21-.08-.01-.17-.07-.27-.11-.18-.09-.35-.09-.51.01-.22.16-.51.2-.73.04-.24-.17-.47-.13-.66-.03-.18.11-.3.12-.42.12a.75.75 0 0 1-.42-.12c-.19-.1-.42-.14-.66.03-.22.16-.5.12-.73-.04-.15-.1-.33-.1-.51-.01-.09.04-.18.1-.26.11.04.07.12.16.17.21zM15.7 16.86c.05-.04.19-.14.26-.2-.08.02-.25-.04-.34-.08-.26-.14-.43-.12-.62-.02-.19.1-.46.16-.66.05s-.34-.14-.45-.14c-.1 0-.24.03-.44.14-.2.11-.47.05-.66-.05-.2-.1-.37-.12-.63.02-.09.04-.26.1-.33.08.07.06.2.16.25.2zM14.56 15.79a.747.747 0 0 1-.17-.18c-.09-.14-.24-.22-.45-.22-.22 0-.37.08-.46.22-.06.08-.12.15-.17.18zM14.21 15.29c-.03-.03-.07-.16-.09-.22-.05.02-.15.02-.2.02-.06 0-.16 0-.21-.02-.02.06-.06.19-.09.22zM14.73 14.75l.29.26c-.26.08-.62-.01-.76-.26zM17.09 14.93c-.19.19-.51.17-.7.05a.623.623 0 0 0-.45-.12c-.02.11-.04.25-.09.39h1.14c.03-.08.08-.24.1-.32M16.92 15.44a.56.56 0 0 0-.55.06c-.18.14-.48.1-.63.02-.06.09-.13.18-.21.25h1.22c.05-.08.16-.27.17-.33M15.15 17.07c-.38.16-.8.24-1.24.24-.44 0-.85-.08-1.24-.24.08-.01.19-.05.28-.1.14-.08.4-.1.52-.02.13.08.28.16.44.16.17 0 .32-.08.44-.16.13-.08.38-.06.53.02.08.05.19.09.27.1"/><path fill="#514537" fill-rule="evenodd" d="M14.62 10.72c-.69-.14-1.31-.06-1.31.6v1.81c0 .2 0 .22.23.28.51.12.56.13 1.11.26v-1.86c-.43-.05-.6-.29-.6-.58 0-.27.19-.45.57-.51M12.85 15.82c-.39 0-.79-.34-.79-.98v-1.61c0-.15.02-.17-.02-.2-.02-.02.02-.05.05-.08.05-.05.07-.08.02-.14-.06-.06-.04-.08 0-.11.04-.04.05-.08.02-.11-.04-.04-.05-.05-.01-.09.04-.03.02-.05-.01-.08s-.04-.06 0-.1c.04-.04.04-.05.08-.05h.19c.05 0 .05.02.01.06-.05.04-.06.06-.01.12.06.05.06.07.02.11-.05.05-.07.09-.02.14.05.05.06.08.02.12-.04.04-.05.08 0 .12.03.04.03.06.03.12v1.64c0 .28.2.44.57.44.37 0 .5-.15.61-.25-.07.49-.27.93-.76.93M13.94 14.25c.05.02.1.09.1.18h.1a.49.49 0 0 0-.08-.25c0-.02-.01-.03-.01-.05.04-.05.09-.12.09-.2 0-.04-.05-.04-.06-.01-.01.03-.03.08-.06.1 0-.06-.04-.13-.08-.13-.05 0-.08.07-.08.13-.04-.02-.06-.07-.07-.1 0-.03-.06-.03-.06.01 0 .08.05.15.09.2 0 .02 0 .03-.01.05a.49.49 0 0 0-.08.25h.1c0-.09.05-.16.11-.18"/><path fill="#514537" fill-rule="evenodd" d="M13.41 14.25c.05.02.1.09.1.18h.1a.49.49 0 0 0-.08-.25c0-.02-.01-.03-.01-.05.04-.05.09-.12.09-.2 0-.04-.05-.04-.06-.01 0 .03-.03.08-.06.1 0-.06-.04-.13-.08-.13-.05 0-.08.07-.08.13-.04-.02-.06-.07-.07-.1 0-.03-.06-.03-.06.01 0 .08.06.15.09.2v.05c-.06.07-.09.18-.09.25h.1c0-.09.05-.16.11-.18M12.88 14.25c.05.02.1.09.1.18h.1a.49.49 0 0 0-.08-.25c0-.02 0-.03-.01-.05.04-.05.09-.12.09-.2 0-.04-.05-.04-.06-.01 0 .03-.02.08-.06.1 0-.06-.04-.13-.08-.13-.05 0-.08.07-.08.13-.04-.02-.06-.07-.07-.1 0-.03-.06-.03-.06.01 0 .08.06.15.09.2v.05c-.06.07-.09.18-.09.25h.1a.2.2 0 0 1 .11-.18M14.46 14.25c-.05.02-.1.09-.1.18h-.1c0-.07.03-.18.08-.25 0-.02.01-.03.01-.05-.04-.05-.09-.12-.09-.2 0-.04.05-.04.06-.01.01.03.03.08.06.1 0-.06.04-.13.08-.13.05 0 .09.07.09.13.03-.02.05-.07.06-.1 0-.03.06-.03.06.01 0 .08-.05.15-.09.2 0 .02 0 .03.01.05.05.07.08.18.08.25h-.1c0-.09-.05-.16-.11-.18M14.99 14.25c-.05.02-.1.09-.1.18h-.1c0-.07.03-.18.08-.25 0-.02.01-.03.01-.05-.04-.05-.09-.12-.09-.2 0-.04.05-.04.06-.01.01.03.03.08.06.1 0-.06.04-.13.08-.13.05 0 .08.07.08.13.04-.02.06-.07.07-.1 0-.03.06-.03.06.01 0 .08-.05.15-.09.2v.05c.06.07.09.18.09.25h-.1c0-.09-.05-.16-.11-.18M12.57 14.53h2.77v.14h-2.77z"/><path fill="#514537" fill-rule="evenodd" d="M15.02 15.82c.38 0 .79-.34.79-.98v-1.61c0-.15-.02-.17.01-.2.02-.02-.02-.05-.05-.08-.04-.05-.07-.08-.01-.14.06-.06.03-.08 0-.11-.04-.04-.05-.08-.02-.11.03-.04.04-.05 0-.09-.03-.03-.02-.05.01-.08.04-.03.05-.06.01-.1-.04-.04-.04-.05-.09-.05h-.19c-.04 0-.04.02-.01.06.05.04.07.06.01.12-.05.05-.05.07-.01.11.05.05.07.09.02.14-.06.05-.06.08-.02.12.04.04.04.08 0 .12a.16.16 0 0 0-.04.12v1.64c0 .28-.19.44-.56.44-.38 0-.5-.15-.61-.25.07.49.27.93.76.93"/><path fill="#EEA339" fill-rule="evenodd" d="M12.57 13.67v-.21l.55.21zM11.9 13.77l-1.24-.17c.04-.27.11-.54.2-.79l1.04.42zM14.47 11.69l.22-.92c.26.06.51.16.75.29l-.71 1.38v-.69c-.08 0-.21-.02-.26-.06M11.93 13.86l-1.26-.08c-.02.27 0 .54.05.81 0 0 1.21.01 1.21 0zM11.92 12.99c-.04-.05-.01-.08.03-.11s.04-.05.02-.09c-.03-.05-.05-.09-.01-.14.04-.04.03-.06 0-.09-.04-.03-.04-.07-.01-.1.03-.02.02-.04 0-.07-.02-.02-.05-.07-.02-.11l-.52-.44c-.17.21-.31.44-.43.69zM13.16 13.23l-.62-.61c.09-.09.1-.1.04-.16-.07-.07-.07-.08.06-.22.05-.04.02-.08-.04-.08h-.41c-.03 0-.06.01-.09.03l-.49-.48c.19-.2.4-.37.63-.51l.92 1.51zM12.52 13.32V13c0-.04-.01-.06-.04-.1-.03-.03-.02-.05.01-.09l.58.5v.29zM13.06 12.44v-.71c0-.46.03-.69.1-.74l-.06-.22c-.26.07-.51.17-.75.29zM15.34 13.67v-.21l-.55.21zM15.95 13.77l1.25-.17a3.54 3.54 0 0 0-.21-.79l-1.04.42zM15.95 13.86l1.27-.08c.01.27 0 .54-.05.81 0 0-1.22.01-1.22 0zM15.91 12.99c.04-.05.02-.08-.03-.11-.04-.03-.03-.05-.01-.09.02-.05.04-.09 0-.14-.04-.04-.02-.06.01-.09s.03-.07 0-.1c-.02-.02-.02-.04 0-.07.02-.02.06-.07.02-.11l.52-.44c.17.21.32.44.43.69zM14.79 13.23l.61-.61c-.08-.09-.09-.1-.03-.16.07-.07.07-.08-.07-.22-.04-.04-.02-.08.05-.08h.4c.04 0 .07.01.09.03l.49-.48c-.18-.2-.39-.37-.62-.51l-.92 1.51zM15.34 13.32V13c0-.04.01-.06.04-.1.04-.03.02-.05-.01-.09l-.58.5v.29z"/><path fill="#D82332" fill-rule="evenodd" d="M12.14 13.03c.03.02.03.04.03.1v1.71c0 .57.35.89.7.89.32 0 .53-.3.64-.64-.14.11-.35.14-.55.14-.23 0-.6-.15-.6-.49v-1.67c0-.04-.05-.04-.22-.04M14.16 10.78c-.44-.05-.85.05-.85.66v1.62c0 .27-.02.24.2.29.41.11.46.12.96.23v-1.64c-.43-.05-.61-.33-.61-.65 0-.25.11-.48.3-.51M15.73 13.03c-.02.02-.03.04-.03.1v1.71c0 .57-.34.89-.69.89-.32 0-.53-.3-.64-.64.14.11.35.14.54.14.24 0 .61-.15.61-.49v-1.67c0-.04.04-.04.21-.04"/><path d="M17.33 14c0-1.85-1.49-3.34-3.33-3.34-1.85 0-3.34 1.49-3.34 3.34 0 1.84 1.49 3.33 3.34 3.33 1.84 0 3.33-1.49 3.33-3.33"/><mask id="French_Polynesia_svg__b" width="6.667" height="6.667" x="10.667" y="10.667" mask-type="alpha" maskUnits="userSpaceOnUse"><path fill="#000" fill-rule="evenodd" d="M14 17.33c1.84 0 3.33-1.49 3.33-3.33 0-1.85-1.49-3.34-3.33-3.34-1.85 0-3.34 1.49-3.34 3.34 0 1.84 1.49 3.33 3.34 3.33"/><path stroke="#979797" stroke-opacity="0" stroke-width="0" d="M17.33 14c0-1.85-1.49-3.34-3.33-3.34-1.85 0-3.34 1.49-3.34 3.34 0 1.84 1.49 3.33 3.34 3.33 1.84 0 3.33-1.49 3.33-3.33Z"/></mask><g mask="url(#French_Polynesia_svg__b)"><path fill="#064A89" fill-rule="evenodd" d="M14 22.66c1.84 0 3.33-1.49 3.33-3.33S15.84 16 14 16a3.331 3.331 0 1 0 0 6.66"/><path d="M17.33 19.33c0-1.84-1.49-3.33-3.33-3.33a3.331 3.331 0 1 0 0 6.66c1.84 0 3.33-1.49 3.33-3.33"/></g></g></svg>