<svg xmlns="http://www.w3.org/2000/svg" fill="none" viewBox="0 0 28 28" focusable="false"><defs><filter id="French_Southern_And_Antarctic_Territories_svg__a"><feColorMatrix values="0 0 0 0 1 0 0 0 0 1 0 0 0 0 1 0 0 0 1 0"/></filter></defs><mask id="French_Southern_And_Antarctic_Territories_svg__b" width="28" height="20" x="0" y="4" maskUnits="userSpaceOnUse"><g filter="url(#French_Southern_And_Antarctic_Territories_svg__a)"><rect width="28" height="20" y="4" fill="#FFF" rx="3"/><rect width="28" height="20" y="4" stroke="#969696" stroke-opacity="0" stroke-width="0" rx="3"/></g></mask><path fill="none" d="M0 0H28V28H0z"/><rect width="28" height="20" y="4" fill="#FFF" rx="3"/><rect width="28" height="20" y="4" rx="3"/><g mask="url(#French_Southern_And_Antarctic_Territories_svg__b)"><path fill="#083B9A" d="M0 4H28V24H0z"/><path d="M0 4H28V24H0z"/><path fill="#083B9A" fill-rule="evenodd" d="M0 15L15 15L15 4L0 4L0 15Z"/><path stroke="#FFF" d="M15 15L15 4L0 4L0 15L15 15Z"/><path fill="#083B9A" fill-rule="evenodd" d="M0 15L5 15L5 4L0 4L0 15Z"/><path fill="#FFF" fill-rule="evenodd" d="M5 15L10 15L10 4L5 4L5 15Z"/><path fill="#F44653" fill-rule="evenodd" d="M10 15L15 15L15 4L10 4L10 15Z"/><g fill="#FFF" fill-rule="evenodd"><path d="M17.7542 15.6379 18.4697 15.6379 17.8909 16.0584 18.112 16.7389 17.5331 16.3184 16.9543 16.7389 17.1754 16.0584 16.5965 15.6379 17.312 15.6379 17.5331 14.9574 17.7542 15.6379ZM25.0855 15.6379 25.801 15.6379 25.2221 16.0584 25.4432 16.7389 24.8644 16.3184 24.2855 16.7389 24.5066 16.0584 23.9278 15.6379 24.6433 15.6379 24.8644 14.9574 25.0855 15.6379ZM23.3895 20.179 24.105 20.179 23.5261 20.5995 23.7472 21.28 23.1684 20.8594 22.5895 21.28 22.8106 20.5995 22.2318 20.179 22.9473 20.179 23.1684 19.4985 23.3895 20.179ZM19.3955 20.179 20.111 20.179 19.5322 20.5995 19.7533 21.28 19.1744 20.8594 18.5956 21.28 18.8167 20.5995 18.2378 20.179 18.9533 20.179 19.1744 19.4985 19.3955 20.179ZM21.3651 21.7109 22.0806 21.7109 21.5017 22.1314 21.7228 22.8119 21.144 22.3914 20.5651 22.8119 20.7862 22.1314 20.2074 21.7109 20.9229 21.7109 21.144 21.0304 21.3651 21.7109Z"/><path d="M19.9951 18.541L21.1987 20.4286L22.4024 18.541L23.4145 18.541L23.5787 18.8419L24.6182 18.8419L22.9495 16.1884L21.7185 18.1033L21.7185 16.3526L22.4571 16.3526L23.0042 15.4772L21.7185 15.4772L21.7185 14.9301L23.3598 14.9301L23.9343 14L18.4632 14L19.0376 14.9301L20.679 14.9301L20.679 15.4772L19.3932 15.4772L19.9404 16.3526L20.679 16.3526L20.679 18.1033L19.448 16.1884L17.7793 18.8419L18.8188 18.8419L18.9829 18.541L19.9951 18.541ZM19.8036 17.9119L19.4753 17.3647L19.147 17.9119L19.8036 17.9119ZM22.5939 17.9119L22.9221 17.3647L23.2504 17.9119L22.5939 17.9119Z"/></g></g></svg>