<svg xmlns="http://www.w3.org/2000/svg" fill="none" viewBox="0 0 28 28" focusable="false"><rect width="28" height="20" y="4" fill="#fff" rx="3"/><mask id="French_Southern_And_Antarctic_Territories_svg__a" width="28" height="20" x="0" y="4" maskUnits="userSpaceOnUse" style="mask-type:luminance"><rect width="28" height="20" y="4" fill="#fff" rx="3"/></mask><g mask="url(#French_Southern_And_Antarctic_Territories_svg__a)"><path fill="#083B9A" d="M0 4h28v20H0z"/><path fill="#083B9A" fill-rule="evenodd" stroke="#fff" d="M0 15h15V4H0v11Z" clip-rule="evenodd"/><path fill="#083B9A" fill-rule="evenodd" d="M0 15h5V4H0v11Z" clip-rule="evenodd"/><path fill="#fff" fill-rule="evenodd" d="M5 15h5V4H5v11Z" clip-rule="evenodd"/><path fill="#F44653" fill-rule="evenodd" d="M10 15h5V4h-5v11Z" clip-rule="evenodd"/><path fill="#fff" d="m17.533 14.957.221.68h.716l-.58.421.222.68-.579-.42-.579.42.221-.68-.579-.42h.716l.221-.68ZM24.864 14.957l.221.68h.716l-.579.421.221.68-.579-.42-.579.42.222-.68-.58-.42h.716l.221-.68ZM23.168 19.498l.221.681h.716l-.579.42.221.681-.579-.42-.578.42.22-.68-.578-.421h.715l.221-.68ZM19.174 19.498l.221.681h.716l-.579.42.221.681-.579-.42-.578.42.22-.68-.578-.421h.715l.221-.68ZM21.144 21.03l.221.68h.716l-.58.421.222.68-.579-.42-.579.42.221-.68-.579-.42h.716l.221-.68Z"/><path fill="#fff" fill-rule="evenodd" d="m19.995 18.541 1.204 1.888 1.203-1.888h1.012l.165.3h1.04l-1.67-2.653-1.23 1.915v-1.75h.738l.547-.876h-1.286v-.547h1.642l.574-.93h-5.47l.574.93h1.64v.547h-1.285l.547.876h.739v1.75l-1.231-1.915-1.669 2.654h1.04l.164-.301h1.012Zm-.191-.63-.329-.546-.328.547h.657Zm2.79 0 .328-.546.328.547h-.656Z" clip-rule="evenodd"/></g></svg>