<svg xmlns="http://www.w3.org/2000/svg" fill="none" viewBox="0 0 28 28" focusable="false"><path fill="none" d="M0 0h28v28H0z"/><rect width="28" height="20" y="4" fill="#fff" rx="3"/><rect width="28" height="20" y="4" rx="3"/><mask id="French_Southern_And_Antarctic_Territories_svg__a" width="28" height="20" x="0" y="4" mask-type="alpha" maskUnits="userSpaceOnUse"><rect width="28" height="20" y="4" fill="#fff" rx="3"/><rect width="28" height="20" y="4" stroke="#979797" stroke-opacity="0" stroke-width="0" rx="3"/></mask><g mask="url(#French_Southern_And_Antarctic_Territories_svg__a)"><path fill="#083b9a" d="M0 4h28v20H0z"/><path d="M0 4h28v20H0z"/></g><g mask="url(#French_Southern_And_Antarctic_Territories_svg__a)"><path fill="#083b9a" fill-rule="evenodd" d="M0 15h15V4H0z"/><path stroke="#fff" d="M15 15V4H0v11z"/></g><g mask="url(#French_Southern_And_Antarctic_Territories_svg__a)"><path fill="#083b9a" fill-rule="evenodd" d="M0 15h5V4H0z"/></g><g mask="url(#French_Southern_And_Antarctic_Territories_svg__a)"><path fill="#fff" fill-rule="evenodd" d="M5 15h5V4H5z"/></g><g mask="url(#French_Southern_And_Antarctic_Territories_svg__a)"><path fill="#f44653" fill-rule="evenodd" d="M10 15h5V4h-5z"/></g><g fill="#fff" mask="url(#French_Southern_And_Antarctic_Territories_svg__a)"><path d="m17.53 14.95-.22.68h-.72l.58.42-.22.68.58-.42.58.42-.22-.68.57-.42h-.71zM24.86 14.95l-.22.68h-.72l.58.42-.22.68.58-.42.58.42-.22-.68.58-.42h-.72zM23.16 19.49l-.22.68h-.71l.58.42-.23.69.58-.43.58.43-.22-.69.58-.42h-.72zM19.17 19.49l-.22.68h-.72l.58.42-.22.69.58-.43.58.43-.22-.69.58-.42h-.72zM21.14 21.03l-.22.68h-.72l.58.42-.22.68.58-.42.58.42-.22-.68.58-.42h-.72z"/><path fill-rule="evenodd" d="m19.99 18.54 1.2 1.88 1.21-1.88h1.01l.16.3h1.04l-1.67-2.66-1.23 1.92v-1.75h.74l.55-.88h-1.29v-.54h1.64l.58-.93h-5.47l.57.93h1.64v.54h-1.28l.55.88h.73v1.75l-1.23-1.92-1.67 2.66h1.04l.17-.3zm-.19-.63-.33-.55-.33.55zm2.79 0 .33-.55.33.55z"/></g></svg>