<svg xmlns="http://www.w3.org/2000/svg" fill="none" viewBox="0 0 28 28" focusable="false"><rect width="27.5" height="19.5" x=".25" y="4.25" fill="#fff" stroke="#d6d8dd" stroke-width=".5" rx="2.75"/><mask id="Georgia_svg__a" width="28" height="20" x="0" y="4" maskUnits="userSpaceOnUse" style="mask-type:luminance"><rect width="27.5" height="19.5" x=".25" y="4.25" fill="#fff" stroke="#fff" stroke-width=".5" rx="2.75"/></mask><g fill-rule="evenodd" clip-rule="evenodd" mask="url(#Georgia_svg__a)"><path fill="#ff2b37" d="M16 25.333h-4V16H-1.333v-4H12V2.667h4V12h13.333v4H16z"/><path fill="#fd0d1b" d="m21.6 8.4-1.6.267V7.333l1.6.267-.267-1.6h1.334L22.4 7.6l1.6-.267v1.334L22.4 8.4l.267 1.6h-1.334zM5.6 8.4 4 8.667V7.333l1.6.267L5.333 6h1.334L6.4 7.6 8 7.333v1.334L6.4 8.4l.267 1.6H5.333zM5.6 20.4l-1.6.267v-1.334l1.6.267-.267-1.6h1.334L6.4 19.6l1.6-.267v1.334L6.4 20.4l.267 1.6H5.333zM21.6 20.4l-1.6.267v-1.334l1.6.267-.267-1.6h1.334l-.267 1.6 1.6-.267v1.334l-1.6-.267.267 1.6h-1.334z"/></g></svg>