<svg xmlns="http://www.w3.org/2000/svg" fill="none" viewBox="0 0 31 28" focusable="false"><path fill="none" d="M1 0h28v28H1z"/><rect width="28" height="20" x="1" y="4" fill="#fff" rx="3"/><rect width="27.5" height="19.5" x="1.25" y="4.25" stroke="#d6d8dd" stroke-width=".5" rx="3"/><mask id="Georgia_svg__a" width="28" height="20" x="1" y="4" mask-type="alpha" maskUnits="userSpaceOnUse"><rect width="28" height="20" x="1" y="4" fill="#fff" rx="3"/><rect width="27.5" height="19.5" x="1.25" y="4.25" stroke="#f5f5f5" stroke-width=".5" rx="3"/></mask><g mask="url(#Georgia_svg__a)"><mask id="Georgia_svg__b" fill="#fff"><path fill-rule="evenodd" d="M17 25.333h-4V16H-.333v-4H13V2.667h4V12h13.333v4H17z" clip-rule="evenodd"/></mask><path fill="#ff2b37" fill-rule="evenodd" d="M17 25.333h-4V16H-.333v-4H13V2.667h4V12h13.333v4H17z" clip-rule="evenodd" mask="url(#Georgia_svg__b)"/></g><g mask="url(#Georgia_svg__a)"><mask id="Georgia_svg__c" fill="#fff"><path fill-rule="evenodd" d="M22.6 7.6 22.333 6h1.334L23.4 7.6l1.6-.267v1.334L23.4 8.4l.267 1.6h-1.334l.267-1.6-1.6.267V7.333z" clip-rule="evenodd"/></mask><path fill="#fd0d1b" fill-rule="evenodd" d="M22.6 7.6 22.333 6h1.334L23.4 7.6l1.6-.267v1.334L23.4 8.4l.267 1.6h-1.334l.267-1.6-1.6.267V7.333z" clip-rule="evenodd" mask="url(#Georgia_svg__c)"/></g><g mask="url(#Georgia_svg__a)"><mask id="Georgia_svg__d" fill="#fff"><path fill-rule="evenodd" d="M6.6 7.6 6.333 6h1.334L7.4 7.6 9 7.333v1.334L7.4 8.4l.267 1.6H6.333L6.6 8.4 5 8.667V7.333z" clip-rule="evenodd"/></mask><path fill="#fd0d1b" fill-rule="evenodd" d="M6.6 7.6 6.333 6h1.334L7.4 7.6 9 7.333v1.334L7.4 8.4l.267 1.6H6.333L6.6 8.4 5 8.667V7.333z" clip-rule="evenodd" mask="url(#Georgia_svg__d)"/></g><g mask="url(#Georgia_svg__a)"><mask id="Georgia_svg__e" fill="#fff"><path fill-rule="evenodd" d="M6.6 19.6 6.333 18h1.334L7.4 19.6l1.6-.267v1.334L7.4 20.4l.267 1.6H6.333l.267-1.6-1.6.267v-1.334z" clip-rule="evenodd"/></mask><path fill="#fd0d1b" fill-rule="evenodd" d="M6.6 19.6 6.333 18h1.334L7.4 19.6l1.6-.267v1.334L7.4 20.4l.267 1.6H6.333l.267-1.6-1.6.267v-1.334z" clip-rule="evenodd" mask="url(#Georgia_svg__e)"/></g><g mask="url(#Georgia_svg__a)"><mask id="Georgia_svg__f" fill="#fff"><path fill-rule="evenodd" d="m22.6 19.6-.267-1.6h1.334l-.267 1.6 1.6-.267v1.334l-1.6-.267.267 1.6h-1.334l.267-1.6-1.6.267v-1.334z" clip-rule="evenodd"/></mask><path fill="#fd0d1b" fill-rule="evenodd" d="m22.6 19.6-.267-1.6h1.334l-.267 1.6 1.6-.267v1.334l-1.6-.267.267 1.6h-1.334l.267-1.6-1.6.267v-1.334z" clip-rule="evenodd" mask="url(#Georgia_svg__f)"/></g></svg>