<svg xmlns="http://www.w3.org/2000/svg" fill="none" viewBox="0 0 28 28" focusable="false"><path fill="none" d="M0 0h28v28H0z"/><rect width="28" height="20" y="4" fill="#fff" rx="3"/><rect width="28" height="20" y="4" rx="3"/><mask id="Ghana_svg__a" width="28" height="20" x="0" y="4" mask-type="alpha" maskUnits="userSpaceOnUse"><rect width="28" height="20" y="4" fill="#fff" rx="3"/><rect width="28" height="20" y="4" stroke="#979797" stroke-opacity="0" stroke-width="0" rx="3"/></mask><g mask="url(#Ghana_svg__a)"><path fill="#e71f37" fill-rule="evenodd" d="M0 10.66h28V4H0z"/><path d="M28 10.66V4H0v6.66z"/></g><g mask="url(#Ghana_svg__a)"><path fill="#118b56" fill-rule="evenodd" d="M0 24h28v-6.67H0z"/><path d="M28 24v-6.67H0V24z"/></g><g mask="url(#Ghana_svg__a)"><path fill="#fdd64c" fill-rule="evenodd" d="M0 17.33h28v-6.67H0z"/><path d="M28 17.33v-6.67H0v6.67z"/></g><g mask="url(#Ghana_svg__a)"><path fill="#262626" fill-rule="evenodd" d="m14 15.61-1.96 1.42.74-2.31-1.96-1.42 2.42-.01L14 11l.75 2.29 2.42.01-1.96 1.42.74 2.31z"/><path d="m12.04 17.03.74-2.31-1.96-1.42 2.42-.01L14 11l.75 2.29 2.42.01-1.96 1.42.74 2.31L14 15.61z"/></g></svg>