<svg xmlns="http://www.w3.org/2000/svg" fill="none" viewBox="0 0 28 28" focusable="false"><defs><filter id="Ghana_svg__a"><feColorMatrix values="0 0 0 0 1 0 0 0 0 1 0 0 0 0 1 0 0 0 1 0"/></filter></defs><mask id="Ghana_svg__b" width="28" height="20" x="0" y="4" maskUnits="userSpaceOnUse"><g filter="url(#Ghana_svg__a)"><rect width="28" height="20" y="4" fill="#FFF" rx="3"/><rect width="28" height="20" y="4" stroke="#969696" stroke-opacity="0" stroke-width="0" rx="3"/></g></mask><path fill="none" d="M0 0H28V28H0z"/><rect width="28" height="20" y="4" fill="#FFF" rx="3"/><rect width="28" height="20" y="4" rx="3"/><g mask="url(#Ghana_svg__b)"><path fill="#E71F37" fill-rule="evenodd" d="M0 10.6667L28 10.6667L28 4L0 4L0 10.6667Z"/><path d="M28 10.6667L28 4L0 4L0 10.6667L28 10.6667Z"/><path fill="#118B56" fill-rule="evenodd" d="M0 24L28 24L28 17.3334L0 17.3334L0 24Z"/><path d="M28 24L28 17.3334L0 17.3334L0 24L28 24Z"/><path fill="#FDD64C" fill-rule="evenodd" d="M0 17.3333L28 17.3333L28 10.6666L0 10.6666L0 17.3333Z"/><path d="M28 17.3333L28 10.6666L0 10.6666L0 17.3333L28 17.3333Z"/><path fill="#262626" fill-rule="evenodd" d="M14 15.6117L12.0407 17.0301L12.7842 14.7284L10.8298 13.3033L13.2486 13.2991L14 11L14.7514 13.2991L17.1702 13.3033L15.2158 14.7284L15.9593 17.0301L14 15.6117Z"/><path d="M12.0407 17.0301L12.7842 14.7284L10.8298 13.3033L13.2486 13.2991L14 11L14.7514 13.2991L17.1702 13.3033L15.2158 14.7284L15.9593 17.0301L14 15.6117L12.0407 17.0301Z"/></g></svg>