<svg xmlns="http://www.w3.org/2000/svg" fill="none" viewBox="0 0 28 28" focusable="false"><path fill="none" d="M0 0h28v28H0z"/><rect width="28" height="20" y="4" fill="#fff" rx="3"/><rect width="27.5" height="19.5" x=".25" y="4.25" stroke="#d6d8dd" stroke-width=".5" rx="3"/><mask id="Gibraltar_svg__a" width="28" height="20" x="0" y="4" mask-type="alpha" maskUnits="userSpaceOnUse"><rect width="28" height="20" y="4" fill="#fff" rx="3"/><rect width="27.5" height="19.5" x=".25" y="4.25" stroke="#f5f5f5" stroke-width=".5" rx="3"/></mask><g mask="url(#Gibraltar_svg__a)"><path fill="#e34f4f" fill-rule="evenodd" d="M0 24h28v-6.67H0z"/><path d="M28 24v-6.67H0V24z"/></g><g mask="url(#Gibraltar_svg__a)"><path fill="#e34f4f" fill-rule="evenodd" d="M9.33 17.33h8V12h-8z"/><path d="M17.33 17.33V12h-8v5.33z"/></g><g mask="url(#Gibraltar_svg__a)"><path fill="#181a1a" fill-rule="evenodd" d="M10.66 17.33H12V16h-1.34z"/><path d="M12 17.33V16h-1.34v1.33z"/></g><g mask="url(#Gibraltar_svg__a)"><path fill="#181a1a" fill-rule="evenodd" d="M14.66 17.33H16V16h-1.34z"/><path d="M16 17.33V16h-1.34v1.33z"/></g><g mask="url(#Gibraltar_svg__a)"><path fill="#181a1a" fill-rule="evenodd" d="M9.33 11.99h1.33v-1.33H9.33z"/><path d="M10.66 11.99v-1.33H9.33v1.33z"/></g><g mask="url(#Gibraltar_svg__a)"><path fill="#181a1a" fill-rule="evenodd" d="M13.33 11.99h1.33v-1.33h-1.33z"/><path d="M14.66 11.99v-1.33h-1.33v1.33z"/></g><g mask="url(#Gibraltar_svg__a)"><path fill="#181a1a" fill-rule="evenodd" d="M12 11.99h1.33v-1.33H12z"/><path d="M13.33 11.99v-1.33H12v1.33z"/></g><g mask="url(#Gibraltar_svg__a)"><path fill="#181a1a" fill-rule="evenodd" d="M16 11.99h1.33v-1.33H16z"/><path d="M17.33 11.99v-1.33H16v1.33z"/></g><g mask="url(#Gibraltar_svg__a)"><path fill="#e34f4f" fill-rule="evenodd" d="M9.33 10.66h1.33V9.33H9.33z"/><path d="M10.66 10.66V9.33H9.33v1.33z"/></g><g mask="url(#Gibraltar_svg__a)"><path fill="#e34f4f" fill-rule="evenodd" d="M13.33 10.66h1.33V9.33h-1.33z"/><path d="M14.66 10.66V9.33h-1.33v1.33z"/></g><g mask="url(#Gibraltar_svg__a)"><path fill="#e34f4f" fill-rule="evenodd" d="M12 10.66h1.33V9.33H12z"/><path d="M13.33 10.66V9.33H12v1.33z"/></g><g mask="url(#Gibraltar_svg__a)"><path fill="#e34f4f" fill-rule="evenodd" d="M16 10.66h1.33V9.33H16z"/><path d="M17.33 10.66V9.33H16v1.33z"/></g></svg>