<svg xmlns="http://www.w3.org/2000/svg" fill="none" viewBox="0 0 28 28" focusable="false"><defs><filter id="Gibraltar_svg__a"><feColorMatrix values="0 0 0 0 1 0 0 0 0 1 0 0 0 0 1 0 0 0 1 0"/></filter></defs><mask id="Gibraltar_svg__b" width="28" height="20" x="0" y="4" maskUnits="userSpaceOnUse"><g filter="url(#Gibraltar_svg__a)"><rect width="28" height="20" y="4" fill="#FFF" rx="3"/><rect width="27.5" height="19.5" x=".25" y="4.25" stroke="#F5F5F5" stroke-width=".5" rx="2.75"/></g></mask><path fill="none" d="M0 0H28V28H0z"/><rect width="28" height="20" y="4" fill="#FFF" rx="3"/><rect width="27.5" height="19.5" x=".25" y="4.25" stroke="#D6D8DD" stroke-width=".5" rx="2.75"/><g mask="url(#Gibraltar_svg__b)"><path fill="#E34F4F" fill-rule="evenodd" d="M0 24L28 24L28 17.3334L0 17.3334L0 24Z"/><path d="M28 24L28 17.3334L0 17.3334L0 24L28 24Z"/><path fill="#E34F4F" fill-rule="evenodd" d="M9.33331 17.3333L17.3333 17.3333L17.3333 12L9.33331 12L9.33331 17.3333Z"/><path d="M17.3333 17.3333L17.3333 12L9.33331 12L9.33331 17.3333L17.3333 17.3333Z"/><path fill="#181A1A" fill-rule="evenodd" d="M10.6667 17.3333L12 17.3333L12 16L10.6667 16L10.6667 17.3333Z"/><path d="M12 17.3333L12 16L10.6667 16L10.6667 17.3333L12 17.3333Z"/><path fill="#181A1A" fill-rule="evenodd" d="M14.6667 17.3333L16 17.3333L16 16L14.6667 16L14.6667 17.3333Z"/><path d="M16 17.3333L16 16L14.6667 16L14.6667 17.3333L16 17.3333Z"/><path fill="#181A1A" fill-rule="evenodd" d="M9.33331 12L10.6666 12L10.6666 10.6666L9.33331 10.6666L9.33331 12Z"/><path d="M10.6666 12L10.6666 10.6666L9.33331 10.6666L9.33331 12L10.6666 12Z"/><path fill="#181A1A" fill-rule="evenodd" d="M13.3333 12L14.6666 12L14.6666 10.6666L13.3333 10.6666L13.3333 12Z"/><path d="M14.6666 12L14.6666 10.6666L13.3333 10.6666L13.3333 12L14.6666 12Z"/><path fill="#181A1A" fill-rule="evenodd" d="M12 12L13.3333 12L13.3333 10.6666L12 10.6666L12 12Z"/><path d="M13.3333 12L13.3333 10.6666L12 10.6666L12 12L13.3333 12Z"/><path fill="#181A1A" fill-rule="evenodd" d="M16 12L17.3333 12L17.3333 10.6666L16 10.6666L16 12Z"/><path d="M17.3333 12L17.3333 10.6666L16 10.6666L16 12L17.3333 12Z"/><path fill="#E34F4F" fill-rule="evenodd" d="M9.33331 10.6667L10.6666 10.6667L10.6666 9.33337L9.33331 9.33337L9.33331 10.6667Z"/><path d="M10.6666 10.6667L10.6666 9.33337L9.33331 9.33337L9.33331 10.6667L10.6666 10.6667Z"/><path fill="#E34F4F" fill-rule="evenodd" d="M13.3333 10.6667L14.6666 10.6667L14.6666 9.33337L13.3333 9.33337L13.3333 10.6667Z"/><path d="M14.6666 10.6667L14.6666 9.33337L13.3333 9.33337L13.3333 10.6667L14.6666 10.6667Z"/><path fill="#E34F4F" fill-rule="evenodd" d="M12 10.6667L13.3333 10.6667L13.3333 9.33337L12 9.33337L12 10.6667Z"/><path d="M13.3333 10.6667L13.3333 9.33337L12 9.33337L12 10.6667L13.3333 10.6667Z"/><path fill="#E34F4F" fill-rule="evenodd" d="M16 10.6667L17.3333 10.6667L17.3333 9.33337L16 9.33337L16 10.6667Z"/><path d="M17.3333 10.6667L17.3333 9.33337L16 9.33337L16 10.6667L17.3333 10.6667Z"/></g></svg>