<svg xmlns="http://www.w3.org/2000/svg" fill="none" viewBox="0 0 28 28" focusable="false"><rect width="27.5" height="19.5" x=".25" y="4.25" fill="#fff" stroke="#D6D8DD" stroke-width=".5" rx="2.75"/><mask id="Gibraltar_svg__a" width="28" height="20" x="0" y="4" maskUnits="userSpaceOnUse" style="mask-type:luminance"><rect width="27.5" height="19.5" x=".25" y="4.25" fill="#fff" stroke="#fff" stroke-width=".5" rx="2.75"/></mask><g fill-rule="evenodd" clip-rule="evenodd" mask="url(#Gibraltar_svg__a)"><path fill="#E34F4F" d="M0 24h28v-6.667H0V24ZM9.333 17.333h8V12h-8v5.333Z"/><path fill="#181A1A" d="M10.667 17.333H12V16h-1.333v1.333ZM14.667 17.333H16V16h-1.333v1.333ZM9.333 12h1.334v-1.333H9.333V12ZM13.333 12h1.334v-1.333h-1.334V12ZM12 12h1.333v-1.333H12V12ZM16 12h1.333v-1.333H16V12Z"/><path fill="#E34F4F" d="M9.333 10.667h1.334V9.333H9.333v1.334ZM13.333 10.667h1.334V9.333h-1.334v1.334ZM12 10.667h1.333V9.333H12v1.334ZM16 10.667h1.333V9.333H16v1.334Z"/></g></svg>