<svg xmlns="http://www.w3.org/2000/svg" fill="none" viewBox="0 0 28 28" focusable="false"><path fill="none" d="M0 0h28v28H0z"/><rect width="28" height="20" y="4" fill="#fff" rx="3"/><rect width="27.5" height="19.5" x=".25" y="4.25" stroke="#d6d8dd" stroke-width=".5" rx="3"/><mask id="Greece_svg__a" width="28" height="20" x="0" y="4" mask-type="alpha" maskUnits="userSpaceOnUse"><rect width="28" height="20" y="4" fill="#fff" rx="3"/><rect width="27.5" height="19.5" x=".25" y="4.25" stroke="#f5f5f5" stroke-width=".5" rx="3"/></mask><g mask="url(#Greece_svg__a)"><mask id="Greece_svg__b" fill="#fff"><path fill-rule="evenodd" d="M0 4h5.333v5.333H0zm8 0h20v2.667H13.333v2.666H8zm5.333 5.333H28V12H13.333zM0 12h5.333v5.333H0zm8 0h5.333v2.667H28v2.666H8zm-8 8h28v2.667H0z" clip-rule="evenodd"/></mask><path fill="#1c6dc1" fill-rule="evenodd" d="M0 4h5.333v5.333H0zm8 0h20v2.667H13.333v2.666H8zm5.333 5.333H28V12H13.333zM0 12h5.333v5.333H0zm8 0h5.333v2.667H28v2.666H8zm-8 8h28v2.667H0z" clip-rule="evenodd" mask="url(#Greece_svg__b)"/></g></svg>