<svg xmlns="http://www.w3.org/2000/svg" fill="none" viewBox="0 0 28 28" focusable="false"><defs><filter id="Greenland_svg__a"><feColorMatrix values="0 0 0 0 1 0 0 0 0 1 0 0 0 0 1 0 0 0 1 0"/></filter></defs><mask id="Greenland_svg__b" width="28" height="20" x="0" y="4" maskUnits="userSpaceOnUse"><g filter="url(#Greenland_svg__a)"><rect width="28" height="20" y="4" fill="#C4C4C4" rx="3"/></g></mask><path fill="none" d="M0 0H28V28H0z"/><rect width="28" height="20" y="4" fill="#FFF" rx="3"/><rect width="27.5" height="19.5" x=".25" y="4.25" stroke="#D6D8DD" stroke-width=".5" rx="2.75"/><g mask="url(#Greenland_svg__b)"><path fill="#B62936" fill-rule="evenodd" d="M12 7C15.866 7 19 10.134 19 14L5 14C5 10.134 8.13403 7 12 7ZM5 14L0 14L0 24L28 24L28 14L19 14C19 17.866 15.866 21 12 21C8.13401 21 5 17.866 5 14Z"/></g></svg>