<svg xmlns="http://www.w3.org/2000/svg" fill="none" viewBox="0 0 28 28" focusable="false"><defs><linearGradient id="Grenada_svg__d" x1="10.667" x2="10.667" y1="10.667" y2="17.333" gradientUnits="userSpaceOnUse"><stop stop-color="#E21C30"/><stop offset="1" stop-color="#CE1225"/></linearGradient></defs><path fill="none" d="M0 0h28v28H0z"/><rect width="28" height="20" y="4" fill="#FFF" rx="3"/><rect width="28" height="20" y="4" rx="3"/><mask id="Grenada_svg__a" width="28" height="20" x="0" y="4" mask-type="alpha" maskUnits="userSpaceOnUse"><rect width="28" height="20" y="4" fill="#FFF" rx="3"/><rect width="28" height="20" y="4" stroke="#979797" stroke-opacity="0" stroke-width="0" rx="3"/></mask><g mask="url(#Grenada_svg__a)"><path fill="#E42235" d="M0 4h28v20H0z"/><path d="M0 4h28v20H0z"/></g><g mask="url(#Grenada_svg__a)"><path fill="#079B77" d="M2.667 6.667h22.667v14.667H2.667z"/><path d="M2.667 6.667h22.667v14.667H2.667z"/><mask id="Grenada_svg__b" width="22.667" height="14.667" x="2.667" y="6.667" mask-type="alpha" maskUnits="userSpaceOnUse"><path fill="#079B77" d="M2.667 6.667h22.667v14.667H2.667z"/><path stroke="#979797" stroke-opacity="0" stroke-width="0" d="M2.667 6.667h22.667v14.667H2.667z"/></mask><g mask="url(#Grenada_svg__b)"><path fill="#FFD938" fill-rule="evenodd" d="M4.39 14.13c.38.6.92 1 1.42 1.1.28.06-.23-1.22-.01-1.35.19-.12 1.1.94 1.18.72.19-.51.08-1.23-.33-1.89-.59-.93-.61-.31-2.19-.99.16.96-.66 1.47-.07 2.41"/><path d="M5.81 15.23c.28.06-.23-1.22-.01-1.35.19-.12 1.1.94 1.18.72.19-.51.08-1.23-.33-1.89-.59-.93-.61-.31-2.19-.99.16.96-.66 1.47-.07 2.41.38.6.92 1 1.42 1.1"/></g><g mask="url(#Grenada_svg__b)"><mask id="Grenada_svg__c" fill="#fff"><path fill-rule="evenodd" d="m14 14 11.333-7.333H2.667zm0 0L2.667 21.333h22.666z" clip-rule="evenodd"/></mask><path fill="#FFD93B" fill-rule="evenodd" d="m14 14 11.333-7.333H2.667zm0 0L2.667 21.333h22.666z" clip-rule="evenodd" mask="url(#Grenada_svg__c)"/></g><g mask="url(#Grenada_svg__b)"><path fill="url(#Grenada_svg__d)" fill-rule="evenodd" d="M14 17.33c1.84 0 3.33-1.49 3.33-3.34 0-1.84-1.49-3.33-3.33-3.33-1.85 0-3.34 1.49-3.34 3.33 0 1.85 1.49 3.34 3.34 3.34"/><path d="M17.33 13.99c0-1.84-1.49-3.33-3.33-3.33-1.85 0-3.34 1.49-3.34 3.33 0 1.85 1.49 3.34 3.34 3.34 1.84 0 3.33-1.49 3.33-3.34"/></g><g mask="url(#Grenada_svg__b)"><path fill="#FFD938" fill-rule="evenodd" d="m14 15.02-1.57 1.13.59-1.84-1.56-1.14 1.93-.01.61-1.83.6 1.83 1.93.01-1.56 1.14.59 1.84z"/><path d="m12.43 16.15.59-1.84-1.56-1.14 1.93-.01.61-1.83.6 1.83 1.93.01-1.56 1.14.59 1.84L14 15.02z"/></g></g></svg>