<svg xmlns="http://www.w3.org/2000/svg" fill="none" viewBox="0 0 28 28" focusable="false"><path fill="none" d="M0 0H28V28H0z" transform="rotate(-180 14 14)"/><rect width="28" height="20" y="4" fill="#FFF" rx="3"/><rect width="27.5" height="19.5" x=".25" y="4.25" stroke="#D6D8DD" stroke-width=".5" rx="2.75"/><path fill="#00A650" fill-rule="evenodd" d="M0 13.3184L0 0L14 0L14 2.10808C13.9244 2.15493 13.8476 2.20145 13.7696 2.24758C12.8229 2.80026 11.6527 3.10056 9.76956 3.36621L8.80151 3.50277L8.45632 4.41744C7.247 7.62181 6.10762 9.50149 4.61218 10.754C3.15942 11.9707 1.43105 12.7907 0 13.3184Z" transform="rotate(-180 10.5 10)"/><path fill="#127BCA" fill-rule="evenodd" d="M1.07031 7.51068C3.02209 5.87599 4.34601 3.64789 5.5308 0.712612C6.53157 0.542912 7.46371 0.327618 8.33925 0L8.33925 8.22681L0 8.22681C0.340782 8.02195 0.680798 7.7976 1.01757 7.55192L1.04463 7.53218L1.07031 7.51068Z" transform="rotate(-180 7.67 7.113)"/><path fill="#FFF200" fill-rule="evenodd" d="M0 5.65932C0.8104 6.44667 1.91631 6.93148 3.13545 6.93148C5.62074 6.93148 7.63545 4.91676 7.63545 2.43148C7.63545 1.53577 7.37376 0.701178 6.92265 0C6.80871 0.0571672 6.6904 0.111788 6.56755 0.163573C4.98576 0.830342 3.53289 0.719801 1.28382 0.490335C1.42573 2.33029 0.860257 4.14629 0 5.65932Z" transform="rotate(-180 6.318 7.966)"/><path fill="#2E3192" fill-rule="evenodd" d="M22.8723 4.87405C22.9894 4.87186 23.0036 5.02628 22.8899 5.05438C21.4559 5.40882 18.2469 6.38456 15.7457 8.47939C14.053 9.89708 12.8383 11.9697 11.6081 15.2295L11.4721 15.5898L11.0908 15.6436C9.18158 15.9129 7.84764 16.2335 6.72381 16.8902C4.63379 18.1253 3.35918 19.6224 2.87915 20.2523C2.81709 20.3337 2.69438 20.2851 2.71386 20.1846C2.87664 19.3448 3.40522 16.8902 6.06788 15.7678C7.64967 15.1011 9.10254 15.2116 11.3516 15.4411C11.1025 12.2116 13.0327 9.05596 14.911 7.48277C17.8105 5.05438 21.3862 4.90182 22.8723 4.87405Z"/><path fill="#FFF200" d="M6.959 20.945H21V22.654H6.959z"/></svg>