<svg xmlns="http://www.w3.org/2000/svg" fill="none" viewBox="0 0 28 28" focusable="false"><defs><clipPath id="Guadeloupe_svg__a"><path fill="#fff" fill-opacity="0" d="M28 28H0V0h28z"/></clipPath></defs><path fill="none" d="M28 28H0V0h28z"/><g clip-path="url(#Guadeloupe_svg__a)"><rect width="28" height="20" y="4" fill="#FFF" rx="3"/><rect width="27.5" height="19.5" x=".25" y="4.25" stroke="#D6D8DD" stroke-width=".5" rx="3"/><path fill="#00A650" fill-rule="evenodd" d="M21 6.68V20H7v-2.11c.07-.05.15-.1.23-.14.94-.56 2.11-.86 4-1.12l.96-.14.35-.91c1.21-3.21 2.35-5.09 3.84-6.34C17.84 8.02 19.56 7.2 21 6.68"/><path fill="#127BCA" fill-rule="evenodd" d="M14.26 6.71c-1.95 1.64-3.27 3.86-4.46 6.8-1 .17-1.93.38-2.81.71V6h8.34c-.34.2-.68.42-1.01.67l-.03.02z"/><path fill="#FFF200" fill-rule="evenodd" d="M12.635 10.272a4.5 4.5 0 0 0-6.923 5.66c.115-.058.233-.112.356-.164 1.582-.667 3.035-.556 5.284-.327-.142-1.84.423-3.656 1.283-5.169" clip-rule="evenodd"/><path fill="#2E3192" fill-rule="evenodd" d="M22.87 4.87c.11 0 .13.15.01.18-1.43.35-4.64 1.33-7.14 3.42-1.69 1.42-2.91 3.49-4.14 6.75l-.13.36-.38.06c-1.91.27-3.25.59-4.37 1.25-2.09 1.23-3.37 2.73-3.85 3.36-.06.08-.18.03-.16-.07.16-.84.69-3.29 3.35-4.42 1.58-.66 3.04-.55 5.29-.32-.25-3.23 1.68-6.39 3.56-7.96 2.9-2.43 6.47-2.58 7.96-2.61"/><path fill="#FFF200" d="M6.959 20.945H21v1.709H6.959z"/></g></svg>