<svg xmlns="http://www.w3.org/2000/svg" fill="none" mask="url(#Guam_svg__a)" viewBox="0 0 28 28" focusable="false"><defs><filter id="Guam_svg__b"><feColorMatrix values="0 0 0 0 1 0 0 0 0 1 0 0 0 0 1 0 0 0 1 0"/></filter></defs><mask id="Guam_svg__a" width="28" height="20" x="0" y="0" maskUnits="objectBoundingBox"><g filter="url(#Guam_svg__b)"><path fill="#C81A38" fill-rule="evenodd" d="M3 20L25 20C26.6569 20 28 18.6569 28 17L28 3C28 1.34315 26.6569 0 25 0L3 0C1.34315 0 0 1.34315 0 3L0 17C0 18.6569 1.34315 20 3 20Z" transform="matrix(1 0 0 -1 0 24)"/></g></mask><path fill="none" d="M0 0H28V28H0z"/><path fill="#C81A38" fill-rule="evenodd" d="M0 20L28 20L28 0L0 0L0 20Z" transform="matrix(1 0 0 -1 0 24)"/><path fill="#273474" fill-rule="evenodd" d="M3 23L25 23C26.1046 23 27 22.1046 27 21L27 7C27 5.89543 26.1046 5 25 5L3 5C1.89543 5 1 5.89543 1 7L1 21C1 22.1046 1.89543 23 3 23Z"/><path fill="#9FE0F9" fill-rule="evenodd" d="M3.26915 10.6756C3.26915 10.6756 0 8.07451 0 5.3725C0 2.67008 3.26915 0 3.26915 0C3.26915 0 6.5173 2.47566 6.5173 5.3725C6.5173 8.26897 3.26915 10.6756 3.26915 10.6756Z" transform="matrix(1 0 0 -1 11.19 18.988)"/><path fill="#4884CD" fill-rule="evenodd" d="M0 3.72322C0.850799 1.67989 2.90734 0 2.90734 0C2.90734 0 5.00051 1.59543 5.82633 3.72334" transform="matrix(1 0 0 -1 11.552 18.988)"/><path fill="#948120" fill-rule="evenodd" d="M3.49835 0.601573C2.99439 0.241001 0.158548 0.414132 0.158548 0.414132L0 0.0104027L3.3766 0C3.39068 0.0553782 3.42445 0.12119 3.43611 0.177144L3.49835 0.601573Z" transform="matrix(1 0 0 -1 13.891 15.276)"/><path fill="#FADE35" fill-rule="evenodd" d="M1.02026 1.04445C1.14811 1.13198 1.23612 1.20031 1.36025 1.20408C1.60153 1.21152 1.68359 1.36074 1.96233 1.36052C2.27913 1.30238 2.70846 1.39862 2.9597 1.45435C3.40583 1.55711 3.19429 1.86918 2.92417 1.98246C2.70593 2.07595 2.29682 1.98716 2.0429 2.07985C1.85098 2.15492 2.00931 2.2745 2.11263 2.30001C2.21684 2.31913 2.32878 2.28469 2.45841 2.2635C2.69003 2.24315 2.98096 2.26477 3.18462 2.29636C3.60504 2.36077 3.58765 2.48415 3.79057 2.487C3.93863 2.49387 4.05147 2.53792 4.15241 2.61002C4.27119 2.68921 4.39473 2.85182 4.53833 2.84529L4.62277 2.84163C3.73586 1.12615 2.1434 0 2.1434 0C2.1434 0 1.62873 0.393998 1.02026 1.04445ZM0 2.33022C0.143607 2.32554 0.286618 2.29532 0.415061 2.22644C0.644743 2.10582 0.777795 2.10674 1.02532 2.10296C1.28428 2.09907 1.48765 1.90831 1.76758 1.90041C2.28329 1.88599 2.50019 1.62989 2.0991 1.63C1.9097 1.63024 1.50371 1.75737 1.30733 1.7307C1.00911 1.70039 0.836665 1.67761 0.615754 1.50206C0.405398 1.75462 0.195044 2.03247 0 2.33022Z" transform="matrix(1 0 0 -1 12.315 18.676)"/><path fill="#87391B" fill-rule="evenodd" d="M1.13813 0.348481C1.19321 0.135634 1.25146 0.0633117 1.47495 0.00861103C1.69583 -0.045974 2.03323 0.168709 1.8242 0.376973C1.62515 0.570709 1.41554 0.620379 1.2373 0.794774C0.960759 1.06896 0.581438 1.63575 0.401175 2.17167C0.204143 2.75757 0.238403 4.40703 0.247077 5.24261C0.247366 5.2523 0.271217 5.25808 0.273964 5.26213C0.286685 5.28049 0.298973 5.25606 0.279024 5.37864C0.273675 5.41001 0.248811 5.44239 0.248956 5.4742C0.249245 5.53086 0.0533691 5.41233 0.00176192 5.31128C-0.0098027 5.28815 0.039347 5.22238 0.039347 5.20937C0.0461412 4.40775 -0.0401596 2.82503 0.17263 2.10849C0.304322 1.66493 0.54472 1.32244 0.76228 1.00545C0.892527 0.802334 1.08132 0.583185 1.13813 0.348481Z" transform="matrix(1 0 0 -1 14.236 16.723)"/><path fill="#BE1D2A" d="M3.01316 0.378409L3.01388 0.746211L3.08617 0.745486L3.15817 0.744778L3.25552 0.451653C3.30898 0.290561 3.35591 0.148592 3.35968 0.136133C3.36345 0.123892 3.36678 0.114128 3.36721 0.114505C3.36779 0.115041 3.37982 0.149853 3.39401 0.192067C3.4085 0.234093 3.45718 0.375512 3.50237 0.506298L3.5848 0.744053L3.64941 0.744444L3.71402 0.74482L3.7133 0.377192L3.71257 0.00937476L3.66694 0.00956292L3.62131 0.00956292L3.62189 0.318579C3.62218 0.488493 3.62174 0.626493 3.62058 0.625407C3.61972 0.624335 3.57437 0.495881 3.52005 0.340033C3.46587 0.184186 3.41763 0.0461859 3.41314 0.0333796L3.40488 0.0100991L3.31868 0.0100991L3.21365 0.321462C3.156 0.492651 3.10805 0.63407 3.10703 0.635881C3.10616 0.637504 3.105 0.497518 3.10471 0.324706L3.10399 0.0106494L3.05836 0.0106494L3.01272 0.0108376L3.01316 0.378409ZM2.4518 0.314551C2.45136 0.316536 2.43007 0.373353 2.40472 0.440818C2.37951 0.508282 2.35097 0.586583 2.34156 0.615078C2.33228 0.643385 2.32417 0.667027 2.32374 0.667578C2.32316 0.668114 2.31968 0.655655 2.31591 0.639966C2.30346 0.587842 2.29143 0.552119 2.2471 0.434879C2.2232 0.370833 2.20263 0.316898 2.20205 0.314914C2.2006 0.311495 2.20741 0.311306 2.32663 0.311118C2.44571 0.31093 2.45267 0.311118 2.4518 0.314551ZM1.99474 0.0214281C1.99706 0.0273822 2.0608 0.192428 2.13628 0.388332L2.27405 0.744415L2.32562 0.744792L2.37734 0.745328L2.52568 0.380958C2.60724 0.180535 2.67446 0.0149383 2.67518 0.0129681C2.67649 0.00953479 2.6733 0.00934647 2.6226 0.00934647L2.56842 0.00954877L2.559 0.0339017C2.55379 0.0472439 2.53481 0.0972073 2.51656 0.144651L2.48367 0.230891L2.32808 0.231601L2.17264 0.232514L2.13222 0.121386L2.09181 0.010259L2.0411 0.0104613L1.99069 0.0104613L1.99474 0.0214281ZM1.18769 0.000856764C1.117 0.00862163 1.06209 0.0313519 1.02298 0.06922C0.987486 0.103684 0.96706 0.146434 0.95634 0.208654C0.948807 0.253404 0.948371 0.27648 0.948661 0.514598L0.949097 0.747833L0.996903 0.747645L1.04456 0.747645L1.04485 0.498894C1.04514 0.234266 1.04514 0.238597 1.05514 0.19873C1.06803 0.147867 1.10584 0.110159 1.16002 0.0944699C1.20319 0.0818375 1.26172 0.0816635 1.31097 0.0939337C1.36935 0.108536 1.40079 0.139929 1.41658 0.199454C1.42889 0.245087 1.4286 0.240757 1.42991 0.504313L1.43121 0.746935L1.47902 0.746733L1.52668 0.746733L1.5261 0.521799C1.52596 0.392288 1.52494 0.284231 1.52364 0.266905C1.51553 0.15291 1.48583 0.0912104 1.41673 0.0444908C1.38949 0.0259044 1.35255 0.0118527 1.31184 0.00427613C1.29402 0.00101663 1.20797 -0.00133039 1.18769 0.000842616L1.18769 0.000856764ZM0.324141 0.00753563C0.226356 0.0187193 0.138422 0.0620196 0.0854006 0.125138C0.0406368 0.178174 0.0118077 0.248173 0.00224653 0.326807C-0.000795669 0.352782 -0.000795386 0.414118 0.00253655 0.439021C0.0138362 0.524695 0.0477353 0.604618 0.0962656 0.659624C0.178985 0.753614 0.350942 0.791496 0.490593 0.746399C0.578527 0.718077 0.630824 0.664318 0.660522 0.572154C0.664868 0.559333 0.667765 0.548511 0.667475 0.547961C0.666461 0.547251 0.591419 0.526869 0.58577 0.525782C0.582583 0.525247 0.58099 0.528302 0.576065 0.542731C0.562158 0.583511 0.541006 0.617411 0.517538 0.636185C0.4664 0.676936 0.394256 0.691916 0.309654 0.679109C0.255474 0.670808 0.201729 0.643037 0.170872 0.607313C0.124515 0.553741 0.101626 0.488087 0.0987287 0.401312C0.0959762 0.315449 0.111476 0.249971 0.147403 0.195848C0.205785 0.107827 0.34138 0.0684959 0.462054 0.104582C0.500589 0.116128 0.5426 0.136133 0.572297 0.157255L0.585915 0.16699L0.58606 0.236439L0.58606 0.306077L0.47712 0.306265L0.368035 0.306454L0.368181 0.349029L0.368181 0.391591L0.524057 0.391215L0.679933 0.391027L0.679644 0.255374L0.679354 0.11972L0.66226 0.107102C0.592 0.0555003 0.52174 0.0242958 0.446409 0.0109536C0.418739 0.00607157 0.352245 0.00427647 0.324141 0.00752148L0.324141 0.00753563Z" transform="matrix(1 0 0 -1 12.606 14.002)"/><path fill="#2D973F" fill-rule="evenodd" d="M0.205833 1.43229C0.219789 1.41315 0.217631 1.33071 0.217631 1.33071C0.229141 1.3238 0.413447 1.48753 0.413447 1.4802C0.413591 1.44581 0.417763 1.37474 0.417763 1.37474C0.417763 1.37474 0.608544 1.55616 0.616602 1.53703C0.625378 1.51559 0.615739 1.41042 0.615739 1.41042C0.615739 1.41042 0.742782 1.55041 0.76609 1.57559C0.782924 1.59372 0.780189 1.55285 0.781772 1.4871C0.782204 1.4753 0.989962 1.64033 1.00262 1.64335C1.02953 1.64911 1.03773 1.5576 1.03629 1.53473C1.03514 1.51775 1.22808 1.64479 1.21959 1.62796L1.23383 1.53041C1.28764 1.53775 1.41569 1.58552 1.49267 1.57314C1.51742 1.56911 1.51612 1.55674 1.49425 1.54768C1.1229 1.39747 0.837309 1.17086 0.671131 0.855167C0.614444 0.747662 0.597034 0.653855 0.611997 0.63023C0.611997 0.63023 0.678756 0.773804 0.754004 0.796364C0.764075 0.799242 0.770693 0.704356 0.781053 0.709766C0.781053 0.709766 0.838028 0.853714 0.879177 0.906762C0.890255 0.921006 0.908671 0.831169 0.920325 0.844521C0.920325 0.844521 0.949965 0.940846 1.0078 1.00795C1.01615 1.01752 1.03111 0.916862 1.04018 0.925337C1.10032 0.980715 1.15686 1.11964 1.17945 1.12986C1.19513 1.14223 1.19786 1.01445 1.21268 1.02545C1.21268 1.02545 1.29843 1.19748 1.34965 1.2287C1.38246 1.24899 1.38131 1.13475 1.38131 1.13475C1.44648 1.19921 1.51842 1.30596 1.55252 1.35229C1.5682 1.37359 1.55971 1.21158 1.5764 1.20525C1.59784 1.19705 1.73855 1.32941 1.75438 1.33215C1.76488 1.33388 1.77726 1.29445 1.74978 1.26265C1.74762 1.26007 1.57583 1.06209 1.57583 1.06209C1.60921 1.05576 1.6223 1.06511 1.64618 1.05878C1.7174 1.04008 1.51267 0.922632 1.51612 0.900633C1.51612 0.900633 1.61482 0.902431 1.58187 0.88331C1.55799 0.869426 1.42764 0.701478 1.42764 0.707421C1.42764 0.7105 1.4931 0.705981 1.49267 0.687234C1.49209 0.652402 1.38433 0.472929 1.38318 0.474008C1.37728 0.479965 1.44116 0.481763 1.44979 0.46408C1.46562 0.431435 1.33901 0.286234 1.36375 0.261516C1.36721 0.258092 1.43613 0.260423 1.46677 0.25356C1.48145 0.250338 1.52303 -0.0101667 1.51252 0.000307574C1.51022 0.00282542 1.55684 0.244553 1.58532 0.31816C1.60259 0.362705 1.65798 0.250869 1.66244 0.260796C1.66014 0.260796 1.65136 0.419709 1.65899 0.492051C1.66115 0.512251 1.70115 0.47093 1.70057 0.490238C1.69899 0.534077 1.69553 0.58098 1.70445 0.623726C1.71122 0.656026 1.74532 0.565457 1.75841 0.589815C1.75841 0.589815 1.71726 0.747116 1.73438 0.791487C1.74589 0.820709 1.77323 0.720786 1.79121 0.716815C1.79121 0.716815 1.78114 0.839111 1.80013 0.870677L1.85725 0.809357C1.86963 0.82901 1.86732 1.0195 1.87898 1.03734C1.88847 1.05231 1.94775 0.965923 1.95667 0.979448C1.96459 0.99172 1.93149 1.13317 1.93897 1.14439C1.94948 1.16036 2.01451 1.10497 2.0158 1.10612C2.04228 1.13273 2.04141 1.19935 2.05264 1.2241C2.08256 1.291 2.25421 1.29963 2.2745 1.25201C2.28442 1.22899 2.27766 1.19921 2.27363 1.16324C2.27522 1.1618 2.35967 1.15575 2.36039 1.16223C2.36039 1.16223 2.35032 1.08338 2.35622 0.996584C2.35708 0.985045 2.44197 0.999476 2.44298 0.987923C2.45075 0.906215 2.43204 0.898632 2.43204 0.898632C2.43262 0.892676 2.48916 0.907293 2.49002 0.900977C2.49621 0.861123 2.48341 0.812595 2.45808 0.765878C2.45434 0.759202 2.53894 0.772367 2.54024 0.764612C2.5506 0.703291 2.55247 0.654574 2.54182 0.567989C2.54096 0.560954 2.62455 0.629136 2.62584 0.6221C2.6385 0.549227 2.62383 0.470584 2.63145 0.395178C2.63333 0.377683 2.68685 0.447305 2.69174 0.427105C2.69649 0.407264 2.6798 0.262955 2.688 0.25484C2.688 0.25484 2.77763 0.259344 2.78555 0.251776C2.85662 0.185017 2.8431 0.0684917 2.8431 0.0684917C2.86266 0.0829226 2.85518 0.22326 2.83547 0.351713C2.83331 0.365237 2.90439 0.36 2.90223 0.372633C2.90223 0.372633 2.82425 0.419537 2.79878 0.550134C2.79332 0.578089 2.87389 0.57232 2.87389 0.57232C2.85144 0.623727 2.81231 0.633467 2.77878 0.682888C2.76814 0.699132 2.86266 0.706528 2.86266 0.711218C2.86266 0.760467 2.78281 0.783905 2.74152 0.835154C2.72382 0.856965 2.8277 0.858059 2.8277 0.858059C2.7972 0.900445 2.69677 0.91902 2.64555 0.975117C2.61764 1.0056 2.74742 1.03562 2.74584 1.0408C2.73159 1.08569 2.60944 1.09979 2.55031 1.15043C2.53808 1.16093 2.62757 1.19633 2.62757 1.19633C2.61851 1.21546 2.42355 1.34366 2.52268 1.33186C2.56455 1.32682 2.64958 1.2674 2.6562 1.27632C2.6562 1.27632 2.6526 1.35128 2.66124 1.3602C2.6939 1.39416 2.80641 1.21633 2.84468 1.22352C2.84468 1.22352 2.85878 1.35085 2.87605 1.3543C2.91719 1.36207 2.96726 1.16885 3.00798 1.16885C3.0133 1.16885 3.01632 1.2805 3.03733 1.28668C3.06107 1.29344 3.0874 1.16151 3.11747 1.1323C3.14524 1.1054 3.14553 1.23546 3.16178 1.21072C3.18941 1.17086 3.19603 1.0877 3.23387 1.05101C3.25833 1.02726 3.26293 1.16583 3.29012 1.14727C3.32163 1.12569 3.31429 1.05389 3.34969 1.0186C3.36666 1.00182 3.37818 1.11 3.39731 1.09418C3.41458 1.08022 3.42609 0.947881 3.4445 0.926947C3.46795 0.900258 3.495 0.99677 3.51932 0.981433C3.53687 0.970254 3.5327 0.855714 3.54896 0.831169C3.58219 0.780308 3.59946 0.892676 3.62147 0.875367C3.63672 0.863641 3.66996 0.731966 3.68391 0.721506C3.7147 0.698054 3.73168 0.781387 3.75513 0.769661C3.77211 0.761374 3.80635 0.5918 3.82045 0.596131C3.82952 0.599008 3.85239 0.982513 3.70478 1.14439C3.46436 1.40812 3.03373 1.56034 2.68239 1.56408C2.68239 1.56408 2.85892 1.59933 2.86367 1.62853C2.87302 1.68681 2.96064 1.6799 3.02194 1.66652C3.03258 1.66422 3.02697 1.76953 3.02827 1.77011C3.08294 1.7714 3.13186 1.73903 3.18409 1.70738C3.20034 1.69745 3.15114 1.81284 3.16855 1.80291C3.23559 1.76407 3.31027 1.75284 3.35559 1.70565C3.36753 1.69328 3.34192 1.79457 3.34192 1.79457C3.37544 1.80277 3.44162 1.75443 3.46767 1.70911C3.48018 1.68681 3.4668 1.82723 3.47673 1.80234C3.47673 1.80234 3.5937 1.76263 3.60636 1.71342C3.60636 1.71342 3.61586 1.80262 3.63154 1.79788C3.67845 1.78565 3.7196 1.70637 3.75628 1.695C3.75628 1.695 3.74103 1.77443 3.75283 1.7714C3.84103 1.7491 3.93656 1.69472 3.93642 1.695C3.88678 1.81917 3.69859 1.94924 3.36753 1.98405C3.30681 1.99038 3.06021 2.00046 2.85115 1.95197C2.6798 1.91226 2.54455 1.88967 2.57232 1.91672C2.68555 2.02765 2.86871 2.04117 2.91906 2.06707C2.95503 2.08534 2.79763 2.1462 2.82885 2.15484C2.85979 2.16232 3.00064 2.17397 3.00064 2.17397C3.031 2.19786 2.89835 2.24433 2.91806 2.279C2.95777 2.34835 3.19257 2.28533 3.21257 2.31166C3.2189 2.32044 3.11171 2.38389 3.11618 2.39338C3.1333 2.42849 3.34221 2.36734 3.3471 2.39799C3.3471 2.39799 3.28365 2.44532 3.23862 2.48403C3.23329 2.48877 3.42522 2.54028 3.42522 2.54028C3.42163 2.54402 3.39228 2.56445 3.34839 2.58172C3.30811 2.5974 3.51687 2.65164 3.51687 2.65164C3.25243 2.7725 2.56599 2.42863 2.42974 2.07182C2.39449 1.98679 2.39348 2.0793 2.40068 2.15138C2.40787 2.22893 2.41751 2.29699 2.40916 2.36821C2.40672 2.38936 2.3532 2.31209 2.34946 2.33267C2.33579 2.40849 2.37636 2.49165 2.3578 2.57568C2.35161 2.60402 2.28054 2.49223 2.27119 2.52057C2.24529 2.59827 2.29075 2.70761 2.27234 2.81466C2.26514 2.85652 2.19781 2.72502 2.17536 2.76257C2.14904 2.80602 2.1604 2.96717 2.14803 2.99148C2.13781 3.01105 2.0781 2.91422 2.07307 2.93249C1.99192 3.22787 2.09969 3.26456 1.94387 3.09809C1.9384 3.09234 1.90372 3.27276 1.89783 3.26657C1.83394 3.12989 1.72935 3.36398 1.69366 3.34211C1.66705 3.32556 1.76661 3.23506 1.76762 3.1942C1.76819 3.17464 1.67597 3.17334 1.67597 3.17334C1.67798 3.13953 1.85135 3.045 1.85696 3.00803C1.86142 2.97767 1.73424 2.98515 1.73424 2.98515C1.73812 2.94386 1.88272 2.90458 1.89063 2.8607C1.89524 2.83652 1.82301 2.8312 1.82531 2.8066C1.8292 2.7689 1.96502 2.69437 1.96948 2.65596C1.9725 2.62934 1.88272 2.61826 1.88056 2.59337C1.87783 2.5633 2.06084 2.4623 2.06113 2.43396C2.06127 2.39382 1.98818 2.41439 1.95495 2.39425C1.90833 2.3659 2.10486 2.25123 2.11321 2.21857C2.11968 2.1898 2.03451 2.21512 2.03163 2.18894C2.02803 2.15469 2.12803 2.1029 2.15091 2.04405C2.17378 1.98607 2.15033 1.97125 2.11753 1.99427C2.05177 2.04074 1.78618 2.32274 1.71568 2.39799C1.61324 2.50733 1.40346 2.62977 1.19412 2.63697C1.17225 2.63035 1.30678 2.53525 1.30764 2.50086C1.30779 2.49194 1.24707 2.47885 1.2498 2.47611C1.28707 2.43899 1.4026 2.39482 1.4026 2.39482L1.36951 2.33511C1.37728 2.31756 1.4321 2.31281 1.52001 2.28404C1.52001 2.28404 1.45411 2.24318 1.459 2.23944C1.50547 2.20232 1.59568 2.17483 1.59568 2.17483L1.50691 2.14505C1.50173 2.12793 1.70661 2.04592 1.70661 2.04592C1.70661 2.04592 1.64259 1.99067 1.64547 1.98779C1.66115 1.97211 1.81179 1.93729 1.81179 1.93729C1.81423 1.93485 1.70532 1.90089 1.70618 1.90017C1.7456 1.86061 1.85452 1.8478 1.87998 1.78248C1.87998 1.78248 1.89495 1.74536 1.85179 1.75241C1.6823 1.81399 1.41958 1.94132 0.910398 1.89125C0.389852 1.82349 -0.00681728 1.37085 8.88103e-05 1.32582C8.88103e-05 1.32582 0.186122 1.45934 0.205833 1.43229Z" transform="matrix(1 0 0 -1 12.222 12.676)"/><path fill="#87391B" fill-rule="evenodd" d="M0.612569 0.219826C0.612569 0.219826 0.910507 0.181845 1.25349 0.219826C1.25349 0.219826 1.26249 0.154953 1.24673 0.130233C1.2311 0.105513 0.835524 0.0865154 0.636016 0.121184C0.603824 0.131491 0.602898 0.170743 0.612569 0.219826ZM0.0450418 0.44836C0.0450418 0.44836 1.13413 0.36539 1.80194 0.508782C1.80194 0.508782 1.85797 0.470788 1.7773 0.376611C1.69675 0.282659 1.49274 0.262403 1.38066 0.242267C1.38066 0.242267 1.35377 0.181845 1.35589 0.150368C1.35827 0.119011 1.42663 0.122218 1.46015 0.12908L1.49366 0.135836C1.49366 0.135836 1.47803 0.0181971 1.0659 0.00252525C0.930642 -0.00274729 0.484597 -0.0121266 0.390141 0.120045C0.390141 0.120045 0.471879 0.113408 0.493075 0.120045C0.514404 0.126801 0.498903 0.211943 0.490955 0.224409C0.483271 0.23665 0.20176 0.22441 0.0540499 0.361045C0.0173541 0.400059 0 0.441484 0 0.456361C0 0.45762 0.0450418 0.44836 0.0450418 0.44836Z" transform="matrix(1 0 0 -1 12.442 16.252)"/><path fill="#FEFAFD" fill-rule="evenodd" d="M0 0C0 0 0.404056 0.429698 0.280235 1.32617C0.280235 1.32617 0.701439 1.21776 1.1305 0.59848C1.1305 0.59848 1.25576 0.472722 1.40288 0.0243718L0 0Z" transform="matrix(1 0 0 -1 12.639 15.75)"/><path fill="#C81A38" fill-rule="evenodd" d="M3.45881 10.6757C3.45881 10.6757 0.3805 8.38418 0.3805 5.68215C0.3805 2.97977 3.45881 0.623327 3.45881 0.623327C3.45881 0.623327 6.51718 2.78533 6.51718 5.68215C6.51718 8.57863 3.45881 10.6757 3.45881 10.6757ZM3.46004 11.299C3.46004 11.299 0 8.72329 0 5.68612C0 2.64858 3.46004 0 3.46004 0C3.46004 0 6.89783 2.43013 6.89783 5.68612C6.89783 8.94197 3.46004 11.299 3.46004 11.299Z" transform="matrix(1 0 0 -1 11 19.299)"/></svg>