<svg xmlns="http://www.w3.org/2000/svg" fill="none" viewBox="0 0 28 28" focusable="false"><path fill="none" d="M0 0h28v28H0z"/><mask id="Guam_svg__a" width="28" height="20" x="0" y="4" mask-type="alpha" maskUnits="userSpaceOnUse"><path fill="#C81A38" fill-rule="evenodd" d="M3 4h22c1.65 0 3 1.34 3 3v14c0 1.65-1.35 3-3 3H3c-1.66 0-3-1.35-3-3V7c0-1.66 1.34-3 3-3"/></mask><g mask="url(#Guam_svg__a)"><path fill="#C81A38" fill-rule="evenodd" d="M0 4h28v20H0z"/></g><g mask="url(#Guam_svg__a)"><path fill="#273474" fill-rule="evenodd" d="M3 23h22c1.1 0 2-.9 2-2V7a2 2 0 0 0-2-2H3c-1.11 0-2 .89-2 2v14a2 2 0 0 0 2 2"/></g><g mask="url(#Guam_svg__a)"><path fill="#9FE0F9" fill-rule="evenodd" d="M14.45 8.31s-3.26 2.6-3.26 5.3c0 2.7 3.26 5.37 3.26 5.37s3.25-2.47 3.25-5.37-3.25-5.3-3.25-5.3"/><path fill="#4884CD" fill-rule="evenodd" d="M11.55 15.26c.85 2.04 2.9 3.72 2.9 3.72s2.1-1.59 2.92-3.72z"/><path fill="#948120" fill-rule="evenodd" d="M17.38 14.67c-.5.36-3.34.19-3.34.19l-.15.4 3.37.01c.02-.05.05-.12.06-.18z"/><path fill="#FADE35" fill-rule="evenodd" d="M13.33 17.63c.13-.09.22-.16.34-.16.24-.01.32-.16.6-.16.32.06.75-.04 1-.09.45-.11.23-.42-.04-.53-.21-.1-.62-.01-.88-.1-.19-.07-.03-.19.07-.22.11-.02.22.02.35.04.23.02.52 0 .73-.04.42-.06.4-.18.6-.19.15 0 .26-.05.36-.12.12-.08.25-.24.39-.23h.08c-.88 1.71-2.48 2.84-2.48 2.84s-.51-.39-1.12-1.04m-1.02-1.29c.14.01.29.04.42.1.23.12.36.12.61.13.25 0 .46.19.74.2.51.01.73.27.33.27-.19 0-.6-.13-.79-.1-.3.03-.47.05-.69.23-.21-.25-.42-.53-.62-.83"/><path fill="#87391B" fill-rule="evenodd" d="M15.37 16.37c.05.21.11.28.34.34.22.05.55-.16.35-.37-.2-.19-.41-.24-.59-.42-.28-.27-.66-.84-.84-1.37-.19-.59-.16-2.24-.15-3.07 0-.01.02-.02.02-.02.02-.02.03 0 .01-.12-.01-.03-.03-.06-.03-.1 0-.05-.2.07-.25.17-.01.02.04.09.04.1.01.8-.08 2.38.13 3.1.14.44.38.79.59 1.1.13.21.32.43.38.66"/><path fill="#BE1D2A" d="M15.61 13.62v-.37H15.76l.1.3c.05.16.1.3.1.31 0 .01.01.02.01.02s.01-.03.02-.08c.02-.04.07-.18.11-.31l.09-.24h.12v.74h-.09v-.62s-.04.13-.1.29c-.05.15-.1.29-.11.3v.03h-.09l-.11-.31c-.05-.18-.1-.32-.1-.32v.31l-.01.32h-.09zm-.56.06-.04-.12c-.03-.07-.06-.15-.07-.18-.01-.03-.02-.05-.02-.05v.03c-.02.05-.03.08-.07.2l-.05.12c0 .01.01.01.13.01.12 0 .12 0 .12-.01m-.45.3c0-.01.06-.18.14-.37l.13-.36h.11l.15.37c.08.2.15.36.15.36 0 .01-.01.01-.06.01h-.05l-.01-.03c-.01-.01-.02-.06-.04-.11l-.04-.08h-.15l-.16-.01-.04.12-.04.11h-.1zm-.81.02a.294.294 0 0 1-.17-.07.299.299 0 0 1-.06-.14c-.01-.05-.01-.07-.01-.31v-.23h.1v.25c0 .26 0 .26.01.3.01.05.05.09.1.1.04.02.1.02.15 0 .06-.01.09-.04.11-.1.01-.05.01-.04.01-.31v-.24h.1v.23c0 .12 0 .23-.01.25 0 .11-.03.18-.1.22a.21.21 0 0 1-.11.04c-.02.01-.1.01-.12.01m-.87-.01a.368.368 0 0 1-.32-.32v-.11c.01-.09.05-.17.1-.22.08-.1.25-.13.39-.09.09.03.14.08.17.17.01.02.01.03.01.03l-.08.02c-.01 0-.01 0-.01-.02a.349.349 0 0 0-.06-.09c-.05-.04-.13-.05-.21-.04-.05.01-.11.03-.14.07a.33.33 0 0 0-.07.21c0 .08.01.15.05.2.06.09.19.13.31.09a.37.37 0 0 0 .11-.05l.02-.01v-.14h-.22v-.08h.31v.27l-.02.01a.67.67 0 0 1-.21.1z"/><path fill="#2D973F" fill-rule="evenodd" d="M12.42 11.24c.02.02.01.1.01.1.02.01.2-.16.2-.15v.11s.2-.19.2-.17c.01.03 0 .13 0 .13l.15-.16c.02-.02.02.02.02.08 0 .02.21-.15.22-.15.03-.01.03.08.03.11 0 .01.19-.11.19-.1l.01.1c.05-.01.18-.05.26-.04.02 0 .02.01 0 .02-.37.15-.66.38-.82.7-.06.1-.08.2-.06.22 0 0 .07-.14.14-.17.01 0 .02.1.03.09 0 0 .05-.14.1-.2.01-.01.03.08.04.07 0 0 .03-.1.08-.17.01-.01.03.09.04.09.06-.06.11-.2.14-.21.01-.01.01.12.03.11 0 0 .09-.18.14-.21.03-.02.03.1.03.1.06-.07.14-.17.17-.22.02-.02.01.14.02.15.02 0 .17-.13.18-.13.01 0 .02.04 0 .07-.01 0-.18.2-.18.2.04.01.05 0 .07 0 .07.02-.13.14-.13.16 0 0 .1 0 .07.02-.03.01-.16.18-.16.17 0 0 .07.01.07.02 0 .04-.11.22-.11.22-.01-.01.06-.01.07.01.01.03-.11.17-.09.2 0 0 .07 0 .1.01.02 0 .06.26.05.25 0 0 .04-.24.07-.32.02-.04.07.07.08.06 0 0-.01-.16 0-.23 0-.02.04.02.04 0 0-.04-.01-.09 0-.13.01-.03.04.06.06.03 0 0-.05-.16-.03-.2.01-.03.04.07.06.07 0 0-.01-.12.01-.15l.05.06c.02-.02.01-.21.03-.23.01-.01.06.08.07.06.01-.01-.02-.15-.01-.16.01-.02.07.04.07.03.03-.02.03-.09.04-.11.03-.07.2-.08.22-.03.01.02 0 .05 0 .09 0 0 .09.01.09 0 0 0-.01.08-.01.16 0 .02.09 0 .09.01.01.08-.01.09-.01.09 0 .01.06-.01.06 0 0 .04-.01.09-.04.14 0 0 .09-.01.09 0 .01.06.01.11 0 .19 0 .01.08-.06.08-.05.02.07 0 .15.01.23 0 .01.05-.06.06-.04 0 .02-.01.17-.01.18 0 0 .09-.01.1 0 .07.07.06.18.06.18.02-.01.01-.15-.01-.28 0-.01.07-.01.07-.02 0 0-.08-.05-.1-.18-.01-.03.07-.02.07-.02-.02-.05-.06-.06-.09-.11-.02-.02.08-.03.08-.03 0-.05-.08-.07-.12-.12-.02-.03.08-.03.08-.03-.03-.04-.13-.06-.18-.11-.03-.03.1-.06.1-.07-.01-.04-.13-.06-.19-.11-.02-.01.07-.05.07-.05 0-.01-.2-.14-.1-.13.04 0 .13.06.13.05 0 0 0-.07.01-.08.03-.03.14.14.18.14 0 0 .02-.13.03-.13.04-.01.09.18.13.18.01 0 .01-.11.03-.12.03 0 .05.13.08.16s.03-.1.05-.08c.03.04.03.12.07.16.03.02.03-.11.06-.1.03.03.02.1.06.13.01.02.03-.09.04-.07.02.01.03.14.05.16.02.03.05-.07.08-.05.01.01.01.13.03.15.03.05.05-.06.07-.04.01.01.05.14.06.15.03.02.05-.06.07-.05.02.01.05.18.07.17.01 0 .03-.38-.12-.54-.24-.27-.67-.42-1.02-.42 0 0 .18-.04.18-.07.01-.06.1-.05.16-.04.01.01 0-.1.01-.1.05 0 .1.03.15.06.02.01-.03-.1-.01-.09.06.04.14.05.18.1.01.01-.01-.09-.01-.09.03-.01.1.04.12.08.02.02 0-.12.01-.09 0 0 .12.04.13.09 0 0 .01-.09.03-.09.05.02.09.09.12.11 0 0-.01-.08 0-.08.09.02.18.08.18.08-.05-.13-.23-.26-.57-.29-.06-.01-.3-.02-.51.03-.17.04-.31.06-.28.03.11-.11.3-.12.35-.15.03-.01-.13-.08-.09-.08.03-.01.17-.02.17-.02.03-.03-.1-.07-.09-.11.04-.07.28 0 .3-.03.01-.01-.1-.07-.1-.08.02-.04.23.02.23-.01 0 0-.06-.04-.1-.08-.01-.01.18-.06.18-.06s-.03-.02-.07-.04c-.05-.02.16-.07.16-.07-.26-.12-.95.22-1.08.58-.04.08-.04-.01-.03-.08 0-.08.01-.15.01-.22-.01-.02-.06.06-.06.04-.02-.08.02-.16 0-.24 0-.03-.07.08-.08.05-.03-.08.02-.19 0-.29-.01-.05-.08.09-.1.05-.02-.05-.01-.21-.03-.23-.01-.02-.07.08-.07.06-.08-.3.03-.33-.13-.17 0 .01-.04-.17-.05-.17-.06.14-.16-.09-.2-.07-.03.02.07.11.07.15.01.02-.09.02-.09.02 0 .03.18.13.18.16.01.03-.12.03-.12.03 0 .04.15.08.16.12 0 .02-.07.03-.07.05.01.04.14.12.15.16 0 .02-.09.03-.09.06-.01.03.18.13.18.16 0 .04-.07.02-.11.04-.04.03.15.14.16.17.01.03-.08.01-.08.03-.01.04.09.09.12.15.02.05 0 .07-.04.05-.06-.05-.33-.33-.4-.41a.82.82 0 0 0-.52-.24c-.02.01.11.11.11.14 0 .01-.06.02-.05.02.03.04.15.09.15.09l-.03.06c0 .01.06.02.15.05 0 0-.07.04-.06.04.04.04.13.07.13.07l-.09.03c0 .01.2.1.2.1l-.06.05c.02.02.17.05.17.05 0 .01-.11.04-.11.04.04.04.15.05.18.12 0 0 .01.04-.03.03-.17-.06-.43-.19-.94-.14-.52.07-.92.52-.91.57 0 0 .18-.14.2-.11"/><path fill="#87391B" fill-rule="evenodd" d="M13.05 16.03s.3.04.64 0c0 0 .01.06-.01.09-.01.02-.41.04-.61.01-.03-.01-.03-.05-.02-.1m-.57-.23s1.09.08 1.76-.06c0 0 .05.04-.03.13s-.28.11-.39.13c0 0-.03.07-.03.1.01.03.07.02.11.02l.03-.01s-.02.12-.43.13c-.13.01-.58.02-.67-.11h.1c.02-.01.01-.1 0-.11-.01-.01-.29 0-.44-.13a.152.152 0 0 1-.05-.1z"/><path fill="#FEFAFD" fill-rule="evenodd" d="M12.63 15.75s.41-.43.28-1.33c0 0 .43.11.85.73 0 0 .13.12.28.57z"/><path fill="#C81A38" fill-rule="evenodd" d="M14.45 8.62s-3.07 2.29-3.07 4.99 3.07 5.06 3.07 5.06 3.06-2.16 3.06-5.06c0-2.89-3.06-4.99-3.06-4.99m.01-.62S11 10.57 11 13.61c0 3.04 3.46 5.68 3.46 5.68s3.43-2.43 3.43-5.68c0-3.26-3.43-5.61-3.43-5.61"/></g></svg>