<svg xmlns="http://www.w3.org/2000/svg" fill="none" viewBox="0 0 28 28" focusable="false"><path fill="none" d="M0 0h28v28H0z"/><rect width="28" height="20" y="4" fill="#FFF" rx="3"/><rect width="28" height="20" y="4" rx="3"/><mask id="Guinea-Bissau_svg__a" width="28" height="20" x="0" y="4" mask-type="alpha" maskUnits="userSpaceOnUse"><rect width="28" height="20" y="4" fill="#FFF" rx="3"/><rect width="28" height="20" y="4" stroke="#979797" stroke-opacity="0" stroke-width="0" rx="3"/></mask><g mask="url(#Guinea-Bissau_svg__a)"><path fill="#1AB558" fill-rule="evenodd" d="M0 24h28V13.33H0z"/><path d="M28 24V13.33H0V24z"/></g><g mask="url(#Guinea-Bissau_svg__a)"><path fill="#FFD952" fill-rule="evenodd" d="M0 13.33h28V4H0z"/><path d="M28 13.33V4H0v9.33z"/></g><g mask="url(#Guinea-Bissau_svg__a)"><path fill="#E72B42" fill-rule="evenodd" d="M0 24h10.66V4H0z"/><path d="M10.66 24V4H0v20z"/></g><g mask="url(#Guinea-Bissau_svg__a)"><path fill="#262626" fill-rule="evenodd" d="m5.33 15.27-1.96 1.42.74-2.3-1.95-1.43h2.42l.75-2.3.75 2.3H8.5l-1.96 1.43.75 2.3z"/><path d="m3.37 16.69.74-2.3-1.95-1.43h2.42l.75-2.3.75 2.3H8.5l-1.96 1.43.75 2.3-1.96-1.42z"/></g></svg>