<svg xmlns="http://www.w3.org/2000/svg" fill="none" viewBox="0 0 28 28" focusable="false"><defs><filter id="Guyana_svg__a"><feColorMatrix values="0 0 0 0 1 0 0 0 0 1 0 0 0 0 1 0 0 0 1 0"/></filter></defs><mask id="Guyana_svg__b" width="28" height="20" x="0" y="4" maskUnits="userSpaceOnUse"><g filter="url(#Guyana_svg__a)"><rect width="28" height="20" y="4" fill="#FFF" rx="3"/><rect width="28" height="20" y="4" stroke="#969696" stroke-opacity="0" stroke-width="0" rx="3"/></g></mask><path fill="none" d="M0 0H28V28H0z"/><rect width="28" height="20" y="4" fill="#FFF" rx="3"/><rect width="28" height="20" y="4" rx="3"/><g mask="url(#Guyana_svg__b)"><path fill="#08C55F" d="M0 4H28V24H0z"/><path d="M0 4H28V24H0z"/><path fill="#FFD831" fill-rule="evenodd" d="M-1.33331 24L-1.33331 4L2.03848e-05 4L28 13.3333L28 14.6667L2.03848e-05 24L-1.33331 24Z"/><path fill="#FFF" fill-rule="evenodd" d="M-1.33331 4L-1.33331 24L2.03848e-05 24L28 14.6667L28 13.3333L2.03848e-05 4L-1.33331 4ZM2.03848e-05 5.40546L2.03848e-05 22.5945L25.7837 14L2.03848e-05 5.40546Z"/><path fill="#E92034" fill-rule="evenodd" d="M-1.33331 24L-1.33331 4L2.03848e-05 4L15.3334 14L2.03848e-05 24L-1.33331 24Z"/><path fill="#262626" fill-rule="evenodd" d="M-1.33331 4L-1.33331 24L2.03848e-05 24L14.113 14.7959L15.3334 14L14.113 13.2041L2.03848e-05 4L-1.33331 4ZM2.03848e-05 5.59183L2.03848e-05 22.4082L12.8925 14L2.03848e-05 5.59183Z"/></g></svg>