<svg xmlns="http://www.w3.org/2000/svg" fill="none" viewBox="0 0 30 28" focusable="false"><path fill="none" d="M1 0h28v28H1z"/><rect width="28" height="20" x="1" y="4" fill="#FFF" rx="3"/><rect width="28" height="20" x="1" y="4" rx="3"/><mask id="Guyana_svg__a" width="28" height="20" x="1" y="4" mask-type="alpha" maskUnits="userSpaceOnUse"><rect width="28" height="20" x="1" y="4" fill="#FFF" rx="3"/><rect width="28" height="20" x="1" y="4" stroke="#979797" stroke-opacity="0" stroke-width="0" rx="3"/></mask><g mask="url(#Guyana_svg__a)"><path fill="#08C55F" d="M1 4h28v20H1z"/><path d="M1 4h28v20H1z"/></g><g fill-rule="evenodd" mask="url(#Guyana_svg__a)"><path fill="#FFD831" d="M-.34 24V4H1l28 9.33v1.33L1 24z"/><path fill="#FFF" d="M-.34 4v20H1l28-9.34v-1.33L1 4zM1 5.4v17.19L26.78 14z"/></g><g fill-rule="evenodd" mask="url(#Guyana_svg__a)"><path fill="#E92034" d="M-.34 24V4H1l15.33 10L1 24z"/><path fill="#262626" d="M-.34 4v20H1l14.11-9.21 1.22-.79-1.22-.8L1 4zM1 5.59V22.4L13.89 14z"/></g></svg>