<svg xmlns="http://www.w3.org/2000/svg" fill="none" viewBox="0 0 28 28" focusable="false"><path fill="none" d="M0 0h28v28H0z"/><path fill="#FFF" d="M0 20.99c0 1.66 1.34 3 3 3h22c1.65 0 3-1.34 3-3V7c0-1.66-1.35-3-3-3H3C1.34 4 0 5.34 0 7z"/><path fill="#D6D8DD" fill-rule="evenodd" d="M3 23.99c-1.66 0-3-1.34-3-3V7c0-1.66 1.34-3 3-3h22c1.65 0 3 1.34 3 3v13.99c0 1.66-1.35 3-3 3zm0-.5h22q.28 0 .56-.06.21-.05.41-.13.21-.09.39-.21.22-.14.4-.33.19-.18.33-.4.12-.18.21-.39.08-.2.13-.41.07-.28.07-.57V7q0-.29-.07-.57-.05-.21-.13-.41-.09-.21-.21-.39-.14-.22-.33-.4-.18-.19-.4-.33-.18-.12-.39-.21-.2-.08-.41-.13-.28-.06-.56-.06H3q-.29 0-.57.06-.21.05-.41.13-.21.09-.39.21-.22.14-.4.33-.19.18-.33.4-.12.18-.21.39-.08.2-.13.41Q.5 6.71.5 7v13.99q0 .29.06.57.05.21.13.41.09.21.21.39.14.22.33.4.18.19.4.33.18.12.39.21.2.08.41.13.28.06.57.06"/><mask id="Holy_See_svg__a" width="28" height="20" x="0" y="4" mask-type="alpha" maskUnits="userSpaceOnUse"><path fill="#FFF" d="M3 23.99h22c1.65 0 3-1.34 3-3V7c0-1.66-1.35-3-3-3H3C1.34 4 0 5.34 0 7v13.99c0 1.66 1.34 3 3 3"/></mask><g mask="url(#Holy_See_svg__a)"><path fill="#FBE04B" d="M0 23.99h14V4H0z"/></g><g mask="url(#Holy_See_svg__a)"><path fill="#BF2D1B" fill-rule="evenodd" d="M18.449 17.375c.657.699 1.53 1.125 2.49 1.125.959 0 1.833-.426 2.49-1.125H22.15a2.466 2.466 0 0 1-1.211.321c-.433 0-.843-.115-1.211-.321z" clip-rule="evenodd"/><path fill="#CCC" fill-rule="evenodd" d="M21.528 14.973a1.687 1.687 0 1 0 .568-.568l-1.734-1.734-1.069-1.07-.926.81.53.606.36-.315.233.234-.32.28.53.604.36-.315zm1.443-.009a.884.884 0 1 1 0 1.768.884.884 0 0 1 0-1.768" clip-rule="evenodd"/><path fill="#FBE04B" fill-rule="evenodd" d="M20.534 14.973a1.687 1.687 0 1 1-.568-.568l1.733-1.734 1.07-1.07.926.81-.53.606-.36-.315-.234.234.32.28-.53.604-.36-.315zm-1.444-.009a.884.884 0 1 0 0 1.768.884.884 0 0 0 0-1.768" clip-rule="evenodd"/><ellipse cx="21.099" cy="11.027" fill="#C4C4C4" rx=".964" ry="1.527"/><mask id="Holy_See_svg__b" width="1.929" height="3.054" x="20.135" y="9.5" mask-type="alpha" maskUnits="userSpaceOnUse"><ellipse cx="21.099" cy="11.027" fill="#C4C4C4" rx=".964" ry="1.527"/></mask><g mask="url(#Holy_See_svg__b)"><path stroke="#FBE04B" stroke-linejoin="round" stroke-width=".321" d="M20.13 10.46h1.93"/></g><g mask="url(#Holy_See_svg__b)"><path stroke="#FBE04B" stroke-linejoin="round" stroke-width=".321" d="M19.97 10.94h2.25"/></g><g mask="url(#Holy_See_svg__b)"><path stroke="#FBE04B" stroke-linejoin="round" stroke-width=".321" d="M20.13 11.42h1.93"/></g></g></svg>