<svg xmlns="http://www.w3.org/2000/svg" fill="none" viewBox="0 0 28 28" focusable="false"><path fill="#fff" stroke="#D6D8DD" stroke-width=".5" d="M.25 21A2.75 2.75 0 0 0 3 23.75h22A2.75 2.75 0 0 0 27.75 21V7A2.75 2.75 0 0 0 25 4.25H3A2.75 2.75 0 0 0 .25 7v14Z"/><mask id="Holy_See_svg__a" width="28" height="20" x="0" y="4" maskUnits="userSpaceOnUse" style="mask-type:alpha"><path fill="#fff" d="M0 21a3 3 0 0 0 3 3h22a3 3 0 0 0 3-3V7a3 3 0 0 0-3-3H3a3 3 0 0 0-3 3v14"/></mask><g mask="url(#Holy_See_svg__a)"><path fill="#FBE04B" d="M0 24h14V4H0v20"/><path fill="#BF2D1B" fill-rule="evenodd" d="M18.449 17.375c.657.699 1.53 1.125 2.49 1.125.959 0 1.833-.426 2.49-1.125h-1.292a2.462 2.462 0 0 1-1.198.321c-.415 0-.825-.113-1.198-.321z" clip-rule="evenodd"/><path fill="#CCC" fill-rule="evenodd" d="m19.01 11.85.283-.248.266.266.803.803 1.734 1.734a1.687 1.687 0 1 1-.568.568l-1.468-1.468-.36.315-.53-.604.32-.28-.233-.234-.36.315-.53-.605.643-.563m3.077 3.998a.884.884 0 1 0 1.768 0 .884.884 0 0 0-1.768 0" clip-rule="evenodd"/><path fill="#FBE04B" fill-rule="evenodd" d="m23.052 11.85-.283-.248-.266.266-.804.803-1.734 1.734a1.687 1.687 0 1 0 .568.568l1.469-1.468.36.315.529-.604-.32-.28.234-.234.36.315.53-.605-.643-.563m-3.078 3.998a.884.884 0 1 1-1.767 0 .884.884 0 0 1 1.767 0" clip-rule="evenodd"/><ellipse cx="21.099" cy="11.027" fill="#C4C4C4" rx=".964" ry="1.527"/><mask id="Holy_See_svg__b" width="3" height="4" x="20" y="9" maskUnits="userSpaceOnUse" style="mask-type:alpha"><ellipse cx="21.099" cy="11.027" fill="#C4C4C4" rx=".964" ry="1.527"/></mask><g stroke="#FBE04B" stroke-linejoin="round" stroke-width=".321" mask="url(#Holy_See_svg__b)"><path d="M20.135 10.464h1.929M19.975 10.946h2.25M20.135 11.429h1.929"/></g></g></svg>