<svg xmlns="http://www.w3.org/2000/svg" width="28" height="28" fill="none"><rect width="27.5" height="19.5" x=".25" y="4.25" fill="#fff" stroke="#D6D8DD" stroke-width=".5" rx="2.75"/><mask id="a" width="28" height="20" x="0" y="4" maskUnits="userSpaceOnUse" style="mask-type:luminance"><rect width="27.5" height="19.5" x=".25" y="4.25" fill="#fff" stroke="#fff" stroke-width=".5" rx="2.75"/></mask><g fill-rule="evenodd" clip-rule="evenodd" mask="url(#a)"><path fill="#0884E6" d="M0 10.667h28V4H0v6.667ZM0 24h28v-6.667H0V24Z"/><path fill="#0E88E9" d="m14 14.667-.943.276.276-.943-.276-.943.943.276.943-.276-.276.943.276.943-.943-.276ZM19.333 13.333l-.942.277.276-.943-.277-.943.943.276.943-.276-.276.943.276.943-.943-.277ZM19.333 16l-.942.276.276-.943-.277-.943.943.277.943-.277-.276.943.276.943-.943-.276ZM8.667 16l-.943.276.276-.943-.276-.943.943.277.942-.277-.276.943.276.943L8.667 16ZM8.667 13.333l-.943.277.276-.943-.276-.943.943.276.942-.276-.276.943.276.943-.942-.277Z"/></g></svg>