<svg xmlns="http://www.w3.org/2000/svg" fill="none" viewBox="0 0 28 28" focusable="false"><rect width="27.5" height="19.5" x=".25" y="4.25" fill="#fff" stroke="#d6d8dd" stroke-width=".5" rx="2.75"/><mask id="Honduras_svg__a" width="28" height="20" x="0" y="4" maskUnits="userSpaceOnUse" style="mask-type:luminance"><rect width="27.5" height="19.5" x=".25" y="4.25" fill="#fff" stroke="#fff" stroke-width=".5" rx="2.75"/></mask><g fill-rule="evenodd" clip-rule="evenodd" mask="url(#Honduras_svg__a)"><path fill="#0884e6" d="M0 10.667h28V4H0zM0 24h28v-6.667H0z"/><path fill="#0e88e9" d="m14 14.667-.943.276.276-.943-.276-.943.943.276.943-.276-.276.943.276.943zM19.333 13.333l-.942.277.276-.943-.277-.943.943.276.943-.276-.276.943.276.943zM19.333 16l-.942.276.276-.943-.277-.943.943.277.943-.277-.276.943.276.943zM8.667 16l-.943.276.276-.943-.276-.943.943.277.942-.277-.276.943.276.943zM8.667 13.333l-.943.277.276-.943-.276-.943.943.276.942-.276-.276.943.276.943z"/></g></svg>