<svg xmlns="http://www.w3.org/2000/svg" fill="none" viewBox="0 0 28 28" focusable="false"><path fill="none" d="M0 0h28v28H0z"/><rect width="28" height="20" y="4" fill="#fff" rx="3"/><rect width="27.5" height="19.5" x=".25" y="4.25" stroke="#d6d8dd" stroke-width=".5" rx="3"/><mask id="Honduras_svg__a" width="28" height="20" x="0" y="4" mask-type="alpha" maskUnits="userSpaceOnUse"><rect width="28" height="20" y="4" fill="#fff" rx="3"/><rect width="27.5" height="19.5" x=".25" y="4.25" stroke="#f5f5f5" stroke-width=".5" rx="3"/></mask><g mask="url(#Honduras_svg__a)"><path fill="#0884e6" fill-rule="evenodd" d="M0 10.66h28V4H0z"/><path d="M28 10.66V4H0v6.66z"/></g><g mask="url(#Honduras_svg__a)"><path fill="#0884e6" fill-rule="evenodd" d="M0 24h28v-6.67H0z"/><path d="M28 24v-6.67H0V24z"/></g><g mask="url(#Honduras_svg__a)"><path fill="#0e88e9" fill-rule="evenodd" d="m14 14.66-.95.28.28-.95-.28-.94.95.28.94-.28-.28.94.28.95z"/><path d="m13.05 14.94.28-.95-.28-.94.95.28.94-.28-.28.94.28.95-.94-.28z"/></g><g mask="url(#Honduras_svg__a)"><path fill="#0e88e9" fill-rule="evenodd" d="m19.33 13.33-.94.27.27-.94-.27-.94.94.28.94-.28-.27.94.27.94z"/><path d="m18.39 13.6.27-.94-.27-.94.94.28.94-.28-.27.94.27.94-.94-.27z"/></g><g mask="url(#Honduras_svg__a)"><path fill="#0e88e9" fill-rule="evenodd" d="m19.33 16-.94.27.27-.94-.27-.94.94.27.94-.27-.27.94.27.94z"/><path d="m18.39 16.27.27-.94-.27-.94.94.27.94-.27-.27.94.27.94-.94-.27z"/></g><g mask="url(#Honduras_svg__a)"><path fill="#0e88e9" fill-rule="evenodd" d="m8.66 16-.94.27.28-.94-.28-.94.94.27.94-.27-.27.94.27.94z"/><path d="m7.72 16.27.28-.94-.28-.94.94.27.94-.27-.27.94.27.94-.94-.27z"/></g><g mask="url(#Honduras_svg__a)"><path fill="#0e88e9" fill-rule="evenodd" d="m8.66 13.33-.94.27.28-.94-.28-.94.94.28.94-.28-.27.94.27.94z"/><path d="m7.72 13.6.28-.94-.28-.94.94.28.94-.28-.27.94.27.94-.94-.27z"/></g></svg>