<svg xmlns="http://www.w3.org/2000/svg" fill="none" viewBox="0 0 28 28" focusable="false"><rect width="28" height="20" y="4" fill="#fff" opacity=".33" rx="3"/><mask id="Hong_Kong_svg__a" width="28" height="20" x="0" y="4" maskUnits="userSpaceOnUse" style="mask-type:luminance"><rect width="28" height="20" y="4" fill="#fff" rx="3"/></mask><g fill-rule="evenodd" clip-rule="evenodd" mask="url(#Hong_Kong_svg__a)"><path fill="#F0371D" d="M0 24h28V4H0z"/><path fill="#fff" d="M13.984 12.146c.963-.806 1.021-.986 1.252-1.696.077-.237.023-.432-.041-.662-.093-.331-.206-.736.025-1.447-1.05-.34-2.271.518-2.726 1.919-.455 1.4.027 2.813 1.078 3.154.188.06.167.017.11-.103-.1-.21-.311-.652.302-1.165m-1.994 1.472c-.469-1.165-.622-1.277-1.226-1.715-.202-.147-.403-.155-.642-.165-.344-.015-.764-.032-1.368-.471-.65.893-.21 2.32.982 3.185s2.684.843 3.333-.05c.116-.16.067-.154-.064-.137-.23.03-.716.095-1.015-.647m6.01.636c-.747 0-.936 0-2-.667-.678-.425-1.033-.087-1.202.073-.096.091-.131.125-.131-.073 0-1.104 1.194-2 2.666-2 1.473 0 2.667.896 2.667 2-.747 0-1.097.233-1.384.423-.198.132-.367.244-.616.244M18 13a.333.333 0 1 1-.667 0A.333.333 0 0 1 18 13m-2.748 2.95c-.305 1.218-.247 1.398-.016 2.108.077.237.235.363.422.51.27.215.6.476.83 1.186 1.05-.341 1.533-1.753 1.078-3.154-.455-1.4-1.675-2.26-2.726-1.918-.188.061-.145.084-.028.147.204.111.635.345.44 1.12m1.177 1.72a.333.333 0 1 1-.206-.634.333.333 0 0 1 .206.635m-3.655-1.701c-1.253.086-1.406.197-2.01.636-.202.146-.272.336-.355.56-.12.322-.267.716-.871 1.155.649.893 2.141.916 3.333.05 1.191-.865 1.63-2.291.981-3.185-.116-.16-.125-.112-.149.018-.042.23-.131.71-.93.766m-1.273 1.65a.333.333 0 1 1 .54-.391.333.333 0 0 1-.54.391m-1.474-4.702a.333.333 0 1 1 .54.392.333.333 0 0 1-.54-.392m4.017-2.855a.333.333 0 1 1-.206.634.333.333 0 0 1 .206-.634"/></g></svg>