<svg xmlns="http://www.w3.org/2000/svg" fill="none" viewBox="0 0 28 28" focusable="false"><path fill="none" d="M0 0h28v28H0z"/><g opacity=".33"><rect width="28" height="20" y="4" fill="#FFF" rx="3"/><rect width="28" height="20" y="4" rx="3"/></g><mask id="Hong_Kong_svg__a" width="28" height="20" x="0" y="4" mask-type="alpha" maskUnits="userSpaceOnUse"><rect width="28" height="20" y="4" fill="#FFF" rx="3"/><rect width="28" height="20" y="4" stroke="#979797" stroke-opacity="0" stroke-width="0" rx="3"/></mask><g mask="url(#Hong_Kong_svg__a)"><path fill="#F0371D" fill-rule="evenodd" d="M0 24h28V4H0z"/><path d="M28 24V4H0v20z"/></g><g mask="url(#Hong_Kong_svg__a)"><mask id="Hong_Kong_svg__b" fill="#fff"><path fill-rule="evenodd" d="M15.236 10.45c-.23.71-.29.89-1.252 1.696-.613.513-.402.955-.302 1.165.057.12.078.164-.11.103-1.05-.342-1.533-1.754-1.078-3.154C12.949 8.859 14.17 8 15.22 8.34c-.23.71-.118 1.116-.025 1.447.064.23.118.425.041.662m-1.192-.388a.333.333 0 1 1-.206.634.333.333 0 0 1 .206-.634m-3.28 1.84c.604.44.757.55 1.226 1.716.299.742.784.678 1.015.647.131-.017.18-.024.064.136-.65.894-2.142.917-3.333.051s-1.631-2.292-.982-3.185c.604.439 1.024.456 1.368.47.239.01.44.02.642.166M16 13.588c1.064.667 1.253.667 2 .667.608 0 .735-.667 2-.667 0-1.104-1.194-2-2.667-2s-2.666.896-2.666 2c0 .198.035.164.131.073.169-.16.524-.498 1.202-.073M18 13a.333.333 0 1 1-.667 0A.333.333 0 0 1 18 13m-7.973-.083a.333.333 0 1 1 .54.392.333.333 0 0 1-.54-.392m5.21 5.141c-.232-.71-.29-.89.015-2.108.194-.776-.236-1.01-.44-1.12-.117-.064-.16-.087.028-.148 1.05-.341 2.271.517 2.726 1.918s-.027 2.813-1.078 3.154c-.39-1.203-1.064-1.117-1.252-1.696m-4.473-1.453c.604-.439.757-.55 2.01-.636.798-.055.887-.537.93-.765.023-.13.032-.179.148-.019.65.894.21 2.32-.981 3.185s-2.684.843-3.333-.05c1.023-.744.734-1.357 1.226-1.715m5.665 1.066a.333.333 0 1 1-.206-.635.333.333 0 0 1 .206.635m-4.928-.052a.333.333 0 1 1 .54-.392.333.333 0 0 1-.54.392" clip-rule="evenodd"/></mask><path fill="#FFF" fill-rule="evenodd" d="M15.236 10.45c-.23.71-.29.89-1.252 1.696-.613.513-.402.955-.302 1.165.057.12.078.164-.11.103-1.05-.342-1.533-1.754-1.078-3.154C12.949 8.859 14.17 8 15.22 8.34c-.23.71-.118 1.116-.025 1.447.064.23.118.425.041.662m-1.192-.388a.333.333 0 1 1-.206.634.333.333 0 0 1 .206-.634m-3.28 1.84c.604.44.757.55 1.226 1.716.299.742.784.678 1.015.647.131-.017.18-.024.064.136-.65.894-2.142.917-3.333.051s-1.631-2.292-.982-3.185c.604.439 1.024.456 1.368.47.239.01.44.02.642.166M16 13.588c1.064.667 1.253.667 2 .667.608 0 .735-.667 2-.667 0-1.104-1.194-2-2.667-2s-2.666.896-2.666 2c0 .198.035.164.131.073.169-.16.524-.498 1.202-.073M18 13a.333.333 0 1 1-.667 0A.333.333 0 0 1 18 13m-7.973-.083a.333.333 0 1 1 .54.392.333.333 0 0 1-.54-.392m5.21 5.141c-.232-.71-.29-.89.015-2.108.194-.776-.236-1.01-.44-1.12-.117-.064-.16-.087.028-.148 1.05-.341 2.271.517 2.726 1.918s-.027 2.813-1.078 3.154c-.39-1.203-1.064-1.117-1.252-1.696m-4.473-1.453c.604-.439.757-.55 2.01-.636.798-.055.887-.537.93-.765.023-.13.032-.179.148-.019.65.894.21 2.32-.981 3.185s-2.684.843-3.333-.05c1.023-.744.734-1.357 1.226-1.715m5.665 1.066a.333.333 0 1 1-.206-.635.333.333 0 0 1 .206.635m-4.928-.052a.333.333 0 1 1 .54-.392.333.333 0 0 1-.54.392" clip-rule="evenodd" mask="url(#Hong_Kong_svg__b)"/></g></svg>