<svg xmlns="http://www.w3.org/2000/svg" fill="none" viewBox="0 0 28 28" focusable="false"><path fill="none" d="M0 0h28v28H0z"/><rect width="28" height="20" y="4" fill="#FFF" rx="3"/><rect width="27.5" height="19.5" x=".25" y="4.25" stroke="#D6D8DD" stroke-width=".5" rx="3"/><mask id="Iran_svg__a" width="28" height="20" x="0" y="4" mask-type="alpha" maskUnits="userSpaceOnUse"><rect width="28" height="20" y="4" fill="#FFF" rx="3"/><rect width="27.5" height="19.5" x=".25" y="4.25" stroke="#F5F5F5" stroke-width=".5" rx="3"/></mask><g mask="url(#Iran_svg__a)"><path fill="#38BB56" fill-rule="evenodd" d="M0 10.66h28V4H0z"/><path d="M28 10.66V4H0v6.66z"/></g><g mask="url(#Iran_svg__a)"><path fill="#DE1B27" fill-rule="evenodd" d="M0 24h28v-6.67H0z"/><path d="M28 24v-6.67H0V24z"/></g><g mask="url(#Iran_svg__a)"><mask id="Iran_svg__b" fill="#fff"><path fill-rule="evenodd" d="M1.667 9.333h.666c.184 0 .334.15.334.334v.666c0 .184-.15.334-.334.334h-.666a.333.333 0 0 1-.334-.334v-.666c0-.184.15-.334.334-.334m2.666 0H5c.184 0 .333.15.333.334v.666c0 .184-.149.334-.333.334h-.667A.333.333 0 0 1 4 10.333v-.666c0-.184.15-.334.333-.334m2.667 0h.667c.184 0 .333.15.333.334v.666c0 .184-.15.334-.333.334H7a.333.333 0 0 1-.333-.334v-.666c0-.184.149-.334.333-.334m2.667 0h.666c.184 0 .334.15.334.334v.666c0 .184-.15.334-.334.334h-.666a.333.333 0 0 1-.334-.334v-.666c0-.184.15-.334.334-.334m2.666 0H13c.184 0 .333.15.333.334v.666c0 .184-.149.334-.333.334h-.667a.333.333 0 0 1-.333-.334v-.666c0-.184.15-.334.333-.334m2.667 0h.667c.184 0 .333.15.333.334v.666c0 .184-.15.334-.333.334H15a.333.333 0 0 1-.333-.334v-.666c0-.184.149-.334.333-.334m2.667 0h.666c.184 0 .334.15.334.334v.666c0 .184-.15.334-.334.334h-.666a.333.333 0 0 1-.334-.334v-.666c0-.184.15-.334.334-.334m2.666 0H21c.184 0 .333.15.333.334v.666c0 .184-.149.334-.333.334h-.667a.333.333 0 0 1-.333-.334v-.666c0-.184.15-.334.333-.334m2.667 0h.667c.184 0 .333.15.333.334v.666c0 .184-.15.334-.333.334H23a.333.333 0 0 1-.333-.334v-.666c0-.184.149-.334.333-.334m2.667 0h.666c.184 0 .334.15.334.334v.666c0 .184-.15.334-.334.334h-.666a.333.333 0 0 1-.334-.334v-.666c0-.184.15-.334.334-.334m-24 8h.666c.184 0 .334.15.334.334v.666c0 .184-.15.334-.334.334h-.666a.333.333 0 0 1-.334-.334v-.666c0-.184.15-.334.334-.334m2.666 0H5c.184 0 .333.15.333.334v.666c0 .184-.149.334-.333.334h-.667A.333.333 0 0 1 4 18.333v-.666c0-.184.15-.334.333-.334m2.667 0h.667c.184 0 .333.15.333.334v.666c0 .184-.15.334-.333.334H7a.333.333 0 0 1-.333-.334v-.666c0-.184.149-.334.333-.334m2.667 0h.666c.184 0 .334.15.334.334v.666c0 .184-.15.334-.334.334h-.666a.333.333 0 0 1-.334-.334v-.666c0-.184.15-.334.334-.334m2.666 0H13c.184 0 .333.15.333.334v.666c0 .184-.149.334-.333.334h-.667a.333.333 0 0 1-.333-.334v-.666c0-.184.15-.334.333-.334m2.667 0h.667c.184 0 .333.15.333.334v.666c0 .184-.15.334-.333.334H15a.333.333 0 0 1-.333-.334v-.666c0-.184.149-.334.333-.334m2.667 0h.666c.184 0 .334.15.334.334v.666c0 .184-.15.334-.334.334h-.666a.333.333 0 0 1-.334-.334v-.666c0-.184.15-.334.334-.334m2.666 0H21c.184 0 .333.15.333.334v.666c0 .184-.149.334-.333.334h-.667a.333.333 0 0 1-.333-.334v-.666c0-.184.15-.334.333-.334m2.667 0h.667c.184 0 .333.15.333.334v.666c0 .184-.15.334-.333.334H23a.333.333 0 0 1-.333-.334v-.666c0-.184.149-.334.333-.334m2.667 0h.666c.184 0 .334.15.334.334v.666c0 .184-.15.334-.334.334h-.666a.333.333 0 0 1-.334-.334v-.666c0-.184.15-.334.334-.334" clip-rule="evenodd"/></mask><path fill="#FFF" fill-opacity=".5" fill-rule="evenodd" d="M1.667 9.333h.666c.184 0 .334.15.334.334v.666c0 .184-.15.334-.334.334h-.666a.333.333 0 0 1-.334-.334v-.666c0-.184.15-.334.334-.334m2.666 0H5c.184 0 .333.15.333.334v.666c0 .184-.149.334-.333.334h-.667A.333.333 0 0 1 4 10.333v-.666c0-.184.15-.334.333-.334m2.667 0h.667c.184 0 .333.15.333.334v.666c0 .184-.15.334-.333.334H7a.333.333 0 0 1-.333-.334v-.666c0-.184.149-.334.333-.334m2.667 0h.666c.184 0 .334.15.334.334v.666c0 .184-.15.334-.334.334h-.666a.333.333 0 0 1-.334-.334v-.666c0-.184.15-.334.334-.334m2.666 0H13c.184 0 .333.15.333.334v.666c0 .184-.149.334-.333.334h-.667a.333.333 0 0 1-.333-.334v-.666c0-.184.15-.334.333-.334m2.667 0h.667c.184 0 .333.15.333.334v.666c0 .184-.15.334-.333.334H15a.333.333 0 0 1-.333-.334v-.666c0-.184.149-.334.333-.334m2.667 0h.666c.184 0 .334.15.334.334v.666c0 .184-.15.334-.334.334h-.666a.333.333 0 0 1-.334-.334v-.666c0-.184.15-.334.334-.334m2.666 0H21c.184 0 .333.15.333.334v.666c0 .184-.149.334-.333.334h-.667a.333.333 0 0 1-.333-.334v-.666c0-.184.15-.334.333-.334m2.667 0h.667c.184 0 .333.15.333.334v.666c0 .184-.15.334-.333.334H23a.333.333 0 0 1-.333-.334v-.666c0-.184.149-.334.333-.334m2.667 0h.666c.184 0 .334.15.334.334v.666c0 .184-.15.334-.334.334h-.666a.333.333 0 0 1-.334-.334v-.666c0-.184.15-.334.334-.334m-24 8h.666c.184 0 .334.15.334.334v.666c0 .184-.15.334-.334.334h-.666a.333.333 0 0 1-.334-.334v-.666c0-.184.15-.334.334-.334m2.666 0H5c.184 0 .333.15.333.334v.666c0 .184-.149.334-.333.334h-.667A.333.333 0 0 1 4 18.333v-.666c0-.184.15-.334.333-.334m2.667 0h.667c.184 0 .333.15.333.334v.666c0 .184-.15.334-.333.334H7a.333.333 0 0 1-.333-.334v-.666c0-.184.149-.334.333-.334m2.667 0h.666c.184 0 .334.15.334.334v.666c0 .184-.15.334-.334.334h-.666a.333.333 0 0 1-.334-.334v-.666c0-.184.15-.334.334-.334m2.666 0H13c.184 0 .333.15.333.334v.666c0 .184-.149.334-.333.334h-.667a.333.333 0 0 1-.333-.334v-.666c0-.184.15-.334.333-.334m2.667 0h.667c.184 0 .333.15.333.334v.666c0 .184-.15.334-.333.334H15a.333.333 0 0 1-.333-.334v-.666c0-.184.149-.334.333-.334m2.667 0h.666c.184 0 .334.15.334.334v.666c0 .184-.15.334-.334.334h-.666a.333.333 0 0 1-.334-.334v-.666c0-.184.15-.334.334-.334m2.666 0H21c.184 0 .333.15.333.334v.666c0 .184-.149.334-.333.334h-.667a.333.333 0 0 1-.333-.334v-.666c0-.184.15-.334.333-.334m2.667 0h.667c.184 0 .333.15.333.334v.666c0 .184-.15.334-.333.334H23a.333.333 0 0 1-.333-.334v-.666c0-.184.149-.334.333-.334m2.667 0h.666c.184 0 .334.15.334.334v.666c0 .184-.15.334-.334.334h-.666a.333.333 0 0 1-.334-.334v-.666c0-.184.15-.334.334-.334" clip-rule="evenodd" mask="url(#Iran_svg__b)"/></g><g mask="url(#Iran_svg__a)"><path fill="none" d="M12.65 12.52c-.4.36-.65.89-.65 1.48a2 2 0 1 0 4 0c0-.58-.25-1.1-.64-1.46z"/><path fill="#D80915" fill-rule="evenodd" d="M12.9 13.23q.09-.12.2-.22l-.45-.49c-.4.36-.65.89-.65 1.48a2 2 0 1 0 4 0c0-.58-.25-1.1-.64-1.46l-.45.48q.1.1.19.22.07.1.12.22.04.11.07.22.04.15.04.32 0 .15-.04.3-.02.11-.07.21-.04.11-.11.21-.07.12-.17.22t-.22.17q-.1.07-.21.11-.1.05-.21.07-.15.04-.3.04-.16 0-.31-.04-.11-.02-.21-.07-.11-.04-.21-.11-.12-.07-.22-.17t-.17-.22q-.07-.1-.11-.21-.05-.1-.07-.21-.04-.15-.04-.3 0-.17.04-.32.03-.12.08-.23.05-.12.12-.22"/></g><g mask="url(#Iran_svg__a)"><rect width="1.333" height="2.667" x="13.333" y="13.333" fill="#D80915" rx=".667"/><rect width="1.333" height="2.667" x="13.333" y="13.333" rx=".667"/></g></svg>