<svg xmlns="http://www.w3.org/2000/svg" width="28" height="28" fill="none"><rect width="27.5" height="19.5" x=".25" y="4.25" fill="#fff" stroke="#D6D8DD" stroke-width=".5" rx="2.75"/><mask id="a" width="28" height="20" x="0" y="4" maskUnits="userSpaceOnUse" style="mask-type:luminance"><rect width="27.5" height="19.5" x=".25" y="4.25" fill="#fff" stroke="#fff" stroke-width=".5" rx="2.75"/></mask><g mask="url(#a)"><path fill="#38BB56" fill-rule="evenodd" d="M0 10.667h28V4H0v6.667Z" clip-rule="evenodd"/><path fill="#DE1B27" fill-rule="evenodd" d="M0 24h28v-6.667H0V24Z" clip-rule="evenodd"/><path fill="#fff" fill-opacity=".5" fill-rule="evenodd" d="M1.667 9.333a.333.333 0 0 0-.334.334v.666c0 .184.15.334.334.334h.666c.184 0 .334-.15.334-.334v-.666a.333.333 0 0 0-.334-.334h-.666Zm2.666 0A.333.333 0 0 0 4 9.667v.666c0 .184.15.334.333.334H5c.184 0 .333-.15.333-.334v-.666A.333.333 0 0 0 5 9.333h-.667Zm2.334.334c0-.184.149-.334.333-.334h.667c.184 0 .333.15.333.334v.666c0 .184-.15.334-.333.334H7a.333.333 0 0 1-.333-.334v-.666Zm3-.334a.333.333 0 0 0-.334.334v.666c0 .184.15.334.334.334h.666c.184 0 .334-.15.334-.334v-.666a.333.333 0 0 0-.334-.334h-.666ZM12 9.667c0-.184.15-.334.333-.334H13c.184 0 .333.15.333.334v.666c0 .184-.149.334-.333.334h-.667a.333.333 0 0 1-.333-.334v-.666Zm3-.334a.333.333 0 0 0-.333.334v.666c0 .184.149.334.333.334h.667c.184 0 .333-.15.333-.334v-.666a.333.333 0 0 0-.333-.334H15Zm2.333.334c0-.184.15-.334.334-.334h.666c.184 0 .334.15.334.334v.666c0 .184-.15.334-.334.334h-.666a.333.333 0 0 1-.334-.334v-.666Zm3-.334a.333.333 0 0 0-.333.334v.666c0 .184.15.334.333.334H21c.184 0 .333-.15.333-.334v-.666A.333.333 0 0 0 21 9.333h-.667Zm2.334.334c0-.184.149-.334.333-.334h.667c.184 0 .333.15.333.334v.666c0 .184-.15.334-.333.334H23a.333.333 0 0 1-.333-.334v-.666Zm3-.334a.333.333 0 0 0-.334.334v.666c0 .184.15.334.334.334h.666c.184 0 .334-.15.334-.334v-.666a.333.333 0 0 0-.334-.334h-.666ZM1.333 17.667c0-.184.15-.334.334-.334h.666c.184 0 .334.15.334.334v.666c0 .184-.15.334-.334.334h-.666a.333.333 0 0 1-.334-.334v-.666Zm3-.334a.333.333 0 0 0-.333.334v.666c0 .184.15.334.333.334H5c.184 0 .333-.15.333-.334v-.666A.333.333 0 0 0 5 17.333h-.667Zm2.334.334c0-.184.149-.334.333-.334h.667c.184 0 .333.15.333.334v.666c0 .184-.15.334-.333.334H7a.333.333 0 0 1-.333-.334v-.666Zm3-.334a.333.333 0 0 0-.334.334v.666c0 .184.15.334.334.334h.666c.184 0 .334-.15.334-.334v-.666a.333.333 0 0 0-.334-.334h-.666Zm2.333.334c0-.184.15-.334.333-.334H13c.184 0 .333.15.333.334v.666c0 .184-.149.334-.333.334h-.667a.333.333 0 0 1-.333-.334v-.666Zm3-.334a.333.333 0 0 0-.333.334v.666c0 .184.149.334.333.334h.667c.184 0 .333-.15.333-.334v-.666a.333.333 0 0 0-.333-.334H15Zm2.333.334c0-.184.15-.334.334-.334h.666c.184 0 .334.15.334.334v.666c0 .184-.15.334-.334.334h-.666a.333.333 0 0 1-.334-.334v-.666Zm3-.334a.333.333 0 0 0-.333.334v.666c0 .184.15.334.333.334H21c.184 0 .333-.15.333-.334v-.666a.333.333 0 0 0-.333-.334h-.667Zm2.334.334c0-.184.149-.334.333-.334h.667c.184 0 .333.15.333.334v.666c0 .184-.15.334-.333.334H23a.333.333 0 0 1-.333-.334v-.666Zm3-.334a.333.333 0 0 0-.334.334v.666c0 .184.15.334.334.334h.666c.184 0 .334-.15.334-.334v-.666a.333.333 0 0 0-.334-.334h-.666Z" clip-rule="evenodd"/><mask id="b" fill="#fff"><path fill-rule="evenodd" d="M12.653 12.521a2 2 0 1 0 2.716.02" clip-rule="evenodd"/></mask><path fill="#D80915" d="M12.204 12.028a2.662 2.662 0 0 0-.87 1.972h1.333c0-.39.167-.741.435-.986l-.898-.986ZM11.335 14A2.667 2.667 0 0 0 14 16.667v-1.334A1.333 1.333 0 0 1 12.667 14h-1.334ZM14 16.667A2.667 2.667 0 0 0 16.667 14h-1.334c0 .736-.597 1.333-1.333 1.333v1.334ZM16.667 14c0-.767-.325-1.458-.842-1.944l-.912.972c.26.244.42.589.42.972h1.334Z" mask="url(#b)"/><rect width="1.333" height="2.667" x="13.333" y="13.333" fill="#D80915" rx=".667"/></g></svg>