<svg xmlns="http://www.w3.org/2000/svg" fill="none" viewBox="0 0 28 28" focusable="false"><path fill="none" d="M0 0h28v28H0z"/><rect width="28" height="20" y="4" fill="#FFF" rx="3"/><rect width="27.5" height="19.5" x=".25" y="4.25" stroke="#D6D8DD" stroke-width=".5" rx="3"/><mask id="Iraq_svg__a" width="28" height="20" x="0" y="4" mask-type="alpha" maskUnits="userSpaceOnUse"><rect width="28" height="20" y="4" fill="#FFF" rx="3"/><rect width="27.5" height="19.5" x=".25" y="4.25" stroke="#F5F5F5" stroke-width=".5" rx="3"/></mask><g mask="url(#Iraq_svg__a)"><path fill="#DF1E35" fill-rule="evenodd" d="M0 10.66h28V4H0z"/><path d="M28 10.66V4H0v6.66z"/></g><g mask="url(#Iraq_svg__a)"><path fill="#262626" fill-rule="evenodd" d="M0 24h28v-6.67H0z"/><path d="M28 24v-6.67H0V24z"/></g><g mask="url(#Iraq_svg__a)"><path fill="#0F7A40" fill-rule="evenodd" d="M18.66 12.53c0-.24.26-.4.48-.29l.67.33c.11.06.19.17.19.3v2.79c0 .19-.15.34-.34.34H19c-.19 0-.34-.15-.34-.34z"/><path d="M19.81 12.57c.11.06.19.17.19.3v2.79c0 .19-.15.34-.34.34H19c-.19 0-.34-.15-.34-.34v-3.13c0-.24.26-.4.48-.29z"/></g><g mask="url(#Iraq_svg__a)"><path fill="#0F7A40" fill-rule="evenodd" d="M10.66 12.53c0-.24.26-.4.48-.29l.67.33c.11.06.19.17.19.3v2.79c0 .19-.15.34-.34.34H11c-.19 0-.34-.15-.34-.34z"/><path d="M11.81 12.57c.11.06.19.17.19.3v2.79c0 .19-.15.34-.34.34H11c-.19 0-.34-.15-.34-.34v-3.13c0-.24.26-.4.48-.29z"/></g><g mask="url(#Iraq_svg__a)"><path fill="#0F7A40" fill-rule="evenodd" d="M16 12.87c0-.13.07-.24.18-.3l.67-.33c.22-.11.48.05.48.29v3.13c0 .19-.15.34-.33.34h-.67c-.19 0-.33-.15-.33-.34z"/><path d="M16.85 12.24c.22-.11.48.05.48.29v3.13c0 .19-.15.34-.33.34h-.67c-.19 0-.33-.15-.33-.34v-2.79c0-.13.07-.24.18-.3z"/></g><g mask="url(#Iraq_svg__a)"><path fill="#0F7A40" fill-rule="evenodd" d="M13.33 14.2c0-.13.07-.24.18-.3l.67-.33c.22-.11.48.05.48.3v.85h2V16h-3c-.18 0-.33-.15-.33-.34z"/><path d="M14.18 13.57c.22-.11.48.05.48.3v.85h2V16h-3c-.18 0-.33-.15-.33-.34V14.2c0-.13.07-.24.18-.3z"/></g><g mask="url(#Iraq_svg__a)"><path fill="#0F7A40" fill-rule="evenodd" d="M8 14.2c0-.13.07-.24.18-.3l.67-.33c.22-.11.48.05.48.3v.85h2V16h-3c-.19 0-.33-.15-.33-.34z"/><path d="M8.85 13.57c.22-.11.48.05.48.3v.85h2V16h-3c-.19 0-.33-.15-.33-.34V14.2c0-.13.07-.24.18-.3z"/></g></svg>