<svg xmlns="http://www.w3.org/2000/svg" fill="none" viewBox="0 0 28 28" focusable="false"><defs><filter id="Iraq_svg__a"><feColorMatrix values="0 0 0 0 1 0 0 0 0 1 0 0 0 0 1 0 0 0 1 0"/></filter></defs><mask id="Iraq_svg__b" width="28" height="20" x="0" y="4" maskUnits="userSpaceOnUse"><g filter="url(#Iraq_svg__a)"><rect width="28" height="20" y="4" fill="#FFF" rx="3"/><rect width="27.5" height="19.5" x=".25" y="4.25" stroke="#F5F5F5" stroke-width=".5" rx="2.75"/></g></mask><path fill="none" d="M0 0H28V28H0z"/><rect width="28" height="20" y="4" fill="#FFF" rx="3"/><rect width="27.5" height="19.5" x=".25" y="4.25" stroke="#D6D8DD" stroke-width=".5" rx="2.75"/><g mask="url(#Iraq_svg__b)"><path fill="#DF1E35" fill-rule="evenodd" d="M0 10.6667L28 10.6667L28 4L0 4L0 10.6667Z"/><path d="M28 10.6667L28 4L0 4L0 10.6667L28 10.6667Z"/><path fill="#262626" fill-rule="evenodd" d="M0 24L28 24L28 17.3333L0 17.3333L0 24Z"/><path d="M28 24L28 17.3333L0 17.3333L0 24L28 24Z"/><path fill="#0F7A40" fill-rule="evenodd" d="M18.6667 12.5393C18.6667 12.2916 18.9274 12.1304 19.1491 12.2412L19.8157 12.5745C19.9287 12.631 20 12.7464 20 12.8727L20 15.6667C20 15.8508 19.8508 16 19.6667 16L19 16C18.8159 16 18.6667 15.8508 18.6667 15.6667L18.6667 12.5393Z"/><path d="M19.8157 12.5745C19.9287 12.631 20 12.7464 20 12.8727L20 15.6667C20 15.8508 19.8508 16 19.6667 16L19 16C18.8159 16 18.6667 15.8508 18.6667 15.6667L18.6667 12.5393C18.6667 12.2916 18.9274 12.1304 19.1491 12.2412L19.8157 12.5745Z"/><path fill="#0F7A40" fill-rule="evenodd" d="M10.6667 12.5393C10.6667 12.2916 10.9274 12.1304 11.1491 12.2412L11.8157 12.5745C11.9287 12.631 12 12.7464 12 12.8727L12 15.6667C12 15.8508 11.8508 16 11.6667 16L11 16C10.8159 16 10.6667 15.8508 10.6667 15.6667L10.6667 12.5393Z"/><path d="M11.8157 12.5745C11.9287 12.631 12 12.7464 12 12.8727L12 15.6667C12 15.8508 11.8508 16 11.6667 16L11 16C10.8159 16 10.6667 15.8508 10.6667 15.6667L10.6667 12.5393C10.6667 12.2916 10.9274 12.1304 11.1491 12.2412L11.8157 12.5745Z"/><path fill="#0F7A40" fill-rule="evenodd" d="M16 12.8727C16 12.7464 16.0713 12.631 16.1843 12.5745L16.8509 12.2412C17.0726 12.1304 17.3333 12.2916 17.3333 12.5393L17.3333 15.6667C17.3333 15.8508 17.1841 16 17 16L16.3333 16C16.1492 16 16 15.8508 16 15.6667L16 12.8727Z"/><path d="M16.8509 12.2412C17.0726 12.1304 17.3333 12.2916 17.3333 12.5393L17.3333 15.6667C17.3333 15.8508 17.1841 16 17 16L16.3333 16C16.1492 16 16 15.8508 16 15.6667L16 12.8727C16 12.7464 16.0713 12.631 16.1843 12.5745L16.8509 12.2412Z"/><path fill="#0F7A40" fill-rule="evenodd" d="M13.3333 14.206C13.3333 14.0797 13.4047 13.9643 13.5176 13.9078L14.1843 13.5745C14.4059 13.4637 14.6667 13.6249 14.6667 13.8727L14.6667 14.7264L16.6667 14.7264L16.6667 16L14.6667 16L13.6667 16C13.4826 16 13.3333 15.8507 13.3333 15.6666L13.3333 14.206Z"/><path d="M14.1843 13.5745C14.4059 13.4637 14.6667 13.6249 14.6667 13.8727L14.6667 14.7264L16.6667 14.7264L16.6667 16L14.6667 16L13.6667 16C13.4826 16 13.3333 15.8507 13.3333 15.6666L13.3333 14.206C13.3333 14.0797 13.4047 13.9643 13.5176 13.9078L14.1843 13.5745Z"/><path fill="#0F7A40" fill-rule="evenodd" d="M8 14.206C8 14.0797 8.07133 13.9643 8.18426 13.9078L8.85093 13.5745C9.07256 13.4637 9.33333 13.6249 9.33333 13.8727L9.33333 14.7264L11.3333 14.7264L11.3333 16L9.33333 16L8.33333 16C8.14924 16 8 15.8507 8 15.6666L8 14.206Z"/><path d="M8.85093 13.5745C9.07256 13.4637 9.33333 13.6249 9.33333 13.8727L9.33333 14.7264L11.3333 14.7264L11.3333 16L9.33333 16L8.33333 16C8.14924 16 8 15.8507 8 15.6666L8 14.206C8 14.0797 8.07133 13.9643 8.18426 13.9078L8.85093 13.5745Z"/></g></svg>