<svg xmlns="http://www.w3.org/2000/svg" fill="none" viewBox="0 0 28 28" focusable="false"><rect width="27.5" height="19.5" x=".25" y="4.25" fill="#fff" stroke="#D6D8DD" stroke-width=".5" rx="2.75"/><mask id="Iraq_svg__a" width="28" height="20" x="0" y="4" maskUnits="userSpaceOnUse" style="mask-type:luminance"><rect width="27.5" height="19.5" x=".25" y="4.25" fill="#fff" stroke="#fff" stroke-width=".5" rx="2.75"/></mask><g fill-rule="evenodd" clip-rule="evenodd" mask="url(#Iraq_svg__a)"><path fill="#DF1E35" d="M0 10.667h28V4H0z"/><path fill="#262626" d="M0 24h28v-6.667H0z"/><path fill="#0F7A40" d="M18.667 12.54c0-.248.26-.41.482-.299l.667.334a.33.33 0 0 1 .184.298v2.794c0 .184-.15.333-.333.333H19a.333.333 0 0 1-.333-.333zM10.667 12.54c0-.248.26-.41.482-.299l.667.334a.33.33 0 0 1 .184.298v2.794c0 .184-.15.333-.333.333H11a.333.333 0 0 1-.333-.333zM16 12.873c0-.127.071-.242.184-.298l.667-.334c.222-.11.482.05.482.298v3.128c0 .184-.149.333-.333.333h-.667a.333.333 0 0 1-.333-.333z"/><path fill="#0F7A40" d="M13.333 14.206c0-.126.072-.242.185-.298l.666-.333c.222-.111.483.05.483.298v.853h2V16h-3a.333.333 0 0 1-.334-.333zM8 14.206c0-.126.071-.242.184-.298l.667-.333c.222-.111.482.05.482.298v.853h2V16h-3A.333.333 0 0 1 8 15.667z"/></g></svg>