<svg xmlns="http://www.w3.org/2000/svg" fill="none" viewBox="0 0 28 28" focusable="false"><path fill="none" d="M0 0h28v28H0z"/><rect width="28" height="20" y="4" fill="#D01129" rx="3"/><rect width="28" height="20" y="4" rx="3"/><mask id="Isle_of_Man_svg__a" width="28" height="20" x="0" y="4" mask-type="alpha" maskUnits="userSpaceOnUse"><rect width="28" height="20" y="4" fill="#D01129" rx="3"/><rect width="28" height="20" y="4" stroke="#979797" stroke-opacity="0" stroke-width="0" rx="3"/></mask><g mask="url(#Isle_of_Man_svg__a)"><path fill="#FFF101" fill-rule="evenodd" d="M13.88 14.04c.66 0 1.2-.57 1.2-1.26 0-.69-.54-1.26-1.2-1.26-.66 0-1.19.57-1.19 1.26 0 .69.53 1.26 1.19 1.26"/><path d="M15.08 12.78c0-.69-.54-1.26-1.2-1.26-.66 0-1.19.57-1.19 1.26 0 .69.53 1.26 1.19 1.26.66 0 1.2-.57 1.2-1.26"/><path fill="#FFF" fill-rule="evenodd" d="M12.79 12.27c.34-.11.78.02 1.07.31.31-.05.62-.46.71-.82-.1-1.2-.85-2.11-1.08-2.73-.07-.19-.4-.5-.75-.36-.28.12-.43.03-1.38.53-.52.27-.95.55-1.18.59-.23.05-.47.1-.66-.06-.25-.2-.53-.26-.7-.42-.2-.19-.33-.33-.47-.39-.14-.06-.37.07-.28.38.23.7.75.81.98 1.47.1.31.26.54.59.31.34-.24.82-.55 1.63-.58.55-.02 1.12-.23 1.37-.58 0 .3.1.54.08.93-.03.39-.03.88.07 1.42"/><path fill="#FFF101" fill-rule="evenodd" d="M13.43 12.31c-.1-.59.08-.68-.13-1.37-.13-.41-.22-.94-.22-1.18l-.09.03c.01.24.09.76.22 1.18.21.67.05.77.13 1.31.02 0 .07.02.09.03"/><path d="M13.3 10.94c-.13-.41-.22-.94-.22-1.18l-.09.03c.01.24.09.76.22 1.18.21.67.05.77.13 1.31.02 0 .07.02.09.03-.1-.59.08-.68-.13-1.37"/><path fill="#FFF101" fill-rule="evenodd" d="M12.92 12.24c0-.07-.01-.15-.02-.22.16-.04.42.11.41 0 0-.03 0-.15.01-.21-.01.1-.37-.06-.44-.02-.06-.34.02-.7-.03-.91.12-.04.34.04.32-.06-.02-.05-.05-.18-.07-.26.02.08-.16.01-.22.06-.03-.19-.08-.54-.07-.7h-.16c-.01.3.09.54.07.93-.03.39-.03.88.07 1.42.04-.01.1-.02.13-.03M12.51 9.5c-.23.36-.8.61-1.33.67-.62.06-1.03.28-1.34.49-.02-.05-.07-.08-.11-.11-.45-.35-.27-.82-.1-.75a.332.332 0 0 1-.13-.09c-.06-.04-.23.13-.21.41.01.12.11.3.19.39-.15-.03-.22-.07-.3-.17.05-.03.11-.05.16-.06a.43.43 0 0 1-.05-.16c-.07 0-.16.03-.23.08-.18-.18-.36-.33-.46-.55-.17-.35 0-.57.22-.34-.2-.19-.33-.33-.47-.39-.14-.06-.37.07-.28.38.23.7.75.81.98 1.47.1.31.26.55.59.31.05-.03.06-.04.1-.07.1-.06.27.04.25.28.09-.22.03-.28-.04-.41-.05.03-.05-.15-.08-.17.19-.12.42-.25.71-.34.01.11.04.22.13.2l.15-.03c-.09.02-.12-.1-.13-.21.14-.03.29-.06.46-.07.19-.02.38-.06.57-.12.03.1.08.27.18.24.08-.03.16-.06.24-.1-.13.06-.18-.12-.22-.22.25-.11.45-.26.57-.44z"/><path d="M9.29 10.12c-.07 0-.16.03-.23.08-.18-.18-.36-.33-.46-.55-.17-.35 0-.57.22-.34-.2-.19-.33-.33-.47-.39-.14-.06-.37.07-.28.38.23.7.75.81.98 1.47.1.31.26.55.59.31.05-.03.06-.04.1-.07.1-.06.27.04.25.28.09-.22.03-.28-.04-.41-.05.03-.05-.15-.08-.17.19-.12.42-.25.71-.34.01.11.04.22.13.2l.15-.03c-.09.02-.12-.1-.13-.21.14-.03.29-.06.46-.07.19-.02.38-.06.57-.12.03.1.08.27.18.24.08-.03.16-.06.24-.1-.13.06-.18-.12-.22-.22.25-.11.45-.26.57-.44l-.02-.12c-.23.36-.8.61-1.33.67-.62.06-1.03.28-1.34.49-.02-.05-.07-.08-.11-.11-.45-.35-.27-.82-.1-.75a.332.332 0 0 1-.13-.09c-.06-.04-.23.13-.21.41.01.12.11.3.19.39-.15-.03-.22-.07-.3-.17.05-.03.11-.05.16-.06a.43.43 0 0 1-.05-.16"/><path fill="#FFF101" fill-rule="evenodd" d="M13.57 9.68c.11-.09.21-.14.11-.34-.16-.33-.06-.33-.42-.53-.36-.22-.32-.23-.8-.05-.12.04-.09.08-.07.27.04.39.13.7.21 1.02.3-.04.77-.2.97-.37"/><path fill="#FFF101" fill-rule="evenodd" d="M12.43 9.59c-.06-.19-.04-.16.19-.1.07-.26.18-.47.24-.67.06-.23.08-.27.18-.22.12.07.26.15.35.19.15.08.13.11.05.24-.07.12-.31.38-.46.65.2.14.26.15.12.22-.16.06-.41.15-.52.17-.02-.12-.09-.29-.15-.48M10.14 11.4l-.02.19-.14-.13-.15.11.01-.19-.18-.06.15-.12-.07-.18.18.06.1-.17.07.18.18-.03-.09.17.14.13z"/><path d="m10.12 11.59-.14-.13-.15.11.01-.19-.18-.06.15-.12-.07-.18.18.06.1-.17.07.18.18-.03-.09.17.14.13-.18.04z"/><path fill="#FFF" fill-rule="evenodd" d="M14.01 14.02c-.26-.25-.37-.71-.28-1.12-.2-.25-.69-.33-1.03-.24-.94.7-1.31 1.83-1.71 2.35-.13.16-.22.62.07.86.24.2.24.38 1.13 1 .48.33.93.59 1.08.77.16.19.31.38.28.63-.04.33.05.62.01.85-.06.28-.11.47-.09.62.02.16.24.31.45.06.46-.55.3-1.09.72-1.62.21-.25.32-.5-.04-.69-.36-.19-.86-.47-1.29-1.2-.29-.48-.75-.89-1.17-.95.25-.15.4-.37.74-.54.33-.17.73-.41 1.13-.78"/><path fill="#FFF101" fill-rule="evenodd" d="M13.72 13.43c-.44.38-.6.26-1.06.8-.28.33-.67.66-.86.79l.06.06c.2-.12.59-.46.87-.78.44-.53.61-.43 1.01-.77a.44.44 0 0 1-.02-.1"/><path d="M12.66 14.23c-.28.33-.67.66-.86.79l.06.06c.2-.12.59-.46.87-.78.44-.53.61-.43 1.01-.77a.44.44 0 0 1-.02-.1c-.44.38-.6.26-1.06.8"/><path fill="#FFF101" fill-rule="evenodd" d="M13.92 13.93c-.06.03-.12.08-.17.12-.11-.12-.12-.44-.21-.37-.02.02-.12.07-.17.1.08-.05.13.37.2.4-.25.24-.59.34-.74.49-.09-.09-.14-.33-.21-.26-.03.04-.12.13-.18.19.06-.06.09.14.16.17-.13.12-.4.34-.54.42l.08.15c.25-.15.4-.37.74-.54.33-.17.73-.41 1.13-.78-.02-.02-.06-.07-.09-.09M11.87 15.66c.41.04.9.43 1.21.88.36.53.75.8 1.08.97-.03.05-.03.11-.04.16-.06.58-.54.65-.57.46.01.07 0 .12 0 .17-.01.08.22.14.44-.02.09-.06.19-.24.23-.36.05.15.05.23 0 .36a.456.456 0 0 1-.12-.12c-.03.04-.05.08-.11.12.03.07.1.13.18.17-.07.26-.1.5-.22.7-.21.33-.48.28-.39-.03-.06.28-.11.47-.09.62.02.16.24.31.45.06.46-.55.3-1.09.72-1.62.21-.25.33-.51-.04-.69-.05-.03-.06-.03-.1-.06-.11-.06-.1-.26.1-.37-.22.03-.25.12-.32.25.05.03-.09.11-.1.16-.19-.11-.41-.26-.63-.48.08-.06.16-.15.1-.22-.03-.04-.07-.08-.1-.12.06.07-.03.16-.11.22-.1-.11-.19-.23-.29-.38-.11-.16-.24-.32-.38-.46.07-.07.18-.21.1-.28-.06-.06-.13-.12-.2-.17.12.09-.01.23-.07.31-.21-.17-.44-.28-.65-.3z"/><path d="M13.99 18.28c.03.07.1.13.18.17-.07.26-.1.5-.22.7-.21.33-.48.28-.39-.03-.06.28-.11.47-.09.62.02.16.24.31.45.06.46-.55.3-1.09.72-1.62.21-.25.33-.51-.04-.69-.05-.03-.06-.03-.1-.06-.11-.06-.1-.26.1-.37-.22.03-.25.12-.32.25.05.03-.09.11-.1.16-.19-.11-.41-.26-.63-.48.08-.06.16-.15.1-.22-.03-.04-.07-.08-.1-.12.06.07-.03.16-.11.22-.1-.11-.19-.23-.29-.38-.11-.16-.24-.32-.38-.46.07-.07.18-.21.1-.28-.06-.06-.13-.12-.2-.17.12.09-.01.23-.07.31-.21-.17-.44-.28-.65-.3l-.08.07c.41.04.9.43 1.21.88.36.53.75.8 1.08.97-.03.05-.03.11-.04.16-.06.58-.54.65-.57.46.01.07 0 .12 0 .17-.01.08.22.14.44-.02.09-.06.19-.24.23-.36.05.15.05.23 0 .36a.456.456 0 0 1-.12-.12c-.03.04-.05.08-.11.12"/><path fill="#FFF101" fill-rule="evenodd" d="M11.32 14.69c-.14-.06-.07-.13-.19.06-.19.31-.22.24-.21.67 0 .44.08.37.47.72.3-.24.66-.59.89-.83-.19-.25-.73-.52-.96-.62"/><path fill="#FFF101" fill-rule="evenodd" d="M11.98 15.69c-.13.16-.11.13-.18-.11-.25.05-.44.12-.63.17-.23.05-.27.06-.27-.06 0-.15-.01-.31-.02-.41-.01-.18.03-.17.17-.17s.43.04.72.04c.03-.25 0-.31.13-.22.13.11.33.3.4.39-.09.08-.2.23-.32.37M14.62 16.88l.17-.09-.04.2.17.08-.17.09.04.19-.17-.08-.12.15-.04-.19h-.19l.12-.15-.12-.16h.19l.04-.19z"/><path d="m14.79 16.79-.04.2.17.08-.17.09.04.19-.17-.08-.12.15-.04-.19h-.19l.12-.15-.12-.16h.19l.04-.19.12.15z"/><path fill="#FFF" fill-rule="evenodd" d="M14.85 12.04c-.08.37-.41.7-.79.82-.11.3.07.79.32 1.05 1.04.51 2.16.28 2.79.39.2.03.62-.12.67-.5.05-.32.2-.41.26-1.53.04-.6.02-1.13.1-1.37.07-.23.16-.47.38-.56.29-.13.48-.36.69-.43.26-.09.45-.14.57-.23.11-.1.12-.38-.18-.44-.69-.15-1.05.27-1.7.15-.31-.06-.58-.04-.55.38.02.43.04 1.02-.34 1.78-.26.51-.36 1.12-.21 1.53-.24-.15-.5-.18-.81-.4-.3-.22-.71-.46-1.2-.64"/><path fill="#FFF101" fill-rule="evenodd" d="M14.5 12.61c.53.2.51.41 1.19.56.41.08.88.27 1.08.39l.02-.09c-.2-.12-.67-.31-1.08-.4-.65-.14-.65-.34-1.14-.54-.02.02-.06.06-.07.08"/><path d="M15.69 13.17c.41.08.88.27 1.08.39l.02-.09c-.2-.12-.67-.31-1.08-.4-.65-.14-.65-.34-1.14-.54-.02.02-.06.06-.07.08.53.2.51.41 1.19.56"/><path fill="#FFF101" fill-rule="evenodd" d="M14.81 12.17c.06.04.13.07.19.1-.05.16-.3.32-.21.37.03.02.13.08.17.11-.07-.05.24-.31.24-.38.32.11.57.36.77.42-.03.13-.21.29-.11.32.05.01.17.05.25.07-.08-.03.06-.15.05-.23.17.06.49.2.62.28l.08-.15c-.24-.15-.5-.18-.81-.4-.3-.22-.71-.46-1.2-.64-.01.04-.03.1-.04.13M17.27 13.17c-.18-.39-.1-1.04.12-1.54.25-.6.28-1.08.26-1.46.05 0 .1-.03.15-.06.51-.23.8.17.66.29.06-.04.1-.06.14-.08.07-.03.01-.27-.23-.39-.1-.05-.3-.05-.41-.02a.43.43 0 0 1 .29-.19c0 .06-.01.13-.04.17.05.01.1.01.16.04.04-.06.06-.15.05-.25.24-.07.45-.16.69-.14.37.02.47.28.16.37.26-.09.45-.14.57-.23.11-.1.12-.38-.18-.44-.69-.15-1.05.27-1.7.15-.31-.06-.59-.04-.55.38 0 .06 0 .08.01.12 0 .13-.18.23-.36.1.13.18.22.17.36.16 0-.06.14.03.18.01.01.24-.01.51-.08.82-.09-.04-.2-.08-.23.02a.88.88 0 0 1-.05.15c.03-.09.15-.05.24-.01-.04.14-.1.29-.17.45-.08.18-.15.38-.19.58-.09-.03-.26-.06-.28.04-.02.09-.03.18-.04.27.01-.15.19-.1.29-.08-.03.27-.01.53.08.73z"/><path d="M18.37 9.93c.04-.06.06-.15.05-.25.24-.07.45-.16.69-.14.37.02.47.28.16.37.26-.09.45-.14.57-.23.11-.1.12-.38-.18-.44-.69-.15-1.05.27-1.7.15-.31-.06-.59-.04-.55.38 0 .06 0 .08.01.12 0 .13-.18.23-.36.1.13.18.22.17.36.16 0-.06.14.03.18.01.01.24-.01.51-.08.82-.09-.04-.2-.08-.23.02a.88.88 0 0 1-.05.15c.03-.09.15-.05.24-.01-.04.14-.1.29-.17.45-.08.18-.15.38-.19.58-.09-.03-.26-.06-.28.04-.02.09-.03.18-.04.27.01-.15.19-.1.29-.08-.03.27-.01.53.08.73l.1.04c-.18-.39-.1-1.04.12-1.54.25-.6.28-1.08.26-1.46.05 0 .1-.03.15-.06.51-.23.8.17.66.29.06-.04.1-.06.14-.08.07-.03.01-.27-.23-.39-.1-.05-.3-.05-.41-.02a.43.43 0 0 1 .29-.19c0 .06-.01.13-.04.17.05.01.1.01.16.04"/><path fill="#FFF101" fill-rule="evenodd" d="M16.55 14c.02.16.01.27.23.28.35.01.32.06.67-.16.36-.23.37-.18.46-.71.03-.13-.02-.13-.18-.2-.35-.16-.65-.15-.95-.24-.12.3-.26.77-.23 1.03"/><path fill="#FFF101" fill-rule="evenodd" d="M17.24 13.05c.19.04.16.04-.01.22.17.2.3.34.44.49.16.18.18.22.09.28-.12.07-.25.16-.33.21-.15.11-.16.07-.23-.06-.06-.13-.16-.41-.31-.68-.21.11-.25.16-.24 0 .02-.18.08-.45.12-.56.11.04.29.07.47.1"/><path d="M17.24 13.05c.19.04.16.04-.01.22.17.2.42.51.56.67.16.17.18.21.09.27-.12.08-.25.16-.34.22-.14.1-.15.06-.22-.07-.06-.13-.28-.58-.43-.85-.21.11-.25.16-.24 0 .02-.18.08-.45.12-.56.11.04.29.07.47.1"/><path fill="#FFF101" fill-rule="evenodd" d="m16.9 10.06-.16-.11.18-.06-.01-.2.15.11.14-.13.02.19.18.03-.13.14.09.17-.18-.02-.07.18-.1-.17-.18.06z"/><path d="m16.74 9.95.18-.06-.01-.2.15.11.14-.13.02.19.18.03-.13.14.09.17-.18-.02-.07.18-.1-.17-.18.06.07-.19z"/><path fill="#000" fill-rule="evenodd" d="M12.8 12.287c.333-.112.77.016 1.06.308.3-.054.62-.44.723-.828-.05-.575-.235-1.092-.567-1.726-.066-.127-.281-.521-.295-.547a3.638 3.638 0 0 1-.217-.46c-.097-.267-.46-.491-.76-.366a1.023 1.023 0 0 1-.21.064c-.39.089-.607.166-1.174.463l-.048.025c-.155.082-.621.34-.67.367-.222.12-.362.183-.461.204-.331.07-.497.067-.649-.058a1.342 1.342 0 0 0-.161-.113 2.2 2.2 0 0 0-.152-.083l-.145-.07a.963.963 0 0 1-.243-.155l-.241-.229a1 1 0 0 0-.234-.167c-.15-.063-.305.057-.305.256 0 .042.007.088.022.136.094.296.214.466.49.757l.02.022c.263.278.373.429.463.69.136.396.307.52.606.312.54-.374.957-.551 1.627-.578.565-.023 1.107-.24 1.364-.566 0 .068.006.136.016.217l.022.15c.026.173.038.29.038.41 0 .044-.002.089-.005.136a5.688 5.688 0 0 0 .076 1.422zm.004-.01-.001-.008-.008.003zm-.09-1.008c0 .327.028.66.089 1 .338-.109.776.021 1.06.313.289-.055.604-.436.705-.816-.05-.57-.233-1.085-.564-1.718-.067-.127-.282-.52-.296-.546a3.653 3.653 0 0 1-.217-.462c-.095-.26-.45-.48-.741-.358a1.03 1.03 0 0 1-.213.065c-.39.089-.605.165-1.17.461l-.049.026c-.154.082-.62.34-.669.366-.224.121-.364.185-.465.206-.335.07-.505.068-.66-.06a1.327 1.327 0 0 0-.16-.113 2.183 2.183 0 0 0-.152-.082c-.029-.014-.128-.063-.145-.07a.975.975 0 0 1-.246-.157l-.24-.229a.989.989 0 0 0-.23-.165c-.14-.059-.286.053-.286.242 0 .04.007.084.022.131.093.293.212.462.486.752l.02.021c.265.28.376.432.466.696.134.388.296.505.585.304.541-.375.962-.553 1.634-.58.572-.023 1.119-.247 1.366-.577l.013.005v.011c0 .07.006.14.016.225l.022.15c.026.173.039.29.039.412 0 .045-.002.09-.005.138-.01.135-.014.272-.014.409M9.32 9.589c-.153-.078-.308.105-.395.481l.012.007.386-.476zm-.009.002-.006.008a.197.197 0 0 1 .009.004zm-.365.45.36-.442c-.136-.06-.275.104-.36.443m0 0-.02.026.013.007zm.192-.546c-.16-.076-.271.004-.425.347l.011.009.416-.343zm-.006.014-.001-.013-.01.008a.329.329 0 0 1 .011.005m-.392.31.381-.315c-.14-.06-.241.012-.381.315m0 0-.025.02.011.01zm.129-.475c-.103-.08-.242.024-.314.216l.01.009.304-.212zm-.009.013v-.013l-.008.006a.158.158 0 0 1 .008.007m-.282.185.274-.192c-.088-.058-.205.029-.274.192m0 0-.02.014.01.01a.745.745 0 0 1 .01-.024" clip-rule="evenodd"/><path fill="#000" fill-rule="evenodd" d="M13.445 12.31a2.207 2.207 0 0 1-.028-.55l.002-.043a1.957 1.957 0 0 0-.11-.773c-.12-.385-.213-.91-.216-1.177l-.097.02c-.003.275.09.802.212 1.188.1.32.121.5.11.768l-.002.043c-.01.21-.008.32.018.497.027.011.074.026.101.036zm-.005-.005-.01.008-.001-.012zm-.097-.03a.927.927 0 0 1 .086.026 2.223 2.223 0 0 1-.026-.541l.002-.044a1.944 1.944 0 0 0-.11-.767c-.121-.386-.214-.914-.207-1.175l-.082.02c.002.266.095.792.216 1.177.101.322.122.503.11.773l-.002.043c-.01.208-.007.318.013.488" clip-rule="evenodd"/><path fill="#000" fill-rule="evenodd" d="M12.93 12.233c0-.074-.004-.147-.014-.207a.711.711 0 0 1 .214.026.64.64 0 0 0 .135.024c.04 0 .06-.013.06-.045v-.04c0-.04.001-.103.004-.173h-.015c0 .017-.02.024-.062.022a.951.951 0 0 1-.15-.028l-.008-.002c-.124-.03-.172-.037-.2-.027a1.682 1.682 0 0 1-.026-.31c0-.058.002-.124.005-.205a5.13 5.13 0 0 0 .005-.191.756.756 0 0 0-.02-.197h.116l.044.003c.07.003.094.004.119-.001.028-.006.043-.02.043-.043a3.022 3.022 0 0 1-.04-.161l-.001-.008a29.466 29.466 0 0 0-.026-.108l-.014.003a.04.04 0 0 1 0 .01c0 .012-.005.018-.02.022a.255.255 0 0 1-.073.003h-.019c-.046-.001-.075.002-.095.013a5.524 5.524 0 0 1-.075-.683v-.004l-.167-.01a1.29 1.29 0 0 0 .009.246l.022.151c.026.172.038.289.038.41 0 .043-.002.088-.005.135a5.688 5.688 0 0 0 .076 1.422c.04-.003.094-.016.135-.025l.006-.007zm-.008.007-.006.001v.006zm-.127.032c.03-.01.08-.022.121-.03v-.01a3.07 3.07 0 0 0-.01-.212c.042-.01.091-.01.155.002l.072.015c.092.02.106.023.133.023.031.001.045-.007.045-.03v-.039c0-.035 0-.087.002-.145-.013.008-.034.01-.062.009a.965.965 0 0 1-.152-.028l-.008-.002c-.13-.03-.178-.038-.198-.025l-.011-.005a1.713 1.713 0 0 1-.028-.322c0-.058.002-.124.005-.206.003-.086.005-.15.005-.202 0-.082-.005-.133-.014-.19a.407.407 0 0 1 .125-.01l.044.002a.463.463 0 0 0 .115 0c.022-.005.032-.013.032-.028 0-.004 0-.009-.002-.013a3.134 3.134 0 0 1-.037-.145l-.002-.008-.018-.075a.046.046 0 0 1-.023.013.264.264 0 0 1-.079.004h-.018c-.05-.001-.079.003-.096.017l-.012-.005a4.921 4.921 0 0 1-.07-.652l.001-.042-.153-.01v.012c0 .07.006.14.016.225l.022.15a2.052 2.052 0 0 1 .034.549 6.153 6.153 0 0 0 .066 1.413m.312-1.674a.033.033 0 0 0 .007-.023.06.06 0 0 0-.001-.013l-.014.004zm.206 1.248a.032.032 0 0 0 .016-.028h-.015zM11.72 9.011c-.043.019-.063.064-.063.132 0 .06.016.14.048.237.052.163.146.366.258.575l.014-.006-.248-.933zm-.005.009.003.009a.078.078 0 0 1 .007-.004zm.231.871-.228-.862c-.031.018-.047.057-.047.114a.8.8 0 0 0 .047.232c.048.147.13.329.228.516m0 0 .016.062.014-.006a4.07 4.07 0 0 1-.03-.056m.021.163a2.068 2.068 0 0 1-.205.095l.005.016.206-.094zm.006.016-.005-.016-.206.095.005.016c.068-.027.137-.058.206-.095m-1.236.26c-.053.014-.104.03-.154.047l.004.017.153-.048zm.003.016-.003-.017-.154.048.004.016c.05-.017.1-.033.153-.047" clip-rule="evenodd"/><path fill="#000" fill-rule="evenodd" d="M12.513 9.504c-.225.341-.773.604-1.33.663-.537.056-.95.223-1.339.492-.008-.031-.029-.05-.08-.089l-.027-.02c-.198-.153-.288-.346-.275-.523.011-.146.095-.245.174-.213l.005-.014a.377.377 0 0 1-.078-.044l-.055-.043c-.085-.065-.238.17-.22.414a.372.372 0 0 0-.227.073c-.001-.01-.013-.022-.025-.034l-.148-.148a1.33 1.33 0 0 1-.281-.366c-.078-.161-.087-.306-.035-.38.044-.062.124-.058.213.017l.036.035.01-.011a.476.476 0 0 0-.036-.035l-.205-.195a1 1 0 0 0-.234-.167c-.181-.077-.371.115-.283.392.094.296.214.466.49.757l.02.022c.263.278.373.429.463.69.062.183.13.303.215.366.105.076.233.062.391-.054l.052-.038h.001l.04-.03c.115-.07.26.063.244.27l.014.004c.056-.14.057-.222.015-.312a.747.747 0 0 0-.026-.05c-.005-.008-.026-.044-.03-.054-.02.003-.028 0-.035-.016a.296.296 0 0 1-.018-.066l-.002-.008a.212.212 0 0 0-.023-.073c.221-.144.445-.253.702-.33.005.137.044.214.13.2.051-.013.1-.023.151-.032l-.002-.015c-.072.013-.106-.06-.12-.203.137-.027.287-.05.447-.065a2.45 2.45 0 0 0 .573-.12c.038.168.096.266.18.237.087-.03.166-.06.238-.095l.005-.003-.007-.014-.004.003c-.076.035-.127-.015-.171-.131a1.257 1.257 0 0 1-.016-.047l-.014-.042c.248-.106.449-.258.568-.432l-.018-.12zm-.393.8c.019.003.04 0 .063-.011l.005-.003-.007-.014a1.686 1.686 0 0 1-.062.028m.395-.777.016.097c-.116.165-.315.316-.565.43-.004.008.007.042.01.052.005.018.01.033.016.047.034.09.075.145.128.152a2.192 2.192 0 0 1-.18.068c-.071.025-.125-.068-.17-.231a2.932 2.932 0 0 1-.58.114c-.16.014-.31.038-.454.073.007.121.03.197.078.22a2.775 2.775 0 0 0-.102.021c-.072.013-.107-.056-.12-.193a2.46 2.46 0 0 0-.723.33v.014c.008.006.014.025.024.071l.002.009a.304.304 0 0 0 .02.069c.01.022.025.03.043.02-.004.006.015.04.02.05h.001c.011.02.02.035.026.05.036.077.038.147 0 .259-.006-.193-.15-.312-.267-.24-.016.01-.027.019-.041.03l-.053.037c-.154.113-.275.126-.374.054-.083-.06-.149-.178-.21-.358-.091-.264-.202-.417-.467-.696l-.02-.021c-.274-.29-.393-.458-.486-.752-.084-.264.094-.444.263-.373a.989.989 0 0 1 .23.164l.144.137c-.067-.031-.126-.02-.163.032-.057.08-.047.23.033.396.06.125.141.226.284.37l.148.148.034.035a.459.459 0 0 1 .235-.076.254.254 0 0 0 .025.121l.01.026a.363.363 0 0 0-.151.053c.083.119.153.16.3.188l.007-.013c-.09-.105-.175-.277-.183-.383-.018-.235.125-.457.196-.402l.056.043.038.025c-.072.009-.136.104-.145.232-.014.183.079.38.28.537l.027.02c.05.037.07.055.087.086a2.834 2.834 0 0 1 1.342-.487c.554-.058 1.097-.316 1.331-.655m-2.922.267a.385.385 0 0 0 .043.02l.005-.014a.094.094 0 0 0-.048-.006m2.922-.267-.003-.018.013.003a.539.539 0 0 1-.01.015m-3.184.756.004.01.006-.01zm.674.966a.895.895 0 0 1-.015.04l.014.003a.43.43 0 0 0 0-.043m.809-.7c.015.007.033.009.053.005l-.002-.015a4.108 4.108 0 0 0-.051.01M8.724 9.23a178.71 178.71 0 0 0 .097.093l.01-.012-.036-.034a.318.318 0 0 0-.071-.047m.464 1.107a.569.569 0 0 1 .15-.04.992.992 0 0 0 .123.206.401.401 0 0 1-.273-.166M13.712 13.203c0-.1.011-.2.034-.298-.195-.246-.673-.344-1.044-.244-.354.262-.646.596-.923 1.022-.156.239-.634 1.104-.742 1.257a1.74 1.74 0 0 1-.05.069.665.665 0 0 0-.122.398.613.613 0 0 0 .233.505c.032.03.062.06.098.1l.119.137c.054.06.107.115.171.176.165.156.389.333.705.553.16.111.662.443.664.444.223.15.349.248.418.33.195.233.282.38.282.547a.54.54 0 0 1-.005.072 1.385 1.385 0 0 0-.014.192c0 .076.006.16.015.272.01.113.015.187.015.246a.661.661 0 0 1-.013.138c-.004.022-.062.295-.073.361-.014.078-.02.14-.02.196 0 .026 0 .05.004.073.027.203.28.28.464.061.201-.238.277-.424.386-.845.1-.387.168-.56.34-.774.126-.157.194-.289.194-.402 0-.12-.075-.219-.24-.305-.578-.303-.933-.595-1.29-1.19-.302-.503-.753-.887-1.149-.958.069-.042.132-.09.218-.161l.085-.072c.034-.03.061-.052.088-.074.11-.087.21-.154.327-.214a5.21 5.21 0 0 0 1.135-.78v-.012c-.197-.188-.31-.501-.31-.82m.3.82-.006.006.006.006zm-1.132.778c.396-.202.77-.453 1.126-.772-.196-.192-.308-.504-.308-.82 0-.102.011-.203.035-.301-.189-.234-.662-.33-1.025-.233-.35.26-.641.592-.917 1.017-.155.238-.634 1.104-.742 1.257a1.874 1.874 0 0 1-.05.07.648.648 0 0 0-.12.388.598.598 0 0 0 .228.493c.033.03.064.061.1.101l.118.137c.054.06.107.115.171.175.165.156.387.333.703.553.16.11.662.442.664.444.224.15.35.248.42.332.198.236.286.384.286.556a.55.55 0 0 1-.005.075 1.368 1.368 0 0 0-.013.19c0 .075.005.16.015.27.01.114.015.189.015.248a.684.684 0 0 1-.014.141c-.004.022-.062.295-.073.361-.013.077-.02.139-.02.193a.55.55 0 0 0 .004.071c.026.19.263.262.44.053.199-.236.274-.42.382-.84.1-.388.17-.563.343-.779.124-.154.19-.282.19-.391 0-.115-.073-.21-.232-.293-.58-.303-.937-.597-1.296-1.195-.304-.508-.762-.894-1.158-.954l-.003-.014c.075-.044.141-.094.233-.171a20.64 20.64 0 0 0 .174-.146c.11-.088.211-.156.33-.216m.657 3.735c.012.178.24.228.594.119v-.015l-.586-.112zm.006.007.01.002-.002-.01zm.554.106-.545-.105c.019.153.223.198.545.105m0 0 .03.006v-.015zm-.547.1c.017.182.139.244.499.213l.002-.015-.491-.206zm.014-.002-.01.008.012.005a.243.243 0 0 1-.002-.013m.452.202-.45-.19c.02.158.13.214.45.19m0 0 .03.012.001-.015zm-.456.12c-.015.134.14.207.335.178l.002-.015-.326-.17zm.015.001-.01.006.009.005zm.294.165-.295-.154v.005c0 .106.129.167.295.149m0 0 .022.01.002-.014a.71.71 0 0 1-.024.003" clip-rule="evenodd"/><path fill="#000" fill-rule="evenodd" d="M13.719 13.424a2.01 2.01 0 0 1-.498.332c-.211.116-.354.23-.562.475-.256.303-.644.65-.862.785l.064.078c.229-.135.617-.483.875-.787a1.794 1.794 0 0 1 .598-.493c.2-.108.28-.159.418-.275l-.021-.11zm-.002.007.011.005a.81.81 0 0 0-.01.008.835.835 0 0 1-.002-.013m.002.013a2.024 2.024 0 0 1-.492.326c-.209.115-.35.228-.557.471-.257.304-.646.652-.864.776l.057.065c.218-.135.605-.482.862-.785a1.81 1.81 0 0 1 .561-.475l.041-.022c.199-.107.278-.157.413-.265a1.018 1.018 0 0 1-.021-.09" clip-rule="evenodd"/><path fill="#000" fill-rule="evenodd" d="M13.924 13.924a1.209 1.209 0 0 0-.176.124.759.759 0 0 1-.071-.164l-.037-.116a.278.278 0 0 0-.038-.084c-.017-.02-.036-.024-.058-.008-.023.015-.099.06-.173.1l.006.014c.015-.008.032.006.05.046.016.033.03.073.053.152l.022.074c.022.07.039.11.057.127a1.52 1.52 0 0 1-.244.18c-.064.038-.274.155-.305.173a.834.834 0 0 0-.178.13c-.014-.024-.035-.06-.064-.117l-.035-.072a.405.405 0 0 0-.034-.058c-.025-.033-.05-.04-.075-.013-.018.021-.05.055-.105.11v.001l-.077.078.01.01c.018-.017.033-.008.055.03a.573.573 0 0 1 .013.024l.014.026c.024.046.041.072.062.085-.171.15-.416.343-.53.412l.075.156c.086-.041.153-.092.246-.17l.085-.071c.034-.03.061-.052.088-.074.11-.087.21-.154.327-.214.399-.204.777-.457 1.135-.78-.023-.035-.062-.078-.089-.11zm-.002.011.004.005.005-.003zm.09.1a1.919 1.919 0 0 1-.086-.095c-.063.037-.122.08-.178.12a.47.47 0 0 1-.085-.17l-.037-.117a.262.262 0 0 0-.035-.079c-.012-.014-.024-.017-.039-.006a2.796 2.796 0 0 1-.15.088c.013.008.026.027.039.053.015.034.029.074.053.154l.022.074c.024.075.042.115.058.124l.002.013a1.53 1.53 0 0 1-.254.188c-.064.039-.274.155-.305.173a1.38 1.38 0 0 0-.184.129.485.485 0 0 1-.078-.122l-.035-.072a.388.388 0 0 0-.033-.056c-.02-.026-.035-.03-.052-.011-.019.02-.051.055-.106.11 0 .002 0 .002-.002.003a.062.062 0 0 1 .002-.002l-.053.054c.014.003.029.02.044.045a.582.582 0 0 1 .026.05c.027.05.044.075.066.085l.001.012c-.171.152-.423.35-.538.41l.07.144a1.71 1.71 0 0 0 .232-.171l.085-.072a4.35 4.35 0 0 1 .09-.074c.11-.088.21-.156.328-.216a5.557 5.557 0 0 0 1.132-.767m-1.536.553c-.01-.003-.022.001-.034.013l.01.01zm.926-.811a.03.03 0 0 0-.031 0l.006.013zm-1.542 2.867c.071.056.178-.01.313-.171.107-.13.229-.316.344-.522l-.011-.01-.647.691zm.01 0 .006-.007a.08.08 0 0 1-.007-.005zm.603-.646-.597.639c.062.039.161-.024.286-.174.097-.117.206-.282.311-.465m0 0 .043-.046-.012-.009a5.61 5.61 0 0 1-.03.055m.124-.101c.06.046.117.095.17.146l.01-.012-.17-.146zm.009-.012-.009.012.171.146.01-.012c-.054-.05-.112-.1-.172-.146m.833.995c.042.046.082.088.122.128l.011-.012-.121-.128zm.012-.012-.012.012.122.128.011-.012c-.04-.04-.08-.082-.121-.128" clip-rule="evenodd"/><path fill="#000" fill-rule="evenodd" d="m11.875 15.673-.004-.013c.006 0 .011 0 .017.002zm.85-.042c.013.03.01.063-.004.1a.442.442 0 0 1-.124.166c-.22-.17-.443-.275-.637-.298l-.072.063c.397.043.881.408 1.206.882.313.458.654.748 1.073.977-.018.031-.023.059-.028.123v.002a.956.956 0 0 1-.003.032c-.029.261-.145.444-.303.523-.11.055-.22.046-.264-.016a.42.42 0 0 0-.005-.05c.014.09.137.116.263.052.153-.076.266-.254.294-.511l.003-.032v-.001c.006-.067.011-.096.033-.119a2.87 2.87 0 0 1-1.075-.971c-.327-.478-.818-.844-1.212-.878l-.004-.014.09-.075c.203.02.429.127.64.3l.045-.054a.429.429 0 0 0 .067-.106c.021-.055.013-.099-.031-.133zm.856 1.067c.005.054-.046.113-.142.18a3.337 3.337 0 0 1-.287-.377 3.18 3.18 0 0 0-.385-.47c.113-.122.163-.217.106-.27-.05-.048-.1-.091-.147-.13a.123.123 0 0 0-.041-.05c.064.048.13.104.198.169.066.062.014.163-.105.281.143.136.275.295.386.462.09.138.186.263.276.374.11-.085.154-.152.108-.21zm-.022-.052c.013.017.02.034.022.052l.069.081c.047.06.007.126-.099.207.195.21.4.36.634.492l.01-.007c.002-.01.014-.025.053-.063l.007-.006a.246.246 0 0 0 .043-.05c.01-.019.01-.035-.007-.047.005.003.026-.035.035-.051l.002-.005c.055-.1.108-.143.235-.166-.156.102-.182.292-.065.363l.045.022.059.03c.17.083.24.187.23.313-.008.106-.072.224-.189.37-.174.216-.243.391-.343.78-.108.418-.183.603-.383.84-.176.208-.413.136-.439-.054a.872.872 0 0 1 .016-.264l.046-.227c.007.077.046.126.108.133.093.012.213-.072.31-.228.08-.13.12-.252.177-.508a6.27 6.27 0 0 1 .045-.192.485.485 0 0 1-.18-.176c.016-.003.032-.018.047-.033a.44.44 0 0 0 .035-.043l.022-.03a.383.383 0 0 0 .12.112c.056-.135.054-.22.004-.367h-.014c-.042.134-.14.297-.224.358-.185.134-.44.114-.43.023l.004-.032a.583.583 0 0 0 .005-.088.108.108 0 0 1-.02-.047l.015-.002-.014.002a.46.46 0 0 1 0 .133 1.157 1.157 0 0 0-.004.032c-.012.11.258.131.45-.007.037.073.1.132.174.17-.017.043-.02.056-.049.183-.058.255-.097.376-.176.504-.094.151-.209.232-.296.221-.073-.01-.11-.084-.092-.203l.01-.049-.014-.003a.516.516 0 0 0-.01.048c-.018.087-.054.262-.063.313a.884.884 0 0 0-.016.27c.027.202.28.279.464.06.201-.238.277-.424.386-.845.1-.387.168-.56.34-.774.12-.148.184-.269.193-.379.01-.133-.064-.242-.24-.328l-.057-.029a3.72 3.72 0 0 0-.045-.022c-.114-.07-.078-.267.1-.357l-.003-.014c-.161.022-.224.066-.286.18l-.036.066c.012.016.013.024.005.037a.233.233 0 0 1-.04.046l-.007.006c-.035.033-.05.049-.054.063a2.78 2.78 0 0 1-.623-.473c.11-.074.155-.148.1-.218a2.962 2.962 0 0 1-.102-.122m-.016 2.521a.357.357 0 0 0-.003.09l.017-.086a.515.515 0 0 1 .01-.049l-.014-.003c0 .005-.005.023-.01.048m.56-.988a.445.445 0 0 1-.005-.009h.012a.44.44 0 0 0-.006.009m.46-1.096a.868.868 0 0 1 .04-.006l-.003-.014a.375.375 0 0 0-.037.02m-1.004-.436-.01.01zm-.874-1.066-.004-.003-.008.012.008-.012zm1.535 2.7a.609.609 0 0 1-.107-.115.999.999 0 0 0 .108-.216.445.445 0 0 1-.001.331m.07-.976z" clip-rule="evenodd"/><path fill="#000" fill-rule="evenodd" d="m14.624 16.874-.115-.146-.013.003-.042.19-.18-.002-.006.013.116.153-.113.146.006.012.187.001.037.185.013.003.117-.153.162.083.01-.008-.042-.19.164-.081v-.014l-.17-.086.044-.183-.01-.009zm.001.016.157-.078-.037.176.16.088-.155.082.036.184-.158-.075-.116.144-.041-.176-.18-.006.105-.144-.108-.15.173-.005.046-.181.11.139zm-.118-.141-.01-.012.013-.003zm-.219.185h-.014l.005-.012zm.003.294-.008.012-.006-.012zm.22.183.004.014-.013-.003zm.275-.069.013.007-.01.008zm.12-.266.012-.007v.014zm-.124-.264.003-.015.01.008zM14.843 12.044c-.074.359-.399.692-.784.81a.643.643 0 0 0-.033.213c0 .284.143.631.354.858.145.07.293.127.447.174.475.144.863.175 1.634.177.395.001.549.007.712.034.27.045.636-.172.683-.507.007-.054.018-.103.033-.159l.05-.162c.02-.073.038-.136.055-.21.054-.24.093-.548.12-.992.01-.17.012-.238.025-.602.016-.455.03-.64.072-.768.108-.336.193-.485.372-.56.104-.045.198-.101.313-.185l.141-.103c.053-.038.094-.066.133-.088a.63.63 0 0 1 .11-.052c.038-.013.261-.087.316-.107a.831.831 0 0 0 .249-.127.221.221 0 0 0 .082-.173c0-.118-.089-.242-.264-.28-.295-.063-.49-.039-.883.07l-.027.008c-.347.096-.53.12-.788.072-.374-.07-.562.01-.562.339a5.728 5.728 0 0 1 .012.388c0 .51-.088.92-.347 1.436-.18.36-.28.756-.28 1.097 0 .157.02.302.065.426a1.898 1.898 0 0 0-.279-.131c-.267-.108-.358-.152-.51-.26a5.142 5.142 0 0 0-1.211-.642zm.005.008.008.003.001-.008zm1.208.64a5.12 5.12 0 0 0-1.2-.637c-.08.362-.406.695-.789.809a.619.619 0 0 0-.03.198c0 .279.142.626.351.85.142.069.29.126.443.173.473.143.86.174 1.63.176.396.001.55.007.715.034.261.044.62-.168.665-.495.008-.054.019-.103.034-.16l.05-.163-.001.001c.022-.072.039-.136.055-.21.054-.238.094-.546.12-.989.01-.17.012-.238.025-.602.016-.456.031-.641.073-.772.11-.34.197-.492.38-.57.103-.044.196-.1.311-.182.029-.02.124-.091.141-.104a1.55 1.55 0 0 1 .134-.089.65.65 0 0 1 .113-.053l.315-.106a.818.818 0 0 0 .245-.125.206.206 0 0 0 .077-.161c0-.111-.085-.229-.252-.265-.293-.063-.486-.039-.878.07l-.026.008c-.35.096-.535.12-.795.072-.366-.07-.545.007-.545.324a5.68 5.68 0 0 1 .012.388c0 .512-.088.925-.348 1.443a2.52 2.52 0 0 0-.279 1.09c0 .164.023.314.072.441l-.01.01a1.8 1.8 0 0 0-.295-.142c-.268-.109-.36-.152-.513-.261m2.752-2.464c.14-.1.068-.333-.2-.6l-.011.008.2.589zm.003-.009-.004-.01a.086.086 0 0 1-.008.007zm-.19-.557.186.548a.151.151 0 0 0 .056-.124c0-.108-.081-.257-.242-.424m0 0-.01-.03-.012.007zm.356.448c.142-.107.132-.249-.074-.56l-.013.005.075.55zm-.009-.012.012.005-.002-.013a.36.36 0 0 1-.01.008m-.06-.512.07.504a.188.188 0 0 0 .08-.154c0-.083-.048-.192-.15-.35m0 0-.004-.033-.013.006zm.332.355c.136-.053.116-.232-.023-.394l-.015.005.027.382zm-.007-.014.012.006v-.011a.182.182 0 0 1-.012.005m-.013-.35.024.345c.048-.023.071-.067.071-.122a.384.384 0 0 0-.095-.223m0 0-.002-.026-.015.006a.655.655 0 0 1 .017.02" clip-rule="evenodd"/><path fill="#000" fill-rule="evenodd" d="M14.5 12.619a2.053 2.053 0 0 1 .493.267c.226.151.382.222.703.292.378.083.858.261 1.079.392l.032-.097c-.226-.14-.707-.32-1.086-.402-.32-.07-.474-.14-.698-.291a2.065 2.065 0 0 0-.445-.249l-.08.074zm.008-.002-.003-.013.012.005a.56.56 0 0 1-.01.008m.073-.074a.888.888 0 0 1-.064.066 2.062 2.062 0 0 1 .484.264c.224.15.379.22.698.29.38.083.86.262 1.072.399l.025-.085c-.22-.13-.7-.309-1.078-.391a1.736 1.736 0 0 1-.703-.293 2.048 2.048 0 0 0-.387-.224c-.018-.008-.036-.016-.047-.026" clip-rule="evenodd"/><path fill="#000" fill-rule="evenodd" d="M14.81 12.182c.064.04.131.075.19.098-.006-.002-.008.004-.011.011v.002a.57.57 0 0 1-.101.15c-.01.01-.047.054-.056.065a.546.546 0 0 0-.043.057.1.1 0 0 0-.019.05c0 .016.008.028.025.037.025.013.097.059.17.107l.008-.013c-.006-.004-.009-.01-.009-.017 0-.011.007-.028.02-.05a1 1 0 0 1 .096-.12l.006-.006c.09-.102.12-.141.125-.171.113.04.22.098.358.187l.214.14a.796.796 0 0 0 .19.091c-.01.015-.022.042-.04.073a1.163 1.163 0 0 1-.031.055c-.057.093-.056.092-.066.118a.096.096 0 0 0-.008.034c0 .02.011.034.035.04.026.006.07.019.144.04l.006.002.05.015.046.014.004-.015c-.012-.004-.018-.01-.018-.02 0-.005 0-.01.003-.015a.324.324 0 0 1 .037-.074l.014-.024a.187.187 0 0 0 .028-.08c.209.08.49.207.605.277l.091-.147a1.286 1.286 0 0 0-.299-.153c-.267-.108-.358-.152-.51-.26a5.138 5.138 0 0 0-1.211-.642c-.017.038-.033.094-.046.135zm.01-.004.002-.006c-.002 0-.003-.002-.005-.003zm.037-.131a2.059 2.059 0 0 1-.035.125c.063.039.127.072.188.103a.585.585 0 0 1-.11.178l-.057.065a.51.51 0 0 0-.042.055c-.01.017-.016.03-.016.041 0 .01.005.018.017.024.022.012.082.05.148.093 0-.016.008-.036.022-.06a.986.986 0 0 1 .097-.121l.007-.008c.092-.106.121-.144.121-.17l.01-.008c.118.04.227.1.37.192l.214.14c.075.045.133.074.191.099a.377.377 0 0 1-.035.086 1.228 1.228 0 0 1-.033.055c-.056.092-.055.09-.065.116a.081.081 0 0 0-.006.027c0 .014.007.022.023.026a3.011 3.011 0 0 1 .202.057l.014.005a.04.04 0 0 1-.001-.012c0-.006 0-.012.003-.019a.333.333 0 0 1 .039-.077.969.969 0 0 0 .014-.024.167.167 0 0 0 .026-.074v-.007l.009-.008c.21.08.5.21.607.284l.084-.135a1.8 1.8 0 0 0-.294-.14c-.268-.11-.36-.153-.513-.262a5.488 5.488 0 0 0-1.199-.646m1.225 1.12c.004.011.012.02.027.024l.004-.015zm-1.132-.436c0 .012.005.021.015.028l.008-.013zm3.136-.032v-.013c0-.086-.106-.146-.298-.186a3.302 3.302 0 0 0-.603-.052l-.002.015.894.242zm-.006-.009-.008-.002v.009zm-.834-.226.826.224v-.001c0-.076-.102-.134-.287-.172a3.128 3.128 0 0 0-.54-.05m0 0-.059-.016-.002.015zm-.143-.062a2.19 2.19 0 0 1 .04-.228l-.016-.003-.04.229zm-.017-.002.017.002.04-.228-.016-.003c-.017.074-.03.15-.04.23m.406-1.254c.018-.057.035-.11.048-.161l-.016-.004-.048.16zm-.016-.005.016.005.048-.16-.016-.005c-.014.051-.03.104-.048.16" clip-rule="evenodd"/><path fill="#000" fill-rule="evenodd" d="M17.27 11.107a.094.094 0 0 0-.032.045l.014.006zm-.173-1.086c.048.06.09.095.135.113.042.017.074.02.162.018.014 0 .02 0 .022.006 0-.021.015-.03.038-.03.015.001.033.006.066.017h.004c.048.017.067.021.076.016l.01.007c.01.277-.013.54-.088.822-.12-.056-.194-.058-.22.014a3.2 3.2 0 0 1-.033.103c.043-.032.117-.015.22.039a3.46 3.46 0 0 1-.167.45 3.306 3.306 0 0 0-.195.584c-.157-.041-.261-.038-.276.039a2.53 2.53 0 0 0-.033.198c.028-.04.084-.053.162-.045a.813.813 0 0 1 .078.014c.009.001.035.007.043.016-.03.285-.006.54.073.729l.087.033a.653.653 0 0 0 .008.017l.009-.01-.017-.007c-.162-.382-.103-1.005.126-1.537a3.2 3.2 0 0 0 .269-1.465c.034.001.06-.008.112-.034l.003-.001a.912.912 0 0 1 .03-.014c.23-.105.439-.09.583.013.1.072.146.177.119.248a.378.378 0 0 0-.039.03l.01.011a.103.103 0 0 0 .029-.041.762.762 0 0 1 .093-.047l.01-.004c.08-.037-.032-.279-.234-.38-.092-.046-.276-.053-.407-.025l-.008-.012c.097-.12.166-.163.305-.18a.41.41 0 0 1-.032.165l-.01-.001.006.01a.318.318 0 0 0 .004-.009h.005c.067.009.098.016.134.041a.519.519 0 0 0 .055-.251l.13-.04c.171-.053.2-.062.274-.079a.997.997 0 0 1 .285-.029c.177.01.306.077.343.168.025.06.004.12-.055.164a25.966 25.966 0 0 0-.124.042l.004.015.046-.016a.318.318 0 0 0 .074-.04l.19-.065a.818.818 0 0 0 .245-.125c.144-.118.084-.37-.175-.426-.293-.063-.486-.039-.878.07l-.027.008c-.348.096-.534.12-.794.072-.179-.034-.309-.033-.4.012-.109.054-.159.171-.143.367l.005.064v.003l.004.053c0 .142-.17.213-.331.122m0 0a.944.944 0 0 1-.026-.034l-.01.011a.38.38 0 0 0 .036.023m1.16-.287a.64.64 0 0 1-.043.156.894.894 0 0 0-.232.009.401.401 0 0 1 .274-.165m-.975 3.44c-.17-.375-.113-1.005.118-1.54a3.1 3.1 0 0 0 .263-1.464c.03.008.057-.001.112-.028l.002-.001a.883.883 0 0 1 .03-.014c.225-.103.429-.089.568.012.116.083.155.208.089.264l.01.012a.413.413 0 0 1 .128-.074l.01-.004c.096-.045-.022-.3-.232-.407a.42.42 0 0 0 .053-.243.642.642 0 0 0 .125-.03c.171-.054.2-.063.273-.08a.984.984 0 0 1 .282-.028c.171.01.296.074.33.158.03.07-.014.142-.12.185a5.377 5.377 0 0 0-.047.015l.004.015a.451.451 0 0 0 .047-.016l.269-.09a.831.831 0 0 0 .249-.128c.154-.126.09-.395-.181-.453-.296-.063-.49-.039-.884.07l-.027.008c-.347.096-.531.12-.788.072-.182-.035-.314-.034-.41.013-.114.057-.167.18-.15.383l.004.063v.003l.005.053c0 .138-.182.204-.344.086l-.01.01c.06.083.111.13.167.152.044.018.077.02.167.019h.03c.007-.02.013-.024.029-.024a.25.25 0 0 1 .062.016l.004.002c.044.014.064.02.078.017a3.05 3.05 0 0 1-.079.803c-.117-.064-.2-.067-.23.018a3.245 3.245 0 0 1-.05.153l.014.006c.025-.072.103-.066.228-.008a4.936 4.936 0 0 1-.17.44 2.769 2.769 0 0 0-.188.581c-.158-.05-.267-.046-.285.045-.02.094-.033.182-.04.264l-.001.005.014.002v-.005l.008-.065a.13.13 0 0 0-.022.063l.015.002c.008-.08.066-.105.167-.094a.797.797 0 0 1 .077.013l.037.008c-.037.278-.011.537.073.732l.108.044z" clip-rule="evenodd"/></g></svg>