<svg xmlns="http://www.w3.org/2000/svg" fill="none" viewBox="0 0 28 28" focusable="false"><rect width="28" height="20" y="4" fill="#D01129" rx="3"/><mask id="Isle_of_Man_svg__a" width="28" height="20" x="0" y="4" maskUnits="userSpaceOnUse" style="mask-type:luminance"><rect width="28" height="20" y="4" fill="#fff" rx="3"/></mask><g fill-rule="evenodd" clip-rule="evenodd" mask="url(#Isle_of_Man_svg__a)"><path fill="#FFF101" d="M13.888 14.04c.661 0 1.197-.562 1.197-1.255 0-.694-.536-1.257-1.197-1.257-.66 0-1.197.563-1.197 1.256s.536 1.257 1.197 1.257"/><path fill="#fff" d="M12.797 12.28c.34-.114.779.018 1.068.31.307-.06.615-.464.71-.825-.104-1.198-.85-2.105-1.077-2.728-.072-.197-.405-.506-.751-.362-.284.118-.428.026-1.384.527-.517.27-.952.548-1.18.597-.23.048-.472.091-.655-.06-.253-.207-.535-.264-.702-.42-.204-.192-.335-.337-.473-.396s-.372.072-.273.382c.222.701.747.815.973 1.47.106.31.257.543.595.308s.816-.547 1.63-.58c.547-.022 1.112-.233 1.372-.58-.003.3.098.546.071.936-.026.39-.022.875.076 1.42"/><path fill="#FFF101" d="M13.438 12.312c-.1-.59.082-.675-.136-1.366-.13-.415-.214-.937-.216-1.179l-.088.027c.003.242.086.763.217 1.179.21.668.047.77.127 1.31a1 1 0 0 1 .096.03"/><path fill="#FFF101" d="M12.924 12.248c0-.075-.004-.154-.015-.221.153-.039.416.11.41 0a4 4 0 0 1 .002-.21c-.003.095-.369-.064-.432-.023-.068-.343.016-.696-.037-.912.122-.035.346.042.319-.059-.016-.051-.046-.18-.065-.26.019.085-.16.015-.22.063a6 6 0 0 1-.076-.7l-.16-.002c-.003.3.098.545.072.935s-.023.875.075 1.42a2 2 0 0 1 .127-.031M12.52 9.508c-.24.362-.81.611-1.336.667-.617.064-1.031.28-1.336.49-.026-.049-.074-.075-.115-.108-.446-.347-.263-.817-.094-.75-.064-.026-.1-.06-.136-.087-.059-.046-.229.13-.207.409.009.119.106.294.184.387-.144-.027-.213-.066-.297-.173a.36.36 0 0 1 .159-.053c-.017-.043-.04-.09-.046-.161a.4.4 0 0 0-.23.078c-.178-.186-.36-.333-.466-.552-.169-.35.003-.57.226-.337-.204-.191-.335-.336-.473-.395s-.372.072-.273.382c.222.701.747.815.973 1.47.106.31.263.551.595.308l.094-.068c.105-.064.272.043.254.277.086-.215.031-.28-.041-.409-.054.03-.05-.145-.083-.169.19-.123.42-.248.712-.336.01.105.038.216.13.2q.074-.017.152-.031c-.092.016-.118-.106-.129-.21q.207-.051.454-.073c.19-.016.387-.057.572-.12.028.1.085.27.18.237a2 2 0 0 0 .242-.098c-.132.066-.184-.122-.216-.222.241-.11.446-.26.569-.438z"/><path fill="#FFF101" d="M13.573 9.688c.116-.095.216-.14.116-.34-.164-.328-.062-.33-.421-.538-.366-.212-.32-.229-.804-.05-.12.045-.093.09-.072.27.045.392.13.706.208 1.028.305-.042.773-.207.973-.37"/><path fill="#FFF101" d="M12.438 9.599c-.064-.192-.047-.166.184-.107.076-.253.18-.467.24-.671.065-.23.085-.27.181-.215.124.072.26.148.347.193.154.08.132.107.058.233s-.314.382-.462.648c.195.145.258.158.12.22-.156.07-.415.156-.524.176-.02-.126-.084-.295-.145-.477M10.14 11.402l-.014.198-.139-.132-.155.11.01-.197-.178-.056.152-.115-.067-.183.179.055.094-.17.072.181.185-.03-.09.173.135.134z"/><path fill="#fff" d="M14.017 14.029c-.263-.252-.374-.717-.278-1.126-.202-.25-.69-.328-1.035-.234-.936.694-1.311 1.827-1.712 2.345-.126.163-.215.62.077.863.24.2.236.376 1.126.995.482.334.929.591 1.083.775.155.184.311.383.279.625-.045.333.049.619.003.849-.056.28-.11.472-.089.627.02.155.245.302.452.057.466-.552.298-1.087.726-1.619.202-.252.318-.506-.044-.695-.363-.19-.859-.469-1.293-1.193-.292-.486-.749-.894-1.164-.957.248-.148.4-.362.735-.533.335-.17.733-.417 1.134-.779"/><path fill="#FFF101" d="M13.724 13.43c-.437.386-.598.263-1.06.806-.277.327-.665.664-.864.787l.066.066c.2-.123.587-.46.865-.787.446-.525.611-.427 1.016-.77a1 1 0 0 1-.023-.102"/><path fill="#FFF101" d="M13.928 13.93c-.063.037-.125.08-.175.124-.109-.12-.117-.434-.205-.372-.028.02-.123.073-.174.101.08-.044.131.369.197.405-.25.233-.583.334-.733.49-.09-.094-.14-.336-.209-.26-.034.04-.125.13-.181.188.06-.06.091.138.16.169-.137.121-.405.34-.539.42l.079.146c.248-.148.4-.362.735-.533.335-.17.733-.417 1.134-.779a2 2 0 0 1-.09-.099M11.87 15.667c.418.037.909.43 1.218.882a2.9 2.9 0 0 0 1.073.968c-.028.05-.027.105-.032.16-.064.579-.543.647-.572.46.01.071 0 .122-.004.167-.009.077.221.143.441-.016.094-.067.19-.243.227-.361.05.144.052.226.006.357a.4.4 0 0 1-.123-.118c-.027.037-.054.082-.11.122.035.065.1.13.18.17-.065.254-.095.494-.223.699-.204.329-.472.283-.39-.037-.057.282-.11.473-.09.628s.245.302.452.057c.466-.552.298-1.087.726-1.619.202-.252.323-.515-.044-.695l-.103-.052c-.106-.063-.1-.269.1-.37-.219.03-.246.113-.315.243.051.033-.096.117-.099.159a2.8 2.8 0 0 1-.633-.479c.082-.062.16-.143.1-.218a3 3 0 0 1-.101-.123c.06.076-.028.16-.11.222a3 3 0 0 1-.287-.376 2.6 2.6 0 0 0-.384-.46c.069-.075.18-.212.105-.281a2 2 0 0 0-.201-.172c.12.087-.01.228-.075.307-.212-.164-.438-.276-.647-.298z"/><path fill="#FFF101" d="M11.322 14.698c-.137-.059-.07-.138-.184.054-.189.313-.225.24-.218.672.008.438.09.368.48.719.299-.236.657-.593.883-.824-.187-.256-.726-.52-.961-.621"/><path fill="#FFF101" d="M11.986 15.696c-.127.154-.114.126-.181-.114-.246.057-.437.124-.634.173-.222.055-.266.057-.268-.059a10 10 0 0 0-.015-.412c-.011-.18.023-.173.164-.169.14.004.433.04.727.042.021-.25 0-.314.122-.218.135.106.335.298.406.387-.094.08-.201.224-.321.37M14.622 16.883l.17-.085-.04.192.17.086-.168.089.042.19-.17-.08-.118.152-.044-.19-.187-.001.113-.156-.116-.153.187-.004.042-.19z"/><path fill="#fff" d="M14.85 12.045c-.075.365-.404.699-.79.816-.104.309.075.791.325 1.058 1.04.504 2.162.279 2.79.384.198.033.62-.115.674-.501.044-.318.192-.403.257-1.522.035-.605.023-1.14.098-1.372s.16-.475.376-.566c.297-.126.486-.354.698-.427.26-.09.445-.137.563-.233s.126-.374-.179-.44c-.69-.147-1.046.273-1.699.15-.308-.058-.576-.037-.551.388s.043 1.015-.337 1.772c-.256.508-.364 1.128-.208 1.537-.246-.152-.5-.184-.807-.403a5.2 5.2 0 0 0-1.21-.64"/><path fill="#FFF101" d="M14.503 12.611c.536.204.515.412 1.194.56.409.089.88.273 1.081.393l.022-.093c-.201-.12-.673-.304-1.081-.393-.656-.143-.659-.342-1.143-.54a1 1 0 0 1-.073.073"/><path fill="#FFF101" d="M14.813 12.176c.062.038.129.073.19.097-.045.159-.3.324-.204.372.03.016.121.075.17.108-.076-.05.238-.304.236-.382.317.11.566.363.77.422-.032.129-.207.295-.11.32.05.011.17.048.246.07-.079-.024.068-.152.058-.23.17.064.484.2.616.28l.082-.144c-.246-.152-.5-.184-.807-.403a5.2 5.2 0 0 0-1.21-.64 2 2 0 0 1-.037.13M17.275 13.178c-.179-.398-.1-1.041.118-1.548a3.1 3.1 0 0 0 .263-1.46c.054.001.1-.029.147-.05.51-.232.805.17.666.29.053-.046.1-.062.14-.08.067-.031.007-.274-.234-.394-.103-.051-.296-.05-.412-.025.095-.117.161-.16.292-.184a.4.4 0 0 1-.036.17c.044.006.094.009.156.04a.46.46 0 0 0 .05-.249c.242-.068.455-.16.688-.147.373.021.47.288.165.374.26-.09.445-.137.563-.233s.126-.374-.179-.44c-.69-.147-1.046.273-1.699.15-.308-.058-.586-.036-.551.388l.009.119c0 .128-.172.226-.356.093.134.185.216.168.358.167.002-.064.145.027.18.01.008.233-.005.505-.078.814-.092-.043-.197-.073-.23.018q-.022.076-.05.154c.033-.092.146-.054.238-.011a3.4 3.4 0 0 1-.167.448c-.082.182-.147.381-.187.58-.097-.025-.265-.058-.285.045q-.029.135-.041.269c.011-.153.193-.106.29-.085-.029.274-.008.536.078.737z"/><path fill="#FFF101" d="M16.559 14.01c.02.153.006.266.222.275.353.014.324.06.675-.162.358-.227.368-.182.462-.712.023-.13-.027-.128-.187-.2-.345-.155-.646-.144-.95-.234-.118.297-.257.769-.223 1.032"/><path fill="#FFF101" d="M17.241 13.058c.19.038.16.04-.004.222.171.195.302.333.441.488.156.174.18.213.086.273-.121.076-.251.161-.333.219-.142.1-.154.066-.221-.064s-.165-.412-.31-.68c-.217.106-.26.156-.241-.001.02-.176.078-.455.116-.564.114.045.286.071.466.107M16.902 10.068l-.155-.113.178-.06-.014-.196.157.108.136-.134.019.196.184.03-.134.136.092.17-.185-.025-.068.183-.097-.169-.178.057z"/><path fill="#000" d="M13.86 12.595c-.29-.292-.727-.42-1.06-.308l-.01-.006a5.8 5.8 0 0 1-.076-1.423c.012-.18.002-.31-.033-.545l-.022-.151q-.015-.118-.016-.217c-.257.325-.799.543-1.365.566-.669.027-1.087.204-1.626.578-.3.208-.47.084-.606-.311-.09-.262-.2-.413-.463-.691l-.02-.021c-.276-.292-.396-.462-.49-.758-.088-.277.102-.469.283-.392l.037.018c.058.031.118.077.197.15.027.024.106.1.168.159l.073.07.028.024a.1.1 0 0 0-.043-.018l-.068-.065c-.062-.059-.14-.134-.168-.159a1 1 0 0 0-.23-.164c-.169-.072-.347.108-.263.372.093.294.212.462.486.752l.02.021c.265.28.376.432.466.697.134.387.296.505.585.303.541-.375.962-.553 1.634-.58.572-.023 1.119-.247 1.366-.577l.013.005c0 .074.005.147.016.236l.022.15c.035.236.046.368.034.55a5.8 5.8 0 0 0 .074 1.41l-.008.002.01.006-.002-.009c.338-.109.776.022 1.06.313.289-.055.604-.436.705-.816-.05-.57-.233-1.085-.564-1.718-.051-.097-.19-.354-.258-.478l-.038-.068a4 4 0 0 1-.217-.462c-.095-.26-.45-.48-.741-.358a1 1 0 0 1-.213.065c-.39.089-.605.165-1.17.461l-.049.026c-.108.057-.37.202-.534.292-.069.038-.12.067-.135.074-.224.121-.364.185-.465.206-.335.07-.505.068-.66-.06a1.3 1.3 0 0 0-.206-.14l.005-.005-.003-.01.05.03q.088.05.162.112c.152.125.318.128.649.058.1-.021.239-.084.462-.204l.134-.074c.164-.09.426-.235.535-.293l.048-.025c.567-.297.783-.374 1.173-.463l.092-.023q.062-.018.12-.041c.3-.125.662.1.76.366.045.125.111.263.216.46l.037.068c.068.124.207.381.258.479.332.634.517 1.151.567 1.726-.103.388-.423.774-.723.828M9.305 9.582l.015.009v-.002zm-.053-.01q.027 0 .053.01a3 3 0 0 0-.167-.084v-.003l-.036-.015-.028-.014a1.2 1.2 0 0 1-.205-.12v-.002l-.01-.007.01.008v.012l-.005.003-.013-.01.01.007v-.013l-.01.006-.03-.026-.005-.005c-.094-.02-.2.08-.261.24l.01.01.299-.209c.046.036.102.07.18.109-.113-.006-.209.1-.331.373l.011.01.41-.34zm.047.025-.047-.025c-.13-.003-.253.178-.327.498l.012.007.38-.47-.012-.007v-.001l.009.004-.003-.012-.006.008zm-.353.445c.083-.334.22-.497.353-.445l.006.003zm0 0-.007.032-.013-.007zm.173-.537.015.008.006-.005-.002-.01-.019-.01-.017-.008a.2.2 0 0 0-.057-.011l.022.011.03.015c-.128-.042-.225.039-.357.324l-.025.02.011.01.014-.03zm.002-.001-.024-.01.016.009.006.002zm0 0 .011.005-.001-.013zm-.543.038.273-.192c-.088-.057-.205.03-.273.192m0 0-.02.014.01.01z"/><path fill="#000" d="M13.417 11.76c-.01.227-.006.348.028.55l-.01.01-.04-.015c-.021-.007-.045-.015-.06-.022a2.2 2.2 0 0 1-.02-.497l.002-.043a1.9 1.9 0 0 0-.11-.768c-.12-.386-.214-.913-.21-1.189l.096-.019c.002.267.095.792.216 1.177.101.322.122.503.11.773zm.023.545-.01.008-.001-.012zm-.097-.03a1 1 0 0 1 .086.026 2.2 2.2 0 0 1-.026-.541l.002-.044a1.9 1.9 0 0 0-.11-.767c-.121-.386-.214-.914-.207-1.175l-.082.02c.002.266.095.792.216 1.177.101.322.122.503.11.773l-.002.043c-.01.208-.007.318.013.488"/><path fill="#000" d="M11.719 9.01c-.082.037-.081.168-.015.37.052.163.146.366.258.575l.014-.006-.248-.933zm1.197 3.016c.01.065.015.142.015.222l-.006.007-.025.005a1 1 0 0 1-.11.02 5.8 5.8 0 0 1-.076-1.422c.012-.18.002-.31-.033-.545l-.022-.151a1 1 0 0 1-.009-.246l.167.01c0 .138.036.456.075.687q.029-.015.095-.013h.019c.042.001.059 0 .074-.003q.025-.006.019-.032l.014-.003.026.107.002.009q.025.106.037.143.013.05-.041.06a.5.5 0 0 1-.119.002l-.044-.002q-.05-.002-.081 0h-.035c.022.086.024.165.015.387a2.4 2.4 0 0 0 .021.515c.028-.01.076-.002.2.027l.008.002a1 1 0 0 0 .15.028q.061.003.062-.023v.03q-.021.01-.063.008a1 1 0 0 1-.152-.028l-.008-.002c-.13-.03-.178-.038-.198-.025l-.011-.005-.012-.07a2.4 2.4 0 0 1-.011-.458c.008-.22.007-.298-.01-.392a.4.4 0 0 1 .126-.01l.044.002a.5.5 0 0 0 .115 0q.04-.008.03-.041l-.037-.145-.002-.008-.018-.075q.011-.013.006-.036l-.014.004.008.032a.05.05 0 0 1-.023.013.3.3 0 0 1-.079.004h-.018c-.05-.001-.079.003-.096.017l-.012-.005c-.04-.233-.077-.56-.07-.694l-.152-.01c0 .075.005.148.016.237l.022.15c.035.236.046.368.034.55q-.05.693.066 1.412c.03-.01.08-.022.121-.03v.005l.006-.007-.006.001q0-.114-.01-.221c.042-.01.091-.01.155.002l.072.015c.092.02.106.023.133.024q.048.001.045-.034c-.002-.026 0-.096.002-.18a.03.03 0 0 0 .016-.03h-.015.015c-.004.097-.006.18-.004.209q.003.051-.06.05a.6.6 0 0 1-.135-.024l-.072-.015a.7.7 0 0 0-.142-.011m-1.2-2.997-.002-.01.01.006zm.23.863a3.5 3.5 0 0 1-.229-.516c-.06-.189-.064-.31 0-.347zm0 0 .029.055-.014.006zm-.185.256.005.017q.102-.04.206-.095l-.005-.016zm0 0q.103-.04.205-.093l.006.016-.206.094zm-1.179.229.004.017.153-.048-.003-.017a3 3 0 0 0-.154.048m0 0 .004.016q.074-.026.153-.047l-.003-.017z"/><path fill="#000" d="M11.183 10.167c.557-.058 1.105-.322 1.33-.663l.013.003.018.12c-.12.174-.32.326-.568.432l.03.089c.043.116.095.166.17.13l-.056.027c-.053-.007-.094-.061-.128-.152l-.016-.047c-.004-.01-.014-.044-.01-.052.25-.114.449-.265.565-.43l-.016-.097.01-.015-.013-.003.003.018c-.234.34-.777.597-1.33.655a2.83 2.83 0 0 0-1.343.487c-.017-.03-.037-.05-.087-.086l-.027-.02c-.201-.157-.294-.354-.28-.537.01-.128.073-.223.145-.232l.043.02.005-.014a.1.1 0 0 0-.048-.006l-.038-.025-.054-.041-.002-.002c-.07-.055-.214.167-.196.402.008.107.094.278.183.383l-.007.013c-.147-.028-.217-.069-.3-.188a.4.4 0 0 1 .152-.053l.004.01.006-.01h-.01l-.01-.026a.4.4 0 0 1-.023-.07.2.2 0 0 1-.003-.05H9.29a.47.47 0 0 0-.229.075l-.034-.035-.148-.148a1.3 1.3 0 0 1-.284-.37c-.08-.166-.09-.317-.033-.396.037-.052.096-.063.163-.032l.024.023.037.035c-.089-.075-.169-.079-.213-.016-.052.073-.043.218.035.379.06.123.14.223.281.366l.148.148c.012.012.024.024.025.034a.37.37 0 0 1 .227-.073c-.018-.244.135-.48.22-.413l.003.002.052.04q.037.027.078.044l-.005.014c-.08-.032-.163.067-.174.213-.013.178.077.37.275.524l.026.02c.052.037.073.057.081.088.39-.27.802-.436 1.339-.492m-1.846.131a.6.6 0 0 0-.149.04c.079.1.143.14.273.167a1 1 0 0 1-.124-.207m-.542-1.02a.3.3 0 0 0-.071-.047l-.144-.136a1 1 0 0 0-.23-.164c-.169-.072-.347.108-.263.372.093.294.212.462.486.752l.02.021c.265.28.376.432.466.697.062.179.128.297.21.357.1.072.221.06.375-.053l.052-.038c.015-.01.026-.02.042-.03.117-.072.261.047.267.24l-.015.04.014.003v-.043c.04-.112.037-.182 0-.26l-.025-.05c-.006-.01-.025-.043-.02-.05q-.03.015-.045-.019a.3.3 0 0 1-.02-.07l-.001-.008c-.01-.046-.016-.065-.025-.071v-.013a2.5 2.5 0 0 1 .723-.33c.014.136.05.205.121.192l.102-.021q.023.01.053.006-.075.012-.152.03c-.085.015-.124-.062-.13-.2a2.7 2.7 0 0 0-.7.33.2.2 0 0 1 .022.074l.002.009a.3.3 0 0 0 .018.065c.007.015.014.019.034.016l.03.054q.017.029.027.05c.042.09.04.172-.015.312l-.014-.004c.016-.207-.13-.339-.243-.27l-.041.03-.053.038c-.158.116-.286.13-.39.054-.087-.063-.154-.183-.216-.365-.09-.262-.2-.413-.463-.691l-.02-.021c-.276-.292-.396-.462-.49-.758-.088-.277.102-.469.283-.392l.037.018c.058.031.118.077.197.15.027.024.106.1.168.159zm2.07 1.261.002.016zm0 0c-.072.013-.106-.06-.12-.203q.206-.04.447-.065c.193-.016.39-.057.573-.12.038.168.096.266.18.237q.13-.044.238-.095l.005-.003-.006-.014-.005.003.005-.003.006.014-.005.003a.1.1 0 0 1-.063.012 2 2 0 0 1-.18.068c-.071.025-.125-.068-.17-.231a3 3 0 0 1-.58.114 3 3 0 0 0-.454.073c.007.121.03.197.078.22zm-2.07-1.26q.018.015.036.034l-.01.01.01-.01zM13.746 12.905c-.096.409.017.87.276 1.118v.012a5.2 5.2 0 0 1-1.135.78c-.118.06-.218.127-.327.215l-.088.073-.085.072c-.086.071-.15.12-.218.161.396.071.847.455 1.149.958.357.595.712.887 1.29 1.19.321.168.304.385.046.707-.172.214-.24.387-.34.774-.109.42-.185.607-.386.846-.184.218-.437.141-.464-.062a.9.9 0 0 1 .016-.269c.009-.05.045-.226.063-.313l.01-.048.006-.036a.1.1 0 0 0 .007.046l-.009.042c-.018.087-.054.261-.063.312a.9.9 0 0 0-.016.264c.026.19.263.262.44.053.199-.236.274-.42.382-.84.1-.388.17-.562.343-.779.253-.315.269-.52-.042-.684-.58-.303-.937-.597-1.296-1.195-.304-.508-.762-.894-1.158-.954l-.003-.014c.075-.044.141-.094.233-.171l.174-.146c.11-.088.211-.156.33-.216a5.2 5.2 0 0 0 1.125-.772l.006.006v-.012l-.006.006c-.259-.253-.37-.717-.273-1.121-.189-.234-.662-.33-1.025-.233-.35.26-.641.592-.917 1.017-.076.117-.23.384-.38.645-.156.27-.307.534-.362.612l-.05.07c-.168.215-.172.647.075.852a1 1 0 0 1 .132.13l.042.049.078.088c.053.06.106.115.17.175.165.156.387.333.703.553.161.111.667.445.664.444.224.15.35.249.42.332.226.269.309.425.28.631a1.4 1.4 0 0 0-.01.256l-.008-.001-.007.007c-.004-.099 0-.176.011-.264.027-.2-.053-.353-.276-.619-.07-.082-.195-.18-.418-.33.003.002-.503-.332-.664-.444a6 6 0 0 1-.705-.553 3 3 0 0 1-.171-.176l-.078-.09-.041-.047a1 1 0 0 0-.131-.129c-.254-.21-.25-.652-.078-.874q.025-.033.05-.07c.055-.077.205-.339.36-.609.15-.26.305-.53.382-.647.277-.426.57-.76.923-1.021.37-.1.849-.003 1.044.243m-.207 5.648-.001-.018h-.001q0 .01.002.018m.017.054a.2.2 0 0 1-.017-.054q.003.078.012.182l.001.012-.002.001.006.04c.011.14.014.213.005.28l-.002.015.002-.015.01-.005.005.002-.002.016v-.01l-.01.005.01.005v.003l-.007.038-.001.007c.03.095.166.142.329.117l.002-.014-.32-.167a1 1 0 0 0-.002-.22c.052.108.188.142.474.117l.002-.015-.484-.203-.001-.01zm-.003-.056.003.056c.064.119.274.14.575.048v-.015l-.579-.111v.016-.01l-.01.008.01.002zm.544.098c-.317.092-.52.049-.544-.098v-.006zm0 0 .03-.009v.015zm-.529.111-.001-.017-.007-.002-.008.006.004.042a.2.2 0 0 0 .019.057l-.005-.06c.03.137.145.185.446.163l.03.012.001-.015-.03.003zm-.002 0q0 .014.004.026l-.002-.026zm0 0-.002-.013-.01.008zm.303.474-.295-.153v.003c-.002.107.128.17.295.15m0 0 .022.012.002-.015z"/><path fill="#000" d="M13.262 13.734c.213-.116.302-.173.457-.31l.012.005.008.043.013.067a2 2 0 0 1-.418.275l-.041.022c-.21.115-.35.229-.557.471-.258.304-.646.652-.875.787l-.064-.078c.218-.135.606-.482.862-.785.208-.244.35-.359.562-.475zm.454-.303.012.005-.01.008zm.003.013c-.15.132-.24.19-.45.303l-.042.023c-.209.115-.35.228-.557.472-.258.303-.646.651-.864.775l.057.065c.218-.135.605-.482.862-.785a1.8 1.8 0 0 1 .561-.475l.041-.022c.199-.107.278-.157.413-.265a1 1 0 0 1-.021-.09M12.597 15.897l.009-.012q.09.07.172.146l-.01.012zm0 0q.09.07.17.146l.01-.012-.17-.146zm.964 1.11v.001l.011-.012-.01.012zm-.121-.127.12.128q-.059-.06-.12-.128m.01-.012-.01.012zm.001 0 .121.128q-.06-.059-.12-.127m0 0"/><path fill="#000" d="m11.875 15.673-.004-.013q.008 0 .017.002zm.85-.042q.018.045-.004.1a.45.45 0 0 1-.124.166c-.22-.17-.443-.275-.637-.298l-.072.063c.397.043.881.408 1.206.882a3 3 0 0 0 1.073.977c-.018.031-.023.059-.028.123v.002l-.003.032c-.029.261-.145.444-.303.523-.11.055-.22.046-.264-.016l-.005-.05-.014.003q.004.027.019.047a1 1 0 0 1-.005.088l-.004.032c-.01.091.245.11.43-.023.083-.06.182-.224.224-.358h.014c.05.148.052.232-.005.367a.4.4 0 0 1-.12-.112l.007-.008h-.012l.006.008-.003.003c-.007.01-.015.022-.02.027a.4.4 0 0 1-.055.062.1.1 0 0 1-.026.014l.004.006a.5.5 0 0 0 .176.17l-.045.192c-.058.256-.097.378-.178.508-.097.156-.216.24-.31.228-.061-.007-.1-.056-.107-.133l.017-.085c-.018.119.019.194.092.203.087.01.202-.07.296-.221.08-.128.118-.25.176-.503.03-.128.032-.141.05-.184a.4.4 0 0 1-.175-.17c-.192.138-.463.117-.45.007l.003-.032a.5.5 0 0 0 0-.133l.015-.002c.014.088.137.115.263.051.153-.076.266-.254.294-.511l.003-.032v-.001c.006-.067.011-.096.033-.119a2.9 2.9 0 0 1-1.075-.971c-.327-.478-.818-.844-1.212-.878l-.004-.014.09-.075c.203.02.429.127.64.3l.045-.054a.4.4 0 0 0 .066-.106q.034-.082-.03-.133zm.856 1.067c.005.054-.046.113-.142.18a3 3 0 0 1-.287-.377 3 3 0 0 0-.385-.47c.113-.122.163-.217.106-.27q-.076-.072-.147-.13a.12.12 0 0 0-.041-.05q.096.072.198.169c.066.062.014.163-.105.281.143.136.275.295.386.462.09.138.186.263.276.374.11-.085.154-.152.108-.21zm-.022-.052-.011.01zm.625.813a2.8 2.8 0 0 1-.624-.472c.111-.074.156-.148.1-.218a3 3 0 0 1-.1-.122q.019.024.021.05l.069.082c.046.06.007.126-.099.207.195.21.4.36.634.492l.01-.007c.002-.01.014-.025.053-.063l.007-.006a.2.2 0 0 0 .043-.05q.017-.03-.008-.047c.005.005.027-.034.036-.051l.002-.005c.055-.1.108-.143.235-.166-.156.102-.182.292-.065.363l.045.022.059.03c.17.083.24.187.23.313-.008.106-.072.224-.189.37-.174.216-.243.391-.343.78-.108.418-.183.603-.383.84-.176.208-.413.136-.439-.054a.9.9 0 0 1 .016-.264c.007-.037.027-.14.046-.227a.4.4 0 0 1 .003-.089q.009-.039.01-.048l.014.003-.01.049.01-.049-.014-.003-.01.048c-.018.087-.054.262-.063.313a.9.9 0 0 0-.016.27c.027.202.28.279.464.06.201-.238.277-.424.386-.845.1-.387.168-.56.34-.774.12-.148.184-.269.193-.379.01-.133-.064-.242-.24-.328l-.057-.029-.045-.022c-.114-.07-.078-.267.1-.357l-.003-.014c-.162.022-.224.066-.286.18l-.03.054-.006.012c.012.016.013.024.005.037a.2.2 0 0 1-.04.046l-.007.006c-.035.033-.05.049-.054.063m.38-.376.036-.02.004.014zm-1.88-1.502-.003-.003-.008.012.003.003-.003-.003.008-.012zm1.429 2.585c.03.044.073.087.107.115a.45.45 0 0 0 .001-.331 1 1 0 0 1-.108.216"/><path fill="#000" d="m14.624 16.874-.115-.146-.013.003-.042.19-.18-.002-.006.013.116.153-.113.146.006.012.187.002.037.184.013.003.117-.153.162.084.01-.01-.042-.19.164-.08v-.014l-.17-.086.044-.183-.01-.009zm.158-.062-.157.078-.009-.002-.11-.14.004-.014-.012.003.009.012-.046.181-.173.004-.009-.012-.005.012h.014l.108.15-.105.145-.014-.001.006.012.008-.011.18.006.04.176-.009.011.013.003-.004-.014.117-.144.158.075.003.015.01-.008-.013-.007-.036-.184.155-.082.013.007v-.014l-.013.007-.16-.088zm0 0 .014-.007-.01-.008zM14.059 12.854c.385-.118.71-.451.784-.81l.01-.006c.446.164.844.381 1.21.642.153.108.244.152.511.26.127.052.202.086.279.132-.14-.396-.049-.998.215-1.524.313-.622.376-1.09.336-1.768-.021-.376.166-.47.56-.395.258.048.442.024.789-.072l.027-.008c.393-.109.588-.133.883-.07.272.058.336.327.182.453a.8.8 0 0 1-.25.127l-.23.078-.084.029-.012.004a.1.1 0 0 0 .03-.026l.062-.021.23-.078a.8.8 0 0 0 .245-.125c.144-.118.084-.37-.175-.426-.293-.063-.486-.039-.878.07l-.027.008c-.348.096-.534.12-.794.072-.387-.073-.564.016-.543.38.04.68-.024 1.15-.338 1.775-.267.532-.356 1.14-.207 1.531l-.01.01a2 2 0 0 0-.295-.142c-.268-.109-.36-.152-.513-.261a5.1 5.1 0 0 0-1.2-.638l.001-.008-.01.005.009.003c-.08.362-.406.696-.789.809-.098.289.058.766.321 1.048q.213.103.443.173c.473.143.86.174 1.63.176.396.001.55.007.715.034.261.044.62-.168.665-.495.008-.054.019-.103.034-.16l.049-.162c.022-.072.039-.136.055-.21a6 6 0 0 0 .12-.989c.01-.17.012-.238.025-.602.016-.456.031-.641.073-.772.11-.34.197-.492.38-.57.074-.031.142-.069.217-.118l.003.008.01.003c-.078.05-.148.09-.224.121-.179.076-.264.225-.372.561-.041.128-.056.313-.072.768-.013.364-.016.432-.026.602a6 6 0 0 1-.12.992 3 3 0 0 1-.055.21l-.049.162a1 1 0 0 0-.033.159c-.047.335-.414.552-.683.507-.163-.027-.317-.033-.712-.034-.77-.001-1.16-.033-1.634-.177a3 3 0 0 1-.447-.174c-.269-.288-.427-.771-.322-1.071m4.762-2.636-.015.01h.002zm.035-.043a.2.2 0 0 1-.035.043q.037-.024.075-.053l.078-.056.003.001.03-.026.03-.022c.053-.038.094-.066.133-.088l.067-.035.003.002.029-.015-.032.013-.008-.005-.001-.007.016-.007v.002l-.01.005.011.006v-.011l.013-.008.018-.007.023-.007c.065-.078.031-.22-.082-.353l-.015.005.026.375-.065.033q-.052.03-.118.078c.061-.1.021-.24-.142-.488l-.013.005.074.542-.076.056zm-.044.03q.023-.014.044-.03c.067-.117-.02-.319-.247-.547l-.012.008.197.582.013-.009-.008.007.012.004-.004-.01zm-.19-.543c.233.243.3.449.19.544l-.005.003zm0 0-.023-.023.012-.008zm.355.425-.013.01.001.008.009.004.016-.012.017-.013a.2.2 0 0 0 .038-.046l-.016.011-.031.024c.098-.095.08-.225-.09-.487l-.004-.033-.013.006.018.027zm0 .003.02-.017-.015.011-.005.004zm0 0-.009.008.012.005zm.243-.513.024.343.014-.006c.09-.057.071-.2-.038-.337m0 0-.002-.026-.015.006z"/><path fill="#000" d="m14.61 12.663-.11-.045-.002-.013q.015-.013.034-.03l.046-.044.056.024c.14.062.202.1.39.225.223.15.377.221.697.29.379.083.86.262 1.086.403l-.032.097c-.221-.13-.701-.31-1.08-.392a1.7 1.7 0 0 1-.702-.293 2 2 0 0 0-.383-.222m-.102-.046-.003-.013.012.005zm.073-.074a1 1 0 0 1-.064.066q.051.02.098.04c.14.062.2.099.386.224.224.15.379.22.698.29.38.083.86.262 1.072.399l.025-.085c-.22-.13-.7-.309-1.078-.391a1.7 1.7 0 0 1-.703-.293 2 2 0 0 0-.387-.224l-.003-.001q-.027-.011-.044-.024"/><path fill="#000" d="M17.492 11.146q.028-.085.048-.161l-.016-.004-.048.16zm-.016-.005.016.005.048-.16-.016-.005q-.021.076-.048.16M15 12.28a1.2 1.2 0 0 1-.19-.098l-.004-.009.009-.025c.01-.037.024-.08.038-.11.446.164.844.381 1.21.642.153.108.244.152.511.26.137.056.214.091.3.153l-.092.147a5 5 0 0 0-.605-.276q0 .03-.028.079l-.014.024a.3.3 0 0 0-.038.074q-.008.029.016.035l-.004.015.004-.015-.03-.01a.1.1 0 0 1 0-.03.3.3 0 0 1 .04-.077l.014-.024q.03-.053.025-.081l.01-.008c.21.08.5.21.607.284l.084-.135a2 2 0 0 0-.294-.14c-.268-.11-.36-.153-.513-.262a5.5 5.5 0 0 0-1.199-.646 2 2 0 0 1-.035.125l-.005-.003.003.01.002-.007q.095.057.188.103l-.008.024a.6.6 0 0 1-.103.154l-.026.03-.03.035a1 1 0 0 0-.042.055q-.033.05 0 .065c.023.012.083.05.149.093q0 .018.015.028l.008-.013-.008.013a3 3 0 0 0-.17-.107q-.046-.025-.006-.087a1 1 0 0 1 .043-.057l.03-.036.026-.03a.6.6 0 0 0 .1-.15q.004-.013.012-.012m-.027.466-.023-.015q0-.024.022-.06a1 1 0 0 1 .097-.121l.007-.008c.094-.107.122-.145.121-.17l.01-.008c.118.04.227.1.37.192l.005.003c.029.02.169.112.209.136.075.046.133.075.191.1a.4.4 0 0 1-.035.086l-.033.055v.001a1 1 0 0 0-.064.114q-.02.047.016.054c.027.006.071.019.145.04l.006.003.05.015.015.004q.005.017.027.024l-.045-.014-.05-.015-.006-.001-.145-.04q-.051-.016-.027-.075l.005-.014c.007-.016.016-.03.06-.102l.001-.002.048-.087.024-.04a.8.8 0 0 1-.19-.093c-.041-.024-.182-.118-.21-.136l-.005-.003a1.7 1.7 0 0 0-.358-.187c-.005.03-.036.069-.125.17l-.006.008a1 1 0 0 0-.095.12q-.034.053-.012.066m3.113-.047c.01-.093-.098-.157-.298-.199a3.3 3.3 0 0 0-.603-.052l-.002.015.894.242zm-.014-.011.008.002-.009.007zm-.826-.224c.204.005.395.021.54.051.185.039.287.097.286.173zm0 0h-.06l.001-.016zm-.143-.062a2 2 0 0 1 .04-.228l-.016-.003-.04.229zm0 0-.017-.002q.016-.117.04-.229l.017.003z"/><path fill="#000" d="M17.4 11.633c-.23.537-.287 1.166-.118 1.542l-.01.01-.107-.044c-.084-.195-.11-.454-.073-.732l-.037-.008-.077-.013c-.101-.011-.16.014-.167.094l.007-.065q.043-.059.162-.044l.078.013c.009.002.035.007.043.016-.03.285-.006.54.073.729l.087.033.008.017.009-.01-.017-.007c-.162-.382-.103-1.005.126-1.537a3.2 3.2 0 0 0 .269-1.465c.034.001.06-.008.112-.034l.003-.001.03-.014c.23-.105.439-.09.583.013.1.072.146.177.119.248l-.039.03.01.011a.1.1 0 0 0 .029-.041 1 1 0 0 1 .093-.047l.01-.004c.08-.037-.032-.279-.234-.38-.092-.046-.276-.053-.407-.025l-.008-.012c.097-.12.166-.163.305-.18a.4.4 0 0 1-.032.165l-.01-.001.006.01.004-.009h.005c.042.006.069.01.092.019a.2.2 0 0 1 .042.022l.003-.006a.5.5 0 0 0 .052-.245l.13-.04c.171-.053.2-.062.274-.079a1 1 0 0 1 .285-.029c.177.01.306.077.343.168.025.06.004.12-.055.164l-.04.014-.038.013c.106-.043.15-.114.12-.185-.035-.084-.159-.149-.33-.158a1 1 0 0 0-.282.028 3 3 0 0 0-.273.08.7.7 0 0 1-.125.03.4.4 0 0 1-.053.243c.21.107.328.362.232.407l-.01.004a.4.4 0 0 0-.129.074l-.009-.012c.066-.056.027-.181-.089-.264-.14-.1-.343-.115-.569-.012l-.029.014h-.002c-.055.028-.083.037-.112.029.028.489-.04.947-.263 1.463m1.927-1.727a.3.3 0 0 0 .074-.04l.19-.065a.8.8 0 0 0 .245-.125c.144-.118.084-.37-.175-.426-.293-.063-.486-.039-.878.07l-.027.008c-.348.096-.534.12-.794.072-.179-.034-.308-.033-.4.012-.109.054-.159.171-.143.367l.005.064v.003l.004.053c0 .142-.17.214-.331.122l-.026-.034-.01.011.036.023c.048.06.09.095.135.113.042.017.074.02.162.018q.02-.001.022.006.002-.03.038-.03a.3.3 0 0 1 .066.017h.004c.048.017.067.021.076.016l.01.007c.01.277-.013.54-.088.822-.12-.056-.194-.058-.22.014q-.015.053-.033.103a.1.1 0 0 0-.03.045l.013.006.017-.051c.043-.032.117-.015.22.039a3.5 3.5 0 0 1-.167.45 3.3 3.3 0 0 0-.195.584c-.157-.041-.261-.038-.276.039q-.022.104-.033.198a.13.13 0 0 0-.022.063v.005l.014.002v-.005.005l-.014-.002m.8-2.307c-.013.002-.034-.003-.077-.018h-.004a.3.3 0 0 0-.062-.017c-.016 0-.022.004-.03.023h-.029a.4.4 0 0 1-.167-.018.4.4 0 0 1-.168-.151l.01-.011c.163.118.345.052.345-.086l-.005-.053v-.003l-.003-.045q0-.007-.002-.018c-.016-.202.037-.326.152-.383.095-.046.227-.047.409-.013.257.048.44.024.788-.072l.027-.008c.393-.109.588-.133.883-.07.272.058.336.327.182.453a.8.8 0 0 1-.25.127l-.23.078q-.02.008-.038.013l-.047.016-.004-.015.005.015.046-.016M17.982 9.9a1 1 0 0 1 .233-.01.6.6 0 0 0 .041-.155.4.4 0 0 0-.274.165"/></g></svg>