<svg xmlns="http://www.w3.org/2000/svg" fill="none" viewBox="0 0 28 28" focusable="false"><rect width="27.5" height="19.5" x=".25" y="4.25" fill="#fff" stroke="#D6D8DD" stroke-width=".5" rx="2.75"/><mask id="Israel_svg__a" width="28" height="20" x="0" y="4" maskUnits="userSpaceOnUse" style="mask-type:luminance"><rect width="27.5" height="19.5" x=".25" y="4.25" fill="#fff" stroke="#fff" stroke-width=".5" rx="2.75"/></mask><g fill-rule="evenodd" clip-rule="evenodd" mask="url(#Israel_svg__a)"><path fill="#0E46D4" d="M0 8h28V4H0v4ZM0 24h28v-4H0v4Z"/><path fill="#093EC5" d="M9.534 16.667h2.963L14 19.373l1.503-2.706h2.963L16.985 14l1.481-2.667h-2.963L14 8.627l-1.503 2.706H9.534L11.015 14l-1.481 2.667Zm1.862-1.98L10.666 16h1.46l-.73-1.314ZM12.89 16l-1.111-2 1.11-2h2.223l1.111 2-1.11 2h-2.223Zm.37.667L14 18l.74-1.333h-1.48ZM15.874 16h1.46l-.73-1.314-.73 1.314Zm.73-2.686.73-1.314h-1.46l.73 1.314Zm-1.863-1.98L14 10l-.74 1.333h1.48ZM12.126 12l-.73 1.314-.73-1.314h1.46Z"/></g></svg>