<svg xmlns="http://www.w3.org/2000/svg" fill="none" viewBox="0 0 33 28" focusable="false"><path fill="none" d="M2 0h28v28H2z"/><rect width="28" height="20" x="2" y="4" fill="#FFF" rx="3"/><rect width="28" height="20" x="2" y="4" rx="3"/><mask id="Jamaica_svg__a" width="28" height="20" x="2" y="4" mask-type="alpha" maskUnits="userSpaceOnUse"><rect width="28" height="20" x="2" y="4" fill="#FFF" rx="3"/><rect width="28" height="20" x="2" y="4" stroke="#979797" stroke-opacity="0" stroke-width="0" rx="3"/></mask><g mask="url(#Jamaica_svg__a)"><path fill="#1DBE4F" d="M2 4h28v20H2z"/><path d="M2 4h28v20H2z"/></g><g mask="url(#Jamaica_svg__a)"><path fill="#262626" fill-rule="evenodd" d="m2 4 12 10L2 24z"/><path d="M14 14 2 24V4z"/></g><g mask="url(#Jamaica_svg__a)"><path fill="#262626" fill-rule="evenodd" d="M30 4 18 14l12 10z"/><path d="m18 14 12 10V4z"/></g><g mask="url(#Jamaica_svg__a)"><mask id="Jamaica_svg__b" fill="#fff"><path fill-rule="evenodd" d="M16 12.392.718 2.084l-1.492 2.21L13.616 14l-14.39 9.706 1.492 2.21L16 15.608l15.282 10.308 1.492-2.21L18.384 14l14.39-9.706-1.492-2.21z" clip-rule="evenodd"/></mask><path fill="#FFD646" fill-rule="evenodd" d="M16 12.392.718 2.084l-1.492 2.21L13.616 14l-14.39 9.706 1.492 2.21L16 15.608l15.282 10.308 1.492-2.21L18.384 14l14.39-9.706-1.492-2.21z" clip-rule="evenodd" mask="url(#Jamaica_svg__b)"/></g></svg>