<svg xmlns="http://www.w3.org/2000/svg" fill="none" viewBox="0 0 28 28" focusable="false"><defs><filter id="Jamaica_svg__a"><feColorMatrix values="0 0 0 0 1 0 0 0 0 1 0 0 0 0 1 0 0 0 1 0"/></filter></defs><mask id="Jamaica_svg__b" width="28" height="20" x="0" y="4" maskUnits="userSpaceOnUse"><g filter="url(#Jamaica_svg__a)"><rect width="28" height="20" y="4" fill="#FFF" rx="3"/><rect width="28" height="20" y="4" stroke="#969696" stroke-opacity="0" stroke-width="0" rx="3"/></g></mask><path fill="none" d="M0 0H28V28H0z"/><rect width="28" height="20" y="4" fill="#FFF" rx="3"/><rect width="28" height="20" y="4" rx="3"/><g mask="url(#Jamaica_svg__b)"><path fill="#1DBE4F" d="M0 4H28V24H0z"/><path d="M0 4H28V24H0z"/><path fill="#262626" fill-rule="evenodd" d="M0 4L12 14L0 24L0 4Z"/><path d="M12 14L0 24L0 4L12 14Z"/><path fill="#262626" fill-rule="evenodd" d="M0 0L12 10L0 20L0 0Z" transform="matrix(-1 0 0 1 28 4)"/><path d="M12 10L0 20L0 0L12 10Z" transform="matrix(-1 0 0 1 28 4)"/><path fill="#FFD646" fill-rule="evenodd" d="M29.2825 25.9165L30.7737 23.7057L16.3844 14L30.7737 4.29432L29.2825 2.08356L14 12.3917L-1.28244 2.08356L-2.77362 4.29432L11.6156 14L-2.77362 23.7057L-1.28244 25.9165L14 15.6083L29.2825 25.9165Z"/><path d="M29.2825 25.9165L30.7737 23.7057L16.3844 14L30.7737 4.29432L29.2825 2.08356L14 12.3917L-1.28244 2.08356L-2.77362 4.29432L11.6156 14L-2.77362 23.7057L-1.28244 25.9165L14 15.6083L29.2825 25.9165Z"/></g></svg>