<svg xmlns="http://www.w3.org/2000/svg" fill="none" viewBox="0 0 28 28" focusable="false"><rect width="27.5" height="19.5" x=".25" y="4.25" fill="#fff" stroke="#D6D8DD" stroke-width=".5" rx="2.75"/><mask id="Jersey_svg__a" width="28" height="20" x="0" y="4" maskUnits="userSpaceOnUse" style="mask-type:luminance"><rect width="27.5" height="19.5" x=".25" y="4.25" fill="#fff" stroke="#fff" stroke-width=".5" rx="2.75"/></mask><g mask="url(#Jersey_svg__a)"><path fill="#E3243B" d="m-6.312 1.417 1.53-2.184 40.411 28.296-1.53 2.185z"/><path fill="#E3243B" d="M35.63 1.417 34.1-.767-6.311 27.529l1.53 2.184z"/><path fill="#FAEF32" fill-rule="evenodd" d="M15.74 6.667h-2.148l.088-.052-.987-.57 1.276.143-.18-.855.878.713.877-.713-.18.855 1.276-.142-.987.57z" clip-rule="evenodd"/><path fill="#E3243B" fill-rule="evenodd" d="M12.667 9.167V8c0-.736.597-1.333 1.333-1.333h1.333c.737 0 1.334.597 1.334 1.333v1.167c0 1.785-2 2.5-2 2.5s-2-.715-2-2.5" clip-rule="evenodd"/><mask id="Jersey_svg__b" width="5" height="6" x="12" y="6" maskUnits="userSpaceOnUse" style="mask-type:luminance"><path fill="#fff" fill-rule="evenodd" d="M12.667 9.167V8c0-.736.597-1.333 1.333-1.333h1.333c.737 0 1.334.597 1.334 1.333v1.167c0 1.785-2 2.5-2 2.5s-2-.715-2-2.5" clip-rule="evenodd"/></mask><g fill="#FAEF32" mask="url(#Jersey_svg__b)"><rect width=".667" height=".667" x="14.333" y="10.667" rx=".333"/><rect width="2.667" height=".667" x="13.333" y="9.333" rx=".333"/><rect width="2.667" height=".667" x="13.333" y="8" rx=".333"/></g></g></svg>