<svg xmlns="http://www.w3.org/2000/svg" fill="none" viewBox="0 0 28 28" focusable="false"><mask id="Jersey_svg__e" width="4" height="5" x="12.667" y="6.667" maskUnits="userSpaceOnUse"><g fill-rule="evenodd" filter="url(#Jersey_svg__a)"><path fill="#E3243B" d="M12.6666 9.16669C12.6666 8.79588 12.6666 8.3823 12.6666 7.99996C12.6666 7.26358 13.2636 6.66669 14 6.66669L15.3333 6.66669C16.0697 6.66669 16.6666 7.26358 16.6666 7.99996C16.6666 8.3823 16.6666 8.79588 16.6666 9.16669C16.6666 10.9524 14.6666 11.6667 14.6666 11.6667C14.6666 11.6667 12.6666 10.9524 12.6666 9.16669Z"/><path stroke="url(#Jersey_svg__b)" stroke-linejoin="bevel" stroke-opacity="0" stroke-width="0" d="M12.6666 8.00002C12.6666 7.26364 13.2636 6.66669 14 6.66669L15.3333 6.66669C16.0697 6.66669 16.6666 7.26364 16.6666 8.00002C16.6666 8.38234 16.6666 8.7959 16.6666 9.16669C16.6666 10.9524 14.6666 11.6667 14.6666 11.6667C14.6666 11.6667 12.6666 10.9524 12.6666 9.16669C12.6666 8.7959 12.6666 8.38234 12.6666 8.00002Z"/></g></mask><defs><linearGradient id="Jersey_svg__b" x1="12.667" x2="12.667" y1="6.667" y2="11.667" gradientUnits="userSpaceOnUse"><stop offset="0" stop-color="#FFF"/><stop offset="1" stop-color="#EFEFEF"/></linearGradient><filter id="Jersey_svg__a"><feColorMatrix values="0 0 0 0 1 0 0 0 0 1 0 0 0 0 1 0 0 0 1 0"/></filter></defs><mask id="Jersey_svg__c" width="28" height="20" x="0" y="4" maskUnits="userSpaceOnUse"><g filter="url(#Jersey_svg__a)"><rect width="28" height="20" y="4" fill="#FFF" rx="3"/><rect width="27.5" height="19.5" x=".25" y="4.25" stroke="#F5F5F5" stroke-width=".5" rx="2.75"/></g></mask><path fill="none" d="M0 0H28V28H0z"/><rect width="28" height="20" y="4" fill="#FFF" rx="3"/><rect width="27.5" height="19.5" x=".25" y="4.25" stroke="#D6D8DD" stroke-width=".5" rx="2.75"/><g mask="url(#Jersey_svg__c)"><path fill="#E3243B" d="M0 0H2.667V49.333H0z" transform="rotate(-55 -1.795 6.77)"/><path d="M0 0H2.667V49.333H0z" transform="rotate(-55 -1.795 6.77)"/><path fill="#E3243B" d="M0 0H2.667V49.333H0z" transform="scale(-1 1)rotate(-55 -16.454 34.93)"/><path d="M0 0H2.667V49.333H0z" transform="scale(-1 1)rotate(-55 -16.454 34.93)"/><path fill="#FAEE32" fill-rule="evenodd" d="M13.5925 6.66665L15.7407 6.66665L15.6534 6.61544L16.6402 6.04561L15.3644 6.18807L15.5438 5.33331L14.6666 6.04561L13.7894 5.33331L13.9688 6.18807L12.693 6.04561L13.6798 6.61544L13.5925 6.66665Z"/><path d="M13.5925 6.66665L15.7407 6.66665L15.6534 6.61544L16.6402 6.04561L15.3644 6.18807L15.5438 5.33331L14.6666 6.04561L13.7894 5.33331L13.9688 6.18807L12.693 6.04561L13.6798 6.61544L13.5925 6.66665Z"/><path fill="#E3243B" fill-rule="evenodd" d="M12.6666 9.16669C12.6666 8.79588 12.6666 8.3823 12.6666 7.99996C12.6666 7.26358 13.2636 6.66669 14 6.66669L15.3333 6.66669C16.0697 6.66669 16.6666 7.26358 16.6666 7.99996C16.6666 8.3823 16.6666 8.79588 16.6666 9.16669C16.6666 10.9524 14.6666 11.6667 14.6666 11.6667C14.6666 11.6667 12.6666 10.9524 12.6666 9.16669Z"/><path d="M12.6666 8.00002C12.6666 7.26364 13.2636 6.66669 14 6.66669L15.3333 6.66669C16.0697 6.66669 16.6666 7.26364 16.6666 8.00002C16.6666 8.38234 16.6666 8.7959 16.6666 9.16669C16.6666 10.9524 14.6666 11.6667 14.6666 11.6667C14.6666 11.6667 12.6666 10.9524 12.6666 9.16669C12.6666 8.7959 12.6666 8.38234 12.6666 8.00002Z"/><g mask="url(#Jersey_svg__e)"><rect width=".667" height=".667" x="14.333" y="10.667" fill="#FAEE32" rx=".333"/><rect width=".667" height=".667" x="14.333" y="10.667" rx=".333"/><rect width="2.667" height=".667" x="13.333" y="9.333" fill="#FAEE32" rx=".333"/><rect width="2.667" height=".667" x="13.333" y="9.333" rx=".333"/><rect width="2.667" height=".667" x="13.333" y="8" fill="#FAEE32" rx=".333"/><rect width="2.667" height=".667" x="13.333" y="8" rx=".333"/></g></g></svg>