<svg xmlns="http://www.w3.org/2000/svg" fill="none" viewBox="0 0 28 28" focusable="false"><path fill="none" d="M0 0h28v28H0z"/><rect width="28" height="20" y="4" fill="#FFF" rx="3"/><rect width="28" height="20" y="4" rx="3"/><mask id="Kazakhstan_svg__a" width="28" height="20" x="0" y="4" mask-type="alpha" maskUnits="userSpaceOnUse"><rect width="28" height="20" y="4" fill="#FFF" rx="3"/><rect width="28" height="20" y="4" stroke="#979797" stroke-opacity="0" stroke-width="0" rx="3"/></mask><g mask="url(#Kazakhstan_svg__a)"><path fill="#30C6E0" d="M0 4h28v20H0z"/><path d="M0 4h28v20H0z"/></g><g mask="url(#Kazakhstan_svg__a)"><path fill="#FFCD4B" fill-rule="evenodd" d="M14 18c2.2 0 4-1.8 4-4a3.999 3.999 0 1 0-4 4"/><path d="M18 14a3.999 3.999 0 1 0-8.002-.002A3.999 3.999 0 0 0 18 14"/></g><g mask="url(#Kazakhstan_svg__a)"><mask id="Kazakhstan_svg__b" fill="#fff"><path fill-rule="evenodd" d="m14 18.714-1.632 2.436-.413-2.903-2.527 1.486.887-2.794-2.922.243 2.012-2.133L6.667 14l2.738-1.049-2.012-2.133 2.922.243-.887-2.794 2.527 1.486.413-2.902L14 9.286l1.632-2.435.413 2.902 2.527-1.486-.887 2.794 2.922-.243-2.011 2.133L21.333 14l-2.737 1.049 2.011 2.133-2.922-.243.887 2.794-2.527-1.486-.413 2.903zM18.667 14a4.667 4.667 0 1 1-9.334 0 4.667 4.667 0 0 1 9.334 0" clip-rule="evenodd"/></mask><path fill="#FFCD4B" fill-rule="evenodd" d="m14 18.714-1.632 2.436-.413-2.903-2.527 1.486.887-2.794-2.922.243 2.012-2.133L6.667 14l2.738-1.049-2.012-2.133 2.922.243-.887-2.794 2.527 1.486.413-2.902L14 9.286l1.632-2.435.413 2.902 2.527-1.486-.887 2.794 2.922-.243-2.011 2.133L21.333 14l-2.737 1.049 2.011 2.133-2.922-.243.887 2.794-2.527-1.486-.413 2.903zM18.667 14a4.667 4.667 0 1 1-9.334 0 4.667 4.667 0 0 1 9.334 0" clip-rule="evenodd" mask="url(#Kazakhstan_svg__b)"/></g><g mask="url(#Kazakhstan_svg__a)"><mask id="Kazakhstan_svg__c" fill="#fff"><path fill-rule="evenodd" d="M1.667 5.333h.666c.184 0 .334.15.334.334v.666c0 .184-.15.334-.334.334h-.666a.333.333 0 0 1-.334-.334v-.666c0-.184.15-.334.334-.334M3 6.667h.667C3.85 6.667 4 6.816 4 7v.667C4 7.85 3.85 8 3.667 8H3a.333.333 0 0 1-.333-.333V7c0-.184.149-.333.333-.333M1.667 8h.666c.184 0 .334.15.334.333V9c0 .184-.15.333-.334.333h-.666A.333.333 0 0 1 1.333 9v-.667c0-.184.15-.333.334-.333M3 9.333h.667c.184 0 .333.15.333.334v.666c0 .184-.15.334-.333.334H3a.333.333 0 0 1-.333-.334v-.666c0-.184.149-.334.333-.334m-1.333 1.334h.666c.184 0 .334.149.334.333v.667c0 .184-.15.333-.334.333h-.666a.333.333 0 0 1-.334-.333V11c0-.184.15-.333.334-.333M3 12h.667c.184 0 .333.15.333.333V13c0 .184-.15.333-.333.333H3A.333.333 0 0 1 2.667 13v-.667c0-.184.149-.333.333-.333m-1.333 1.333h.666c.184 0 .334.15.334.334v.666c0 .184-.15.334-.334.334h-.666a.333.333 0 0 1-.334-.334v-.666c0-.184.15-.334.334-.334M3 14.667h.667c.184 0 .333.149.333.333v.667c0 .184-.15.333-.333.333H3a.333.333 0 0 1-.333-.333V15c0-.184.149-.333.333-.333M1.667 16h.666c.184 0 .334.15.334.333V17c0 .184-.15.333-.334.333h-.666A.333.333 0 0 1 1.333 17v-.667c0-.184.15-.333.334-.333M3 17.333h.667c.184 0 .333.15.333.334v.666c0 .184-.15.334-.333.334H3a.333.333 0 0 1-.333-.334v-.666c0-.184.149-.334.333-.334m-1.333 1.334h.666c.184 0 .334.149.334.333v.667c0 .184-.15.333-.334.333h-.666a.333.333 0 0 1-.334-.333V19c0-.184.15-.333.334-.333M3 20h.667c.184 0 .333.15.333.333V21c0 .184-.15.333-.333.333H3A.333.333 0 0 1 2.667 21v-.667c0-.184.149-.333.333-.333m-1.333 1.333h.666c.184 0 .334.15.334.334v.666c0 .184-.15.334-.334.334h-.666a.333.333 0 0 1-.334-.334v-.666c0-.184.15-.334.334-.334" clip-rule="evenodd"/></mask><path fill="#FFCD4B" fill-rule="evenodd" d="M1.667 5.333h.666c.184 0 .334.15.334.334v.666c0 .184-.15.334-.334.334h-.666a.333.333 0 0 1-.334-.334v-.666c0-.184.15-.334.334-.334M3 6.667h.667C3.85 6.667 4 6.816 4 7v.667C4 7.85 3.85 8 3.667 8H3a.333.333 0 0 1-.333-.333V7c0-.184.149-.333.333-.333M1.667 8h.666c.184 0 .334.15.334.333V9c0 .184-.15.333-.334.333h-.666A.333.333 0 0 1 1.333 9v-.667c0-.184.15-.333.334-.333M3 9.333h.667c.184 0 .333.15.333.334v.666c0 .184-.15.334-.333.334H3a.333.333 0 0 1-.333-.334v-.666c0-.184.149-.334.333-.334m-1.333 1.334h.666c.184 0 .334.149.334.333v.667c0 .184-.15.333-.334.333h-.666a.333.333 0 0 1-.334-.333V11c0-.184.15-.333.334-.333M3 12h.667c.184 0 .333.15.333.333V13c0 .184-.15.333-.333.333H3A.333.333 0 0 1 2.667 13v-.667c0-.184.149-.333.333-.333m-1.333 1.333h.666c.184 0 .334.15.334.334v.666c0 .184-.15.334-.334.334h-.666a.333.333 0 0 1-.334-.334v-.666c0-.184.15-.334.334-.334M3 14.667h.667c.184 0 .333.149.333.333v.667c0 .184-.15.333-.333.333H3a.333.333 0 0 1-.333-.333V15c0-.184.149-.333.333-.333M1.667 16h.666c.184 0 .334.15.334.333V17c0 .184-.15.333-.334.333h-.666A.333.333 0 0 1 1.333 17v-.667c0-.184.15-.333.334-.333M3 17.333h.667c.184 0 .333.15.333.334v.666c0 .184-.15.334-.333.334H3a.333.333 0 0 1-.333-.334v-.666c0-.184.149-.334.333-.334m-1.333 1.334h.666c.184 0 .334.149.334.333v.667c0 .184-.15.333-.334.333h-.666a.333.333 0 0 1-.334-.333V19c0-.184.15-.333.334-.333M3 20h.667c.184 0 .333.15.333.333V21c0 .184-.15.333-.333.333H3A.333.333 0 0 1 2.667 21v-.667c0-.184.149-.333.333-.333m-1.333 1.333h.666c.184 0 .334.15.334.334v.666c0 .184-.15.334-.334.334h-.666a.333.333 0 0 1-.334-.334v-.666c0-.184.15-.334.334-.334" clip-rule="evenodd" mask="url(#Kazakhstan_svg__c)"/></g></svg>