<svg xmlns="http://www.w3.org/2000/svg" fill="none" viewBox="0 0 28 28" focusable="false"><rect width="28" height="20" y="4" fill="#fff" rx="3"/><mask id="Kenya_svg__a" width="28" height="20" x="0" y="4" maskUnits="userSpaceOnUse" style="mask-type:luminance"><rect width="28" height="20" y="4" fill="#fff" rx="3"/></mask><g mask="url(#Kenya_svg__a)"><path fill="#262626" fill-rule="evenodd" d="M0 9.333h28V4H0v5.333" clip-rule="evenodd"/><path fill="#018301" fill-rule="evenodd" d="M0 24h28v-5.333H0z" clip-rule="evenodd"/><path fill="#fff" fill-rule="evenodd" d="M0 18.667h28V9.333H0v9.334" clip-rule="evenodd"/><path fill="#DC0808" fill-rule="evenodd" d="M0 17.333h28v-6.666H0v6.666" clip-rule="evenodd"/><path fill="#BC0000" fill-rule="evenodd" d="M14 20.667c1.333 0 3.333-2.617 3.333-6.667s-2-6.667-3.333-6.667c-1.333 0-3.333 2.617-3.333 6.667s2 6.667 3.333 6.667" clip-rule="evenodd"/><mask id="Kenya_svg__b" width="8" height="14" x="10" y="7" maskUnits="userSpaceOnUse" style="mask-type:luminance"><path fill="#fff" fill-rule="evenodd" d="M14 20.667c1.333 0 3.333-2.617 3.333-6.667s-2-6.667-3.333-6.667c-1.333 0-3.333 2.617-3.333 6.667s2 6.667 3.333 6.667" clip-rule="evenodd"/></mask><g mask="url(#Kenya_svg__b)"><path fill="#262626" fill-rule="evenodd" d="M8.667 21.333C10.507 21.333 12 18.05 12 14c0-4.05-1.492-7.333-3.333-7.333-1.841 0-3.334 3.283-3.334 7.333 0 4.05 1.493 7.333 3.334 7.333M19.333 21.333c1.841 0 3.334-3.283 3.334-7.333 0-4.05-1.493-7.333-3.334-7.333C17.493 6.667 16 9.95 16 14c0 4.05 1.492 7.333 3.333 7.333" clip-rule="evenodd"/><g filter="url(#Kenya_svg__c)"><path fill="url(#Kenya_svg__d)" fill-rule="evenodd" d="M14 12c.368 0 .667-1.194.667-2.667 0-1.472-.299-2.666-.667-2.666-.368 0-.667 1.194-.667 2.666 0 1.473.299 2.667.667 2.667m0 4c.368 0 .667-.895.667-2s-.299-2-.667-2c-.368 0-.667.895-.667 2s.299 2 .667 2m0 0c-.368 0-.667 1.194-.667 2.667 0 1.472.299 2.666.667 2.666.368 0 .667-1.194.667-2.666 0-1.473-.299-2.667-.667-2.667" clip-rule="evenodd"/></g></g></g><defs><linearGradient id="Kenya_svg__d" x1="13.333" x2="13.333" y1="6.667" y2="21.333" gradientUnits="userSpaceOnUse"><stop stop-color="#fff"/><stop offset="1" stop-color="#F0F0F0"/></linearGradient><filter id="Kenya_svg__c" width="1.333" height="15.667" x="13.333" y="6.667" color-interpolation-filters="sRGB" filterUnits="userSpaceOnUse"><feFlood flood-opacity="0" result="BackgroundImageFix"/><feColorMatrix in="SourceAlpha" result="hardAlpha" values="0 0 0 0 0 0 0 0 0 0 0 0 0 0 0 0 0 0 127 0"/><feOffset dy="1"/><feColorMatrix values="0 0 0 0 0 0 0 0 0 0 0 0 0 0 0 0 0 0 0.06 0"/><feBlend in2="BackgroundImageFix" result="effect1_dropShadow_17_5173"/><feBlend in="SourceGraphic" in2="effect1_dropShadow_17_5173" result="shape"/></filter></defs></svg>