<svg xmlns="http://www.w3.org/2000/svg" width="28" height="28" fill="none"><rect width="28" height="20" y="4" fill="#fff" rx="3"/><mask id="a" width="28" height="20" x="0" y="4" maskUnits="userSpaceOnUse" style="mask-type:luminance"><rect width="28" height="20" y="4" fill="#fff" rx="3"/></mask><g fill-rule="evenodd" clip-rule="evenodd" mask="url(#a)"><path fill="#1461B6" d="M0 8h28V4H0v4ZM0 24h28v-4H0v4Z"/><path fill="#fff" d="M0 20h28V8H0v12Z"/><path fill="#F53846" d="M0 18.667h28V9.333H0v9.334Z"/><path fill="#fff" d="M13.333 14A3.333 3.333 0 1 1 10 10.667l-.786 2.25-2.384.053 1.898 1.443-.687 2.284L10 15.337l1.96 1.36-.688-2.284 1.898-1.443-2.384-.052L10 10.667A3.333 3.333 0 0 1 13.333 14Z"/></g></svg>