<svg xmlns="http://www.w3.org/2000/svg" fill="none" viewBox="0 0 28 28" focusable="false"><path fill="none" d="M0 0h28v28H0z"/><rect width="28" height="20" y="4" fill="#fff" rx="3"/><rect width="27.5" height="19.5" x=".25" y="4.25" stroke="#d6d8dd" stroke-width=".5" rx="3"/><mask id="Korea_South_svg__a" width="28" height="20" x="0" y="4" mask-type="alpha" maskUnits="userSpaceOnUse"><rect width="28" height="20" y="4" fill="#fff" rx="3"/><rect width="27.5" height="19.5" x=".25" y="4.25" stroke="#f5f5f5" stroke-width=".5" rx="3"/></mask><g mask="url(#Korea_South_svg__a)"><path fill="#e01b41" fill-rule="evenodd" d="M14 18.66a4.665 4.665 0 1 0-.01-9.33 4.665 4.665 0 0 0 .01 9.33"/><path d="M18.66 14c0-2.58-2.09-4.67-4.66-4.67-2.58 0-4.67 2.09-4.67 4.67a4.665 4.665 0 0 0 9.33 0"/><mask id="Korea_South_svg__b" width="9.333" height="9.333" x="9.333" y="9.333" mask-type="alpha" maskUnits="userSpaceOnUse"><path fill="#e01b41" fill-rule="evenodd" d="M14 18.66a4.665 4.665 0 1 0-.01-9.33 4.665 4.665 0 0 0 .01 9.33"/><path stroke="#979797" stroke-opacity="0" stroke-width="0" d="M18.66 14c0-2.58-2.09-4.67-4.66-4.67-2.58 0-4.67 2.09-4.67 4.67a4.665 4.665 0 0 0 9.33 0Z"/></mask><g mask="url(#Korea_South_svg__b)"><path fill="#0e4b9c" fill-rule="evenodd" d="M9.33 14.66c1.33 1.25 3.33 2 4.67 0 1.33-2 4-2 4.66 0 .67 2 0 4 0 4H9.33s-1.33-5.25 0-4"/><path d="M14 14.66c1.33-2 4-2 4.66 0 .67 2 0 4 0 4H9.33s-1.33-5.25 0-4 3.33 2 4.67 0"/></g></g><g mask="url(#Korea_South_svg__a)" opacity=".75"><mask id="Korea_South_svg__c" fill="#fff"><path fill-rule="evenodd" d="m20.794 7.768.578-.333a.333.333 0 0 1 .455.122l1.666 2.886a.333.333 0 0 1-.122.455l-.577.334a.333.333 0 0 1-.455-.122l-1.667-2.887a.33.33 0 0 1 .122-.455M6.628 7.435l.578.333a.333.333 0 0 1 .122.455L5.66 11.11a.333.333 0 0 1-.455.122l-.578-.333a.333.333 0 0 1-.122-.456l1.667-2.886a.333.333 0 0 1 .455-.122m1.732 1 .578.333a.333.333 0 0 1 .122.455L7.393 12.11a.333.333 0 0 1-.455.122L6.36 11.9a.333.333 0 0 1-.122-.456l1.667-2.886a.333.333 0 0 1 .455-.122m10.702.333.578-.333a.333.333 0 0 1 .455.122l1.667 2.886a.33.33 0 0 1-.122.456l-.578.333a.333.333 0 0 1-.455-.122L18.94 9.223a.333.333 0 0 1 .122-.455M6.36 16.1l.578-.333a.333.333 0 0 1 .455.122l1.667 2.887a.33.33 0 0 1-.122.455l-.578.333a.333.333 0 0 1-.455-.122l-1.667-2.886a.33.33 0 0 1 .122-.456m14.702-.333.578.333a.333.333 0 0 1 .122.456l-1.667 2.886a.333.333 0 0 1-.455.122l-.578-.333a.333.333 0 0 1-.122-.455l1.667-2.887a.333.333 0 0 1 .455-.122M4.628 17.1l.578-.333a.333.333 0 0 1 .455.122l1.667 2.887a.33.33 0 0 1-.122.455l-.578.333a.333.333 0 0 1-.455-.122l-1.667-2.886a.33.33 0 0 1 .122-.456m18.166-.333.578.333a.333.333 0 0 1 .122.456l-1.667 2.886a.333.333 0 0 1-.456.122l-.577-.333a.333.333 0 0 1-.122-.455l1.667-2.887a.333.333 0 0 1 .455-.122" clip-rule="evenodd"/></mask><path fill="#262626" fill-rule="evenodd" d="m20.794 7.768.578-.333a.333.333 0 0 1 .455.122l1.666 2.886a.333.333 0 0 1-.122.455l-.577.334a.333.333 0 0 1-.455-.122l-1.667-2.887a.33.33 0 0 1 .122-.455M6.628 7.435l.578.333a.333.333 0 0 1 .122.455L5.66 11.11a.333.333 0 0 1-.455.122l-.578-.333a.333.333 0 0 1-.122-.456l1.667-2.886a.333.333 0 0 1 .455-.122m1.732 1 .578.333a.333.333 0 0 1 .122.455L7.393 12.11a.333.333 0 0 1-.455.122L6.36 11.9a.333.333 0 0 1-.122-.456l1.667-2.886a.333.333 0 0 1 .455-.122m10.702.333.578-.333a.333.333 0 0 1 .455.122l1.667 2.886a.33.33 0 0 1-.122.456l-.578.333a.333.333 0 0 1-.455-.122L18.94 9.223a.333.333 0 0 1 .122-.455M6.36 16.1l.578-.333a.333.333 0 0 1 .455.122l1.667 2.887a.33.33 0 0 1-.122.455l-.578.333a.333.333 0 0 1-.455-.122l-1.667-2.886a.33.33 0 0 1 .122-.456m14.702-.333.578.333a.333.333 0 0 1 .122.456l-1.667 2.886a.333.333 0 0 1-.455.122l-.578-.333a.333.333 0 0 1-.122-.455l1.667-2.887a.333.333 0 0 1 .455-.122M4.628 17.1l.578-.333a.333.333 0 0 1 .455.122l1.667 2.887a.33.33 0 0 1-.122.455l-.578.333a.333.333 0 0 1-.455-.122l-1.667-2.886a.33.33 0 0 1 .122-.456m18.166-.333.578.333a.333.333 0 0 1 .122.456l-1.667 2.886a.333.333 0 0 1-.456.122l-.577-.333a.333.333 0 0 1-.122-.455l1.667-2.887a.333.333 0 0 1 .455-.122" clip-rule="evenodd" mask="url(#Korea_South_svg__c)"/></g></svg>