<svg xmlns="http://www.w3.org/2000/svg" fill="none" viewBox="0 0 28 28" focusable="false"><rect width="27.5" height="19.5" x=".25" y="4.25" fill="#fff" stroke="#D6D8DD" stroke-width=".5" rx="2.75"/><mask id="Korea_South_svg__a" width="28" height="20" x="0" y="4" maskUnits="userSpaceOnUse" style="mask-type:luminance"><rect width="27.5" height="19.5" x=".25" y="4.25" fill="#fff" stroke="#fff" stroke-width=".5" rx="2.75"/></mask><g mask="url(#Korea_South_svg__a)"><path fill="#E01B41" fill-rule="evenodd" d="M14 18.667a4.667 4.667 0 1 0 0-9.334 4.667 4.667 0 0 0 0 9.334Z" clip-rule="evenodd"/><mask id="Korea_South_svg__b" width="10" height="10" x="9" y="9" maskUnits="userSpaceOnUse" style="mask-type:luminance"><path fill="#fff" fill-rule="evenodd" d="M14 18.667a4.667 4.667 0 1 0 0-9.334 4.667 4.667 0 0 0 0 9.334Z" clip-rule="evenodd"/></mask><g mask="url(#Korea_South_svg__b)"><path fill="#0E4B9C" fill-rule="evenodd" d="M9.333 14.667c1.334 1.25 3.334 2 4.667 0 1.333-2 4-2 4.667 0 .666 2 0 4 0 4H9.333s-1.333-5.25 0-4Z" clip-rule="evenodd"/></g><path fill="#262626" fill-rule="evenodd" d="M6.173 7.557a.333.333 0 0 1 .455-.122l.578.333c.16.092.214.296.122.455L5.66 11.11a.333.333 0 0 1-.455.122l-.578-.333a.333.333 0 0 1-.122-.456l1.667-2.886Zm14.621.21a.333.333 0 0 0-.122.456l1.667 2.887c.092.16.296.214.455.122l.578-.333a.333.333 0 0 0 .122-.456l-1.667-2.886a.333.333 0 0 0-.456-.122l-.577.333Zm-1.732 1a.333.333 0 0 0-.122.456l1.667 2.887c.092.16.296.214.455.122l.578-.333a.333.333 0 0 0 .122-.456l-1.667-2.886a.333.333 0 0 0-.455-.122l-.578.333Zm-14.556 8.79a.333.333 0 0 1 .122-.456l.578-.333a.333.333 0 0 1 .455.122l1.667 2.887a.333.333 0 0 1-.122.455l-.578.333a.333.333 0 0 1-.455-.122l-1.667-2.886ZM6.36 16.1a.333.333 0 0 0-.122.456l1.667 2.886c.092.16.296.214.455.122l.578-.333a.333.333 0 0 0 .122-.455L7.393 15.89a.333.333 0 0 0-.455-.122l-.578.333Zm14.247-.211a.333.333 0 0 1 .455-.122l.578.333c.159.092.214.296.122.456l-1.667 2.886a.333.333 0 0 1-.455.122l-.578-.333a.333.333 0 0 1-.122-.455l1.667-2.887Zm2.187.878a.333.333 0 0 0-.455.122l-1.667 2.887a.333.333 0 0 0 .122.455l.578.333c.159.092.363.038.455-.122l1.667-2.886a.333.333 0 0 0-.122-.456l-.578-.333ZM8.36 8.435a.333.333 0 0 0-.455.122l-1.667 2.886a.333.333 0 0 0 .122.456l.578.333c.16.092.363.038.455-.122L9.06 9.223a.333.333 0 0 0-.122-.455l-.578-.333Z" clip-rule="evenodd" opacity=".75"/></g></svg>