<svg xmlns="http://www.w3.org/2000/svg" width="28" height="28" fill="none"><rect width="28" height="20" y="4" fill="#fff" rx="3"/><mask id="a" width="28" height="20" x="0" y="4" maskUnits="userSpaceOnUse" style="mask-type:luminance"><rect width="28" height="20" y="4" fill="#fff" rx="3"/></mask><g mask="url(#a)"><path fill="#F22A46" d="M0 4h28v20H0z"/><path fill="#FFF04D" fill-rule="evenodd" d="M14 17.333a3.333 3.333 0 1 0 0-6.666 3.333 3.333 0 0 0 0 6.666Z" clip-rule="evenodd"/><path fill="#FFF04D" fill-rule="evenodd" d="M12.368 21.15 14 18.713l1.632 2.436.413-2.903 2.527 1.486-.887-2.794 2.922.243-2.011-2.133L21.333 14l-2.737-1.049 2.011-2.133-2.922.243.887-2.794-2.527 1.486-.413-2.902L14 9.286l-1.632-2.435-.413 2.902-2.527-1.486.887 2.794-2.922-.243 2.012 2.133L6.667 14l2.738 1.049-2.012 2.133 2.922-.243-.887 2.794 2.527-1.486.413 2.902ZM18.667 14a4.667 4.667 0 1 1-9.334 0 4.667 4.667 0 0 1 9.334 0Z" clip-rule="evenodd"/></g></svg>