<svg xmlns="http://www.w3.org/2000/svg" fill="none" viewBox="0 0 28 28" focusable="false"><rect width="27.5" height="19.5" x=".25" y="4.25" fill="#fff" stroke="#d6d8dd" stroke-width=".5" rx="2.75"/><mask id="Lebanon_svg__a" width="28" height="20" x="0" y="4" maskUnits="userSpaceOnUse" style="mask-type:luminance"><rect width="27.5" height="19.5" x=".25" y="4.25" fill="#fff" stroke="#fff" stroke-width=".5" rx="2.75"/></mask><g fill-rule="evenodd" clip-rule="evenodd" mask="url(#Lebanon_svg__a)"><path fill="#f03340" d="M0 9.333h28V4H0zM0 24h28v-5.333H0z"/><path fill="#1fc065" d="M12.943 16.39a.55.55 0 0 0 0-.78l-.077-.077a.5.5 0 0 0-.473-.131l-.38.095c-.443.11-.718-.468-.352-.742l.342-.258a.276.276 0 0 0-.165-.497c-.292 0-.385-.393-.124-.524l.572-.286c.261-.13.168-.523-.123-.523a.276.276 0 0 1-.166-.498l1.603-1.202a.67.67 0 0 1 .8 0l1.603 1.202c.213.16.1.498-.165.498-.292 0-.385.393-.124.523l.572.286c.261.13.168.524-.123.524a.276.276 0 0 0-.166.498l.342.257c.366.274.09.852-.353.741l-.38-.094a.5.5 0 0 0-.472.13l-.077.078a.55.55 0 0 0 0 .78.552.552 0 0 1-.39.943h-1.334a.552.552 0 0 1-.39-.942"/></g></svg>