<svg xmlns="http://www.w3.org/2000/svg" fill="none" viewBox="0 0 28 28" focusable="false"><rect width="27.5" height="19.5" x=".25" y="4.25" fill="#fff" stroke="#D6D8DD" stroke-width=".5" rx="2.75"/><mask id="Lesotho_svg__a" width="28" height="20" x="0" y="4" maskUnits="userSpaceOnUse" style="mask-type:luminance"><rect width="27.5" height="19.5" x=".25" y="4.25" fill="#fff" stroke="#fff" stroke-width=".5" rx="2.75"/></mask><g mask="url(#Lesotho_svg__a)"><path fill="#0C33B8" fill-rule="evenodd" d="M0 10.667h28V4H0z" clip-rule="evenodd"/><path fill="#1DB158" fill-rule="evenodd" d="M0 24h28v-6.667H0z" clip-rule="evenodd"/><path fill="#262626" fill-rule="evenodd" d="m13.333 14 .034-.103c.203-.607 1.063-.607 1.265 0l.035.103 1.181 1.773c.088.132.07.306-.063.395-.293.197-.889.499-1.785.499-.896 0-1.492-.302-1.785-.5-.132-.088-.152-.262-.063-.394z" clip-rule="evenodd"/><path stroke="#262626" stroke-width=".667" d="M15 12.667a1 1 0 1 1-2 0 1 1 0 0 1 2 0Z"/></g></svg>