<svg xmlns="http://www.w3.org/2000/svg" fill="none" viewBox="0 0 28 28" focusable="false"><path fill="none" d="M0 0h28v28H0z"/><rect width="28" height="20" y="4" fill="#fff" rx="3"/><rect width="27.5" height="19.5" x=".25" y="4.25" stroke="#d6d8dd" stroke-width=".5" rx="3"/><mask id="Lesotho_svg__a" width="28" height="20" x="0" y="4" mask-type="alpha" maskUnits="userSpaceOnUse"><rect width="28" height="20" y="4" fill="#fff" rx="3"/><rect width="27.5" height="19.5" x=".25" y="4.25" stroke="#f5f5f5" stroke-width=".5" rx="3"/></mask><g mask="url(#Lesotho_svg__a)"><path fill="#0c33b8" fill-rule="evenodd" d="M0 10.66h28V4H0z"/><path d="M28 10.66V4H0v6.66z"/></g><g mask="url(#Lesotho_svg__a)"><path fill="#1db158" fill-rule="evenodd" d="M0 24h28v-6.67H0z"/><path d="M28 24v-6.67H0V24z"/></g><g mask="url(#Lesotho_svg__a)"><path fill="#262626" fill-rule="evenodd" d="m13.33 14 .03-.11a.67.67 0 0 1 1.27 0l.03.11 1.18 1.77c.09.13.07.3-.06.39-.29.2-.89.5-1.78.5-.9 0-1.5-.3-1.79-.5-.13-.09-.15-.26-.06-.39z"/><path d="M13.36 13.89a.67.67 0 0 1 1.27 0l.03.11 1.18 1.77c.09.13.07.3-.06.39-.29.2-.89.5-1.78.5-.9 0-1.5-.3-1.79-.5-.13-.09-.15-.26-.06-.39L13.33 14z"/></g><g mask="url(#Lesotho_svg__a)"><path fill="none" d="M14 14a1.336 1.336 0 1 0-1.34-1.34c0 .74.6 1.34 1.34 1.34"/><path fill="#262626" fill-rule="evenodd" d="M15.33 12.66c0 .74-.6 1.34-1.33 1.34-.74 0-1.34-.6-1.34-1.34a1.336 1.336 0 0 1 2.67 0m-.72-.25q.05.11.05.25t-.05.26-.14.21q-.1.1-.22.15t-.25.05q-.14 0-.26-.05t-.22-.15q-.09-.09-.14-.21t-.05-.26.05-.25q.05-.12.14-.22.1-.1.22-.15.12-.04.26-.04.13 0 .25.04.12.05.22.15.09.1.14.22"/></g></svg>