<svg xmlns="http://www.w3.org/2000/svg" fill="none" viewBox="0 0 28 28" focusable="false"><path fill="none" d="M0 0h28v28H0z"/><rect width="28" height="20" y="4" fill="#FFF" rx="3"/><rect width="27.5" height="19.5" x=".25" y="4.25" stroke="#D6D8DD" stroke-width=".5" rx="3"/><mask id="Liberia_svg__a" width="28" height="20" x="0" y="4" mask-type="alpha" maskUnits="userSpaceOnUse"><rect width="28" height="20" y="4" fill="#FFF" rx="3"/><rect width="27.5" height="19.5" x=".25" y="4.25" stroke="#F5F5F5" stroke-width=".5" rx="3"/></mask><g mask="url(#Liberia_svg__a)"><mask id="Liberia_svg__b" fill="#fff"><path fill-rule="evenodd" d="M28 4H13.333v2.667H28zm0 5.333H13.333V12H28zm-14.667 5.334H28v2.666H13.333zM28 20H0v2.667h28z" clip-rule="evenodd"/></mask><path fill="#E1244A" fill-rule="evenodd" d="M28 4H13.333v2.667H28zm0 5.333H13.333V12H28zm-14.667 5.334H28v2.666H13.333zM28 20H0v2.667h28z" clip-rule="evenodd" mask="url(#Liberia_svg__b)"/></g><g mask="url(#Liberia_svg__a)"><path fill="#0C3F8E" d="M0 4h13.333v13.333H0z"/><path d="M0 4h13.333v13.333H0z"/></g><g mask="url(#Liberia_svg__a)"><path fill="#FFF" fill-rule="evenodd" d="M6.66 12.22 4.31 13.9l.87-2.76-2.32-1.71 2.88-.03.92-2.74.92 2.74 2.89.03-2.32 1.71.86 2.76z"/><path d="m4.31 13.9.87-2.76-2.32-1.71 2.88-.03.92-2.74.92 2.74 2.89.03-2.32 1.71.86 2.76-2.35-1.68z"/></g></svg>