<svg xmlns="http://www.w3.org/2000/svg" fill="none" viewBox="0 0 28 28" focusable="false"><rect width="27.5" height="19.5" x=".25" y="4.25" fill="#fff" stroke="#D6D8DD" stroke-width=".5" rx="2.75"/><mask id="Liberia_svg__a" width="28" height="20" x="0" y="4" maskUnits="userSpaceOnUse" style="mask-type:luminance"><rect width="27.5" height="19.5" x=".25" y="4.25" fill="#fff" stroke="#fff" stroke-width=".5" rx="2.75"/></mask><g mask="url(#Liberia_svg__a)"><path fill="#E1244A" fill-rule="evenodd" d="M28 4H13.333v2.667H28V4Zm0 5.333H13.333V12H28V9.333Zm-14.667 5.334H28v2.666H13.333v-2.666ZM28 20H0v2.667h28V20Z" clip-rule="evenodd"/><path fill="#0C3F8E" d="M0 4h13.333v13.333H0z"/><path fill="#fff" fill-rule="evenodd" d="m6.667 12.227-2.352 1.676.868-2.754-2.32-1.718 2.887-.026.917-2.738.917 2.738 2.887.026-2.32 1.718.867 2.754-2.351-1.676Z" clip-rule="evenodd"/></g></svg>