<svg xmlns="http://www.w3.org/2000/svg" fill="none" viewBox="0 0 28 28" focusable="false"><defs><filter id="Liberia_svg__a"><feColorMatrix values="0 0 0 0 1 0 0 0 0 1 0 0 0 0 1 0 0 0 1 0"/></filter></defs><mask id="Liberia_svg__b" width="28" height="20" x="0" y="4" maskUnits="userSpaceOnUse"><g filter="url(#Liberia_svg__a)"><rect width="28" height="20" y="4" fill="#FFF" rx="3"/><rect width="27.5" height="19.5" x=".25" y="4.25" stroke="#F5F5F5" stroke-width=".5" rx="2.75"/></g></mask><path fill="none" d="M0 0H28V28H0z"/><rect width="28" height="20" y="4" fill="#FFF" rx="3"/><rect width="27.5" height="19.5" x=".25" y="4.25" stroke="#D6D8DD" stroke-width=".5" rx="2.75"/><g mask="url(#Liberia_svg__b)"><path fill="#E1244A" fill-rule="evenodd" d="M28 4L28 6.66667L13.3333 6.66667L13.3333 4L28 4ZM28 9.33333L28 12L13.3333 12L13.3333 9.33333L28 9.33333ZM28 14.6667L28 17.3333L13.3333 17.3333L13.3333 14.6667L28 14.6667ZM28 20L28 22.6667L0 22.6667L0 20L28 20Z"/><path d="M28 4L28 6.66667L13.3333 6.66667L13.3333 4L28 4ZM28 9.33333L28 12L13.3333 12L13.3333 9.33333L28 9.33333ZM28 14.6667L28 17.3333L13.3333 17.3333L13.3333 14.6667L28 14.6667ZM28 20L28 22.6667L0 22.6667L0 20L28 20Z"/><path fill="#0C3F8E" d="M0 4H13.333V17.333H0z"/><path d="M0 4H13.333V17.333H0z"/><path fill="#FFF" fill-rule="evenodd" d="M6.66663 12.2267L4.31549 13.9028L5.18298 11.1488L2.8624 9.43062L5.74968 9.40462L6.66663 6.66669L7.58357 9.40462L10.4709 9.43062L8.15027 11.1488L9.01777 13.9028L6.66663 12.2267Z"/><path d="M4.31549 13.9028L5.18298 11.1488L2.8624 9.43062L5.74968 9.40462L6.66663 6.66669L7.58357 9.40462L10.4709 9.43062L8.15027 11.1488L9.01777 13.9028L6.66663 12.2267L4.31549 13.9028Z"/></g></svg>