<svg xmlns="http://www.w3.org/2000/svg" fill="none" viewBox="0 0 28 28" focusable="false"><defs><filter id="Libya_svg__b" width="28" height="6.667" x="0" y="10.667" color-interpolation-filters="sRGB" filterUnits="userSpaceOnUse"><feFlood flood-opacity="0" result="BackgroundImageFix"/><feColorMatrix in="SourceAlpha" result="hardAlpha" values="0 0 0 0 0 0 0 0 0 0 0 0 0 0 0 0 0 0 127 0"/><feOffset/><feGaussianBlur/><feComposite in2="hardAlpha" k2="-1" k3="1" operator="out"/><feColorMatrix values="0 0 0 0 0 0 0 0 0 0 0 0 0 0 0 0 0 0 0.059 0"/><feBlend in2="BackgroundImageFix" result="effect_dropShadow_1"/><feBlend in="SourceGraphic" in2="effect_dropShadow_1" result="shape"/></filter><filter id="Libya_svg__c" width="28" height="6.667" x="0" y="17.333" color-interpolation-filters="sRGB" filterUnits="userSpaceOnUse"><feFlood flood-opacity="0" result="BackgroundImageFix"/><feColorMatrix in="SourceAlpha" result="hardAlpha" values="0 0 0 0 0 0 0 0 0 0 0 0 0 0 0 0 0 0 127 0"/><feOffset/><feGaussianBlur/><feComposite in2="hardAlpha" k2="-1" k3="1" operator="out"/><feColorMatrix values="0 0 0 0 0 0 0 0 0 0 0 0 0 0 0 0 0 0 0.059 0"/><feBlend in2="BackgroundImageFix" result="effect_dropShadow_1"/><feBlend in="SourceGraphic" in2="effect_dropShadow_1" result="shape"/></filter></defs><path fill="none" d="M0 0h28v28H0z"/><rect width="28" height="20" y="4" fill="#fff" rx="3"/><rect width="28" height="20" y="4" rx="3"/><mask id="Libya_svg__a" width="28" height="20" x="0" y="4" mask-type="alpha" maskUnits="userSpaceOnUse"><rect width="28" height="20" y="4" fill="#fff" rx="3"/><rect width="28" height="20" y="4" stroke="#979797" stroke-opacity="0" stroke-width="0" rx="3"/></mask><g mask="url(#Libya_svg__a)"><g filter="url(#Libya_svg__b)"><path fill="#262626" fill-rule="evenodd" d="M0 17.33h28v-6.67H0z"/></g><path d="M28 17.33v-6.67H0v6.67z"/></g><g mask="url(#Libya_svg__a)"><g filter="url(#Libya_svg__c)"><path fill="#34b857" fill-rule="evenodd" d="M0 24h28v-6.67H0z"/></g><path d="M28 24v-6.67H0V24z"/></g><g mask="url(#Libya_svg__a)"><path fill="#f41f34" fill-rule="evenodd" d="M0 10.66h28V4H0z"/><path d="M28 10.66V4H0v6.66z"/></g><g fill="#fff" mask="url(#Libya_svg__a)"><mask id="Libya_svg__d"><path fill-rule="evenodd" d="M15.112 15.663a2 2 0 1 1 0-3.326L15 12.333a1.667 1.667 0 1 0 .111 3.33M16 14a.667.667 0 1 1-1.333 0A.667.667 0 0 1 16 14" clip-rule="evenodd"/></mask><path fill-rule="evenodd" d="M15.112 15.663a2 2 0 1 1 0-3.326L15 12.333a1.667 1.667 0 1 0 .111 3.33M16 14a.667.667 0 1 1-1.333 0A.667.667 0 0 1 16 14" clip-rule="evenodd" mask="url(#Libya_svg__d)"/></g></svg>