<svg xmlns="http://www.w3.org/2000/svg" fill="none" viewBox="0 0 28 28" focusable="false"><defs><filter id="Libya_svg__a"><feColorMatrix values="0 0 0 0 1 0 0 0 0 1 0 0 0 0 1 0 0 0 1 0"/></filter><filter id="Libya_svg__c" width="28" height="6.667" x="0" y="10.667" color-interpolation-filters="sRGB" filterUnits="userSpaceOnUse"><feFlood flood-opacity="0" result="BackgroundImageFix"/><feOffset in="SourceAlpha"/><feColorMatrix values="0 0 0 0 0 0 0 0 0 0 0 0 0 0 0 0 0 0 0.06 0"/><feBlend in2="BackgroundImageFix" result="effect_dropShadow_1"/><feBlend in="SourceGraphic" in2="effect_dropShadow_1" result="shape"/></filter><filter id="Libya_svg__d" width="28" height="6.667" x="0" y="17.333" color-interpolation-filters="sRGB" filterUnits="userSpaceOnUse"><feFlood flood-opacity="0" result="BackgroundImageFix"/><feOffset in="SourceAlpha"/><feColorMatrix values="0 0 0 0 0 0 0 0 0 0 0 0 0 0 0 0 0 0 0.06 0"/><feBlend in2="BackgroundImageFix" result="effect_dropShadow_1"/><feBlend in="SourceGraphic" in2="effect_dropShadow_1" result="shape"/></filter></defs><mask id="Libya_svg__b" width="28" height="20" x="0" y="4" maskUnits="userSpaceOnUse"><g filter="url(#Libya_svg__a)"><rect width="28" height="20" y="4" fill="#FFF" rx="3"/><rect width="28" height="20" y="4" stroke="#969696" stroke-opacity="0" stroke-width="0" rx="3"/></g></mask><path fill="none" d="M0 0H28V28H0z"/><rect width="28" height="20" y="4" fill="#FFF" rx="3"/><rect width="28" height="20" y="4" rx="3"/><g mask="url(#Libya_svg__b)"><g filter="url(#Libya_svg__c)"><path fill="#262626" fill-rule="evenodd" d="M0 17.3334L28 17.3334L28 10.6667L0 10.6667L0 17.3334Z"/><path d="M28 17.3334L28 10.6667L0 10.6667L0 17.3334L28 17.3334Z"/></g><g filter="url(#Libya_svg__d)"><path fill="#34B857" fill-rule="evenodd" d="M0 24L28 24L28 17.3333L0 17.3333L0 24Z"/><path d="M28 24L28 17.3333L0 17.3333L0 24L28 24Z"/></g><path fill="#F41F34" fill-rule="evenodd" d="M0 10.6667L28 10.6667L28 4L0 4L0 10.6667Z"/><path d="M28 10.6667L28 4L0 4L0 10.6667L28 10.6667Z"/><path fill="#FFF" fill-rule="evenodd" d="M14 16C14.4113 16 14.7936 15.8759 15.1114 15.663C15.0746 15.6654 15.0374 15.6667 15 15.6667C14.0795 15.6667 13.3333 14.9205 13.3333 14C13.3333 13.0795 14.0795 12.3333 15 12.3333C15.0374 12.3333 15.0746 12.3346 15.1114 12.337C14.7936 12.1241 14.4113 12 14 12C12.8954 12 12 12.8954 12 14C12 15.1046 12.8954 16 14 16ZM16 14C16 14.3682 15.7015 14.6667 15.3333 14.6667C14.9651 14.6667 14.6667 14.3682 14.6667 14C14.6667 13.6318 14.9651 13.3333 15.3333 13.3333C15.7015 13.3333 16 13.6318 16 14Z"/><path d="M14 16C14.4113 16 14.7936 15.8759 15.1114 15.663C15.0746 15.6654 15.0374 15.6667 15 15.6667C14.0795 15.6667 13.3333 14.9205 13.3333 14C13.3333 13.0795 14.0795 12.3333 15 12.3333C15.0374 12.3333 15.0746 12.3346 15.1114 12.337C14.7936 12.1241 14.4113 12 14 12C12.8954 12 12 12.8954 12 14C12 15.1046 12.8954 16 14 16ZM16 14C16 14.3682 15.7015 14.6667 15.3333 14.6667C14.9651 14.6667 14.6667 14.3682 14.6667 14C14.6667 13.6318 14.9651 13.3333 15.3333 13.3333C15.7015 13.3333 16 13.6318 16 14Z"/></g></svg>