<svg xmlns="http://www.w3.org/2000/svg" fill="none" viewBox="0 0 28 28" focusable="false"><path fill="none" d="M0 0h28v28H0z"/><rect width="28" height="20" y="4" fill="#FFF" rx="3"/><rect width="28" height="20" y="4" rx="3"/><mask id="Macao_svg__a" width="28" height="20" x="0" y="4" mask-type="alpha" maskUnits="userSpaceOnUse"><rect width="28" height="20" y="4" fill="#FFF" rx="3"/><rect width="28" height="20" y="4" stroke="#979797" stroke-opacity="0" stroke-width="0" rx="3"/></mask><g mask="url(#Macao_svg__a)"><path fill="#079D7B" fill-rule="evenodd" d="M0 24h28V4H0z"/><path d="M28 24V4H0v20z"/></g><g mask="url(#Macao_svg__a)"><mask id="Macao_svg__b" fill="#fff"><path fill-rule="evenodd" d="M15.824 13.511c.04-.27.061-.552.061-.844 0-1.841-.844-3.334-1.885-3.334s-1.885 1.493-1.885 3.334c0 .293.021.578.062.849a8.927 8.927 0 0 0-.276-.08c-1.778-.476-3.366-.318-3.545.352-.161.6.863 1.41 2.357 1.915.266-.796 1.636-1.036 3.287-1.036 1.649 0 3.018.24 3.286 1.033 1.515-.504 2.558-1.321 2.395-1.927-.18-.67-1.767-.828-3.545-.351-.106.028-.21.058-.312.09m.882 2.36c-.21.006-.466.024-.757.044-.548.038-1.221.085-1.949.085s-1.4-.047-1.949-.085c-.303-.02-.567-.039-.782-.045.19.05.38.094.564.13H8.667c.158.475.37.922.63 1.333h9.406c.26-.411.472-.858.63-1.333h-3.21c.191-.036.386-.079.583-.13m.849 2.796A5.436 5.436 0 0 1 14 20c-1.347 0-2.584-.5-3.555-1.333z" clip-rule="evenodd"/></mask><path fill="#FFF" fill-rule="evenodd" d="M15.824 13.511c.04-.27.061-.552.061-.844 0-1.841-.844-3.334-1.885-3.334s-1.885 1.493-1.885 3.334c0 .293.021.578.062.849a8.927 8.927 0 0 0-.276-.08c-1.778-.476-3.366-.318-3.545.352-.161.6.863 1.41 2.357 1.915.266-.796 1.636-1.036 3.287-1.036 1.649 0 3.018.24 3.286 1.033 1.515-.504 2.558-1.321 2.395-1.927-.18-.67-1.767-.828-3.545-.351-.106.028-.21.058-.312.09m.882 2.36c-.21.006-.466.024-.757.044-.548.038-1.221.085-1.949.085s-1.4-.047-1.949-.085c-.303-.02-.567-.039-.782-.045.19.05.38.094.564.13H8.667c.158.475.37.922.63 1.333h9.406c.26-.411.472-.858.63-1.333h-3.21c.191-.036.386-.079.583-.13m.849 2.796A5.436 5.436 0 0 1 14 20c-1.347 0-2.584-.5-3.555-1.333z" clip-rule="evenodd" mask="url(#Macao_svg__b)"/><mask id="Macao_svg__c" fill="#fff"><path fill-rule="evenodd" d="M14 8a.667.667 0 1 0 0-1.333A.667.667 0 0 0 14 8m-2.667.667a.667.667 0 1 1-1.333 0 .667.667 0 0 1 1.333 0m6 .666a.667.667 0 1 0 0-1.333.667.667 0 0 0 0 1.333m-8.666 2a.667.667 0 1 0 0-1.333.667.667 0 0 0 0 1.333M20 10.667a.667.667 0 1 1-1.333 0 .667.667 0 0 1 1.333 0" clip-rule="evenodd"/></mask><path fill="#FCD117" fill-rule="evenodd" d="M14 8a.667.667 0 1 0 0-1.333A.667.667 0 0 0 14 8m-2.667.667a.667.667 0 1 1-1.333 0 .667.667 0 0 1 1.333 0m6 .666a.667.667 0 1 0 0-1.333.667.667 0 0 0 0 1.333m-8.666 2a.667.667 0 1 0 0-1.333.667.667 0 0 0 0 1.333M20 10.667a.667.667 0 1 1-1.333 0 .667.667 0 0 1 1.333 0" clip-rule="evenodd" mask="url(#Macao_svg__c)"/></g></svg>