<svg xmlns="http://www.w3.org/2000/svg" fill="none" viewBox="0 0 28 28" focusable="false"><rect width="28" height="20" y="4" fill="#fff" rx="3"/><mask id="Macao_svg__a" width="28" height="20" x="0" y="4" maskUnits="userSpaceOnUse" style="mask-type:luminance"><rect width="28" height="20" y="4" fill="#fff" rx="3"/></mask><g fill-rule="evenodd" clip-rule="evenodd" mask="url(#Macao_svg__a)"><path fill="#079D7B" d="M0 24h28V4H0v20Z"/><path fill="#fff" d="M15.885 12.667c0 .292-.021.575-.061.844.102-.031.206-.061.312-.09 1.779-.476 3.366-.319 3.545.352.163.606-.88 1.423-2.395 1.927-.268-.794-1.637-1.033-3.286-1.033-1.65 0-3.021.24-3.287 1.035-1.494-.504-2.518-1.313-2.357-1.914.18-.67 1.767-.828 3.545-.351.093.025.185.051.276.079a5.796 5.796 0 0 1-.062-.85c0-1.84.844-3.333 1.885-3.333s1.885 1.493 1.885 3.334ZM10.667 16h1.166a8.758 8.758 0 0 1-.564-.13c.215.006.48.024.782.045.548.038 1.221.085 1.949.085s1.4-.047 1.949-.085c.291-.02.547-.037.757-.044-.197.05-.392.093-.582.129h3.21a6.127 6.127 0 0 1-.631 1.333H9.297A6.128 6.128 0 0 1 8.667 16h2ZM14 20c1.347 0 2.584-.5 3.555-1.333h-7.11A5.435 5.435 0 0 0 14 20Z"/><path fill="#FCD117" d="M14 8a.667.667 0 1 0 0-1.333A.667.667 0 0 0 14 8Zm-5.333 3.333a.667.667 0 1 0 0-1.333.667.667 0 0 0 0 1.333ZM20 10.667a.667.667 0 1 1-1.333 0 .667.667 0 0 1 1.333 0Zm-2.667-1.334a.667.667 0 1 0 0-1.333.667.667 0 0 0 0 1.333Zm-6-.666a.667.667 0 1 1-1.333 0 .667.667 0 0 1 1.333 0Z"/></g></svg>