<svg xmlns="http://www.w3.org/2000/svg" fill="none" viewBox="0 0 28 28" focusable="false"><path fill="none" d="M0 0h28v28H0z"/><rect width="28" height="20" y="4" fill="#FFF" rx="3"/><rect width="28" height="20" y="4" rx="3"/><mask id="Malawi_svg__a" width="28" height="20" x="0" y="4" mask-type="alpha" maskUnits="userSpaceOnUse"><rect width="28" height="20" y="4" fill="#FFF" rx="3"/><rect width="28" height="20" y="4" stroke="#979797" stroke-opacity="0" stroke-width="0" rx="3"/></mask><g mask="url(#Malawi_svg__a)"><path fill="#262626" fill-rule="evenodd" d="M0 10.66h28V4H0z"/><path d="M28 10.66V4H0v6.66z"/></g><g mask="url(#Malawi_svg__a)"><path fill="#E42038" fill-rule="evenodd" d="M14 16c2.57 0 4.66-2.09 4.66-4.67S16.57 6.66 14 6.66c-2.58 0-4.67 2.09-4.67 4.67S11.42 16 14 16"/><path d="M18.66 11.33c0-2.58-2.09-4.67-4.66-4.67-2.58 0-4.67 2.09-4.67 4.67S11.42 16 14 16c2.57 0 4.66-2.09 4.66-4.67"/></g><g mask="url(#Malawi_svg__a)"><path fill="#E42038" fill-rule="evenodd" d="M0 17.33h28v-6.67H0z"/><path d="M28 17.33v-6.67H0v6.67z"/></g><g mask="url(#Malawi_svg__a)"><path fill="#47B849" fill-rule="evenodd" d="M0 24h28v-6.67H0z"/><path d="M28 24v-6.67H0V24z"/></g></svg>