<svg xmlns="http://www.w3.org/2000/svg" fill="none" viewBox="0 0 28 28" focusable="false"><defs><filter id="Malaysia_svg__a"><feColorMatrix values="0 0 0 0 1 0 0 0 0 1 0 0 0 0 1 0 0 0 1 0"/></filter></defs><mask id="Malaysia_svg__b" width="28" height="20" x="0" y="4" maskUnits="userSpaceOnUse"><g filter="url(#Malaysia_svg__a)"><rect width="28" height="20" y="4" fill="#FFF" rx="3"/><rect width="28" height="20" y="4" stroke="#969696" stroke-opacity="0" stroke-width="0" rx="3"/></g></mask><path fill="none" d="M0 0H28V28H0z"/><rect width="28" height="20" y="4" fill="#FFF" rx="3"/><rect width="28" height="20" y="4" rx="3"/><g mask="url(#Malaysia_svg__b)"><path fill="#E1244A" fill-rule="evenodd" d="M28 5.33333L28 4L13.3333 4L13.3333 5.33333L28 5.33333ZM28 8L28 6.66667L13.3333 6.66667L13.3333 8L28 8ZM28 10.6667L28 9.33333L13.3333 9.33333L13.3333 10.6667L28 10.6667ZM28 13.3333L28 12L13.3333 12L13.3333 13.3333L28 13.3333ZM28 16L28 14.6667L0 14.6667L0 16L28 16ZM28 18.6667L28 17.3333L0 17.3333L0 18.6667L28 18.6667ZM28 21.3333L28 20L0 20L0 21.3333L28 21.3333ZM28 24L28 22.6667L0 22.6667L0 24L28 24Z"/><path d="M28 5.33333L28 4L13.3333 4L13.3333 5.33333L28 5.33333ZM28 8L28 6.66667L13.3333 6.66667L13.3333 8L28 8ZM28 10.6667L28 9.33333L13.3333 9.33333L13.3333 10.6667L28 10.6667ZM28 13.3333L28 12L13.3333 12L13.3333 13.3333L28 13.3333ZM28 16L28 14.6667L0 14.6667L0 16L28 16ZM28 18.6667L28 17.3333L0 17.3333L0 18.6667L28 18.6667ZM28 21.3333L28 20L0 20L0 21.3333L28 21.3333ZM28 24L28 22.6667L0 22.6667L0 24L28 24Z"/><path fill="#0C3F8E" d="M0 4H16V14.667H0z"/><path d="M0 4H16V14.667H0z"/><path fill="#FFD34F" fill-rule="evenodd" d="M6.66669 13.3333C7.6118 13.3333 8.48035 13.0055 9.16487 12.4575C8.80226 12.5927 8.40977 12.6666 8.00002 12.6666C6.15907 12.6666 4.66669 11.1743 4.66669 9.33331C4.66669 7.49236 6.15907 5.99998 8.00002 5.99998C8.40977 5.99998 8.80226 6.07391 9.16487 6.20917C8.48035 5.66109 7.6118 5.33331 6.66669 5.33331C4.45755 5.33331 2.66669 7.12417 2.66669 9.33331C2.66669 11.5425 4.45755 13.3333 6.66669 13.3333ZM9.50966 11.7359L10.6667 10.4266L11.8237 11.7359L11.5215 10.015L13.2665 9.9267L11.7326 9.09002L12.7516 7.67067L11.1411 8.34825L10.6667 6.66665L10.1923 8.34825L8.5818 7.67067L9.60077 9.09002L8.06688 9.9267L9.81188 10.015L9.50966 11.7359Z"/><path d="M6.66669 13.3333C7.6118 13.3333 8.48035 13.0055 9.16487 12.4575C8.80226 12.5927 8.40977 12.6666 8.00002 12.6666C6.15907 12.6666 4.66669 11.1743 4.66669 9.33331C4.66669 7.49236 6.15907 5.99998 8.00002 5.99998C8.40977 5.99998 8.80226 6.07391 9.16487 6.20917C8.48035 5.66109 7.6118 5.33331 6.66669 5.33331C4.45755 5.33331 2.66669 7.12417 2.66669 9.33331C2.66669 11.5425 4.45755 13.3333 6.66669 13.3333ZM9.50966 11.7359L10.6667 10.4266L11.8237 11.7359L11.5215 10.015L13.2665 9.9267L11.7326 9.09002L12.7516 7.67067L11.1411 8.34825L10.6667 6.66665L10.1923 8.34825L8.5818 7.67067L9.60077 9.09002L8.06688 9.9267L9.81188 10.015L9.50966 11.7359Z"/></g></svg>