<svg xmlns="http://www.w3.org/2000/svg" fill="none" viewBox="0 0 28 28" focusable="false"><defs><filter id="Malawi_svg__a"><feColorMatrix values="0 0 0 0 1 0 0 0 0 1 0 0 0 0 1 0 0 0 1 0"/></filter></defs><mask id="Malawi_svg__b" width="28" height="20" x="0" y="4" maskUnits="userSpaceOnUse"><g filter="url(#Malawi_svg__a)"><rect width="28" height="20" y="4" fill="#FFF" rx="3"/><rect width="28" height="20" y="4" stroke="#969696" stroke-opacity="0" stroke-width="0" rx="3"/></g></mask><path fill="none" d="M0 0H28V28H0z"/><rect width="28" height="20" y="4" fill="#FFF" rx="3"/><rect width="28" height="20" y="4" rx="3"/><g mask="url(#Malawi_svg__b)"><path fill="#262626" fill-rule="evenodd" d="M0 10.6667L28 10.6667L28 4L0 4L0 10.6667Z"/><path d="M28 10.6667L28 4L0 4L0 10.6667L28 10.6667Z"/><path fill="#E42038" fill-rule="evenodd" d="M14 16C16.5774 16 18.6667 13.9107 18.6667 11.3334C18.6667 8.75602 16.5774 6.66669 14 6.66669C11.4227 6.66669 9.33337 8.75602 9.33337 11.3334C9.33337 13.9107 11.4227 16 14 16Z"/><path d="M18.6667 11.3334C18.6667 8.75602 16.5774 6.66669 14 6.66669C11.4227 6.66669 9.33337 8.75602 9.33337 11.3334C9.33337 13.9107 11.4227 16 14 16C16.5774 16 18.6667 13.9107 18.6667 11.3334Z"/><path fill="#E42038" fill-rule="evenodd" d="M0 17.3334L28 17.3334L28 10.6667L0 10.6667L0 17.3334Z"/><path d="M28 17.3334L28 10.6667L0 10.6667L0 17.3334L28 17.3334Z"/><path fill="#47B849" fill-rule="evenodd" d="M0 24L28 24L28 17.3333L0 17.3333L0 24Z"/><path d="M28 24L28 17.3333L0 17.3333L0 24L28 24Z"/></g></svg>