<svg xmlns="http://www.w3.org/2000/svg" fill="none" viewBox="0 0 28 28" focusable="false"><path fill="none" d="M0 0h28v28H0z"/><rect width="28" height="20" y="4" fill="#fff" rx="3"/><rect width="28" height="20" y="4" rx="3"/><mask id="Maldives_svg__a" width="28" height="20" x="0" y="4" mask-type="alpha" maskUnits="userSpaceOnUse"><rect width="28" height="20" y="4" fill="#fff" rx="3"/><rect width="28" height="20" y="4" stroke="#979797" stroke-opacity="0" stroke-width="0" rx="3"/></mask><g mask="url(#Maldives_svg__a)"><path fill="#f32249" d="M0 4h28v20H0z"/><path d="M0 4h28v20H0z"/></g><g mask="url(#Maldives_svg__a)"><rect width="20" height="12" x="4" y="8" fill="#15a04f" rx=".667"/><rect width="20" height="12" x="4" y="8" rx=".667"/></g><g fill="#fff" mask="url(#Maldives_svg__a)"><mask id="Maldives_svg__b"><path fill-rule="evenodd" d="M16.333 18.56q-.484.106-1 .107a4.667 4.667 0 1 1 1-9.226 4.668 4.668 0 0 0 0 9.118" clip-rule="evenodd"/></mask><path fill-rule="evenodd" d="M16.333 18.56q-.484.106-1 .107a4.667 4.667 0 1 1 1-9.226 4.668 4.668 0 0 0 0 9.118" clip-rule="evenodd" mask="url(#Maldives_svg__b)"/></g></svg>