<svg xmlns="http://www.w3.org/2000/svg" fill="none" viewBox="0 0 28 28" focusable="false"><defs><filter id="Malta_svg__a"><feColorMatrix values="0 0 0 0 1 0 0 0 0 1 0 0 0 0 1 0 0 0 1 0"/></filter></defs><mask id="Malta_svg__b" width="28" height="20" x="0" y="4" maskUnits="userSpaceOnUse"><g filter="url(#Malta_svg__a)"><rect width="28" height="20" y="4" fill="#FFF" rx="3"/><rect width="27.5" height="19.5" x=".25" y="4.25" stroke="#F5F5F5" stroke-width=".5" rx="2.75"/></g></mask><path fill="none" d="M0 0H28V28H0z"/><rect width="28" height="20" y="4" fill="#FFF" rx="3"/><rect width="27.5" height="19.5" x=".25" y="4.25" stroke="#D6D8DD" stroke-width=".5" rx="2.75"/><g mask="url(#Malta_svg__b)"><path fill="#DE233C" fill-rule="evenodd" d="M14.6667 24L28 24L28 4L14.6667 4L14.6667 24Z"/><path d="M28 24L28 4L14.6667 4L14.6667 24L28 24Z"/><path fill="#CCCCCD" fill-rule="evenodd" d="M5.33335 8.00002L5.33335 6.66669L4.00002 6.66669L4.00002 8.00002L2.66669 8.00002L2.66669 9.33335L4.00002 9.33335L4.00002 10.6667L5.33335 10.6667L5.33335 9.33335L6.66669 9.33335L6.66669 8.00002L5.33335 8.00002Z"/><path fill="#7B716A" fill-opacity=".66" fill-rule="evenodd" d="M3.33335 6.00002L3.33335 7.33335L2.00002 7.33335L2.00002 10L3.33335 10L3.33335 11.3334L6.00002 11.3334L6.00002 10L7.33335 10L7.33335 7.33335L6.00002 7.33335L6.00002 6.00002L3.33335 6.00002ZM4.00002 6.66669L5.33335 6.66669L5.33335 8.00002L6.66669 8.00002L6.66669 9.33335L5.33335 9.33335L5.33335 10.6667L4.00002 10.6667L4.00002 9.33335L2.66669 9.33335L2.66669 8.00002L4.00002 8.00002L4.00002 6.66669Z"/><path fill="#7B716A" fill-rule="evenodd" d="M4.66667 9.33333C5.03486 9.33333 5.33333 9.03486 5.33333 8.66667C5.33333 8.29848 5.03486 8 4.66667 8C4.29848 8 4 8.29848 4 8.66667C4 9.03486 4.29848 9.33333 4.66667 9.33333Z"/><path d="M5.33333 8.66667C5.33333 8.29848 5.03486 8 4.66667 8C4.29848 8 4 8.29848 4 8.66667C4 9.03486 4.29848 9.33333 4.66667 9.33333C5.03486 9.33333 5.33333 9.03486 5.33333 8.66667Z"/></g></svg>