<svg xmlns="http://www.w3.org/2000/svg" fill="none" viewBox="0 0 29 28" focusable="false"><path fill="none" d="M0 0h28v28H0z"/><rect width="28" height="20" y="4" fill="#FFF" rx="3"/><rect width="27.5" height="19.5" x=".25" y="4.25" stroke="#D6D8DD" stroke-width=".5" rx="3"/><mask id="Malta_svg__a" width="28" height="20" x="0" y="4" mask-type="alpha" maskUnits="userSpaceOnUse"><rect width="28" height="20" y="4" fill="#FFF" rx="3"/><rect width="27.5" height="19.5" x=".25" y="4.25" stroke="#F5F5F5" stroke-width=".5" rx="3"/></mask><g mask="url(#Malta_svg__a)"><path fill="#DE233C" fill-rule="evenodd" d="M14.66 24H28V4H14.66z"/><path d="M28 24V4H14.66v20z"/></g><g mask="url(#Malta_svg__a)"><mask id="Malta_svg__b" fill="#fff"><path fill-rule="evenodd" d="M5.333 6.667H4V8H2.667v1.333H4v1.334h1.333V9.333h1.334V8H5.333z" clip-rule="evenodd"/></mask><path fill="#CCCCCD" fill-rule="evenodd" d="M5.333 6.667H4V8H2.667v1.333H4v1.334h1.333V9.333h1.334V8H5.333z" clip-rule="evenodd" mask="url(#Malta_svg__b)"/><path fill="#7B716A" fill-opacity=".66" fill-rule="evenodd" d="M6 7.333V6H3.333v1.333H2V10h1.333v1.333H6V10h1.333V7.333zm-.667 0v-.666H4V8H2.667v1.333H4v1.334h1.333V9.333h1.334V8H5.333z" clip-rule="evenodd"/></g><g mask="url(#Malta_svg__a)"><path fill="#7B716A" fill-rule="evenodd" d="M4.66 9.33c.37 0 .67-.3.67-.67 0-.37-.3-.66-.67-.66-.37 0-.66.29-.66.66 0 .37.29.67.66.67"/><path d="M5.33 8.66c0-.37-.3-.66-.67-.66-.37 0-.66.29-.66.66 0 .37.29.67.66.67.37 0 .67-.3.67-.67"/></g></svg>