<svg xmlns="http://www.w3.org/2000/svg" fill="none" viewBox="0 0 28 28" focusable="false"><rect width="27.5" height="19.5" x=".25" y="4.25" fill="#fff" stroke="#D6D8DD" stroke-width=".5" rx="2.75"/><mask id="Malta_svg__a" width="28" height="20" x="0" y="4" maskUnits="userSpaceOnUse" style="mask-type:luminance"><rect width="27.5" height="19.5" x=".25" y="4.25" fill="#fff" stroke="#fff" stroke-width=".5" rx="2.75"/></mask><g mask="url(#Malta_svg__a)"><path fill="#DE233C" fill-rule="evenodd" d="M14.667 24H28V4H14.667v20Z" clip-rule="evenodd"/><mask id="Malta_svg__b" width="6" height="6" x="1.667" y="5.667" fill="#000" maskUnits="userSpaceOnUse"><path fill="#fff" d="M1.667 5.667h6v6h-6z"/><path fill-rule="evenodd" d="M5.333 6.667H4V8H2.667v1.333H4v1.334h1.333V9.333h1.334V8H5.333V6.667Z" clip-rule="evenodd"/></mask><path fill="#CCCCCD" fill-rule="evenodd" d="M5.333 6.667H4V8H2.667v1.333H4v1.334h1.333V9.333h1.334V8H5.333V6.667Z" clip-rule="evenodd"/><path fill="#7B716A" fill-opacity=".66" d="M4 6.667V6h-.667v.667H4Zm1.333 0H6V6h-.667v.667ZM4 8v.667h.667V8H4ZM2.667 8v-.667H2V8h.667Zm0 1.333H2V10h.667v-.667Zm1.333 0h.667v-.666H4v.666Zm0 1.334h-.667v.666H4v-.666Zm1.333 0v.666H6v-.666h-.667Zm0-1.334v-.666h-.666v.666h.666Zm1.334 0V10h.666v-.667h-.666Zm0-1.333h.666v-.667h-.666V8ZM5.333 8h-.666v.667h.666V8ZM4 7.333h1.333V6H4v1.333ZM4.667 8V6.667H3.333V8h1.334Zm-2 .667H4V7.333H2.667v1.334Zm.666.666V8H2v1.333h1.333ZM4 8.667H2.667V10H4V8.667Zm.667 2V9.333H3.333v1.334h1.334ZM5.333 10H4v1.333h1.333V10Zm-.666-.667v1.334H6V9.333H4.667Zm2-.666H5.333V10h1.334V8.667ZM6 8v1.333h1.333V8H6Zm-.667.667h1.334V7.333H5.333v1.334Zm-.666-2V8H6V6.667H4.667Z" mask="url(#Malta_svg__b)"/><path fill="#7B716A" fill-rule="evenodd" d="M4.667 9.333a.667.667 0 1 0 0-1.333.667.667 0 0 0 0 1.333Z" clip-rule="evenodd"/></g></svg>