<svg xmlns="http://www.w3.org/2000/svg" fill="none" viewBox="0 0 29 28" focusable="false"><path fill="none" d="M0 0h28v28H0z"/><rect width="27.5" height="19.5" x=".25" y="4.25" stroke="#F5F5F5" stroke-width=".5" rx="3"/><mask id="Marshall_Islands_svg__a" width="28" height="20" x="0" y="4" mask-type="alpha" maskUnits="userSpaceOnUse"><rect width="28" height="20" y="4" fill="#103A8E" rx="3"/></mask><g mask="url(#Marshall_Islands_svg__a)"><path fill="#103A8E" fill-rule="evenodd" d="M28 4H0v19.242l28-12.774zm0 9.75L0 23.621V24h28z" clip-rule="evenodd"/></g><g mask="url(#Marshall_Islands_svg__a)"><path fill="#FFF" fill-rule="evenodd" d="m7.245 9.21-.23-4.3-.23 4.3-.962-2.705.519 2.824-1.63-2.363 1.232 2.593-2.186-1.861L5.62 9.883 3.026 8.651l2.364 1.63-2.824-.519 2.705.963-4.301.23 4.3.23-2.704.962 2.824-.52-2.364 1.63 2.593-1.232-1.86 2.186 2.185-1.86-1.232 2.592 1.63-2.363-.519 2.824.963-2.705.23 4.301.229-4.301.962 2.705-.519-2.824 1.63 2.364-1.232-2.594 2.186 1.861-1.861-2.186 2.593 1.233-2.363-1.63 2.823.519-2.705-.963 4.302-.23-4.302-.23 2.705-.962-2.823.52 2.363-1.63-2.593 1.231 1.861-2.185-2.186 1.86 1.232-2.592-1.63 2.363.52-2.824z" clip-rule="evenodd"/></g><g mask="url(#Marshall_Islands_svg__a)"><path fill="#D07A2C" fill-rule="evenodd" d="M0 23.09 28.87 6.45v3.79L0 23.24z"/></g><g mask="url(#Marshall_Islands_svg__a)"><path fill="#FFF" fill-rule="evenodd" d="M.7 22.92 28 10.5v4L1.03 23.25l-.16-.13z"/></g></svg>