<svg xmlns="http://www.w3.org/2000/svg" fill="none" viewBox="0 0 28 28" focusable="false"><path fill="none" d="M0 0h28v28H0z"/><rect width="28" height="20" y="4" fill="#fff" rx="3"/><rect width="28" height="20" y="4" rx="3"/><mask id="Mauritania_svg__a" width="28" height="20" x="0" y="4" mask-type="alpha" maskUnits="userSpaceOnUse"><rect width="28" height="20" y="4" fill="#fff" rx="3"/><rect width="28" height="20" y="4" stroke="#979797" stroke-opacity="0" stroke-width="0" rx="3"/></mask><g mask="url(#Mauritania_svg__a)"><path fill="#108b4d" d="M0 4h28v20H0z"/><path d="M0 4h28v20H0z"/></g><g mask="url(#Mauritania_svg__a)"><mask id="Mauritania_svg__b" fill="#fff"><path fill-rule="evenodd" d="M12.352 13.739 14 12.564l1.648 1.175-.608-1.93 1.627-1.205-2.024-.018L14 8.666l-.643 1.92-2.024.018 1.627 1.205zm7.462-2.006q.072.462.073.944a6 6 0 1 1-11.926-.944 6.001 6.001 0 0 0 11.853 0" clip-rule="evenodd"/></mask><path fill="#ffc941" fill-rule="evenodd" d="M12.352 13.739 14 12.564l1.648 1.175-.608-1.93 1.627-1.205-2.024-.018L14 8.666l-.643 1.92-2.024.018 1.627 1.205zm7.462-2.006q.072.462.073.944a6 6 0 1 1-11.926-.944 6.001 6.001 0 0 0 11.853 0" clip-rule="evenodd" mask="url(#Mauritania_svg__b)"/></g></svg>