<svg xmlns="http://www.w3.org/2000/svg" fill="none" viewBox="0 0 28 28" focusable="false"><path fill="none" d="M0 0h28v28H0z"/><rect width="28" height="20" y="4" fill="#fff" rx="3"/><rect width="27.5" height="19.5" x=".25" y="4.25" stroke="#d6d8dd" stroke-width=".5" rx="3"/><mask id="Mexico_svg__a" width="28" height="20" x="0" y="4" mask-type="alpha" maskUnits="userSpaceOnUse"><rect width="28" height="20" y="4" fill="#fff" rx="3"/><rect width="27.5" height="19.5" x=".25" y="4.25" stroke="#f5f5f5" stroke-width=".5" rx="3"/></mask><g mask="url(#Mexico_svg__a)"><path fill="#e3283e" d="M18.667 4H28v20h-9.333z"/><path d="M18.667 4H28v20h-9.333z"/></g><g mask="url(#Mexico_svg__a)"><path fill="#128a60" fill-rule="evenodd" d="M0 24h9.33V4H0z"/><path d="M9.33 24V4H0v20z"/></g><g mask="url(#Mexico_svg__a)"><mask id="Mexico_svg__b" fill="#fff"><path fill-rule="evenodd" d="M12.664 15.641a2.67 2.67 0 0 1-1.33-2.308zm4.003-2.308c0 .945-.491 1.775-1.232 2.249z" clip-rule="evenodd"/></mask><path fill="none" d="M12.664 15.641a2.67 2.67 0 0 1-1.33-2.308zm4.003-2.308c0 .945-.491 1.775-1.232 2.249z" clip-rule="evenodd" mask="url(#Mexico_svg__b)"/><path fill="#8c9157" d="M12.329 16.218q-.759-.44-1.203-1.196-.46-.78-.46-1.689v-2.492l2.575 4.468zm.67-1.153-.335.576-.578.333-1.33-2.308.577-.333H12q0 .546.275 1.013.267.454.723.719m4.334-1.732q0 .87-.423 1.627-.41.731-1.116 1.183l-.944-.882 1.232-2.248zm-1.333 0h.667l.584.32-1.232 2.249-.584-.32-.36-.562q.426-.272.672-.712.253-.452.253-.975"/></g><g mask="url(#Mexico_svg__a)"><path fill="#c59262" fill-rule="evenodd" d="M14 14.66c.73 0 1.33-.89 1.33-2 0-1.1-.6-2-1.33-2-.74 0-1.34.9-1.34 2 0 1.11.6 2 1.34 2"/><path d="M15.33 12.66c0-1.1-.6-2-1.33-2-.74 0-1.34.9-1.34 2 0 1.11.6 2 1.34 2 .73 0 1.33-.89 1.33-2"/></g></svg>