<svg xmlns="http://www.w3.org/2000/svg" fill="none" viewBox="0 0 28 28" focusable="false"><defs><filter id="Micronesia_svg__a"><feColorMatrix values="0 0 0 0 1 0 0 0 0 1 0 0 0 0 1 0 0 0 1 0"/></filter></defs><mask id="Micronesia_svg__b" width="28" height="20" x="0" y="4" maskUnits="userSpaceOnUse"><g filter="url(#Micronesia_svg__a)"><rect width="28" height="20" y="4" fill="#FFF" rx="3"/><rect width="28" height="20" y="4" stroke="#969696" stroke-opacity="0" stroke-width="0" rx="3"/></g></mask><path fill="none" d="M0 0H28V28H0z"/><rect width="28" height="20" y="4" fill="#FFF" rx="3"/><rect width="28" height="20" y="4" rx="3"/><g mask="url(#Micronesia_svg__b)"><path fill="#95CEF5" d="M0 4H28V24H0z"/><path d="M0 4H28V24H0z"/><path fill="#FFF" fill-rule="evenodd" d="M14 9.76L12.4326 10.824L12.9602 9.00453L11.4638 7.84262L13.3573 7.78214L14 6L14.6426 7.78214L16.5361 7.84262L15.0398 9.00453L15.5674 10.824L14 9.76ZM8.66664 15.0933L7.09922 16.1574L7.62682 14.3379L6.13049 13.176L8.024 13.1155L8.66664 11.3333L9.30929 13.1155L11.2028 13.176L9.70647 14.3379L10.2341 16.1574L8.66664 15.0933ZM19.3333 15.0933L17.7659 16.1574L18.2935 14.3379L16.7972 13.176L18.6907 13.1155L19.3333 11.3333L19.976 13.1155L21.8695 13.176L20.3731 14.3379L20.9007 16.1574L19.3333 15.0933ZM14 20.4267L12.4326 21.4907L12.9602 19.6712L11.4638 18.5093L13.3573 18.4488L14 16.6667L14.6426 18.4488L16.5361 18.5093L15.0398 19.6712L15.5674 21.4907L14 20.4267Z"/><path d="M14 9.76L12.4326 10.824L12.9602 9.00453L11.4638 7.84262L13.3573 7.78214L14 6L14.6426 7.78214L16.5361 7.84262L15.0398 9.00453L15.5674 10.824L14 9.76ZM8.66664 15.0933L7.09922 16.1574L7.62682 14.3379L6.13049 13.176L8.024 13.1155L8.66664 11.3333L9.30929 13.1155L11.2028 13.176L9.70647 14.3379L10.2341 16.1574L8.66664 15.0933ZM19.3333 15.0933L17.7659 16.1574L18.2935 14.3379L16.7972 13.176L18.6907 13.1155L19.3333 11.3333L19.976 13.1155L21.8695 13.176L20.3731 14.3379L20.9007 16.1574L19.3333 15.0933ZM14 20.4267L12.4326 21.4907L12.9602 19.6712L11.4638 18.5093L13.3573 18.4488L14 16.6667L14.6426 18.4488L16.5361 18.5093L15.0398 19.6712L15.5674 21.4907L14 20.4267Z"/></g></svg>