<svg xmlns="http://www.w3.org/2000/svg" fill="none" viewBox="0 0 28 28" focusable="false"><path fill="none" d="M0 0h28v28H0z"/><rect width="28" height="20" y="4" fill="#FFF" rx="3"/><rect width="28" height="20" y="4" rx="3"/><mask id="Micronesia_svg__a" width="28" height="20" x="0" y="4" mask-type="alpha" maskUnits="userSpaceOnUse"><rect width="28" height="20" y="4" fill="#FFF" rx="3"/><rect width="28" height="20" y="4" stroke="#979797" stroke-opacity="0" stroke-width="0" rx="3"/></mask><g mask="url(#Micronesia_svg__a)"><path fill="#95CEF5" d="M0 4h28v20H0z"/><path d="M0 4h28v20H0z"/></g><g mask="url(#Micronesia_svg__a)"><mask id="Micronesia_svg__b" fill="#fff"><path fill-rule="evenodd" d="m14 9.76-1.567 1.064.527-1.82-1.496-1.161 1.893-.06L14 6l.643 1.782 1.893.06-1.496 1.163.527 1.819zm-6.9 6.397 1.567-1.064 1.567 1.064-.528-1.82 1.497-1.161-1.894-.06-.642-1.783-.643 1.783-1.894.06 1.497 1.162zm12.233-1.064-1.567 1.064.528-1.82-1.497-1.161 1.894-.06.642-1.783.643 1.783 1.893.06-1.496 1.162.528 1.82zm-6.9 6.398L14 20.427l1.567 1.064-.527-1.82 1.496-1.162-1.893-.06L14 16.667l-.643 1.782-1.893.06 1.496 1.162z" clip-rule="evenodd"/></mask><path fill="#FFF" fill-rule="evenodd" d="m14 9.76-1.567 1.064.527-1.82-1.496-1.161 1.893-.06L14 6l.643 1.782 1.893.06-1.496 1.163.527 1.819zm-6.9 6.397 1.567-1.064 1.567 1.064-.528-1.82 1.497-1.161-1.894-.06-.642-1.783-.643 1.783-1.894.06 1.497 1.162zm12.233-1.064-1.567 1.064.528-1.82-1.497-1.161 1.894-.06.642-1.783.643 1.783 1.893.06-1.496 1.162.528 1.82zm-6.9 6.398L14 20.427l1.567 1.064-.527-1.82 1.496-1.162-1.893-.06L14 16.667l-.643 1.782-1.893.06 1.496 1.162z" clip-rule="evenodd" mask="url(#Micronesia_svg__b)"/></g></svg>