<svg xmlns="http://www.w3.org/2000/svg" fill="none" viewBox="0 0 28 28" focusable="false"><path fill="none" d="M0 0h28v28H0z"/><rect width="28" height="20" y="4" fill="#fff" rx="3"/><rect width="28" height="20" y="4" rx="3"/><mask id="Moldova_svg__a" width="28" height="20" x="0" y="4" mask-type="alpha" maskUnits="userSpaceOnUse"><rect width="28" height="20" y="4" fill="#fff" rx="3"/><rect width="28" height="20" y="4" stroke="#979797" stroke-opacity="0" stroke-width="0" rx="3"/></mask><g mask="url(#Moldova_svg__a)"><path fill="#eb1c43" d="M13.333 4H28v20H13.333z"/><path d="M13.333 4H28v20H13.333z"/></g><g mask="url(#Moldova_svg__a)"><path fill="#115bcb" fill-rule="evenodd" d="M0 24h9.33V4H0z"/><path d="M9.33 24V4H0v20z"/></g><g mask="url(#Moldova_svg__a)"><path fill="#ffd953" fill-rule="evenodd" d="M9.33 24h9.33V4H9.33z"/><path d="M18.66 24V4H9.33v20z"/></g><g mask="url(#Moldova_svg__a)"><mask id="Moldova_svg__b" fill="#fff"><path fill-rule="evenodd" d="M12 12h1.333L14 10l.667 2H16v4l-2 1.333L12 16zm2.667 3.333v-2h-1.334v2z" clip-rule="evenodd"/></mask><path fill="#af7f59" fill-rule="evenodd" d="M12 12h1.333L14 10l.667 2H16v4l-2 1.333L12 16zm2.667 3.333v-2h-1.334v2z" clip-rule="evenodd" mask="url(#Moldova_svg__b)"/></g></svg>