<svg xmlns="http://www.w3.org/2000/svg" fill="none" viewBox="0 0 28 28" focusable="false"><defs><filter id="Moldova_svg__a"><feColorMatrix values="0 0 0 0 1 0 0 0 0 1 0 0 0 0 1 0 0 0 1 0"/></filter></defs><mask id="Moldova_svg__b" width="28" height="20" x="0" y="4" maskUnits="userSpaceOnUse"><g filter="url(#Moldova_svg__a)"><rect width="28" height="20" y="4" fill="#FFF" rx="3"/><rect width="28" height="20" y="4" stroke="#969696" stroke-opacity="0" stroke-width="0" rx="3"/></g></mask><path fill="none" d="M0 0H28V28H0z"/><rect width="28" height="20" y="4" fill="#FFF" rx="3"/><rect width="28" height="20" y="4" rx="3"/><g mask="url(#Moldova_svg__b)"><path fill="#EB1C43" d="M13.333 4H28V24H13.333z"/><path d="M13.333 4H28V24H13.333z"/><path fill="#115BCB" fill-rule="evenodd" d="M0 24L9.33333 24L9.33333 4L0 4L0 24Z"/><path d="M9.33333 24L9.33333 4L0 4L0 24L9.33333 24Z"/><path fill="#FFD953" fill-rule="evenodd" d="M9.33334 24L18.6667 24L18.6667 4L9.33334 4L9.33334 24Z"/><path d="M18.6667 24L18.6667 4L9.33334 4L9.33334 24L18.6667 24Z"/><path fill="#AF7F59" fill-rule="evenodd" d="M12 12L13.3333 12L14 10L14.6667 12L16 12L16 16L14 17.3333L12 16L12 12ZM14.6667 15.3333L14.6667 13.3333L13.3333 13.3333L13.3333 15.3333L14.6667 15.3333Z"/><path d="M12 12L13.3333 12L14 10L14.6667 12L16 12L16 16L14 17.3333L12 16L12 12ZM14.6667 15.3333L14.6667 13.3333L13.3333 13.3333L13.3333 15.3333L14.6667 15.3333Z"/></g></svg>