<svg xmlns="http://www.w3.org/2000/svg" fill="none" viewBox="0 0 28 28" focusable="false"><rect width="28" height="20" y="4" fill="#fff" rx="3"/><mask id="Mongolia_svg__a" width="28" height="20" x="0" y="4" maskUnits="userSpaceOnUse" style="mask-type:luminance"><rect width="28" height="20" y="4" fill="#fff" rx="3"/></mask><g fill-rule="evenodd" clip-rule="evenodd" mask="url(#Mongolia_svg__a)"><path fill="#146BBC" d="M9.333 24h9.334V4H9.333v20Z"/><path fill="#E43642" d="M0 24h9.333V4H0v20ZM18.667 24H28V4h-9.333v20Z"/><path fill="url(#Mongolia_svg__b)" d="m4.667 14 .666.667H4L4.667 14Zm0 2a.667.667 0 1 1 0-1.333.667.667 0 0 1 0 1.333Zm.666 0H2.667v4H4v-1.333L4.667 20l.666-1.333V20h1.334v-4H5.333Zm-.666 1.333L5.333 16v2a.667.667 0 0 0-.666-.667ZM4 18c0-.368.298-.667.667-.667L4 16v2Zm.667.667H4V18c0 .368.298.667.667.667Zm0 0h.666V18a.667.667 0 0 1-.666.667Z"/></g><defs><linearGradient id="Mongolia_svg__b" x1="2.667" x2="2.667" y1="14" y2="20" gradientUnits="userSpaceOnUse"><stop stop-color="#F8D246"/><stop offset="1" stop-color="#F9CE2F"/></linearGradient></defs></svg>