<svg xmlns="http://www.w3.org/2000/svg" fill="none" viewBox="0 0 28 28" focusable="false"><defs><linearGradient id="Mongolia_svg__b" x1="2.667" x2="2.667" y1="14" y2="20" gradientUnits="userSpaceOnUse"><stop stop-color="#F8D246"/><stop offset="1" stop-color="#F9CE2F"/></linearGradient></defs><path fill="none" d="M0 0h28v28H0z"/><rect width="28" height="20" y="4" fill="#FFF" rx="3"/><rect width="28" height="20" y="4" rx="3"/><mask id="Mongolia_svg__a" width="28" height="20" x="0" y="4" mask-type="alpha" maskUnits="userSpaceOnUse"><rect width="28" height="20" y="4" fill="#FFF" rx="3"/><rect width="28" height="20" y="4" stroke="#979797" stroke-opacity="0" stroke-width="0" rx="3"/></mask><g mask="url(#Mongolia_svg__a)"><path fill="#146BBC" fill-rule="evenodd" d="M9.33 24h9.33V4H9.33z"/><path d="M18.66 24V4H9.33v20z"/></g><g mask="url(#Mongolia_svg__a)"><path fill="#E43642" fill-rule="evenodd" d="M0 24h9.33V4H0z"/><path d="M9.33 24V4H0v20z"/></g><g mask="url(#Mongolia_svg__a)"><path fill="#E43642" fill-rule="evenodd" d="M18.66 24H28V4h-9.34z"/><path d="M28 24V4h-9.34v20z"/></g><g mask="url(#Mongolia_svg__a)"><mask id="Mongolia_svg__c" fill="#fff"><path fill-rule="evenodd" d="M4 14.667 4.667 14l.666.667H4M4.667 16a.667.667 0 1 1 0-1.333.667.667 0 0 1 0 1.333m-2 0H4v4H2.667zM4 16h1.333l-.666 1.333zm1.333 0h1.334v4H5.333zm-.666 2.667a.667.667 0 1 1 0-1.334.667.667 0 0 1 0 1.334m-.667 0h1.333L4.667 20z" clip-rule="evenodd"/></mask><path fill="url(#Mongolia_svg__b)" fill-rule="evenodd" d="M4 14.667 4.667 14l.666.667H4M4.667 16a.667.667 0 1 1 0-1.333.667.667 0 0 1 0 1.333m-2 0H4v4H2.667zM4 16h1.333l-.666 1.333zm1.333 0h1.334v4H5.333zm-.666 2.667a.667.667 0 1 1 0-1.334.667.667 0 0 1 0 1.334m-.667 0h1.333L4.667 20z" clip-rule="evenodd" mask="url(#Mongolia_svg__c)"/></g></svg>