<svg xmlns="http://www.w3.org/2000/svg" fill="none" viewBox="0 0 29 28" focusable="false"><path fill="none" d="M1 0h28v28H1z"/><rect width="28" height="20" x="1" y="4" fill="#FFF" rx="3"/><rect width="28" height="20" x="1" y="4" rx="3"/><mask id="Montserrat_svg__a" width="28" height="20" x="1" y="4" mask-type="alpha" maskUnits="userSpaceOnUse"><rect width="28" height="20" x="1" y="4" fill="#FFF" rx="3"/><rect width="28" height="20" x="1" y="4" stroke="#979797" stroke-opacity="0" stroke-width="0" rx="3"/></mask><g mask="url(#Montserrat_svg__a)"><path fill="#07319C" d="M1 4h28v20H1z"/><path d="M1 4h28v20H1z"/></g><g mask="url(#Montserrat_svg__a)"><path fill="#08B9D6" fill-rule="evenodd" d="M18.33 14v-3.34c0-.74.6-1.33 1.33-1.33h4c.74 0 1.34.59 1.34 1.33V14c0 3.33-3.34 4.66-3.34 4.66s-3.33-1.33-3.33-4.66"/><path d="M18.33 10.66c0-.73.6-1.33 1.33-1.33h4c.74 0 1.34.6 1.34 1.33V14c0 3.33-3.34 4.66-3.34 4.66s-3.33-1.33-3.33-4.66z"/><mask id="Montserrat_svg__b" width="6.667" height="9.333" x="18.333" y="9.333" mask-type="alpha" maskUnits="userSpaceOnUse"><path fill="#08B9D6" fill-rule="evenodd" d="M18.33 14v-3.34c0-.74.6-1.33 1.33-1.33h4c.74 0 1.34.59 1.34 1.33V14c0 3.33-3.34 4.66-3.34 4.66s-3.33-1.33-3.33-4.66"/><path stroke="#979797" stroke-opacity="0" stroke-width="0" d="M18.33 10.66c0-.73.6-1.33 1.33-1.33h4c.74 0 1.34.6 1.34 1.33V14c0 3.33-3.34 4.66-3.34 4.66s-3.33-1.33-3.33-4.66z"/></mask><g mask="url(#Montserrat_svg__b)"><path fill="#A63D09" fill-rule="evenodd" d="M18.33 16H25v2.66h-6.67z"/><path d="M25 16v2.66h-6.67V16z"/></g><g mask="url(#Montserrat_svg__b)"><mask id="Montserrat_svg__c" fill="#fff"><path fill-rule="evenodd" d="M22.333 10.667H21V12h-1.333v1.333H21V16h1.333v-2.667h1.334V12h-1.334z" clip-rule="evenodd"/></mask><path fill="#262626" fill-rule="evenodd" d="M22.333 10.667H21V12h-1.333v1.333H21V16h1.333v-2.667h1.334V12h-1.334z" clip-rule="evenodd" mask="url(#Montserrat_svg__c)"/></g></g><g fill-rule="evenodd" mask="url(#Montserrat_svg__a)"><path fill="#DB1E36" d="M5.66 8 1 4h.66l4.67 3.33h1.33L13 4v.49c0 .11-.06.21-.14.27L8.33 8v1.33l4.21 3.61c.16.13.06.39-.14.39-.05 0-.09-.02-.13-.04L7.66 10H6.33L1 13.33v-.67l4.66-3.33z"/><path fill="#FFF" d="M1.88 3.33H-.81L5 8.3v.69L.33 12.32v2.21l6.19-3.87h.93l4.43 3.17q.12.08.25.12.13.05.27.05.15 0 .29-.05.13-.05.24-.13.1-.07.17-.17.08-.1.13-.23t.06-.27q0-.12-.03-.24-.03-.14-.09-.25-.08-.12-.19-.23L9 9.02v-.68l4.24-3.04q.1-.07.18-.16.08-.08.13-.19.06-.11.08-.22.03-.12.03-.24v-1.7L7.47 6.66h-.93zm4.45 4-2.52-1.8L1.66 4H1l.41.35.25.22L3.4 6.05 5.66 8v1.33L1 12.66v.67l.32-.21.34-.21 1.04-.65L6.33 10h1.33l2.52 1.8 1.78 1.26.31.23c.04.02.08.04.13.04.2 0 .3-.26.14-.39l-.29-.25-1.66-1.42-2.26-1.94V8l3.33-2.38 1.2-.86c.08-.06.14-.16.14-.27V4l-.66.41h-.01l-1.04.65-3.63 2.27z"/></g><g mask="url(#Montserrat_svg__a)"><path fill="#FFF" fill-rule="evenodd" d="M1 7.33V10h4.66v3.33c0 .37.3.67.67.67h1.33c.37 0 .67-.3.67-.67V10H13c.36 0 .66-.3.66-.67V8c0-.37-.3-.67-.66-.67H8.33V4H5.66v3.33z"/><path d="M1 10h4.66v3.33c0 .37.3.67.67.67h1.33c.37 0 .67-.3.67-.67V10H13c.36 0 .66-.3.66-.67V8c0-.37-.3-.67-.66-.67H8.33V4H5.66v3.33H1z"/></g><g mask="url(#Montserrat_svg__a)"><path fill="#DB1E36" fill-rule="evenodd" d="M1 8h5.33V4h1.33v4H13v1.33H7.66v4H6.33v-4H1z"/><path d="M6.33 8V4h1.33v4H13v1.33H7.66v4H6.33v-4H1V8z"/></g></svg>