<svg xmlns="http://www.w3.org/2000/svg" fill="none" viewBox="0 0 28 28" focusable="false"><rect width="28" height="20" y="4" fill="#fff" rx="3"/><mask id="Montenegro_svg__a" width="28" height="20" x="0" y="4" maskUnits="userSpaceOnUse" style="mask-type:luminance"><rect width="28" height="20" y="4" fill="#fff" rx="3"/></mask><g mask="url(#Montenegro_svg__a)"><path fill="#E6BE53" d="M0 4h28v20H0z"/><path fill="#E01826" fill-rule="evenodd" d="M1.333 21.667a1 1 0 0 0 1 1h23.334a1 1 0 0 0 1-1V6.333a1 1 0 0 0-1-1H2.333a1 1 0 0 0-1 1z" clip-rule="evenodd"/><path fill="#E6BE53" fill-rule="evenodd" d="M13.023 7.659a.667.667 0 0 0-.26 1.104l.375.375a.67.67 0 0 0 .472.195h.78c.177 0 .347-.07.472-.195l.375-.375a.667.667 0 0 0-.26-1.104l-.766-.255a.67.67 0 0 0-.422 0zm1.448 3.203a.667.667 0 0 1-.942 0l-.196-.195-.993-.994a.67.67 0 0 0-.77-.125l-.076.038a.667.667 0 0 0-.173 1.068l.012.013.994.993a.67.67 0 0 1 .125.77l-.414.827a.4.4 0 0 0-.038.161.36.36 0 0 1-.52.322l-.323-.162a.395.395 0 0 1-.103-.632.395.395 0 0 0 0-.559l-.31-.31a.7.7 0 0 1-.126-.174l-.585-1.17a.7.7 0 0 1-.05-.137l-.31-1.237a.667.667 0 0 0-1.18-.238l-1.026 1.368a.67.67 0 0 0-.134.4v2.287c0 .103.024.206.07.298l.549 1.096a.7.7 0 0 0 .125.173l1.18 1.18q.076.077.173.125l1.174.587q.063.031.133.032c.315 0 .415.424.133.564l-.154.078a.3.3 0 0 0-.088.063l-.295.295a.47.47 0 0 1-.666 0 .47.47 0 0 0-.667 0l-.054.054a.55.55 0 0 0-.103.632l.306.612a.67.67 0 0 0 .596.368h.764a.7.7 0 0 0 .298-.07l.994-.497a.67.67 0 0 0 .298-.298l.303-.605a.427.427 0 1 1 .737.428l-.77 1.154a.667.667 0 0 0 .186.925l1.075.717c.224.15.516.15.74 0l1.075-.717a.667.667 0 0 0 .185-.925l-.77-1.154a.427.427 0 1 1 .738-.428l.303.605c.064.129.169.233.298.298l.994.497q.14.07.298.07h.764a.67.67 0 0 0 .596-.368l.306-.612a.55.55 0 0 0-.103-.632L19 17.667a.47.47 0 0 0-.667 0 .47.47 0 0 1-.666 0l-.295-.295a.3.3 0 0 0-.088-.063l-.154-.078c-.282-.14-.182-.564.133-.564q.07 0 .133-.032l1.174-.587a.7.7 0 0 0 .173-.124l1.18-1.18q.077-.077.125-.174l.548-1.096a.7.7 0 0 0 .07-.298v-2.287a.67.67 0 0 0-.133-.4L19.507 9.12a.667.667 0 0 0-1.18.238l-.31 1.237a.7.7 0 0 1-.05.136l-.585 1.171a.7.7 0 0 1-.125.173l-.311.311a.395.395 0 0 0 0 .559c.19.19.138.512-.103.632l-.323.162a.36.36 0 0 1-.52-.322.4.4 0 0 0-.038-.16l-.414-.828a.67.67 0 0 1 .125-.77l.994-.993.012-.013a.667.667 0 0 0-.173-1.068l-.076-.038a.67.67 0 0 0-.77.125l-.993.994z" clip-rule="evenodd"/><path fill="#215F90" fill-rule="evenodd" d="M12.667 15.333c0 .246.413.328.533.113.232-.416.516-.78.8-.78s.568.364.8.78c.12.215.533.133.533-.113 0-1.104-.597-2-1.333-2s-1.333.896-1.333 2" clip-rule="evenodd"/></g></svg>