<svg xmlns="http://www.w3.org/2000/svg" fill="none" viewBox="0 0 28 28" focusable="false"><rect width="28" height="20" y="4" fill="#fff" rx="3"/><mask id="Montserrat_svg__a" width="28" height="20" x="0" y="4" maskUnits="userSpaceOnUse" style="mask-type:luminance"><rect width="28" height="20" y="4" fill="#fff" rx="3"/></mask><g mask="url(#Montserrat_svg__a)"><path fill="#07319C" d="M0 4h28v20H0z"/><path fill="#08B9D6" fill-rule="evenodd" d="M17.333 14v-3.334c0-.737.597-1.333 1.334-1.333h4c.736 0 1.333.596 1.333 1.333V14c0 3.333-3.333 4.667-3.333 4.667S17.333 17.333 17.333 14Z" clip-rule="evenodd"/><mask id="Montserrat_svg__b" width="7" height="10" x="17" y="9" maskUnits="userSpaceOnUse" style="mask-type:luminance"><path fill="#fff" fill-rule="evenodd" d="M17.333 14v-3.334c0-.737.597-1.333 1.334-1.333h4c.736 0 1.333.596 1.333 1.333V14c0 3.333-3.333 4.667-3.333 4.667S17.333 17.333 17.333 14Z" clip-rule="evenodd"/></mask><g fill-rule="evenodd" clip-rule="evenodd" mask="url(#Montserrat_svg__b)"><path fill="#A63D09" d="M17.333 16H24v2.667h-6.667V16Z"/><path fill="#262626" d="M21.333 10.667H20V12h-1.333v1.333H20V16h1.333v-2.667h1.334V12h-1.334v-1.333Z"/></g><path fill="#DB1E36" stroke="#fff" stroke-width=".667" d="M0 3.667h-.901l.684.586 4.55 3.9v1.009l-4.527 3.233-.14.1v1.44l.51-.319 5.253-3.283h1.13l4.523 3.23a.554.554 0 0 0 .682-.87L7.667 9.18V8.172l4.387-3.134a.667.667 0 0 0 .28-.543V3.4l-.51.318L6.57 7h-1.13L.86 3.729l-.088-.062H0Z"/><path fill="#fff" fill-rule="evenodd" d="M0 7.333V10h4.667v3.333c0 .368.298.667.666.667h1.334a.667.667 0 0 0 .666-.667V10H12a.667.667 0 0 0 .667-.667V8A.667.667 0 0 0 12 7.333H7.333V4H4.667v3.333H0Z" clip-rule="evenodd"/><path fill="#DB1E36" fill-rule="evenodd" d="M0 8h5.333V4h1.334v4H12v1.333H6.667v4H5.333v-4H0V8Z" clip-rule="evenodd"/></g></svg>