<svg xmlns="http://www.w3.org/2000/svg" fill="none" viewBox="0 0 28 28" focusable="false"><defs><filter id="Montenegro_svg__a"><feColorMatrix values="0 0 0 0 1 0 0 0 0 1 0 0 0 0 1 0 0 0 1 0"/></filter></defs><mask id="Montenegro_svg__b" width="28" height="20" x="0" y="4" maskUnits="userSpaceOnUse"><g filter="url(#Montenegro_svg__a)"><rect width="28" height="20" y="4" fill="#FFF" rx="3"/><rect width="28" height="20" y="4" stroke="#969696" stroke-opacity="0" stroke-width="0" rx="3"/></g></mask><path fill="none" d="M0 0H28V28H0z"/><rect width="28" height="20" y="4" fill="#FFF" rx="3"/><rect width="28" height="20" y="4" rx="3"/><g mask="url(#Montenegro_svg__b)"><path fill="#E6BE53" d="M0 4H28V24H0z"/><path d="M0 4H28V24H0z"/><path fill="#E01826" fill-rule="evenodd" d="M1.33331 21.6666C1.33331 22.2189 1.78103 22.6666 2.33331 22.6666L25.6666 22.6666C26.2189 22.6666 26.6666 22.2189 26.6666 21.6666L26.6666 6.33331C26.6666 5.78103 26.2189 5.33331 25.6666 5.33331L2.33331 5.33331C1.78103 5.33331 1.33331 5.78103 1.33331 6.33331L1.33331 21.6666Z"/><path d="M25.6666 22.6666C26.2189 22.6666 26.6666 22.2189 26.6666 21.6666L26.6666 6.33331C26.6666 5.78103 26.2189 5.33331 25.6666 5.33331L2.33331 5.33331C1.78103 5.33331 1.33331 5.78103 1.33331 6.33331L1.33331 21.6666C1.33331 22.2189 1.78103 22.6666 2.33331 22.6666L25.6666 22.6666Z"/><path fill="#E6BE53" fill-rule="evenodd" d="M13.7892 7.4036L13.0233 7.65888C12.5532 7.8156 12.4123 8.4123 12.7627 8.76274L13.1381 9.13806C13.2631 9.26309 13.4326 9.33332 13.6095 9.33332L14.3905 9.33332C14.5673 9.33332 14.7369 9.26309 14.8619 9.13806L15.2372 8.76274C15.5877 8.4123 15.4468 7.8156 14.9766 7.65888L14.2108 7.4036C14.074 7.35798 13.926 7.35798 13.7892 7.4036ZM14.6666 10.6667L14.4714 10.8619C14.211 11.1223 13.7889 11.1223 13.5286 10.8619L13.3333 10.6667L12.3397 9.67309C12.1368 9.47019 11.8269 9.41988 11.5702 9.54821L11.4939 9.58634C11.0869 9.78984 10.9989 10.3323 11.3207 10.654L11.3333 10.6667L12.3269 11.6602C12.5298 11.8631 12.5801 12.1731 12.4518 12.4298L12.0379 13.2574C12.013 13.3073 12 13.3624 12 13.4182C12 13.6855 11.7187 13.8593 11.4796 13.7398L11.1567 13.5784C10.9156 13.4578 10.8635 13.1365 11.0541 12.9459C11.2083 12.7917 11.2083 12.5416 11.0541 12.3874L10.7431 12.0765C10.6925 12.0258 10.6503 11.9673 10.6183 11.9032L10.0327 10.7321C10.011 10.6886 9.99403 10.6428 9.98223 10.5957L9.67302 9.35882C9.53687 8.81422 8.82974 8.67142 8.49292 9.12051L7.46665 10.4889C7.3801 10.6043 7.33331 10.7446 7.33331 10.8889L7.33331 13.1759C7.33331 13.2794 7.35741 13.3815 7.40369 13.4741L7.9516 14.5699C7.98364 14.634 8.02581 14.6925 8.07648 14.7432L9.25681 15.9235C9.30748 15.9742 9.36599 16.0163 9.43008 16.0484L10.6037 16.6352C10.6451 16.6559 10.6907 16.6667 10.737 16.6667C11.0516 16.6667 11.1518 17.0908 10.8704 17.2315L10.7158 17.3087C10.6833 17.325 10.6535 17.3465 10.6278 17.3722L10.3333 17.6667C10.1492 17.8507 9.85074 17.8507 9.66665 17.6667C9.48255 17.4826 9.18407 17.4826 8.99998 17.6667L8.94589 17.7207C8.77913 17.8875 8.73779 18.1423 8.84325 18.3532L9.14905 18.9648C9.26198 19.1907 9.49282 19.3333 9.74534 19.3333L10.5093 19.3333C10.6128 19.3333 10.7148 19.3092 10.8074 19.2629L11.8012 18.766C11.9302 18.7015 12.0349 18.5969 12.0994 18.4679L12.4016 17.8634C12.532 17.6026 12.8795 17.5462 13.0857 17.7524C13.2297 17.8964 13.252 18.1219 13.1391 18.2914L12.3698 19.4453C12.1655 19.7516 12.2483 20.1656 12.5547 20.3698L13.6302 21.0868C13.8541 21.2361 14.1458 21.2361 14.3698 21.0868L15.4453 20.3698C15.7516 20.1656 15.8344 19.7516 15.6302 19.4453L14.8609 18.2914C14.7479 18.1219 14.7703 17.8964 14.9143 17.7524C15.1204 17.5462 15.468 17.6026 15.5983 17.8634L15.9006 18.4679C15.9651 18.5969 16.0697 18.7015 16.1987 18.766L17.1926 19.2629C17.2851 19.3092 17.3872 19.3333 17.4907 19.3333L18.2546 19.3333C18.5071 19.3333 18.738 19.1907 18.8509 18.9648L19.1567 18.3532C19.2622 18.1423 19.2208 17.8875 19.0541 17.7207L19 17.6667C18.8159 17.4826 18.5174 17.4826 18.3333 17.6667C18.1492 17.8507 17.8507 17.8507 17.6666 17.6667L17.3722 17.3722C17.3464 17.3465 17.3167 17.325 17.2841 17.3087L17.1296 17.2315C16.8482 17.0908 16.9483 16.6667 17.2629 16.6667C17.3092 16.6667 17.3549 16.6559 17.3963 16.6352L18.5699 16.0484C18.634 16.0163 18.6925 15.9742 18.7431 15.9235L19.9235 14.7432C19.9741 14.6925 20.0163 14.634 20.0484 14.5699L20.5963 13.4741C20.6425 13.3815 20.6666 13.2794 20.6666 13.1759L20.6666 10.8889C20.6666 10.7446 20.6199 10.6043 20.5333 10.4889L19.507 9.12051C19.1702 8.67142 18.4631 8.81422 18.3269 9.35882L18.0177 10.5957C18.0059 10.6428 17.989 10.6886 17.9673 10.7321L17.3817 11.9032C17.3496 11.9673 17.3075 12.0258 17.2568 12.0765L16.9459 12.3874C16.7917 12.5416 16.7917 12.7917 16.9459 12.9459C17.1365 13.1365 17.0843 13.4578 16.8433 13.5784L16.5203 13.7398C16.2813 13.8593 16 13.6855 16 13.4182C16 13.3624 15.987 13.3073 15.962 13.2574L15.5482 12.4298C15.4199 12.1731 15.4702 11.8631 15.6731 11.6602L16.6666 10.6667L16.6793 10.654C17.001 10.3323 16.913 9.78984 16.506 9.58634L16.4298 9.54821C16.1731 9.41988 15.8631 9.47019 15.6602 9.67309L14.6666 10.6667Z"/><path d="M13.7892 7.4036L13.0233 7.65888C12.5532 7.8156 12.4123 8.4123 12.7627 8.76274L13.1381 9.13806C13.2631 9.26309 13.4326 9.33332 13.6095 9.33332L14.3905 9.33332C14.5673 9.33332 14.7369 9.26309 14.8619 9.13806L15.2372 8.76274C15.5877 8.4123 15.4468 7.8156 14.9766 7.65888L14.2108 7.4036C14.074 7.35798 13.926 7.35798 13.7892 7.4036ZM14.6666 10.6667L14.4714 10.8619C14.211 11.1223 13.7889 11.1223 13.5286 10.8619L13.3333 10.6667L12.3397 9.67309C12.1368 9.47019 11.8269 9.41988 11.5702 9.54821L11.4939 9.58634C11.0869 9.78984 10.9989 10.3323 11.3207 10.654L11.3333 10.6667L12.3269 11.6602C12.5298 11.8631 12.5801 12.1731 12.4518 12.4298L12.0379 13.2574C12.013 13.3073 12 13.3624 12 13.4182C12 13.6855 11.7187 13.8593 11.4796 13.7398L11.1567 13.5784C10.9156 13.4578 10.8635 13.1365 11.0541 12.9459C11.2083 12.7917 11.2083 12.5416 11.0541 12.3874L10.7431 12.0765C10.6925 12.0258 10.6503 11.9673 10.6183 11.9032L10.0327 10.7321C10.011 10.6886 9.99403 10.6428 9.98223 10.5957L9.67302 9.35882C9.53687 8.81422 8.82974 8.67142 8.49292 9.12051L7.46665 10.4889C7.3801 10.6043 7.33331 10.7446 7.33331 10.8889L7.33331 13.1759C7.33331 13.2794 7.35741 13.3815 7.40369 13.4741L7.9516 14.5699C7.98364 14.634 8.02581 14.6925 8.07648 14.7432L9.25681 15.9235C9.30748 15.9742 9.36599 16.0163 9.43008 16.0484L10.6037 16.6352C10.6451 16.6559 10.6907 16.6667 10.737 16.6667C11.0516 16.6667 11.1518 17.0908 10.8704 17.2315L10.7158 17.3087C10.6833 17.325 10.6535 17.3465 10.6278 17.3722L10.3333 17.6667C10.1492 17.8507 9.85074 17.8507 9.66665 17.6667C9.48255 17.4826 9.18407 17.4826 8.99998 17.6667L8.94589 17.7207C8.77913 17.8875 8.73779 18.1423 8.84325 18.3532L9.14905 18.9648C9.26198 19.1907 9.49282 19.3333 9.74534 19.3333L10.5093 19.3333C10.6128 19.3333 10.7148 19.3092 10.8074 19.2629L11.8012 18.766C11.9302 18.7015 12.0349 18.5969 12.0994 18.4679L12.4016 17.8634C12.532 17.6026 12.8795 17.5462 13.0857 17.7524C13.2297 17.8964 13.252 18.1219 13.1391 18.2914L12.3698 19.4453C12.1655 19.7516 12.2483 20.1656 12.5547 20.3698L13.6302 21.0868C13.8541 21.2361 14.1458 21.2361 14.3698 21.0868L15.4453 20.3698C15.7516 20.1656 15.8344 19.7516 15.6302 19.4453L14.8609 18.2914C14.7479 18.1219 14.7703 17.8964 14.9143 17.7524C15.1204 17.5462 15.468 17.6026 15.5983 17.8634L15.9006 18.4679C15.9651 18.5969 16.0697 18.7015 16.1987 18.766L17.1926 19.2629C17.2851 19.3092 17.3872 19.3333 17.4907 19.3333L18.2546 19.3333C18.5071 19.3333 18.738 19.1907 18.8509 18.9648L19.1567 18.3532C19.2622 18.1423 19.2208 17.8875 19.0541 17.7207L19 17.6667C18.8159 17.4826 18.5174 17.4826 18.3333 17.6667C18.1492 17.8507 17.8507 17.8507 17.6666 17.6667L17.3722 17.3722C17.3464 17.3465 17.3167 17.325 17.2841 17.3087L17.1296 17.2315C16.8482 17.0908 16.9483 16.6667 17.2629 16.6667C17.3092 16.6667 17.3549 16.6559 17.3963 16.6352L18.5699 16.0484C18.634 16.0163 18.6925 15.9742 18.7431 15.9235L19.9235 14.7432C19.9741 14.6925 20.0163 14.634 20.0484 14.5699L20.5963 13.4741C20.6425 13.3815 20.6666 13.2794 20.6666 13.1759L20.6666 10.8889C20.6666 10.7446 20.6199 10.6043 20.5333 10.4889L19.507 9.12051C19.1702 8.67142 18.4631 8.81422 18.3269 9.35882L18.0177 10.5957C18.0059 10.6428 17.989 10.6886 17.9673 10.7321L17.3817 11.9032C17.3496 11.9673 17.3075 12.0258 17.2568 12.0765L16.9459 12.3874C16.7917 12.5416 16.7917 12.7917 16.9459 12.9459C17.1365 13.1365 17.0843 13.4578 16.8433 13.5784L16.5203 13.7398C16.2813 13.8593 16 13.6855 16 13.4182C16 13.3624 15.987 13.3073 15.962 13.2574L15.5482 12.4298C15.4199 12.1731 15.4702 11.8631 15.6731 11.6602L16.6666 10.6667L16.6793 10.654C17.001 10.3323 16.913 9.78984 16.506 9.58634L16.4298 9.54821C16.1731 9.41988 15.8631 9.47019 15.6602 9.67309L14.6666 10.6667Z"/><path fill="#215F90" fill-rule="evenodd" d="M12.6667 15.3333C12.6667 15.5788 13.0801 15.6604 13.1997 15.4461C13.4321 15.0295 13.7161 14.6666 14 14.6666C14.284 14.6666 14.5679 15.0295 14.8004 15.4461C14.92 15.6604 15.3334 15.5788 15.3334 15.3333L15.3334 15.3333C15.3334 14.2287 14.7364 13.3333 14 13.3333C13.2636 13.3333 12.6667 14.2287 12.6667 15.3333L12.6667 15.3333Z"/><path d="M14 14.6666C14.284 14.6666 14.568 15.0295 14.8004 15.4462C14.92 15.6605 15.3334 15.5788 15.3334 15.3333C15.3334 14.2287 14.7364 13.3333 14 13.3333C13.2636 13.3333 12.6667 14.2287 12.6667 15.3333C12.6667 15.5788 13.08 15.6605 13.1996 15.4462C13.4321 15.0295 13.716 14.6666 14 14.6666Z"/></g></svg>