<svg xmlns="http://www.w3.org/2000/svg" fill="none" viewBox="0 0 28 28" focusable="false"><path fill="none" d="M0 0h28v28H0z"/><rect width="28" height="20" y="4" fill="#FFF" rx="3"/><rect width="28" height="20" y="4" rx="3"/><mask id="Montenegro_svg__a" width="28" height="20" x="0" y="4" mask-type="alpha" maskUnits="userSpaceOnUse"><rect width="28" height="20" y="4" fill="#FFF" rx="3"/><rect width="28" height="20" y="4" stroke="#979797" stroke-opacity="0" stroke-width="0" rx="3"/></mask><g mask="url(#Montenegro_svg__a)"><path fill="#E6BE53" d="M0 4h28v20H0z"/><path d="M0 4h28v20H0z"/></g><g mask="url(#Montenegro_svg__a)"><path fill="#E01826" fill-rule="evenodd" d="M1.33 21.66c0 .55.45 1 1 1h23.33c.55 0 1-.45 1-1V6.33c0-.55-.45-1-1-1H2.33c-.55 0-1 .45-1 1z"/><path d="M25.66 22.66c.55 0 1-.45 1-1V6.33c0-.55-.45-1-1-1H2.33c-.55 0-1 .45-1 1v15.33c0 .55.45 1 1 1z"/></g><g mask="url(#Montenegro_svg__a)"><mask id="Montenegro_svg__b" fill="#fff"><path fill-rule="evenodd" d="m13.79 7.404-.767.255a.667.667 0 0 0-.26 1.104l.375.375a.667.667 0 0 0 .472.195h.78c.177 0 .347-.07.472-.195l.375-.375a.667.667 0 0 0-.26-1.104l-.766-.255a.666.666 0 0 0-.422 0m.681 3.458.196-.195.993-.994a.667.667 0 0 1 .77-.125l.076.038a.667.667 0 0 1 .173 1.068l-.012.013-.994.993a.667.667 0 0 0-.125.77l.414.827a.36.36 0 0 1 .038.161.36.36 0 0 0 .52.322l.323-.162a.395.395 0 0 0 .103-.632.395.395 0 0 1 0-.559l.31-.31c.052-.051.094-.11.126-.174l.585-1.17a.669.669 0 0 0 .05-.137l.31-1.237a.667.667 0 0 1 1.18-.238l1.026 1.368a.666.666 0 0 1 .134.4v2.287a.668.668 0 0 1-.07.298l-.549 1.096a.668.668 0 0 1-.124.173l-1.18 1.18a.666.666 0 0 1-.174.125l-1.174.587a.298.298 0 0 1-.133.032c-.315 0-.415.424-.133.564l.154.078a.34.34 0 0 1 .088.063l.295.295a.472.472 0 0 0 .666 0 .471.471 0 0 1 .667 0l.054.054a.548.548 0 0 1 .103.632l-.306.612a.667.667 0 0 1-.596.368h-.764a.666.666 0 0 1-.298-.07l-.994-.497a.667.667 0 0 1-.298-.298l-.303-.605a.427.427 0 1 0-.737.428l.77 1.154a.667.667 0 0 1-.186.925l-1.075.717a.667.667 0 0 1-.74 0l-1.075-.717a.667.667 0 0 1-.185-.925l.77-1.154a.427.427 0 1 0-.738-.428l-.303.605a.667.667 0 0 1-.298.298l-.994.497a.666.666 0 0 1-.298.07h-.764a.667.667 0 0 1-.596-.368l-.272-.543A.654.654 0 0 1 9 17.667a.471.471 0 0 1 .667 0 .472.472 0 0 0 .666 0l.257-.257a.67.67 0 0 1 .173-.125l.107-.053c.282-.141.182-.565-.133-.565a.298.298 0 0 1-.133-.032l-1.174-.587a.667.667 0 0 1-.173-.124l-1.18-1.18a.667.667 0 0 1-.125-.174l-.548-1.096a.667.667 0 0 1-.07-.298v-2.287c0-.144.046-.285.133-.4L8.493 9.12a.667.667 0 0 1 1.18.238l.31 1.237a.67.67 0 0 0 .05.136l.585 1.171a.667.667 0 0 0 .125.173l.311.311a.395.395 0 0 1 0 .559.395.395 0 0 0 .103.632l.323.162a.36.36 0 0 0 .52-.322.36.36 0 0 1 .038-.16l.414-.828a.667.667 0 0 0-.125-.77l-.994-.993-.012-.013a.667.667 0 0 1 .173-1.068l.076-.038a.667.667 0 0 1 .77.125l.993.994.196.195c.26.26.682.26.942 0" clip-rule="evenodd"/></mask><path fill="#E6BE53" fill-rule="evenodd" d="m13.79 7.404-.767.255a.667.667 0 0 0-.26 1.104l.375.375a.667.667 0 0 0 .472.195h.78c.177 0 .347-.07.472-.195l.375-.375a.667.667 0 0 0-.26-1.104l-.766-.255a.666.666 0 0 0-.422 0m.681 3.458.196-.195.993-.994a.667.667 0 0 1 .77-.125l.076.038a.667.667 0 0 1 .173 1.068l-.012.013-.994.993a.667.667 0 0 0-.125.77l.414.827a.36.36 0 0 1 .038.161.36.36 0 0 0 .52.322l.323-.162a.395.395 0 0 0 .103-.632.395.395 0 0 1 0-.559l.31-.31c.052-.051.094-.11.126-.174l.585-1.17a.669.669 0 0 0 .05-.137l.31-1.237a.667.667 0 0 1 1.18-.238l1.026 1.368a.666.666 0 0 1 .134.4v2.287a.668.668 0 0 1-.07.298l-.549 1.096a.668.668 0 0 1-.124.173l-1.18 1.18a.666.666 0 0 1-.174.125l-1.174.587a.298.298 0 0 1-.133.032c-.315 0-.415.424-.133.564l.154.078a.34.34 0 0 1 .088.063l.295.295a.472.472 0 0 0 .666 0 .471.471 0 0 1 .667 0l.054.054a.548.548 0 0 1 .103.632l-.306.612a.667.667 0 0 1-.596.368h-.764a.666.666 0 0 1-.298-.07l-.994-.497a.667.667 0 0 1-.298-.298l-.303-.605a.427.427 0 1 0-.737.428l.77 1.154a.667.667 0 0 1-.186.925l-1.075.717a.667.667 0 0 1-.74 0l-1.075-.717a.667.667 0 0 1-.185-.925l.77-1.154a.427.427 0 1 0-.738-.428l-.303.605a.667.667 0 0 1-.298.298l-.994.497a.666.666 0 0 1-.298.07h-.764a.667.667 0 0 1-.596-.368l-.272-.543A.654.654 0 0 1 9 17.667a.471.471 0 0 1 .667 0 .472.472 0 0 0 .666 0l.257-.257a.67.67 0 0 1 .173-.125l.107-.053c.282-.141.182-.565-.133-.565a.298.298 0 0 1-.133-.032l-1.174-.587a.667.667 0 0 1-.173-.124l-1.18-1.18a.667.667 0 0 1-.125-.174l-.548-1.096a.667.667 0 0 1-.07-.298v-2.287c0-.144.046-.285.133-.4L8.493 9.12a.667.667 0 0 1 1.18.238l.31 1.237a.67.67 0 0 0 .05.136l.585 1.171a.667.667 0 0 0 .125.173l.311.311a.395.395 0 0 1 0 .559.395.395 0 0 0 .103.632l.323.162a.36.36 0 0 0 .52-.322.36.36 0 0 1 .038-.16l.414-.828a.667.667 0 0 0-.125-.77l-.994-.993-.012-.013a.667.667 0 0 1 .173-1.068l.076-.038a.667.667 0 0 1 .77.125l.993.994.196.195c.26.26.682.26.942 0" clip-rule="evenodd" mask="url(#Montenegro_svg__b)"/></g><g mask="url(#Montenegro_svg__a)"><path fill="#215F90" fill-rule="evenodd" d="M12.66 15.33c0 .24.42.33.53.11.24-.42.52-.78.81-.78.28 0 .56.36.8.78.12.22.53.13.53-.11 0-1.11-.6-2-1.33-2-.74 0-1.34.89-1.34 2"/><path d="M14 14.66c.28 0 .56.36.8.78.12.22.53.13.53-.11 0-1.11-.6-2-1.33-2-.74 0-1.34.89-1.34 2 0 .24.42.33.53.11.24-.42.52-.78.81-.78"/></g></svg>