<svg xmlns="http://www.w3.org/2000/svg" fill="none" viewBox="0 0 28 28" focusable="false"><path fill="none" d="M0 0h28v28H0z"/><rect width="28" height="20" y="4" fill="#FFF" rx="3"/><rect width="28" height="20" y="4" rx="3"/><mask id="Mozambique_svg__a" width="28" height="20" x="0" y="4" mask-type="alpha" maskUnits="userSpaceOnUse"><rect width="28" height="20" y="4" fill="#FFF" rx="3"/><rect width="28" height="20" y="4" stroke="#979797" stroke-opacity="0" stroke-width="0" rx="3"/></mask><g mask="url(#Mozambique_svg__a)"><path fill="#FFE547" fill-rule="evenodd" d="M0 24h28v-5.34H0z"/><path d="M28 24v-5.34H0V24z"/></g><g mask="url(#Mozambique_svg__a)"><path fill="#118C81" fill-rule="evenodd" d="M0 9.33h28V4H0z"/><path d="M28 9.33V4H0v5.33z"/></g><g mask="url(#Mozambique_svg__a)"><path fill="#FFF" fill-rule="evenodd" d="M0 18.66h28V9.33H0z"/><path d="M28 18.66V9.33H0v9.33z"/></g><g mask="url(#Mozambique_svg__a)"><path fill="#262626" fill-rule="evenodd" d="M0 17.33h28v-6.67H0z"/><path d="M28 17.33v-6.67H0v6.67z"/></g><g mask="url(#Mozambique_svg__a)"><path fill="#EF2147" fill-rule="evenodd" d="m0 4 13.33 10L0 24z"/><path d="M13.33 14 0 24V4z"/></g><g mask="url(#Mozambique_svg__a)"><path fill="#FDE444" fill-rule="evenodd" d="M4.66 15.27 2.7 16.69l.75-2.3-1.96-1.42 2.42-.01.75-2.3.75 2.3 2.42.01-1.96 1.42.75 2.3z"/><path d="m2.7 16.69.75-2.3-1.96-1.42 2.42-.01.75-2.3.75 2.3 2.42.01-1.96 1.42.75 2.3-1.96-1.42z"/></g></svg>