<svg xmlns="http://www.w3.org/2000/svg" fill="none" viewBox="0 0 28 28" focusable="false"><defs><filter id="Namibia_svg__a"><feColorMatrix values="0 0 0 0 1 0 0 0 0 1 0 0 0 0 1 0 0 0 1 0"/></filter></defs><mask id="Namibia_svg__b" width="28" height="20" x="0" y="4" maskUnits="userSpaceOnUse"><g filter="url(#Namibia_svg__a)"><rect width="28" height="20" y="4" fill="#FFF" rx="3"/><rect width="28" height="20" y="4" stroke="#969696" stroke-opacity="0" stroke-width="0" rx="3"/></g></mask><path fill="none" d="M0 0H28V28H0z"/><rect width="28" height="20" y="4" fill="#FFF" rx="3"/><rect width="28" height="20" y="4" rx="3"/><g mask="url(#Namibia_svg__b)"><path fill="#0C4799" fill-rule="evenodd" d="M0 17.3333L28 4L0 4L0 17.3333Z"/><path d="M28 4L0 4L0 17.3333L28 4Z"/><path fill="#FFD243" fill-rule="evenodd" d="M4.66667 10L3.64618 11.1303L3.72386 9.60948L2.20299 9.68716L3.33333 8.66667L2.20299 7.64618L3.72386 7.72386L3.64618 6.20299L4.66667 7.33333L5.68716 6.20299L5.60948 7.72386L7.13035 7.64618L6 8.66667L7.13035 9.68716L5.60948 9.60948L5.68716 11.1303L4.66667 10Z"/><path d="M3.64618 11.1303L3.72386 9.60948L2.20299 9.68716L3.33333 8.66667L2.20299 7.64618L3.72386 7.72386L3.64618 6.20299L4.66667 7.33333L5.68716 6.20299L5.60948 7.72386L7.13035 7.64618L6 8.66667L7.13035 9.68716L5.60948 9.60948L5.68716 11.1303L4.66667 10L3.64618 11.1303Z"/><path fill="#1BAC55" fill-rule="evenodd" d="M0 24L28 24L28 10.6667L0 24Z"/><path d="M28 24L28 10.6667L0 24L28 24Z"/><path fill="#FFF" fill-rule="evenodd" d="M3.08239 26.6667L30.1707 9.74004L24.9176 1.33331L-2.17072 18.26L3.08239 26.6667Z"/><path d="M30.1707 9.74004L24.9176 1.33331L-2.17072 18.26L3.08239 26.6667L30.1707 9.74004Z"/><path fill="#E52347" fill-rule="evenodd" d="M-0.629192 27.0719L32.162 6.58169L28.6292 0.92804L-4.16199 21.4183L-0.629192 27.0719Z"/><path d="M32.162 6.58169L28.6292 0.92804L-4.16199 21.4183L-0.629192 27.0719L32.162 6.58169Z"/></g></svg>