<svg xmlns="http://www.w3.org/2000/svg" fill="none" mask="url(#Nauru_svg__a)" viewBox="0 0 28 28" focusable="false"><defs><filter id="Nauru_svg__b"><feColorMatrix values="0 0 0 0 1 0 0 0 0 1 0 0 0 0 1 0 0 0 1 0"/></filter></defs><mask id="Nauru_svg__a" width="28" height="20" x="0" y="4" maskUnits="userSpaceOnUse"><g filter="url(#Nauru_svg__b)"><rect width="28" height="20" y="4" fill="#0A2D7A" rx="3"/></g></mask><path fill="none" d="M0 0H28V28H0z"/><path fill="#0A2D7A" d="M0 4H28V24H0z"/><path fill="#F7C74B" d="M0 13H28V14.870000000000001H0z"/><path fill="#FFF" fill-rule="evenodd" d="M8.41937 16.608L9.6535 15.3092L9.14581 17.0274L10.864 16.5197L9.56521 17.7538L11.307 18.1732L9.56521 18.5926L10.864 19.8268L9.14581 19.3191L9.6535 21.0373L8.41937 19.7385L7.99996 21.4803L7.58055 19.7385L6.34641 21.0373L6.85411 19.3191L5.13594 19.8268L6.4347 18.5926L4.69287 18.1732L6.4347 17.7538L5.13594 16.5197L6.85411 17.0274L6.34642 15.3092L7.58055 16.608L7.99996 14.8661L8.41937 16.608Z"/></svg>