<svg xmlns="http://www.w3.org/2000/svg" fill="none" viewBox="0 0 28 28" focusable="false"><mask id="Nauru_svg__a" width="28" height="20" x="0" y="4" maskUnits="userSpaceOnUse" style="mask-type:alpha"><rect width="28" height="20" y="4" fill="#0A2D7A" rx="3"/></mask><g mask="url(#Nauru_svg__a)"><path fill="#0A2D7A" d="M0 4h28v20H0z"/><path fill="#F7C74B" d="M0 13h28v1.87H0z"/><path fill="#fff" d="m8 14.866.42 1.742 1.233-1.299-.507 1.718 1.718-.507-1.299 1.234 1.742.42-1.742.419 1.299 1.234-1.718-.508.507 1.718-1.234-1.299L8 21.48l-.42-1.742-1.234 1.3.508-1.719-1.718.508 1.299-1.234-1.742-.42 1.742-.42-1.3-1.233 1.72.507-.509-1.718 1.235 1.299L8 14.866Z"/></g></svg>