<svg xmlns="http://www.w3.org/2000/svg" fill="none" viewBox="0 0 28 28" focusable="false"><path fill="none" d="M0 0h28v28H0z"/><mask id="Nauru_svg__a" width="28" height="20" x="0" y="4" mask-type="alpha" maskUnits="userSpaceOnUse"><rect width="28" height="20" y="4" fill="#0a2d7a" rx="3"/></mask><g mask="url(#Nauru_svg__a)"><path fill="#0a2d7a" d="M0 4h28v20H0z"/></g><g mask="url(#Nauru_svg__a)"><path fill="#f7c74b" d="M0 13h28v1.87H0z"/></g><g mask="url(#Nauru_svg__a)"><path fill="#fff" fill-rule="evenodd" d="m7.99 14.86-.41 1.74-1.24-1.3.51 1.72-1.72-.51 1.3 1.24-1.74.42 1.74.42-1.3 1.23 1.72-.51-.51 1.72 1.24-1.3.41 1.75.42-1.75 1.24 1.3-.51-1.72 1.72.51-1.3-1.23 1.74-.42-1.74-.42 1.3-1.24-1.72.51.51-1.72-1.24 1.3z"/></g></svg>