<svg xmlns="http://www.w3.org/2000/svg" fill="none" viewBox="0 0 28 28" focusable="false"><path fill="none" d="M0 0h28v28H0z"/><rect width="28" height="20" y="4" fill="#fff" rx="3"/><rect width="27.5" height="19.5" x=".25" y="4.25" stroke="#d6d8dd" stroke-width=".5" rx="3"/><mask id="Netherlands_Antilles_Country_svg__a" width="28" height="20" x="0" y="4" mask-type="alpha" maskUnits="userSpaceOnUse"><rect width="28" height="20" y="4" fill="#fff" rx="3"/><rect width="27.5" height="19.5" x=".25" y="4.25" stroke="#f5f5f5" stroke-width=".5" rx="3"/></mask><g mask="url(#Netherlands_Antilles_Country_svg__a)"><path fill="#d6182d" d="M10.667 4h6.667v20h-6.667z"/><path d="M10.667 4h6.667v20h-6.667z"/></g><g mask="url(#Netherlands_Antilles_Country_svg__a)"><path fill="#1425a2" d="M0 10.667h28v6.667H0z"/><path d="M0 10.667h28v6.667H0z"/></g><g mask="url(#Netherlands_Antilles_Country_svg__a)"><path fill="#fff" fill-rule="evenodd" d="m11.33 15.66-.47.14.14-.47-.14-.47.47.14.47-.14-.14.47.14.47z"/><path d="m10.86 15.8.14-.47-.14-.47.47.14.47-.14-.14.47.14.47-.47-.14z"/></g><g mask="url(#Netherlands_Antilles_Country_svg__a)"><path fill="#fff" fill-rule="evenodd" d="m16.66 15.66-.47.14.14-.47-.14-.47.47.14.47-.14-.13.47.13.47z"/><path d="m16.19 15.8.14-.47-.14-.47.47.14.47-.14-.13.47.13.47-.47-.14z"/></g><g mask="url(#Netherlands_Antilles_Country_svg__a)"><path fill="#fff" fill-rule="evenodd" d="m8.66 14.33-.47.14.14-.47-.14-.48.47.14.47-.14L9 14l.13.47z"/><path d="m8.19 14.47.14-.47-.14-.48.47.14.47-.14L9 14l.13.47-.47-.14z"/></g><g mask="url(#Netherlands_Antilles_Country_svg__a)"><path fill="#fff" fill-rule="evenodd" d="m19.33 14.33-.47.14L19 14l-.14-.48.47.14.47-.14-.14.48.14.47z"/><path d="M18.86 14.47 19 14l-.14-.48.47.14.47-.14-.14.48.14.47-.47-.14z"/></g><g mask="url(#Netherlands_Antilles_Country_svg__a)"><path fill="#fff" fill-rule="evenodd" d="m14 13-.48.13.14-.47-.14-.47.48.14.47-.14-.14.47.14.47z"/><path d="m13.52 13.13.14-.47-.14-.47.48.14.47-.14-.14.47.14.47L14 13z"/></g></svg>