<svg xmlns="http://www.w3.org/2000/svg" fill="none" viewBox="0 0 28 28" focusable="false"><rect width="27.5" height="19.5" x=".25" y="4.25" fill="#fff" stroke="#D6D8DD" stroke-width=".5" rx="2.75"/><mask id="Netherlands_Antilles_Country_svg__a" width="28" height="20" x="0" y="4" maskUnits="userSpaceOnUse" style="mask-type:luminance"><rect width="27.5" height="19.5" x=".25" y="4.25" fill="#fff" stroke="#fff" stroke-width=".5" rx="2.75"/></mask><g mask="url(#Netherlands_Antilles_Country_svg__a)"><path fill="#D6182D" d="M10.667 4h6.667v20h-6.667z"/><path fill="#1425A2" d="M0 10.667h28v6.667H0z"/><path fill="#fff" fill-rule="evenodd" d="m11.333 15.667-.471.138.138-.472-.138-.471.471.138.472-.138-.138.471.138.472zM16.667 15.667l-.472.138.138-.472-.138-.471.472.138.471-.138-.138.471.138.472zM8.667 14.333l-.472.138.138-.471-.138-.471.472.138.471-.138L9 14l.138.471zM19.333 14.333l-.471.138L19 14l-.138-.471.471.138.472-.138-.138.471.138.471zM14 13l-.471.138.138-.471-.138-.472.471.138.471-.138-.138.472.138.471z" clip-rule="evenodd"/></g></svg>