<svg xmlns="http://www.w3.org/2000/svg" fill="none" viewBox="0 0 28 28" focusable="false"><mask id="New_Caledonia_svg__a" width="28" height="20" x="0" y="3.995" mask-type="alpha" maskUnits="userSpaceOnUse"><rect width="28" height="20" y="3.995" fill="#C4C4C4" rx="3"/></mask><g mask="url(#New_Caledonia_svg__a)"><path fill="#0D39A6" d="M0 3.995h28v6.67H0z"/></g><g mask="url(#New_Caledonia_svg__a)"><path fill="#DB4F40" d="M0 10.665h28v6.67H0z"/></g><g mask="url(#New_Caledonia_svg__a)"><path fill="#41924C" d="M0 17.335h28v6.67H0z"/></g><g mask="url(#New_Caledonia_svg__a)"><circle cx="10.955" cy="13.995" r="6" fill="#F7E54D"/><circle cx="10.955" cy="13.995" r="5.809" stroke="#000" stroke-width=".383"/></g><g mask="url(#New_Caledonia_svg__a)"><path fill="#000" fill-rule="evenodd" d="M10.71 8.31h.48v1.07c.32-.18.59-.37.72-.47-.09.28-.32.78-.72 1.18v.98c.32.1.56.4.56.76s-.24.66-.56.76v.16c.16 0 .52-.11.68-.56s.36-.59.44-.6c-.05.12-.12.32-.16.6-.06.44-.07.62-.28.76-.12.08-.2.2-.68.2v.04h.72v.4h-.72v.02c.32.07.56.27.56.5s-.24.43-.56.5v.02h.72v.4h-.72v.08c.48 0 .56.12.68.2.21.14.22.6.28 1.04.04.28.11.72.16.84-.08-.01-.28-.35-.44-.8s-.52-.72-.68-.72v.07c.23.15.4.51.4.93s-.17.78-.4.93v.32q.345.03.66.15l1.1 1.28s-.68.52-2 .52-2-.52-2-.52l1.1-1.28q.315-.12.66-.15v-.32c-.23-.15-.4-.51-.4-.93s.17-.78.4-.93v-.07c-.16 0-.52.27-.68.72s-.36.79-.44.8c.05-.12.12-.56.16-.84.06-.44.07-.9.28-1.04.12-.08.2-.2.68-.2v-.08h-.72v-.4h.72v-.02c-.32-.07-.56-.27-.56-.5s.24-.43.56-.5v-.02h-.72v-.4h.72v-.04c-.48 0-.56-.12-.68-.2-.21-.14-.22-.32-.28-.76a2.5 2.5 0 0 0-.16-.6c.08.01.28.15.44.6s.52.56.68.56v-.16c-.32-.1-.56-.4-.56-.76s.24-.66.56-.76v-.62c-.1.06-.21.1-.32.14l-.28.12c-.01-.06-.02-.13-.02-.21 0-.31.11-.72.54-.87.03-.01.05-.02.08-.03z"/></g></svg>