<svg xmlns="http://www.w3.org/2000/svg" fill="none" viewBox="0 0 28 28" focusable="false"><defs><filter id="Niger_svg__a"><feColorMatrix values="0 0 0 0 1 0 0 0 0 1 0 0 0 0 1 0 0 0 1 0"/></filter></defs><mask id="Niger_svg__b" width="28" height="20" x="0" y="4" maskUnits="userSpaceOnUse"><g filter="url(#Niger_svg__a)"><rect width="28" height="20" y="4" fill="#FFF" rx="3"/><rect width="27.5" height="19.5" x=".25" y="4.25" stroke="#F5F5F5" stroke-width=".5" rx="2.75"/></g></mask><path fill="none" d="M0 0H28V28H0z"/><rect width="28" height="20" y="4" fill="#FFF" rx="3"/><rect width="27.5" height="19.5" x=".25" y="4.25" stroke="#D6D8DD" stroke-width=".5" rx="2.75"/><g mask="url(#Niger_svg__b)"><path fill="#F0642F" fill-rule="evenodd" d="M0 10.6667L28 10.6667L28 4L0 4L0 10.6667Z"/><path d="M28 10.6667L28 4L0 4L0 10.6667L28 10.6667Z"/><path fill="#2DCC45" fill-rule="evenodd" d="M0 24L28 24L28 17.3333L0 17.3333L0 24Z"/><path d="M28 24L28 17.3333L0 17.3333L0 24L28 24Z"/><path fill="#E85C27" fill-rule="evenodd" d="M14 16.6666C15.4728 16.6666 16.6667 15.4727 16.6667 14C16.6667 12.5272 15.4728 11.3333 14 11.3333C12.5273 11.3333 11.3334 12.5272 11.3334 14C11.3334 15.4727 12.5273 16.6666 14 16.6666Z"/><path d="M16.6667 14C16.6667 12.5272 15.4728 11.3333 14 11.3333C12.5273 11.3333 11.3334 12.5272 11.3334 14C11.3334 15.4727 12.5273 16.6666 14 16.6666C15.4728 16.6666 16.6667 15.4727 16.6667 14Z"/></g></svg>