<svg xmlns="http://www.w3.org/2000/svg" fill="none" viewBox="0 0 28 28" focusable="false"><defs><clipPath id="Niue_svg__a"><path fill="#fff" fill-opacity="0" d="M28 28H0V0h28z"/></clipPath></defs><path fill="none" d="M28 28H0V0h28z"/><g clip-path="url(#Niue_svg__a)"><rect width="28" height="20" y="4" fill="#FFF" rx="3"/><rect width="27.5" height="19.5" x=".25" y="4.25" stroke="#F5F5F5" stroke-width=".5" rx="3"/><mask id="Niue_svg__b" width="28" height="20" x="0" y="4" mask-type="alpha" maskUnits="userSpaceOnUse"><rect width="28" height="20" y="4" fill="#FEDD00" rx="3"/><rect width="27.5" height="19.5" x=".25" y="4.25" stroke="#F5F5F5" stroke-opacity="0" stroke-width=".5" rx="3"/></mask><g mask="url(#Niue_svg__b)"><rect width="28" height="20" y="4" fill="#FEDD00" rx="3"/><rect width="27.5" height="19.5" x=".25" y="4.25" rx="3"/></g><g mask="url(#Niue_svg__b)"><path fill="#012169" d="M0 4h12.662v10H0z"/><path d="M.25 4.25h12.162v9.5H.25z"/></g><g mask="url(#Niue_svg__b)"><path fill="#C8102E" d="M12.66 3.99h-1.14l-4.16 3.9v.99zM0 14h1.13l4.17-3.9v-.99z"/><path fill="#FFF" d="M11.54 3.99h-1.13l-4.2 3.98v1zM1.11 14h1.14l4.19-3.98v-.99zM12.65 3.99 8.49 7.85v.99l4.16-3.85zM0 14l4.17-3.86v-.99L0 13zM12.66 11.99v1l-5.3-3.68v-1zM0 6V5l5.3 3.68v1z"/><path fill="#C8102E" d="M12.66 12.99v1l-5.3-3.68v-1zM0 5V4l5.3 3.68v1z"/><path fill="#FFF" d="M12.66 14h-1.44l-3.86-2.68v-1zM0 3.99h1.44L5.3 6.67v1z"/><path fill="#FFF" d="M7.332 4h1v10h-1z"/><path fill="#FFF" d="M7.332 4h1v10h-1zM4.332 4h1v10h-1z"/><path fill="#FFF" d="M4.332 4h1v10h-1z"/><path fill="#D9D9D9" d="M12.665 8v2H0V8z"/><path fill="#C8102E" d="M12.665 8v2H0V8z"/><path fill="#FFF" d="M12.665 10v1H0v-1z"/><path fill="#FFF" d="M12.665 10v1H0v-1zM12.665 7v1H0V7z"/><path fill="#FFF" d="M12.665 7v1H0V7z"/><path fill="#D9D9D9" d="M5.332 4h2v10h-2z"/><path fill="#C8102E" d="M5.332 4h2v10h-2z"/></g><circle cx="6.339" cy="9.077" r="1.595" fill="#012169"/><circle cx="6.339" cy="9.078" r=".902" fill="#FEDD00"/><circle cx="6.339" cy="5.932" r=".644" fill="#FEDD00"/><circle r=".644" fill="#FEDD00" transform="matrix(0 0 -1 1 9.485 9.079)"/><circle cx="6.339" cy="12.224" r=".644" fill="#FEDD00"/><circle r=".644" fill="#FEDD00" transform="matrix(0 0 -1 1 3.193 9.079)"/></g></svg>