<svg xmlns="http://www.w3.org/2000/svg" fill="none" viewBox="0 0 29 28" focusable="false"><path fill="none" d="M0 0h28v28H0z"/><rect width="28" height="20" y="4" fill="#FFF" rx="3"/><rect width="27.5" height="19.5" x=".25" y="4.25" stroke="#D6D8DD" stroke-width=".5" rx="3"/><mask id="Norfolk_Island_svg__a" width="28" height="20" x="0" y="4" mask-type="alpha" maskUnits="userSpaceOnUse"><rect width="28" height="20" y="4" fill="#C4C4C4" rx="3"/></mask><g mask="url(#Norfolk_Island_svg__a)"><path fill="#34763C" d="M0 4h9.33v20H0z"/></g><g mask="url(#Norfolk_Island_svg__a)"><path fill="#34763C" d="M18.67 4H28v20h-9.33z"/></g><g mask="url(#Norfolk_Island_svg__a)"><path fill="#34763C" fill-rule="evenodd" d="M12.94 16.39c.21-.22.21-.57 0-.79l-.08-.07a.46.46 0 0 0-.47-.13l-.38.09c-.44.11-.72-.47-.35-.74l.34-.26c.21-.16.1-.49-.17-.49-.29 0-.38-.4-.12-.53l.57-.28c.26-.14.17-.53-.12-.53-.27 0-.38-.34-.17-.5l1.61-1.2a.66.66 0 0 1 .8 0l1.6 1.2c.21.16.1.5-.17.5-.29 0-.38.39-.12.53l.57.28c.26.13.17.53-.12.53-.27 0-.38.33-.17.49l.34.26c.37.27.09.85-.35.74l-.38-.09a.46.46 0 0 0-.47.13l-.08.07c-.21.22-.21.57 0 .79.35.34.1.94-.39.94h-1.33c-.49 0-.74-.6-.39-.94"/><path d="M12.86 15.53a.46.46 0 0 0-.47-.13c-.53.13-.86-.56-.42-.88l.03-.03c.21-.16.1-.49-.17-.49-.29 0-.38-.4-.12-.53l.57-.28c.26-.14.17-.53-.12-.53-.27 0-.38-.34-.17-.5l1.61-1.2a.66.66 0 0 1 .8 0l1.6 1.2c.21.16.1.5-.17.5-.29 0-.38.39-.12.53l.57.28c.26.13.17.53-.12.53-.27 0-.38.33-.17.49l.34.26c.37.27.09.85-.35.74l-.38-.09a.46.46 0 0 0-.47.13l-.08.07c-.21.22-.21.57 0 .79.35.34.1.94-.39.94h-1.33c-.49 0-.74-.6-.39-.94.21-.22.21-.57 0-.79z"/></g></svg>