<svg xmlns="http://www.w3.org/2000/svg" width="28" height="28" fill="none"><rect width="27.5" height="19.5" x=".25" y="4.25" fill="#fff" stroke="#D6D8DD" stroke-width=".5" rx="2.75"/><mask id="a" width="28" height="20" x="0" y="4" maskUnits="userSpaceOnUse" style="mask-type:alpha"><rect width="28" height="20" y="4" fill="#C4C4C4" rx="3"/></mask><g fill="#34763C" mask="url(#a)"><path d="M0 4h9.33v20H0zM18.67 4H28v20h-9.33z"/><path fill-rule="evenodd" d="M12.943 16.39a.552.552 0 0 0 0-.78l-.077-.077a.498.498 0 0 0-.473-.131l-.38.095c-.443.11-.718-.468-.352-.742l.342-.258a.276.276 0 0 0-.165-.497c-.292 0-.385-.393-.124-.524l.572-.286c.261-.13.168-.523-.123-.523a.276.276 0 0 1-.166-.498l1.603-1.202a.667.667 0 0 1 .8 0l1.603 1.202c.213.16.1.498-.165.498-.292 0-.385.393-.124.523l.572.286c.261.13.168.524-.123.524a.276.276 0 0 0-.166.498l.342.257c.366.274.09.852-.353.741l-.38-.094a.498.498 0 0 0-.472.13l-.077.078a.552.552 0 0 0 0 .78.552.552 0 0 1-.39.943h-1.334a.552.552 0 0 1-.39-.942Z" clip-rule="evenodd"/></g></svg>