<svg xmlns="http://www.w3.org/2000/svg" fill="none" viewBox="0 0 28 28" focusable="false"><rect width="28" height="20" y="4" fill="#0033A1" rx="3"/><path fill="#E255AE" d="M7.944 18.992c.423-.423.978-.554 1.24-.293.261.262.397 1.077-.292 1.24-.69.163-1.744 1.32-2.006 1.058-.261-.262.635-1.582 1.058-2.005M18.965 19.889c-.423-.423-.554-.978-.292-1.24.261-.261 1.076-.397 1.24.293.162.689 1.319 1.743 1.057 2.005-.261.261-1.582-.635-2.005-1.058"/><circle cx="14" cy="14" r="6.648" stroke="#fff" stroke-width="3"/><circle cx="14" cy="13.999" r="6.634" stroke="#F87D6E" stroke-width=".5"/><path fill="#D9D9D9" d="M14 13.393a2.896 2.896 0 0 0 2.852-2.397c.047-.272-.18-.498-.457-.498h-4.79c-.276 0-.505.226-.457.498A2.896 2.896 0 0 0 14 13.393"/><path fill="#D9D9D9" d="M12.754 13.322a.5.5 0 0 1 .497-.443h1.498a.5.5 0 0 1 .497.443l.959 8.269a.5.5 0 0 1-.497.557h-3.416a.5.5 0 0 1-.497-.557z"/><path fill="#fff" stroke="#000" stroke-width=".3" d="m14.143 12.343-.143-.44-.143.44-.736 2.267h-2.846l.374.271 1.928 1.401-.736 2.267-.143.439.374-.271L14 17.316l1.928 1.4.374.272-.143-.44-.736-2.266 1.928-1.401.373-.271H14.88z"/><path fill="#E255AE" d="M6.56 13.517c.594-.068 1.11.174 1.153.541.042.368-.358 1.09-1 .79-.64-.3-2.186-.049-2.228-.416-.043-.368 1.48-.846 2.075-.915M8.969 8.923c.423.422.553.977.292 1.239-.262.262-1.077.397-1.24-.292-.163-.69-1.32-1.744-1.058-2.006.262-.261 1.583.636 2.006 1.059M21.013 10.583c-.423.423-.978.554-1.24.293-.261-.262-.396-1.077.293-1.24.689-.163 1.744-1.32 2.005-1.058.262.262-.635 1.582-1.058 2.005M21.281 15.449c-.598 0-1.083-.3-1.083-.67 0-.37.48-1.042 1.083-.67s2.166.3 2.166.67c0 .37-1.568.67-2.166.67M14.724 6.944c0 .598-.3 1.083-.67 1.083-.37 0-1.042-.48-.67-1.083.373-.602.3-2.166.67-2.166.37 0 .67 1.568.67 2.166"/></svg>