<svg xmlns="http://www.w3.org/2000/svg" fill="none" viewBox="0 0 29 28" focusable="false"><path fill="none" d="M0 0h28v28H0z"/><rect width="28" height="20" y="4" fill="#fff" rx="3"/><rect width="28" height="20" y="4" rx="3"/><mask id="North_Macedonia_svg__a" width="28" height="20" x="0" y="4" mask-type="alpha" maskUnits="userSpaceOnUse"><rect width="28" height="20" y="4" fill="#fff" rx="3"/><rect width="28" height="20" y="4" stroke="#979797" stroke-opacity="0" stroke-width="0" rx="3"/></mask><g mask="url(#North_Macedonia_svg__a)"><path fill="#e81b26" d="M0 4h28v20H0z"/><path d="M0 4h28v20H0z"/></g><g mask="url(#North_Macedonia_svg__a)"><path fill="#ffe94f" fill-rule="evenodd" d="M14 17.33c1.84 0 3.33-1.49 3.33-3.33 0-1.85-1.49-3.34-3.33-3.34-1.85 0-3.34 1.49-3.34 3.34 0 1.84 1.49 3.33 3.34 3.33"/><path d="M17.33 14c0-1.85-1.49-3.34-3.33-3.34-1.85 0-3.34 1.49-3.34 3.34 0 1.84 1.49 3.33 3.34 3.33 1.84 0 3.33-1.49 3.33-3.33"/></g><g mask="url(#North_Macedonia_svg__a)"><mask id="North_Macedonia_svg__b" fill="#fff"><path fill-rule="evenodd" d="M13.085 9.423 12 4h4l-1.085 5.423a4.7 4.7 0 0 0-1.83 0m-2.877 1.856q.303-.421.69-.765L1.962.469-.715 3.442zM9.38 13.34a4.7 4.7 0 0 0 0 1.32L0 16v-4zm1.518 4.147a4.7 4.7 0 0 1-.69-.766L-.715 24.558l2.677 2.973zm6.204-6.973q.387.343.69.765l10.923-7.837L26.038.469zm-4.017 8.063L12 24h4l-1.085-5.423a4.7 4.7 0 0 1-1.83 0m4.707-1.856q-.303.422-.69.765l8.936 10.045 2.677-2.973zm.828-3.381a4.7 4.7 0 0 1 0 1.32L28 16v-4z" clip-rule="evenodd"/></mask><path fill="#ffe94f" fill-rule="evenodd" d="M13.085 9.423 12 4h4l-1.085 5.423a4.7 4.7 0 0 0-1.83 0m-2.877 1.856q.303-.421.69-.765L1.962.469-.715 3.442zM9.38 13.34a4.7 4.7 0 0 0 0 1.32L0 16v-4zm1.518 4.147a4.7 4.7 0 0 1-.69-.766L-.715 24.558l2.677 2.973zm6.204-6.973q.387.343.69.765l10.923-7.837L26.038.469zm-4.017 8.063L12 24h4l-1.085-5.423a4.7 4.7 0 0 1-1.83 0m4.707-1.856q-.303.422-.69.765l8.936 10.045 2.677-2.973zm.828-3.381a4.7 4.7 0 0 1 0 1.32L28 16v-4z" clip-rule="evenodd" mask="url(#North_Macedonia_svg__b)"/></g></svg>