<svg xmlns="http://www.w3.org/2000/svg" fill="none" viewBox="0 0 28 28" focusable="false"><path fill="none" d="M0 0h28v28H0z"/><rect width="28" height="20" y="4" fill="#FFF" rx="3"/><rect width="27.5" height="19.5" x=".25" y="4.25" stroke="#D6D8DD" stroke-width=".5" rx="3"/><mask id="Oman_svg__a" width="28" height="20" x="0" y="4" mask-type="alpha" maskUnits="userSpaceOnUse"><rect width="28" height="20" y="4" fill="#FFF" rx="3"/><rect width="27.5" height="19.5" x=".25" y="4.25" stroke="#F5F5F5" stroke-width=".5" rx="3"/></mask><g mask="url(#Oman_svg__a)"><path fill="#138E16" fill-rule="evenodd" d="M0 24h28v-6.67H0z"/><path d="M28 24v-6.67H0V24z"/></g><g mask="url(#Oman_svg__a)"><path fill="#ED2B35" fill-rule="evenodd" d="M0 24h9.33v-6.67H28v-6.67H9.33V4H0z"/><path d="M9.33 24v-6.67H28v-6.67H9.33V4H0v20z"/></g><g mask="url(#Oman_svg__a)"><path fill="#FFF" fill-rule="evenodd" d="M4.66 8.71 3.5 10.4l.61-1.96-2.05.15 1.91-.75-1.39-1.51 1.77 1.02.31-2.02.31 2.02 1.78-1.02-1.39 1.51 1.9.75-2.04-.15.6 1.96z"/><path d="m3.5 10.4.61-1.96-2.05.15 1.91-.75-1.39-1.51 1.77 1.02.31-2.02.31 2.02 1.78-1.02-1.39 1.51 1.9.75-2.04-.15.6 1.96-1.16-1.69z"/></g></svg>