<svg xmlns="http://www.w3.org/2000/svg" fill="none" viewBox="0 0 28 28" focusable="false"><defs><filter id="Oman_svg__a"><feColorMatrix values="0 0 0 0 1 0 0 0 0 1 0 0 0 0 1 0 0 0 1 0"/></filter></defs><mask id="Oman_svg__b" width="28" height="20" x="0" y="4" maskUnits="userSpaceOnUse"><g filter="url(#Oman_svg__a)"><rect width="28" height="20" y="4" fill="#FFF" rx="3"/><rect width="27.5" height="19.5" x=".25" y="4.25" stroke="#F5F5F5" stroke-width=".5" rx="2.75"/></g></mask><path fill="none" d="M0 0H28V28H0z"/><rect width="28" height="20" y="4" fill="#FFF" rx="3"/><rect width="27.5" height="19.5" x=".25" y="4.25" stroke="#D6D8DD" stroke-width=".5" rx="2.75"/><g mask="url(#Oman_svg__b)"><path fill="#138E16" fill-rule="evenodd" d="M0 24L28 24L28 17.3333L0 17.3333L0 24Z"/><path d="M28 24L28 17.3333L0 17.3333L0 24L28 24Z"/><path fill="#ED2B35" fill-rule="evenodd" d="M0 24L9.33333 24L9.33333 17.3333L28 17.3333L28 10.6667L9.33333 10.6667L9.33333 4L0 4L0 24Z"/><path d="M9.33333 24L9.33333 17.3333L28 17.3333L28 10.6667L9.33333 10.6667L9.33333 4L0 4L0 24L9.33333 24Z"/><path fill="#FFF" fill-rule="evenodd" d="M4.66667 8.71174L3.50964 10.4026L4.11019 8.44375L2.06686 8.59337L3.97275 7.8416L2.58178 6.33734L4.35785 7.35871L4.66667 5.33331L4.97549 7.35871L6.75155 6.33734L5.36058 7.8416L7.26647 8.59337L5.22314 8.44375L5.82369 10.4026L4.66667 8.71174Z"/><path d="M3.50964 10.4026L4.11019 8.44375L2.06686 8.59337L3.97275 7.8416L2.58178 6.33734L4.35785 7.35871L4.66667 5.33331L4.97549 7.35871L6.75155 6.33734L5.36058 7.8416L7.26647 8.59337L5.22314 8.44375L5.82369 10.4026L4.66667 8.71174L3.50964 10.4026Z"/></g></svg>