<svg xmlns="http://www.w3.org/2000/svg" fill="none" viewBox="0 0 28 28" focusable="false"><path fill="none" d="M0 0h28v28H0z"/><rect width="28" height="20" y="4" fill="#FFF" rx="3"/><rect width="27.5" height="19.5" x=".25" y="4.25" stroke="#D6D8DD" stroke-width=".5" rx="3"/><mask id="Pakistan_svg__a" width="28" height="20" x="0" y="4" mask-type="alpha" maskUnits="userSpaceOnUse"><rect width="28" height="20" y="4" fill="#FFF" rx="3"/><rect width="27.5" height="19.5" x=".25" y="4.25" stroke="#F5F5F5" stroke-width=".5" rx="3"/></mask><g mask="url(#Pakistan_svg__a)"><mask id="Pakistan_svg__b" fill="#fff"><path fill-rule="evenodd" d="M8 24h20V4H8z" clip-rule="evenodd"/></mask><path fill="#0A632F" fill-rule="evenodd" d="M8 24h20V4H8z" clip-rule="evenodd" mask="url(#Pakistan_svg__b)"/></g><g mask="url(#Pakistan_svg__a)"><mask id="Pakistan_svg__c" fill="#fff"><path fill-rule="evenodd" d="M23.67 14.75a5.58 5.58 0 0 1-1.604 3.395c-2.245 2.246-5.965 2.167-8.309-.176s-2.422-6.063-.176-8.31a5.58 5.58 0 0 1 3.395-1.603 5.6 5.6 0 0 0-1.107.86c-2.042 2.041-2.143 5.25-.226 7.167 1.917 1.918 5.126 1.817 7.168-.225.34-.34.627-.713.86-1.107m-2.896-.747.318-1.898 1.899-.319-1.707-.889.284-1.904-1.374 1.35-1.723-.86.859 1.724-1.349 1.373 1.904-.284z" clip-rule="evenodd"/></mask><path fill="#FFF" fill-rule="evenodd" d="M23.67 14.75a5.58 5.58 0 0 1-1.604 3.395c-2.245 2.246-5.965 2.167-8.309-.176s-2.422-6.063-.176-8.31a5.58 5.58 0 0 1 3.395-1.603 5.6 5.6 0 0 0-1.107.86c-2.042 2.041-2.143 5.25-.226 7.167 1.917 1.918 5.126 1.817 7.168-.225.34-.34.627-.713.86-1.107m-2.896-.747.318-1.898 1.899-.319-1.707-.889.284-1.904-1.374 1.35-1.723-.86.859 1.724-1.349 1.373 1.904-.284z" clip-rule="evenodd" mask="url(#Pakistan_svg__c)"/></g></svg>