<svg xmlns="http://www.w3.org/2000/svg" fill="none" viewBox="0 0 28 28" focusable="false"><defs><filter id="Pakistan_svg__a"><feColorMatrix values="0 0 0 0 1 0 0 0 0 1 0 0 0 0 1 0 0 0 1 0"/></filter></defs><mask id="Pakistan_svg__b" width="28" height="20" x="0" y="4" maskUnits="userSpaceOnUse"><g filter="url(#Pakistan_svg__a)"><rect width="28" height="20" y="4" fill="#FFF" rx="3"/><rect width="27.5" height="19.5" x=".25" y="4.25" stroke="#F5F5F5" stroke-width=".5" rx="2.75"/></g></mask><path fill="none" d="M0 0H28V28H0z"/><rect width="28" height="20" y="4" fill="#FFF" rx="3"/><rect width="27.5" height="19.5" x=".25" y="4.25" stroke="#D6D8DD" stroke-width=".5" rx="2.75"/><g mask="url(#Pakistan_svg__b)"><path fill="#0A632F" fill-rule="evenodd" d="M28 24L28 4L8 4L8 24L28 24Z"/><path d="M28 24L28 4L8 4L8 24L28 24Z"/><path fill="#FFF" fill-rule="evenodd" d="M9.28514 10.7336C8.31005 11.5272 7.0834 12 5.7509 12C2.57477 12 0 9.31371 0 6C0 2.68629 2.57477 0 5.7509 0C7.0834 0 8.31005 0.472813 9.28514 1.26641C8.84242 1.15201 8.37619 1.09091 7.89476 1.09091C5.00736 1.09091 2.66667 3.28878 2.66667 6C2.66667 8.71122 5.00736 10.9091 7.89476 10.9091C8.37619 10.9091 8.84242 10.848 9.28514 10.7336ZM7.76591 8.15738L9.33333 7.04L10.9008 8.15738L10.3224 6.32138L11.8695 5.17595L9.94463 5.15862L9.33333 3.33333L8.72204 5.15862L6.79718 5.17595L8.34423 6.32138L7.76591 8.15738Z" transform="rotate(-45 21.326 -4.622)"/><path d="M9.28514 10.7336C8.31005 11.5272 7.0834 12 5.7509 12C2.57477 12 0 9.31371 0 6C0 2.68629 2.57477 0 5.7509 0C7.0834 0 8.31005 0.472813 9.28514 1.26641C8.84242 1.15201 8.37619 1.09091 7.89476 1.09091C5.00736 1.09091 2.66667 3.28878 2.66667 6C2.66667 8.71122 5.00736 10.9091 7.89476 10.9091C8.37619 10.9091 8.84242 10.848 9.28514 10.7336ZM7.76591 8.15738L9.33333 7.04L10.9008 8.15738L10.3224 6.32138L11.8695 5.17595L9.94463 5.15862L9.33333 3.33333L8.72204 5.15862L6.79718 5.17595L8.34423 6.32138L7.76591 8.15738Z" transform="rotate(-45 21.326 -4.622)"/></g></svg>