<svg xmlns="http://www.w3.org/2000/svg" fill="none" viewBox="0 0 28 28" focusable="false"><path fill="none" d="M0 0h28v28H0z"/><rect width="28" height="20" y="4" fill="#fff" rx="3"/><rect width="27.5" height="19.5" x=".25" y="4.25" stroke="#d6d8dd" stroke-width=".5" rx="3"/><mask id="Panama_svg__a" width="28" height="20" x="0" y="4" mask-type="alpha" maskUnits="userSpaceOnUse"><rect width="28" height="20" y="4" fill="#fff" rx="3"/><rect width="27.5" height="19.5" x=".25" y="4.25" stroke="#f5f5f5" stroke-width=".5" rx="3"/></mask><g mask="url(#Panama_svg__a)"><mask id="Panama_svg__b" fill="#fff"><path fill-rule="evenodd" d="M28 13.333H13.333V4H28z" clip-rule="evenodd"/></mask><path fill="#e52448" fill-rule="evenodd" d="M28 13.333H13.333V4H28z" clip-rule="evenodd" mask="url(#Panama_svg__b)"/></g><g mask="url(#Panama_svg__a)"><mask id="Panama_svg__c" fill="#fff"><path fill-rule="evenodd" d="M13.333 24H0V13.333h13.333z" clip-rule="evenodd"/></mask><path fill="#1367ae" fill-rule="evenodd" d="M13.333 24H0V13.333h13.333z" clip-rule="evenodd" mask="url(#Panama_svg__c)"/></g><g mask="url(#Panama_svg__a)"><path fill="#1367ae" fill-rule="evenodd" d="m6.66 9.75-1.57 1.07L5.62 9 4.13 7.84l1.89-.06L6.66 6l.64 1.78 1.9.06L7.7 9l.53 1.82z"/><path d="M5.09 10.82 5.62 9 4.13 7.84l1.89-.06L6.66 6l.64 1.78 1.9.06L7.7 9l.53 1.82-1.57-1.07z"/></g><g mask="url(#Panama_svg__a)"><path fill="#e52448" fill-rule="evenodd" d="m20.66 19.76-1.57 1.06.53-1.82-1.49-1.16 1.89-.06.64-1.78.64 1.78 1.9.06L21.7 19l.53 1.82z"/><path d="m19.09 20.82.53-1.82-1.49-1.16 1.89-.06.64-1.78.64 1.78 1.9.06L21.7 19l.53 1.82-1.57-1.06z"/></g></svg>