<svg xmlns="http://www.w3.org/2000/svg" fill="none" viewBox="0 0 28 28" focusable="false"><path fill="none" d="M0 0h28v28H0z"/><rect width="28" height="20" y="4" fill="#FFF" rx="3"/><rect width="28" height="20" y="4" rx="3"/><mask id="Papua_New_Guinea_svg__a" width="28" height="20" x="0" y="4" mask-type="alpha" maskUnits="userSpaceOnUse"><rect width="28" height="20" y="4" fill="#FFF" rx="3"/><rect width="28" height="20" y="4" stroke="#979797" stroke-opacity="0" stroke-width="0" rx="3"/></mask><g mask="url(#Papua_New_Guinea_svg__a)"><path fill="#262626" d="M0 4h28v20H0z"/><path d="M0 4h28v20H0z"/></g><g mask="url(#Papua_New_Guinea_svg__a)"><path fill="#E8283F" fill-rule="evenodd" d="M0 4h28v20z"/><path d="M28 4v20L0 4z"/></g><g mask="url(#Papua_New_Guinea_svg__a)"><path fill="#FFF" fill-rule="evenodd" d="m6.66 20.66-.94.28L6 20l-.28-.95.94.28.94-.28-.27.95.27.94z"/><path d="M5.72 20.94 6 20l-.28-.95.94.28.94-.28-.27.95.27.94-.94-.28z"/></g><g mask="url(#Papua_New_Guinea_svg__a)"><path fill="#FFF" fill-rule="evenodd" d="m6.66 12.66-.94.28L6 12l-.28-.95.94.28.94-.28-.27.95.27.94z"/><path d="M5.72 12.94 6 12l-.28-.95.94.28.94-.28-.27.95.27.94-.94-.28z"/></g><g mask="url(#Papua_New_Guinea_svg__a)"><path fill="#FFF" fill-rule="evenodd" d="m3.33 16-.94.27.27-.94-.27-.94.94.27.94-.27-.27.94.27.94z"/><path d="m2.39 16.27.27-.94-.27-.94.94.27.94-.27-.27.94.27.94-.94-.27z"/></g><g mask="url(#Papua_New_Guinea_svg__a)"><path fill="#FFF" fill-rule="evenodd" d="m9.33 15.33-.94.27.27-.94-.27-.94.94.28.94-.28-.27.94.27.94z"/><path d="m8.39 15.6.27-.94-.27-.94.94.28.94-.28-.27.94.27.94-.94-.27z"/></g><g mask="url(#Papua_New_Guinea_svg__a)"><path fill="#FFD84E" fill-rule="evenodd" d="M18.86 13.26a.657.657 0 0 1-.29-.5v-1.23c0-.18-.13-.28-.33-.22l-.76.25c-.18.06-.46.07-.65 0l-.76-.25c-.18-.06-.2-.18-.04-.28l1.78-1.07c.16-.1.24-.3.18-.5l-.26-.76c-.06-.18.02-.28.22-.22l.76.26c.18.06.4-.02.5-.18l1.07-1.78c.1-.16.22-.16.28.04l.25.75c.07.18.07.46 0 .66l-.25.76c-.06.18.04.33.22.33h1.23c.18 0 .4.12.5.28l1.07 1.78c.1.16.02.32-.15.36l-1.71.34c-.18.04-.36.22-.39.39l-.34 1.7c-.04.18-.19.26-.35.16z"/><path d="M18.57 12.76v-1.23c0-.18-.13-.28-.33-.22l-.76.25c-.18.06-.46.07-.65 0l-.76-.25c-.18-.06-.2-.18-.04-.28l1.78-1.07c.16-.1.24-.3.18-.5l-.26-.76c-.06-.18.02-.28.22-.22l.76.26c.18.06.4-.02.5-.18l1.07-1.78c.1-.16.22-.16.28.04l.25.75c.07.18.07.46 0 .66l-.25.76c-.06.18.04.33.22.33h1.23c.18 0 .4.12.5.28l1.07 1.78c.1.16.02.32-.15.36l-1.71.34c-.18.04-.36.22-.39.39l-.34 1.7c-.04.18-.19.26-.35.16l-1.78-1.07a.657.657 0 0 1-.29-.5"/></g></svg>