<svg xmlns="http://www.w3.org/2000/svg" fill="none" viewBox="0 0 28 28" focusable="false"><rect width="28" height="20" y="4" fill="#fff" rx="3"/><mask id="Papua_New_Guinea_svg__a" width="28" height="20" x="0" y="4" maskUnits="userSpaceOnUse" style="mask-type:luminance"><rect width="28" height="20" y="4" fill="#fff" rx="3"/></mask><g mask="url(#Papua_New_Guinea_svg__a)"><path fill="#262626" d="M0 4h28v20H0z"/><path fill="#E8283F" fill-rule="evenodd" d="M0 4h28v20z" clip-rule="evenodd"/><path fill="#fff" fill-rule="evenodd" d="m6.667 20.667-.943.276L6 20l-.276-.943.943.276.942-.276-.276.943.276.943-.942-.276M6.667 12.667l-.943.276L6 12l-.276-.943.943.276.942-.276-.276.943.276.943-.942-.276M3.333 16l-.942.276.276-.943-.276-.943.942.277.943-.277-.276.943.276.943L3.333 16M9.333 15.333l-.942.277.276-.943-.276-.943.942.276.943-.276-.276.943.276.943-.943-.277" clip-rule="evenodd"/><path fill="#FFD84E" fill-rule="evenodd" d="M18.861 13.266a.653.653 0 0 1-.289-.502v-1.229c0-.181-.13-.285-.328-.22l-.758.254a1.16 1.16 0 0 1-.656 0l-.758-.253c-.181-.06-.201-.186-.04-.283l1.78-1.067a.43.43 0 0 0 .18-.502l-.253-.758c-.06-.181.02-.284.218-.219l.759.253a.442.442 0 0 0 .501-.18l1.067-1.779c.096-.16.217-.158.283.04l.253.758c.06.18.066.458 0 .656l-.253.758c-.06.181.039.328.22.328h1.228c.181 0 .404.127.502.289l1.067 1.779c.096.16.019.32-.154.354l-1.702.34a.552.552 0 0 0-.393.394l-.34 1.702c-.036.18-.193.251-.355.154l-1.779-1.067" clip-rule="evenodd"/></g></svg>