<svg xmlns="http://www.w3.org/2000/svg" fill="none" viewBox="0 0 28 28" focusable="false"><path fill="none" d="M0 0h28v28H0z"/><rect width="28" height="20" y="4" fill="#FFF" rx="3"/><rect width="27.5" height="19.5" x=".25" y="4.25" stroke="#D6D8DD" stroke-width=".5" rx="3"/><mask id="Paraguay_svg__a" width="28" height="20" x="0" y="4" mask-type="alpha" maskUnits="userSpaceOnUse"><rect width="28" height="20" y="4" fill="#FFF" rx="3"/><rect width="27.5" height="19.5" x=".25" y="4.25" stroke="#F5F5F5" stroke-width=".5" rx="3"/></mask><g mask="url(#Paraguay_svg__a)"><path fill="#E33F39" fill-rule="evenodd" d="M0 10.66h28V4H0z"/><path d="M28 10.66V4H0v6.66z"/></g><g mask="url(#Paraguay_svg__a)"><path fill="#124BBA" fill-rule="evenodd" d="M0 24h28v-6.67H0z"/><path d="M28 24v-6.67H0V24z"/></g><g mask="url(#Paraguay_svg__a)"><path fill="none" d="M14 16a2 2 0 1 0 0-4c-1.11 0-2 .89-2 2a2 2 0 0 0 2 2"/><path fill="#398153" fill-rule="evenodd" d="M16.6 14.57q.06-.28.06-.57 0-.3-.06-.58-.05-.24-.15-.46-.09-.23-.23-.43-.15-.23-.34-.42-.19-.19-.42-.34-.2-.14-.43-.23-.22-.1-.46-.15-.28-.06-.57-.06-.3 0-.58.06-.24.05-.46.15-.23.09-.43.23-.23.15-.42.34-.19.19-.34.42-.14.2-.23.43-.1.22-.15.46-.06.28-.06.58 0 .29.06.57.05.24.15.46.09.23.23.43.15.23.34.42.19.19.42.34.2.14.43.23.22.1.46.15.28.06.58.06.29 0 .57-.06.24-.05.46-.15.23-.09.43-.23.23-.15.42-.34.19-.19.34-.42.14-.2.23-.43.1-.22.15-.46M16 14a2 2 0 1 1-4 0c0-1.11.89-2 2-2a2 2 0 0 1 2 2"/></g><g mask="url(#Paraguay_svg__a)"><path fill="#E5CF58" fill-rule="evenodd" d="M14 14.66a.666.666 0 0 0 0-1.33c-.37 0-.67.3-.67.67 0 .36.3.66.67.66"/><path d="M14.66 14c0-.37-.3-.67-.66-.67-.37 0-.67.3-.67.67a.666.666 0 0 0 1.33 0"/></g></svg>