<svg xmlns="http://www.w3.org/2000/svg" fill="none" viewBox="0 0 28 28" focusable="false"><rect width="27.5" height="19.5" x=".25" y="4.25" fill="#fff" stroke="#D6D8DD" stroke-width=".5" rx="2.75"/><mask id="Philippines_svg__a" width="28" height="20" x="0" y="4" maskUnits="userSpaceOnUse" style="mask-type:luminance"><rect width="27.5" height="19.5" x=".25" y="4.25" fill="#fff" stroke="#fff" stroke-width=".5" rx="2.75"/></mask><g fill-rule="evenodd" clip-rule="evenodd" mask="url(#Philippines_svg__a)"><path fill="#DD1C34" d="M0 24h28V13.333H12.444l.89.667z"/><path fill="#0D4BC3" d="M28 13.333H12.444L0 4h28z"/><path fill="#FDD64D" d="M2 8a.667.667 0 1 0 0-1.333A.667.667 0 0 0 2 8m8 6.667a.667.667 0 1 0 0-1.334.667.667 0 0 0 0 1.334m-7.333 6a.667.667 0 1 1-1.334 0 .667.667 0 0 1 1.334 0m1.865-5.34-1.14 1.753.432-2.047a1.344 1.344 0 0 1-.19-.19l-2.047.433 1.753-1.141a1.352 1.352 0 0 1 0-.27l-1.753-1.14 2.047.432c.056-.07.12-.133.19-.19L3.39 10.92l1.141 1.753a1.33 1.33 0 0 1 .27 0l1.14-1.753-.432 2.047c.07.057.133.12.19.19l2.046-.433-1.753 1.141a1.35 1.35 0 0 1 0 .27l1.753 1.14-2.046-.432c-.057.07-.12.133-.19.19l.432 2.047-1.14-1.753a1.33 1.33 0 0 1-.27 0"/></g></svg>