<svg xmlns="http://www.w3.org/2000/svg" fill="none" viewBox="0 0 28 28" focusable="false"><path fill="none" d="M0 0h28v28H0z"/><rect width="28" height="20" y="4" fill="#FFF" rx="3"/><rect width="27.5" height="19.5" x=".25" y="4.25" stroke="#D6D8DD" stroke-width=".5" rx="3"/><mask id="Philippines_svg__a" width="28" height="20" x="0" y="4" mask-type="alpha" maskUnits="userSpaceOnUse"><rect width="28" height="20" y="4" fill="#FFF" rx="3"/><rect width="27.5" height="19.5" x=".25" y="4.25" stroke="#F5F5F5" stroke-width=".5" rx="3"/></mask><g mask="url(#Philippines_svg__a)"><mask id="Philippines_svg__b" fill="#fff"><path fill-rule="evenodd" d="M0 24h28V13.333H12.445l.888.667z" clip-rule="evenodd"/></mask><path fill="#DD1C34" fill-rule="evenodd" d="M0 24h28V13.333H12.445l.888.667z" clip-rule="evenodd" mask="url(#Philippines_svg__b)"/></g><g mask="url(#Philippines_svg__a)"><mask id="Philippines_svg__c" fill="#fff"><path fill-rule="evenodd" d="m0 4 12.445 9.333H28V4z" clip-rule="evenodd"/></mask><path fill="#0D4BC3" fill-rule="evenodd" d="m0 4 12.445 9.333H28V4z" clip-rule="evenodd" mask="url(#Philippines_svg__c)"/></g><g mask="url(#Philippines_svg__a)"><mask id="Philippines_svg__d" fill="#fff"><path fill-rule="evenodd" d="M2 8a.667.667 0 1 0 0-1.333A.667.667 0 0 0 2 8m2.532 7.327L3.391 17.08l.433-2.047a1.345 1.345 0 0 1-.19-.19l-2.047.433 1.753-1.141a1.342 1.342 0 0 1 0-.27l-1.753-1.14 2.047.432c.056-.07.12-.133.19-.19L3.39 10.92l1.141 1.753a1.361 1.361 0 0 1 .27 0l1.14-1.753-.432 2.047c.07.057.133.12.19.19l2.046-.433-1.753 1.141a1.346 1.346 0 0 1 0 .27l1.753 1.14-2.046-.432c-.057.07-.12.133-.19.19l.432 2.047-1.14-1.753a1.33 1.33 0 0 1-.27 0m5.468-.66a.667.667 0 1 0 0-1.334.667.667 0 0 0 0 1.334m-7.333 6a.667.667 0 1 1-1.334 0 .667.667 0 0 1 1.334 0" clip-rule="evenodd"/></mask><path fill="#FDD64D" fill-rule="evenodd" d="M2 8a.667.667 0 1 0 0-1.333A.667.667 0 0 0 2 8m2.532 7.327L3.391 17.08l.433-2.047a1.345 1.345 0 0 1-.19-.19l-2.047.433 1.753-1.141a1.342 1.342 0 0 1 0-.27l-1.753-1.14 2.047.432c.056-.07.12-.133.19-.19L3.39 10.92l1.141 1.753a1.361 1.361 0 0 1 .27 0l1.14-1.753-.432 2.047c.07.057.133.12.19.19l2.046-.433-1.753 1.141a1.346 1.346 0 0 1 0 .27l1.753 1.14-2.046-.432c-.057.07-.12.133-.19.19l.432 2.047-1.14-1.753a1.33 1.33 0 0 1-.27 0m5.468-.66a.667.667 0 1 0 0-1.334.667.667 0 0 0 0 1.334m-7.333 6a.667.667 0 1 1-1.334 0 .667.667 0 0 1 1.334 0" clip-rule="evenodd" mask="url(#Philippines_svg__d)"/></g></svg>