<svg xmlns="http://www.w3.org/2000/svg" width="28" height="28" fill="none"><rect width="28" height="20" y="4" fill="#fff" rx="3"/><mask id="a" width="28" height="20" x="0" y="4" maskUnits="userSpaceOnUse" style="mask-type:luminance"><rect width="28" height="20" y="4" fill="#fff" rx="3"/></mask><g mask="url(#a)"><path fill="#062365" d="M0 4h28v20H0z"/><path fill="#DB1E36" stroke="#fff" stroke-width=".667" d="M0 3.667h-.901l.684.586 4.55 3.9v1.009l-4.527 3.233-.14.1v1.44l.51-.319 5.253-3.283h1.13l4.523 3.23a.554.554 0 0 0 .682-.87L7.667 9.18V8.172l4.387-3.134a.667.667 0 0 0 .28-.543V3.4l-.51.318L6.57 7h-1.13L.86 3.729l-.088-.062H0Z"/><path fill="#fff" fill-rule="evenodd" d="M0 7.333V10h4.667v3.333c0 .368.298.667.666.667h1.334a.667.667 0 0 0 .666-.667V10H12a.667.667 0 0 0 .667-.667V8A.667.667 0 0 0 12 7.333H7.333V4H4.667v3.333H0Z" clip-rule="evenodd"/><path fill="#DB1E36" fill-rule="evenodd" d="M0 8h5.333V4h1.334v4H12v1.333H6.667v4H5.333v-4H0V8Z" clip-rule="evenodd"/><path fill="#4564B9" d="M20.059 19C17 19 17 15.882 17 11.216h6.118c0 4.745 0 7.784-3.06 7.784Z"/><mask id="b" width="7" height="8" x="17" y="11" maskUnits="userSpaceOnUse" style="mask-type:alpha"><path fill="#C4C4C4" d="M20.059 19C17 19 17 15.882 17 11.216h6.118c0 4.745 0 7.784-3.06 7.784Z"/></mask><g mask="url(#b)"><path fill="#E9E41B" d="m15.04 19 5-7.765 5 7.765h-10Z"/><path fill="#3C732E" d="m16.02 19 4.02-6.235L24.058 19h-8.04Z"/></g><path fill="#8C8076" d="m18.333 10.118.471 1.098h2.569l-.451-1.138.45-1.078h-2.568l-.47 1.118Z"/></g></svg>