<svg xmlns="http://www.w3.org/2000/svg" fill="none" viewBox="0 0 28 28" focusable="false"><rect width="28" height="20" y="4" fill="#fff" rx="3"/><mask id="Portugal_svg__a" width="28" height="20" x="0" y="4" maskUnits="userSpaceOnUse" style="mask-type:luminance"><rect width="28" height="20" y="4" fill="#fff" rx="3"/></mask><g mask="url(#Portugal_svg__a)"><path fill="#ff2936" d="M0 4h28v20H0z"/><path fill="#128415" fill-rule="evenodd" d="M0 24h10.667V4H0z" clip-rule="evenodd"/><path stroke="#faf94f" stroke-width="1.333" d="M10.667 17.333a3.333 3.333 0 1 0 0-6.666 3.333 3.333 0 0 0 0 6.666Z"/><path fill="#fff" fill-rule="evenodd" d="M9.333 12.333c0-.184.15-.333.334-.333h2c.184 0 .333.15.333.333v2.334a1.333 1.333 0 0 1-2.667 0z" clip-rule="evenodd"/><path fill="#1d50b5" fill-rule="evenodd" d="M10.667 14.667c.368 0 .666-.966.666-1.334a.667.667 0 1 0-1.333 0c0 .368.299 1.334.667 1.334" clip-rule="evenodd"/></g></svg>