<svg xmlns="http://www.w3.org/2000/svg" fill="none" viewBox="0 0 28 28" focusable="false"><defs><linearGradient id="Portugal_svg__b" x1="8" x2="8" y1="11.333" y2="16.667" gradientUnits="userSpaceOnUse"><stop stop-color="#FFE94F"/><stop offset="1" stop-color="#FFE633"/></linearGradient></defs><path fill="none" d="M0 0h28v28H0z"/><rect width="28" height="20" y="4" fill="#FFF" rx="3"/><rect width="28" height="20" y="4" rx="3"/><mask id="Portugal_svg__a" width="28" height="20" x="0" y="4" mask-type="alpha" maskUnits="userSpaceOnUse"><rect width="28" height="20" y="4" fill="#FFF" rx="3"/><rect width="28" height="20" y="4" stroke="#979797" stroke-opacity="0" stroke-width="0" rx="3"/></mask><g mask="url(#Portugal_svg__a)"><path fill="#FF2936" d="M0 4h28v20H0z"/><path d="M0 4h28v20H0z"/></g><g mask="url(#Portugal_svg__a)"><path fill="#128415" fill-rule="evenodd" d="M0 24h10.66V4H0z"/><path d="M10.66 24V4H0v20z"/></g><g mask="url(#Portugal_svg__a)"><path fill="none" d="M10.66 16.66c1.47 0 2.67-1.19 2.67-2.66 0-1.48-1.2-2.67-2.67-2.67S8 12.52 8 14c0 1.47 1.19 2.66 2.66 2.66"/><path fill="#FAF94F" fill-rule="evenodd" d="M14.57 14.85q.09-.42.09-.85 0-.44-.09-.86-.08-.36-.22-.7-.15-.35-.35-.65-.22-.34-.51-.62-.29-.29-.62-.51-.31-.2-.65-.35-.35-.15-.71-.22-.41-.09-.85-.09-.43 0-.85.09-.36.07-.71.22-.34.15-.65.35-.33.22-.62.51-.28.28-.5.62-.21.3-.35.65-.15.34-.23.7-.09.42-.09.86 0 .43.09.85.08.36.23.7.14.35.35.65.22.34.5.62.29.29.62.51.31.2.65.35.35.15.71.22.42.1.85.1.44 0 .85-.1.36-.07.71-.22.34-.15.65-.35.33-.22.62-.51.29-.28.51-.62.2-.3.35-.65.14-.34.22-.7M13.33 14c0 1.47-1.2 2.66-2.67 2.66S8 15.47 8 14c0-1.48 1.19-2.67 2.66-2.67A2.67 2.67 0 0 1 13.33 14"/></g><g mask="url(#Portugal_svg__a)"><path fill="#FFF" fill-rule="evenodd" d="M9.33 12.33c0-.19.15-.33.33-.33h2c.19 0 .34.14.34.33v2.33c0 .74-.6 1.34-1.34 1.34-.73 0-1.33-.6-1.33-1.34z"/><path d="M11.66 12c.19 0 .34.14.34.33v2.33c0 .74-.6 1.34-1.34 1.34-.73 0-1.33-.6-1.33-1.34v-2.33c0-.19.15-.33.33-.33z"/></g><g mask="url(#Portugal_svg__a)"><path fill="#1D50B5" fill-rule="evenodd" d="M10.66 14.66c.37 0 .67-.96.67-1.33 0-.37-.3-.67-.67-.67-.37 0-.66.3-.66.67 0 .37.29 1.33.66 1.33"/><path d="M11.33 13.33c0-.37-.3-.67-.67-.67-.37 0-.66.3-.66.67 0 .37.29 1.33.66 1.33.37 0 .67-.96.67-1.33"/></g></svg>