<svg xmlns="http://www.w3.org/2000/svg" fill="none" viewBox="0 0 28 28" focusable="false"><rect width="27.5" height="19.5" x=".25" y="4.25" fill="#fff" stroke="#F5F5F5" stroke-width=".5" rx="2.75"/><mask id="Puerto_Rico_svg__a" width="28" height="20" x="0" y="4" maskUnits="userSpaceOnUse" style="mask-type:luminance"><rect width="27.5" height="19.5" x=".25" y="4.25" fill="#fff" stroke="#fff" stroke-width=".5" rx="2.75"/></mask><g mask="url(#Puerto_Rico_svg__a)"><path fill="#FA2222" fill-rule="evenodd" d="M0 4h28v4H0V4Zm0 8h28v4H0v-4Zm0 8v4h28v-4H0Z" clip-rule="evenodd"/><path fill="#1D63F9" fill-rule="evenodd" d="m0 4 13.333 10L0 24V4Z" clip-rule="evenodd"/><g filter="url(#Puerto_Rico_svg__b)"><path fill="url(#Puerto_Rico_svg__c)" fill-rule="evenodd" d="m4.667 15.274-1.96 1.423.748-2.303-1.959-1.424h2.422l.749-2.303.749 2.302h2.42l-1.958 1.425.748 2.303-1.96-1.423Z" clip-rule="evenodd"/></g></g><defs><linearGradient id="Puerto_Rico_svg__c" x1="1.333" x2="1.333" y1="10.667" y2="17.333" gradientUnits="userSpaceOnUse"><stop stop-color="#fff"/><stop offset="1" stop-color="#F0F0F0"/></linearGradient><filter id="Puerto_Rico_svg__b" width="6.34" height="7.03" x="1.496" y="10.667" color-interpolation-filters="sRGB" filterUnits="userSpaceOnUse"><feFlood flood-opacity="0" result="BackgroundImageFix"/><feColorMatrix in="SourceAlpha" result="hardAlpha" values="0 0 0 0 0 0 0 0 0 0 0 0 0 0 0 0 0 0 127 0"/><feOffset dy="1"/><feColorMatrix values="0 0 0 0 0 0 0 0 0 0 0 0 0 0 0 0 0 0 0.06 0"/><feBlend in2="BackgroundImageFix" result="effect1_dropShadow_17_4742"/><feBlend in="SourceGraphic" in2="effect1_dropShadow_17_4742" result="shape"/></filter></defs></svg>