<svg xmlns="http://www.w3.org/2000/svg" fill="none" viewBox="0 0 28 28" focusable="false"><defs><filter id="Puerto_Rico_svg__a"><feColorMatrix values="0 0 0 0 1 0 0 0 0 1 0 0 0 0 1 0 0 0 1 0"/></filter><filter id="Puerto_Rico_svg__c" width="6.667" height="7.03" x="1.333" y="10.667" color-interpolation-filters="sRGB" filterUnits="userSpaceOnUse"><feFlood flood-opacity="0" result="BackgroundImageFix"/><feOffset dy="1" in="SourceAlpha"/><feColorMatrix values="0 0 0 0 0 0 0 0 0 0 0 0 0 0 0 0 0 0 0.06 0"/><feBlend in2="BackgroundImageFix" result="effect_dropShadow_1"/><feBlend in="SourceGraphic" in2="effect_dropShadow_1" result="shape"/></filter><linearGradient id="Puerto_Rico_svg__d" x1="1.333" x2="1.333" y1="10.667" y2="17.333" gradientUnits="userSpaceOnUse"><stop offset="0" stop-color="#FFF"/><stop offset="1" stop-color="#EFEFEF"/></linearGradient></defs><mask id="Puerto_Rico_svg__b" width="28" height="20" x="0" y="4" maskUnits="userSpaceOnUse"><g filter="url(#Puerto_Rico_svg__a)"><rect width="28" height="20" y="4" fill="#FFF" rx="3"/><rect width="27.5" height="19.5" x=".25" y="4.25" stroke="#F5F5F5" stroke-width=".5" rx="2.75"/></g></mask><path fill="none" d="M0 0H28V28H0z"/><rect width="28" height="20" y="4" fill="#FFF" rx="3"/><rect width="27.5" height="19.5" x=".25" y="4.25" stroke="#F5F5F5" stroke-width=".5" rx="2.75"/><g mask="url(#Puerto_Rico_svg__b)"><path fill="#FA2222" fill-rule="evenodd" d="M28 4L28 8L0 8L0 4L28 4ZM0 12L28 12L28 16L0 16L0 12ZM0 20L0 24L28 24L28 20L0 20Z"/><path d="M28 4L28 8L0 8L0 4L28 4ZM0 12L28 12L28 16L0 16L0 12ZM0 20L0 24L28 24L28 20L0 20Z"/><path fill="#1D63F9" fill-rule="evenodd" d="M0 4L13.3333 14L0 24L0 4Z"/><path d="M13.3333 14L0 24L0 4L13.3333 14Z"/><g filter="url(#Puerto_Rico_svg__c)"><path fill="url(#Puerto_Rico_svg__d)" fill-rule="evenodd" d="M4.66665 15.274L2.70736 16.6967L3.45492 14.3937L1.49646 12.9699L3.91776 12.9692L4.66665 10.6666L5.41553 12.9692L7.83683 12.9699L5.87837 14.3937L6.62593 16.6967L4.66665 15.274Z"/><path d="M2.70736 16.6967L3.45492 14.3937L1.49646 12.9699L3.91776 12.9692L4.66665 10.6666L5.41553 12.9692L7.83683 12.9699L5.87837 14.3937L6.62593 16.6967L4.66665 15.274L2.70736 16.6967Z"/></g></g></svg>