<svg xmlns="http://www.w3.org/2000/svg" fill="none" viewBox="0 0 28 28" focusable="false"><path fill="none" d="M0 0h28v28H0z"/><rect width="28" height="20" y="4" fill="#fff" rx="3"/><rect width="27.5" height="19.5" x=".25" y="4.25" stroke="#d6d8dd" stroke-width=".5" rx="3"/><mask id="Qatar_svg__a" width="28" height="20" x="0" y="4" mask-type="alpha" maskUnits="userSpaceOnUse"><rect width="28" height="20" y="4" fill="#fff" rx="3"/><rect width="27.5" height="19.5" x=".25" y="4.25" stroke="#f5f5f5" stroke-width=".5" rx="3"/></mask><g mask="url(#Qatar_svg__a)"><mask id="Qatar_svg__b" fill="#fff"><path fill-rule="evenodd" d="M10 24h18V4H8l2 1.333-2 1.334L10 8 8 9.333l2 1.334L8 12l2 1.333-2 1.334L10 16l-2 1.333 2 1.334L8 20l2 1.333-2 1.334z" clip-rule="evenodd"/></mask><path fill="#a6264c" fill-rule="evenodd" d="M10 24h18V4H8l2 1.333-2 1.334L10 8 8 9.333l2 1.334L8 12l2 1.333-2 1.334L10 16l-2 1.333 2 1.334L8 20l2 1.333-2 1.334z" clip-rule="evenodd" mask="url(#Qatar_svg__b)"/></g></svg>