<svg xmlns="http://www.w3.org/2000/svg" fill="none" viewBox="0 0 35 28" focusable="false"><path fill="none" d="M3 0h28v28H3z"/><path fill="#fff" d="M3 21c0 1.65 1.34 3 3 3h22c1.65 0 3-1.35 3-3V7c0-1.66-1.35-3-3-3H6C4.34 4 3 5.34 3 7z"/><path fill="#d6d8dd" fill-rule="evenodd" d="M6 24c-1.66 0-3-1.35-3-3V7c0-1.66 1.34-3 3-3h22c1.65 0 3 1.34 3 3v14c0 1.65-1.35 3-3 3zm0-.5h22q.28 0 .56-.07.21-.05.41-.13.21-.09.39-.21.22-.14.4-.33.19-.18.33-.4.12-.18.21-.39.08-.2.13-.41.07-.28.07-.56V7q0-.29-.07-.57-.05-.21-.13-.41-.09-.21-.21-.39-.14-.22-.33-.4-.18-.19-.4-.33-.18-.12-.39-.21-.2-.08-.41-.13-.28-.06-.56-.06H6q-.29 0-.57.06-.21.05-.41.13-.21.09-.39.21-.22.14-.4.33-.19.18-.33.4-.12.18-.21.39-.08.2-.13.41-.06.28-.06.57v14q0 .28.06.56.05.21.13.41.09.21.21.39.14.22.33.4.18.19.4.33.18.12.39.21.2.08.41.13.28.07.57.07"/><mask id="Republic_of_Kiribati_svg__a" width="28" height="20" x="3" y="4" mask-type="alpha" maskUnits="userSpaceOnUse"><path fill="#b82b21" d="M6 24h22c1.65 0 3-1.35 3-3V7c0-1.66-1.35-3-3-3H6C4.34 4 3 5.34 3 7v14c0 1.65 1.34 3 3 3"/></mask><g mask="url(#Republic_of_Kiribati_svg__a)"><path fill="#b82b21" d="M0 17h34V4H0z"/><path fill="#f2d046" d="M17.4 12.31 16.99 11l-.41 1.31-.7-1.19-.09 1.38-.96-.99.23 1.36-1.16-.75.54 1.27-1.3-.46.81 1.11-1.37-.15 1.05.9-1.37.17 1.23.63-1.29.48 1.34.33-.89.6h8.67l-.88-.6 1.34-.33-1.29-.48 1.23-.63-1.37-.17 1.05-.9-1.38.15.82-1.11-1.3.46.53-1.27-1.16.75.23-1.36-.95.99-.09-1.38z"/><path fill="#1c316c" fill-rule="evenodd" d="M34.283 20.328v-1.224c-1.144 0-2.285.734-3.43.734-1.141 0-2.285-.734-3.428-.734s-2.286.734-3.428.734c-1.143 0-2.284-.734-3.429-.734-1.144 0-2.285.734-3.426.734-1.145 0-2.286-.734-3.432-.734-1.14 0-2.284.734-3.428.734-1.141 0-2.286-.734-3.43-.734-1.14 0-2.284.734-3.425.734-1.147 0-2.289-.734-3.43-.734v1.224c1.141 0 2.283.734 3.43.734 1.141 0 2.285-.734 3.426-.734 1.143 0 2.288.734 3.43.734s2.286-.734 3.427-.734c1.145 0 2.287.734 3.432.734 1.14 0 2.282-.734 3.426-.734s2.286.734 3.43.734c1.14 0 2.284-.734 3.427-.734s2.287.734 3.428.734c1.145 0 2.286-.734 3.43-.734m0 1.223V24H-.004v-2.449c1.141 0 2.283.736 3.43.736 1.141 0 2.285-.736 3.426-.736 1.143 0 2.288.736 3.43.736s2.286-.736 3.427-.736c1.145 0 2.287.736 3.432.736 1.14 0 2.282-.736 3.426-.736s2.286.736 3.43.736c1.14 0 2.284-.736 3.427-.736s2.287.736 3.428.736c1.145 0 2.286-.736 3.43-.736M-.004 16.213h34.286v1.665c-1.144 0-2.285.735-3.43.735-1.141 0-2.285-.735-3.428-.735s-2.286.735-3.428.735c-1.143 0-2.284-.735-3.429-.735-1.144 0-2.285.735-3.426.735-1.145 0-2.286-.735-3.432-.735-1.14 0-2.284.735-3.428.735-1.141 0-2.286-.735-3.43-.735-1.14 0-2.284.735-3.425.735-1.147 0-2.289-.735-3.43-.735z" clip-rule="evenodd"/><path fill="#fff" d="M-.01 16.65c1.14 0 2.28.73 3.43.73 1.14 0 2.29-.73 3.43-.73s2.29.73 3.43.73 2.28-.73 3.43-.73c1.14 0 2.28.73 3.43.73 1.14 0 2.28-.73 3.42-.73 1.15 0 2.29.73 3.43.73s2.29-.73 3.43-.73 2.29.73 3.43.73 2.28-.73 3.43-.73v-1.23c-1.15 0-2.29.74-3.43.74s-2.29-.74-3.43-.74-2.29.74-3.43.74-2.28-.74-3.43-.74c-1.14 0-2.28.74-3.42.74-1.15 0-2.29-.74-3.43-.74-1.15 0-2.29.74-3.43.74s-2.29-.74-3.43-.74-2.29.74-3.43.74c-1.15 0-2.29-.74-3.43-.74z"/><path fill="#f2d046" d="m17.91 9.7 1.27.01c.01-.05-.11-.16-.21-.18-.32-.05-.56.06-.95.06z"/><path fill="#f2d046" d="M15.39 9.4c.3.38.87.64 1.42.64.75.01 1.57-.59 2.57-.78l-3.26-.06c-.42-.29-.74-.26-.95-.08l-.62.02c-.09.05.07.25.2.26z"/><path fill="#f2d046" d="M16.86 9.19c-.12-.55-.56-.78-1.08-.85-.61-.08-2-.16-2.93-.43.4.39 1.24.59 1.82.68.62.1 1.22.23 1.7.59z"/><path fill="#f2d046" d="M16.46 9.55c.2.25.5.24.82.02s.67-.83.84-.84c1.19-.07 2.62-.56 3.3-.95-.87.12-1.72.26-2.6.27-1.48 0-1.66.68-2.27 1.15z"/></g></svg>