<svg xmlns="http://www.w3.org/2000/svg" fill="none" viewBox="0 0 28 28" focusable="false"><defs><filter id="Reunion_svg__a"><feColorMatrix values="0 0 0 0 1 0 0 0 0 1 0 0 0 0 1 0 0 0 1 0"/></filter></defs><mask id="Reunion_svg__b" width="28" height="20" x="0" y="4" maskUnits="userSpaceOnUse"><g filter="url(#Reunion_svg__a)"><rect width="28" height="20" y="4" fill="#36F" rx="3"/></g></mask><path fill="none" d="M0 0H28V28H0z" transform="rotate(-180 14 14)"/><g mask="url(#Reunion_svg__b)"><rect width="28" height="20" y="4" fill="#36F" rx="3"/><path fill="red" d="M13.985 14.1377L27.8799 24L-0.120117 24L13.985 14.1377Z"/><path fill="#FF0" d="M1.39221 0L2.76367 10.5312L0 10.5312L1.39221 0Z" transform="rotate(-180 7.69 7.068)"/><path fill="#FF0" d="M1.06064 0L2.10547 14L0 14L1.06064 0Z" transform="rotate(-90 14.603 .603)"/><path fill="#FF0" d="M1.06064 0L2.10547 14L0 14L1.06064 0Z" transform="matrix(0 -1 -1 0 14 15.206)"/><path fill="#FF0" d="M14.5695 0L2.87158 10.986L0 9.48952L14.5695 0Z" transform="rotate(-180 14.285 7.062)"/><path fill="#FF0" d="M14.5695 0L2.87158 10.986L0 9.48952L14.5695 0Z" transform="matrix(1 0 0 -1 -.57 14.124)"/></g></svg>