<svg xmlns="http://www.w3.org/2000/svg" fill="none" viewBox="0 0 28 28" focusable="false"><defs><filter id="Rwanda_svg__b" width="28" height="5.333" x="0" y="18.667" color-interpolation-filters="sRGB" filterUnits="userSpaceOnUse"><feFlood flood-opacity="0" result="BackgroundImageFix"/><feColorMatrix in="SourceAlpha" result="hardAlpha" values="0 0 0 0 0 0 0 0 0 0 0 0 0 0 0 0 0 0 127 0"/><feOffset/><feGaussianBlur/><feComposite in2="hardAlpha" k2="-1" k3="1" operator="out"/><feColorMatrix values="0 0 0 0 0 0 0 0 0 0 0 0 0 0 0 0 0 0 0.059 0"/><feBlend in2="BackgroundImageFix" result="effect_dropShadow_1"/><feBlend in="SourceGraphic" in2="effect_dropShadow_1" result="shape"/></filter></defs><path fill="none" d="M0 0h28v28H0z"/><rect width="28" height="20" y="4" fill="#fff" rx="3"/><rect width="28" height="20" y="4" rx="3"/><mask id="Rwanda_svg__a" width="28" height="20" x="0" y="4" mask-type="alpha" maskUnits="userSpaceOnUse"><rect width="28" height="20" y="4" fill="#fff" rx="3"/><rect width="28" height="20" y="4" stroke="#979797" stroke-opacity="0" stroke-width="0" rx="3"/></mask><g mask="url(#Rwanda_svg__a)"><g filter="url(#Rwanda_svg__b)"><path fill="#2d754d" fill-rule="evenodd" d="M0 24h28v-5.34H0z"/></g><path d="M28 24v-5.34H0V24z"/></g><g mask="url(#Rwanda_svg__a)"><path fill="#25b1eb" fill-rule="evenodd" d="M0 13.33h28V4H0z"/><path d="M28 13.33V4H0v9.33z"/></g><g mask="url(#Rwanda_svg__a)"><path fill="#fecb2f" fill-rule="evenodd" d="M0 18.66h28v-5.33H0z"/><path d="M28 18.66v-5.33H0v5.33z"/></g><g mask="url(#Rwanda_svg__a)"><path fill="#fecb2f" fill-rule="evenodd" d="m21.33 10-1.02 1.13.08-1.53-1.53.08L20 8.66l-1.14-1.02 1.53.08-.08-1.52 1.02 1.13 1.02-1.13-.08 1.52 1.52-.08-1.13 1.02 1.13 1.02-1.52-.08.08 1.53z"/><path d="m20.31 11.13.08-1.53-1.53.08L20 8.66l-1.14-1.02 1.53.08-.08-1.52 1.02 1.13 1.02-1.13-.08 1.52 1.52-.08-1.13 1.02 1.13 1.02-1.52-.08.08 1.53L21.33 10z"/></g></svg>