<svg xmlns="http://www.w3.org/2000/svg" fill="none" viewBox="0 0 28 28" focusable="false"><rect width="28" height="20" y="4" fill="#fff" rx="3"/><mask id="Rwanda_svg__a" width="28" height="20" x="0" y="4" maskUnits="userSpaceOnUse" style="mask-type:luminance"><rect width="28" height="20" y="4" fill="#fff" rx="3"/></mask><g mask="url(#Rwanda_svg__a)"><g filter="url(#Rwanda_svg__b)"><path fill="#2D754D" fill-rule="evenodd" d="M0 24h28v-5.333H0z" clip-rule="evenodd"/></g><path fill="#25B1EB" fill-rule="evenodd" d="M0 13.333h28V4H0v9.333" clip-rule="evenodd"/><path fill="#FECB2F" fill-rule="evenodd" d="M0 18.667h28v-5.334H0v5.334M21.333 10l-1.02 1.13.078-1.52-1.521.077L20 8.667l-1.13-1.02 1.52.077-.077-1.521 1.02 1.13 1.02-1.13-.077 1.52 1.521-.077-1.13 1.02 1.13 1.021-1.52-.078.077 1.521-1.02-1.13" clip-rule="evenodd"/></g><defs><filter id="Rwanda_svg__b" width="28" height="5.333" x="0" y="18.667" color-interpolation-filters="sRGB" filterUnits="userSpaceOnUse"><feFlood flood-opacity="0" result="BackgroundImageFix"/><feColorMatrix in="SourceAlpha" result="hardAlpha" values="0 0 0 0 0 0 0 0 0 0 0 0 0 0 0 0 0 0 127 0"/><feOffset/><feColorMatrix values="0 0 0 0 0 0 0 0 0 0 0 0 0 0 0 0 0 0 0.06 0"/><feBlend in2="BackgroundImageFix" result="effect1_dropShadow_17_4664"/><feBlend in="SourceGraphic" in2="effect1_dropShadow_17_4664" result="shape"/></filter></defs></svg>