<svg xmlns="http://www.w3.org/2000/svg" fill="none" viewBox="0 0 28 28" focusable="false"><defs><clipPath id="Saint_Pierre_and_Miquelon_svg__a"><path fill="#fff" fill-opacity="0" d="M28 28H0V0h28z"/></clipPath></defs><path fill="none" d="M28 28H0V0h28z"/><g clip-path="url(#Saint_Pierre_and_Miquelon_svg__a)"><rect width="28" height="20" y="4" fill="#fff" rx="3"/><rect width="27.5" height="19.5" x=".25" y="4.25" stroke="#f5f5f5" stroke-width=".5" rx="3"/><mask id="Saint_Pierre_and_Miquelon_svg__b" width="28" height="20" x="0" y="4" mask-type="alpha" maskUnits="userSpaceOnUse"><rect width="28" height="20" y="4" fill="#1b2f4c" rx="3"/><rect width="27.5" height="19.5" x=".25" y="4.25" stroke="#f5f5f5" stroke-opacity="0" stroke-width=".5" rx="3"/></mask><g mask="url(#Saint_Pierre_and_Miquelon_svg__b)"><mask id="Saint_Pierre_and_Miquelon_svg__c" fill="#fff"><path fill-rule="evenodd" d="M25 4H3a3 3 0 0 0-3 3v4h8v6H0v4a3 3 0 0 0 3 3h22a3 3 0 0 0 3-3V7a3 3 0 0 0-3-3" clip-rule="evenodd"/></mask><path fill="#4490c4" fill-rule="evenodd" d="M25 4H3a3 3 0 0 0-3 3v4h8v6H0v4a3 3 0 0 0 3 3h22a3 3 0 0 0 3-3V7a3 3 0 0 0-3-3" clip-rule="evenodd" mask="url(#Saint_Pierre_and_Miquelon_svg__c)"/></g><g mask="url(#Saint_Pierre_and_Miquelon_svg__b)"><path fill="#f7d02b" fill-rule="evenodd" d="M18.506 7.136a.182.182 0 0 1 .352.093l-.701 2.648 2.407-.946v.365c-.391.26-2.089 2.015-2.089 4.594 0 .988.249 2.096.915 3.287q.176-.024.351-.058a7.3 7.3 0 0 1-.704-3.116c0-1.238.328-2.41.98-3.249v-.364l2.269-.672.365-1.378c-.302.005-.571.067-.829.126-.5.115-.956.22-1.517-.122.46-.09.537-.077.942-.274-.681-.044-.773-.182-.942-.518.63.173 1.022.11 1.398.05.34-.055.665-.107 1.139.018l.04-.154a.182.182 0 0 1 .353.093l-.54 2.037 2.246-.665v.365c-.445.296-2.575 2.399-2.575 4.644 0 .437.081.88.271 1.317l.437-1.34h1.99l.596-1.122-2.03-.146.744-1.434 2.028.182.19-.355a.182.182 0 1 1 .321.17l-1.45 2.731v1.559h-.716a13 13 0 0 1-1.197 2.351 1.45 1.45 0 0 1 1.15 1.711c-.132-.068-.267-.145-.396-.218-.324-.183-.61-.345-.726-.306-.106.035-.108.165-.112.307-.004.207-.01.44-.34.44-.556 0-1.687-.73-2.157-.747-.29-.01-.387.316-.468.589-.05.169-.095.317-.175.35-.094.04-.435-.12-.833-.308-.48-.226-1.044-.492-1.358-.492-.574 0-.157.8-.591.991-.25.11-.796-.172-1.296-.431-.368-.19-.711-.369-.896-.369-.434 0-.452.61-.869.61l-.01-.001c-2.279-1.227-3.112-3.184-4.367-3.184a.27.27 0 0 1-.148-.241c0-.094.046-.193.148-.265q.17-.122.325-.189l-1.323-.591a.183.183 0 0 1 .149-.333l2.005.896q.08.03.154.07l.847.378c.08-.102.107-.317.107-.563 0-.283-.036-.608-.07-.856h-.488v-.882h.858l.355-1.337c-.601-.2-.904.246-1.03.69-.298-.174-.505-.688-.505-1.323 0-.532.145-1.148.504-1.718v-.32l1.878-.527.242-.91c-.308.002-.582.065-.844.125-.5.115-.957.22-1.518-.123.46-.088.538-.076.943-.273-.682-.044-.774-.182-.943-.518.63.173 1.023.11 1.399.05.342-.055.67-.108 1.152.022l.06-.226a.182.182 0 0 1 .353.094l-.436 1.644 2.273-.638v.48c-.508.298-2.59 1.562-2.59 3.666q-.001.24.037.495a3.6 3.6 0 0 0-.64-.528l-.312 1.175h1.154v.883h-.043q.238.396.548.716a4.9 4.9 0 0 1-.308-1.668c0-1.022.37-1.962 1.06-2.849v-.364l2.277-.895.516-1.95a4.4 4.4 0 0 0-.693.12c-.5.116-.957.22-1.518-.122.46-.089.537-.077.943-.273-.682-.045-.774-.183-.943-.519.63.173 1.023.11 1.398.05.309-.05.606-.097 1.014-.011zm2.682 8.148-.411 1.549a5.85 5.85 0 0 0 2.137-1.331h-.357l.023-.07c-.555-.188-1.017-.221-1.392-.148m-.824 1.684.41-1.546c-.623.306-.903.968-.903 1.574q0 .048.002.096.248-.052.49-.124m-4.397-.254.254-.956c-.553-.026-.869.199-.987.52q.344.252.733.436m.618-.909-.28 1.055c.914.354 1.96.46 2.988.33-1.171-.84-2.06-1.252-2.708-1.385" clip-rule="evenodd"/></g><g mask="url(#Saint_Pierre_and_Miquelon_svg__b)"><path fill="#b62123" d="M0 4h8v7H0z"/></g><g mask="url(#Saint_Pierre_and_Miquelon_svg__b)"><mask id="Saint_Pierre_and_Miquelon_svg__d" width="8" height="7" x="0" y="4" mask-type="alpha" maskUnits="userSpaceOnUse"><path fill="#b62123" d="M0 4h8v7H0z"/></mask><g mask="url(#Saint_Pierre_and_Miquelon_svg__d)"><path fill="#37b844" d="M-.602 3.87.406 2.86l8.269 8.27-1.008 1.007z"/></g><g mask="url(#Saint_Pierre_and_Miquelon_svg__d)"><path fill="#37b844" d="m-.562 11.171.927.928 8.27-8.27-.928-.927z"/></g></g><g mask="url(#Saint_Pierre_and_Miquelon_svg__b)"><path fill="#fff" d="M3.536 4h1v7h-1z"/></g><g mask="url(#Saint_Pierre_and_Miquelon_svg__b)"><path fill="#fff" d="M7.996 7v1h-8.46V7z"/></g><g mask="url(#Saint_Pierre_and_Miquelon_svg__b)"><path fill="#b62123" d="M0 17h8v7H0z"/></g></g></svg>