<svg xmlns="http://www.w3.org/2000/svg" fill="none" viewBox="0 0 28 28" focusable="false"><defs><filter id="Saint_Kitts_and_Nevis_svg__a"><feColorMatrix values="0 0 0 0 1 0 0 0 0 1 0 0 0 0 1 0 0 0 1 0"/></filter></defs><mask id="Saint_Kitts_and_Nevis_svg__b" width="28" height="20" x="0" y="4" maskUnits="userSpaceOnUse"><g filter="url(#Saint_Kitts_and_Nevis_svg__a)"><rect width="28" height="20" y="4" fill="#FFF" rx="3"/><rect width="28" height="20" y="4" stroke="#969696" stroke-opacity="0" stroke-width="0" rx="3"/></g></mask><path fill="none" d="M0 0H28V28H0z"/><rect width="28" height="20" y="4" fill="#FFF" rx="3"/><rect width="28" height="20" y="4" rx="3"/><g mask="url(#Saint_Kitts_and_Nevis_svg__b)"><path fill="#1EC160" fill-rule="evenodd" d="M0 17.3333L28 4L0 4L0 17.3333Z"/><path d="M28 4L0 4L0 17.3333L28 4Z"/><path fill="#DF2A40" fill-rule="evenodd" d="M0 24L28 24L28 10.6666L0 24Z"/><path d="M28 24L28 10.6666L0 24L28 24Z"/><path fill="#FFD956" fill-rule="evenodd" d="M0.783897 29.3334L33.5751 8.8432L27.2161 -1.33337L-5.57513 19.1568L0.783897 29.3334Z"/><path d="M33.5751 8.8432L27.2161 -1.33337L-5.57513 19.1568L0.783897 29.3334L33.5751 8.8432Z"/><path fill="#262626" fill-rule="evenodd" d="M-0.629192 27.072L32.162 6.58175L28.6292 0.928101L-4.16199 21.4183L-0.629192 27.072Z"/><path d="M32.162 6.58175L28.6292 0.928101L-4.16199 21.4183L-0.629192 27.072L32.162 6.58175Z"/><path fill="#FFF" fill-rule="evenodd" d="M20.3094 11.7975L19.364 13.2948L18.7505 11.6336L17.0343 11.1972L18.4246 10.1005L18.3094 8.33337L19.7821 9.31675L21.427 8.66106L20.9469 10.3656L22.0788 11.7274L20.3094 11.7975Z"/><path d="M19.364 13.2948L18.7505 11.6336L17.0343 11.1972L18.4246 10.1005L18.3094 8.33337L19.7821 9.31675L21.427 8.66106L20.9469 10.3656L22.0788 11.7274L20.3094 11.7975L19.364 13.2948Z"/><path fill="#FFF" fill-rule="evenodd" d="M9.64274 18.2642L8.69733 19.7615L8.08389 18.1003L6.36768 17.6639L7.75801 16.5671L7.64274 14.8L9.11544 15.7834L10.7604 15.1277L10.2803 16.8322L11.4122 18.1941L9.64274 18.2642Z"/><path d="M8.69733 19.7615L8.08389 18.1003L6.36768 17.6639L7.75801 16.5671L7.64274 14.8L9.11544 15.7834L10.7604 15.1277L10.2803 16.8322L11.4122 18.1941L9.64274 18.2642L8.69733 19.7615Z"/></g></svg>