<svg xmlns="http://www.w3.org/2000/svg" fill="none" viewBox="0 0 28 28" focusable="false"><defs><clipPath id="Saint_Barthelemy_svg__a"><path fill="#fff" fill-opacity="0" d="M28 28H0V0h28z"/></clipPath></defs><path fill="none" d="M28 28H0V0h28z"/><g clip-path="url(#Saint_Barthelemy_svg__a)"><rect width="28" height="20" y="4" fill="#FFF" rx="3"/><rect width="27.5" height="19.5" x=".25" y="4.25" stroke="#F5F5F5" stroke-width=".5" rx="3"/><path fill="#EABE4E" d="M7.06 18.74c-.01.01.03.05.07.09.11.13.2.18.55.3.16.06.35.14.42.18.16.07.24.14.34.14.07 0 .25-.03.26-.05 0-.01-.25-.2-.37-.27-.2-.13-.38-.19-.64-.2-.25-.02-.4-.06-.63-.2z"/><path fill="#E20909" d="M8.58 19.42c-.26 0-1.14-.3-1.2-.13-.02.04.01.1.05.13.36.24 1.03.43 1.47.41.1 0-.19-.42-.23-.45 0 0-.02.04-.09.04"/><path fill="#EABE4E" d="M9.3 19.78c-.07 0-.28-.01-.7-.05-.43-.05-.82-.14-1.05-.24-.11-.05-.15-.12-.13-.07.02.05.06.38.06.5-.01.22-.1.55-.21.69-.03.04-.03.05-.02.07.15.14.43.13.43.13.23 0 1.18-.03 1.4.32 0 0 1.51-.89 1.52-.91 0-.02.04-.06.06-.08.05-.04-.17-.15-.21-.17-.31-.15-1.15-.19-1.15-.19"/><path fill="#EABE4E" d="M6.88 19.46c.06.1.2.2.37.27.21.08.27.1.25-.03l-.02-.09-.23-.05a.744.744 0 0 1-.29-.1c-.03-.02-.07-.03-.11-.05 0 0 .01.02.03.05M20.93 18.7c.01.01-.03.05-.07.1-.11.12-.2.17-.55.3-.15.05-.35.13-.42.17-.15.07-.24.14-.34.14-.07 0-.25-.03-.26-.05 0-.01.25-.2.37-.27.2-.13.38-.18.64-.2.25-.02.4-.06.63-.19"/><path fill="#E20909" d="M19.4 19.39c.25 0 1.13-.3 1.2-.13.02.03-.01.1-.06.13-.35.24-1.03.43-1.46.41-.1 0 .19-.42.22-.45 0 0 .03.04.1.04"/><path fill="#EABE4E" d="M18.69 19.74c.07 0 .28-.01.71-.05.42-.05.81-.14 1.04-.24.11-.05.15-.11.13-.07-.02.05-.06.38-.06.5.01.23.11.55.21.7.03.03.03.05.02.06-.15.14-.43.14-.43.14-.23-.01-1.26.01-1.48.36 0 0-1.43-.94-1.44-.96 0-.01-.04-.06-.06-.08-.05-.04.18-.15.21-.17.31-.15 1.15-.19 1.15-.19"/><path fill="#E20909" fill-rule="evenodd" d="M17.32 20.66c.14.03 1.72-.12 1.73-.31 0-.14-.39-.2-.72-.2-.19 0-.35.02-.48.05-.11.02-.2.04-.29.04-.13-.01-.17-.07-.2-.11-.02-.02-.03-.04-.04-.04 0 0-.05.5 0 .57M10.67 20.69c-.14.03-1.72-.12-1.73-.31 0-.14.39-.2.72-.2.19 0 .35.03.48.05.11.02.2.04.29.04.13 0 .17-.07.2-.11.02-.02.03-.04.04-.04 0 0 .05.5 0 .57"/><path fill="#EABE4E" d="M21.11 19.41c-.07.11-.21.21-.37.27-.21.08-.28.11-.26-.02l.03-.09.23-.05c.16-.04.2-.05.29-.1.03-.02.07-.04.1-.05.01 0 0 .02-.02.04M12.89 20.38c-.23.01-.6.04-.84.07-1.79.16-2.31.16-3.01-.02-.05-.01-.09-.02-.1-.02l.02.04c.05.07.08.19.1.35.02.19 0 .46-.06.64-.05.17-.05.16.03.19.73.02 1.52-.1 2.28-.14 1.58-.07 3.19-.07 4.82 0 .53.02.98.05 1.67.11.35.03.86.11 1.1 0 0-.01-.01-.05-.02-.09-.03-.29-.05-.67.04-.94.02-.06.15-.23.13-.22-.04.04-.14.06-.16.07-.64.11-.84.11-1.5.09-.67-.01-1.03.01-1.92-.07-.52-.04-1.2-.09-1.48-.1-.26 0-.7.01-1.1.04"/><path fill="#666" d="M18.2 9.59H9.76v.6h8.44z"/><path stroke="#520" stroke-width=".026" d="M9.76 9.59v.6h8.44v-.6z"/><path fill="#EACE24" d="M9.76 10.19 8.8 7.94l-.16.05-.35-.81.65-.19.14.38.31-.09-.13-.37.66-.15.11.38.33-.06-.11-.39.65-.11.09.39.44-.06.04.2.16-.02-.04-.2.34-.04.03.2.17-.02-.03-.2.33-.03.03.2.32-.03-.06-.59.67-.04.02.4.32-.01-.01-.4h.68l-.02.41h.33l.02-.4.67.03-.06.61.32.02.03-.2.33.03-.03.2.17.02.03-.2.33.04-.03.2.16.02.04-.2.43.06.09-.39.66.11-.1.4.31.06.12-.39.65.15-.13.38.31.09.15-.39.65.19-.35.8-.28-.09-.97 2.3c-2.69-.78-5.88-.78-8.47 0"/><path fill="#5E520E" d="M13.78 8.33v-.72c0-.28.51-.28.51 0v.72zM10.04 8.81l-.22-.69c-.09-.27.4-.38.49-.11l.22.69zM17.5 8.67l.22-.68c.09-.28.58-.17.5.11l-.23.69z"/><path fill="#1353B4" d="M9.76 10.19c-.02 1.44-.02 2.87 0 4.31.02 1.39.09 2.47.7 3.32.73 1.02 1.96 1.75 3.53 2.47 1.58-.72 2.8-1.45 3.54-2.47.61-.85.68-1.93.7-3.32.02-1.44.02-2.87 0-4.31z"/><path fill="#CE0F25" d="M18.11 16.3c0-.36.08-.53.08-.89.04-.72.05-1.44.04-2.16H9.76c-.01.72 0 1.43.04 2.16 0 .36.08.53.08.89z"/><path stroke="#540" stroke-width=".026" d="M9.75 13.24h8.49M9.87 16.3h8.24"/><path fill="#FFF" d="m12.94 15.22 1.03-.42-.42 1.03.46-.3.45.3-.42-1.03 1.03.42-.3-.46.3-.45-1.03.42.42-1.03-.45.3-.46-.3.42 1.03-1.03-.42.3.45z"/><path fill="#EACE24" d="M20.79 18c.01 1.24.02 1.29.02 1.29-.55.53-.61.73-.77.9-.21-.3-.54-.18-.54-.18-.07-.29-.41-.54-.41-.54.48-.04 1.32-.28 1.39-.38.22-.33-.09-1.33-.09-1.33z"/><path fill="#EACE24" d="m19.59 19.95.54-.42-.64.39zM20.39 17.41s-.68-.28-1.37.21a.43.43 0 0 1-.16 0c-.14-.14-.44-.56-.67-.51-.02-.36.02-1.78.02-1.78.1 0 .14.2.14.2-.06.4.17 2.87 1.13 1.24l.68.07zM20.76 11.7c-.58.21-.59.32-1.16.83-.46.18-1.14.63-1.18.73l.04.14c-.09.06-.17-.14-.17-.14.08-.51 1.69-2.02 1.69-2.02l.71.15z"/><mask id="Saint_Barthelemy_svg__b" fill="#fff"><path fill-rule="evenodd" d="M20.554 11.058c.006-.462-.413-.804-.607-.962-.058-.048-.095-.079-.095-.091.055-.335.686.216.985.536-.065-.22-.174-.4-.234-.498-.031-.052-.05-.082-.042-.086.2-.1.444.27.597.56l-.002-.036c-.01-.158-.016-.274-.002-.274.253 0 .404.707.403 1.039.06-.267.087-.495.111-.54.4.078.195 1.077.195 1.077-.008.078-.53.701-.53.701l-.14-.35c-.01.011-.016.015-.016.015l-.056-.633-.196-.38a.495.495 0 0 1-.013.023z" clip-rule="evenodd"/></mask><path fill="#DFDFDF" fill-rule="evenodd" d="M20.554 11.058c.006-.462-.413-.804-.607-.962-.058-.048-.095-.079-.095-.091.055-.335.686.216.985.536-.065-.22-.174-.4-.234-.498-.031-.052-.05-.082-.042-.086.2-.1.444.27.597.56l-.002-.036c-.01-.158-.016-.274-.002-.274.253 0 .404.707.403 1.039.06-.267.087-.495.111-.54.4.078.195 1.077.195 1.077-.008.078-.53.701-.53.701l-.14-.35c-.01.011-.016.015-.016.015l-.056-.633-.196-.38a.495.495 0 0 1-.013.023z" clip-rule="evenodd" mask="url(#Saint_Barthelemy_svg__b)"/><path fill="#000" d="M20.566 11.058q.004-.304-.23-.603-.13-.164-.38-.37-.092-.074-.092-.08h-.012l.012.002q.018-.106.121-.092.097.013.26.123.28.188.583.512l.022-.013q-.066-.222-.236-.501-.028-.046-.035-.06l-.007-.015q0 .005-.005.008.125-.063.3.13.134.148.28.425l.024-.007-.002-.037q-.009-.147-.01-.195l.001-.056q0-.009.002-.013-.003.004-.008.004.162 0 .284.386.05.157.08.34.026.17.026.3l.026.003q.027-.124.065-.332.033-.182.045-.204l-.012-.007-.002.013q.24.047.237.555-.001.258-.052.506v.001q-.005.045-.265.373-.132.166-.263.322l.01.008.012-.004-.147-.368-.014.014-.014.013.007.01.013-.001-.056-.636-.198-.382h-.022l-.013.022.011.007.004-.012-.359-.102-.003.013zm-.025.01.377.106.005-.008.014-.025-.012-.005-.011.005.196.381.011-.006-.013.001.056.633.02.01.018-.016-.009-.01-.012.005.14.35.022.004q.131-.157.263-.323.265-.334.27-.386l-.013-.002.013.003q.052-.25.053-.511.003-.53-.258-.58l-.01-.002-.004.008q-.014.026-.048.213-.037.207-.064.33l.012.003h.013q0-.132-.027-.304-.03-.185-.08-.344-.128-.404-.31-.404-.016 0-.019.033v.058q0 .05.009.197l.002.037.013-.001.011-.006q-.147-.28-.283-.43-.188-.208-.33-.136-.013.006-.009.023l.01.019q.007.015.035.061.168.277.233.495l.012-.003.01-.009q-.305-.326-.587-.515-.169-.114-.272-.127-.128-.018-.15.113v.002q0 .018.101.1.249.204.376.366.23.291.226.586z"/><path fill="#FFF" d="M20.7 14.32s.11-1.36-.07-1.56l.51-.75.66 1.3-.6 1.09z"/><path stroke="#000" stroke-width=".026" d="m20.63 12.76.51-.75.66 1.3-.6 1.09-.5-.08s.11-1.36-.07-1.56Z"/><path fill="#DFDFDF" d="M20.7 14.32s.11-1.36-.07-1.56l.51-.75.66 1.3-.6 1.09z"/><path stroke="#000" stroke-width=".026" d="m20.63 12.76.51-.75.66 1.3-.6 1.09-.5-.08s.11-1.36-.07-1.56Z"/><path fill="#DFDFDF" d="M21.18 17.28c-.22.28-.33.92-.33.92l-.07-.21c-.03.02-.05.19-.09.19-.02 0-.02-.17-.06-.18-.02 0-.01.23-.05.23-.03 0-.04-.17-.05-.16-.03.02-.03.22-.05.12.03-1.1-2.12-1.99-2.08-3.22-.05-1.27 1.31-1.76 2.15-2.83 0 0 .24-.7-.2-.39-.35-.05-.32-.4-.32-.4h-.19c-.08-.75.67-.57.67-.57.7 0 .76.72.76.72.18.94-1.04 2.06-1.04 2.06-.18.39 0 1.06 0 1.06l1.7 1.6"/><path stroke="#000" stroke-width=".026" d="M21.18 17.28c-.22.28-.33.92-.33.92l-.07-.21c-.03.02-.05.19-.09.19-.02 0-.02-.17-.06-.18-.02 0-.01.23-.05.23-.03 0-.04-.17-.05-.16-.03.02-.03.22-.05.12.03-1.1-2.12-1.99-2.08-3.22-.05-1.27 1.31-1.76 2.15-2.83 0 0 .24-.7-.2-.39-.35-.05-.32-.4-.32-.4h-.19c-.08-.75.67-.57.67-.57.7 0 .76.72.76.72.18.94-1.04 2.06-1.04 2.06-.18.39 0 1.06 0 1.06l1.7 1.6"/><path fill="#DFDFDF" d="M21.91 16.2c.09.12.57.69.69.89.17.18-.16.13-.16.13s.48.5.71.65c-.07.21-.53-.1-.53-.1s.45.27.42.33c-.13.1-.53-.19-.53-.19s.1.13.02.18c-.13 0-.44-.24-.44-.24s.07.14 0 .16c-.13-.08-.93-.74-.93-.74"/><path stroke="#000" stroke-width=".026" d="M21.91 16.2c.09.12.57.69.69.89.17.18-.16.13-.16.13s.48.5.71.65c-.07.21-.53-.1-.53-.1s.45.27.42.33c-.13.1-.53-.19-.53-.19s.1.13.02.18c-.13 0-.44-.24-.44-.24s.07.14 0 .16c-.13-.08-.93-.74-.93-.74M21.6 15.87s.24.31.08.26"/><mask id="Saint_Barthelemy_svg__c" fill="#fff"><path fill-rule="evenodd" d="M22.782 10.593c-.067.006-.15.668-.767 1.247l-.05.365-.044.025.034.046-.012.082.046-.036.274.368.025-.023-.119.58.022-.017-.01.426-.057.26-.044.01-.152.577-.305.31-.054.01.029.015-.007.008.019-.001.005.002-.207.103.017.014-.27-.113.071.242-.435.123c.176.038.33.678.419.722.04-.004.116-.072.116-.33 0-.068-.005-.15-.018-.248.1.052.216.345.314.595.08.205.15.38.19.368a.477.477 0 0 0 .118-.344c0-.242-.105-.534-.215-.772.287.082.517.44.675.686.09.14.157.244.198.242.037-.008.053-.045.053-.104 0-.175-.144-.537-.335-.86.092.051.213.147.334.242.183.145.364.288.434.265.013-.005.02-.02.02-.045 0-.127-.174-.496-.58-.846l.036-.002c.243.025 1.256-.42 1.256-.752a.163.163 0 0 0-.043-.108c-.006-.018-.115.032-.281.11a9.239 9.239 0 0 1-.593.256 3.05 3.05 0 0 0 .317-.156l.726-.712a.126.126 0 0 0-.025-.077c-.037-.008-.087.015-.184.062-.084.04-.203.096-.378.163.127-.103.625-.525.625-.763a.128.128 0 0 0-.052-.107c-.043-.012-.078.022-.147.09-.14.135-.417.405-1.174.697.256-.135.581-.33.824-.556l.378-.728c0-.057-.022-.1-.075-.121-.038-.015-.113.07-.229.2-.24.27-.66.742-1.304.947l.072-.053c.584-.434 1.318-.98 1.318-1.563a.695.695 0 0 0-.044-.243c-.036-.013-.064.04-.114.138-.113.218-.34.659-1.04 1.07.21-.197.621-.599.658-.755 0 0 .185-.392.185-.654 0-.103-.028-.185-.108-.217-.021-.008-.052.048-.106.143a3.524 3.524 0 0 1-.247.393c.058-.213.125-.502.125-.693 0-.125-.03-.21-.108-.203" clip-rule="evenodd"/></mask><path fill="#DFDFDF" fill-rule="evenodd" d="M22.782 10.593c-.067.006-.15.668-.767 1.247l-.05.365-.044.025.034.046-.012.082.046-.036.274.368.025-.023-.119.58.022-.017-.01.426-.057.26-.044.01-.152.577-.305.31-.054.01.029.015-.007.008.019-.001.005.002-.207.103.017.014-.27-.113.071.242-.435.123c.176.038.33.678.419.722.04-.004.116-.072.116-.33 0-.068-.005-.15-.018-.248.1.052.216.345.314.595.08.205.15.38.19.368a.477.477 0 0 0 .118-.344c0-.242-.105-.534-.215-.772.287.082.517.44.675.686.09.14.157.244.198.242.037-.008.053-.045.053-.104 0-.175-.144-.537-.335-.86.092.051.213.147.334.242.183.145.364.288.434.265.013-.005.02-.02.02-.045 0-.127-.174-.496-.58-.846l.036-.002c.243.025 1.256-.42 1.256-.752a.163.163 0 0 0-.043-.108c-.006-.018-.115.032-.281.11a9.239 9.239 0 0 1-.593.256 3.05 3.05 0 0 0 .317-.156l.726-.712a.126.126 0 0 0-.025-.077c-.037-.008-.087.015-.184.062-.084.04-.203.096-.378.163.127-.103.625-.525.625-.763a.128.128 0 0 0-.052-.107c-.043-.012-.078.022-.147.09-.14.135-.417.405-1.174.697.256-.135.581-.33.824-.556l.378-.728c0-.057-.022-.1-.075-.121-.038-.015-.113.07-.229.2-.24.27-.66.742-1.304.947l.072-.053c.584-.434 1.318-.98 1.318-1.563a.695.695 0 0 0-.044-.243c-.036-.013-.064.04-.114.138-.113.218-.34.659-1.04 1.07.21-.197.621-.599.658-.755 0 0 .185-.392.185-.654 0-.103-.028-.185-.108-.217-.021-.008-.052.048-.106.143a3.524 3.524 0 0 1-.247.393c.058-.213.125-.502.125-.693 0-.125-.03-.21-.108-.203" clip-rule="evenodd" mask="url(#Saint_Barthelemy_svg__c)"/><path fill="#000" d="M22.78 10.58q-.02.002-.04.048-.013.026-.043.108-.105.285-.212.478-.193.348-.479.616l-.003.003-.051.37.013.002-.007-.01-.044.024-.013.007.043.058.01-.008-.012-.002-.011.082.02.012.046-.036-.008-.01-.01.008.283.38.035-.033-.009-.01-.012-.002-.12.579.021.013.022-.017-.008-.01h-.013l-.01.425h.013l-.012-.002-.057.26.012.003-.002-.013-.052.011-.154.586.012.003-.009-.009-.305.31.01.009-.003-.013-.055.01-.003.024.029.016.006-.011-.01-.01-.006.008.01.022.018-.002v-.012l-.006.011.005.003.006-.011-.006-.012-.224.11.032.028.008-.01.005-.011-.27-.114-.017.015.07.242.013-.003-.003-.013-.436.123v.025q.065.014.145.16.047.087.132.295.051.126.074.173.038.08.066.094l.003.001h.004q.049-.005.084-.077.044-.092.044-.266 0-.11-.018-.25l-.013.002-.006.011q.063.033.152.218.054.11.156.37.078.199.11.267.058.121.095.11l.003-.002.003-.002q.122-.125.122-.354 0-.31-.216-.776l-.012.005-.004.012q.185.054.38.278.113.13.288.403.085.132.118.175.057.075.092.073h.002q.063-.014.063-.117 0-.132-.097-.38-.095-.24-.24-.486l-.011.007-.006.011q.09.05.332.24.183.145.26.196.134.088.186.07.029-.008.029-.056 0-.12-.14-.346-.168-.271-.444-.51l-.008.01v.013l.036-.002v-.013l-.002.013q.094.01.304-.061.209-.07.422-.183.236-.124.377-.25.166-.149.166-.271 0-.063-.045-.117l-.01.009.013-.005q-.007-.017-.039-.01-.02.006-.06.022-.048.02-.2.09-.368.172-.592.258l.004.011.005.012q.177-.075.319-.157h.001l.73-.718v-.005q0-.047-.027-.084l-.003-.004-.004-.001q-.03-.007-.077.01-.03.011-.116.052-.202.096-.376.163l.004.012.009.01q.204-.167.36-.332.27-.284.27-.441 0-.074-.059-.118l-.002-.001h-.002q-.035-.01-.074.017-.024.016-.085.075-.173.169-.354.289-.325.217-.816.406l.005.012.006.011q.524-.276.827-.557l.002-.002.38-.732v-.004q0-.102-.083-.133-.034-.013-.099.048-.038.036-.144.155-.285.32-.5.497-.38.314-.799.447l.004.012.008.01.072-.053q.301-.224.452-.345.257-.206.427-.381.444-.456.444-.847 0-.126-.045-.247l-.002-.006-.006-.002q-.033-.012-.066.032-.018.025-.063.112-.141.273-.299.46-.283.339-.736.605l.007.01.008.01q.619-.581.661-.76l-.012-.004.012.006q.046-.099.093-.23.093-.264.093-.43 0-.183-.116-.229-.024-.009-.056.038-.018.025-.066.111-.133.236-.247.391l.01.008.013.003q.125-.462.125-.696 0-.103-.025-.156-.03-.065-.096-.06m.003.026q.047-.004.07.045.024.048.024.145 0 .23-.125.69l.023.01q.115-.156.248-.393.08-.142.09-.138l.005-.012-.005.012q.1.04.1.205 0 .162-.092.421-.046.13-.092.228v.003q-.041.171-.654.748l.015.02q.457-.268.743-.61.16-.19.302-.465.044-.086.06-.109.022-.028.038-.023l.004-.012-.012.005q.043.117.043.238 0 .38-.436.829-.17.174-.425.379-.15.12-.451.344l-.072.054.011.022q.423-.134.808-.45.216-.179.502-.5.105-.12.143-.154.053-.05.072-.043.066.025.066.11h.013l-.012-.006-.377.727.011.006-.009-.01q-.3.28-.82.555l.01.023q.493-.19.82-.409.183-.121.358-.291.06-.058.081-.073.03-.02.053-.014l.004-.012-.008.01q.047.036.047.097 0 .147-.261.423-.156.164-.359.33l.013.022q.175-.067.378-.164.144-.068.176-.06l.003-.013-.01.008q.022.03.022.069h.013l-.01-.01-.725.713.01.009-.007-.011q-.14.08-.316.156l.01.024q.225-.087.593-.258.152-.07.2-.09.038-.015.056-.02l.013-.002q-.003 0-.005-.005l.001.002.002.002q.039.046.039.1 0 .11-.158.251-.14.124-.372.247-.211.112-.418.181-.205.07-.293.06h-.002l-.036.002-.008.023q.273.236.44.504.135.218.135.332 0 .029-.01.033-.042.013-.164-.068-.077-.05-.26-.195-.242-.191-.335-.242l-.017.018q.144.243.238.482.095.242.095.37 0 .082-.042.091l.002.013v-.013q-.034.002-.187-.236-.177-.275-.29-.406-.2-.23-.393-.285l-.015.018q.214.461.214.766 0 .218-.115.335l.01.01-.004-.013q-.028.009-.174-.36-.103-.262-.157-.373-.093-.193-.163-.23l-.019.014q.018.138.018.246 0 .168-.041.255-.029.059-.063.062v.013l.006-.011q-.03-.016-.127-.254-.086-.21-.134-.298-.085-.155-.16-.172l-.003.013.003.012.448-.127-.074-.254-.013.004-.005.012.27.113.014-.021-.017-.015-.009.01.006.011.207-.102v-.023l-.009-.005-.022.002v.013l.01.009.02-.02-.045-.023-.006.011.002.013.058-.011.31-.315.153-.581-.012-.004.003.013.052-.011.059-.27.01-.427-.02-.01-.022.016.008.01.012.003.119-.579-.021-.012-.025.023.008.01.01-.009-.282-.379-.056.045.008.01.013.002.012-.087-.037-.05-.01.007.006.011.044-.025.006-.003.05-.371-.012-.002.009.01q.288-.271.483-.623.109-.195.214-.482.051-.138.062-.139"/><path fill="#DFDFDF" d="M19.9 14.55s0-.36.18-.38c.29-.01.58 0 .86.05 1.03-.62.22-1.41.37-1.69.04-.42.74-1.05.74-1.05.07.06-.02.46.03.43.15-.07.06.24.1.32.13-.05.12.15.09.3.11.02.07.21.05.34.21-.12-.07.33.01.32.32-.05-.05.31-.05.31.19.07.1.21-.03.27.16.11-.01.3-.06.31.14.08-.02.19-.1.27.13.13-.11.18-.23.23.09.15-.02.18-.12.22.06.12-.09.11-.19.1.12.12-.07.18-.15.16 0 0-.04.16-.18.1.04.13-.24.11-.24.11 0 .13-.42.08-.42.08"/><path stroke="#000" stroke-width=".026" d="M19.9 14.55s0-.36.18-.38c.29-.01.58 0 .86.05 1.03-.62.22-1.41.37-1.69.04-.42.74-1.05.74-1.05.07.06-.02.46.03.43.15-.07.06.24.1.32.13-.05.12.15.09.3.11.02.07.21.05.34.21-.12-.07.33.01.32.32-.05-.05.31-.05.31.19.07.1.21-.03.27.16.11-.01.3-.06.31.14.08-.02.19-.1.27.13.13-.11.18-.23.23.09.15-.02.18-.12.22.06.12-.09.11-.19.1.12.12-.07.18-.15.16 0 0-.04.16-.18.1.04.13-.24.11-.24.11 0 .13-.42.08-.42.08"/><path fill="#EACE24" d="M7.2 18c-.01 1.24-.02 1.29-.02 1.29.55.53.61.73.77.9.21-.3.54-.18.54-.18.06-.29.41-.54.41-.54-.48-.03-1.32-.28-1.39-.38-.22-.33.08-1.33.08-1.33z"/><path fill="#EACE24" d="m8.4 19.95-.54-.41.64.38zM7.6 17.41s.67-.28 1.37.21c.05.01.11.01.16 0 .14-.14.44-.56.67-.51.02-.36-.02-1.78-.02-1.78-.1 0-.14.2-.14.2.06.4-.17 2.87-1.13 1.24l-.68.07zM7.23 11.7c.58.21.59.32 1.16.83.46.18 1.14.63 1.18.73l-.04.14c.09.06.17-.14.17-.14-.09-.51-1.7-2.02-1.7-2.02l-.71.15z"/><mask id="Saint_Barthelemy_svg__d" fill="#fff"><path fill-rule="evenodd" d="M7.445 11.058c-.006-.462.412-.804.606-.962.058-.047.095-.078.095-.09-.054-.336-.686.216-.985.535.065-.22.174-.399.234-.498.031-.052.05-.082.042-.085-.2-.1-.443.269-.597.56l.002-.037c.01-.158.016-.273.002-.273-.253 0-.404.706-.403 1.038-.06-.267-.087-.495-.111-.54-.4.079-.195 1.077-.195 1.077.008.078.53.702.53.702l.14-.35.016.014.056-.632.196-.381a.532.532 0 0 0 .013.023z" clip-rule="evenodd"/></mask><path fill="#DFDFDF" fill-rule="evenodd" d="M7.445 11.058c-.006-.462.412-.804.606-.962.058-.047.095-.078.095-.09-.054-.336-.686.216-.985.535.065-.22.174-.399.234-.498.031-.052.05-.082.042-.085-.2-.1-.443.269-.597.56l.002-.037c.01-.158.016-.273.002-.273-.253 0-.404.706-.403 1.038-.06-.267-.087-.495-.111-.54-.4.079-.195 1.077-.195 1.077.008.078.53.702.53.702l.14-.35.016.014.056-.632.196-.381a.532.532 0 0 0 .013.023z" clip-rule="evenodd" mask="url(#Saint_Barthelemy_svg__d)"/><path fill="#000" d="M7.432 11.058q-.004-.304.23-.603.13-.164.38-.369.092-.074.092-.08h.012l-.012.001q-.018-.105-.12-.091-.098.013-.262.123-.279.187-.582.511l-.022-.012q.066-.223.236-.502.028-.046.035-.06l.007-.014q0 .005.005.007-.125-.063-.3.13-.134.149-.28.425l-.024-.007.002-.036q.009-.148.01-.196v-.056l-.003-.012q.003.003.008.003-.162 0-.284.386-.05.157-.08.34-.026.17-.026.3l-.026.003q-.027-.123-.065-.331-.033-.183-.045-.205l.012-.006.002.012q-.24.047-.237.555.001.258.052.506v.002q.005.044.265.373.132.165.263.322l-.01.008-.012-.005.147-.368.014.014.014.013-.007.01h-.013l.056-.636.198-.383h.022l.013.023-.011.006-.004-.012.359-.101.004.012zm.026.01-.378.107-.005-.009-.013-.024.011-.006.011.006-.196.38-.011-.005h.013l-.056.634-.02.01q-.007-.005-.018-.017l.009-.009.012.005-.14.35-.022.003q-.131-.157-.263-.322-.265-.334-.27-.387l.013-.001-.013.003q-.051-.251-.053-.512-.003-.53.258-.58l.01-.002.004.008q.014.026.048.213.037.207.064.33l-.012.003h-.013q0-.131.027-.304.03-.185.08-.343.128-.404.31-.404.016 0 .019.032v.059q0 .048-.009.196l-.002.037H6.84l-.011-.007q.147-.28.283-.43.188-.207.331-.136.012.006.008.023l-.009.02-.036.06q-.168.277-.233.496l-.012-.004-.01-.009q.305-.326.587-.515.169-.113.272-.127.128-.017.15.113v.002q0 .019-.101.101-.249.203-.376.365-.23.292-.226.587z"/><path fill="#FFF" d="M7.28 14.32s-.1-1.36.07-1.56l-.5-.75-.66 1.3.59 1.09z"/><path stroke="#000" stroke-width=".026" d="m7.35 12.76-.5-.75-.66 1.3.59 1.09.5-.08s-.1-1.36.07-1.56Z"/><path fill="#DFDFDF" d="M7.28 14.32s-.1-1.36.07-1.56l-.5-.75-.66 1.3.59 1.09z"/><path stroke="#000" stroke-width=".026" d="m7.35 12.76-.5-.75-.66 1.3.59 1.09.5-.08s-.1-1.36.07-1.56Z"/><path fill="#DFDFDF" d="M6.81 17.28c.22.28.33.92.33.92l.06-.21c.03.02.05.19.1.19.02 0 .01-.17.06-.18.02 0 0 .23.05.23.03 0 .04-.17.05-.16.02.02.03.22.05.12-.03-1.1 2.12-1.99 2.08-3.22.05-1.27-1.32-1.76-2.16-2.83 0 0-.23-.7.2-.39.35-.05.32-.4.32-.4h.2c.08-.75-.67-.57-.67-.57-.7 0-.76.72-.76.72-.18.94 1.04 2.06 1.04 2.06.18.39-.01 1.06-.01 1.06l-1.69 1.6"/><path stroke="#000" stroke-width=".026" d="M6.81 17.28c.22.28.33.92.33.92l.06-.21c.03.02.05.19.1.19.02 0 .01-.17.06-.18.02 0 0 .23.05.23.03 0 .04-.17.05-.16.02.02.03.22.05.12-.03-1.1 2.12-1.99 2.08-3.22.05-1.27-1.32-1.76-2.16-2.83 0 0-.23-.7.2-.39.35-.05.32-.4.32-.4h.2c.08-.75-.67-.57-.67-.57-.7 0-.76.72-.76.72-.18.94 1.04 2.06 1.04 2.06.18.39-.01 1.06-.01 1.06l-1.69 1.6"/><path fill="#DFDFDF" d="M6.08 16.2c-.09.12-.57.69-.69.89-.17.18.15.13.15.13s-.47.5-.7.65c.07.21.52-.1.52-.1s-.44.28-.42.33c.14.1.53-.19.53-.19s-.09.14-.01.18c.13 0 .44-.24.44-.24s-.07.14 0 .16c.13-.08.92-.74.92-.74"/><path stroke="#000" stroke-width=".026" d="M6.08 16.2c-.09.12-.57.69-.69.89-.17.18.15.13.15.13s-.47.5-.7.65c.07.21.52-.1.52-.1s-.44.28-.42.33c.14.1.53-.19.53-.19s-.09.14-.01.18c.13 0 .44-.24.44-.24s-.07.14 0 .16c.13-.08.92-.74.92-.74M6.39 15.87s-.24.31-.08.26"/><mask id="Saint_Barthelemy_svg__e" fill="#fff"><path fill-rule="evenodd" d="M5.216 10.594c.067.005.15.667.767 1.246l.05.366.044.024-.034.046.012.082-.046-.036-.274.369-.025-.023.119.579-.022-.017.01.426.057.26.044.01.152.578.305.31.054.01-.029.015.007.007-.019-.001-.005.003.207.102-.017.015.27-.114-.071.242.435.123c-.176.039-.33.678-.419.722-.04-.003-.116-.072-.116-.33 0-.068.005-.15.018-.248-.1.052-.216.346-.314.595-.08.205-.15.38-.19.368a.476.476 0 0 1-.118-.344c0-.242.105-.533.215-.771-.287.082-.517.44-.675.686-.09.14-.157.243-.198.242-.037-.008-.053-.046-.053-.105 0-.175.144-.537.335-.859-.092.05-.213.147-.334.242-.183.145-.364.287-.434.264-.013-.004-.02-.02-.02-.045 0-.126.174-.495.58-.845l-.036-.002c-.243.024-1.256-.421-1.256-.753 0-.037.014-.074.043-.108.006-.018.115.032.281.11.158.073.368.171.593.257a3.048 3.048 0 0 1-.317-.157l-.726-.712c0-.027.008-.053.025-.076.037-.01.087.015.184.061.084.04.203.096.378.163-.127-.103-.625-.525-.625-.763 0-.043.016-.08.052-.107.043-.011.078.023.147.09.14.136.417.405 1.174.697a3.995 3.995 0 0 1-.824-.555l-.378-.728c0-.058.022-.101.075-.122.038-.014.113.07.229.2.24.271.66.743 1.304.947l-.072-.053c-.584-.434-1.318-.979-1.318-1.563 0-.08.014-.16.044-.242.036-.014.064.04.114.137.113.219.34.66 1.04 1.07-.21-.196-.621-.599-.658-.754 0 0-.185-.392-.185-.654 0-.103.029-.186.108-.217.021-.008.053.047.106.143.055.097.133.237.247.392-.057-.213-.125-.501-.125-.693 0-.125.03-.209.108-.202" clip-rule="evenodd"/></mask><path fill="#DFDFDF" fill-rule="evenodd" d="M5.216 10.594c.067.005.15.667.767 1.246l.05.366.044.024-.034.046.012.082-.046-.036-.274.369-.025-.023.119.579-.022-.017.01.426.057.26.044.01.152.578.305.31.054.01-.029.015.007.007-.019-.001-.005.003.207.102-.017.015.27-.114-.071.242.435.123c-.176.039-.33.678-.419.722-.04-.003-.116-.072-.116-.33 0-.068.005-.15.018-.248-.1.052-.216.346-.314.595-.08.205-.15.38-.19.368a.476.476 0 0 1-.118-.344c0-.242.105-.533.215-.771-.287.082-.517.44-.675.686-.09.14-.157.243-.198.242-.037-.008-.053-.046-.053-.105 0-.175.144-.537.335-.859-.092.05-.213.147-.334.242-.183.145-.364.287-.434.264-.013-.004-.02-.02-.02-.045 0-.126.174-.495.58-.845l-.036-.002c-.243.024-1.256-.421-1.256-.753 0-.037.014-.074.043-.108.006-.018.115.032.281.11.158.073.368.171.593.257a3.048 3.048 0 0 1-.317-.157l-.726-.712c0-.027.008-.053.025-.076.037-.01.087.015.184.061.084.04.203.096.378.163-.127-.103-.625-.525-.625-.763 0-.043.016-.08.052-.107.043-.011.078.023.147.09.14.136.417.405 1.174.697a3.995 3.995 0 0 1-.824-.555l-.378-.728c0-.058.022-.101.075-.122.038-.014.113.07.229.2.24.271.66.743 1.304.947l-.072-.053c-.584-.434-1.318-.979-1.318-1.563 0-.08.014-.16.044-.242.036-.014.064.04.114.137.113.219.34.66 1.04 1.07-.21-.196-.621-.599-.658-.754 0 0-.185-.392-.185-.654 0-.103.029-.186.108-.217.021-.008.053.047.106.143.055.097.133.237.247.392-.057-.213-.125-.501-.125-.693 0-.125.03-.209.108-.202" clip-rule="evenodd" mask="url(#Saint_Barthelemy_svg__e)"/><path fill="#000" d="M5.218 10.58q.02.003.04.049.013.025.043.108.105.284.212.478.193.348.479.616l.003.003.051.37-.013.002.007-.012.044.025.013.007-.043.058-.01-.008.012-.001.011.082-.02.011L6 12.333l.008-.01.01.008-.282.38-.036-.033.009-.01.012-.002.12.58-.021.012-.022-.016.008-.01h.013l.01.425h-.013l.013-.003.056.26-.012.003.002-.012.053.01.153.586-.012.004.01-.01.304.31-.01.01.003-.013.055.01.003.024-.029.015-.006-.011.01-.01.006.008-.01.022-.018-.001v-.013l.006.011-.005.003-.006-.011.006-.012.224.11-.032.029-.008-.01-.005-.012.27-.114.017.016-.07.242-.013-.004.003-.012.436.123v.024q-.065.015-.144.16-.048.087-.133.295-.051.126-.074.173-.038.08-.066.094l-.003.002h-.004q-.049-.005-.084-.078-.044-.091-.044-.265 0-.11.018-.25l.013.001.006.012q-.063.032-.152.217-.054.11-.156.371-.078.198-.11.267-.058.12-.095.109l-.003-.001-.003-.003q-.122-.124-.122-.353 0-.31.216-.777l.012.005.004.013q-.185.053-.38.277-.113.13-.288.403-.085.132-.118.176-.057.074-.092.072h-.002q-.063-.013-.063-.117 0-.132.097-.379.095-.241.24-.486l.011.006.006.012q-.09.05-.332.24-.183.145-.26.196-.134.088-.186.07-.029-.01-.029-.057 0-.12.14-.346.168-.271.444-.509l.008.01v.013l-.036-.003v-.012l.002.012q-.094.01-.304-.06-.209-.071-.422-.184-.236-.124-.377-.25-.167-.148-.167-.27 0-.064.046-.117l.01.008-.013-.004q.007-.018.039-.01.02.005.06.021.048.02.2.091.368.171.592.257l-.004.012-.005.012q-.177-.076-.319-.158h-.001l-.73-.717v-.006q0-.047.027-.084l.003-.004h.004q.03-.008.077.01.03.01.116.051.202.096.376.163l-.004.012-.009.01q-.204-.167-.36-.332-.269-.283-.269-.441 0-.073.058-.117l.002-.002h.002q.035-.01.074.017.024.016.085.075.173.169.354.29.325.216.816.405l-.005.012-.006.012q-.524-.277-.827-.558l-.001-.002-.38-.732v-.003q0-.102.082-.134.034-.013.099.048.038.036.144.155.285.32.5.498.38.313.799.446l-.004.012-.008.01-.072-.053q-.301-.224-.452-.345-.256-.206-.427-.381-.444-.456-.444-.847 0-.125.045-.247l.002-.005.006-.002q.033-.013.066.031.018.025.063.112.141.273.299.46.283.34.736.605l-.007.011-.008.01q-.619-.582-.661-.761l.012-.003-.011.005q-.047-.098-.094-.23-.093-.263-.093-.43 0-.183.116-.229.025-.008.057.038.017.026.065.111.133.237.247.392l-.01.007-.013.003q-.125-.462-.125-.696 0-.103.025-.156.03-.065.096-.06m-.003.027q-.047-.004-.07.044-.024.048-.024.145 0 .231.125.69l-.023.01q-.115-.155-.248-.393-.08-.141-.09-.137l-.005-.012.005.011q-.1.04-.1.206 0 .161.092.42.046.13.092.228v.003q.041.172.654.748l-.015.02q-.457-.268-.743-.61-.16-.19-.301-.465-.045-.085-.062-.108-.02-.029-.037-.023l-.004-.012.012.004q-.043.117-.043.238 0 .38.436.829.17.174.425.379.15.121.452.345l.071.053-.011.023q-.423-.135-.808-.452-.216-.177-.502-.5-.105-.118-.143-.153-.053-.05-.072-.043-.066.025-.066.11H4.2l.012-.006.377.728-.011.006.009-.01q.3.28.82.554l-.01.024q-.493-.191-.82-.41-.183-.12-.358-.291-.06-.058-.081-.073-.03-.02-.053-.014l-.004-.012.008.01q-.047.036-.047.097 0 .147.261.423.156.165.359.33l-.013.022q-.175-.067-.378-.163-.144-.069-.176-.06l-.003-.013.01.007q-.022.03-.022.07h-.013l.01-.01.725.712-.01.01.007-.012q.141.081.316.156l-.01.024q-.225-.086-.593-.258-.152-.07-.2-.09-.038-.015-.056-.02l-.013-.002q.003 0 .005-.004l-.001.002-.002.002q-.039.045-.039.1 0 .11.158.25.14.125.372.248.211.111.418.18.205.07.293.06h.002l.036.003.008.022q-.273.236-.44.504-.135.219-.135.332 0 .03.01.033.042.013.164-.068.077-.05.26-.194.242-.192.335-.243l.017.018q-.144.243-.238.483-.095.242-.095.37 0 .082.042.09l-.002.014v-.013q.034.001.187-.236.177-.275.29-.407.2-.23.393-.285l.015.018q-.214.462-.214.766 0 .218.115.335l-.01.01.004-.013q.028.009.174-.36.103-.261.157-.373.093-.193.163-.23l.019.014q-.018.138-.018.247 0 .168.041.254.029.06.063.063v.012l-.006-.011q.03-.016.127-.254.086-.21.134-.298.085-.155.16-.172l.003.013-.003.012-.448-.126.074-.254.013.003.005.012-.27.114-.014-.022.017-.015.009.01-.006.011-.207-.101v-.024l.009-.004.022.001v.013l-.01.01-.02-.02.045-.024.006.011-.002.013-.058-.01-.31-.316-.153-.581.012-.003-.003.012-.052-.01-.059-.27-.01-.427.02-.01.022.015-.007.01-.013.003-.119-.579.021-.012.025.023-.008.01-.01-.008.282-.38.056.045-.008.01-.013.002-.012-.087.037-.05.01.007-.006.012-.044-.025-.005-.003-.052-.372.013-.002-.009.01q-.288-.271-.483-.623-.109-.195-.214-.481-.051-.139-.062-.14"/><path fill="#DFDFDF" d="M8.09 14.55s0-.36-.18-.38c-.29-.01-.58 0-.86.05-1.03-.62-.22-1.41-.37-1.69-.04-.42-.74-1.05-.74-1.05-.07.06.02.46-.04.43-.14-.07-.05.24-.09.32-.13-.05-.13.15-.09.3-.11.02-.07.21-.05.34-.21-.12.06.33-.01.32-.33-.05.05.31.05.31-.19.07-.1.21.03.27-.16.11 0 .3.06.31-.15.08.02.19.1.27-.13.13.11.18.23.23-.09.15.02.18.12.22-.07.12.09.11.18.1-.11.12.08.18.16.16 0 0 .04.16.18.1-.04.13.24.11.24.11 0 .13.41.08.41.08"/><path stroke="#000" stroke-width=".026" d="M8.09 14.55s0-.36-.18-.38c-.29-.01-.58 0-.86.05-1.03-.62-.22-1.41-.37-1.69-.04-.42-.74-1.05-.74-1.05-.07.06.02.46-.04.43-.14-.07-.05.24-.09.32-.13-.05-.13.15-.09.3-.11.02-.07.21-.05.34-.21-.12.06.33-.01.32-.33-.05.05.31.05.31-.19.07-.1.21.03.27-.16.11 0 .3.06.31-.15.08.02.19.1.27-.13.13.11.18.23.23-.09.15.02.18.12.22-.07.12.09.11.18.1-.11.12.08.18.16.16 0 0 .04.16.18.1-.04.13.24.11.24.11 0 .13.41.08.41.08"/><path fill="#EACE24" fill-rule="evenodd" d="M16.78 12.86s.15-.13.17-.27c.01-.05 0-.11-.02-.16l.03.03c.06.05.24.07.24.07s-.1-.13-.13-.18c0-.02-.01-.03-.02-.04-.01-.04-.03-.08-.04-.11h-.46c-.01.03-.03.07-.04.11-.01.01-.02.02-.02.04-.03.05-.13.18-.13.18s.18-.02.24-.07l.03-.03c-.02.05-.03.11-.02.16.02.14.17.27.17.27m-.22-.87H17c.01-.07.02-.15.05-.19.01-.03.05-.06.08-.06.04 0 .08.01.09.04.02.03.02.07.02.11 0 .04-.05.12-.05.12s.17-.04.22-.08c.06-.04.12-.12.13-.19.02-.07.02-.13 0-.19a.386.386 0 0 0-.11-.17c-.1-.09-.3-.06-.35-.04 0 .01-.01.01-.02.02.02-.03.04-.07.06-.11.02-.04.02-.09.02-.14 0-.04 0-.09-.02-.13a.36.36 0 0 0-.11-.14l-.04-.03c-.04-.02-.07-.04-.09-.05-.05-.04-.09-.15-.1-.17v-.01.01c-.01.02-.05.13-.1.17l-.01.01c-.02.01-.07.04-.12.07a.36.36 0 0 0-.11.14c-.02.04-.02.09-.02.13 0 .05 0 .1.02.14.01.04.04.08.06.11-.01-.01-.02-.01-.02-.02-.05-.02-.25-.05-.35.04-.05.05-.09.1-.11.17-.02.06-.02.12 0 .19s.07.15.13.19c.06.04.22.08.22.08s-.05-.08-.05-.12c0-.04 0-.08.02-.11.01-.03.06-.04.09-.04s.07.03.08.06c.03.04.04.12.05.19M14 12.86s.15-.13.17-.27c.01-.05 0-.11-.02-.16l.03.03c.06.05.24.07.24.07s-.1-.13-.12-.18c-.01-.02-.02-.03-.02-.04-.02-.04-.03-.08-.04-.11h-.47c0 .03-.02.07-.04.11 0 .01-.01.02-.02.04-.02.05-.12.18-.12.18s.18-.02.24-.07c.01-.01.02-.02.02-.03-.01.05-.03.11-.02.16.03.14.17.27.17.27m-.22-.87h.45c0-.07.01-.15.04-.19.02-.03.06-.06.09-.06s.07.01.09.04c.01.03.02.07.02.11-.01.04-.05.12-.05.12s.16-.04.22-.08c.05-.04.11-.12.13-.19.02-.07.02-.13 0-.19a.5.5 0 0 0-.11-.17c-.11-.09-.31-.06-.35-.04-.01.01-.02.01-.03.02.02-.03.05-.07.07-.11a.59.59 0 0 0 .02-.14c0-.04-.01-.09-.02-.13a.36.36 0 0 0-.11-.14l-.05-.03a.31.31 0 0 1-.18-.22l-.01-.01v.01c-.01.02-.04.13-.1.17l-.01.01c-.02.01-.06.04-.12.07a.36.36 0 0 0-.11.14c-.01.04-.02.09-.02.13 0 .05.01.1.02.14.02.04.05.08.07.11-.01-.01-.02-.01-.03-.02-.04-.02-.24-.05-.35.04a.5.5 0 0 0-.11.17c-.02.06-.02.12 0 .19s.08.15.13.19c.06.04.22.08.22.08s-.04-.08-.05-.12c0-.04.01-.08.02-.11.02-.03.06-.04.09-.04s.07.03.09.06c.03.04.04.12.04.19M11.23 12.86s.14-.13.17-.27c.01-.05 0-.11-.02-.16l.03.03c.05.05.24.07.24.07s-.1-.13-.13-.18c-.01-.02-.01-.03-.02-.04-.02-.04-.03-.08-.04-.11H11c-.01.03-.03.07-.04.11-.01.01-.02.02-.02.04-.03.05-.13.18-.13.18s.18-.02.24-.07l.03-.03c-.02.05-.03.11-.02.16.02.14.17.27.17.27m-.22-.87h.44c0-.07.02-.15.05-.19.01-.03.05-.06.08-.06s.08.01.09.04c.02.03.02.07.02.11 0 .04-.05.12-.05.12s.16-.04.22-.08c.05-.04.11-.12.13-.19.02-.07.02-.13 0-.19a.386.386 0 0 0-.11-.17c-.1-.09-.31-.06-.35-.04l-.02.02c.02-.03.04-.07.06-.11.02-.04.02-.09.02-.14 0-.04 0-.09-.02-.13a.36.36 0 0 0-.11-.14l-.04-.03c-.04-.02-.08-.04-.09-.05-.06-.04-.09-.15-.1-.17v-.01.01c-.01.02-.05.13-.11.17v.01c-.02.01-.07.04-.12.07a.36.36 0 0 0-.11.14c-.02.04-.02.09-.02.13-.01.05 0 .1.02.14.01.04.04.08.06.11-.01-.01-.02-.01-.02-.02-.05-.02-.25-.05-.35.04-.05.05-.09.1-.11.17-.02.06-.02.12 0 .19.01.07.07.15.13.19.05.04.22.08.22.08s-.05-.08-.05-.12c0-.04 0-.08.02-.11.01-.03.05-.04.08-.04.04 0 .08.03.09.06.03.04.04.12.05.19M13.14 19.49l.08-.08c0-.19.01-.4-.02-.61-.01 0-.01 0-.02.01-.01 0-.02-.01-.03-.01-.01 0-.02-.01-.03-.02-.01-.01-.01-.02-.02-.03v-.04c0-.01.01-.02.02-.03 0-.01.01-.02.02-.02.01-.01.02-.01.03-.01-.03-.14-.08-.28-.14-.41.04-.01.07-.01.11 0 .04.01.07.03.09.06.03.03.05.06.05.1.01.04.01.07-.01.11.03-.01.06-.02.09-.02s.06.01.08.02c.03.01.05.03.07.06.02.02.03.05.04.08.01.03.01.06 0 .08-.01.03-.02.06-.04.08-.02.03-.04.05-.07.06-.03.01-.06.02-.09.02-.01 0-.02 0-.04-.01.02.14.09.24.17.24.06 0 .12-.06.15-.15.03.09.08.15.15.15.09 0 .16-.12.16-.27-.02.02-.05.03-.08.04-.03 0-.06 0-.09-.01a.218.218 0 0 1-.08-.05.218.218 0 0 1-.05-.08.139.139 0 0 1 0-.09c0-.03.01-.06.03-.09.02-.02.04-.04.07-.06.03-.01.06-.02.09-.02a.169.169 0 0 1-.03-.1c0-.03.01-.07.03-.1.02-.03.04-.05.07-.07.03-.02.07-.03.1-.03.04 0 .07.01.1.03.03.02.06.04.08.07.01.03.02.07.02.1 0 .04-.01.07-.02.1.03 0 .06.01.09.02.02.02.05.04.07.06.01.03.03.06.03.09.01.03 0 .06-.01.09s-.02.06-.04.08c-.03.02-.05.04-.08.05-.03.01-.06.01-.09.01-.03-.01-.06-.02-.09-.04.01.15.08.27.17.27.06 0 .12-.06.15-.15.03.09.08.15.15.15.08 0 .15-.1.16-.24-.01.01-.02.01-.04.01-.03 0-.06-.01-.08-.02a.134.134 0 0 1-.07-.06c-.02-.02-.04-.05-.04-.08-.01-.02-.01-.05 0-.08 0-.03.02-.06.04-.08.01-.03.04-.05.06-.06.03-.01.06-.02.09-.02s.06.01.09.02c-.02-.04-.02-.07-.02-.11.01-.04.03-.07.05-.1.03-.03.06-.05.1-.06.03-.01.07-.01.11 0-.07.13-.11.27-.14.41.01 0 .02 0 .02.01.01 0 .02.01.03.02.01.01.01.02.01.03.01.02.01.03 0 .04 0 .01-.01.02-.01.03-.01.01-.02.02-.03.02-.01 0-.03.01-.04.01 0-.01-.01-.01-.01-.01-.03.21-.02.41-.02.61l.07.08-.07.07c0 .04-.01.07-.01.12h-1.55c0-.04-.01-.08-.01-.12zM11.58 17.73l.07-.08c0-.19.01-.4-.02-.61l-.01.01c-.02 0-.03 0-.04-.01-.01 0-.02-.01-.03-.02-.01-.01-.01-.02-.02-.03v-.04c.01-.01.01-.02.02-.03 0-.01.01-.02.02-.02s.02-.01.03-.01c-.03-.14-.08-.28-.14-.41.04-.01.08-.01.11 0 .04.01.07.03.1.06.02.03.04.06.05.1 0 .04 0 .08-.02.11.03-.01.06-.02.09-.02s.06.01.08.02c.03.02.05.03.07.06.02.02.03.05.04.08.01.03.01.06 0 .09-.01.02-.02.05-.04.08-.02.02-.04.04-.07.05-.02.01-.05.02-.08.02h-.04c.01.13.08.23.16.23.07 0 .12-.06.15-.15.03.09.08.15.15.15.09 0 .16-.12.17-.27-.03.02-.06.03-.09.04-.03 0-.06 0-.09-.01a.218.218 0 0 1-.08-.05.218.218 0 0 1-.05-.08c0-.03-.01-.06 0-.09 0-.03.02-.06.03-.09.02-.02.05-.04.07-.06.03-.01.06-.02.09-.02-.01-.03-.02-.06-.02-.1 0-.03.01-.07.02-.1.02-.03.05-.05.08-.07.03-.02.06-.03.1-.03.03 0 .06.01.09.03.03.02.06.04.08.07.01.03.02.07.02.1 0 .04 0 .07-.02.1.03 0 .06.01.09.02.02.02.05.04.07.06.02.03.03.06.03.09.01.03.01.06 0 .09s-.03.06-.05.08c-.02.02-.05.04-.08.05-.03.01-.06.01-.09.01a.355.355 0 0 1-.09-.04c.01.15.08.27.17.27.07 0 .12-.06.15-.15.03.09.09.15.15.15.08 0 .15-.1.17-.23h-.05c-.03 0-.06-.01-.08-.02-.03-.01-.05-.03-.07-.05-.02-.03-.03-.06-.04-.08a.139.139 0 0 1 0-.09c.01-.03.02-.06.04-.08.02-.03.04-.04.07-.06.02-.01.05-.02.08-.02s.06.01.09.02c-.02-.03-.02-.07-.01-.11 0-.04.02-.07.04-.1.03-.03.06-.05.1-.06.03-.01.07-.01.11 0-.06.13-.11.27-.14.41.01 0 .02.01.02.01.02 0 .03.01.03.02.01.01.01.02.02.03v.04c-.01.01-.01.02-.02.03-.01.01-.02.02-.03.02-.01.01-.02.01-.04.01l-.01-.01c-.03.21-.02.42-.02.61l.07.08-.07.07c0 .04-.01.08-.01.12h-1.55c0-.04-.01-.08-.01-.12zM14.73 17.73l.07-.08c0-.19.01-.4-.02-.61 0 .01-.01.01-.01.01-.01 0-.03 0-.04-.01-.01 0-.02-.01-.03-.02 0-.01-.01-.02-.01-.03-.01-.01-.01-.02-.01-.04.01-.01.01-.02.02-.03.01-.01.02-.02.03-.02 0 0 .01-.01.02-.01a1.53 1.53 0 0 0-.14-.41c.04-.01.08-.01.11 0 .04.01.07.03.1.06.02.03.04.06.05.1 0 .04 0 .08-.02.11.03-.01.06-.02.09-.02s.06.01.09.02c.02.02.05.03.07.06.01.02.03.05.03.08.01.03.01.06 0 .09 0 .02-.02.05-.04.08-.01.02-.04.04-.07.05-.02.01-.05.02-.08.02h-.04c.01.13.08.23.16.23.07 0 .12-.06.15-.15.03.09.09.15.15.15.09 0 .16-.12.17-.27-.03.02-.06.03-.09.04-.03 0-.06 0-.09-.01s-.05-.03-.08-.05c-.02-.02-.03-.05-.04-.08-.01-.03-.01-.06-.01-.09.01-.03.02-.06.04-.09.01-.02.04-.04.07-.06.02-.01.05-.02.08-.02-.01-.03-.02-.06-.02-.1 0-.03.01-.07.03-.1.01-.03.04-.05.07-.07.03-.02.06-.03.1-.03.03 0 .07.01.1.03.03.02.05.04.07.07.02.03.03.07.03.1 0 .04-.01.07-.03.1.03 0 .06.01.09.02.03.02.05.04.07.06.02.03.03.06.03.09.01.03.01.06 0 .09s-.03.06-.05.08c-.02.02-.05.04-.08.05-.03.01-.06.01-.09.01a.201.201 0 0 1-.08-.04c0 .15.08.27.16.27.07 0 .12-.06.15-.15.03.09.09.15.15.15.08 0 .15-.1.17-.23h-.04c-.03 0-.06-.01-.09-.02s-.05-.03-.07-.05c-.02-.03-.03-.06-.04-.08v-.09c.01-.03.02-.06.04-.08.02-.03.04-.04.07-.06.02-.01.05-.02.08-.02s.06.01.09.02a.199.199 0 0 1-.01-.11c0-.04.02-.07.05-.1.02-.03.05-.05.09-.06.04-.01.07-.01.11 0-.06.13-.11.27-.14.41.01 0 .02.01.03.01.01 0 .02.01.02.02.01.01.02.02.02.03v.04c-.01.01-.01.02-.02.03-.01.01-.02.02-.03.02-.01.01-.02.01-.03.01-.01 0-.01 0-.01-.01-.03.21-.03.42-.03.61l.08.08-.08.07c0 .04-.01.08-.01.12h-1.55c0-.04-.01-.08-.01-.12z"/></g></svg>