<svg xmlns="http://www.w3.org/2000/svg" fill="none" viewBox="0 0 28 28" focusable="false"><defs><filter id="Saint_Lucia_svg__b" width="12" height="15.667" x="8" y="6.667" color-interpolation-filters="sRGB" filterUnits="userSpaceOnUse"><feFlood flood-opacity="0" result="BackgroundImageFix"/><feColorMatrix in="SourceAlpha" result="hardAlpha" values="0 0 0 0 0 0 0 0 0 0 0 0 0 0 0 0 0 0 127 0"/><feOffset dy="1"/><feGaussianBlur/><feComposite in2="hardAlpha" k2="-1" k3="1" operator="out"/><feColorMatrix values="0 0 0 0 0 0 0 0 0 0 0 0 0 0 0 0 0 0 0.059 0"/><feBlend in2="BackgroundImageFix" result="effect_dropShadow_1"/><feBlend in="SourceGraphic" in2="effect_dropShadow_1" result="shape"/></filter></defs><path fill="none" d="M0 0h28v28H0z"/><rect width="28" height="20" y="4" fill="#FFF" rx="3"/><rect width="28" height="20" y="4" rx="3"/><mask id="Saint_Lucia_svg__a" width="28" height="20" x="0" y="4" mask-type="alpha" maskUnits="userSpaceOnUse"><rect width="28" height="20" y="4" fill="#FFF" rx="3"/><rect width="28" height="20" y="4" stroke="#979797" stroke-opacity="0" stroke-width="0" rx="3"/></mask><g mask="url(#Saint_Lucia_svg__a)"><path fill="#86D7FF" d="M0 4h28v20H0z"/><path d="M0 4h28v20H0z"/></g><g mask="url(#Saint_Lucia_svg__a)"><g filter="url(#Saint_Lucia_svg__b)"><path fill="#FFF" fill-rule="evenodd" d="m14 6.66 6 14.67H8z"/></g><path d="M20 21.33H8l6-14.67z"/></g><g mask="url(#Saint_Lucia_svg__a)"><path fill="#262626" fill-rule="evenodd" d="m14 9.33 4.66 12H9.33z"/><path d="M18.66 21.33H9.33l4.67-12z"/></g><g mask="url(#Saint_Lucia_svg__a)"><path fill="#FFDA57" fill-rule="evenodd" d="m14 13.33 6 8H8z"/><path d="M20 21.33H8l6-8z"/></g></svg>