<svg xmlns="http://www.w3.org/2000/svg" fill="none" viewBox="0 0 28 28" focusable="false"><defs><filter id="Saint_Lucia_svg__a"><feColorMatrix values="0 0 0 0 1 0 0 0 0 1 0 0 0 0 1 0 0 0 1 0"/></filter><filter id="Saint_Lucia_svg__c" width="12" height="15.667" x="8" y="6.667" color-interpolation-filters="sRGB" filterUnits="userSpaceOnUse"><feFlood flood-opacity="0" result="BackgroundImageFix"/><feOffset dy="1" in="SourceAlpha"/><feColorMatrix values="0 0 0 0 0 0 0 0 0 0 0 0 0 0 0 0 0 0 0.06 0"/><feBlend in2="BackgroundImageFix" result="effect_dropShadow_1"/><feBlend in="SourceGraphic" in2="effect_dropShadow_1" result="shape"/></filter></defs><mask id="Saint_Lucia_svg__b" width="28" height="20" x="0" y="4" maskUnits="userSpaceOnUse"><g filter="url(#Saint_Lucia_svg__a)"><rect width="28" height="20" y="4" fill="#FFF" rx="3"/><rect width="28" height="20" y="4" stroke="#969696" stroke-opacity="0" stroke-width="0" rx="3"/></g></mask><path fill="none" d="M0 0H28V28H0z"/><rect width="28" height="20" y="4" fill="#FFF" rx="3"/><rect width="28" height="20" y="4" rx="3"/><g mask="url(#Saint_Lucia_svg__b)"><path fill="#86D7FF" d="M0 4H28V24H0z"/><path d="M0 4H28V24H0z"/><g filter="url(#Saint_Lucia_svg__c)"><path fill="#FFF" fill-rule="evenodd" d="M14 6.66663L20 21.3333L8 21.3333L14 6.66663Z"/><path d="M20 21.3333L8 21.3333L14 6.66663L20 21.3333Z"/></g><path fill="#262626" fill-rule="evenodd" d="M14 9.33337L18.6667 21.3334L9.33337 21.3334L14 9.33337Z"/><path d="M18.6667 21.3334L9.33337 21.3334L14 9.33337L18.6667 21.3334Z"/><path fill="#FFDA57" fill-rule="evenodd" d="M14 13.3334L20 21.3334L8 21.3334L14 13.3334Z"/><path d="M20 21.3334L8 21.3334L14 13.3334L20 21.3334Z"/></g></svg>