<svg xmlns="http://www.w3.org/2000/svg" fill="none" viewBox="0 0 39 31" focusable="false"><path fill="none" d="M5 1h28v28H5z"/><rect width="28" height="20" x="5" y="5" fill="#FFF" rx="3"/><rect width="28" height="20" x="5" y="5" rx="3"/><mask id="Saint_Kitts_and_Nevis_svg__a" width="28" height="20" x="5" y="5" mask-type="alpha" maskUnits="userSpaceOnUse"><rect width="28" height="20" x="5" y="5" fill="#FFF" rx="3"/><rect width="28" height="20" x="5" y="5" stroke="#979797" stroke-opacity="0" stroke-width="0" rx="3"/></mask><g mask="url(#Saint_Kitts_and_Nevis_svg__a)"><path fill="#1EC160" fill-rule="evenodd" d="M5 18.33 33 5H5z"/><path d="M33 5H5v13.33z"/></g><g mask="url(#Saint_Kitts_and_Nevis_svg__a)"><path fill="#DF2A40" fill-rule="evenodd" d="M5 25h28V11.66z"/><path d="M33 25V11.66L5 25z"/></g><g mask="url(#Saint_Kitts_and_Nevis_svg__a)"><path fill="#FFD956" fill-rule="evenodd" d="M5.78 30.33 38.57 9.84 32.21-.34-.58 20.15z"/><path d="M38.57 9.84 32.21-.34-.58 20.15l6.36 10.18z"/></g><g mask="url(#Saint_Kitts_and_Nevis_svg__a)"><path fill="#262626" fill-rule="evenodd" d="M4.37 28.07 37.16 7.58l-3.54-5.66L.83 22.41z"/><path d="m37.16 7.58-3.54-5.66L.83 22.41l3.54 5.66z"/></g><g mask="url(#Saint_Kitts_and_Nevis_svg__a)"><path fill="#FFF" fill-rule="evenodd" d="m25.3 12.79-.94 1.5-.61-1.66-1.72-.44 1.39-1.09-.12-1.77 1.48.98 1.64-.65-.48 1.7 1.13 1.36z"/><path d="m24.36 14.29-.61-1.66-1.72-.44 1.39-1.09-.12-1.77 1.48.98 1.64-.65-.48 1.7 1.13 1.36-1.77.07z"/></g><g mask="url(#Saint_Kitts_and_Nevis_svg__a)"><path fill="#FFF" fill-rule="evenodd" d="m14.64 19.26-.95 1.5-.61-1.66-1.72-.44 1.39-1.1-.11-1.76 1.47.98 1.65-.66-.48 1.71 1.13 1.36z"/><path d="m13.69 20.76-.61-1.66-1.72-.44 1.39-1.1-.11-1.76 1.47.98 1.65-.66-.48 1.71 1.13 1.36-1.77.07z"/></g></svg>