<svg xmlns="http://www.w3.org/2000/svg" fill="none" viewBox="0 0 28 28" focusable="false"><rect width="28" height="20" y="4" fill="#fff" rx="3"/><mask id="Saint_Kitts_and_Nevis_svg__a" width="28" height="20" x="0" y="4" maskUnits="userSpaceOnUse" style="mask-type:luminance"><rect width="28" height="20" y="4" fill="#fff" rx="3"/></mask><g fill-rule="evenodd" clip-rule="evenodd" mask="url(#Saint_Kitts_and_Nevis_svg__a)"><path fill="#1ec160" d="M0 17.333 28 4H0z"/><path fill="#df2a40" d="M0 24h28V10.667z"/><path fill="#ffd956" d="m.784 29.333 32.791-20.49-6.359-10.176-32.791 20.49z"/><path fill="#262626" d="m-.63 27.072 32.792-20.49L28.629.928l-32.791 20.49z"/><path fill="#fff" d="m20.31 11.797-.946 1.498-.613-1.661-1.717-.437 1.39-1.097-.115-1.767 1.473.984 1.645-.656-.48 1.705 1.132 1.361zM9.643 18.264l-.946 1.498-.613-1.662-1.716-.436 1.39-1.097-.115-1.767 1.472.983 1.645-.655-.48 1.704 1.132 1.362z"/></g></svg>