<svg xmlns="http://www.w3.org/2000/svg" fill="none" viewBox="0 0 28 28" focusable="false"><path fill="none" d="M28 28H0V0h28z"/><rect width="28" height="20" y="4" fill="#FFF" rx="3"/><rect width="27.5" height="19.5" x=".25" y="4.25" stroke="#F5F5F5" stroke-width=".5" rx="3"/><mask id="Saint-Martin_svg__a" fill="#fff"><path fill-rule="evenodd" d="M27.979 6.64 16 16.994V24h9a3 3 0 0 0 3-3V7a3 3 0 0 0-.021-.36M.02 6.64 12 16.994V24H3a3 3 0 0 1-3-3V7q0-.182.021-.36" clip-rule="evenodd"/></mask><path fill="#003787" fill-rule="evenodd" d="M27.979 6.64 16 16.994V24h9a3 3 0 0 0 3-3V7a3 3 0 0 0-.021-.36M.02 6.64 12 16.994V24H3a3 3 0 0 1-3-3V7q0-.182.021-.36" clip-rule="evenodd" mask="url(#Saint-Martin_svg__a)"/><path fill="#CF142B" d="M8 12h12l-6 5z"/><path fill="#F9D90F" fill-rule="evenodd" d="M11 11c0-1.66 1.34-3 3-3 1.65 0 3 1.34 3 3z"/></svg>