<svg xmlns="http://www.w3.org/2000/svg" fill="none" viewBox="0 0 28 28" focusable="false"><rect width="27.5" height="19.5" x=".25" y="4.25" fill="#fff" stroke="#F5F5F5" stroke-width=".5" rx="2.75"/><mask id="Saint_Pierre_and_Miquelon_svg__a" width="28" height="20" x="0" y="4" maskUnits="userSpaceOnUse" style="mask-type:alpha"><rect width="28" height="20" y="4" fill="#1B2F4C" rx="3"/></mask><g mask="url(#Saint_Pierre_and_Miquelon_svg__a)"><path fill="#4490C4" fill-rule="evenodd" d="M3 4a3 3 0 0 0-3 3v4h8v6H0v4a3 3 0 0 0 3 3h22a3 3 0 0 0 3-3V7a3 3 0 0 0-3-3z" clip-rule="evenodd"/><path fill="#F7D02B" fill-rule="evenodd" d="M18.729 7.006a.18.18 0 0 0-.223.13l-.053.2c-.408-.085-.705-.037-1.014.012-.375.06-.768.123-1.398-.05.17.336.261.474.943.519a2.2 2.2 0 0 1-.732.234q-.09.015-.21.039c.56.342 1.016.238 1.517.123.218-.05.445-.103.693-.12l-.516 1.95-2.277.894v.364c-1.05 1.35-1.36 2.821-.752 4.518a4 4 0 0 1-.548-.718h.043v-.882h-1.155l.312-1.175c.19.117.403.29.641.528-.365-2.4 2.006-3.84 2.553-4.16V8.93l-2.273.638.436-1.644a.182.182 0 1 0-.353-.094l-.06.226c-.481-.13-.81-.077-1.152-.022-.376.06-.769.123-1.399-.05.17.336.261.474.943.518a2.2 2.2 0 0 1-.731.234l-.212.04c.561.342 1.018.237 1.518.122.262-.06.536-.123.844-.126l-.242.91-1.878.528v.32c-.787 1.25-.547 2.721 0 3.041.127-.444.43-.89 1.03-.69l-.354 1.337h-.858v.883h.487c.065.461.136 1.197-.036 1.418l-.847-.379q-.074-.037-.154-.069l-2.005-.896a.182.182 0 0 0-.15.333l1.324.591a1.7 1.7 0 0 0-.325.188c-.21.15-.185.412 0 .507.657 0 1.199.537 1.892 1.224.632.625 1.39 1.375 2.475 1.96h.01c.207 0 .315-.149.425-.3.112-.153.225-.309.444-.309.185 0 .528.178.896.369.5.26 1.045.542 1.296.431.2-.088.22-.305.238-.513.022-.245.043-.478.353-.478.314 0 .878.266 1.358.492.398.187.739.348.833.308.08-.033.124-.181.175-.35.081-.273.179-.6.468-.589.22.008.585.172.968.345.434.196.893.403 1.189.403.33 0 .336-.234.34-.441.003-.142.006-.272.112-.307.116-.039.402.123.726.306.129.073.264.15.397.218q.027-.14.028-.288c0-.708-.508-1.297-1.18-1.423.571-.872.963-1.747 1.198-2.351h.717v-1.559l1.45-2.73a.182.182 0 0 0-.323-.171l-.189.355-2.028-.183-.745 1.435 2.031.146-.596 1.122h-1.99l-.437 1.34c-1.166-2.674 1.773-5.607 2.304-5.961V8.93l-2.246.665.54-2.037a.182.182 0 0 0-.352-.093l-.041.154c-.474-.125-.8-.073-1.139-.018-.376.06-.768.123-1.398-.05.169.336.26.474.942.518-.334.162-.445.183-.731.234l-.211.04c.56.342 1.017.237 1.517.122a4 4 0 0 1 .829-.126l-.365 1.378-2.269.672v.364c-1.203 1.548-1.302 4.23-.276 6.365a7 7 0 0 1-.351.058c-2.406-4.305.633-7.52 1.174-7.881V8.93l-2.407.946.701-2.648a.18.18 0 0 0-.129-.223m.564 10.184c-1.171-.84-2.06-1.252-2.707-1.385l-.28 1.055c.913.354 1.959.46 2.987.33m-3.326-.476.254-.956c-.553-.026-.869.199-.987.52q.344.252.733.436m3.906.378q.248-.052.49-.124l.41-1.546c-.655.323-.931 1.04-.9 1.67m.904-.259a5.85 5.85 0 0 0 2.137-1.331h-.357l.023-.07c-.555-.188-1.017-.221-1.392-.148z" clip-rule="evenodd"/><path fill="#B62123" d="M0 4h8v7H0z"/><mask id="Saint_Pierre_and_Miquelon_svg__b" width="8" height="7" x="0" y="4" maskUnits="userSpaceOnUse" style="mask-type:alpha"><path fill="#B62123" d="M0 4h8v7H0z"/></mask><g fill="#37B844" mask="url(#Saint_Pierre_and_Miquelon_svg__b)"><path d="M-.602 3.869.406 2.861l8.268 8.27-1.007 1.007z"/><path d="m-.562 11.171.927.928 8.27-8.27-.929-.927z"/></g><path fill="#fff" d="M3.536 4h1v7h-1z"/><path fill="#fff" d="M7.996 7v1h-8.46V7z"/><path fill="#B62123" d="M0 17h8v7H0z"/></g></svg>