<svg xmlns="http://www.w3.org/2000/svg" fill="none" viewBox="0 0 28 28" focusable="false"><rect width="28" height="20" y="4" fill="#fff" rx="3"/><mask id="Saint_Helena_svg__a" width="28" height="20" x="0" y="4" maskUnits="userSpaceOnUse" style="mask-type:luminance"><rect width="28" height="20" y="4" fill="#fff" rx="3"/></mask><g mask="url(#Saint_Helena_svg__a)"><path fill="url(#Saint_Helena_svg__b)" d="M0 4h28v20H0z"/><path fill="#8FC5FF" fill-rule="evenodd" d="M17.333 14v-3.334c0-.737.597-1.333 1.334-1.333h4c.736 0 1.333.596 1.333 1.333V14c0 3.333-3.333 4.667-3.333 4.667S17.333 17.333 17.333 14" clip-rule="evenodd"/><mask id="Saint_Helena_svg__c" width="7" height="10" x="17" y="9" maskUnits="userSpaceOnUse" style="mask-type:luminance"><path fill="#fff" fill-rule="evenodd" d="M17.333 14v-3.334c0-.737.597-1.333 1.334-1.333h4c.736 0 1.333.596 1.333 1.333V14c0 3.333-3.333 4.667-3.333 4.667S17.333 17.333 17.333 14" clip-rule="evenodd"/></mask><g mask="url(#Saint_Helena_svg__c)"><path fill="#366CC9" fill-rule="evenodd" d="M20.09 15.884s.667-.864 1.06-.864c.392 0 .464.573 1.068.573.603 0 .922-.914 1.503-.914.581 0 0 3 0 3l-.788.812-4.611.533z" clip-rule="evenodd"/><path fill="#CF6200" fill-rule="evenodd" d="m18.126 14.551.589-.551.578 1.416.776-1.416.668 4.035-1.11-.226L16 16.151z" clip-rule="evenodd"/><path fill="#FF0" d="M17.333 9.333H24v4h-6.667z"/></g><path stroke="#fff" stroke-width=".667" d="M17.667 14V10.666a1 1 0 0 1 1-1h4a1 1 0 0 1 1 1V14c0 1.543-.768 2.626-1.557 3.336a6.247 6.247 0 0 1-1.443.966h-.001a6.244 6.244 0 0 1-1.443-.966c-.788-.71-1.556-1.793-1.556-3.336Z"/><mask id="Saint_Helena_svg__d" width="7" height="10" x="17" y="9" maskUnits="userSpaceOnUse" style="mask-type:luminance"><path fill="#fff" stroke="#fff" stroke-width=".667" d="M17.667 14V10.666a1 1 0 0 1 1-1h4a1 1 0 0 1 1 1V14c0 1.543-.768 2.626-1.557 3.336a6.247 6.247 0 0 1-1.443.966h-.001a6.244 6.244 0 0 1-1.443-.966c-.788-.71-1.556-1.793-1.556-3.336Z"/></mask><path fill="#DB1E36" stroke="#fff" stroke-width=".667" d="M0 3.667h-.901l.684.586 4.55 3.9v1.009l-4.527 3.233-.14.1v1.44l.51-.319 5.253-3.283h1.13l4.523 3.23a.554.554 0 0 0 .682-.87L7.667 9.18V8.172l4.387-3.134a.667.667 0 0 0 .28-.543V3.4l-.51.318L6.57 7h-1.13L.86 3.729l-.088-.062H.667z"/><path fill="#fff" fill-rule="evenodd" d="M0 7.333V10h4.667v3.333c0 .368.298.667.666.667h1.334a.667.667 0 0 0 .666-.667V10H12a.667.667 0 0 0 .667-.667V8A.667.667 0 0 0 12 7.333H7.333V4H4.667v3.333z" clip-rule="evenodd"/><path fill="#DB1E36" fill-rule="evenodd" d="M0 8h5.333V4h1.334v4H12v1.333H6.667v4H5.333v-4H0z" clip-rule="evenodd"/></g><defs><linearGradient id="Saint_Helena_svg__b" x1="0" x2="0" y1="4" y2="24" gradientUnits="userSpaceOnUse"><stop stop-color="#07319C"/><stop offset="1" stop-color="#00247E"/></linearGradient></defs></svg>