<svg xmlns="http://www.w3.org/2000/svg" fill="none" viewBox="0 0 28 28" focusable="false"><rect width="27.5" height="19.5" x=".25" y="4.25" fill="#fff" stroke="#f5f5f5" stroke-width=".5" rx="2.75"/><path fill="#eabe4e" d="M7.06 18.746a.5.5 0 0 0 .072.093c.11.123.206.176.549.3.16.056.352.134.428.172.151.076.237.142.337.14.072 0 .252-.028.256-.044.003-.014-.251-.201-.367-.275a1.2 1.2 0 0 0-.64-.2 1.3 1.3 0 0 1-.628-.193q-.004 0-.006.007"/><path fill="#e20909" d="M8.586 19.426c-.256 0-1.137-.3-1.206-.133-.015.037.014.106.057.134.359.239 1.033.425 1.463.41.101-.004-.186-.424-.223-.454 0 0-.027.043-.091.043"/><path fill="#eabe4e" d="M9.301 19.786c-.061-.003-.275-.01-.7-.056-.422-.045-.814-.135-1.048-.24-.108-.047-.149-.11-.128-.064s.062.375.059.5c-.006.223-.104.544-.211.69-.028.04-.031.052-.017.066.153.143.427.135.427.135.23-.006 1.185-.03 1.403.314.004.006 1.513-.89 1.517-.905a.3.3 0 0 1 .06-.08c.048-.04-.173-.155-.204-.17-.316-.15-1.158-.19-1.158-.19"/><path fill="#eabe4e" d="M6.882 19.463c.067.102.207.202.374.268.209.082.273.103.253-.024l-.022-.093-.232-.046a.9.9 0 0 1-.288-.098 1 1 0 0 0-.108-.053c-.004.001.007.022.023.046M20.94 18.71a.5.5 0 0 1-.071.092c-.11.124-.206.176-.55.3a5 5 0 0 0-.427.172c-.152.076-.237.143-.338.14-.071 0-.252-.028-.255-.044-.003-.014.25-.201.367-.275.201-.128.376-.183.64-.2.245-.015.395-.061.628-.192q.004-.002.006.007"/><path fill="#e20909" d="M19.4 19.394c.256 0 1.137-.3 1.206-.133.015.037-.014.106-.057.134-.359.238-1.033.425-1.463.41-.101-.004.186-.424.223-.454 0 0 .027.043.091.043"/><path fill="#eabe4e" d="M18.7 19.75c.06-.004.275-.01.7-.056.422-.046.814-.135 1.048-.24.107-.048.149-.111.127-.064a2.5 2.5 0 0 0-.058.5c.005.222.103.543.21.69.029.038.032.051.017.065-.152.143-.426.135-.426.135-.231-.006-1.262.017-1.479.362a55 55 0 0 1-1.441-.953.3.3 0 0 0-.06-.08c-.048-.04.172-.155.204-.17.316-.15 1.157-.19 1.157-.19"/><path fill="#e20909" d="M17.567 20.242c-.196-.004-.198-.153-.245-.145 0 0-.047.502 0 .572.147.027 1.725-.126 1.731-.31.005-.141-.389-.203-.72-.207-.333-.003-.57.094-.766.09M10.434 20.273c.196-.004.198-.153.245-.145 0 0 .047.502 0 .572-.147.027-1.725-.126-1.731-.31-.005-.141.389-.203.72-.207.333-.003.571.094.766.09"/><path fill="#eabe4e" d="M21.117 19.42c-.068.102-.208.201-.375.267-.209.082-.272.104-.253-.024l.022-.092.232-.046c.162-.038.2-.05.289-.099a1 1 0 0 1 .108-.053c.003.001-.007.022-.023.047M12.89 20.384c-.222.015-.598.046-.835.068-1.786.165-2.313.159-3.01-.018l-.096-.022c-.005 0 .003.019.017.042.045.075.076.19.095.354.023.188 0 .454-.056.64-.048.164-.049.159.027.185.732.023 1.52-.1 2.28-.138a53 53 0 0 1 4.82 0c.531.024.98.054 1.672.111.35.03.857.11 1.1 0 .005-.012-.012-.051-.017-.09-.035-.29-.052-.67.039-.94.019-.057.144-.236.126-.218-.041.039-.137.057-.155.064-.644.114-.84.108-1.498.096-.678-.017-1.034.004-1.928-.071a37 37 0 0 0-1.48-.097c-.255-.008-.698.005-1.1.034"/><path fill="#666" d="M18.204 9.594h-8.44v.597h8.44z"/><path stroke="#520" stroke-miterlimit="1.92" stroke-width=".026" d="M18.204 9.594h-8.44v.597h8.44z"/><path fill="#eace24" d="M9.765 10.192 8.81 7.944l-.16.049-.352-.803.645-.19.145.377.311-.093-.133-.37.656-.15.117.385.323-.063-.112-.389.658-.114.09.392.435-.062.038.198.162-.02-.033-.198.333-.043.034.2.163-.016-.025-.202.332-.03.027.202.323-.025-.059-.598.668-.034.021.393.319-.005-.006-.396h.67l-.01.401.324.007.023-.4.666.03-.06.605.322.023.028-.2.33.03-.026.2.166.017.03-.195.333.035-.032.2.164.022.04-.199.43.064.092-.395.657.115-.102.396.31.06.12-.39.655.149-.136.385.312.085.15-.385.647.184-.35.804-.277-.092-.973 2.297c-2.686-.773-5.874-.776-8.468 0"/><path fill="#5e520e" d="M13.786 8.332V7.62c0-.285.513-.285.513 0v.712M10.044 8.816l-.221-.688c-.089-.275.406-.386.495-.11l.22.688M17.504 8.68l.221-.688c.089-.275.584-.165.495.11L18 8.79"/><path fill="#1353b4" d="M9.765 10.192a138 138 0 0 0 0 4.316c.02 1.386.089 2.468.699 3.314.735 1.019 1.96 1.754 3.535 2.477 1.576-.723 2.8-1.458 3.536-2.477.61-.846.678-1.928.699-3.314q.03-2.157 0-4.316z"/><path fill="#ce0f25" d="M18.115 16.308c.003-.36.078-.53.078-.89q.057-1.082.04-2.159H9.765c-.011.72.003 1.43.04 2.159 0 .36.078.53.08.89z"/><path stroke="#540" stroke-miterlimit="1.92" stroke-width=".026" d="M9.753 13.24h8.492m-8.366 3.068h8.236"/><path fill="#fff" d="m12.944 15.226 1.028-.42-.419 1.029.457-.305.457.305-.419-1.029 1.029.42-.305-.458.305-.457-1.029.42.42-1.029-.458.305-.457-.305.42 1.028-1.03-.419.306.457z"/><path fill="#eace24" d="M20.79 18c.012 1.247.023 1.291.023 1.291-.546.535-.61.73-.772.904-.21-.303-.535-.182-.535-.182-.066-.286-.414-.535-.414-.535.486-.038 1.324-.286 1.39-.386.22-.33-.083-1.328-.083-1.328z"/><path fill="#eace24" d="m19.595 19.953.538-.413-.64.382M20.393 17.41s-.674-.275-1.365.21a.33.33 0 0 1-.167.005c-.134-.143-.437-.564-.67-.51-.018-.356.023-1.778.023-1.778.101-.004.136.195.136.195-.058.405.176 2.87 1.135 1.24l.679.07zM20.762 11.709c-.579.21-.586.32-1.16.828-.457.182-1.139.628-1.178.727l.038.145c-.089.055-.172-.148-.172-.148.088-.502 1.7-2.013 1.7-2.013l.71.149z"/><path fill="#dfdfdf" fill-rule="evenodd" d="M19.947 10.096c.194.158.613.5.607.962l.358.101.013-.024.196.381.056.633.016-.014.14.35s.523-.624.53-.702c0 0 .206-.999-.195-1.077a1 1 0 0 0-.046.21c-.017.092-.037.207-.065.33 0-.332-.15-1.039-.403-1.039-.014 0-.007.116.002.274l.002.037c-.154-.292-.397-.66-.597-.56-.008.003.01.033.042.084.06.1.169.278.234.499-.299-.32-.93-.87-.985-.536 0 .012.037.043.095.09" clip-rule="evenodd"/><path fill="#000" d="m20.554 11.058-.004.012-.01-.003v-.01zm-.607-.962.009-.01zm.965 1.063.011.007-.005.008-.01-.003zm.013-.024-.011-.005h.022zm.196.381.013-.006v.005zm.056.633.007.01-.02-.009zm.016-.014-.01-.01.015-.013.007.018zm.14.35.01.008-.022-.004zm.53-.702-.013-.002v-.001zm-.195-1.077-.011-.006.005-.008.009.002zm-.046.21.013.001zm-.065.33.013.003-.026-.003zm-.401-.765h.013zm.002.037.013-.001-.025.007zm-.597-.56-.006-.012zm.042.084-.011.007zm.234.499.013-.004-.022.013zm-.985-.536h-.014v-.002zm.689 1.052c.003-.226-.099-.425-.226-.586-.127-.162-.279-.286-.376-.365l.017-.02c.096.079.25.204.38.369.129.164.233.368.23.603zm.368.114-.359-.101.007-.025.359.102zm.027-.03-.009.018-.003.005v.001l-.012-.006-.01-.007v-.001l.002-.004.01-.017zm.174.381-.196-.38.022-.012.197.38zm.054.628-.056-.633.026-.002.056.633zm.038-.006-.013.012-.003.002-.001.001-.008-.01-.007-.01.003-.003.01-.01zm.119.345-.14-.35.024-.01.14.35zm.555-.705a.1.1 0 0 1-.008.025l-.019.033-.061.09c-.05.07-.117.156-.183.239l-.18.223-.06.072-.016.02-.005.005v.001h-.001l-.01-.008-.01-.008.002-.002.004-.005.076-.091.18-.223a7 7 0 0 0 .182-.237 2 2 0 0 0 .077-.12l.006-.017zm-.205-1.09c.106.02.171.102.209.209s.05.24.049.37a3 3 0 0 1-.05.5l-.003.01v.002l-.013-.002-.012-.003v-.003l.002-.008a2 2 0 0 0 .023-.145c.013-.095.026-.222.027-.35 0-.13-.011-.26-.047-.362-.037-.103-.096-.175-.19-.193zm-.062.219.037-.183.011-.03.023.012-.01.025-.01.045-.025.135zm-.065.33c.028-.123.049-.238.065-.33l.026.004a8 8 0 0 1-.065.332zm-.39-1.049c.07 0 .13.049.18.121.051.074.094.174.129.283.07.22.107.48.107.648h-.026c0-.165-.037-.423-.106-.64a1 1 0 0 0-.125-.276c-.049-.07-.102-.11-.16-.11zm-.011.288-.01-.197a1 1 0 0 1 .004-.076l.004-.008a.02.02 0 0 1 .013-.007v.026a.01.01 0 0 0 .008-.004l-.002.013v.056c0 .048.004.116.009.195zm.002.036-.002-.036.026-.002.002.037zm-.59-.572a.19.19 0 0 1 .167.004c.056.026.111.074.164.132.107.117.206.284.283.43l-.023.012a2.2 2.2 0 0 0-.279-.425.5.5 0 0 0-.156-.126q-.076-.037-.144-.004zm.037.103-.044-.08-.002-.01q0-.008.01-.013l.01.023a.01.01 0 0 0 .006-.008l.007.015q.012.021.035.06zm.233.495a2 2 0 0 0-.233-.495l.022-.013c.06.099.17.279.236.501zm-.986-.541q.01-.066.051-.095a.14.14 0 0 1 .098-.018c.075.01.17.059.272.127.203.136.437.355.587.515l-.019.018a4 4 0 0 0-.582-.512.7.7 0 0 0-.261-.123q-.05-.006-.08.014t-.04.078zm.1.103q-.044-.036-.07-.06l-.027-.03-.003-.011h.026q0-.003 0 0l.003.004.018.019.07.058z"/><path fill="#fff" stroke="#000" stroke-miterlimit="1.92" stroke-width=".026" d="M20.71 14.325s.101-1.357-.07-1.56l.506-.748.655 1.302-.592 1.084z"/><path fill="#dfdfdf" stroke="#000" stroke-miterlimit="1.92" stroke-width=".026" d="M20.71 14.325s.101-1.357-.07-1.56l.506-.748.655 1.302-.592 1.084z"/><path fill="#dfdfdf" d="M21.187 17.283c-.223.284-.331.926-.331.926l-.066-.21c-.031.02-.05.182-.094.182-.02 0-.016-.167-.06-.176-.02-.004-.007.232-.05.232-.035 0-.038-.168-.05-.16-.027.018-.033.222-.055.115.031-1.095-2.117-1.992-2.074-3.22-.054-1.271 1.313-1.754 2.151-2.824 0 0 .236-.701-.198-.391-.351-.055-.32-.403-.32-.403h-.193c-.086-.748.667-.573.667-.573.698 0 .761.722.761.722.18.94-1.038 2.06-1.038 2.06-.18.39.001 1.061.001 1.061l1.695 1.597"/><path stroke="#000" stroke-miterlimit="1.92" stroke-width=".026" d="M21.187 17.283c-.223.284-.331.926-.331.926l-.066-.21c-.031.02-.05.182-.094.182-.02 0-.016-.167-.06-.176-.02-.004-.007.232-.05.232-.035 0-.038-.168-.05-.16-.027.018-.033.222-.055.115.031-1.095-2.117-1.992-2.074-3.22-.054-1.271 1.313-1.754 2.151-2.824 0 0 .236-.701-.198-.391-.351-.055-.32-.403-.32-.403h-.193c-.086-.748.667-.573.667-.573.698 0 .761.722.761.722.18.94-1.038 2.06-1.038 2.06-.18.39.001 1.061.001 1.061l1.695 1.597"/><path fill="#dfdfdf" d="M21.913 16.209c.094.113.575.683.692.881.165.183-.157.132-.157.132s.476.503.708.65c-.071.213-.528-.095-.528-.095s.445.273.421.327c-.135.104-.53-.187-.53-.187s.094.133.016.18c-.133 0-.437-.242-.437-.242s.062.14-.008.163c-.127-.08-.92-.74-.92-.74"/><path stroke="#000" stroke-miterlimit="1.92" stroke-width=".026" d="M21.913 16.209c.094.113.575.683.692.881.165.183-.157.132-.157.132s.476.503.708.65c-.071.213-.528-.095-.528-.095s.445.273.421.327c-.135.104-.53-.187-.53-.187s.094.133.016.18c-.133 0-.437-.242-.437-.242s.062.14-.008.163c-.127-.08-.92-.74-.92-.74M21.607 15.871s.237.315.077.265"/><path fill="#dfdfdf" fill-rule="evenodd" d="M22.71 10.74c-.085.23-.253.686-.695 1.1l-.05.365-.044.025.034.046-.012.082.046-.036.274.368.025-.023-.119.58.022-.017-.01.426-.057.26-.044.01-.152.577-.305.31-.054.01.029.015-.007.008.019-.001.005.002-.207.102.017.015-.27-.113.071.242-.435.123c.106.023.204.264.285.462.053.13.099.242.134.26.051-.005.159-.113.098-.578.1.052.216.345.314.595.08.205.15.38.19.368.234-.24.075-.743-.097-1.116.287.082.517.44.675.686.09.14.157.244.198.242.145-.03-.027-.533-.282-.963.092.05.213.146.334.241.183.145.364.288.434.265.079-.027-.075-.473-.56-.89l.036-.003c.27.028 1.497-.528 1.213-.86-.006-.018-.115.032-.281.11-.158.073-.368.17-.593.256q.166-.069.317-.156s.883-.54.7-.789c-.036-.008-.086.015-.183.062-.084.04-.203.096-.378.163.15-.122.815-.686.573-.87-.043-.012-.078.022-.147.09-.14.135-.417.405-1.174.697.256-.135.581-.33.824-.556 0 0 .58-.744.303-.85-.038-.014-.113.07-.229.2-.24.272-.66.743-1.303.948l.071-.053c.664-.493 1.523-1.131 1.274-1.806-.036-.013-.064.04-.114.138-.113.218-.34.659-1.04 1.07.21-.197.621-.599.658-.755 0 0 .359-.76.077-.87-.021-.009-.052.047-.106.142a4 4 0 0 1-.247.393c.095-.353.217-.912.017-.896-.02.002-.04.057-.073.148" clip-rule="evenodd"/><path fill="#000" d="M22.015 11.84 22 11.837l.007-.007zm.694-1.1.012.005zm-.744 1.465.02.003-.014.008zm-.044.025-.01.008-.01-.012.013-.007zm.034.046.014-.01-.002.012zm-.012.082.008.01-.02-.012zm.046-.036-.008-.01.01-.009.008.011zm.274.368.009.01-.01.01-.009-.012zm.025-.023-.008-.01.021.013zm-.119.58.008.01-.02-.013zm.022-.017-.007-.01.02.01zm-.01.426h.013v.002zm-.057.26.031.006-.028.006zm-.044.01-.028-.008.025-.005zm-.152.577.014.004-.005.005zm-.305.31.011.01-.008.002zm-.054.01-.006.011.003-.024zm.029.015.006-.01.015.007-.012.012zm-.007.008v.013l-.01-.022zm.019-.001-.001-.016.007.004zm.005.002.006-.01v.022zm-.207.102-.008.01-.015-.013.018-.008zm.017.015.009-.01-.014.022zm-.27-.113-.012.003.017-.015zm.071.242.013-.004.003.012-.012.004zm-.435.123-.003.012v-.025zm.285.462.012-.005zm.134.26.001.015-.007-.003zm.098-.578-.013.002.019-.014zm.314.595.012-.005zm0 0-.012.005zm0 0-.012.005zm.19.368.01.01-.007.002zm-.097-1.116-.012.005.015-.017zm.675.686.011-.007zm.198.242.003.013h-.002zm-.282-.963-.011.006.017-.017zm.334.241.008-.01zm0 0-.008.01zm.434.265.004.012zm-.56-.89-.008.01.008-.024zm.036-.003v-.013h.002zm1.213-.86-.01.009-.002-.005zm-.281.11-.005-.012zm-.593.256.005.012-.01-.023zm.317-.156.007.01zm.7-.789.005-.016.006.009zm-.183.062-.006-.012zm-.378.163.005.012-.013-.022zm.573-.87.003-.014.005.003zm-.147.09.009.009zm-1.174.697.005.012-.01-.023zm.824-.556.01.008-.001.002zm.303-.85-.004.013zm-.229.2-.01-.008zm-1.303.948.003.012-.011-.022zm.071-.053-.008-.01zm1.274-1.806.007-.018.005.014zm-.114.138-.011-.006zm-1.04 1.07.007.011-.015-.02zm.658-.755-.013-.003.001-.002zm.077-.87.004-.013zm-.106.142-.011-.005v-.001zm0 0 .012.006zm0 0 .011.006zm-.247.393.01.007-.023-.01zm.017-.896-.002-.012zm-.776 1.237c.44-.412.607-.866.691-1.094l.024.01c-.084.228-.253.687-.697 1.103zm-.054.373.05-.365.026.003-.05.366zm-.038.016.044-.025.013.022-.044.025zm.03.065-.034-.046.02-.016.035.046zm-.013.072.011-.082.026.004-.012.082zm.066-.024-.046.036-.016-.02.046-.036zm.256.366-.274-.369.02-.015.275.368zm.044-.021-.025.023-.017-.02.025-.022zm-.14.567.119-.58.025.006-.119.579zm.042-.004-.022.017-.015-.021.022-.016zm-.03.415.01-.425h.025l-.01.426zm-.057.258.057-.26.025.005-.057.26zm-.035 0 .045-.01.005.025-.044.01zm-.161.587.151-.578.025.006-.151.579zm-.302.304.305-.31.018.018-.305.31zm.012.021-.055.01-.005-.025.055-.01zm-.051-.013.029.015-.012.023-.03-.016zm.007.025.007-.008.018.018-.007.008zm.028.02-.018.002-.002-.026.019-.001zm.006-.024.005.003-.012.023-.006-.003zm.005.026-.207.102-.011-.023.206-.102zm-.204.08.017.016-.017.02-.017-.016zm.003.037-.27-.113.01-.024.27.114zm-.252-.129.07.242-.024.007-.071-.242zm.062.258-.436.123-.007-.025.436-.123zm-.437.098q.046.012.085.058a.6.6 0 0 1 .076.114c.048.089.093.2.134.298l-.024.01c-.04-.1-.085-.208-.133-.296a.6.6 0 0 0-.072-.109q-.038-.042-.071-.05zm.295.47c.026.065.05.126.073.172a1 1 0 0 0 .031.056q.015.022.023.026l-.011.023a.1.1 0 0 1-.033-.034 1 1 0 0 1-.033-.06 3 3 0 0 1-.074-.173zm.12.252c.018-.002.056-.023.08-.107.026-.084.038-.225.007-.456l.026-.004c.03.233.019.379-.008.467-.026.088-.068.123-.102.126zm.106-.577a.25.25 0 0 1 .082.084q.041.061.081.146c.055.111.108.248.157.372l-.024.01c-.049-.125-.102-.26-.156-.371a1 1 0 0 0-.079-.142.2.2 0 0 0-.073-.076zm.32.603-.024.008zm0 0-.024.008zm0 0c.04.102.078.197.11.264q.024.051.043.077l.016.017.004.002.008.024q-.016.004-.027-.005a.1.1 0 0 1-.022-.023.5.5 0 0 1-.045-.08c-.033-.07-.07-.165-.11-.267zm.168.363c.113-.116.133-.296.101-.497a2.4 2.4 0 0 0-.2-.604l.024-.011c.086.187.17.407.202.61s.013.396-.108.52zm-.084-1.12c.148.043.279.155.392.286.114.131.212.283.291.406l-.022.014c-.079-.123-.176-.273-.288-.403-.113-.13-.24-.237-.38-.278zm.683.692q.068.107.117.173a.3.3 0 0 0 .043.049q.02.015.027.014l.001.026q-.023-.001-.045-.02a.4.4 0 0 1-.047-.053 3 3 0 0 1-.118-.175zm.185.236a.04.04 0 0 0 .03-.025.2.2 0 0 0 .012-.065.8.8 0 0 0-.043-.225 3 3 0 0 0-.29-.629l.022-.013c.128.216.235.45.293.635a.8.8 0 0 1 .044.232q0 .046-.014.076a.07.07 0 0 1-.049.04zm-.274-.961c.093.05.216.148.336.242l-.016.02a3 3 0 0 0-.332-.24zm.336.242-.017.02zm0 0c.092.073.182.144.259.195a1 1 0 0 0 .1.057q.044.018.063.01l.008.025q-.034.009-.08-.011a1 1 0 0 1-.106-.06c-.077-.051-.169-.123-.26-.196zm.422.262q.006.001.01-.018a.2.2 0 0 0-.004-.058.8.8 0 0 0-.082-.203 2.1 2.1 0 0 0-.488-.589l.017-.02c.244.21.404.428.494.596a.9.9 0 0 1 .084.21.2.2 0 0 1 .004.068c-.002.017-.01.033-.027.039zm-.519-.867-.035.002-.002-.026.035-.002zm1.222-.882q.056.067.044.144a.33.33 0 0 1-.076.151c-.08.1-.217.201-.37.29a3 3 0 0 1-.473.22 2 2 0 0 1-.204.061.5.5 0 0 1-.145.016l.003-.026a.5.5 0 0 0 .137-.015 2 2 0 0 0 .2-.06c.148-.053.317-.13.469-.218.152-.089.285-.187.363-.284a.3.3 0 0 0 .07-.139.15.15 0 0 0-.037-.123zm-.296.107q.126-.06.2-.091a1 1 0 0 1 .06-.021l.02-.003c.005 0 .015.003.019.013l-.025.008c.002.006.007.005.005.005l-.013.002-.055.02q-.074.03-.2.09zm-.592.257c.224-.086.433-.184.592-.257l.01.023a9 9 0 0 1-.593.258zm.328-.134c-.101.058-.21.11-.319.157l-.01-.023q.165-.07.316-.156zm.704-.807c.051.069.026.156-.032.242a1.4 1.4 0 0 1-.252.262 4 4 0 0 1-.42.303l-.007-.011-.006-.011.002-.002.007-.004a2 2 0 0 0 .125-.082c.08-.055.184-.13.283-.212.098-.083.19-.173.247-.257s.073-.158.032-.213zm-.2.057q.072-.034.116-.052a.14.14 0 0 1 .077-.01l-.006.025c-.015-.004-.033-.001-.062.01q-.042.015-.114.05zm-.376.163c.174-.067.293-.123.376-.163l.011.023c-.084.04-.203.097-.378.164zm.584-.869q.05.038.056.094a.24.24 0 0 1-.018.118 1 1 0 0 1-.175.266c-.155.18-.36.352-.434.413l-.017-.02c.075-.06.277-.232.431-.41a1 1 0 0 0 .171-.258.2.2 0 0 0 .017-.105.11.11 0 0 0-.046-.077zm-.163.091q.05-.051.085-.075.035-.027.074-.018l-.007.025q-.023-.006-.053.014a1 1 0 0 0-.081.073zm-1.17.695c.755-.291 1.031-.56 1.17-.695l.018.019c-.14.136-.42.407-1.178.7zm.838-.534c-.244.227-.57.422-.827.557l-.012-.022c.256-.135.58-.33.821-.554zm.299-.871q.057.022.074.074a.23.23 0 0 1 .003.117 1 1 0 0 1-.119.291 3 3 0 0 1-.254.385l-.001.002-.01-.008-.011-.008.002-.002.004-.006.018-.024a4 4 0 0 0 .23-.351c.055-.1.1-.201.116-.284a.2.2 0 0 0-.003-.103.1.1 0 0 0-.058-.059zm-.243.203c.057-.065.106-.12.144-.155a.3.3 0 0 1 .052-.04q.024-.016.047-.008l-.01.024q-.005-.004-.024.006a.3.3 0 0 0-.047.037 3 3 0 0 0-.143.153zm-1.298.944c.64-.204 1.057-.673 1.298-.944l.019.017c-.24.271-.662.745-1.31.951zm.083-.031-.072.053-.015-.02.072-.054zm1.278-1.82c.127.344-.03.677-.297.983-.268.307-.65.59-.981.837l-.015-.02c.332-.248.711-.53.977-.834.265-.304.414-.627.292-.957zm-.137.136q.035-.073.063-.112a.1.1 0 0 1 .03-.029.04.04 0 0 1 .037-.003l-.01.024a.02.02 0 0 0-.015.002.1.1 0 0 0-.021.021 1 1 0 0 0-.061.109zm-1.035 1.065c.697-.41.922-.848 1.035-1.065l.023.012c-.114.22-.342.662-1.045 1.075zm.677-.74a.5.5 0 0 1-.092.16c-.047.063-.109.135-.176.207-.134.145-.289.295-.394.393l-.017-.018a8 8 0 0 0 .392-.392c.067-.073.128-.143.175-.205a.5.5 0 0 0 .086-.152zm.069-.887c.077.03.109.105.115.194a1 1 0 0 1-.04.299 2.5 2.5 0 0 1-.141.387l-.003.007-.001.001-.012-.005-.012-.005.001-.002.003-.007.011-.024a3 3 0 0 0 .129-.359 1 1 0 0 0 .04-.29c-.007-.085-.036-.147-.1-.172zM23 11.09q.039-.072.066-.111a.2.2 0 0 1 .025-.03q.012-.012.03-.008l-.008.024-.006.004-.02.024a2 2 0 0 0-.065.11zm0 0 .023.012zm0 0 .022.012zm-.247.391c.114-.155.192-.293.247-.391l.022.013a4 4 0 0 1-.248.393zm.027-.9a.1.1 0 0 1 .07.022q.027.026.038.07c.016.058.017.14.008.23a4 4 0 0 1-.12.59l-.025-.008c.048-.176.102-.403.12-.584a.7.7 0 0 0-.008-.22.1.1 0 0 0-.03-.059.06.06 0 0 0-.051-.016zm-.084.155q.025-.068.042-.108l.018-.031c.005-.008.013-.016.023-.016l.003.025-.006.006-.014.027q-.017.037-.042.106z"/><path fill="#dfdfdf" d="M19.906 14.56s0-.367.18-.383q.43-.024.858.047c1.034-.618.224-1.411.366-1.685.047-.42.74-1.053.74-1.053.071.063-.013.456.04.43.14-.07.054.238.093.32.133-.048.126.153.094.303.11.016.07.203.047.336.214-.118-.065.334.008.32.327-.047-.047.311-.047.311.187.07.1.21-.031.265.163.117-.004.304-.063.313.149.077-.016.19-.101.272.133.125-.11.178-.226.226.093.149-.017.18-.117.227.062.117-.091.108-.187.093.117.125-.078.18-.156.164 0 0-.042.162-.18.101.04.125-.241.11-.241.11 0 .125-.414.078-.414.078"/><path stroke="#000" stroke-miterlimit="1.92" stroke-width=".026" d="M19.906 14.56s0-.367.18-.383q.43-.024.858.047c1.034-.618.224-1.411.366-1.685.047-.42.74-1.053.74-1.053.071.063-.013.456.04.43.14-.07.054.238.093.32.133-.048.126.153.094.303.11.016.07.203.047.336.214-.118-.065.334.008.32.327-.047-.047.311-.047.311.187.07.1.21-.031.265.163.117-.004.304-.063.313.149.077-.016.19-.101.272.133.125-.11.178-.226.226.093.149-.017.18-.117.227.062.117-.091.108-.187.093.117.125-.078.18-.156.164 0 0-.042.162-.18.101.04.125-.241.11-.241.11 0 .125-.414.078-.414.078"/><path fill="#eace24" d="M7.207 18.001c-.01 1.246-.022 1.29-.022 1.29.546.535.61.731.772.905.21-.304.535-.182.535-.182.066-.287.414-.535.414-.535-.485-.039-1.324-.287-1.39-.386-.22-.33.083-1.33.083-1.33z"/><path fill="#eace24" d="m8.404 19.953-.539-.413.64.382M7.605 17.411s.674-.275 1.365.21a.34.34 0 0 0 .167.004c.134-.143.437-.564.67-.51.018-.355-.023-1.778-.023-1.778-.101-.004-.136.195-.136.195.058.406-.176 2.87-1.135 1.24l-.679.07zM7.236 11.71c.579.209.586.32 1.16.827.457.182 1.139.628 1.178.728l-.038.145c.089.055.172-.149.172-.149-.088-.502-1.7-2.013-1.7-2.013l-.71.15z"/><path fill="#dfdfdf" fill-rule="evenodd" d="M8.05 10.096c-.193.158-.611.5-.605.962l-.36.101-.012-.023-.196.38-.056.633q0 .001-.016-.014l-.14.35s-.522-.624-.53-.702c0 0-.206-.998.195-1.076.013.024.027.1.046.209.017.092.037.207.065.33 0-.332.15-1.038.403-1.038.014 0 .007.115-.002.274l-.002.036c.154-.291.397-.66.597-.56.008.003-.01.034-.042.085-.06.1-.169.278-.234.498.299-.32.93-.87.985-.536 0 .013-.037.044-.095.091" clip-rule="evenodd"/><path fill="#000" d="m7.445 11.058.003.012.01-.002v-.01zm.606-.962-.008-.01zm-.965 1.063-.011.007.005.008.01-.002zm-.013-.023.011-.006h-.022zm-.196.38-.012-.006v.005zm-.056.633-.007.011.02-.01zm-.016-.014.01-.009-.015-.014-.007.018zm-.14.35-.01.008.022-.003zm-.53-.702.013-.001v-.002zm.195-1.076.011-.007-.004-.008-.01.002zm.046.209-.013.002zm.065.33-.013.003.026-.003zm.401-.764-.013-.001zm-.002.036h-.013l.025.006zm.597-.56.006-.012zm-.042.085.011.007zm-.234.498-.013-.003.022.012zm.985-.536h.014v-.002zm-.689 1.053c-.002-.227.099-.425.226-.587s.279-.286.376-.365l-.016-.02c-.097.08-.251.205-.38.37-.13.163-.234.367-.231.602zm-.368.114.36-.102-.008-.024-.359.101zm-.027-.03.009.018.003.004v.002l.012-.007.01-.006v-.002l-.002-.004-.01-.017zm-.174.38.196-.38-.022-.012-.197.38zm-.054.629.056-.633-.026-.003-.056.633zm-.038-.007q.008.009.013.012l.003.003h.001v.001l.008-.01.007-.011-.003-.003-.01-.01zm-.119.346.14-.35-.024-.01-.14.35zm-.555-.706a.1.1 0 0 0 .008.025l.019.033q.023.038.061.091a16.55 16.55 0 0 0 .422.533l.017.02.005.005v.002h.001l.01-.008.01-.008-.002-.002-.004-.005-.016-.02a14 14 0 0 1-.422-.532 2 2 0 0 1-.077-.12l-.006-.016zm.205-1.09c-.106.02-.171.103-.209.21-.038.106-.05.24-.049.37a3 3 0 0 0 .053.509v.002l.013-.002.012-.003v-.002l-.002-.009a2 2 0 0 1-.023-.145 3 3 0 0 1-.027-.35c0-.13.011-.26.047-.362s.096-.174.19-.193zm.062.22-.037-.183-.011-.03-.023.012.01.025.01.044.025.136zm.064.33a8 8 0 0 1-.064-.33l-.026.004c.017.092.038.208.065.331zm.391-1.05c-.07 0-.13.05-.18.122-.051.073-.094.173-.129.283-.07.219-.107.48-.107.647h.026c0-.164.037-.423.106-.64.034-.108.076-.205.125-.275s.103-.11.16-.11zm.011.288.01-.196a1 1 0 0 0-.004-.077l-.004-.008a.02.02 0 0 0-.013-.006v.026a.01.01 0 0 1-.008-.004q0-.002 0 0l.002.012v.056c0 .048-.004.117-.009.196zm-.002.037.002-.037-.026-.001-.002.036zm.59-.573a.19.19 0 0 0-.167.005.6.6 0 0 0-.164.131 2.2 2.2 0 0 0-.283.43l.023.012c.076-.145.175-.31.279-.424a.5.5 0 0 1 .156-.126q.076-.037.144-.005zm-.037.104.036-.062.008-.02.002-.009a.02.02 0 0 0-.009-.013l-.012.023-.005-.007q0-.002 0 0l-.007.014q-.011.021-.035.06zm-.233.495c.065-.219.173-.396.233-.495l-.022-.014c-.06.1-.17.28-.236.502zm.986-.542q-.01-.067-.05-.094a.14.14 0 0 0-.1-.019.7.7 0 0 0-.271.127 4 4 0 0 0-.587.516l.02.017c.148-.16.38-.376.581-.511a.7.7 0 0 1 .261-.123q.05-.007.08.014.03.019.04.077zm-.1.103q.044-.035.07-.059a.2.2 0 0 0 .027-.03l.003-.012h-.025q0-.002 0 0l-.004.005-.018.018-.07.058z"/><path fill="#fff" stroke="#000" stroke-miterlimit="1.92" stroke-width=".026" d="M7.288 14.326s-.101-1.357.07-1.56l-.506-.749-.655 1.303.592 1.084z"/><path fill="#dfdfdf" stroke="#000" stroke-miterlimit="1.92" stroke-width=".026" d="M7.288 14.326s-.101-1.357.07-1.56l-.506-.749-.655 1.303.592 1.084z"/><path fill="#dfdfdf" d="M6.811 17.283c.223.284.331.926.331.926l.066-.21c.032.02.05.183.094.183.02 0 .016-.168.06-.177.02-.004.007.232.05.232.035 0 .038-.168.05-.16.028.018.033.223.055.116-.031-1.096 2.117-1.993 2.074-3.22.054-1.272-1.313-1.754-2.151-2.824 0 0-.236-.702.198-.392.351-.054.32-.402.32-.402h.193c.086-.749-.667-.574-.667-.574-.698 0-.76.723-.76.723-.18.94 1.037 2.059 1.037 2.059.18.39-.001 1.062-.001 1.062l-1.695 1.597"/><path stroke="#000" stroke-miterlimit="1.92" stroke-width=".026" d="M6.811 17.283c.223.284.331.926.331.926l.066-.21c.032.02.05.183.094.183.02 0 .016-.168.06-.177.02-.004.007.232.05.232.035 0 .038-.168.05-.16.028.018.033.223.055.116-.031-1.096 2.117-1.993 2.074-3.22.054-1.272-1.313-1.754-2.151-2.824 0 0-.236-.702.198-.392.351-.054.32-.402.32-.402h.193c.086-.749-.667-.574-.667-.574-.698 0-.76.723-.76.723-.18.94 1.037 2.059 1.037 2.059.18.39-.001 1.062-.001 1.062l-1.695 1.597"/><path fill="#dfdfdf" d="M6.085 16.21c-.094.112-.575.682-.692.88-.165.183.157.132.157.132s-.476.503-.708.65c.071.214.528-.095.528-.095s-.445.273-.421.328c.135.103.53-.187.53-.187s-.094.132-.016.179c.133 0 .437-.242.437-.242s-.062.14.008.164c.127-.08.92-.741.92-.741"/><path stroke="#000" stroke-miterlimit="1.92" stroke-width=".026" d="M6.085 16.21c-.094.112-.575.682-.692.88-.165.183.157.132.157.132s-.476.503-.708.65c.071.214.528-.095.528-.095s-.445.273-.421.328c.135.103.53-.187.53-.187s-.094.132-.016.179c.133 0 .437-.242.437-.242s-.062.14.008.164c.127-.08.92-.741.92-.741M6.391 15.872s-.237.314-.077.264"/><path fill="#dfdfdf" fill-rule="evenodd" d="M5.289 10.741a2.7 2.7 0 0 0 .694 1.1l.05.365.044.024-.034.046.012.082-.046-.036-.274.369-.025-.023.119.579-.022-.017.01.426.057.26.044.01.152.578.305.31.054.01-.029.015.007.007-.019-.001-.005.003.207.102-.017.015.27-.114-.071.242.435.123c-.106.023-.204.264-.285.462-.053.13-.099.243-.134.26-.051-.004-.159-.113-.098-.578-.1.052-.216.346-.314.595-.08.205-.15.38-.19.368-.234-.24-.075-.742.097-1.116-.287.083-.517.44-.675.687-.09.14-.157.243-.198.242-.145-.031.027-.533.282-.964-.092.05-.213.147-.334.242-.183.145-.364.287-.434.264-.079-.026.075-.472.56-.89l-.036-.002c-.27.027-1.497-.529-1.213-.86.006-.019.115.031.281.109.158.073.368.171.593.257a3 3 0 0 1-.317-.157s-.883-.54-.7-.788c.036-.01.086.015.183.061.084.04.203.096.378.163-.15-.121-.815-.686-.573-.87.043-.011.078.023.147.09.14.136.417.405 1.174.697a4 4 0 0 1-.824-.555s-.58-.745-.303-.85c.038-.014.113.07.229.2.24.271.66.743 1.304.947l-.072-.053c-.664-.493-1.523-1.131-1.274-1.805.036-.014.064.04.114.137.113.219.34.66 1.04 1.07-.21-.196-.621-.599-.658-.754 0 0-.359-.76-.077-.871.021-.008.053.047.106.143.055.097.133.237.247.392-.095-.353-.217-.912-.017-.895.02.001.04.056.073.147" clip-rule="evenodd"/><path fill="#000" d="m5.983 11.84.016-.002-.007-.007zm-.694-1.099-.012.005zm.744 1.465-.02.003.014.008zm.044.024.01.008.01-.012-.013-.007zm-.034.046-.014-.01.002.012zm.012.082-.008.01.02-.011zm-.046-.036.008-.01-.01-.008-.008.01zm-.274.369-.009.01.01.009.01-.012zm-.025-.023.008-.01-.021.012zm.119.579-.008.01.02-.013zm-.022-.017.007-.01-.02.01zm.01.426h-.013v.003zm.057.26-.03.007.027.006zm.044.01.028-.008-.025-.005zm.152.578-.014.003.005.006zm.305.31-.011.01.008.002zm.054.01.006.01-.003-.023zm-.029.015-.006-.011-.015.008.012.012zm.007.007v.013l.01-.022zm-.019-.001.001-.015-.007.004zm-.005.003-.006-.011v.023zm.207.102.008.01.015-.013-.018-.009zm-.017.015-.009-.01.014.022zm.27-.114.012.004-.017-.016zm-.071.242-.013-.004-.003.013.012.003zm.435.123.003.013v-.025zm-.285.462-.012-.005zm-.134.26-.001.015.007-.003zm-.098-.578.013.002-.019-.013zm-.314.595-.012-.004zm0 0 .012.005zm0 0 .012.005zm-.19.368-.01.01.007.003zm.097-1.116.012.006-.015-.018zm-.675.687-.01-.007zm-.198.242-.003.012h.002zm.282-.964.011.007-.017-.018zm-.334.242-.008-.01zm0 0 .008.01zm-.434.264-.004.012zm.56-.89.008.01-.008-.023zm-.036-.002v-.013h-.002zm-1.213-.86.01.008.002-.004zm.281.109.005-.012zm.593.257-.005.012.01-.024zm-.317-.157-.007.011zm-.7-.788-.005-.017-.006.009zm.183.061.006-.011zm.378.163-.005.012.013-.022zm-.573-.87-.003-.013-.004.003zm.147.09-.009.009zm1.174.697-.005.013.01-.024zm-.824-.555-.01.008.001.001zm-.303-.85.004.012zm.229.2.01-.008zm1.304.947-.004.013.011-.023zm-.072-.053.008-.01zM4.46 11.372l-.007-.019-.005.014zm.114.137.011-.006zm1.04 1.07-.007.011.015-.02zm-.658-.754.013-.003-.001-.003zm-.077-.871-.004-.013zm.106.143.011-.006zm0 0-.012.005zm0 0-.011.006zm.247.392-.01.008.023-.011zm-.017-.895.002-.013zm.776 1.237a2.7 2.7 0 0 1-.69-1.094l-.025.009c.084.228.253.687.697 1.104zm.054.373-.05-.366-.026.004.05.365zm.038.015-.044-.024-.013.022.044.025zm-.03.065.034-.046-.02-.015-.035.046zm.013.073-.011-.082-.026.003.012.082zm-.066-.025.046.036.016-.02-.046-.036zm-.256.366.275-.368-.021-.015-.275.368zm-.044-.02.025.022.017-.019-.025-.023zm.14.566-.119-.579-.025.005.119.58zm-.042-.003.022.016.015-.02-.022-.017zm.03.415-.01-.426h-.025l.01.426zm.057.258-.056-.26-.026.005.057.26zm.035 0-.045-.01-.005.025.044.01zm.161.586-.151-.578-.025.007.151.578zm.302.304-.305-.31-.018.019.305.31zm-.012.022.055.01.005-.025-.055-.01zm.051-.014-.029.016.012.022.03-.015zm-.007.025-.007-.007-.018.018.007.007zm-.028.02.018.002.002-.026H6.39zm-.006-.023-.005.003.012.022.006-.003zm-.005.026.207.101.011-.023-.206-.102zm.204.08-.017.015.017.02.017-.015zm-.003.037.27-.114-.01-.024-.27.114zm.252-.13-.07.242.024.008.071-.242zm-.062.258.436.123.007-.024-.436-.123zm.437.098a.17.17 0 0 0-.085.059.6.6 0 0 0-.076.113c-.048.09-.093.2-.134.298l.024.01c.04-.1.085-.208.133-.295a.6.6 0 0 1 .072-.11.14.14 0 0 1 .071-.05zm-.295.47q-.039.101-.073.172a1 1 0 0 1-.031.056.1.1 0 0 1-.023.026l.011.023a.1.1 0 0 0 .033-.034 1 1 0 0 0 .033-.06c.023-.047.048-.108.074-.173zm-.12.253c-.018-.002-.056-.024-.08-.108-.026-.083-.038-.224-.007-.456l-.026-.003c-.03.233-.019.378.008.466.026.088.068.123.102.126zm-.106-.577a.25.25 0 0 0-.082.084q-.04.061-.081.145a6 6 0 0 0-.157.373l.024.01c.049-.126.102-.261.156-.372a1 1 0 0 1 .08-.142.2.2 0 0 1 .072-.075zm-.32.602.024.009zm0 0 .024.009zm0 0c-.04.102-.078.197-.11.264a1 1 0 0 1-.043.077l-.016.017-.004.002-.008.025q.016.004.027-.006a.1.1 0 0 0 .022-.022.5.5 0 0 0 .045-.081 5 5 0 0 0 .11-.267zm-.168.363c-.113-.115-.133-.296-.101-.497.032-.2.114-.418.2-.604l-.024-.01c-.086.186-.17.406-.202.61s-.013.395.108.52zm.084-1.119c-.148.042-.279.155-.392.286-.114.13-.212.283-.29.406l.02.014c.08-.124.177-.274.289-.403.113-.13.24-.238.38-.278zm-.683.692q-.067.107-.117.173a.3.3 0 0 1-.043.048q-.02.016-.027.015v.025q.023 0 .044-.02a.4.4 0 0 0 .047-.052c.033-.044.073-.106.118-.175zm-.185.236a.04.04 0 0 1-.03-.026.2.2 0 0 1-.012-.065q0-.086.043-.224c.057-.182.163-.415.29-.63l-.022-.012c-.128.216-.235.45-.293.634a.8.8 0 0 0-.044.233q0 .046.014.076a.07.07 0 0 0 .049.04zm.274-.962c-.093.051-.216.148-.336.243l.016.02c.121-.095.241-.19.332-.24zm-.336.243.017.02zm0 0c-.092.072-.182.144-.259.194a1 1 0 0 1-.1.057q-.044.018-.063.01l-.008.025c.022.008.05.001.08-.011a1 1 0 0 0 .106-.06c.077-.05.169-.123.26-.195zm-.422.262q-.006 0-.01-.018a.2.2 0 0 1 .005-.059q.014-.077.08-.203c.089-.166.248-.38.489-.588l-.017-.02a2.2 2.2 0 0 0-.494.596.8.8 0 0 0-.084.21.2.2 0 0 0-.004.067c.002.018.01.034.027.04zm.519-.868.035.003.002-.026-.035-.002zm-1.222-.881a.17.17 0 0 0-.043.144q.012.075.075.15c.08.1.217.202.37.29.153.09.324.167.473.22q.113.04.204.062.09.02.145.015l-.003-.025a.5.5 0 0 1-.137-.015 2 2 0 0 1-.2-.06 3 3 0 0 1-.469-.219 1.4 1.4 0 0 1-.363-.284.3.3 0 0 1-.07-.138.15.15 0 0 1 .037-.123zm.297.106q-.127-.059-.202-.09a1 1 0 0 0-.059-.022l-.02-.002c-.005 0-.015.002-.019.012l.025.009c-.002.005-.007.005-.005.004l.013.002q.019.005.056.02.073.031.2.09zm.591.257a9 9 0 0 1-.592-.257l-.01.024c.158.073.368.17.593.257zm-.328-.134c.101.058.21.11.319.158l.01-.024a3 3 0 0 1-.316-.156zm-.704-.807c-.051.07-.026.156.032.243s.152.179.252.262a4 4 0 0 0 .382.278l.028.018q.005.002.007.005h.002v.001l.008-.01.006-.012-.002-.001-.035-.022a4 4 0 0 1-.38-.277 1.3 1.3 0 0 1-.247-.257c-.056-.085-.073-.158-.032-.213zm.2.057q-.072-.034-.116-.051a.14.14 0 0 0-.077-.01l.006.024q.02-.005.062.01t.114.05zm.376.163a5 5 0 0 1-.376-.162l-.011.023c.084.04.203.096.378.163zm-.584-.868a.14.14 0 0 0-.056.093.24.24 0 0 0 .018.118 1 1 0 0 0 .175.266c.156.18.36.352.434.413l.017-.02a4 4 0 0 1-.431-.41 1 1 0 0 1-.171-.258.2.2 0 0 1-.017-.105.11.11 0 0 1 .046-.077zm.163.09a1 1 0 0 0-.085-.075q-.035-.026-.074-.017l.007.024q.023-.006.053.014a1 1 0 0 1 .081.073zm1.17.695c-.755-.291-1.031-.56-1.17-.695l-.018.019c.14.137.42.408 1.178.7zm-.838-.534c.244.227.57.422.827.558l.012-.023a4 4 0 0 1-.821-.554zm-.299-.87a.12.12 0 0 0-.074.074.23.23 0 0 0-.003.117c.016.086.063.19.119.29a3 3 0 0 0 .254.385l.001.002.011-.007.01-.008-.001-.002-.005-.007a2 2 0 0 1-.08-.109 3 3 0 0 1-.168-.266c-.055-.1-.1-.2-.116-.283a.2.2 0 0 1 .003-.104.1.1 0 0 1 .058-.059zm.243.203q-.086-.1-.144-.156a.3.3 0 0 0-.052-.04q-.024-.014-.047-.008l.01.024q.005-.003.024.006a.3.3 0 0 1 .047.037q.057.054.143.154zm1.298.943c-.64-.203-1.057-.672-1.298-.943l-.019.017c.241.27.662.745 1.31.95zm-.083-.03.072.053.015-.021-.071-.053zm-1.278-1.82c-.127.343.03.676.297.983.268.306.65.59.981.836l.016-.02c-.333-.247-.712-.529-.978-.833-.265-.304-.414-.627-.292-.958zm.137.135q-.035-.073-.063-.112a.1.1 0 0 0-.03-.028.04.04 0 0 0-.036-.003l.008.024a.02.02 0 0 1 .016.001q.009.005.021.022.024.035.062.108zm1.035 1.065c-.697-.409-.922-.847-1.035-1.065l-.022.012c.113.22.341.663 1.044 1.075zm-.676-.74a.5.5 0 0 0 .09.16c.048.064.11.135.177.207.134.146.289.295.394.394l.017-.02a8 8 0 0 1-.392-.391 3 3 0 0 1-.175-.205.5.5 0 0 1-.086-.151zm-.07-.886c-.077.03-.109.105-.115.194a1 1 0 0 0 .04.298 2.5 2.5 0 0 0 .141.388l.003.006.001.002.012-.005.012-.006-.001-.002-.014-.03a3 3 0 0 1-.129-.36 1 1 0 0 1-.039-.29c.006-.084.035-.146.099-.171zm.122.148q-.04-.072-.065-.11a.2.2 0 0 0-.026-.03c-.008-.007-.018-.013-.03-.009l.008.025s0-.002.006.003a.1.1 0 0 1 .02.025q.025.036.065.109zm0 .001-.023.011zm0 0-.022.012zm.247.39a4 4 0 0 1-.247-.39l-.022.012c.054.098.133.238.248.394zm-.027-.9a.1.1 0 0 0-.07.023.15.15 0 0 0-.038.07.7.7 0 0 0-.008.23c.018.183.072.412.12.588l.025-.006a4 4 0 0 1-.12-.584.7.7 0 0 1 .008-.221.1.1 0 0 1 .03-.058.06.06 0 0 1 .051-.016zm.084.156-.042-.108-.018-.032c-.005-.007-.013-.015-.023-.016l-.003.026.006.005q.006.009.014.027.017.037.042.107z"/><path fill="#dfdfdf" d="M8.092 14.56s0-.367-.18-.383q-.43-.024-.857.047c-1.035-.617-.225-1.41-.367-1.684-.047-.421-.74-1.053-.74-1.053-.071.062.013.455-.04.429-.14-.07-.054.239-.093.32-.133-.047-.126.153-.094.304-.11.015-.07.202-.047.335-.214-.118.065.334-.008.32-.327-.047.047.312.047.312-.187.07-.1.21.031.265-.163.117.004.304.063.312-.148.078.016.19.101.273-.132.125.11.178.226.226-.093.148.017.18.117.226-.062.117.091.108.187.094-.117.124.078.18.156.163 0 0 .042.162.18.102-.04.125.242.11.242.11 0 .124.413.077.413.077"/><path stroke="#000" stroke-miterlimit="1.92" stroke-width=".026" d="M8.092 14.56s0-.367-.18-.383q-.43-.024-.857.047c-1.035-.617-.225-1.41-.367-1.684-.047-.421-.74-1.053-.74-1.053-.071.062.013.455-.04.429-.14-.07-.054.239-.093.32-.133-.047-.126.153-.094.304-.11.015-.07.202-.047.335-.214-.118.065.334-.008.32-.327-.047.047.312.047.312-.187.07-.1.21.031.265-.163.117.004.304.063.312-.148.078.016.19.101.273-.132.125.11.178.226.226-.093.148.017.18.117.226-.062.117.091.108.187.094-.117.124.078.18.156.163 0 0 .042.162.18.102-.04.125.242.11.242.11 0 .124.413.077.413.077"/><path fill="#eace24" fill-rule="evenodd" d="M16.784 12.863s.146-.124.17-.264a.35.35 0 0 0-.02-.166q.014.016.03.028c.057.05.239.077.239.077s-.1-.13-.126-.187l-.018-.04a.6.6 0 0 1-.043-.11h-.46a.6.6 0 0 1-.044.11l-.018.04a1.5 1.5 0 0 1-.126.187s.182-.027.239-.077l.027-.024a.34.34 0 0 0-.021.162c.024.14.17.264.17.264m-.22-.863h.442a.5.5 0 0 1 .046-.2c.016-.027.057-.06.088-.058s.073.01.088.039a.25.25 0 0 1 .019.11c-.005.04-.05.123-.05.123s.163-.034.219-.078a.4.4 0 0 0 .132-.194.33.33 0 0 0 0-.192.44.44 0 0 0-.11-.16c-.104-.093-.307-.066-.348-.043l-.027.017a.5.5 0 0 0 .063-.107.413.413 0 0 0 .002-.27.3.3 0 0 0-.11-.138l-.047-.03-.085-.053c-.056-.037-.093-.148-.1-.172l-.002-.005-.002.005c-.008.024-.045.135-.1.172l-.008.004c-.022.015-.066.044-.122.079a.3.3 0 0 0-.11.138.4.4 0 0 0 .002.27.5.5 0 0 0 .062.106l-.025-.016c-.041-.023-.244-.05-.349.043a.44.44 0 0 0-.109.16.33.33 0 0 0 0 .192.4.4 0 0 0 .132.194c.055.044.22.078.22.078s-.046-.083-.05-.123a.25.25 0 0 1 .018-.11c.015-.028.057-.038.088-.039s.072.03.088.058a.5.5 0 0 1 .046.2M14.009 12.863s.146-.124.17-.264a.35.35 0 0 0-.02-.166q.013.016.03.028c.056.05.238.077.238.077s-.1-.13-.125-.187q-.01-.022-.019-.04a.6.6 0 0 1-.043-.11h-.46q-.016.056-.043.11l-.019.04a1.5 1.5 0 0 1-.125.187s.181-.027.238-.077l.027-.024a.34.34 0 0 0-.02.162c.024.14.17.264.17.264m-.22-.863h.442a.5.5 0 0 1 .046-.2c.016-.027.056-.06.088-.058.03.001.073.01.087.039a.25.25 0 0 1 .02.11c-.005.04-.051.123-.051.123s.164-.034.22-.078a.4.4 0 0 0 .131-.194.33.33 0 0 0 0-.192.44.44 0 0 0-.109-.16c-.104-.093-.307-.066-.349-.043l-.027.017a.5.5 0 0 0 .063-.107.413.413 0 0 0 .002-.27.3.3 0 0 0-.11-.138l-.046-.03-.085-.053c-.056-.037-.093-.148-.101-.172l-.002-.005-.001.005c-.008.024-.045.135-.101.172l-.007.004c-.022.015-.066.044-.122.079a.3.3 0 0 0-.11.138.4.4 0 0 0 .002.27.5.5 0 0 0 .062.106l-.025-.016c-.042-.023-.245-.05-.35.043a.44.44 0 0 0-.108.16.33.33 0 0 0 0 .192.4.4 0 0 0 .132.194c.055.044.22.078.22.078s-.047-.083-.051-.123a.25.25 0 0 1 .019-.11c.014-.028.057-.038.088-.039s.071.03.087.058a.5.5 0 0 1 .046.2M11.233 12.863s.146-.124.17-.264a.35.35 0 0 0-.02-.166q.014.016.03.028c.057.05.238.077.238.077s-.1-.13-.125-.187q-.01-.022-.019-.04a.6.6 0 0 1-.043-.11h-.46q-.016.056-.043.11l-.019.04a1.5 1.5 0 0 1-.125.187s.182-.027.238-.077l.027-.024a.34.34 0 0 0-.02.162c.024.14.17.264.17.264m-.22-.863h.442a.5.5 0 0 1 .046-.2c.016-.027.056-.06.088-.058.03.001.073.01.088.039a.25.25 0 0 1 .018.11.5.5 0 0 1-.05.123s.164-.034.22-.078a.4.4 0 0 0 .131-.194.33.33 0 0 0 0-.192.44.44 0 0 0-.109-.16c-.104-.093-.307-.066-.349-.043l-.026.017c.02-.028.047-.067.062-.107a.413.413 0 0 0 .002-.27.3.3 0 0 0-.11-.138l-.046-.03-.085-.053c-.056-.037-.093-.148-.1-.172l-.002-.005-.002.005c-.008.024-.045.135-.101.172l-.007.004c-.022.015-.066.044-.122.079a.3.3 0 0 0-.11.138.4.4 0 0 0 .002.27.5.5 0 0 0 .062.106l-.025-.016c-.042-.023-.245-.05-.35.043a.44.44 0 0 0-.108.16.33.33 0 0 0 0 .192.4.4 0 0 0 .132.194c.055.044.22.078.22.078s-.047-.083-.05-.123a.25.25 0 0 1 .018-.11c.014-.028.057-.038.088-.039s.071.03.088.058a.5.5 0 0 1 .046.2" clip-rule="evenodd"/><path fill="#eace24" d="m13.224 19.418-.075.075.075.075c0 .04.007.073.007.115h1.554c0-.043.006-.075.006-.115l.075-.075-.075-.075c0-.198-.005-.406.025-.61l.01.002a.078.078 0 0 0 .084-.092.08.08 0 0 0-.066-.062 1.8 1.8 0 0 1 .137-.409.2.2 0 0 0-.24.267.2.2 0 1 0-.043.375c-.015.134-.084.236-.166.236-.064 0-.12-.06-.149-.15-.028.09-.084.15-.148.15-.089 0-.162-.118-.169-.267a.2.2 0 0 0 .256-.025.199.199 0 0 0-.141-.337.2.2 0 0 0-.074-.271.199.199 0 0 0-.271.27.2.2 0 0 0-.195.168.198.198 0 0 0 .309.195c-.007.15-.08.267-.169.267-.064 0-.12-.06-.148-.15-.03.09-.085.15-.148.15-.083 0-.152-.102-.167-.236a.2.2 0 0 0 .197-.07.2.2 0 0 0-.067-.303.2.2 0 0 0-.172-.002.199.199 0 0 0-.24-.267q.091.194.136.408a.077.077 0 0 0-.048.13.079.079 0 0 0 .076.023c.03.204.024.413.024.61M11.656 17.659l-.075.075.075.075c0 .04.008.073.008.115h1.553c0-.043.006-.075.006-.115l.075-.075-.075-.075c0-.198-.005-.406.025-.61l.01.003a.078.078 0 0 0 .07-.125.08.08 0 0 0-.052-.03q.044-.215.137-.409a.2.2 0 0 0-.24.268.2.2 0 0 0-.24.057.2.2 0 0 0 .07.302.2.2 0 0 0 .127.015c-.015.134-.083.236-.166.236-.064 0-.12-.06-.148-.15-.03.09-.085.15-.149.15-.089 0-.162-.117-.168-.267a.2.2 0 1 0 .114-.362.2.2 0 0 0-.073-.271.2.2 0 0 0-.272.27.2.2 0 0 0-.195.168.198.198 0 0 0 .31.195c-.008.15-.08.267-.17.267-.063 0-.12-.06-.148-.15-.029.09-.085.15-.148.15-.083 0-.152-.102-.167-.236a.2.2 0 0 0 .235-.15.199.199 0 0 0-.277-.224.2.2 0 0 0-.13-.268.2.2 0 0 0-.11 0q.092.194.137.409a.078.078 0 1 0 .027.153c.03.204.024.412.024.609M14.808 17.659l-.075.075.075.075c0 .04.008.073.008.115h1.553c0-.043.006-.075.006-.115l.075-.075-.075-.075c0-.198-.005-.406.025-.61l.01.003a.08.08 0 0 0 .065-.026.08.08 0 0 0 .019-.067.08.08 0 0 0-.066-.062 1.8 1.8 0 0 1 .137-.409.2.2 0 0 0-.24.268.2.2 0 0 0-.24.057.2.2 0 0 0 0 .247.2.2 0 0 0 .197.07c-.015.134-.083.236-.166.236-.064 0-.12-.06-.148-.15-.03.09-.085.15-.149.15-.089 0-.162-.117-.169-.267a.2.2 0 0 0 .256-.024.199.199 0 0 0-.141-.338.2.2 0 0 0-.073-.271.2.2 0 0 0-.272.27.2.2 0 0 0-.195.168.198.198 0 0 0 .309.195c-.007.15-.08.267-.169.267-.064 0-.12-.06-.148-.15-.029.09-.085.15-.148.15-.083 0-.152-.102-.167-.236a.199.199 0 1 0-.042-.374.199.199 0 0 0-.24-.268q.092.194.137.409a.08.08 0 0 0-.067.062.08.08 0 0 0 .048.088.1.1 0 0 0 .046.003c.03.204.024.412.024.609"/></svg>