<svg xmlns="http://www.w3.org/2000/svg" fill="none" viewBox="0 0 28 28" focusable="false"><defs><filter id="Saint_Vincent_and_the_Grenadines_svg__a"><feColorMatrix values="0 0 0 0 1 0 0 0 0 1 0 0 0 0 1 0 0 0 1 0"/></filter></defs><mask id="Saint_Vincent_and_the_Grenadines_svg__b" width="28" height="20" x="0" y="4" maskUnits="userSpaceOnUse"><g filter="url(#Saint_Vincent_and_the_Grenadines_svg__a)"><rect width="28" height="20" y="4" fill="#FFF" rx="3"/><rect width="28" height="20" y="4" stroke="#969696" stroke-opacity="0" stroke-width="0" rx="3"/></g></mask><path fill="none" d="M0 0H28V28H0z"/><rect width="28" height="20" y="4" fill="#FFF" rx="3"/><rect width="28" height="20" y="4" rx="3"/><g mask="url(#Saint_Vincent_and_the_Grenadines_svg__b)"><path fill="#08C47A" d="M13.333 4H28V24H13.333z"/><path d="M13.333 4H28V24H13.333z"/><path fill="#0C87E1" fill-rule="evenodd" d="M0 24L9.33333 24L9.33333 4L0 4L0 24Z"/><path d="M9.33333 24L9.33333 4L0 4L0 24L9.33333 24Z"/><path fill="#FECB2F" fill-rule="evenodd" d="M8 24L20 24L20 4L8 4L8 24Z"/><path d="M20 24L20 4L8 4L8 24L20 24Z"/><path fill="#08C47A" fill-rule="evenodd" d="M9.33337 12L11.3334 8L13.3334 12L11.3334 16L9.33337 12ZM14.6667 12L16.6667 8L18.6667 12L16.6667 16L14.6667 12ZM14 13.3333L12 17.3333L14 21.3333L16 17.3333L14 13.3333Z"/><path d="M9.33337 12L11.3334 8L13.3334 12L11.3334 16L9.33337 12ZM14.6667 12L16.6667 8L18.6667 12L16.6667 16L14.6667 12ZM14 13.3333L12 17.3333L14 21.3333L16 17.3333L14 13.3333Z"/></g></svg>