<svg xmlns="http://www.w3.org/2000/svg" fill="none" viewBox="0 0 29 28" focusable="false"><path fill="none" d="M0 0h28v28H0z"/><rect width="28" height="20" y="4" fill="#FFF" rx="3"/><rect width="28" height="20" y="4" rx="3"/><mask id="Saint_Vincent_and_the_Grenadines_svg__a" width="28" height="20" x="0" y="4" mask-type="alpha" maskUnits="userSpaceOnUse"><rect width="28" height="20" y="4" fill="#FFF" rx="3"/><rect width="28" height="20" y="4" stroke="#979797" stroke-opacity="0" stroke-width="0" rx="3"/></mask><g mask="url(#Saint_Vincent_and_the_Grenadines_svg__a)"><path fill="#08C47A" d="M13.333 4H28v20H13.333z"/><path d="M13.333 4H28v20H13.333z"/></g><g mask="url(#Saint_Vincent_and_the_Grenadines_svg__a)"><path fill="#0C87E1" fill-rule="evenodd" d="M0 24h9.33V4H0z"/><path d="M9.33 24V4H0v20z"/></g><g mask="url(#Saint_Vincent_and_the_Grenadines_svg__a)"><path fill="#FECB2F" fill-rule="evenodd" d="M8 24h12V4H8z"/><path d="M20 24V4H8v20z"/></g><g mask="url(#Saint_Vincent_and_the_Grenadines_svg__a)"><mask id="Saint_Vincent_and_the_Grenadines_svg__b" fill="#fff"><path fill-rule="evenodd" d="m9.333 12 2-4 2 4-2 4zm5.334 0 2-4 2 4-2 4zM14 13.333l-2 4 2 4 2-4z" clip-rule="evenodd"/></mask><path fill="#08C47A" fill-rule="evenodd" d="m9.333 12 2-4 2 4-2 4zm5.334 0 2-4 2 4-2 4zM14 13.333l-2 4 2 4 2-4z" clip-rule="evenodd" mask="url(#Saint_Vincent_and_the_Grenadines_svg__b)"/></g></svg>