<svg xmlns="http://www.w3.org/2000/svg" fill="none" viewBox="0 0 28 28" focusable="false"><path fill="none" d="M0 0H28V28H0z" transform="rotate(-180 14 14)"/><rect width="28" height="20" y="4" fill="#FFF" rx="3"/><rect width="27.5" height="19.5" x=".25" y="4.25" stroke="#F5F5F5" stroke-width=".5" rx="2.75"/><path fill="#003787" fill-rule="evenodd" d="M0.0212793 17.3592C0.00722856 17.2414 0 17.1215 0 17L0 3C0 1.34315 1.34315 0 3 0L12 0L12 7.00692L0.0212793 17.3592ZM16 0L25 0C26.6569 0 28 1.34315 28 3L28 17C28 17.1215 27.9928 17.2414 27.9787 17.3592L16 7.00692L16 0Z" transform="rotate(-180 14 12)"/><path fill="none" d="M0.0212793 17.3592C0.00722856 17.2414 0 17.1215 0 17L0 3C0 1.34315 1.34315 0 3 0L12 0L12 7.00692L0.0212793 17.3592ZM16 0L25 0C26.6569 0 28 1.34315 28 3L28 17C28 17.1215 27.9928 17.2414 27.9787 17.3592L16 7.00692L16 0ZM0.5 16.2846L11.5 6.77819L11.5 0.5L3 0.5Q2.71276 0.5 2.43984 0.562511L2.43984 0.562511Q2.22917 0.610762 2.02704 0.696257Q1.81941 0.784076 1.6337 0.905434L1.63361 0.905494L1.63357 0.905518Q1.41816 1.04631 1.23223 1.23223Q1.0463 1.41817 0.905499 1.6336L0.905495 1.63361Q0.784098 1.81936 0.696257 2.02704Q0.610767 2.22916 0.562517 2.43981L0.562514 2.43982L0.562511 2.43984Q0.5 2.71276 0.5 3L0.5 16.2846ZM16.5 0.5L16.5 6.77819L27.5 16.2846L27.5 3C27.5 2.66069 27.4346 2.33637 27.3037 2.02704C27.1773 1.728 26.9986 1.46307 26.7678 1.23223C26.5369 1.0014 26.272 0.822738 25.973 0.696257Q25.7708 0.610769 25.5602 0.562519Q25.2873 0.5 25 0.5L16.5 0.5Z" transform="rotate(-180 14 12)"/><path fill="#CF142B" d="M8 12L20 12L14 17L8 12Z"/><path fill="#F9D90F" fill-rule="evenodd" d="M14 8C12.3431 8 11 9.34315 11 11L17 11C17 9.34315 15.6569 8 14 8Z"/></svg>