<svg xmlns="http://www.w3.org/2000/svg" fill="none" viewBox="0 0 28 28" focusable="false"><defs><filter id="Samoa_svg__a"><feColorMatrix values="0 0 0 0 1 0 0 0 0 1 0 0 0 0 1 0 0 0 1 0"/></filter></defs><mask id="Samoa_svg__b" width="28" height="20" x="0" y="4" maskUnits="userSpaceOnUse"><g filter="url(#Samoa_svg__a)"><rect width="28" height="20" y="4" fill="#FFF" rx="3"/><rect width="28" height="20" y="4" stroke="#969696" stroke-opacity="0" stroke-width="0" rx="3"/></g></mask><path fill="none" d="M0 0H28V28H0z"/><rect width="28" height="20" y="4" fill="#FFF" rx="3"/><rect width="28" height="20" y="4" rx="3"/><g mask="url(#Samoa_svg__b)"><path fill="#E31F37" d="M0 4H28V24H0z"/><path d="M0 4H28V24H0z"/><path fill="#083B9A" fill-rule="evenodd" d="M-1.33331 14.6666L14.6667 14.6666L14.6667 2.66663L-1.33331 2.66663L-1.33331 14.6666Z"/><path d="M14.6667 14.6666L14.6667 2.66663L-1.33331 2.66663L-1.33331 14.6666L14.6667 14.6666Z"/><path fill="#FFF" fill-rule="evenodd" d="M6.66667 6.6666L5.72386 6.94275L6 5.99994L5.72386 5.05713L6.66667 5.33327L7.60947 5.05713L7.33333 5.99994L7.60947 6.94275L6.66667 6.6666ZM10 9.33327L9.05719 9.60941L9.33333 8.6666L9.05719 7.7238L10 7.99994L10.9428 7.7238L10.6667 8.6666L10.9428 9.60941L10 9.33327ZM4 9.99994L3.05719 10.2761L3.33333 9.33327L3.05719 8.39046L4 8.6666L4.94281 8.39046L4.66667 9.33327L4.94281 10.2761L4 9.99994ZM8.66667 10.9999C8.66667 11.184 8.51743 11.3333 8.33333 11.3333C8.14924 11.3333 8 11.184 8 10.9999C8 10.8158 8.14924 10.6666 8.33333 10.6666C8.51743 10.6666 8.66667 10.8158 8.66667 10.9999ZM5.72386 13.6094L6.66667 13.3333L7.60947 13.6094L7.33333 12.6666L7.60947 11.7238L6.66667 11.9999L5.72386 11.7238L6 12.6666L5.72386 13.6094Z"/><path d="M6.66667 6.6666L5.72386 6.94275L6 5.99994L5.72386 5.05713L6.66667 5.33327L7.60947 5.05713L7.33333 5.99994L7.60947 6.94275L6.66667 6.6666ZM10 9.33327L9.05719 9.60941L9.33333 8.6666L9.05719 7.7238L10 7.99994L10.9428 7.7238L10.6667 8.6666L10.9428 9.60941L10 9.33327ZM4 9.99994L3.05719 10.2761L3.33333 9.33327L3.05719 8.39046L4 8.6666L4.94281 8.39046L4.66667 9.33327L4.94281 10.2761L4 9.99994ZM8.66667 10.9999C8.66667 11.184 8.51743 11.3333 8.33333 11.3333C8.14924 11.3333 8 11.184 8 10.9999C8 10.8158 8.14924 10.6666 8.33333 10.6666C8.51743 10.6666 8.66667 10.8158 8.66667 10.9999ZM5.72386 13.6094L6.66667 13.3333L7.60947 13.6094L7.33333 12.6666L7.60947 11.7238L6.66667 11.9999L5.72386 11.7238L6 12.6666L5.72386 13.6094Z"/></g></svg>