<svg xmlns="http://www.w3.org/2000/svg" fill="none" viewBox="0 0 28 28" focusable="false"><rect width="27.5" height="19.5" x=".25" y="4.25" fill="#fff" stroke="#D6D8DD" stroke-width=".5" rx="2.75"/><mask id="San_Marino_svg__a" width="28" height="20" x="0" y="4" maskUnits="userSpaceOnUse" style="mask-type:luminance"><rect width="27.5" height="19.5" x=".25" y="4.25" fill="#fff" stroke="#fff" stroke-width=".5" rx="2.75"/></mask><g mask="url(#San_Marino_svg__a)"><path fill="#7CCCF5" fill-rule="evenodd" d="M0 24h28V13.333H0V24Z" clip-rule="evenodd"/><path fill="#445F42" d="M12 13.333a.667.667 0 0 0-1.333 0H12Zm.329 2.885a.667.667 0 1 0 .67-1.153l-.67 1.153Zm2.747-1.198a.667.667 0 0 0 .718 1.123l-.718-1.123Zm2.257-1.687a.667.667 0 1 0-1.333 0h1.333Zm-6.666 0c0 1.233.67 2.31 1.662 2.885l.67-1.153A1.999 1.999 0 0 1 12 13.333h-1.333Zm5.127 2.81a3.331 3.331 0 0 0 1.54-2.81H16c0 .708-.367 1.33-.924 1.687l.718 1.123Z"/><path fill="#D89F3D" fill-rule="evenodd" d="M14 14.667c.736 0 1.333-.896 1.333-2 0-1.105-.597-2-1.333-2s-1.333.895-1.333 2c0 1.104.597 2 1.333 2Z" clip-rule="evenodd"/></g></svg>