<svg xmlns="http://www.w3.org/2000/svg" fill="none" viewBox="0 0 28 28" focusable="false"><defs><filter id="San_Marino_svg__a"><feColorMatrix values="0 0 0 0 1 0 0 0 0 1 0 0 0 0 1 0 0 0 1 0"/></filter></defs><mask id="San_Marino_svg__b" width="28" height="20" x="0" y="4" maskUnits="userSpaceOnUse"><g filter="url(#San_Marino_svg__a)"><rect width="28" height="20" y="4" fill="#FFF" rx="3"/><rect width="27.5" height="19.5" x=".25" y="4.25" stroke="#F5F5F5" stroke-width=".5" rx="2.75"/></g></mask><path fill="none" d="M0 0H28V28H0z"/><rect width="28" height="20" y="4" fill="#FFF" rx="3"/><rect width="27.5" height="19.5" x=".25" y="4.25" stroke="#D6D8DD" stroke-width=".5" rx="2.75"/><g mask="url(#San_Marino_svg__b)"><path fill="#7CCCF5" fill-rule="evenodd" d="M0 24L28 24L28 13.3334L0 13.3334L0 24Z"/><path d="M28 24L28 13.3334L0 13.3334L0 24L28 24Z"/><path fill="none" d="M12.6636 15.6415C11.8682 15.18 11.3333 14.3192 11.3333 13.3334L12.6636 15.6415ZM16.6667 13.3334C16.6667 14.2779 16.1756 15.1077 15.4349 15.5815L16.6667 13.3334Z"/><path stroke="#445F42" stroke-linecap="round" stroke-width="1.333" d="M12.6636 15.6415C11.8682 15.18 11.3333 14.3192 11.3333 13.3334L12.6636 15.6415ZM16.6667 13.3334C16.6667 14.2779 16.1756 15.1077 15.4349 15.5815L16.6667 13.3334Z"/><path fill="#D89F3D" fill-rule="evenodd" d="M14 14.6666C14.7364 14.6666 15.3333 13.7712 15.3333 12.6666C15.3333 11.5621 14.7364 10.6666 14 10.6666C13.2636 10.6666 12.6667 11.5621 12.6667 12.6666C12.6667 13.7712 13.2636 14.6666 14 14.6666Z"/><path d="M15.3333 12.6666C15.3333 11.5621 14.7364 10.6666 14 10.6666C13.2636 10.6666 12.6667 11.5621 12.6667 12.6666C12.6667 13.7712 13.2636 14.6666 14 14.6666C14.7364 14.6666 15.3333 13.7712 15.3333 12.6666Z"/></g></svg>