<svg xmlns="http://www.w3.org/2000/svg" fill="none" viewBox="0 0 28 28" focusable="false"><path fill="none" d="M0 0h28v28H0z"/><rect width="28" height="20" y="4" fill="#FFF" rx="3"/><rect width="28" height="20" y="4" rx="3"/><mask id="Sao_Tome_and_Principe_svg__a" width="28" height="20" x="0" y="4" mask-type="alpha" maskUnits="userSpaceOnUse"><rect width="28" height="20" y="4" fill="#FFF" rx="3"/><rect width="28" height="20" y="4" stroke="#979797" stroke-opacity="0" stroke-width="0" rx="3"/></mask><g mask="url(#Sao_Tome_and_Principe_svg__a)"><path fill="#2ACB41" fill-rule="evenodd" d="M0 24h28v-6.67H0z"/><path d="M28 24v-6.67H0V24z"/></g><g mask="url(#Sao_Tome_and_Principe_svg__a)"><path fill="#2ACB41" fill-rule="evenodd" d="M0 10.66h28V4H0z"/><path d="M28 10.66V4H0v6.66z"/></g><g mask="url(#Sao_Tome_and_Principe_svg__a)"><path fill="#FDD043" fill-rule="evenodd" d="M0 17.33h28v-6.67H0z"/><path d="M28 17.33v-6.67H0v6.67z"/></g><g mask="url(#Sao_Tome_and_Principe_svg__a)"><path fill="#E71E43" fill-rule="evenodd" d="m0 4 10.66 10L0 24z"/><path d="M10.66 14 0 24V4z"/></g><g mask="url(#Sao_Tome_and_Principe_svg__a)"><path fill="#262626" fill-rule="evenodd" d="m14.66 15.09-1.57 1.06.53-1.82-1.49-1.16 1.89-.06.64-1.78.64 1.78 1.9.06-1.5 1.16.53 1.82z"/><path d="m13.09 16.15.53-1.82-1.49-1.16 1.89-.06.64-1.78.64 1.78 1.9.06-1.5 1.16.53 1.82-1.57-1.06z"/></g><g mask="url(#Sao_Tome_and_Principe_svg__a)"><path fill="#262626" fill-rule="evenodd" d="m21.33 15.09-1.57 1.06.53-1.82-1.5-1.16 1.9-.06.64-1.78.64 1.78 1.89.06-1.49 1.16.53 1.82z"/><path d="m19.76 16.15.53-1.82-1.5-1.16 1.9-.06.64-1.78.64 1.78 1.89.06-1.49 1.16.53 1.82-1.57-1.06z"/></g></svg>