<svg xmlns="http://www.w3.org/2000/svg" fill="none" viewBox="0 0 28 28" focusable="false"><defs><filter id="Sao_Tome_and_Principe_svg__a"><feColorMatrix values="0 0 0 0 1 0 0 0 0 1 0 0 0 0 1 0 0 0 1 0"/></filter></defs><mask id="Sao_Tome_and_Principe_svg__b" width="28" height="20" x="0" y="4" maskUnits="userSpaceOnUse"><g filter="url(#Sao_Tome_and_Principe_svg__a)"><rect width="28" height="20" y="4" fill="#FFF" rx="3"/><rect width="28" height="20" y="4" stroke="#969696" stroke-opacity="0" stroke-width="0" rx="3"/></g></mask><path fill="none" d="M0 0H28V28H0z"/><rect width="28" height="20" y="4" fill="#FFF" rx="3"/><rect width="28" height="20" y="4" rx="3"/><g mask="url(#Sao_Tome_and_Principe_svg__b)"><path fill="#2ACB41" fill-rule="evenodd" d="M0 24L28 24L28 17.3334L0 17.3334L0 24Z"/><path d="M28 24L28 17.3334L0 17.3334L0 24L28 24Z"/><path fill="#2ACB41" fill-rule="evenodd" d="M0 10.6667L28 10.6667L28 4L0 4L0 10.6667Z"/><path d="M28 10.6667L28 4L0 4L0 10.6667L28 10.6667Z"/><path fill="#FDD043" fill-rule="evenodd" d="M0 17.3333L28 17.3333L28 10.6666L0 10.6666L0 17.3333Z"/><path d="M28 17.3333L28 10.6666L0 10.6666L0 17.3333L28 17.3333Z"/><path fill="#E71E43" fill-rule="evenodd" d="M0 4L10.6667 14L0 24L0 4Z"/><path d="M10.6667 14L0 24L0 4L10.6667 14Z"/><path fill="#262626" fill-rule="evenodd" d="M14.6667 15.0934L13.0992 16.1574L13.6268 14.3379L12.1305 13.176L14.024 13.1155L14.6667 11.3334L15.3093 13.1155L17.2028 13.176L15.7065 14.3379L16.2341 16.1574L14.6667 15.0934Z"/><path d="M13.0992 16.1574L13.6268 14.3379L12.1305 13.176L14.024 13.1155L14.6667 11.3334L15.3093 13.1155L17.2028 13.176L15.7065 14.3379L16.2341 16.1574L14.6667 15.0934L13.0992 16.1574Z"/><path fill="#262626" fill-rule="evenodd" d="M21.3333 15.0934L19.7659 16.1574L20.2935 14.3379L18.7972 13.176L20.6907 13.1155L21.3333 11.3334L21.976 13.1155L23.8695 13.176L22.3731 14.3379L22.9008 16.1574L21.3333 15.0934Z"/><path d="M19.7659 16.1574L20.2935 14.3379L18.7972 13.176L20.6907 13.1155L21.3333 11.3334L21.976 13.1155L23.8695 13.176L22.3731 14.3379L22.9008 16.1574L21.3333 15.0934L19.7659 16.1574Z"/></g></svg>