<svg xmlns="http://www.w3.org/2000/svg" fill="none" viewBox="0 0 28 28" focusable="false"><rect width="28" height="20" y="4" fill="#fff" rx="3"/><mask id="Sao_Tome_and_Principe_svg__a" width="28" height="20" x="0" y="4" maskUnits="userSpaceOnUse" style="mask-type:luminance"><rect width="28" height="20" y="4" fill="#fff" rx="3"/></mask><g fill-rule="evenodd" clip-rule="evenodd" mask="url(#Sao_Tome_and_Principe_svg__a)"><path fill="#2ACB41" d="M0 24h28v-6.667H0zM0 10.667h28V4H0v6.667"/><path fill="#FDD043" d="M0 17.333h28v-6.666H0v6.666"/><path fill="#E71E43" d="m0 4 10.667 10L0 24z"/><path fill="#262626" d="m14.667 15.093-1.568 1.064.528-1.82-1.497-1.161 1.894-.06.643-1.783.642 1.783 1.894.06-1.496 1.162.527 1.82-1.567-1.065M21.333 15.093l-1.567 1.064.528-1.82-1.497-1.161 1.894-.06.642-1.783.643 1.783 1.893.06-1.496 1.162.528 1.82-1.568-1.065"/></g></svg>