<svg xmlns="http://www.w3.org/2000/svg" fill="none" viewBox="0 0 28 28" focusable="false"><rect width="28" height="20" y="4" fill="#fff" rx="3"/><mask id="Saudi_Arabia_svg__a" width="28" height="20" x="0" y="4" maskUnits="userSpaceOnUse" style="mask-type:luminance"><rect width="28" height="20" y="4" fill="#fff" rx="3"/></mask><g mask="url(#Saudi_Arabia_svg__a)"><path fill="#128c4b" d="M0 4h28v20H0z"/><path fill="#fff" fill-rule="evenodd" d="M6.667 16h10.666v-.921c0-.496.522-.818.965-.597l.369.185V16h2c.368 0 .666.299.666.667v.666c0 .737-.597 1.334-1.333 1.334h-2a.667.667 0 0 1-.667-.667v-.667H8.276a.67.67 0 0 1-.471-.195zM6.667 12.138c0-.088.035-.173.097-.236l.334-.333a.333.333 0 0 0 0-.471l-.334-.334a.33.33 0 0 1-.097-.235v-.862c0-.184.149-.334.333-.334h.745c.141 0 .255.114.255.255 0 .269.362.354.482.114l.1-.199a.31.31 0 0 1 .274-.17h1.477a.333.333 0 1 1 0 .667h-.666a.333.333 0 1 0 0 .667h.666c.184 0 .334.149.334.333v2c0 .184-.15.333-.334.333h-.666A.333.333 0 0 1 9.333 13v-.667c0-.184.15-.333.334-.333a.333.333 0 1 0 0-.667H9a.333.333 0 0 0-.333.334V13A.333.333 0 0 1 8 13v-.667a.333.333 0 0 0-.667 0V13a.333.333 0 0 1-.666 0zM17.333 12.138c0-.088.036-.173.098-.236l.333-.333a.333.333 0 0 0 0-.471l-.333-.334a.33.33 0 0 1-.098-.235v-.862c0-.184.15-.334.334-.334h.745c.14 0 .255.114.255.255 0 .269.362.354.482.114l.1-.199a.31.31 0 0 1 .274-.17H21A.333.333 0 0 1 21 10h-.667a.333.333 0 1 0 0 .667H21c.184 0 .333.149.333.333v2c0 .184-.149.333-.333.333h-.667A.333.333 0 0 1 20 13v-.667c0-.184.15-.333.333-.333a.333.333 0 1 0 0-.667h-.666a.333.333 0 0 0-.334.334V13a.333.333 0 1 1-.666 0v-.667a.333.333 0 0 0-.667 0V13a.333.333 0 1 1-.667 0zM16 10.33c0 .186-.104.44-.24.577l-.186.186a.337.337 0 0 0 0 .481l.185.185a.92.92 0 0 1 .241.577v.66a.33.33 0 0 1-.336.337h-.66a.33.33 0 0 1-.337-.336v-.66c0-.186-.062-.214-.155-.028l-.357.715a.61.61 0 0 1-.485.31h-1.34A.335.335 0 0 1 12 13a.33.33 0 0 1 .336-.333h.66a.34.34 0 0 0 .337-.334.33.33 0 0 0-.336-.333h-.66a.33.33 0 0 1-.337-.327V9.66c0-.18.143-.327.336-.327h.66c.187 0 .337.143.337.337v.66a.34.34 0 0 1-.333.337.337.337 0 0 0-.333.333.33.33 0 0 0 .336.333h.66a.34.34 0 0 0 .337-.33v-1.34c0-.182.155-.33.333-.33a.33.33 0 0 1 .334.337v.66c0 .186.154.337.333.337a.33.33 0 0 0 .333-.337v-.66c0-.186.155-.337.334-.337A.33.33 0 0 1 16 9.67z" clip-rule="evenodd"/></g></svg>