<svg xmlns="http://www.w3.org/2000/svg" fill="none" viewBox="0 0 28 28" focusable="false"><path fill="none" d="M0 0h28v28H0z"/><rect width="28" height="20" y="4" fill="#FFF" rx="3"/><rect width="28" height="20" y="4" rx="3"/><mask id="Saudi_Arabia_svg__a" width="28" height="20" x="0" y="4" mask-type="alpha" maskUnits="userSpaceOnUse"><rect width="28" height="20" y="4" fill="#FFF" rx="3"/><rect width="28" height="20" y="4" stroke="#979797" stroke-opacity="0" stroke-width="0" rx="3"/></mask><g mask="url(#Saudi_Arabia_svg__a)"><path fill="#128C4B" d="M0 4h28v20H0z"/><path d="M0 4h28v20H0z"/></g><g mask="url(#Saudi_Arabia_svg__a)"><path fill="#FFF" fill-rule="evenodd" d="M6.66 16h10.67v-.93c0-.49.52-.81.96-.59l.37.18V16h2c.37 0 .67.29.67.66v.67c0 .73-.6 1.33-1.33 1.33h-2c-.37 0-.67-.3-.67-.66v-.67H8.27c-.18 0-.35-.07-.47-.2z"/><path d="M17.33 16v-.93c0-.49.52-.81.96-.59l.37.18V16h2c.37 0 .67.29.67.66v.67c0 .73-.6 1.33-1.33 1.33h-2c-.37 0-.67-.3-.67-.66v-.67H8.27c-.18 0-.35-.07-.47-.2L6.66 16z"/></g><g mask="url(#Saudi_Arabia_svg__a)"><path fill="#FFF" fill-rule="evenodd" d="M6.66 12.13c0-.09.04-.17.1-.23l.33-.34c.13-.13.13-.34 0-.47l-.33-.33a.35.35 0 0 1-.1-.24v-.86c0-.18.15-.33.33-.33h.75c.14 0 .25.11.25.25 0 .27.37.36.49.12l.1-.2c.05-.11.16-.17.27-.17h1.48a.335.335 0 0 1 0 .67h-.67c-.18 0-.33.14-.33.33 0 .18.15.33.33.33h.67c.18 0 .33.15.33.34v2c0 .18-.15.33-.33.33h-.67c-.18 0-.33-.15-.33-.33v-.67c0-.19.15-.33.33-.33.19 0 .33-.15.33-.34 0-.18-.14-.33-.33-.33h-.67c-.18 0-.33.15-.33.33V13a.335.335 0 0 1-.67 0v-.67a.32.32 0 0 0-.33-.33c-.18 0-.33.14-.33.33V13c0 .18-.15.33-.34.33-.18 0-.33-.15-.33-.33z"/><path d="M7.09 11.56c.13-.13.13-.34 0-.47l-.33-.33a.35.35 0 0 1-.1-.24v-.86c0-.18.15-.33.33-.33h.75c.14 0 .25.11.25.25 0 .27.37.36.49.12l.1-.2c.05-.11.16-.17.27-.17h1.48a.335.335 0 0 1 0 .67h-.67c-.18 0-.33.14-.33.33 0 .18.15.33.33.33h.67c.18 0 .33.15.33.34v2c0 .18-.15.33-.33.33h-.67c-.18 0-.33-.15-.33-.33v-.67c0-.19.15-.33.33-.33.19 0 .33-.15.33-.34 0-.18-.14-.33-.33-.33h-.67c-.18 0-.33.15-.33.33V13a.335.335 0 0 1-.67 0v-.67a.32.32 0 0 0-.33-.33c-.18 0-.33.14-.33.33V13a.335.335 0 0 1-.67 0v-.87c0-.09.04-.17.1-.23z"/></g><g mask="url(#Saudi_Arabia_svg__a)"><path fill="#FFF" fill-rule="evenodd" d="M17.33 12.13c0-.09.03-.17.1-.23l.33-.34c.13-.13.13-.34 0-.47l-.33-.33a.31.31 0 0 1-.1-.24v-.86c0-.18.15-.33.33-.33h.75c.14 0 .25.11.25.25 0 .27.36.36.48.12l.1-.2a.31.31 0 0 1 .28-.17H21a.335.335 0 0 1 0 .67h-.67a.32.32 0 0 0-.33.33c0 .18.14.33.33.33H21c.18 0 .33.15.33.34v2c0 .18-.15.33-.33.33h-.67c-.19 0-.33-.15-.33-.33v-.67c0-.19.14-.33.33-.33.18 0 .33-.15.33-.34 0-.18-.15-.33-.33-.33h-.67c-.18 0-.33.15-.33.33V13a.335.335 0 0 1-.67 0v-.67c0-.19-.15-.33-.33-.33a.32.32 0 0 0-.33.33V13c0 .18-.15.33-.34.33-.18 0-.33-.15-.33-.33z"/><path d="M17.76 11.56c.13-.13.13-.34 0-.47l-.33-.33a.31.31 0 0 1-.1-.24v-.86c0-.18.15-.33.33-.33h.75c.14 0 .25.11.25.25 0 .27.36.36.48.12l.1-.2a.31.31 0 0 1 .28-.17H21a.335.335 0 0 1 0 .67h-.67a.32.32 0 0 0-.33.33c0 .18.14.33.33.33H21c.18 0 .33.15.33.34v2c0 .18-.15.33-.33.33h-.67c-.19 0-.33-.15-.33-.33v-.67c0-.19.14-.33.33-.33a.335.335 0 0 0 0-.67h-.67c-.18 0-.33.15-.33.33V13a.335.335 0 0 1-.67 0v-.67c0-.19-.15-.33-.33-.33a.32.32 0 0 0-.33.33V13a.335.335 0 0 1-.67 0v-.87c0-.09.03-.17.1-.23z"/></g><g mask="url(#Saudi_Arabia_svg__a)"><path fill="#FFF" fill-rule="evenodd" d="M16 10.33c0 .18-.11.44-.25.57l-.18.19c-.13.13-.14.34 0 .48l.18.18c.14.14.25.39.25.58v.66c0 .19-.15.34-.34.34H15c-.19 0-.34-.14-.34-.34v-.66c0-.18-.06-.21-.15-.03l-.36.72c-.09.17-.31.31-.49.31h-1.33c-.19 0-.33-.16-.33-.33 0-.19.14-.34.33-.34h.66c.19 0 .34-.15.34-.33 0-.19-.14-.33-.34-.33h-.66c-.18 0-.33-.15-.33-.33V9.66c0-.19.14-.33.33-.33h.66c.19 0 .34.14.34.33v.67c0 .18-.16.33-.33.33-.19 0-.34.16-.34.34s.14.33.34.33h.66c.18 0 .34-.16.34-.33V9.66c0-.18.15-.33.33-.33s.33.14.33.33v.67c0 .18.16.33.34.33s.33-.14.33-.33v-.67c0-.18.15-.33.33-.33.19 0 .34.14.34.33z"/><path d="m15.75 10.9-.18.19c-.13.13-.14.34 0 .48l.18.18c.14.14.25.39.25.58v.66c0 .19-.15.34-.34.34H15c-.19 0-.34-.14-.34-.34v-.66c0-.18-.06-.21-.15-.03l-.36.72c-.09.17-.31.31-.49.31h-1.33c-.19 0-.33-.16-.33-.33 0-.19.14-.34.33-.34h.66c.19 0 .34-.15.34-.33 0-.19-.14-.33-.34-.33h-.66c-.18 0-.33-.15-.33-.33V9.66c0-.19.14-.33.33-.33h.66c.19 0 .34.14.34.33v.67c0 .18-.16.33-.33.33-.19 0-.34.16-.34.34s.14.33.34.33h.66c.18 0 .34-.16.34-.33V9.66c0-.18.15-.33.33-.33s.33.14.33.33v.67c0 .18.16.33.34.33s.33-.14.33-.33v-.67c0-.18.15-.33.33-.33.19 0 .34.14.34.33v.67c0 .18-.11.44-.25.57"/></g></svg>