<svg xmlns="http://www.w3.org/2000/svg" fill="none" viewBox="0 0 28 28" focusable="false"><defs><filter id="Senegal_svg__a"><feColorMatrix values="0 0 0 0 1 0 0 0 0 1 0 0 0 0 1 0 0 0 1 0"/></filter></defs><mask id="Senegal_svg__b" width="28" height="20" x="0" y="4" maskUnits="userSpaceOnUse"><g filter="url(#Senegal_svg__a)"><rect width="28" height="20" y="4" fill="#FFF" rx="3"/><rect width="28" height="20" y="4" stroke="#969696" stroke-opacity="0" stroke-width="0" rx="3"/></g></mask><path fill="none" d="M0 0H28V28H0z"/><rect width="28" height="20" y="4" fill="#FFF" rx="3"/><rect width="28" height="20" y="4" rx="3"/><g mask="url(#Senegal_svg__b)"><path fill="#F13642" d="M13.333 4H28V24H13.333z"/><path d="M13.333 4H28V24H13.333z"/><path fill="#17A052" fill-rule="evenodd" d="M0 24L9.33333 24L9.33333 4L0 4L0 24Z"/><path d="M9.33333 24L9.33333 4L0 4L0 24L9.33333 24Z"/><path fill="#FFF166" fill-rule="evenodd" d="M9.33331 24L18.6666 24L18.6666 4L9.33331 4L9.33331 24Z"/><path d="M18.6666 24L18.6666 4L9.33331 4L9.33331 24L18.6666 24Z"/><path fill="#17A052" fill-rule="evenodd" d="M14 15.3666L12.0407 16.6967L12.7002 14.4223L10.8298 12.9699L13.1967 12.8943L14 10.6666L14.8033 12.8943L17.1702 12.9699L15.2998 14.4223L15.9593 16.6967L14 15.3666Z"/><path d="M12.0407 16.6967L12.7002 14.4223L10.8298 12.9699L13.1967 12.8943L14 10.6666L14.8033 12.8943L17.1702 12.9699L15.2998 14.4223L15.9593 16.6967L14 15.3666L12.0407 16.6967Z"/></g></svg>