<svg xmlns="http://www.w3.org/2000/svg" fill="none" viewBox="0 0 28 28" focusable="false"><rect width="27.5" height="19.5" x=".25" y="4.25" fill="#fff" stroke="#D6D8DD" stroke-width=".5" rx="2.75"/><mask id="Serbia_svg__a" width="28" height="20" x="0" y="4" maskUnits="userSpaceOnUse" style="mask-type:luminance"><rect width="27.5" height="19.5" x=".25" y="4.25" fill="#fff" stroke="#fff" stroke-width=".5" rx="2.75"/></mask><g mask="url(#Serbia_svg__a)"><path fill="#17508F" fill-rule="evenodd" d="M0 17.333h28v-6.666H0z" clip-rule="evenodd"/><path fill="#E1444D" fill-rule="evenodd" d="M0 10.667h28V4H0z" clip-rule="evenodd"/><path fill="#fff" fill-rule="evenodd" d="M6 14c0-.645.344-2.082.537-2.841a.656.656 0 0 1 .638-.492h2.984c.3 0 .563.2.637.49.194.755.537 2.183.537 2.843 0 .745-.5 2.7-.634 3.21a.574.574 0 0 1-.112.223c-.255.31-1.088 1.234-1.92 1.234-.833 0-1.666-.926-1.921-1.235a.573.573 0 0 1-.112-.22C6.5 16.704 6 14.763 6 14" clip-rule="evenodd"/><mask id="Serbia_svg__b" width="6" height="9" x="6" y="10" maskUnits="userSpaceOnUse" style="mask-type:luminance"><path fill="#fff" fill-rule="evenodd" d="M6 14c0-.645.344-2.082.537-2.841a.656.656 0 0 1 .638-.492h2.984c.3 0 .563.2.637.49.194.755.537 2.183.537 2.843 0 .745-.5 2.7-.634 3.21a.574.574 0 0 1-.112.223c-.255.31-1.088 1.234-1.92 1.234-.833 0-1.666-.926-1.921-1.235a.573.573 0 0 1-.112-.22C6.5 16.704 6 14.763 6 14" clip-rule="evenodd"/></mask><g stroke="#E1444D" stroke-linecap="square" stroke-width="1.333" mask="url(#Serbia_svg__b)"><path d="M11.333 11.333 6 18M6 11.333 11.333 18"/></g></g></svg>