<svg xmlns="http://www.w3.org/2000/svg" fill="none" viewBox="0 0 28 28" focusable="false"><defs><linearGradient id="Seychelles_svg__c" x1="0" x2="0" y1="4" y2="24" gradientUnits="userSpaceOnUse"><stop offset="0" stop-color="#1CBD4F"/><stop offset="1" stop-color="#159B3F"/></linearGradient><filter id="Seychelles_svg__a"><feColorMatrix values="0 0 0 0 1 0 0 0 0 1 0 0 0 0 1 0 0 0 1 0"/></filter></defs><mask id="Seychelles_svg__b" width="28" height="20" x="0" y="4" maskUnits="userSpaceOnUse"><g filter="url(#Seychelles_svg__a)"><rect width="28" height="20" y="4" fill="#FFF" rx="3"/><rect width="27.5" height="19.5" x=".25" y="4.25" stroke="#F5F5F5" stroke-width=".5" rx="2.75"/></g></mask><path fill="none" d="M0 0H28V28H0z"/><rect width="28" height="20" y="4" fill="#FFF" rx="3"/><rect width="27.5" height="19.5" x=".25" y="4.25" stroke="#D6D8DD" stroke-width=".5" rx="2.75"/><g mask="url(#Seychelles_svg__b)"><path fill="url(#Seychelles_svg__c)" fill-rule="evenodd" d="M28 10.6667L28 4L0 4L0 24L28 24L28 17.3333L0 24L28 10.6667Z"/><path d="M28 10.6667L28 4L0 4L0 24L28 24L28 17.3333L0 24L28 10.6667Z"/><path fill="#0858B4" fill-rule="evenodd" d="M0 4L9.33333 4L0 24L0 4Z"/><path d="M9.33333 4L0 24L0 4L9.33333 4Z"/><path fill="#ED3535" fill-rule="evenodd" d="M18.6667 4L28 4L28 10.6667L0 24L18.6667 4Z"/><path d="M28 4L28 10.6667L0 24L18.6667 4L28 4Z"/><path fill="#08964F" fill-rule="evenodd" d="M28 24L28 17.3334L0 24L28 24Z"/><path d="M28 17.3334L0 24L28 24L28 17.3334Z"/><path fill="#FFDD67" fill-rule="evenodd" d="M9.33333 4L18.6667 4L0 24L9.33333 4Z"/><path d="M18.6667 4L0 24L9.33333 4L18.6667 4Z"/></g></svg>