<svg xmlns="http://www.w3.org/2000/svg" fill="none" viewBox="0 0 28 28" focusable="false"><rect width="27.5" height="19.5" x=".25" y="4.25" fill="#fff" stroke="#D6D8DD" stroke-width=".5" rx="2.75"/><mask id="Singapore_svg__a" width="28" height="20" x="0" y="4" maskUnits="userSpaceOnUse" style="mask-type:luminance"><rect width="27.5" height="19.5" x=".25" y="4.25" fill="#fff" stroke="#fff" stroke-width=".5" rx="2.75"/></mask><g fill-rule="evenodd" clip-rule="evenodd" mask="url(#Singapore_svg__a)"><path fill="#E12237" d="M0 14.667h28V4H0z"/><path fill="#fff" d="M6.667 13.333c.945 0 1.813-.327 2.498-.876a3.333 3.333 0 1 1 0-6.248 4 4 0 1 0-2.498 7.124M8 8.667a.667.667 0 1 1-1.333 0 .667.667 0 0 1 1.333 0M8.667 12a.667.667 0 1 0 0-1.333.667.667 0 0 0 0 1.333M12 11.333a.667.667 0 1 1-1.333 0 .667.667 0 0 1 1.333 0m.667-2a.667.667 0 1 0 0-1.333.667.667 0 0 0 0 1.333m-2-2.666a.667.667 0 1 1-1.334 0 .667.667 0 0 1 1.334 0"/></g></svg>