<svg xmlns="http://www.w3.org/2000/svg" fill="none" viewBox="0 0 28 28" focusable="false"><defs><filter id="Singapore_svg__a"><feColorMatrix values="0 0 0 0 1 0 0 0 0 1 0 0 0 0 1 0 0 0 1 0"/></filter></defs><mask id="Singapore_svg__b" width="28" height="20" x="0" y="4" maskUnits="userSpaceOnUse"><g filter="url(#Singapore_svg__a)"><rect width="28" height="20" y="4" fill="#FFF" rx="3"/><rect width="27.5" height="19.5" x=".25" y="4.25" stroke="#F5F5F5" stroke-width=".5" rx="2.75"/></g></mask><path fill="none" d="M0 0H28V28H0z"/><rect width="28" height="20" y="4" fill="#FFF" rx="3"/><rect width="27.5" height="19.5" x=".25" y="4.25" stroke="#D6D8DD" stroke-width=".5" rx="2.75"/><g mask="url(#Singapore_svg__b)"><path fill="#E12237" fill-rule="evenodd" d="M0 14.6667L28 14.6667L28 4L0 4L0 14.6667Z"/><path d="M28 14.6667L28 4L0 4L0 14.6667L28 14.6667Z"/><path fill="#FFF" fill-rule="evenodd" d="M9.16487 12.4575C8.48035 13.0056 7.6118 13.3334 6.66669 13.3334C4.45755 13.3334 2.66669 11.5425 2.66669 9.33337C2.66669 7.12424 4.45755 5.33337 6.66669 5.33337C7.6118 5.33337 8.48035 5.66115 9.16487 6.20923C8.80226 6.07397 8.40977 6.00004 8.00002 6.00004C6.15907 6.00004 4.66669 7.49242 4.66669 9.33337C4.66669 11.1743 6.15907 12.6667 8.00002 12.6667C8.40977 12.6667 8.80226 12.5928 9.16487 12.4575ZM10 7.33337C10.3682 7.33337 10.6667 7.0349 10.6667 6.66671C10.6667 6.29852 10.3682 6.00004 10 6.00004C9.63183 6.00004 9.33335 6.29852 9.33335 6.66671C9.33335 7.0349 9.63183 7.33337 10 7.33337ZM8.00002 8.66671C8.00002 9.0349 7.70154 9.33337 7.33335 9.33337C6.96516 9.33337 6.66669 9.0349 6.66669 8.66671C6.66669 8.29852 6.96516 8.00004 7.33335 8.00004C7.70154 8.00004 8.00002 8.29852 8.00002 8.66671ZM13.3334 8.66671C13.3334 9.0349 13.0349 9.33337 12.6667 9.33337C12.2985 9.33337 12 9.0349 12 8.66671C12 8.29852 12.2985 8.00004 12.6667 8.00004C13.0349 8.00004 13.3334 8.29852 13.3334 8.66671ZM9.33335 11.3334C9.33335 11.7016 9.03488 12 8.66669 12C8.2985 12 8.00002 11.7016 8.00002 11.3334C8.00002 10.9652 8.2985 10.6667 8.66669 10.6667C9.03488 10.6667 9.33335 10.9652 9.33335 11.3334ZM12 11.3334C12 11.7016 11.7015 12 11.3334 12C10.9652 12 10.6667 11.7016 10.6667 11.3334C10.6667 10.9652 10.9652 10.6667 11.3334 10.6667C11.7015 10.6667 12 10.9652 12 11.3334Z"/><path d="M9.16487 12.4575C8.48035 13.0056 7.6118 13.3334 6.66669 13.3334C4.45755 13.3334 2.66669 11.5425 2.66669 9.33337C2.66669 7.12424 4.45755 5.33337 6.66669 5.33337C7.6118 5.33337 8.48035 5.66115 9.16487 6.20923C8.80226 6.07397 8.40977 6.00004 8.00002 6.00004C6.15907 6.00004 4.66669 7.49242 4.66669 9.33337C4.66669 11.1743 6.15907 12.6667 8.00002 12.6667C8.40977 12.6667 8.80226 12.5928 9.16487 12.4575ZM10 7.33337C10.3682 7.33337 10.6667 7.0349 10.6667 6.66671C10.6667 6.29852 10.3682 6.00004 10 6.00004C9.63183 6.00004 9.33335 6.29852 9.33335 6.66671C9.33335 7.0349 9.63183 7.33337 10 7.33337ZM8.00002 8.66671C8.00002 9.0349 7.70154 9.33337 7.33335 9.33337C6.96516 9.33337 6.66669 9.0349 6.66669 8.66671C6.66669 8.29852 6.96516 8.00004 7.33335 8.00004C7.70154 8.00004 8.00002 8.29852 8.00002 8.66671ZM13.3334 8.66671C13.3334 9.0349 13.0349 9.33337 12.6667 9.33337C12.2985 9.33337 12 9.0349 12 8.66671C12 8.29852 12.2985 8.00004 12.6667 8.00004C13.0349 8.00004 13.3334 8.29852 13.3334 8.66671ZM9.33335 11.3334C9.33335 11.7016 9.03488 12 8.66669 12C8.2985 12 8.00002 11.7016 8.00002 11.3334C8.00002 10.9652 8.2985 10.6667 8.66669 10.6667C9.03488 10.6667 9.33335 10.9652 9.33335 11.3334ZM12 11.3334C12 11.7016 11.7015 12 11.3334 12C10.9652 12 10.6667 11.7016 10.6667 11.3334C10.6667 10.9652 10.9652 10.6667 11.3334 10.6667C11.7015 10.6667 12 10.9652 12 11.3334Z"/></g></svg>