<svg xmlns="http://www.w3.org/2000/svg" fill="none" viewBox="0 0 28 28" focusable="false"><rect width="27.5" height="19.5" x=".25" y="4.25" fill="#fff" stroke="#f5f5f5" stroke-width=".5" rx="2.75"/><mask id="Sint_Maarten_svg__a" width="25" height="21" x="3" y="4" maskUnits="userSpaceOnUse" style="mask-type:alpha"><path fill="#1b2f4c" d="M3 4h22a3 3 0 0 1 3 3v14a3 3 0 0 1-3 3H3l14.012-9.843z"/></mask><g mask="url(#Sint_Maarten_svg__a)"><path fill="#012a87" d="M.041 14.157H28v20H.041z"/><path fill="#dc171d" d="M.041-5.843H28v20H.041z"/></g><circle cx="6.497" cy="11.855" r="1.846" fill="#f9d90f"/><path fill="#62afe1" stroke="#dc171d" stroke-width=".34" d="m6.418 11.523.079.04.078-.04c.15-.079.349-.114.59-.122.212-.007.44.006.68.02l.097.006c.27.016.552.029.812.004q.197-.017.382-.072c-.198.986-.192 1.733-.13 2.319.032.301.079.559.119.78l.009.049c.042.235.073.416.073.572 0 .43-.133.673-.314.824-.192.159-.463.237-.782.283-.158.023-.32.037-.485.051l-.012.001a8 8 0 0 0-.468.05c-.23.033-.47.09-.65.225-.178-.136-.418-.192-.648-.226a8 8 0 0 0-.468-.049h-.013a8 8 0 0 1-.485-.052c-.319-.046-.59-.124-.781-.283-.182-.15-.314-.393-.314-.823 0-.157.03-.338.072-.573l.01-.05c.04-.22.086-.478.118-.779.062-.586.068-1.333-.13-2.32.123.039.252.06.383.073.26.025.54.012.81-.004l.098-.005a8 8 0 0 1 .68-.02c.242.007.44.042.59.12Z"/><path fill="#fff" d="m6.092 12.7.428-.44.427.44v.387l.841.596v.64h.251v.999H4.98v-1h.223v-.639l.89-.596z"/><path fill="#f9d90f" fill-rule="evenodd" d="M3.486 16.188c-.272-.337-.435-.796-.486-1.336l.18.032.168-.95-.67-.119-.116.658h-.26c0 .802.192 1.569.655 2.142.335.416.796.708 1.378.842l-.074.155c.502.239 1.339.378 2.248.378s1.746-.14 2.247-.378l-.08-.168c.557-.139 1-.426 1.325-.829.462-.573.654-1.34.654-2.142h-.26l-.116-.658-.67.12.169.949.18-.032c-.052.54-.215.999-.487 1.336-.324.402-.836.672-1.617.672v.326c-.369.076-.831.124-1.345.124a6.7 6.7 0 0 1-1.405-.137v-.313c-.782 0-1.293-.27-1.618-.672" clip-rule="evenodd"/><path stroke="#bc715f" stroke-linecap="round" stroke-linejoin="round" stroke-width=".51" d="M4.29 10.65h1.822l.398.208.431-.207h1.671"/><path fill="#fff" d="M7.843 12.009h.393v.971h-.393z"/><circle cx="5.06" cy="12.449" r=".41" fill="#f9d90f"/></svg>