<svg xmlns="http://www.w3.org/2000/svg" fill="none" viewBox="0 0 28 28" focusable="false"><path fill="none" d="M28 28H0V0h28z"/><rect width="28" height="20" y="4" fill="#FFF" rx="3"/><rect width="27.5" height="19.5" x=".25" y="4.25" stroke="#F5F5F5" stroke-width=".5" rx="3"/><mask id="Sint_Maarten_svg__a" width="25" height="20" x="3" y="4" mask-type="alpha" maskUnits="userSpaceOnUse"><path fill="#1B2F4C" d="M2.99 4h22c1.66 0 3 1.34 3 3v14c0 1.65-1.34 3-3 3h-22l14.02-9.85z"/></mask><g mask="url(#Sint_Maarten_svg__a)"><path fill="#012A87" d="M.041 14.157H28v20H.041z"/><path d="M.291 14.407H27.75v19.5H.291z"/></g><g mask="url(#Sint_Maarten_svg__a)"><path fill="#DC171D" d="M.041-5.843H28v20H.041z"/><path d="M.291-5.593H27.75v19.5H.291z"/></g><circle cx="6.497" cy="11.854" r="1.846" fill="#F9D90F"/><path fill="#62AFE1" d="M6.49 11.37c-.73-.39-2.19.18-2.88-.32.54 2.28 0 3.33 0 4.02 0 1.88 2.35.97 2.88 1.68.53-.71 2.88.2 2.88-1.68 0-.69-.54-1.74 0-4.02-.69.5-2.14-.07-2.88.32"/><path fill="#DC171D" fill-rule="evenodd" d="M6.49 11.37c-.34-.18-.85-.15-1.36-.12-.4.02-.8.04-1.13-.03-.15-.04-.28-.09-.39-.17.04.15.07.29.09.43.27 1.42.11 2.31 0 2.94-.05.26-.09.47-.09.65 0 1.18.93 1.26 1.75 1.33.33.03.65.06.88.16.11.04.19.1.25.19.06-.09.15-.15.25-.19.23-.1.55-.13.89-.16.82-.07 1.74-.15 1.74-1.33 0-.18-.04-.39-.08-.65-.12-.63-.28-1.52-.01-2.94.03-.14.06-.28.09-.43-.11.08-.24.13-.38.17-.34.07-.74.05-1.14.03-.51-.03-1.01-.06-1.36.12m2.43.21-.21.02q-.28.02-.88-.01-.49-.03-.7-.02-.32.01-.48.1l-.16.08-.16-.08q-.16-.09-.47-.1-.22-.01-.71.02-.6.03-.88.01l-.2-.02q.14.8.12 1.53-.01.38-.06.77-.03.23-.1.6-.08.44-.08.59 0 .33.11.53.02.02.03.04.09.13.25.21.17.1.46.15.19.03.59.06.5.05.72.1t.38.15q.16-.1.38-.15t.73-.1q.4-.03.59-.06.28-.05.46-.15.16-.08.25-.21l.02-.04q.11-.2.11-.53 0-.15-.08-.59-.07-.37-.1-.6-.05-.39-.06-.77-.01-.73.13-1.53"/><path fill="#FFF" d="m6.09 12.69.42-.43.43.43v.39l.84.6v.64h.25v1H4.97v-1h.23v-.64l.89-.6z"/><path fill="#F9D90F" fill-rule="evenodd" d="M3.48 16.18c-.27-.33-.43-.79-.48-1.33l.17.03.17-.95-.67-.12-.11.66H2.3c0 .8.19 1.57.65 2.14.34.42.8.71 1.38.84l-.07.16c.5.24 1.33.38 2.24.38s1.75-.14 2.25-.38l-.08-.17c.56-.14 1-.43 1.33-.83.46-.57.65-1.34.65-2.14h-.26l-.12-.66-.67.12.17.95.18-.03c-.05.54-.21 1-.48 1.33-.33.4-.84.67-1.62.67v.33c-.37.08-.83.12-1.35.12-.54 0-1.02-.05-1.4-.13v-.32c-.78 0-1.29-.27-1.62-.67"/><path stroke="#BC715F" stroke-linecap="round" stroke-linejoin="round" stroke-width=".51" d="M4.28 10.65h1.83l.4.2.43-.2h1.67"/><path fill="#FFF" d="M7.843 12.009h.393v.971h-.393z"/><circle cx="5.06" cy="12.449" r=".41" fill="#F9D90F"/></svg>