<svg xmlns="http://www.w3.org/2000/svg" fill="none" viewBox="0 0 28 28" focusable="false"><path fill="none" d="M0 0h28v28H0z"/><rect width="28" height="20" y="4" fill="#FFF" rx="3"/><rect width="27.5" height="19.5" x=".25" y="4.25" stroke="#D6D8DD" stroke-width=".5" rx="3"/><mask id="Slovakia_svg__a" width="28" height="20" x="0" y="4" mask-type="alpha" maskUnits="userSpaceOnUse"><rect width="28" height="20" y="4" fill="#FFF" rx="3"/><rect width="27.5" height="19.5" x=".25" y="4.25" stroke="#F5F5F5" stroke-width=".5" rx="3"/></mask><g mask="url(#Slovakia_svg__a)"><path fill="#0C47B7" fill-rule="evenodd" d="M0 17.33h28v-6.67H0z"/><path d="M28 17.33v-6.67H0v6.67z"/></g><g mask="url(#Slovakia_svg__a)"><path fill="#E53B35" fill-rule="evenodd" d="M0 24h28v-6.67H0z"/><path d="M28 24v-6.67H0V24z"/></g><g mask="url(#Slovakia_svg__a)"><path fill="#F73744" fill-rule="evenodd" d="M5.61 9.28C5.64 8.56 6.23 8 6.94 8h6.11c.71 0 1.3.56 1.33 1.28l.26 6.74c.01.4-.16.8-.47 1.06l-2.87 2.47c-.75.64-1.86.64-2.61 0l-2.87-2.47c-.31-.26-.48-.66-.47-1.06z"/><path fill="#FFF" fill-rule="evenodd" d="M13.59 6.72q-.27-.06-.54-.06H6.94q-.27 0-.54.06-.24.05-.47.14-.23.1-.43.23-.22.14-.4.32-.19.18-.34.39-.14.2-.24.42-.1.23-.16.47-.07.26-.08.54l-.26 6.74q-.01.3.04.59.06.3.18.58.12.28.3.52.18.23.41.43l2.88 2.47q.24.21.51.36.25.14.52.24.26.1.54.15.29.05.6.05.3 0 .59-.05.28-.05.54-.15.27-.1.52-.24.27-.15.51-.36l2.88-2.47q.23-.2.41-.43.18-.24.3-.52t.18-.58q.05-.29.04-.59l-.26-6.74q-.01-.28-.08-.54-.05-.24-.16-.47-.1-.22-.24-.42-.15-.21-.34-.39-.18-.18-.4-.32-.2-.13-.43-.23-.23-.09-.47-.14M5.61 9.28C5.64 8.56 6.23 8 6.94 8h6.11c.71 0 1.3.56 1.33 1.28l.26 6.74c.01.4-.16.8-.47 1.06l-2.87 2.47c-.75.64-1.86.64-2.61 0l-2.87-2.47c-.31-.26-.48-.66-.47-1.06z"/><mask id="Slovakia_svg__b" width="9.233" height="11.898" x="5.383" y="8" mask-type="alpha" maskUnits="userSpaceOnUse"><path fill="#F73744" fill-rule="evenodd" d="M5.61 9.28C5.64 8.56 6.23 8 6.94 8h6.11c.71 0 1.3.56 1.33 1.28l.26 6.74c.01.4-.16.8-.47 1.06l-2.87 2.47c-.75.64-1.86.64-2.61 0l-2.87-2.47c-.31-.26-.48-.66-.47-1.06z"/><path fill="#FFF" fill-rule="evenodd" d="M13.59 6.72q-.27-.06-.54-.06H6.94q-.27 0-.54.06-.24.05-.47.14-.23.1-.43.23-.22.14-.4.32-.19.18-.34.39-.14.2-.24.42-.1.23-.16.47-.07.26-.08.54l-.26 6.74q-.01.3.04.59.06.3.18.58.12.28.3.52.18.23.41.43l2.88 2.47q.24.21.51.36.25.14.52.24.26.1.54.15.29.05.6.05.3 0 .59-.05.28-.05.54-.15.27-.1.52-.24.27-.15.51-.36l2.88-2.47q.23-.2.41-.43.18-.24.3-.52t.18-.58q.05-.29.04-.59l-.26-6.74q-.01-.28-.08-.54-.05-.24-.16-.47-.1-.22-.24-.42-.15-.21-.34-.39-.18-.18-.4-.32-.2-.13-.43-.23-.23-.09-.47-.14M5.61 9.28C5.64 8.56 6.23 8 6.94 8h6.11c.71 0 1.3.56 1.33 1.28l.26 6.74c.01.4-.16.8-.47 1.06l-2.87 2.47c-.75.64-1.86.64-2.61 0l-2.87-2.47c-.31-.26-.48-.66-.47-1.06z"/></mask><g mask="url(#Slovakia_svg__b)"><path fill="#FFF" fill-rule="evenodd" d="M9.33 15c0-.19-.15-.34-.34-.34H7.66c-.18 0-.33-.15-.33-.33v-.67c0-.18.15-.33.33-.33h1.33c.19 0 .34-.15.34-.33v-.67c0-.19-.15-.33-.34-.33h-.66c-.19 0-.34-.15-.34-.34V11c0-.19.15-.34.34-.34h.66c.19 0 .34-.15.34-.33v-.67c0-.18.15-.33.33-.33h.67c.18 0 .33.15.33.33v.67c0 .18.15.33.34.33h.66c.19 0 .34.15.34.34v.66c0 .19-.15.34-.34.34H11c-.19 0-.34.14-.34.33V13c0 .18.15.33.34.33h1.33c.18 0 .33.15.33.33v.67c0 .18-.15.33-.33.33H11c-.19 0-.34.15-.34.34v2c0 .18-.15.33-.33.33h-.67c-.18 0-.33-.15-.33-.33z"/><path d="M7.66 14.66c-.18 0-.33-.15-.33-.33v-.67c0-.18.15-.33.33-.33h1.33c.19 0 .34-.15.34-.33v-.67c0-.19-.15-.33-.34-.33h-.66c-.19 0-.34-.15-.34-.34V11c0-.19.15-.34.34-.34h.66c.19 0 .34-.15.34-.33v-.67c0-.18.15-.33.33-.33h.67c.18 0 .33.15.33.33v.67c0 .18.15.33.34.33h.66c.19 0 .34.15.34.34v.66c0 .19-.15.34-.34.34H11c-.19 0-.34.14-.34.33V13c0 .18.15.33.34.33h1.33c.18 0 .33.15.33.33v.67c0 .18-.15.33-.33.33H11c-.19 0-.34.15-.34.34v2c0 .18-.15.33-.33.33h-.67c-.18 0-.33-.15-.33-.33v-2c0-.19-.15-.34-.34-.34z"/></g><g mask="url(#Slovakia_svg__b)"><mask id="Slovakia_svg__c" fill="#fff"><path fill-rule="evenodd" d="M11.204 17.425a1.333 1.333 0 0 0-2.408 0C7.176 17.681 6 18.438 6 19.333c0 1.105 1.79 2 4 2s4-.895 4-2c0-.895-1.175-1.652-2.796-1.908" clip-rule="evenodd"/></mask><path fill="#1251A1" fill-rule="evenodd" d="M11.204 17.425a1.333 1.333 0 0 0-2.408 0C7.176 17.681 6 18.438 6 19.333c0 1.105 1.79 2 4 2s4-.895 4-2c0-.895-1.175-1.652-2.796-1.908" clip-rule="evenodd" mask="url(#Slovakia_svg__c)"/></g></g></svg>