<svg xmlns="http://www.w3.org/2000/svg" fill="none" viewBox="0 0 28 28" focusable="false"><defs><filter id="Slovenia_svg__a"><feColorMatrix values="0 0 0 0 1 0 0 0 0 1 0 0 0 0 1 0 0 0 1 0"/></filter><filter id="Slovenia_svg__c" width="28" height="6.667" x="0" y="17.333" color-interpolation-filters="sRGB" filterUnits="userSpaceOnUse"><feFlood flood-opacity="0" result="BackgroundImageFix"/><feOffset in="SourceAlpha"/><feColorMatrix values="0 0 0 0 0 0 0 0 0 0 0 0 0 0 0 0 0 0 0.06 0"/><feBlend in2="BackgroundImageFix" result="effect_dropShadow_1"/><feBlend in="SourceGraphic" in2="effect_dropShadow_1" result="shape"/></filter></defs><mask id="Slovenia_svg__b" width="28" height="20" x="0" y="4" maskUnits="userSpaceOnUse"><g filter="url(#Slovenia_svg__a)"><rect width="28" height="20" y="4" fill="#FFF" rx="3"/><rect width="27.5" height="19.5" x=".25" y="4.25" stroke="#F5F5F5" stroke-width=".5" rx="2.75"/></g></mask><path fill="none" d="M0 0H28V28H0z"/><rect width="28" height="20" y="4" fill="#FFF" rx="3"/><rect width="27.5" height="19.5" x=".25" y="4.25" stroke="#D6D8DD" stroke-width=".5" rx="2.75"/><g mask="url(#Slovenia_svg__b)"><path fill="#0C47B7" fill-rule="evenodd" d="M0 17.3333L28 17.3333L28 10.6666L9.24398 10.6666L9.24398 9.33329C9.24398 9.33329 8.30367 8.66663 7.33333 8.66663C6.36299 8.66663 5.33333 9.33329 5.33333 9.33329L5.33333 10.6666L0 10.6666L0 17.3333ZM8.66667 12C8.66667 12.7363 8.06971 13.3333 7.33333 13.3333C6.59695 13.3333 6 12.7363 6 12C6 11.2636 6.59695 10.6666 7.33333 10.6666C8.06971 10.6666 8.66667 11.2636 8.66667 12Z"/><path d="M0 17.3333L28 17.3333L28 10.6666L9.24398 10.6666L9.24398 9.33329C9.24398 9.33329 8.30367 8.66663 7.33333 8.66663C6.36299 8.66663 5.33333 9.33329 5.33333 9.33329L5.33333 10.6666L0 10.6666L0 17.3333ZM8.66667 12C8.66667 12.7363 8.06971 13.3333 7.33333 13.3333C6.59695 13.3333 6 12.7363 6 12C6 11.2636 6.59695 10.6666 7.33333 10.6666C8.06971 10.6666 8.66667 11.2636 8.66667 12Z"/><g filter="url(#Slovenia_svg__c)"><path fill="#E53B35" fill-rule="evenodd" d="M0 24L28 24L28 17.3334L0 17.3334L0 24Z"/><path d="M28 24L28 17.3334L0 17.3334L0 24L28 24Z"/></g></g></svg>