<svg xmlns="http://www.w3.org/2000/svg" fill="none" viewBox="0 0 28 28" focusable="false"><defs><filter id="Slovenia_svg__c" width="28" height="6.667" x="0" y="17.333" color-interpolation-filters="sRGB" filterUnits="userSpaceOnUse"><feFlood flood-opacity="0" result="BackgroundImageFix"/><feColorMatrix in="SourceAlpha" result="hardAlpha" values="0 0 0 0 0 0 0 0 0 0 0 0 0 0 0 0 0 0 127 0"/><feOffset/><feGaussianBlur/><feComposite in2="hardAlpha" k2="-1" k3="1" operator="out"/><feColorMatrix values="0 0 0 0 0 0 0 0 0 0 0 0 0 0 0 0 0 0 0.059 0"/><feBlend in2="BackgroundImageFix" result="effect_dropShadow_1"/><feBlend in="SourceGraphic" in2="effect_dropShadow_1" result="shape"/></filter></defs><path fill="none" d="M0 0h28v28H0z"/><rect width="28" height="20" y="4" fill="#fff" rx="3"/><rect width="27.5" height="19.5" x=".25" y="4.25" stroke="#d6d8dd" stroke-width=".5" rx="3"/><mask id="Slovenia_svg__a" width="28" height="20" x="0" y="4" mask-type="alpha" maskUnits="userSpaceOnUse"><rect width="28" height="20" y="4" fill="#fff" rx="3"/><rect width="27.5" height="19.5" x=".25" y="4.25" stroke="#f5f5f5" stroke-width=".5" rx="3"/></mask><g mask="url(#Slovenia_svg__a)"><mask id="Slovenia_svg__b" fill="#fff"><path fill-rule="evenodd" d="M0 17.333h28v-6.666H9.244V9.333s-.94-.666-1.91-.666c-.971 0-2 .666-2 .666v1.334H0zM8.667 12A1.333 1.333 0 1 1 6 12a1.333 1.333 0 0 1 2.667 0" clip-rule="evenodd"/></mask><path fill="#0c47b7" fill-rule="evenodd" d="M0 17.333h28v-6.666H9.244V9.333s-.94-.666-1.91-.666c-.971 0-2 .666-2 .666v1.334H0zM8.667 12A1.333 1.333 0 1 1 6 12a1.333 1.333 0 0 1 2.667 0" clip-rule="evenodd" mask="url(#Slovenia_svg__b)"/></g><g mask="url(#Slovenia_svg__a)"><g filter="url(#Slovenia_svg__c)"><path fill="#e53b35" fill-rule="evenodd" d="M0 24h28v-6.67H0z"/></g><path d="M28 24v-6.67H0V24z"/></g></svg>