<svg xmlns="http://www.w3.org/2000/svg" fill="none" viewBox="0 0 31 28" focusable="false"><defs><linearGradient id="Solomon_Islands_svg__b" x1="2" x2="2" y1="4" y2="24" gradientUnits="userSpaceOnUse"><stop stop-color="#1dbe4f"/><stop offset="1" stop-color="#159b3f"/></linearGradient><linearGradient id="Solomon_Islands_svg__d" x1="2" x2="2" y1="4" y2="24" gradientUnits="userSpaceOnUse"><stop stop-color="#0660d4"/><stop offset="1" stop-color="#0051bb"/></linearGradient><filter id="Solomon_Islands_svg__c" width="28" height="20" x="2" y="4" color-interpolation-filters="sRGB" filterUnits="userSpaceOnUse"><feFlood flood-opacity="0" result="BackgroundImageFix"/><feColorMatrix in="SourceAlpha" result="hardAlpha" values="0 0 0 0 0 0 0 0 0 0 0 0 0 0 0 0 0 0 127 0"/><feOffset/><feGaussianBlur/><feComposite in2="hardAlpha" k2="-1" k3="1" operator="out"/><feColorMatrix values="0 0 0 0 0 0 0 0 0 0 0 0 0 0 0 0 0 0 0.059 0"/><feBlend in2="BackgroundImageFix" result="effect_dropShadow_1"/><feBlend in="SourceGraphic" in2="effect_dropShadow_1" result="shape"/></filter></defs><path fill="none" d="M2 0h28v28H2z"/><rect width="28" height="20" x="2" y="4" fill="#fff" rx="3"/><rect width="28" height="20" x="2" y="4" rx="3"/><mask id="Solomon_Islands_svg__a" width="28" height="20" x="2" y="4" mask-type="alpha" maskUnits="userSpaceOnUse"><rect width="28" height="20" x="2" y="4" fill="#fff" rx="3"/><rect width="28" height="20" x="2" y="4" stroke="#979797" stroke-opacity="0" stroke-width="0" rx="3"/></mask><g mask="url(#Solomon_Islands_svg__a)"><path fill="url(#Solomon_Islands_svg__b)" d="M2 4h28v20H2z"/><path d="M2 4h28v20H2z"/></g><g mask="url(#Solomon_Islands_svg__a)"><g filter="url(#Solomon_Islands_svg__c)"><path fill="url(#Solomon_Islands_svg__d)" fill-rule="evenodd" d="M2 4h28L2 24z"/></g><path d="M30 4 2 24V4z"/></g><g mask="url(#Solomon_Islands_svg__a)"><path fill="#2c7442" fill-rule="evenodd" d="M30 4 2 24h28z"/><path d="M2 24h28V4z"/></g><g mask="url(#Solomon_Islands_svg__a)"><path fill="#ffd646" d="M-.774 23.706 29.714 3.142l1.047 1.553L.274 25.259z"/><path d="M-.774 23.706 29.714 3.142l1.047 1.553L.274 25.259z"/></g><g fill="#fff" mask="url(#Solomon_Islands_svg__a)"><mask id="Solomon_Islands_svg__e"><path fill-rule="evenodd" d="m5.98 8.348-.187-1.09.792-.773-1.095-.16L5 5.334l-.49.993-1.095.159.792.773-.187 1.09.98-.515zm4.707 0 .187-1.09-.792-.773 1.095-.16.49-.992.49.993 1.095.159-.793.773.187 1.09-.98-.515zm-3.146.91-.187 1.09.98-.515.979.515-.187-1.09.792-.773-1.095-.16-.49-.992-.49.993-1.095.159zm-3.52 3.09.186-1.09-.792-.773 1.095-.16.49-.992.49.993 1.095.159-.792.773.187 1.09-.98-.515zm6.853-1.09-.187 1.09.98-.515.98.515-.188-1.09.793-.773-1.096-.16-.49-.992-.49.993-1.094.159z" clip-rule="evenodd"/></mask><path fill-rule="evenodd" d="m5.98 8.348-.187-1.09.792-.773-1.095-.16L5 5.334l-.49.993-1.095.159.792.773-.187 1.09.98-.515zm4.707 0 .187-1.09-.792-.773 1.095-.16.49-.992.49.993 1.095.159-.793.773.187 1.09-.98-.515zm-3.146.91-.187 1.09.98-.515.979.515-.187-1.09.792-.773-1.095-.16-.49-.992-.49.993-1.095.159zm-3.52 3.09.186-1.09-.792-.773 1.095-.16.49-.992.49.993 1.095.159-.792.773.187 1.09-.98-.515zm6.853-1.09-.187 1.09.98-.515.98.515-.188-1.09.793-.773-1.096-.16-.49-.992-.49.993-1.094.159z" clip-rule="evenodd" mask="url(#Solomon_Islands_svg__e)"/></g></svg>