<svg xmlns="http://www.w3.org/2000/svg" fill="none" viewBox="0 0 28 28" focusable="false"><rect width="28" height="20" y="4" fill="#fff" rx="3"/><mask id="Solomon_Islands_svg__a" width="28" height="20" x="0" y="4" maskUnits="userSpaceOnUse" style="mask-type:luminance"><rect width="28" height="20" y="4" fill="#fff" rx="3"/></mask><g mask="url(#Solomon_Islands_svg__a)"><path fill="url(#Solomon_Islands_svg__b)" d="M0 4h28v20H0z"/><g filter="url(#Solomon_Islands_svg__c)"><path fill="url(#Solomon_Islands_svg__d)" fill-rule="evenodd" d="M0 4h28L0 24z" clip-rule="evenodd"/></g><path fill="#2C7442" fill-rule="evenodd" d="M28 4 0 24h28z" clip-rule="evenodd"/><path fill="#FFD646" d="M-2.774 23.706 27.715 3.141l1.047 1.553L-1.726 25.26z"/><path fill="#fff" fill-rule="evenodd" d="m2.02 8.348.187-1.09-.792-.773 1.095-.16.49-.992.49.993 1.095.159-.792.773.187 1.09L3 7.833zm6.667 0 .187-1.09-.792-.773 1.095-.16.49-.992.49.993 1.095.159-.793.773.187 1.09-.98-.515zm.187 2.91-.187 1.09.98-.515.98.515-.188-1.09.793-.773-1.096-.16-.49-.992-.49.993-1.094.159zM3 11.833l-.98.515.187-1.09-.792-.773 1.095-.16.49-.992.49.993 1.095.159-.792.773.187 1.09zm2.354-1.485.98-.515.979.515-.187-1.09.792-.773-1.095-.16-.49-.992-.49.993-1.095.159.793.773z" clip-rule="evenodd"/></g><defs><linearGradient id="Solomon_Islands_svg__b" x1="0" x2="0" y1="4" y2="24" gradientUnits="userSpaceOnUse"><stop stop-color="#1DBE4F"/><stop offset="1" stop-color="#159B3F"/></linearGradient><linearGradient id="Solomon_Islands_svg__d" x1="0" x2="0" y1="4" y2="24" gradientUnits="userSpaceOnUse"><stop stop-color="#0660D4"/><stop offset="1" stop-color="#0051BB"/></linearGradient><filter id="Solomon_Islands_svg__c" width="28" height="20" x="0" y="4" color-interpolation-filters="sRGB" filterUnits="userSpaceOnUse"><feFlood flood-opacity="0" result="BackgroundImageFix"/><feColorMatrix in="SourceAlpha" result="hardAlpha" values="0 0 0 0 0 0 0 0 0 0 0 0 0 0 0 0 0 0 127 0"/><feOffset/><feColorMatrix values="0 0 0 0 0 0 0 0 0 0 0 0 0 0 0 0 0 0 0.06 0"/><feBlend in2="BackgroundImageFix" result="effect1_dropShadow_17_4531"/><feBlend in="SourceGraphic" in2="effect1_dropShadow_17_4531" result="shape"/></filter></defs></svg>