<svg xmlns="http://www.w3.org/2000/svg" fill="none" viewBox="0 0 28 28" focusable="false"><defs><linearGradient id="Solomon_Islands_svg__c" x1="0" x2="0" y1="4" y2="24" gradientUnits="userSpaceOnUse"><stop offset="0" stop-color="#1CBD4F"/><stop offset="1" stop-color="#159B3F"/></linearGradient><linearGradient id="Solomon_Islands_svg__e" x1="0" x2="0" y1="4" y2="24" gradientUnits="userSpaceOnUse"><stop offset="0" stop-color="#065FD4"/><stop offset="1" stop-color="#0051BB"/></linearGradient><filter id="Solomon_Islands_svg__a"><feColorMatrix values="0 0 0 0 1 0 0 0 0 1 0 0 0 0 1 0 0 0 1 0"/></filter><filter id="Solomon_Islands_svg__d" width="28" height="20" x="0" y="4" color-interpolation-filters="sRGB" filterUnits="userSpaceOnUse"><feFlood flood-opacity="0" result="BackgroundImageFix"/><feOffset in="SourceAlpha"/><feColorMatrix values="0 0 0 0 0 0 0 0 0 0 0 0 0 0 0 0 0 0 0.06 0"/><feBlend in2="BackgroundImageFix" result="effect_dropShadow_1"/><feBlend in="SourceGraphic" in2="effect_dropShadow_1" result="shape"/></filter></defs><mask id="Solomon_Islands_svg__b" width="28" height="20" x="0" y="4" maskUnits="userSpaceOnUse"><g filter="url(#Solomon_Islands_svg__a)"><rect width="28" height="20" y="4" fill="#FFF" rx="3"/><rect width="28" height="20" y="4" stroke="#969696" stroke-opacity="0" stroke-width="0" rx="3"/></g></mask><path fill="none" d="M0 0H28V28H0z"/><rect width="28" height="20" y="4" fill="#FFF" rx="3"/><rect width="28" height="20" y="4" rx="3"/><g mask="url(#Solomon_Islands_svg__b)"><path fill="url(#Solomon_Islands_svg__c)" d="M0 4H28V24H0z"/><path d="M0 4H28V24H0z"/><g filter="url(#Solomon_Islands_svg__d)"><path fill="url(#Solomon_Islands_svg__e)" fill-rule="evenodd" d="M0 4L28 4L0 24L0 4Z"/><path d="M28 4L0 24L0 4L28 4Z"/></g><path fill="#2C7442" fill-rule="evenodd" d="M0 0L28 20L0 20L0 0Z" transform="matrix(-1 0 0 1 28 4)"/><path d="M28 20L0 20L0 0L28 20Z" transform="matrix(-1 0 0 1 28 4)"/><path fill="#FFD646" d="M0 0H36.775V1.873H0z" transform="rotate(-34 37.382 16.389)"/><path d="M0 0H36.775V1.873H0z" transform="rotate(-34 37.382 16.389)"/><path fill="#FFF" fill-rule="evenodd" d="M2.20746 7.25756L2.02037 8.3484L3.00001 7.83337L3.97965 8.3484L3.79256 7.25756L4.58511 6.48501L3.48983 6.32586L3.00001 5.33337L2.51019 6.32586L1.41492 6.48501L2.20746 7.25756ZM8.87413 7.25756L8.68704 8.3484L9.66668 7.83337L10.6463 8.3484L10.4592 7.25756L11.2518 6.48501L10.1565 6.32586L9.66668 5.33337L9.17686 6.32586L8.08158 6.48501L8.87413 7.25756ZM5.3537 10.3484L5.5408 9.25756L4.74825 8.48501L5.84352 8.32586L6.33334 7.33337L6.82317 8.32586L7.91844 8.48501L7.12589 9.25756L7.31299 10.3484L6.33334 9.83337L5.3537 10.3484ZM2.02037 12.3484L2.20746 11.2576L1.41492 10.485L2.51019 10.3259L3.00001 9.33337L3.48983 10.3259L4.58511 10.485L3.79256 11.2576L3.97965 12.3484L3.00001 11.8334L2.02037 12.3484ZM8.68704 12.3484L8.87413 11.2576L8.08158 10.485L9.17686 10.3259L9.66668 9.33337L10.1565 10.3259L11.2518 10.485L10.4592 11.2576L10.6463 12.3484L9.66668 11.8334L8.68704 12.3484Z"/><path d="M2.20746 7.25756L2.02037 8.3484L3.00001 7.83337L3.97965 8.3484L3.79256 7.25756L4.58511 6.48501L3.48983 6.32586L3.00001 5.33337L2.51019 6.32586L1.41492 6.48501L2.20746 7.25756ZM8.87413 7.25756L8.68704 8.3484L9.66668 7.83337L10.6463 8.3484L10.4592 7.25756L11.2518 6.48501L10.1565 6.32586L9.66668 5.33337L9.17686 6.32586L8.08158 6.48501L8.87413 7.25756ZM5.3537 10.3484L5.5408 9.25756L4.74825 8.48501L5.84352 8.32586L6.33334 7.33337L6.82317 8.32586L7.91844 8.48501L7.12589 9.25756L7.31299 10.3484L6.33334 9.83337L5.3537 10.3484ZM2.02037 12.3484L2.20746 11.2576L1.41492 10.485L2.51019 10.3259L3.00001 9.33337L3.48983 10.3259L4.58511 10.485L3.79256 11.2576L3.97965 12.3484L3.00001 11.8334L2.02037 12.3484ZM8.68704 12.3484L8.87413 11.2576L8.08158 10.485L9.17686 10.3259L9.66668 9.33337L10.1565 10.3259L11.2518 10.485L10.4592 11.2576L10.6463 12.3484L9.66668 11.8334L8.68704 12.3484Z"/></g></svg>