<svg xmlns="http://www.w3.org/2000/svg" fill="none" viewBox="0 0 28 28" focusable="false"><path fill="none" d="M0 0h28v28H0z"/><rect width="28" height="20" y="4" fill="#FFF" rx="3"/><rect width="28" height="20" y="4" rx="3"/><mask id="Somalia_svg__a" width="28" height="20" x="0" y="4" mask-type="alpha" maskUnits="userSpaceOnUse"><rect width="28" height="20" y="4" fill="#FFF" rx="3"/><rect width="28" height="20" y="4" stroke="#979797" stroke-opacity="0" stroke-width="0" rx="3"/></mask><g mask="url(#Somalia_svg__a)"><rect width="28" height="20" y="4" fill="#5D9FE9" rx="2"/><rect width="28" height="20" y="4" rx="2"/></g><g mask="url(#Somalia_svg__a)"><path fill="#FFF" fill-rule="evenodd" d="m14 16.34-3.53 2.51 1.3-4.13-3.48-2.58 4.33-.04L14 8l1.37 4.1 4.33.04-3.48 2.58 1.3 4.13z"/><path d="m10.47 18.85 1.3-4.13-3.48-2.58 4.33-.04L14 8l1.37 4.1 4.33.04-3.48 2.58 1.3 4.13L14 16.34z"/></g></svg>