<svg xmlns="http://www.w3.org/2000/svg" fill="none" viewBox="0 0 28 28" focusable="false"><defs><filter id="South_Sudan_svg__a"><feColorMatrix values="0 0 0 0 1 0 0 0 0 1 0 0 0 0 1 0 0 0 1 0"/></filter></defs><mask id="South_Sudan_svg__b" width="28" height="20" x="0" y="4" maskUnits="userSpaceOnUse"><g filter="url(#South_Sudan_svg__a)"><rect width="28" height="20" y="4" fill="#FFF" rx="3"/><rect width="27.5" height="19.5" x=".25" y="4.25" stroke="#F5F5F5" stroke-width=".5" rx="2.75"/></g></mask><path fill="none" d="M0 0H28V28H0z"/><rect width="28" height="20" y="4" fill="#FFF" rx="3"/><rect width="27.5" height="19.5" x=".25" y="4.25" stroke="#D6D8DD" stroke-width=".5" rx="2.75"/><g mask="url(#South_Sudan_svg__b)"><path fill="#427D32" fill-rule="evenodd" d="M0 24L28 24L28 17.3334L0 17.3334L0 24Z"/><path d="M28 24L28 17.3334L0 17.3334L0 24L28 24Z"/><path fill="#000" fill-rule="evenodd" d="M0 10.6667L28 10.6667L28 4L0 4L0 10.6667Z"/><path d="M28 10.6667L28 4L0 4L0 10.6667L28 10.6667Z"/><path fill="#C92F29" fill-rule="evenodd" d="M0 16.5L29 16.5L29 11.5L0 11.5L0 16.5Z"/><path fill="#1E49A9" fill-rule="evenodd" d="M0 4L13.3333 14L0 24L0 4Z"/><path fill="#F8DD4C" fill-rule="evenodd" d="M3.67354 2.07295L5.85317 2.07295L4.08981 3.3541L4.76336 5.42705L3 4.1459L1.23664 5.42705L1.91019 3.3541L0.146831 2.07295L2.32646 2.07295L3 0L3.67354 2.07295Z" transform="rotate(-18.534 36.989 2.89)"/></g></svg>