<svg xmlns="http://www.w3.org/2000/svg" fill="none" viewBox="0 0 30 28" focusable="false"><path fill="none" d="M1 0h28v28H1z"/><rect width="28" height="20" x="1" y="4" fill="#06a86e" rx="3"/><rect width="28" height="20" x="1" y="4" rx="3"/><mask id="South_Africa_svg__a" width="28" height="20" x="1" y="4" mask-type="alpha" maskUnits="userSpaceOnUse"><rect width="28" height="20" x="1" y="4" fill="#06a86e" rx="3"/><rect width="28" height="20" x="1" y="4" stroke="#979797" stroke-opacity="0" stroke-width="0" rx="3"/></mask><g mask="url(#South_Africa_svg__a)"><path fill="#ffbf2e" fill-rule="evenodd" d="M1 6.66 10.33 14 1 21.33z"/><path d="M10.33 14 1 21.33V6.66z"/></g><g mask="url(#South_Africa_svg__a)"><path fill="#262626" fill-rule="evenodd" d="m-.34 7 9 7-9 7z"/><path d="m8.66 14-9 7V7z"/></g><g mask="url(#South_Africa_svg__a)"><path fill="#fff" fill-rule="evenodd" d="M13 12 3.66 4H29v8z"/><path d="M3.66 4H29v8H13z"/></g><g mask="url(#South_Africa_svg__a)"><path fill="#f44e46" fill-rule="evenodd" d="M13.33 10.66 5.33 4H29v6.66z"/><path d="M5.33 4H29v6.66H13.33z"/></g><g mask="url(#South_Africa_svg__a)"><path fill="#fff" fill-rule="evenodd" d="M3.66 24H29v-8H13z"/><path d="M29 24v-8H13l-9.34 8z"/></g><g mask="url(#South_Africa_svg__a)"><path fill="#072cb4" fill-rule="evenodd" d="M5.33 24H29v-6.67H13.33z"/><path d="M29 24v-6.67H13.33l-8 6.67z"/></g></svg>