<svg xmlns="http://www.w3.org/2000/svg" fill="none" viewBox="0 0 29 28" focusable="false"><path fill="none" d="M0 0h28v28H0z"/><rect width="28" height="20" y="4" fill="#FFF" rx="3"/><rect width="27.5" height="19.5" x=".25" y="4.25" stroke="#D6D8DD" stroke-width=".5" rx="3"/><mask id="South_Sudan_svg__a" width="28" height="20" x="0" y="4" mask-type="alpha" maskUnits="userSpaceOnUse"><rect width="28" height="20" y="4" fill="#FFF" rx="3"/><rect width="27.5" height="19.5" x=".25" y="4.25" stroke="#F5F5F5" stroke-width=".5" rx="3"/></mask><g mask="url(#South_Sudan_svg__a)"><path fill="#427D32" fill-rule="evenodd" d="M0 24h28v-6.67H0z"/><path d="M28 24v-6.67H0V24z"/></g><g mask="url(#South_Sudan_svg__a)"><path fill="#000" fill-rule="evenodd" d="M0 10.66h28V4H0z"/><path d="M28 10.66V4H0v6.66z"/></g><g mask="url(#South_Sudan_svg__a)"><path fill="#C92F29" fill-rule="evenodd" d="M0 16.5h29v-5H0z"/></g><g mask="url(#South_Sudan_svg__a)"><path fill="#1E49A9" fill-rule="evenodd" d="m0 4 13.33 10L0 24z"/></g><g mask="url(#South_Sudan_svg__a)"><path fill="#F8DD4C" d="m3.84 10.95.02 2.18-2.07.69 2.08.66.02 2.17 1.27-1.77 2.08.65-1.3-1.75 1.26-1.77-2.06.69z"/></g></svg>