<svg xmlns="http://www.w3.org/2000/svg" fill="none" viewBox="0 0 28 28" focusable="false"><defs><linearGradient id="South_Georgia_and_the_South_Sandwich_Islands_svg__c" x1="0" x2="0" y1="4" y2="14" gradientUnits="userSpaceOnUse"><stop offset="0" stop-color="#FFF"/><stop offset="1" stop-color="#EFEFEF"/></linearGradient><linearGradient id="South_Georgia_and_the_South_Sandwich_Islands_svg__d" x1="0" x2="0" y1="4" y2="13.333" gradientUnits="userSpaceOnUse"><stop offset="0" stop-color="#FF2E3A"/><stop offset="1" stop-color="#FC0D1B"/></linearGradient><filter id="South_Georgia_and_the_South_Sandwich_Islands_svg__a"><feColorMatrix values="0 0 0 0 1 0 0 0 0 1 0 0 0 0 1 0 0 0 1 0"/></filter></defs><mask id="South_Georgia_and_the_South_Sandwich_Islands_svg__b" width="28" height="20" x="0" y="4" maskUnits="userSpaceOnUse"><g filter="url(#South_Georgia_and_the_South_Sandwich_Islands_svg__a)"><rect width="28" height="20" y="4" fill="#FFF" rx="3"/><rect width="28" height="20" y="4" stroke="#969696" stroke-opacity="0" stroke-width="0" rx="3"/></g></mask><path fill="none" d="M0 0H28V28H0z"/><rect width="28" height="20" y="4" fill="#FFF" rx="3"/><rect width="28" height="20" y="4" rx="3"/><g mask="url(#South_Georgia_and_the_South_Sandwich_Islands_svg__b)"><path fill="#0A17A7" d="M0 4H28V24H0z"/><path d="M0 4H28V24H0z"/><path fill="#FF2E3B" fill-rule="evenodd" d="M4.66667 8L0 4L0.666667 4L5.33333 7.33333L6.66667 7.33333L12 4L12 4.49513C12 4.60278 11.948 4.7038 11.8604 4.76637L7.33333 8L7.33333 9.33333L11.5475 12.9455C11.7029 13.0787 11.6087 13.3333 11.404 13.3333L11.404 13.3333C11.358 13.3333 11.3132 13.319 11.2758 13.2923L6.66667 10L5.33333 10L0 13.3333L0 12.6667L4.66667 9.33333L4.66667 8Z"/><path fill="#FFF" fill-rule="evenodd" d="M0.88031 3.33333L-1.80217 3.33333L4 8.30662L4 8.99026L-0.666667 12.3236L-0.666667 14.5362L5.52453 10.6667L6.45302 10.6667L10.8883 13.8348C10.9655 13.8898 11.047 13.9311 11.1329 13.9587C11.2189 13.9862 11.3092 14 11.404 14C11.5074 14 11.6052 13.9839 11.6975 13.9518C11.7795 13.9232 11.8572 13.882 11.9304 13.828C11.9985 13.7777 12.0574 13.7203 12.1071 13.6558C12.161 13.5858 12.2039 13.5074 12.236 13.4206C12.2681 13.3339 12.2865 13.2464 12.2911 13.1582C12.2954 13.0769 12.2881 12.995 12.269 12.9125C12.2486 12.8238 12.2165 12.742 12.1728 12.6669C12.1237 12.5824 12.0599 12.5066 11.9813 12.4393L8 9.02671L8 8.34308L12.2479 5.30886C12.3136 5.26194 12.3721 5.2088 12.4234 5.14944C12.4748 5.09008 12.5189 5.0245 12.5558 4.95271C12.5928 4.88091 12.6205 4.80688 12.639 4.7306C12.6574 4.65435 12.6667 4.57586 12.6667 4.49513L12.6667 2.79717L6.47547 6.66667L5.54698 6.66667L0.88031 3.33333ZM5.33333 7.33333L2.81303 5.53312L0.666667 4L0 4L0.413502 4.35443L0.666667 4.57143L2.40155 6.05847L4.66667 8L4.66667 9.33333L0 12.6667L0 13.3333L0.329218 13.1276L0.666667 12.9167L1.70915 12.2651L5.33333 10L6.66667 10L9.18697 11.8002L10.9601 13.0667L11.2758 13.2923C11.3132 13.319 11.358 13.3333 11.404 13.3333C11.6087 13.3333 11.7029 13.0787 11.5475 12.9455L11.2529 12.693L9.59845 11.2749L7.33333 9.33333L7.33333 8L10.6616 5.62265L11.8604 4.76637C11.948 4.7038 12 4.60278 12 4.49513L12 4L11.3428 4.41077L11.3333 4.41667L10.2909 5.06822L6.66667 7.33333L5.33333 7.33333Z"/><path fill="url(#South_Georgia_and_the_South_Sandwich_Islands_svg__c)" fill-rule="evenodd" d="M0 7.33333L0 10L4.66667 10L4.66667 13.3333C4.66667 13.7015 4.96514 14 5.33333 14L6.66667 14C7.03486 14 7.33333 13.7015 7.33333 13.3333L7.33333 10L12 10C12.3682 10 12.6667 9.70152 12.6667 9.33333L12.6667 8C12.6667 7.63181 12.3682 7.33333 12 7.33333L7.33333 7.33333L7.33333 4L4.66667 4L4.66667 7.33333L0 7.33333Z"/><path d="M0 10L4.66667 10L4.66667 13.3333C4.66667 13.7015 4.96514 14 5.33333 14L6.66667 14C7.03486 14 7.33333 13.7015 7.33333 13.3333L7.33333 10L12 10C12.3682 10 12.6667 9.70152 12.6667 9.33333L12.6667 8C12.6667 7.63181 12.3682 7.33333 12 7.33333L7.33333 7.33333L7.33333 4L4.66667 4L4.66667 7.33333L0 7.33333L0 10Z"/><path fill="url(#South_Georgia_and_the_South_Sandwich_Islands_svg__d)" fill-rule="evenodd" d="M0 8L5.33333 8L5.33333 7.33333L5.33333 4L6.66667 4L6.66667 7.33333L6.66667 8L12 8L12 9.33333L6.66667 9.33333L6.66667 10L6.66667 13.3333L5.33333 13.3333L5.33333 10L5.33333 9.33333L0 9.33333L0 8Z"/><path d="M5.33333 8L5.33333 7.33333L5.33333 4L6.66667 4L6.66667 7.33333L6.66667 8L12 8L12 9.33333L6.66667 9.33333L6.66667 10L6.66667 13.3333L5.33333 13.3333L5.33333 10L5.33333 9.33333L0 9.33333L0 8L5.33333 8Z"/><path fill="#8E361C" fill-rule="evenodd" d="M18.6747 10.2113L18.403 10.9924L20.6785 10.9924L20.3728 10.2113L18.6747 10.2113Z"/><path fill="#C8AA41" d="M0.294458 0C0.294458 0 0.386034 0.129741 0.390039 0.160841C0.394304 0.191984 0.80519 0.212746 1.04998 0.783438C1.18696 1.0844 1.04998 0.908009 1.04998 0.908009L1.04171 1.0533C1.04171 1.0533 1.21207 1.25562 1.14987 1.3646C1.08737 1.47353 1.10822 1.22447 1.00863 1.22969C0.909042 1.23486 0.96297 1.49946 0.96297 1.49946C0.96297 1.49946 0.954701 1.53061 0.925583 1.54616C0.88393 1.54099 0.896507 1.4476 0.859119 1.43722C0.82173 1.42684 0.78865 1.65513 0.78865 1.65513C0.78865 1.65513 0.726449 1.7589 0.672219 1.43201C0.701337 1.0844 0.879966 1.15185 0.879966 0.923516C0.879966 0.695265 0.722142 0.518874 0.676526 0.513662C0.630867 0.508493 0.647409 0.705646 0.647409 0.705646C0.647409 0.705646 0.622596 0.799029 0.606013 0.799029C0.589472 0.799029 0.697332 0.819792 0.680791 1.07919C0.643403 1.39053 0.614327 1.00656 0.54782 1.02216C0.481357 1.03771 0.531279 1.30748 0.55609 1.33862C0.580944 1.36976 0.527016 1.49946 0.38177 1.1674C0.369235 1.00656 0.35265 1.20893 0.323575 1.19854C0.27391 1.0688 0.282181 0.975419 0.35265 0.856103C0.456546 0.736744 0.523009 0.617429 0.518745 0.555186C0.514739 0.492901 0.460508 0.352823 0.386033 0.352823C0.311299 0.352823 0.390039 0.524045 0.386033 0.581161C0.381768 0.638192 0.257369 0.845724 0.257369 0.845724C0.257369 0.845724 0.170059 1.02215 0.178329 1.02732C0.1866 1.03254 0.170059 1.05847 0.128708 0.876866C0.0870549 0.695265 0.0370885 0.996181 0.0370885 0.996181C0.0370885 0.996181 -0.0208036 0.773099 0.103595 0.638191C0.00827154 0.65374 0 0.607048 0 0.607048C0 0.544805 0.128707 0.518876 0.145248 0.409941C0.161788 0.300919 0.0122766 0.23872 0.0122766 0.23872C0.0122766 0.23872 0.0747782 0.12974 0.248799 0.342441C0.253106 0.207575 0.182593 0.114147 0.182593 0.114147C0.240528 0.0813244 0.286187 0.0847704 0.294458 0Z" transform="matrix(1 0 0 -1 18.605 7.698)"/><path fill="#C8AA41" d="M0.718688 0C0.718688 0 0.641067 0.143999 0.637621 0.172342C0.633916 0.200641 0.255852 0.136547 0.07705 0.712925C-0.0393369 0.986749 0.07705 0.82621 0.07705 0.82621L0.0840728 0.958449C0.0840728 0.958449 -0.0397239 1.14772 0.0131283 1.24687C0.0660237 1.34603 0.0442712 1.11942 0.112286 1.11894C0.196798 1.12364 0.151053 1.36447 0.151053 1.36447C0.151053 1.36447 0.158073 1.39277 0.182755 1.40694C0.217903 1.4022 0.232464 1.26019 0.264167 1.25071C0.295827 1.24128 0.361427 1.41788 0.381974 1.45419C0.411092 1.4594 0.409973 1.60047 0.45589 1.30309C0.431338 0.986748 0.221652 1.04813 0.221652 0.840381C0.221652 0.632677 0.35544 0.472139 0.39425 0.467401C0.43306 0.462706 0.419062 0.642067 0.419062 0.642067C0.419062 0.642067 0.440211 0.727052 0.454168 0.727052C0.468425 0.727052 0.33093 0.694102 0.345188 0.93015C0.376848 1.15116 0.44706 0.915891 0.503531 0.930106C0.560044 0.944277 0.496983 1.16378 0.513222 1.19734C0.51697 1.23085 0.599974 1.37485 0.632236 1.05709C0.64279 0.910722 0.706669 1.18308 0.731221 1.17361C0.773736 1.05563 0.712657 0.897972 0.652741 0.789382C0.564611 0.680835 0.524636 0.56182 0.52834 0.505177C0.531786 0.448535 0.552592 0.37815 0.616256 0.37815C0.679575 0.37815 0.637622 0.476877 0.641068 0.528782C0.644471 0.58073 0.750346 0.748848 0.750346 0.748848C0.771151 0.790286 0.753749 0.867819 0.775717 0.903657C0.810263 0.903227 0.824521 0.963144 0.859626 0.797911C0.89499 0.632677 0.937246 0.906501 0.937246 0.906501C0.937246 0.906501 0.986609 0.703449 0.880732 0.58073C0.961755 0.594858 0.968906 0.552387 0.968906 0.552387C0.968906 0.495744 0.930397 0.472139 0.916096 0.373024C0.901839 0.273867 0.958352 0.217183 0.958352 0.217183C0.958352 0.217183 0.905545 0.118067 0.757455 0.311643C0.753751 0.188882 0.813967 0.103896 0.813967 0.103896C0.764302 0.0739592 0.725795 0.0771462 0.718688 0Z" transform="matrix(1 0 0 -1 17.611 7.698)"/><path fill="#8E361C" d="M0.993813 2.92522C0.993813 2.92522 1.17843 3.12888 1.37928 2.9456C1.28853 2.60656 0.96129 2.73518 0.96129 2.73518C0.96129 2.73518 0.972102 2.56551 0.939581 2.4841C1.00492 2.4225 1.05886 2.21936 1.05886 2.21936C1.05886 2.21936 1.39557 2.32119 1.4663 2.13791C1.59526 2.16018 1.68886 2.13791 1.68886 2.13791C1.68886 2.13791 1.94963 2.21936 2.04181 2.21936C2.13425 2.21936 2.42728 2.12434 2.45438 2.0565C2.48177 1.98861 2.57934 1.53383 2.64468 1.54064C2.70976 1.54745 2.4872 1.43205 2.42728 1.54745C2.36763 1.66284 2.38391 1.39811 2.38391 1.39811C2.38391 1.39811 2.56852 1.15379 2.59019 1.09952C2.6119 1.04529 2.47635 0.604161 2.57934 0.298506C2.48892 0.288168 2.48177 0.169756 2.48177 0.169756C2.47665 0.0353206 2.34053 0 2.34053 0L2.30801 0.183325L2.21557 0.115181L2.25352 0.257843C2.25352 0.257843 2.37848 0.638017 2.38934 0.760004C2.40019 0.882292 2.27519 1.09952 2.17763 1.09952C2.07976 1.09952 2.00929 0.712579 2.00929 0.712579C2.00929 0.712579 1.96049 0.420836 1.97677 0.393742C1.99301 0.366606 1.91142 0.488592 1.91142 0.488592C1.91142 0.488592 1.86805 0.312073 1.83553 0.257843C1.80301 0.203655 1.73223 0.183325 1.73223 0.183325C1.73223 0.183325 1.68343 0.359843 1.69971 0.427599C1.71595 0.495355 1.96591 0.760004 1.9442 0.950092C1.92224 1.14018 1.9442 1.09271 1.93852 1.09952C1.93309 1.10628 1.80839 1.24201 1.80301 1.31665C1.79758 1.39134 1.64006 1.22163 1.43377 1.27595C1.37045 1.13802 1.363 0.794248 1.363 0.794248C1.363 0.794248 1.34134 0.380174 1.38471 0.332405C1.42835 0.28498 1.27629 0.183325 1.27629 0.183325L1.16757 0C1.16757 0 1.12963 0.115181 1.12963 0.108418C1.12963 0.101655 1.05343 0.0406619 1.05343 0.0406619L1.0971 0.176562C1.09426 0.279251 1.20268 0.559923 1.20268 0.797435C1.20268 1.03495 1.21638 1.28952 1.21638 1.28952C1.21638 1.28952 1.01548 1.30313 1.02091 1.04529C1.02633 0.787098 0.972103 0.77353 0.982958 0.699011C0.993813 0.624449 1.04804 0.414073 1.03176 0.352735C1.01548 0.291742 0.950435 0.271412 0.950435 0.271412L0.934196 0.237512C0.934196 0.237512 0.733298 0.121987 0.738725 0.074562C0.744153 0.027094 0.733299 0.210418 0.733299 0.210418L0.722185 0.407268C0.722185 0.407268 0.841717 0.502161 0.841717 0.739673C0.841717 0.977185 0.814321 1.01104 0.819748 1.06527C0.825176 1.11985 0.85257 1.3167 0.847143 1.33703C0.841716 1.3574 0.733298 1.28275 0.700476 1.28275C0.667955 1.28275 0.760436 1.42524 0.771248 1.52707C0.782102 1.6289 0.662527 1.43205 0.564964 1.54745C0.610321 1.67275 0.678808 1.71035 0.689663 1.80538C0.700475 1.90035 0.613768 1.72392 0.537569 1.79176C0.543858 1.88282 0.619194 1.96143 0.619194 1.96143C0.619194 1.96143 0.557253 1.97095 0.532141 1.96143C0.483381 1.98181 0.586674 2.07687 0.592058 2.2126C0.597485 2.34833 0.532141 2.40265 0.532141 2.40941C0.532141 2.41617 0.423723 2.53161 0.407484 2.57908C0.391202 2.62659 0.391203 2.6809 0.391203 2.6809C0.391203 2.6809 0.21171 2.518 0 2.86414C0.19405 3.07112 0.402055 2.91846 0.402055 2.91846C0.402055 2.91846 0.456243 3.1085 0.705902 3.09494C0.955863 3.08137 1.00467 2.90489 0.993813 2.92522Z" transform="matrix(1 0 0 -1 17.925 10.645)"/><ellipse cx="16.263" cy="14.932" fill="#D9D9DB" rx=".985" ry="2.683"/><ellipse cx="22.648" cy="14.932" fill="#010101" rx=".985" ry="2.683"/><path fill="#FFF" fill-rule="evenodd" d="M21.1879 13.7433L17.7238 13.7433C17.7238 15.5433 17.7238 18.1244 19.5238 18.1244C21.3238 18.1244 21.1879 15.4754 21.1879 13.7433Z"/><path fill="#62C977" fill-rule="evenodd" d="M20.6445 13.7433L18.2672 13.7433L19.4558 17.649L20.6445 13.7433Z"/><path fill="#EEC543" d="M21.4586 19.9923C20.9982 19.4129 20.2874 19.0413 19.4898 19.0413C18.6922 19.0413 17.9814 19.4129 17.521 19.9923L16.4735 19.9923C17.0389 18.9027 18.1774 18.1583 19.4898 18.1583C20.8022 18.1583 21.9407 18.9027 22.5062 19.9923L21.4586 19.9923Z"/><path fill="#EEC543" d="M17.6063 18.9266C17.9646 19.6885 17.9249 20.4615 17.5175 20.6531C17.1101 20.8447 16.4894 20.3823 16.1311 19.6204C15.7728 18.8585 15.8125 18.0855 16.2199 17.8939C16.6273 17.7023 17.248 18.1647 17.6063 18.9266Z"/><path fill="#EEC543" d="M17.6063 18.9266C17.9646 19.6885 17.9249 20.4615 17.5175 20.6531 17.1101 20.8447 16.4894 20.3823 16.1311 19.6204 15.7728 18.8585 15.8125 18.0855 16.2199 17.8939 16.6273 17.7023 17.248 18.1647 17.6063 18.9266ZM21.2933 18.9266C20.935 19.6885 20.9747 20.4615 21.3821 20.6531 21.7895 20.8447 22.4102 20.3823 22.7685 19.6204 23.1268 18.8585 23.0871 18.0855 22.6797 17.8939 22.2723 17.7023 21.6516 18.1647 21.2933 18.9266Z"/><path fill="#EEC543" d="M21.2933 18.9266C20.935 19.6885 20.9747 20.4615 21.3821 20.6531C21.7895 20.8447 22.4102 20.3823 22.7685 19.6204C23.1268 18.8585 23.0871 18.0855 22.6797 17.8939C22.2723 17.7023 21.6516 18.1647 21.2933 18.9266Z"/><path fill="#646263" fill-rule="evenodd" d="M18.3749 11.0625L18.0635 13.7093L20.9842 13.7093L20.6728 11.0625C20.6567 10.9257 20.5408 10.8226 20.403 10.8226L18.6447 10.8226C18.5069 10.8226 18.391 10.9257 18.3749 11.0625Z"/><path fill="#FFF" fill-rule="evenodd" d="M18.3194 10.8365L17.2134 9.67388C17.1328 9.58917 17.0071 9.56551 16.9012 9.61513L16.3838 9.85767C16.2024 9.94272 16.1723 10.1882 16.3278 10.3146L17.0034 10.8635C17.052 10.9029 17.0854 10.9579 17.0981 11.0192L17.4283 12.6101C17.4435 12.6831 17.488 12.7467 17.5514 12.7859L18.0148 13.0729C18.1063 13.1295 18.2225 13.1268 18.3113 13.0661L18.6601 12.8274C18.7511 12.7651 18.7955 12.6541 18.7724 12.5462L18.6311 11.8871C18.6169 11.8208 18.5584 11.7735 18.4907 11.7735C18.4068 11.7735 18.3475 11.702 18.3475 11.6185L18.403 11.0455C18.403 10.9685 18.3726 10.8925 18.3194 10.8365Z"/><path fill="#FFF" fill-rule="evenodd" d="M2.32765 1.3045L1.22171 0.141841C1.14113 0.0571297 1.01539 0.0334656 0.909529 0.0830882L0.392107 0.32563C0.210677 0.410675 0.180581 0.656153 0.336094 0.782507L1.01174 1.33147C1.06028 1.37091 1.09372 1.42588 1.10643 1.48712L1.43664 3.07809C1.45179 3.15109 1.49627 3.21465 1.55965 3.25389L2.02314 3.54082C2.11459 3.59742 2.23082 3.59477 2.31958 3.53403L2.66841 3.29536C2.75941 3.2331 2.80376 3.12201 2.78065 3.0142L2.6394 2.35503C2.62521 2.2888 2.56669 2.24149 2.49896 2.24149C2.41512 2.24149 2.35578 2.16998 2.35578 2.08641L2.4113 1.51343C2.4113 1.43644 2.38088 1.36046 2.32765 1.3045Z" transform="matrix(-1 0 0 1 22.988 9.532)"/></g></svg>