<svg xmlns="http://www.w3.org/2000/svg" width="28" height="28" fill="none"><rect width="27.5" height="19.5" x=".25" y="4.25" fill="#fff" stroke="#D6D8DD" stroke-width=".5" rx="2.75"/><mask id="a" width="28" height="20" x="0" y="4" maskUnits="userSpaceOnUse" style="mask-type:luminance"><rect width="27.5" height="19.5" x=".25" y="4.25" fill="#fff" stroke="#fff" stroke-width=".5" rx="2.75"/></mask><g mask="url(#a)"><path fill="#427D32" fill-rule="evenodd" d="M0 24h28v-6.667H0V24Z" clip-rule="evenodd"/><path fill="#000" fill-rule="evenodd" d="M0 10.667h28V4H0v6.667Z" clip-rule="evenodd"/><path fill="#C92F29" fill-rule="evenodd" d="M0 16.5h29v-5H0v5Z" clip-rule="evenodd"/><path fill="#1E49A9" fill-rule="evenodd" d="m0 4 13.333 10L0 24V4Z" clip-rule="evenodd"/><path fill="#F8DD4C" d="m3.844 10.954 1.298 1.75 2.067-.692-1.265 1.775L7.24 15.54l-2.079-.655-1.264 1.776-.02-2.18-2.08-.654 2.067-.693-.02-2.18Z"/></g></svg>