<svg xmlns="http://www.w3.org/2000/svg" fill="none" viewBox="0 0 28 28" focusable="false"><rect width="28" height="20" y="4" fill="#fff" rx="3"/><mask id="Spain_svg__a" width="28" height="20" x="0" y="4" maskUnits="userSpaceOnUse" style="mask-type:luminance"><rect width="28" height="20" y="4" fill="#fff" rx="3"/></mask><g mask="url(#Spain_svg__a)"><path fill="#DD172C" fill-rule="evenodd" d="M0 9.333h28V4H0v5.333M0 24h28v-5.333H0z" clip-rule="evenodd"/><path fill="#FFD133" fill-rule="evenodd" d="M0 18.667h28V9.333H0v9.334" clip-rule="evenodd"/><path fill="#FFEDB1" fill-rule="evenodd" d="M7.333 13.333h1.334V14H7.333v-.667" clip-rule="evenodd"/><path stroke="#A41517" stroke-width=".667" d="M6.059 13.361A.333.333 0 0 1 6.391 13h1.884c.195 0 .349.167.333.361l-.172 2.055a1 1 0 0 1-.996.917h-.213a1 1 0 0 1-.997-.917l-.171-2.055Z"/><path fill="#A41517" fill-rule="evenodd" d="M6 14h2.667v.667H8L7.333 16l-.666-1.333H6z" clip-rule="evenodd"/><rect width="1.333" height="4.667" x="4" y="12" fill="#A41517" rx=".667"/><rect width="1.333" height="4.667" x="9.333" y="12" fill="#A41517" rx=".667"/><path fill="#A41517" d="M6 11.733c0-.589.478-1.066 1.067-1.066H7.6c.59 0 1.067.477 1.067 1.066 0 .148-.12.267-.267.267H6.267A.267.267 0 0 1 6 11.733"/></g></svg>