<svg xmlns="http://www.w3.org/2000/svg" fill="none" viewBox="0 0 28 28" focusable="false"><path fill="none" d="M0 0h28v28H0z"/><rect width="28" height="20" y="4" fill="#fff" rx="3"/><rect width="28" height="20" y="4" rx="3"/><mask id="Sweden_svg__a" width="28" height="20" x="0" y="4" mask-type="alpha" maskUnits="userSpaceOnUse"><rect width="28" height="20" y="4" fill="#fff" rx="3"/><rect width="28" height="20" y="4" stroke="#979797" stroke-opacity="0" stroke-width="0" rx="3"/></mask><g mask="url(#Sweden_svg__a)"><path fill="#157cbb" d="M0 4h28v20H0z"/><path d="M0 4h28v20H0z"/></g><g mask="url(#Sweden_svg__a)"><path fill="#ffd34d" fill-rule="evenodd" d="M0 16h8v8h4v-8h16v-4H12V4H8v8H0z"/><path d="M8 16v8h4v-8h16v-4H12V4H8v8H0v4z"/></g></svg>