<svg xmlns="http://www.w3.org/2000/svg" fill="none" viewBox="0 0 28 28" focusable="false"><path fill="none" d="M0 0h28v28H0z"/><rect width="28" height="20" y="4" fill="#fff" rx="3"/><rect width="28" height="20" y="4" rx="3"/><mask id="Switzerland_svg__a" width="28" height="20" x="0" y="4" mask-type="alpha" maskUnits="userSpaceOnUse"><rect width="28" height="20" y="4" fill="#fff" rx="3"/><rect width="28" height="20" y="4" stroke="#979797" stroke-opacity="0" stroke-width="0" rx="3"/></mask><g mask="url(#Switzerland_svg__a)"><path fill="red" d="M0 4h28v20H0z"/><path d="M0 4h28v20H0z"/></g><g mask="url(#Switzerland_svg__a)"><path fill="#fff" fill-rule="evenodd" d="M12 16H8.33c-.19 0-.33-.15-.33-.34v-3.33c0-.19.14-.33.33-.33H12V8.33c0-.19.14-.33.33-.33h3.33c.19 0 .34.14.34.33V12h3.66c.19 0 .34.14.34.33v3.33c0 .19-.15.34-.34.34H16v3.66c0 .19-.15.34-.34.34h-3.33c-.19 0-.33-.15-.33-.34z"/><path d="M8.33 16c-.19 0-.33-.15-.33-.34v-3.33c0-.19.14-.33.33-.33H12V8.33c0-.19.14-.33.33-.33h3.33c.19 0 .34.14.34.33V12h3.66c.19 0 .34.14.34.33v3.33c0 .19-.15.34-.34.34H16v3.66c0 .19-.15.34-.34.34h-3.33c-.19 0-.33-.15-.33-.34V16z"/></g></svg>