<svg xmlns="http://www.w3.org/2000/svg" fill="none" viewBox="0 0 28 28" focusable="false"><rect width="28" height="20" y="4" fill="#fff" rx="3"/><mask id="Switzerland_svg__a" width="28" height="20" x="0" y="4" maskUnits="userSpaceOnUse" style="mask-type:luminance"><rect width="28" height="20" y="4" fill="#fff" rx="3"/></mask><g mask="url(#Switzerland_svg__a)"><path fill="red" d="M0 4h28v20H0z"/><path fill="#fff" fill-rule="evenodd" d="M12 16H8.333A.333.333 0 0 1 8 15.667v-3.334c0-.184.15-.333.333-.333H12V8.333c0-.184.15-.333.333-.333h3.334c.184 0 .333.15.333.333V12h3.667c.184 0 .333.15.333.333v3.334c0 .184-.15.333-.333.333H16v3.667c0 .184-.15.333-.333.333h-3.334a.333.333 0 0 1-.333-.333z" clip-rule="evenodd"/></g></svg>