<svg xmlns="http://www.w3.org/2000/svg" fill="none" viewBox="0 0 28 28" focusable="false"><rect width="27.5" height="19.5" x=".25" y="4.25" fill="#fff" stroke="#d6d8dd" stroke-width=".5" rx="2.75"/><mask id="Syrian_Arab_Republic_svg__a" width="28" height="20" x="0" y="4" maskUnits="userSpaceOnUse" style="mask-type:luminance"><rect width="27.5" height="19.5" x=".25" y="4.25" fill="#fff" stroke="#fff" stroke-width=".5" rx="2.75"/></mask><g fill-rule="evenodd" clip-rule="evenodd" mask="url(#Syrian_Arab_Republic_svg__a)"><path fill="#262626" d="M0 24h28v-6.667H0z"/><path fill="#e32139" d="M0 10.667h28V4H0z"/><path fill="#128a49" d="m9.333 15.093-1.567 1.064.527-1.82-1.496-1.161 1.894-.06.642-1.783.643 1.783 1.893.06-1.496 1.162.528 1.82zM18.667 15.093l-1.568 1.064.528-1.82-1.496-1.161 1.893-.06.643-1.783.642 1.783 1.894.06-1.497 1.162.528 1.82z"/></g></svg>