<svg xmlns="http://www.w3.org/2000/svg" fill="none" viewBox="0 0 28 28" focusable="false"><defs><filter id="Syrian_Arab_Republic_svg__a"><feColorMatrix values="0 0 0 0 1 0 0 0 0 1 0 0 0 0 1 0 0 0 1 0"/></filter></defs><mask id="Syrian_Arab_Republic_svg__b" width="28" height="20" x="0" y="4" maskUnits="userSpaceOnUse"><g filter="url(#Syrian_Arab_Republic_svg__a)"><rect width="28" height="20" y="4" fill="#FFF" rx="3"/><rect width="27.5" height="19.5" x=".25" y="4.25" stroke="#F5F5F5" stroke-width=".5" rx="2.75"/></g></mask><path fill="none" d="M0 0H28V28H0z"/><rect width="28" height="20" y="4" fill="#FFF" rx="3"/><rect width="27.5" height="19.5" x=".25" y="4.25" stroke="#D6D8DD" stroke-width=".5" rx="2.75"/><g mask="url(#Syrian_Arab_Republic_svg__b)"><path fill="#262626" fill-rule="evenodd" d="M0 24L28 24L28 17.3334L0 17.3334L0 24Z"/><path d="M28 24L28 17.3334L0 17.3334L0 24L28 24Z"/><path fill="#E32139" fill-rule="evenodd" d="M0 10.6667L28 10.6667L28 4L0 4L0 10.6667Z"/><path d="M28 10.6667L28 4L0 4L0 10.6667L28 10.6667Z"/><path fill="#128A49" fill-rule="evenodd" d="M9.33335 15.0934L7.76593 16.1574L8.29353 14.3379L6.7972 13.176L8.69071 13.1155L9.33335 11.3334L9.976 13.1155L11.8695 13.176L10.3732 14.3379L10.9008 16.1574L9.33335 15.0934Z"/><path d="M7.76593 16.1574L8.29353 14.3379L6.7972 13.176L8.69071 13.1155L9.33335 11.3334L9.976 13.1155L11.8695 13.176L10.3732 14.3379L10.9008 16.1574L9.33335 15.0934L7.76593 16.1574Z"/><path fill="#128A49" fill-rule="evenodd" d="M18.6667 15.0934L17.0992 16.1574L17.6268 14.3379L16.1305 13.176L18.024 13.1155L18.6667 11.3334L19.3093 13.1155L21.2028 13.176L19.7065 14.3379L20.2341 16.1574L18.6667 15.0934Z"/><path d="M17.0992 16.1574L17.6268 14.3379L16.1305 13.176L18.024 13.1155L18.6667 11.3334L19.3093 13.1155L21.2028 13.176L19.7065 14.3379L20.2341 16.1574L18.6667 15.0934L17.0992 16.1574Z"/></g></svg>