<svg xmlns="http://www.w3.org/2000/svg" width="28" height="28" fill="none"><rect width="28" height="20" y="4" fill="#fff" rx="3"/><mask id="a" width="28" height="20" x="0" y="4" maskUnits="userSpaceOnUse" style="mask-type:luminance"><rect width="28" height="20" y="4" fill="#fff" rx="3"/></mask><g fill-rule="evenodd" clip-rule="evenodd" mask="url(#a)"><path fill="#FE3030" d="M-1.333 25.333h30.666V2.667H-1.333v22.666Z"/><path fill="#0909B6" d="M-1.333 14.667h16v-12h-16v12Z"/><path fill="#fff" d="m7.333 11-1.275 1.413.097-1.901-1.901.097 1.413-1.276-1.413-1.275 1.9.097-.096-1.901 1.275 1.413L8.61 6.254l-.097 1.9 1.9-.096L9 9.333l1.413 1.276-1.901-.097.097 1.9L7.333 11Z"/></g></svg>