<svg xmlns="http://www.w3.org/2000/svg" fill="none" viewBox="0 0 28 28" focusable="false"><defs><filter id="Taiwan_svg__a"><feColorMatrix values="0 0 0 0 1 0 0 0 0 1 0 0 0 0 1 0 0 0 1 0"/></filter></defs><mask id="Taiwan_svg__b" width="28" height="20" x="0" y="4" maskUnits="userSpaceOnUse"><g filter="url(#Taiwan_svg__a)"><rect width="28" height="20" y="4" fill="#FFF" rx="3"/><rect width="28" height="20" y="4" stroke="#969696" stroke-opacity="0" stroke-width="0" rx="3"/></g></mask><path fill="none" d="M0 0H28V28H0z"/><rect width="28" height="20" y="4" fill="#FFF" rx="3"/><rect width="28" height="20" y="4" rx="3"/><g mask="url(#Taiwan_svg__b)"><path fill="#FE3030" fill-rule="evenodd" d="M-1.33331 25.3333L29.3334 25.3333L29.3334 2.66663L-1.33331 2.66663L-1.33331 25.3333Z"/><path d="M29.3334 25.3333L29.3334 2.66663L-1.33331 2.66663L-1.33331 25.3333L29.3334 25.3333Z"/><path fill="#0909B6" fill-rule="evenodd" d="M-1.33331 14.6666L14.6667 14.6666L14.6667 2.66663L-1.33331 2.66663L-1.33331 14.6666Z"/><path d="M14.6667 14.6666L14.6667 2.66663L-1.33331 2.66663L-1.33331 14.6666L14.6667 14.6666Z"/><path fill="#FFF" fill-rule="evenodd" d="M7.33333 11L6.05772 12.4129L6.15482 10.5118L4.25374 10.6089L5.66667 9.33333L4.25374 8.05772L6.15482 8.15482L6.05772 6.25374L7.33333 7.66667L8.60894 6.25374L8.51184 8.15482L10.4129 8.05772L9 9.33333L10.4129 10.6089L8.51184 10.5118L8.60894 12.4129L7.33333 11Z"/><path d="M6.05772 12.4129L6.15482 10.5118L4.25374 10.6089L5.66667 9.33333L4.25374 8.05772L6.15482 8.15482L6.05772 6.25374L7.33333 7.66667L8.60894 6.25374L8.51184 8.15482L10.4129 8.05772L9 9.33333L10.4129 10.6089L8.51184 10.5118L8.60894 12.4129L7.33333 11L6.05772 12.4129Z"/></g></svg>