<svg xmlns="http://www.w3.org/2000/svg" fill="none" viewBox="0 0 28 28" focusable="false"><rect width="27.5" height="19.5" x=".25" y="4.25" fill="#fff" stroke="#d6d8dd" stroke-width=".5" rx="2.75"/><mask id="Tajikistan_svg__a" width="28" height="20" x="0" y="4" maskUnits="userSpaceOnUse" style="mask-type:luminance"><rect width="27.5" height="19.5" x=".25" y="4.25" fill="#fff" stroke="#fff" stroke-width=".5" rx="2.75"/></mask><g fill-rule="evenodd" clip-rule="evenodd" mask="url(#Tajikistan_svg__a)"><path fill="#d9101c" d="M0 10.667h28V4H0z"/><path fill="#0f7811" d="M0 24h28v-6.667H0z"/><path fill="#fad14e" d="M13.333 12.667a.667.667 0 1 1-1.333 0 .667.667 0 0 1 1.333 0M14.667 14c0 .12-.032.377-.088.667h.754a.667.667 0 1 1 0 1.333h-2.666a.667.667 0 0 1 0-1.333h.754a4.4 4.4 0 0 1-.088-.667.667.667 0 1 1 1.334 0M16 12.667a.667.667 0 1 1-1.333 0 .667.667 0 0 1 1.333 0m2 2a.667.667 0 1 0 0-1.334.667.667 0 0 0 0 1.334M10.667 14a.667.667 0 1 1-1.334 0 .667.667 0 0 1 1.334 0"/></g></svg>