<svg xmlns="http://www.w3.org/2000/svg" fill="none" viewBox="0 0 28 28" focusable="false"><defs><filter id="Tajikistan_svg__a"><feColorMatrix values="0 0 0 0 1 0 0 0 0 1 0 0 0 0 1 0 0 0 1 0"/></filter></defs><mask id="Tajikistan_svg__b" width="28" height="20" x="0" y="4" maskUnits="userSpaceOnUse"><g filter="url(#Tajikistan_svg__a)"><rect width="28" height="20" y="4" fill="#FFF" rx="3"/><rect width="27.5" height="19.5" x=".25" y="4.25" stroke="#F5F5F5" stroke-width=".5" rx="2.75"/></g></mask><path fill="none" d="M0 0H28V28H0z"/><rect width="28" height="20" y="4" fill="#FFF" rx="3"/><rect width="27.5" height="19.5" x=".25" y="4.25" stroke="#D6D8DD" stroke-width=".5" rx="2.75"/><g mask="url(#Tajikistan_svg__b)"><path fill="#D9101C" fill-rule="evenodd" d="M0 10.6667L28 10.6667L28 4L0 4L0 10.6667Z"/><path d="M28 10.6667L28 4L0 4L0 10.6667L28 10.6667Z"/><path fill="#0F7811" fill-rule="evenodd" d="M0 24L28 24L28 17.3334L0 17.3334L0 24Z"/><path d="M28 24L28 17.3334L0 17.3334L0 24L28 24Z"/><path fill="#FAD14E" fill-rule="evenodd" d="M13.3334 12.6667C13.3334 13.0349 13.0349 13.3333 12.6667 13.3333C12.2985 13.3333 12 13.0349 12 12.6667C12 12.2985 12.2985 12 12.6667 12C13.0349 12 13.3334 12.2985 13.3334 12.6667ZM16 12.6667C16 13.0349 15.7016 13.3333 15.3334 13.3333C14.9652 13.3333 14.6667 13.0349 14.6667 12.6667C14.6667 12.2985 14.9652 12 15.3334 12C15.7016 12 16 12.2985 16 12.6667ZM10 14.6667C10.3682 14.6667 10.6667 14.3682 10.6667 14C10.6667 13.6318 10.3682 13.3333 10 13.3333C9.63185 13.3333 9.33337 13.6318 9.33337 14C9.33337 14.3682 9.63185 14.6667 10 14.6667ZM13.4214 14.6667L12.6667 14.6667C12.2985 14.6667 12 14.9651 12 15.3333C12 15.7015 12.2985 16 12.6667 16L15.3334 16C15.7016 16 16 15.7015 16 15.3333C16 14.9651 15.7016 14.6667 15.3334 14.6667L14.5787 14.6667C14.6347 14.3767 14.6667 14.1206 14.6667 14C14.6667 13.6318 14.3682 13.3333 14 13.3333C13.6319 13.3333 13.3334 13.6318 13.3334 14C13.3334 14.1206 13.3654 14.3767 13.4214 14.6667ZM18.6667 14C18.6667 14.3682 18.3682 14.6667 18 14.6667C17.6319 14.6667 17.3334 14.3682 17.3334 14C17.3334 13.6318 17.6319 13.3333 18 13.3333C18.3682 13.3333 18.6667 13.6318 18.6667 14Z"/><path d="M13.3334 12.6667C13.3334 13.0349 13.0349 13.3333 12.6667 13.3333C12.2985 13.3333 12 13.0349 12 12.6667C12 12.2985 12.2985 12 12.6667 12C13.0349 12 13.3334 12.2985 13.3334 12.6667ZM16 12.6667C16 13.0349 15.7016 13.3333 15.3334 13.3333C14.9652 13.3333 14.6667 13.0349 14.6667 12.6667C14.6667 12.2985 14.9652 12 15.3334 12C15.7016 12 16 12.2985 16 12.6667ZM10 14.6667C10.3682 14.6667 10.6667 14.3682 10.6667 14C10.6667 13.6318 10.3682 13.3333 10 13.3333C9.63185 13.3333 9.33337 13.6318 9.33337 14C9.33337 14.3682 9.63185 14.6667 10 14.6667ZM13.4214 14.6667L12.6667 14.6667C12.2985 14.6667 12 14.9651 12 15.3333C12 15.7015 12.2985 16 12.6667 16L15.3334 16C15.7016 16 16 15.7015 16 15.3333C16 14.9651 15.7016 14.6667 15.3334 14.6667L14.5787 14.6667C14.6347 14.3767 14.6667 14.1206 14.6667 14C14.6667 13.6318 14.3682 13.3333 14 13.3333C13.6319 13.3333 13.3334 13.6318 13.3334 14C13.3334 14.1206 13.3654 14.3767 13.4214 14.6667ZM18.6667 14C18.6667 14.3682 18.3682 14.6667 18 14.6667C17.6319 14.6667 17.3334 14.3682 17.3334 14C17.3334 13.6318 17.6319 13.3333 18 13.3333C18.3682 13.3333 18.6667 13.6318 18.6667 14Z"/></g></svg>