<svg xmlns="http://www.w3.org/2000/svg" fill="none" viewBox="0 0 28 28" focusable="false"><path fill="none" d="M0 0h28v28H0z"/><rect width="28" height="20" y="4" fill="#FFF" rx="3"/><rect width="27.5" height="19.5" x=".25" y="4.25" stroke="#D6D8DD" stroke-width=".5" rx="3"/><mask id="Tajikistan_svg__a" width="28" height="20" x="0" y="4" mask-type="alpha" maskUnits="userSpaceOnUse"><rect width="28" height="20" y="4" fill="#FFF" rx="3"/><rect width="27.5" height="19.5" x=".25" y="4.25" stroke="#F5F5F5" stroke-width=".5" rx="3"/></mask><g mask="url(#Tajikistan_svg__a)"><path fill="#D9101C" fill-rule="evenodd" d="M0 10.66h28V4H0z"/><path d="M28 10.66V4H0v6.66z"/></g><g mask="url(#Tajikistan_svg__a)"><path fill="#0F7811" fill-rule="evenodd" d="M0 24h28v-6.67H0z"/><path d="M28 24v-6.67H0V24z"/></g><g mask="url(#Tajikistan_svg__a)"><mask id="Tajikistan_svg__b" fill="#fff"><path fill-rule="evenodd" d="M13.333 12.667a.667.667 0 1 1-1.333 0 .667.667 0 0 1 1.333 0m2.667 0a.667.667 0 1 1-1.333 0 .667.667 0 0 1 1.333 0M10.667 14a.667.667 0 1 1-1.334 0 .667.667 0 0 1 1.334 0m4 0c0 .12-.032.377-.088.667h.754a.667.667 0 1 1 0 1.333h-2.666a.667.667 0 0 1 0-1.333h.754a4.354 4.354 0 0 1-.088-.667.667.667 0 1 1 1.334 0m3.333.667a.667.667 0 1 0 0-1.334.667.667 0 0 0 0 1.334" clip-rule="evenodd"/></mask><path fill="#FAD14E" fill-rule="evenodd" d="M13.333 12.667a.667.667 0 1 1-1.333 0 .667.667 0 0 1 1.333 0m2.667 0a.667.667 0 1 1-1.333 0 .667.667 0 0 1 1.333 0M10.667 14a.667.667 0 1 1-1.334 0 .667.667 0 0 1 1.334 0m4 0c0 .12-.032.377-.088.667h.754a.667.667 0 1 1 0 1.333h-2.666a.667.667 0 0 1 0-1.333h.754a4.354 4.354 0 0 1-.088-.667.667.667 0 1 1 1.334 0m3.333.667a.667.667 0 1 0 0-1.334.667.667 0 0 0 0 1.334" clip-rule="evenodd" mask="url(#Tajikistan_svg__b)"/></g></svg>