<svg xmlns="http://www.w3.org/2000/svg" fill="none" viewBox="0 0 37 28" focusable="false"><path fill="none" d="M4 0h28v28H4z"/><rect width="28" height="20" x="4" y="4" fill="#FFF" rx="3"/><rect width="28" height="20" x="4" y="4" rx="3"/><mask id="Tanzania_svg__a" width="28" height="20" x="4" y="4" mask-type="alpha" maskUnits="userSpaceOnUse"><rect width="28" height="20" x="4" y="4" fill="#FFF" rx="3"/><rect width="28" height="20" x="4" y="4" stroke="#979797" stroke-opacity="0" stroke-width="0" rx="3"/></mask><g mask="url(#Tanzania_svg__a)"><path fill="#33CC4D" fill-rule="evenodd" d="M4 17.33 32 4H4z"/><path d="M32 4H4v13.33z"/></g><g mask="url(#Tanzania_svg__a)"><path fill="#2DAFE4" fill-rule="evenodd" d="M4 24h28V10.66z"/><path d="M32 24V10.66L4 24z"/></g><g mask="url(#Tanzania_svg__a)"><path fill="#FFD84F" fill-rule="evenodd" d="M7.08 26.66 34.17 9.73l-5.26-8.4L1.82 18.25z"/><path d="m34.17 9.73-5.26-8.4L1.82 18.25l5.26 8.41z"/></g><g mask="url(#Tanzania_svg__a)"><path fill="#262626" fill-rule="evenodd" d="M3.37 27.07 36.16 6.58 32.62.92-.17 21.41z"/><path d="M36.16 6.58 32.62.92-.17 21.41l3.54 5.66z"/></g></svg>