<svg xmlns="http://www.w3.org/2000/svg" fill="none" viewBox="0 0 28 28" focusable="false"><path fill="none" d="M0 0h28v28H0z"/><rect width="28" height="20" y="4" fill="#FFF" rx="3"/><rect width="28" height="20" y="4" rx="3"/><mask id="Togo_svg__a" width="28" height="20" x="0" y="4" mask-type="alpha" maskUnits="userSpaceOnUse"><rect width="28" height="20" y="4" fill="#FFF" rx="3"/><rect width="28" height="20" y="4" stroke="#979797" stroke-opacity="0" stroke-width="0" rx="3"/></mask><g mask="url(#Togo_svg__a)"><path fill="#FFD44D" d="M0 4h28v20H0z"/><path d="M0 4h28v20H0z"/></g><g mask="url(#Togo_svg__a)"><mask id="Togo_svg__b" fill="#fff"><path fill-rule="evenodd" d="M12 4h16v4H12zm0 8h16v4H12zm16 8H0v4h28z" clip-rule="evenodd"/></mask><path fill="#159A74" fill-rule="evenodd" d="M12 4h16v4H12zm0 8h16v4H12zm16 8H0v4h28z" clip-rule="evenodd" mask="url(#Togo_svg__b)"/></g><g mask="url(#Togo_svg__a)"><path fill="#ED1F45" d="M0 4h12v12H0z"/><path d="M0 4h12v12H0z"/></g><g mask="url(#Togo_svg__a)"><path fill="#FFF" fill-rule="evenodd" d="m6 11.56-2.36 1.67.87-2.75-2.32-1.72 2.89-.03L6 6l.91 2.73 2.89.03-2.32 1.72.87 2.75z"/><path d="m3.64 13.23.87-2.75-2.32-1.72 2.89-.03L6 6l.91 2.73 2.89.03-2.32 1.72.87 2.75L6 11.56z"/></g></svg>