<svg xmlns="http://www.w3.org/2000/svg" width="28" height="28" fill="none"><rect width="28" height="20" y="4" fill="#fff" rx="3"/><mask id="a" width="28" height="20" x="0" y="4" maskUnits="userSpaceOnUse" style="mask-type:luminance"><rect width="28" height="20" y="4" fill="#fff" rx="3"/></mask><g mask="url(#a)"><path fill="#FFD44D" d="M0 4h28v20H0z"/><path fill="#159A74" fill-rule="evenodd" d="M12 4h16v4H12V4Zm0 8h16v4H12v-4Zm16 8H0v4h28v-4Z" clip-rule="evenodd"/><path fill="#ED1F45" d="M0 4h12v12H0z"/><path fill="#fff" fill-rule="evenodd" d="m6 11.56-2.351 1.676.867-2.754-2.32-1.718 2.887-.026L6 6l.917 2.738 2.887.026-2.32 1.718.867 2.754L6 11.56Z" clip-rule="evenodd"/></g></svg>