<svg xmlns="http://www.w3.org/2000/svg" fill="none" mask="url(#Tokelau_svg__a)" viewBox="0 0 28 28" focusable="false"><defs><filter id="Tokelau_svg__b"><feColorMatrix values="0 0 0 0 1 0 0 0 0 1 0 0 0 0 1 0 0 0 1 0"/></filter></defs><mask id="Tokelau_svg__a" width="28" height="20" x="0" y="4" maskUnits="userSpaceOnUse"><g filter="url(#Tokelau_svg__b)"><rect width="28" height="20" y="4" fill="#062365" rx="3"/></g></mask><path fill="none" d="M0 0H28V28H0z"/><path fill="#062365" d="M0 4H28V24H0z"/><path fill="#F8D147" fill-rule="evenodd" d="M26.052 20.064 5.54481 19.8464C5.15923 19.6225 5.38415 19.4007 5.54481 19.3177L25.8965 19.4888 26.4251 19.8153 26.052 20.064ZM26.4718 19.2089 5.68481 19.0378C6.85606 18.4263 9.50109 16.6861 11.2353 15.1821 12.9921 13.6584 19.2267 9.67825 22.585 8.26343 18.6981 12.1503 23.3623 19.0845 26.4718 19.0845L26.4718 19.2089Z"/><path fill="#FFF" fill-rule="evenodd" d="M6.06655 8.64408 6.59745 8.64408 6.16794 8.95614 6.332 9.46107 5.90249 9.14901 5.47297 9.46107 5.63703 8.95614 5.20752 8.64408 5.73843 8.64408 5.90249 8.13916 6.06655 8.64408ZM6.08751 16.8865 6.6862 16.8865 6.20185 17.2384 6.38685 17.8078 5.90251 17.4559 5.41816 17.8078 5.60317 17.2384 5.11882 16.8865 5.71751 16.8865 5.90251 16.3171 6.08751 16.8865ZM2.89479 11.8157 3.4257 11.8157 2.99619 12.1278 3.16025 12.6327 2.73073 12.3206 2.30122 12.6327 2.46528 12.1278 2.03576 11.8157 2.56667 11.8157 2.73073 11.3108 2.89479 11.8157ZM8.76789 11.0552 9.18584 11.0552 8.84771 11.3009 8.97686 11.6984 8.63873 11.4527 8.30061 11.6984 8.42976 11.3009 8.09163 11.0552 8.50958 11.0552 8.63873 10.6577 8.76789 11.0552Z"/></svg>