<svg xmlns="http://www.w3.org/2000/svg" fill="none" viewBox="0 0 28 28" focusable="false"><path fill="none" d="M0 0h28v28H0z"/><mask id="Tokelau_svg__a" width="28" height="20" x="0" y="4" mask-type="alpha" maskUnits="userSpaceOnUse"><rect width="28" height="20" y="4" fill="#062365" rx="3"/></mask><g mask="url(#Tokelau_svg__a)"><path fill="#062365" d="M0 4h28v20H0z"/></g><g mask="url(#Tokelau_svg__a)"><path fill="#f8d147" fill-rule="evenodd" d="m5.54 19.84 20.51.22.37-.25-.53-.33-20.35-.17c-.16.09-.39.31 0 .53"/></g><g mask="url(#Tokelau_svg__a)"><path fill="#f8d147" fill-rule="evenodd" d="m5.68 19.03 20.79.17v-.12c-3.11 0-7.78-6.93-3.89-10.82-3.36 1.41-9.59 5.39-11.35 6.92-1.73 1.5-4.38 3.24-5.55 3.85"/></g><g mask="url(#Tokelau_svg__a)"><path fill="#fff" d="m5.9 8.13-.17.51H5.2l.43.31-.16.51.43-.32.43.32-.17-.51.43-.31h-.53z"/></g><g mask="url(#Tokelau_svg__a)"><path fill="#fff" d="m5.9 16.31-.19.57h-.6l.49.35-.19.57.49-.35.48.35-.18-.57.48-.35h-.6z"/></g><g mask="url(#Tokelau_svg__a)"><path fill="#fff" d="m2.73 11.31-.17.5h-.53l.43.31-.16.51.43-.31.43.31-.17-.51.43-.31h-.53z"/></g><g mask="url(#Tokelau_svg__a)"><path fill="#fff" d="m8.63 10.65-.13.4h-.41l.33.25-.12.39.33-.24.34.24-.13-.39.34-.25h-.42z"/></g></svg>