<svg xmlns="http://www.w3.org/2000/svg" fill="none" viewBox="0 0 28 28" focusable="false"><defs><linearGradient id="Tonga_svg__c" x1="4" x2="4" y1="5.333" y2="13.333" gradientUnits="userSpaceOnUse"><stop stop-color="#df101b"/><stop offset="1" stop-color="#c00711"/></linearGradient></defs><path fill="none" d="M0 0h28v28H0z"/><rect width="28" height="20" y="4" fill="#fff" rx="3"/><rect width="27.5" height="19.5" x=".25" y="4.25" stroke="#d6d8dd" stroke-width=".5" rx="3"/><mask id="Tonga_svg__a" width="28" height="20" x="0" y="4" mask-type="alpha" maskUnits="userSpaceOnUse"><rect width="28" height="20" y="4" fill="#fff" rx="3"/><rect width="27.5" height="19.5" x=".25" y="4.25" stroke="#f5f5f5" stroke-width=".5" rx="3"/></mask><g mask="url(#Tonga_svg__a)"><mask id="Tonga_svg__b" fill="#fff"><path fill-rule="evenodd" d="M0 14.667V24h28V4H16v10.667z" clip-rule="evenodd"/></mask><path fill="#e20f1b" fill-rule="evenodd" d="M0 14.667V24h28V4H16v10.667z" clip-rule="evenodd" mask="url(#Tonga_svg__b)"/></g><g mask="url(#Tonga_svg__a)"><mask id="Tonga_svg__d" fill="#fff"><path fill-rule="evenodd" d="M7 5.333h2c.184 0 .333.15.333.334V8h2.334c.184 0 .333.15.333.333v2c0 .184-.15.334-.333.334H9.333V13c0 .184-.149.333-.333.333H7A.333.333 0 0 1 6.667 13v-2.333H4.333A.333.333 0 0 1 4 10.333v-2C4 8.15 4.15 8 4.333 8h2.334V5.667c0-.184.149-.334.333-.334" clip-rule="evenodd"/></mask><path fill="url(#Tonga_svg__c)" fill-rule="evenodd" d="M7 5.333h2c.184 0 .333.15.333.334V8h2.334c.184 0 .333.15.333.333v2c0 .184-.15.334-.333.334H9.333V13c0 .184-.149.333-.333.333H7A.333.333 0 0 1 6.667 13v-2.333H4.333A.333.333 0 0 1 4 10.333v-2C4 8.15 4.15 8 4.333 8h2.334V5.667c0-.184.149-.334.333-.334" clip-rule="evenodd" mask="url(#Tonga_svg__d)"/></g></svg>