<svg xmlns="http://www.w3.org/2000/svg" fill="none" viewBox="0 0 28 28" focusable="false"><defs><linearGradient id="Tonga_svg__c" x1="4" x2="4" y1="5.333" y2="13.333" gradientUnits="userSpaceOnUse"><stop offset="0" stop-color="#DE0F1B"/><stop offset="1" stop-color="#C00711"/></linearGradient><filter id="Tonga_svg__a"><feColorMatrix values="0 0 0 0 1 0 0 0 0 1 0 0 0 0 1 0 0 0 1 0"/></filter></defs><mask id="Tonga_svg__b" width="28" height="20" x="0" y="4" maskUnits="userSpaceOnUse"><g filter="url(#Tonga_svg__a)"><rect width="28" height="20" y="4" fill="#FFF" rx="3"/><rect width="27.5" height="19.5" x=".25" y="4.25" stroke="#F5F5F5" stroke-width=".5" rx="2.75"/></g></mask><path fill="none" d="M0 0H28V28H0z"/><rect width="28" height="20" y="4" fill="#FFF" rx="3"/><rect width="27.5" height="19.5" x=".25" y="4.25" stroke="#D6D8DD" stroke-width=".5" rx="2.75"/><g mask="url(#Tonga_svg__b)"><path fill="#E20F1B" fill-rule="evenodd" d="M28 24L28 4L16 4L16 14.6667L0 14.6667L0 24L28 24Z"/><path d="M28 24L28 4L16 4L16 14.6667L0 14.6667L0 24L28 24Z"/><path fill="url(#Tonga_svg__c)" fill-rule="evenodd" d="M9.33333 5.66671C9.33333 5.48261 9.1841 5.33337 9 5.33337L7 5.33337C6.81591 5.33337 6.66667 5.48261 6.66667 5.66671L6.66667 8.00004L4.33333 8.00004C4.14924 8.00004 4 8.14928 4 8.33337L4 10.3334C4 10.5175 4.14924 10.6667 4.33333 10.6667L6.66667 10.6667L6.66667 13C6.66667 13.1841 6.81591 13.3334 7 13.3334L9 13.3334C9.1841 13.3334 9.33333 13.1841 9.33333 13L9.33333 10.6667L11.6667 10.6667C11.8508 10.6667 12 10.5175 12 10.3334L12 8.33337C12 8.14928 11.8508 8.00004 11.6667 8.00004L9.33333 8.00004L9.33333 5.66671Z"/><path d="M9.33333 5.66671C9.33333 5.48261 9.1841 5.33337 9 5.33337L7 5.33337C6.81591 5.33337 6.66667 5.48261 6.66667 5.66671L6.66667 8.00004L4.33333 8.00004C4.14924 8.00004 4 8.14928 4 8.33337L4 10.3334C4 10.5175 4.14924 10.6667 4.33333 10.6667L6.66667 10.6667L6.66667 13C6.66667 13.1841 6.81591 13.3334 7 13.3334L9 13.3334C9.1841 13.3334 9.33333 13.1841 9.33333 13L9.33333 10.6667L11.6667 10.6667C11.8508 10.6667 12 10.5175 12 10.3334L12 8.33337C12 8.14928 11.8508 8.00004 11.6667 8.00004L9.33333 8.00004L9.33333 5.66671Z"/></g></svg>