<svg xmlns="http://www.w3.org/2000/svg" fill="none" viewBox="0 0 28 28" focusable="false"><rect width="27.5" height="19.5" x=".25" y="4.25" fill="#fff" stroke="#D6D8DD" stroke-width=".5" rx="2.75"/><mask id="Tonga_svg__a" width="28" height="20" x="0" y="4" maskUnits="userSpaceOnUse" style="mask-type:luminance"><rect width="27.5" height="19.5" x=".25" y="4.25" fill="#fff" stroke="#fff" stroke-width=".5" rx="2.75"/></mask><g fill-rule="evenodd" clip-rule="evenodd" mask="url(#Tonga_svg__a)"><path fill="#E20F1B" d="M28 4H16v10.667H0V24h28z"/><path fill="url(#Tonga_svg__b)" d="M7 5.333a.333.333 0 0 0-.333.334V8H4.333A.333.333 0 0 0 4 8.333v2c0 .184.15.334.333.334h2.334V13c0 .184.149.333.333.333h2c.184 0 .333-.149.333-.333v-2.333h2.334c.184 0 .333-.15.333-.334v-2A.333.333 0 0 0 11.667 8H9.333V5.667A.333.333 0 0 0 9 5.333z"/></g><defs><linearGradient id="Tonga_svg__b" x1="4" x2="4" y1="5.333" y2="13.333" gradientUnits="userSpaceOnUse"><stop stop-color="#DF101B"/><stop offset="1" stop-color="#C00711"/></linearGradient></defs></svg>