<svg xmlns="http://www.w3.org/2000/svg" fill="none" viewBox="0 0 28 28" focusable="false"><defs><filter id="Trinidad_and_Tobago_svg__a"><feColorMatrix values="0 0 0 0 1 0 0 0 0 1 0 0 0 0 1 0 0 0 1 0"/></filter></defs><mask id="Trinidad_and_Tobago_svg__b" width="28" height="20" x="0" y="4" maskUnits="userSpaceOnUse"><g filter="url(#Trinidad_and_Tobago_svg__a)"><rect width="28" height="20" y="4" fill="#FFF" rx="3"/><rect width="28" height="20" y="4" stroke="#969696" stroke-opacity="0" stroke-width="0" rx="3"/></g></mask><path fill="none" d="M0 0H28V28H0z"/><rect width="28" height="20" y="4" fill="#FFF" rx="3"/><rect width="28" height="20" y="4" rx="3"/><g mask="url(#Trinidad_and_Tobago_svg__b)"><path fill="#ED233C" d="M0 4H28V24H0z"/><path d="M0 4H28V24H0z"/><path fill="#FFF" fill-rule="evenodd" d="M7.59382 30.8409L28.1257 6.37197L20.5319 0L0 24.469L7.59382 30.8409Z" transform="matrix(-1 0 0 1 28.063 -1.42)"/><path d="M28.1257 6.37197L20.5319 0L0 24.469L7.59382 30.8409L28.1257 6.37197Z" transform="matrix(-1 0 0 1 28.063 -1.42)"/><path fill="#262626" fill-rule="evenodd" d="M5.10696 33.9056L29.9614 4.28525L24.8545 0L0 29.6204L5.10696 33.9056Z" transform="matrix(-1 0 0 1 28.98 -2.953)"/><path d="M29.9614 4.28525L24.8545 0L0 29.6204L5.10696 33.9056L29.9614 4.28525Z" transform="matrix(-1 0 0 1 28.98 -2.953)"/></g></svg>