<svg xmlns="http://www.w3.org/2000/svg" fill="none" viewBox="0 0 28 28" focusable="false"><path fill="none" d="M0 0h28v28H0z"/><rect width="28" height="20" y="4" fill="#fff" rx="3"/><rect width="28" height="20" y="4" rx="3"/><mask id="Tunisia_svg__a" width="28" height="20" x="0" y="4" mask-type="alpha" maskUnits="userSpaceOnUse"><rect width="28" height="20" y="4" fill="#fff" rx="3"/><rect width="28" height="20" y="4" stroke="#979797" stroke-opacity="0" stroke-width="0" rx="3"/></mask><g mask="url(#Tunisia_svg__a)"><path fill="#e92434" d="M0 4h28v20H0z"/><path d="M0 4h28v20H0z"/></g><g fill="#fff" mask="url(#Tunisia_svg__a)"><mask id="Tunisia_svg__b"><path fill-rule="evenodd" d="M20 14a6 6 0 1 1-12 0 6 6 0 0 1 12 0m-4.189 4.302a4.667 4.667 0 1 1 0-8.604 4.334 4.334 0 0 0 0 8.604m-.682-1.647 1.225-1.485 1.803.674-1.033-1.624 1.198-1.507-1.864.482-1.063-1.605-.118 1.921-1.855.515 1.79.706z" clip-rule="evenodd"/></mask><path fill-rule="evenodd" d="M20 14a6 6 0 1 1-12 0 6 6 0 0 1 12 0m-4.189 4.302a4.667 4.667 0 1 1 0-8.604 4.334 4.334 0 0 0 0 8.604m-.682-1.647 1.225-1.485 1.803.674-1.033-1.624 1.198-1.507-1.864.482-1.063-1.605-.118 1.921-1.855.515 1.79.706z" clip-rule="evenodd" mask="url(#Tunisia_svg__b)"/></g></svg>