<svg xmlns="http://www.w3.org/2000/svg" fill="none" viewBox="0 0 28 28" focusable="false"><rect width="28" height="20" y="4" fill="#fff" rx="3"/><mask id="Tunisia_svg__a" width="28" height="20" x="0" y="4" maskUnits="userSpaceOnUse" style="mask-type:luminance"><rect width="28" height="20" y="4" fill="#fff" rx="3"/></mask><g mask="url(#Tunisia_svg__a)"><path fill="#E92434" d="M0 4h28v20H0z"/><path fill="#fff" fill-rule="evenodd" d="M20 14a6 6 0 1 1-12 0 6 6 0 0 1 12 0m-8 0a4.334 4.334 0 0 0 3.811 4.302 4.667 4.667 0 1 1 0-8.604A4.334 4.334 0 0 0 12 14m3.13 2.655 1.224-1.485 1.803.674-1.033-1.624 1.198-1.507-1.864.482-1.063-1.605-.118 1.921-1.855.515 1.79.706-.083 1.923" clip-rule="evenodd"/></g></svg>