<svg xmlns="http://www.w3.org/2000/svg" fill="none" viewBox="0 0 28 28" focusable="false"><rect width="28" height="20" y="4" fill="#fff" rx="3"/><mask id="Turks_and_Caicos_Islands_svg__a" width="28" height="20" x="0" y="4" maskUnits="userSpaceOnUse" style="mask-type:luminance"><rect width="28" height="20" y="4" fill="#fff" rx="3"/></mask><g mask="url(#Turks_and_Caicos_Islands_svg__a)"><path fill="#07319C" d="M0 4h28v20H0z"/><path fill="#FFD033" stroke="#fff" stroke-width=".667" d="M17.667 14V10.666a1 1 0 0 1 1-1h4a1 1 0 0 1 1 1V14c0 1.543-.768 2.626-1.557 3.336a6.258 6.258 0 0 1-1.443.966h-.001a6.25 6.25 0 0 1-1.443-.966c-.788-.71-1.556-1.793-1.556-3.336Z"/><mask id="Turks_and_Caicos_Islands_svg__b" width="7" height="10" x="17" y="9" maskUnits="userSpaceOnUse" style="mask-type:luminance"><path fill="#fff" stroke="#fff" stroke-width=".667" d="M17.667 14V10.666a1 1 0 0 1 1-1h4a1 1 0 0 1 1 1V14c0 1.543-.768 2.626-1.557 3.336a6.258 6.258 0 0 1-1.443.966h-.001a6.25 6.25 0 0 1-1.443-.966c-.788-.71-1.556-1.793-1.556-3.336Z"/></mask><g fill-rule="evenodd" clip-rule="evenodd" mask="url(#Turks_and_Caicos_Islands_svg__b)"><path fill="#BA5B1F" d="M22 13.333c.368 0 .667-.597.667-1.333s-.299-1.333-.667-1.333c-.368 0-.667.597-.667 1.333s.299 1.333.667 1.333"/><path fill="#FF9F3E" d="M19.539 13.293c.345-.126.422-.789.17-1.48-.252-.693-.736-1.152-1.082-1.026-.346.126-.423.79-.171 1.481.252.692.736 1.151 1.082 1.025"/><path fill="#FF937F" d="M19.052 13.27c.333.157.856-.258 1.167-.926.311-.667.293-1.334-.04-1.49-.334-.155-.857.26-1.168.927-.311.667-.293 1.334.04 1.49"/><path fill="#01A827" d="m20 14.667.667-1.334.666 1.334V16H20z"/></g><path fill="#DB1E36" stroke="#fff" stroke-width=".667" d="M0 3.667h-.901l.684.586 4.55 3.9v1.009l-4.527 3.233-.14.1v1.44l.51-.319 5.253-3.283h1.13l4.523 3.23a.554.554 0 0 0 .682-.87L7.667 9.18V8.172l4.387-3.134a.667.667 0 0 0 .28-.543V3.4l-.51.318L6.57 7h-1.13L.86 3.729l-.088-.062H.667z"/><path fill="#fff" fill-rule="evenodd" d="M0 7.333V10h4.667v3.333c0 .368.298.667.666.667h1.334a.667.667 0 0 0 .666-.667V10H12a.667.667 0 0 0 .667-.667V8A.667.667 0 0 0 12 7.333H7.333V4H4.667v3.333z" clip-rule="evenodd"/><path fill="#DB1E36" fill-rule="evenodd" d="M0 8h5.333V4h1.334v4H12v1.333H6.667v4H5.333v-4H0z" clip-rule="evenodd"/></g></svg>