<svg xmlns="http://www.w3.org/2000/svg" fill="none" viewBox="0 0 28 28" focusable="false"><path fill="none" d="M0 0h28v28H0z"/><rect width="28" height="20" y="4" fill="#FFF" rx="3"/><rect width="28" height="20" y="4" rx="3"/><mask id="Turkey_svg__a" width="28" height="20" x="0" y="4" mask-type="alpha" maskUnits="userSpaceOnUse"><rect width="28" height="20" y="4" fill="#FFF" rx="3"/><rect width="28" height="20" y="4" stroke="#979797" stroke-opacity="0" stroke-width="0" rx="3"/></mask><g mask="url(#Turkey_svg__a)"><path fill="#E92434" d="M0 4h28v20H0z"/><path d="M0 4h28v20H0z"/></g><g mask="url(#Turkey_svg__a)"><path fill="#FFF" fill-rule="evenodd" d="m19.02 14.76-1.23 1.49.08-1.92-1.79-.71 1.86-.52.12-1.92 1.06 1.61 1.86-.48-1.19 1.5 1.03 1.63z"/><path d="m17.79 16.25.08-1.92-1.79-.71 1.86-.52.12-1.92 1.06 1.61 1.86-.48-1.19 1.5 1.03 1.63-1.8-.68z"/></g><g mask="url(#Turkey_svg__a)"><mask id="Turkey_svg__b" fill="#fff"><path fill-rule="evenodd" d="M17.403 17.684a6 6 0 1 1 0-7.368 5.21 5.21 0 0 0-3.07-.983c-2.761 0-5 2.09-5 4.667s2.239 4.667 5 4.667a5.21 5.21 0 0 0 3.07-.983" clip-rule="evenodd"/></mask><path fill="#FFF" fill-rule="evenodd" d="M17.403 17.684a6 6 0 1 1 0-7.368 5.21 5.21 0 0 0-3.07-.983c-2.761 0-5 2.09-5 4.667s2.239 4.667 5 4.667a5.21 5.21 0 0 0 3.07-.983" clip-rule="evenodd" mask="url(#Turkey_svg__b)"/></g></svg>