<svg xmlns="http://www.w3.org/2000/svg" fill="none" viewBox="0 0 28 28" focusable="false"><path fill="none" d="M0 0h28v28H0z"/><rect width="28" height="20" y="4" fill="#FFF" rx="3"/><rect width="28" height="20" y="4" rx="3"/><mask id="Turkmenistan_svg__a" width="28" height="20" x="0" y="4" mask-type="alpha" maskUnits="userSpaceOnUse"><rect width="28" height="20" y="4" fill="#FFF" rx="3"/><rect width="28" height="20" y="4" stroke="#979797" stroke-opacity="0" stroke-width="0" rx="3"/></mask><g mask="url(#Turkmenistan_svg__a)"><path fill="#30C375" fill-rule="evenodd" d="M0 24h28V4H0z"/><path d="M28 24V4H0v20z"/></g><g mask="url(#Turkmenistan_svg__a)"><path fill="#DE414F" d="M4 4h4v20H4z"/><path d="M4 4h4v20H4z"/></g><g mask="url(#Turkmenistan_svg__a)"><path fill="#FFF" fill-rule="evenodd" d="M6 8c1.1 0 2-.6 2-1.34 0-.73-.9-1.33-2-1.33-1.11 0-2 .6-2 1.33C4 7.4 4.89 8 6 8"/><path d="M8 6.66c0-.73-.9-1.33-2-1.33-1.11 0-2 .6-2 1.33C4 7.4 4.89 8 6 8c1.1 0 2-.6 2-1.34"/><mask id="Turkmenistan_svg__b" width="4" height="2.667" x="4" y="5.333" mask-type="alpha" maskUnits="userSpaceOnUse"><path fill="#FFF" fill-rule="evenodd" d="M6 8c1.1 0 2-.6 2-1.34 0-.73-.9-1.33-2-1.33-1.11 0-2 .6-2 1.33C4 7.4 4.89 8 6 8"/><path stroke="#FFF" stroke-opacity="0" stroke-width="0" d="M8 6.66c0-.73-.9-1.33-2-1.33-1.11 0-2 .6-2 1.33C4 7.4 4.89 8 6 8c1.1 0 2-.6 2-1.34Z"/></mask><g mask="url(#Turkmenistan_svg__b)"><path fill="#DD404F" fill-rule="evenodd" d="M5.99 7.33c.37 0 .67-.3.67-.67 0-.37-.3-.66-.67-.66a.66.66 0 0 0-.66.66c0 .37.3.67.66.67"/><path d="M6.66 6.66c0-.37-.3-.66-.67-.66a.66.66 0 0 0-.66.66c0 .37.3.67.66.67.37 0 .67-.3.67-.67"/></g><g mask="url(#Turkmenistan_svg__b)"><path fill="#FBAF29" d="M4 5.333h2v1.333H4z"/><path d="M4 5.333h2v1.333H4z"/></g><g mask="url(#Turkmenistan_svg__b)"><path fill="#FBAF29" d="M6 6.667h2V8H6z"/><path d="M6 6.667h2V8H6z"/></g></g><g mask="url(#Turkmenistan_svg__a)"><path fill="#FFF" fill-rule="evenodd" d="M6 22.66c1.1 0 2-.6 2-1.33C8 20.59 7.1 20 6 20c-1.11 0-2 .59-2 1.33 0 .73.89 1.33 2 1.33"/><path d="M8 21.33C8 20.59 7.1 20 6 20c-1.11 0-2 .59-2 1.33 0 .73.89 1.33 2 1.33 1.1 0 2-.6 2-1.33"/><mask id="Turkmenistan_svg__c" width="4" height="2.667" x="4" y="20" mask-type="alpha" maskUnits="userSpaceOnUse"><path fill="#FFF" fill-rule="evenodd" d="M6 22.66c1.1 0 2-.6 2-1.33C8 20.59 7.1 20 6 20c-1.11 0-2 .59-2 1.33 0 .73.89 1.33 2 1.33"/><path stroke="#FFF" stroke-opacity="0" stroke-width="0" d="M8 21.33C8 20.59 7.1 20 6 20c-1.11 0-2 .59-2 1.33 0 .73.89 1.33 2 1.33 1.1 0 2-.6 2-1.33Z"/></mask><g mask="url(#Turkmenistan_svg__c)"><path fill="#DD404F" fill-rule="evenodd" d="M5.99 22a.67.67 0 0 0 0-1.34c-.36 0-.66.3-.66.67 0 .37.3.67.66.67"/><path d="M6.66 21.33c0-.37-.3-.67-.67-.67-.36 0-.66.3-.66.67 0 .37.3.67.66.67.37 0 .67-.3.67-.67"/></g><g mask="url(#Turkmenistan_svg__c)"><path fill="#FBAF29" d="M4 20h2v1.333H4z"/><path d="M4 20h2v1.333H4z"/></g><g mask="url(#Turkmenistan_svg__c)"><path fill="#FBAF29" d="M6 21.333h2v1.333H6z"/><path d="M6 21.333h2v1.333H6z"/></g></g><g mask="url(#Turkmenistan_svg__a)"><path fill="#28AE67" fill-rule="evenodd" d="M6 16c1.1 0 2-.6 2-1.34 0-.73-.9-1.33-2-1.33-1.11 0-2 .6-2 1.33C4 15.4 4.89 16 6 16"/><path d="M8 14.66c0-.73-.9-1.33-2-1.33-1.11 0-2 .6-2 1.33C4 15.4 4.89 16 6 16c1.1 0 2-.6 2-1.34"/><mask id="Turkmenistan_svg__d" width="4" height="2.667" x="4" y="13.333" mask-type="alpha" maskUnits="userSpaceOnUse"><path fill="#28AE67" fill-rule="evenodd" d="M6 16c1.1 0 2-.6 2-1.34 0-.73-.9-1.33-2-1.33-1.11 0-2 .6-2 1.33C4 15.4 4.89 16 6 16"/><path stroke="#979797" stroke-opacity="0" stroke-width="0" d="M8 14.66c0-.73-.9-1.33-2-1.33-1.11 0-2 .6-2 1.33C4 15.4 4.89 16 6 16c1.1 0 2-.6 2-1.34Z"/></mask><g mask="url(#Turkmenistan_svg__d)"><path fill="#DD404F" fill-rule="evenodd" d="M6 15.33c.73 0 1.33-.3 1.33-.67 0-.37-.6-.66-1.33-.66-.74 0-1.34.29-1.34.66 0 .37.6.67 1.34.67"/><path d="M7.33 14.66c0-.37-.6-.66-1.33-.66-.74 0-1.34.29-1.34.66 0 .37.6.67 1.34.67.73 0 1.33-.3 1.33-.67"/></g></g><g mask="url(#Turkmenistan_svg__a)"><path fill="#28AE67" fill-rule="evenodd" d="M6 18.66c1.1 0 2-.3 2-.66 0-.37-.9-.67-2-.67-1.11 0-2 .3-2 .67 0 .36.89.66 2 .66"/><path d="M8 18c0-.37-.9-.67-2-.67-1.11 0-2 .3-2 .67 0 .36.89.66 2 .66 1.1 0 2-.3 2-.66"/></g><g mask="url(#Turkmenistan_svg__a)"><path fill="#FBAF29" fill-rule="evenodd" d="M6 12c1.1 0 2-.6 2-1.34 0-.73-.9-1.33-2-1.33-1.11 0-2 .6-2 1.33C4 11.4 4.89 12 6 12"/><path d="M8 10.66c0-.73-.9-1.33-2-1.33-1.11 0-2 .6-2 1.33C4 11.4 4.89 12 6 12c1.1 0 2-.6 2-1.34"/><mask id="Turkmenistan_svg__e" width="4" height="2.667" x="4" y="9.333" mask-type="alpha" maskUnits="userSpaceOnUse"><path fill="#FBAF29" fill-rule="evenodd" d="M6 12c1.1 0 2-.6 2-1.34 0-.73-.9-1.33-2-1.33-1.11 0-2 .6-2 1.33C4 11.4 4.89 12 6 12"/><path stroke="#979797" stroke-opacity="0" stroke-width="0" d="M8 10.66c0-.73-.9-1.33-2-1.33-1.11 0-2 .6-2 1.33C4 11.4 4.89 12 6 12c1.1 0 2-.6 2-1.34Z"/></mask><g mask="url(#Turkmenistan_svg__e)"><path fill="#DD404F" fill-rule="evenodd" d="M5.99 11.33c.37 0 .67-.3.67-.67 0-.37-.3-.66-.67-.66a.66.66 0 0 0-.66.66c0 .37.3.67.66.67"/><path d="M6.66 10.66c0-.37-.3-.66-.67-.66a.66.66 0 0 0-.66.66c0 .37.3.67.66.67.37 0 .67-.3.67-.67"/></g><g mask="url(#Turkmenistan_svg__e)"><path fill="#28AE67" d="M4 9.333h1.333V12H4z"/><path d="M4 9.333h1.333V12H4z"/></g><g mask="url(#Turkmenistan_svg__e)"><path fill="#28AE67" d="M6.667 9.333H8V12H6.667z"/><path d="M6.667 9.333H8V12H6.667z"/></g></g><g mask="url(#Turkmenistan_svg__a)"><mask id="Turkmenistan_svg__f" fill="#fff"><path fill-rule="evenodd" d="M14.429 6.823a.667.667 0 1 0-.858 1.021.667.667 0 0 0 .858-1.021m.476 2.354a.667.667 0 1 1 .857-1.021.667.667 0 0 1-.857 1.021m-2.082-.272a.667.667 0 1 1 1.021.857.667.667 0 0 1-1.021-.857m-2 .666a.667.667 0 1 1 1.021.857.667.667 0 0 1-1.021-.857m2.272 1.252a.667.667 0 1 0-.857 1.02.667.667 0 0 0 .857-1.02" clip-rule="evenodd"/></mask><path fill="#FFF" fill-rule="evenodd" d="M14.429 6.823a.667.667 0 1 0-.858 1.021.667.667 0 0 0 .858-1.021m.476 2.354a.667.667 0 1 1 .857-1.021.667.667 0 0 1-.857 1.021m-2.082-.272a.667.667 0 1 1 1.021.857.667.667 0 0 1-1.021-.857m-2 .666a.667.667 0 1 1 1.021.857.667.667 0 0 1-1.021-.857m2.272 1.252a.667.667 0 1 0-.857 1.02.667.667 0 0 0 .857-1.02" clip-rule="evenodd" mask="url(#Turkmenistan_svg__f)"/></g><g mask="url(#Turkmenistan_svg__a)"><path fill="#FFF" fill-rule="evenodd" d="M17.47 13.45a4.08 4.08 0 0 1-5.75 0c-.15-.16-.29-.32-.42-.49a4.078 4.078 0 0 0 5.27-.42 4.062 4.062 0 0 0 .41-5.26c.17.12.34.26.49.41a4.074 4.074 0 0 1 0 5.76"/><path d="M11.72 13.45c-.15-.16-.29-.32-.42-.49a4.078 4.078 0 0 0 5.27-.42 4.062 4.062 0 0 0 .41-5.26c.17.12.34.26.49.41a4.074 4.074 0 0 1 0 5.76 4.08 4.08 0 0 1-5.75 0"/></g></svg>