<svg xmlns="http://www.w3.org/2000/svg" fill="none" viewBox="0 0 28 28" focusable="false"><mask id="Turks_and_Caicos_Islands_svg__c" width="6.667" height="9.333" x="17.333" y="9.333" maskUnits="userSpaceOnUse"><g fill-rule="evenodd" filter="url(#Turks_and_Caicos_Islands_svg__a)"><path fill="#FFD033" d="M17.3333 14C17.3333 12.9063 17.3333 11.6132 17.3333 10.6659C17.3333 9.92948 17.9303 9.33337 18.6666 9.33337L22.6666 9.33337C23.403 9.33337 24 9.92948 24 10.6659C24 11.6132 24 12.9063 24 14C24 17.3334 20.6666 18.6667 20.6666 18.6667C20.6666 18.6667 17.3333 17.3334 17.3333 14Z"/><path fill="#FFF" d="M17.3333 10.6659L17.3333 14C17.3333 17.3334 20.6666 18.6667 20.6666 18.6667C20.6666 18.6667 24 17.3334 24 14L24 10.6659C24 9.92948 23.403 9.33337 22.6666 9.33337L18.6666 9.33337C17.9303 9.33337 17.3333 9.92948 17.3333 10.6659ZM20.6666 17.9312C20.7256 17.9004 20.7896 17.8655 20.8588 17.8263C21.2333 17.6141 21.5761 17.3679 21.8873 17.0878C22.3144 16.7035 22.6484 16.2825 22.8892 15.825C23.0007 15.6131 23.0912 15.3947 23.1607 15.1699C23.2758 14.7977 23.3333 14.4078 23.3333 14L23.3333 10.6667C23.3333 10.5747 23.317 10.4894 23.2845 10.4108C23.252 10.3322 23.2031 10.2604 23.1381 10.1953C23.073 10.1302 23.0011 10.0814 22.9226 10.0489C22.844 10.0163 22.7587 10 22.6666 10L18.6666 10C18.5746 10 18.4893 10.0163 18.4107 10.0489C18.3322 10.0814 18.2603 10.1302 18.1952 10.1953C18.1302 10.2604 18.0813 10.3322 18.0488 10.4108C18.0163 10.4894 18 10.5747 18 10.6667L18 12.7467L18 14C18 14.4078 18.0575 14.7977 18.1726 15.1699C18.2421 15.3947 18.3326 15.6131 18.4441 15.825C18.6849 16.2825 19.0189 16.7034 19.446 17.0878C19.7571 17.3679 20.1 17.6141 20.4745 17.8263C20.5437 17.8655 20.6077 17.9004 20.6666 17.9312Z"/></g></mask><defs><filter id="Turks_and_Caicos_Islands_svg__a"><feColorMatrix values="0 0 0 0 1 0 0 0 0 1 0 0 0 0 1 0 0 0 1 0"/></filter></defs><mask id="Turks_and_Caicos_Islands_svg__b" width="28" height="20" x="0" y="4" maskUnits="userSpaceOnUse"><g filter="url(#Turks_and_Caicos_Islands_svg__a)"><rect width="28" height="20" y="4" fill="#FFF" rx="3"/><rect width="28" height="20" y="4" stroke="#969696" stroke-opacity="0" stroke-width="0" rx="3"/></g></mask><path fill="none" d="M0 0H28V28H0z"/><rect width="28" height="20" y="4" fill="#FFF" rx="3"/><rect width="28" height="20" y="4" rx="3"/><g mask="url(#Turks_and_Caicos_Islands_svg__b)"><path fill="#07319C" d="M0 4H28V24H0z"/><path d="M0 4H28V24H0z"/><path fill="#FFD033" fill-rule="evenodd" d="M17.3333 14C17.3333 12.9063 17.3333 11.6132 17.3333 10.6659C17.3333 9.92948 17.9303 9.33337 18.6666 9.33337L22.6666 9.33337C23.403 9.33337 24 9.92948 24 10.6659C24 11.6132 24 12.9063 24 14C24 17.3334 20.6666 18.6667 20.6666 18.6667C20.6666 18.6667 17.3333 17.3334 17.3333 14Z"/><path fill="#FFF" fill-rule="evenodd" d="M17.3333 10.6659L17.3333 14C17.3333 17.3334 20.6666 18.6667 20.6666 18.6667C20.6666 18.6667 24 17.3334 24 14L24 10.6659C24 9.92948 23.403 9.33337 22.6666 9.33337L18.6666 9.33337C17.9303 9.33337 17.3333 9.92948 17.3333 10.6659ZM20.6666 17.9312C20.7256 17.9004 20.7896 17.8655 20.8588 17.8263C21.2333 17.6141 21.5761 17.3679 21.8873 17.0878C22.3144 16.7035 22.6484 16.2825 22.8892 15.825C23.0007 15.6131 23.0912 15.3947 23.1607 15.1699C23.2758 14.7977 23.3333 14.4078 23.3333 14L23.3333 10.6667C23.3333 10.5747 23.317 10.4894 23.2845 10.4108C23.252 10.3322 23.2031 10.2604 23.1381 10.1953C23.073 10.1302 23.0011 10.0814 22.9226 10.0489C22.844 10.0163 22.7587 10 22.6666 10L18.6666 10C18.5746 10 18.4893 10.0163 18.4107 10.0489C18.3322 10.0814 18.2603 10.1302 18.1952 10.1953C18.1302 10.2604 18.0813 10.3322 18.0488 10.4108C18.0163 10.4894 18 10.5747 18 10.6667L18 12.7467L18 14C18 14.4078 18.0575 14.7977 18.1726 15.1699C18.2421 15.3947 18.3326 15.6131 18.4441 15.825C18.6849 16.2825 19.0189 16.7034 19.446 17.0878C19.7571 17.3679 20.1 17.6141 20.4745 17.8263C20.5437 17.8655 20.6077 17.9004 20.6666 17.9312Z"/><g mask="url(#Turks_and_Caicos_Islands_svg__c)"><path fill="#BA5B1F" fill-rule="evenodd" d="M22 13.3333C22.3682 13.3333 22.6666 12.7363 22.6666 12C22.6666 11.2636 22.3682 10.6666 22 10.6666C21.6318 10.6666 21.3333 11.2636 21.3333 12C21.3333 12.7363 21.6318 13.3333 22 13.3333Z"/><path d="M22.6666 12C22.6666 11.2636 22.3682 10.6666 22 10.6666C21.6318 10.6666 21.3333 11.2636 21.3333 12C21.3333 12.7363 21.6318 13.3333 22 13.3333C22.3682 13.3333 22.6666 12.7363 22.6666 12Z"/><path fill="#FF9F3E" fill-rule="evenodd" d="M0.666667 2.66667C1.03486 2.66667 1.33333 2.06971 1.33333 1.33333C1.33333 0.596954 1.03486 0 0.666667 0C0.298477 0 0 0.596954 0 1.33333C0 2.06971 0.298477 2.66667 0.666667 2.66667Z" transform="rotate(-20 40.235 -45.534)"/><path d="M1.33333 1.33333C1.33333 0.596954 1.03486 0 0.666667 0C0.298477 0 0 0.596954 0 1.33333C0 2.06971 0.298477 2.66667 0.666667 2.66667C1.03486 2.66667 1.33333 2.06971 1.33333 1.33333Z" transform="rotate(-20 40.235 -45.534)"/><path fill="#FF937F" fill-rule="evenodd" d="M0.666667 2.66667C1.03486 2.66667 1.33333 2.06971 1.33333 1.33333C1.33333 0.596954 1.03486 0 0.666667 0C0.298477 0 0 0.596954 0 1.33333C0 2.06971 0.298477 2.66667 0.666667 2.66667Z" transform="rotate(25 -14.057 49.433)"/><path d="M1.33333 1.33333C1.33333 0.596954 1.03486 0 0.666667 0C0.298477 0 0 0.596954 0 1.33333C0 2.06971 0.298477 2.66667 0.666667 2.66667C1.03486 2.66667 1.33333 2.06971 1.33333 1.33333Z" transform="rotate(25 -14.057 49.433)"/><path fill="#01A827" fill-rule="evenodd" d="M20 14.6667L20.6667 13.3334L21.3333 14.6667L21.3333 16L20 16L20 14.6667Z"/><path d="M20.6667 13.3334L21.3333 14.6667L21.3333 16L20 16L20 14.6667L20.6667 13.3334Z"/></g><path fill="#DB1E36" fill-rule="evenodd" d="M4.66667 8L0 4L0.666667 4L5.33333 7.33333L6.66667 7.33333L12 4L12 4.49513C12 4.60278 11.948 4.7038 11.8604 4.76637L7.33333 8L7.33333 9.33333L11.5475 12.9455C11.7029 13.0787 11.6087 13.3333 11.404 13.3333L11.404 13.3333C11.358 13.3333 11.3132 13.319 11.2758 13.2923L6.66667 10L5.33333 10L0 13.3333L0 12.6667L4.66667 9.33333L4.66667 8Z"/><path fill="#FFF" fill-rule="evenodd" d="M0.88031 3.33333L-1.80217 3.33333L4 8.30662L4 8.99026L-0.666667 12.3236L-0.666667 14.5362L5.52453 10.6667L6.45302 10.6667L10.8883 13.8348C10.9655 13.8898 11.047 13.9311 11.1329 13.9587C11.2189 13.9862 11.3092 14 11.404 14C11.5074 14 11.6052 13.9839 11.6975 13.9518C11.7795 13.9232 11.8572 13.882 11.9304 13.828C11.9985 13.7777 12.0574 13.7203 12.1071 13.6558C12.161 13.5858 12.2039 13.5074 12.236 13.4206C12.2681 13.3339 12.2865 13.2464 12.2911 13.1582C12.2954 13.0769 12.2881 12.995 12.269 12.9125C12.2486 12.8238 12.2165 12.742 12.1728 12.6669C12.1237 12.5824 12.0599 12.5066 11.9813 12.4393L8 9.02671L8 8.34308L12.2479 5.30886C12.3136 5.26194 12.3721 5.2088 12.4234 5.14944C12.4748 5.09008 12.5189 5.0245 12.5558 4.95271C12.5928 4.88091 12.6205 4.80688 12.639 4.7306C12.6574 4.65435 12.6667 4.57586 12.6667 4.49513L12.6667 2.79717L6.47547 6.66667L5.54698 6.66667L0.88031 3.33333ZM5.33333 7.33333L2.81303 5.53312L0.666667 4L0 4L0.413502 4.35443L0.666667 4.57143L2.40155 6.05847L4.66667 8L4.66667 9.33333L0 12.6667L0 13.3333L0.329218 13.1276L0.666667 12.9167L1.70915 12.2651L5.33333 10L6.66667 10L9.18697 11.8002L10.9601 13.0667L11.2758 13.2923C11.3132 13.319 11.358 13.3333 11.404 13.3333C11.6087 13.3333 11.7029 13.0787 11.5475 12.9455L11.2529 12.693L9.59845 11.2749L7.33333 9.33333L7.33333 8L10.6616 5.62265L11.8604 4.76637C11.948 4.7038 12 4.60278 12 4.49513L12 4L11.3428 4.41077L11.3333 4.41667L10.2909 5.06822L6.66667 7.33333L5.33333 7.33333Z"/><path fill="#FFF" fill-rule="evenodd" d="M0 7.33333L0 10L4.66667 10L4.66667 13.3333C4.66667 13.7015 4.96514 14 5.33333 14L6.66667 14C7.03486 14 7.33333 13.7015 7.33333 13.3333L7.33333 10L12 10C12.3682 10 12.6667 9.70152 12.6667 9.33333L12.6667 8C12.6667 7.63181 12.3682 7.33333 12 7.33333L7.33333 7.33333L7.33333 4L4.66667 4L4.66667 7.33333L0 7.33333Z"/><path d="M0 10L4.66667 10L4.66667 13.3333C4.66667 13.7015 4.96514 14 5.33333 14L6.66667 14C7.03486 14 7.33333 13.7015 7.33333 13.3333L7.33333 10L12 10C12.3682 10 12.6667 9.70152 12.6667 9.33333L12.6667 8C12.6667 7.63181 12.3682 7.33333 12 7.33333L7.33333 7.33333L7.33333 4L4.66667 4L4.66667 7.33333L0 7.33333L0 10Z"/><path fill="#DB1E36" fill-rule="evenodd" d="M0 8L5.33333 8L5.33333 7.33333L5.33333 4L6.66667 4L6.66667 7.33333L6.66667 8L12 8L12 9.33333L6.66667 9.33333L6.66667 10L6.66667 13.3333L5.33333 13.3333L5.33333 10L5.33333 9.33333L0 9.33333L0 8Z"/><path d="M5.33333 8L5.33333 7.33333L5.33333 4L6.66667 4L6.66667 7.33333L6.66667 8L12 8L12 9.33333L6.66667 9.33333L6.66667 10L6.66667 13.3333L5.33333 13.3333L5.33333 10L5.33333 9.33333L0 9.33333L0 8L5.33333 8Z"/></g></svg>