<svg xmlns="http://www.w3.org/2000/svg" width="28" height="28" fill="none"><rect width="28" height="20" y="4" fill="#fff" rx="3"/><mask id="a" width="28" height="20" x="0" y="4" maskUnits="userSpaceOnUse" style="mask-type:luminance"><rect width="28" height="20" y="4" fill="#fff" rx="3"/></mask><g mask="url(#a)"><path fill="#30C375" fill-rule="evenodd" d="M0 24h28V4H0v20Z" clip-rule="evenodd"/><path fill="#DE414F" d="M4 4h4v20H4z"/><path fill="#fff" fill-rule="evenodd" d="M6 8c1.105 0 2-.597 2-1.333 0-.737-.895-1.334-2-1.334S4 5.93 4 6.667C4 7.403 4.895 8 6 8Z" clip-rule="evenodd"/><mask id="b" width="4" height="3" x="4" y="5" maskUnits="userSpaceOnUse" style="mask-type:luminance"><path fill="#fff" fill-rule="evenodd" d="M6 8c1.105 0 2-.597 2-1.333 0-.737-.895-1.334-2-1.334S4 5.93 4 6.667C4 7.403 4.895 8 6 8Z" clip-rule="evenodd"/></mask><g mask="url(#b)"><path fill="#DD404F" fill-rule="evenodd" d="M6 7.333A.667.667 0 1 0 6 6a.667.667 0 0 0 0 1.333Z" clip-rule="evenodd"/><path fill="#FBAF29" d="M4 5.333h2v1.333H4zM6 6.667h2V8H6z"/></g><path fill="#fff" fill-rule="evenodd" d="M6 22.667c1.105 0 2-.597 2-1.334C8 20.597 7.105 20 6 20s-2 .597-2 1.333c0 .737.895 1.334 2 1.334Z" clip-rule="evenodd"/><mask id="c" width="4" height="3" x="4" y="20" maskUnits="userSpaceOnUse" style="mask-type:luminance"><path fill="#fff" fill-rule="evenodd" d="M6 22.667c1.105 0 2-.597 2-1.334C8 20.597 7.105 20 6 20s-2 .597-2 1.333c0 .737.895 1.334 2 1.334Z" clip-rule="evenodd"/></mask><g mask="url(#c)"><path fill="#DD404F" fill-rule="evenodd" d="M6 22a.667.667 0 1 0 0-1.333A.667.667 0 0 0 6 22Z" clip-rule="evenodd"/><path fill="#FBAF29" d="M4 20h2v1.333H4zM6 21.333h2v1.333H6z"/></g><path fill="#28AE67" fill-rule="evenodd" d="M6 16c1.105 0 2-.597 2-1.333 0-.737-.895-1.334-2-1.334s-2 .597-2 1.334C4 15.403 4.895 16 6 16Z" clip-rule="evenodd"/><mask id="d" width="4" height="3" x="4" y="13" maskUnits="userSpaceOnUse" style="mask-type:luminance"><path fill="#fff" fill-rule="evenodd" d="M6 16c1.105 0 2-.597 2-1.333 0-.737-.895-1.334-2-1.334s-2 .597-2 1.334C4 15.403 4.895 16 6 16Z" clip-rule="evenodd"/></mask><g mask="url(#d)"><path fill="#DD404F" fill-rule="evenodd" d="M6 15.333c.736 0 1.333-.298 1.333-.666C7.333 14.299 6.736 14 6 14s-1.333.299-1.333.667c0 .368.597.666 1.333.666Z" clip-rule="evenodd"/></g><path fill="#28AE67" fill-rule="evenodd" d="M6 18.667c1.105 0 2-.299 2-.667 0-.368-.895-.667-2-.667S4 17.632 4 18c0 .368.895.667 2 .667Z" clip-rule="evenodd"/><mask id="e" width="4" height="2" x="4" y="17" maskUnits="userSpaceOnUse" style="mask-type:luminance"><path fill="#fff" fill-rule="evenodd" d="M6 18.667c1.105 0 2-.299 2-.667 0-.368-.895-.667-2-.667S4 17.632 4 18c0 .368.895.667 2 .667Z" clip-rule="evenodd"/></mask><path fill="#FBAF29" fill-rule="evenodd" d="M6 12c1.105 0 2-.597 2-1.333 0-.737-.895-1.334-2-1.334s-2 .597-2 1.334C4 11.403 4.895 12 6 12Z" clip-rule="evenodd"/><mask id="f" width="4" height="3" x="4" y="9" maskUnits="userSpaceOnUse" style="mask-type:luminance"><path fill="#fff" fill-rule="evenodd" d="M6 12c1.105 0 2-.597 2-1.333 0-.737-.895-1.334-2-1.334s-2 .597-2 1.334C4 11.403 4.895 12 6 12Z" clip-rule="evenodd"/></mask><g mask="url(#f)"><path fill="#DD404F" fill-rule="evenodd" d="M6 11.333A.667.667 0 1 0 6 10a.667.667 0 0 0 0 1.333Z" clip-rule="evenodd"/><path fill="#28AE67" d="M4 9.333h1.333V12H4zM6.667 9.333H8V12H6.667z"/></g><path fill="#fff" fill-rule="evenodd" d="M14.823 8.238a.667.667 0 1 0 1.021.857.667.667 0 0 0-1.021-.857Zm-1.728 2.585a.667.667 0 1 0-.857 1.021.667.667 0 0 0 .857-1.021Zm-1.333-1.334a.667.667 0 1 0-.857 1.022.667.667 0 0 0 .857-1.022Zm2.666-2.666a.667.667 0 1 0-.857 1.021.667.667 0 0 0 .857-1.021Zm-.666 2a.667.667 0 1 0-.857 1.02.667.667 0 0 0 .857-1.02Z" clip-rule="evenodd"/><path fill="#fff" fill-rule="evenodd" d="M17.476 13.45a4.066 4.066 0 0 1-6.168-.487 4.067 4.067 0 0 0 5.68-5.68 4.066 4.066 0 0 1 .488 6.168Z" clip-rule="evenodd"/></g></svg>