<svg xmlns="http://www.w3.org/2000/svg" fill="none" viewBox="0 0 29 28" focusable="false"><path fill="none" d="M1 0h28v28H1z"/><rect width="28" height="20" x="1" y="4" fill="#fff" rx="3"/><rect width="28" height="20" x="1" y="4" rx="3"/><mask id="Tuvalu_svg__a" width="28" height="20" x="1" y="4" mask-type="alpha" maskUnits="userSpaceOnUse"><rect width="28" height="20" x="1" y="4" fill="#fff" rx="3"/><rect width="28" height="20" x="1" y="4" stroke="#979797" stroke-opacity="0" stroke-width="0" rx="3"/></mask><g mask="url(#Tuvalu_svg__a)"><path fill="#52b3eb" d="M1 4h28v20H1z"/><path d="M1 4h28v20H1z"/></g><g mask="url(#Tuvalu_svg__a)"><path fill="#062365" d="M1 3.991h12.649V14H1z"/><path d="M1 3.991h12.649V14H1z"/></g><g fill-rule="evenodd" mask="url(#Tuvalu_svg__a)"><path fill="#db1e36" d="M5.66 8 1 4h.66l4.67 3.33h1.33L13 4v.49c0 .11-.06.21-.14.27L8.33 8v1.33l4.21 3.61c.16.13.06.39-.14.39-.05 0-.09-.02-.13-.04L7.66 10H6.33L1 13.33v-.67l4.66-3.33z"/><path fill="#fff" d="M1.88 3.33H-.81L5 8.3v.69L.33 12.32v2.21l6.19-3.87h.93l4.43 3.17q.12.08.25.12.13.05.27.05.15 0 .29-.05.13-.05.24-.13.1-.07.17-.17.08-.1.13-.23t.06-.27q0-.12-.03-.24-.03-.14-.09-.25-.08-.12-.19-.23L9 9.02v-.68l4.24-3.04q.1-.07.18-.16.08-.08.13-.19.06-.11.08-.22.03-.12.03-.24v-1.7L7.47 6.66h-.93zm4.45 4-2.52-1.8L1.66 4H1l.41.35.25.22 4 3.43v1.33l-3.33 2.38-1.33.95v.67l.32-.21.34-.21 1.04-.65L6.33 10h1.33l2.52 1.8 1.78 1.26.31.23c.04.02.08.04.13.04.2 0 .3-.26.14-.39l-.29-.25-1.66-1.42-2.26-1.94V8l3.33-2.38 1.2-.86c.08-.06.14-.16.14-.27V4l-.66.41h-.01l-1.04.65-3.63 2.27z"/></g><g mask="url(#Tuvalu_svg__a)"><path fill="#fff" fill-rule="evenodd" d="M1 7.33V10h4.66v3.33c0 .37.3.67.67.67h1.33c.37 0 .67-.3.67-.67V10H13c.36 0 .66-.3.66-.67V8c0-.37-.3-.67-.66-.67H8.33V4H5.66v3.33z"/><path d="M1 10h4.66v3.33c0 .37.3.67.67.67h1.33c.37 0 .67-.3.67-.67V10H13c.36 0 .66-.3.66-.67V8c0-.37-.3-.67-.66-.67H8.33V4H5.66v3.33H1z"/></g><g mask="url(#Tuvalu_svg__a)"><path fill="#db1e36" fill-rule="evenodd" d="M1 8h5.33V4h1.33v4H13v1.33H7.66v4H6.33v-4H1z"/><path d="M6.33 8V4h1.33v4H13v1.33H7.66v4H6.33v-4H1V8z"/></g><g mask="url(#Tuvalu_svg__a)"><path fill="#f9dd4a" d="m25.22 6-.31.96h-1.02l.82.59-.31.96.82-.59.82.59-.32-.96.82-.59h-1.01z"/></g><g mask="url(#Tuvalu_svg__a)"><path fill="#f9dd4a" d="m26.23 12.74-.33 1.02h-1.07l.86.63-.33 1.02.87-.63.87.63-.33-1.02.86-.63h-1.07z"/></g><g mask="url(#Tuvalu_svg__a)"><path fill="#f9dd4a" d="m22.27 14.77-.32.96h-1.01l.82.59-.31.96.82-.59.81.59-.31-.96.82-.59h-1.01z"/></g><g mask="url(#Tuvalu_svg__a)"><path fill="#f9dd4a" d="m11.39 20.16-.32.97h-1.01l.82.59-.31.96.82-.59.81.59-.31-.96.82-.59H11.7z"/></g><g mask="url(#Tuvalu_svg__a)"><path fill="#f9dd4a" d="m21.82 9.1.31.98-.84.6 1.03.01.31.98.32-.97h1.03l-.83-.61.33-.97-.84.59z"/></g><g mask="url(#Tuvalu_svg__a)"><path fill="#f9dd4a" d="m18.15 10.05.32 1.01-.87.61 1.06.01.32 1.01.34-1 1.06.01-.85-.63.33-1.01-.86.62z"/></g><g mask="url(#Tuvalu_svg__a)"><path fill="#f9dd4a" d="m15.51 14.25.31.99-.85.6 1.04.01.31.99.33-.98 1.04.01-.83-.62.33-.99-.85.61z"/></g><g mask="url(#Tuvalu_svg__a)"><path fill="#f9dd4a" d="m19.59 18.04.32.99-.85.61 1.04.01.31.99.33-.99 1.04.01-.83-.62.33-.98-.85.6z"/></g><g mask="url(#Tuvalu_svg__a)"><path fill="#f9dd4a" d="m15.29 19.31.31.99-.84.6 1.04.01.31.99.33-.98 1.04.01-.84-.62.33-.99-.84.61z"/></g></svg>