<svg xmlns="http://www.w3.org/2000/svg" fill="none" viewBox="0 0 28 28" focusable="false"><path fill="none" d="M0 0h28v28H0z"/><rect width="28" height="20" y="4" fill="#FFF" rx="3"/><rect width="28" height="20" y="4" rx="3"/><mask id="Uganda_svg__a" width="28" height="20" x="0" y="4" mask-type="alpha" maskUnits="userSpaceOnUse"><rect width="28" height="20" y="4" fill="#FFF" rx="3"/><rect width="28" height="20" y="4" stroke="#979797" stroke-opacity="0" stroke-width="0" rx="3"/></mask><g mask="url(#Uganda_svg__a)"><path fill="#262626" fill-rule="evenodd" d="M0 6.66h28V4H0z"/><path d="M28 6.66V4H0v2.66z"/></g><g mask="url(#Uganda_svg__a)"><path fill="#262626" fill-rule="evenodd" d="M0 17.33h28v-2.67H0z"/><path d="M28 17.33v-2.67H0v2.67z"/></g><g mask="url(#Uganda_svg__a)"><path fill="#ED1623" fill-rule="evenodd" d="M0 14.66h28v-4H0z"/><path d="M28 14.66v-4H0v4z"/></g><g mask="url(#Uganda_svg__a)"><path fill="#FEE044" fill-rule="evenodd" d="M0 10.66h28v-4H0z"/><path d="M28 10.66v-4H0v4z"/></g><g mask="url(#Uganda_svg__a)"><path fill="#ED1623" fill-rule="evenodd" d="M0 24h28v-2.67H0z"/><path d="M28 24v-2.67H0V24z"/></g><g mask="url(#Uganda_svg__a)"><path fill="#FEE044" fill-rule="evenodd" d="M0 21.33h28v-4H0z"/><path d="M28 21.33v-4H0v4z"/></g><g mask="url(#Uganda_svg__a)"><path fill="#FFF" fill-rule="evenodd" d="M14 18.66a4.665 4.665 0 1 0-.01-9.33 4.665 4.665 0 0 0 .01 9.33"/><path d="M18.66 14c0-2.58-2.09-4.67-4.66-4.67-2.58 0-4.67 2.09-4.67 4.67a4.665 4.665 0 0 0 9.33 0"/></g><g mask="url(#Uganda_svg__a)"><path fill="#262626" fill-rule="evenodd" d="M12.9 11.56a.33.33 0 0 1 0-.47l.41-.41c.01-.01.02-.03.03-.04.04-.05.13-.16.23-.25.18-.16.68-.18.86-.02.04.05.09.1.12.14.08.09.08.21.03.32l-.55 1.09q-.03.075-.03.15v.39c0 .12.07.24.18.29l1.1.55c.03.02.06.04.09.07l1.12 1.12c.1.1.13.26.06.39l-.35.7c-.1.2-.37.25-.53.09l-.11-.11a.33.33 0 0 0-.47 0l-.33.34c-.06.06-.1.14-.1.23v.39c0 .09.04.18.1.24.21.21.06.57-.24.57h-.39c-.29 0-.44-.36-.23-.57.06-.06.1-.15.1-.24v-.19c0-.19-.15-.33-.34-.33h-.19a.34.34 0 0 0-.24.09l-.33.34c-.13.13-.34.13-.47 0l-.2-.2a.33.33 0 0 1 0-.47l.33-.33c.07-.07.15-.1.24-.1h.39c.3 0 .45-.36.24-.57l-1.2-1.2a.33.33 0 0 1 0-.47l.86-.86c.13-.13.13-.34 0-.47z"/><path d="M13.31 10.68c.01-.01.02-.03.03-.04.04-.05.13-.16.23-.25.18-.16.68-.18.86-.02.04.05.09.1.12.14.08.09.08.21.03.32l-.55 1.09q-.03.075-.03.15v.39c0 .12.07.24.18.29l1.1.55c.03.02.06.04.09.07l1.12 1.12c.1.1.13.26.06.39l-.35.7c-.1.2-.37.25-.53.09l-.11-.11a.33.33 0 0 0-.47 0l-.33.34c-.06.06-.1.14-.1.23v.39c0 .09.04.18.1.24.21.21.06.57-.24.57h-.39c-.29 0-.44-.36-.23-.57.06-.06.1-.15.1-.24v-.19c0-.19-.15-.33-.34-.33h-.19a.34.34 0 0 0-.24.09l-.33.34c-.13.13-.34.13-.47 0l-.2-.2a.33.33 0 0 1 0-.47l.33-.33c.07-.07.15-.1.24-.1h.39c.3 0 .45-.36.24-.57l-1.2-1.2a.33.33 0 0 1 0-.47l.86-.86c.13-.13.13-.34 0-.47l-.19-.2a.33.33 0 0 1 0-.47z"/></g></svg>