<svg xmlns="http://www.w3.org/2000/svg" fill="none" viewBox="0 0 28 28" focusable="false"><defs><filter id="Ukraine_svg__a"><feColorMatrix values="0 0 0 0 1 0 0 0 0 1 0 0 0 0 1 0 0 0 1 0"/></filter></defs><mask id="Ukraine_svg__b" width="28" height="20" x="0" y="4" maskUnits="userSpaceOnUse"><g filter="url(#Ukraine_svg__a)"><rect width="28" height="20" y="4" fill="#FFF" rx="3"/><rect width="28" height="20" y="4" stroke="#969696" stroke-opacity="0" stroke-width="0" rx="3"/></g></mask><path fill="none" d="M0 0H28V28H0z"/><rect width="28" height="20" y="4" fill="#FFF" rx="3"/><rect width="28" height="20" y="4" rx="3"/><g mask="url(#Ukraine_svg__b)"><path fill="#156DD1" fill-rule="evenodd" d="M0 14.6667L28 14.6667L28 4L0 4L0 14.6667Z"/><path d="M28 14.6667L28 4L0 4L0 14.6667L28 14.6667Z"/><path fill="#FFD948" fill-rule="evenodd" d="M0 24L28 24L28 14.6666L0 14.6666L0 24Z"/><path d="M28 24L28 14.6666L0 14.6666L0 24L28 24Z"/></g></svg>