<svg xmlns="http://www.w3.org/2000/svg" fill="none" viewBox="0 0 28 28" focusable="false"><rect width="28" height="20" y="4" fill="#fff" rx="3"/><mask id="a" width="28" height="20" x="0" y="4" maskUnits="userSpaceOnUse" style="mask-type:luminance"><rect width="28" height="20" y="4" fill="#fff" rx="3"/></mask><g mask="url(#a)"><path fill="#D02F44" fill-rule="evenodd" d="M28 4H0v1.333h28V4Zm0 2.667H0V8h28V6.667ZM0 9.333h28v1.334H0V9.333ZM28 12H0v1.333h28V12ZM0 14.667h28V16H0v-1.333Zm28 2.666H0v1.334h28v-1.334ZM0 20h28v1.333H0V20Zm28 2.667H0V24h28v-1.333Z" clip-rule="evenodd"/><path fill="#46467F" d="M0 4h12v9.333H0z"/><g filter="url(#b)"><path fill="url(#c)" fill-rule="evenodd" d="M2.667 6a.667.667 0 1 1-1.334 0 .667.667 0 0 1 1.334 0Zm2.666 0A.667.667 0 1 1 4 6a.667.667 0 0 1 1.333 0Zm2 .667a.667.667 0 1 0 0-1.334.667.667 0 0 0 0 1.334ZM10.667 6a.667.667 0 1 1-1.334 0 .667.667 0 0 1 1.334 0ZM3.333 8a.667.667 0 1 0 0-1.333.667.667 0 0 0 0 1.333Zm3.334-.667a.667.667 0 1 1-1.334 0 .667.667 0 0 1 1.334 0Zm2 .667a.667.667 0 1 0 0-1.333.667.667 0 0 0 0 1.333Zm2 .667a.667.667 0 1 1-1.334 0 .667.667 0 0 1 1.334 0Zm-3.334.666a.667.667 0 1 0 0-1.333.667.667 0 0 0 0 1.333Zm-2-.666a.667.667 0 1 1-1.333 0 .667.667 0 0 1 1.333 0ZM2 9.333A.667.667 0 1 0 2 8a.667.667 0 0 0 0 1.333ZM4 10a.667.667 0 1 1-1.333 0A.667.667 0 0 1 4 10Zm2 .667a.667.667 0 1 0 0-1.334.667.667 0 0 0 0 1.334ZM9.333 10A.667.667 0 1 1 8 10a.667.667 0 0 1 1.333 0ZM10 12a.667.667 0 1 0 0-1.333A.667.667 0 0 0 10 12Zm-2-.667a.667.667 0 1 1-1.333 0 .667.667 0 0 1 1.333 0ZM4.667 12a.667.667 0 1 0 0-1.333.667.667 0 0 0 0 1.333Zm-2-.667a.667.667 0 1 1-1.334 0 .667.667 0 0 1 1.334 0Z" clip-rule="evenodd"/></g></g><defs><linearGradient id="c" x1="1.333" x2="1.333" y1="5.333" y2="12" gradientUnits="userSpaceOnUse"><stop stop-color="#fff"/><stop offset="1" stop-color="#F0F0F0"/></linearGradient><filter id="b" width="9.333" height="7.667" x="1.333" y="5.333" color-interpolation-filters="sRGB" filterUnits="userSpaceOnUse"><feFlood flood-opacity="0" result="BackgroundImageFix"/><feColorMatrix in="SourceAlpha" result="hardAlpha" values="0 0 0 0 0 0 0 0 0 0 0 0 0 0 0 0 0 0 127 0"/><feOffset dy="1"/><feColorMatrix values="0 0 0 0 0 0 0 0 0 0 0 0 0 0 0 0 0 0 0.06 0"/><feBlend in2="BackgroundImageFix" result="effect1_dropShadow_17_4283"/><feBlend in="SourceGraphic" in2="effect1_dropShadow_17_4283" result="shape"/></filter></defs></svg>