<svg xmlns="http://www.w3.org/2000/svg" fill="none" viewBox="0 0 28 28" focusable="false"><defs><filter id="United_Arab_Emirates_svg__a"><feColorMatrix values="0 0 0 0 1 0 0 0 0 1 0 0 0 0 1 0 0 0 1 0"/></filter></defs><mask id="United_Arab_Emirates_svg__b" width="28" height="20" x="0" y="4" maskUnits="userSpaceOnUse"><g filter="url(#United_Arab_Emirates_svg__a)"><rect width="28" height="20" y="4" fill="#FFF" rx="3"/><rect width="27.5" height="19.5" x=".25" y="4.25" stroke="#F5F5F5" stroke-width=".5" rx="2.75"/></g></mask><path fill="none" d="M0 0H28V28H0z"/><rect width="28" height="20" y="4" fill="#FFF" rx="3"/><rect width="27.5" height="19.5" x=".25" y="4.25" stroke="#D6D8DD" stroke-width=".5" rx="2.75"/><g mask="url(#United_Arab_Emirates_svg__b)"><path fill="#12833B" fill-rule="evenodd" d="M8 10.6667L28 10.6667L28 4L8 4L8 10.6667Z"/><path d="M28 10.6667L28 4L8 4L8 10.6667L28 10.6667Z"/><path fill="#262626" fill-rule="evenodd" d="M8 24L28 24L28 17.3333L8 17.3333L8 24Z"/><path d="M28 24L28 17.3333L8 17.3333L8 24L28 24Z"/><path fill="#FF323E" fill-rule="evenodd" d="M0 24L8 24L8 4L0 4L0 24Z"/><path d="M8 24L8 4L0 4L0 24L8 24Z"/></g></svg>