<svg xmlns="http://www.w3.org/2000/svg" fill="none" viewBox="0 0 28 28" focusable="false"><rect width="28" height="20" y="4" fill="#fff" rx="3"/><mask id="United_Kingdom_of_Great_Britain_and_Northern_Ireland_svg__a" width="28" height="20" x="0" y="4" maskUnits="userSpaceOnUse" style="mask-type:luminance"><rect width="28" height="20" y="4" fill="#fff" rx="3"/></mask><g mask="url(#United_Kingdom_of_Great_Britain_and_Northern_Ireland_svg__a)"><path fill="#0A17A7" d="M0 4h28v20H0z"/><path fill="#fff" fill-rule="evenodd" d="m-1.282 2.084 11.949 8.06V2.666h6.666v7.476l11.95-8.06 1.49 2.211-9.447 6.373H28v6.666h-6.674l9.448 6.373-1.492 2.21-11.949-8.06v7.477h-6.666v-7.476l-11.95 8.06-1.49-2.211 9.447-6.373H0v-6.666h6.674l-9.448-6.373 1.492-2.21Z" clip-rule="evenodd"/><path stroke="#DB1F35" stroke-linecap="round" stroke-width=".667" d="M18.668 10.332 31.333 2M20.013 17.698l11.354 7.652M8.006 10.31-3.837 2.33M9.29 17.605-3.837 26.31"/><path fill="#E6273E" fill-rule="evenodd" d="M0 16h12v8h4v-8h12v-4H16V4h-4v8H0v4Z" clip-rule="evenodd"/></g></svg>