<svg xmlns="http://www.w3.org/2000/svg" fill="none" viewBox="0 0 28 28" focusable="false"><rect width="28" height="20" y="4" fill="#fff" rx="3"/><mask id="United_States_of_America_svg__a" width="28" height="20" x="0" y="4" maskUnits="userSpaceOnUse" style="mask-type:luminance"><rect width="28" height="20" y="4" fill="#fff" rx="3"/></mask><g mask="url(#United_States_of_America_svg__a)"><path fill="#d02f44" fill-rule="evenodd" d="M28 4H0v1.333h28zm0 2.667H0V8h28zM0 9.333h28v1.334H0zM28 12H0v1.333h28zM0 14.667h28V16H0zm28 2.666H0v1.334h28zM0 20h28v1.333H0zm28 2.667H0V24h28z" clip-rule="evenodd"/><path fill="#46467f" d="M0 4h12v9.333H0z"/><g filter="url(#United_States_of_America_svg__b)"><path fill="url(#United_States_of_America_svg__c)" fill-rule="evenodd" d="M2.667 6a.667.667 0 1 1-1.334 0 .667.667 0 0 1 1.334 0m2.666 0A.667.667 0 1 1 4 6a.667.667 0 0 1 1.333 0m2 .667a.667.667 0 1 0 0-1.334.667.667 0 0 0 0 1.334M10.667 6a.667.667 0 1 1-1.334 0 .667.667 0 0 1 1.334 0M3.333 8a.667.667 0 1 0 0-1.333.667.667 0 0 0 0 1.333m3.334-.667a.667.667 0 1 1-1.334 0 .667.667 0 0 1 1.334 0m2 .667a.667.667 0 1 0 0-1.333.667.667 0 0 0 0 1.333m2 .667a.667.667 0 1 1-1.334 0 .667.667 0 0 1 1.334 0m-3.334.666a.667.667 0 1 0 0-1.333.667.667 0 0 0 0 1.333m-2-.666a.667.667 0 1 1-1.333 0 .667.667 0 0 1 1.333 0M2 9.333A.667.667 0 1 0 2 8a.667.667 0 0 0 0 1.333M4 10a.667.667 0 1 1-1.333 0A.667.667 0 0 1 4 10m2 .667a.667.667 0 1 0 0-1.334.667.667 0 0 0 0 1.334M9.333 10A.667.667 0 1 1 8 10a.667.667 0 0 1 1.333 0M10 12a.667.667 0 1 0 0-1.333A.667.667 0 0 0 10 12m-2-.667a.667.667 0 1 1-1.333 0 .667.667 0 0 1 1.333 0M4.667 12a.667.667 0 1 0 0-1.333.667.667 0 0 0 0 1.333m-2-.667a.667.667 0 1 1-1.334 0 .667.667 0 0 1 1.334 0" clip-rule="evenodd"/></g></g><defs><linearGradient id="United_States_of_America_svg__c" x1="1.333" x2="1.333" y1="5.333" y2="12" gradientUnits="userSpaceOnUse"><stop stop-color="#fff"/><stop offset="1" stop-color="#f0f0f0"/></linearGradient><filter id="United_States_of_America_svg__b" width="9.333" height="7.667" x="1.333" y="5.333" color-interpolation-filters="sRGB" filterUnits="userSpaceOnUse"><feFlood flood-opacity="0" result="BackgroundImageFix"/><feColorMatrix in="SourceAlpha" result="hardAlpha" values="0 0 0 0 0 0 0 0 0 0 0 0 0 0 0 0 0 0 127 0"/><feOffset dy="1"/><feColorMatrix values="0 0 0 0 0 0 0 0 0 0 0 0 0 0 0 0 0 0 0.06 0"/><feBlend in2="BackgroundImageFix" result="effect1_dropShadow_17_4283"/><feBlend in="SourceGraphic" in2="effect1_dropShadow_17_4283" result="shape"/></filter></defs></svg>