<svg xmlns="http://www.w3.org/2000/svg" fill="none" viewBox="0 0 28 28" focusable="false"><defs><filter id="United_States_of_America_svg__a"><feColorMatrix values="0 0 0 0 1 0 0 0 0 1 0 0 0 0 1 0 0 0 1 0"/></filter><filter id="United_States_of_America_svg__c" width="9.333" height="7.667" x="1.333" y="5.333" color-interpolation-filters="sRGB" filterUnits="userSpaceOnUse"><feFlood flood-opacity="0" result="BackgroundImageFix"/><feOffset dy="1" in="SourceAlpha"/><feColorMatrix values="0 0 0 0 0 0 0 0 0 0 0 0 0 0 0 0 0 0 0.06 0"/><feBlend in2="BackgroundImageFix" result="effect_dropShadow_1"/><feBlend in="SourceGraphic" in2="effect_dropShadow_1" result="shape"/></filter><linearGradient id="United_States_of_America_svg__d" x1="1.333" x2="1.333" y1="5.333" y2="12" gradientUnits="userSpaceOnUse"><stop offset="0" stop-color="#FFF"/><stop offset="1" stop-color="#EFEFEF"/></linearGradient></defs><mask id="United_States_of_America_svg__b" width="28" height="20" x="0" y="4" maskUnits="userSpaceOnUse"><g filter="url(#United_States_of_America_svg__a)"><rect width="28" height="20" y="4" fill="#FFF" rx="3"/><rect width="28" height="20" y="4" stroke="#969696" stroke-opacity="0" stroke-width="0" rx="3"/></g></mask><path fill="none" d="M0 0H28V28H0z"/><rect width="28" height="20" y="4" fill="#FFF" rx="3"/><rect width="28" height="20" y="4" rx="3"/><g mask="url(#United_States_of_America_svg__b)"><path fill="#D02F44" fill-rule="evenodd" d="M28 5.33333L28 4L0 4L0 5.33333L28 5.33333ZM28 8L28 6.66667L0 6.66667L0 8L28 8ZM28 10.6667L28 9.33333L0 9.33333L0 10.6667L28 10.6667ZM28 13.3333L28 12L0 12L0 13.3333L28 13.3333ZM28 16L28 14.6667L0 14.6667L0 16L28 16ZM28 18.6667L28 17.3333L0 17.3333L0 18.6667L28 18.6667ZM28 21.3333L28 20L0 20L0 21.3333L28 21.3333ZM28 24L28 22.6667L0 22.6667L0 24L28 24Z"/><path d="M28 5.33333L28 4L0 4L0 5.33333L28 5.33333ZM28 8L28 6.66667L0 6.66667L0 8L28 8ZM28 10.6667L28 9.33333L0 9.33333L0 10.6667L28 10.6667ZM28 13.3333L28 12L0 12L0 13.3333L28 13.3333ZM28 16L28 14.6667L0 14.6667L0 16L28 16ZM28 18.6667L28 17.3333L0 17.3333L0 18.6667L28 18.6667ZM28 21.3333L28 20L0 20L0 21.3333L28 21.3333ZM28 24L28 22.6667L0 22.6667L0 24L28 24Z"/><path fill="#46467F" d="M0 4H12V13.333H0z"/><path d="M0 4H12V13.333H0z"/><g filter="url(#United_States_of_America_svg__c)"><path fill="url(#United_States_of_America_svg__d)" fill-rule="evenodd" d="M2.66671 6.00004C2.66671 6.36823 2.36823 6.66671 2.00004 6.66671C1.63185 6.66671 1.33337 6.36823 1.33337 6.00004C1.33337 5.63185 1.63185 5.33337 2.00004 5.33337C2.36823 5.33337 2.66671 5.63185 2.66671 6.00004ZM5.33337 6.00004C5.33337 6.36823 5.0349 6.66671 4.66671 6.66671C4.29852 6.66671 4.00004 6.36823 4.00004 6.00004C4.00004 5.63185 4.29852 5.33337 4.66671 5.33337C5.0349 5.33337 5.33337 5.63185 5.33337 6.00004ZM8.00004 6.00004C8.00004 6.36823 7.70156 6.66671 7.33337 6.66671C6.96518 6.66671 6.66671 6.36823 6.66671 6.00004C6.66671 5.63185 6.96518 5.33337 7.33337 5.33337C7.70156 5.33337 8.00004 5.63185 8.00004 6.00004ZM10.6667 6.00004C10.6667 6.36823 10.3682 6.66671 10 6.66671C9.63185 6.66671 9.33337 6.36823 9.33337 6.00004C9.33337 5.63185 9.63185 5.33337 10 5.33337C10.3682 5.33337 10.6667 5.63185 10.6667 6.00004ZM3.33337 8.00004C3.70156 8.00004 4.00004 7.70156 4.00004 7.33337C4.00004 6.96518 3.70156 6.66671 3.33337 6.66671C2.96518 6.66671 2.66671 6.96518 2.66671 7.33337C2.66671 7.70156 2.96518 8.00004 3.33337 8.00004ZM6.00004 8.00004C6.36823 8.00004 6.66671 7.70156 6.66671 7.33337C6.66671 6.96518 6.36823 6.66671 6.00004 6.66671C5.63185 6.66671 5.33337 6.96518 5.33337 7.33337C5.33337 7.70156 5.63185 8.00004 6.00004 8.00004ZM8.66671 8.00004C9.0349 8.00004 9.33337 7.70156 9.33337 7.33337C9.33337 6.96518 9.0349 6.66671 8.66671 6.66671C8.29852 6.66671 8.00004 6.96518 8.00004 7.33337C8.00004 7.70156 8.29852 8.00004 8.66671 8.00004ZM2.00004 9.33337C2.36823 9.33337 2.66671 9.0349 2.66671 8.66671C2.66671 8.29852 2.36823 8.00004 2.00004 8.00004C1.63185 8.00004 1.33337 8.29852 1.33337 8.66671C1.33337 9.0349 1.63185 9.33337 2.00004 9.33337ZM4.66671 9.33337C5.0349 9.33337 5.33337 9.0349 5.33337 8.66671C5.33337 8.29852 5.0349 8.00004 4.66671 8.00004C4.29852 8.00004 4.00004 8.29852 4.00004 8.66671C4.00004 9.0349 4.29852 9.33337 4.66671 9.33337ZM7.33337 9.33337C7.70156 9.33337 8.00004 9.0349 8.00004 8.66671C8.00004 8.29852 7.70156 8.00004 7.33337 8.00004C6.96518 8.00004 6.66671 8.29852 6.66671 8.66671C6.66671 9.0349 6.96518 9.33337 7.33337 9.33337ZM10 9.33337C10.3682 9.33337 10.6667 9.0349 10.6667 8.66671C10.6667 8.29852 10.3682 8.00004 10 8.00004C9.63185 8.00004 9.33337 8.29852 9.33337 8.66671C9.33337 9.0349 9.63185 9.33337 10 9.33337ZM3.33337 10.6667C3.70156 10.6667 4.00004 10.3682 4.00004 10C4.00004 9.63185 3.70156 9.33337 3.33337 9.33337C2.96518 9.33337 2.66671 9.63185 2.66671 10C2.66671 10.3682 2.96518 10.6667 3.33337 10.6667ZM6.00004 10.6667C6.36823 10.6667 6.66671 10.3682 6.66671 10C6.66671 9.63185 6.36823 9.33337 6.00004 9.33337C5.63185 9.33337 5.33337 9.63185 5.33337 10C5.33337 10.3682 5.63185 10.6667 6.00004 10.6667ZM8.66671 10.6667C9.0349 10.6667 9.33337 10.3682 9.33337 10C9.33337 9.63185 9.0349 9.33337 8.66671 9.33337C8.29852 9.33337 8.00004 9.63185 8.00004 10C8.00004 10.3682 8.29852 10.6667 8.66671 10.6667ZM2.00004 12C2.36823 12 2.66671 11.7016 2.66671 11.3334C2.66671 10.9652 2.36823 10.6667 2.00004 10.6667C1.63185 10.6667 1.33337 10.9652 1.33337 11.3334C1.33337 11.7016 1.63185 12 2.00004 12ZM4.66671 12C5.0349 12 5.33337 11.7016 5.33337 11.3334C5.33337 10.9652 5.0349 10.6667 4.66671 10.6667C4.29852 10.6667 4.00004 10.9652 4.00004 11.3334C4.00004 11.7016 4.29852 12 4.66671 12ZM7.33337 12C7.70156 12 8.00004 11.7016 8.00004 11.3334C8.00004 10.9652 7.70156 10.6667 7.33337 10.6667C6.96518 10.6667 6.66671 10.9652 6.66671 11.3334C6.66671 11.7016 6.96518 12 7.33337 12ZM10 12C10.3682 12 10.6667 11.7016 10.6667 11.3334C10.6667 10.9652 10.3682 10.6667 10 10.6667C9.63185 10.6667 9.33337 10.9652 9.33337 11.3334C9.33337 11.7016 9.63185 12 10 12Z"/><path d="M2.66671 6.00004C2.66671 6.36823 2.36823 6.66671 2.00004 6.66671C1.63185 6.66671 1.33337 6.36823 1.33337 6.00004C1.33337 5.63185 1.63185 5.33337 2.00004 5.33337C2.36823 5.33337 2.66671 5.63185 2.66671 6.00004ZM5.33337 6.00004C5.33337 6.36823 5.0349 6.66671 4.66671 6.66671C4.29852 6.66671 4.00004 6.36823 4.00004 6.00004C4.00004 5.63185 4.29852 5.33337 4.66671 5.33337C5.0349 5.33337 5.33337 5.63185 5.33337 6.00004ZM8.00004 6.00004C8.00004 6.36823 7.70156 6.66671 7.33337 6.66671C6.96518 6.66671 6.66671 6.36823 6.66671 6.00004C6.66671 5.63185 6.96518 5.33337 7.33337 5.33337C7.70156 5.33337 8.00004 5.63185 8.00004 6.00004ZM10.6667 6.00004C10.6667 6.36823 10.3682 6.66671 10 6.66671C9.63185 6.66671 9.33337 6.36823 9.33337 6.00004C9.33337 5.63185 9.63185 5.33337 10 5.33337C10.3682 5.33337 10.6667 5.63185 10.6667 6.00004ZM3.33337 8.00004C3.70156 8.00004 4.00004 7.70156 4.00004 7.33337C4.00004 6.96518 3.70156 6.66671 3.33337 6.66671C2.96518 6.66671 2.66671 6.96518 2.66671 7.33337C2.66671 7.70156 2.96518 8.00004 3.33337 8.00004ZM6.00004 8.00004C6.36823 8.00004 6.66671 7.70156 6.66671 7.33337C6.66671 6.96518 6.36823 6.66671 6.00004 6.66671C5.63185 6.66671 5.33337 6.96518 5.33337 7.33337C5.33337 7.70156 5.63185 8.00004 6.00004 8.00004ZM8.66671 8.00004C9.0349 8.00004 9.33337 7.70156 9.33337 7.33337C9.33337 6.96518 9.0349 6.66671 8.66671 6.66671C8.29852 6.66671 8.00004 6.96518 8.00004 7.33337C8.00004 7.70156 8.29852 8.00004 8.66671 8.00004ZM2.00004 9.33337C2.36823 9.33337 2.66671 9.0349 2.66671 8.66671C2.66671 8.29852 2.36823 8.00004 2.00004 8.00004C1.63185 8.00004 1.33337 8.29852 1.33337 8.66671C1.33337 9.0349 1.63185 9.33337 2.00004 9.33337ZM4.66671 9.33337C5.0349 9.33337 5.33337 9.0349 5.33337 8.66671C5.33337 8.29852 5.0349 8.00004 4.66671 8.00004C4.29852 8.00004 4.00004 8.29852 4.00004 8.66671C4.00004 9.0349 4.29852 9.33337 4.66671 9.33337ZM7.33337 9.33337C7.70156 9.33337 8.00004 9.0349 8.00004 8.66671C8.00004 8.29852 7.70156 8.00004 7.33337 8.00004C6.96518 8.00004 6.66671 8.29852 6.66671 8.66671C6.66671 9.0349 6.96518 9.33337 7.33337 9.33337ZM10 9.33337C10.3682 9.33337 10.6667 9.0349 10.6667 8.66671C10.6667 8.29852 10.3682 8.00004 10 8.00004C9.63185 8.00004 9.33337 8.29852 9.33337 8.66671C9.33337 9.0349 9.63185 9.33337 10 9.33337ZM3.33337 10.6667C3.70156 10.6667 4.00004 10.3682 4.00004 10C4.00004 9.63185 3.70156 9.33337 3.33337 9.33337C2.96518 9.33337 2.66671 9.63185 2.66671 10C2.66671 10.3682 2.96518 10.6667 3.33337 10.6667ZM6.00004 10.6667C6.36823 10.6667 6.66671 10.3682 6.66671 10C6.66671 9.63185 6.36823 9.33337 6.00004 9.33337C5.63185 9.33337 5.33337 9.63185 5.33337 10C5.33337 10.3682 5.63185 10.6667 6.00004 10.6667ZM8.66671 10.6667C9.0349 10.6667 9.33337 10.3682 9.33337 10C9.33337 9.63185 9.0349 9.33337 8.66671 9.33337C8.29852 9.33337 8.00004 9.63185 8.00004 10C8.00004 10.3682 8.29852 10.6667 8.66671 10.6667ZM2.00004 12C2.36823 12 2.66671 11.7016 2.66671 11.3334C2.66671 10.9652 2.36823 10.6667 2.00004 10.6667C1.63185 10.6667 1.33337 10.9652 1.33337 11.3334C1.33337 11.7016 1.63185 12 2.00004 12ZM4.66671 12C5.0349 12 5.33337 11.7016 5.33337 11.3334C5.33337 10.9652 5.0349 10.6667 4.66671 10.6667C4.29852 10.6667 4.00004 10.9652 4.00004 11.3334C4.00004 11.7016 4.29852 12 4.66671 12ZM7.33337 12C7.70156 12 8.00004 11.7016 8.00004 11.3334C8.00004 10.9652 7.70156 10.6667 7.33337 10.6667C6.96518 10.6667 6.66671 10.9652 6.66671 11.3334C6.66671 11.7016 6.96518 12 7.33337 12ZM10 12C10.3682 12 10.6667 11.7016 10.6667 11.3334C10.6667 10.9652 10.3682 10.6667 10 10.6667C9.63185 10.6667 9.33337 10.9652 9.33337 11.3334C9.33337 11.7016 9.63185 12 10 12Z"/></g></g></svg>