<svg xmlns="http://www.w3.org/2000/svg" fill="none" viewBox="0 0 28 28" focusable="false"><path fill="none" d="M0 0h28v28H0z"/><rect width="28" height="20" y="4" fill="#FFF" rx="3"/><rect width="27.5" height="19.5" x=".25" y="4.25" stroke="#D6D8DD" stroke-width=".5" rx="3"/><mask id="Uruguay_svg__a" width="28" height="20" x="0" y="4" mask-type="alpha" maskUnits="userSpaceOnUse"><rect width="28" height="20" y="4" fill="#FFF" rx="3"/><rect width="27.5" height="19.5" x=".25" y="4.25" stroke="#F5F5F5" stroke-width=".5" rx="3"/></mask><g mask="url(#Uruguay_svg__a)"><mask id="Uruguay_svg__b" fill="#fff"><path fill-rule="evenodd" d="M28 6.667H13.333v2.666H28zM13.333 12v2.667H28V12zm0 5.333H0V20h28v-2.667zM0 24v-1.333h28V24z" clip-rule="evenodd"/></mask><path fill="#0E4DC5" fill-rule="evenodd" d="M28 6.667H13.333v2.666H28zM13.333 12v2.667H28V12zm0 5.333H0V20h28v-2.667zM0 24v-1.333h28V24z" clip-rule="evenodd" mask="url(#Uruguay_svg__b)"/></g><g mask="url(#Uruguay_svg__a)"><mask id="Uruguay_svg__c" fill="#fff"><path fill-rule="evenodd" d="m6.667 13.321-.89 1.329-.226-1.583-1.378.81.484-1.524-1.594.133 1.097-1.164-1.493-.572 1.493-.572-1.097-1.163 1.594.132-.484-1.524 1.378.81.226-1.582.89 1.328.89-1.328.225 1.583 1.379-.811-.484 1.524 1.594-.132-1.098 1.163 1.494.572-1.494.572 1.098 1.164-1.594-.133.484 1.525-1.379-.811-.225 1.583zm2.545-2.57a2.546 2.546 0 1 1-5.09 0 2.546 2.546 0 0 1 5.09 0m-.545-.084a2 2 0 1 1-4 0 2 2 0 0 1 4 0" clip-rule="evenodd"/></mask><path fill="#FED443" fill-rule="evenodd" d="m6.667 13.321-.89 1.329-.226-1.583-1.378.81.484-1.524-1.594.133 1.097-1.164-1.493-.572 1.493-.572-1.097-1.163 1.594.132-.484-1.524 1.378.81.226-1.582.89 1.328.89-1.328.225 1.583 1.379-.811-.484 1.524 1.594-.132-1.098 1.163 1.494.572-1.494.572 1.098 1.164-1.594-.133.484 1.525-1.379-.811-.225 1.583zm2.545-2.57a2.546 2.546 0 1 1-5.09 0 2.546 2.546 0 0 1 5.09 0m-.545-.084a2 2 0 1 1-4 0 2 2 0 0 1 4 0" clip-rule="evenodd" mask="url(#Uruguay_svg__c)"/></g></svg>