<svg xmlns="http://www.w3.org/2000/svg" fill="none" viewBox="0 0 28 28" focusable="false"><rect width="27.5" height="19.5" x=".25" y="4.25" fill="#fff" stroke="#D6D8DD" stroke-width=".5" rx="2.75"/><mask id="a" width="28" height="20" x="0" y="4" maskUnits="userSpaceOnUse" style="mask-type:luminance"><rect width="27.5" height="19.5" x=".25" y="4.25" fill="#fff" stroke="#fff" stroke-width=".5" rx="2.75"/></mask><g fill-rule="evenodd" clip-rule="evenodd" mask="url(#a)"><path fill="#04AAC8" d="M0 10.667h28V4H0v6.667Z"/><path fill="#23C840" d="M0 24h28v-6.667H0V24Z"/><path fill="#fff" d="M4.667 9.333a1.99 1.99 0 0 0 1.111-.337 1.667 1.667 0 1 1 0-3.326 2 2 0 1 0-1.111 3.663ZM8 8.667a.667.667 0 1 1-1.333 0 .667.667 0 0 1 1.333 0Zm2-2a.667.667 0 1 0 0-1.334.667.667 0 0 0 0 1.334ZM13.333 6A.667.667 0 1 1 12 6a.667.667 0 0 1 1.333 0Zm-.666 3.333a.667.667 0 1 0 0-1.333.667.667 0 0 0 0 1.333Zm-2-.666a.667.667 0 1 1-1.334 0 .667.667 0 0 1 1.334 0Z"/></g></svg>