<svg xmlns="http://www.w3.org/2000/svg" fill="none" viewBox="0 0 28 28" focusable="false"><defs><filter id="Uzbekistan_svg__a"><feColorMatrix values="0 0 0 0 1 0 0 0 0 1 0 0 0 0 1 0 0 0 1 0"/></filter></defs><mask id="Uzbekistan_svg__b" width="28" height="20" x="0" y="4" maskUnits="userSpaceOnUse"><g filter="url(#Uzbekistan_svg__a)"><rect width="28" height="20" y="4" fill="#FFF" rx="3"/><rect width="27.5" height="19.5" x=".25" y="4.25" stroke="#F5F5F5" stroke-width=".5" rx="2.75"/></g></mask><path fill="none" d="M0 0H28V28H0z"/><rect width="28" height="20" y="4" fill="#FFF" rx="3"/><rect width="27.5" height="19.5" x=".25" y="4.25" stroke="#D6D8DD" stroke-width=".5" rx="2.75"/><g mask="url(#Uzbekistan_svg__b)"><path fill="#04AAC8" fill-rule="evenodd" d="M0 10.6667L28 10.6667L28 4L0 4L0 10.6667Z"/><path d="M28 10.6667L28 4L0 4L0 10.6667L28 10.6667Z"/><path fill="#23C840" fill-rule="evenodd" d="M0 24L28 24L28 17.3334L0 17.3334L0 24Z"/><path d="M28 24L28 17.3334L0 17.3334L0 24L28 24Z"/><path fill="#FFF" fill-rule="evenodd" d="M5.77808 8.99638C5.46022 9.20923 5.07794 9.33337 4.66666 9.33337C3.56209 9.33337 2.66666 8.43794 2.66666 7.33337C2.66666 6.2288 3.56209 5.33337 4.66666 5.33337C5.07794 5.33337 5.46022 5.45752 5.77808 5.67037C5.74125 5.66794 5.7041 5.66671 5.66666 5.66671C4.74618 5.66671 3.99999 6.4129 3.99999 7.33337C3.99999 8.25385 4.74618 9.00004 5.66666 9.00004C5.7041 9.00004 5.74125 8.99881 5.77808 8.99638ZM10.6667 6.00004C10.6667 6.36823 10.3682 6.66671 9.99999 6.66671C9.6318 6.66671 9.33332 6.36823 9.33332 6.00004C9.33332 5.63185 9.6318 5.33337 9.99999 5.33337C10.3682 5.33337 10.6667 5.63185 10.6667 6.00004ZM13.3333 6.00004C13.3333 6.36823 13.0348 6.66671 12.6667 6.66671C12.2985 6.66671 12 6.36823 12 6.00004C12 5.63185 12.2985 5.33337 12.6667 5.33337C13.0348 5.33337 13.3333 5.63185 13.3333 6.00004ZM7.99999 8.66671C7.99999 9.0349 7.70151 9.33337 7.33332 9.33337C6.96513 9.33337 6.66666 9.0349 6.66666 8.66671C6.66666 8.29852 6.96513 8.00004 7.33332 8.00004C7.70151 8.00004 7.99999 8.29852 7.99999 8.66671ZM9.99999 9.33337C10.3682 9.33337 10.6667 9.0349 10.6667 8.66671C10.6667 8.29852 10.3682 8.00004 9.99999 8.00004C9.6318 8.00004 9.33332 8.29852 9.33332 8.66671C9.33332 9.0349 9.6318 9.33337 9.99999 9.33337ZM13.3333 8.66671C13.3333 9.0349 13.0348 9.33337 12.6667 9.33337C12.2985 9.33337 12 9.0349 12 8.66671C12 8.29852 12.2985 8.00004 12.6667 8.00004C13.0348 8.00004 13.3333 8.29852 13.3333 8.66671Z"/><path d="M5.77808 8.99638C5.46022 9.20923 5.07794 9.33337 4.66666 9.33337C3.56209 9.33337 2.66666 8.43794 2.66666 7.33337C2.66666 6.2288 3.56209 5.33337 4.66666 5.33337C5.07794 5.33337 5.46022 5.45752 5.77808 5.67037C5.74125 5.66794 5.7041 5.66671 5.66666 5.66671C4.74618 5.66671 3.99999 6.4129 3.99999 7.33337C3.99999 8.25385 4.74618 9.00004 5.66666 9.00004C5.7041 9.00004 5.74125 8.99881 5.77808 8.99638ZM10.6667 6.00004C10.6667 6.36823 10.3682 6.66671 9.99999 6.66671C9.6318 6.66671 9.33332 6.36823 9.33332 6.00004C9.33332 5.63185 9.6318 5.33337 9.99999 5.33337C10.3682 5.33337 10.6667 5.63185 10.6667 6.00004ZM13.3333 6.00004C13.3333 6.36823 13.0348 6.66671 12.6667 6.66671C12.2985 6.66671 12 6.36823 12 6.00004C12 5.63185 12.2985 5.33337 12.6667 5.33337C13.0348 5.33337 13.3333 5.63185 13.3333 6.00004ZM7.99999 8.66671C7.99999 9.0349 7.70151 9.33337 7.33332 9.33337C6.96513 9.33337 6.66666 9.0349 6.66666 8.66671C6.66666 8.29852 6.96513 8.00004 7.33332 8.00004C7.70151 8.00004 7.99999 8.29852 7.99999 8.66671ZM9.99999 9.33337C10.3682 9.33337 10.6667 9.0349 10.6667 8.66671C10.6667 8.29852 10.3682 8.00004 9.99999 8.00004C9.6318 8.00004 9.33332 8.29852 9.33332 8.66671C9.33332 9.0349 9.6318 9.33337 9.99999 9.33337ZM13.3333 8.66671C13.3333 9.0349 13.0348 9.33337 12.6667 9.33337C12.2985 9.33337 12 9.0349 12 8.66671C12 8.29852 12.2985 8.00004 12.6667 8.00004C13.0348 8.00004 13.3333 8.29852 13.3333 8.66671Z"/></g></svg>