<svg xmlns="http://www.w3.org/2000/svg" fill="none" viewBox="0 0 28 28" focusable="false"><rect width="27.5" height="19.5" x=".25" y="4.25" fill="#fff" stroke="#d6d8dd" stroke-width=".5" rx="2.75"/><mask id="Uzbekistan_svg__a" width="28" height="20" x="0" y="4" maskUnits="userSpaceOnUse" style="mask-type:luminance"><rect width="27.5" height="19.5" x=".25" y="4.25" fill="#fff" stroke="#fff" stroke-width=".5" rx="2.75"/></mask><g fill-rule="evenodd" clip-rule="evenodd" mask="url(#Uzbekistan_svg__a)"><path fill="#04aac8" d="M0 10.667h28V4H0z"/><path fill="#23c840" d="M0 24h28v-6.667H0z"/><path fill="#fff" d="M4.667 9.333a2 2 0 0 0 1.111-.337L5.667 9a1.667 1.667 0 1 1 .111-3.33 2 2 0 1 0-1.111 3.663M8 8.667a.667.667 0 1 1-1.333 0 .667.667 0 0 1 1.333 0m2-2a.667.667 0 1 0 0-1.334.667.667 0 0 0 0 1.334M13.333 6A.667.667 0 1 1 12 6a.667.667 0 0 1 1.333 0m-.666 3.333a.667.667 0 1 0 0-1.333.667.667 0 0 0 0 1.333m-2-.666a.667.667 0 1 1-1.334 0 .667.667 0 0 1 1.334 0"/></g></svg>