<svg xmlns="http://www.w3.org/2000/svg" fill="none" viewBox="0 0 28 28" focusable="false"><path fill="none" d="M0 0h28v28H0z"/><rect width="28" height="20" y="4" fill="#FFF" rx="3"/><rect width="27.5" height="19.5" x=".25" y="4.25" stroke="#D6D8DD" stroke-width=".5" rx="3"/><mask id="Uzbekistan_svg__a" width="28" height="20" x="0" y="4" mask-type="alpha" maskUnits="userSpaceOnUse"><rect width="28" height="20" y="4" fill="#FFF" rx="3"/><rect width="27.5" height="19.5" x=".25" y="4.25" stroke="#F5F5F5" stroke-width=".5" rx="3"/></mask><g mask="url(#Uzbekistan_svg__a)"><path fill="#04AAC8" fill-rule="evenodd" d="M0 10.66h28V4H0z"/><path d="M28 10.66V4H0v6.66z"/></g><g mask="url(#Uzbekistan_svg__a)"><path fill="#23C840" fill-rule="evenodd" d="M0 24h28v-6.67H0z"/><path d="M28 24v-6.67H0V24z"/></g><g mask="url(#Uzbekistan_svg__a)"><mask id="Uzbekistan_svg__b" fill="#fff"><path fill-rule="evenodd" d="M5.778 8.996a2 2 0 1 1 0-3.326l-.111-.003a1.667 1.667 0 1 0 .111 3.33M10 6.666a.667.667 0 1 0 0-1.333.667.667 0 0 0 0 1.334M13.333 6A.667.667 0 1 1 12 6a.667.667 0 0 1 1.333 0M8 8.667a.667.667 0 1 1-1.333 0 .667.667 0 0 1 1.333 0m2.667 0a.667.667 0 1 1-1.334 0 .667.667 0 0 1 1.334 0m2 .666a.667.667 0 1 0 0-1.333.667.667 0 0 0 0 1.333" clip-rule="evenodd"/></mask><path fill="#FFF" fill-rule="evenodd" d="M5.778 8.996a2 2 0 1 1 0-3.326l-.111-.003a1.667 1.667 0 1 0 .111 3.33M10 6.666a.667.667 0 1 0 0-1.333.667.667 0 0 0 0 1.334M13.333 6A.667.667 0 1 1 12 6a.667.667 0 0 1 1.333 0M8 8.667a.667.667 0 1 1-1.333 0 .667.667 0 0 1 1.333 0m2.667 0a.667.667 0 1 1-1.334 0 .667.667 0 0 1 1.334 0m2 .666a.667.667 0 1 0 0-1.333.667.667 0 0 0 0 1.333" clip-rule="evenodd" mask="url(#Uzbekistan_svg__b)"/></g></svg>