<svg xmlns="http://www.w3.org/2000/svg" fill="none" viewBox="0 0 29 28" focusable="false"><defs><filter id="Vanuatu_svg__b" width="28" height="8" x="1" y="16" color-interpolation-filters="sRGB" filterUnits="userSpaceOnUse"><feFlood flood-opacity="0" result="BackgroundImageFix"/><feColorMatrix in="SourceAlpha" result="hardAlpha" values="0 0 0 0 0 0 0 0 0 0 0 0 0 0 0 0 0 0 127 0"/><feOffset/><feGaussianBlur/><feComposite in2="hardAlpha" k2="-1" k3="1" operator="out"/><feColorMatrix values="0 0 0 0 0 0 0 0 0 0 0 0 0 0 0 0 0 0 0.059 0"/><feBlend in2="BackgroundImageFix" result="effect_dropShadow_1"/><feBlend in="SourceGraphic" in2="effect_dropShadow_1" result="shape"/></filter><filter id="Vanuatu_svg__c" width="28" height="8" x="1" y="4" color-interpolation-filters="sRGB" filterUnits="userSpaceOnUse"><feFlood flood-opacity="0" result="BackgroundImageFix"/><feColorMatrix in="SourceAlpha" result="hardAlpha" values="0 0 0 0 0 0 0 0 0 0 0 0 0 0 0 0 0 0 127 0"/><feOffset/><feGaussianBlur/><feComposite in2="hardAlpha" k2="-1" k3="1" operator="out"/><feColorMatrix values="0 0 0 0 0 0 0 0 0 0 0 0 0 0 0 0 0 0 0.059 0"/><feBlend in2="BackgroundImageFix" result="effect_dropShadow_1"/><feBlend in="SourceGraphic" in2="effect_dropShadow_1" result="shape"/></filter></defs><path fill="none" d="M1 0h28v28H1z"/><rect width="28" height="20" x="1" y="4" fill="#fff" rx="3"/><rect width="28" height="20" x="1" y="4" rx="3"/><mask id="Vanuatu_svg__a" width="28" height="20" x="1" y="4" mask-type="alpha" maskUnits="userSpaceOnUse"><rect width="28" height="20" x="1" y="4" fill="#fff" rx="3"/><rect width="28" height="20" x="1" y="4" stroke="#979797" stroke-opacity="0" stroke-width="0" rx="3"/></mask><g mask="url(#Vanuatu_svg__a)"><g filter="url(#Vanuatu_svg__b)"><path fill="#009543" fill-rule="evenodd" d="M1 24h28v-8H1z"/></g><path d="M29 24v-8H1v8z"/></g><g mask="url(#Vanuatu_svg__a)"><g filter="url(#Vanuatu_svg__c)"><path fill="#d21034" fill-rule="evenodd" d="M1 12h28V4H1z"/></g><path d="M29 12V4H1v8z"/></g><g mask="url(#Vanuatu_svg__a)"><path fill="#262626" fill-rule="evenodd" d="M1 16h28v-4H1z"/><path d="M29 16v-4H1v4z"/></g><g mask="url(#Vanuatu_svg__a)"><path fill="#262626" fill-rule="evenodd" d="m1 4 13.33 10L1 24z"/><path d="M14.33 14 1 24V4z"/></g><g mask="url(#Vanuatu_svg__a)"><path fill="none" d="m-.34 5.33 12 8.67-12 8.66z"/><path fill="#fdce12" fill-rule="evenodd" d="m10.52 13.17 1.14.83-1.14.82L1 21.7l-1.34.96V5.33L1 6.29zM1 7.94 9.38 14 1 20.05z"/></g><g mask="url(#Vanuatu_svg__a)"><path fill="#fdce12" fill-rule="evenodd" d="M10.33 14.66H29v-1.33H10.33z"/><path d="M29 14.66v-1.33H10.33v1.33z"/></g></svg>