<svg xmlns="http://www.w3.org/2000/svg" fill="none" viewBox="0 0 28 28" focusable="false"><defs><filter id="Vanuatu_svg__a"><feColorMatrix values="0 0 0 0 1 0 0 0 0 1 0 0 0 0 1 0 0 0 1 0"/></filter><filter id="Vanuatu_svg__c" width="28" height="8" x="0" y="16" color-interpolation-filters="sRGB" filterUnits="userSpaceOnUse"><feFlood flood-opacity="0" result="BackgroundImageFix"/><feOffset in="SourceAlpha"/><feColorMatrix values="0 0 0 0 0 0 0 0 0 0 0 0 0 0 0 0 0 0 0.06 0"/><feBlend in2="BackgroundImageFix" result="effect_dropShadow_1"/><feBlend in="SourceGraphic" in2="effect_dropShadow_1" result="shape"/></filter><filter id="Vanuatu_svg__d" width="28" height="8" x="0" y="4" color-interpolation-filters="sRGB" filterUnits="userSpaceOnUse"><feFlood flood-opacity="0" result="BackgroundImageFix"/><feOffset in="SourceAlpha"/><feColorMatrix values="0 0 0 0 0 0 0 0 0 0 0 0 0 0 0 0 0 0 0.06 0"/><feBlend in2="BackgroundImageFix" result="effect_dropShadow_1"/><feBlend in="SourceGraphic" in2="effect_dropShadow_1" result="shape"/></filter></defs><mask id="Vanuatu_svg__b" width="28" height="20" x="0" y="4" maskUnits="userSpaceOnUse"><g filter="url(#Vanuatu_svg__a)"><rect width="28" height="20" y="4" fill="#FFF" rx="3"/><rect width="28" height="20" y="4" stroke="#969696" stroke-opacity="0" stroke-width="0" rx="3"/></g></mask><path fill="none" d="M0 0H28V28H0z"/><rect width="28" height="20" y="4" fill="#FFF" rx="3"/><rect width="28" height="20" y="4" rx="3"/><g mask="url(#Vanuatu_svg__b)"><g filter="url(#Vanuatu_svg__c)"><path fill="#009543" fill-rule="evenodd" d="M0 24L28 24L28 16L0 16L0 24Z"/><path d="M28 24L28 16L0 16L0 24L28 24Z"/></g><g filter="url(#Vanuatu_svg__d)"><path fill="#D21034" fill-rule="evenodd" d="M0 12L28 12L28 4L0 4L0 12Z"/><path d="M28 12L28 4L0 4L0 12L28 12Z"/></g><path fill="#262626" fill-rule="evenodd" d="M0 16L28 16L28 12L0 12L0 16Z"/><path d="M28 16L28 12L0 12L0 16L28 16Z"/><path fill="#262626" fill-rule="evenodd" d="M0 4L13.3333 14L0 24L0 4Z"/><path d="M13.3333 14L0 24L0 4L13.3333 14Z"/><path fill="none" d="M-1.33334 5.33337L10.6667 14L-1.33334 22.6667L-1.33334 5.33337Z"/><path fill="#FDCE12" fill-rule="evenodd" d="M9.52801 13.1777L10.6667 14L9.52801 14.8224L-1.01328e-05 21.7037L-1.33334 22.6667L-1.33334 5.33337L-1.01328e-05 6.29634L9.52801 13.1777ZM-1.01328e-05 7.94105L8.38936 14L-1.01328e-05 20.059L-1.01328e-05 7.94105Z"/><path fill="#FDCE12" fill-rule="evenodd" d="M9.33334 14.6667L28 14.6667L28 13.3334L9.33334 13.3334L9.33334 14.6667Z"/><path d="M28 14.6667L28 13.3334L9.33334 13.3334L9.33334 14.6667L28 14.6667Z"/></g></svg>