<svg xmlns="http://www.w3.org/2000/svg" fill="none" viewBox="0 0 28 28" focusable="false"><path fill="none" d="M0 0h28v28H0z"/><rect width="28" height="20" y="4" fill="#FFF" rx="3"/><rect width="28" height="20" y="4" rx="3"/><mask id="Venezuela_svg__a" width="28" height="20" x="0" y="4" mask-type="alpha" maskUnits="userSpaceOnUse"><rect width="28" height="20" y="4" fill="#FFF" rx="3"/><rect width="28" height="20" y="4" stroke="#979797" stroke-opacity="0" stroke-width="0" rx="3"/></mask><g mask="url(#Venezuela_svg__a)"><path fill="#063191" fill-rule="evenodd" d="M0 17.33h28v-6.67H0z"/><path d="M28 17.33v-6.67H0v6.67z"/></g><g mask="url(#Venezuela_svg__a)"><path fill="#E2213B" fill-rule="evenodd" d="M0 24h28v-6.67H0z"/><path d="M28 24v-6.67H0V24z"/></g><g mask="url(#Venezuela_svg__a)"><mask id="Venezuela_svg__b" fill="#fff"><path fill-rule="evenodd" d="M14 13.333A.667.667 0 1 0 14 12a.667.667 0 0 0 0 1.333M11.333 14a.667.667 0 1 0 0-1.333.667.667 0 0 0 0 1.333m6-.667a.667.667 0 1 1-1.333 0 .667.667 0 0 1 1.333 0M10 16a.667.667 0 1 0 0-1.333A.667.667 0 0 0 10 16m8.667-.667a.667.667 0 1 1-1.334 0 .667.667 0 0 1 1.334 0" clip-rule="evenodd"/></mask><path fill="#FFF" fill-rule="evenodd" d="M14 13.333A.667.667 0 1 0 14 12a.667.667 0 0 0 0 1.333M11.333 14a.667.667 0 1 0 0-1.333.667.667 0 0 0 0 1.333m6-.667a.667.667 0 1 1-1.333 0 .667.667 0 0 1 1.333 0M10 16a.667.667 0 1 0 0-1.333A.667.667 0 0 0 10 16m8.667-.667a.667.667 0 1 1-1.334 0 .667.667 0 0 1 1.334 0" clip-rule="evenodd" mask="url(#Venezuela_svg__b)"/></g><g mask="url(#Venezuela_svg__a)"><path fill="#FFD044" fill-rule="evenodd" d="M0 10.66h28V4H0z"/><path d="M28 10.66V4H0v6.66z"/></g></svg>