<svg xmlns="http://www.w3.org/2000/svg" fill="none" viewBox="0 0 28 28" focusable="false"><defs><filter id="Venezuela_svg__a"><feColorMatrix values="0 0 0 0 1 0 0 0 0 1 0 0 0 0 1 0 0 0 1 0"/></filter></defs><mask id="Venezuela_svg__b" width="28" height="20" x="0" y="4" maskUnits="userSpaceOnUse"><g filter="url(#Venezuela_svg__a)"><rect width="28" height="20" y="4" fill="#FFF" rx="3"/><rect width="28" height="20" y="4" stroke="#969696" stroke-opacity="0" stroke-width="0" rx="3"/></g></mask><path fill="none" d="M0 0H28V28H0z"/><rect width="28" height="20" y="4" fill="#FFF" rx="3"/><rect width="28" height="20" y="4" rx="3"/><g mask="url(#Venezuela_svg__b)"><path fill="#063191" fill-rule="evenodd" d="M0 17.3333L28 17.3333L28 10.6666L0 10.6666L0 17.3333Z"/><path d="M28 17.3333L28 10.6666L0 10.6666L0 17.3333L28 17.3333Z"/><path fill="#E2213B" fill-rule="evenodd" d="M0 24L28 24L28 17.3334L0 17.3334L0 24Z"/><path d="M28 24L28 17.3334L0 17.3334L0 24L28 24Z"/><path fill="#FFF" fill-rule="evenodd" d="M14.6666 12.6667C14.6666 13.0349 14.3682 13.3333 14 13.3333C13.6318 13.3333 13.3333 13.0349 13.3333 12.6667C13.3333 12.2985 13.6318 12 14 12C14.3682 12 14.6666 12.2985 14.6666 12.6667ZM12 13.3333C12 13.7015 11.7015 14 11.3333 14C10.9651 14 10.6666 13.7015 10.6666 13.3333C10.6666 12.9651 10.9651 12.6667 11.3333 12.6667C11.7015 12.6667 12 12.9651 12 13.3333ZM16.6666 14C17.0348 14 17.3333 13.7015 17.3333 13.3333C17.3333 12.9651 17.0348 12.6667 16.6666 12.6667C16.2985 12.6667 16 12.9651 16 13.3333C16 13.7015 16.2985 14 16.6666 14ZM9.99998 16C10.3682 16 10.6666 15.7015 10.6666 15.3333C10.6666 14.9651 10.3682 14.6667 9.99998 14.6667C9.63179 14.6667 9.33331 14.9651 9.33331 15.3333C9.33331 15.7015 9.63179 16 9.99998 16ZM18 16C18.3682 16 18.6666 15.7015 18.6666 15.3333C18.6666 14.9651 18.3682 14.6667 18 14.6667C17.6318 14.6667 17.3333 14.9651 17.3333 15.3333C17.3333 15.7015 17.6318 16 18 16Z"/><path d="M14.6666 12.6667C14.6666 13.0349 14.3682 13.3333 14 13.3333C13.6318 13.3333 13.3333 13.0349 13.3333 12.6667C13.3333 12.2985 13.6318 12 14 12C14.3682 12 14.6666 12.2985 14.6666 12.6667ZM12 13.3333C12 13.7015 11.7015 14 11.3333 14C10.9651 14 10.6666 13.7015 10.6666 13.3333C10.6666 12.9651 10.9651 12.6667 11.3333 12.6667C11.7015 12.6667 12 12.9651 12 13.3333ZM16.6666 14C17.0348 14 17.3333 13.7015 17.3333 13.3333C17.3333 12.9651 17.0348 12.6667 16.6666 12.6667C16.2985 12.6667 16 12.9651 16 13.3333C16 13.7015 16.2985 14 16.6666 14ZM9.99998 16C10.3682 16 10.6666 15.7015 10.6666 15.3333C10.6666 14.9651 10.3682 14.6667 9.99998 14.6667C9.63179 14.6667 9.33331 14.9651 9.33331 15.3333C9.33331 15.7015 9.63179 16 9.99998 16ZM18 16C18.3682 16 18.6666 15.7015 18.6666 15.3333C18.6666 14.9651 18.3682 14.6667 18 14.6667C17.6318 14.6667 17.3333 14.9651 17.3333 15.3333C17.3333 15.7015 17.6318 16 18 16Z"/><path fill="#FFD044" fill-rule="evenodd" d="M0 10.6667L28 10.6667L28 4L0 4L0 10.6667Z"/><path d="M28 10.6667L28 4L0 4L0 10.6667L28 10.6667Z"/></g></svg>