<svg xmlns="http://www.w3.org/2000/svg" fill="none" viewBox="0 0 28 28" focusable="false"><rect width="28" height="20" y="4" fill="#fff" rx="3"/><mask id="Venezuela_svg__a" width="28" height="20" x="0" y="4" maskUnits="userSpaceOnUse" style="mask-type:luminance"><rect width="28" height="20" y="4" fill="#fff" rx="3"/></mask><g fill-rule="evenodd" clip-rule="evenodd" mask="url(#Venezuela_svg__a)"><path fill="#063191" d="M0 17.333h28v-6.666H0z"/><path fill="#e2213b" d="M0 24h28v-6.667H0z"/><path fill="#fff" d="M14 13.333A.667.667 0 1 0 14 12a.667.667 0 0 0 0 1.333M11.333 14a.667.667 0 1 0 0-1.333.667.667 0 0 0 0 1.333m6-.667a.667.667 0 1 1-1.333 0 .667.667 0 0 1 1.333 0M10 16a.667.667 0 1 0 0-1.333A.667.667 0 0 0 10 16m8.667-.667a.667.667 0 1 1-1.334 0 .667.667 0 0 1 1.334 0"/><path fill="#ffd044" d="M0 10.667h28V4H0z"/></g></svg>