<svg xmlns="http://www.w3.org/2000/svg" width="28" height="28" fill="none"><rect width="28" height="20" y="4" fill="#fff" rx="3"/><mask id="a" width="28" height="20" x="0" y="4" maskUnits="userSpaceOnUse" style="mask-type:luminance"><rect width="28" height="20" y="4" fill="#fff" rx="3"/></mask><g fill-rule="evenodd" clip-rule="evenodd" mask="url(#a)"><path fill="#063191" d="M0 17.333h28v-6.666H0v6.666Z"/><path fill="#E2213B" d="M0 24h28v-6.667H0V24Z"/><path fill="#fff" d="M14 13.333A.667.667 0 1 0 14 12a.667.667 0 0 0 0 1.333ZM11.333 14a.667.667 0 1 0 0-1.333.667.667 0 0 0 0 1.333Zm6-.667a.667.667 0 1 1-1.333 0 .667.667 0 0 1 1.333 0ZM10 16a.667.667 0 1 0 0-1.333A.667.667 0 0 0 10 16Zm8.667-.667a.667.667 0 1 1-1.334 0 .667.667 0 0 1 1.334 0Z"/><path fill="#FFD044" d="M0 10.667h28V4H0v6.667Z"/></g></svg>