<svg xmlns="http://www.w3.org/2000/svg" fill="none" viewBox="0 0 28 28" focusable="false"><defs><filter id="Viet_Nam_svg__a"><feColorMatrix values="0 0 0 0 1 0 0 0 0 1 0 0 0 0 1 0 0 0 1 0"/></filter></defs><mask id="Viet_Nam_svg__b" width="28" height="20" x="0" y="4" maskUnits="userSpaceOnUse"><g filter="url(#Viet_Nam_svg__a)"><rect width="28" height="20" y="4" fill="#FFF" rx="3"/><rect width="28" height="20" y="4" stroke="#969696" stroke-opacity="0" stroke-width="0" rx="3"/></g></mask><path fill="none" d="M0 0H28V28H0z"/><rect width="28" height="20" y="4" fill="#FFF" rx="3"/><rect width="28" height="20" y="4" rx="3"/><g mask="url(#Viet_Nam_svg__b)"><path fill="#EA403F" d="M0 4H28V24H0z"/><path d="M0 4H28V24H0z"/><path fill="#FFFE4E" fill-rule="evenodd" d="M14 16.34L10.4733 18.8541L11.7745 14.7231L8.29366 12.1459L12.6246 12.1069L14 8L15.3754 12.1069L19.7063 12.1459L16.2255 14.7231L17.5267 18.8541L14 16.34Z"/><path d="M10.4733 18.8541L11.7745 14.7231L8.29366 12.1459L12.6246 12.1069L14 8L15.3754 12.1069L19.7063 12.1459L16.2255 14.7231L17.5267 18.8541L14 16.34L10.4733 18.8541Z"/></g></svg>