<svg xmlns="http://www.w3.org/2000/svg" fill="none" viewBox="0 0 28 28" focusable="false"><rect width="27.5" height="19.5" x=".25" y="4.25" fill="#fff" stroke="#f5f5f5" stroke-width=".5" rx="2.75"/><path fill="#369443" d="M9.033 17.457s-.022-.145.253-.25c.274-.107.296-.502.24-.765 0 0-.143.25-.316.334 0 0-.284.148-.297.43 0 0-.002.103-.024.184-.011.043-.137-.354.1-.65.246-.305.315-.552.12-1.034 0 0-.018.292-.21.46-.193.166-.217.18-.214.578 0 0 .003.138-.07.183 0 0-.15-.219-.19-.363-.04-.145-.058-.206.113-.373 0 0 .548-.354.153-1.128 0 0-.012.267-.202.424-.189.158-.173.264-.183.537-.009.273-.027.254-.048.292 0 0-.348-.64-.08-.98.269-.34.418-.411.122-1.044 0 0 .013.324-.224.485-.236.16-.182.537-.182.537s.016.141-.033.244c0 0-.335-.654-.015-1.006.271-.299.29-.508.143-.932 0 0-.018.196-.168.302s-.268.212-.24.62c0 0 .011.286-.025.367 0 0-.14-.26-.18-.43-.04-.171-.055-.27.049-.441.103-.17.515-.659.024-1.363 0 0-.015.229-.14.434-.125.206-.067.45-.04.636.027.187-.064.367-.064.367s-.214-.392-.168-.842-.137-.82-.552-1.086c0 0-.302.7.11 1.057 0 0 .35.347.44.768 0 0-.266-.026-.507-.495s-.742-.395-.775-.398c0 0 .082.726.85.932 0 0 .492.083.584.443 0 0 .082.248.116.38 0 0-.156-.062-.3-.274-.143-.212-.125-.238-.61-.286 0 0-.195-.022-.299-.16 0 0 .205.767.73.761 0 0 .479-.051.747.578 0 0-.052-.032-.122-.08s-.247-.138-.598-.096c-.35.041-.449-.016-.537-.045 0 0 .354.649.854.456s.742.51.748.524c0 0-.067-.052-.156-.139-.088-.086-.272-.193-.62-.083 0 0-.25.096-.503.02 0 0 .244.472.815.391.57-.08.714.421.714.421s-.076-.045-.128-.087-.244-.15-.656-.028-.562-.02-.562-.02.23.418.669.466c0 0 .244-.003.347-.042.104-.038.379-.1.568.174 0 0-.052.01-.131-.026 0 0-.293-.106-.516.08 0 0-.198.203-.479.165 0 0 .363.353.94.054 0 0 .195-.141.339-.032.143.11.476-.106.476-.106"/><path fill="#f4c53d" fill-rule="evenodd" d="M15.605 10.23c-.072.092-.357.124-.357.124s.293.225.42.546c.126.322-3.395.002-3.395.002s.152-.109.256-.314c0 0-.156.057-.311-.097 0 0 .116.039.268-.193 0 0 .222-.284.38-.364-.016.007-.092.03-.246-.053 0 0 .306-.039.415-.56 0 0 .019-.115.135-.282a.2.2 0 0 1 .067-.07c0-.116-.032-.41-.366-.417-.04-.001-.073.004-.108.01a.6.6 0 0 1-.226.003c-.13-.02-.213.085-.261.147q-.021.027-.034.038s-.067-.598.41-.656q.147-.017.264-.018a.3.3 0 0 1 .018-.066c.047-.128.154-.14.21-.14l.001-.005.001-.004V7.86h.001l.029.011q.008 0 .02-.03c.023-.047.07-.14.21-.212.195-.098.714-.056.79-.013q.015.008.039.019c.113.052.375.172.536.579.066.168.078.298.09.428.02.23.041.462.36.907 0 0-.2.042-.328.004 0 0 .258.458.711.677M17.466 14.11c-.318.308-.696 0-.696 0l.089-.626c-.503-.272-.107-2.195-.107-2.195s.241-.181.671.032c0 0 .145.1.26-.01a.232.232 0 0 0-.028-.357c-.32-.237-.44-.95.05-1.246 0 0 .705-.419 3.29-1.078h.002l.01-.002s.092-.026.188-.036c.95-.193 2.546-.696 2.546-.696.204-.056.4-.133.578-.202.412-.162.731-.286.862-.046.195.36-.252.587-.252.587.17.489-.37.664-.37.664.268.51-.89.827-.89.827.102.236-.095.411-.095.411-.342.309-1.034.455-1.034.455.018.027.03.068.03.068.052.155-.054.27-.054.27-.22.251-.98.369-.98.369.073.004.077.077.077.077.024.128-.049.201-.049.201-.166.266-.834.373-.834.373.15.167-.101.325-.101.325-.305.233-1.046.236-1.046.236s.183.133.102.39c-.096.302-.448.21-.448.21.09.026.192.244.025.465-.167.22-.493.156-.493.156s0 .154-.187.257c-.187.102-.409-.028-.409-.028-.024.078-.067.213-.323.258s-.385-.11-.385-.11" clip-rule="evenodd"/><path fill="#0081c6" fill-rule="evenodd" d="m21.207 14.75.433-1.957-1.347 1.423.389.102-1.248 2.378.387-1.67.354.206-.063-2.008-.951 1.742.4-.007-.574 2.44.243.176.027-.114.073.042 1.585-3.049zm1.198-.632-.84 1.804-.22-.357-1.772 2.094-.192-.215 1.765-2.067-.357-.192z" clip-rule="evenodd"/><path fill="#f4c53d" fill-rule="evenodd" d="M10.53 14.11c.318.308.697 0 .697 0l-.09-.626c.504-.271.107-2.195.107-2.195s-.24-.181-.67.032c0 0-.146.1-.26-.01a.232.232 0 0 1 .027-.357c.32-.237.44-.95-.049-1.246 0 0-.705-.419-3.292-1.078l-.01-.002H6.99s-.092-.026-.188-.036c-.95-.194-2.545-.696-2.545-.696-.205-.056-.4-.133-.578-.202-.413-.162-.732-.286-.863-.046-.195.36.253.587.253.587-.171.489.37.664.37.664-.269.51.889.827.889.827-.102.236.095.411.095.411.342.309 1.035.455 1.035.455-.019.027-.03.068-.03.068a.28.28 0 0 0 .053.27c.22.251.98.369.98.369-.073.004-.077.077-.077.077-.024.128.05.201.05.201.166.266.833.373.833.373-.15.167.102.325.102.325.304.233 1.045.236 1.045.236s-.183.133-.101.39c.095.302.447.21.447.21-.09.026-.191.244-.024.465.167.22.492.156.492.156s0 .154.187.257c.187.102.409-.028.409-.028.024.078.067.213.323.258.257.045.385-.11.385-.11M10.58 15.27c.618-.526.696-.944.696-.944s1.066 1.279 1.078 1.518c.012.238-.472.42-.472.42-.427.232-.496.493-.496.493-.106.395-.379.45-.379.45-.15.047-.179.154-.179.154a1 1 0 0 1-.027-.124c-.18.052-.528.23-.628.286-.059.034-.127.065-.193.094-.073.033-.142.063-.189.095l-.024.015c-.059.034-.119.068-.183.396-.061.31-.178.339-.43.4l-.173.046c-.374.107-.386-.116-.386-.116-.212.056-.24-.158-.24-.158-.037-.013-.191-.078-.138-.377.048-.277.162-.381.28-.488l.029-.027c.182-.168.826-.09.826-.09.262-.005.492-.268.607-.425-.069.006-.115.002-.115.002l.031-.028c.167-.147.253-.223.241-.687-.012-.484.465-.905.465-.905M17.417 15.27c-.618-.526-.696-.944-.696-.944s-1.065 1.279-1.077 1.518c-.012.238.472.42.472.42.427.232.496.493.496.493.106.395.378.45.378.45.15.047.18.154.18.154a1 1 0 0 0 .027-.124c.18.052.528.23.627.286.06.034.128.065.194.094.072.033.141.063.188.095l.025.015c.058.034.119.068.183.396.06.31.178.339.43.4q.077.02.172.046c.374.107.387-.116.387-.116.211.056.24-.158.24-.158.036-.013.19-.078.138-.377a.74.74 0 0 0-.28-.488l-.03-.027c-.181-.168-.825-.09-.825-.09-.262-.005-.493-.268-.607-.425.068.006.115.002.115.002l-.032-.028c-.166-.147-.253-.223-.24-.687.011-.484-.465-.905-.465-.905" clip-rule="evenodd"/><path stroke="#010002" stroke-miterlimit="10" stroke-width=".172" d="M15.226 19.688s-.041-.86-.787-2.095m1.255 1.778s.115-.497-.936-1.966c0 0 .122-.352-.252-.577m1.55 2.132s.032-.538-.997-1.765c0 0 .09-.317-.282-.57m1.58 1.954s-.039-.544-1.046-1.607c0 0 .05-.326-.31-.527m1.726 1.817s-.073-.622-1.135-1.564c0 0 .037-.244-.318-.493M12.771 19.688s.041-.86.787-2.095m-1.255 1.778s-.116-.497.936-1.966c0 0-.122-.352.252-.577M11.942 18.96s-.033-.538.996-1.766c0 0-.09-.317.282-.57m-1.58 1.954s.04-.544 1.046-1.607c0 0-.05-.325.31-.527"/><path fill="#f4c53d" fill-rule="evenodd" d="M15.825 16.505c.006-.094-.05-.234-.233-.442-.446-.506-1.157.561-1.36.892a.3.3 0 0 0-.233-.127.3.3 0 0 0-.234.127c-.203-.33-.914-1.398-1.36-.892-.183.208-.239.348-.233.442-1.756 1.615-.902 1.757-.902 1.757 0 .415.37.317.37.317-.04.441.302.381.302.381-.005.497.362.411.362.411.065.532.467.317.467.317-.02.455.253.48.253.48.318.033.45-.295.485-.41q.003.116.011.222c.028.356.218.647.479.647.26 0 .45-.29.478-.647q.01-.106.011-.222c.036.115.167.443.486.41 0 0 .272-.025.252-.48 0 0 .403.215.468-.317 0 0 .366.086.362-.41 0 0 .342.06.3-.382 0 0 .371.098.371-.317 0 0 .855-.142-.902-1.757" clip-rule="evenodd"/><path fill="#fff" d="M14 17.244s3.054-1.354 3.062-4.485h-6.125C10.945 15.89 14 17.244 14 17.244"/><path stroke="#010002" stroke-miterlimit="10" stroke-width=".172" d="M12.35 12.759h.47m-1.412 0h.47m1.414 0h.471"/><path fill="#a60032" d="M11.408 12.759v2s.234.465.47.756v-2.756zm.942 0v3.298s.294.29.47.428V12.76zm.942 0v4.077s.336.217.471.288V12.76zM16.59 12.759v2s-.234.465-.471.756v-2.756zm-.943 0v3.298s-.294.29-.47.428V12.76zm-.942 0v4.077s-.336.217-.47.288V12.76z"/><path fill="#0081c6" fill-rule="evenodd" d="m17.782 20.44-.113.476.606-.283.409.55.459-1.942-.164-.163.068-.129-.167-.285.057-.233-.002-.001.15-.192a.2.2 0 0 0-.04-.126l.001-.001c-.083-.133-.247-.133-.247-.133l-.226.439-.44-.002-.187.353-.118-.029-1.27 1.487.66.05.116.687z" clip-rule="evenodd"/><path fill="#369443" d="M8.969 18.346s-.01-.26.32-.28l.97 1.35s-.036.087-.475.077c0 0-.047 0-.071.051-.038.08-.744-1.198-.744-1.198"/><path fill="#162667" d="M17.062 10.485s-1.5.784-3.063-.064c-1.563.848-3.062.064-3.062.064v2.275h6.125z"/><path fill="#0081c6" d="M3.31 16.384c.148-.06.255-.119.255-.277q0-.057-.063-.25l-.997-3.047a3 3 0 0 0-.124-.328c-.045-.085-.133-.12-.252-.17h1.267c-.138.065-.263.117-.262.263q0 .083.049.235l.763 2.39.763-2.39a.8.8 0 0 0 .048-.235c-.001-.15-.132-.204-.26-.263h1.228c-.113.045-.204.08-.251.17a3 3 0 0 0-.125.328l-.996 3.046c-.042.13-.058.215-.063.254 0 0-.046.192.254.274zm21.239-.313v-3.449q0-.09-.03-.137a.55.55 0 0 0-.227-.173h1.141a.47.47 0 0 0-.227.172.3.3 0 0 0-.03.138v3.45q0 .091.03.14c.021.034.105.114.227.172h-1.141a.6.6 0 0 0 .227-.173.3.3 0 0 0 .03-.14"/></svg>