<svg xmlns="http://www.w3.org/2000/svg" fill="none" viewBox="0 0 28 28" focusable="false"><defs><filter id="Wallis_and_Futuna_svg__a"><feColorMatrix values="0 0 0 0 1 0 0 0 0 1 0 0 0 0 1 0 0 0 1 0"/></filter></defs><mask id="Wallis_and_Futuna_svg__b" width="28" height="20" x="0" y="4" maskUnits="userSpaceOnUse"><g filter="url(#Wallis_and_Futuna_svg__a)"><rect width="28" height="20" y="4" fill="#FFF" rx="3"/><rect width="28" height="20" y="4" stroke="#969696" stroke-opacity="0" stroke-width="0" rx="3"/></g></mask><path fill="none" d="M0 0H28V28H0z"/><rect width="28" height="20" y="4" fill="#FFF" rx="3"/><rect width="28" height="20" y="4" rx="3"/><g mask="url(#Wallis_and_Futuna_svg__b)"><path fill="#F44653" d="M0 4H28V24H0z"/><path d="M0 4H28V24H0z"/><path fill="#083B9A" fill-rule="evenodd" d="M0 15L15 15L15 4L0 4L0 15Z"/><path stroke="#FFF" d="M15 15L15 4L0 4L0 15L15 15Z"/><path fill="#083B9A" fill-rule="evenodd" d="M0 15L5 15L5 4L0 4L0 15Z"/><path fill="#FFF" fill-rule="evenodd" d="M5 15L10 15L10 4L5 4L5 15Z"/><path fill="#F44653" fill-rule="evenodd" d="M10 15L15 15L15 4L10 4L10 15Z"/><g fill="#FFF" fill-rule="evenodd"><path d="M23.8949 10.5L18.7689 10.5L21.3319 13.063L23.8949 10.5Z"/><path d="M5.12595 0L0 0L2.56298 2.56298L5.12595 0Z" transform="matrix(1 0 0 -1 18.769 17.42)"/><path d="M5.12595 0L0 0L2.56298 2.56298L5.12595 0Z" transform="matrix(0 -1 -1 0 24.664 16.523)"/><path d="M5.12595 0L0 0L2.56298 2.56298L5.12595 0Z" transform="rotate(-90 17.261 -.739)"/></g></g></svg>