<svg xmlns="http://www.w3.org/2000/svg" fill="none" viewBox="0 0 28 28" focusable="false"><defs><filter id="Western_Sahara_svg__a"><feColorMatrix values="0 0 0 0 1 0 0 0 0 1 0 0 0 0 1 0 0 0 1 0"/></filter></defs><mask id="Western_Sahara_svg__b" width="28" height="20" x="0" y="4" maskUnits="userSpaceOnUse"><g filter="url(#Western_Sahara_svg__a)"><rect width="28" height="20" y="4" fill="#347743" rx="3"/></g></mask><path fill="none" d="M0 0H28V28H0z"/><rect width="28" height="20" y="4" fill="#FFF" rx="3"/><rect width="27.5" height="19.5" x=".25" y="4.25" stroke="#D6D8DD" stroke-width=".5" rx="2.75"/><g mask="url(#Western_Sahara_svg__b)"><path fill="#000" d="M0 4H28V10.731H0z"/><path fill="#347743" d="M0 17.269H28V24H0z"/><path fill="#B42A26" fill-rule="evenodd" d="M10 14L0 4L0 24L10 14Z"/><path fill="#B42A26" d="M17.5712 11.4278C16.3244 11.6542 15.3789 12.7456 15.3789 14.0577C15.3789 15.3699 16.3244 16.4612 17.5712 16.6877C17.4152 16.716 17.2546 16.7308 17.0904 16.7308C15.6141 16.7308 14.4174 15.534 14.4174 14.0577C14.4174 12.5814 15.6141 11.3846 17.0904 11.3846C17.2546 11.3846 17.4152 11.3994 17.5712 11.4278Z"/><path fill="#B42A26" fill-rule="evenodd" d="M17.926 13.4826L19.3232 13.4826L18.1928 14.3039L18.6246 15.6327L17.4942 14.8114L16.3639 15.6327L16.7956 14.3039L15.6653 13.4826L17.0625 13.4826L17.4942 12.1538L17.926 13.4826Z"/></g></svg>