<svg xmlns="http://www.w3.org/2000/svg" fill="none" viewBox="0 0 28 28" focusable="false"><rect width="27.5" height="19.5" x=".25" y="4.25" fill="#fff" stroke="#D6D8DD" stroke-width=".5" rx="2.75"/><mask id="Western_Sahara_svg__a" width="28" height="20" x="0" y="4" maskUnits="userSpaceOnUse" style="mask-type:alpha"><rect width="28" height="20" y="4" fill="#347743" rx="3"/></mask><g mask="url(#Western_Sahara_svg__a)"><path fill="#000" d="M0 4h28v6.731H0z"/><path fill="#347743" d="M0 17.269h28V24H0z"/><path fill="#B42A26" d="M10 14 0 4v20zM17.571 11.428a2.674 2.674 0 0 0 0 5.26 2.673 2.673 0 1 1 0-5.26"/><path fill="#B42A26" d="m17.494 12.154.432 1.329h1.397l-1.13.82.432 1.33-1.13-.821-1.131.82.432-1.328-1.13-.821h1.396l.432-1.33"/></g></svg>