<svg xmlns="http://www.w3.org/2000/svg" fill="none" viewBox="0 0 28 28" focusable="false"><rect width="28" height="20" y="4" fill="#fff" rx="3"/><mask id="WW_svg__a" width="28" height="20" x="0" y="4" maskUnits="userSpaceOnUse" style="mask-type:luminance"><rect width="28" height="20" y="4" fill="#fff" rx="3"/></mask><g mask="url(#WW_svg__a)"><path fill="#19BFBF" d="M0 4h28v20H0z"/><path fill="#fff" fill-rule="evenodd" d="M14 21.333a7.333 7.333 0 1 0 0-14.666 7.333 7.333 0 0 0 0 14.666m5.963-6.666a6 6 0 0 1-3.746 4.91c.65-1.324 1.03-3.049 1.103-4.91zm-3.977 0c-.098 2.249-.685 4.236-1.6 5.32a6 6 0 0 1-.771 0c-.916-1.084-1.503-3.071-1.6-5.32zm-5.306 0c.073 1.861.453 3.586 1.103 4.91a6 6 0 0 1-3.746-4.91zm1.334-1.334h3.972c-.098-2.249-.685-4.236-1.6-5.32a6 6 0 0 0-.771 0c-.916 1.084-1.503 3.071-1.6 5.32m-.231-4.91c-.65 1.324-1.03 3.049-1.103 4.91H8.037a6 6 0 0 1 3.746-4.91m8.18 4.91H17.32c-.073-1.861-.453-3.586-1.103-4.91a6 6 0 0 1 3.746 4.91" clip-rule="evenodd"/></g></svg>