<svg xmlns="http://www.w3.org/2000/svg" fill="none" viewBox="0 0 28 28" focusable="false"><defs><filter id="WW_svg__a"><feColorMatrix values="0 0 0 0 1 0 0 0 0 1 0 0 0 0 1 0 0 0 1 0"/></filter></defs><mask id="WW_svg__b" width="28" height="20" x="0" y="4" maskUnits="userSpaceOnUse"><g filter="url(#WW_svg__a)"><rect width="28" height="20" y="4" fill="#FFF" rx="3"/><rect width="28" height="20" y="4" stroke="#969696" stroke-opacity="0" stroke-width="0" rx="3"/></g></mask><path fill="none" d="M0 0H28V28H0z"/><rect width="28" height="20" y="4" fill="#FFF" rx="3"/><rect width="28" height="20" y="4" rx="3"/><g mask="url(#WW_svg__b)"><path fill="#19BFBF" d="M0 4H28V24H0z"/><path d="M0 4H28V24H0z"/><path fill="#FFF" fill-rule="evenodd" d="M21.3334 14.0001C21.3334 18.0502 18.0501 21.3334 14 21.3334C9.94993 21.3334 6.66669 18.0502 6.66669 14.0001C6.66669 9.94999 9.94993 6.66675 14 6.66675C18.0501 6.66675 21.3334 9.94999 21.3334 14.0001ZM14.3855 8.01227C15.3011 9.09665 15.8883 11.0844 15.9857 13.3334L12.0144 13.3334C12.1117 11.0844 12.6989 9.09665 13.6145 8.01227C13.742 8.00418 13.8705 8.00008 14 8.00008C14.1295 8.00008 14.2581 8.00418 14.3855 8.01227ZM16.2173 8.4231C18.2362 9.22645 19.7159 11.0942 19.9634 13.3334L17.3203 13.3334C17.2472 11.4721 16.8674 9.74713 16.2173 8.4231ZM19.9634 14.6667L17.3203 14.6667C17.2472 16.5281 16.8674 18.253 16.2173 19.5771C18.2362 18.7737 19.7159 16.9059 19.9634 14.6667ZM14.3855 19.9879C15.3011 18.9035 15.8883 16.9158 15.9857 14.6667L12.0144 14.6667C12.1117 16.9158 12.6989 18.9035 13.6145 19.9879C13.742 19.996 13.8705 20.0001 14 20.0001C14.1295 20.0001 14.2581 19.996 14.3855 19.9879ZM10.6797 13.3334C10.7529 11.4721 11.1326 9.74713 11.7827 8.4231C9.76388 9.22645 8.28417 11.0942 8.03664 13.3334L10.6797 13.3334ZM8.03664 14.6667C8.28417 16.9059 9.76388 18.7737 11.7827 19.5771C11.1326 18.253 10.7529 16.5281 10.6797 14.6667L8.03664 14.6667Z"/><path d="M21.3334 14.0001C21.3334 18.0502 18.0501 21.3334 14 21.3334C9.94993 21.3334 6.66669 18.0502 6.66669 14.0001C6.66669 9.94999 9.94993 6.66675 14 6.66675C18.0501 6.66675 21.3334 9.94999 21.3334 14.0001ZM14.3855 8.01227C15.3011 9.09665 15.8883 11.0844 15.9857 13.3334L12.0144 13.3334C12.1117 11.0844 12.6989 9.09665 13.6145 8.01227C13.742 8.00418 13.8705 8.00008 14 8.00008C14.1295 8.00008 14.2581 8.00418 14.3855 8.01227ZM16.2173 8.4231C18.2362 9.22645 19.7159 11.0942 19.9634 13.3334L17.3203 13.3334C17.2472 11.4721 16.8674 9.74713 16.2173 8.4231ZM19.9634 14.6667L17.3203 14.6667C17.2472 16.5281 16.8674 18.253 16.2173 19.5771C18.2362 18.7737 19.7159 16.9059 19.9634 14.6667ZM14.3855 19.9879C15.3011 18.9035 15.8883 16.9158 15.9857 14.6667L12.0144 14.6667C12.1117 16.9158 12.6989 18.9035 13.6145 19.9879C13.742 19.996 13.8705 20.0001 14 20.0001C14.1295 20.0001 14.2581 19.996 14.3855 19.9879ZM10.6797 13.3334C10.7529 11.4721 11.1326 9.74713 11.7827 8.4231C9.76388 9.22645 8.28417 11.0942 8.03664 13.3334L10.6797 13.3334ZM8.03664 14.6667C8.28417 16.9059 9.76388 18.7737 11.7827 19.5771C11.1326 18.253 10.7529 16.5281 10.6797 14.6667L8.03664 14.6667Z"/></g></svg>