<svg xmlns="http://www.w3.org/2000/svg" fill="none" viewBox="0 0 28 28" focusable="false"><rect width="28" height="20" y="4" fill="#009F60" rx="3"/><mask id="Zambia_svg__a" width="28" height="20" x="0" y="4" maskUnits="userSpaceOnUse" style="mask-type:luminance"><rect width="28" height="20" y="4" fill="#fff" rx="3"/></mask><g mask="url(#Zambia_svg__a)"><path fill="#EA8B42" d="M24 14.667h4V24h-4z"/><path fill="#1A1919" fill-rule="evenodd" d="M20 24h4v-9.333h-4z" clip-rule="evenodd"/><path fill="#DB3C36" fill-rule="evenodd" d="M16 24h4v-9.333h-4z" clip-rule="evenodd"/><path fill="#EA8B42" fill-rule="evenodd" d="M21.014 7.484c-.092.003-.16-.03-.183-.083.15-.088.25-.068.376.044a.27.27 0 0 0-.053-.244c-.053-.058-.096-.058-.169-.063-.072-.005-.145-.024-.193-.024-.071-.156-.248-.09-.419-.026-.277.104-.526.292-.638.48-.05.087-.057.12-.088.17.026-.004.024-.004.04-.013-.02.214-.045.412-.006.54-.049.184-.01.301.048.36s.082.083.092.151.038.132.087.17a.24.24 0 0 1 .082.132c.005.034.154.181.217.22.024.014.03.044.058.082-.063.371.189.742.13 1.107.044.005.102 0 .16-.014.048.311.077.463-.193.555s-.419.184-.343.288c.053.073.163.01.232-.054a.5.5 0 0 1 .164-.107c.048-.014.058 0 .034.063-.024.064-.155.2-.16.269-.005.068.053.117.145.063a.52.52 0 0 0 .194-.278c.014-.058.038-.098.033 0s-.062.273.068.302c.13.03.17-.126.126-.268-.044-.141-.058-.22-.04-.268.02-.049.04-.078.088-.063s.145-.005.14-.083-.072-.141-.15-.098c-.077.044-.135.038-.101-.058.024-.069.067-.151.072-.205.053.078.353.088.474.015.029.146.106.278-.063.414-.17.137-.304.268-.3.366s.044.156.13.107a.33.33 0 0 0 .16-.18c.02-.064.058-.064.039.014s-.053.19-.039.259c.015.068.121.073.165.01.043-.064.033-.147.024-.23a.4.4 0 0 1 .024-.205c.02-.034.058-.083.096.01.04.093.058.166.136.19.077.025.135-.01.12-.102-.014-.093-.115-.195-.217-.273s-.067-.117-.063-.19-.01-.205-.014-.263c.092.068.193.058.241.058.049 0 .128-.015.049-.088-.16-.146-.107-.234-.218-.341a.94.94 0 0 1-.246-.414c-.034-.142-.108-.4-.256-.532-.082-.073-.107-.273-.087-.502s.024-.482-.184-.6c-.207-.116-.203-.214-.135-.316s.155-.203.266-.21c.025-.002.083-.006.106-.024a.1.1 0 0 0-.058-.02" clip-rule="evenodd"/><path fill="#EA8B42" fill-rule="evenodd" d="M19.663 8.01a.8.8 0 0 0 .018.254c-.049.185-.01.302.048.36.058.06.082.084.092.152s.038.132.087.17a.24.24 0 0 1 .082.132c.005.034.154.181.217.22.024.014.03.044.058.082-.026.154.002.308.04.462-.342.286-.68.151-.537-.141-.284.227-.773.22-.664 0-.444.156-.58.026-.522-.117-.373.15-.567.006-.515-.098-.31.085-.509.033-.541-.02-.032-.051.045-.168.116-.227a.8.8 0 0 1-.406.033c-.129-.02-.096-.059-.07-.117s.059-.151.162-.242c-.247.048-.556.082-.773.01-.041-.015-.111-.03-.068-.074.044-.044.174-.151.334-.22-.363.054-1.049.093-1.242-.126.188.039.43-.039.584-.102-.608-.069-1.44-.488-1.449-.897.174.282.474.38.773.468-.406-.24-.575-.527-.59-.717.233.224.585.478.933.536-.246-.131-.565-.516-.652-.785.179.161.638.42.952.502-.218-.17-.57-.575-.551-.799.082.083.285.239.7.483.416.243.641.225.984.299a.9.9 0 0 1-.123-.226c.101.014.197.053.487.234.29.18.924.235 1.286.395.265.117.644.044.75.117M21.85 10.514c.015-.012.015-.034-.024-.07-.16-.147-.107-.235-.218-.342a.94.94 0 0 1-.246-.414c-.034-.142-.108-.4-.256-.532-.082-.073-.106-.273-.087-.502.016-.196.022-.41-.106-.54.241-.07.463-.084.54-.006.402-.102.75-.133 1.091-.156.393-.026 1.134-.195 1.662-.552-.032.13-.213.325-.374.422.535-.13 1.18-.37 1.727-.78-.007.286-.239.5-.374.618.374-.208.921-.468 1.108-.793.082.333-.477.768-.78 1.009.31-.15.71-.288.864-.509-.003.27-.355.605-.69.8.342-.13.722-.267.94-.468.027.271-1.02.895-1.539 1.066.451-.11 1.037-.26 1.295-.416-.013.055-.118.132-.194.189-.315.233-.799.358-1.094.415.039.163-.013.254-.193.267s-.617-.057-.836-.168a.3.3 0 0 1-.115.031c.213.161.285.278.242.346-.043.069-.196.056-.312.032.092.258-.215.241-.47.095.1.132.115.244-.025.273A.46.46 0 0 1 23 9.761c-.01.097-.103.162-.227.13.425.258.4.352.328.45-.072.097-.326.078-.461-.01-.058.2-.29.2-.462.042-.001.08-.166.237-.329.141" clip-rule="evenodd"/><path fill="#000" fill-rule="evenodd" d="M19.877 11.495c.007-.062.013-.133.065-.179.051-.046.083-.085.128-.04.046.046.017.089-.045.108a.18.18 0 0 0-.112.11c-.01.037-.042.056-.036 0M20.228 11.794c-.032-.103-.016-.234.02-.273.035-.04.08-.065.122-.026s.058.094-.02.127c-.068.028-.074.1-.077.152s-.026.082-.045.02M20.68 11.53c-.026.042.006.212.09.254.059.03.086.023.05-.033a.12.12 0 0 1-.002-.136.08.08 0 0 0-.026-.107c-.042-.026-.094-.01-.113.023M21.043 11.378c-.053-.04-.103.008-.122.042-.04.068-.01.166.051.221s.052-.02.032-.052c-.019-.033-.022-.098.02-.104a.059.059 0 0 0 .02-.107M21.346 11.488c-.052-.015-.103.04-.097.104.005.049.01.11.058.143.033.022.055.036.039-.022-.016-.059.01-.108.038-.124.03-.016.017-.085-.038-.1M21.774 11.212c-.037.026-.035.088 0 .11s.087.056.078.111c-.01.055.019.075.045.013s.029-.153 0-.195-.09-.062-.123-.04" clip-rule="evenodd"/><path fill="#000" fill-rule="evenodd" d="M20.84 7.397c.023.05.087.079.174.076.027 0 .044.007.064.04-.02.016-.06.023-.111.026-.093.006-.173.077-.258.205-.076.115-.05.2.132.301.18.101.216.278.189.61-.02.241.009.427.083.493.123.11.202.3.26.537.032.137.13.301.243.41a.3.3 0 0 1 .06.08l.025.059c.035.094.06.135.132.201q.06.057.023.088c-.016.013-.046.019-.079.019h-.018a.36.36 0 0 1-.21-.048l.004.055.006.066a1 1 0 0 1-.002.158.2.2 0 0 0-.005.05c.002.03.02.058.068.094.124.096.208.195.221.28.015.097-.045.143-.134.115-.055-.018-.083-.053-.116-.13l-.011-.03-.015-.037q-.024-.054-.043-.046-.017.005-.035.038a.4.4 0 0 0-.023.198c.015.127.013.18-.026.236-.048.071-.166.065-.183-.013a.4.4 0 0 1 .01-.147l.014-.058.015-.058c.007-.03.005-.047.003-.048-.003 0-.014.014-.021.039a.34.34 0 0 1-.165.186c-.089.05-.14 0-.146-.116-.005-.091.097-.208.303-.374a.3.3 0 0 0 .083-.1c.03-.062.025-.11-.007-.233l-.014-.057c-.122.063-.377.057-.458-.008a1 1 0 0 1-.042.114l-.028.071q-.02.061.003.068c.015.007.046-.001.083-.022.08-.045.16.014.166.106.005.077-.085.115-.154.094-.036-.01-.053.003-.074.057-.017.043-.006.114.039.261.05.163-.007.311-.138.282-.08-.018-.102-.082-.09-.193 0-.014.003-.027.005-.048a1 1 0 0 0 .009-.11l-.013.04a.53.53 0 0 1-.198.285c-.092.054-.167.012-.161-.073.002-.032.024-.072.07-.136l.013-.018a.6.6 0 0 0 .077-.118c.021-.055.018-.06-.02-.049a.5.5 0 0 0-.161.105c-.095.088-.197.123-.248.052q-.059-.083.044-.162.089-.068.304-.142c.23-.078.247-.154.2-.535a.3.3 0 0 1-.173.002c.024-.149.005-.268-.066-.542-.072-.28-.091-.407-.062-.556l-.02-.031-.014-.025a.1.1 0 0 0-.021-.024c-.069-.042-.218-.19-.223-.227a.23.23 0 0 0-.078-.125.27.27 0 0 1-.09-.177c-.01-.058-.021-.077-.09-.146-.071-.072-.095-.201-.05-.365-.03-.098-.028-.192 0-.486l.004-.037-.012.002-.015.002-.01-.016.017-.03.005-.01.005-.009.023-.05q.016-.033.038-.07c.114-.191.365-.381.643-.485.264-.1.37-.107.423.025.023 0 .035.002.103.013.04.006.065.01.09.011l.017.001c.062.004.088.01.12.03q.02.014.04.036a.28.28 0 0 1 .056.254l-.018.005c-.126-.113-.223-.125-.36-.056m.226.116a.07.07 0 0 0-.052-.018c-.094.002-.167-.03-.189-.103.145-.085.25-.075.376.033l-.004.017.018-.005-.014-.012a.26.26 0 0 0-.055-.216.2.2 0 0 0-.036-.032c-.028-.018-.05-.023-.109-.027l-.017-.001a1 1 0 0 1-.092-.012l-.032-.005-.078-.014c-.055-.122-.152-.115-.405-.02-.274.103-.522.29-.632.476l-.038.068-.023.05-.005.01-.005.01-.006.011-.008.002-.015.002.01.016.013-.02h.001l.013-.008.016.01-.006.058c-.027.29-.03.384-.001.484-.042.162-.02.284.046.35.07.072.085.094.094.158.01.069.04.128.084.163.045.037.08.096.085.139.005.028.15.173.213.211a.1.1 0 0 1 .028.032l.008.015.006.01.005.008q.007.01.016.03c-.026.153-.008.277.064.554s.09.399.057.54a1 1 0 0 0 .169-.006c.062.4.042.485-.2.568q-.214.071-.299.138-.089.067-.04.133c.04.055.13.024.216-.056a.5.5 0 0 1 .169-.11q.088-.026.047.078a.6.6 0 0 1-.08.123l-.012.017q-.065.09-.067.125c-.005.068.052.099.129.054a.5.5 0 0 0 .188-.271q.012-.053.029-.065c.012-.009.022 0 .025.016q.003.015.001.052l-.008.074-.006.047c-.01.102.007.155.073.17.11.024.16-.104.113-.255-.046-.151-.058-.225-.038-.275.025-.063.05-.085.1-.07.057.018.13-.014.126-.071-.005-.078-.069-.126-.133-.09q-.066.038-.102.024-.042-.018-.015-.095c.006-.019.013-.035.028-.072a.5.5 0 0 0 .044-.13l.02-.005c.049.073.342.082.458.011l.016.008.017.07c.033.127.038.178.006.247a.3.3 0 0 1-.09.108c-.2.161-.299.275-.295.356.005.102.043.139.115.099a.32.32 0 0 0 .154-.175c.01-.034.028-.056.046-.053.02.004.024.033.013.074l-.015.058-.013.057a.4.4 0 0 0-.01.138c.012.058.106.063.145.006.034-.05.036-.1.022-.22v-.002a.4.4 0 0 1 .025-.21q.022-.04.048-.048.04-.012.068.058l.016.038.011.028c.03.072.055.103.102.118.075.024.12-.01.107-.09-.012-.079-.093-.174-.213-.267-.052-.04-.074-.072-.076-.11a.2.2 0 0 1 .004-.054l.005-.035a1 1 0 0 0-.003-.119l-.005-.066-.007-.077.017-.009q.02.015.041.025a.34.34 0 0 0 .176.032h.018c.029 0 .054-.006.066-.015.011-.01.007-.026-.024-.055a.45.45 0 0 1-.138-.21l-.024-.057a.3.3 0 0 0-.056-.074.95.95 0 0 1-.25-.42c-.056-.234-.133-.42-.252-.526-.081-.072-.112-.263-.09-.51.026-.325-.01-.494-.179-.59-.191-.108-.222-.206-.139-.332.088-.134.173-.208.274-.215q.022 0 .04-.003a.2.2 0 0 1 .06-.001" clip-rule="evenodd"/><path fill="#000" fill-rule="evenodd" d="M19.402 7.96c.165.006.225.013.267.042l.005.01a.8.8 0 0 0 .017.255c-.042.162-.02.284.046.35.07.072.085.094.094.158.01.069.04.128.084.163.045.037.08.096.085.139.005.028.15.173.213.211a.1.1 0 0 1 .028.032l.014.025.005.008q.007.01.016.03c-.023.132-.008.264.035.467-.161.136-.336.188-.46.149-.111-.036-.155-.138-.109-.266a.82.82 0 0 1-.454.147c-.151-.001-.237-.062-.203-.161-.367.123-.57.053-.52-.117-.304.113-.555.035-.516-.1-.26.067-.487.043-.532-.03-.028-.045.015-.137.082-.207a.8.8 0 0 1-.365.017q-.091-.013-.1-.049c-.007-.019-.005-.024.018-.076l.003-.007.021-.047.03-.057a.5.5 0 0 1 .088-.116c-.302.056-.559.064-.742.002l-.028-.009a.1.1 0 0 1-.051-.026q-.023-.024.007-.055c.058-.06.162-.135.272-.192-.523.07-1.023.039-1.181-.14l.01-.017c.147.03.336-.008.54-.087-.668-.089-1.408-.524-1.418-.902l.02-.006c.136.22.316.325.689.44-.322-.209-.509-.468-.525-.682l.018-.009c.264.255.578.454.866.521-.239-.155-.522-.506-.603-.758l.017-.012c.182.164.604.395.897.486-.266-.224-.53-.586-.514-.776l.019-.007c.101.103.335.268.698.481.225.132.396.193.622.234l.11.02c.12.02.165.027.222.038a.8.8 0 0 1-.11-.208l.012-.012c.113.016.22.067.492.236.13.081.29.129.679.22l.018.003c.313.073.452.112.587.17q.104.047.25.062c.066.008.114.01.235.015m.25.056V8.01l.005.01zm-4.041.503c.156.021.35-.024.557-.108l-.003-.021c-.643-.072-1.373-.482-1.436-.843.146.215.347.315.755.435l.009-.02c-.345-.202-.55-.463-.581-.679.28.266.615.468.916.519l.007-.02c-.232-.124-.531-.478-.633-.741.21.173.644.404.925.478l.01-.019c-.264-.207-.54-.57-.548-.766.111.105.34.265.685.467.227.133.4.194.629.237l.111.019c.138.022.176.029.247.044l.011-.017a1 1 0 0 1-.118-.206c.104.018.212.07.468.23.134.083.294.131.685.222l.018.004c.312.073.45.111.583.17a.9.9 0 0 0 .256.063c.067.007.115.01.237.014.153.006.214.013.25.035-.004.11 0 .19.02.251-.045.164-.021.293.05.365.069.07.081.088.09.146.01.074.041.138.09.177a.23.23 0 0 1 .078.125c.006.037.154.185.223.227a.1.1 0 0 1 .02.024l.014.025.02.03c-.024.129-.01.264.038.459-.153.12-.32.17-.436.133-.11-.035-.145-.14-.08-.273l-.017-.013a.8.8 0 0 1-.472.166c-.15 0-.222-.058-.175-.153l-.013-.014c-.383.134-.575.062-.509-.103l-.014-.014c-.314.125-.563.04-.501-.083l-.013-.015c-.26.071-.49.049-.529-.015-.025-.04.036-.15.114-.213l-.01-.019a.8.8 0 0 1-.401.032c-.055-.008-.08-.02-.084-.034-.004-.011-.002-.017.018-.061l.003-.007a.54.54 0 0 1 .147-.227l.013-.011-.01-.019c-.313.062-.58.073-.767.01l-.027-.009a.1.1 0 0 1-.043-.02q-.01-.01.007-.026c.068-.069.2-.162.33-.217l-.006-.021c-.515.076-1.026.058-1.208-.1m0 0-.024-.023-.01.018zm1.543-1.241-.004-.015-.012.012zm-1.565-.544V6.71l-.018.007zm-.387.307-.014-.038-.017.011zm-.29.242-.003-.029-.019.009zm-.183.264-.004-.044-.02.006z" clip-rule="evenodd"/><path fill="#000" fill-rule="evenodd" d="m21.844 10.524-.001-.018c.012-.01.007-.026-.024-.055a.45.45 0 0 1-.138-.21l-.024-.057a.3.3 0 0 0-.056-.074.95.95 0 0 1-.25-.42c-.056-.234-.133-.42-.252-.526-.081-.072-.112-.263-.09-.51l.005-.088.007.004h.001l.013.007-.005.078c-.02.241.009.427.083.493.123.11.202.3.26.537.032.137.13.301.243.41a.3.3 0 0 1 .06.08 1 1 0 0 1 .025.059c.036.094.06.135.132.201q.05.046.033.076l-.011-.006.001.018.01-.012c.13.065.3-.04.302-.139l.018-.007c.174.16.39.147.444-.037l.016-.006c.138.09.382.1.447.012.089-.12.036-.214-.326-.434l.008-.02c.114.03.205-.025.214-.12l.017-.008c.124.08.23.097.378.066.121-.025.124-.118.018-.255l.014-.016a.67.67 0 0 0 .36.103c.099-.01.136-.071.095-.185l.013-.015c.148.032.266.027.3-.026.04-.064-.038-.18-.239-.332l.005-.02a.4.4 0 0 0 .12-.03c.2.101.63.181.83.167.169-.012.223-.091.193-.266.43-.084.827-.22 1.09-.414l.117-.092a.4.4 0 0 0 .058-.062l.03-.017-.015-.012a.1.1 0 0 1-.015.03c-.22.123-.607.237-1.267.399l-.006-.02c.587-.194 1.494-.78 1.531-1.032l.02-.016-.019-.007v.023c-.153.133-.367.239-.725.377l-.1.039-.1.038-.01-.02c.36-.21.652-.518.682-.754l.022-.03-.02-.006-.002.036c-.1.124-.265.22-.583.362l-.01.005-.138.062-.115.053-.011-.018a7 7 0 0 0 .3-.246c.163-.142.287-.27.37-.392q.13-.186.11-.333l.015-.024-.02-.003.006.027c-.116.183-.339.351-.697.553l-.4.22-.013-.017c.228-.198.356-.37.37-.588l.017-.013-.017-.01v.023c-.488.36-1.087.616-1.713.769l-.006-.015-.002-.005c.152-.092.312-.265.36-.388l.025-.017-.016-.011-.01.028c-.459.302-1.142.505-1.641.538a6 6 0 0 0-1.099.153c-.067-.068-.266-.065-.514.003l-.012-.013-.005.018.018-.005c.085.096.112.222.104.423l-.02.004-.002.016c.01-.217-.017-.346-.11-.441l.005-.018c.262-.074.475-.08.541-.005a5.6 5.6 0 0 1 1.092-.157c.506-.033 1.201-.242 1.657-.55l.016.011c-.028.116-.174.287-.325.394.61-.155 1.189-.41 1.661-.763l.017.01c-.004.212-.112.38-.308.563l.022-.012.298-.164c.37-.209.595-.38.703-.569l.02.003c.027.11-.013.237-.109.377-.085.124-.21.253-.374.396a6 6 0 0 1-.229.19l.032-.015.138-.062.01-.004c.338-.153.502-.25.596-.385l.02.006c-.003.23-.26.529-.599.75l.095-.037c.37-.143.586-.25.737-.39l.018.008c.021.227-.763.762-1.369 1.01.576-.145.915-.252 1.108-.369l.016.012q-.012.042-.08.103a1 1 0 0 1-.119.092c-.265.197-.664.333-1.09.405.042.174-.021.266-.203.28-.204.014-.638-.067-.83-.17a.2.2 0 0 1-.093.03c.194.15.271.269.223.344-.04.062-.155.069-.305.04.035.116-.012.185-.12.196a.65.65 0 0 1-.33-.084c.084.13.07.226-.059.253a.47.47 0 0 1-.38-.061c-.017.083-.09.135-.184.13.33.207.381.31.286.438-.072.096-.316.089-.464 0-.063.184-.282.2-.46.047-.023.11-.205.21-.342.13m-.333-2.018a.2.2 0 0 0 .011-.045l-.012-.012-.473.093v.015l-.013-.007-.003.02h.001l.014-.002v.01c.183.091.386.086.46-.041.161.088.416.045.498-.078.23.084.446.033.485-.178l-.014-.012-.453.155a.2.2 0 0 0 .008-.058zm-.005.012.005-.012-.022.006-.002.02.01.005.002-.005.021-.007c.152.073.38.032.462-.07l.012.004.005-.008.019-.006c.206.069.393.025.436-.15l.018-.006-.014-.012-.004.018-.436.15-.013-.005.007-.016-.013.004a.1.1 0 0 0 .013-.051l-.492.148zm.489-.082.01.004-.006.011-.01.004v-.01zm0 0-.006-.002v.012l-.007.009v-.02l.017-.007zm-.489.082-.007.014h-.003l.002-.019zm-.455.047-.015.003v-.011zm.447-.092c-.037.169-.25.19-.447.092zm0 0 .003-.015.013.012zm2.33-.654-.965.311.005.021q.155-.026.477-.137l.092-.032.399-.143-.007-.02m0 0-.49.174a3.5 3.5 0 0 1-.474.137l.005.02.967-.311zm-2.813.743v.004h-.001zM17.25 7.493c.068.1.247.246.36.281a.4.4 0 0 0 .098.218l-.51-.164-.014.013a.3.3 0 0 0 .058.117l-.352-.142q.044 0 .096-.006l.006-.019-.082-.074zm-.37.076.37-.076.015-.014.343.263v.01a.4.4 0 0 1-.059-.028l-.216-.166a1 1 0 0 1-.066-.077l-.015.015.081.062c.062.062.144.127.216.166l.06.047.001.003.01.003.01-.019-.022-.016v-.025l.016-.009.773.378q0 .008.003.014l-.015.004-.755-.369v-.016l-.015.009.015.007c-.001.15.096.3.273.353.156.047.31.053.44.028q-.051.015-.099.034a1 1 0 0 1-.347-.041.4.4 0 0 1-.153-.083l.005-.004-.004-.018-.037-.012.02.02-.01.006-.508-.163-.005-.02-.014.014.02.006a.3.3 0 0 0 .115.154l-.049-.012.004-.002.001-.02-.04-.017.017.021-.014.004-.419-.17.002-.003a.4.4 0 0 0 .063.006l-.066-.027-.014.006-.005.01-.02-.006.023-.015q.06.016.151.007l.018.016.005-.018-.023.002-.068-.062.018-.012-.14-.126.057-.012.047.007zm-.005 0h.004l.001-.004-.976-.503-.012.017c.233.222.505.391.79.469a.2.2 0 0 0-.016.064l-.13.026-.407-.144-.01.018q.114.093.314.147l-.6.122-.006.021.398.124q-.007.057.067.118a.4.4 0 0 0 .063.039c-.05.024-.07.064-.06.106l-.805-.228-.008.02c.207.132.467.202.824.235q.015.027.045.054a.12.12 0 0 0-.03.092.4.4 0 0 0-.161.03l.005.021.161-.026q.015.046.062.09c.26.235.9.23 1.506.02q.022.043.106.067l.07.016-.746.323.005.02c.227-.033.545-.18.78-.336q.093.014.19.01a.22.22 0 0 0-.012.172l-.789.28.007.02c.26-.076.6-.195.79-.28a.17.17 0 0 0 .134.094l-.791.346.007.02c.185-.047.551-.208.832-.362.08.004.17-.005.26-.023a.3.3 0 0 0-.03.103l-.756.355.008.02c.229-.059.435-.162.747-.348q0 .076.048.13l-.692.35.007.02q.114-.024.267-.1.084-.04.175-.093a5 5 0 0 0 .26-.16.26.26 0 0 0 .167.062l-.566.265.007.02c.125-.026.245-.075.375-.147l.141-.083.095-.055a.7.7 0 0 0 .213-.055.3.3 0 0 0-.055.134l-.578.289.008.02a6 6 0 0 0 .57-.285.14.14 0 0 0 .032.071.1.1 0 0 0 .067.038l-.397.185.009.02c.136-.055.322-.142.479-.222q.062-.024.16-.076a2 2 0 0 0 .237-.158.25.25 0 0 0-.004.138l-.636.386.01.02c.17-.066.485-.263.634-.383a.18.18 0 0 0 .083.082l-.442.281.01.02c.168-.072.363-.198.457-.29l.004.002a.34.34 0 0 0 .29-.011l-.38.285.012.018c.185-.11.404-.272.476-.359l-.014-.015h-.001l-.003-.016-.447-.195.078-.061.091-.072-.009-.019-.292.054.204-.157-.012-.017a6 6 0 0 0-.257.186l-.265.05c.157-.087.323-.221.473-.39l-.01-.018-.386.055.052-.034.117-.079.113-.074-.01-.018-.371.219-.342.049c.21-.076.411-.194.534-.319a2 2 0 0 0 .161-.03h.003l.005-.002v-.021l-.642-.123q.06-.005.126-.015V8.27l-.735-.216-.014.01.001.022.024.012V8.1l-.002-.002h-.007L18.4 8.1v.002l-.012.003-.003-.001.003.001.016.008.003.008q-.03.007-.06.016a1 1 0 0 1-.103.013 1 1 0 0 0-.127.06l-.493-.125a.3.3 0 0 0 .12-.059l-.006-.004-.003-.016-.008.006.011.01v.002l-.02-.006a.3.3 0 0 1-.144.054l-.248-.063a.4.4 0 0 0 .081.043l-.09-.023-.04-.032h-.001l-.002-.003v-.02l-.015.005.015.015-.029-.01-.01.002-.421-.106a.2.2 0 0 1 .012-.067l-.01-.004h.003l.009.001.002-.006-.011.004-.013-.002a.2.2 0 0 0-.014.069l-.095-.017.088-.059a.17.17 0 0 1-.098-.077l-.004-.008.006-.02-.016-.007a.2.2 0 0 1-.007-.075l.022-.004a.17.17 0 0 0 .018.104q.029.052.103.072l.083-.055-.147-.133.026-.005-.031-.029q.043.01.087.017l.024-.005.02.01zm-.062-.014.064.01-.002.005-.024.004zm-.107-.023q.054.014.107.023l-.847-.437-.06-.054-.011.017.07.037c.222.197.475.345.739.414l-.015.002-.007.014.014.004.006.005a.2.2 0 0 0-.014.05l.057-.011-.043-.04.001-.002.037.008zm-.003.022.005-.01-.017.003.005.005zm.003-.022h-.002zm-.032.158-.001-.003-.138-.049-.04.009-.3-.107a1 1 0 0 1-.063-.045l-.01.019.074.026q.112.066.284.11l-.047.01q.11.03.25.054v-.002l.004-.02zm-.127-.025-.053-.018-.014.003zm0 0q.06.015.127.025l.008.022v.002zm.123.21.027-.017q-.309-.055-.398-.018a.13.13 0 0 0-.069.063 2 2 0 0 0-.198-.065l-.199-.057-.006.021.26.075.048.015.09.034.023.028a.15.15 0 0 0 .057.073l.009.006.041.05.024.011.002.001c-.084.03-.088.102-.011.164h-.002l-.01.002-.007.009q.007.007.017.013c-.046.053-.03.12.035.178.247.223.86.224 1.45.027l.04.006.001.002.008-.002-.002-.021v-.02l-.011-.002a.2.2 0 0 1 .027-.075.4.4 0 0 1 .146-.135l.056-.01V8.21h-.001l-.004.001V8.21l-.047.009-.493-.125.05-.01-.049-.012a.4.4 0 0 1-.092-.001l-.075-.02q.037.014.075.02l.09.023a.38.38 0 0 1-.255-.065l-.082-.02.041-.012-.041-.01-.045.01-.373-.094-.003-.023-.005-.002-.017-.003q0 .012.002.022zm-.294.194a1 1 0 0 1-.062-.036l-.066-.079c-.01-.038.01-.073.06-.095q.08-.032.362.016zm.01.005h-.008l-.023.009.02-.014zm0 0c.121.057.31.1.521.13zm.688.172-.167-.041c.399.056.882.062 1.16.014l.023.006-.028.016c-.242.041-.63.042-.988.005m-.172-.02.172.02.815.205v.003l-.058.004zm-.52-.131.002-.001h-.005zm0 0 .52.13a2 2 0 0 1-.521-.13m1.493.374-.044-.01h-.025l-1.436-.2q.017.014.041.027l-.04-.006.003-.003-.01.003h.006l-.002.003a.4.4 0 0 0 .091.05c.25.098.942.167 1.346.148l.047.007.035-.012h.002q0 .009.004.018h.004l-.002-.019h.004v-.002h-.003l.001-.02-.009.001v.017zm.013.004-.013-.004-.069-.01-.132.004-1.263-.177a1 1 0 0 0 .056.027c.222.087.8.151 1.207.15l.131.018.082-.005h.008v-.004h-.007m.005 0 .002.001zm0 0h-.005v.002zm-1.09-.574.014.004c.023.09.155.142.373.094l.044.011c-.26.068-.422.003-.44-.11zm0 0h.001m1.287.326.023-.014v.02zm-1.865-.3-.09-.033-.302-.111.397.123zm0 0 .007.003.007-.021-.01-.003h.001l.01.003-.007.021zm2.182.197v-.001l.006-.002.002.001zm.27.163c-.14-.032-.237-.09-.27-.163l-.06.015c-.183.055-.365.161-.412.25-.05.09-.029.128.07.156.289.081.633.007.895-.177l.01.006.006.01a1.2 1.2 0 0 1-.352.17l-.247.023-.008.005-.01.016.023-.001-.003.002.005-.001c-.058.092-.027.248.108.265l.038.004-.04.018h.008c-.093.051-.195.102-.295.149l-.232.101a2 2 0 0 1-.272.096l.007.02.265-.116q.11-.045.232-.101l.33-.145h.004l.016-.009-.006-.012q.123.004.264-.027l-.013.025.027-.006c-.085.156-.025.3.154.322q.03.004.065.001l-.046.022h.008l-.063.038-.095.056-.294.138q-.06.02-.12.032l.007.02.113-.052a1.5 1.5 0 0 0 .294-.138l.201-.094h.001l.005-.003-.01-.019a.7.7 0 0 0 .24-.065l-.022.032.036-.015c-.078.112-.089.172-.043.231.025.032.061.038.125.017l-.074.034h.008c-.139.07-.29.138-.404.185l.008.02.468-.219.01-.003.025-.013-.008-.017a1.5 1.5 0 0 0 .312-.18l.075-.056.005-.003-.011.035.019-.014.01-.008c-.048.135-.007.22.094.258a.32.32 0 0 0 .35-.065l.014.007-.003-.018-.012.011-.442-.193.02-.015-.023-.01-.003.001q.043-.031.09-.07l.057-.044.042-.008-.008-.019-.034.027-.292.054.038-.029-.018.004a6 6 0 0 1 .222-.16l-.013-.018-.238.183-.018.003-.038.03-.293.054.066-.035-.072.014c.165-.08.346-.216.51-.396l.029-.004-.01-.018-.02.022-.402.057.042-.027-.043.006.325-.193-.01-.018c-.035.021-.07.044-.115.074l-.117.079-.09.059-.049.007-.048.028-.417.06q.062-.017.123-.04l-.127.019c.237-.066.48-.194.626-.332l.035-.005.003-.002-.007-.016.118-.021.047.009h.003V8.43l-.05.012-.682-.133q.046 0 .095-.004l-.092-.018q.08 0 .166-.011l.047.014.001-.021-.048.007-.675-.198v-.014l-.014.01.014.004.003.019h.002V8.1h-.001v.018000000000000002l-.007.002.021.011c.04.062.138.113.273.139l.062.031-.052-.008-.008-.02zm.009.002-.01-.002-.435.143.005.022c.197-.025.309-.067.473-.156l-.002-.001-.008-.019zm-.118.057.15-.05v-.001l-.032-.006q-.062.032-.118.057m-.176.058q.093-.022.176-.058zm0 0q-.067.015-.15.025l.005.022zm.437-.095-.058-.006.129.065.006-.004.005.01.005.002-.002-.018-.008.006-.006-.02.025.013.002.019-.01.007c.026.04.082.07.158.09l-.083.039-.428.041a1 1 0 0 1-.239.044l.002-.003-.005.003h.003v.001l.606-.059-.366.166.008.02a3 3 0 0 0 .45-.195l.345-.034.089-.007.001-.001.03-.003-.008-.018.008-.001-.002-.003-.163.016c-.249.005-.42-.065-.401-.167h.002-.002l.002-.01-.012.007.01.002H18.9l.004-.016.009-.005h.014l-.01-.002-.004.002a1 1 0 0 1-.136-.008l-.354-.18v.002q.004.015.014.03l.272.138.068.01zm0 0 .071.003a.1.1 0 0 0 0 .033zm.65.158a1 1 0 0 1-.156.012l-.138.014-.075-.011.003-.002-.01-.019-.028.013h.004q-.03.018-.062.035l-.025.003-.061.027.036-.004c-.13.067-.271.128-.4.17l.007.02.423-.192.027-.003.047-.026.114-.011q.083.009.183.003l.09-.008zm-.421.038.014-.001.038-.022.002-.001-.01-.02-.023.014.03.006zm0 0-.04.004-.05.027.03-.003zm-.289.346-.004.009.07-.018zm0 0 .003-.004-.008.005zm.536-.076-.053.007-.282.167.01.02c.115-.044.224-.103.377-.202l-.05.008.049-.03-.007.002zm-.03.018.03-.018h.002zm0 0-.095.057zm-.095.057a1.5 1.5 0 0 1-.208.098l.009.02zm.063.279-.004.006.017-.008zm0 0 .002-.004-.007.005zm.325-.06-.02.003a3 3 0 0 0-.189.157l.014.016.241-.185-.018.004.038-.03-.029.006zm0 0-.208.159.014.016c.034-.034.124-.106.222-.18zm.196.074.004-.01-.014.006zm-.005-.023-.013.01.002-.005zm-.406.25v-.002l-.032.015.01-.004-.076.039q.03 0 .072-.015l.034-.016zm0 0-.001-.002-.022.011zm-.104-.264-.025.012.003-.005.007-.004zm-.264.077.01.02-.006.002h-.043l.038-.022zm0 0h-.001zm-.154-.362-.08.02.003-.005.007-.005zm-.346.047.007.013-.019.008-.035-.003.034-.02zm0 0h.002l-.004-.007-.014.006h.003l.01-.006zm-.072-.747-.004-.001h.008zm-.01-.006-.003-.01.015-.005-.002.02zm1.83 1.227h.001v-.002l-.094.07a.4.4 0 0 0 .088-.063 2.5 2.5 0 0 1-.466.348l.012.018.474-.356zm0 0-.005.005zm-.388.078h.002l.005-.006-.013-.016-.017.01.003.003a1 1 0 0 1-.148.115l-.086.055c-.068.041-.141.08-.21.108l.01.02.2-.128q.045-.027.086-.055zm0 0 .006-.004-.014-.017-.012.012zm-.107-.095.001.002.011-.01-.012-.017-.007.004v.002a3 3 0 0 1-.246.173l-.15.091a2 2 0 0 1-.238.12l.01.019.228-.139.15-.09zm0 0-.007-.02.006-.004.012.018zm-.59-.018v.001l.016-.009-.01-.019-.006.004a6 6 0 0 1-.577.288l.008.02zm0 0v-.023l.006-.003.01.019zm-.378-.165v.001l.008-.005-.01-.019-.014.007v.002c-.07.045-.124.08-.18.113l-.395.2a1 1 0 0 1-.114.033l.007.02.107-.053a2 2 0 0 0 .148-.064 3 3 0 0 0 .248-.136zm0 0-.015-.014.012-.008.01.019zm-.064-.148v.002l.014-.009-.01-.019-.003.001-.209.122-.402.189a2 2 0 0 1-.143.043l.007.02.136-.063c.125-.044.252-.105.402-.189zm0 0 .013-.006-.01-.02-.002.002zm-.41-.203.007-.003-.008-.02-.008.003c-.19.085-.529.203-.788.28l.007.02zm0 0-.009-.02.008-.003.008.02zm-.188-.202h.001l.003-.002-.01-.019-.032.014.008.002-.102.062-.548.237a1 1 0 0 1-.102.02l.006.021.096-.041a2.3 2.3 0 0 0 .548-.237zm0 0-.03-.005.022-.015.01.02zm-1.782-.202v.002l.01-.002v-.022h-.015v.002l-.16.026.007.021a.4.4 0 0 1 .158-.027m0 0-.005-.02.012-.002v.022zm-.02-.17.006.001.004-.02-.02-.007v.004l-.106-.011-.625-.177-.072-.042-.009.019.082.023c.166.09.368.145.624.177zm0 0-.01-.022.018.002-.003.02zm1.304-.444.006.004.01-.019-.018-.005zm2.632 1.73a4 4 0 0 1-.226.267l.016.014.227-.268zm0 0 .017.013c-.044.06-.156.192-.227.269l-.017-.014zM20.159 7.52a1.2 1.2 0 0 0-.054.424.4.4 0 0 1-.006.093.8.8 0 0 0 .035.357l.02-.007a.75.75 0 0 1-.033-.348.4.4 0 0 0 .005-.098c-.012-.086.011-.31.053-.414zm-.33.574a.8.8 0 0 1 .025-.262l.02.006a.8.8 0 0 0-.023.255zm.015.134a1 1 0 0 0 .02.346l.02-.005a1 1 0 0 1-.019-.337zm.076.577a.2.2 0 0 1-.022-.045l.02-.007a.2.2 0 0 0 .02.04 1 1 0 0 0 .044.058c.015.017.026.03.05.054l-.016.016-.05-.055a1 1 0 0 1-.046-.06m.083-.449c-.01.125.059.361.129.442a.87.87 0 0 0 .237.454l.015-.016a.87.87 0 0 1-.234-.447.8.8 0 0 1-.125-.431zm-.029-.14a.7.7 0 0 1-.004-.207l.02.004a.7.7 0 0 0 .006.2zm.334.13c-.046-.154-.047-.523 0-.718l.02.005c-.045.192-.044.556 0 .706zm-.058.057a.7.7 0 0 0 .01.347l.02-.007a.67.67 0 0 1-.01-.335zm.389-.176a.8.8 0 0 1-.2-.524h.02c-.005.162.071.37.196.51zm-.235.012c-.014.185-.004.355.03.453a1 1 0 0 1 .023.111l.009.055q.004.032.01.056a.5.5 0 0 0 .07.195l.018-.013a.5.5 0 0 1-.068-.186l-.01-.056-.008-.054a1 1 0 0 0-.024-.115 1.2 1.2 0 0 1-.028-.444zm.173.302-.008-.03.02-.006.009.03a1 1 0 0 1 .02.109.25.25 0 0 1-.014.122l-.02-.009a.2.2 0 0 0 .013-.111 1 1 0 0 0-.02-.105m.118-.171c.035.117.058.26.052.322l.022.002a1.1 1.1 0 0 0-.054-.33zm.15.948a.8.8 0 0 1-.093-.302l.021-.002a.8.8 0 0 0 .091.293zm-.252-.007c.04.122.11.248.173.297l.013-.017c-.058-.046-.126-.169-.165-.287zm.595.341a1 1 0 0 0-.14-.29l.018-.012c.07.099.098.164.142.295z" clip-rule="evenodd"/><path fill="#000" fill-rule="evenodd" d="m20.264 9.391.045.003c.053.003.072.008.096.034a.3.3 0 0 1 .049.079 1.2 1.2 0 0 0 .316.387c.125.221.18.513.142.67a.25.25 0 0 0-.11-.166 1 1 0 0 0-.08-.047.6.6 0 0 1-.17.11l.004.02a.43.43 0 0 0 .17-.113c.02.017.032.026.047.036l.016.011a.23.23 0 0 1 .102.152l.02-.004v.006l.02.005c.042-.154-.009-.437-.127-.662.146.068.24.143.258.25l.02.003.01-.024c.05-.11.068-.185.049-.263l.002.003.017.02.123.149h-.002q.004.028.008.1l.004.06.007.1c.007.114.015.189.026.238l.02-.005a2 2 0 0 1-.025-.234l-.006-.1-.004-.061-.006-.07c.046.057.058.077.064.099l.005.02.002.01a.7.7 0 0 0 .155.278l.016-.015a.7.7 0 0 1-.15-.268l-.003-.011-.005-.023c-.01-.037-.038-.07-.21-.277l-.02-.024-.04-.05-.018.012c.043.093.03.17-.026.298-.032-.102-.13-.175-.274-.24-.083-.037-.265-.253-.328-.39a.3.3 0 0 0-.052-.084c-.03-.03-.053-.037-.111-.04l-.043-.003zm1.041.687-.003-.031-.02.003zm-.501-.166-.012-.005-.022-.013.018-.01zm-.39-.195c.038.114.068.25.07.329l.022-.001a1.4 1.4 0 0 0-.071-.335zm.325.56a1.7 1.7 0 0 0-.083-.342l.02-.007c.04.113.081.281.085.347zm.375-.04a.7.7 0 0 1 .044.265l.021.002a.7.7 0 0 0-.046-.274z" clip-rule="evenodd"/></g></svg>