<svg xmlns="http://www.w3.org/2000/svg" fill="none" viewBox="0 0 28 28" focusable="false"><path fill="none" d="M0 0h28v28H0z"/><rect width="28" height="20" y="4" fill="#009F60" rx="3"/><rect width="28" height="20" y="4" rx="3"/><mask id="Zambia_svg__a" width="28" height="20" x="0" y="4" mask-type="alpha" maskUnits="userSpaceOnUse"><rect width="28" height="20" y="4" fill="#009F60" rx="3"/><rect width="28" height="20" y="4" stroke="#979797" stroke-opacity="0" stroke-width="0" rx="3"/></mask><g mask="url(#Zambia_svg__a)"><path fill="#EA8B42" d="M24 14.667h4V24h-4z"/><path d="M24 14.667h4V24h-4z"/></g><g mask="url(#Zambia_svg__a)"><path fill="#1A1919" fill-rule="evenodd" d="M20 24h4v-9.34h-4z"/><path d="M24 24v-9.34h-4V24z"/></g><g mask="url(#Zambia_svg__a)"><path fill="#DB3C36" fill-rule="evenodd" d="M16 24h4v-9.34h-4z"/><path d="M20 24v-9.34h-4V24z"/></g><g mask="url(#Zambia_svg__a)"><path fill="#EA8B42" fill-rule="evenodd" d="M21.01 7.48c-.09 0-.16-.03-.18-.08.15-.09.25-.07.37.04.03-.09 0-.19-.05-.24-.05-.06-.1-.06-.17-.07-.07 0-.14-.02-.19-.02-.07-.16-.25-.09-.42-.03-.28.11-.53.3-.64.48-.05.09-.06.12-.09.17.03 0 .03 0 .04-.01-.02.21-.04.41 0 .54-.05.18-.01.3.04.36.06.06.09.08.1.15s.03.13.08.17.08.1.08.13c.01.04.16.18.22.22.03.02.03.05.06.09-.06.37.19.74.13 1.1.04.01.1 0 .16-.01.05.31.08.46-.19.55-.27.1-.42.19-.35.29.06.07.17.01.24-.05.05-.05.11-.1.16-.11s.06 0 .03.06c-.02.07-.15.2-.16.27 0 .07.06.12.15.06.09-.05.17-.19.19-.27.02-.06.04-.1.04 0-.01.09-.07.27.06.3s.17-.13.13-.27-.06-.22-.04-.27.04-.07.09-.06.14-.01.14-.08c-.01-.08-.07-.14-.15-.1s-.14.04-.1-.06c.02-.07.06-.15.07-.2.05.07.35.08.47.01.03.15.11.28-.06.42-.17.13-.3.26-.3.36.01.1.04.16.13.11s.14-.12.16-.18c.02-.07.06-.07.04.01s-.05.19-.04.26.12.07.16.01c.05-.06.04-.15.03-.23s0-.17.02-.2c.02-.04.06-.09.1.01.04.09.06.16.13.19.08.02.14-.01.13-.11-.02-.09-.12-.19-.22-.27s-.07-.12-.06-.19c0-.07-.01-.2-.02-.26.09.07.19.06.24.06s.13-.02.05-.09c-.16-.15-.11-.24-.22-.34a.94.94 0 0 1-.24-.42c-.04-.14-.11-.4-.26-.53-.08-.07-.11-.27-.09-.5s.03-.48-.18-.6-.2-.21-.13-.32c.06-.1.15-.2.26-.21.03 0 .08 0 .11-.02-.01-.01-.03-.02-.06-.02"/><path d="M20.83 7.4c.15-.09.25-.07.37.04.03-.09 0-.19-.05-.24-.05-.06-.1-.06-.17-.07-.07 0-.14-.02-.19-.02-.07-.16-.25-.09-.42-.03-.28.11-.53.3-.64.48-.05.09-.06.12-.09.17.03 0 .03 0 .04-.01-.02.21-.04.41 0 .54-.05.18-.01.3.04.36.06.06.09.08.1.15s.03.13.08.17.08.1.08.13c.01.04.16.18.22.22.03.02.03.05.06.09-.06.37.19.74.13 1.1.04.01.1 0 .16-.01.05.31.08.46-.19.55-.27.1-.42.19-.35.29.06.07.17.01.24-.05.05-.05.11-.1.16-.11s.06 0 .03.06c-.02.07-.15.2-.16.27 0 .07.06.12.15.06.09-.05.17-.19.19-.27.02-.06.04-.1.04 0-.01.09-.07.27.06.3s.17-.13.13-.27-.06-.22-.04-.27.04-.07.09-.06.14-.01.14-.08c-.01-.08-.07-.14-.15-.1s-.14.04-.1-.06c.02-.07.06-.15.07-.2.05.07.35.08.47.01.03.15.11.28-.06.42-.17.13-.3.26-.3.36.01.1.04.16.13.11s.14-.12.16-.18c.02-.07.06-.07.04.01s-.05.19-.04.26.12.07.16.01c.05-.06.04-.15.03-.23s0-.17.02-.2c.02-.04.06-.09.1.01.04.09.06.16.13.19.08.02.14-.01.13-.11-.02-.09-.12-.19-.22-.27s-.07-.12-.06-.19c0-.07-.01-.2-.02-.26.09.07.19.06.24.06s.13-.02.05-.09c-.16-.15-.11-.24-.22-.34a.94.94 0 0 1-.24-.42c-.04-.14-.11-.4-.26-.53-.08-.07-.11-.27-.09-.5s.03-.48-.18-.6-.2-.21-.13-.32c.06-.1.15-.2.26-.21.03 0 .08 0 .11-.02-.01-.01-.03-.02-.06-.02-.09 0-.16-.03-.18-.08"/><path fill="#EA8B42" fill-rule="evenodd" d="M19.66 8.01c-.01.09 0 .18.02.25-.05.18-.01.3.04.36.06.06.09.08.1.15s.03.13.08.17.08.1.08.13c.01.04.16.18.22.22.03.02.03.05.06.09-.03.15 0 .3.04.46-.34.28-.68.15-.54-.14-.28.22-.77.22-.66 0-.45.15-.58.02-.52-.12-.38.15-.57.01-.52-.1-.31.09-.51.03-.54-.02s.05-.17.12-.23c-.14.06-.28.06-.41.04s-.1-.06-.07-.12.06-.15.16-.24c-.24.05-.55.08-.77.01-.04-.02-.11-.03-.07-.08.05-.04.18-.15.34-.22-.37.06-1.05.1-1.25-.12.19.04.43-.04.59-.1-.61-.07-1.44-.49-1.45-.9.17.28.47.38.77.47-.4-.24-.57-.53-.59-.72.23.22.59.48.94.54-.25-.14-.57-.52-.66-.79.18.16.64.42.95.5-.21-.17-.57-.57-.55-.8.09.09.29.24.7.49.42.24.65.22.99.3-.06-.09-.12-.2-.13-.23.11.01.2.05.49.23s.93.24 1.29.4c.26.12.64.04.75.12"/><path d="M19.68 8.26c-.05.18-.01.3.04.36.06.06.09.08.1.15s.03.13.08.17.08.1.08.13c.01.04.16.18.22.22.03.02.03.05.06.09-.03.15 0 .3.04.46-.34.28-.68.15-.54-.14-.28.22-.77.22-.66 0-.45.15-.58.02-.52-.12-.38.15-.57.01-.52-.1-.31.09-.51.03-.54-.02s.05-.17.12-.23c-.14.06-.28.06-.41.04s-.1-.06-.07-.12.06-.15.16-.24c-.24.05-.55.08-.77.01-.04-.02-.11-.03-.07-.08.05-.04.18-.15.34-.22-.37.06-1.05.1-1.25-.12.19.04.43-.04.59-.1-.61-.07-1.44-.49-1.45-.9.17.28.47.38.77.47-.4-.24-.57-.53-.59-.72.23.22.59.48.94.54-.25-.14-.57-.52-.66-.79.18.16.64.42.95.5-.21-.17-.57-.57-.55-.8.09.09.29.24.7.49.42.24.65.22.99.3-.06-.09-.12-.2-.13-.23.11.01.2.05.49.23s.93.24 1.29.4c.26.12.64.04.75.12-.01.09 0 .18.02.25"/><path fill="#EA8B42" fill-rule="evenodd" d="M21.84 10.51c.02-.01.02-.04-.02-.07-.16-.15-.11-.24-.22-.34a.94.94 0 0 1-.24-.42c-.04-.14-.11-.4-.26-.53-.08-.07-.11-.27-.09-.5.02-.2.03-.41-.1-.54.24-.07.46-.08.54-.01.4-.1.75-.13 1.09-.15.39-.03 1.13-.2 1.66-.56-.03.13-.21.33-.37.43.53-.13 1.18-.37 1.72-.78 0 .28-.23.5-.37.61.37-.2.92-.46 1.11-.79.08.33-.48.77-.78 1.01.31-.15.71-.29.86-.51 0 .27-.35.61-.69.8.34-.13.72-.26.94-.47.03.28-1.02.9-1.54 1.07.45-.11 1.04-.26 1.3-.42-.01.06-.12.14-.2.19-.31.24-.79.36-1.09.42.04.16-.01.25-.19.26-.18.02-.62-.05-.84-.16-.03.02-.07.02-.11.03.21.16.28.28.24.34-.05.07-.2.06-.31.04.09.25-.22.24-.47.09.1.13.11.24-.03.27s-.25.02-.39-.06c0 .09-.1.16-.22.13.42.25.4.35.33.45-.08.09-.33.07-.47-.01-.05.2-.28.2-.46.04 0 .08-.16.24-.33.14"/><path fill="#000" fill-rule="evenodd" d="M19.87 11.49c.01-.06.02-.13.07-.18.05-.04.08-.08.13-.04.04.05.01.09-.05.11a.17.17 0 0 0-.11.11c-.01.04-.04.06-.04 0M20.22 11.79c-.03-.1-.01-.24.02-.27.04-.04.08-.07.12-.03.05.04.06.09-.01.13-.07.03-.08.1-.08.15s-.03.08-.05.02M20.67 11.53c-.02.04.01.21.09.25.06.03.09.02.06-.03-.04-.06-.03-.11-.01-.14s.02-.08-.02-.11c-.04-.02-.1-.01-.12.03M21.04 11.37c-.05-.04-.1.01-.12.04-.04.07-.01.17.05.23.06.05.05-.02.03-.06-.02-.03-.02-.09.02-.1s.07-.07.02-.11M21.34 11.48c-.05-.01-.1.04-.1.11.01.05.01.11.06.14.03.02.06.04.04-.02s.01-.11.04-.13c.03-.01.02-.08-.04-.1M21.77 11.21c-.04.02-.04.08 0 .11.03.02.09.05.08.11-.01.05.02.07.04.01.03-.06.03-.15 0-.19-.03-.05-.09-.07-.12-.04"/><path fill="#000" fill-rule="evenodd" d="M21.014 7.473c-.087.003-.151-.027-.174-.076.137-.07.234-.057.36.056l.018-.005a.28.28 0 0 0-.056-.254.2.2 0 0 0-.04-.036c-.032-.02-.058-.026-.12-.03h-.016a1 1 0 0 1-.09-.012 1 1 0 0 0-.104-.013c-.053-.132-.159-.124-.423-.025-.278.104-.53.294-.643.485a1 1 0 0 0-.062.12l-.009.019-.017.03.01.016c.009 0 .009 0 .015-.002l.012-.002-.004.037c-.028.294-.03.388 0 .486-.045.164-.021.293.05.365.069.07.08.088.09.146.01.074.041.138.09.177a.23.23 0 0 1 .078.125c.005.037.154.185.223.227a.1.1 0 0 1 .02.024l.014.025.02.03c-.028.15-.009.277.063.557.071.274.09.393.066.543a.3.3 0 0 0 .173-.003c.047.381.03.457-.2.535q-.215.073-.304.141-.103.08-.044.163c.051.07.152.036.248-.052a.5.5 0 0 1 .16-.105c.039-.011.042-.006.02.05a.6.6 0 0 1-.076.117l-.013.018c-.046.064-.068.104-.07.136-.006.085.07.127.16.073a.53.53 0 0 0 .199-.284l.013-.04v.037l-.009.072-.005.048c-.012.111.01.175.09.193.131.03.188-.119.138-.282-.045-.147-.056-.218-.04-.26.022-.055.039-.069.075-.058.07.021.159-.017.154-.094-.006-.092-.086-.151-.166-.106-.037.021-.068.029-.083.022q-.022-.007-.003-.068c.006-.018.013-.034.028-.07a1 1 0 0 0 .042-.115c.08.065.336.07.458.008l.014.057c.032.123.036.17.007.233a.3.3 0 0 1-.083.1c-.206.166-.308.283-.303.374.006.115.057.166.146.116a.34.34 0 0 0 .165-.186c.007-.025.018-.04.021-.039.002 0 .004.018-.003.048l-.015.058-.014.058a.4.4 0 0 0-.01.147c.017.078.135.084.183.013.039-.055.041-.109.026-.235v-.001a.4.4 0 0 1 .023-.198q.018-.032.035-.038.02-.008.043.046l.026.066c.033.078.061.113.116.13.089.029.15-.017.134-.114-.013-.085-.097-.184-.221-.28-.048-.036-.066-.064-.068-.094 0-.013 0-.02.005-.05l.004-.037a1 1 0 0 0-.008-.187l-.005-.055.026.014a.36.36 0 0 0 .185.034h.018c.033 0 .063-.006.08-.02q.036-.03-.024-.087a.43.43 0 0 1-.132-.201l-.025-.06a.3.3 0 0 0-.06-.08.93.93 0 0 1-.244-.409c-.057-.238-.136-.427-.259-.537-.074-.066-.104-.252-.083-.493.027-.332-.01-.509-.19-.61-.18-.102-.207-.186-.131-.301.085-.128.165-.2.258-.205.05-.003.09-.01.111-.026-.02-.033-.036-.04-.064-.04m0 .022c-.094.002-.167-.03-.189-.103.145-.085.25-.075.376.033l-.004.017.018-.005-.014-.012a.26.26 0 0 0-.055-.216.2.2 0 0 0-.036-.033c-.028-.017-.05-.022-.109-.026l-.017-.001a1 1 0 0 1-.092-.012l-.11-.019c-.055-.122-.152-.115-.405-.02-.274.102-.521.29-.632.476a1 1 0 0 0-.061.119l-.01.018-.006.012-.008.002-.015.002.01.016.013-.02h.001l.013-.008.016.01-.006.058c-.027.29-.03.384-.001.484-.042.162-.02.284.046.35.07.072.085.094.094.158.01.069.04.128.083.163.046.037.08.096.086.139.005.028.15.173.213.211a.1.1 0 0 1 .028.032l.014.025q.009.013.02.037c-.025.154-.006.278.065.555s.09.399.057.54a1 1 0 0 0 .153-.005l.016-.001c.062.4.042.485-.2.568a1.1 1.1 0 0 0-.299.138q-.089.067-.04.133c.04.055.13.024.216-.056a.5.5 0 0 1 .169-.11q.088-.026.047.078a.6.6 0 0 1-.08.123l-.012.017q-.065.09-.067.125c-.005.068.052.099.129.054a.5.5 0 0 0 .188-.271c.008-.034.018-.059.029-.065.012-.009.022 0 .025.016q.003.015.001.052l-.008.074-.006.047c-.01.102.007.155.073.17.11.024.16-.104.113-.255-.046-.151-.058-.225-.038-.275.025-.063.05-.085.1-.07.057.018.13-.014.126-.072-.005-.077-.069-.125-.133-.088q-.066.037-.102.023-.042-.018-.015-.095c.006-.019.013-.035.028-.072a.5.5 0 0 0 .044-.13l.02-.005c.049.073.342.082.458.011l.016.008.017.07c.033.127.038.178.006.247a.3.3 0 0 1-.09.107c-.2.162-.299.276-.295.357.005.102.043.139.115.099a.32.32 0 0 0 .154-.175c.01-.034.028-.056.046-.053.02.004.024.033.013.074l-.028.115a.4.4 0 0 0-.01.138c.012.058.106.063.145.006.034-.05.036-.1.022-.22v-.002a.4.4 0 0 1 .026-.21q.02-.04.047-.049.04-.011.068.06l.027.065c.03.072.055.103.102.118.075.024.12-.01.107-.09-.012-.079-.093-.174-.213-.267-.052-.04-.074-.072-.076-.11a.2.2 0 0 1 .005-.054l.004-.035a1 1 0 0 0-.003-.12l-.005-.065-.007-.077.017-.009a.3.3 0 0 0 .041.025.34.34 0 0 0 .176.032h.018c.029 0 .054-.006.066-.015.011-.01.007-.026-.024-.055a.45.45 0 0 1-.138-.21l-.024-.057a.3.3 0 0 0-.056-.074.95.95 0 0 1-.25-.42c-.056-.234-.133-.42-.252-.526-.081-.072-.112-.263-.09-.51.026-.325-.01-.494-.179-.59-.191-.108-.222-.206-.139-.332.088-.134.173-.208.274-.215q.022 0 .04-.003a.2.2 0 0 1 .06-.001.07.07 0 0 0-.05-.018" clip-rule="evenodd"/><path fill="#000" fill-rule="evenodd" d="M19.402 7.96c.165.006.225.013.267.042l.005.01a.8.8 0 0 0 .017.255c-.042.162-.02.284.046.35.07.072.085.094.095.158.01.069.038.128.083.163.045.037.08.096.085.139.005.028.15.173.213.211a.1.1 0 0 1 .028.032l.014.025q.009.013.02.037c-.022.133-.007.265.036.468-.161.136-.336.188-.46.149-.111-.036-.155-.138-.109-.266a.82.82 0 0 1-.453.147c-.152-.001-.238-.062-.204-.161-.367.123-.57.053-.52-.117-.304.113-.555.035-.516-.1-.26.067-.487.043-.532-.03-.028-.045.015-.137.082-.207a.8.8 0 0 1-.364.017c-.063-.01-.093-.024-.102-.049-.006-.019-.004-.024.02-.076l.003-.007.02-.047.03-.057a.5.5 0 0 1 .088-.116c-.302.056-.559.064-.742.002l-.028-.009a.1.1 0 0 1-.051-.026q-.023-.024.007-.055c.058-.06.162-.135.272-.192-.523.07-1.023.039-1.181-.14l.01-.017c.147.03.336-.008.54-.087-.668-.089-1.408-.524-1.417-.902l.02-.006c.135.22.316.325.688.44-.322-.209-.508-.468-.525-.682l.018-.009c.264.255.578.454.866.521-.239-.155-.521-.506-.603-.758l.017-.012c.182.164.605.395.897.486-.266-.224-.53-.586-.514-.776l.019-.007c.101.103.335.268.698.481.225.132.396.193.622.234l.11.02c.12.02.165.027.222.038a.8.8 0 0 1-.11-.208l.012-.012c.113.016.22.067.492.236.131.081.291.129.679.22l.018.003c.313.073.452.112.587.17q.104.047.25.062c.066.008.114.01.235.015M15.59 6.71v.024l-.018-.017zm1.564.568c.016.044.07.14.118.206l-.01.017a5 5 0 0 0-.247-.044l-.112-.02a1.8 1.8 0 0 1-.629-.236c-.345-.202-.574-.362-.685-.467.008.197.284.56.548.766l-.01.019a3 3 0 0 1-.925-.478l-.014-.038-.017.011.03.027c.103.263.402.617.634.74l-.006.02c-.302-.05-.636-.252-.917-.518l-.003-.029-.018.009.02.02c.033.216.238.477.582.68l-.009.019c-.408-.12-.609-.22-.755-.435l-.004-.044-.02.006.024.038c.063.361.793.77 1.436.843l.003.02c-.207.085-.401.13-.557.11l-.024-.024-.01.018.034.005c.182.158.693.176 1.208.1l.006.02a1.2 1.2 0 0 0-.33.218q-.017.017-.007.025a.1.1 0 0 0 .043.021l.027.009c.187.063.454.052.768-.01l.01.019c-.008.005-.008.005-.014.011a.54.54 0 0 0-.147.227l-.003.007c-.02.044-.022.05-.018.06.004.015.029.027.084.035a.8.8 0 0 0 .4-.032l.01.019c-.077.064-.138.172-.113.213.04.064.268.086.53.015l.012.015c-.062.124.188.208.501.083l.014.014c-.066.165.126.237.509.103l.013.014c-.047.095.025.152.175.153a.8.8 0 0 0 .472-.166l.016.013c-.064.134-.028.238.081.273.116.037.283-.013.436-.133-.048-.195-.062-.33-.037-.458l-.02-.031-.014-.025a.1.1 0 0 0-.021-.024c-.069-.042-.218-.19-.223-.227a.23.23 0 0 0-.078-.125.27.27 0 0 1-.09-.177c-.009-.058-.021-.077-.09-.146-.071-.072-.095-.201-.05-.365a.8.8 0 0 1-.019-.25l.005.003-.005-.01v.006c-.037-.022-.098-.03-.25-.035a3 3 0 0 1-.238-.014.9.9 0 0 1-.256-.063c-.133-.059-.271-.097-.583-.17l-.018-.004c-.39-.09-.551-.139-.685-.222-.256-.16-.364-.212-.468-.23m0 0-.016-.003.012-.012q0 .006.004.015" clip-rule="evenodd"/><path fill="#000" fill-rule="evenodd" d="M20.933 8.119c.076.085.105.195.105.359q0 .08-.008.177-.007.076-.007.142c0 .171.031.299.09.351.123.11.202.3.26.537.032.137.13.301.243.41a.3.3 0 0 1 .06.08 1 1 0 0 1 .025.059c.036.094.06.135.132.201q.037.035.037.06 0 .01-.004.016c.13.065.3-.04.302-.139l.018-.007c.174.16.39.147.444-.037l.016-.006c.138.09.382.1.447.012a.16.16 0 0 0 .038-.095c0-.085-.1-.179-.364-.34l.008-.019c.114.03.205-.025.214-.12l.017-.008c.124.08.23.097.378.066q.094-.02.094-.091 0-.066-.076-.164l.014-.016a.67.67 0 0 0 .36.103q.11-.011.111-.105a.2.2 0 0 0-.016-.08l.013-.015c.148.032.266.027.3-.026a.1.1 0 0 0 .01-.038c0-.067-.082-.168-.25-.294l.006-.02a.4.4 0 0 0 .12-.03c.2.101.63.181.83.167.14-.01.2-.066.2-.184a1 1 0 0 0-.007-.082c.43-.084.827-.22 1.09-.414l.117-.092a.4.4 0 0 0 .058-.062c-.22.124-.607.238-1.267.4l-.006-.02c.587-.193 1.494-.78 1.531-1.032-.152.133-.366.239-.724.377l-.1.039-.1.038-.01-.02c.36-.21.652-.518.682-.754-.1.124-.265.22-.583.362l-.263.12-.011-.018c.159-.126.214-.17.3-.246.163-.142.287-.27.37-.392a.54.54 0 0 0 .113-.294q0-.02-.002-.039c-.116.183-.339.351-.697.553-.085.048-.364.2-.4.22l-.013-.017c.228-.198.356-.37.37-.588-.488.36-1.087.616-1.713.769l-.008-.02c.152-.092.312-.265.36-.388-.46.302-1.143.505-1.642.538-.453.03-.745.068-1.099.153-.067-.068-.266-.065-.514.003m5.425.256.03-.017-.015-.012a.1.1 0 0 1-.015.03m.258-.652.02-.016-.019-.007v.023m-.252-.32.022-.03-.02-.006zm-.076-.507.014-.024-.02-.003zm-.74.168.017-.013-.017-.01zm-1.361.361q.012-.007.025-.017l-.016-.011zm-3.254.694-.013-.013-.005.018zm.923 2.404.01-.012-.011-.006zm-.013-.017.001.018c.137.08.319-.02.342-.13.178.152.397.137.46-.046.148.088.392.095.464 0a.2.2 0 0 0 .043-.108c0-.089-.094-.183-.33-.33.095.004.168-.048.185-.131a.47.47 0 0 0 .38.06c.076-.015.112-.055.112-.11a.27.27 0 0 0-.054-.142c.119.061.243.093.331.084.085-.008.132-.052.132-.126a.2.2 0 0 0-.012-.07c.15.029.266.022.305-.04a.1.1 0 0 0 .014-.048q0-.113-.237-.296a.2.2 0 0 0 .093-.03c.192.103.626.184.83.17q.218-.016.216-.187a.4.4 0 0 0-.013-.093c.426-.072.825-.208 1.09-.405.029-.02.041-.03.058-.043q.035-.027.06-.05.07-.06.08-.102l-.015-.012c-.193.117-.532.224-1.108.37.598-.246 1.369-.77 1.369-1.002v-.01l-.018-.006c-.15.138-.366.246-.737.39l-.095.035c.339-.22.596-.52.598-.749l-.019-.006c-.094.134-.258.232-.596.385l-.148.066-.032.015c.107-.085.157-.127.23-.19.163-.143.288-.272.373-.396a.56.56 0 0 0 .117-.306.3.3 0 0 0-.009-.071l-.02-.003c-.108.188-.332.36-.702.57-.06.034-.22.12-.32.175.196-.183.304-.351.309-.564l-.018-.009c-.472.354-1.052.608-1.661.763.151-.107.297-.278.325-.394l-.016-.011c-.456.308-1.151.517-1.657.55-.453.03-.747.069-1.092.157-.066-.075-.279-.07-.541.005l-.005.018c.08.082.112.19.112.358q0 .078-.009.174-.006.076-.006.145c0 .176.032.309.097.366.119.106.196.292.253.526a.95.95 0 0 0 .249.42.3.3 0 0 1 .056.074c.008.016.014.03.024.057.037.097.062.141.137.21q.032.03.03.043a.01.01 0 0 1-.005.012M17.25 7.493c.07.103.258.255.37.284l.01-.019-.365-.28zm.017-.012-.015.015.081.062a1 1 0 0 1-.066-.077m.282.243-.216-.166c.062.062.144.127.216.166m0 0 .067.051.01-.019a.4.4 0 0 1-.077-.032m.06-.007v.02c0 .159.102.316.287.372a.9.9 0 0 0 .525.01l.002-.02-.799-.39zm.021.002-.015.009.015.007zm.758.386-.758-.37v.001c0 .15.097.3.273.352a.9.9 0 0 0 .485.017m0 0 .025.013.002-.02zm.024-.007c-.21.047-.439.172-.496.278a.2.2 0 0 0-.028.088c0 .049.037.079.112.1.3.084.658.005.927-.19l-.002-.019-.506-.257zm-.003.02.004.001h.003zm.49.248-.486-.247c-.203.047-.425.169-.478.267a.2.2 0 0 0-.026.077c0 .04.032.062.097.08.288.081.631.007.894-.177m0 0 .017.008-.002-.018zm-.503-.302c-.008.17.33.294.749.227V8.27l-.735-.216zm.008.01.014.005v-.014zm.689.203-.675-.198c.012.139.303.245.675.198m0 0 .047.014.001-.021zm-.384-.003q-.074.041-.141.07l.15-.05zm-.317.128q.093-.022.176-.058zm0 0q-.067.015-.15.025l.005.022zm.327-.108-.008-.02-.47.154.005.022c.196-.025.309-.067.473-.156m.185 0c-.054.174.323.263.757.156v-.021l-.745-.143zm.008.013.01.002.002-.01zm.694.136-.684-.134-.002.016c0 .13.313.2.686.118m0 0 .05.01V8.43zm-.504.017c-.16.093-.36.187-.536.242l.008.02.538-.243zm.01.018-.009-.019-.538.244.008.02c.178-.056.378-.15.54-.245m-.803.102c-.069.102-.036.283.12.303.33.041.837-.168 1.066-.403l-.009-.019-1.169.114zm.01.017.005-.001.003-.004zm1.14-.111-1.135.11a.2.2 0 0 0-.027.1c0 .077.043.154.135.165.313.04.793-.153 1.026-.375m0 0 .03-.003-.01-.018zm-.706.348a.3.3 0 0 0-.047.158c0 .108.073.193.21.209.226.027.585-.167.88-.5l-.01-.018-1.025.146zm.011.016h.005l.003-.005zm.995-.142-.99.141a.3.3 0 0 0-.042.143c0 .097.067.173.192.188.213.025.554-.156.84-.472m0 0 .03-.004-.01-.018zm-.089-.175q-.05.03-.114.074l-.117.079q-.09.06-.164.105l.406-.24zm-.49.315q.045-.025.095-.057zm0 0c-.074.042-.14.073-.208.098l.009.02zm.502-.297-.012-.018-.7.414.01.02c.138-.053.267-.127.47-.263l.118-.079zm-.454.56c-.054.077-.08.133-.08.18q0 .046.032.086c.051.066.13.046.317-.055a2 2 0 0 0 .257-.172 8 8 0 0 0 .199-.156l-.009-.019-.71.132zm.01.017.005-.001.002-.004zm.668-.124-.663.123c-.05.072-.074.122-.074.164q0 .04.027.073c.042.053.114.034.291-.061a2 2 0 0 0 .254-.17zm0 0 .042-.008-.008-.019zm-.062-.15a5 5 0 0 0-.485.373l.014.016.483-.37zm.012.019-.013-.018-.483.37.014.017c.066-.066.347-.278.482-.37m-.108.25a.4.4 0 0 0-.025.122c0 .086.046.145.128.175.132.05.265.034.383-.08l-.003-.018-.469-.205zm.006.014.01.004.004-.01zm.453.198-.443-.194a.3.3 0 0 0-.02.104c0 .076.041.128.114.155a.32.32 0 0 0 .35-.065m0 0 .015.007-.003-.018zm-1.102.372c.174-.067.501-.272.645-.391l-.012-.018-.642.39zm-.008-.02.01.02.228-.139a2 2 0 0 1-.238.12m.388-.21-.15.091zm0 0 .264-.16-.012-.018c-.06.05-.153.115-.252.178m.352-.08a1 1 0 0 1-.16.127l.174-.11zm-.246.182q.045-.027.086-.055zm0 0c-.068.041-.141.08-.21.108l.01.02zm.261-.167-.013-.016-.459.292.01.02c.172-.074.37-.203.462-.296m-.079.3c.185-.11.404-.272.476-.359l-.014-.015-.474.356zm-.01-.019.011.018.474-.356-.015-.016c-.07.084-.288.245-.47.354m.48-.192c-.045.06-.156.19-.227.267l.016.014.227-.268zm.016.013-.016-.014-.227.269.016.014c.07-.077.183-.21.227-.27m-.907-.148a6 6 0 0 1-.501.234l.008.02.502-.235zm.01.02-.01-.02-.502.234.009.02c.143-.058.341-.15.503-.235m-.784.205c.105-.037.414-.195.586-.294l-.01-.019-.584.293zm-.007-.02.008.019.585-.292-.01-.02a6 6 0 0 1-.583.292m-.192-.082c.125-.027.245-.076.375-.148.054-.03.215-.127.24-.141l-.009-.02-.613.288zm-.005-.022.007.02.113-.052q-.06.02-.12.032m.415-.17-.295.138a1.5 1.5 0 0 0 .294-.138m0 0 .205-.097-.009-.02zm-.72.196q.114-.024.267-.099a3 3 0 0 0 .175-.093c.09-.051.16-.095.267-.165l-.01-.019-.706.356zm-.004-.02.007.02.107-.054a1 1 0 0 1-.114.033m.51-.234-.396.2a2 2 0 0 0 .148-.064 3 3 0 0 0 .248-.136m0 0 .202-.102-.01-.019c-.077.05-.134.086-.192.12m.134-.272-.21.122.22-.103zm-.613.31c.125-.043.252-.104.402-.188zm0 0a2 2 0 0 1-.143.044l.007.02zm.624-.292-.01-.019-.759.356.008.02c.232-.06.442-.165.761-.357m-1.075.265c.188-.05.565-.215.848-.372l-.01-.02-.845.371zm-.006-.021.007.02.265-.116a2 2 0 0 1-.272.096m.504-.197-.232.101q.11-.045.232-.101m0 0 .349-.154-.01-.019a5 5 0 0 1-.34.173m.152-.266a8 8 0 0 1-.796.282l.007.02.797-.282zm.008.02-.008-.02-.797.283.007.02c.263-.078.608-.198.798-.283m-.974.137c.228-.033.547-.182.783-.338l-.01-.019-.778.337zm-.003-.021.006.02.096-.041a1 1 0 0 1-.102.02m.65-.258-.548.237a2.3 2.3 0 0 0 .548-.237m0 0 .134-.058-.01-.019q-.059.04-.124.077m-1.858-1.132c.12.099.307.157.566.202l.005-.02-.56-.2zm.014-.017-.01.019.074.026a1 1 0 0 1-.064-.045m.415.17-.351-.125c.088.054.205.093.351.125m0 0 .135.049.005-.021zm-.655-.586c.285.271.627.464.982.507l.006-.02-.976-.504zm.015-.015-.012.017.07.037zm.906.491-.847-.437c.252.224.544.385.847.437m0 0 .058.03.006-.02zm-.124-.021a.2.2 0 0 0-.002.188c.043.075.142.109.3.088l.005-.019-.287-.26zm.002.013.01.01.007-.013zm.27.244-.26-.234a.2.2 0 0 0-.015.075q0 .043.02.08c.036.062.118.093.254.08m0 0 .017.016.005-.018zm-.15.004c-.083.178.108.312.47.2l.001-.02-.457-.186zm.006.014.01.004.003-.01zm.428.174-.419-.17a.2.2 0 0 0-.012.06c0 .116.156.187.431.11m0 0 .029.012v-.02zm-.061-.142c.066.246.38.33.564.181l-.003-.018-.547-.176zm.02-.006-.013.014.02.006zm.515.183-.509-.163c.07.208.34.281.509.163m0 0 .02.006-.004-.018zm-.91-.14c-.27-.052-.44-.069-.51-.038-.093.041-.104.129-.007.204.277.212 1.385.283 1.826.187V8.21zm-.006.021h.001m1.263.32-1.262-.32c-.263-.05-.432-.067-.496-.04q-.061.029-.062.076 0 .043.06.092c.261.2 1.297.272 1.76.192m0 0 .047.012V8.21zm-1.688-.145c-.139.046-.104.186.081.259.271.106 1.06.179 1.44.142l.002-.021-1.517-.38zm0 .02.003.001.003-.001zm1.453.364-1.45-.363q-.066.026-.066.074c0 .047.05.104.152.144.253.099.968.169 1.364.145m0 0 .064.016.002-.02zm-1.472-.197a.12.12 0 0 0-.039.088q.001.066.068.128c.26.236.906.23 1.514.017l-.002-.021-1.532-.215zm.006.019h.005l.004-.003zm1.487.208L16.37 8.28a.1.1 0 0 0-.028.07q0 .056.06.11c.248.224.861.225 1.45.028m0 0 .045.006-.002-.02zm-1.684-.076a.4.4 0 0 1 .166-.027v-.022l-.172.028zm-.008-.02.005.021.172-.028v-.022a.4.4 0 0 0-.177.029m-.678-.411c.208.133.47.203.83.235l.004-.02-.826-.235zm.011-.018-.009.019.081.023zm.697.219-.625-.177c.168.09.369.145.625.177m0 0 .12.034.004-.021zm-.363-.38c.052.016.2.057.2.057l.06.018q.073.024.145.05l.007-.02-.406-.126zm.006-.021-.006.021.406.126.007-.02a2 2 0 0 0-.208-.07zm7.996.038-.49.174a3.5 3.5 0 0 1-.475.137l.005.02.967-.311zm.007.02-.007-.02-.966.311.005.021q.155-.026.477-.137l.092-.032zm-2.822.727c.22.12.477.1.508-.105l-.012-.012-.493.097zm.01-.016-.003.02.03-.005zm.474-.077-.447.092c.197.099.41.077.447-.092m0 0 .016-.003-.013-.012zm-.011.059c.195.115.543.027.533-.166l-.53.146zm.01-.019-.002.02.025-.008zm.515-.136-.492.148c.186.09.487.007.492-.148m-.03.077c.235.09.458.042.497-.173l-.014-.012-.483.165zm.007-.02v.02l.029-.01zm.465-.139-.436.15c.206.069.393.025.436-.15m0 0 .018-.006-.014-.012z" clip-rule="evenodd"/><path fill="#000" fill-rule="evenodd" d="M22.865 8.075a.2.2 0 0 1 .01.054c0 .16-.247.318-.462.277l.004-.02c.203.038.436-.112.436-.257a.1.1 0 0 0-.008-.046zm-1.644.135a.8.8 0 0 1 .235-.112l.006.021a.7.7 0 0 0-.23.11zm2.192.348c-.104-.088-.409-.194-.659-.244l.005-.021c.253.05.56.158.668.249.066.056.103.108.103.152V8.7q-.004.08-.166.109c-.194.034-.282.029-.539-.02l.004-.02c.255.047.34.053.531.019.1-.018.146-.05.148-.09v-.003q-.001-.055-.095-.136m.338-.357a1.36 1.36 0 0 0-.867.14l-.01-.018a1.38 1.38 0 0 1 .882-.142c.12.027.186.076.2.139l.003.025c0 .044-.024.09-.063.127-.084.08-.27.124-.458.105l.002-.021c.182.018.362-.025.441-.1a.16.16 0 0 0 .057-.111l-.002-.02c-.012-.054-.071-.098-.185-.124m-.012.153c-.152 0-.46.03-.626.06l-.004-.022c.168-.03.476-.06.63-.06zm.118-.14c.531-.124 1.134-.375 1.324-.562l.015.015c-.194.19-.8.443-1.334.569zm.445.02q.001-.079-.082-.1l.005-.022c.066.017.098.061.098.122a.2.2 0 0 1-.007.053.37.37 0 0 1-.107.18 1.25 1.25 0 0 1-.715.295l-.003-.021c.294-.03.497-.121.705-.29a.35.35 0 0 0 .1-.17.2.2 0 0 0 .006-.047m-.108.541c-.13.087-.455.067-.653-.018l.009-.02c.191.083.509.102.632.02.064-.042.095-.096.095-.15 0-.05-.03-.1-.085-.134l.011-.018c.063.038.095.094.095.153 0 .06-.034.12-.104.167m-1.212.015c.438.082.87.194.976.285l-.014.016c-.101-.087-.534-.199-.965-.28zm1.222.064c0 .09-.063.185-.135.209l-.006-.021c.063-.02.12-.108.12-.188a.14.14 0 0 0-.018-.07l.018-.012q.02.038.02.082m-1.626.206c-.277-.042-.734-.277-.967-.486l.014-.016c.23.207.683.44.956.48a.75.75 0 0 0 .343-.008q.06-.022.06-.064 0-.036-.045-.085c-.122-.135-.42-.28-.73-.387l.007-.02c.313.107.613.254.739.392q.05.058.05.1 0 .056-.073.084a.8.8 0 0 1-.354.01m.398-.054c.399.252.651.385.908.445l-.005.02c-.26-.06-.514-.193-.914-.447zm.185-.01-.19-.078.009-.02c.05.02.11.044.19.078l.22.096.044.018c.246.105.4.165.506.192l-.006.021a4 4 0 0 1-.509-.193l-.043-.019zm-.483.06c.187.166.534.393.737.49l-.01.02a4 4 0 0 1-.74-.494zm.494.213a2.5 2.5 0 0 1-.324-.202l.014-.017q.085.07.32.2l.063.034.325.175-.01.019c-.02-.011-.25-.133-.325-.175zm-.49-.346a6 6 0 0 1-.808-.381l.01-.019c.246.14.576.296.805.38zm.088-.37a4 4 0 0 0-.486-.073l.002-.022c.155.014.31.038.489.075.072.015.146.031.24.053l.248.058-.005.02c-.048-.01-.215-.05-.247-.057zm-1.204 1.291a.45.45 0 0 1-.233-.23l.02-.01c.05.102.124.183.22.22.099.037.179-.037.184-.147l.001-.047a.4.4 0 0 0-.02-.144l.02-.007c.014.039.022.086.022.151q0 .022-.002.048c-.005.123-.099.209-.212.166m.066-.405c-.22-.131-.47-.541-.503-.832l.021-.003c.033.285.28.689.493.816.178.106.357.096.41.018a.14.14 0 0 0 .023-.077c0-.09-.072-.206-.222-.288a1.8 1.8 0 0 1-.51-.447l.017-.012c.105.146.33.345.504.44.156.086.232.209.232.307a.16.16 0 0 1-.026.09c-.06.088-.252.1-.44-.012m.101-.2c-.145-.092-.454-.48-.497-.61l.02-.007c.042.126.347.51.488.598zm-.227.321c-.048-.117-.346-.563-.505-.773l.017-.013c.16.212.46.658.508.778zm.5-.54c-.15-.06-.475-.309-.575-.422l.016-.014c.098.11.421.357.566.416zm.23.225a.6.6 0 0 1-.227-.06l.01-.019a.6.6 0 0 0 .218.058q.072.004.073-.054a.1.1 0 0 0-.006-.04.5.5 0 0 0-.123-.2l.015-.015a.55.55 0 0 1 .128.209.2.2 0 0 1 .008.045c0 .052-.037.08-.096.076m.531.655c-.205-.04-.608-.28-.721-.443l.017-.013c.11.16.508.396.708.435zm-.45-.697c.142.15.536.474.689.55l-.01.02c-.155-.078-.551-.403-.695-.556zm-.55.302c.194.235.726.73.878.817l-.01.019c-.155-.088-.69-.585-.885-.822zm.226.665q.116.134.192.194l-.013.017a1.6 1.6 0 0 1-.195-.197l-.064-.076a8 8 0 0 1-.221-.282l.017-.013a7 7 0 0 0 .284.357m.672-.478a8 8 0 0 1-.658-.498l.014-.016c.125.113.403.32.656.496zm-.936.403a.9.9 0 0 0-.092-.252l.02-.009a.8.8 0 0 1 .092.27c-.007.06-.03.086-.09.072l.005-.021c.045.01.058-.005.064-.054zM25.24 8.01c.124-.07.191-.106.269-.145l.01.019c-.078.04-.144.076-.268.145l-.029.016c-.436.243-.662.344-1.008.418l-.004-.02c.342-.074.567-.174 1.002-.417zm.125-.231c-.316.182-.578.294-1.052.47l-.008-.02c.473-.176.735-.287 1.05-.47q.24-.138.448-.303l.014.017q-.21.165-.452.306m.529.11c-.382.314-.951.56-1.608.724l-.005-.021c.654-.163 1.22-.408 1.6-.72zm-.31.313a1 1 0 0 1 .1-.045l.007.02a1 1 0 0 0-.097.044c-.046.024-.311.177-.405.224-.263.132-.551.223-.943.278l-.003-.021c.39-.055.675-.145.936-.276.093-.047.358-.2.406-.224m-1.39.634c.314.03.697.007.888-.084l.01.02c-.197.093-.583.117-.9.086zm-.018.095c.204.05.684.061.913.01l.005.022c-.233.051-.716.041-.923-.01zm-4.4-1.225a.3.3 0 0 0-.085.029l-.01-.019a.3.3 0 0 1 .09-.031l.019-.004a.13.13 0 0 0 .06-.041c.177-.182.465-.385.626-.449l.125-.05a1 1 0 0 1 .098-.03.4.4 0 0 1 .096-.008v.021a.4.4 0 0 0-.092.008l-.024.005c-.018.004-.036.011-.195.074-.158.063-.444.264-.62.444a.16.16 0 0 1-.089.051m.71-.479c-.007-.007-.01-.009-.017-.006l-.009-.02q.023-.01.041.01l.021.025c.027.03.053.04.1.022q.04-.016.047-.06l.004-.035c.003-.037.007-.05.028-.052l.002.022c-.005 0-.007.007-.008.031l-.005.038q-.009.056-.06.076c-.057.022-.092.01-.124-.028 0 0-.016-.02-.02-.023m.2.305a.34.34 0 0 1 .14-.14l.01.02a.3.3 0 0 0-.132.131zm-.858.509c0-.07.009-.149.026-.209l.02.006a.8.8 0 0 0-.023.255l-.021.001zm.008.284q0-.06.008-.097l.021.005a.4.4 0 0 0-.008.091c0 .08.011.18.027.245l-.02.005a1.2 1.2 0 0 1-.028-.25m.084.48a.2.2 0 0 1-.022-.045l.02-.007a.2.2 0 0 0 .02.04 1 1 0 0 0 .044.058c.014.017.026.03.05.054l-.016.016-.05-.055a1 1 0 0 1-.046-.06m.082-.423.001-.026.022.002-.001.024c0 .124.063.331.126.407.018.134.107.32.234.448l-.015.015a.87.87 0 0 1-.237-.454c-.066-.075-.13-.287-.13-.416m-.038-.299q0-.043.006-.074l.02.004a.4.4 0 0 0-.004.07q0 .061.01.13l-.022.004a1 1 0 0 1-.01-.134m.137-.2c0-.107.023-.276.058-.364l.02.008a1.2 1.2 0 0 0-.053.414l.002.019-.007.08q-.006.058-.007.111c0 .079.012.15.04.236l-.02.007a.7.7 0 0 1-.041-.243q0-.053.006-.114a1 1 0 0 0 .006-.093.4.4 0 0 1-.004-.061m.172.115c0-.134.012-.273.035-.37l.02.005a1.7 1.7 0 0 0-.033.365c0 .136.011.266.034.341l-.02.006a1.4 1.4 0 0 1-.036-.347m-.04.565q0-.082.017-.16l.02.005a.7.7 0 0 0 .01.335l-.02.007a.6.6 0 0 1-.027-.187m.205-.844v-.016h.021v.016c0 .16.075.36.196.494l-.016.014a.82.82 0 0 1-.201-.508m-.04.679q0-.076.006-.159l.022.002a2 2 0 0 0-.007.157c0 .118.012.22.035.287a1 1 0 0 1 .024.115l.009.054q.004.032.01.056a.5.5 0 0 0 .067.186l-.018.013a.5.5 0 0 1-.07-.195l-.019-.11a1 1 0 0 0-.023-.112 1 1 0 0 1-.036-.294m.179.143-.008-.03.02-.006.009.03a.7.7 0 0 1 .022.142.2.2 0 0 1-.016.089l-.02-.009a.2.2 0 0 0 .015-.08q0-.015-.002-.031a1 1 0 0 0-.02-.105m.171.131c0-.07-.021-.196-.053-.302l.02-.007a1.3 1.3 0 0 1 .054.331l-.022-.002zm.097.646a.8.8 0 0 1-.093-.302l.021-.002a.8.8 0 0 0 .091.293zm-.08.29c-.062-.05-.131-.175-.172-.297l.02-.007c.04.118.108.241.166.287zm.423.044a1 1 0 0 0-.14-.29l.018-.012c.07.099.098.164.142.295z" clip-rule="evenodd"/><path fill="#000" fill-rule="evenodd" d="m20.309 9.394-.045-.003.003-.021.043.003c.058.003.082.01.11.04a.3.3 0 0 1 .053.085c.063.136.245.352.328.39.145.064.242.137.274.24.057-.13.069-.206.026-.3l.018-.01.04.049c.19.229.22.262.23.301l.008.034a.7.7 0 0 0 .15.268l-.016.015a.7.7 0 0 1-.155-.278c-.009-.042-.007-.049-.07-.13l-.004-.03-.02.002c-.032-.04-.077-.093-.14-.168v-.003c.018.078 0 .154-.05.263l-.01.024-.02-.003c-.019-.107-.112-.182-.258-.25l-.016-.028-.018.01a1.2 1.2 0 0 1-.316-.387.3.3 0 0 0-.049-.08c-.024-.025-.043-.03-.096-.033m.603 1.17c.039-.157-.017-.449-.142-.67l.022.013.012.005c.118.224.169.508.127.662l-.02-.005zm0 0-.021.003a.23.23 0 0 0-.102-.152c-.022-.016-.037-.024-.063-.047a.43.43 0 0 1-.17.113l-.005-.02a.6.6 0 0 0 .172-.11c.04.021.055.03.079.047q.092.063.11.165m.37-.514h-.001l.008.1.01.16c.008.114.016.189.027.238l.02-.005a2 2 0 0 1-.025-.234l-.01-.161-.006-.07zm-.868-.333c.038.114.068.25.07.329l.022-.001a1.4 1.4 0 0 0-.071-.335zm.325.56a1.7 1.7 0 0 0-.083-.342l.02-.007c.04.113.081.281.085.347zm.375-.04a.7.7 0 0 1 .044.265l.021.002a.7.7 0 0 0-.046-.274z" clip-rule="evenodd"/></g></svg>