<svg xmlns="http://www.w3.org/2000/svg" fill="none" viewBox="0 0 28 28" focusable="false"><rect width="28" height="20" y="4" fill="#fff" rx="3"/><mask id="Zimbabwe_svg__a" width="28" height="20" x="0" y="4" maskUnits="userSpaceOnUse" style="mask-type:luminance"><rect width="28" height="20" y="4" fill="#fff" rx="3"/></mask><g mask="url(#Zimbabwe_svg__a)"><path fill="#369d0c" fill-rule="evenodd" d="M0 6.667h28V4H0zM0 24h28v-2.667H0zM0 12h28V9.333H0zM0 18.667h28V16H0z" clip-rule="evenodd"/><path fill="#262626" fill-rule="evenodd" d="M0 16h28v-4H0z" clip-rule="evenodd"/><path fill="#ffd40e" fill-rule="evenodd" d="M0 9.333h28V6.667H0zM0 21.333h28v-2.666H0z" clip-rule="evenodd"/><path fill="#fff" stroke="#262626" stroke-width="1.333" d="M-.667 23.333V4.667h.445L12.222 14-.222 23.333z"/><path fill="url(#Zimbabwe_svg__b)" fill-rule="evenodd" d="m4 15.3-1.96 1.397.724-2.295L.83 12.97l2.406-.022L4 10.667l.764 2.281 2.406.022-1.934 1.432.723 2.295z" clip-rule="evenodd"/></g><defs><linearGradient id="Zimbabwe_svg__b" x1=".667" x2=".667" y1="10.667" y2="17.333" gradientUnits="userSpaceOnUse"><stop stop-color="#f12f1f"/><stop offset="1" stop-color="#de2010"/></linearGradient></defs></svg>