<svg xmlns="http://www.w3.org/2000/svg" fill="none" viewBox="0 0 29 28" focusable="false"><defs><linearGradient id="Zimbabwe_svg__b" x1="1.667" x2="1.667" y1="10.667" y2="17.333" gradientUnits="userSpaceOnUse"><stop stop-color="#F12F1F"/><stop offset="1" stop-color="#DE2010"/></linearGradient></defs><path fill="none" d="M1 0h28v28H1z"/><rect width="28" height="20" x="1" y="4" fill="#FFF" rx="3"/><rect width="28" height="20" x="1" y="4" rx="3"/><mask id="Zimbabwe_svg__a" width="28" height="20" x="1" y="4" mask-type="alpha" maskUnits="userSpaceOnUse"><rect width="28" height="20" x="1" y="4" fill="#FFF" rx="3"/><rect width="28" height="20" x="1" y="4" stroke="#979797" stroke-opacity="0" stroke-width="0" rx="3"/></mask><g mask="url(#Zimbabwe_svg__a)"><path fill="#369D0C" fill-rule="evenodd" d="M1 6.66h28V4H1z"/><path d="M29 6.66V4H1v2.66z"/></g><g mask="url(#Zimbabwe_svg__a)"><path fill="#369D0C" fill-rule="evenodd" d="M1 24h28v-2.67H1z"/><path d="M29 24v-2.67H1V24z"/></g><g mask="url(#Zimbabwe_svg__a)"><path fill="#369D0C" fill-rule="evenodd" d="M1 12h28V9.33H1z"/><path d="M29 12V9.33H1V12z"/></g><g mask="url(#Zimbabwe_svg__a)"><path fill="#369D0C" fill-rule="evenodd" d="M1 18.66h28V16H1z"/><path d="M29 18.66V16H1v2.66z"/></g><g mask="url(#Zimbabwe_svg__a)"><path fill="#262626" fill-rule="evenodd" d="M1 16h28v-4H1z"/><path d="M29 16v-4H1v4z"/></g><g mask="url(#Zimbabwe_svg__a)"><path fill="#FFD40E" fill-rule="evenodd" d="M1 9.33h28V6.66H1z"/><path d="M29 9.33V6.66H1v2.67z"/></g><g mask="url(#Zimbabwe_svg__a)"><path fill="#FFD40E" fill-rule="evenodd" d="M1 21.33h28v-2.67H1z"/><path d="M29 21.33v-2.67H1v2.67z"/></g><g fill-rule="evenodd" mask="url(#Zimbabwe_svg__a)"><path fill="#FFF" d="M-.34 24V4H1l13.33 10L1 24z"/><path fill="#262626" d="M-.34 4v20H1l12.22-9.17 1.11-.83-1.11-.84L1 4zM1 5.66v16.67L12.11 14z"/></g><g mask="url(#Zimbabwe_svg__a)"><path fill="url(#Zimbabwe_svg__b)" fill-rule="evenodd" d="m5 15.3-1.96 1.39.72-2.29-1.94-1.44 2.41-.02.77-2.28.76 2.28 2.41.02-1.94 1.44.72 2.29z"/><path d="m3.04 16.69.72-2.29-1.94-1.44 2.41-.02.77-2.28.76 2.28 2.41.02-1.94 1.44.72 2.29L5 15.3z"/></g></svg>