<svg width="24.000000" height="24.000000" viewBox="0 0 24 24" fill="none" xmlns="http://www.w3.org/2000/svg" xmlns:xlink="http://www.w3.org/1999/xlink">
	<desc>
			Created with Pixso.
	</desc>
	<defs>
		<clipPath id="clip17_565">
			<rect id="Outline / Acuring Future Outline" width="24.000000" height="24.000000" fill="white" fill-opacity="0"/>
		</clipPath>
	</defs>
	<g clip-path="url(#clip17_565)">
		<path id="Shape" d="M15 19.7L9 19.7C8.06 19.7 7.29 18.93 7.29 18L7.29 15.79L16.7 15.79L16.7 18C16.7 18.93 15.93 19.7 15 19.7ZM16.7 14.49L7.29 14.49L7.29 6.06C7.29 5.12 8.06 4.36 9 4.36L15 4.36C15.93 4.36 16.7 5.12 16.7 6.06L16.7 14.49ZM15 3.06C16.65 3.06 18 4.4 18 6.06L18 18C18 19.65 16.65 21 15 21L9 21C7.34 21 6 19.65 6 18L6 6.06C6 4.4 7.34 3.06 9 3.06L15 3.06ZM11.44 11.67C11.74 11.82 12.12 11.71 12.25 11.4C12.49 10.83 12.62 10.2 12.62 9.54C12.62 8.9 12.5 8.29 12.27 7.73C12.14 7.41 11.76 7.3 11.46 7.45C11.12 7.62 11 8.03 11.13 8.39C11.25 8.75 11.32 9.14 11.32 9.54C11.32 9.96 11.25 10.36 11.11 10.73C10.99 11.08 11.1 11.5 11.44 11.67ZM14.56 12.52C14.41 12.84 14.04 12.96 13.72 12.8C13.39 12.64 13.27 12.23 13.41 11.89C13.72 11.17 13.89 10.37 13.89 9.54C13.89 8.72 13.72 7.94 13.43 7.23C13.29 6.89 13.41 6.48 13.74 6.32C14.05 6.16 14.43 6.28 14.57 6.6C14.97 7.5 15.18 8.5 15.18 9.54C15.18 10.6 14.96 11.61 14.56 12.52ZM10.1 9.56C10.1 9.92 9.81 10.21 9.45 10.21C9.1 10.21 8.81 9.92 8.81 9.56C8.81 9.2 9.1 8.91 9.45 8.91C9.81 8.91 10.1 9.2 10.1 9.56ZM9.45 17.1C9.09 17.1 8.8 17.39 8.8 17.75C8.8 18.11 9.09 18.4 9.45 18.4L14.54 18.4C14.9 18.4 15.19 18.11 15.19 17.75C15.19 17.39 14.9 17.1 14.54 17.1L9.45 17.1Z" fill="#74767B" fill-opacity="1.000000" fill-rule="evenodd"/>
	</g>
</svg>
