<svg width="24.000000" height="24.000000" viewBox="0 0 24 24" fill="none" xmlns="http://www.w3.org/2000/svg" xmlns:xlink="http://www.w3.org/1999/xlink">
	<desc>
			Created with Pixso.
	</desc>
	<defs>
		<clipPath id="clip106725_897">
			<rect id="Outline / Administrator AT Outline" width="24.000000" height="24.000000" fill="white" fill-opacity="0"/>
		</clipPath>
	</defs>
	<g clip-path="url(#clip106725_897)">
		<path id="Shape" d="M20 11.42C20 11.84 19.55 12.12 19.15 12C18.89 11.92 18.7 11.69 18.7 11.42L18.7 7C18.7 6.06 17.93 5.3 17 5.3L7 5.3C6.06 5.3 5.3 6.06 5.3 7L5.3 17C5.3 17.93 6.06 18.7 7 18.7L11.42 18.7C11.69 18.7 11.92 18.89 12 19.15C12.12 19.55 11.84 20 11.42 20L7 20C5.34 20 4 18.65 4 17L4 7C4 5.34 5.34 4 7 4L17 4C18.65 4 20 5.34 20 7L20 11.42ZM16.03 13.76C16.1 13.32 16.49 13 16.96 13L17.97 13C18.43 13 18.82 13.31 18.89 13.75C18.98 14.31 19.61 14.64 20.17 14.43C20.6 14.26 21.1 14.42 21.33 14.8L21.84 15.63C22.07 16.01 21.97 16.49 21.61 16.77C21.15 17.12 21.16 17.81 21.63 18.16C22 18.43 22.1 18.92 21.87 19.3L21.37 20.13C21.13 20.51 20.65 20.68 20.22 20.52C19.63 20.3 18.99 20.66 18.89 21.24C18.82 21.68 18.43 22 17.97 22L16.96 22C16.49 22 16.1 21.67 16.03 21.23C15.95 20.66 15.33 20.31 14.77 20.52C14.34 20.68 13.86 20.51 13.62 20.13L13.12 19.3C12.89 18.92 12.99 18.43 13.36 18.16C13.83 17.81 13.84 17.12 13.38 16.77C13.02 16.49 12.92 16.01 13.15 15.63L13.66 14.8C13.7 14.73 13.76 14.66 13.83 14.6L9.27 14.6L8.21 16.73C8.05 17.05 7.66 17.18 7.34 17.02C7.02 16.86 6.89 16.47 7.05 16.15L11.42 7.33C11.54 7.1 11.78 6.97 12.02 6.97C12.26 6.97 12.5 7.1 12.61 7.33L15.94 14.04C15.99 13.95 16.02 13.86 16.03 13.76ZM9.91 13.3L12.02 9.06L14.12 13.3L9.91 13.3ZM17.16 14.51C17.21 14.38 17.33 14.3 17.47 14.3C17.6 14.3 17.72 14.38 17.77 14.5C18.2 15.44 19.24 15.92 20.22 15.76C20.31 15.74 20.4 15.78 20.45 15.86C20.5 15.94 20.49 16.05 20.43 16.12C19.8 16.92 19.82 18.04 20.46 18.82C20.52 18.9 20.53 19 20.48 19.08C20.43 19.16 20.34 19.2 20.25 19.19C19.25 19.02 18.19 19.53 17.77 20.49C17.72 20.61 17.6 20.7 17.47 20.7L17.46 20.7C17.33 20.7 17.22 20.61 17.16 20.49C16.76 19.54 15.73 19.03 14.74 19.19C14.65 19.2 14.56 19.16 14.51 19.09C14.46 19 14.47 18.9 14.53 18.82C15.17 18.04 15.19 16.92 14.56 16.12C14.5 16.05 14.49 15.94 14.54 15.86C14.59 15.78 14.68 15.74 14.77 15.75C15.74 15.92 16.75 15.43 17.16 14.51ZM19 17.5C19 18.32 18.32 19 17.5 19C16.67 19 16 18.32 16 17.5C16 16.67 16.67 16 17.5 16C18.32 16 19 16.67 19 17.5Z" fill="#74767B" fill-opacity="1.000000" fill-rule="evenodd"/>
	</g>
</svg>
