<svg width="24.000000" height="24.000000" viewBox="0 0 24 24" fill="none" xmlns="http://www.w3.org/2000/svg" xmlns:xlink="http://www.w3.org/1999/xlink">
	<desc>
			Created with Pixso.
	</desc>
	<defs>
		<clipPath id="clip127696_761">
			<rect id="Outline / Anchor Outline" width="24.000000" height="24.000000" fill="white" fill-opacity="0"/>
		</clipPath>
	</defs>
	<g>
		<path id="Shape" d="M14 5C14 5.88 13.42 6.63 12.63 6.89L12.63 8.76L15.32 8.76C15.68 8.76 15.97 9.05 15.97 9.41C15.97 9.77 15.68 10.06 15.32 10.06L12.63 10.06L12.63 19.65C16.06 19.33 18.75 16.44 18.75 12.93L18.75 12.23L16.99 13.98C16.74 14.24 16.33 14.24 16.07 13.98C15.82 13.73 15.82 13.32 16.07 13.06L18.94 10.2C19.12 10.01 19.4 9.96 19.64 10.06C19.89 10.16 20.05 10.4 20.05 10.66L20.05 12.93C20.05 17.37 16.44 20.98 12 20.98C7.55 20.98 3.94 17.37 3.94 12.93L3.94 10.66C3.94 10.4 4.1 10.16 4.35 10.06C4.59 9.96 4.87 10.01 5.05 10.2L7.92 13.06C8.17 13.32 8.17 13.73 7.92 13.98C7.67 14.24 7.25 14.24 7 13.98L5.24 12.23L5.24 12.93C5.24 16.43 7.91 19.31 11.33 19.65L11.33 10.06L8.64 10.06C8.28 10.06 7.99 9.77 7.99 9.41C7.99 9.05 8.28 8.76 8.64 8.76L11.33 8.76L11.33 6.88C10.55 6.61 10 5.87 10 5C10 3.89 10.89 3 12 3C13.1 3 14 3.89 14 5ZM12.7 5C12.7 5.38 12.38 5.7 12 5.7C11.61 5.7 11.3 5.38 11.3 5C11.3 4.61 11.61 4.29 12 4.29C12.38 4.29 12.7 4.61 12.7 5Z" fill="#717681" fill-opacity="1.000000" fill-rule="evenodd"/>
		<path id="Shape" d="M12.63 6.89C12.75 6.85 12.86 6.8 12.97 6.74C13.13 6.65 13.28 6.54 13.41 6.41L13.41 6.41L13.41 6.41C13.54 6.28 13.65 6.13 13.74 5.97C13.82 5.82 13.89 5.67 13.93 5.5C13.97 5.34 14 5.17 14 5C14 4.82 13.97 4.65 13.93 4.49C13.89 4.32 13.82 4.16 13.74 4.02C13.65 3.86 13.54 3.71 13.41 3.58Q13.41 3.58 13.41 3.58Q13.41 3.58 13.41 3.58C13.28 3.45 13.13 3.34 12.97 3.25C12.83 3.17 12.67 3.1 12.5 3.06C12.34 3.02 12.17 3 12 3C11.82 3 11.65 3.02 11.49 3.06C11.32 3.1 11.16 3.17 11.02 3.25C10.86 3.34 10.71 3.45 10.58 3.58Q10.58 3.58 10.58 3.58Q10.58 3.58 10.58 3.58C10.45 3.71 10.34 3.86 10.25 4.02C10.17 4.16 10.1 4.32 10.06 4.49C10.02 4.65 10 4.82 10 5C10 5.17 10.02 5.34 10.06 5.5C10.1 5.67 10.17 5.83 10.25 5.97C10.34 6.13 10.45 6.28 10.58 6.4Q10.58 6.41 10.58 6.41Q10.58 6.41 10.58 6.41C10.71 6.54 10.86 6.65 11.02 6.74C11.12 6.8 11.22 6.84 11.33 6.88L11.33 8.76L8.64 8.76C8.28 8.76 7.99 9.05 7.99 9.41C7.99 9.77 8.28 10.06 8.64 10.06L11.33 10.06L11.33 11.36L11.33 18.34L11.33 19.65C10.88 19.6 10.45 19.51 10.03 19.39C8.96 19.06 8 18.47 7.22 17.7C6.28 16.76 5.62 15.54 5.36 14.18C5.28 13.78 5.24 13.36 5.24 12.93L5.24 12.23L6.58 13.56L7 13.98C7.25 14.24 7.67 14.24 7.92 13.98C8.17 13.73 8.17 13.32 7.92 13.06L5.05 10.2L5.05 10.2C4.87 10.01 4.59 9.96 4.35 10.06C4.1 10.16 3.94 10.4 3.94 10.66L3.94 12.93L3.94 12.93C3.95 13.79 4.08 14.61 4.33 15.39C4.43 15.7 4.55 16.01 4.69 16.31C5.04 17.08 5.52 17.78 6.08 18.39C6.64 19 7.3 19.52 8.02 19.93C8.27 20.07 8.53 20.2 8.8 20.32C9.45 20.6 10.15 20.8 10.88 20.9C11 20.92 11.12 20.93 11.24 20.94C11.27 20.95 11.3 20.95 11.33 20.95C11.55 20.97 11.77 20.98 12 20.98C12.21 20.98 12.42 20.97 12.63 20.95C12.66 20.95 12.69 20.95 12.72 20.95C12.83 20.94 12.95 20.92 13.07 20.91C13.8 20.81 14.51 20.61 15.17 20.33C15.44 20.21 15.7 20.08 15.95 19.94C16.68 19.53 17.34 19.01 17.9 18.4Q17.92 18.38 17.93 18.36Q17.96 18.34 17.98 18.31C18.51 17.72 18.96 17.05 19.3 16.31C19.44 16.02 19.56 15.71 19.66 15.4C19.91 14.62 20.05 13.79 20.05 12.93L20.05 10.66C20.05 10.4 19.89 10.16 19.64 10.06C19.4 9.96 19.12 10.01 18.94 10.2L18.94 10.2L16.07 13.06C15.82 13.32 15.82 13.73 16.07 13.98C16.33 14.24 16.74 14.24 16.99 13.98L17.41 13.56L18.75 12.23L18.75 12.93L18.75 12.94C18.74 13.37 18.7 13.78 18.63 14.18C18.37 15.54 17.71 16.76 16.77 17.7Q16.77 17.7 16.76 17.71C15.98 18.48 15.01 19.07 13.93 19.4C13.51 19.52 13.08 19.61 12.63 19.65L12.63 10.06L15.32 10.06C15.68 10.06 15.97 9.77 15.97 9.41C15.97 9.05 15.68 8.76 15.32 8.76L12.63 8.76L12.63 6.89ZM11.3 5C11.3 5.38 11.61 5.7 12 5.7C12.38 5.7 12.69 5.38 12.7 5L12.7 5L12.7 4.99C12.69 4.8 12.62 4.63 12.49 4.5Q12.49 4.5 12.49 4.5Q12.49 4.5 12.49 4.5C12.36 4.37 12.19 4.29 12 4.29C11.8 4.29 11.63 4.37 11.5 4.5L11.5 4.5C11.37 4.63 11.3 4.8 11.3 4.99L11.3 5L11.3 5Z" fill="#717681" fill-opacity="1.000000" fill-rule="evenodd"/>
	</g>
</svg>
