<svg width="24.000000" height="24.000000" viewBox="0 0 24 24" fill="none" xmlns="http://www.w3.org/2000/svg" xmlns:xlink="http://www.w3.org/1999/xlink">
	<desc>
			Created with Pixso.
	</desc>
	<defs>
		<clipPath id="clip127622_744">
			<rect id="Outline / Area Chart Outline" width="24.000000" height="24.000000" transform="matrix(1 -6.12324e-17 -6.12324e-17 -1 0 24)" fill="white" fill-opacity="0"/>
		</clipPath>
	</defs>
	<g clip-path="url(#clip127622_744)">
		<path id="Shape" d="M3.37 19.34C3.37 18.98 3.67 18.69 4.02 18.69L4.74 18.69L4.74 16.49C4.74 16.49 4.74 16.49 4.74 16.49L4.74 8.91C4.74 7.43 6.31 6.49 7.61 7.19L9.99 8.46C10.21 8.57 10.47 8.56 10.67 8.41L16.3 4.43C17.59 3.52 19.38 4.44 19.38 6.02L19.38 18.69L19.99 18.69C20.35 18.69 20.64 18.98 20.64 19.34C20.64 19.7 20.35 19.99 19.99 19.99L4.02 19.99C3.67 19.99 3.37 19.7 3.37 19.34ZM6.04 16.49L6.04 18.69L18.08 18.69L18.08 12.92C18.08 12.41 17.53 12.1 17.09 12.36L11.75 15.57C11.45 15.75 11.1 15.84 10.75 15.84L6.69 15.84C6.33 15.84 6.04 16.13 6.04 16.49ZM6.04 14.65C6.25 14.58 6.46 14.54 6.69 14.54L10.75 14.54C10.86 14.54 10.98 14.51 11.08 14.45L16.42 11.24C16.96 10.92 17.56 10.89 18.08 11.08L18.08 6.02C18.08 5.49 17.48 5.19 17.05 5.49L11.42 9.47C10.82 9.9 10.03 9.95 9.38 9.6L7 8.33C6.57 8.1 6.04 8.42 6.04 8.91L6.04 14.65Z" fill="#74767B" fill-opacity="1.000000" fill-rule="evenodd"/>
	</g>
</svg>
