<svg width="24.000000" height="24.000000" viewBox="0 0 24 24" fill="none" xmlns="http://www.w3.org/2000/svg" xmlns:xlink="http://www.w3.org/1999/xlink">
	<desc>
			Created with Pixso.
	</desc>
	<defs>
		<clipPath id="clip17_271">
			<rect id="Outline / Bank Outline" width="24.000000" height="24.000000" fill="white" fill-opacity="0"/>
		</clipPath>
	</defs>
	<g>
		<path id="Shape" d="M12.71 3.23C12.27 2.94 11.7 2.95 11.26 3.23L4.56 7.49C3.42 8.21 3.93 9.98 5.28 9.98L18.7 9.98C20.05 9.98 20.57 8.21 19.43 7.49L12.71 3.23ZM11.96 4.32C11.98 4.31 12 4.31 12.01 4.32L18.73 8.59C18.74 8.6 18.75 8.6 18.75 8.6L18.75 8.61L18.75 8.61C18.75 8.61 18.76 8.63 18.75 8.64C18.75 8.66 18.74 8.67 18.73 8.67L18.73 8.67L18.73 8.68C18.73 8.68 18.72 8.68 18.7 8.68L5.28 8.68C5.27 8.68 5.26 8.68 5.26 8.68C5.26 8.68 5.25 8.67 5.25 8.67C5.25 8.67 5.24 8.66 5.23 8.64C5.23 8.63 5.23 8.61 5.23 8.61C5.23 8.61 5.23 8.61 5.24 8.6C5.24 8.6 5.24 8.6 5.26 8.59L11.96 4.32ZM8.28 11.92C8.28 11.56 7.99 11.27 7.63 11.27C7.27 11.27 6.98 11.56 6.98 11.92L6.98 16.8C6.98 17.16 7.27 17.45 7.63 17.45C7.99 17.45 8.28 17.16 8.28 16.8L8.28 11.92ZM12 11.27C12.35 11.27 12.64 11.56 12.64 11.92L12.64 16.8C12.64 17.16 12.35 17.45 12 17.45C11.64 17.45 11.35 17.16 11.35 16.8L11.35 11.92C11.35 11.56 11.64 11.27 12 11.27ZM17.01 11.92C17.01 11.56 16.72 11.27 16.36 11.27C16 11.27 15.71 11.56 15.71 11.92L15.71 16.8C15.71 17.16 16 17.45 16.36 17.45C16.72 17.45 17.01 17.16 17.01 16.8L17.01 11.92ZM4.63 18.75C4.27 18.75 3.98 19.04 3.98 19.4C3.98 19.75 4.27 20.05 4.63 20.05L19.36 20.05C19.72 20.05 20.01 19.75 20.01 19.4C20.01 19.04 19.72 18.75 19.36 18.75L4.63 18.75Z" fill="#717681" fill-opacity="1.000000" fill-rule="evenodd"/>
	</g>
</svg>
