<svg width="24.000000" height="24.000000" viewBox="0 0 24 24" fill="none" xmlns="http://www.w3.org/2000/svg" xmlns:xlink="http://www.w3.org/1999/xlink">
	<desc>
			Created with Pixso.
	</desc>
	<defs>
		<clipPath id="clip17_440">
			<rect id="Solid / Bonus Ruble Solid" width="24.000000" height="24.000000" fill="white" fill-opacity="0"/>
		</clipPath>
	</defs>
	<g>
		<path id="Shape" d="M6.63 4.6C6.5 5.22 6.61 5.83 6.89 6.34C5.28 6.39 4 7.72 4 9.34L4 11.28C4 11.66 4.31 11.98 4.7 11.98L19.29 11.98C19.68 11.98 20 11.66 20 11.28L20 9.34C20 7.72 18.71 6.39 17.1 6.34C17.38 5.83 17.49 5.22 17.36 4.6L17.34 4.51C17.16 3.68 16.56 3.01 15.75 2.75C14.29 2.29 12.79 2.88 12 4.05C11.2 2.88 9.7 2.29 8.24 2.75C7.43 3.01 6.83 3.68 6.65 4.51L6.63 4.6ZM12.65 6.33L12.75 5.63C12.91 4.4 14.16 3.61 15.35 3.99C15.72 4.11 15.99 4.41 16.07 4.78L16.09 4.87C16.25 5.62 15.67 6.33 14.9 6.33L12.65 6.33ZM11.34 6.33L11.24 5.63C11.08 4.4 9.83 3.61 8.64 3.99C8.27 4.11 8 4.41 7.92 4.78L7.9 4.87C7.74 5.62 8.32 6.33 9.09 6.33L11.34 6.33ZM20 13.98C20 13.59 19.68 13.28 19.29 13.28L4.7 13.28C4.31 13.28 4 13.59 4 13.98L4 17C4 18.65 5.34 20 7 20L17 20C18.65 20 20 18.65 20 17L20 13.98Z" fill="#717681" fill-opacity="1.000000" fill-rule="evenodd"/>
	</g>
</svg>
