<svg width="24.000000" height="24.000000" viewBox="0 0 24 24" fill="none" xmlns="http://www.w3.org/2000/svg" xmlns:xlink="http://www.w3.org/1999/xlink">
	<desc>
			Created with Pixso.
	</desc>
	<defs>
		<clipPath id="clip17_383">
			<rect id="Outline / Bonus Outline" width="24.000000" height="24.000000" fill="white" fill-opacity="0"/>
		</clipPath>
	</defs>
	<g clip-path="url(#clip17_383)">
		<path id="Shape" d="M17.36 4.6C17.49 5.22 17.38 5.83 17.1 6.34C18.71 6.39 20 7.72 20 9.34L20 17C20 18.65 18.65 20 17 20L7 20C5.34 20 4 18.65 4 17L4 9.34C4 7.72 5.28 6.39 6.89 6.34C6.61 5.83 6.5 5.22 6.63 4.6L6.65 4.51C6.83 3.68 7.43 3.01 8.24 2.75C9.7 2.29 11.2 2.88 12 4.05C12.79 2.88 14.29 2.29 15.75 2.75C16.56 3.01 17.16 3.68 17.34 4.51L17.36 4.6ZM11.34 6.33L9.09 6.33C8.32 6.33 7.74 5.62 7.9 4.87L7.92 4.78C8 4.41 8.27 4.11 8.64 3.99C9.83 3.61 11.08 4.4 11.24 5.63L11.34 6.33L11.34 6.33ZM12.65 6.33L14.9 6.33C15.67 6.33 16.25 5.62 16.09 4.87L16.07 4.78C15.99 4.41 15.72 4.11 15.35 3.99C14.16 3.61 12.91 4.4 12.75 5.63L12.65 6.33L12.65 6.33ZM15.5 7.64L17 7.64C17.93 7.64 18.7 8.4 18.7 9.34L18.7 11.98L15.5 11.98L15.5 7.64ZM15.5 13.28L15.5 16.29C15.5 16.86 14.85 17.19 14.39 16.86L12 15.14L9.6 16.86C9.14 17.19 8.5 16.86 8.5 16.29L8.5 13.28L5.29 13.28L5.29 17C5.29 17.93 6.06 18.7 7 18.7L17 18.7C17.93 18.7 18.7 17.93 18.7 17L18.7 13.28L15.5 13.28ZM8.5 11.98L5.29 11.98L5.29 9.34C5.29 8.4 6.06 7.64 7 7.64L8.5 7.64L8.5 11.98ZM14.2 15.12L14.2 7.64L9.79 7.64L9.79 15.12L11.24 14.09C11.69 13.76 12.3 13.76 12.75 14.09L14.2 15.12Z" fill="#74767B" fill-opacity="1.000000" fill-rule="evenodd"/>
	</g>
</svg>
