<svg width="24.000000" height="24.000000" viewBox="0 0 24 24" fill="none" xmlns="http://www.w3.org/2000/svg" xmlns:xlink="http://www.w3.org/1999/xlink">
	<desc>
			Created with Pixso.
	</desc>
	<defs>
		<clipPath id="clip6973_1274">
			<rect id="Solid / Boxes Solid" width="24.000000" height="24.000000" fill="white" fill-opacity="0"/>
		</clipPath>
	</defs>
	<g >
		<path id="Shape" d="M9.58 3.64L14.42 3.64C14.82 3.64 15.09 3.65 15.22 3.66C15.35 3.67 15.44 3.69 15.49 3.72C15.55 3.75 15.61 3.79 15.66 3.83C15.7 3.88 15.74 3.94 15.78 4C15.8 4.05 15.82 4.14 15.83 4.27C15.84 4.4 15.85 4.67 15.85 5.07L15.85 9.91C15.85 10.32 15.84 10.59 15.83 10.72C15.82 10.85 15.8 10.94 15.78 10.99C15.74 11.05 15.7 11.11 15.66 11.16C15.61 11.2 15.55 11.24 15.49 11.27C15.44 11.3 15.35 11.32 15.22 11.33C15.09 11.34 14.82 11.34 14.42 11.34L9.58 11.34C9.17 11.34 8.9 11.34 8.78 11.33C8.64 11.32 8.55 11.3 8.5 11.27C8.44 11.24 8.38 11.2 8.34 11.16C8.29 11.11 8.25 11.05 8.22 10.99C8.19 10.94 8.17 10.85 8.16 10.72C8.15 10.59 8.15 10.32 8.15 9.91L8.15 5.07C8.15 4.67 8.15 4.4 8.16 4.27C8.17 4.14 8.19 4.05 8.22 4C8.25 3.94 8.29 3.88 8.34 3.83C8.38 3.79 8.44 3.75 8.5 3.72C8.55 3.69 8.64 3.67 8.78 3.66C8.9 3.65 9.17 3.64 9.58 3.64ZM10.87 4.6L13.12 4.6C13.48 4.6 13.77 4.88 13.77 5.25C13.77 5.61 13.48 5.9 13.12 5.9L10.87 5.9C10.5 5.9 10.22 5.61 10.22 5.25C10.22 4.88 10.5 4.6 10.87 4.6ZM5.08 12.64L9.92 12.64C10.32 12.64 10.59 12.64 10.72 12.65C10.85 12.66 10.94 12.68 10.99 12.71C11.05 12.74 11.11 12.78 11.16 12.82C11.2 12.87 11.24 12.93 11.28 12.99C11.3 13.04 11.32 13.13 11.33 13.26C11.34 13.39 11.35 13.66 11.35 14.07L11.35 18.91C11.35 19.31 11.34 19.58 11.33 19.71C11.32 19.84 11.3 19.93 11.28 19.98C11.24 20.04 11.2 20.1 11.16 20.15C11.11 20.19 11.05 20.23 10.99 20.26C10.94 20.29 10.85 20.31 10.72 20.32C10.59 20.33 10.32 20.34 9.92 20.34L5.08 20.34C4.67 20.34 4.4 20.33 4.28 20.32C4.14 20.31 4.05 20.29 4 20.26C3.94 20.23 3.88 20.19 3.84 20.15C3.79 20.1 3.75 20.04 3.72 19.98C3.69 19.93 3.67 19.84 3.66 19.71C3.65 19.58 3.65 19.31 3.65 18.91L3.65 14.07C3.65 13.66 3.65 13.39 3.66 13.26C3.67 13.13 3.69 13.04 3.72 12.99C3.75 12.93 3.79 12.87 3.84 12.83C3.88 12.78 3.94 12.74 4 12.71C4.05 12.68 4.14 12.66 4.28 12.65C4.4 12.64 4.67 12.64 5.08 12.64ZM18.92 12.64L14.08 12.64C13.67 12.64 13.4 12.64 13.28 12.65C13.14 12.66 13.05 12.68 13 12.71C12.94 12.74 12.88 12.78 12.84 12.83C12.79 12.87 12.75 12.93 12.72 12.99C12.69 13.04 12.67 13.13 12.66 13.26C12.65 13.39 12.65 13.66 12.65 14.07L12.65 18.91C12.65 19.31 12.65 19.58 12.66 19.71C12.67 19.84 12.69 19.93 12.72 19.98C12.75 20.04 12.79 20.1 12.84 20.15C12.88 20.19 12.94 20.23 13 20.26C13.05 20.29 13.14 20.31 13.28 20.32C13.4 20.33 13.67 20.34 14.08 20.34L18.92 20.34C19.32 20.34 19.59 20.33 19.72 20.32C19.85 20.31 19.94 20.29 19.99 20.26C20.05 20.23 20.11 20.19 20.16 20.15C20.2 20.1 20.24 20.04 20.28 19.98C20.3 19.93 20.32 19.84 20.33 19.71C20.34 19.58 20.35 19.31 20.35 18.91L20.35 14.07C20.35 13.66 20.34 13.39 20.33 13.26C20.32 13.13 20.3 13.04 20.28 12.99C20.24 12.93 20.2 12.87 20.16 12.82C20.11 12.78 20.05 12.74 19.99 12.71C19.94 12.68 19.85 12.66 19.72 12.65C19.59 12.64 19.32 12.64 18.92 12.64ZM6.37 13.6L8.62 13.6C8.98 13.6 9.27 13.88 9.27 14.25C9.27 14.61 8.98 14.9 8.62 14.9L6.37 14.9C6.01 14.9 5.72 14.61 5.72 14.25C5.72 13.88 6.01 13.6 6.37 13.6ZM17.62 13.6L15.37 13.6C15.01 13.6 14.72 13.88 14.72 14.25C14.72 14.61 15.01 14.9 15.37 14.9L17.62 14.9C17.98 14.9 18.27 14.61 18.27 14.25C18.27 13.88 17.98 13.6 17.62 13.6Z" fill="#74767B" fill-opacity="1.000000" fill-rule="evenodd"/>
	</g>
</svg>
