<svg width="24.000000" height="24.000000" viewBox="0 0 24 24" fill="none" xmlns="http://www.w3.org/2000/svg" xmlns:xlink="http://www.w3.org/1999/xlink">
	<desc>
			Created with Pixso.
	</desc>
	<defs>
		<clipPath id="clip17_398">
			<rect id="Outline / Burn Outline" width="24.000000" height="24.000000" fill="white" fill-opacity="0"/>
		</clipPath>
	</defs>
	<g clip-path="url(#clip17_398)">
		<path id="Shape" d="M9.19 18.99C8.95 18.53 8.8 17.96 8.8 17.26C8.8 15.46 9.69 14.39 10.52 13.39L10.64 13.24C10.84 13 10.94 12.87 11.09 12.6C11.23 12.36 11.35 12.12 11.44 11.87C11.52 11.66 11.7 11.5 11.92 11.45C12.14 11.41 12.37 11.48 12.52 11.64C13.56 12.73 14.19 13.57 14.58 14.28C15.08 15.2 15.19 15.93 15.19 16.8C15.19 17.7 14.81 18.58 14.21 19.27C16.27 18.44 17.7 16.47 17.7 14.11C17.7 11.59 16.07 10.29 14.51 9.1L14.46 9.06C14.08 8.76 13.63 8.43 13.3 8.08C12.45 7.22 11.87 6.24 11.66 5.01C7.15 9.2 6.29 11.78 6.29 14.11C6.29 16.24 7.45 18.05 9.19 18.99ZM12 21C15.86 21 19 18 19 14.11C19 10.89 16.83 9.24 15.3 8.06C14.87 7.74 14.5 7.45 14.23 7.17C13.38 6.31 12.91 5.37 12.88 4.07C12.87 3.39 12.05 2.91 11.55 3.36C6.25 8.07 5 11.13 5 14.11C5 18 8.13 21 12 21ZM11.61 14.11C11.84 13.83 12.05 13.54 12.23 13.24C12.83 13.93 13.2 14.47 13.44 14.91C13.81 15.58 13.89 16.08 13.89 16.8C13.89 17.37 13.63 17.99 13.18 18.48C12.71 18.97 12.2 19.18 11.82 19.18C11.25 19.18 10.85 18.99 10.6 18.73C10.35 18.48 10.1 18.04 10.1 17.26C10.1 15.95 10.7 15.21 11.55 14.18L11.61 14.11Z" fill="#717681" fill-opacity="1.000000" fill-rule="evenodd"/>
	</g>
</svg>
