<svg width="24.000000" height="24.000000" viewBox="0 0 24 24" fill="none" xmlns="http://www.w3.org/2000/svg" xmlns:xlink="http://www.w3.org/1999/xlink">
	<desc>
			Created with Pixso.
	</desc>
	<defs>
		<clipPath id="clip17_583">
			<rect id="Outline / Bus Outline" width="24.000000" height="24.000000" fill="white" fill-opacity="0"/>
		</clipPath>
	</defs>
	<g clip-path="url(#clip17_583)">
		<path id="Shape" d="M3 20.04L3 19.53L3 19.53L3 11.43C3 11.41 3 11.4 3 11.38L3 10.02C3 10.01 3 10 3 9.99L3 5.45C3 3.79 4.34 2.45 6 2.45L18 2.45C19.65 2.45 21 3.79 21 5.45L21 20.03C21 21.11 20.12 21.98 19.05 21.98L17.87 21.98C16.79 21.98 15.91 21.1 15.92 20.02L15.92 19.53L8.08 19.53L8.08 20.04C8.09 21.11 7.21 21.99 6.13 21.99L4.95 21.99C3.88 21.99 3 21.12 3 20.04ZM18 3.75L6 3.75C5.06 3.75 4.3 4.51 4.3 5.45L4.3 11.41C4.31 11.75 4.6 12.03 4.95 12.03L19.03 11.98C19.39 11.98 19.68 11.69 19.68 11.33L19.68 10.19C19.68 10.14 19.68 10.09 19.7 10.05L19.7 5.45C19.7 4.51 18.93 3.75 18 3.75ZM6.34 5.69C6.34 5.33 6.63 5.04 6.99 5.04L17.02 5.04C17.38 5.04 17.67 5.33 17.67 5.69C17.67 6.05 17.38 6.34 17.02 6.34L6.99 6.34C6.63 6.34 6.34 6.05 6.34 5.69ZM19.7 13.17C19.49 13.24 19.27 13.28 19.04 13.28L4.95 13.33C4.72 13.33 4.5 13.29 4.3 13.22L4.3 15.03L6 15.03C6.36 15.03 6.65 15.32 6.65 15.68C6.65 16.04 6.36 16.33 6 16.33L4.3 16.33L4.3 18.23L6.96 18.23C7.43 16.77 8.81 15.71 10.43 15.71L11.99 15.71L13.56 15.7C15.19 15.7 16.57 16.76 17.04 18.23L19.7 18.23L19.7 16.33L18.01 16.33C17.65 16.33 17.36 16.04 17.36 15.68C17.36 15.32 17.65 15.03 18.01 15.03L19.7 15.03L19.7 13.17ZM8.37 18.23L15.64 18.23C15.24 17.5 14.46 17 13.56 17L12 17.01L11.99 17.01L10.43 17.01C9.54 17.01 8.76 17.5 8.37 18.23ZM4.3 19.53L6.78 19.53L6.78 20.04C6.78 20.4 6.49 20.69 6.13 20.69L4.95 20.69C4.59 20.69 4.3 20.4 4.3 20.04L4.3 19.53ZM17.22 19.53L19.7 19.53L19.7 20.03C19.7 20.39 19.41 20.68 19.05 20.68L17.87 20.68C17.51 20.68 17.21 20.39 17.22 20.03L17.22 19.53Z" fill="#717681" fill-opacity="1.000000" fill-rule="evenodd"/>
	</g>
</svg>
