<svg width="24.000000" height="24.000000" viewBox="0 0 24 24" fill="none" xmlns="http://www.w3.org/2000/svg" xmlns:xlink="http://www.w3.org/1999/xlink">
	<desc>
			Created with Pixso.
	</desc>
	<defs>
		<clipPath id="clip116957_1056">
			<rect id="Outline / Cancel Megaphone Outline" width="24.000000" height="24.000000" fill="white" fill-opacity="0"/>
		</clipPath>
	</defs>
	<g>
		<path id="Shape" d="M5.01 2.12C5.29 1.9 5.7 1.95 5.92 2.24L10.35 8L12.88 8C14.57 8 16.02 6.76 16.28 5.08C16.37 4.46 16.91 4 17.54 4L18.69 4C19.41 4 20 4.58 20 5.3L20 20.53L20.32 20.96C20.54 21.24 20.49 21.65 20.2 21.87C19.92 22.09 19.51 22.04 19.29 21.75L4.89 3.03C4.67 2.75 4.72 2.34 5.01 2.12ZM18.69 18.84L18.69 5.3L17.56 5.3C17.2 7.6 15.21 9.3 12.88 9.3L11.35 9.3L18.69 18.84ZM6.98 8C7.04 8 7.1 8.03 7.13 8.08L7.7 8.82C7.85 9.02 7.71 9.3 7.47 9.3L6.98 9.3C6.04 9.3 5.28 10.06 5.28 11L5.28 13C5.28 13.94 6.04 14.7 6.98 14.7L12.03 14.7C12.16 14.7 12.27 14.76 12.35 14.86L13.02 15.73C13.11 15.84 13.02 16 12.88 16L11.76 16L11.76 18.7C11.76 19.97 10.74 20.99 9.47 20.99C8.37 20.99 7.42 20.21 7.22 19.13L6.62 15.98C5.13 15.81 3.98 14.54 3.98 13L3.98 11C3.98 9.34 5.32 8 6.98 8ZM8.02 11C7.46 11 7.02 11.45 7.02 12C7.02 12.54 7.46 13 8.02 13C8.57 13 9.02 12.54 9.02 12C9.02 11.45 8.57 11 8.02 11ZM8.5 18.89L7.95 16.01L10.46 16.01L10.46 18.7C10.46 19.25 10.02 19.7 9.47 19.7C8.99 19.7 8.58 19.36 8.5 18.89Z" fill="#717681" fill-opacity="1.000000" fill-rule="evenodd"/>
	</g>
</svg>
