<svg width="24" height="24" viewBox="0 0 24 24" fill="none" xmlns="http://www.w3.org/2000/svg">
<path d="M5.97986 2.24268C5.76095 1.95816 5.35285 1.90497 5.06833 2.12388C4.78381 2.34279 4.73062 2.75089 4.94953 3.03541L19.354 21.7572C19.5729 22.0418 19.981 22.0949 20.2655 21.876C20.55 21.6571 20.6032 21.249 20.3843 20.9645L19.9999 20.4649L19.9999 5.30388C19.9999 4.58591 19.4179 4.00388 18.6999 4.00388H17.5478C16.9167 4.00388 16.38 4.46411 16.2837 5.08776C16.0245 6.7668 14.5794 8.00588 12.8805 8.00588H10.414L5.97986 2.24268Z" fill="#717681"/>
<path fill-rule="evenodd" clip-rule="evenodd" d="M7.22672 8.12294C7.16993 8.04913 7.08208 8.00588 6.98895 8.00588H6.98145C5.32459 8.00588 3.98145 9.34902 3.98145 11.0059V13.0069C3.98145 14.6637 5.32459 16.0069 6.98145 16.0069H12.8896C13.047 16.0069 13.15 15.8215 13.054 15.6968L7.22672 8.12294ZM6.47759 12C6.47759 11.4502 6.92531 11 7.47759 11C8.02987 11 8.47759 11.4502 8.47759 12C8.47759 12.5498 8.02987 13 7.47759 13C6.92531 13 6.47759 12.5498 6.47759 12Z" fill="#717681"/>
<path d="M11.7599 17.9842V18.7075C11.7599 19.9737 11.4557 21.0001 10.1895 21.0001C9.08738 21.0001 8.37079 20.2158 8.16635 19.1328L7.97403 18.114C7.89267 17.683 8.22324 17.2842 8.66189 17.2842H11.0599C11.4465 17.2842 11.7599 17.5976 11.7599 17.9842Z" fill="#717681"/>
</svg>
