<svg width="24.000000" height="24.000000" viewBox="0 0 24 24" fill="none" xmlns="http://www.w3.org/2000/svg" xmlns:xlink="http://www.w3.org/1999/xlink">
	<desc>
			Created with Pixso.
	</desc>
	<defs>
		<clipPath id="clip17_347">
			<rect id="Solid / Car Solid" width="24.000000" height="24.000000" fill="white" fill-opacity="0"/>
		</clipPath>
	</defs>
	<g>
		<path id="Shape" d="M21.47 10.38C20.81 9.06 19.67 6.77 19.08 5.62C18.56 4.62 17.53 4 16.41 4L7.58 4C6.46 4 5.43 4.62 4.91 5.62C4.32 6.77 3.18 9.06 2.52 10.38C2.29 10.85 2.62 11.39 3.14 11.39L5.4 11.39C5.76 11.39 6.05 11.68 6.05 12.04C6.05 12.4 5.76 12.69 5.4 12.69L2.7 12.69C2.31 12.69 2 13 2 13.39L2 19.3C2 20.02 2.58 20.6 3.29 20.6L4.43 20.6C5.15 20.6 5.73 20.02 5.73 19.3L5.73 17.92L7.58 13.28C8.03 12.14 9.13 11.39 10.36 11.39L13.59 11.39C14.82 11.39 15.92 12.14 16.38 13.28L18.26 17.99L18.26 17.99L18.26 19.3C18.26 20.02 18.84 20.6 19.56 20.6L20.7 20.6C21.41 20.6 22 20.02 22 19.3L22 13.39C22 13 21.68 12.69 21.29 12.69L18.59 12.69C18.23 12.69 17.94 12.4 17.94 12.04C17.94 11.68 18.23 11.39 18.59 11.39L20.85 11.39C21.37 11.39 21.7 10.85 21.47 10.38ZM16.41 5.29L7.58 5.29C6.94 5.29 6.36 5.65 6.07 6.22L4.79 8.7L19.2 8.7L17.92 6.22C17.63 5.65 17.05 5.29 16.41 5.29ZM16.52 17.03C16.71 17.49 16.38 17.99 15.88 17.99L8.16 17.99C7.67 17.99 7.33 17.5 7.51 17.04L8.78 13.76C9.04 13.11 9.67 12.69 10.36 12.69L13.59 12.69C14.29 12.69 14.91 13.11 15.17 13.76L16.52 17.03Z" fill="#717681" fill-opacity="1.000000" fill-rule="evenodd"/>
	</g>
</svg>
