<svg width="24.000000" height="24.000000" viewBox="0 0 24 24" fill="none" xmlns="http://www.w3.org/2000/svg" xmlns:xlink="http://www.w3.org/1999/xlink">
	<desc>
			Created with Pixso.
	</desc>
	<defs>
		<clipPath id="clip5563_770">
			<rect id="Solid / Chess King Solid" width="24.000000" height="24.000000" fill="white" fill-opacity="0"/>
		</clipPath>
	</defs>
	<g clip-path="url(#clip5563_770)">
		<path id="Shape" d="M12.64 8.1L12.64 6.42L14.33 6.42C14.69 6.42 14.98 6.13 14.98 5.77C14.98 5.42 14.69 5.12 14.33 5.12L12.64 5.12L12.64 3.65C12.64 3.29 12.35 3 12 3C11.64 3 11.34 3.29 11.34 3.65L11.34 5.12L9.66 5.12C9.3 5.12 9.01 5.42 9.01 5.77C9.01 6.13 9.3 6.42 9.66 6.42L11.34 6.42L11.34 8.1L7.97 8.1C5.99 8.1 4.55 9.99 5.08 11.9L6.61 17.5C6.77 18.07 7.28 18.46 7.87 18.46L16.12 18.46C16.71 18.46 17.22 18.07 17.38 17.5L18.92 11.9C19.44 9.99 18 8.1 16.02 8.1L12.64 8.1ZM5.04 20.41C5.04 20.05 5.33 19.76 5.69 19.76L18.3 19.76C18.66 19.76 18.95 20.05 18.95 20.41C18.95 20.77 18.66 21.06 18.3 21.06L5.69 21.06C5.33 21.06 5.04 20.77 5.04 20.41Z" fill="#717681" fill-opacity="1.000000" fill-rule="evenodd"/>
	</g>
</svg>
