<svg width="24.000000" height="24.000000" viewBox="0 0 24 24" fill="none" xmlns="http://www.w3.org/2000/svg" xmlns:xlink="http://www.w3.org/1999/xlink">
	<desc>
			Created with Pixso.
	</desc>
	<defs>
		<clipPath id="clip1100_1482">
			<rect id="Solid / City Solid" width="24.000000" height="24.000000" fill="white" fill-opacity="0"/>
		</clipPath>
	</defs>
	<g clip-path="url(#clip1100_1482)">
		<path id="Shape" d="M12.86 3.67L12.86 2.58C12.86 2.22 12.57 1.93 12.21 1.93C11.84 1.93 11.56 2.22 11.56 2.58L11.56 3.67L10.16 3.67C10.07 3.67 9.98 3.67 9.89 3.69C9.81 3.71 9.71 3.74 9.63 3.77C9.56 3.8 9.5 3.83 9.44 3.87C9.37 3.92 9.27 4 9.2 4.06C9.14 4.12 9.08 4.19 9.03 4.27C8.99 4.34 8.95 4.41 8.91 4.49C8.88 4.57 8.85 4.65 8.83 4.73C8.82 4.82 8.81 4.92 8.81 5.02L8.81 6.37C8.81 6.57 8.89 6.76 9.04 6.89L10.29 8.01C10.52 8.21 10.73 8.43 10.94 8.66C11.21 8.96 11.96 8.8 12.17 8.44C12.26 8.27 12.38 8.12 12.51 7.98C12.6 7.88 12.71 7.78 12.82 7.7C12.88 7.65 12.95 7.6 13.01 7.56C13.17 7.46 13.34 7.38 13.52 7.31L15.15 6.71C15.43 6.6 15.61 6.34 15.61 6.05L15.61 5.02C15.61 4.92 15.6 4.82 15.58 4.73C15.56 4.65 15.54 4.57 15.5 4.49C15.47 4.41 15.43 4.34 15.38 4.27C15.33 4.19 15.28 4.12 15.21 4.06C15.15 4 15.08 3.94 15.01 3.89C14.94 3.84 14.86 3.8 14.78 3.77C14.71 3.74 14.62 3.71 14.54 3.69C14.45 3.68 14.36 3.67 14.26 3.67L12.86 3.67ZM19.26 6.62C19.14 6.63 19.03 6.66 18.91 6.7L13.97 8.53C13.84 8.58 13.72 8.64 13.61 8.73C13.51 8.81 13.41 8.91 13.33 9.02C13.25 9.14 13.19 9.26 13.15 9.39C13.11 9.52 13.09 9.65 13.09 9.8C13.09 12.52 13.09 17.36 13.09 19.67C13.09 20.39 13.67 20.98 14.39 20.98L19.39 20.98C19.49 20.98 19.58 20.97 19.68 20.95C19.76 20.93 19.84 20.9 19.92 20.87C20.08 20.8 20.22 20.7 20.35 20.58C20.47 20.46 20.57 20.31 20.64 20.15C20.71 19.98 20.74 19.81 20.74 19.63L20.74 16.8L17.22 16.8C16.85 16.8 16.57 16.51 16.57 16.15C16.57 15.78 16.85 15.5 17.22 15.5L20.74 15.5L20.74 14.18L17.22 14.18C16.85 14.18 16.57 13.9 16.57 13.53C16.57 13.17 16.85 12.88 17.22 12.88L20.74 12.88L20.73 11.57L17.22 11.57C16.85 11.57 16.57 11.29 16.57 10.92C16.57 10.56 16.85 10.27 17.22 10.27L20.73 10.27L20.73 7.96C20.73 7.84 20.71 7.72 20.68 7.61C20.66 7.51 20.62 7.41 20.57 7.32C20.52 7.23 20.46 7.15 20.4 7.08C20.33 6.99 20.24 6.92 20.15 6.86C20.06 6.79 19.96 6.74 19.86 6.7C19.76 6.67 19.67 6.64 19.57 6.63C19.46 6.61 19.36 6.61 19.26 6.62ZM3.35 20.15C3.28 19.98 3.25 19.81 3.25 19.62L3.23 13.94C3.23 13.46 3.28 13 3.38 12.55C3.47 12.09 3.62 11.65 3.81 11.22C4 10.79 4.24 10.39 4.51 10.01C4.78 9.64 5.1 9.29 5.45 8.98L7 7.59C7.15 7.46 7.29 7.4 7.44 7.4C7.58 7.4 7.72 7.46 7.87 7.59L9.42 8.98C9.77 9.29 10.09 9.64 10.36 10.01C10.63 10.39 10.86 10.79 11.06 11.22C11.25 11.65 11.39 12.09 11.49 12.55C11.59 13 11.64 13.46 11.64 13.94C11.64 15.47 11.64 18.1 11.64 19.68C11.64 20.39 11.05 20.97 10.34 20.97L4.6 20.97C4.5 20.97 4.41 20.97 4.31 20.95C4.23 20.93 4.15 20.9 4.07 20.87C3.91 20.8 3.77 20.7 3.64 20.58C3.52 20.46 3.42 20.31 3.35 20.15ZM8.29 12.64L6.45 12.64C6.08 12.64 5.8 12.36 5.8 11.99C5.8 11.63 6.08 11.34 6.45 11.34L8.29 11.34C8.65 11.34 8.94 11.63 8.94 11.99C8.94 12.36 8.65 12.64 8.29 12.64ZM8.29 15.26L6.45 15.26C6.08 15.26 5.8 14.97 5.8 14.61C5.8 14.24 6.08 13.96 6.45 13.96L8.29 13.96C8.65 13.96 8.94 14.24 8.94 14.61C8.94 14.97 8.65 15.26 8.29 15.26ZM8.29 17.87L6.45 17.87C6.08 17.87 5.8 17.58 5.8 17.22C5.8 16.85 6.08 16.57 6.45 16.57L8.29 16.57C8.65 16.57 8.94 16.85 8.94 17.22C8.94 17.58 8.65 17.87 8.29 17.87Z" fill="#74767B" fill-opacity="1.000000" fill-rule="evenodd"/>
	</g>
</svg>
