<svg width="24" height="24" viewBox="0 0 24 24" fill="none" xmlns="http://www.w3.org/2000/svg">
<path fill-rule="evenodd" clip-rule="evenodd" d="M11.3496 9.0227V4H6C4.34315 4 3 5.34315 3 7V14.0022C3 15.659 4.34315 17.0022 6 17.0022H10V18.7H8.64878C8.28979 18.7 7.99878 18.991 7.99878 19.35C7.99878 19.7089 8.28979 20 8.64878 20H15.3513C15.7102 20 16.0013 19.7089 16.0013 19.35C16.0013 18.991 15.7102 18.7 15.3513 18.7H14V17.0022H18C19.6569 17.0022 21 15.659 21 14.0022V7C21 5.34315 19.6569 4 18 4H12.6496V9.04455L14.157 7.46301C14.4047 7.20316 14.8161 7.19328 15.076 7.44096C15.3359 7.68864 15.3457 8.10008 15.0981 8.35994L12.4742 11.1129C12.4682 11.1192 12.462 11.1256 12.4557 11.1318C12.4032 11.1835 12.344 11.2245 12.2809 11.2548C12.1891 11.2989 12.0894 11.32 11.9901 11.3186C11.8964 11.3172 11.8029 11.2957 11.7166 11.254C11.6517 11.2226 11.5911 11.1799 11.5377 11.126C11.5321 11.1203 11.5266 11.1145 11.5212 11.1086L8.94493 8.3556C8.69964 8.09349 8.71329 7.68216 8.97541 7.43687C9.23752 7.19159 9.64886 7.20523 9.89414 7.46735L11.3496 9.0227ZM4.34677 14.3999C4.52582 15.1469 5.19806 15.7022 6 15.7022H18C18.8019 15.7022 19.4742 15.1469 19.6532 14.3999H4.34677Z" fill="#717681"/>
</svg>
