<svg width="24.000000" height="24.000000" viewBox="0 0 24 24" fill="none" xmlns="http://www.w3.org/2000/svg" xmlns:xlink="http://www.w3.org/1999/xlink">
	<desc>
			Created with Pixso.
	</desc>
	<defs>
		<clipPath id="clip9606_1068">
			<rect id="Solid / Commits Solid" width="24.000000" height="24.000000" fill="white" fill-opacity="0"/>
		</clipPath>
	</defs>
	<g clip-path="url(#clip9606_1068)">
		<path id="Shape" d="M12 3C12.35 3 12.65 3.29 12.65 3.65L12.65 8.05C14.55 8.36 16 10.01 16 12C16 13.98 14.55 15.63 12.65 15.94L12.65 20.34C12.65 20.7 12.35 20.99 12 20.99C11.64 20.99 11.35 20.7 11.35 20.34L11.35 15.94C9.44 15.63 8 13.98 8 12C8 10.01 9.44 8.36 11.35 8.05L11.35 3.65C11.35 3.29 11.64 3 12 3Z" fill="#74767B" fill-opacity="1.000000" fill-rule="nonzero"/>
	</g>
</svg>
