<svg width="24.000000" height="24.000000" viewBox="0 0 24 24" fill="none" xmlns="http://www.w3.org/2000/svg" xmlns:xlink="http://www.w3.org/1999/xlink">
	<desc>
			Created with Pixso.
	</desc>
	<defs>
		<clipPath id="clip9606_1072">
			<rect id="Solid / Compare Solid" width="24.000000" height="24.000000" fill="white" fill-opacity="0"/>
		</clipPath>
	</defs>
	<g>
		<path id="Shape" d="M9 19C10.07 19 11.09 18.75 12 18.32C12.9 18.75 13.92 19 15 19C18.86 19 22 15.86 22 12C22 8.13 18.86 5 15 5C13.92 5 12.9 5.24 12 5.67C11.09 5.24 10.07 5 9 5C5.79 5 3.09 7.15 2.26 10.08C2.09 10.69 2 11.33 2 12C2 12.45 2.04 12.89 2.12 13.32C2.21 13.81 2.36 14.27 2.55 14.72C3.61 17.23 6.1 19 9 19ZM13.37 17.46C13.88 17.61 14.43 17.7 15 17.7C18.14 17.7 20.7 15.14 20.7 12C20.7 8.85 18.14 6.29 15 6.29C14.43 6.29 13.88 6.38 13.37 6.53C14.97 7.81 16 9.78 16 12C16 14.21 14.97 16.18 13.37 17.46ZM10.62 17.46C10.11 17.61 9.56 17.7 9 17.7C5.85 17.7 3.3 15.14 3.3 12C3.3 8.85 5.85 6.29 9 6.29C9.56 6.29 10.11 6.38 10.62 6.53C9.02 7.81 8 9.78 8 12C8 13.1 8.25 14.15 8.71 15.08C9.16 16 9.82 16.82 10.62 17.46Z" fill="#717681" fill-opacity="1.000000" fill-rule="evenodd"/>
		<path id="Shape" d="" fill="#000000" fill-opacity="0" fill-rule="evenodd"/>
	</g>
</svg>
