<svg width="24.000000" height="24.000000" viewBox="0 0 24 24" fill="none" xmlns="http://www.w3.org/2000/svg" xmlns:xlink="http://www.w3.org/1999/xlink">
	<desc>
			Created with Pixso.
	</desc>
	<defs>
		<clipPath id="clip9606_1073">
			<rect id="Outline / Create pull request Outline" width="24.000000" height="24.000000" fill="white" fill-opacity="0"/>
		</clipPath>
	</defs>
	<g>
		<path id="Shape" d="M14.23 2.97C14.47 3.23 14.46 3.64 14.2 3.89L12.64 5.34L15 5.34C17.01 5.34 18.65 6.98 18.65 9L18.65 12.71C18.65 13.07 18.35 13.36 18 13.36C17.64 13.36 17.35 13.07 17.35 12.71L17.35 9C17.35 7.7 16.29 6.64 15 6.64L12.62 6.64L14.2 8.15C14.46 8.4 14.47 8.81 14.22 9.07C13.98 9.33 13.56 9.34 13.3 9.09L10.56 6.48C10.43 6.36 10.35 6.19 10.35 6C10.35 5.95 10.35 5.9 10.36 5.85C10.38 5.78 10.4 5.71 10.45 5.65C10.47 5.61 10.5 5.58 10.53 5.54C10.54 5.53 10.55 5.52 10.56 5.52L13.31 2.94C13.57 2.69 13.98 2.71 14.23 2.97ZM5.35 8.93C4 8.63 3 7.43 3 6C3 4.34 4.34 3 6 3C7.65 3 9 4.34 9 6C9 7.43 7.99 8.63 6.64 8.93C6.64 8.95 6.65 8.97 6.65 9L6.65 20.35C6.65 20.71 6.35 21 6 21C5.64 21 5.35 20.71 5.35 20.35L5.35 9C5.35 8.97 5.35 8.95 5.35 8.93ZM7.69 6C7.69 6.93 6.93 7.7 6 7.7C5.06 7.7 4.3 6.93 4.3 6C4.3 5.06 5.06 4.29 6 4.29C6.93 4.29 7.69 5.06 7.69 6ZM18.65 15.28C18.65 14.92 18.35 14.63 18 14.63C17.64 14.63 17.35 14.92 17.35 15.28L17.35 17.16L15.46 17.16C15.1 17.16 14.81 17.46 14.81 17.81C14.81 18.17 15.1 18.46 15.46 18.46L17.35 18.46L17.35 20.35C17.35 20.71 17.64 21 18 21C18.35 21 18.65 20.71 18.65 20.35L18.65 18.46L20.53 18.46C20.89 18.46 21.18 18.17 21.18 17.81C21.18 17.46 20.89 17.16 20.53 17.16L18.65 17.16L18.65 15.28Z" fill="#717681" fill-opacity="1.000000" fill-rule="evenodd"/>
	</g>
</svg>
