<svg width="24.000000" height="24.000000" viewBox="0 0 24 24" fill="none" xmlns="http://www.w3.org/2000/svg" xmlns:xlink="http://www.w3.org/1999/xlink">
	<desc>
			Created with Pixso.
	</desc>
	<defs>
		<clipPath id="clip115541_927">
			<rect id="Solid / Create Fork Solid" width="24.000000" height="24.000000" fill="white" fill-opacity="0"/>
		</clipPath>
	</defs>
	<g clip-path="url(#clip115541_927)">
		<path id="Shape" d="M2 5C2 3.34 3.34 2 5 2L19 2C20.65 2 22 3.34 22 5L22 19C22 20.65 20.65 22 19 22L5 22C3.34 22 2 20.65 2 19L2 5ZM16.15 20.05C15.9 19.79 15.92 19.38 16.18 19.13L17.77 17.65L11.65 17.65C9.63 17.65 8 16.01 8 14L8 12.65L4.65 12.65C4.29 12.65 4 12.36 4 12C4 11.64 4.29 11.35 4.65 11.35L8 11.35L8 10C8 7.98 9.63 6.35 11.65 6.35L12.03 6.35C12.39 6.35 12.68 6.64 12.68 7C12.68 7.35 12.39 7.64 12.03 7.64L11.65 7.64C10.35 7.64 9.3 8.7 9.3 10L9.3 14C9.3 15.29 10.35 16.35 11.65 16.35L17.72 16.35L16.17 14.87C15.92 14.62 15.91 14.21 16.15 13.95C16.4 13.69 16.81 13.68 17.07 13.93L19.82 16.55C19.83 16.56 19.84 16.56 19.84 16.57C19.89 16.62 19.94 16.68 19.97 16.75C20.05 16.93 20.05 17.13 19.97 17.31C19.94 17.37 19.89 17.44 19.84 17.49C19.83 17.5 19.83 17.5 19.82 17.51L17.07 20.08C16.81 20.33 16.39 20.31 16.15 20.05ZM16.99 3.99C17.35 3.99 17.64 4.28 17.64 4.64L17.64 6.35L19.35 6.35C19.71 6.35 20 6.64 20 7C20 7.36 19.71 7.65 19.35 7.65L17.64 7.65L17.64 9.37C17.64 9.72 17.35 10.02 16.99 10.02C16.63 10.02 16.34 9.72 16.34 9.37L16.34 7.65L14.63 7.65C14.27 7.65 13.98 7.36 13.98 7C13.98 6.64 14.27 6.35 14.63 6.35L16.34 6.35L16.34 4.64C16.34 4.28 16.63 3.99 16.99 3.99Z" fill="#74767B" fill-opacity="1.000000" fill-rule="evenodd"/>
	</g>
</svg>
