<svg width="24.000000" height="24.000000" viewBox="0 0 24 24" fill="none" xmlns="http://www.w3.org/2000/svg" xmlns:xlink="http://www.w3.org/1999/xlink">
	<desc>
			Created with Pixso.
	</desc>
	<defs>
		<clipPath id="clip17_192">
			<rect id="Outline / Credit Outline" width="24.000000" height="24.000000" fill="white" fill-opacity="0"/>
		</clipPath>
	</defs>
	<g clip-path="url(#clip17_192)">
		<path id="Shape" d="M8.14 1.95C8.49 1.95 8.79 2.24 8.79 2.6L8.79 3.98L11.35 3.98L11.35 2.6C11.35 2.24 11.64 1.95 12 1.95C12.35 1.95 12.64 2.24 12.64 2.6L12.64 3.98L15.2 3.98L15.2 2.6C15.2 2.24 15.49 1.95 15.85 1.95C16.2 1.95 16.5 2.24 16.5 2.6L16.5 3.98L17 3.98C18.64 3.98 20 5.33 20 6.98L20 17C20 18.66 18.66 20 17 20L7 20C5.33 20 4 18.66 4 17L4 6.98C4 5.33 5.33 3.98 7 3.98L7.48 3.98L7.48 2.6C7.48 2.24 7.78 1.95 8.14 1.95ZM7.48 6.85L7.48 5.29L7 5.29C6.06 5.29 5.29 6.04 5.29 6.98L5.29 17C5.29 17.94 6.06 18.7 7 18.7L17 18.7C17.93 18.7 18.7 17.94 18.7 17L18.7 6.98C18.7 6.04 17.93 5.29 17 5.29L16.5 5.29L16.5 6.85C16.5 7.21 16.2 7.51 15.85 7.51C15.49 7.51 15.2 7.21 15.2 6.85L15.2 5.29L12.64 5.29L12.64 6.85C12.64 7.21 12.35 7.51 12 7.51C11.64 7.51 11.35 7.21 11.35 6.85L11.35 5.29L8.79 5.29L8.79 6.85C8.79 7.21 8.49 7.51 8.14 7.51C7.78 7.51 7.48 7.21 7.48 6.85ZM11 10.67C11 11.77 10.1 12.67 9 12.67C7.89 12.67 7 11.77 7 10.67C7 9.56 7.89 8.67 9 8.67C10.1 8.67 11 9.56 11 10.67ZM15.5 9.56C15.75 9.81 15.75 10.22 15.5 10.48L9.5 16.52C9.24 16.77 8.83 16.78 8.58 16.52C8.32 16.27 8.32 15.86 8.58 15.6L14.58 9.56C14.83 9.31 15.24 9.31 15.5 9.56ZM9.7 10.67C9.7 11.05 9.38 11.37 9 11.37C8.61 11.37 8.3 11.05 8.3 10.67C8.3 10.28 8.61 9.97 9 9.97C9.38 9.97 9.7 10.28 9.7 10.67ZM17 15.48C17 16.59 16.1 17.48 15 17.48C13.89 17.48 13 16.59 13 15.48C13 14.38 13.89 13.48 15 13.48C16.1 13.48 17 14.38 17 15.48ZM15.7 15.48C15.7 15.87 15.38 16.18 15 16.18C14.61 16.18 14.3 15.87 14.3 15.48C14.3 15.09 14.61 14.78 15 14.78C15.38 14.78 15.7 15.09 15.7 15.48Z" fill="#74767B" fill-opacity="1.000000" fill-rule="evenodd"/>
	</g>
</svg>
