<svg width="24" height="24" viewBox="0 0 24 24" fill="none" xmlns="http://www.w3.org/2000/svg">
<path fill-rule="evenodd" clip-rule="evenodd" d="M6.54128 19.156L6.59739 19.2005L6.59833 19.1992C8.10284 20.3299 9.97328 21 12.0002 21C14.0275 21 15.8982 20.3297 17.4028 19.1987L17.4049 19.2015C17.4487 19.167 17.4922 19.1322 17.5352 19.0973C18.5868 18.276 19.4511 17.2261 20.0535 16.0223C20.4918 15.1575 20.7766 14.2405 20.9119 13.2952C20.9732 12.867 21.0039 12.4329 21.0043 11.9952L21.0002 11.9952C20.9984 8.47402 18.9744 5.42579 16.0267 3.94873L16.0277 3.94681C15.6359 3.75158 15.2338 3.58506 14.8233 3.44857C13.8225 3.11583 12.7713 2.96159 11.6956 3.00506C10.3911 3.04844 9.15684 3.36946 8.05012 3.91091C8.02423 3.92287 7.99834 3.93495 7.97246 3.94716L7.97334 3.94893C5.02609 5.42592 3.00244 8.47361 3.00021 11.9942L2.99805 11.9942C2.99843 12.4319 3.02909 12.866 3.0904 13.2942C3.20352 14.0843 3.42099 14.8546 3.74523 15.5912C4.36142 17.0056 5.33051 18.231 6.54128 19.156ZM8.55511 5.11181C6.03356 6.37541 4.30218 8.98284 4.30021 11.9949L9 11.9973C9.00142 10.824 9.67614 9.80847 10.6585 9.31628L8.55511 5.11181ZM11.9541 9.00036C11.9697 9.00012 11.9853 9 12.001 9C12.009 9 12.0622 9.00057 12.0471 9.00034L14.2332 4.62875C13.5264 4.41495 12.7767 4.3 12.0002 4.3C11.9134 4.3 11.827 4.30144 11.7409 4.30429C11.0954 4.33098 10.4375 4.44121 9.77351 4.64165L11.9541 9.00036ZM13.3359 9.31241C14.3235 9.8037 15.002 10.8232 15.002 12.001L15.0022 11.9983L19.7002 11.9958C19.6986 8.98333 17.967 6.37542 15.4451 5.11172L13.3428 9.31584C13.3405 9.31469 13.3382 9.31355 13.3359 9.31241ZM17.5883 17.2799L14.6651 13.3843L14.708 13.2984L19.5916 13.2959C19.4606 14.0691 19.2143 14.8031 18.871 15.4796C18.5437 16.1149 18.1176 16.719 17.5883 17.2799ZM12.001 15.002C12.6771 15.002 13.3011 14.7785 13.8029 14.4012L16.6225 18.1588C15.3352 19.1265 13.7347 19.7 12.0002 19.7C10.2661 19.7 8.66581 19.1267 7.37862 18.1594L10.1989 14.4009C10.7007 14.7783 11.3247 15.002 12.001 15.002ZM9.33684 13.3837C9.32201 13.3552 9.30763 13.3265 9.29371 13.2974L4.40863 13.2949C4.51758 13.9383 4.70634 14.5545 4.96436 15.1331C5.30873 15.8954 5.78961 16.6172 6.41401 17.2789L9.33684 13.3837ZM13.702 12.001C13.702 12.9404 12.9404 13.702 12.001 13.702C11.0616 13.702 10.3 12.9404 10.3 12.001C10.3 11.0616 11.0616 10.3 12.001 10.3C12.9404 10.3 13.702 11.0616 13.702 12.001Z" fill="#717681"/>
</svg>
