<svg width="24.000000" height="24.000000" viewBox="0 0 24 24" fill="none" xmlns="http://www.w3.org/2000/svg" xmlns:xlink="http://www.w3.org/1999/xlink">
	<desc>
			Created with Pixso.
	</desc>
	<defs>
		<clipPath id="clip116914_906">
			<rect id="Outline / Danger Outline" width="24.000000" height="24.000000" fill="white" fill-opacity="0"/>
		</clipPath>
	</defs>
	<g>
		<path id="Shape" d="M6.54 19.15L6.59 19.2L6.59 19.19C8.1 20.32 9.97 20.99 12 20.99C14.02 20.99 15.89 20.32 17.4 19.19L17.4 19.2C17.44 19.16 17.49 19.13 17.53 19.09C18.58 18.27 19.45 17.22 20.05 16.02C20.49 15.15 20.77 14.24 20.91 13.29C20.97 12.86 21 12.43 21 11.99L21 11.99C20.99 8.47 18.97 5.42 16.02 3.94L16.02 3.94C15.63 3.75 15.23 3.58 14.82 3.44C13.82 3.11 12.77 2.96 11.69 3C10.39 3.04 9.15 3.36 8.05 3.91C8.02 3.92 7.99 3.93 7.97 3.94L7.97 3.94C5.02 5.42 3 8.47 3 11.99L2.99 11.99C2.99 12.43 3.02 12.86 3.09 13.29C3.2 14.08 3.42 14.85 3.74 15.59C4.36 17 5.33 18.23 6.54 19.15ZM8.55 5.11C6.03 6.37 4.3 8.98 4.3 11.99L9 11.99C9 10.82 9.67 9.8 10.65 9.31L8.55 5.11ZM11.95 9C11.96 9 11.98 8.99 12 8.99C12 8.99 12.06 9 12.04 9L14.23 4.62C13.52 4.41 12.77 4.29 12 4.29C11.91 4.29 11.82 4.3 11.74 4.3C11.09 4.33 10.43 4.44 9.77 4.64L11.95 9ZM13.33 9.31C14.32 9.8 15 10.82 15 12L15 11.99L19.7 11.99C19.69 8.98 17.96 6.37 15.44 5.11L13.34 9.31C13.34 9.31 13.33 9.31 13.33 9.31ZM17.58 17.27L14.66 13.38L14.7 13.29L19.59 13.29C19.46 14.06 19.21 14.8 18.87 15.47C18.54 16.11 18.11 16.71 17.58 17.27ZM12 15C12.67 15 13.3 14.77 13.8 14.4L16.62 18.15C15.33 19.12 13.73 19.7 12 19.7C10.26 19.7 8.66 19.12 7.37 18.15L10.19 14.4C10.7 14.77 11.32 15 12 15ZM9.33 13.38C9.32 13.35 9.3 13.32 9.29 13.29L4.4 13.29C4.51 13.93 4.7 14.55 4.96 15.13C5.3 15.89 5.78 16.61 6.41 17.27L9.33 13.38ZM13.7 12C13.7 12.94 12.94 13.7 12 13.7C11.06 13.7 10.29 12.94 10.29 12C10.29 11.06 11.06 10.29 12 10.29C12.94 10.29 13.7 11.06 13.7 12Z" fill="#717681" fill-opacity="1.000000" fill-rule="evenodd"/>
	</g>
</svg>
