<svg width="24.000000" height="24.000000" viewBox="0 0 24 24" fill="none" xmlns="http://www.w3.org/2000/svg" xmlns:xlink="http://www.w3.org/1999/xlink">
	<desc>
			Created with Pixso.
	</desc>
	<defs>
		<clipPath id="clip17_434">
			<rect id="Solid / Delivery Solid" width="24.000000" height="24.000000" transform="translate(-0.880371 0.000000)" fill="white" fill-opacity="0"/>
		</clipPath>
	</defs>
	<g>
		<path id="Shape" d="M9.81 3.26C9.81 3.17 9.82 3.08 9.84 3L7.18 3C5.52 3 4.18 4.34 4.18 6L4.18 8.45C4.18 8.99 4.78 9.33 5.24 9.05L7.77 7.51C9.3 6.58 11.29 7.02 12.28 8.51C13.23 9.93 13.1 11.98 11.62 12.93C11.13 13.26 11.34 13.76 11.78 13.76L17.17 12.24C17.23 12.22 17.29 12.21 17.35 12.19C17.73 12.11 18.05 11.8 18.05 11.41L18.05 6C18.05 4.34 16.71 3 15.05 3L12.39 3C12.41 3.08 12.41 3.17 12.41 3.26L12.41 4.9C12.41 5.62 11.83 6.2 11.11 6.2C10.4 6.2 9.81 5.62 9.81 4.9L9.81 3.26ZM1.52 14.99C1.34 13.8 1.89 12.61 2.92 11.98L8.45 8.62C9.38 8.05 10.59 8.32 11.2 9.23C11.78 10.1 11.6 11.26 10.8 11.93L8.91 13.48C8.66 13.68 8.57 14.02 8.69 14.32C8.78 14.56 8.99 14.74 9.25 14.79L10.75 15.08C11.21 15.16 11.68 15.14 12.13 15.02L17.52 13.49C18.45 13.23 19.41 13.75 19.7 14.66C19.97 15.52 19.56 16.45 18.73 16.82L11.78 19.94C11.22 20.19 10.59 20.26 9.98 20.15L4.15 19.02C2.9 18.78 1.94 17.78 1.75 16.52L1.52 14.99Z" fill="#717681" fill-opacity="1.000000" fill-rule="evenodd"/>
	</g>
</svg>
