<svg width="24.000000" height="24.000000" viewBox="0 0 24 24" fill="none" xmlns="http://www.w3.org/2000/svg" xmlns:xlink="http://www.w3.org/1999/xlink">
	<desc>
			Created with Pixso.
	</desc>
	<defs>
		<clipPath id="clip17_207">
			<rect id="Solid / Deposit Solid" width="24.000000" height="24.000000" fill="white" fill-opacity="0"/>
		</clipPath>
	</defs>
	<g clip-path="url(#clip17_207)">
		<path id="Shape" d="M7 4C5.34 4 4 5.34 4 7L4 8.35L2.64 8.35C2.29 8.35 2 8.64 2 9C2 9.35 2.29 9.65 2.64 9.65L4 9.65L4 14.35L2.64 14.35C2.29 14.35 2 14.64 2 15C2 15.35 2.29 15.65 2.64 15.65L4 15.65L4 17C4 18.65 5.34 20 7 20L17 20C18.65 20 20 18.65 20 17L20 7C20 5.34 18.65 4 17 4L7 4ZM12 16C13.98 16 15.63 14.54 15.94 12.64C15.96 12.64 15.98 12.65 16 12.65L17 12.65C17.35 12.65 17.64 12.35 17.64 12C17.64 11.64 17.35 11.35 17 11.35L16 11.35C15.98 11.35 15.96 11.35 15.94 11.35C15.63 9.45 13.98 8 12 8C9.79 8 8 9.79 8 12C8 14.2 9.79 16 12 16ZM14.7 12C14.7 13.49 13.49 14.7 12 14.7C10.5 14.7 9.29 13.49 9.29 12C9.29 10.5 10.5 9.29 12 9.29C13.49 9.29 14.7 10.5 14.7 12ZM12 13C12.55 13 13 12.55 13 12C13 11.44 12.55 11 12 11C11.44 11 11 11.44 11 12C11 12.55 11.44 13 12 13Z" fill="#717681" fill-opacity="1.000000" fill-rule="evenodd"/>
	</g>
</svg>
