<svg width="24.000000" height="24.000000" viewBox="0 0 24 24" fill="none" xmlns="http://www.w3.org/2000/svg" xmlns:xlink="http://www.w3.org/1999/xlink">
	<desc>
			Created with Pixso.
	</desc>
	<defs>
		<clipPath id="clip106725_879">
			<rect id="Solid / Developer Solid" width="24.000000" height="24.000000" fill="white" fill-opacity="0"/>
		</clipPath>
	</defs>
	<g clip-path="url(#clip106725_879)">
		<path id="Shape" d="M7 4C5.34 4 4 5.34 4 7L4 17C4 18.65 5.34 20 7 20L17 20C18.65 20 20 18.65 20 17L20 7C20 5.34 18.65 4 17 4L7 4ZM13.27 9.82C13.37 9.48 13.17 9.12 12.82 9.02C12.47 8.93 12.12 9.13 12.02 9.47L10.72 14.17C10.62 14.51 10.82 14.87 11.17 14.97C11.52 15.06 11.87 14.86 11.97 14.52L13.27 9.82ZM8.77 9.12C9.04 9.36 9.08 9.78 8.87 10.07L7.44 12L8.87 13.92C9.08 14.21 9.04 14.63 8.77 14.87C8.51 15.1 8.11 15.05 7.9 14.76L6.15 12.42C5.97 12.17 5.97 11.82 6.15 11.57L7.9 9.23C8.11 8.94 8.51 8.89 8.77 9.12ZM15.12 10.07C14.91 9.78 14.95 9.36 15.22 9.12C15.49 8.89 15.88 8.94 16.1 9.23L17.84 11.57C18.02 11.82 18.02 12.16 17.84 12.41L15.93 15.05C15.72 15.35 15.33 15.4 15.06 15.17C14.78 14.94 14.74 14.51 14.95 14.22L16.56 12L15.12 10.07Z" fill="#74767B" fill-opacity="1.000000" fill-rule="evenodd"/>
	</g>
</svg>
