<svg width="24.000000" height="24.000000" viewBox="0 0 24 24" fill="none" xmlns="http://www.w3.org/2000/svg" xmlns:xlink="http://www.w3.org/1999/xlink">
	<desc>
			Created with Pixso.
	</desc>
	<defs>
		<clipPath id="clip106725_885">
			<rect id="Outline / DevOps Engineer Outline" width="24.000000" height="24.000000" fill="white" fill-opacity="0"/>
		</clipPath>
	</defs>
	<g clip-path="url(#clip106725_885)">
		<path id="Shape" d="M19.15 12C19.55 12.12 20 11.84 20 11.42L20 7C20 5.34 18.65 4 17 4L7 4C5.34 4 4 5.34 4 7L4 17C4 18.65 5.34 20 7 20L11.42 20C11.84 20 12.12 19.55 12 19.15C11.92 18.89 11.69 18.7 11.42 18.7L7 18.7C6.06 18.7 5.3 17.93 5.3 17L5.3 7C5.3 6.06 6.06 5.29 7 5.29L17 5.29C17.93 5.29 18.7 6.06 18.7 7L18.7 11.42C18.7 11.69 18.89 11.92 19.15 12ZM13.27 10.12C13.37 9.77 13.18 9.41 12.84 9.3C12.5 9.19 12.13 9.38 12.03 9.73L10.72 13.87C10.62 14.22 10.81 14.58 11.15 14.69C11.49 14.8 11.86 14.61 11.96 14.26L13.27 10.12ZM14.4 9.42C14.11 9.64 14.06 10.04 14.29 10.32L15.56 11.85C15.79 12.13 16.21 12.18 16.49 11.96C16.78 11.74 16.83 11.34 16.6 11.07L15.33 9.53C15.11 9.25 14.69 9.21 14.4 9.42ZM9.59 9.43C9.88 9.65 9.93 10.05 9.7 10.32L8.29 12L9.7 13.67C9.93 13.94 9.88 14.34 9.59 14.56C9.31 14.78 8.89 14.74 8.66 14.47L6.92 12.39C6.72 12.16 6.72 11.83 6.92 11.6L8.66 9.52C8.89 9.25 9.31 9.21 9.59 9.43ZM16.96 13C16.49 13 16.1 13.32 16.03 13.76C15.95 14.3 15.35 14.63 14.82 14.43C14.39 14.26 13.89 14.42 13.66 14.8L13.15 15.63C12.92 16.01 13.02 16.49 13.38 16.77C13.84 17.12 13.83 17.81 13.36 18.16C12.99 18.43 12.89 18.92 13.12 19.3L13.62 20.13C13.86 20.51 14.34 20.68 14.77 20.52C15.33 20.31 15.95 20.66 16.03 21.23C16.1 21.67 16.49 22 16.96 22L17.97 22C18.43 22 18.82 21.68 18.89 21.24C18.99 20.66 19.63 20.3 20.22 20.52C20.65 20.68 21.13 20.51 21.37 20.13L21.87 19.3C22.1 18.92 22 18.43 21.63 18.16C21.16 17.81 21.15 17.12 21.61 16.77C21.97 16.49 22.07 16.01 21.84 15.63L21.33 14.8C21.1 14.42 20.6 14.26 20.17 14.43C19.61 14.64 18.98 14.31 18.89 13.75C18.82 13.31 18.43 13 17.97 13L16.96 13ZM17.47 14.3C17.33 14.3 17.21 14.38 17.16 14.51C16.75 15.43 15.74 15.92 14.77 15.75C14.68 15.74 14.59 15.78 14.54 15.86C14.49 15.94 14.5 16.05 14.56 16.12C15.19 16.92 15.17 18.04 14.53 18.82C14.47 18.9 14.46 19 14.51 19.09C14.56 19.16 14.65 19.2 14.74 19.19C15.73 19.03 16.76 19.54 17.16 20.49C17.22 20.61 17.33 20.7 17.46 20.7L17.47 20.7C17.6 20.7 17.72 20.61 17.77 20.49C18.19 19.53 19.25 19.02 20.25 19.19C20.34 19.2 20.43 19.16 20.48 19.08C20.53 19 20.52 18.9 20.46 18.82C19.82 18.04 19.8 16.92 20.43 16.12C20.49 16.05 20.5 15.94 20.45 15.86C20.4 15.78 20.31 15.74 20.22 15.76C19.24 15.92 18.2 15.44 17.77 14.5C17.72 14.38 17.6 14.3 17.47 14.3ZM17.5 19C18.32 19 19 18.32 19 17.5C19 16.67 18.32 16 17.5 16C16.67 16 16 16.67 16 17.5C16 18.32 16.67 19 17.5 19Z" fill="#717681" fill-opacity="1.000000" fill-rule="evenodd"/>
	</g>
</svg>
