<svg width="24.000000" height="24.000000" viewBox="0 0 24 24" fill="none" xmlns="http://www.w3.org/2000/svg" xmlns:xlink="http://www.w3.org/1999/xlink">
	<desc>
			Created with Pixso.
	</desc>
	<defs>
		<clipPath id="clip17_214">
			<rect id="Solid / Diamond Solid" width="24.000000" height="24.000000" fill="white" fill-opacity="0"/>
		</clipPath>
	</defs>
	<g clip-path="url(#clip17_214)">
		<path id="Shape" d="M3.06 8.49C2.89 8.68 3.03 8.98 3.28 8.98L7.38 8.98C7.48 8.98 7.57 8.93 7.63 8.85L10.59 4.46C10.72 4.26 10.58 4 10.34 4L7.56 4C7.18 4 6.83 4.16 6.58 4.44C5.62 5.54 3.87 7.55 3.06 8.49ZM20.93 8.48C21.1 8.68 20.96 8.98 20.7 8.98L16.64 8.98C16.54 8.98 16.45 8.94 16.4 8.86L13.15 4.47C13 4.28 13.14 4 13.39 4L16.41 4C16.79 4 17.14 4.16 17.39 4.44C18.35 5.53 20.12 7.55 20.93 8.48ZM14.23 8.98C14.48 8.98 14.62 8.7 14.47 8.5L12.13 5.39C12.01 5.23 11.77 5.23 11.65 5.4L9.48 8.51C9.34 8.71 9.48 8.98 9.72 8.98L14.23 8.98ZM13.29 18.94C13.21 19.15 13.48 19.31 13.62 19.15C15.12 17.44 18.71 13.36 20.98 10.78C21.15 10.58 21.01 10.28 20.75 10.28L16.62 10.28C16.49 10.28 16.38 10.36 16.34 10.48L13.29 18.94ZM14.88 10.68C14.95 10.49 14.81 10.28 14.6 10.28L9.44 10.28C9.23 10.28 9.09 10.49 9.16 10.69L11.77 17.77C11.86 18.03 12.23 18.03 12.33 17.77L14.88 10.68ZM3.01 10.78C2.84 10.58 2.98 10.28 3.24 10.28L7.42 10.28C7.54 10.28 7.65 10.36 7.7 10.48L10.86 19.09C10.94 19.3 10.68 19.46 10.53 19.29C8.98 17.54 5.23 13.31 3.01 10.78Z" fill="#74767B" fill-opacity="1.000000" fill-rule="evenodd"/>
	</g>
</svg>
