<svg width="24" height="24" viewBox="0 0 24 24" fill="none" xmlns="http://www.w3.org/2000/svg">
<path d="M10.5242 2C9.69574 2 9.02417 2.67157 9.02417 3.5V4.5C9.02417 5.32843 9.69574 6 10.5242 6C11.3526 6 12.0242 5.32843 12.0242 4.5V3.5C12.0242 2.67157 11.3526 2 10.5242 2Z" fill="#717681"/>
<path d="M10.3742 17.5H9.06846V21.3514C9.06846 21.7104 8.77744 22.0014 8.41846 22.0014C8.05947 22.0014 7.76846 21.7104 7.76846 21.3514V17.5H6.87014C6.43103 17.5 6.10034 17.1004 6.1825 16.669L7.05088 12.11C7.45362 12.8724 8.06348 13.6139 8.89528 14.2995C9.1723 14.5278 9.58196 14.4883 9.81028 14.2113C10.0386 13.9343 9.99912 13.5246 9.7221 13.2963C8.41182 12.2164 7.85297 11.0746 7.76278 10.0761C7.67723 9.12906 8.00564 8.24128 8.63374 7.55694C9.09644 7.2055 9.67194 7 10.2882 7C11.1883 7 11.9439 7.42383 12.5073 8.04082L14.2615 9.78317C14.6977 10.1953 15.2751 10.4249 15.8753 10.4249H17.3713C17.7303 10.4249 18.0213 10.7159 18.0213 11.0749C18.0213 11.366 17.8299 11.6124 17.5661 11.6952C18.1566 12.0784 18.5472 12.7436 18.5472 13.5V21.3514C18.5472 21.7104 18.2562 22.0014 17.8972 22.0014C17.5382 22.0014 17.2472 21.7104 17.2472 21.3514L17.2472 13.5C17.2472 13.0306 16.8667 12.65 16.3972 12.65C15.9278 12.65 15.5472 13.0306 15.5472 13.5V14.5976C15.5472 14.9566 15.2562 15.2476 14.8972 15.2476C14.5382 15.2476 14.2472 14.9566 14.2472 14.5976V13.5C14.2472 12.7289 14.6532 12.0526 15.263 11.6732C14.5566 11.553 13.8962 11.2265 13.3688 10.7282L13.0242 10.4027V16.8C13.0242 17.1866 12.7108 17.5 12.3242 17.5H11.6742V21.3514C11.6742 21.7104 11.3832 22.0014 11.0242 22.0014C10.6652 22.0014 10.3742 21.7104 10.3742 21.3514V17.5Z" fill="#717681"/>
</svg>
