<svg width="24.000000" height="24.000000" viewBox="0 0 24 24" fill="none" xmlns="http://www.w3.org/2000/svg" xmlns:xlink="http://www.w3.org/1999/xlink">
	<desc>
			Created with Pixso.
	</desc>
	<defs>
		<clipPath id="clip1100_1470">
			<rect id="Solid / Emails Solid" width="24.000000" height="24.000000" fill="white" fill-opacity="0"/>
		</clipPath>
	</defs>
	<g clip-path="url(#clip1100_1470)">
		<path id="Shape" d="M6.46 6.39L11.9 10.46C12.74 11.09 13.88 11.09 14.72 10.46L20.16 6.39C20.4 6.21 20.48 5.86 20.27 5.63C19.78 5.11 19.09 4.79 18.33 4.79L8.29 4.79C7.53 4.79 6.84 5.11 6.35 5.63C6.14 5.86 6.21 6.21 6.46 6.39ZM5.64 8.6L5.64 9.2L5.64 14C5.64 15.46 6.83 16.65 8.29 16.65L18.33 16.65C19.79 16.65 20.98 15.46 20.98 14L20.98 9.83L20.98 8.6C20.98 8.1 20.41 7.82 20.02 8.12L16.36 10.86L18.41 12.43C18.69 12.65 18.75 13.05 18.53 13.34C18.31 13.62 17.9 13.68 17.62 13.46L15.26 11.66C14.06 12.43 12.51 12.42 11.31 11.63L8.92 13.46C8.63 13.68 8.22 13.62 8.01 13.34C7.79 13.05 7.84 12.65 8.13 12.43L10.22 10.83L6.6 8.12C6.21 7.82 5.64 8.11 5.64 8.6ZM4.31 9.2C4.31 8.84 4.02 8.55 3.66 8.55C3.3 8.55 3.01 8.84 3.01 9.2L3.01 16.55C3.01 18.01 4.2 19.2 5.66 19.2L17.48 19.2C17.83 19.2 18.12 18.91 18.12 18.55C18.12 18.19 17.83 17.9 17.48 17.9L5.66 17.9C4.92 17.9 4.31 17.3 4.31 16.55L4.31 9.2Z" fill="#74767B" fill-opacity="1.000000" fill-rule="evenodd"/>
	</g>
</svg>
