<svg width="24.000000" height="24.000000" viewBox="0 0 24 24" fill="none" xmlns="http://www.w3.org/2000/svg" xmlns:xlink="http://www.w3.org/1999/xlink">
	<desc>
			Created with Pixso.
	</desc>
	<defs>
		<clipPath id="clip9606_1061">
			<rect id="Outline / Forks Outline" width="24.000000" height="24.000000" fill="white" fill-opacity="0"/>
		</clipPath>
	</defs>
	<g>
		<path id="Shape" d="M18.04 2.9C17.78 2.65 17.37 2.66 17.12 2.92C16.87 3.18 16.88 3.59 17.14 3.84L18.73 5.35L12.67 5.35C10.65 5.35 9.02 6.98 9.02 9L9.02 11.35L3.64 11.35C3.28 11.35 2.99 11.64 2.99 12C2.99 12.36 3.28 12.65 3.64 12.65L9.02 12.65L9.02 15.01C9.02 17.02 10.65 18.66 12.67 18.66L18.69 18.66L17.14 20.1C16.88 20.35 16.87 20.76 17.11 21.02C17.36 21.29 17.77 21.3 18.03 21.05L20.78 18.48C20.79 18.47 20.8 18.46 20.82 18.45L20.82 18.44C20.82 18.44 20.83 18.43 20.83 18.43C20.85 18.41 20.86 18.39 20.88 18.37C21.06 18.12 21.03 17.75 20.79 17.53L18.04 14.9C17.78 14.65 17.36 14.66 17.12 14.92C16.87 15.18 16.88 15.59 17.14 15.84L18.73 17.36L12.67 17.36C11.37 17.36 10.32 16.3 10.32 15.01L10.32 12.02C10.32 12.02 10.32 12.01 10.32 12C10.32 12 10.32 11.99 10.32 11.98L10.32 9C10.32 7.7 11.37 6.65 12.67 6.65L18.7 6.65L17.15 8.1C16.89 8.35 16.87 8.76 17.12 9.02C17.36 9.29 17.77 9.3 18.04 9.05L20.79 6.48C20.8 6.47 20.81 6.46 20.82 6.45C21.07 6.19 21.06 5.78 20.8 5.53L18.04 2.9Z" fill="#717681" fill-opacity="1.000000" fill-rule="nonzero"/>
	</g>
</svg>
