<svg width="24" height="24" viewBox="0 0 24 24" fill="none" xmlns="http://www.w3.org/2000/svg">
<path fill-rule="evenodd" clip-rule="evenodd" d="M8.5 12C9.88071 12 11 10.8807 11 9.5C11 8.11929 9.88071 7 8.5 7C7.11929 7 6 8.11929 6 9.5C6 10.8807 7.11929 12 8.5 12ZM8.5 10.7C9.16274 10.7 9.7 10.1627 9.7 9.5C9.7 8.83726 9.16274 8.3 8.5 8.3C7.83726 8.3 7.3 8.83726 7.3 9.5C7.3 10.1627 7.83726 10.7 8.5 10.7Z" fill="#717681"/>
<path fill-rule="evenodd" clip-rule="evenodd" d="M3.7476 18.9816C4.29736 19.606 5.10267 20 6 20H18C19.6569 20 21 18.6569 21 17V7C21 5.34315 19.6569 4 18 4H6C4.34315 4 3 5.34315 3 7V17C3 17.7595 3.28226 18.4531 3.7476 18.9816ZM6 5.3H18C18.9389 5.3 19.7 6.06112 19.7 7V14.7227L17.4963 11.1764C16.5763 9.69595 14.4214 9.6971 13.503 11.1786L10.9604 15.2801L10.4943 14.5269C9.57505 13.0414 7.41393 13.0426 6.4963 14.5291L4.48924 17.7803C4.36831 17.5466 4.3 17.2813 4.3 17V7C4.3 6.06112 5.06112 5.3 6 5.3ZM8.8402 18.7H6C5.82455 18.7 5.65532 18.6734 5.49609 18.6241L7.60249 15.212C8.0125 14.5478 8.97811 14.5473 9.38883 15.211L10.1952 16.5141L8.8402 18.7ZM10.3699 18.7L14.6079 11.8635C15.0182 11.2016 15.9811 11.2011 16.3922 11.8626L19.6914 17.1719C19.6052 18.0301 18.8808 18.7 18 18.7H10.3699Z" fill="#717681"/>
</svg>
