<svg width="24.000000" height="24.000000" viewBox="0 0 24 24" fill="none" xmlns="http://www.w3.org/2000/svg" xmlns:xlink="http://www.w3.org/1999/xlink">
	<desc>
			Created with Pixso.
	</desc>
	<defs>
		<clipPath id="clip130941_118">
			<rect id="Outline / Gallery Outline" width="24.000000" height="24.000000" fill="white" fill-opacity="0"/>
		</clipPath>
	</defs>
	<g >
		<path id="Shape" d="M6 20C5.1 20 4.29 19.6 3.74 18.98C3.28 18.45 3 17.75 3 17L3 7C3 5.34 4.34 4 6 4L18 4C19.65 4 21 5.34 21 7L21 17C21 18.65 19.65 20 18 20L6 20ZM18 5.29L6 5.29C5.06 5.29 4.3 6.06 4.3 7L4.3 17C4.3 17.28 4.36 17.54 4.48 17.78L6.49 14.52C7.41 13.04 9.57 13.04 10.49 14.52L10.96 15.28L13.5 11.17C14.42 9.69 16.57 9.69 17.49 11.17L19.7 14.72L19.7 7C19.7 6.06 18.93 5.29 18 5.29ZM11 9.5C11 10.88 9.88 12 8.5 12C7.11 12 6 10.88 6 9.5C6 8.11 7.11 7 8.5 7C9.88 7 11 8.11 11 9.5ZM9.69 9.5C9.69 10.16 9.16 10.7 8.5 10.7C7.83 10.7 7.3 10.16 7.3 9.5C7.3 8.83 7.83 8.29 8.5 8.29C9.16 8.29 9.69 8.83 9.69 9.5ZM14.6 11.86L10.36 18.7L18 18.7C18.88 18.7 19.6 18.03 19.69 17.17L16.39 11.86C15.98 11.2 15.01 11.2 14.6 11.86ZM6 18.7L8.84 18.7L10.19 16.51L9.38 15.21C8.97 14.54 8.01 14.54 7.6 15.21L5.49 18.62C5.65 18.67 5.82 18.7 6 18.7Z" fill="#74767B" fill-opacity="1.000000" fill-rule="evenodd"/>
	</g>
</svg>
