<svg width="24" height="24" viewBox="0 0 24 24" fill="none" xmlns="http://www.w3.org/2000/svg">
<path d="M4.0061 19.9648C4.0061 20.3238 4.29712 20.6148 4.6561 20.6148C5.01509 20.6148 5.3061 20.3238 5.3061 19.9648V3.99955C5.3061 3.64056 5.01509 3.34955 4.6561 3.34955C4.29712 3.34955 4.0061 3.64056 4.0061 3.99955V19.9648Z" fill="#717681"/>
<path fill-rule="evenodd" clip-rule="evenodd" d="M20.0584 17.1921C20.0584 16.1152 19.1854 15.2422 18.1085 15.2422H15.6236C14.5467 15.2422 13.6737 16.1152 13.6737 17.1921C13.6737 18.269 14.5467 19.142 15.6236 19.142H18.1085C19.1854 19.142 20.0584 18.269 20.0584 17.1921ZM15.6236 17.842L18.1085 17.842C18.4675 17.842 18.7584 17.551 18.7584 17.1921C18.7584 16.8331 18.4675 16.5422 18.1085 16.5422H15.6236C15.2647 16.5422 14.9737 16.8331 14.9737 17.1921C14.9737 17.551 15.2647 17.842 15.6236 17.842Z" fill="#717681"/>
<path fill-rule="evenodd" clip-rule="evenodd" d="M16.0509 10.0664C17.1278 10.0664 18.0008 10.9394 18.0008 12.0163C18.0008 13.0932 17.1278 13.9662 16.0509 13.9662H10.7576C9.68072 13.9662 8.80771 13.0932 8.80771 12.0163C8.80771 10.9394 9.68072 10.0664 10.7576 10.0664H16.0509ZM16.0509 12.6662H10.7576C10.3987 12.6662 10.1077 12.3753 10.1077 12.0163C10.1077 11.6574 10.3987 11.3664 10.7576 11.3664L16.0509 11.3664C16.4099 11.3664 16.7008 11.6574 16.7008 12.0163C16.7008 12.3753 16.4099 12.6662 16.0509 12.6662Z" fill="#717681"/>
<path fill-rule="evenodd" clip-rule="evenodd" d="M10.0739 4.8574C11.1508 4.8574 12.0238 5.73041 12.0238 6.80733C12.0238 7.88424 11.1508 8.75725 10.0739 8.75725H8.54719C7.47027 8.75725 6.59727 7.88424 6.59727 6.80733C6.59727 5.73041 7.47027 4.8574 8.54719 4.8574H10.0739ZM10.0739 7.45725H8.54719C8.18824 7.45725 7.89727 7.16627 7.89727 6.80733C7.89727 6.44838 8.18824 6.1574 8.54719 6.1574H10.0739C10.4328 6.1574 10.7238 6.44838 10.7238 6.80733C10.7238 7.16627 10.4328 7.45725 10.0739 7.45725Z" fill="#717681"/>
</svg>
