<svg width="24.000000" height="24.000000" viewBox="0 0 24 24" fill="none" xmlns="http://www.w3.org/2000/svg" xmlns:xlink="http://www.w3.org/1999/xlink">
	<desc>
			Created with Pixso.
	</desc>
	<defs>
		<clipPath id="clip132800_94">
			<rect id="Solid / Gantt Chart Solid" width="24.000000" height="24.000000" transform="matrix(1 -6.12324e-17 -6.12324e-17 -1 0 24)" fill="white" fill-opacity="0"/>
		</clipPath>
	</defs>
	<g clip-path="url(#clip132800_94)">
		<path id="Shape" d="M4.65 20.61C4.29 20.61 4 20.32 4 19.96L4 3.99C4 3.64 4.29 3.34 4.65 3.34C5.01 3.34 5.3 3.64 5.3 3.99L5.3 19.96C5.3 20.32 5.01 20.61 4.65 20.61ZM10.07 4.85C11.15 4.85 12.02 5.73 12.02 6.8C12.02 7.88 11.15 8.75 10.07 8.75L8.54 8.75C7.46 8.75 6.59 7.88 6.59 6.8C6.59 5.73 7.46 4.85 8.54 4.85L10.07 4.85ZM18 12.01C18 10.93 17.12 10.06 16.05 10.06L10.75 10.06C9.68 10.06 8.8 10.93 8.8 12.01C8.8 13.09 9.68 13.96 10.75 13.96L16.05 13.96C17.12 13.96 18 13.09 18 12.01ZM20.05 17.19C20.05 16.11 19.18 15.24 18.1 15.24L15.62 15.24C14.54 15.24 13.67 16.11 13.67 17.19C13.67 18.26 14.54 19.14 15.62 19.14L18.1 19.14C19.18 19.14 20.05 18.26 20.05 17.19Z" fill="#717681" fill-opacity="1.000000" fill-rule="evenodd"/>
	</g>
</svg>
