<svg width="24.000000" height="24.000000" viewBox="0 0 24 24" fill="none" xmlns="http://www.w3.org/2000/svg" xmlns:xlink="http://www.w3.org/1999/xlink">
	<desc>
			Created with Pixso.
	</desc>
	<defs>
		<clipPath id="clip132800_93">
			<rect id="Outline / Gantt Chart Outline" width="24.000000" height="24.000000" transform="matrix(1 -6.12324e-17 -6.12324e-17 -1 0 24)" fill="white" fill-opacity="0"/>
		</clipPath>
	</defs>
	<g clip-path="url(#clip132800_93)">
		<path id="Shape" d="M4.65 20.61C4.29 20.61 4 20.32 4 19.96L4 3.99C4 3.64 4.29 3.34 4.65 3.34C5.01 3.34 5.3 3.64 5.3 3.99L5.3 19.96C5.3 20.32 5.01 20.61 4.65 20.61ZM12.02 6.8C12.02 5.73 11.15 4.85 10.07 4.85L8.54 4.85C7.46 4.85 6.59 5.73 6.59 6.8C6.59 7.88 7.46 8.75 8.54 8.75L10.07 8.75C11.15 8.75 12.02 7.88 12.02 6.8ZM8.54 7.45L10.07 7.45C10.43 7.45 10.72 7.16 10.72 6.8C10.72 6.44 10.43 6.15 10.07 6.15L8.54 6.15C8.18 6.15 7.89 6.44 7.89 6.8C7.89 7.16 8.18 7.45 8.54 7.45ZM16.05 10.06C17.12 10.06 18 10.93 18 12.01C18 13.09 17.12 13.96 16.05 13.96L10.75 13.96C9.68 13.96 8.8 13.09 8.8 12.01C8.8 10.93 9.68 10.06 10.75 10.06L16.05 10.06ZM16.05 12.66L10.75 12.66C10.39 12.66 10.1 12.37 10.1 12.01C10.1 11.65 10.39 11.36 10.75 11.36L16.05 11.36C16.4 11.36 16.7 11.65 16.7 12.01C16.7 12.37 16.4 12.66 16.05 12.66ZM18.1 15.24C19.18 15.24 20.05 16.11 20.05 17.19C20.05 18.26 19.18 19.14 18.1 19.14L15.62 19.14C14.54 19.14 13.67 18.26 13.67 17.19C13.67 16.11 14.54 15.24 15.62 15.24L18.1 15.24ZM18.1 17.84L15.62 17.84C15.26 17.84 14.97 17.55 14.97 17.19C14.97 16.83 15.26 16.54 15.62 16.54L18.1 16.54C18.46 16.54 18.75 16.83 18.75 17.19C18.75 17.55 18.46 17.84 18.1 17.84Z" fill="#717681" fill-opacity="1.000000" fill-rule="evenodd"/>
	</g>
</svg>
