<svg width="24.000000" height="24.000000" viewBox="0 0 24 24" fill="none" xmlns="http://www.w3.org/2000/svg" xmlns:xlink="http://www.w3.org/1999/xlink">
	<desc>
			Created with Pixso.
	</desc>
	<defs>
		<clipPath id="clip17_256">
			<rect id="Outline / Globe Outline" width="24.000000" height="24.000000" fill="white" fill-opacity="0"/>
		</clipPath>
	</defs>
	<g >
		<path id="Shape" d="M21 12C21 16.97 16.97 21 12 21C7.02 21 3 16.97 3 12C3 7.02 7.02 3 12 3C16.97 3 21 7.02 21 12ZM10.3 19.51C9.84 18.93 9.36 18.24 8.93 17.47C8.78 17.21 8.63 16.93 8.5 16.65L5.86 16.65C6.94 18.07 8.5 19.1 10.3 19.51ZM5.06 15.35L7.95 15.35C7.65 14.5 7.44 13.59 7.37 12.65L4.32 12.65C4.4 13.61 4.66 14.52 5.06 15.35ZM4.32 11.35L7.37 11.35C7.44 10.4 7.65 9.5 7.95 8.65L5.06 8.65C4.66 9.48 4.4 10.39 4.32 11.35ZM5.85 7.35L8.49 7.35C8.63 7.06 8.78 6.78 8.93 6.52C9.36 5.75 9.84 5.06 10.3 4.48C8.5 4.89 6.93 5.92 5.85 7.35ZM18.13 16.65C17.05 18.07 15.49 19.1 13.69 19.51C14.15 18.93 14.63 18.24 15.06 17.47C15.21 17.21 15.36 16.93 15.49 16.65L18.13 16.65ZM18.93 15.35L16.04 15.35C16.34 14.5 16.55 13.59 16.62 12.65L19.67 12.65C19.59 13.61 19.33 14.52 18.93 15.35ZM19.67 11.35L16.62 11.35C16.55 10.4 16.34 9.5 16.04 8.65L18.93 8.65C19.33 9.48 19.59 10.39 19.67 11.35ZM18.14 7.35L15.5 7.35C15.36 7.06 15.21 6.78 15.06 6.52C14.63 5.75 14.15 5.06 13.69 4.48C15.49 4.89 17.06 5.92 18.14 7.35ZM15.32 12.65C15.24 13.58 14.99 14.49 14.65 15.35L9.34 15.35C9 14.49 8.75 13.58 8.67 12.65L15.32 12.65ZM14.03 16.65L9.96 16.65C9.99 16.71 10.03 16.77 10.06 16.83C10.69 17.95 11.41 18.86 12 19.48C12.58 18.86 13.3 17.95 13.93 16.83C13.96 16.77 14 16.71 14.03 16.65ZM15.32 11.35L8.67 11.35C8.75 10.41 9 9.5 9.34 8.65L14.65 8.65C14.99 9.5 15.24 10.41 15.32 11.35ZM14.04 7.35L9.95 7.35C9.99 7.29 10.02 7.22 10.06 7.16C10.69 6.04 11.41 5.13 12 4.51C12.58 5.13 13.3 6.04 13.93 7.16C13.97 7.22 14 7.29 14.04 7.35Z" fill="#74767B" fill-opacity="1.000000" fill-rule="evenodd"/>
	</g>
</svg>
