<svg width="24.000000" height="24.000000" viewBox="0 0 24 24" fill="none" xmlns="http://www.w3.org/2000/svg" xmlns:xlink="http://www.w3.org/1999/xlink">
	<desc>
			Created with Pixso.
	</desc>
	<defs>
		<clipPath id="clip17_323">
			<rect id="Outline / Grid Outline" width="24.000000" height="24.000000" fill="white" fill-opacity="0"/>
		</clipPath>
	</defs>
	<g>
		<path id="Shape" d="M5.29 4C4.58 4 4 4.58 4 5.29L4 9.7C4 10.41 4.58 11 5.29 11L9.7 11C10.41 11 11 10.41 11 9.7L11 5.29C11 4.58 10.41 4 9.7 4L5.29 4ZM14.29 4C13.58 4 13 4.58 13 5.29L13 9.7C13 10.41 13.58 11 14.29 11L18.7 11C19.41 11 20 10.41 20 9.7L20 5.29C20 4.58 19.41 4 18.7 4L14.29 4ZM9.7 5.29L5.29 5.29L5.29 9.7L9.7 9.7L9.7 5.29ZM18.7 5.29L14.29 5.29L14.29 9.7L18.7 9.7L18.7 5.29ZM5.29 13C4.58 13 4 13.58 4 14.3L4 18.7C4 19.41 4.58 20 5.29 20L9.7 20C10.41 20 11 19.41 11 18.7L11 14.3C11 13.58 10.41 13 9.7 13L5.29 13ZM14.29 13C13.58 13 13 13.58 13 14.3L13 18.7C13 19.41 13.58 20 14.29 20L18.7 20C19.41 20 20 19.41 20 18.7L20 14.3C20 13.58 19.41 13 18.7 13L14.29 13ZM9.7 14.3L5.29 14.3L5.29 18.7L9.7 18.7L9.7 14.3ZM18.7 14.3L14.29 14.3L14.29 18.7L18.7 18.7L18.7 14.3Z" fill="#717681" fill-opacity="1.000000" fill-rule="evenodd"/>
	</g>
</svg>
