<svg width="24" height="24" viewBox="0 0 24 24" fill="none" xmlns="http://www.w3.org/2000/svg">
<path d="M12.4952 8.05076C12.2218 7.77739 11.7786 7.77739 11.5052 8.05076L11.081 8.475C10.8076 8.74836 10.8076 9.19158 11.081 9.46495L11.5052 9.88918C11.7786 10.1625 12.2218 10.1625 12.4952 9.88918L12.9194 9.46495C13.1928 9.19158 13.1928 8.74836 12.9194 8.475L12.4952 8.05076Z" fill="#717681"/>
<path fill-rule="evenodd" clip-rule="evenodd" d="M10.0002 2C10.3591 2 10.6502 2.29101 10.6502 2.65V5H13.3502V2.65C13.3502 2.29101 13.6412 2 14.0002 2C14.3591 2 14.6502 2.29101 14.6502 2.65V5H15.6917C16.0816 5 16.4509 5.17501 16.6978 5.47679L17.9316 6.98471C18.8592 8.1184 18.8324 9.75619 17.8683 10.859L14.2588 14.9877C14.1676 15.092 14.0711 15.1883 13.97 15.2766C14.9806 15.9257 15.6502 17.0596 15.6502 18.35C15.6502 20.3658 14.016 22 12.0002 22C9.98432 22 8.35016 20.3658 8.35016 18.35C8.35016 17.991 8.64117 17.7 9.00016 17.7C9.35914 17.7 9.65016 17.991 9.65016 18.35C9.65016 19.6478 10.7023 20.7 12.0002 20.7C13.298 20.7 14.3502 19.6478 14.3502 18.35C14.3502 17.1153 13.3981 16.1031 12.1881 16.0074C11.2964 16.0628 10.3844 15.723 9.74162 14.9877L6.13205 10.859C5.16795 9.75619 5.14119 8.1184 6.06875 6.98471L7.30249 5.47679C7.5494 5.17502 7.91872 5 8.30864 5H9.35016V2.65C9.35016 2.29101 9.64117 2 10.0002 2ZM10.0002 6.3L8.30864 6.3L7.07489 7.80792C6.54928 8.45034 6.56444 9.37842 7.11077 10.0033L10.7203 14.1321C11.0322 14.4888 11.4558 14.6813 11.8883 14.7095C11.9247 14.7032 11.962 14.7 12.0002 14.7C12.0592 14.7 12.1179 14.7014 12.1763 14.7041C12.5863 14.6618 12.9837 14.4711 13.2801 14.1321L16.8896 10.0033C17.4359 9.37843 17.4511 8.45035 16.9255 7.80792L15.6917 6.3L14.0002 6.3H10.0002Z" fill="#717681"/>
</svg>
