<svg width="24" height="24" viewBox="0 0 24 24" fill="none" xmlns="http://www.w3.org/2000/svg">
<path d="M10.9991 12.0045C10.9991 12.5561 10.552 13.0033 10.0004 13.0033C9.44875 13.0033 9.00158 12.5561 9.00158 12.0045C9.00158 11.4529 9.44875 11.0057 10.0004 11.0057C10.552 11.0057 10.9991 11.4529 10.9991 12.0045Z" fill="#717681"/>
<path d="M14.9219 12.8672C15.1977 12.6374 15.2349 12.2275 15.0051 11.9517C14.7753 11.676 14.3654 11.6387 14.0896 11.8685L8.58546 16.445C8.30968 16.6748 8.27242 17.0847 8.50223 17.3604C8.73205 17.6362 9.14192 17.6735 9.4177 17.4437L14.9219 12.8672Z" fill="#717681"/>
<path d="M14.9991 17.0017C14.9991 17.5533 14.552 18.0005 14.0004 18.0005C13.4487 18.0005 13.0016 17.5533 13.0016 17.0017C13.0016 16.4501 13.4487 16.0029 14.0004 16.0029C14.552 16.0029 14.9991 16.4501 14.9991 17.0017Z" fill="#717681"/>
<path fill-rule="evenodd" clip-rule="evenodd" d="M8.32156 7.96603L6.46565 3.99647C6.24865 3.53234 6.58741 3 7.09976 3H16.8998C17.4121 3 17.7509 3.53234 17.5339 3.99647L15.6782 7.96559C16.8193 9.77805 19 13.5608 19 16C19 19.625 16 21 12 21C8 21 5 19.625 5 16C5 13.561 7.18036 9.77866 8.32156 7.96603ZM8.04262 4.3H15.9569L14.6946 7H9.30497L8.04262 4.3ZM9.65027 8.3C9.59544 8.38496 9.53627 8.47742 9.47342 8.57671C9.10969 9.15126 8.62614 9.94857 8.14431 10.8423C7.66069 11.7394 7.18998 12.7131 6.84302 13.6432C6.48852 14.5936 6.3 15.4029 6.3 16C6.3 17.3841 6.83632 18.2133 7.69882 18.7632C8.64947 19.3692 10.1121 19.7 12 19.7C13.8879 19.7 15.3505 19.3692 16.3012 18.7632C17.1637 18.2133 17.7 17.3841 17.7 16C17.7 15.4029 17.5115 14.5936 17.157 13.6432C16.81 12.7131 16.3393 11.7394 15.8557 10.8423C15.3739 9.94856 14.8903 9.15125 14.5266 8.57671C14.4638 8.47742 14.4046 8.38496 14.3498 8.3H9.65027Z" fill="#717681"/>
</svg>
