<svg width="24.000000" height="24.000000" viewBox="0 0 24 24" fill="none" xmlns="http://www.w3.org/2000/svg" xmlns:xlink="http://www.w3.org/1999/xlink">
	<desc>
			Created with Pixso.
	</desc>
	<defs>
		<clipPath id="clip17_287">
			<rect id="Solid / Idea Solid" width="24.000000" height="24.000000" fill="white" fill-opacity="0"/>
		</clipPath>
	</defs>
	<g clip-path="url(#clip17_287)">
		<path id="Shape" d="M16.01 17.98L16.01 14.97C17.62 13.75 18.66 11.83 18.66 9.66C18.66 5.98 15.67 3 12 3C8.32 3 5.33 5.98 5.33 9.66C5.33 11.83 6.37 13.75 7.98 14.97L7.98 17.98C7.98 19.65 9.33 21 10.99 21L13 21C14.66 21 16.01 19.65 16.01 17.98ZM8.8 13.96L8.77 13.93C7.47 12.95 6.64 11.4 6.64 9.66C6.64 6.7 9.04 4.3 12 4.3C14.95 4.3 17.35 6.7 17.35 9.66C17.35 11.4 16.52 12.95 15.22 13.93L15.19 13.96L14.06 13.96L14.06 10.24L14.83 10.24C15.19 10.24 15.48 9.95 15.48 9.59C15.48 9.23 15.19 8.94 14.83 8.94L9.21 8.94C8.85 8.94 8.56 9.23 8.56 9.59C8.56 9.95 8.85 10.24 9.21 10.24L9.98 10.24L9.98 13.96L8.8 13.96ZM11.28 13.96L12.75 13.96L12.75 10.24L11.28 10.24L11.28 13.96Z" fill="#717681" fill-opacity="1.000000" fill-rule="evenodd"/>
	</g>
</svg>
