<svg width="24.000000" height="24.000000" viewBox="0 0 24 24" fill="none" xmlns="http://www.w3.org/2000/svg" xmlns:xlink="http://www.w3.org/1999/xlink">
	<desc>
			Created with Pixso.
	</desc>
	<defs>
		<clipPath id="clip17_538">
			<rect id="Outline / Invalid Outline" width="24.000000" height="24.000000" fill="white" fill-opacity="0"/>
		</clipPath>
	</defs>
	<g clip-path="url(#clip17_538)">
		<path id="Shape" d="M9.5 3.8C9.4 2.84 10.1 2 11 2C11.89 2 12.59 2.84 12.49 3.8L12.4 4.64C12.32 5.41 11.71 6 11 6C10.28 6 9.67 5.41 9.59 4.64L9.5 3.8ZM13.05 12.3C13.83 12.96 14.43 13.85 14.75 14.86L16.45 15.18C17.18 15.32 17.77 15.85 17.97 16.56L18.93 19.94C19.03 20.29 18.83 20.64 18.48 20.74C18.14 20.84 17.78 20.64 17.68 20.3L16.72 16.92C16.65 16.68 16.45 16.5 16.21 16.46L14.99 16.23C14.99 16.32 15 16.41 15 16.5C15 19.53 12.53 22 9.5 22C6.46 22 4 19.53 4 16.5C4 14.57 4.98 12.88 6.47 11.9C6.09 11.61 5.82 11.18 5.73 10.68L5.3 8.26C5.24 7.9 5.48 7.56 5.83 7.5C6.18 7.44 6.52 7.68 6.58 8.03L7.01 10.46C7.07 10.77 7.34 11 7.65 11L9 11L9 9C9 7.89 9.89 7 11 7C12.1 7 13 7.89 13 9L13 11L15.25 11C15.61 11 15.9 11.29 15.9 11.65C15.9 12 15.61 12.3 15.25 12.3L13.05 12.3ZM11.69 11L11.69 10.5C11.69 10.48 11.69 10.47 11.7 10.45L11.7 9C11.7 8.61 11.38 8.29 11 8.29C10.61 8.29 10.29 8.61 10.29 9L10.29 11L11.69 11ZM13.7 16.49C13.7 14.18 11.81 12.29 9.5 12.29C7.18 12.29 5.29 14.18 5.29 16.49C5.29 18.81 7.18 20.7 9.5 20.7C11.81 20.7 13.7 18.81 13.7 16.49Z" fill="#717681" fill-opacity="1.000000" fill-rule="evenodd"/>
	</g>
</svg>
