<svg width="24" height="24" viewBox="0 0 24 24" fill="none" xmlns="http://www.w3.org/2000/svg">
<path d="M7.17486 3.69611C7.20881 3.33874 7.52605 3.07655 7.88342 3.1105L12.5732 3.55604C13.4037 3.63493 14.1821 3.99592 14.7788 4.57889L20.3159 9.98867C20.5727 10.2395 20.5774 10.6511 20.3266 10.9078C20.0757 11.1646 19.6642 11.1694 19.4074 10.9185L13.8703 5.50876C13.4861 5.13342 12.985 4.90101 12.4503 4.85021L7.76048 4.40468C7.4031 4.37072 7.14091 4.05349 7.17486 3.69611Z" fill="#717681"/>
<path d="M7.88623 10.6829C8.43852 10.6829 8.88623 10.2352 8.88623 9.6829C8.88623 9.13061 8.43852 8.6829 7.88623 8.6829C7.33395 8.6829 6.88623 9.13061 6.88623 9.6829C6.88623 10.2352 7.33395 10.6829 7.88623 10.6829Z" fill="#717681"/>
<path fill-rule="evenodd" clip-rule="evenodd" d="M5.04092 5.39404C4.2155 5.30454 3.51885 6.00118 3.60835 6.8266L4.33052 13.4868C4.40424 14.1668 4.70809 14.8011 5.19171 15.2847L9.89888 19.9919C11.0705 21.1635 12.9699 21.1635 14.1415 19.9919L18.2062 15.9272C19.3778 14.7556 19.3778 12.8561 18.2062 11.6846L13.4991 6.9774C13.0154 6.49378 12.3811 6.18993 11.7011 6.1162L5.04092 5.39404ZM13.2223 19.0727L17.287 15.008C17.9509 14.3441 17.9509 13.2677 17.287 12.6038L12.5798 7.89664C12.3058 7.62258 11.9463 7.4504 11.561 7.40862L4.90078 6.68646L5.62294 13.3467C5.66472 13.732 5.8369 14.0915 6.11095 14.3655L10.8181 19.0727C11.482 19.7366 12.5584 19.7366 13.2223 19.0727Z" fill="#717681"/>
</svg>
