<svg width="24" height="24" viewBox="0 0 24 24" fill="none" xmlns="http://www.w3.org/2000/svg">
<path d="M7.88342 3.1105C7.52605 3.07655 7.20882 3.33874 7.17486 3.69611C7.14091 4.05349 7.4031 4.37072 7.76048 4.40468L12.4503 4.85021C12.985 4.90101 13.4861 5.13342 13.8703 5.50876L19.4074 10.9185C19.6642 11.1694 20.0757 11.1646 20.3266 10.9078C20.5774 10.6511 20.5727 10.2395 20.3159 9.98867L14.7788 4.57889C14.1821 3.99592 13.4037 3.63493 12.5732 3.55604L7.88342 3.1105Z" fill="#717681"/>
<path fill-rule="evenodd" clip-rule="evenodd" d="M3.60835 6.8266C3.51885 6.00118 4.2155 5.30454 5.04092 5.39404L11.7011 6.1162C12.3811 6.18993 13.0154 6.49378 13.4991 6.9774L18.2062 11.6846C19.3778 12.8561 19.3778 14.7556 18.2062 15.9272L14.1415 19.9919C12.9699 21.1635 11.0704 21.1635 9.89888 19.9919L5.19171 15.2847C4.70809 14.8011 4.40424 14.1668 4.33052 13.4868L3.60835 6.8266ZM8.88646 9.68288C8.88646 10.2352 8.43874 10.6829 7.88646 10.6829C7.33417 10.6829 6.88646 10.2352 6.88646 9.68288C6.88646 9.1306 7.33417 8.68288 7.88646 8.68288C8.43874 8.68288 8.88646 9.1306 8.88646 9.68288Z" fill="#717681"/>
</svg>
