<svg width="24.000000" height="24.000000" viewBox="0 0 24 24" fill="none" xmlns="http://www.w3.org/2000/svg" xmlns:xlink="http://www.w3.org/1999/xlink">
	<desc>
			Created with Pixso.
	</desc>
	<defs>
		<clipPath id="clip17_514">
			<rect id="Solid / Layers Solid" width="24.000000" height="24.000000" fill="white" fill-opacity="0"/>
		</clipPath>
	</defs>
	<g >
		<path id="Shape" d="M3.52 15L10.36 18.42C11.39 18.94 12.6 18.94 13.63 18.42L20.47 15L21.04 15.29C21.59 15.57 21.59 16.36 21.04 16.63L13.63 20.34C12.6 20.85 11.39 20.85 10.36 20.34L2.95 16.63C2.4 16.36 2.4 15.57 2.95 15.29L3.52 15Z" fill="#74767B" fill-opacity="1.000000" fill-rule="nonzero"/>
		<path id="Shape" d="M3.52 11.04L10.36 14.46C11.39 14.97 12.6 14.97 13.63 14.46L20.47 11.04L21.11 11.36C21.66 11.63 21.66 12.42 21.11 12.7L13.63 16.44C12.6 16.95 11.39 16.95 10.36 16.44L2.88 12.7C2.33 12.42 2.33 11.63 2.88 11.36L3.52 11.04Z" fill="#74767B" fill-opacity="1.000000" fill-rule="nonzero"/>
		<path id="Shape" d="M13.63 3.65C12.6 3.13 11.39 3.13 10.36 3.65L2.88 7.39C2.33 7.66 2.33 8.45 2.88 8.73L10.36 12.47C11.39 12.99 12.6 12.99 13.63 12.47L21.11 8.73C21.66 8.45 21.66 7.66 21.11 7.39L13.63 3.65Z" fill="#74767B" fill-opacity="1.000000" fill-rule="nonzero"/>
	</g>
</svg>
