<svg width="24.000000" height="24.000000" viewBox="0 0 24 24" fill="none" xmlns="http://www.w3.org/2000/svg" xmlns:xlink="http://www.w3.org/1999/xlink">
	<desc>
			Created with Pixso.
	</desc>
	<defs>
		<clipPath id="clip17_505">
			<rect id="Outline / Layers Outline" width="24.000000" height="24.000000" fill="white" fill-opacity="0"/>
		</clipPath>
	</defs>
	<g clip-path="url(#clip17_505)">
		<path id="Shape" d="M13.63 3.65C12.6 3.13 11.39 3.13 10.36 3.65L2.88 7.39C2.33 7.66 2.33 8.45 2.88 8.73L5.51 10.04L2.88 11.36C2.33 11.63 2.33 12.42 2.88 12.7L5.51 14.01L2.95 15.29C2.4 15.57 2.4 16.36 2.95 16.63L10.36 20.34C11.39 20.85 12.6 20.85 13.63 20.34L21.04 16.63C21.59 16.36 21.59 15.57 21.04 15.29L18.48 14.01L21.11 12.7C21.66 12.42 21.66 11.63 21.11 11.36L18.48 10.04L21.11 8.73C21.66 8.45 21.66 7.66 21.11 7.39L13.63 3.65ZM10.94 4.81C11.61 4.48 12.38 4.48 13.05 4.81L19.55 8.06L13.05 11.31C12.38 11.64 11.61 11.64 10.94 11.31L4.44 8.06L10.94 4.81ZM17.03 10.77L13.63 12.47C12.6 12.99 11.39 12.99 10.36 12.47L6.96 10.77L4.44 12.03L10.94 15.28C11.61 15.61 12.38 15.61 13.05 15.28L19.55 12.03L17.03 10.77ZM4.51 15.96L6.96 14.74L10.36 16.44C11.39 16.95 12.6 16.95 13.63 16.44L17.03 14.74L19.48 15.96L13.05 19.18C12.38 19.51 11.61 19.51 10.94 19.18L4.51 15.96Z" fill="#74767B" fill-opacity="1.000000" fill-rule="evenodd"/>
	</g>
</svg>
