<svg width="24.000000" height="24.000000" viewBox="0 0 24 24" fill="none" xmlns="http://www.w3.org/2000/svg" xmlns:xlink="http://www.w3.org/1999/xlink">
	<desc>
			Created with Pixso.
	</desc>
	<defs>
		<clipPath id="clip106725_918">
			<rect id="Outline / Library Auditor Outline" width="24.000000" height="24.000000" fill="white" fill-opacity="0"/>
		</clipPath>
	</defs>
	<g clip-path="url(#clip106725_918)">
		<path id="Shape" d="M4.97 7.66C4.97 5.65 6.6 4.01 8.62 4.01L15.37 4.01C17.39 4.01 19.02 5.65 19.02 7.66L19.02 13.15C19.02 13.5 18.73 13.8 18.37 13.8C18.01 13.8 17.72 13.5 17.72 13.15L17.72 7.66C17.72 6.36 16.67 5.31 15.37 5.31L8.62 5.31C7.32 5.31 6.27 6.36 6.27 7.66L6.27 14.54C6.75 14.21 7.33 14.02 7.96 14.02L12.95 14.02C13.31 14.02 13.6 14.31 13.6 14.67C13.6 15.03 13.31 15.32 12.95 15.32L7.96 15.32C7.03 15.32 6.27 16.08 6.27 17.01C6.27 17.94 7.03 18.7 7.96 18.7L10.86 18.7C11.22 18.7 11.51 18.99 11.51 19.35C11.51 19.71 11.22 20 10.86 20L7.96 20C6.31 20 4.97 18.66 4.97 17.01L4.97 17.01L4.97 17.01L4.97 7.66ZM8.84 6.99C8.48 6.99 8.19 7.28 8.19 7.64C8.19 8 8.48 8.29 8.84 8.29L15.15 8.29C15.51 8.29 15.8 8 15.8 7.64C15.8 7.28 15.51 6.99 15.15 6.99L8.84 6.99ZM8.19 10.23C8.19 9.87 8.48 9.58 8.84 9.58L15.15 9.58C15.51 9.58 15.8 9.87 15.8 10.23C15.8 10.59 15.51 10.88 15.15 10.88L8.84 10.88C8.48 10.88 8.19 10.59 8.19 10.23ZM21.54 17.26C22.12 17.99 22.12 19 21.53 19.72C20.71 20.73 19.3 22 17.34 22C15.38 22 13.97 20.73 13.15 19.72C12.57 18.99 12.56 17.99 13.14 17.27C13.95 16.26 15.35 14.99 17.34 14.99C19.33 14.99 20.73 16.25 21.54 17.26ZM20.52 18.9C19.79 19.8 18.71 20.7 17.34 20.7C15.97 20.7 14.89 19.8 14.17 18.9C13.96 18.65 13.96 18.32 14.16 18.08C14.87 17.19 15.94 16.29 17.34 16.29C18.74 16.29 19.81 17.18 20.53 18.07C20.72 18.32 20.72 18.65 20.52 18.9ZM17.37 19.52C17.92 19.52 18.37 19.07 18.37 18.52C18.37 17.97 17.92 17.52 17.37 17.52C16.82 17.52 16.37 17.97 16.37 18.52C16.37 19.07 16.82 19.52 17.37 19.52Z" fill="#717681" fill-opacity="1.000000" fill-rule="evenodd"/>
	</g>
</svg>
