<svg width="24.000000" height="24.000000" viewBox="0 0 24 24" fill="none" xmlns="http://www.w3.org/2000/svg" xmlns:xlink="http://www.w3.org/1999/xlink">
	<desc>
			Created with Pixso.
	</desc>
	<defs>
		<clipPath id="clip106725_915">
			<rect id="Solid / Library Auditor Solid" width="24.000000" height="24.000000" fill="white" fill-opacity="0"/>
		</clipPath>
	</defs>
	<g clip-path="url(#clip106725_915)">
		<path id="Shape" d="M8 4C6.34 4 5 5.34 5 7L5 17C5 18.65 6.34 20 8 20L10.92 20C11.31 20 11.57 19.56 11.49 19.18C11.43 18.91 11.2 18.7 10.93 18.7L8 18.7C7.1 18.7 6.37 18.01 6.3 17.14C6.3 17.1 6.3 17.07 6.3 17.04C6.3 17.02 6.3 17.01 6.3 17C6.3 16.14 6.99 15.44 7.85 15.44L12.57 15.44C12.89 15.44 13.2 15.32 13.45 15.12C14.41 14.35 15.71 13.69 17.34 13.69C17.4 13.69 17.47 13.7 17.53 13.7C18.27 13.72 19 13.19 19 12.44L19 7C19 5.34 17.65 4 16 4L8 4ZM8.19 7.64C8.19 7.28 8.48 6.99 8.84 6.99L15.15 6.99C15.51 6.99 15.8 7.28 15.8 7.64C15.8 8 15.51 8.29 15.15 8.29L8.84 8.29C8.48 8.29 8.19 8 8.19 7.64ZM15.53 9.7C15.42 9.62 15.28 9.61 15.15 9.61L8.84 9.61C8.71 9.61 8.57 9.62 8.46 9.7C8.29 9.82 8.19 10.01 8.19 10.23C8.19 10.59 8.48 10.88 8.84 10.88L15.15 10.88C15.51 10.88 15.8 10.59 15.8 10.23C15.8 10.01 15.7 9.82 15.53 9.7ZM21.53 19.72C22.12 19 22.12 17.99 21.54 17.26C20.73 16.25 19.33 14.99 17.34 14.99C15.35 14.99 13.95 16.26 13.14 17.27C12.56 17.99 12.57 18.99 13.15 19.72C13.97 20.73 15.38 22 17.34 22C19.3 22 20.71 20.73 21.53 19.72ZM17.35 20.49C18.45 20.49 19.35 19.6 19.35 18.49C19.35 17.39 18.45 16.49 17.35 16.49C16.24 16.49 15.35 17.39 15.35 18.49C15.35 19.6 16.24 20.49 17.35 20.49Z" fill="#717681" fill-opacity="1.000000" fill-rule="evenodd"/>
	</g>
</svg>
