<svg viewBox="0 0 24 24" xmlns="http://www.w3.org/2000/svg" xmlns:xlink="http://www.w3.org/1999/xlink" width="24.000000" height="24.000000" fill="none">
	<rect id="Solid/Library Auditor Solid" width="24.000000" height="24.000000" x="0.000000" y="0.000000" />
	<path id="Shape" d="M5 7C5 5.34314 6.34315 4 8 4L16 4C17.6569 4 19 5.34315 19 7L19 12.4494C19 13.1922 18.2786 13.7263 17.5362 13.7028C17.473 13.7008 17.4092 13.6998 17.3449 13.6998C15.7114 13.6998 14.4157 14.3553 13.457 15.1224C13.2041 15.3247 12.8949 15.4494 12.5709 15.4494L7.85585 15.4494C6.99949 15.4494 6.30527 16.1436 6.30527 17C6.30527 17.0149 6.30494 17.0299 6.30461 17.0448C6.30389 17.0772 6.30317 17.1096 6.30583 17.1418C6.37791 18.0144 7.10889 18.7 8 18.7L10.9334 18.7C11.2098 18.7 11.4339 18.9118 11.4932 19.1818C11.5781 19.5676 11.3181 20 10.9231 20L8 20C6.34315 20 5 18.6568 5 17L5 7ZM8.84131 6.99435C8.48232 6.99435 8.19131 7.28536 8.19131 7.64435C8.19131 8.00333 8.48232 8.29435 8.84131 8.29435L15.1586 8.29435C15.5176 8.29435 15.8086 8.00333 15.8086 7.64435C15.8086 7.28536 15.5176 6.99435 15.1586 6.99435L8.84131 6.99435ZM15.1541 9.61702C15.2871 9.61702 15.4252 9.62917 15.5338 9.70602C15.7001 9.82375 15.8086 10.0176 15.8086 10.2369C15.8086 10.5959 15.5176 10.8869 15.1586 10.8869L8.84131 10.8869C8.48232 10.8869 8.19131 10.5959 8.19131 10.2369C8.19131 10.0176 8.29985 9.82375 8.46613 9.70602C8.57467 9.62917 8.71277 9.61702 8.84576 9.61702L15.1541 9.61702ZM21.5344 19.726C22.1211 19.0015 22.128 17.9944 21.5453 17.2666C20.7385 16.2588 19.3327 14.9998 17.345 14.9998C15.3537 14.9998 13.9502 16.2634 13.147 17.2721C12.5695 17.9975 12.5763 18.9985 13.1579 19.7206C13.9713 20.7305 15.3839 22 17.345 22C19.3026 22 20.7173 20.735 21.5344 19.726ZM17.3503 20.5C18.4549 20.5 19.3503 19.6045 19.3503 18.4999C19.3503 17.3953 18.4549 16.4999 17.3503 16.4999C16.2457 16.4999 15.3502 17.3953 15.3502 18.4999C15.3502 19.6045 16.2457 20.5 17.3503 20.5Z" fill="rgb(116,118,123)" fill-rule="evenodd" />
</svg>
