<svg width="24" height="24" viewBox="0 0 24 24" fill="none" xmlns="http://www.w3.org/2000/svg">
<path d="M13.9884 2.02726C13.38 1.92354 12.7589 2.11906 12.3195 2.55258L3.84763 10.9127C2.7341 12.0115 3.3028 13.9083 4.8372 14.2133L8.67867 14.9767C9.02764 15.0461 9.256 15.3831 9.19106 15.7329L8.44851 19.7327C8.25322 20.7847 8.95668 21.7929 10.0114 21.9727C10.6198 22.0764 11.2409 21.8809 11.6803 21.4474L20.1522 13.0873C21.2657 11.9884 20.697 10.0916 19.1626 9.78668L15.3211 9.02325C14.9722 8.9539 14.7438 8.61688 14.8088 8.26708L15.5513 4.26723C15.7466 3.21529 15.0431 2.20706 13.9884 2.02726Z" fill="#717681"/>
</svg>
