<svg width="24.000000" height="24.000000" viewBox="0 0 24 24" fill="none" xmlns="http://www.w3.org/2000/svg" xmlns:xlink="http://www.w3.org/1999/xlink">
	<desc>
			Created with Pixso.
	</desc>
	<defs>
		<clipPath id="clip5052_678">
			<rect id="Solid / Lightning Solid" width="24.000000" height="24.000000" fill="white" fill-opacity="0"/>
		</clipPath>
	</defs>
	<g clip-path="url(#clip5052_678)">
		<path id="Shape" d="M13.98 2.02C13.37 1.92 12.75 2.11 12.31 2.55L3.84 10.91C2.73 12.01 3.3 13.9 4.83 14.21L8.67 14.97C9.02 15.04 9.25 15.38 9.19 15.73L8.44 19.73C8.25 20.78 8.95 21.79 10.01 21.97C10.61 22.07 11.24 21.88 11.68 21.44L20.15 13.08C21.26 11.98 20.69 10.09 19.16 9.78L15.32 9.02C14.97 8.95 14.74 8.61 14.8 8.26L15.55 4.26C15.74 3.21 15.04 2.2 13.98 2.02Z" fill="#74767B" fill-opacity="1.000000" fill-rule="nonzero"/>
	</g>
</svg>
