<svg width="24.000000" height="24.000000" viewBox="0 0 24 24" fill="none" xmlns="http://www.w3.org/2000/svg" xmlns:xlink="http://www.w3.org/1999/xlink">
	<desc>
			Created with Pixso.
	</desc>
	<defs>
		<clipPath id="clip127622_738">
			<rect id="Outline / Line Chart Outline" width="24.000000" height="24.000000" transform="matrix(1 -6.12324e-17 -6.12324e-17 -1 0 24)" fill="white" fill-opacity="0"/>
		</clipPath>
	</defs>
	<g>
		<path id="Shape" d="M11.06 13.2L8.75 10.88C8.88 10.62 8.95 10.32 8.95 10.01C8.95 8.89 8.04 7.99 6.92 7.99C5.8 7.99 4.89 8.89 4.89 10.01C4.89 11.13 5.8 12.04 6.92 12.04C7.25 12.04 7.57 11.96 7.85 11.82L10.16 14.13C10.04 14.39 9.97 14.69 9.97 15C9.97 16.12 10.87 17.03 11.99 17.03C13.11 17.03 14.02 16.12 14.02 15C14.02 14.6 13.91 14.23 13.71 13.92L16.64 8.92C16.79 8.96 16.95 8.98 17.12 8.98C18.24 8.98 19.14 8.07 19.14 6.95C19.14 5.83 18.24 4.92 17.12 4.92C16 4.92 15.09 5.83 15.09 6.95C15.09 7.44 15.26 7.88 15.54 8.23L12.69 13.09C12.47 13.02 12.24 12.97 11.99 12.97C11.66 12.97 11.34 13.05 11.06 13.2ZM17.12 7.68C17.52 7.68 17.84 7.35 17.84 6.95C17.84 6.55 17.52 6.22 17.12 6.22C16.71 6.22 16.39 6.55 16.39 6.95C16.39 7.35 16.71 7.68 17.12 7.68ZM6.92 10.74C7.32 10.74 7.65 10.41 7.65 10.01C7.65 9.61 7.32 9.29 6.92 9.29C6.52 9.29 6.19 9.61 6.19 10.01C6.19 10.41 6.52 10.74 6.92 10.74ZM12.72 15C12.72 15.4 12.4 15.73 11.99 15.73C11.59 15.73 11.27 15.4 11.27 15C11.27 14.6 11.59 14.27 11.99 14.27C12.4 14.27 12.72 14.6 12.72 15ZM3.37 19.34C3.37 18.98 3.67 18.69 4.02 18.69L19.99 18.69C20.35 18.69 20.64 18.98 20.64 19.34C20.64 19.7 20.35 19.99 19.99 19.99L4.02 19.99C3.67 19.99 3.37 19.7 3.37 19.34Z" fill="#717681" fill-opacity="1.000000" fill-rule="evenodd"/>
	</g>
</svg>
