<svg width="24.000000" height="24.000000" viewBox="0 0 24 24" fill="none" xmlns="http://www.w3.org/2000/svg" xmlns:xlink="http://www.w3.org/1999/xlink">
	<desc>
			Created with Pixso.
	</desc>
	<defs>
		<clipPath id="clip5563_703">
			<rect id="Solid / Male Solid" width="24.000000" height="24.000000" fill="white" fill-opacity="0"/>
		</clipPath>
	</defs>
	<g >
		<path id="Shape" d="M12 2C11.17 2 10.5 2.67 10.5 3.5L10.5 4.5C10.5 5.32 11.17 6 12 6C12.82 6 13.5 5.32 13.5 4.5L13.5 3.5C13.5 2.67 12.82 2 12 2ZM9.35 7.77C8.67 8.16 8.14 8.85 7.76 9.65C7.17 10.91 6.86 12.59 6.86 14.38C6.86 14.74 7.15 15.03 7.51 15.03C7.87 15.03 8.16 14.74 8.16 14.38C8.16 12.71 8.45 11.24 8.94 10.2C9.03 10.01 9.13 9.84 9.22 9.68L10.02 14.91C10.02 14.94 10.03 14.98 10.05 15.01L10.05 21.36C10.05 21.72 10.34 22.01 10.7 22.01C11.06 22.01 11.35 21.72 11.35 21.36L11.35 15.19L12.64 15.19L12.64 21.36C12.64 21.72 12.93 22.01 13.29 22.01C13.65 22.01 13.94 21.72 13.94 21.36L13.94 15.03C13.96 14.99 13.98 14.95 13.98 14.91L14.77 9.64C14.88 9.8 14.99 9.99 15.09 10.2C15.58 11.24 15.86 12.71 15.86 14.38C15.86 14.74 16.16 15.03 16.51 15.03C16.87 15.03 17.16 14.74 17.16 14.38C17.16 12.59 16.86 10.91 16.26 9.65C15.78 8.62 15.03 7.76 14.02 7.5C13.57 7.37 12.93 7.27 11.99 7.27C10.48 7.27 9.72 7.53 9.35 7.77Z" fill="#74767B" fill-opacity="1.000000" fill-rule="evenodd"/>
	</g>
</svg>
