<svg width="24" height="24" viewBox="0 0 24 24" fill="none" xmlns="http://www.w3.org/2000/svg">
<path fill-rule="evenodd" clip-rule="evenodd" d="M17.89 19.4031C19.6193 17.8114 20.7 15.5328 20.7 13C20.7 8.19512 16.8049 4.3 12 4.3C7.19512 4.3 3.3 8.19512 3.3 13C3.3 15.5328 4.38069 17.8114 6.11004 19.4031C6.30031 19.5782 6.60494 19.7 7.00043 19.7H16.9996C17.3951 19.7 17.6997 19.5782 17.89 19.4031ZM18.7703 20.3596C18.2921 20.7998 17.6495 21 16.9996 21H7.00043C6.35045 21 5.70789 20.7998 5.22965 20.3596C3.2441 18.5321 2 15.9113 2 13C2 7.47715 6.47715 3 12 3C17.5228 3 22 7.47715 22 13C22 15.9113 20.7559 18.5321 18.7703 20.3596ZM16.6502 10.0576C16.6502 9.11873 15.8891 8.35762 14.9502 8.35762H9.0498C8.11092 8.35762 7.3498 9.11873 7.3498 10.0576V12.3299H16.6502V10.0576ZM16.5983 15.7887L15.6372 15.7887C15.2782 15.7887 14.9872 15.4977 14.9872 15.1387C14.9872 14.7797 15.2782 14.4887 15.6372 14.4887H16.6502V13.6299H7.3498V14.4887H8.36621C8.7252 14.4887 9.01621 14.7797 9.01621 15.1387C9.01621 15.4977 8.7252 15.7887 8.36621 15.7887H7.40172C7.58818 16.5252 8.25535 17.0701 9.0498 17.0701H14.9502C15.7446 17.0701 16.4118 16.5252 16.5983 15.7887ZM17.9502 12.3299V15.3701C17.9502 17.027 16.607 18.3701 14.9502 18.3701H9.0498C7.39295 18.3701 6.0498 17.027 6.0498 15.3701V12.3299V10.0576C6.0498 8.40076 7.39295 7.05762 9.0498 7.05762H14.9502C16.607 7.05762 17.9502 8.40076 17.9502 10.0576V12.3299Z" fill="#717681"/>
</svg>
