<svg width="24.000000" height="24.000000" viewBox="0 0 24 24" fill="none" xmlns="http://www.w3.org/2000/svg" xmlns:xlink="http://www.w3.org/1999/xlink">
	<desc>
			Created with Pixso.
	</desc>
	<defs>
		<clipPath id="clip121950_889">
			<rect id="Outline / NFC Outline" width="24.000000" height="24.000000" fill="white" fill-opacity="0"/>
		</clipPath>
	</defs>
	<g clip-path="url(#clip121950_889)">
		<path id="Shape" d="M6 19C4.34 19 3 17.65 3 16L3 8C3 6.34 4.34 5 6 5L18 5C18.1 5 18.2 5 18.3 5.01C19.81 5.16 21 6.44 21 8L21 16C21 17.65 19.65 19 18 19L6 19ZM19.7 8C19.7 7.06 18.93 6.29 18 6.29L6 6.29C5.06 6.29 4.3 7.06 4.3 8L4.3 16C4.3 16.93 5.06 17.7 6 17.7L18 17.7C18.93 17.7 19.7 16.93 19.7 16L19.7 8ZM13.72 15.24C14.04 15.39 14.42 15.27 14.56 14.96C14.96 14.05 15.19 13.04 15.19 11.98C15.19 10.93 14.97 9.94 14.57 9.04C14.43 8.72 14.05 8.6 13.74 8.75C13.41 8.92 13.29 9.32 13.43 9.66C13.72 10.38 13.89 11.16 13.89 11.98C13.89 12.81 13.72 13.6 13.41 14.32C13.27 14.66 13.39 15.07 13.72 15.24ZM11.44 14.11C11.74 14.26 12.12 14.15 12.25 13.83C12.49 13.26 12.62 12.64 12.62 11.98C12.62 11.33 12.5 10.72 12.27 10.16C12.14 9.85 11.76 9.73 11.46 9.89C11.12 10.05 11 10.47 11.13 10.82C11.25 11.18 11.32 11.57 11.32 11.98C11.32 12.39 11.25 12.79 11.11 13.16C10.99 13.52 11.1 13.94 11.44 14.11ZM10.11 12C10.11 12.35 9.81 12.65 9.45 12.65C9.1 12.65 8.81 12.35 8.81 12C8.81 11.64 9.1 11.35 9.45 11.35C9.81 11.35 10.11 11.64 10.11 12Z" fill="#717681" fill-opacity="1.000000" fill-rule="evenodd"/>
	</g>
</svg>
