<svg width="24" height="24" viewBox="0 0 24 24" fill="none" xmlns="http://www.w3.org/2000/svg">
<path d="M14.5609 14.9621C14.4202 15.2791 14.0404 15.3963 13.7296 15.2422C13.3977 15.0777 13.2747 14.6695 13.4185 14.328C13.7223 13.6064 13.8902 12.8136 13.8902 11.9815C13.8902 11.1622 13.7274 10.381 13.4324 9.66836C13.2913 9.32742 13.4149 8.92169 13.7456 8.75781C14.0577 8.60308 14.4392 8.72198 14.5787 9.04122C14.972 9.94165 15.1902 10.9361 15.1902 11.9815C15.1902 13.0425 14.9654 14.0511 14.5609 14.9621Z" fill="#717681"/>
<path d="M12.2529 13.8389C12.1214 14.151 11.7487 14.2605 11.4453 14.1101C11.1074 13.9426 10.9917 13.5216 11.1199 13.1669C11.2535 12.7969 11.3263 12.3978 11.3263 11.9817C11.3263 11.5774 11.2576 11.1892 11.1311 10.8281C11.0072 10.4744 11.1241 10.0575 11.4599 9.89104C11.7657 9.73947 12.1413 9.85169 12.2707 10.1675C12.5 10.727 12.6263 11.3396 12.6263 11.9817C12.6263 12.6403 12.4934 13.2678 12.2529 13.8389Z" fill="#717681"/>
<path d="M10.1101 12.0006C10.1101 12.3596 9.81904 12.6506 9.46006 12.6506C9.10107 12.6506 8.81006 12.3596 8.81006 12.0006C8.81006 11.6416 9.10107 11.3506 9.46006 11.3506C9.81904 11.3506 10.1101 11.6416 10.1101 12.0006Z" fill="#717681"/>
<path fill-rule="evenodd" clip-rule="evenodd" d="M3 16C3 17.6569 4.34314 19 6 19H18C19.6569 19 21 17.6569 21 16V8C21 6.4467 19.8195 5.16912 18.3067 5.01549C18.2059 5.00525 18.1036 5 18 5H6C4.34315 5 3 6.34315 3 8V16ZM18 6.3C18.9389 6.3 19.7 7.06112 19.7 8V16C19.7 16.9389 18.9389 17.7 18 17.7H6C5.06112 17.7 4.3 16.9389 4.3 16L4.3 8C4.3 7.06112 5.06112 6.3 6 6.3L18 6.3Z" fill="#717681"/>
</svg>
