<svg width="24.000000" height="24.000000" viewBox="0 0 24 24" fill="none" xmlns="http://www.w3.org/2000/svg" xmlns:xlink="http://www.w3.org/1999/xlink">
	<desc>
			Created with Pixso.
	</desc>
	<defs>
		<clipPath id="clip123737_708">
			<rect id="Outline / Organisation Outline" width="24.000000" height="24.000000" fill="white" fill-opacity="0"/>
		</clipPath>
	</defs>
	<g>
		<path id="Shape" d="M5.25 4.64L14.67 4.64L14.67 10.01L8.66 10.01C7.94 10.01 7.36 10.59 7.36 11.31L7.36 19.71L7.36 19.72L5.25 19.72L5.25 4.64ZM15.97 4.64L15.97 10.01L18.68 10.01C19.4 10.01 19.98 10.59 19.98 11.31L19.98 19.71C19.98 20.43 19.4 21.01 18.68 21.01L15.98 21.01C15.27 21.01 14.68 20.43 14.68 19.71L14.68 16.31L14.68 15.01L13.98 15.01L13.38 15.01L12.68 15.01L12.68 16.31L12.68 19.71C12.68 20.43 12.1 21.01 11.38 21.01L8.66 21.01L8.66 21.01C8.72 21.02 8.79 21.02 8.85 21.02L5.25 21.02C4.53 21.02 3.95 20.44 3.95 19.72L3.95 4.64C3.95 3.92 4.53 3.34 5.25 3.34L14.67 3.34C15.39 3.34 15.97 3.92 15.97 4.64ZM11.38 15.01C11.38 14.29 11.97 13.71 12.68 13.71L14.68 13.71C15.4 13.71 15.98 14.29 15.98 15.01L15.98 19.71L18.68 19.71L18.68 11.31L8.66 11.31L8.66 19.71L11.38 19.71L11.38 15.01ZM9.3 7.91C9.3 8.27 9.59 8.56 9.95 8.56C10.31 8.56 10.6 8.27 10.6 7.91L10.6 6.35C10.6 5.99 10.31 5.7 9.95 5.7C9.59 5.7 9.3 5.99 9.3 6.35L9.3 7.91ZM12.56 8.56C12.2 8.56 11.91 8.27 11.91 7.91L11.91 6.35C11.91 5.99 12.2 5.7 12.56 5.7C12.92 5.7 13.21 5.99 13.21 6.35L13.21 7.91C13.21 8.27 12.92 8.56 12.56 8.56ZM6.71 7.91C6.71 8.27 7 8.56 7.36 8.56C7.72 8.56 8.01 8.27 8.01 7.91L8.01 6.35C8.01 5.99 7.72 5.7 7.36 5.7C7 5.7 6.71 5.99 6.71 6.35L6.71 7.91Z" fill="#717681" fill-opacity="1.000000" fill-rule="evenodd"/>
	</g>
</svg>
