<svg width="24.000000" height="24.000000" viewBox="0 0 24 24" fill="none" xmlns="http://www.w3.org/2000/svg" xmlns:xlink="http://www.w3.org/1999/xlink">
	<desc>
			Created with Pixso.
	</desc>
	<defs/>
	<path id="Shape" d="M6.68 3.58C6.01 3.58 5.47 4.12 5.47 4.79L5.47 8.18C5.47 8.28 5.4 8.35 5.3 8.35L5.24 8.35C4.04 8.35 3.07 9.32 3.07 10.52L3.07 13C3.07 14.19 4.04 15.16 5.24 15.16L5.34 15.16C5.42 15.16 5.49 15.22 5.51 15.3L6.06 18.64C6.23 19.66 7.12 20.41 8.16 20.41C9.33 20.41 10.28 19.47 10.29 18.3L10.29 18.29C10.29 18.29 10.3 18.29 10.31 18.28C10.32 18.28 10.33 18.28 10.33 18.29C11.12 18.49 11.95 18.61 12.81 18.61C13.78 18.61 14.71 18.46 15.58 18.2C15.6 18.19 15.64 18.2 15.66 18.22C15.68 18.23 15.68 18.23 15.68 18.24C15.68 18.24 15.68 18.24 15.68 18.24C15.68 19.44 16.66 20.41 17.86 20.41C18.86 20.41 19.75 19.72 19.96 18.72C20.58 15.71 20.95 12.53 20.96 12.38C20.97 12.33 20.97 12.29 20.96 12.24C20.98 12.07 20.99 11.89 20.99 11.72C20.99 8.08 18.04 5.13 14.4 5.13L9.5 5.13C9.48 5.13 9.44 5.13 9.39 5.09C9.33 5.06 9.27 5 9.22 4.92C8.67 4.11 7.74 3.58 6.68 3.58ZM6.77 8.18L6.77 4.88C7.34 4.91 7.84 5.2 8.14 5.65C8.41 6.04 8.87 6.43 9.5 6.43L14.4 6.43C17.32 6.43 19.69 8.8 19.69 11.72C19.69 11.89 19.68 12.06 19.66 12.22C19.65 12.27 19.65 12.31 19.66 12.35C19.58 12.97 19.23 15.79 18.68 18.45C18.61 18.83 18.27 19.11 17.86 19.11C17.37 19.11 16.98 18.72 16.98 18.24C16.98 17.27 16.02 16.71 15.2 16.96C14.46 17.18 13.65 17.31 12.81 17.31C12.06 17.31 11.34 17.21 10.67 17.03C9.88 16.82 8.99 17.37 8.99 18.29C8.99 18.74 8.62 19.11 8.16 19.11C7.76 19.11 7.41 18.82 7.34 18.42L6.79 15.09C6.67 14.38 6.06 13.86 5.34 13.86L5.24 13.86C4.76 13.86 4.37 13.47 4.37 13L4.37 10.52C4.37 10.04 4.76 9.65 5.24 9.65L5.3 9.65C6.11 9.65 6.77 8.99 6.77 8.18ZM10.71 7.89C10.37 7.89 10.1 8.17 10.1 8.5C10.1 8.83 10.37 9.11 10.71 9.11L14.87 9.11C15.21 9.11 15.48 8.83 15.48 8.5C15.48 8.17 15.21 7.89 14.87 7.89L10.71 7.89Z" fill="#74767B" fill-opacity="1.000000" fill-rule="evenodd"/>
</svg>
