<svg width="24" height="24" viewBox="0 0 24 24" fill="none" xmlns="http://www.w3.org/2000/svg">
<path d="M12 3C9.33497 3 7.26365 5.32002 7.56456 7.96802L7.8266 10.274C8.06781 12.3966 9.86377 14 12 14C14.1363 14 15.9322 12.3966 16.1734 10.274L16.4355 7.96803C16.7364 5.32002 14.6651 3 12 3Z" fill="#717681"/>
<path d="M10.1464 15C7.33419 15 4.89931 16.9532 4.28926 19.6984L4.18932 20.1481C4.09217 20.5853 4.42482 21 4.87265 21H9.49003C9.82261 21 10.1093 20.766 10.1759 20.4401L11.1158 15.8401C11.2045 15.4062 10.8729 15 10.43 15H10.1464Z" fill="#717681"/>
<path d="M13.5564 15C13.1128 15 12.781 15.4074 12.8709 15.8418L13.8223 20.4418C13.8896 20.7669 14.1759 21 14.5078 21H19.1274C19.5752 21 19.9079 20.5853 19.8107 20.1481L19.7108 19.6984C19.1007 16.9532 16.6658 15 13.8537 15H13.5564Z" fill="#717681"/>
</svg>
