<svg width="24.000000" height="24.000000" viewBox="0 0 24 24" fill="none" xmlns="http://www.w3.org/2000/svg" xmlns:xlink="http://www.w3.org/1999/xlink">
	<desc>
			Created with Pixso.
	</desc>
	<defs>
		<clipPath id="clip17_412">
			<rect id="Solid / Pickup Solid" width="24.000000" height="24.000000" transform="translate(-0.880371 0.000000)" fill="white" fill-opacity="0"/>
		</clipPath>
	</defs>
	<g>
		<path id="Shape" d="M5.93 5.61C5.85 5.23 5.46 5.01 5.09 5.13L3.91 5.52C3.57 5.64 3.21 5.45 3.09 5.11C2.98 4.77 3.16 4.4 3.5 4.29L4.68 3.9C5.78 3.53 6.95 4.2 7.2 5.32L9.55 15.94C9.83 17.23 11.11 18.03 12.39 17.72L18.03 16.38C18.38 16.3 18.73 16.52 18.81 16.87C18.9 17.21 18.68 17.57 18.33 17.65L12.69 18.99C10.7 19.46 8.72 18.22 8.28 16.23L5.93 5.61ZM9.89 4.89C9.19 5.04 8.75 5.74 8.91 6.44L9.73 10.17L16.43 8.69L16.71 9.96L10.01 11.44L10.83 15.17C10.99 15.87 11.68 16.31 12.38 16.16L16.55 15.24C17.25 15.08 17.69 14.39 17.54 13.69L15.61 4.96C15.45 4.26 14.76 3.81 14.06 3.97L9.89 4.89ZM8.11 19C8.11 19.82 7.44 20.5 6.61 20.5C5.79 20.5 5.11 19.82 5.11 19C5.11 18.17 5.79 17.5 6.61 17.5C7.44 17.5 8.11 18.17 8.11 19Z" fill="#717681" fill-opacity="1.000000" fill-rule="evenodd"/>
	</g>
</svg>
