<svg width="24.000000" height="24.000000" viewBox="0 0 24 24" fill="none" xmlns="http://www.w3.org/2000/svg" xmlns:xlink="http://www.w3.org/1999/xlink">
	<desc>
			Created with Pixso.
	</desc>
	<defs>
		<clipPath id="clip17_259">
			<rect id="Outline / Pin Outline" width="24.000000" height="24.000000" fill="white" fill-opacity="0"/>
		</clipPath>
	</defs>
	<g>
		<path id="Shape" d="M20.31 11.75L18.2 11.74L13.37 16.57L13.38 18.67C13.26 19.75 11.94 20.21 11.17 19.44L8.33 16.6L3.83 21.1C3.58 21.35 3.16 21.35 2.91 21.1C2.66 20.85 2.66 20.43 2.91 20.18L7.41 15.68L4.55 12.82C3.78 12.05 4.24 10.73 5.32 10.61L7.42 10.62L12.25 5.79L12.24 3.68C12.37 2.6 13.68 2.15 14.45 2.92L21.07 9.54C21.84 10.31 21.39 11.62 20.31 11.75ZM12.08 18.51L5.48 11.91L7.95 11.92L7.96 11.92L12.07 16.03L12.07 16.03L12.08 18.51ZM12.62 7.26L8.88 11L12.99 15.11L16.73 11.37L12.62 7.26ZM13.54 6.34L13.55 6.33L13.54 3.84L20.15 10.45L17.66 10.44L17.65 10.45L13.54 6.34Z" fill="#717681" fill-opacity="1.000000" fill-rule="evenodd"/>
	</g>
</svg>
