<svg width="24" height="24" viewBox="0 0 24 24" fill="none" xmlns="http://www.w3.org/2000/svg">
<path d="M17.2816 5.24005C18.453 4.18314 20.0993 4.06865 21.1562 5.24006C22.2131 6.41146 21.779 8.07899 20.6075 9.13591L11.436 17.4341C9.23654 19.4186 6.38266 19.7326 4.23569 17.7816C4.21796 17.7669 4.20078 17.7513 4.18421 17.7347L4.17829 17.7287C4.07771 17.6348 3.9798 17.5366 3.8848 17.4341L2.45164 15.9957C2.17294 15.7159 2.17378 15.2632 2.45352 14.9845C2.73325 14.7058 3.18595 14.7067 3.46465 14.9864L4.89181 16.4189L8.05652 13.5635L4.75084 9.92802C3.90842 9.00155 3.9785 7.56709 4.90722 6.72716C5.59802 6.10241 6.60104 5.96471 7.43464 6.38018L12.9637 9.13591L17.2816 5.24005Z" fill="#717681"/>
<path d="M14.6651 18.85L13.3574 17.4105L17.4032 13.75L18.459 16.5271C18.7908 17.3974 18.5554 18.3821 17.8659 19.0083C16.9389 19.8502 15.5045 19.7793 14.6651 18.85Z" fill="#717681"/>
</svg>
