<svg width="24.000000" height="24.000000" viewBox="0 0 24 24" fill="none" xmlns="http://www.w3.org/2000/svg" xmlns:xlink="http://www.w3.org/1999/xlink">
	<desc>
			Created with Pixso.
	</desc>
	<defs>
		<clipPath id="clip17_389">
			<rect id="Outline / Post Outline" width="24.000000" height="24.000000" fill="white" fill-opacity="0"/>
		</clipPath>
	</defs>
	<g>
		<path id="Shape" d="M3.09 6.61L14.14 6.61C14.5 6.61 14.79 6.9 14.79 7.26L14.79 7.94C14.79 7.97 14.79 7.99 14.8 8.02L14.8 10.91C14.8 11.98 15.67 12.86 16.75 12.86L19.15 12.86C19.17 12.96 19.17 13.06 19.17 13.16L19.17 14.72C19.17 14.75 19.15 14.77 19.12 14.77L4.82 14.77C4.8 14.77 4.77 14.75 4.77 14.72L4.77 11.16C4.77 10.81 4.48 10.51 4.12 10.51C3.76 10.51 3.47 10.81 3.47 11.16L3.47 14.72C3.47 15.47 4.08 16.07 4.82 16.07L19.12 16.07C19.87 16.07 20.47 15.47 20.47 14.72L20.47 13.16C20.47 12.7 20.39 12.24 20.21 11.81L19.17 9.2C18.66 7.92 17.41 7.14 16.09 7.18C16.05 6.14 15.19 5.31 14.14 5.31L3.09 5.31C2.73 5.31 2.44 5.6 2.44 5.96C2.44 6.32 2.73 6.61 3.09 6.61ZM16.1 10.91L16.1 8.48C16.89 8.44 17.66 8.91 17.96 9.68L18.71 11.56L16.75 11.56C16.39 11.56 16.1 11.27 16.1 10.91ZM4.14 7.93C3.78 7.93 3.49 8.22 3.49 8.58C3.49 8.94 3.78 9.23 4.14 9.23L7.34 9.23C7.7 9.23 7.99 8.94 7.99 8.58C7.99 8.22 7.7 7.93 7.34 7.93L4.14 7.93ZM9.27 18.24C9.27 19.07 8.6 19.74 7.77 19.74C6.94 19.74 6.27 19.07 6.27 18.24C6.27 17.41 6.94 16.74 7.77 16.74C8.6 16.74 9.27 17.41 9.27 18.24ZM17.62 18.24C17.62 19.07 16.95 19.74 16.12 19.74C15.29 19.74 14.62 19.07 14.62 18.24C14.62 17.41 15.29 16.74 16.12 16.74C16.95 16.74 17.62 17.41 17.62 18.24Z" fill="#717681" fill-opacity="1.000000" fill-rule="evenodd"/>
	</g>
</svg>
