<svg width="24.000000" height="24.000000" viewBox="0 0 24 24" fill="none" xmlns="http://www.w3.org/2000/svg" xmlns:xlink="http://www.w3.org/1999/xlink">
	<desc>
			Created with Pixso.
	</desc>
	<defs>
		<clipPath id="clip17_418">
			<rect id="Solid / Post automat Solid" width="24.000000" height="24.000000" fill="white" fill-opacity="0"/>
		</clipPath>
	</defs>
	<g>
		<path id="Shape" d="M10.64 4L7 4C5.34 4 4 5.34 4 7L4 8.21C4 8.6 4.31 8.91 4.7 8.91L10.64 8.91C11.03 8.91 11.35 8.6 11.35 8.21L11.35 4.69C11.35 4.31 11.03 4 10.64 4ZM13.35 20L18.7 20C19.41 20 20 19.41 20 18.7L20 7C20 5.34 18.65 4 17 4L13.35 4C12.96 4 12.64 4.31 12.64 4.69L12.64 19.29C12.64 19.68 12.96 20 13.35 20ZM13.94 10.88C13.94 10.49 14.26 10.18 14.64 10.18L18 10.18C18.38 10.18 18.7 10.49 18.7 10.88L18.7 13.11C18.7 13.5 18.38 13.81 18 13.81L14.64 13.81C14.26 13.81 13.94 13.5 13.94 13.11L13.94 10.88ZM4 10.91C4 10.52 4.31 10.21 4.7 10.21L10.64 10.21C11.03 10.21 11.35 10.52 11.35 10.91L11.35 13.13C11.35 13.51 11.03 13.83 10.64 13.83L4.7 13.83C4.31 13.83 4 13.51 4 13.13L4 10.91ZM4 18.7L4 15.83C4 15.44 4.31 15.13 4.7 15.13L10.64 15.13C11.03 15.13 11.35 15.44 11.35 15.83L11.35 19.29C11.35 19.68 11.03 20 10.64 20L5.29 20C4.58 20 4 19.41 4 18.7Z" fill="#717681" fill-opacity="1.000000" fill-rule="evenodd"/>
	</g>
</svg>
