<svg width="24.000000" height="24.000000" viewBox="0 0 24 24" fill="none" xmlns="http://www.w3.org/2000/svg" xmlns:xlink="http://www.w3.org/1999/xlink">
	<desc>
			Created with Pixso.
	</desc>
	<defs>
		<clipPath id="clip17_544">
			<rect id="Solid / Pregnant Solid" width="24.000000" height="24.000000" fill="white" fill-opacity="0"/>
		</clipPath>
	</defs>
	<g>
		<path id="Shape" d="M8.54 4.33C9.33 6.73 12.02 6.7 12.95 5.52C13.15 5.29 13.29 4.98 13.32 4.64L13.41 3.8C13.51 2.84 12.82 2 11.92 2C11.57 2 11.25 2.12 11 2.34C10.99 2.34 10.99 2.35 10.98 2.36C10.96 2.37 10.94 2.39 10.92 2.41C10.73 2.59 10.57 2.76 10.41 2.93C9.94 3.43 9.55 3.84 8.82 3.95C8.63 3.97 8.48 4.15 8.54 4.33ZM9.49 8.71C9.2 9.25 9.01 9.85 8.94 10.47L8.88 10.97L7.82 17.65C7.79 17.83 7.93 18 8.12 18L9.97 18L9.97 21.35C9.97 21.7 10.26 22 10.62 22C10.98 22 11.27 21.7 11.27 21.35L11.27 18L12.56 18L12.56 21.35C12.56 21.7 12.85 22 13.21 22C13.57 22 13.86 21.7 13.86 21.35L13.86 18L14.73 18C14.84 18 14.93 17.94 14.99 17.85L15.55 16.95C16.84 14.89 16.05 12.17 13.86 11.12C13.7 11.04 13.65 10.84 13.75 10.7L13.79 10.64C14.44 9.78 14.4 8.58 13.69 7.76L13.42 7.44C13.17 7.16 12.81 7 12.43 7L11.69 7C11.56 7 11.44 7.06 11.37 7.17C10.43 8.69 10.61 10.72 11.88 12L13.38 13.52C13.64 13.78 13.64 14.19 13.38 14.44C13.12 14.69 12.71 14.69 12.46 14.44L10.96 12.92C9.83 11.78 9.32 10.22 9.49 8.71Z" fill="#717681" fill-opacity="1.000000" fill-rule="evenodd"/>
	</g>
</svg>
