<svg width="24.000000" height="24.000000" viewBox="0 0 24 24" fill="none" xmlns="http://www.w3.org/2000/svg" xmlns:xlink="http://www.w3.org/1999/xlink">
	<desc>
			Created with Pixso.
	</desc>
	<defs>
		<clipPath id="clip9606_1064">
			<rect id="Solid / Pull request Solid" width="24.000000" height="24.000000" fill="white" fill-opacity="0"/>
		</clipPath>
	</defs>
	<g clip-path="url(#clip9606_1064)">
		<path id="Shape" d="M14.23 2.97C14.47 3.23 14.46 3.64 14.2 3.89L12.64 5.34L15 5.34C17.01 5.34 18.65 6.98 18.65 8.99L18.65 15C18.65 15.02 18.64 15.04 18.64 15.06C19.99 15.36 21 16.56 21 18C21 19.65 19.65 21 18 21C16.34 21 15 19.65 15 18C15 16.56 16 15.36 17.35 15.06C17.35 15.04 17.35 15.02 17.35 15L17.35 8.99C17.35 7.7 16.29 6.64 15 6.64L12.62 6.64L14.2 8.15C14.46 8.4 14.47 8.81 14.22 9.07C13.98 9.33 13.56 9.34 13.3 9.09L10.56 6.48C10.43 6.36 10.35 6.19 10.35 5.99C10.35 5.95 10.35 5.91 10.36 5.87C10.38 5.75 10.44 5.64 10.52 5.55C10.54 5.53 10.55 5.52 10.56 5.51L13.31 2.94C13.57 2.69 13.98 2.71 14.23 2.97ZM5.35 8.93C4 8.63 3 7.43 3 5.99C3 4.34 4.34 3 6 3C7.65 3 9 4.34 9 5.99C9 7.43 7.99 8.63 6.64 8.93C6.64 8.95 6.65 8.97 6.65 8.99L6.65 20.35C6.65 20.71 6.35 21 6 21C5.64 21 5.35 20.71 5.35 20.35L5.35 8.99C5.35 8.97 5.35 8.95 5.35 8.93Z" fill="#717681" fill-opacity="1.000000" fill-rule="evenodd"/>
	</g>
</svg>
