<svg width="24.000000" height="24.000000" viewBox="0 0 24 24" fill="none" xmlns="http://www.w3.org/2000/svg" xmlns:xlink="http://www.w3.org/1999/xlink">
	<desc>
			Created with Pixso.
	</desc>
	<defs>
		<clipPath id="clip1735_581">
			<rect id="Solid / Receipt Update Solid" width="24.000000" height="24.000000" fill="white" fill-opacity="0"/>
		</clipPath>
	</defs>
	<g >
		<path id="Shape" d="M5.03 6C5.03 4.34 6.38 3 8.03 3L16.03 3C17.69 3 19.03 4.34 19.03 6L19.03 11.83C19.03 12.27 18.64 12.59 18.2 12.58C18.12 12.57 18.04 12.57 17.96 12.57C14.6 12.57 11.88 15.29 11.88 18.65C11.88 19.16 11.95 19.66 12.07 20.14C12.18 20.57 11.9 21.04 11.48 20.9C11.32 20.84 11.15 20.76 11.01 20.64L9.88 19.79C9.65 19.61 9.32 19.6 9.08 19.76L7.57 20.75C7.31 20.92 7 21.01 6.68 21.01C5.77 21.01 5.03 20.28 5.03 19.37L5.03 6ZM8.05 7.64C8.05 7.28 8.34 6.99 8.7 6.99L15.4 6.99C15.76 6.99 16.05 7.28 16.05 7.64C16.05 8 15.76 8.29 15.4 8.29L8.7 8.29C8.34 8.29 8.05 8 8.05 7.64ZM8.7 9.99C8.34 9.99 8.05 10.28 8.05 10.64C8.05 11 8.34 11.29 8.7 11.29L15.4 11.29C15.76 11.29 16.05 11 16.05 10.64C16.05 10.28 15.76 9.99 15.4 9.99L8.7 9.99ZM8.05 13.64C8.05 13.28 8.34 12.99 8.7 12.99L11.91 12.99C12.27 12.99 12.56 13.28 12.56 13.64C12.56 14 12.27 14.29 11.91 14.29L8.7 14.29C8.34 14.29 8.05 14 8.05 13.64ZM16.22 19.1L15.72 18.61C15.93 19.8 16.97 20.71 18.23 20.71C19.64 20.71 20.78 19.57 20.78 18.16C20.78 16.75 19.64 15.6 18.23 15.6C17.93 15.6 17.65 15.65 17.39 15.74C17.05 15.86 16.68 15.68 16.56 15.34C16.45 15 16.63 14.63 16.97 14.52C17.36 14.38 17.79 14.3 18.23 14.3C20.36 14.3 22.08 16.03 22.08 18.16C22.08 20.28 20.36 22.01 18.23 22.01C16.29 22.01 14.68 20.57 14.41 18.7L14.01 19.12C13.76 19.37 13.34 19.38 13.09 19.12C12.83 18.87 12.83 18.46 13.08 18.21L14.63 16.63C14.88 16.37 15.29 16.37 15.55 16.62L17.13 18.17C17.38 18.42 17.39 18.83 17.14 19.09C16.88 19.34 16.47 19.35 16.22 19.1Z" fill="#74767B" fill-opacity="1.000000" fill-rule="evenodd"/>
	</g>
</svg>
