<svg width="24.000000" height="24.000000" viewBox="0 0 24 24" fill="none" xmlns="http://www.w3.org/2000/svg" xmlns:xlink="http://www.w3.org/1999/xlink">
	<desc>
			Created with Pixso.
	</desc>
	<defs>
		<clipPath id="clip17_589">
			<rect id="Outline / Receipt Update Outline" width="24.000000" height="24.000000" transform="translate(-0.962402 0.000000)" fill="white" fill-opacity="0"/>
		</clipPath>
	</defs>
	<g clip-path="url(#clip17_589)">
		<path id="Shape" d="M7.78 18.41C8.24 18.11 8.83 18.13 9.27 18.46L9.66 18.75C9.82 18.87 9.91 19.06 9.91 19.27C9.91 19.8 9.29 20.1 8.86 19.78C8.64 19.61 8.33 19.6 8.1 19.75L6.57 20.75C6.31 20.92 6 21.01 5.68 21.01C4.77 21.01 4.03 20.28 4.03 19.37L4.03 6C4.03 4.34 5.38 3 7.03 3L15.03 3C16.69 3 18.03 4.34 18.03 6L18.03 10.64C18.03 11 17.74 11.29 17.38 11.29C17.02 11.29 16.73 11 16.73 10.64L16.73 6C16.73 5.06 15.97 4.3 15.03 4.3L7.03 4.3C6.09 4.3 5.33 5.06 5.33 6L5.33 19.37C5.33 19.56 5.49 19.71 5.68 19.71C5.74 19.71 5.81 19.69 5.86 19.66L7.78 18.41ZM7.05 7.64C7.05 7.28 7.34 6.99 7.7 6.99L14.4 6.99C14.76 6.99 15.05 7.28 15.05 7.64C15.05 8 14.76 8.29 14.4 8.29L7.7 8.29C7.34 8.29 7.05 8 7.05 7.64ZM7.7 9.99C7.34 9.99 7.05 10.28 7.05 10.64C7.05 11 7.34 11.29 7.7 11.29L14.4 11.29C14.76 11.29 15.05 11 15.05 10.64C15.05 10.28 14.76 9.99 14.4 9.99L7.7 9.99ZM7.7 12.99C7.34 12.99 7.05 13.28 7.05 13.64C7.05 14 7.34 14.29 7.7 14.29L10.91 14.29C11.27 14.29 11.56 14 11.56 13.64C11.56 13.28 11.27 12.99 10.91 12.99L7.7 12.99ZM14.3 18.57L13.46 17.74C13.56 19.4 14.93 20.71 16.62 20.71C18.36 20.71 19.78 19.29 19.78 17.54C19.78 15.79 18.36 14.38 16.62 14.38C16.25 14.38 15.9 14.44 15.58 14.55C15.24 14.67 14.87 14.49 14.75 14.15C14.63 13.81 14.81 13.44 15.15 13.32C15.61 13.16 16.1 13.08 16.62 13.08C19.08 13.08 21.08 15.08 21.08 17.54C21.08 20.01 19.08 22.01 16.62 22.01C14.28 22.01 12.36 20.21 12.16 17.92L11.5 18.6C11.25 18.86 10.83 18.86 10.58 18.61C10.32 18.36 10.32 17.95 10.57 17.69L12.42 15.81C12.67 15.55 13.08 15.55 13.34 15.8L15.22 17.65C15.47 17.9 15.48 18.31 15.22 18.57C14.97 18.82 14.56 18.83 14.3 18.57Z" fill="#717681" fill-opacity="1.000000" fill-rule="evenodd"/>
	</g>
</svg>
