<svg width="24" height="24" viewBox="0 0 24 24" fill="none" xmlns="http://www.w3.org/2000/svg">
<path fill-rule="evenodd" clip-rule="evenodd" d="M9.66357 3.03857C8.00672 3.03857 6.66357 4.38172 6.66357 6.03857V10.7114C6.66357 12.3683 8.00672 13.7114 9.66357 13.7114H14.3364C15.9933 13.7114 17.3364 12.3683 17.3364 10.7114V6.03857C17.3364 4.38172 15.9933 3.03857 14.3364 3.03857H9.66357ZM14.3364 4.33857H13V6.24065C13 6.79293 12.5523 7.24065 12 7.24065C11.4477 7.24065 11 6.79293 11 6.24065V4.33857H9.66357C8.72469 4.33857 7.96357 5.09969 7.96357 6.03857V10.7114C7.96357 11.6503 8.72469 12.4114 9.66357 12.4114H14.3364C15.2753 12.4114 16.0364 11.6503 16.0364 10.7114V6.03857C16.0364 5.09969 15.2753 4.33857 14.3364 4.33857Z" fill="#717681"/>
<path fill-rule="evenodd" clip-rule="evenodd" d="M5.99023 21C4.33877 21 3 19.6612 3 18.0098C3 16.3583 4.33877 15.0195 5.99023 15.0195H18.0098C19.6612 15.0195 21 16.3583 21 18.0098C21 19.6612 19.6612 21 18.0098 21H5.99023ZM4.3 18.0098C4.3 17.0763 5.05674 16.3195 5.99023 16.3195C6.92373 16.3195 7.68047 17.0763 7.68047 18.0098C7.68047 18.9433 6.92373 19.7 5.99023 19.7C5.05674 19.7 4.3 18.9433 4.3 18.0098ZM8.45728 16.3195H15.5427C15.2127 16.8003 15.0195 17.3825 15.0195 18.0098C15.0195 18.637 15.2127 19.2192 15.5427 19.7H8.45728C8.78733 19.2192 8.98047 18.637 8.98047 18.0098C8.98047 17.3825 8.78733 16.8003 8.45728 16.3195ZM16.3195 18.0098C16.3195 17.0763 17.0763 16.3195 18.0098 16.3195C18.9433 16.3195 19.7 17.0763 19.7 18.0098C19.7 18.9433 18.9433 19.7 18.0098 19.7C17.0763 19.7 16.3195 18.9433 16.3195 18.0098Z" fill="#717681"/>
</svg>
