<svg width="24.000000" height="24.000000" viewBox="0 0 24 24" fill="none" xmlns="http://www.w3.org/2000/svg" xmlns:xlink="http://www.w3.org/1999/xlink">
	<desc>
			Created with Pixso.
	</desc>
	<defs>
		<clipPath id="clip119372_761">
			<rect id="Outline / Service Request Outline" width="24.000000" height="24.000000" fill="white" fill-opacity="0"/>
		</clipPath>
	</defs>
	<g>
		<path id="Shape" d="M7 5C5.34 5 4 6.34 4 8L4 18.71C4 19.8 5.26 20.4 6.11 19.72L9.52 17L17 17C18.65 17 20 15.65 20 14L20 8C20 6.34 18.65 5 17 5L7 5ZM9.06 15.7L5.29 18.71L5.29 8C5.29 7.06 6.06 6.3 7 6.3L17 6.3C17.93 6.3 18.7 7.06 18.7 8L18.7 14C18.7 14.93 17.93 15.7 17 15.7L9.06 15.7ZM11.24 7.53C10.88 7.53 10.59 7.82 10.59 8.18C10.59 8.54 10.88 8.83 11.24 8.83L12.73 8.83C12.86 8.83 12.97 8.94 12.97 9.07C12.97 9.18 12.87 9.36 12.61 9.47C12.19 9.63 11.61 9.95 11.31 10.57C11.15 10.89 11.29 11.28 11.61 11.44C11.94 11.59 12.32 11.46 12.48 11.13C12.56 10.96 12.77 10.8 13.08 10.68C13.67 10.45 14.27 9.88 14.27 9.07C14.27 8.22 13.58 7.53 12.73 7.53L11.24 7.53ZM12.67 13.59C12.67 14.05 12.29 14.44 11.82 14.44C11.35 14.44 10.97 14.05 10.97 13.59C10.97 13.12 11.35 12.74 11.82 12.74C12.29 12.74 12.67 13.12 12.67 13.59Z" fill="#717681" fill-opacity="1.000000" fill-rule="evenodd"/>
	</g>
</svg>
