<svg width="24.000000" height="24.000000" viewBox="0 0 24 24" fill="none" xmlns="http://www.w3.org/2000/svg" xmlns:xlink="http://www.w3.org/1999/xlink">
	<desc>
			Created with Pixso.
	</desc>
	<defs>
		<clipPath id="clip17_350">
			<rect id="Outline / Shopping bag Outline" width="24.000000" height="24.000000" fill="white" fill-opacity="0"/>
		</clipPath>
	</defs>
	<g clip-path="url(#clip17_350)">
		<path id="Shape" d="M7.52 4L16.47 4C17.84 4 18.98 5.06 19.06 6.43L19.89 17.23C19.99 18.73 18.8 20 17.3 20L6.69 20C5.19 20 4 18.73 4.09 17.23L4.93 6.43C5.01 5.06 6.15 4 7.52 4ZM7.52 5.29L16.47 5.29C17.15 5.29 17.72 5.83 17.77 6.51L18.6 17.31C18.65 18.06 18.05 18.7 17.3 18.7L6.69 18.7C5.94 18.7 5.34 18.06 5.39 17.31L6.22 6.51C6.27 5.83 6.83 5.29 7.52 5.29ZM8.99 7C9.35 7 9.64 7.29 9.64 7.64L9.64 9.62L9.64 9.63C9.65 9.65 9.65 9.67 9.65 9.7C9.65 9.77 9.66 9.86 9.68 9.98C9.72 10.22 9.8 10.53 9.95 10.83C10.1 11.13 10.31 11.41 10.62 11.61C10.92 11.81 11.36 11.97 11.99 11.97C12.63 11.97 13.06 11.81 13.37 11.61C13.68 11.41 13.89 11.13 14.04 10.83C14.19 10.53 14.27 10.22 14.31 9.98C14.33 9.86 14.34 9.77 14.34 9.7C14.34 9.67 14.34 9.65 14.34 9.63L14.34 9.62L14.34 7.64C14.34 7.29 14.64 7 14.99 7C15.35 7 15.64 7.29 15.64 7.64L15.64 9.62L15.64 9.62L15.64 9.62L15.64 9.63L15.64 9.64C15.64 9.65 15.64 9.66 15.64 9.68C15.64 9.7 15.64 9.75 15.64 9.79C15.63 9.89 15.62 10.03 15.59 10.2C15.54 10.52 15.43 10.96 15.2 11.41C14.98 11.86 14.63 12.33 14.09 12.69C13.55 13.05 12.86 13.27 11.99 13.27C11.13 13.27 10.44 13.05 9.9 12.69C9.36 12.33 9.01 11.86 8.79 11.41C8.56 10.96 8.45 10.52 8.4 10.2C8.37 10.03 8.36 9.89 8.35 9.79C8.35 9.75 8.35 9.7 8.35 9.68C8.35 9.66 8.35 9.65 8.35 9.64L8.34 9.63L8.34 9.62L8.34 9.62L8.34 9.62L8.34 7.64C8.34 7.29 8.64 7 8.99 7Z" fill="#717681" fill-opacity="1.000000" fill-rule="evenodd"/>
	</g>
</svg>
