<svg width="24.000000" height="24.000000" viewBox="0 0 24 24" fill="none" xmlns="http://www.w3.org/2000/svg" xmlns:xlink="http://www.w3.org/1999/xlink">
	<desc>
			Created with Pixso.
	</desc>
	<defs>
		<clipPath id="clip17_377">
			<rect id="Outline / Shop cart Outline" width="24.000000" height="24.000000" fill="white" fill-opacity="0"/>
		</clipPath>
	</defs>
	<g>
		<path id="Shape" d="M2.35 3.99C2.35 3.64 2.64 3.34 3 3.34L3.93 3.34C5.15 3.34 6.21 4.17 6.5 5.35L7 7.34L20 7.34C20.2 7.34 20.4 7.44 20.52 7.61C20.64 7.78 20.68 7.99 20.62 8.19L18.55 14.79C18.21 15.89 17.18 16.65 16.02 16.65L10.06 16.65C8.84 16.65 7.78 15.82 7.49 14.64L5.24 5.67C5.09 5.07 4.55 4.64 3.93 4.64L3 4.64C2.64 4.64 2.35 4.35 2.35 3.99ZM7.33 8.64L8.75 14.32C8.9 14.92 9.44 15.35 10.06 15.35L16.02 15.35C16.62 15.35 17.14 14.96 17.31 14.4L19.11 8.64L7.33 8.64ZM7.35 19C7.35 18.08 8.08 17.35 9 17.35C9.91 17.35 10.64 18.08 10.64 19C10.64 19.91 9.91 20.65 9 20.65C8.08 20.65 7.35 19.91 7.35 19ZM15.35 19C15.35 18.08 16.08 17.35 17 17.35C17.91 17.35 18.64 18.08 18.64 19C18.64 19.91 17.91 20.65 17 20.65C16.08 20.65 15.35 19.91 15.35 19Z" fill="#717681" fill-opacity="1.000000" fill-rule="evenodd"/>
	</g>
</svg>
