<svg viewBox="0 0 24 24" xmlns="http://www.w3.org/2000/svg" xmlns:xlink="http://www.w3.org/1999/xlink" width="24.000000" height="24.000000" fill="none">
	<rect id="Outline/Source Outline" width="24.000000" height="24.000000" x="0.000000" y="0.000000" />
	<path id="Shape" d="M9.17665 7.99888C9.04665 7.85888 8.87665 7.78888 8.69665 7.78888C8.53665 7.78888 8.38665 7.83888 8.25665 7.95888L4.27352 11.5451C3.96352 11.8251 3.96352 12.3051 4.27352 12.5851L8.25275 16.0429C8.52275 16.2829 8.93275 16.2629 9.17275 16.0029C9.41275 15.7329 9.40275 15.3229 9.13275 15.0829L5.64351 12.0651L9.13665 8.91888C9.39665 8.67888 9.41665 8.26888 9.17665 7.99888ZM15.3397 16.2863C15.1597 16.2863 14.9897 16.2163 14.8597 16.0763C14.6197 15.8063 14.6397 15.3963 14.8997 15.1563L18.3928 12.01L14.9036 8.99219C14.6336 8.75219 14.6236 8.34219 14.8636 8.07219C15.1036 7.81219 15.5136 7.79219 15.7836 8.03219L19.7628 11.49C20.0728 11.77 20.0728 12.25 19.7628 12.53L15.7797 16.1163C15.6497 16.2363 15.4997 16.2863 15.3397 16.2863Z" fill="rgb(116,118,123)" fill-rule="evenodd" />
</svg>
