<svg width="24.000000" height="24.000000" viewBox="0 0 24 24" fill="none" xmlns="http://www.w3.org/2000/svg" xmlns:xlink="http://www.w3.org/1999/xlink">
	<desc>
			Created with Pixso.
	</desc>
	<defs>
		<clipPath id="clip17_365">
			<rect id="Solid / Store Solid" width="24.000000" height="24.000000" fill="white" fill-opacity="0"/>
		</clipPath>
	</defs>
	<g>
		<path id="Shape" d="M6.1 3.99C5.55 3.99 5.06 4.34 4.87 4.86L3.24 9.53L3.23 9.88C3.43 11.13 4.41 12 5.7 12C6.72 12 7.9 11.1 8.09 10.41C8.25 11.11 8.93 12.03 10.07 12.03C11.22 12.03 11.83 11.11 11.97 10.41C12.15 11.1 13 12.03 13.93 12.03C14.93 12.03 15.72 11.19 15.85 10.41C16.04 11.18 17.4 11.99 18.45 11.99C19.5 11.99 20.56 11.25 20.76 9.88L20.75 9.53L19.12 4.86C18.93 4.34 18.44 3.99 17.89 3.99L6.1 3.99ZM5 13.95C5 13.58 5.33 13.3 5.7 13.3C6.46 13.3 7.14 13.06 7.69 12.72C7.85 12.63 8.05 12.64 8.2 12.74C8.69 13.1 9.32 13.33 10.07 13.33C10.75 13.33 11.31 13.14 11.77 12.85C11.92 12.76 12.12 12.75 12.27 12.85C12.73 13.13 13.29 13.33 13.93 13.33C14.66 13.33 15.29 13.07 15.77 12.72C15.92 12.61 16.11 12.6 16.27 12.69C16.93 13.07 17.69 13.29 18.45 13.29C18.74 13.29 19 13.51 19 13.8L19 19.7C19 20.41 18.41 21 17.7 21L15.29 21C14.58 21 14 20.41 14 19.7L14 17.27C14 16.55 13.41 15.97 12.7 15.97L11.29 15.97C10.58 15.97 10 16.55 10 17.27L10 19.7C10 20.41 9.41 20.99 8.7 21L6.29 21C5.58 21 5 20.41 5 19.7L5 13.95Z" fill="#717681" fill-opacity="1.000000" fill-rule="evenodd"/>
	</g>
</svg>
