<svg width="24.000000" height="24.000000" viewBox="0 0 24 24" fill="none" xmlns="http://www.w3.org/2000/svg" xmlns:xlink="http://www.w3.org/1999/xlink">
	<desc>
			Created with Pixso.
	</desc>
	<defs>
		<clipPath id="clip119372_756">
			<rect id="Solid / Strim Solid" width="24.000000" height="24.000000" fill="white" fill-opacity="0"/>
		</clipPath>
	</defs>
	<g clip-path="url(#clip119372_756)">
		<path id="Shape" d="M19.62 13.9C19.67 13.56 19.7 13.2 19.7 12.84C19.7 9.64 17.7 6.9 14.88 5.76C14.83 4.23 13.56 3 11.99 3C10.43 3 9.15 4.23 9.1 5.76C6.28 6.9 4.29 9.64 4.29 12.84C4.29 13.2 4.31 13.56 4.36 13.9C3.54 14.41 3 15.31 3 16.34C3 17.92 4.29 19.2 5.89 19.2C6.38 19.2 6.84 19.08 7.25 18.86C8.56 19.88 10.21 20.48 11.99 20.48C13.78 20.48 15.43 19.88 16.74 18.86C17.14 19.08 17.61 19.2 18.1 19.2C19.7 19.2 20.99 17.92 20.99 16.34C20.99 15.31 20.44 14.41 19.62 13.9ZM14.62 7.06C14.16 8.04 13.16 8.72 11.99 8.72C10.83 8.72 9.83 8.04 9.37 7.06C7.14 8.05 5.59 10.27 5.59 12.84C5.59 13.06 5.6 13.27 5.62 13.49C5.71 13.48 5.8 13.47 5.89 13.47C7.48 13.47 8.78 14.76 8.78 16.34C8.78 16.95 8.58 17.52 8.25 17.99C9.3 18.74 10.59 19.18 11.99 19.18C13.39 19.18 14.68 18.74 15.74 17.99C15.41 17.52 15.21 16.95 15.21 16.34C15.21 14.76 16.5 13.47 18.1 13.47C18.19 13.47 18.28 13.48 18.36 13.49C18.39 13.27 18.4 13.06 18.4 12.84C18.4 10.27 16.85 8.05 14.62 7.06Z" fill="#74767B" fill-opacity="1.000000" fill-rule="evenodd"/>
	</g>
</svg>
