<svg width="24.000000" height="24.000000" viewBox="0 0 24 24" fill="none" xmlns="http://www.w3.org/2000/svg" xmlns:xlink="http://www.w3.org/1999/xlink">
	<desc>
			Created with Pixso.
	</desc>
	<defs>
		<clipPath id="clip17_290">
			<rect id="Outline / Study Outline" width="24.000000" height="24.000000" fill="white" fill-opacity="0"/>
		</clipPath>
	</defs>
	<g >
		<path id="Shape" d="M2.71 10.24C1.78 9.76 1.77 8.42 2.7 7.93L10.59 3.74C11.47 3.27 12.52 3.27 13.4 3.74L21.29 7.93C21.67 8.13 21.9 8.48 21.96 8.84C21.98 8.91 22 8.97 22 9.04L22.02 15.34C22.02 15.7 21.73 15.99 21.37 15.99C21.01 15.99 20.72 15.7 20.72 15.34L20.7 10.53L18.62 11.6L18.62 15.86C18.62 16.76 18.22 17.62 17.53 18.2C14.32 20.89 9.63 20.89 6.42 18.2C5.73 17.62 5.32 16.76 5.32 15.86L5.32 11.58L2.71 10.24ZM3.31 9.08L11.2 4.89C11.7 4.63 12.29 4.63 12.79 4.89L20.68 9.08L12.77 13.14C12.28 13.39 11.71 13.39 11.22 13.14L3.31 9.08ZM6.62 12.24L6.62 15.86C6.62 16.38 6.85 16.87 7.25 17.2C9.99 19.49 13.96 19.49 16.7 17.2C17.09 16.87 17.32 16.38 17.32 15.86L17.32 12.26L13.36 14.29C12.5 14.73 11.49 14.73 10.63 14.29L6.62 12.24Z" fill="#74767B" fill-opacity="1.000000" fill-rule="evenodd"/>
	</g>
</svg>
