<svg width="24" height="24" viewBox="0 0 24 24" fill="none" xmlns="http://www.w3.org/2000/svg">
<path fill-rule="evenodd" clip-rule="evenodd" d="M20.1674 19.2476L21.8043 20.8845C22.0582 21.1383 22.0582 21.5499 21.8044 21.8037C21.5505 22.0576 21.139 22.0576 20.8851 21.8037L19.2494 20.168C18.7393 20.5058 18.1277 20.7024 17.4701 20.7024C15.6878 20.7024 14.243 19.2576 14.243 17.4753C14.243 15.693 15.6878 14.2481 17.4701 14.2481C19.2524 14.2481 20.6973 15.693 20.6973 17.4753C20.6973 18.1299 20.5024 18.7389 20.1674 19.2476ZM15.543 17.4753C15.543 18.5396 16.4058 19.4024 17.4701 19.4024C18.5344 19.4024 19.3973 18.5396 19.3973 17.4753C19.3973 16.4109 18.5344 15.5481 17.4701 15.5481C16.4058 15.5481 15.543 16.4109 15.543 17.4753Z" fill="#717681"/>
<path fill-rule="evenodd" clip-rule="evenodd" d="M20 13.1497C20 13.39 19.7283 13.5369 19.5139 13.4283C18.9002 13.1177 18.2062 12.9426 17.4713 12.9426C14.9702 12.9426 12.9426 14.9702 12.9426 17.4713C12.9426 18.2062 13.1177 18.9002 13.4283 19.5139C13.5369 19.7283 13.39 20 13.1497 20H7C5.34315 20 4 18.6569 4 17V7C4 5.34315 5.34315 4 7 4H17C18.6569 4 20 5.34315 20 7V13.1497ZM11.3761 11.35C11.7351 11.35 12.0261 11.641 12.0261 12C12.0261 12.359 11.7351 12.65 11.3761 12.65L8.67197 12.65C8.31299 12.65 8.02197 12.359 8.02197 12C8.02197 11.641 8.31299 11.35 8.67197 11.35L11.3761 11.35ZM15.3568 7.8401C15.7158 7.8401 16.0068 8.13111 16.0068 8.49009C16.0068 8.84908 15.7158 9.14009 15.3568 9.14009L8.67227 9.14009C8.31329 9.14009 8.02227 8.84908 8.02227 8.49009C8.02227 8.13111 8.31329 7.84009 8.67227 7.84009L15.3568 7.8401Z" fill="#717681"/>
</svg>
