<svg width="24.000000" height="24.000000" viewBox="0 0 24 24" fill="none" xmlns="http://www.w3.org/2000/svg" xmlns:xlink="http://www.w3.org/1999/xlink">
	<desc>
			Created with Pixso.
	</desc>
	<defs>
		<clipPath id="clip106725_888">
			<rect id="Outline / Tester AT Outline" width="24.000000" height="24.000000" fill="white" fill-opacity="0"/>
		</clipPath>
	</defs>
	<g>
		<path id="Shape" d="M19.09 13.24C19.5 13.39 20 13.12 20 12.68L20 7C20 5.34 18.65 4 17 4L7 4C5.34 4 4 5.34 4 7L4 17C4 18.65 5.34 20 7 20L12.68 20C13.12 20 13.39 19.5 13.24 19.09C13.15 18.86 12.94 18.7 12.69 18.7L7 18.7C6.06 18.7 5.3 17.93 5.3 17L5.3 7C5.3 6.06 6.06 5.3 7 5.3L17 5.3C17.93 5.3 18.7 6.06 18.7 7L18.7 12.69C18.7 12.94 18.86 13.15 19.09 13.24ZM20.16 19.24L21.8 20.88C22.05 21.13 22.05 21.54 21.8 21.8C21.55 22.05 21.13 22.05 20.88 21.8L19.24 20.16C18.73 20.5 18.12 20.7 17.47 20.7C15.68 20.7 14.24 19.25 14.24 17.47C14.24 16.62 14.57 15.85 15.1 15.27L14.77 14.6L9.27 14.6L8.21 16.73C8.05 17.05 7.66 17.18 7.34 17.02C7.02 16.86 6.89 16.47 7.05 16.15L11.42 7.33C11.54 7.1 11.78 6.97 12.02 6.97C12.26 6.97 12.5 7.1 12.61 7.33L12.59 7.34C12.61 7.33 12.61 7.33 12.61 7.33L16.18 14.51C16.57 14.34 17.01 14.24 17.47 14.24C19.25 14.24 20.69 15.69 20.69 17.47C20.69 18.12 20.5 18.73 20.16 19.24ZM12.02 9.06L14.12 13.3L9.91 13.3L12.02 9.06ZM15.54 17.47C15.54 18.53 16.4 19.4 17.47 19.4C18.53 19.4 19.39 18.53 19.39 17.47C19.39 16.41 18.53 15.54 17.47 15.54C16.4 15.54 15.54 16.41 15.54 17.47Z" fill="#717681" fill-opacity="1.000000" fill-rule="evenodd"/>
	</g>
</svg>
