<svg width="24" height="24" viewBox="0 0 24 24" fill="none" xmlns="http://www.w3.org/2000/svg">
<path d="M15.052 15.735C17.8163 15.7042 20.0004 15.2723 20.0004 12.1251C20.0004 9.73973 17.198 5.60641 15.663 3.52125C15.1711 2.85308 14.1995 2.85311 13.7077 3.52132C13.2553 4.13598 12.6927 4.9286 12.1243 5.80196C11.9241 6.10961 12.0063 6.51569 12.2758 6.76484C13.4037 7.80721 14.11 9.29915 14.11 10.956C14.11 12.2803 13.6588 13.4992 12.9019 14.4674C12.5389 14.9316 12.7247 15.6622 13.3128 15.7001C13.4569 15.7094 13.6034 15.7166 13.7521 15.722C13.752 15.726 13.752 15.73 13.752 15.734V17.7515C13.752 18.1105 14.043 18.4015 14.402 18.4015C14.7609 18.4015 15.052 18.1105 15.052 17.7515V15.735Z" fill="#717681"/>
<path d="M12.8099 10.9561C12.8099 13.168 11.1795 14.9992 9.05488 15.3134V17.7519C9.05488 18.1108 8.76387 18.4019 8.40488 18.4019C8.0459 18.4019 7.75488 18.1108 7.75488 17.7519V15.3134C5.63033 14.9991 4 13.168 4 10.9561C4 8.52326 5.97217 6.55109 8.40496 6.55109C10.8378 6.55109 12.8099 8.52326 12.8099 10.9561Z" fill="#717681"/>
<path d="M4.00024 20.3517C4.00024 19.9927 4.29126 19.7017 4.65024 19.7017H19.3502C19.7092 19.7017 20.0002 19.9927 20.0002 20.3517C20.0002 20.7106 19.7092 21.0017 19.3502 21.0017H4.65024C4.29126 21.0017 4.00024 20.7106 4.00024 20.3517Z" fill="#717681"/>
</svg>
