<svg width="24.000000" height="24.000000" viewBox="0 0 24 24" fill="none" xmlns="http://www.w3.org/2000/svg" xmlns:xlink="http://www.w3.org/1999/xlink">
	<desc>
			Created with Pixso.
	</desc>
	<defs>
		<clipPath id="clip5913_800">
			<rect id="Outline / Trees Outline" width="24.000000" height="24.000000" fill="white" fill-opacity="0"/>
		</clipPath>
	</defs>
	<g>
		<path id="Shape" d="M20 12.12C20 15.27 17.81 15.7 15.05 15.73L15.05 17.75C15.05 18.11 14.76 18.4 14.4 18.4C14.04 18.4 13.75 18.11 13.75 17.75L13.75 15.73L13.75 15.72C12.4 15.67 11.24 15.48 10.44 14.85C10.02 15.08 9.55 15.23 9.05 15.31L9.05 17.75C9.05 18.11 8.76 18.4 8.4 18.4C8.04 18.4 7.75 18.11 7.75 17.75L7.75 15.31C5.63 14.99 4 13.16 4 10.95C4 8.52 5.97 6.55 8.4 6.55C9.41 6.55 10.35 6.89 11.09 7.47C11.96 5.96 12.97 4.51 13.7 3.52C14.19 2.85 15.17 2.85 15.66 3.52C17.19 5.6 20 9.73 20 12.12ZM12.03 8.45C12.87 6.94 13.91 5.43 14.68 4.38C15.43 5.4 16.44 6.86 17.27 8.34C17.7 9.1 18.06 9.85 18.32 10.52C18.58 11.22 18.7 11.75 18.7 12.12C18.7 12.79 18.57 13.2 18.44 13.45C18.31 13.68 18.12 13.86 17.85 14C17.2 14.33 16.18 14.43 14.68 14.43C13.67 14.43 12.85 14.39 12.2 14.24C11.94 14.18 11.73 14.11 11.56 14.02C12.33 13.23 12.81 12.15 12.81 10.95C12.81 10.02 12.52 9.16 12.03 8.45ZM11.5 10.95C11.5 12.67 10.11 14.06 8.4 14.06C6.68 14.06 5.29 12.67 5.29 10.95C5.29 9.24 6.68 7.85 8.4 7.85C10.11 7.85 11.5 9.24 11.5 10.95ZM4 20.35C4 19.99 4.29 19.7 4.65 19.7L19.35 19.7C19.7 19.7 20 19.99 20 20.35C20 20.71 19.7 21 19.35 21L4.65 21C4.29 21 4 20.71 4 20.35Z" fill="#717681" fill-opacity="1.000000" fill-rule="evenodd"/>
	</g>
</svg>
