<svg width="24.000000" height="24.000000" viewBox="0 0 24 24" fill="none" xmlns="http://www.w3.org/2000/svg" xmlns:xlink="http://www.w3.org/1999/xlink">
	<desc>
			Created with Pixso.
	</desc>
	<defs>
		<clipPath id="clip17_490">
			<rect id="Solid / Typography Solid" width="24.000000" height="24.000000" fill="white" fill-opacity="0"/>
		</clipPath>
	</defs>
	<g >
		<path id="Shape" d="M4.3 19.08C4.15 19.53 4.49 20 4.96 20L8.15 20C8.46 20 8.74 19.79 8.82 19.48L9.46 17.2C9.5 17.07 9.62 16.98 9.75 16.98L13.98 16.98C14.12 16.98 14.23 17.07 14.27 17.19L14.93 19.49C15.02 19.79 15.29 20 15.6 20L19.03 20C19.5 20 19.84 19.53 19.69 19.08L14.86 4.48C14.77 4.19 14.5 4 14.2 4L9.79 4C9.49 4 9.23 4.19 9.13 4.48L4.3 19.08ZM11.59 9.82C11.67 9.53 12.08 9.53 12.17 9.82L13.23 13.51C13.28 13.7 13.14 13.89 12.94 13.89L10.82 13.89C10.62 13.89 10.47 13.7 10.53 13.51L11.59 9.82Z" fill="#74767B" fill-opacity="1.000000" fill-rule="evenodd"/>
	</g>
</svg>
