<svg width="24.000000" height="24.000000" viewBox="0 0 24 24" fill="none" xmlns="http://www.w3.org/2000/svg" xmlns:xlink="http://www.w3.org/1999/xlink">
	<desc>
			Created with Pixso.
	</desc>
	<defs>
		<clipPath id="clip17_577">
			<rect id="Outline / USB Outline" width="24.000000" height="24.000000" transform="matrix(1 -6.12324e-17 -6.12324e-17 -1 0 24)" fill="white" fill-opacity="0"/>
		</clipPath>
	</defs>
	<g>
		<path id="Shape" d="M9.84 6.24C10.32 5.76 11.08 5.73 11.59 6.16L15.08 2.66C15.59 2.15 16.41 2.15 16.92 2.66L21.38 7.12C21.89 7.63 21.89 8.45 21.38 8.96L17.89 12.46C18.31 12.97 18.29 13.73 17.81 14.21L10.85 21.17C9.68 22.34 7.78 22.34 6.61 21.17L2.88 17.44C1.71 16.27 1.71 14.37 2.88 13.2L9.84 6.24ZM20.46 8.04L16 3.58L12.54 7.04L17 11.5L20.46 8.04ZM14.77 7.45C14.52 7.19 14.52 6.78 14.77 6.53L15.49 5.81C15.74 5.56 16.15 5.56 16.41 5.81C16.66 6.06 16.66 6.47 16.41 6.73L15.69 7.45C15.43 7.7 15.02 7.7 14.77 7.45ZM16.89 13.29L10.76 7.16L3.8 14.11C3.13 14.78 3.13 15.86 3.8 16.52L7.53 20.25C8.19 20.91 9.27 20.91 9.93 20.25L16.89 13.29ZM16.6 8.36C16.35 8.61 16.35 9.02 16.6 9.28C16.85 9.53 17.27 9.53 17.52 9.28L18.24 8.56C18.49 8.3 18.49 7.89 18.24 7.64C17.98 7.39 17.57 7.39 17.32 7.64L16.6 8.36Z" fill="#717681" fill-opacity="1.000000" fill-rule="evenodd"/>
	</g>
</svg>
