<svg width="24" height="24" viewBox="0 0 24 24" fill="none" xmlns="http://www.w3.org/2000/svg">
<path d="M10.7748 7.14873C10.2671 6.64105 9.444 6.64104 8.93632 7.14873L2.88454 13.2005C1.71297 14.3721 1.71297 16.2716 2.88454 17.4431L6.61173 21.1703C7.78331 22.3419 9.6828 22.3419 10.8544 21.1703L16.9062 15.1186C17.4138 14.6109 17.4138 13.7878 16.9062 13.2801L10.7748 7.14873Z" fill="#717681"/>
<path fill-rule="evenodd" clip-rule="evenodd" d="M12.1032 6.64264C11.8298 6.36927 11.8298 5.92605 12.1032 5.65269L15.0886 2.66726C15.5963 2.15958 16.4194 2.15958 16.9271 2.66726L21.3875 7.12762C21.8952 7.6353 21.8952 8.45842 21.3875 8.9661L18.4021 11.9515C18.1287 12.2249 17.6855 12.2249 17.4121 11.9515L12.1032 6.64264ZM15.2245 7.00036C14.9707 6.74652 14.9707 6.33497 15.2245 6.08113L15.9414 5.36427C16.1952 5.11043 16.6068 5.11043 16.8606 5.36427C17.1145 5.61811 17.1145 6.02967 16.8606 6.28351L16.1438 7.00036C15.8899 7.25421 15.4784 7.25421 15.2245 7.00036ZM17.0544 7.91104C16.8005 8.16488 16.8005 8.57643 17.0544 8.83028C17.3082 9.08412 17.7197 9.08412 17.9736 8.83028L18.6904 8.11342C18.9443 7.85958 18.9443 7.44802 18.6904 7.19418C18.4366 6.94034 18.025 6.94034 17.7712 7.19418L17.0544 7.91104Z" fill="#717681"/>
</svg>
