<svg width="24" height="24" viewBox="0 0 24 24" fill="none" xmlns="http://www.w3.org/2000/svg">
<path fill-rule="evenodd" clip-rule="evenodd" d="M13.2037 3.12439C11.699 3.52756 10.931 4.31471 10.5456 5.08758C10.1601 4.31472 9.39216 3.52758 7.88751 3.12441C5.45186 2.47178 4.21563 3.66392 3.67998 4.4753C3.45718 4.81278 3.66764 5.22535 4.05825 5.33001L7.76581 6.32345C7.19168 6.4753 6.5746 6.80908 5.95226 7.43141C4.27921 9.10447 4.71261 10.7186 5.15202 11.5699C5.3371 11.9285 5.79883 11.9509 6.08416 11.6655L9.3025 8.4472C9.22257 9.62487 9.30268 10.9396 9.45298 12.3309C9.56 13.3217 9.78594 14.3064 10.1195 15.2323C8.06608 15.7584 6.34984 17.1263 5.36023 18.9464L5.36025 18.9464C4.93597 18.74 4.48776 18.4831 4.01264 18.1675C3.71361 17.9689 3.31018 18.0503 3.11156 18.3493C2.91293 18.6483 2.99433 19.0518 3.29336 19.2504C5.37766 20.6349 7.12431 21.0711 8.69391 20.9684C10.2368 20.8675 11.535 20.2459 12.6847 19.688L12.7276 19.6672C13.8948 19.1007 14.8931 18.6161 15.9998 18.5379C17.0755 18.462 18.334 18.7717 19.9681 20.025C20.253 20.2435 20.661 20.1897 20.8795 19.9049C21.098 19.62 21.0442 19.212 20.7593 18.9935C19.5706 18.0818 18.4925 17.5706 17.4813 17.3534C16.105 15.9017 14.1581 14.9963 11.9998 14.9963C11.8071 14.9963 11.616 15.0036 11.4269 15.0177C11.086 14.1354 10.8516 13.1734 10.7455 12.1913C10.5106 10.017 10.484 8.26584 10.8485 6.9806C10.8791 6.97667 10.91 6.97062 10.9409 6.96234L17.0329 5.32999C17.4235 5.22532 17.634 4.81276 17.4112 4.47527C16.8755 3.66389 15.6393 2.47176 13.2037 3.12439ZM19.577 10.8404C19.577 12.4978 18.2334 13.8414 16.576 13.8414C14.9185 13.8414 13.575 12.4978 13.575 10.8404C13.575 9.18298 14.9185 7.83939 16.576 7.83939C18.2334 7.83939 19.577 9.18298 19.577 10.8404Z" fill="#717681"/>
</svg>
