<svg width="24.000000" height="24.000000" viewBox="0 0 24 24" fill="none" xmlns="http://www.w3.org/2000/svg" xmlns:xlink="http://www.w3.org/1999/xlink">
	<desc>
			Created with Pixso.
	</desc>
	<defs>
		<clipPath id="clip17_335">
			<rect id="Solid / Vacation Solid" width="24.000000" height="24.000000" fill="white" fill-opacity="0"/>
		</clipPath>
	</defs>
	<g>
		<path id="Shape" d="M13.2 3.12C11.69 3.52 10.93 4.31 10.54 5.08C10.16 4.31 9.39 3.52 7.88 3.12C5.45 2.47 4.21 3.66 3.68 4.47C3.45 4.81 3.66 5.22 4.05 5.33L7.76 6.32C7.19 6.47 6.57 6.8 5.95 7.43C4.27 9.1 4.71 10.71 5.15 11.56C5.33 11.92 5.79 11.95 6.08 11.66L9.3 8.44C9.22 9.62 9.3 10.93 9.45 12.33C9.56 13.32 9.78 14.3 10.11 15.23C8.06 15.75 6.34 17.12 5.36 18.94L5.36 18.94C4.93 18.74 4.48 18.48 4.01 18.16C3.71 17.96 3.31 18.05 3.11 18.34C2.91 18.64 2.99 19.05 3.29 19.25C5.37 20.63 7.12 21.07 8.69 20.96C10.23 20.86 11.53 20.24 12.68 19.68L12.72 19.66C13.89 19.1 14.89 18.61 16 18.53C17.07 18.46 18.33 18.77 19.96 20.02C20.25 20.24 20.66 20.18 20.87 19.9C21.09 19.62 21.04 19.21 20.75 18.99C19.57 18.08 18.49 17.57 17.48 17.35C16.1 15.9 14.15 14.99 12 14.99C11.8 14.99 11.61 15 11.42 15.01C11.08 14.13 10.85 13.17 10.74 12.19C10.51 10.01 10.48 8.26 10.84 6.98C10.87 6.97 10.91 6.97 10.94 6.96L17.03 5.33C17.42 5.22 17.63 4.81 17.41 4.47C16.87 3.66 15.63 2.47 13.2 3.12ZM19.57 10.84C19.57 12.49 18.23 13.84 16.57 13.84C14.91 13.84 13.57 12.49 13.57 10.84C13.57 9.18 14.91 7.83 16.57 7.83C18.23 7.83 19.57 9.18 19.57 10.84Z" fill="#717681" fill-opacity="1.000000" fill-rule="evenodd"/>
	</g>
</svg>
