<svg width="24.000000" height="24.000000" viewBox="0 0 24 24" fill="none" xmlns="http://www.w3.org/2000/svg" xmlns:xlink="http://www.w3.org/1999/xlink">
	<desc>
			Created with Pixso.
	</desc>
	<defs>
		<clipPath id="clip1763_654">
			<rect id="Solid / Vote Solid" width="24.000000" height="24.000000" fill="white" fill-opacity="0"/>
		</clipPath>
	</defs>
	<g>
		<path id="Shape" d="M14.1 3.58C13.6 3.07 12.77 3.07 12.27 3.58L6.64 9.2C6.13 9.71 6.13 10.53 6.64 11.04L9.94 14.35L13.79 14.35L18.41 9.72C18.92 9.22 18.92 8.39 18.41 7.89L14.1 3.58ZM15.56 7.62C15.81 7.87 15.82 8.28 15.57 8.53L12.62 11.57C12.5 11.7 12.34 11.77 12.16 11.77C11.99 11.77 11.82 11.71 11.7 11.59L9.64 9.56C9.38 9.31 9.38 8.9 9.63 8.64C9.88 8.39 10.29 8.38 10.55 8.64L12.14 10.2L14.64 7.63C14.89 7.37 15.3 7.37 15.56 7.62ZM4.17 10.97C4.24 10.78 4.48 10.74 4.63 10.89L7.58 13.83C7.77 14.02 7.63 14.35 7.37 14.35L6 14.35C5.64 14.35 5.35 14.64 5.35 15C5.35 15.35 5.64 15.65 6 15.65L18 15.65C18.35 15.65 18.64 15.35 18.64 15C18.64 14.64 18.35 14.35 18 14.35L16.26 14.35C15.99 14.35 15.85 14.02 16.05 13.83L19.28 10.67C19.41 10.54 19.64 10.57 19.72 10.74C19.9 11.12 20 11.55 20 12L20 18C20 19.65 18.65 21 17 21L7 21C5.34 21 4 19.65 4 18L4 12C4 11.63 4.06 11.29 4.17 10.97Z" fill="#717681" fill-opacity="1.000000" fill-rule="evenodd"/>
	</g>
</svg>
