<svg width="24.000000" height="24.000000" viewBox="0 0 24 24" fill="none" xmlns="http://www.w3.org/2000/svg" xmlns:xlink="http://www.w3.org/1999/xlink">
	<desc>
			Created with Pixso.
	</desc>
	<defs>
		<clipPath id="clip132800_748">
			<rect id="Solid / Webhook Solid" width="24.000000" height="24.000000" transform="matrix(1 -6.12324e-17 -6.12324e-17 -1 0 24)" fill="white" fill-opacity="0"/>
		</clipPath>
	</defs>
	<g >
		<path id="Shape" d="M8.02 17.4C9.14 17.4 10.05 16.49 10.05 15.37C10.05 14.85 9.86 14.38 9.54 14.02L10.38 12.58C10.65 12.11 10.47 11.56 10.08 11.29C8.66 10.33 8.21 8.41 9.08 6.9C10 5.32 12.02 4.78 13.61 5.69C14.6 6.26 15.18 7.26 15.26 8.32C15.28 8.68 15.59 8.95 15.95 8.92C16.31 8.9 16.58 8.59 16.55 8.23C16.45 6.76 15.63 5.36 14.26 4.56C12.05 3.29 9.23 4.05 7.96 6.25C6.79 8.27 7.32 10.79 9.1 12.19L8.41 13.38C8.28 13.35 8.15 13.34 8.02 13.34C6.9 13.34 6 14.25 6 15.37C6 16.49 6.9 17.4 8.02 17.4ZM13.56 9.88C13.85 9.53 14.02 9.08 14.02 8.59C14.02 7.47 13.11 6.56 12 6.56C10.88 6.56 9.97 7.47 9.97 8.59C9.97 9.71 10.88 10.62 12 10.62C12.15 10.62 12.31 10.6 12.46 10.56L13.29 12C13.56 12.46 14.12 12.58 14.55 12.38C16.09 11.63 17.98 12.2 18.85 13.71C19.77 15.29 19.22 17.32 17.64 18.23C16.65 18.8 15.49 18.81 14.54 18.34C14.21 18.19 13.82 18.32 13.67 18.65C13.51 18.97 13.65 19.36 13.97 19.51C15.3 20.16 16.91 20.15 18.29 19.36C20.49 18.08 21.25 15.26 19.98 13.06C18.81 11.04 16.36 10.24 14.26 11.08L13.56 9.88ZM6.17 12.66C6.46 12.46 6.54 12.05 6.34 11.75C6.14 11.46 5.73 11.38 5.44 11.58C4.22 12.41 3.41 13.81 3.41 15.4C3.41 17.95 5.48 20.01 8.02 20.01C10.35 20.01 12.27 18.29 12.59 16.05L14.03 16.05C14.31 16.83 15.06 17.4 15.94 17.4C17.06 17.4 17.97 16.49 17.97 15.37C17.97 14.25 17.06 13.34 15.94 13.34C15.03 13.34 14.27 13.93 14.01 14.75L12.29 14.75C11.75 14.75 11.36 15.18 11.33 15.65C11.2 17.36 9.77 18.71 8.02 18.71C6.19 18.71 4.71 17.23 4.71 15.4C4.71 14.26 5.29 13.25 6.17 12.66Z" fill="#74767B" fill-opacity="1.000000" fill-rule="evenodd"/>
	</g>
</svg>
