<svg width="24" height="24" viewBox="0 0 24 24" fill="none" xmlns="http://www.w3.org/2000/svg">
<path d="M6.17084 12.6618C6.46786 12.4602 6.54521 12.056 6.3436 11.759C6.14199 11.462 5.73777 11.3846 5.44074 11.5862C4.22017 12.4147 3.41602 13.8157 3.41602 15.4048C3.41602 17.9521 5.48102 20.0171 8.02833 20.0171C10.3551 20.0171 12.279 18.2946 12.5951 16.0548H14.0327C14.3126 16.8395 15.0623 17.4012 15.9431 17.4012C17.063 17.4012 17.9709 16.4933 17.9709 15.3734C17.9709 14.2536 17.063 13.3457 15.9431 13.3457C15.039 13.3457 14.2731 13.9375 14.0115 14.7548H12.2906C11.7539 14.7548 11.3667 15.1835 11.3313 15.6563C11.2031 17.3678 9.773 18.7171 8.02833 18.7171C6.19899 18.7171 4.71602 17.2341 4.71602 15.4048C4.71602 14.2646 5.2915 13.2587 6.17084 12.6618Z" fill="#717681"/>
<path d="M8.02833 17.4012C9.14822 17.4012 10.0561 16.4933 10.0561 15.3734C10.0561 14.856 9.86222 14.3838 9.54319 14.0255L10.385 12.5837C10.6565 12.1185 10.4793 11.5661 10.0865 11.2982C8.66914 10.3312 8.2161 8.41858 9.08823 6.90801C10.0029 5.32375 12.0287 4.78095 13.6129 5.69562C14.6003 6.26569 15.1837 7.26704 15.261 8.327C15.2871 8.68504 15.5985 8.95413 15.9565 8.92805C16.3145 8.90196 16.5836 8.59057 16.5575 8.23253C16.4503 6.76124 15.6391 5.36431 14.2629 4.56978C12.0569 3.29613 9.23605 4.05197 7.9624 6.25801C6.79953 8.27215 7.32835 10.7982 9.10813 12.1923L8.4134 13.3822C8.28873 13.3583 8.15999 13.3457 8.02833 13.3457C6.90844 13.3457 6.00059 14.2536 6.00059 15.3734C6.00059 16.4933 6.90844 17.4012 8.02833 17.4012Z" fill="#717681"/>
<path d="M14.0277 8.5936C14.0277 9.08228 13.8549 9.53059 13.567 9.88071L14.2663 11.0889C16.3642 10.2424 18.8182 11.0472 19.9817 13.0624C21.2554 15.2685 20.4995 18.0893 18.2935 19.363C16.9174 20.1575 15.3019 20.1616 13.9742 19.5188C13.6511 19.3624 13.5159 18.9736 13.6724 18.6505C13.8288 18.3274 14.2175 18.1923 14.5406 18.3487C15.4972 18.8118 16.6561 18.8072 17.6435 18.2371C19.2278 17.3225 19.7706 15.2967 18.8559 13.7124C17.9835 12.2014 16.0998 11.6376 14.5534 12.3825C14.1267 12.5881 13.5622 12.4676 13.2935 12.0034L12.4629 10.5683C12.3142 10.603 12.1592 10.6213 12 10.6213C10.8801 10.6213 9.97227 9.71349 9.97227 8.5936C9.97227 7.47371 10.8801 6.56586 12 6.56586C13.1199 6.56586 14.0277 7.47371 14.0277 8.5936Z" fill="#717681"/>
</svg>
