<svg width="24" height="24" viewBox="0 0 24 24" fill="none" xmlns="http://www.w3.org/2000/svg">
<path d="M10.9999 3.01562C9.53631 3.01562 8.34987 4.20207 8.34987 5.66563C8.34987 6.02461 8.64088 6.31563 8.99987 6.31563C9.35885 6.31563 9.64987 6.02461 9.64987 5.66563C9.64987 4.92004 10.2543 4.31563 10.9999 4.31563H12.9999C13.7455 4.31563 14.3499 4.92004 14.3499 5.66563C14.3499 6.02461 14.6409 6.31563 14.9999 6.31563C15.3589 6.31563 15.6499 6.02461 15.6499 5.66563C15.6499 4.20207 14.4634 3.01562 12.9999 3.01562H10.9999Z" fill="#717681"/>
<path d="M2.99512 10.4668C2.99512 8.80684 4.33512 7.46684 5.99512 7.46684L17.9991 7.46683C19.6491 7.46683 20.9991 8.80683 20.9991 10.4668L20.9988 12.037C20.9988 12.5697 20.782 13.0794 20.3984 13.4489C20.0331 13.8006 19.5458 13.9971 19.0388 13.9971H4.96808C4.45725 13.9971 3.96632 13.799 3.59853 13.4445C3.22326 13.0828 3.00676 12.5877 2.99512 12.0678V10.4668Z" fill="#717681"/>
<path d="M19.6754 15.2911C20.2523 15.2679 20.9991 15.726 20.9991 16.3033V16.9989C20.9991 18.6589 19.6591 19.9989 17.9991 19.9989H5.99512C4.33512 19.9989 2.99512 18.6589 2.99512 16.9989V16.3003C2.99512 15.7224 3.74308 15.2654 4.32048 15.2902C4.49682 15.2978 4.67674 15.2975 4.85854 15.2972L4.96808 15.2971H7.34987V16.9093C7.34987 17.2683 7.64088 17.5593 7.99987 17.5593C8.35885 17.5593 8.64987 17.2683 8.64987 16.9093V15.2971H15.3499V16.9077C15.3499 17.2667 15.6409 17.5577 15.9999 17.5577C16.3589 17.5577 16.6499 17.2667 16.6499 16.9077V15.2971H19.0388L19.1574 15.2972C19.3323 15.2976 19.5056 15.298 19.6754 15.2911Z" fill="#717681"/>
</svg>
