<svg width="24" height="24" viewBox="0 0 24 24" fill="none" xmlns="http://www.w3.org/2000/svg">
<path d="M8.34986 5.66563C8.34986 4.20207 9.53631 3.01562 10.9999 3.01562H12.9999C14.4634 3.01562 15.6499 4.20207 15.6499 5.66563C15.6499 6.02461 15.3588 6.31563 14.9999 6.31563C14.6409 6.31563 14.3499 6.02461 14.3499 5.66563C14.3499 4.92004 13.7454 4.31563 12.9999 4.31563H10.9999C10.2543 4.31563 9.64986 4.92004 9.64986 5.66563C9.64986 6.02461 9.35885 6.31563 8.99986 6.31563C8.64088 6.31563 8.34986 6.02461 8.34986 5.66563Z" fill="#717681"/>
<path fill-rule="evenodd" clip-rule="evenodd" d="M2.99512 10.4668C2.99512 8.80684 4.33512 7.46684 5.99512 7.46684L17.9991 7.46683C19.6491 7.46683 20.9991 8.80683 20.9991 10.4668L20.9991 16.9989C20.9991 18.6589 19.6591 19.9989 17.9991 19.9989H5.99512C4.33512 19.9989 2.99512 18.6589 2.99512 16.9989V10.4668ZM19.6991 10.4668C19.6991 9.52683 18.9391 8.76683 17.9991 8.76683L5.99512 8.76684C5.05512 8.76684 4.29512 9.52684 4.29512 10.4668V11.6387L4.29592 12.2024C4.29592 12.6449 4.45942 13.0719 4.75502 13.4012C5.09542 13.7804 5.58098 13.9971 6.09057 13.9971H17.9155C18.4212 13.9971 18.9031 13.7822 19.2411 13.406C19.535 13.0789 19.6975 12.6547 19.6975 12.215V11.6471H19.6991V10.4668ZM19.6991 14.7286C19.1824 15.0952 18.5601 15.2971 17.9155 15.2971H16.6499V16.7615C16.6499 17.1204 16.3588 17.4115 15.9999 17.4115C15.6409 17.4115 15.3499 17.1204 15.3499 16.7615V15.2971H8.64986V16.7631C8.64986 17.1221 8.35885 17.4131 7.99986 17.4131C7.64088 17.4131 7.34986 17.1221 7.34986 16.7631V15.2971H6.09057C5.4414 15.2971 4.81484 15.0932 4.29512 14.723V16.9989C4.29512 17.9389 5.05512 18.6989 5.99512 18.6989H17.9991C18.9391 18.6989 19.6991 17.9389 19.6991 16.9989V14.7286Z" fill="#717681"/>
</svg>
