<svg width="24.000000" height="24.000000" viewBox="0 0 24 24" fill="none" xmlns="http://www.w3.org/2000/svg" xmlns:xlink="http://www.w3.org/1999/xlink">
	<desc>
			Created with Pixso.
	</desc>
	<defs>
		<clipPath id="clip17_198">
			<rect id="Outline / Work Outline" width="24.000000" height="24.000000" fill="white" fill-opacity="0"/>
		</clipPath>
	</defs>
	<g clip-path="url(#clip17_198)">
		<path id="Shape" d="M11 3.01C9.53 3.01 8.35 4.2 8.35 5.66C8.35 6.02 8.64 6.31 9 6.31C9.35 6.31 9.64 6.02 9.64 5.66C9.64 4.92 10.25 4.31 11 4.31L13 4.31C13.74 4.31 14.35 4.92 14.35 5.66C14.35 6.02 14.64 6.31 15 6.31C15.35 6.31 15.64 6.02 15.64 5.66C15.64 4.2 14.46 3.01 13 3.01L11 3.01ZM5.99 7.46C4.33 7.46 2.99 8.8 2.99 10.46L2.99 16.99C2.99 18.65 4.33 19.99 5.99 19.99L17.99 19.99C19.65 19.99 20.99 18.65 20.99 16.99L20.99 10.46C20.99 8.8 19.64 7.46 17.99 7.46L5.99 7.46ZM17.99 8.76C18.93 8.76 19.69 9.52 19.69 10.46L19.69 11.64L19.69 11.64L19.69 12.21C19.69 12.65 19.53 13.07 19.24 13.4C18.9 13.78 18.42 13.99 17.91 13.99L6.09 13.99C5.58 13.99 5.09 13.78 4.75 13.4C4.45 13.07 4.29 12.64 4.29 12.2L4.29 11.63L4.29 10.46C4.29 9.52 5.05 8.76 5.99 8.76L17.99 8.76ZM17.91 15.29C18.56 15.29 19.18 15.09 19.69 14.72L19.69 16.99C19.69 17.93 18.93 18.69 17.99 18.69L5.99 18.69C5.05 18.69 4.29 17.93 4.29 16.99L4.29 14.72C4.81 15.09 5.44 15.29 6.09 15.29L7.35 15.29L7.35 16.76C7.35 17.12 7.64 17.41 8 17.41C8.35 17.41 8.64 17.12 8.64 16.76L8.64 15.29L15.35 15.29L15.35 16.76C15.35 17.12 15.64 17.41 16 17.41C16.35 17.41 16.64 17.12 16.64 16.76L16.64 15.29L17.91 15.29Z" fill="#74767B" fill-opacity="1.000000" fill-rule="evenodd"/>
	</g>
</svg>
