<svg width="24" height="24" viewBox="0 0 24 24" fill="none" xmlns="http://www.w3.org/2000/svg">
<path fill-rule="evenodd" clip-rule="evenodd" d="M4.62029 6.38074C4.66486 5.44772 5.22045 4.71013 5.88315 4.23773L7.09159 3.37632C7.96832 2.75136 9.18565 2.95522 9.81093 3.83172L11.2314 5.82293C11.8569 6.69966 11.6532 7.91741 10.7765 8.54286L9.76417 9.26501C9.76199 9.26656 9.76026 9.26803 9.75889 9.26934C9.959 9.88979 10.4345 11.1223 11.3755 12.4414C12.3164 13.7604 13.3272 14.6112 13.8487 15.0023C13.8504 15.0014 13.8523 15.0003 13.8545 14.9987L14.8668 14.2766C15.7435 13.6511 16.9613 13.8548 17.5867 14.7315L19.045 16.7757C19.6706 17.6526 19.4666 18.8707 18.5894 19.496L17.4239 20.3268C16.7319 20.8201 15.8144 21.101 14.893 20.8117C13.2972 20.3107 10.4 18.9075 7.64527 15.046C4.87703 11.1656 4.54221 8.01538 4.62029 6.38074ZM6.63774 5.29631C6.19527 5.61172 5.939 6.02012 5.91881 6.44278C5.85387 7.80234 6.11422 10.6613 8.70357 14.291C11.2811 17.9041 13.9343 19.1481 15.2824 19.5714C15.7111 19.706 16.209 19.5964 16.6693 19.2682L17.8348 18.4374C18.1272 18.229 18.1952 17.823 17.9867 17.5306L16.5284 15.4865C16.3199 15.1943 15.914 15.1264 15.6218 15.3349L14.6095 16.057C14.1704 16.3703 13.5551 16.4057 13.0826 16.0527C12.4912 15.6108 11.3649 14.665 10.3172 13.1964C9.26942 11.7277 8.74171 10.3549 8.51636 9.65192C8.3363 9.09026 8.57008 8.51996 9.00919 8.2067L10.0215 7.48456C10.3137 7.27607 10.3816 6.87016 10.1731 6.57791L8.75263 4.5867C8.5442 4.29453 8.13842 4.22658 7.84618 4.4349L6.63774 5.29631Z" fill="#717681"/>
</svg>
