<svg width="24" height="24" viewBox="0 0 24 24" fill="none" xmlns="http://www.w3.org/2000/svg">
<path fill-rule="evenodd" clip-rule="evenodd" d="M3.55594 4.72645C3.33553 3.64532 4.47727 2.79847 5.44791 3.32313L20.3609 11.3842C20.8504 11.6488 20.8504 12.3512 20.3609 12.6158L5.44791 20.6768C4.47728 21.2015 3.33553 20.3546 3.55594 19.2735L4.91666 12.5993C4.99728 12.2038 4.99728 11.7962 4.91666 11.4007L3.55594 4.72645ZM4.82974 4.46675L18.7662 12L4.82974 19.5332L6.19045 12.859C6.20461 12.7896 6.21703 12.7199 6.22772 12.65H11.8294C12.1884 12.65 12.4794 12.359 12.4794 12C12.4794 11.641 12.1884 11.35 11.8294 11.35H6.22771C6.21703 11.2801 6.20461 11.2104 6.19045 11.141L4.82974 4.46675Z" fill="#717681"/>
</svg>
