<svg xmlns="http://www.w3.org/2000/svg" fill="none" viewBox="0 0 24 24" focusable="false"><path fill="#717681" fill-rule="evenodd" d="m8.836 6.68 1.44 6.32H5.586a1.3 1.3 0 0 0-1.275 1.554l.21 1.051A3 3 0 0 0 7.46 18.02h9.078a3 3 0 0 0 2.942-2.414l.21-1.051A1.3 1.3 0 0 0 18.416 13h-4.572l1.372-6.354a3 3 0 0 0-2.933-3.633h-.522A3 3 0 0 0 8.836 6.68m3.447-2.367h-.522a1.7 1.7 0 0 0-1.658 2.078L11.61 13h.904l1.43-6.628a1.7 1.7 0 0 0-1.66-2.06M5.585 14.3h12.83l-.209 1.051a1.7 1.7 0 0 1-1.667 1.368H7.46a1.7 1.7 0 0 1-1.667-1.368l-.21-1.051" clip-rule="evenodd"/><path fill="#717681" d="M7.076 19.678a.65.65 0 1 0 0 1.3h9.848a.65.65 0 1 0 0-1.3H7.076"/></svg>