<svg xmlns="http://www.w3.org/2000/svg" fill="none" viewBox="0 0 24 24" focusable="false"><path d="M0 0H24V24H0z"/><path fill="#74767B" fill-rule="evenodd" d="M8.83588 6.67967C8.40785 4.80189 9.8349 3.01294 11.7608 3.01294L12.2832 3.01294C14.1951 3.01294 15.6191 4.77729 15.2157 6.64606L13.8438 13L18.4155 13C19.2355 13 19.8507 13.7499 19.6905 14.554L19.481 15.6054C19.2014 17.0087 17.9697 18.0193 16.5388 18.0193L7.46132 18.0193C6.03045 18.0193 4.79873 17.0087 4.51915 15.6054L4.30968 14.554C4.14946 13.7499 4.76465 13 5.58462 13L10.2766 13L8.83588 6.67967ZM6.42605 20.3284C6.42605 19.9694 6.71707 19.6784 7.07605 19.6784L16.924 19.6784C17.283 19.6784 17.574 19.9694 17.574 20.3284C17.574 20.6874 17.283 20.9784 16.924 20.9784L7.07605 20.9784C6.71707 20.9784 6.42605 20.6874 6.42605 20.3284Z"/></svg>