<svg xmlns="http://www.w3.org/2000/svg" fill="none" viewBox="0 0 24 24" focusable="false"><defs><clipPath id="Accept_Outline_svg__a"><path fill="#fff" fill-opacity="0" d="M0 0h24v24H0z"/></clipPath></defs><g clip-path="url(#Accept_Outline_svg__a)"><path fill="#717681" fill-rule="evenodd" d="M10.27 13 8.83 6.67c-.43-1.87 1-3.66 2.93-3.66h.52c1.91 0 3.33 1.76 2.93 3.63L13.84 13h4.57c.82 0 1.44.74 1.28 1.55l-.21 1.05a3.01 3.01 0 0 1-2.95 2.41H7.46a3.01 3.01 0 0 1-2.95-2.41l-.21-1.05c-.16-.81.46-1.55 1.28-1.55zm1.49-8.69h.52c1.08 0 1.89 1 1.66 2.06L12.51 13h-.91l-1.5-6.61c-.24-1.07.56-2.08 1.66-2.08m6.65 9.99H5.58l.21 1.05c.16.79.86 1.36 1.67 1.36h9.07c.81 0 1.51-.57 1.67-1.36zM6.42 20.32c0-.36.29-.65.65-.65h9.85c.36 0 .65.29.65.65 0 .36-.29.65-.65.65H7.07c-.36 0-.65-.29-.65-.65"/></g></svg>