<svg xmlns="http://www.w3.org/2000/svg" fill="none" viewBox="0 0 24 24" focusable="false"><path d="M0 0H24V24H0z"/><path fill="#74767B" fill-rule="evenodd" d="M8.83588 6.67967L10.2766 13L5.58462 13C4.76465 13 4.14946 13.7499 4.30968 14.554L4.51915 15.6054C4.79873 17.0087 6.03045 18.0193 7.46132 18.0193L16.5388 18.0193C17.9697 18.0193 19.2014 17.0087 19.481 15.6054L19.6905 14.554C19.8507 13.7499 19.2355 13 18.4155 13L13.8438 13L15.2157 6.64606C15.6191 4.77729 14.1951 3.01294 12.2832 3.01294L11.7608 3.01294C9.8349 3.01294 8.40785 4.80189 8.83588 6.67967ZM12.2832 4.31294L11.7608 4.31294C10.6695 4.31294 9.86081 5.32668 10.1034 6.39076L11.6099 13L12.5139 13L13.9449 6.37171C14.1736 5.31274 13.3666 4.31294 12.2832 4.31294ZM5.58462 14.3L18.4155 14.3L18.206 15.3514C18.0476 16.1466 17.3496 16.7193 16.5388 16.7193L7.46132 16.7193C6.6505 16.7193 5.95252 16.1466 5.79409 15.3514L5.58462 14.3ZM6.42605 20.3284C6.42605 19.9694 6.71707 19.6784 7.07605 19.6784L16.924 19.6784C17.283 19.6784 17.574 19.9694 17.574 20.3284C17.574 20.6874 17.283 20.9784 16.924 20.9784L7.07605 20.9784C6.71707 20.9784 6.42605 20.6874 6.42605 20.3284Z"/></svg>