<svg xmlns="http://www.w3.org/2000/svg" fill="none" viewBox="0 0 24 24" focusable="false"><path fill="#74767B" fill-rule="evenodd" d="M15.14 19.7h-6c-.94 0-1.7-.77-1.7-1.7v-2.2h9.4V18c0 .93-.76 1.7-1.7 1.7m3-4.6V18c0 1.65-1.34 3-3 3h-6c-1.66 0-3-1.35-3-3V6.06c0-1.66 1.34-3 3-3h6c1.66 0 3 1.34 3 3v9.04m-5.89-3.68c-.13.31-.51.42-.81.27-.34-.17-.45-.59-.32-.94.13-.37.2-.77.2-1.19 0-.4-.07-.79-.19-1.15-.13-.36-.01-.77.33-.94.3-.15.68-.04.81.28.23.56.35 1.17.35 1.81 0 .66-.13 1.29-.37 1.86m1.48 1.4c.31.16.69.04.83-.28.4-.91.63-1.92.63-2.98 0-1.05-.22-2.04-.62-2.94a.6.6 0 0 0-.83-.28c-.33.16-.45.57-.31.91.29.71.46 1.49.46 2.31 0 .83-.17 1.63-.48 2.35-.14.34-.02.75.32.91m-4.28-2.59c.36 0 .66-.29.66-.65s-.3-.65-.66-.65c-.35 0-.64.29-.64.65s.29.65.64.65m-.4 7.52c0-.36.29-.65.65-.65h5.09c.36 0 .65.29.65.65s-.29.65-.65.65H9.7c-.36 0-.65-.29-.65-.65"/></svg>