<svg xmlns="http://www.w3.org/2000/svg" fill="none" viewBox="0 0 24 24" focusable="false"><path fill="#717681" fill-rule="evenodd" d="M8.5 3.3h7a1.7 1.7 0 0 1 1.7 1.678L16.749 16.7H7.251l-.45-11.722A1.7 1.7 0 0 1 8.5 3.3m9.548 13.45L18.5 5a3 3 0 0 0-3-3h-7a3 3 0 0 0-3 3l.452 11.75a1.3 1.3 0 0 0 1.173 1.244V20.3a1.7 1.7 0 0 0 1.7 1.7h6.35a1.7 1.7 0 0 0 1.7-1.7V17.994a1.3 1.3 0 0 0 1.173-1.244m-9.623 1.255h1.42V20.7h-1.02a.4.4 0 0 1-.4-.4v-2.296m2.72 2.695v-2.695h4.43V20.3a.4.4 0 0 1-.4.4h-4.03m.127-8.693a.65.65 0 0 0-.65-.65H8.925a.65.65 0 1 0 0 1.3h1.697a.65.65 0 0 0 .65-.65m-.65 1.808a.65.65 0 1 1 0 1.3H8.925a.65.65 0 1 1 0-1.3h1.697m5.083-1.808a.65.65 0 0 0-.65-.65h-1.697a.65.65 0 1 0 0 1.3h1.697a.65.65 0 0 0 .65-.65m-.65 1.808a.65.65 0 1 1 0 1.3h-1.697a.65.65 0 1 1 0-1.3h1.697M9.38 5.823h5.217l-.099 2.634-5.024-.043-.094-2.591m-1.3.047a1.3 1.3 0 0 1 1.3-1.347h5.217a1.3 1.3 0 0 1 1.299 1.348l-.098 2.634a1.3 1.3 0 0 1-1.31 1.252l-5.025-.043A1.3 1.3 0 0 1 8.176 8.46L8.082 5.87" clip-rule="evenodd"/></svg>