<svg xmlns="http://www.w3.org/2000/svg" fill="none" viewBox="0 0 24 24" focusable="false"><defs><clipPath id="Acuring_Modern_Outline_svg__a"><path fill="#fff" fill-opacity="0" d="M0 0h24v24H0z"/></clipPath></defs><g clip-path="url(#Acuring_Modern_Outline_svg__a)"><path fill="#717681" fill-rule="evenodd" d="M8.5 3.3h7c.93 0 1.68.74 1.69 1.67l-.45 11.73H7.25L6.8 4.97c.01-.93.76-1.67 1.7-1.67m9.54 13.45L18.5 5c0-1.66-1.35-3-3-3h-7c-1.66 0-3 1.34-3 3l.45 11.75c.02.65.53 1.18 1.17 1.24v2.3c0 .94.76 1.71 1.7 1.71h6.35c.94 0 1.7-.77 1.7-1.71v-2.3c.64-.06 1.15-.59 1.17-1.24M8.42 18h1.42v2.7H8.82c-.22 0-.4-.18-.4-.41zm2.72 2.7V18h4.43v2.29c0 .23-.18.41-.4.41zm.13-8.7c0-.36-.29-.65-.65-.65h-1.7c-.36 0-.65.29-.65.65s.29.65.65.65h1.7c.36 0 .65-.29.65-.65m-.65 1.81c.36 0 .65.29.65.65s-.29.65-.65.65h-1.7c-.36 0-.65-.29-.65-.65s.29-.65.65-.65zM15.7 12c0-.36-.29-.65-.65-.65h-1.7c-.36 0-.65.29-.65.65s.29.65.65.65h1.7c.36 0 .65-.29.65-.65m-.65 1.81c.36 0 .65.29.65.65s-.29.65-.65.65h-1.7c-.36 0-.65-.29-.65-.65s.29-.65.65-.65zM9.38 5.82h5.21l-.1 2.63-5.02-.04zm-1.3.04c-.03-.73.56-1.34 1.3-1.34h5.21c.74 0 1.33.61 1.3 1.35l-.1 2.63c-.02.7-.6 1.26-1.31 1.25l-5.02-.04c-.7-.01-1.26-.56-1.29-1.25z"/></g></svg>