<svg xmlns="http://www.w3.org/2000/svg" fill="none" viewBox="0 0 24 24" focusable="false"><path fill="#717681" fill-rule="evenodd" d="M8.5 2a3 3 0 0 0-3 3l.452 11.75A1.3 1.3 0 0 0 7.25 18h.018v2.3a1.7 1.7 0 0 0 1.7 1.7h6.35a1.7 1.7 0 0 0 1.7-1.7v-2.328a1.3 1.3 0 0 0 1.03-1.222L18.5 5a3 3 0 0 0-3-3zm.88 2.523A1.3 1.3 0 0 0 8.083 5.87l.094 2.59a1.3 1.3 0 0 0 1.288 1.254l5.024.043a1.3 1.3 0 0 0 1.31-1.252l.099-2.634a1.3 1.3 0 0 0-1.3-1.348H9.381M10.623 12a.65.65 0 1 1 0 1.3H8.925a.65.65 0 1 1 0-1.3h1.697m.65 3.108a.65.65 0 0 0-.65-.65H8.925a.65.65 0 1 0 0 1.3h1.697a.65.65 0 0 0 .65-.65M15.055 12a.65.65 0 1 1 0 1.3h-1.697a.65.65 0 1 1 0-1.3h1.697m.65 3.108a.65.65 0 0 0-.65-.65h-1.697a.65.65 0 1 0 0 1.3h1.697a.65.65 0 0 0 .65-.65m-5.716 2.896h-1.42V20.3c0 .22.18.4.4.4h1.02v-2.695m1.3 0V20.7h4.03a.4.4 0 0 0 .4-.4v-2.296h-4.43" clip-rule="evenodd"/></svg>