<svg xmlns="http://www.w3.org/2000/svg" fill="none" viewBox="0 0 24 24" focusable="false"><defs><clipPath id="Acuring_Modern_Solid_svg__a"><path fill="#fff" fill-opacity="0" d="M0 0h24v24H0z"/></clipPath></defs><g clip-path="url(#Acuring_Modern_Solid_svg__a)"><path fill="#717681" fill-rule="evenodd" d="M8.5 2c-1.66 0-3 1.34-3 3l.45 11.75c.02.69.6 1.25 1.3 1.25h.01v2.29c0 .94.77 1.71 1.7 1.71h6.35c.94 0 1.7-.77 1.7-1.71v-2.32c.57-.12 1.01-.62 1.03-1.22L18.5 5c0-1.66-1.35-3-3-3zm.88 2.52c-.74 0-1.33.61-1.3 1.34l.09 2.6c.03.69.59 1.24 1.29 1.25l5.02.04c.71.01 1.29-.55 1.31-1.25l.1-2.63c.03-.74-.56-1.35-1.3-1.35zM10.62 12c.36 0 .65.29.65.65 0 .35-.29.65-.65.65h-1.7c-.36 0-.65-.3-.65-.65 0-.36.29-.65.65-.65zm.65 3.1c0-.36-.29-.65-.65-.65h-1.7c-.36 0-.65.29-.65.65 0 .36.29.65.65.65h1.7c.36 0 .65-.29.65-.65m3.78-3.1c.36 0 .65.29.65.65 0 .35-.29.65-.65.65h-1.7c-.36 0-.65-.3-.65-.65 0-.36.29-.65.65-.65zm.65 3.1c0-.36-.29-.65-.65-.65h-1.7c-.36 0-.65.29-.65.65 0 .36.29.65.65.65h1.7c.36 0 .65-.29.65-.65M9.98 18H8.56v2.29c0 .23.18.41.4.41h1.02zm1.3 0v2.7h4.03c.23 0 .4-.18.4-.41V18z"/></g></svg>