<svg xmlns="http://www.w3.org/2000/svg" fill="none" viewBox="0 0 24 24" focusable="false"><defs><clipPath id="Add_Comment_Outline_svg__a"><path fill="#fff" fill-opacity="0" d="M0 0h24v24H0z"/></clipPath></defs><g clip-path="url(#Add_Comment_Outline_svg__a)"><path fill="#717681" fill-rule="evenodd" d="M7 5C5.34 5 4 6.34 4 8v10.71c0 1.09 1.26 1.69 2.11 1.01L9.52 17H17c1.65 0 3-1.35 3-3V8c0-1.66-1.35-3-3-3zm2.06 10.7-3.77 3.01V8c0-.94.77-1.7 1.71-1.7h10c.93 0 1.7.76 1.7 1.7v6c0 .93-.77 1.7-1.7 1.7zm2.93-7.86c.35 0 .65.29.65.65v1.85h1.85c.35 0 .65.29.65.65 0 .36-.3.65-.65.65h-1.85v1.85c0 .36-.3.65-.65.65-.36 0-.65-.29-.65-.65v-1.85H9.49c-.36 0-.65-.29-.65-.65 0-.36.29-.65.65-.65h1.85V8.49c0-.36.29-.65.65-.65"/></g></svg>