<svg xmlns="http://www.w3.org/2000/svg" fill="none" viewBox="0 0 24 24" focusable="false"><path fill="#717681" d="M12.64 8.496a.65.65 0 1 0-1.3 0v1.85H9.49a.65.65 0 1 0 0 1.3h1.85v1.85a.65.65 0 1 0 1.3 0v-1.85h1.85a.65.65 0 1 0 0-1.3h-1.85v-1.85"/><path fill="#717681" fill-rule="evenodd" d="M4 8a3 3 0 0 1 3-3h10a3 3 0 0 1 3 3v6a3 3 0 0 1-3 3H9.522l-3.41 2.728C5.261 20.41 4 19.803 4 18.713zm1.3 10.713L9.066 15.7H17a1.7 1.7 0 0 0 1.7-1.7V8A1.7 1.7 0 0 0 17 6.3H7A1.7 1.7 0 0 0 5.3 8v10.713" clip-rule="evenodd"/></svg>