<svg xmlns="http://www.w3.org/2000/svg" fill="none" viewBox="0 0 24 24" focusable="false"><path fill="#717681" fill-rule="evenodd" d="M20 11.76c0 .22-.24.37-.44.29-.65-.25-1.36-.39-2.09-.39-.51 0-1 .07-1.47.19V7.61c0-.35-.29-.65-.65-.65-.35 0-.64.3-.64.65v3.4H9.33v-3.4c0-.35-.29-.65-.65-.65-.35 0-.65.3-.65.65v8.79c0 .36.3.65.65.65.36 0 .65-.29.65-.65v-4.09h5.38v.05c-1.82.98-3.05 2.9-3.05 5.11 0 .73.14 1.44.39 2.09.08.2-.07.44-.29.44H7c-1.66 0-3-1.35-3-3V7c0-1.66 1.34-3 3-3h10c1.65 0 3 1.34 3 3zm-4 1.98a.93.93 0 0 1 .93-.77h1.01c.46 0 .85.32.92.75.09.56.72.9 1.28.68.43-.17.93 0 1.16.38l.51.83c.23.38.13.86-.23 1.13a.877.877 0 0 0 .02 1.4c.37.27.47.76.24 1.14l-.5.83c-.24.38-.72.54-1.15.38-.59-.21-1.23.14-1.33.73-.07.43-.46.75-.92.75h-1.01a.93.93 0 0 1-.93-.77c-.08-.56-.7-.91-1.26-.71-.43.16-.91 0-1.15-.38l-.5-.83a.856.856 0 0 1 .24-1.14c.47-.36.48-1.04.02-1.4a.85.85 0 0 1-.23-1.13l.51-.83c.23-.38.73-.55 1.16-.38.54.21 1.13-.12 1.21-.66m1.47 5.23c.82 0 1.5-.67 1.5-1.5s-.68-1.5-1.5-1.5c-.83 0-1.5.67-1.5 1.5s.67 1.5 1.5 1.5"/></svg>