<svg xmlns="http://www.w3.org/2000/svg" fill="none" viewBox="0 0 24 24" focusable="false"><path fill="#74767B" fill-rule="evenodd" d="M19.5609 12.0561C19.7675 12.1359 20 11.9895 20 11.7681L20 7C20 5.34315 18.6569 4 17 4L7 4C5.34315 4 4 5.34315 4 7L4 17C4 18.6569 5.34315 20 7 20L11.7678 20C11.9892 20 12.1356 19.7675 12.0558 19.5609C11.8055 18.9126 11.6682 18.208 11.6682 17.4713C11.6682 16.415 11.9505 15.4245 12.4437 14.5713L9.24954 14.5713L8.19455 16.697C8.03496 17.0186 7.64491 17.1499 7.32335 16.9903C7.00179 16.8307 6.87049 16.4407 7.03008 16.1191L11.4055 7.30303C11.5209 7.07063 11.7566 6.93754 11.9999 6.94189C12.243 6.93762 12.4786 7.07063 12.594 7.30297L15.0276 12.2064C15.7702 11.8612 16.5981 11.6684 17.4711 11.6684C18.2078 11.6684 18.9125 11.8057 19.5609 12.0561ZM13.9137 12.8864L11.9998 9.02994L9.89473 13.2713L13.4669 13.2713C13.6091 13.1357 13.7583 13.0071 13.9137 12.8864ZM16.0077 13.7408C16.0719 13.302 16.4673 12.9753 16.9342 12.9753L17.9428 12.9753C18.404 12.9753 18.7964 13.2943 18.8671 13.7268C18.9585 14.2861 19.5867 14.622 20.1469 14.4061C20.5795 14.2394 21.0754 14.401 21.3088 14.7847L21.8131 15.6137C22.0437 15.9927 21.9487 16.4747 21.5894 16.749C21.1247 17.1038 21.1323 17.788 21.6094 18.1405C21.9778 18.4127 22.0783 18.901 21.8448 19.2847L21.3405 20.1137C21.1099 20.4927 20.6226 20.6556 20.1925 20.4975C19.6077 20.2824 18.9632 20.6355 18.8671 21.2237C18.7964 21.6562 18.404 21.9753 17.9428 21.9753L16.9342 21.9753C16.4673 21.9753 16.0719 21.6485 16.0077 21.2097C15.9246 20.6413 15.304 20.293 14.7479 20.4975C14.3179 20.6556 13.8305 20.4927 13.5999 20.1137L13.0956 19.2847C12.8621 18.901 12.9626 18.4127 13.331 18.1405C13.8081 17.788 13.8158 17.1038 13.3511 16.749C12.9917 16.4747 12.8967 15.9927 13.1273 15.6137L13.6316 14.7847C13.8651 14.401 14.3609 14.2394 14.7935 14.4061C15.33 14.6128 15.9281 14.2851 16.0077 13.7408ZM17.4702 18.9753C18.2986 18.9753 18.9702 18.3037 18.9702 17.4753C18.9702 16.6468 18.2986 15.9753 17.4702 15.9753C16.6418 15.9753 15.9702 16.6468 15.9702 17.4753C15.9702 18.3037 16.6418 18.9753 17.4702 18.9753Z"/></svg>