<svg xmlns="http://www.w3.org/2000/svg" fill="none" viewBox="0 0 24 24" focusable="false"><path fill="#717681" fill-rule="evenodd" d="M19.56 12.05c.2.08.44-.07.44-.29V7c0-1.66-1.35-3-3-3H7C5.34 4 4 5.34 4 7v10c0 1.65 1.34 3 3 3h4.76c.22 0 .37-.24.29-.44a5.793 5.793 0 0 1 .39-4.99h-3.2l-1.05 2.12c-.16.32-.55.45-.87.3a.66.66 0 0 1-.29-.88L11.4 7.3c.12-.23.35-.37.59-.36.25-.01.48.13.6.36l2.43 4.9c.75-.34 1.57-.54 2.45-.54.73 0 1.44.14 2.09.39m-5.65.83-1.92-3.86-2.1 4.25h3.57q.21-.21.45-.39m3.02.09a.93.93 0 0 0-.93.77c-.08.54-.67.87-1.21.66-.43-.17-.93 0-1.16.38l-.51.83c-.23.38-.13.86.23 1.13.46.36.45 1.04-.02 1.4-.37.27-.47.76-.24 1.14l.5.83c.24.38.72.54 1.15.38.56-.2 1.18.15 1.26.71.07.44.46.77.93.77h1.01c.46 0 .85-.32.92-.75.1-.59.74-.94 1.33-.73.43.16.91 0 1.15-.38l.5-.83c.23-.38.13-.87-.24-1.14a.877.877 0 0 1-.02-1.4c.36-.27.46-.75.23-1.13l-.51-.83c-.23-.38-.73-.55-1.16-.38-.56.22-1.19-.12-1.28-.68-.07-.43-.46-.75-.92-.75zm2.04 4.5c0 .83-.68 1.5-1.5 1.5-.83 0-1.5-.67-1.5-1.5s.67-1.5 1.5-1.5c.82 0 1.5.67 1.5 1.5"/></svg>