<svg xmlns="http://www.w3.org/2000/svg" fill="none" viewBox="0 0 24 24" focusable="false"><path fill="#74767B" fill-rule="evenodd" d="M20 11.42c0 .42-.45.7-.85.58a.62.62 0 0 1-.45-.58V7c0-.94-.77-1.7-1.7-1.7H7c-.94 0-1.7.76-1.7 1.7v10c0 .93.76 1.7 1.7 1.7h4.42c.27 0 .5.19.58.45.12.4-.16.85-.58.85H7c-1.66 0-3-1.35-3-3V7c0-1.66 1.34-3 3-3h10c1.65 0 3 1.34 3 3zm-3.97 2.34c.07-.44.46-.76.93-.76h1.01c.46 0 .85.31.92.75.09.56.72.89 1.28.68.43-.17.93-.01 1.16.37l.51.83c.23.38.13.86-.23 1.14a.867.867 0 0 0 .02 1.39c.37.27.47.76.24 1.14l-.5.83c-.24.38-.72.55-1.15.39-.59-.22-1.23.14-1.33.72-.07.44-.46.76-.92.76h-1.01a.93.93 0 0 1-.93-.77c-.08-.57-.7-.92-1.26-.71a.966.966 0 0 1-1.15-.39l-.5-.83a.856.856 0 0 1 .24-1.14c.47-.35.48-1.04.02-1.39-.36-.28-.46-.76-.23-1.14l.51-.83c.04-.07.1-.14.17-.2H9.27l-1.06 2.13a.649.649 0 0 1-1.16-.58l4.37-8.82c.12-.23.36-.36.6-.36s.48.13.59.36l3.33 6.71c.05-.09.08-.18.09-.28m-6.12-.46 2.11-4.24 2.1 4.24zm7.25 1.21c.05-.13.17-.21.31-.21.13 0 .25.08.3.2.43.94 1.47 1.42 2.45 1.26.09-.02.18.02.23.1s.04.19-.02.26c-.63.8-.61 1.92.03 2.7.06.08.07.18.02.26s-.14.12-.23.11c-1-.17-2.06.34-2.48 1.3-.05.12-.17.21-.3.21h-.01c-.13 0-.24-.09-.3-.21-.4-.95-1.43-1.46-2.42-1.3a.25.25 0 0 1-.23-.1.24.24 0 0 1 .02-.27c.64-.78.66-1.9.03-2.7a.23.23 0 0 1-.02-.26c.05-.08.14-.12.23-.11.97.17 1.98-.32 2.39-1.24M19 17.5c0 .82-.68 1.5-1.5 1.5-.83 0-1.5-.68-1.5-1.5 0-.83.67-1.5 1.5-1.5.82 0 1.5.67 1.5 1.5"/></svg>