<svg xmlns="http://www.w3.org/2000/svg" width="24" height="24" fill="none"><path fill="#717681" d="M12 .5a.72.72 0 0 1 .72.72V3.1a.72.72 0 1 1-1.44 0V1.22A.72.72 0 0 1 12 .5Z"/><path fill="#717681" fill-rule="evenodd" d="M12 5a7 7 0 0 0-7 7v5.7a.7.7 0 0 0 .7.7h12.6a.7.7 0 0 0 .7-.7V12a7 7 0 0 0-7-7Zm0 7.75a.65.65 0 0 0 .65-.65V9.046a.65.65 0 1 0-1.3 0v3.052c0 .36.29.65.65.65Zm0 2.853a.75.75 0 1 0 0-1.5.75.75 0 0 0 0 1.5Z" clip-rule="evenodd"/><path fill="#717681" d="M.498 12.002a.72.72 0 0 1 .72-.72h1.881a.72.72 0 1 1 0 1.44H1.217a.72.72 0 0 1-.719-.72ZM20.181 12.002a.72.72 0 0 1 .72-.72h1.881a.72.72 0 1 1 0 1.44h-1.881a.72.72 0 0 1-.72-.72ZM3.867 3.869a.72.72 0 0 1 1.017 0l1.33 1.33a.72.72 0 1 1-1.017 1.018l-1.33-1.33a.72.72 0 0 1 0-1.018ZM17.785 6.217a.72.72 0 0 1 0-1.018l1.33-1.33a.72.72 0 0 1 1.018 1.017l-1.33 1.33a.72.72 0 0 1-1.018 0ZM3.795 19.7a.65.65 0 1 0 0 1.3h16.41a.65.65 0 0 0 0-1.3H3.795Z"/></svg>