<svg xmlns="http://www.w3.org/2000/svg" width="24" height="24" fill="none"><path fill="#717681" d="M12.72 1.22a.72.72 0 1 0-1.44 0V3.1a.72.72 0 0 0 1.44 0V1.22ZM12.65 12.1a.65.65 0 1 1-1.3 0V9.046a.65.65 0 1 1 1.3 0v3.052ZM12.75 14.853a.75.75 0 1 1-1.5 0 .75.75 0 0 1 1.5 0Z"/><path fill="#717681" fill-rule="evenodd" d="M5 12a7 7 0 0 1 14 0v5.7a.7.7 0 0 1-.7.7H5.7a.7.7 0 0 1-.7-.7V12Zm12.7 0v5.1H6.3V12a5.7 5.7 0 0 1 11.4 0Z" clip-rule="evenodd"/><path fill="#717681" d="M3.795 19.7a.65.65 0 1 0 0 1.3h16.41a.65.65 0 0 0 0-1.3H3.795ZM.498 12.002a.72.72 0 0 1 .72-.72h1.881a.72.72 0 1 1 0 1.44H1.217a.72.72 0 0 1-.719-.72ZM20.9 11.282a.72.72 0 1 0 0 1.44h1.882a.72.72 0 1 0 0-1.44h-1.881ZM3.867 3.869a.72.72 0 0 1 1.017 0l1.33 1.33a.72.72 0 1 1-1.017 1.018l-1.33-1.33a.72.72 0 0 1 0-1.018ZM17.785 5.2a.72.72 0 1 0 1.017 1.017l1.33-1.33a.72.72 0 0 0-1.017-1.018l-1.33 1.33Z"/></svg>