<svg xmlns="http://www.w3.org/2000/svg" fill="none" viewBox="0 0 24 24" focusable="false"><path fill="#74767B" fill-rule="evenodd" d="M12 .5c.39 0 .71.32.71.71V3.1c0 .39-.32.72-.71.72-.4 0-.72-.33-.72-.72V1.21c0-.39.32-.71.72-.71M3.86 3.86c.28-.28.74-.28 1.02 0l1.33 1.33a.73.73 0 0 1 0 1.02c-.28.28-.74.28-1.02 0L3.86 4.88a.728.728 0 0 1 0-1.02m13.92 2.35a.728.728 0 0 1 0-1.02l1.33-1.33c.28-.28.74-.28 1.02 0a.73.73 0 0 1 0 1.02L18.8 6.21c-.28.28-.74.28-1.02 0M5 12c0-3.87 3.13-7 7-7 3.86 0 7 3.13 7 7v5.7c0 .38-.32.7-.71.7H5.69a.7.7 0 0 1-.69-.7zm7 .74c.35 0 .64-.29.64-.65V9.04c0-.36-.29-.65-.64-.65-.36 0-.65.29-.65.65v3.05c0 .36.29.65.65.65M.49 12c0-.4.33-.72.72-.72h1.88c.4 0 .72.32.72.72 0 .39-.32.72-.72.72H1.21A.73.73 0 0 1 .49 12m19.69 0c0-.4.32-.72.72-.72h1.88c.39 0 .72.32.72.72 0 .39-.33.72-.72.72H20.9c-.4 0-.72-.33-.72-.72M12 15.6a.749.749 0 1 0 0-1.5c-.42 0-.75.33-.75.75 0 .41.33.75.75.75m-8.21 4.1H20.2c.36 0 .65.29.65.64 0 .36-.29.66-.65.66H3.79c-.36 0-.65-.3-.65-.66 0-.35.29-.64.65-.64"/></svg>