<svg xmlns="http://www.w3.org/2000/svg" width="24" height="24" fill="none"><mask id="a" fill="#fff"><path fill-rule="evenodd" d="M14 5a2 2 0 0 1-1.364 1.897v1.87h2.692a.65.65 0 1 1 0 1.3h-2.692v9.586a6.751 6.751 0 0 0 6.115-6.721v-.699l-1.756 1.755a.65.65 0 0 1-.919-.919l2.865-2.865a.65.65 0 0 1 1.11.46v2.268a8.05 8.05 0 1 1-16.101 0v-2.268a.65.65 0 0 1 1.11-.46l2.864 2.865a.65.65 0 0 1-.919.92L5.25 12.232v.699a6.751 6.751 0 0 0 6.086 6.718v-9.583H8.644a.65.65 0 1 1 0-1.3h2.692v-1.88A2 2 0 1 1 14 5Zm-1.3 0a.7.7 0 1 1-1.4 0 .7.7 0 0 1 1.4 0Z" clip-rule="evenodd"/></mask><path fill="#717681" fill-rule="evenodd" stroke="#717681" stroke-width="2.6" d="M14 5a2 2 0 0 1-1.364 1.897v1.87h2.692a.65.65 0 1 1 0 1.3h-2.692v9.586a6.751 6.751 0 0 0 6.115-6.721v-.699l-1.756 1.755a.65.65 0 0 1-.919-.919l2.865-2.865a.65.65 0 0 1 1.11.46v2.268a8.05 8.05 0 1 1-16.101 0v-2.268a.65.65 0 0 1 1.11-.46l2.864 2.865a.65.65 0 0 1-.919.92L5.25 12.232v.699a6.751 6.751 0 0 0 6.086 6.718v-9.583H8.644a.65.65 0 1 1 0-1.3h2.692v-1.88A2 2 0 1 1 14 5Zm-1.3 0a.7.7 0 1 1-1.4 0 .7.7 0 0 1 1.4 0Z" clip-rule="evenodd" mask="url(#a)"/></svg>