<svg xmlns="http://www.w3.org/2000/svg" fill="none" viewBox="0 0 24 24" focusable="false"><path fill="#717681" d="M12 7.2a.7.7 0 1 0 0-1.4.7.7 0 0 0 0 1.4"/><path fill="#717681" fill-rule="evenodd" d="M12 21a9 9 0 1 0 0-18 9 9 0 0 0 0 18m.636-12.604a2 2 0 1 0-1.3-.01v1.296H9.67a.65.65 0 0 0 0 1.3h1.666v6.698c-2.826-.307-4.966-2.555-4.966-5.21v-.304l1.336 1.254a.65.65 0 0 0 .89-.948l-2.43-2.282a.65.65 0 0 0-1.096.474v1.807c0 3.653 3.142 6.545 6.93 6.545 3.787 0 6.93-2.892 6.93-6.545v-1.807a.65.65 0 0 0-1.096-.474l-2.43 2.282a.65.65 0 0 0 .89.948l1.335-1.254v.305c0 2.663-2.153 4.916-4.993 5.212v-6.7h1.666a.65.65 0 1 0 0-1.3h-1.666z" clip-rule="evenodd"/></svg>