<svg xmlns="http://www.w3.org/2000/svg" fill="none" viewBox="0 0 24 24" focusable="false"><defs><clipPath id="Anchor_Outline_svg__a"><path fill="#fff" fill-opacity="0" d="M0 0h24v24H0z"/></clipPath></defs><g fill="#717681" fill-rule="evenodd" clip-path="url(#Anchor_Outline_svg__a)"><path d="M14 5c0 .88-.58 1.63-1.37 1.89v1.87h2.69c.36 0 .65.29.65.65 0 .36-.29.65-.65.65h-2.69v9.59c3.43-.32 6.12-3.21 6.12-6.72v-.7l-1.76 1.75a.64.64 0 0 1-.92 0 .658.658 0 0 1 0-.92l2.87-2.86a.63.63 0 0 1 .7-.14c.25.1.41.34.41.6v2.27c0 4.44-3.61 8.05-8.05 8.05-4.45 0-8.06-3.61-8.06-8.05v-2.27c0-.26.16-.5.41-.6.24-.1.52-.05.7.14l2.87 2.86c.25.26.25.67 0 .92a.64.64 0 0 1-.92 0l-1.76-1.75v.7c0 3.5 2.67 6.38 6.09 6.72v-9.59H8.64c-.36 0-.65-.29-.65-.65 0-.36.29-.65.65-.65h2.69V6.88A1.982 1.982 0 0 1 10 5c0-1.11.89-2 2-2a2 2 0 0 1 2 2m-1.3 0c0 .38-.32.7-.7.7-.39 0-.7-.32-.7-.7 0-.39.31-.71.7-.71.38 0 .7.32.7.71"/><path d="M12.63 6.89a2.065 2.065 0 0 0 .78-.48c.13-.13.24-.28.33-.44A2.08 2.08 0 0 0 14 5a2.093 2.093 0 0 0-.26-.98c-.09-.16-.2-.31-.33-.44s-.28-.24-.44-.33c-.14-.08-.3-.15-.47-.19-.16-.04-.33-.06-.5-.06-.18 0-.35.02-.51.06-.17.04-.33.11-.47.19-.16.09-.31.2-.44.33s-.24.28-.33.44c-.08.14-.15.3-.19.47-.04.16-.06.33-.06.51 0 .17.02.34.06.5.04.17.11.33.19.47.09.16.2.31.33.43v.01a2.026 2.026 0 0 0 .75.47v1.88H8.64c-.36 0-.65.29-.65.65 0 .36.29.65.65.65h2.69V19.65c-.45-.05-.88-.14-1.3-.26a6.906 6.906 0 0 1-2.81-1.69 6.774 6.774 0 0 1-1.98-4.77v-.7l1.34 1.33.42.42c.25.26.67.26.92 0 .25-.25.25-.66 0-.92L5.05 10.2a.63.63 0 0 0-.7-.14c-.25.1-.41.34-.41.6v2.27c.01.86.14 1.68.39 2.46.1.31.22.62.36.92.35.77.83 1.47 1.39 2.08a8.033 8.033 0 0 0 4.8 2.51c.12.02.24.03.36.04.03.01.06.01.09.01a7.343 7.343 0 0 0 1.3 0h.09c.11-.01.23-.03.35-.04.73-.1 1.44-.3 2.1-.58.27-.12.53-.25.78-.39.73-.41 1.39-.93 1.95-1.54q.02-.02.03-.04.03-.02.05-.05c.53-.59.98-1.26 1.32-2 .14-.29.26-.6.36-.91.25-.78.39-1.61.39-2.47v-2.27c0-.26-.16-.5-.41-.6a.63.63 0 0 0-.7.14l-2.87 2.86c-.25.26-.25.67 0 .92.26.26.67.26.92 0l.42-.42 1.34-1.33v.71c-.01.43-.05.84-.12 1.24a6.774 6.774 0 0 1-1.86 3.52l-.01.01c-.78.77-1.75 1.36-2.83 1.69-.42.12-.85.21-1.3.25v-9.59h2.69c.36 0 .65-.29.65-.65 0-.36-.29-.65-.65-.65h-2.69zM11.3 5c0 .38.31.7.7.7.38 0 .69-.32.7-.7v-.01a.732.732 0 0 0-.21-.49.689.689 0 0 0-.99 0c-.13.13-.2.3-.2.49z"/></g></svg>