<svg xmlns="http://www.w3.org/2000/svg" fill="none" viewBox="0 0 24 24" focusable="false"><path fill="#74767B" fill-rule="evenodd" d="M21 12a9 9 0 0 1-9 9c-4.98 0-9-4.03-9-9 0-4.98 4.02-9 9-9 4.97 0 9 4.02 9 9m-7-5.51c0 .89-.58 1.64-1.37 1.9v1.29h1.67c.36 0 .65.29.65.65s-.29.65-.65.65h-1.67v6.7c2.84-.3 4.99-2.55 4.99-5.21v-.31l-1.33 1.26c-.26.24-.67.23-.92-.03a.65.65 0 0 1 .03-.92l2.43-2.29c.19-.17.46-.22.7-.12.24.11.39.34.39.6v1.81c0 3.65-3.14 6.54-6.93 6.54-3.78 0-6.92-2.89-6.92-6.54v-1.81c0-.26.15-.49.39-.6.23-.1.51-.05.7.12l2.43 2.29c.26.24.28.65.03.92-.25.26-.66.27-.92.03l-1.33-1.26v.31c0 2.65 2.13 4.9 4.96 5.21v-6.7H9.66c-.35 0-.65-.29-.65-.65s.3-.65.65-.65h1.67v-1.3A1.985 1.985 0 0 1 10 6.49a2 2 0 1 1 4 0m-1.3 0c0 .39-.32.7-.7.7-.39 0-.7-.31-.7-.7 0-.38.31-.7.7-.7.38 0 .7.32.7.7"/></svg>