<svg xmlns="http://www.w3.org/2000/svg" fill="none" viewBox="0 0 24 24" focusable="false"><path fill="#717681" fill-rule="evenodd" d="M16.934 12.975c-.467 0-.862.327-.926.766-.08.544-.678.872-1.214.665a.96.96 0 0 0-1.162.379l-.505.829a.857.857 0 0 0 .224 1.135.862.862 0 0 1-.02 1.392.86.86 0 0 0-.235 1.144l.504.829a.96.96 0 0 0 1.148.383c.556-.204 1.177.144 1.26.713.064.439.46.765.926.765h1.009c.461 0 .853-.319.924-.751.096-.588.74-.942 1.325-.727a.96.96 0 0 0 1.148-.383l.505-.83a.86.86 0 0 0-.236-1.143.862.862 0 0 1-.02-1.392.86.86 0 0 0 .224-1.135l-.504-.83a.96.96 0 0 0-1.162-.378c-.56.216-1.188-.12-1.28-.68-.07-.432-.463-.75-.924-.75zm2.036 4.5a1.5 1.5 0 1 1-3 0 1.5 1.5 0 0 1 3 0" clip-rule="evenodd"/><path fill="#717681" d="M19.56 12.056c.207.08.44-.066.44-.288V7a3 3 0 0 0-3-3H7a3 3 0 0 0-3 3v10a3 3 0 0 0 3 3h4.768c.221 0 .368-.233.288-.44a5.802 5.802 0 0 1 2.654-7.195V8.282l-5.37-.019v8.146a.65.65 0 1 1-1.3 0V7.62a.65.65 0 0 1 .39-.596.65.65 0 0 1 .283-.064l6.602.023h.045a.65.65 0 0 1 .65.65v4.221a5.8 5.8 0 0 1 3.55.202"/></svg>