<svg xmlns="http://www.w3.org/2000/svg" fill="none" viewBox="0 0 24 24" focusable="false"><path fill="#74767B" fill-rule="evenodd" d="M3.37 19.34c0-.36.3-.65.65-.65h.72V8.91c0-1.48 1.57-2.42 2.87-1.72l2.38 1.27c.22.11.48.1.68-.05l5.63-3.98c1.29-.91 3.08.01 3.08 1.59v12.67h.61c.36 0 .65.29.65.65s-.29.65-.65.65H4.02c-.35 0-.65-.29-.65-.65m2.67-2.85v2.2h12.04v-5.77c0-.51-.55-.82-.99-.56l-5.34 3.21c-.3.18-.65.27-1 .27H6.69c-.36 0-.65.29-.65.65m0-1.84c.21-.07.42-.11.65-.11h4.06c.11 0 .23-.03.33-.09l5.34-3.21c.54-.32 1.14-.35 1.66-.16V6.02c0-.53-.6-.83-1.03-.53l-5.63 3.98c-.6.43-1.39.48-2.04.13L7 8.33a.657.657 0 0 0-.96.58z"/></svg>