<svg xmlns="http://www.w3.org/2000/svg" fill="none" viewBox="0 0 24 24" focusable="false"><path fill="#717681" fill-rule="evenodd" d="M3.38 19.345a.65.65 0 0 1 .65-.65h.717V8.91c0-1.472 1.57-2.413 2.868-1.72l2.38 1.27c.217.116.48.1.682-.043l5.63-3.983c1.292-.913 3.076.01 3.076 1.592v12.668h.612a.65.65 0 0 1 0 1.3H4.03a.65.65 0 0 1-.65-.65m2.667-3.973c.192-.11.414-.174.65-.174h4.054a1.3 1.3 0 0 0 .67-.185l5.343-3.207a1.288 1.288 0 0 1 1.32-.011V6.027a.65.65 0 0 0-1.026-.53l-5.63 3.983a1.95 1.95 0 0 1-2.045.128l-2.38-1.27a.65.65 0 0 0-.956.573v6.461" clip-rule="evenodd"/></svg>