<svg xmlns="http://www.w3.org/2000/svg" fill="none" viewBox="0 0 24 24" focusable="false"><path fill="#717681" fill-rule="evenodd" d="M12.71 3.23c-.44-.29-1-.28-1.45 0l-6.7 4.26c-1.14.72-.63 2.49.73 2.49H18.7c1.36 0 1.87-1.77.73-2.49zm-4.43 8.69c0-.36-.29-.65-.65-.65s-.65.29-.65.65v4.88c0 .36.29.65.65.65s.65-.29.65-.65zm3.71-.65c.36 0 .65.29.65.65v4.88c0 .36-.29.65-.65.65-.35 0-.65-.29-.65-.65v-4.88c0-.36.3-.65.65-.65m5.02.65c0-.36-.29-.65-.65-.65s-.65.29-.65.65v4.88c0 .36.29.65.65.65s.65-.29.65-.65zM4.63 18.75c-.36 0-.65.29-.65.65 0 .35.29.65.65.65h14.73c.36 0 .65-.3.65-.65 0-.36-.29-.65-.65-.65z"/></svg>