<svg xmlns="http://www.w3.org/2000/svg" fill="none" viewBox="0 0 24 24" focusable="false"><path fill="#717681" d="M12.716 3.23a1.35 1.35 0 0 0-1.448.001L4.565 7.495c-1.14.725-.626 2.489.725 2.489h13.42c1.351 0 1.864-1.765.723-2.49L12.716 3.23ZM12 11.272a.65.65 0 0 1 .65.65v4.883a.65.65 0 1 1-1.3 0v-4.883a.65.65 0 0 1 .65-.65M3.987 19.4a.65.65 0 0 1 .65-.65h14.726a.65.65 0 1 1 0 1.3H4.637a.65.65 0 0 1-.65-.65M8.282 11.922a.65.65 0 1 0-1.3 0v4.883a.65.65 0 1 0 1.3 0v-4.883M16.367 11.272a.65.65 0 0 1 .65.65v4.883a.65.65 0 1 1-1.3 0v-4.883a.65.65 0 0 1 .65-.65"/></svg>