<svg xmlns="http://www.w3.org/2000/svg" width="24" height="24" fill="none"><path fill="#717681" fill-rule="evenodd" d="M12.714 3.23a1.35 1.35 0 0 0-1.448.001L4.563 7.495c-1.14.725-.626 2.489.725 2.489h13.42c1.351 0 1.864-1.765.723-2.49L12.714 3.23Zm-.75 1.098a.05.05 0 0 1 .054 0l6.716 4.264a.077.077 0 0 1 .02.016l.002.003.001.002a.061.061 0 0 1-.001.035.062.062 0 0 1-.018.03l-.003.002h-.002a.078.078 0 0 1-.025.004H5.288a.078.078 0 0 1-.026-.003l-.005-.003a.062.062 0 0 1-.017-.03.062.062 0 0 1-.002-.035l.003-.005a.078.078 0 0 1 .02-.016l6.703-4.264Z" clip-rule="evenodd"/><path fill="#717681" d="M12 11.272a.65.65 0 0 1 .65.65v4.883a.65.65 0 1 1-1.3 0v-4.883a.65.65 0 0 1 .65-.65ZM3.987 19.4a.65.65 0 0 1 .65-.65h14.726a.65.65 0 1 1 0 1.3H4.637a.65.65 0 0 1-.65-.65ZM8.283 11.922a.65.65 0 1 0-1.3 0v4.883a.65.65 0 1 0 1.3 0v-4.883ZM16.367 11.272a.65.65 0 0 1 .65.65v4.883a.65.65 0 1 1-1.3 0v-4.883a.65.65 0 0 1 .65-.65Z"/></svg>