<svg xmlns="http://www.w3.org/2000/svg" fill="none" viewBox="0 0 24 24" focusable="false"><path fill="#717681" fill-rule="evenodd" d="M5.465 19.995H4.03a.65.65 0 1 1 0-1.3h.821v-9.72a1.949 1.949 0 0 1 3.898 0v9.72h1.3v-6.698a1.95 1.95 0 0 1 3.9 0v6.698h1.3V5.95a1.95 1.95 0 1 1 3.9 0v12.745h.846a.65.65 0 0 1 0 1.3h-1.46a1 1 0 0 1-.086.005h-2.5a1 1 0 0 1-.086-.005h-2.528a1 1 0 0 1-.086.005h-2.5a1 1 0 0 1-.086-.005H8.135A1 1 0 0 1 8.05 20H5.551a1 1 0 0 1-.086-.005m11.084-1.3h1.3v-4.532h-1.3zm0-5.832V5.95a.65.65 0 0 1 1.3 0v6.913zm-5.2 4.407v1.425h1.3V17.27zm0-1.3h1.3v-3.973a.65.65 0 0 0-1.3 0zm-3.9 2.725H6.151v-5.679H7.45zm0-6.979H6.151v-2.74a.649.649 0 1 1 1.298 0z" clip-rule="evenodd"/></svg>