<svg xmlns="http://www.w3.org/2000/svg" width="24" height="24" fill="none"><mask id="a" fill="#fff"><path d="M6.8 7.026a1.949 1.949 0 0 0-1.949 1.95v9.719H4.03a.65.65 0 1 0 0 1.3h1.435a.703.703 0 0 0 .086.005H8.05c.03 0 .058-.002.086-.005h2.528a.703.703 0 0 0 .086.005h2.5c.03 0 .058-.002.086-.005h2.527a.703.703 0 0 0 .087.005h2.5c.029 0 .058-.002.086-.005h1.46a.65.65 0 0 0 0-1.3h-.846V5.95a1.95 1.95 0 1 0-3.9 0v12.745h-1.3v-6.698a1.95 1.95 0 0 0-3.9 0v6.698h-1.3v-9.72A1.949 1.949 0 0 0 6.8 7.026Z"/></mask><path fill="#717681" stroke="#717681" stroke-width="2.6" d="M6.8 7.026a1.949 1.949 0 0 0-1.949 1.95v9.719H4.03a.65.65 0 1 0 0 1.3h1.435a.703.703 0 0 0 .086.005H8.05c.03 0 .058-.002.086-.005h2.528a.703.703 0 0 0 .086.005h2.5c.03 0 .058-.002.086-.005h2.527a.703.703 0 0 0 .087.005h2.5c.029 0 .058-.002.086-.005h1.46a.65.65 0 0 0 0-1.3h-.846V5.95a1.95 1.95 0 1 0-3.9 0v12.745h-1.3v-6.698a1.95 1.95 0 0 0-3.9 0v6.698h-1.3v-9.72A1.949 1.949 0 0 0 6.8 7.026Z" mask="url(#a)"/></svg>