<svg xmlns="http://www.w3.org/2000/svg" fill="none" viewBox="0 0 24 24" focusable="false"><g fill="#74767B"><path d="M6.8 7.02c-1.08 0-1.95.87-1.95 1.95v9.72h-.83c-.35 0-.65.29-.65.65s.3.65.65.65h1.44c.03 0 .06.01.09.01h2.49c.03 0 .06-.01.09-.01h2.53c.03 0 .06.01.08.01h2.5c.03 0 .06-.01.09-.01h2.53c.03 0 .05.01.08.01h2.5c.03 0 .06-.01.09-.01h1.46c.36 0 .65-.29.65-.65s-.29-.65-.65-.65h-.85V5.94a1.95 1.95 0 0 0-3.9 0v12.75h-1.3v-6.7c0-1.08-.87-1.95-1.95-1.95-1.07 0-1.95.87-1.95 1.95v6.7h-1.3V8.97c0-1.08-.87-1.95-1.94-1.95"/><path fill-rule="evenodd" d="M8.74 17.39V8.97a1.944 1.944 0 1 0-3.89 0v9.72h-.83c-.35 0-.65.29-.65.65s.3.65.65.65h1.44c.03 0 .06.01.09.01h2.49c.03 0 .06-.01.09-.01h2.53c.03 0 .06.01.08.01h2.5c.03 0 .06-.01.09-.01h2.53c.03 0 .05.01.08.01h2.5c.03 0 .06-.01.09-.01h1.46c.36 0 .65-.29.65-.65s-.29-.65-.65-.65h-.85V5.94a1.95 1.95 0 0 0-3.9 0v12.75h-1.3v-6.72a1.95 1.95 0 0 0-1.95-1.93c-1.07 0-1.95.87-1.95 1.95v6.7h-1.3zm-1.3 1.31V8.97q0-.13-.04-.25-.05-.11-.15-.21-.09-.09-.21-.14-.11-.05-.24-.05-.14 0-.25.05-.12.05-.21.14-.1.1-.15.21-.04.12-.04.25v9.73zm3.9 0h1.3v-6.71q0-.13-.04-.25-.05-.11-.15-.21-.09-.09-.21-.14-.11-.05-.25-.05-.13 0-.25.05-.11.05-.21.14-.09.1-.14.21-.05.12-.05.25zm5.2 0h1.3V5.94q0-.13-.04-.24-.05-.12-.15-.21-.09-.1-.21-.15-.11-.05-.25-.05-.13 0-.25.05-.11.05-.21.15-.09.09-.14.21-.05.11-.05.24z"/></g></svg>