<svg xmlns="http://www.w3.org/2000/svg" fill="none" viewBox="0 0 24 24" focusable="false"><defs><clipPath id="Bar_Chart_Outline_svg__a"><path fill="#fff" fill-opacity="0" d="M0 24h24V0H0z"/></clipPath></defs><g clip-path="url(#Bar_Chart_Outline_svg__a)"><path fill="#74767B" fill-rule="evenodd" d="M5.46 19.99H4.02c-.35 0-.65-.29-.65-.65s.3-.65.65-.65h.83V8.97a1.946 1.946 0 1 1 3.89 0v9.72h1.3v-6.7c0-1.08.88-1.95 1.95-1.95 1.08 0 1.95.87 1.95 1.95v6.7h1.3V5.94a1.95 1.95 0 0 1 3.9 0v12.75h.85c.36 0 .65.29.65.65s-.29.65-.65.65h-1.46c-.03 0-.06.01-.09.01h-2.5c-.03 0-.05-.01-.08-.01h-2.53c-.03 0-.06.01-.09.01h-2.5c-.02 0-.05-.01-.08-.01H8.13c-.03 0-.06.01-.09.01H5.55c-.03 0-.06-.01-.09-.01m11.08-1.3h1.3V5.94c0-.35-.29-.65-.65-.65s-.65.3-.65.65zm-5.2-6.7v6.7h1.3v-6.7c0-.36-.29-.65-.65-.65-.35 0-.65.29-.65.65m-3.9 6.7V8.97c0-.36-.29-.65-.64-.65-.36 0-.65.29-.65.65v9.72z"/></g></svg>