<svg xmlns="http://www.w3.org/2000/svg" width="24" height="24" fill="none"><path fill="#717681" fill-rule="evenodd" d="M4.851 20v-.005H4.03a.65.65 0 1 1 0-1.3h.821v-9.72a1.949 1.949 0 0 1 3.898 0v9.72h1.3v-6.698a1.95 1.95 0 0 1 3.9 0v6.698h1.3V5.95a1.95 1.95 0 1 1 3.9 0v12.745h.846a.65.65 0 0 1 0 1.3h-.848V20h-3.898v-.005h-1.302V20h-3.898v-.005h-1.3V20H4.851Zm11.698-7.156h1.3V5.95a.65.65 0 0 0-1.3 0v6.894Zm-5.2-.847v3.98h1.3v-3.98a.65.65 0 0 0-1.3 0Zm-5.198-.281H7.45v-2.74a.649.649 0 1 0-1.298 0v2.74Z" clip-rule="evenodd"/></svg>