<svg xmlns="http://www.w3.org/2000/svg" fill="none" viewBox="0 0 24 24" focusable="false"><defs><clipPath id="Bar_Chart_Plus_Solid_svg__a"><path fill="#fff" fill-opacity="0" d="M0 24h24V0H0z"/></clipPath></defs><g clip-path="url(#Bar_Chart_Plus_Solid_svg__a)"><path fill="#717681" fill-rule="evenodd" d="M4.85 20v-.01h-.83c-.35 0-.65-.29-.65-.65s.3-.65.65-.65h.83V8.97a1.946 1.946 0 1 1 3.89 0v9.72h1.3v-6.7c0-1.08.88-1.95 1.95-1.95 1.08 0 1.95.87 1.95 1.95v6.7h1.3V5.94a1.95 1.95 0 0 1 3.9 0v12.75h.85c.36 0 .65.29.65.65s-.29.65-.65.65h-.85V20h-3.9v-.01h-1.3V20h-3.9v-.01h-1.3V20zm11.69-7.16h1.3v-6.9c0-.35-.29-.65-.65-.65s-.65.3-.65.65zm-5.2-.85v3.98h1.3v-3.98c0-.36-.29-.65-.65-.65-.35 0-.65.29-.65.65m-5.19-.28h1.29V8.97c0-.36-.29-.65-.64-.65-.36 0-.65.29-.65.65z"/></g></svg>