<svg xmlns="http://www.w3.org/2000/svg" fill="none" viewBox="0 0 24 24" focusable="false"><defs><clipPath id="Bonus_Ruble_Outline_svg__a"><path fill="#fff" fill-opacity="0" d="M0 0h24v24H0z"/></clipPath></defs><g clip-path="url(#Bonus_Ruble_Outline_svg__a)"><path fill="#74767B" fill-rule="evenodd" d="M17.1 6.34c.28-.51.39-1.12.26-1.74l-.02-.09c-.18-.83-.78-1.5-1.59-1.76-1.46-.46-2.96.13-3.75 1.3-.8-1.17-2.3-1.76-3.76-1.3-.81.26-1.41.93-1.59 1.76l-.02.09c-.13.62-.02 1.23.26 1.74a2.994 2.994 0 0 0-2.89 3V17c0 1.65 1.34 3 3 3h10c1.65 0 3-1.35 3-3V9.34c0-1.62-1.29-2.95-2.9-3m-8.01-.01h2.25l-.1-.7c-.16-1.23-1.41-2.02-2.6-1.64-.37.12-.64.42-.72.79l-.02.09c-.16.75.42 1.46 1.19 1.46m5.81 0h-2.25l.1-.7c.16-1.23 1.41-2.02 2.6-1.64.37.12.64.42.72.79l.02.09c.16.75-.42 1.46-1.19 1.46M17 7.64c.93 0 1.7.76 1.7 1.7v2.64H5.29V9.34c0-.94.77-1.7 1.71-1.7zM5.29 13.28V17c0 .93.77 1.7 1.71 1.7h10c.93 0 1.7-.77 1.7-1.7v-3.72z"/></g></svg>