<svg xmlns="http://www.w3.org/2000/svg" width="24" height="24" fill="none"><path fill="#717681" fill-rule="evenodd" d="M6.899 6.345a2.495 2.495 0 0 1-.262-1.744l.018-.085a2.365 2.365 0 0 1 1.593-1.76A3.313 3.313 0 0 1 12 4.053a3.313 3.313 0 0 1 3.752-1.297c.808.258 1.416.93 1.593 1.76l.018.085a2.495 2.495 0 0 1-.261 1.744A3 3 0 0 1 20 9.344v1.939a.7.7 0 0 1-.7.7H4.7a.7.7 0 0 1-.7-.7v-1.94a3 3 0 0 1 2.899-2.998Zm5.851-.705-.094.697h2.248c.772 0 1.348-.71 1.187-1.466l-.018-.084a1.065 1.065 0 0 0-.717-.793A2.011 2.011 0 0 0 12.75 5.64Zm-1.5 0 .094.697H9.096a1.214 1.214 0 0 1-1.187-1.466l.018-.084c.08-.374.353-.677.717-.793A2.011 2.011 0 0 1 11.25 5.64Z" clip-rule="evenodd"/><path fill="#717681" d="M19.3 13.283a.7.7 0 0 1 .7.7V17a3 3 0 0 1-3 3H7a3 3 0 0 1-3-3v-3.017a.7.7 0 0 1 .7-.7h14.6Z"/></svg>