<svg xmlns="http://www.w3.org/2000/svg" fill="none" viewBox="0 0 24 24" focusable="false"><defs><clipPath id="Bonus_Ruble_Solid_svg__a"><path fill="#fff" fill-opacity="0" d="M0 0h24v24H0z"/></clipPath></defs><g clip-path="url(#Bonus_Ruble_Solid_svg__a)"><path fill="#74767B" fill-rule="evenodd" d="M6.63 4.6c-.13.62-.02 1.23.26 1.74a2.994 2.994 0 0 0-2.89 3v1.94c0 .38.31.7.7.7h14.59c.39 0 .71-.32.71-.7V9.34c0-1.62-1.29-2.95-2.9-3 .28-.51.39-1.12.26-1.74l-.02-.09c-.18-.83-.78-1.5-1.59-1.76-1.46-.46-2.96.13-3.75 1.3-.8-1.17-2.3-1.76-3.76-1.3-.81.26-1.41.93-1.59 1.76zm6.02 1.73.1-.7c.16-1.23 1.41-2.02 2.6-1.64.37.12.64.42.72.79l.02.09c.16.75-.42 1.46-1.19 1.46zm-1.31 0-.1-.7c-.16-1.23-1.41-2.02-2.6-1.64-.37.12-.64.42-.72.79l-.02.09c-.16.75.42 1.46 1.19 1.46zM20 13.98c0-.39-.32-.7-.71-.7H4.7c-.39 0-.7.31-.7.7V17c0 1.65 1.34 3 3 3h10c1.65 0 3-1.35 3-3z"/></g></svg>