<svg xmlns="http://www.w3.org/2000/svg" fill="none" viewBox="0 0 24 24" focusable="false"><defs><clipPath id="Book_Outline_svg__a"><path fill="#fff" fill-opacity="0" d="M0 0h24v24H0z"/></clipPath></defs><g clip-path="url(#Book_Outline_svg__a)"><path fill="#717681" fill-rule="evenodd" d="M5 7c0-1.66 1.34-3 3-3h8c1.65 0 3 1.34 3 3v10c0 1.65-1.35 3-3 3H8c-1.66 0-3-1.35-3-3V7m3-1.7c-.94 0-1.71.76-1.71 1.7v7.61c.45-.3.99-.47 1.56-.47H16c.93 0 1.7-.76 1.7-1.7V7c0-.94-.77-1.7-1.7-1.7zm.19 2.34c0-.36.29-.65.65-.65h6.31c.36 0 .65.29.65.65s-.29.65-.65.65H8.84c-.36 0-.65-.29-.65-.65m.65 1.94c-.36 0-.65.29-.65.65s.29.65.65.65h6.31c.36 0 .65-.29.65-.65s-.29-.65-.65-.65zM16 15.44c.63 0 1.21-.19 1.7-.52V17c0 .93-.77 1.7-1.7 1.7H8c-.92 0-1.67-.73-1.7-1.63V17c0-.86.69-1.56 1.55-1.56z"/></g></svg>