<svg xmlns="http://www.w3.org/2000/svg" fill="none" viewBox="0 0 24 24" focusable="false"><defs><clipPath id="Book_Solid_svg__a"><path fill="#fff" fill-opacity="0" d="M0 0h24v24H0z"/></clipPath></defs><g clip-path="url(#Book_Solid_svg__a)"><path fill="#717681" fill-rule="evenodd" d="M5 7c0-1.66 1.34-3 3-3h8c1.65 0 3 1.34 3 3v10c0 1.65-1.35 3-3 3H8c-1.66 0-3-1.35-3-3zm1.3 10.07c.03.9.78 1.63 1.7 1.63h8c.93 0 1.7-.77 1.7-1.7v-2.08c-.49.33-1.07.52-1.7.52H7.85c-.86 0-1.55.7-1.55 1.56zm2.34-7.46h6.71c.26.09.45.33.45.62 0 .36-.29.65-.65.65H8.84c-.36 0-.65-.29-.65-.65 0-.29.19-.53.45-.62m.2-2.62c-.36 0-.65.29-.65.65 0 .36.29.65.65.65h6.31c.36 0 .65-.29.65-.65 0-.36-.29-.65-.65-.65z"/></g></svg>