<svg xmlns="http://www.w3.org/2000/svg" fill="none" viewBox="0 0 24 24" focusable="false"><path fill="#74767B" fill-rule="evenodd" d="M14.82 3.36c-.16-.01-.46-.01-.91-.01h-3.84c-.44 0-.74 0-.9.01-.3.03-.56.09-.76.2-.19.09-.35.21-.5.35-.14.15-.26.31-.35.5-.11.2-.17.46-.2.76-.01.16-.02.46-.02.91v3.84c0 .44.01.74.02.9.02.2.05.37.1.53H6.07c-.44 0-.74 0-.9.02-.3.02-.56.08-.76.19-.19.09-.35.21-.5.35-.14.15-.26.31-.35.5-.11.2-.17.46-.2.76-.01.16-.02.46-.02.91v3.84c0 .44.01.74.02.9.03.3.09.56.2.76.09.19.21.35.35.5.15.14.31.26.5.35.2.11.46.17.76.2.16.01.46.02.9.02h3.84c.45 0 .75-.01.91-.02.3-.03.56-.09.76-.2.15-.08.29-.17.41-.28.13.11.27.2.42.28.2.11.46.17.76.2.16.01.46.02.9.02h3.84c.45 0 .75-.01.91-.02.3-.03.56-.09.76-.2.19-.09.35-.21.5-.35.14-.15.26-.31.35-.5.11-.2.17-.46.19-.76.02-.16.02-.46.02-.9v-3.84c0-.45 0-.75-.02-.91-.02-.3-.08-.56-.19-.76-.09-.19-.21-.35-.35-.5-.15-.14-.31-.26-.5-.35-.2-.11-.46-.17-.76-.19-.16-.02-.46-.02-.91-.02h-1.38c.05-.16.08-.33.09-.53.02-.16.02-.46.02-.9V6.08c0-.45 0-.75-.02-.91-.02-.3-.08-.56-.19-.76-.09-.19-.21-.35-.35-.5-.15-.14-.31-.26-.5-.35-.2-.11-.46-.17-.76-.2m-4.75 1.29h3.84c.41 0 .68 0 .81.01q.195.015.27.06c.06.03.12.07.16.11.05.05.09.11.12.17q.045.075.06.27c.01.13.01.4.01.81v3.84c0 .4 0 .67-.01.8q-.015.195-.06.27c-.03.06-.07.12-.12.17-.04.04-.1.08-.16.11q-.075.045-.27.06c-.13.01-.4.02-.81.02h-3.84c-.4 0-.67-.01-.8-.02a.67.67 0 0 1-.44-.17.671.671 0 0 1-.17-.44c-.01-.13-.02-.4-.02-.8V6.08c0-.41.01-.68.02-.81a.67.67 0 0 1 .17-.44.671.671 0 0 1 .44-.17c.13-.01.4-.01.8-.01m2.92.7h-2c-.36 0-.65.28-.65.65 0 .36.29.65.65.65h2c.37 0 .65-.29.65-.65 0-.37-.28-.65-.65-.65m-1.65 8.73v3.84c0 .4 0 .67-.01.8q-.015.195-.06.27c-.03.06-.07.12-.12.17-.04.04-.1.08-.16.11q-.075.045-.27.06c-.13.01-.4.02-.81.02H6.07c-.4 0-.67-.01-.8-.02a.67.67 0 0 1-.44-.17.671.671 0 0 1-.17-.44c-.01-.13-.02-.4-.02-.8v-3.84c0-.41.01-.68.02-.81a.67.67 0 0 1 .17-.44.671.671 0 0 1 .44-.17c.13-.01.4-.01.8-.01h3.84c.41 0 .68 0 .81.01q.195.015.27.06c.06.03.12.07.16.11.05.05.09.11.12.17q.045.075.06.27c.01.13.01.4.01.81m1.3 3.84v-3.84c0-.41.01-.68.02-.81a.67.67 0 0 1 .17-.44.671.671 0 0 1 .44-.17c.13-.01.4-.01.8-.01h3.84c.41 0 .68 0 .81.01q.195.015.27.06c.06.03.12.07.16.11.05.05.09.11.12.17q.045.075.06.27c.01.13.01.4.01.81v3.84c0 .4 0 .67-.01.8q-.015.195-.06.27c-.03.06-.07.12-.12.17-.04.04-.1.08-.16.11q-.075.045-.27.06c-.13.01-.4.02-.81.02h-3.84c-.4 0-.67-.01-.8-.02a.67.67 0 0 1-.44-.17.671.671 0 0 1-.17-.44c-.01-.13-.02-.4-.02-.8m-3.65-4.57h-2c-.36 0-.65.28-.65.65 0 .36.29.65.65.65h2c.37 0 .65-.29.65-.65 0-.37-.28-.65-.65-.65m6 0h2c.37 0 .65.28.65.65 0 .36-.28.65-.65.65h-2c-.36 0-.65-.29-.65-.65 0-.37.29-.65.65-.65"/></svg>