<svg xmlns="http://www.w3.org/2000/svg" fill="none" viewBox="0 0 24 24" focusable="false"><defs><clipPath id="Branches_Outline_svg__a"><path fill="#fff" fill-opacity="0" d="M0 0h24v24H0z"/></clipPath></defs><g clip-path="url(#Branches_Outline_svg__a)"><path fill="#74767B" fill-rule="evenodd" d="M6.64 8.93A3.01 3.01 0 0 0 9 6c0-1.66-1.35-3-3-3a3.002 3.002 0 0 0-.65 5.93v6.14A2.985 2.985 0 0 0 3 18c0 1.65 1.34 3 3 3 1.42 0 2.61-1 2.92-2.33H15c2.01 0 3.64-1.64 3.64-3.65v-.1A2.99 2.99 0 0 0 21 12c0-1.66-1.35-3-3-3-1.66 0-3 1.34-3 3 0 1.43 1 2.63 2.34 2.92v.1c0 1.29-1.05 2.35-2.34 2.35H8.93a3 3 0 0 0-2.28-2.3V9c0-.03-.01-.05-.01-.07M7.69 6c0 .93-.76 1.7-1.69 1.7a1.705 1.705 0 0 1 0-3.41c.93 0 1.69.77 1.69 1.71M18 13.7c.93 0 1.7-.77 1.7-1.7a1.705 1.705 0 0 0-3.41 0c0 .93.77 1.7 1.71 1.7M7.69 18c0 .93-.76 1.7-1.69 1.7a1.705 1.705 0 0 1 0-3.41c.93 0 1.69.77 1.69 1.71"/></g></svg>