<svg xmlns="http://www.w3.org/2000/svg" fill="none" viewBox="0 0 24 24" focusable="false"><defs><clipPath id="Bug_Outline_svg__a"><path fill="#fff" fill-opacity="0" d="M0 0h24v24H0z"/></clipPath></defs><g clip-path="url(#Bug_Outline_svg__a)"><path fill="#74767B" fill-rule="evenodd" d="M7.01 7.04C7.37 4.76 9.47 3.01 12 3.01s4.62 1.75 4.98 4.03c.06.39-.26.7-.64.7H7.66c-.39 0-.71-.31-.65-.7m8.45-.6C14.91 5.22 13.6 4.31 12 4.31c-1.61 0-2.91.91-3.46 2.13zM3.11 7.58c.22-.29.63-.35.92-.13l2.11 1.59h11.7l2.12-1.59c.28-.22.69-.16.91.13.21.28.16.69-.13.91l-2.23 1.68-.02.01v2.8h2.85c.36 0 .65.29.65.65s-.29.65-.65.65h-2.85v.04c0 1.02-.21 1.99-.59 2.85l1.77 1.78c.26.25.26.66 0 .92-.25.25-.66.25-.92 0l-1.52-1.52c-1.18 1.68-3.09 2.77-5.23 2.77-2.2 0-4.14-1.14-5.32-2.88l-1.62 1.63c-.26.25-.67.25-.92 0a.64.64 0 0 1 0-.92l1.9-1.9c-.35-.84-.54-1.76-.54-2.73v-.04H2.64c-.36 0-.65-.29-.65-.65s.29-.65.65-.65H5.5v-2.8c-.01 0-.02-.01-.02-.01L3.24 8.49a.663.663 0 0 1-.13-.91m8.24 12.2c-2.53-.34-4.55-2.61-4.55-5.46v-3.98h4.55zm1.29 0c2.53-.34 4.55-2.61 4.55-5.46v-3.98h-4.55z"/></g></svg>