<svg xmlns="http://www.w3.org/2000/svg" fill="none" viewBox="0 0 24 24" focusable="false"><path d="M0 0H24V24H0z"/><path fill="#74767B" fill-rule="evenodd" d="M12.0061 3.0166C9.4751 3.0166 7.3799 4.76997 7.02106 7.0546C6.96107 7.43652 7.2802 7.75195 7.6668 7.75195L16.3454 7.75195C16.732 7.75195 17.0511 7.43652 16.9911 7.0546C16.6323 4.76997 14.5371 3.0166 12.0061 3.0166ZM3.12214 7.58485C3.33828 7.29823 3.74585 7.24109 4.03247 7.45723L6.14811 9.05263C6.16622 9.05122 6.18453 9.05051 6.203 9.05051L10.6525 9.05051C11.0391 9.05051 11.3525 9.36391 11.3525 9.75051L11.3525 20.3188C11.3525 20.734 10.9914 21.0611 10.5869 20.9671C8.98519 20.5951 7.60594 19.6052 6.68981 18.2488L5.06274 19.8759C4.8089 20.1297 4.39735 20.1297 4.14351 19.8759C3.88966 19.622 3.88966 19.2105 4.14351 18.9566L6.04531 17.0548C5.69652 16.2214 5.503 15.3008 5.503 14.3329L5.503 14.2928L2.65 14.2928C2.29101 14.2928 2 14.0018 2 13.6428C2 13.2838 2.29101 12.9928 2.65 12.9928L5.503 12.9928L5.503 10.1938C5.49649 10.1893 5.49004 10.1846 5.48364 10.1798L3.24975 8.49519C2.96313 8.27904 2.90599 7.87147 3.12214 7.58485ZM18.502 14.2927L21.3467 14.2927C21.7057 14.2927 21.9967 14.0017 21.9967 13.6427C21.9967 13.2837 21.7057 12.9927 21.3467 12.9927L18.502 12.9927L18.502 10.1883L18.5132 10.1801L20.7471 8.49554C21.0337 8.2794 21.0908 7.87183 20.8747 7.5852C20.6585 7.29858 20.251 7.24144 19.9643 7.45759L17.8499 9.05212C17.834 9.05105 17.8181 9.05051 17.802 9.05051L13.3525 9.05051C12.9659 9.05051 12.6525 9.36391 12.6525 9.75051L12.6525 20.3188C12.6525 20.734 13.0137 21.0611 13.4181 20.9671C14.9769 20.6051 16.325 19.6578 17.2406 18.3571L18.7593 19.8759C19.0132 20.1297 19.4247 20.1297 19.6786 19.8759C19.9324 19.622 19.9324 19.2105 19.6786 18.9566L17.9047 17.1827C18.2881 16.316 18.502 15.3506 18.502 14.3329L18.502 14.2927Z"/><path fill="none" d="M16.3906 7.75051C16.7565 7.72707 17.0488 7.42151 16.9911 7.0546C16.6323 4.76997 14.5371 3.0166 12.0061 3.0166C9.4751 3.0166 7.3799 4.76997 7.02106 7.0546C6.96343 7.42151 7.25571 7.72707 7.62157 7.75051C7.63653 7.75147 7.65161 7.75195 7.6668 7.75195L16.3454 7.75195C16.3606 7.75195 16.3757 7.75147 16.3906 7.75051ZM10.6979 9.05195C10.6829 9.05099 10.6677 9.05051 10.6525 9.05051L6.203 9.05051C6.18453 9.05051 6.16622 9.05122 6.14811 9.05263L4.03304 7.45766L4.03247 7.45723C3.74585 7.24109 3.33828 7.29823 3.12214 7.58485C2.90599 7.87147 2.96313 8.27904 3.24975 8.49519L5.48364 10.1798L5.48416 10.1801C5.49038 10.1848 5.49667 10.1894 5.503 10.1938L5.503 12.9928L2.65 12.9928C2.29101 12.9928 2 13.2838 2 13.6428C2 14.0018 2.29101 14.2928 2.65 14.2928L5.503 14.2928L5.503 14.3329C5.503 15.3008 5.69652 16.2214 6.04531 17.0548L4.14401 18.9561L4.14351 18.9566C3.88966 19.2105 3.88966 19.622 4.14351 19.8759C4.39735 20.1297 4.8089 20.1297 5.06274 19.8759L5.06311 19.8755L5.7562 19.1824L6.68981 18.2488C6.93534 18.6123 7.21413 18.9495 7.52155 19.2555C8.36121 20.0914 9.41446 20.6948 10.5869 20.9671C10.9914 21.0611 11.3525 20.734 11.3525 20.3188L11.3525 9.75051C11.3525 9.37914 11.0633 9.07532 10.6979 9.05195ZM7.45855 17.0643L7.7671 17.5212C8.01078 17.8819 8.28888 18.205 8.60139 18.4904C8.76747 18.6421 8.94326 18.7831 9.12878 18.9135C9.4232 19.1204 9.73111 19.2926 10.0525 19.4301L10.0525 10.3505L6.803 10.3505L6.803 14.3329C6.803 14.8143 6.85952 15.2815 6.97255 15.7346C7.04192 16.0127 7.13258 16.2855 7.24452 16.5529L7.45855 17.0643ZM12.6525 9.75051L12.6525 20.3188C12.6525 20.734 13.0137 21.0611 13.4181 20.9671C14.5479 20.7048 15.567 20.1349 16.3909 19.3459C16.7038 19.0463 16.9886 18.7151 17.2406 18.3571L18.1714 19.2879L18.7593 19.8759C19.0132 20.1297 19.4247 20.1297 19.6786 19.8759C19.9324 19.622 19.9324 19.2105 19.6786 18.9566L17.9047 17.1827C18.2881 16.316 18.502 15.3506 18.502 14.3329L18.502 14.2927L21.3467 14.2927C21.7057 14.2927 21.9967 14.0017 21.9967 13.6427C21.9967 13.2837 21.7057 12.9927 21.3467 12.9927L21.3455 12.9927L19.802 12.9927L18.502 12.9927L18.502 11.6927L18.502 10.1885L18.502 10.1883L18.5132 10.1801L20.746 8.49633L20.7471 8.49554C21.0337 8.2794 21.0908 7.87183 20.8747 7.5852C20.6585 7.29858 20.251 7.24144 19.9643 7.45759L19.9643 7.45761L19.9633 7.45838L19.9288 7.48441L17.8499 9.05212C17.834 9.05105 17.8181 9.05051 17.802 9.05051L13.3525 9.05051C13.3373 9.05051 13.3222 9.05099 13.3072 9.05195C12.9417 9.07532 12.6525 9.37914 12.6525 9.75051ZM17.202 10.3505L13.9525 10.3505L13.9525 19.4301C14.2583 19.2992 14.552 19.1369 14.8337 18.9431C15.0111 18.8211 15.1798 18.6893 15.3399 18.5477C15.6519 18.2718 15.9311 17.9589 16.1775 17.6088L16.4929 17.1608L16.7158 16.6568C16.842 16.3714 16.9437 16.0797 17.0208 15.7816C17.1416 15.3144 17.202 14.8315 17.202 14.3329L17.202 12.9927L17.202 10.3505ZM8.54365 6.45195L15.4686 6.45195C15.4182 6.33934 15.361 6.22877 15.297 6.12025C15.2472 6.03578 15.194 5.95374 15.1373 5.87412C14.9564 5.61971 14.7406 5.39004 14.4901 5.18512C14.3759 5.09168 14.257 5.00551 14.1335 4.9266C13.8942 4.77379 13.6376 4.64824 13.3635 4.54997C13.227 4.501 13.0886 4.45974 12.9483 4.42619C12.643 4.35313 12.3289 4.3166 12.0061 4.3166C11.6833 4.3166 11.3692 4.35314 11.0638 4.42621C10.9236 4.45976 10.7852 4.50101 10.6487 4.54997C10.3746 4.64824 10.118 4.77379 9.87874 4.9266C9.75522 5.0055 9.63633 5.09167 9.52209 5.18512C9.27157 5.39004 9.05582 5.61971 8.87487 5.87411C8.81823 5.95374 8.76501 6.03578 8.71519 6.12025C8.65118 6.22877 8.59401 6.33934 8.54365 6.45195Z"/></svg>