<svg xmlns="http://www.w3.org/2000/svg" fill="none" viewBox="0 0 24 24" focusable="false"><defs><clipPath id="Bug_Solid_svg__a"><path fill="#fff" fill-opacity="0" d="M0 0h24v24H0z"/></clipPath></defs><g clip-path="url(#Bug_Solid_svg__a)"><path fill="#717681" fill-rule="evenodd" d="M7.02 7.05C7.37 4.76 9.47 3.01 12 3.01c2.53 0 4.63 1.75 4.99 4.04.06.38-.26.7-.65.7H7.66c-.38 0-.7-.32-.64-.7m-3.9.53c.21-.29.62-.34.91-.13l2.11 1.6h4.51c.38 0 .7.31.7.7v10.56c0 .42-.36.75-.77.65-1.6-.37-2.98-1.36-3.9-2.72l-1.62 1.63c-.26.25-.67.25-.92 0a.64.64 0 0 1 0-.92l1.9-1.9c-.35-.83-.54-1.75-.54-2.72v-.04H2.64c-.35 0-.64-.29-.64-.65 0-.36.29-.65.64-.65H5.5v-2.8l-.02-.02-2.24-1.68a.65.65 0 0 1-.12-.91m15.38 6.71h2.84c.36 0 .65-.29.65-.65 0-.36-.29-.65-.65-.65H18.5v-2.81h.01l2.23-1.69c.29-.22.35-.62.13-.91a.653.653 0 0 0-.91-.13l-2.11 1.6h-4.5c-.39 0-.7.31-.7.7v10.56c0 .42.36.75.76.65 1.56-.36 2.91-1.31 3.83-2.61l1.51 1.52c.26.25.67.25.92 0a.64.64 0 0 0 0-.92l-1.77-1.77c.38-.87.6-1.83.6-2.85z"/></g></svg>