<svg xmlns="http://www.w3.org/2000/svg" fill="none" viewBox="0 0 24 24" focusable="false"><defs><clipPath id="Burn_Outline_svg__a"><path fill="#fff" fill-opacity="0" d="M0 0h24v24H0z"/></clipPath></defs><g clip-path="url(#Burn_Outline_svg__a)"><path fill="#717681" fill-rule="evenodd" d="M9.19 18.99c-.24-.46-.39-1.03-.39-1.73 0-1.8.89-2.87 1.72-3.87l.12-.15c.2-.24.3-.37.45-.64.14-.24.26-.48.35-.73.08-.21.26-.37.48-.42.22-.04.45.03.6.19 1.04 1.09 1.67 1.93 2.06 2.64.5.92.61 1.65.61 2.52 0 .9-.38 1.78-.98 2.47 2.06-.83 3.49-2.8 3.49-5.16 0-2.52-1.63-3.82-3.19-5.01l-.05-.04c-.38-.3-.83-.63-1.16-.98-.85-.86-1.43-1.84-1.64-3.07-4.51 4.19-5.37 6.77-5.37 9.1 0 2.13 1.16 3.94 2.9 4.88M12 21c3.86 0 7-3 7-6.89 0-3.22-2.17-4.87-3.7-6.05-.43-.32-.8-.61-1.07-.89-.85-.86-1.32-1.8-1.35-3.1-.01-.68-.83-1.16-1.33-.71C6.25 8.07 5 11.13 5 14.11 5 18 8.13 21 12 21m-.39-6.89c.23-.28.44-.57.62-.87.6.69.97 1.23 1.21 1.67.37.67.45 1.17.45 1.89 0 .57-.26 1.19-.71 1.68-.47.49-.98.7-1.36.7-.57 0-.97-.19-1.22-.45-.25-.25-.5-.69-.5-1.47 0-1.31.6-2.05 1.45-3.08z"/></g></svg>