<svg xmlns="http://www.w3.org/2000/svg" fill="none" viewBox="0 0 24 24" focusable="false"><defs><clipPath id="Burn_Solid_svg__a"><path fill="#fff" fill-opacity="0" d="M0 0h24v24H0z"/></clipPath></defs><g clip-path="url(#Burn_Solid_svg__a)"><path fill="#717681" fill-rule="evenodd" d="M12 21c3.86 0 7-3 7-6.89 0-3.22-2.17-4.87-3.7-6.05-.43-.32-.8-.61-1.07-.89-.85-.86-1.32-1.8-1.35-3.1-.01-.68-.83-1.16-1.33-.71C6.25 8.07 5 11.13 5 14.11 5 18 8.13 21 12 21m-2.65-3.87c0 .93.3 1.55.69 1.93.38.39.96.64 1.68.64.6 0 1.27-.31 1.83-.91.55-.59.89-1.37.89-2.13 0-.79-.1-1.4-.53-2.2-.35-.64-.94-1.43-1.96-2.5-.21.58-.53 1.11-.94 1.6l-.06.07c-.84 1.02-1.6 1.93-1.6 3.5"/></g></svg>