<svg xmlns="http://www.w3.org/2000/svg" fill="none" viewBox="0 0 24 24" focusable="false"><path fill="#717681" fill-rule="evenodd" d="M3 20.04V5.45c0-1.66 1.34-3 3-3h12c1.65 0 3 1.34 3 3v14.58c0 1.08-.88 1.95-1.95 1.95h-1.18c-1.08 0-1.96-.88-1.95-1.96v-.49H8.08v.51c.01 1.07-.87 1.95-1.95 1.95H4.95c-1.07 0-1.95-.87-1.95-1.95M18 3.75H6c-.94 0-1.7.76-1.7 1.7v5.96c.01.34.3.62.65.62l14.08-.05c.36 0 .65-.29.65-.65v-1.14c0-.05 0-.1.02-.14v-4.6c0-.94-.77-1.7-1.7-1.7M6.34 5.69c0-.36.29-.65.65-.65h10.03c.36 0 .65.29.65.65s-.29.65-.65.65H6.99c-.36 0-.65-.29-.65-.65m13.36 7.48c-.21.07-.43.11-.66.11l-14.09.05c-.23 0-.45-.04-.65-.11v1.81H6c.36 0 .65.29.65.65s-.29.65-.65.65H4.3v1.9h2.66a3.65 3.65 0 0 1 3.47-2.52h1.56l1.57-.01c1.63 0 3.01 1.06 3.48 2.53h2.66v-1.9h-1.69c-.36 0-.65-.29-.65-.65s.29-.65.65-.65h1.69zM8.37 18.23h7.27A2.37 2.37 0 0 0 13.56 17l-1.56.01h-1.57c-.89 0-1.67.49-2.06 1.22m-4.07 1.3h2.48v.51c0 .36-.29.65-.65.65H4.95c-.36 0-.65-.29-.65-.65zm12.92 0h2.48v.5c0 .36-.29.65-.65.65h-1.18c-.36 0-.66-.29-.65-.65z"/></svg>