<svg xmlns="http://www.w3.org/2000/svg" fill="none" viewBox="0 0 24 24" focusable="false"><defs><clipPath id="Cancel_Megaphone_Solid_svg__a"><path fill="#fff" fill-opacity="0" d="M0 0h24v24H0z"/></clipPath></defs><g clip-path="url(#Cancel_Megaphone_Solid_svg__a)"><path fill="#717681" fill-rule="evenodd" d="M5.97 2.24a.64.64 0 0 0-.91-.12c-.28.22-.33.63-.12.91l14.41 18.72c.22.29.63.34.91.12.29-.22.34-.63.12-.91l-.38-.5V5.3c0-.72-.59-1.3-1.3-1.3h-1.16c-.63 0-1.16.46-1.26 1.08A3.449 3.449 0 0 1 12.88 8h-2.47zM6.98 8c-1.66 0-3 1.34-3 3v2c0 1.66 1.34 3 3 3h5.9c.16 0 .26-.18.17-.31L7.22 8.12A.285.285 0 0 0 6.98 8m-.51 4c0-.55.45-1 1-1s1 .45 1 1c0 .54-.45 1-1 1s-1-.46-1-1m5.28 6.7v-.72c0-.39-.31-.7-.69-.7h-2.4c-.44 0-.77.4-.69.83l.19 1.02c.21 1.08.92 1.87 2.02 1.87 1.27 0 1.57-1.03 1.57-2.3"/></g></svg>