<svg xmlns="http://www.w3.org/2000/svg" fill="none" viewBox="0 0 24 24" focusable="false"><path fill="#717681" d="M5.98 2.243a.65.65 0 1 0-1.03.792l14.404 18.722a.65.65 0 1 0 1.03-.793l-.384-.5V5.305a1.3 1.3 0 0 0-1.3-1.3h-1.152c-.631 0-1.168.46-1.264 1.084a3.444 3.444 0 0 1-3.403 2.918h-2.467z"/><path fill="#717681" fill-rule="evenodd" d="M7.227 8.123a.3.3 0 0 0-.238-.117H6.98a3 3 0 0 0-3 3v2a3 3 0 0 0 3 3h5.909c.157 0 .26-.184.164-.31zM6.477 12c0-.55.448-1 1-1 .553 0 1 .45 1 1s-.447 1-1 1-1-.45-1-1" clip-rule="evenodd"/><path fill="#717681" d="M11.76 17.984v.723c0 1.267-.304 2.293-1.57 2.293-1.103 0-1.82-.784-2.024-1.867l-.192-1.019a.7.7 0 0 1 .688-.83h2.398a.7.7 0 0 1 .7.7"/></svg>