<svg xmlns="http://www.w3.org/2000/svg" fill="none" viewBox="0 0 24 24" focusable="false"><defs><clipPath id="Cancel_Megaphone_Outline_svg__a"><path fill="#fff" fill-opacity="0" d="M0 0h24v24H0z"/></clipPath></defs><g clip-path="url(#Cancel_Megaphone_Outline_svg__a)"><path fill="#74767B" fill-rule="evenodd" d="M5.01 2.12c.28-.22.69-.17.91.12L10.35 8h2.53c1.69 0 3.14-1.24 3.4-2.92.09-.62.63-1.08 1.26-1.08h1.15c.72 0 1.31.58 1.31 1.3v15.23l.32.43c.22.28.17.69-.12.91-.28.22-.69.17-.91-.12L4.89 3.03a.643.643 0 0 1 .12-.91m13.68 16.72V5.3h-1.13c-.36 2.3-2.35 4-4.68 4h-1.53zM6.98 8c.06 0 .12.03.15.08l.57.74c.15.2.01.48-.23.48h-.49c-.94 0-1.7.76-1.7 1.7v2c0 .94.76 1.7 1.7 1.7h5.05c.13 0 .24.06.32.16l.67.87c.09.11 0 .27-.14.27h-1.12v2.7c0 1.27-1.02 2.29-2.29 2.29-1.1 0-2.05-.78-2.25-1.86l-.6-3.15A2.99 2.99 0 0 1 3.98 13v-2c0-1.66 1.34-3 3-3m1.04 3c-.56 0-1 .45-1 1 0 .54.44 1 1 1 .55 0 1-.46 1-1 0-.55-.45-1-1-1m.48 7.89-.55-2.88h2.51v2.69c0 .55-.44 1-.99 1-.48 0-.89-.34-.97-.81"/></g></svg>