<svg xmlns="http://www.w3.org/2000/svg" fill="none" viewBox="0 0 24 24" focusable="false"><defs><clipPath id="Car_Outline_svg__a"><path fill="#fff" fill-opacity="0" d="M0 0h24v24H0z"/></clipPath></defs><g clip-path="url(#Car_Outline_svg__a)"><path fill="#717681" fill-rule="evenodd" d="M16.41 4c1.12 0 2.15.62 2.67 1.62l2.07 4.03c.52.54.85 1.27.85 2.08v6.87a2 2 0 0 1-2 2h-.99a2 2 0 0 1-2-2v-.61H6.98v.61a2 2 0 0 1-2 2H4c-1.11 0-2-.89-2-2v-6.87c0-.81.32-1.54.84-2.08l2.07-4.03C5.43 4.62 6.46 4 7.58 4zM7.58 5.29h8.83c.64 0 1.22.36 1.51.93L19.2 8.7H4.79l1.28-2.48c.29-.57.87-.93 1.51-.93m10.73 12.7h2.39v.61c0 .39-.32.7-.7.7h-.99c-.39 0-.7-.31-.7-.7zm-15.02 0h2.39v.61c0 .39-.31.7-.7.7H4c-.39 0-.71-.31-.71-.7zM5 10.03h14c.82 0 1.5.59 1.66 1.36h-2.07c-.36 0-.65.29-.65.65 0 .36.29.65.65.65h2.11v4.01h-2.63c-.01-.03-.02-.05-.02-.08l-1.34-3.34a2.996 2.996 0 0 0-2.78-1.89h-3.87c-1.22 0-2.33.75-2.78 1.89l-1.34 3.34c0 .03-.01.05-.02.08H3.29v-4.01H5.4c.36 0 .65-.29.65-.65 0-.36-.29-.65-.65-.65H3.33c.16-.77.84-1.36 1.67-1.36m2.32 6.67h9.35l-1.16-2.94c-.26-.65-.89-1.07-1.58-1.07h-3.87c-.69 0-1.32.42-1.58 1.07z"/></g></svg>