<svg xmlns="http://www.w3.org/2000/svg" fill="none" viewBox="0 0 24 24" focusable="false"><defs><clipPath id="Car_Solid_svg__a"><path fill="#fff" fill-opacity="0" d="M0 0h24v24H0z"/></clipPath></defs><g clip-path="url(#Car_Solid_svg__a)"><path fill="#717681" fill-rule="evenodd" d="M21.47 10.38c-.66-1.32-1.8-3.61-2.39-4.76-.52-1-1.55-1.62-2.67-1.62H7.58c-1.12 0-2.15.62-2.67 1.62-.59 1.15-1.73 3.44-2.39 4.76-.23.47.1 1.01.62 1.01H5.4c.36 0 .65.29.65.65 0 .36-.29.65-.65.65H2.7c-.39 0-.7.31-.7.7v5.91c0 .72.58 1.3 1.29 1.3h1.14c.72 0 1.3-.58 1.3-1.3v-1.38l1.85-4.64a2.986 2.986 0 0 1 2.78-1.89h3.23c1.23 0 2.33.75 2.79 1.89l1.88 4.71v1.31c0 .72.58 1.3 1.3 1.3h1.14c.71 0 1.3-.58 1.3-1.3v-5.91c0-.39-.32-.7-.71-.7h-2.7c-.36 0-.65-.29-.65-.65 0-.36.29-.65.65-.65h2.26c.52 0 .85-.54.62-1.01m-5.06-5.09H7.58c-.64 0-1.22.36-1.51.93L4.79 8.7H19.2l-1.28-2.48c-.29-.57-.87-.93-1.51-.93m.11 11.74a.69.69 0 0 1-.64.96H8.16c-.49 0-.83-.49-.65-.95l1.27-3.28c.26-.65.89-1.07 1.58-1.07h3.23c.7 0 1.32.42 1.58 1.07z"/></g></svg>