<svg xmlns="http://www.w3.org/2000/svg" fill="none" viewBox="0 0 24 24" focusable="false"><path d="M0 0H24V24H0z"/><path fill="#74767B" fill-rule="evenodd" d="M19.0808 5.62502C19.6754 6.77812 20.8178 9.06256 21.4774 10.3852C21.7093 10.8502 21.3708 11.396 20.8512 11.396L18.596 11.396C18.237 11.396 17.946 11.687 17.946 12.046C17.946 12.405 18.237 12.696 18.596 12.696L21.3 12.696C21.6866 12.696 22 13.0094 22 13.396L22 19.3093C22 20.0272 21.418 20.6093 20.7 20.6093L19.5663 20.6093C18.8483 20.6093 18.2663 20.0272 18.2663 19.3093L18.2663 18L18.2617 18L16.3842 13.2855C15.9298 12.1442 14.8255 11.3954 13.5971 11.3954L10.3682 11.3954C9.13983 11.3954 8.03555 12.1442 7.58108 13.2855L5.7337 17.9244L5.7337 19.3093C5.7337 20.0272 5.15167 20.6093 4.4337 20.6093L3.3 20.6093C2.58203 20.6093 2 20.0272 2 19.3093L2 13.396C2 13.0094 2.3134 12.696 2.7 12.696L5.40402 12.696C5.76301 12.696 6.05402 12.405 6.05402 12.046C6.05402 11.687 5.76301 11.396 5.40402 11.396L3.14884 11.396C2.62918 11.396 2.29071 10.8502 2.52263 10.3851C3.18223 9.06253 4.32458 6.77811 4.91922 5.62501C5.43386 4.62704 6.46271 4 7.58557 4L16.4144 4C17.5373 4 18.5662 4.62704 19.0808 5.62502ZM7.58557 5.3L16.4144 5.3C17.0507 5.3 17.6337 5.65532 17.9254 6.22084L19.2038 8.7L4.79618 8.7L6.07464 6.22084C6.36626 5.65532 6.94928 5.3 7.58557 5.3ZM16.529 17.0321C16.7199 17.493 16.3811 18 15.8822 18L8.16324 18C7.67069 18 7.33218 17.5048 7.511 17.0458L8.78884 13.7664C9.04637 13.1197 9.67212 12.6954 10.3682 12.6954L13.5971 12.6954C14.2932 12.6954 14.919 13.1197 15.1765 13.7664L16.529 17.0321Z"/></svg>