<svg xmlns="http://www.w3.org/2000/svg" fill="none" viewBox="0 0 24 24" focusable="false"><defs><clipPath id="Chair_Solid_svg__a"><path fill="#fff" fill-opacity="0" d="M0 0h24v24H0z"/></clipPath></defs><g clip-path="url(#Chair_Solid_svg__a)"><path fill="#74767B" fill-rule="evenodd" d="M7 6c0-1.66 1.34-3 3-3h4c1.65 0 3 1.34 3 3v5.99c.58.25 1 .83 1 1.51v6.95c0 .36-.3.65-.65.65-.36 0-.65-.29-.65-.65v-5.36q-.165.03-.33.03H7.62q-.165 0-.33-.03v5.36c0 .36-.29.65-.65.65-.35 0-.64-.29-.64-.65V13.5c0-.68.41-1.26 1-1.51zm1.29 5.87h7.41V9H8.29z"/></g></svg>