<svg xmlns="http://www.w3.org/2000/svg" fill="none" viewBox="0 0 24 24" focusable="false"><path fill="#717681" fill-rule="evenodd" d="M7 6v5.94c-.6.33-1 .97-1 1.7v6.81c0 .36.29.65.64.65.36 0 .65-.29.65-.65v-4.97q.315.12.66.12h8.09q.345 0 .66-.12v4.97c0 .36.29.65.65.65.35 0 .65-.29.65-.65v-6.81c0-.73-.41-1.37-1-1.7V6c0-1.66-1.35-3-3-3h-4C8.34 3 7 4.34 7 6m7-1.71h-4c-.94 0-1.71.77-1.71 1.71v1.7h7.41V6c0-.94-.77-1.71-1.7-1.71m1.7 7.4V9H8.29v2.69zm-7.75 1.3h8.09c.36 0 .66.3.66.65 0 .36-.3.66-.66.66H7.95c-.36 0-.66-.3-.66-.66 0-.35.3-.65.66-.65"/></svg>