<svg xmlns="http://www.w3.org/2000/svg" fill="none" viewBox="0 0 24 24" focusable="false"><defs><clipPath id="Chart_Outline_svg__a"><path fill="#fff" fill-opacity="0" d="M0 0h24v24H0z"/></clipPath></defs><g fill="#74767B" fill-rule="evenodd" clip-path="url(#Chart_Outline_svg__a)"><path d="M19.02 18.69v-7.7c0-1.08-.87-1.95-1.95-1.95-1.07 0-1.95.87-1.95 1.95v7.7h-1.17v-3.14c0-1.08-.88-1.95-1.95-1.95-1.08 0-1.95.87-1.95 1.95v3.14H8.87v-5.7c0-1.08-.88-1.95-1.95-1.95-1.08 0-1.95.87-1.95 1.95v5.7H3.93c-.36 0-.65.29-.65.65s.29.65.65.65h16.13c.36 0 .65-.29.65-.65s-.29-.65-.65-.65zm-1.3 0v-7.7c0-.36-.29-.65-.65-.65s-.65.29-.65.65v7.7zm-11.45 0v-5.7c0-.36.29-.65.65-.65s.65.29.65.65v5.7zm5.08 0h1.29v-3.14c0-.36-.29-.65-.64-.65-.36 0-.65.29-.65.65z"/><path d="M19.07 5.69a2 2 0 0 1-2 2c-.33 0-.65-.09-.93-.23l-2.28 2.12c-.01-.02-.02-.03-.02-.05A2 2 0 0 1 12 12.31c-1.11 0-2-.89-2-2v-.19l-1.75-.94c-.35.31-.82.51-1.33.51a2 2 0 0 1-2-2c0-1.11.89-2 2-2a2 2 0 0 1 1.97 2.35l1.66.89A1.986 1.986 0 0 1 12 8.31c.37 0 .71.1 1.01.28l2.24-2.08c-.11-.25-.18-.53-.18-.82a2 2 0 0 1 2-2c1.11 0 2 .89 2 2m-1.3 0c0 .38-.31.7-.7.7-.38 0-.7-.32-.7-.7 0-.39.32-.7.7-.7.39 0 .7.31.7.7m-10.15 2c0 .38-.32.7-.7.7-.39 0-.7-.32-.7-.7 0-.39.31-.7.7-.7.38 0 .7.31.7.7M12 11.01c.38 0 .7-.31.7-.7s-.32-.7-.7-.7c-.39 0-.7.31-.7.7s.31.7.7.7"/></g></svg>