<svg xmlns="http://www.w3.org/2000/svg" fill="none" viewBox="0 0 24 24" focusable="false"><path fill="#717681" fill-rule="evenodd" d="M19.028 18.697v-7.706a1.95 1.95 0 1 0-3.9 0v7.706H13.95v-3.143a1.95 1.95 0 0 0-3.9 0v3.143H8.872v-5.706a1.95 1.95 0 1 0-3.9 0v5.706H3.934a.65.65 0 1 0 0 1.3h16.133a.65.65 0 0 0 0-1.3zm-1.3 0v-7.706a.65.65 0 1 0-1.3 0v7.706zm-11.456 0v-5.706a.65.65 0 1 1 1.3 0v5.706zm5.078 0h1.3v-3.143a.65.65 0 1 0-1.3 0z" clip-rule="evenodd"/><path fill="#717681" fill-rule="evenodd" d="M19.078 5.691a2 2 0 0 1-2.93 1.77l-2.287 2.12a1.994 1.994 0 0 1 .14.735 2 2 0 1 1-3.992-.193l-1.754-.941a2 2 0 1 1 .635-1.134l1.66.89a1.996 1.996 0 0 1 2.464-.346l2.241-2.077a2 2 0 1 1 3.823-.824m-1.3 0a.7.7 0 1 1-1.4 0 .7.7 0 0 1 1.4 0m-10.156 2a.7.7 0 1 1-1.4 0 .7.7 0 0 1 1.4 0M12 11.016a.7.7 0 1 0 0-1.4.7.7 0 0 0 0 1.4" clip-rule="evenodd"/></svg>