<svg xmlns="http://www.w3.org/2000/svg" fill="none" viewBox="0 0 24 24" focusable="false"><defs><clipPath id="Chart_Outline_svg__a"><path fill="#fff" fill-opacity="0" d="M0 0h24v24H0z"/></clipPath></defs><g clip-path="url(#Chart_Outline_svg__a)"><path fill="#717681" fill-rule="evenodd" d="M17.07 7.69a2 2 0 0 0 2-2c0-1.11-.89-2-2-2a2 2 0 0 0-2 2c0 .29.07.57.18.82l-2.24 2.08c-.3-.18-.64-.28-1.01-.28-.58 0-1.09.24-1.45.62l-1.66-.89a2 2 0 0 0-1.97-2.35c-1.11 0-2 .89-2 2a2 2 0 0 0 2 2c.51 0 .98-.2 1.33-.51l1.75.94v.19c0 1.11.89 2 2 2a2 2 0 0 0 1.86-2.73l2.28-2.12c.28.14.6.23.93.23m0-1.3c.39 0 .7-.32.7-.7 0-.39-.31-.7-.7-.7-.38 0-.7.31-.7.7 0 .38.32.7.7.7m-10.15 2c.38 0 .7-.32.7-.7 0-.39-.32-.7-.7-.7-.39 0-.7.31-.7.7 0 .38.31.7.7.7m12.1 2.6v7.7h1.04c.36 0 .65.29.65.65s-.29.65-.65.65H3.93c-.36 0-.65-.29-.65-.65s.29-.65.65-.65h1.04v-5.7c0-1.08.87-1.95 1.95-1.95 1.07 0 1.95.87 1.95 1.95v5.7h1.18v-3.14c0-1.08.87-1.95 1.95-1.95 1.07 0 1.95.87 1.95 1.95v3.14h1.17v-7.7c0-1.08.88-1.95 1.95-1.95 1.08 0 1.95.87 1.95 1.95m-6.32-.68c0 .39-.32.7-.7.7-.39 0-.7-.31-.7-.7s.31-.7.7-.7c.38 0 .7.31.7.7m5.02.68v7.7h-1.3v-7.7c0-.36.29-.65.65-.65s.65.29.65.65m-11.45 2v5.7h1.3v-5.7c0-.36-.29-.65-.65-.65s-.65.29-.65.65m6.37 2.56v3.14h-1.29v-3.14c0-.36.29-.65.65-.65.35 0 .64.29.64.65"/></g></svg>