<svg xmlns="http://www.w3.org/2000/svg" fill="none" viewBox="0 0 24 24" focusable="false"><defs><clipPath id="Chat_Solid_svg__a"><path fill="#fff" fill-opacity="0" d="M0 0h24v24H0z"/></clipPath></defs><g clip-path="url(#Chat_Solid_svg__a)"><path fill="#717681" fill-rule="evenodd" d="M4 8c0-1.66 1.34-3 3-3h10c1.65 0 3 1.34 3 3v6c0 1.65-1.35 3-3 3H9.52l-3.41 2.73c-.85.68-2.11.07-2.11-1.02zm4.5 2c.55 0 1 .44 1 1 0 .55-.45 1-1 1-.56 0-1-.45-1-1 0-.56.44-1 1-1m7 0c.55 0 1 .44 1 1 0 .55-.45 1-1 1-.56 0-1-.45-1-1 0-.56.44-1 1-1M12 10c.55 0 1 .44 1 1 0 .55-.45 1-1 1-.56 0-1-.45-1-1 0-.56.44-1 1-1"/></g></svg>