<svg xmlns="http://www.w3.org/2000/svg" fill="none" viewBox="0 0 24 24" focusable="false"><defs><clipPath id="Chat_Outline_svg__a"><path fill="#fff" fill-opacity="0" d="M0 0h24v24H0z"/></clipPath></defs><g clip-path="url(#Chat_Outline_svg__a)"><path fill="#717681" fill-rule="evenodd" d="M4 8c0-1.66 1.34-3 3-3h10c1.65 0 3 1.34 3 3v6c0 1.65-1.35 3-3 3H9.52l-3.41 2.72C5.26 20.4 4 19.8 4 18.71zm1.29 10.71 3.77-3.01H17c.93 0 1.7-.77 1.7-1.7V8c0-.94-.77-1.7-1.7-1.7H7c-.94 0-1.71.76-1.71 1.7zM9.5 11c0-.56-.45-1-1-1-.56 0-1 .44-1 1 0 .55.44 1 1 1 .55 0 1-.45 1-1m2.5-1c.55 0 1 .44 1 1 0 .55-.45 1-1 1-.56 0-1-.45-1-1 0-.56.44-1 1-1m4.5 1c0-.56-.45-1-1-1-.56 0-1 .44-1 1 0 .55.44 1 1 1 .55 0 1-.45 1-1"/></g></svg>