<svg xmlns="http://www.w3.org/2000/svg" fill="none" viewBox="0 0 24 24" focusable="false"><path d="M0 0H24V24H0z"/><path fill="#74767B" fill-rule="evenodd" d="M12.6497 6.42982L12.6497 8.10663L16.0445 8.10663C18.0255 8.10663 19.4626 9.99269 18.9369 11.9027L17.394 17.509C17.2387 18.0732 16.7257 18.4641 16.1406 18.4641L7.85972 18.4641C7.27461 18.4641 6.76159 18.0732 6.60633 17.509L5.06337 11.9027C4.53771 9.99269 5.97482 8.10663 7.95582 8.10663L11.3497 8.10663L11.3497 6.42982L9.66204 6.42982C9.30306 6.42982 9.01204 6.1388 9.01204 5.77982C9.01204 5.42083 9.30306 5.12982 9.66204 5.12982L11.3497 5.12982L11.3497 3.65C11.3497 3.29101 11.6407 3 11.9997 3C12.3587 3 12.6497 3.29101 12.6497 3.65L12.6497 5.12982L14.3378 5.12982C14.6968 5.12982 14.9878 5.42083 14.9878 5.77982C14.9878 6.1388 14.6968 6.42982 14.3378 6.42982L12.6497 6.42982ZM6.31676 11.5577L7.85972 17.1641L16.1406 17.1641L17.6835 11.5577C17.9814 10.4754 17.167 9.40663 16.0445 9.40663L7.95582 9.40663C6.83325 9.40663 6.01889 10.4754 6.31676 11.5577ZM5.02254 20.4141C5.02254 20.0551 5.31355 19.7641 5.67254 19.7641L18.3271 19.7641C18.686 19.7641 18.9771 20.0551 18.9771 20.4141C18.9771 20.7731 18.686 21.0641 18.3271 21.0641L5.67254 21.0641C5.31355 21.0641 5.02254 20.7731 5.02254 20.4141Z"/></svg>