<svg xmlns="http://www.w3.org/2000/svg" fill="none" viewBox="0 0 24 24" focusable="false"><defs><clipPath id="Chess_King_Outline_svg__a"><path fill="#fff" fill-opacity="0" d="M0 0h24v24H0z"/></clipPath></defs><g clip-path="url(#Chess_King_Outline_svg__a)"><path fill="#74767B" fill-rule="evenodd" d="M12.64 8.1V6.42h1.69c.36 0 .65-.29.65-.65 0-.35-.29-.65-.65-.65h-1.69V3.65c0-.36-.29-.65-.65-.65-.35 0-.65.29-.65.65v1.47H9.66c-.36 0-.65.3-.65.65 0 .36.29.65.65.65h1.68V8.1H7.95a3 3 0 0 0-2.89 3.8l1.54 5.6c.16.57.67.96 1.25.96h8.29c.58 0 1.09-.39 1.25-.96l1.54-5.6a3 3 0 0 0-2.89-3.8zm-4.79 9.06-1.54-5.61A1.7 1.7 0 0 1 7.95 9.4h8.09a1.7 1.7 0 0 1 1.64 2.15l-1.54 5.61zm-2.83 3.25c0-.36.29-.65.65-.65h12.65c.36 0 .65.29.65.65s-.29.65-.65.65H5.67c-.36 0-.65-.29-.65-.65"/></g></svg>