<svg xmlns="http://www.w3.org/2000/svg" fill="none" viewBox="0 0 24 24" focusable="false"><path d="M0 0H24V24H0z"/><path fill="#74767B" fill-rule="evenodd" d="M12.6499 6.42982L12.6499 8.10663L16.0273 8.10663C18.0075 8.10663 19.4445 9.99127 18.9203 11.9008L17.3809 17.5082C17.2259 18.0728 16.7127 18.4641 16.1273 18.4641L7.87344 18.4641C7.28801 18.4641 6.7748 18.0728 6.61982 17.5082L5.08043 11.9008C4.5562 9.99127 5.99319 8.10663 7.9734 8.10663L11.3499 8.10663L11.3499 6.42982L9.6622 6.42982C9.30322 6.42982 9.01221 6.1388 9.01221 5.77982C9.01221 5.42083 9.30322 5.12982 9.6622 5.12982L11.3499 5.12982L11.3499 3.65C11.3499 3.29101 11.6409 3 11.9999 3C12.3588 3 12.6499 3.29101 12.6499 3.65L12.6499 5.12982L14.338 5.12982C14.697 5.12982 14.988 5.42083 14.988 5.77982C14.988 6.1388 14.697 6.42982 14.338 6.42982L12.6499 6.42982ZM5.04028 20.4141C5.04028 20.0551 5.3313 19.7641 5.69028 19.7641L18.3099 19.7641C18.6689 19.7641 18.9599 20.0551 18.9599 20.4141C18.9599 20.7731 18.6689 21.0641 18.3099 21.0641L5.69028 21.0641C5.3313 21.0641 5.04028 20.7731 5.04028 20.4141Z"/></svg>