<svg xmlns="http://www.w3.org/2000/svg" fill="none" viewBox="0 0 24 24" focusable="false"><path fill="#74767B" fill-rule="evenodd" d="M12.64 8.1V6.42h1.69c.36 0 .65-.29.65-.65 0-.35-.29-.65-.65-.65h-1.69V3.65c0-.36-.29-.65-.64-.65-.36 0-.66.29-.66.65v1.47H9.66c-.36 0-.65.3-.65.65 0 .36.29.65.65.65h1.68V8.1H7.97a3 3 0 0 0-2.89 3.8l1.53 5.6c.16.57.67.96 1.26.96h8.25c.59 0 1.1-.39 1.26-.96l1.54-5.6c.52-1.91-.92-3.8-2.9-3.8zm-7.6 12.31c0-.36.29-.65.65-.65H18.3c.36 0 .65.29.65.65s-.29.65-.65.65H5.69c-.36 0-.65-.29-.65-.65"/></svg>