<svg xmlns="http://www.w3.org/2000/svg" fill="none" viewBox="0 0 24 24" focusable="false"><defs><clipPath id="Chip_Outline_svg__a"><path fill="#fff" fill-opacity="0" d="M0 0h24v24H0z"/></clipPath></defs><g clip-path="url(#Chip_Outline_svg__a)"><path fill="#717681" fill-rule="evenodd" d="M11.35 6V3c0-.36.29-.65.65-.65.35 0 .64.29.64.65v3h1.71V4c0-.36.29-.65.65-.65.35 0 .64.29.64.65v2.07a2.99 2.99 0 0 1 2.28 2.28H20c.35 0 .64.29.64.65 0 .35-.29.65-.64.65h-2v1.7h3c.35 0 .64.29.64.65 0 .35-.29.65-.64.65h-3v1.7h2c.35 0 .64.29.64.65 0 .35-.29.65-.64.65h-2.08a2.992 2.992 0 0 1-2.28 2.27V20c0 .35-.29.65-.64.65-.36 0-.65-.3-.65-.65v-2h-1.71v3c0 .35-.29.65-.64.65-.36 0-.65-.3-.65-.65v-3H9.64v2c0 .35-.29.65-.64.65-.36 0-.65-.3-.65-.65v-2.08a2.992 2.992 0 0 1-2.28-2.27H4c-.36 0-.65-.3-.65-.65 0-.36.29-.65.65-.65h2v-1.7H3c-.36 0-.65-.3-.65-.65 0-.36.29-.65.65-.65h3v-1.7H4c-.36 0-.65-.3-.65-.65 0-.36.29-.65.65-.65h2.07a2.99 2.99 0 0 1 2.28-2.28V4c0-.36.29-.65.65-.65.35 0 .64.29.64.65v2zm5.35 8.89c-.01.03-.01.07-.01.11v.08A1.7 1.7 0 0 1 15 16.7H9c-.94 0-1.7-.77-1.7-1.7V9c0-.94.76-1.7 1.7-1.7h6c.93 0 1.7.76 1.7 1.7zM15 14.4c0 .33-.27.6-.61.6H9.6c-.34 0-.6-.27-.6-.6V9.6c0-.34.26-.6.6-.6h4.79c.34 0 .61.26.61.6zm-1.61-4.1c.17 0 .31.13.31.3v2.8c0 .16-.14.3-.31.3H10.6a.31.31 0 0 1-.31-.3v-2.8c0-.17.14-.3.31-.3z"/></g></svg>