<svg xmlns="http://www.w3.org/2000/svg" fill="none" viewBox="0 0 24 24" focusable="false"><defs><clipPath id="City_Solid_svg__a"><path fill="#fff" fill-opacity="0" d="M0-1h24v24H0z"/></clipPath></defs><g clip-path="url(#City_Solid_svg__a)"><path fill="#717681" fill-rule="evenodd" d="M12.86 2.67V1.58c0-.36-.29-.65-.65-.65-.37 0-.65.29-.65.65v1.09h-1.4c-.09 0-.18 0-.27.02-.08.02-.18.05-.26.08-.07.03-.13.06-.19.1-.07.05-.17.13-.24.19-.06.06-.12.13-.17.21-.04.07-.08.14-.12.22-.03.08-.06.16-.08.24-.01.09-.02.19-.02.29v1.35c0 .2.08.39.23.52l1.25 1.12c.23.2.44.42.65.65.27.3 1.02.14 1.23-.22.09-.17.21-.32.34-.46.09-.1.2-.2.31-.28.06-.05.13-.1.19-.14.16-.1.33-.18.51-.25l1.63-.6a.71.71 0 0 0 .46-.66V4.02c0-.1-.01-.2-.03-.29-.02-.08-.04-.16-.08-.24a1 1 0 0 0-.12-.22.9.9 0 0 0-.17-.21c-.06-.06-.13-.12-.2-.17s-.15-.09-.23-.12c-.07-.03-.16-.06-.24-.08-.09-.01-.18-.02-.28-.02zm6.4 2.95c-.12.01-.23.04-.35.08l-4.94 1.83c-.13.05-.25.11-.36.2-.1.08-.2.18-.28.29a1.355 1.355 0 0 0-.24.78v9.87c0 .72.58 1.31 1.3 1.31h5c.1 0 .19-.01.29-.03.08-.02.16-.05.24-.08.16-.07.3-.17.43-.29.12-.12.22-.27.29-.43.07-.17.1-.34.1-.52V15.8h-3.52c-.37 0-.65-.29-.65-.65 0-.37.28-.65.65-.65h3.52v-1.32h-3.52c-.37 0-.65-.28-.65-.65 0-.36.28-.65.65-.65h3.52l-.01-1.31h-3.51c-.37 0-.65-.28-.65-.65 0-.36.28-.65.65-.65h3.51V6.96c0-.12-.02-.24-.05-.35-.02-.1-.06-.2-.11-.29s-.11-.17-.17-.24c-.07-.09-.16-.16-.25-.22-.09-.07-.19-.12-.29-.16-.1-.03-.19-.06-.29-.07-.11-.02-.21-.02-.31-.01M3.35 19.15c-.07-.17-.1-.34-.1-.52l-.02-5.69c0-.48.05-.94.15-1.39.09-.46.24-.9.43-1.33s.43-.83.7-1.21c.27-.37.59-.72.94-1.03L7 6.59c.15-.13.29-.19.44-.19.14 0 .28.06.43.19l1.55 1.39c.35.31.67.66.94 1.03.27.38.5.78.7 1.21a6.9 6.9 0 0 1 .58 2.72v5.74c0 .71-.59 1.3-1.3 1.3H4.6c-.1 0-.19-.01-.29-.03-.08-.02-.16-.05-.24-.08-.16-.07-.3-.17-.43-.29-.12-.12-.22-.27-.29-.43m4.94-7.5H6.45c-.37 0-.65-.29-.65-.65 0-.37.28-.65.65-.65h1.84c.36 0 .65.28.65.65 0 .36-.29.65-.65.65m0 2.61H6.45c-.37 0-.65-.29-.65-.65 0-.37.28-.65.65-.65h1.84c.36 0 .65.28.65.65 0 .36-.29.65-.65.65m0 2.61H6.45c-.37 0-.65-.29-.65-.65 0-.37.28-.65.65-.65h1.84c.36 0 .65.28.65.65 0 .36-.29.65-.65.65"/></g></svg>