<svg xmlns="http://www.w3.org/2000/svg" fill="none" viewBox="0 0 24 24" focusable="false"><path fill="#717681" fill-rule="evenodd" d="M19.22 2.35a2.185 2.185 0 0 0-2.93.93l-2.41 4.66c-.01.02-.02.05-.03.07-1.18-.04-2.35.49-3.14 1.41-.93 1.09-2.08 2.27-3.05 2.88-1.4.86-2.55 1.18-3.26 1.29-.42.06-.76.33-.93.68-.17.37-.16.84.18 1.21.73.81 2.15 2.13 4.76 3.79 1.81 1.15 3.43 1.78 4.3 2.08.67.22 1.39-.04 1.77-.61.49-.73 1.34-2.1 2.07-3.76.29-.66.58-1.41.86-2.15l.01-.02c.03-.05.05-.11.06-.17.19-.49.36-.98.52-1.44.38-1.07.21-2.2-.36-3.09l2.51-4.82c.56-1.07.14-2.39-.93-2.94m-2.53 6.77L19 4.69c.22-.43.05-.96-.38-1.18a.857.857 0 0 0-1.17.37L15.16 8.3c.07.04.15.07.23.11l.83.42c.17.09.32.18.47.29M6.44 8.53a.939.939 0 1 1-1.88 0 .939.939 0 1 1 1.88 0m10.34 4.24c-.1.27-.19.54-.29.82l-5.28-2.77c.17-.19.33-.38.49-.56.78-.92 2.07-1.21 3.1-.69l.83.42c1.04.53 1.52 1.71 1.15 2.78m-12.9-1.35a.939.939 0 1 1-1.88 0 .939.939 0 1 1 1.88 0m4.46 1.99c.64-.4 1.31-.98 1.94-1.61l.01.01 5.74 3.01c-.22.57-.45 1.13-.67 1.63-.69 1.58-1.5 2.88-1.96 3.57-.07.1-.17.13-.27.09-.38-.12-.93-.33-1.58-.62.04-.05.08-.09.12-.14.29-.33.67-.8 1.04-1.43.18-.31.08-.7-.24-.88a.666.666 0 0 0-.89.25c-.31.53-.64.94-.88 1.21-.12.13-.22.23-.29.29-.03.04-.06.06-.07.07l-.02.02c-.39-.21-.79-.45-1.21-.71-.34-.22-.66-.43-.95-.63.15-.1.32-.23.5-.38.28-.24.3-.64.06-.91a.68.68 0 0 0-.93-.06c-.3.27-.54.41-.68.48-.05.02-.08.03-.11.04-1.04-.77-1.73-1.41-2.18-1.88.87-.16 2.1-.54 3.52-1.42"/></svg>