<svg xmlns="http://www.w3.org/2000/svg" fill="none" viewBox="0 0 24 24" focusable="false"><path fill="#74767B" fill-rule="evenodd" d="M19.22 2.35a2.185 2.185 0 0 0-2.93.93l-2.41 4.66c-.01.02-.02.05-.03.07-1.18-.04-2.35.49-3.14 1.41-.03.03-.06.06-.09.1-.3.35-.2.89.2 1.1l6.12 3.21c.37.2.83.02.98-.38.05-.15.08-.25.08-.25.38-1.07.21-2.2-.36-3.09l2.51-4.82c.56-1.07.14-2.39-.93-2.94M5.5 9.47a.939.939 0 1 0 0-1.88.939.939 0 1 0 0 1.88m-2.56 2.89a.939.939 0 1 0 0-1.88.939.939 0 1 0 0 1.88m4.72-.06c.33-.21.68-.48 1.04-.79.22-.2.54-.25.81-.11l7.12 3.74c.32.16.46.54.33.87l-.41.97c-.73 1.66-1.58 3.03-2.07 3.76-.38.57-1.1.83-1.77.61-.41-.14-.98-.36-1.66-.66-.27-.12-.31-.47-.1-.67.65-.59 1.32-1.32 1.76-2.1.18-.32.07-.71-.24-.88a.655.655 0 0 0-.89.26c-.49.84-1.21 1.55-1.96 2.18-.22.18-.53.2-.77.05-.55-.32-1.08-.67-1.6-1.03-.21-.15-.15-.47.08-.57.45-.17.91-.42 1.33-.77.28-.23.3-.64.07-.91a.68.68 0 0 0-.93-.06c-.61.52-1.41.76-2.2.85a.65.65 0 0 1-.48-.16c-.66-.56-1.14-1.03-1.47-1.4-.34-.37-.35-.84-.18-1.21.17-.35.51-.62.93-.68.71-.11 1.86-.43 3.26-1.29"/></svg>