<svg xmlns="http://www.w3.org/2000/svg" fill="none" viewBox="0 0 24 24" focusable="false"><path fill="#717681" d="M14.479 12.44a.65.65 0 1 0-.957-.88l-2.04 2.218-1.022-1.023a.65.65 0 1 0-.92.919l1.282 1.281a.95.95 0 0 0 1.37-.029z"/><path fill="#717681" fill-rule="evenodd" d="M10.126 5a2 2 0 1 1 3.748 0H16a3 3 0 0 1 3 3v10a3 3 0 0 1-3 3H8a3 3 0 0 1-3-3V8a3 3 0 0 1 3-3zm1.866 0a.7.7 0 1 1 .016 0zm-.006 1.3H9.347A1.7 1.7 0 0 0 11 7.6h2a1.7 1.7 0 0 0 1.653-1.3h-2.667M8 6.3h.026A3 3 0 0 0 11 8.9h2a3 3 0 0 0 2.974-2.6H16A1.7 1.7 0 0 1 17.7 8v10a1.7 1.7 0 0 1-1.7 1.7H8A1.7 1.7 0 0 1 6.3 18V8A1.7 1.7 0 0 1 8 6.3" clip-rule="evenodd"/></svg>