<svg xmlns="http://www.w3.org/2000/svg" fill="none" viewBox="0 0 24 24" focusable="false"><defs><clipPath id="Clipboard_Solid_svg__a"><path fill="#fff" fill-opacity="0" d="M0 0h24v24H0z"/></clipPath></defs><g clip-path="url(#Clipboard_Solid_svg__a)"><path fill="#717681" fill-rule="evenodd" d="M10.12 5a2.06 2.06 0 0 1-.12-.7c0-1.11.89-2 2-2a2 2 0 0 1 2 2c0 .24-.05.48-.13.7H16c1.65 0 3 1.34 3 3v10c0 1.65-1.35 3-3 3H8c-1.66 0-3-1.35-3-3V8c0-1.66 1.34-3 3-3zm1.87 0a.709.709 0 0 1-.7-.7c0-.39.32-.7.71-.7.38 0 .7.31.7.7 0 .38-.31.69-.7.7zm-.01 1.29H9.34c.18.75.85 1.3 1.66 1.3h2c.8 0 1.47-.55 1.65-1.3h-2.64L12 6.3c-.01 0-.01 0-.02-.01m2.45 5.23c.27.24.29.65.04.91l-2.28 2.49c-.37.4-.99.41-1.37.03l-1.28-1.28a.64.64 0 0 1 0-.92c.25-.25.66-.25.91 0l1.03 1.02 2.04-2.21c.24-.27.65-.29.91-.04"/></g></svg>