<svg xmlns="http://www.w3.org/2000/svg" fill="none" viewBox="0 0 24 24" focusable="false"><defs><clipPath id="Clipboard_Outline_svg__a"><path fill="#fff" fill-opacity="0" d="M0 0h24v24H0z"/></clipPath></defs><g clip-path="url(#Clipboard_Outline_svg__a)"><path fill="#74767B" fill-rule="evenodd" d="M10 4.3c0 .24.04.48.12.7H8C6.34 5 5 6.34 5 8v10c0 1.65 1.34 3 3 3h8c1.65 0 3-1.35 3-3V8c0-1.66-1.35-3-3-3h-2.13c.08-.22.13-.46.13-.7a2 2 0 0 0-2-2c-1.11 0-2 .89-2 2m1.29 0c0 .38.31.69.7.7H12c.39-.01.7-.32.7-.7 0-.39-.32-.7-.7-.7-.39 0-.71.31-.71.7M8.02 6.29H8c-.94 0-1.71.77-1.71 1.71v10c0 .93.77 1.7 1.71 1.7h8c.93 0 1.7-.77 1.7-1.7V8c0-.94-.77-1.71-1.7-1.71h-.03C15.77 7.76 14.52 8.9 13 8.9h-2a3.01 3.01 0 0 1-2.98-2.61m1.32 0h2.64l.02.01.01-.01h2.64c-.18.75-.85 1.3-1.65 1.3h-2c-.81 0-1.48-.55-1.66-1.3m5.09 5.23c.27.24.29.65.04.91l-2.28 2.49c-.37.4-.99.41-1.37.03l-1.28-1.28a.64.64 0 0 1 0-.92c.25-.25.66-.25.91 0l1.03 1.02 2.04-2.21c.24-.27.65-.29.91-.04"/></g></svg>