<svg xmlns="http://www.w3.org/2000/svg" fill="none" viewBox="0 0 24 24" focusable="false"><defs><clipPath id="Clone_Outline_svg__a"><path fill="#fff" fill-opacity="0" d="M0 0h24v24H0z"/></clipPath></defs><g clip-path="url(#Clone_Outline_svg__a)"><path fill="#74767B" fill-rule="evenodd" d="M6 4C4.34 4 3 5.34 3 7v7c0 1.65 1.34 3 3 3h4v1.7H8.64c-.36 0-.65.29-.65.65 0 .35.29.64.65.64h6.71c.36 0 .65-.29.65-.64 0-.36-.29-.65-.65-.65H14V17h4c1.65 0 3-1.35 3-3V7c0-1.66-1.35-3-3-3zm5.35 1.29H6c-.94 0-1.7.77-1.7 1.71v6.09h15.4V7c0-.94-.77-1.71-1.7-1.71h-5.35v3.75l1.5-1.58c.25-.26.66-.27.92-.02.26.24.27.66.02.91l-2.62 2.76-.03.03c-.12.11-.27.17-.44.17a.7.7 0 0 1-.25-.04l-.01-.01a.54.54 0 0 1-.22-.15L8.94 8.35a.66.66 0 0 1 .03-.92c.26-.24.67-.23.92.03l1.46 1.56zM6 15.7c-.81 0-1.48-.56-1.66-1.31h15.31c-.18.75-.85 1.31-1.65 1.31zm6.7 3v-1.41h-1.4v1.41z"/></g></svg>