<svg xmlns="http://www.w3.org/2000/svg" width="24" height="24" fill="none"><path fill="#717681" d="M8.478 14.246a.316.316 0 0 1-.037.393L5.67 17.412a.292.292 0 0 1-.435-.02 8.609 8.609 0 0 1-1.83-4.42.292.292 0 0 1 .292-.321h3.92c.148 0 .272.108.304.252.107.485.298.939.557 1.344ZM8.441 9.36a.316.316 0 0 1 .037.394c-.259.405-.45.859-.557 1.344a.316.316 0 0 1-.304.252h-3.92a.292.292 0 0 1-.293-.322A8.609 8.609 0 0 1 5.235 6.61a.292.292 0 0 1 .435-.02L8.44 9.36ZM11.35 7.617a.316.316 0 0 1-.252.304 4.153 4.153 0 0 0-1.344.557.316.316 0 0 1-.393-.037L6.589 5.67a.292.292 0 0 1 .02-.435 8.609 8.609 0 0 1 4.42-1.831.292.292 0 0 1 .321.293v3.92ZM14.64 8.441a.316.316 0 0 1-.394.037 4.152 4.152 0 0 0-1.344-.557.316.316 0 0 1-.252-.304v-3.92c0-.174.149-.312.322-.293a8.609 8.609 0 0 1 4.419 1.83.292.292 0 0 1 .02.436L14.64 8.44ZM16.383 11.35a.316.316 0 0 1-.304-.252 4.152 4.152 0 0 0-.557-1.344.316.316 0 0 1 .037-.394L18.33 6.59a.292.292 0 0 1 .434.02 8.608 8.608 0 0 1 1.831 4.42.292.292 0 0 1-.293.321h-3.92ZM15.559 14.64a.316.316 0 0 1-.037-.394c.26-.405.45-.859.557-1.344a.316.316 0 0 1 .304-.252h3.92c.174 0 .313.148.293.322a8.609 8.609 0 0 1-1.83 4.419.292.292 0 0 1-.435.02l-2.772-2.772ZM12.65 16.383c0-.148.108-.272.252-.304a4.153 4.153 0 0 0 1.344-.557.316.316 0 0 1 .394.037l2.771 2.771a.292.292 0 0 1-.02.435 8.61 8.61 0 0 1-4.419 1.831.292.292 0 0 1-.322-.293v-3.92ZM11.35 16.383a.316.316 0 0 0-.252-.304 4.15 4.15 0 0 1-1.344-.557.316.316 0 0 0-.393.037L6.589 18.33a.292.292 0 0 0 .02.435 8.61 8.61 0 0 0 4.42 1.831.292.292 0 0 0 .321-.293v-3.92Z"/></svg>