<svg xmlns="http://www.w3.org/2000/svg" fill="none" viewBox="0 0 24 24" focusable="false"><path fill="#717681" d="M8.478 14.246a.316.316 0 0 1-.037.393L5.67 17.412a.292.292 0 0 1-.435-.02 8.6 8.6 0 0 1-1.83-4.42.292.292 0 0 1 .292-.321h3.92c.148 0 .272.108.304.252.107.485.298.939.557 1.344M8.441 9.36a.316.316 0 0 1 .037.394c-.259.405-.45.859-.557 1.344a.316.316 0 0 1-.304.252h-3.92a.292.292 0 0 1-.293-.322A8.6 8.6 0 0 1 5.235 6.61a.292.292 0 0 1 .435-.02zM11.35 7.617a.316.316 0 0 1-.252.304 4.2 4.2 0 0 0-1.344.557.316.316 0 0 1-.393-.037L6.589 5.67a.292.292 0 0 1 .02-.435 8.6 8.6 0 0 1 4.42-1.831.292.292 0 0 1 .321.293zM14.64 8.441a.316.316 0 0 1-.394.037 4.2 4.2 0 0 0-1.344-.557.316.316 0 0 1-.252-.304v-3.92c0-.174.149-.312.322-.293a8.6 8.6 0 0 1 4.419 1.83.292.292 0 0 1 .02.436zM16.383 11.35a.316.316 0 0 1-.304-.252 4.2 4.2 0 0 0-.557-1.344.316.316 0 0 1 .037-.394L18.33 6.59a.292.292 0 0 1 .434.02 8.6 8.6 0 0 1 1.831 4.42.292.292 0 0 1-.293.321zM15.559 14.64a.316.316 0 0 1-.037-.394c.26-.405.45-.859.557-1.344a.316.316 0 0 1 .304-.252h3.92c.174 0 .313.148.293.322a8.6 8.6 0 0 1-1.83 4.419.292.292 0 0 1-.435.02zM12.65 16.383c0-.148.108-.272.252-.304a4.2 4.2 0 0 0 1.344-.557.316.316 0 0 1 .394.037l2.771 2.771a.292.292 0 0 1-.02.435 8.6 8.6 0 0 1-4.419 1.831.292.292 0 0 1-.322-.293zM11.35 16.383a.316.316 0 0 0-.252-.304 4.2 4.2 0 0 1-1.344-.557.316.316 0 0 0-.393.037L6.589 18.33a.292.292 0 0 0 .02.435 8.6 8.6 0 0 0 4.42 1.831.292.292 0 0 0 .321-.293z"/></svg>