<svg xmlns="http://www.w3.org/2000/svg" fill="none" viewBox="0 0 24 24" focusable="false"><defs><clipPath id="Comment_Solid_svg__a"><path fill="#fff" fill-opacity="0" d="M0 0h24v24H0z"/></clipPath></defs><g clip-path="url(#Comment_Solid_svg__a)"><path fill="#717681" fill-rule="evenodd" d="M4 8c0-1.66 1.34-3 3-3h10c1.65 0 3 1.34 3 3v6c0 1.65-1.35 3-3 3H9.52l-3.41 2.72C5.26 20.4 4 19.8 4 18.71zm4.49 1.64c0-.36.29-.65.65-.65h5.71c.36 0 .65.29.65.65 0 .36-.29.65-.65.65H9.14c-.36 0-.65-.29-.65-.65m0 2.99c0-.36.29-.65.65-.65h3.65c.35 0 .65.29.65.65 0 .36-.3.65-.65.65H9.14c-.36 0-.65-.29-.65-.65"/></g></svg>