<svg xmlns="http://www.w3.org/2000/svg" fill="none" viewBox="0 0 24 24" focusable="false"><defs><clipPath id="Commits_Outline_svg__a"><path fill="#fff" fill-opacity="0" d="M0 0h24v24H0z"/></clipPath></defs><g clip-path="url(#Commits_Outline_svg__a)"><path fill="#74767B" fill-rule="evenodd" d="M12 3c.35 0 .65.29.65.65v4.4a3.999 3.999 0 0 1 0 7.89v4.41c0 .36-.3.65-.65.65-.36 0-.65-.29-.65-.65v-4.41A3.99 3.99 0 0 1 8 12c0-1.99 1.44-3.64 3.35-3.95v-4.4c0-.36.29-.65.65-.65m.01 11.7c0-.01-.01-.01-.01-.01-.01 0-.02 0-.02.01A2.704 2.704 0 0 1 9.3 12c0-1.5 1.2-2.71 2.7-2.71 1.49 0 2.7 1.21 2.7 2.71 0 1.48-1.21 2.69-2.69 2.7"/></g></svg>