<svg xmlns="http://www.w3.org/2000/svg" fill="none" viewBox="0 0 24 24" focusable="false"><path fill="#74767B" fill-rule="evenodd" d="M9 19C10.0736 19 11.0907 18.7583 12 18.3264C12.9092 18.7583 13.9264 19 15 19C18.866 19 22 15.866 22 12C22 8.13401 18.866 5 15 5C13.9264 5 12.9093 5.24169 12 5.67363C11.0907 5.24169 10.0736 5 9 5C5.79634 5 3.09533 7.15214 2.26388 10.0895C2.09199 10.6968 2 11.3377 2 12C2 12.4526 2.04295 12.8951 2.125 13.3238C2.21817 13.8106 2.36175 14.2794 2.55009 14.7247C3.61275 17.2371 6.1005 19 9 19ZM13.3747 17.4649C13.8898 17.6179 14.4353 17.7 15 17.7C18.148 17.7 20.7 15.148 20.7 12C20.7 8.85198 18.148 6.3 15 6.3C14.4353 6.3 13.8898 6.38212 13.3747 6.53507C14.9752 7.81792 16 9.78928 16 12C16 14.2107 14.9752 16.1821 13.3747 17.4649ZM10.6253 17.4649C10.1102 17.6179 9.5647 17.7 9 17.7C5.85198 17.7 3.3 15.148 3.3 12C3.3 8.85196 5.85198 6.29999 9 6.29999C9.56471 6.29999 10.1102 6.38211 10.6253 6.53506C9.02482 7.81791 8 9.78927 8 12C8 13.1053 8.25621 14.1509 8.71247 15.0804C9.16873 16.0099 9.82504 16.8235 10.6253 17.4649Z"/><path fill="none" d="M11.0606 5.30822C10.8323 5.238 10.599 5.17914 10.3614 5.1323C9.92101 5.0455 9.46582 5 9 5C8.19131 5 7.41464 5.13713 6.692 5.38942C6.43164 5.48031 6.1783 5.58615 5.93299 5.7059C4.53228 6.38972 3.3937 7.52734 2.70866 8.92734C2.58643 9.17714 2.47864 9.43529 2.38638 9.7007C2.3419 9.82867 2.30102 9.95832 2.26388 10.0895C2.09199 10.6968 2 11.3377 2 12C2 12.4526 2.04295 12.8951 2.125 13.3238C2.18889 13.6576 2.27648 13.9829 2.38596 14.2981C2.43613 14.4425 2.4909 14.5848 2.55009 14.7247C2.60016 14.8431 2.6534 14.9598 2.70969 15.0747C3.05085 15.7714 3.50434 16.403 4.04654 16.946C4.04778 16.9473 4.04902 16.9485 4.05025 16.9497C4.05335 16.9528 4.05644 16.9559 4.05954 16.959C4.60106 17.4985 5.23042 17.9499 5.92431 18.2898C6.17508 18.4127 6.43429 18.521 6.70081 18.6136C7.42096 18.864 8.1946 19 9 19C9.7176 19 10.41 18.892 11.0618 18.6914C11.3447 18.6043 11.62 18.4998 11.8864 18.3791C11.9244 18.3618 11.9623 18.3443 12 18.3264C12.0377 18.3443 12.0755 18.3618 12.1136 18.3791C12.3799 18.4998 12.6552 18.6043 12.938 18.6914C13.1729 18.7636 13.4129 18.8239 13.6576 18.8714C14.092 18.9558 14.5409 19 15 19C15.805 19 16.5783 18.8641 17.2981 18.614C17.5646 18.5214 17.8238 18.4132 18.0746 18.2904C18.768 17.9508 19.397 17.5 19.9383 16.9611C19.9421 16.9574 19.9459 16.9536 19.9497 16.9497C19.9534 16.946 19.9572 16.9422 19.9611 16.9383C20.5004 16.3966 20.9515 15.767 21.2912 15.073C21.4134 14.8233 21.5212 14.5652 21.6134 14.2999C21.8639 13.5795 22 12.8057 22 12C22 11.1948 21.864 10.4214 21.6139 9.70137C21.5213 9.43501 21.4131 9.17596 21.2903 8.92532C20.9508 8.23194 20.5 7.60296 19.9611 7.06166C19.9574 7.05787 19.9536 7.05407 19.9497 7.05025C19.9459 7.0464 19.9421 7.04261 19.9383 7.03887C19.3972 6.50015 18.7683 6.0494 18.0751 5.70987C17.8241 5.58692 17.5647 5.47856 17.2979 5.38589C16.5781 5.13586 15.8049 5 15 5C14.2824 5 13.5899 5.10799 12.9381 5.30861C12.6552 5.39568 12.38 5.5002 12.1136 5.62091C12.0756 5.63816 12.0377 5.65573 12 5.67363C11.9623 5.65573 11.9245 5.63816 11.8864 5.62092C11.6197 5.50003 11.344 5.39537 11.0606 5.30822ZM8.96646 6.30008C8.94867 6.30019 8.93091 6.30037 8.91316 6.30064C5.80518 6.34705 3.3 8.88096 3.3 12C3.3 15.1368 5.83386 17.6818 8.96645 17.6999L8.97695 17.6999C8.98466 17.7 8.99234 17.7 9 17.7L9.01766 17.7C9.57608 17.6983 10.1156 17.6163 10.6253 17.4649C10.2211 17.141 9.85371 16.7732 9.53022 16.3686C9.21316 15.9722 8.93831 15.5405 8.71247 15.0804C8.25621 14.1509 8 13.1053 8 12C8 10.3475 8.57261 8.82875 9.53023 7.63133C9.85372 7.22682 10.2212 6.85899 10.6253 6.53506C10.1283 6.38748 9.60303 6.30585 9.05949 6.30029C9.03968 6.30009 9.01985 6.29999 9 6.29999C8.98881 6.29999 8.97763 6.30002 8.96646 6.30008ZM14.4698 7.63134C14.1463 7.22684 13.7788 6.859 13.3747 6.53507C13.8898 6.38212 14.4353 6.3 15 6.3C15.0112 6.3 15.0224 6.30003 15.0335 6.30009C16.591 6.30907 18.0005 6.9427 19.0242 7.96316C19.0263 7.96527 19.0284 7.96738 19.0305 7.96949C19.0326 7.97162 19.0348 7.97374 19.0369 7.97587C20.0646 9.00686 20.7 10.4292 20.7 12C20.7 13.5693 20.0659 14.9904 19.0399 16.0211C19.0367 16.0243 19.0336 16.0274 19.0305 16.0305C19.0274 16.0336 19.0243 16.0367 19.0211 16.0399C17.9977 17.0585 16.5895 17.6909 15.0335 17.6999C15.0224 17.7 15.0112 17.7 15 17.7C14.4353 17.7 13.8898 17.6179 13.3747 17.4649C13.7788 17.141 14.1463 16.7732 14.4698 16.3687C15.4274 15.1712 16 13.6525 16 12C16 10.3475 15.4274 8.82876 14.4698 7.63134Z"/></svg>