<svg xmlns="http://www.w3.org/2000/svg" fill="none" viewBox="0 0 24 24" focusable="false"><path fill="#74767B" fill-rule="evenodd" d="M12 9.6c1.82 0 3.3-1.48 3.3-3.3C15.3 4.47 13.82 3 12 3a3.299 3.299 0 1 0 0 6.6m0-1.3a2.006 2.006 0 0 0 0-4.01c-1.11 0-2.01.9-2.01 2.01 0 1.1.9 2 2.01 2M9.6 12A3.299 3.299 0 1 0 3 12c0 1.82 1.47 3.3 3.3 3.3 1.82 0 3.3-1.48 3.3-3.3M21 12c0-1.83-1.48-3.3-3.3-3.3a3.29 3.29 0 0 0-3.3 3.3c0 1.82 1.47 3.29 3.3 3.29 1.82 0 3.3-1.47 3.3-3.29M8.3 12c0-1.11-.9-2.01-2-2.01-1.11 0-2.01.9-2.01 2.01a2.006 2.006 0 0 0 4.01 0m11.4 0a2 2 0 0 0-2-2c-1.11 0-2 .89-2 2 0 1.1.89 1.99 2 1.99 1.1 0 2-.89 2-1.99M12 21a3.305 3.305 0 1 0-.01-6.61A3.305 3.305 0 0 0 12 21m0-1.3a2.006 2.006 0 1 0-2.01-2.01c0 1.11.9 2.01 2.01 2.01"/></svg>