<svg xmlns="http://www.w3.org/2000/svg" fill="none" viewBox="0 0 24 24" focusable="false"><path fill="#717681" fill-rule="evenodd" d="M15.3 6.3a3.3 3.3 0 1 1-6.6 0 3.3 3.3 0 0 1 6.6 0m-1.3 0a2 2 0 1 1-4 0 2 2 0 0 1 4 0M15.302 17.698a3.302 3.302 0 1 1-6.604 0 3.302 3.302 0 0 1 6.604 0m-1.3 0a2.002 2.002 0 1 1-4.004 0 2.002 2.002 0 0 1 4.004 0M9.6 12A3.3 3.3 0 1 0 3 12a3.3 3.3 0 0 0 6.6 0m-1.3 0a2 2 0 1 0-4 0 2 2 0 0 0 4 0M17.7 8.701a3.3 3.3 0 1 1 .001 6.598 3.3 3.3 0 0 1 0-6.598m0 1.3a1.999 1.999 0 1 1 .001 3.998 1.999 1.999 0 0 1 0-3.998" clip-rule="evenodd"/></svg>