<svg xmlns="http://www.w3.org/2000/svg" fill="none" viewBox="0 0 24 24" focusable="false"><defs><clipPath id="Create_pull_request_Solid_svg__a"><path fill="#fff" fill-opacity="0" d="M0 0h24v24H0z"/></clipPath></defs><g fill="#717681" fill-rule="evenodd" clip-path="url(#Create_pull_request_Solid_svg__a)"><path d="M14.23 2.97c.24.26.23.67-.03.92l-1.56 1.45H15A3.66 3.66 0 0 1 18.65 9v3.71c0 .36-.3.65-.65.65-.36 0-.65-.29-.65-.65V9c0-1.3-1.06-2.36-2.35-2.36h-2.38l1.58 1.51c.26.25.27.66.02.92-.24.26-.66.27-.92.02l-2.74-2.61a.65.65 0 0 1-.21-.48c0-.05 0-.1.01-.15.02-.07.04-.14.09-.2.02-.04.05-.07.08-.11.01-.01.02-.02.03-.02l2.75-2.58a.65.65 0 0 1 .92.03M6.64 8.93c0 .02.01.04.01.07v11.35c0 .36-.3.65-.65.65-.36 0-.65-.29-.65-.65V8.93A3.002 3.002 0 0 1 6 3c1.65 0 3 1.34 3 3a3.01 3.01 0 0 1-2.36 2.93M18 14.63c.35 0 .65.29.65.65v1.88h1.88c.36 0 .65.3.65.65 0 .36-.29.65-.65.65h-1.88v1.89c0 .36-.3.65-.65.65-.36 0-.65-.29-.65-.65v-1.89h-1.89c-.36 0-.65-.29-.65-.65 0-.35.29-.65.65-.65h1.89v-1.88c0-.36.29-.65.65-.65"/><path d="m14.03 4.04.17-.15c.26-.25.27-.66.03-.92a.65.65 0 0 0-.92-.03l-2.57 2.4-.18.18h-.01l-.02.02c-.03.04-.06.07-.08.11-.05.06-.07.13-.09.2-.01.05-.01.1-.01.15 0 .17.07.33.18.45l.03.03.18.16 2.56 2.45c.26.25.68.24.92-.02.25-.26.24-.67-.02-.92l-.22-.2-1.36-1.31H15c.64 0 1.23.27 1.65.69h.01v.01c.42.42.69 1.01.69 1.66v3.71c0 .29.19.55.47.62a.566.566 0 0 0 .36 0c.27-.07.47-.33.47-.62V9c0-.38-.06-.75-.17-1.1-.06-.2-.15-.39-.24-.58-.17-.34-.4-.64-.66-.9v-.01h-.01c-.26-.26-.56-.49-.9-.66A3.601 3.601 0 0 0 15 5.34h-2.36zm4.15 10.61c-.06-.02-.12-.02-.18-.02-.07 0-.13 0-.18.02-.28.08-.47.33-.47.63v1.88H15.46c-.36 0-.65.3-.65.65 0 .36.29.65.65.65h1.89v1.89c0 .36.29.65.65.65.35 0 .65-.29.65-.65v-1.89h1.88c.36 0 .65-.29.65-.65 0-.35-.29-.65-.65-.65h-1.88v-1.88c0-.3-.2-.55-.47-.63M6.66 8.92A3 3 0 0 0 9 6c0-1.66-1.35-3-3-3-1.66 0-3 1.34-3 3 0 1.42 1 2.62 2.33 2.92.01 0 .01 0 .02.01v11.42c0 .36.29.65.65.65.35 0 .65-.29.65-.65V9c0-.03-.01-.05-.01-.07.01-.01.01-.01.02-.01M6 7.74l.36-.08q.13-.03.25-.08.15-.06.28-.14.12-.07.22-.16.11-.1.2-.21.19-.23.29-.5.09-.27.09-.57 0-.21-.04-.41-.03-.13-.09-.26t-.13-.25q-.1-.16-.23-.29-.13-.13-.29-.23-.12-.07-.25-.13t-.26-.09q-.2-.05-.4-.05-.21 0-.41.05-.13.03-.26.09t-.25.13q-.16.1-.29.23-.13.13-.23.29-.07.12-.13.25t-.09.26q-.04.2-.04.41 0 .3.09.57.1.27.29.5.09.11.2.21.1.09.22.16.13.08.28.14.12.05.25.08z"/></g></svg>