<svg xmlns="http://www.w3.org/2000/svg" fill="none" viewBox="0 0 24 24" focusable="false"><path d="M0 0H24V24H0z"/><path fill="#74767B" fill-rule="evenodd" d="M14.2015 3.89402C14.4636 3.64873 14.4773 3.2374 14.232 2.97528C13.9867 2.71317 13.5754 2.69952 13.3132 2.94481L10.5612 5.52013C10.5509 5.5296 10.5408 5.53946 10.5309 5.54971C10.5001 5.58186 10.4731 5.61646 10.4501 5.6529C10.4097 5.71685 10.3816 5.78621 10.3657 5.85767C10.3555 5.90347 10.3501 5.9511 10.3501 5.99998C10.3501 6.19297 10.4342 6.36631 10.5678 6.48535L13.3088 9.09798C13.5687 9.34566 13.9801 9.33578 14.2278 9.07593C14.4755 8.81607 14.4656 8.40463 14.2058 8.15695L12.6247 6.64998L15.0001 6.64998C16.298 6.64998 17.3501 7.70211 17.3501 8.99998L17.3501 12.7135C17.3501 13.0725 17.6411 13.3635 18.0001 13.3635C18.3591 13.3635 18.6501 13.0725 18.6501 12.7135L18.6501 8.99998C18.6501 6.98414 17.0159 5.34998 15.0001 5.34998L12.6456 5.34998L14.2015 3.89402ZM5.3538 8.93023C4.00754 8.63469 3 7.43501 3 6.00001C3 4.34315 4.34315 3.00001 6 3.00001C7.65685 3.00001 9 4.34315 9 6.00001C9 7.43494 7.99256 8.63458 6.64639 8.93019C6.64884 8.95312 6.6501 8.97641 6.6501 8.99998L6.6501 20.359C6.6501 20.718 6.35908 21.009 6.0001 21.009C5.64111 21.009 5.3501 20.718 5.3501 20.359L5.3501 8.99998C5.3501 8.97642 5.35135 8.95315 5.3538 8.93023ZM7.7 6.00001C7.7 6.93889 6.93888 7.70001 6 7.70001C5.06112 7.70001 4.3 6.93889 4.3 6.00001C4.3 5.06112 5.06112 4.30001 6 4.30001C6.93888 4.30001 7.7 5.06112 7.7 6.00001ZM18.6501 15.2801C18.6501 14.9211 18.3591 14.6301 18.0001 14.6301C17.6411 14.6301 17.3501 14.9211 17.3501 15.2801L17.3501 17.1696L15.4605 17.1696C15.1015 17.1696 14.8105 17.4606 14.8105 17.8196C14.8105 18.1785 15.1015 18.4696 15.4605 18.4696L17.3501 18.4696L17.3501 20.3591C17.3501 20.7181 17.6411 21.0091 18.0001 21.0091C18.3591 21.0091 18.6501 20.7181 18.6501 20.3591L18.6501 18.4696L20.5395 18.4696C20.8984 18.4696 21.1895 18.1785 21.1895 17.8196C21.1895 17.4606 20.8984 17.1696 20.5395 17.1696L18.6501 17.1696L18.6501 15.2801Z"/></svg>