<svg xmlns="http://www.w3.org/2000/svg" fill="none" viewBox="0 0 24 24" focusable="false"><path fill="#74767B" fill-rule="evenodd" d="M18 2.98c.36 0 .65.29.65.65v1.71h1.71c.36 0 .65.3.65.65 0 .36-.29.65-.65.65h-1.71v1.72c0 .36-.29.65-.65.65s-.65-.29-.65-.65V6.64h-1.71c-.36 0-.65-.29-.65-.65 0-.35.29-.65.65-.65h1.71V3.63c0-.36.29-.65.65-.65m-5.33 3.67c-1.3 0-2.35 1.05-2.35 2.35v6.01c0 1.29 1.05 2.35 2.35 2.35h6.06l-1.59-1.52a.65.65 0 0 1-.02-.92c.24-.26.66-.27.92-.02l3.25 3.1-3.26 3.05a.64.64 0 0 1-.92-.03.66.66 0 0 1 .03-.92l1.55-1.44h-6.02c-2.02 0-3.65-1.64-3.65-3.65v-2.36H3.64c-.36 0-.65-.29-.65-.65s.29-.65.65-.65h5.38V9c0-2.02 1.63-3.65 3.65-3.65h.42c.36 0 .65.29.65.65s-.29.65-.65.65z"/></svg>