<svg xmlns="http://www.w3.org/2000/svg" fill="none" viewBox="0 0 24 24" focusable="false"><path fill="#74767B" fill-rule="evenodd" d="M14.23 2.97c.24.26.23.67-.03.92l-1.56 1.45H15A3.66 3.66 0 0 1 18.65 9v3.71c0 .36-.3.65-.65.65-.36 0-.65-.29-.65-.65V9c0-1.3-1.06-2.36-2.35-2.36h-2.38l1.58 1.51c.26.25.27.66.02.92-.24.26-.66.27-.92.02l-2.74-2.61a.65.65 0 0 1-.21-.48c0-.05 0-.1.01-.15.02-.07.04-.14.09-.2.02-.04.05-.07.08-.11.01-.01.02-.02.03-.02l2.75-2.58a.65.65 0 0 1 .92.03M5.35 8.93A3.002 3.002 0 0 1 6 3c1.65 0 3 1.34 3 3a3.01 3.01 0 0 1-2.36 2.93c0 .02.01.04.01.07v11.35c0 .36-.3.65-.65.65-.36 0-.65-.29-.65-.65V8.93M7.69 6c0 .93-.76 1.7-1.69 1.7a1.705 1.705 0 0 1 0-3.41c.93 0 1.69.77 1.69 1.71m10.96 9.28c0-.36-.3-.65-.65-.65-.36 0-.65.29-.65.65v1.88h-1.89c-.36 0-.65.3-.65.65 0 .36.29.65.65.65h1.89v1.89c0 .36.29.65.65.65.35 0 .65-.29.65-.65v-1.89h1.88c.36 0 .65-.29.65-.65 0-.35-.29-.65-.65-.65h-1.88z"/></svg>