<svg xmlns="http://www.w3.org/2000/svg" fill="none" viewBox="0 0 24 24" focusable="false"><path fill="#717681" d="M18 2.81a.65.65 0 0 1 .65.65v1.89h1.89a.65.65 0 0 1 0 1.3h-1.89v1.89a.65.65 0 1 1-1.3 0V6.65h-1.89a.65.65 0 1 1 0-1.3h1.89V3.46a.65.65 0 0 1 .65-.65"/><path fill="#717681" fill-rule="evenodd" d="M9 6a3.001 3.001 0 0 1-2.354 2.93.66.66 0 0 1 .004.07v6.07a3.004 3.004 0 0 1 2.284 2.301H15a2.35 2.35 0 0 0 2.35-2.35v-3.88a.65.65 0 1 1 1.3 0v3.88a3.65 3.65 0 0 1-3.65 3.65H8.925a3.001 3.001 0 1 1-3.575-3.6V9a.66.66 0 0 1 .004-.07A3.001 3.001 0 1 1 9 6M6 7.7a1.7 1.7 0 1 0 0-3.4 1.7 1.7 0 0 0 0 3.4M7.7 18a1.7 1.7 0 1 1-3.4 0 1.7 1.7 0 0 1 3.4 0" clip-rule="evenodd"/></svg>