<svg xmlns="http://www.w3.org/2000/svg" fill="none" viewBox="0 0 24 24" focusable="false"><path d="M0 0H24V24H0z"/><path fill="#74767B" fill-rule="evenodd" d="M18 2.81055C18.359 2.81055 18.65 3.10156 18.65 3.46055L18.65 5.3501L20.5396 5.3501C20.8985 5.3501 21.1896 5.64111 21.1896 6.0001C21.1896 6.35908 20.8985 6.6501 20.5396 6.6501L18.65 6.6501L18.65 8.5395C18.65 8.89848 18.359 9.1895 18 9.1895C17.641 9.1895 17.35 8.89848 17.35 8.5395L17.35 6.6501L15.4606 6.6501C15.1016 6.6501 14.8106 6.35908 14.8106 6.0001C14.8106 5.64111 15.1016 5.3501 15.4606 5.3501L17.35 5.3501L17.35 3.46055C17.35 3.10156 17.641 2.81055 18 2.81055ZM6.6463 8.93018C7.99251 8.63461 9 7.43495 9 5.99998C9 4.34312 7.65685 2.99998 6 2.99998C4.34315 2.99998 3 4.34312 3 5.99998C3 7.43495 4.00749 8.63461 5.3537 8.93018C5.35126 8.95311 5.35 8.9764 5.35 8.99998L5.35 15.0706C4.00564 15.3675 3 16.5663 3 18C3 19.6568 4.34315 21 6 21C7.42617 21 8.61991 20.0048 8.92467 18.671L15 18.671C17.0158 18.671 18.65 17.0368 18.65 15.021L18.65 11.1418C18.65 10.7828 18.359 10.4918 18 10.4918C17.641 10.4918 17.35 10.7828 17.35 11.1418L17.35 15.021C17.35 16.3189 16.2979 17.371 15 17.371L8.93396 17.371C8.68967 16.226 7.79206 15.3229 6.65 15.0706L6.65 8.99998C6.65 8.9764 6.64874 8.95311 6.6463 8.93018ZM7.7 5.99998C7.7 6.93886 6.93888 7.69998 6 7.69998C5.06112 7.69998 4.3 6.93886 4.3 5.99998C4.3 5.06109 5.06112 4.29998 6 4.29998C6.93888 4.29998 7.7 5.06109 7.7 5.99998ZM6 19.7C6.93888 19.7 7.7 18.9389 7.7 18C7.7 17.0611 6.93888 16.3 6 16.3C5.06112 16.3 4.3 17.0611 4.3 18C4.3 18.9389 5.06112 19.7 6 19.7Z"/></svg>