<svg xmlns="http://www.w3.org/2000/svg" fill="none" viewBox="0 0 24 24" focusable="false"><mask id="Create_pull_request_Solid_svg__a" fill="#fff"><path d="M14.232 2.975a.65.65 0 0 1-.03.919L12.645 5.35H15A3.65 3.65 0 0 1 18.65 9v3.714a.65.65 0 1 1-1.3 0V9A2.35 2.35 0 0 0 15 6.65h-2.375l1.58 1.507a.65.65 0 0 1-.896.941l-2.741-2.613a.65.65 0 0 1-.007-.965l2.752-2.575a.65.65 0 0 1 .919.03M6.646 8.93 6.65 9v11.359a.65.65 0 1 1-1.3 0V9q0-.036.004-.07a3.001 3.001 0 1 1 1.292 0M18.65 15.28a.65.65 0 1 0-1.3 0v1.89h-1.89a.65.65 0 1 0 0 1.3h1.89v1.889a.65.65 0 1 0 1.3 0v-1.89h1.89a.65.65 0 0 0 0-1.3h-1.89z"/></mask><path fill="#717681" d="M14.232 2.975a.65.65 0 0 1-.03.919L12.645 5.35H15A3.65 3.65 0 0 1 18.65 9v3.714a.65.65 0 1 1-1.3 0V9A2.35 2.35 0 0 0 15 6.65h-2.375l1.58 1.507a.65.65 0 0 1-.896.941l-2.741-2.613a.65.65 0 0 1-.007-.965l2.752-2.575a.65.65 0 0 1 .919.03M6.646 8.93 6.65 9v11.359a.65.65 0 1 1-1.3 0V9q0-.036.004-.07a3.001 3.001 0 1 1 1.292 0M18.65 15.28a.65.65 0 1 0-1.3 0v1.89h-1.89a.65.65 0 1 0 0 1.3h1.89v1.889a.65.65 0 1 0 1.3 0v-1.89h1.89a.65.65 0 0 0 0-1.3h-1.89z"/><path stroke="#717681" stroke-width="2.6" d="M14.232 2.975a.65.65 0 0 1-.03.919L12.645 5.35H15A3.65 3.65 0 0 1 18.65 9v3.714a.65.65 0 1 1-1.3 0V9A2.35 2.35 0 0 0 15 6.65h-2.375l1.58 1.507a.65.65 0 0 1-.896.941l-2.741-2.613a.65.65 0 0 1-.007-.965l2.752-2.575a.65.65 0 0 1 .919.03Z" mask="url(#Create_pull_request_Solid_svg__a)"/><path stroke="#717681" stroke-width="2.6" d="M6.646 8.93 6.65 9v11.359a.65.65 0 1 1-1.3 0V9q0-.036.004-.07a3.001 3.001 0 1 1 1.292 0Z" mask="url(#Create_pull_request_Solid_svg__a)"/><path stroke="#717681" stroke-width="2.6" d="M18.65 15.28a.65.65 0 1 0-1.3 0v1.89h-1.89a.65.65 0 1 0 0 1.3h1.89v1.889a.65.65 0 1 0 1.3 0v-1.89h1.89a.65.65 0 0 0 0-1.3h-1.89z" mask="url(#Create_pull_request_Solid_svg__a)"/></svg>