<svg xmlns="http://www.w3.org/2000/svg" width="24" height="24" fill="none"><path fill="#717681" d="M18.654 3.638a.65.65 0 1 0-1.3 0V5.35h-1.711a.65.65 0 1 0 0 1.3h1.712v1.712a.65.65 0 1 0 1.3 0V6.65h1.711a.65.65 0 1 0 0-1.3h-1.712V3.638ZM10.322 9.004a2.35 2.35 0 0 1 2.35-2.35h.425a.65.65 0 1 0 0-1.3h-.425a3.65 3.65 0 0 0-3.65 3.65v2.353H3.644a.65.65 0 1 0 0 1.3h5.378v2.354a3.65 3.65 0 0 0 3.65 3.65h6.025l-1.549 1.449a.65.65 0 1 0 .889.949l3.26-3.05-3.256-3.103a.65.65 0 1 0-.897.94l1.588 1.514h-6.06a2.35 2.35 0 0 1-2.35-2.35V9.004Z"/></svg>