<svg xmlns="http://www.w3.org/2000/svg" width="24" height="24" fill="none"><path fill="#717681" d="M9 10.293a.7.7 0 1 0 0-1.4.7.7 0 0 0 0 1.4ZM15.002 15.107a.7.7 0 1 0 0-1.4.7.7 0 0 0 0 1.4Z"/><path fill="#717681" fill-rule="evenodd" d="M8.14 1.95a.65.65 0 0 1 .65.65v1.39h2.56V2.6a.65.65 0 1 1 1.3 0v1.39h2.55V2.6a.65.65 0 1 1 1.3 0v1.39h.5c1.65 0 3 1.34 3 3V17c0 1.66-1.34 3-3 3H7c-1.66 0-3-1.34-3-3V6.99c0-1.66 1.34-3 3-3h.49V2.6a.65.65 0 0 1 .65-.65ZM9 11.593a2 2 0 1 0 0-4 2 2 0 0 0 0 4Zm6.506-2.19a.65.65 0 0 0-.922-.915L8.58 14.53a.65.65 0 1 0 .922.916l6.004-6.042Zm-.504 7.004a2 2 0 1 0 0-4 2 2 0 0 0 0 4Z" clip-rule="evenodd"/></svg>