<svg xmlns="http://www.w3.org/2000/svg" fill="none" viewBox="0 0 24 24" focusable="false"><defs><clipPath id="Credit_Solid_svg__a"><path fill="#fff" fill-opacity="0" d="M0 0h24v24H0z"/></clipPath></defs><g clip-path="url(#Credit_Solid_svg__a)"><path fill="#717681" fill-rule="evenodd" d="M8.79 2.6a.655.655 0 0 0-1.31 0v1.38H7c-1.67 0-3 1.35-3 3V17c0 1.66 1.33 3 3 3h10c1.66 0 3-1.34 3-3V6.98c0-1.65-1.36-3-3-3h-.5V2.6c0-.36-.3-.65-.65-.65-.36 0-.65.29-.65.65v1.38h-2.56V2.6c0-.36-.29-.65-.64-.65-.36 0-.65.29-.65.65v1.38H8.79zM11 9.59a2 2 0 1 1-4 0c0-1.11.89-2 2-2a2 2 0 0 1 2 2m4.5-1.11c.25.25.25.66 0 .92l-6 6.04a.64.64 0 0 1-.92 0 .64.64 0 0 1 0-.92l6-6.04c.25-.25.66-.25.92 0M9 10.29c.38 0 .7-.32.7-.7 0-.39-.32-.7-.7-.7-.39 0-.71.31-.71.7 0 .38.32.7.71.7m8 4.11a2 2 0 0 1-2 2c-1.11 0-2-.89-2-2a2 2 0 1 1 4 0m-2 .7c.38 0 .7-.31.7-.7 0-.38-.32-.7-.7-.7-.39 0-.7.32-.7.7 0 .39.31.7.7.7"/></g></svg>