<svg xmlns="http://www.w3.org/2000/svg" fill="none" viewBox="0 0 24 24" focusable="false"><path fill="#717681" d="M9 10.293a.7.7 0 1 0 0-1.4.7.7 0 0 0 0 1.4M15.002 15.107a.7.7 0 1 0 0-1.4.7.7 0 0 0 0 1.4"/><path fill="#717681" fill-rule="evenodd" d="M8.14 1.95a.65.65 0 0 1 .65.65v1.39h2.56V2.6a.65.65 0 1 1 1.3 0v1.39h2.55V2.6a.65.65 0 1 1 1.3 0v1.39h.5c1.65 0 3 1.34 3 3V17c0 1.66-1.34 3-3 3H7c-1.66 0-3-1.34-3-3V6.99c0-1.66 1.34-3 3-3h.49V2.6a.65.65 0 0 1 .65-.65M9 11.593a2 2 0 1 0 0-4 2 2 0 0 0 0 4m6.506-2.19a.65.65 0 0 0-.922-.915L8.58 14.53a.65.65 0 1 0 .922.916zm-.504 7.004a2 2 0 1 0 0-4 2 2 0 0 0 0 4" clip-rule="evenodd"/></svg>