<svg xmlns="http://www.w3.org/2000/svg" width="24" height="24" fill="none"><path fill="#717681" fill-rule="evenodd" d="M9 12.672a2 2 0 1 0 0-4 2 2 0 0 0 0 4Zm0-1.3a.7.7 0 1 0 0-1.4.7.7 0 0 0 0 1.4Z" clip-rule="evenodd"/><path fill="#717681" d="M15.506 10.483a.65.65 0 0 0-.922-.916l-6.003 6.042a.65.65 0 1 0 .922.916l6.003-6.042Z"/><path fill="#717681" fill-rule="evenodd" d="M17.003 15.486a2 2 0 1 1-4 0 2 2 0 0 1 4 0Zm-1.3 0a.7.7 0 1 1-1.4 0 .7.7 0 0 1 1.4 0Z" clip-rule="evenodd"/><path fill="#717681" fill-rule="evenodd" d="M8.79 2.6a.65.65 0 0 0-1.3 0v1.39H7c-1.66 0-3 1.34-3 3V17c0 1.66 1.34 3 3 3h10c1.66 0 3-1.34 3-3V6.99c0-1.66-1.35-3-3-3h-.5V2.6a.65.65 0 1 0-1.3 0v1.39h-2.55V2.6a.65.65 0 1 0-1.3 0v1.39H8.79V2.6Zm-1.3 2.69v1.57a.65.65 0 1 0 1.3 0V5.29h2.56v1.57a.65.65 0 1 0 1.3 0V5.29h2.55v1.57a.65.65 0 1 0 1.3 0V5.29h.5c.94 0 1.7.76 1.7 1.7V17c0 .94-.76 1.7-1.7 1.7H7c-.94 0-1.7-.76-1.7-1.7V6.99c0-.94.76-1.7 1.7-1.7h.49Z" clip-rule="evenodd"/></svg>