<svg xmlns="http://www.w3.org/2000/svg" fill="none" viewBox="0 0 24 24" focusable="false"><defs><clipPath id="Credit_Outline_svg__a"><path fill="#fff" fill-opacity="0" d="M0 0h24v24H0z"/></clipPath></defs><g clip-path="url(#Credit_Outline_svg__a)"><path fill="#717681" fill-rule="evenodd" d="M8.14 1.95c.35 0 .65.29.65.65v1.38h2.56V2.6c0-.36.29-.65.65-.65.35 0 .64.29.64.65v1.38h2.56V2.6c0-.36.29-.65.65-.65.35 0 .65.29.65.65v1.38h.5c1.64 0 3 1.35 3 3V17c0 1.66-1.34 3-3 3H7c-1.67 0-3-1.34-3-3V6.98c0-1.65 1.33-3 3-3h.48V2.6c0-.36.3-.65.66-.65m-.66 4.9V5.29H7c-.94 0-1.71.75-1.71 1.69V17c0 .94.77 1.7 1.71 1.7h10c.93 0 1.7-.76 1.7-1.7V6.98c0-.94-.77-1.69-1.7-1.69h-.5v1.56c0 .36-.3.66-.65.66-.36 0-.65-.3-.65-.66V5.29h-2.56v1.56c0 .36-.29.66-.64.66-.36 0-.65-.3-.65-.66V5.29H8.79v1.56c0 .36-.3.66-.65.66-.36 0-.66-.3-.66-.66M11 10.67a2 2 0 1 1-4 0c0-1.11.89-2 2-2a2 2 0 0 1 2 2m4.5-1.11c.25.25.25.66 0 .92l-6 6.04c-.26.25-.67.26-.92 0a.64.64 0 0 1 0-.92l6-6.04c.25-.25.66-.25.92 0m-5.8 1.11c0 .38-.32.7-.7.7-.39 0-.7-.32-.7-.7 0-.39.31-.7.7-.7.38 0 .7.31.7.7m7.3 4.81a2 2 0 0 1-2 2c-1.11 0-2-.89-2-2a2 2 0 1 1 4 0m-1.3 0c0 .39-.32.7-.7.7-.39 0-.7-.31-.7-.7s.31-.7.7-.7c.38 0 .7.31.7.7"/></g></svg>