<svg xmlns="http://www.w3.org/2000/svg" fill="none" viewBox="0 0 24 24" focusable="false"><defs><clipPath id="Cube_Outline_svg__a"><path fill="#fff" fill-opacity="0" d="M0 0h24v24H0z"/></clipPath></defs><g clip-path="url(#Cube_Outline_svg__a)"><path fill="#717681" fill-rule="evenodd" d="m10.79 4.25-5 2.18A3.003 3.003 0 0 0 4 9.18v6.08c0 1.19.7 2.27 1.79 2.75l5 2.18c.77.34 1.64.34 2.41 0l5-2.18c1.09-.48 1.8-1.56 1.8-2.75V9.18c0-1.19-.71-2.27-1.8-2.75l-5-2.18c-.77-.34-1.64-.34-2.41 0m.52 1.19-5 2.19c-.07.03-.15.07-.22.11-.17.11-.13.36.07.44l5.56 2.44c.16.07.35.07.52 0l5.59-2.44c.19-.08.24-.33.06-.44-.07-.04-.14-.08-.21-.11l-5-2.19c-.44-.19-.93-.19-1.37 0m-6.02 9.82V9.68c0-.21.23-.36.43-.27l5.48 2.4c.08.04.15.12.15.21v6.96c0 .02-.02.03-.04.02l-5-2.18c-.62-.27-1.02-.89-1.02-1.56m7.35 3.72c0 .02.02.03.04.02l5-2.18c.62-.27 1.02-.89 1.02-1.56V9.68c0-.22-.23-.36-.42-.28l-5.52 2.41c-.07.03-.12.09-.12.17z"/></g></svg>