<svg xmlns="http://www.w3.org/2000/svg" fill="none" viewBox="0 0 24 24" focusable="false"><defs><clipPath id="Cube_Solid_svg__a"><path fill="#fff" fill-opacity="0" d="M0 0h24v24H0z"/></clipPath></defs><g clip-path="url(#Cube_Solid_svg__a)"><path fill="#717681" fill-rule="evenodd" d="M13.18 4.25c-.77-.34-1.64-.34-2.41 0L5.09 6.74c-.24.11-.24.45 0 .55l6.37 2.79c.33.14.7.14 1.04 0l6.39-2.79c.24-.1.24-.44 0-.55zM4 9.3c0-.51.51-.85.97-.65l5.59 2.43c.47.2.78.67.78 1.19v7.4c0 .5-.52.84-.98.64l-4.57-2A3 3 0 0 1 4 15.56zm16 0c0-.51-.52-.85-.98-.64l-5.59 2.42c-.47.2-.78.67-.78 1.19v7.4c0 .5.52.84.98.64l4.57-2c1.09-.48 1.8-1.56 1.8-2.75z"/></g></svg>