<svg xmlns="http://www.w3.org/2000/svg" fill="none" viewBox="0 0 24 24" focusable="false"><path fill="#717681" fill-rule="evenodd" d="m6.541 19.156.056.045.001-.002A8.96 8.96 0 0 0 12 21a8.96 8.96 0 0 0 5.403-1.801l.002.002.13-.104a9 9 0 0 0 2.518-3.075 8.8 8.8 0 0 0 .859-2.727 9 9 0 0 0 .092-1.3H21a9 9 0 0 0-4.973-8.046v-.002a9 9 0 0 0-1.204-.498 8.8 8.8 0 0 0-3.127-.444 8.95 8.95 0 0 0-3.724.942l.001.002A9 9 0 0 0 3 11.994h-.002q0 .657.092 1.3c.114.79.331 1.56.655 2.297a9.03 9.03 0 0 0 2.796 3.565M8.555 5.112A7.7 7.7 0 0 0 4.3 11.995l4.7.002a3 3 0 0 1 1.659-2.68zM11.955 9h.092l2.186-4.371a7.7 7.7 0 0 0-2.492-.325 8 8 0 0 0-1.967.338zm1.38.312a3 3 0 0 1 1.667 2.689v-.003l4.698-.002a7.7 7.7 0 0 0-4.255-6.884l-2.102 4.204zm4.253 7.968-2.923-3.896.043-.086 4.884-.002a7.6 7.6 0 0 1-.721 2.184 7.9 7.9 0 0 1-1.283 1.8m-5.587-2.278c.676 0 1.3-.224 1.802-.6l2.82 3.757A7.67 7.67 0 0 1 12 19.7a7.67 7.67 0 0 1-4.621-1.54l2.82-3.76a3 3 0 0 0 1.802.602m-2.664-1.618-.043-.087-4.885-.002c.109.643.297 1.26.555 1.838a7.8 7.8 0 0 0 1.45 2.146zM13.702 12a1.701 1.701 0 1 1-3.402 0 1.701 1.701 0 0 1 3.402 0" clip-rule="evenodd"/></svg>