<svg xmlns="http://www.w3.org/2000/svg" fill="none" viewBox="0 0 24 24" focusable="false"><path fill="#717681" fill-rule="evenodd" d="m6.541 19.156.056.045.001-.002A8.96 8.96 0 0 0 12 21a8.96 8.96 0 0 0 5.403-1.801l.002.002.13-.104a9.037 9.037 0 0 0 2.518-3.075 8.758 8.758 0 0 0 .859-2.727 9.23 9.23 0 0 0 .092-1.3H21a9 9 0 0 0-4.973-8.046v-.002a9.23 9.23 0 0 0-1.204-.498 8.757 8.757 0 0 0-3.127-.444 8.954 8.954 0 0 0-3.724.942l.001.002A9 9 0 0 0 3 11.994h-.002c0 .438.031.872.092 1.3.114.79.331 1.56.655 2.297a9.031 9.031 0 0 0 2.796 3.565M8.555 5.112A7.7 7.7 0 0 0 4.3 11.995l4.7.002a3.001 3.001 0 0 1 1.659-2.68L8.555 5.111M11.955 9h.092l2.186-4.371a7.7 7.7 0 0 0-2.492-.325 7.929 7.929 0 0 0-1.967.338L11.954 9m1.38.312a3.001 3.001 0 0 1 1.667 2.689v-.003l4.698-.002a7.7 7.7 0 0 0-4.255-6.884l-2.102 4.204a2.21 2.21 0 0 0-.007-.004m4.253 7.968-2.923-3.896.043-.086 4.884-.002a7.643 7.643 0 0 1-.721 2.184 7.879 7.879 0 0 1-1.283 1.8m-5.587-2.278c.676 0 1.3-.224 1.802-.6l2.82 3.757A7.666 7.666 0 0 1 12 19.7a7.666 7.666 0 0 1-4.621-1.54l2.82-3.76a2.988 2.988 0 0 0 1.802.602m-2.664-1.618a2.867 2.867 0 0 1-.043-.087l-4.885-.002c.109.643.297 1.26.555 1.838a7.803 7.803 0 0 0 1.45 2.146l2.923-3.895M13.702 12a1.701 1.701 0 1 1-3.402 0 1.701 1.701 0 0 1 3.402 0" clip-rule="evenodd"/></svg>