<svg xmlns="http://www.w3.org/2000/svg" fill="none" viewBox="0 0 24 24" focusable="false"><path fill="#717681" fill-rule="evenodd" d="M11.999 3a9 9 0 1 0-.005 18 9 9 0 0 0 .008-18H12M8.556 5.111a7.7 7.7 0 0 0-4.256 6.86l4.7.017a3.001 3.001 0 0 1 1.659-2.672L8.556 5.111m4.786 4.205a3.001 3.001 0 0 1 1.66 2.674l4.698-.018a7.7 7.7 0 0 0-4.256-6.86l-2.102 4.204m.468 5.08c-.503.38-1.13.606-1.809.606-.68 0-1.307-.226-1.81-.607l-2.834 3.749A7.666 7.666 0 0 0 12 19.7c1.743 0 3.352-.58 4.642-1.556l-2.832-3.748M13.702 12a1.701 1.701 0 1 1-3.402 0 1.701 1.701 0 0 1 3.402 0" clip-rule="evenodd"/></svg>