<svg xmlns="http://www.w3.org/2000/svg" fill="none" viewBox="0 0 24 24" focusable="false"><path fill="#74767B" fill-rule="evenodd" d="m6.54 19.15.05.05v-.01a9 9 0 0 0 5.41 1.8c2.02 0 3.89-.67 5.4-1.8v.01c.04-.04.09-.07.13-.11a9.04 9.04 0 0 0 2.52-3.07 8.86 8.86 0 0 0 .95-4.03 9.03 9.03 0 0 0-4.98-8.05c-.39-.19-.79-.36-1.2-.5-1-.33-2.05-.48-3.13-.44-1.3.04-2.54.36-3.64.91-.03.01-.06.02-.08.03A9 9 0 0 0 3 11.99h-.01c0 .44.03.87.1 1.3.11.79.33 1.56.65 2.3a9.06 9.06 0 0 0 2.8 3.56M8.55 5.11a7.69 7.69 0 0 0-4.25 6.88H9c0-1.17.67-2.19 1.65-2.68zM11.95 9c.01 0 .03-.01.05-.01 0 0 .06.01.04.01l2.19-4.38c-.71-.21-1.46-.33-2.23-.33-.09 0-.18.01-.26.01-.65.03-1.31.14-1.97.34zm1.38.31C14.32 9.8 15 10.82 15 12v-.01h4.7a7.72 7.72 0 0 0-4.26-6.88l-2.1 4.2zm4.25 7.96-2.92-3.89.04-.09h4.89c-.13.77-.38 1.51-.72 2.18q-.495.96-1.29 1.8M12 15c.67 0 1.3-.23 1.8-.6l2.82 3.75a7.675 7.675 0 0 1-9.25 0l2.82-3.75c.51.37 1.13.6 1.81.6m-2.67-1.62c-.01-.03-.03-.06-.04-.09H4.4a7.572 7.572 0 0 0 2.01 3.98zM13.7 12c0 .94-.76 1.7-1.7 1.7s-1.71-.76-1.71-1.7.77-1.71 1.71-1.71 1.7.77 1.7 1.71"/></svg>