<svg xmlns="http://www.w3.org/2000/svg" fill="none" viewBox="0 0 24 24" focusable="false"><path fill="#717681" fill-rule="evenodd" d="M11.99 3C7.02 3 3 7.02 3 12c0 4.97 4.02 9 9 9a9 9 0 0 0 0-18v-.01zM8.55 5.11a7.69 7.69 0 0 0-4.25 6.86l4.7.01c0-1.17.67-2.18 1.65-2.67zm4.79 4.2c.98.49 1.65 1.5 1.66 2.67l4.7-.01a7.72 7.72 0 0 0-4.26-6.86zm.46 5.08c-.5.38-1.12.61-1.8.61s-1.31-.23-1.81-.61l-2.84 3.75c1.29.98 2.9 1.56 4.65 1.56 1.74 0 3.35-.58 4.64-1.56zM13.7 12c0 .94-.76 1.7-1.7 1.7s-1.71-.76-1.71-1.7.77-1.7 1.71-1.7 1.7.76 1.7 1.7"/></svg>