<svg xmlns="http://www.w3.org/2000/svg" fill="none" viewBox="0 0 24 24" focusable="false"><path fill="#717681" fill-rule="evenodd" d="M5.004 6.637a3.65 3.65 0 0 1 3.65-3.65h6.692a3.65 3.65 0 0 1 3.65 3.65V11a.65.65 0 1 1-1.3 0V6.637a2.35 2.35 0 0 0-2.35-2.35H13.3v1.376a1.3 1.3 0 0 1-2.6 0V4.287H8.654a2.35 2.35 0 0 0-2.35 2.35V7.5a.65.65 0 0 1-1.3 0zm5.017 2.702a1.324 1.324 0 0 1 1.53 2.153l-1.828 1.504a1.374 1.374 0 0 0 .614 2.41l1.437.276a3.65 3.65 0 0 0 1.681-.073l5.211-1.475a1.072 1.072 0 0 1 .731 2.008L12.68 19.16a2.35 2.35 0 0 1-1.409.164l-5.574-1.077A2.35 2.35 0 0 1 3.82 16.29l-.206-1.361a2.35 2.35 0 0 1 1.102-2.36zm2.872-.325a2.624 2.624 0 0 0-3.549-.786L4.038 11.46a3.65 3.65 0 0 0-1.71 3.664l.206 1.362a3.65 3.65 0 0 0 2.916 3.037l5.574 1.077a3.65 3.65 0 0 0 2.188-.254l6.718-3.017a2.372 2.372 0 0 0-1.618-4.445l-5.21 1.475a2.35 2.35 0 0 1-1.083.047l-1.437-.275a.074.074 0 0 1-.034-.13l1.829-1.504a2.624 2.624 0 0 0 .516-3.482" clip-rule="evenodd"/></svg>