<svg xmlns="http://www.w3.org/2000/svg" fill="none" viewBox="0 0 24 24" focusable="false"><defs><clipPath id="Delivery_Outline_svg__a"><path fill="#fff" fill-opacity="0" d="M0 0h24v24H0z"/></clipPath></defs><g clip-path="url(#Delivery_Outline_svg__a)"><path fill="#717681" fill-rule="evenodd" d="M5 6.63c0-2.01 1.63-3.65 3.65-3.65h6.69c2.02 0 3.65 1.64 3.65 3.65V11c0 .35-.29.65-.65.65-.36 0-.65-.3-.65-.65V6.63c0-1.3-1.05-2.35-2.35-2.35H13.3v1.38c0 .72-.59 1.3-1.3 1.3-.72 0-1.3-.58-1.3-1.3V4.28H8.65c-1.3 0-2.35 1.05-2.35 2.35v.86c0 .36-.29.65-.65.65-.36 0-.65-.29-.65-.65zm5.02 2.7c.6-.37 1.39-.19 1.79.4.37.57.26 1.33-.26 1.76l-1.83 1.5c-.46.38-.62 1-.41 1.56.17.44.56.76 1.02.85l1.44.28c.56.1 1.13.08 1.68-.08l5.21-1.47c.56-.16 1.14.15 1.32.71.16.52-.09 1.07-.59 1.3l-6.72 3.01c-.44.2-.93.26-1.4.17l-5.58-1.08c-.97-.19-1.73-.97-1.88-1.95l-.2-1.37c-.14-.93.29-1.86 1.1-2.36zm2.87-.32a2.63 2.63 0 0 0-3.55-.79l-5.31 3.23a3.67 3.67 0 0 0-1.71 3.67l.21 1.36c.23 1.53 1.4 2.74 2.92 3.04l5.57 1.07c.74.15 1.5.06 2.19-.25l6.71-3.02a2.37 2.37 0 0 0 1.3-2.87 2.372 2.372 0 0 0-2.91-1.57l-5.21 1.47c-.36.1-.73.12-1.09.05l-1.43-.28c-.03 0-.05-.02-.06-.04-.01-.03 0-.06.02-.08l1.83-1.51a2.62 2.62 0 0 0 .52-3.48"/></g></svg>