<svg xmlns="http://www.w3.org/2000/svg" fill="none" viewBox="0 0 24 24" focusable="false"><path fill="#717681" fill-rule="evenodd" d="M12 14.7a2.7 2.7 0 1 0 0-5.4 2.7 2.7 0 0 0 0 5.4m1-2.7a1 1 0 1 1-2 0 1 1 0 0 1 2 0" clip-rule="evenodd"/><path fill="#717681" fill-rule="evenodd" d="M4 7a3 3 0 0 1 3-3h10a3 3 0 0 1 3 3v10a3 3 0 0 1-3 3H7a3 3 0 0 1-3-3v-1.35H2.65a.65.65 0 1 1 0-1.3H4v-4.7H2.65a.65.65 0 0 1 0-1.3H4zm11.948 5.648a4.001 4.001 0 1 1 0-1.296L16 11.35h1a.65.65 0 1 1 0 1.3h-1q-.027 0-.052-.002" clip-rule="evenodd"/></svg>