<svg xmlns="http://www.w3.org/2000/svg" width="24" height="24" fill="none"><path fill="#717681" fill-rule="evenodd" d="M12 14.7a2.7 2.7 0 1 0 0-5.4 2.7 2.7 0 0 0 0 5.4Zm1-2.7a1 1 0 1 1-2 0 1 1 0 0 1 2 0Z" clip-rule="evenodd"/><path fill="#717681" fill-rule="evenodd" d="M4 7a3 3 0 0 1 3-3h10a3 3 0 0 1 3 3v10a3 3 0 0 1-3 3H7a3 3 0 0 1-3-3v-1.35H2.65a.65.65 0 1 1 0-1.3H4v-4.7H2.65a.65.65 0 0 1 0-1.3H4V7Zm11.948 5.648a4.001 4.001 0 1 1 0-1.296.643.643 0 0 1 .052-.002h1a.65.65 0 1 1 0 1.3h-1c-.018 0-.035 0-.052-.002Z" clip-rule="evenodd"/></svg>