<svg xmlns="http://www.w3.org/2000/svg" fill="none" viewBox="0 0 24 24" focusable="false"><defs><clipPath id="Desktop_Solid_svg__a"><path fill="#fff" fill-opacity="0" d="M0 0h24v24H0z"/></clipPath></defs><g clip-path="url(#Desktop_Solid_svg__a)"><path fill="#717681" fill-rule="evenodd" d="M3 7c0-1.66 1.34-3 3-3h12c1.65 0 3 1.34 3 3v7c0 1.65-1.35 3-3 3h-4v1.7h1.35c.36 0 .65.29.65.65 0 .35-.29.65-.65.65H8.64c-.35 0-.65-.3-.65-.65 0-.36.3-.65.65-.65H10V17H6c-1.66 0-3-1.35-3-3zm1.34 7.39c.18.75.85 1.31 1.66 1.31h12c.8 0 1.47-.56 1.65-1.31z"/></g></svg>