<svg xmlns="http://www.w3.org/2000/svg" fill="none" viewBox="0 0 24 24" focusable="false"><path fill="#717681" fill-rule="evenodd" d="M7 4a3 3 0 0 0-3 3v10a3 3 0 0 0 3 3h10a3 3 0 0 0 3-3V7a3 3 0 0 0-3-3zm6.277 5.827a.65.65 0 0 0-1.252-.347l-1.303 4.693a.65.65 0 1 0 1.253.347zM8.78 9.13c.269.234.31.659.095.95L7.444 12l1.43 1.92a.714.714 0 0 1-.095.95.592.592 0 0 1-.877-.102l-1.745-2.344a.719.719 0 0 1 0-.848l1.745-2.344a.592.592 0 0 1 .877-.102m6.35.949a.714.714 0 0 1 .095-.95.592.592 0 0 1 .877.103l1.742 2.345a.72.72 0 0 1 .005.84l-1.912 2.64a.592.592 0 0 1-.876.115.713.713 0 0 1-.106-.947l1.607-2.22z" clip-rule="evenodd"/></svg>