<svg xmlns="http://www.w3.org/2000/svg" fill="none" viewBox="0 0 24 24" focusable="false"><path fill="#717681" d="M13.271 10.12a.65.65 0 1 0-1.24-.389l-1.303 4.148a.65.65 0 1 0 1.24.39l1.303-4.148M9.6 9.433c.285.22.33.62.1.894L8.291 12l1.41 1.673a.617.617 0 0 1-.101.894.685.685 0 0 1-.934-.096L6.92 12.399a.614.614 0 0 1 0-.798L8.666 9.53a.685.685 0 0 1 .934-.096M14.3 10.327a.617.617 0 0 1 .1-.894.685.685 0 0 1 .934.096l1.745 2.072a.614.614 0 0 1 0 .798l-1.745 2.072a.685.685 0 0 1-.934.096.617.617 0 0 1-.1-.894L15.708 12l-1.41-1.673"/><path fill="#717681" fill-rule="evenodd" d="M4 7a3 3 0 0 1 3-3h10a3 3 0 0 1 3 3v10a3 3 0 0 1-3 3H7a3 3 0 0 1-3-3zm3-1.7h10A1.7 1.7 0 0 1 18.7 7v10a1.7 1.7 0 0 1-1.7 1.7H7A1.7 1.7 0 0 1 5.3 17V7A1.7 1.7 0 0 1 7 5.3" clip-rule="evenodd"/></svg>