<svg xmlns="http://www.w3.org/2000/svg" fill="none" viewBox="0 0 24 24" focusable="false"><path fill="#74767B" fill-rule="evenodd" d="M7 4C5.34 4 4 5.34 4 7v10c0 1.65 1.34 3 3 3h10c1.65 0 3-1.35 3-3V7c0-1.66-1.35-3-3-3zm6.27 5.82c.1-.34-.1-.7-.45-.8-.35-.09-.7.11-.8.45l-1.3 4.7c-.1.34.1.7.45.8.35.09.7-.11.8-.45zm-4.5-.7c.27.24.31.66.1.95L7.44 12l1.43 1.92c.21.29.17.71-.1.95-.26.23-.66.18-.87-.11l-1.75-2.34a.74.74 0 0 1 0-.85L7.9 9.23c.21-.29.61-.34.87-.11m6.35.95a.72.72 0 0 1 .1-.95c.27-.23.66-.18.88.11l1.74 2.34c.18.25.18.59 0 .84l-1.91 2.64c-.21.3-.6.35-.87.12-.28-.23-.32-.66-.11-.95L16.56 12z"/></svg>