<svg xmlns="http://www.w3.org/2000/svg" fill="none" viewBox="0 0 24 24" focusable="false"><path fill="#717681" fill-rule="evenodd" d="M7 4C5.34 4 4 5.34 4 7v10c0 1.65 1.34 3 3 3h10c1.65 0 3-1.35 3-3V7c0-1.66-1.35-3-3-3zm10 1.29H7c-.94 0-1.7.77-1.7 1.71v10c0 .93.76 1.7 1.7 1.7h10c.93 0 1.7-.77 1.7-1.7V7c0-.94-.77-1.71-1.7-1.71M12.84 9.3c.34.11.53.47.43.82l-1.31 4.14c-.1.35-.47.54-.81.43a.664.664 0 0 1-.43-.82l1.31-4.14c.1-.35.47-.54.81-.43M9.7 10.32c.23-.27.18-.67-.11-.89a.683.683 0 0 0-.93.09L6.92 11.6c-.2.23-.2.56 0 .79l1.74 2.08c.23.27.65.31.93.09.29-.22.34-.62.11-.89L8.29 12zm4.59 0a.62.62 0 0 1 .1-.89c.29-.22.71-.18.94.09l1.74 2.08c.2.23.2.56 0 .79l-1.74 2.08c-.23.27-.65.31-.94.09a.62.62 0 0 1-.1-.89L15.7 12z"/></svg>