<svg xmlns="http://www.w3.org/2000/svg" fill="none" viewBox="0 0 24 24" focusable="false"><path fill="#717681" d="M19 17.5a1.5 1.5 0 1 1-3 0 1.5 1.5 0 0 1 3 0"/><path fill="#717681" fill-rule="evenodd" d="M16.038 13.766c.064-.44.46-.766.926-.766h1.009c.46 0 .853.32.924.752.091.559.72.895 1.28.679a.96.96 0 0 1 1.162.378l.504.83a.858.858 0 0 1-.224 1.135.862.862 0 0 0 .02 1.391c.369.272.47.76.236 1.144l-.505.83a.96.96 0 0 1-1.148.383c-.585-.215-1.229.138-1.325.726-.07.433-.463.752-.924.752h-1.01c-.466 0-.861-.327-.925-.766-.084-.568-.704-.916-1.26-.712a.96.96 0 0 1-1.148-.384l-.505-.829a.858.858 0 0 1 .236-1.144.862.862 0 0 0 .02-1.391.858.858 0 0 1-.224-1.136l.504-.829a.96.96 0 0 1 1.162-.378c.537.207 1.135-.121 1.215-.665m1.127.747a.343.343 0 0 1 .307-.213c.134 0 .25.087.306.21.423.94 1.467 1.42 2.443 1.25a.23.23 0 0 1 .237.103.231.231 0 0 1-.021.263 2.16 2.16 0 0 0 .026 2.701c.061.075.074.18.024.263a.228.228 0 0 1-.233.102c-1.004-.166-2.058.341-2.48 1.304a.329.329 0 0 1-.296.204h-.013a.33.33 0 0 1-.296-.206c-.407-.946-1.436-1.458-2.422-1.3a.229.229 0 0 1-.233-.104.23.23 0 0 1 .023-.263 2.16 2.16 0 0 0 .026-2.7.232.232 0 0 1-.02-.264.23.23 0 0 1 .236-.103c.962.162 1.979-.322 2.386-1.247" clip-rule="evenodd"/><path fill="#717681" d="M19.153 12.007c.405.122.847-.161.847-.584V7a3 3 0 0 0-3-3H7a3 3 0 0 0-3 3v10a3 3 0 0 0 3 3h4.424c.422 0 .705-.442.583-.847a.62.62 0 0 0-.58-.453H7A1.7 1.7 0 0 1 5.3 17V7A1.7 1.7 0 0 1 7 5.3h10A1.7 1.7 0 0 1 18.7 7v4.428c0 .27.194.501.453.58"/><path fill="#717681" d="M12.846 9.306a.65.65 0 0 1 .425.815l-1.302 4.148a.65.65 0 0 1-1.24-.39l1.302-4.148a.65.65 0 0 1 .815-.425M9.6 9.433c.286.22.33.62.1.894L8.291 12l1.41 1.673a.617.617 0 0 1-.101.894.685.685 0 0 1-.934-.096L6.92 12.399a.614.614 0 0 1 0-.798L8.666 9.53a.685.685 0 0 1 .934-.096M14.296 10.322a.617.617 0 0 1 .109-.892.685.685 0 0 1 .933.104l1.27 1.536a.617.617 0 0 1-.11.893.685.685 0 0 1-.932-.104l-1.27-1.537"/></svg>