<svg xmlns="http://www.w3.org/2000/svg" fill="none" viewBox="0 0 24 24" focusable="false"><path fill="#74767B" fill-rule="evenodd" d="M19.15 12c.4.12.85-.16.85-.58V7c0-1.66-1.35-3-3-3H7C5.34 4 4 5.34 4 7v10c0 1.65 1.34 3 3 3h4.42c.42 0 .7-.45.58-.85a.62.62 0 0 0-.58-.45H7c-.94 0-1.7-.77-1.7-1.7V7c0-.94.76-1.71 1.7-1.71h10c.93 0 1.7.77 1.7 1.71v4.42c0 .27.19.5.45.58m-5.88-1.88c.1-.35-.09-.71-.43-.82a.64.64 0 0 0-.81.43l-1.31 4.14c-.1.35.09.71.43.82s.71-.08.81-.43zm1.13-.7c-.29.22-.34.62-.11.9l1.27 1.53c.23.28.65.33.93.11.29-.22.34-.62.11-.89l-1.27-1.54c-.22-.28-.64-.32-.93-.11m-4.81.01c.29.22.34.62.11.89L8.29 12l1.41 1.67c.23.27.18.67-.11.89-.28.22-.7.18-.93-.09l-1.74-2.08c-.2-.23-.2-.56 0-.79l1.74-2.08c.23-.27.65-.31.93-.09M16.96 13c-.47 0-.86.32-.93.76-.08.54-.68.87-1.21.67-.43-.17-.93-.01-1.16.37l-.51.83c-.23.38-.13.86.23 1.14.46.35.45 1.04-.02 1.39-.37.27-.47.76-.24 1.14l.5.83c.24.38.72.55 1.15.39.56-.21 1.18.14 1.26.71.07.44.46.77.93.77h1.01c.46 0 .85-.32.92-.76.1-.58.74-.94 1.33-.72.43.16.91-.01 1.15-.39l.5-.83c.23-.38.13-.87-.24-1.14a.867.867 0 0 1-.02-1.39c.36-.28.46-.76.23-1.14l-.51-.83c-.23-.38-.73-.54-1.16-.37-.56.21-1.19-.12-1.28-.68-.07-.44-.46-.75-.92-.75zm.51 1.3c-.14 0-.26.08-.31.21-.41.92-1.42 1.41-2.39 1.24a.24.24 0 0 0-.23.11c-.05.08-.04.19.02.26.63.8.61 1.92-.03 2.7-.06.08-.07.18-.02.27.05.07.14.11.23.1.99-.16 2.02.35 2.42 1.3.06.12.17.21.3.21h.01c.13 0 .25-.09.3-.21.42-.96 1.48-1.47 2.48-1.3.09.01.18-.03.23-.11s.04-.18-.02-.26c-.64-.78-.66-1.9-.03-2.7.06-.07.07-.18.02-.26a.215.215 0 0 0-.23-.1c-.98.16-2.02-.32-2.45-1.26a.33.33 0 0 0-.3-.2m.03 4.7c.82 0 1.5-.68 1.5-1.5 0-.83-.68-1.5-1.5-1.5-.83 0-1.5.67-1.5 1.5 0 .82.67 1.5 1.5 1.5"/></svg>