<svg xmlns="http://www.w3.org/2000/svg" fill="none" viewBox="0 0 24 24" focusable="false"><path d="M0 0H24V24H0z"/><path fill="#74767B" fill-rule="evenodd" d="M4 7C4 5.34315 5.34315 4 7 4L17 4C18.6569 4 20 5.34315 20 7L20 11.3072C20 11.5287 19.7675 11.675 19.5609 11.5952C18.9413 11.3559 18.2703 11.2199 17.5691 11.2083L16.1006 9.23243C15.8847 8.94188 15.492 8.89583 15.2236 9.12957C14.9552 9.36331 14.9126 9.78834 15.1286 10.0789L16.0902 11.3727C13.5519 11.9922 11.668 14.2813 11.668 17.0103C11.668 17.9145 11.8748 18.7704 12.2437 19.5333C12.3453 19.7435 12.1989 20 11.9655 20L7 20C5.34315 20 4 18.6569 4 17L4 7ZM8.77938 9.12989C9.04765 9.36384 9.08991 9.78891 8.87377 10.0793L7.44412 12L8.87377 13.9207C9.08991 14.2111 9.04765 14.6362 8.77938 14.8701C8.51112 15.1041 8.11843 15.0583 7.90229 14.768L6.15733 12.4236C5.97327 12.1763 5.97327 11.8237 6.15733 11.5764L7.90229 9.23205C8.11843 8.94167 8.51112 8.89593 8.77938 9.12989ZM13.2774 9.82731C13.3734 9.4814 13.1708 9.12316 12.8249 9.02716C12.479 8.93116 12.1207 9.13375 12.0247 9.47966L10.7223 14.1727C10.6263 14.5186 10.8289 14.8768 11.1748 14.9728C11.5207 15.0688 11.879 14.8662 11.975 14.5203L13.2774 9.82731ZM16.9342 12.5143C16.4673 12.5143 16.0719 12.841 16.0077 13.2799C15.9281 13.8241 15.33 14.1518 14.7935 13.9451C14.3609 13.7784 13.8651 13.94 13.6316 14.3237L13.1273 15.1527C12.8967 15.5317 12.9917 16.0137 13.3511 16.2881C13.8158 16.6428 13.8081 17.3271 13.331 17.6795C12.9626 17.9517 12.8621 18.44 13.0956 18.8237L13.5999 19.6527C13.8305 20.0317 14.3179 20.1947 14.7479 20.0365C15.304 19.832 15.9246 20.1804 16.0077 20.7487C16.0719 21.1876 16.4673 21.5143 16.9342 21.5143L17.9428 21.5143C18.404 21.5143 18.7964 21.1952 18.8671 20.7627C18.9632 20.1745 19.6077 19.8214 20.1925 20.0365C20.6226 20.1947 21.1099 20.0317 21.3405 19.6527L21.8448 18.8237C22.0783 18.44 21.9778 17.9517 21.6094 17.6795C21.1323 17.3271 21.1247 16.6428 21.5894 16.2881C21.9487 16.0137 22.0437 15.5317 21.8131 15.1527L21.3088 14.3237C21.0754 13.94 20.5795 13.7784 20.1469 13.9451C19.5867 14.161 18.9585 13.8252 18.8671 13.2658C18.7964 12.8333 18.404 12.5143 17.9428 12.5143L16.9342 12.5143ZM18.9702 17.0143C18.9702 17.8427 18.2986 18.5143 17.4702 18.5143C16.6418 18.5143 15.9702 17.8427 15.9702 17.0143C15.9702 16.1859 16.6418 15.5143 17.4702 15.5143C18.2986 15.5143 18.9702 16.1859 18.9702 17.0143Z"/></svg>