<svg xmlns="http://www.w3.org/2000/svg" fill="none" viewBox="0 0 24 24" focusable="false"><defs><clipPath id="DevOps_Engineer_Solid_svg__a"><path fill="#fff" fill-opacity="0" d="M0 0h24v24H0z"/></clipPath></defs><g clip-path="url(#DevOps_Engineer_Solid_svg__a)"><path fill="#74767B" fill-rule="evenodd" d="M4 7c0-1.66 1.34-3 3-3h10c1.65 0 3 1.34 3 3v4.3c0 .22-.24.37-.44.29a5.7 5.7 0 0 0-2-.39L16.1 9.23c-.22-.29-.61-.34-.88-.11a.72.72 0 0 0-.1.95l.97 1.3a5.81 5.81 0 0 0-4.43 5.64c0 .9.21 1.76.58 2.52.1.21-.05.47-.28.47H7c-1.66 0-3-1.35-3-3zm4.77 2.12c.27.24.31.66.1.95L7.44 12l1.43 1.92c.21.29.17.71-.1.95-.26.23-.66.18-.87-.11l-1.75-2.34a.74.74 0 0 1 0-.85L7.9 9.23c.21-.29.61-.34.87-.11m4.5.7c.1-.34-.1-.7-.45-.8-.35-.09-.7.11-.8.45l-1.3 4.7c-.1.34.1.7.45.8.35.09.7-.11.8-.45zM16 13.27c.07-.43.46-.76.93-.76h1.01c.46 0 .85.32.92.75.09.56.72.9 1.28.68.43-.17.93 0 1.16.38l.51.83c.23.38.13.86-.23 1.13a.867.867 0 0 0 .02 1.39c.37.28.47.77.24 1.15l-.5.83c-.24.38-.72.54-1.15.38-.59-.21-1.23.14-1.33.73-.07.43-.46.75-.92.75h-1.01a.93.93 0 0 1-.93-.77c-.08-.56-.7-.91-1.26-.71-.43.16-.91 0-1.15-.38l-.5-.83a.87.87 0 0 1 .24-1.15c.47-.35.48-1.03.02-1.39a.85.85 0 0 1-.23-1.13l.51-.83c.23-.38.73-.55 1.16-.38.54.21 1.13-.12 1.21-.67m1.47 5.24c.82 0 1.5-.67 1.5-1.5s-.68-1.5-1.5-1.5c-.83 0-1.5.67-1.5 1.5s.67 1.5 1.5 1.5"/></g></svg>