<svg xmlns="http://www.w3.org/2000/svg" fill="none" viewBox="0 0 24 24" focusable="false"><path fill="#717681" d="M3.062 8.49a.3.3 0 0 0 .226.496h4.095a.3.3 0 0 0 .249-.132l2.963-4.386A.3.3 0 0 0 10.347 4H7.562a1.3 1.3 0 0 0-.979.444c-.96 1.097-2.712 3.114-3.521 4.046ZM3.243 10.286a.299.299 0 0 0-.227.496c2.22 2.529 5.97 6.766 7.518 8.515.147.165.411.003.335-.204l-3.167-8.61a.3.3 0 0 0-.281-.197H3.243ZM13.292 18.95c-.075.207.19.367.337.201 1.498-1.703 5.088-5.784 7.354-8.369a.3.3 0 0 0-.227-.496h-4.133a.3.3 0 0 0-.282.199l-3.049 8.465ZM20.707 8.986a.3.3 0 0 0 .226-.496c-.813-.933-2.574-2.951-3.537-4.048A1.3 1.3 0 0 0 16.419 4h-3.023a.3.3 0 0 0-.24.478L16.4 8.865a.3.3 0 0 0 .241.121h4.065ZM14.886 10.688a.3.3 0 0 0-.283-.402H9.445a.3.3 0 0 0-.281.404l2.606 7.086a.3.3 0 0 0 .564-.002l2.552-7.086ZM14.476 8.506a.3.3 0 0 1-.24.48H9.728a.3.3 0 0 1-.246-.471l2.172-3.113a.3.3 0 0 1 .486-.008l2.336 3.112Z"/></svg>