<svg xmlns="http://www.w3.org/2000/svg" fill="none" viewBox="0 0 24 24" focusable="false"><path fill="#717681" fill-rule="evenodd" d="M6.584 4.444A1.3 1.3 0 0 1 7.562 4h8.857c.374 0 .73.161.977.442l3.848 4.381a1.3 1.3 0 0 1-.002 1.719l-8.268 9.356a1.3 1.3 0 0 1-1.948 0L2.757 10.54a1.3 1.3 0 0 1-.004-1.717l3.83-4.379m5.429.856h.012l2.829 3.686h-5.67L12.013 5.3m-1.639 0H7.562L4.337 8.986h3.208l2.83-3.686M7.62 10.286H4.268l5.568 6.302-2.216-6.302m4.399 8.59 3.02-8.59H9l3.02 8.59m4.474-9.89L13.663 5.3h2.756l3.238 3.686h-3.165m-.075 1.3-2.191 6.231 5.506-6.23h-3.315" clip-rule="evenodd"/></svg>