<svg xmlns="http://www.w3.org/2000/svg" fill="none" viewBox="0 0 24 24" focusable="false"><defs><clipPath id="Diamond_Solid_svg__a"><path fill="#fff" fill-opacity="0" d="M0 0h24v24H0z"/></clipPath></defs><g clip-path="url(#Diamond_Solid_svg__a)"><path fill="#717681" fill-rule="evenodd" d="M3.06 8.49c-.17.19-.03.49.22.49h4.1c.1 0 .19-.05.25-.13l2.96-4.39c.13-.2-.01-.46-.25-.46H7.56c-.38 0-.73.16-.98.44-.96 1.1-2.71 3.11-3.52 4.05m17.87-.01c.17.2.03.5-.23.5h-4.06c-.1 0-.19-.04-.24-.12l-3.25-4.39c-.15-.19-.01-.47.24-.47h3.02c.38 0 .73.16.98.44.96 1.09 2.73 3.11 3.54 4.04m-6.7.5c.25 0 .39-.28.24-.48l-2.34-3.11a.295.295 0 0 0-.48.01L9.48 8.51c-.14.2 0 .47.24.47zm-.94 9.96c-.08.21.19.37.33.21 1.5-1.71 5.09-5.79 7.36-8.37.17-.2.03-.5-.23-.5h-4.13c-.13 0-.24.08-.28.2zm1.59-8.26c.07-.19-.07-.4-.28-.4H9.44c-.21 0-.35.21-.28.41l2.61 7.08c.09.26.46.26.56 0zm-11.87.1c-.17-.2-.03-.5.23-.5h4.18c.12 0 .23.08.28.2l3.16 8.61c.08.21-.18.37-.33.2-1.55-1.75-5.3-5.98-7.52-8.51"/></g></svg>