<svg xmlns="http://www.w3.org/2000/svg" fill="none" viewBox="0 0 24 24" focusable="false"><path fill="#717681" fill-rule="evenodd" d="m18.62 9.5-2.31-4c-.52-.9-1.82-.9-2.34 0l-1.48 2.57V6.66c0-.74-.6-1.35-1.35-1.35H8.32a5.569 5.569 0 0 1 10.63 2.31c0 .66-.12 1.3-.33 1.88M15.1 6.15c.01-.01.01-.02.02-.02h.05l.02.02 3.35 5.82c.01.01.01.02.01.02 0 .01 0 .02-.01.03 0 .01-.01.01-.01.02h-6.77l-.02-.02c0-.01-.01-.02-.01-.03 0 0 0-.01.01-.02zm-4.67 5.89H5.81c-.02 0-.05-.02-.05-.05V6.66c0-.03.03-.05.05-.05h5.33c.03 0 .05.02.05.05v3.66l-.57 1c-.14.23-.2.48-.19.72m-6.22 1.49c.12-.12.28-.19.46-.19h14.76c.36 0 .65.29.65.65v1.91a3.15 3.15 0 0 1-3.15 3.15H7.17a3.15 3.15 0 0 1-3.15-3.15v-1.91c0-.17.06-.34.19-.46"/></svg>