<svg xmlns="http://www.w3.org/2000/svg" fill="none" viewBox="0 0 24 24" focusable="false"><path fill="#717681" fill-rule="evenodd" d="M10.52 2c-.83 0-1.5.67-1.5 1.5v1c0 .82.67 1.5 1.5 1.5s1.5-.68 1.5-1.5v-1c0-.83-.67-1.5-1.5-1.5M7.76 17.5H6.65a.71.71 0 0 1-.69-.84l1.45-7.38A2.83 2.83 0 0 1 10.19 7c.77 0 1.47.29 1.98.79.68.67 1.38 1.35 2.09 1.99.43.41 1.01.64 1.61.64h1.5a.649.649 0 0 1 .19 1.27c.59.38.98 1.05.98 1.81v7.85c0 .36-.29.65-.65.65s-.65-.29-.65-.65V13.5a.85.85 0 1 0-1.7 0v1.09c0 .36-.29.65-.65.65s-.65-.29-.65-.65V13.5c0-.78.41-1.45 1.02-1.83-.71-.12-1.37-.45-1.9-.95l-.34-.32v6.39c0 .39-.31.71-.7.71h-.65v3.85c0 .36-.29.65-.65.65s-.65-.29-.65-.65V17.5H9.06v3.85c0 .36-.29.65-.65.65s-.65-.29-.65-.65zm2.43-9.21c-.28 0-.54.08-.77.21-.68.54-.87 1.25-.73 2.03.13.83.62 1.69 1.24 2.33.25.25.25.67-.01.92s-.67.24-.92-.02a5.8 5.8 0 0 1-.91-1.19l-.71 3.63h4.34V9.82c0-.84-.69-1.53-1.53-1.53"/></svg>