<svg xmlns="http://www.w3.org/2000/svg" fill="none" viewBox="0 0 24 24" focusable="false"><path fill="#717681" fill-rule="evenodd" d="M9.02 3.5c0-.83.67-1.5 1.5-1.5s1.5.67 1.5 1.5v1c0 .82-.67 1.5-1.5 1.5s-1.5-.68-1.5-1.5zm.04 14h1.31v3.85c0 .36.29.65.65.65s.65-.29.65-.65V17.5h.65c.39 0 .7-.32.7-.71V10.4l.34.32c.53.5 1.19.83 1.9.95-.61.38-1.02 1.05-1.02 1.83v1.09c0 .36.29.65.65.65s.65-.29.65-.65V13.5a.85.85 0 1 1 1.7 0v7.85c0 .36.29.65.65.65s.65-.29.65-.65V13.5c0-.76-.39-1.43-.98-1.81a.649.649 0 0 0-.19-1.27h-1.5c-.6 0-1.18-.23-1.61-.64L12.5 8.04C11.94 7.42 11.18 7 10.28 7c-.61 0-1.19.2-1.65.55-.63.69-.96 1.57-.87 2.52.09 1 .65 2.14 1.96 3.22.27.23.31.64.09.92a.66.66 0 0 1-.92.08c-.83-.68-1.44-1.42-1.84-2.18l-.87 4.55c-.08.44.25.84.69.84h.89v3.85c0 .36.29.65.65.65s.65-.29.65-.65z"/></svg>