<svg xmlns="http://www.w3.org/2000/svg" fill="none" viewBox="0 0 24 24" focusable="false"><path fill="#74767B" fill-rule="evenodd" d="M8.29 4.79c-1.46 0-2.65 1.19-2.65 2.65V14c0 1.46 1.19 2.65 2.65 2.65h10.04c1.46 0 2.65-1.19 2.65-2.65V7.44c0-1.46-1.19-2.65-2.65-2.65zm3.61 5.67L7.08 6.85c.21-.45.68-.76 1.21-.76h10.04c.53 0 .99.31 1.21.76l-4.82 3.61c-.84.63-1.98.63-2.82 0m6.51 1.97-2.05-1.57 3.32-2.49V14c0 .75-.61 1.35-1.35 1.35H8.29c-.74 0-1.35-.6-1.35-1.35V8.37l3.28 2.46-2.09 1.6a.65.65 0 0 0 .79 1.03l2.39-1.83c1.2.79 2.75.8 3.95.03l2.36 1.8c.28.22.69.16.91-.12a.65.65 0 0 0-.12-.91M4.31 9.2c0-.36-.29-.65-.65-.65s-.65.29-.65.65v7.35c0 1.46 1.19 2.65 2.65 2.65h11.82c.35 0 .64-.29.64-.65s-.29-.65-.64-.65H5.66c-.74 0-1.35-.6-1.35-1.35z"/></svg>