<svg xmlns="http://www.w3.org/2000/svg" fill="none" viewBox="0 0 24 24" focusable="false"><defs><clipPath id="Emails_Solid_svg__a"><path fill="#fff" fill-opacity="0" d="M0 0h24v24H0z"/></clipPath></defs><g clip-path="url(#Emails_Solid_svg__a)"><path fill="#717681" fill-rule="evenodd" d="m6.46 6.39 5.44 4.07c.84.63 1.98.63 2.82 0l5.44-4.07c.24-.18.32-.53.11-.76-.49-.52-1.18-.84-1.94-.84H8.29c-.76 0-1.45.32-1.94.84-.21.23-.14.58.11.76M5.64 8.6V14c0 1.46 1.19 2.65 2.65 2.65h10.04c1.46 0 2.65-1.19 2.65-2.65V8.6c0-.5-.57-.78-.96-.48l-3.66 2.74 2.05 1.57c.28.22.34.62.12.91-.22.28-.63.34-.91.12l-2.36-1.8c-1.2.77-2.75.76-3.95-.03l-2.39 1.83a.65.65 0 0 1-.79-1.03l2.09-1.6L6.6 8.12c-.39-.3-.96-.01-.96.48m-1.33.6c0-.36-.29-.65-.65-.65s-.65.29-.65.65v7.35c0 1.46 1.19 2.65 2.65 2.65h11.82c.35 0 .64-.29.64-.65s-.29-.65-.64-.65H5.66c-.74 0-1.35-.6-1.35-1.35z"/></g></svg>