<svg xmlns="http://www.w3.org/2000/svg" fill="none" viewBox="0 0 24 24" focusable="false"><defs><clipPath id="Envelope_Outline_svg__a"><path fill="#fff" fill-opacity="0" d="M0 0h24v24H0z"/></clipPath></defs><g clip-path="url(#Envelope_Outline_svg__a)"><path fill="#74767B" fill-rule="evenodd" d="M19.72 8.69 18 7.48V6c0-1.66-1.35-3-3-3H9C7.34 3 6 4.34 6 6v1.48L4.27 8.69C3.47 9.25 3 10.17 3 11.14V18c0 1.65 1.34 3 3 3h12c1.65 0 3-1.35 3-3v-6.86c0-.97-.48-1.89-1.28-2.45M9 4.29h6c.93 0 1.7.77 1.7 1.71v5.54l-3.31 2.42c-.83.61-1.96.61-2.79-.01l-3.31-2.46V6c0-.94.77-1.71 1.71-1.71m-.04 2.99c0-.36.29-.65.65-.65h4.75c.36 0 .65.29.65.65s-.29.65-.65.65H9.61c-.36 0-.65-.29-.65-.65m10.1 2.53-1.06.78V9.07l.97.68zM5.02 9.75 6 9.07v1.45l-1.01-.75c.01 0 .02-.01.03-.02m4.59-.09c-.36 0-.65.29-.65.65s.29.65.65.65h4.75c.36 0 .65-.29.65-.65s-.29-.65-.65-.65zm10.08 1.3-4.26 3.12L18 16.01c.29.22.35.62.13.91-.21.29-.62.35-.91.13l-2.88-2.17-.18.13a3.63 3.63 0 0 1-4.33-.02l-.17-.12-2.89 2.18c-.29.22-.7.16-.91-.13a.65.65 0 0 1 .12-.91l2.6-1.95-4.27-3.17c-.01.08-.02.17-.02.25V18c0 .93.77 1.7 1.71 1.7h12c.93 0 1.7-.77 1.7-1.7v-6.86c0-.06-.01-.12-.01-.18"/></g></svg>