<svg xmlns="http://www.w3.org/2000/svg" fill="none" viewBox="0 0 24 24" focusable="false"><defs><clipPath id="Flag_Outline_svg__a"><path fill="#fff" fill-opacity="0" d="M0 0h24v24H0z"/></clipPath></defs><g clip-path="url(#Flag_Outline_svg__a)"><path fill="#717681" fill-rule="evenodd" d="M5.65 4.35c-.19 0-.35.15-.35.35v10h12.99c.28 0 .45-.32.29-.56l-2.88-4.06a.65.65 0 0 1-.01-.74l2.96-4.45a.348.348 0 0 0-.29-.54zM4 15.35v4.98c0 .36.29.65.65.65s.65-.29.65-.65V16h12.99c1.34 0 2.12-1.51 1.35-2.61l-2.62-3.7 2.71-4.08c.73-1.1-.06-2.56-1.37-2.56H5.65C4.74 3.05 4 3.78 4 4.7v10.65"/></g></svg>