<svg xmlns="http://www.w3.org/2000/svg" fill="none" viewBox="0 0 24 24" focusable="false"><path fill="#717681" d="M6.28 3.098a.65.65 0 0 1 .908.146l1.809 2.503a.65.65 0 1 1-1.054.762L6.135 4.006a.65.65 0 0 1 .146-.908M12.65 3.625a.65.65 0 1 0-1.3 0v2.503a.65.65 0 1 0 1.3 0V3.625M6.492 9.158c0-.623.504-1.128 1.127-1.128h8.266c.623 0 1.127.504 1.127 1.127 0 .229-.053.455-.156.66l-.768 1.535a.7.7 0 0 1-.626.387h-7.42a.7.7 0 0 1-.626-.387l-.768-1.536a1.474 1.474 0 0 1-.156-.658"/><path fill="#717681" fill-rule="evenodd" d="M14.545 13.039a.7.7 0 0 1 .7.7V18a3 3 0 0 1-3 3h-.984a3 3 0 0 1-3-3v-4.261a.7.7 0 0 1 .7-.7h5.584m-2.792 3.46a1 1 0 1 0 0-2 1 1 0 0 0 0 2" clip-rule="evenodd"/><path fill="#717681" d="M16.811 3.244a.65.65 0 0 1 1.054.762l-1.808 2.503a.65.65 0 1 1-1.054-.762l1.808-2.503"/></svg>