<svg xmlns="http://www.w3.org/2000/svg" fill="none" viewBox="0 0 24 24" focusable="false"><defs><clipPath id="Flash_Light_Solid_svg__a"><path fill="#fff" fill-opacity="0" d="M0 0h24v24H0z"/></clipPath></defs><g clip-path="url(#Flash_Light_Solid_svg__a)"><path fill="#717681" fill-rule="evenodd" d="M6.28 3.09c.29-.21.69-.14.9.15l1.81 2.5c.21.29.15.7-.14.91s-.7.14-.91-.15L6.13 4c-.21-.29-.15-.7.15-.91m11.43 0a.643.643 0 0 0-.9.15L15 5.74c-.21.29-.15.7.14.91.3.21.7.14.91-.15L17.86 4c.21-.29.15-.7-.15-.91m-5.06.53c0-.36-.3-.65-.65-.65-.36 0-.65.29-.65.65v2.5c0 .36.29.65.65.65.35 0 .65-.29.65-.65zM7.61 8.03c-.62 0-1.12.5-1.12 1.12 0 .23.05.46.15.66l.77 1.54c.12.23.36.38.63.38h7.42c.26 0 .5-.15.62-.38l.77-1.54c.1-.2.16-.43.16-.66 0-.62-.51-1.12-1.13-1.12zm6.93 5c.39 0 .7.32.7.7V18c0 1.65-1.34 3-3 3h-.98c-1.66 0-3-1.35-3-3v-4.27c0-.38.31-.7.7-.7zm-2.79 3.46c.55 0 1-.44 1-1 0-.55-.45-1-1-1s-1 .45-1 1c0 .56.45 1 1 1"/></g></svg>