<svg xmlns="http://www.w3.org/2000/svg" fill="none" viewBox="0 0 24 24" focusable="false"><path fill="#74767B" fill-rule="evenodd" d="M6.26 3.12c.3-.21.7-.15.91.14l1.81 2.51c.21.29.15.69-.15.9-.29.22-.69.15-.9-.14l-1.81-2.5c-.21-.3-.15-.7.14-.91m11.44 0a.654.654 0 0 0-.91.14l-1.8 2.51c-.21.29-.15.69.14.9.29.22.7.15.91-.14l1.81-2.5c.21-.3.14-.7-.15-.91m-5.07.53c0-.36-.29-.65-.65-.65s-.65.29-.65.65v2.5c0 .36.29.65.65.65s.65-.29.65-.65zm3.83 7.89-1.22 1.76h-.01v4.72c0 1.66-1.34 3-3 3h-.98c-1.66 0-3-1.34-3-3V13.3h-.02l-1.22-1.76c-.35-.51-.53-1.1-.53-1.71v-.08c0-.94.76-1.7 1.7-1.7h7.12c.93 0 1.7.76 1.7 1.7v.08c0 .61-.19 1.21-.54 1.71M8.18 9.35h7.12c.22 0 .4.18.4.4v.08c0 .35-.11.68-.31.97l-.83 1.2H8.91l-.83-1.2c-.2-.29-.3-.62-.3-.97v-.08c0-.22.17-.4.4-.4m1.37 3.97h4.38v4.7c0 .94-.76 1.7-1.7 1.7h-.98c-.94 0-1.7-.76-1.7-1.7zm2.19 3.2c.55 0 1-.45 1-1s-.45-1-1-1c-.56 0-1 .45-1 1s.44 1 1 1"/></svg>