<svg xmlns="http://www.w3.org/2000/svg" fill="none" viewBox="0 0 24 24" focusable="false"><path fill="#717681" d="M6.27 3.123a.65.65 0 0 1 .907.146l1.808 2.503a.65.65 0 0 1-1.053.762L6.123 4.03a.65.65 0 0 1 .146-.908M12.638 3.65a.65.65 0 1 0-1.3 0v2.503a.65.65 0 1 0 1.3 0zM12.741 15.524a1 1 0 1 1-2 0 1 1 0 0 1 2 0"/><path fill="#717681" fill-rule="evenodd" d="m16.469 11.542-1.222 1.767h-.013v4.716a3 3 0 0 1-3 3h-.984a3 3 0 0 1-3-3v-4.716h-.017l-1.22-1.769a3 3 0 0 1-.532-1.703v-.081c0-.94.76-1.7 1.7-1.7h7.12c.939 0 1.7.76 1.7 1.699v.08a3 3 0 0 1-.532 1.707M8.18 9.355h7.12a.4.4 0 0 1 .4.4v.08a1.7 1.7 0 0 1-.302.967l-.834 1.207h-5.65l-.833-1.207a1.7 1.7 0 0 1-.301-.966v-.08a.4.4 0 0 1 .4-.4m1.37 3.968h4.383v4.702a1.7 1.7 0 0 1-1.7 1.7h-.984a1.7 1.7 0 0 1-1.7-1.7z" clip-rule="evenodd"/><path fill="#717681" d="M16.8 3.27a.65.65 0 1 1 1.054.76l-1.809 2.504a.65.65 0 0 1-1.054-.762z"/></svg>