<svg xmlns="http://www.w3.org/2000/svg" fill="none" viewBox="0 0 24 24" focusable="false"><defs><clipPath id="Forks_Solid_svg__a"><path fill="#fff" fill-opacity="0" d="M0 0h24v24H0z"/></clipPath></defs><g clip-path="url(#Forks_Solid_svg__a)"><path fill="#717681" fill-rule="evenodd" d="M2 5c0-1.66 1.34-3 3-3h14c1.65 0 3 1.34 3 3v14c0 1.65-1.35 3-3 3H5c-1.66 0-3-1.35-3-3zm14.15 15.05a.65.65 0 0 1 .03-.92l1.59-1.48h-6.12C9.63 17.65 8 16.01 8 14v-1.35H4.65c-.36 0-.65-.29-.65-.65 0-.36.29-.65.65-.65H8V10c0-2.02 1.63-3.65 3.65-3.65h6.05l-1.55-1.48a.649.649 0 0 1-.02-.92c.25-.26.66-.27.92-.02l2.75 2.62c0 .01.01.01.01.01l.01.01c.05.05.09.11.12.18.12.24.07.54-.13.74 0 .01-.01.01-.01.02l-2.76 2.57c-.26.25-.67.23-.91-.03a.64.64 0 0 1 .03-.92l1.59-1.49h-6.1C10.35 7.64 9.3 8.7 9.3 10v4c0 1.29 1.05 2.35 2.35 2.35h6.07l-1.55-1.48a.668.668 0 0 1-.02-.92c.25-.26.66-.27.92-.02l2.75 2.62c.01.01.02.01.02.02.05.05.1.11.13.18.08.18.08.38 0 .56-.03.06-.08.13-.13.18l-.02.02-2.75 2.57a.65.65 0 0 1-.92-.03"/></g></svg>