<svg xmlns="http://www.w3.org/2000/svg" fill="none" viewBox="0 0 24 24" focusable="false"><defs><clipPath id="Forks_Outline_svg__a"><path fill="#fff" fill-opacity="0" d="M0 0h24v24H0z"/></clipPath></defs><g clip-path="url(#Forks_Outline_svg__a)"><path fill="#717681" d="M18.04 2.9a.649.649 0 0 0-.92.02c-.25.26-.24.67.02.92l1.59 1.51h-6.06c-2.02 0-3.65 1.63-3.65 3.65v2.35H3.64c-.36 0-.65.29-.65.65 0 .36.29.65.65.65h5.38v2.36c0 2.01 1.63 3.65 3.65 3.65h6.02l-1.55 1.44c-.26.25-.27.66-.03.92.25.27.66.28.92.03l2.75-2.57c.01-.01.02-.02.04-.03v-.01l.01-.01c.02-.02.03-.04.05-.06.18-.25.15-.62-.09-.84l-2.75-2.63a.649.649 0 0 0-.92.02c-.25.26-.24.67.02.92l1.59 1.52h-6.06c-1.3 0-2.35-1.06-2.35-2.35V9c0-1.3 1.05-2.35 2.35-2.35h6.03L17.15 8.1a.65.65 0 0 0-.03.92c.24.27.65.28.92.03l2.75-2.57.03-.03c.25-.26.24-.67-.02-.92z"/></g></svg>