<svg xmlns="http://www.w3.org/2000/svg" fill="none" viewBox="0 0 24 24" focusable="false"><defs><clipPath id="Gallery_Solid_svg__a"><path fill="#fff" fill-opacity="0" d="M0 0h24v24H0z"/></clipPath></defs><g clip-path="url(#Gallery_Solid_svg__a)"><path fill="#717681" fill-rule="evenodd" d="M3 7c0-1.66 1.34-3 3-3h12c1.65 0 3 1.34 3 3v10a3.003 3.003 0 0 1-2.83 2.99h-.16c0 .01-.01.01-.01.01H6c-.83 0-1.58-.34-2.12-.88C3.33 18.58 3 17.83 3 17zm1.6 10.96c.3.45.82.74 1.4.74h2.64l1.9-3.06-.81-1.31c-.67-1.07-2.23-1.07-2.89.01zm5.62.74H18c.93 0 1.7-.77 1.7-1.7v-1.49l-2.32-3.72c-.66-1.07-2.22-1.07-2.89.01zm-.04-9.72c0 1.1-.9 1.99-2 1.99s-1.99-.89-1.99-1.99.89-1.99 1.99-1.99 2 .89 2 1.99"/></g></svg>