<svg xmlns="http://www.w3.org/2000/svg" fill="none" viewBox="0 0 24 24" focusable="false"><path fill="#717681" fill-rule="evenodd" d="M8.5 12a2.5 2.5 0 1 0 0-5 2.5 2.5 0 0 0 0 5m0-1.3a1.2 1.2 0 1 0 0-2.4 1.2 1.2 0 0 0 0 2.4" clip-rule="evenodd"/><path fill="#717681" fill-rule="evenodd" d="M3.748 18.982A2.993 2.993 0 0 0 6 20h12a3 3 0 0 0 3-3V7a3 3 0 0 0-3-3H6a3 3 0 0 0-3 3v10c0 .76.282 1.453.748 1.982M6 5.3h12A1.7 1.7 0 0 1 19.7 7v7.723l-2.204-3.547c-.92-1.48-3.075-1.479-3.993.003L10.96 15.28l-.466-.753c-.919-1.486-3.08-1.484-3.998.002L4.49 17.78A1.693 1.693 0 0 1 4.3 17V7A1.7 1.7 0 0 1 6 5.3m2.84 13.4H6c-.175 0-.345-.027-.504-.076l2.106-3.412a1.05 1.05 0 0 1 1.787-.001l.806 1.303zm1.53 0 4.238-6.836a1.05 1.05 0 0 1 1.784-.001l3.3 5.309A1.7 1.7 0 0 1 18 18.7z" clip-rule="evenodd"/></svg>