<svg xmlns="http://www.w3.org/2000/svg" fill="none" viewBox="0 0 24 24" focusable="false"><path fill="#717681" fill-rule="evenodd" d="m6.16 17.59-.05.07a1.487 1.487 0 0 1-2.79-.72v-6.08c0-2.34 1.9-4.24 4.24-4.24h8.87c2.34 0 4.24 1.9 4.24 4.24v6.08a1.487 1.487 0 0 1-2.79.72l-.05-.07-.97-1.3a6.086 6.086 0 0 0-9.73 0zm1.4-12.27a5.54 5.54 0 0 0-5.54 5.54v6.08a2.791 2.791 0 0 0 5.23 1.36l.92-1.23c.91-1.2 2.32-1.91 3.83-1.91 1.5 0 2.91.71 3.82 1.91l.92 1.23a2.791 2.791 0 0 0 5.23-1.36v-6.08a5.54 5.54 0 0 0-5.54-5.54zm-.16 2.6c-.36 0-.65.29-.65.65v1.47H5.28c-.36 0-.65.29-.65.65 0 .36.29.65.65.65h1.47v1.47c0 .36.29.65.65.65.36 0 .65-.29.65-.65v-1.47h1.47c.36 0 .65-.29.65-.65 0-.36-.29-.65-.65-.65H8.05V8.57c0-.36-.29-.65-.65-.65m10.63 2.77c0 .81-.66 1.47-1.47 1.47-.81 0-1.47-.66-1.47-1.47 0-.81.66-1.47 1.47-1.47.81 0 1.47.66 1.47 1.47m1.3 0a2.77 2.77 0 1 1-5.54 0 2.77 2.77 0 0 1 5.54 0"/></svg>