<svg xmlns="http://www.w3.org/2000/svg" fill="none" viewBox="0 0 24 24" focusable="false"><path fill="#74767B" fill-rule="evenodd" d="M7.56 5.32a5.54 5.54 0 0 0-5.54 5.54v6.08a2.791 2.791 0 0 0 5.23 1.36l.92-1.23c.91-1.2 2.32-1.91 3.83-1.91 1.5 0 2.91.71 3.82 1.91l.92 1.23a2.791 2.791 0 0 0 5.23-1.36v-6.08a5.54 5.54 0 0 0-5.54-5.54zm-.54 2.37c-.36 0-.65.29-.65.65v1.48H4.9c-.36 0-.65.29-.65.65 0 .35.29.65.65.65h1.47v1.47c0 .36.29.65.65.65s.65-.29.65-.65v-1.47h1.47c.36 0 .65-.3.65-.65 0-.36-.29-.65-.65-.65H7.67V8.34c0-.36-.29-.65-.65-.65m9.96 5.55c1.54 0 2.78-1.24 2.78-2.77S18.52 7.7 16.98 7.7a2.77 2.77 0 1 0 0 5.54m0-1.3c.82 0 1.48-.66 1.48-1.47a1.475 1.475 0 0 0-2.95 0c0 .81.66 1.47 1.47 1.47"/></svg>