<svg xmlns="http://www.w3.org/2000/svg" fill="none" viewBox="0 0 24 24" focusable="false"><path fill="#717681" d="M18.462 10.476a1.472 1.472 0 1 1-2.944 0 1.472 1.472 0 0 1 2.944 0"/><path fill="#717681" fill-rule="evenodd" d="M2.021 10.867a5.544 5.544 0 0 1 5.544-5.543h8.87a5.544 5.544 0 0 1 5.544 5.543v6.078a2.792 2.792 0 0 1-5.233 1.356l-.922-1.226a4.784 4.784 0 0 0-7.647 0L7.254 18.3a2.792 2.792 0 0 1-5.233-1.356zm17.74-.39a2.772 2.772 0 1 1-5.543 0 2.772 2.772 0 0 1 5.544 0M6.378 8.346a.65.65 0 0 1 1.3 0V9.82H9.15a.65.65 0 1 1 0 1.3H7.677v1.473a.65.65 0 1 1-1.3 0V11.12H4.905a.65.65 0 1 1 0-1.3h1.472z" clip-rule="evenodd"/></svg>