<svg xmlns="http://www.w3.org/2000/svg" fill="none" viewBox="0 0 24 24" focusable="false"><defs><clipPath id="Gantt_Chart_Solid_svg__a"><path fill="#fff" fill-opacity="0" d="M0 24h24V0H0z"/></clipPath></defs><g clip-path="url(#Gantt_Chart_Solid_svg__a)"><path fill="#717681" fill-rule="evenodd" d="M4.65 20.61c-.36 0-.65-.29-.65-.65V3.99c0-.35.29-.65.65-.65s.65.3.65.65v15.97c0 .36-.29.65-.65.65m5.42-15.76c1.08 0 1.95.88 1.95 1.95 0 1.08-.87 1.95-1.95 1.95H8.54c-1.08 0-1.95-.87-1.95-1.95 0-1.07.87-1.95 1.95-1.95zM18 12.01c0-1.08-.88-1.95-1.95-1.95h-5.3c-1.07 0-1.95.87-1.95 1.95s.88 1.95 1.95 1.95h5.3c1.07 0 1.95-.87 1.95-1.95m2.05 5.18c0-1.08-.87-1.95-1.95-1.95h-2.48c-1.08 0-1.95.87-1.95 1.95 0 1.07.87 1.95 1.95 1.95h2.48c1.08 0 1.95-.88 1.95-1.95"/></g></svg>