<svg xmlns="http://www.w3.org/2000/svg" fill="none" viewBox="0 0 24 24" focusable="false"><path fill="#717681" d="M4.006 19.965a.65.65 0 1 0 1.3 0V4a.65.65 0 1 0-1.3 0v15.965"/><path fill="#717681" fill-rule="evenodd" d="M20.058 17.192a1.95 1.95 0 0 0-1.95-1.95h-2.484a1.95 1.95 0 0 0 0 3.9h2.484a1.95 1.95 0 0 0 1.95-1.95m-4.434.65h2.484a.65.65 0 1 0 0-1.3h-2.484a.65.65 0 1 0 0 1.3M16.05 10.066a1.95 1.95 0 0 1 0 3.9h-5.292a1.95 1.95 0 0 1 0-3.9h5.293m0 2.6h-5.292a.65.65 0 1 1 0-1.3h5.293a.65.65 0 1 1 0 1.3M10.074 4.857a1.95 1.95 0 0 1 0 3.9H8.547a1.95 1.95 0 1 1 0-3.9h1.527m0 2.6H8.547a.65.65 0 1 1 0-1.3h1.527a.65.65 0 0 1 0 1.3" clip-rule="evenodd"/></svg>