<svg xmlns="http://www.w3.org/2000/svg" fill="none" viewBox="0 0 24 24" focusable="false"><path fill="#717681" fill-rule="evenodd" d="M21 12a9 9 0 1 1-18 0 9 9 0 0 1 18 0m-10.693 7.513a15.652 15.652 0 0 1-1.373-2.034c-.15-.264-.295-.54-.433-.826H5.864a7.703 7.703 0 0 0 4.443 2.86m-5.24-4.16h2.89c-.3-.85-.514-1.759-.583-2.703H4.327c.08.962.338 1.874.74 2.703m-.74-4.003h3.047a10.39 10.39 0 0 1 .58-2.694H5.063a7.652 7.652 0 0 0-.735 2.694m1.53-3.994h2.64c.14-.289.286-.568.437-.835.435-.77.914-1.457 1.373-2.034a7.703 7.703 0 0 0-4.45 2.87m12.279 9.297a7.703 7.703 0 0 1-4.443 2.86c.46-.577.938-1.264 1.373-2.034.15-.265.295-.54.433-.826zm.798-1.3h-2.892c.3-.85.515-1.759.584-2.703h3.047a7.653 7.653 0 0 1-.74 2.703m.739-4.003h-3.047a10.392 10.392 0 0 0-.58-2.694h2.892c.4.827.655 1.735.735 2.694m-1.53-3.994h-2.64c-.14-.289-.286-.568-.437-.835a15.656 15.656 0 0 0-1.373-2.034 7.703 7.703 0 0 1 4.45 2.87m-2.821 5.294a9.44 9.44 0 0 1-.67 2.703H9.348a9.44 9.44 0 0 1-.669-2.703zm-1.284 4.003H9.962l.104.187A14.042 14.042 0 0 0 12 19.486a14.045 14.045 0 0 0 2.038-2.833m1.284-5.303H8.678c.08-.934.325-1.843.666-2.694h5.312c.341.851.586 1.76.666 2.694m-1.28-3.994H9.958l.109-.196A14.042 14.042 0 0 1 12 4.514a14.043 14.043 0 0 1 2.043 2.842" clip-rule="evenodd"/></svg>