<svg xmlns="http://www.w3.org/2000/svg" width="24" height="24" fill="none"><path fill="#717681" d="M11.135 3.496c.188-.2.041-.527-.231-.494a9.045 9.045 0 0 0-6.369 3.873c-.133.194.01.45.245.45h3.508a.306.306 0 0 0 .273-.17c.115-.231.234-.455.356-.672.619-1.097 1.369-2.076 2.218-2.987ZM3.799 8.634a.295.295 0 0 0-.278.191 9.026 9.026 0 0 0-.52 2.2.294.294 0 0 0 .296.323h3.77a.31.31 0 0 0 .306-.28c.072-.7.222-1.38.424-2.028a.31.31 0 0 0-.291-.406H3.799ZM3.297 12.658a.294.294 0 0 0-.295.323c.082.77.26 1.51.523 2.209.043.115.154.19.277.19H7.51a.31.31 0 0 0 .291-.405 10.41 10.41 0 0 1-.427-2.038.31.31 0 0 0-.305-.28H3.297ZM4.786 16.69a.288.288 0 0 0-.244.45 9.046 9.046 0 0 0 6.314 3.857c.28.036.426-.308.23-.512-.85-.882-1.57-1.902-2.17-2.962a14.64 14.64 0 0 1-.35-.663.306.306 0 0 0-.274-.17H4.786ZM10.055 7.127a14.327 14.327 0 0 1 1.729-2.429.289.289 0 0 1 .432 0c.542.61 1.173 1.445 1.729 2.43a.133.133 0 0 1-.116.197H10.17a.133.133 0 0 1-.116-.198ZM8.988 11.348a.293.293 0 0 1-.294-.327 9.603 9.603 0 0 1 .56-2.196.297.297 0 0 1 .279-.19h4.934c.123 0 .235.074.278.19.266.701.465 1.439.56 2.196a.293.293 0 0 1-.293.327H8.988ZM9.536 15.38a.297.297 0 0 1-.278-.19 9.61 9.61 0 0 1-.564-2.205.293.293 0 0 1 .294-.327h6.024c.177 0 .316.151.294.327a9.61 9.61 0 0 1-.564 2.205.297.297 0 0 1-.278.19H9.536ZM10.055 16.878a.127.127 0 0 1 .11-.188h3.67c.096 0 .158.104.11.188a14.318 14.318 0 0 1-1.729 2.43.288.288 0 0 1-.432 0 14.323 14.323 0 0 1-1.729-2.43Z"/><path fill="#717681" d="M11.135 3.496c.188-.2.041-.527-.231-.494a9.045 9.045 0 0 0-6.369 3.873c-.133.194.01.45.245.45h3.508a.306.306 0 0 0 .273-.17c.115-.231.234-.455.356-.672.619-1.097 1.369-2.076 2.218-2.987ZM3.799 8.634a.295.295 0 0 0-.278.191 9.026 9.026 0 0 0-.52 2.2.294.294 0 0 0 .296.323h3.77a.31.31 0 0 0 .306-.28c.072-.7.222-1.38.424-2.028a.31.31 0 0 0-.291-.406H3.799ZM3.297 12.658a.294.294 0 0 0-.295.323c.082.77.26 1.51.523 2.209.043.115.154.19.277.19H7.51a.31.31 0 0 0 .291-.405 10.41 10.41 0 0 1-.427-2.038.31.31 0 0 0-.305-.28H3.297ZM4.786 16.69a.288.288 0 0 0-.244.45 9.046 9.046 0 0 0 6.314 3.857c.28.036.426-.308.23-.512-.85-.882-1.57-1.902-2.17-2.962a14.64 14.64 0 0 1-.35-.663.306.306 0 0 0-.274-.17H4.786ZM12.865 3.496c-.188-.2-.041-.527.231-.494a9.045 9.045 0 0 1 6.369 3.873c.133.194-.01.45-.245.45h-3.508a.306.306 0 0 1-.273-.17c-.114-.231-.234-.455-.356-.672-.619-1.097-1.369-2.076-2.218-2.987ZM20.201 8.634c.123 0 .235.075.278.191.26.697.437 1.434.52 2.2a.294.294 0 0 1-.296.323h-3.77a.31.31 0 0 1-.306-.28 10.41 10.41 0 0 0-.424-2.028.31.31 0 0 1 .291-.406h3.707ZM20.703 12.658c.175 0 .314.149.295.323a9.02 9.02 0 0 1-.523 2.209.295.295 0 0 1-.277.19H16.49a.31.31 0 0 1-.291-.405c.204-.651.354-1.334.427-2.038a.31.31 0 0 1 .305-.28h3.771ZM19.214 16.69c.235 0 .378.256.244.45a9.045 9.045 0 0 1-6.314 3.857c-.28.036-.426-.308-.23-.512.85-.882 1.57-1.902 2.17-2.962.12-.214.237-.435.35-.663a.306.306 0 0 1 .274-.17h3.506Z"/></svg>