<svg xmlns="http://www.w3.org/2000/svg" fill="none" viewBox="0 0 24 24" focusable="false"><path fill="#717681" fill-rule="evenodd" d="m12.26 2.37.21-.42c.1-.2-.05-.43-.27-.43h-.41c-.22 0-.37.23-.27.43l.21.42c.11.22.42.22.53 0m-.76.42a.3.3 0 0 0-.31-.16c-.34.06-.67.17-.84.34-.38.38-.05 1.48.33 1.95.05.07.13.1.21.1h2.21c.08 0 .16-.03.21-.1.38-.47.71-1.57.33-1.95-.17-.17-.5-.28-.84-.34a.3.3 0 0 0-.31.16l-.23.46c-.11.22-.42.22-.53 0zM8.36 6.07c-.99 0-1.71.47-1.45 1.35.01.04.05.07.09.07h.84c.57 0 1.44.75 1.69 2.04.05.38.06.8.07 1.27a.826.826 0 0 1-1.65 0v-.09c0-.4-.15-.79-.42-1.08L4.55 6.35c-.25-.27-.72-.3-.97.05-.53.73-.84 1.72-.96 2.79-.12 1.06-.04 2.22.24 3.29.55 2.13 1.94 4.06 4.3 4.06h1c.24 0 .41-.2.41-.42 0-.36.29-.65.65-.65s.65.29.65.65v.04c0 .03 0 .06.01.09-.02.29-.14.62-.34.98-.21.37-.48.74-.72 1.07l-.01.01c-.14.19-.27.37-.37.53-.05.08-.1.17-.14.25-.03.08-.07.18-.07.29 0 .43.25.78.54 1.04.3.27.69.5 1.09.68.4.19.82.33 1.2.43.36.1.71.16.95.16s.58-.06.95-.16c.38-.1.8-.24 1.2-.43.4-.18.79-.41 1.08-.68.3-.26.55-.61.55-1.04a.6.6 0 0 0-.08-.29.9.9 0 0 0-.14-.25c-.1-.16-.24-.35-.38-.54h-.01c-.25-.33-.52-.69-.73-1.07-.21-.37-.35-.72-.35-1.02v-.03c-.01-.02-.01-.04-.01-.06 0-.36.3-.65.66-.65s.65.29.65.65c0 .22.17.42.41.42h1.04c2.37 0 3.76-1.93 4.31-4.06.28-1.07.35-2.23.24-3.29-.12-1.07-.43-2.06-.96-2.79-.25-.35-.73-.32-.98-.05l-2.97 3.28c-.28.29-.42.68-.42 1.08v.07c0 .47-.38.84-.85.84s-.85-.38-.84-.83c.01-.23.01-.44.02-.64h.01v-.06c0-.12.01-.23.03-.34.18-1.43 1.12-2.26 1.72-2.26H17c.04 0 .08-.03.09-.07.26-.88-.46-1.35-1.44-1.35h-2.72c-.2 0-.34.2-.25.38.07.11.15.25.25.38q.075.105.18.21l.02.03c.04.03.07.06.11.1-.63.6-1.06 1.34-1.24 1.85-.18-.51-.61-1.24-1.23-1.85.04-.03.07-.07.11-.1l.02-.03q.105-.105.18-.21c.1-.13.18-.27.25-.38.09-.18-.04-.38-.25-.38H8.36"/></svg>