<svg xmlns="http://www.w3.org/2000/svg" fill="none" viewBox="0 0 24 24" focusable="false"><defs><clipPath id="Government_Outline_svg__a"><path fill="#fff" fill-opacity="0" d="M0 0h24v24H0z"/></clipPath></defs><g clip-path="url(#Government_Outline_svg__a)"><path fill="#717681" fill-rule="evenodd" d="m12.47 1.8-.21.42c-.11.22-.42.22-.53 0l-.21-.42c-.1-.19.05-.43.27-.43h.41c.22 0 .37.24.27.43m-1.28.68c.13-.02.25.05.31.16l.23.46c.11.22.42.22.53 0l.23-.46c.06-.11.18-.18.31-.16.34.06.67.17.84.34.38.38.05 1.48-.33 1.95-.05.07-.13.1-.21.1h-2.21c-.08 0-.16-.03-.21-.1-.38-.47-.71-1.57-.33-1.95.17-.17.5-.28.84-.34M8.51 5.92h2.57c.21 0 .34.2.25.38-.07.11-.15.25-.25.38-.05.07-.11.14-.17.2.3.31.73.84 1.1 1.56.37-.71.8-1.24 1.09-1.55-.06-.07-.12-.14-.17-.21-.1-.13-.18-.27-.25-.38-.09-.18.05-.38.25-.38h2.71c.99 0 1.71.47 1.45 1.35-.01.04-.05.07-.09.07h-.84c-.62 0-1.23.93-1.29 2.45-.01.28 0 .59 0 .93.01.26.22.46.46.46.24 0 .44-.2.44-.44v-.18c0-.47.17-.93.49-1.28L19.24 6c.37-.4 1.06-.44 1.44.07 1.12 1.52 1.49 4.13.91 6.34-.29 1.12-.84 2.19-1.71 2.99-.89.8-2.07 1.29-3.54 1.29h-.27a.76.76 0 0 1-.76-.76c0-.23-.19-.42-.43-.42s-.43.19-.43.43v.26c0 .17.05.39.18.65.13.25.31.52.51.78.09.13.19.25.29.37v.01c.09.12.19.24.27.35.08.11.17.23.23.35.06.11.16.3.16.52 0 .55-.33.98-.65 1.26-.32.3-.75.55-1.16.74-.41.19-.85.34-1.24.44-.38.11-.75.18-1.03.18s-.66-.07-1.03-.18c-.39-.1-.83-.25-1.25-.44-.41-.19-.83-.44-1.16-.74-.32-.28-.64-.71-.64-1.26 0-.22.1-.41.15-.52.07-.12.15-.24.24-.35.08-.11.17-.23.27-.35.09-.13.2-.25.29-.38.2-.26.38-.53.5-.78.13-.26.19-.48.19-.65v-.26a.43.43 0 0 0-.44-.43c-.23 0-.43.19-.43.42 0 .42-.33.76-.75.76h-.27c-1.48 0-2.65-.49-3.54-1.29-.87-.8-1.42-1.87-1.71-2.99-.58-2.21-.21-4.82.91-6.34.37-.51 1.07-.47 1.44-.07l2.97 3.28c.32.35.5.81.5 1.28v.18c0 .24.2.44.44.44s.45-.2.45-.46c.01-.33.02-.63.01-.9-.05-1.54-.67-2.48-1.29-2.48h-.84c-.05 0-.09-.03-.1-.07-.26-.88.46-1.35 1.45-1.35zm1.92 3.39c.03.47.02.96.01 1.44a1.76 1.76 0 0 1-1.75 1.73c-.96 0-1.74-.78-1.74-1.74v-.18c0-.15-.05-.3-.16-.41L4.14 7.23c-.66 1.21-.9 3.13-.46 4.85.25.94.69 1.77 1.34 2.35.6.55 1.4.92 2.47.96.23-.69.88-1.18 1.64-1.18.96 0 1.74.77 1.74 1.73v.26c0 .45-.14.87-.32 1.23s-.41.69-.63.98c-.11.14-.21.28-.31.4s-.18.23-.25.32c-.05.07-.09.12-.11.16.02.05.07.13.19.24.2.18.49.35.84.51.34.16.71.29 1.04.38.34.09.58.13.69.13.11 0 .35-.04.69-.13.33-.09.7-.22 1.04-.38.35-.16.64-.33.83-.51.12-.11.18-.19.2-.24-.03-.04-.06-.09-.11-.16-.07-.09-.16-.2-.25-.32h-.01c-.09-.12-.2-.26-.3-.4-.22-.29-.45-.62-.63-.98s-.33-.78-.33-1.23v-.26c0-.96.79-1.73 1.74-1.73.76 0 1.41.49 1.64 1.18 1.08-.04 1.88-.41 2.48-.96.64-.58 1.09-1.41 1.33-2.35.45-1.72.21-3.64-.45-4.85l-2.66 2.92a.62.62 0 0 0-.16.41v.18c0 .96-.77 1.74-1.73 1.74s-1.74-.78-1.76-1.73c-.01-.48-.02-.97.02-1.44 0-.27-.32-.4-.46-.17-.09.15-.16.32-.26.55-.01.04-.02.07-.04.11-.11.34-.44.59-.82.59-.39 0-.71-.25-.83-.59-.01-.04-.02-.07-.03-.1-.1-.24-.17-.41-.27-.56-.13-.23-.45-.1-.45.17"/></g></svg>