<svg xmlns="http://www.w3.org/2000/svg" fill="none" viewBox="0 0 24 24" focusable="false"><path fill="#717681" fill-rule="evenodd" d="m12.269 2.371.206-.412a.3.3 0 0 0-.269-.434h-.412a.3.3 0 0 0-.268.434l.206.412a.3.3 0 0 0 .537 0m-.767.424a.29.29 0 0 0-.307-.158c-.336.062-.667.166-.835.335-.383.382-.051 1.479.328 1.957a.26.26 0 0 0 .206.093h2.212a.26.26 0 0 0 .207-.093c.379-.478.71-1.575.328-1.957-.17-.17-.499-.274-.835-.336a.29.29 0 0 0-.307.159l-.23.46a.3.3 0 0 1-.537 0zM8.361 6.073c-.989 0-1.709.471-1.45 1.353.013.041.05.069.094.069h.841c.566 0 1.442.748 1.69 2.043.048.379.064.8.067 1.272a.82.82 0 0 1-.823.82.82.82 0 0 1-.823-.822v-.09c0-.402-.15-.789-.42-1.086L4.56 6.36c-.251-.275-.724-.302-.974.044-.528.73-.841 1.727-.96 2.788a9.3 9.3 0 0 0 .237 3.296c.549 2.124 1.939 4.056 4.306 4.056h.996a.415.415 0 0 0 .414-.416.65.65 0 1 1 1.298.04.4.4 0 0 0 .005.085c-.015.291-.14.623-.337.98-.209.376-.476.742-.72 1.073l-.005.008c-.14.19-.276.375-.376.535-.052.081-.1.165-.136.247a.7.7 0 0 0-.07.294c0 .424.25.773.542 1.038.297.269.688.497 1.085.68.4.184.823.33 1.197.431.367.1.713.162.953.162s.585-.062.952-.162a8 8 0 0 0 1.197-.431c.397-.183.788-.411 1.086-.68.292-.265.541-.614.541-1.038a.7.7 0 0 0-.072-.297 2 2 0 0 0-.14-.247 10 10 0 0 0-.385-.535l-.006-.009c-.247-.327-.518-.689-.731-1.061-.216-.377-.348-.726-.354-1.027v-.026l-.004-.06a.652.652 0 0 1 1.305 0c0 .214.17.416.414.416h1.042c2.367 0 3.758-1.932 4.307-4.056a9.3 9.3 0 0 0 .236-3.296c-.118-1.061-.432-2.058-.96-2.788-.25-.346-.722-.32-.973-.044L16.49 9.632c-.27.297-.42.684-.42 1.085v.07a.843.843 0 0 1-.843.843.835.835 0 0 1-.84-.838q.004-.335.022-.637l.001.002a4 4 0 0 1 .032-.406c.187-1.425 1.127-2.256 1.723-2.256h.842a.1.1 0 0 0 .093-.069c.259-.882-.461-1.353-1.45-1.353q-.072 0-.143.004l-.07-.004h-2.503c-.204 0-.34.198-.245.378.063.117.144.251.245.385q.082.109.182.213l.024.024q.048.05.102.097c-.625.61-1.058 1.345-1.235 1.857l-.001.003-.002-.003c-.177-.511-.608-1.244-1.23-1.852q.056-.05.108-.102l.023-.024q.1-.105.182-.213c.1-.134.182-.268.245-.385.096-.18-.041-.378-.245-.378H8.584a1 1 0 0 0-.073.004q-.075-.003-.15-.004" clip-rule="evenodd"/></svg>