<svg xmlns="http://www.w3.org/2000/svg" fill="none" viewBox="0 0 24 24" focusable="false"><path fill="#717681" d="M5.3 4A1.3 1.3 0 0 0 4 5.3v4.4A1.3 1.3 0 0 0 5.3 11h4.4A1.3 1.3 0 0 0 11 9.7V5.3A1.3 1.3 0 0 0 9.7 4zM5.3 13A1.3 1.3 0 0 0 4 14.3v4.4A1.3 1.3 0 0 0 5.3 20h4.4a1.3 1.3 0 0 0 1.3-1.3v-4.4A1.3 1.3 0 0 0 9.7 13zM13 5.3A1.3 1.3 0 0 1 14.3 4h4.4A1.3 1.3 0 0 1 20 5.3v4.4a1.3 1.3 0 0 1-1.3 1.3h-4.4A1.3 1.3 0 0 1 13 9.7zM14.3 13a1.3 1.3 0 0 0-1.3 1.3v4.4a1.3 1.3 0 0 0 1.3 1.3h4.4a1.3 1.3 0 0 0 1.3-1.3v-4.4a1.3 1.3 0 0 0-1.3-1.3z"/></svg>