<svg xmlns="http://www.w3.org/2000/svg" width="24" height="24" fill="none"><path fill="#717681" fill-rule="evenodd" d="M4 5.3A1.3 1.3 0 0 1 5.3 4h4.4A1.3 1.3 0 0 1 11 5.3v4.4A1.3 1.3 0 0 1 9.7 11H5.3A1.3 1.3 0 0 1 4 9.7V5.3Zm1.3 0h4.4v4.4H5.3V5.3ZM4 14.3A1.3 1.3 0 0 1 5.3 13h4.4a1.3 1.3 0 0 1 1.3 1.3v4.4A1.3 1.3 0 0 1 9.7 20H5.3A1.3 1.3 0 0 1 4 18.7v-4.4Zm1.3 0h4.4v4.4H5.3v-4.4ZM14.3 4A1.3 1.3 0 0 0 13 5.3v4.4a1.3 1.3 0 0 0 1.3 1.3h4.4A1.3 1.3 0 0 0 20 9.7V5.3A1.3 1.3 0 0 0 18.7 4h-4.4Zm4.4 1.3h-4.4v4.4h4.4V5.3ZM13 14.3a1.3 1.3 0 0 1 1.3-1.3h4.4a1.3 1.3 0 0 1 1.3 1.3v4.4a1.3 1.3 0 0 1-1.3 1.3h-4.4a1.3 1.3 0 0 1-1.3-1.3v-4.4Zm1.3 0h4.4v4.4h-4.4v-4.4Z" clip-rule="evenodd"/></svg>