<svg xmlns="http://www.w3.org/2000/svg" fill="none" viewBox="0 0 24 24" focusable="false"><path fill="#717681" fill-rule="evenodd" d="M4 5.29C4 4.58 4.58 4 5.29 4H9.7c.71 0 1.3.58 1.3 1.29V9.7c0 .71-.59 1.3-1.3 1.3H5.29C4.58 11 4 10.41 4 9.7zm9 0c0-.71.58-1.29 1.29-1.29h4.41c.71 0 1.3.58 1.3 1.29V9.7c0 .71-.59 1.3-1.3 1.3h-4.41c-.71 0-1.29-.59-1.29-1.3zM4 14.3c0-.72.58-1.3 1.29-1.3H9.7c.71 0 1.3.58 1.3 1.3v4.4c0 .71-.59 1.3-1.3 1.3H5.29C4.58 20 4 19.41 4 18.7zm9 0c0-.72.58-1.3 1.29-1.3h4.41c.71 0 1.3.58 1.3 1.3v4.4c0 .71-.59 1.3-1.3 1.3h-4.41c-.71 0-1.29-.59-1.29-1.3z"/></svg>