<svg xmlns="http://www.w3.org/2000/svg" width="24" height="24" fill="none"><path fill="#717681" d="M5.3 4A1.3 1.3 0 0 0 4 5.3v4.4A1.3 1.3 0 0 0 5.3 11h4.4A1.3 1.3 0 0 0 11 9.7V5.3A1.3 1.3 0 0 0 9.7 4H5.3ZM5.3 13A1.3 1.3 0 0 0 4 14.3v4.4A1.3 1.3 0 0 0 5.3 20h4.4a1.3 1.3 0 0 0 1.3-1.3v-4.4A1.3 1.3 0 0 0 9.7 13H5.3ZM13 5.3A1.3 1.3 0 0 1 14.3 4h4.4A1.3 1.3 0 0 1 20 5.3v4.4a1.3 1.3 0 0 1-1.3 1.3h-4.4A1.3 1.3 0 0 1 13 9.7V5.3ZM14.3 13a1.3 1.3 0 0 0-1.3 1.3v4.4a1.3 1.3 0 0 0 1.3 1.3h4.4a1.3 1.3 0 0 0 1.3-1.3v-4.4a1.3 1.3 0 0 0-1.3-1.3h-4.4Z"/></svg>