<svg xmlns="http://www.w3.org/2000/svg" fill="none" viewBox="0 0 24 24" focusable="false"><path fill="none" d="M0 0h24v24H0z"/><path fill="#74767B" fill-rule="evenodd" d="m13.2 11.5.07-8.61a.7.7 0 0 0-.06-.3.84.84 0 0 0-.21-.33c-.04-.03-.07-.06-.11-.08-.06-.05-.13-.08-.2-.11a.6.6 0 0 0-.14-.05C12.48 2 12.4 2 12.32 2q-.135 0-.27.03a1 1 0 0 0-.15.05c-.07.03-.14.06-.2.11-.05.03-.09.06-.13.1a1.1 1.1 0 0 0-.23.32c-.02.06-.04.12-.05.18-.02.07-.03.13-.03.2l-.01 8c0 .27-.21.48-.48.48-.28 0-.49-.21-.49-.48l.01-6.51c0-.11-.02-.21-.05-.31a1 1 0 0 0-.22-.32c-.04-.04-.08-.07-.12-.1-.06-.04-.12-.07-.18-.1-.05-.01-.1-.03-.14-.04a1.09 1.09 0 0 0-.5 0c-.06.02-.11.03-.15.05-.08.03-.15.07-.21.11-.05.04-.09.07-.13.11-.06.06-.12.13-.16.2q-.045.06-.06.12c-.03.05-.05.11-.06.17-.01.07-.02.14-.02.21l-.01 7.71v1.96c0 .09-.01.17-.04.24a.8.8 0 0 1-.13.21.8.8 0 0 1-.21.15c-.08.03-.16.05-.26.05-.06 0-.12 0-.18-.02-.05-.01-.09-.03-.14-.05-.05-.03-.09-.06-.13-.09a.7.7 0 0 1-.14-.15l-1.98-2.94a.9.9 0 0 0-.2-.23 1 1 0 0 0-.24-.15c-.09-.04-.18-.06-.27-.08-.1-.01-.19-.01-.29 0-.07.01-.13.02-.2.04-.09.03-.17.08-.26.13-.06.04-.12.09-.17.15-.03.03-.06.08-.09.12-.03.05-.06.1-.08.15-.03.06-.05.12-.06.19-.01.06-.02.13-.02.2 0 .05.02.14.03.19.02.12.07.23.14.33.66 1.03 1.36 2.11 2.09 3.24 1.45 2.25 2.36 3.62 2.7 4.1q.645.9 1.35 1.38c.37.25.75.42 1.15.52.17.04.35.07.53.08h4.56c.24-.01.47-.05.69-.11s.43-.14.63-.23c.18-.09.35-.18.51-.29.21-.15.4-.31.59-.5.16-.17.3-.35.43-.54.12-.19.23-.38.32-.59.08-.19.15-.39.2-.59.06-.25.09-.51.11-.77V7.32c0-.11-.02-.22-.06-.31a.8.8 0 0 0-.21-.32 1 1 0 0 0-.12-.1c-.06-.04-.12-.07-.18-.1-.05-.02-.1-.03-.14-.04a1 1 0 0 0-.24-.03q-.135 0-.27.03a1 1 0 0 0-.15.05c-.07.03-.14.07-.2.11-.05.03-.09.07-.13.11-.07.06-.12.13-.16.2q-.045.06-.06.12c-.03.05-.05.11-.06.17-.02.07-.02.14-.02.21v4.56c0 .28-.22.49-.49.49s-.49-.21-.49-.49V4.27c0-.11-.01-.21-.05-.3-.05-.12-.12-.23-.22-.33a1 1 0 0 0-.1-.08c-.06-.05-.13-.08-.2-.11-.05-.02-.1-.04-.14-.05-.08-.02-.16-.02-.24-.02a1.1 1.1 0 0 0-.41.08c-.07.03-.14.06-.21.11-.04.03-.09.06-.13.1-.06.07-.12.13-.16.21-.02.03-.04.07-.06.11l-.06.18c-.01.07-.02.13-.02.2l-.06 7.13c0 .28-.22.49-.49.49s-.49-.21-.49-.49"/></svg>