<svg xmlns="http://www.w3.org/2000/svg" fill="none" viewBox="0 0 24 24" focusable="false"><defs><clipPath id="Heart_Outline_svg__a"><path fill="#fff" fill-opacity="0" d="M0 0h24v24H0z"/></clipPath></defs><g clip-path="url(#Heart_Outline_svg__a)"><path fill="#74767B" fill-rule="evenodd" d="m12 5.87-.79-.59c-.82-.62-1.85-.99-2.96-.99a4.96 4.96 0 0 0-4.96 4.96c0 2.4 1.53 4.58 3.55 6.38 1.95 1.73 4.15 2.93 5.16 3.43 1-.5 3.2-1.7 5.15-3.43 2.02-1.8 3.55-3.98 3.55-6.38 0-2.74-2.22-4.96-4.95-4.96-1.12 0-2.15.37-2.97.99zm0-1.63A6.27 6.27 0 0 0 8.25 3 6.24 6.24 0 0 0 2 9.25c0 5.93 7.45 10 9.49 11 .32.16.69.16 1.01 0 2.04-1 9.5-5.07 9.5-11C22 5.79 19.2 3 15.75 3c-1.41 0-2.71.46-3.75 1.24"/></g></svg>