<svg xmlns="http://www.w3.org/2000/svg" fill="none" viewBox="0 0 24 24" focusable="false"><path fill="#74767B" fill-rule="evenodd" d="m21 10.46-8.09-8.08c-.5-.51-1.33-.51-1.83 0L3 10.46c-.28.24-.31.65-.07.92.23.27.64.3.92.07L12 3.3c2.08 2.09 4.4 4.41 6.08 6.08v.01c.95.94 1.69 1.68 2.06 2.06.28.23.69.2.92-.07a.65.65 0 0 0-.06-.92M5 14.97c0-.64.2-1.23.54-1.72l1.32-2.61a3.01 3.01 0 0 1 2.68-1.65h4.91c1.13 0 2.17.64 2.68 1.65l1.29 2.56c.37.5.58 1.11.58 1.77v4.73c0 .71-.58 1.3-1.3 1.3h-1.46c-.72 0-1.3-.59-1.3-1.3v-.71H9.06v.71c0 .71-.58 1.3-1.3 1.3H6.3c-.72 0-1.3-.59-1.3-1.3zm2.82-2.99h-.18l.38-.76c.29-.57.88-.93 1.52-.93h4.91c.64 0 1.23.36 1.52.93l.38.76h-.17c-.06 0-.12-.01-.18-.01H8c-.06 0-.12.01-.18.01m9.88 5.71h-1.74l-.59-1.33a3 3 0 0 0-2.74-1.78h-1.25c-1.19 0-2.27.7-2.75 1.78l-.59 1.33H6.3v-1.84h1.06c.36 0 .65-.29.65-.65s-.29-.65-.65-.65H6.35c.18-.69.78-1.21 1.52-1.27h8.26c.74.06 1.34.58 1.52 1.27H16.6c-.36 0-.65.29-.65.65s.29.65.65.65h1.1zm-3.51-.8.35.8H9.47l.35-.8c.27-.62.88-1.01 1.56-1.01h1.25c.67 0 1.28.39 1.56 1.01M7.76 19.7H6.3v-.69h1.46zm8.48 0h1.46v-.69h-1.46z"/></svg>