<svg xmlns="http://www.w3.org/2000/svg" fill="none" viewBox="0 0 24 24" focusable="false"><path fill="#717681" d="m12.919 2.387 8.08 8.08a.65.65 0 0 1-.85.984l-2.061-2.06-.001-.001C16.41 7.714 14.085 5.392 12 3.306l-8.15 8.145a.65.65 0 1 1-.85-.983l8.08-8.081a1.3 1.3 0 0 1 1.839 0"/><path fill="#717681" fill-rule="evenodd" d="M5.549 13.253a3 3 0 0 0-.547 1.727v4.72a1.3 1.3 0 0 0 1.3 1.3h1.463a1.3 1.3 0 0 0 1.3-1.3v-.707h5.879v.707a1.3 1.3 0 0 0 1.3 1.3h1.463a1.3 1.3 0 0 0 1.3-1.3v-4.72c0-.663-.215-1.276-.579-1.772l-1.294-2.567a3 3 0 0 0-2.679-1.649h-4.91a3 3 0 0 0-2.68 1.65zm10.418 4.44h1.74v-1.84h-1.103a.65.65 0 0 1 0-1.3h1.05a1.7 1.7 0 0 0-1.516-1.269H7.87a1.7 1.7 0 0 0-1.515 1.27h1.01a.65.65 0 1 1 0 1.3H6.301v1.839H8.05l.587-1.327a3 3 0 0 1 2.743-1.786h1.256a3 3 0 0 1 2.744 1.786zm-1.422 0-.354-.8a1.7 1.7 0 0 0-1.555-1.013H11.38a1.7 1.7 0 0 0-1.554 1.012l-.355.8zm-6.9-5.709h.183q.087-.004.174-.004h8.005q.087 0 .174.005h.174l-.382-.758a1.7 1.7 0 0 0-1.518-.935h-4.91a1.7 1.7 0 0 0-1.519.935zM17.706 19.7h-1.463v-.684h1.463zm-11.405 0h1.463v-.684H6.302z" clip-rule="evenodd"/></svg>