<svg xmlns="http://www.w3.org/2000/svg" fill="none" viewBox="0 0 24 24" focusable="false"><path fill="#717681" fill-rule="evenodd" d="M10 2a.65.65 0 0 1 .65.65V5h2.7V2.65a.65.65 0 1 1 1.3 0V5h1.042c.39 0 .759.175 1.006.477l1.234 1.508a3 3 0 0 1-.064 3.874l-3.61 4.129a3.04 3.04 0 0 1-.288.289 3.65 3.65 0 1 1-5.62 3.073.65.65 0 1 1 1.3 0 2.35 2.35 0 1 0 2.538-2.343 2.99 2.99 0 0 1-2.446-1.02l-3.61-4.128a3 3 0 0 1-.063-3.874l1.233-1.508A1.3 1.3 0 0 1 8.31 5H9.35V2.65A.65.65 0 0 1 10 2m2.495 6.05a.7.7 0 0 0-.99 0l-.424.425a.7.7 0 0 0 0 .99l.424.424a.7.7 0 0 0 .99 0l.424-.424a.7.7 0 0 0 0-.99z" clip-rule="evenodd"/></svg>