<svg xmlns="http://www.w3.org/2000/svg" fill="none" viewBox="0 0 24 24" focusable="false"><path fill="#717681" fill-rule="evenodd" d="M10.65 2.64c0-.35-.3-.64-.65-.64-.36 0-.65.29-.65.64V5H8.3c-.39 0-.76.17-1 .47L6.06 6.98c-.92 1.13-.9 2.77.07 3.87l3.61 4.13c.64.74 1.55 1.08 2.44 1.02 1.21.1 2.17 1.11 2.17 2.35A2.36 2.36 0 0 1 12 20.7c-1.3 0-2.35-1.06-2.35-2.35 0-.36-.3-.65-.65-.65-.36 0-.65.29-.65.65C8.35 20.36 9.98 22 12 22c2.01 0 3.65-1.64 3.65-3.65 0-1.3-.67-2.43-1.68-3.08.1-.09.19-.18.28-.29l3.61-4.13c.97-1.1.99-2.74.07-3.87l-1.24-1.51c-.24-.3-.61-.47-1-.47h-1.04V2.64c0-.35-.3-.64-.65-.64-.36 0-.65.29-.65.64V5h-2.7zM8.3 6.3h7.39l1.23 1.5c.53.65.51 1.57-.04 2.2l-3.6 4.13c-.3.34-.7.53-1.11.57h-.29a1.66 1.66 0 0 1-1.16-.57L7.11 10c-.55-.63-.57-1.55-.04-2.2zm3.2 1.75c.27-.28.72-.28.99 0l.42.42c.28.27.28.72 0 .99l-.42.42c-.27.28-.72.28-.99 0l-.42-.42a.69.69 0 0 1 0-.99z"/></svg>