<svg xmlns="http://www.w3.org/2000/svg" fill="none" viewBox="0 0 24 24" focusable="false"><path fill="#717681" fill-rule="evenodd" d="m6.46 3.99 1.86 3.97C7.18 9.77 5 13.56 5 16c0 3.62 3 5 7 5s7-1.38 7-5c0-2.44-2.19-6.23-3.33-8.04l1.86-3.97a.695.695 0 0 0-.64-.99h-9.8c-.51 0-.85.53-.63.99m9.49.3H8.04L9.3 7h5.39zM9.47 8.57c.06-.1.12-.19.18-.28h4.69a34.214 34.214 0 0 1 1.51 2.55c.48.89.96 1.87 1.3 2.8.36.95.55 1.76.55 2.36 0 1.38-.54 2.21-1.4 2.76-.95.6-2.42.94-4.3.94-1.89 0-3.36-.34-4.31-.94-.86-.55-1.4-1.38-1.4-2.76 0-.6.19-1.41.55-2.36.34-.93.82-1.91 1.3-2.8.48-.9.96-1.69 1.33-2.27M10 13c.55 0 .99-.45.99-1A.994.994 0 1 0 9 12c0 .55.44 1 1 1m5-1.05c.23.27.19.68-.08.91l-5.51 4.58a.65.65 0 0 1-.83-1l5.5-4.58c.28-.23.69-.19.92.09M14.99 17A.994.994 0 1 1 13 17a.994.994 0 1 1 1.99 0"/></svg>