<svg xmlns="http://www.w3.org/2000/svg" fill="none" viewBox="0 0 24 24" focusable="false"><defs><clipPath id="Huge_Procent_Solid_svg__a"><path fill="#fff" fill-opacity="0" d="M0 0h24v24H0z"/></clipPath></defs><g clip-path="url(#Huge_Procent_Solid_svg__a)"><path fill="#74767B" fill-rule="evenodd" d="M7.1 3h9.79c.52 0 .86.53.64.99l-1.88 3.99c1.14 1.8 3.35 5.59 3.35 8.03 0 3.62-3 4.99-7 4.99s-7-1.37-7-4.99c0-2.44 2.2-6.23 3.34-8.03L6.46 3.99c-.22-.46.12-.99.64-.99m7.9 8.95c.23.27.2.68-.08.91l-5.51 4.58a.64.64 0 0 1-.91-.09.64.64 0 0 1 .08-.91l5.51-4.57c.27-.23.68-.2.91.08M13.99 18c.56 0 1-.45 1-1s-.44-.99-1-.99c-.55 0-.99.44-.99.99s.44 1 .99 1m-3-6.01a.994.994 0 1 1-1.99 0c0-.55.44-.99.99-.99.56 0 1 .44 1 .99"/></g></svg>