<svg xmlns="http://www.w3.org/2000/svg" fill="none" viewBox="0 0 24 24" focusable="false"><defs><clipPath id="Icons_Outline_svg__a"><path fill="#fff" fill-opacity="0" d="M0 0h24v24H0z"/></clipPath></defs><g clip-path="url(#Icons_Outline_svg__a)"><path fill="#74767B" fill-rule="evenodd" d="M12.98 10.99c-.46 0-.75-.49-.52-.89l3.47-6.14c.23-.41.82-.41 1.05 0l3.47 6.14c.22.4-.06.89-.52.89zm-9.29-6.7c0-.33.27-.6.6-.6h6.1c.34 0 .61.27.61.6v6.1c0 .34-.27.6-.61.6h-6.1c-.33 0-.6-.26-.6-.6zM5 9.69v-4.7h4.69v4.7zm9.18 0 2.27-4.01 2.28 4.01zM7.9 12.67a.58.58 0 0 0-.84 0l-3.42 3.42a.58.58 0 0 0 0 .84l3.42 3.42c.23.24.61.24.84 0l3.42-3.42a.58.58 0 0 0 0-.84zm12.39 3.78c0 2.13-1.71 3.84-3.84 3.84a3.841 3.841 0 1 1 3.84-3.84m-3.84-2.54a2.546 2.546 0 1 1 .009 5.091 2.546 2.546 0 0 1-.009-5.091m-8.97.17-2.43 2.43 2.43 2.43 2.43-2.43z"/></g></svg>