<svg xmlns="http://www.w3.org/2000/svg" fill="none" viewBox="0 0 24 24" focusable="false"><path fill="#74767B" fill-rule="evenodd" d="M16.01 17.98v-3.01a6.64 6.64 0 0 0 2.65-5.31C18.66 5.98 15.67 3 12 3 8.32 3 5.33 5.98 5.33 9.66c0 2.17 1.04 4.09 2.65 5.31v3.01c0 1.67 1.35 3.02 3.01 3.02H13c1.66 0 3.01-1.35 3.01-3.02M8.8 13.96l-.03-.03a5.33 5.33 0 0 1-2.13-4.27C6.64 6.7 9.04 4.3 12 4.3c2.95 0 5.35 2.4 5.35 5.36 0 1.74-.83 3.29-2.13 4.27l-.03.03h-1.13v-3.72h.77c.36 0 .65-.29.65-.65s-.29-.65-.65-.65H9.21c-.36 0-.65.29-.65.65s.29.65.65.65h.77v3.72zm2.48 0h1.47v-3.72h-1.47z"/></svg>