<svg xmlns="http://www.w3.org/2000/svg" fill="none" viewBox="0 0 24 24" focusable="false"><defs><clipPath id="Idea_Outline_svg__a"><path fill="#fff" fill-opacity="0" d="M0 0h24v24H0z"/></clipPath></defs><g clip-path="url(#Idea_Outline_svg__a)"><path fill="#717681" fill-rule="evenodd" d="M16.01 14.97v3.01c0 1.67-1.35 3.02-3.01 3.02h-2.01c-1.66 0-3.01-1.35-3.01-3.02v-3.01a6.643 6.643 0 0 1-2.65-5.31C5.33 5.98 8.32 3 12 3c3.67 0 6.66 2.98 6.66 6.66 0 2.17-1.04 4.09-2.65 5.31m-6.72.29h5.41v2.72a1.7 1.7 0 0 1-1.7 1.71h-2.01a1.7 1.7 0 0 1-1.7-1.71zm-.52-1.33.03.03h1.18v-3.72h-.77c-.36 0-.65-.29-.65-.65 0-.36.29-.65.65-.65h5.62c.36 0 .65.29.65.65 0 .36-.29.65-.65.65h-.77v3.72h1.13l.03-.03c1.3-.98 2.13-2.53 2.13-4.27 0-2.96-2.4-5.36-5.35-5.36a5.36 5.36 0 0 0-5.36 5.36c0 1.74.83 3.29 2.13 4.27m3.98.03v-3.72h-1.47v3.72z"/></g></svg>