<svg xmlns="http://www.w3.org/2000/svg" fill="none" viewBox="0 0 24 24" focusable="false"><defs><clipPath id="Invalid_Outline_svg__a"><path fill="#fff" fill-opacity="0" d="M0 0h24v24H0z"/></clipPath></defs><g clip-path="url(#Invalid_Outline_svg__a)"><path fill="#717681" fill-rule="evenodd" d="M9.5 3.8C9.4 2.84 10.1 2 11 2c.89 0 1.59.84 1.49 1.8l-.09.84C12.32 5.41 11.71 6 11 6c-.72 0-1.33-.59-1.41-1.36zm3.55 8.5c.78.66 1.38 1.55 1.7 2.56l1.7.32c.73.14 1.32.67 1.52 1.38l.96 3.38c.1.35-.1.7-.45.8-.34.1-.7-.1-.8-.44l-.96-3.38a.65.65 0 0 0-.51-.46l-1.22-.23c0 .09.01.18.01.27 0 3.03-2.47 5.5-5.5 5.5C6.46 22 4 19.53 4 16.5c0-1.93.98-3.62 2.47-4.6-.38-.29-.65-.72-.74-1.22L5.3 8.26c-.06-.36.18-.7.53-.76s.69.18.75.53l.43 2.43c.06.31.33.54.64.54H9V9c0-1.11.89-2 2-2a2 2 0 0 1 2 2v2h2.25c.36 0 .65.29.65.65 0 .35-.29.65-.65.65zM11.69 11v-.5c0-.02 0-.03.01-.05V9a.71.71 0 0 0-.7-.71c-.39 0-.71.32-.71.71v2zm2.01 5.49c0-2.31-1.89-4.2-4.2-4.2-2.32 0-4.21 1.89-4.21 4.2 0 2.32 1.89 4.21 4.21 4.21 2.31 0 4.2-1.89 4.2-4.21"/></g></svg>