<svg xmlns="http://www.w3.org/2000/svg" fill="none" viewBox="0 0 24 24" focusable="false"><path fill="#717681" fill-rule="evenodd" d="M20.54 5.06c0 1.68-1.36 3.03-3.03 3.03-1.65 0-3-1.31-3.03-2.95h-2.49c-.22-.01-.5-.04-.71-.09-.2-.05-.4-.12-.6-.22q-.285-.135-.54-.33a2.7 2.7 0 0 1-.48-.47c-.09-.11-.25-.2-.36-.25-.09-.03-.16-.04-.21-.01l-1.9 1.1c-.05.03-.09.14-.11.23 0 .1.01.29.05.39.08.22.14.43.17.65.01.14.02.27.02.4 0 .08 0 .16-.01.24-.01.21-.05.42-.11.62-.07.23-.16.45-.28.66-.13.22-.27.41-.43.58-.15.15-.31.29-.49.41s-.36.22-.56.3c-.2.09-.42.15-.64.19-.14.02-.3.1-.4.18-.08.06-.11.12-.11.18v2.26c0 .06.08.15.14.21.08.06.18.09.29.11.23.04.46.1.68.18.11.04.21.09.31.14.23.12.43.26.62.42q.105.09.21.21c.14.14.26.3.36.46.08.14.15.29.21.44.03.07.06.14.08.21.09.29.13.59.13.9q0 .315-.06.6c-.03.16-.07.31-.13.46-.03.1-.05.21-.05.32 0 .04.01.08.01.12.02.09.05.15.1.18l1.9 1.1c.05.03.17.01.26-.02.11-.05.22-.13.31-.24.14-.18.3-.33.48-.47q.255-.195.54-.33c.2-.1.4-.17.6-.22.19-.04.39-.07.59-.08h2.63a3.027 3.027 0 0 1 3.03-2.96c1.68 0 3.03 1.35 3.03 3.03 0 1.67-1.35 3.03-3.03 3.03-1.24 0-2.3-.74-2.77-1.8h-2.77c-.14 0-.28.02-.42.05-.11.03-.22.07-.32.12-.11.05-.21.11-.31.18-.1.08-.19.17-.28.28-.04.05-.09.1-.14.15-.09.09-.18.16-.28.24-.17.11-.34.2-.53.26-.2.07-.41.1-.61.1a1.6 1.6 0 0 1-.66-.2l-1.9-1.09q-.135-.075-.24-.18a1.576 1.576 0 0 1-.48-.88c-.03-.12-.04-.25-.04-.38 0-.07 0-.14.01-.2q.015-.18.06-.36l.06-.2c.03-.08.06-.16.07-.24.03-.12.04-.24.04-.37 0-.27-.05-.51-.16-.73-.07-.15-.21-.33-.32-.45-.12-.12-.27-.22-.42-.3L5 13.9c-.15-.06-.31-.11-.48-.13-.08-.02-.16-.03-.23-.05-.11-.03-.21-.07-.31-.12-.17-.08-.34-.2-.48-.31-.13-.13-.28-.33-.36-.49-.06-.11-.1-.22-.12-.34-.02-.1-.03-.19-.03-.3V9.9c0-.1.01-.2.03-.29.02-.13.07-.27.14-.39.09-.18.22-.33.38-.48.14-.12.31-.23.49-.31.11-.06.23-.1.35-.13.06-.02.13-.03.2-.04.13-.03.26-.06.38-.11.11-.05.21-.1.31-.17s.18-.14.26-.22c.1-.11.19-.22.26-.35.07-.12.13-.25.17-.39.03-.11.05-.22.06-.34v-.13c0-.08 0-.15-.01-.22-.02-.13-.05-.26-.1-.39-.02-.06-.04-.13-.06-.19-.03-.12-.05-.24-.06-.37-.01-.06-.01-.13-.01-.19 0-.14.01-.27.04-.39.04-.21.12-.42.23-.58.07-.12.15-.22.25-.3q.12-.105.24-.18l1.9-1.09a1.6 1.6 0 0 1 .67-.2c.2 0 .4.03.6.1.19.06.36.15.53.26.1.07.19.15.28.24.05.05.09.1.14.15.08.11.18.2.28.28.1.07.2.13.31.18.1.05.21.09.32.12.14.03.28.05.42.05l2.74.01a3.034 3.034 0 0 1 5.81 1.22m-3.03 1.73c.95 0 1.73-.77 1.73-1.73 0-.95-.78-1.73-1.73-1.73-.96 0-1.74.78-1.74 1.73 0 .96.78 1.73 1.74 1.73m-1.75 4.86A3.818 3.818 0 0 1 8.18 11 3.82 3.82 0 0 1 12 7.18c1.88 0 3.45 1.37 3.76 3.17h4.13c.36 0 .65.28.65.65 0 .36-.29.65-.65.65zM12 13.51c1.39 0 2.51-1.12 2.51-2.51S13.39 8.48 12 8.48 9.48 9.61 9.48 11s1.13 2.51 2.52 2.51m5.53 5.15a1.73 1.73 0 1 0-1.73-1.73c0 .95.78 1.73 1.73 1.73"/></svg>