<svg xmlns="http://www.w3.org/2000/svg" fill="none" viewBox="0 0 24 24" focusable="false"><path fill="#74767B" fill-rule="evenodd" d="M18.82 6.79c.36 0 .65-.3.65-.65 0-.36-.29-.65-.65-.65h-4.54c-1.63 0-2.95 1.32-2.95 2.95v.27H2.87c-.36 0-.65.29-.65.65s.29.65.65.65H12c.35 0 .65-.29.65-.65 0-.04-.01-.09-.02-.13v-.79c0-.92.74-1.65 1.65-1.65zm3.09 4.13c0-1.63-1.32-2.95-2.95-2.95h-2.44c-1.63 0-2.95 1.32-2.95 2.95v.28H4.84c-.93 0-1.66.8-1.58 1.72a2.795 2.795 0 0 0 2.78 2.55h.36c.15 0 .29-.05.41-.14l.8-.65c.18-.16.45-.17.65-.03l1.7 1.14c.11.08.24.11.37.11h3.24v.22c0 1.63 1.32 2.95 2.95 2.95h2.44c1.63 0 2.95-1.32 2.95-2.95zm-3.71 5c-.36 0-.65-.29-.65-.65v-3.23c0-.36.29-.65.65-.65s.65.29.65.65v3.23c0 .36-.29.65-.65.65"/></svg>