<svg xmlns="http://www.w3.org/2000/svg" fill="none" viewBox="0 0 24 24" focusable="false"><defs><clipPath id="Label_Solid_svg__a"><path fill="#fff" fill-opacity="0" d="M0 0h24v24H0z"/></clipPath></defs><g clip-path="url(#Label_Solid_svg__a)"><path fill="#717681" fill-rule="evenodd" d="M7.17 3.69c.03-.36.35-.62.71-.58l4.69.44c.83.08 1.61.44 2.2 1.02l5.54 5.41c.26.25.26.67.01.92-.25.26-.66.26-.92.01L13.87 5.5c-.39-.37-.89-.6-1.42-.65L7.76 4.4a.65.65 0 0 1-.59-.71m-2.13 1.7C4.21 5.3 3.51 6 3.6 6.82l.73 6.66c.07.68.37 1.32.86 1.8l4.7 4.71a3.01 3.01 0 0 0 4.25 0l4.06-4.07a3 3 0 0 0 0-4.24l-4.71-4.71c-.48-.48-1.11-.79-1.79-.86zm2.84 5.29c.55 0 1-.45 1-1s-.45-1-1-1-1 .45-1 1 .45 1 1 1"/></g></svg>