<svg xmlns="http://www.w3.org/2000/svg" width="24" height="24" fill="none"><path fill="#717681" d="M7.883 3.11a.65.65 0 0 0-.123 1.295l4.69.445a2.35 2.35 0 0 1 1.42.659l5.537 5.41a.65.65 0 1 0 .909-.93l-5.537-5.41a3.65 3.65 0 0 0-2.206-1.023l-4.69-.446Z"/><path fill="#717681" fill-rule="evenodd" d="M3.608 6.827a1.3 1.3 0 0 1 1.433-1.433l6.66.722a3 3 0 0 1 1.798.861l4.707 4.708a3 3 0 0 1 0 4.242l-4.064 4.065a3 3 0 0 1-4.243 0l-4.707-4.707a3 3 0 0 1-.861-1.798l-.723-6.66Zm5.278 2.856a1 1 0 1 1-2 0 1 1 0 0 1 2 0Z" clip-rule="evenodd"/></svg>