<svg xmlns="http://www.w3.org/2000/svg" fill="none" viewBox="0 0 24 24" focusable="false"><path fill="#717681" d="M7.175 3.696a.65.65 0 0 1 .708-.586l4.69.446a3.65 3.65 0 0 1 2.206 1.023l5.537 5.41a.65.65 0 1 1-.909.93l-5.537-5.41a2.35 2.35 0 0 0-1.42-.659l-4.69-.445a.65.65 0 0 1-.585-.709M7.886 10.683a1 1 0 1 0 0-2 1 1 0 0 0 0 2"/><path fill="#717681" fill-rule="evenodd" d="M5.04 5.394a1.3 1.3 0 0 0-1.432 1.433l.723 6.66a3 3 0 0 0 .86 1.798L9.9 19.992a3 3 0 0 0 4.243 0l4.064-4.065a3 3 0 0 0 0-4.242L13.5 6.977a3 3 0 0 0-1.798-.86l-6.66-.723m8.182 13.679 4.065-4.065a1.7 1.7 0 0 0 0-2.404L12.58 7.897a1.7 1.7 0 0 0-1.019-.488l-6.66-.723.722 6.66a1.7 1.7 0 0 0 .488 1.02l4.707 4.707a1.7 1.7 0 0 0 2.404 0" clip-rule="evenodd"/></svg>