<svg xmlns="http://www.w3.org/2000/svg" fill="none" viewBox="0 0 24 24" focusable="false"><path fill="#74767B" fill-rule="evenodd" d="M7.17 3.69c.03-.36.35-.62.71-.58l4.69.44c.83.08 1.61.44 2.2 1.02l5.54 5.41c.26.25.26.67.01.92-.25.26-.66.26-.92.01L13.87 5.5c-.39-.37-.89-.6-1.42-.65L7.76 4.4a.65.65 0 0 1-.59-.71M3.6 6.82C3.51 6 4.21 5.3 5.04 5.39l6.66.72c.68.07 1.31.38 1.79.86l4.71 4.71a3 3 0 0 1 0 4.24l-4.06 4.07a3.01 3.01 0 0 1-4.25 0l-4.7-4.71c-.49-.48-.79-1.12-.86-1.8zM17.28 15l-4.06 4.07c-.67.66-1.74.66-2.41 0l-4.7-4.71c-.28-.27-.45-.63-.49-1.02L4.9 6.68l6.66.72c.38.05.74.22 1.01.49l4.71 4.71c.67.66.67 1.74 0 2.4m-9.4-4.32c.55 0 1-.45 1-1s-.45-1-1-1-1 .45-1 1 .45 1 1 1"/></svg>