<svg xmlns="http://www.w3.org/2000/svg" fill="none" viewBox="0 0 24 24" focusable="false"><path fill="#717681" d="m3.527 15.01 6.84 3.42a3.65 3.65 0 0 0 3.265 0l6.84-3.42.574.286a.75.75 0 0 1 0 1.341l-7.414 3.707a3.65 3.65 0 0 1-3.264 0l-7.414-3.707a.75.75 0 0 1 0-1.341l.573-.287"/><path fill="#717681" d="m3.527 11.04 6.84 3.42a3.65 3.65 0 0 0 3.265 0l6.841-3.42.643.322a.75.75 0 0 1 0 1.341l-7.484 3.742a3.65 3.65 0 0 1-3.264 0l-7.484-3.742a.75.75 0 0 1 0-1.341l.643-.322"/><path fill="#717681" d="M13.632 3.652a3.65 3.65 0 0 0-3.264 0L2.884 7.393a.75.75 0 0 0 0 1.342l7.484 3.742a3.65 3.65 0 0 0 3.264 0l7.484-3.742a.75.75 0 0 0 0-1.342l-7.484-3.741"/></svg>