<svg xmlns="http://www.w3.org/2000/svg" fill="none" viewBox="0 0 24 24" focusable="false"><defs><clipPath id="Layers_Solid_svg__a"><path fill="#fff" fill-opacity="0" d="M0 0h24v24H0z"/></clipPath></defs><g clip-path="url(#Layers_Solid_svg__a)"><path fill="#717681" fill-rule="evenodd" d="M10.36 3.65c1.03-.52 2.24-.52 3.27 0l7.48 3.74c.55.27.55 1.06 0 1.34l-7.48 3.74c-1.03.52-2.24.52-3.27 0L2.88 8.73c-.55-.28-.55-1.07 0-1.34zm-6.84 7.39 6.84 3.42c1.03.51 2.24.51 3.27 0l6.84-3.42.64.32c.55.27.55 1.06 0 1.34l-7.48 3.74c-1.03.51-2.24.51-3.27 0L2.88 12.7c-.55-.28-.55-1.07 0-1.34zm0 3.96 6.84 3.42c1.03.52 2.24.52 3.27 0L20.47 15l.57.29c.55.28.55 1.07 0 1.34l-7.41 3.71c-1.03.51-2.24.51-3.27 0l-7.41-3.71c-.55-.27-.55-1.06 0-1.34z"/></g></svg>