<svg xmlns="http://www.w3.org/2000/svg" fill="none" viewBox="0 0 24 24" focusable="false"><defs><clipPath id="Layout_Outline_svg__a"><path fill="#fff" fill-opacity="0" d="M0 0h24v24H0z"/></clipPath></defs><g clip-path="url(#Layout_Outline_svg__a)"><path fill="#717681" fill-rule="evenodd" d="M18.83 7.99A1.3 1.3 0 0 0 20 6.7V5.29C20 4.58 19.41 4 18.7 4H5.29C4.58 4 4 4.58 4 5.29V6.7c0 .67.5 1.22 1.16 1.29.04 0 .09.01.13.01H18.7c.04 0 .09-.01.13-.01M7.57 9.29c-.05 0-.11-.01-.17-.01H5.29c-.04 0-.09.01-.13.01C4.5 9.36 4 9.91 4 10.58v8.12c0 .71.58 1.3 1.29 1.3H7.4c.68 0 1.24-.52 1.3-1.19V10.47c-.06-.61-.53-1.1-1.13-1.18m11.26 0c-.04 0-.09-.01-.13-.01h-7.41c-.05 0-.11.01-.16.01-.6.08-1.08.57-1.13 1.18V18.81c.06.67.62 1.19 1.29 1.19h7.41c.71 0 1.3-.59 1.3-1.3v-8.12a1.3 1.3 0 0 0-1.17-1.29m-13.23-4a.31.31 0 0 0-.31.3v.81c0 .16.14.3.31.3h12.79c.17 0 .31-.14.31-.3v-.81c0-.16-.14-.3-.31-.3zm0 5.29a.31.31 0 0 0-.31.3v7.52c0 .16.14.3.31.3h1.5a.3.3 0 0 0 .3-.3v-7.52a.3.3 0 0 0-.3-.3zm6 0a.31.31 0 0 0-.31.3v7.52c0 .16.14.3.31.3h6.79c.17 0 .31-.14.31-.3v-7.52c0-.16-.14-.3-.31-.3z"/></g></svg>