<svg xmlns="http://www.w3.org/2000/svg" fill="none" viewBox="0 0 24 24" focusable="false"><defs><clipPath id="Level_Up_Solid_svg__a"><path fill="#fff" fill-opacity="0" d="M0 0h24v24H0z"/></clipPath></defs><g clip-path="url(#Level_Up_Solid_svg__a)"><path fill="#717681" fill-rule="evenodd" d="M3 12c0 4.97 4.02 9 9 9a9 9 0 0 0 9-9c0-4.98-4.03-9-9-9-4.98 0-9 4.02-9 9m12.74-1.55c.25.26.66.26.91 0 .26-.25.26-.66 0-.91l-3-3a.63.63 0 0 0-.91 0l-3 3c-.26.25-.26.66 0 .91.25.26.66.26.91 0l1.89-1.89V13c0 1.29-1.05 2.35-2.34 2.35H8.7c-.36 0-.66.29-.66.65 0 .35.3.65.66.65h1.5c2.01 0 3.65-1.64 3.65-3.65V8.56z"/></g></svg>