<svg xmlns="http://www.w3.org/2000/svg" fill="none" viewBox="0 0 24 24" focusable="false"><defs><clipPath id="Library_Auditor_Outline_svg__a"><path fill="#fff" fill-opacity="0" d="M0 0h24v24H0z"/></clipPath></defs><g clip-path="url(#Library_Auditor_Outline_svg__a)"><path fill="#74767B" fill-rule="evenodd" d="M4.97 7.66c0-2.01 1.63-3.65 3.65-3.65h6.75c2.02 0 3.65 1.64 3.65 3.65v5.49c0 .35-.29.65-.65.65s-.65-.3-.65-.65V7.66c0-1.3-1.05-2.35-2.35-2.35H8.62c-1.3 0-2.35 1.05-2.35 2.35v6.88c.48-.33 1.06-.52 1.69-.52h4.99c.36 0 .65.29.65.65s-.29.65-.65.65H7.96c-.93 0-1.69.76-1.69 1.69s.76 1.69 1.69 1.69h2.9c.36 0 .65.29.65.65s-.29.65-.65.65h-2.9c-1.65 0-2.99-1.34-2.99-2.99zm3.87-.67c-.36 0-.65.29-.65.65s.29.65.65.65h6.31c.36 0 .65-.29.65-.65s-.29-.65-.65-.65zm-.65 3.24c0-.36.29-.65.65-.65h6.31c.36 0 .65.29.65.65s-.29.65-.65.65H8.84c-.36 0-.65-.29-.65-.65m13.35 7.03c.58.73.58 1.74-.01 2.46-.82 1.01-2.23 2.28-4.19 2.28s-3.37-1.27-4.19-2.28c-.58-.73-.59-1.73-.01-2.45.81-1.01 2.21-2.28 4.2-2.28s3.39 1.26 4.2 2.27m-1.02 1.64c-.73.9-1.81 1.8-3.18 1.8s-2.45-.9-3.17-1.8a.624.624 0 0 1-.01-.82c.71-.89 1.78-1.79 3.18-1.79s2.47.89 3.19 1.78c.19.25.19.58-.01.83m-3.15.62c.55 0 1-.45 1-1s-.45-1-1-1-1 .45-1 1 .45 1 1 1"/></g></svg>