<svg xmlns="http://www.w3.org/2000/svg" fill="none" viewBox="0 0 24 24" focusable="false"><path fill="#717681" d="M4.976 7.667a3.65 3.65 0 0 1 3.65-3.65h6.749a3.65 3.65 0 0 1 3.65 3.65v5.484a.65.65 0 1 1-1.3 0V7.667a2.35 2.35 0 0 0-2.35-2.35h-6.75a2.35 2.35 0 0 0-2.35 2.35v6.883a2.975 2.975 0 0 1 1.69-.523h4.994a.65.65 0 1 1 0 1.3H7.965a1.69 1.69 0 1 0 0 3.378h2.9a.65.65 0 1 1 0 1.3h-2.9a2.99 2.99 0 0 1-2.99-2.989V7.667Z"/><path fill="#717681" d="M8.841 6.994a.65.65 0 0 0 0 1.3h6.318a.65.65 0 1 0 0-1.3H8.84ZM8.841 9.587a.65.65 0 0 0 0 1.3h6.318a.65.65 0 1 0 0-1.3H8.84ZM17.375 19.524a1 1 0 1 0 0-2 1 1 0 0 0 0 2Z"/><path fill="#717681" fill-rule="evenodd" d="M21.534 19.726a1.944 1.944 0 0 0 .011-2.46C20.738 16.26 19.333 15 17.345 15c-1.991 0-3.395 1.263-4.198 2.272a1.941 1.941 0 0 0 .01 2.449C13.972 20.73 15.385 22 17.346 22c1.957 0 3.372-1.265 4.19-2.274Zm-4.19.974c1.368 0 2.45-.89 3.18-1.792a.644.644 0 0 0 .006-.829c-.712-.89-1.784-1.78-3.185-1.78-1.403 0-2.472.893-3.181 1.783a.642.642 0 0 0 .006.823c.727.902 1.806 1.795 3.175 1.795Z" clip-rule="evenodd"/></svg>