<svg xmlns="http://www.w3.org/2000/svg" fill="none" viewBox="0 0 24 24" focusable="false"><mask id="Line_Chart_Solid_svg__a" fill="#fff"><path d="M4.03 18.695a.65.65 0 1 0 0 1.3h15.965a.65.65 0 0 0 0-1.3zM8.757 10.886l2.313 2.316a2.02 2.02 0 0 1 1.626-.102l2.85-4.865a2.028 2.028 0 1 1 1.1.694l-2.928 4.999a2.028 2.028 0 1 1-3.552.209L7.853 11.82a2.028 2.028 0 1 1 .904-.935"/></mask><path fill="#717681" d="M4.03 18.695a.65.65 0 1 0 0 1.3h15.965a.65.65 0 0 0 0-1.3zM8.757 10.886l2.313 2.316a2.02 2.02 0 0 1 1.626-.102l2.85-4.865a2.028 2.028 0 1 1 1.1.694l-2.928 4.999a2.028 2.028 0 1 1-3.552.209L7.853 11.82a2.028 2.028 0 1 1 .904-.935"/><path stroke="#717681" stroke-width="2.6" d="M4.03 18.695a.65.65 0 1 0 0 1.3h15.965a.65.65 0 0 0 0-1.3z" mask="url(#Line_Chart_Solid_svg__a)"/><path stroke="#717681" stroke-width="2.6" d="m8.757 10.886 2.313 2.316a2.02 2.02 0 0 1 1.626-.102l2.85-4.865a2.028 2.028 0 1 1 1.1.694l-2.928 4.999a2.028 2.028 0 1 1-3.552.209L7.853 11.82a2.028 2.028 0 1 1 .904-.935Z" mask="url(#Line_Chart_Solid_svg__a)"/></svg>