<svg xmlns="http://www.w3.org/2000/svg" width="24" height="24" fill="none"><path fill="#717681" d="M4.03 18.695a.65.65 0 1 0 0 1.3h15.965a.65.65 0 0 0 0-1.3H4.03Z"/><path fill="#717681" fill-rule="evenodd" d="m8.757 10.886 2.313 2.316a2.02 2.02 0 0 1 1.626-.102l2.85-4.865a2.028 2.028 0 1 1 1.1.694l-2.928 4.999a2.028 2.028 0 1 1-3.552.209L7.853 11.82a2.028 2.028 0 1 1 .904-.935Zm-1.105-.868a.728.728 0 1 1-1.455 0 .728.728 0 0 1 1.455 0ZM12 15.732a.728.728 0 1 0 0-1.456.728.728 0 0 0 0 1.456Zm5.85-8.776a.728.728 0 1 1-1.456 0 .728.728 0 0 1 1.456 0Z" clip-rule="evenodd"/></svg>