<svg xmlns="http://www.w3.org/2000/svg" fill="none" viewBox="0 0 24 24" focusable="false"><g fill="#717681" fill-rule="evenodd"><path d="m11.06 13.2-2.31-2.32c.13-.26.2-.56.2-.87 0-1.12-.91-2.02-2.03-2.02s-2.03.9-2.03 2.02.91 2.03 2.03 2.03c.33 0 .65-.08.93-.22l2.31 2.31c-.12.26-.19.56-.19.87 0 1.12.9 2.03 2.02 2.03a2.031 2.031 0 0 0 1.72-3.11l2.93-5q.225.06.48.06c1.12 0 2.02-.91 2.02-2.03s-.9-2.03-2.02-2.03a2.031 2.031 0 0 0-1.58 3.31l-2.85 4.86c-.22-.07-.45-.12-.7-.12-.33 0-.65.08-.93.23m-7.69 6.14c0-.36.3-.65.65-.65h15.97c.36 0 .65.29.65.65s-.29.65-.65.65H4.02c-.35 0-.65-.29-.65-.65"/><path d="M8.95 10.01c0 .31-.07.61-.2.87l2.31 2.32c.28-.15.6-.23.93-.23.25 0 .48.05.7.12l2.85-4.86a2.033 2.033 0 0 1 1.58-3.31c1.12 0 2.02.91 2.02 2.03s-.9 2.03-2.02 2.03q-.255 0-.48-.06l-2.93 5a2.031 2.031 0 0 1-1.72 3.11c-1.12 0-2.02-.91-2.02-2.03 0-.31.07-.61.19-.87l-2.31-2.31c-.28.14-.6.22-.93.22-1.12 0-2.03-.91-2.03-2.03s.91-2.02 2.03-2.02 2.03.9 2.03 2.02m-1.48.54-.22.11q-.06.03-.13.05-.1.03-.2.03-.15 0-.28-.05-.13-.06-.24-.16-.1-.11-.16-.24-.05-.13-.05-.28t.05-.28q.06-.13.16-.23.11-.11.24-.16t.28-.05.28.05.23.16q.11.1.16.23.06.13.06.28 0 .1-.03.2-.02.06-.04.11zm3.97 3.92-.1.22q-.03.06-.05.11-.02.1-.02.2 0 .15.05.28t.16.23q.11.11.23.16.13.06.28.06t.28-.06q.13-.05.24-.16.11-.1.16-.23t.05-.28q0-.12-.03-.22-.03-.09-.08-.17l-.13-.21-.24-.08q-.03-.02-.07-.03-.08-.02-.18-.02t-.2.03q-.06.02-.13.05zm5.27-6.87.24.06q.08.02.17.02.15 0 .28-.05.12-.06.23-.16.11-.11.16-.24t.05-.28-.05-.28-.16-.23q-.11-.11-.23-.16-.13-.06-.28-.06t-.28.06q-.13.05-.24.16-.1.1-.16.23-.05.13-.05.28 0 .13.04.25.04.11.12.21zM4.02 18.69c-.35 0-.65.29-.65.65s.3.65.65.65h15.97c.36 0 .65-.29.65-.65s-.29-.65-.65-.65z"/></g></svg>