<svg xmlns="http://www.w3.org/2000/svg" fill="none" viewBox="0 0 24 24" focusable="false"><defs><clipPath id="Magnet_Outline_svg__a"><path fill="#fff" fill-opacity="0" d="M0 0h24v24H0z"/></clipPath></defs><g clip-path="url(#Magnet_Outline_svg__a)"><path fill="#717681" fill-rule="evenodd" d="m15.81 18.69 4.71-4.7c.51-.51.51-1.33 0-1.84l-2.04-2.04c-.51-.51-1.33-.51-1.84 0l-4.5 4.51c-.78.77-2.04.77-2.82 0-.78-.78-.78-2.04 0-2.82l4.51-4.5c.51-.51.51-1.34 0-1.84l-2.08-2.08c-.51-.51-1.33-.51-1.84 0l-4.7 4.71c-2.93 2.92-2.93 7.67 0 10.6 2.93 2.93 7.68 2.93 10.6 0m1.32-3.16-2.24 2.24a6.192 6.192 0 0 1-8.76 0 6.205 6.205 0 0 1 0-8.77l2.24-2.23 2.07 2.07-2.04 2.04a3.308 3.308 0 0 0 0 4.66 3.308 3.308 0 0 0 4.66 0l2.04-2.04zm-5.77-7.61L9.28 5.85l1.55-1.55 2.08 2.08zm6.69 6.69 1.55-1.54-2.04-2.04-1.55 1.55z"/></g></svg>