<svg xmlns="http://www.w3.org/2000/svg" fill="none" viewBox="0 0 24 24" focusable="false"><defs><clipPath id="Maintenance_Solid_svg__a"><path fill="#fff" fill-opacity="0" d="M0 0h24v24H0z"/></clipPath></defs><g clip-path="url(#Maintenance_Solid_svg__a)"><path fill="#717681" fill-rule="evenodd" d="m19.71 15.3-5.39-5.36c-.72-.72-1.88-.76-2.65-.08l-.7.61c-.58.51-1.46.48-2.01-.05-.63-.61-.6-1.62.06-2.19l4.72-4.12a3.51 3.51 0 0 1 4.83.38l3.47 3.89a3.505 3.505 0 0 1-.18 4.85zm-.97.86-4.19 3.94c-.68.63-1.54.96-2.4.99l.33-.77a3.65 3.65 0 0 0-.97-4.22l-2.24-1.93c-1.54-1.32-3.87-1.14-5.17.42l-.31.37-1.51-1.35a3.65 3.65 0 0 1-.29-5.15l3.47-3.89c1.34-1.5 3.65-1.64 5.15-.3l.48.43-2.93 2.55a2.786 2.786 0 1 0 3.66 4.2l.7-.61a.65.65 0 0 1 .89.03zm-9.12 4c.36.32.77.56 1.2.71l.47-1.07c.41-.94.15-2.04-.63-2.71l-2.24-1.93c-.99-.86-2.49-.74-3.33.27l-.33.39z"/></g></svg>