<svg xmlns="http://www.w3.org/2000/svg" fill="none" viewBox="0 0 24 24" focusable="false"><path d="M0 0H24V24H0z"/><path fill="#74767B" fill-rule="evenodd" d="M19.7172 15.3076L14.3296 9.94944C13.6035 9.22732 12.4425 9.18988 11.6714 9.86372L10.9727 10.4742C10.3907 10.9829 9.51566 10.9596 8.96144 10.4208C8.33916 9.81579 8.36648 8.80826 9.02064 8.23789L13.7493 4.11488C15.1956 2.93333 17.3242 3.09496 18.5744 4.49675L22.0455 8.38856C23.2967 9.79142 23.2163 11.9321 21.8634 13.2372L19.7172 15.3076ZM14.5526 20.1026L18.7408 16.1699L13.4129 10.8712C13.1708 10.6305 12.7838 10.618 12.5268 10.8426L11.8281 11.4532C10.7363 12.4073 9.09489 12.3637 8.05523 11.3529C6.88792 10.218 6.93918 8.32799 8.16629 7.25804L11.0945 4.70487L10.6171 4.27937C9.11275 2.93838 6.80621 3.07041 5.46466 4.57431L1.99268 8.46645C0.650773 9.97074 0.782417 12.278 2.28671 13.6199L3.79233 14.963L4.10158 14.595C5.40958 13.0382 7.73754 12.8504 9.27817 14.1773L11.5177 16.1063C12.7291 17.1497 13.1205 18.8601 12.4833 20.3265L12.1513 21.0905C13.0176 21.0675 13.8766 20.7374 14.5526 20.1026ZM9.62439 20.1655C9.98546 20.4876 10.3942 20.7255 10.8256 20.8795L11.291 19.8084C11.7012 18.8643 11.4493 17.7631 10.6693 17.0913L8.42978 15.1623C7.43786 14.308 5.93904 14.4289 5.0969 15.4312L4.76286 15.8288L9.62439 20.1655Z"/></svg>