<svg xmlns="http://www.w3.org/2000/svg" fill="none" viewBox="0 0 24 24" focusable="false"><defs><clipPath id="Maintenance_Outline_svg__a"><path fill="#fff" fill-opacity="0" d="M0 0h24v24H0z"/></clipPath></defs><g clip-path="url(#Maintenance_Outline_svg__a)"><path fill="#717681" fill-rule="evenodd" d="M21.73 13.38a3.646 3.646 0 0 0 .2-5.14l-3.46-3.77a3.662 3.662 0 0 0-5.09-.28l-1.43 1.25-1.3-1.17a3.651 3.651 0 0 0-5.15.3L2.02 8.46a3.642 3.642 0 0 0 .3 5.15l7.34 6.55a3.643 3.643 0 0 0 4.92-.06l6.73-6.32v-.01zM8.78 8.2l2.18-1.9-1.18-1.06c-.97-.86-2.45-.77-3.31.19l-3.48 3.9c-.86.97-.78 2.45.19 3.31l1.54 1.38a3.661 3.661 0 0 1 4.61.12l2.22 1.92c1.06.91 1.49 2.33 1.17 3.64.35-.1.69-.28.97-.55l4.16-3.91-3.94-3.91a.657.657 0 0 0-.87-.04l-.98.8A2.544 2.544 0 0 1 8.78 8.2m2.59 11.47c.35-.92.09-1.97-.66-2.62l-2.23-1.92c-.8-.68-1.91-.74-2.76-.22l4.8 4.28c.25.23.54.39.85.48m9.6-10.55c.88.95.82 2.43-.13 3.31l-2.05 1.91-3.96-3.93c-.71-.7-1.84-.76-2.61-.12l-.98.8c-.49.4-1.2.37-1.66-.07-.52-.51-.5-1.36.05-1.84l4.61-4.01c.96-.83 2.41-.75 3.27.18z"/></g></svg>