<svg xmlns="http://www.w3.org/2000/svg" fill="none" viewBox="0 0 24 24" focusable="false"><path fill="#717681" d="m18.74 16.17-4.187 3.933a3.64 3.64 0 0 1-2.402.987l.332-.764a3.65 3.65 0 0 0-.965-4.22l-2.24-1.929a3.65 3.65 0 0 0-5.176.418l-.31.368-1.505-1.343a3.65 3.65 0 0 1-.294-5.154l3.472-3.892a3.65 3.65 0 0 1 5.152-.295l.477.426-2.928 2.553a2.784 2.784 0 1 0 3.662 4.195l.699-.61a.65.65 0 0 1 .886.028z"/><path fill="#717681" d="M19.717 15.308 14.33 9.949a1.95 1.95 0 0 0-2.659-.085l-.698.61A1.484 1.484 0 1 1 9.02 8.238l4.728-4.123a3.5 3.5 0 0 1 4.825.382l3.471 3.892a3.5 3.5 0 0 1-.182 4.848zM10.826 20.88a3.6 3.6 0 0 1-1.202-.714l-4.861-4.337.334-.398a2.35 2.35 0 0 1 3.333-.269l2.24 1.93a2.35 2.35 0 0 1 .621 2.716z"/></svg>