<svg xmlns="http://www.w3.org/2000/svg" fill="none" viewBox="0 0 24 24" focusable="false"><path fill="#717681" d="M10.5 3.5a1.5 1.5 0 0 1 3 0v1a1.5 1.5 0 1 1-3 0z"/><path fill="#717681" fill-rule="evenodd" d="M8.864 10.263q.164-.356.357-.633l.786 5.193v6.545a.65.65 0 0 0 1.3 0v-6.173h1.394v6.173a.65.65 0 0 0 1.3 0v-6.534l.779-5.194q.19.273.35.623c.462 1.01.697 2.437.697 4.12a.65.65 0 0 0 1.3 0c0-1.775-.244-3.411-.815-4.66-.385-.842-.936-1.538-1.675-1.955a2.3 2.3 0 0 0-.568-.252 3.4 3.4 0 0 0-.612-.14A9 9 0 0 0 12 7.273c-.584 0-1.055.038-1.434.1a3.4 3.4 0 0 0-1.152.363c-.768.414-1.338 1.123-1.732 1.987-.572 1.249-.815 2.885-.815 4.66a.65.65 0 1 0 1.3 0c0-1.683.235-3.11.697-4.12m4.284-1.62A8 8 0 0 0 12 8.574a8 8 0 0 0-1.234.085l-.017.001q-.21.037-.35.075l.782 5.161h1.646l.774-5.161a4 4 0 0 0-.453-.09" clip-rule="evenodd"/></svg>