<svg xmlns="http://www.w3.org/2000/svg" fill="none" viewBox="0 0 24 24" focusable="false"><defs><clipPath id="Male_Solid_svg__a"><path fill="#fff" fill-opacity="0" d="M0 0h24v24H0z"/></clipPath></defs><g clip-path="url(#Male_Solid_svg__a)"><path fill="#74767B" fill-rule="evenodd" d="M12 2c-.83 0-1.5.67-1.5 1.5v1c0 .82.67 1.5 1.5 1.5.82 0 1.5-.68 1.5-1.5v-1c0-.83-.68-1.5-1.5-1.5M9.35 7.77c-.68.39-1.21 1.08-1.59 1.88-.59 1.26-.9 2.94-.9 4.73 0 .36.29.65.65.65s.65-.29.65-.65c0-1.67.29-3.14.78-4.18.09-.19.19-.36.28-.52l.8 5.23c0 .03.01.07.03.1v6.35c0 .36.29.65.65.65s.65-.29.65-.65v-6.17h1.29v6.17c0 .36.29.65.65.65s.65-.29.65-.65v-6.33c.02-.04.04-.08.04-.12l.79-5.27c.11.16.22.35.32.56.49 1.04.77 2.51.77 4.18 0 .36.3.65.65.65.36 0 .65-.29.65-.65 0-1.79-.3-3.47-.9-4.73-.48-1.03-1.23-1.89-2.24-2.15-.45-.13-1.09-.23-2.03-.23-1.51 0-2.27.26-2.64.5"/></g></svg>