<svg xmlns="http://www.w3.org/2000/svg" fill="none" viewBox="0 0 24 24" focusable="false"><path fill="#717681" fill-rule="evenodd" d="M11.35 14.22v5.48h-3.7a.65.65 0 1 0 0 1.3h8.7a.65.65 0 0 0 0-1.3h-3.7v-5.476l7.573-9.092C20.93 4.286 20.327 3 19.225 3H4.775c-1.102 0-1.704 1.286-.998 2.132q3.785 4.546 7.573 9.088m.652-1.253L9.155 9.555q.312.039.656.04c1.371 0 2.356-.495 3.15-.724.637-.185 1.355-.293 2.47-.02zm4.341-5.21c-1.667-.527-2.766-.418-3.744-.135-1.061.307-1.662.672-2.788.672-1.475 0-2.31-.756-2.563-1.027L4.776 4.3h14.449z" clip-rule="evenodd"/></svg>