<svg xmlns="http://www.w3.org/2000/svg" fill="none" viewBox="0 0 24 24" focusable="false"><defs><clipPath id="Martini_Solid_svg__a"><path fill="#fff" fill-opacity="0" d="M0 0h24v24H0z"/></clipPath></defs><g clip-path="url(#Martini_Solid_svg__a)"><path fill="#74767B" fill-rule="evenodd" d="M3.77 5.13c-.7-.85-.1-2.13 1-2.13h14.45c1.1 0 1.7 1.28 1 2.13l-7.57 9.09v5.48h3.7c.35 0 .65.29.65.65 0 .35-.3.65-.65.65H7.64c-.35 0-.64-.3-.64-.65 0-.36.29-.65.64-.65h3.71v-5.48c-2.53-3.03-5.06-6.06-7.58-9.09m12.57 2.62c-1.67-.52-2.77-.42-3.75-.13-1.06.3-1.66.67-2.78.67-1.48 0-2.32-.76-2.57-1.03L4.77 4.3h14.45z"/></g></svg>