<svg xmlns="http://www.w3.org/2000/svg" fill="none" viewBox="0 0 24 24" focusable="false"><defs><clipPath id="Martini_Outline_svg__a"><path fill="#fff" fill-opacity="0" d="M0 0h24v24H0z"/></clipPath></defs><g clip-path="url(#Martini_Outline_svg__a)"><path fill="#717681" fill-rule="evenodd" d="M11.35 14.21v5.49H7.64c-.35 0-.64.29-.64.65 0 .35.29.65.64.65h8.71c.35 0 .65-.3.65-.65 0-.36-.3-.65-.65-.65h-3.71v-5.48l7.58-9.09c.7-.85.1-2.13-1-2.13H4.77c-1.1 0-1.7 1.28-1 2.13 2.53 3.03 5.05 6.06 7.58 9.08m.65-1.25L9.15 9.55c.21.03.43.04.66.04 1.37 0 2.35-.49 3.15-.72.63-.19 1.35-.3 2.47-.02zm4.34-5.21c-1.67-.52-2.77-.42-3.75-.13-1.06.3-1.66.67-2.78.67-1.48 0-2.31-.76-2.57-1.03L4.77 4.3h14.45z"/></g></svg>