<svg xmlns="http://www.w3.org/2000/svg" fill="none" viewBox="0 0 24 24" focusable="false"><defs><clipPath id="Medal_Solid_svg__a"><path fill="#fff" fill-opacity="0" d="M0 0h24v24H0z"/></clipPath></defs><g clip-path="url(#Medal_Solid_svg__a)"><path fill="#74767B" fill-rule="evenodd" d="M12 16c3.58 0 6.5-2.92 6.5-6.5A6.5 6.5 0 1 0 12 16m1.27-8.31-1.02-1.73a.3.3 0 0 0-.51 0l-1.02 1.73-1.95.43c-.23.05-.31.32-.16.49l1.33 1.5-.2 1.99c-.02.23.21.4.42.31L12 11.6l1.83.81c.21.09.44-.08.42-.31l-.2-1.99 1.33-1.5c.15-.17.07-.44-.16-.49zm-6.58 7.53c-.39-.37-1.06-.27-1.26.23l-1.38 3.38c-.09.23-.05.48.11.67.16.18.4.26.64.21l3.16-.73 1.7 2.7c.13.21.36.33.61.31a.66.66 0 0 0 .54-.41l1.34-3.28c.19-.47-.18-.99-.68-1.02a7.87 7.87 0 0 1-4.78-2.06m6.48 6.36-.48-1.17 1.08-2.65c.19-.47.29-.74.46-.79 1.15-.34 2.2-.95 3.06-1.75.39-.36 1.06-.26 1.27.23l1.37 3.38c.09.22.05.48-.1.67-.16.18-.41.26-.64.21l-3.15-.69-1.72 2.67c-.13.2-.37.32-.61.3a.66.66 0 0 1-.54-.41"/></g></svg>