<svg xmlns="http://www.w3.org/2000/svg" fill="none" viewBox="0 0 24 24" focusable="false"><path fill="#74767B" fill-rule="evenodd" d="M18.5 9.5C18.5 13.0899 15.5898 16 12 16C8.41011 16 5.49996 13.0899 5.49996 9.5C5.49996 5.91015 8.41011 3 12 3C15.5898 3 18.5 5.91015 18.5 9.5ZM12.2588 5.96975L13.2713 7.69689L15.2269 8.1262C15.4507 8.17534 15.539 8.44714 15.3868 8.61847L14.0571 10.1152L14.2531 12.1077C14.2755 12.3357 14.0443 12.5037 13.8343 12.4119L12 11.6098L10.1656 12.4119C9.95561 12.5037 9.7244 12.3357 9.74683 12.1077L9.94283 10.1152L8.61313 8.61847C8.46092 8.44715 8.54924 8.17534 8.77307 8.1262L10.7286 7.69689L11.7412 5.96976C11.8571 5.77206 12.1429 5.77206 12.2588 5.96975ZM6.69885 15.2217C6.30591 14.8575 5.6353 14.957 5.4333 15.4532L4.05628 18.8362C3.96477 19.061 4.00613 19.318 4.16353 19.5028C4.32094 19.6875 4.56816 19.7692 4.80463 19.7146L7.96679 18.984L9.66507 21.6889C9.79474 21.8955 10.0291 22.0121 10.2721 21.9909C10.515 21.9697 10.7257 21.8143 10.8176 21.5884L12.156 18.3002C12.3474 17.83 11.9768 17.3162 11.4702 17.2822C9.63259 17.159 7.96929 16.3993 6.69885 15.2217ZM13.1739 21.5884L12.6976 20.4181L13.7757 17.7695C13.9672 17.2989 14.0667 17.0252 14.2327 16.9757C15.389 16.6309 16.4327 16.0251 17.2957 15.2267C17.6887 14.8631 18.3586 14.9629 18.5605 15.4588L19.9353 18.8362C20.0263 19.0599 19.9858 19.3156 19.8302 19.5002C19.6745 19.6849 19.4293 19.768 19.1934 19.716L16.04 19.0216L14.3229 21.6946C14.1917 21.8988 13.9577 22.0129 13.7161 21.9906C13.4745 21.9682 13.2654 21.8131 13.1739 21.5884Z"/></svg>