<svg xmlns="http://www.w3.org/2000/svg" fill="none" viewBox="0 0 24 24" focusable="false"><defs><clipPath id="Medal_Outline_svg__a"><path fill="#fff" fill-opacity="0" d="M0 0h24v24H0z"/></clipPath></defs><g clip-path="url(#Medal_Outline_svg__a)"><path fill="#74767B" fill-rule="evenodd" d="M17.52 12.92c.62-1 .98-2.17.98-3.42a6.5 6.5 0 1 0-13 0c0 1.25.35 2.42.96 3.41l-2.41 5.92c-.09.23-.05.48.11.67.16.18.4.26.64.21l3.16-.73 1.7 2.7c.13.21.36.33.61.31a.66.66 0 0 0 .54-.41l1.18-2.89 1.18 2.89c.09.23.3.38.54.41.24.02.48-.1.61-.3l1.72-2.67 3.15.69c.23.05.48-.03.64-.21.15-.19.19-.45.1-.67zM12 14.7c2.87 0 5.2-2.33 5.2-5.2a5.205 5.205 0 1 0-10.41 0c0 2.87 2.33 5.2 5.21 5.2m-.26-8.74a.3.3 0 0 1 .51 0l1.02 1.73 1.95.43c.23.05.31.32.16.49l-1.33 1.5.2 1.99c.02.23-.21.4-.42.31L12 11.6l-1.84.81a.304.304 0 0 1-.42-.31l.2-1.99-1.33-1.5a.297.297 0 0 1 .16-.49l1.95-.43zM12 8.09l-.44.75-.85.19.58.64-.09.86.8-.34.79.34-.09-.86.58-.64-.85-.19zM5.73 18.16l1.66-4.08a6.46 6.46 0 0 0 4.3 1.91l-1.6 3.93-1.27-2.02a.65.65 0 0 0-.7-.29zm10.87-4.07a6.6 6.6 0 0 1-3.47 1.81l-.44 1.06 1.21 2.97 1.29-2c.14-.23.42-.34.68-.28l2.39.53z"/></g></svg>