<svg xmlns="http://www.w3.org/2000/svg" fill="none" viewBox="0 0 24 24" focusable="false"><defs><clipPath id="Megaphone_Outline_svg__a"><path fill="#fff" fill-opacity="0" d="M0 0h24v24H0z"/></clipPath></defs><g clip-path="url(#Megaphone_Outline_svg__a)"><path fill="#717681" fill-rule="evenodd" d="M12.88 8H7c-1.66 0-3 1.34-3 3v2c0 1.53 1.14 2.79 2.62 2.98l.6 3.15C7.42 20.21 8.37 21 9.47 21c1.27 0 2.29-1.03 2.29-2.3v-2.69h1.13a3.43 3.43 0 0 1 3.39 2.9c.09.62.63 1.08 1.26 1.08h1.16c.71 0 1.3-.58 1.3-1.3V5.3c0-.72-.59-1.3-1.3-1.3h-1.16c-.63 0-1.17.46-1.26 1.08A3.45 3.45 0 0 1 12.88 8m4.68 10.69h1.14V5.3h-1.14c-.36 2.3-2.35 4-4.68 4h-1.11v5.41h1.12c2.32 0 4.3 1.69 4.67 3.98M6.95 14.7h3.51V9.3H7c-.94 0-1.71.76-1.71 1.7v2c0 .92.74 1.68 1.66 1.7M8.02 11c-.56 0-1 .45-1 1 0 .54.44 1 1 1 .55 0 1-.46 1-1 0-.55-.45-1-1-1m.48 7.89L7.95 16h2.51v2.7c0 .55-.44 1-.99 1-.47 0-.88-.34-.97-.81"/></g></svg>