<svg xmlns="http://www.w3.org/2000/svg" fill="none" viewBox="0 0 24 24" focusable="false"><defs><clipPath id="Megaphone_Solid_svg__a"><path fill="#fff" fill-opacity="0" d="M0 0h24v24H0z"/></clipPath></defs><g clip-path="url(#Megaphone_Solid_svg__a)"><path fill="#74767B" fill-rule="evenodd" d="M13.71 16.11c1.32.32 2.35 1.41 2.57 2.8.1.62.63 1.08 1.26 1.08h1.16c.71 0 1.3-.58 1.3-1.3V5.3c0-.72-.59-1.3-1.3-1.3h-1.16c-.63 0-1.16.46-1.26 1.08A3.45 3.45 0 0 1 13.7 7.9c-.36.09-.65.39-.65.76v6.68c0 .38.29.68.66.77M4 13c0 1.53 1.14 2.79 2.62 2.98h4.44c.38 0 .69-.31.69-.7V8.7c0-.39-.31-.7-.69-.7H7c-1.66 0-3 1.34-3 3zm3.47-1c0-.55.45-1 1-1s1 .45 1 1c0 .54-.45 1-1 1s-1-.46-1-1m4.28 5.98v.72c0 1.27-.3 2.29-1.57 2.29-1.1 0-1.81-.78-2.02-1.86l-.19-1.02c-.08-.43.25-.83.69-.83h2.4c.38 0 .69.31.69.7"/></g></svg>