<svg xmlns="http://www.w3.org/2000/svg" fill="none" viewBox="0 0 24 24" focusable="false"><path fill="#717681" fill-rule="evenodd" d="M17.88 19.4A8.68 8.68 0 0 0 20.7 13c0-4.81-3.9-8.71-8.7-8.71-4.81 0-8.7 3.9-8.7 8.71 0 2.53 1.08 4.81 2.81 6.4.19.17.49.3.89.3h9.99c.4 0 .7-.13.89-.3m.89.95c-.48.44-1.13.65-1.78.65H7c-.65 0-1.3-.21-1.78-.65A9.95 9.95 0 0 1 2 13C2 7.47 6.47 3 12 3c5.52 0 10 4.47 10 10 0 2.91-1.25 5.53-3.23 7.35m-9.73-12c-.93 0-1.7.76-1.7 1.7v2.27h9.31v-2.27c0-.94-.77-1.7-1.7-1.7zm0-1.3c-1.65 0-3 1.35-3 3v2.27c0 .08.01.15.02.23-.01.03-.02.06-.02.1v1.53c0 .17.14.3.3.3h2.02c.36 0 .65.29.65.65s-.29.65-.65.65H6.42c-.18 0-.32.17-.28.34.34 1.29 1.51 2.25 2.9 2.25h5.91c1.39 0 2.56-.96 2.9-2.25.04-.17-.1-.34-.28-.34h-1.94c-.36 0-.65-.29-.65-.65s.29-.65.65-.65h2.02a.3.3 0 0 0 .3-.3v-1.53c0-.04-.01-.07-.02-.1.01-.08.02-.15.02-.23v-2.27c0-1.65-1.35-3-3-3z"/></svg>