<svg xmlns="http://www.w3.org/2000/svg" fill="none" viewBox="0 0 24 24" focusable="false"><path fill="#717681" fill-rule="evenodd" d="M8.98 3h6.03A3.007 3.007 0 0 1 18 6v12c0 1.65-1.35 3-3 3H9c-1.66 0-3-1.35-3-3V6c0-.83.33-1.58.86-2.12C7.4 3.34 8.15 3 8.98 3m4.72 1.29h-3.41v.65c0 .36.29.65.65.65h2.11c.36 0 .65-.29.65-.65zm1.3.78V4.3c.53 0 .99.24 1.3.61.25.3.4.67.4 1.09v12c0 .93-.77 1.7-1.7 1.7H9c-.94 0-1.71-.77-1.71-1.7V6c0-.42.15-.79.4-1.09.27-.33.68-.56 1.13-.61h.17v.77c.07 1.01.91 1.82 1.95 1.82h2.11c1.04 0 1.88-.81 1.95-1.82M12.26 18.4c.42-.12.73-.51.73-.97 0-.55-.44-.99-.99-.99-.56 0-1 .44-1 .99 0 .46.31.85.73.97q.12.03.27.03c.09 0 .18-.01.26-.03"/></svg>