<svg xmlns="http://www.w3.org/2000/svg" fill="none" viewBox="0 0 24 24" focusable="false"><path fill="#717681" d="M12.998 17.438a.999.999 0 1 1-1.997 0 .999.999 0 0 1 1.997 0"/><path fill="#717681" fill-rule="evenodd" d="M9 3h-.015a2.99 2.99 0 0 0-2.115.888A2.99 2.99 0 0 0 6 6v12a3 3 0 0 0 3 3h6a3 3 0 0 0 3-3V6c0-.929-.422-1.759-1.085-2.31a2.988 2.988 0 0 0-1.9-.69H15zm1.29 1.3h3.42v.643a.65.65 0 0 1-.65.65h-2.12a.65.65 0 0 1-.65-.65V4.3m4.72.643a1.95 1.95 0 0 1-1.95 1.95h-2.12a1.95 1.95 0 0 1-1.95-1.95V4.3A1.697 1.697 0 0 0 7.3 6v12A1.7 1.7 0 0 0 9 19.7h6a1.7 1.7 0 0 0 1.7-1.7V6a1.696 1.696 0 0 0-1.69-1.7v.643" clip-rule="evenodd"/></svg>