<svg xmlns="http://www.w3.org/2000/svg" fill="none" viewBox="0 0 24 24" focusable="false"><path fill="#717681" d="M9.96 10.04a.65.65 0 0 0-1.11.46v5a.65.65 0 1 0 1.3 0v-3.43l1.39 1.39a.65.65 0 0 0 .92 0l1.39-1.39v3.43a.65.65 0 1 0 1.3 0v-5a.65.65 0 0 0-1.11-.46L12 12.08z"/><path fill="#717681" fill-rule="evenodd" d="M6.637 4.6a2.5 2.5 0 0 0 .261 1.745A3 3 0 0 0 4 9.344V17a3 3 0 0 0 3 3h10a3 3 0 0 0 3-3V9.344a3 3 0 0 0-2.899-2.999c.284-.508.395-1.119.262-1.744l-.018-.085a2.37 2.37 0 0 0-1.593-1.76A3.31 3.31 0 0 0 12 4.052a3.31 3.31 0 0 0-3.752-1.296 2.37 2.37 0 0 0-1.593 1.76zm6.019 1.736.094-.696a2.01 2.01 0 0 1 2.606-1.646c.364.116.638.419.717.793l.018.084a1.214 1.214 0 0 1-1.187 1.466h-2.248m-1.312 0-.094-.696a2.01 2.01 0 0 0-2.606-1.646 1.07 1.07 0 0 0-.718.793l-.017.084a1.214 1.214 0 0 0 1.187 1.466h2.248M7 7.644a1.7 1.7 0 0 0-1.7 1.7V17A1.7 1.7 0 0 0 7 18.7h10a1.7 1.7 0 0 0 1.7-1.7V9.344a1.7 1.7 0 0 0-1.7-1.7z" clip-rule="evenodd"/></svg>