<svg xmlns="http://www.w3.org/2000/svg" fill="none" viewBox="0 0 24 24" focusable="false"><defs><clipPath id="Newspaper_Outline_svg__a"><path fill="#fff" fill-opacity="0" d="M0 0h24v24H0z"/></clipPath></defs><g clip-path="url(#Newspaper_Outline_svg__a)"><path fill="#717681" fill-rule="evenodd" d="M12.96 3.9H6.7a2.962 2.962 0 0 0-1.19.24c-.17.07-.33.16-.49.26-.17.11-.33.24-.47.39-.15.15-.28.31-.39.48-.11.15-.2.32-.27.49-.07.17-.13.35-.17.53-.04.22-.07.43-.07.66v9.32c0 .22.03.44.07.65.04.19.1.36.17.54.08.17.16.33.27.49.11.17.24.33.39.47.28.29.6.5.96.66.18.07.35.13.53.17.22.04.44.07.66.07h11.24c.38-.01.8-.1 1.15-.24.36-.16.69-.37.97-.66.28-.28.5-.6.65-.96.16-.38.24-.78.24-1.19v-5.61c0-.22-.02-.44-.07-.65a3.272 3.272 0 0 0-.43-1.03c-.11-.17-.24-.33-.39-.47-.15-.15-.31-.28-.48-.39-.15-.1-.32-.19-.49-.27-.17-.07-.35-.13-.53-.17-.22-.04-.43-.07-.66-.07h-1.89v-.66c0-.23-.02-.44-.07-.66-.04-.18-.09-.36-.17-.53-.07-.17-.16-.34-.26-.49-.11-.17-.24-.33-.39-.48-.15-.15-.31-.28-.48-.39-.15-.1-.32-.19-.49-.26-.17-.07-.35-.13-.53-.17-.21-.05-.43-.07-.66-.07m1.75 4.36V6.95c0-.14-.01-.27-.04-.4-.02-.1-.06-.19-.09-.28a1.791 1.791 0 0 0-.66-.79c-.09-.06-.18-.1-.28-.14-.09-.04-.18-.07-.28-.1-.13-.03-.26-.04-.4-.04H6.7c-.13 0-.27.01-.4.04-.09.03-.19.06-.28.1-.1.04-.19.08-.27.14-.1.07-.2.14-.29.23-.08.09-.16.18-.23.29-.05.08-.1.17-.14.27-.04.09-.07.18-.09.28-.03.13-.05.26-.05.4v9.32c0 .24.05.46.14.68.09.21.21.39.37.56.17.16.35.28.56.37a1.825 1.825 0 0 0 .68.14h8.56c-.12-.18-.22-.36-.31-.56-.07-.18-.13-.35-.17-.54-.04-.21-.07-.43-.07-.65zm-2.82.65H7.74c-.36 0-.65-.28-.65-.65 0-.36.29-.65.65-.65h4.15c.36 0 .65.29.65.65 0 .37-.29.65-.65.65m5.89 9.11c-.24 0-.48-.05-.7-.14a1.72 1.72 0 0 1-.55-.37c-.09-.09-.17-.19-.24-.29-.05-.08-.1-.18-.14-.27a1.76 1.76 0 0 1-.14-.68V8.91h1.89c.14 0 .27.02.4.05.1.02.19.05.28.09.1.04.19.09.27.15.11.06.2.14.29.23.09.08.16.18.23.28.06.09.1.18.14.27.04.1.07.19.1.29.03.13.04.26.04.39v5.61c0 .24-.04.46-.14.68-.08.21-.21.39-.37.56a1.763 1.763 0 0 1-.84.46c-.13.03-.26.05-.4.05zM7.74 12.16h2.72c.37 0 .65-.29.65-.65 0-.36-.28-.65-.65-.65H7.74c-.36 0-.65.29-.65.65 0 .36.29.65.65.65m0 3.25h4.15c.36 0 .65-.29.65-.65 0-.37-.29-.65-.65-.65H7.74c-.36 0-.65.28-.65.65 0 .36.29.65.65.65"/></g></svg>