<svg xmlns="http://www.w3.org/2000/svg" fill="none" viewBox="0 0 24 24" focusable="false"><path fill="#717681" d="M14.56 14.962c-.14.317-.52.434-.83.28-.332-.164-.455-.573-.312-.914a6.033 6.033 0 0 0 .472-2.346c0-.82-.163-1.601-.458-2.314-.14-.34-.017-.746.314-.91.312-.155.693-.036.833.283.393.9.611 1.895.611 2.94 0 1.062-.225 2.07-.63 2.981ZM12.253 13.839c-.132.312-.504.421-.808.271-.338-.167-.453-.588-.325-.943.134-.37.206-.77.206-1.185 0-.405-.068-.793-.195-1.154-.124-.354-.007-.77.329-.937.306-.152.681-.04.81.277.23.559.356 1.172.356 1.814 0 .658-.133 1.286-.373 1.857ZM10.11 12a.65.65 0 1 1-1.3 0 .65.65 0 0 1 1.3 0Z"/><path fill="#717681" fill-rule="evenodd" d="M3 16a3 3 0 0 0 3 3h12a3 3 0 0 0 3-3V8a3 3 0 0 0-3-3H6a3 3 0 0 0-3 3v8Zm15-9.7A1.7 1.7 0 0 1 19.7 8v8a1.7 1.7 0 0 1-1.7 1.7H6A1.7 1.7 0 0 1 4.3 16V8A1.7 1.7 0 0 1 6 6.3h12Z" clip-rule="evenodd"/></svg>