<svg xmlns="http://www.w3.org/2000/svg" fill="none" viewBox="0 0 24 24" focusable="false"><defs><clipPath id="NFC_Outline_svg__a"><path fill="#fff" fill-opacity="0" d="M0 0h24v24H0z"/></clipPath></defs><g clip-path="url(#NFC_Outline_svg__a)"><path fill="#717681" fill-rule="evenodd" d="M6 19c-1.66 0-3-1.35-3-3V8c0-1.66 1.34-3 3-3h12c.1 0 .2 0 .3.01C19.81 5.16 21 6.44 21 8v8c0 1.65-1.35 3-3 3zM19.7 8c0-.94-.77-1.71-1.7-1.71H6c-.94 0-1.7.77-1.7 1.71v8c0 .93.76 1.7 1.7 1.7h12c.93 0 1.7-.77 1.7-1.7zm-5.98 7.24c.32.15.7.03.84-.28.4-.91.63-1.92.63-2.98 0-1.05-.22-2.04-.62-2.94a.61.61 0 0 0-.83-.29c-.33.17-.45.57-.31.91.29.72.46 1.5.46 2.32 0 .83-.17 1.62-.48 2.34-.14.34-.02.75.31.92m-2.28-1.13c.3.15.68.04.81-.28.24-.57.37-1.19.37-1.85 0-.65-.12-1.26-.35-1.82-.13-.31-.51-.43-.81-.27-.34.16-.46.58-.33.93.12.36.19.75.19 1.16s-.07.81-.21 1.18c-.12.36-.01.78.33.95M10.11 12c0 .35-.3.65-.66.65-.35 0-.64-.3-.64-.65 0-.36.29-.65.64-.65.36 0 .66.29.66.65"/></g></svg>