<svg xmlns="http://www.w3.org/2000/svg" fill="none" viewBox="0 0 24 24" focusable="false"><defs><clipPath id="NFC_Solid_svg__a"><path fill="#fff" fill-opacity="0" d="M0 0h24v24H0z"/></clipPath></defs><g clip-path="url(#NFC_Solid_svg__a)"><path fill="#74767B" fill-rule="evenodd" d="M3 16c0 1.65 1.34 3 3 3h12c1.65 0 3-1.35 3-3V8c0-1.56-1.19-2.84-2.7-2.99C18.2 5 18.1 5 18 5H6C4.34 5 3 6.34 3 8zm11.56-1.04c-.14.31-.52.43-.84.28-.33-.17-.45-.58-.31-.92.31-.72.48-1.51.48-2.34 0-.82-.17-1.6-.46-2.32-.14-.34-.02-.74.31-.91a.61.61 0 0 1 .83.29c.4.9.61 1.89.61 2.94 0 1.06-.22 2.07-.62 2.98m-2.31-1.13c-.13.32-.51.43-.81.28-.34-.17-.45-.59-.33-.95.14-.37.21-.77.21-1.18s-.07-.8-.19-1.16c-.13-.35-.01-.77.32-.93.31-.16.69-.04.82.27.22.56.35 1.17.35 1.82 0 .66-.13 1.28-.37 1.85m-2.15-1.84c0 .36-.29.65-.65.65-.35 0-.64-.29-.64-.65 0-.35.29-.65.64-.65.36 0 .65.3.65.65"/></g></svg>