<svg xmlns="http://www.w3.org/2000/svg" fill="none" viewBox="0 0 24 24" focusable="false"><path fill="#717681" fill-rule="evenodd" d="M5.253 4.642h9.424v5.37h-6.01a1.3 1.3 0 0 0-1.3 1.3V19.727H5.253V4.642Zm10.724 0v5.37h2.712a1.3 1.3 0 0 1 1.3 1.3v8.4a1.3 1.3 0 0 1-1.3 1.3h-2.7a1.3 1.3 0 0 1-1.3-1.3v-4.701H12.688v4.702a1.3 1.3 0 0 1-1.3 1.3H8.665c.062.009.125.013.19.014H5.253a1.3 1.3 0 0 1-1.3-1.3V4.642a1.3 1.3 0 0 1 1.3-1.3h9.424a1.3 1.3 0 0 1 1.3 1.3ZM11.389 15.01a1.3 1.3 0 0 1 1.3-1.3h2a1.3 1.3 0 0 1 1.3 1.3v4.702h2.7v-8.401H8.667v8.4h2.722v-4.701ZM9.306 7.917a.65.65 0 0 0 1.3 0V6.354a.65.65 0 1 0-1.3 0v1.563Zm3.26.65a.65.65 0 0 1-.65-.65V6.354a.65.65 0 1 1 1.3 0v1.563a.65.65 0 0 1-.65.65Zm-5.852-.65a.65.65 0 1 0 1.3 0V6.354a.65.65 0 0 0-1.3 0v1.563Z" clip-rule="evenodd"/></svg>