<svg xmlns="http://www.w3.org/2000/svg" fill="none" viewBox="0 0 24 24" focusable="false"><defs><clipPath id="Organisation_Outline_svg__a"><path fill="#fff" fill-opacity="0" d="M0 0h24v24H0z"/></clipPath></defs><g clip-path="url(#Organisation_Outline_svg__a)"><path fill="#717681" fill-rule="evenodd" d="M5.25 4.64h9.42v5.37H8.66c-.72 0-1.3.58-1.3 1.3v8.41H5.25zm10.72 0v5.37h2.71c.72 0 1.3.58 1.3 1.3v8.4c0 .72-.58 1.3-1.3 1.3h-2.7c-.71 0-1.3-.58-1.3-1.3v-4.7h-2v4.7c0 .72-.58 1.3-1.3 1.3H8.66c.06.01.13.01.19.01h-3.6c-.72 0-1.3-.58-1.3-1.3V4.64c0-.72.58-1.3 1.3-1.3h9.42c.72 0 1.3.58 1.3 1.3m-4.59 10.37c0-.72.59-1.3 1.3-1.3h2c.72 0 1.3.58 1.3 1.3v4.7h2.7v-8.4H8.66v8.4h2.72zM9.3 7.91c0 .36.29.65.65.65s.65-.29.65-.65V6.35c0-.36-.29-.65-.65-.65s-.65.29-.65.65zm3.26.65c-.36 0-.65-.29-.65-.65V6.35c0-.36.29-.65.65-.65s.65.29.65.65v1.56c0 .36-.29.65-.65.65m-5.85-.65c0 .36.29.65.65.65s.65-.29.65-.65V6.35c0-.36-.29-.65-.65-.65s-.65.29-.65.65z"/></g></svg>