<svg xmlns="http://www.w3.org/2000/svg" fill="none" viewBox="0 0 24 24" focusable="false"><path fill="#74767B" fill-rule="evenodd" d="M5.25 3.34c-.72 0-1.3.58-1.3 1.3v15.08c0 .72.58 1.3 1.3 1.3h.82v-8.43c0-1.43 1.17-2.6 2.6-2.6h7.3V4.64c0-.72-.58-1.3-1.3-1.3zm2.11 9.22c0-.72.58-1.3 1.3-1.3h10.02c.72 0 1.3.58 1.3 1.3v7.14c0 .72-.58 1.3-1.3 1.3h-1.89c-.71 0-1.29-.58-1.29-1.3v-3.98a.7.7 0 0 0-.72-.7l-2.6.06c-.38.01-.68.32-.68.7v3.99c0 .73-.61 1.31-1.34 1.3L7.36 21zM9.3 7.65c0 .36.29.65.65.65s.65-.29.65-.65V6.08c0-.35-.29-.65-.65-.65s-.65.3-.65.65zm3.26.65c-.36 0-.65-.29-.65-.65V6.08c0-.35.29-.65.65-.65s.65.3.65.65v1.57c0 .36-.29.65-.65.65m-5.85-.65c0 .36.29.65.65.65s.65-.29.65-.65V6.08c0-.35-.29-.65-.65-.65s-.65.3-.65.65z"/></svg>