<svg xmlns="http://www.w3.org/2000/svg" fill="none" viewBox="0 0 24 24" focusable="false"><defs><clipPath id="Pallete_Solid_svg__a"><path fill="#fff" fill-opacity="0" d="M0 0h24v24H0z"/></clipPath></defs><g clip-path="url(#Pallete_Solid_svg__a)"><path fill="#74767B" fill-rule="evenodd" d="M2.96 11.99c0-4.98 4.05-9.03 9.03-9.03 4.95 0 9.04 3.59 9.04 8.62 0 1.61-1.31 2.92-2.92 2.92H16.9c-1 0-1.81.81-1.81 1.81v1.62c0 1.71-1.38 3.1-3.1 3.1-4.98 0-9.03-4.05-9.03-9.04m4.33 1c-.55 0-1-.44-1-1 0-.55.45-1 1-1s1 .45 1 1c0 .56-.45 1-1 1m1.04-5.1c0 .56.44 1 1 1 .55 0 1-.44 1-1 0-.55-.45-1-1-1-.56 0-1 .45-1 1m1.25 7.01a1.002 1.002 0 0 1-.51 1.94 1.002 1.002 0 0 1 .51-1.94m5.7-3.21c-1.26 0-2.29-1.02-2.29-2.28a2.29 2.29 0 1 1 4.58 0c0 1.26-1.03 2.28-2.29 2.28"/></g></svg>