<svg xmlns="http://www.w3.org/2000/svg" fill="none" viewBox="0 0 24 24" focusable="false"><path fill="#717681" fill-rule="evenodd" d="M6.688 3.582c-.67 0-1.213.543-1.213 1.213V8.19a.167.167 0 0 1-.167.167h-.067c-1.197 0-2.167.97-2.167 2.167V13c0 1.197.97 2.167 2.167 2.167h.107c.081 0 .15.059.164.14l.555 3.333a2.127 2.127 0 0 0 4.225-.34l.001-.002a.1.1 0 0 1 .023-.01.1.1 0 0 1 .023.002 9.6 9.6 0 0 0 2.475.32 9.6 9.6 0 0 0 2.767-.403.1.1 0 0 1 .089.014.1.1 0 0 1 .018.018v.006c0 1.2.973 2.172 2.173 2.172a2.136 2.136 0 0 0 2.101-1.697c.619-3.006.99-6.188 1.006-6.334a.7.7 0 0 0 0-.145q.024-.256.024-.518a6.586 6.586 0 0 0-6.587-6.586H9.509a.2.2 0 0 1-.116-.041.6.6 0 0 1-.169-.173 3.06 3.06 0 0 0-2.535-1.342m.087 4.607V4.884c.57.028 1.07.326 1.373.771.262.385.73.783 1.36.783h4.898a5.286 5.286 0 0 1 5.286 5.286q0 .255-.028.502a.7.7 0 0 0-.001.13c-.074.62-.426 3.438-.974 6.104a.836.836 0 0 1-.828.658.87.87 0 0 1-.872-.872c0-.968-.967-1.53-1.784-1.283a8.3 8.3 0 0 1-2.391.348 8.3 8.3 0 0 1-2.14-.276c-.787-.21-1.682.342-1.682 1.256a.827.827 0 0 1-1.642.136l-.556-3.333a1.47 1.47 0 0 0-1.446-1.226H5.24A.867.867 0 0 1 4.374 13v-2.478c0-.48.388-.867.867-.867h.067c.81 0 1.467-.657 1.467-1.467m3.937-.289a.605.605 0 1 0 0 1.21h4.164a.605.605 0 1 0 0-1.21z" clip-rule="evenodd"/></svg>