<svg xmlns="http://www.w3.org/2000/svg" fill="none" viewBox="0 0 24 24" focusable="false"><path fill="#74767B" fill-rule="evenodd" d="M6.68 3.58c-.67 0-1.21.54-1.21 1.21v3.39c0 .1-.07.17-.17.17h-.06c-1.2 0-2.17.97-2.17 2.17V13c0 1.19.97 2.16 2.17 2.16h.1c.08 0 .15.06.17.14l.55 3.34a2.13 2.13 0 0 0 2.1 1.77c1.17 0 2.12-.94 2.13-2.11v-.01s.01 0 .02-.01c.01 0 .02 0 .02.01.79.2 1.62.32 2.48.32.97 0 1.9-.15 2.77-.41.02-.01.06 0 .08.02.02.01.02.01.02.02 0 1.2.98 2.17 2.18 2.17 1 0 1.89-.69 2.1-1.69.62-3.01.99-6.19 1-6.34a.3.3 0 0 0 0-.14c.02-.17.03-.35.03-.52a6.59 6.59 0 0 0-6.59-6.59H9.5c-.02 0-.06 0-.11-.04a.46.46 0 0 1-.17-.17 3.06 3.06 0 0 0-2.54-1.34m.09 4.6v-3.3c.57.03 1.07.32 1.37.77.27.39.73.78 1.36.78h4.9c2.92 0 5.29 2.37 5.29 5.29 0 .17-.01.34-.03.5-.01.05-.01.09 0 .13-.08.62-.43 3.44-.98 6.1a.82.82 0 0 1-.82.66c-.49 0-.88-.39-.88-.87 0-.97-.96-1.53-1.78-1.28-.74.22-1.55.35-2.39.35-.75 0-1.47-.1-2.14-.28-.79-.21-1.68.34-1.68 1.26 0 .45-.37.82-.83.82-.4 0-.75-.29-.82-.69l-.55-3.33a1.47 1.47 0 0 0-1.45-1.23h-.1c-.48 0-.87-.39-.87-.86v-2.48c0-.48.39-.87.87-.87h.06c.81 0 1.47-.66 1.47-1.47m3.94-.29c-.34 0-.61.28-.61.61s.27.61.61.61h4.16c.34 0 .61-.28.61-.61s-.27-.61-.61-.61z"/></svg>