<svg xmlns="http://www.w3.org/2000/svg" fill="none" viewBox="0 0 24 24" focusable="false"><path fill="#717681" fill-rule="evenodd" d="M6.311 3.714a.6.6 0 0 0-.6.6v3.664a.817.817 0 0 1-.816.817h-.222c-.838 0-1.517.679-1.517 1.517v2.833c0 .838.68 1.517 1.517 1.517h.253c.4 0 .74.289.806.683l.601 3.627a1.571 1.571 0 0 0 3.122-.257c0-.484.487-.82.956-.697.763.2 1.577.309 2.42.309.951 0 1.863-.138 2.71-.39.501-.149 1.042.206 1.042.73 0 .894.725 1.62 1.62 1.62a1.58 1.58 0 0 0 1.558-1.255c.652-3.182 1.044-6.56 1.062-6.715q0-.006-.007-.007a.01.01 0 0 1-.006-.008 6 6 0 0 0 .034-.614 6.32 6.32 0 0 0-6.319-6.318H9.277c-.34 0-.633-.217-.82-.5a2.57 2.57 0 0 0-2.146-1.156m4.372 3.725a.603.603 0 1 0 0 1.207h4.152a.603.603 0 1 0 0-1.207z" clip-rule="evenodd"/></svg>