<svg xmlns="http://www.w3.org/2000/svg" fill="none" viewBox="0 0 24 24" focusable="false"><path fill="#717681" fill-rule="evenodd" d="M12 3C9.33 3 7.26 5.32 7.56 7.96l.26 2.31A4.21 4.21 0 0 0 12 14c2.13 0 3.93-1.61 4.17-3.73l.26-2.31A4.46 4.46 0 0 0 12 3m-1.86 12c-2.81 0-5.25 1.95-5.86 4.69l-.1.45c-.09.44.24.86.69.86h4.62c.33 0 .61-.24.68-.56l.94-4.6a.694.694 0 0 0-.68-.84zm2.73.84c-.09-.44.24-.84.68-.84h.3c2.81 0 5.25 1.95 5.86 4.69l.1.45c.09.44-.24.86-.69.86H14.5c-.33 0-.62-.24-.68-.56z"/></svg>