<svg xmlns="http://www.w3.org/2000/svg" fill="none" viewBox="0 0 24 24" focusable="false"><path fill="#717681" fill-rule="evenodd" d="M12 3a4.464 4.464 0 0 0-4.435 4.968l.262 2.306a4.2 4.2 0 0 0 8.346 0l.263-2.306A4.464 4.464 0 0 0 12 3Zm2.882 7.127.262-2.306a3.164 3.164 0 1 0-6.288 0l.262 2.306a2.9 2.9 0 0 0 5.764 0ZM10.146 15a6 6 0 0 0-5.857 4.698l-.1.45a.7.7 0 0 0 .684.852h14.254a.7.7 0 0 0 .684-.852l-.1-.45A6 6 0 0 0 13.854 15h-3.708Zm7.693 4.7c.266 0 .458-.255.356-.501a4.7 4.7 0 0 0-4.341-2.899h-.399a.4.4 0 0 0-.388.497l.65 2.6a.4.4 0 0 0 .387.303h3.735Zm-7.948 0a.4.4 0 0 0 .389-.304l.64-2.6a.4.4 0 0 0-.387-.496h-.387a4.7 4.7 0 0 0-4.341 2.899c-.102.245.09.501.356.501h3.73Z" clip-rule="evenodd"/></svg>