<svg xmlns="http://www.w3.org/2000/svg" width="25" height="24" fill="none"><path fill="#717681" fill-rule="evenodd" d="M6.006 5.134c.368-.122.761.1.845.477l2.36 10.62c.441 1.99 2.436 3.233 4.428 2.763l5.673-1.34a.65.65 0 1 0-.302-1.265l-5.672 1.34a2.362 2.362 0 0 1-2.852-1.78L8.126 5.33a1.96 1.96 0 0 0-2.533-1.429l-1.182.392a.65.65 0 1 0 .413 1.234l1.182-.393ZM7.526 20.5a1.5 1.5 0 0 0 1.504-1.497 1.5 1.5 0 0 0-1.504-1.497 1.5 1.5 0 0 0-1.505 1.497A1.5 1.5 0 0 0 7.526 20.5ZM9.82 6.528a1.35 1.35 0 0 1 1.032-1.61l4.158-.914a1.357 1.357 0 0 1 1.617 1.027l1.917 8.633a1.35 1.35 0 0 1-1.032 1.61l-4.157.914a1.357 1.357 0 0 1-1.617-1.027L9.82 6.528Zm1.314-.34a.05.05 0 0 0-.038.06l.81 3.65 4.256-.938-.81-3.649a.05.05 0 0 0-.06-.038l-4.158.914Zm5.31 4.041-4.255.938.824 3.713a.05.05 0 0 0 .06.038l4.157-.914a.05.05 0 0 0 .039-.06l-.826-3.715Z" clip-rule="evenodd"/></svg>