<svg xmlns="http://www.w3.org/2000/svg" fill="none" viewBox="0 0 25 24" focusable="false"><path fill="#717681" d="M6.937 5.61a.65.65 0 0 0-.84-.476l-1.177.393a.65.65 0 1 1-.411-1.234l1.176-.392A1.95 1.95 0 0 1 8.206 5.33l2.348 10.62a2.35 2.35 0 0 0 2.837 1.779l5.645-1.34a.65.65 0 0 1 .3 1.264l-5.644 1.34a3.65 3.65 0 0 1-4.408-2.763zM9.12 19a1.5 1.5 0 1 1-3 0 1.5 1.5 0 0 1 3 0"/><path fill="#717681" d="M9.91 6.443a1.3 1.3 0 0 1 .989-1.55l4.165-.92a1.3 1.3 0 0 1 1.55.988l1.929 8.73a1.3 1.3 0 0 1-.989 1.55l-4.165.92a1.3 1.3 0 0 1-1.55-.988l-.824-3.73 6.703-1.482-.28-1.27-6.704 1.482z"/></svg>