<svg xmlns="http://www.w3.org/2000/svg" fill="none" viewBox="0 0 24 24" focusable="false"><path fill="#717681" fill-rule="evenodd" d="m20.312 11.754-2.11-.004-4.825 4.825.013 2.102c-.127 1.078-1.443 1.535-2.21.767l-2.842-2.842-4.503 4.503a.65.65 0 1 1-.92-.92l4.503-4.502-2.862-2.863c-.768-.768-.311-2.083.767-2.21l2.102.013 4.825-4.825-.005-2.11c.128-1.079 1.443-1.535 2.21-.767l6.624 6.623c.768.768.311 2.083-.767 2.21m-8.223 6.76-6.604-6.603 2.475.015.003-.002 4.113 4.113-.003.003zm.535-11.252-3.742 3.742 4.113 4.114 3.743-3.742zm.92-.92.007-.007-.005-2.486 6.604 6.605-2.485-.005-.008.007z" clip-rule="evenodd"/></svg>