<svg xmlns="http://www.w3.org/2000/svg" fill="none" viewBox="0 0 24 24" focusable="false"><defs><clipPath id="Pin_Solid_svg__a"><path fill="#fff" fill-opacity="0" d="M0 0h24v24H0z"/></clipPath></defs><g clip-path="url(#Pin_Solid_svg__a)"><path fill="#74767B" d="M14.45 2.92c-.77-.77-2.08-.32-2.21.76l.01 2.11-4.83 4.83-2.1-.01c-1.08.12-1.54 1.44-.77 2.21l2.86 2.86-4.5 4.5c-.25.25-.25.67 0 .92s.67.25.92 0l4.5-4.5 2.84 2.84c.77.77 2.09.31 2.21-.77l-.01-2.1 4.83-4.83 2.11.01c1.08-.13 1.53-1.44.76-2.21z"/></g></svg>