<svg xmlns="http://www.w3.org/2000/svg" fill="none" viewBox="0 0 24 24" focusable="false"><defs><clipPath id="Plane_Outline_svg__a"><path fill="#fff" fill-opacity="0" d="M0 0h24v24H0z"/></clipPath></defs><g clip-path="url(#Plane_Outline_svg__a)"><path fill="#717681" fill-rule="evenodd" d="m12.5 16.47-1.07.96c-2.2 1.98-5.05 2.3-7.2.35l-.05-.05-.01-.01c-.1-.09-.2-.19-.29-.29l-1.43-1.44a.712.712 0 0 1 0-1.01c.28-.28.73-.28 1.01 0l1.43 1.43 3.16-2.85-3.3-3.64c-.85-.92-.78-2.36.15-3.2.69-.62 1.7-.76 2.53-.34l5.53 2.75 4.32-3.89c1.17-1.06 2.81-1.18 3.87 0 1.06 1.17.62 2.83-.55 3.89l-3.68 3.33 1.53 4.06c.34.87.1 1.86-.59 2.48-.93.85-2.36.77-3.2-.15zM6.85 7.54l6.32 3.15 4.98-4.49c.77-.7 1.57-.61 2.04-.09.23.26.3.55.24.89-.06.37-.29.8-.7 1.17l-9.17 8.29c-.92.84-1.92 1.26-2.83 1.32-.65.04-1.3-.09-1.92-.45l4.08-3.68-4.18-4.6a.963.963 0 0 1 1.14-1.51m6.61 8.05 2.16 2.38a.962.962 0 0 0 1.62-.98v-.01l-1.35-3.58z"/></g></svg>