<svg xmlns="http://www.w3.org/2000/svg" fill="none" viewBox="0 0 24 24" focusable="false"><defs><clipPath id="Post_automat_Solid_svg__a"><path fill="#fff" fill-opacity="0" d="M0 0h24v24H0z"/></clipPath></defs><g clip-path="url(#Post_automat_Solid_svg__a)"><path fill="#717681" fill-rule="evenodd" d="M10.64 4H7C5.34 4 4 5.34 4 7v1.21c0 .39.31.7.7.7h5.94c.39 0 .71-.31.71-.7V4.69c0-.38-.32-.69-.71-.69m2.71 16h5.35c.71 0 1.3-.59 1.3-1.3V7c0-1.66-1.35-3-3-3h-3.65c-.39 0-.71.31-.71.69v14.6c0 .39.32.71.71.71m.59-9.12c0-.39.32-.7.7-.7H18c.38 0 .7.31.7.7v2.23c0 .39-.32.7-.7.7h-3.36c-.38 0-.7-.31-.7-.7zM4 10.91c0-.39.31-.7.7-.7h5.94c.39 0 .71.31.71.7v2.22c0 .38-.32.7-.71.7H4.7c-.39 0-.7-.32-.7-.7zm0 7.79v-2.87c0-.39.31-.7.7-.7h5.94c.39 0 .71.31.71.7v3.46c0 .39-.32.71-.71.71H5.29C4.58 20 4 19.41 4 18.7"/></g></svg>