<svg xmlns="http://www.w3.org/2000/svg" fill="none" viewBox="0 0 24 24" focusable="false"><path fill="#717681" fill-rule="evenodd" d="M3.096 6.613h11.05a.65.65 0 0 1 .65.65v.684c0 .026.002.052.005.077v2.888a1.95 1.95 0 0 0 1.95 1.95h2.409c.013.1.02.201.02.303v1.565a.05.05 0 0 1-.05.05H4.828a.05.05 0 0 1-.05-.05v-3.56a.65.65 0 1 0-1.3 0v3.56c0 .745.605 1.35 1.35 1.35H19.13a1.35 1.35 0 0 0 1.35-1.35v-1.565a3.65 3.65 0 0 0-.261-1.355l-1.043-2.608a3.21 3.21 0 0 0-3.082-2.017 1.95 1.95 0 0 0-1.948-1.872H3.096a.65.65 0 0 0 0 1.3ZM16.1 10.91V8.486a1.91 1.91 0 0 1 1.868 1.198l.75 1.877h-1.968a.65.65 0 0 1-.65-.65ZM4.14 7.939a.65.65 0 0 0 0 1.3h3.204a.65.65 0 0 0 0-1.3H4.142Zm5.132 10.306a1.5 1.5 0 1 1-3 0 1.5 1.5 0 0 1 3 0Zm8.352 0a1.5 1.5 0 1 1-3 0 1.5 1.5 0 0 1 3 0Z" clip-rule="evenodd"/></svg>