<svg xmlns="http://www.w3.org/2000/svg" fill="none" viewBox="0 0 24 24" focusable="false"><defs><clipPath id="Post_automat_Outline_svg__a"><path fill="#fff" fill-opacity="0" d="M0 0h24v24H0z"/></clipPath></defs><g clip-path="url(#Post_automat_Outline_svg__a)"><path fill="#74767B" fill-rule="evenodd" d="M4 7c0-1.66 1.34-3 3-3h10c1.65 0 3 1.34 3 3v11.7c0 .71-.59 1.3-1.3 1.3H5.29C4.58 20 4 19.41 4 18.7zm6.64-1.7H7c-.94 0-1.71.76-1.71 1.7v1.21c0 .39.32.7.71.7h4.64c.39 0 .71-.31.71-.7V6c0-.39-.32-.7-.71-.7m2.71 0H17c.93 0 1.7.76 1.7 1.7v11c0 .38-.32.7-.7.7h-4.65a.71.71 0 0 1-.71-.7V6c0-.39.32-.7.71-.7m-8.06 5.61c0-.39.32-.7.71-.7h4.64c.39 0 .71.31.71.7v2.22c0 .38-.32.7-.71.7H6a.71.71 0 0 1-.71-.7zm8.65.48c0-.38.32-.7.7-.7h2.01c.39 0 .7.32.7.7v1.21c0 .38-.31.7-.7.7h-2.01c-.38 0-.7-.32-.7-.7zM5.29 18c0 .38.32.7.71.7h4.64c.39 0 .71-.32.71-.7v-2.17c0-.39-.32-.7-.71-.7H6c-.39 0-.71.31-.71.7z"/></g></svg>