<svg xmlns="http://www.w3.org/2000/svg" fill="none" viewBox="0 0 24 24" focusable="false"><defs><clipPath id="Pregnant_Solid_svg__a"><path fill="#fff" fill-opacity="0" d="M0 0h24v24H0z"/></clipPath></defs><g fill="#74767B" clip-path="url(#Pregnant_Solid_svg__a)"><path d="M8.94 10.47c.07-.62.26-1.22.55-1.76-.17 1.51.34 3.07 1.47 4.21l1.5 1.52c.25.25.66.25.92 0a.64.64 0 0 0 0-.92L11.88 12c-1.27-1.28-1.45-3.31-.51-4.83.07-.11.19-.17.32-.17h.74c.38 0 .74.16.99.44l.27.32c.71.82.75 2.02.1 2.88l-.04.06c-.1.14-.05.34.11.42a4.07 4.07 0 0 1 1.69 5.83l-.56.9c-.06.09-.15.15-.26.15h-.87v3.35c0 .35-.29.65-.65.65s-.65-.3-.65-.65V18h-1.29v3.35c0 .35-.29.65-.65.65s-.65-.3-.65-.65V18H8.12c-.19 0-.33-.17-.3-.35l1.06-6.68zM12.95 5.52c-.93 1.18-3.62 1.21-4.41-1.19-.06-.18.09-.36.28-.38.73-.11 1.12-.52 1.59-1.02.16-.17.32-.34.51-.52.02-.02.04-.04.06-.05.01-.01.01-.02.02-.02.25-.22.57-.34.92-.34.9 0 1.59.84 1.49 1.8l-.09.84c-.03.34-.17.65-.37.88"/></g></svg>