<svg xmlns="http://www.w3.org/2000/svg" fill="none" viewBox="0 0 24 24" focusable="false"><defs><clipPath id="Pregnant_Outline_svg__a"><path fill="#fff" fill-opacity="0" d="M0 0h24v24H0z"/></clipPath></defs><g clip-path="url(#Pregnant_Outline_svg__a)"><path fill="#74767B" fill-rule="evenodd" d="M8.54 4.33c.79 2.4 3.48 2.37 4.41 1.19.2-.23.34-.54.37-.88l.09-.84c.1-.96-.59-1.8-1.49-1.8-.35 0-.67.12-.92.34l-.02.02c-.02.01-.04.03-.06.05-.19.18-.35.35-.51.52-.47.5-.86.91-1.59 1.02-.19.02-.34.2-.28.38m-.72 13.32 1.06-6.68.06-.5c.14-1.23.73-2.35 1.66-3.17.22-.2.51-.3.81-.3h1.02c.38 0 .74.16.99.44l.27.32c.71.82.75 2.02.1 2.88l-.04.06c-.1.14-.05.34.11.42a4.07 4.07 0 0 1 1.69 5.83l-.56.9c-.06.09-.15.15-.26.15h-1.29v3.35c0 .35-.29.65-.65.65s-.65-.3-.65-.65V18h-1.3v3.35c0 .35-.29.65-.65.65s-.65-.3-.65-.65V18H8.12c-.19 0-.33-.17-.3-.35m1.47-.95.81-5.08c.17.43.41.84.71 1.21l1.29 1.56c.23.28.63.32.91.09a.64.64 0 0 0 .09-.91l-1.28-1.56a3.225 3.225 0 0 1-.27-3.72h.88l.28.32c.3.36.32.88.04 1.26l-.04.05c-.59.8-.31 1.94.59 2.37 1.49.72 2.03 2.57 1.15 3.97l-.27.44z"/></g></svg>