<svg xmlns="http://www.w3.org/2000/svg" fill="none" viewBox="0 0 24 24" focusable="false"><defs><clipPath id="Products_Outline_svg__a"><path fill="#fff" fill-opacity="0" d="M0 0h24v24H0z"/></clipPath></defs><g clip-path="url(#Products_Outline_svg__a)"><path fill="none" d="M9.7 4H5.29C4.58 4 4 4.58 4 5.3v2.39C4 8.41 4.58 9 5.29 9H9.7c.71 0 1.3-.59 1.3-1.31V5.3c0-.72-.59-1.3-1.3-1.3m3.89 0H18c.71 0 1.29.58 1.29 1.3v5.09c0 .72-.58 1.31-1.29 1.31h-4.41c-.71 0-1.3-.59-1.3-1.31V5.3c0-.72.59-1.3 1.3-1.3M9.7 10.3H5.29c-.71 0-1.29.58-1.29 1.3V18c0 .71.58 1.29 1.29 1.29H9.7c.71 0 1.3-.58 1.3-1.29v-6.4c0-.72-.59-1.3-1.3-1.3M18 13h-4.41c-.71 0-1.3.58-1.3 1.3V18c0 .71.59 1.29 1.3 1.29H18c.71 0 1.29-.58 1.29-1.29v-3.7c0-.72-.58-1.3-1.29-1.3"/><path fill="#717681" fill-rule="evenodd" d="M10.99 5.28c0-.71-.58-1.28-1.29-1.28H5.29C4.58 4 4 4.58 4 5.3v2.39C4 8.41 4.58 9 5.29 9H9.7c.71 0 1.28-.57 1.29-1.28.01-.01.01-.02.01-.03V5.3zm.01 8.98V11.6c0-.72-.59-1.3-1.3-1.3H5.29c-.71 0-1.29.58-1.29 1.3V18c0 .71.58 1.29 1.29 1.29H9.7c.71 0 1.29-.57 1.29-1.28.01 0 .01-.01.01-.01zm1.29-6.53v2.66c0 .72.59 1.31 1.3 1.31H18c.71 0 1.29-.59 1.29-1.31V5.3c0-.72-.58-1.3-1.29-1.3h-4.41c-.71 0-1.29.57-1.29 1.28-.01 0-.01.01-.01.02zm.01 6.54c-.01.01-.01.02-.01.03V18l.01.01c0 .71.58 1.28 1.29 1.28H18c.71 0 1.29-.58 1.29-1.29v-3.7c0-.72-.58-1.3-1.29-1.3h-4.41c-.71 0-1.28.56-1.29 1.27M5.29 5.29H9.7l-.01.01v2.39l.01.01H5.29l.01-.01V5.3zm8.3 0H18l-.01.01v5.09l.01.01h-4.41V5.3zm-8.3 6.31H9.7h-.01V18h.01-4.41.01v-6.4zm8.3 2.7H18h-.01V18H18h-4.41z"/></g></svg>