<svg xmlns="http://www.w3.org/2000/svg" fill="none" viewBox="0 0 24 24" focusable="false"><path fill="#74767B" fill-rule="evenodd" d="M14.2015 3.89402C14.4636 3.64873 14.4773 3.2374 14.232 2.97528C13.9867 2.71317 13.5754 2.69952 13.3132 2.94481L10.5632 5.5182C10.5517 5.52866 10.5405 5.5396 10.5296 5.55103C10.4419 5.64307 10.3865 5.75414 10.3631 5.87021C10.3546 5.91214 10.3501 5.95554 10.3501 5.99998C10.3501 6.19332 10.4345 6.36694 10.5685 6.486L13.3088 9.09793C13.5687 9.34561 13.9801 9.33574 14.2278 9.07588C14.4755 8.81602 14.4656 8.40458 14.2058 8.15691L12.6247 6.64998L15.0001 6.64998C16.298 6.64998 17.3501 7.70211 17.3501 8.99998L17.3501 15C17.3501 15.0236 17.3514 15.0468 17.3538 15.0697C16.0075 15.3653 15 16.565 15 18C15 19.6568 16.3431 21 18 21C19.6569 21 21 19.6568 21 18C21 16.565 19.9926 15.3654 18.6464 15.0698C18.6488 15.0469 18.6501 15.0236 18.6501 15L18.6501 8.99998C18.6501 6.98414 17.0159 5.34998 15.0001 5.34998L12.6456 5.34998L14.2015 3.89402ZM5.3538 8.93021C4.00754 8.63466 3 7.43498 3 5.99998C3 4.34312 4.34315 2.99998 6 2.99998C7.65685 2.99998 9 4.34312 9 5.99998C9 7.43491 7.99256 8.63455 6.64639 8.93016C6.64884 8.9531 6.6501 8.97639 6.6501 8.99998L6.6501 20.359C6.6501 20.718 6.35908 21.009 6.0001 21.009C5.64111 21.009 5.3501 20.718 5.3501 20.359L5.3501 8.99998C5.3501 8.97641 5.35135 8.95313 5.3538 8.93021Z"/></svg>