<svg xmlns="http://www.w3.org/2000/svg" fill="none" viewBox="0 0 24 24" focusable="false"><path fill="#74767B" fill-rule="evenodd" d="M14.23 2.97c.24.26.23.67-.03.92l-1.56 1.45H15c2.01 0 3.65 1.64 3.65 3.65V15c0 .02-.01.04-.01.06 1.35.3 2.36 1.5 2.36 2.94 0 1.65-1.35 3-3 3-1.66 0-3-1.35-3-3 0-1.44 1-2.64 2.35-2.94V8.99A2.36 2.36 0 0 0 15 6.64h-2.38l1.58 1.51c.26.25.27.66.02.92-.24.26-.66.27-.92.02l-2.74-2.61a.66.66 0 0 1-.21-.49.649.649 0 0 1 .17-.44l.04-.04 2.75-2.57a.65.65 0 0 1 .92.03M5.35 8.93C4 8.63 3 7.43 3 5.99 3 4.34 4.34 3 6 3a3 3 0 0 1 3 2.99c0 1.44-1.01 2.64-2.36 2.94 0 .02.01.04.01.06v11.36c0 .36-.3.65-.65.65-.36 0-.65-.29-.65-.65V8.93"/></svg>