<svg xmlns="http://www.w3.org/2000/svg" fill="none" viewBox="0 0 24 24" focusable="false"><path fill="#717681" fill-rule="evenodd" d="M14.202 3.894a.65.65 0 1 0-.889-.95l-2.75 2.574a.66.66 0 0 0-.2.352.65.65 0 0 0 .206.616l2.74 2.612a.65.65 0 0 0 .897-.941L12.625 6.65H15A2.35 2.35 0 0 1 17.35 9v6q0 .036.004.07a3.001 3.001 0 1 0 1.292 0l.004-.07V9A3.65 3.65 0 0 0 15 5.35h-2.354zM19.7 18a1.7 1.7 0 1 1-3.4 0 1.7 1.7 0 0 1 3.4 0M3 6a3 3 0 0 0 2.354 2.93L5.35 9v11.359a.65.65 0 1 0 1.3 0V9l-.004-.07A3.001 3.001 0 1 0 3 6m3 1.7a1.7 1.7 0 1 0 0-3.4 1.7 1.7 0 0 0 0 3.4" clip-rule="evenodd"/></svg>