<svg xmlns="http://www.w3.org/2000/svg" fill="none" viewBox="0 0 24 24" focusable="false"><path fill="#74767B" fill-rule="evenodd" d="M5.03 6c0-1.66 1.35-3 3-3h8c1.66 0 3 1.34 3 3v5.83c0 .44-.39.76-.83.75-.08-.01-.16-.01-.24-.01-3.36 0-6.08 2.72-6.08 6.08 0 .51.07 1.01.19 1.49.11.43-.17.9-.59.76-.16-.06-.33-.14-.47-.26l-1.13-.85a.69.69 0 0 0-.8-.03l-1.51.99c-.26.17-.57.26-.89.26-.91 0-1.65-.73-1.65-1.64zm3.02 1.64c0-.36.29-.65.65-.65h6.7c.36 0 .65.29.65.65s-.29.65-.65.65H8.7c-.36 0-.65-.29-.65-.65m.65 2.35c-.36 0-.65.29-.65.65s.29.65.65.65h6.7c.36 0 .65-.29.65-.65s-.29-.65-.65-.65zm-.65 3.65c0-.36.29-.65.65-.65h3.21c.36 0 .65.29.65.65s-.29.65-.65.65H8.7c-.36 0-.65-.29-.65-.65m8.17 5.46-.5-.49c.21 1.19 1.25 2.1 2.51 2.1 1.41 0 2.55-1.14 2.55-2.55a2.556 2.556 0 0 0-3.39-2.42.65.65 0 0 1-.83-.4.65.65 0 0 1 .41-.82c.39-.14.82-.22 1.26-.22 2.13 0 3.85 1.73 3.85 3.86 0 2.12-1.72 3.85-3.85 3.85-1.94 0-3.55-1.44-3.82-3.31l-.4.42c-.25.25-.67.26-.92 0a.637.637 0 0 1-.01-.91l1.55-1.58c.25-.26.66-.26.92-.01l1.58 1.55c.25.25.26.66.01.92-.26.25-.67.26-.92.01"/></svg>