<svg xmlns="http://www.w3.org/2000/svg" fill="none" viewBox="0 0 24 24" focusable="false"><path fill="#717681" fill-rule="evenodd" d="M5 6a3 3 0 0 1 3-3h8a3 3 0 0 1 3 3v4.986c0 .461-.44.795-.898.747a5.8 5.8 0 0 0-5.796 8.387c.196.386.055.891-.378.873a1.697 1.697 0 0 1-.953-.343l-1.126-.853a.7.7 0 0 0-.806-.028l-1.5.982A1.643 1.643 0 0 1 5 19.376zm3.019 1.643a.65.65 0 0 1 .65-.65h6.7a.65.65 0 0 1 0 1.3h-6.7a.65.65 0 0 1-.65-.65m.65 2.367a.65.65 0 0 0 0 1.3h3.207a.65.65 0 1 0 0-1.3z" clip-rule="evenodd"/><path fill="#717681" fill-rule="evenodd" d="M20.664 20.682a4.5 4.5 0 1 0-6.365-6.364 4.5 4.5 0 0 0 6.365 6.364m-2.51-3.153a.65.65 0 1 0-1.3 0v2.47a.65.65 0 1 0 1.3 0zm0-2.58a.65.65 0 1 1-1.3 0 .65.65 0 0 1 1.3 0" clip-rule="evenodd"/></svg>