<svg xmlns="http://www.w3.org/2000/svg" width="25" height="24" fill="none"><path fill="#717681" d="M8.781 18.411a1.3 1.3 0 0 1 1.497.052l.383.29a.65.65 0 0 1 .258.518c0 .537-.624.835-1.052.51a.664.664 0 0 0-.762-.028l-1.525.998a1.643 1.643 0 0 1-2.542-1.375V6a3 3 0 0 1 3-3h8a3 3 0 0 1 3 3v4.642a.65.65 0 1 1-1.3 0V6a1.7 1.7 0 0 0-1.7-1.7h-8a1.7 1.7 0 0 0-1.7 1.7v13.376a.343.343 0 0 0 .53.287l1.913-1.252Z"/><path fill="#717681" d="M8.056 7.643a.65.65 0 0 1 .65-.65h6.7a.65.65 0 0 1 0 1.3h-6.7a.65.65 0 0 1-.65-.65ZM8.056 10.642a.65.65 0 0 1 .65-.65h6.7a.65.65 0 0 1 0 1.3h-6.7a.65.65 0 0 1-.65-.65ZM8.706 12.991a.65.65 0 1 0 0 1.3h3.207a.65.65 0 1 0 0-1.3H8.706ZM14.46 17.746l.85.834a.65.65 0 0 0 .91-.928l-1.88-1.847a.65.65 0 0 0-.92.008l-1.846 1.88a.65.65 0 1 0 .927.912l.669-.68a4.466 4.466 0 1 0 2.985-4.597.65.65 0 0 0 .426 1.228 3.166 3.166 0 1 1-2.121 3.19Z"/></svg>