<svg xmlns="http://www.w3.org/2000/svg" fill="none" viewBox="0 0 24 24" focusable="false"><path fill="#74767B" fill-rule="evenodd" d="M5 6C5 4.34315 6.34315 3 8 3L16 3C17.6569 3 19 4.34315 19 6L19 10.9862C19 11.4472 18.5604 11.7815 18.102 11.7328C17.8982 11.7111 17.6912 11.7 17.4817 11.7C14.2784 11.7 11.6817 14.2967 11.6817 17.5C11.6817 18.4427 11.9066 19.3329 12.3057 20.1198C12.5017 20.5062 12.3608 21.0114 11.9278 20.9927C11.5913 20.9781 11.2582 20.8638 10.9755 20.6497L9.8487 19.7967C9.61292 19.6182 9.29041 19.6071 9.04295 19.769L7.54218 20.7509C7.27482 20.9258 6.96227 21.019 6.64278 21.019C5.7355 21.019 5 20.2835 5 19.3762L5 6ZM8.01855 7.6429C8.01855 7.28392 8.30957 6.9929 8.66855 6.9929L15.3686 6.9929C15.7275 6.9929 16.0186 7.28392 16.0186 7.6429C16.0186 8.00189 15.7275 8.2929 15.3686 8.2929L8.66855 8.2929C8.30957 8.2929 8.01855 8.00189 8.01855 7.6429ZM8.66855 10.0098C8.30957 10.0098 8.01855 10.3009 8.01855 10.6598C8.01855 11.0188 8.30957 11.3098 8.66856 11.3098L11.8755 11.3098C12.2345 11.3098 12.5255 11.0188 12.5255 10.6598C12.5255 10.3009 12.2345 10.0098 11.8755 10.0098L8.66855 10.0098ZM17.5045 15.5998C17.8635 15.5998 18.1545 15.3088 18.1545 14.9498C18.1545 14.5908 17.8635 14.2998 17.5045 14.2998C17.1455 14.2998 16.8545 14.5908 16.8545 14.9498C16.8545 15.3088 17.1455 15.5998 17.5045 15.5998ZM20.6637 14.318C22.421 16.0754 22.421 18.9246 20.6637 20.682C18.9063 22.4393 16.0571 22.4393 14.2997 20.682C12.5423 18.9246 12.5423 16.0754 14.2997 14.318C16.0571 12.5607 18.9063 12.5607 20.6637 14.318ZM17.5044 16.8788C17.8634 16.8788 18.1544 17.1698 18.1544 17.5288L18.1544 19.9983C18.1544 20.3573 17.8634 20.6483 17.5044 20.6483C17.1454 20.6483 16.8544 20.3573 16.8544 19.9983L16.8544 17.5288C16.8544 17.1698 17.1454 16.8788 17.5044 16.8788Z"/></svg>