<svg xmlns="http://www.w3.org/2000/svg" fill="none" viewBox="0 0 24 24" focusable="false"><path fill="#717681" d="M10.222 18.463a1.3 1.3 0 0 0-1.497-.052l-1.913 1.252a.343.343 0 0 1-.53-.287V6a1.7 1.7 0 0 1 1.7-1.7h8a1.7 1.7 0 0 1 1.7 1.7v3.992a.65.65 0 0 0 1.3 0V6a3 3 0 0 0-3-3h-8a3 3 0 0 0-3 3v13.376a1.643 1.643 0 0 0 2.542 1.375l1.525-.998a.665.665 0 0 1 .762.029c.428.324 1.052.026 1.052-.51a.65.65 0 0 0-.258-.519z"/><path fill="#717681" d="M8.668 6.993a.65.65 0 0 0 0 1.3h6.7a.65.65 0 1 0 0-1.3zM8.668 9.992a.65.65 0 0 0 0 1.3h3.207a.65.65 0 1 0 0-1.3zM17.641 17.838a.65.65 0 1 0-1.3 0v.932a.65.65 0 1 0 1.3 0zM17.641 15.238a.65.65 0 1 1-1.3 0 .65.65 0 0 1 1.3 0"/><path fill="#717681" fill-rule="evenodd" d="M20.52 13.482a4.99 4.99 0 1 0-7.057 7.056 4.99 4.99 0 0 0 7.057-7.056m-6.138.919a3.69 3.69 0 1 1 5.218 5.218 3.69 3.69 0 0 1-5.218-5.218" clip-rule="evenodd"/></svg>