<svg xmlns="http://www.w3.org/2000/svg" width="24" height="24" fill="none"><path fill="#717681" d="M8.65 6.999a.65.65 0 1 0 0 1.3h6.703a.65.65 0 1 0 0-1.3H8.65ZM8 10.647a.65.65 0 0 1 .65-.65h6.703a.65.65 0 1 1 0 1.3H8.65a.65.65 0 0 1-.65-.65ZM8 13.646a.65.65 0 0 1 .65-.65h3.201a.65.65 0 1 1 0 1.3h-3.2a.65.65 0 0 1-.651-.65Z"/><path fill="#717681" fill-rule="evenodd" d="M5 19.394 5.009 5.6A2.6 2.6 0 0 1 7.609 3h8.79A2.6 2.6 0 0 1 19 5.6l-.009 13.8c0 1.253-1.378 2.02-2.444 1.358L14.87 19.72a.6.6 0 0 0-.67.026l-1.289.945a1.602 1.602 0 0 1-1.894 0l-1.279-.938a.6.6 0 0 0-.675-.024l-1.608 1.016C6.39 21.42 5 20.654 5 19.394Zm12.691.004L17.7 5.6A1.3 1.3 0 0 0 16.4 4.3H7.61a1.3 1.3 0 0 0-1.301 1.3L6.3 19.394a.3.3 0 0 0 .462.252l1.607-1.016a1.9 1.9 0 0 1 2.14.075l1.278.938c.106.078.25.078.356 0l1.288-.945a1.9 1.9 0 0 1 2.126-.083l1.675 1.038a.301.301 0 0 0 .46-.255Z" clip-rule="evenodd"/></svg>