<svg xmlns="http://www.w3.org/2000/svg" fill="none" viewBox="0 0 24 24" focusable="false"><path fill="#717681" fill-rule="evenodd" d="M7.456 20.745C6.39 21.42 5 20.654 5 19.394L5.009 5.6A2.6 2.6 0 0 1 7.609 3h8.79A2.6 2.6 0 0 1 19 5.6l-.009 13.8c0 1.253-1.378 2.02-2.444 1.358L14.87 19.72a.6.6 0 0 0-.67.026l-1.289.945a1.602 1.602 0 0 1-1.894 0l-1.279-.938a.6.6 0 0 0-.675-.024l-1.608 1.016M8.642 7.001a.65.65 0 0 0 0 1.3h6.7a.65.65 0 1 0 0-1.3h-6.7Zm-.65 3.65a.65.65 0 0 1 .65-.65h6.7a.65.65 0 1 1 0 1.3h-6.7a.65.65 0 0 1-.65-.65m0 3a.65.65 0 0 1 .65-.65h3.2a.65.65 0 1 1 0 1.3h-3.2a.65.65 0 0 1-.65-.65" clip-rule="evenodd"/></svg>