<svg xmlns="http://www.w3.org/2000/svg" fill="none" viewBox="0 0 24 24" focusable="false"><path fill="#717681" fill-rule="evenodd" d="M5 5.59v13.8c0 1.26 1.39 2.02 2.45 1.35l1.61-1.02c.21-.13.48-.12.67.03l1.28.94c.57.41 1.33.41 1.9 0l1.29-.95c.19-.14.46-.15.67-.03l1.67 1.04c1.07.66 2.45-.1 2.45-1.36L19 5.59C19 4.16 17.83 3 16.39 3H7.6A2.6 2.6 0 0 0 5 5.59m12.7 0-.01 13.8c0 .24-.26.38-.46.26l-1.68-1.04c-.66-.41-1.5-.38-2.12.08l-1.29.95a.3.3 0 0 1-.36 0l-1.28-.94a1.9 1.9 0 0 0-2.14-.07l-1.6 1.01c-.2.13-.46-.02-.47-.25L6.3 5.6c0-.72.59-1.3 1.3-1.3h8.79c.72 0 1.31.58 1.31 1.29M8 7.64c0-.36.29-.65.65-.65h6.7c.36 0 .65.29.65.65s-.29.65-.65.65h-6.7C8.29 8.29 8 8 8 7.64m.65 2.35c-.36 0-.65.29-.65.65s.29.65.65.65h6.7c.36 0 .65-.29.65-.65s-.29-.65-.65-.65zM8 13.64c0-.36.29-.65.65-.65h3.2c.36 0 .65.29.65.65s-.29.65-.65.65h-3.2c-.36 0-.65-.29-.65-.65"/></svg>