<svg xmlns="http://www.w3.org/2000/svg" width="24" height="24" fill="none"><path fill="#717681" fill-rule="evenodd" d="M8 3a3 3 0 0 0-3 3v13.376a1.643 1.643 0 0 0 2.542 1.375l1.5-.982a.7.7 0 0 1 .807.028l1.127.853a1.7 1.7 0 0 0 2.045.004.522.522 0 0 0 .155-.627 5.642 5.642 0 0 1 5.183-7.874c.342 0 .641-.264.641-.607V6a3 3 0 0 0-3-3H8Zm.669 3.993a.65.65 0 0 0 0 1.3h6.7a.65.65 0 0 0 0-1.3h-6.7Zm-.65 3.65a.65.65 0 0 1 .65-.65h6.7a.65.65 0 0 1 0 1.3h-6.7a.65.65 0 0 1-.65-.65Zm.65 2.348a.65.65 0 1 0 0 1.3h3.207a.65.65 0 1 0 0-1.3H8.669Z" clip-rule="evenodd"/><path fill="#717681" d="m18.615 14.136 1.105 1.835 2.086.483a.3.3 0 0 1 .159.489l-1.404 1.617.185 2.134a.3.3 0 0 1-.416.302l-1.972-.835-1.972.835a.3.3 0 0 1-.416-.302l.185-2.134-1.403-1.617a.3.3 0 0 1 .158-.49l2.087-.482 1.104-1.835a.3.3 0 0 1 .514 0Z"/></svg>