<svg xmlns="http://www.w3.org/2000/svg" fill="none" viewBox="0 0 24 24" focusable="false"><defs><clipPath id="Receipt_Favorites_Solid_svg__a"><path fill="#fff" fill-opacity="0" d="M0 0h24v24H0z"/></clipPath></defs><g clip-path="url(#Receipt_Favorites_Solid_svg__a)"><path fill="#717681" fill-rule="evenodd" d="M5 6c0-1.66 1.34-3 3-3h8c1.65 0 3 1.34 3 3v5.54c0 .34-.3.61-.65.61a5.64 5.64 0 0 0-5.18 7.87c.1.22.04.49-.15.63-.61.45-1.44.45-2.05-.01l-1.13-.85a.691.691 0 0 0-.8-.03l-1.5.99c-.27.17-.58.26-.9.26-.91 0-1.64-.73-1.64-1.64zm3.01 1.64c0-.36.29-.65.65-.65h6.7c.36 0 .65.29.65.65 0 .36-.29.65-.65.65h-6.7c-.36 0-.65-.29-.65-.65m.65 2.35c-.36 0-.65.29-.65.65 0 .36.29.65.65.65h6.7c.36 0 .65-.29.65-.65 0-.36-.29-.65-.65-.65zm-.65 3.65c0-.36.29-.65.65-.65h3.21c.36 0 .65.29.65.65 0 .36-.29.65-.65.65H8.66c-.36 0-.65-.29-.65-.65m11.7 2.33-1.1-1.84c-.12-.19-.4-.19-.51 0l-1.11 1.84-2.08.48c-.23.05-.31.32-.16.49l1.4 1.62-.18 2.13c-.02.22.2.39.41.3l1.97-.83 1.98.83c.2.09.43-.08.41-.3l-.18-2.13 1.4-1.62a.3.3 0 0 0-.16-.49z"/></g></svg>