<svg xmlns="http://www.w3.org/2000/svg" fill="none" viewBox="0 0 24 24" focusable="false"><path fill="#74767B" fill-rule="evenodd" d="M10.2402 18.4626C9.80235 18.1311 9.2034 18.1106 8.74383 18.4112L6.83045 19.6631C6.77466 19.6996 6.70944 19.719 6.64278 19.719C6.45347 19.719 6.3 19.5655 6.3 19.3762L6.3 6C6.3 5.06112 7.06112 4.3 8 4.3L16 4.3C16.9389 4.3 17.7 5.06112 17.7 6L17.7 10.6421C17.7 11.0011 17.991 11.2921 18.35 11.2921C18.709 11.2921 19 11.0011 19 10.6421L19 6C19 4.34315 17.6569 3 16 3L8 3C6.34315 3 5 4.34315 5 6L5 19.3762C5 20.2835 5.7355 21.019 6.64278 21.019C6.96227 21.019 7.27482 20.9258 7.54218 20.7509L9.06734 19.7531C9.30017 19.6008 9.60724 19.6139 9.82908 19.7819C10.2572 20.106 10.8816 19.8083 10.8816 19.2713C10.8816 19.0678 10.7862 18.876 10.6239 18.7531L10.2402 18.4626ZM8.01855 7.64292C8.01855 7.28394 8.30957 6.99292 8.66855 6.99292L15.3686 6.99292C15.7275 6.99292 16.0186 7.28394 16.0186 7.64292C16.0186 8.00191 15.7275 8.29292 15.3686 8.29292L8.66855 8.29292C8.30957 8.29292 8.01855 8.00191 8.01855 7.64292ZM8.66855 9.99207C8.30957 9.99207 8.01855 10.2831 8.01855 10.6421C8.01855 11.001 8.30957 11.2921 8.66855 11.2921L15.3686 11.2921C15.7275 11.2921 16.0186 11.001 16.0186 10.6421C16.0186 10.2831 15.7275 9.99207 15.3686 9.99207L8.66855 9.99207ZM8.66855 12.9911C8.30957 12.9911 8.01855 13.2821 8.01855 13.6411C8.01855 14.0001 8.30957 14.2911 8.66856 14.2911L11.8755 14.2911C12.2345 14.2911 12.5255 14.0001 12.5255 13.6411C12.5255 13.2821 12.2345 12.9911 11.8755 12.9911L8.66855 12.9911ZM15.2719 18.5797L14.4227 17.7456C14.5247 19.4019 15.9004 20.7137 17.5824 20.7137C19.3308 20.7137 20.7482 19.2964 20.7482 17.548C20.7482 15.7996 19.3308 14.3822 17.5824 14.3822C17.2175 14.3822 16.8683 14.4437 16.5438 14.5563C16.2047 14.674 15.8343 14.4945 15.7166 14.1554C15.5989 13.8163 15.7784 13.4459 16.1175 13.3282C16.5773 13.1686 17.0704 13.0822 17.5824 13.0822C20.0488 13.0822 22.0482 15.0816 22.0482 17.548C22.0482 20.0144 20.0488 22.0137 17.5824 22.0137C15.2428 22.0137 13.3234 20.2146 13.1323 17.9243L12.4638 18.6048C12.2123 18.8609 11.8007 18.8646 11.5446 18.6131C11.2885 18.3615 11.2848 17.95 11.5364 17.6939L13.3833 15.8135C13.6349 15.5574 14.0464 15.5537 14.3025 15.8053L16.1829 17.6522C16.439 17.9038 16.4427 18.3153 16.1911 18.5714C15.9396 18.8275 15.528 18.8312 15.2719 18.5797Z"/></svg>