<svg xmlns="http://www.w3.org/2000/svg" fill="none" viewBox="0 0 24 24" focusable="false"><path fill="#74767B" fill-rule="evenodd" d="M8.74 18.41c.46-.3 1.06-.28 1.5.05l.38.29c.16.12.26.31.26.52 0 .53-.63.83-1.06.51a.66.66 0 0 0-.76-.03l-1.52 1c-.27.17-.58.26-.9.26-.91 0-1.64-.73-1.64-1.64V6c0-1.66 1.34-3 3-3h8c1.65 0 3 1.34 3 3v4.64c0 .36-.3.65-.65.65-.36 0-.65-.29-.65-.65V6c0-.94-.77-1.7-1.7-1.7H8c-.94 0-1.71.76-1.71 1.7v13.37c0 .19.16.34.35.34.06 0 .13-.02.19-.05zM8.01 7.64c0-.36.29-.65.65-.65h6.7c.36 0 .65.29.65.65s-.29.65-.65.65h-6.7c-.36 0-.65-.29-.65-.65m.65 2.35c-.36 0-.65.29-.65.65s.29.65.65.65h6.7c.36 0 .65-.29.65-.65s-.29-.65-.65-.65zm0 3c-.36 0-.65.29-.65.65s.29.65.65.65h3.21c.36 0 .65-.29.65-.65s-.29-.65-.65-.65zm6.61 5.58-.85-.83a3.162 3.162 0 0 0 6.32-.2c0-1.75-1.41-3.16-3.16-3.16-.37 0-.72.06-1.04.17a.65.65 0 1 1-.43-1.23c.46-.16.96-.24 1.47-.24a4.466 4.466 0 0 1 0 8.93c-2.34 0-4.26-1.8-4.45-4.09l-.67.68c-.25.26-.66.26-.92.01a.65.65 0 0 1-.01-.92l1.85-1.88c.25-.26.66-.26.92-.01l1.88 1.85c.25.25.26.66.01.92-.26.25-.67.26-.92 0"/></svg>