<svg xmlns="http://www.w3.org/2000/svg" fill="none" viewBox="0 0 24 24" focusable="false"><path fill="#74767B" fill-rule="evenodd" d="M7.45 20.74C6.39 21.41 5 20.65 5 19.39V5.59A2.6 2.6 0 0 1 7.6 3h8.79C17.83 3 19 4.16 19 5.59l-.01 13.8c0 1.26-1.38 2.02-2.45 1.36l-1.67-1.04a.62.62 0 0 0-.67.03l-1.29.95c-.57.41-1.33.41-1.9 0l-1.28-.94a.59.59 0 0 0-.67-.03zM8.64 7c-.36 0-.65.29-.65.65 0 .35.29.65.65.65h6.7c.36 0 .65-.3.65-.65 0-.36-.29-.65-.65-.65zm-.65 3.65c0-.36.29-.65.65-.65h6.7c.36 0 .65.29.65.65 0 .35-.29.65-.65.65h-6.7c-.36 0-.65-.3-.65-.65m0 3c0-.36.29-.65.65-.65h3.2c.36 0 .65.29.65.65 0 .35-.29.65-.65.65h-3.2c-.36 0-.65-.3-.65-.65"/></svg>