<svg xmlns="http://www.w3.org/2000/svg" fill="none" viewBox="0 0 24 24" focusable="false"><path fill="#717681" d="M9.664 3.039H11V6.24a1 1 0 1 0 2 0V3.039h1.336a3 3 0 0 1 3 3v4.672a3 3 0 0 1-3 3H9.664a3 3 0 0 1-3-3V6.04a3 3 0 0 1 3-3"/><path fill="#717681" fill-rule="evenodd" d="M5.99 21a2.99 2.99 0 0 1 0-5.98h12.02a2.99 2.99 0 0 1 0 5.98H5.99M4.3 18.01a1.69 1.69 0 1 1 3.38 0 1.69 1.69 0 0 1-3.38 0m4.157-1.69h7.086a2.977 2.977 0 0 0-.523 1.69c0 .627.193 1.21.523 1.69H8.457c.33-.48.523-1.063.523-1.69 0-.628-.193-1.21-.523-1.69m7.863 1.69a1.69 1.69 0 1 1 3.38 0 1.69 1.69 0 0 1-3.38 0" clip-rule="evenodd"/></svg>