<svg xmlns="http://www.w3.org/2000/svg" fill="none" viewBox="0 0 24 24" focusable="false"><path fill="#717681" fill-rule="evenodd" d="M6.66 6.03c0-1.65 1.34-3 3-3h4.67c1.66 0 3 1.35 3 3v4.68c0 1.65-1.34 3-3 3H9.66c-1.66 0-3-1.35-3-3zM13 4.33h1.33c.94 0 1.7.76 1.7 1.7v4.68c0 .94-.76 1.7-1.7 1.7H9.66c-.94 0-1.7-.76-1.7-1.7V6.03c0-.94.76-1.7 1.7-1.7H11v1.91c0 .55.44 1 1 1 .55 0 1-.45 1-1zM3 18c0 1.66 1.33 3 2.99 3H18a2.996 2.996 0 1 0 0-5.99H5.99C4.33 15.01 3 16.35 3 18m2.99-1.69c-.94 0-1.69.76-1.69 1.69 0 .94.75 1.7 1.69 1.7a1.694 1.694 0 0 0 0-3.39m9.55 0H8.45c.33.49.53 1.07.53 1.69 0 .63-.2 1.21-.53 1.7h7.09a3.03 3.03 0 0 1-.53-1.7c0-.62.2-1.2.53-1.69m2.46 0a1.694 1.694 0 1 0 .009 3.389A1.694 1.694 0 0 0 18 16.31"/></svg>