<svg xmlns="http://www.w3.org/2000/svg" fill="none" viewBox="0 0 24 24" focusable="false"><path fill="#74767B" fill-rule="evenodd" d="M9.66357 3.03857C8.00672 3.03857 6.66357 4.38172 6.66357 6.03857L6.66357 10.7114C6.66357 12.3683 8.00672 13.7114 9.66357 13.7114L14.3364 13.7114C15.9933 13.7114 17.3364 12.3683 17.3364 10.7114L17.3364 6.03857C17.3364 4.38172 15.9933 3.03857 14.3364 3.03857L9.66357 3.03857ZM14.3364 4.33857L13 4.33857L13 6.24065C13 6.79293 12.5523 7.24065 12 7.24065C11.4477 7.24065 11 6.79293 11 6.24065L11 4.33857L9.66357 4.33857C8.72469 4.33857 7.96357 5.09969 7.96357 6.03857L7.96357 10.7114C7.96357 11.6503 8.72469 12.4114 9.66357 12.4114L14.3364 12.4114C15.2753 12.4114 16.0364 11.6503 16.0364 10.7114L16.0364 6.03857C16.0364 5.09969 15.2753 4.33857 14.3364 4.33857ZM3 18.0098C3 19.6612 4.33877 21 5.99023 21L18.0098 21C19.6612 21 21 19.6612 21 18.0098C21 16.3583 19.6612 15.0195 18.0098 15.0195L5.99023 15.0195C4.33877 15.0195 3 16.3583 3 18.0098ZM5.99023 16.3195C5.05674 16.3195 4.3 17.0763 4.3 18.0098C4.3 18.9433 5.05674 19.7 5.99023 19.7C6.92373 19.7 7.68047 18.9433 7.68047 18.0098C7.68047 17.0763 6.92373 16.3195 5.99023 16.3195ZM15.5427 16.3195L8.45728 16.3195C8.78733 16.8004 8.98047 17.3825 8.98047 18.0098C8.98047 18.637 8.78733 19.2192 8.45728 19.7L15.5427 19.7C15.2127 19.2192 15.0195 18.637 15.0195 18.0098C15.0195 17.3825 15.2127 16.8004 15.5427 16.3195ZM18.0098 16.3195C17.0763 16.3195 16.3195 17.0763 16.3195 18.0098C16.3195 18.9433 17.0763 19.7 18.0098 19.7C18.9433 19.7 19.7 18.9433 19.7 18.0098C19.7 17.0763 18.9433 16.3195 18.0098 16.3195Z"/></svg>