<svg xmlns="http://www.w3.org/2000/svg" fill="none" viewBox="0 0 24 24" focusable="false"><defs><clipPath id="Robot_Outline_svg__a"><path fill="#fff" fill-opacity="0" d="M0 0h24v24H0z"/></clipPath></defs><g clip-path="url(#Robot_Outline_svg__a)"><path fill="#717681" fill-rule="evenodd" d="M11.36 4V2.64c0-.35.29-.65.65-.65.36 0 .65.3.65.65V4H17c1.65 0 3 1.34 3 3v3.99h1.34c.36 0 .66.3.66.65 0 .36-.3.65-.66.65H20V17c0 1.65-1.35 3-3 3H7c-1.66 0-3-1.35-3-3v-4.71H2.64c-.35 0-.65-.29-.65-.65 0-.35.3-.65.65-.65H4V7c0-1.66 1.34-3 3-3zm3.65 6.11c0-.41-.34-.75-.75-.75s-.75.34-.75.75a.749.749 0 1 0 1.5 0m-5.79 4.51c-.35 0-.65-.29-.65-.65 0-.36.3-.65.65-.65h5.58c.36 0 .65.29.65.65 0 .36-.29.65-.65.65zm1.29-4.51c0-.41-.34-.75-.75-.75s-.75.34-.75.75a.749.749 0 1 0 1.5 0M17 5.29H7c-.94 0-1.7.77-1.7 1.71v10c0 .93.76 1.7 1.7 1.7h10c.93 0 1.7-.77 1.7-1.7V7c0-.94-.77-1.71-1.7-1.71"/></g></svg>