<svg xmlns="http://www.w3.org/2000/svg" fill="none" viewBox="0 0 24 24" focusable="false"><defs><clipPath id="Robot_Solid_svg__a"><path fill="#fff" fill-opacity="0" d="M0 0h24v24H0z"/></clipPath></defs><g clip-path="url(#Robot_Solid_svg__a)"><path fill="#74767B" fill-rule="evenodd" d="M12.66 4V2.64c0-.35-.29-.65-.65-.65s-.65.3-.65.65V4H7C5.34 4 4 5.34 4 7v3.99H2.64c-.35 0-.65.3-.65.65 0 .36.3.65.65.65H4V17c0 1.65 1.34 3 3 3h10c1.65 0 3-1.35 3-3v-4.71h1.34c.36 0 .66-.29.66-.65 0-.35-.3-.65-.66-.65H20V7c0-1.66-1.35-3-3-3zm2.35 6.11c0-.41-.34-.75-.75-.75s-.75.34-.75.75a.749.749 0 1 0 1.5 0m-5.79 4.51c-.35 0-.65-.29-.65-.65s.3-.65.65-.65h5.58c.36 0 .65.29.65.65s-.29.65-.65.65zm1.29-4.51c0-.41-.34-.75-.75-.75s-.75.34-.75.75a.749.749 0 1 0 1.5 0"/></g></svg>