<svg xmlns="http://www.w3.org/2000/svg" fill="none" viewBox="0 0 24 24" focusable="false"><path d="M0 0H24V24H0z"/><path fill="#74767B" fill-rule="evenodd" d="M17.7792 2.34759C18.2427 1.88414 18.9941 1.88414 19.4575 2.34759L21.6522 4.5423C22.1157 5.00575 22.1157 5.75715 21.6522 6.2206L19.4575 8.41531C18.9941 8.87877 18.2427 8.87877 17.7792 8.41531L15.5845 6.2206C15.1211 5.75715 15.1211 5.00575 15.5845 4.5423L17.7792 2.34759ZM2.40576 3.68144C2.40576 2.96347 2.98779 2.38144 3.70576 2.38144L7.10576 2.38144C7.82373 2.38144 8.40576 2.96347 8.40576 3.68144L8.40576 7.08144C8.40576 7.79941 7.82373 8.38144 7.10576 8.38144L3.70576 8.38144C2.98779 8.38144 2.40576 7.79941 2.40576 7.08144L2.40576 3.68144ZM18.6184 3.34691L20.6529 5.38145L18.6184 7.41599L16.5838 5.38145L18.6184 3.34691ZM7.10576 3.68144L3.70576 3.68144L3.70576 7.08144L7.10576 7.08144L7.10576 3.68144ZM10.3568 4.73141C9.99784 4.73141 9.70682 5.02243 9.70682 5.38141C9.70682 5.7404 9.99784 6.03141 10.3568 6.03141L13.2873 6.03141C13.6463 6.03141 13.9373 5.7404 13.9373 5.38141C13.9373 5.02243 13.6463 4.73141 13.2873 4.73141L10.3568 4.73141ZM10.2267 16.4965L11.7397 17.9585L8.41138 17.9594C7.11351 17.9594 6.06138 16.9072 6.06138 15.6094L6.06138 10.332C6.06138 9.97305 5.77036 9.68203 5.41138 9.68203C5.05239 9.68203 4.76138 9.97305 4.76138 10.332L4.76138 15.6094C4.76138 17.6252 6.39554 19.2594 8.41138 19.2594L11.7388 19.2594L10.2346 20.7127C9.98072 20.9665 9.98072 21.3781 10.2346 21.6319C10.4884 21.8857 10.9 21.8857 11.1538 21.6319L14.1219 19.0681C14.3758 18.8142 14.3758 18.4027 14.1219 18.1489L11.146 15.5772C10.8921 15.3234 10.4806 15.3234 10.2267 15.5772C9.97291 15.8311 9.97291 16.2426 10.2267 16.4965ZM19.2683 10.7086C19.2683 10.3496 18.9773 10.0586 18.6183 10.0586C18.2593 10.0586 17.9683 10.3496 17.9683 10.7086L17.9683 13.6722C17.9683 14.0311 18.2593 14.3222 18.6183 14.3222C18.9773 14.3222 19.2683 14.0311 19.2683 13.6722L19.2683 10.7086ZM18.6183 15.6266C16.9615 15.6266 15.6183 16.9698 15.6183 18.6266C15.6183 20.2835 16.9615 21.6266 18.6183 21.6266C20.2752 21.6266 21.6183 20.2835 21.6183 18.6266C21.6183 16.9698 20.2752 15.6266 18.6183 15.6266ZM18.6183 16.9266C17.6795 16.9266 16.9183 17.6877 16.9183 18.6266C16.9183 19.5655 17.6795 20.3266 18.6183 20.3266C19.5572 20.3266 20.3183 19.5655 20.3183 18.6266C20.3183 17.6877 19.5572 16.9266 18.6183 16.9266Z"/></svg>