<svg xmlns="http://www.w3.org/2000/svg" fill="none" viewBox="0 0 24 24" focusable="false"><path fill="#717681" fill-rule="evenodd" d="M19.45 2.34c-.46-.46-1.21-.46-1.68 0l-2.19 2.2c-.46.46-.46 1.21 0 1.68l2.19 2.19c.47.46 1.22.46 1.68 0l2.2-2.19c.46-.47.46-1.22 0-1.68zM3.7 2.38c-.72 0-1.3.58-1.3 1.3v3.4c0 .71.58 1.3 1.3 1.3h3.4c.72 0 1.3-.59 1.3-1.3v-3.4c0-.72-.58-1.3-1.3-1.3zm16.95 3-2.04-2.04-2.03 2.04 2.03 2.03zM3.7 3.68h3.4v3.4H3.7zm6.65 1.05c-.36 0-.65.29-.65.65 0 .36.29.65.65.65h2.93c.36 0 .65-.29.65-.65 0-.36-.29-.65-.65-.65zm-.13 11.76 1.51 1.46H8.41c-1.3 0-2.35-1.05-2.35-2.35v-5.27c0-.36-.29-.65-.65-.65-.36 0-.65.29-.65.65v5.27c0 2.02 1.63 3.65 3.65 3.65h3.32l-1.5 1.46c-.25.25-.25.66 0 .92.25.25.66.25.92 0l2.97-2.57c.25-.25.25-.66 0-.92l-2.98-2.57a.658.658 0 0 0-.92 0c-.25.26-.25.67 0 .92m9.04-5.79c0-.36-.29-.65-.65-.65-.36 0-.65.29-.65.65v2.97c0 .36.29.65.65.65.36 0 .65-.29.65-.65zm-3.65 7.92c0-1.66 1.35-3 3-3 1.66 0 3 1.34 3 3s-1.34 3-3 3c-1.65 0-3-1.34-3-3m1.3 0c0-.94.76-1.7 1.7-1.7s1.7.76 1.7 1.7-.76 1.7-1.7 1.7-1.7-.76-1.7-1.7"/></svg>