<svg xmlns="http://www.w3.org/2000/svg" fill="none" viewBox="0 0 24 24" focusable="false"><path fill="#717681" fill-rule="evenodd" d="m18.618 3.347 2.035 2.034-2.035 2.035-2.034-2.035 2.034-2.034m-.839-1a1.187 1.187 0 0 1 1.678 0l2.195 2.195a1.187 1.187 0 0 1 0 1.679l-2.195 2.194a1.187 1.187 0 0 1-1.678 0l-2.194-2.194a1.187 1.187 0 0 1 0-1.679l2.194-2.194M7.106 3.682h-3.4v3.4h3.4v-3.4m11.512 13.246a1.7 1.7 0 1 0 0 3.4 1.7 1.7 0 0 0 0-3.4M2.406 3.68a1.3 1.3 0 0 1 1.3-1.3h3.4a1.3 1.3 0 0 1 1.3 1.3v3.4a1.3 1.3 0 0 1-1.3 1.3h-3.4a1.3 1.3 0 0 1-1.3-1.3v-3.4Zm16.212 11.946a3 3 0 1 0 0 6 3 3 0 0 0 0-6" clip-rule="evenodd"/><path fill="#717681" d="M18.618 10.059a.65.65 0 0 1 .65.65v2.963a.65.65 0 0 1-1.3 0V10.71a.65.65 0 0 1 .65-.65M10.357 4.731a.65.65 0 0 0 0 1.3h2.93a.65.65 0 1 0 0-1.3h-2.93M11.74 17.959l-1.513-1.462a.65.65 0 0 1 .919-.92l2.976 2.572a.65.65 0 0 1 0 .92l-2.968 2.563a.65.65 0 0 1-.92-.92l1.505-1.453H8.41a3.65 3.65 0 0 1-3.65-3.65v-5.277a.65.65 0 0 1 1.3 0v5.277a2.35 2.35 0 0 0 2.35 2.35h3.329"/></svg>