<svg xmlns="http://www.w3.org/2000/svg" fill="none" viewBox="0 0 24 24" focusable="false"><path fill="#717681" fill-rule="evenodd" d="M4 8a3 3 0 0 1 3-3h10a3 3 0 0 1 3 3v6a3 3 0 0 1-3 3H9.522l-3.41 2.728C5.261 20.41 4 19.803 4 18.713zm8.85 5.941a.85.85 0 1 1-1.7 0 .85.85 0 0 1 1.7 0m-1.748-6.773a.65.65 0 1 0 0 1.3h1.89c.266 0 .482.216.482.482 0 .227-.191.516-.57.664-.516.203-1.206.588-1.553 1.31a.65.65 0 0 0 1.171.564c.134-.28.45-.503.858-.664.698-.274 1.394-.945 1.394-1.874 0-.984-.798-1.782-1.782-1.782h-1.89" clip-rule="evenodd"/></svg>