<svg xmlns="http://www.w3.org/2000/svg" fill="none" viewBox="0 0 24 24" focusable="false"><path fill="#717681" fill-rule="evenodd" d="M4 8c0-1.66 1.34-3 3-3h10c1.65 0 3 1.34 3 3v6c0 1.65-1.35 3-3 3H9.52l-3.41 2.72C5.26 20.4 4 19.8 4 18.71zm8.85 5.94a.856.856 0 0 1-1.71 0 .856.856 0 0 1 1.71 0M11.1 7.16c-.36 0-.65.29-.65.65s.29.65.65.65h1.89c.26 0 .48.22.48.49 0 .22-.19.51-.57.66-.52.2-1.21.59-1.55 1.31-.16.32-.02.71.3.87.32.15.71.02.87-.31.13-.28.45-.5.85-.66.7-.28 1.4-.95 1.4-1.87 0-.99-.8-1.79-1.78-1.79z"/></svg>