<svg xmlns="http://www.w3.org/2000/svg" fill="none" viewBox="0 0 24 24" focusable="false"><path fill="#74767B" fill-rule="evenodd" d="M7 5C5.34 5 4 6.34 4 8v10.71c0 1.09 1.26 1.69 2.11 1.01L9.52 17H17c1.65 0 3-1.35 3-3V8c0-1.66-1.35-3-3-3zm2.06 10.7-3.77 3.01V8c0-.94.77-1.7 1.71-1.7h10c.93 0 1.7.76 1.7 1.7v6c0 .93-.77 1.7-1.7 1.7zm2.18-8.17c-.36 0-.65.29-.65.65s.29.65.65.65h1.49c.13 0 .24.11.24.24 0 .11-.1.29-.36.4-.42.16-1 .48-1.3 1.1-.16.32-.02.71.3.87.33.15.71.02.87-.31.08-.17.29-.33.6-.45.59-.23 1.19-.8 1.19-1.61 0-.85-.69-1.54-1.54-1.54zm1.43 6.06c0 .46-.38.85-.85.85s-.85-.39-.85-.85a.85.85 0 1 1 1.7 0"/></svg>