<svg xmlns="http://www.w3.org/2000/svg" fill="none" viewBox="0 0 24 24" focusable="false"><path fill="#717681" d="M12.673 13.59a.85.85 0 1 1-1.7 0 .85.85 0 0 1 1.7 0M11.242 7.534a.65.65 0 1 0 0 1.3h1.49c.134 0 .242.109.242.242 0 .105-.097.292-.361.396-.419.164-1.002.485-1.299 1.1a.65.65 0 1 0 1.171.565c.084-.174.292-.333.603-.455.584-.23 1.186-.799 1.186-1.606 0-.851-.69-1.542-1.542-1.542h-1.49"/><path fill="#717681" fill-rule="evenodd" d="M4 8a3 3 0 0 1 3-3h10a3 3 0 0 1 3 3v6a3 3 0 0 1-3 3H9.522l-3.41 2.728C5.261 20.41 4 19.803 4 18.713zm1.3 10.713L9.066 15.7H17a1.7 1.7 0 0 0 1.7-1.7V8A1.7 1.7 0 0 0 17 6.3H7A1.7 1.7 0 0 0 5.3 8v10.713" clip-rule="evenodd"/></svg>