<svg xmlns="http://www.w3.org/2000/svg" fill="none" viewBox="0 0 24 24" focusable="false"><defs><clipPath id="Shop_cart_Outline_svg__a"><path fill="#fff" fill-opacity="0" d="M0 0h24v24H0z"/></clipPath></defs><g clip-path="url(#Shop_cart_Outline_svg__a)"><path fill="#74767B" fill-rule="evenodd" d="M2.35 3.99c0-.35.29-.65.65-.65h.93c1.22 0 2.28.83 2.57 2.01L7 7.34h13c.2 0 .4.1.52.27s.16.38.1.58l-2.07 6.6a2.65 2.65 0 0 1-2.53 1.86h-5.96c-1.22 0-2.28-.83-2.57-2.01L5.24 5.67c-.15-.6-.69-1.03-1.31-1.03H3c-.36 0-.65-.29-.65-.65m4.98 4.65 1.42 5.68c.15.6.69 1.03 1.31 1.03h5.96c.6 0 1.12-.39 1.29-.95l1.8-5.76zM7.35 19c0-.92.73-1.65 1.65-1.65.91 0 1.64.73 1.64 1.65a1.645 1.645 0 1 1-3.29 0m8 0c0-.92.73-1.65 1.65-1.65.91 0 1.64.73 1.64 1.65a1.645 1.645 0 1 1-3.29 0"/></g></svg>