<svg xmlns="http://www.w3.org/2000/svg" fill="none" viewBox="0 0 24 24" focusable="false"><path d="M0 0H24V24H0z"/><path fill="#74767B" fill-rule="evenodd" d="M3.0001 3.34998C2.64111 3.34998 2.3501 3.64099 2.3501 3.99998C2.3501 4.35896 2.64111 4.64998 3.0001 4.64998L3.93854 4.64998C4.55802 4.64998 5.09799 5.07158 5.24824 5.67255L7.49077 14.6427C7.7857 15.8224 8.84565 16.65 10.0617 16.65L16.0297 16.65C17.1888 16.65 18.2134 15.8967 18.5591 14.7904L20.6205 8.19385C20.6822 7.99649 20.6463 7.78156 20.5238 7.61496C20.4013 7.44836 20.2069 7.34998 20.0001 7.34998L7.0076 7.34998L6.50942 5.35726C6.2145 4.17756 5.15454 3.34998 3.93854 3.34998L3.0001 3.34998ZM8.75196 14.3274L7.3326 8.64998L19.116 8.64998L17.3183 14.4026C17.1421 14.9662 16.6202 15.35 16.0297 15.35L10.0617 15.35C9.44218 15.35 8.9022 14.9284 8.75196 14.3274ZM7.3501 19C7.3501 18.0887 8.08883 17.35 9.0001 17.35C9.91137 17.35 10.6501 18.0887 10.6501 19C10.6501 19.9112 9.91137 20.65 9.0001 20.65C8.08883 20.65 7.3501 19.9112 7.3501 19ZM15.3501 19C15.3501 18.0887 16.0888 17.35 17.0001 17.35C17.9114 17.35 18.6501 18.0887 18.6501 19C18.6501 19.9112 17.9114 20.65 17.0001 20.65C16.0888 20.65 15.3501 19.9112 15.3501 19Z"/></svg>