<svg xmlns="http://www.w3.org/2000/svg" fill="none" viewBox="0 0 24 24" focusable="false"><path d="M0 0H24V24H0z"/><path fill="#74767B" fill-rule="evenodd" d="M7.52503 4L16.4744 4C17.845 4 18.9801 5.06387 19.069 6.43152L19.9001 17.2315C19.9975 18.7306 18.8078 20 17.3056 20L6.69386 20C5.19163 20 4.00198 18.7306 4.09933 17.2315L4.93049 6.43152C5.0193 5.06387 6.1545 4 7.52503 4ZM7.52503 5.3L16.4744 5.3C17.1597 5.3 17.7273 5.83193 17.7717 6.51576L18.6029 17.3157C18.6515 18.0653 18.0567 18.7 17.3056 18.7L6.69386 18.7C5.94275 18.7 5.34792 18.0653 5.39659 17.3157L6.22776 6.51576C6.27217 5.83193 6.83976 5.3 7.52503 5.3ZM9.64973 7.65C9.64973 7.29101 9.35872 7 8.99973 7C8.64075 7 8.34973 7.29101 8.34973 7.65L8.34973 9.6247L8.34973 9.62611L8.34974 9.62781L8.34976 9.63203L8.34991 9.64379C8.35006 9.65307 8.35033 9.66522 8.35082 9.68005C8.35181 9.70969 8.35369 9.75015 8.35724 9.79992C8.36434 9.89923 8.37821 10.0369 8.40545 10.2003C8.45942 10.5241 8.56857 10.9658 8.79335 11.4154C9.01941 11.8675 9.3687 12.3394 9.9048 12.6968C10.445 13.0569 11.136 13.2747 11.9997 13.2747C12.8635 13.2747 13.5545 13.0569 14.0947 12.6968C14.6308 12.3394 14.9801 11.8675 15.2061 11.4154C15.4309 10.9658 15.54 10.5241 15.594 10.2003C15.6213 10.0369 15.6351 9.89923 15.6422 9.79992C15.6458 9.75015 15.6477 9.70969 15.6486 9.68005C15.6491 9.66522 15.6494 9.65307 15.6496 9.64379L15.6497 9.63203L15.6497 9.62781L15.6497 9.62611L15.6497 9.6247L15.6497 7.65C15.6497 7.29101 15.3587 7 14.9997 7C14.6407 7 14.3497 7.29101 14.3497 7.65L14.3497 9.62282L14.3494 9.63674C14.3489 9.65104 14.3478 9.67503 14.3455 9.7073C14.3409 9.77205 14.3313 9.86879 14.3117 9.98659C14.2719 10.2253 14.1936 10.5336 14.0434 10.834C13.8944 11.1319 13.6812 11.41 13.3736 11.6151C13.07 11.8175 12.636 11.9747 11.9997 11.9747C11.3635 11.9747 10.9295 11.8175 10.6259 11.6151C10.3183 11.41 10.1051 11.1319 9.95611 10.834C9.80589 10.5336 9.72754 10.2253 9.68776 9.98659C9.66813 9.86879 9.65856 9.77205 9.65394 9.7073C9.65163 9.67503 9.65058 9.65104 9.6501 9.63674L9.64973 9.62237L9.64973 7.65Z"/></svg>