<svg xmlns="http://www.w3.org/2000/svg" fill="none" viewBox="0 0 24 24" focusable="false"><defs><clipPath id="Shopping_bag_Solid_svg__a"><path fill="#fff" fill-opacity="0" d="M0 0h24v24H0z"/></clipPath></defs><g clip-path="url(#Shopping_bag_Solid_svg__a)"><path fill="#717681" fill-rule="evenodd" d="M7.52 4h8.95c1.37 0 2.51 1.06 2.59 2.43l.84 10.8A2.61 2.61 0 0 1 17.3 20H6.69a2.61 2.61 0 0 1-2.6-2.77l.84-10.8A2.594 2.594 0 0 1 7.52 4m2.09 3.64c0-.35-.29-.64-.65-.64-.35 0-.65.29-.65.64v2c0 .01.01.02.01.04v.11c.01.1.02.24.05.41.05.32.16.76.39 1.21.22.45.57.92 1.11 1.28s1.23.58 2.09.58c.87 0 1.56-.22 2.1-.58s.89-.83 1.11-1.28c.23-.45.33-.89.39-1.21.03-.17.04-.31.05-.41V7.64c0-.35-.29-.64-.65-.64-.35 0-.65.29-.65.64V9.7a3.058 3.058 0 0 1-.3 1.13c-.15.3-.36.58-.67.78-.3.2-.74.36-1.38.36-.63 0-1.07-.16-1.37-.36-.31-.2-.52-.48-.67-.78a3.1 3.1 0 0 1-.3-1.13v-.07l-.01-.01z"/></g></svg>