<svg xmlns="http://www.w3.org/2000/svg" fill="none" viewBox="0 0 24 24" focusable="false"><path fill="#717681" fill-rule="evenodd" d="M2.35 4A.65.65 0 0 1 3 3.35h.939a2.65 2.65 0 0 1 2.57 2.007l.499 1.993H20a.65.65 0 0 1 .62.844l-2.06 6.596a2.65 2.65 0 0 1-2.53 1.86h-5.968a2.65 2.65 0 0 1-2.571-2.007l-2.243-8.97a1.35 1.35 0 0 0-1.31-1.023H3A.65.65 0 0 1 2.35 4m4.983 4.65 1.419 5.677a1.35 1.35 0 0 0 1.31 1.023h5.968a1.35 1.35 0 0 0 1.288-.947l1.798-5.753zM7.35 19a1.65 1.65 0 1 1 3.3 0 1.65 1.65 0 0 1-3.3 0M17 17.35a1.65 1.65 0 1 0 0 3.3 1.65 1.65 0 0 0 0-3.3" clip-rule="evenodd"/></svg>