<svg xmlns="http://www.w3.org/2000/svg" fill="none" viewBox="0 0 24 24" focusable="false"><path fill="#717681" fill-rule="evenodd" d="M3 3.34c-.36 0-.65.3-.65.65 0 .36.29.65.65.65h.93c.62 0 1.16.43 1.31 1.03l2.25 8.97a2.64 2.64 0 0 0 2.57 2.01h5.96c1.16 0 2.19-.76 2.53-1.86l2.07-6.6c.06-.2.02-.41-.1-.58a.65.65 0 0 0-.52-.27H7l-.5-1.99a2.64 2.64 0 0 0-2.57-2.01zM7.35 19c0-.92.73-1.65 1.65-1.65.91 0 1.64.73 1.64 1.65a1.645 1.645 0 1 1-3.29 0M17 17.35c-.92 0-1.65.73-1.65 1.65a1.645 1.645 0 1 0 3.29 0c0-.92-.73-1.65-1.64-1.65"/></svg>