<svg xmlns="http://www.w3.org/2000/svg" fill="none" viewBox="0 0 24 24" focusable="false"><defs><clipPath id="Show_Table_Solid_svg__a"><path fill="#fff" fill-opacity="0" d="M0 0h24v24H0z"/></clipPath></defs><g clip-path="url(#Show_Table_Solid_svg__a)"><path fill="#717681" fill-rule="evenodd" d="M3 7c0-1.66 1.34-3 3-3h12c1.65 0 3 1.34 3 3v.64c0 .39-.32.71-.71.71H3.7c-.39 0-.7-.32-.7-.71zm4.85 2.64H3.7c-.39 0-.7.32-.7.71V17c0 1.65 1.34 3 3 3h1.85c.38 0 .69-.32.69-.71v-8.94c0-.39-.31-.71-.69-.71m2.69 0h2.91c.38 0 .69.32.69.71v8.94c0 .39-.31.71-.69.71h-2.91c-.38 0-.69-.32-.69-.71v-8.94c0-.39.31-.71.69-.71m4.91.71v8.94c0 .39.31.71.69.71H18c1.65 0 3-1.35 3-3v-6.65c0-.39-.32-.71-.71-.71h-4.15c-.38 0-.69.32-.69.71"/></g></svg>