<svg xmlns="http://www.w3.org/2000/svg" fill="none" viewBox="0 0 24 24" focusable="false"><path fill="#717681" fill-rule="evenodd" d="M2 5c0-1.66 1.34-3 3-3h14c1.65 0 3 1.34 3 3v14c0 1.65-1.35 3-3 3H5c-1.66 0-3-1.35-3-3zm13.33 11.28c-.18 0-.35-.07-.48-.21a.66.66 0 0 1 .04-.92l3.5-3.14-3.49-3.02a.65.65 0 0 1-.04-.92c.24-.26.65-.28.92-.04l3.98 3.46c.31.28.31.76 0 1.04l-3.99 3.58c-.13.12-.28.17-.44.17M9.17 7.99a.65.65 0 0 0-.48-.21c-.16 0-.31.05-.44.17l-3.98 3.59c-.31.28-.31.76 0 1.04l3.98 3.46c.27.24.68.22.92-.04a.65.65 0 0 0-.04-.92l-3.49-3.02 3.49-3.15c.26-.24.28-.65.04-.92"/></svg>