<svg xmlns="http://www.w3.org/2000/svg" fill="none" viewBox="0 0 24 24" focusable="false"><path fill="#74767B" fill-rule="evenodd" d="M6.1 3.99c-.55 0-1.04.35-1.23.87L3.24 9.53l-.01.35C3.43 11.13 4.41 12 5.7 12c1.02 0 2.2-.9 2.39-1.59.16.7.84 1.62 1.98 1.62 1.15 0 1.76-.92 1.9-1.62.18.69 1.03 1.62 1.96 1.62 1 0 1.79-.84 1.92-1.62.19.77 1.55 1.58 2.6 1.58s2.11-.74 2.31-2.11l-.01-.35-1.63-4.67c-.19-.52-.68-.87-1.23-.87zM5 13.95c0-.37.33-.65.7-.65.76 0 1.44-.24 1.99-.58.16-.09.36-.08.51.02.49.36 1.12.59 1.87.59.68 0 1.24-.19 1.7-.48.15-.09.35-.1.5 0 .46.28 1.02.48 1.66.48.73 0 1.36-.26 1.84-.61.15-.11.34-.12.5-.03.66.38 1.42.6 2.18.6.29 0 .55.22.55.51v5.9c0 .71-.59 1.3-1.3 1.3h-2.41c-.71 0-1.29-.59-1.29-1.3v-2.43c0-.72-.59-1.3-1.3-1.3h-1.41c-.71 0-1.29.58-1.29 1.3v2.43c0 .71-.59 1.29-1.3 1.3H6.29C5.58 21 5 20.41 5 19.7z"/></svg>