<svg xmlns="http://www.w3.org/2000/svg" fill="none" viewBox="0 0 24 24" focusable="false"><defs><clipPath id="Store_Outline_svg__a"><path fill="#fff" fill-opacity="0" d="M0 0h24v24H0z"/></clipPath></defs><g clip-path="url(#Store_Outline_svg__a)"><path fill="#717681" fill-rule="evenodd" d="M4.87 4.86c.19-.52.68-.87 1.23-.87h11.79c.55 0 1.04.35 1.23.87l1.63 4.67.01.35c-.28.99-.97 1.64-1.76 1.93v7.89c0 .71-.59 1.3-1.3 1.3h-3.22c-.71 0-1.3-.59-1.3-1.3v-4.45h-2.37v4.45c0 .71-.59 1.29-1.3 1.3H6.29C5.58 21 5 20.41 5 19.7v-7.88c-.8-.3-1.49-.94-1.77-1.94l.01-.35zm1.42 7.12v7.72h3.22v-4.45c0-.71.58-1.3 1.3-1.3h2.37c.72 0 1.3.59 1.3 1.3v4.45h3.22v-7.72c-.65-.07-1.29-.35-1.76-.85-.52.6-1.28.9-2.01.9-.66 0-1.34-.24-1.83-.72h-.2c-.5.48-1.17.72-1.83.72-.73 0-1.49-.3-2-.9-.48.51-1.12.79-1.78.85m7.64-1.25c-.62 0-1.18-.36-1.29-1.09V5.29h1.9l.69 4.44c-.16.67-.71 1-1.3 1m2.59-1.17h.01c.18.76.79 1.13 1.45 1.13.62 0 1.22-.33 1.47-.99l-1.62-4.41h-1.97zM6.16 5.29h1.96l-.66 4.34c-.21.72-.81 1.07-1.45 1.07-.62 0-1.22-.34-1.47-1zm2.61 4.39.66-4.39h1.92v4.39c-.13.7-.68 1.05-1.28 1.05s-1.16-.35-1.3-1.05"/></g></svg>