<svg xmlns="http://www.w3.org/2000/svg" fill="none" viewBox="0 0 24 24" focusable="false"><defs><clipPath id="Strim_Outline_svg__a"><path fill="#fff" fill-opacity="0" d="M0 0h24v24H0z"/></clipPath></defs><g clip-path="url(#Strim_Outline_svg__a)"><path fill="#74767B" fill-rule="evenodd" d="M19.62 13.9c.05-.34.08-.7.08-1.06 0-3.2-2-5.94-4.82-7.08C14.83 4.23 13.56 3 11.99 3 10.43 3 9.15 4.23 9.1 5.76 6.28 6.9 4.29 9.64 4.29 12.84c0 .36.02.72.07 1.06-.82.51-1.36 1.41-1.36 2.44 0 1.58 1.29 2.86 2.89 2.86.49 0 .95-.12 1.36-.34a7.7 7.7 0 0 0 4.74 1.62c1.79 0 3.44-.6 4.75-1.62.4.22.87.34 1.36.34 1.6 0 2.89-1.28 2.89-2.86 0-1.03-.55-1.93-1.37-2.44m-6.04-8.04c0 .85-.7 1.56-1.59 1.56s-1.59-.71-1.59-1.56.7-1.57 1.59-1.57 1.59.72 1.59 1.57m1.04 1.2c-.46.98-1.46 1.66-2.63 1.66-1.16 0-2.16-.68-2.62-1.66-2.23.99-3.78 3.21-3.78 5.78 0 .22.01.43.03.65.09-.01.18-.02.27-.02 1.59 0 2.89 1.29 2.89 2.87 0 .61-.2 1.18-.53 1.65 1.05.75 2.34 1.19 3.74 1.19s2.69-.44 3.75-1.19a2.87 2.87 0 0 1-.53-1.65 2.88 2.88 0 0 1 2.89-2.87c.09 0 .18.01.26.02.03-.22.04-.43.04-.65 0-2.57-1.55-4.79-3.78-5.78M5.89 17.9c.89 0 1.59-.71 1.59-1.56s-.7-1.57-1.59-1.57-1.59.72-1.59 1.57.7 1.56 1.59 1.56m13.8-1.56c0 .85-.7 1.56-1.59 1.56s-1.59-.71-1.59-1.56.7-1.57 1.59-1.57 1.59.72 1.59 1.57"/></g></svg>