<svg xmlns="http://www.w3.org/2000/svg" fill="none" viewBox="0 0 24 24" focusable="false"><path fill="#717681" fill-rule="evenodd" d="M19.628 13.908q.074-.52.074-1.059c0-3.208-1.994-5.948-4.814-7.08C14.838 4.23 13.563 3 11.998 3 10.435 3 9.16 4.231 9.11 5.768 6.29 6.9 4.295 9.641 4.295 12.85q0 .54.073 1.059A2.86 2.86 0 0 0 3 16.342c0 1.581 1.294 2.863 2.89 2.863a2.9 2.9 0 0 0 1.365-.338 7.7 7.7 0 0 0 4.743 1.618 7.7 7.7 0 0 0 4.743-1.619 2.9 2.9 0 0 0 1.365.34c1.596 0 2.89-1.283 2.89-2.864 0-1.028-.546-1.93-1.368-2.434m-5.006-6.84a2.89 2.89 0 0 1-2.623 1.658 2.89 2.89 0 0 1-2.624-1.659c-2.23.992-3.78 3.21-3.78 5.782q0 .325.032.642a3 3 0 0 1 .264-.012c1.596 0 2.89 1.282 2.89 2.863 0 .614-.195 1.182-.526 1.648a6.4 6.4 0 0 0 3.743 1.195 6.4 6.4 0 0 0 3.744-1.195 2.83 2.83 0 0 1-.527-1.648c0-1.581 1.294-2.863 2.891-2.863q.134 0 .263.012.033-.317.033-.642c0-2.57-1.55-4.79-3.78-5.782" clip-rule="evenodd"/></svg>