<svg xmlns="http://www.w3.org/2000/svg" fill="none" viewBox="0 0 24 24" focusable="false"><path fill="#717681" fill-rule="evenodd" d="M19.628 13.908c.049-.346.074-.7.074-1.059 0-3.208-1.994-5.948-4.814-7.08C14.838 4.23 13.563 3 11.998 3 10.435 3 9.16 4.231 9.11 5.768 6.29 6.9 4.295 9.641 4.295 12.85c0 .36.025.713.073 1.059A2.855 2.855 0 0 0 3 16.342c0 1.581 1.294 2.863 2.89 2.863a2.9 2.9 0 0 0 1.365-.338 7.716 7.716 0 0 0 4.743 1.618 7.716 7.716 0 0 0 4.743-1.619 2.9 2.9 0 0 0 1.365.34c1.596 0 2.89-1.283 2.89-2.864 0-1.028-.546-1.93-1.368-2.434m-5.006-6.84a2.893 2.893 0 0 1-2.623 1.658 2.893 2.893 0 0 1-2.624-1.659c-2.23.992-3.78 3.21-3.78 5.782 0 .217.01.43.032.642a2.94 2.94 0 0 1 .264-.012c1.596 0 2.89 1.282 2.89 2.863 0 .614-.195 1.182-.526 1.648a6.418 6.418 0 0 0 3.743 1.195 6.418 6.418 0 0 0 3.744-1.195 2.831 2.831 0 0 1-.527-1.648c0-1.581 1.294-2.863 2.891-2.863.089 0 .177.004.263.012.022-.211.033-.425.033-.642 0-2.57-1.55-4.79-3.78-5.782" clip-rule="evenodd"/></svg>