<svg xmlns="http://www.w3.org/2000/svg" fill="none" viewBox="0 0 24 24" focusable="false"><path fill="#717681" fill-rule="evenodd" d="M19.628 13.908q.074-.52.074-1.06c0-3.207-1.994-5.948-4.815-7.08C14.837 4.231 13.562 3 11.998 3S9.16 4.231 9.11 5.768c-2.82 1.132-4.814 3.873-4.814 7.08q0 .54.073 1.06A2.86 2.86 0 0 0 3 16.342c0 1.581 1.294 2.863 2.89 2.863a2.9 2.9 0 0 0 1.366-.339 7.7 7.7 0 0 0 4.742 1.619 7.7 7.7 0 0 0 4.743-1.619 2.9 2.9 0 0 0 1.365.339c1.596 0 2.89-1.282 2.89-2.863 0-1.028-.546-1.93-1.368-2.434m-6.04-8.045c0 .851-.7 1.563-1.59 1.563s-1.59-.711-1.59-1.563c0-.851.7-1.563 1.59-1.563s1.59.712 1.59 1.563m1.034 1.204a2.89 2.89 0 0 1-2.624 1.659 2.89 2.89 0 0 1-2.623-1.659c-2.23.992-3.78 3.21-3.78 5.782q0 .324.032.642.13-.012.264-.012c1.596 0 2.89 1.282 2.89 2.863 0 .614-.195 1.182-.526 1.648a6.4 6.4 0 0 0 3.743 1.195 6.4 6.4 0 0 0 3.744-1.195 2.83 2.83 0 0 1-.527-1.648c0-1.581 1.294-2.863 2.891-2.863q.134 0 .263.012.033-.317.033-.642c0-2.571-1.55-4.79-3.78-5.782M5.89 17.905c.89 0 1.59-.712 1.59-1.563s-.7-1.563-1.59-1.563-1.591.712-1.591 1.563c0 .852.7 1.563 1.59 1.563m13.806-1.563c0 .852-.7 1.563-1.591 1.563-.89 0-1.59-.712-1.59-1.563s.7-1.563 1.59-1.563 1.59.712 1.59 1.563" clip-rule="evenodd"/></svg>