<svg xmlns="http://www.w3.org/2000/svg" fill="none" viewBox="0 0 24 24" focusable="false"><path d="M0 0H24V24H0z"/><path fill="#74767B" fill-rule="evenodd" d="M2.71715 10.2408C1.78213 9.76145 1.77266 8.42837 2.70078 7.93574L10.5933 3.74656C11.4728 3.27971 12.5267 3.27971 13.4063 3.74656L21.2988 7.93574C21.6788 8.13747 21.9017 8.48014 21.9681 8.84741C21.9887 8.91071 21.9998 8.97828 21.9998 9.04844L22.0279 15.3469C22.0279 15.7059 21.7369 15.9969 21.3779 15.9969C21.0189 15.9969 20.7279 15.7059 20.7279 15.3469L20.7064 10.5361L13.3685 14.2983C12.5092 14.7388 11.4904 14.7388 10.6311 14.2983L2.71715 10.2408ZM5.76664 13.2651C5.56701 13.1628 5.32977 13.3078 5.32977 13.5321L5.32977 15.8656C5.32977 16.7695 5.73039 17.627 6.42371 18.207C9.63932 20.8971 14.3202 20.8971 17.5358 18.207C18.2292 17.627 18.6298 16.7695 18.6298 15.8656L18.6298 13.5526C18.6298 13.3283 18.3925 13.1833 18.1929 13.2857L13.9616 15.4551C12.7299 16.0865 11.2696 16.0865 10.038 15.4551L5.76664 13.2651Z"/></svg>