<svg xmlns="http://www.w3.org/2000/svg" fill="none" viewBox="0 0 24 24" focusable="false"><path fill="#717681" d="M2.717 10.24a1.3 1.3 0 0 1-.016-2.304l7.892-4.19a3 3 0 0 1 2.813 0l7.893 4.19c.38.201.603.544.67.911q.03.096.03.201l.029 6.299a.65.65 0 1 1-1.3 0l-.022-4.81-7.337 3.761a3 3 0 0 1-2.738 0z"/><path fill="#717681" d="M5.33 13.532a.3.3 0 0 1 .437-.267l4.271 2.19a4.3 4.3 0 0 0 3.924 0l4.23-2.17a.3.3 0 0 1 .438.268v2.313c0 .904-.4 1.761-1.094 2.341a8.66 8.66 0 0 1-11.112 0 3.05 3.05 0 0 1-1.094-2.341z"/></svg>