<svg xmlns="http://www.w3.org/2000/svg" fill="none" viewBox="0 0 24 24" focusable="false"><defs><clipPath id="Study_Solid_svg__a"><path fill="#fff" fill-opacity="0" d="M0 0h24v24H0z"/></clipPath></defs><g clip-path="url(#Study_Solid_svg__a)"><path fill="#74767B" fill-rule="evenodd" d="M2.7 7.93c-.93.49-.92 1.83.01 2.31l7.92 4.05c.86.44 1.87.44 2.73 0l7.34-3.76.02 4.81c0 .36.29.65.65.65s.65-.29.65-.65L22 9.04c0-.07-.02-.13-.04-.2-.06-.36-.29-.71-.67-.91L13.4 3.74c-.88-.47-1.93-.47-2.81 0zm3.06 5.33c-.2-.1-.44.04-.44.27v2.33c0 .9.41 1.76 1.1 2.34a8.656 8.656 0 0 0 11.11 0c.69-.58 1.09-1.44 1.09-2.34v-2.31c0-.23-.23-.37-.43-.27l-4.23 2.17c-1.23.63-2.7.63-3.93 0z"/></g></svg>