<svg xmlns="http://www.w3.org/2000/svg" fill="none" viewBox="0 0 24 24" focusable="false"><path fill="#717681" fill-rule="evenodd" d="M2.717 10.24a1.3 1.3 0 0 1-.016-2.304l7.892-4.19a3 3 0 0 1 2.813 0l7.893 4.19c.38.201.603.544.67.911q.03.096.03.201l.029 6.299a.65.65 0 1 1-1.3 0l-.022-4.81L18.63 11.6v4.265c0 .904-.4 1.761-1.094 2.341a8.66 8.66 0 0 1-11.112 0 3.05 3.05 0 0 1-1.094-2.341V11.58zm.593-1.156 7.893-4.19a1.7 1.7 0 0 1 1.594 0l7.892 4.19-7.914 4.058a1.7 1.7 0 0 1-1.55 0zm3.32 3.163v3.619c0 .519.23 1.01.628 1.344a7.36 7.36 0 0 0 9.444 0c.398-.333.628-.825.628-1.344v-3.599l-3.961 2.031a3 3 0 0 1-2.738 0z" clip-rule="evenodd"/></svg>