<svg xmlns="http://www.w3.org/2000/svg" fill="none" viewBox="0 0 24 24" focusable="false"><defs><clipPath id="Tablet_Solid_svg__a"><path fill="#fff" fill-opacity="0" d="M0 0h24v24H0z"/></clipPath></defs><g clip-path="url(#Tablet_Solid_svg__a)"><path fill="#74767B" fill-rule="evenodd" d="M16 3c1.65 0 3 1.34 3 3v12c0 1.65-1.35 3-3 3H8c-1.66 0-3-1.35-3-3V6c0-1.66 1.34-3 3-3zm1.67 15.29H6.32c.14.8.84 1.41 1.68 1.41h8c.83 0 1.53-.61 1.67-1.41M16 4.29c.83 0 1.53.61 1.67 1.4H6.32c.14-.79.84-1.4 1.68-1.4z"/></g></svg>