<svg xmlns="http://www.w3.org/2000/svg" fill="none" viewBox="0 0 24 24" focusable="false"><path d="M0 0H24V24H0z"/><path fill="#74767B" fill-rule="evenodd" d="M19 6C19 4.34315 17.6569 3 16 3L8 3C6.34315 3 5 4.34315 5 6L5 18C5 19.6569 6.34315 21 8 21L16 21C17.6569 21 19 19.6569 19 18L19 6ZM6.32639 18.3L17.6736 18.3C17.5319 19.0958 16.8365 19.7 16 19.7L8 19.7C7.16348 19.7 6.46808 19.0958 6.32639 18.3ZM17.6736 5.69995L6.3264 5.69995C6.46811 4.90417 7.1635 4.3 8 4.3L16 4.3C16.8365 4.3 17.5319 4.90417 17.6736 5.69995ZM17.7 6.99995L17.7 17L6.3 17L6.3 6.99995L17.7 6.99995Z"/></svg>