<svg xmlns="http://www.w3.org/2000/svg" fill="none" viewBox="0 0 24 24" focusable="false"><path fill="#717681" fill-rule="evenodd" d="M19.51 13.42c.21.11.49-.03.49-.28V7c0-1.66-1.35-3-3-3H7C5.34 4 4 5.34 4 7v10c0 1.65 1.34 3 3 3h6.14c.24 0 .39-.28.28-.49-.31-.61-.48-1.31-.48-2.04 0-2.5 2.03-4.53 4.53-4.53.73 0 1.43.17 2.04.48M16 8.49c0-.36-.29-.65-.65-.65H8.67c-.36 0-.65.29-.65.65 0 .35.29.65.65.65h6.68c.36 0 .65-.3.65-.65M12.02 12c0-.36-.29-.65-.65-.65h-2.7c-.36 0-.65.29-.65.65 0 .35.29.65.65.65h2.7c.36 0 .65-.3.65-.65m9.78 8.88-1.64-1.64c.34-.51.53-1.12.53-1.77 0-1.78-1.44-3.23-3.22-3.23-1.79 0-3.23 1.45-3.23 3.23s1.44 3.23 3.23 3.23c.65 0 1.26-.2 1.77-.54l1.64 1.64c.25.25.67.25.92 0 .25-.26.25-.67 0-.92m-4.33-1.48a1.931 1.931 0 0 1 0-3.86c1.06 0 1.92.87 1.92 1.93s-.86 1.93-1.92 1.93"/></svg>