<svg xmlns="http://www.w3.org/2000/svg" fill="none" viewBox="0 0 24 24" focusable="false"><defs><clipPath id="Tester_AT_Solid_svg__a"><path fill="#fff" fill-opacity="0" d="M0 0h24v24H0z"/></clipPath></defs><g clip-path="url(#Tester_AT_Solid_svg__a)"><path fill="#74767B" fill-rule="evenodd" d="M20 13.14c0 .25-.28.39-.49.28-.61-.31-1.31-.48-2.04-.48-.67 0-1.31.14-1.88.4l-3-6.04a.65.65 0 0 0-.6-.36.65.65 0 0 0-.59.36l-4.37 8.81c-.16.33-.03.72.29.88.32.15.71.02.87-.3l1.05-2.12h4.75c-.66.78-1.05 1.79-1.05 2.9 0 .73.17 1.43.48 2.04.11.21-.04.49-.28.49H7c-1.66 0-3-1.35-3-3V7c0-1.66 1.34-3 3-3h10c1.65 0 3 1.34 3 3zm-10.11.13 2.1-4.25 2.11 4.25zm10.27 5.97 1.64 1.64c.25.25.25.66 0 .92-.25.25-.67.25-.92 0l-1.64-1.64c-.51.34-1.12.54-1.77.54-1.79 0-3.23-1.45-3.23-3.23s1.44-3.23 3.23-3.23c1.78 0 3.22 1.45 3.22 3.23 0 .65-.19 1.26-.53 1.77m-4.62-1.77c0 1.06.86 1.93 1.93 1.93 1.06 0 1.92-.87 1.92-1.93s-.86-1.93-1.92-1.93c-1.07 0-1.93.87-1.93 1.93"/></g></svg>