<svg xmlns="http://www.w3.org/2000/svg" width="24" height="24" fill="none"><path fill="#717681" d="M18.576 15.894a.3.3 0 0 1 .424 0l1.098 1.098a.3.3 0 0 1 0 .424l-3.54 3.54a3 3 0 0 1-1.284.76l-.858.25a.3.3 0 0 1-.373-.368l.237-.857a3 3 0 0 1 .77-1.321l3.526-3.526Z"/><path fill="#717681" fill-rule="evenodd" d="M7 4a3 3 0 0 0-3 3v10a3 3 0 0 0 3 3h4.606a1.3 1.3 0 0 0 .919-.38l7.094-7.095a1.3 1.3 0 0 0 .381-.92V7a3 3 0 0 0-3-3H7Zm1.015 3.65a.65.65 0 0 1 .65-.65h6.67a.65.65 0 1 1 0 1.3H12.65v8.084a.65.65 0 1 1-1.3 0V8.3H8.665a.65.65 0 0 1-.65-.65Z" clip-rule="evenodd"/><path fill="#717681" d="M21.375 14.085a.7.7 0 0 0-.99 0l-.7.7a.3.3 0 0 0 0 .425l1.097 1.098a.3.3 0 0 0 .425 0l.7-.701a.7.7 0 0 0 0-.99l-.532-.532Z"/></svg>