<svg xmlns="http://www.w3.org/2000/svg" fill="none" viewBox="0 0 24 24" focusable="false"><defs><clipPath id="Test_Manager_Outline_svg__a"><path fill="#fff" fill-opacity="0" d="M0 0h24v24H0z"/></clipPath></defs><g clip-path="url(#Test_Manager_Outline_svg__a)"><path fill="#74767B" fill-rule="evenodd" d="M19.08 14.12c.41.16.92-.11.92-.55V7c0-1.66-1.35-3-3-3H7C5.34 4 4 5.34 4 7v10c0 1.65 1.34 3 3 3h6.08c.42 0 .69-.46.57-.86a.6.6 0 0 0-.56-.44H7c-.94 0-1.7-.77-1.7-1.7V7c0-.94.76-1.7 1.7-1.7h10c.93 0 1.7.76 1.7 1.7v6.58c0 .24.16.45.38.54M12.02 12c0-.36-.29-.65-.65-.65h-2.7c-.36 0-.65.29-.65.65 0 .35.29.65.65.65h2.7c.36 0 .65-.3.65-.65M16 8.49c0-.36-.29-.65-.65-.65H8.67c-.36 0-.65.29-.65.65 0 .35.29.65.65.65h6.68c.36 0 .65-.3.65-.65m3.83 8.67c.25-.26.24-.67-.02-.92a.66.66 0 0 0-.92.01l-1.72 1.79-1.08-1.02a.65.65 0 0 0-.92.03.64.64 0 0 0 .03.92l1.55 1.45c.26.24.66.24.91-.02z"/></g></svg>