<svg xmlns="http://www.w3.org/2000/svg" fill="none" viewBox="0 0 24 24" focusable="false"><defs><clipPath id="Test_Designer_Solid_svg__a"><path fill="#fff" fill-opacity="0" d="M0 0h24v24H0z"/></clipPath></defs><g clip-path="url(#Test_Designer_Solid_svg__a)"><path fill="#717681" fill-rule="evenodd" d="M7 4C5.34 4 4 5.34 4 7v10c0 1.65 1.34 3 3 3h4.6c.35 0 .68-.14.92-.39l7.09-7.09c.25-.24.39-.57.39-.92V7c0-1.66-1.35-3-3-3zm1.01 3.65c0-.36.29-.65.65-.65h6.67c.36 0 .65.29.65.65 0 .35-.29.65-.65.65h-2.69v8.08c0 .36-.29.65-.64.65-.36 0-.65-.29-.65-.65V8.3H8.66c-.36 0-.65-.3-.65-.65m12.37 6.43c.27-.27.72-.27.99 0l.53.53c.28.28.28.72 0 .99l-.7.7a.29.29 0 0 1-.42 0l-1.1-1.09a.302.302 0 0 1 0-.43zm-1.81 1.81c.12-.12.31-.12.43 0l1.09 1.1c.12.11.12.3 0 .42l-3.54 3.54c-.35.36-.8.62-1.28.76l-.86.25c-.22.07-.43-.14-.37-.37l.24-.85c.13-.5.4-.96.77-1.32z"/></g></svg>