<svg xmlns="http://www.w3.org/2000/svg" fill="none" viewBox="0 0 24 24" focusable="false"><defs><clipPath id="Tester_HT_Outline_svg__a"><path fill="#fff" fill-opacity="0" d="M0 0h24v24H0z"/></clipPath></defs><g clip-path="url(#Tester_HT_Outline_svg__a)"><path fill="#717681" fill-rule="evenodd" d="M19.09 13.24c.41.15.91-.12.91-.56V7c0-1.66-1.35-3-3-3H7C5.34 4 4 5.34 4 7v10c0 1.65 1.34 3 3 3h5.68c.44 0 .71-.5.56-.91a.59.59 0 0 0-.55-.39H7c-.94 0-1.7-.77-1.7-1.7V7c0-.94.76-1.7 1.7-1.7h10c.93 0 1.7.76 1.7 1.7v5.69c0 .25.16.46.39.55m2.71 7.64-1.64-1.64c.34-.51.53-1.12.53-1.77a3.226 3.226 0 0 0-4.71-2.87v-7c0-.36-.29-.65-.65-.65s-.65.29-.65.65v3.39H9.31V7.6c0-.36-.29-.65-.65-.65s-.65.29-.65.65v8.79c0 .36.29.65.65.65s.65-.29.65-.65v-4.1h5.37v3.32c0 .07.01.13.03.19-.3.48-.47 1.06-.47 1.67 0 1.78 1.44 3.23 3.23 3.23.65 0 1.26-.2 1.77-.54l1.64 1.64c.25.25.67.25.92 0 .25-.26.25-.67 0-.92m-4.33-1.48a1.931 1.931 0 0 1 0-3.86c1.06 0 1.92.87 1.92 1.93s-.86 1.93-1.92 1.93"/></g></svg>