<svg xmlns="http://www.w3.org/2000/svg" fill="none" viewBox="0 0 24 24" focusable="false"><path fill="#717681" fill-rule="evenodd" d="m21.804 20.885-1.637-1.637a3.227 3.227 0 1 0-.918.92l1.636 1.636a.65.65 0 1 0 .92-.92m-4.334-1.483a1.927 1.927 0 1 1 0-3.854 1.927 1.927 0 0 1 0 3.854" clip-rule="evenodd"/><path fill="#717681" d="M20 12.688c0 .437-.497.712-.904.555a.598.598 0 0 1-.396-.545V7A1.7 1.7 0 0 0 17 5.3H7A1.7 1.7 0 0 0 5.3 7v10A1.7 1.7 0 0 0 7 18.7h5.698c.244 0 .457.168.544.396.157.408-.117.904-.554.904H7a3 3 0 0 1-3-3V7a3 3 0 0 1 3-3h10a3 3 0 0 1 3 3v5.688"/><path fill="#717681" d="M11.376 11.35a.65.65 0 1 1 0 1.3H8.672a.65.65 0 1 1 0-1.3h2.704M15.357 7.84a.65.65 0 0 1 0 1.3H8.673a.65.65 0 1 1 0-1.3h6.684"/></svg>