<svg xmlns="http://www.w3.org/2000/svg" fill="none" viewBox="0 0 24 24" focusable="false"><path fill="#717681" d="M18.576 15.894a.3.3 0 0 1 .424 0l1.098 1.098a.3.3 0 0 1 0 .424l-3.54 3.54a3 3 0 0 1-1.284.76l-.858.25a.3.3 0 0 1-.373-.368l.237-.857a3 3 0 0 1 .77-1.321zM19.81 12.835a.65.65 0 0 0 .19-.46V7a3 3 0 0 0-3-3H7a3 3 0 0 0-3 3v10a3 3 0 0 0 3 3h5.375a.65.65 0 0 0 0-1.3H7A1.7 1.7 0 0 1 5.3 17V7A1.7 1.7 0 0 1 7 5.3h10A1.7 1.7 0 0 1 18.7 7v5.375c0 .58.7.87 1.11.46"/><path fill="#717681" d="M8.015 7.606a.65.65 0 0 1 .65-.65h6.67a.65.65 0 0 1 0 1.3H12.65v7.143a.65.65 0 0 1-1.3 0V8.256H8.665a.65.65 0 0 1-.65-.65M21.375 14.085a.7.7 0 0 0-.99 0l-.7.7a.3.3 0 0 0 0 .425l1.097 1.098a.3.3 0 0 0 .425 0l.7-.701a.7.7 0 0 0 0-.99l-.532-.532"/></svg>