<svg xmlns="http://www.w3.org/2000/svg" fill="none" viewBox="0 0 24 24" focusable="false"><path fill="#74767B" fill-rule="evenodd" d="M19.0957 13.2428C19.5036 13.3996 20 13.1252 20 12.6882L20 7C20 5.34315 18.6569 4 17 4L7 4C5.34315 4 4 5.34315 4 7L4 17C4 18.6569 5.34315 20 7 20L12.6878 20C13.1248 20 13.3992 19.5036 13.2424 19.0957C13.1547 18.8676 12.9422 18.7 12.6978 18.7L7 18.7C6.06112 18.7 5.3 17.9389 5.3 17L5.3 7C5.3 6.06112 6.06112 5.3 7 5.3L17 5.3C17.9389 5.3 18.7 6.06112 18.7 7L18.7 12.6982C18.7 12.9425 18.8676 13.1551 19.0957 13.2428ZM20.1674 19.2476L21.8043 20.8845C22.0582 21.1383 22.0582 21.5499 21.8044 21.8037C21.5505 22.0576 21.139 22.0576 20.8851 21.8037L19.2494 20.1681C18.7393 20.5058 18.1277 20.7024 17.4701 20.7024C15.6878 20.7024 14.243 19.2576 14.243 17.4753C14.243 16.8619 14.4141 16.2884 14.7112 15.8001C14.6941 15.7419 14.685 15.6803 14.685 15.6165L14.685 12.2992L9.31504 12.2992L9.31504 16.3941C9.31504 16.7531 9.02402 17.0441 8.66504 17.0441C8.30605 17.0441 8.01504 16.7531 8.01504 16.3941L8.01504 7.60589C8.01504 7.24691 8.30605 6.95589 8.66504 6.95589C9.02402 6.95589 9.31504 7.24691 9.31504 7.60589L9.31504 10.9992L14.685 10.9992L14.685 7.60589C14.685 7.24691 14.976 6.95589 15.335 6.95589C15.6939 6.95589 15.985 7.24691 15.985 7.60589L15.985 14.6094C16.4295 14.3786 16.9346 14.2481 17.4701 14.2481C19.2524 14.2481 20.6973 15.693 20.6973 17.4753C20.6973 18.1299 20.5024 18.7389 20.1674 19.2476ZM15.543 17.4753C15.543 18.5396 16.4058 19.4024 17.4701 19.4024C18.5344 19.4024 19.3973 18.5396 19.3973 17.4753C19.3973 16.4109 18.5344 15.5481 17.4701 15.5481C16.4058 15.5481 15.543 16.4109 15.543 17.4753Z"/></svg>