<svg xmlns="http://www.w3.org/2000/svg" fill="none" viewBox="0 0 24 24" focusable="false"><defs><clipPath id="Test_Manager_Solid_svg__a"><path fill="#fff" fill-opacity="0" d="M0 0h24v24H0z"/></clipPath></defs><g clip-path="url(#Test_Manager_Solid_svg__a)"><path fill="#74767B" fill-rule="evenodd" d="M22 17.5c0 2.48-2.02 4.5-4.5 4.5a4.5 4.5 0 1 1 4.5-4.5m-2.19-1.26c.26.25.27.66.02.92l-2.17 2.24c-.25.26-.65.26-.91.02l-1.55-1.45a.64.64 0 0 1-.03-.92c.24-.26.65-.28.92-.03l1.08 1.02 1.72-1.79c.25-.25.67-.26.92-.01m-.25-4.17c.2.08.44-.07.44-.29V7c0-1.66-1.35-3-3-3H7C5.34 4 4 5.34 4 7v10c0 1.65 1.34 3 3 3h4.78c.22 0 .37-.24.29-.44-.24-.64-.37-1.34-.37-2.06 0-3.21 2.59-5.8 5.8-5.8.72 0 1.42.13 2.06.37M12.02 12c0-.36-.29-.65-.65-.65h-2.7c-.36 0-.65.29-.65.65 0 .35.29.65.65.65h2.7c.36 0 .65-.3.65-.65M16 8.49c0-.36-.29-.65-.65-.65H8.67c-.36 0-.65.29-.65.65 0 .35.29.65.65.65h6.68c.36 0 .65-.3.65-.65"/></g></svg>