<svg xmlns="http://www.w3.org/2000/svg" fill="none" viewBox="0 0 24 24" focusable="false"><path fill="#717681" fill-rule="evenodd" d="m20.167 19.248 1.637 1.636a.65.65 0 1 1-.919.92l-1.636-1.636a3.227 3.227 0 0 1-4.538-4.368.65.65 0 0 1-.026-.184V12.3h-5.37v4.095a.65.65 0 1 1-1.3 0V7.606a.65.65 0 0 1 1.3 0v3.393h5.37V7.606a.65.65 0 1 1 1.3 0v7.003a3.227 3.227 0 0 1 4.182 4.638Zm-4.624-1.773a1.927 1.927 0 1 0 3.854 0 1.927 1.927 0 0 0-3.854 0Z" clip-rule="evenodd"/><path fill="#717681" d="M20 12.688c0 .437-.496.712-.904.555a.598.598 0 0 1-.396-.545V7A1.7 1.7 0 0 0 17 5.3H7A1.7 1.7 0 0 0 5.3 7v10A1.7 1.7 0 0 0 7 18.7h5.698c.244 0 .457.168.544.396.157.408-.117.904-.554.904H7a3 3 0 0 1-3-3V7a3 3 0 0 1 3-3h10a3 3 0 0 1 3 3v5.688Z"/></svg>