<svg xmlns="http://www.w3.org/2000/svg" width="24" height="24" fill="none"><path fill="#717681" fill-rule="evenodd" d="M22 17.5a4.5 4.5 0 1 1-9 0 4.5 4.5 0 0 1 9 0Zm-2.182-1.255a.65.65 0 0 1 .015.919l-2.17 2.241a.65.65 0 0 1-.911.022l-1.55-1.455a.65.65 0 0 1 .89-.948l1.082 1.017 1.725-1.782a.65.65 0 0 1 .92-.014Zm-.256-4.168c.207.079.438-.067.438-.288V7a3 3 0 0 0-3-3H7a3 3 0 0 0-3 3v10a3 3 0 0 0 3 3h4.789c.22 0 .367-.231.288-.438a5.8 5.8 0 0 1 7.485-7.485ZM12.027 12a.65.65 0 0 0-.65-.65H8.672a.65.65 0 1 0 0 1.3h2.704a.65.65 0 0 0 .65-.65Zm3.98-3.51a.65.65 0 0 0-.65-.65H8.673a.65.65 0 1 0 0 1.3h6.685a.65.65 0 0 0 .65-.65Z" clip-rule="evenodd"/></svg>