<svg xmlns="http://www.w3.org/2000/svg" width="24" height="24" fill="none"><path fill="#717681" fill-rule="evenodd" d="m20.167 19.248 1.637 1.636a.65.65 0 1 1-.919.92l-1.636-1.636a3.227 3.227 0 1 1 .918-.92Zm-4.624-1.773a1.927 1.927 0 1 0 3.854 0 1.927 1.927 0 0 0-3.854 0Z" clip-rule="evenodd"/><path fill="#717681" d="M20 13.15c0 .24-.272.387-.486.278a4.51 4.51 0 0 0-2.043-.485c-.511 0-1.003.084-1.461.24V7.62a.65.65 0 0 0-1.3 0v3.393H9.34V7.62a.65.65 0 1 0-1.3 0v8.788a.65.65 0 1 0 1.3 0v-4.095h5.37v1.569a4.521 4.521 0 0 0-1.767 3.59c0 .734.175 1.428.485 2.042.109.214-.038.486-.278.486H7a3 3 0 0 1-3-3V7a3 3 0 0 1 3-3h10a3 3 0 0 1 3 3v6.15Z"/></svg>