<svg xmlns="http://www.w3.org/2000/svg" fill="none" viewBox="0 0 24 24" focusable="false"><path fill="#717681" fill-rule="evenodd" d="M20 12.37c0 .17-.07.34-.2.46-.4.41-1.1.12-1.1-.46V7c0-.94-.77-1.7-1.7-1.7H7c-.94 0-1.7.76-1.7 1.7v10c0 .93.76 1.7 1.7 1.7h5.37c.58 0 .87.7.46 1.1-.12.13-.29.2-.46.2H7c-1.66 0-3-1.35-3-3V7c0-1.66 1.34-3 3-3h10c1.65 0 3 1.34 3 3zM8.01 7.6c0-.36.29-.65.65-.65h6.67c.36 0 .65.29.65.65s-.29.65-.65.65h-2.69v7.14c0 .36-.29.65-.64.65-.36 0-.65-.29-.65-.65V8.25H8.66c-.36 0-.65-.29-.65-.65m12.37 6.48c.27-.27.72-.27.99 0l.53.53c.28.28.28.72 0 .99l-.7.7a.29.29 0 0 1-.42 0l-1.1-1.09a.3.3 0 0 1 0-.43zM19 15.89a.3.3 0 0 0-.43 0l-3.52 3.53c-.37.36-.64.82-.77 1.32l-.24.85c-.06.23.15.44.37.37l.86-.25c.48-.14.93-.4 1.28-.76l3.54-3.54a.29.29 0 0 0 0-.42z"/></svg>