<svg xmlns="http://www.w3.org/2000/svg" fill="none" viewBox="0 0 24 24" focusable="false"><defs><clipPath id="Tester_Outline_svg__a"><path fill="#fff" fill-opacity="0" d="M0 0h24v24H0z"/></clipPath></defs><g clip-path="url(#Tester_Outline_svg__a)"><path fill="#74767B" fill-rule="evenodd" d="M19.09 13.24c.41.15.91-.12.91-.56V7c0-1.66-1.35-3-3-3H7C5.34 4 4 5.34 4 7v10c0 1.65 1.34 3 3 3h5.68c.44 0 .71-.5.56-.91a.59.59 0 0 0-.55-.39H7c-.94 0-1.7-.77-1.7-1.7V7c0-.94.76-1.71 1.7-1.71h10c.93 0 1.7.77 1.7 1.71v5.69c0 .25.16.46.39.55M16 8.49c0-.36-.29-.65-.65-.65H8.67c-.36 0-.65.29-.65.65 0 .35.29.65.65.65h6.68c.36 0 .65-.3.65-.65m-4.63 2.86c.36 0 .65.29.65.65 0 .35-.29.65-.65.65h-2.7c-.36 0-.65-.3-.65-.65 0-.36.29-.65.65-.65zm8.79 7.89 1.64 1.64c.25.25.25.66 0 .92-.25.25-.67.25-.92 0l-1.64-1.64c-.51.34-1.12.54-1.77.54-1.79 0-3.23-1.45-3.23-3.23s1.44-3.23 3.23-3.23c1.78 0 3.22 1.45 3.22 3.23 0 .65-.19 1.26-.53 1.77m-4.62-1.77c0 1.06.86 1.93 1.93 1.93 1.06 0 1.92-.87 1.92-1.93s-.86-1.93-1.92-1.93c-1.07 0-1.93.87-1.93 1.93"/></g></svg>