<svg xmlns="http://www.w3.org/2000/svg" fill="none" viewBox="0 0 24 24" focusable="false"><path fill="#717681" fill-rule="evenodd" d="m21.804 20.885-1.637-1.637a3.227 3.227 0 0 0-3.987-4.732l-3.562-7.178-.02.008.02-.01a.65.65 0 0 0-.594-.36.65.65 0 0 0-.595.36l.02.01-.02-.01-4.375 8.817a.65.65 0 1 0 1.164.578l1.055-2.126h5.5l.334.672a3.227 3.227 0 0 0 4.142 4.89l1.636 1.637a.65.65 0 1 0 .92-.92m-7.675-7.58-2.106-4.241-2.105 4.241zm3.341 6.097a1.927 1.927 0 1 1 0-3.854 1.927 1.927 0 0 1 0 3.854" clip-rule="evenodd"/><path fill="#717681" d="M20 12.688c0 .437-.496.712-.904.555a.6.6 0 0 1-.396-.545V7A1.7 1.7 0 0 0 17 5.3H7A1.7 1.7 0 0 0 5.3 7v10A1.7 1.7 0 0 0 7 18.7h5.698c.244 0 .457.168.544.396.157.408-.117.904-.554.904H7a3 3 0 0 1-3-3V7a3 3 0 0 1 3-3h10a3 3 0 0 1 3 3z"/></svg>