<svg xmlns="http://www.w3.org/2000/svg" fill="none" viewBox="0 0 24 24" focusable="false"><path fill="#717681" fill-rule="evenodd" d="M15.05 15.73c2.76-.03 4.95-.46 4.95-3.61 0-2.39-2.81-6.52-4.34-8.6-.49-.67-1.47-.67-1.96 0-.45.61-1.01 1.4-1.58 2.28-.2.3-.12.71.15.96a5.67 5.67 0 0 1 1.83 4.19c0 1.33-.45 2.54-1.2 3.51-.37.47-.18 1.2.41 1.24.14 0 .29.01.44.02v2.03c0 .36.29.65.65.65s.65-.29.65-.65zm-2.24-4.78c0 2.21-1.64 4.04-3.76 4.36v2.44c0 .36-.29.65-.65.65s-.65-.29-.65-.65v-2.44A4.414 4.414 0 0 1 4 10.95a4.4 4.4 0 0 1 4.4-4.4c2.43 0 4.41 1.97 4.41 4.4M4.65 19.7c-.36 0-.65.29-.65.65s.29.65.65.65h14.7c.35 0 .65-.29.65-.65s-.3-.65-.65-.65z"/></svg>