<svg xmlns="http://www.w3.org/2000/svg" fill="none" viewBox="0 0 24 24" focusable="false"><defs><clipPath id="Trees_Outline_svg__a"><path fill="#fff" fill-opacity="0" d="M0 0h24v24H0z"/></clipPath></defs><g clip-path="url(#Trees_Outline_svg__a)"><path fill="#717681" fill-rule="evenodd" d="M20 12.12c0 3.15-2.19 3.58-4.95 3.61v2.02c0 .36-.29.65-.65.65-.36 0-.65-.29-.65-.65v-2.03c-1.35-.05-2.51-.24-3.31-.87-.42.23-.89.38-1.39.46v2.44c0 .36-.29.65-.65.65-.36 0-.65-.29-.65-.65v-2.44A4.414 4.414 0 0 1 4 10.95a4.4 4.4 0 0 1 7.09-3.48c.87-1.51 1.88-2.96 2.61-3.95.49-.67 1.47-.67 1.96 0C17.19 5.6 20 9.73 20 12.12m-7.97-3.67c.84-1.51 1.88-3.02 2.65-4.07.75 1.02 1.76 2.48 2.59 3.96.43.76.79 1.51 1.05 2.18.26.7.38 1.23.38 1.6 0 .67-.13 1.08-.26 1.33-.13.23-.32.41-.59.55-.65.33-1.67.43-3.17.43-1.01 0-1.83-.04-2.48-.19-.26-.06-.47-.13-.64-.22.77-.79 1.25-1.87 1.25-3.07 0-.93-.29-1.79-.78-2.5m-.53 2.5a3.105 3.105 0 1 1-6.21.01 3.105 3.105 0 0 1 6.21-.01M4 20.35c0-.36.29-.65.65-.65h14.7c.35 0 .65.29.65.65 0 .36-.3.65-.65.65H4.65c-.36 0-.65-.29-.65-.65"/></g></svg>