<svg xmlns="http://www.w3.org/2000/svg" fill="none" viewBox="0 0 24 24" focusable="false"><path fill="#74767B" fill-rule="evenodd" d="M20.0004 12.1251C20.0004 15.2723 17.8163 15.7042 15.052 15.735L15.052 17.7515C15.052 18.1105 14.7609 18.4015 14.402 18.4015C14.043 18.4015 13.752 18.1105 13.752 17.7515L13.752 15.734L13.7521 15.722C13.6034 15.7166 13.4569 15.7094 13.3128 15.7001C12.7247 15.6622 12.5389 14.9316 12.9019 14.4674C13.6588 13.4992 14.11 12.2803 14.11 10.956C14.11 9.29915 13.4037 7.80721 12.2758 6.76484C12.0063 6.51569 11.9241 6.10961 12.1243 5.80196C12.6927 4.9286 13.2553 4.13598 13.7077 3.52132C14.1995 2.85311 15.1711 2.85308 15.663 3.52125C17.198 5.60641 20.0004 9.73973 20.0004 12.1251ZM12.8099 10.9561C12.8099 13.168 11.1795 14.9992 9.05488 15.3134L9.05488 17.7519C9.05488 18.1108 8.76387 18.4019 8.40488 18.4019C8.0459 18.4019 7.75488 18.1108 7.75488 17.7519L7.75488 15.3134C5.63033 14.9991 4 13.168 4 10.9561C4 8.52326 5.97217 6.55109 8.40496 6.55109C10.8378 6.55109 12.8099 8.52326 12.8099 10.9561ZM4.65024 19.7017C4.29126 19.7017 4.00024 19.9927 4.00024 20.3517C4.00024 20.7106 4.29126 21.0017 4.65024 21.0017L19.3502 21.0017C19.7092 21.0017 20.0002 20.7106 20.0002 20.3517C20.0002 19.9927 19.7092 19.7017 19.3502 19.7017L4.65024 19.7017Z"/></svg>