<svg xmlns="http://www.w3.org/2000/svg" fill="none" viewBox="0 0 24 24" focusable="false"><defs><clipPath id="Typography_Outline_svg__a"><path fill="#fff" fill-opacity="0" d="M0 0h24v24H0z"/></clipPath></defs><g clip-path="url(#Typography_Outline_svg__a)"><path fill="#74767B" fill-rule="evenodd" d="M4.96 20c-.47 0-.81-.47-.66-.92l4.83-14.6c.1-.29.36-.48.66-.48h4.41c.3 0 .57.19.66.48l4.83 14.6c.15.45-.19.92-.66.92H14.6c-.31 0-.58-.21-.67-.51l-.66-2.3a.3.3 0 0 0-.29-.21h-2.23a.31.31 0 0 0-.29.22l-.64 2.28c-.08.31-.36.52-.67.52zm4.81-4.32c-.14 0-.26.09-.29.22l-.73 2.58c-.03.13-.15.22-.29.22H6.21c-.2 0-.35-.21-.28-.4l4.23-12.8c.04-.12.16-.21.29-.21h3.1c.12 0 .24.09.28.21l4.24 12.8c.06.19-.09.4-.29.4h-2.5a.31.31 0 0 1-.29-.22l-.74-2.59a.31.31 0 0 0-.29-.21zm.48-2.58 1.34-4.64c.08-.29.49-.29.58 0l1.33 4.64c.06.19-.09.38-.29.38h-2.67c-.2 0-.34-.19-.29-.38"/></g></svg>