<svg xmlns="http://www.w3.org/2000/svg" width="24" height="24" fill="none"><path fill="#717681" d="M14.774 7.45a.65.65 0 0 1 0-.919l.717-.717a.65.65 0 1 1 .92.92l-.717.716a.65.65 0 0 1-.92 0ZM16.604 8.361a.65.65 0 0 0 .92.92l.716-.718a.65.65 0 0 0-.919-.919l-.717.717Z"/><path fill="#717681" fill-rule="evenodd" d="M11.594 6.161a1.3 1.3 0 0 0-1.75.08l-6.96 6.96a3 3 0 0 0 0 4.242l3.728 3.727a3 3 0 0 0 4.242 0l6.96-6.959a1.3 1.3 0 0 0 .079-1.75l3.494-3.495a1.3 1.3 0 0 0 0-1.838l-4.46-4.46a1.3 1.3 0 0 0-1.839 0L11.594 6.16Zm-.831 1 6.131 6.131-6.959 6.96a1.7 1.7 0 0 1-2.404 0l-3.727-3.728a1.7 1.7 0 0 1 0-2.404l6.959-6.96Zm5.244-3.574 4.46 4.46-3.46 3.46-4.46-4.46 3.46-3.46Z" clip-rule="evenodd"/></svg>