<svg xmlns="http://www.w3.org/2000/svg" fill="none" viewBox="0 0 24 24" focusable="false"><defs><clipPath id="USB_Outline_svg__a"><path fill="#fff" fill-opacity="0" d="M0 24h24V0H0z"/></clipPath></defs><g clip-path="url(#USB_Outline_svg__a)"><path fill="#717681" fill-rule="evenodd" d="M9.84 6.24c.48-.48 1.24-.51 1.75-.08l3.49-3.5c.51-.51 1.33-.51 1.84 0l4.46 4.46c.51.51.51 1.33 0 1.84l-3.49 3.5c.42.51.4 1.27-.08 1.75l-6.96 6.96a3 3 0 0 1-4.24 0l-3.73-3.73a3 3 0 0 1 0-4.24zm10.62 1.8L16 3.58l-3.46 3.46L17 11.5zm-5.69-.59a.658.658 0 0 1 0-.92l.72-.72c.25-.25.66-.25.92 0 .25.25.25.66 0 .92l-.72.72c-.26.25-.67.25-.92 0m2.12 5.84-6.13-6.13-6.96 6.95c-.67.67-.67 1.75 0 2.41l3.73 3.73c.66.66 1.74.66 2.4 0zm-.29-4.93c-.25.25-.25.66 0 .92.25.25.67.25.92 0l.72-.72c.25-.26.25-.67 0-.92a.658.658 0 0 0-.92 0z"/></g></svg>