<svg xmlns="http://www.w3.org/2000/svg" fill="none" viewBox="0 0 24 24" focusable="false"><defs><clipPath id="USB_Solid_svg__a"><path fill="#fff" fill-opacity="0" d="M0 24h24V0H0z"/></clipPath></defs><g clip-path="url(#USB_Solid_svg__a)"><path fill="#74767B" fill-rule="evenodd" d="M12.1 5.65c-.27.27-.27.71 0 .99l5.31 5.31c.27.27.71.27.99 0l2.98-2.99c.51-.51.51-1.33 0-1.84l-4.46-4.46c-.51-.51-1.33-.51-1.84 0zm3.12.43c-.25.25-.25.66 0 .92.25.25.67.25.92 0l.72-.72c.25-.26.25-.67 0-.92a.66.66 0 0 0-.92 0zM8.93 7.14c.51-.5 1.33-.5 1.84 0l6.13 6.14c.51.5.51 1.33 0 1.83l-6.05 6.06a3 3 0 0 1-4.24 0l-3.73-3.73a3 3 0 0 1 0-4.24zm8.12 1.69a.66.66 0 0 1 0-.92l.72-.72c.25-.25.66-.25.92 0 .25.25.25.66 0 .92l-.72.72c-.26.25-.67.25-.92 0"/></g></svg>