<svg xmlns="http://www.w3.org/2000/svg" fill="none" viewBox="0 0 24 24" focusable="false"><path fill="#717681" d="M10.775 7.149a1.3 1.3 0 0 0-1.839 0L2.885 13.2a3 3 0 0 0 0 4.242l3.727 3.727a3 3 0 0 0 4.242 0l6.052-6.051a1.3 1.3 0 0 0 0-1.839L10.775 7.15"/><path fill="#717681" fill-rule="evenodd" d="M12.103 6.643a.7.7 0 0 1 0-.99l2.986-2.986a1.3 1.3 0 0 1 1.838 0l4.46 4.46a1.3 1.3 0 0 1 0 1.84l-2.985 2.984a.7.7 0 0 1-.99 0l-5.309-5.308M15.225 7a.65.65 0 0 1 0-.919l.716-.717a.65.65 0 1 1 .92.92L16.144 7a.65.65 0 0 1-.92 0m1.83.911a.65.65 0 1 0 .919.92l.716-.718a.65.65 0 1 0-.919-.919l-.717.717" clip-rule="evenodd"/></svg>