<svg xmlns="http://www.w3.org/2000/svg" fill="none" viewBox="0 0 24 24" focusable="false"><defs><clipPath id="Utensils_Outline_svg__a"><path fill="#fff" fill-opacity="0" d="M0 0h24v24H0z"/></clipPath></defs><g clip-path="url(#Utensils_Outline_svg__a)"><path fill="#717681" fill-rule="evenodd" d="M8.28 2.98c-.36 0-.65.29-.65.65v2.39a.647.647 0 0 1-1.29.07V3.63c0-.36-.29-.65-.65-.65s-.65.29-.65.65v4.58c0 1.01.46 1.97 1.25 2.6.13.1.2.27.19.43L6 18.61c-.09 1.33.96 2.45 2.29 2.45s2.38-1.13 2.29-2.45l-.49-7.37c-.01-.16.06-.33.19-.43.79-.63 1.25-1.59 1.25-2.6V3.63c0-.36-.29-.65-.65-.65s-.65.29-.65.65v2.39c-.01.36-.29.64-.65.64s-.65-.29-.65-.64V3.63c0-.36-.29-.65-.64-.65zm1.95 4.87a1.97 1.97 0 0 1-1.95-.38 1.956 1.956 0 0 1-1.94.38v.36c0 .62.28 1.2.76 1.59.46.36.72.94.68 1.53L7.3 18.7c-.04.57.42 1.06.99 1.06a.99.99 0 0 0 .99-1.06l-.49-7.37c-.04-.59.22-1.17.68-1.54.48-.38.76-.96.76-1.58zm3.09-3.13c0-.96.78-1.74 1.75-1.74.75 0 1.41.47 1.65 1.18l2.19 6.52c.37 1.08-.14 2.26-1.17 2.75-.4.18-.62.62-.52 1.05l.79 3.64c.31 1.48-.81 2.87-2.32 2.87-1.31 0-2.37-1.06-2.37-2.37zm1.75-.44a.44.44 0 0 0-.45.44v13.9c0 .59.48 1.07 1.07 1.07.68 0 1.19-.63 1.04-1.29l-.78-3.65a2.22 2.22 0 0 1 1.24-2.5c.43-.2.64-.7.49-1.16l-2.19-6.51a.44.44 0 0 0-.42-.3"/></g></svg>