<svg xmlns="http://www.w3.org/2000/svg" fill="none" viewBox="0 0 24 24" focusable="false"><path fill="#717681" fill-rule="evenodd" d="M5.48 3.64c0-.36.29-.65.65-.65s.65.29.65.65v2.97c0 .36.29.65.65.65s.65-.29.65-.65V3.64c0-.36.29-.65.65-.65s.65.29.65.65v2.97c0 .36.29.65.65.65s.65-.29.65-.65V3.64c0-.36.29-.65.65-.65s.65.29.65.65v4.08h-.01a3.25 3.25 0 0 1-1.26 2.39c-.48.36-.85.89-.79 1.48l.69 7.39A1.85 1.85 0 0 1 8.77 21c-1.07 0-1.92-.91-1.85-1.98l.53-7.54c.04-.56-.31-1.06-.75-1.41-.7-.56-1.16-1.4-1.22-2.35zm7.88.53c0-.65.53-1.18 1.18-1.18.5 0 .95.32 1.12.8l2.38 7.08c.26.78-.15 1.61-.92 1.88-.7.24-1.11.97-.96 1.7l.89 4.31a1.865 1.865 0 1 1-3.69.38z"/></svg>