<svg xmlns="http://www.w3.org/2000/svg" fill="none" viewBox="0 0 24 24" focusable="false"><path fill="#74767B" fill-rule="evenodd" d="M13.2 3.12c-1.51.4-2.27 1.19-2.66 1.96-.38-.77-1.15-1.56-2.66-1.96-2.43-.65-3.67.54-4.2 1.35-.23.34-.02.75.37.86l3.71.99c-.57.15-1.19.48-1.81 1.11-1.68 1.67-1.24 3.28-.8 4.13.18.36.64.39.93.1L9.3 8.44c-.08 1.18 0 2.49.15 3.89.11.99.33 1.97.66 2.9a7.5 7.5 0 0 0-4.75 3.71q-.645-.3-1.35-.78c-.3-.2-.7-.11-.9.18-.2.3-.12.71.18.91 2.08 1.38 3.83 1.82 5.4 1.71 1.54-.1 2.84-.72 3.99-1.28l.04-.02c1.17-.56 2.17-1.05 3.28-1.13 1.07-.07 2.33.24 3.96 1.49a.65.65 0 0 0 .79-1.03c-1.18-.91-2.26-1.42-3.27-1.64a7.56 7.56 0 0 0-6.06-2.34 11.4 11.4 0 0 1-.68-2.82c-.23-2.18-.26-3.93.1-5.21.03-.01.07-.01.1-.02l6.09-1.63c.39-.11.6-.52.38-.86-.54-.81-1.78-2-4.21-1.35m6.37 7.72c0 1.65-1.34 3-3 3s-3-1.35-3-3c0-1.66 1.34-3.01 3-3.01s3 1.35 3 3.01"/></svg>