<svg xmlns="http://www.w3.org/2000/svg" fill="none" viewBox="0 0 24 24" focusable="false"><defs><clipPath id="Vacation_Outline_svg__a"><path fill="#fff" fill-opacity="0" d="M0 0h24v24H0z"/></clipPath></defs><g clip-path="url(#Vacation_Outline_svg__a)"><path fill="#74767B" fill-rule="evenodd" d="M12.14 3.27c-1.04.28-1.74.79-2.19 1.39-.43-.68-1.16-1.3-2.36-1.63-1.1-.29-2.01-.18-2.72.16-.71.32-1.18.83-1.47 1.24-.26.37-.28.81-.11 1.17.16.35.47.6.85.7l1.88.48c-.22.15-.44.33-.66.55-.81.81-1.16 1.65-1.22 2.44-.06.78.16 1.43.39 1.89.19.39.56.62.95.65.37.03.74-.11 1.02-.38L9 9.43c.01.31.02.63.05.96.14 1.7.53 3.39 1.06 4.84-2.07.52-3.77 1.89-4.77 3.71-.42-.21-.86-.47-1.33-.78-.3-.2-.7-.11-.9.18-.2.3-.12.71.18.91 2.08 1.38 3.83 1.82 5.4 1.71 1.54-.1 2.84-.72 3.99-1.28l.04-.02c1.17-.56 2.17-1.05 3.28-1.13 1.07-.07 2.33.24 3.96 1.49a.65.65 0 0 0 .79-1.03c-1.18-.91-2.26-1.42-3.26-1.64-1.37-1.44-3.39-2.36-5.47-2.36q-.3 0-.6.03c-.54-1.38-.94-3.06-1.07-4.74q-.09-1.08-.03-2.07c.01-.13.09-.23.21-.26l5.07-1.41c.38-.1.69-.36.85-.71s.14-.79-.11-1.15c-.29-.42-.76-.93-1.47-1.26-.72-.33-1.62-.45-2.73-.15m-3 2.97-.08-.02a.5.5 0 0 0-.13-.04L4.55 5.06c.2-.26.49-.52.86-.69.42-.2 1.01-.3 1.84-.08 1.23.33 1.66 1.02 1.83 1.59.04.12.06.24.08.36zm6.05-.94-4.63 1.24c.01-.02.01-.05.02-.08q.075-.315.18-.63c.05-.11.11-.22.18-.32.25-.38.71-.76 1.54-.99.83-.22 1.42-.11 1.84.08.38.18.66.44.87.7M6.56 19.42c1.1-1.87 3.08-3.13 5.46-3.13 1.19 0 2.38.38 3.37 1.01-1.16.18-2.19.68-3.14 1.15l-.14.06c-1.17.57-2.25 1.07-3.51 1.16a5.7 5.7 0 0 1-2.04-.25M9.02 7.57l-3.39 3.38c-.13-.3-.22-.67-.19-1.08.03-.45.23-1.01.84-1.62s1.18-.82 1.64-.86c.41-.03.79.06 1.1.18m9.25 3.27c0 .93-.76 1.7-1.7 1.7a1.705 1.705 0 0 1 0-3.41c.94 0 1.7.77 1.7 1.71m1.3 0c0 1.65-1.34 3-3 3s-3-1.35-3-3c0-1.66 1.34-3.01 3-3.01s3 1.35 3 3.01"/></g></svg>