<svg xmlns="http://www.w3.org/2000/svg" fill="none" viewBox="0 0 24 24" focusable="false"><path fill="#717681" fill-rule="evenodd" d="M14 5.998a2 2 0 0 1-1.266 1.862l.031.035 1.886 2.212a1.3 1.3 0 0 0 1.726.227l1.906-1.31a2 2 0 1 1 1.837.971l-.95 6.212a1.3 1.3 0 0 1-1.286 1.104H6.117a1.3 1.3 0 0 1-1.285-1.104l-.95-6.212a2 2 0 1 1 1.84-.98l1.933 1.321a1.3 1.3 0 0 0 1.727-.235L11.24 7.9l.033-.037A2 2 0 1 1 14 5.998m-2 .7a.7.7 0 1 0 0-1.4.7.7 0 0 0 0 1.4m6.762 3.574-1.648 1.133a2.6 2.6 0 0 1-3.452-.455l-1.656-1.942-1.63 1.932a2.6 2.6 0 0 1-3.454.47l-1.684-1.15.88 5.75h11.766zM4.7 7.998a.7.7 0 1 1-1.4 0 .7.7 0 0 1 1.4 0m15.3.7a.7.7 0 1 0 0-1.4.7.7 0 0 0 0 1.4" clip-rule="evenodd"/><path fill="#717681" d="M18.35 20.002a.65.65 0 1 0 0-1.3H5.65a.65.65 0 1 0 0 1.3z"/></svg>