<svg xmlns="http://www.w3.org/2000/svg" fill="none" viewBox="0 0 24 24" focusable="false"><path fill="#74767B" fill-rule="evenodd" d="M12.73 7.85A1.998 1.998 0 0 0 12 3.99a2 2 0 0 0-2 2c0 .85.52 1.58 1.27 1.87l-.03.03-1.86 2.21c-.43.51-1.18.61-1.73.23L5.72 9.01c.17-.3.28-.65.28-1.02a2 2 0 1 0-4 0c0 1.07.83 1.94 1.88 2l.95 6.21c.09.64.64 1.11 1.28 1.11h11.77c.64 0 1.19-.47 1.28-1.11l.95-6.21c1.05-.06 1.89-.93 1.89-2a2 2 0 1 0-4 0c0 .38.1.73.28 1.03l-1.91 1.31c-.55.38-1.29.28-1.72-.23l-1.89-2.21c-.01-.01-.02-.02-.03-.04m-.03-1.86c0 .39-.32.7-.7.7-.39 0-.71-.31-.71-.7 0-.38.32-.7.71-.7.38 0 .7.32.7.7M4 8.69c.38 0 .7-.31.7-.7 0-.38-.32-.7-.7-.7a.71.71 0 0 0-.71.7c0 .39.32.7.71.7m16.7-.7c0 .39-.32.7-.7.7-.39 0-.71-.31-.71-.7 0-.38.32-.7.71-.7.38 0 .7.32.7.7m-3.59 3.41 1.65-1.13-.88 5.74H6.11l-.88-5.76 1.69 1.15c1.1.76 2.59.55 3.45-.47L12 9l1.66 1.95a2.594 2.594 0 0 0 3.45.45M19 19.35c0 .36-.3.65-.65.65H5.64c-.35 0-.64-.29-.64-.65s.29-.65.64-.65h12.71c.35 0 .65.29.65.65"/></svg>