<svg xmlns="http://www.w3.org/2000/svg" fill="none" viewBox="0 0 24 24" focusable="false"><path fill="#717681" fill-rule="evenodd" d="M12.79 7.83A2 2 0 0 0 14 6a2 2 0 0 0-2-2c-1.11 0-2 .89-2 2 0 .81.49 1.52 1.19 1.83l-2.26 2.34a1.3 1.3 0 0 1-1.72.13L5.65 9.12C5.87 8.8 6 8.41 6 8a2 2 0 0 0-2-2c-1.11 0-2 .89-2 2 0 1.06.83 1.94 1.89 1.99l.93 5.97c.1.63.65 1.1 1.29 1.1h11.77c.64 0 1.19-.47 1.29-1.1l.93-5.97C21.16 9.94 22 9.06 22 8a2 2 0 0 0-2-2c-1.11 0-2 .89-2 2 0 .41.12.79.33 1.11l-1.59 1.19c-.53.4-1.26.34-1.72-.14zm5.56 12.16c.35 0 .65-.29.65-.65 0-.35-.3-.65-.65-.65H5.64c-.35 0-.64.3-.64.65 0 .36.29.65.64.65z"/></svg>