<svg xmlns="http://www.w3.org/2000/svg" fill="none" viewBox="0 0 24 24" focusable="false"><path fill="#74767B" fill-rule="evenodd" d="M20 13.39c0 .43-.45.72-.85.59a.63.63 0 0 1-.45-.58V7c0-.94-.77-1.7-1.7-1.7H7c-.94 0-1.7.76-1.7 1.7v10c0 .93.76 1.7 1.7 1.7h3.93c.27 0 .5.21.56.48.08.38-.18.82-.57.82H7c-1.66 0-3-1.35-3-3V7c0-1.66 1.34-3 3-3h10c1.65 0 3 1.34 3 3zM8.66 6.95c-.36 0-.65.29-.65.65s.29.65.65.65h2.69v7.14c0 .36.29.65.65.65.35 0 .64-.29.64-.65V8.25h2.69c.36 0 .65-.29.65-.65s-.29-.65-.65-.65zm12.88 10.31c.58.73.58 1.74-.01 2.46-.82 1.01-2.23 2.28-4.19 2.28s-3.37-1.27-4.19-2.28c-.58-.73-.59-1.73-.01-2.45.81-1.01 2.21-2.28 4.2-2.28s3.39 1.26 4.2 2.27m-1.02 1.64c-.73.9-1.81 1.8-3.18 1.8s-2.45-.9-3.17-1.8a.624.624 0 0 1-.01-.82c.71-.89 1.78-1.79 3.18-1.79s2.47.89 3.19 1.78c.19.25.19.58-.01.83m-3.15.62c.55 0 1-.45 1-1s-.45-1-1-1-1 .45-1 1 .45 1 1 1"/></svg>