<svg xmlns="http://www.w3.org/2000/svg" fill="none" viewBox="0 0 24 24" focusable="false"><path fill="#717681" d="M18.375 18.524a1 1 0 1 1-2 0 1 1 0 0 1 2 0"/><path fill="#717681" fill-rule="evenodd" d="M21.534 19.726a1.944 1.944 0 0 0 .011-2.46C20.738 16.26 19.333 15 17.345 15c-1.991 0-3.395 1.263-4.198 2.272a1.94 1.94 0 0 0 .01 2.449C13.972 20.73 15.385 22 17.346 22c1.957 0 3.372-1.265 4.19-2.274m-4.19.974c1.368 0 2.45-.89 3.18-1.792a.644.644 0 0 0 .006-.829c-.712-.89-1.784-1.78-3.185-1.78-1.403 0-2.472.893-3.181 1.783a.64.64 0 0 0 .006.823c.727.902 1.806 1.795 3.175 1.795" clip-rule="evenodd"/><path fill="#717681" d="M20 13.398c0 .428-.441.715-.849.584-.254-.082-.451-.314-.451-.582V7A1.7 1.7 0 0 0 17 5.3H7A1.7 1.7 0 0 0 5.3 7v10A1.7 1.7 0 0 0 7 18.7h3.933c.277 0 .5.212.56.482.085.386-.175.818-.57.818H7a3 3 0 0 1-3-3V7a3 3 0 0 1 3-3h10a3 3 0 0 1 3 3z"/><path fill="#717681" d="M8.015 7.606a.65.65 0 0 1 .65-.65h6.67a.65.65 0 0 1 0 1.3H12.65v7.143a.65.65 0 0 1-1.3 0V8.256H8.665a.65.65 0 0 1-.65-.65"/></svg>