<svg xmlns="http://www.w3.org/2000/svg" fill="none" viewBox="0 0 24 24" focusable="false"><defs><clipPath id="Watcher_Test_IT_Solid_svg__a"><path fill="#fff" fill-opacity="0" d="M0 0h24v24H0z"/></clipPath></defs><g clip-path="url(#Watcher_Test_IT_Solid_svg__a)"><path fill="#74767B" fill-rule="evenodd" d="M7 4C5.34 4 4 5.34 4 7v10c0 1.65 1.34 3 3 3h4.2c.22 0 .37-.25.3-.46-.16-.47-.22-.97-.15-1.46V8.3H8.66c-.36 0-.65-.3-.65-.65 0-.36.29-.65.65-.65h6.67c.36 0 .65.29.65.65 0 .35-.29.65-.65.65h-2.69v7.45c1-1.01 2.55-2.09 4.65-2.09.85 0 1.6.17 2.26.44.21.09.45-.06.45-.28V7c0-1.66-1.35-3-3-3zm14.53 15.72c.59-.72.59-1.73.01-2.46-.81-1.01-2.21-2.27-4.2-2.27s-3.39 1.27-4.2 2.28c-.58.72-.57 1.72.01 2.45.82 1.01 2.23 2.28 4.19 2.28s3.37-1.27 4.19-2.28m-4.18.78a2.006 2.006 0 0 0 0-4.01 2 2 0 0 0-2 2c0 1.11.89 2.01 2 2.01"/></g></svg>