<svg xmlns="http://www.w3.org/2000/svg" fill="none" viewBox="0 0 24 24" focusable="false"><defs><clipPath id="Watcher_Outline_svg__a"><path fill="#fff" fill-opacity="0" d="M0 0h24v24H0z"/></clipPath></defs><g clip-path="url(#Watcher_Outline_svg__a)"><path fill="#74767B" fill-rule="evenodd" d="M19.15 13.98c.4.13.85-.16.85-.59V7c0-1.66-1.35-3-3-3H7C5.34 4 4 5.34 4 7v10c0 1.65 1.34 3 3 3h3.92c.39 0 .65-.44.57-.82-.06-.27-.29-.48-.56-.48H7c-.94 0-1.7-.77-1.7-1.7V7c0-.94.76-1.7 1.7-1.7h10c.93 0 1.7.76 1.7 1.7v6.4c0 .26.19.5.45.58M12.84 9.3c.34.11.53.47.43.82l-1.31 4.14c-.1.35-.47.54-.81.43a.664.664 0 0 1-.43-.82l1.31-4.14c.1-.35.47-.54.81-.43m-3.25.13c.29.22.34.62.11.89L8.29 12l1.41 1.67c.23.27.18.67-.11.89-.28.22-.7.18-.93-.09l-1.74-2.08c-.2-.23-.2-.56 0-.79l1.74-2.08c.23-.27.65-.31.93-.09m4.8 0c-.28.22-.33.62-.1.89L15.7 12l-1.41 1.67c-.23.27-.18.67.1.89.29.22.71.18.94-.09l1.74-2.08c.2-.23.2-.56 0-.79l-1.74-2.08a.695.695 0 0 0-.94-.09m7.14 10.29c.59-.72.59-1.73.01-2.46-.81-1.01-2.21-2.27-4.2-2.27s-3.39 1.27-4.2 2.28c-.58.72-.57 1.72.01 2.45.82 1.01 2.23 2.28 4.19 2.28s3.37-1.27 4.19-2.28m-4.19.98c1.37 0 2.45-.9 3.18-1.8.2-.25.2-.58.01-.83-.72-.89-1.79-1.78-3.19-1.78s-2.47.9-3.18 1.79c-.2.24-.2.57.01.82.72.9 1.8 1.8 3.17 1.8m1.03-2.18c0 .55-.45 1-1 1s-1-.45-1-1 .45-1 1-1 1 .45 1 1"/></g></svg>