<svg xmlns="http://www.w3.org/2000/svg" fill="none" viewBox="0 0 24 24" focusable="false"><defs><clipPath id="Watcher_Solid_svg__a"><path fill="#fff" fill-opacity="0" d="M0 0h24v24H0z"/></clipPath></defs><g clip-path="url(#Watcher_Solid_svg__a)"><path fill="#717681" fill-rule="evenodd" d="M4 7c0-1.66 1.34-3 3-3h10c1.65 0 3 1.34 3 3v6.84c0 .22-.24.37-.45.28-.65-.26-1.39-.43-2.21-.43-.15 0-.29.01-.44.02l.94-1.3a.72.72 0 0 0 0-.84L16.1 9.23c-.22-.29-.61-.34-.88-.11a.72.72 0 0 0-.1.95L16.56 12l-1.59 2.19c-1.31.57-2.26 1.53-2.85 2.27-.71.9-.88 2.05-.53 3.08.07.21-.07.46-.3.46H7c-1.66 0-3-1.35-3-3zm4.77 2.12c.27.24.31.66.1.95L7.44 12l1.43 1.92c.21.29.17.71-.1.95-.26.23-.66.18-.87-.11l-1.75-2.34a.74.74 0 0 1 0-.85L7.9 9.23c.21-.29.61-.34.87-.11m4.5.7c.1-.34-.1-.7-.45-.8-.35-.09-.7.11-.8.45l-1.3 4.7c-.1.34.1.7.45.8.35.09.7-.11.8-.45zm8.26 9.9c.59-.72.59-1.73.01-2.46-.81-1.01-2.21-2.27-4.2-2.27s-3.39 1.27-4.2 2.28c-.58.72-.57 1.72.01 2.45.82 1.01 2.23 2.28 4.19 2.28s3.37-1.27 4.19-2.28m-4.18.78a2.006 2.006 0 0 0 0-4.01 2 2 0 0 0-2 2c0 1.11.89 2.01 2 2.01"/></g></svg>