<svg xmlns="http://www.w3.org/2000/svg" fill="none" viewBox="0 0 24 24" focusable="false"><path fill="#717681" fill-rule="evenodd" d="M8.02 17.4a2.031 2.031 0 0 0 1.52-3.38l.84-1.44a.98.98 0 0 0-.3-1.29 3.31 3.31 0 0 1-1-4.39 3.326 3.326 0 0 1 4.53-1.21c.99.57 1.57 1.57 1.65 2.63.02.36.33.63.69.6.36-.02.63-.33.6-.69-.1-1.47-.92-2.87-2.29-3.67a4.619 4.619 0 0 0-5.16 7.63l-.69 1.19c-.13-.03-.26-.04-.39-.04-1.12 0-2.02.91-2.02 2.03s.9 2.03 2.02 2.03m5.54-7.52c.29-.35.46-.8.46-1.29 0-1.12-.91-2.03-2.02-2.03-1.12 0-2.03.91-2.03 2.03s.91 2.03 2.03 2.03c.15 0 .31-.02.46-.06l.83 1.44c.27.46.83.58 1.26.38 1.54-.75 3.43-.18 4.3 1.33.92 1.58.37 3.61-1.21 4.52-.99.57-2.15.58-3.1.11a.65.65 0 0 0-.87.31c-.16.32-.02.71.3.86 1.33.65 2.94.64 4.32-.15 2.2-1.28 2.96-4.1 1.69-6.3a4.625 4.625 0 0 0-5.72-1.98zm-7.39 2.78c.29-.2.37-.61.17-.91a.655.655 0 0 0-.9-.17 4.62 4.62 0 0 0-2.03 3.82c0 2.55 2.07 4.61 4.61 4.61 2.33 0 4.25-1.72 4.57-3.96h1.44c.28.78 1.03 1.35 1.91 1.35 1.12 0 2.03-.91 2.03-2.03s-.91-2.03-2.03-2.03c-.91 0-1.67.59-1.93 1.41h-1.72c-.54 0-.93.43-.96.9a3.317 3.317 0 0 1-3.31 3.06 3.308 3.308 0 0 1-1.85-6.05"/></svg>