<svg xmlns="http://www.w3.org/2000/svg" fill="none" viewBox="0 0 24 24" focusable="false"><path fill="#717681" d="M6.17 12.662a.65.65 0 1 0-.73-1.076 4.612 4.612 0 1 0 7.154 4.469h1.439a2.029 2.029 0 1 0-.021-1.3H12.29a.968.968 0 0 0-.96.901 3.313 3.313 0 1 1-5.16-2.994"/><path fill="#717681" d="M8.028 17.401a2.028 2.028 0 0 0 1.515-3.376l.842-1.441a.969.969 0 0 0-.299-1.286 3.313 3.313 0 1 1 5.175-2.971.65.65 0 0 0 1.297-.094 4.612 4.612 0 1 0-7.45 3.96l-.695 1.19a2.028 2.028 0 1 0-.385 4.019"/><path fill="#717681" d="M14.028 8.594c0 .488-.173.937-.461 1.287l.7 1.208a4.613 4.613 0 1 1-.293 8.43.65.65 0 1 1 .567-1.17 3.312 3.312 0 1 0 .013-5.966.968.968 0 0 1-1.26-.38l-.831-1.435a2.028 2.028 0 1 1 1.565-1.975"/></svg>