<svg xmlns="http://www.w3.org/2000/svg" fill="none" viewBox="0 0 24 24" focusable="false"><defs><clipPath id="Wiki_Outline_svg__a"><path fill="#fff" fill-opacity="0" d="M0 0h24v24H0z"/></clipPath></defs><g clip-path="url(#Wiki_Outline_svg__a)"><path fill="#717681" fill-rule="evenodd" d="M12 19.7c4.25 0 7.7-3.45 7.7-7.7 0-4.26-3.45-7.71-7.7-7.71-4.26 0-7.71 3.45-7.71 7.71 0 4.25 3.45 7.7 7.71 7.7m0 1.3a9 9 0 0 0 9-9c0-4.98-4.03-9-9-9-4.98 0-9 4.02-9 9 0 4.97 4.02 9 9 9M6.73 8.74c.32-.16.71-.02.86.31l2.66 5.62 1.03-2.17-1.37-2.9a.643.643 0 0 1 .31-.86c.32-.16.71-.02.86.31l.92 1.93.91-1.93c.15-.33.54-.47.86-.31.33.15.46.54.31.86l-1.37 2.9 1.03 2.17 2.66-5.62c.15-.33.54-.47.86-.31.33.15.47.54.31.86l-3.24 6.87a.66.66 0 0 1-.59.38.66.66 0 0 1-.59-.38L12 14.02l-1.16 2.45a.66.66 0 0 1-.59.38.66.66 0 0 1-.59-.38L6.42 9.6a.634.634 0 0 1 .31-.86"/></g></svg>