<svg xmlns="http://www.w3.org/2000/svg" fill="none" viewBox="0 0 24 24" focusable="false"><defs><clipPath id="Work_Outline_svg__a"><path fill="#fff" fill-opacity="0" d="M0 0h24v24H0z"/></clipPath></defs><g clip-path="url(#Work_Outline_svg__a)"><path fill="#74767B" fill-rule="evenodd" d="M11 3.01c-1.47 0-2.65 1.19-2.65 2.65 0 .36.29.65.65.65.35 0 .64-.29.64-.65 0-.74.61-1.35 1.36-1.35h2c.74 0 1.35.61 1.35 1.35 0 .36.29.65.65.65.35 0 .64-.29.64-.65 0-1.46-1.18-2.65-2.64-2.65zM5.99 7.46c-1.66 0-3 1.34-3 3v6.53c0 1.66 1.34 3 3 3h12c1.66 0 3-1.34 3-3v-6.53c0-1.66-1.35-3-3-3zm12 1.3c.94 0 1.7.76 1.7 1.7v1.75c0 .44-.16.86-.45 1.19-.34.38-.82.59-1.33.59H6.09a1.783 1.783 0 0 1-1.8-1.79v-1.74c0-.94.76-1.7 1.7-1.7zm-.08 6.53c.65 0 1.27-.2 1.78-.57v2.27c0 .94-.76 1.7-1.7 1.7h-12c-.94 0-1.7-.76-1.7-1.7v-2.27c.52.37 1.15.57 1.8.57h1.26v1.47c0 .36.29.65.65.65.35 0 .64-.29.64-.65v-1.47h6.71v1.47c0 .36.29.65.65.65.35 0 .64-.29.64-.65v-1.47z"/></g></svg>