<svg xmlns="http://www.w3.org/2000/svg" fill="none" viewBox="0 0 24 24" focusable="false"><path fill="#717681" d="M8.35 5.666A2.65 2.65 0 0 1 11 3.016h2a2.65 2.65 0 0 1 2.65 2.65.65.65 0 0 1-1.3 0A1.35 1.35 0 0 0 13 4.316h-2a1.35 1.35 0 0 0-1.35 1.35.65.65 0 0 1-1.3 0"/><path fill="#717681" fill-rule="evenodd" d="M2.995 10.467c0-1.66 1.34-3 3-3H18c1.65 0 3 1.34 3 3v6.532c0 1.66-1.34 3-3 3H5.995c-1.66 0-3-1.34-3-3zm16.704 0c0-.94-.76-1.7-1.7-1.7H5.995c-.94 0-1.7.76-1.7 1.7V12.202a1.795 1.795 0 0 0 1.796 1.795h11.825a1.782 1.782 0 0 0 1.782-1.782v-.568h.001zm0 4.262a3.082 3.082 0 0 1-1.783.568H16.65v1.465a.65.65 0 0 1-1.3 0v-1.465h-6.7v1.466a.65.65 0 1 1-1.3 0v-1.466H6.09c-.649 0-1.275-.204-1.795-.574v2.276c0 .94.76 1.7 1.7 1.7H18c.94 0 1.7-.76 1.7-1.7z" clip-rule="evenodd"/></svg>