<svg xmlns="http://www.w3.org/2000/svg" fill="none" viewBox="0 0 24 24" focusable="false"><path fill="#74767B" fill-rule="evenodd" d="M7.65 9.65a4.349 4.349 0 1 1 8.7 0v4.5c0 1.51-1.07 2.77-2.49 3.07A2 2 0 0 0 12 15.95c-1.11 0-2 .89-2 2a2 2 0 0 0 2 2c.89 0 1.65-.6 1.91-1.41 1.87-.3 3.36-1.77 3.67-3.64h.71c1.08 0 1.96-.88 1.96-1.95v-1.9c0-1.08-.88-1.95-1.96-1.95h-.67A5.647 5.647 0 0 0 12 4C9.06 4 6.65 6.23 6.37 9.09h-.68c-1.07 0-1.94.88-1.94 1.96v1.9c0 1.07.87 1.95 1.94 1.95H7c.35 0 .65-.3.65-.65zm10 .75v3.2h.64c.36 0 .66-.3.66-.65v-1.9c0-.36-.3-.65-.66-.65zm-11.96 0h.65v3.2h-.65c-.35 0-.64-.3-.64-.65v-1.9c0-.36.29-.65.64-.65m7.01 7.55c0 .38-.32.7-.7.7a.71.71 0 0 1-.71-.7c0-.39.32-.7.71-.7.38 0 .7.31.7.7"/></svg>