<svg xmlns="http://www.w3.org/2000/svg" fill="none" viewBox="0 0 24 24" focusable="false"><path fill="#717681" fill-rule="evenodd" d="M4.367 2.207a.65.65 0 0 1 .912.119l2.753 3.578a12.47 12.47 0 0 1 12.787 3.005.65.65 0 0 1-.92.919A11.17 11.17 0 0 0 8.877 7.001l1.348 1.753a9.15 9.15 0 0 1 8.244 2.505.65.65 0 0 1-.92.919 7.85 7.85 0 0 0-6.42-2.25l1.55 2.015a5.82 5.82 0 0 1 3.44 1.666.65.65 0 0 1-.92.92 4.5 4.5 0 0 0-1.187-.854l5.569 7.238a.65.65 0 0 1-1.03.793L4.247 3.118a.65.65 0 0 1 .12-.911M3.181 8.909c.73-.73 1.547-1.365 2.43-1.892l.798 1.038A11.2 11.2 0 0 0 4.1 9.828a.65.65 0 0 1-.919-.92m2.351 2.35a9.2 9.2 0 0 1 2.125-1.582l.805 1.046a7.9 7.9 0 0 0-2.01 1.455.65.65 0 0 1-.92-.92m2.35 2.35a5.8 5.8 0 0 1 1.844-1.243l.827 1.075q-.143.049-.284.107a4.5 4.5 0 0 0-1.467.98.65.65 0 1 1-.92-.919m2.643 1.729a3.9 3.9 0 0 1 1.266-.288l1.765 2.294-1.344 1.343a.3.3 0 0 1-.424 0l-2.302-2.301a.283.283 0 0 1 .008-.416 3.9 3.9 0 0 1 1.03-.632" clip-rule="evenodd"/></svg>