<svg xmlns="http://www.w3.org/2000/svg" fill="none" viewBox="0 0 24 24" focusable="false"><defs><clipPath id="No_Wifi_Outline_svg__a"><path fill="#fff" fill-opacity="0" d="M0 0h24v24H0z"/></clipPath></defs><g clip-path="url(#No_Wifi_Outline_svg__a)"><path fill="#74767B" fill-rule="evenodd" d="M4.36 2.2a.65.65 0 0 1 .91.12L8.03 5.9a12.453 12.453 0 0 1 12.78 3c.26.26.26.67 0 .92a.64.64 0 0 1-.92 0 11.1 11.1 0 0 0-3.62-2.42c-1.36-.56-2.81-.85-4.27-.85-1.06 0-2.12.15-3.13.45l1.35 1.75c.58-.12 1.18-.18 1.78-.18a9.15 9.15 0 0 1 6.46 2.68c.26.26.26.67 0 .92a.64.64 0 0 1-.92 0c-.72-.73-1.59-1.3-2.54-1.7-.95-.39-1.97-.6-3-.6-.3 0-.59.02-.88.05l1.55 2.02a5.8 5.8 0 0 1 3.44 1.66c.26.26.26.67 0 .92a.64.64 0 0 1-.92 0c-.34-.34-.75-.63-1.18-.85l5.56 7.24c.22.28.17.69-.11.91-.29.22-.7.17-.92-.12L4.24 3.11a.65.65 0 0 1 .12-.91M3.18 8.9q1.095-1.095 2.43-1.89l.79 1.04c-.84.49-1.61 1.08-2.3 1.77a.64.64 0 0 1-.92 0 .64.64 0 0 1 0-.92m2.35 2.35c.63-.62 1.34-1.16 2.12-1.58l.81 1.05c-.75.37-1.42.86-2.01 1.45a.64.64 0 0 1-.92 0 .64.64 0 0 1 0-.92m2.35 2.35a5.9 5.9 0 0 1 1.84-1.24l.83 1.08c-.1.03-.19.06-.29.1-.54.23-1.04.56-1.46.98a.64.64 0 0 1-.92 0 .64.64 0 0 1 0-.92m2.64 1.73c.4-.16.83-.26 1.27-.28l1.76 2.29-1.34 1.34c-.12.12-.31.12-.43 0l-2.3-2.3a.282.282 0 0 1 .01-.42c.31-.26.65-.47 1.03-.63"/></g></svg>