<svg xmlns="http://www.w3.org/2000/svg" fill="none" viewBox="0 0 24 24" focusable="false"><path fill="#717681" fill-rule="evenodd" d="M4.367 2.207a.65.65 0 0 1 .912.119l1.697 2.206A9 9 0 0 1 17.931 18.77l1.649 2.143a.65.65 0 0 1-1.03.793L4.247 3.118a.65.65 0 0 1 .12-.911M15.015 14.98a.65.65 0 0 0 .291-1.088 4.7 4.7 0 0 0-2.049-1.197zm-2.879-3.743a5.96 5.96 0 0 1 4.08 1.745.65.65 0 1 0 .92-.919 7.26 7.26 0 0 0-5.965-2.08zM10.28 8.825a8.55 8.55 0 0 1 7.767 2.33.65.65 0 0 0 .92-.92A9.85 9.85 0 0 0 9.41 7.696zM3 12c0-2.17.768-4.16 2.047-5.715l1.895 2.463a9.9 9.9 0 0 0-1.907 1.487.65.65 0 0 0 .92.92A8.6 8.6 0 0 1 7.74 9.785l.793 1.031a7.3 7.3 0 0 0-1.67 1.247.65.65 0 1 0 .92.92c.455-.456.98-.834 1.555-1.12l.804 1.044a4.7 4.7 0 0 0-1.45.985.65.65 0 1 0 .92.92 3.4 3.4 0 0 1 1.358-.828l.871 1.131a3 3 0 0 0-1.74.674c-.13.105-.128.296-.011.413l1.697 1.697a.3.3 0 0 0 .424 0l1.002-1.001 2.53 3.288A9 9 0 0 1 3 12" clip-rule="evenodd"/></svg>