<svg xmlns="http://www.w3.org/2000/svg" fill="none" viewBox="0 0 24 24" focusable="false"><path fill="#717681" fill-rule="evenodd" d="M4.367 2.207a.65.65 0 0 1 .912.119l2.753 3.578a12.472 12.472 0 0 1 12.787 3.005.65.65 0 0 1-.92.919A11.17 11.17 0 0 0 8.877 7.001l1.348 1.753a9.147 9.147 0 0 1 8.244 2.505.65.65 0 0 1-.92.919 7.845 7.845 0 0 0-6.42-2.25l1.55 2.015a5.823 5.823 0 0 1 3.44 1.666.65.65 0 0 1-.92.92 4.522 4.522 0 0 0-1.187-.854l5.569 7.238a.65.65 0 0 1-1.03.793L4.247 3.118a.65.65 0 0 1 .12-.911M3.181 8.909c.73-.73 1.547-1.365 2.43-1.892l.798 1.038A11.172 11.172 0 0 0 4.1 9.828a.65.65 0 0 1-.919-.92m2.351 2.35a9.146 9.146 0 0 1 2.125-1.582l.805 1.046a7.848 7.848 0 0 0-2.01 1.455.65.65 0 0 1-.92-.92m2.35 2.35a5.822 5.822 0 0 1 1.844-1.243l.827 1.075a4.523 4.523 0 0 0-1.751 1.087.65.65 0 1 1-.92-.919m2.643 1.729a3.854 3.854 0 0 1 1.266-.288l1.765 2.294-1.344 1.343a.3.3 0 0 1-.424 0l-2.302-2.301a.283.283 0 0 1 .008-.416 3.855 3.855 0 0 1 1.03-.632" clip-rule="evenodd"/></svg>