<svg xmlns="http://www.w3.org/2000/svg" fill="none" viewBox="0 0 24 24" focusable="false"><defs><clipPath id="No_Wifi_Solid_svg__a"><path fill="#fff" fill-opacity="0" d="M0 0h24v24H0z"/></clipPath></defs><g clip-path="url(#No_Wifi_Solid_svg__a)"><path fill="#717681" fill-rule="evenodd" d="M4.36 2.2a.65.65 0 0 1 .91.12l1.7 2.21A8.944 8.944 0 0 1 12 3a8.994 8.994 0 0 1 5.93 15.76l1.64 2.15c.22.28.17.69-.11.91-.29.22-.7.17-.92-.12L4.24 3.11a.652.652 0 0 1 .12-.91m10.65 12.78c.11-.03.21-.09.29-.17a.64.64 0 0 0 0-.92 4.622 4.622 0 0 0-2.05-1.2zm-2.88-3.75c.74.02 1.47.17 2.15.46.72.3 1.38.73 1.93 1.29.26.25.67.25.92 0 .25-.26.25-.67 0-.92a7.147 7.147 0 0 0-2.36-1.58c-.88-.36-1.82-.55-2.77-.55-.28 0-.56.02-.83.05zm-1.86-2.41c.57-.12 1.15-.18 1.73-.18 1.12 0 2.23.23 3.27.66a8.63 8.63 0 0 1 2.77 1.85c.25.25.67.25.92 0s.25-.67 0-.92c-.91-.91-2-1.64-3.2-2.14A9.892 9.892 0 0 0 12 7.34c-.88 0-1.75.12-2.59.35zM3 12c0-2.18.76-4.17 2.04-5.72l1.9 2.46c-.7.42-1.34.92-1.91 1.49-.25.25-.25.67 0 .92s.67.25.92 0c.53-.53 1.13-.99 1.79-1.37l.79 1.03c-.61.33-1.18.75-1.67 1.25-.25.25-.25.66 0 .92.25.25.66.25.92 0 .45-.46.98-.83 1.55-1.12l.81 1.04c-.54.24-1.03.57-1.45.99a.64.64 0 0 0 0 .92c.25.25.66.25.92 0 .31-.32.68-.56 1.09-.73.09-.04.18-.07.27-.1l.87 1.13c-.34.02-.68.1-.99.23-.27.11-.53.26-.75.44-.13.11-.13.3-.01.42l1.69 1.7c.12.11.31.11.43 0l1-1.01 2.53 3.29c-1.14.52-2.41.82-3.74.82-4.98 0-9-4.03-9-9"/></g></svg>