<svg xmlns="http://www.w3.org/2000/svg" fill="none" viewBox="0 0 24 24" focusable="false"><path fill="none" d="M0 0h24v24H0z"/><path fill="#74767B" fill-rule="evenodd" d="M12 3c-4.98 0-9 4.02-9 9 0 4.97 4.02 9 9 9a9 9 0 0 0 9-9c0-4.98-4.03-9-9-9m3.09 6.09c0 1.71-1.39 3.1-3.1 3.1s-3.1-1.39-3.1-3.1S10.28 6 11.99 6s3.1 1.38 3.1 3.09m-1.82 0c0-.7-.57-1.28-1.28-1.28s-1.28.58-1.28 1.28c0 .71.57 1.28 1.28 1.28s1.28-.57 1.28-1.28m1.77 4.88c-.56.35-1.16.6-1.8.74l1.73 1.74c.09.08.16.18.2.29.05.11.07.23.07.35s-.02.23-.07.34c-.04.12-.11.21-.2.3-.08.08-.18.15-.29.2-.11.04-.23.07-.35.07s-.23-.03-.34-.07a1 1 0 0 1-.3-.2l-1.7-1.7-1.7 1.7c-.04.04-.09.08-.14.11s-.1.06-.16.09a1.03 1.03 0 0 1-.69 0 1 1 0 0 1-.29-.2.9.9 0 0 1-.2-.3.8.8 0 0 1-.07-.34c0-.12.02-.24.07-.35s.11-.21.2-.29l1.73-1.74c-.64-.14-1.24-.39-1.8-.74a1 1 0 0 1-.26-.24.8.8 0 0 1-.14-.33.8.8 0 0 1-.01-.35q.03-.18.12-.33c.07-.1.15-.19.25-.26s.2-.12.32-.14c.12-.03.24-.03.35-.01.12.02.23.06.34.12 1.26.8 2.9.8 4.17 0a.93.93 0 0 1 .68-.11c.12.02.23.07.32.14.1.07.18.16.25.26q.09.15.12.33c.02.12.02.24-.01.35-.02.12-.07.23-.14.33-.07.09-.16.18-.26.24"/></svg>