<svg xmlns="http://www.w3.org/2000/svg" fill="none" viewBox="0 0 24 24" focusable="false"><defs><clipPath id="Phone_Solid_svg__a"><path fill="#fff" fill-opacity="0" d="M0 0h24v24H0z"/></clipPath></defs><g clip-path="url(#Phone_Solid_svg__a)"><path fill="#717681" d="M9.81 3.83a1.955 1.955 0 0 0-2.72-.46l-1.21.86c-.66.48-1.22 1.21-1.26 2.15-.08 1.63.25 4.78 3.02 8.66 2.76 3.86 5.65 5.27 7.25 5.77.92.29 1.84.01 2.53-.49l1.16-.83c.88-.62 1.09-1.84.46-2.72l-1.46-2.04a1.95 1.95 0 0 0-2.72-.46l-1.01.72c0 .01-.01.01-.01.01-.52-.39-1.53-1.24-2.47-2.56S9.95 9.88 9.75 9.26h.01l1.01-.72c.88-.63 1.08-1.85.46-2.72z"/></g></svg>