<svg xmlns="http://www.w3.org/2000/svg" fill="none" viewBox="0 0 24 24" focusable="false"><path fill="#717681" d="M17.997 16.83c-.225.28-.217.692.044.94.26.245.673.236.9-.04a8.976 8.976 0 1 0-13.875-.02.615.615 0 0 0 .902.04c.26-.248.269-.657.045-.938a7.676 7.676 0 1 1 11.985.018"/><path fill="#717681" d="M16.687 15.6c-.218.284-.63.293-.89.047-.262-.248-.268-.659-.057-.952a4.585 4.585 0 1 0-7.47-.02c.207.292.2.7-.06.948-.26.247-.675.238-.892-.049a5.885 5.885 0 1 1 9.369.026"/><path fill="#717681" d="M14.5 11.957c0 1.151-.778 2.12-1.837 2.411v5.976a.65.65 0 1 1-1.3 0v-5.969a2.501 2.501 0 1 1 3.137-2.418"/></svg>