<svg xmlns="http://www.w3.org/2000/svg" fill="none" viewBox="0 0 24 24" focusable="false"><path fill="#74767B" fill-rule="evenodd" d="M5.75 7.77C5.26 8.32 5 9.03 5 9.76V18c0 1.65 1.34 3 3 3h8c1.65 0 3-1.35 3-3V6c0-1.66-1.35-3-3-3h-4.66c-.85 0-1.67.36-2.24 1zM17.7 18V6c0-.94-.77-1.71-1.7-1.71h-4.66c-.48 0-.95.21-1.27.58L6.72 8.63c-.27.31-.42.71-.42 1.13V18c0 .93.76 1.7 1.7 1.7h8c.93 0 1.7-.77 1.7-1.7M8.9 9c-.72 0-1.3.58-1.3 1.3v6.78c0 .72.58 1.3 1.3 1.3h6.19c.71 0 1.3-.58 1.3-1.3V10.3c0-.72-.59-1.3-1.3-1.3zm6.19 1.3H8.9v1.24h1.08c.36 0 .65.29.65.65s-.29.65-.65.65H8.9v1.7h1.08c.36 0 .65.29.65.65s-.29.65-.65.65H8.9v1.24h6.19v-1.24h-1.14c-.36 0-.65-.29-.65-.65s.29-.65.65-.65h1.14v-1.7h-1.14c-.36 0-.65-.29-.65-.65s.29-.65.65-.65h1.14z"/></svg>