<svg xmlns="http://www.w3.org/2000/svg" fill="none" viewBox="0 0 24 24" focusable="false"><path fill="#717681" fill-rule="evenodd" d="M5.758 7.773A3 3 0 0 0 5 9.766V18a3 3 0 0 0 3 3h8a3 3 0 0 0 3-3V6a3 3 0 0 0-3-3h-4.653a3 3 0 0 0-2.242 1.007L5.758 7.773M8.904 9a1.3 1.3 0 0 0-1.3 1.3v.544a.7.7 0 0 0 .7.7h1.682a.65.65 0 0 1 0 1.3H8.304a.7.7 0 0 0-.7.7v.3a.7.7 0 0 0 .7.7h1.682a.65.65 0 0 1 0 1.3H8.304a.7.7 0 0 0-.7.7v.544a1.3 1.3 0 0 0 1.3 1.3h6.187a1.3 1.3 0 0 0 1.3-1.3v-.544a.7.7 0 0 0-.7-.7h-1.737a.65.65 0 1 1 0-1.3h1.737a.7.7 0 0 0 .7-.7v-.3a.7.7 0 0 0-.7-.7h-1.737a.65.65 0 1 1 0-1.3h1.737a.7.7 0 0 0 .7-.7V10.3a1.3 1.3 0 0 0-1.3-1.3H8.904" clip-rule="evenodd"/></svg>