<svg xmlns="http://www.w3.org/2000/svg" fill="none" viewBox="0 0 24 24" focusable="false"><path d="M0 0H24V24H0z"/><path fill="#74767B" fill-rule="evenodd" d="M5.75777 7.77251C5.26964 8.32166 5 9.03086 5 9.7656L5 18C5 19.6569 6.34315 21 8 21L16 21C17.6569 21 19 19.6569 19 18L19 6C19 4.34315 17.6569 3 16 3L11.3472 3C10.4903 3 9.67427 3.36644 9.10497 4.00691L5.75777 7.77251ZM17.7 18L17.7 6C17.7 5.06112 16.9389 4.3 16 4.3L11.3472 4.3C10.8616 4.3 10.3992 4.50765 10.0766 4.87058L6.7294 8.63618C6.45279 8.94737 6.3 9.34924 6.3 9.7656L6.3 18C6.3 18.9389 7.06112 19.7 8 19.7L16 19.7C16.9389 19.7 17.7 18.9389 17.7 18ZM7.60446 10.3C7.60446 9.58203 8.18649 9 8.90446 9L15.0907 9C15.8087 9 16.3907 9.58203 16.3907 10.3L16.3907 17.0879C16.3907 17.8058 15.8087 18.3879 15.0907 18.3879L8.90446 18.3879C8.18649 18.3879 7.60446 17.8058 7.60446 17.0879L7.60446 10.3ZM8.90446 10.3L15.0907 10.3L15.0907 11.5439L13.9545 11.5439C13.5955 11.5439 13.3045 11.835 13.3045 12.1939C13.3045 12.5529 13.5955 12.8439 13.9545 12.8439L15.0907 12.8439L15.0907 14.5439L13.9545 14.5439C13.5955 14.5439 13.3045 14.835 13.3045 15.1939C13.3045 15.5529 13.5955 15.8439 13.9545 15.8439L15.0907 15.8439L15.0907 17.0879L8.90446 17.0879L8.90446 15.8439L9.98603 15.8439C10.345 15.8439 10.636 15.5529 10.636 15.1939C10.636 14.835 10.345 14.5439 9.98603 14.5439L8.90446 14.5439L8.90446 12.8439L9.98603 12.8439C10.345 12.8439 10.636 12.5529 10.636 12.1939C10.636 11.835 10.345 11.5439 9.98603 11.5439L8.90446 11.5439L8.90446 10.3Z"/></svg>