<svg xmlns="http://www.w3.org/2000/svg" fill="none" viewBox="0 0 24 24" focusable="false"><path fill="#717681" fill-rule="evenodd" d="M7.604 10.3a1.3 1.3 0 0 1 1.3-1.3h6.187a1.3 1.3 0 0 1 1.3 1.3v6.788a1.3 1.3 0 0 1-1.3 1.3H8.904a1.3 1.3 0 0 1-1.3-1.3V10.3m1.3 0h6.187v1.244h-1.136a.65.65 0 0 0 0 1.3h1.136v1.7h-1.136a.65.65 0 0 0 0 1.3h1.136v1.244H8.904v-1.244h1.082a.65.65 0 0 0 0-1.3H8.904v-1.7h1.082a.65.65 0 0 0 0-1.3H8.904V10.3" clip-rule="evenodd"/><path fill="#717681" fill-rule="evenodd" d="M5 9.766a3 3 0 0 1 .758-1.993l3.347-3.766A3 3 0 0 1 11.347 3H16a3 3 0 0 1 3 3v12a3 3 0 0 1-3 3H8a3 3 0 0 1-3-3V9.766M17.7 6v12a1.7 1.7 0 0 1-1.7 1.7H8A1.7 1.7 0 0 1 6.3 18V9.766a1.7 1.7 0 0 1 .43-1.13l3.347-3.765a1.7 1.7 0 0 1 1.27-.571H16A1.7 1.7 0 0 1 17.7 6" clip-rule="evenodd"/></svg>