<svg xmlns="http://www.w3.org/2000/svg" fill="none" viewBox="0 0 24 24" focusable="false"><path fill="none" d="M0 0h24v24H0z"/><path fill="#74767B" fill-rule="evenodd" d="M4.23 10.96c4.83-2.11 8.06-3.5 9.67-4.17 4.6-1.91 5.56-2.24 6.18-2.25.14-.01.44.03.64.19.17.13.22.32.24.45s.05.42.03.65c-.25 2.62-1.33 8.98-1.88 11.92-.23 1.24-.69 1.65-1.13 1.69-.97.09-1.7-.63-2.63-1.24-1.46-.96-2.28-1.55-3.7-2.49-1.63-1.08-.57-1.67.36-2.64.24-.25 4.48-4.11 4.57-4.46.01-.04.02-.2-.08-.29s-.24-.06-.34-.03c-.15.03-2.48 1.57-7 4.62-.66.45-1.26.67-1.79.66-.59-.01-1.73-.33-2.58-.61-1.04-.34-1.86-.51-1.79-1.09.04-.3.45-.6 1.23-.91"/></svg>