<svg xmlns="http://www.w3.org/2000/svg" fill="none" viewBox="0 0 24 24" focusable="false"><path fill="none" d="M0 0h24v24H0z"/><path fill="#74767B" fill-rule="evenodd" d="M12 3c-4.98 0-9 4.02-9 9 0 4.97 4.02 9 9 9a9 9 0 0 0 9-9c0-4.98-4.03-9-9-9m.32 6.64c-.88.36-2.63 1.12-5.25 2.26-.43.17-.65.34-.67.5-.03.27.31.38.78.53.06.02.12.04.19.06.46.15 1.08.32 1.4.33.29.01.62-.11.98-.36 2.45-1.66 3.71-2.49 3.79-2.51.06-.01.14-.03.19.02.05.04.05.13.04.16-.04.19-2.35 2.28-2.48 2.42l-.21.21c-.43.41-.75.72.02 1.22.77.51 1.21.83 2.01 1.35l.3.21c.37.27.71.51 1.12.47.24-.02.49-.25.62-.92.3-1.6.88-5.05 1.02-6.47.01-.13-.01-.29-.02-.36a.36.36 0 0 0-.13-.24c-.1-.09-.27-.11-.35-.11-.33.01-.85.19-3.35 1.23"/></svg>