<svg xmlns="http://www.w3.org/2000/svg" fill="none" viewBox="0 0 24 24" focusable="false"><path fill="none" d="M0 0h24v24H0z"/><path fill="#74767B" fill-rule="evenodd" d="M18.04 4.77a24.04 24.04 0 0 0-12.09 0 3.56 3.56 0 0 0-2.6 2.76c-.47 2.36-.47 4.79 0 7.15.26 1.33 1.27 2.4 2.6 2.75 2.4.63 4.88.88 7.35.74.32-.02.64.09.88.29l2.92 2.43c.05.05.13.06.19.03s.11-.09.11-.16v-2.82c0-.21.14-.38.34-.43.1-.03.2-.05.3-.08a3.56 3.56 0 0 0 2.6-2.75c.47-2.36.47-4.79 0-7.15a3.56 3.56 0 0 0-2.6-2.76m-2.29 2.37c.27 0 .49.22.49.49v1.69c0 .27-.22.48-.49.48h-1.72a.49.49 0 0 0-.49.49v4.6c0 .26-.22.48-.49.48h-1.96c-.27 0-.49-.22-.49-.48v-4.6a.49.49 0 0 0-.49-.49H8.39c-.27 0-.49-.21-.49-.48V7.63c0-.27.22-.49.49-.49z"/></svg>