<svg xmlns="http://www.w3.org/2000/svg" fill="none" viewBox="0 0 24 24" focusable="false"><path fill="none" d="M0 0h24v24H0z"/><path fill="#74767B" fill-rule="evenodd" d="M12 3c-4.98 0-9 4.02-9 9 0 4.97 4.02 9 9 9a9 9 0 0 0 9-9c0-4.98-4.03-9-9-9m-5.5 8.76C6.5 8.01 8.08 6.5 12 6.5c3.91 0 5.5 1.51 5.5 5.26 0 3.74-1.59 5.26-5.5 5.26-.29 0-.52 0-.93-.06l-1.09 1.28c-.2.24-.81.33-.81-.39V16.6c-.17 0-.57-.17-1.12-.53-.55-.39-1.55-1.31-1.55-4.31m.86 0c0-2.71.49-4.37 4.64-4.37 4.14 0 4.63 1.66 4.63 4.37 0 2.7-.49 4.37-4.63 4.37l-.75-.03-1.53 1.87c-.12.12-.23.03-.23-.09v-2.05c-.17 0-.89-.36-1.09-.56-.64-.69-1.04-1.19-1.04-3.51m4.85-3.09c-.1 0-.2-.01-.3 0-.09 0-.15.06-.15.15.01.08.07.14.15.14h.13c.05 0 .1.01.15.01.05.01.1.01.15.02.04 0 .08.01.12.02s.08.01.11.02c.06.02.11.03.16.05.04.01.09.02.13.04.05.02.09.03.13.05s.08.04.13.06l.12.06c.03.02.07.05.11.07s.08.05.12.08.08.06.11.09c.04.02.08.05.11.09.07.06.14.12.2.19.07.07.13.14.18.22.06.07.11.15.16.23s.09.17.13.25c.02.05.05.1.07.15.01.04.02.08.04.11.03.09.06.18.08.28a2.635 2.635 0 0 1 .07.56v.29c-.01.08.05.15.13.15.08.01.15-.05.15-.13.01-.06.01-.11.01-.17v-.15c0-.1-.01-.21-.03-.31-.01-.11-.03-.21-.05-.31-.03-.11-.06-.21-.09-.31-.04-.09-.08-.19-.12-.29q-.06-.135-.15-.27c-.05-.09-.11-.18-.17-.26-.06-.09-.13-.17-.2-.24-.07-.08-.14-.15-.22-.22-.04-.03-.08-.07-.12-.1l-.12-.09c-.05-.04-.1-.07-.15-.1-.03-.02-.07-.05-.11-.07-.05-.02-.09-.05-.14-.07s-.09-.04-.14-.06-.09-.04-.14-.06-.1-.03-.15-.05c-.06-.02-.11-.03-.17-.05-.04-.01-.08-.02-.13-.02-.04-.01-.09-.02-.14-.03-.05 0-.1-.01-.16-.02m.71 4.34q.285-.39.69-.12l1.03.8c.16.2.09.48-.2.83-.29.36-.55.51-.8.45-1.02-.24-2-.83-2.94-1.79-.94-.95-1.53-1.98-1.76-3.09 0-.39.24-.73.72-1.01.25-.18.46-.13.64.15l.72 1.04q.165.36-.21.66c-1.12.44 1.47 3.33 2.11 2.08m-.64-3.57h-.11c-.08 0-.15.06-.15.15 0 .08.07.15.15.15h.17l.17.03c.03.01.14.04.17.05.02.01.13.04.16.06.05.02.1.05.15.07.05.03.1.06.15.1.02.01.11.09.13.11.03.02.1.09.13.12.02.02.09.11.11.13.04.05.07.1.1.15s.06.1.08.15c.03.06.05.11.07.17.02.05.04.11.05.16.02.06.03.12.04.18s.01.12.02.17v.18c-.01.09.05.15.13.16.08 0 .15-.06.15-.14q.015-.105 0-.21c0-.07-.01-.14-.02-.21s-.02-.13-.04-.2l-.06-.2a.6.6 0 0 0-.05-.12c-.03-.06-.09-.19-.13-.25a.6.6 0 0 0-.08-.13c-.03-.03-.08-.1-.1-.13l-.21-.21c-.03-.02-.13-.1-.16-.13-.03-.01-.14-.09-.17-.11a2 2 0 0 1-.18-.09l-.19-.07c-.03-.01-.16-.04-.19-.05zm.19.8h-.11c-.08 0-.14.07-.13.15 0 .09.06.15.14.15a.8.8 0 0 1 .29.05c.05.02.09.04.13.07s.08.06.12.1c.03.03.06.07.09.11.03.05.05.09.07.14s.03.09.04.14c.01.06.01.11.01.16 0 .08.06.15.14.15s.14-.06.15-.14c0-.07-.01-.15-.02-.22s-.03-.13-.05-.2a1.01 1.01 0 0 0-.23-.35c-.03-.03-.13-.12-.16-.14-.06-.04-.12-.07-.18-.1-.07-.02-.13-.04-.2-.05-.03-.01-.07-.01-.1-.02"/></svg>