<svg xmlns="http://www.w3.org/2000/svg" fill="none" viewBox="0 0 24 24" focusable="false"><path fill="none" d="M0 0h24v24H0z"/><path fill="#74767B" fill-rule="evenodd" d="M20.84 6.89c-.16-1.17-.48-2-1.11-2.63s-1.46-.95-2.63-1.11c-.11-.01-.23-.03-.34-.04C15.63 3 14.2 3 12.36 3h-.73c-1.98 0-3.48 0-4.64.14-1.23.15-2.08.47-2.73 1.12-.63.63-.95 1.46-1.11 2.63-.01.11-.03.23-.04.34C3 8.36 3 9.79 3 11.64v.72c0 1.98 0 3.48.14 4.64.15 1.23.47 2.08 1.12 2.73.54.54 1.23.85 2.16 1.03 1.23.24 2.89.24 5.21.24h.73c2.03 0 3.56 0 4.74-.16 1.17-.16 2-.48 2.63-1.11.54-.54.85-1.23 1.03-2.16.24-1.23.24-2.89.24-5.21v-.72c0-2.04 0-3.57-.16-4.75M10.65 8.68c-.22.3-.22.82-.22 1.88v2.88c0 1.04 0 1.57.22 1.87.19.27.49.44.81.47.38.04.83-.22 1.73-.74l2.53-1.46c.89-.52 1.34-.77 1.49-1.12.14-.29.14-.64 0-.93-.15-.35-.6-.61-1.51-1.14l-2.5-1.44c-.91-.52-1.36-.78-1.74-.74-.32.03-.62.2-.81.47M7.88 20.21c-.32-.02-.62-.05-.89-.09-1.1-.14-1.74-.42-2.22-.9s-.76-1.12-.9-2.22c-.15-1.12-.16-2.59-.16-4.64v-.72c0-2.06.01-3.53.16-4.65.14-1.1.42-1.74.9-2.22s1.12-.76 2.22-.9c.27-.04.56-.07.88-.09-.22.14-.42.29-.61.48C6 5.52 6 7.56 6 11.63v.72c0 4.08 0 6.11 1.26 7.38.19.18.39.34.62.48"/></svg>