<svg xmlns="http://www.w3.org/2000/svg" fill="none" viewBox="0 0 24 24" focusable="false"><path fill="none" d="M0 0h24v24H0z"/><path fill="#74767B" fill-rule="evenodd" d="M3 10.44C3 7.41 5.89 5 9.48 5c3.27 0 5.96 2 6.41 4.58h-.36c-3.27 0-5.92 2.22-5.92 4.96 0 .46.07.91.2 1.35h-.36c-.74 0-1.47-.08-2.13-.28a.45.45 0 0 0-.2-.04c-.12 0-.21 0-.33.08l-1.43.82c-.03.02-.08.04-.12.04-.03 0-.05 0-.08-.01s-.05-.03-.07-.05q-.01-.01-.02-.03l-.02-.04a.1.1 0 0 1-.01-.08c0-.04.03-.13.04-.16 0-.04.16-.7.28-1.11.02-.05.03-.1.03-.16 0-.07-.03-.25-.15-.33C3.85 13.56 3 12.08 3 10.44m4.15-.87c.06.01.12.01.17.01.06 0 .11 0 .17-.02.05-.01.11-.02.16-.05q.04-.01.09-.04.03-.01.06-.04c.04-.03.09-.06.13-.1s.07-.09.1-.13c.03-.05.06-.1.08-.15s.04-.11.05-.16c.01-.06.02-.11.02-.17 0-.05-.01-.11-.02-.17a1 1 0 0 0-.05-.16c-.02-.05-.05-.1-.08-.15-.03-.04-.06-.09-.1-.13s-.09-.07-.13-.1c-.05-.03-.1-.06-.15-.08-.06-.02-.11-.04-.17-.05a1 1 0 0 0-.16-.02 1 1 0 0 0-.17.02c-.06.01-.11.03-.16.05s-.1.05-.15.08-.09.07-.13.11-.08.08-.11.13a.5.5 0 0 0-.08.15c-.02.05-.03.1-.05.16-.01.05-.01.11-.01.17 0 .05 0 .11.02.16.01.06.02.11.04.16.03.06.05.11.08.15.04.05.07.09.11.13s.09.08.13.11c.05.03.1.06.15.08s.11.04.16.05m4.33 0c.06.01.11.01.17.01.49 0 .9-.41.86-.86 0-.45-.41-.86-.86-.86-.06 0-.11.01-.17.02s-.11.03-.16.05-.1.05-.15.08-.09.06-.13.1l-.06.08q-.03.02-.05.06c-.03.04-.06.09-.08.14-.02.06-.03.11-.05.17-.01.05-.01.11-.01.16 0 .06 0 .12.01.17.02.06.03.11.05.16s.05.1.08.15q.02.03.05.06.03.04.06.07c.04.04.08.08.13.11s.1.06.15.08.1.04.16.05M21 14.54c0 1.39-.74 2.62-1.88 3.44-.06.04-.1.09-.13.14-.03.06-.05.12-.05.19 0 .04.01.08.02.12.08.33.24.84.25.89.02.04.03.09.03.14 0 .04-.02.08-.05.11a.16.16 0 0 1-.11.05c-.04-.01-.09-.02-.12-.04l-1.19-.7a.6.6 0 0 0-.29-.08c-.04 0-.07.01-.16.04-.53.17-1.14.25-1.75.25-3.02 0-5.43-2.05-5.43-4.55s2.41-4.55 5.43-4.55S21 12.04 21 14.54m-7.31-.74h.08c.05 0 .1 0 .14-.01.05-.01.1-.02.14-.04.05-.02.09-.04.13-.07s.08-.06.11-.09c.04-.04.07-.07.09-.12.03-.04.05-.08.07-.12.02-.05.03-.09.04-.14s.02-.1.02-.15c0-.04-.01-.09-.02-.14a1 1 0 0 0-.04-.14c-.02-.04-.04-.09-.07-.13s-.06-.07-.09-.11c-.04-.03-.07-.06-.11-.09s-.09-.05-.13-.07a1 1 0 0 0-.14-.04c-.05-.01-.1-.01-.14-.01-.05 0-.1 0-.15.01s-.09.02-.14.04c-.04.02-.08.04-.12.07l-.12.09q-.02.03-.04.05-.03.03-.05.07c-.02.04-.05.08-.07.12-.01.05-.03.09-.04.14s-.01.1-.01.15 0 .09.01.14.03.09.05.14c.01.04.04.09.06.13a1 1 0 0 0 .21.2c.04.03.08.05.13.07.04.02.09.03.14.04q.03.01.06.01m3.53-.01c.05.01.09.01.14.01s.1 0 .15-.01c.04-.01.09-.02.13-.04q.03-.02.06-.03.04-.02.07-.04c.04-.03.08-.06.11-.09a.6.6 0 0 0 .1-.12l.06-.12c.02-.05.03-.09.04-.14s.02-.1.02-.15c0-.04-.01-.09-.02-.14a1 1 0 0 0-.04-.14c-.02-.04-.04-.09-.07-.13-.02-.04-.06-.07-.09-.11-.03-.03-.07-.06-.11-.09a.5.5 0 0 0-.13-.07c-.04-.02-.09-.03-.14-.04s-.09-.01-.14-.01-.1 0-.15.01c-.04.01-.09.02-.14.04-.04.02-.08.04-.12.07s-.08.06-.11.09c-.04.04-.07.08-.1.12-.02.04-.05.08-.06.12-.02.05-.04.09-.05.14s-.01.1-.01.15.01.09.02.14c0 .05.02.09.04.14.02.04.04.09.07.13.02.04.05.07.09.11.03.03.07.06.11.09s.08.05.13.07c.04.02.09.03.14.04"/></svg>