<svg xmlns="http://www.w3.org/2000/svg" fill="none" viewBox="0 0 24 24" focusable="false"><path fill="none" d="M0 0h24v24H0z"/><path fill="#74767B" fill-rule="evenodd" d="M12 3c-4.98 0-9 4.02-9 9 0 4.97 4.02 9 9 9a9 9 0 0 0 9-9c0-4.98-4.03-9-9-9m-1.66 4.2c-2.29 0-4.15 1.54-4.15 3.48 0 1.04.55 1.99 1.44 2.61.08.06.09.17.09.22 0 .03 0 .06-.01.1-.08.26-.18.68-.19.71 0 .02-.02.07-.02.1.01.01.06.12.08.12.03 0 .1 0 .13-.02l.91-.52c.08-.05.13-.05.21-.05.04 0 .09.01.13.02.42.14.89.19 1.36.19h.23c-.09-.28-.13-.57-.13-.87 0-1.75 1.7-3.16 3.78-3.16h.24c-.29-1.65-2.01-2.93-4.1-2.93m-1.38 2.93c-.04 0-.07-.01-.11-.01l-.1-.03-.18-.12c-.02-.03-.11-.15-.12-.18l-.03-.1c-.01-.04-.01-.08-.01-.11 0-.04 0-.07.01-.11 0-.03.02-.07.03-.1.02-.03.09-.16.12-.18s.14-.11.18-.12c.03-.01.06-.02.1-.03.03-.01.07-.01.11-.01.03 0 .07 0 .1.01.04 0 .07.01.11.03.03.02.15.09.18.12.02.03.1.14.11.18a.3.3 0 0 1 .04.1c0 .03.01.07.01.11 0 .03-.01.07-.01.1-.01.04-.02.07-.04.11-.02.03-.09.15-.11.17-.03.02-.15.11-.18.12-.03.02-.07.03-.1.03-.04.01-.07.02-.11.02m2.76 0c-.03 0-.07-.01-.1-.01a.5.5 0 0 1-.11-.04c-.03-.02-.15-.09-.18-.11-.02-.03-.1-.15-.11-.18a.5.5 0 0 1-.04-.11c0-.03-.01-.07-.01-.1 0-.04.01-.08.01-.11a.3.3 0 0 1 .04-.1c.02-.03.09-.16.11-.18.03-.02.15-.11.18-.12.04-.01.07-.03.11-.03.03-.01.07-.01.1-.01.29 0 .55.26.55.55.03.28-.23.55-.55.55m4.78 5.36c.73-.52 1.2-1.31 1.2-2.2 0-1.59-1.54-2.9-3.47-2.9s-3.47 1.31-3.47 2.9c0 1.6 1.54 2.91 3.47 2.91.39 0 .78-.05 1.12-.16.05-.02.08-.02.1-.02.07 0 .13.01.18.05l.76.44c.03 0 .13.02.15 0 0-.03.03-.13.02-.16-.01-.04-.11-.36-.17-.57 0-.04.09-.25.11-.29m-3.42-2.67c-.03 0-.15-.02-.18-.03-.03-.02-.13-.08-.16-.1-.01-.03-.09-.13-.1-.16 0-.03-.03-.15-.03-.18s.02-.15.03-.18c.02-.02.08-.13.1-.15.03-.02.13-.09.16-.1s.15-.04.18-.04.15.02.18.03c.02.02.13.08.15.11.02.02.09.12.1.15s.04.15.04.18c-.01.03-.02.15-.04.18-.01.03-.08.13-.1.15s-.12.09-.15.11c-.03.01-.15.03-.18.03m2.29 0c-.03 0-.15-.02-.18-.03-.02-.02-.13-.08-.15-.1-.02-.03-.09-.13-.1-.16s-.04-.15-.04-.18c.01-.03.02-.15.04-.18.01-.02.08-.13.1-.15s.12-.09.15-.1.15-.04.18-.04.15.02.18.03c.03.02.13.08.16.11.01.02.09.12.1.15 0 .03.03.15.03.18s-.02.15-.03.18c-.02.03-.08.13-.1.15l-.16.11c-.02.01-.15.03-.18.03"/></svg>