<svg xmlns="http://www.w3.org/2000/svg" fill="none" viewBox="0 0 24 24" focusable="false"><path fill="none" d="M0 0h24v24H0z"/><path fill="#74767B" fill-rule="evenodd" d="M12 3c-4.98 0-9 4.02-9 9 0 4.97 4.02 9 9 9a9 9 0 0 0 9-9c0-4.98-4.03-9-9-9m.02 3.5c1.46 0 2.84.57 3.87 1.6a5.44 5.44 0 0 1 1.61 3.88c-.01 3.02-2.47 5.47-5.48 5.47-.92 0-1.82-.23-2.62-.66l-2.9.76.77-2.84c-.48-.83-.73-1.77-.73-2.74C6.54 8.95 9 6.5 12.02 6.5M9.7 15.89c.7.42 1.5.64 2.32.64 2.51 0 4.55-2.04 4.55-4.55 0-1.22-.47-2.36-1.33-3.22-.86-.87-2-1.34-3.22-1.34-2.51 0-4.55 2.04-4.55 4.55 0 .86.24 1.7.69 2.42l.11.18-.46 1.68 1.72-.46zm3.88-3.22c.13.05.8.38.94.45.13.07.22.1.26.16.03.06.03.33-.08.65-.12.32-.66.61-.93.65-.23.04-.53.05-.86-.05-.2-.07-.45-.15-.78-.29-1.37-.59-2.27-1.98-2.34-2.07-.06-.09-.56-.74-.56-1.41 0-.68.36-1.01.48-1.15a.55.55 0 0 1 .37-.17c.09 0 .18 0 .26.01.08 0 .21 0 .31.23.11.28.39.95.42 1.02.04.07.06.15.01.24-.04.09-.07.15-.13.23-.07.08-.15.18-.21.24-.07.06-.14.14-.06.28.08.13.35.58.76.94.52.47.97.61 1.1.68.14.07.22.06.3-.03s.34-.4.43-.54c.09-.13.18-.11.31-.07"/></svg>