<svg xmlns="http://www.w3.org/2000/svg" fill="none" viewBox="0 0 24 24" focusable="false"><path fill="none" d="M0 0h24v24H0z"/><path fill="#74767B" fill-rule="evenodd" d="M18.37 5.62A8.9 8.9 0 0 0 12.03 3c-4.94 0-8.96 4.02-8.96 8.96 0 1.58.41 3.12 1.2 4.48L3 21.08l4.75-1.24c1.31.71 2.78 1.09 4.28 1.09 4.94 0 8.96-4.02 8.97-8.97 0-2.39-.94-4.64-2.63-6.34m-6.34 13.79c-1.33 0-2.65-.36-3.79-1.04l-.27-.16-2.82.74.75-2.75-.18-.28a7.5 7.5 0 0 1-1.14-3.96c.01-4.11 3.35-7.45 7.46-7.45 1.99 0 3.86.78 5.26 2.18a7.4 7.4 0 0 1 2.18 5.27c0 4.11-3.34 7.45-7.45 7.45m4.09-5.58c-.23-.11-1.33-.65-1.53-.72-.21-.08-.36-.12-.51.11-.14.22-.57.73-.7.88s-.27.16-.49.05-.94-.35-1.8-1.11c-.67-.59-1.12-1.33-1.25-1.55-.13-.23-.01-.35.1-.46.1-.1.23-.26.34-.39s.15-.22.22-.37c.08-.15.04-.28-.02-.4-.05-.11-.5-1.21-.69-1.66-.18-.44-.36-.38-.5-.38-.13-.01-.28-.01-.43-.01s-.39.05-.6.28c-.2.22-.78.77-.78 1.87s.8 2.16.91 2.31c.12.15 1.58 2.42 3.83 3.39.53.23.95.36 1.28.47.53.17 1.02.14 1.41.09.43-.07 1.32-.55 1.51-1.07.18-.52.18-.97.13-1.06-.06-.1-.21-.15-.43-.27"/></svg>