<svg xmlns="http://www.w3.org/2000/svg" fill="none" viewBox="0 0 24 24" focusable="false"><defs><clipPath id="Wifi_Outline_svg__a"><path fill="#fff" fill-opacity="0" d="M0 0h24v24H0z"/></clipPath></defs><g clip-path="url(#Wifi_Outline_svg__a)"><path fill="#717681" fill-rule="evenodd" d="M7.72 7.63c1.36-.56 2.81-.85 4.28-.85 1.46 0 2.91.29 4.27.85s2.59 1.38 3.62 2.42c.26.25.67.25.92 0a.64.64 0 0 0 0-.92 12.25 12.25 0 0 0-4.04-2.7 12.465 12.465 0 0 0-9.55 0c-1.51.62-2.89 1.54-4.04 2.7a.64.64 0 0 0 0 .92c.25.25.66.25.92 0a11 11 0 0 1 3.62-2.42M12 10.1c-1.04 0-2.06.2-3.01.6-.95.39-1.81.97-2.54 1.7-.26.25-.67.25-.92 0a.64.64 0 0 1 0-.92A9.16 9.16 0 0 1 12 8.8a9.15 9.15 0 0 1 6.46 2.68c.26.25.26.67 0 .92-.25.25-.66.25-.92 0A7.7 7.7 0 0 0 15 10.7c-.95-.4-1.97-.6-3-.6m-1.74 3.67c.55-.23 1.14-.35 1.74-.35a4.52 4.52 0 0 1 3.19 1.33c.26.25.67.25.92 0a.64.64 0 0 0 0-.92c-.54-.54-1.18-.97-1.89-1.26-.7-.3-1.46-.45-2.22-.45-.77 0-1.53.15-2.23.45-.71.29-1.35.72-1.89 1.26a.64.64 0 0 0 0 .92c.25.25.66.25.92 0 .42-.42.92-.75 1.46-.98m4.24 2.42c.13.11.13.3.01.42l-2.3 2.3c-.12.12-.31.12-.43 0l-2.3-2.3a.282.282 0 0 1 .01-.42c.31-.26.65-.48 1.03-.63.47-.19.97-.29 1.48-.29.5 0 1 .1 1.47.29.38.15.72.37 1.03.63"/></g></svg>