<svg xmlns="http://www.w3.org/2000/svg" fill="none" viewBox="0 0 24 24" focusable="false"><path fill="#74767B" fill-rule="evenodd" d="M3 12c0-4.98 4.02-9 9-9 4.97 0 9 4.02 9 9a9 9 0 0 1-9 9c-4.98 0-9-4.03-9-9m10.9 4.2c.12-.12.12-.31-.01-.42-.22-.18-.48-.33-.75-.44a2.8 2.8 0 0 0-1.14-.23c-.4 0-.79.07-1.15.23-.27.11-.53.26-.75.44-.13.11-.13.3-.01.42l1.69 1.7c.12.11.31.11.43 0zm-3.2-2.12c.41-.17.85-.26 1.3-.26.44 0 .88.09 1.29.26s.78.41 1.09.73c.26.25.67.25.92 0a.64.64 0 0 0 0-.92 4.62 4.62 0 0 0-3.3-1.37 4.622 4.622 0 0 0-3.31 1.37.64.64 0 0 0 0 .92c.25.25.66.25.92 0 .31-.32.68-.56 1.09-.73m1.3-2.85c-.79 0-1.56.16-2.29.46-.72.3-1.38.73-1.93 1.29-.26.25-.67.25-.92 0a.66.66 0 0 1 0-.92c.67-.68 1.47-1.21 2.36-1.58A7.3 7.3 0 0 1 12 9.93c.95 0 1.89.19 2.77.55.89.37 1.69.9 2.36 1.58.25.25.25.66 0 .92-.25.25-.66.25-.92 0-.55-.56-1.21-.99-1.93-1.29-.73-.3-1.5-.46-2.28-.46M8.72 9.3a8.57 8.57 0 0 1 9.32 1.85c.25.25.67.25.92 0s.25-.67 0-.92c-.91-.91-2-1.64-3.2-2.14A9.9 9.9 0 0 0 12 7.34c-1.3 0-2.58.26-3.77.75-1.2.5-2.29 1.23-3.2 2.14-.25.25-.25.67 0 .92s.67.25.92 0A8.6 8.6 0 0 1 8.72 9.3"/></svg>