<svg xmlns="http://www.w3.org/2000/svg" fill="none" viewBox="0 0 24 24" focusable="false"><path fill="#717681" fill-rule="evenodd" d="M7.725 7.632A11.172 11.172 0 0 1 19.9 10.054a.65.65 0 0 0 .919-.92 12.472 12.472 0 0 0-17.638 0 .65.65 0 0 0 .92.92 11.172 11.172 0 0 1 3.624-2.422ZM12 10.106a7.846 7.846 0 0 0-5.549 2.298.65.65 0 0 1-.919-.92 9.148 9.148 0 0 1 12.936 0 .65.65 0 1 1-.92.92A7.846 7.846 0 0 0 12 10.106Zm-1.73 3.667a4.524 4.524 0 0 1 4.929.98.65.65 0 1 0 .919-.918 5.821 5.821 0 0 0-8.235 0 .65.65 0 1 0 .919.919c.42-.42.919-.753 1.467-.98Zm4.236 2.423a.283.283 0 0 1 .008.416l-2.302 2.301a.3.3 0 0 1-.424 0l-2.301-2.301a.283.283 0 0 1 .008-.416 3.856 3.856 0 0 1 5.01 0Z" clip-rule="evenodd"/></svg>