<svg xmlns="http://www.w3.org/2000/svg" fill="none" viewBox="0 0 24 24" focusable="false"><path fill="#74767B" fill-rule="evenodd" d="M12 3C7.02954 3 3 7.02945 3 12C3 16.9706 7.02954 21 12 21C16.9705 21 21 16.9706 21 12C21 7.02945 16.9705 3 12 3ZM16.6741 7L12.9514 11.2343L17 17L14.0222 17L11.2957 13.1174L7.88232 17L7 17L10.9041 12.5597L7 7L9.97778 7L12.5596 10.6766L15.792 7L16.6741 7ZM11.3474 12.055L11.7432 12.6086L14.4373 16.3797L15.7922 16.3797L12.4907 11.7586L12.0952 11.205L9.55518 7.64984L8.2002 7.64984L11.3474 12.055Z"/></svg>