<svg xmlns="http://www.w3.org/2000/svg" fill="none" viewBox="0 0 24 24" focusable="false"><path fill="none" d="M0 0h24v24H0z"/><path fill="#74767B" fill-rule="evenodd" d="M12 3c-4.98 0-9 4.02-9 9 0 4.97 4.02 9 9 9a9 9 0 0 0 9-9c0-4.98-4.03-9-9-9m4.29 5.37c.48.13.85.5.98.98.23.85.23 2.64.23 2.64s0 1.8-.23 2.65c-.13.48-.5.85-.98.98-.85.22-4.29.22-4.29.22s-3.44 0-4.3-.22c-.48-.13-.85-.5-.98-.98-.22-.85-.22-2.65-.22-2.65s0-1.79.22-2.64c.13-.48.5-.85.98-.98.86-.22 4.3-.22 4.3-.22s3.44 0 4.29.22m-5.39 5.28 2.85-1.66-2.85-1.65z"/></svg>