<svg width="24.000000" height="24.000000" viewBox="0 0 24 24" fill="none" xmlns="http://www.w3.org/2000/svg" xmlns:xlink="http://www.w3.org/1999/xlink">
	<desc>
			Created with Pixso.
	</desc>
	<defs>
		<clipPath id="clip17_1146">
			<rect id="Outline / Align Middle Outline" width="24.000000" height="24.000000" fill="white" fill-opacity="0"/>
		</clipPath>
	</defs>
	<g clip-path="url(#clip17_1146)">
		<path id="Shape" d="M11.35 7.97L11.35 2.64C11.35 2.29 11.64 2 12 2C12.35 2 12.64 2.29 12.64 2.64L12.64 7.97L15.09 5.51C15.35 5.26 15.76 5.26 16.01 5.51C16.27 5.77 16.27 6.18 16.01 6.43L12.45 9.99C12.2 10.25 11.79 10.25 11.54 9.99L7.98 6.43C7.72 6.18 7.72 5.77 7.98 5.51C8.23 5.26 8.64 5.26 8.9 5.51L11.35 7.97ZM12.45 14L16.01 17.56C16.27 17.81 16.27 18.22 16.01 18.48C15.76 18.73 15.35 18.73 15.09 18.48L12.64 16.02L12.64 21.35C12.64 21.7 12.35 22 11.99 22C11.64 22 11.35 21.7 11.35 21.35L11.35 16.02L8.9 18.48C8.64 18.73 8.23 18.73 7.98 18.48C7.72 18.22 7.72 17.81 7.98 17.56L11.54 14C11.79 13.74 12.2 13.74 12.45 14ZM19.35 12.68C19.7 12.68 20 12.39 20 12.03C20 11.68 19.7 11.38 19.35 11.38L4.64 11.38C4.29 11.38 4 11.68 4 12.03C4 12.39 4.29 12.68 4.64 12.68L19.35 12.68Z" fill="#74767B" fill-opacity="1.000000" fill-rule="evenodd"/>
	</g>
</svg>
