<svg width="24.000000" height="24.000000" viewBox="0 0 24 24" fill="none" xmlns="http://www.w3.org/2000/svg" xmlns:xlink="http://www.w3.org/1999/xlink">
	<desc>
			Created with Pixso.
	</desc>
	<defs>
		<clipPath id="clip17_1137">
			<rect id="Outline / Align Left Outline" width="24.000000" height="24.000000" fill="white" fill-opacity="0"/>
		</clipPath>
	</defs>
	<g >
		<path id="Shape" d="M4.64 5.5C4.29 5.5 4 5.79 4 6.14C4 6.5 4.29 6.79 4.64 6.79L19.35 6.79C19.7 6.79 20 6.5 20 6.14C20 5.79 19.7 5.5 19.35 5.5L4.64 5.5ZM4.64 13.3C4.29 13.3 4 13.59 4 13.95C4 14.3 4.29 14.59 4.64 14.59L19.35 14.59C19.7 14.59 20 14.3 20 13.95C20 13.59 19.7 13.3 19.35 13.3L4.64 13.3ZM4 10.04C4 9.69 4.29 9.4 4.64 9.4L12.35 9.4C12.71 9.4 13 9.69 13 10.04C13 10.4 12.71 10.69 12.35 10.69L4.64 10.69C4.29 10.69 4 10.4 4 10.04ZM4.64 17.2C4.29 17.2 4 17.49 4 17.85C4 18.2 4.29 18.5 4.64 18.5L12.35 18.5C12.71 18.5 13 18.2 13 17.85C13 17.49 12.71 17.2 12.35 17.2L4.64 17.2Z" fill="#74767B" fill-opacity="1.000000" fill-rule="evenodd"/>
	</g>
</svg>
