<svg width="24.000000" height="24.000000" viewBox="0 0 24 24" fill="none" xmlns="http://www.w3.org/2000/svg" xmlns:xlink="http://www.w3.org/1999/xlink">
	<desc>
			Created with Pixso.
	</desc>
	<defs>
		<clipPath id="clip17_1143">
			<rect id="Outline / Align Center Outline" width="24.000000" height="24.000000" fill="white" fill-opacity="0"/>
		</clipPath>
	</defs>
	<g >
		<path id="Shape" d="M4.64 5.5C4.29 5.5 4 5.79 4 6.15C4 6.5 4.29 6.79 4.64 6.79L19.35 6.79C19.7 6.79 20 6.5 20 6.15C20 5.79 19.7 5.5 19.35 5.5L4.64 5.5ZM4.64 13.3C4.29 13.3 4 13.59 4 13.95C4 14.3 4.29 14.6 4.64 14.6L19.35 14.6C19.7 14.6 20 14.3 20 13.95C20 13.59 19.7 13.3 19.35 13.3L4.64 13.3ZM7.49 10.05C7.49 9.69 7.78 9.4 8.14 9.4L15.85 9.4C16.21 9.4 16.5 9.69 16.5 10.05C16.5 10.4 16.21 10.7 15.85 10.7L8.14 10.7C7.78 10.7 7.49 10.4 7.49 10.05ZM8.14 17.2C7.78 17.2 7.49 17.49 7.49 17.85C7.49 18.2 7.78 18.5 8.14 18.5L15.85 18.5C16.21 18.5 16.5 18.2 16.5 17.85C16.5 17.49 16.21 17.2 15.85 17.2L8.14 17.2Z" fill="#74767B" fill-opacity="1.000000" fill-rule="evenodd"/>
	</g>
</svg>
