<svg viewBox="0 0 24 24" xmlns="http://www.w3.org/2000/svg" xmlns:xlink="http://www.w3.org/1999/xlink" width="24.000000" height="24.000000" fill="none">
	<rect id="Outline/All Caps Outline" width="24.000000" height="24.000000" x="0.000000" y="0.000000" />
	<path id="Shape" d="M3.041 16.0657L4.13503 12.8731L6.0917 7.16318C6.15154 6.98853 6.23211 6.83091 6.33339 6.69032C6.35421 6.66142 6.37591 6.63323 6.39849 6.60577C6.48574 6.49962 6.58607 6.40422 6.69948 6.31957C6.84216 6.21308 6.99269 6.1332 7.15106 6.07994C7.30953 6.02665 7.47584 6 7.65002 6C7.80435 6 7.95252 6.02093 8.09452 6.06277C8.11273 6.06814 8.13084 6.07385 8.14885 6.07991C8.30726 6.13318 8.45782 6.21308 8.60053 6.31961C8.74324 6.42614 8.86524 6.5497 8.96652 6.69028C9.06781 6.83088 9.14839 6.98851 9.20824 7.16318L12.259 16.0658C12.3841 16.4308 12.2139 16.8226 11.8721 16.9562C11.5304 17.0898 11.1637 16.908 11.0386 16.543L10.1006 13.8057L5.19936 13.8057L4.26142 16.5428C4.13634 16.9078 3.76957 17.0896 3.42785 16.956C3.08613 16.8224 2.91592 16.4307 3.041 16.0657ZM19.3615 6L14.2872 6C13.9024 6 13.6001 6.30544 13.6001 6.69417L13.6001 16.3058C13.6001 16.6946 13.9024 17 14.2872 17C14.3061 17 14.3248 16.9993 14.3433 16.9978C14.3639 16.9993 14.3849 17 14.4062 17L17.9344 17C18.3577 17 18.75 16.9244 19.1113 16.7732C19.4726 16.622 19.8029 16.3953 20.1022 16.0929C20.4015 15.7905 20.626 15.4568 20.7756 15.0918C20.9253 14.7268 21.0001 14.3305 21.0001 13.9029C21.0001 13.4753 20.9253 13.079 20.7756 12.714C20.626 12.349 20.4015 12.0153 20.1022 11.7129C19.8029 11.4106 19.4726 11.1838 19.1113 11.0326C19.105 11.03 19.0988 11.0274 19.0925 11.0248C18.7364 10.8788 18.3504 10.8058 17.9344 10.8058L14.9744 10.8058L14.9744 7.38835L19.3615 7.38835C19.7463 7.38835 20.0487 7.08291 20.0487 6.69417C20.0487 6.30544 19.7463 6 19.3615 6ZM7.98782 7.64033L9.62486 12.4175L5.67506 12.4176L7.31212 7.64033C7.3409 7.55633 7.38343 7.49331 7.4397 7.45128C7.49603 7.40921 7.56614 7.38817 7.65002 7.38817C7.73382 7.38817 7.80386 7.40918 7.86017 7.45121C7.91647 7.49324 7.95902 7.55628 7.98782 7.64033ZM17.9344 15.6116L14.9744 15.6116L14.9744 12.1942L17.9344 12.1942C18.1679 12.1942 18.3844 12.2359 18.5837 12.3193C18.783 12.4027 18.9653 12.5278 19.1304 12.6947C19.2955 12.8615 19.4194 13.0456 19.502 13.247C19.5845 13.4483 19.6258 13.667 19.6258 13.9029C19.6258 14.1388 19.5845 14.3575 19.502 14.5589C19.4194 14.7602 19.2955 14.9443 19.1304 15.1112C18.9653 15.278 18.783 15.4031 18.5837 15.4865C18.3844 15.5699 18.1679 15.6116 17.9344 15.6116Z" fill="rgb(116,118,123)" fill-rule="evenodd" />
</svg>
