<svg viewBox="0 0 24 24" xmlns="http://www.w3.org/2000/svg" xmlns:xlink="http://www.w3.org/1999/xlink" width="24.000000" height="24.000000" fill="none">
	<rect id="Solid/All Caps Solid" width="24.000000" height="24.000000" x="0.000000" y="0.000000" />
	<path id="Shape" d="M21 6C21 4.34315 19.6569 3 18 3L6 3C4.34315 3 3 4.34315 3 6L3 18C3 19.6569 4.34315 21 6 21L18 21C19.6569 21 21 19.6569 21 18L21 6ZM4.43102 15.3264L5.30652 12.9346L6.87232 8.65677C6.9249 8.51311 6.99568 8.38347 7.08467 8.26783L7.08467 8.26782C7.17368 8.15216 7.28089 8.05051 7.40631 7.96287C7.53167 7.87527 7.66392 7.80957 7.80307 7.76576L7.80319 7.76573C7.94237 7.72192 8.08846 7.70001 8.24143 7.70001C8.39442 7.70001 8.54051 7.72192 8.6797 7.76574C8.81888 7.80956 8.95116 7.87528 9.07654 7.9629C9.20193 8.05053 9.30912 8.15216 9.3981 8.2678C9.48709 8.38345 9.55788 8.5131 9.61047 8.65677L12.0518 15.3265C12.1769 15.6684 12.0067 16.0352 11.6648 16.1604C11.323 16.2855 10.9561 16.1152 10.831 15.7734L10.1116 13.8079L6.37117 13.808L5.65181 15.7732C5.5267 16.1151 5.15982 16.2853 4.818 16.1602C4.47617 16.0351 4.30591 15.6682 4.43102 15.3264ZM14.69 9.00001L14.69 11.3L17.16 11.3C17.4982 11.3 17.8117 11.3598 18.1004 11.4794L18.1005 11.4794L18.1005 11.4794C18.3893 11.599 18.6532 11.7784 18.8924 12.0176C19.1316 12.2568 19.311 12.5208 19.4306 12.8095C19.5502 13.0982 19.61 13.4117 19.61 13.75C19.61 14.0883 19.5502 14.4018 19.4306 14.6905C19.311 14.9793 19.1316 15.2432 18.8924 15.4824C18.6532 15.7216 18.3893 15.901 18.1005 16.0206C17.8118 16.1402 17.4983 16.2 17.16 16.2L14.13 16.2C14.1141 16.2 14.0983 16.1996 14.0827 16.1987C14.0686 16.1996 14.0544 16.2 14.04 16.2C13.676 16.2 13.39 15.914 13.39 15.55L13.39 8.35001C13.39 7.98601 13.676 7.70001 14.04 7.70001L18.2712 7.70001C18.6352 7.70001 18.9212 7.98601 18.9212 8.35001C18.9212 8.71401 18.6352 9.00001 18.2712 9.00001L14.69 9.00001ZM8.38968 9.10361L9.63577 12.5079L6.84701 12.508L8.09311 9.10361C8.10574 9.06912 8.12439 9.04323 8.14907 9.02597C8.17381 9.00866 8.20459 9.00001 8.24143 9.00001C8.27821 9.00001 8.30895 9.00865 8.33366 9.02591C8.35837 9.04318 8.37704 9.06908 8.38968 9.10361ZM14.69 14.9L14.69 12.6L17.16 12.6C17.3188 12.6 17.4659 12.6281 17.6015 12.6842C17.737 12.7404 17.8609 12.8246 17.9732 12.9368C18.0855 13.0491 18.1697 13.173 18.2258 13.3085C18.2819 13.4441 18.31 13.5912 18.31 13.75C18.31 13.9088 18.2819 14.056 18.2258 14.1915C18.1697 14.327 18.0855 14.4509 17.9732 14.5632C17.8609 14.6755 17.737 14.7597 17.6015 14.8158C17.466 14.8719 17.3188 14.9 17.16 14.9L14.69 14.9Z" fill="rgb(116,118,123)" fill-rule="evenodd" />
</svg>
