<svg width="24" height="24" viewBox="0 0 24 24" fill="none" xmlns="http://www.w3.org/2000/svg">
<path d="M7.6542 18.6953C6.36747 18.6838 5.32794 17.6361 5.32794 16.3454V15.9912C5.32794 15.9239 5.31773 15.859 5.29877 15.798V15.6881C5.29877 15.3291 5.00803 15.0381 4.64938 15.0381C4.29074 15.0381 4 15.3291 4 15.6881V16.3453C4 16.6402 4.03507 16.9278 4.10156 17.2037C4.11853 17.2741 4.14636 17.3391 4.18285 17.3972C4.53998 18.5871 5.48741 19.5213 6.68462 19.859C6.71783 19.8732 6.75268 19.8849 6.78898 19.8937C7.06465 19.9602 7.35193 19.9953 7.64654 19.9953H7.6488C7.65776 19.9954 7.66673 19.9954 7.67571 19.9954H16.3535C18.3674 19.9954 20 18.3612 20 16.3454V15.9912C20 15.9421 19.9946 15.8943 19.9843 15.8483V15.6881C19.9843 15.3291 19.6935 15.0381 19.3349 15.0381C18.9762 15.0381 18.6855 15.3291 18.6855 15.6881V16.3453C18.6855 16.5367 18.6628 16.722 18.6201 16.8989C18.6102 16.9399 18.6045 16.981 18.6026 17.0216C18.3691 17.8007 17.7427 18.4097 16.9537 18.6179C16.9328 18.6208 16.9117 18.6248 16.8907 18.6299C16.714 18.6726 16.529 18.6953 16.3377 18.6953H15.6808C15.6771 18.6953 15.6733 18.6953 15.6696 18.6954L12.6603 18.6954C12.6565 18.6953 12.6528 18.6953 12.649 18.6953H11.3352C11.3315 18.6953 11.3277 18.6953 11.324 18.6954H8.31473C8.31097 18.6953 8.3072 18.6953 8.30343 18.6953H7.6542Z" fill="#717681"/>
<path d="M7.09351 5.36541C7.2702 5.32276 7.45528 5.3 7.64654 5.3H8.30343C8.66207 5.3 8.95281 5.00898 8.95281 4.65C8.95281 4.29101 8.66207 4 8.30343 4H7.64654C7.35193 4 7.06465 4.0351 6.78898 4.10166C6.44034 4.18583 6.22587 4.53696 6.30997 4.88594C6.39406 5.23492 6.74486 5.44959 7.09351 5.36541Z" fill="#717681"/>
<path d="M11.3352 4C10.9766 4 10.6859 4.29101 10.6859 4.65C10.6859 5.00898 10.9766 5.3 11.3352 5.3H12.649C13.0077 5.3 13.2984 5.00898 13.2984 4.65C13.2984 4.29101 13.0077 4 12.649 4H11.3352Z" fill="#717681"/>
<path d="M15.6808 4C15.3222 4 15.0314 4.29101 15.0314 4.65C15.0314 5.00898 15.3222 5.3 15.6808 5.3H16.3377C16.529 5.3 16.714 5.32276 16.8907 5.36541C17.2394 5.44959 17.5902 5.23492 17.6743 4.88594C17.7584 4.53696 17.5439 4.18583 17.1953 4.10166C16.9196 4.0351 16.6323 4 16.3377 4H15.6808Z" fill="#717681"/>
<path d="M5.36412 7.09645C5.44821 6.74747 5.23375 6.39633 4.8851 6.31216C4.53646 6.22799 4.18565 6.44265 4.10156 6.79163C4.03507 7.06756 4 7.35511 4 7.65V8.3072C4 8.66619 4.29074 8.9572 4.64938 8.9572C5.00803 8.9572 5.29877 8.66619 5.29877 8.3072V7.65C5.29877 7.45856 5.3215 7.27331 5.36412 7.09645Z" fill="#717681"/>
<path d="M19.8827 6.79163C19.7986 6.44265 19.4478 6.22799 19.0991 6.31216C18.7505 6.39633 18.536 6.74747 18.6201 7.09645C18.6628 7.27331 18.6855 7.45856 18.6855 7.65V8.3072C18.6855 8.66619 18.9762 8.9572 19.3349 8.9572C19.6935 8.9572 19.9843 8.66619 19.9843 8.3072V7.65C19.9843 7.35511 19.9492 7.06756 19.8827 6.79163Z" fill="#717681"/>
<path d="M19.9843 11.3405C19.9843 10.9815 19.6935 10.6905 19.3349 10.6905C18.9762 10.6905 18.6855 10.9815 18.6855 11.3405V12.6549C18.6855 13.0138 18.9762 13.3049 19.3349 13.3049C19.6935 13.3049 19.9843 13.0138 19.9843 12.6549V11.3405Z" fill="#717681"/>
<path d="M5.29877 11.3405C5.29877 10.9815 5.00803 10.6905 4.64938 10.6905C4.29074 10.6905 4 10.9815 4 11.3405V12.6549C4 13.0138 4.29074 13.3049 4.64938 13.3049C5.00803 13.3049 5.29877 13.0138 5.29877 12.6549V11.3405Z" fill="#717681"/>
<path d="M11.3373 8.92148C11.3373 9.28047 11.628 9.57148 11.9867 9.57148C12.3453 9.57148 12.636 9.28047 12.636 8.92148V7.72637C12.636 7.36738 12.3453 7.07637 11.9867 7.07637C11.628 7.07637 11.3373 7.36738 11.3373 7.72637V8.92148Z" fill="#717681"/>
<path d="M14.412 11.9978C14.412 11.6389 14.7027 11.3478 15.0614 11.3478H16.2564C16.6151 11.3478 16.9058 11.6389 16.9058 11.9978C16.9058 12.3568 16.6151 12.6478 16.2564 12.6478H15.0614C14.7027 12.6478 14.412 12.3568 14.412 11.9978Z" fill="#717681"/>
<path d="M11.3373 16.2672C11.3373 16.6262 11.628 16.9172 11.9867 16.9172C12.3453 16.9172 12.636 16.6262 12.636 16.2672V15.0721C12.636 14.7131 12.3453 14.4221 11.9867 14.4221C11.628 14.4221 11.3373 14.7131 11.3373 15.0721V16.2672Z" fill="#717681"/>
<path d="M7.06789 11.9977C7.06789 11.6387 7.35863 11.3477 7.71727 11.3477H8.91235C9.27099 11.3477 9.56173 11.6387 9.56173 11.9977C9.56173 12.3567 9.27099 12.6477 8.91235 12.6477H7.71727C7.35863 12.6477 7.06789 12.3567 7.06789 11.9977Z" fill="#717681"/>
</svg>
