<svg width="24.000000" height="24.000000" viewBox="0 0 24 24" fill="none" xmlns="http://www.w3.org/2000/svg" xmlns:xlink="http://www.w3.org/1999/xlink">
	<desc>
			Created with Pixso.
	</desc>
	<defs>
		<clipPath id="clip7011_968">
			<rect id="Outline / Border Bold Bottom Outline" width="24.000000" height="24.000000" transform="matrix(1 -6.12324e-17 -6.12324e-17 -1 0 24)" fill="white" fill-opacity="0"/>
		</clipPath>
	</defs>
	<g clip-path="url(#clip7011_968)">
		<path id="Shape" d="M7.1 5.36C7.28 5.32 7.46 5.29 7.65 5.29L8.31 5.29C8.67 5.29 8.96 5 8.96 4.65C8.96 4.29 8.67 4 8.31 4L7.65 4C7.36 4 7.07 4.03 6.8 4.1C6.5 4.17 6.3 4.43 6.3 4.73C6.3 4.78 6.3 4.83 6.32 4.88C6.4 5.23 6.75 5.44 7.1 5.36ZM11.34 4C10.98 4 10.69 4.29 10.69 4.65C10.69 5 10.98 5.29 11.34 5.29L12.66 5.29C13.02 5.29 13.31 5 13.31 4.65C13.31 4.29 13.02 4 12.66 4L11.34 4ZM15.69 4C15.33 4 15.04 4.29 15.04 4.65C15.04 5 15.33 5.29 15.69 5.29L16.35 5.29C16.54 5.29 16.72 5.32 16.9 5.36C17.25 5.44 17.6 5.23 17.68 4.88C17.7 4.83 17.7 4.78 17.7 4.73C17.7 4.43 17.5 4.17 17.2 4.1C16.93 4.03 16.64 4 16.35 4L15.69 4ZM5.37 7.09C5.38 7.04 5.39 6.99 5.39 6.94C5.39 6.65 5.19 6.38 4.89 6.31C4.54 6.22 4.19 6.44 4.11 6.79C4.04 7.06 4 7.35 4 7.65L4 8.3C4 8.66 4.29 8.95 4.65 8.95C5.01 8.95 5.3 8.66 5.3 8.3L5.3 7.65C5.3 7.45 5.33 7.27 5.37 7.09ZM19.89 6.79C19.81 6.44 19.46 6.22 19.11 6.31C18.81 6.38 18.61 6.65 18.61 6.94C18.61 6.99 18.62 7.04 18.63 7.09C18.67 7.27 18.7 7.45 18.7 7.65L18.7 8.3C18.7 8.66 18.99 8.95 19.35 8.95C19.71 8.95 20 8.66 20 8.3L20 7.65C20 7.35 19.96 7.06 19.89 6.79ZM12 9.57C12.35 9.57 12.64 9.28 12.64 8.92L12.64 7.72C12.64 7.36 12.35 7.07 12 7.07C11.64 7.07 11.35 7.36 11.35 7.72L11.35 8.92C11.35 9.28 11.64 9.57 12 9.57ZM20 11.34C20 10.98 19.71 10.69 19.35 10.69C18.99 10.69 18.7 10.98 18.7 11.34L18.7 12.65C18.7 13.01 18.99 13.3 19.35 13.3C19.71 13.3 20 13.01 20 12.65L20 11.34ZM5.3 11.34C5.3 10.98 5.01 10.69 4.65 10.69C4.29 10.69 4 10.98 4 11.34L4 12.65C4 13.01 4.29 13.3 4.65 13.3C5.01 13.3 5.3 13.01 5.3 12.65L5.3 11.34ZM7.72 11.34C7.36 11.34 7.07 11.63 7.07 11.99C7.07 12.35 7.36 12.64 7.72 12.64L8.92 12.64C9.28 12.64 9.57 12.35 9.57 11.99C9.57 11.63 9.28 11.34 8.92 11.34L7.72 11.34ZM15.07 11.34C14.71 11.34 14.42 11.63 14.42 11.99C14.42 12.35 14.71 12.64 15.07 12.64L16.27 12.64C16.63 12.64 16.92 12.35 16.92 11.99C16.92 11.63 16.63 11.34 16.27 11.34L15.07 11.34ZM4 16.99C4 18.65 5.34 19.99 7 19.99L17 19.99C18.65 19.99 20 18.65 20 16.99L20 16.45C20 16.41 20 16.38 20 16.34L20 15.68C20 15.32 19.71 15.03 19.35 15.03C18.99 15.03 18.7 15.32 18.7 15.68L18.7 16.34C18.7 16.37 18.7 16.41 18.69 16.44L12.62 16.44C12.64 16.38 12.64 16.32 12.64 16.26L12.64 15.07C12.64 14.71 12.35 14.42 12 14.42C11.64 14.42 11.35 14.71 11.35 15.07L11.35 16.26C11.35 16.32 11.35 16.38 11.37 16.44L5.31 16.44C5.3 16.41 5.3 16.37 5.3 16.34L5.3 15.68C5.3 15.32 5.01 15.03 4.65 15.03C4.29 15.03 4 15.32 4 15.68L4 16.34C4 16.37 4 16.41 4.01 16.44L4 16.44L4 16.99Z" fill="#74767B" fill-opacity="1.000000" fill-rule="evenodd"/>
	</g>
</svg>
