<svg width="24" height="24" viewBox="0 0 24 24" fill="none" xmlns="http://www.w3.org/2000/svg">
<path d="M7.55078 5.30867C7.58652 5.30706 7.6225 5.30625 7.65869 5.30625H8.31572C8.67471 5.30625 8.96572 5.01523 8.96572 4.65625C8.96572 4.29727 8.67471 4.00625 8.31572 4.00625H7.65869C7.62261 4.00625 7.58664 4.00678 7.55078 4.00782V4H7C5.34315 4 4 5.34315 4 7V17C4 18.6569 5.34315 20 7 20H7.55078C7.58664 20.001 7.62261 20.0016 7.65869 20.0016H8.31572C8.67471 20.0016 8.96572 19.7105 8.96572 19.3516C8.96572 18.9926 8.67471 18.7016 8.31572 18.7016H7.65869C7.62249 18.7016 7.58652 18.7007 7.55078 18.6991V12.6294C7.6073 12.6454 7.66695 12.654 7.72861 12.654H8.92373C9.28272 12.654 9.57373 12.363 9.57373 12.004C9.57373 11.645 9.28272 11.354 8.92373 11.354H7.72861C7.66695 11.354 7.6073 11.3626 7.55078 11.3786V5.30867Z" fill="#717681"/>
<path d="M11.3482 4.00625C10.9892 4.00625 10.6982 4.29727 10.6982 4.65625C10.6982 5.01523 10.9892 5.30625 11.3482 5.30625H12.6622C13.0212 5.30625 13.3122 5.01523 13.3122 4.65625C13.3122 4.29727 13.0212 4.00625 12.6622 4.00625H11.3482Z" fill="#717681"/>
<path d="M15.6947 4.00625C15.3357 4.00625 15.0447 4.29727 15.0447 4.65625C15.0447 5.01523 15.3357 5.30625 15.6947 5.30625H16.3517C16.5431 5.30625 16.7284 5.32901 16.9052 5.37167C17.2542 5.45584 17.6054 5.24117 17.6895 4.89219C17.7737 4.54321 17.559 4.19208 17.2101 4.10791C16.9341 4.04135 16.6466 4.00625 16.3517 4.00625H15.6947Z" fill="#717681"/>
<path d="M19.9 6.79788C19.8159 6.4489 19.4647 6.23424 19.1157 6.31841C18.7668 6.40258 18.5521 6.75372 18.6363 7.1027C18.6789 7.27956 18.7017 7.46481 18.7017 7.65625V8.31345C18.7017 8.67244 18.9927 8.96345 19.3517 8.96345C19.7107 8.96345 20.0017 8.67244 20.0017 8.31345V7.65625C20.0017 7.36136 19.9666 7.07381 19.9 6.79788Z" fill="#717681"/>
<path d="M20.0017 11.3467C20.0017 10.9877 19.7107 10.6967 19.3517 10.6967C18.9927 10.6967 18.7017 10.9877 18.7017 11.3467V12.6611C18.7017 13.0201 18.9927 13.3111 19.3517 13.3111C19.7107 13.3111 20.0017 13.0201 20.0017 12.6611V11.3467Z" fill="#717681"/>
<path d="M20.0017 15.6944C20.0017 15.3354 19.7107 15.0444 19.3517 15.0444C18.9927 15.0444 18.7017 15.3354 18.7017 15.6944V16.3516C18.7017 16.543 18.6789 16.7283 18.6363 16.9051C18.5521 17.2541 18.7668 17.6052 19.1157 17.6894C19.4647 17.7736 19.8159 17.5589 19.9 17.2099C19.9666 16.934 20.0017 16.6465 20.0017 16.3516V15.6944Z" fill="#717681"/>
<path d="M17.2101 19.8999C17.559 19.8157 17.7737 19.4646 17.6895 19.1156C17.6054 18.7666 17.2542 18.552 16.9052 18.6361C16.7284 18.6788 16.5431 18.7016 16.3517 18.7016H15.6947C15.3357 18.7016 15.0447 18.9926 15.0447 19.3516C15.0447 19.7105 15.3357 20.0016 15.6947 20.0016H16.3517C16.6466 20.0016 16.9341 19.9665 17.2101 19.8999Z" fill="#717681"/>
<path d="M11.3482 18.7016C10.9892 18.7016 10.6982 18.9926 10.6982 19.3516C10.6982 19.7105 10.9892 20.0016 11.3482 20.0016H12.6622C13.0212 20.0016 13.3122 19.7105 13.3122 19.3516C13.3122 18.9926 13.0212 18.7016 12.6622 18.7016H11.3482Z" fill="#717681"/>
<path d="M12.0001 9.57764C11.6411 9.57764 11.3501 9.28662 11.3501 8.92764V7.73252C11.3501 7.37353 11.6411 7.08252 12.0001 7.08252C12.3591 7.08252 12.6501 7.37353 12.6501 7.73252V8.92764C12.6501 9.28662 12.3591 9.57764 12.0001 9.57764Z" fill="#717681"/>
<path d="M15.0763 11.354C14.7173 11.354 14.4263 11.645 14.4263 12.004C14.4263 12.363 14.7173 12.654 15.0763 12.654H16.2714C16.6304 12.654 16.9214 12.363 16.9214 12.004C16.9214 11.645 16.6304 11.354 16.2714 11.354H15.0763Z" fill="#717681"/>
<path d="M12.0001 16.9233C11.6411 16.9233 11.3501 16.6323 11.3501 16.2733V15.0782C11.3501 14.7192 11.6411 14.4282 12.0001 14.4282C12.3591 14.4282 12.6501 14.7192 12.6501 15.0782V16.2733C12.6501 16.6323 12.3591 16.9233 12.0001 16.9233Z" fill="#717681"/>
</svg>
