<svg width="24.000000" height="24.000000" viewBox="0 0 24 24" fill="none" xmlns="http://www.w3.org/2000/svg" xmlns:xlink="http://www.w3.org/1999/xlink">
	<desc>
			Created with Pixso.
	</desc>
	<defs>
		<clipPath id="clip7011_965">
			<rect id="Outline / Border Bold Left Outline" width="24.000000" height="24.000000" transform="matrix(1 -6.12324e-17 -6.12324e-17 -1 0 24)" fill="white" fill-opacity="0"/>
		</clipPath>
	</defs>
	<g clip-path="url(#clip7011_965)">
		<path id="Shape" d="M7.55 5.3C7.58 5.3 7.62 5.3 7.65 5.3L8.31 5.3C8.67 5.3 8.96 5.01 8.96 4.65C8.96 4.29 8.67 4 8.31 4L7.65 4C7.62 4 7.58 4 7.55 4L7.55 4L7 4C5.34 4 4 5.34 4 7L4 17C4 18.65 5.34 20 7 20L7.55 20C7.58 20 7.62 20 7.65 20L8.31 20C8.67 20 8.96 19.71 8.96 19.35C8.96 18.99 8.67 18.7 8.31 18.7L7.65 18.7C7.62 18.7 7.58 18.7 7.55 18.69L7.55 12.62C7.6 12.64 7.66 12.65 7.72 12.65L8.92 12.65C9.28 12.65 9.57 12.36 9.57 12C9.57 11.64 9.28 11.35 8.92 11.35L7.72 11.35C7.66 11.35 7.6 11.36 7.55 11.37L7.55 5.3ZM11.34 4C10.98 4 10.69 4.29 10.69 4.65C10.69 5.01 10.98 5.3 11.34 5.3L12.66 5.3C13.02 5.3 13.31 5.01 13.31 4.65C13.31 4.29 13.02 4 12.66 4L11.34 4ZM15.69 4C15.33 4 15.04 4.29 15.04 4.65C15.04 5.01 15.33 5.3 15.69 5.3L16.35 5.3C16.54 5.3 16.72 5.32 16.9 5.37C17.25 5.45 17.6 5.24 17.68 4.89C17.7 4.84 17.7 4.78 17.7 4.73C17.7 4.44 17.5 4.17 17.2 4.1C16.93 4.04 16.64 4 16.35 4L15.69 4ZM19.89 6.79C19.81 6.44 19.46 6.23 19.11 6.31C18.81 6.39 18.61 6.65 18.61 6.94C18.61 7 18.62 7.05 18.63 7.1C18.67 7.27 18.7 7.46 18.7 7.65L18.7 8.31C18.7 8.67 18.99 8.96 19.35 8.96C19.71 8.96 20 8.67 20 8.31L20 7.65C20 7.36 19.96 7.07 19.89 6.79ZM12 9.57C12.35 9.57 12.64 9.28 12.64 8.92L12.64 7.73C12.64 7.37 12.35 7.08 12 7.08C11.64 7.08 11.35 7.37 11.35 7.73L11.35 8.92C11.35 9.28 11.64 9.57 12 9.57ZM20 11.34C20 10.98 19.71 10.69 19.35 10.69C18.99 10.69 18.7 10.98 18.7 11.34L18.7 12.66C18.7 13.02 18.99 13.31 19.35 13.31C19.71 13.31 20 13.02 20 12.66L20 11.34ZM15.07 11.35C14.71 11.35 14.42 11.64 14.42 12C14.42 12.36 14.71 12.65 15.07 12.65L16.27 12.65C16.63 12.65 16.92 12.36 16.92 12C16.92 11.64 16.63 11.35 16.27 11.35L15.07 11.35ZM12 16.92C12.35 16.92 12.64 16.63 12.64 16.27L12.64 15.07C12.64 14.71 12.35 14.42 12 14.42C11.64 14.42 11.35 14.71 11.35 15.07L11.35 16.27C11.35 16.63 11.64 16.92 12 16.92ZM20 15.69C20 15.33 19.71 15.04 19.35 15.04C18.99 15.04 18.7 15.33 18.7 15.69L18.7 16.35C18.7 16.54 18.67 16.72 18.63 16.9C18.62 16.95 18.61 17 18.61 17.05C18.61 17.35 18.81 17.61 19.11 17.68C19.46 17.77 19.81 17.55 19.89 17.2C19.96 16.93 20 16.64 20 16.35L20 15.69ZM17.2 19.89C17.5 19.82 17.7 19.56 17.7 19.26C17.7 19.21 17.7 19.16 17.68 19.11C17.6 18.76 17.25 18.55 16.9 18.63C16.72 18.67 16.54 18.7 16.35 18.7L15.69 18.7C15.33 18.7 15.04 18.99 15.04 19.35C15.04 19.71 15.33 20 15.69 20L16.35 20C16.64 20 16.93 19.96 17.2 19.89ZM11.34 18.7C10.98 18.7 10.69 18.99 10.69 19.35C10.69 19.71 10.98 20 11.34 20L12.66 20C13.02 20 13.31 19.71 13.31 19.35C13.31 18.99 13.02 18.7 12.66 18.7L11.34 18.7Z" fill="#74767B" fill-opacity="1.000000" fill-rule="evenodd"/>
	</g>
</svg>
