<svg width="24.000000" height="24.000000" viewBox="0 0 24 24" fill="none" xmlns="http://www.w3.org/2000/svg" xmlns:xlink="http://www.w3.org/1999/xlink">
	<desc>
			Created with Pixso.
	</desc>
	<defs>
		<clipPath id="clip7011_962">
			<rect id="Outline / Border Bottom Outline" width="24.000000" height="24.000000" transform="matrix(1 -6.12324e-17 -6.12324e-17 -1 0 24)" fill="white" fill-opacity="0"/>
		</clipPath>
	</defs>
	<g clip-path="url(#clip7011_962)">
		<path id="Shape" d="M7.09 5.36C7.27 5.32 7.45 5.3 7.64 5.3L8.3 5.3C8.66 5.3 8.95 5 8.95 4.64C8.95 4.29 8.66 4 8.3 4L7.64 4C7.35 4 7.06 4.03 6.78 4.1C6.49 4.17 6.29 4.43 6.29 4.73C6.29 4.78 6.29 4.83 6.31 4.88C6.39 5.23 6.74 5.44 7.09 5.36ZM11.33 4C10.97 4 10.68 4.29 10.68 4.64C10.68 5 10.97 5.3 11.33 5.3L12.64 5.3C13 5.3 13.29 5 13.29 4.64C13.29 4.29 13 4 12.64 4L11.33 4ZM15.68 4C15.32 4 15.03 4.29 15.03 4.64C15.03 5 15.32 5.3 15.68 5.3L16.33 5.3C16.52 5.3 16.71 5.32 16.89 5.36C17.23 5.44 17.59 5.23 17.67 4.88C17.68 4.83 17.69 4.78 17.69 4.73C17.69 4.43 17.49 4.17 17.19 4.1C16.91 4.03 16.63 4 16.33 4L15.68 4ZM5.36 7.09C5.37 7.04 5.38 6.99 5.38 6.94C5.38 6.65 5.18 6.38 4.88 6.31C4.53 6.22 4.18 6.44 4.1 6.79C4.03 7.06 4 7.35 4 7.64L4 8.3C4 8.66 4.29 8.95 4.64 8.95C5 8.95 5.29 8.66 5.29 8.3L5.29 7.64C5.29 7.45 5.32 7.27 5.36 7.09ZM19.88 6.79C19.79 6.44 19.44 6.22 19.09 6.31C18.8 6.38 18.6 6.65 18.6 6.94C18.6 6.99 18.6 7.04 18.62 7.09C18.66 7.27 18.68 7.45 18.68 7.64L18.68 8.3C18.68 8.66 18.97 8.95 19.33 8.95C19.69 8.95 19.98 8.66 19.98 8.3L19.98 7.64C19.98 7.35 19.94 7.06 19.88 6.79ZM11.33 8.92C11.33 9.28 11.62 9.57 11.98 9.57C12.34 9.57 12.63 9.28 12.63 8.92L12.63 7.72C12.63 7.36 12.34 7.07 11.98 7.07C11.62 7.07 11.33 7.36 11.33 7.72L11.33 8.92ZM19.98 11.34C19.98 10.98 19.69 10.69 19.33 10.69C18.97 10.69 18.68 10.98 18.68 11.34L18.68 12.65C18.68 13.01 18.97 13.3 19.33 13.3C19.69 13.3 19.98 13.01 19.98 12.65L19.98 11.34ZM5.29 11.34C5.29 10.98 5 10.69 4.64 10.69C4.29 10.69 4 10.98 4 11.34L4 12.65C4 13.01 4.29 13.3 4.64 13.3C5 13.3 5.29 13.01 5.29 12.65L5.29 11.34ZM7.06 11.99C7.06 12.35 7.35 12.64 7.71 12.64L8.91 12.64C9.27 12.64 9.56 12.35 9.56 11.99C9.56 11.63 9.27 11.34 8.91 11.34L7.71 11.34C7.35 11.34 7.06 11.63 7.06 11.99ZM14.41 11.99C14.41 12.35 14.7 12.64 15.06 12.64L16.25 12.64C16.61 12.64 16.9 12.35 16.9 11.99C16.9 11.63 16.61 11.34 16.25 11.34L15.06 11.34C14.7 11.34 14.41 11.63 14.41 11.99ZM11.33 16.26C11.33 16.62 11.62 16.91 11.98 16.91C12.34 16.91 12.63 16.62 12.63 16.26L12.63 15.07C12.63 14.71 12.34 14.42 11.98 14.42C11.62 14.42 11.33 14.71 11.33 15.07L11.33 16.26ZM7.65 18.69C6.36 18.68 5.32 17.63 5.32 16.34L5.32 15.99C5.32 15.92 5.31 15.85 5.29 15.79L5.29 15.68C5.29 15.32 5 15.03 4.64 15.03C4.29 15.03 4 15.32 4 15.68L4 16.34C4 16.64 4.03 16.92 4.1 17.2C4.11 17.27 4.14 17.33 4.18 17.39C4.54 18.58 5.48 19.52 6.68 19.85C6.71 19.87 6.75 19.88 6.78 19.89C7.06 19.96 7.35 19.99 7.64 19.99L7.64 19.99C7.65 19.99 7.66 19.99 7.67 19.99L16.35 19.99C18.36 19.99 20 18.36 20 16.34L20 15.99C20 15.94 19.99 15.89 19.98 15.84L19.98 15.68C19.98 15.32 19.69 15.03 19.33 15.03C18.97 15.03 18.68 15.32 18.68 15.68L18.68 16.34C18.68 16.53 18.66 16.72 18.62 16.89C18.61 16.93 18.6 16.98 18.6 17.02C18.36 17.8 17.74 18.4 16.95 18.61C16.93 18.62 16.91 18.62 16.89 18.62C16.71 18.67 16.52 18.69 16.33 18.69L15.68 18.69L15.66 18.69L12.66 18.69L12.64 18.69L11.33 18.69L11.32 18.69L8.31 18.69L8.3 18.69L7.65 18.69Z" fill="#717681" fill-opacity="1.000000" fill-rule="evenodd"/>
	</g>
</svg>
