<svg width="24.000000" height="24.000000" viewBox="0 0 24 24" fill="none" xmlns="http://www.w3.org/2000/svg" xmlns:xlink="http://www.w3.org/1999/xlink">
	<desc>
			Created with Pixso.
	</desc>
	<defs>
		<clipPath id="clip7011_955">
			<rect id="Outline / Border Inner Outline" width="24.000000" height="24.000000" transform="matrix(1 -6.12324e-17 -6.12324e-17 -1 0 24)" fill="white" fill-opacity="0"/>
		</clipPath>
	</defs>
	<g >
		<path id="Shape" d="M7.65 5.29C7.45 5.29 7.27 5.32 7.09 5.36C6.74 5.44 6.39 5.23 6.31 4.88C6.3 4.83 6.29 4.78 6.29 4.73C6.29 4.43 6.49 4.17 6.79 4.1C7.06 4.03 7.35 4 7.65 4L8.3 4C8.66 4 8.95 4.29 8.95 4.64C8.95 5 8.66 5.29 8.3 5.29L7.65 5.29ZM15.04 4.64C15.04 4.29 15.33 4 15.69 4L16.34 4C16.64 4 16.93 4.03 17.2 4.1C17.5 4.17 17.7 4.43 17.7 4.73C17.7 4.78 17.69 4.83 17.68 4.88C17.6 5.23 17.25 5.44 16.9 5.36C16.72 5.32 16.54 5.29 16.34 5.29L15.69 5.29C15.33 5.29 15.04 5 15.04 4.64ZM12.66 19.33C12.66 19.69 12.37 19.98 12.01 19.98C11.65 19.98 11.36 19.69 11.36 19.33L11.36 12.64L4.65 12.64C4.29 12.64 4 12.35 4 11.99C4 11.63 4.29 11.34 4.65 11.34L11.36 11.34L11.36 4.65C11.36 4.29 11.65 4 12.01 4C12.37 4 12.66 4.29 12.66 4.65L12.66 11.34L19.34 11.34C19.7 11.34 19.99 11.63 19.99 11.99C19.99 12.35 19.7 12.64 19.34 12.64L12.66 12.64L12.66 19.33ZM4.88 6.31C5.18 6.38 5.38 6.65 5.38 6.94C5.38 6.99 5.37 7.04 5.36 7.09C5.32 7.27 5.3 7.45 5.3 7.64L5.3 8.3C5.3 8.66 5 8.95 4.65 8.95C4.29 8.95 4 8.66 4 8.3L4 7.64C4 7.35 4.03 7.06 4.1 6.79C4.18 6.44 4.53 6.22 4.88 6.31ZM19.11 6.31C19.46 6.22 19.81 6.44 19.89 6.79C19.96 7.06 20 7.35 20 7.64L20 8.3C20 8.66 19.7 8.95 19.34 8.95C18.99 8.95 18.69 8.66 18.69 8.3L18.69 7.64C18.69 7.45 18.67 7.27 18.63 7.09C18.62 7.04 18.61 6.99 18.61 6.94C18.61 6.65 18.81 6.38 19.11 6.31ZM19.34 15.03C19.7 15.03 20 15.32 20 15.68L20 16.34C20 16.64 19.96 16.92 19.89 17.2C19.81 17.55 19.46 17.76 19.11 17.68C18.81 17.61 18.61 17.34 18.61 17.05C18.61 17 18.62 16.95 18.63 16.89C18.67 16.72 18.69 16.53 18.69 16.34L18.69 15.68C18.69 15.32 18.99 15.03 19.34 15.03ZM4.65 15.03C5 15.03 5.3 15.32 5.3 15.68L5.3 16.34C5.3 16.53 5.32 16.72 5.36 16.89C5.37 16.95 5.38 17 5.38 17.05C5.38 17.34 5.18 17.61 4.88 17.68C4.53 17.76 4.18 17.55 4.1 17.2C4.03 16.92 4 16.64 4 16.34L4 15.68C4 15.32 4.29 15.03 4.65 15.03ZM6.31 19.1C6.39 18.76 6.74 18.54 7.09 18.62C7.27 18.67 7.45 18.69 7.65 18.69L8.3 18.69C8.66 18.69 8.95 18.98 8.95 19.34C8.95 19.7 8.66 19.99 8.3 19.99L7.65 19.99C7.35 19.99 7.06 19.96 6.79 19.89C6.49 19.82 6.29 19.55 6.29 19.26C6.29 19.21 6.3 19.16 6.31 19.1ZM17.68 19.1C17.69 19.16 17.7 19.21 17.7 19.26C17.7 19.55 17.5 19.82 17.2 19.89C16.93 19.96 16.64 19.99 16.34 19.99L15.69 19.99C15.33 19.99 15.04 19.7 15.04 19.34C15.04 18.98 15.33 18.69 15.69 18.69L16.34 18.69C16.54 18.69 16.72 18.67 16.9 18.62C17.25 18.54 17.6 18.76 17.68 19.1Z" fill="#74767B" fill-opacity="1.000000" fill-rule="evenodd"/>
	</g>
</svg>
