<svg width="24.000000" height="24.000000" viewBox="0 0 24 24" fill="none" xmlns="http://www.w3.org/2000/svg" xmlns:xlink="http://www.w3.org/1999/xlink">
	<desc>
			Created with Pixso.
	</desc>
	<defs>
		<clipPath id="clip7011_957">
			<rect id="Outline / Border Vertical Outline" width="24.000000" height="24.000000" transform="matrix(1 -6.12324e-17 -6.12324e-17 -1 0 24)" fill="white" fill-opacity="0"/>
		</clipPath>
	</defs>
	<g clip-path="url(#clip7011_957)">
		<path id="Shape" d="M7.09 5.36C7.27 5.31 7.45 5.29 7.65 5.29L8.3 5.29C8.66 5.29 8.95 5 8.95 4.64C8.95 4.29 8.66 4 8.3 4L7.65 4C7.35 4 7.06 4.03 6.79 4.1C6.49 4.17 6.29 4.43 6.29 4.73C6.29 4.78 6.3 4.83 6.31 4.88C6.39 5.23 6.74 5.44 7.09 5.36ZM15.69 4C15.33 4 15.04 4.29 15.04 4.64C15.04 5 15.33 5.29 15.69 5.29L16.34 5.29C16.54 5.29 16.72 5.31 16.9 5.36C17.25 5.44 17.6 5.23 17.68 4.88C17.69 4.83 17.7 4.78 17.7 4.73C17.7 4.43 17.5 4.17 17.2 4.1C16.93 4.03 16.64 4 16.34 4L15.69 4ZM11.99 4.06C11.63 4.06 11.34 4.35 11.34 4.71L11.34 19.35C11.34 19.7 11.63 20 11.99 20C12.35 20 12.64 19.7 12.64 19.35L12.64 4.71C12.64 4.35 12.35 4.06 11.99 4.06ZM5.38 6.93C5.38 6.64 5.18 6.37 4.88 6.3C4.53 6.22 4.18 6.43 4.1 6.78C4.03 7.05 4 7.34 4 7.63L4 8.29C4 8.65 4.29 8.94 4.65 8.94C5 8.94 5.3 8.65 5.3 8.29L5.3 7.63C5.3 7.44 5.32 7.26 5.36 7.08C5.37 7.03 5.38 6.98 5.38 6.93ZM19.89 6.78C19.81 6.43 19.46 6.22 19.11 6.3C18.81 6.37 18.61 6.64 18.61 6.93C18.61 6.98 18.62 7.03 18.63 7.08C18.67 7.26 18.69 7.44 18.69 7.63L18.69 8.29C18.69 8.65 18.99 8.94 19.34 8.94C19.7 8.94 20 8.65 20 8.29L20 7.63C20 7.34 19.96 7.05 19.89 6.78ZM19.34 10.66C18.99 10.66 18.69 10.95 18.69 11.31L18.69 12.62C18.69 12.98 18.99 13.27 19.34 13.27C19.7 13.27 20 12.98 20 12.62L20 11.31C20 10.95 19.7 10.66 19.34 10.66ZM5.3 11.31C5.3 10.95 5 10.66 4.65 10.66C4.29 10.66 4 10.95 4 11.31L4 12.62C4 12.98 4.29 13.27 4.65 13.27C5 13.27 5.3 12.98 5.3 12.62L5.3 11.31ZM7.72 11.37C7.36 11.37 7.07 11.66 7.07 12.02C7.07 12.38 7.36 12.67 7.72 12.67L8.91 12.67C9.27 12.67 9.56 12.38 9.56 12.02C9.56 11.66 9.27 11.37 8.91 11.37L7.72 11.37ZM15.07 11.37C14.71 11.37 14.42 11.66 14.42 12.02C14.42 12.38 14.71 12.67 15.07 12.67L16.26 12.67C16.62 12.67 16.91 12.38 16.91 12.02C16.91 11.66 16.62 11.37 16.26 11.37L15.07 11.37ZM20 15.65C20 15.29 19.7 15 19.34 15C18.99 15 18.69 15.29 18.69 15.65L18.69 16.3C18.69 16.49 18.67 16.68 18.63 16.85C18.62 16.9 18.61 16.96 18.61 17.01C18.61 17.3 18.81 17.56 19.11 17.64C19.46 17.72 19.81 17.51 19.89 17.16C19.96 16.88 20 16.6 20 16.3L20 15.65ZM5.3 15.65C5.3 15.29 5 15 4.65 15C4.29 15 4 15.29 4 15.65L4 16.3C4 16.6 4.03 16.88 4.1 17.16C4.18 17.51 4.53 17.72 4.88 17.64C5.18 17.56 5.38 17.3 5.38 17.01C5.38 16.96 5.37 16.9 5.36 16.85C5.32 16.68 5.3 16.49 5.3 16.3L5.3 15.65ZM7.09 18.58C6.74 18.5 6.39 18.71 6.31 19.06C6.3 19.11 6.29 19.16 6.29 19.21C6.29 19.5 6.49 19.77 6.79 19.84C7.06 19.91 7.35 19.94 7.65 19.94L8.3 19.94C8.66 19.94 8.95 19.65 8.95 19.29C8.95 18.93 8.66 18.64 8.3 18.64L7.65 18.64C7.45 18.64 7.27 18.62 7.09 18.58ZM17.7 19.21C17.7 19.16 17.69 19.11 17.68 19.06C17.6 18.71 17.25 18.5 16.9 18.58C16.72 18.62 16.54 18.64 16.34 18.64L15.69 18.64C15.33 18.64 15.04 18.93 15.04 19.29C15.04 19.65 15.33 19.94 15.69 19.94L16.34 19.94C16.64 19.94 16.93 19.91 17.2 19.84C17.5 19.77 17.7 19.5 17.7 19.21Z" fill="#74767B" fill-opacity="1.000000" fill-rule="evenodd"/>
	</g>
</svg>
