<svg viewBox="0 0 24 24" xmlns="http://www.w3.org/2000/svg" xmlns:xlink="http://www.w3.org/1999/xlink" width="24.000000" height="24.000000" fill="none">
	<rect id="Outline/Cells Disconnect Outline" width="24.000000" height="24.000000" x="0.000000" y="0.000000" transform="matrix(1,-6.12324e-17,-6.12324e-17,-1,0,24)" />
	<path id="Shape" d="M13 14.7037L3 14.7037C2.06112 14.7037 1.3 13.9447 1.3 13.0085L1.3 11.0847L14.7 11.0847L14.7 13.0085C14.7 13.9447 13.9389 14.7037 13 14.7037ZM1.3 6.21142L1.3 9.78836L4.89551 9.78836L4.89551 6.21142L1.3 6.21142ZM1.3 4.91512L1.3 2.99146C1.3 2.05525 2.06112 1.2963 3 1.2963L13 1.2963C13.9389 1.2963 14.7 2.05525 14.7 2.99146L14.7 4.91512L1.3 4.91512ZM14.7 6.21142L11.0918 6.21142L11.0918 9.78836L14.7 9.78836L14.7 6.21142ZM9.7918 6.21142L9.7918 9.78836L6.19551 9.78836L6.19551 6.21142L9.7918 6.21142ZM3 16C1.34315 16 0 14.6607 0 13.0085L0 2.99146C0 1.33932 1.34315 0 3 0L13 0C14.6569 0 16 1.33933 16 2.99146L16 13.0085C16 14.6607 14.6569 16 13 16L3 16Z" fill="rgb(116,118,123)" fill-rule="evenodd" transform="matrix(1,-6.12324e-17,-6.12324e-17,-1,4,20)" />
</svg>
