<svg width="24.000000" height="24.000000" viewBox="0 0 24 24" fill="none" xmlns="http://www.w3.org/2000/svg" xmlns:xlink="http://www.w3.org/1999/xlink">
	<desc>
			Created with Pixso.
	</desc>
	<defs>
		<clipPath id="clip17_1201">
			<rect id="Outline / Cells Disconnect Outline" width="24.000000" height="24.000000" transform="matrix(1 -6.12324e-17 -6.12324e-17 -1 0 24)" fill="white" fill-opacity="0"/>
		</clipPath>
	</defs>
	<g>
		<path id="Shape" d="M17 5.29L7 5.29C6.06 5.29 5.29 6.05 5.29 6.99L5.29 8.91L18.7 8.91L18.7 6.99C18.7 6.05 17.93 5.29 17 5.29ZM5.29 13.78L5.29 10.21L8.89 10.21L8.89 13.78L5.29 13.78ZM5.29 15.08L5.29 17C5.29 17.94 6.06 18.7 7 18.7L17 18.7C17.93 18.7 18.7 17.94 18.7 17L18.7 15.08L5.29 15.08ZM18.7 13.78L15.09 13.78L15.09 10.21L18.7 10.21L18.7 13.78ZM13.79 13.78L13.79 10.21L10.19 10.21L10.19 13.78L13.79 13.78ZM7 4C5.34 4 4 5.33 4 6.99L4 17C4 18.66 5.34 20 7 20L17 20C18.65 20 20 18.66 20 17L20 6.99C20 5.33 18.65 4 17 4L7 4Z" fill="#717681" fill-opacity="1.000000" fill-rule="evenodd"/>
	</g>
</svg>
