<svg width="24.000000" height="24.000000" viewBox="0 0 24 24" fill="none" xmlns="http://www.w3.org/2000/svg" xmlns:xlink="http://www.w3.org/1999/xlink">
	<desc>
			Created with Pixso.
	</desc>
	<defs>
		<clipPath id="clip5913_811">
			<rect id="Outline / Change field Outline" width="24.000000" height="24.000000" transform="matrix(1 -6.12324e-17 -6.12324e-17 -1 0 24)" fill="white" fill-opacity="0"/>
		</clipPath>
	</defs>
	<g >
		<path id="Shape" d="M15.34 7L14.04 7C14.04 5.34 12.69 4 11.03 4L6.01 4C4.34 4 3 5.34 3 7L3 17C3 18.65 4.34 20 6.01 20L11.03 20C12.69 20 14.04 18.65 14.04 17L14.04 8.29L15.34 8.29C15.7 8.29 16 8 16 7.65C16 7.29 15.7 7 15.34 7ZM11.03 5.29L6.01 5.29C5.07 5.29 4.3 6.06 4.3 7L4.3 9.97L12.74 9.97L12.74 8.29L6.48 8.29C6.12 8.29 5.82 8 5.82 7.65C5.82 7.29 6.12 7 6.48 7L12.74 7C12.74 6.06 11.97 5.29 11.03 5.29ZM15.51 15.49C15.38 15.37 15.3 15.19 15.3 15.01C15.31 14.82 15.39 14.65 15.53 14.53L17.76 12.57C18.03 12.33 18.44 12.35 18.68 12.62C18.92 12.89 18.89 13.3 18.62 13.54L17.62 14.42L19.04 14.42C19.4 14.42 19.69 14.13 19.69 13.77L19.69 8.96C19.69 8.61 19.4 8.31 19.04 8.31L18 8.31C17.64 8.31 17.35 8.02 17.35 7.66C17.35 7.31 17.64 7.01 18 7.01L19.04 7.01C20.12 7.01 21 7.89 21 8.96L21 13.77C21 14.85 20.12 15.72 19.04 15.72L17.68 15.72L18.64 16.61C18.9 16.85 18.91 17.26 18.67 17.53C18.42 17.79 18.01 17.81 17.75 17.56L15.51 15.49ZM12.74 11.27L4.3 11.27L4.3 17C4.3 17.93 5.07 18.7 6.01 18.7L11.03 18.7C11.97 18.7 12.74 17.93 12.74 17L12.74 11.27ZM5.82 13.62C5.82 13.98 6.12 14.27 6.48 14.27L10.56 14.27C10.92 14.27 11.22 13.98 11.22 13.62C11.22 13.26 10.92 12.97 10.56 12.97L6.48 12.97C6.12 12.97 5.82 13.26 5.82 13.62ZM5.82 16.34C5.82 16.7 6.12 16.99 6.48 16.99L10.56 16.99C10.92 16.99 11.22 16.7 11.22 16.34C11.22 15.98 10.92 15.69 10.56 15.69L6.48 15.69C6.12 15.69 5.82 15.98 5.82 16.34Z" fill="#74767B" fill-opacity="1.000000" fill-rule="evenodd"/>
	</g>
</svg>
