<svg width="24.000000" height="24.000000" viewBox="0 0 24 24" fill="none" xmlns="http://www.w3.org/2000/svg" xmlns:xlink="http://www.w3.org/1999/xlink">
	<desc>
			Created with Pixso.
	</desc>
	<defs>
		<clipPath id="clip108376_1114">
			<rect id="Outline / Column Insert after Outline" width="24.000000" height="24.000000" transform="matrix(1 -6.12324e-17 -6.12324e-17 -1 0 24)" fill="white" fill-opacity="0"/>
		</clipPath>
	</defs>
	<g>
		<path id="Shape" d="M15.29 12.66C14.93 12.66 14.64 12.37 14.64 12.01C14.64 11.65 14.93 11.35 15.29 11.35L16.67 11.35L16.67 9.97C16.67 9.61 16.96 9.31 17.32 9.31C17.68 9.31 17.97 9.61 17.97 9.97L17.97 11.35L19.34 11.35C19.7 11.35 20 11.65 20 12.01C20 12.37 19.7 12.66 19.34 12.66L17.97 12.66L17.97 14.05C17.97 14.41 17.68 14.7 17.32 14.7C16.96 14.7 16.67 14.41 16.67 14.05L16.67 12.66L15.29 12.66ZM10.33 18.69L7.65 18.69C6.35 18.69 5.3 17.63 5.3 16.32L5.3 7.67C5.3 6.36 6.35 5.3 7.65 5.3L10.33 5.3L10.33 18.69ZM11.64 5.3L14.63 5.3C15.76 5.3 16.67 6.22 16.67 7.35C16.67 7.71 16.96 8 17.32 8C17.68 8 17.97 7.71 17.97 7.35C17.97 5.5 16.48 4 14.63 4L7.65 4C5.63 4 4 5.64 4 7.67L4 16.32C4 18.35 5.63 20 7.65 20L14.67 20C16.49 20 17.97 18.51 17.97 16.68C17.97 16.32 17.68 16.02 17.32 16.02C16.96 16.02 16.67 16.32 16.67 16.68C16.67 17.79 15.77 18.69 14.67 18.69L11.64 18.69L11.64 5.3Z" fill="#717681" fill-opacity="1.000000" fill-rule="evenodd"/>
	</g>
</svg>
