<svg width="24.000000" height="24.000000" viewBox="0 0 24 24" fill="none" xmlns="http://www.w3.org/2000/svg" xmlns:xlink="http://www.w3.org/1999/xlink">
	<desc>
			Created with Pixso.
	</desc>
	<defs>
		<clipPath id="clip108376_1122">
			<rect id="Outline / Column Delete Outline" width="24.000000" height="24.000000" fill="white" fill-opacity="0"/>
		</clipPath>
	</defs>
	<g >
		<path id="Shape" d="M4.25 2.13C4.53 1.91 4.94 1.96 5.16 2.25L7.83 5.72L7.83 5.34C7.83 4.62 8.41 4.04 9.13 4.04L14.53 4.04C15.25 4.04 15.83 4.62 15.83 5.34L15.83 16.12L19.6 21.02C19.82 21.3 19.77 21.71 19.48 21.93C19.2 22.15 18.79 22.1 18.57 21.81L4.13 3.04C3.91 2.76 3.96 2.35 4.25 2.13ZM14.53 14.43L14.53 5.34L9.13 5.34L9.13 7.41L14.53 14.43ZM7.83 18.74L7.83 9.98L9.13 11.67L9.13 18.74L14.53 18.74L14.53 18.69L15.35 19.75C15.12 19.93 14.84 20.04 14.53 20.04L9.13 20.04C8.41 20.04 7.83 19.45 7.83 18.74Z" fill="#74767B" fill-opacity="1.000000" fill-rule="evenodd"/>
	</g>
</svg>
