<svg width="24" height="24" viewBox="0 0 24 24" fill="none" xmlns="http://www.w3.org/2000/svg">
<path fill-rule="evenodd" clip-rule="evenodd" d="M4.25375 2.13484C4.53827 1.91593 4.94637 1.96912 5.16528 2.25364L7.83532 5.72395V5.34114C7.83532 4.62317 8.41735 4.04115 9.13532 4.04115H14.5353C15.2533 4.04115 15.8353 4.62317 15.8353 5.34114V16.1217L19.6068 21.0237C19.8257 21.3082 19.7725 21.7163 19.488 21.9352C19.2035 22.1541 18.7954 22.1009 18.5765 21.8164L4.13495 3.04637C3.91605 2.76185 3.96923 2.35374 4.25375 2.13484ZM14.5353 14.4321L14.5353 5.34114H9.13532V7.41359L14.5353 14.4321ZM7.83532 18.7411L7.83532 9.98619L9.13532 11.6758V18.7411L14.5353 18.7411V18.6943L15.3505 19.7539C15.1275 19.9336 14.844 20.0411 14.5353 20.0411H9.13532C8.41735 20.0411 7.83532 19.4591 7.83532 18.7411Z" fill="#717681"/>
</svg>
