<svg width="24.000000" height="24.000000" viewBox="0 0 24 24" fill="none" xmlns="http://www.w3.org/2000/svg" xmlns:xlink="http://www.w3.org/1999/xlink">
	<desc>
			Created with Pixso.
	</desc>
	<defs>
		<clipPath id="clip108376_1110">
			<rect id="Outline / Column insert before Outline" width="24.000000" height="24.000000" fill="white" fill-opacity="0"/>
		</clipPath>
	</defs>
	<g clip-path="url(#clip108376_1110)">
		<path id="Shape" d="M8.7 12.66C9.06 12.66 9.35 12.37 9.35 12.01C9.35 11.65 9.06 11.35 8.7 11.35L7.32 11.35L7.32 9.97C7.32 9.61 7.03 9.31 6.67 9.31C6.31 9.31 6.02 9.61 6.02 9.97L6.02 11.35L4.65 11.35C4.29 11.35 4 11.65 4 12.01C4 12.37 4.29 12.66 4.65 12.66L6.02 12.66L6.02 14.05C6.02 14.41 6.31 14.7 6.67 14.7C7.03 14.7 7.32 14.41 7.32 14.05L7.32 12.66L8.7 12.66ZM13.66 18.69L16.34 18.69C17.64 18.69 18.69 17.63 18.69 16.32L18.69 7.67C18.69 6.36 17.64 5.3 16.34 5.3L13.66 5.3L13.66 18.69ZM12.35 5.3L9.36 5.3C8.23 5.3 7.32 6.22 7.32 7.35C7.32 7.71 7.03 8 6.67 8C6.31 8 6.02 7.71 6.02 7.35C6.02 5.5 7.51 4 9.36 4L16.34 4C18.36 4 20 5.64 20 7.67L20 16.32C20 18.35 18.36 20 16.34 20L9.32 20C7.5 20 6.02 18.51 6.02 16.68C6.02 16.32 6.31 16.02 6.67 16.02C7.03 16.02 7.32 16.32 7.32 16.68C7.32 17.79 8.22 18.69 9.32 18.69L12.35 18.69L12.35 5.3Z" fill="#717681" fill-opacity="1.000000" fill-rule="evenodd"/>
	</g>
</svg>
