<svg width="24.000000" height="24.000000" viewBox="0 0 24 24" fill="none" xmlns="http://www.w3.org/2000/svg" xmlns:xlink="http://www.w3.org/1999/xlink">
	<desc>
			Created with Pixso.
	</desc>
	<defs>
		<clipPath id="clip17_1122">
			<rect id="Outline / Delete style Outline" width="24.000000" height="24.000000" transform="matrix(1 -6.12324e-17 -6.12324e-17 -1 0 24)" fill="white" fill-opacity="0"/>
		</clipPath>
	</defs>
	<g >
		<path id="Shape" d="M4.16 2.15C4.45 1.93 4.85 1.99 5.07 2.27L6.4 4L19.34 4C19.7 4 19.99 4.29 19.99 4.65C19.99 5.01 19.7 5.3 19.34 5.3L13.52 5.3L12.45 11.86L19.43 20.93C19.65 21.21 19.59 21.62 19.31 21.84C19.02 22.06 18.62 22 18.4 21.72L4.04 3.06C3.82 2.78 3.88 2.37 4.16 2.15ZM11.37 10.45L7.4 5.3L12.2 5.3L11.37 10.45ZM11.89 15.37L10.8 13.96L9.92 19.36C9.87 19.71 10.11 20.05 10.46 20.1C10.82 20.16 11.15 19.92 11.21 19.57L11.89 15.37Z" fill="#74767B" fill-opacity="1.000000" fill-rule="evenodd"/>
	</g>
</svg>
