<svg width="24" height="24" viewBox="0 0 24 24" fill="none" xmlns="http://www.w3.org/2000/svg">
<path fill-rule="evenodd" clip-rule="evenodd" d="M4.167 2.15836C4.45152 1.93945 4.85962 1.99264 5.07853 2.27716L6.40585 4.00232H19.3449C19.7039 4.00232 19.9949 4.29333 19.9949 4.65232C19.9949 5.0113 19.7039 5.30231 19.3449 5.30231H13.5203L12.4583 11.8688L19.4316 20.9321C19.6505 21.2167 19.5973 21.6248 19.3128 21.8437C19.0282 22.0626 18.6201 22.0094 18.4012 21.7249L4.0482 3.06989C3.82929 2.78537 3.88248 2.37726 4.167 2.15836ZM11.3701 10.4545L7.40606 5.30231H12.2034L11.3701 10.4545ZM11.8912 15.3751L10.8031 13.9608L9.92944 19.3626C9.87213 19.717 10.1129 20.0507 10.4673 20.108C10.8217 20.1653 11.1555 19.9245 11.2128 19.5701L11.8912 15.3751Z" fill="#717681"/>
</svg>
