<svg width="24.000000" height="24.000000" viewBox="0 0 24 24" fill="none" xmlns="http://www.w3.org/2000/svg" xmlns:xlink="http://www.w3.org/1999/xlink">
	<desc>
			Created with Pixso.
	</desc>
	<defs>
		<clipPath id="clip108380_1134">
			<rect id="Outline / Element Fixed Outline" width="24.000000" height="24.000000" fill="white" fill-opacity="0"/>
		</clipPath>
	</defs>
	<g clip-path="url(#clip108380_1134)">
		<path id="Shape" d="M4.65 4C5.01 4 5.3 4.29 5.3 4.64L5.3 19.35C5.3 19.7 5.01 20 4.65 20C4.29 20 4 19.7 4 19.35L4 4.64C4 4.29 4.29 4 4.65 4ZM18.69 12.64L18.69 19.35C18.69 19.7 18.98 20 19.34 20C19.7 20 20 19.7 20 19.35L20 4.64C20 4.29 19.7 4 19.34 4C18.98 4 18.69 4.29 18.69 4.64L18.69 11.35L7.61 11.35C7.25 11.35 6.96 11.64 6.96 11.99C6.96 12.35 7.25 12.64 7.61 12.64L18.69 12.64Z" fill="#717681" fill-opacity="1.000000" fill-rule="evenodd"/>
	</g>
</svg>
