<svg viewBox="0 0 24 24" xmlns="http://www.w3.org/2000/svg" xmlns:xlink="http://www.w3.org/1999/xlink" width="24.000000" height="24.000000" fill="none">
	<rect id="Outline/Font Style Outline" width="24.000000" height="24.000000" x="0.000000" y="0.000000" />
	<path id="Shape" d="M10.0602 15.9451L4.92051 15.9451C4.56152 15.9451 4.27051 15.6541 4.27051 15.2951C4.27051 14.9361 4.56152 14.6451 4.92051 14.6451L9.41016 14.6451L9.41016 0.65C9.41016 0.291015 9.70117 0 10.0602 0C10.4191 0 10.7102 0.291015 10.7102 0.65L10.7102 14.6451L15.1993 14.6451C15.5583 14.6451 15.8493 14.9361 15.8493 15.2951C15.8493 15.6541 15.5583 15.9451 15.1993 15.9451L10.0602 15.9451ZM3.87979 3.8147e-06C4.23877 3.8147e-06 4.52979 0.291018 4.52979 0.650003L4.52979 8.02387L7.10989 8.02387C7.46887 8.02387 7.75989 8.31488 7.75989 8.67387C7.75989 9.03285 7.46887 9.32387 7.10989 9.32387L0.65 9.32387C0.291015 9.32387 0 9.03285 0 8.67387C0 8.31488 0.291015 8.02387 0.65 8.02387L3.22978 8.02387L3.22978 0.650003C3.22978 0.291018 3.5208 3.8147e-06 3.87979 3.8147e-06Z" fill="rgb(116,118,123)" fill-rule="evenodd" transform="matrix(1,-6.12324e-17,-6.12324e-17,-1,4.23438,19.9213)" />
</svg>
