<svg width="24.000000" height="24.000000" viewBox="0 0 24 24" fill="none" xmlns="http://www.w3.org/2000/svg" xmlns:xlink="http://www.w3.org/1999/xlink">
	<desc>
			Created with Pixso.
	</desc>
	<defs>
		<clipPath id="clip17_1119">
			<rect id="Outline / Format Paint Outline" width="24.000000" height="24.000000" fill="white" fill-opacity="0"/>
		</clipPath>
	</defs>
	<g >
		<path id="Shape" d="M12.54 6.61L11.78 6.15C10.6 5.44 9.09 5.63 8.12 6.6L7.64 7.08L7.64 7.08L6.72 8L3.9 10.82C2.75 11.97 2.72 13.83 3.84 15.01L9.34 20.82C9.47 20.95 9.64 21.03 9.82 21.04C9.85 21.05 9.89 21.05 9.93 21.05L16.63 21.05C16.99 21.05 17.28 20.76 17.28 20.4C17.28 20.04 16.99 19.75 16.63 19.75L14.08 19.75L17.16 16.62L17.65 16.13C18.62 15.16 18.81 13.65 18.1 12.47L17.59 11.62C17.22 11 17.42 10.21 18.04 9.84L19.58 8.91C21.26 7.9 21.54 5.59 20.16 4.21L19.87 3.92C18.42 2.47 15.98 2.87 15.06 4.7L14.37 6.07C14.04 6.75 13.19 7 12.54 6.61ZM8.56 8L16.25 15.69L16.73 15.21C17.28 14.66 17.39 13.81 16.99 13.14L16.48 12.29C15.74 11.06 16.14 9.46 17.37 8.72L18.92 7.79C19.86 7.22 20.03 5.91 19.24 5.13L18.95 4.84C18.13 4.02 16.74 4.24 16.22 5.28L15.54 6.65C14.86 8.01 13.17 8.5 11.87 7.72L11.11 7.26C10.45 6.86 9.59 6.97 9.04 7.52L8.56 8ZM4.82 11.74L7.52 9.04L7.52 9.04L15.21 16.73L15.22 16.74L12.26 19.74L10.11 19.74L4.78 14.11C4.15 13.44 4.16 12.39 4.82 11.74Z" fill="#74767B" fill-opacity="1.000000" fill-rule="evenodd"/>
	</g>
</svg>
