<svg width="24.000000" height="24.000000" viewBox="0 0 24 24" fill="none" xmlns="http://www.w3.org/2000/svg" xmlns:xlink="http://www.w3.org/1999/xlink">
	<desc>
			Created with Pixso.
	</desc>
	<defs>
		<clipPath id="clip17_1234">
			<rect id="Solid / Format Paint Solid" width="24.000000" height="24.000000" transform="translate(-0.643066 0.000000)" fill="white" fill-opacity="0"/>
		</clipPath>
	</defs>
	<g>
		<path id="Shape" d="M11.9 6.61L11.14 6.15C9.96 5.44 8.45 5.63 7.48 6.6L7 7.08L7 7.08L3.25 10.82C2.1 11.97 2.08 13.83 3.2 15.01L8.7 20.82C8.82 20.95 8.99 21.03 9.17 21.04C9.21 21.05 9.25 21.05 9.28 21.05L15.99 21.05C16.35 21.05 16.64 20.76 16.64 20.4C16.64 20.04 16.35 19.75 15.99 19.75L13.43 19.75L16.52 16.62L17.01 16.13C17.98 15.16 18.17 13.65 17.46 12.47L16.95 11.62C16.58 11 16.78 10.21 17.39 9.84L18.94 8.91C20.62 7.9 20.9 5.59 19.52 4.21L19.22 3.92C17.77 2.47 15.33 2.87 14.42 4.7L13.73 6.07C13.39 6.75 12.55 7 11.9 6.61ZM7.91 8L15.61 15.69L16.09 15.21C16.64 14.66 16.74 13.81 16.34 13.14L15.83 12.29C15.1 11.06 15.49 9.46 16.73 8.72L18.27 7.79C19.22 7.22 19.38 5.91 18.6 5.13L18.3 4.84C17.48 4.02 16.1 4.24 15.58 5.28L14.89 6.65C14.22 8.01 12.53 8.5 11.23 7.72L10.47 7.26C9.8 6.86 8.95 6.97 8.39 7.52L7.91 8Z" fill="#717681" fill-opacity="1.000000" fill-rule="evenodd"/>
	</g>
</svg>
