<svg width="25" height="24" viewBox="0 0 25 24" fill="none" xmlns="http://www.w3.org/2000/svg">
<path fill-rule="evenodd" clip-rule="evenodd" d="M12.904 6.61048L12.1452 6.1552C10.9647 5.44695 9.45375 5.63296 8.48035 6.60636L7.99994 7.08677L7.9999 7.08672L4.25804 10.8287C3.10924 11.9775 3.08373 13.8321 4.20048 15.0121L9.70468 20.828C9.82894 20.9593 9.99883 21.0371 10.1785 21.046C10.2138 21.052 10.2501 21.055 10.2871 21.055H16.9949C17.3539 21.055 17.6449 20.764 17.6449 20.405C17.6449 20.0461 17.3539 19.755 16.9949 19.755H14.4388L17.5245 16.6235L18.011 16.137C18.9844 15.1636 19.1704 13.6527 18.4622 12.4722L17.9535 11.6244C17.5841 11.0087 17.7837 10.2102 18.3994 9.8408L19.9465 8.9125C21.6201 7.90836 21.9044 5.59878 20.5244 4.21871L20.2278 3.92214C18.7799 2.47422 16.339 2.87033 15.4232 4.70182L14.7356 6.07712C14.3969 6.75444 13.5533 7.00009 12.904 6.61048ZM8.91918 8.006L16.6114 15.6982L17.0918 15.2178C17.6434 14.6662 17.7488 13.81 17.3474 13.1411L16.8387 12.2932C16.1 11.0619 16.4992 9.46485 17.7305 8.72606L19.2777 7.79776C20.2261 7.22875 20.3872 5.91998 19.6051 5.13794L19.3086 4.84138C18.4881 4.02089 17.1049 4.24535 16.586 5.2832L15.8983 6.6585C15.221 8.01313 13.5338 8.50444 12.2351 7.72522L11.4763 7.26994C10.8074 6.8686 9.95118 6.974 9.39959 7.5256L8.91918 8.006Z" fill="#717681"/>
</svg>
