<svg width="24.000000" height="24.000000" viewBox="0 0 24 24" fill="none" xmlns="http://www.w3.org/2000/svg" xmlns:xlink="http://www.w3.org/1999/xlink">
	<desc>
			Created with Pixso.
	</desc>
	<defs>
		<clipPath id="clip17_1162">
			<rect id="Outline / Format Align Justify Outline" width="24.000000" height="24.000000" fill="white" fill-opacity="0"/>
		</clipPath>
	</defs>
	<g clip-path="url(#clip17_1162)">
		<path id="Shape" d="M4.64 5.5C4.29 5.5 4 5.79 4 6.15C4 6.5 4.29 6.79 4.64 6.79L19.35 6.79C19.7 6.79 20 6.5 20 6.15C20 5.79 19.7 5.5 19.35 5.5L4.64 5.5ZM4.64 13.3C4.29 13.3 4 13.59 4 13.95C4 14.3 4.29 14.6 4.64 14.6L19.35 14.6C19.7 14.6 20 14.3 20 13.95C20 13.59 19.7 13.3 19.35 13.3L4.64 13.3ZM4 10.05C4 9.69 4.29 9.4 4.64 9.4L19.35 9.4C19.7 9.4 20 9.69 20 10.05C20 10.4 19.7 10.7 19.35 10.7L4.64 10.7C4.29 10.7 4 10.4 4 10.05ZM4.64 17.2C4.29 17.2 4 17.49 4 17.85C4 18.2 4.29 18.49 4.64 18.49L19.35 18.49C19.7 18.49 20 18.2 20 17.85C20 17.49 19.7 17.2 19.35 17.2L4.64 17.2Z" fill="#717681" fill-opacity="1.000000" fill-rule="evenodd"/>
	</g>
</svg>
