<svg width="24.000000" height="24.000000" viewBox="0 0 24 24" fill="none" xmlns="http://www.w3.org/2000/svg" xmlns:xlink="http://www.w3.org/1999/xlink">
	<desc>
			Created with Pixso.
	</desc>
	<defs>
		<clipPath id="clip17_1180">
			<rect id="Outline / Line-through Outline" width="24.000000" height="24.000000" fill="white" fill-opacity="0"/>
		</clipPath>
	</defs>
	<g clip-path="url(#clip17_1180)">
		<path id="Shape" d="M12 20C12.35 20 12.64 19.7 12.64 19.35L12.64 14.58C12.64 14.22 12.35 13.93 12 13.93C11.64 13.93 11.35 14.22 11.35 14.58L11.35 19.35C11.35 19.7 11.64 20 12 20ZM12.64 5.29L17.12 5.29C17.48 5.29 17.77 5 17.77 4.64C17.77 4.29 17.48 4 17.12 4L6.87 4C6.51 4 6.22 4.29 6.22 4.64C6.22 5 6.51 5.29 6.87 5.29L11.35 5.29L11.35 9.37C11.35 9.72 11.64 10.01 12 10.01C12.35 10.01 12.64 9.72 12.64 9.37L12.64 5.29ZM4.64 12.61C4.29 12.61 4 12.32 4 11.96C4 11.6 4.29 11.31 4.64 11.31L19.35 11.31C19.7 11.31 20 11.6 20 11.96C20 12.32 19.7 12.61 19.35 12.61L4.64 12.61Z" fill="#74767B" fill-opacity="1.000000" fill-rule="evenodd"/>
	</g>
</svg>
