<svg width="24.000000" height="24.000000" viewBox="0 0 24 24" fill="none" xmlns="http://www.w3.org/2000/svg" xmlns:xlink="http://www.w3.org/1999/xlink">
	<desc>
			Created with Pixso.
	</desc>
	<defs>
		<clipPath id="clip17_1128">
			<rect id="Outline / Line Spacing Outline" width="24.000000" height="24.000000" fill="white" fill-opacity="0"/>
		</clipPath>
	</defs>
	<g>
		<path id="Shape" d="M6.64 5.9C6.82 5.9 7 5.97 7.12 6.11L9.19 8.33C9.44 8.6 9.42 9.01 9.16 9.25C8.9 9.5 8.49 9.48 8.24 9.22L7.32 8.23L7.32 10.75C7.32 11.1 7.03 11.4 6.67 11.4C6.31 11.4 6.02 11.1 6.02 10.75L6.02 8.24L5.17 9.21C4.93 9.47 4.52 9.5 4.26 9.26C3.99 9.03 3.96 8.61 4.2 8.35L6.16 6.12C6.28 5.98 6.45 5.9 6.64 5.9ZM10.99 6.75C10.99 6.39 11.28 6.1 11.64 6.1L19.35 6.1C19.7 6.1 20 6.39 20 6.75C20 7.1 19.7 7.4 19.35 7.4L11.64 7.4C11.28 7.4 10.99 7.1 10.99 6.75ZM10.99 12.05C10.99 11.69 11.28 11.4 11.64 11.4L19.35 11.4C19.7 11.4 20 11.69 20 12.05C20 12.4 19.7 12.7 19.35 12.7L11.64 12.7C11.28 12.7 10.99 12.4 10.99 12.05ZM7.32 15.79L7.32 13.35C7.32 12.99 7.03 12.7 6.67 12.7C6.31 12.7 6.02 12.99 6.02 13.35L6.02 15.8L5.11 14.82C4.86 14.55 4.45 14.54 4.19 14.78C3.93 15.03 3.91 15.44 4.15 15.7L6.22 17.93C6.35 18.06 6.53 18.14 6.71 18.13C6.89 18.13 7.07 18.05 7.19 17.91L9.15 15.69C9.39 15.42 9.36 15.01 9.09 14.77C8.82 14.53 8.41 14.56 8.17 14.83L7.32 15.79ZM11.64 16.7C11.28 16.7 10.99 16.99 10.99 17.35C10.99 17.7 11.28 18 11.64 18L19.35 18C19.7 18 20 17.7 20 17.35C20 16.99 19.7 16.7 19.35 16.7L11.64 16.7Z" fill="#717681" fill-opacity="1.000000" fill-rule="evenodd"/>
	</g>
</svg>
