<svg width="24.000000" height="24.000000" viewBox="0 0 24 24" fill="none" xmlns="http://www.w3.org/2000/svg" xmlns:xlink="http://www.w3.org/1999/xlink">
	<desc>
			Created with Pixso.
	</desc>
	<defs>
		<clipPath id="clip17_1116">
			<rect id="Outline / List Style Outline" width="24.000000" height="24.000000" fill="white" fill-opacity="0"/>
		</clipPath>
	</defs>
	<g clip-path="url(#clip17_1116)">
		<path id="Shape" d="M4.03 6.74C4.03 6.39 4.32 6.09 4.68 6.09L19.34 6.09C19.7 6.09 20 6.39 20 6.74C20 7.1 19.7 7.39 19.34 7.39L4.68 7.39C4.32 7.39 4.03 7.1 4.03 6.74ZM4.03 12.05C4.03 11.69 4.32 11.4 4.68 11.4L19.34 11.4C19.7 11.4 20 11.69 20 12.05C20 12.4 19.7 12.7 19.34 12.7L4.68 12.7C4.32 12.7 4.03 12.4 4.03 12.05ZM4.68 16.7C4.32 16.7 4.03 16.99 4.03 17.35C4.03 17.7 4.32 18 4.68 18L19.34 18C19.7 18 20 17.7 20 17.35C20 16.99 19.7 16.7 19.34 16.7L4.68 16.7Z" fill="#74767B" fill-opacity="1.000000" fill-rule="evenodd"/>
	</g>
</svg>
