<svg width="24" height="24" viewBox="0 0 24 24" fill="none" xmlns="http://www.w3.org/2000/svg">
<path fill-rule="evenodd" clip-rule="evenodd" d="M4.03467 6.75001C4.03467 6.39102 4.32568 6.10001 4.68467 6.10001H19.3498C19.7088 6.10001 19.9998 6.39102 19.9998 6.75001C19.9998 7.10899 19.7088 7.40001 19.3498 7.40001H4.68467C4.32568 7.40001 4.03467 7.10899 4.03467 6.75001ZM4.03467 12.05C4.03467 11.691 4.32568 11.4 4.68467 11.4H19.3498C19.7088 11.4 19.9998 11.691 19.9998 12.05C19.9998 12.409 19.7088 12.7 19.3498 12.7H4.68467C4.32568 12.7 4.03467 12.409 4.03467 12.05ZM4.68467 16.7C4.32568 16.7 4.03467 16.991 4.03467 17.35C4.03467 17.709 4.32568 18 4.68467 18H19.3498C19.7088 18 19.9998 17.709 19.9998 17.35C19.9998 16.991 19.7088 16.7 19.3498 16.7H4.68467Z" fill="#717681"/>
</svg>
