<svg width="24.000000" height="24.000000" viewBox="0 0 24 24" fill="none" xmlns="http://www.w3.org/2000/svg" xmlns:xlink="http://www.w3.org/1999/xlink">
	<desc>
			Created with Pixso.
	</desc>
	<defs>
		<clipPath id="clip17_1222">
			<rect id="Outline / Right double Outline" width="24.000000" height="24.000000" fill="white" fill-opacity="0"/>
		</clipPath>
	</defs>
	<g clip-path="url(#clip17_1222)">
		<path id="Shape" d="M18.8 12.71C19.06 12.45 19.06 12.04 18.8 11.78L12.25 5.19C12 4.93 11.59 4.93 11.33 5.19C11.08 5.44 11.08 5.86 11.33 6.12L17.42 12.25L11.33 18.37C11.08 18.63 11.08 19.05 11.33 19.3C11.59 19.56 12 19.56 12.25 19.3L18.8 12.71ZM6.11 19.3L12.66 12.71C12.91 12.45 12.91 12.04 12.66 11.78L6.11 5.19C5.85 4.93 5.44 4.93 5.19 5.19C4.93 5.44 4.93 5.86 5.19 6.12L11.27 12.25L5.19 18.37C4.93 18.63 4.93 19.05 5.19 19.3C5.44 19.56 5.85 19.56 6.11 19.3Z" fill="#74767B" fill-opacity="1.000000" fill-rule="evenodd"/>
	</g>
</svg>
