<svg width="24.000000" height="24.000000" viewBox="0 0 24 24" fill="none" xmlns="http://www.w3.org/2000/svg" xmlns:xlink="http://www.w3.org/1999/xlink">
	<desc>
			Created with Pixso.
	</desc>
	<defs>
		<clipPath id="clip108376_1118">
			<rect id="Outline / Row Delete Outline" width="24.000000" height="24.000000" fill="white" fill-opacity="0"/>
		</clipPath>
	</defs>
	<g >
		<path id="Shape" d="M4.61 1.98C4.9 1.76 5.3 1.81 5.52 2.1L10.12 8.07L18.7 8.07C19.41 8.07 20 8.65 20 9.37L20 14.77C20 15.49 19.41 16.07 18.7 16.07L16.27 16.07L20.03 20.95C20.25 21.23 20.19 21.64 19.91 21.86C19.62 22.08 19.22 22.03 19 21.74L4.49 2.89C4.27 2.61 4.33 2.2 4.61 1.98ZM15.27 14.77L18.7 14.77L18.7 9.37L11.12 9.37L15.27 14.77ZM5.3 8.07L6.84 8.07L7.84 9.37L5.3 9.37L5.3 14.77L11.99 14.77L12.99 16.07L5.3 16.07C4.58 16.07 4 15.49 4 14.77L4 9.37C4 8.65 4.58 8.07 5.3 8.07Z" fill="#74767B" fill-opacity="1.000000" fill-rule="evenodd"/>
	</g>
</svg>
