<svg width="24.000000" height="24.000000" viewBox="0 0 24 24" fill="none" xmlns="http://www.w3.org/2000/svg" xmlns:xlink="http://www.w3.org/1999/xlink">
	<desc>
			Created with Pixso.
	</desc>
	<defs>
		<clipPath id="clip17_1125">
			<rect id="Outline / Spell Check Outline" width="24.000000" height="24.000000" fill="white" fill-opacity="0"/>
		</clipPath>
	</defs>
	<g clip-path="url(#clip17_1125)">
		<path id="Shape" d="M12.07 3.96C12.31 3.96 12.54 4.1 12.65 4.32L18.01 15.15C18.17 15.47 18.04 15.86 17.71 16.02C17.39 16.18 17 16.05 16.84 15.73L16.39 14.82L7.71 14.82L5.22 19.81C5.06 20.13 4.67 20.26 4.35 20.1C4.03 19.94 3.9 19.55 4.06 19.23L11.48 4.32C11.59 4.1 11.82 3.96 12.07 3.96ZM12.06 6.07L15.75 13.52L8.35 13.52L12.06 6.07ZM20.81 17.04C21.06 16.79 21.06 16.38 20.81 16.12C20.55 15.87 20.14 15.87 19.89 16.13L17.43 18.6L16.1 17.27C15.85 17.02 15.44 17.02 15.18 17.27C14.93 17.53 14.93 17.94 15.18 18.19L16.97 19.98C17.09 20.1 17.26 20.17 17.43 20.17C17.6 20.17 17.77 20.1 17.89 19.98L20.81 17.04Z" fill="#717681" fill-opacity="1.000000" fill-rule="evenodd"/>
	</g>
</svg>
