<svg width="24.000000" height="24.000000" viewBox="0 0 24 24" fill="none" xmlns="http://www.w3.org/2000/svg" xmlns:xlink="http://www.w3.org/1999/xlink">
	<desc>
			Created with Pixso.
	</desc>
	<defs>
		<clipPath id="clip132973_92">
			<rect id="Outline / Subscript Outline" width="24.000000" height="24.000000" fill="white" fill-opacity="0"/>
		</clipPath>
	</defs>
	<g clip-path="url(#clip132973_92)">
		<path id="Shape" d="M5.16 4.22C4.95 3.93 4.55 3.87 4.26 4.09C3.98 4.3 3.91 4.71 4.12 5L9.21 12.02L4.12 19.05C3.91 19.34 3.98 19.75 4.26 19.96C4.55 20.18 4.95 20.12 5.16 19.82L10.01 13.13L14.85 19.82C15.06 20.12 15.47 20.18 15.76 19.96C16.04 19.75 16.1 19.34 15.89 19.05L10.81 12.02L15.89 5C16.11 4.71 16.04 4.3 15.76 4.09C15.47 3.87 15.06 3.93 14.85 4.22L10.01 10.92L5.16 4.22ZM18.85 15.77C19.33 15.24 20.19 15.33 20.55 15.95C20.79 16.35 20.73 16.86 20.41 17.2L17.01 20.91C16.83 21.1 16.79 21.37 16.89 21.61C16.99 21.84 17.23 22 17.49 22L21.34 22C21.69 22 21.99 21.7 21.99 21.35C21.99 20.99 21.69 20.7 21.34 20.7L18.97 20.7L21.37 18.08C22.07 17.32 22.2 16.19 21.67 15.29C20.87 13.92 18.97 13.72 17.89 14.89L17.51 15.31C17.26 15.57 17.28 15.98 17.54 16.23C17.81 16.47 18.22 16.45 18.46 16.19L18.85 15.77Z" fill="#717681" fill-opacity="1.000000" fill-rule="evenodd"/>
	</g>
</svg>
