<svg width="24.000000" height="24.000000" viewBox="0 0 24 24" fill="none" xmlns="http://www.w3.org/2000/svg" xmlns:xlink="http://www.w3.org/1999/xlink">
	<desc>
			Created with Pixso.
	</desc>
	<defs>
		<clipPath id="clip132973_93">
			<rect id="Outline / Superscript Outline" width="24.000000" height="24.000000" fill="white" fill-opacity="0"/>
		</clipPath>
	</defs>
	<g >
		<path id="Shape" d="M18.85 3.64C19.33 3.11 20.19 3.2 20.55 3.82C20.79 4.22 20.73 4.73 20.41 5.08L17.01 8.78C16.83 8.97 16.79 9.24 16.89 9.48C16.99 9.72 17.23 9.87 17.49 9.87L21.34 9.87C21.69 9.87 21.99 9.58 21.99 9.22C21.99 8.86 21.69 8.57 21.34 8.57L18.97 8.57L21.37 5.96C22.07 5.19 22.2 4.06 21.67 3.16C20.87 1.79 18.97 1.59 17.89 2.76L17.51 3.18C17.26 3.45 17.28 3.86 17.54 4.1C17.81 4.34 18.22 4.33 18.46 4.06L18.85 3.64ZM5.16 4.22C4.95 3.93 4.55 3.87 4.26 4.09C3.98 4.3 3.91 4.71 4.12 5L9.21 12.02L4.12 19.05C3.91 19.34 3.98 19.75 4.26 19.96C4.55 20.18 4.95 20.12 5.16 19.82L10.01 13.13L14.85 19.82C15.06 20.12 15.47 20.18 15.76 19.96C16.04 19.75 16.1 19.34 15.89 19.05L10.81 12.02L15.89 5C16.11 4.71 16.04 4.3 15.76 4.09C15.47 3.87 15.06 3.93 14.85 4.22L10.01 10.92L5.16 4.22Z" fill="#74767B" fill-opacity="1.000000" fill-rule="evenodd"/>
	</g>
</svg>
