<svg viewBox="0 0 24 24" xmlns="http://www.w3.org/2000/svg" xmlns:xlink="http://www.w3.org/1999/xlink" width="24.000000" height="24.000000" fill="none">
	<rect id="Outline/Table Outline" width="24.000000" height="24.000000" x="0.000000" y="0.000000" transform="matrix(1,-6.12324e-17,-6.12324e-17,-1,0,24)" />
	<path id="Shape" d="M13 14.6961L8.64648 14.6961L8.64648 8.72446L14.7 8.72446L14.7 12.9909C14.7 13.9327 13.9389 14.6961 13 14.6961ZM14.7 7.42054L8.64648 7.42054L8.64648 1.30392L13 1.30392C13.9389 1.30392 14.7 2.06734 14.7 3.00906L14.7 7.42054ZM7.34648 7.42054L7.34648 1.30392L3 1.30392C2.06112 1.30392 1.3 2.06734 1.3 3.00905L1.3 7.42054L7.34648 7.42054ZM1.3 8.72446L1.3 12.9909C1.3 13.9327 2.06112 14.6961 3 14.6961L7.34648 14.6961L7.34648 8.72446L1.3 8.72446ZM3 16C1.34315 16 0 14.6528 0 12.9909L0 3.00905C0 1.3472 1.34315 0 3 0L13 0C14.6569 0 16 1.3472 16 3.00906L16 12.9909C16 14.6528 14.6569 16 13 16L3 16Z" fill="rgb(116,118,123)" fill-rule="evenodd" transform="matrix(1,-6.12324e-17,-6.12324e-17,-1,4,20)" />
</svg>
