<svg width="24" height="24" viewBox="0 0 24 24" fill="none" xmlns="http://www.w3.org/2000/svg">
<path fill-rule="evenodd" clip-rule="evenodd" d="M9.20321 4.04114C9.54733 4.14336 9.74343 4.5052 9.64121 4.84932L7.90872 10.6815H11.9904C12.0357 10.6815 12.0799 10.6862 12.1226 10.695L18.9393 4.28041C19.2007 4.0344 19.6121 4.0469 19.8581 4.30834C20.1041 4.56977 20.0916 4.98114 19.8302 5.22715L13.204 11.4625L17.6825 18.9798C17.8663 19.2882 17.7652 19.6871 17.4568 19.8709C17.1484 20.0546 16.7495 19.9536 16.5657 19.6452L11.9999 11.9815C11.9968 11.9815 11.9936 11.9815 11.9904 11.9815L7.52255 11.9815L5.27253 19.556C5.1703 19.9001 4.80847 20.0962 4.46435 19.994C4.12022 19.8918 3.92412 19.5299 4.02635 19.1858L8.39503 4.47914C8.49725 4.13501 8.85909 3.93892 9.20321 4.04114Z" fill="#717681"/>
</svg>
