<svg viewBox="0 0 24 24" xmlns="http://www.w3.org/2000/svg" xmlns:xlink="http://www.w3.org/1999/xlink" width="24.000000" height="24.000000" fill="none">
	<rect id="Outline/Text italic Outline" width="24.000000" height="24.000000" x="0.000000" y="0.000000" />
	<path id="Shape" d="M5.20394 15.9799C5.54806 15.8777 5.74416 15.5159 5.64194 15.1717L3.90946 9.33953L7.99113 9.33953C8.03644 9.33953 8.08067 9.33489 8.12337 9.32607L14.94 15.7406C15.2014 15.9867 15.6128 15.9742 15.8588 15.7127C16.1048 15.4513 16.0923 15.0399 15.8309 14.7939L9.20471 8.55855L13.6833 1.04127C13.867 0.732866 13.7659 0.333911 13.4575 0.150175C13.1491 -0.0335612 12.7502 0.0674997 12.5665 0.375902L8.00066 8.0396C7.99749 8.03955 7.99431 8.03953 7.99113 8.03953L3.52329 8.03953L1.27326 0.465079C1.17104 0.120956 0.809202 -0.0751423 0.465079 0.0270801C0.120956 0.129304 -0.0751428 0.491139 0.0270805 0.835262L4.39576 15.5419C4.49798 15.886 4.85982 16.0821 5.20394 15.9799Z" fill="rgb(116,118,123)" fill-rule="evenodd" transform="matrix(1,-6.12324e-17,-6.12324e-17,-1,3.99927,20.021)" />
</svg>
