<svg width="24.000000" height="24.000000" viewBox="0 0 24 24" fill="none" xmlns="http://www.w3.org/2000/svg" xmlns:xlink="http://www.w3.org/1999/xlink">
	<desc>
			Created with Pixso.
	</desc>
	<defs>
		<clipPath id="clip17_1189">
			<rect id="Outline / Text italic Outline" width="24.000000" height="24.000000" fill="white" fill-opacity="0"/>
		</clipPath>
	</defs>
	<g clip-path="url(#clip17_1189)">
		<path id="Shape" d="M9.2 4.04C9.54 4.14 9.74 4.5 9.64 4.84L7.9 10.68L11.99 10.68C12.03 10.68 12.07 10.68 12.12 10.69L18.93 4.28C19.2 4.03 19.61 4.04 19.85 4.3C20.1 4.56 20.09 4.98 19.83 5.22L13.2 11.46L17.68 18.97C17.86 19.28 17.76 19.68 17.45 19.87C17.14 20.05 16.74 19.95 16.56 19.64L12 11.98C11.99 11.98 11.99 11.98 11.99 11.98L7.52 11.98L5.27 19.55C5.17 19.9 4.8 20.09 4.46 19.99C4.12 19.89 3.92 19.52 4.02 19.18L8.39 4.47C8.49 4.13 8.85 3.93 9.2 4.04Z" fill="#74767B" fill-opacity="1.000000" fill-rule="evenodd"/>
	</g>
</svg>
