<svg width="24.000000" height="24.000000" viewBox="0 0 24 24" fill="none" xmlns="http://www.w3.org/2000/svg" xmlns:xlink="http://www.w3.org/1999/xlink">
	<desc>
			Created with Pixso.
	</desc>
	<defs>
		<clipPath id="clip129900_88">
			<rect id="Outline / Unwrap Outline" width="24.000000" height="24.000000" fill="white" fill-opacity="0"/>
		</clipPath>
	</defs>
	<g clip-path="url(#clip129900_88)">
		<path id="Shape" d="M6.39 15.24C6.57 15.24 6.74 15.17 6.87 15.03C7.11 14.76 7.09 14.35 6.83 14.11L5.28 12.63L10.37 12.65C10.73 12.65 11.02 12.36 11.02 12C11.02 11.64 10.73 11.35 10.37 11.35C8.77 11.34 8.3 11.34 7.89 11.33C7.43 11.33 7.05 11.33 5.28 11.33L6.83 9.95C7.1 9.71 7.11 9.3 6.87 9.03C6.63 8.77 6.22 8.75 5.95 8.99L3.24 11.46C2.93 11.74 2.93 12.22 3.24 12.5L5.95 15.07C6.08 15.19 6.23 15.24 6.39 15.24ZM17.61 15.24C17.43 15.24 17.26 15.17 17.13 15.03C16.89 14.76 16.91 14.35 17.17 14.11L18.73 12.63L13.64 12.65C13.28 12.65 12.99 12.36 12.99 12C12.99 11.64 13.28 11.35 13.64 11.35C15.24 11.34 15.71 11.34 16.12 11.33C16.57 11.33 16.96 11.33 18.72 11.33L17.17 9.95C16.9 9.71 16.89 9.3 17.13 9.03C17.37 8.77 17.78 8.75 18.05 8.99L20.76 11.46C21.07 11.74 21.07 12.22 20.76 12.5L18.05 15.07C17.92 15.19 17.77 15.24 17.61 15.24Z" fill="#74767B" fill-opacity="1.000000" fill-rule="evenodd"/>
	</g>
</svg>
