<svg width="24" height="24" viewBox="0 0 24 24" fill="none" xmlns="http://www.w3.org/2000/svg">
<path d="M6.87959 15.0363C6.74959 15.1763 6.57959 15.2463 6.39959 15.2463C6.23959 15.2463 6.08959 15.1963 5.95959 15.0763L3.24959 12.5008C2.93959 12.2208 2.93959 11.7408 3.24959 11.4608L5.95959 8.9963C6.22959 8.7563 6.63959 8.7763 6.87959 9.0363C7.11959 9.3063 7.10959 9.7163 6.83959 9.9563L5.28902 11.3308C7.05199 11.3308 7.43999 11.3347 7.89539 11.3392C8.30823 11.3434 8.77646 11.348 10.3747 11.3509C10.7332 11.3515 11.0235 11.6424 11.0235 12.0009C11.0235 12.3604 10.7318 12.6516 10.3724 12.6509L5.28514 12.6338L6.83959 14.1163C7.09959 14.3563 7.11959 14.7663 6.87959 15.0363Z" fill="#717681"/>
<path d="M17.1387 15.0363C17.2687 15.1763 17.4387 15.2463 17.6187 15.2463C17.7787 15.2463 17.9287 15.1963 18.0587 15.0763L20.7687 12.5008C21.0787 12.2208 21.0787 11.7408 20.7687 11.4608L18.0587 8.9963C17.7887 8.7563 17.3787 8.7763 17.1387 9.0363C16.8987 9.3063 16.9087 9.7163 17.1787 9.9563L18.7293 11.3308C16.9663 11.3308 16.5783 11.3347 16.1229 11.3392C15.7101 11.3434 15.2418 11.348 13.6436 11.3509C13.2851 11.3515 12.9948 11.6424 12.9948 12.0009C12.9948 12.3604 13.2865 12.6516 13.6459 12.6509L18.7332 12.6338L17.1787 14.1163C16.9187 14.3563 16.8987 14.7663 17.1387 15.0363Z" fill="#717681"/>
</svg>
