<svg width="24" height="24" viewBox="0 0 24 24" fill="none" xmlns="http://www.w3.org/2000/svg">
<path d="M7.16055 15.0363C7.29055 15.1763 7.46055 15.2463 7.64055 15.2463C7.80055 15.2463 7.95055 15.1963 8.08055 15.0763L10.7905 12.5008C11.1005 12.2208 11.1005 11.7408 10.7905 11.4608L8.08055 8.9963C7.81055 8.7563 7.40055 8.7763 7.16055 9.0363C6.92055 9.3063 6.93055 9.7163 7.20055 9.9563L8.75111 11.3308C6.98815 11.3308 6.60015 11.3347 6.14475 11.3392C5.73191 11.3434 5.26368 11.348 3.66547 11.3509C3.30692 11.3515 3.0166 11.6424 3.0166 12.0009C3.0166 12.3604 3.3083 12.6516 3.66773 12.6509L8.755 12.6338L7.20055 14.1163C6.94055 14.3563 6.92055 14.7663 7.16055 15.0363Z" fill="#717681"/>
<path d="M16.8755 15.0363C16.7455 15.1763 16.5755 15.2463 16.3955 15.2463C16.2355 15.2463 16.0855 15.1963 15.9555 15.0763L13.2455 12.5008C12.9355 12.2208 12.9355 11.7408 13.2455 11.4608L15.9555 8.9963C16.2255 8.7563 16.6355 8.7763 16.8755 9.0363C17.1155 9.3063 17.1055 9.7163 16.8355 9.9563L15.285 11.3308C17.0479 11.3308 17.4359 11.3347 17.8913 11.3392C18.3042 11.3434 18.7724 11.348 20.3706 11.3509C20.7292 11.3515 21.0195 11.6424 21.0195 12.0009C21.0195 12.3604 20.7278 12.6516 20.3684 12.6509L15.2811 12.6338L16.8355 14.1163C17.0955 14.3563 17.1155 14.7663 16.8755 15.0363Z" fill="#717681"/>
</svg>
