<svg xmlns="http://www.w3.org/2000/svg" fill="none" viewBox="0 0 24 24" focusable="false"><path fill="#74767B" fill-rule="evenodd" d="M4.64 4.03c.36 0 .66.29.66.65V18c0 .36.29.65.65.65h13.38c.36 0 .65.29.65.65s-.29.65-.65.65H5.95C4.87 19.95 4 19.08 4 18V4.68c0-.36.29-.65.64-.65m15.02 3.92a.67.67 0 0 0-.51-.16l-3.02.32c-.35.04-.61.36-.57.72.03.36.35.62.71.58l1.37-.15-3.57 3.57-2.85-2.86a.68.68 0 0 0-.46-.19c-.18 0-.34.07-.46.19l-3.32 3.32a.64.64 0 0 0 0 .92c.25.25.66.25.92 0l2.86-2.86 2.86 2.86a.636.636 0 0 0 .91 0l4.06-4.06.01 1.26c0 .36.3.64.65.64.36 0 .65-.3.65-.66l-.03-2.96c0-.18-.08-.36-.21-.48"/></svg>