<svg xmlns="http://www.w3.org/2000/svg" fill="none" viewBox="0 0 24 24" focusable="false"><path fill="#717681" fill-rule="evenodd" d="M3 16c0 1.65 1.34 3 3 3h12c1.65 0 3-1.35 3-3V8c0-1.56-1.19-2.84-2.7-2.99C18.2 5 18.1 5 18 5H6C4.34 5 3 6.34 3 8zm15-9.71c.93 0 1.7.77 1.7 1.71v8c0 .93-.77 1.7-1.7 1.7H6c-.94 0-1.7-.77-1.7-1.7V8c0-.94.76-1.71 1.7-1.71zM6.96 8.12c-.52 0-.95.43-.95.95v2.42c0 .52.43.95.95.95H9.3c.53 0 .95-.43.95-.95V9.07a.95.95 0 0 0-.95-.95zm.35 3.02V9.42h1.64v1.72zm-1.3 4.3c0-.36.29-.65.65-.65h1.7c.36 0 .65.29.65.65s-.29.65-.65.65h-1.7c-.36 0-.65-.29-.65-.65m4.49 0c0-.36.29-.65.65-.65h1.69c.36 0 .65.29.65.65s-.29.65-.65.65h-1.69c-.36 0-.65-.29-.65-.65m4.51 0c0-.36.29-.65.65-.65h1.69c.36 0 .65.29.65.65s-.29.65-.65.65h-1.69c-.36 0-.65-.29-.65-.65"/></svg>