<svg xmlns="http://www.w3.org/2000/svg" fill="none" viewBox="0 0 24 24" focusable="false"><path fill="#74767B" fill-rule="evenodd" d="M3 16C3 17.6569 4.34314 19 6 19L18 19C19.6569 19 21 17.6569 21 16L21 8C21 6.4467 19.8195 5.16912 18.3067 5.01549C18.2059 5.00525 18.1036 5 18 5L6 5C4.34315 5 3 6.34315 3 8L3 16ZM18 6.3C18.9389 6.3 19.7 7.06112 19.7 8L19.7 8.28955L4.49531 8.28955C4.42726 8.28955 4.36165 8.30001 4.3 8.3194L4.3 8C4.3 7.06112 5.06112 6.3 6 6.3L18 6.3ZM4.3 9.5597L4.3 16C4.3 16.9389 5.06112 17.7 6 17.7L18 17.7C18.9389 17.7 19.7 16.9389 19.7 16L19.7 9.58955L4.49531 9.58955C4.42726 9.58955 4.36165 9.57909 4.3 9.5597ZM9.35 11.1942C9.35 10.8352 9.64102 10.5442 10 10.5442L14 10.5442C14.359 10.5442 14.65 10.8352 14.65 11.1942C14.65 11.5532 14.359 11.8442 14 11.8442L12.65 11.8442L12.65 16.1042C12.65 16.4632 12.359 16.7542 12 16.7542C11.641 16.7542 11.35 16.4632 11.35 16.1042L11.35 11.8442L10 11.8442C9.64102 11.8442 9.35 11.5532 9.35 11.1942Z"/></svg>