<svg xmlns="http://www.w3.org/2000/svg" fill="none" viewBox="0 0 24 24" focusable="false"><path fill="#717681" d="M7.14 10.544a.65.65 0 1 0 0 1.3h1.35v4.26a.65.65 0 0 0 1.3 0v-4.26h1.35a.65.65 0 0 0 0-1.3h-4"/><path fill="#717681" fill-rule="evenodd" d="M13.44 10.544h1.78a2.29 2.29 0 1 1 0 4.582h-1.13v.978a.65.65 0 1 1-1.3 0v-4.91a.65.65 0 0 1 .65-.65m.65 1.3v1.982h1.13a.99.99 0 1 0 0-1.982h-1.13" clip-rule="evenodd"/><path fill="#717681" fill-rule="evenodd" d="M6 19a3 3 0 0 1-3-3V8a3 3 0 0 1 3-3h12a3 3 0 0 1 3 3v8a3 3 0 0 1-3 3H6M19.7 8A1.7 1.7 0 0 0 18 6.3H6A1.7 1.7 0 0 0 4.3 8v.32a.65.65 0 0 1 .195-.03H19.7V8M4.3 16V9.56a.65.65 0 0 0 .195.03H19.7V16a1.7 1.7 0 0 1-1.7 1.7H6A1.7 1.7 0 0 1 4.3 16Z" clip-rule="evenodd"/></svg>