<svg xmlns="http://www.w3.org/2000/svg" fill="none" viewBox="0 0 24 24" focusable="false"><path fill="#717681" fill-rule="evenodd" d="M6 19a3 3 0 0 1-3-3V8a3 3 0 0 1 3-3h12q.156 0 .307.015A3 3 0 0 1 21 8v8a3 3 0 0 1-3 3zm.019-10.104c0-.426.351-.771.785-.771h1.932c.433 0 .785.345.785.77v1.961c0 .426-.352.771-.785.771H6.804a.78.78 0 0 1-.785-.77zm.65 5.935a.65.65 0 1 0 0 1.3h1.693a.65.65 0 1 0 0-1.3zm8.346.65a.65.65 0 0 1 .65-.65h1.693a.65.65 0 1 1 0 1.3h-1.693a.65.65 0 0 1-.65-.65m-3.861-.65a.65.65 0 1 0 0 1.3h1.693a.65.65 0 1 0 0-1.3z" clip-rule="evenodd"/></svg>