<svg xmlns="http://www.w3.org/2000/svg" fill="none" viewBox="0 0 24 24" focusable="false"><path fill="#717681" fill-rule="evenodd" d="M3 16a3 3 0 0 0 3 3h12a3 3 0 0 0 3-3V8a3 3 0 0 0-3-3H6a3 3 0 0 0-3 3zm15-9.7A1.7 1.7 0 0 1 19.7 8v.29H4.495a.7.7 0 0 0-.195.03V8A1.7 1.7 0 0 1 6 6.3zM4.3 9.56V16A1.7 1.7 0 0 0 6 17.7h12a1.7 1.7 0 0 0 1.7-1.7V9.59H4.495a.7.7 0 0 1-.195-.03" clip-rule="evenodd"/><path fill="#717681" d="M10 10.544a.65.65 0 1 0 0 1.3h1.35v4.26a.65.65 0 1 0 1.3 0v-4.26H14a.65.65 0 1 0 0-1.3z"/></svg>