<svg xmlns="http://www.w3.org/2000/svg" fill="none" viewBox="0 0 24 24" focusable="false"><defs><clipPath id="Card_T_Solid_svg__a"><path fill="#fff" fill-opacity="0" d="M0 0h24v24H0z"/></clipPath></defs><g clip-path="url(#Card_T_Solid_svg__a)"><path fill="#717681" fill-rule="evenodd" d="M6 5C4.34 5 3 6.34 3 8v.27h18V8c0-1.66-1.35-3-3-3zm15 4.57H3V16c0 1.65 1.34 3 3 3h12c1.65 0 3-1.35 3-3zM9.99 11.18c-.35 0-.65.29-.65.65s.3.65.65.65h1.36v4.26c0 .36.29.65.65.65.35 0 .65-.29.65-.65v-4.26H14c.35 0 .65-.29.65-.65s-.3-.65-.65-.65z"/></g></svg>