<svg xmlns="http://www.w3.org/2000/svg" width="24" height="24" fill="none"><path fill="#717681" d="M3 8a3 3 0 0 1 3-3h12a3 3 0 0 1 3 3v.27H3V8ZM14.09 12.486v1.982h1.13a.99.99 0 0 0 0-1.982h-1.13Z"/><path fill="#717681" fill-rule="evenodd" d="M3 9.57h18V16a3 3 0 0 1-3 3H6a3 3 0 0 1-3-3V9.57Zm4.14 1.616a.65.65 0 1 0 0 1.3h1.35v4.26a.65.65 0 1 0 1.3 0v-4.26h1.35a.65.65 0 1 0 0-1.3h-4Zm6.3 0h1.78a2.29 2.29 0 1 1 0 4.582h-1.13v.978a.65.65 0 1 1-1.3 0v-4.91a.65.65 0 0 1 .65-.65Z" clip-rule="evenodd"/></svg>