<svg xmlns="http://www.w3.org/2000/svg" fill="none" viewBox="0 0 24 24" focusable="false"><path fill="#74767B" fill-rule="evenodd" d="M2.99 8c0-1.66 1.35-3 3-3H18c1.65 0 3 1.34 3 3v.27H2.99zM21 9.57H2.99V16c0 1.65 1.35 3 3 3H18c1.65 0 3-1.35 3-3zM6.49 11.83c0-.36.29-.65.65-.65h4c.35 0 .65.29.65.65s-.3.65-.65.65H9.79v4.26c0 .36-.3.65-.65.65-.36 0-.65-.29-.65-.65v-4.26H7.14c-.36 0-.65-.29-.65-.65m8.72-.65h-1.77c-.36 0-.65.29-.65.65v4.91c0 .36.29.65.65.65.35 0 .65-.29.65-.65v-.98h1.12c1.27 0 2.29-1.02 2.29-2.29a2.29 2.29 0 0 0-2.29-2.29m-1.12 1.3v1.98h1.12c.55 0 .99-.44.99-.99s-.44-.99-.99-.99z"/></svg>