<svg xmlns="http://www.w3.org/2000/svg" width="24" height="24" fill="none"><path fill="#717681" fill-rule="evenodd" d="M6 19a3 3 0 0 1-3-3V8a3 3 0 0 1 3-3h12a3 3 0 0 1 3 3v8a3 3 0 0 1-3 3H6Zm.019-10.104c0-.426.351-.771.785-.771h1.932c.433 0 .785.345.785.77v1.961c0 .426-.352.771-.785.771H6.804a.778.778 0 0 1-.785-.77V8.895Zm.65 5.935a.65.65 0 1 0 0 1.3H8.36a.65.65 0 1 0 0-1.3H6.67Zm8.346.65a.65.65 0 0 1 .65-.65h1.693a.65.65 0 1 1 0 1.3h-1.693a.65.65 0 0 1-.65-.65Zm-3.861-.65a.65.65 0 1 0 0 1.3h1.693a.65.65 0 1 0 0-1.3h-1.693Z" clip-rule="evenodd"/></svg>