<svg xmlns="http://www.w3.org/2000/svg" fill="none" viewBox="0 0 24 24" focusable="false"><defs><clipPath id="Cash_Outline_svg__a"><path fill="#fff" fill-opacity="0" d="M0 0h24v24H0z"/></clipPath></defs><g clip-path="url(#Cash_Outline_svg__a)"><path fill="#717681" fill-rule="evenodd" d="M15.67 7.96C16.81 9.77 19 13.56 19 16c0 3.62-3 5-7 5s-7-1.38-7-5c0-2.44 2.18-6.23 3.32-8.04L6.46 3.99c-.22-.46.12-.99.64-.99h9.8c.51 0 .85.53.63.99zm.28-3.66H8.04l1.35 2.9h5.21zM9.52 8.5c-.47.73-1.16 1.87-1.79 3.11-.84 1.68-1.43 3.3-1.43 4.39 0 1.38.53 2.21 1.39 2.76.95.6 2.42.94 4.31.94 1.88 0 3.35-.34 4.3-.94.86-.55 1.4-1.38 1.4-2.76 0-1.09-.6-2.71-1.44-4.39-.63-1.24-1.32-2.38-1.79-3.11zm3.31 5.73h-1.42v.95h2.04c.36 0 .65.29.65.65 0 .36-.29.65-.65.65h-2.04v.64c0 .36-.29.65-.65.65-.36 0-.65-.29-.65-.65v-.64h-.56c-.36 0-.65-.29-.65-.65 0-.36.29-.65.65-.65h.56v-.95h-.55c-.36 0-.65-.29-.65-.65 0-.35.29-.65.65-.65h.55v-2.26c0-.53.43-.95.95-.95h1.77a2.256 2.256 0 1 1 0 4.51m-1.42-1.3v-1.91h1.42c.53 0 .96.43.96.96s-.43.95-.96.95z"/></g></svg>