<svg xmlns="http://www.w3.org/2000/svg" fill="none" viewBox="0 0 24 24" focusable="false"><path fill="#74767B" fill-rule="evenodd" d="M15.6783 7.96583C16.8195 9.77836 19 13.5609 19 16C19 19.625 16 21 12 21C8 21 5 19.625 5 16C5 13.5609 7.18054 9.77836 8.3217 7.96582L6.46589 3.99647C6.24889 3.53234 6.58766 3 7.10001 3L16.9 3C17.4124 3 17.7511 3.53234 17.5341 3.99647L15.6783 7.96583ZM15.9572 4.3L8.04287 4.3L9.39872 7.2L14.6013 7.2L15.9572 4.3ZM9.52211 8.50001C9.0553 9.23358 8.36579 10.3723 7.73979 11.6187C6.89983 13.2912 6.3 14.9185 6.3 16C6.3 17.3841 6.83632 18.2133 7.69882 18.7632C8.64947 19.3692 10.1121 19.7 12 19.7C13.8879 19.7 15.3505 19.3692 16.3012 18.7632C17.1637 18.2133 17.7 17.3841 17.7 16C17.7 14.9185 17.1002 13.2912 16.2602 11.6187C15.6342 10.3723 14.9447 9.23358 14.4779 8.50001L9.52211 8.50001ZM11.4114 14.2394L12.838 14.2394C14.0839 14.2394 15.0939 13.2294 15.0939 11.9835C15.0939 10.7377 14.0839 9.72766 12.838 9.72766L11.0614 9.72766C10.5407 9.72766 10.1114 10.1477 10.1114 10.6763L10.1114 12.9394L9.56437 12.9394C9.20538 12.9394 8.91437 13.2304 8.91437 13.5894C8.91437 13.9484 9.20538 14.2394 9.56437 14.2394L10.1114 14.2394L10.1114 15.1869L9.55588 15.1869C9.1969 15.1869 8.90588 15.4779 8.90588 15.8369C8.90588 16.1959 9.1969 16.4869 9.55588 16.4869L10.1114 16.4869L10.1114 17.1223C10.1114 17.4813 10.4025 17.7723 10.7614 17.7723C11.1204 17.7723 11.4114 17.4813 11.4114 17.1223L11.4114 16.4869L13.453 16.4869C13.812 16.4869 14.103 16.1959 14.103 15.8369C14.103 15.4779 13.812 15.1869 13.453 15.1869L11.4114 15.1869L11.4114 14.2394ZM11.4114 11.0277L11.4114 12.9394L12.838 12.9394C13.3659 12.9394 13.7939 12.5115 13.7939 11.9835C13.7939 11.4556 13.3659 11.0277 12.838 11.0277L11.4114 11.0277Z"/></svg>