<svg xmlns="http://www.w3.org/2000/svg" fill="none" viewBox="0 0 24 24" focusable="false"><path fill="#717681" fill-rule="evenodd" d="M11.411 14.24h1.427a2.256 2.256 0 1 0 0-4.512h-1.777c-.52 0-.95.42-.95.948v2.263h-.547a.65.65 0 1 0 0 1.3h.547v.948h-.555a.65.65 0 1 0 0 1.3h.555v.635a.65.65 0 0 0 1.3 0v-.635h2.042a.65.65 0 1 0 0-1.3h-2.042zm0-3.212v1.911h1.427a.956.956 0 1 0 0-1.911z" clip-rule="evenodd"/><path fill="#717681" fill-rule="evenodd" d="M19 16c0-2.44-2.18-6.222-3.322-8.034l1.856-3.97A.7.7 0 0 0 16.9 3H7.1a.7.7 0 0 0-.634.996l1.856 3.97C7.18 9.778 5 13.56 5 16c0 3.625 3 5 7 5s7-1.375 7-5M8.043 4.3h7.914l-1.356 2.9H9.4zm-.303 7.319A37 37 0 0 1 9.522 8.5h4.956a37 37 0 0 1 1.782 3.119c.84 1.672 1.44 3.3 1.44 4.381 0 1.384-.536 2.213-1.399 2.763-.95.606-2.413.937-4.301.937s-3.35-.33-4.301-.937C6.836 18.213 6.3 17.384 6.3 16c0-1.082.6-2.709 1.44-4.381" clip-rule="evenodd"/></svg>