<svg xmlns="http://www.w3.org/2000/svg" fill="none" viewBox="0 0 24 24" focusable="false"><defs><clipPath id="Cashbox_Solid_svg__a"><path fill="#fff" fill-opacity="0" d="M0 0h24v24H0z"/></clipPath></defs><g clip-path="url(#Cashbox_Solid_svg__a)"><path fill="#717681" fill-rule="evenodd" d="M10.99 4.34c0-.72.59-1.3 1.3-1.3h5.41c.71 0 1.3.58 1.3 1.3v1.32c0 .72-.59 1.3-1.3 1.3h-2.05v1.67h1.23c.64 0 1.19.47 1.29 1.1l.59 3.8c.12.78-.49 1.5-1.28 1.5H6.51c-.79 0-1.4-.72-1.28-1.5l.59-3.8c.1-.63.65-1.1 1.29-1.1h7.24V6.96h-2.06c-.71 0-1.3-.58-1.3-1.3zm-3.98 7.31c0-.36.3-.65.65-.65h3.12c.36 0 .65.29.65.65s-.29.65-.65.65H7.66c-.35 0-.65-.29-.65-.65m-1.73 4.72c-.72 0-1.3.58-1.3 1.3v1.04c0 .72.58 1.31 1.3 1.31h13.43c.72 0 1.3-.59 1.3-1.31v-1.04c0-.72-.58-1.3-1.3-1.3z"/></g></svg>