<svg xmlns="http://www.w3.org/2000/svg" fill="none" viewBox="0 0 24 24" focusable="false"><path fill="#717681" fill-rule="evenodd" d="M11 4.345a1.3 1.3 0 0 1 1.3-1.3h5.4a1.3 1.3 0 0 1 1.3 1.3v1.32a1.3 1.3 0 0 1-1.3 1.3h-2.05v1.67h1.237a1.3 1.3 0 0 1 1.285 1.1l.593 3.796a1.3 1.3 0 0 1-1.284 1.501H6.519a1.3 1.3 0 0 1-1.284-1.5l.593-3.798a1.3 1.3 0 0 1 1.285-1.099h7.237v-1.67H12.3a1.3 1.3 0 0 1-1.3-1.3zm-3.98 7.311a.65.65 0 0 1 .65-.65h3.114a.65.65 0 1 1 0 1.3H7.67a.65.65 0 0 1-.65-.65M5.286 16.37a1.3 1.3 0 0 0-1.3 1.3v1.05a1.3 1.3 0 0 0 1.3 1.3h13.426a1.3 1.3 0 0 0 1.3-1.3v-1.05a1.3 1.3 0 0 0-1.3-1.3z" clip-rule="evenodd"/></svg>