<svg xmlns="http://www.w3.org/2000/svg" width="24" height="24" fill="none"><path fill="#717681" fill-rule="evenodd" d="M11 4.366c0-.745.605-1.35 1.35-1.35h5.3c.745 0 1.35.605 1.35 1.35v1.281a1.35 1.35 0 0 1-1.35 1.35h-2v1.719h.53c.961 0 1.779.7 1.927 1.65l.644 4.14a1.95 1.95 0 0 1 1.267 1.826v1.7a1.95 1.95 0 0 1-1.95 1.95H5.932a1.95 1.95 0 0 1-1.95-1.95v-1.7c0-.836.527-1.55 1.267-1.827l.644-4.14a1.95 1.95 0 0 1 1.927-1.65h6.53V6.998h-2A1.35 1.35 0 0 1 11 5.647v-1.28Zm1.35-.05a.05.05 0 0 0-.05.05v1.281c0 .028.023.05.05.05h5.3a.05.05 0 0 0 .05-.05v-1.28a.05.05 0 0 0-.05-.05h-5.3ZM5.932 15.682h12.136a.65.65 0 0 1 .65.65v1.7a.65.65 0 0 1-.65.65H5.932a.65.65 0 0 1-.65-.65v-1.7a.65.65 0 0 1 .65-.65Zm10.89-5.116.595 3.816H6.583l.594-3.816a.65.65 0 0 1 .642-.55h8.36a.65.65 0 0 1 .642.55Zm-7.976.732a.65.65 0 1 0 0 1.3h3.115a.65.65 0 0 0 0-1.3H8.846Z" clip-rule="evenodd"/></svg>