<svg xmlns="http://www.w3.org/2000/svg" fill="none" viewBox="0 0 24 24" focusable="false"><path fill="#74767B" fill-rule="evenodd" d="M7.1 3h9.8c.51 0 .85.53.63.99L15.65 8C16.79 9.8 19 13.61 19 16.07c0 3.62-3 5-7 5s-7-1.38-7-5C5 13.61 7.2 9.8 8.34 8L6.46 3.99c-.22-.46.12-.99.64-.99m4.31 11.23h1.42a2.256 2.256 0 1 0 0-4.51h-1.77a.95.95 0 0 0-.95.95v2.26h-.55c-.36 0-.65.3-.65.65 0 .36.29.65.65.65h.55v.95h-.56c-.36 0-.65.29-.65.65s.29.65.65.65h.56v.64c0 .36.29.65.65.65s.65-.29.65-.65v-.64h2.04c.36 0 .65-.29.65-.65s-.29-.65-.65-.65h-2.04zm0-3.21v1.91h1.42c.53 0 .96-.42.96-.95a.96.96 0 0 0-.96-.96z"/></svg>