<svg xmlns="http://www.w3.org/2000/svg" fill="none" viewBox="0 0 24 24" focusable="false"><path fill="#74767B" fill-rule="evenodd" d="M11 4.36c0-.74.6-1.35 1.35-1.35h5.29c.75 0 1.35.61 1.35 1.35v1.28c0 .75-.6 1.35-1.35 1.35h-1.99v1.72h.53c.96 0 1.77.7 1.92 1.65l.65 4.14c.74.28 1.26.99 1.26 1.83v1.7c0 1.07-.87 1.95-1.95 1.95H5.93c-1.08 0-1.95-.88-1.95-1.95v-1.7c0-.84.52-1.55 1.26-1.83l.65-4.14c.15-.95.96-1.65 1.92-1.65h6.54V6.99h-2c-.75 0-1.35-.6-1.35-1.35zm1.35-.05c-.03 0-.05.02-.05.05v1.28c0 .03.02.05.05.05h5.29c.03 0 .05-.02.05-.05V4.36c0-.03-.02-.05-.05-.05zM5.93 15.68h12.13c.36 0 .65.29.65.65v1.7c0 .36-.29.65-.65.65H5.93c-.36 0-.65-.29-.65-.65v-1.7c0-.36.29-.65.65-.65m10.89-5.12.59 3.82H6.58l.59-3.82c.05-.32.32-.55.64-.55h8.37c.32 0 .59.23.64.55m-7.98.73c-.36 0-.65.29-.65.65s.29.65.65.65h3.12c.36 0 .65-.29.65-.65s-.29-.65-.65-.65z"/></svg>