<svg xmlns="http://www.w3.org/2000/svg" width="24" height="24" fill="none"><path fill="#717681" d="M3.028 7.588c-.053.383.285.702.672.702h16.665c.35 0 .655-.286.615-.635A3.001 3.001 0 0 0 18 5H6a3 3 0 0 0-2.972 2.588ZM14.3 14.425h.914a.865.865 0 1 0 0-1.73H14.3v1.73Z"/><path fill="#717681" fill-rule="evenodd" d="M3 16a3 3 0 0 0 3 3h12a3 3 0 0 0 3-3v-5.71a.7.7 0 0 0-.7-.7H3.7a.7.7 0 0 0-.7.7V16Zm10.19-4.415a.65.65 0 0 1 .46-.19h1.564a2.165 2.165 0 1 1 0 4.33H14.3v.785a.65.65 0 1 1-1.3 0v-4.465a.65.65 0 0 1 .19-.46Zm-4.317 3.348H8.43v1.583a.65.65 0 1 1-1.3 0V12.05a.65.65 0 0 1 1.3 0v1.583h.5a.653.653 0 0 1 .045-.06l1.625-1.94a.65.65 0 0 1 .997.835l-1.55 1.849 1.493 1.782a.65.65 0 1 1-.996.835l-1.625-1.94a.642.642 0 0 1-.046-.06Z" clip-rule="evenodd"/></svg>