<svg xmlns="http://www.w3.org/2000/svg" fill="none" viewBox="0 0 24 24" focusable="false"><path fill="#74767B" fill-rule="evenodd" d="M3.02 7.58c-.05.39.29.7.68.7h16.66c.35 0 .66-.28.62-.63a3.01 3.01 0 0 0-2.68-2.64C18.2 5 18.1 5 18 5H6a3 3 0 0 0-2.98 2.58M6 19c-1.66 0-3-1.35-3-3v-5.72c0-.38.31-.7.7-.7h16.59c.39 0 .71.32.71.7V16c0 1.65-1.35 3-3 3zm7.64-7.61c-.17 0-.33.07-.45.19-.13.12-.2.29-.2.46v4.47c0 .35.3.65.65.65.36 0 .65-.3.65-.65v-.79h.92a2.166 2.166 0 0 0 0-4.33zm-5.22 3.54h.45c.01.02.03.04.04.06l1.63 1.94c.23.27.64.31.91.08.28-.23.32-.64.09-.92l-1.5-1.78 1.55-1.85a.64.64 0 0 0-.08-.91.64.64 0 0 0-.91.08l-1.63 1.94c-.02.02-.03.04-.05.06h-.5v-1.58c0-.36-.29-.65-.65-.65-.35 0-.65.29-.65.65v4.46c0 .36.3.65.65.65.36 0 .65-.29.65-.65zm5.87-.51h.92c.48 0 .86-.39.86-.87a.86.86 0 0 0-.86-.86h-.92z"/></svg>