<svg xmlns="http://www.w3.org/2000/svg" fill="none" viewBox="0 0 24 24" focusable="false"><defs><clipPath id="Currency_Outline_svg__a"><path fill="#fff" fill-opacity="0" d="M0 0h24v24H0z"/></clipPath></defs><path fill="none" d="M0 0h24v24H0z"/><g clip-path="url(#Currency_Outline_svg__a)"><path fill="#74767B" fill-rule="evenodd" d="M20.54 3.45c.25.26.25.67 0 .92l-2.43 2.44a7.94 7.94 0 0 1 1.91 5.18c0 1.98-.72 3.79-1.91 5.19l2.43 2.44c.25.25.25.66 0 .92-.26.25-.67.25-.92 0l-2.43-2.44a8 8 0 0 1-5.17 1.89c-1.98 0-3.79-.71-5.19-1.9l-2.45 2.44a.64.64 0 0 1-.92 0 .646.646 0 0 1 0-.91l2.45-2.46a7.97 7.97 0 0 1-1.89-5.17c0-1.96.71-3.77 1.89-5.16L3.45 4.37a.66.66 0 0 1 0-.92c.26-.25.67-.25.92 0l2.46 2.46a7.97 7.97 0 0 1 5.19-1.92c1.97 0 3.77.72 5.17 1.9l2.43-2.44c.25-.25.67-.25.92 0M5.17 11.99c0-3.78 3.07-6.84 6.85-6.84s6.84 3.06 6.84 6.84-3.06 6.85-6.84 6.85-6.85-3.07-6.85-6.85"/></g></svg>