<svg xmlns="http://www.w3.org/2000/svg" fill="none" viewBox="0 0 24 24" focusable="false"><defs><clipPath id="CVV_Outline_svg__a"><path fill="#fff" fill-opacity="0" d="M0 0h24v24H0z"/></clipPath></defs><g clip-path="url(#CVV_Outline_svg__a)"><path fill="#717681" fill-rule="evenodd" d="M3 16c0 1.65 1.34 3 3 3h12c1.65 0 3-1.35 3-3V8c0-1.56-1.19-2.84-2.7-2.99C18.2 5 18.1 5 18 5H6C4.34 5 3 6.34 3 8zm15-9.7c.93 0 1.7.76 1.7 1.7v.28H4.49c-.07 0-.13.02-.19.03V8c0-.94.76-1.7 1.7-1.7zM4.3 9.55V16c0 .93.76 1.7 1.7 1.7h12c.93 0 1.7-.77 1.7-1.7V9.58H4.49c-.07 0-.13-.01-.19-.03m5.97 2.62c-.06-.4.24-.75.65-.75.31 0 .59.22.64.54l.33 1.94c.02.11.18.11.2 0l.34-1.94c.05-.32.32-.54.64-.54.4 0 .71.36.65.75l-.41 2.47c-.1.65-.66 1.13-1.32 1.13s-1.22-.48-1.33-1.13zm5.24-.75c-.4 0-.71.35-.65.75l.4 2.47c.1.65.66 1.13 1.32 1.13s1.22-.48 1.33-1.13l.4-2.47a.655.655 0 0 0-1.29-.21l-.34 1.94c-.02.11-.18.11-.19 0l-.34-1.94a.637.637 0 0 0-.64-.54M6.97 13.5c0-.68.42-.96.64-.96.11 0 .24.05.37.18.24.27.65.28.92.04.26-.24.28-.65.04-.92-.33-.36-.79-.6-1.33-.6-1.2 0-1.94 1.15-1.94 2.26 0 1.11.74 2.26 1.94 2.26.58 0 1.07-.29 1.41-.7.22-.27.18-.68-.1-.91a.64.64 0 0 0-.91.09c-.13.16-.28.22-.4.22-.22 0-.64-.28-.64-.96"/></g></svg>