<svg xmlns="http://www.w3.org/2000/svg" fill="none" viewBox="0 0 24 24" focusable="false"><defs><clipPath id="CVV_Solid_svg__a"><path fill="#fff" fill-opacity="0" d="M0 0h24v24H0z"/></clipPath></defs><g clip-path="url(#CVV_Solid_svg__a)"><path fill="#74767B" fill-rule="evenodd" d="M3.02 7.58c-.05.39.29.7.67.7h16.67c.35 0 .66-.28.62-.63a3.01 3.01 0 0 0-2.68-2.64C18.2 5 18.1 5 17.99 5h-12C4.48 5 3.22 6.12 3.02 7.58M3 10.27c0-.39.31-.7.7-.7h16.59c.39 0 .71.31.71.7V16c0 1.65-1.35 3-3 3H6c-1.66 0-3-1.35-3-3zm7.92 1.76c-.41 0-.71.36-.65.76l.39 2.46c.11.65.67 1.13 1.33 1.13s1.22-.47 1.32-1.12l.41-2.47c.06-.4-.25-.76-.65-.76-.32 0-.59.23-.64.54l-.34 1.95c-.02.11-.18.11-.2 0l-.33-1.95a.66.66 0 0 0-.64-.54m3.94.76c-.06-.4.25-.76.65-.76.32 0 .59.23.64.54l.34 1.95c.01.11.17.11.19 0l.34-1.95c.06-.31.33-.54.65-.54.4 0 .7.36.64.76l-.4 2.47a1.343 1.343 0 0 1-2.65-.01zm-7.25.36c-.22 0-.64.29-.64.97 0 .67.42.96.64.96.12 0 .27-.06.4-.22a.64.64 0 0 1 .91-.09c.28.22.32.63.1.91-.34.41-.83.7-1.41.7-1.2 0-1.94-1.16-1.94-2.26 0-1.11.74-2.27 1.94-2.27.54 0 1 .25 1.33.61.24.27.22.68-.04.92-.27.24-.68.22-.92-.04-.13-.14-.26-.19-.37-.19"/></g></svg>