<svg xmlns="http://www.w3.org/2000/svg" width="24" height="24" fill="none"><path fill="#717681" d="M3.028 7.588c-.053.383.285.702.672.702h16.665c.35 0 .655-.286.615-.635A3.001 3.001 0 0 0 18 5H6a3 3 0 0 0-2.972 2.588ZM14.453 14.776h1.24a.539.539 0 0 1 0 1.077h-1.24v-1.077ZM10.129 15.853V12.7H8.914v.56a5.65 5.65 0 0 1-.579 2.492l-.05.101h1.844Z"/><path fill="#717681" fill-rule="evenodd" d="M3 16a3 3 0 0 0 3 3h12a3 3 0 0 0 3-3v-5.71a.7.7 0 0 0-.7-.7H3.7a.7.7 0 0 0-.7.7V16Zm10.343.963a.65.65 0 0 0 .46.19h1.89a1.839 1.839 0 1 0 0-3.677h-1.24v-.784h1.834a.65.65 0 0 0 0-1.3h-2.484a.65.65 0 0 0-.65.65v4.461a.65.65 0 0 0 .19.46ZM8.263 11.4a.65.65 0 0 0-.65.65v1.21a4.35 4.35 0 0 1-.445 1.918l-.322.657a.751.751 0 0 0-.009.018h-.295a.65.65 0 0 0 0 1.3h5.278a.65.65 0 1 0 0-1.3h-.391V12.05a.65.65 0 0 0-.65-.65H8.264Z" clip-rule="evenodd"/></svg>