<svg xmlns="http://www.w3.org/2000/svg" fill="none" viewBox="0 0 24 24" focusable="false"><defs><clipPath id="Debit_Card_Outline_svg__a"><path fill="#fff" fill-opacity="0" d="M0 0h24v24H0z"/></clipPath></defs><g clip-path="url(#Debit_Card_Outline_svg__a)"><path fill="#717681" fill-rule="evenodd" d="M3 16c0 1.65 1.34 3 3 3h12c1.65 0 3-1.35 3-3V8c0-1.56-1.19-2.84-2.7-2.99C18.2 5 18.1 5 18 5H6C4.34 5 3 6.34 3 8zm15-9.7c.93 0 1.7.76 1.7 1.7v.28H4.49c-.07 0-.13.02-.19.03V8c0-.94.76-1.7 1.7-1.7zM4.3 9.55V16c0 .93.76 1.7 1.7 1.7h12c.93 0 1.7-.77 1.7-1.7V9.58H4.49c-.07 0-.13-.01-.19-.03m9.04 6.85c.12.12.29.19.46.19h1.89c1.01 0 1.84-.83 1.84-1.84 0-1.02-.83-1.84-1.84-1.84h-1.24v-.79h1.83c.36 0 .65-.29.65-.65 0-.36-.29-.65-.65-.65H13.8c-.36 0-.65.29-.65.65v4.47c0 .17.07.33.19.46m-5.08-5.57c-.36 0-.65.29-.65.65v1.21c0 .67-.15 1.32-.45 1.92l-.32.66s-.01.01-.01.02h-.29c-.36 0-.65.29-.65.65 0 .36.29.65.65.65h5.28c.35 0 .65-.29.65-.65 0-.36-.3-.65-.65-.65h-.4v-3.81c0-.36-.29-.65-.65-.65zm1.86 4.46v-3.16H8.91v.56c0 .87-.2 1.72-.58 2.49l-.05.11zm4.33-1.08h1.24c.3 0 .54.24.54.54 0 .3-.24.54-.54.54h-1.24z"/></g></svg>