<svg xmlns="http://www.w3.org/2000/svg" fill="none" viewBox="0 0 24 24" focusable="false"><defs><clipPath id="DigitalMoney_Outline_svg__a"><path fill="#fff" fill-opacity="0" d="M0 0h24v24H0z"/></clipPath></defs><g clip-path="url(#DigitalMoney_Outline_svg__a)"><path fill="#717681" fill-rule="evenodd" d="M12.65 3.64v2.68c.59.07 1.16.23 1.69.47V4.64c0-.36.29-.65.65-.65s.65.29.65.65V7.6c.27.22.52.47.74.74h2.98c.36 0 .65.29.65.65s-.29.65-.65.65H17.2c.24.53.4 1.1.47 1.71h2.7c.36 0 .65.29.65.65 0 .35-.29.65-.65.65h-2.7a5.8 5.8 0 0 1-.47 1.7h2.15c.36 0 .65.29.65.65 0 .35-.29.65-.65.65h-2.96c-.23.26-.48.51-.75.74v2.96c0 .36-.29.65-.65.65s-.65-.29-.65-.65V17.2c-.53.24-1.1.4-1.69.47v2.67c0 .36-.3.65-.65.65-.36 0-.65-.29-.65-.65v-2.67c-.6-.07-1.17-.23-1.7-.47v2.16c0 .36-.29.65-.65.65s-.65-.29-.65-.65v-2.97c-.27-.23-.52-.47-.75-.74H4.64c-.36 0-.65-.3-.65-.65 0-.36.29-.65.65-.65h2.15a5.8 5.8 0 0 1-.47-1.7H3.65c-.36 0-.65-.3-.65-.65 0-.36.29-.65.65-.65h2.67c.07-.61.23-1.18.47-1.71H4.65c-.36 0-.65-.29-.65-.65s.29-.65.65-.65h2.96c.22-.27.47-.51.73-.74V4.64c0-.36.3-.65.65-.65.36 0 .65.29.65.65v2.15c.53-.24 1.11-.4 1.71-.47V3.64c0-.36.29-.65.65-.65.35 0 .65.29.65.65M16.4 12c0 2.43-1.97 4.4-4.41 4.4a4.4 4.4 0 0 1-4.4-4.4c0-2.44 1.97-4.41 4.4-4.41 2.44 0 4.41 1.97 4.41 4.41m-3.54.53h-1.28v.61h1.25c.36 0 .65.29.65.65 0 .35-.29.65-.65.65h-1.25v.31c0 .36-.29.65-.65.65s-.65-.29-.65-.65v-.31h-.43c-.36 0-.65-.3-.65-.65 0-.36.29-.65.65-.65h.43v-.61h-.42c-.36 0-.65-.29-.65-.65s.29-.65.65-.65h.42V9.91c0-.52.42-.95.95-.95h1.63c.99 0 1.78.8 1.78 1.79 0 .98-.79 1.78-1.78 1.78m-1.28-1.3v-.97h1.28c.27 0 .48.22.48.49 0 .26-.21.48-.48.48z"/></g></svg>