<svg xmlns="http://www.w3.org/2000/svg" fill="none" viewBox="0 0 24 24" focusable="false"><defs><clipPath id="DigitalMoney_Solid_svg__a"><path fill="#fff" fill-opacity="0" d="M0 0h24v24H0z"/></clipPath></defs><g clip-path="url(#DigitalMoney_Solid_svg__a)"><path fill="#717681" fill-rule="evenodd" d="M12.65 3.64v2.68c.59.07 1.16.23 1.69.47V4.64c0-.36.29-.65.65-.65s.65.29.65.65V7.6c.27.22.52.47.74.74h2.98c.36 0 .65.29.65.65s-.29.65-.65.65H17.2c.24.53.4 1.1.47 1.71h2.7c.36 0 .65.29.65.65 0 .35-.29.65-.65.65h-2.7a5.8 5.8 0 0 1-.47 1.7h2.15c.36 0 .65.29.65.65 0 .35-.29.65-.65.65h-2.96c-.23.26-.48.51-.75.74v2.96c0 .36-.29.65-.65.65s-.65-.29-.65-.65V17.2c-.53.24-1.1.4-1.69.47v2.67c0 .36-.3.65-.65.65-.36 0-.65-.29-.65-.65v-2.67c-.6-.07-1.17-.23-1.7-.47v2.16c0 .36-.29.65-.65.65s-.65-.29-.65-.65v-2.97c-.27-.23-.52-.47-.75-.74H4.64c-.36 0-.65-.3-.65-.65 0-.36.29-.65.65-.65h2.15a5.8 5.8 0 0 1-.47-1.7H3.65c-.36 0-.65-.3-.65-.65 0-.36.29-.65.65-.65h2.67c.07-.61.23-1.18.47-1.71H4.65c-.36 0-.65-.29-.65-.65s.29-.65.65-.65h2.96c.22-.27.47-.51.73-.74V4.64c0-.36.3-.65.65-.65.36 0 .65.29.65.65v2.15c.53-.24 1.11-.4 1.71-.47V3.64c0-.36.29-.65.65-.65.35 0 .65.29.65.65m.42 8.86h-1.78v.7h1.75c.36 0 .65.29.65.65s-.29.65-.65.65h-1.75v.5c0 .35-.29.65-.65.65s-.65-.3-.65-.65v-.5h-.42c-.36 0-.65-.29-.65-.65s.29-.65.65-.65h.42v-.7h-.41c-.36 0-.65-.29-.65-.65s.29-.65.65-.65h.41V9.29c0-.52.43-.95.95-.95h2.13c1.15 0 2.08.94 2.08 2.08 0 1.15-.93 2.08-2.08 2.08m-1.78-1.3V9.64h1.78a.781.781 0 0 1 0 1.56z"/></g></svg>