<svg xmlns="http://www.w3.org/2000/svg" fill="none" viewBox="0 0 24 24" focusable="false"><path fill="#717681" fill-rule="evenodd" d="M11.584 12.536h1.28a1.786 1.786 0 0 0 0-3.57h-1.63a.95.95 0 0 0-.95.95v1.32h-.42a.65.65 0 1 0 0 1.3h.42v.604h-.433a.65.65 0 1 0 0 1.3h.433v.317a.65.65 0 1 0 1.3 0v-.317h1.252a.65.65 0 1 0 0-1.3h-1.252zm0-2.27v.97h1.28a.485.485 0 1 0 0-.97z" clip-rule="evenodd"/><path fill="#717681" fill-rule="evenodd" d="M12.65 6.327V3.641a.65.65 0 1 0-1.3 0v2.686a5.7 5.7 0 0 0-1.7.468v-2.15a.65.65 0 0 0-1.3 0V7.61a5.8 5.8 0 0 0-.736.734H4.652a.65.65 0 0 0 0 1.3h2.146a5.7 5.7 0 0 0-.471 1.706H3.653a.65.65 0 1 0 0 1.3h2.674c.068.6.229 1.171.468 1.7h-2.15a.65.65 0 0 0 0 1.3h2.964q.339.406.745.744v2.971a.65.65 0 0 0 1.3 0v-2.158a5.7 5.7 0 0 0 1.696.466v2.675a.65.65 0 1 0 1.3 0v-2.675a5.7 5.7 0 0 0 1.697-.467v2.146a.65.65 0 1 0 1.3 0v-2.959q.406-.337.743-.743h2.967a.65.65 0 1 0 0-1.3h-2.152c.239-.529.4-1.1.468-1.7h2.707a.65.65 0 1 0 0-1.3h-2.707a5.7 5.7 0 0 0-.471-1.706h2.165a.65.65 0 0 0 0-1.3h-2.982a5.7 5.7 0 0 0-.739-.737V4.645a.65.65 0 1 0-1.3 0v2.149a5.7 5.7 0 0 0-1.696-.467M12 16.41a4.41 4.41 0 1 0 0-8.818 4.41 4.41 0 0 0 0 8.818" clip-rule="evenodd"/></svg>