<svg xmlns="http://www.w3.org/2000/svg" fill="none" viewBox="0 0 24 24" focusable="false"><path fill="#717681" d="M7.717 11.487a4.702 4.702 0 0 0 0 1.026h-.728a.65.65 0 1 0 0 1.3h1.067a4.651 4.651 0 0 0 7.359 1.674.65.65 0 1 0-.86-.974 3.347 3.347 0 0 1-5.033-.7h3.175a.65.65 0 1 0 0-1.3H9.028a3.376 3.376 0 0 1 0-1.026h3.669a.65.65 0 1 0 0-1.3H9.521a3.347 3.347 0 0 1 5.034-.7.65.65 0 0 0 .86-.974 4.651 4.651 0 0 0-7.36 1.674H6.99a.65.65 0 1 0 0 1.3h.728"/><path fill="#717681" fill-rule="evenodd" d="M12 3a9 9 0 1 0 0 18 9 9 0 0 0 0-18m0 1.3a7.7 7.7 0 1 0 0 15.4 7.7 7.7 0 0 0 0-15.4" clip-rule="evenodd"/></svg>