<svg xmlns="http://www.w3.org/2000/svg" fill="none" viewBox="0 0 24 24" focusable="false"><path fill="#74767B" fill-rule="evenodd" d="M3 12c0-4.98 4.02-9 9-9 4.97 0 9 4.02 9 9a9 9 0 0 1-9 9c-4.98 0-9-4.03-9-9m1.3 0a7.7 7.7 0 1 1 15.4 0c0 4.25-3.45 7.7-7.7 7.7-4.26 0-7.7-3.45-7.7-7.7m3.38 0c0-.18.01-.35.03-.52h-.73c-.36 0-.65-.29-.65-.65s.29-.65.65-.65h1.07a4.65 4.65 0 0 1 4.28-2.84c1.18 0 2.26.44 3.08 1.17.27.24.29.65.06.92-.24.26-.65.29-.92.05-.59-.52-1.37-.83-2.22-.83-1.18 0-2.22.61-2.81 1.53h3.17c.36 0 .65.29.65.65s-.29.65-.65.65H9.02c-.02.17-.04.34-.04.52 0 .17.02.34.04.51h3.67c.36 0 .65.29.65.65s-.29.65-.65.65H9.52a3.343 3.343 0 0 0 5.03.7c.27-.24.68-.21.92.05.23.27.21.68-.06.92-.82.73-1.9 1.17-3.08 1.17-1.92 0-3.57-1.17-4.28-2.84H6.98c-.36 0-.65-.29-.65-.65s.29-.65.65-.65h.73q-.03-.255-.03-.51"/></svg>