<svg xmlns="http://www.w3.org/2000/svg" fill="none" viewBox="0 0 24 24" focusable="false"><path fill="#717681" fill-rule="evenodd" d="M12 3a9 9 0 1 0 0 18 9 9 0 0 0 0-18m-4.415 8.487a4.702 4.702 0 0 0 0 1.026h-.728a.65.65 0 1 0 0 1.3h1.067a4.651 4.651 0 0 0 7.36 1.674.65.65 0 1 0-.86-.974 3.347 3.347 0 0 1-5.033-.7h3.175a.65.65 0 1 0 0-1.3h-3.67a3.375 3.375 0 0 1 0-1.026h3.67a.65.65 0 1 0 0-1.3H9.39a3.347 3.347 0 0 1 5.033-.7.65.65 0 1 0 .86-.974 4.651 4.651 0 0 0-7.36 1.674H6.858a.65.65 0 1 0 0 1.3h.728" clip-rule="evenodd"/></svg>