<svg xmlns="http://www.w3.org/2000/svg" fill="none" viewBox="0 0 24 24" focusable="false"><path fill="#717681" fill-rule="evenodd" d="M12 3c-4.98 0-9 4.02-9 9 0 4.97 4.02 9 9 9a9 9 0 0 0 9-9c0-4.98-4.03-9-9-9m-4.42 8.48a4.4 4.4 0 0 0 0 1.03h-.73c-.36 0-.65.29-.65.65s.29.65.65.65h1.07a4.65 4.65 0 0 0 4.28 2.84c1.18 0 2.26-.44 3.08-1.17a.66.66 0 0 0 .06-.92.66.66 0 0 0-.92-.05c-.59.52-1.37.84-2.22.84-1.18 0-2.22-.62-2.82-1.54h3.18c.36 0 .65-.29.65-.65s-.29-.65-.65-.65H8.89c-.02-.17-.04-.34-.04-.51 0-.18.02-.35.04-.52h3.67c.36 0 .65-.29.65-.65s-.29-.65-.65-.65H9.38c.6-.92 1.64-1.53 2.82-1.53.85 0 1.63.31 2.22.83.27.24.68.21.92-.05a.66.66 0 0 0-.06-.92c-.82-.73-1.9-1.17-3.08-1.17-1.92 0-3.57 1.17-4.28 2.84H6.85c-.36 0-.65.29-.65.65s.29.65.65.65z"/></svg>