<svg xmlns="http://www.w3.org/2000/svg" fill="none" viewBox="0 0 24 24" focusable="false"><defs><clipPath id="Finance_Outline_svg__a"><path fill="#fff" fill-opacity="0" d="M0 0h24v24H0z"/></clipPath></defs><g clip-path="url(#Finance_Outline_svg__a)"><path fill="#717681" fill-rule="evenodd" d="M3 5.55v9.13c.06 1.25 2.24 2.29 4.73 2.54.37.04.68-.26.68-.63 0-.34-.27-.63-.62-.66-.98-.1-2.01-.31-2.58-.58-.39-.19-.64-.38-.78-.53-.07-.08-.11-.13-.12-.17-.01-.01-.01-.02-.01-.03v-1.37c.87.49 2.1.84 3.42.98.37.03.68-.26.68-.63 0-.35-.27-.64-.62-.67-1-.1-2.04-.32-2.61-.59-.75-.36-.85-.65-.87-.7v-1.36c.88.51 2.13.88 3.48 1.01.4.04.71-.16.96-.48.17-.22.06-.76-.23-.77l-.4-.03c-1.15-.09-2.3-.36-2.94-.67-.75-.36-.85-.65-.87-.7V7.35c1.01.57 2.51.94 4.2.94 1.68 0 3.19-.37 4.2-.94v.57c0 .36.3.64.65.64.35-.01.65-.29.65-.64V5.55l-.03-.14c-.22-1.25-2.24-2.25-4.81-2.4C8.94 3 8.72 3 8.5 3 5.55 3 3.14 4.13 3 5.55m6.08-1.24c1.08.06 2.01.3 2.68.61.39.18.64.37.79.53.07.07.11.13.13.17.01.01.01.01.01.02-.01.05-.13.34-.87.7-.78.38-1.96.64-3.32.64-1.37 0-2.55-.26-3.33-.64-.69-.33-.84-.61-.87-.69.01-.01.01-.02.02-.03.02-.04.05-.1.13-.17.14-.16.4-.35.79-.53.79-.37 1.93-.62 3.26-.63.19.01.39.01.58.02m.86 11.11v2.89c.08 1.47 2.51 2.66 5.5 2.66s5.43-1.19 5.5-2.66v-5.8c.01-.07.01-.13.01-.19 0-1.46-2.46-2.65-5.5-2.65-2.93 0-5.33 1.11-5.49 2.5-.01.04-.01.07-.02.11v3.14m2.25-3.81c-.67.32-.87.61-.93.73.03.08.19.35.86.68.79.38 1.96.64 3.33.64s2.54-.26 3.33-.64c.62-.3.8-.56.85-.66-.04-.1-.23-.41-.94-.75-.78-.37-1.93-.63-3.25-.63s-2.47.26-3.25.63m3.26 3.35c-1.69 0-3.2-.36-4.21-.94v1.31c.02.05.14.34.87.7.79.37 1.96.64 3.33.64s2.54-.27 3.33-.64c.74-.36.85-.66.87-.7v-1.3c-1.01.57-2.51.93-4.19.93m-4.21 2.08c1.01.57 2.52.93 4.2.93 1.69 0 3.19-.36 4.2-.94v1.22c-.01.06-.13.39-.92.77-.78.38-1.94.65-3.28.65s-2.49-.27-3.27-.65c-.79-.38-.91-.71-.93-.77z"/></g></svg>