<svg xmlns="http://www.w3.org/2000/svg" fill="none" viewBox="0 0 24 24" focusable="false"><path fill="#74767B" fill-rule="evenodd" d="M12 3c-4.98 0-9 4.02-9 9 0 4.97 4.02 9 9 9a9 9 0 0 0 9-9c0-4.98-4.03-9-9-9m0 1.29A7.7 7.7 0 0 0 4.3 12c0 4.25 3.44 7.7 7.7 7.7 4.25 0 7.7-3.45 7.7-7.7 0-4.26-3.45-7.71-7.7-7.71m2.34 3.34c-.5-.48-1.28-.69-2-.64-.73.05-1.53.37-2.02 1.12-.45.68-.54 1.37-.53 2.06.01.29.03.6.05.91l.01.13c0 .1.01.2.01.3H8.75c-.36 0-.65.29-.65.65s.29.65.65.65h1.12c-.07.63-.27 1.16-.52 1.57-.32.53-.67.79-.85.85-.3.1-.48.4-.43.72.05.31.32.54.64.54h5.71c.36 0 .65-.29.65-.65s-.29-.65-.65-.65h-4.04c.03-.05.06-.09.09-.14.36-.6.63-1.36.7-2.24h1.6c.36 0 .65-.29.65-.65s-.29-.65-.65-.65h-1.6l-.03-.39-.01-.13c-.02-.31-.04-.58-.04-.83 0-.56.07-.96.32-1.34.21-.32.58-.5 1.02-.53.46-.03.84.11 1.01.28.26.25.67.24.92-.02s.24-.67-.02-.92"/></svg>