<svg xmlns="http://www.w3.org/2000/svg" fill="none" viewBox="0 0 24 24" focusable="false"><defs><clipPath id="Get_Cash_Outline_svg__a"><path fill="#fff" fill-opacity="0" d="M0 0h24v24H0z"/></clipPath></defs><g clip-path="url(#Get_Cash_Outline_svg__a)"><path fill="#717681" fill-rule="evenodd" d="M21 7c0-1.66-1.35-3-3-3H6C4.34 4 3 5.34 3 7v10c0 1.65 1.34 3 3 3h12c1.65 0 3-1.35 3-3v-2.04c.57-.14 1-.65 1-1.26v-3.4c0-.62-.43-1.13-1-1.27zM4.3 7c0-.94.76-1.71 1.7-1.71h5.4v4.07L9.92 7.81A.66.66 0 0 0 9 7.77c-.14.13-.21.3-.21.48 0 .16.05.31.17.44l2.57 2.71c.28.31.76.31 1.04 0l2.47-2.71c.24-.27.22-.68-.04-.92a.65.65 0 0 0-.92.04L12.7 9.36V5.29H18c.93 0 1.7.77 1.7 1.71v2H19c-1.66 0-3 1.34-3 3 0 1.65 1.34 3 3 3h.7v2c0 .93-.77 1.7-1.7 1.7H6c-.94 0-1.7-.77-1.7-1.7zm16.4 6.7H19c-.94 0-1.71-.77-1.71-1.7 0-.94.77-1.7 1.71-1.7h1.7z"/></g></svg>