<svg xmlns="http://www.w3.org/2000/svg" fill="none" viewBox="0 0 24 24" focusable="false"><path fill="#74767B" fill-rule="evenodd" d="M9 8a.63.63 0 0 0-.21.48c0 .15.05.31.17.44l2.57 2.71c.28.31.76.31 1.04 0l2.47-2.71c.24-.28.22-.69-.04-.92-.27-.24-.68-.24-.92.04L12.7 9.59V4.7c0-.39.31-.7.7-.7H18c1.65 0 3 1.34 3 3v1.29c0 .39-.32.71-.71.71H19c-1.66 0-3 1.34-3 3 0 1.65 1.34 3 3 3h1.29c.39 0 .71.31.71.7V17c0 1.65-1.35 3-3 3H6c-1.66 0-3-1.35-3-3V7c0-1.66 1.34-3 3-3h4.7c.39 0 .7.31.7.7v4.89L9.92 8.04A.66.66 0 0 0 9 8m8.32 3.98c0-.94.76-1.71 1.71-1.71h2.27c.38 0 .7.31.7.7V13c0 .39-.32.7-.7.7h-2.27c-.95 0-1.71-.77-1.71-1.72"/></svg>