<svg xmlns="http://www.w3.org/2000/svg" fill="none" viewBox="0 0 24 24" focusable="false"><defs><clipPath id="Gold_Outline_svg__a"><path fill="#fff" fill-opacity="0" d="M0 0h24v24H0z"/></clipPath></defs><g clip-path="url(#Gold_Outline_svg__a)"><path fill="#717681" fill-rule="evenodd" d="M5 6.4h14c.93 0 1.7.76 1.7 1.7v7.79c0 .94-.77 1.7-1.7 1.7H5c-.94 0-1.7-.76-1.7-1.7V8.1c0-.94.76-1.7 1.7-1.7M2 8.1c0-1.66 1.34-3 3-3h14c1.65 0 3 1.34 3 3v7.79c0 1.66-1.35 3-3 3H5c-1.66 0-3-1.34-3-3zm7.09.28a.65.65 0 0 0-.6-.39c-.26 0-.49.15-.6.39l-2.84 6.71c-.14.34.02.72.35.86s.71-.02.85-.35l.68-1.6h3.14l.68 1.6c.14.33.52.49.85.35s.49-.53.34-.86zm.42 4.32-1.02-2.4-1.01 2.4zM14 9.99c.36 0 .65.29.65.65v2.54a1.52 1.52 0 1 0 3.04 0v-2.54c0-.36.29-.65.65-.65s.65.29.65.65v2.54c0 1.56-1.27 2.82-2.82 2.82-1.56 0-2.82-1.26-2.82-2.82v-2.54c0-.36.29-.65.65-.65"/></g></svg>