<svg xmlns="http://www.w3.org/2000/svg" fill="none" viewBox="0 0 24 24" focusable="false"><defs><clipPath id="Gold_Solid_svg__a"><path fill="#fff" fill-opacity="0" d="M0 0h24v24H0z"/></clipPath></defs><g clip-path="url(#Gold_Solid_svg__a)"><path fill="#74767B" fill-rule="evenodd" d="M2 8c0-1.66 1.34-3 3-3h13.99c1.66 0 3 1.34 3 3l.01 7.99c0 1.66-1.35 3-3 3H5c-1.66 0-3-1.34-3-3zm6.49-.02c.26 0 .49.16.6.4l2.85 6.71c.14.33-.01.71-.35.85a.646.646 0 0 1-.85-.34l-.68-1.6H6.92l-.67 1.6c-.14.33-.53.48-.86.34a.643.643 0 0 1-.34-.85l2.84-6.71c.1-.24.34-.4.6-.4m6.15 2.66c0-.36-.29-.65-.65-.65-.35 0-.65.29-.65.65v2.53c0 1.57 1.27 2.83 2.83 2.83S19 14.74 19 13.17v-2.53c0-.36-.29-.65-.65-.65s-.65.29-.65.65v2.53c0 .85-.68 1.53-1.53 1.53-.84 0-1.53-.68-1.53-1.53zm-6.15-.34 1.02 2.4H7.47z"/></g></svg>