<svg xmlns="http://www.w3.org/2000/svg" fill="none" viewBox="0 0 24 24" focusable="false"><defs><clipPath id="IIS_Outline_svg__a"><path fill="#fff" fill-opacity="0" d="M0 0h24v24H0z"/></clipPath></defs><g clip-path="url(#IIS_Outline_svg__a)"><path fill="#717681" fill-rule="evenodd" d="M13.95 19.99c-.36 0-.65-.29-.65-.65V4.64c0-.35.29-.65.65-.65.35 0 .65.3.65.65v14.7c0 .36-.3.65-.65.65m3.9-2.97c-.36 0-.65-.29-.65-.65V7.62c0-.36.29-.65.65-.65.35 0 .65.29.65.65v8.75c0 .36-.3.65-.65.65m-7.8 0c-.36 0-.65-.29-.65-.65V7.62c0-.36.29-.65.65-.65.35 0 .65.29.65.65v8.75c0 .36-.3.65-.65.65m-3.9 2.97c-.36 0-.65-.29-.65-.65v-6.85c0-.35.29-.65.65-.65.35 0 .65.3.65.65v6.85c0 .36-.3.65-.65.65"/></g></svg>