<svg xmlns="http://www.w3.org/2000/svg" width="24" height="24" fill="none"><path fill="#717681" fill-rule="evenodd" d="M4 7a3 3 0 0 1 3-3h10a3 3 0 0 1 3 3v10a3 3 0 0 1-3 3H7a3 3 0 0 1-3-3V7Zm2.655 4.35a.65.65 0 0 1 .65.65v5.304a.65.65 0 1 1-1.3 0V12a.65.65 0 0 1 .65-.65Zm4.186-2.735a.65.65 0 1 0-1.3 0v6.663a.65.65 0 1 0 1.3 0V8.615Zm2.887-2.783a.65.65 0 0 1 .65.65v10.849a.65.65 0 1 1-1.3 0V6.482a.65.65 0 0 1 .65-.65Zm4.186 2.731a.65.65 0 0 0-1.3 0v6.718a.65.65 0 1 0 1.3 0V8.563Z" clip-rule="evenodd"/></svg>