<svg xmlns="http://www.w3.org/2000/svg" fill="none" viewBox="0 0 24 24" focusable="false"><defs><clipPath id="IIS_Solid_svg__a"><path fill="#fff" fill-opacity="0" d="M0 24h24V0H0z"/></clipPath></defs><g clip-path="url(#IIS_Solid_svg__a)"><path fill="#74767B" fill-rule="evenodd" d="M4 7c0-1.66 1.34-3 3-3h10c1.65 0 3 1.34 3 3v10c0 1.65-1.35 3-3 3H7c-1.66 0-3-1.35-3-3zm2.65 4.35c.36 0 .65.29.65.65v5.3c0 .36-.29.65-.65.65S6 17.66 6 17.3V12c0-.36.29-.65.65-.65m4.19-2.74c0-.36-.29-.65-.65-.65s-.65.29-.65.65v6.66c0 .36.29.65.65.65s.65-.29.65-.65zm2.88-2.78c.36 0 .65.29.65.65v10.85c0 .35-.29.65-.65.65s-.65-.3-.65-.65V6.48c0-.36.29-.65.65-.65m4.19 2.73c0-.36-.29-.65-.65-.65s-.65.29-.65.65v6.72c0 .36.29.65.65.65s.65-.29.65-.65z"/></g></svg>