<svg xmlns="http://www.w3.org/2000/svg" fill="none" viewBox="0 0 24 24" focusable="false"><path fill="#717681" d="M8.087 7.6a.65.65 0 0 1 .915.088L12 11.327l2.998-3.639a.65.65 0 1 1 1.004.827l-3.16 3.835h1.507a.65.65 0 1 1 0 1.3H12.65v1.027h1.699a.65.65 0 0 1 0 1.3H12.65v.904a.65.65 0 1 1-1.3 0v-.904H9.651a.65.65 0 1 1 0-1.3h1.699V13.65H9.651a.65.65 0 1 1 0-1.3h1.508l-3.16-3.835a.65.65 0 0 1 .088-.915"/><path fill="#717681" fill-rule="evenodd" d="M3 12a9 9 0 1 1 18 0 9 9 0 0 1-18 0m1.3 0a7.7 7.7 0 1 1 15.4 0 7.7 7.7 0 0 1-15.4 0" clip-rule="evenodd"/></svg>