<svg xmlns="http://www.w3.org/2000/svg" fill="none" viewBox="0 0 24 24" focusable="false"><defs><clipPath id="JPY_Solid_svg__a"><path fill="#fff" fill-opacity="0" d="M0 0h24v24H0z"/></clipPath></defs><g clip-path="url(#JPY_Solid_svg__a)"><path fill="#717681" fill-rule="evenodd" d="M3 12c0-4.98 4.02-9 9-9 4.97 0 9 4.02 9 9a9 9 0 0 1-9 9c-4.98 0-9-4.03-9-9m5.08-4.41a.67.67 0 0 1 .92.09l3 3.64 2.99-3.64a.67.67 0 0 1 .92-.09c.28.23.31.64.09.92l-3.16 3.84h1.5c.36 0 .65.29.65.65 0 .35-.29.65-.65.65h-1.69v1.02h1.69c.36 0 .65.29.65.65 0 .36-.29.65-.65.65h-1.69v.91c0 .36-.3.65-.65.65-.36 0-.65-.29-.65-.65v-.91h-1.7c-.36 0-.65-.29-.65-.65 0-.36.29-.65.65-.65h1.7v-1.02h-1.7c-.36 0-.65-.3-.65-.65 0-.36.29-.65.65-.65h1.5L7.99 8.51a.661.661 0 0 1 .09-.92"/></g></svg>