<svg xmlns="http://www.w3.org/2000/svg" fill="none" viewBox="0 0 24 24" focusable="false"><defs><clipPath id="Money_Outline_svg__a"><path fill="#fff" fill-opacity="0" d="M0 0h24v24H0z"/></clipPath></defs><g clip-path="url(#Money_Outline_svg__a)"><path fill="#717681" fill-rule="evenodd" d="M4.49 6.43C3.7 6.38 3 6.98 3 7.77v9.15c0 .63.44 1.17 1.06 1.25 3.55.49 5.61-.31 7.71-1.13 2.04-.8 4.13-1.62 7.69-1.26.8.08 1.54-.52 1.54-1.33V5.1c0-.64-.47-1.19-1.1-1.26-3.91-.46-6.09.4-8.26 1.26-1.97.77-3.93 1.54-7.15 1.33m7.61-.12c-1.99.79-4.18 1.65-7.7 1.42-.04-.01-.07.01-.09.03-.01 0-.01 0-.01.01v9.12c3.14.43 4.92-.25 6.92-1.03l.08-.03c2.1-.82 4.42-1.73 8.29-1.34.04 0 .07-.01.09-.03.01 0 .01-.01.01-.01h.01V5.12c-3.39-.38-5.31.29-7.28 1.07-.11.04-.21.08-.32.12m5.24.03c.36 0 .65.29.65.65v5.38c0 .36-.29.65-.65.65-.36 0-.65-.29-.65-.65V6.99c0-.36.29-.65.65-.65m-2.21 4.68a3.105 3.105 0 1 1-6.21-.01 3.105 3.105 0 0 1 6.21.01M6.64 9.19c.36 0 .65.29.65.65v5.38c0 .36-.29.65-.65.65-.36 0-.65-.29-.65-.65V9.84c0-.36.29-.65.65-.65m7.19 1.83a1.805 1.805 0 0 1-3.61 0c0-1 .81-1.81 1.81-1.81.99 0 1.8.81 1.8 1.81m6.63 6.21c-4.25-.63-6.63.28-8.86 1.15l-.07.03c-2.14.84-4.13 1.61-7.74 1.04a.653.653 0 0 0-.2 1.29c3.95.62 6.21-.26 8.41-1.12l.07-.03c2.15-.84 4.28-1.65 8.2-1.08.35.05.68-.19.73-.55a.636.636 0 0 0-.54-.73"/></g></svg>