<svg xmlns="http://www.w3.org/2000/svg" fill="none" viewBox="0 0 24 24" focusable="false"><path fill="#717681" fill-rule="evenodd" d="M15.133 11.022a3.103 3.103 0 1 1-6.206 0 3.103 3.103 0 0 1 6.206 0m-1.3 0a1.803 1.803 0 1 1-3.606 0 1.803 1.803 0 0 1 3.606 0" clip-rule="evenodd"/><path fill="#717681" d="M17.347 6.342a.65.65 0 0 1 .65.65v5.382a.65.65 0 1 1-1.3 0V6.992a.65.65 0 0 1 .65-.65M7.299 9.845a.65.65 0 1 0-1.3 0v5.382a.65.65 0 1 0 1.3 0z"/><path fill="#717681" fill-rule="evenodd" d="M4.493 6.433C3.703 6.381 3 6.983 3 7.774v9.155c0 .622.446 1.163 1.062 1.249 3.556.49 5.612-.313 7.71-1.133 2.047-.8 4.134-1.617 7.694-1.259.803.081 1.534-.526 1.534-1.334v-9.35c0-.635-.465-1.184-1.096-1.258-3.906-.458-6.09.402-8.261 1.257-1.968.775-3.927 1.547-7.15 1.332m7.612-.117c-1.992.786-4.18 1.648-7.699 1.415a.132.132 0 0 0-.095.03.072.072 0 0 0-.01.01l-.001.002v9.125c3.143.422 4.93-.256 6.923-1.035l.082-.032c2.095-.819 4.42-1.728 8.29-1.338a.124.124 0 0 0 .093-.028.07.07 0 0 0 .01-.01l.002-.002V5.129c-3.388-.388-5.305.29-7.276 1.062z" clip-rule="evenodd"/><path fill="#717681" d="M11.603 18.389c2.234-.874 4.616-1.78 8.858-1.158a.65.65 0 0 1-.188 1.286c-3.914-.573-6.045.241-8.197 1.082l-.067.027c-2.202.86-4.459 1.743-8.417 1.115a.65.65 0 0 1 .204-1.284c3.61.573 5.601-.206 7.738-1.041z"/></svg>