<svg xmlns="http://www.w3.org/2000/svg" fill="none" viewBox="0 0 24 24" focusable="false"><path fill="#717681" fill-rule="evenodd" d="M3 7.774c0-.792.702-1.393 1.493-1.34 3.223.213 5.182-.558 7.15-1.333 2.172-.855 4.355-1.715 8.261-1.257.631.074 1.096.623 1.096 1.258v9.35c0 .808-.73 1.415-1.534 1.334-3.56-.358-5.647.458-7.695 1.259-2.097.82-4.153 1.624-7.709 1.132C3.446 18.092 3 17.551 3 16.93zm12.133 3.248a3.103 3.103 0 1 1-6.206 0 3.103 3.103 0 0 1 6.206 0m3.831-4.03a.65.65 0 1 0-1.3 0v5.382a.65.65 0 0 0 1.3 0zM5.682 9.032a.65.65 0 0 1 .65.65v5.383a.65.65 0 1 1-1.3 0V9.683a.65.65 0 0 1 .65-.65" clip-rule="evenodd"/><path fill="#717681" d="M20.46 17.23c-4.24-.62-6.623.285-8.857 1.159l-.069.027c-2.137.835-4.129 1.614-7.738 1.04a.65.65 0 0 0-.204 1.285c3.958.628 6.215-.255 8.417-1.115l.067-.027c2.152-.84 4.283-1.655 8.197-1.082a.65.65 0 0 0 .188-1.286"/></svg>