<svg xmlns="http://www.w3.org/2000/svg" fill="none" viewBox="0 0 24 24" focusable="false"><path fill="#74767B" fill-rule="evenodd" d="M4.49 6.43C3.7 6.38 3 6.98 3 7.77v9.15c0 .63.44 1.17 1.06 1.25 3.55.49 5.61-.31 7.71-1.13 2.04-.8 4.13-1.62 7.69-1.26.8.08 1.54-.52 1.54-1.33V5.1c0-.64-.47-1.19-1.1-1.26-3.91-.46-6.09.4-8.26 1.26-1.97.77-3.93 1.54-7.15 1.33m13.82-.09c.36 0 .65.29.65.65v5.38c0 .36-.29.65-.65.65s-.65-.29-.65-.65V6.99c0-.36.29-.65.65-.65m-6.28 7.78a3.105 3.105 0 1 0-.01-6.21 3.105 3.105 0 0 0 .01 6.21m-5.7-4.44c0-.36-.29-.65-.65-.65s-.65.29-.65.65v5.38c0 .36.29.65.65.65s.65-.29.65-.65zm5.27 8.7c2.23-.87 4.61-1.78 8.86-1.15.35.05.6.38.54.73-.05.36-.38.6-.73.55-3.92-.57-6.05.24-8.2 1.08l-.07.03c-2.2.86-4.46 1.74-8.41 1.12a.653.653 0 0 1 .2-1.29c3.61.57 5.6-.2 7.74-1.04z"/></svg>