<svg xmlns="http://www.w3.org/2000/svg" fill="none" viewBox="0 0 24 24" focusable="false"><path fill="#74767B" fill-rule="evenodd" d="M3 10C3 6.13401 6.13401 3 10 3C11.7223 3 13.2994 3.62204 14.5188 4.65372C14.9667 5.03272 14.5868 5.7 14 5.7C9.41604 5.7 5.7 9.41604 5.7 14C5.7 14.5868 5.03272 14.9667 4.65372 14.5188C3.62204 13.2994 3 11.7223 3 10ZM14 7C10.134 7 7 10.134 7 14C7 17.866 10.134 21 14 21C17.866 21 21 17.866 21 14C21 10.134 17.866 7 14 7ZM12 13.353C11.641 13.353 11.35 13.644 11.35 14.003C11.35 14.362 11.641 14.653 12 14.653L16 14.653C16.359 14.653 16.65 14.362 16.65 14.003C16.65 13.644 16.359 13.353 16 13.353L12 13.353Z"/></svg>