<svg xmlns="http://www.w3.org/2000/svg" fill="none" viewBox="0 0 24 24" focusable="false"><path fill="#717681" d="M10 4.3a5.7 5.7 0 0 0-4.663 8.978c.205.292.242.715-.01.968-.292.295-.75.2-.994-.136a7 7 0 0 1 9.805-9.757c.299.22.356.626.097.89-.263.269-.699.27-1.008.058C12.31 4.67 11.198 4.3 10 4.3ZM11.35 14.003a.65.65 0 0 1 .65-.65h4a.65.65 0 1 1 0 1.3h-4a.65.65 0 0 1-.65-.65Z"/><path fill="#717681" fill-rule="evenodd" d="M14 7a7 7 0 1 0 0 14 7 7 0 0 0 0-14Zm0 1.3a5.7 5.7 0 1 0 0 11.4 5.7 5.7 0 0 0 0-11.4Z" clip-rule="evenodd"/></svg>