<svg xmlns="http://www.w3.org/2000/svg" fill="none" viewBox="0 0 24 24" focusable="false"><path fill="#717681" fill-rule="evenodd" d="M5 5C3.34 5 2 6.34 2 8v7.99c0 1.66 1.34 3 3 3h14c1.65 0 3-1.34 3-3L21.99 8c0-1.66-1.34-3-3-3zm.99 7.95v2.42c0 .36.3.65.65.65.36 0 .65-.29.65-.65v-1.78h1.92c1.55 0 2.81-1.26 2.81-2.81s-1.26-2.81-2.81-2.81H7.34c-.74 0-1.35.6-1.35 1.35v3.63m1.3-.66V9.32c0-.03.03-.05.05-.05h1.87c.83 0 1.51.68 1.51 1.51s-.68 1.51-1.51 1.51zM18 11.64V8.62c0-.36-.3-.65-.65-.65-.36 0-.65.29-.65.65V11h-1.21c-1.38 0-2.51 1.12-2.51 2.51s1.13 2.51 2.51 2.51h1.16c.74 0 1.35-.6 1.35-1.35v-3.03m-1.3.66v2.37c0 .03-.03.05-.05.05h-1.16c-.67 0-1.21-.54-1.21-1.21s.54-1.21 1.21-1.21z"/></svg>