<svg xmlns="http://www.w3.org/2000/svg" fill="none" viewBox="0 0 24 24" focusable="false"><defs><clipPath id="Pay_Cash_Outline_svg__a"><path fill="#fff" fill-opacity="0" d="M0 0h24v24H0z"/></clipPath></defs><g clip-path="url(#Pay_Cash_Outline_svg__a)"><path fill="#717681" fill-rule="evenodd" d="M18 4c1.65 0 3 1.34 3 3v2.03c.57.14 1 .65 1 1.27v3.4c0 .61-.43 1.12-1 1.26V17c0 1.65-1.35 3-3 3H6c-1.66 0-3-1.35-3-3V7c0-1.66 1.34-3 3-3zM6 5.29c-.94 0-1.7.77-1.7 1.71v10c0 .93.76 1.7 1.7 1.7h12c.93 0 1.7-.77 1.7-1.7v-2H19c-1.66 0-3-1.35-3-3 0-1.66 1.34-3 3-3h.7V7c0-.94-.77-1.71-1.7-1.71zm6.42 3.11a.658.658 0 0 0-.92.01l-2.18 2.22c-.25.26-.25.67.01.92.25.26.67.25.92 0l1.11-1.13v4.94c0 .36.29.65.65.65.35 0 .65-.29.65-.65v-4.91l1.07 1.06c.26.26.67.25.92 0 .26-.26.25-.67 0-.92zM19 13.7h1.7v-3.4H19c-.94 0-1.71.76-1.71 1.7 0 .93.77 1.7 1.71 1.7"/></g></svg>