<svg xmlns="http://www.w3.org/2000/svg" fill="none" viewBox="0 0 24 24" focusable="false"><path fill="#717681" fill-rule="evenodd" d="M3 7a3 3 0 0 1 3-3h12a3 3 0 0 1 3 3v1.3a.7.7 0 0 1-.7.7H19a3 3 0 1 0 0 6h1.3a.7.7 0 0 1 .7.7V17a3 3 0 0 1-3 3H6a3 3 0 0 1-3-3V7Zm8.517 1.416a.65.65 0 0 1 .919-.008l2.223 2.184a.65.65 0 1 1-.91.927l-1.08-1.06v4.905a.65.65 0 1 1-1.3 0V10.42l-1.109 1.13a.65.65 0 0 1-.927-.911l2.184-2.224Z" clip-rule="evenodd"/><path fill="#717681" d="M19.037 10.273a1.715 1.715 0 1 0 0 3.43H21.3a.7.7 0 0 0 .7-.7v-2.03a.7.7 0 0 0-.7-.7h-2.263Z"/></svg>