<svg xmlns="http://www.w3.org/2000/svg" fill="none" viewBox="0 0 24 24" focusable="false"><path fill="#717681" d="M11.508 8.416a.65.65 0 0 1 .92-.008l2.223 2.184a.65.65 0 1 1-.911.928l-1.08-1.06v4.903a.65.65 0 1 1-1.3 0v-4.941l-1.108 1.129a.65.65 0 1 1-.928-.911l2.184-2.224Z"/><path fill="#717681" fill-rule="evenodd" d="M21 7a3 3 0 0 0-3-3H6a3 3 0 0 0-3 3v10a3 3 0 0 0 3 3h12a3 3 0 0 0 3-3v-2.035a1.3 1.3 0 0 0 1-1.265v-3.4a1.3 1.3 0 0 0-1-1.265V7ZM4.3 7A1.7 1.7 0 0 1 6 5.3h12A1.7 1.7 0 0 1 19.7 7v2H19a3 3 0 1 0 0 6h.7v2a1.7 1.7 0 0 1-1.7 1.7H6A1.7 1.7 0 0 1 4.3 17V7Zm16.4 6.7H19a1.7 1.7 0 1 1 0-3.4h1.7v3.4Z" clip-rule="evenodd"/></svg>