<svg xmlns="http://www.w3.org/2000/svg" fill="none" viewBox="0 0 24 24" focusable="false"><path fill="#717681" fill-rule="evenodd" d="M6 4C4.34 4 3 5.34 3 7v10c0 1.65 1.34 3 3 3h12c1.65 0 3-1.35 3-3v-1.3c0-.39-.32-.7-.71-.7H19c-1.66 0-3-1.35-3-3 0-1.66 1.34-3 3-3h1.29c.39 0 .71-.32.71-.71V7c0-1.66-1.35-3-3-3zm6.43 4.4a.66.66 0 0 0-.92.01l-2.18 2.22c-.25.26-.25.67.01.92.25.26.66.25.92 0l1.1-1.13v4.94c0 .36.3.65.65.65.36 0 .65-.29.65-.65v-4.91l1.08 1.06c.26.26.67.25.92 0 .25-.26.25-.67-.01-.92zm4.89 3.58c0-.94.76-1.71 1.71-1.71h2.27c.38 0 .7.31.7.7V13c0 .39-.32.7-.7.7h-2.27c-.95 0-1.71-.77-1.71-1.72"/></svg>