<svg xmlns="http://www.w3.org/2000/svg" fill="none" viewBox="0 0 24 24" focusable="false"><path fill="#717681" d="M12.325 11.397a.65.65 0 0 1 .65-.65h3.309a.65.65 0 0 1 .65.65v4.471a.65.65 0 1 1-1.3 0v-3.82h-2.01v3.82a.65.65 0 1 1-1.3 0zM8.712 12.061a.9.9 0 0 0-.568.202l-.017.014a.65.65 0 1 1-.821-1.008l.017-.013c.392-.32.883-.495 1.389-.495h.458a1.74 1.74 0 0 1 1.4 2.775 1.79 1.79 0 0 1-1.331 2.985h-.481c-.523 0-1.03-.18-1.434-.51l-.018-.014a.65.65 0 1 1 .82-1.008l.019.014a.97.97 0 0 0 .613.218h.481a.49.49 0 0 0 0-.979h-.155a.65.65 0 1 1 0-1.3h.086a.44.44 0 1 0 0-.88z"/><path fill="#717681" fill-rule="evenodd" d="M3 16a3 3 0 0 0 3 3h12a3 3 0 0 0 3-3V8a3 3 0 0 0-3-3H6a3 3 0 0 0-3 3zm15-9.7A1.7 1.7 0 0 1 19.7 8v.29H4.495a.65.65 0 0 0-.195.03V8A1.7 1.7 0 0 1 6 6.3zM4.3 9.56V16A1.7 1.7 0 0 0 6 17.7h12a1.7 1.7 0 0 0 1.7-1.7V9.59H4.495a.65.65 0 0 1-.195-.03" clip-rule="evenodd"/></svg>