<svg xmlns="http://www.w3.org/2000/svg" fill="none" viewBox="0 0 24 24" focusable="false"><defs><clipPath id="Payroll_Card_Solid_svg__a"><path fill="#fff" fill-opacity="0" d="M0 0h24v24H0z"/></clipPath></defs><g clip-path="url(#Payroll_Card_Solid_svg__a)"><path fill="#717681" fill-rule="evenodd" d="M3.7 8.28c-.39 0-.73-.31-.68-.7A3 3 0 0 1 6 5h12c.1 0 .2 0 .3.01a3.01 3.01 0 0 1 2.68 2.64c.04.35-.27.63-.62.63zM6 19c-1.66 0-3-1.35-3-3v-5.72c0-.38.31-.7.7-.7h16.59c.39 0 .71.32.71.7V16c0 1.65-1.35 3-3 3zm6.97-7.61c-.36 0-.65.29-.65.65v4.47c0 .36.29.65.65.65.36 0 .65-.29.65-.65v-3.82h2.01v3.82c0 .36.29.65.65.65.36 0 .65-.29.65-.65v-4.47c0-.36-.29-.65-.65-.65zM8.71 12.7c-.21 0-.41.07-.57.21l-.02.01c-.28.23-.69.18-.91-.09a.652.652 0 0 1 .09-.92l.02-.01c.39-.32.88-.5 1.39-.5h.46c.96 0 1.74.78 1.74 1.74 0 .39-.13.75-.34 1.04.28.32.45.73.45 1.19 0 .99-.8 1.79-1.79 1.79h-.48c-.52 0-1.03-.18-1.43-.51l-.02-.01a.64.64 0 0 1-.09-.91.64.64 0 0 1 .91-.1l.02.02c.17.14.39.21.61.21h.48a.49.49 0 0 0 0-.98h-.15c-.36 0-.65-.29-.65-.65 0-.35.29-.65.65-.65h.09c.24 0 .44-.19.44-.44 0-.24-.2-.44-.44-.44z"/></g></svg>