<svg xmlns="http://www.w3.org/2000/svg" fill="none" viewBox="0 0 24 24" focusable="false"><path fill="#74767B" fill-rule="evenodd" d="M3 12c0-4.98 4.02-9 9-9 4.97 0 9 4.02 9 9a9 9 0 0 1-9 9c-4.98 0-9-4.03-9-9m1.3 0a7.7 7.7 0 1 1 15.4 0c0 4.25-3.45 7.7-7.7 7.7-4.26 0-7.7-3.45-7.7-7.7m3 4.69a.637.637 0 0 1-.01-.91l8.49-8.49c.25-.25.67-.25.92 0s.25.66 0 .92l-8.48 8.48a.64.64 0 0 1-.92 0m2.8-7.19c0 .82-.68 1.5-1.5 1.5-.83 0-1.5-.68-1.5-1.5 0-.83.67-1.5 1.5-1.5.82 0 1.5.67 1.5 1.5m5.29 6.5c.83 0 1.5-.68 1.5-1.5 0-.83-.67-1.5-1.5-1.5-.82 0-1.5.67-1.5 1.5 0 .82.68 1.5 1.5 1.5"/></svg>