<svg xmlns="http://www.w3.org/2000/svg" fill="none" viewBox="0 0 24 24" focusable="false"><path fill="#74767B" fill-rule="evenodd" d="M12 3c-4.98 0-9 4.02-9 9 0 4.97 4.02 9 9 9a9 9 0 0 0 9-9c0-4.98-4.03-9-9-9M7.3 16.69a.637.637 0 0 1-.01-.91l8.49-8.49c.25-.25.67-.25.92 0s.25.66 0 .92l-8.48 8.48a.64.64 0 0 1-.92 0M7.1 9.5c0-.83.67-1.5 1.5-1.5.82 0 1.5.67 1.5 1.5 0 .82-.68 1.5-1.5 1.5-.83 0-1.5-.68-1.5-1.5m8.29 3.5c-.82 0-1.5.67-1.5 1.5 0 .82.68 1.5 1.5 1.5.83 0 1.5-.68 1.5-1.5 0-.83-.67-1.5-1.5-1.5"/></svg>