<svg xmlns="http://www.w3.org/2000/svg" fill="none" viewBox="0 0 24 24" focusable="false"><defs><clipPath id="Platinum_Solid_svg__a"><path fill="#fff" fill-opacity="0" d="M0 0h24v24H0z"/></clipPath></defs><g clip-path="url(#Platinum_Solid_svg__a)"><path fill="#74767B" fill-rule="evenodd" d="M5 5C3.34 5 2 6.34 2 8v7.99c0 1.66 1.34 3 3 3h14c1.65 0 3-1.34 3-3L21.99 8c0-1.66-1.34-3-3-3zm1.05 10.37v-2.42l-.01-.01.01-.01V9.32c0-.75.6-1.35 1.35-1.35h1.86c1.55 0 2.81 1.26 2.81 2.81s-1.26 2.81-2.81 2.81H7.35v1.78c0 .36-.3.65-.65.65-.36 0-.65-.29-.65-.65m1.3-6.05v2.97h1.91c.83 0 1.51-.68 1.51-1.51s-.68-1.51-1.51-1.51H7.4c-.03 0-.05.02-.05.05m8.97-.57c0-.36-.3-.65-.65-.65-.36 0-.65.29-.65.65V10h-.99c-.36 0-.65.29-.65.65 0 .35.29.65.65.65h.99v2.78c0 1.08.87 1.95 1.95 1.95h1.02c.36 0 .65-.29.65-.65 0-.35-.29-.65-.65-.65h-1.02c-.36 0-.65-.29-.65-.65V11.3h1.06c.36 0 .65-.3.65-.65 0-.36-.29-.65-.65-.65h-1.06z"/></g></svg>