<svg xmlns="http://www.w3.org/2000/svg" fill="none" viewBox="0 0 24 24" focusable="false"><defs><clipPath id="Platinum_Outline_svg__a"><path fill="#fff" fill-opacity="0" d="M0 0h24v24H0z"/></clipPath></defs><g clip-path="url(#Platinum_Outline_svg__a)"><path fill="#717681" fill-rule="evenodd" d="M5 6.4h14c.93 0 1.7.76 1.7 1.7v7.79c0 .94-.77 1.7-1.7 1.7H5c-.94 0-1.7-.76-1.7-1.7V8.1c0-.94.76-1.7 1.7-1.7M2 8.1c0-1.66 1.34-3 3-3h14c1.65 0 3 1.34 3 3v7.79c0 1.66-1.35 3-3 3H5c-1.66 0-3-1.34-3-3zm4.04 7.27V9.32c0-.75.61-1.35 1.35-1.35h1.87c1.55 0 2.81 1.26 2.81 2.81s-1.26 2.81-2.81 2.81H7.34v1.78c0 .36-.29.65-.65.65-.35 0-.65-.29-.65-.65m1.3-6.05v2.97h1.92c.83 0 1.51-.68 1.51-1.51s-.68-1.51-1.51-1.51H7.39c-.02 0-.05.02-.05.05m8.98-.57c0-.36-.3-.65-.65-.65-.36 0-.65.29-.65.65V10h-.99c-.36 0-.65.29-.65.65 0 .35.29.65.65.65h.99v2.78c0 1.08.87 1.95 1.94 1.95h1.03c.36 0 .65-.29.65-.65 0-.35-.29-.65-.65-.65h-1.03c-.35 0-.64-.29-.64-.65V11.3h1.06c.36 0 .65-.3.65-.65 0-.36-.29-.65-.65-.65h-1.06z"/></g></svg>