<svg xmlns="http://www.w3.org/2000/svg" fill="none" viewBox="0 0 24 24" focusable="false"><path fill="#717681" fill-rule="evenodd" d="M5 5.005a3 3 0 0 0-3 3v7.99a3 3 0 0 0 3 3h14a3 3 0 0 0 3-3v-7.99a3 3 0 0 0-3-3zm1.05 10.37V9.325c0-.745.604-1.35 1.35-1.35h1.862a2.81 2.81 0 1 1 0 5.62H7.35v1.78a.65.65 0 1 1-1.3 0m1.3-6.05v2.97h1.912a1.51 1.51 0 1 0 0-3.02H7.4a.05.05 0 0 0-.05.05m8.97-.568a.65.65 0 1 0-1.3 0V10h-.985a.65.65 0 1 0 0 1.3h.985v2.788a1.95 1.95 0 0 0 1.95 1.95h1.023a.65.65 0 1 0 0-1.3H16.97a.65.65 0 0 1-.65-.65V11.3h1.063a.65.65 0 0 0 0-1.3H16.32z" clip-rule="evenodd"/></svg>