<svg xmlns="http://www.w3.org/2000/svg" fill="none" viewBox="0 0 24 24" focusable="false"><path fill="#717681" fill-rule="evenodd" d="M9.026 7.657a.65.65 0 0 1 .65-.65h3.328a3.322 3.322 0 0 1 0 6.644h-2.678v1.048h3.02a.65.65 0 0 1 0 1.3h-3.02v.848a.65.65 0 1 1-1.3 0V16h-.702a.65.65 0 1 1 0-1.3h.702v-1.048H8.33a.65.65 0 1 1 0-1.3h.696zm1.3 4.694h2.678a2.022 2.022 0 1 0 0-4.044h-2.678z" clip-rule="evenodd"/><path fill="#717681" fill-rule="evenodd" d="M21 12a9 9 0 1 1-18 0 9 9 0 0 1 18 0m-1.3 0a7.7 7.7 0 1 1-15.4 0 7.7 7.7 0 0 1 15.4 0" clip-rule="evenodd"/></svg>