<svg xmlns="http://www.w3.org/2000/svg" fill="none" viewBox="0 0 24 24" focusable="false"><defs><clipPath id="RUB_Solid_svg__a"><path fill="#fff" fill-opacity="0" d="M0 0h24v24H0z"/></clipPath></defs><g clip-path="url(#RUB_Solid_svg__a)"><path fill="#717681" fill-rule="evenodd" d="M21 12a9 9 0 0 1-9 9c-4.98 0-9-4.03-9-9 0-4.98 4.02-9 9-9 4.97 0 9 4.02 9 9M9.67 7c-.36 0-.65.29-.65.65v4.7h-.69c-.36 0-.65.29-.65.65 0 .36.29.65.65.65h.69v1.04h-.7c-.36 0-.65.3-.65.65 0 .36.29.65.65.65h.7v.85c0 .36.29.65.65.65.36 0 .65-.29.65-.65v-.85h3.02c.36 0 .65-.29.65-.65 0-.35-.29-.65-.65-.65h-3.02v-1.04H13A3.325 3.325 0 0 0 13 7zM13 12.35h-2.68V8.3H13c1.12 0 2.02.91 2.02 2.02 0 1.12-.9 2.03-2.02 2.03"/></g></svg>