<svg xmlns="http://www.w3.org/2000/svg" fill="none" viewBox="0 0 24 24" focusable="false"><defs><clipPath id="Silver_Outline_svg__a"><path fill="#fff" fill-opacity="0" d="M0 0h24v24H0z"/></clipPath></defs><g clip-path="url(#Silver_Outline_svg__a)"><path fill="#717681" fill-rule="evenodd" d="M5 6.4h14c.93 0 1.7.76 1.7 1.7v7.79c0 .94-.77 1.7-1.7 1.7H5c-.94 0-1.7-.76-1.7-1.7V8.1c0-.94.76-1.7 1.7-1.7M2 8.1c0-1.66 1.34-3 3-3h14c1.65 0 3 1.34 3 3v7.79c0 1.66-1.35 3-3 3H5c-1.66 0-3-1.34-3-3zm7.08.28a.641.641 0 0 0-1.19 0l-2.84 6.71c-.14.33.01.72.34.85.33.14.72-.01.86-.34l.67-1.6h3.14l.68 1.6c.14.33.52.48.85.34.34-.14.49-.52.35-.85zm.43 4.32-1.02-2.4-1.02 2.4zm6.19-2.53a.915.915 0 0 0-.05 1.83h.1c.48-.03.87-.43.87-.91 0-.51-.41-.92-.92-.92m.49 3.08c.99-.23 1.73-1.11 1.73-2.16 0-.33-.08-.64-.2-.92h.65c.36 0 .65-.29.65-.65 0-.36-.29-.65-.65-.65H15.67c-1.21.02-2.18 1-2.18 2.22 0 .46.14.89.38 1.25-.53.36-.89.97-.89 1.66 0 1.11.9 2.01 2.01 2.01h3.36c.36 0 .65-.3.65-.65 0-.36-.29-.65-.65-.65h-3.36a.704.704 0 1 1 0-1.41h.94c.1 0 .18-.02.26-.05"/></g></svg>