<svg xmlns="http://www.w3.org/2000/svg" fill="none" viewBox="0 0 24 24" focusable="false"><path fill="#717681" d="m9.513 12.703-1.02-2.399-1.014 2.399zM15.706 10.178a.915.915 0 0 0-.053 1.826h.107a.915.915 0 0 0-.054-1.826"/><path fill="#717681" fill-rule="evenodd" d="M5 5.005a3 3 0 0 0-3 3v7.99a3 3 0 0 0 3 3h14a3 3 0 0 0 3-3v-7.99a3 3 0 0 0-3-3zm4.09 3.38a.65.65 0 0 0-1.197.001l-2.84 6.712a.65.65 0 1 0 1.198.506l.678-1.601h3.137l.681 1.603a.65.65 0 1 0 1.197-.51zm7.108 4.866a2.215 2.215 0 0 0 1.524-3.078h.657a.65.65 0 0 0 0-1.3h-2.63a.657.657 0 0 0-.076.005 2.215 2.215 0 0 0-1.795 3.464 2.003 2.003 0 0 0 1.114 3.668h3.365a.65.65 0 0 0 0-1.3h-3.365a.703.703 0 0 1 0-1.406h.631a2.295 2.295 0 0 0 .166 0h.15a.648.648 0 0 0 .26-.053" clip-rule="evenodd"/></svg>