<svg xmlns="http://www.w3.org/2000/svg" fill="none" viewBox="0 0 24 24" focusable="false"><defs><clipPath id="Silver_Solid_svg__a"><path fill="#fff" fill-opacity="0" d="M0 0h24v24H0z"/></clipPath></defs><g clip-path="url(#Silver_Solid_svg__a)"><path fill="#717681" fill-rule="evenodd" d="M2 8c0-1.66 1.34-3 3-3h13.99c1.66 0 3 1.34 3 3l.01 7.99c0 1.66-1.35 3-3 3H5c-1.66 0-3-1.34-3-3zm6.49-.02c.26 0 .49.16.6.4l2.85 6.71c.14.33-.01.71-.35.85a.646.646 0 0 1-.85-.34l-.68-1.6H6.92l-.67 1.6c-.14.33-.53.48-.86.34a.643.643 0 0 1-.34-.85l2.84-6.71c.1-.24.34-.4.6-.4m9.43 3.11c0 1.05-.74 1.93-1.73 2.16-.08.03-.16.05-.26.05h-.94a.704.704 0 1 0 0 1.41h3.36c.36 0 .65.29.65.65 0 .35-.29.65-.65.65h-3.36c-1.11 0-2.01-.9-2.01-2.01 0-.69.36-1.3.89-1.66-.24-.36-.38-.79-.38-1.25 0-1.22.97-2.2 2.18-2.22h2.7c.36 0 .65.29.65.65s-.29.65-.65.65h-.65c.13.28.2.59.2.92m-2.22-.92a.915.915 0 0 0-.05 1.83h.1c.49-.03.87-.43.87-.91 0-.51-.41-.92-.92-.92M9.51 12.7l-1.02-2.4-1.02 2.4z"/></g></svg>