<svg xmlns="http://www.w3.org/2000/svg" fill="none" viewBox="0 0 24 24" focusable="false"><g fill="#74767B"><path d="M7.77 14.94 6.24 16.7a.63.63 0 0 1-.91.07.66.66 0 0 1-.07-.92l1.79-2.06c.05-.05.1-.1.15-.13.23-.22.6-.24.87-.06 1.12.74 2.46 1.17 3.89 1.17 1.5 0 2.89-.47 4.04-1.27.29-.2.69-.17.93.1.01.02.03.04.05.06l1.75 2.02c.23.28.2.69-.07.92-.27.24-.68.21-.91-.06l-1.46-1.68a8.4 8.4 0 0 1-3.65 1.18c0 .01.01.02.01.02v1.88c0 .36-.3.65-.65.65-.36 0-.65-.29-.65-.65v-1.9a8.25 8.25 0 0 1-3.58-1.1M5.41 18.65c0 .71-.58 1.3-1.3 1.3s-1.3-.59-1.3-1.3c0-.72.58-1.3 1.3-1.3s1.3.58 1.3 1.3M13.3 20.7c0 .71-.59 1.3-1.3 1.3-.72 0-1.3-.59-1.3-1.3 0-.72.58-1.3 1.3-1.3.71 0 1.3.58 1.3 1.3M19.88 19.95c.72 0 1.3-.59 1.3-1.3 0-.72-.58-1.3-1.3-1.3-.71 0-1.3.58-1.3 1.3 0 .71.59 1.3 1.3 1.3M11.29 6.91V5.35h1.78a.781.781 0 0 1 0 1.56z"/><path fill-rule="evenodd" d="M12 13.41a5.7 5.7 0 0 0 5.7-5.71C17.7 4.55 15.15 2 12 2a5.7 5.7 0 0 0-5.71 5.7c0 3.16 2.55 5.71 5.71 5.71m1.07-5.2h-1.78v.7h1.75c.36 0 .65.29.65.65s-.29.65-.65.65h-1.75v.49c0 .36-.29.65-.65.65s-.65-.29-.65-.65v-.49h-.42c-.36 0-.65-.29-.65-.65s.29-.65.65-.65h.42v-.7h-.41c-.36 0-.65-.29-.65-.65s.29-.65.65-.65h.41V5c0-.52.43-.95.95-.95h2.13c1.15 0 2.08.93 2.08 2.08s-.93 2.08-2.08 2.08"/></g></svg>