<svg xmlns="http://www.w3.org/2000/svg" fill="none" viewBox="0 0 24 24" focusable="false"><path fill="#717681" fill-rule="evenodd" d="M17.7 7.7a5.7 5.7 0 0 1-5.7 5.71c-3.16 0-5.71-2.55-5.71-5.71A5.7 5.7 0 0 1 12 2c3.15 0 5.7 2.55 5.7 5.7m-6.41.51h1.78c1.15 0 2.08-.93 2.08-2.08s-.93-2.08-2.08-2.08h-2.13c-.52 0-.95.43-.95.95v1.91h-.41c-.36 0-.65.29-.65.65s.29.65.65.65h.41v.7h-.42c-.36 0-.65.29-.65.65s.29.65.65.65h.42v.49c0 .36.29.65.65.65s.65-.29.65-.65v-.49h1.75c.36 0 .65-.29.65-.65s-.29-.65-.65-.65h-1.75zm0-1.3V5.35h1.78a.781.781 0 0 1 0 1.56zm-3.52 8.03L6.24 16.7a.63.63 0 0 1-.91.07.66.66 0 0 1-.07-.92l1.79-2.06c.05-.05.1-.1.15-.13.23-.22.6-.24.87-.06 1.12.74 2.46 1.17 3.89 1.17 1.5 0 2.89-.47 4.04-1.27.29-.2.69-.17.93.1.01.02.03.04.05.06l1.75 2.02c.23.28.2.69-.07.92-.27.24-.68.21-.91-.06l-1.46-1.68a8.4 8.4 0 0 1-3.65 1.18c0 .01.01.02.01.02v1.88c0 .36-.3.65-.65.65-.36 0-.65-.29-.65-.65v-1.9a8.25 8.25 0 0 1-3.58-1.1m-3.66 5.01c.72 0 1.3-.59 1.3-1.3 0-.72-.58-1.3-1.3-1.3s-1.3.58-1.3 1.3c0 .71.58 1.3 1.3 1.3m17.07-1.3c0 .71-.58 1.3-1.3 1.3-.71 0-1.3-.59-1.3-1.3 0-.72.59-1.3 1.3-1.3.72 0 1.3.58 1.3 1.3M13.3 20.7c0 .71-.59 1.3-1.3 1.3-.72 0-1.3-.59-1.3-1.3 0-.72.58-1.3 1.3-1.3.71 0 1.3.58 1.3 1.3"/></svg>