<svg xmlns="http://www.w3.org/2000/svg" fill="none" viewBox="0 0 24 24" focusable="false"><path fill="#717681" fill-rule="evenodd" d="M19.7 12a7.7 7.7 0 1 1-15.4 0 7.7 7.7 0 0 1 15.4 0m1.3 0a9 9 0 1 1-18 0 9 9 0 0 1 18 0m-9.547-3.975c.22-.11.463-.167.709-.167h.183a1.402 1.402 0 0 1 1.033 2.349H8.353a.65.65 0 1 0 0 1.3h3.314l-1.31.97H8.352a.65.65 0 1 0 0 1.3h.978a2.7 2.7 0 0 0 2.53 3.65h.184c.448 0 .89-.104 1.29-.304l1.352-.676a.65.65 0 1 0-.58-1.163l-1.353.676c-.22.11-.463.167-.71.167h-.183a1.402 1.402 0 0 1-1.033-2.35h5.026a.65.65 0 1 0 0-1.3H12.54l1.31-.97h2.004a.65.65 0 1 0 0-1.3h-.979a2.702 2.702 0 0 0-2.53-3.65h-.183c-.448 0-.89.105-1.29.305l-1.353.676a.65.65 0 0 0 .581 1.163z" clip-rule="evenodd"/></svg>