<svg xmlns="http://www.w3.org/2000/svg" fill="none" viewBox="0 0 24 24" focusable="false"><defs><clipPath id="UAH_Outline_svg__a"><path fill="#fff" fill-opacity="0" d="M0 0h24v24H0z"/></clipPath></defs><g clip-path="url(#UAH_Outline_svg__a)"><path fill="#74767B" fill-rule="evenodd" d="M19.7 12c0 4.25-3.45 7.7-7.7 7.7-4.26 0-7.7-3.45-7.7-7.7a7.7 7.7 0 1 1 15.4 0m1.3 0a9 9 0 0 1-9 9c-4.98 0-9-4.03-9-9 0-4.98 4.02-9 9-9 4.97 0 9 4.02 9 9m-9.55-3.98c.22-.11.46-.17.71-.17h.18c.77 0 1.4.63 1.4 1.4 0 .36-.13.7-.37.95H8.35c-.36 0-.65.29-.65.65s.29.65.65.65h3.31l-1.31.97h-2c-.36 0-.65.29-.65.65s.29.65.65.65h.98c-.12.3-.18.62-.18.95 0 1.49 1.21 2.7 2.71 2.7h.18c.45 0 .89-.1 1.29-.3l1.35-.68a.649.649 0 0 0-.58-1.16l-1.35.67c-.22.11-.46.17-.71.17h-.18c-.78 0-1.41-.63-1.41-1.4 0-.35.14-.69.37-.95h5.03c.36 0 .65-.29.65-.65s-.29-.65-.65-.65h-3.32l1.32-.97h2c.36 0 .65-.29.65-.65s-.29-.65-.65-.65h-.98a2.701 2.701 0 0 0-2.53-3.65h-.18c-.45 0-.89.11-1.29.31l-1.36.67c-.32.16-.45.55-.29.87.16.33.55.46.88.3z"/></g></svg>