<svg xmlns="http://www.w3.org/2000/svg" width="24" height="24" fill="none"><path fill="#717681" fill-rule="evenodd" d="M12 21a9 9 0 1 0 0-18 9 9 0 0 0 0 18Zm-.547-12.975c.22-.11.463-.167.709-.167h.183a1.402 1.402 0 0 1 1.034 2.349H8.353a.65.65 0 1 0 0 1.3h3.314l-1.31.97H8.353a.65.65 0 1 0 0 1.3h.978a2.7 2.7 0 0 0 2.53 3.65h.184c.448 0 .89-.104 1.29-.304l1.353-.676a.65.65 0 0 0-.582-1.163l-1.352.676c-.22.11-.463.167-.709.167h-.183a1.402 1.402 0 0 1-1.034-2.35h5.026a.65.65 0 1 0 0-1.3H12.54l1.31-.97h2.004a.65.65 0 1 0 0-1.3h-.978a2.701 2.701 0 0 0-2.53-3.65h-.184c-.448 0-.89.105-1.29.305l-1.353.676a.65.65 0 0 0 .582 1.163l1.352-.676Z" clip-rule="evenodd"/></svg>