<svg xmlns="http://www.w3.org/2000/svg" fill="none" viewBox="0 0 24 24" focusable="false"><path fill="#74767B" fill-rule="evenodd" d="M12 3c-4.98 0-9 4.02-9 9 0 4.97 4.02 9 9 9a9 9 0 0 0 9-9c0-4.98-4.03-9-9-9m0 1.29A7.7 7.7 0 0 0 4.3 12c0 4.25 3.44 7.7 7.7 7.7 4.25 0 7.7-3.45 7.7-7.7 0-4.26-3.45-7.71-7.7-7.71M9.31 9.74c.06-1.06.77-2.03 1.95-2.32v-.76c0-.36.29-.65.65-.65s.65.29.65.65v.73c.71.13 1.24.51 1.58.98.42.55.57 1.21.57 1.68 0 .36-.29.65-.65.65s-.65-.29-.65-.65c0-.23-.09-.61-.31-.91-.2-.27-.53-.5-1.11-.5-.9 0-1.35.58-1.38 1.17-.03.55.33 1.27 1.48 1.46.98.16 1.74.54 2.25 1.08s.73 1.21.67 1.87c-.11 1.18-1.07 2.15-2.45 2.36v.77c0 .36-.29.65-.65.65s-.65-.29-.65-.65v-.81c-.65-.15-1.15-.5-1.49-.91-.43-.52-.64-1.14-.64-1.58 0-.36.29-.65.65-.65.35 0 .65.29.65.65 0 .09.07.43.34.74.24.29.61.53 1.22.53 1.13 0 1.67-.67 1.72-1.22.03-.28-.06-.59-.32-.86-.26-.28-.74-.56-1.51-.69-1.74-.29-2.64-1.53-2.57-2.81"/></svg>