<svg xmlns="http://www.w3.org/2000/svg" fill="none" viewBox="0 0 24 24" focusable="false"><defs><clipPath id="USD_Solid_svg__a"><path fill="#fff" fill-opacity="0" d="M0 0h24v24H0z"/></clipPath></defs><g clip-path="url(#USD_Solid_svg__a)"><path fill="#717681" fill-rule="evenodd" d="M3 12c0-4.98 4.02-9 9-9 4.97 0 9 4.02 9 9a9 9 0 0 1-9 9c-4.98 0-9-4.03-9-9m9.56-4.61v-.73c0-.36-.29-.65-.65-.65-.36 0-.65.29-.65.65v.76a2.515 2.515 0 0 0-1.95 2.32c-.07 1.28.83 2.52 2.57 2.81.77.13 1.25.41 1.51.69.26.27.35.58.32.86-.05.55-.59 1.22-1.72 1.22-.61 0-.98-.24-1.22-.53-.27-.31-.34-.65-.34-.74 0-.36-.3-.65-.65-.65-.36 0-.65.29-.65.65 0 .44.21 1.06.64 1.58.34.41.84.76 1.49.91v.81c0 .36.29.65.65.65.36 0 .65-.29.65-.65v-.77c1.38-.21 2.34-1.18 2.45-2.36.06-.66-.16-1.33-.67-1.87s-1.27-.92-2.25-1.08c-1.15-.19-1.51-.91-1.48-1.46.03-.59.48-1.17 1.38-1.17.58 0 .91.23 1.11.5.22.3.31.68.31.91 0 .36.29.65.65.65.36 0 .65-.29.65-.65 0-.47-.15-1.13-.57-1.68-.34-.47-.87-.85-1.58-.98"/></g></svg>