<svg width="24.000000" height="24.000000" viewBox="0 0 24 24" fill="none" xmlns="http://www.w3.org/2000/svg" xmlns:xlink="http://www.w3.org/1999/xlink">
	<desc>
			Created with Pixso.
	</desc>
	<defs>
		<clipPath id="clip17_1059">
			<rect id="Outline / Headset Outline" width="24.000000" height="24.000000" fill="white" fill-opacity="0"/>
		</clipPath>
	</defs>
	<g>
		<path id="Shape" d="M7.65 9.65C7.65 7.24 9.59 5.29 12 5.29C14.4 5.29 16.35 7.24 16.35 9.65L16.35 14.15C16.35 15.66 15.28 16.92 13.86 17.22C13.57 16.48 12.85 15.95 12 15.95C10.89 15.95 10 16.84 10 17.95C10 19.05 10.89 19.95 12 19.95C12.89 19.95 13.65 19.35 13.91 18.54C15.78 18.24 17.27 16.77 17.58 14.9L18.29 14.9C19.37 14.9 20.25 14.02 20.25 12.95L20.25 11.05C20.25 9.97 19.37 9.1 18.29 9.1L17.62 9.1C17.34 6.23 14.93 4 12 4C9.06 4 6.65 6.23 6.37 9.09L5.69 9.09C4.62 9.09 3.75 9.97 3.75 11.05L3.75 12.95C3.75 14.02 4.62 14.9 5.69 14.9L6.97 14.9C6.98 14.9 6.99 14.9 7 14.9C7.35 14.9 7.65 14.6 7.65 14.25L7.65 9.65ZM17.65 10.4L17.65 13.6L18.29 13.6C18.65 13.6 18.95 13.3 18.95 12.95L18.95 11.05C18.95 10.69 18.65 10.4 18.29 10.4L17.65 10.4ZM5.69 10.4L6.34 10.4L6.34 13.6L5.69 13.6C5.34 13.6 5.05 13.3 5.05 12.95L5.05 11.05C5.05 10.69 5.34 10.4 5.69 10.4ZM12.7 17.95C12.7 18.33 12.38 18.65 12 18.65C11.61 18.65 11.29 18.33 11.29 17.95C11.29 17.56 11.61 17.25 12 17.25C12.38 17.25 12.7 17.56 12.7 17.95Z" fill="#717681" fill-opacity="1.000000" fill-rule="evenodd"/>
	</g>
</svg>
