<svg width="24.000000" height="24.000000" viewBox="0 0 24 24" fill="none" xmlns="http://www.w3.org/2000/svg" xmlns:xlink="http://www.w3.org/1999/xlink">
	<desc>
			Created with Pixso.
	</desc>
	<defs>
		<clipPath id="clip17_1062">
			<rect id="Solid / Headset Solid" width="24.000000" height="24.000000" fill="white" fill-opacity="0"/>
		</clipPath>
	</defs>
	<g clip-path="url(#clip17_1062)">
		<path id="Shape" d="M7.65 9.65C7.65 7.24 9.59 5.29 12 5.29C14.39 5.29 16.34 7.23 16.35 9.63L16.35 14.16C16.34 15.84 15.01 17.21 13.35 17.29C13.1 16.79 12.59 16.45 12 16.45C11.17 16.45 10.5 17.12 10.5 17.95C10.5 18.77 11.17 19.45 12 19.45C12.59 19.45 13.11 19.1 13.35 18.59C15.48 18.52 17.24 16.95 17.58 14.9L18.29 14.9C19.37 14.9 20.25 14.02 20.25 12.95L20.25 11.05C20.25 9.97 19.37 9.1 18.29 9.1L17.62 9.1C17.34 6.23 14.93 4 12 4C9.06 4 6.65 6.23 6.37 9.09L5.69 9.09C4.62 9.09 3.75 9.97 3.75 11.05L3.75 12.95C3.75 14.02 4.62 14.9 5.69 14.9L6.97 14.9C6.98 14.9 6.99 14.9 7 14.9C7.34 14.9 7.63 14.62 7.64 14.28C7.64 14.27 7.64 14.27 7.64 14.27C7.64 14.26 7.65 14.25 7.65 14.25L7.65 9.75L7.65 9.74L7.65 9.65Z" fill="#74767B" fill-opacity="1.000000" fill-rule="nonzero"/>
	</g>
</svg>
