<svg width="24.000000" height="24.000000" viewBox="0 0 24 24" fill="none" xmlns="http://www.w3.org/2000/svg" xmlns:xlink="http://www.w3.org/1999/xlink">
	<desc>
			Created with Pixso.
	</desc>
	<defs>
		<clipPath id="clip8688_1407">
			<rect id="Solid / Linkedin Solid" width="24.000000" height="24.000000" fill="white" fill-opacity="0"/>
		</clipPath>
	</defs>
	<g clip-path="url(#clip8688_1407)">
		<path id="Shape" d="M12 3C7.02 3 3 7.02 3 12C3 16.97 7.02 21 12 21C16.97 21 21 16.97 21 12C21 7.02 16.97 3 12 3ZM9.59 16.35L7.62 16.35L7.62 9.96L9.59 9.96L9.59 16.35ZM8.6 9.13C7.95 9.13 7.43 8.6 7.43 7.95C7.43 7.3 7.95 6.77 8.6 6.77C9.24 6.77 9.76 7.3 9.76 7.95C9.76 8.6 9.24 9.13 8.6 9.13ZM17 16.35L15.03 16.35L15.03 13C15.03 12.08 14.68 11.56 13.96 11.56C13.17 11.56 12.75 12.1 12.75 13L12.75 16.35L10.86 16.35L10.86 9.96L12.75 9.96L12.75 10.82C12.75 10.82 13.32 9.77 14.68 9.77C16.03 9.77 17 10.59 17 12.3L17 16.35Z" fill="#74767B" fill-opacity="1.000000" fill-rule="nonzero"/>
	</g>
</svg>
