<svg width="24.000000" height="24.000000" viewBox="0 0 24 24" fill="none" xmlns="http://www.w3.org/2000/svg" xmlns:xlink="http://www.w3.org/1999/xlink">
	<desc>
			Created with Pixso.
	</desc>
	<defs>
		<clipPath id="clip8788_1307">
			<rect id="Solid / Odnoklassniki Solid" width="24.000000" height="24.000000" fill="white" fill-opacity="0"/>
		</clipPath>
	</defs>
	<g clip-path="url(#clip8788_1307)">
		<path id="Shape" d="M11.99 5.72C13.05 5.72 13.91 6.58 13.91 7.64C13.91 8.7 13.05 9.56 11.99 9.56C10.93 9.56 10.07 8.7 10.07 7.64C10.06 6.58 10.93 5.72 11.99 5.72ZM11.99 12.28C14.55 12.28 16.63 10.2 16.63 7.64C16.63 5.08 14.55 3 11.99 3C9.43 3 7.34 5.08 7.34 7.64C7.34 10.2 9.43 12.28 11.99 12.28ZM13.87 16.07C14.83 15.85 15.73 15.48 16.56 14.96C16.72 14.86 16.85 14.74 16.95 14.59C17.05 14.44 17.13 14.28 17.17 14.11C17.21 13.93 17.21 13.75 17.18 13.58C17.15 13.4 17.09 13.23 16.99 13.08C16.9 12.93 16.77 12.8 16.63 12.69C16.48 12.59 16.32 12.52 16.14 12.48C15.97 12.44 15.79 12.43 15.61 12.46C15.43 12.49 15.27 12.56 15.12 12.65C13.21 13.85 10.76 13.85 8.86 12.65C8.71 12.56 8.54 12.49 8.36 12.46C8.19 12.43 8.01 12.44 7.83 12.48C7.66 12.52 7.5 12.59 7.35 12.69C7.2 12.8 7.08 12.93 6.98 13.08C6.89 13.23 6.83 13.4 6.79 13.58C6.76 13.75 6.77 13.93 6.81 14.11C6.85 14.28 6.92 14.44 7.03 14.59C7.13 14.74 7.26 14.86 7.41 14.96C8.25 15.48 9.15 15.85 10.11 16.07L7.51 18.67C7.38 18.8 7.29 18.95 7.22 19.11C7.15 19.28 7.11 19.45 7.11 19.63C7.11 19.81 7.15 19.99 7.22 20.15C7.29 20.32 7.38 20.47 7.51 20.6C7.64 20.72 7.79 20.82 7.95 20.89C8.12 20.96 8.29 20.99 8.47 20.99C8.65 20.99 8.83 20.96 8.99 20.89C9.16 20.82 9.31 20.72 9.44 20.6L11.99 18.04L14.54 20.6C14.67 20.72 14.82 20.82 14.98 20.89C15.15 20.96 15.32 21 15.5 21C15.68 21 15.86 20.96 16.02 20.89C16.19 20.82 16.34 20.72 16.46 20.6C16.59 20.47 16.69 20.32 16.76 20.16C16.83 19.99 16.86 19.81 16.86 19.63C16.86 19.45 16.83 19.28 16.76 19.11C16.69 18.95 16.59 18.8 16.46 18.67L13.87 16.07Z" fill="#74767B" fill-opacity="1.000000" fill-rule="nonzero"/>
	</g>
</svg>
