<svg width="24.000000" height="24.000000" viewBox="0 0 24 24" fill="none" xmlns="http://www.w3.org/2000/svg" xmlns:xlink="http://www.w3.org/1999/xlink">
	<desc>
			Created with Pixso.
	</desc>
	<defs>
		<clipPath id="clip17_1080">
			<rect id="Solid / Phone Solid" width="24.000000" height="24.000000" fill="white" fill-opacity="0"/>
		</clipPath>
	</defs>
	<g >
		<path id="Shape" d="M9.81 3.83C9.18 2.95 7.96 2.75 7.09 3.37L5.88 4.23C5.22 4.71 4.66 5.44 4.62 6.38C4.54 8.01 4.87 11.16 7.64 15.04C10.4 18.9 13.29 20.31 14.89 20.81C15.81 21.1 16.73 20.82 17.42 20.32L18.58 19.49C19.46 18.87 19.67 17.65 19.04 16.77L17.58 14.73C16.96 13.85 15.74 13.65 14.86 14.27L13.85 14.99C13.85 15 13.84 15 13.84 15C13.32 14.61 12.31 13.76 11.37 12.44C10.43 11.12 9.95 9.88 9.75 9.26C9.75 9.26 9.76 9.26 9.76 9.26L10.77 8.54C11.65 7.91 11.85 6.69 11.23 5.82L9.81 3.83Z" fill="#74767B" fill-opacity="1.000000" fill-rule="nonzero"/>
	</g>
</svg>
