<svg viewBox="0 0 24 24" xmlns="http://www.w3.org/2000/svg" xmlns:xlink="http://www.w3.org/1999/xlink" width="24.000000" height="24.000000" fill="none">
	<rect id="Solid/Signal Solid" width="24.000000" height="24.000000" x="0.000000" y="0.000000" />
	<path id="Shape" d="M18.0415 17.7695C17.7799 17.5222 17.7717 17.1109 17.9972 16.8304C19.0548 15.515 19.6877 13.8436 19.6877 12.0245C19.6877 7.7854 16.2512 4.34895 12.0121 4.34895C7.77307 4.34895 4.33662 7.7854 4.33662 12.0245C4.33662 13.8353 4.96372 15.4997 6.0126 16.8123C6.23663 17.0927 6.22803 17.5024 5.96761 17.7493C5.70703 17.9964 5.29344 17.9868 5.06585 17.709C3.79764 16.1611 3.03662 14.1817 3.03662 12.0245C3.03662 7.06743 7.0551 3.04895 12.0121 3.04895C16.9692 3.04895 20.9877 7.06743 20.9877 12.0245C20.9877 14.1914 20.2198 16.179 18.9412 17.7299C18.7136 18.0061 18.3015 18.0154 18.0415 17.7695ZM16.6865 15.6006C16.4691 15.8843 16.0567 15.8926 15.7971 15.6471C15.5351 15.3994 15.5294 14.988 15.7396 14.6951C16.2794 13.9431 16.5972 13.0209 16.5972 12.0245C16.5972 9.49222 14.5444 7.4394 12.0121 7.4394C9.47986 7.4394 7.42704 9.49222 7.42704 12.0245C7.42704 13.0117 7.73903 13.926 8.26979 14.6743C8.47738 14.9669 8.47068 15.3758 8.21032 15.6227C7.94967 15.8699 7.53469 15.8607 7.31782 15.5744C6.57044 14.5876 6.12704 13.3578 6.12704 12.0245C6.12704 8.77425 8.76189 6.1394 12.0121 6.1394C15.2624 6.1394 17.8972 8.77425 17.8972 12.0245C17.8972 13.3697 17.4459 14.6094 16.6865 15.6006ZM12.6632 14.368C13.722 14.0774 14.5 13.108 14.5 11.9569C14.5 10.5762 13.3807 9.45691 12 9.45691C10.6193 9.45691 9.5 10.5762 9.5 11.9569C9.5 13.1175 10.2909 14.0935 11.3632 14.3751L11.3632 20.3437C11.3632 20.7027 11.6542 20.9937 12.0132 20.9937C12.3722 20.9937 12.6632 20.7027 12.6632 20.3437L12.6632 14.368Z" fill="rgb(116,118,123)" fill-rule="evenodd" />
</svg>
