<svg width="24.000000" height="24.000000" viewBox="0 0 24 24" fill="none" xmlns="http://www.w3.org/2000/svg" xmlns:xlink="http://www.w3.org/1999/xlink">
	<desc>
			Created with Pixso.
	</desc>
	<defs>
		<clipPath id="clip17_1074">
			<rect id="Solid / Signal Solid" width="24.000000" height="24.000000" fill="white" fill-opacity="0"/>
		</clipPath>
	</defs>
	<g clip-path="url(#clip17_1074)">
		<path id="Shape" d="M17.99 16.83C17.77 17.11 17.77 17.52 18.04 17.76C18.3 18.01 18.71 18 18.94 17.72C20.21 16.17 20.98 14.19 20.98 12.02C20.98 7.06 16.96 3.04 12.01 3.04C7.05 3.04 3.03 7.06 3.03 12.02C3.03 14.18 3.79 16.16 5.06 17.7C5.29 17.98 5.7 17.99 5.96 17.74C6.22 17.5 6.23 17.09 6.01 16.81C4.96 15.49 4.33 13.83 4.33 12.02C4.33 7.78 7.77 4.34 12.01 4.34C16.25 4.34 19.68 7.78 19.68 12.02C19.68 13.84 19.05 15.51 17.99 16.83ZM16.68 15.6C16.46 15.88 16.05 15.89 15.79 15.64C15.53 15.39 15.52 14.98 15.73 14.69C16.27 13.94 16.59 13.02 16.59 12.02C16.59 9.49 14.54 7.43 12.01 7.43C9.47 7.43 7.42 9.49 7.42 12.02C7.42 13.01 7.73 13.92 8.26 14.67C8.47 14.96 8.47 15.37 8.21 15.62C7.94 15.86 7.53 15.86 7.31 15.57C6.57 14.58 6.12 13.35 6.12 12.02C6.12 8.77 8.76 6.13 12.01 6.13C15.26 6.13 17.89 8.77 17.89 12.02C17.89 13.36 17.44 14.6 16.68 15.6ZM12.66 14.36C13.72 14.07 14.5 13.1 14.5 11.95C14.5 10.57 13.38 9.45 12 9.45C10.61 9.45 9.5 10.57 9.5 11.95C9.5 13.11 10.29 14.09 11.36 14.37L11.36 20.34C11.36 20.7 11.65 20.99 12.01 20.99C12.37 20.99 12.66 20.7 12.66 20.34L12.66 14.36Z" fill="#74767B" fill-opacity="1.000000" fill-rule="evenodd"/>
	</g>
</svg>
