<svg width="24.000000" height="24.000000" viewBox="0 0 24 24" fill="none" xmlns="http://www.w3.org/2000/svg" xmlns:xlink="http://www.w3.org/1999/xlink">
	<desc>
			Created with Pixso.
	</desc>
	<defs>
		<clipPath id="clip17_1077">
			<rect id="Solid / SIM Card Solid" width="24.000000" height="24.000000" fill="white" fill-opacity="0"/>
		</clipPath>
	</defs>
	<g>
		<path id="Shape" d="M5.75 7.77C5.26 8.32 5 9.03 5 9.76L5 18C5 19.65 6.34 21 8 21L16 21C17.65 21 19 19.65 19 18L19 6C19 4.34 17.65 3 16 3L11.34 3C10.49 3 9.67 3.36 9.1 4L5.75 7.77ZM8.9 9C8.18 9 7.6 9.58 7.6 10.3L7.6 10.84C7.6 11.23 7.91 11.54 8.3 11.54L9.98 11.54C10.34 11.54 10.63 11.83 10.63 12.19C10.63 12.55 10.34 12.84 9.98 12.84L8.3 12.84C7.91 12.84 7.6 13.15 7.6 13.54L7.6 13.84C7.6 14.23 7.91 14.54 8.3 14.54L9.98 14.54C10.34 14.54 10.63 14.83 10.63 15.19C10.63 15.55 10.34 15.84 9.98 15.84L8.3 15.84C7.91 15.84 7.6 16.15 7.6 16.54L7.6 17.08C7.6 17.8 8.18 18.38 8.9 18.38L15.09 18.38C15.8 18.38 16.39 17.8 16.39 17.08L16.39 16.54C16.39 16.15 16.07 15.84 15.69 15.84L13.95 15.84C13.59 15.84 13.3 15.55 13.3 15.19C13.3 14.83 13.59 14.54 13.95 14.54L15.69 14.54C16.07 14.54 16.39 14.23 16.39 13.84L16.39 13.54C16.39 13.15 16.07 12.84 15.69 12.84L13.95 12.84C13.59 12.84 13.3 12.55 13.3 12.19C13.3 11.83 13.59 11.54 13.95 11.54L15.69 11.54C16.07 11.54 16.39 11.23 16.39 10.84L16.39 10.3C16.39 9.58 15.8 9 15.09 9L8.9 9Z" fill="#717681" fill-opacity="1.000000" fill-rule="evenodd"/>
	</g>
</svg>
