<svg width="24.000000" height="24.000000" viewBox="0 0 24 24" fill="none" xmlns="http://www.w3.org/2000/svg" xmlns:xlink="http://www.w3.org/1999/xlink">
	<desc>
			Created with Pixso.
	</desc>
	<defs>
		<clipPath id="clip17_1068">
			<rect id="Outline / SIM Card Outline" width="24.000000" height="24.000000" fill="white" fill-opacity="0"/>
		</clipPath>
	</defs>
	<g >
		<path id="Shape" d="M5.75 7.77C5.26 8.32 5 9.03 5 9.76L5 18C5 19.65 6.34 21 8 21L16 21C17.65 21 19 19.65 19 18L19 6C19 4.34 17.65 3 16 3L11.34 3C10.49 3 9.67 3.36 9.1 4L5.75 7.77ZM17.7 18L17.7 6C17.7 5.06 16.93 4.29 16 4.29L11.34 4.29C10.86 4.29 10.39 4.5 10.07 4.87L6.72 8.63C6.45 8.94 6.3 9.34 6.3 9.76L6.3 18C6.3 18.93 7.06 19.7 8 19.7L16 19.7C16.93 19.7 17.7 18.93 17.7 18ZM8.9 9C8.18 9 7.6 9.58 7.6 10.3L7.6 17.08C7.6 17.8 8.18 18.38 8.9 18.38L15.09 18.38C15.8 18.38 16.39 17.8 16.39 17.08L16.39 10.3C16.39 9.58 15.8 9 15.09 9L8.9 9ZM15.09 10.3L8.9 10.3L8.9 11.54L9.98 11.54C10.34 11.54 10.63 11.83 10.63 12.19C10.63 12.55 10.34 12.84 9.98 12.84L8.9 12.84L8.9 14.54L9.98 14.54C10.34 14.54 10.63 14.83 10.63 15.19C10.63 15.55 10.34 15.84 9.98 15.84L8.9 15.84L8.9 17.08L15.09 17.08L15.09 15.84L13.95 15.84C13.59 15.84 13.3 15.55 13.3 15.19C13.3 14.83 13.59 14.54 13.95 14.54L15.09 14.54L15.09 12.84L13.95 12.84C13.59 12.84 13.3 12.55 13.3 12.19C13.3 11.83 13.59 11.54 13.95 11.54L15.09 11.54L15.09 10.3Z" fill="#74767B" fill-opacity="1.000000" fill-rule="evenodd"/>
	</g>
</svg>
