<svg width="24.000000" height="24.000000" viewBox="0 0 24 24" fill="none" xmlns="http://www.w3.org/2000/svg" xmlns:xlink="http://www.w3.org/1999/xlink">
	<g>
		<rect id="Solid / Telegram Solid" width="24.000000" height="24.000000" fill="white" fill-opacity="0"/>
		<path id="Shape" d="M4.23 10.96C9.06 8.85 12.29 7.46 13.9 6.79C18.5 4.88 19.46 4.55 20.08 4.54C20.22 4.53 20.52 4.57 20.72 4.73C20.89 4.86 20.94 5.05 20.96 5.18C20.98 5.31 21.01 5.6 20.99 5.83C20.74 8.45 19.66 14.81 19.11 17.75C18.88 18.99 18.42 19.4 17.98 19.44C17.01 19.53 16.28 18.81 15.35 18.2C13.89 17.24 13.07 16.65 11.65 15.71C10.02 14.63 11.08 14.04 12.01 13.07C12.25 12.82 16.49 8.96 16.58 8.61C16.59 8.57 16.6 8.41 16.5 8.32C16.4 8.23 16.26 8.26 16.16 8.29C16.01 8.32 13.68 9.86 9.16 12.91C8.5 13.36 7.9 13.58 7.37 13.57C6.78 13.56 5.64 13.24 4.79 12.96C3.75 12.62 2.93 12.45 3 11.87C3.04 11.57 3.45 11.27 4.23 10.96Z" fill="#74767B" fill-opacity="1.000000" fill-rule="evenodd"/>
	</g>
</svg>
