<svg width="24.000000" height="24.000000" viewBox="0 0 24 24" fill="none" xmlns="http://www.w3.org/2000/svg" xmlns:xlink="http://www.w3.org/1999/xlink">
	<desc>
			Created with Pixso.
	</desc>
	<defs>
		<clipPath id="clip17_1088">
			<rect id="Solid / Telegram Round Solid" width="24.000000" height="24.000000" fill="white" fill-opacity="0"/>
		</clipPath>
	</defs>
	<g clip-path="url(#clip17_1088)">
		<path id="Shape" d="M12 3C7.02 3 3 7.02 3 12C3 16.97 7.02 21 12 21C16.97 21 21 16.97 21 12C21 7.02 16.97 3 12 3ZM12.32 9.64C11.44 10 9.69 10.76 7.07 11.9C6.64 12.07 6.42 12.24 6.4 12.4C6.37 12.67 6.71 12.78 7.18 12.93C7.24 12.95 7.3 12.97 7.37 12.99C7.83 13.14 8.45 13.31 8.77 13.32C9.06 13.33 9.39 13.21 9.75 12.96C12.2 11.3 13.46 10.47 13.54 10.45C13.6 10.44 13.68 10.42 13.73 10.47C13.78 10.51 13.78 10.6 13.77 10.63C13.73 10.82 11.42 12.91 11.29 13.05C11.22 13.12 11.15 13.19 11.08 13.26C10.65 13.67 10.33 13.98 11.1 14.48C11.87 14.99 12.31 15.31 13.11 15.83C13.21 15.9 13.31 15.97 13.41 16.04C13.78 16.31 14.12 16.55 14.53 16.51C14.77 16.49 15.02 16.26 15.15 15.59C15.45 13.99 16.03 10.54 16.17 9.12C16.18 8.99 16.16 8.83 16.15 8.76C16.14 8.69 16.11 8.59 16.02 8.52C15.92 8.43 15.75 8.41 15.67 8.41C15.34 8.42 14.82 8.6 12.32 9.64Z" fill="#74767B" fill-opacity="1.000000" fill-rule="evenodd"/>
	</g>
</svg>
