<svg width="24.000000" height="24.000000" viewBox="0 0 24 24" fill="none" xmlns="http://www.w3.org/2000/svg" xmlns:xlink="http://www.w3.org/1999/xlink">
	<desc>
			Created with Pixso.
	</desc>
	<defs>
		<clipPath id="clip17_1085">
			<rect id="Outline / Telegramm Outline" width="24.000000" height="24.000000" fill="white" fill-opacity="0"/>
		</clipPath>
	</defs>
	<g clip-path="url(#clip17_1085)">
		<path id="Shape" d="M3.55 4.72C3.33 3.64 4.47 2.79 5.44 3.32L20.36 11.38C20.85 11.64 20.85 12.35 20.36 12.61L5.44 20.67C4.47 21.2 3.33 20.35 3.55 19.27L4.91 12.59C4.99 12.2 4.99 11.79 4.91 11.4L3.55 4.72ZM4.82 4.46L18.76 12L4.82 19.53L6.19 12.85C6.2 12.78 6.21 12.71 6.22 12.65L11.82 12.65C12.18 12.65 12.47 12.35 12.47 12C12.47 11.64 12.18 11.35 11.82 11.35L6.22 11.35C6.21 11.28 6.2 11.21 6.19 11.14L4.82 4.46Z" fill="#74767B" fill-opacity="1.000000" fill-rule="evenodd"/>
	</g>
</svg>
