<svg width="24.000000" height="24.000000" viewBox="0 0 24 24" fill="none" xmlns="http://www.w3.org/2000/svg" xmlns:xlink="http://www.w3.org/1999/xlink">
	<g>
		<rect id="Solid / Tenchat Solid" width="24.000000" height="24.000000" fill="white" fill-opacity="0"/>
		<path id="Shape" d="M18.04 4.77C14.08 3.74 9.91 3.74 5.95 4.77C4.62 5.12 3.61 6.19 3.35 7.53C2.88 9.89 2.88 12.32 3.35 14.68C3.61 16.01 4.62 17.08 5.95 17.43C8.35 18.06 10.83 18.31 13.3 18.17C13.62 18.15 13.94 18.26 14.18 18.46L17.1 20.89C17.15 20.94 17.23 20.95 17.29 20.92C17.35 20.89 17.4 20.83 17.4 20.76L17.4 17.94C17.4 17.73 17.54 17.56 17.74 17.51C17.84 17.48 17.94 17.46 18.04 17.43C19.37 17.08 20.38 16.01 20.64 14.68C21.11 12.32 21.11 9.89 20.64 7.53C20.38 6.19 19.37 5.12 18.04 4.77ZM15.75 7.14C16.02 7.14 16.24 7.36 16.24 7.63L16.24 9.32C16.24 9.59 16.02 9.8 15.75 9.8L14.03 9.8C13.76 9.8 13.54 10.02 13.54 10.29L13.54 14.89C13.54 15.15 13.32 15.37 13.05 15.37L11.09 15.37C10.82 15.37 10.6 15.15 10.6 14.89L10.6 10.29C10.6 10.02 10.38 9.8 10.11 9.8L8.39 9.8C8.12 9.8 7.9 9.59 7.9 9.32L7.9 7.63C7.9 7.36 8.12 7.14 8.39 7.14L15.75 7.14Z" fill="#74767B" fill-opacity="1.000000" fill-rule="evenodd"/>
	</g>
</svg>
