<svg width="24.000000" height="24.000000" viewBox="0 0 24 24" fill="none" xmlns="http://www.w3.org/2000/svg" xmlns:xlink="http://www.w3.org/1999/xlink">
	<desc>
			Created with Pixso.
	</desc>
	<defs>
		<clipPath id="clip8688_1376">
			<rect id="Solid / Viber Round Solid" width="24.000000" height="24.000000" fill="white" fill-opacity="0"/>
		</clipPath>
	</defs>
	<g clip-path="url(#clip8688_1376)">
		<path id="Shape" d="M12 3C7.02 3 3 7.02 3 12C3 16.97 7.02 21 12 21C16.97 21 21 16.97 21 12C21 7.02 16.97 3 12 3ZM6.5 11.76C6.5 8.01 8.08 6.5 12 6.5C15.91 6.5 17.5 8.01 17.5 11.76C17.5 15.5 15.91 17.02 12 17.02C11.71 17.02 11.48 17.02 11.07 16.96L9.98 18.24C9.78 18.48 9.17 18.57 9.17 17.85L9.17 16.6C9 16.6 8.6 16.43 8.05 16.07C7.5 15.68 6.5 14.76 6.5 11.76ZM7.36 11.76C7.36 9.05 7.85 7.39 12 7.39C16.14 7.39 16.63 9.05 16.63 11.76C16.63 14.46 16.14 16.13 12 16.13L11.25 16.1L9.72 17.97C9.6 18.09 9.49 18 9.49 17.88L9.49 15.83C9.32 15.83 8.6 15.47 8.4 15.27C7.76 14.58 7.36 14.08 7.36 11.76ZM12.21 8.67C12.11 8.67 12.01 8.66 11.91 8.67C11.82 8.67 11.76 8.73 11.76 8.82C11.77 8.9 11.83 8.96 11.91 8.96C11.95 8.96 12 8.96 12.04 8.96C12.09 8.96 12.14 8.97 12.19 8.97C12.24 8.98 12.29 8.98 12.34 8.99C12.38 8.99 12.42 9 12.46 9.01C12.5 9.02 12.54 9.02 12.57 9.03C12.63 9.05 12.68 9.06 12.73 9.08C12.77 9.09 12.82 9.1 12.86 9.12C12.91 9.14 12.95 9.15 12.99 9.17C13.03 9.19 13.07 9.21 13.12 9.23C13.16 9.25 13.2 9.27 13.24 9.29C13.27 9.31 13.31 9.34 13.35 9.36C13.39 9.38 13.43 9.41 13.47 9.44C13.51 9.47 13.55 9.5 13.58 9.53C13.62 9.55 13.66 9.58 13.69 9.62C13.76 9.68 13.83 9.74 13.89 9.81C13.96 9.88 14.02 9.95 14.07 10.03C14.13 10.1 14.18 10.18 14.23 10.26C14.28 10.34 14.32 10.43 14.36 10.51C14.38 10.56 14.41 10.61 14.43 10.66C14.44 10.7 14.45 10.74 14.47 10.77C14.5 10.86 14.53 10.95 14.55 11.05C14.57 11.14 14.59 11.23 14.6 11.33C14.61 11.42 14.62 11.52 14.62 11.61C14.62 11.71 14.62 11.8 14.62 11.9C14.61 11.98 14.67 12.05 14.75 12.05C14.83 12.06 14.9 12 14.9 11.92C14.91 11.86 14.91 11.81 14.91 11.75C14.91 11.7 14.91 11.65 14.91 11.6C14.91 11.5 14.9 11.39 14.88 11.29C14.87 11.18 14.85 11.08 14.83 10.98C14.8 10.87 14.77 10.77 14.74 10.67C14.7 10.58 14.66 10.48 14.62 10.38C14.58 10.29 14.53 10.2 14.47 10.11C14.42 10.02 14.36 9.93 14.3 9.85C14.24 9.76 14.17 9.68 14.1 9.61C14.03 9.53 13.96 9.46 13.88 9.39C13.84 9.36 13.8 9.32 13.76 9.29C13.72 9.26 13.68 9.23 13.64 9.2C13.59 9.16 13.54 9.13 13.49 9.1C13.46 9.08 13.42 9.05 13.38 9.03C13.33 9.01 13.29 8.98 13.24 8.96C13.19 8.94 13.15 8.92 13.1 8.9C13.05 8.88 13.01 8.86 12.96 8.84C12.91 8.82 12.86 8.81 12.81 8.79C12.75 8.77 12.7 8.76 12.64 8.74C12.6 8.73 12.56 8.72 12.51 8.72C12.47 8.71 12.42 8.7 12.37 8.69C12.32 8.69 12.27 8.68 12.21 8.67ZM12.92 13.01C13.11 12.75 13.34 12.71 13.61 12.89L14.64 13.69C14.8 13.89 14.73 14.17 14.44 14.52C14.15 14.88 13.89 15.03 13.64 14.97C12.62 14.73 11.64 14.14 10.7 13.18C9.76 12.23 9.17 11.2 8.94 10.09C8.94 9.7 9.18 9.36 9.66 9.08C9.91 8.9 10.12 8.95 10.3 9.23L11.02 10.27C11.13 10.51 11.06 10.73 10.81 10.93C9.69 11.37 12.28 14.26 12.92 13.01ZM12.28 9.44C12.24 9.44 12.21 9.44 12.17 9.44C12.09 9.44 12.02 9.5 12.02 9.59C12.02 9.67 12.09 9.74 12.17 9.74C12.23 9.74 12.28 9.74 12.34 9.74C12.4 9.75 12.45 9.76 12.51 9.77C12.54 9.78 12.65 9.81 12.68 9.82C12.7 9.83 12.81 9.86 12.84 9.88C12.89 9.9 12.94 9.93 12.99 9.95C13.04 9.98 13.09 10.01 13.14 10.05C13.16 10.06 13.25 10.14 13.27 10.16C13.3 10.18 13.37 10.25 13.4 10.28C13.42 10.3 13.49 10.39 13.51 10.41C13.55 10.46 13.58 10.51 13.61 10.56C13.64 10.61 13.67 10.66 13.69 10.71C13.72 10.77 13.74 10.82 13.76 10.88C13.78 10.93 13.8 10.99 13.81 11.04C13.83 11.1 13.84 11.16 13.85 11.22C13.86 11.28 13.86 11.34 13.87 11.39C13.87 11.45 13.87 11.51 13.87 11.57C13.86 11.66 13.92 11.72 14 11.73C14.08 11.73 14.15 11.67 14.15 11.59C14.16 11.52 14.16 11.45 14.15 11.38C14.15 11.31 14.14 11.24 14.13 11.17C14.12 11.1 14.11 11.04 14.09 10.97C14.07 10.9 14.05 10.84 14.03 10.77C14.02 10.73 14 10.69 13.98 10.65C13.95 10.59 13.89 10.46 13.85 10.4C13.83 10.35 13.8 10.31 13.77 10.27C13.74 10.24 13.69 10.17 13.67 10.14C13.62 10.09 13.51 9.98 13.46 9.93C13.43 9.91 13.33 9.83 13.3 9.8C13.27 9.79 13.16 9.71 13.13 9.69C13.1 9.68 12.98 9.62 12.95 9.6C12.92 9.59 12.79 9.54 12.76 9.53C12.73 9.52 12.6 9.49 12.57 9.48C12.5 9.47 12.35 9.45 12.28 9.44ZM12.47 10.24C12.43 10.24 12.4 10.24 12.36 10.24C12.28 10.24 12.22 10.31 12.23 10.39C12.23 10.48 12.29 10.54 12.37 10.54C12.42 10.54 12.47 10.54 12.52 10.55C12.57 10.56 12.62 10.57 12.66 10.59C12.71 10.61 12.75 10.63 12.79 10.66C12.83 10.69 12.87 10.72 12.91 10.76C12.94 10.79 12.97 10.83 13 10.87C13.03 10.92 13.05 10.96 13.07 11.01C13.09 11.06 13.1 11.1 13.11 11.15C13.12 11.21 13.12 11.26 13.12 11.31C13.12 11.39 13.18 11.46 13.26 11.46C13.34 11.46 13.4 11.4 13.41 11.32C13.41 11.25 13.4 11.17 13.39 11.1C13.38 11.03 13.36 10.97 13.34 10.9C13.31 10.83 13.28 10.77 13.24 10.71C13.2 10.65 13.16 10.6 13.11 10.55C13.08 10.52 12.98 10.43 12.95 10.41C12.89 10.37 12.83 10.34 12.77 10.31C12.7 10.29 12.64 10.27 12.57 10.26C12.54 10.25 12.5 10.25 12.47 10.24Z" fill="#74767B" fill-opacity="1.000000" fill-rule="evenodd"/>
	</g>
</svg>
