<svg width="24.000000" height="24.000000" viewBox="0 0 24 24" fill="none" xmlns="http://www.w3.org/2000/svg" xmlns:xlink="http://www.w3.org/1999/xlink">
	<desc>
			Created with Pixso.
	</desc>
	<defs>
		<clipPath id="clip8688_1377">
			<rect id="Solid / Viber Solid" width="24.000000" height="24.000000" fill="white" fill-opacity="0"/>
		</clipPath>
	</defs>
	<g clip-path="url(#clip8688_1377)">
		<path id="Shape" d="M12 2.5C5.59 2.5 3 4.98 3 11.11C3 16.02 4.64 17.53 5.54 18.16C6.43 18.74 7.09 19.04 7.38 19.04L7.38 21.08C7.38 22.25 8.37 22.1 8.7 21.71L10.49 19.62C11.15 19.72 11.52 19.72 12 19.72C18.4 19.72 21 17.24 21 11.11C21 4.98 18.4 2.5 12 2.5ZM12 3.95C5.21 3.95 4.41 6.68 4.41 11.11C4.41 14.9 5.07 15.73 6.1 16.85C6.43 17.19 7.61 17.77 7.9 17.77L7.9 21.13C7.9 21.32 8.08 21.47 8.27 21.27L10.77 18.21L12 18.26C18.78 18.26 19.58 15.53 19.58 11.11C19.58 6.68 18.78 3.95 12 3.95ZM11.85 6.05C12.02 6.04 12.18 6.05 12.35 6.06C12.44 6.07 12.53 6.08 12.62 6.09C12.69 6.1 12.77 6.12 12.84 6.13C12.91 6.14 12.98 6.16 13.05 6.17C13.14 6.2 13.24 6.22 13.33 6.25C13.41 6.28 13.49 6.3 13.57 6.33C13.65 6.36 13.73 6.39 13.8 6.42C13.88 6.46 13.96 6.49 14.03 6.53C14.11 6.57 14.18 6.61 14.25 6.65C14.32 6.68 14.38 6.72 14.45 6.76C14.53 6.81 14.6 6.86 14.68 6.92C14.75 6.97 14.82 7.02 14.89 7.07C14.95 7.12 15.02 7.18 15.08 7.23C15.2 7.34 15.33 7.46 15.44 7.59C15.56 7.71 15.66 7.84 15.77 7.98C15.87 8.12 15.96 8.26 16.05 8.4C16.14 8.55 16.22 8.7 16.29 8.86C16.36 9.01 16.43 9.17 16.48 9.33C16.54 9.5 16.59 9.66 16.63 9.83C16.67 10 16.7 10.17 16.72 10.34C16.74 10.51 16.76 10.68 16.76 10.85C16.77 10.93 16.77 11.01 16.77 11.09C16.76 11.18 16.76 11.28 16.75 11.37C16.74 11.5 16.63 11.6 16.5 11.59C16.37 11.58 16.27 11.47 16.28 11.33C16.29 11.18 16.3 11.02 16.29 10.87C16.29 10.71 16.28 10.56 16.26 10.4C16.23 10.25 16.21 10.1 16.17 9.94C16.13 9.79 16.09 9.64 16.04 9.5C16.02 9.44 16 9.38 15.97 9.32C15.94 9.23 15.91 9.15 15.87 9.07C15.8 8.93 15.73 8.79 15.65 8.66C15.57 8.53 15.49 8.4 15.39 8.28C15.3 8.15 15.2 8.03 15.1 7.92C15 7.81 14.89 7.7 14.77 7.6C14.71 7.55 14.66 7.5 14.6 7.45C14.54 7.41 14.48 7.36 14.41 7.32C14.35 7.27 14.28 7.22 14.21 7.18C14.15 7.14 14.09 7.11 14.03 7.07C13.96 7.04 13.9 7 13.83 6.97C13.76 6.94 13.69 6.9 13.62 6.87C13.55 6.84 13.48 6.82 13.41 6.79C13.34 6.76 13.27 6.74 13.2 6.72C13.11 6.69 13.03 6.67 12.94 6.65C12.88 6.63 12.82 6.62 12.76 6.61C12.69 6.6 12.62 6.58 12.55 6.57C12.47 6.56 12.39 6.55 12.31 6.55C12.23 6.54 12.15 6.54 12.06 6.53C12 6.53 11.93 6.53 11.86 6.53C11.73 6.54 11.62 6.43 11.62 6.3C11.62 6.16 11.72 6.05 11.85 6.05ZM14.63 12.96C14.19 12.66 13.82 12.73 13.5 13.15C12.47 15.19 8.23 10.47 10.06 9.74C10.47 9.42 10.58 9.06 10.39 8.67L9.21 6.97C8.93 6.52 8.59 6.44 8.18 6.73C7.39 7.18 7 7.73 7 8.38C7.38 10.2 8.34 11.88 9.87 13.44Q12.18 15.78 14.68 16.36C15.09 16.46 15.53 16.21 16 15.63C16.47 15.05 16.58 14.59 16.33 14.27L14.63 12.96ZM12.28 7.31C12.34 7.31 12.4 7.31 12.46 7.32C12.51 7.32 12.56 7.32 12.61 7.33C12.72 7.34 12.82 7.36 12.93 7.38C12.98 7.39 13.04 7.4 13.09 7.42C13.14 7.43 13.2 7.45 13.25 7.46C13.3 7.48 13.35 7.5 13.4 7.52C13.45 7.54 13.51 7.56 13.56 7.58C13.61 7.61 13.67 7.63 13.72 7.66C13.77 7.68 13.81 7.71 13.85 7.73C13.9 7.76 13.95 7.79 13.99 7.81C14.04 7.84 14.09 7.88 14.13 7.91C14.18 7.95 14.23 7.98 14.28 8.02C14.32 8.05 14.36 8.08 14.39 8.12C14.48 8.19 14.56 8.27 14.63 8.35C14.67 8.39 14.7 8.43 14.73 8.46C14.77 8.51 14.81 8.56 14.85 8.61C14.86 8.63 14.88 8.65 14.89 8.67C14.94 8.74 14.99 8.81 15.04 8.88C15.09 8.98 15.15 9.08 15.2 9.18C15.21 9.22 15.23 9.25 15.25 9.29C15.27 9.36 15.3 9.42 15.33 9.49C15.36 9.6 15.4 9.71 15.43 9.82C15.45 9.93 15.48 10.04 15.49 10.15C15.51 10.26 15.52 10.37 15.53 10.49C15.53 10.6 15.53 10.71 15.53 10.83C15.52 10.96 15.41 11.06 15.28 11.06C15.15 11.05 15.05 10.94 15.06 10.8C15.06 10.71 15.06 10.61 15.06 10.51C15.05 10.42 15.04 10.32 15.03 10.22C15.01 10.13 14.99 10.03 14.97 9.94C14.95 9.85 14.92 9.75 14.89 9.66C14.85 9.57 14.81 9.48 14.77 9.4C14.73 9.31 14.69 9.23 14.64 9.14C14.59 9.06 14.53 8.98 14.48 8.91C14.44 8.86 14.41 8.82 14.38 8.78C14.35 8.75 14.32 8.72 14.29 8.69C14.25 8.64 14.2 8.6 14.16 8.55C14.14 8.53 14.11 8.51 14.09 8.49C14.05 8.46 14.02 8.43 13.99 8.4C13.95 8.37 13.91 8.34 13.86 8.31C13.79 8.25 13.71 8.2 13.63 8.16C13.54 8.11 13.46 8.07 13.37 8.03C13.33 8.01 13.28 7.99 13.24 7.97C13.19 7.96 13.15 7.94 13.11 7.93C13.06 7.91 13.02 7.9 12.97 7.89C12.92 7.88 12.88 7.87 12.84 7.86C12.74 7.84 12.65 7.82 12.56 7.81C12.47 7.8 12.37 7.8 12.28 7.8C12.15 7.8 12.04 7.69 12.04 7.56C12.04 7.42 12.15 7.31 12.28 7.31ZM12.6 8.63C12.66 8.62 12.71 8.62 12.77 8.63C12.83 8.63 12.88 8.64 12.94 8.65C13.05 8.67 13.16 8.7 13.26 8.74C13.37 8.79 13.47 8.84 13.56 8.9C13.61 8.94 13.65 8.97 13.7 9.01C13.74 9.04 13.78 9.08 13.82 9.12C13.9 9.21 13.97 9.3 14.03 9.39C14.1 9.49 14.15 9.59 14.19 9.7C14.23 9.81 14.26 9.92 14.28 10.04C14.3 10.15 14.31 10.27 14.3 10.38C14.3 10.52 14.19 10.62 14.06 10.62C13.93 10.62 13.83 10.5 13.83 10.37C13.84 10.29 13.83 10.2 13.82 10.12C13.8 10.04 13.78 9.96 13.75 9.88C13.72 9.8 13.68 9.73 13.64 9.66C13.6 9.59 13.55 9.53 13.49 9.47C13.43 9.41 13.37 9.36 13.3 9.31C13.23 9.26 13.16 9.23 13.09 9.2C13.01 9.17 12.94 9.14 12.86 9.13C12.78 9.11 12.7 9.11 12.62 9.11C12.48 9.12 12.38 9.01 12.37 8.88C12.37 8.74 12.47 8.63 12.6 8.63Z" fill="#74767B" fill-opacity="1.000000" fill-rule="evenodd"/>
	</g>
</svg>
