<svg width="24.000000" height="24.000000" viewBox="0 0 24 24" fill="none" xmlns="http://www.w3.org/2000/svg" xmlns:xlink="http://www.w3.org/1999/xlink">
	<g>
		<rect id="Solid / VK Round Solid" width="24.000000" height="24.000000" fill="white" fill-opacity="0"/>
		<path id="Shape" d="M12 3C7.02 3 3 7.02 3 12C3 16.97 7.02 21 12 21C16.97 21 21 16.97 21 12C21 7.02 16.97 3 12 3ZM6.19 8.54C6.29 13.16 8.53 15.94 12.46 15.94L12.68 15.94L12.68 13.3C14.13 13.44 15.22 14.53 15.65 15.94L17.7 15.94C17.13 13.84 15.66 12.67 14.74 12.23C15.66 11.68 16.95 10.35 17.26 8.54L15.41 8.54C15.01 10.01 13.82 11.34 12.68 11.47L12.68 8.54L10.83 8.54L10.83 13.67C9.68 13.37 8.23 11.93 8.16 8.54L6.19 8.54Z" fill="#74767B" fill-opacity="1.000000" fill-rule="evenodd"/>
	</g>
</svg>
