<svg width="24.000000" height="24.000000" viewBox="0 0 24 24" fill="none" xmlns="http://www.w3.org/2000/svg" xmlns:xlink="http://www.w3.org/1999/xlink">
	<g>
		<rect id="Solid / Wechat Round Solid" width="24.000000" height="24.000000" fill="white" fill-opacity="0"/>
		<path id="Shape" d="M12 3C7.02 3 3 7.02 3 12C3 16.97 7.02 21 12 21C16.97 21 21 16.97 21 12C21 7.02 16.97 3 12 3ZM10.34 7.2C8.05 7.2 6.19 8.74 6.19 10.68C6.19 11.72 6.74 12.67 7.63 13.29C7.71 13.35 7.72 13.46 7.72 13.51C7.72 13.54 7.72 13.57 7.71 13.61C7.63 13.87 7.53 14.29 7.52 14.32C7.52 14.34 7.5 14.39 7.5 14.42C7.51 14.43 7.56 14.54 7.58 14.54C7.61 14.54 7.68 14.54 7.71 14.52L8.62 14C8.7 13.95 8.75 13.95 8.83 13.95C8.87 13.95 8.92 13.96 8.96 13.97C9.38 14.11 9.85 14.16 10.32 14.16L10.55 14.16C10.46 13.88 10.42 13.59 10.42 13.29C10.42 11.54 12.12 10.13 14.2 10.13L14.44 10.13C14.15 8.48 12.43 7.2 10.34 7.2ZM8.96 10.13C8.92 10.13 8.89 10.12 8.85 10.12C8.82 10.11 8.78 10.1 8.75 10.09C8.72 10.07 8.6 9.99 8.57 9.97C8.55 9.94 8.46 9.82 8.45 9.79C8.44 9.76 8.43 9.72 8.42 9.69C8.41 9.65 8.41 9.61 8.41 9.58C8.41 9.54 8.41 9.51 8.42 9.47C8.42 9.44 8.44 9.4 8.45 9.37C8.47 9.34 8.54 9.21 8.57 9.19C8.6 9.17 8.71 9.08 8.75 9.07C8.78 9.06 8.81 9.05 8.85 9.04C8.88 9.03 8.92 9.03 8.96 9.03C8.99 9.03 9.03 9.03 9.06 9.04C9.1 9.04 9.13 9.05 9.17 9.07C9.2 9.09 9.32 9.16 9.35 9.19C9.37 9.22 9.45 9.33 9.46 9.37C9.48 9.4 9.49 9.43 9.5 9.47C9.5 9.5 9.51 9.54 9.51 9.58C9.51 9.61 9.5 9.65 9.5 9.68C9.49 9.72 9.48 9.75 9.46 9.79C9.44 9.82 9.37 9.94 9.35 9.96C9.32 9.98 9.2 10.07 9.17 10.08C9.14 10.1 9.1 10.11 9.07 10.11C9.03 10.12 9 10.13 8.96 10.13ZM11.72 10.13C11.69 10.13 11.65 10.12 11.62 10.12C11.58 10.11 11.55 10.1 11.51 10.08C11.48 10.06 11.36 9.99 11.33 9.97C11.31 9.94 11.23 9.82 11.22 9.79C11.2 9.75 11.19 9.72 11.18 9.68C11.18 9.65 11.17 9.61 11.17 9.58C11.17 9.54 11.18 9.5 11.18 9.47C11.19 9.43 11.2 9.4 11.22 9.37C11.24 9.34 11.31 9.21 11.33 9.19C11.36 9.17 11.48 9.08 11.51 9.07C11.55 9.06 11.58 9.04 11.62 9.04C11.65 9.03 11.69 9.03 11.72 9.03C12.01 9.03 12.27 9.29 12.27 9.58C12.3 9.86 12.04 10.13 11.72 10.13ZM16.5 15.49C17.23 14.97 17.7 14.18 17.7 13.29C17.7 11.7 16.16 10.39 14.23 10.39C12.3 10.39 10.76 11.7 10.76 13.29C10.76 14.89 12.3 16.2 14.23 16.2C14.62 16.2 15.01 16.15 15.35 16.04C15.4 16.02 15.43 16.02 15.45 16.02C15.52 16.02 15.58 16.03 15.63 16.07L16.39 16.51C16.42 16.51 16.52 16.53 16.54 16.51C16.54 16.48 16.57 16.38 16.56 16.35C16.55 16.31 16.45 15.99 16.39 15.78C16.39 15.74 16.48 15.53 16.5 15.49ZM13.08 12.82C13.05 12.82 12.93 12.8 12.9 12.79C12.87 12.77 12.77 12.71 12.74 12.69C12.73 12.66 12.65 12.56 12.64 12.53C12.64 12.5 12.61 12.38 12.61 12.35C12.61 12.32 12.63 12.2 12.64 12.17C12.66 12.15 12.72 12.04 12.74 12.02C12.77 12 12.87 11.93 12.9 11.92C12.93 11.91 13.05 11.88 13.08 11.88C13.11 11.88 13.23 11.9 13.26 11.91C13.28 11.93 13.39 11.99 13.41 12.02C13.43 12.04 13.5 12.14 13.51 12.17C13.52 12.2 13.55 12.32 13.55 12.35C13.54 12.38 13.53 12.5 13.51 12.53C13.5 12.56 13.43 12.66 13.41 12.68C13.39 12.7 13.29 12.77 13.26 12.79C13.23 12.8 13.11 12.82 13.08 12.82ZM15.37 12.82C15.34 12.82 15.22 12.8 15.19 12.79C15.17 12.77 15.06 12.71 15.04 12.69C15.02 12.66 14.95 12.56 14.94 12.53C14.93 12.5 14.9 12.38 14.9 12.35C14.91 12.32 14.92 12.2 14.94 12.17C14.95 12.15 15.02 12.04 15.04 12.02C15.06 12 15.16 11.93 15.19 11.92C15.22 11.91 15.34 11.88 15.37 11.88C15.4 11.88 15.52 11.9 15.55 11.91C15.58 11.93 15.68 11.99 15.71 12.02C15.72 12.04 15.8 12.14 15.81 12.17C15.81 12.2 15.84 12.32 15.84 12.35C15.84 12.38 15.82 12.5 15.81 12.53C15.79 12.56 15.73 12.66 15.71 12.68C15.68 12.7 15.58 12.77 15.55 12.79C15.53 12.8 15.4 12.82 15.37 12.82Z" fill="#74767B" fill-opacity="1.000000" fill-rule="evenodd"/>
	</g>
</svg>
