<svg width="24.000000" height="24.000000" viewBox="0 0 24 24" fill="none" xmlns="http://www.w3.org/2000/svg" xmlns:xlink="http://www.w3.org/1999/xlink">
	<desc>
			Created with Pixso.
	</desc>
	<defs>
		<clipPath id="clip8688_1332">
			<rect id="Solid / WhatsUp Solid" width="24.000000" height="24.000000" fill="white" fill-opacity="0"/>
		</clipPath>
	</defs>
	<g clip-path="url(#clip8688_1332)">
		<path id="Shape" d="M18.37 5.62C16.68 3.93 14.43 3 12.03 3C7.09 3 3.07 7.02 3.07 11.96C3.07 13.54 3.48 15.08 4.27 16.44L3 21.08L7.75 19.84C9.06 20.55 10.53 20.93 12.03 20.93C16.97 20.93 20.99 16.91 21 11.96C21 9.57 20.06 7.32 18.37 5.62ZM12.03 19.41C10.7 19.41 9.38 19.05 8.24 18.37L7.97 18.21L5.15 18.95L5.9 16.2L5.72 15.92C4.98 14.74 4.58 13.36 4.58 11.96C4.59 7.85 7.93 4.51 12.04 4.51C14.03 4.51 15.9 5.29 17.3 6.69C18.71 8.1 19.48 9.97 19.48 11.96C19.48 16.07 16.14 19.41 12.03 19.41ZM16.12 13.83C15.89 13.72 14.79 13.18 14.59 13.11C14.38 13.03 14.23 12.99 14.08 13.22C13.94 13.44 13.51 13.95 13.38 14.1C13.25 14.25 13.11 14.26 12.89 14.15C12.67 14.04 11.95 13.8 11.09 13.04C10.42 12.45 9.97 11.71 9.84 11.49C9.71 11.26 9.83 11.14 9.94 11.03C10.04 10.93 10.17 10.77 10.28 10.64C10.39 10.51 10.43 10.42 10.5 10.27C10.58 10.12 10.54 9.99 10.48 9.87C10.43 9.76 9.98 8.66 9.79 8.21C9.61 7.77 9.43 7.83 9.29 7.83C9.16 7.82 9.01 7.82 8.86 7.82C8.71 7.82 8.47 7.87 8.26 8.1C8.06 8.32 7.48 8.87 7.48 9.97C7.48 11.07 8.28 12.13 8.39 12.28C8.51 12.43 9.97 14.7 12.22 15.67C12.75 15.9 13.17 16.03 13.5 16.14C14.03 16.31 14.52 16.28 14.91 16.23C15.34 16.16 16.23 15.68 16.42 15.16C16.6 14.64 16.6 14.19 16.55 14.1C16.49 14 16.34 13.95 16.12 13.83Z" fill="#74767B" fill-opacity="1.000000" fill-rule="evenodd"/>
	</g>
</svg>
