<svg width="24.000000" height="24.000000" viewBox="0 0 24 24" fill="none" xmlns="http://www.w3.org/2000/svg" xmlns:xlink="http://www.w3.org/1999/xlink">
	<desc>
			Created with Pixso.
	</desc>
	<defs>
		<clipPath id="clip8688_1331">
			<rect id="Solid / WhatsUp Round Solid" width="24.000000" height="24.000000" fill="white" fill-opacity="0"/>
		</clipPath>
	</defs>
	<g clip-path="url(#clip8688_1331)">
		<path id="Shape" d="M12 3C7.02 3 3 7.02 3 12C3 16.97 7.02 21 12 21C16.97 21 21 16.97 21 12C21 7.02 16.97 3 12 3ZM12.02 6.5C13.48 6.5 14.86 7.07 15.89 8.1C16.93 9.14 17.5 10.51 17.5 11.98C17.49 15 15.03 17.45 12.02 17.45C11.1 17.45 10.2 17.22 9.4 16.79L6.5 17.55L7.27 14.71C6.79 13.88 6.54 12.94 6.54 11.97C6.54 8.95 9 6.5 12.02 6.5ZM9.7 15.89C10.4 16.31 11.2 16.53 12.02 16.53C14.53 16.53 16.57 14.49 16.57 11.98C16.57 10.76 16.1 9.62 15.24 8.76C14.38 7.89 13.24 7.42 12.02 7.42C9.51 7.42 7.47 9.46 7.47 11.97C7.47 12.83 7.71 13.67 8.16 14.39L8.27 14.57L7.81 16.25L9.53 15.79L9.7 15.89ZM13.58 12.67C13.71 12.72 14.38 13.05 14.52 13.12C14.65 13.19 14.74 13.22 14.78 13.28C14.81 13.34 14.81 13.61 14.7 13.93C14.58 14.25 14.04 14.54 13.77 14.58C13.54 14.62 13.24 14.63 12.91 14.53C12.71 14.46 12.46 14.38 12.13 14.24C10.76 13.65 9.86 12.26 9.79 12.17C9.73 12.08 9.23 11.43 9.23 10.76C9.23 10.08 9.59 9.75 9.71 9.61C9.84 9.48 9.99 9.44 10.08 9.44C10.17 9.44 10.26 9.44 10.34 9.45C10.42 9.45 10.55 9.45 10.65 9.68C10.76 9.96 11.04 10.63 11.07 10.7C11.11 10.77 11.13 10.85 11.08 10.94C11.04 11.03 11.01 11.09 10.95 11.17C10.88 11.25 10.8 11.35 10.74 11.41C10.67 11.47 10.6 11.55 10.68 11.69C10.76 11.82 11.03 12.27 11.44 12.63C11.96 13.1 12.41 13.24 12.54 13.31C12.68 13.38 12.76 13.37 12.84 13.28C12.92 13.19 13.18 12.88 13.27 12.74C13.36 12.61 13.45 12.63 13.58 12.67Z" fill="#74767B" fill-opacity="1.000000" fill-rule="evenodd"/>
	</g>
</svg>
