<svg width="24.000000" height="24.000000" viewBox="0 0 24 24" fill="none" xmlns="http://www.w3.org/2000/svg" xmlns:xlink="http://www.w3.org/1999/xlink">
	<g>
		<rect id="Solid / X Solid" width="24.000000" height="24.000000" fill="white" fill-opacity="0"/>
		<path id="Shape" d="M12 3C7.02 3 3 7.02 3 12C3 16.97 7.02 21 12 21C16.97 21 21 16.97 21 12C21 7.02 16.97 3 12 3ZM16.67 7L12.95 11.23L17 17L14.02 17L11.29 13.11L7.88 17L7 17L10.9 12.55L7 7L9.97 7L12.55 10.67L15.79 7L16.67 7ZM11.34 12.05L11.74 12.6L14.43 16.37L15.79 16.37L12.49 11.75L12.09 11.2L9.55 7.64L8.2 7.64L11.34 12.05Z" fill="#74767B" fill-opacity="1.000000" fill-rule="evenodd"/>
	</g>
</svg>
