<svg width="24.000000" height="24.000000" viewBox="0 0 24 24" fill="none" xmlns="http://www.w3.org/2000/svg" xmlns:xlink="http://www.w3.org/1999/xlink">
	<g>
		<rect id="Solid / YouTube Round Solid" width="24.000000" height="24.000000" fill="white" fill-opacity="0"/>
		<path id="Shape" d="M12 3C7.02 3 3 7.02 3 12C3 16.97 7.02 21 12 21C16.97 21 21 16.97 21 12C21 7.02 16.97 3 12 3ZM16.29 8.37C16.77 8.5 17.14 8.87 17.27 9.35C17.5 10.2 17.5 11.99 17.5 11.99C17.5 11.99 17.5 13.79 17.27 14.64C17.14 15.12 16.77 15.49 16.29 15.62C15.44 15.84 12 15.84 12 15.84C12 15.84 8.56 15.84 7.7 15.62C7.22 15.49 6.85 15.12 6.72 14.64C6.5 13.79 6.5 11.99 6.5 11.99C6.5 11.99 6.5 10.2 6.72 9.35C6.85 8.87 7.22 8.5 7.7 8.37C8.56 8.15 12 8.15 12 8.15C12 8.15 15.44 8.15 16.29 8.37ZM10.9 13.65L13.75 11.99L10.9 10.34L10.9 13.65Z" fill="#74767B" fill-opacity="1.000000" fill-rule="evenodd"/>
	</g>
</svg>
