<svg width="40.000000" height="40.000000" viewBox="0 0 40 40" fill="none" xmlns="http://www.w3.org/2000/svg" xmlns:xlink="http://www.w3.org/1999/xlink">
	<desc>
			Created with Pixso.
	</desc>
	<defs/>
		<path id="BG" d="M1 12.4C1 10.15 1 9.03 1.43 8.18C1.81 7.43 2.43 6.81 3.18 6.43C4.03 6 5.15 6 7.4 6L32.59 6C34.84 6 35.96 6 36.81 6.43C37.56 6.81 38.18 7.43 38.56 8.18C39 9.03 39 10.15 39 12.4L39 27.6C39 29.84 39 30.96 38.56 31.81C38.18 32.56 37.56 33.18 36.81 33.56C35.96 34 34.84 34 32.59 34L7.4 34C5.15 34 4.03 34 3.18 33.56C2.43 33.18 1.81 32.56 1.43 31.81C1 30.96 1 29.84 1 27.6L1 12.4Z" fill="#F4F5F6" fill-opacity="1.000000" fill-rule="nonzero"/>
		<path id="Shape" d="M16.16 23.3C15.62 23.85 14.95 24.18 14.3 24.18C12.94 24.18 11.96 23.16 11.96 21.76C11.96 20.36 12.94 19.34 14.3 19.34C14.95 19.34 15.58 19.63 16.13 20.19L17.03 19.17C16.31 18.31 15.41 17.86 14.34 17.86C13.27 17.86 12.29 18.23 11.58 18.88C10.81 19.58 10.41 20.58 10.41 21.76C10.41 22.94 10.81 23.93 11.58 24.64C12.29 25.29 13.27 25.65 14.34 25.65C15.41 25.65 16.28 25.24 17.01 24.38L16.16 23.3Z" fill="#003B70" fill-opacity="1.000000" fill-rule="nonzero"/>
		<path id="Shape" d="M17.91 25.51L19.46 25.51L19.46 17.99L17.91 17.99L17.91 25.51Z" fill="#003B70" fill-opacity="1.000000" fill-rule="nonzero"/>
		<path id="Shape" d="M25.49 23.87C25.08 24.13 24.7 24.25 24.35 24.25C23.86 24.25 23.63 23.99 23.63 23.4L23.63 19.41L25.2 19.41L25.2 17.99L23.63 17.99L23.63 15.65L22.12 16.46L22.12 17.99L20.82 17.99L20.82 19.41L22.12 19.41L22.12 23.66C22.12 24.81 22.81 25.61 23.83 25.63C24.52 25.64 24.94 25.43 25.2 25.28L25.49 23.87Z" fill="#003B70" fill-opacity="1.000000" fill-rule="nonzero"/>
		<path id="Shape" d="M26.77 25.51L28.31 25.51L28.31 17.99L26.77 17.99L26.77 25.51Z" fill="#003B70" fill-opacity="1.000000" fill-rule="nonzero"/>
		<path id="Shape" d="M29.23 16.65C27.82 14.65 25.48 13.46 23.1 13.46C20.71 13.46 18.37 14.65 16.96 16.65L16.89 16.76L18.67 16.76C19.87 15.51 21.47 14.83 23.1 14.83C24.72 14.83 26.3 15.49 27.51 16.73L29.31 16.76L29.23 16.65Z" fill="#D9261C" fill-opacity="1.000000" fill-rule="evenodd"/>
</svg>
