<svg viewBox="0 0 40 40" xmlns="http://www.w3.org/2000/svg" xmlns:xlink="http://www.w3.org/1999/xlink" width="40.000000" height="40.000000" fill="none">
	<rect id="Citibank" width="40.000000" height="40.000000" x="0.000000" y="0.000000" />
	<path id="BG" d="M1 12.4C1 10.1598 1 9.03969 1.43597 8.18404C1.81947 7.43139 2.43139 6.81947 3.18404 6.43597C4.03969 6 5.15979 6 7.4 6L32.6 6C34.8402 6 35.9603 6 36.816 6.43597C37.5686 6.81947 38.1805 7.43139 38.564 8.18404C39 9.03969 39 10.1598 39 12.4L39 27.6C39 29.8402 39 30.9603 38.564 31.816C38.1805 32.5686 37.5686 33.1805 36.816 33.564C35.9603 34 34.8402 34 32.6 34L7.4 34C5.15979 34 4.03969 34 3.18404 33.564C2.43139 33.1805 1.81947 32.5686 1.43597 31.816C1 30.9603 1 29.8402 1 27.6L1 12.4Z" fill="rgb(244,245,246)" fill-rule="nonzero" />
	<path id="Shape" d="M16.165 23.3027C15.6201 23.8579 14.9557 24.1848 14.3058 24.1848C12.9491 24.1848 11.9645 23.1672 11.9645 21.7631C11.9645 20.3615 12.9491 19.3423 14.3058 19.3423C14.9557 19.3423 15.5863 19.6378 16.1312 20.1945L17.0375 19.1732C16.3119 18.3159 15.4181 17.8699 14.3479 17.8699C13.2739 17.8699 12.2922 18.2313 11.5847 18.8831C10.8159 19.5889 10.4102 20.5844 10.4102 21.7631C10.4102 22.9412 10.8159 23.939 11.5847 24.6451C12.2922 25.2999 13.2739 25.6594 14.3479 25.6594C15.4181 25.6594 16.2886 25.2422 17.0142 24.3845L16.165 23.3027Z" fill="rgb(0,59,112)" fill-rule="nonzero" />
	<path id="Shape" d="M17.9191 25.5158L19.4603 25.5158L19.4603 17.9922L17.9191 17.9922L17.9191 25.5158Z" fill="rgb(0,59,112)" fill-rule="nonzero" />
	<path id="Shape" d="M17.9191 25.5158L19.4603 25.5158L19.4603 17.9922L17.9191 17.9922L17.9191 25.5158Z" fill="rgb(0,59,112)" fill-rule="nonzero" />
	<path id="Shape" d="M25.4973 23.8799C25.0862 24.1303 24.7034 24.2561 24.3599 24.2561C23.8619 24.2561 23.6368 23.9933 23.6368 23.4079L23.6368 19.4159L25.2065 19.4159L25.2065 17.9991L23.6368 17.9991L23.6368 15.6581L22.1262 16.4665L22.1262 17.9991L20.8231 17.9991L20.8231 19.4159L22.1262 19.4159L22.1262 23.6626C22.1262 24.8196 22.8116 25.61 23.8347 25.6306C24.5294 25.6442 24.9481 25.4372 25.2025 25.286L25.4973 23.8799Z" fill="rgb(0,59,112)" fill-rule="nonzero" />
	<path id="Shape" d="M25.4973 23.8799C25.0862 24.1303 24.7034 24.2561 24.3599 24.2561C23.8619 24.2561 23.6368 23.9933 23.6368 23.4079L23.6368 19.4159L25.2065 19.4159L25.2065 17.9991L23.6368 17.9991L23.6368 15.6581L22.1262 16.4665L22.1262 17.9991L20.8231 17.9991L20.8231 19.4159L22.1262 19.4159L22.1262 23.6626C22.1262 24.8196 22.8116 25.61 23.8347 25.6306C24.5294 25.6442 24.9481 25.4372 25.2025 25.286L25.4973 23.8799Z" fill="rgb(0,59,112)" fill-rule="nonzero" />
	<path id="Shape" d="M26.7738 25.5158L28.316 25.5158L28.316 17.9922L26.7738 17.9922L26.7738 25.5158Z" fill="rgb(0,59,112)" fill-rule="nonzero" />
	<path id="Shape" d="M26.7738 25.5158L28.316 25.5158L28.316 17.9922L26.7738 17.9922L26.7738 25.5158Z" fill="rgb(0,59,112)" fill-rule="nonzero" />
	<path id="Shape" d="M29.2391 16.6573C27.8284 14.6589 25.4854 13.4667 23.1016 13.4667C20.7188 13.4667 18.3754 14.6589 16.9668 16.6573L16.8947 16.7601L18.671 16.7601C19.88 15.5121 21.4781 14.8309 23.1016 14.8309C24.7252 14.8309 26.3032 15.4908 27.5146 16.7388L29.3103 16.7601L29.2391 16.6573Z" fill="rgb(0,59,112)" fill-rule="evenodd" />
	<path id="Shape" d="M29.2391 16.6573C27.8284 14.6589 25.4854 13.4667 23.1016 13.4667C20.7188 13.4667 18.3754 14.6589 16.9668 16.6573L16.8947 16.7601L18.671 16.7601C19.88 15.5121 21.4781 14.8309 23.1016 14.8309C24.7252 14.8309 26.3032 15.4908 27.5146 16.7388L29.3103 16.7601L29.2391 16.6573Z" fill="rgb(217,38,28)" fill-rule="evenodd" />
</svg>
