<svg width="40.000000" height="40.000000" viewBox="0 0 40 40" fill="none" xmlns="http://www.w3.org/2000/svg" xmlns:xlink="http://www.w3.org/1999/xlink">
	<g>
    <rect id="Credit Moskow Bank" width="40.000000" height="40.000000" fill="white" fill-opacity="0"/>
		<path id="BG" d="M1 12.4C1 10.15 1 9.03 1.43 8.18C1.81 7.43 2.43 6.81 3.18 6.43C4.03 6 5.15 6 7.4 6L32.59 6C34.84 6 35.96 6 36.81 6.43C37.56 6.81 38.18 7.43 38.56 8.18C39 9.03 39 10.15 39 12.4L39 27.6C39 29.84 39 30.96 38.56 31.81C38.18 32.56 37.56 33.18 36.81 33.56C35.96 34 34.84 34 32.59 34L7.4 34C5.15 34 4.03 34 3.18 33.56C2.43 33.18 1.81 32.56 1.43 31.81C1 30.96 1 29.84 1 27.6L1 12.4Z" fill="#BB0032" fill-opacity="1.000000" fill-rule="nonzero"/>
		<path id="Shape" d="M16.65 21.3L21.45 16.5L29.93 16.5L26.54 19.9L22.85 19.9L16.7 26.1L9.5 18.9L11.85 16.5L16.65 16.5L14.25 18.9L16.65 21.3ZM18.37 25.32L17.69 26L22.51 26L24.53 23.97L26.53 23.97L29.94 20.57L23.12 20.57L18.37 25.32Z" fill="#FFFFFF" fill-opacity="1.000000" fill-rule="evenodd"/>
	</g>
</svg>
