<svg width="40.000000" height="40.000000" viewBox="0 0 40 40" fill="none" xmlns="http://www.w3.org/2000/svg" xmlns:xlink="http://www.w3.org/1999/xlink">
	<desc>
			Created with Pixso.
	</desc>
	<defs>
		<clipPath id="clip8782_1441">
			<rect id="Gazprombank" width="40.000000" height="40.000000" fill="white" fill-opacity="0"/>
		</clipPath>
		<linearGradient x1="20.000000" y1="6.000000" x2="20.000000" y2="34.000000" id="paint_linear_8782_1366_0" gradientUnits="userSpaceOnUse">
			<stop stop-color="#2571EB"/>
			<stop offset="1.000000" stop-color="#0026B2"/>
		</linearGradient>
	</defs>
	<g clip-path="url(#clip8782_1441)">
		<path id="BG" d="M1 10C1 7.79 2.79 6 5 6L35 6C37.2 6 39 7.79 39 10L39 30C39 32.2 37.2 34 35 34L5 34C2.79 34 1 32.2 1 30L1 10Z" fill="url(#paint_linear_8782_1366_0)" fill-opacity="1.000000" fill-rule="nonzero"/>
		<path id="Shape" d="M28 18.68C27.89 18.77 27.79 18.84 27.69 18.93C26.99 19.46 25.88 19.89 24.36 20.29C21.2 21.15 18.91 21.27 16.31 21.9C15.8 22.03 15.27 22.2 14.78 22.4C15.27 22.66 15.8 22.88 16.33 23.08C17.39 22.77 17.9 22.64 19.43 22.39C20.02 22.28 21.82 21.96 23.12 21.7C25.47 21.19 28.91 20.1 28 18.68ZM26.48 15.73C25.97 15.51 25.35 15.29 24.69 15.11C24.39 15.35 24.05 15.55 23.55 15.75C24.38 15.89 25 16.13 25.71 16.32C25.82 16.38 26.38 15.86 26.48 15.73ZM14.97 18.87C18.04 17.97 21.26 17.69 24.53 16.82C23.26 16.48 22.55 16.33 21.2 16.5C19.25 16.73 17.1 17.15 15.25 17.69C14.53 17.92 10.73 18.99 11.83 20.5C11.83 20.51 12.47 19.6 14.97 18.87ZM12.86 24.04C12.84 24.32 13.02 24.57 13.39 24.89C13.44 24.74 13.51 24.62 13.61 24.47C13.36 24.34 13.11 24.21 12.86 24.04ZM14.29 23.91C14.53 23.76 14.81 23.63 15.12 23.51C14.69 23.32 14.23 23.13 13.79 22.92C13.58 23.05 13.39 23.19 13.24 23.32C13.6 23.53 13.94 23.72 14.29 23.91ZM26.09 17.38C25.47 17.68 24.59 17.97 23.32 18.28C22.27 18.55 19.73 18.92 17 19.51C16.14 19.7 13.79 20.25 12.64 21.22C12.96 21.49 13.17 21.55 13.52 21.75C14 21.44 14.65 21.15 15.61 20.9C17.27 20.45 18.53 20.26 20.04 20.01C21.53 19.79 24.35 19.2 25.9 18.64C26.42 18.46 26.89 18.23 27.23 17.94C27.12 17.83 26.12 17.34 26.09 17.38ZM26.99 16.84C27.3 16.98 27.58 17.09 27.85 17.28C28.04 16.91 27.92 16.67 27.52 16.33C27.36 16.53 27.18 16.69 26.99 16.84ZM12.71 22.37C12.43 22.23 12.25 22.11 12.02 21.96C11.9 22.23 12.14 22.52 12.37 22.66C12.47 22.55 12.61 22.46 12.71 22.37ZM25.76 13.9C25.71 14.11 25.49 14.36 25.34 14.52C25.8 14.64 26.27 14.81 26.71 14.98C26.65 14.56 26.18 14.16 25.76 13.9ZM11.32 16.51C14.54 14.41 18.1 13.18 24.13 14.22C24.45 14.03 24.64 13.84 24.73 13.46C23.23 12.91 21.59 12.72 19.48 12.75C17.58 12.81 14.17 13.51 12.34 14.59L12.9 13.9C14.17 13.14 17.5 12.16 19.99 12.11C21.75 12.07 22.65 12.17 24.75 12.73C24.55 12.38 24.13 12.2 23.49 11.91C21.47 11 17.7 10.91 14.62 12.29C15 12.02 15.38 11.79 15.89 11.57C16.9 11.09 18.57 10.63 20.66 10.68C22.33 10.71 24.31 11.28 25.52 12.48C25.72 12.73 25.84 12.98 25.88 13.18C26.84 13.66 27.4 14.12 27.71 14.65C27.85 14.93 27.89 15.23 27.83 15.57C28.23 15.8 28.42 16.01 28.63 16.28C28.76 16.5 28.87 16.75 28.9 16.97C28.94 17.27 28.97 17.61 28.66 18C28.98 18.17 29.25 18.62 29.28 18.82C29.44 19.54 28.97 20.25 28.37 20.8C27.66 21.41 26.09 22.15 24.82 22.48C22.31 23.11 20.08 23.38 18.31 23.7C19.11 23.9 20.18 24.15 21.94 24.15C25.71 24.15 29.03 22.37 29.03 22.37C29.03 22.37 28.96 22.6 28.88 22.81C26.49 24.25 22.7 24.86 21.07 24.78C19.43 24.71 18.04 24.46 16.68 24.04C16.27 24.16 15.86 24.3 15.46 24.46C17.53 25.4 19.09 25.61 20.85 25.74C22.65 25.88 25.63 25.45 28.14 24.53C28.03 24.65 27.97 24.83 27.85 24.93C26.56 25.61 23.85 26.29 22.47 26.35C21.11 26.41 19.46 26.35 18.01 26.08C16.77 25.83 15.75 25.45 14.69 24.98C14.5 25.12 14.41 25.3 14.37 25.51C18.52 27.68 22.38 27.72 26.8 26.35L26.4 26.73C21.54 28.71 17.75 27.94 14.81 26.53C14.71 26.48 14.59 26.44 14.5 26.38C14.78 26.85 17.02 28.49 19.53 28.7C21.26 28.84 23.37 28.55 24.63 28.05L23.89 28.43C23.29 28.73 21.68 29.41 19.43 29.26C16.43 29.05 14.75 27.72 14 27.03C13.64 26.7 13.48 26.33 13.38 25.88C12.7 25.52 12.27 25.15 11.92 24.59C11.71 24.28 11.75 23.91 11.8 23.6L11.89 23.34C11.56 23.1 11.22 22.85 11.09 22.6C10.79 22.07 10.97 21.61 11.18 21.25C11 21.05 10.84 20.84 10.76 20.63C10.68 20.4 10.66 20.16 10.69 19.89C10.75 19.45 10.99 19.04 11.3 18.68C11.94 17.93 12.98 17.34 14.74 16.76C16.46 16.19 17.16 16.1 18.46 15.8C19.98 15.45 21.79 15.33 23.32 14.8C19.08 14.06 14.68 14.74 11.09 17.21L11.32 16.51Z" fill="#FFFFFF" fill-opacity="1.000000" fill-rule="evenodd"/>
	</g>
</svg>
