<svg viewBox="0 0 40 40" xmlns="http://www.w3.org/2000/svg" xmlns:xlink="http://www.w3.org/1999/xlink" width="40.000000" height="40.000000" fill="none">
	<rect id="Ipoteka Bank" width="40.000000" height="40.000000" x="0.000000" y="0.000000" />
	<path id="BG" d="M1 12.4C1 10.1598 1 9.03969 1.43597 8.18404C1.81947 7.43139 2.43139 6.81947 3.18404 6.43597C4.03969 6 5.15979 6 7.4 6L32.6 6C34.8402 6 35.9603 6 36.816 6.43597C37.5686 6.81947 38.1805 7.43139 38.564 8.18404C39 9.03969 39 10.1598 39 12.4L39 27.6C39 29.8402 39 30.9603 38.564 31.816C38.1805 32.5686 37.5686 33.1805 36.816 33.564C35.9603 34 34.8402 34 32.6 34L7.4 34C5.15979 34 4.03969 34 3.18404 33.564C2.43139 33.1805 1.81947 32.5686 1.43597 31.816C1 30.9603 1 29.8402 1 27.6L1 12.4Z" fill="rgb(244,245,246)" fill-rule="nonzero" />
	<path id="Shape" d="M12.2771 16.7182C11.8563 17.7231 11.6402 18.8 11.6412 19.8874L11.6037 19.8652C11.5702 20.9739 11.7625 22.0779 12.1694 23.1118C12.5762 24.1458 13.1893 25.0886 13.9723 25.8845C14.7553 26.6804 15.6922 27.3132 16.7276 27.7453C17.763 28.1773 18.8758 28.4 20 28.4C21.1242 28.4 22.237 28.1773 23.2724 27.7453C24.3077 27.3132 25.2447 26.6804 26.0277 25.8845C26.8107 25.0886 27.4237 24.1458 27.8306 23.1118C28.2374 22.0779 28.4298 20.9739 28.3962 19.8652L25.4016 19.8652C25.406 20.9133 25.0952 21.9391 24.5084 22.8127C23.9216 23.6864 23.0852 24.3686 22.1052 24.7731C21.1252 25.1775 20.0456 25.286 19.003 25.0848C17.9605 24.8835 17.0019 24.3816 16.2486 23.6426C15.4954 22.9036 14.9813 21.9607 14.7715 20.9332C14.5617 19.9058 14.6656 18.8401 15.0701 17.871C15.4746 16.9018 16.1614 16.0729 17.0436 15.4891C17.9259 14.9053 18.9639 14.5929 20.0262 14.5914L20.0262 11.6C18.9241 11.6009 17.8329 11.8161 16.8151 12.2331C15.7972 12.6501 14.8726 13.2608 14.094 14.0304C13.3153 14.7999 12.698 15.7132 12.2771 16.7182ZM23.0023 14.0591C22.767 14.4043 22.6406 14.8106 22.6391 15.2266C22.6391 15.7856 22.8636 16.3218 23.2636 16.7177C23.6635 17.1137 24.2062 17.3371 24.7728 17.3391C25.1945 17.3391 25.6067 17.2158 25.9574 16.9848C26.3081 16.7538 26.5816 16.4255 26.7433 16.0413C26.905 15.657 26.9477 15.2342 26.866 14.826C26.7843 14.4179 26.5818 14.0428 26.2842 13.7481C25.9865 13.4534 25.607 13.2523 25.1936 13.1703C24.7802 13.0882 24.3514 13.1288 23.9614 13.287C23.5714 13.4452 23.2377 13.7139 23.0023 14.0591ZM16.3278 19.8874C16.3278 19.1569 16.5474 18.4429 16.9587 17.8356C17.37 17.2282 17.9546 16.7549 18.6386 16.4754C19.3226 16.1958 20.0753 16.1227 20.8014 16.2652C21.5276 16.4077 22.1946 16.7594 22.7181 17.2759C23.2416 17.7924 23.5981 18.4505 23.7425 19.1669C23.887 19.8833 23.8128 20.6258 23.5295 21.3007C23.2462 21.9755 22.7664 22.5523 22.1508 22.9581C21.5352 23.3639 20.8115 23.5805 20.0712 23.5805C19.0784 23.5805 18.1262 23.1914 17.4242 22.4988C16.7222 21.8062 16.3278 20.8668 16.3278 19.8874Z" fill="rgb(106,172,69)" fill-rule="evenodd" />
</svg>
