<svg width="40.000000" height="40.000000" viewBox="0 0 40 40" fill="none" xmlns="http://www.w3.org/2000/svg" xmlns:xlink="http://www.w3.org/1999/xlink">
	<g>
		<rect id="Ozon" width="40.000000" height="40.000000" fill="white" fill-opacity="0"/>
		<path id="BG" d="M1 12.4C1 10.15 1 9.03 1.43 8.18C1.81 7.43 2.43 6.81 3.18 6.43C4.03 6 5.15 6 7.4 6L32.59 6C34.84 6 35.96 6 36.81 6.43C37.56 6.81 38.18 7.43 38.56 8.18C39 9.03 39 10.15 39 12.4L39 27.6C39 29.84 39 30.96 38.56 31.81C38.18 32.56 37.56 33.18 36.81 33.56C35.96 34 34.84 34 32.59 34L7.4 34C5.15 34 4.03 34 3.18 33.56C2.43 33.18 1.81 32.56 1.43 31.81C1 30.96 1 29.84 1 27.6L1 12.4Z" fill="#005BFF" fill-opacity="1.000000" fill-rule="nonzero"/>
		<path id="Shape" d="M14.9 15C14.9 16.76 13.63 18 11.91 18C10.19 18 8.92 16.76 8.92 15C8.92 13.23 10.19 12 11.91 12C13.63 12 14.9 13.23 14.9 15ZM23.23 18C24.94 18 26.22 16.76 26.22 15C26.22 13.23 24.94 12 23.23 12C21.51 12 20.24 13.23 20.24 15C20.24 16.76 21.51 18 23.23 18ZM32.07 17.81L32.07 14.34C32.07 12.68 31.2 12 30.04 12C29.24 12 28.61 12.39 28.25 13.03L28.25 12.18L26.84 12.18L26.84 17.81L28.26 17.81L28.26 15.06C28.26 13.84 28.79 13.39 29.52 13.39C30.22 13.39 30.63 13.78 30.63 14.69L30.63 17.81L32.07 17.81ZM19.92 16.5L19.92 17.81L15.22 17.81L15.22 16.61L17.96 13.5L15.23 13.49L15.23 12.18L19.72 12.18L19.72 13.37L16.95 16.5L19.92 16.5ZM11.91 16.58C11.03 16.58 10.39 15.96 10.39 15C10.39 14.03 11.04 13.41 11.91 13.41C12.79 13.41 13.42 14.03 13.42 15C13.42 15.96 12.79 16.58 11.91 16.58ZM21.71 15C21.71 15.96 22.35 16.58 23.23 16.58C24.1 16.58 24.73 15.96 24.73 15C24.73 14.03 24.1 13.41 23.23 13.41C22.35 13.41 21.71 14.03 21.71 15ZM11.38 22.11C11.19 22.11 11.01 22.13 10.83 22.16C10.34 22.2 9.84 22.6 9.61 22.8L9.43 23.02C9.43 23.02 9.38 21.92 10.49 21.52C10.55 21.5 10.62 21.47 10.69 21.45C10.69 21.45 11.09 21.27 12.04 21.27C12.4 21.27 12.79 21.26 13.14 21.26L13.49 21.27L13.72 21.27L13.72 20L12.24 20C10.97 20.02 10.27 20.24 10.2 20.26C9.9 20.37 9.6 20.49 9.38 20.63C9.14 20.78 8.93 20.98 8.76 21.22C8.57 21.47 8.42 21.76 8.3 22.08C8.23 22.31 8.18 22.53 8.13 22.74C8.07 23.1 8.01 23.53 8 23.83L8 23.94C8 24.03 8 24.12 8 24.2C7.99 24.37 8 24.53 8.01 24.68C8.02 25 8.05 25.29 8.1 25.54C8.14 25.74 8.2 25.95 8.25 26.1C8.31 26.27 8.37 26.41 8.41 26.51C8.46 26.62 8.5 26.69 8.52 26.72C9.08 27.63 9.99 28 10.98 28C12.83 28 13.95 26.76 13.95 24.98C13.95 23.24 12.9 22.11 11.38 22.11ZM18.86 22.71L18.86 22.2L20.27 22.2L20.27 27.81L18.86 27.81L18.86 27.02C18.53 27.61 17.93 27.99 17.06 27.99C15.67 27.99 14.5 26.92 14.5 25C14.5 23.08 15.67 22.01 17.06 22.01L17.16 22.02L17.3 22.02C17.3 22.02 18.19 22.02 18.86 22.71ZM26.61 22.2L26.61 27.81L25.19 27.81L25.19 25.58L22.84 25.58L22.84 27.81L21.44 27.81L21.44 22.2L22.84 22.2L22.84 24.21L25.19 24.21L25.19 22.2L26.61 22.2ZM31.15 27.81L29.15 25.13L29.15 27.81L27.74 27.81L27.74 22.2L29.15 22.2L29.15 24.52L30.91 22.2L32.71 22.2L30.52 24.75L33 27.81L31.15 27.81ZM15.98 25C15.98 25.95 16.57 26.58 17.42 26.58C18.28 26.58 18.86 25.95 18.86 25C18.86 24.06 18.28 23.42 17.42 23.42C16.57 23.42 15.98 24.06 15.98 25ZM10.97 26.58C10.15 26.58 9.48 25.99 9.48 25C9.48 24.02 10.15 23.42 10.97 23.42C11.8 23.42 12.47 24.02 12.47 25C12.47 25.99 11.8 26.58 10.97 26.58Z" fill="#FFFFFF" fill-opacity="1.000000" fill-rule="evenodd"/>
	</g>
</svg>
