<svg width="40.000000" height="40.000000" viewBox="0 0 40 40" fill="none" xmlns="http://www.w3.org/2000/svg" xmlns:xlink="http://www.w3.org/1999/xlink">
	<g>
		<rect id="Qiwi" width="40.000000" height="40.000000" fill="white" fill-opacity="0"/>
		<path id="BG" d="M1 12.4C1 10.15 1 9.03 1.43 8.18C1.81 7.43 2.43 6.81 3.18 6.43C4.03 6 5.15 6 7.4 6L32.59 6C34.84 6 35.96 6 36.81 6.43C37.56 6.81 38.18 7.43 38.56 8.18C39 9.03 39 10.15 39 12.4L39 27.6C39 29.84 39 30.96 38.56 31.81C38.18 32.56 37.56 33.18 36.81 33.56C35.96 34 34.84 34 32.59 34L7.4 34C5.15 34 4.03 34 3.18 33.56C2.43 33.18 1.81 32.56 1.43 31.81C1 30.96 1 29.84 1 27.6L1 12.4Z" fill="#FF8C00" fill-opacity="1.000000" fill-rule="nonzero"/>
		<path id="Shape" d="M25.49 22.89C25.75 23.02 25.85 23.52 25.87 23.74C25.91 24.14 25.82 24.29 25.72 24.29C25.62 24.29 25.48 24.14 25.33 23.83C25.18 23.52 25.12 23.17 25.2 22.99C25.25 22.87 25.36 22.82 25.49 22.89ZM24.22 24.29C24.4 24.29 24.61 24.38 24.8 24.55C25.16 24.87 25.26 25.23 25.08 25.5C24.97 25.64 24.8 25.72 24.6 25.72C24.4 25.72 24.19 25.65 24.05 25.51C23.73 25.22 23.64 24.73 23.84 24.46C23.93 24.35 24.05 24.29 24.22 24.29ZM20.24 27.4C16.24 27.4 13 23.98 13 19.76C13 15.54 16.24 12.12 20.24 12.12C24.23 12.12 27.48 15.54 27.48 19.76C27.48 21.19 27.1 22.54 26.46 23.68C26.2 21.81 25.03 20.75 23.46 20.44C23.32 20.42 23.3 20.33 23.48 20.31C23.96 20.26 24.64 20.27 25 20.34C25.02 20.15 25.03 19.95 25.03 19.75C25.03 16.96 22.89 14.7 20.25 14.7C17.6 14.7 15.46 16.96 15.46 19.75C15.46 22.54 17.6 24.8 20.25 24.8L20.47 24.8C20.39 24.35 20.36 23.9 20.37 23.44C20.38 23.13 20.45 23.08 20.57 23.33C21.24 24.54 22.18 25.63 24.03 26.06C25.55 26.41 27.07 26.82 28.7 29.01C28.84 29.2 28.62 29.4 28.45 29.25C26.79 27.69 25.28 27.18 23.9 27.18C22.35 27.19 21.3 27.4 20.24 27.4Z" fill="#FFFFFF" fill-opacity="1.000000" fill-rule="nonzero"/>
	</g>
</svg>
