<svg width="40.000000" height="40.000000" viewBox="0 0 40 40" fill="none" xmlns="http://www.w3.org/2000/svg" xmlns:xlink="http://www.w3.org/1999/xlink">
	<desc>
			Created with Pixso.
	</desc>
	<defs/>
	<rect id="BG" x="1.000000" y="7.000000" rx="4.000000" width="38.000000" height="27.444445" fill="#FFE600" fill-opacity="1.000000"/>
	<path id="Vector" d="M23.91 19.38L23.91 16.77L24.86 15.82L24.86 18.09L25.68 18.91L29 15.6L29.82 16.42C29.82 15.81 29.69 14.02 28.17 12.52C26.54 10.95 24.77 11.65 24.17 12.26L20.86 15.58L21.7 16.42L19.99 18.13L18.28 16.42L19.13 15.58L15.81 12.27C15.21 11.67 13.45 10.96 11.81 12.54C10.29 14.02 10.16 15.81 10.16 16.42L10.99 15.6L14.3 18.91L15.12 18.09L15.12 15.82L16.06 16.77L16.06 19.38L17.39 20.72L10.84 27.28L13.43 29.87L19.99 23.32L26.54 29.87L29.13 27.28L22.58 20.72L23.91 19.38Z" fill="#2B2D34" fill-opacity="1.000000" fill-rule="nonzero"/>
</svg>
