<svg width="40.000000" height="40.000000" viewBox="0 0 40 40" fill="none" xmlns="http://www.w3.org/2000/svg" xmlns:xlink="http://www.w3.org/1999/xlink">
	<desc>
			Created with Pixso.
	</desc>
	<defs/>
	<rect id="Sber" rx="-0.500000" width="39.000000" height="39.000000" transform="translate(0.500000 0.500000)" fill="#FFFFFF" fill-opacity="0"/>
	<rect id="BG" x="1.000000" y="7.000000" rx="4.000000" width="38.000000" height="27.444445" fill="#F0F2F5" fill-opacity="1.000000"/>
	<linearGradient x1="24.733778" y1="14.145216" x2="14.989628" y2="27.284658" id="paint_linear_103592_8560_0" gradientUnits="userSpaceOnUse">
		<stop stop-color="#0187C8"/>
		<stop offset="0.313300" stop-color="#08A652"/>
		<stop offset="0.723800" stop-color="#08A652"/>
		<stop offset="1.000000" stop-color="#FAEF23"/>
	</linearGradient>
	<path id="Vector" d="M19.79 11.6C22 11.6 24.04 12.38 25.62 13.67L24.04 14.94C22.84 14.08 21.38 13.56 19.79 13.56C15.8 13.56 12.56 16.8 12.56 20.8C12.56 24.79 15.8 28.03 19.79 28.03C23.79 28.03 27.03 24.79 27.03 20.8C27.03 20.7 27.03 20.61 27.03 20.52L28.87 19.19C28.95 19.71 29 20.25 29 20.8C29 25.87 24.87 30 19.79 30C14.72 30 10.6 25.87 10.6 20.8C10.6 15.72 14.72 11.6 19.79 11.6Z" fill="url(#paint_linear_103592_8560_0)" fill-opacity="1.000000" fill-rule="evenodd"/>
	<path id="Vector" d="M16.34 18.55L19.8 20.8L27.27 15.32L28.38 17.12L19.8 23.39L16.34 21.23L16.34 18.55Z" fill="#229E39" fill-opacity="1.000000" fill-rule="evenodd"/>
</svg>
