<svg width="40.000000" height="40.000000" viewBox="0 0 40 40" fill="none" xmlns="http://www.w3.org/2000/svg" xmlns:xlink="http://www.w3.org/1999/xlink">
	<desc>
			Created with Pixso.
	</desc>
	<defs/>
	<rect id="BG" x="1.000000" y="7.000000" rx="4.000000" width="38.000000" height="27.444445" fill="#F7F7F7" fill-opacity="1.000000"/>
	<path id="Vector" d="M11.36 14.88L13.82 19.23L13.82 21.88L11.36 26.22L11.36 14.88Z" fill="#5B57A2" fill-opacity="1.000000" fill-rule="evenodd"/>
	<path id="Vector" d="M20.79 17.65L23.09 16.25L27.8 16.25L20.79 20.5L20.79 17.65Z" fill="#D90751" fill-opacity="1.000000" fill-rule="evenodd"/>
	<path id="Vector" d="M20.78 14.86L20.79 20.61L18.33 19.12L18.33 10.51L20.78 14.86Z" fill="#FAB718" fill-opacity="1.000000" fill-rule="evenodd"/>
	<path id="Vector" d="M27.8 16.25L23.09 16.25L20.78 14.86L18.33 10.51L27.8 16.25Z" fill="#ED6F26" fill-opacity="1.000000" fill-rule="evenodd"/>
	<path id="Vector" d="M20.79 26.25L20.79 23.45L18.33 21.98L18.33 30.6L20.79 26.25Z" fill="#63B22F" fill-opacity="1.000000" fill-rule="evenodd"/>
	<path id="Vector" d="M23.09 24.86L13.82 19.23L11.36 14.88L27.79 24.86L23.09 24.86Z" fill="#1487C9" fill-opacity="1.000000" fill-rule="evenodd"/>
	<path id="Vector" d="M18.33 30.6L20.79 26.25L23.09 24.86L27.79 24.86L18.33 30.6Z" fill="#017F36" fill-opacity="1.000000" fill-rule="evenodd"/>
	<path id="Vector" d="M11.36 26.22L18.35 21.98L16 20.56L13.82 21.88L11.36 26.22Z" fill="#984995" fill-opacity="1.000000" fill-rule="evenodd"/>
</svg>
