<svg width="40.000000" height="40.000000" viewBox="0 0 40 40" fill="none" xmlns="http://www.w3.org/2000/svg" xmlns:xlink="http://www.w3.org/1999/xlink">
	<g>
		<rect id="T-Bank" width="40.000000" height="40.000000" fill="white" fill-opacity="0"/>
		<path id="BG" d="M1 12.4C1 10.15 1 9.03 1.43 8.18C1.81 7.43 2.43 6.81 3.18 6.43C4.03 6 5.15 6 7.4 6L32.59 6C34.84 6 35.96 6 36.81 6.43C37.56 6.81 38.18 7.43 38.56 8.18C39 9.03 39 10.15 39 12.4L39 27.6C39 29.84 39 30.96 38.56 31.81C38.18 32.56 37.56 33.18 36.81 33.56C35.96 34 34.84 34 32.59 34L7.4 34C5.15 34 4.03 34 3.18 33.56C2.43 33.18 1.81 32.56 1.43 31.81C1 30.96 1 29.84 1 27.6L1 12.4Z" fill="#FFDD2D" fill-opacity="1.000000" fill-rule="nonzero"/>
		<path id="Shape" d="M10 10L30 10L30 20.05C30 22.63 28.6 25.01 26.34 26.3L20 30L13.66 26.3C11.39 25.02 10 22.63 10 20.05L10 10Z" fill="#FFFFFF" fill-opacity="1.000000" fill-rule="nonzero"/>
		<path id="Shape" d="M15 14L15 17.79C15.47 17.21 16.32 16.81 17.29 16.81L18.35 16.81L18.35 21.22C18.35 22.4 18.07 23.42 17.64 24L22.35 24C21.92 23.42 21.66 22.4 21.66 21.22L21.66 16.81L22.7 16.81C23.67 16.81 24.53 17.21 25 17.79L25 14L15 14Z" fill="#333333" fill-opacity="1.000000" fill-rule="evenodd"/>
	</g>
</svg>
