<svg viewBox="0 0 40 40" xmlns="http://www.w3.org/2000/svg" xmlns:xlink="http://www.w3.org/1999/xlink" width="40.000000" height="40.000000" fill="none">
	<rect id="TKB Bank" width="40.000000" height="40.000000" x="0.000000" y="0.000000" />
	<path id="BG" d="M1 12.4C1 10.1598 1 9.03969 1.43597 8.18404C1.81947 7.43139 2.43139 6.81947 3.18404 6.43597C4.03969 6 5.15979 6 7.4 6L32.6 6C34.8402 6 35.9603 6 36.816 6.43597C37.5686 6.81947 38.1805 7.43139 38.564 8.18404C39 9.03969 39 10.1598 39 12.4L39 27.6C39 29.8402 39 30.9603 38.564 31.816C38.1805 32.5686 37.5686 33.1805 36.816 33.564C35.9603 34 34.8402 34 32.6 34L7.4 34C5.15979 34 4.03969 34 3.18404 33.564C2.43139 33.1805 1.81947 32.5686 1.43597 31.816C1 30.9603 1 29.8402 1 27.6L1 12.4Z" fill="rgb(244,245,246)" fill-rule="nonzero" />
	<path id="Shape" d="M11.25 17.9489L15.0009 17.9489C16.68 20.875 19.125 23.3102 22.0511 24.9991L22.0511 28.75C16.9844 27.0218 12.9684 23.0156 11.25 17.9489Z" fill="rgb(0,175,170)" fill-rule="nonzero" />
	<path id="Shape" d="M22.0511 17.9489L22.0511 24.9991C19.125 23.32 16.6898 20.875 15.0009 17.9489L22.0511 17.9489Z" fill="rgb(0,175,170)" fill-rule="evenodd" />
	<path id="Shape" d="M22.0511 17.9489L22.0511 24.9991C19.125 23.32 16.6898 20.875 15.0009 17.9489L22.0511 17.9489Z" fill="rgb(0,83,155)" fill-rule="evenodd" />
	<path id="Shape" d="M22.0511 17.9489L15.0009 17.9489C14.127 16.4171 13.4495 14.7576 13.0273 13L17.1022 13C19.832 13 22.0511 15.2093 22.0511 17.9489Z" fill="rgb(0,175,170)" fill-rule="nonzero" />
	<path id="Shape" d="M22.0511 17.9489L15.0009 17.9489C14.127 16.4171 13.4495 14.7576 13.0273 13L17.1022 13C19.832 13 22.0511 15.2093 22.0511 17.9489Z" fill="rgb(0,175,170)" fill-rule="nonzero" />
	<path id="Shape" d="M27 22.8978L27 26.9727C25.2424 26.5505 23.5829 25.873 22.0511 24.9892L22.0511 17.9489C24.7809 17.9489 27 20.1582 27 22.8978Z" fill="rgb(0,175,170)" fill-rule="evenodd" />
	<path id="Shape" d="M27 22.8978L27 26.9727C25.2424 26.5505 23.5829 25.873 22.0511 24.9892L22.0511 17.9489C24.7809 17.9489 27 20.1582 27 22.8978Z" fill="rgb(243,154,0)" fill-rule="evenodd" />
	<path id="Shape" d="M22.0118 13C22.5617 15.4843 24.5157 17.4383 27 17.9882L27 13L22.0118 13Z" fill="rgb(0,175,170)" fill-rule="nonzero" />
	<path id="Shape" d="M22.0118 13C22.5617 15.4843 24.5157 17.4383 27 17.9882L27 13L22.0118 13Z" fill="rgb(0,175,170)" fill-rule="nonzero" />
</svg>
