<svg width="40.000000" height="40.000000" viewBox="0 0 40 40" fill="none" xmlns="http://www.w3.org/2000/svg" xmlns:xlink="http://www.w3.org/1999/xlink">
	<g>
		<rect id="Unionpay" width="40.000000" height="40.000000" fill="white" fill-opacity="0"/>
		<path id="BG" d="M1 12.4C1 10.15 1 9.03 1.43 8.18C1.81 7.43 2.43 6.81 3.18 6.43C4.03 6 5.15 6 7.4 6L32.59 6C34.84 6 35.96 6 36.81 6.43C37.56 6.81 38.18 7.43 38.56 8.18C39 9.03 39 10.15 39 12.4L39 27.6C39 29.84 39 30.96 38.56 31.81C38.18 32.56 37.56 33.18 36.81 33.56C35.96 34 34.84 34 32.59 34L7.4 34C5.15 34 4.03 34 3.18 33.56C2.43 33.18 1.81 32.56 1.43 31.81C1 30.96 1 29.84 1 27.6L1 12.4Z" fill="#F4F5F6" fill-opacity="1.000000" fill-rule="nonzero"/>
		<path id="Shape" d="M11.48 12L18.46 12C19.44 12 20.04 12.73 19.82 13.62L16.57 26.37C16.34 27.26 15.36 28 14.39 28L7.4 28C6.42 28 5.82 27.27 6.04 26.37L9.3 13.62C9.53 12.73 10.5 12 11.48 12Z" fill="#DF3333" fill-opacity="1.000000" fill-rule="nonzero"/>
		<path id="Shape" d="M17.89 12L25.93 12C26.9 12 26.46 12.73 26.23 13.62L22.98 26.37C22.75 27.26 22.82 28 21.84 28L13.81 28C12.83 28 12.22 27.27 12.45 26.37L15.7 13.62C15.94 12.73 16.91 12 17.89 12Z" fill="#004989" fill-opacity="1.000000" fill-rule="nonzero"/>
		<path id="Shape" d="M25.6 12L32.59 12C33.57 12 34.18 12.73 33.95 13.62L30.69 26.37C30.46 27.26 29.48 28 28.51 28L21.52 28C20.54 28 19.94 27.27 20.16 26.37L23.42 13.62C23.65 12.73 24.62 12 25.6 12Z" fill="#00808A" fill-opacity="1.000000" fill-rule="nonzero"/>
		<path id="Shape" d="M24.43 24L25.09 24L25.28 23.42L24.62 23.42L24.43 24ZM24.96 22.4L24.74 23.08C24.74 23.08 24.99 22.97 25.12 22.93C25.25 22.91 25.46 22.88 25.46 22.88L25.62 22.4L24.96 22.4ZM25.29 21.42L25.07 22.08C25.07 22.08 25.31 21.98 25.45 21.95C25.58 21.91 25.79 21.9 25.79 21.9L25.95 21.43L25.29 21.42ZM26.75 21.42L25.89 24L26.14 24L25.96 24.53L25.71 24.53L25.66 24.69L24.85 24.69L24.91 24.53L23.26 24.53L23.43 24.03L23.59 24.03L24.46 21.42L24.63 20.89L25.46 20.89L25.37 21.16C25.37 21.16 25.59 21.01 25.8 20.97C26 20.92 27.2 20.9 27.2 20.9L27.02 21.43L26.75 21.42Z" fill="#FFFFFF" fill-opacity="1.000000" fill-rule="evenodd"/>
		<path id="Shape" d="M27.2 20.9L28 20.9L28 21.19L28.33 21.27L28.16 21.77L27.69 21.77C27.28 21.79 27.01 21.61 27.02 21.43L27.2 20.9Z" fill="#FFFFFF" fill-opacity="1.000000" fill-rule="nonzero"/>
		<path id="Shape" d="M27.23 23.25L26.39 23.25L26.53 22.8L27.49 22.8L27.63 22.4L26.68 22.4L26.84 21.9L29.48 21.9L29.32 22.4L28.44 22.4L28.3 22.8L29.19 22.8L29.04 23.25L28.08 23.25L27.91 23.43L28.3 23.43L28.39 23.98C28.41 24.01 28.56 24.13 28.63 24.13L28.57 24.67L28.26 24.67C28.22 24.67 28.15 24.67 28.05 24.66C27.9 24.64 27.75 24.57 27.7 24.44L27.59 23.84L27.16 24.39C27.02 24.56 26.83 24.69 26.51 24.69L25.9 24.69L26.06 24.21L26.29 24.21C26.36 24.21 26.42 24.19 26.46 24.17L27.23 23.25Z" fill="#FFFFFF" fill-opacity="1.000000" fill-rule="nonzero"/>
		<path id="Shape" d="M18.02 22.04L20.25 22.04L20.08 22.52L19.19 22.52L19.05 22.93L19.96 22.93L19.79 23.44L18.89 23.44L18.67 24.11C18.65 24.16 18.8 24.18 18.89 24.19L19.43 24.14L19.24 24.69L18.22 24.69C18.12 24.68 17.94 24.63 17.86 24.57C17.83 24.54 17.74 24.41 17.76 24.34L18.06 23.44L17.55 23.44L17.72 22.93L18.22 22.93L18.36 22.52L17.85 22.52L18.02 22.04Z" fill="#FFFFFF" fill-opacity="1.000000" fill-rule="nonzero"/>
		<path id="Shape" d="M19.52 21.17L20.43 21.17L20.26 21.68L19.02 21.68C18.94 21.76 18.51 21.95 18.32 21.95L18.02 22.04L18.08 21.46C18.18 21.46 18.38 21.46 18.41 21.44C18.45 21.42 18.5 21.36 18.55 21.28L18.78 20.9L19.69 20.9L19.52 21.17Z" fill="#FFFFFF" fill-opacity="1.000000" fill-rule="nonzero"/>
		<path id="Shape" d="M21.27 22C21.27 22 21.52 21.79 21.95 21.73C22.04 21.71 22.65 21.72 22.65 21.72L22.74 21.44L21.46 21.44L21.27 22ZM22.47 22.21L21.2 22.21L21.12 22.45L22.23 22.45C22.36 22.43 22.39 22.45 22.4 22.44L22.47 22.21ZM20.82 20.89L21.6 20.89L21.49 21.25C21.49 21.25 21.74 21.07 21.91 21.01C22.05 20.96 22.34 20.91 22.44 20.9L23.72 20.89L23.3 22.19C23.23 22.42 23.14 22.56 23.09 22.62C23.04 22.69 22.99 22.75 22.88 22.8C22.78 22.86 22.68 22.88 22.59 22.89C22.51 22.9 22.38 22.91 22.2 22.91L20.99 22.91L20.64 23.94C20.61 24.04 20.6 24.09 20.62 24.11L21.27 24.12L21.09 24.69L20.49 24.69C20.3 24.69 20.16 24.68 20.06 24.68C19.96 24.66 19.77 24.59 19.71 24.51C19.72 24.46 19.71 24.29 19.74 24.2L20.82 20.89Z" fill="#FFFFFF" fill-opacity="1.000000" fill-rule="evenodd"/>
		<path id="Shape" d="M23.09 23L23.02 23.32C22.99 23.42 22.96 23.49 22.87 23.55C22.79 23.62 22.69 23.69 22.45 23.69L22.02 23.7L22.02 24.06L22.25 24.19L22.67 24.17L22.5 24.68L22.03 24.68C21.69 24.68 21.45 24.68 21.37 24.62C21.29 24.57 21.27 24.52 21.28 24.41L21.31 23.03L22.2 22.91L22.06 23.31L22.24 23.31C22.26 23.3 22.41 23.25 22.42 23.22L22.59 22.89L23.09 23Z" fill="#FFFFFF" fill-opacity="1.000000" fill-rule="nonzero"/>
		<path id="Shape" d="M12.3 16.07C12.28 16.18 11.8 18.23 11.8 18.23C11.69 18.64 11.61 18.94 11.36 19.12C11.21 19.24 11.04 19.29 10.84 19.29C10.52 19.29 10.34 19.14 10.3 18.87C10.3 18.87 10.39 18.22 10.4 18.22C10.4 18.22 10.91 16.35 11 16.11C10 16.11 9.83 16.08 9.82 16.07L9.27 18.3L9.22 18.48L9.14 19.06C9.14 19.24 9.18 19.38 9.25 19.5C9.5 19.88 10.17 19.93 10.55 19.93C11.04 19.93 11.5 19.83 11.81 19.66C12.35 19.37 12.5 18.91 12.63 18.5L12.68 18.3C12.68 18.3 13.21 16.36 13.3 16.11C12.58 16.12 12.38 16.09 12.3 16.07Z" fill="#FFFFFF" fill-opacity="1.000000" fill-rule="nonzero"/>
		<path id="Shape" d="M15.2 19.91C14.84 19.91 14.72 19.91 14.31 19.93C14.34 19.78 14.37 19.62 14.4 19.47L14.45 19.28C14.52 18.98 14.61 18.62 14.61 18.52C14.62 18.45 14.64 18.29 14.44 18.29C14.35 18.29 14.27 18.33 14.17 18.37C14.13 18.53 14.02 18.99 13.98 19.19C13.88 19.63 13.86 19.68 13.82 19.9C13.46 19.89 13.31 19.92 12.89 19.94C12.96 19.68 13.01 19.39 13.08 19.13C13.25 18.42 13.29 18.16 13.34 17.8C13.75 17.75 13.88 17.71 14.32 17.63L14.29 17.9C14.36 17.85 14.43 17.82 14.5 17.78C14.71 17.69 14.94 17.66 15.07 17.66C15.26 17.66 15.48 17.71 15.57 17.91C15.65 18.09 15.6 18.32 15.48 18.76L15.43 18.99C15.32 19.47 15.26 19.58 15.2 19.91Z" fill="#FFFFFF" fill-opacity="1.000000" fill-rule="nonzero"/>
		<path id="Shape" d="M16.64 19.92C16.43 19.92 16.29 19.91 16.16 19.92C16.03 19.92 15.9 19.92 15.7 19.93C15.76 19.75 15.76 19.65 15.78 19.58C15.81 19.51 15.84 19.45 15.89 19.26C15.95 19.01 15.99 18.84 16.01 18.69C16.04 18.55 16.06 18.42 16.08 18.28C16.29 18.26 16.45 18.22 16.59 18.2C16.73 18.17 16.86 18.15 17.08 18.11C17.05 18.27 17.02 18.45 16.98 18.61C16.95 18.77 16.9 18.91 16.86 19.07C16.79 19.39 16.75 19.51 16.73 19.6C16.72 19.68 16.67 19.75 16.64 19.92Z" fill="#FFFFFF" fill-opacity="1.000000" fill-rule="nonzero"/>
		<path id="Shape" d="M18.87 18.78C18.85 18.86 18.78 19.17 18.67 19.3C18.59 19.39 18.5 19.45 18.4 19.45C18.37 19.45 18.2 19.45 18.2 19.22C18.19 19.1 18.22 18.98 18.26 18.85C18.34 18.48 18.46 18.16 18.74 18.16C18.95 18.16 18.97 18.4 18.87 18.78ZM19.79 18.81C19.92 18.31 19.82 18.08 19.7 17.94C19.52 17.73 19.2 17.66 18.86 17.66C18.66 17.66 18.18 17.68 17.8 18C17.53 18.22 17.41 18.53 17.33 18.83C17.25 19.13 17.17 19.68 17.72 19.88C17.89 19.95 18.13 19.96 18.29 19.96C18.69 19.96 19.1 19.86 19.41 19.56C19.64 19.32 19.76 18.96 19.79 18.81Z" fill="#FFFFFF" fill-opacity="1.000000" fill-rule="nonzero"/>
		<path id="Shape" d="M28.39 19.95C27.96 19.95 27.84 19.95 27.45 19.96C27.56 19.59 27.65 19.19 27.74 18.82C27.86 18.34 27.89 18.14 27.93 17.85C28.35 17.8 28.5 17.76 28.93 17.69C28.85 17.99 28.79 18.33 28.72 18.63C28.56 19.27 28.45 19.62 28.39 19.95Z" fill="#FFFFFF" fill-opacity="1.000000" fill-rule="nonzero"/>
		<path id="Shape" d="M27.74 18.82C27.71 18.91 27.65 19.21 27.53 19.34C27.46 19.43 27.29 19.49 27.19 19.49C27.17 19.49 26.99 19.49 26.99 19.26C26.99 19.14 27.01 19.03 27.04 18.89C27.14 18.53 27.24 18.21 27.52 18.21C27.75 18.21 27.83 18.45 27.74 18.82ZM28.58 18.85C28.71 18.36 28.21 18.81 28.13 18.65C28.01 18.39 28.08 17.88 27.59 17.71C27.41 17.64 26.96 17.73 26.59 18.04C26.32 18.27 26.19 18.58 26.12 18.87C26.05 19.17 25.96 19.71 26.51 19.9C26.68 19.97 26.84 19.99 26.99 19.98C27.55 19.96 27.96 19.2 28.27 18.9C28.5 18.67 28.55 19 28.58 18.85Z" fill="#FFFFFF" fill-opacity="1.000000" fill-rule="nonzero"/>
		<path id="Shape" d="M22.18 19.91C21.83 19.91 21.71 19.91 21.3 19.93C21.34 19.78 21.35 19.62 21.4 19.47L21.44 19.28C21.52 18.98 21.59 18.62 21.6 18.52C21.61 18.45 21.63 18.29 21.44 18.29C21.35 18.29 21.26 18.33 21.17 18.37C21.12 18.53 21.02 18.99 20.97 19.19C20.87 19.63 20.86 19.68 20.82 19.9C20.46 19.89 20.31 19.92 19.89 19.94C19.96 19.68 20.01 19.39 20.07 19.13C20.25 18.42 20.29 18.16 20.34 17.8C20.75 17.75 20.88 17.71 21.32 17.63L21.29 17.9C21.36 17.85 21.44 17.82 21.51 17.78C21.72 17.69 21.95 17.66 22.07 17.66C22.26 17.66 22.47 17.71 22.56 17.91C22.65 18.09 22.59 18.32 22.47 18.76L22.42 18.99C22.31 19.47 22.25 19.58 22.18 19.91Z" fill="#FFFFFF" fill-opacity="1.000000" fill-rule="nonzero"/>
		<path id="Shape" d="M25.23 16.07L24.94 16.07C24.18 16.08 23.88 16.08 23.75 16.06L23.45 17.36C23.45 17.36 22.8 19.81 22.77 19.92C23.43 19.92 23.7 19.92 23.81 19.93C23.84 19.81 23.99 19.13 23.99 19.13C23.99 19.13 24.12 18.63 24.13 18.61C24.7 18.61 25.49 18.54 26 18.2C26.34 17.96 26.57 17.62 26.68 17.2C26.7 17.1 26.73 16.97 26.73 16.85C26.73 16.69 26.69 16.53 26.59 16.41C26.34 16.08 25.83 16.07 25.23 16.07ZM25.61 17.27C25.55 17.52 25.37 17.74 25.13 17.84C24.94 17.94 24.71 17.94 24.46 17.94L24.3 17.94L24.46 17.94L24.6 16.74C24.6 16.74 25.33 16.69 25.35 16.69C25.58 16.78 25.68 16.99 25.61 17.27Z" fill="#FFFFFF" fill-opacity="1.000000" fill-rule="nonzero"/>
		<path id="Shape" d="M31.85 17.68C31.41 17.76 31.29 17.75 30.9 17.79C30.6 18.42 30.58 18.32 30.34 18.8L30.27 17.68C29.81 17.76 29.77 17.74 29.35 17.78C29.4 18.03 29.36 18.05 29.4 18.44C29.43 18.63 29.46 18.82 29.49 19C29.53 19.32 29.56 19.48 29.6 19.95C29.32 20.38 29.25 20.54 28.98 20.92C29.39 20.91 29.41 21.09 29.72 21.09L29.87 20.87C30.1 20.42 31.85 17.68 31.85 17.68Z" fill="#FFFFFF" fill-opacity="1.000000" fill-rule="nonzero"/>
		<path id="Shape" d="M17.02 17.95C17.25 17.8 17.28 17.59 17.08 17.49C16.89 17.38 16.54 17.42 16.31 17.57C16.07 17.71 16.04 17.91 16.24 18.02C16.44 18.12 16.79 18.09 17.02 17.95Z" fill="#FFFFFF" fill-opacity="1.000000" fill-rule="nonzero"/>
		<path id="Shape" d="M29.87 20.87L29.49 21.44C29.38 21.63 29.19 21.76 28.87 21.76L28.33 21.75L28.33 21.27C28.39 21.27 28.69 21.26 28.72 21.25L28.98 20.92L29.87 20.87Z" fill="#FFFFFF" fill-opacity="1.000000" fill-rule="nonzero"/>
	</g>
</svg>
