<svg viewBox="0 0 40 40" xmlns="http://www.w3.org/2000/svg" xmlns:xlink="http://www.w3.org/1999/xlink" width="40.000000" height="40.000000" fill="none">
	<rect id="Unistream Bank" width="40.000000" height="40.000000" x="0.000000" y="0.000000" />
	<path id="BG" d="M1 12.4C1 10.1598 1 9.03969 1.43597 8.18404C1.81947 7.43139 2.43139 6.81947 3.18404 6.43597C4.03969 6 5.15979 6 7.4 6L32.6 6C34.8402 6 35.9603 6 36.816 6.43597C37.5686 6.81947 38.1805 7.43139 38.564 8.18404C39 9.03969 39 10.1598 39 12.4L39 27.6C39 29.8402 39 30.9603 38.564 31.816C38.1805 32.5686 37.5686 33.1805 36.816 33.564C35.9603 34 34.8402 34 32.6 34L7.4 34C5.15979 34 4.03969 34 3.18404 33.564C2.43139 33.1805 1.81947 32.5686 1.43597 31.816C1 30.9603 1 29.8402 1 27.6L1 12.4Z" fill="rgb(30,64,114)" fill-rule="nonzero" />
	<path id="Shape" d="M31.2001 17.7946C31.0779 18.0268 30.8876 18.1097 30.6383 18.1028C30.3219 18.0942 30.0055 18.0968 29.689 18.0993C29.6142 18.0999 29.5395 18.1005 29.4648 18.1009C29.3638 18.1017 29.282 18.0724 29.2185 17.9867C28.6848 17.2665 28.0044 16.7291 27.2542 16.2809C26.1354 15.613 24.9311 15.179 23.682 14.8713C22.7701 14.6464 21.8462 14.5015 20.9123 14.4163C19.8238 14.3167 18.735 14.3018 17.6453 14.3776C15.931 14.4965 14.2522 14.8078 12.6335 15.4238C11.647 15.799 10.705 16.2698 9.88053 16.9592C9.57693 17.2131 9.30925 17.5143 9.02915 17.7979C8.99797 17.8295 8.99278 17.8888 8.97538 17.935C9.02982 17.9209 9.09849 17.9235 9.13622 17.8893C9.28666 17.7533 9.42129 17.5983 9.57264 17.4638C10.2709 16.8435 11.071 16.4051 11.9187 16.057C13.2002 15.5309 14.5336 15.2347 15.9001 15.0809C16.7806 14.9817 17.6631 14.9454 18.5464 14.9789C20.398 15.0492 22.2096 15.3534 23.9417 16.0709C24.8383 16.4421 25.6795 16.9151 26.4006 17.5966C26.4875 17.6788 26.5306 17.754 26.5306 17.8321C26.5306 17.8626 26.5241 17.8935 26.511 17.9254C26.4568 18.0582 26.3529 18.1043 26.2199 18.1007C26.1713 18.0994 26.1226 18.1005 26.0738 18.1017C25.9905 18.1036 25.9073 18.1056 25.8254 18.0953C25.7457 18.0854 25.6504 18.053 25.5966 17.9955C24.7773 17.1204 23.7649 16.5814 22.6815 16.1698C21.6065 15.7613 20.4933 15.5205 19.3578 15.3896C18.2904 15.2666 17.2206 15.239 16.1492 15.319C14.8587 15.4153 13.5912 15.6414 12.3622 16.0728C11.5392 16.3616 10.7529 16.7317 10.0391 17.2549C9.56157 17.6049 9.13305 18.0089 8.81319 18.5241C8.5119 19.0096 8.3619 19.5148 8.3619 20.0169C8.3619 20.5665 8.54167 21.1122 8.89948 21.6239C9.31942 22.2248 9.86517 22.6758 10.471 23.0522C11.4694 23.6729 12.5544 24.0595 13.6823 24.3257C15.0051 24.6377 16.3466 24.7663 17.7006 24.738C19.4282 24.7021 21.1217 24.442 22.752 23.8194C23.6325 23.4831 24.464 23.0489 25.1875 22.4145C25.314 22.3036 25.4249 22.1731 25.5539 22.066C25.6201 22.011 25.7078 21.965 25.7902 21.9543C25.8993 21.9403 26.0107 21.9438 26.1219 21.9473C26.1542 21.9483 26.1864 21.9493 26.2185 21.9499C26.357 21.9525 26.4405 22.0119 26.483 22.1285C26.4948 22.1611 26.5002 22.1913 26.5002 22.2197C26.5002 22.3018 26.4553 22.3684 26.3904 22.4299C25.8645 22.9271 25.2673 23.3113 24.6305 23.6299C23.4208 24.2353 22.1403 24.5945 20.8202 24.8132C20.077 24.9364 19.3288 25.0127 18.5773 25.036C17.4899 25.07 16.4054 25.0212 15.3265 24.8628C14.263 24.7068 13.2203 24.4611 12.2108 24.075C11.2519 23.7081 10.3461 23.2382 9.56157 22.5425C9.42987 22.4259 9.30947 22.2956 9.18388 22.1717C9.16491 22.1528 9.14887 22.124 9.1265 22.1167C9.0802 22.1016 9.03028 22.0978 8.98193 22.0896C8.99662 22.1328 9.00068 22.1852 9.02711 22.2177C9.51029 22.8108 10.0953 23.2743 10.7344 23.667C11.8853 24.3748 13.1311 24.8272 14.4248 25.1462C15.263 25.353 16.1122 25.491 16.9696 25.5795C17.828 25.668 18.6878 25.703 19.5491 25.6796C21.6982 25.6211 23.7988 25.28 25.8103 24.455C26.7993 24.0493 27.7311 23.5344 28.5298 22.7905C28.7505 22.5849 28.9522 22.3546 29.1454 22.12C29.2463 21.9975 29.35 21.9435 29.5029 21.9466C29.8714 21.9543 30.2405 21.9581 30.6087 21.9463C30.9003 21.9371 31.1045 22.0445 31.2005 22.3419L31.2005 22.5304C31.1223 22.6387 31.055 22.7586 30.964 22.8535C30.563 23.2707 30.1122 23.6226 29.6324 23.9346C28.5883 24.6138 27.4586 25.0882 26.2824 25.4464C24.6669 25.9385 23.0142 26.1955 21.335 26.2771C21.2383 26.2819 21.1416 26.2922 21.0449 26.3003L19.3297 26.3003C19.3006 26.2948 19.2717 26.2868 19.2423 26.2842C18.4976 26.2174 17.7503 26.174 17.0087 26.0801C15.7638 25.9224 14.5456 25.6296 13.3581 25.2041C12.2653 24.8123 11.2219 24.3146 10.277 23.6115C9.6316 23.1313 9.05648 22.5764 8.63903 21.8644C8.29891 21.2853 8.1001 20.6746 8.1001 20.0216C8.1001 19.8193 8.11917 19.613 8.15902 19.4022C8.29071 18.7063 8.60718 18.1076 9.04112 17.5721C9.73618 16.7147 10.6111 16.1046 11.5591 15.5989C12.5508 15.0698 13.5966 14.6922 14.673 14.4019C16.2888 13.966 17.9358 13.7659 19.5997 13.7109C20.1511 13.6927 20.7059 13.696 21.2559 13.7361C22.0687 13.7956 22.8814 13.8735 23.689 13.9854C24.9138 14.155 26.1089 14.467 27.2716 14.9069C28.3224 15.3044 29.3245 15.8035 30.2242 16.5047C30.5795 16.7815 30.9281 17.0689 31.2003 17.4413C31.2001 17.5571 31.2001 17.673 31.2001 17.7888L31.2001 17.7946ZM10.5051 18.8503C10.7656 18.813 10.9185 18.9197 10.9519 19.1781C10.9671 19.2948 10.968 19.4137 10.969 19.5324C10.9693 19.5785 10.9697 19.6246 10.9709 19.6706C10.9745 19.8061 10.9955 19.8304 11.1216 19.8323C11.1744 19.833 11.2271 19.8327 11.2799 19.8325L11.28 19.8325C11.3136 19.8323 11.3472 19.8322 11.3809 19.8323C11.4642 19.8325 11.5056 19.7879 11.5072 19.7022C11.5074 19.6887 11.5075 19.6753 11.5075 19.6618L11.5074 19.6375L11.5074 19.6133C11.5074 19.5919 11.5075 19.5706 11.5083 19.5493C11.5209 19.1741 11.7595 18.8776 12.1155 18.829C12.296 18.8045 12.4846 18.805 12.6653 18.8283C13.017 18.8739 13.2723 19.1903 13.2759 19.5597C13.2774 19.7135 13.2782 19.8674 13.2782 20.0212C13.2782 20.1694 13.2774 20.3177 13.2759 20.4659C13.2718 20.852 12.9664 21.1867 12.5957 21.2112C12.4796 21.219 12.3628 21.2173 12.2465 21.215C11.8234 21.2055 11.511 20.8735 11.5078 20.4324C11.5063 20.2245 11.4934 20.2106 11.2978 20.2106L11.2302 20.2106C10.9713 20.2106 10.9713 20.2106 10.9713 20.4867L10.9713 21.1767L10.5053 21.1767C10.5051 20.405 10.5051 19.6317 10.5051 18.8503ZM27.9867 18.8597L27.9867 21.1895C27.7374 21.2534 27.5363 21.0986 27.5277 20.8232C27.5233 20.6832 27.5222 20.543 27.5222 20.4028C27.5222 20.3332 27.5225 20.2637 27.5228 20.1941C27.523 20.1246 27.5233 20.055 27.5233 19.9854C27.5233 19.9624 27.5233 19.9395 27.5232 19.9165C27.5232 19.9074 27.5237 19.8981 27.5242 19.8888C27.5248 19.8794 27.5253 19.8701 27.5253 19.8609C27.5253 19.8477 27.5242 19.8349 27.5205 19.823C27.5112 19.7933 27.4916 19.7527 27.4686 19.7459C27.4435 19.7385 27.403 19.7569 27.3807 19.7777C27.3504 19.8056 27.3305 19.8457 27.307 19.8813C27.0407 20.2853 26.7726 20.6882 26.5097 21.0948C26.4638 21.1656 26.4146 21.1935 26.3344 21.1878C26.237 21.181 26.1387 21.1831 26.0412 21.1869C25.9769 21.1894 25.9558 21.161 25.9558 21.0977L25.9558 21.0967C25.9563 20.7137 25.9565 20.3307 25.9565 19.9477C25.9565 19.6045 25.9563 19.2612 25.9558 18.918C25.9558 18.8498 25.9845 18.8323 26.0452 18.833C26.2664 18.8354 26.4091 18.9701 26.4173 19.2158C26.4216 19.3504 26.4224 19.485 26.4224 19.6198C26.4224 19.6545 26.4223 19.6892 26.4223 19.724C26.4222 19.7587 26.4222 19.7934 26.4222 19.8282C26.4222 19.9302 26.4226 20.0322 26.4247 20.1341C26.4261 20.1966 26.4593 20.2584 26.4778 20.3207C26.5273 20.2802 26.5898 20.2492 26.624 20.1976C26.8962 19.7883 27.1647 19.3763 27.4304 18.9621C27.4798 18.8852 27.5338 18.8514 27.6235 18.8578C27.7033 18.8633 27.7837 18.8621 27.8689 18.8608C27.9071 18.8603 27.9462 18.8597 27.9867 18.8597ZM18.5678 21.1949C18.3155 21.2378 18.1359 21.1177 18.1172 20.8628C18.1018 20.6541 18.1012 20.4442 18.1007 20.2343C18.1005 20.1459 18.1002 20.0576 18.0989 19.9693L18.0988 19.9632C18.0988 19.952 18.0993 19.9407 18.0998 19.9294C18.1003 19.9181 18.1008 19.9069 18.1008 19.8957C18.1008 19.8809 18.0999 19.8663 18.0971 19.8521C18.0896 19.8145 18.0686 19.7798 18.0535 19.744C18.0162 19.7636 17.9676 19.7739 17.9437 19.8049C17.878 19.89 17.8224 19.9842 17.7628 20.0746C17.5369 20.417 17.3092 20.7585 17.0862 21.1031C17.0453 21.1663 17.0006 21.1909 16.9286 21.1876C16.8394 21.1836 16.75 21.1844 16.6585 21.1852C16.62 21.1856 16.5811 21.1859 16.5416 21.1859L16.5416 18.8491C16.819 18.7936 16.9984 18.9484 17.0051 19.2557C17.0077 19.3729 17.0084 19.4902 17.0084 19.6076C17.0084 19.6907 17.0081 19.7738 17.0077 19.857C17.0073 19.9401 17.0069 20.0233 17.0069 20.1065L17.0069 20.127C17.0069 20.1363 17.0064 20.1458 17.0059 20.1553C17.0054 20.1649 17.0049 20.1744 17.0049 20.1838C17.0049 20.1965 17.0059 20.2089 17.009 20.2207C17.0182 20.2551 17.0365 20.3106 17.056 20.3132C17.0892 20.3172 17.1384 20.2971 17.1592 20.2693C17.2288 20.177 17.2886 20.0767 17.3521 19.9795C17.5764 19.6359 17.8025 19.2934 18.0237 18.9475C18.0666 18.8802 18.1133 18.854 18.1895 18.8578C18.2755 18.8621 18.3617 18.8612 18.4508 18.8603C18.4892 18.8599 18.5281 18.8594 18.5678 18.8594L18.5678 21.1949ZM13.9068 18.8486C14.1462 18.8021 14.3269 18.9265 14.3597 19.1717C14.3803 19.326 14.3764 19.4842 14.3807 19.6409C14.3845 19.7827 14.4028 19.8044 14.5388 19.8049C14.7943 19.8056 15.0498 19.8054 15.3055 19.8049C15.4404 19.8046 15.4679 19.7763 15.4686 19.631C15.4691 19.517 15.4692 19.4031 15.4692 19.2882C15.4692 19.2199 15.4692 19.1512 15.4691 19.082C15.4691 19.0118 15.469 18.9411 15.469 18.8696L15.9328 18.8696L15.9328 21.1916C15.69 21.2459 15.498 21.0963 15.4756 20.8265C15.47 20.7597 15.4688 20.6924 15.4688 20.625C15.4688 20.6003 15.469 20.5756 15.4691 20.5509C15.4693 20.5262 15.4694 20.5015 15.4694 20.4768C15.4694 20.4522 15.4693 20.4277 15.4688 20.4031C15.4663 20.2743 15.4363 20.2422 15.3154 20.2415C15.2113 20.241 15.1072 20.2412 15.0031 20.2415L15.003 20.2415C14.8441 20.2418 14.6852 20.2422 14.5264 20.2401C14.4197 20.2387 14.3807 20.2882 14.3807 20.3925L14.3807 20.397C14.3819 20.5075 14.3822 20.618 14.3822 20.729C14.3822 20.8027 14.3821 20.8766 14.3819 20.9509C14.3818 21.0261 14.3816 21.1018 14.3816 21.1782L13.9072 21.1782C13.9068 20.3982 13.9068 19.6252 13.9068 18.8535L13.9068 18.8486ZM28.6561 21.1944L28.6561 18.8616C28.7097 18.8616 28.7627 18.8611 28.8154 18.8606C28.9616 18.8592 29.1047 18.8578 29.2472 18.8675C29.2886 18.8703 29.3423 18.9399 29.3611 18.9904C29.4734 19.2939 29.5766 19.601 29.6839 19.9064C29.72 20.0095 29.7535 20.1143 29.7998 20.2125C29.8219 20.2594 29.8705 20.2929 29.9073 20.3326C29.9401 20.2927 29.9864 20.2585 30.0035 20.2122C30.1208 19.8939 30.2317 19.5731 30.3453 19.2534C30.3805 19.1542 30.4092 19.0509 30.458 18.9593C30.482 18.9145 30.5432 18.8677 30.5906 18.8644C30.697 18.8568 30.804 18.8578 30.9109 18.8588C30.9657 18.8593 31.0205 18.8599 31.0752 18.8592C31.1285 18.8585 31.1599 18.8721 31.1599 18.9362L31.1599 18.9369C31.1583 19.6786 31.1581 20.4204 31.1569 21.1621C31.1569 21.173 31.1502 21.1836 31.147 21.1935C30.8795 21.2442 30.6911 21.0849 30.6855 20.7949C30.6835 20.6955 30.6831 20.5961 30.6831 20.4967C30.6831 20.4495 30.6832 20.4023 30.6833 20.3551C30.6834 20.3078 30.6835 20.2606 30.6835 20.2134C30.6835 20.109 30.683 20.0046 30.6807 19.9002C30.6796 19.8478 30.6396 19.7964 30.6175 19.7445C30.5773 19.7836 30.519 19.8153 30.4998 19.8636C30.379 20.1679 30.2647 20.4749 30.1533 20.7829C30.1282 20.8525 30.095 20.8872 30.0227 20.8763C30.0049 20.8737 29.9866 20.8744 29.9683 20.875C29.9602 20.8753 29.952 20.8756 29.9439 20.8756C29.6816 20.8756 29.6825 20.8754 29.5901 20.6247C29.4957 20.3687 29.4031 20.1119 29.301 19.8592C29.2818 19.812 29.2219 19.7827 29.1808 19.7452C29.161 19.7947 29.1248 19.8438 29.1239 19.8939C29.1221 19.9876 29.1216 20.0814 29.1216 20.1752C29.1216 20.2234 29.1217 20.2716 29.1218 20.3198C29.122 20.368 29.1221 20.4162 29.1221 20.4644C29.1221 20.5607 29.1216 20.6571 29.1196 20.7534C29.1119 21.0828 28.9432 21.2424 28.6561 21.1944ZM23.1595 18.8597C23.1545 19.07 23.0167 19.2231 22.8374 19.2305C22.7754 19.233 22.7132 19.2325 22.6511 19.2321L22.6511 19.2321C22.608 19.2317 22.5648 19.2314 22.5218 19.2321C22.3915 19.2342 22.3601 19.2663 22.3596 19.4119C22.3588 19.6709 22.3587 19.9299 22.3587 20.1888C22.3587 20.2859 22.3587 20.383 22.3587 20.4801C22.3587 20.5771 22.3588 20.6742 22.3588 20.7713C22.3588 20.8361 22.3587 20.9009 22.3587 20.9658C22.3587 21.1859 22.3587 21.1859 22.1518 21.1859L21.8823 21.1859L21.8823 19.4565C21.8823 19.2515 21.8629 19.2316 21.6612 19.2316C21.5363 19.2315 21.4114 19.2315 21.2867 19.2316C21.2243 19.2316 21.1619 19.2316 21.0996 19.2316L21.0996 19.2274C21.0996 19.0146 21.2506 18.8625 21.4626 18.8609C21.7619 18.8587 22.0613 18.859 22.3607 18.8594C22.4748 18.8596 22.5889 18.8597 22.703 18.8597L23.1595 18.8597ZM23.593 18.8597C23.6189 18.8597 23.6427 18.8597 23.6649 18.8596L23.6651 18.8596C23.7058 18.8596 23.7416 18.8595 23.7775 18.8597C23.8822 18.86 23.9868 18.8598 24.0915 18.8596L24.0915 18.8596C24.3327 18.8591 24.5738 18.8586 24.8148 18.8642C25.1485 18.8717 25.3748 19.0631 25.4272 19.4046C25.4383 19.4766 25.444 19.5516 25.444 19.6267C25.444 19.7249 25.4342 19.8234 25.4139 19.916C25.3445 20.233 25.0911 20.4234 24.7784 20.4296C24.5905 20.4331 24.4026 20.4322 24.2146 20.4296C24.1146 20.4281 24.0698 20.477 24.0698 20.5779L24.0698 20.5787C24.0699 20.6439 24.0699 20.7092 24.0699 20.7751C24.0699 20.8397 24.0699 20.905 24.0699 20.9716C24.0699 21.041 24.0698 21.1118 24.0698 21.1848C24.0349 21.1848 24.0004 21.1849 23.9663 21.185C23.858 21.1854 23.7535 21.1858 23.6492 21.1822C23.6305 21.1815 23.6045 21.1489 23.5966 21.1258C23.5924 21.1135 23.5913 21.1001 23.5913 21.0862C23.5913 21.0773 23.5918 21.0682 23.5922 21.0592C23.5927 21.0501 23.5932 21.0411 23.5932 21.0323L23.5932 19.0074C23.593 18.9649 23.593 18.922 23.593 18.8597ZM20.7319 18.8623C20.7176 19.0784 20.5796 19.2257 20.3937 19.2304C20.3166 19.2325 20.2395 19.232 20.1624 19.2315C20.0891 19.2311 20.0157 19.2306 19.9424 19.2323C19.7187 19.2375 19.6198 19.3435 19.6194 19.5748C19.619 19.7365 19.6188 19.8982 19.6188 20.06C19.6188 20.2006 19.6189 20.3411 19.6194 20.4817C19.62 20.7047 19.7228 20.8112 19.9392 20.8128C20.0039 20.8134 20.0686 20.813 20.1333 20.8127C20.2303 20.8122 20.3274 20.8117 20.4244 20.8142C20.6295 20.8197 20.7646 20.9558 20.7865 21.1791C20.7538 21.1814 20.7212 21.1855 20.6887 21.1855C20.6322 21.1855 20.5757 21.1857 20.5192 21.1858L20.5192 21.1858C20.2936 21.1863 20.0681 21.1868 19.8425 21.1855C19.4587 21.1831 19.1497 20.8737 19.1414 20.4753C19.1382 20.323 19.1365 20.1706 19.1365 20.0181C19.1365 19.8682 19.1381 19.7183 19.1416 19.5684C19.1506 19.1835 19.4429 18.8748 19.8118 18.8639C20.021 18.8579 20.2303 18.8594 20.4425 18.8609C20.5383 18.8616 20.6347 18.8623 20.7319 18.8623ZM11.9567 20.0062L11.9567 20.3472C11.9569 20.7007 12.1001 20.8497 12.4349 20.844C12.6495 20.8404 12.8234 20.6698 12.8277 20.4459C12.8304 20.2999 12.8318 20.1538 12.8318 20.0078C12.8318 19.8677 12.8305 19.7276 12.8277 19.5875C12.8227 19.3312 12.6445 19.1821 12.3603 19.1842C12.1275 19.1859 11.9621 19.3529 11.9576 19.5946C11.9565 19.6508 11.9562 19.707 11.9562 19.7632C11.9562 19.8 11.9563 19.8367 11.9564 19.8735C11.9566 19.9102 11.9567 19.947 11.9567 19.9837L11.9567 20.0062ZM24.4543 20.0567C24.4821 20.0567 24.5099 20.0571 24.5377 20.0574C24.6 20.0583 24.6623 20.0592 24.7242 20.0557C24.8756 20.0475 24.9806 19.9493 24.9939 19.7935C24.9983 19.7442 25.0003 19.6943 25.0003 19.6443C25.0003 19.5844 24.9974 19.5245 24.9917 19.4653C24.9784 19.3253 24.9192 19.2566 24.7839 19.2467C24.5879 19.2325 24.391 19.2339 24.1943 19.2353L24.1776 19.2354C24.108 19.2359 24.0705 19.2868 24.0701 19.3607C24.0697 19.4613 24.0695 19.5619 24.0695 19.6625C24.0695 19.7498 24.0696 19.8372 24.0701 19.9245C24.0705 20.01 24.1136 20.0553 24.1954 20.0564C24.2601 20.0577 24.3249 20.0573 24.3896 20.057C24.4112 20.0569 24.4327 20.0567 24.4543 20.0567Z" fill="rgb(255,255,255)" fill-rule="evenodd" />
</svg>
