<svg width="24.000000" height="24.000000" viewBox="0 0 24 24" fill="none" xmlns="http://www.w3.org/2000/svg" xmlns:xlink="http://www.w3.org/1999/xlink">
	<desc>
			Created with Pixso.
	</desc>
	<defs>
		<clipPath id="clip6973_1265">
			<rect id="Solid / Address Book Solid" width="24.000000" height="24.000000" fill="white" fill-opacity="0"/>
		</clipPath>
	</defs>
	<g clip-path="url(#clip6973_1265)">
		<path id="Shape" d="M8 3C6.34 3 5 4.34 5 6L5 6.35L3.64 6.34C3.28 6.34 2.99 6.62 2.99 6.99C2.99 7.35 3.28 7.64 3.64 7.64L5 7.65L5 11.35L3.64 11.34C3.28 11.34 2.99 11.62 2.99 11.99C2.99 12.35 3.28 12.64 3.64 12.64L5 12.65L5 16.35L3.64 16.34C3.28 16.34 2.99 16.62 2.99 16.99C2.99 17.35 3.28 17.64 3.64 17.64L5 17.65L5 18C5 19.65 6.34 21 8 21L18 21C19.65 21 21 19.65 21 18L21 6C21 4.34 19.65 3 18 3L8 3ZM10.61 9.27C10.45 7.86 11.57 6.63 12.99 6.64C14.4 6.65 15.49 7.87 15.34 9.28L15.2 10.51C15.07 11.65 14.1 12.52 12.95 12.51C11.81 12.5 10.86 11.64 10.74 10.5L10.61 9.27ZM9.82 14.89C10.51 14.02 11.57 13.5 12.68 13.5L13.32 13.5C14.46 13.5 15.54 14.04 16.23 14.96L16.42 15.21C17.1 16.1 16.46 17.37 15.35 17.37L10.64 17.37C9.52 17.37 8.89 16.07 9.59 15.19L9.82 14.89Z" fill="#74767B" fill-opacity="1.000000" fill-rule="evenodd"/>
	</g>
</svg>
