<svg width="24.000000" height="24.000000" viewBox="0 0 24 24" fill="none" xmlns="http://www.w3.org/2000/svg" xmlns:xlink="http://www.w3.org/1999/xlink">
	<desc>
			Created with Pixso.
	</desc>
	<defs>
		<clipPath id="clip6973_1264">
			<rect id="Outline / Address Book Outline" width="24.000000" height="24.000000" fill="white" fill-opacity="0"/>
		</clipPath>
	</defs>
	<g >
		<path id="Shape" d="M8 3C6.34 3 5 4.34 5 6L5 6.35L3.64 6.34C3.28 6.34 2.99 6.63 2.99 6.99C2.99 7.36 3.28 7.64 3.64 7.64L5 7.65L5 11.35L3.64 11.34C3.28 11.34 2.99 11.63 2.99 11.99C2.99 12.36 3.28 12.64 3.64 12.64L5 12.65L5 16.35L3.64 16.34C3.28 16.34 2.99 16.63 2.99 16.99C2.99 17.36 3.28 17.64 3.64 17.64L5 17.65L5 18C5 19.65 6.34 21 8 21L18 21C19.65 21 21 19.65 21 18L21 6C21 4.34 19.65 3 18 3L8 3ZM18 4.29L8 4.29C7.06 4.29 6.3 5.06 6.3 6L6.3 18C6.3 18.93 7.06 19.7 8 19.7L18 19.7C18.93 19.7 19.7 18.93 19.7 18L19.7 6C19.7 5.06 18.93 4.29 18 4.29ZM12.99 6.64C11.57 6.63 10.45 7.86 10.61 9.27L10.74 10.5C10.86 11.64 11.81 12.5 12.95 12.51C14.1 12.52 15.07 11.65 15.2 10.51L15.34 9.28C15.49 7.87 14.4 6.65 12.99 6.64ZM13.91 10.37L14.05 9.13C14.12 8.5 13.62 7.94 12.98 7.94C12.33 7.93 11.83 8.49 11.9 9.13L12.03 10.36C12.08 10.84 12.48 11.2 12.96 11.21C13.45 11.21 13.86 10.85 13.91 10.37ZM9.82 14.89C10.51 14.01 11.57 13.5 12.68 13.5L13.32 13.5C14.46 13.5 15.54 14.04 16.23 14.95L16.42 15.21C17.1 16.1 16.46 17.37 15.35 17.37L10.64 17.37C9.52 17.37 8.89 16.07 9.59 15.18L9.82 14.89ZM12.68 14.8C11.96 14.8 11.28 15.13 10.84 15.69L10.6 15.99L15.35 16.07L15.2 15.74C14.75 15.15 14.06 14.8 13.32 14.8L12.68 14.8Z" fill="#74767B" fill-opacity="1.000000" fill-rule="evenodd"/>
	</g>
</svg>
