<svg width="24.000000" height="24.000000" viewBox="0 0 24 24" fill="none" xmlns="http://www.w3.org/2000/svg" xmlns:xlink="http://www.w3.org/1999/xlink">
	<desc>
			Created with Pixso.
	</desc>
	<defs>
		<clipPath id="clip127988_799">
			<rect id="Solid / Admin Solid" width="24.000000" height="24.000000" fill="white" fill-opacity="0"/>
		</clipPath>
	</defs>
	<g clip-path="url(#clip127988_799)">
		<path id="Shape" d="M18.94 6.87C21.89 10.87 21.04 16.5 17.05 19.45C13.05 22.41 7.41 21.56 4.46 17.56C1.51 13.56 2.36 7.93 6.35 4.97C10.35 2.02 15.99 2.87 18.94 6.87ZM16.27 18.41C19.69 15.88 20.42 11.06 17.89 7.64C15.37 4.22 10.55 3.49 7.13 6.02C4.46 7.99 3.43 11.36 4.31 14.37L6.77 12.55C6.95 12.41 7.06 12.2 7.07 11.97C7.14 10.63 7.78 9.34 8.94 8.48C10.34 7.45 12.13 7.32 13.61 7.98C14.04 8.18 14.05 8.75 13.67 9.03L11.13 10.9C10.82 11.13 10.75 11.57 10.98 11.88L11.81 12.99C12.04 13.3 12.47 13.37 12.79 13.14L15.32 11.27C15.7 10.99 16.24 11.16 16.3 11.63C16.51 13.24 15.85 14.91 14.46 15.94C13.3 16.8 11.87 17.04 10.57 16.71C10.35 16.66 10.11 16.69 9.93 16.83L7.46 18.65C10.08 20.37 13.6 20.38 16.27 18.41Z" fill="#74767B" fill-opacity="1.000000" fill-rule="evenodd"/>
	</g>
</svg>
