<svg width="24.000000" height="24.000000" viewBox="0 0 24 24" fill="none" xmlns="http://www.w3.org/2000/svg" xmlns:xlink="http://www.w3.org/1999/xlink">
	<desc>
			Created with Pixso.
	</desc>
	<defs>
		<clipPath id="clip131421_90">
			<rect id="Outline / Arrow Up Down Outline" width="24.000000" height="24.000000" fill="white" fill-opacity="0"/>
		</clipPath>
	</defs>
	<g clip-path="url(#clip131421_90)">
		<path id="Shape" d="M16.21 8.69C16.21 8.87 16.14 9.04 16 9.17C15.73 9.41 15.32 9.39 15.08 9.13L11.93 5.64L8.91 9.13C8.67 9.4 8.26 9.41 7.99 9.17C7.73 8.93 7.71 8.52 7.95 8.25L11.41 4.27C11.69 3.96 12.17 3.96 12.45 4.27L16.04 8.25C16.16 8.38 16.21 8.53 16.21 8.69ZM7.78 15.35C7.78 15.17 7.85 15 7.99 14.87C8.26 14.63 8.67 14.65 8.91 14.91L12.06 18.4L15.08 14.91C15.32 14.64 15.73 14.63 16 14.87C16.26 15.11 16.28 15.52 16.04 15.79L12.58 19.77C12.3 20.08 11.82 20.08 11.54 19.77L7.95 15.79C7.83 15.66 7.78 15.51 7.78 15.35Z" fill="#74767B" fill-opacity="1.000000" fill-rule="evenodd"/>
	</g>
</svg>
