<svg width="24.000000" height="24.000000" viewBox="0 0 24 24" fill="none" xmlns="http://www.w3.org/2000/svg" xmlns:xlink="http://www.w3.org/1999/xlink">
	<desc>
			Created with Pixso.
	</desc>
	<defs>
		<clipPath id="clip17_1387">
			<rect id="Solid / Arrow Down Solid" width="24.000000" height="24.000000" fill="white" fill-opacity="0"/>
		</clipPath>
	</defs>
	<g>
		<path id="Shape" d="M12 3C16.97 3 21 7.02 21 12C21 16.97 16.97 21 12 21C7.02 21 3 16.97 3 12C3 7.02 7.02 3 12 3ZM7.44 12.5C7.44 12.32 7.51 12.15 7.65 12.02C7.92 11.78 8.33 11.8 8.57 12.06L11.4 14.94L11.4 8C11.4 7.64 11.69 7.35 12.05 7.35C12.41 7.35 12.7 7.64 12.7 8L12.7 14.94L15.52 12.04C15.76 11.77 16.17 11.76 16.44 12C16.7 12.24 16.72 12.65 16.48 12.92L12.57 16.98C12.29 17.29 11.81 17.29 11.53 16.98L7.61 12.94C7.49 12.81 7.44 12.66 7.44 12.5Z" fill="#717681" fill-opacity="1.000000" fill-rule="evenodd"/>
	</g>
</svg>
