<svg viewBox="0 0 24 24" xmlns="http://www.w3.org/2000/svg" xmlns:xlink="http://www.w3.org/1999/xlink" width="24.000000" height="24.000000" fill="none">
	<rect id="Outline/Arrows Horizontal Outline" width="24.000000" height="24.000000" x="0.000000" y="0.000000" />
	<path id="Shape" d="M8.39178 11.5625C8.57178 11.5625 8.74178 11.4925 8.87178 11.3525C9.11178 11.0825 9.09177 10.6725 8.83177 10.4325L7.27733 8.94999L17.3535 8.96708C17.7129 8.96769 18.0046 8.67648 18.0046 8.31705C18.0046 7.95851 17.7143 7.66767 17.3558 7.66694C13.9959 7.66006 10.641 7.64696 7.28121 7.64696L8.83177 6.27246C9.10178 6.03246 9.11178 5.62246 8.87178 5.35246C8.63178 5.09246 8.22178 5.07246 7.95178 5.31246L5.24178 7.77696C4.93178 8.05696 4.93178 8.53696 5.24178 8.81696L7.95178 11.3925C8.08178 11.5125 8.23178 11.5625 8.39178 11.5625ZM15.1459 18.701C15.2759 18.841 15.4459 18.911 15.6259 18.911C15.7859 18.911 15.9359 18.861 16.0659 18.741L18.7759 16.1655C19.0859 15.8855 19.0859 15.4055 18.7759 15.1255L16.0659 12.661C15.7959 12.421 15.3859 12.441 15.1459 12.701C14.9059 12.971 14.9159 13.381 15.1859 13.621L16.7364 14.9955C13.3753 14.9955 10.019 15.0096 6.65786 15.0156C6.29931 15.0162 6.00899 15.3071 6.00899 15.6656C6.00899 16.025 6.30069 16.3162 6.66012 16.3156L16.7403 16.2985L15.1859 17.781C14.9259 18.021 14.9059 18.431 15.1459 18.701Z" fill="rgb(116,118,123)" fill-rule="evenodd" />
</svg>
