<svg width="24.000000" height="24.000000" viewBox="0 0 24 24" fill="none" xmlns="http://www.w3.org/2000/svg" xmlns:xlink="http://www.w3.org/1999/xlink">
	<desc>
			Created with Pixso.
	</desc>
	<defs>
		<clipPath id="clip108443_1121">
			<rect id="Outline / Arrow Down Two Outline" width="24.000000" height="24.000000" fill="white" fill-opacity="0"/>
		</clipPath>
	</defs>
	<g clip-path="url(#clip108443_1121)">
		<path id="Shape" d="M19.46 1.79C19.94 1.27 20.8 1.36 21.16 1.97C21.39 2.38 21.34 2.89 21.02 3.23L17.62 6.93C17.44 7.12 17.4 7.4 17.5 7.63C17.6 7.87 17.84 8.02 18.09 8.02L22.36 8.02C22.72 8.02 23.01 7.73 23.01 7.37C23.01 7.01 22.72 6.72 22.36 6.72L19.58 6.72L21.98 4.11C22.68 3.35 22.81 2.21 22.28 1.32C21.48 -0.05 19.58 -0.26 18.5 0.91L18.11 1.34C17.87 1.6 17.89 2.01 18.15 2.25C18.42 2.5 18.83 2.48 19.07 2.21L19.46 1.79ZM6.03 11.02C5.89 11.15 5.82 11.32 5.82 11.5C5.82 11.66 5.87 11.81 5.99 11.94L11.48 17.98C11.76 18.29 12.24 18.29 12.52 17.98L18.01 11.94C18.25 11.67 18.23 11.26 17.97 11.02C17.7 10.78 17.29 10.79 17.05 11.06L12.65 15.89L12.65 5C12.65 4.64 12.35 4.35 12 4.35C11.64 4.35 11.35 4.64 11.35 5L11.35 15.89L6.95 11.06C6.71 10.8 6.3 10.78 6.03 11.02Z" fill="#717681" fill-opacity="1.000000" fill-rule="evenodd"/>
	</g>
</svg>
