<svg width="24.000000" height="24.000000" viewBox="0 0 24 24" fill="none" xmlns="http://www.w3.org/2000/svg" xmlns:xlink="http://www.w3.org/1999/xlink">
	<desc>
			Created with Pixso.
	</desc>
	<defs>
		<clipPath id="clip17_1457">
			<rect id="Outline / Arrows Horizontal Outline" width="24.000000" height="24.000000" fill="white" fill-opacity="0"/>
		</clipPath>
	</defs>
	<g>
		<path id="Shape" d="M8.87 11.35C8.74 11.49 8.57 11.56 8.39 11.56C8.23 11.56 8.08 11.51 7.95 11.39L5.24 8.81C4.93 8.53 4.93 8.05 5.24 7.77L7.95 5.31C8.22 5.07 8.63 5.09 8.87 5.35C9.11 5.62 9.1 6.03 8.83 6.27L7.28 7.64C10.64 7.64 13.99 7.66 17.35 7.66C17.71 7.66 18 7.95 18 8.31C18 8.67 17.71 8.96 17.35 8.96L7.27 8.95L8.83 10.43C9.09 10.67 9.11 11.08 8.87 11.35ZM15.14 18.7C15.27 18.84 15.44 18.91 15.62 18.91C15.78 18.91 15.93 18.86 16.06 18.74L18.77 16.16C19.08 15.88 19.08 15.4 18.77 15.12L16.06 12.66C15.79 12.42 15.38 12.44 15.14 12.7C14.9 12.97 14.91 13.38 15.18 13.62L16.73 14.99C13.37 14.99 10.01 15 6.65 15.01C6.29 15.01 6 15.3 6 15.66C6 16.02 6.3 16.31 6.66 16.31L16.74 16.29L15.18 17.78C14.92 18.02 14.9 18.43 15.14 18.7Z" fill="#717681" fill-opacity="1.000000" fill-rule="evenodd"/>
	</g>
</svg>
