<svg width="24" height="24" viewBox="0 0 24 24" fill="none" xmlns="http://www.w3.org/2000/svg">
<path d="M16.0013 9.17945C16.1413 9.04945 16.2113 8.87946 16.2113 8.69946C16.2113 8.53946 16.1613 8.38945 16.0413 8.25945L12.455 4.27632C12.175 3.96632 11.695 3.96632 11.415 4.27632L7.95723 8.25556C7.71723 8.52556 7.73723 8.93556 7.99723 9.17556C8.26723 9.41556 8.67723 9.40556 8.91723 9.13556L11.935 5.64632L15.0813 9.13945C15.3213 9.39945 15.7313 9.41945 16.0013 9.17945Z" fill="#717681"/>
<path d="M7.99857 14.8742C7.85857 15.0042 7.78857 15.1742 7.78857 15.3542C7.78857 15.5142 7.83857 15.6642 7.95857 15.7942L11.5448 19.7773C11.8248 20.0873 12.3048 20.0873 12.5848 19.7773L16.0426 15.7981C16.2826 15.5281 16.2626 15.1181 16.0026 14.8781C15.7326 14.6381 15.3226 14.6481 15.0826 14.9181L12.0648 18.4073L8.91857 14.9142C8.67857 14.6542 8.26857 14.6342 7.99857 14.8742Z" fill="#717681"/>
</svg>
