<svg width="24.000000" height="24.000000" viewBox="0 0 24 24" fill="none" xmlns="http://www.w3.org/2000/svg" xmlns:xlink="http://www.w3.org/1999/xlink">
	<desc>
			Created with Pixso.
	</desc>
	<defs>
		<clipPath id="clip17_1642">
			<rect id="Outline / Arrows Vertical Outline" width="24.000000" height="24.000000" fill="white" fill-opacity="0"/>
		</clipPath>
	</defs>
	<g >
		<path id="Shape" d="M18.68 8.89C18.82 8.76 18.89 8.59 18.89 8.41C18.89 8.25 18.84 8.1 18.72 7.97L16.14 5.26C15.86 4.95 15.38 4.95 15.1 5.26L12.64 7.97C12.4 8.24 12.42 8.65 12.68 8.89C12.95 9.13 13.36 9.12 13.6 8.85L14.97 7.3C14.97 10.66 14.99 14.01 14.99 17.37C14.99 17.73 15.28 18.02 15.64 18.02C16 18.02 16.29 17.73 16.29 17.37L16.27 7.29L17.76 8.85C18 9.11 18.41 9.13 18.68 8.89ZM11.33 15.16C11.47 15.29 11.54 15.46 11.54 15.64C11.54 15.8 11.49 15.95 11.37 16.08L8.79 18.79C8.51 19.1 8.03 19.1 7.75 18.79L5.29 16.08C5.05 15.81 5.07 15.4 5.33 15.16C5.6 14.92 6.01 14.93 6.25 15.2L7.62 16.75C7.62 13.39 7.64 10.04 7.64 6.68C7.64 6.32 7.93 6.03 8.29 6.03C8.65 6.03 8.94 6.32 8.94 6.68L8.93 16.75L10.41 15.2C10.65 14.94 11.06 14.92 11.33 15.16Z" fill="#74767B" fill-opacity="1.000000" fill-rule="evenodd"/>
	</g>
</svg>
