<svg width="24.000000" height="24.000000" viewBox="0 0 24 24" fill="none" xmlns="http://www.w3.org/2000/svg" xmlns:xlink="http://www.w3.org/1999/xlink">
	<desc>
			Created with Pixso.
	</desc>
	<defs>
		<clipPath id="clip17_1411">
			<rect id="Outline / Arrow Down Outline" width="24.000000" height="24.000000" fill="white" fill-opacity="0"/>
		</clipPath>
	</defs>
	<g clip-path="url(#clip17_1411)">
		<path id="Shape" d="M5.82 11.5C5.82 11.32 5.89 11.15 6.03 11.02C6.3 10.78 6.71 10.8 6.95 11.06L11.35 15.89L11.35 4.99C11.35 4.64 11.64 4.34 12 4.34C12.35 4.34 12.65 4.64 12.65 4.99L12.65 15.89L17.05 11.06C17.29 10.79 17.7 10.78 17.97 11.02C18.23 11.26 18.25 11.67 18.01 11.94L12.52 17.98C12.24 18.29 11.76 18.29 11.48 17.98L5.99 11.94C5.87 11.81 5.82 11.66 5.82 11.5Z" fill="#74767B" fill-opacity="1.000000" fill-rule="nonzero"/>
	</g>
</svg>
