<svg width="24.000000" height="24.000000" viewBox="0 0 24 24" fill="none" xmlns="http://www.w3.org/2000/svg" xmlns:xlink="http://www.w3.org/1999/xlink">
	<desc>
			Created with Pixso.
	</desc>
	<defs>
		<clipPath id="clip17_1561">
			<rect id="Solid / Arrow Cross Solid" width="24.000000" height="24.000000" fill="white" fill-opacity="0"/>
		</clipPath>
	</defs>
	<g >
		<path id="Shape" d="M5.63 18.36C2.12 14.84 2.12 9.15 5.63 5.63C9.15 2.12 14.84 2.12 18.36 5.63C21.87 9.15 21.87 14.84 18.36 18.36C14.84 21.87 9.15 21.87 5.63 18.36ZM15.17 15.06C14.81 15.03 14.49 14.77 14.5 14.42L14.5 10.33L9.59 15.24C9.33 15.5 8.92 15.5 8.67 15.24C8.41 14.99 8.41 14.58 8.67 14.32L13.58 9.42L9.53 9.42C9.17 9.44 8.89 9.16 8.87 8.8C8.85 8.45 9.12 8.09 9.48 8.07L15.11 8.07C15.53 8.05 15.87 8.38 15.85 8.8L15.85 14.43C15.83 14.81 15.53 15.07 15.17 15.06Z" fill="#74767B" fill-opacity="1.000000" fill-rule="evenodd"/>
	</g>
</svg>
