<svg width="24.000000" height="24.000000" viewBox="0 0 24 24" fill="none" xmlns="http://www.w3.org/2000/svg" xmlns:xlink="http://www.w3.org/1999/xlink">
	<desc>
			Created with Pixso.
	</desc>
	<defs>
		<clipPath id="clip107735_1239">
			<rect id="Solid / Arrow Down One Solid" width="24.000000" height="24.000000" fill="white" fill-opacity="0"/>
		</clipPath>
	</defs>
	<g clip-path="url(#clip107735_1239)">
		<path id="Shape" d="M20.99 12.31C20.98 12.54 20.71 12.66 20.51 12.54C19.63 12 18.6 11.7 17.5 11.7C15.47 11.7 13.68 12.74 12.64 14.31L12.64 8C12.64 7.64 12.35 7.35 12 7.35C11.64 7.35 11.35 7.64 11.35 8L11.35 14.95L8.55 12.05C8.3 11.79 7.89 11.78 7.63 12.03C7.37 12.28 7.37 12.69 7.62 12.95L11.53 17.01C11.58 17.07 11.64 17.11 11.71 17.15C11.7 17.26 11.7 17.38 11.7 17.5C11.7 18.6 12 19.63 12.54 20.51C12.66 20.71 12.54 20.98 12.31 20.99C12.2 20.99 12.1 21 12 21C7.02 21 3 16.97 3 12C3 7.02 7.02 3 12 3C16.97 3 21 7.02 21 12C21 12.1 20.99 12.2 20.99 12.31ZM22 17.5C22 19.98 19.98 22 17.5 22C15.01 22 13 19.98 13 17.5C13 15.01 15.01 13 17.5 13C19.98 13 22 15.01 22 17.5ZM18.22 15.08C18.4 15.2 18.51 15.4 18.51 15.62L18.51 19.38C18.51 19.74 18.22 20.03 17.86 20.03C17.5 20.03 17.21 19.74 17.21 19.38L17.21 16.59L16.32 16.96C15.98 17.09 15.6 16.94 15.47 16.6C15.33 16.27 15.49 15.89 15.82 15.75L17.62 15.02C17.82 14.94 18.04 14.96 18.22 15.08Z" fill="#717681" fill-opacity="1.000000" fill-rule="evenodd"/>
	</g>
</svg>
