<svg width="24.000000" height="24.000000" viewBox="0 0 24 24" fill="none" xmlns="http://www.w3.org/2000/svg" xmlns:xlink="http://www.w3.org/1999/xlink">
	<desc>
			Created with Pixso.
	</desc>
	<defs>
		<clipPath id="clip108443_1120">
			<rect id="Outline / Arrow Up One Outline" width="24.000000" height="24.000000" fill="white" fill-opacity="0"/>
		</clipPath>
	</defs>
	<g clip-path="url(#clip108443_1120)">
		<path id="Shape" d="M20.95 0.69C20.95 0.46 20.82 0.24 20.62 0.12C20.41 0.01 20.16 0.02 19.96 0.14L17.3 1.8C17 1.99 16.91 2.39 17.1 2.7C17.29 3 17.69 3.09 17.99 2.9L19.65 1.87L19.65 7.37C19.65 7.73 19.94 8.02 20.3 8.02C20.66 8.02 20.95 7.73 20.95 7.37L20.95 0.69ZM5.82 11.96C5.82 12.14 5.89 12.31 6.03 12.44C6.3 12.68 6.71 12.66 6.95 12.4L11.35 7.56L11.35 18.46C11.35 18.81 11.64 19.11 12 19.11C12.35 19.11 12.65 18.81 12.65 18.46L12.65 7.56L17.05 12.4C17.29 12.67 17.7 12.68 17.97 12.44C18.23 12.2 18.25 11.79 18.01 11.52L12.52 5.48C12.24 5.17 11.76 5.17 11.48 5.48L5.99 11.52C5.87 11.65 5.82 11.8 5.82 11.96Z" fill="#74767B" fill-opacity="1.000000" fill-rule="evenodd"/>
	</g>
</svg>
