<svg width="24.000000" height="24.000000" viewBox="0 0 24 24" fill="none" xmlns="http://www.w3.org/2000/svg" xmlns:xlink="http://www.w3.org/1999/xlink">
	<desc>
			Created with Pixso.
	</desc>
	<defs>
		<clipPath id="clip107735_1241">
			<rect id="Solid / Arrow Up One Solid" width="24.000000" height="24.000000" fill="white" fill-opacity="0"/>
		</clipPath>
	</defs>
	<g clip-path="url(#clip107735_1241)">
		<path id="Shape" d="M20.51 12.54C20.71 12.66 20.98 12.54 20.99 12.31C20.99 12.2 21 12.1 21 12C21 7.02 16.97 3 12 3C7.02 3 3 7.02 3 12C3 16.97 7.02 21 12 21C12.1 21 12.2 20.99 12.31 20.99C12.54 20.98 12.66 20.71 12.54 20.51C12.1 19.79 11.81 18.97 11.73 18.09C11.5 17.98 11.35 17.76 11.35 17.5L11.35 9.09L8.55 12C8.3 12.26 7.89 12.26 7.63 12.02C7.37 11.77 7.37 11.35 7.62 11.1L11.53 7.03C11.62 6.94 11.72 6.88 11.84 6.85C11.86 6.85 11.87 6.84 11.89 6.84C11.95 6.83 12.02 6.83 12.08 6.84C12.1 6.84 12.12 6.84 12.14 6.85C12.26 6.87 12.37 6.94 12.46 7.03L16.97 11.72C17.15 11.7 17.32 11.7 17.5 11.7C18.6 11.7 19.63 12 20.51 12.54ZM12.64 14.31L12.64 9.09L15.49 12.05C14.32 12.48 13.32 13.28 12.64 14.31ZM22 17.5C22 19.98 19.98 22 17.5 22C15.01 22 13 19.98 13 17.5C13 15.01 15.01 13 17.5 13C19.98 13 22 15.01 22 17.5ZM18.23 15.08C18.41 15.2 18.51 15.4 18.51 15.62L18.51 19.38C18.51 19.74 18.22 20.03 17.86 20.03C17.5 20.03 17.21 19.74 17.21 19.38L17.21 16.58L16.25 16.96C15.92 17.09 15.54 16.93 15.41 16.6C15.27 16.26 15.44 15.88 15.77 15.75L17.62 15.02C17.82 14.94 18.05 14.96 18.23 15.08Z" fill="#717681" fill-opacity="1.000000" fill-rule="evenodd"/>
	</g>
</svg>
