<svg width="24.000000" height="24.000000" viewBox="0 0 24 24" fill="none" xmlns="http://www.w3.org/2000/svg" xmlns:xlink="http://www.w3.org/1999/xlink">
	<desc>
			Created with Pixso.
	</desc>
	<defs>
		<clipPath id="clip131421_91">
			<rect id="Solid / Arrow Up Down Solid" width="24.000000" height="24.000000" transform="matrix(1 1.22465e-16 1.22465e-16 -1 0 24)" fill="white" fill-opacity="0"/>
		</clipPath>
	</defs>
	<g >
		<path id="Shape" d="M12 21C16.97 21 21 16.97 21 12C21 7.02 16.97 3 12 3C7.02 3 3 7.02 3 12C3 16.97 7.02 21 12 21ZM8.61 14.36C8.61 14.18 8.68 14.01 8.82 13.88C9.09 13.64 9.5 13.66 9.74 13.92L11.99 16.42L14.14 13.92C14.38 13.65 14.79 13.64 15.06 13.88C15.32 14.12 15.34 14.53 15.1 14.8L12.51 17.79C12.23 18.1 11.75 18.1 11.47 17.79L8.78 14.8C8.66 14.67 8.61 14.52 8.61 14.36ZM15.12 10.13C15.26 10 15.33 9.83 15.33 9.65C15.33 9.49 15.28 9.34 15.16 9.21L12.47 6.22C12.19 5.91 11.71 5.91 11.43 6.22L8.83 9.21C8.59 9.48 8.61 9.89 8.87 10.13C9.14 10.37 9.55 10.36 9.79 10.09L11.95 7.59L14.2 10.09C14.44 10.35 14.85 10.37 15.12 10.13Z" fill="#74767B" fill-opacity="1.000000" fill-rule="evenodd"/>
	</g>
</svg>
