<svg width="24.000000" height="24.000000" viewBox="0 0 24 24" fill="none" xmlns="http://www.w3.org/2000/svg" xmlns:xlink="http://www.w3.org/1999/xlink">
	<desc>
			Created with Pixso.
	</desc>
	<defs>
		<clipPath id="clip17_1414">
			<rect id="Outline / Arrow Left Outline" width="24.000000" height="24.000000" fill="white" fill-opacity="0"/>
		</clipPath>
	</defs>
	<g >
		<path id="Shape" d="M11.54 18.14C11.41 18.28 11.24 18.35 11.06 18.35C10.9 18.35 10.75 18.3 10.62 18.18L4.58 12.69C4.27 12.41 4.27 11.93 4.58 11.65L10.62 6.16C10.89 5.92 11.3 5.94 11.54 6.2C11.78 6.47 11.77 6.88 11.5 7.12L6.66 11.52L17.56 11.52C17.92 11.52 18.21 11.81 18.21 12.17C18.21 12.53 17.92 12.82 17.56 12.82L6.66 12.82L11.5 17.22C11.76 17.46 11.78 17.87 11.54 18.14Z" fill="#74767B" fill-opacity="1.000000" fill-rule="evenodd"/>
	</g>
</svg>
