<svg width="24.000000" height="24.000000" viewBox="0 0 24 24" fill="none" xmlns="http://www.w3.org/2000/svg" xmlns:xlink="http://www.w3.org/1999/xlink">
	<desc>
			Created with Pixso.
	</desc>
	<defs>
		<clipPath id="clip17_1408">
			<rect id="Outline / Arrow Right Outline" width="24.000000" height="24.000000" fill="white" fill-opacity="0"/>
		</clipPath>
	</defs>
	<g clip-path="url(#clip17_1408)">
		<path id="Shape" d="M11.02 18.14C11.14 18.28 11.32 18.35 11.5 18.35C11.66 18.35 11.81 18.3 11.93 18.18L17.98 12.69C18.29 12.41 18.29 11.93 17.98 11.65L11.93 6.16C11.66 5.92 11.26 5.94 11.02 6.2C10.78 6.47 10.79 6.88 11.06 7.12L15.89 11.52L5 11.52C4.64 11.52 4.35 11.81 4.35 12.17C4.35 12.53 4.64 12.82 5 12.82L15.89 12.82L11.06 17.22C10.8 17.46 10.78 17.87 11.02 18.14Z" fill="#717681" fill-opacity="1.000000" fill-rule="evenodd"/>
	</g>
</svg>
