<svg width="24.000000" height="24.000000" viewBox="0 0 24 24" fill="none" xmlns="http://www.w3.org/2000/svg" xmlns:xlink="http://www.w3.org/1999/xlink">
	<desc>
			Created with Pixso.
	</desc>
	<defs>
		<clipPath id="clip17_1564">
			<rect id="Outline / Arrow Cross Outline" width="24.000000" height="24.000000" fill="white" fill-opacity="0"/>
		</clipPath>
	</defs>
	<g clip-path="url(#clip17_1564)">
		<path id="Shape" d="M16.51 16.63C16.94 16.63 17.19 16.29 17.19 15.93L17.19 7.8C17.21 7.39 16.87 7.05 16.46 7.07L8.3 7.07C7.96 7.07 7.68 7.37 7.68 7.74C7.68 8.1 7.95 8.45 8.28 8.45L14.89 8.45L7.19 16.16C6.93 16.41 6.93 16.82 7.19 17.07C7.44 17.33 7.85 17.33 8.1 17.07L15.81 9.37L15.81 15.93C15.79 16.28 16.09 16.63 16.51 16.63Z" fill="#717681" fill-opacity="1.000000" fill-rule="evenodd"/>
	</g>
</svg>
