<svg width="24.000000" height="24.000000" viewBox="0 0 24 24" fill="none" xmlns="http://www.w3.org/2000/svg" xmlns:xlink="http://www.w3.org/1999/xlink">
	<g>
    <rect id="Outline / At Outline" width="24.000000" height="24.000000" fill="white" fill-opacity="0"/>
		<path id="Shape" d="M21.02 12.01C21.02 7.03 16.98 3 12.01 3C7.03 3 3 7.03 3 12.01C3 16.98 7.03 21.02 12.01 21.02C13.03 21.02 14.01 20.84 14.93 20.53C15.17 20.44 15.33 20.21 15.33 19.96C15.33 19.5 14.84 19.19 14.41 19.33C13.65 19.58 12.84 19.72 12.01 19.72C7.75 19.72 4.3 16.26 4.3 12.01C4.3 7.75 7.75 4.3 12.01 4.3C16.26 4.3 19.72 7.75 19.72 12.01C19.72 12.69 19.63 13.36 19.46 13.99C19.45 14.04 19.43 14.09 19.41 14.14C19.37 14.29 19.33 14.43 19.28 14.58C19.18 14.81 19.05 14.99 18.9 15.13C18.65 15.35 18.3 15.47 17.86 15.47C17.55 15.47 17.29 15.4 17.08 15.26C17 15.2 16.92 15.14 16.85 15.06C16.73 14.93 16.64 14.78 16.57 14.59C16.5 14.39 16.47 14.18 16.47 13.94C16.49 13.15 16.47 12.45 16.4 11.82C16.32 11.13 16.17 10.51 15.96 9.97C15.72 9.33 15.38 8.79 14.95 8.33C14.91 8.28 14.86 8.24 14.82 8.19C14.56 7.93 14.28 7.71 13.97 7.52C13.83 7.44 13.68 7.36 13.53 7.29C13.22 7.14 12.9 7.04 12.57 6.97C12.29 6.91 12.01 6.89 11.73 6.89C11.44 6.89 11.16 6.91 10.88 6.97C10.55 7.04 10.23 7.14 9.92 7.29C9.77 7.36 9.62 7.44 9.48 7.52C9.11 7.75 8.77 8.04 8.46 8.38C8.33 8.52 8.21 8.67 8.1 8.82C7.85 9.17 7.65 9.56 7.49 9.97C7.41 10.18 7.34 10.39 7.29 10.61C7.19 11.03 7.14 11.46 7.14 11.91C7.14 12.35 7.19 12.78 7.29 13.2C7.34 13.42 7.41 13.63 7.49 13.84C7.65 14.25 7.85 14.64 8.1 14.99C8.21 15.14 8.33 15.29 8.46 15.43C8.77 15.77 9.11 16.06 9.48 16.29C9.62 16.37 9.77 16.45 9.92 16.52C10.23 16.67 10.55 16.77 10.88 16.84C11.16 16.9 11.44 16.93 11.73 16.93C12.02 16.93 12.32 16.9 12.6 16.84C12.92 16.77 13.23 16.66 13.54 16.52C13.69 16.45 13.84 16.37 13.98 16.28C14.35 16.05 14.69 15.77 15 15.43C15.12 15.3 15.23 15.15 15.34 15.01C15.44 15.29 15.59 15.56 15.76 15.79C15.8 15.84 15.85 15.89 15.9 15.94C16.01 16.07 16.13 16.18 16.26 16.27C16.42 16.38 16.59 16.48 16.77 16.55C17.08 16.68 17.49 16.77 17.86 16.77C18.48 16.77 19.01 16.62 19.45 16.34C19.56 16.27 19.67 16.19 19.77 16.1C20.2 15.71 20.51 15.16 20.68 14.45C20.9 13.67 21.02 12.85 21.02 12.01ZM14.03 9.25C13.98 9.19 13.92 9.14 13.87 9.09C13.61 8.84 13.31 8.64 12.97 8.47C12.75 8.37 12.52 8.28 12.29 8.24C12.1 8.2 11.92 8.19 11.73 8.19C11.53 8.19 11.35 8.2 11.16 8.24C10.93 8.28 10.69 8.36 10.47 8.47C10.4 8.5 10.32 8.54 10.25 8.58C9.95 8.75 9.67 8.97 9.42 9.25C9.35 9.33 9.28 9.42 9.21 9.51C9 9.79 8.83 10.09 8.7 10.43C8.65 10.57 8.61 10.71 8.57 10.85C8.48 11.19 8.43 11.54 8.43 11.91C8.43 12.27 8.48 12.62 8.57 12.96C8.61 13.1 8.65 13.24 8.7 13.38C8.83 13.72 9 14.02 9.21 14.3C9.28 14.39 9.35 14.48 9.42 14.56C9.67 14.84 9.95 15.06 10.25 15.23C10.32 15.27 10.4 15.31 10.47 15.34C10.69 15.45 10.93 15.53 11.16 15.57C11.35 15.61 11.53 15.63 11.73 15.63C11.93 15.63 12.12 15.61 12.32 15.57C12.55 15.52 12.77 15.45 12.98 15.34C13.06 15.31 13.14 15.27 13.21 15.23C13.51 15.06 13.78 14.83 14.03 14.56C14.1 14.48 14.17 14.4 14.23 14.32C14.45 14.03 14.62 13.72 14.75 13.38C14.8 13.25 14.84 13.12 14.87 12.99C14.97 12.64 15.02 12.28 15.02 11.91C15.02 11.54 14.97 11.19 14.88 10.85C14.84 10.71 14.8 10.57 14.75 10.43C14.62 10.09 14.45 9.79 14.24 9.51C14.17 9.42 14.1 9.33 14.03 9.25Z" fill="#74767B" fill-opacity="1.000000" fill-rule="evenodd"/>
	</g>
</svg>
