<svg width="24.000000" height="24.000000" viewBox="0 0 24 24" fill="none" xmlns="http://www.w3.org/2000/svg" xmlns:xlink="http://www.w3.org/1999/xlink">
	<desc>
			Created with Pixso.
	</desc>
	<defs>
		<clipPath id="clip17_1704">
			<rect id="Outline / At Outline" width="24.000000" height="24.000000" transform="matrix(1 -6.12324e-17 -6.12324e-17 -1 0 24)" fill="white" fill-opacity="0"/>
		</clipPath>
	</defs>
	<g clip-path="url(#clip17_1704)">
		<path id="Shape" d="M4.35 11.91C4.35 7.69 7.77 4.27 11.99 4.27C16.21 4.27 19.63 7.69 19.63 11.91L19.63 12.25C19.63 13.2 18.86 13.97 17.91 13.97C16.96 13.97 16.19 13.2 16.19 12.25L16.19 8.52C16.19 8.16 15.9 7.87 15.54 7.87C15.18 7.87 14.89 8.16 14.89 8.52L14.89 8.91C14.14 8.19 13.12 7.74 11.99 7.74C9.69 7.74 7.82 9.61 7.82 11.91C7.82 14.22 9.69 16.09 11.99 16.09C13.49 16.09 14.8 15.3 15.53 14.12C16.09 14.82 16.95 15.27 17.91 15.27C19.58 15.27 20.93 13.92 20.93 12.25L20.93 11.91C20.93 6.97 16.93 2.97 11.99 2.97C7.05 2.97 3.05 6.97 3.05 11.91C3.05 16.85 7.02 20.86 11.99 20.86C14.83 20.86 16.88 19.72 18.1 18.76C18.39 18.54 18.43 18.13 18.21 17.85C17.99 17.57 17.58 17.52 17.3 17.74C16.24 18.57 14.47 19.56 11.99 19.56C7.74 19.56 4.35 16.14 4.35 11.91ZM14.86 11.91C14.86 13.5 13.58 14.79 11.99 14.79C10.4 14.79 9.12 13.5 9.12 11.91C9.12 10.33 10.4 9.04 11.99 9.04C13.58 9.04 14.86 10.33 14.86 11.91Z" fill="#74767B" fill-opacity="1.000000" fill-rule="evenodd"/>
	</g>
</svg>
