<svg width="24.000000" height="24.000000" viewBox="0 0 24 24" fill="none" xmlns="http://www.w3.org/2000/svg" xmlns:xlink="http://www.w3.org/1999/xlink">
	<desc>
			Created with Pixso.
	</desc>
	<defs>
		<clipPath id="clip17_1707">
			<rect id="Solid / At Solid" width="24.000000" height="24.000000" transform="matrix(1 -6.12324e-17 -6.12324e-17 -1 0 24)" fill="white" fill-opacity="0"/>
		</clipPath>
	</defs>
	<g>
		<path id="Shape" d="M21 12C21 16.97 16.97 21 12 21C7.02 21 3 16.97 3 12C3 7.02 7.02 3 12 3C16.97 3 21 7.02 21 12ZM11.99 5.78C8.61 5.78 5.86 8.53 5.86 11.91C5.86 15.3 8.58 18.04 11.99 18.04C13.98 18.04 15.41 17.25 16.26 16.58C16.54 16.36 16.95 16.41 17.17 16.69C17.39 16.97 17.34 17.38 17.06 17.6C16.05 18.4 14.35 19.34 11.99 19.34C7.86 19.34 4.56 16.01 4.56 11.91C4.56 7.81 7.89 4.48 11.99 4.48C16.09 4.48 19.42 7.81 19.42 11.91L19.42 12.19C19.42 13.62 18.26 14.78 16.83 14.78C16.02 14.78 15.29 14.41 14.82 13.82C14.21 14.73 13.17 15.32 11.99 15.32C10.11 15.32 8.58 13.8 8.58 11.91C8.58 10.03 10.11 8.5 11.99 8.5C12.85 8.5 13.64 8.82 14.24 9.35L14.24 9.14C14.24 8.78 14.53 8.49 14.89 8.49C15.25 8.49 15.54 8.78 15.54 9.14L15.54 12.19C15.54 12.9 16.12 13.48 16.83 13.48C17.54 13.48 18.12 12.9 18.12 12.19L18.12 11.91C18.12 8.53 15.38 5.78 11.99 5.78ZM14.1 11.91C14.1 13.08 13.16 14.02 11.99 14.02C10.83 14.02 9.88 13.08 9.88 11.91C9.88 10.75 10.83 9.8 11.99 9.8C13.16 9.8 14.1 10.75 14.1 11.91Z" fill="#717681" fill-opacity="1.000000" fill-rule="evenodd"/>
	</g>
</svg>
