<svg width="24.000000" height="24.000000" viewBox="0 0 24 24" fill="none" xmlns="http://www.w3.org/2000/svg" xmlns:xlink="http://www.w3.org/1999/xlink">
	<g>
    <rect id="Solid / At Solid" width="24.000000" height="24.000000" fill="white" fill-opacity="0"/>
		<path id="Shape" d="M12 3C7.02 3 3 7.02 3 12C3 16.97 7.02 21 12 21C16.97 21 21 16.97 21 12C21 7.02 16.97 3 12 3ZM12 5.5C15.58 5.5 18.5 8.41 18.5 12C18.5 12.61 18.41 13.2 18.25 13.76C18.13 14.27 17.91 14.66 17.6 14.95C17.52 15.01 17.45 15.07 17.36 15.12C17.05 15.33 16.66 15.43 16.22 15.43C15.95 15.43 15.66 15.37 15.43 15.28C15.3 15.22 15.18 15.15 15.07 15.07C14.97 15 14.88 14.93 14.8 14.84C14.77 14.8 14.74 14.76 14.71 14.72C14.58 14.56 14.47 14.36 14.4 14.16C14.32 14.27 14.24 14.37 14.15 14.47C13.93 14.71 13.69 14.91 13.42 15.08C13.32 15.14 13.21 15.2 13.1 15.25C12.88 15.36 12.66 15.43 12.43 15.48C12.22 15.52 12.01 15.54 11.79 15.54C11.59 15.54 11.38 15.52 11.18 15.48C10.95 15.44 10.71 15.36 10.49 15.25C10.38 15.2 10.27 15.15 10.17 15.08C9.9 14.92 9.66 14.71 9.44 14.47C9.34 14.37 9.26 14.26 9.18 14.15C9 13.89 8.85 13.62 8.74 13.32C8.68 13.17 8.63 13.01 8.59 12.86C8.52 12.55 8.48 12.24 8.48 11.92C8.48 11.6 8.52 11.29 8.59 10.99C8.63 10.83 8.68 10.68 8.74 10.53C8.85 10.23 9 9.95 9.18 9.7C9.26 9.59 9.34 9.48 9.44 9.38C9.66 9.13 9.9 8.93 10.17 8.76C10.28 8.7 10.38 8.64 10.49 8.59C10.71 8.49 10.95 8.41 11.18 8.36C11.38 8.32 11.59 8.3 11.79 8.3C12 8.3 12.2 8.32 12.4 8.36C12.64 8.41 12.87 8.49 13.1 8.59C13.21 8.64 13.31 8.7 13.41 8.76C13.63 8.9 13.84 9.06 14.02 9.25C14.34 9.58 14.67 10.07 14.85 10.52C15 10.92 15.11 11.36 15.16 11.86C15.22 12.31 15.23 12.82 15.21 13.39C15.21 13.56 15.24 13.72 15.29 13.86C15.34 13.99 15.4 14.11 15.49 14.2C15.54 14.26 15.6 14.3 15.66 14.34C15.81 14.44 16 14.49 16.22 14.49C16.54 14.49 16.79 14.41 16.97 14.25C17.08 14.15 17.17 14.02 17.24 13.85C17.28 13.75 17.31 13.64 17.34 13.54C17.35 13.5 17.36 13.47 17.37 13.43C17.49 12.97 17.56 12.49 17.56 12C17.56 8.92 15.07 6.43 12 6.43C8.92 6.43 6.43 8.92 6.43 12C6.43 15.07 8.92 17.56 12 17.56C12.6 17.56 13.18 17.46 13.73 17.28C14.04 17.18 14.39 17.4 14.39 17.73C14.39 17.92 14.28 18.08 14.1 18.14C13.44 18.37 12.73 18.49 12 18.5C8.41 18.5 5.5 15.58 5.5 12C5.5 8.41 8.41 5.5 12 5.5ZM13.34 9.89C13.38 9.93 13.42 9.97 13.45 10.01C13.51 10.07 13.56 10.13 13.61 10.19C13.76 10.39 13.88 10.62 13.97 10.86C14.01 10.96 14.04 11.06 14.07 11.16C14.13 11.41 14.17 11.66 14.17 11.92C14.17 12.19 14.13 12.45 14.07 12.7C14.04 12.8 14.01 12.89 13.97 12.99C13.88 13.23 13.76 13.46 13.6 13.66C13.56 13.72 13.51 13.78 13.46 13.84C13.28 14.04 13.08 14.2 12.86 14.32C12.81 14.35 12.76 14.38 12.7 14.4C12.55 14.48 12.39 14.53 12.22 14.56C12.08 14.59 11.94 14.61 11.79 14.61C11.66 14.61 11.52 14.59 11.39 14.57C11.22 14.53 11.05 14.48 10.89 14.4C10.83 14.38 10.78 14.35 10.73 14.32C10.51 14.2 10.31 14.04 10.13 13.84C10.08 13.78 10.03 13.72 9.98 13.65C9.83 13.45 9.71 13.23 9.61 12.98C9.58 12.89 9.54 12.79 9.52 12.69C9.45 12.44 9.42 12.19 9.42 11.92C9.42 11.66 9.45 11.41 9.52 11.16C9.54 11.06 9.58 10.96 9.61 10.86C9.71 10.62 9.83 10.39 9.98 10.19C10.03 10.13 10.08 10.07 10.13 10.01C10.31 9.81 10.51 9.65 10.73 9.52C10.78 9.49 10.83 9.47 10.89 9.44C11.05 9.37 11.22 9.31 11.39 9.28C11.52 9.25 11.66 9.24 11.79 9.24C11.93 9.24 12.07 9.25 12.2 9.28C12.37 9.31 12.53 9.37 12.69 9.44C12.94 9.57 13.16 9.71 13.34 9.89Z" fill="#74767B" fill-opacity="1.000000" fill-rule="evenodd"/>
	</g>
</svg>
