<svg width="24.000000" height="24.000000" viewBox="0 0 24 24" fill="none" xmlns="http://www.w3.org/2000/svg" xmlns:xlink="http://www.w3.org/1999/xlink">
	<desc>
			Created with Pixso.
	</desc>
	<defs>
		<clipPath id="clip17_1534">
			<rect id="Outline / Bar Code Outline" width="24.000000" height="24.000000" fill="white" fill-opacity="0"/>
		</clipPath>
	</defs>
	<g clip-path="url(#clip17_1534)">
		<path id="Shape" d="M5.79 2L5 2C3.34 2 2 3.34 2 5L2 5.69C2 6.04 2.29 6.34 2.64 6.34C3 6.34 3.29 6.04 3.29 5.69L3.29 5C3.29 4.06 4.06 3.29 5 3.29L5.79 3.29C6.15 3.29 6.44 3 6.44 2.65C6.44 2.29 6.15 2 5.79 2ZM21.35 6.34C21.7 6.34 22 6.04 22 5.69L22 5C22 3.34 20.65 2 19 2L18.41 2C18.05 2 17.76 2.29 17.76 2.65C17.76 3 18.05 3.29 18.41 3.29L19 3.29C19.93 3.29 20.7 4.06 20.7 5L20.7 5.69C20.7 6.04 20.99 6.34 21.35 6.34ZM5.8 7.94C5.44 7.94 5.15 8.23 5.15 8.59L5.15 15.4C5.15 15.76 5.44 16.05 5.8 16.05L7.07 16.05C7.43 16.05 7.72 15.76 7.72 15.4L7.72 8.59C7.72 8.23 7.43 7.94 7.07 7.94L5.8 7.94ZM14.57 7.94C14.21 7.94 13.92 8.23 13.92 8.59L13.92 15.4C13.92 15.76 14.21 16.05 14.57 16.05L15.84 16.05C16.2 16.05 16.49 15.76 16.49 15.4L16.49 8.59C16.49 8.23 16.2 7.94 15.84 7.94L14.57 7.94ZM19.1 8.59C19.1 8.23 18.81 7.94 18.45 7.94C18.09 7.94 17.8 8.23 17.8 8.59L17.8 15.4C17.8 15.76 18.09 16.05 18.45 16.05C18.81 16.05 19.1 15.76 19.1 15.4L19.1 8.59ZM11.96 8.59C11.96 8.23 11.67 7.94 11.31 7.94C10.95 7.94 10.66 8.23 10.66 8.59L10.66 15.4C10.66 15.76 10.95 16.05 11.31 16.05C11.67 16.05 11.96 15.76 11.96 15.4L11.96 8.59ZM2.64 17.65C2.29 17.65 2 17.94 2 18.3L2 19C2 20.65 3.34 22 5 22L5.79 22C6.15 22 6.44 21.7 6.44 21.35C6.44 20.99 6.15 20.7 5.79 20.7L5 20.7C4.06 20.7 3.29 19.93 3.29 19L3.29 18.3C3.29 17.94 3 17.65 2.64 17.65ZM21.35 17.65C20.99 17.65 20.7 17.94 20.7 18.3L20.7 19C20.7 19.93 19.93 20.7 19 20.7L18.41 20.7C18.05 20.7 17.76 20.99 17.76 21.35C17.76 21.7 18.05 22 18.41 22L19 22C20.65 22 22 20.65 22 19L22 18.3C22 17.94 21.7 17.65 21.35 17.65Z" fill="#74767B" fill-opacity="1.000000" fill-rule="evenodd"/>
	</g>
</svg>
