<svg width="24.000000" height="24.000000" viewBox="0 0 24 24" fill="none" xmlns="http://www.w3.org/2000/svg" xmlns:xlink="http://www.w3.org/1999/xlink">
	<desc>
			Created with Pixso.
	</desc>
	<defs>
		<clipPath id="clip17_1487">
			<rect id="Solid / Calculate Solid" width="24.000000" height="24.000000" fill="white" fill-opacity="0"/>
		</clipPath>
	</defs>
	<g >
		<path id="Shape" d="M3 10.64C3 11.03 3.31 11.34 3.7 11.34L10.65 11.34C11.03 11.34 11.35 11.03 11.35 10.64L11.35 3.7C11.35 3.31 11.03 3 10.65 3L6 3C4.44 3 3.16 4.18 3.01 5.69C3 5.79 3 5.89 3 6L3 10.64ZM20.29 11.34C20.68 11.34 21 11.03 21 10.64L21 6C21 4.34 19.65 3 18 3L13.35 3C12.96 3 12.65 3.31 12.65 3.7L12.65 10.64C12.65 11.03 12.96 11.34 13.35 11.34L20.29 11.34ZM7.18 9.53C6.83 9.53 6.53 9.24 6.53 8.88L6.53 8.03L5.68 8.03C5.33 8.03 5.03 7.74 5.03 7.38C5.03 7.02 5.33 6.73 5.68 6.73L6.53 6.73L6.53 5.88C6.53 5.52 6.83 5.23 7.18 5.23C7.54 5.23 7.83 5.52 7.83 5.88L7.83 6.73L8.68 6.73C9.04 6.73 9.33 7.02 9.33 7.38C9.33 7.74 9.04 8.03 8.68 8.03L7.83 8.03L7.83 8.88C7.83 9.24 7.54 9.53 7.18 9.53ZM15.83 6.73C15.47 6.73 15.18 7.02 15.18 7.38C15.18 7.74 15.47 8.03 15.83 8.03L17.83 8.03C18.18 8.03 18.48 7.74 18.48 7.38C18.48 7.02 18.18 6.73 17.83 6.73L15.83 6.73ZM10.65 21C11.03 21 11.35 20.68 11.35 20.29L11.35 13.34C11.35 12.95 11.03 12.64 10.65 12.64L3.7 12.64C3.31 12.64 3 12.95 3 13.34L3 18C3 19.65 4.34 21 6 21L10.65 21ZM12.65 20.29C12.65 20.68 12.96 21 13.35 21L18 21C19.65 21 21 19.65 21 18L21 13.34C21 12.95 20.68 12.64 20.29 12.64L13.35 12.64C12.96 12.64 12.65 12.95 12.65 13.34L12.65 20.29ZM15.18 15.67C15.18 15.31 15.47 15.02 15.83 15.02L17.83 15.02C18.18 15.02 18.48 15.31 18.48 15.67C18.48 16.03 18.18 16.32 17.83 16.32L15.83 16.32C15.47 16.32 15.18 16.03 15.18 15.67ZM8.7 18.25C8.45 18.51 8.04 18.51 7.79 18.25L7.18 17.65L6.58 18.25C6.33 18.51 5.92 18.51 5.66 18.25C5.41 18 5.41 17.59 5.66 17.33L6.26 16.73L5.66 16.13C5.41 15.88 5.41 15.47 5.66 15.21C5.92 14.96 6.33 14.96 6.58 15.21L7.18 15.81L7.79 15.21C8.04 14.96 8.45 14.96 8.7 15.21C8.96 15.47 8.96 15.88 8.7 16.13L8.1 16.73L8.7 17.33C8.96 17.59 8.96 18 8.7 18.25ZM15.83 17.06C15.47 17.06 15.18 17.35 15.18 17.71C15.18 18.07 15.47 18.36 15.83 18.36L17.83 18.36C18.18 18.36 18.48 18.07 18.48 17.71C18.48 17.35 18.18 17.06 17.83 17.06L15.83 17.06Z" fill="#74767B" fill-opacity="1.000000" fill-rule="evenodd"/>
	</g>
</svg>
