<svg viewBox="0 0 24 24" xmlns="http://www.w3.org/2000/svg" xmlns:xlink="http://www.w3.org/1999/xlink" width="24.000000" height="24.000000" fill="none">
	<rect id="Solid/Calendar Solid" width="24.000000" height="24.000000" x="0.000000" y="0.000000" />
	<path id="Shape" d="M8.78998 2.59995C8.78998 2.24097 8.49897 1.94995 8.13998 1.94995C7.781 1.94995 7.48998 2.24097 7.48998 2.59995L7.48998 3.98996L7 3.98996C5.34 3.98996 4 5.32996 4 6.98996L4 8.64996C4 9.03996 4.31 9.34996 4.7 9.34996L19.3 9.34996C19.69 9.34996 20 9.03996 20 8.64996L20 6.98996C20 5.32996 18.65 3.98996 17 3.98996L16.5 3.98996L16.5 2.59995C16.5 2.24097 16.209 1.94995 15.85 1.94995C15.491 1.94995 15.2 2.24097 15.2 2.59995L15.2 3.98996L12.65 3.98996L12.65 2.59995C12.65 2.24097 12.359 1.94995 12 1.94995C11.641 1.94995 11.35 2.24097 11.35 2.59995L11.35 3.98996L8.78998 3.98996L8.78998 2.59995ZM19.3 10.65L4.7 10.65C4.31 10.65 4 10.96 4 11.35L4 17.12C4 18.78 5.34 20.12 7 20.12L17 20.12C18.66 20.12 20 18.78 20 17.12L20 11.35C20 10.96 19.68 10.65 19.3 10.65ZM11.12 15.82C11.12 16.21 10.81 16.52 10.42 16.52L8.09999 16.52C7.70999 16.52 7.39999 16.21 7.39999 15.82L7.39999 14.5C7.39999 14.11 7.70999 13.8 8.09999 13.8L10.42 13.8C10.81 13.8 11.12 14.11 11.12 14.5L11.12 15.82Z" fill="rgb(116,118,123)" fill-rule="evenodd" />
</svg>
