<svg viewBox="0 0 24 24" xmlns="http://www.w3.org/2000/svg" xmlns:xlink="http://www.w3.org/1999/xlink" width="24.000000" height="24.000000" fill="none">
	<rect id="Solid/Calendar Ok Solid" width="24.000000" height="24.000000" x="0.000000" y="0.000000" />
	<path id="Shape" d="M8.13998 1.94995C8.49897 1.94995 8.78998 2.24097 8.78998 2.59995L8.78998 3.98996L11.35 3.98996L11.35 2.59995C11.35 2.24097 11.641 1.94995 12 1.94995C12.359 1.94995 12.65 2.24097 12.65 2.59995L12.65 3.98996L15.2 3.98996L15.2 2.59995C15.2 2.24097 15.491 1.94995 15.85 1.94995C16.209 1.94995 16.5 2.24097 16.5 2.59995L16.5 3.98996L17 3.98996C18.65 3.98996 20 5.32996 20 6.98996L20 8.64996C20 9.03996 19.69 9.34996 19.3 9.34996L4.7 9.34996C4.31 9.34996 4 9.03996 4 8.64996L4 6.98996C4 5.32996 5.34 3.98996 7 3.98996L7.48998 3.98996L7.48998 2.59995C7.48998 2.24097 7.781 1.94995 8.13998 1.94995ZM4.7 10.65L19.3 10.65C19.68 10.65 20 10.96 20 11.35L20 17.12C20 18.78 18.66 20.12 17 20.12L7 20.12C5.34 20.12 4 18.78 4 17.12L4 11.35C4 10.96 4.31 10.65 4.7 10.65ZM15.6549 12.5216C15.9191 12.7646 15.9364 13.1757 15.6935 13.44L12.3735 17.0512C12.0078 17.449 11.3844 17.4621 11.0024 17.08L9.09922 15.1769C8.84538 14.9231 8.84538 14.5115 9.09922 14.2577C9.35307 14.0038 9.76462 14.0038 10.0185 14.2577L11.6635 15.9027L14.7364 12.5602C14.9794 12.2959 15.3906 12.2786 15.6549 12.5216Z" fill="rgb(116,118,123)" fill-rule="evenodd" />
</svg>
