<svg width="24.000000" height="24.000000" viewBox="0 0 24 24" fill="none" xmlns="http://www.w3.org/2000/svg" xmlns:xlink="http://www.w3.org/1999/xlink">
	<desc>
			Created with Pixso.
	</desc>
	<defs>
		<clipPath id="clip17_1662">
			<rect id="Outline / Calendar Ok Outline" width="24.000000" height="24.000000" fill="white" fill-opacity="0"/>
		</clipPath>
	</defs>
	<g >
		<path id="Shape" d="M8.79 2.59C8.79 2.24 8.49 1.94 8.14 1.94C7.78 1.94 7.48 2.24 7.48 2.59L7.48 3.98L7 3.98C5.33 3.98 4 5.32 4 6.98L4 17.11C4 18.78 5.33 20.11 7 20.11L17 20.11C18.66 20.11 20 18.78 20 17.11L20 6.98C20 5.32 18.64 3.98 17 3.98L16.5 3.98L16.5 2.59C16.5 2.24 16.2 1.94 15.85 1.94C15.49 1.94 15.2 2.24 15.2 2.59L15.2 3.98L12.64 3.98L12.64 2.59C12.64 2.24 12.35 1.94 12 1.94C11.64 1.94 11.35 2.24 11.35 2.59L11.35 3.98L8.79 3.98L8.79 2.59ZM7.48 5.28L7.48 6.85C7.48 7.21 7.78 7.5 8.14 7.5C8.49 7.5 8.79 7.21 8.79 6.85L8.79 5.28L11.35 5.28L11.35 6.85C11.35 7.21 11.64 7.5 12 7.5C12.35 7.5 12.64 7.21 12.64 6.85L12.64 5.28L15.2 5.28L15.2 6.85C15.2 7.21 15.49 7.5 15.85 7.5C16.2 7.5 16.5 7.21 16.5 6.85L16.5 5.28L17 5.28C17.93 5.28 18.7 6.04 18.7 6.98L18.7 9.34L5.29 9.34L5.29 6.98C5.29 6.04 6.06 5.28 7 5.28L7.48 5.28ZM5.29 10.65L18.7 10.65L18.7 17.11C18.7 18.05 17.93 18.81 17 18.81L7 18.81C6.06 18.81 5.29 18.05 5.29 17.11L5.29 10.65ZM15.67 12.2C15.93 12.44 15.95 12.85 15.71 13.11L12.39 16.73C12.02 17.12 11.4 17.14 11.02 16.75L9.11 14.85C8.86 14.6 8.86 14.19 9.11 13.93C9.37 13.68 9.78 13.68 10.03 13.93L11.68 15.58L14.75 12.23C14.99 11.97 15.41 11.95 15.67 12.2Z" fill="#74767B" fill-opacity="1.000000" fill-rule="evenodd"/>
	</g>
</svg>
