<svg width="24.000000" height="24.000000" viewBox="0 0 24 24" fill="none" xmlns="http://www.w3.org/2000/svg" xmlns:xlink="http://www.w3.org/1999/xlink">
	<desc>
			Created with Pixso.
	</desc>
	<defs>
		<clipPath id="clip17_1665">
			<rect id="Solid / Calendar Ok Solid" width="24.000000" height="24.000000" fill="white" fill-opacity="0"/>
		</clipPath>
	</defs>
	<g>
		<path id="Shape" d="M8.79 2.59C8.79 2.24 8.49 1.94 8.14 1.94C7.78 1.94 7.48 2.24 7.48 2.59L7.48 3.98L7 3.98C5.33 3.98 4 5.32 4 6.98L4 8.64C4 9.03 4.31 9.34 4.7 9.34L19.29 9.34C19.68 9.34 20 9.03 20 8.64L20 6.98C20 5.32 18.64 3.98 17 3.98L16.5 3.98L16.5 2.59C16.5 2.24 16.2 1.94 15.85 1.94C15.49 1.94 15.2 2.24 15.2 2.59L15.2 3.98L12.64 3.98L12.64 2.59C12.64 2.24 12.35 1.94 12 1.94C11.64 1.94 11.35 2.24 11.35 2.59L11.35 3.98L8.79 3.98L8.79 2.59ZM4.7 10.65L19.29 10.65C19.68 10.65 20 10.96 20 11.35L20 17.12C20 18.78 18.66 20.12 17 20.12L7 20.12C5.33 20.12 4 18.78 4 17.12L4 11.35C4 10.96 4.31 10.65 4.7 10.65ZM15.65 12.52C15.91 12.76 15.93 13.17 15.69 13.44L12.37 17.05C12 17.44 11.38 17.46 11 17.08L9.09 15.17C8.84 14.92 8.84 14.51 9.09 14.25C9.35 14 9.76 14 10.01 14.25L11.66 15.9L14.73 12.56C14.97 12.29 15.39 12.27 15.65 12.52Z" fill="#717681" fill-opacity="1.000000" fill-rule="evenodd"/>
	</g>
</svg>
