<svg width="24.000000" height="24.000000" viewBox="0 0 24 24" fill="none" xmlns="http://www.w3.org/2000/svg" xmlns:xlink="http://www.w3.org/1999/xlink">
	<desc>
			Created with Pixso.
	</desc>
	<defs>
		<clipPath id="clip17_1380">
			<rect id="Solid / Calendar Solid" width="24.000000" height="24.000000" fill="white" fill-opacity="0"/>
		</clipPath>
	</defs>
	<g>
		<path id="Shape" d="M8.14 1.94C8.49 1.94 8.79 2.24 8.79 2.59L8.79 3.98L11.35 3.98L11.35 2.59C11.35 2.24 11.64 1.94 12 1.94C12.35 1.94 12.64 2.24 12.64 2.59L12.64 3.98L15.2 3.98L15.2 2.59C15.2 2.24 15.49 1.94 15.85 1.94C16.2 1.94 16.5 2.24 16.5 2.59L16.5 3.98L17 3.98C18.64 3.98 20 5.32 20 6.98L20 8.64C20 9.03 19.68 9.34 19.29 9.34L4.7 9.34C4.31 9.34 4 9.03 4 8.64L4 6.98C4 5.32 5.33 3.98 7 3.98L7.48 3.98L7.48 2.59C7.48 2.24 7.78 1.94 8.14 1.94ZM19.29 10.65L4.7 10.65C4.31 10.65 4 10.96 4 11.35L4 17.12C4 18.78 5.33 20.12 7 20.12L17 20.12C18.66 20.12 20 18.78 20 17.12L20 11.35C20 10.96 19.68 10.65 19.29 10.65ZM11.12 15.81C11.12 16.2 10.81 16.52 10.41 16.52L8.1 16.52C7.7 16.52 7.39 16.2 7.39 15.81L7.39 14.5C7.39 14.11 7.7 13.8 8.1 13.8L10.41 13.8C10.81 13.8 11.12 14.11 11.12 14.5L11.12 15.81Z" fill="#717681" fill-opacity="1.000000" fill-rule="evenodd"/>
	</g>
</svg>
