<svg width="24.000000" height="24.000000" viewBox="0 0 24 24" fill="none" xmlns="http://www.w3.org/2000/svg" xmlns:xlink="http://www.w3.org/1999/xlink">
	<desc>
			Created with Pixso.
	</desc>
	<defs>
		<clipPath id="clip17_1692">
			<rect id="Outline / Calendar Update Outline" width="24.000000" height="24.000000" fill="white" fill-opacity="0"/>
		</clipPath>
	</defs>
	<g >
		<path id="Shape" d="M7.46 2.65L7.46 4L7 4C5.34 4 4 5.34 4 7L4 17C4 18.65 5.34 20 7 20L9.88 20C10.24 20 10.53 19.7 10.53 19.35C10.53 18.99 10.24 18.7 9.88 18.7L7 18.7C6.06 18.7 5.29 17.93 5.29 17L5.29 10.62L18.7 10.62L18.7 11.4C18.7 11.76 18.99 12.05 19.35 12.05C19.7 12.05 20 11.76 20 11.4L20 7C20 5.34 18.65 4 17 4L16.53 4L16.53 2.65C16.53 2.29 16.24 2 15.88 2C15.52 2 15.23 2.29 15.23 2.65L15.23 4L12.64 4L12.64 2.65C12.64 2.29 12.35 2 12 2C11.64 2 11.35 2.29 11.35 2.65L11.35 4L8.76 4L8.76 2.65C8.76 2.29 8.47 2 8.11 2C7.75 2 7.46 2.29 7.46 2.65ZM7.46 6.86C7.46 7.22 7.75 7.51 8.11 7.51C8.47 7.51 8.76 7.22 8.76 6.86L8.76 5.29L11.35 5.29L11.35 6.86C11.35 7.22 11.64 7.51 12 7.51C12.35 7.51 12.64 7.22 12.64 6.86L12.64 5.29L15.23 5.29L15.23 6.86C15.23 7.22 15.52 7.51 15.88 7.51C16.24 7.51 16.53 7.22 16.53 6.86L16.53 5.29L17 5.29C17.93 5.29 18.7 6.06 18.7 7L18.7 9.32L5.29 9.32L5.29 7C5.29 6.06 6.06 5.29 7 5.29L7.46 5.29L7.46 6.86ZM14.42 17.74L15.27 18.57C15.52 18.82 15.93 18.82 16.19 18.56C16.44 18.31 16.43 17.89 16.18 17.64L14.3 15.8C14.04 15.54 13.63 15.55 13.38 15.8L11.53 17.68C11.28 17.94 11.28 18.35 11.54 18.6C11.8 18.86 12.21 18.85 12.46 18.6L13.13 17.92C13.32 20.21 15.24 22 17.58 22C20.04 22 22.04 20.01 22.04 17.54C22.04 15.07 20.04 13.07 17.58 13.07C17.07 13.07 16.57 13.16 16.11 13.32C15.77 13.44 15.59 13.81 15.71 14.15C15.83 14.49 16.2 14.66 16.54 14.55C16.86 14.43 17.21 14.37 17.58 14.37C19.33 14.37 20.74 15.79 20.74 17.54C20.74 19.29 19.33 20.7 17.58 20.7C15.9 20.7 14.52 19.39 14.42 17.74Z" fill="#74767B" fill-opacity="1.000000" fill-rule="evenodd"/>
	</g>
</svg>
