<svg width="24.000000" height="24.000000" viewBox="0 0 24 24" fill="none" xmlns="http://www.w3.org/2000/svg" xmlns:xlink="http://www.w3.org/1999/xlink">
	<desc>
			Created with Pixso.
	</desc>
	<defs>
		<clipPath id="clip17_1377">
			<rect id="Outline / Calendar Outline" width="24.000000" height="24.000000" fill="white" fill-opacity="0"/>
		</clipPath>
	</defs>
	<g clip-path="url(#clip17_1377)">
		<path id="Shape" d="M8.14 1.94C8.49 1.94 8.79 2.24 8.79 2.59L8.79 3.98L11.35 3.98L11.35 2.59C11.35 2.24 11.64 1.94 12 1.94C12.35 1.94 12.64 2.24 12.64 2.59L12.64 3.98L15.2 3.98L15.2 2.59C15.2 2.24 15.49 1.94 15.85 1.94C16.2 1.94 16.5 2.24 16.5 2.59L16.5 3.98L17 3.98C18.64 3.98 20 5.32 20 6.98L20 17.11C20 18.78 18.66 20.11 17 20.11L7 20.11C5.33 20.11 4 18.78 4 17.11L4 6.98C4 5.32 5.33 3.98 7 3.98L7.48 3.98L7.48 2.59C7.48 2.24 7.78 1.94 8.14 1.94ZM7.48 6.85L7.48 5.28L7 5.28C6.06 5.28 5.29 6.04 5.29 6.98L5.29 9.34L18.7 9.34L18.7 6.98C18.7 6.04 17.93 5.28 17 5.28L16.5 5.28L16.5 6.85C16.5 7.21 16.2 7.5 15.85 7.5C15.49 7.5 15.2 7.21 15.2 6.85L15.2 5.28L12.64 5.28L12.64 6.85C12.64 7.21 12.35 7.5 12 7.5C11.64 7.5 11.35 7.21 11.35 6.85L11.35 5.28L8.79 5.28L8.79 6.85C8.79 7.21 8.49 7.5 8.14 7.5C7.78 7.5 7.48 7.21 7.48 6.85ZM18.7 10.65L5.29 10.65L5.29 17.11C5.29 18.05 6.06 18.81 7 18.81L17 18.81C17.93 18.81 18.7 18.05 18.7 17.11L18.7 10.65ZM7.52 13.99C7.52 13.25 8.13 12.65 8.87 12.65L11.2 12.65C11.94 12.65 12.54 13.25 12.54 13.99L12.54 15.31C12.54 16.06 11.94 16.67 11.2 16.67L8.87 16.67C8.13 16.67 7.52 16.06 7.52 15.31L7.52 13.99ZM8.84 13.96C8.83 13.97 8.83 13.98 8.83 13.99L8.83 15.31C8.83 15.33 8.83 15.34 8.84 15.35C8.85 15.36 8.86 15.36 8.87 15.36L11.2 15.36C11.21 15.36 11.22 15.36 11.23 15.35C11.24 15.34 11.25 15.33 11.25 15.31L11.25 13.99C11.25 13.98 11.24 13.97 11.23 13.96C11.22 13.95 11.21 13.95 11.2 13.95L8.87 13.95C8.86 13.95 8.85 13.95 8.84 13.96Z" fill="#74767B" fill-opacity="1.000000" fill-rule="evenodd"/>
	</g>
</svg>
