<svg viewBox="0 0 24 24" xmlns="http://www.w3.org/2000/svg" xmlns:xlink="http://www.w3.org/1999/xlink" width="24.000000" height="24.000000" fill="none">
	<rect id="Solid/Camera Remove Solid" width="24.000000" height="24.000000" x="0.000000" y="0.000000" />
	<path id="Shape" d="M18.7706 3.12175C19.0547 3.34127 19.107 3.74949 18.8875 4.03353L5.19561 21.7497C4.97609 22.0338 4.56787 22.0861 4.28383 21.8665C3.99978 21.647 3.94748 21.2388 4.167 20.9548L5.029 19.8394C3.84869 19.4359 3 18.317 3 17L3 9.00001C3 7.34316 4.34315 6.00001 6 6.00001L7.65236 6.00001C8.08894 4.88292 9.17585 4.09162 10.4476 4.09162L13.5524 4.09162C14.6292 4.09162 15.5735 4.6589 16.1027 5.5109L17.8588 3.23858C18.0784 2.95453 18.4866 2.90223 18.7706 3.12175ZM11.0531 17.0617C11.362 17.1331 11.6838 17.1709 12.0143 17.1709C14.3616 17.1709 16.2643 15.2681 16.2643 12.9209C16.2643 12.2085 16.0891 11.5371 15.7793 10.9474C15.6377 10.6777 15.6413 10.3463 15.8276 10.1053L18.5976 6.52115C18.7765 6.28957 19.0848 6.18679 19.3462 6.3183C20.3271 6.81164 21 7.82724 21 9.00001L21 17C21 18.6569 19.6569 20 18 20L9.60619 20C9.02469 20 8.69673 19.3321 9.05233 18.872L10.2509 17.3211C10.4371 17.0802 10.7565 16.9931 11.0531 17.0617ZM18.4453 8.64849C17.8955 8.64849 17.4498 9.09868 17.4498 9.64849C17.4498 10.1983 17.8955 10.6485 18.4453 10.6485C18.9952 10.6485 19.4409 10.1983 19.4409 9.64849C19.4409 9.09868 18.9952 8.64849 18.4453 8.64849ZM9.36773 14.2254L8.51331 15.331C8.04094 14.6461 7.76434 13.8158 7.76434 12.9209C7.76434 10.5737 9.66713 8.67088 12.0143 8.67088C12.5236 8.67088 13.0119 8.76044 13.4644 8.92466L12.6094 10.0309C12.4172 9.99155 12.2182 9.97088 12.0143 9.97088C10.3851 9.97088 9.06434 11.2916 9.06434 12.9209C9.06434 13.3892 9.17349 13.8321 9.36773 14.2254ZM14.8371 12.0613C14.7726 11.8491 14.5025 11.8198 14.3669 11.9953L11.7124 15.43C11.5767 15.6056 11.6735 15.8597 11.8953 15.8685C11.9348 15.8701 11.9745 15.8709 12.0143 15.8709C13.6436 15.8709 14.9643 14.5501 14.9643 12.9209C14.9643 12.6219 14.9199 12.3332 14.8371 12.0613Z" fill="rgb(116,118,123)" fill-rule="evenodd" />
</svg>
