<svg width="24.000000" height="24.000000" viewBox="0 0 24 24" fill="none" xmlns="http://www.w3.org/2000/svg" xmlns:xlink="http://www.w3.org/1999/xlink">
	<desc>
			Created with Pixso.
	</desc>
	<defs>
		<clipPath id="clip17_1399">
			<rect id="Solid / Chevron Right Solid" width="24.000000" height="24.000000" fill="white" fill-opacity="0"/>
		</clipPath>
	</defs>
	<g clip-path="url(#clip17_1399)">
		<path id="Shape" d="M21 12C21 7.02 16.97 3 12 3C7.02 3 3 7.02 3 12C3 16.97 7.02 21 12 21C16.97 21 21 16.97 21 12ZM9.81 16.39C9.94 16.53 10.11 16.6 10.29 16.6C10.45 16.6 10.6 16.55 10.73 16.43L14.77 12.51C15.08 12.23 15.08 11.75 14.77 11.47L10.71 7.56C10.44 7.32 10.03 7.34 9.79 7.6C9.55 7.87 9.56 8.28 9.83 8.52L13.4 11.99L9.85 15.47C9.59 15.71 9.57 16.12 9.81 16.39Z" fill="#717681" fill-opacity="1.000000" fill-rule="evenodd"/>
	</g>
</svg>
