<svg width="24.000000" height="24.000000" viewBox="0 0 24 24" fill="none" xmlns="http://www.w3.org/2000/svg" xmlns:xlink="http://www.w3.org/1999/xlink">
	<desc>
			Created with Pixso.
	</desc>
	<defs>
		<clipPath id="clip17_1390">
			<rect id="Solid / Chevron Up Solid" width="24.000000" height="24.000000" fill="white" fill-opacity="0"/>
		</clipPath>
	</defs>
	<g clip-path="url(#clip17_1390)">
		<path id="Shape" d="M12 3C7.02 3 3 7.02 3 12C3 16.97 7.02 21 12 21C16.97 21 21 16.97 21 12C21 7.02 16.97 3 12 3ZM16.39 14.18C16.53 14.05 16.6 13.88 16.6 13.7C16.6 13.54 16.55 13.39 16.43 13.26L12.51 9.22C12.23 8.91 11.75 8.91 11.47 9.22L7.56 13.28C7.32 13.55 7.34 13.96 7.6 14.2C7.87 14.44 8.28 14.43 8.52 14.16L11.99 10.59L15.47 14.14C15.71 14.4 16.12 14.42 16.39 14.18Z" fill="#717681" fill-opacity="1.000000" fill-rule="evenodd"/>
	</g>
</svg>
