<svg width="24.000000" height="24.000000" viewBox="0 0 24 24" fill="none" xmlns="http://www.w3.org/2000/svg" xmlns:xlink="http://www.w3.org/1999/xlink">
	<desc>
			Created with Pixso.
	</desc>
	<defs>
		<clipPath id="clip17_1396">
			<rect id="Solid / Chevron Down Solid" width="24.000000" height="24.000000" fill="white" fill-opacity="0"/>
		</clipPath>
	</defs>
	<g clip-path="url(#clip17_1396)">
		<path id="Shape" d="M12 21C16.97 21 21 16.97 21 12C21 7.02 16.97 3 12 3C7.02 3 3 7.02 3 12C3 16.97 7.02 21 12 21ZM7.6 9.81C7.46 9.94 7.39 10.11 7.39 10.29C7.39 10.45 7.44 10.6 7.56 10.73L11.48 14.77C11.76 15.08 12.24 15.08 12.52 14.77L16.43 10.71C16.67 10.44 16.65 10.03 16.39 9.79C16.12 9.55 15.71 9.56 15.47 9.83L12 13.4L8.52 9.85C8.28 9.59 7.87 9.57 7.6 9.81Z" fill="#717681" fill-opacity="1.000000" fill-rule="evenodd"/>
	</g>
</svg>
