<svg width="24.000000" height="24.000000" viewBox="0 0 24 24" fill="none" xmlns="http://www.w3.org/2000/svg" xmlns:xlink="http://www.w3.org/1999/xlink">
	<desc>
			Created with Pixso.
	</desc>
	<defs>
		<clipPath id="clip127988_894">
			<rect id="Outline / Cloud Upload Outline" width="24.000000" height="24.000000" fill="white" fill-opacity="0"/>
		</clipPath>
	</defs>
	<g clip-path="url(#clip127988_894)">
		<path id="Shape" d="M17.55 18.97L5.33 18.97C3.49 18.97 2 17.48 2 15.64C2 13.8 3.49 12.31 5.33 12.31C5.4 12.31 5.45 12.24 5.44 12.17C5.37 11.8 5.33 11.41 5.33 11.02C5.33 7.64 8.07 4.91 11.44 4.91C14.47 4.91 16.99 7.12 17.47 10.02C17.47 10.06 17.51 10.08 17.55 10.08C20 10.08 21.99 12.07 21.99 14.53C21.99 16.98 20 18.97 17.55 18.97ZM5.34 17.67L5.33 17.67L5.33 17.67C4.21 17.67 3.3 16.76 3.3 15.64C3.3 14.52 4.21 13.61 5.33 13.61C6.2 13.61 6.89 12.82 6.72 11.93C6.66 11.64 6.63 11.33 6.63 11.02C6.63 8.36 8.78 6.21 11.44 6.21C13.83 6.21 15.81 7.95 16.18 10.23C16.29 10.89 16.87 11.38 17.55 11.38C19.29 11.38 20.69 12.79 20.69 14.53C20.69 16.26 19.29 17.67 17.55 17.67L17.54 17.67L12.59 17.67L12.59 14.26L14.07 15.82C14.31 16.08 14.72 16.1 14.99 15.86C15.13 15.73 15.2 15.56 15.2 15.38C15.2 15.22 15.15 15.07 15.03 14.94L12.46 12.23C12.18 11.92 11.7 11.92 11.42 12.23L8.95 14.94C8.71 15.21 8.73 15.62 8.99 15.86C9.26 16.1 9.67 16.09 9.91 15.82L11.29 14.27L11.29 17.67L5.34 17.67Z" fill="#74767B" fill-opacity="1.000000" fill-rule="evenodd"/>
	</g>
</svg>
