<svg viewBox="0 0 24 24" xmlns="http://www.w3.org/2000/svg" xmlns:xlink="http://www.w3.org/1999/xlink" width="24.000000" height="24.000000" fill="none">
	<rect id="Outline/Cloud Layers Outline" width="24.000000" height="24.000000" x="0.000000" y="0.000000" />
	<path id="Shape" d="M20.6212 6.1666L16.7646 4.23826C16.4469 4.07942 16.1292 4 15.8115 4C15.4938 4 15.1761 4.07942 14.8584 4.23826L11.1989 6.06803C7.93745 6.19549 5.33252 8.87977 5.33252 12.1725C5.33252 12.5678 5.37007 12.9543 5.44179 13.3288C5.45483 13.3968 5.40157 13.46 5.33228 13.46C3.49191 13.46 2 14.952 2 16.7923C2 18.6327 3.49191 20.1246 5.33228 20.1246L17.5506 20.1246C20.0044 20.1246 21.9937 18.1354 21.9937 15.6816C21.9937 14.0184 21.08 12.5686 19.727 11.8071L20.5853 11.378C20.8198 11.2607 20.9371 11.0709 20.9371 10.8086C20.9371 10.6775 20.9078 10.5645 20.8492 10.4696C20.7905 10.3747 20.7025 10.298 20.5853 10.2393L19.7145 9.80391L20.6212 9.35052C20.7385 9.29188 20.8265 9.21511 20.8851 9.12022C20.9438 9.02533 20.9731 8.91232 20.9731 8.78119C20.9731 8.51893 20.8558 8.32916 20.6212 8.21187L19.7146 7.75856L20.6212 7.30525C20.7385 7.24661 20.8265 7.16984 20.8851 7.07496C20.9438 6.98007 20.9731 6.86706 20.9731 6.73593C20.9731 6.6048 20.9438 6.49179 20.8851 6.39691C20.8265 6.30202 20.7385 6.22525 20.6212 6.1666ZM18.1579 12.5916L16.7645 13.2883C16.4469 13.4472 16.1292 13.5266 15.8115 13.5266C15.4938 13.5266 15.1761 13.4472 14.8584 13.2883L11.0377 11.378C10.8031 11.2607 10.6859 11.0709 10.6859 10.8086C10.6859 10.5464 10.8031 10.3566 11.0377 10.2393L11.9085 9.80391L11.0018 9.35052C10.8845 9.29188 10.7965 9.21511 10.7379 9.12023C10.6792 9.02534 10.6499 8.91233 10.6499 8.7812C10.6499 8.51893 10.7672 8.32916 11.0018 8.21187L11.9084 7.75856L11.1349 7.37184C10.5871 7.40271 10.074 7.51724 9.59553 7.71543C9.02876 7.9502 8.51062 8.30234 8.04109 8.77186C7.57157 9.24139 7.21943 9.75953 6.98466 10.3263C6.7499 10.8931 6.63252 11.5085 6.63252 12.1725C6.63252 12.4217 6.65126 12.668 6.68874 12.9114C6.69763 12.9692 6.70758 13.0267 6.71858 13.0842C6.76042 13.3026 6.7562 13.5091 6.70591 13.7037C6.65539 13.8992 6.55839 14.0827 6.41491 14.2542C6.27365 14.423 6.11268 14.5496 5.93199 14.6339C5.75171 14.718 5.55181 14.76 5.33228 14.76C5.05168 14.76 4.79162 14.8097 4.55212 14.9089C4.31261 15.0081 4.09365 15.1569 3.89524 15.3553C3.69683 15.5537 3.54802 15.7727 3.44881 16.0122C3.3496 16.2517 3.3 16.5117 3.3 16.7923C3.3 17.0729 3.3496 17.333 3.44881 17.5725C3.54802 17.812 3.69683 18.031 3.89524 18.2294C4.09365 18.4278 4.31261 18.5766 4.55212 18.6758C4.79129 18.7749 5.05094 18.8245 5.33108 18.8246L17.5506 18.8246C17.9846 18.8246 18.3868 18.7479 18.7572 18.5945C19.1276 18.441 19.4662 18.2109 19.7731 17.904C20.0799 17.5972 20.3101 17.2585 20.4635 16.8881C20.6169 16.5177 20.6937 16.1155 20.6937 15.6816C20.6937 15.2476 20.6169 14.8454 20.4635 14.475C20.3101 14.1046 20.0799 13.766 19.7731 13.4591C19.4662 13.1523 19.1276 12.9221 18.7572 12.7687C18.6399 12.7201 18.5194 12.6792 18.3957 12.646C18.3139 12.624 18.2284 12.6055 18.1579 12.5916ZM12.4931 6.74287L15.3817 8.18713C15.6682 8.33041 15.9548 8.33041 16.2413 8.18713L19.1437 6.73593L16.2413 5.28473C16.098 5.21309 15.9548 5.17727 15.8115 5.17727C15.6682 5.17727 15.5249 5.21309 15.3817 5.28472L12.4945 6.72833C12.4941 6.73319 12.4936 6.73804 12.4931 6.74287ZM15.8115 9.47186C16.1292 9.47186 16.4469 9.39244 16.7646 9.23359L18.4065 8.4126L19.1437 8.78119L16.2413 10.2324C15.9548 10.3757 15.6682 10.3757 15.3817 10.2324L12.4793 8.78119L13.2165 8.4126L14.8584 9.23359C15.1761 9.39244 15.4938 9.47186 15.8115 9.47186ZM12.5152 10.8086L15.3817 12.2419C15.6682 12.3851 15.9548 12.3851 16.2413 12.2419L19.1078 10.8086L18.4064 10.4579L16.7646 11.2789C16.4469 11.4377 16.1292 11.5171 15.8115 11.5171C15.4938 11.5171 15.1761 11.4377 14.8584 11.2789L13.2166 10.4579L12.5152 10.8086Z" fill="rgb(116,118,123)" fill-rule="evenodd" />
</svg>
