<svg viewBox="0 0 24 24" xmlns="http://www.w3.org/2000/svg" xmlns:xlink="http://www.w3.org/1999/xlink" width="24.000000" height="24.000000" fill="none">
	<rect id="Outline/Cloud Outline" width="24.000000" height="24.000000" x="0.000000" y="0.000000" />
	<path id="Shape" d="M5.34194 18.9756L5.33569 18.9756C3.49533 18.9756 2.00342 17.4837 2.00342 15.6433C2.00342 13.803 3.49533 12.3111 5.33569 12.3111C5.40499 12.3111 5.45825 12.2478 5.44521 12.1798C5.37349 11.8054 5.33594 11.4188 5.33594 11.0235C5.33594 7.64948 8.07111 4.91431 11.4451 4.91431C14.4774 4.91431 16.9937 7.1235 17.4723 10.0202C17.4789 10.0601 17.5136 10.0895 17.554 10.0895C20.0079 10.0895 21.9971 12.0788 21.9971 14.5326C21.9971 16.9864 20.0079 18.9756 17.554 18.9756L17.5468 18.9756L5.34194 18.9756ZM5.3345 17.6756L5.33569 17.6756L5.34194 17.6756L17.5468 17.6756L17.5479 17.6756L17.554 17.6756C17.988 17.6756 18.3902 17.5989 18.7606 17.4455C19.131 17.292 19.4696 17.0619 19.7765 16.755C20.0834 16.4482 20.3135 16.1095 20.4669 15.7391C20.6204 15.3687 20.6971 14.9665 20.6971 14.5326C20.6971 14.0986 20.6204 13.6964 20.4669 13.326C20.3135 12.9556 20.0834 12.617 19.7765 12.3101C19.4696 12.0033 19.131 11.7731 18.7606 11.6197C18.3902 11.4663 17.988 11.3895 17.554 11.3895C17.385 11.3895 17.226 11.3622 17.077 11.3076C16.9276 11.2528 16.7884 11.1706 16.6592 11.0609C16.5301 10.9513 16.4264 10.8274 16.3481 10.6891C16.27 10.5511 16.2172 10.3987 16.1897 10.2321C16.0978 9.67589 15.9236 9.16501 15.6672 8.69944C15.3947 8.2046 15.0292 7.76095 14.5708 7.36847C14.1248 6.98658 13.6435 6.69946 13.1269 6.50711C12.6027 6.31191 12.0421 6.21431 11.4451 6.21431C10.7811 6.21431 10.1657 6.33169 9.59894 6.56645C9.03218 6.80121 8.51403 7.15336 8.04451 7.62288C7.57499 8.09241 7.22284 8.61055 6.98808 9.17732L6.98808 9.17733C6.75332 9.74409 6.63594 10.3595 6.63594 11.0235C6.63594 11.2727 6.65468 11.519 6.69215 11.7624L6.69216 11.7624C6.70105 11.8202 6.711 11.8778 6.72199 11.9352C6.76384 12.1536 6.75962 12.3601 6.70932 12.5547C6.65881 12.7502 6.56181 12.9337 6.41833 13.1052C6.27707 13.274 6.1161 13.4006 5.93541 13.4849C5.75513 13.569 5.55522 13.6111 5.33569 13.6111C5.05509 13.6111 4.79504 13.6607 4.55553 13.7599C4.31603 13.8591 4.09707 14.0079 3.89866 14.2063C3.70024 14.4047 3.55143 14.6237 3.45223 14.8632C3.35302 15.1027 3.30342 15.3627 3.30342 15.6433C3.30342 15.9239 3.35302 16.184 3.45223 16.4235C3.55143 16.663 3.70024 16.882 3.89866 17.0804C4.09707 17.2788 4.31603 17.4276 4.55554 17.5268C4.79471 17.6259 5.05436 17.6755 5.3345 17.6756Z" fill="rgb(116,118,123)" fill-rule="evenodd" />
</svg>
