<svg width="24.000000" height="24.000000" viewBox="0 0 24 24" fill="none" xmlns="http://www.w3.org/2000/svg" xmlns:xlink="http://www.w3.org/1999/xlink">
	<desc>
			Created with Pixso.
	</desc>
	<defs>
		<clipPath id="clip127988_892">
			<rect id="Outline / Cloud Outline" width="24.000000" height="24.000000" fill="white" fill-opacity="0"/>
		</clipPath>
	</defs>
	<g >
		<path id="Shape" d="M5.34 18.97C5.33 18.97 5.33 18.97 5.33 18.97C3.49 18.97 2 17.48 2 15.64C2 13.8 3.49 12.31 5.33 12.31C5.4 12.31 5.45 12.24 5.44 12.17C5.37 11.8 5.33 11.41 5.33 11.02C5.33 7.64 8.07 4.91 11.44 4.91C14.47 4.91 16.99 7.12 17.47 10.02C17.47 10.06 17.51 10.08 17.55 10.08C20 10.08 21.99 12.07 21.99 14.53C21.99 16.98 20 18.97 17.55 18.97C17.55 18.97 17.54 18.97 17.54 18.97L5.34 18.97Z" fill="#717681" fill-opacity="0" fill-rule="nonzero"/>
		<path id="Shape" d="M5.34 18.97L5.33 18.97C3.49 18.97 2 17.48 2 15.64C2 13.8 3.49 12.31 5.33 12.31C5.4 12.31 5.45 12.24 5.44 12.17C5.37 11.8 5.33 11.41 5.33 11.02C5.33 7.64 8.07 4.91 11.44 4.91C14.47 4.91 16.99 7.12 17.47 10.02C17.47 10.06 17.51 10.08 17.55 10.08C20 10.08 21.99 12.07 21.99 14.53C21.99 16.98 20 18.97 17.55 18.97L17.54 18.97L5.34 18.97ZM5.33 17.67L5.33 17.67Q5.09 17.67 4.86 17.62Q4.7 17.58 4.54 17.51Q4.38 17.44 4.23 17.35Q4.05 17.23 3.89 17.08Q3.74 16.92 3.62 16.74Q3.53 16.59 3.46 16.43Q3.39 16.27 3.35 16.11Q3.3 15.88 3.3 15.64Q3.3 15.39 3.35 15.16Q3.39 15 3.46 14.85Q3.53 14.68 3.62 14.54Q3.74 14.36 3.89 14.2Q4.05 14.05 4.23 13.93Q4.38 13.83 4.54 13.77Q4.7 13.7 4.86 13.66Q5.09 13.61 5.33 13.61Q5.49 13.61 5.65 13.57Q5.8 13.54 5.94 13.47Q6.08 13.4 6.2 13.31Q6.31 13.22 6.41 13.1Q6.51 12.98 6.58 12.85Q6.65 12.71 6.69 12.57Q6.74 12.41 6.74 12.25Q6.75 12.09 6.72 11.93Q6.7 11.84 6.69 11.76Q6.63 11.39 6.63 11.02Q6.63 10.46 6.75 9.93Q6.85 9.53 7.01 9.15Q7.18 8.75 7.41 8.39Q7.68 7.98 8.04 7.62Q8.4 7.26 8.81 6.99Q9.17 6.75 9.57 6.59Q9.95 6.42 10.36 6.33Q10.88 6.21 11.44 6.21Q11.96 6.21 12.46 6.32Q12.8 6.39 13.14 6.52Q13.49 6.65 13.82 6.84Q14.21 7.06 14.57 7.36Q14.9 7.65 15.18 7.99Q15.42 8.29 15.62 8.64Q15.84 9.02 15.98 9.43Q16.12 9.81 16.18 10.23Q16.2 10.35 16.25 10.47Q16.29 10.58 16.35 10.69Q16.41 10.79 16.49 10.89Q16.56 10.98 16.65 11.06Q16.75 11.13 16.85 11.19Q16.95 11.25 17.06 11.3Q17.18 11.34 17.3 11.36Q17.42 11.38 17.55 11.38Q17.92 11.38 18.27 11.47Q18.52 11.53 18.77 11.63Q19.03 11.74 19.26 11.89Q19.53 12.07 19.77 12.31Q20.01 12.54 20.19 12.82Q20.34 13.05 20.45 13.3Q20.55 13.55 20.61 13.81Q20.69 14.16 20.69 14.53Q20.69 14.9 20.61 15.25Q20.55 15.5 20.45 15.75Q20.34 16.01 20.19 16.24Q20.01 16.51 19.77 16.75Q19.53 16.99 19.26 17.17Q19.03 17.32 18.77 17.42Q18.52 17.53 18.27 17.59Q17.92 17.67 17.55 17.67L17.54 17.67L17.54 17.67L5.34 17.67L5.33 17.67Z" fill="#74767B" fill-opacity="1.000000" fill-rule="evenodd"/>
	</g>
</svg>
