<svg width="24.000000" height="24.000000" viewBox="0 0 24 24" fill="none" xmlns="http://www.w3.org/2000/svg" xmlns:xlink="http://www.w3.org/1999/xlink">
	<desc>
			Created with Pixso.
	</desc>
	<defs>
		<clipPath id="clip127988_895">
			<rect id="Solid / Cloud Upload Solid" width="24.000000" height="24.000000" fill="white" fill-opacity="0"/>
		</clipPath>
	</defs>
	<g >
		<path id="Shape" d="M5.33 19.03L10.59 19.03C10.97 19.03 11.29 18.71 11.29 18.33L11.29 14.32L9.91 15.87C9.67 16.14 9.26 16.15 8.99 15.91C8.73 15.67 8.71 15.26 8.95 14.99L11.42 12.28C11.7 11.97 12.18 11.97 12.46 12.28L15.03 14.99C15.15 15.12 15.2 15.27 15.2 15.43C15.2 15.61 15.13 15.78 14.99 15.91C14.72 16.15 14.31 16.13 14.07 15.87L12.59 14.32L12.59 18.33C12.59 18.71 12.9 19.03 13.29 19.03L17.55 19.03C20 19.03 21.99 17.04 21.99 14.58C21.99 12.29 20.25 10.4 18.02 10.16C17.97 10.16 17.91 10.15 17.86 10.13C17.61 10.05 17.43 9.83 17.36 9.58C16.7 6.93 14.3 4.96 11.44 4.96C8.07 4.96 5.33 7.7 5.33 11.07C5.33 11.29 5.34 11.5 5.36 11.72C5.39 12 5.23 12.28 4.96 12.37C4.92 12.38 4.89 12.39 4.85 12.4C3.24 12.63 2 14.02 2 15.69C2 17.53 3.49 19.03 5.33 19.03Z" fill="#74767B" fill-opacity="1.000000" fill-rule="evenodd"/>
	</g>
</svg>
