<svg width="24.000000" height="24.000000" viewBox="0 0 24 24" fill="none" xmlns="http://www.w3.org/2000/svg" xmlns:xlink="http://www.w3.org/1999/xlink">
	<desc>
			Created with Pixso.
	</desc>
	<defs>
		<clipPath id="clip127988_898">
			<rect id="Outline / Cloud Done Outline" width="24.000000" height="24.000000" fill="white" fill-opacity="0"/>
		</clipPath>
	</defs>
	<g clip-path="url(#clip127988_898)">
		<path id="Shape" d="M5.33 18.97L17.55 18.97C20 18.97 21.99 16.98 21.99 14.53C21.99 12.07 20 10.08 17.55 10.08C17.51 10.08 17.47 10.06 17.47 10.02C16.99 7.12 14.47 4.91 11.44 4.91C8.07 4.91 5.33 7.64 5.33 11.02C5.33 11.41 5.37 11.8 5.44 12.17C5.45 12.24 5.4 12.31 5.33 12.31C3.49 12.31 2 13.8 2 15.64C2 17.48 3.49 18.97 5.33 18.97ZM5.33 17.67L5.34 17.67L17.54 17.67L17.55 17.67C19.29 17.67 20.69 16.26 20.69 14.53C20.69 12.79 19.29 11.38 17.55 11.38C16.87 11.38 16.29 10.89 16.18 10.23C15.81 7.95 13.83 6.21 11.44 6.21C8.78 6.21 6.63 8.36 6.63 11.02C6.63 11.33 6.66 11.64 6.72 11.93C6.89 12.82 6.2 13.61 5.33 13.61C4.21 13.61 3.3 14.52 3.3 15.64C3.3 16.76 4.21 17.67 5.33 17.67L5.33 17.67ZM11.58 16.42C11.31 16.71 10.85 16.72 10.57 16.44L8.2 14.06C7.95 13.81 7.95 13.39 8.2 13.14C8.45 12.89 8.87 12.89 9.12 13.14L11.05 15.08L14.29 11.57C14.53 11.3 14.95 11.29 15.21 11.53C15.47 11.77 15.49 12.18 15.25 12.45L11.58 16.42Z" fill="#74767B" fill-opacity="1.000000" fill-rule="evenodd"/>
	</g>
</svg>
