<svg width="24.000000" height="24.000000" viewBox="0 0 24 24" fill="none" xmlns="http://www.w3.org/2000/svg" xmlns:xlink="http://www.w3.org/1999/xlink">
	<desc>
			Created with Pixso.
	</desc>
	<defs>
		<clipPath id="clip127988_897">
			<rect id="Solid / Cloud Not Available Solid" width="24.000000" height="24.000000" fill="white" fill-opacity="0"/>
		</clipPath>
	</defs>
	<g>
		<path id="Shape" d="M5.29 2.32C5.07 2.04 4.66 1.98 4.38 2.2C4.09 2.42 4.04 2.83 4.26 3.11L18.56 21.7C18.78 21.99 19.19 22.04 19.47 21.82C19.76 21.6 19.81 21.19 19.59 20.91L18.08 18.94C20.28 18.68 21.99 16.8 21.99 14.53C21.99 12.23 20.25 10.35 18.02 10.11C17.97 10.1 17.91 10.09 17.86 10.08C17.61 9.99 17.43 9.78 17.36 9.52C16.7 6.87 14.3 4.91 11.44 4.91C10.19 4.91 9.03 5.28 8.06 5.93L5.29 2.32ZM6.24 7.81C5.66 8.75 5.33 9.84 5.33 11.02C5.33 11.24 5.34 11.45 5.36 11.66C5.39 11.95 5.23 12.23 4.96 12.32C4.93 12.33 4.89 12.33 4.85 12.34C3.24 12.57 2 13.96 2 15.64C2 17.48 3.49 18.97 5.33 18.97L14.82 18.97L6.24 7.81Z" fill="#717681" fill-opacity="1.000000" fill-rule="evenodd"/>
	</g>
</svg>
