<svg width="24.000000" height="24.000000" viewBox="0 0 24 24" fill="none" xmlns="http://www.w3.org/2000/svg" xmlns:xlink="http://www.w3.org/1999/xlink">
	<desc>
			Created with Pixso.
	</desc>
	<defs>
		<clipPath id="clip127988_893">
			<rect id="Solid / Cloud Solid" width="24.000000" height="24.000000" fill="white" fill-opacity="0"/>
		</clipPath>
	</defs>
	<g clip-path="url(#clip127988_893)">
		<path id="Shape" d="M5.33 18.97C3.49 18.97 2 17.48 2 15.64C2 13.96 3.24 12.57 4.85 12.34C4.89 12.33 4.93 12.33 4.96 12.32C5.23 12.22 5.39 11.95 5.36 11.66C5.34 11.45 5.33 11.24 5.33 11.02C5.33 7.64 8.07 4.91 11.44 4.91C14.3 4.91 16.7 6.87 17.36 9.52C17.43 9.78 17.61 9.99 17.86 10.08C17.91 10.09 17.97 10.1 18.02 10.11C20.25 10.35 21.99 12.23 21.99 14.53C21.99 16.98 20 18.97 17.55 18.97L5.33 18.97Z" fill="#74767B" fill-opacity="1.000000" fill-rule="nonzero"/>
	</g>
</svg>
