<svg width="24.000000" height="24.000000" viewBox="0 0 24 24" fill="none" xmlns="http://www.w3.org/2000/svg" xmlns:xlink="http://www.w3.org/1999/xlink">
	<desc>
			Created with Pixso.
	</desc>
	<defs>
		<clipPath id="clip127988_899">
			<rect id="Solid / Cloud Done Solid" width="24.000000" height="24.000000" fill="white" fill-opacity="0"/>
		</clipPath>
	</defs>
	<g clip-path="url(#clip127988_899)">
		<path id="Shape" d="M5.33 18.97L17.55 18.97C20 18.97 21.99 16.98 21.99 14.53C21.99 12.23 20.25 10.35 18.02 10.11C17.97 10.1 17.91 10.09 17.86 10.08C17.61 9.99 17.43 9.78 17.36 9.52C16.7 6.87 14.3 4.91 11.44 4.91C8.07 4.91 5.33 7.64 5.33 11.02C5.33 11.24 5.34 11.45 5.36 11.66C5.39 11.95 5.23 12.22 4.96 12.32C4.93 12.33 4.89 12.33 4.85 12.34C3.24 12.57 2 13.96 2 15.64C2 17.48 3.49 18.97 5.33 18.97ZM10.57 16.44C10.85 16.72 11.31 16.71 11.58 16.42L15.25 12.45C15.49 12.18 15.47 11.77 15.21 11.53C14.95 11.29 14.53 11.3 14.29 11.57L11.05 15.08L9.12 13.14C8.87 12.89 8.45 12.89 8.2 13.14C7.95 13.39 7.95 13.81 8.2 14.06L10.57 16.44Z" fill="#717681" fill-opacity="1.000000" fill-rule="evenodd"/>
	</g>
</svg>
