<svg viewBox="0 0 24 24" xmlns="http://www.w3.org/2000/svg" xmlns:xlink="http://www.w3.org/1999/xlink" width="24.000000" height="24.000000" fill="none">
	<rect id="Solid/Cloud Layers Solid" width="24.000000" height="24.000000" x="0.000000" y="0.000000" />
	<path id="Shape" d="M20.6178 6.1666L16.7611 4.23826C16.4435 4.07942 16.1258 4 15.8081 4C15.4904 4 15.1727 4.07942 14.855 4.23826L11.3757 5.97795C8.03207 6.01336 5.33252 8.73481 5.33252 12.0868C5.33252 12.4821 5.37007 12.8686 5.44179 13.2431C5.43204 13.2934 5.38719 13.3744 5.33228 13.3744C3.49191 13.3744 2 14.8663 2 16.7066C2 18.547 3.49191 20.0389 5.33228 20.0389L5.33852 20.0389L17.5434 20.0389L17.5506 20.0389C20.0044 20.0389 21.9937 18.0497 21.9937 15.5959C21.9937 13.9649 21.115 12.5391 19.8051 11.7663L20.5818 11.378C20.8164 11.2607 20.9337 11.0709 20.9337 10.8086C20.9337 10.6775 20.9044 10.5645 20.8457 10.4696C20.7871 10.3747 20.6991 10.298 20.5818 10.2393L19.711 9.80391L20.6178 9.35052C20.7351 9.29188 20.8231 9.21511 20.8817 9.12022C20.9404 9.02533 20.9697 8.91232 20.9697 8.78119C20.9697 8.51893 20.8524 8.32916 20.6178 8.21187L19.7112 7.75856L20.6178 7.30525C20.7351 7.24661 20.8231 7.16984 20.8817 7.07496C20.9404 6.98007 20.9697 6.86706 20.9697 6.73593C20.9697 6.6048 20.9404 6.49179 20.8817 6.39691C20.8231 6.30202 20.7351 6.22525 20.6178 6.1666ZM5.44179 13.2431C5.44307 13.2365 5.44375 13.24 5.44377 13.2434C5.44379 13.2468 5.44315 13.2501 5.44179 13.2431ZM12.4758 6.73593L15.3783 5.28472C15.5215 5.21309 15.6648 5.17727 15.8081 5.17727C15.9514 5.17727 16.0946 5.21309 16.2379 5.28473L19.1403 6.73593L16.2379 8.18713C15.9514 8.33041 15.6648 8.33041 15.3783 8.18713L12.4758 6.73593ZM15.8081 9.47186C16.1258 9.47186 16.4435 9.39244 16.7611 9.23359L18.4031 8.4126L19.1403 8.78119L16.2379 10.2324C15.9514 10.3757 15.6648 10.3757 15.3783 10.2324L12.4758 8.78119L13.213 8.4126L14.855 9.23359C15.1727 9.39244 15.4904 9.47186 15.8081 9.47186ZM12.5118 10.8086L15.3782 12.2419C15.6648 12.3851 15.9513 12.3851 16.2379 12.2419L19.1043 10.8086L18.403 10.4579L16.7611 11.2789C16.4434 11.4377 16.1258 11.5171 15.8081 11.5171C15.4904 11.5171 15.1727 11.4377 14.855 11.2789L13.2132 10.4579L12.5118 10.8086Z" fill="rgb(116,118,123)" fill-rule="evenodd" />
</svg>
