<svg width="24.000000" height="24.000000" viewBox="0 0 24 24" fill="none" xmlns="http://www.w3.org/2000/svg" xmlns:xlink="http://www.w3.org/1999/xlink">
	<desc>
			Created with Pixso.
	</desc>
	<defs>
		<clipPath id="clip17_1671">
			<rect id="Outline / Dark Mode Outline" width="24.000000" height="24.000000" fill="white" fill-opacity="0"/>
		</clipPath>
	</defs>
	<g>
		<path id="Shape" d="M18.61 13.73C18.85 13.62 19.12 13.82 19.05 14.07C18.16 17.12 15.34 19.35 12 19.35C7.94 19.35 4.64 16.05 4.64 12C4.64 8.66 6.87 5.84 9.92 4.94C10.17 4.87 10.37 5.14 10.26 5.38C9.9 6.17 9.7 7.06 9.7 7.99C9.7 11.47 12.52 14.29 16 14.29C16.93 14.29 17.82 14.09 18.61 13.73ZM20.64 12C20.64 11.64 20.35 11.35 20 11.35C19.74 11.35 19.56 11.51 19.38 11.67C19.36 11.7 19.33 11.72 19.3 11.74C18.42 12.52 17.26 12.99 16 12.99C13.23 12.99 11 10.76 11 7.99C11 6.73 11.47 5.57 12.25 4.69C12.27 4.66 12.3 4.63 12.32 4.61C12.48 4.43 12.64 4.25 12.64 4C12.64 3.64 12.35 3.35 12 3.35C7.22 3.35 3.35 7.22 3.35 12C3.35 16.77 7.22 20.65 12 20.65C16.77 20.65 20.64 16.77 20.64 12Z" fill="#717681" fill-opacity="1.000000" fill-rule="evenodd"/>
	</g>
</svg>
