<svg width="24.000000" height="24.000000" viewBox="0 0 24 24" fill="none" xmlns="http://www.w3.org/2000/svg" xmlns:xlink="http://www.w3.org/1999/xlink">
	<desc>
			Created with Pixso.
	</desc>
	<defs>
		<clipPath id="clip17_1668">
			<rect id="Solid / Dark Mode Solid" width="24.000000" height="24.000000" fill="white" fill-opacity="0"/>
		</clipPath>
	</defs>
	<g clip-path="url(#clip17_1668)">
		<path id="Union" d="M20 11.35C20.35 11.35 20.64 11.64 20.64 12C20.64 16.77 16.77 20.65 12 20.65C7.22 20.65 3.35 16.77 3.35 12C3.35 7.22 7.22 3.35 12 3.35C12.35 3.35 12.64 3.64 12.64 4C12.64 4.29 12.42 4.49 12.25 4.69C11.47 5.57 11 6.73 11 7.99C11 10.76 13.23 12.99 16 12.99C17.26 12.99 18.42 12.52 19.3 11.74C19.5 11.57 19.7 11.35 20 11.35Z" fill="#74767B" fill-opacity="1.000000" fill-rule="nonzero"/>
		<path id="Union" d="M20 11.35C20.35 11.35 20.64 11.64 20.64 12C20.64 16.77 16.77 20.65 12 20.65C7.22 20.65 3.35 16.77 3.35 12C3.35 7.22 7.22 3.35 12 3.35C12.35 3.35 12.64 3.64 12.64 4C12.64 4.29 12.42 4.49 12.25 4.69C11.47 5.57 11 6.73 11 7.99C11 10.76 13.23 12.99 16 12.99C17.26 12.99 18.42 12.52 19.3 11.74C19.5 11.57 19.7 11.35 20 11.35ZM19.21 13.42L19.21 13.42Q18.76 13.68 18.26 13.87Q17.78 14.06 17.27 14.17Q16.65 14.29 16 14.29Q15.3 14.29 14.64 14.15Q14.08 14.03 13.54 13.8Q13 13.57 12.53 13.26Q12 12.91 11.54 12.45Q11.08 11.99 10.73 11.46Q10.42 10.99 10.19 10.45Q9.96 9.91 9.84 9.35Q9.7 8.69 9.7 7.99Q9.7 7.34 9.82 6.72Q9.93 6.21 10.12 5.73Q10.31 5.23 10.57 4.78L10.57 4.78Q10.46 4.8 10.35 4.83Q9.73 4.97 9.13 5.22Q8.52 5.48 7.98 5.84Q7.34 6.25 6.8 6.8Q6.25 7.34 5.84 7.98Q5.48 8.52 5.22 9.13Q4.97 9.73 4.83 10.35Q4.64 11.15 4.64 12Q4.64 12.84 4.83 13.64Q4.97 14.26 5.22 14.86Q5.48 15.47 5.84 16.01Q6.25 16.65 6.8 17.19Q7.34 17.74 7.98 18.15Q8.52 18.51 9.13 18.77Q9.73 19.02 10.35 19.16Q11.15 19.35 12 19.35Q12.84 19.35 13.64 19.16Q14.26 19.02 14.86 18.77Q15.47 18.51 16.01 18.15Q16.65 17.74 17.19 17.19Q17.74 16.65 18.15 16.01Q18.51 15.47 18.77 14.86Q19.02 14.26 19.16 13.64Q19.19 13.53 19.21 13.42Z" fill="#74767B" fill-opacity="1.000000" fill-rule="evenodd"/>
	</g>
</svg>
