<svg width="24.000000" height="24.000000" viewBox="0 0 24 24" fill="none" xmlns="http://www.w3.org/2000/svg" xmlns:xlink="http://www.w3.org/1999/xlink">
	<desc>
			Created with Pixso.
	</desc>
	<defs>
		<clipPath id="clip17_1245">
			<rect id="Outline / Delete Outline" width="24.000000" height="24.000000" fill="white" fill-opacity="0"/>
		</clipPath>
	</defs>
	<g clip-path="url(#clip17_1245)">
		<path id="Shape" d="M12.65 2.66C12.65 2.31 12.35 2.01 12 2.01C11.64 2.01 11.35 2.31 11.35 2.66L11.35 4.65L4.33 4.65C3.97 4.65 3.68 4.94 3.68 5.3C3.68 5.65 3.97 5.95 4.33 5.95L5.02 5.95L5.78 17.44C5.88 19.02 7.18 20.25 8.77 20.25L15.13 20.25C16.7 20.25 18.03 19.02 18.12 17.44L18.89 5.95L19.68 5.95C20.03 5.95 20.33 5.65 20.33 5.3C20.33 4.94 20.03 4.65 19.68 4.65L12.65 4.65L12.65 2.66ZM7.08 17.35L6.37 5.95L17.54 5.95L16.84 17.36C16.78 18.25 16.04 18.95 15.14 18.95L8.78 18.95C7.88 18.95 7.14 18.25 7.08 17.35ZM10.18 8.47C10.53 8.47 10.83 8.76 10.83 9.12L10.83 15.47C10.83 15.82 10.53 16.12 10.18 16.12C9.82 16.12 9.53 15.82 9.53 15.47L9.53 9.12C9.53 8.76 9.82 8.47 10.18 8.47ZM14.48 9.12C14.48 8.76 14.18 8.47 13.83 8.47C13.47 8.47 13.18 8.76 13.18 9.12L13.18 15.47C13.18 15.82 13.47 16.12 13.83 16.12C14.18 16.12 14.48 15.82 14.48 15.47L14.48 9.12Z" fill="#717681" fill-opacity="1.000000" fill-rule="evenodd"/>
	</g>
</svg>
