<svg viewBox="0 0 24 24" xmlns="http://www.w3.org/2000/svg" xmlns:xlink="http://www.w3.org/1999/xlink" width="24.000000" height="24.000000" fill="none">
	<rect id="Solid/Discs Solid" width="24.000000" height="24.000000" x="0.000000" y="0.000000" />
	<path id="Shape" d="M6.95068 4.10254C5.29383 4.10254 3.95068 5.44568 3.95068 7.10254L3.95068 8.06412C3.95068 9.72097 5.29383 11.0641 6.95068 11.0641L17.0145 11.0641C18.6713 11.0641 20.0145 9.72097 20.0145 8.06412L20.0145 7.10254C20.0145 5.44568 18.6713 4.10254 17.0145 4.10254L6.95068 4.10254ZM14.6839 7.58335C14.6839 7.22436 14.9749 6.93335 15.3339 6.93335L16.7798 6.93335C17.1387 6.93335 17.4298 7.22436 17.4298 7.58335C17.4298 7.94234 17.1387 8.23335 16.7798 8.23335L15.3339 8.23335C14.9749 8.23335 14.6839 7.94233 14.6839 7.58335ZM6.95068 12.9363C5.29383 12.9363 3.95068 14.2794 3.95068 15.9363L3.95068 16.8979C3.95068 18.5547 5.29383 19.8979 6.95068 19.8979L17.0145 19.8979C18.6713 19.8979 20.0145 18.5547 20.0145 16.8979L20.0145 15.9363C20.0145 14.2794 18.6713 12.9363 17.0145 12.9363L6.95068 12.9363ZM14.6839 16.417C14.6839 16.058 14.9749 15.767 15.3339 15.767L16.7798 15.767C17.1387 15.767 17.4298 16.058 17.4298 16.417C17.4298 16.776 17.1387 17.067 16.7798 17.067L15.3339 17.067C14.9749 17.067 14.6839 16.776 14.6839 16.417Z" fill="rgb(116,118,123)" fill-rule="evenodd" />
</svg>
