<svg width="24.000000" height="24.000000" viewBox="0 0 24 24" fill="none" xmlns="http://www.w3.org/2000/svg" xmlns:xlink="http://www.w3.org/1999/xlink">
	<desc>
			Created with Pixso.
	</desc>
	<defs>
		<clipPath id="clip5179_750">
			<rect id="Outline / Double Arrow Left Outline" width="24.000000" height="24.000000" fill="white" fill-opacity="0"/>
		</clipPath>
	</defs>
	<g >
		<path id="Shape" d="M11 7.78C11.18 7.78 11.35 7.85 11.48 7.99C11.72 8.26 11.7 8.67 11.44 8.91L7.95 12.06L11.43 15.08C11.7 15.32 11.71 15.73 11.47 16C11.23 16.26 10.82 16.28 10.55 16.04L6.58 12.58C6.27 12.3 6.27 11.82 6.58 11.54L10.56 7.95C10.69 7.83 10.84 7.78 11 7.78ZM15 7.78C15.18 7.78 15.35 7.85 15.48 7.99C15.72 8.26 15.7 8.67 15.44 8.91L11.95 12.06L15.43 15.08C15.7 15.32 15.71 15.73 15.47 16C15.23 16.26 14.82 16.28 14.55 16.04L10.58 12.58C10.27 12.3 10.27 11.82 10.58 11.54L14.56 7.95C14.69 7.83 14.84 7.78 15 7.78Z" fill="#74767B" fill-opacity="1.000000" fill-rule="evenodd"/>
	</g>
</svg>
