<svg width="24" height="24" viewBox="0 0 24 24" fill="none" xmlns="http://www.w3.org/2000/svg">
<path d="M11.4833 7.99888C11.3533 7.85888 11.1833 7.78888 11.0033 7.78888C10.8433 7.78888 10.6933 7.83888 10.5633 7.95888L6.58016 11.5451C6.27016 11.8251 6.27016 12.3051 6.58016 12.5851L10.5594 16.0429C10.8294 16.2829 11.2394 16.2629 11.4794 16.0029C11.7194 15.7329 11.7094 15.3229 11.4394 15.0829L7.95015 12.0651L11.4433 8.91888C11.7033 8.67888 11.7233 8.26888 11.4833 7.99888Z" fill="#717681"/>
<path d="M15.4833 7.99888C15.3533 7.85888 15.1833 7.78888 15.0033 7.78888C14.8433 7.78888 14.6933 7.83888 14.5633 7.95888L10.5802 11.5451C10.2702 11.8251 10.2702 12.3051 10.5802 12.5851L14.5594 16.0429C14.8294 16.2829 15.2394 16.2629 15.4794 16.0029C15.7194 15.7329 15.7094 15.3229 15.4394 15.0829L11.9502 12.0651L15.4433 8.91888C15.7033 8.67888 15.7233 8.26888 15.4833 7.99888Z" fill="#717681"/>
</svg>
