<svg width="24.000000" height="24.000000" viewBox="0 0 24 24" fill="none" xmlns="http://www.w3.org/2000/svg" xmlns:xlink="http://www.w3.org/1999/xlink">
	<desc>
			Created with Pixso.
	</desc>
	<defs>
		<clipPath id="clip107027_909">
			<rect id="Outline / Double Arrow Up Outline" width="24.000000" height="24.000000" transform="translate(24.000000 24.000000) rotate(180.000000)" fill="white" fill-opacity="0"/>
		</clipPath>
	</defs>
	<g >
		<path id="Shape" d="M7.78 16C7.78 16.18 7.85 16.35 7.99 16.48C8.26 16.72 8.67 16.7 8.91 16.44L12.06 12.95L15.08 16.43C15.32 16.7 15.73 16.71 16 16.47C16.26 16.23 16.28 15.82 16.04 15.55L12.58 11.58C12.3 11.27 11.82 11.27 11.54 11.58L7.95 15.56C7.83 15.69 7.78 15.84 7.78 16ZM7.78 12C7.78 12.18 7.85 12.35 7.99 12.48C8.26 12.72 8.67 12.7 8.91 12.44L12.06 8.95L15.08 12.43C15.32 12.7 15.73 12.71 16 12.47C16.26 12.23 16.28 11.82 16.04 11.55L12.58 7.58C12.3 7.27 11.82 7.27 11.54 7.58L7.95 11.56C7.83 11.69 7.78 11.84 7.78 12Z" fill="#74767B" fill-opacity="1.000000" fill-rule="evenodd"/>
	</g>
</svg>
