<svg width="24.000000" height="24.000000" viewBox="0 0 24 24" fill="none" xmlns="http://www.w3.org/2000/svg" xmlns:xlink="http://www.w3.org/1999/xlink">
	<desc>
			Created with Pixso.
	</desc>
	<defs>
		<clipPath id="clip5179_749">
			<rect id="Solid / Double Arrow Right Solid" width="24.000000" height="24.000000" fill="white" fill-opacity="0"/>
		</clipPath>
	</defs>
	<g>
		<path id="Shape" d="M12 3C7.02 3 3 7.02 3 12C3 16.97 7.02 21 12 21C16.97 21 21 16.97 21 12C21 7.02 16.97 3 12 3ZM13.03 15.33C12.85 15.33 12.68 15.26 12.55 15.12C12.31 14.85 12.33 14.44 12.59 14.2L15.09 11.95L12.6 9.79C12.33 9.55 12.32 9.14 12.56 8.87C12.8 8.61 13.21 8.59 13.48 8.83L16.46 11.43C16.77 11.71 16.77 12.19 16.46 12.47L13.47 15.16C13.34 15.28 13.19 15.33 13.03 15.33ZM9.13 15.33C8.95 15.33 8.78 15.26 8.65 15.12C8.41 14.85 8.43 14.44 8.69 14.2L11.19 11.95L8.7 9.79C8.43 9.55 8.42 9.14 8.66 8.87C8.9 8.61 9.31 8.59 9.58 8.83L12.56 11.43C12.87 11.71 12.87 12.19 12.56 12.47L9.57 15.16C9.44 15.28 9.29 15.33 9.13 15.33Z" fill="#717681" fill-opacity="1.000000" fill-rule="evenodd"/>
	</g>
</svg>
