<svg width="24.000000" height="24.000000" viewBox="0 0 24 24" fill="none" xmlns="http://www.w3.org/2000/svg" xmlns:xlink="http://www.w3.org/1999/xlink">
	<desc>
			Created with Pixso.
	</desc>
	<defs>
		<clipPath id="clip17_1497">
			<rect id="Solid / Download Solid" width="24.000000" height="24.000000" fill="white" fill-opacity="0"/>
		</clipPath>
	</defs>
	<g >
		<path id="Shape" d="M3 12C3 7.02 7.02 3 12 3C16.97 3 21 7.02 21 12C21 16.97 16.97 21 12 21C7.02 21 3 16.97 3 12ZM12.68 6.65C12.68 6.29 12.39 6 12.03 6C11.67 6 11.38 6.29 11.38 6.65L11.38 11.78L9.41 9.68C9.18 9.42 8.77 9.4 8.5 9.65C8.35 9.77 8.29 9.95 8.29 10.13C8.29 10.29 8.33 10.44 8.45 10.57L11.51 13.78C11.79 14.09 12.27 14.09 12.55 13.78L15.54 10.57C15.77 10.3 15.76 9.89 15.5 9.65C15.23 9.4 14.81 9.41 14.58 9.68L12.68 11.73L12.68 6.65ZM7.35 16.65C7.35 16.29 7.64 16 8 16L16 16C16.35 16 16.64 16.29 16.64 16.65C16.64 17 16.35 17.29 16 17.29L8 17.29C7.64 17.29 7.35 17 7.35 16.65Z" fill="#74767B" fill-opacity="1.000000" fill-rule="evenodd"/>
	</g>
</svg>
