<svg width="24.000000" height="24.000000" viewBox="0 0 24 24" fill="none" xmlns="http://www.w3.org/2000/svg" xmlns:xlink="http://www.w3.org/1999/xlink">
	<desc>
			Created with Pixso.
	</desc>
	<defs>
		<clipPath id="clip17_1490">
			<rect id="Outline / Download Outline" width="24.000000" height="24.000000" fill="white" fill-opacity="0"/>
		</clipPath>
	</defs>
	<g>
		<path id="Shape" d="M6.42 10.77C6.28 10.9 6.21 11.07 6.21 11.25C6.21 11.41 6.26 11.56 6.38 11.69L11.48 16.62C11.76 16.94 12.24 16.94 12.52 16.62L17.25 11.61C17.49 11.34 17.47 10.93 17.21 10.69C16.94 10.45 16.53 10.46 16.29 10.73L12.65 14.57L12.65 4.65C12.65 4.29 12.35 4 12 4C11.64 4 11.35 4.29 11.35 4.65L11.35 14.63L7.34 10.81C7.1 10.55 6.69 10.53 6.42 10.77ZM5 18.85C4.64 18.85 4.35 19.14 4.35 19.5C4.35 19.85 4.64 20.15 5 20.15L19 20.15C19.35 20.15 19.64 19.85 19.64 19.5C19.64 19.14 19.35 18.85 19 18.85L5 18.85Z" fill="#717681" fill-opacity="1.000000" fill-rule="evenodd"/>
	</g>
</svg>
