<svg viewBox="0 0 24 24" xmlns="http://www.w3.org/2000/svg" xmlns:xlink="http://www.w3.org/1999/xlink" width="24.000000" height="24.000000" fill="none">
	<rect id="Solid/Edit Solid" width="24.000000" height="24.000000" x="0.000000" y="0.000000" />
	<path id="Shape" d="M17.8838 3.88369C17.3761 3.37601 16.553 3.37601 16.0453 3.88369L14.9126 5.01638C14.6418 5.28718 14.6389 5.72532 14.9061 5.9997L16.9244 8.07252C17.1967 8.35211 17.645 8.3551 17.9209 8.07915L19.0404 6.95964C19.5481 6.45196 19.5481 5.62884 19.0404 5.12116L17.8838 3.88369ZM13.9998 6.93229L16.0182 9.00511C16.2853 9.27949 16.2824 9.71763 16.0116 9.98843L8.56807 17.432C8.17049 17.8296 7.66918 18.1074 7.12132 18.2339L5.39022 18.6333C4.45413 18.8494 4.15558 18.47 4.3716 17.5339L4.77109 15.8028C4.89752 15.2549 5.17537 14.7536 5.57294 14.3561L13.0033 6.92566C13.2793 6.64972 13.7276 6.6527 13.9998 6.93229Z" fill="rgb(116,118,123)" fill-rule="evenodd" />
</svg>
