<svg width="24.000000" height="24.000000" viewBox="0 0 24 24" fill="none" xmlns="http://www.w3.org/2000/svg" xmlns:xlink="http://www.w3.org/1999/xlink">
	<desc>
			Created with Pixso.
	</desc>
	<defs>
		<clipPath id="clip17_1263">
			<rect id="Solid / Edit Solid" width="24.000000" height="24.000000" fill="white" fill-opacity="0"/>
		</clipPath>
	</defs>
	<g >
		<path id="Shape" d="M16.04 3.88C16.55 3.37 17.37 3.37 17.88 3.88L19.04 5.12C19.54 5.62 19.54 6.45 19.04 6.95L17.92 8.07C17.64 8.35 17.19 8.35 16.92 8.07L14.9 5.99C14.63 5.72 14.64 5.28 14.91 5.01L16.04 3.88ZM14 6.93L16.01 9C16.28 9.27 16.28 9.71 16.01 9.98L8.56 17.43C8.17 17.82 7.66 18.1 7.12 18.23L5.39 18.63C4.45 18.84 4.15 18.46 4.37 17.53L4.77 15.8C4.89 15.25 5.17 14.75 5.57 14.35L13 6.92C13.27 6.64 13.72 6.65 14 6.93Z" fill="#74767B" fill-opacity="1.000000" fill-rule="evenodd"/>
	</g>
</svg>
