<svg width="24.000000" height="24.000000" viewBox="0 0 24 24" fill="none" xmlns="http://www.w3.org/2000/svg" xmlns:xlink="http://www.w3.org/1999/xlink">
	<desc>
			Created with Pixso.
	</desc>
	<defs>
		<clipPath id="clip17_1251">
			<rect id="Outline / Email Outline" width="24.000000" height="24.000000" fill="white" fill-opacity="0"/>
		</clipPath>
	</defs>
	<g >
		<path id="Shape" d="M6 5C4.33 5 3 6.34 3 8L3 16C3 17.66 4.33 19 6 19L18 19C19.66 19 21 17.66 21 16L21 8C21 6.34 19.64 5 18 5L6 5ZM19.7 8.94L15.35 12.22L17.92 14.15C18.2 14.37 18.26 14.77 18.05 15.06C17.83 15.35 17.42 15.41 17.14 15.19L14.27 13.03L14.09 13.16C12.79 14.14 11 14.14 9.7 13.16L9.52 13.03L6.65 15.19C6.37 15.41 5.96 15.35 5.74 15.06C5.53 14.77 5.58 14.37 5.87 14.15L8.44 12.22L4.29 9.09L4.29 16C4.29 16.94 5.06 17.7 6 17.7L18 17.7C18.93 17.7 19.7 16.94 19.7 16L19.7 8.94ZM18 6.29C18.72 6.29 19.34 6.75 19.59 7.4L13.31 12.13C12.47 12.76 11.32 12.76 10.48 12.13L4.36 7.52C4.57 6.81 5.22 6.29 6 6.29L18 6.29Z" fill="#74767B" fill-opacity="1.000000" fill-rule="evenodd"/>
	</g>
</svg>
