<svg width="24.000000" height="24.000000" viewBox="0 0 24 24" fill="none" xmlns="http://www.w3.org/2000/svg" xmlns:xlink="http://www.w3.org/1999/xlink">
	<desc>
			Created with Pixso.
	</desc>
	<defs>
		<clipPath id="clip17_1555">
			<rect id="Outline / Email Read Outline" width="24.000000" height="24.000000" fill="white" fill-opacity="0"/>
		</clipPath>
	</defs>
	<g >
		<path id="Shape" d="M19.76 8.41L14.1 4.21C12.79 3.24 11 3.26 9.71 4.24L4.43 8.27C3.57 8.8 3 9.75 3 10.84L3 17.5C3 19.16 4.33 20.5 6 20.5L18 20.5C19.66 20.5 21 19.16 21 17.5L21 10.84C21 9.84 20.51 8.96 19.76 8.41ZM13.32 5.26C12.48 4.63 11.33 4.64 10.49 5.28C10.02 5.63 9.54 6.01 9.04 6.38C7.68 7.42 6.27 8.5 5.06 9.42L10.48 13.5C11.32 14.13 12.47 14.13 13.31 13.5L18.83 9.34L13.32 5.26ZM19.63 10.37L15.35 13.59L17.92 15.53C18.2 15.74 18.26 16.15 18.05 16.44C17.83 16.72 17.42 16.78 17.14 16.56L14.27 14.41L14.09 14.54C12.79 15.52 11 15.52 9.7 14.54L9.52 14.41L6.65 16.56C6.37 16.78 5.96 16.72 5.74 16.44C5.53 16.15 5.58 15.74 5.87 15.53L8.44 13.59L4.33 10.5C4.31 10.61 4.29 10.72 4.29 10.84L4.29 17.5C4.29 18.44 5.06 19.2 6 19.2L18 19.2C18.93 19.2 19.7 18.44 19.7 17.5L19.7 10.84C19.7 10.67 19.67 10.52 19.63 10.37Z" fill="#74767B" fill-opacity="1.000000" fill-rule="evenodd"/>
	</g>
</svg>
