<svg viewBox="0 0 24 24" xmlns="http://www.w3.org/2000/svg" xmlns:xlink="http://www.w3.org/1999/xlink" width="24.000000" height="24.000000" fill="none">
	<rect id="Solid/Email Solid" width="24.000000" height="24.000000" x="0.000000" y="0.000000" />
	<path id="Shape" d="M3.85106 6.90722C3.57889 6.69492 3.4959 6.30912 3.72052 6.04703C4.27022 5.40564 5.08668 5 6 5L18 5C18.9166 5 19.7406 5.4135 20.292 6.06566C20.5159 6.3304 20.4286 6.71734 20.1525 6.92701L13.3458 12.096C12.4967 12.7408 11.3199 12.7331 10.4792 12.0774L3.85106 6.90722ZM4.1319 8.645C3.67232 8.28652 3.00157 8.61215 3.00139 9.195C3.00085 11.0144 3 14.1413 3 16C3 17.66 4.34 19 6 19L18 19C19.66 19 21 17.66 21 16C21 15.0936 21.0081 14.1859 21.0161 13.2779C21.0284 11.9018 21.0406 10.5248 21.0248 9.14991C21.0182 8.57996 20.3669 8.26657 19.913 8.61128L15.3407 12.0834L17.9233 14.0264C18.2101 14.2423 18.2677 14.6498 18.0519 14.9366C17.836 15.2235 17.4285 15.2811 17.1417 15.0653L14.2646 12.9006L14.132 13.0013C12.8131 14.0028 10.9854 13.9909 9.67963 12.9724L9.56193 12.8806L9.56056 12.8816L6.65835 15.0653C6.3715 15.2811 5.96399 15.2235 5.74815 14.9366C5.53232 14.6498 5.5899 14.2423 5.87676 14.0264L8.50031 12.0525L4.1319 8.645Z" fill="rgb(116,118,123)" fill-rule="evenodd" />
</svg>
