<svg width="24" height="24" viewBox="0 0 24 24" fill="none" xmlns="http://www.w3.org/2000/svg">
<path d="M12.0006 14.766C11.0698 14.766 10.2462 14.3069 9.74389 13.5998C9.53597 13.3072 9.13019 13.2385 8.83754 13.4464C8.5449 13.6543 8.47622 14.0601 8.68414 14.3528C9.41985 15.3883 10.6311 16.066 12.0006 16.066C13.3702 16.066 14.5814 15.3883 15.3171 14.3528C15.525 14.0601 15.4564 13.6543 15.1637 13.4464C14.8711 13.2385 14.4653 13.3072 14.2574 13.5998C13.755 14.3069 12.9314 14.766 12.0006 14.766Z" fill="#717681"/>
<path d="M14.25 9.36954C14.6642 9.36954 15 9.70533 15 10.1195C15 10.5338 14.6642 10.8695 14.25 10.8695C13.8358 10.8695 13.5 10.5338 13.5 10.1195C13.5 9.70533 13.8358 9.36954 14.25 9.36954Z" fill="#717681"/>
<path d="M10.5 10.1195C10.5 9.70533 10.1642 9.36954 9.75 9.36954C9.33579 9.36954 9 9.70533 9 10.1195C9 10.5338 9.33579 10.8695 9.75 10.8695C10.1642 10.8695 10.5 10.5338 10.5 10.1195Z" fill="#717681"/>
<path fill-rule="evenodd" clip-rule="evenodd" d="M21 12C21 16.9706 16.9706 21 12 21C7.02944 21 3 16.9706 3 12C3 7.02944 7.02944 3 12 3C16.9706 3 21 7.02944 21 12ZM19.7 12C19.7 16.2526 16.2526 19.7 12 19.7C7.74741 19.7 4.3 16.2526 4.3 12C4.3 7.74741 7.74741 4.3 12 4.3C16.2526 4.3 19.7 7.74741 19.7 12Z" fill="#717681"/>
</svg>
