<svg width="25" height="24" viewBox="0 0 25 24" fill="none" xmlns="http://www.w3.org/2000/svg">
<path d="M12.0163 13.9202C11.0855 13.9202 10.2619 14.3794 9.75952 15.0864C9.5516 15.3791 9.14581 15.4477 8.85317 15.2398C8.56053 15.0319 8.49185 14.6261 8.69977 14.3335C9.43548 13.298 10.6467 12.6202 12.0163 12.6202C13.3858 12.6202 14.597 13.298 15.3327 14.3335C15.5407 14.6261 15.472 15.0319 15.1793 15.2398C14.8867 15.4477 14.4809 15.3791 14.273 15.0864C13.7706 14.3794 12.9471 13.9202 12.0163 13.9202Z" fill="#717681"/>
<path d="M14.2656 9.36954C14.6798 9.36954 15.0156 9.70533 15.0156 10.1195C15.0156 10.5338 14.6798 10.8695 14.2656 10.8695C13.8514 10.8695 13.5156 10.5338 13.5156 10.1195C13.5156 9.70533 13.8514 9.36954 14.2656 9.36954Z" fill="#717681"/>
<path d="M10.5156 10.1195C10.5156 9.70533 10.1798 9.36954 9.76562 9.36954C9.35141 9.36954 9.01562 9.70533 9.01562 10.1195C9.01562 10.5338 9.35141 10.8695 9.76562 10.8695C10.1798 10.8695 10.5156 10.5338 10.5156 10.1195Z" fill="#717681"/>
<path fill-rule="evenodd" clip-rule="evenodd" d="M21.0156 12C21.0156 16.9706 16.9862 21 12.0156 21C7.04506 21 3.01562 16.9706 3.01562 12C3.01562 7.02944 7.04506 3 12.0156 3C16.9862 3 21.0156 7.02944 21.0156 12ZM19.7156 12C19.7156 16.2526 16.2682 19.7 12.0156 19.7C7.76303 19.7 4.31562 16.2526 4.31562 12C4.31562 7.74741 7.76303 4.3 12.0156 4.3C16.2682 4.3 19.7156 7.74741 19.7156 12Z" fill="#717681"/>
</svg>
