<svg width="25" height="24" viewBox="0 0 25 24" fill="none" xmlns="http://www.w3.org/2000/svg">
<path fill-rule="evenodd" clip-rule="evenodd" d="M12.5 21C17.4706 21 21.5 16.9706 21.5 12C21.5 7.02944 17.4706 3 12.5 3C7.52944 3 3.5 7.02944 3.5 12C3.5 16.9706 7.52944 21 12.5 21ZM15.5 10.1195C15.5 9.70533 15.1642 9.36954 14.75 9.36954C14.3358 9.36954 14 9.70533 14 10.1195C14 10.5338 14.3358 10.8695 14.75 10.8695C15.1642 10.8695 15.5 10.5338 15.5 10.1195ZM12.5006 14.766C11.5698 14.766 10.7462 14.3069 10.2439 13.5998C10.036 13.3072 9.63019 13.2385 9.33754 13.4464C9.0449 13.6543 8.97622 14.0601 9.18414 14.3528C9.91985 15.3883 11.1311 16.066 12.5006 16.066C13.8702 16.066 15.0814 15.3883 15.8171 14.3528C16.025 14.0601 15.9564 13.6543 15.6637 13.4464C15.3711 13.2385 14.9653 13.3072 14.7574 13.5998C14.255 14.3069 13.4314 14.766 12.5006 14.766ZM10.25 9.36954C10.6642 9.36954 11 9.70533 11 10.1195C11 10.5338 10.6642 10.8695 10.25 10.8695C9.83579 10.8695 9.5 10.5338 9.5 10.1195C9.5 9.70533 9.83579 9.36954 10.25 9.36954Z" fill="#717681"/>
</svg>
