<svg width="24.000000" height="24.000000" viewBox="0 0 24 24" fill="none" xmlns="http://www.w3.org/2000/svg" xmlns:xlink="http://www.w3.org/1999/xlink">
	<desc>
			Created with Pixso.
	</desc>
	<defs>
		<clipPath id="clip121950_895">
			<rect id="Outline / Emoji Neutal Outline" width="24.000000" height="24.000000" fill="white" fill-opacity="0"/>
		</clipPath>
	</defs>
	<g >
		<path id="Shape" d="M12 21C16.97 21 21 16.97 21 12C21 7.02 16.97 3 12 3C7.02 3 3 7.02 3 12C3 16.97 7.02 21 12 21ZM12 19.7C16.25 19.7 19.7 16.25 19.7 12C19.7 7.74 16.25 4.3 12 4.3C7.74 4.3 4.29 7.74 4.29 12C4.29 16.25 7.74 19.7 12 19.7ZM10.5 10.11C10.5 9.7 10.16 9.36 9.75 9.36C9.33 9.36 9 9.7 9 10.11C9 10.53 9.33 10.86 9.75 10.86C10.16 10.86 10.5 10.53 10.5 10.11ZM15 10.11C15 9.7 14.66 9.36 14.25 9.36C13.83 9.36 13.5 9.7 13.5 10.11C13.5 10.53 13.83 10.86 14.25 10.86C14.66 10.86 15 10.53 15 10.11ZM9.21 14.62C8.85 14.62 8.56 14.33 8.56 13.97C8.56 13.61 8.85 13.32 9.21 13.32L14.78 13.32C15.14 13.32 15.43 13.61 15.43 13.97C15.43 14.33 15.14 14.62 14.78 14.62L9.21 14.62Z" fill="#74767B" fill-opacity="1.000000" fill-rule="evenodd"/>
	</g>
</svg>
