<svg width="24.000000" height="24.000000" viewBox="0 0 24 24" fill="none" xmlns="http://www.w3.org/2000/svg" xmlns:xlink="http://www.w3.org/1999/xlink">
	<desc>
			Created with Pixso.
	</desc>
	<defs>
		<clipPath id="clip121950_892">
			<rect id="Solid / Emoji Smile Solid" width="24.000000" height="24.000000" fill="white" fill-opacity="0"/>
		</clipPath>
	</defs>
	<g clip-path="url(#clip121950_892)">
		<path id="Shape" d="M12 21C16.97 21 21 16.97 21 12C21 7.02 16.97 3 12 3C7.02 3 3 7.02 3 12C3 16.97 7.02 21 12 21ZM15 10.11C15 9.7 14.66 9.36 14.25 9.36C13.83 9.36 13.5 9.7 13.5 10.11C13.5 10.53 13.83 10.86 14.25 10.86C14.66 10.86 15 10.53 15 10.11ZM12 14.76C11.06 14.76 10.24 14.3 9.74 13.59C9.53 13.3 9.13 13.23 8.83 13.44C8.54 13.65 8.47 14.06 8.68 14.35C9.41 15.38 10.63 16.06 12 16.06C13.37 16.06 14.58 15.38 15.31 14.35C15.52 14.06 15.45 13.65 15.16 13.44C14.87 13.23 14.46 13.3 14.25 13.59C13.75 14.3 12.93 14.76 12 14.76ZM9.75 9.36C10.16 9.36 10.5 9.7 10.5 10.11C10.5 10.53 10.16 10.86 9.75 10.86C9.33 10.86 9 10.53 9 10.11C9 9.7 9.33 9.36 9.75 9.36Z" fill="#74767B" fill-opacity="1.000000" fill-rule="evenodd"/>
		<path id="Shape" d="" fill="#000000" fill-opacity="0" fill-rule="evenodd"/>
	</g>
</svg>
