<svg width="24.000000" height="24.000000" viewBox="0 0 24 24" fill="none" xmlns="http://www.w3.org/2000/svg" xmlns:xlink="http://www.w3.org/1999/xlink">
	<desc>
			Created with Pixso.
	</desc>
	<defs>
		<clipPath id="clip121950_893">
			<rect id="Outline / Emoji Sad Outline" width="24.000000" height="24.000000" fill="white" fill-opacity="0"/>
		</clipPath>
	</defs>
	<g >
		<path id="Shape" d="M12 21C16.97 21 21 16.97 21 12C21 7.02 16.97 3 12 3C7.02 3 3 7.02 3 12C3 16.97 7.02 21 12 21ZM12 19.7C16.25 19.7 19.7 16.25 19.7 12C19.7 7.74 16.25 4.3 12 4.3C7.74 4.3 4.29 7.74 4.29 12C4.29 16.25 7.74 19.7 12 19.7ZM10.5 10.11C10.5 9.7 10.16 9.36 9.75 9.36C9.33 9.36 9 9.7 9 10.11C9 10.53 9.33 10.86 9.75 10.86C10.16 10.86 10.5 10.53 10.5 10.11ZM15 10.11C15 9.7 14.66 9.36 14.25 9.36C13.83 9.36 13.5 9.7 13.5 10.11C13.5 10.53 13.83 10.86 14.25 10.86C14.66 10.86 15 10.53 15 10.11ZM9.74 15.08C10.24 14.37 11.06 13.92 12 13.92C12.93 13.92 13.75 14.37 14.25 15.08C14.46 15.37 14.87 15.44 15.16 15.23C15.45 15.03 15.52 14.62 15.31 14.33C14.58 13.29 13.37 12.62 12 12.62C10.63 12.62 9.41 13.29 8.68 14.33C8.47 14.62 8.54 15.03 8.83 15.23C9.13 15.44 9.53 15.37 9.74 15.08Z" fill="#74767B" fill-opacity="1.000000" fill-rule="evenodd"/>
	</g>
</svg>
