<svg width="24.000000" height="24.000000" viewBox="0 0 24 24" fill="none" xmlns="http://www.w3.org/2000/svg" xmlns:xlink="http://www.w3.org/1999/xlink">
	<desc>
			Created with Pixso.
	</desc>
	<defs>
		<clipPath id="clip121950_893">
			<rect id="Outline / Emoji Sad Outline" width="24.000000" height="24.000000" transform="translate(-0.984375 0.000000)" fill="white" fill-opacity="0"/>
		</clipPath>
	</defs>
	<g>
		<path id="Shape" d="M11.01 21C15.98 21 20.01 16.97 20.01 12C20.01 7.02 15.98 3 11.01 3C6.04 3 2.01 7.02 2.01 12C2.01 16.97 6.04 21 11.01 21ZM11.01 19.7C15.26 19.7 18.71 16.25 18.71 12C18.71 7.74 15.26 4.3 11.01 4.3C6.76 4.3 3.31 7.74 3.31 12C3.31 16.25 6.76 19.7 11.01 19.7ZM9.51 10.11C9.51 9.7 9.17 9.36 8.76 9.36C8.35 9.36 8.01 9.7 8.01 10.11C8.01 10.53 8.35 10.86 8.76 10.86C9.17 10.86 9.51 10.53 9.51 10.11ZM14.01 10.11C14.01 9.7 13.67 9.36 13.26 9.36C12.85 9.36 12.51 9.7 12.51 10.11C12.51 10.53 12.85 10.86 13.26 10.86C13.67 10.86 14.01 10.53 14.01 10.11ZM8.75 15.08C9.26 14.37 10.08 13.92 11.01 13.92C11.94 13.92 12.77 14.37 13.27 15.08C13.48 15.37 13.88 15.44 14.17 15.23C14.47 15.03 14.54 14.62 14.33 14.33C13.59 13.29 12.38 12.62 11.01 12.62C9.64 12.62 8.43 13.29 7.69 14.33C7.49 14.62 7.56 15.03 7.85 15.23C8.14 15.44 8.55 15.37 8.75 15.08Z" fill="#717681" fill-opacity="1.000000" fill-rule="evenodd"/>
	</g>
</svg>
