<svg width="24.000000" height="24.000000" viewBox="0 0 24 24" fill="none" xmlns="http://www.w3.org/2000/svg" xmlns:xlink="http://www.w3.org/1999/xlink">
	<desc>
			Created with Pixso.
	</desc>
	<defs>
		<clipPath id="clip17_1290">
			<rect id="Solid / Exit Solid" width="24.000000" height="24.000000" fill="white" fill-opacity="0"/>
		</clipPath>
	</defs>
	<g >
		<path id="Shape" d="M15 4.3L8 4.3C7.84 4.3 7.7 4.31 7.56 4.35L9.66 5.56C10.27 5.9 10.64 6.55 10.64 7.25L10.64 16.63C10.64 17.33 10.27 17.98 9.66 18.32L7.43 19.6C7.61 19.66 7.8 19.7 8 19.7L15 19.7C15.93 19.7 16.7 18.93 16.7 18L16.7 17.65C16.7 17.29 16.99 17 17.35 17C17.7 17 18 17.29 18 17.65L18 18C18 19.65 16.65 21 15 21L8 21C6.34 21 5 19.65 5 18L5 6C5 4.34 6.34 3 8 3L15 3C16.65 3 18 4.34 18 6L18 6.35C18 6.7 17.7 7 17.35 7C16.99 7 16.7 6.7 16.7 6.35L16.7 6C16.7 5.06 15.93 4.3 15 4.3ZM17.48 15.21C17.29 15.21 17.12 15.14 17 15C16.75 14.73 16.77 14.32 17.04 14.08L18.59 12.59L13.64 12.59C13.29 12.59 13 12.3 13 11.94C13 11.58 13.29 11.29 13.64 11.29L18.59 11.29L17.04 9.92C16.77 9.68 16.75 9.27 17 9C17.24 8.74 17.64 8.72 17.91 8.96L20.62 11.42C20.93 11.7 20.93 12.18 20.62 12.46L17.91 15.04C17.79 15.16 17.64 15.21 17.48 15.21Z" fill="#74767B" fill-opacity="1.000000" fill-rule="evenodd"/>
	</g>
</svg>
