<svg width="24.000000" height="24.000000" viewBox="0 0 24 24" fill="none" xmlns="http://www.w3.org/2000/svg" xmlns:xlink="http://www.w3.org/1999/xlink">
	<desc>
			Created with Pixso.
	</desc>
	<defs>
		<clipPath id="clip17_1531">
			<rect id="Solid / Eyedropper Solid" width="24.000000" height="24.000000" fill="white" fill-opacity="0"/>
		</clipPath>
	</defs>
	<g>
		<path id="Shape" d="M16.2 12.92C15.95 13.17 15.55 13.17 15.29 12.93C15.29 12.93 15.28 12.92 15.28 12.91L10.72 8.36C10.72 8.36 10.71 8.35 10.71 8.35C10.48 8.09 10.48 7.7 10.73 7.45C10.98 7.2 11.39 7.2 11.65 7.45L12.19 7.99L15.43 4.75C16.41 3.77 17.99 3.77 18.97 4.75C19.95 5.72 19.95 7.31 18.97 8.28L15.73 11.53L16.2 12C16.45 12.25 16.45 12.67 16.2 12.92ZM12.51 12.9C12.76 12.65 13.17 12.65 13.43 12.9C13.68 13.16 13.68 13.57 13.43 13.82L8.27 18.98C7.44 19.82 6.16 19.94 5.19 19.34L4.51 20.02C4.26 20.28 3.85 20.28 3.59 20.02C3.34 19.77 3.34 19.36 3.59 19.1L4.3 18.39C3.79 17.45 3.94 16.24 4.74 15.44L9.89 10.29C10.15 10.03 10.56 10.03 10.81 10.29C11.07 10.54 11.07 10.95 10.81 11.21L5.66 16.36C5.19 16.83 5.19 17.59 5.66 18.06C6.12 18.53 6.88 18.53 7.35 18.06L12.51 12.9Z" fill="#717681" fill-opacity="1.000000" fill-rule="evenodd"/>
	</g>
</svg>
