<svg viewBox="0 0 24 24" xmlns="http://www.w3.org/2000/svg" xmlns:xlink="http://www.w3.org/1999/xlink" width="24.000000" height="24.000000" fill="none">
	<rect id="Solid/Eyedropper Solid" width="24.000000" height="24.000000" x="0.000000" y="0.000000" />
	<path id="Shape" d="M16.2049 12.925C15.9556 13.1742 15.5543 13.1787 15.2996 12.9385C15.2934 12.9318 15.287 12.9251 15.2805 12.9186L10.7291 8.36719C10.7245 8.36259 10.7198 8.35808 10.7151 8.35365C10.4805 8.09863 10.4869 7.70162 10.7342 7.45431C10.988 7.20047 11.3996 7.20047 11.6534 7.45431L12.1951 7.996L15.4392 4.75188C16.4156 3.77557 17.9985 3.77558 18.9748 4.75189C19.9511 5.7282 19.9511 7.31111 18.9748 8.28742L15.7307 11.5315L16.2049 12.0057C16.4587 12.2596 16.4587 12.6711 16.2049 12.925ZM13.4332 12.9098C13.1793 12.6559 12.7678 12.6559 12.5139 12.9098L7.35798 18.0657C6.88935 18.5344 6.12956 18.5344 5.66093 18.0657C5.1923 17.5971 5.1923 16.8373 5.66093 16.3687L10.8169 11.2127C11.0707 10.9589 11.0707 10.5473 10.8169 10.2935C10.563 10.0396 10.1515 10.0396 9.89765 10.2935L4.74169 15.4494C3.9429 16.2482 3.79766 17.4531 4.30595 18.3995L3.59858 19.1069C3.34474 19.3607 3.34474 19.7723 3.59858 20.0261C3.85242 20.28 4.26398 20.28 4.51782 20.0261L5.1978 19.3462C6.16151 19.941 7.44157 19.8206 8.27722 18.985L13.4332 13.829C13.687 13.5752 13.687 13.1636 13.4332 12.9098Z" fill="rgb(116,118,123)" fill-rule="evenodd" />
</svg>
