<svg width="24.000000" height="24.000000" viewBox="0 0 24 24" fill="none" xmlns="http://www.w3.org/2000/svg" xmlns:xlink="http://www.w3.org/1999/xlink">
	<desc>
			Created with Pixso.
	</desc>
	<defs>
		<clipPath id="clip17_1528">
			<rect id="Outline / Eyedropper Outline" width="24.000000" height="24.000000" fill="white" fill-opacity="0"/>
		</clipPath>
	</defs>
	<g>
		<path id="Shape" d="M15.28 12.92L14.81 12.45L8.27 18.98C7.44 19.82 6.16 19.94 5.19 19.34L4.51 20.02C4.26 20.28 3.85 20.28 3.59 20.02C3.34 19.77 3.34 19.36 3.59 19.1L4.3 18.39C3.79 17.45 3.94 16.24 4.74 15.44L11.27 8.91L10.73 8.37C10.48 8.11 10.48 7.7 10.73 7.45C10.98 7.2 11.39 7.2 11.65 7.45L12.19 7.99L15.43 4.75C16.41 3.77 17.99 3.77 18.97 4.75C19.95 5.72 19.95 7.31 18.97 8.28L15.73 11.53L16.2 12C16.45 12.25 16.45 12.67 16.2 12.92C15.95 13.17 15.53 13.17 15.28 12.92ZM7.35 18.06L13.89 11.53L12.19 9.83L5.66 16.36C5.19 16.83 5.19 17.59 5.66 18.06C6.12 18.53 6.88 18.53 7.35 18.06ZM16.35 5.67L13.11 8.91L14.81 10.61L18.05 7.36C18.52 6.89 18.52 6.13 18.05 5.67C17.58 5.2 16.82 5.2 16.35 5.67Z" fill="#717681" fill-opacity="1.000000" fill-rule="evenodd"/>
	</g>
</svg>
