<svg viewBox="0 0 24 24" xmlns="http://www.w3.org/2000/svg" xmlns:xlink="http://www.w3.org/1999/xlink" width="24.000000" height="24.000000" fill="none">
	<rect id="Outline/Filter Alt Outline" width="24.000000" height="24.000000" x="0.000000" y="0.000000" />
	<path id="Shape" d="M3.7501 6.30005L20.2501 6.30005C20.6141 6.30005 20.9001 6.58605 20.9001 6.95005C20.9001 7.31405 20.6141 7.60005 20.2501 7.60005L3.7501 7.60005C3.3861 7.60005 3.1001 7.31405 3.1001 6.95005C3.1001 6.58605 3.3861 6.30005 3.7501 6.30005ZM6.5001 11.3L17.5001 11.3C17.8641 11.3 18.1501 11.586 18.1501 11.95C18.1501 12.314 17.8641 12.6 17.5001 12.6L6.5001 12.6C6.1361 12.6 5.8501 12.314 5.8501 11.95C5.8501 11.586 6.1361 11.3 6.5001 11.3ZM8.5001 17.6L15.5001 17.6C15.8641 17.6 16.1501 17.314 16.1501 16.95C16.1501 16.586 15.8641 16.3 15.5001 16.3L8.5001 16.3C8.1361 16.3 7.8501 16.586 7.8501 16.95C7.8501 17.314 8.1361 17.6 8.5001 17.6Z" fill="rgb(116,118,123)" fill-rule="evenodd" />
</svg>
