<svg width="24.000000" height="24.000000" viewBox="0 0 24 24" fill="none" xmlns="http://www.w3.org/2000/svg" xmlns:xlink="http://www.w3.org/1999/xlink">
	<desc>
			Created with Pixso.
	</desc>
	<defs>
		<clipPath id="clip17_1284">
			<rect id="Solid / Filter Solid" width="24.000000" height="24.000000" fill="white" fill-opacity="0"/>
		</clipPath>
	</defs>
	<g >
		<path id="Shape" d="M3.78 4.69C3.42 4.69 3.13 4.99 3.13 5.34C3.13 5.7 3.42 5.99 3.78 5.99L4.4 5.99L4.56 7.26C4.87 10.37 6.5 12.99 10.25 14.49L10.25 19.73C10.25 20.12 10.66 20.36 11 20.17L13.24 18.88C13.4 18.79 13.5 18.63 13.5 18.45L13.5 14.49C17 13.49 19.06 10.46 19.39 7.26C19.39 7.26 19.49 6.5 19.54 5.99L20.21 5.99C20.57 5.99 20.86 5.7 20.86 5.34C20.86 4.99 20.57 4.69 20.21 4.69L3.78 4.69Z" fill="#74767B" fill-opacity="1.000000" fill-rule="nonzero"/>
	</g>
</svg>
