<svg viewBox="0 0 24 24" xmlns="http://www.w3.org/2000/svg" xmlns:xlink="http://www.w3.org/1999/xlink" width="24.000000" height="24.000000" fill="none">
	<rect id="Outline/Filter Off Outline" width="24.000000" height="24.000000" x="0.000000" y="0.000000" />
	<path id="Shape" d="M8.09558 4.69011L6.33458 2.40341C6.11249 2.11501 5.71139 2.06292 5.423 2.28501C5.13461 2.50711 5.08251 2.9082 5.30461 3.19659L6.45477 4.69011L6.4535 4.69011L7.46223 5.99998L7.4635 5.99998L13.0148 13.2085L13.0138 13.2088L14.0801 14.5935L14.0801 14.5918L19.582 21.7362C19.8041 22.0246 20.2052 22.0767 20.4936 21.8546C20.782 21.6325 20.8341 21.2314 20.612 20.943L15.1284 13.8224C17.4376 12.6347 19.1108 10.0628 19.3901 7.26998L19.5495 5.99012L20.2101 5.99012C20.5691 5.99012 20.8601 5.6991 20.8601 5.34012C20.8601 4.98113 20.5691 4.69011 20.2101 4.69011L8.09558 4.69011ZM9.10432 5.99998L14.3153 12.7666C16.306 11.8553 17.8548 9.59251 18.1001 7.13998L18.2401 5.99998L9.10432 5.99998ZM3.79014 4.69011L4.81269 4.69011L5.7201 5.99998L5.8601 7.10998C6.1201 9.79998 7.8501 12.18 10.0701 12.94L10.9501 13.24L10.9501 18.71L12.7801 17.65L12.7801 15.036L14.0801 16.7241L14.0801 18.1209C14.0801 18.2997 13.9846 18.465 13.8295 18.5542L10.3995 20.5286C10.0662 20.7205 9.6501 20.4799 9.6501 20.0952L9.6501 14.17C6.9201 13.24 4.8701 10.38 4.5601 7.26998L4.40572 5.99012L3.79014 5.99012C3.43115 5.99012 3.14014 5.6991 3.14014 5.34012C3.14014 4.98113 3.43115 4.69011 3.79014 4.69011Z" fill="rgb(116,118,123)" fill-rule="evenodd" />
</svg>
