<svg width="24.000000" height="24.000000" viewBox="0 0 24 24" fill="none" xmlns="http://www.w3.org/2000/svg" xmlns:xlink="http://www.w3.org/1999/xlink">
	<desc>
			Created with Pixso.
	</desc>
	<defs>
		<clipPath id="clip17_1281">
			<rect id="Outline / Filter Outline" width="24.000000" height="24.000000" fill="white" fill-opacity="0"/>
		</clipPath>
	</defs>
	<g>
		<path id="Shape" d="M3.79 4.69C3.43 4.69 3.14 4.98 3.14 5.34C3.14 5.69 3.43 5.99 3.79 5.99L4.4 5.99L4.56 7.26C4.87 10.37 6.91 13.23 9.64 14.16L9.64 20.09C9.64 20.47 10.06 20.72 10.39 20.52L13.82 18.55C13.98 18.46 14.08 18.29 14.08 18.12L14.08 14.24C16.91 13.37 19.07 10.46 19.39 7.26L19.54 5.99L20.2 5.99C20.56 5.99 20.86 5.69 20.86 5.34C20.86 4.98 20.56 4.69 20.2 4.69L3.79 4.69ZM18.1 7.13L18.24 5.99L5.72 5.99L5.85 7.1C6.12 9.79 7.85 12.17 10.07 12.93L10.95 13.23L10.95 18.7L12.78 17.64L12.78 13.27L13.7 12.99C15.98 12.3 17.83 9.83 18.1 7.13Z" fill="#717681" fill-opacity="1.000000" fill-rule="evenodd"/>
	</g>
</svg>
