<svg viewBox="0 0 24 24" xmlns="http://www.w3.org/2000/svg" xmlns:xlink="http://www.w3.org/1999/xlink" width="24.000000" height="24.000000" fill="none">
	<rect id="Outline/Filter Alt Off Outline" width="24.000000" height="24.000000" x="0.000000" y="0.000000" />
	<path id="Shape" d="M20.2501 4.80005L3.7501 4.80005C3.3861 4.80005 3.1001 5.08605 3.1001 5.45005C3.1001 5.81405 3.3861 6.10005 3.7501 6.10005L20.2501 6.10005C20.6141 6.10005 20.9001 5.81405 20.9001 5.45005C20.9001 5.08605 20.6141 4.80005 20.2501 4.80005ZM16.9503 9.80005L5.95029 9.80005C5.58629 9.80005 5.30029 10.086 5.30029 10.45C5.30029 10.814 5.58629 11.1 5.95029 11.1L16.9503 11.1C17.3143 11.1 17.6003 10.814 17.6003 10.45C17.6003 10.086 17.3143 9.80005 16.9503 9.80005ZM17.8493 16.5296L19.5248 14.9181C19.7871 14.6658 19.7952 14.2616 19.543 13.9994C19.2909 13.7373 18.8867 13.7296 18.6243 13.9819L16.9123 15.6284L15.2003 13.9819C14.938 13.7296 14.5337 13.7373 14.2816 13.9994C14.0295 14.2616 14.0375 14.6658 14.2998 14.9181L15.9753 16.5296L14.2998 18.1411C14.0375 18.3934 14.0295 18.7976 14.2816 19.0598C14.5337 19.3219 14.938 19.3296 15.2003 19.0773L16.9123 17.4308L18.6243 19.0773C18.8867 19.3297 19.2909 19.3219 19.543 19.0598C19.7952 18.7976 19.7871 18.3934 19.5248 18.1411L17.8493 16.5296ZM11.9503 16.1L7.95029 16.1C7.58629 16.1 7.30029 15.814 7.30029 15.45C7.30029 15.086 7.58629 14.8 7.95029 14.8L11.9503 14.8C12.3143 14.8 12.6003 15.086 12.6003 15.45C12.6003 15.814 12.3143 16.1 11.9503 16.1Z" fill="rgb(116,118,123)" fill-rule="evenodd" />
</svg>
