<svg width="24" height="24" viewBox="0 0 24 24" fill="none" xmlns="http://www.w3.org/2000/svg">
<path d="M5.79928 2H5C3.34315 2 2 3.34315 2 5V5.69097C2 6.04996 2.29101 6.34097 2.65 6.34097C3.00898 6.34097 3.3 6.04996 3.3 5.69097V5C3.3 4.06112 4.06112 3.3 5 3.3H5.79928C6.15826 3.3 6.44928 3.00898 6.44928 2.65C6.44928 2.29101 6.15826 2 5.79928 2Z" fill="#717681"/>
<path d="M2 18.3089C2 17.9499 2.29101 17.6589 2.65 17.6589C3.00898 17.6589 3.3 17.9499 3.3 18.3089V19C3.3 19.9389 4.06112 20.7 5 20.7H5.79928C6.15826 20.7 6.44928 20.991 6.44928 21.35C6.44928 21.709 6.15826 22 5.79928 22H5C3.34315 22 2 20.6569 2 19V18.3089Z" fill="#717681"/>
<path d="M20.7 18.3089C20.7 17.9499 20.991 17.6589 21.35 17.6589C21.709 17.6589 22 17.9499 22 18.3089V19C22 20.6569 20.6569 22 19 22H18.4172C18.0582 22 17.7672 21.709 17.7672 21.35C17.7672 20.991 18.0582 20.7 18.4172 20.7H19C19.9389 20.7 20.7 19.9389 20.7 19V18.3089Z" fill="#717681"/>
<path d="M22 5.69097C22 6.04996 21.709 6.34097 21.35 6.34097C20.991 6.34097 20.7 6.04996 20.7 5.69097V5C20.7 4.06112 19.9389 3.3 19 3.3H18.4172C18.0582 3.3 17.7672 3.00898 17.7672 2.65C17.7672 2.29101 18.0582 2 18.4172 2H19C20.6569 2 22 3.34315 22 5V5.69097Z" fill="#717681"/>
<path fill-rule="evenodd" clip-rule="evenodd" d="M13.3999 10.9996V6.70002C13.3999 5.76114 12.6388 5.00002 11.6999 5.00002H6.6999C5.76102 5.00002 4.9999 5.76114 4.9999 6.70002V11.7C4.9999 12.6389 5.76102 13.4 6.6999 13.4H11V17.3C11 18.2389 11.7611 19 12.7 19H17.3C18.2389 19 19 18.2389 19 17.3V12.7C19 11.7611 18.2389 11 17.3 11H12.7L13.3999 10.9996ZM17.7 12.7V17.3C17.7 17.5209 17.5209 17.7 17.3 17.7H12.7C12.4791 17.7 12.3 17.5209 12.3 17.3V12.7C12.3 12.4791 12.4791 12.3 12.7 12.3L17.3 12.3C17.5209 12.3 17.7 12.4791 17.7 12.7Z" fill="#717681"/>
</svg>
