<svg viewBox="0 0 24 24" xmlns="http://www.w3.org/2000/svg" xmlns:xlink="http://www.w3.org/1999/xlink" width="24.000000" height="24.000000" fill="none">
	<rect id="Solid/Hierarchy Solid" width="24.000000" height="24.000000" x="0.000000" y="0.000000" />
	<path id="Shape" d="M7.65781 7.93175C9.00755 7.63881 10.0186 6.43747 10.0186 5C10.0186 3.34315 8.67541 2 7.01855 2C5.3617 2 4.01855 3.34315 4.01855 5C4.01855 6.42983 5.01885 7.62604 6.35781 7.927L6.35781 16.0322C6.35781 18.0481 7.99197 19.6822 10.0078 19.6822L13.9541 19.6822C13.9893 19.6822 14.0238 19.6794 14.0575 19.674C14.3634 21.0063 15.5564 22 16.9814 22C18.6383 22 19.9814 20.6568 19.9814 19C19.9814 17.3431 18.6383 16 16.9814 16C15.5342 16 14.3263 17.0248 14.0438 18.3884C14.0145 18.3843 13.9845 18.3822 13.9541 18.3822L10.0078 18.3822C8.70994 18.3822 7.65781 17.3301 7.65781 16.0322L7.65781 12.35L7.67285 12.3502L14.0371 12.3502L14.052 12.35C14.3489 13.6944 15.5477 14.7002 16.9814 14.7002C18.6383 14.7002 19.9814 13.357 19.9814 11.7002C19.9814 10.0433 18.6383 8.70015 16.9814 8.70015C15.5477 8.70015 14.3489 9.70588 14.052 11.0503L14.0371 11.0502L7.67285 11.0502L7.65781 11.0503L7.65781 7.93175ZM11.3744 5C11.3744 4.64102 11.6654 4.35 12.0244 4.35L19.3804 4.35C19.7394 4.35 20.0304 4.64102 20.0304 5C20.0304 5.35899 19.7394 5.65 19.3804 5.65L12.0244 5.65C11.6654 5.65 11.3744 5.35898 11.3744 5Z" fill="rgb(116,118,123)" fill-rule="evenodd" />
</svg>
