<svg width="24.000000" height="24.000000" viewBox="0 0 24 24" fill="none" xmlns="http://www.w3.org/2000/svg" xmlns:xlink="http://www.w3.org/1999/xlink">
	<desc>
			Created with Pixso.
	</desc>
	<defs>
		<clipPath id="clip134435_207">
			<rect id="Outline / Hierarchy Outline" width="24.000000" height="24.000000" fill="white" fill-opacity="0"/>
		</clipPath>
	</defs>
	<g>
		<path id="Shape" d="M10.01 5C10.01 6.43 9 7.63 7.65 7.93L7.65 11.05L7.67 11.05L14.03 11.05L14.05 11.05C14.34 9.7 15.54 8.7 16.98 8.7C18.63 8.7 19.98 10.04 19.98 11.7C19.98 13.35 18.63 14.7 16.98 14.7C15.54 14.7 14.34 13.69 14.05 12.35L14.03 12.35L7.67 12.35L7.65 12.35L7.65 16.03C7.65 17.33 8.7 18.38 10 18.38L13.95 18.38C13.98 18.38 14.01 18.38 14.04 18.38C14.32 17.02 15.53 16 16.98 16C18.63 16 19.98 17.34 19.98 19C19.98 20.65 18.63 22 16.98 22C15.55 22 14.36 21 14.05 19.67C14.02 19.67 13.98 19.68 13.95 19.68L10 19.68C7.99 19.68 6.35 18.04 6.35 16.03L6.35 7.92C5.01 7.62 4.01 6.43 4.01 5C4.01 3.34 5.36 2 7.01 2C8.67 2 10.01 3.34 10.01 5ZM7.01 6.7C7.95 6.7 8.71 5.93 8.71 5C8.71 4.06 7.95 3.3 7.01 3.3C6.07 3.3 5.31 4.06 5.31 5C5.31 5.93 6.07 6.7 7.01 6.7ZM11.37 5C11.37 4.64 11.66 4.35 12.02 4.35L19.38 4.35C19.73 4.35 20.03 4.64 20.03 5C20.03 5.35 19.73 5.65 19.38 5.65L12.02 5.65C11.66 5.65 11.37 5.35 11.37 5ZM16.98 13.4C17.92 13.4 18.68 12.63 18.68 11.7C18.68 10.76 17.92 10 16.98 10C16.04 10 15.28 10.76 15.28 11.7C15.28 12.63 16.04 13.4 16.98 13.4ZM18.68 19C18.68 19.93 17.92 20.7 16.98 20.7C16.04 20.7 15.28 19.93 15.28 19C15.28 18.06 16.04 17.3 16.98 17.3C17.92 17.3 18.68 18.06 18.68 19Z" fill="#717681" fill-opacity="1.000000" fill-rule="evenodd"/>
	</g>
</svg>
