<svg width="24.000000" height="24.000000" viewBox="0 0 24 24" fill="none" xmlns="http://www.w3.org/2000/svg" xmlns:xlink="http://www.w3.org/1999/xlink">
	<desc>
			Created with Pixso.
	</desc>
	<defs>
		<clipPath id="clip17_1349">
			<rect id="Outline / Home Outline" width="24.000000" height="24.000000" fill="white" fill-opacity="0"/>
		</clipPath>
	</defs>
	<g >
		<path id="Shape" d="M18 8.99L21 12C21.27 12.23 21.3 12.64 21.06 12.91C20.83 13.18 20.42 13.21 20.14 12.98L19 11.83L19 19.7C19 20.41 18.41 21 17.69 21L14.49 21C13.78 21 13.19 20.41 13.19 19.69L13.19 14.3L10.79 14.3L10.79 19.7C10.79 20.41 10.21 21 9.5 21L6.29 21C5.58 21 5 20.41 5 19.7L5 11.83L3.85 12.98C3.57 13.21 3.16 13.18 2.93 12.91C2.69 12.64 2.72 12.23 3 12L6 8.99L11.08 3.91C11.58 3.41 12.41 3.41 12.91 3.91L18 8.99ZM17.69 19.7L14.5 19.7L14.5 14.3C14.5 13.58 13.91 13 13.19 13L10.79 13C10.08 13 9.5 13.58 9.5 14.3L9.5 19.7L6.29 19.7L6.29 10.53L12 4.83L17.69 10.53L17.69 19.7Z" fill="#74767B" fill-opacity="1.000000" fill-rule="evenodd"/>
	</g>
</svg>
