<svg width="24.000000" height="24.000000" viewBox="0 0 24 24" fill="none" xmlns="http://www.w3.org/2000/svg" xmlns:xlink="http://www.w3.org/1999/xlink">
	<desc>
			Created with Pixso.
	</desc>
	<defs>
		<clipPath id="clip1100_1209">
			<rect id="Solid / Hourglass Solid" width="24.000000" height="24.000000" fill="white" fill-opacity="0"/>
		</clipPath>
	</defs>
	<g clip-path="url(#clip1100_1209)">
		<path id="Shape" d="M7.56 3.33C6.65 3.33 5.91 4.07 5.91 4.98L5.91 5.18C5.91 7.39 6.82 9.43 8.56 10.76L9.84 11.77C9.9 11.82 9.94 11.9 9.94 11.99C9.94 12.09 9.9 12.17 9.84 12.22L8.55 13.23C8.55 13.24 8.54 13.25 8.53 13.26C7.98 13.74 7.5 14.29 7.1 14.9C6.82 15.33 7.16 15.86 7.67 15.86L16.32 15.86C16.83 15.86 17.16 15.33 16.88 14.9C16.47 14.27 15.95 13.7 15.35 13.24L14.16 12.24L14.15 12.22C14.09 12.18 14.05 12.09 14.05 11.99C14.05 11.9 14.09 11.82 14.15 11.77L15.43 10.76C15.44 10.75 15.45 10.74 15.46 10.73C17.06 9.34 18.08 7.32 18.08 5.18L18.08 4.98C18.08 4.07 17.34 3.33 16.43 3.33L7.56 3.33ZM5.91 18.81C5.91 18.43 5.94 18.06 6 17.69C6.06 17.38 6.34 17.16 6.66 17.16L17.32 17.16C17.64 17.16 17.93 17.37 17.98 17.69C18.05 18.06 18.08 18.44 18.08 18.81L18.08 19.01C18.08 19.92 17.34 20.66 16.43 20.66L7.56 20.66C6.65 20.66 5.91 19.92 5.91 19.01L5.91 18.81Z" fill="#717681" fill-opacity="1.000000" fill-rule="evenodd"/>
	</g>
</svg>
