<svg width="24.000000" height="24.000000" viewBox="0 0 24 24" fill="none" xmlns="http://www.w3.org/2000/svg" xmlns:xlink="http://www.w3.org/1999/xlink">
	<desc>
			Created with Pixso.
	</desc>
	<defs>
		<clipPath id="clip17_1305">
			<rect id="Solid / Import Solid" width="24.000000" height="24.000000" fill="white" fill-opacity="0"/>
		</clipPath>
	</defs>
	<g clip-path="url(#clip17_1305)">
		<path id="Shape" d="M15.5 14C18.53 14 21 11.53 21 8.5C21 5.46 18.53 3 15.5 3C12.46 3 10 5.46 10 8.5C10 11.53 12.46 14 15.5 14ZM8.84 4C9.45 4 9.8 4.73 9.51 5.26C8.99 6.23 8.7 7.33 8.7 8.5C8.7 12.25 11.74 15.3 15.5 15.3C16.02 15.3 16.52 15.24 17.01 15.13C17.49 15.02 18 15.36 18 15.85L18 17C18 18.65 16.65 20 15 20L8 20C6.34 20 5 18.65 5 17L5 7C5 5.34 6.34 4 8 4L8.84 4ZM17.02 8.98C17.15 9.11 17.23 9.28 17.23 9.46C17.23 9.62 17.17 9.77 17.05 9.9L15.03 11.94C14.75 12.25 14.27 12.25 13.99 11.94L12 9.9C11.75 9.63 11.77 9.22 12.04 8.98C12.31 8.74 12.72 8.75 12.96 9.02L13.86 9.9C13.86 9.74 13.86 9.66 13.85 9.59C13.85 9.48 13.85 9.42 13.86 9.15C13.86 7.13 15.49 5.5 17.51 5.5L17.86 5.5C18.22 5.5 18.51 5.79 18.51 6.15C18.51 6.5 18.22 6.8 17.86 6.8L17.51 6.8C16.21 6.8 15.16 7.85 15.16 9.15L15.16 9.91L16.09 9.02C16.33 8.76 16.75 8.74 17.02 8.98Z" fill="#74767B" fill-opacity="1.000000" fill-rule="evenodd"/>
	</g>
</svg>
