<svg width="24.000000" height="24.000000" viewBox="0 0 24 24" fill="none" xmlns="http://www.w3.org/2000/svg" xmlns:xlink="http://www.w3.org/1999/xlink">
	<desc>
			Created with Pixso.
	</desc>
	<defs>
		<clipPath id="clip17_1546">
			<rect id="Solid / Keyboard Solid" width="24.000000" height="24.000000" fill="white" fill-opacity="0"/>
		</clipPath>
	</defs>
	<g>
		<path id="Shape" d="M6 5.59C4.34 5.59 3 6.94 3 8.59L3 15.4C3 17.05 4.34 18.4 6 18.4L18 18.4C19.65 18.4 21 17.05 21 15.4L21 8.59C21 6.94 19.65 5.59 18 5.59L6 5.59ZM6 9C6 8.64 6.29 8.35 6.65 8.35L7.34 8.35C7.7 8.35 8 8.64 8 9C8 9.36 7.7 9.65 7.34 9.65L6.65 9.65C6.29 9.65 6 9.36 6 9ZM16.65 8.35C16.29 8.35 16 8.64 16 9C16 9.36 16.29 9.65 16.65 9.65L17.34 9.65C17.7 9.65 17.99 9.36 17.99 9C17.99 8.64 17.7 8.35 17.34 8.35L16.65 8.35ZM9.14 14.35C8.78 14.35 8.49 14.64 8.49 15C8.49 15.36 8.78 15.65 9.14 15.65L14.85 15.65C15.21 15.65 15.5 15.36 15.5 15C15.5 14.64 15.21 14.35 14.85 14.35L9.14 14.35ZM9.98 8.35C9.62 8.35 9.33 8.64 9.33 9C9.33 9.36 9.62 9.65 9.98 9.65L10.68 9.65C11.04 9.65 11.33 9.36 11.33 9C11.33 8.64 11.04 8.35 10.68 8.35L9.98 8.35ZM12.66 9C12.66 8.64 12.95 8.35 13.31 8.35L14.01 8.35C14.37 8.35 14.66 8.64 14.66 9C14.66 9.36 14.37 9.65 14.01 9.65L13.31 9.65C12.95 9.65 12.66 9.36 12.66 9ZM16.64 11.26C16.28 11.26 15.99 11.55 15.99 11.91C15.99 12.27 16.28 12.56 16.64 12.56L17.34 12.56C17.7 12.56 17.99 12.27 17.99 11.91C17.99 11.55 17.7 11.26 17.34 11.26L16.64 11.26ZM5.99 11.91C5.99 11.55 6.28 11.26 6.64 11.26L7.34 11.26C7.7 11.26 7.99 11.55 7.99 11.91C7.99 12.27 7.7 12.56 7.34 12.56L6.64 12.56C6.28 12.56 5.99 12.27 5.99 11.91ZM9.98 11.26C9.62 11.26 9.33 11.55 9.33 11.91C9.33 12.27 9.62 12.56 9.98 12.56L10.67 12.56C11.03 12.56 11.32 12.27 11.32 11.91C11.32 11.55 11.03 11.26 10.67 11.26L9.98 11.26ZM12.66 11.91C12.66 11.55 12.95 11.26 13.31 11.26L14 11.26C14.36 11.26 14.65 11.55 14.65 11.91C14.65 12.27 14.36 12.56 14 12.56L13.31 12.56C12.95 12.56 12.66 12.27 12.66 11.91Z" fill="#717681" fill-opacity="1.000000" fill-rule="evenodd"/>
	</g>
</svg>
