<svg width="24" height="24" viewBox="0 0 24 24" fill="none" xmlns="http://www.w3.org/2000/svg">
<path d="M9.14771 13.9378C8.78872 13.9378 8.4977 14.2288 8.4977 14.5878C8.4977 14.9468 8.78872 15.2378 9.14771 15.2378H14.8523C15.2113 15.2378 15.5023 14.9468 15.5023 14.5878C15.5023 14.2288 15.2113 13.9378 14.8523 13.9378H9.14771Z" fill="#717681"/>
<path d="M15.9953 9.41214C15.9953 9.05315 16.2863 8.76214 16.6453 8.76214L17.3421 8.76214C17.7011 8.76214 17.9921 9.05315 17.9921 9.41214C17.9921 9.77112 17.7011 10.0621 17.3421 10.0621H16.6453C16.2863 10.0621 15.9953 9.77112 15.9953 9.41214Z" fill="#717681"/>
<path d="M6.64807 8.76214C6.28909 8.76214 5.99807 9.05315 5.99807 9.41214C5.99807 9.77112 6.28909 10.0621 6.64807 10.0621H7.34488C7.70386 10.0621 7.99488 9.77112 7.99488 9.41214C7.99488 9.05315 7.70386 8.76214 7.34488 8.76214L6.64807 8.76214Z" fill="#717681"/>
<path d="M9.33047 9.41214C9.33047 9.05315 9.62148 8.76214 9.98047 8.76214L10.6773 8.76214C11.0363 8.76214 11.3273 9.05315 11.3273 9.41214C11.3273 9.77112 11.0363 10.0621 10.6773 10.0621H9.98047C9.62148 10.0621 9.33047 9.77112 9.33047 9.41214Z" fill="#717681"/>
<path d="M13.3129 8.76214C12.9539 8.76214 12.6629 9.05315 12.6629 9.41214C12.6629 9.77112 12.9539 10.0621 13.3129 10.0621H14.0097C14.3687 10.0621 14.6597 9.77112 14.6597 9.41214C14.6597 9.05315 14.3687 8.76214 14.0097 8.76214L13.3129 8.76214Z" fill="#717681"/>
<path d="M15.9953 11.9121C15.9953 11.5532 16.2863 11.2621 16.6453 11.2621H17.3421C17.7011 11.2621 17.9921 11.5532 17.9921 11.9121C17.9921 12.2711 17.7011 12.5621 17.3421 12.5621H16.6453C16.2863 12.5621 15.9953 12.2711 15.9953 11.9121Z" fill="#717681"/>
<path d="M6.64807 11.2621C6.28909 11.2621 5.99807 11.5532 5.99807 11.9121C5.99807 12.2711 6.28909 12.5621 6.64807 12.5621H7.34488C7.70386 12.5621 7.99488 12.2711 7.99488 11.9121C7.99488 11.5532 7.70386 11.2621 7.34488 11.2621H6.64807Z" fill="#717681"/>
<path d="M9.33047 11.9121C9.33047 11.5532 9.62148 11.2621 9.98047 11.2621H10.6773C11.0363 11.2621 11.3273 11.5532 11.3273 11.9121C11.3273 12.2711 11.0363 12.5621 10.6773 12.5621H9.98047C9.62148 12.5621 9.33047 12.2711 9.33047 11.9121Z" fill="#717681"/>
<path d="M13.3129 11.2621C12.9539 11.2621 12.6629 11.5532 12.6629 11.9121C12.6629 12.2711 12.9539 12.5621 13.3129 12.5621H14.0097C14.3687 12.5621 14.6597 12.2711 14.6597 11.9121C14.6597 11.5532 14.3687 11.2621 14.0097 11.2621H13.3129Z" fill="#717681"/>
<path fill-rule="evenodd" clip-rule="evenodd" d="M3 8.59998C3 6.94312 4.34315 5.59998 6 5.59998H18C19.6569 5.59998 21 6.94312 21 8.59998V15.4C21 17.0568 19.6569 18.4 18 18.4H6C4.34315 18.4 3 17.0568 3 15.4V8.59998ZM6 6.89998H18C18.9389 6.89998 19.7 7.66109 19.7 8.59998V15.4C19.7 16.3389 18.9389 17.1 18 17.1H6C5.06112 17.1 4.3 16.3389 4.3 15.4V8.59998C4.3 7.66109 5.06112 6.89998 6 6.89998Z" fill="#717681"/>
</svg>
