<svg width="24.000000" height="24.000000" viewBox="0 0 24 24" fill="none" xmlns="http://www.w3.org/2000/svg" xmlns:xlink="http://www.w3.org/1999/xlink">
	<desc>
			Created with Pixso.
	</desc>
	<defs>
		<clipPath id="clip17_1543">
			<rect id="Outline / Keyboard Outline" width="24.000000" height="24.000000" fill="white" fill-opacity="0"/>
		</clipPath>
	</defs>
	<g >
		<path id="Shape" d="M6 5.59C4.34 5.59 3 6.94 3 8.59L3 15.4C3 17.05 4.34 18.4 6 18.4L18 18.4C19.65 18.4 21 17.05 21 15.4L21 8.59C21 6.94 19.65 5.59 18 5.59L6 5.59ZM6 6.89L18 6.89C18.93 6.89 19.7 7.66 19.7 8.59L19.7 15.4C19.7 16.33 18.93 17.1 18 17.1L6 17.1C5.06 17.1 4.29 16.33 4.29 15.4L4.29 8.59C4.29 7.66 5.06 6.89 6 6.89ZM6.64 8.76C6.28 8.76 5.99 9.05 5.99 9.41C5.99 9.77 6.28 10.06 6.64 10.06L7.34 10.06C7.7 10.06 7.99 9.77 7.99 9.41C7.99 9.05 7.7 8.76 7.34 8.76L6.64 8.76ZM9.98 8.76C9.62 8.76 9.33 9.05 9.33 9.41C9.33 9.77 9.62 10.06 9.98 10.06L10.67 10.06C11.03 10.06 11.32 9.77 11.32 9.41C11.32 9.05 11.03 8.76 10.67 8.76L9.98 8.76ZM13.31 8.76C12.95 8.76 12.66 9.05 12.66 9.41C12.66 9.77 12.95 10.06 13.31 10.06L14 10.06C14.36 10.06 14.65 9.77 14.65 9.41C14.65 9.05 14.36 8.76 14 8.76L13.31 8.76ZM16.64 8.76C16.28 8.76 15.99 9.05 15.99 9.41C15.99 9.77 16.28 10.06 16.64 10.06L17.34 10.06C17.7 10.06 17.99 9.77 17.99 9.41C17.99 9.05 17.7 8.76 17.34 8.76L16.64 8.76ZM6.64 11.26C6.28 11.26 5.99 11.55 5.99 11.91C5.99 12.27 6.28 12.56 6.64 12.56L7.34 12.56C7.7 12.56 7.99 12.27 7.99 11.91C7.99 11.55 7.7 11.26 7.34 11.26L6.64 11.26ZM9.33 11.91C9.33 12.27 9.62 12.56 9.98 12.56L10.67 12.56C11.03 12.56 11.32 12.27 11.32 11.91C11.32 11.55 11.03 11.26 10.67 11.26L9.98 11.26C9.62 11.26 9.33 11.55 9.33 11.91ZM13.31 11.26C12.95 11.26 12.66 11.55 12.66 11.91C12.66 12.27 12.95 12.56 13.31 12.56L14 12.56C14.36 12.56 14.65 12.27 14.65 11.91C14.65 11.55 14.36 11.26 14 11.26L13.31 11.26ZM15.99 11.91C15.99 12.27 16.28 12.56 16.64 12.56L17.34 12.56C17.7 12.56 17.99 12.27 17.99 11.91C17.99 11.55 17.7 11.26 17.34 11.26L16.64 11.26C16.28 11.26 15.99 11.55 15.99 11.91ZM9.14 13.93C8.78 13.93 8.49 14.22 8.49 14.58C8.49 14.94 8.78 15.23 9.14 15.23L14.85 15.23C15.21 15.23 15.5 14.94 15.5 14.58C15.5 14.22 15.21 13.93 14.85 13.93L9.14 13.93Z" fill="#74767B" fill-opacity="1.000000" fill-rule="evenodd"/>
	</g>
</svg>
