<svg viewBox="0 0 24 24" xmlns="http://www.w3.org/2000/svg" xmlns:xlink="http://www.w3.org/1999/xlink" width="24.000000" height="24.000000" fill="none">
	<rect id="Outline/Letters Eng Sort Down Outline" width="24.000000" height="24.000000" x="0.000000" y="0.000000" />
	<path id="Shape" d="M5.69785 9.42357L5.15067 10.7524C5.01207 11.0889 5.16762 11.4623 5.5042 11.6009C5.84078 11.7395 6.21414 11.5839 6.35274 11.2474L6.73418 10.3211L8.76919 10.321L9.15067 11.2474C9.28926 11.584 9.66262 11.7396 9.9992 11.601C10.3358 11.4624 10.4913 11.089 10.3527 10.7524L8.83997 7.07876C8.73993 6.83584 8.59923 6.65364 8.41786 6.53218L8.41785 6.53217C8.23647 6.41071 8.01443 6.34998 7.75171 6.34998C7.48895 6.34998 7.26688 6.41072 7.08548 6.53221C6.90412 6.65367 6.76343 6.83585 6.66341 7.07876L5.69785 9.42357ZM15.5262 6.56936C15.1751 6.58271 14.8976 6.87151 14.8982 7.22283L14.9043 15.3117L13.5142 13.8039C13.2648 13.5426 12.8547 13.5472 12.5934 13.7966C12.3421 14.0458 12.3367 14.4562 12.5862 14.7175L15.1386 17.3453C15.4294 17.6451 15.9091 17.628 16.1779 17.3082L18.6553 14.5083C18.7706 14.3741 18.8153 14.2224 18.8096 14.0625C18.8032 13.8826 18.7271 13.7152 18.5826 13.5903C18.3042 13.36 17.8952 13.3946 17.6646 13.663L16.2038 15.2725C16.2038 15.2725 16.2135 8.92044 16.2023 7.21466C16.1999 6.84713 15.8934 6.55539 15.5262 6.56936ZM8.23387 9.02105L7.75169 7.85009L7.2695 9.02106L8.23387 9.02105ZM5.75168 12.3499L9.51026 12.3499C9.67731 12.3499 9.81857 12.3885 9.93406 12.4657C10.0495 12.5429 10.1392 12.6586 10.2032 12.8129C10.2671 12.9673 10.2855 13.1125 10.2584 13.2488C10.2313 13.385 10.1587 13.5122 10.0406 13.6303L7.32092 16.3499L9.75168 16.3499C10.1157 16.3499 10.4017 16.6359 10.4017 16.9999C10.4017 17.3639 10.1157 17.6499 9.75168 17.6499L5.99311 17.6499C5.82606 17.6499 5.6848 17.6114 5.56931 17.5342C5.45383 17.457 5.36412 17.3413 5.3002 17.187C5.23628 17.0326 5.21786 16.8874 5.24495 16.7512L5.24495 16.7511C5.27205 16.6149 5.34466 16.4877 5.46278 16.3696L8.18245 13.6499L5.75168 13.6499C5.38768 13.6499 5.10168 13.3639 5.10168 12.9999C5.10168 12.6359 5.38768 12.3499 5.75168 12.3499Z" fill="rgb(116,118,123)" fill-rule="evenodd" />
</svg>
