<svg viewBox="0 0 24 24" xmlns="http://www.w3.org/2000/svg" xmlns:xlink="http://www.w3.org/1999/xlink" width="24.000000" height="24.000000" fill="none">
	<rect id="Outline/Letters Eng Sort Up Outline" width="24.000000" height="24.000000" x="0.000000" y="0.000000" />
	<path id="Shape" d="M5.69785 9.29381L5.15067 10.6226C5.01207 10.9592 5.16762 11.3325 5.5042 11.4711C5.84078 11.6097 6.21414 11.4542 6.35274 11.1176L6.73418 10.1913L8.76919 10.1913L9.15067 11.1177C9.28926 11.4543 9.66262 11.6098 9.9992 11.4712C10.3358 11.3326 10.4913 10.9593 10.3527 10.6227L8.83997 6.949C8.73993 6.70607 8.59923 6.52388 8.41786 6.40242L8.41785 6.40241C8.23647 6.28095 8.01443 6.22021 7.75171 6.22021C7.48895 6.22021 7.26688 6.28096 7.08548 6.40244C6.90412 6.52391 6.76343 6.70609 6.66341 6.949L5.69785 9.29381ZM15.5262 17.7793C15.1751 17.766 14.8976 17.4772 14.8982 17.1259L14.9043 9.03695L13.5142 10.5448C13.2648 10.8061 12.8547 10.8015 12.5934 10.5521C12.3421 10.3029 12.3367 9.8925 12.5862 9.63121L15.1386 7.00344C15.4294 6.7036 15.9091 6.72069 16.1779 7.04046L18.6553 9.84042C18.7706 9.97461 18.8153 10.1263 18.8096 10.2862C18.8032 10.4661 18.7271 10.6335 18.5826 10.7584C18.3042 10.9887 17.8952 10.9541 17.6646 10.6857L16.2038 9.07618C16.2038 9.07618 16.2135 15.4283 16.2023 17.134C16.1999 17.5016 15.8934 17.7933 15.5262 17.7793ZM8.23387 8.89129L7.75169 7.72033L7.2695 8.8913L8.23387 8.89129ZM5.75168 12.2202L9.51026 12.2202C9.67731 12.2202 9.81857 12.2588 9.93406 12.3359C10.0495 12.4131 10.1392 12.5288 10.2032 12.6832C10.2671 12.8375 10.2855 12.9828 10.2584 13.119C10.2313 13.2552 10.1587 13.3824 10.0406 13.5005L7.32092 16.2202L9.75168 16.2202C10.1157 16.2202 10.4017 16.5062 10.4017 16.8702C10.4017 17.2342 10.1157 17.5202 9.75168 17.5202L5.99311 17.5202C5.82606 17.5202 5.6848 17.4816 5.56931 17.4044C5.45383 17.3273 5.36412 17.2115 5.3002 17.0572C5.23628 16.9029 5.21786 16.7576 5.24495 16.6214L5.24495 16.6214C5.27205 16.4851 5.34466 16.358 5.46278 16.2399L8.18245 13.5202L5.75168 13.5202C5.38768 13.5202 5.10168 13.2342 5.10168 12.8702C5.10168 12.5062 5.38768 12.2202 5.75168 12.2202Z" fill="rgb(116,118,123)" fill-rule="evenodd" />
</svg>
