<svg viewBox="0 0 24 24" xmlns="http://www.w3.org/2000/svg" xmlns:xlink="http://www.w3.org/1999/xlink" width="24.000000" height="24.000000" fill="none">
	<rect id="Outline/Letters Rus Sort Up Outline" width="24.000000" height="24.000000" x="0.000000" y="0.000000" />
	<path id="Shape" d="M5.15067 10.6226L5.69785 9.29381L6.66341 6.949C6.76343 6.70609 6.90412 6.52391 7.08548 6.40244C7.26688 6.28096 7.48895 6.22021 7.75171 6.22021C8.01443 6.22021 8.23647 6.28095 8.41785 6.40241L8.41786 6.40242C8.59923 6.52388 8.73993 6.70607 8.83997 6.949L10.3527 10.6227C10.4913 10.9593 10.3358 11.3326 9.9992 11.4712C9.66262 11.6098 9.28926 11.4543 9.15067 11.1177L8.76919 10.1913L6.73418 10.1913L6.35274 11.1176C6.21414 11.4542 5.84078 11.6097 5.5042 11.4711C5.16762 11.3325 5.01207 10.9592 5.15067 10.6226ZM14.8982 17.1259C14.8976 17.4772 15.1751 17.766 15.5262 17.7793C15.8934 17.7933 16.1999 17.5016 16.2023 17.134C16.2135 15.4283 16.2038 9.07618 16.2038 9.07618L17.6646 10.6857C17.8952 10.9541 18.3042 10.9887 18.5826 10.7584C18.7271 10.6335 18.8032 10.4661 18.8096 10.2862C18.8153 10.1263 18.7706 9.97461 18.6553 9.84042L16.1779 7.04046C15.9091 6.72069 15.4294 6.7036 15.1386 7.00344L12.5862 9.63121C12.3367 9.8925 12.3421 10.3029 12.5934 10.5521C12.8547 10.8015 13.2648 10.8061 13.5142 10.5448L14.9043 9.03695L14.8982 17.1259ZM7.75169 7.72033L8.23387 8.89129L7.2695 8.8913L7.75169 7.72033ZM8.90398 12.3601L7.7992 12.3604L7.77803 12.36C7.38962 12.3598 6.99564 12.4195 6.66215 12.6187C6.5794 12.6681 6.50517 12.7196 6.45623 12.7686C6.27084 12.954 6.13179 13.1586 6.0391 13.3824L6.03909 13.3824C5.9464 13.6062 5.90005 13.8491 5.90005 14.1113C5.90005 14.3735 5.9464 14.6165 6.0391 14.8403C6.1318 15.0641 6.27084 15.2686 6.45623 15.454C6.56185 15.5597 6.67371 15.6502 6.79179 15.7258L5.97465 16.5224C5.72798 16.798 5.74458 17.2121 6.01237 17.4635C6.28016 17.7149 6.68439 17.6959 6.93106 17.4203L8.2967 16.0888L8.2967 17.0241C8.2967 17.3745 8.5827 17.6498 8.9467 17.6498C9.3107 17.6498 9.5967 17.3745 9.5967 17.0241L9.59671 12.9756C9.59671 12.6251 9.31071 12.3601 8.94671 12.3601C8.93825 12.3601 8.92984 12.3602 8.92147 12.3605C8.91567 12.3602 8.90984 12.3601 8.90398 12.3601ZM8.2967 14.7102L8.29671 13.5124L7.79896 13.5124C7.71627 13.5124 7.63963 13.527 7.56905 13.5563C7.49847 13.5855 7.43394 13.6293 7.37547 13.6878C7.317 13.7463 7.27314 13.8108 7.24391 13.8814C7.21467 13.952 7.20005 14.0286 7.20005 14.1113C7.20005 14.194 7.21467 14.2706 7.24391 14.3412C7.27314 14.4118 7.317 14.4763 7.37547 14.5348C7.43394 14.5933 7.49847 14.6371 7.56905 14.6664C7.63963 14.6956 7.71627 14.7102 7.79896 14.7102L8.2967 14.7102Z" fill="rgb(116,118,123)" fill-rule="evenodd" />
</svg>
