<svg viewBox="0 0 24 24" xmlns="http://www.w3.org/2000/svg" xmlns:xlink="http://www.w3.org/1999/xlink" width="24.000000" height="24.000000" fill="none">
	<rect id="Outline/Letters Rus Sort Down Outline" width="24.000000" height="24.000000" x="0.000000" y="0.000000" />
	<path id="Shape" d="M5.15067 10.7524L5.69785 9.42357L6.66341 7.07876C6.76343 6.83585 6.90412 6.65367 7.08548 6.53221C7.26688 6.41072 7.48895 6.34998 7.75171 6.34998C8.01443 6.34998 8.23647 6.41071 8.41785 6.53217L8.41786 6.53218C8.59923 6.65364 8.73993 6.83584 8.83997 7.07876L10.3527 10.7524C10.4913 11.089 10.3358 11.4624 9.9992 11.601C9.66262 11.7396 9.28926 11.584 9.15067 11.2474L8.76919 10.321L6.73418 10.3211L6.35274 11.2474C6.21414 11.5839 5.84078 11.7395 5.5042 11.6009C5.16762 11.4623 5.01207 11.0889 5.15067 10.7524ZM14.8982 7.22283C14.8976 6.87151 15.1751 6.58271 15.5262 6.56936C15.8934 6.55539 16.1999 6.84713 16.2023 7.21466C16.2135 8.92044 16.2038 15.2725 16.2038 15.2725L17.6646 13.663C17.8952 13.3946 18.3042 13.36 18.5826 13.5903C18.7271 13.7152 18.8032 13.8826 18.8096 14.0625C18.8153 14.2224 18.7706 14.3741 18.6553 14.5083L16.1779 17.3082C15.9091 17.628 15.4294 17.6451 15.1386 17.3453L12.5862 14.7175C12.3367 14.4562 12.3421 14.0458 12.5934 13.7966C12.8547 13.5472 13.2648 13.5426 13.5142 13.8039L14.9043 15.3117L14.8982 7.22283ZM7.75169 7.85009L8.23387 9.02105L7.2695 9.02106L7.75169 7.85009ZM8.90398 12.3601L7.7992 12.3603L7.77803 12.36C7.38962 12.3598 6.99564 12.4195 6.66215 12.6186C6.5794 12.668 6.50517 12.7196 6.45623 12.7686C6.27084 12.954 6.13179 13.1585 6.0391 13.3823L6.03909 13.3824C5.9464 13.6061 5.90005 13.8491 5.90005 14.1113C5.90005 14.3735 5.9464 14.6165 6.0391 14.8402L6.03914 14.8403C6.13184 15.0641 6.27087 15.2687 6.45623 15.454C6.56185 15.5596 6.67371 15.6502 6.79179 15.7258L5.97465 16.5224C5.72798 16.798 5.74458 17.2121 6.01237 17.4635C6.28016 17.7149 6.68439 17.6959 6.93106 17.4203L8.2967 16.0888L8.2967 17.024C8.2967 17.3745 8.5827 17.6498 8.9467 17.6498C9.3107 17.6498 9.5967 17.3745 9.5967 17.024L9.59671 12.9756C9.59671 12.6251 9.31071 12.3601 8.94671 12.3601C8.93825 12.3601 8.92984 12.3602 8.92147 12.3605C8.91567 12.3602 8.90984 12.3601 8.90398 12.3601ZM8.2967 14.7102L8.29671 13.5124L7.79896 13.5124C7.71627 13.5124 7.63963 13.527 7.56905 13.5562C7.49847 13.5855 7.43394 13.6293 7.37547 13.6878C7.317 13.7463 7.27314 13.8108 7.24391 13.8814C7.21467 13.952 7.20005 14.0286 7.20005 14.1113C7.20005 14.194 7.21467 14.2706 7.24391 14.3412C7.27314 14.4118 7.317 14.4763 7.37547 14.5348C7.43394 14.5933 7.49847 14.6371 7.56905 14.6663C7.63963 14.6956 7.71627 14.7102 7.79896 14.7102L8.2967 14.7102Z" fill="rgb(116,118,123)" fill-rule="evenodd" />
</svg>
