<svg viewBox="0 0 24 24" xmlns="http://www.w3.org/2000/svg" xmlns:xlink="http://www.w3.org/1999/xlink" width="24.000000" height="24.000000" fill="none">
	<rect id="Outline/List Sort Up Outline" width="24.000000" height="24.000000" x="0.000000" y="0.000000" />
	<path id="Shape" d="M17.7161 17.4902C17.3651 17.4768 17.0875 17.188 17.0881 16.8367L17.0943 8.7478L15.7042 10.2557C15.4547 10.517 15.0447 10.5124 14.7834 10.2629C14.5321 10.0138 14.5267 9.60334 14.7761 9.34206L17.3285 6.71428C17.6194 6.41445 18.0991 6.43153 18.3679 6.75131L20.8453 9.55127C20.9606 9.68546 21.0052 9.83714 20.9995 9.99704C20.9931 10.1769 20.9171 10.3443 20.7726 10.4693C20.4942 10.6995 20.0852 10.6649 19.8546 10.3965L18.3938 8.78702C18.3938 8.78702 18.4035 15.1391 18.3923 16.8449C18.3899 17.2124 18.0834 17.5042 17.7161 17.4902ZM10.65 8.79994L3.65 8.79994C3.286 8.79994 3 8.51394 3 8.14994C3 7.78594 3.286 7.49994 3.65 7.49994L10.65 7.49994C11.014 7.49994 11.3 7.78594 11.3 8.14994C11.3 8.51394 11.014 8.79994 10.65 8.79994ZM3.65 11.8L12.65 11.8C13.014 11.8 13.3 12.086 13.3 12.45C13.3 12.814 13.014 13.1 12.65 13.1L3.65 13.1C3.286 13.1 3 12.814 3 12.45C3 12.086 3.286 11.8 3.65 11.8ZM3.65 16.1L12.65 16.1C13.014 16.1 13.3 16.386 13.3 16.75C13.3 17.114 13.014 17.4 12.65 17.4L3.65 17.4C3.286 17.4 3 17.114 3 16.75C3 16.386 3.286 16.1 3.65 16.1Z" fill="rgb(116,118,123)" fill-rule="evenodd" />
</svg>
