<svg viewBox="0 0 24 24" xmlns="http://www.w3.org/2000/svg" xmlns:xlink="http://www.w3.org/1999/xlink" width="24.000000" height="24.000000" fill="none">
	<rect id="Outline/List Sort Down Outline" width="24.000000" height="24.000000" x="0.000000" y="0.000000" />
	<path id="Shape" d="M17.7161 6.50048C17.3651 6.51383 17.0875 6.80263 17.0881 7.15395L17.0943 15.2429L15.7042 13.735C15.4547 13.4737 15.0447 13.4783 14.7834 13.7278C14.5321 13.9769 14.5267 14.3873 14.7761 14.6486L17.3285 17.2764C17.6194 17.5762 18.0991 17.5591 18.3679 17.2394L20.8453 14.4394C20.9606 14.3052 21.0052 14.1535 20.9995 13.9936C20.9931 13.8137 20.9171 13.6463 20.7726 13.5214C20.4942 13.2912 20.0852 13.3257 19.8546 13.5941L18.3938 15.2036C18.3938 15.2036 18.4035 8.85156 18.3923 7.14578C18.3899 6.77825 18.0834 6.48651 17.7161 6.50048ZM3.65 6.5L12.65 6.5C13.014 6.5 13.3 6.786 13.3 7.15C13.3 7.514 13.014 7.8 12.65 7.8L3.65 7.8C3.286 7.8 3 7.514 3 7.15C3 6.786 3.286 6.5 3.65 6.5ZM3.65 10.8L12.65 10.8C13.014 10.8 13.3 11.086 13.3 11.45C13.3 11.814 13.014 12.1 12.65 12.1L3.65 12.1C3.286 12.1 3 11.814 3 11.45C3 11.086 3.286 10.8 3.65 10.8ZM10.65 16.4L3.65 16.4C3.286 16.4 3 16.114 3 15.75C3 15.386 3.286 15.1 3.65 15.1L10.65 15.1C11.014 15.1 11.3 15.386 11.3 15.75C11.3 16.114 11.014 16.4 10.65 16.4Z" fill="rgb(116,118,123)" fill-rule="evenodd" />
</svg>
