<svg width="24.000000" height="24.000000" viewBox="0 0 24 24" fill="none" xmlns="http://www.w3.org/2000/svg" xmlns:xlink="http://www.w3.org/1999/xlink">
	<desc>
			Created with Pixso.
	</desc>
	<defs>
		<clipPath id="clip111967_1293">
			<rect id="Outline / Microphone Outline" width="24.000000" height="24.000000" fill="white" fill-opacity="0"/>
		</clipPath>
	</defs>
	<g >
		<path id="Shape" d="M12 2C9.63 2 7.71 3.91 7.71 6.28L7.71 11.12C7.71 13.49 9.63 15.41 12 15.41C14.36 15.41 16.28 13.49 16.28 11.12L16.28 6.28C16.28 3.91 14.36 2 12 2ZM14.98 11.12L14.98 6.28C14.98 4.63 13.64 3.29 12 3.29C10.35 3.29 9.01 4.63 9.01 6.28L9.01 11.12C9.01 12.77 10.35 14.11 12 14.11C13.64 14.11 14.98 12.77 14.98 11.12ZM5.64 10.47C6 10.47 6.29 10.77 6.29 11.12C6.29 14.27 8.85 16.82 12 16.82C15.14 16.82 17.7 14.27 17.7 11.12C17.7 10.77 17.99 10.47 18.35 10.47C18.71 10.47 19 10.77 19 11.12C19 14.77 16.21 17.77 12.64 18.09C12.64 18.1 12.64 18.1 12.64 18.11C12.64 18.11 12.65 18.12 12.65 18.12L12.65 20.7L15.35 20.7C15.7 20.7 16 20.99 16 21.35C16 21.7 15.7 22 15.35 22L8.64 22C8.29 22 8 21.7 8 21.35C8 20.99 8.29 20.7 8.64 20.7L11.35 20.7L11.35 18.12C11.35 18.11 11.35 18.1 11.35 18.09C7.78 17.77 4.99 14.77 4.99 11.12C4.99 10.77 5.28 10.47 5.64 10.47Z" fill="#74767B" fill-opacity="1.000000" fill-rule="evenodd"/>
	</g>
</svg>
