<svg width="24.000000" height="24.000000" viewBox="0 0 24 24" fill="none" xmlns="http://www.w3.org/2000/svg" xmlns:xlink="http://www.w3.org/1999/xlink">
	<desc>
			Created with Pixso.
	</desc>
	<defs>
		<clipPath id="clip111967_1296">
			<rect id="Solid / Microphone  Off Solid" width="24.000000" height="24.000000" fill="white" fill-opacity="0"/>
		</clipPath>
	</defs>
	<g clip-path="url(#clip111967_1296)">
		<path id="Shape" d="M18.85 21.74L18.3 21.02C18.29 20.99 18.27 20.97 18.25 20.95L4.41 2.97C4.25 2.69 4.31 2.33 4.57 2.13C4.86 1.91 5.27 1.96 5.49 2.25L7.83 5.28C8.27 3.4 9.97 2 12 2C14.36 2 16.28 3.91 16.28 6.28L16.28 11.12C16.28 12.41 15.71 13.57 14.81 14.35L15.67 15.48C16.91 14.43 17.7 12.87 17.7 11.12C17.7 10.76 17.99 10.47 18.35 10.47C18.71 10.47 19 10.76 19 11.12C19 13.29 18.01 15.22 16.47 16.51L19.88 20.95C20.1 21.23 20.05 21.64 19.77 21.86C19.48 22.08 19.07 22.02 18.85 21.74ZM7.71 10.27L7.71 11.12C7.71 13.49 9.63 15.4 12 15.4C12.14 15.4 12.22 15.24 12.13 15.12L8.25 10.08C8.07 9.86 7.71 9.98 7.71 10.27ZM13.13 16.71C12.76 16.78 12.38 16.82 12 16.82C8.85 16.82 6.29 14.27 6.29 11.12C6.29 10.76 6 10.47 5.64 10.47C5.28 10.47 4.99 10.76 4.99 11.12C4.99 14.77 7.78 17.76 11.35 18.09C11.35 18.1 11.35 18.11 11.35 18.12L11.35 20.69L8.64 20.69C8.29 20.69 8 20.98 8 21.34C8 21.7 8.29 21.99 8.64 21.99L15.35 21.99C15.7 21.99 16 21.7 16 21.34C16 20.98 15.7 20.69 15.35 20.69L12.65 20.69L12.65 18.12C12.65 18.11 12.64 18.1 12.64 18.09C13.03 18.05 13.4 17.99 13.76 17.89C13.96 17.84 14.04 17.6 13.91 17.44L13.43 16.82C13.36 16.73 13.24 16.68 13.13 16.71Z" fill="#717681" fill-opacity="1.000000" fill-rule="evenodd"/>
	</g>
</svg>
