<svg width="24.000000" height="24.000000" viewBox="0 0 24 24" fill="none" xmlns="http://www.w3.org/2000/svg" xmlns:xlink="http://www.w3.org/1999/xlink">
	<desc>
			Created with Pixso.
	</desc>
	<defs>
		<clipPath id="clip111967_1295">
			<rect id="Outline / Microphone  Off Outline" width="24.000000" height="24.000000" fill="white" fill-opacity="0"/>
		</clipPath>
	</defs>
	<g clip-path="url(#clip111967_1295)">
		<path id="Shape" d="M5.49 2.25C5.27 1.96 4.86 1.91 4.57 2.13C4.29 2.35 4.24 2.75 4.46 3.04L18.85 21.74C19.07 22.02 19.48 22.08 19.77 21.86C20.05 21.64 20.1 21.23 19.88 20.95L16.47 16.51C18.01 15.22 19 13.29 19 11.12C19 10.76 18.71 10.47 18.35 10.47C17.99 10.47 17.7 10.76 17.7 11.12C17.7 12.87 16.91 14.43 15.67 15.48L14.81 14.35C15.71 13.57 16.28 12.41 16.28 11.12L16.28 6.28C16.28 3.91 14.36 2 12 2C9.97 2 8.27 3.4 7.83 5.28L5.49 2.25ZM9.01 6.82L14.01 13.32C14.61 12.78 14.98 11.99 14.98 11.12L14.98 6.28C14.98 4.63 13.64 3.29 12 3.29C10.35 3.29 9.01 4.63 9.01 6.28L9.01 6.82ZM7.71 10.27L7.71 11.12C7.71 13.49 9.63 15.4 12 15.4C12.14 15.4 12.22 15.24 12.13 15.12L11.34 14.1C11.3 14.05 11.24 14.01 11.18 13.99C9.93 13.64 9.01 12.49 9.01 11.12C9.01 11.09 9 11.06 8.98 11.04L8.25 10.08C8.07 9.86 7.71 9.98 7.71 10.27ZM12 16.82C12.38 16.82 12.76 16.78 13.13 16.71C13.24 16.68 13.36 16.73 13.43 16.82L13.91 17.44C14.04 17.6 13.96 17.84 13.76 17.89C13.4 17.99 13.03 18.05 12.64 18.09L12.64 18.1L12.65 18.12L12.65 20.69L15.35 20.69C15.7 20.69 16 20.98 16 21.34C16 21.7 15.7 21.99 15.35 21.99L8.65 21.99C8.29 21.99 8 21.7 8 21.34C8 20.98 8.29 20.69 8.65 20.69L11.35 20.69L11.35 18.12L11.35 18.1L11.35 18.09C7.78 17.76 4.99 14.77 4.99 11.12C4.99 10.76 5.28 10.47 5.64 10.47C6 10.47 6.29 10.76 6.29 11.12C6.29 14.27 8.85 16.82 12 16.82Z" fill="#717681" fill-opacity="1.000000" fill-rule="evenodd"/>
	</g>
</svg>
