<svg width="24" height="24" viewBox="0 0 24 24" fill="none" xmlns="http://www.w3.org/2000/svg">
<path fill-rule="evenodd" clip-rule="evenodd" d="M12 21C7.02944 21 3 16.9706 3 12C3 7.02944 7.02944 3 12 3C16.9706 3 21 7.02944 21 12C21 16.9706 16.9706 21 12 21ZM10.7 17.7C10.7 16.982 11.282 16.4 12 16.4C12.7179 16.4 13.3 16.982 13.3 17.7C13.3 18.418 12.7179 19 12 19C11.282 19 10.7 18.418 10.7 17.7ZM10.7 6.7C10.7 5.98203 11.282 5.4 11.9999 5.4C12.7179 5.4 13.2999 5.98203 13.2999 6.7C13.3 7.41797 12.7179 8 12 8C11.282 8 10.7 7.41797 10.7 6.7ZM10.7 12C10.7 11.282 11.282 10.7 12 10.7C12.718 10.7 13.3 11.282 13.3 12C13.3 12.718 12.718 13.3 12 13.3C11.282 13.3 10.7 12.718 10.7 12Z" fill="#717681"/>
</svg>
