<svg width="24.000000" height="24.000000" viewBox="0 0 24 24" fill="none" xmlns="http://www.w3.org/2000/svg" xmlns:xlink="http://www.w3.org/1999/xlink">
	<desc>
			Created with Pixso.
	</desc>
	<defs>
		<clipPath id="clip17_1317">
			<rect id="Outline / More Vertical Outline" width="24.000000" height="24.000000" fill="white" fill-opacity="0"/>
		</clipPath>
	</defs>
	<g>
		<path id="Shape" d="M10 19C10 17.89 10.89 17 12 17C13.1 17 14 17.89 14 19C14 20.1 13.1 21 12 21C10.89 21 10 20.1 10 19ZM10 12C10 10.89 10.89 10 12 10C13.1 10 14 10.89 14 12C14 13.1 13.1 14 12 14C10.89 14 10 13.1 10 12ZM10 5C10 3.89 10.89 3 12 3C13.1 3 14 3.89 14 5C14 6.1 13.1 7 12 7C10.89 7 10 6.1 10 5Z" fill="#717681" fill-opacity="1.000000" fill-rule="evenodd"/>
	</g>
</svg>
