<svg width="24.000000" height="24.000000" viewBox="0 0 24 24" fill="none" xmlns="http://www.w3.org/2000/svg" xmlns:xlink="http://www.w3.org/1999/xlink">
	<desc>
			Created with Pixso.
	</desc>
	<defs>
		<clipPath id="clip127988_802">
			<rect id="Outline / No Admin Outline" width="24.000000" height="24.000000" fill="white" fill-opacity="0"/>
		</clipPath>
	</defs>
	<g clip-path="url(#clip127988_802)">
		<path id="Shape" d="M5.27 2.32C5.05 2.04 4.65 1.98 4.36 2.2C4.08 2.42 4.02 2.83 4.24 3.11L18.54 21.7C18.76 21.98 19.17 22.04 19.46 21.82C19.74 21.6 19.79 21.19 19.57 20.91L17.9 18.73C21.15 15.65 21.67 10.56 18.94 6.87C16.14 3.08 10.93 2.12 6.99 4.55L5.27 2.32ZM17.89 7.64C20.2 10.76 19.8 15.05 17.1 17.7L15.62 15.77C16.67 14.61 17.14 13.05 16.95 11.55C16.89 11.05 16.55 10.7 16.15 10.55C15.75 10.42 15.3 10.48 14.93 10.75L12.91 12.24L12 11.07L14.05 9.55C14.42 9.29 14.61 8.87 14.59 8.45C14.58 8.02 14.34 7.6 13.88 7.39C12.43 6.74 10.73 6.76 9.27 7.51L7.78 5.58C11.14 3.59 15.53 4.43 17.89 7.64ZM4.99 6.21C2.2 9.32 1.88 14.07 4.46 17.56C7.11 21.15 11.93 22.2 15.78 20.24L14.97 19.18C12.75 20.23 10.18 20.13 8.07 19.01L10.31 17.35C10.32 17.34 10.35 17.33 10.41 17.34C11.4 17.59 12.46 17.55 13.45 17.21L12.6 16.1C11.98 16.24 11.34 16.23 10.73 16.08C10.35 15.99 9.9 16.04 9.54 16.3L6.91 18.25C6.39 17.83 5.92 17.35 5.51 16.79C5.09 16.23 4.77 15.63 4.53 15.01L7.16 13.07C7.52 12.8 7.7 12.4 7.72 12C7.75 11.43 7.9 10.86 8.17 10.35L7.32 9.24C6.78 10.05 6.47 10.98 6.42 11.93C6.42 11.99 6.39 12.02 6.38 12.02L4.14 13.68C3.7 11.43 4.29 9.06 5.8 7.26L4.99 6.21ZM13.24 8.53L11.21 10.04L10.08 8.57C11.1 8.11 12.25 8.12 13.24 8.53ZM15.67 11.82C15.77 12.85 15.47 13.89 14.81 14.71L13.7 13.27L15.67 11.82Z" fill="#74767B" fill-opacity="1.000000" fill-rule="evenodd"/>
	</g>
</svg>
