<svg width="24.000000" height="24.000000" viewBox="0 0 24 24" fill="none" xmlns="http://www.w3.org/2000/svg" xmlns:xlink="http://www.w3.org/1999/xlink">
	<desc>
			Created with Pixso.
	</desc>
	<defs>
		<clipPath id="clip17_1272">
			<rect id="Solid / Notifications Solid" width="24.000000" height="24.000000" fill="white" fill-opacity="0"/>
		</clipPath>
	</defs>
	<g>
		<path id="Shape" d="M11.94 1.93C12.3 1.93 12.59 2.22 12.59 2.58L12.59 4.62C14.52 4.88 16.13 6.29 16.6 8.22L18.37 15.27L19.1 15.27C19.45 15.27 19.75 15.57 19.75 15.92C19.75 16.28 19.45 16.57 19.1 16.57L4.79 16.57C4.44 16.57 4.14 16.28 4.14 15.92C4.14 15.57 4.44 15.27 4.79 15.27L5.52 15.27L7.29 8.22C7.76 6.29 9.37 4.88 11.29 4.62L11.29 2.58C11.29 2.22 11.59 1.93 11.94 1.93ZM9.35 18.61C9.34 18.25 9.62 17.95 9.98 17.95C10.93 17.92 12.11 17.91 13.61 17.95C13.97 17.95 14.25 18.25 14.24 18.61C14.21 19.91 13.07 20.85 11.79 20.85C10.52 20.85 9.38 19.91 9.35 18.61Z" fill="#717681" fill-opacity="1.000000" fill-rule="evenodd"/>
	</g>
</svg>
