<svg viewBox="0 0 24 24" xmlns="http://www.w3.org/2000/svg" xmlns:xlink="http://www.w3.org/1999/xlink" width="24.000000" height="24.000000" fill="none">
	<rect id="Outline/Numbers Sort Down Outline" width="24.000000" height="24.000000" x="0.000000" y="0.000000" />
	<path id="Shape" d="M6.13209 8.0046L7.54296 6.5427C7.66164 6.41972 7.79027 6.34349 7.92884 6.314L7.92884 6.314C8.06742 6.28451 8.21594 6.30177 8.37441 6.36576C8.53288 6.42976 8.65173 6.52048 8.73097 6.63794L8.73097 6.63794C8.8102 6.75539 8.84982 6.89957 8.84982 7.07047L8.84975 10.9443C8.84975 11.3083 8.56375 11.5943 8.19975 11.5943C7.83575 11.5943 7.54975 11.3083 7.54975 10.9443L7.54982 8.40761L7.06751 8.90737C6.81474 9.16929 6.41034 9.17647 6.14842 8.9237C5.8865 8.67092 5.87932 8.26652 6.13209 8.0046ZM14.1779 7.12291C14.1773 6.77159 14.4549 6.48279 14.806 6.46944C15.1732 6.45547 15.4797 6.74721 15.4821 7.11474C15.4933 8.82052 15.4836 15.1726 15.4836 15.1726L16.9444 13.5631C17.175 13.2947 17.584 13.2601 17.8624 13.4904C18.0069 13.6153 18.0829 13.7827 18.0893 13.9626C18.095 14.1225 18.0504 14.2742 17.9351 14.4084L15.4577 17.2083C15.1889 17.5281 14.7092 17.5452 14.4184 17.2453L11.866 14.6176C11.6165 14.3563 11.6219 13.9458 11.8732 13.6967C12.1345 13.4473 12.5446 13.4427 12.794 13.704L14.1841 15.2118L14.1779 7.12291ZM8.51189 12.2699L8.5119 12.2699L8.51191 12.27C8.7389 12.3804 8.93972 12.5446 9.11436 12.7626C9.4926 13.2349 9.68171 13.9024 9.68171 14.7653L9.68171 14.772C9.68171 15.6546 9.51728 16.3528 9.18843 16.8665C8.99562 17.1677 8.76183 17.3873 8.48706 17.5252L8.48701 17.5252L8.48698 17.5252C8.25485 17.6418 7.99347 17.7 7.70285 17.7C7.42226 17.7 7.16705 17.646 6.93722 17.538L6.93719 17.538C6.80738 17.477 6.68567 17.3987 6.57206 17.3033C6.45964 17.2088 6.36229 17.1036 6.28001 16.9878L6.27998 16.9878L6.27993 16.9877L6.27991 16.9877C6.27938 16.987 6.03762 16.6998 6.03765 16.4394C6.03816 16.3873 6.04693 16.3383 6.06395 16.2923L6.06395 16.2923C6.08574 16.2335 6.12103 16.1797 6.16984 16.1309C6.21392 16.0868 6.26257 16.0537 6.31578 16.0317C6.36901 16.0096 6.42682 15.9986 6.48919 15.9986L6.58892 15.9987C6.70633 15.9987 6.81586 16.0601 6.87723 16.1309C6.93714 16.2 7.13279 16.467 7.25054 16.5565C7.36828 16.6461 7.52008 16.6908 7.70594 16.6908C7.83603 16.6908 7.95308 16.6648 8.05709 16.6127L8.05711 16.6127C8.32938 16.4763 8.51227 16.1615 8.60578 15.6683C8.50329 15.7379 8.39577 15.7946 8.28323 15.8384L8.28313 15.8385C8.09186 15.913 7.88609 15.9502 7.66582 15.9502C7.40485 15.9502 7.16614 15.9011 6.94969 15.803C6.74615 15.7107 6.56229 15.575 6.39811 15.3959C6.285 15.2726 6.19114 15.1392 6.11655 14.9958L6.11655 14.9958C5.97212 14.7181 5.8999 14.4029 5.8999 14.0501L5.8999 14.0434C5.8999 13.6814 5.9744 13.3585 6.12339 13.0748L6.12339 13.0748C6.20108 12.9268 6.29903 12.7895 6.41723 12.6628C6.579 12.4894 6.75952 12.3561 6.95879 12.2628L6.9588 12.2628L6.95881 12.2628C7.19069 12.1543 7.44796 12.1 7.73063 12.1C8.01859 12.1 8.27901 12.1567 8.51189 12.2699ZM8.05051 14.8885C8.14762 14.8471 8.23595 14.7851 8.31552 14.7026C8.38125 14.6344 8.43373 14.5599 8.47297 14.4788C8.53109 14.3589 8.56015 14.2248 8.56015 14.0767L8.56015 14.0734C8.56015 13.8742 8.51808 13.6983 8.43395 13.5455L8.43393 13.5454C8.40044 13.4846 8.36029 13.4275 8.31348 13.374C8.22578 13.2738 8.12685 13.2017 8.01671 13.1577C7.93031 13.1232 7.83701 13.1059 7.7368 13.1059C7.64032 13.1059 7.55006 13.1221 7.46603 13.1544L7.46598 13.1544C7.35641 13.1966 7.25741 13.2662 7.16899 13.3634C7.11422 13.4235 7.06858 13.4885 7.03208 13.5582C6.95916 13.6976 6.9227 13.8559 6.9227 14.0334L6.9227 14.0401C6.9227 14.2433 6.96782 14.4191 7.05807 14.5674C7.08744 14.6157 7.1216 14.6611 7.16053 14.7035C7.23107 14.7804 7.31003 14.8394 7.39743 14.8805L7.39752 14.8805L7.39755 14.8806C7.49755 14.9275 7.60857 14.951 7.73063 14.951C7.84612 14.951 7.95274 14.9302 8.05048 14.8885L8.05051 14.8885Z" fill="rgb(116,118,123)" fill-rule="evenodd" />
</svg>
