<svg width="24.000000" height="24.000000" viewBox="0 0 24 24" fill="none" xmlns="http://www.w3.org/2000/svg" xmlns:xlink="http://www.w3.org/1999/xlink">
	<desc>
			Created with Pixso.
	</desc>
	<defs>
		<clipPath id="clip17_1444">
			<rect id="Solid / Ok Send Solid" width="24.000000" height="24.000000" fill="white" fill-opacity="0"/>
		</clipPath>
	</defs>
	<g clip-path="url(#clip17_1444)">
		<path id="Shape" d="M12 3C7.02 3 3 7.02 3 12C3 16.97 7.02 21 12 21C16.97 21 21 16.97 21 12C21 7.02 16.97 3 12 3ZM10.03 15.68C10.31 15.96 10.77 15.95 11.04 15.66C12.6 13.97 14.15 12.22 15.74 10.57L15.72 12.72C15.71 13.08 15.99 13.38 16.36 13.39C16.55 13.4 16.71 13.32 16.84 13.19C16.95 13.08 17.02 12.94 17.02 12.76L17.06 9.02C17.07 8.6 16.73 8.27 16.31 8.3L12.59 8.37C12.23 8.4 11.96 8.71 11.98 9.06C12 9.42 12.31 9.7 12.67 9.67L14.8 9.67C13.33 11.19 11.94 12.77 10.51 14.32L8.11 11.92C7.86 11.67 7.44 11.67 7.19 11.92C6.94 12.17 6.94 12.59 7.19 12.84L10.03 15.68Z" fill="#717681" fill-opacity="1.000000" fill-rule="evenodd"/>
	</g>
</svg>
