<svg width="24.000000" height="24.000000" viewBox="0 0 24 24" fill="none" xmlns="http://www.w3.org/2000/svg" xmlns:xlink="http://www.w3.org/1999/xlink">
	<desc>
			Created with Pixso.
	</desc>
	<defs/>
	<path id="Shape" d="M4 7C4 5.34 5.34 4 7 4L17 4C18.65 4 20 5.34 20 7L20 17C20 18.65 18.65 20 17 20L7 20C5.34 20 4 18.65 4 17L4 7ZM10.8 17.34C10.8 17.7 10.51 17.99 10.15 17.99L6.65 17.99C6.29 17.99 6 17.7 6 17.34L6 13.84C6 13.48 6.29 13.19 6.65 13.19C7.01 13.19 7.3 13.48 7.3 13.84L7.3 15.77L9.78 13.29C10.03 13.04 10.45 13.04 10.7 13.29C10.95 13.54 10.95 13.96 10.7 14.21L8.22 16.69L10.15 16.69C10.51 16.69 10.8 16.98 10.8 17.34ZM6.65 10.79C6.29 10.79 6 10.5 6 10.14L6 6.64C6 6.28 6.29 5.99 6.65 5.99L10.15 5.99C10.51 5.99 10.8 6.28 10.8 6.64C10.8 7 10.51 7.29 10.15 7.29L8.22 7.29L10.7 9.78C10.96 10.03 10.96 10.44 10.7 10.7C10.45 10.95 10.04 10.95 9.78 10.7L7.3 8.21L7.3 10.14C7.3 10.5 7.01 10.79 6.65 10.79ZM13.2 6.64C13.2 6.28 13.49 5.99 13.85 5.99L17.35 5.99C17.71 5.99 18 6.28 18 6.64L18 10.14C18 10.5 17.71 10.79 17.35 10.79C16.99 10.79 16.7 10.5 16.7 10.14L16.7 8.21L14.22 10.7C13.96 10.95 13.55 10.95 13.3 10.7C13.04 10.44 13.04 10.03 13.3 9.78L15.78 7.29L13.85 7.29C13.49 7.29 13.2 7 13.2 6.64ZM17.35 13.19C17.71 13.19 18 13.48 18 13.84L18 17.34C18 17.7 17.71 17.99 17.35 17.99L13.85 17.99C13.49 17.99 13.2 17.7 13.2 17.34C13.2 16.98 13.49 16.69 13.85 16.69L15.78 16.69L13.3 14.2C13.04 13.95 13.04 13.54 13.3 13.29C13.55 13.03 13.96 13.03 14.22 13.29L16.7 15.77L16.7 13.84C16.7 13.48 16.99 13.19 17.35 13.19Z" fill="#717681" fill-opacity="1.000000" fill-rule="evenodd"/>
</svg>
