<svg width="24.000000" height="24.000000" viewBox="0 0 24 24" fill="none" xmlns="http://www.w3.org/2000/svg" xmlns:xlink="http://www.w3.org/1999/xlink">
	<desc>
			Created with Pixso.
	</desc>
	<defs>
		<clipPath id="clip17_1512">
			<rect id="Solid / People Solid" width="24.000000" height="24.000000" fill="white" fill-opacity="0"/>
		</clipPath>
	</defs>
	<g clip-path="url(#clip17_1512)">
		<path id="Shape" d="M9.82 3C7.16 3 5.09 5.32 5.39 7.96L5.65 10.27C5.89 12.39 7.69 14 9.82 14C11.96 14 13.75 12.39 14 10.27L14.26 7.96C14.56 5.32 12.49 3 9.82 3ZM13.98 13.9C13.82 13.69 13.98 13.4 14.14 13.2C14.76 12.42 15.17 11.47 15.29 10.42L15.55 8.11C15.75 6.32 15.12 4.64 13.97 3.45C13.88 3.36 13.82 3.23 13.9 3.12C13.96 3.05 14.05 3 14.17 3C16.83 3 18.9 5.32 18.6 7.96L18.34 10.27C18.1 12.39 16.3 14 14.17 14C14.08 14 14.02 13.96 13.98 13.9ZM7.97 15C5.16 15 2.72 16.95 2.11 19.69L2.01 20.14C1.91 20.58 2.25 21 2.7 21L16.95 21C17.4 21 17.73 20.58 17.63 20.14L17.53 19.69C16.92 16.95 14.49 15 11.68 15L7.97 15ZM18.93 20.58C18.91 20.71 18.93 20.85 19.04 20.92C19.12 20.97 19.21 21 19.31 21L21.29 21C21.74 21 22.08 20.58 21.98 20.14L21.88 19.69C21.38 17.44 19.64 15.72 17.48 15.18C17.12 15.08 16.85 15.34 16.81 15.65C16.8 15.75 16.84 15.84 16.91 15.91C17.83 16.85 18.5 18.05 18.8 19.41L18.9 19.86C18.96 20.11 18.96 20.35 18.93 20.58Z" fill="#74767B" fill-opacity="1.000000" fill-rule="evenodd"/>
	</g>
</svg>
