<svg width="24.000000" height="24.000000" viewBox="0 0 24 24" fill="none" xmlns="http://www.w3.org/2000/svg" xmlns:xlink="http://www.w3.org/1999/xlink">
	<desc>
			Created with Pixso.
	</desc>
	<defs>
		<clipPath id="clip17_1509">
			<rect id="Outline / People Outline" width="24.000000" height="24.000000" fill="white" fill-opacity="0"/>
		</clipPath>
	</defs>
	<g clip-path="url(#clip17_1509)">
		<path id="Shape" d="M5.39 7.96C5.09 5.32 7.16 3 9.82 3C12.49 3 14.56 5.32 14.26 7.96L14 10.27C13.75 12.39 11.96 14 9.82 14C7.69 14 5.89 12.39 5.65 10.27L5.39 7.96ZM14.17 14C13.79 14 13.65 13.53 13.89 13.24C13.94 13.18 13.98 13.12 14.03 13.06C14.19 12.84 14.44 12.7 14.71 12.64C15.94 12.41 16.9 11.4 17.05 10.12L17.31 7.82C17.49 6.22 16.46 4.8 14.99 4.4C14.64 4.31 14.31 4.12 14.08 3.84C14.03 3.78 13.98 3.72 13.93 3.66C13.71 3.4 13.83 3 14.17 3C16.83 3 18.9 5.32 18.6 7.96L18.34 10.27C18.1 12.39 16.3 14 14.17 14ZM12.97 7.82L12.7 10.12C12.54 11.59 11.3 12.7 9.82 12.7C8.35 12.7 7.11 11.59 6.94 10.12L6.68 7.82C6.47 5.94 7.93 4.29 9.82 4.29C11.71 4.29 13.18 5.94 12.97 7.82ZM2.11 19.69C2.72 16.95 5.16 15 7.97 15L11.68 15C14.49 15 16.92 16.95 17.53 19.69L17.63 20.14C17.73 20.58 17.4 21 16.95 21L2.7 21C2.25 21 1.91 20.58 2.01 20.14L2.11 19.69ZM18.72 20.3C18.72 20.64 18.97 21 19.31 21L21.29 21C21.74 21 22.08 20.58 21.98 20.14L21.88 19.69C21.38 17.44 19.64 15.72 17.48 15.18C16.91 15.03 16.59 15.72 16.96 16.19C17.09 16.36 17.27 16.46 17.48 16.53C18.94 17 20.1 18.17 20.54 19.7L19.25 19.7C18.94 19.7 18.72 19.99 18.72 20.3ZM11.68 16.29C13.78 16.29 15.62 17.69 16.19 19.7L3.45 19.7C4.03 17.69 5.86 16.29 7.97 16.29L11.68 16.29Z" fill="#74767B" fill-opacity="1.000000" fill-rule="evenodd"/>
	</g>
</svg>
