<svg width="24.000000" height="24.000000" viewBox="0 0 24 24" fill="none" xmlns="http://www.w3.org/2000/svg" xmlns:xlink="http://www.w3.org/1999/xlink">
	<desc>
			Created with Pixso.
	</desc>
	<defs>
		<clipPath id="clip17_1698">
			<rect id="Outline / Person Refresh Outline" width="24.000000" height="24.000000" fill="white" fill-opacity="0"/>
		</clipPath>
	</defs>
	<g >
		<path id="Shape" d="M11.99 3C9.33 3 7.26 5.32 7.56 7.96L7.82 10.27C8.06 12.39 9.86 14 11.99 14C14.13 14 15.93 12.39 16.17 10.27L16.43 7.96C16.73 5.32 14.66 3 11.99 3ZM14.88 10.12L15.14 7.82C15.35 5.94 13.88 4.29 11.99 4.29C10.11 4.29 8.64 5.94 8.85 7.82L9.11 10.12C9.28 11.59 10.52 12.7 11.99 12.7C13.47 12.7 14.71 11.59 14.88 10.12ZM10.14 15C7.33 15 4.89 16.95 4.28 19.69L4.18 20.14C4.09 20.58 4.42 21 4.87 21L12.65 21C13.01 21 13.3 20.7 13.3 20.35C13.3 19.99 13.01 19.7 12.65 19.7L5.62 19.7C6.2 17.69 8.04 16.29 10.14 16.29L12.65 16.29C13.01 16.29 13.3 16 13.3 15.65C13.3 15.29 13.01 15 12.65 15L10.14 15ZM14.29 18.34C14.55 20.21 16.16 21.65 18.1 21.65C20.23 21.65 21.95 19.92 21.95 17.79C21.95 15.67 20.23 13.94 18.1 13.94C17.66 13.94 17.23 14.01 16.84 14.15C16.5 14.27 16.32 14.64 16.44 14.98C16.55 15.32 16.92 15.5 17.26 15.38C17.52 15.29 17.81 15.24 18.1 15.24C19.51 15.24 20.65 16.38 20.65 17.79C20.65 19.2 19.51 20.35 18.1 20.35C16.84 20.35 15.8 19.44 15.59 18.24L16.09 18.73C16.34 18.98 16.76 18.98 17.01 18.72C17.26 18.47 17.26 18.06 17 17.81L15.42 16.26C15.16 16 14.75 16.01 14.5 16.26L12.95 17.84C12.7 18.1 12.7 18.51 12.96 18.76C13.22 19.01 13.63 19.01 13.88 18.75L14.29 18.34Z" fill="#74767B" fill-opacity="1.000000" fill-rule="evenodd"/>
	</g>
</svg>
