<svg width="24.000000" height="24.000000" viewBox="0 0 24 24" fill="none" xmlns="http://www.w3.org/2000/svg" xmlns:xlink="http://www.w3.org/1999/xlink">
	<desc>
			Created with Pixso.
	</desc>
	<defs>
		<clipPath id="clip116865_697">
			<rect id="Solid / Person Account Solid" width="24.000000" height="24.000000" fill="white" fill-opacity="0"/>
		</clipPath>
	</defs>
	<rect id="Solid / Person Account Solid" width="24.000000" height="24.000000" fill="#FFFFFF" fill-opacity="0"/>
	<g >
		<path id="Shape" d="M21 12C21 14.83 19.68 17.36 17.63 19.01C16.76 19.71 15.76 20.25 14.67 20.59C13.83 20.85 12.93 21 12 21C11.06 21 10.16 20.85 9.32 20.59C8.23 20.25 7.23 19.71 6.36 19.01C4.31 17.36 3 14.83 3 12C3 7.02 7.02 3 12 3C16.97 3 21 7.02 21 12ZM16.99 17.85C16.16 16.76 14.84 16.07 13.39 16.07L10.6 16.07C9.15 16.07 7.83 16.76 7 17.85C8.34 19 10.09 19.7 12 19.7C13.9 19.7 15.65 19 16.99 17.85ZM8.65 10.18C8.43 8.18 9.99 6.43 12 6.43C14 6.43 15.56 8.18 15.34 10.18L15.14 11.91C14.96 13.51 13.6 14.72 12 14.72C10.39 14.72 9.03 13.51 8.85 11.91L8.65 10.18Z" fill="#74767B" fill-opacity="1.000000" fill-rule="evenodd"/>
	</g>
</svg>
