<svg width="24.000000" height="24.000000" viewBox="0 0 24 24" fill="none" xmlns="http://www.w3.org/2000/svg" xmlns:xlink="http://www.w3.org/1999/xlink">
	<desc>
			Created with Pixso.
	</desc>
	<defs>
		<clipPath id="clip17_1701">
			<rect id="Solid / Person Refresh Solid" width="24.000000" height="24.000000" fill="white" fill-opacity="0"/>
		</clipPath>
	</defs>
	<g >
		<path id="Shape" d="M7.56 7.98C7.26 5.33 9.33 3.01 11.99 3.01C14.66 3.01 16.73 5.33 16.43 7.98L16.17 10.29C15.93 12.41 14.13 14.01 11.99 14.01C9.86 14.01 8.06 12.41 7.82 10.29L7.56 7.98ZM11.15 15.01C11.66 15.01 12.01 15.56 11.88 16.06C11.76 16.52 11.69 17.01 11.69 17.51C11.69 18.32 11.86 19.1 12.16 19.8C12.39 20.33 12.04 21.01 11.46 21.01L4.87 21.01C4.42 21.01 4.09 20.6 4.18 20.16L4.28 19.71C4.89 16.97 7.33 15.01 10.14 15.01L11.15 15.01ZM14.29 18.34C14.55 20.21 16.16 21.65 18.1 21.65C20.23 21.65 21.95 19.92 21.95 17.79C21.95 15.67 20.23 13.94 18.1 13.94C17.66 13.94 17.23 14.01 16.84 14.15C16.5 14.27 16.32 14.64 16.44 14.98C16.55 15.32 16.92 15.5 17.26 15.38C17.52 15.29 17.81 15.24 18.1 15.24C19.51 15.24 20.65 16.38 20.65 17.79C20.65 19.2 19.51 20.35 18.1 20.35C16.84 20.35 15.8 19.44 15.59 18.24L16.09 18.73C16.34 18.98 16.76 18.98 17.01 18.72C17.26 18.47 17.26 18.06 17 17.81L15.42 16.26C15.16 16 14.75 16.01 14.5 16.26L12.95 17.84C12.7 18.1 12.7 18.51 12.96 18.76C13.22 19.01 13.63 19.01 13.88 18.75L14.29 18.34Z" fill="#74767B" fill-opacity="1.000000" fill-rule="evenodd"/>
	</g>
</svg>
