<svg width="24.000000" height="24.000000" viewBox="0 0 24 24" fill="none" xmlns="http://www.w3.org/2000/svg" xmlns:xlink="http://www.w3.org/1999/xlink">
	<desc>
			Created with Pixso.
	</desc>
	<defs>
		<clipPath id="clip17_1686">
			<rect id="Solid / Person Limit Solid" width="24.000000" height="24.000000" fill="white" fill-opacity="0"/>
		</clipPath>
	</defs>
	<g clip-path="url(#clip17_1686)">
		<path id="Shape" d="M12 3C9.33 3 7.26 5.32 7.56 7.96L7.82 10.27C8.06 12.39 9.86 14 12 14C14.13 14 15.93 12.39 16.17 10.27L16.43 7.96C16.73 5.32 14.66 3 12 3ZM14.31 14.31C12.56 16.07 12.56 18.92 14.31 20.68C16.07 22.43 18.92 22.43 20.68 20.68C22.43 18.92 22.43 16.07 20.68 14.31C18.92 12.56 16.07 12.56 14.31 14.31ZM15.74 14.82L20.17 19.25C20.99 18.01 20.85 16.32 19.76 15.23C18.67 14.14 16.98 14 15.74 14.82ZM19.25 20.17L14.82 15.74C14 16.98 14.14 18.67 15.23 19.76C16.32 20.85 18.01 20.99 19.25 20.17ZM11.88 16.04C12.01 15.54 11.66 15 11.15 15L10.14 15C7.33 15 4.89 16.95 4.28 19.69L4.18 20.14C4.09 20.58 4.42 21 4.87 21L11.46 21C12.04 21 12.39 20.31 12.16 19.78C11.86 19.08 11.7 18.31 11.7 17.5C11.7 16.99 11.76 16.5 11.88 16.04Z" fill="#717681" fill-opacity="1.000000" fill-rule="evenodd"/>
	</g>
</svg>
