<svg width="24" height="24" viewBox="0 0 24 24" fill="none" xmlns="http://www.w3.org/2000/svg">
<path fill-rule="evenodd" clip-rule="evenodd" d="M7.56456 7.96802C7.26365 5.32002 9.33497 3 12 3C14.6651 3 16.7364 5.32002 16.4355 7.96803L16.1734 10.274C15.9322 12.3966 14.1363 14 12 14C9.86377 14 8.06781 12.3966 7.8266 10.274L7.56456 7.96802Z" fill="#717681"/>
<path fill-rule="evenodd" clip-rule="evenodd" d="M4.28926 19.6984C4.89931 16.9532 7.33419 15 10.1464 15H13.8537C16.6658 15 19.1007 16.9532 19.7108 19.6984L19.8107 20.1481C19.9079 20.5853 19.5752 21 19.1274 21H4.87265C4.42482 21 4.09217 20.5853 4.18932 20.1481L4.28926 19.6984Z" fill="#717681"/>
</svg>
