<svg width="24.000000" height="24.000000" viewBox="0 0 24 24" fill="none" xmlns="http://www.w3.org/2000/svg" xmlns:xlink="http://www.w3.org/1999/xlink">
	<desc>
			Created with Pixso.
	</desc>
	<defs>
		<clipPath id="clip17_1374">
			<rect id="Solid / Person Add Solid" width="24.000000" height="24.000000" fill="white" fill-opacity="0"/>
		</clipPath>
	</defs>
	<g clip-path="url(#clip17_1374)">
		<path id="Shape" d="M12 3C9.33 3 7.26 5.32 7.56 7.96L7.82 10.27C8.06 12.39 9.86 14 12 14C14.13 14 15.93 12.39 16.17 10.27L16.43 7.96C16.73 5.32 14.66 3 12 3ZM17.5 13C19.98 13 22 15.01 22 17.5C22 19.98 19.98 22 17.5 22C15.01 22 13 19.98 13 17.5C13 15.01 15.01 13 17.5 13ZM15.49 16.85C15.13 16.85 14.84 17.14 14.84 17.5C14.84 17.85 15.13 18.15 15.49 18.15L16.85 18.15L16.85 19.37C16.85 19.73 17.14 20.02 17.5 20.02C17.85 20.02 18.14 19.73 18.14 19.37L18.14 18.15L19.5 18.15C19.86 18.15 20.15 17.85 20.15 17.5C20.15 17.14 19.86 16.85 19.5 16.85L18.14 16.85L18.14 15.62C18.14 15.26 17.85 14.97 17.5 14.97C17.14 14.97 16.85 15.26 16.85 15.62L16.85 16.85L15.49 16.85ZM11.88 16.04C12.01 15.54 11.66 15 11.15 15L10.14 15C7.33 15 4.89 16.95 4.28 19.69L4.18 20.14C4.09 20.58 4.42 21 4.87 21L11.46 21C12.04 21 12.39 20.31 12.16 19.78C11.86 19.08 11.7 18.31 11.7 17.5C11.7 16.99 11.76 16.5 11.88 16.04Z" fill="#74767B" fill-opacity="1.000000" fill-rule="evenodd"/>
	</g>
</svg>
