<svg width="24.000000" height="24.000000" viewBox="0 0 24 24" fill="none" xmlns="http://www.w3.org/2000/svg" xmlns:xlink="http://www.w3.org/1999/xlink">
	<desc>
			Created with Pixso.
	</desc>
	<defs>
		<clipPath id="clip17_1686">
			<rect id="Solid / Person Limit Solid" width="24.000000" height="24.000000" fill="white" fill-opacity="0"/>
		</clipPath>
	</defs>
	<g clip-path="url(#clip17_1686)">
		<path id="Shape" d="M7.56 7.96C7.26 5.32 9.33 3 12 3C14.66 3 16.73 5.32 16.43 7.96L16.17 10.27C15.93 12.39 14.13 14 12 14C9.86 14 8.06 12.39 7.82 10.27L7.56 7.96Z" fill="#74767B" fill-opacity="1.000000" fill-rule="nonzero"/>
		<path id="Shape" d="M11.15 15C11.66 15 12.01 15.54 11.88 16.04C11.76 16.5 11.7 16.99 11.7 17.5C11.7 18.31 11.86 19.08 12.16 19.78C12.39 20.31 12.04 21 11.46 21L4.87 21C4.42 21 4.09 20.58 4.18 20.14L4.28 19.69C4.89 16.95 7.33 15 10.14 15L11.15 15Z" fill="#74767B" fill-opacity="1.000000" fill-rule="nonzero"/>
		<path id="Shape" d="M14.31 14.31C12.56 16.07 12.56 18.92 14.31 20.68C16.07 22.43 18.92 22.43 20.68 20.68C22.43 18.92 22.43 16.07 20.68 14.31C18.92 12.56 16.07 12.56 14.31 14.31ZM19.76 15.23C18.51 13.98 16.48 13.98 15.23 15.23C13.98 16.48 13.98 18.51 15.23 19.76C16.48 21.01 18.51 21.01 19.76 19.76C21.01 18.51 21.01 16.48 19.76 15.23Z" fill="#74767B" fill-opacity="1.000000" fill-rule="evenodd"/>
		<path id="Shape" d="M20.43 19.51L15.48 14.56L14.56 15.48L19.51 20.43L20.43 19.51Z" fill="#74767B" fill-opacity="1.000000" fill-rule="evenodd"/>
	</g>
</svg>
