<svg width="24.000000" height="24.000000" viewBox="0 0 24 24" fill="none" xmlns="http://www.w3.org/2000/svg" xmlns:xlink="http://www.w3.org/1999/xlink">
	<desc>
			Created with Pixso.
	</desc>
	<defs>
		<clipPath id="clip17_1689">
			<rect id="Outline / Person Limits Outline" width="24.000000" height="24.000000" fill="white" fill-opacity="0"/>
		</clipPath>
	</defs>
	<g clip-path="url(#clip17_1689)">
		<path id="Shape" d="M12 3C9.33 3 7.26 5.32 7.56 7.96L7.82 10.27C8.06 12.39 9.86 14 12 14C14.13 14 15.93 12.39 16.17 10.27L16.43 7.96C16.73 5.32 14.66 3 12 3ZM14.88 10.12L15.14 7.82C15.35 5.94 13.88 4.29 12 4.29C10.11 4.29 8.64 5.94 8.85 7.82L9.11 10.12C9.28 11.59 10.52 12.7 12 12.7C13.47 12.7 14.71 11.59 14.88 10.12ZM14.31 20.68C12.56 18.92 12.56 16.07 14.31 14.31C16.07 12.56 18.92 12.56 20.68 14.31C22.43 16.07 22.43 18.92 20.68 20.68C18.92 22.43 16.07 22.43 14.31 20.68ZM15.74 14.82C16.98 14 18.67 14.14 19.76 15.23C20.85 16.32 20.99 18.01 20.17 19.25L15.74 14.82ZM10.14 15C7.33 15 4.89 16.95 4.28 19.69L4.18 20.14C4.09 20.58 4.42 21 4.87 21L11.65 21C12.01 21 12.3 20.7 12.3 20.35C12.3 19.99 12.01 19.7 11.65 19.7L5.62 19.7C6.2 17.69 8.04 16.29 10.14 16.29L11.65 16.29C12.01 16.29 12.3 16 12.3 15.65C12.3 15.29 12.01 15 11.65 15L10.14 15ZM14.82 15.74C14 16.98 14.14 18.67 15.23 19.76C16.32 20.85 18.01 20.99 19.25 20.17L14.82 15.74Z" fill="#717681" fill-opacity="1.000000" fill-rule="evenodd"/>
	</g>
</svg>
