<svg width="24.000000" height="24.000000" viewBox="0 0 24 24" fill="none" xmlns="http://www.w3.org/2000/svg" xmlns:xlink="http://www.w3.org/1999/xlink">
	<desc>
			Created with Pixso.
	</desc>
	<defs>
		<clipPath id="clip116865_696">
			<rect id="Outline / Person Account Outline" width="24.000000" height="24.000000" fill="white" fill-opacity="0"/>
		</clipPath>
	</defs>
	<rect id="Outline / Person Account Outline" width="24.000000" height="24.000000" fill="#FFFFFF" fill-opacity="0"/>
	<g clip-path="url(#clip116865_696)">
		<path id="Shape" d="M21 12C21 14.83 19.68 17.36 17.63 19.01C17.63 19.02 17.62 19.02 17.62 19.02C16.08 20.26 14.12 21 12 21C9.86 21 7.9 20.25 6.36 19.01C4.31 17.36 3 14.83 3 12C3 7.02 7.02 3 12 3C16.97 3 21 7.02 21 12ZM13.39 16.07C14.84 16.07 16.16 16.76 16.99 17.85C18.65 16.44 19.7 14.34 19.7 12C19.7 7.74 16.25 4.3 12 4.3C7.74 4.3 4.29 7.74 4.29 12C4.29 14.34 5.34 16.44 7 17.85C7.83 16.76 9.15 16.07 10.6 16.07L13.39 16.07ZM12 6.43C9.99 6.43 8.43 8.18 8.65 10.18L8.85 11.91C9.03 13.51 10.39 14.72 12 14.72C13.6 14.72 14.96 13.51 15.14 11.91L15.34 10.18C15.56 8.18 14 6.43 12 6.43ZM9.95 10.03C9.81 8.81 10.76 7.73 12 7.73C13.23 7.73 14.18 8.81 14.04 10.03L13.85 11.77C13.74 12.71 12.94 13.42 12 13.42C11.05 13.42 10.25 12.71 10.14 11.77L9.95 10.03ZM12 19.7C13.43 19.7 14.78 19.3 15.93 18.61C15.34 17.85 14.41 17.37 13.39 17.37L10.6 17.37C9.58 17.37 8.65 17.85 8.06 18.61C9.21 19.3 10.56 19.7 12 19.7Z" fill="#717681" fill-opacity="1.000000" fill-rule="evenodd"/>
	</g>
</svg>
