<svg width="24.000000" height="24.000000" viewBox="0 0 24 24" fill="none" xmlns="http://www.w3.org/2000/svg" xmlns:xlink="http://www.w3.org/1999/xlink">
	<desc>
			Created with Pixso.
	</desc>
	<defs>
		<clipPath id="clip17_1576">
			<rect id="Outline / Power Outline " width="24.000000" height="24.000000" fill="white" fill-opacity="0"/>
		</clipPath>
	</defs>
	<g >
		<path id="Shape" d="M12 3.98C12.35 3.98 12.64 4.27 12.64 4.63L12.64 10.34C12.64 10.69 12.35 10.99 12 10.99C11.64 10.99 11.35 10.69 11.35 10.34L11.35 4.63C11.35 4.27 11.64 3.98 12 3.98ZM9.5 5.88C9.5 5.41 9.04 5.09 8.62 5.3C6.17 6.53 4.5 9.07 4.5 12C4.5 16.14 7.85 19.5 12 19.5C16.14 19.5 19.5 16.14 19.5 12C19.5 9.11 17.86 6.6 15.47 5.35C15.05 5.13 14.58 5.45 14.58 5.92C14.58 6.19 14.74 6.43 14.97 6.55C16.89 7.61 18.2 9.65 18.2 12C18.2 15.42 15.42 18.2 12 18.2C8.57 18.2 5.79 15.42 5.79 12C5.79 9.62 7.14 7.55 9.1 6.51C9.34 6.38 9.5 6.14 9.5 5.88Z" fill="#74767B" fill-opacity="1.000000" fill-rule="evenodd"/>
	</g>
</svg>
