<svg width="24.000000" height="24.000000" viewBox="0 0 24 24" fill="none" xmlns="http://www.w3.org/2000/svg" xmlns:xlink="http://www.w3.org/1999/xlink">
	<desc>
			Created with Pixso.
	</desc>
	<defs>
		<clipPath id="clip17_1338">
			<rect id="Outline / Print Outline" width="24.000000" height="24.000000" fill="white" fill-opacity="0"/>
		</clipPath>
	</defs>
	<g clip-path="url(#clip17_1338)">
		<path id="Shape" d="M8.79 3C7.72 3 6.85 3.87 6.85 4.95L6.85 6.05C6.85 6.41 7.14 6.7 7.5 6.7C7.85 6.7 8.14 6.41 8.14 6.05L8.14 4.95C8.14 4.59 8.44 4.3 8.79 4.3L15.2 4.3C15.55 4.3 15.85 4.59 15.85 4.95L15.85 6.05C15.85 6.41 16.14 6.7 16.5 6.7C16.85 6.7 17.14 6.41 17.14 6.05L17.14 4.95C17.14 3.87 16.27 3 15.2 3L8.79 3ZM15.7 21C16.41 21 17 20.41 17 19.7L17 18L18 18C19.65 18 21 16.65 21 15L21 11C21 9.34 19.65 7.99 18 7.99L6 7.99C4.34 7.99 3 9.34 3 11L3 15C3 16.65 4.34 18 6 18L7 18L7 19.7C7 20.41 7.58 21 8.29 21L15.7 21ZM18 16.7L17 16.7L17 13.7C17 13.31 16.68 13 16.29 13L7.7 13C7.31 13 7 13.31 7 13.7L7 16.7L6 16.7C5.06 16.7 4.29 15.93 4.29 15L4.29 11C4.29 10.06 5.06 9.29 6 9.29L18 9.29C18.93 9.29 19.7 10.06 19.7 11L19.7 15C19.7 15.93 18.93 16.7 18 16.7ZM18.69 11.48C18.69 12.03 18.24 12.48 17.69 12.48C17.14 12.48 16.69 12.03 16.69 11.48C16.69 10.92 17.14 10.48 17.69 10.48C18.24 10.48 18.69 10.92 18.69 11.48ZM8.29 19.7L15.7 19.7L15.7 14.3L8.29 14.3L8.29 19.7Z" fill="#74767B" fill-opacity="1.000000" fill-rule="evenodd"/>
	</g>
</svg>
