<svg viewBox="0 0 24 24" xmlns="http://www.w3.org/2000/svg" xmlns:xlink="http://www.w3.org/1999/xlink" width="24.000000" height="24.000000" fill="none">
	<rect id="Outline/QL Outline" width="24.000000" height="24.000000" x="0.000000" y="0.000000" />
	<path id="Shape" d="M11.6912 17.732C12.3644 17.0206 12.7773 16.0602 12.7773 15.0034L12.7773 8.94482C12.7773 6.75214 10.9998 4.97461 8.80713 4.97461C6.61444 4.97461 4.83691 6.75213 4.83691 8.94482L4.83691 15.0034C4.83691 17.1961 6.61444 18.9736 8.80713 18.9736C9.47458 18.9736 10.1036 18.8089 10.6557 18.518L11.6134 19.8009C11.8281 20.0886 12.2354 20.1477 12.5231 19.933C12.8108 19.7182 12.8699 19.3109 12.6552 19.0233L11.6912 17.732ZM15.8736 5.89551C15.8736 5.53652 15.5826 5.24551 15.2236 5.24551C14.8646 5.24551 14.5736 5.53652 14.5736 5.89551L14.5736 17.8264C14.5736 18.572 15.178 19.1764 15.9236 19.1764L19.1631 19.1764C19.5221 19.1764 19.8131 18.8854 19.8131 18.5264C19.8131 18.1674 19.5221 17.8764 19.1631 17.8764L15.9236 17.8764C15.896 17.8764 15.8736 17.854 15.8736 17.8264L15.8736 5.89551ZM11.4773 15.0034L11.4773 8.94482C11.4773 7.47011 10.2818 6.27461 8.80713 6.27461C7.33241 6.27461 6.13691 7.47011 6.13691 8.94482L6.13691 15.0034C6.13691 16.4781 7.33241 17.6736 8.80713 17.6736C9.1823 17.6736 9.53941 17.5963 9.86335 17.4566L8.54065 15.6847C8.3259 15.3971 8.38502 14.9898 8.67269 14.775C8.96036 14.5603 9.36765 14.6194 9.5824 14.9071L10.8961 16.6668C11.2599 16.2105 11.4773 15.6324 11.4773 15.0034Z" fill="rgb(116,118,123)" fill-rule="evenodd" />
</svg>
