<svg width="24.000000" height="24.000000" viewBox="0 0 24 24" fill="none" xmlns="http://www.w3.org/2000/svg" xmlns:xlink="http://www.w3.org/1999/xlink">
	<desc>
			Created with Pixso.
	</desc>
	<defs>
		<clipPath id="clip134435_204">
			<rect id="Solid / QL Solid" width="24.000000" height="24.000000" fill="white" fill-opacity="0"/>
		</clipPath>
	</defs>
	<g>
		<path id="Shape" d="M4 6.98C4 5.33 5.34 3.98 7 3.98L17 3.98C18.65 3.98 20 5.33 20 6.98L20 16.98C20 18.64 18.65 19.98 17 19.98L7 19.98C5.34 19.98 4 18.64 4 16.98L4 6.98ZM9.78 17.19C10.32 17.19 10.82 17.05 11.26 16.8L12.23 17.82C12.48 18.08 12.89 18.09 13.15 17.84C13.41 17.6 13.42 17.19 13.17 16.93L12.23 15.93C12.58 15.44 12.78 14.84 12.78 14.19L12.78 9.78C12.78 8.12 11.44 6.78 9.78 6.78L9.68 6.78C8.03 6.78 6.68 8.12 6.68 9.78L6.68 14.19C6.68 15.85 8.03 17.19 9.68 17.19L9.78 17.19ZM15.39 7.49C15.39 7.13 15.1 6.84 14.74 6.84C14.38 6.84 14.09 7.13 14.09 7.49L14.09 15.8C14.09 16.55 14.69 17.15 15.44 17.15L17.42 17.15C17.78 17.15 18.07 16.86 18.07 16.5C18.07 16.14 17.78 15.85 17.42 15.85L15.44 15.85C15.41 15.85 15.39 15.83 15.39 15.8L15.39 7.49ZM9.78 8.08L9.68 8.08C8.74 8.08 7.98 8.84 7.98 9.78L7.98 14.19C7.98 15.13 8.74 15.89 9.68 15.89L9.78 15.89C9.97 15.89 10.15 15.86 10.32 15.8L9.6 15.05C9.35 14.79 9.36 14.38 9.62 14.13C9.88 13.88 10.29 13.89 10.54 14.15L11.3 14.95C11.42 14.72 11.48 14.46 11.48 14.19L11.48 9.78C11.48 8.84 10.72 8.08 9.78 8.08Z" fill="#717681" fill-opacity="1.000000" fill-rule="evenodd"/>
	</g>
</svg>
