<svg width="25" height="24" viewBox="0 0 25 24" fill="none" xmlns="http://www.w3.org/2000/svg">
<path d="M5.00879 2H5.80806C6.16705 2 6.45806 2.29101 6.45806 2.65C6.45806 3.00898 6.16705 3.3 5.80806 3.3H5.00879C4.0699 3.3 3.30879 4.06112 3.30879 5V5.69097C3.30879 6.04996 3.01777 6.34097 2.65879 6.34097C2.2998 6.34097 2.00879 6.04996 2.00879 5.69097V5C2.00879 3.34315 3.35194 2 5.00879 2Z" fill="#717681"/>
<path d="M2.65879 17.6589C2.2998 17.6589 2.00879 17.9499 2.00879 18.3089V19C2.00879 20.6569 3.35193 22 5.00879 22H5.80806C6.16705 22 6.45806 21.709 6.45806 21.35C6.45806 20.991 6.16705 20.7 5.80806 20.7H5.00879C4.0699 20.7 3.30879 19.9389 3.30879 19V18.3089C3.30879 17.9499 3.01777 17.6589 2.65879 17.6589Z" fill="#717681"/>
<path d="M21.3588 17.6589C20.9998 17.6589 20.7088 17.9499 20.7088 18.3089V19C20.7088 19.9389 19.9477 20.7 19.0088 20.7H18.426C18.067 20.7 17.776 20.991 17.776 21.35C17.776 21.709 18.067 22 18.426 22H19.0088C20.6656 22 22.0088 20.6569 22.0088 19V18.3089C22.0088 17.9499 21.7178 17.6589 21.3588 17.6589Z" fill="#717681"/>
<path d="M21.3588 6.34097C21.7178 6.34097 22.0088 6.04996 22.0088 5.69097V5C22.0088 3.34315 20.6656 2 19.0088 2H18.426C18.067 2 17.776 2.29101 17.776 2.65C17.776 3.00898 18.067 3.3 18.426 3.3H19.0088C19.9477 3.3 20.7088 4.06112 20.7088 5V5.69097C20.7088 6.04996 20.9998 6.34097 21.3588 6.34097Z" fill="#717681"/>
<path fill-rule="evenodd" clip-rule="evenodd" d="M5.93311 7.22435C5.93311 6.50638 6.51514 5.92435 7.23311 5.92435H9.94931C10.6673 5.92435 11.2493 6.50638 11.2493 7.22435V9.94055C11.2493 10.6585 10.6673 11.2406 9.94931 11.2406H7.2331C6.51513 11.2406 5.93311 10.6585 5.93311 9.94055V7.22435ZM7.23311 7.22435L9.94931 7.22435L9.94931 9.94055L7.2331 9.94055L7.23311 7.22435Z" fill="#717681"/>
<path fill-rule="evenodd" clip-rule="evenodd" d="M5.93311 14.0595C5.93311 13.3415 6.51514 12.7595 7.23311 12.7595H9.94931C10.6673 12.7595 11.2493 13.3415 11.2493 14.0595V16.7757C11.2493 17.4936 10.6673 18.0757 9.94931 18.0757H7.2331C6.51513 18.0757 5.93311 17.4936 5.93311 16.7757V14.0595ZM7.23311 14.0595L9.94931 14.0595L9.94931 16.7757L7.2331 16.7757L7.23311 14.0595Z" fill="#717681"/>
<path d="M16.7845 18.2789H14.5852C14.2262 18.2789 13.9352 17.9879 13.9352 17.6289C13.9352 17.2699 14.2262 16.9789 14.5852 16.9789H16.7845L16.7845 14.6063C16.7845 14.2474 17.0755 13.9563 17.4345 13.9563C17.7935 13.9563 18.0845 14.2474 18.0845 14.6063V16.9789C18.0845 17.6969 17.5024 18.2789 16.7845 18.2789Z" fill="#717681"/>
<path fill-rule="evenodd" clip-rule="evenodd" d="M12.7681 7.22435C12.7681 6.50638 13.3501 5.92435 14.0681 5.92435H16.7843C17.5022 5.92435 18.0843 6.50638 18.0843 7.22435V9.94055C18.0843 10.6585 17.5022 11.2406 16.7843 11.2406H14.0681C13.3501 11.2406 12.7681 10.6585 12.7681 9.94055V7.22435ZM14.0681 7.22435L16.7843 7.22435L16.7843 9.94055L14.0681 9.94055L14.0681 7.22435Z" fill="#717681"/>
<path d="M13.4179 12.7169C13.7769 12.7169 14.0679 13.0079 14.0679 13.3669V14.3459C14.0679 14.7049 13.7769 14.9959 13.4179 14.9959C13.0589 14.9959 12.7679 14.7049 12.7679 14.3459V13.3669C12.7679 13.0079 13.0589 12.7169 13.4179 12.7169Z" fill="#717681"/>
</svg>
