<svg width="24.000000" height="24.000000" viewBox="0 0 24 24" fill="none" xmlns="http://www.w3.org/2000/svg" xmlns:xlink="http://www.w3.org/1999/xlink">
	<desc>
			Created with Pixso.
	</desc>
	<defs>
		<clipPath id="clip17_1603">
			<rect id="Outline / QR Code Outline" width="24.000000" height="24.000000" fill="white" fill-opacity="0"/>
		</clipPath>
	</defs>
	<g >
		<path id="Shape" d="M5 2L5.79 2C6.15 2 6.44 2.29 6.44 2.65C6.44 3 6.15 3.29 5.79 3.29L5 3.29C4.06 3.29 3.29 4.06 3.29 5L3.29 5.69C3.29 6.04 3 6.34 2.64 6.34C2.29 6.34 2 6.04 2 5.69L2 5C2 3.34 3.34 2 5 2ZM22 5.69C22 6.04 21.7 6.34 21.35 6.34C20.99 6.34 20.7 6.04 20.7 5.69L20.7 5C20.7 4.06 19.93 3.29 19 3.29L18.41 3.29C18.05 3.29 17.76 3 17.76 2.65C17.76 2.29 18.05 2 18.41 2L19 2C20.65 2 22 3.34 22 5L22 5.69ZM5.92 7.22C5.92 6.5 6.5 5.92 7.22 5.92L9.94 5.92C10.65 5.92 11.24 6.5 11.24 7.22L11.24 9.94C11.24 10.65 10.65 11.24 9.94 11.24L7.22 11.24C6.5 11.24 5.92 10.65 5.92 9.94L5.92 7.22ZM12.75 7.22C12.75 6.5 13.34 5.92 14.05 5.92L16.77 5.92C17.49 5.92 18.07 6.5 18.07 7.22L18.07 9.94C18.07 10.65 17.49 11.24 16.77 11.24L14.05 11.24C13.34 11.24 12.75 10.65 12.75 9.94L12.75 7.22ZM9.94 7.22L7.22 7.22L7.22 9.94L9.94 9.94L9.94 7.22ZM16.77 7.22L14.05 7.22L14.05 9.94L16.77 9.94L16.77 7.22ZM13.4 12.71C13.76 12.71 14.05 13 14.05 13.36L14.05 14.34C14.05 14.7 13.76 14.99 13.4 14.99C13.05 14.99 12.75 14.7 12.75 14.34L12.75 13.36C12.75 13 13.05 12.71 13.4 12.71ZM5.92 14.05C5.92 13.34 6.5 12.75 7.22 12.75L9.94 12.75C10.65 12.75 11.24 13.34 11.24 14.05L11.24 16.77C11.24 17.49 10.65 18.07 9.94 18.07L7.22 18.07C6.5 18.07 5.92 17.49 5.92 16.77L5.92 14.05ZM16.77 18.27L14.57 18.27C14.21 18.27 13.92 17.98 13.92 17.62C13.92 17.26 14.21 16.97 14.57 16.97L16.77 16.97L16.77 14.6C16.77 14.24 17.06 13.95 17.42 13.95C17.78 13.95 18.07 14.24 18.07 14.6L18.07 16.97C18.07 17.69 17.49 18.27 16.77 18.27ZM9.94 14.05L7.22 14.05L7.22 16.77L9.94 16.77L9.94 14.05ZM2 18.3C2 17.94 2.29 17.65 2.64 17.65C3 17.65 3.29 17.94 3.29 18.3L3.29 19C3.29 19.93 4.06 20.7 5 20.7L5.79 20.7C6.15 20.7 6.44 20.99 6.44 21.35C6.44 21.7 6.15 22 5.79 22L5 22C3.34 22 2 20.65 2 19L2 18.3ZM20.7 18.3C20.7 17.94 20.99 17.65 21.35 17.65C21.7 17.65 22 17.94 22 18.3L22 19C22 20.65 20.65 22 19 22L18.41 22C18.05 22 17.76 21.7 17.76 21.35C17.76 20.99 18.05 20.7 18.41 20.7L19 20.7C19.93 20.7 20.7 19.93 20.7 19L20.7 18.3Z" fill="#74767B" fill-opacity="1.000000" fill-rule="evenodd"/>
	</g>
</svg>
