<svg width="24.000000" height="24.000000" viewBox="0 0 24 24" fill="none" xmlns="http://www.w3.org/2000/svg" xmlns:xlink="http://www.w3.org/1999/xlink">
	<desc>
			Created with Pixso.
	</desc>
	<defs>
		<clipPath id="clip17_1540">
			<rect id="Solid / QR Code Solid" width="24.000000" height="24.000000" fill="white" fill-opacity="0"/>
		</clipPath>
	</defs>
	<g>
		<path id="Shape" d="M5.05 1.99L19.05 1.99C20.7 1.99 22.05 3.34 22.05 4.99L22.05 18.99C22.05 20.65 20.7 21.99 19.05 21.99L5.05 21.99C3.39 21.99 2.05 20.65 2.05 18.99L2.05 4.99C2.05 3.34 3.39 1.99 5.05 1.99ZM7.23 5.92C6.51 5.92 5.93 6.5 5.93 7.22L5.93 9.94C5.93 10.65 6.51 11.24 7.23 11.24L9.94 11.24C10.66 11.24 11.24 10.65 11.24 9.94L11.24 7.22C11.24 6.5 10.66 5.92 9.94 5.92L7.23 5.92ZM14.06 5.92C13.35 5.92 12.76 6.5 12.76 7.22L12.76 9.94C12.76 10.65 13.35 11.24 14.06 11.24L16.78 11.24C17.5 11.24 18.08 10.65 18.08 9.94L18.08 7.22C18.08 6.5 17.5 5.92 16.78 5.92L14.06 5.92ZM9.94 7.22L7.23 7.22L7.23 9.94L9.94 9.94L9.94 7.22ZM14.06 7.22L16.78 7.22L16.78 9.94L14.06 9.94L14.06 7.22ZM13.41 12.71C13.77 12.71 14.06 13 14.06 13.36L14.06 14.34C14.06 14.7 13.77 14.99 13.41 14.99C13.05 14.99 12.76 14.7 12.76 14.34L12.76 13.36C12.76 13 13.05 12.71 13.41 12.71ZM7.23 12.75C6.51 12.75 5.93 13.34 5.93 14.05L5.93 16.77C5.93 17.49 6.51 18.07 7.23 18.07L9.94 18.07C10.66 18.07 11.24 17.49 11.24 16.77L11.24 14.05C11.24 13.34 10.66 12.75 9.94 12.75L7.23 12.75ZM16.78 18.27L14.58 18.27C14.22 18.27 13.93 17.98 13.93 17.62C13.93 17.27 14.22 16.97 14.58 16.97L16.78 16.97L16.78 14.6C16.78 14.24 17.07 13.95 17.43 13.95C17.79 13.95 18.08 14.24 18.08 14.6L18.08 16.97C18.08 17.69 17.5 18.27 16.78 18.27ZM9.94 14.05L7.23 14.05L7.23 16.77L9.94 16.77L9.94 14.05Z" fill="#717681" fill-opacity="1.000000" fill-rule="evenodd"/>
	</g>
</svg>
