<svg width="24.000000" height="24.000000" viewBox="0 0 24 24" fill="none" xmlns="http://www.w3.org/2000/svg" xmlns:xlink="http://www.w3.org/1999/xlink">
	<desc>
			Created with Pixso.
	</desc>
	<defs>
		<clipPath id="clip128083_801">
			<rect id="Solid / Redo Solid" width="24.000000" height="24.000000" fill="white" fill-opacity="0"/>
		</clipPath>
	</defs>
	<g >
		<path id="Shape" d="M3 12C3 16.97 7.02 21 12 21C16.97 21 21 16.97 21 12C21 7.02 16.97 3 12 3C7.02 3 3 7.02 3 12ZM14.77 9.39L13.15 7.77C12.89 7.52 12.89 7.11 13.15 6.85C13.4 6.6 13.81 6.6 14.07 6.85L16.8 9.58C17.05 9.84 17.05 10.25 16.8 10.5L14.07 13.23C13.81 13.49 13.4 13.49 13.15 13.23C12.89 12.98 12.89 12.57 13.15 12.31L14.77 10.69L10.61 10.69C9.31 10.69 8.26 11.74 8.26 13.04L8.26 13.3C8.26 14.6 9.31 15.65 10.61 15.65L12.32 15.65C12.68 15.65 12.97 15.94 12.97 16.3C12.97 16.66 12.68 16.95 12.32 16.95L10.61 16.95C8.59 16.95 6.96 15.32 6.96 13.3L6.96 13.04C6.96 11.03 8.59 9.39 10.61 9.39L14.77 9.39Z" fill="#74767B" fill-opacity="1.000000" fill-rule="evenodd"/>
	</g>
</svg>
