<svg width="24.000000" height="24.000000" viewBox="0 0 24 24" fill="none" xmlns="http://www.w3.org/2000/svg" xmlns:xlink="http://www.w3.org/1999/xlink">
	<desc>
			Created with Pixso.
	</desc>
	<defs>
		<clipPath id="clip6973_1276">
			<rect id="Outline / Redo Outline" width="24.000000" height="24.000000" fill="white" fill-opacity="0"/>
		</clipPath>
	</defs>
	<g >
		<path id="Shape" d="M4.24 12.42C4.46 17.19 8.4 21 13.23 21C18.2 21 22.23 16.97 22.23 12C22.23 7.02 18.2 3 13.23 3C11.68 3 10.22 3.39 8.95 4.08C8.63 4.25 8.55 4.66 8.75 4.96C8.94 5.26 9.34 5.34 9.65 5.18C10.72 4.61 11.94 4.29 13.23 4.29C17.48 4.29 20.93 7.74 20.93 12C20.93 16.25 17.48 19.7 13.23 19.7C9.13 19.7 5.78 16.49 5.54 12.45L5.55 12.45L6.64 13.61C6.77 13.75 6.95 13.82 7.12 13.82C7.28 13.82 7.43 13.77 7.54 13.64C7.8 13.39 7.82 12.98 7.57 12.72L5.38 10.37C5.11 10.07 4.64 10.07 4.36 10.37L2.17 12.72C1.92 12.98 1.94 13.39 2.2 13.64C2.46 13.89 2.87 13.87 3.12 13.61L4.24 12.42Z" fill="#74767B" fill-opacity="1.000000" fill-rule="nonzero"/>
	</g>
</svg>
