<svg viewBox="0 0 24 24" xmlns="http://www.w3.org/2000/svg" xmlns:xlink="http://www.w3.org/1999/xlink" width="24.000000" height="24.000000" fill="none">
	<rect id="Outline/Refresh Outline" width="24.000000" height="24.000000" x="0.000000" y="0.000000" />
	<path id="Shape" d="M2.24656 8.57874C2.46657 3.80375 6.40752 0 11.2369 0C16.2074 0 20.2369 4.02944 20.2369 9C20.2369 13.9706 16.2074 18 11.2369 18C9.68731 18 8.22921 17.6084 6.95614 16.9187C6.63643 16.7455 6.55136 16.3344 6.75244 16.0314C6.94863 15.7358 7.3442 15.6545 7.65821 15.8196C8.7274 16.3818 9.94499 16.7 11.2369 16.7C15.4895 16.7 18.9369 13.2526 18.9369 9C18.9369 4.74741 15.4895 1.3 11.2369 1.3C7.13578 1.3 3.78352 4.50616 3.54988 8.54869L3.55514 8.54853L4.64671 7.38253C4.77671 7.24253 4.95671 7.17253 5.12671 7.17253C5.28671 7.17253 5.43671 7.22254 5.54671 7.35254C5.80671 7.60254 5.82671 8.01254 5.57671 8.27254L3.38671 10.6225C3.11671 10.9225 2.64671 10.9225 2.36671 10.6225L0.176709 8.27254C-0.0732909 8.01254 -0.0532909 7.60254 0.206709 7.35254C0.466709 7.10254 0.876709 7.12253 1.12671 7.38253L2.24656 8.57874Z" fill="rgb(116,118,123)" fill-rule="nonzero" transform="matrix(1,0,0,-1,2,21)" />
</svg>
