<svg width="24.000000" height="24.000000" viewBox="0 0 24 24" fill="none" xmlns="http://www.w3.org/2000/svg" xmlns:xlink="http://www.w3.org/1999/xlink">
	<desc>
			Created with Pixso.
	</desc>
	<defs>
		<clipPath id="clip112159_1180">
			<rect id="Outline / Refuse Small Outline" width="24.000000" height="24.000000" fill="white" fill-opacity="0"/>
		</clipPath>
	</defs>
	<g >
		<path id="Shape" d="M8.81 8.81C7.06 10.57 7.06 13.42 8.81 15.18C10.57 16.93 13.42 16.93 15.18 15.18C16.93 13.42 16.93 10.57 15.18 8.81C13.42 7.06 10.57 7.06 8.81 8.81ZM14.26 9.73C13.17 8.64 11.48 8.5 10.24 9.32L14.67 13.75C15.49 12.51 15.35 10.82 14.26 9.73ZM9.73 14.26C8.64 13.17 8.5 11.48 9.32 10.24L13.75 14.67C12.51 15.49 10.82 15.35 9.73 14.26Z" fill="#74767B" fill-opacity="1.000000" fill-rule="evenodd"/>
	</g>
</svg>
