<svg width="24.000000" height="24.000000" viewBox="0 0 24 24" fill="none" xmlns="http://www.w3.org/2000/svg" xmlns:xlink="http://www.w3.org/1999/xlink">
	<desc>
			Created with Pixso.
	</desc>
	<defs>
		<clipPath id="clip6746_1214">
			<rect id="Outline / Refuse View Outline" width="24.000000" height="24.000000" fill="white" fill-opacity="0"/>
		</clipPath>
	</defs>
	<g>
		<path id="Shape" d="M3 12C3 7.02 7.02 3 12 3C16.42 3 20.1 6.19 20.86 10.41C20.91 10.73 20.66 11.04 20.34 11.1C19.95 11.18 19.63 10.9 19.55 10.51C18.86 6.97 15.74 4.29 12 4.29C10.1 4.29 8.37 4.98 7.03 6.11C8.91 7.99 10.39 9.47 11.77 10.87C12.02 11.11 11.99 11.52 11.75 11.76C11.5 12.01 11.09 12.03 10.85 11.78C9.44 10.36 7.95 8.87 6.11 7.03C4.98 8.37 4.29 10.1 4.29 12C4.29 15.77 7.01 18.91 10.6 19.57C10.95 19.63 11.19 19.99 11.14 20.35C11.09 20.7 10.78 20.92 10.43 20.86C6.21 20.12 3 16.43 3 12ZM11.21 15.46C11.93 14.31 13.55 12.24 16 12.24C18.44 12.24 20.07 14.31 20.79 15.46C21.07 15.92 21.07 16.5 20.79 16.96C20.07 18.11 18.44 20.18 16 20.18C13.55 20.18 11.93 18.11 11.21 16.96C10.93 16.5 10.93 15.92 11.21 15.46ZM13.78 14.42C13.13 14.96 12.63 15.64 12.31 16.15C12.31 16.16 12.3 16.18 12.3 16.21C12.3 16.24 12.31 16.26 12.31 16.27C12.63 16.78 13.13 17.46 13.78 18C14.43 18.53 15.17 18.88 16 18.88C16.83 18.88 17.57 18.53 18.21 18C18.87 17.46 19.37 16.78 19.68 16.27C19.69 16.26 19.7 16.24 19.7 16.21C19.7 16.18 19.69 16.16 19.68 16.15C19.37 15.64 18.87 14.96 18.21 14.42C17.57 13.89 16.83 13.54 16 13.54C15.17 13.54 14.43 13.89 13.78 14.42ZM16 17.95C16.95 17.95 17.73 17.18 17.73 16.22C17.73 15.26 16.95 14.49 16 14.49C15.04 14.49 14.26 15.26 14.26 16.22C14.26 17.18 15.04 17.95 16 17.95Z" fill="#717681" fill-opacity="1.000000" fill-rule="evenodd"/>
	</g>
</svg>
