<svg width="24.000000" height="24.000000" viewBox="0 0 24 24" fill="none" xmlns="http://www.w3.org/2000/svg" xmlns:xlink="http://www.w3.org/1999/xlink">
	<desc>
			Created with Pixso.
	</desc>
	<defs>
		<clipPath id="clip112159_1181">
			<rect id="Solid / Refuse Small Solid" width="24.000000" height="24.000000" transform="translate(24.000000 24.000000) rotate(180.000000)" fill="white" fill-opacity="0"/>
		</clipPath>
	</defs>
	<g clip-path="url(#clip112159_1181)">
		<path id="Shape" d="M3 12C3 7.02 7.02 3 12 3C16.97 3 21 7.02 21 12C21 16.97 16.97 21 12 21C7.02 21 3 16.97 3 12ZM10.24 9.32C11.48 8.5 13.17 8.64 14.26 9.73C15.35 10.82 15.49 12.51 14.67 13.75L10.24 9.32ZM8.81 8.81C7.06 10.57 7.06 13.42 8.81 15.18C10.57 16.93 13.42 16.93 15.18 15.18C16.93 13.42 16.93 10.57 15.18 8.81C13.42 7.06 10.57 7.06 8.81 8.81ZM9.32 10.24C8.5 11.48 8.64 13.17 9.73 14.26C10.82 15.35 12.51 15.49 13.75 14.67L9.32 10.24Z" fill="#74767B" fill-opacity="1.000000" fill-rule="evenodd"/>
	</g>
</svg>
