<svg width="24.000000" height="24.000000" viewBox="0 0 24 24" fill="none" xmlns="http://www.w3.org/2000/svg" xmlns:xlink="http://www.w3.org/1999/xlink">
	<desc>
			Created with Pixso.
	</desc>
	<defs>
		<clipPath id="clip17_1627">
			<rect id="Solid / Report Solid" width="24.000000" height="24.000000" fill="white" fill-opacity="0"/>
		</clipPath>
	</defs>
	<g clip-path="url(#clip17_1627)">
		<path id="Shape" d="M12 4.3C12 3.58 12.58 2.99 13.29 3.09C17.22 3.65 20.34 6.77 20.9 10.7C21 11.41 20.41 12 19.7 12L13.29 12C12.58 12 12 11.41 12 10.7L12 4.3ZM9.23 3.37C9.99 3.13 10.7 3.74 10.7 4.53L10.7 12C10.7 12.71 11.28 13.3 12 13.3L19.38 13.3C20.18 13.3 20.79 14.01 20.54 14.76C19.36 18.35 15.98 20.94 12 20.94C7.02 20.94 3 16.91 3 11.94C3 7.93 5.61 4.54 9.23 3.37Z" fill="#717681" fill-opacity="1.000000" fill-rule="evenodd"/>
	</g>
</svg>
