<svg width="24.000000" height="24.000000" viewBox="0 0 24 24" fill="none" xmlns="http://www.w3.org/2000/svg" xmlns:xlink="http://www.w3.org/1999/xlink">
	<desc>
			Created with Pixso.
	</desc>
	<defs>
		<clipPath id="clip17_1627">
			<rect id="Solid / Report Solid" width="24.000000" height="24.000000" fill="white" fill-opacity="0"/>
		</clipPath>
	</defs>
	<g >
		<path id="Shape" d="M13.29 3.09C12.58 2.99 12 3.58 12 4.3L12 10.7C12 11.41 12.58 12 13.29 12L19.7 12C20.41 12 21 11.41 20.9 10.7C20.34 6.77 17.22 3.65 13.29 3.09Z" fill="#74767B" fill-opacity="1.000000" fill-rule="evenodd"/>
		<path id="Shape" d="M10.7 4.53C10.7 3.74 9.99 3.13 9.23 3.37C5.61 4.54 3 7.93 3 11.94C3 16.91 7.02 20.94 12 20.94C15.98 20.94 19.36 18.35 20.54 14.76C20.79 14.01 20.18 13.3 19.38 13.3L12 13.3C11.28 13.3 10.7 12.71 10.7 12L10.7 4.53Z" fill="#74767B" fill-opacity="1.000000" fill-rule="nonzero"/>
	</g>
</svg>
