<svg width="24.000000" height="24.000000" viewBox="0 0 24 24" fill="none" xmlns="http://www.w3.org/2000/svg" xmlns:xlink="http://www.w3.org/1999/xlink">
	<desc>
			Created with Pixso.
	</desc>
	<defs>
		<clipPath id="clip17_1335">
			<rect id="Solid / Save Solid" width="24.000000" height="24.000000" fill="white" fill-opacity="0"/>
		</clipPath>
	</defs>
	<g clip-path="url(#clip17_1335)">
		<path id="Shape" d="M7 4C5.34 4 4 5.34 4 7L4 17C4 18.65 5.34 20 7 20L17 20C18.65 20 20 18.65 20 17L20 10.24C20 9.44 19.68 8.68 19.12 8.12L15.87 4.87C15.31 4.31 14.55 4 13.75 4L7 4ZM7.28 6C7.28 5.62 7.6 5.3 7.98 5.3L12.64 5.3C13.03 5.3 13.34 5.62 13.34 6L13.34 8.64C13.34 9.03 13.03 9.34 12.64 9.34L7.98 9.34C7.6 9.34 7.28 9.03 7.28 8.64L7.28 6ZM7.31 13.34C7.31 12.96 7.62 12.64 8.01 12.64L15.01 12.64C15.39 12.64 15.71 12.96 15.71 13.34L15.71 17.99C15.71 18.38 15.39 18.69 15.01 18.69L8.01 18.69C7.62 18.69 7.31 18.38 7.31 17.99L7.31 13.34Z" fill="#74767B" fill-opacity="1.000000" fill-rule="evenodd"/>
	</g>
</svg>
