<svg width="24.000000" height="24.000000" viewBox="0 0 24 24" fill="none" xmlns="http://www.w3.org/2000/svg" xmlns:xlink="http://www.w3.org/1999/xlink">
	<desc>
			Created with Pixso.
	</desc>
	<defs>
		<clipPath id="clip17_1266">
			<rect id="Solid / Settings Solid" width="24.000000" height="24.000000" fill="white" fill-opacity="0"/>
		</clipPath>
	</defs>
	<g >
		<path id="Shape" d="M9.22 4.53C9.34 3.65 10.09 3 10.98 3L12.89 3C13.77 3 14.51 3.64 14.64 4.5C14.82 5.62 16.01 6.29 17.07 5.86C17.89 5.53 18.83 5.85 19.28 6.62L20.23 8.27C20.67 9.03 20.49 10 19.81 10.54C18.93 11.25 18.94 12.62 19.85 13.33C20.55 13.87 20.74 14.85 20.29 15.61L19.34 17.27C18.9 18.03 17.98 18.35 17.16 18.04C16.05 17.61 14.83 18.31 14.64 19.49C14.51 20.35 13.77 20.99 12.89 20.99L10.98 20.99C10.09 20.99 9.34 20.34 9.22 19.46C9.06 18.33 7.89 17.63 6.83 18.04C6.01 18.35 5.09 18.03 4.65 17.27L3.7 15.61C3.25 14.85 3.44 13.87 4.14 13.33C5.05 12.62 5.06 11.25 4.18 10.54C3.5 10 3.32 9.03 3.76 8.27L4.71 6.62C5.16 5.85 6.1 5.53 6.92 5.86C7.93 6.27 9.07 5.62 9.22 4.53ZM12 16C14.2 16 16 14.2 16 12C16 9.79 14.2 8 12 8C9.79 8 8 9.79 8 12C8 14.2 9.79 16 12 16Z" fill="#74767B" fill-opacity="1.000000" fill-rule="evenodd"/>
	</g>
</svg>
