<svg width="24.000000" height="24.000000" viewBox="0 0 24 24" fill="none" xmlns="http://www.w3.org/2000/svg" xmlns:xlink="http://www.w3.org/1999/xlink">
	<desc>
			Created with Pixso.
	</desc>
	<defs>
		<clipPath id="clip134435_210">
			<rect id="Solid / Sharing Solid" width="24.000000" height="24.000000" fill="white" fill-opacity="0"/>
		</clipPath>
	</defs>
	<g clip-path="url(#clip134435_210)">
		<path id="Shape" d="M3 12C3 7.02 7.02 3 12 3C16.97 3 21 7.02 21 12C21 16.97 16.97 21 12 21C7.02 21 3 16.97 3 12ZM12.68 13.36C12.68 13.72 12.39 14.01 12.03 14.01C11.67 14.01 11.38 13.72 11.38 13.36L11.38 8.22L9.41 10.32C9.18 10.58 8.77 10.6 8.5 10.36C8.35 10.23 8.29 10.06 8.29 9.88C8.29 9.72 8.33 9.57 8.45 9.44L11.51 6.23C11.79 5.92 12.27 5.92 12.55 6.23L15.54 9.44C15.78 9.71 15.76 10.12 15.5 10.36C15.23 10.6 14.81 10.59 14.58 10.32L12.68 8.27L12.68 13.36ZM7.32 13.66C7.32 13.3 7.03 13.01 6.67 13.01C6.31 13.01 6.02 13.3 6.02 13.66C6.02 15.68 7.65 17.31 9.67 17.31L14.32 17.31C16.34 17.31 17.97 15.68 17.97 13.66C17.97 13.3 17.68 13.01 17.32 13.01C16.96 13.01 16.67 13.3 16.67 13.66C16.67 14.96 15.62 16.01 14.32 16.01L9.67 16.01C8.37 16.01 7.32 14.96 7.32 13.66Z" fill="#717681" fill-opacity="1.000000" fill-rule="evenodd"/>
	</g>
</svg>
