<svg width="24.000000" height="24.000000" viewBox="0 0 24 24" fill="none" xmlns="http://www.w3.org/2000/svg" xmlns:xlink="http://www.w3.org/1999/xlink">
	<desc>
			Created with Pixso.
	</desc>
	<defs>
		<clipPath id="clip5574_727">
			<rect id="Outline / Sort Outline" width="24.000000" height="24.000000" fill="white" fill-opacity="0"/>
		</clipPath>
	</defs>
	<g clip-path="url(#clip5574_727)">
		<path id="Shape" d="M12.51 6.09C12.24 5.79 11.76 5.79 11.48 6.09L7.88 9.98C7.47 10.43 7.78 11.16 8.4 11.16L15.6 11.16C16.21 11.16 16.53 10.43 16.11 9.98L12.51 6.09ZM14.23 9.86L12 7.44L9.77 9.86L14.23 9.86ZM11.48 17.9C11.75 18.2 12.23 18.2 12.51 17.9L16.11 14.01C16.52 13.56 16.21 12.83 15.6 12.83L8.39 12.83C7.78 12.83 7.46 13.56 7.88 14.01L11.48 17.9ZM9.76 14.13L11.99 16.55L14.22 14.13L9.76 14.13Z" fill="#74767B" fill-opacity="1.000000" fill-rule="evenodd"/>
	</g>
</svg>
