<svg width="24.000000" height="24.000000" viewBox="0 0 24 24" fill="none" xmlns="http://www.w3.org/2000/svg" xmlns:xlink="http://www.w3.org/1999/xlink">
	<desc>
			Created with Pixso.
	</desc>
	<defs>
		<clipPath id="clip6746_1215">
			<rect id="Outline / Sync Forbid Outline" width="24.000000" height="24.000000" fill="white" fill-opacity="0"/>
		</clipPath>
	</defs>
	<g clip-path="url(#clip6746_1215)">
		<path id="Shape" d="M12.97 7.76C12.97 7.95 13.04 8.12 13.17 8.24C13.29 8.35 13.43 8.42 13.61 8.42L17.35 8.4C17.77 8.41 18.1 8.06 18.06 7.64L17.77 3.99C17.74 3.63 17.43 3.36 17.08 3.39C16.72 3.42 16.44 3.73 16.48 4.09L16.66 6.12C15.38 5.1 13.76 4.5 12 4.5C7.85 4.5 4.5 7.85 4.5 12C4.5 12.26 4.51 12.53 4.54 12.79C4.58 13.17 4.96 13.4 5.33 13.29C5.65 13.2 5.85 12.88 5.82 12.54C5.8 12.36 5.79 12.18 5.79 12C5.79 8.57 8.57 5.8 12 5.8C13.42 5.8 14.74 6.28 15.79 7.09L15.78 7.1L13.63 7.12C13.27 7.12 12.98 7.4 12.97 7.76Z" fill="#74767B" fill-opacity="1.000000" fill-rule="nonzero"/>
		<path id="Shape" d="M10.49 15.77C10.49 15.58 10.42 15.41 10.29 15.29C10.17 15.18 10.03 15.11 9.85 15.11L6.11 15.13C5.69 15.12 5.36 15.47 5.4 15.89L5.69 19.54C5.72 19.9 6.03 20.17 6.38 20.14C6.74 20.11 7.02 19.81 6.98 19.45L6.8 17.4C8.14 18.7 9.98 19.5 12 19.5C12.41 19.5 12.81 19.46 13.2 19.4C13.55 19.34 13.76 18.97 13.68 18.63C13.59 18.27 13.24 18.08 12.88 18.13C12.59 18.17 12.3 18.2 12 18.2C10.31 18.2 8.79 17.53 7.67 16.44L7.68 16.43L9.83 16.41C10.19 16.42 10.48 16.13 10.49 15.77Z" fill="#74767B" fill-opacity="1.000000" fill-rule="nonzero"/>
		<path id="Shape" d="M20.16 11.89C20.42 11.64 20.43 11.23 20.18 10.97C19.93 10.71 19.52 10.7 19.26 10.95L17.38 12.77L15.49 10.95C15.23 10.7 14.82 10.71 14.57 10.97C14.32 11.23 14.33 11.64 14.59 11.89L16.44 13.67L14.59 15.46C14.33 15.71 14.32 16.12 14.57 16.38C14.82 16.63 15.23 16.64 15.49 16.39L17.38 14.58L19.26 16.39C19.52 16.64 19.93 16.63 20.18 16.38C20.43 16.12 20.42 15.71 20.16 15.46L18.31 13.67L20.16 11.89Z" fill="#74767B" fill-opacity="1.000000" fill-rule="nonzero"/>
	</g>
</svg>
