<svg width="24.000000" height="24.000000" viewBox="0 0 24 24" fill="none" xmlns="http://www.w3.org/2000/svg" xmlns:xlink="http://www.w3.org/1999/xlink">
	<desc>
			Created with Pixso.
	</desc>
	<defs>
		<clipPath id="clip6746_1216">
			<rect id="Outline / Sync Permit Outline" width="24.000000" height="24.000000" fill="white" fill-opacity="0"/>
		</clipPath>
	</defs>
	<g clip-path="url(#clip6746_1216)">
		<path id="Shape" d="M13.17 8.24C13.04 8.12 12.97 7.95 12.97 7.76C12.98 7.4 13.27 7.12 13.63 7.12L15.78 7.1L15.79 7.09C14.74 6.28 13.42 5.8 12 5.8C8.57 5.8 5.79 8.57 5.79 12C5.79 12.18 5.8 12.36 5.82 12.54C5.85 12.88 5.65 13.2 5.33 13.29C4.96 13.4 4.58 13.17 4.54 12.79C4.51 12.53 4.5 12.26 4.5 12C4.5 7.85 7.85 4.5 12 4.5C13.76 4.5 15.38 5.1 16.66 6.12L16.48 4.09C16.44 3.73 16.72 3.42 17.08 3.39C17.43 3.36 17.74 3.63 17.77 3.99L18.06 7.64C18.1 8.06 17.77 8.41 17.35 8.4L13.61 8.42C13.43 8.42 13.29 8.35 13.17 8.24ZM15.97 15.96C16.25 16.24 16.71 16.23 16.98 15.94L20.5 12.36C20.74 12.09 20.72 11.68 20.46 11.44C20.2 11.2 19.78 11.21 19.54 11.48L16.45 14.6L14.85 13.11C14.6 12.86 14.18 12.86 13.93 13.11C13.68 13.36 13.68 13.78 13.93 14.03L15.97 15.96ZM10.29 15.29C10.42 15.41 10.49 15.58 10.49 15.77C10.48 16.13 10.19 16.42 9.83 16.41L7.68 16.43L7.67 16.44C8.79 17.53 10.31 18.2 12 18.2C12.35 18.2 12.69 18.17 13.02 18.11C13.38 18.05 13.72 18.17 13.81 18.52C13.9 18.87 13.72 19.3 13.38 19.37C12.93 19.45 12.47 19.5 12 19.5C9.98 19.5 8.14 18.7 6.8 17.4L6.98 19.45C7.02 19.81 6.74 20.11 6.38 20.14C6.03 20.17 5.72 19.9 5.69 19.54L5.4 15.89C5.36 15.47 5.69 15.12 6.11 15.13L9.85 15.11C10.03 15.11 10.17 15.18 10.29 15.29Z" fill="#74767B" fill-opacity="1.000000" fill-rule="evenodd"/>
	</g>
</svg>
