<svg viewBox="0 0 24 24" xmlns="http://www.w3.org/2000/svg" xmlns:xlink="http://www.w3.org/1999/xlink" width="24.000000" height="24.000000" fill="none">
	<rect id="Outline/Sync Permit Outline" width="24.000000" height="24.000000" x="0.000000" y="0.000000" />
	<path id="Shape" d="M12.9731 7.76737C12.972 7.95842 13.048 8.12583 13.1792 8.24908C13.2958 8.35863 13.4394 8.42489 13.6163 8.42644L17.3549 8.40482C17.7725 8.413 18.1012 8.06315 18.0669 7.64683L17.7792 3.99511C17.7467 3.63532 17.4342 3.36918 17.0813 3.39435C16.7215 3.42681 16.4481 3.73248 16.4805 4.09227L16.667 6.12868C15.3862 5.10922 13.7642 4.50006 12 4.50006C7.85786 4.50006 4.5 7.85792 4.5 12.0001C4.5 12.2685 4.5141 12.5337 4.54161 12.7948C4.58203 13.1786 4.96965 13.4092 5.33927 13.2983C5.65987 13.2021 5.85289 12.8801 5.82377 12.5467C5.80803 12.3666 5.8 12.1843 5.8 12.0001C5.8 8.57589 8.57583 5.80006 12 5.80006C13.4296 5.80006 14.7462 6.28392 15.795 7.09682L15.7846 7.10802L13.6322 7.12423C13.2784 7.12113 12.9831 7.40626 12.9731 7.76737ZM15.9749 15.9689C16.2549 16.2489 16.7149 16.2389 16.9849 15.9489L20.5057 12.3621C20.7457 12.0921 20.7257 11.6821 20.4657 11.4421C20.2057 11.2021 19.7857 11.2121 19.5457 11.4821L16.4549 14.6089L14.8505 13.1103C14.6005 12.8603 14.1805 12.8603 13.9305 13.1103C13.6805 13.3603 13.6805 13.7803 13.9305 14.0303L15.9749 15.9689ZM10.2902 15.2936C10.4214 15.4169 10.4974 15.5843 10.4963 15.7753C10.4864 16.1365 10.1911 16.4216 9.83724 16.4185L7.68488 16.4347L7.67643 16.4438C8.7933 17.5306 10.3185 18.2001 12 18.2001C12.3502 18.2001 12.6935 18.171 13.0279 18.1152C13.3852 18.0556 13.7252 18.1791 13.818 18.5293C13.9088 18.8719 13.7295 19.3083 13.3811 19.3732C12.9335 19.4565 12.4718 19.5001 12 19.5001C9.98183 19.5001 8.14984 18.7029 6.8017 17.4063L6.98893 19.4504C7.02139 19.8102 6.74796 20.1159 6.38818 20.1484C6.03524 20.1735 5.72272 19.9074 5.69026 19.5476L5.40252 15.8959C5.3683 15.4796 5.69695 15.1297 6.1146 15.1379L9.85316 15.1163C10.0301 15.1178 10.1736 15.1841 10.2902 15.2936Z" fill="rgb(116,118,123)" fill-rule="evenodd" />
</svg>
