<svg width="24.000000" height="24.000000" viewBox="0 0 24 24" fill="none" xmlns="http://www.w3.org/2000/svg" xmlns:xlink="http://www.w3.org/1999/xlink">
	<desc>
			Created with Pixso.
	</desc>
	<defs>
		<clipPath id="clip17_1506">
			<rect id="Solid / Third Person Solid" width="24.000000" height="24.000000" fill="white" fill-opacity="0"/>
		</clipPath>
	</defs>
	<g clip-path="url(#clip17_1506)">
		<path id="Shape" d="M7.56 7.96C7.26 5.32 9.33 3 12 3C14.66 3 16.73 5.32 16.43 7.96L16.17 10.27C15.93 12.39 14.13 14 12 14C9.86 14 8.06 12.39 7.82 10.27L7.56 7.96ZM18.51 20.87C19.28 20.55 19.79 19.83 19.79 19C19.79 18.29 19.52 17.73 19.08 17.34C19.21 17.19 19.32 17.03 19.4 16.85C19.71 16.18 19.69 15.35 19.25 14.71C18.83 14.12 18.25 13.8 17.6 13.76C16.97 13.72 16.34 13.94 15.78 14.29C15.47 14.49 15.38 14.89 15.57 15.19C15.77 15.49 16.17 15.59 16.47 15.39C16.88 15.13 17.24 15.04 17.52 15.06C17.77 15.07 17.99 15.18 18.18 15.45C18.33 15.67 18.36 16 18.22 16.29C18.1 16.55 17.85 16.76 17.43 16.76L16.87 16.76C16.51 16.76 16.22 17.06 16.22 17.41C16.22 17.77 16.51 18.06 16.87 18.06L17.43 18.06C17.74 18.06 18.01 18.15 18.19 18.3C18.35 18.42 18.49 18.63 18.49 19C18.49 19.27 18.32 19.53 18.01 19.67C17.69 19.8 17.16 19.82 16.46 19.4C16.15 19.21 15.75 19.31 15.57 19.62C15.38 19.93 15.48 20.33 15.79 20.51C16.76 21.09 17.73 21.19 18.51 20.87ZM12.99 15C13.71 15 14.29 15.58 14.29 16.29L14.29 19.7C14.29 20.41 13.71 21 12.99 21L4.87 21C4.42 21 4.09 20.58 4.18 20.14L4.28 19.69C4.89 16.95 7.33 15 10.14 15L12.99 15Z" fill="#74767B" fill-opacity="1.000000" fill-rule="evenodd"/>
	</g>
</svg>
