<svg width="24.000000" height="24.000000" viewBox="0 0 24 24" fill="none" xmlns="http://www.w3.org/2000/svg" xmlns:xlink="http://www.w3.org/1999/xlink">
	<desc>
			Created with Pixso.
	</desc>
	<defs>
		<clipPath id="clip17_1365">
			<rect id="Outline / Time Outline" width="24.000000" height="24.000000" fill="white" fill-opacity="0"/>
		</clipPath>
	</defs>
	<g clip-path="url(#clip17_1365)">
		<path id="Shape" d="M12 3C7.02 3 3 7.02 3 12C3 16.97 7.02 21 12 21C16.97 21 21 16.97 21 12C21 7.02 16.97 3 12 3ZM4.29 12C4.29 7.74 7.74 4.3 12 4.3C16.25 4.3 19.7 7.74 19.7 12C19.7 16.25 16.25 19.7 12 19.7C7.74 19.7 4.29 16.25 4.29 12ZM12 7.5C12.35 7.5 12.64 7.79 12.64 8.15L12.64 12L16 12C16.35 12 16.64 12.29 16.64 12.65C16.64 13.01 16.35 13.3 16 13.3L12 13.3C11.64 13.3 11.35 13.01 11.35 12.65L11.35 8.15C11.35 7.79 11.64 7.5 12 7.5Z" fill="#74767B" fill-opacity="1.000000" fill-rule="evenodd"/>
	</g>
</svg>
