<svg width="24.000000" height="24.000000" viewBox="0 0 24 24" fill="none" xmlns="http://www.w3.org/2000/svg" xmlns:xlink="http://www.w3.org/1999/xlink">
	<desc>
			Created with Pixso.
	</desc>
	<defs>
		<clipPath id="clip17_1630">
			<rect id="Solid / To Customer Solid" width="24.000000" height="24.000000" fill="white" fill-opacity="0"/>
		</clipPath>
	</defs>
	<g >
		<path id="Shape" d="M12 3C14.66 3 16.73 5.32 16.43 7.96L16.17 10.27C15.93 12.39 14.13 14 12 14C9.86 14 8.06 12.39 7.82 10.27L7.56 7.96C7.26 5.32 9.33 3 12 3ZM6.5 22C4.01 22 2 19.98 2 17.5C2 15.01 4.01 13 6.5 13C8.98 13 11 15.01 11 17.5C11 19.98 8.98 22 6.5 22ZM6.63 20.35C6.45 20.35 6.28 20.28 6.15 20.14C5.91 19.87 5.93 19.46 6.19 19.22L7.39 18.07L4.01 18.07C3.65 18.07 3.36 17.78 3.36 17.42C3.36 17.06 3.65 16.77 4.01 16.77L7.38 16.77L6.19 15.63C5.92 15.39 5.91 14.98 6.15 14.71C6.39 14.45 6.8 14.43 7.07 14.67L9.42 16.9C9.73 17.18 9.73 17.66 9.42 17.94L7.07 20.18C6.94 20.3 6.79 20.35 6.63 20.35ZM12.11 16.04C11.98 15.54 12.33 15 12.84 15L13.85 15C16.66 15 19.1 16.95 19.71 19.69L19.81 20.14C19.9 20.58 19.57 21 19.12 21L12.53 21C11.95 21 11.6 20.31 11.83 19.78C12.13 19.08 12.29 18.31 12.29 17.5C12.29 16.99 12.23 16.5 12.11 16.04Z" fill="#74767B" fill-opacity="1.000000" fill-rule="evenodd"/>
	</g>
</svg>
