<svg width="24.000000" height="24.000000" viewBox="0 0 24 24" fill="none" xmlns="http://www.w3.org/2000/svg" xmlns:xlink="http://www.w3.org/1999/xlink">
	<desc>
			Created with Pixso.
	</desc>
	<defs>
		<clipPath id="clip128083_799">
			<rect id="Solid / Undo Solid" width="24.000000" height="24.000000" fill="white" fill-opacity="0"/>
		</clipPath>
	</defs>
	<g clip-path="url(#clip128083_799)">
		<path id="Shape" d="M21 12C21 16.97 16.97 21 12 21C7.02 21 3 16.97 3 12C3 7.02 7.02 3 12 3C16.97 3 21 7.02 21 12ZM9.22 9.39L10.84 7.77C11.1 7.52 11.1 7.11 10.84 6.85C10.59 6.6 10.18 6.6 9.92 6.85L7.19 9.58C6.94 9.84 6.94 10.25 7.19 10.5L9.92 13.23C10.18 13.49 10.59 13.49 10.84 13.23C11.1 12.98 11.1 12.57 10.84 12.31L9.22 10.69L13.38 10.69C14.68 10.69 15.73 11.74 15.73 13.04L15.73 13.3C15.73 14.6 14.68 15.65 13.38 15.65L11.67 15.65C11.31 15.65 11.02 15.94 11.02 16.3C11.02 16.66 11.31 16.95 11.67 16.95L13.38 16.95C15.4 16.95 17.03 15.32 17.03 13.3L17.03 13.04C17.03 11.03 15.4 9.39 13.38 9.39L9.22 9.39Z" fill="#74767B" fill-opacity="1.000000" fill-rule="evenodd"/>
	</g>
</svg>
