<svg width="24.000000" height="24.000000" viewBox="0 0 24 24" fill="none" xmlns="http://www.w3.org/2000/svg" xmlns:xlink="http://www.w3.org/1999/xlink">
	<desc>
			Created with Pixso.
	</desc>
	<defs/>
	<path id="Shape" d="M19.29 4.5C17.28 2.49 14.02 2.49 12.01 4.5L10.98 5.46C10.73 5.72 10.73 6.13 10.98 6.38C11.24 6.64 11.65 6.64 11.9 6.38L12.93 5.42C14.43 3.91 16.87 3.91 18.37 5.42C19.88 6.92 19.88 9.36 18.37 10.86L17.35 11.83C17.09 12.08 17.09 12.49 17.35 12.75C17.6 13 18.01 13 18.27 12.75L19.29 11.78C21.3 9.77 21.3 6.51 19.29 4.5ZM6.71 5.83C6.45 5.58 6.04 5.58 5.79 5.83C5.53 6.08 5.53 6.5 5.79 6.75L17.28 18.25C17.54 18.5 17.95 18.5 18.2 18.25C18.46 17.99 18.46 17.58 18.2 17.33L6.71 5.83ZM4.57 19.21C6.59 21.23 9.85 21.23 11.86 19.21L12.74 18.36C12.99 18.11 12.99 17.7 12.74 17.44C12.48 17.19 12.07 17.19 11.82 17.44L10.94 18.3C9.43 19.8 7 19.8 5.49 18.3C3.99 16.79 3.99 14.35 5.49 12.85L6.37 12C6.63 11.74 6.63 11.33 6.37 11.08C6.12 10.82 5.71 10.82 5.45 11.08L4.57 11.93C2.56 13.94 2.56 17.2 4.57 19.21Z" fill="#717681" fill-opacity="1.000000" fill-rule="evenodd"/>
</svg>
