<svg width="24.000000" height="24.000000" viewBox="0 0 24 24" fill="none" xmlns="http://www.w3.org/2000/svg" xmlns:xlink="http://www.w3.org/1999/xlink">
	<desc>
			Created with Pixso.
	</desc>
	<defs>
		<clipPath id="clip17_1469">
			<rect id="Solid / Update Solid" width="24.000000" height="24.000000" fill="white" fill-opacity="0"/>
		</clipPath>
	</defs>
	<g clip-path="url(#clip17_1469)">
		<path id="Shape" d="M12 21C16.97 21 21 16.97 21 12C21 7.02 16.97 3 12 3C7.02 3 3 7.02 3 12C3 16.97 7.02 21 12 21ZM14.88 7.13L14.65 6.27C14.55 5.92 14.74 5.56 15.09 5.46C15.43 5.36 15.8 5.55 15.89 5.9L16.61 8.41C16.72 8.81 16.49 9.21 16.09 9.3L13.66 9.78C13.31 9.86 12.97 9.64 12.88 9.29C12.83 9.13 12.86 8.97 12.94 8.84C13.02 8.69 13.18 8.57 13.36 8.53L14.32 8.32C13.45 7.77 12.38 7.52 11.28 7.7C9.07 8.07 7.53 10.05 7.65 12.24C7.67 12.59 7.4 12.9 7.04 12.92C6.68 12.94 6.37 12.67 6.35 12.31C6.19 9.47 8.2 6.9 11.07 6.42C12.44 6.19 13.77 6.48 14.88 7.13ZM17.64 11.68C17.62 11.32 17.31 11.05 16.95 11.07C16.59 11.09 16.32 11.4 16.34 11.75C16.46 13.94 14.92 15.92 12.71 16.29C11.61 16.47 10.54 16.22 9.67 15.67L10.63 15.46C10.81 15.42 10.97 15.3 11.05 15.15C11.13 15.02 11.16 14.86 11.11 14.7C11.02 14.35 10.68 14.13 10.33 14.21L7.9 14.69C7.5 14.78 7.27 15.18 7.38 15.58L8.1 18.09C8.19 18.44 8.56 18.63 8.9 18.53C9.25 18.43 9.44 18.07 9.34 17.72L9.12 16.86C10.22 17.51 11.55 17.8 12.92 17.57C15.79 17.09 17.8 14.52 17.64 11.68Z" fill="#717681" fill-opacity="1.000000" fill-rule="evenodd"/>
	</g>
</svg>
