<svg width="24" height="24" viewBox="0 0 24 24" fill="none" xmlns="http://www.w3.org/2000/svg">
<path d="M5.0001 18.85C4.64111 18.85 4.3501 19.141 4.3501 19.5C4.3501 19.859 4.64111 20.15 5.0001 20.15H19.0001C19.3591 20.15 19.6501 19.859 19.6501 19.5C19.6501 19.141 19.3591 18.85 19.0001 18.85H5.0001Z" fill="#717681"/>
<path d="M6.21846 9.61032C6.21846 9.79032 6.28846 9.96032 6.42846 10.0903C6.69846 10.3303 7.10846 10.3103 7.34846 10.0503L11.3506 6.22395L11.3506 16.2125C11.3506 16.5715 11.6416 16.8625 12.0006 16.8625C12.3596 16.8625 12.6506 16.5715 12.6506 16.2125V6.28729L16.2984 10.1303C16.5384 10.4003 16.9484 10.4103 17.2184 10.1703C17.4784 9.93033 17.4984 9.52033 17.2584 9.25033L12.5206 4.2325C12.2406 3.9225 11.7606 3.9225 11.4806 4.2325L6.38846 9.17032C6.26846 9.30032 6.21846 9.45032 6.21846 9.61032Z" fill="#717681"/>
</svg>
