<svg width="24.000000" height="24.000000" viewBox="0 0 24 24" fill="none" xmlns="http://www.w3.org/2000/svg" xmlns:xlink="http://www.w3.org/1999/xlink">
	<desc>
			Created with Pixso.
	</desc>
	<defs>
		<clipPath id="clip9177_836">
			<rect id="Solid / User Role From Solid" width="24.000000" height="24.000000" fill="white" fill-opacity="0"/>
		</clipPath>
	</defs>
	<g clip-path="url(#clip9177_836)">
		<path id="Shape" d="M7.56 7.96C7.26 5.32 9.33 3 12 3C14.66 3 16.73 5.32 16.43 7.96L16.17 10.27C15.93 12.39 14.13 14 12 14C9.86 14 8.06 12.39 7.82 10.27L7.56 7.96ZM13 17.5C13 15.01 15.01 13 17.5 13C19.98 13 22 15.01 22 17.5C22 19.98 19.98 22 17.5 22C15.01 22 13 19.98 13 17.5ZM17.15 14.85C17.28 14.71 17.45 14.64 17.63 14.64C17.79 14.64 17.94 14.69 18.07 14.81L20.42 17.05C20.73 17.33 20.73 17.81 20.42 18.09L18.07 20.32C17.8 20.56 17.39 20.54 17.15 20.28C16.91 20.01 16.92 19.6 17.19 19.36L18.38 18.22L15.01 18.22C14.65 18.22 14.36 17.93 14.36 17.57C14.36 17.21 14.65 16.92 15.01 16.92L18.39 16.92L17.19 15.77C16.93 15.53 16.91 15.12 17.15 14.85ZM11.15 15C11.66 15 12.01 15.54 11.88 16.04C11.76 16.5 11.7 16.99 11.7 17.5C11.7 18.31 11.86 19.08 12.16 19.78C12.39 20.31 12.04 21 11.46 21L4.87 21C4.42 21 4.09 20.58 4.18 20.14L4.28 19.69C4.89 16.95 7.33 15 10.14 15L11.15 15Z" fill="#717681" fill-opacity="1.000000" fill-rule="evenodd"/>
	</g>
</svg>
