<svg width="24.000000" height="24.000000" viewBox="0 0 24 24" fill="none" xmlns="http://www.w3.org/2000/svg" xmlns:xlink="http://www.w3.org/1999/xlink">
	<desc>
			Created with Pixso.
	</desc>
	<defs>
		<clipPath id="clip17_1552">
			<rect id="Solid / User Role To Solid" width="24.000000" height="24.000000" fill="white" fill-opacity="0"/>
		</clipPath>
	</defs>
	<g >
		<path id="Shape" d="M12 3C9.33 3 7.26 5.32 7.56 7.96L7.82 10.27C8.06 12.39 9.86 14 12 14C14.13 14 15.93 12.39 16.17 10.27L16.43 7.96C16.73 5.32 14.66 3 12 3ZM17.5 22C19.98 22 22 19.98 22 17.5C22 15.01 19.98 13 17.5 13C15.01 13 13 15.01 13 17.5C13 19.98 15.01 22 17.5 22ZM17.36 20.35C17.54 20.35 17.71 20.28 17.84 20.14C18.08 19.87 18.06 19.46 17.8 19.22L16.6 18.07L19.98 18.07C20.34 18.07 20.63 17.78 20.63 17.42C20.63 17.06 20.34 16.77 19.98 16.77L16.61 16.77L17.8 15.63C18.07 15.39 18.08 14.98 17.84 14.71C17.6 14.45 17.19 14.43 16.92 14.67L14.57 16.9C14.26 17.18 14.26 17.66 14.57 17.94L16.92 20.18C17.05 20.3 17.2 20.35 17.36 20.35ZM11.88 16.04C12.01 15.54 11.66 15 11.15 15L10.14 15C7.33 15 4.89 16.95 4.28 19.69L4.18 20.14C4.09 20.58 4.42 21 4.87 21L11.46 21C12.04 21 12.39 20.31 12.16 19.78C11.86 19.08 11.7 18.31 11.7 17.5C11.7 16.99 11.76 16.5 11.88 16.04Z" fill="#74767B" fill-opacity="1.000000" fill-rule="evenodd"/>
	</g>
</svg>
