<svg width="24.000000" height="24.000000" viewBox="0 0 24 24" fill="none" xmlns="http://www.w3.org/2000/svg" xmlns:xlink="http://www.w3.org/1999/xlink">
	<desc>
			Created with Pixso.
	</desc>
	<defs>
		<clipPath id="clip9177_835">
			<rect id="Outline / User Role From Outline" width="24.000000" height="24.000000" fill="white" fill-opacity="0"/>
		</clipPath>
	</defs>
	<g clip-path="url(#clip9177_835)">
		<path id="Shape" d="M7.56 7.96C7.26 5.32 9.33 3 12 3C14.66 3 16.73 5.32 16.43 7.96L16.17 10.27C15.93 12.39 14.13 14 12 14C9.86 14 8.06 12.39 7.82 10.27L7.56 7.96ZM15.14 7.82L14.88 10.12C14.71 11.59 13.47 12.7 12 12.7C10.52 12.7 9.28 11.59 9.11 10.12L8.85 7.82C8.64 5.94 10.11 4.29 12 4.29C13.88 4.29 15.35 5.94 15.14 7.82ZM17.25 14.7C17.07 14.7 16.9 14.77 16.77 14.91C16.53 15.18 16.55 15.59 16.81 15.83L18.37 17.32L14.99 17.32C14.63 17.32 14.34 17.61 14.34 17.97C14.34 18.33 14.63 18.62 14.99 18.62L18.36 18.62L16.81 19.99C16.54 20.23 16.53 20.64 16.77 20.91C17.01 21.17 17.42 21.19 17.69 20.95L20.4 18.49C20.71 18.21 20.71 17.73 20.4 17.45L17.69 14.87C17.56 14.75 17.41 14.7 17.25 14.7ZM4.28 19.69C4.89 16.95 7.33 15 10.14 15L12.65 15C13.01 15 13.3 15.29 13.3 15.65C13.3 16 13.01 16.29 12.65 16.29L10.14 16.29C8.04 16.29 6.2 17.69 5.62 19.7L12.65 19.7C13.01 19.7 13.3 19.99 13.3 20.35C13.3 20.7 13.01 21 12.65 21L4.87 21C4.42 21 4.09 20.58 4.18 20.14L4.28 19.69Z" fill="#717681" fill-opacity="1.000000" fill-rule="evenodd"/>
	</g>
</svg>
