<svg width="24.000000" height="24.000000" viewBox="0 0 24 24" fill="none" xmlns="http://www.w3.org/2000/svg" xmlns:xlink="http://www.w3.org/1999/xlink">
	<desc>
			Created with Pixso.
	</desc>
	<defs>
		<clipPath id="clip1100_1202">
			<rect id="Solid / VideoCS Solid" width="24.000000" height="24.000000" fill="white" fill-opacity="0"/>
		</clipPath>
	</defs>
	<g clip-path="url(#clip1100_1202)">
		<path id="Shape" d="M12.25 6L5.4 6C3.74 6 2.4 7.34 2.4 9L2.4 15C2.4 16.65 3.74 18 5.4 18L12.25 18C13.9 18 15.25 16.65 15.25 15L15.25 9C15.25 7.34 13.9 6 12.25 6ZM20.04 8.1L17.34 9.25C16.86 9.45 16.54 9.92 16.54 10.44L16.54 13.22C16.54 13.74 16.86 14.21 17.34 14.42L20.04 15.56C20.89 15.93 21.85 15.3 21.85 14.37L21.85 9.3C21.85 8.36 20.89 7.74 20.04 8.1ZM8.2 9.22L11.04 10.87C11.91 11.37 11.91 12.62 11.04 13.12L8.2 14.77C7.44 15.2 6.51 14.78 6.29 14C6.26 13.88 6.25 13.77 6.25 13.64L6.25 10.35C6.25 10.28 6.25 10.21 6.26 10.14C6.29 9.97 6.35 9.82 6.43 9.68C6.49 9.57 6.57 9.48 6.66 9.39C6.98 9.11 7.43 8.98 7.86 9.09C7.97 9.12 8.09 9.16 8.2 9.22Z" fill="#717681" fill-opacity="1.000000" fill-rule="evenodd"/>
	</g>
</svg>
