<svg width="24.000000" height="24.000000" viewBox="0 0 24 24" fill="none" xmlns="http://www.w3.org/2000/svg" xmlns:xlink="http://www.w3.org/1999/xlink">
	<desc>
			Created with Pixso.
	</desc>
	<defs>
		<clipPath id="clip6746_1213">
			<rect id="Outline / View History Outline" width="24.000000" height="24.000000" fill="white" fill-opacity="0"/>
		</clipPath>
	</defs>
	<g >
		<path id="Shape" d="M12 2.98C7.17 2.98 3.22 6.79 3 11.56L1.88 10.37C1.63 10.11 1.22 10.09 0.96 10.34C0.7 10.59 0.68 11 0.93 11.26L3.12 13.61C3.4 13.91 3.87 13.91 4.14 13.61L6.33 11.26C6.58 11 6.56 10.59 6.31 10.34C6.19 10.21 6.04 10.16 5.89 10.16C5.71 10.16 5.54 10.23 5.4 10.37L4.31 11.53L4.31 11.53C4.54 7.49 7.89 4.28 12 4.28C16.25 4.28 19.7 7.73 19.7 11.99C19.7 16.24 16.25 19.69 12 19.69C10.7 19.69 9.49 19.37 8.42 18.8C8.1 18.64 7.71 18.72 7.51 19.02C7.31 19.32 7.39 19.73 7.71 19.9C8.99 20.59 10.45 20.99 12 20.99C16.97 20.99 21 16.96 21 11.99C21 7.01 16.97 2.98 12 2.98ZM12 7.49C12.35 7.49 12.64 7.78 12.64 8.14L12.64 11.99L16 11.99C16.35 11.99 16.64 12.28 16.64 12.64C16.64 13 16.35 13.29 16 13.29L12 13.29C11.64 13.29 11.35 13 11.35 12.64L11.35 8.14C11.35 7.78 11.64 7.49 12 7.49Z" fill="#74767B" fill-opacity="1.000000" fill-rule="evenodd"/>
	</g>
</svg>
