<svg width="24" height="24" viewBox="0 0 24 24" fill="none" xmlns="http://www.w3.org/2000/svg">
<path fill-rule="evenodd" clip-rule="evenodd" d="M2.02411 5.00005C2.02411 3.3432 3.36726 2.00005 5.02411 2.00005L13.0503 2.00005C14.7071 2.00005 16.0503 3.3432 16.0503 5.00005V10.0948C16.0503 10.4418 15.748 10.7094 15.401 10.7094C12.201 10.7094 9.60693 13.3035 9.60693 16.5035C9.60693 17.2805 9.04416 18.028 8.26712 18.028L5.02411 18.028C3.36726 18.028 2.02411 16.6849 2.02411 15.028V5.00005ZM5.37866 10.1395C5.37866 9.78056 5.66968 9.48955 6.02866 9.48955H8.38716C8.74615 9.48955 9.03716 9.78056 9.03716 10.1395C9.03716 10.4985 8.74615 10.7895 8.38716 10.7895H6.02866C5.66968 10.7895 5.37866 10.4985 5.37866 10.1395ZM6.0286 5.8977C5.66962 5.8977 5.3786 6.18871 5.3786 6.5477C5.3786 6.90668 5.66962 7.1977 6.0286 7.1977L12.0482 7.1977C12.4072 7.1977 12.6982 6.90668 12.6982 6.5477C12.6982 6.18871 12.4072 5.8977 12.0482 5.8977L6.0286 5.8977ZM15.4011 21.0035C17.8864 21.0035 19.9011 18.9888 19.9011 16.5035C19.9011 14.0182 17.8864 12.0035 15.4011 12.0035C12.9158 12.0035 10.9011 14.0182 10.9011 16.5035C10.9011 18.9888 12.9158 21.0035 15.4011 21.0035ZM15.4011 13.8465C15.7601 13.8465 16.0511 14.1375 16.0511 14.4965L16.0511 15.8535H17.2727C17.6317 15.8535 17.9227 16.1445 17.9227 16.5035C17.9227 16.8625 17.6317 17.1535 17.2727 17.1535L16.0511 17.1535L16.0511 18.5105C16.0511 18.8695 15.7601 19.1605 15.4011 19.1605C15.0421 19.1605 14.7511 18.8695 14.7511 18.5105V17.1535L13.5295 17.1535C13.1705 17.1535 12.8795 16.8625 12.8795 16.5035C12.8795 16.1445 13.1705 15.8535 13.5295 15.8535H14.7511L14.7511 14.4965C14.7511 14.1375 15.0421 13.8465 15.4011 13.8465Z" fill="#626F84"/>
</svg>
