<svg width="24" height="24" viewBox="0 0 24 24" fill="none" xmlns="http://www.w3.org/2000/svg">
<path fill-rule="evenodd" clip-rule="evenodd" d="M4.00287 5.00006C4.00287 3.34321 5.34602 2.00006 7.00287 2.00006L15.0291 2.00006C16.6859 2.00006 18.0291 3.34321 18.0291 5.00006V10.0948C18.0291 10.4418 17.7268 10.7094 17.3798 10.7094C14.1798 10.7094 11.5857 13.3035 11.5857 16.5035C11.5857 17.2805 11.0229 18.028 10.2459 18.028L7.00287 18.028C5.34602 18.028 4.00287 16.6849 4.00287 15.028V5.00006ZM7.35742 10.1396C7.35742 9.78057 7.64844 9.48956 8.00742 9.48956H10.3659C10.7249 9.48956 11.0159 9.78057 11.0159 10.1396C11.0159 10.4985 10.7249 10.7896 10.3659 10.7896H8.00742C7.64844 10.7896 7.35742 10.4985 7.35742 10.1396ZM8.00736 5.89771C7.64838 5.89771 7.35736 6.18872 7.35736 6.54771C7.35736 6.90669 7.64838 7.19771 8.00736 7.19771L14.0269 7.19771C14.3859 7.19771 14.6769 6.90669 14.6769 6.54771C14.6769 6.18872 14.3859 5.89771 14.0269 5.89771L8.00736 5.89771ZM17.3799 21.0035C19.8652 21.0035 21.8799 18.9888 21.8799 16.5035C21.8799 14.0182 19.8652 12.0035 17.3799 12.0035C14.8946 12.0035 12.8799 14.0182 12.8799 16.5035C12.8799 18.9888 14.8946 21.0035 17.3799 21.0035ZM17.3799 13.8465C17.7389 13.8465 18.0299 14.1375 18.0299 14.4965L18.0299 15.8535H19.2515C19.6105 15.8535 19.9015 16.1445 19.9015 16.5035C19.9015 16.8625 19.6105 17.1535 19.2515 17.1535L18.0299 17.1535L18.0299 18.5105C18.0299 18.8695 17.7389 19.1605 17.3799 19.1605C17.0209 19.1605 16.7299 18.8695 16.7299 18.5105V17.1535L15.5083 17.1535C15.1493 17.1535 14.8583 16.8625 14.8583 16.5035C14.8583 16.1445 15.1493 15.8535 15.5083 15.8535H16.7299L16.7299 14.4965C16.7299 14.1375 17.0209 13.8465 17.3799 13.8465Z" fill="#717681"/>
</svg>
