<svg width="24" height="24" viewBox="0 0 24 24" fill="none" xmlns="http://www.w3.org/2000/svg">
<path d="M15.0262 3.3L7 3.3C6.06112 3.3 5.3 4.06112 5.3 5L5.3 15.028C5.3 15.9669 6.06112 16.728 7 16.728H11.4323C11.7913 16.728 12.0823 17.019 12.0823 17.378C12.0823 17.737 11.7913 18.028 11.4323 18.028H7C5.34315 18.028 4 16.6848 4 15.028L4 5C4 3.34314 5.34315 2 7 2L15.0262 2C16.683 2 18.0262 3.34315 18.0262 5V11.4076C18.0262 11.7666 17.7352 12.0576 17.3762 12.0576C17.0172 12.0576 16.7262 11.7666 16.7262 11.4076V5C16.7262 4.06112 15.9651 3.3 15.0262 3.3Z" fill="#717681"/>
<path d="M7.35455 6.54764C7.35455 6.18866 7.64557 5.89764 8.00455 5.89764L14.0241 5.89764C14.3831 5.89764 14.6741 6.18866 14.6741 6.54764C14.6741 6.90663 14.3831 7.19764 14.0241 7.19764H8.00455C7.64557 7.19764 7.35455 6.90663 7.35455 6.54764Z" fill="#717681"/>
<path d="M8.00455 9.43134C7.64557 9.43134 7.35455 9.72235 7.35455 10.0813C7.35455 10.4403 7.64557 10.7313 8.00455 10.7313H10.6314C10.9903 10.7313 11.2814 10.4403 11.2814 10.0813C11.2814 9.72235 10.9903 9.43134 10.6314 9.43134H8.00455Z" fill="#717681"/>
<path d="M17.2658 21.0035C16.9068 21.0035 16.6158 20.7125 16.6158 20.3535V17.9937H14.256C13.897 17.9937 13.606 17.7026 13.606 17.3437C13.606 16.9847 13.897 16.6937 14.256 16.6937H16.6158V14.3339C16.6158 13.9749 16.9068 13.6839 17.2658 13.6839C17.6248 13.6839 17.9158 13.9749 17.9158 14.3339V16.6937H20.2756C20.6346 16.6937 20.9256 16.9847 20.9256 17.3437C20.9256 17.7026 20.6346 17.9937 20.2756 17.9937H17.9158V20.3535C17.9158 20.7125 17.6248 21.0035 17.2658 21.0035Z" fill="#717681"/>
</svg>
