<svg width="24" height="24" viewBox="0 0 24 24" fill="none" xmlns="http://www.w3.org/2000/svg">
<path d="M14.0018 3.3L5.97559 3.3C5.0367 3.3 4.27559 4.06112 4.27559 5L4.27559 15.028C4.27559 15.9669 5.0367 16.728 5.97559 16.728H10.4079C10.7669 16.728 11.0579 17.019 11.0579 17.378C11.0579 17.737 10.7669 18.028 10.4079 18.028H5.97559C4.31873 18.028 2.97559 16.6848 2.97559 15.028L2.97559 5C2.97559 3.34314 4.31873 2 5.97559 2L14.0018 2C15.6586 2 17.0018 3.34315 17.0018 5V11.4076C17.0018 11.7666 16.7108 12.0576 16.3518 12.0576C15.9928 12.0576 15.7018 11.7666 15.7018 11.4076L15.7018 5C15.7018 4.06112 14.9407 3.3 14.0018 3.3Z" fill="#626F84"/>
<path d="M6.33014 6.54764C6.33014 6.18866 6.62115 5.89764 6.98014 5.89764L12.9997 5.89764C13.3587 5.89764 13.6497 6.18866 13.6497 6.54764C13.6497 6.90663 13.3587 7.19764 12.9997 7.19764H6.98014C6.62115 7.19764 6.33014 6.90663 6.33014 6.54764Z" fill="#626F84"/>
<path d="M6.98014 9.43134C6.62115 9.43134 6.33014 9.72235 6.33014 10.0813C6.33014 10.4403 6.62115 10.7313 6.98014 10.7313H9.60695C9.96593 10.7313 10.2569 10.4403 10.2569 10.0813C10.2569 9.72235 9.96593 9.43134 9.60695 9.43134H6.98014Z" fill="#626F84"/>
<path d="M16.2414 21.0035C15.8824 21.0035 15.5914 20.7125 15.5914 20.3535V17.9937H13.2316C12.8726 17.9937 12.5816 17.7026 12.5816 17.3437C12.5816 16.9847 12.8726 16.6937 13.2316 16.6937H15.5914V14.3339C15.5914 13.9749 15.8824 13.6839 16.2414 13.6839C16.6004 13.6839 16.8914 13.9749 16.8914 14.3339V16.6937H19.2512C19.6102 16.6937 19.9012 16.9847 19.9012 17.3437C19.9012 17.7026 19.6102 17.9937 19.2512 17.9937H16.8914V20.3535C16.8914 20.7125 16.6004 21.0035 16.2414 21.0035Z" fill="#626F84"/>
</svg>
