<svg width="24" height="24" viewBox="0 0 24 24" fill="none" xmlns="http://www.w3.org/2000/svg">
<path fill-rule="evenodd" clip-rule="evenodd" d="M3.93652 6.05552C3.93652 4.39867 5.27967 3.05552 6.93652 3.05552H13.5524C14.2932 3.05552 15.0077 3.32954 15.5584 3.82483L19.006 6.92511C19.6387 7.49406 20 8.30492 20 9.1558V18C20 19.6569 18.6569 21 17 21H6.93652C5.27967 21 3.93652 19.6569 3.93652 18V6.05552ZM7.89624 5.01623C7.89624 4.65725 8.18725 4.36623 8.54624 4.36623H9.46609C9.82507 4.36623 10.1161 4.65725 10.1161 5.01623C10.1161 5.37522 9.82507 5.66623 9.46609 5.66623H8.54624C8.18725 5.66623 7.89624 5.37522 7.89624 5.01623ZM8.54624 6.96623C8.18725 6.96623 7.89624 7.25725 7.89624 7.61623C7.89624 7.97522 8.18725 8.26623 8.54624 8.26623H9.46609C9.82507 8.26623 10.1161 7.97522 10.1161 7.61623C10.1161 7.25725 9.82507 6.96623 9.46609 6.96623H8.54624ZM7.89624 10.2162C7.89624 9.85725 8.18725 9.56623 8.54624 9.56623H9.46609C9.82507 9.56623 10.1161 9.85725 10.1161 10.2162C10.1161 10.5752 9.82507 10.8662 9.46609 10.8662H8.54624C8.18725 10.8662 7.89624 10.5752 7.89624 10.2162ZM9.44133 12.1662C9.1208 12.1662 8.84122 12.3839 8.76267 12.6947L8.11651 15.2513C8.00474 15.6935 8.33903 16.1228 8.79517 16.1228H11.0695C11.5256 16.1228 11.8599 15.6935 11.7481 15.2513L11.1019 12.6947C11.0234 12.3839 10.7438 12.1662 10.4233 12.1662H9.44133ZM9.74854 6.31623C9.74854 5.95724 10.0395 5.66623 10.3985 5.66623H11.3184C11.6774 5.66623 11.9684 5.95724 11.9684 6.31623C11.9684 6.67521 11.6774 6.96623 11.3184 6.96623H10.3985C10.0395 6.96623 9.74854 6.67521 9.74854 6.31623ZM10.3985 8.26623C10.0395 8.26623 9.74854 8.55724 9.74854 8.91623C9.74854 9.27521 10.0395 9.56623 10.3985 9.56623H11.3184C11.6774 9.56623 11.9684 9.27521 11.9684 8.91623C11.9684 8.55724 11.6774 8.26623 11.3184 8.26623H10.3985Z" fill="#626F84"/>
</svg>
