<svg width="24" height="24" viewBox="0 0 24 24" fill="none" xmlns="http://www.w3.org/2000/svg">
<path fill-rule="evenodd" clip-rule="evenodd" d="M7 3C5.34315 3 4 4.34315 4 6V18C4 19.6569 5.34315 21 7 21H17C18.6569 21 20 19.6569 20 18V6C20 4.34315 18.6569 3 17 3H7ZM13.4372 15.7085C13.4344 15.4658 13.4316 15.2216 13.3181 15.0133C13.0638 14.5466 12.5689 14.2299 12 14.2299C11.541 14.2299 11.1301 14.436 10.855 14.7609C10.6575 14.9939 10.6203 15.3352 10.5847 15.6614C10.5389 16.0812 10.4959 16.476 10.1177 16.5831C9.98894 16.6196 9.85757 16.6097 9.76599 16.5532C9.13399 16.1634 8.63738 15.6127 8.32822 14.9638C7.6251 13.4881 8.09864 11.6642 9.30073 10.0784C9.98142 9.18037 11.3381 8.1183 12.3346 7.40653C12.5879 7.22563 13.0369 7.56664 13.0172 7.87725C12.9718 8.59281 13.1393 9.41065 13.6951 9.96328C13.8876 10.1547 14.083 10.335 14.2745 10.5115C15.1816 11.3479 16 12.1026 16 13.5826C16 14.7694 15.4138 15.96 14.2572 16.6291C14.0585 16.7441 13.758 16.6921 13.591 16.4508C13.4434 16.2376 13.4403 15.9739 13.4372 15.7085Z" fill="#717681"/>
</svg>
