<svg width="24" height="24" viewBox="0 0 24 24" fill="none" xmlns="http://www.w3.org/2000/svg">
<path d="M9.82696 10.9656C10.1111 11.185 10.1636 11.5932 9.94422 11.8773L9.08458 12.9908L9.94988 14.1454C10.1652 14.4327 10.1068 14.8401 9.81952 15.0554C9.53224 15.2707 9.12485 15.2123 8.90957 14.925L7.74776 13.3747C7.57256 13.1409 7.57488 12.8189 7.75342 12.5876L8.91523 11.0829C9.13461 10.7987 9.54281 10.7462 9.82696 10.9656Z" fill="#717681"/>
<path d="M14.0558 14.138C13.8365 14.4221 13.889 14.8303 14.1731 15.0497C14.4573 15.2691 14.8654 15.2166 15.0848 14.9324L16.2466 13.4277C16.4252 13.1964 16.4275 12.8744 16.2523 12.6406L15.0905 11.0903C14.8752 10.803 14.4678 10.7447 14.1805 10.9599C13.8933 11.1752 13.8349 11.5826 14.0502 11.8699L14.9155 13.0246L14.0558 14.138Z" fill="#717681"/>
<path d="M12.6202 10.7381C12.9673 10.8298 13.1743 11.1855 13.0825 11.5326L12.2125 14.8238C12.1208 15.1709 11.7651 15.3778 11.418 15.2861C11.0709 15.1944 10.864 14.8386 10.9557 14.4916L11.8257 11.2004C11.9175 10.8533 12.2732 10.6463 12.6202 10.7381Z" fill="#717681"/>
<path fill-rule="evenodd" clip-rule="evenodd" d="M7 3C5.34315 3 4 4.34315 4 6V18C4 19.6569 5.34315 21 7 21H17C18.6569 21 20 19.6569 20 18V9.2997C20 8.47047 19.6568 7.67823 19.0518 7.11108L15.5321 3.81139C14.9761 3.2901 14.2425 3 13.4803 3H7ZM13.4803 4.3L7 4.3C6.06112 4.3 5.3 5.06112 5.3 6L5.3 18C5.3 18.9389 6.06112 19.7 7 19.7H17C17.9389 19.7 18.7 18.9389 18.7 18L18.7 9.2997C18.7 9.19933 18.6911 9.09993 18.6738 9.00251L15.9996 9.00252C14.9226 9.00253 14.0496 8.12948 14.0496 7.05252V4.39813C13.8684 4.33375 13.676 4.3 13.4803 4.3ZM15.3496 5.42216L17.7819 7.70252L15.9996 7.70252C15.6406 7.70252 15.3496 7.41151 15.3496 7.05252V5.42216Z" fill="#717681"/>
</svg>
