<svg width="24" height="24" viewBox="0 0 24 24" fill="none" xmlns="http://www.w3.org/2000/svg">
<path fill-rule="evenodd" clip-rule="evenodd" d="M4.26303 2.10792C4.54755 1.88901 4.95566 1.9422 5.17456 2.22672L5.92434 3.20122C6.2601 3.07128 6.62508 3.00002 7.00671 3.00002H17C18.6568 3.00002 20 4.34317 20 6.00002V18C20 18.8797 19.6214 19.6709 19.0182 20.2197L19.6037 20.9806C19.8226 21.2651 19.7694 21.6732 19.4849 21.8921C19.2004 22.111 18.7923 22.0578 18.5733 21.7733L17.878 20.8695C17.8782 20.8694 17.8777 20.8696 17.878 20.8695L16.9772 19.7H16.9782L5.64961 4.97602C5.64977 4.9758 5.64944 4.97624 5.64961 4.97602L4.84001 3.92507C4.83983 3.92526 4.8402 3.92488 4.84001 3.92507L4.14423 3.01945C3.92533 2.73493 3.97852 2.32683 4.26303 2.10792ZM6.78116 4.31485C6.85496 4.30507 6.93025 4.30002 7.00671 4.30002H17C17.9388 4.30002 18.7 5.06114 18.7 6.00002V18C18.7 18.4599 18.5174 18.8771 18.2207 19.1831L6.78116 4.31485Z" fill="#626F84"/>
<path d="M7.00671 19.7H15.3369L16.3371 21H7.00671C5.34986 21 4.00671 19.6569 4.00671 18V6.00002C4.00671 5.7002 4.0507 5.41064 4.13257 5.13746L5.30671 6.66353V18C5.30671 18.9389 6.06783 19.7 7.00671 19.7Z" fill="#626F84"/>
</svg>
