<svg width="24" height="24" viewBox="0 0 24 24" fill="none" xmlns="http://www.w3.org/2000/svg">
<path d="M4.26303 2.10792C4.54755 1.88901 4.95566 1.9422 5.17456 2.22672L5.92434 3.20122C6.2601 3.07128 6.62508 3.00002 7.00671 3.00002H17C18.6568 3.00002 20 4.34317 20 6.00002V18C20 18.8797 19.6214 19.6709 19.0182 20.2197L19.6037 20.9806C19.8226 21.2651 19.7694 21.6732 19.4849 21.8921C19.2004 22.111 18.7923 22.0578 18.5733 21.7733L17.878 20.8695C17.8782 20.8694 17.8777 20.8696 17.878 20.8695L4.84001 3.92507C4.83983 3.92526 4.8402 3.92488 4.84001 3.92507L4.14423 3.01945C3.92533 2.73493 3.97852 2.32683 4.26303 2.10792Z" fill="#626F84"/>
<path d="M7.00671 21H16.3371L4.13257 5.13746C4.0507 5.41064 4.00671 5.7002 4.00671 6.00002V18C4.00671 19.6569 5.34986 21 7.00671 21Z" fill="#626F84"/>
</svg>
