<svg width="24" height="24" viewBox="0 0 24 24" fill="none" xmlns="http://www.w3.org/2000/svg">
<path d="M5.06778 2.22672C4.84888 1.9422 4.44077 1.88901 4.15626 2.10792C3.87174 2.32683 3.81855 2.73493 4.03746 3.01945L6.6702 6.44129V6.44242L18.4666 21.7733C18.6855 22.0578 19.0936 22.111 19.3781 21.8921C19.6626 21.6732 19.7158 21.2651 19.4969 20.9806L18.1691 19.2548C19.5785 19.009 20.65 17.7794 20.65 16.2996V6.30511C20.65 4.64825 19.3068 3.30511 17.6499 3.30511H9.6702C8.55365 3.30511 7.57958 3.91507 7.06301 4.81996L5.06778 2.22672Z" fill="#717681"/>
<path d="M14.9222 19.2996H9.6702C8.01335 19.2996 6.6702 17.9565 6.6702 16.2996V8.57429L14.9222 19.2996Z" fill="#717681"/>
<path d="M5.2783 9.3314C5.2783 8.97241 4.98728 8.6814 4.6283 8.6814C4.26931 8.6814 3.9783 8.97241 3.9783 9.3314V18.3514C3.9783 20.3672 5.61245 22.0014 7.62829 22.0014H15.6291C15.9881 22.0014 16.2791 21.7104 16.2791 21.3514C16.2791 20.9924 15.9881 20.7014 15.6291 20.7014H7.62829C6.33042 20.7014 5.2783 19.6492 5.2783 18.3514L5.2783 9.3314Z" fill="#717681"/>
</svg>
