<svg width="24" height="24" viewBox="0 0 24 24" fill="none" xmlns="http://www.w3.org/2000/svg">
<path fill-rule="evenodd" clip-rule="evenodd" d="M9.78851 10.2009C9.13474 10.7404 8.63542 11.4188 8.31861 11.9279C8.31114 11.9399 8.30345 11.9606 8.30345 11.9883C8.30345 12.0159 8.31114 12.0366 8.31861 12.0486C8.63542 12.5577 9.13474 13.2361 9.78851 13.7756C10.4356 14.3096 11.171 14.6584 12.0034 14.6584C12.8359 14.6584 13.5712 14.3096 14.2184 13.7756C14.8722 13.2361 15.3715 12.5577 15.6883 12.0486C15.6958 12.0366 15.7034 12.0159 15.7034 11.9883C15.7034 11.9606 15.6958 11.9399 15.6883 11.9279C15.3715 11.4188 14.8722 10.7404 14.2184 10.2009C13.5712 9.66689 12.8359 9.31807 12.0034 9.31807C11.171 9.31807 10.4356 9.66689 9.78851 10.2009ZM13.7339 12C13.7339 12.9576 12.9576 13.7338 12.0001 13.7338C11.0425 13.7338 10.2663 12.9576 10.2663 12C10.2663 11.0425 11.0425 10.2662 12.0001 10.2662C12.9576 10.2662 13.7339 11.0425 13.7339 12Z" fill="#626F84"/>
<path fill-rule="evenodd" clip-rule="evenodd" d="M17.0001 3C18.6569 3 20.0001 4.34315 20.0001 6V18C20.0001 19.6569 18.6569 21 17.0001 21H7.00684C5.34998 21 4.00684 19.6569 4.00684 18V6C4.00684 4.34315 5.34998 3 7.00684 3H17.0001ZM7.21487 11.241C7.93061 10.0909 9.55951 8.01807 12.0034 8.01807C14.4474 8.01807 16.0763 10.0909 16.792 11.241C17.0739 11.694 17.0739 12.2825 16.792 12.7355C16.0763 13.8856 14.4474 15.9584 12.0034 15.9584C9.55951 15.9584 7.93061 13.8856 7.21487 12.7355C6.93297 12.2825 6.93297 11.694 7.21487 11.241Z" fill="#626F84"/>
</svg>
