<svg width="24" height="24" viewBox="0 0 24 24" fill="none" xmlns="http://www.w3.org/2000/svg">
<path fill-rule="evenodd" clip-rule="evenodd" d="M20.0001 6C20.0001 4.34315 18.6569 3 17.0001 3L7.00684 3C5.34998 3 4.00684 4.34315 4.00684 6V18C4.00684 19.6569 5.34998 21 7.00684 21H17.0001C18.6569 21 20.0001 19.6569 20.0001 18V6ZM17.0001 4.3H7.00684C6.06795 4.3 5.30684 5.06112 5.30684 6V18C5.30684 18.9389 6.06795 19.7 7.00684 19.7H17.0001C17.939 19.7 18.7001 18.9389 18.7001 18V6C18.7001 5.06112 17.939 4.3 17.0001 4.3Z" fill="#626F84"/>
<path d="M11.281 14.4152C11.561 14.6952 12.021 14.6852 12.291 14.3952L15.8117 10.8085C16.0517 10.5385 16.0317 10.1285 15.7717 9.88847C15.5117 9.64847 15.0917 9.65847 14.8517 9.92847L11.761 13.0552L10.1565 11.5567C9.90652 11.3067 9.48652 11.3067 9.23652 11.5567C8.98652 11.8067 8.98652 12.2267 9.23652 12.4767L11.281 14.4152Z" fill="#626F84"/>
</svg>
