<svg width="24" height="24" viewBox="0 0 24 24" fill="none" xmlns="http://www.w3.org/2000/svg">
<path fill-rule="evenodd" clip-rule="evenodd" d="M17.0001 3C18.6569 3 20.0001 4.34315 20.0001 6V18C20.0001 19.6569 18.6569 21 17.0001 21H7.00684C5.34998 21 4.00684 19.6569 4.00684 18V6C4.00684 4.34315 5.34998 3 7.00684 3H17.0001ZM12.291 14.3952C12.021 14.6852 11.561 14.6952 11.281 14.4152L9.23651 12.4766C8.98651 12.2266 8.98651 11.8066 9.23651 11.5566C9.48651 11.3066 9.90651 11.3066 10.1565 11.5566L11.761 13.0552L14.8517 9.92845C15.0917 9.65845 15.5117 9.64845 15.7717 9.88845C16.0317 10.1284 16.0517 10.5384 15.8117 10.8084L12.291 14.3952Z" fill="#717681"/>
</svg>
