<svg width="24" height="24" viewBox="0 0 24 24" fill="none" xmlns="http://www.w3.org/2000/svg">
<path fill-rule="evenodd" clip-rule="evenodd" d="M20.6499 6.35004C20.6499 4.69318 19.3068 3.35004 17.6499 3.35004H9.6499C7.99305 3.35004 6.6499 4.69318 6.6499 6.35004V16.35C6.6499 18.0069 7.99305 19.35 9.6499 19.35H17.6499C19.3068 19.35 20.6499 18.0069 20.6499 16.35V6.35004ZM13.6499 7.25C13.2357 7.25 12.8999 7.58579 12.8999 8V12C12.8999 12.4142 13.2357 12.75 13.6499 12.75C14.0641 12.75 14.3999 12.4142 14.3999 12V8C14.3999 7.58579 14.0641 7.25 13.6499 7.25ZM13.6499 15.7C13.1805 15.7 12.7999 15.3194 12.7999 14.85C12.7999 14.3806 13.1805 14 13.6499 14C14.1193 14 14.4999 14.3806 14.4999 14.85C14.4999 15.3194 14.1193 15.7 13.6499 15.7Z" fill="#717681"/>
<path d="M4.6499 8.70004C4.29092 8.70004 3.9999 8.99105 3.9999 9.35004V18.75C3.9999 20.545 5.45498 22 7.2499 22H15.6499C16.0089 22 16.2999 21.709 16.2999 21.35C16.2999 20.9911 16.0089 20.7 15.6499 20.7H7.2499C6.17295 20.7 5.2999 19.827 5.2999 18.75V9.35004C5.2999 8.99105 5.00889 8.70004 4.6499 8.70004Z" fill="#717681"/>
</svg>
