<svg width="24" height="24" viewBox="0 0 24 24" fill="none" xmlns="http://www.w3.org/2000/svg">
<path fill-rule="evenodd" clip-rule="evenodd" d="M15.0005 2.35C16.5454 2.35 17.8176 3.51784 17.9824 5.0189C18.0286 5.02436 18.0782 5.03139 18.1341 5.04045C19.5608 5.27188 20.65 6.50954 20.65 8.00161V18.0016C20.65 19.6585 19.3069 21.0016 17.65 21.0016H9.65004C8.34329 21.0016 7.23168 20.1661 6.82025 19.0002C5.24731 18.907 4.00049 17.6018 4.00049 16.0055V5.35C4.00049 3.69314 5.34363 2.35 7.00049 2.35H15.0005ZM9.65004 5.00161H16.6648C16.504 4.22983 15.82 3.65 15.0005 3.65H7.00049C6.0616 3.65 5.30049 4.41111 5.30049 5.35V16.0055C5.30049 16.7512 5.78062 17.3848 6.4486 17.6139C6.46684 17.6178 6.48508 17.6225 6.50325 17.6281C6.55125 17.6427 6.60021 17.6553 6.65004 17.6657V8.00161C6.65004 6.34476 7.99319 5.00161 9.65004 5.00161ZM14.3032 9.99853C14.3032 9.63955 14.0122 9.34853 13.6532 9.34853C13.2942 9.34853 13.0032 9.63955 13.0032 9.99853V12.3485H10.6532C10.2942 12.3485 10.0032 12.6395 10.0032 12.9985C10.0032 13.3575 10.2942 13.6485 10.6532 13.6485L13.0032 13.6485V15.9985C13.0032 16.3575 13.2942 16.6485 13.6532 16.6485C14.0122 16.6485 14.3032 16.3575 14.3032 15.9985V13.6485H16.6532C17.0122 13.6485 17.3032 13.3575 17.3032 12.9985C17.3032 12.6395 17.0122 12.3485 16.6532 12.3485H14.3032V9.99853Z" fill="#717681"/>
</svg>
