<svg width="24" height="24" viewBox="0 0 24 24" fill="none" xmlns="http://www.w3.org/2000/svg">
<path fill-rule="evenodd" clip-rule="evenodd" d="M6.68247 17.7586C6.68247 18.1176 6.39146 18.4086 6.03247 18.4086C5.67349 18.4086 5.38247 18.1176 5.38247 17.7586L5.38247 14.2413C5.38247 13.8823 5.67349 13.5913 6.03247 13.5913H7.35057C8.34325 13.5913 9.14797 14.3961 9.14797 15.3887C9.14797 16.3814 8.34325 17.1861 7.35057 17.1861H6.68247V17.7586ZM6.68247 14.8913V15.8861H7.35057C7.62528 15.8861 7.84797 15.6634 7.84797 15.3887C7.84797 15.114 7.62528 14.8913 7.35057 14.8913H6.68247Z" fill="#626F84"/>
<path fill-rule="evenodd" clip-rule="evenodd" d="M10.9986 18.4086C11.3576 18.4086 11.6486 18.1176 11.6486 17.7586V17.1861H12.3167C13.3094 17.1861 14.1141 16.3814 14.1141 15.3887C14.1141 14.3961 13.3094 13.5913 12.3167 13.5913H10.9986C10.6396 13.5913 10.3486 13.8823 10.3486 14.2413V17.7586C10.3486 18.1176 10.6396 18.4086 10.9986 18.4086ZM11.6486 14.8913H12.3167C12.5914 14.8913 12.8141 15.114 12.8141 15.3887C12.8141 15.6634 12.5914 15.8861 12.3167 15.8861H11.6486V14.8913Z" fill="#626F84"/>
<path d="M17.9676 14.8941C18.3266 14.8941 18.6176 14.6031 18.6176 14.2441C18.6176 13.8851 18.3266 13.5941 17.9676 13.5941H15.5456C15.1866 13.5941 14.8956 13.8851 14.8956 14.2441C14.8956 14.6031 15.1866 14.8941 15.5456 14.8941H16.1066L16.1066 17.7614C16.1066 18.1203 16.3976 18.4114 16.7566 18.4114C17.1156 18.4114 17.4066 18.1203 17.4066 17.7614V14.8941H17.9676Z" fill="#626F84"/>
<path fill-rule="evenodd" clip-rule="evenodd" d="M5 6V11C3.34315 11 2 12.3431 2 14V18C2 19.6569 3.34315 21 5 21H19C20.6569 21 22 19.6569 22 18V14C22 12.3431 20.6569 11 19 11V9.17967C19 8.42148 18.7129 7.69141 18.1965 7.13629L15.2385 3.95662C14.671 3.34655 13.8752 3 13.042 3H8C6.34315 3 5 4.34315 5 6ZM8 4.3H13.042C13.1461 4.3 13.2491 4.30954 13.3499 4.32811V7.04926C13.3499 8.12621 14.223 8.99926 15.2999 8.99926L17.6904 8.99925C17.6968 9.05892 17.7 9.11913 17.7 9.17967V11H6.3V6C6.3 5.06112 7.06112 4.3 8 4.3ZM16.9447 7.69926L14.6499 5.23254V7.04926C14.6499 7.40824 14.9409 7.69926 15.2999 7.69926L16.9447 7.69926ZM19 12.3H5C4.06112 12.3 3.3 13.0611 3.3 14V18C3.3 18.9389 4.06112 19.7 5 19.7H19C19.9389 19.7 20.7 18.9389 20.7 18V14C20.7 13.0611 19.9389 12.3 19 12.3Z" fill="#626F84"/>
</svg>
