<svg width="24" height="24" viewBox="0 0 24 24" fill="none" xmlns="http://www.w3.org/2000/svg">
<path d="M6.62559 14.8913V17.1086H7.14109C7.50007 17.1086 7.79109 16.8176 7.79109 16.4586V15.5413C7.79109 15.1823 7.50007 14.8913 7.14109 14.8913H6.62559Z" fill="#626F84"/>
<path d="M12.2279 17.1086C11.906 17.1086 11.6451 16.8477 11.6451 16.5259V15.4741C11.6451 15.1522 11.906 14.8913 12.2279 14.8913C12.5497 14.8913 12.8106 15.1522 12.8106 15.4741V16.5259C12.8106 16.8477 12.5497 17.1086 12.2279 17.1086Z" fill="#626F84"/>
<path fill-rule="evenodd" clip-rule="evenodd" d="M5 6V11C3.34315 11 2 12.3431 2 14V18C2 19.6569 3.34315 21 5 21H19C20.6569 21 22 19.6569 22 18V14C22 12.3431 20.6569 11 19 11V9.17967C19 8.42148 18.7129 7.69141 18.1965 7.13629L15.2385 3.95662C14.671 3.34655 13.8752 3 13.042 3H8C6.34315 3 5 4.34315 5 6ZM8 4.3H13.042C13.1461 4.3 13.2491 4.30954 13.3499 4.32811V7.04926C13.3499 8.12621 14.223 8.99926 15.2999 8.99926L17.6904 8.99925C17.6968 9.05892 17.7 9.11913 17.7 9.17967V11H6.3V6C6.3 5.06112 7.06112 4.3 8 4.3ZM16.9447 7.69926L14.6499 5.23254V7.04926C14.6499 7.40824 14.9409 7.69926 15.2999 7.69926L16.9447 7.69926ZM5.97559 18.4086C5.8032 18.4086 5.63787 18.3401 5.51597 18.2182C5.39407 18.0963 5.32559 17.931 5.32559 17.7586L5.32559 14.2413C5.32559 14.0689 5.39407 13.9036 5.51597 13.7817C5.63787 13.6598 5.8032 13.5913 5.97559 13.5913H7.14109C8.21804 13.5913 9.09109 14.4644 9.09109 15.5413V16.4586C9.09109 17.5356 8.21804 18.4086 7.14109 18.4086H5.97559ZM10.3451 16.5259C10.3451 17.5657 11.1881 18.4086 12.2279 18.4086C13.2677 18.4086 14.1106 17.5657 14.1106 16.5259V15.4741C14.1106 14.4343 13.2677 13.5913 12.2279 13.5913C11.1881 13.5913 10.3451 14.4343 10.3451 15.4741V16.5259ZM16.6822 16.4586C16.6822 16.8176 16.9732 17.1086 17.3322 17.1086H18.0243C18.3832 17.1086 18.6743 17.3996 18.6743 17.7586C18.6743 18.1176 18.3832 18.4086 18.0243 18.4086H17.3322C16.2553 18.4086 15.3822 17.5356 15.3822 16.4586V15.5413C15.3822 14.4644 16.2553 13.5913 17.3322 13.5913H18.0243C18.3832 13.5913 18.6743 13.8823 18.6743 14.2413C18.6743 14.6003 18.3832 14.8913 18.0243 14.8913H17.3322C16.9732 14.8913 16.6822 15.1823 16.6822 15.5413V16.4586Z" fill="#626F84"/>
</svg>
