<svg width="24" height="24" viewBox="0 0 24 24" fill="none" xmlns="http://www.w3.org/2000/svg">
<path d="M11.4172 14.894V15.8888H12.0853C12.3601 15.8888 12.5828 15.6661 12.5828 15.3914C12.5828 15.1167 12.3601 14.894 12.0853 14.894H11.4172Z" fill="#626F84"/>
<path fill-rule="evenodd" clip-rule="evenodd" d="M5 6V11C3.34315 11 2 12.3431 2 14V18C2 19.6569 3.34315 21 5 21H19C20.6569 21 22 19.6569 22 18V14C22 12.3431 20.6569 11 19 11V9.17967C19 8.42148 18.7129 7.69141 18.1965 7.13629L15.2385 3.95662C14.671 3.34655 13.8752 3 13.042 3H8C6.34315 3 5 4.34315 5 6ZM8 4.3H13.042C13.1461 4.3 13.2491 4.30954 13.3499 4.32811V7.04926C13.3499 8.12621 14.223 8.99926 15.2999 8.99926L17.6904 8.99925C17.6968 9.05892 17.7 9.11913 17.7 9.17967V11H6.3V6C6.3 5.06112 7.06112 4.3 8 4.3ZM16.9447 7.69926L14.6499 5.23254V7.04926C14.6499 7.40824 14.9409 7.69926 15.2999 7.69926L16.9447 7.69926ZM11.4172 17.7613C11.4172 18.1203 11.1262 18.4113 10.7672 18.4113C10.4083 18.4113 10.1172 18.1203 10.1172 17.7613V14.244C10.1172 13.885 10.4083 13.594 10.7673 13.594H12.0853C13.078 13.594 13.8828 14.3987 13.8828 15.3914C13.8828 16.3841 13.078 17.1888 12.0853 17.1888H11.4172V17.7613ZM16.9322 14.8941C16.5732 14.8941 16.2822 15.1851 16.2822 15.5441V16.4613C16.2822 16.8203 16.5732 17.1113 16.9322 17.1113H17.2452C17.2728 17.1113 17.2952 17.0889 17.2952 17.0613V16.562C17.2952 16.203 17.5862 15.912 17.9452 15.912C18.3042 15.912 18.5952 16.203 18.5952 16.562V17.0613C18.5952 17.8069 17.9908 18.4113 17.2452 18.4113H16.9322C15.8552 18.4113 14.9822 17.5382 14.9822 16.4613V15.5441C14.9822 14.4671 15.8552 13.5941 16.9322 13.5941H17.9452C18.3042 13.5941 18.5952 13.8851 18.5952 14.2441C18.5952 14.6031 18.3042 14.8941 17.9452 14.8941H16.9322ZM8.63893 14.244C8.63893 13.885 8.34792 13.594 7.98893 13.594C7.62995 13.594 7.33893 13.885 7.33893 14.244V16.4613C7.33893 16.8203 7.04792 17.1113 6.68893 17.1113H6.05469C5.6957 17.1113 5.40469 17.4023 5.40469 17.7613C5.40469 18.1203 5.6957 18.4113 6.05469 18.4113H6.68893C7.76589 18.4113 8.63893 17.5383 8.63893 16.4613L8.63893 14.244Z" fill="#626F84"/>
</svg>
