<svg width="24" height="24" viewBox="0 0 24 24" fill="none" xmlns="http://www.w3.org/2000/svg">
<path d="M14.8823 18.4113C15.2413 18.4113 15.5323 18.1203 15.5323 17.7613V17.1942H16.0133C16.3723 17.1942 16.6633 16.9032 16.6633 16.5442C16.6633 16.1852 16.3723 15.8942 16.0133 15.8942H15.5323V14.894H16.6012C16.9602 14.894 17.2512 14.603 17.2512 14.244C17.2512 13.885 16.9602 13.594 16.6012 13.594H14.8823C14.5233 13.594 14.2323 13.885 14.2323 14.244V17.7613C14.2323 18.1203 14.5233 18.4113 14.8823 18.4113Z" fill="#626F84"/>
<path d="M9.82042 14.8941C10.1794 14.8941 10.4704 14.6031 10.4704 14.2441C10.4704 13.8851 10.1794 13.5941 9.82042 13.5941H8.615L8.60938 13.594L8.60375 13.5941H7.39844C7.03945 13.5941 6.74844 13.8851 6.74844 14.2441C6.74844 14.6031 7.03945 14.8941 7.39844 14.8941H7.95937V17.7613C7.95937 18.1203 8.25039 18.4113 8.60938 18.4113C8.96836 18.4113 9.25937 18.1203 9.25937 17.7613L9.25938 14.8941H9.82042Z" fill="#626F84"/>
<path d="M12.7706 14.2441C12.7706 13.8851 12.4796 13.5941 12.1206 13.5941C11.7616 13.5941 11.4706 13.8851 11.4706 14.2441V17.7613C11.4706 18.1203 11.7616 18.4113 12.1206 18.4113C12.4796 18.4113 12.7706 18.1203 12.7706 17.7613L12.7706 14.2441Z" fill="#626F84"/>
<path fill-rule="evenodd" clip-rule="evenodd" d="M5 11V6C5 4.34315 6.34315 3 8 3H13.042C13.8752 3 14.671 3.34655 15.2385 3.95662L18.1965 7.13629C18.7129 7.69141 19 8.42148 19 9.17967V11C20.6569 11 22 12.3431 22 14V18C22 19.6569 20.6569 21 19 21H5C3.34315 21 2 19.6569 2 18V14C2 12.3431 3.34315 11 5 11ZM13.042 4.3H8C7.06112 4.3 6.3 5.06112 6.3 6V11H17.7V9.17967C17.7 9.11913 17.6968 9.05892 17.6904 8.99925L15.2999 8.99926C14.223 8.99926 13.3499 8.12621 13.3499 7.04926V4.32811C13.2491 4.30954 13.1461 4.3 13.042 4.3ZM14.6499 5.23254V7.04926C14.6499 7.40824 14.9409 7.69926 15.2999 7.69926L16.9447 7.69926L14.6499 5.23254ZM5 12.3H19C19.9389 12.3 20.7 13.0611 20.7 14V18C20.7 18.9389 19.9389 19.7 19 19.7H5C4.06112 19.7 3.3 18.9389 3.3 18V14C3.3 13.0611 4.06112 12.3 5 12.3Z" fill="#626F84"/>
</svg>
