<svg width="24" height="24" viewBox="0 0 24 24" fill="none" xmlns="http://www.w3.org/2000/svg">
<path d="M6.68223 15.8861V14.8913H7.35032C7.62503 14.8913 7.84773 15.114 7.84773 15.3887C7.84773 15.6634 7.62503 15.8861 7.35032 15.8861H6.68223Z" fill="#626F84"/>
<path d="M12.3165 14.8913H11.6484V15.8861H12.3165C12.5912 15.8861 12.8139 15.6634 12.8139 15.3887C12.8139 15.114 12.5912 14.8913 12.3165 14.8913Z" fill="#626F84"/>
<path fill-rule="evenodd" clip-rule="evenodd" d="M22 14C22 12.3431 20.6569 11 19 11V9.17967C19 8.42148 18.7129 7.69141 18.1965 7.13629L15.2385 3.95662C14.671 3.34655 13.8752 3 13.042 3H8C6.34315 3 5 4.34315 5 6V11C3.34315 11 2 12.3431 2 14V18C2 19.6569 3.34315 21 5 21H19C20.6569 21 22 19.6569 22 18V14ZM8 4.3H13.042C13.1461 4.3 13.2491 4.30954 13.3499 4.32811V7.04926C13.3499 8.12621 14.223 8.99926 15.2999 8.99926L17.6904 8.99925C17.6968 9.05892 17.7 9.11913 17.7 9.17967V11H6.3V6C6.3 5.06112 7.06112 4.3 8 4.3ZM16.9447 7.69926L14.6499 5.23254V7.04926C14.6499 7.40824 14.9409 7.69926 15.2999 7.69926L16.9447 7.69926ZM6.03223 18.4086C6.39121 18.4086 6.68223 18.1176 6.68223 17.7586V17.1861H7.35032C8.343 17.1861 9.14773 16.3814 9.14773 15.3887C9.14773 14.3961 8.343 13.5913 7.35032 13.5913H6.03223C5.67324 13.5913 5.38223 13.8823 5.38223 14.2413L5.38223 17.7586C5.38223 18.1176 5.67324 18.4086 6.03223 18.4086ZM11.6484 17.7586C11.6484 18.1176 11.3574 18.4086 10.9984 18.4086C10.6394 18.4086 10.3484 18.1176 10.3484 17.7586V14.2413C10.3484 13.8823 10.6394 13.5913 10.9984 13.5913H12.3165C13.3091 13.5913 14.1139 14.3961 14.1139 15.3887C14.1139 16.3814 13.3091 17.1861 12.3165 17.1861H11.6484V17.7586ZM18.6173 14.2441C18.6173 14.6031 18.3263 14.8941 17.9673 14.8941H17.4064V17.7614C17.4064 18.1203 17.1154 18.4114 16.7564 18.4114C16.3974 18.4114 16.1064 18.1203 16.1064 17.7614L16.1064 14.8941H15.5453C15.1864 14.8941 14.8953 14.6031 14.8953 14.2441C14.8953 13.8851 15.1864 13.5941 15.5453 13.5941H17.9673C18.3263 13.5941 18.6173 13.8851 18.6173 14.2441Z" fill="#626F84"/>
</svg>
