<svg width="24" height="24" viewBox="0 0 24 24" fill="none" xmlns="http://www.w3.org/2000/svg">
<path fill-rule="evenodd" clip-rule="evenodd" d="M6.66776 6.35009C6.66776 4.69324 8.01091 3.3501 9.66776 3.3501H17.65C19.3069 3.3501 20.65 4.69324 20.65 6.3501V16.3655C20.65 18.0224 19.3069 19.3655 17.65 19.3655H9.66776C8.01091 19.3655 6.66776 18.0224 6.66776 16.3655V6.35009ZM10.9973 9.57172C10.8582 9.48317 10.5844 9.44346 10.3247 9.53905C9.98778 9.66303 9.61417 9.49042 9.49019 9.15353C9.36621 8.81663 9.53881 8.44302 9.87571 8.31904C10.4541 8.10617 11.1619 8.13554 11.6953 8.475C11.9735 8.65208 12.2105 8.92019 12.3256 9.27962C12.4402 9.63745 12.4146 10.0248 12.2784 10.4108C12.1569 10.7549 12.0068 11.1744 11.8486 11.6061L12.7078 10.9529C12.952 10.7673 13.2927 10.7777 13.5252 10.9778L14.2212 11.5768C14.2991 11.4279 14.3896 11.2681 14.4963 11.1136C14.8237 10.6393 15.332 10.1776 16.156 10.1135C16.9677 10.0504 17.5266 10.414 17.8609 10.7842C18.0227 10.9635 18.1329 11.1437 18.2029 11.2784C18.2383 11.3465 18.2647 11.4052 18.283 11.4495C18.2922 11.4717 18.2995 11.4904 18.305 11.5052L18.3119 11.5242L18.3144 11.5314L18.3154 11.5344L18.3159 11.5357C18.316 11.536 18.3163 11.5369 17.723 11.7365L18.3163 11.5369C18.4308 11.8772 18.2477 12.2458 17.9075 12.3602C17.5696 12.4739 17.2037 12.2942 17.0866 11.9584L17.0821 11.9472C17.0763 11.9332 17.0656 11.909 17.0495 11.8781C17.0166 11.8148 16.9659 11.7328 16.896 11.6554C16.7667 11.5122 16.5787 11.3846 16.2568 11.4096C15.9471 11.4337 15.7527 11.582 15.5661 11.8521C15.4665 11.9965 15.379 12.1631 15.2844 12.3549L15.2389 12.4478C15.162 12.6054 15.073 12.788 14.9788 12.9439C14.8798 13.1076 14.7138 13.2194 14.5249 13.2496C14.336 13.2797 14.1434 13.2251 13.9984 13.1003L13.0758 12.3062L10.79 14.0436C10.5523 14.2243 10.2221 14.2198 9.98937 14.0327C9.75667 13.8457 9.68135 13.5241 9.80674 13.2532C10.1028 12.6135 10.6882 11.0105 11.0525 9.97816C11.1152 9.80052 11.0982 9.7093 11.0875 9.67598C11.0773 9.64427 11.0553 9.60864 10.9973 9.57172ZM5.36311 9.35214C5.36311 8.99316 5.0721 8.70214 4.71311 8.70214C4.35413 8.70214 4.06311 8.99316 4.06311 9.35214V18.8131C4.06311 20.5528 5.47342 21.9631 7.21311 21.9631H15.6564C16.0154 21.9631 16.3064 21.6721 16.3064 21.3131C16.3064 20.9541 16.0154 20.6631 15.6564 20.6631H7.21311C6.19138 20.6631 5.36311 19.8348 5.36311 18.8131V9.35214Z" fill="#626F84"/>
</svg>
