<svg width="24" height="24" viewBox="0 0 24 24" fill="none" xmlns="http://www.w3.org/2000/svg">
<path d="M11.7062 17.1086L11.7062 14.8913H12.2217C12.5807 14.8913 12.8717 15.1823 12.8717 15.5413V16.4586C12.8717 16.8176 12.5807 17.1086 12.2217 17.1086H11.7062Z" fill="#626F84"/>
<path d="M6.73984 14.8913V15.8861H7.40794C7.68265 15.8861 7.90534 15.6634 7.90534 15.3887C7.90534 15.114 7.68265 14.8913 7.40794 14.8913H6.73984Z" fill="#626F84"/>
<path fill-rule="evenodd" clip-rule="evenodd" d="M22 14C22 12.3431 20.6569 11 19 11V9.17967C19 8.42148 18.7129 7.69141 18.1965 7.13629L15.2385 3.95662C14.671 3.34655 13.8752 3 13.042 3H8C6.34315 3 5 4.34315 5 6V11C3.34315 11 2 12.3431 2 14V18C2 19.6569 3.34315 21 5 21H19C20.6569 21 22 19.6569 22 18V14ZM8 4.3H13.042C13.1461 4.3 13.2491 4.30954 13.3499 4.32811V7.04926C13.3499 8.12621 14.223 8.99926 15.2999 8.99926L17.6904 8.99925C17.6968 9.05892 17.7 9.11913 17.7 9.17967V11H6.3V6C6.3 5.06112 7.06112 4.3 8 4.3ZM16.9447 7.69926L14.6499 5.23254V7.04926C14.6499 7.40824 14.9409 7.69926 15.2999 7.69926L16.9447 7.69926ZM10.5966 18.2182C10.7185 18.3401 10.8838 18.4086 11.0562 18.4086H12.2217C13.2987 18.4086 14.1717 17.5356 14.1717 16.4586V15.5413C14.1717 14.4644 13.2987 13.5913 12.2217 13.5913H11.0562C10.8838 13.5913 10.7185 13.6598 10.5966 13.7817C10.4747 13.9036 10.4062 14.0689 10.4062 14.2413V17.7586C10.4062 17.931 10.4747 18.0963 10.5966 18.2182ZM16.8415 17.7587C16.8415 18.1177 16.5505 18.4087 16.1915 18.4087C15.8325 18.4087 15.5415 18.1177 15.5415 17.7587V14.2414C15.5415 13.8824 15.8325 13.5914 16.1915 13.5914H17.9104C18.2693 13.5914 18.5604 13.8824 18.5604 14.2414C18.5604 14.6004 18.2693 14.8914 17.9104 14.8914H16.8415V15.8915H17.3224C17.6814 15.8915 17.9724 16.1825 17.9724 16.5415C17.9724 16.9005 17.6814 17.1915 17.3224 17.1915H16.8415V17.7587ZM6.73984 17.7586C6.73984 18.1176 6.44883 18.4086 6.08984 18.4086C5.73086 18.4086 5.43984 18.1176 5.43984 17.7586L5.43984 14.2413C5.43984 13.8823 5.73086 13.5913 6.08984 13.5913H7.40794C8.40062 13.5913 9.20534 14.3961 9.20534 15.3887C9.20534 16.3814 8.40062 17.1861 7.40794 17.1861H6.73984V17.7586Z" fill="#626F84"/>
</svg>
