<svg width="24" height="24" viewBox="0 0 24 24" fill="none" xmlns="http://www.w3.org/2000/svg">
<path fill-rule="evenodd" clip-rule="evenodd" d="M5.51597 18.2182C5.63787 18.3401 5.8032 18.4086 5.97559 18.4086H7.14109C8.21804 18.4086 9.09109 17.5356 9.09109 16.4586V15.5413C9.09109 14.4644 8.21804 13.5913 7.14109 13.5913H5.97559C5.8032 13.5913 5.63787 13.6598 5.51597 13.7817C5.39407 13.9036 5.32559 14.0689 5.32559 14.2413L5.32559 17.7586C5.32559 17.931 5.39407 18.0963 5.51597 18.2182ZM6.62559 17.1086V14.8913H7.14109C7.50007 14.8913 7.79109 15.1823 7.79109 15.5413V16.4586C7.79109 16.8176 7.50007 17.1086 7.14109 17.1086H6.62559Z" fill="#626F84"/>
<path fill-rule="evenodd" clip-rule="evenodd" d="M12.2279 18.4086C11.1881 18.4086 10.3451 17.5657 10.3451 16.5259V15.4741C10.3451 14.4343 11.1881 13.5913 12.2279 13.5913C13.2677 13.5913 14.1106 14.4343 14.1106 15.4741V16.5259C14.1106 17.5657 13.2677 18.4086 12.2279 18.4086ZM11.6451 16.5259C11.6451 16.8477 11.906 17.1086 12.2279 17.1086C12.5497 17.1086 12.8106 16.8477 12.8106 16.5259V15.4741C12.8106 15.1522 12.5497 14.8913 12.2279 14.8913C11.906 14.8913 11.6451 15.1522 11.6451 15.4741V16.5259Z" fill="#626F84"/>
<path d="M17.3322 17.1086C16.9732 17.1086 16.6822 16.8176 16.6822 16.4586V15.5413C16.6822 15.1823 16.9732 14.8913 17.3322 14.8913H18.0243C18.3832 14.8913 18.6743 14.6003 18.6743 14.2413C18.6743 13.8823 18.3832 13.5913 18.0243 13.5913H17.3322C16.2553 13.5913 15.3822 14.4644 15.3822 15.5413V16.4586C15.3822 17.5356 16.2553 18.4086 17.3322 18.4086H18.0243C18.3832 18.4086 18.6743 18.1176 18.6743 17.7586C18.6743 17.3996 18.3832 17.1086 18.0243 17.1086H17.3322Z" fill="#626F84"/>
<path fill-rule="evenodd" clip-rule="evenodd" d="M5 11V6C5 4.34315 6.34315 3 8 3H13.042C13.8752 3 14.671 3.34655 15.2385 3.95662L18.1965 7.13629C18.7129 7.69141 19 8.42148 19 9.17967V11C20.6569 11 22 12.3431 22 14V18C22 19.6569 20.6569 21 19 21H5C3.34315 21 2 19.6569 2 18V14C2 12.3431 3.34315 11 5 11ZM13.042 4.3H8C7.06112 4.3 6.3 5.06112 6.3 6V11H17.7V9.17967C17.7 9.11913 17.6968 9.05892 17.6904 8.99925L15.2999 8.99926C14.223 8.99926 13.3499 8.12621 13.3499 7.04926V4.32811C13.2491 4.30954 13.1461 4.3 13.042 4.3ZM14.6499 5.23254V7.04926C14.6499 7.40824 14.9409 7.69926 15.2999 7.69926L16.9447 7.69926L14.6499 5.23254ZM5 12.3H19C19.9389 12.3 20.7 13.0611 20.7 14V18C20.7 18.9389 19.9389 19.7 19 19.7H5C4.06112 19.7 3.3 18.9389 3.3 18V14C3.3 13.0611 4.06112 12.3 5 12.3Z" fill="#626F84"/>
</svg>
