<svg width="24" height="24" viewBox="0 0 24 24" fill="none" xmlns="http://www.w3.org/2000/svg">
<path fill-rule="evenodd" clip-rule="evenodd" d="M6.66776 6.35009C6.66776 4.69324 8.01091 3.3501 9.66776 3.3501H17.65C19.3069 3.3501 20.65 4.69324 20.65 6.3501V16.3655C20.65 18.0224 19.3069 19.3655 17.65 19.3655H9.66776C8.01091 19.3655 6.66776 18.0224 6.66776 16.3655V6.35009ZM11.5111 9.31573C11.7952 9.53512 11.8477 9.94332 11.6284 10.2275L10.7687 11.3409L11.634 12.4956C11.8493 12.7828 11.7909 13.1902 11.5037 13.4055C11.2164 13.6208 10.809 13.5624 10.5937 13.2752L9.43191 11.7248C9.2567 11.491 9.25902 11.169 9.43757 10.9378L10.5994 9.433C10.8188 9.14885 11.227 9.09635 11.5111 9.31573ZM15.7399 12.4881C15.5205 12.7723 15.573 13.1805 15.8572 13.3998C16.1413 13.6192 16.5495 13.5667 16.7689 13.2826L17.9307 11.7778C18.1093 11.5466 18.1116 11.2246 17.9364 10.9908L16.7746 9.44043C16.5593 9.15315 16.1519 9.09479 15.8646 9.31006C15.5774 9.52534 15.519 9.93274 15.7343 10.22L16.5996 11.3747L15.7399 12.4881ZM14.3044 9.08817C14.6514 9.17991 14.8584 9.53564 14.7666 9.8827L13.8966 13.1739C13.8049 13.521 13.4492 13.728 13.1021 13.6362C12.755 13.5445 12.5481 13.1887 12.6398 12.8417L13.5098 9.55047C13.6016 9.2034 13.9573 8.99642 14.3044 9.08817ZM5.36311 9.35214C5.36311 8.99316 5.0721 8.70214 4.71311 8.70214C4.35413 8.70214 4.06311 8.99316 4.06311 9.35214V18.8131C4.06311 20.5528 5.47342 21.9631 7.21311 21.9631H15.6564C16.0154 21.9631 16.3064 21.6721 16.3064 21.3131C16.3064 20.9541 16.0154 20.6631 15.6564 20.6631H7.21311C6.19138 20.6631 5.36311 19.8348 5.36311 18.8131V9.35214Z" fill="#626F84"/>
</svg>
