<svg width="24" height="24" viewBox="0 0 24 24" fill="none" xmlns="http://www.w3.org/2000/svg">
<path fill-rule="evenodd" clip-rule="evenodd" d="M10.7672 18.4113C11.1262 18.4113 11.4172 18.1203 11.4172 17.7613V17.1888H12.0853C13.078 17.1888 13.8828 16.3841 13.8828 15.3914C13.8828 14.3987 13.078 13.594 12.0853 13.594H10.7673C10.4083 13.594 10.1172 13.885 10.1172 14.244V17.7613C10.1172 18.1203 10.4083 18.4113 10.7672 18.4113ZM11.4172 15.8888V14.894H12.0853C12.3601 14.894 12.5828 15.1167 12.5828 15.3914C12.5828 15.6661 12.3601 15.8888 12.0853 15.8888H11.4172Z" fill="#717681"/>
<path d="M16.2822 15.5441C16.2822 15.1851 16.5732 14.8941 16.9322 14.8941H17.9452C18.3042 14.8941 18.5952 14.6031 18.5952 14.2441C18.5952 13.8851 18.3042 13.5941 17.9452 13.5941H16.9322C15.8552 13.5941 14.9822 14.4671 14.9822 15.5441V16.4613C14.9822 17.5382 15.8552 18.4113 16.9322 18.4113H17.2452C17.9908 18.4113 18.5952 17.8069 18.5952 17.0613V16.562C18.5952 16.203 18.3042 15.912 17.9452 15.912C17.5862 15.912 17.2952 16.203 17.2952 16.562V17.0613C17.2952 17.0889 17.2728 17.1113 17.2452 17.1113H16.9322C16.5732 17.1113 16.2822 16.8203 16.2822 16.4613V15.5441Z" fill="#717681"/>
<path d="M7.98893 13.594C8.34792 13.594 8.63893 13.885 8.63893 14.244L8.63893 16.4613C8.63893 17.5383 7.76589 18.4113 6.68893 18.4113H6.05469C5.6957 18.4113 5.40469 18.1203 5.40469 17.7613C5.40469 17.4023 5.6957 17.1113 6.05469 17.1113H6.68893C7.04792 17.1113 7.33893 16.8203 7.33893 16.4613V14.244C7.33893 13.885 7.62995 13.594 7.98893 13.594Z" fill="#717681"/>
<path fill-rule="evenodd" clip-rule="evenodd" d="M5 11V6C5 4.34315 6.34315 3 8 3H13.042C13.8752 3 14.671 3.34655 15.2385 3.95662L18.1965 7.13629C18.7129 7.69141 19 8.42148 19 9.17967V11C20.6569 11 22 12.3431 22 14V18C22 19.6569 20.6569 21 19 21H5C3.34315 21 2 19.6569 2 18V14C2 12.3431 3.34315 11 5 11ZM13.042 4.3H8C7.06112 4.3 6.3 5.06112 6.3 6V11H17.7V9.17967C17.7 9.11913 17.6968 9.05892 17.6904 8.99925L15.2999 8.99926C14.223 8.99926 13.3499 8.12621 13.3499 7.04926V4.32811C13.2491 4.30954 13.1461 4.3 13.042 4.3ZM14.6499 5.23254V7.04926C14.6499 7.40824 14.9409 7.69926 15.2999 7.69926L16.9447 7.69926L14.6499 5.23254ZM5 12.3H19C19.9389 12.3 20.7 13.0611 20.7 14V18C20.7 18.9389 19.9389 19.7 19 19.7H5C4.06112 19.7 3.3 18.9389 3.3 18V14C3.3 13.0611 4.06112 12.3 5 12.3Z" fill="#717681"/>
</svg>
