<svg width="24" height="24" viewBox="0 0 24 24" fill="none" xmlns="http://www.w3.org/2000/svg">
<path fill-rule="evenodd" clip-rule="evenodd" d="M17.65 4.6501H9.66776C8.72888 4.6501 7.96776 5.41121 7.96776 6.35009V16.3655C7.96776 17.3044 8.72888 18.0655 9.66776 18.0655H17.65C18.5889 18.0655 19.35 17.3044 19.35 16.3655V6.3501C19.35 5.41121 18.5889 4.6501 17.65 4.6501ZM9.66776 3.3501C8.01091 3.3501 6.66776 4.69324 6.66776 6.35009V16.3655C6.66776 18.0224 8.01091 19.3655 9.66776 19.3655H17.65C19.3069 19.3655 20.65 18.0224 20.65 16.3655V6.3501C20.65 4.69324 19.3069 3.3501 17.65 3.3501H9.66776ZM4.71311 8.70214C5.0721 8.70214 5.36311 8.99316 5.36311 9.35214V18.8131C5.36311 19.8348 6.19138 20.6631 7.21311 20.6631H15.6564C16.0154 20.6631 16.3064 20.9541 16.3064 21.3131C16.3064 21.6721 16.0154 21.9631 15.6564 21.9631H7.21311C5.47342 21.9631 4.06311 20.5528 4.06311 18.8131V9.35214C4.06311 8.99316 4.35413 8.70214 4.71311 8.70214ZM10.3375 9.53418C10.5616 9.44631 10.792 9.48476 10.9049 9.56133C10.9509 9.59251 10.9735 9.62555 10.9853 9.66484C10.998 9.70716 11.0127 9.80744 10.9522 9.99011C10.6104 11.0221 10.0605 12.6264 9.78221 13.2672C9.66293 13.5419 9.7467 13.8625 9.9851 14.0437C10.2235 14.2248 10.5548 14.2197 10.7875 14.0313L12.8903 12.3282L13.7174 13.0867C13.8634 13.2206 14.0624 13.2806 14.258 13.2498C14.4536 13.2189 14.6245 13.1006 14.7222 12.9284C14.8102 12.7731 14.8935 12.5912 14.9657 12.4336L15.0085 12.3404C15.0974 12.1483 15.1798 11.9811 15.2736 11.8363C15.452 11.5609 15.6259 11.4308 15.8847 11.4093C16.1533 11.3871 16.3138 11.4969 16.4351 11.64C16.5001 11.7167 16.5479 11.7988 16.5794 11.8633C16.5947 11.8947 16.605 11.9194 16.6106 11.934L16.6152 11.9463C16.7258 12.2846 17.0885 12.4714 17.4287 12.364C17.771 12.2559 17.9609 11.8908 17.8528 11.5485L17.233 11.7442C17.8528 11.5485 17.8528 11.5482 17.8527 11.5479L17.8525 11.5473L17.8521 11.546L17.8511 11.5432L17.8489 11.5362L17.8425 11.5176C17.8374 11.5031 17.8307 11.4846 17.8222 11.4627C17.8052 11.419 17.7807 11.3608 17.7477 11.2932C17.6826 11.1597 17.5794 10.9795 17.4269 10.7996C17.1131 10.4293 16.5727 10.0479 15.7773 10.1138C14.9721 10.1805 14.4864 10.6604 14.1826 11.1295C14.0947 11.2651 14.0184 11.4048 13.9517 11.5377L13.356 10.9914C13.1187 10.7737 12.7578 10.7627 12.5076 10.9653L11.8028 11.5361C11.9439 11.1251 12.0773 10.7276 12.1862 10.3988C12.3124 10.0179 12.3351 9.63959 12.2303 9.29077C12.1246 8.93891 11.9041 8.66821 11.6345 8.48539C11.1163 8.13395 10.4255 8.10332 9.86291 8.3239C9.5287 8.45495 9.36401 8.83211 9.49505 9.16632C9.6261 9.50053 10.0033 9.66523 10.3375 9.53418Z" fill="#626F84"/>
</svg>
