<svg width="24" height="24" viewBox="0 0 24 24" fill="none" xmlns="http://www.w3.org/2000/svg">
<path fill-rule="evenodd" clip-rule="evenodd" d="M5 6V11C3.34315 11 2 12.3431 2 14V18C2 19.6569 3.34315 21 5 21H19C20.6569 21 22 19.6569 22 18V14C22 12.3431 20.6569 11 19 11V9.17967C19 8.42148 18.7129 7.69141 18.1965 7.13629L15.2385 3.95662C14.671 3.34655 13.8752 3 13.042 3H8C6.34315 3 5 4.34315 5 6ZM8 4.3H13.042C13.1461 4.3 13.2491 4.30954 13.3499 4.32811V7.04926C13.3499 8.12621 14.223 8.99926 15.2999 8.99926L17.6904 8.99925C17.6968 9.05892 17.7 9.11913 17.7 9.17967V11H6.3V6C6.3 5.06112 7.06112 4.3 8 4.3ZM16.9447 7.69926L14.6499 5.23254V7.04926C14.6499 7.40824 14.9409 7.69926 15.2999 7.69926L16.9447 7.69926ZM17.6891 17.7593C17.6891 18.1183 17.398 18.4093 17.0391 18.4093C16.6801 18.4093 16.3891 18.1183 16.3891 17.7593V14.2434C16.3891 13.8845 16.6801 13.5934 17.0391 13.5934H18.7518C19.1108 13.5934 19.4018 13.8845 19.4018 14.2434C19.4018 14.6024 19.1108 14.8934 18.7518 14.8934H17.6891V15.8936H18.17C18.529 15.8936 18.82 16.1846 18.82 16.5436C18.82 16.9026 18.529 17.1936 18.17 17.1936H17.6891V17.7593ZM12.7324 18.4093C13.0914 18.4093 13.3824 18.1183 13.3824 17.7593V17.1936H13.8634C14.2224 17.1936 14.5134 16.9026 14.5134 16.5436C14.5134 16.1846 14.2224 15.8936 13.8634 15.8936H13.3824V14.8934H14.4513C14.8103 14.8934 15.1013 14.6024 15.1013 14.2434C15.1013 13.8845 14.8103 13.5934 14.4513 13.5934H12.7324C12.3734 13.5934 12.0824 13.8845 12.0824 14.2434V17.7593C12.0824 18.1183 12.3734 18.4093 12.7324 18.4093ZM7.67052 14.8935C8.02951 14.8935 8.32052 14.6025 8.32052 14.2435C8.32052 13.8845 8.02951 13.5935 7.67052 13.5935H6.46507L6.45947 13.5935L6.45387 13.5935H5.24854C4.88955 13.5935 4.59854 13.8845 4.59854 14.2435C4.59854 14.6025 4.88955 14.8935 5.24854 14.8935H5.80947V17.7593C5.80947 18.1183 6.10049 18.4093 6.45947 18.4093C6.81846 18.4093 7.10947 18.1183 7.10947 17.7593L7.10947 14.8935H7.67052ZM9.9707 13.5935C10.3297 13.5935 10.6207 13.8845 10.6207 14.2435V17.7593C10.6207 18.1183 10.3297 18.4093 9.9707 18.4093C9.61172 18.4093 9.3207 18.1183 9.3207 17.7593V14.2435C9.3207 13.8845 9.61172 13.5935 9.9707 13.5935Z" fill="#626F84"/>
</svg>
