<svg width="24" height="24" viewBox="0 0 24 24" fill="none" xmlns="http://www.w3.org/2000/svg">
<path fill-rule="evenodd" clip-rule="evenodd" d="M20 18.6037C20 19.3217 19.418 19.9037 18.7 19.9037H5.3C4.58203 19.9037 4 19.3217 4 18.6037V5.31358C4 4.59561 4.58203 4.01358 5.30001 4.01358L9.45618 4.0136C10.1871 4.01361 10.8929 4.28048 11.441 4.76409L12.7676 5.93458C13.3157 6.4182 14.0215 6.68508 14.7525 6.68508H18.7C19.418 6.68508 20 7.26711 20 7.98508V18.6037ZM5.3 8.81942C5.3 8.81942 5.3 8.81942 5.3 8.81942L8.83805 8.81944C9.569 8.81944 10.2748 9.08632 10.8229 9.56993L12.1494 10.7404C12.6975 11.224 13.4034 11.4909 14.1343 11.4909H18.7V7.98508H14.7525C13.7047 7.98508 12.6931 7.60256 11.9075 6.90937L10.5809 5.73888C10.2703 5.46483 9.87038 5.31361 9.45617 5.3136L5.3 5.31358V8.81942Z" fill="#626F84"/>
</svg>
