<svg width="24" height="24" viewBox="0 0 24 24" fill="none" xmlns="http://www.w3.org/2000/svg">
<path fill-rule="evenodd" clip-rule="evenodd" d="M9.29275 8.14996C9.29275 9.53067 10.412 10.65 11.7927 10.65C13.1735 10.65 14.2927 9.53067 14.2927 8.14996C14.2927 6.76925 13.1735 5.64996 11.7927 5.64996C10.412 5.64996 9.29275 6.76925 9.29275 8.14996ZM10.5927 8.14996C10.5927 8.81271 11.13 9.34996 11.7927 9.34996C12.4555 9.34996 12.9927 8.81271 12.9927 8.14996C12.9927 7.48722 12.4555 6.94996 11.7927 6.94996C11.13 6.94996 10.5927 7.48722 10.5927 8.14996Z" fill="#626F84"/>
<path fill-rule="evenodd" clip-rule="evenodd" d="M20.65 6C20.65 4.34315 19.3069 3 17.65 3H9.65C7.99314 3 6.65 4.34315 6.65 6V16C6.65 17.6569 7.99314 19 9.65 19H9.65123L9.65 19.002H17.65C19.3069 19.002 20.65 17.6589 20.65 16.002V6ZM18.6452 11.2897L19.35 12.3092V6C19.35 5.06112 18.5888 4.3 17.65 4.3H9.64995C8.71107 4.3 7.94995 5.06112 7.94995 6V16C7.94995 16.9389 8.71107 17.7 9.64995 17.7H10.4456L14.288 11.4125C15.2686 9.8079 17.5757 9.74288 18.6452 11.2897ZM17.65 17.7C18.5888 17.7 19.35 16.9389 19.35 16V14.5951L17.5758 12.029C17.0411 11.2556 15.8875 11.2881 15.3972 12.0904L11.9692 17.7H17.65Z" fill="#626F84"/>
<path d="M4.65 8.35C4.29101 8.35 4 8.64102 4 9V18.4C4 20.1949 5.45507 21.65 7.25 21.65H15.65C16.009 21.65 16.3 21.359 16.3 21C16.3 20.641 16.009 20.35 15.65 20.35H7.25C6.17304 20.35 5.3 19.477 5.3 18.4V9C5.3 8.64102 5.00898 8.35 4.65 8.35Z" fill="#626F84"/>
</svg>
