<svg width="24" height="24" viewBox="0 0 24 24" fill="none" xmlns="http://www.w3.org/2000/svg">
<path d="M6.00269 5.71344C4.34583 5.71344 3.00269 7.05659 3.00269 8.71344V17.9972C3.00269 19.6541 4.34583 20.9972 6.00269 20.9972H12.7526C14.4094 20.9972 15.7526 19.6541 15.7526 17.9972V8.71344C15.7526 7.05659 14.4094 5.71344 12.7526 5.71344H6.00269Z" fill="#626F84"/>
<path d="M20.0504 10.5405C19.7966 10.7943 19.385 10.7943 19.1312 10.5405L17.3654 8.77475C17.1116 8.52091 17.1116 8.10935 17.3654 7.85551C17.6193 7.60167 18.0308 7.60167 18.2847 7.85551L18.9408 8.51158C18.938 5.64189 16.6108 3.3164 13.7405 3.3164C13.3815 3.3164 13.0905 3.02539 13.0905 2.6664C13.0905 2.30742 13.3815 2.0164 13.7405 2.0164C17.3288 2.0164 20.238 4.92396 20.2408 8.51166L20.8969 7.85551C21.1507 7.60167 21.5623 7.60167 21.8161 7.85551C22.07 8.10935 22.07 8.52091 21.8161 8.77475L20.0504 10.5405Z" fill="#626F84"/>
</svg>
