<svg width="24" height="24" viewBox="0 0 24 24" fill="none" xmlns="http://www.w3.org/2000/svg">
<path d="M6.00269 5.69704C4.34583 5.69704 3.00269 7.04018 3.00269 8.69704V17.9972C3.00269 19.6541 4.34583 20.9972 6.00269 20.9972H12.7526C14.4094 20.9972 15.7526 19.6541 15.7526 17.9972V8.69704C15.7526 7.04018 14.4094 5.69704 12.7526 5.69704H6.00269Z" fill="#717681"/>
<path d="M20.0504 10.5241C19.7966 10.7779 19.385 10.7779 19.1312 10.5241L17.3654 8.75835C17.1116 8.50451 17.1116 8.09295 17.3654 7.83911C17.6193 7.58527 18.0308 7.58527 18.2847 7.83911L18.9408 8.49518C18.938 5.62549 16.6108 3.3 13.7405 3.3C13.3815 3.3 13.0905 3.00898 13.0905 2.65C13.0905 2.29101 13.3815 2 13.7405 2C17.3288 2 20.238 4.90755 20.2408 8.49525L20.8969 7.83911C21.1507 7.58527 21.5623 7.58527 21.8161 7.83911C22.07 8.09295 22.07 8.50451 21.8161 8.75835L20.0504 10.5241Z" fill="#717681"/>
</svg>
