<svg width="24" height="24" viewBox="0 0 24 24" fill="none" xmlns="http://www.w3.org/2000/svg">
<path fill-rule="evenodd" clip-rule="evenodd" d="M22.0065 9.69981C22.0065 8.04295 20.6634 6.69981 19.0065 6.69981H12.2566C10.5998 6.69981 9.25665 8.04295 9.25665 9.69981L9.25665 18.9836C9.25665 20.6404 10.5998 21.9836 12.2566 21.9836L19.0065 21.9836C20.6634 21.9836 22.0065 20.6405 22.0065 18.9836L22.0065 9.69981ZM19.0065 7.99981L12.2566 7.99981C11.3178 7.99981 10.5566 8.76092 10.5566 9.69981L10.5566 18.9836C10.5566 19.9225 11.3178 20.6836 12.2566 20.6836L19.0065 20.6836C19.9454 20.6836 20.7065 19.9225 20.7065 18.9836L20.7065 9.69981C20.7065 8.76092 19.9454 7.99981 19.0065 7.99981Z" fill="#626F84"/>
<path d="M4.95879 11.5268C5.21264 11.7807 5.62419 11.7807 5.87803 11.5268L7.64376 9.76112C7.8976 9.50728 7.8976 9.09572 7.64376 8.84188C7.38992 8.58804 6.97836 8.58804 6.72452 8.84188L6.06845 9.49795C6.07122 6.62826 8.39841 4.30277 11.2688 4.30277C11.6277 4.30277 11.9188 4.01175 11.9188 3.65277C11.9188 3.29378 11.6277 3.00277 11.2688 3.00277C7.68042 3.00277 4.77118 5.91033 4.76845 9.49803L4.11231 8.84188C3.85846 8.58804 3.44691 8.58804 3.19307 8.84188C2.93923 9.09572 2.93923 9.50728 3.19307 9.76112L4.95879 11.5268Z" fill="#626F84"/>
</svg>
