<svg width="24" height="24" viewBox="0 0 24 24" fill="none" xmlns="http://www.w3.org/2000/svg">
<path fill-rule="evenodd" clip-rule="evenodd" d="M22 8.71621C22 7.05936 20.6569 5.71621 19 5.71621H12.2731C10.6163 5.71621 9.27313 7.05935 9.27313 8.71621V18C9.27313 19.6569 10.6163 21 12.2731 21H19C20.6569 21 22 19.6569 22 18V8.71621ZM19 7.01621H12.2731C11.3342 7.01621 10.5731 7.77732 10.5731 8.71621V18C10.5731 18.9389 11.3342 19.7 12.2731 19.7H19C19.9389 19.7 20.7 18.9389 20.7 18V8.71621C20.7 7.77732 19.9389 7.01621 19 7.01621Z" fill="#626F84"/>
<path d="M4.95611 10.5241C5.20995 10.7779 5.62151 10.7779 5.87535 10.5241L7.64108 8.75835C7.89492 8.50451 7.89492 8.09295 7.64108 7.83911C7.38724 7.58527 6.97568 7.58527 6.72184 7.83911L6.06577 8.49518C6.06853 5.62549 8.39573 3.3 11.2661 3.3C11.6251 3.3 11.9161 3.00898 11.9161 2.65C11.9161 2.29101 11.6251 2 11.2661 2C7.67773 2 4.76849 4.90756 4.76577 8.49526L4.10962 7.83911C3.85578 7.58527 3.44422 7.58527 3.19038 7.83911C2.93654 8.09295 2.93654 8.50451 3.19038 8.75835L4.95611 10.5241Z" fill="#626F84"/>
</svg>
