<svg width="24" height="24" viewBox="0 0 24 24" fill="none" xmlns="http://www.w3.org/2000/svg">
<path fill-rule="evenodd" clip-rule="evenodd" d="M3.00269 8.69981C3.00269 7.04295 4.34583 5.69981 6.00269 5.69981H12.7526C14.4094 5.69981 15.7526 7.04295 15.7526 8.69981L15.7526 18C15.7526 19.6569 14.4095 21 12.7526 21H6.00273C4.34588 21 3.00273 19.6569 3.00273 18L3.00269 8.69981ZM6.00269 6.99981H12.7526C13.6914 6.99981 14.4526 7.76092 14.4526 8.69981L14.4526 18C14.4526 18.9389 13.6915 19.7 12.7526 19.7H6.00273C5.06385 19.7 4.30273 18.9389 4.30273 18L4.30269 8.69981C4.30269 7.76092 5.0638 6.99981 6.00269 6.99981Z" fill="#626F84"/>
<path d="M20.0504 10.5268C19.7966 10.7807 19.385 10.7807 19.1312 10.5268L17.3654 8.76112C17.1116 8.50728 17.1116 8.09572 17.3654 7.84188C17.6193 7.58804 18.0308 7.58804 18.2847 7.84188L18.9408 8.49795C18.938 5.62826 16.6108 3.30277 13.7405 3.30277C13.3815 3.30277 13.0905 3.01175 13.0905 2.65277C13.0905 2.29378 13.3815 2.00277 13.7405 2.00277C17.3288 2.00277 20.238 4.91033 20.2408 8.49803L20.8969 7.84188C21.1507 7.58804 21.5623 7.58804 21.8161 7.84188C22.07 8.09572 22.07 8.50728 21.8161 8.76112L20.0504 10.5268Z" fill="#626F84"/>
</svg>
