<svg width="24" height="24" viewBox="0 0 24 24" fill="none" xmlns="http://www.w3.org/2000/svg">
<path fill-rule="evenodd" clip-rule="evenodd" d="M13.4949 4.3H7.00002C6.06114 4.3 5.30002 5.06112 5.30002 6V11.35H18.7V9.29679C18.7 9.19632 18.6911 9.0968 18.6738 8.99928L15.9528 8.99929C14.8758 8.99929 14.0028 8.12625 14.0028 7.04929V4.37763C13.8398 4.3266 13.6687 4.3 13.4949 4.3ZM15.3028 5.36659V7.04929C15.3028 7.40827 15.5938 7.69929 15.9528 7.69929L17.7829 7.69929L15.3028 5.36659ZM20 11.35V9.29679C20 8.46927 19.6582 7.67849 19.0554 7.11153L15.5503 3.81474C14.9939 3.29139 14.2588 3 13.4949 3H7.00002C5.34317 3 4.00002 4.34315 4.00002 6V11.35H2.60923C2.25024 11.35 1.95923 11.641 1.95923 12C1.95923 12.359 2.25024 12.65 2.60923 12.65H21.3909C21.7499 12.65 22.0409 12.359 22.0409 12C22.0409 11.641 21.7499 11.35 21.3909 11.35H20ZM4.65002 13.9444C5.00901 13.9444 5.30002 14.2355 5.30002 14.5944V18C5.30002 18.9389 6.06114 19.7 7.00002 19.7H17C17.9389 19.7 18.7 18.9389 18.7 18V14.5944C18.7 14.2355 18.991 13.9444 19.35 13.9444C19.709 13.9444 20 14.2355 20 14.5944V18C20 19.6569 18.6569 21 17 21H7.00002C5.34317 21 4.00002 19.6569 4.00002 18V14.5944C4.00002 14.2355 4.29104 13.9444 4.65002 13.9444Z" fill="#626F84"/>
</svg>
