<svg width="24" height="24" viewBox="0 0 24 24" fill="none" xmlns="http://www.w3.org/2000/svg">
<path fill-rule="evenodd" clip-rule="evenodd" d="M6.99999 3C5.34313 3 3.99999 4.34315 3.99999 6V11.35H2.64866C2.28967 11.35 1.99866 11.641 1.99866 12C1.99866 12.359 2.28967 12.65 2.64866 12.65L21.3513 12.65C21.7103 12.65 22.0013 12.359 22.0013 12C22.0013 11.641 21.7103 11.35 21.3513 11.35H20V9.29679C20 8.46927 19.6582 7.67849 19.0554 7.11153L15.5503 3.81474C14.9939 3.29139 14.2588 3 13.4949 3H6.99999ZM4.29999 13.9444C4.1343 13.9444 3.99999 14.0788 3.99999 14.2444V18C3.99999 19.6569 5.34313 21 6.99999 21H17C18.6568 21 20 19.6569 20 18V14.2444C20 14.0788 19.8657 13.9444 19.7 13.9444H4.29999ZM14.989 8.99986L18.3905 8.99986C18.6619 8.99986 18.7938 8.66829 18.5966 8.48187L14.1951 4.32027C14.0038 4.13942 13.689 4.27502 13.689 4.53826V7.69986C13.689 8.41783 14.271 8.99986 14.989 8.99986Z" fill="#626F84"/>
</svg>
