<svg width="24" height="24" viewBox="0 0 24 24" fill="none" xmlns="http://www.w3.org/2000/svg">
<path d="M20.3378 4C20.6968 4 20.9878 4.29102 20.9878 4.65C20.9878 5.00899 20.6968 5.3 20.3378 5.3H14.3182C13.9592 5.3 13.6682 5.00899 13.6682 4.65C13.6682 4.29102 13.9592 4 14.3182 4H20.3378Z" fill="#717681"/>
<path d="M20.9878 8.18369C20.9878 7.82471 20.6968 7.53369 20.3378 7.53369H17.711C17.352 7.53369 17.061 7.82471 17.061 8.18369C17.061 8.54268 17.352 8.83369 17.711 8.83369H20.3378C20.6968 8.83369 20.9878 8.54268 20.9878 8.18369Z" fill="#717681"/>
<path fill-rule="evenodd" clip-rule="evenodd" d="M7.44136 4.47158C7.94904 3.9639 8.77215 3.9639 9.27984 4.47158L19.7522 14.9439C20.1498 15.3415 20.4276 15.8428 20.554 16.3907L20.9535 18.1218C21.1695 19.0579 20.3306 19.8968 19.3945 19.6808L17.6634 19.2813C17.1155 19.1549 16.6142 18.8771 16.2167 18.4795L5.7443 8.00711C5.23662 7.49943 5.23662 6.67632 5.7443 6.16864L7.44136 4.47158ZM6.66354 7.08788L8.3606 5.39082L9.98173 7.01196L8.28467 8.70901L6.66354 7.08788ZM18.8329 15.8632L10.901 7.9312L9.20391 9.62825L17.1359 17.5602C17.3612 17.7855 17.6453 17.943 17.9557 18.0146L19.6868 18.4141L19.2873 16.683C19.2157 16.3726 19.0582 16.0885 18.8329 15.8632Z" fill="#717681"/>
<path d="M6.65244 19.9092C7.83343 19.9092 8.55417 19.3011 9.10676 18.8349L9.139 18.8077C9.70604 18.3297 10.106 18.0123 10.7938 18.0123C12.0657 18.0123 12.6923 18.7912 13.1615 19.3743C13.2574 19.4936 13.3468 19.6046 13.4337 19.6992C13.6767 19.9634 14.0879 19.9806 14.3522 19.7377C14.6164 19.4947 14.6336 19.0835 14.3906 18.8192C14.358 18.7837 14.3131 18.725 14.2552 18.6493C13.8432 18.1105 12.7739 16.7123 10.7938 16.7123C9.6069 16.7123 8.88411 17.322 8.32979 17.7896L8.30111 17.8138C7.7328 18.2928 7.33539 18.6092 6.65245 18.6092C5.26833 18.6092 4.6649 17.7839 4.28518 17.2646C4.24801 17.2137 4.21297 17.1658 4.17956 17.1219C3.96221 16.8362 3.5544 16.7808 3.26869 16.9981C2.98298 17.2155 2.92757 17.6233 3.14493 17.909C3.16983 17.9417 3.19894 17.9823 3.23261 18.0293C3.61403 18.5611 4.58092 19.9092 6.65244 19.9092Z" fill="#717681"/>
</svg>
