<svg width="24" height="24" viewBox="0 0 24 24" fill="none" xmlns="http://www.w3.org/2000/svg">
<path d="M9.69741 14.374H8.29741V15.774H9.69741V14.374Z" fill="#626F84"/>
<path fill-rule="evenodd" clip-rule="evenodd" d="M20.39 7.52495C21.2283 7.52495 21.2283 8.82495 20.39 8.82495H19V15.2H20.39C20.749 15.2 21.04 15.491 21.04 15.85C21.04 16.209 20.749 16.5 20.39 16.5H19V18C19 19.65 17.66 21 16 21H7C5.34 21 4 19.66 4 18V6.03497C4 4.37497 5.34 3.03497 7 3.03497H16C17.66 3.03497 19 4.37497 19 6.03497V7.52495H20.39ZM10.8667 8.46682C11.101 8.19486 11.0705 7.78443 10.7985 7.55011C10.5266 7.31578 10.1161 7.34629 9.88181 7.61825L8.7487 8.93335L8.06298 8.29666C7.79991 8.0524 7.38863 8.06765 7.14437 8.33073C6.90011 8.5938 6.91536 9.00507 7.17843 9.24933L8.35852 10.345C8.48792 10.4652 8.66063 10.5275 8.83693 10.5177C9.01324 10.5079 9.17796 10.4267 9.29322 10.293L10.8667 8.46682ZM12.4186 8.95561C12.4186 9.31459 12.7096 9.60561 13.0686 9.60561L15.35 9.6056C15.709 9.6056 16 9.31458 16 8.9556C16 8.59661 15.709 8.3056 15.35 8.3056L13.0686 8.3056C12.7096 8.3056 12.4186 8.59662 12.4186 8.95561ZM12.4186 15.074C12.4186 15.433 12.7096 15.724 13.0686 15.724L15.35 15.724C15.709 15.724 16 15.433 16 15.074C16 14.715 15.709 14.424 15.35 14.424L13.0686 14.424C12.7096 14.424 12.4186 14.715 12.4186 15.074ZM8.29741 13.074C7.57944 13.074 6.99741 13.656 6.99741 14.374V15.774C6.99741 16.4919 7.57944 17.074 8.29741 17.074H9.69741C10.4154 17.074 10.9974 16.4919 10.9974 15.774V14.374C10.9974 13.656 10.4154 13.074 9.69741 13.074H8.29741Z" fill="#626F84"/>
</svg>
