<svg width="24" height="24" viewBox="0 0 24 24" fill="none" xmlns="http://www.w3.org/2000/svg">
<path fill-rule="evenodd" clip-rule="evenodd" d="M15.0001 18.4081C15.3591 18.4081 15.6501 18.117 15.6501 17.7581V17.1856H16.3182C17.3109 17.1856 18.1156 16.3809 18.1156 15.3882C18.1156 14.3955 17.3109 13.5908 16.3182 13.5908H15.0001C14.6411 13.5908 14.3501 13.8818 14.3501 14.2408V17.7581C14.3501 18.117 14.6411 18.4081 15.0001 18.4081ZM16.8156 15.3882C16.8156 15.6629 16.5929 15.8856 16.3182 15.8856H15.6501L15.6501 14.8908H16.3182C16.5929 14.8908 16.8156 15.1135 16.8156 15.3882Z" fill="#717681"/>
<path d="M12.6501 14.2442C12.6501 13.8852 12.3591 13.5942 12.0001 13.5942C11.6411 13.5942 11.3501 13.8852 11.3501 14.2442V17.7614C11.3501 18.1204 11.6411 18.4114 12.0001 18.4114C12.3591 18.4114 12.6501 18.1204 12.6501 17.7614V14.2442Z" fill="#717681"/>
<path d="M6.21768 14.2442C6.21768 13.8852 6.50869 13.5942 6.86768 13.5942H9.24762C9.48819 13.5942 9.70909 13.7271 9.82183 13.9396C9.93457 14.1521 9.9207 14.4095 9.78579 14.6087L8.09302 17.1079H9.24762C9.6066 17.1079 9.89762 17.3989 9.89762 17.7579C9.89762 18.1169 9.6066 18.4079 9.24762 18.4079H6.86768C6.62711 18.4079 6.40621 18.275 6.29347 18.0625C6.18074 17.8499 6.1946 17.5925 6.32952 17.3934L8.02228 14.8942H6.86768C6.50869 14.8942 6.21768 14.6032 6.21768 14.2442Z" fill="#717681"/>
<path fill-rule="evenodd" clip-rule="evenodd" d="M5 11V6C5 4.34315 6.34315 3 8 3H13.042C13.8752 3 14.671 3.34655 15.2385 3.95662L18.1965 7.13629C18.7129 7.69141 19 8.42148 19 9.17967V11C20.6569 11 22 12.3431 22 14V18C22 19.6569 20.6569 21 19 21H5C3.34315 21 2 19.6569 2 18V14C2 12.3431 3.34315 11 5 11ZM13.042 4.3H8C7.06112 4.3 6.3 5.06112 6.3 6V11H17.7V9.17967C17.7 9.11913 17.6968 9.05892 17.6904 8.99925L15.2999 8.99926C14.223 8.99926 13.3499 8.12621 13.3499 7.04926V4.32811C13.2491 4.30954 13.1461 4.3 13.042 4.3ZM14.6499 5.23254V7.04926C14.6499 7.40824 14.9409 7.69926 15.2999 7.69926L16.9447 7.69926L14.6499 5.23254ZM5 12.3H19C19.9389 12.3 20.7 13.0611 20.7 14V18C20.7 18.9389 19.9389 19.7 19 19.7H5C4.06112 19.7 3.3 18.9389 3.3 18V14C3.3 13.0611 4.06112 12.3 5 12.3Z" fill="#717681"/>
</svg>
