<svg width="40.000000" height="40.000000" viewBox="0 0 40 40" fill="none" xmlns="http://www.w3.org/2000/svg" xmlns:xlink="http://www.w3.org/1999/xlink">
	<g>
		<rect id="Pochta Bank" width="40.000000" height="40.000000" fill="white" fill-opacity="0"/>
		<path id="BG" d="M1 12.4C1 10.15 1 9.03 1.43 8.18C1.81 7.43 2.43 6.81 3.18 6.43C4.03 6 5.15 6 7.4 6L32.59 6C34.84 6 35.96 6 36.81 6.43C37.56 6.81 38.18 7.43 38.56 8.18C39 9.03 39 10.15 39 12.4L39 27.6C39 29.84 39 30.96 38.56 31.81C38.18 32.56 37.56 33.18 36.81 33.56C35.96 34 34.84 34 32.59 34L7.4 34C5.15 34 4.03 34 3.18 33.56C2.43 33.18 1.81 32.56 1.43 31.81C1 30.96 1 29.84 1 27.6L1 12.4Z" fill="#CC013D" fill-opacity="1.000000" fill-rule="nonzero"/>
		<path id="Shape" d="M27.9 19.51L27.73 17.32L26.7 17.32C26.68 18.05 26.65 18.77 26.62 19.51L25.78 19.51L25.94 14.95L26.47 14.95C26.71 14.95 26.96 14.95 27.2 14.95C27.89 14.95 28.33 15.32 28.43 16.01C28.51 16.55 28.55 17.11 28.61 17.66C28.67 18.24 28.72 18.82 28.77 19.4C28.77 19.43 28.77 19.46 28.77 19.51L27.9 19.51ZM26.75 16.52L27.66 16.52C27.67 15.88 27.35 15.61 26.75 15.75L26.75 16.52ZM15.91 21.2C16.41 21.2 16.89 21.16 17.37 21.21C17.97 21.27 18.3 21.61 18.4 22.22C18.47 22.69 18.5 23.17 18.55 23.64C18.61 24.32 18.68 24.99 18.74 25.67L18.27 25.76C17.87 25.76 17.87 25.76 17.84 25.37C17.8 24.8 17.76 24.24 17.71 23.68C17.71 23.64 17.7 23.6 17.7 23.56L16.68 23.56C16.66 23.88 16.65 24.2 16.64 24.53C16.62 24.89 16.61 25.25 16.6 25.61C16.6 25.73 16.56 25.76 16.45 25.76C16.22 25.75 16 25.76 15.75 25.76L15.91 21.2ZM17.6 22.77C17.61 22.11 17.4 21.89 16.71 21.99L16.71 22.77L17.6 22.77ZM22.43 25.75L21.58 25.75L21.58 23.44L20.46 23.44L20.46 25.75L19.61 25.75L19.61 21.19C19.87 21.19 20.13 21.19 20.38 21.2C20.41 21.2 20.45 21.27 20.45 21.32C20.46 21.69 20.46 22.07 20.46 22.45L20.46 22.62L21.57 22.62L21.57 21.9C21.57 21.7 21.58 21.51 21.57 21.31C21.57 21.22 21.6 21.18 21.7 21.19C21.9 21.19 22.1 21.19 22.3 21.19C22.41 21.18 22.43 21.23 22.43 21.32C22.43 21.7 22.43 22.07 22.43 22.44L22.43 25.56C22.43 25.62 22.43 25.68 22.43 25.75ZM14.54 21.19L14.54 21.98L14.15 21.98C13.83 21.98 13.5 21.99 13.18 21.98C13.09 21.98 13.05 22.01 13.05 22.11C13.06 22.3 13.05 22.49 13.05 22.67C13.32 22.68 13.57 22.68 13.82 22.72C14.45 22.83 14.86 23.29 14.93 23.93C14.96 24.27 14.93 24.61 14.79 24.94C14.58 25.41 14.23 25.71 13.72 25.74C13.22 25.78 12.71 25.75 12.19 25.75C12.19 25.7 12.19 25.65 12.19 25.61C12.19 24.19 12.19 22.77 12.18 21.35C12.18 21.23 12.21 21.19 12.35 21.19C13.07 21.2 13.79 21.19 14.54 21.19ZM13.07 25.01C13.44 25.05 13.77 25.06 13.98 24.71C14.16 24.43 14.13 23.86 13.93 23.63C13.78 23.45 13.37 23.36 13.07 23.46C13.07 23.97 13.07 24.48 13.07 25.01ZM14.92 14.96L14.92 19.52C14.65 19.52 14.4 19.52 14.15 19.51C14.13 19.48 14.07 19.35 14.07 19.32L14.07 15.73L13.06 15.73L13.06 19.51L12.2 19.51L12.2 14.96C13.11 14.96 14.01 14.96 14.92 14.96ZM23.52 25.75L23.52 21.2L24.36 21.2L24.36 22.67C24.91 22.8 25.21 22.59 25.28 22.05C25.31 21.83 25.32 21.61 25.34 21.38L25.36 21.22L26.2 21.22C26.17 21.5 26.13 21.77 26.09 22.04C26.04 22.42 25.93 22.78 25.65 23.07C25.62 23.09 25.63 23.18 25.65 23.22C25.94 24.01 26.24 24.8 26.54 25.59L26.6 25.76C26.3 25.76 26.01 25.76 25.72 25.75C25.69 25.75 25.65 25.68 25.63 25.64C25.39 24.96 25.14 24.28 24.9 23.59C24.87 23.48 24.81 23.45 24.7 23.46C24.6 23.47 24.5 23.46 24.37 23.46L24.37 25.75C24.08 25.75 23.81 25.75 23.52 25.75ZM21.9 19.52C21.63 19.52 21.38 19.52 21.13 19.52C21.02 19.52 21.05 19.43 21.05 19.37C21.04 18.75 21.05 18.12 21.05 17.49L21.05 17.31C20.84 17.31 20.65 17.31 20.45 17.31C20.06 17.3 19.71 17.18 19.47 16.86C19.37 16.73 19.27 16.55 19.26 16.39C19.23 15.92 19.25 15.44 19.25 14.96L20.11 14.96L20.11 16.14C20.11 16.35 20.2 16.48 20.41 16.5C20.61 16.53 20.81 16.53 21.04 16.54L21.04 14.96L21.9 14.96L21.9 19.52ZM23.49 15.73L22.82 15.73L22.82 14.96L25.05 14.96L25.05 15.72L24.37 15.72L24.37 19.51C24.09 19.51 23.83 19.52 23.56 19.51C23.55 19.47 23.49 19.35 23.49 19.31L23.49 15.73Z" fill="#FFFFFF" fill-opacity="1.000000" fill-rule="nonzero"/>
		<path id="Shape" d="M17.15 19.65C18 19.65 18.68 18.55 18.68 17.2C18.68 15.84 18 14.75 17.15 14.75C16.31 14.75 15.62 15.84 15.62 17.2C15.62 18.55 16.31 19.65 17.15 19.65ZM17.15 18.77C17.56 18.77 17.9 18.06 17.9 17.2C17.9 16.33 17.56 15.62 17.15 15.62C16.74 15.62 16.41 16.33 16.41 17.2C16.41 18.06 16.74 18.77 17.15 18.77Z" fill="#FFFFFF" fill-opacity="1.000000" fill-rule="evenodd"/>
		<path id="Shape" d="M26.75 16.52L26.75 15.75C27.35 15.6 27.67 15.87 27.66 16.52L26.75 16.52ZM17.6 22.77L16.71 22.77L16.71 21.99C17.4 21.89 17.61 22.11 17.6 22.77ZM13.07 25.01L13.07 23.46C13.37 23.36 13.78 23.45 13.93 23.63C14.13 23.86 14.16 24.43 13.98 24.71C13.77 25.06 13.44 25.05 13.07 25.01Z" fill="#CC013D" fill-opacity="1.000000" fill-rule="nonzero"/>
	</g>
</svg>
