<svg viewBox="0 0 40 40" xmlns="http://www.w3.org/2000/svg" xmlns:xlink="http://www.w3.org/1999/xlink" width="40.000000" height="40.000000" fill="none">
	<rect id="Promsvyazbank" width="40.000000" height="40.000000" x="0.000000" y="0.000000" />
	<path id="BG" d="M1 12.4C1 10.1598 1 9.03969 1.43597 8.18404C1.81947 7.43139 2.43139 6.81947 3.18404 6.43597C4.03969 6 5.15979 6 7.4 6L32.6 6C34.8402 6 35.9603 6 36.816 6.43597C37.5686 6.81947 38.1805 7.43139 38.564 8.18404C39 9.03969 39 10.1598 39 12.4L39 27.6C39 29.8402 39 30.9603 38.564 31.816C38.1805 32.5686 37.5686 33.1805 36.816 33.564C35.9603 34 34.8402 34 32.6 34L7.4 34C5.15979 34 4.03969 34 3.18404 33.564C2.43139 33.1805 1.81947 32.5686 1.43597 31.816C1 30.9603 1 29.8402 1 27.6L1 12.4Z" fill="rgb(44,45,132)" fill-rule="nonzero" />
	<path id="Shape" d="M22.491 12.125L17.3079 17.3081L22.491 17.3081L22.491 27.6738L27.6736 22.5031L27.6736 12.125L22.491 12.125Z" fill="rgb(234,86,22)" fill-rule="evenodd" />
	<path id="Shape" d="M17.3081 27.6738L22.4911 22.4907L17.3081 22.4907L17.3081 12.125L12.125 17.2956L12.125 27.6738L17.3081 27.6738Z" fill="rgb(234,86,22)" fill-rule="nonzero" />
	<path id="Shape" d="M17.3081 27.6738L22.4911 22.4907L17.3081 22.4907L17.3081 12.125L12.125 17.2956L12.125 27.6738L17.3081 27.6738Z" fill="rgb(255,255,255)" fill-rule="nonzero" />
</svg>
