<svg width="40" height="40" viewBox="0 0 40 40" fill="none" xmlns="http://www.w3.org/2000/svg">
<rect x="1" y="7" width="38" height="27.4444" rx="4" fill="#FFE600"/>
<path d="M23.9128 19.3886V16.7704L24.8618 15.8214V18.0967L25.685 18.9199L29.0006 15.6042L29.8238 16.4274C29.8238 15.81 29.6981 14.0264 28.1774 12.5286C26.5425 10.9508 24.7703 11.6597 24.1758 12.2657L20.8601 15.5813L21.7062 16.4274L19.9912 18.131L18.2876 16.4274L19.1337 15.5813L15.818 12.2771C15.212 11.6711 13.4513 10.9623 11.8163 12.5401C10.2957 14.0264 10.1699 15.81 10.1699 16.4274L10.9931 15.6042L14.3088 18.9199L15.1206 18.0967V15.8214L16.0695 16.7704V19.3886L17.3958 20.7263L10.8445 27.2891L13.4399 29.873L19.9912 23.3217L26.5425 29.873L29.1378 27.2891L22.5865 20.7263L23.9128 19.3886Z" fill="#2B2D34"/>
</svg>
