<svg viewBox="0 0 40 40" xmlns="http://www.w3.org/2000/svg" xmlns:xlink="http://www.w3.org/1999/xlink" width="40.000000" height="40.000000" fill="none" customFrame="#000000">
	<rect id="SBP" width="40.000000" height="40.000000" x="0.000000" y="0.000000" />
	<rect id="BG" width="38.000000" height="27.444445" x="1.000000" y="7.000000" rx="4.000000" fill="rgb(246.5,246.5,246.5)" />
	<path id="Shape" d="M11.3654 14.8882L13.8223 19.2364L13.8223 21.8875L11.3694 26.2272L11.3654 14.8882Z" fill="rgb(91,87,162)" fill-rule="evenodd" />
	<path id="Shape" d="M20.7963 17.6544L23.0976 16.2573L27.8064 16.2538L20.7963 20.5075L20.7963 17.6544Z" fill="rgb(91,87,162)" fill-rule="evenodd" />
	<path id="Shape" d="M20.7963 17.6544L23.0976 16.2573L27.8064 16.2538L20.7963 20.5075L20.7963 17.6544Z" fill="rgb(217,7,81)" fill-rule="evenodd" />
	<path id="Shape" d="M20.7838 14.8631L20.7965 20.6189L18.3347 19.1212L18.3347 10.516L20.7838 14.8631Z" fill="rgb(91,87,162)" fill-rule="evenodd" />
	<path id="Shape" d="M20.7838 14.8631L20.7965 20.6189L18.3347 19.1212L18.3347 10.516L20.7838 14.8631Z" fill="rgb(250,183,24)" fill-rule="evenodd" />
	<path id="Shape" d="M27.8064 16.2538L23.0976 16.2573L20.7838 14.8631L18.3347 10.516L27.8064 16.2538Z" fill="rgb(91,87,162)" fill-rule="evenodd" />
	<path id="Shape" d="M27.8064 16.2538L23.0976 16.2573L20.7838 14.8631L18.3347 10.516L27.8064 16.2538Z" fill="rgb(237,111,38)" fill-rule="evenodd" />
	<path id="Shape" d="M20.7963 26.2519L20.7963 23.4588L18.3347 21.9895L18.3351 30.6023L20.7963 26.2519Z" fill="rgb(91,87,162)" fill-rule="evenodd" />
	<path id="Shape" d="M20.7963 26.2519L20.7963 23.4588L18.3347 21.9895L18.3351 30.6023L20.7963 26.2519Z" fill="rgb(99,178,47)" fill-rule="evenodd" />
	<path id="Shape" d="M23.0916 24.8673L13.8223 19.2364L11.3654 14.8882L27.7969 24.8619L23.0916 24.8673Z" fill="rgb(91,87,162)" fill-rule="evenodd" />
	<path id="Shape" d="M23.0916 24.8673L13.8223 19.2364L11.3654 14.8882L27.7969 24.8619L23.0916 24.8673Z" fill="rgb(20,135,201)" fill-rule="evenodd" />
	<path id="Shape" d="M18.3351 30.6023L20.7963 26.2519L23.0916 24.8673L27.7969 24.8619L18.3351 30.6023Z" fill="rgb(91,87,162)" fill-rule="evenodd" />
	<path id="Shape" d="M18.3351 30.6023L20.7963 26.2519L23.0916 24.8673L27.7969 24.8619L18.3351 30.6023Z" fill="rgb(1,127,54)" fill-rule="evenodd" />
	<path id="Shape" d="M11.3694 26.2272L18.3538 21.9892L16.0051 20.5623L13.8223 21.8875L11.3694 26.2272Z" fill="rgb(91,87,162)" fill-rule="evenodd" />
	<path id="Shape" d="M11.3694 26.2272L18.3538 21.9892L16.0051 20.5623L13.8223 21.8875L11.3694 26.2272Z" fill="rgb(152,73,149)" fill-rule="evenodd" />
</svg>
