<svg xmlns="http://www.w3.org/2000/svg" fill="none" viewBox="0 0 24 24" focusable="false"><path fill="#717681" fill-rule="evenodd" d="M7 3a3 3 0 0 0-3 3v12a3 3 0 0 0 3 3h10a3 3 0 0 0 3-3V9.3a3 3 0 0 0-.948-2.189l-3.52-3.3A3 3 0 0 0 13.48 3H7Zm11.402 5.402a.35.35 0 0 1-.247.598h-2.819C14.598 9 14 8.362 14 7.575v-2.73a.35.35 0 0 1 .598-.248l3.804 3.805Zm-6.277.064a.75.75 0 1 0-1.5 0 .75.75 0 0 0 1.5 0Zm-.1 2.754a.65.65 0 1 0-1.3 0v3.846a1.95 1.95 0 0 0 1.95 1.95h.05a.65.65 0 1 0 0-1.3h-.05a.65.65 0 0 1-.65-.65V11.22Z" clip-rule="evenodd"/></svg>