<svg xmlns="http://www.w3.org/2000/svg" fill="none" viewBox="0 0 24 24" focusable="false"><path fill="#717681" d="M12.125 8.466a.75.75 0 1 0-1.5 0 .75.75 0 0 0 1.5 0M12.025 11.22a.65.65 0 1 0-1.3 0v3.846a1.95 1.95 0 0 0 1.95 1.95h.05a.65.65 0 1 0 0-1.3h-.05a.65.65 0 0 1-.65-.65z"/><path fill="#717681" fill-rule="evenodd" d="M4 6a3 3 0 0 1 3-3h6.48a3 3 0 0 1 2.052.811l3.52 3.3A3 3 0 0 1 20 9.3V18a3 3 0 0 1-3 3H7a3 3 0 0 1-3-3zm3-1.7h6.48a1.7 1.7 0 0 1 .57.098v2.655A1.95 1.95 0 0 0 16 9.003h2.674a2 2 0 0 1 .026.297V18a1.7 1.7 0 0 1-1.7 1.7H7A1.7 1.7 0 0 1 5.3 18V6A1.7 1.7 0 0 1 7 4.3m10.782 3.403-2.432-2.28v1.63c0 .359.29.65.65.65z" clip-rule="evenodd"/></svg>