<svg xmlns="http://www.w3.org/2000/svg" fill="none" viewBox="0 0 24 24" focusable="false"><defs><clipPath id="Account_Detail_Solid_svg__a"><path fill="#fff" fill-opacity="0" d="M0 0h24v24H0z"/></clipPath></defs><g clip-path="url(#Account_Detail_Solid_svg__a)"><path fill="#717681" fill-rule="evenodd" d="M7 3C5.34 3 4 4.34 4 6v12c0 1.65 1.34 3 3 3h10c1.65 0 3-1.35 3-3V9.29c0-.82-.35-1.62-.95-2.18l-3.52-3.3c-.56-.52-1.29-.81-2.05-.81zm11.4 5.4c.22.22.06.6-.25.6h-2.82C14.59 9 14 8.36 14 7.57V4.84c0-.31.37-.47.59-.25zm-6.28.06c0-.41-.34-.75-.75-.75s-.75.34-.75.75a.749.749 0 1 0 1.5 0m-.1 2.75c0-.35-.29-.65-.65-.65-.36 0-.65.3-.65.65v3.85c0 1.08.87 1.95 1.95 1.95h.05c.36 0 .65-.29.65-.65 0-.36-.29-.65-.65-.65h-.05c-.36 0-.65-.29-.65-.65z"/></g></svg>