<svg xmlns="http://www.w3.org/2000/svg" fill="none" viewBox="0 0 24 24" focusable="false"><path fill="#717681" fill-rule="evenodd" d="M4 6a3 3 0 0 1 3-3h6.48a3 3 0 0 1 2.052.811l3.52 3.3A3 3 0 0 1 20 9.3V18a3 3 0 0 1-3 3H7a3 3 0 0 1-3-3zm14.155 3a.35.35 0 0 0 .247-.598l-3.805-3.805a.35.35 0 0 0-.597.248v2.73C14 8.362 14.598 9 15.336 9zm-5.467 1.63a.653.653 0 0 0-1.304-.009c-.011 1.706-.002 3.561-.002 3.561l-1.46-1.61a.66.66 0 0 0-.918-.072.65.65 0 0 0-.227.472.63.63 0 0 0 .154.446l2.477 2.8a.7.7 0 0 0 1.04.037L15 13.627a.66.66 0 0 0-.007-.92.65.65 0 0 0-.921.007l-1.39 1.508z" clip-rule="evenodd"/></svg>