<svg xmlns="http://www.w3.org/2000/svg" fill="none" viewBox="0 0 24 24" focusable="false"><path fill="#74767B" fill-rule="evenodd" d="M4 6c0-1.66 1.34-3 3-3h6.48c.76 0 1.49.29 2.05.81l3.52 3.3c.6.56.95 1.36.95 2.18V18c0 1.65-1.35 3-3 3H7c-1.66 0-3-1.35-3-3zm14.15 2.99c.31 0 .47-.37.25-.59l-3.81-3.81c-.22-.22-.59-.06-.59.25v2.73c0 .79.59 1.43 1.33 1.43zm-5.47 1.63c0-.35-.27-.64-.62-.65a.656.656 0 0 0-.68.65c-.01 1.7 0 3.56 0 3.56l-1.46-1.61A.65.65 0 0 0 9 12.5c-.15.12-.22.29-.23.47 0 .16.04.31.16.44l2.47 2.8c.27.32.75.34 1.04.04L15 13.62c.24-.26.24-.67-.01-.92a.65.65 0 0 0-.92.01l-1.39 1.51z"/></svg>