<svg xmlns="http://www.w3.org/2000/svg" fill="none" viewBox="0 0 24 24" focusable="false"><path fill="#717681" fill-rule="evenodd" d="M17.377 22a4.5 4.5 0 1 0 0-9 4.5 4.5 0 0 0 0 9m0-7.157a.65.65 0 0 1 .65.65v1.357h1.222a.65.65 0 1 1 0 1.3h-1.222v1.357a.65.65 0 1 1-1.3 0V18.15h-1.222a.65.65 0 0 1 0-1.3h1.222v-1.357a.65.65 0 0 1 .65-.65" clip-rule="evenodd"/><path fill="#717681" fill-rule="evenodd" d="M4 5.997a3 3 0 0 1 3-3h8.026a3 3 0 0 1 3 3v5.094c0 .347-.302.615-.65.615a5.794 5.794 0 0 0-5.793 5.794c0 .777-.563 1.524-1.34 1.524H7a3 3 0 0 1-3-3V5.998m3.355 5.139a.65.65 0 0 1 .65-.65h2.358a.65.65 0 0 1 0 1.3H8.005a.65.65 0 0 1-.65-.65m.65-4.242a.65.65 0 0 0 0 1.3h6.02a.65.65 0 1 0 0-1.3h-6.02" clip-rule="evenodd"/></svg>