<svg xmlns="http://www.w3.org/2000/svg" fill="none" viewBox="0 0 24 24" focusable="false"><path fill="#717681" fill-rule="evenodd" d="M7 4.29h8.02c.94 0 1.7.77 1.7 1.71v6.4c0 .36.29.65.65.65s.65-.29.65-.65V6c0-1.66-1.34-3-3-3H7C5.34 3 4 4.34 4 6v10.02c0 1.66 1.34 3 3 3h4.43c.36 0 .65-.29.65-.65s-.29-.65-.65-.65H7c-.94 0-1.7-.76-1.7-1.7V6c0-.94.76-1.71 1.7-1.71m1 2.6c-.36 0-.65.29-.65.65s.29.65.65.65h6.02c.36 0 .65-.29.65-.65s-.29-.65-.65-.65zm0 3.54c-.36 0-.65.29-.65.65s.29.65.65.65h2.63c.36 0 .65-.29.65-.65s-.29-.65-.65-.65zm8.61 10.92c0 .36.29.65.65.65s.65-.29.65-.65v-2.36h2.36c.36 0 .65-.29.65-.65s-.29-.65-.65-.65h-2.36v-2.36c0-.36-.29-.65-.65-.65s-.65.29-.65.65v2.36h-2.36c-.36 0-.65.29-.65.65s.29.65.65.65h2.36z"/></svg>