<svg xmlns="http://www.w3.org/2000/svg" width="24" height="24" fill="none"><path fill="#717681" fill-rule="evenodd" d="M8.048 3.706a.65.65 0 0 0-.65-.65h-.461a3 3 0 0 0-3 3V18a3 3 0 0 0 3 3H17a3 3 0 0 0 3-3V9.156a3 3 0 0 0-.994-2.23l-3.448-3.101a3 3 0 0 0-2.006-.77h-.934a.65.65 0 1 0 0 1.3h.934a1.7 1.7 0 0 1 1.137.436l3.448 3.1a1.7 1.7 0 0 1 .563 1.265V18a1.7 1.7 0 0 1-1.7 1.7H6.937a1.7 1.7 0 0 1-1.7-1.7V6.056a1.7 1.7 0 0 1 1.7-1.7h.46a.65.65 0 0 0 .65-.65Zm-.152 1.31a.65.65 0 0 1 .65-.65h.92a.65.65 0 0 1 0 1.3h-.92a.65.65 0 0 1-.65-.65Zm.65 1.95a.65.65 0 1 0 0 1.3h.92a.65.65 0 0 0 0-1.3h-.92Zm-.65 3.25a.65.65 0 0 1 .65-.65h.92a.65.65 0 0 1 0 1.3h-.92a.65.65 0 0 1-.65-.65Zm1.545 1.95a.7.7 0 0 0-.678.529l-.646 2.556a.7.7 0 0 0 .678.872h2.274a.7.7 0 0 0 .68-.872l-.647-2.556a.7.7 0 0 0-.679-.529h-.982Zm.308-5.85a.65.65 0 0 1 .65-.65h.92a.65.65 0 1 1 0 1.3h-.92a.65.65 0 0 1-.65-.65Zm.65 1.95a.65.65 0 1 0 0 1.3h.92a.65.65 0 1 0 0-1.3h-.92Z" clip-rule="evenodd"/></svg>