<svg xmlns="http://www.w3.org/2000/svg" fill="none" viewBox="0 0 24 24" focusable="false"><path fill="#74767B" fill-rule="evenodd" d="M3.93 6.05c0-1.66 1.34-3 3-3h6.62c.74 0 1.45.27 2 .77L19 6.92c.63.57 1 1.38 1 2.23V18c0 1.65-1.35 3-3 3H6.93c-1.66 0-3-1.35-3-3zm3.96-1.04c0-.36.29-.65.65-.65h.92c.36 0 .65.29.65.65s-.29.65-.65.65h-.92c-.36 0-.65-.29-.65-.65m.65 1.95c-.36 0-.65.29-.65.65s.29.65.65.65h.92c.36 0 .65-.29.65-.65s-.29-.65-.65-.65zm-.65 3.25c0-.36.29-.65.65-.65h.92c.36 0 .65.29.65.65s-.29.65-.65.65h-.92c-.36 0-.65-.29-.65-.65m1.55 1.95c-.32 0-.6.22-.68.53l-.65 2.56a.7.7 0 0 0 .68.87h2.27a.7.7 0 0 0 .68-.87l-.64-2.56a.705.705 0 0 0-.68-.53zm.3-5.85c0-.36.29-.65.65-.65h.92c.36 0 .65.29.65.65s-.29.65-.65.65h-.92c-.36 0-.65-.29-.65-.65m.65 1.95c-.36 0-.65.29-.65.65s.29.65.65.65h.92c.36 0 .65-.29.65-.65s-.29-.65-.65-.65z"/></svg>