<svg xmlns="http://www.w3.org/2000/svg" fill="none" viewBox="0 0 24 24" focusable="false"><defs><clipPath id="Archive_Outline_svg__a"><path fill="#fff" fill-opacity="0" d="M0 0h24v24H0z"/></clipPath></defs><g clip-path="url(#Archive_Outline_svg__a)"><path fill="#74767B" fill-rule="evenodd" d="M8.04 3.7c0-.36-.29-.65-.65-.65h-.46c-1.66 0-3 1.34-3 3V18c0 1.65 1.34 3 3 3H17c1.65 0 3-1.35 3-3V9.15c0-.85-.37-1.66-1-2.23l-3.45-3.1c-.55-.5-1.26-.77-2-.77h-.94c-.36 0-.65.29-.65.65s.29.65.65.65h.94c.42 0 .82.16 1.13.44l3.45 3.1c.36.32.57.78.57 1.26V18c0 .93-.77 1.7-1.7 1.7H6.93c-.94 0-1.7-.77-1.7-1.7V6.05c0-.94.76-1.7 1.7-1.7h.46c.36 0 .65-.29.65-.65m-.15 1.31c0-.36.29-.65.65-.65h.92c.36 0 .65.29.65.65s-.29.65-.65.65h-.92c-.36 0-.65-.29-.65-.65m.65 1.95c-.36 0-.65.29-.65.65s.29.65.65.65h.92c.36 0 .65-.29.65-.65s-.29-.65-.65-.65zm-.65 3.25c0-.36.29-.65.65-.65h.92c.36 0 .65.29.65.65s-.29.65-.65.65h-.92c-.36 0-.65-.29-.65-.65m1.55 1.95c-.32 0-.6.22-.68.53l-.65 2.56a.7.7 0 0 0 .68.87h2.27a.7.7 0 0 0 .68-.87l-.64-2.56a.705.705 0 0 0-.68-.53zm.3-5.85c0-.36.29-.65.65-.65h.92c.36 0 .65.29.65.65s-.29.65-.65.65h-.92c-.36 0-.65-.29-.65-.65m.65 1.95c-.36 0-.65.29-.65.65s.29.65.65.65h.92c.36 0 .65-.29.65-.65s-.29-.65-.65-.65z"/></g></svg>