<svg xmlns="http://www.w3.org/2000/svg" width="24" height="24" fill="none"><path fill="#717681" fill-rule="evenodd" d="M3.937 6.056a3 3 0 0 1 3-3h6.615a3 3 0 0 1 2.006.769l3.448 3.1A3 3 0 0 1 20 9.155V18a3 3 0 0 1-3 3H6.937a3 3 0 0 1-3-3V6.056Zm3.96-1.04a.65.65 0 0 1 .65-.65h.92a.65.65 0 0 1 0 1.3h-.92a.65.65 0 0 1-.65-.65Zm.65 1.95a.65.65 0 0 0 0 1.3h.92a.65.65 0 1 0 0-1.3h-.92Zm-.65 3.25a.65.65 0 0 1 .65-.65h.92a.65.65 0 0 1 0 1.3h-.92a.65.65 0 0 1-.65-.65Zm1.544 1.95a.7.7 0 0 0-.678.529l-.646 2.556a.7.7 0 0 0 .678.872h2.274a.7.7 0 0 0 .68-.872l-.647-2.556a.7.7 0 0 0-.679-.529h-.982Zm.308-5.85a.65.65 0 0 1 .65-.65h.92a.65.65 0 1 1 0 1.3h-.92a.65.65 0 0 1-.65-.65Zm.65 1.95a.65.65 0 1 0 0 1.3h.92a.65.65 0 1 0 0-1.3h-.92Z" clip-rule="evenodd"/></svg>