<svg xmlns="http://www.w3.org/2000/svg" fill="none" viewBox="0 0 24 24" focusable="false"><path fill="#717681" fill-rule="evenodd" d="M7 3a3 3 0 0 0-3 3v12a3 3 0 0 0 3 3h10a3 3 0 0 0 3-3V6a3 3 0 0 0-3-3zm6.437 12.709c-.003-.243-.005-.487-.119-.696a1.5 1.5 0 0 0-2.463-.252c-.197.233-.235.574-.27.9-.046.42-.09.815-.467.922a.45.45 0 0 1-.352-.03 3.8 3.8 0 0 1-1.438-1.59c-.703-1.475-.23-3.299.973-4.885.68-.898 2.037-1.96 3.034-2.671.253-.181.702.16.682.47-.045.716.122 1.534.678 2.086.193.192.388.372.58.549.907.836 1.725 1.59 1.725 3.07 0 1.187-.586 2.378-1.743 3.047-.198.115-.499.063-.666-.178-.148-.213-.15-.477-.154-.742" clip-rule="evenodd"/></svg>