<svg xmlns="http://www.w3.org/2000/svg" fill="none" viewBox="0 0 24 24" focusable="false"><defs><clipPath id="Burn_Card_Outline_svg__a"><path fill="#fff" fill-opacity="0" d="M0 0h24v24H0z"/></clipPath></defs><g clip-path="url(#Burn_Card_Outline_svg__a)"><path fill="#74767B" fill-rule="evenodd" d="M7 3C5.34 3 4 4.34 4 6v12c0 1.65 1.34 3 3 3h10c1.65 0 3-1.35 3-3V6c0-1.66-1.35-3-3-3zm10 1.29H7c-.94 0-1.7.77-1.7 1.71v12c0 .93.76 1.7 1.7 1.7h10c.93 0 1.7-.77 1.7-1.7V6c0-.94-.77-1.71-1.7-1.71m-5.29 3.39c-.88.66-1.87 1.49-2.41 2.21-1.21 1.59-1.68 3.41-.98 4.89.4.83 1.1 1.49 1.99 1.87.05.02.11.03.16.02.27-.03.31-.29.36-.58.03-.22.07-.44.19-.59.19-.22.46-.36.77-.36.35 0 .66.19.84.46.1.15.11.34.12.53.01.2.02.4.15.56.11.13.28.18.41.14 1.78-.48 2.69-1.96 2.69-3.43 0-1.48-.82-2.24-1.73-3.07-.19-.18-.39-.36-.58-.55-.4-.4-.6-.93-.66-1.46-.01-.05-.01-.09-.01-.14-.02-.16-.02-.33-.01-.49.02-.31-.43-.65-.68-.47q-.255.18-.54.39l-.08.06zm2.14 7.47c.57-.44.85-1.1.85-1.75 0-.86-.38-1.26-1.31-2.12h-.01c-.19-.18-.4-.37-.61-.58-.45-.45-.73-.98-.88-1.51-.64.51-1.22 1.04-1.56 1.49-1.05 1.39-1.24 2.69-.83 3.54.1.22.24.42.41.6.03-.05.08-.11.12-.17.42-.49 1.05-.81 1.76-.81.81 0 1.52.43 1.93 1.06.05.08.1.17.13.25"/></g></svg>