<svg xmlns="http://www.w3.org/2000/svg" fill="none" viewBox="0 0 24 24" focusable="false"><path fill="#717681" fill-rule="evenodd" d="M9.3 9.898c.548-.722 1.533-1.55 2.416-2.218l.002-.001.079-.06q.28-.21.538-.393c.253-.18.702.16.682.47a3.5 3.5 0 0 0 .017.626v.002c.065.532.263 1.063.661 1.459q.29.285.58.548c.907.837 1.725 1.591 1.725 3.071 0 1.474-.904 2.954-2.681 3.433a.42.42 0 0 1-.416-.145c-.13-.152-.14-.355-.152-.56-.01-.185-.02-.371-.118-.523a1 1 0 0 0-1.603-.106c-.129.151-.164.377-.197.59-.044.29-.086.558-.354.587a.3.3 0 0 1-.161-.021 3.83 3.83 0 0 1-1.99-1.874c-.703-1.475-.23-3.3.973-4.885m5.4 3.504a2.19 2.19 0 0 1-.84 1.75 2 2 0 0 0-.135-.25 2.3 2.3 0 0 0-3.813-.075 2.4 2.4 0 0 1-.41-.603c-.407-.854-.221-2.148.835-3.54.336-.444.92-.978 1.554-1.49.159.532.436 1.062.887 1.51.21.21.421.404.608.576l.007.007c.929.856 1.307 1.26 1.307 2.115" clip-rule="evenodd"/><path fill="#717681" fill-rule="evenodd" d="M4 6a3 3 0 0 1 3-3h10a3 3 0 0 1 3 3v12a3 3 0 0 1-3 3H7a3 3 0 0 1-3-3zm3-1.7h10A1.7 1.7 0 0 1 18.7 6v12a1.7 1.7 0 0 1-1.7 1.7H7A1.7 1.7 0 0 1 5.3 18V6A1.7 1.7 0 0 1 7 4.3" clip-rule="evenodd"/></svg>