<svg xmlns="http://www.w3.org/2000/svg" fill="none" viewBox="0 0 24 24" focusable="false"><path fill="#717681" fill-rule="evenodd" d="M7 3C5.34 3 4 4.34 4 6v12c0 1.65 1.34 3 3 3h10c1.65 0 3-1.35 3-3V6c0-1.66-1.35-3-3-3zm6.43 12.7c0-.24 0-.48-.12-.69-.25-.47-.75-.79-1.31-.79-.46 0-.87.21-1.15.54-.2.23-.23.57-.27.9-.05.42-.09.81-.47.92-.13.03-.26.02-.35-.03-.63-.39-1.13-.94-1.44-1.59-.7-1.48-.23-3.3.98-4.89.68-.89 2.03-1.96 3.03-2.67.25-.18.7.16.68.47-.04.72.12 1.54.68 2.09.19.19.39.37.58.55.91.83 1.73 1.59 1.73 3.07 0 1.18-.59 2.38-1.75 3.04-.2.12-.5.07-.66-.17-.15-.22-.15-.48-.16-.75"/></svg>