<svg xmlns="http://www.w3.org/2000/svg" fill="none" viewBox="0 0 24 24" focusable="false"><defs><clipPath id="Catalog_Ext_Solid_svg__a"><path fill="#fff" fill-opacity="0" d="M0 0h24v24H0z"/></clipPath></defs><g clip-path="url(#Catalog_Ext_Solid_svg__a)"><path fill="#74767B" fill-rule="evenodd" d="M3.93 5.93c0-1.59 1.28-2.88 2.88-2.88h9.59a2.88 2.88 0 0 1 2.88 2.88v5.24c0 .21-.22.35-.42.28-.59-.22-1.23-.34-1.9-.36-.04-.01-.08-.01-.12-.01h-5.65a.625.625 0 0 0 0 1.25h2.04a5.86 5.86 0 0 0-2.26 4.63c0 1.04.27 2.02.75 2.87.11.2-.03.46-.26.46H6.81c-1.6 0-2.88-1.29-2.88-2.88zm3.46 2.1a.96.96 0 0 0 1.92 0c0-.53-.43-.97-.96-.97s-.96.44-.96.97m3.18.03c0-.35.28-.63.62-.63h3.87a.625.625 0 1 1 0 1.25h-3.87c-.34 0-.62-.28-.62-.62m-3.18 3.61a.96.96 0 1 0 1.92 0 .96.96 0 0 0-1.92 0m9.44 9.9c2.56 0 4.62-2.06 4.62-4.61a4.616 4.616 0 1 0-9.23 0c0 2.55 2.06 4.61 4.61 4.61m-.31-2.06c.24.25.64.26.88.02l2.29-2.19c.13-.11.19-.28.19-.45s-.06-.33-.19-.45l-2.29-2.19a.62.62 0 0 0-.88.02c-.24.25-.23.65.02.88l1.17 1.12h-3.26a.625.625 0 1 0 0 1.25h3.26l-1.17 1.11c-.25.24-.26.63-.02.88m-8.17-3.23a.96.96 0 1 1 0-1.92.96.96 0 0 1 0 1.92"/></g></svg>