<svg xmlns="http://www.w3.org/2000/svg" fill="none" viewBox="0 0 24 24" focusable="false"><path fill="#717681" fill-rule="evenodd" d="M20.39 7.525c.838 0 .838 1.3 0 1.3H19V15.2h1.39a.65.65 0 1 1 0 1.3H19V18c0 1.65-1.34 3-3 3H7c-1.66 0-3-1.34-3-3V6.035c0-1.66 1.34-3 3-3h9c1.66 0 3 1.34 3 3v1.49h1.39M8.5 9.227a1 1 0 1 0 0-2 1 1 0 0 0 0 2m6.22-.35a.65.65 0 1 0 0-1.3H11.5a.65.65 0 1 0 0 1.3h3.22M15.38 12a.65.65 0 0 1-.65.65h-3.22a.65.65 0 1 1 0-1.3h3.22a.65.65 0 0 1 .65.65m-.66 4.48a.65.65 0 1 0 0-1.3H11.5a.65.65 0 1 0 0 1.3h3.22M9.526 12a1 1 0 1 1-2 0 1 1 0 0 1 2 0m0 3.803a1 1 0 1 1-2 0 1 1 0 0 1 2 0" clip-rule="evenodd"/></svg>