<svg xmlns="http://www.w3.org/2000/svg" fill="none" viewBox="0 0 24 24" focusable="false"><path fill="#717681" fill-rule="evenodd" d="M7 3C5.34 3 4 4.34 4 6v12c0 1.65 1.34 3 3 3h10c1.65 0 3-1.35 3-3V9.29c0-.82-.35-1.62-.95-2.18l-3.52-3.3c-.56-.52-1.29-.81-2.05-.81zm11.4 5.4c.22.22.06.59-.25.59L15.33 9C14.59 9 14 8.36 14 7.57V4.84c0-.31.37-.47.59-.25zm-8.58 2.53c.29.22.34.63.12.91l-.86 1.12.86 1.15c.22.29.16.69-.13.91-.28.22-.69.16-.91-.13l-1.16-1.55a.66.66 0 0 1 .01-.79l1.16-1.5c.22-.29.63-.34.91-.12m4.23 3.17c-.22.29-.17.69.12.91.28.22.69.17.91-.11l1.16-1.51c.18-.23.18-.55.01-.78l-1.16-1.56a.663.663 0 0 0-.91-.13c-.29.22-.35.63-.13.91l.86 1.16zm-1.43-3.4c.34.09.55.45.46.8l-.87 3.29a.651.651 0 0 1-1.26-.33l.87-3.3a.66.66 0 0 1 .8-.46"/></svg>