<svg xmlns="http://www.w3.org/2000/svg" fill="none" viewBox="0 0 24 24" focusable="false"><path fill="#717681" fill-rule="evenodd" d="M7 3a3 3 0 0 0-3 3v12a3 3 0 0 0 3 3h10a3 3 0 0 0 3-3V9.3a3 3 0 0 0-.948-2.189l-3.52-3.3A3 3 0 0 0 13.48 3zm11.403 5.403a.35.35 0 0 1-.248.597h-2.819C14.598 9 14 8.362 14 7.575v-2.73a.35.35 0 0 1 .598-.248zm-8.576 2.532a.65.65 0 0 1 .117.912l-.86 1.113.866 1.155a.65.65 0 0 1-1.04.78l-1.162-1.55a.65.65 0 0 1 .005-.788l1.162-1.505a.65.65 0 0 1 .912-.117m4.229 3.172a.65.65 0 1 0 1.029.795l1.161-1.505a.65.65 0 0 0 .006-.787l-1.162-1.55a.65.65 0 0 0-1.04.78l.865 1.154zm-1.436-3.4a.65.65 0 0 1 .462.795l-.87 3.291a.65.65 0 1 1-1.256-.332l.87-3.291a.65.65 0 0 1 .794-.462" clip-rule="evenodd"/></svg>