<svg xmlns="http://www.w3.org/2000/svg" fill="none" viewBox="0 0 24 24" focusable="false"><path fill="#74767B" fill-rule="evenodd" d="M4 6c0-1.66 1.34-3 3-3h6.48c.76 0 1.49.29 2.05.81l3.52 3.3c.6.56.95 1.36.95 2.18V18c0 1.65-1.35 3-3 3H7c-1.66 0-3-1.35-3-3zm3-1.7h6.48c.19 0 .38.03.56.09v2.66c0 1.07.88 1.95 1.95 1.95h2.68c.02.09.03.19.03.29V18c0 .93-.77 1.7-1.7 1.7H7c-.94 0-1.7-.77-1.7-1.7V6c0-.94.76-1.7 1.7-1.7m10.78 3.4-2.44-2.28v1.63c0 .36.3.65.65.65zm-5.16 3.03c.34.09.55.45.46.8l-.87 3.29a.651.651 0 0 1-1.26-.33l.87-3.29c.09-.35.45-.56.8-.47m1.55 4.31a.64.64 0 0 1-.12-.91l.86-1.11-.86-1.16a.645.645 0 0 1 .13-.91c.28-.21.69-.15.91.14l1.16 1.55c.17.23.17.55-.01.78l-1.16 1.51a.65.65 0 0 1-.91.11m-4.23-3.17c.22-.28.17-.69-.12-.91a.643.643 0 0 0-.91.12l-1.16 1.5a.66.66 0 0 0-.01.79l1.16 1.55c.22.29.63.35.91.13.29-.21.35-.62.13-.91l-.86-1.15z"/></svg>