<svg xmlns="http://www.w3.org/2000/svg" fill="none" viewBox="0 0 24 24" focusable="false"><path fill="#717681" fill-rule="evenodd" d="M17.65 21.003a3 3 0 0 0 3-3v-10a3 3 0 0 0-2.516-2.96 3 3 0 0 0-.114-.567.65.65 0 1 0-1.244.38q.023.072.038.147H9.65a3 3 0 0 0-3 3v9.664a2 2 0 0 1-.147-.037.65.65 0 0 0-.379 1.243q.334.102.695.125a3 3 0 0 0 2.831 2.005zm-8-1.3h8a1.7 1.7 0 0 0 1.7-1.7v-10a1.7 1.7 0 0 0-1.7-1.7h-8a1.7 1.7 0 0 0-1.7 1.7v10a1.7 1.7 0 0 0 1.7 1.7" clip-rule="evenodd"/><path fill="#717681" d="M5.374 16.5a.65.65 0 0 1-1.243.38 3 3 0 0 1-.13-.876v-.944a.65.65 0 1 1 1.3 0v.944q0 .262.073.496M5.3 11.946a.65.65 0 1 1-1.3 0v-1.888a.65.65 0 0 1 1.3 0zM5.3 6.944a.65.65 0 0 1-1.3 0V6c0-.37.056-.728.159-1.066a.65.65 0 1 1 1.243.38A2.4 2.4 0 0 0 5.3 6zM6.964 3.752a.65.65 0 0 1-.38-1.244A3.7 3.7 0 0 1 7.65 2.35h.647a.65.65 0 0 1 0 1.3H7.65q-.361.002-.686.102M16.024 2.48a.65.65 0 1 1-.38 1.244 1.7 1.7 0 0 0-.497-.074h-.768a.65.65 0 1 1 0-1.3h.768q.458.001.877.13M10.43 3.65a.65.65 0 1 1 0-1.3h1.414a.65.65 0 1 1 0 1.3z"/></svg>