<svg xmlns="http://www.w3.org/2000/svg" width="24" height="24" fill="none"><path fill="#717681" d="M17.65 21.003a3 3 0 0 0 3-3v-10a3 3 0 0 0-2.516-2.96 2.994 2.994 0 0 0-.114-.567.65.65 0 1 0-1.244.38c.015.048.028.097.038.147H9.65a3 3 0 0 0-3 3v9.664a1.691 1.691 0 0 1-.147-.037.65.65 0 0 0-.379 1.243c.222.068.455.11.695.125a3.001 3.001 0 0 0 2.831 2.005h8ZM5.374 16.5a.65.65 0 0 1-1.243.38 3 3 0 0 1-.13-.876v-.944a.65.65 0 1 1 1.3 0v.944c0 .174.025.34.073.496ZM5.3 11.946a.65.65 0 1 1-1.3 0v-1.888a.65.65 0 0 1 1.3 0v1.888ZM5.3 6.944a.65.65 0 0 1-1.3 0V6c0-.37.056-.728.159-1.066a.65.65 0 1 1 1.243.38A2.35 2.35 0 0 0 5.3 6v.944ZM6.964 3.752a.65.65 0 0 1-.38-1.244A3.65 3.65 0 0 1 7.65 2.35h.647a.65.65 0 0 1 0 1.3H7.65c-.24 0-.47.036-.686.102ZM16.024 2.48a.65.65 0 1 1-.38 1.244 1.703 1.703 0 0 0-.497-.074h-.768a.65.65 0 1 1 0-1.3h.768c.304 0 .599.045.877.13ZM10.43 3.65a.65.65 0 1 1 0-1.3h1.414a.65.65 0 1 1 0 1.3h-1.415Z"/></svg>