<svg xmlns="http://www.w3.org/2000/svg" fill="none" viewBox="0 0 24 24" focusable="false"><path fill="#717681" fill-rule="evenodd" d="M5.068 2.227a.65.65 0 1 0-1.03.792L6.67 6.441v.001l1.3 1.69v-.001l10.497 13.642a.65.65 0 0 0 1.03-.792l-1.328-1.726A3 3 0 0 0 20.65 16.3V6.305a3 3 0 0 0-3-3H9.67c-1.116 0-2.09.61-2.607 1.515L5.068 2.227Zm2.925 3.801A1.7 1.7 0 0 1 9.67 4.605h7.98a1.7 1.7 0 0 1 1.7 1.7V16.3a1.7 1.7 0 0 1-1.7 1.7h-.447L7.993 6.028Z" clip-rule="evenodd"/><path fill="#717681" d="M4.628 8.681a.65.65 0 0 1 .65.65v9.02a2.35 2.35 0 0 0 2.35 2.35h8.001a.65.65 0 1 1 0 1.3h-8a3.65 3.65 0 0 1-3.65-3.65v-9.02a.65.65 0 0 1 .65-.65Z"/><path fill="#717681" d="M9.67 18h4.252l1 1.3H9.67a3 3 0 0 1-3-3V8.574l1.3 1.69V16.3a1.7 1.7 0 0 0 1.7 1.7Z"/></svg>