<svg xmlns="http://www.w3.org/2000/svg" fill="none" viewBox="0 0 24 24" focusable="false"><path fill="#74767B" fill-rule="evenodd" d="M4.15626 2.10789C4.44077 1.88898 4.84888 1.94217 5.06778 2.22669L7.06301 4.81993C7.57958 3.91504 8.55365 3.30508 9.6702 3.30508L17.6499 3.30508C19.3068 3.30508 20.65 4.64822 20.65 6.30508L20.65 16.2996C20.65 17.7794 19.5785 19.0089 18.1691 19.2548L19.4969 20.9806C19.7158 21.2651 19.6626 21.6732 19.3781 21.8921C19.0936 22.111 18.6855 22.0578 18.4666 21.7733L7.9702 8.1309L7.9702 8.13203L6.6702 6.44239L6.6702 6.44126L4.03746 3.01942C3.81855 2.7349 3.87174 2.3268 4.15626 2.10789ZM9.6702 4.60508C8.8256 4.60508 8.12486 5.221 7.99264 6.02819L17.2033 17.9996L17.6499 17.9996C18.5888 17.9996 19.3499 17.2385 19.3499 16.2996L19.3499 6.30508C19.3499 5.36619 18.5888 4.60508 17.6499 4.60508L9.6702 4.60508ZM13.922 17.9996L9.6702 17.9996C8.73132 17.9996 7.9702 17.2385 7.9702 16.2996L7.9702 10.2639L6.6702 8.57426L6.6702 16.2996C6.6702 17.9564 8.01335 19.2996 9.6702 19.2996L14.9222 19.2996L13.922 17.9996ZM4.62833 8.68137C4.98731 8.68137 5.27833 8.97238 5.27833 9.33137L5.27833 18.3513C5.27833 19.6492 6.33046 20.7013 7.62833 20.7013L15.6291 20.7013C15.9881 20.7013 16.2791 20.9924 16.2791 21.3513C16.2791 21.7103 15.9881 22.0013 15.6291 22.0013L7.62833 22.0013C5.61249 22.0013 3.97833 20.3672 3.97833 18.3513L3.97833 9.33137C3.97833 8.97238 4.26934 8.68137 4.62833 8.68137Z"/></svg>