<svg xmlns="http://www.w3.org/2000/svg" fill="none" viewBox="0 0 24 24" focusable="false"><path d="M0 0H24V24H0z" transform="matrix(1 0 0 -1 0 24)"/><path fill="#74767B" fill-rule="evenodd" d="M4.26316 2.10789C4.54767 1.88898 4.95578 1.94217 5.17468 2.22669L5.92446 3.20119C6.26022 3.07125 6.62521 2.99999 7.00684 2.99999L17.0001 2.99999C18.6569 2.99999 20.0001 4.34314 20.0001 5.99999L20.0001 18C20.0001 18.8796 19.6215 19.6709 19.0183 20.2196L19.6038 20.9806C19.8227 21.2651 19.7695 21.6732 19.485 21.8921C19.2005 22.111 18.7924 22.0578 18.5735 21.7733L17.8781 20.8695L16.9773 19.7L16.9783 19.7L5.64973 4.97599L4.84013 3.92504L4.14436 3.01942C3.92545 2.7349 3.97864 2.3268 4.26316 2.10789ZM6.78128 4.31482C6.85508 4.30504 6.93037 4.29999 7.00684 4.29999L17.0001 4.29999C17.939 4.29999 18.7001 5.06111 18.7001 5.99999L18.7001 18C18.7001 18.4599 18.5175 18.8771 18.2208 19.1831L6.78128 4.31482ZM15.337 19.7L7.00683 19.7C6.06795 19.7 5.30684 18.9389 5.30684 18L5.30684 6.6635L4.13269 5.13743C4.05082 5.41061 4.00684 5.70017 4.00684 5.99999L4.00684 18C4.00684 19.6568 5.34998 21 7.00683 21L16.3372 21L15.337 19.7Z"/></svg>