<svg xmlns="http://www.w3.org/2000/svg" width="24" height="24" fill="none"><path fill="#717681" fill-rule="evenodd" d="M4.263 2.108a.65.65 0 0 1 .912.119l.75.974c.335-.13.7-.201 1.082-.201H17a3 3 0 0 1 3 3v12c0 .88-.378 1.67-.982 2.22l.586.76a.65.65 0 0 1-1.03.793l-.696-.904-.9-1.169L5.65 4.976l-.81-1.05s0-.001 0 0l-.696-.907a.65.65 0 0 1 .12-.911Zm2.518 2.207c.074-.01.15-.015.226-.015H17A1.7 1.7 0 0 1 18.7 6v12c0 .46-.183.877-.48 1.183L6.782 4.315Z" clip-rule="evenodd"/><path fill="#717681" d="M7.007 19.7h8.33l1 1.3h-9.33a3 3 0 0 1-3-3V6a3 3 0 0 1 .126-.863l1.174 1.527V18a1.7 1.7 0 0 0 1.7 1.7Z"/></svg>