<svg xmlns="http://www.w3.org/2000/svg" fill="none" viewBox="0 0 24 24" focusable="false"><path fill="#717681" fill-rule="evenodd" d="M5.06 2.22a.65.65 0 0 0-.91-.12c-.28.22-.34.63-.12.91l2.64 3.43 1.3 1.69 10.49 13.64c.22.28.63.34.91.12.29-.22.34-.63.12-.91l-1.33-1.73a3.01 3.01 0 0 0 2.48-2.96V6.3c0-1.66-1.34-3-3-3H9.67c-1.12 0-2.1.61-2.61 1.51zm2.93 3.8A1.7 1.7 0 0 1 9.67 4.6h7.97c.94 0 1.7.76 1.7 1.7v9.99c0 .94-.76 1.7-1.7 1.7h-.44zm5.93 11.97H9.67c-.94 0-1.7-.76-1.7-1.7v-6.03l-1.3-1.69v7.72c0 1.66 1.34 3 3 3h5.25zm-9.3-9.31c.36 0 .65.29.65.65v9.02a2.36 2.36 0 0 0 2.35 2.35h8c.36 0 .65.29.65.65s-.29.65-.65.65h-8c-2.01 0-3.65-1.64-3.65-3.65V9.33c0-.36.29-.65.65-.65"/></svg>