<svg xmlns="http://www.w3.org/2000/svg" width="24" height="24" fill="none"><path fill="#717681" fill-rule="evenodd" d="M4 6a3 3 0 0 1 3-3h6.48a3 3 0 0 1 2.052.811l3.52 3.3A3 3 0 0 1 20 9.3V18a3 3 0 0 1-3 3H7a3 3 0 0 1-3-3V6Zm14.155 3a.35.35 0 0 0 .247-.598l-3.805-3.805a.35.35 0 0 0-.597.248v2.73C14 8.362 14.598 9 15.336 9h2.819Zm-6.805-.006a.65.65 0 1 0 0-1.3H8.646a.65.65 0 0 0 0 1.3h2.704Zm4.65 2.86a.65.65 0 0 1-.65.65H8.646a.65.65 0 0 1 0-1.3h6.704a.65.65 0 0 1 .65.65Zm-.65 4.16a.65.65 0 1 0 0-1.3H8.646a.65.65 0 1 0 0 1.3h6.704Z" clip-rule="evenodd"/></svg>