<svg xmlns="http://www.w3.org/2000/svg" fill="none" viewBox="0 0 24 24" focusable="false"><defs><clipPath id="Description_Solid_svg__a"><path fill="#fff" fill-opacity="0" d="M0 0h24v24H0z"/></clipPath></defs><g clip-path="url(#Description_Solid_svg__a)"><path fill="#717681" fill-rule="evenodd" d="M4 6c0-1.66 1.34-3 3-3h6.48c.76 0 1.49.29 2.05.81l3.52 3.3c.6.56.95 1.36.95 2.18V18c0 1.65-1.35 3-3 3H7c-1.66 0-3-1.35-3-3zm14.15 3c.31 0 .47-.38.25-.6l-3.81-3.81c-.22-.22-.59-.06-.59.25v2.73c0 .79.59 1.43 1.33 1.43zm-6.8-.01c.35 0 .65-.29.65-.65s-.3-.65-.65-.65H8.64c-.36 0-.65.29-.65.65s.29.65.65.65zM16 11.85c0 .36-.3.65-.65.65H8.64c-.36 0-.65-.29-.65-.65s.29-.65.65-.65h6.71c.35 0 .65.29.65.65m-.65 4.16c.35 0 .65-.29.65-.65s-.3-.65-.65-.65H8.64c-.36 0-.65.29-.65.65s.29.65.65.65z"/></g></svg>