<svg xmlns="http://www.w3.org/2000/svg" fill="none" viewBox="0 0 24 24" focusable="false"><defs><clipPath id="Doc_attention_Solid_svg__a"><path fill="#fff" fill-opacity="0" d="M0 0h24v24H0z"/></clipPath></defs><g clip-path="url(#Doc_attention_Solid_svg__a)"><path fill="#717681" fill-rule="evenodd" d="M17.64 3.35c1.66 0 3 1.34 3 3v10c0 1.65-1.34 3-3 3h-8c-1.65 0-3-1.35-3-3v-10c0-1.66 1.35-3 3-3zM12.89 8c0-.42.34-.75.75-.75.42 0 .75.33.75.75v4a.749.749 0 1 1-1.5 0zM4 9.35c0-.36.29-.65.64-.65.36 0 .65.29.65.65v9.4c0 1.07.88 1.95 1.96 1.95h8.39c.36 0 .65.29.65.65 0 .35-.29.65-.65.65H7.25A3.25 3.25 0 0 1 4 18.75zm8.79 5.5c0 .46.39.85.85.85.47 0 .86-.39.86-.85a.856.856 0 0 0-1.71 0"/></g></svg>