<svg xmlns="http://www.w3.org/2000/svg" fill="none" viewBox="0 0 24 24" focusable="false"><path fill="#74767B" fill-rule="evenodd" d="M0 3C0 1.34315 1.34315 0 3 0L11 0C12.6569 0 14 1.34315 14 3L14 13C14 14.6569 12.6569 16 11 16L3 16C1.34315 16 0 14.6569 0 13L0 3ZM6.99999 3.89996C7.41421 3.89996 7.74999 4.23575 7.74999 4.64996L7.74999 8.64996C7.74999 9.06418 7.41421 9.39996 6.99999 9.39996C6.58578 9.39996 6.24999 9.06418 6.24999 8.64996L6.24999 4.64996C6.24999 4.23575 6.58578 3.89996 6.99999 3.89996ZM16.65 6C16.65 5.64102 16.359 5.35 16 5.35C15.641 5.35 15.35 5.64102 15.35 6L15.35 15.4C15.35 16.477 14.477 17.35 13.4 17.35L5 17.35C4.64102 17.35 4.35 17.641 4.35 18C4.35 18.359 4.64102 18.65 5 18.65L13.4 18.65C15.1949 18.65 16.65 17.1949 16.65 15.4L16.65 6ZM6.99999 12.35C7.46944 12.35 7.84999 11.9694 7.84999 11.5C7.84999 11.0305 7.46944 10.65 6.99999 10.65C6.53055 10.65 6.14999 11.0305 6.14999 11.5C6.14999 11.9694 6.53055 12.35 6.99999 12.35Z" transform="matrix(-1 0 0 1 20.65 3.35)"/></svg>