<svg xmlns="http://www.w3.org/2000/svg" fill="none" viewBox="0 0 24 24" focusable="false"><path fill="#74767B" fill-rule="evenodd" d="M17 3c1.65 0 3 1.34 3 3v12c0 1.65-1.35 3-3 3H7c-1.65 0-3-1.35-3-3V6c0-1.66 1.35-3 3-3zM7 4.29h10c.93 0 1.7.77 1.7 1.71v12c0 .93-.77 1.7-1.7 1.7H7c-.94 0-1.7-.77-1.7-1.7V6c0-.94.76-1.71 1.7-1.71m5.94 9.76c-.18 0-.35-.07-.48-.21a.66.66 0 0 1 .04-.92l.88-.93h-.76c-1.3 0-2.35 1.05-2.35 2.35v.35c0 .36-.29.65-.65.65s-.65-.29-.65-.65v-.35c0-2.02 1.64-3.65 3.65-3.65.28-.01.33-.01.45-.01h.31l-.88-.9a.65.65 0 0 1-.04-.92c.24-.26.65-.28.92-.04l2.04 1.99c.31.28.31.76 0 1.04l-2.04 2.03c-.13.12-.28.17-.44.17"/></svg>