<svg xmlns="http://www.w3.org/2000/svg" fill="none" viewBox="0 0 24 24" focusable="false"><path fill="#717681" fill-rule="evenodd" d="M17 3a3 3 0 0 1 3 3v12a3 3 0 0 1-3 3H7.007a3 3 0 0 1-3-3V6a3 3 0 0 1 3-3zm-4.056 11.057c-.18 0-.35-.07-.48-.21a.66.66 0 0 1 .04-.92l.884-.936h-.76a2.35 2.35 0 0 0-2.35 2.35v.35a.65.65 0 1 1-1.3 0v-.35a3.65 3.65 0 0 1 3.65-3.65c.28-.006.332-.006.448-.004l.308.001-.88-.9a.65.65 0 0 1-.04-.92c.24-.26.65-.28.92-.04l2.04 1.99c.31.28.31.76 0 1.04l-2.04 2.029c-.13.12-.28.17-.44.17" clip-rule="evenodd"/></svg>