<svg xmlns="http://www.w3.org/2000/svg" fill="none" viewBox="0 0 24 24" focusable="false"><path fill="#717681" fill-rule="evenodd" d="M20 6a3 3 0 0 0-3-3H7.007a3 3 0 0 0-3 3v12a3 3 0 0 0 3 3H17a3 3 0 0 0 3-3zm-3-1.7H7.007a1.7 1.7 0 0 0-1.7 1.7v12a1.7 1.7 0 0 0 1.7 1.7H17a1.7 1.7 0 0 0 1.7-1.7V6A1.7 1.7 0 0 0 17 4.3" clip-rule="evenodd"/><path fill="#717681" d="M12.464 13.847c.13.14.3.21.48.21.16 0 .31-.05.44-.17l2.04-2.029c.31-.28.31-.76 0-1.04l-2.04-1.99a.658.658 0 0 0-.92.04.65.65 0 0 0 .04.92l.88.9c-.437 0-.32-.007-.757.003a3.65 3.65 0 0 0-3.65 3.65v.35a.65.65 0 1 0 1.3 0v-.35a2.35 2.35 0 0 1 2.35-2.35h.761l-.884.936c-.26.24-.28.65-.04.92"/></svg>