<svg xmlns="http://www.w3.org/2000/svg" fill="none" viewBox="0 0 24 24" focusable="false"><path fill="#74767B" fill-rule="evenodd" d="M20 6c0-1.66-1.35-3-3-3H7C5.35 3 4 4.34 4 6v12c0 1.65 1.35 3 3 3h10c1.65 0 3-1.35 3-3zm-3-1.71H7c-.94 0-1.7.77-1.7 1.71v12c0 .93.76 1.7 1.7 1.7h10c.93 0 1.7-.77 1.7-1.7V6c0-.94-.77-1.71-1.7-1.71M8.69 8.21c.13-.12.29-.19.46-.19h5.74c.24 0 .46.13.57.34.12.21.11.47-.03.67l-1.3 1.98 1.3 1.98c.14.2.15.46.03.67a.64.64 0 0 1-.57.34H9.8v1.4c0 .36-.29.65-.65.65s-.65-.29-.65-.65V8.67c0-.17.07-.34.19-.46M9.8 12.7h3.89l-.88-1.34a.65.65 0 0 1 0-.71l.88-1.33H9.8z"/></svg>