<svg xmlns="http://www.w3.org/2000/svg" fill="none" viewBox="0 0 24 24" focusable="false"><path fill="#74767B" fill-rule="evenodd" d="M20.64 6.35c0-1.66-1.34-3-3-3h-8c-1.65 0-3 1.34-3 3v10c0 1.65 1.35 3 3 3h8c1.66 0 3-1.35 3-3zm-16 2.35c-.35 0-.64.29-.64.65v9.4A3.25 3.25 0 0 0 7.25 22h8.39c.36 0 .65-.3.65-.65 0-.36-.29-.65-.65-.65H7.25c-1.08 0-1.95-.88-1.95-1.95v-9.4c0-.36-.3-.65-.66-.65m8.17 5.44c.28.28.74.27 1.01-.02l3.66-3.97c.24-.27.22-.68-.04-.92a.65.65 0 0 0-.92.04l-3.23 3.51-1.94-1.95a.66.66 0 0 0-.92 0c-.25.25-.25.67 0 .92z"/></svg>