<svg xmlns="http://www.w3.org/2000/svg" fill="none" viewBox="0 0 24 24" focusable="false"><defs><clipPath id="Doc_Ok_Outline_svg__a"><path fill="#fff" fill-opacity="0" d="M0 0h24v24H0z"/></clipPath></defs><g clip-path="url(#Doc_Ok_Outline_svg__a)"><path fill="#717681" fill-rule="evenodd" d="M17.64 3.35c1.66 0 3 1.34 3 3v10c0 1.65-1.34 3-3 3h-8c-1.65 0-3-1.35-3-3v-10c0-1.66 1.35-3 3-3zm-8 1.3h8c.94 0 1.71.76 1.71 1.7v10c0 .93-.77 1.69-1.71 1.69h-8c-.93 0-1.7-.76-1.7-1.69v-10c0-.94.77-1.7 1.7-1.7m-5 4.05c-.35 0-.64.29-.64.65v9.4A3.25 3.25 0 0 0 7.25 22h8.39c.36 0 .65-.3.65-.65 0-.36-.29-.65-.65-.65H7.25c-1.08 0-1.95-.88-1.95-1.95v-9.4c0-.36-.3-.65-.66-.65m9.18 5.42c-.27.29-.73.3-1.01.02l-2.38-2.39a.658.658 0 0 1 0-.92c.25-.25.67-.25.92 0l1.94 1.95 3.23-3.51a.65.65 0 0 1 .92-.04c.26.24.28.65.04.92z"/></g></svg>