<svg xmlns="http://www.w3.org/2000/svg" width="24" height="24" fill="none"><path fill="#717681" fill-rule="evenodd" d="M17.65 3.35a3 3 0 0 1 3 3v10a3 3 0 0 1-3 3h-8a3 3 0 0 1-3-3v-10a3 3 0 0 1 3-3h8Zm-3.829 10.773c-.27.29-.73.3-1.01.02l-2.375-2.386a.658.658 0 0 1 0-.92c.25-.25.67-.25.92 0l1.935 1.946 3.237-3.506a.65.65 0 0 1 .92-.04c.26.24.28.65.04.92l-3.667 3.966Z" clip-rule="evenodd"/><path fill="#717681" d="M4 9.35a.65.65 0 1 1 1.3 0v9.4a1.95 1.95 0 0 0 1.95 1.95h8.4a.65.65 0 0 1 0 1.3h-8.4A3.25 3.25 0 0 1 4 18.75v-9.4Z"/></svg>