<svg xmlns="http://www.w3.org/2000/svg" fill="none" viewBox="0 0 24 24" focusable="false"><defs><clipPath id="Doc_operations_Solid_svg__a"><path fill="#fff" fill-opacity="0" d="M0 0h24v24H0z"/></clipPath></defs><g clip-path="url(#Doc_operations_Solid_svg__a)"><path fill="#717681" fill-rule="evenodd" d="M17 3c1.65 0 3 1.34 3 3v12c0 1.65-1.35 3-3 3H7c-1.65 0-3-1.35-3-3V6c0-1.66 1.35-3 3-3zm-6.53 7.5c.13.14.3.21.48.21.16 0 .31-.05.44-.17l2.04-2.03c.31-.28.31-.76 0-1.04l-2.04-1.99a.66.66 0 0 0-.92.04.65.65 0 0 0 .04.92l.88.9h-.31c-.11 0-.17 0-.45.01-2.01 0-3.65 1.63-3.65 3.65v.35c0 .35.29.65.65.65s.65-.3.65-.65V11c0-1.3 1.05-2.35 2.35-2.35h.76l-.88.93c-.26.24-.28.65-.04.92m3.04 2.99a.65.65 0 0 0-.48-.21c-.16 0-.31.05-.44.17l-2.04 2.03c-.31.28-.31.76 0 1.04l2.04 1.99c.27.24.68.22.92-.04a.65.65 0 0 0-.04-.92l-.88-.9h.31c.12 0 .17 0 .45-.01 2.02 0 3.65-1.63 3.65-3.65v-.35c0-.36-.29-.65-.65-.65s-.65.29-.65.65v.35c0 1.3-1.05 2.35-2.35 2.35h-.76l.88-.93c.26-.24.28-.65.04-.92"/></g></svg>