<svg xmlns="http://www.w3.org/2000/svg" fill="none" viewBox="0 0 24 24" focusable="false"><path fill="#717681" fill-rule="evenodd" d="M17 3a3 3 0 0 1 3 3v12a3 3 0 0 1-3 3H7.007a3 3 0 0 1-3-3V6a3 3 0 0 1 3-3zm-6.525 7.506c.13.14.3.21.48.21.16 0 .31-.05.44-.17l2.04-2.029c.31-.28.31-.76 0-1.04l-2.04-1.991a.66.66 0 0 0-.92.04.65.65 0 0 0 .04.92l.88.901-.309-.001a10 10 0 0 0-.448.004A3.65 3.65 0 0 0 6.988 11v.35a.65.65 0 1 0 1.3 0V11a2.35 2.35 0 0 1 2.35-2.35h.76l-.883.936c-.26.24-.28.65-.04.92m3.044 2.986a.65.65 0 0 0-.48-.21c-.16 0-.31.05-.44.17l-2.04 2.029c-.31.28-.31.76 0 1.04l2.04 1.991c.27.24.68.22.92-.04a.65.65 0 0 0-.04-.92l-.88-.901c.157 0 .243 0 .308.002.117 0 .17.001.449-.005a3.65 3.65 0 0 0 3.65-3.65v-.35a.65.65 0 1 0-1.3 0v.35a2.35 2.35 0 0 1-2.35 2.35h-.76l.883-.936c.26-.24.28-.65.04-.92" clip-rule="evenodd"/></svg>