<svg xmlns="http://www.w3.org/2000/svg" fill="none" viewBox="0 0 24 24" focusable="false"><path fill="#717681" fill-rule="evenodd" d="M20 6a3 3 0 0 0-3-3H7.007a3 3 0 0 0-3 3v12a3 3 0 0 0 3 3H17a3 3 0 0 0 3-3V6Zm-3-1.7H7.007a1.7 1.7 0 0 0-1.7 1.7v12a1.7 1.7 0 0 0 1.7 1.7H17a1.7 1.7 0 0 0 1.7-1.7V6A1.7 1.7 0 0 0 17 4.3Z" clip-rule="evenodd"/><path fill="#717681" d="M11.281 14.415c.28.28.74.27 1.01-.02l3.52-3.586c.24-.27.22-.68-.04-.92a.65.65 0 0 0-.92.04l-3.09 3.126-1.604-1.498a.658.658 0 0 0-.92 0c-.25.25-.25.67 0 .92l2.044 1.938Z"/></svg>