<svg xmlns="http://www.w3.org/2000/svg" fill="none" viewBox="0 0 24 24" focusable="false"><path fill="#74767B" fill-rule="evenodd" d="M20.0001 6C20.0001 4.34315 18.6569 3 17.0001 3L7.00684 3C5.34998 3 4.00684 4.34315 4.00684 6L4.00684 18C4.00684 19.6569 5.34998 21 7.00684 21L17.0001 21C18.6569 21 20.0001 19.6569 20.0001 18L20.0001 6ZM17.0001 4.3L7.00684 4.3C6.06795 4.3 5.30684 5.06112 5.30684 6L5.30684 18C5.30684 18.9389 6.06795 19.7 7.00684 19.7L17.0001 19.7C17.939 19.7 18.7001 18.9389 18.7001 18L18.7001 6C18.7001 5.06112 17.939 4.3 17.0001 4.3ZM12.291 14.3952C12.021 14.6852 11.561 14.6952 11.281 14.4152L9.23652 12.4767C8.98652 12.2267 8.98652 11.8067 9.23652 11.5567C9.48652 11.3067 9.90652 11.3067 10.1565 11.5567L11.761 13.0552L14.8517 9.92847C15.0917 9.65847 15.5117 9.64847 15.7717 9.88847C16.0317 10.1285 16.0517 10.5385 15.8117 10.8085L12.291 14.3952Z"/></svg>