<svg xmlns="http://www.w3.org/2000/svg" fill="none" viewBox="0 0 24 24" focusable="false"><path fill="#717681" d="m10.546 12.878-.73-.58a2.7 2.7 0 1 0 3.329-2.915c-.35-.085-.644-.376-.644-.735 0-.36.293-.648.647-.59a4.002 4.002 0 0 1-.647 7.948 4 4 0 0 1-3.966-3.473l-.542.84c-.199.3-.599.393-.9.193a.65.65 0 0 1-.193-.9l1.45-2.179a.69.69 0 0 1 1.003-.182l1.949 1.53a.65.65 0 0 1 .135.911.526.526 0 0 1-.381.252.66.66 0 0 1-.51-.12"/><path fill="#717681" fill-rule="evenodd" d="M17 3a3 3 0 0 1 3 3v12a3 3 0 0 1-3 3H7.007a3 3 0 0 1-3-3V6a3 3 0 0 1 3-3zM7.007 4.3H17A1.7 1.7 0 0 1 18.7 6v12a1.7 1.7 0 0 1-1.7 1.7H7.007a1.7 1.7 0 0 1-1.7-1.7V6a1.7 1.7 0 0 1 1.7-1.7" clip-rule="evenodd"/></svg>