<svg xmlns="http://www.w3.org/2000/svg" fill="none" viewBox="0 0 24 24" focusable="false"><path fill="#74767B" fill-rule="evenodd" d="M20 6c0-1.66-1.35-3-3-3H7C5.35 3 4 4.34 4 6v12c0 1.65 1.35 3 3 3h10c1.65 0 3-1.35 3-3zM9.81 12.29l.73.58c.15.12.34.15.51.12.16-.03.3-.1.38-.25.21-.29.16-.7-.13-.91L9.35 10.3c-.32-.25-.78-.16-1.01.18l-1.45 2.18c-.19.3-.1.7.2.9s.7.11.9-.19l.54-.84A4.005 4.005 0 0 0 12.5 16c2.2 0 4-1.79 4-4 0-1.75-1.13-3.24-2.7-3.78-.21-.07-.43-.13-.66-.17-.35-.05-.64.23-.64.59s.29.65.64.74c.11.03.22.06.33.1 1.01.39 1.73 1.37 1.73 2.52 0 1.49-1.21 2.7-2.7 2.7a2.7 2.7 0 0 1-2.69-2.41"/></svg>