<svg xmlns="http://www.w3.org/2000/svg" fill="none" viewBox="0 0 24 24" focusable="false"><path fill="#717681" d="M14.025 7.898a.65.65 0 0 1-.65.65H10.67a.65.65 0 1 1 0-1.3h2.704a.65.65 0 0 1 .65.65M16.628 12.057a.65.65 0 1 0 0-1.3H10.67a.65.65 0 1 0 0 1.3h5.958M17.278 14.917a.65.65 0 0 1-.65.65H10.67a.65.65 0 1 1 0-1.3h5.958a.65.65 0 0 1 .65.65"/><path fill="#717681" fill-rule="evenodd" d="M17.65 3.35a3 3 0 0 1 3 3v10a3 3 0 0 1-3 3h-8a3 3 0 0 1-3-3v-10a3 3 0 0 1 3-3h8m-8 1.3h8a1.7 1.7 0 0 1 1.7 1.7v10a1.7 1.7 0 0 1-1.7 1.7h-8a1.7 1.7 0 0 1-1.7-1.7v-10a1.7 1.7 0 0 1 1.7-1.7" clip-rule="evenodd"/><path fill="#717681" d="M4 9.35a.65.65 0 1 1 1.3 0v9.4a1.95 1.95 0 0 0 1.95 1.95h8.4a.65.65 0 0 1 0 1.3h-8.4A3.25 3.25 0 0 1 4 18.75v-9.4"/></svg>