<svg xmlns="http://www.w3.org/2000/svg" fill="none" viewBox="0 0 24 24" focusable="false"><path fill="#74767B" fill-rule="evenodd" d="M7 3C5.34 3 4 4.34 4 6v12c0 1.65 1.34 3 3 3h10c1.65 0 3-1.35 3-3V6c0-1.66-1.35-3-3-3zm2.29 10.16c.28-.56.51-1.11.63-1.6.13-.56.17-1.29-.41-1.79-.51-.45-1.3-.49-2.19-.36a.648.648 0 1 0 .19 1.28c.84-.12 1.1.02 1.15.06.01.01.02.02.03.08.02.08.01.22-.04.43-.1.43-.34.98-.69 1.65q-.285.555-.6 1.14c-.17.31-.34.63-.52.98a.647.647 0 0 0 .96.82l3.21-2.33.55.96c.35.6 1.2.64 1.6.07l.93-1.33a1.65 1.65 0 0 1 2.52-.23l.04.04c.25.25.66.25.92 0 .25-.25.25-.67 0-.92l-.04-.04c-1.3-1.3-3.46-1.1-4.51.4l-.61.88-.47-.82a.956.956 0 0 0-1.38-.29z"/></svg>