<svg xmlns="http://www.w3.org/2000/svg" fill="none" viewBox="0 0 24 24" focusable="false"><path fill="#717681" d="M9.92 11.569c-.116.49-.349 1.037-.62 1.593l1.261-.917a.95.95 0 0 1 1.382.294l.473.82.612-.88a2.95 2.95 0 0 1 4.507-.4l.037.036a.65.65 0 0 1-.919.92l-.037-.038a1.65 1.65 0 0 0-2.52.224l-.929 1.332a.95.95 0 0 1-1.602-.068l-.554-.96-3.21 2.333a.65.65 0 0 1-.957-.827 80.1 80.1 0 0 1 .523-.98c.21-.388.412-.762.603-1.137.34-.667.584-1.22.686-1.646.05-.21.054-.349.042-.43-.01-.065-.025-.078-.03-.082l-.001-.001c-.048-.042-.31-.176-1.157-.057a.65.65 0 1 1-.18-1.287c.881-.124 1.674-.085 2.19.363.571.496.534 1.234.4 1.795Z"/><path fill="#717681" fill-rule="evenodd" d="M4 6a3 3 0 0 1 3-3h10a3 3 0 0 1 3 3v12a3 3 0 0 1-3 3H7a3 3 0 0 1-3-3V6Zm3-1.7h10A1.7 1.7 0 0 1 18.7 6v12a1.7 1.7 0 0 1-1.7 1.7H7A1.7 1.7 0 0 1 5.3 18V6A1.7 1.7 0 0 1 7 4.3Z" clip-rule="evenodd"/></svg>