<svg xmlns="http://www.w3.org/2000/svg" fill="none" viewBox="0 0 24 24" focusable="false"><path fill="#717681" fill-rule="evenodd" d="M20 6c0-1.66-1.35-3-3-3H7C5.35 3 4 4.34 4 6v12c0 1.65 1.35 3 3 3h10c1.65 0 3-1.35 3-3zm-7.35 1.21c0-.36-.29-.65-.65-.65s-.65.29-.65.65v.9c-.62.09-1.19.33-1.68.68l-.63-.63a.66.66 0 0 0-.92 0c-.25.26-.25.67 0 .92l.62.62c-.36.49-.61 1.07-.72 1.69h-.85c-.36 0-.65.29-.65.65s.29.65.65.65h.85c.1.63.34 1.21.7 1.71l-.6.6c-.25.25-.25.66 0 .92.26.25.67.25.92 0l.6-.6c.5.36 1.08.6 1.71.7v.85c0 .36.29.65.65.65s.65-.29.65-.65v-.86c.62-.1 1.2-.35 1.69-.71l.62.62c.25.25.66.25.91 0a.64.64 0 0 0 0-.92l-.62-.63c.35-.49.59-1.06.68-1.68h.9c.36 0 .65-.29.65-.65s-.29-.65-.65-.65h-.91a3.9 3.9 0 0 0-.69-1.66l.64-.65a.64.64 0 0 0 0-.92.646.646 0 0 0-.91 0l-.65.65c-.48-.35-1.05-.59-1.66-.7zm-.68 7.56a2.706 2.706 0 1 0 .008-5.412 2.706 2.706 0 0 0-.008 5.412m1.04-2.67c0 .55-.45 1-1 1s-1-.45-1-1 .45-1 1-1 1 .45 1 1"/></svg>