<svg xmlns="http://www.w3.org/2000/svg" fill="none" viewBox="0 0 24 24" focusable="false"><path fill="#74767B" fill-rule="evenodd" d="M4 6c0-1.66 1.34-3 3-3h6.48c.76 0 1.49.29 2.05.81l3.52 3.3c.6.56.95 1.36.95 2.18V18c0 1.65-1.35 3-3 3H7c-1.66 0-3-1.35-3-3zm3-1.7h6.48c.19 0 .38.03.56.09v2.66c0 1.07.88 1.95 1.95 1.95h2.68c.02.09.03.19.03.29V18c0 .93-.77 1.7-1.7 1.7H7c-.94 0-1.7-.77-1.7-1.7V6c0-.94.76-1.7 1.7-1.7m10.78 3.4-2.44-2.28v1.63c0 .36.3.65.65.65zm-5.13 1.94c0-.35-.3-.64-.65-.64-.36 0-.65.29-.65.64V12H9c-.36 0-.65.29-.65.65 0 .35.29.65.65.65h2.35v2.35c0 .35.29.64.65.64.35 0 .65-.29.65-.64V13.3H15c.35 0 .65-.3.65-.65 0-.36-.3-.65-.65-.65h-2.35z"/></svg>