<svg xmlns="http://www.w3.org/2000/svg" fill="none" viewBox="0 0 24 24" focusable="false"><path fill="#717681" d="M12 9a.65.65 0 0 1 .65.65V12H15a.65.65 0 1 1 0 1.3h-2.35v2.35a.65.65 0 1 1-1.3 0V13.3H9A.65.65 0 1 1 9 12h2.35V9.65A.65.65 0 0 1 12 9"/><path fill="#717681" fill-rule="evenodd" d="M7 3a3 3 0 0 0-3 3v12a3 3 0 0 0 3 3h10a3 3 0 0 0 3-3V9.3a3 3 0 0 0-.948-2.189l-3.52-3.3A3 3 0 0 0 13.48 3zm6.48 1.3H7A1.7 1.7 0 0 0 5.3 6v12A1.7 1.7 0 0 0 7 19.7h10a1.7 1.7 0 0 0 1.7-1.7V9.3q0-.15-.026-.297H16a1.95 1.95 0 0 1-1.95-1.95V4.398a1.7 1.7 0 0 0-.57-.098m1.87 1.122 2.432 2.28H16a.65.65 0 0 1-.65-.65z" clip-rule="evenodd"/></svg>