<svg xmlns="http://www.w3.org/2000/svg" fill="none" viewBox="0 0 24 24" focusable="false"><defs><clipPath id="Doc_View_Solid_svg__a"><path fill="#fff" fill-opacity="0" d="M0 0h24v24H0z"/></clipPath></defs><g clip-path="url(#Doc_View_Solid_svg__a)"><path fill="#74767B" fill-rule="evenodd" d="M20 6c0-1.66-1.35-3-3-3H7C5.35 3 4 4.34 4 6v12c0 1.65 1.35 3 3 3h10c1.65 0 3-1.35 3-3zm-8 2.01c-2.45 0-4.07 2.08-4.79 3.23-.28.45-.28 1.04 0 1.49.72 1.15 2.34 3.22 4.79 3.22 2.44 0 4.07-2.07 4.79-3.22.28-.45.28-1.04 0-1.49-.72-1.15-2.35-3.23-4.79-3.23m-3.69 3.91c.32-.51.82-1.18 1.47-1.72s1.39-.89 2.22-.89 1.57.35 2.21.89c.66.54 1.16 1.21 1.47 1.72.01.01.02.04.02.06 0 .03-.01.05-.02.06-.31.51-.81 1.19-1.47 1.73-.64.53-1.38.88-2.21.88s-1.57-.35-2.22-.88c-.65-.54-1.15-1.22-1.47-1.73 0-.01-.01-.03-.01-.06 0-.02.01-.05.01-.06M12 13.73c.95 0 1.73-.78 1.73-1.73 0-.96-.78-1.74-1.73-1.74-.96 0-1.74.78-1.74 1.74 0 .95.78 1.73 1.74 1.73"/></g></svg>