<svg xmlns="http://www.w3.org/2000/svg" fill="none" viewBox="0 0 24 24" focusable="false"><path fill="#717681" fill-rule="evenodd" d="M15 2.34c1.54 0 2.81 1.17 2.98 2.67q.06.015.15.03c1.43.23 2.52 1.46 2.52 2.96v10c0 1.65-1.35 3-3 3h-8c-1.31 0-2.42-.84-2.83-2C5.24 18.9 4 17.6 4 16V5.34c0-1.65 1.34-3 3-3zM9.65 5h7.01c-.16-.78-.84-1.36-1.66-1.36H7c-.94 0-1.7.77-1.7 1.7V16c0 .75.48 1.38 1.14 1.61.02 0 .04.01.06.01.05.02.1.03.15.04V8c0-1.66 1.34-3 3-3m4.65 4.99c0-.36-.29-.65-.65-.65s-.65.29-.65.65v2.35h-2.35c-.36 0-.65.29-.65.65s.29.65.65.65H13v2.35c0 .36.29.65.65.65s.65-.29.65-.65v-2.35h2.35c.36 0 .65-.29.65-.65s-.29-.65-.65-.65H14.3z"/></svg>