<svg xmlns="http://www.w3.org/2000/svg" width="24" height="24" fill="none"><path fill="#717681" fill-rule="evenodd" d="M15 2.35a3 3 0 0 1 2.982 2.669 3 3 0 0 1 2.668 2.983v10a3 3 0 0 1-3 3h-8A3.001 3.001 0 0 1 6.82 19 3 3 0 0 1 4 16.006V5.35a3 3 0 0 1 3-3h8ZM9.65 5.002h7.015A1.7 1.7 0 0 0 15 3.65H7a1.7 1.7 0 0 0-1.7 1.7v10.656a1.7 1.7 0 0 0 1.148 1.608.64.64 0 0 1 .054.014c.048.015.097.027.147.038V8.002a3 3 0 0 1 3-3Zm4.653 4.997a.65.65 0 1 0-1.3 0v2.35h-2.35a.65.65 0 1 0 0 1.3h2.35v2.35a.65.65 0 1 0 1.3 0v-2.35h2.35a.65.65 0 1 0 0-1.3h-2.35v-2.35Z" clip-rule="evenodd"/></svg>