<svg xmlns="http://www.w3.org/2000/svg" fill="none" viewBox="0 0 24 24" focusable="false"><defs><clipPath id="File_XLS_Outline_svg__a"><path fill="#fff" fill-opacity="0" d="M0 0h24v24H0z"/></clipPath></defs><g clip-path="url(#File_XLS_Outline_svg__a)"><path fill="#717681" fill-rule="evenodd" d="M5 11V6c0-1.66 1.34-3 3-3h5.04c.83 0 1.63.34 2.19.95l2.96 3.18c.52.56.81 1.29.81 2.04V11c1.65 0 3 1.34 3 3v4c0 1.65-1.35 3-3 3H5c-1.66 0-3-1.35-3-3v-4c0-1.66 1.34-3 3-3m8.04-6.71H8c-.94 0-1.7.77-1.7 1.71v5h11.4V9.17c0-.06-.01-.12-.01-.18h-2.4c-1.07 0-1.95-.87-1.95-1.95V4.32q-.15-.03-.3-.03m1.6.94 2.3 2.46h-1.65c-.35 0-.65-.29-.65-.65zM5 12.3h14c.93 0 1.7.76 1.7 1.7v4c0 .93-.77 1.7-1.7 1.7H5c-.94 0-1.7-.77-1.7-1.7v-4c0-.94.76-1.7 1.7-1.7m1.95 1.55a.657.657 0 0 0-.91-.16c-.29.21-.36.62-.15.91l.99 1.4-.99 1.39a.648.648 0 1 0 1.06.75l.73-1.03.74 1.03c.21.3.61.37.9.16.3-.21.36-.62.15-.91L8.48 16l.99-1.4a.646.646 0 1 0-1.05-.75l-.74 1.03zm4.81-.27c.36 0 .65.29.65.65v2.89h1.07c.36 0 .65.29.65.65s-.29.65-.65.65h-1.72c-.36 0-.65-.29-.65-.65v-3.54c0-.36.29-.65.65-.65m5.68 0c.36 0 .65.29.65.65s-.29.65-.65.65h-.86c-.11 0-.21.09-.21.21 0 .08.06.16.14.19l.75.28c.58.22.96.77.96 1.38 0 .82-.66 1.48-1.47 1.48h-1.03c-.36 0-.65-.29-.65-.65s.29-.65.65-.65h1.03c.1 0 .17-.08.17-.18 0-.07-.04-.13-.11-.16l-.75-.28c-.59-.22-.99-.78-.99-1.41 0-.84.68-1.51 1.51-1.51z"/></g></svg>