<svg xmlns="http://www.w3.org/2000/svg" fill="none" viewBox="0 0 24 24" focusable="false"><path fill="#74767B" fill-rule="evenodd" d="M5 11V6c0-1.66 1.34-3 3-3h5.04c.83 0 1.63.34 2.19.95l2.96 3.18c.52.56.81 1.29.81 2.04V11c1.65 0 3 1.34 3 3v4c0 1.65-1.35 3-3 3H5c-1.66 0-3-1.35-3-3v-4c0-1.66 1.34-3 3-3m8.04-6.71H8c-.94 0-1.7.77-1.7 1.71v5h11.4V9.17c0-.06-.01-.12-.01-.18h-2.4c-1.07 0-1.95-.87-1.95-1.95V4.32q-.15-.03-.3-.03m1.6.94 2.3 2.46h-1.65c-.35 0-.65-.29-.65-.65zM5.51 18.21c.12.13.29.19.46.19h1.17c1.07 0 1.95-.87 1.95-1.95v-.91c0-1.08-.88-1.95-1.95-1.95H5.97a.62.62 0 0 0-.46.19c-.12.12-.19.28-.19.46v3.51c0 .18.07.34.19.46m6.71.19c-1.04 0-1.88-.84-1.88-1.88v-1.05c0-1.04.84-1.88 1.88-1.88s1.89.84 1.89 1.88v1.05c0 1.04-.85 1.88-1.89 1.88m5.11-1.3c-.36 0-.65-.29-.65-.65v-.91c0-.36.29-.65.65-.65h.69c.36 0 .65-.29.65-.65s-.29-.65-.65-.65h-.69c-1.08 0-1.95.87-1.95 1.95v.91c0 1.08.87 1.95 1.95 1.95h.69c.36 0 .65-.29.65-.65s-.29-.65-.65-.65zM6.62 14.89v2.21h.52c.36 0 .65-.29.65-.65v-.91c0-.36-.29-.65-.65-.65zm5.6 2.21a.58.58 0 0 1-.58-.58v-1.05c0-.32.26-.58.58-.58s.59.26.59.58v1.05c0 .32-.27.58-.59.58"/></svg>