<svg xmlns="http://www.w3.org/2000/svg" fill="none" viewBox="0 0 24 24" focusable="false"><defs><clipPath id="File_JPG_Outline_svg__a"><path fill="#fff" fill-opacity="0" d="M0 0h24v24H0z"/></clipPath></defs><g clip-path="url(#File_JPG_Outline_svg__a)"><path fill="#74767B" fill-rule="evenodd" d="M5 6v5c-1.66 0-3 1.34-3 3v4c0 1.65 1.34 3 3 3h14c1.65 0 3-1.35 3-3v-4c0-1.66-1.35-3-3-3V9.17c0-.75-.29-1.48-.81-2.04l-2.96-3.18c-.56-.61-1.36-.95-2.19-.95H8C6.34 3 5 4.34 5 6m3-1.71h5.04q.15 0 .3.03v2.72c0 1.08.88 1.95 1.95 1.95h2.4c0 .06.01.12.01.18V11H6.3V6c0-.94.76-1.71 1.7-1.71m6.64 2.75V5.23l2.3 2.46h-1.65c-.35 0-.65-.29-.65-.65M19 12.3H5c-.94 0-1.7.76-1.7 1.7v4c0 .93.76 1.7 1.7 1.7h14c.93 0 1.7-.77 1.7-1.7v-4c0-.94-.77-1.7-1.7-1.7M7.98 13.59c.36 0 .65.29.65.65v2.22c0 1.07-.87 1.95-1.95 1.95h-.63c-.36 0-.65-.29-.65-.65s.29-.65.65-.65h.63c.36 0 .65-.29.65-.65v-2.22c0-.36.29-.65.65-.65m3.43 4.17c0 .36-.29.65-.65.65s-.65-.29-.65-.65v-3.52c0-.36.29-.65.65-.65h1.32c.99 0 1.8.8 1.8 1.8 0 .99-.81 1.79-1.8 1.79h-.67zm5.52-2.87c-.36 0-.65.29-.65.65v.92c0 .36.29.65.65.65h.31c.03 0 .05-.03.05-.05v-.5c0-.36.29-.65.65-.65s.65.29.65.65v.5c0 .74-.6 1.35-1.35 1.35h-.31c-1.08 0-1.95-.88-1.95-1.95v-.92c0-1.08.87-1.95 1.95-1.95h1.01c.36 0 .65.29.65.65s-.29.65-.65.65zm-5.52 0v.99h.67a.495.495 0 1 0 0-.99z"/></g></svg>