<svg xmlns="http://www.w3.org/2000/svg" fill="none" viewBox="0 0 24 24" focusable="false"><defs><clipPath id="File_JPG_Solid_svg__a"><path fill="#fff" fill-opacity="0" d="M0 0h24v24H0z"/></clipPath></defs><g clip-path="url(#File_JPG_Solid_svg__a)"><path fill="#717681" fill-rule="evenodd" d="M5 11V6c0-1.66 1.34-3 3-3h5.04c.83 0 1.63.34 2.19.95l2.96 3.18c.52.56.81 1.29.81 2.04V11c1.65 0 3 1.34 3 3v4c0 1.65-1.35 3-3 3H5c-1.66 0-3-1.35-3-3v-4c0-1.66 1.34-3 3-3m8.04-6.71H8c-.94 0-1.7.77-1.7 1.71v5h11.4V9.17c0-.06-.01-.12-.01-.18h-2.4c-1.07 0-1.95-.87-1.95-1.95V4.32q-.15-.03-.3-.03m1.6.94 2.3 2.46h-1.65c-.35 0-.65-.29-.65-.65zm-6.66 8.36c.36 0 .65.29.65.65v2.22c0 1.07-.87 1.95-1.95 1.95h-.63c-.36 0-.65-.29-.65-.65s.29-.65.65-.65h.63c.36 0 .65-.29.65-.65v-2.22c0-.36.29-.65.65-.65m2.78 4.82c.36 0 .65-.29.65-.65v-.58h.67c.99 0 1.8-.8 1.8-1.79 0-1-.81-1.8-1.8-1.8h-1.32c-.36 0-.65.29-.65.65v3.52c0 .36.29.65.65.65m5.52-2.87c0-.36.29-.65.65-.65h1.01c.36 0 .65-.29.65-.65s-.29-.65-.65-.65h-1.01c-1.08 0-1.95.87-1.95 1.95v.92c0 1.07.87 1.95 1.95 1.95h.31c.75 0 1.35-.61 1.35-1.35v-.5c0-.36-.29-.65-.65-.65s-.65.29-.65.65v.5c0 .02-.02.05-.05.05h-.31c-.36 0-.65-.29-.65-.65zm-4.87.34v-.99h.67a.495.495 0 1 1 0 .99z"/></g></svg>