<svg xmlns="http://www.w3.org/2000/svg" fill="none" viewBox="0 0 24 24" focusable="false"><path fill="#74767B" fill-rule="evenodd" d="M17.64 3.35c1.66 0 3 1.34 3 3v10c0 1.65-1.34 3-3 3h-8c-1.65 0-3-1.35-3-3v-10c0-1.66 1.35-3 3-3zm-8 1.3h8c.94 0 1.71.76 1.71 1.7v10c0 .93-.77 1.7-1.71 1.7h-8c-.93 0-1.7-.77-1.7-1.7v-10c0-.94.77-1.7 1.7-1.7m1.25 4.43c.05-1.06.77-2.03 1.94-2.31V6c0-.36.29-.65.65-.65s.65.29.65.65v.73c.72.13 1.24.51 1.59.98.41.56.56 1.21.56 1.69 0 .36-.29.65-.65.65s-.65-.29-.65-.65c0-.24-.08-.61-.31-.91-.2-.27-.52-.51-1.11-.51-.9 0-1.34.58-1.38 1.17-.03.56.33 1.27 1.49 1.46.98.17 1.73.54 2.24 1.08s.73 1.21.67 1.87c-.11 1.18-1.07 2.15-2.45 2.36v.77c0 .36-.29.65-.65.65s-.65-.29-.65-.65v-.81c-.65-.15-1.14-.5-1.48-.91-.44-.51-.65-1.14-.65-1.58 0-.36.29-.65.65-.65s.65.29.65.65c0 .1.08.43.34.75.24.28.62.53 1.22.53 1.13 0 1.68-.67 1.73-1.22.02-.29-.07-.59-.33-.87s-.73-.56-1.51-.68c-1.74-.29-2.63-1.54-2.56-2.82M4 9.35c0-.36.29-.65.64-.65.36 0 .66.29.66.65v9.4c0 1.07.87 1.95 1.95 1.95h8.39c.36 0 .65.29.65.65 0 .35-.29.65-.65.65H7.25A3.25 3.25 0 0 1 4 18.75z"/></svg>