<svg xmlns="http://www.w3.org/2000/svg" fill="none" viewBox="0 0 24 24" focusable="false"><path fill="#717681" fill-rule="evenodd" d="M11.056 18.409a.65.65 0 0 1-.65-.65V14.24a.65.65 0 0 1 .65-.65h1.166a1.95 1.95 0 0 1 1.95 1.95v.918a1.95 1.95 0 0 1-1.95 1.95h-1.166Zm.65-3.518v2.218h.516a.65.65 0 0 0 .65-.65v-.918a.65.65 0 0 0-.65-.65h-.516Z" clip-rule="evenodd"/><path fill="#717681" d="M16.192 18.409a.65.65 0 0 0 .65-.65v-.567h.48a.65.65 0 1 0 0-1.3h-.48v-1h1.068a.65.65 0 0 0 0-1.3h-1.718a.65.65 0 0 0-.65.65v3.517c0 .359.29.65.65.65Z"/><path fill="#717681" fill-rule="evenodd" d="M6.09 18.409a.65.65 0 0 0 .65-.65v-.573h.668a1.797 1.797 0 1 0 0-3.595H6.09a.65.65 0 0 0-.65.65v3.518c0 .359.29.65.65.65Zm.65-2.523v-.995h.668a.497.497 0 0 1 0 .995H6.74Z" clip-rule="evenodd"/><path fill="#717681" fill-rule="evenodd" d="M5 6v5a3 3 0 0 0-3 3v4a3 3 0 0 0 3 3h14a3 3 0 0 0 3-3v-4a3 3 0 0 0-3-3V9.18a3 3 0 0 0-.803-2.044l-2.958-3.18A3 3 0 0 0 13.041 3H8a3 3 0 0 0-3 3Zm3-1.7h5.042c.104 0 .207.01.308.028V7.05A1.95 1.95 0 0 0 15.3 9h2.39c.007.06.01.12.01.18V11H6.3V6A1.7 1.7 0 0 1 8 4.3Zm8.945 3.4L14.65 5.232v1.816c0 .36.29.65.65.65h1.645ZM19 12.3H5A1.7 1.7 0 0 0 3.3 14v4A1.7 1.7 0 0 0 5 19.7h14a1.7 1.7 0 0 0 1.7-1.7v-4a1.7 1.7 0 0 0-1.7-1.7Z" clip-rule="evenodd"/></svg>