<svg xmlns="http://www.w3.org/2000/svg" fill="none" viewBox="0 0 24 24" focusable="false"><path fill="#717681" d="M17.141 9.316a.65.65 0 1 0-1.243-.38l-.77 2.518-.853-2.535a.65.65 0 0 0-1.229-.012l-.909 2.549-.719-2.51a.65.65 0 1 0-1.25.359l1.277 4.453a.65.65 0 0 0 1.237.04l.958-2.687.9 2.675a.65.65 0 0 0 1.237-.017z"/><path fill="#717681" fill-rule="evenodd" d="M20.65 6.35a3 3 0 0 0-3-3h-8a3 3 0 0 0-3 3v10a3 3 0 0 0 3 3h8a3 3 0 0 0 3-3zm-3-1.7h-8a1.7 1.7 0 0 0-1.7 1.7v10a1.7 1.7 0 0 0 1.7 1.7h8a1.7 1.7 0 0 0 1.7-1.7v-10a1.7 1.7 0 0 0-1.7-1.7" clip-rule="evenodd"/><path fill="#717681" d="M4.65 8.7a.65.65 0 0 0-.65.65v9.4A3.25 3.25 0 0 0 7.25 22h8.4a.65.65 0 1 0 0-1.3h-8.4a1.95 1.95 0 0 1-1.95-1.95v-9.4a.65.65 0 0 0-.65-.65"/></svg>