<svg xmlns="http://www.w3.org/2000/svg" fill="none" viewBox="0 0 24 24" focusable="false"><defs><clipPath id="File_XML_Outline_svg__a"><path fill="#fff" fill-opacity="0" d="M0 0h24v24H0z"/></clipPath></defs><g clip-path="url(#File_XML_Outline_svg__a)"><path fill="#717681" fill-rule="evenodd" d="M5 6v5c-1.66 0-3 1.34-3 3v4c0 1.65 1.34 3 3 3h14c1.65 0 3-1.35 3-3v-4c0-1.66-1.35-3-3-3V9.17c0-.75-.29-1.48-.81-2.04l-2.96-3.18c-.56-.61-1.36-.95-2.19-.95H8C6.34 3 5 4.34 5 6m3-1.71h5.04c.1 0 .2.01.3.03v2.72c0 1.08.88 1.95 1.95 1.95h2.4c0 .06.01.12.01.18V11H6.3V6c0-.94.76-1.71 1.7-1.71m6.64 2.75V5.23l2.3 2.46h-1.65c-.35 0-.65-.29-.65-.65M19 12.3H5c-.94 0-1.7.76-1.7 1.7v4c0 .93.76 1.7 1.7 1.7h14c.93 0 1.7-.77 1.7-1.7v-4c0-.94-.77-1.7-1.7-1.7M8.49 13.69c-.29-.2-.7-.14-.91.16l-.73 1.03-.74-1.03c-.2-.3-.61-.36-.9-.16-.29.21-.36.62-.15.91l.99 1.4-.99 1.39c-.21.29-.14.7.15.91.29.21.7.14.9-.16l.74-1.03.73 1.03a.648.648 0 1 0 1.06-.75L7.65 16l.99-1.4c.21-.29.14-.7-.15-.91m1.68 0c-.18.13-.28.34-.28.54v3.54c0 .36.3.65.65.65.36 0 .65-.29.65-.65v-1.52l.67.94c.01.01.01.02.02.03.08.09.17.16.27.2.08.03.16.04.24.04.08 0 .17-.01.24-.04a.6.6 0 0 0 .29-.23l.67-.93v1.51c0 .36.29.65.65.65.36 0 .65-.29.65-.65v-3.46a.673.673 0 0 0-.27-.62.653.653 0 0 0-.84.08.4.4 0 0 0-.1.12l-1.29 1.8-1.32-1.84c-.2-.3-.61-.36-.9-.16m6.67-.11c.36 0 .65.29.65.65v2.89h1.07c.36 0 .65.29.65.65 0 .36-.29.65-.65.65h-1.72c-.36 0-.65-.29-.65-.65v-3.54c0-.36.29-.65.65-.65"/></g></svg>