<svg xmlns="http://www.w3.org/2000/svg" fill="none" viewBox="0 0 24 24" focusable="false"><defs><clipPath id="File_Word_Solid_svg__a"><path fill="#fff" fill-opacity="0" d="M0 0h24v24H0z"/></clipPath></defs><g clip-path="url(#File_Word_Solid_svg__a)"><path fill="#717681" fill-rule="evenodd" d="M17.64 3.35c1.66 0 3 1.34 3 3v10c0 1.65-1.34 3-3 3h-8c-1.65 0-3-1.35-3-3v-10c0-1.66 1.35-3 3-3zm-.93 5.15c.34.1.53.47.43.81l-1.37 4.45c-.08.27-.33.46-.61.46a.645.645 0 0 1-.63-.44l-.89-2.67-.96 2.68a.652.652 0 0 1-1.24-.04L10.16 9.3c-.1-.35.1-.71.45-.8.34-.1.7.1.8.44l.72 2.51.91-2.55a.65.65 0 0 1 .62-.43c.28 0 .52.18.61.44l.85 2.54.77-2.52c.11-.34.47-.54.82-.43M4 9.35c0-.36.29-.65.64-.65.36 0 .66.29.66.65v9.4c0 1.07.87 1.95 1.95 1.95h8.39c.36 0 .65.29.65.65 0 .35-.29.65-.65.65H7.25A3.25 3.25 0 0 1 4 18.75z"/></g></svg>