<svg xmlns="http://www.w3.org/2000/svg" fill="none" viewBox="0 0 24 24" focusable="false"><path fill="#74767B" fill-rule="evenodd" d="M17.64 4.65H9.66c-.94 0-1.7.76-1.7 1.7v10.01c0 .94.76 1.7 1.7 1.7h7.98c.94 0 1.7-.76 1.7-1.7V6.35c0-.94-.76-1.7-1.7-1.7m-7.98-1.3c-1.65 0-3 1.34-3 3v10.01c0 1.66 1.35 3 3 3h7.98c1.66 0 3-1.34 3-3V6.35c0-1.66-1.34-3-3-3zM4.71 8.7c.36 0 .65.29.65.65v9.46c0 1.02.83 1.85 1.85 1.85h8.44c.36 0 .65.29.65.65s-.29.65-.65.65H7.21a3.15 3.15 0 0 1-3.15-3.15V9.35c0-.36.29-.65.65-.65m5.62.83c.23-.09.46-.05.57.03.05.03.07.06.08.1s.03.14-.03.33c-.34 1.03-.89 2.63-1.17 3.27a.649.649 0 0 0 1 .77l2.11-1.71.82.76c.15.14.35.2.54.16.2-.03.37-.14.47-.32.09-.15.17-.33.24-.49l.04-.09c.09-.2.17-.36.27-.51.18-.27.35-.4.61-.43.27-.02.43.09.55.24.07.07.11.15.14.22.02.03.03.05.04.07v.01c.11.34.47.53.81.42.35-.11.54-.47.43-.82l-.62.2.62-.2-.01-.01v-.02c-.01-.01-.01-.03-.02-.05-.02-.05-.04-.1-.08-.17-.06-.14-.17-.32-.32-.5-.31-.37-.85-.75-1.65-.68s-1.29.55-1.59 1.01c-.09.14-.17.28-.23.41l-.6-.54a.65.65 0 0 0-.85-.03l-.7.57c.14-.41.27-.81.38-1.14.13-.38.15-.76.05-1.1a1.48 1.48 0 0 0-.6-.81c-.52-.35-1.21-.38-1.77-.16-.34.13-.5.51-.37.84.13.34.51.5.84.37"/></svg>