<svg xmlns="http://www.w3.org/2000/svg" fill="none" viewBox="0 0 24 24" focusable="false"><path fill="#74767B" fill-rule="evenodd" d="M22 14c0-1.66-1.35-3-3-3V9.17c0-.75-.29-1.48-.81-2.04l-2.96-3.18c-.56-.61-1.36-.95-2.19-.95H8C6.34 3 5 4.34 5 6v5c-1.66 0-3 1.34-3 3v4c0 1.65 1.34 3 3 3h14c1.65 0 3-1.35 3-3zM8 4.29h5.04q.15 0 .3.03v2.72c0 1.08.88 1.95 1.95 1.95h2.4c0 .06.01.12.01.18V11H6.3V6c0-.94.76-1.71 1.7-1.71m8.94 3.4-2.3-2.46v1.81c0 .36.3.65.65.65zm-7.95 6.55c0 .36-.29.65-.65.65h-.56v2.87c0 .36-.29.65-.65.65s-.65-.29-.65-.65v-2.87h-.56c-.36 0-.65-.29-.65-.65s.29-.65.65-.65h2.42c.36 0 .65.29.65.65m9.08.65c.36 0 .65-.29.65-.65s-.29-.65-.65-.65h-2.42c-.36 0-.65.29-.65.65s.29.65.65.65h.56v2.87c0 .36.29.65.65.65s.65-.29.65-.65v-2.87zm-7.69-1.2c.29-.2.7-.14.91.16l.73 1.03.74-1.03c.21-.3.61-.36.91-.16.29.21.36.62.15.91l-1 1.4 1 1.39c.21.29.14.7-.15.91-.3.21-.7.14-.91-.16l-.74-1.03-.73 1.03a.648.648 0 1 1-1.06-.75l1-1.39-1-1.4c-.21-.29-.14-.7.15-.91"/></svg>