<svg xmlns="http://www.w3.org/2000/svg" fill="none" viewBox="0 0 24 24" focusable="false"><path fill="#717681" fill-rule="evenodd" d="M20.65 6.35a3 3 0 0 0-3-3h-8a3 3 0 0 0-3 3v10a3 3 0 0 0 3 3h8a3 3 0 0 0 3-3v-10Zm-7.814.422a2.504 2.504 0 0 0-1.945 2.311c-.069 1.283.824 2.529 2.568 2.818.774.129 1.246.405 1.51.685.26.276.348.583.322.864-.05.551-.591 1.222-1.726 1.222-.604 0-.981-.25-1.22-.532-.263-.313-.34-.65-.34-.743a.65.65 0 1 0-1.3 0c0 .438.212 1.064.646 1.58.343.407.833.759 1.485.912v.806a.65.65 0 0 0 1.3 0v-.766c1.384-.21 2.343-1.182 2.45-2.36.06-.662-.161-1.334-.671-1.875-.505-.535-1.263-.913-2.243-1.075-1.155-.192-1.513-.908-1.483-1.466.031-.584.478-1.166 1.376-1.166.587 0 .914.235 1.115.504.223.3.308.674.308.91a.65.65 0 1 0 1.3 0 2.93 2.93 0 0 0-.565-1.685 2.502 2.502 0 0 0-1.587-.979v-.732a.65.65 0 1 0-1.3 0v.767" clip-rule="evenodd"/><path fill="#717681" d="M4.65 8.7a.65.65 0 0 0-.65.65v9.4A3.25 3.25 0 0 0 7.25 22h8.4a.65.65 0 1 0 0-1.3h-8.4a1.95 1.95 0 0 1-1.95-1.95v-9.4a.65.65 0 0 0-.65-.65"/></svg>