<svg xmlns="http://www.w3.org/2000/svg" width="24" height="24" fill="none"><path fill="#717681" fill-rule="evenodd" d="M17.65 4.65H9.668a1.7 1.7 0 0 0-1.7 1.7v10.016a1.7 1.7 0 0 0 1.7 1.7h7.982a1.7 1.7 0 0 0 1.7-1.7V6.35a1.7 1.7 0 0 0-1.7-1.7Zm-7.982-1.3a3 3 0 0 0-3 3v10.016a3 3 0 0 0 3 3h7.982a3 3 0 0 0 3-3V6.35a3 3 0 0 0-3-3H9.668ZM4.713 8.702a.65.65 0 0 1 .65.65v9.461a1.85 1.85 0 0 0 1.85 1.85h8.443a.65.65 0 1 1 0 1.3H7.213a3.15 3.15 0 0 1-3.15-3.15v-9.46a.65.65 0 0 1 .65-.65Zm5.624.832c.225-.088.455-.05.568.027a.184.184 0 0 1 .08.104c.013.042.027.142-.033.325-.342 1.032-.892 2.636-1.17 3.277a.65.65 0 0 0 1.005.764l2.103-1.703.827.759a.65.65 0 0 0 1.005-.159c.088-.155.171-.337.244-.494l.042-.094c.09-.192.172-.359.266-.504.178-.275.352-.405.61-.427a.602.602 0 0 1 .551.231 1.092 1.092 0 0 1 .175.294l.005.012a.65.65 0 0 0 1.238-.397l-.62.195.62-.196-.001-.002-.001-.003-.002-.007-.007-.018a1.815 1.815 0 0 0-.094-.225 2.39 2.39 0 0 0-.321-.493 1.899 1.899 0 0 0-1.65-.686c-.805.066-1.29.546-1.595 1.015a4.282 4.282 0 0 0-.23.409l-.596-.547a.65.65 0 0 0-.848-.026l-.705.571c.14-.41.274-.808.383-1.137.126-.381.149-.76.044-1.108a1.483 1.483 0 0 0-.596-.806c-.518-.351-1.209-.382-1.771-.161a.65.65 0 1 0 .474 1.21Z" clip-rule="evenodd"/></svg>