<svg xmlns="http://www.w3.org/2000/svg" fill="none" viewBox="0 0 24 24" focusable="false"><mask id="File_XML_Solid_svg__a" fill="#fff"><path fill-rule="evenodd" d="M5 11V6a3 3 0 0 1 3-3h5.042a3 3 0 0 1 2.197.957l2.957 3.18A3 3 0 0 1 19 9.18V11a3 3 0 0 1 3 3v4a3 3 0 0 1-3 3H5a3 3 0 0 1-3-3v-4a3 3 0 0 1 3-3m8.042-6.7H8A1.7 1.7 0 0 0 6.3 6v5h11.4V9.18a1.7 1.7 0 0 0-.455-1.158l-2.958-3.18a1.7 1.7 0 0 0-1.245-.542m-4.545 9.398a.65.65 0 0 0-.907.152l-.735 1.03-.736-1.03a.65.65 0 0 0-1.058.755L6.056 16l-.995 1.395a.65.65 0 0 0 1.058.755l.736-1.03.735 1.03a.65.65 0 1 0 1.058-.755L7.653 16l.995-1.395a.65.65 0 0 0-.151-.907m8.998.535a.65.65 0 0 0-1.3 0v3.54c0 .358.291.65.65.65h1.719a.65.65 0 0 0 0-1.3h-1.069zm-7.323-.535a.65.65 0 0 1 .907.152l1.32 1.85 1.29-1.809a.65.65 0 0 1 1.203.421v3.46a.65.65 0 0 1-1.3 0v-1.506l-.654.915a.642.642 0 0 1-.245.217.646.646 0 0 1-.734-.1.645.645 0 0 1-.1-.117l-.66-.923v1.514a.65.65 0 0 1-1.3 0v-3.54a.663.663 0 0 1 .273-.534" clip-rule="evenodd"/></mask><path fill="#717681" fill-rule="evenodd" stroke="#717681" stroke-width="2.6" d="M5 11V6a3 3 0 0 1 3-3h5.042a3 3 0 0 1 2.197.957l2.957 3.18A3 3 0 0 1 19 9.18V11a3 3 0 0 1 3 3v4a3 3 0 0 1-3 3H5a3 3 0 0 1-3-3v-4a3 3 0 0 1 3-3Zm8.042-6.7H8A1.7 1.7 0 0 0 6.3 6v5h11.4V9.18a1.7 1.7 0 0 0-.455-1.158l-2.958-3.18a1.7 1.7 0 0 0-1.245-.542Zm-4.545 9.398a.65.65 0 0 0-.907.152l-.735 1.03-.736-1.03a.65.65 0 0 0-1.058.755L6.056 16l-.995 1.395a.65.65 0 0 0 1.058.755l.736-1.03.735 1.03a.65.65 0 1 0 1.058-.755L7.653 16l.995-1.395a.65.65 0 0 0-.151-.907Zm8.998.535a.65.65 0 0 0-1.3 0v3.54c0 .358.291.65.65.65h1.719a.65.65 0 0 0 0-1.3h-1.069zm-7.323-.535a.65.65 0 0 1 .907.152l1.32 1.85 1.29-1.809a.65.65 0 0 1 1.203.421v3.46a.65.65 0 0 1-1.3 0v-1.506l-.654.915a.642.642 0 0 1-.245.217.646.646 0 0 1-.734-.1.645.645 0 0 1-.1-.117l-.66-.923v1.514a.65.65 0 0 1-1.3 0v-3.54a.663.663 0 0 1 .273-.534Z" clip-rule="evenodd" mask="url(#File_XML_Solid_svg__a)"/><path stroke="#717681" stroke-width="1.3" d="M14 3.93v3.12a1.3 1.3 0 0 0 1.3 1.3h3.258"/></svg>