<svg xmlns="http://www.w3.org/2000/svg" fill="none" viewBox="0 0 24 24" focusable="false"><path fill="#74767B" fill-rule="evenodd" d="M5 11L5 6C5 4.34314 6.34314 3 8 3L13.042 3C13.8752 3 14.6709 3.34656 15.2385 3.95662L18.1965 7.13629C18.7129 7.69141 19 8.42148 19 9.17966L19 11C20.6569 11 22 12.3431 22 14L22 18C22 19.6569 20.6569 21 19 21L5 21C3.34314 21 2 19.6569 2 18L2 14C2 12.3431 3.34314 11 5 11ZM13.042 4.3L8 4.3C7.06104 4.3 6.30005 5.06111 6.30005 6L6.30005 11L17.7 11L17.7 9.17966C17.7 9.11914 17.6968 9.05893 17.6904 8.99925L15.2999 8.99927C14.2229 8.99927 13.3499 8.12622 13.3499 7.04926L13.3499 4.32811C13.249 4.30954 13.146 4.3 13.042 4.3ZM14.6499 5.23254L14.6499 7.04926C14.6499 7.40823 14.9409 7.69925 15.2999 7.69925L16.9446 7.69925L14.6499 5.23254ZM5.2511 18.0553C5.47375 18.0553 5.60449 17.9774 5.74365 17.777L6.44238 16.775L6.46729 16.775L7.19934 17.7631C7.35242 17.969 7.49707 18.0553 7.71143 18.0553C8.03711 18.0553 8.26245 17.8382 8.26245 17.5265C8.26245 17.3623 8.21521 17.2287 8.09277 17.0728L7.23267 15.979L7.23267 15.9568L8.1178 14.8407C8.23755 14.6904 8.28198 14.5624 8.28198 14.401C8.28198 14.1199 8.01489 13.9 7.70874 13.9C7.48047 13.9 7.36353 13.9835 7.23828 14.1755L6.53418 15.2498L6.51196 15.2498L5.84106 14.2173C5.70483 14.0058 5.53491 13.9 5.31519 13.9C4.96997 13.9 4.72229 14.131 4.72229 14.4566C4.72229 14.6181 4.76685 14.7516 4.90869 14.9353L5.69092 15.9512L5.69092 15.9735L4.86987 17.0923C4.74463 17.2621 4.69995 17.3901 4.69995 17.5404C4.69995 17.8299 4.93945 18.0553 5.2511 18.0553ZM11.157 17.9857L9.45654 17.9857C9.08081 17.9857 8.86646 17.7631 8.86646 17.3679L8.86646 14.5179C8.86646 14.1227 9.08081 13.9 9.45654 13.9C9.83228 13.9 10.0465 14.1227 10.0465 14.5179L10.0465 17.045L11.157 17.045C11.4688 17.045 11.6775 17.2148 11.6775 17.5154C11.6775 17.816 11.4744 17.9857 11.157 17.9857ZM13.687 18.0553C14.7947 18.0553 15.4404 17.5293 15.4404 16.7027C15.4404 16.0514 15.0341 15.6979 14.1713 15.5421L13.7677 15.4697C13.3669 15.3974 13.1943 15.3111 13.1943 15.1302C13.1943 14.9493 13.3613 14.8045 13.6897 14.8045C13.943 14.8045 14.1295 14.8797 14.2603 15.0801C14.4022 15.2944 14.5609 15.3807 14.8114 15.3807C15.1064 15.3779 15.3013 15.197 15.3013 14.9298C15.3013 14.8379 15.2845 14.7628 15.2511 14.6821C15.0424 14.1811 14.4718 13.9 13.6758 13.9C12.7212 13.9 12.0254 14.4093 12.0254 15.2164C12.0254 15.8399 12.4624 16.2435 13.2611 16.3854L13.6647 16.4578C14.1156 16.5385 14.2715 16.6192 14.2715 16.8084C14.2715 17.006 14.0543 17.1508 13.7009 17.1508C13.4365 17.1508 13.2026 17.0701 13.0635 16.8725C12.9049 16.6498 12.7546 16.5802 12.532 16.5802C12.2397 16.5802 12.0254 16.775 12.0254 17.0589C12.0254 17.1508 12.0449 17.2454 12.0867 17.3372C12.2592 17.7297 12.7825 18.0553 13.687 18.0553ZM16.7847 17.777C16.6455 17.9774 16.5146 18.0553 16.292 18.0553C15.9803 18.0553 15.741 17.8299 15.741 17.5404C15.741 17.3901 15.7855 17.2621 15.9108 17.0923L16.7318 15.9735L16.7318 15.9512L15.9497 14.9353C15.8077 14.7516 15.7632 14.6181 15.7632 14.4566C15.7632 14.131 16.011 13.9 16.3561 13.9C16.5759 13.9 16.7457 14.0058 16.8821 14.2173L17.5529 15.2498L17.5751 15.2498L18.2793 14.1755C18.4045 13.9835 18.5214 13.9 18.7496 13.9C19.0558 13.9 19.323 14.1199 19.323 14.401C19.323 14.5624 19.2784 14.6904 19.1587 14.8407L18.2737 15.9568L18.2737 15.979L19.1337 17.0728C19.2561 17.2287 19.3035 17.3623 19.3035 17.5265C19.3035 17.8382 19.078 18.0553 18.7524 18.0553C18.5381 18.0553 18.3933 17.969 18.2402 17.7631L17.5083 16.775L17.4833 16.775L16.7847 17.777Z"/></svg>