<svg xmlns="http://www.w3.org/2000/svg" fill="none" viewBox="0 0 24 24" focusable="false"><path fill="#74767B" fill-rule="evenodd" d="M5 6L5 11C3.34314 11 2 12.3431 2 14L2 18C2 19.6569 3.34314 21 5 21L19 21C20.6569 21 22 19.6569 22 18L22 14C22 12.3431 20.6569 11 19 11L19 9.17966C19 8.42148 18.7129 7.69141 18.1965 7.13629L15.2385 3.95662C14.671 3.34655 13.8752 3 13.042 3L8 3C6.34314 3 5 4.34315 5 6ZM8 4.3L13.042 4.3C13.1461 4.3 13.2491 4.30954 13.3499 4.32811L13.3499 7.04926C13.3499 8.12621 14.223 8.99926 15.2999 8.99926L17.6904 8.99926C17.6968 9.05892 17.7 9.11913 17.7 9.17966L17.7 11L6.29999 11L6.29999 6C6.29999 5.06112 7.0611 4.3 8 4.3ZM14.6499 7.04926L14.6499 5.23254L16.9446 7.69926L15.2999 7.69926C14.9409 7.69926 14.6499 7.40824 14.6499 7.04926ZM19 12.3L5 12.3C4.0611 12.3 3.29999 13.0611 3.29999 14L3.29999 18C3.29999 18.9389 4.0611 19.7 5 19.7L19 19.7C19.9389 19.7 20.7 18.9389 20.7 18L20.7 14C20.7 13.0611 19.9389 12.3 19 12.3ZM5.23962 18.0696C5.46228 18.0696 5.59308 17.9916 5.73224 17.7912L6.43085 16.7893L6.45587 16.7893L7.18787 17.7773C7.34094 17.9833 7.48566 18.0696 7.69995 18.0696C8.02557 18.0696 8.25104 17.8525 8.25104 17.5408C8.25104 17.3766 8.20374 17.243 8.08124 17.0871L7.22125 15.9933L7.22125 15.971L8.10632 14.855C8.22601 14.7047 8.27051 14.5766 8.27051 14.4152C8.27051 14.1341 8.00336 13.9142 7.6972 13.9142C7.46893 13.9142 7.35205 13.9977 7.22681 14.1898L6.52264 15.2641L6.50043 15.2641L5.82965 14.2315C5.6933 14.02 5.5235 13.9142 5.30365 13.9142C4.9585 13.9142 4.71082 14.1453 4.71082 14.4709C4.71082 14.6323 4.75531 14.7659 4.89728 14.9496L5.67938 15.9655L5.67938 15.9877L4.85834 17.1066C4.73309 17.2764 4.68854 17.4044 4.68854 17.5547C4.68854 17.8441 4.92792 18.0696 5.23962 18.0696ZM11.1456 18L9.44501 18C9.06927 18 8.85498 17.7773 8.85498 17.3821L8.85498 14.5321C8.85498 14.1369 9.06927 13.9142 9.44501 13.9142C9.82074 13.9142 10.035 14.1369 10.035 14.5321L10.035 17.0593L11.1456 17.0593C11.4573 17.0593 11.666 17.229 11.666 17.5296C11.666 17.8302 11.4628 18 11.1456 18ZM13.6755 18.0696C14.7832 18.0696 15.4289 17.5435 15.4289 16.7169C15.4289 16.0657 15.0226 15.7122 14.1598 15.5563L13.7562 15.484C13.3554 15.4116 13.1829 15.3253 13.1829 15.1444C13.1829 14.9635 13.3499 14.8188 13.6783 14.8188C13.9315 14.8188 14.118 14.8939 14.2488 15.0943C14.3907 15.3086 14.5494 15.3949 14.7999 15.3949C15.0949 15.3921 15.2897 15.2112 15.2897 14.944C15.2897 14.8522 15.2731 14.777 15.2396 14.6963C15.0309 14.1953 14.4603 13.9142 13.6644 13.9142C12.7097 13.9142 12.0139 14.4236 12.0139 15.2307C12.0139 15.8541 12.4509 16.2577 13.2496 16.3996L13.6532 16.472C14.1041 16.5527 14.2599 16.6334 14.2599 16.8227C14.2599 17.0203 14.0428 17.165 13.6894 17.165C13.425 17.165 13.1912 17.0843 13.0521 16.8867C12.8934 16.664 12.7431 16.5945 12.5204 16.5945C12.2282 16.5945 12.0139 16.7893 12.0139 17.0732C12.0139 17.165 12.0334 17.2597 12.0751 17.3515C12.2477 17.7439 12.7709 18.0696 13.6755 18.0696ZM16.7732 17.7912C16.634 17.9916 16.5032 18.0696 16.2806 18.0696C15.9689 18.0696 15.7295 17.8441 15.7295 17.5547C15.7295 17.4044 15.774 17.2764 15.8993 17.1066L16.7203 15.9877L16.7203 15.9655L15.9382 14.9496C15.7963 14.7659 15.7518 14.6323 15.7518 14.4709C15.7518 14.1453 15.9995 13.9142 16.3446 13.9142C16.5645 13.9142 16.7343 14.02 16.8706 14.2315L17.5414 15.2641L17.5636 15.2641L18.2678 14.1898C18.393 13.9977 18.5099 13.9142 18.7382 13.9142C19.0443 13.9142 19.3115 14.1341 19.3115 14.4152C19.3115 14.5766 19.267 14.7047 19.1473 14.855L18.2622 15.971L18.2622 15.9933L19.1222 17.0871C19.2447 17.243 19.292 17.3766 19.292 17.5408C19.292 17.8525 19.0665 18.0696 18.7409 18.0696C18.5266 18.0696 18.3819 17.9833 18.2288 17.7773L17.4968 16.7893L17.4718 16.7893L16.7732 17.7912Z"/></svg>