<svg xmlns="http://www.w3.org/2000/svg" fill="none" viewBox="0 0 24 24" focusable="false"><defs><clipPath id="File_TIF_Solid_svg__a"><path fill="#fff" fill-opacity="0" d="M0 0h24v24H0z"/></clipPath></defs><g clip-path="url(#File_TIF_Solid_svg__a)"><path fill="#717681" fill-rule="evenodd" d="M5 6v5c-1.66 0-3 1.34-3 3v4c0 1.65 1.34 3 3 3h14c1.65 0 3-1.35 3-3v-4c0-1.66-1.35-3-3-3V9.17c0-.75-.29-1.48-.81-2.04l-2.96-3.18c-.56-.61-1.36-.95-2.19-.95H8C6.34 3 5 4.34 5 6m3-1.71h5.04c.1 0 .2.01.3.03v2.72c0 1.08.88 1.95 1.95 1.95h2.4c0 .06.01.12.01.18V11H6.3V6c0-.94.76-1.71 1.7-1.71m8.94 3.4-2.3-2.46v1.81c0 .36.3.65.65.65zm-1.41 10.07c0 .36-.29.65-.65.65-.36 0-.65-.29-.65-.65v-3.52c0-.36.29-.65.65-.65h1.72c.36 0 .65.29.65.65 0 .36-.29.65-.65.65h-1.07v1h.48c.36 0 .65.29.65.65 0 .36-.29.65-.65.65h-.48zm-5.06-3.52c0 .36-.3.65-.65.65h-.57v2.87c0 .36-.29.65-.65.65-.35 0-.65-.29-.65-.65v-2.87h-.56c-.36 0-.65-.29-.65-.65 0-.36.29-.65.65-.65H9.82c.35 0 .65.29.65.65m1.65-.65c.35 0 .65.29.65.65v3.52c0 .36-.3.65-.65.65-.36 0-.65-.29-.65-.65v-3.52c0-.36.29-.65.65-.65"/></g></svg>