<svg xmlns="http://www.w3.org/2000/svg" fill="none" viewBox="0 0 24 24" focusable="false"><path fill="#74767B" fill-rule="evenodd" d="M20.65 6.3501C20.65 4.69324 19.3069 3.3501 17.65 3.3501L9.65 3.3501C7.99314 3.3501 6.65 4.69324 6.65 6.3501L6.65 16.3501C6.65 18.007 7.99314 19.3501 9.65 19.3501L17.65 19.3501C19.3069 19.3501 20.65 18.007 20.65 16.3501L20.65 6.3501ZM12.8356 6.77162C11.6608 7.058 10.9475 8.02891 10.8909 9.08316C10.8221 10.366 11.7152 11.6119 13.4589 11.9013C14.2325 12.0296 14.7047 12.3057 14.9692 12.5862C15.2292 12.8619 15.317 13.1687 15.2914 13.4502C15.2411 14.0013 14.6997 14.6717 13.5653 14.6717C12.9607 14.6717 12.5839 14.4229 12.3459 14.1402C12.0824 13.827 12.0043 13.4905 12.0043 13.3974C12.0043 13.0384 11.7133 12.7474 11.3543 12.7474C10.9954 12.7474 10.7043 13.0384 10.7043 13.3974C10.7043 13.8353 10.9169 14.461 11.3513 14.9772C11.6936 15.3839 12.1845 15.7359 12.8356 15.8895L12.8356 16.6951C12.8356 17.054 13.1266 17.3451 13.4856 17.3451C13.8446 17.3451 14.1356 17.054 14.1356 16.6951L14.1356 15.9293C15.5198 15.7184 16.4785 14.7466 16.586 13.5683C16.6463 12.9071 16.4246 12.2348 15.915 11.6943C15.4099 11.1587 14.6524 10.7815 13.6717 10.6188C12.5174 10.4272 12.1591 9.71144 12.189 9.15281C12.2204 8.56889 12.6674 7.98662 13.5653 7.98662C14.1515 7.98662 14.4794 8.22182 14.68 8.49147C14.9025 8.79067 14.9878 9.16536 14.9878 9.40157C14.9878 9.76056 15.2788 10.0516 15.6378 10.0516C15.9968 10.0516 16.2878 9.76056 16.2878 9.40157C16.2878 8.9297 16.1368 8.27192 15.7231 7.71566C15.3743 7.24665 14.8508 6.86902 14.1356 6.73709L14.1356 6.00522C14.1356 5.64624 13.8446 5.35522 13.4856 5.35522C13.1266 5.35522 12.8356 5.64624 12.8356 6.00522L12.8356 6.77162ZM4 9.3501C4 8.99111 4.29101 8.7001 4.65 8.7001C5.00898 8.7001 5.3 8.99111 5.3 9.3501L5.3 18.7501C5.3 19.8271 6.17304 20.7001 7.25 20.7001L15.65 20.7001C16.009 20.7001 16.3 20.9911 16.3 21.3501C16.3 21.7091 16.009 22.0001 15.65 22.0001L7.25 22.0001C5.45507 22.0001 4 20.545 4 18.7501L4 9.3501Z"/></svg>