<svg xmlns="http://www.w3.org/2000/svg" fill="none" viewBox="0 0 24 24" focusable="false"><path fill="#717681" fill-rule="evenodd" d="M20.64 6.35c0-1.66-1.34-3-3-3h-8c-1.65 0-3 1.34-3 3v10c0 1.65 1.35 3 3 3h8c1.66 0 3-1.35 3-3zm-3-1.7h-8c-.93 0-1.7.76-1.7 1.7v10c0 .93.77 1.7 1.7 1.7h8c.94 0 1.71-.77 1.71-1.7v-10c0-.94-.77-1.7-1.71-1.7m-.5 4.66a.653.653 0 0 0-1.25-.38l-.77 2.52-.85-2.54a.65.65 0 0 0-.61-.44.65.65 0 0 0-.62.43l-.91 2.55-.72-2.51a.65.65 0 0 0-.8-.44c-.35.09-.55.45-.45.8l1.28 4.45a.652.652 0 0 0 1.24.04l.96-2.68.89 2.67c.09.27.35.45.63.44.28 0 .53-.19.61-.46zM4 9.35c0-.36.29-.65.64-.65.36 0 .66.29.66.65v9.4c0 1.07.87 1.95 1.95 1.95h8.39c.36 0 .65.29.65.65 0 .35-.29.65-.65.65H7.25A3.25 3.25 0 0 1 4 18.75z"/></svg>