<svg xmlns="http://www.w3.org/2000/svg" fill="none" viewBox="0 0 24 24" focusable="false"><defs><clipPath id="File_PDF_Outline_svg__a"><path fill="#fff" fill-opacity="0" d="M0 0h24v24H0z"/></clipPath></defs><g clip-path="url(#File_PDF_Outline_svg__a)"><path fill="#717681" fill-rule="evenodd" d="M5 11V6c0-1.66 1.34-3 3-3h5.04c.83 0 1.63.34 2.19.95l2.96 3.18c.52.56.81 1.29.81 2.04V11c1.65 0 3 1.34 3 3v4c0 1.65-1.35 3-3 3H5c-1.66 0-3-1.35-3-3v-4c0-1.66 1.34-3 3-3m8.04-6.71H8c-.94 0-1.7.77-1.7 1.71v5h11.4V9.17c0-.06-.01-.12-.01-.18h-2.4c-1.07 0-1.95-.87-1.95-1.95V4.32q-.15-.03-.3-.03m1.6.94 2.3 2.46h-1.65c-.35 0-.65-.29-.65-.65zM5 12.3h14c.93 0 1.7.76 1.7 1.7v4c0 .93-.77 1.7-1.7 1.7H5c-.94 0-1.7-.77-1.7-1.7v-4c0-.94.76-1.7 1.7-1.7m1.08 6.1c.36 0 .65-.29.65-.65v-.57h.67c1 0 1.8-.8 1.8-1.8 0-.99-.8-1.79-1.8-1.79H6.08c-.35 0-.65.29-.65.65v3.51c0 .36.3.65.65.65m4.51-.19c.12.13.29.19.46.19h1.17c1.07 0 1.95-.87 1.95-1.95v-.91c0-1.08-.88-1.95-1.95-1.95h-1.17a.62.62 0 0 0-.46.19c-.12.12-.19.28-.19.46v3.51c0 .18.07.34.19.46m6.25-.46c0 .36-.29.65-.65.65s-.65-.29-.65-.65v-3.51c0-.36.29-.65.65-.65h1.72c.35 0 .65.29.65.65s-.3.65-.65.65h-1.07v1h.48c.36 0 .65.29.65.65s-.29.65-.65.65h-.48zM6.73 15.88v-.99h.67a.495.495 0 1 1 0 .99zm4.97 1.22v-2.21h.52c.36 0 .65.29.65.65v.91c0 .36-.29.65-.65.65z"/></g></svg>