<svg xmlns="http://www.w3.org/2000/svg" fill="none" viewBox="0 0 24 24" focusable="false"><path fill="#717681" fill-rule="evenodd" d="M5 6v5a3 3 0 0 0-3 3v4a3 3 0 0 0 3 3h14a3 3 0 0 0 3-3v-4a3 3 0 0 0-3-3V9.18a3 3 0 0 0-.803-2.044l-2.958-3.18A3 3 0 0 0 13.041 3H8a3 3 0 0 0-3 3Zm3-1.7h5.042c.104 0 .207.01.308.028V7.05A1.95 1.95 0 0 0 15.3 9h2.39c.007.06.01.12.01.18V11H6.3V6A1.7 1.7 0 0 1 8 4.3Zm8.945 3.4L14.65 5.232v1.816c0 .36.29.65.65.65h1.645Zm-4.442 5.88a.65.65 0 1 1 0 1.3h-.86a.209.209 0 0 0-.072.405l.753.28a1.473 1.473 0 0 1-.514 2.855h-1.026a.65.65 0 1 1 0-1.3h1.026a.173.173 0 0 0 .06-.336l-.752-.28a1.509 1.509 0 0 1 .525-2.924h.86Zm-5.277 3.526a.65.65 0 0 1-.65-.65v-.917a.65.65 0 0 1 .65-.65h.692a.65.65 0 1 0 0-1.3h-.692a1.95 1.95 0 0 0-1.95 1.95v.917a1.95 1.95 0 0 0 1.95 1.95h.692a.65.65 0 1 0 0-1.3h-.692Zm7.679-3.477a.65.65 0 0 1 .849.353l.86 2.084.86-2.084a.65.65 0 1 1 1.201.496l-1.458 3.533a.652.652 0 0 1-1.094.185.647.647 0 0 1-.113-.185l-1.458-3.533a.65.65 0 0 1 .353-.849Z" clip-rule="evenodd"/></svg>