<svg xmlns="http://www.w3.org/2000/svg" fill="none" viewBox="0 0 24 24" focusable="false"><path fill="#717681" d="M7.59 13.85a.65.65 0 0 1 1.058.755L7.653 16l.995 1.395a.65.65 0 1 1-1.058.755l-.735-1.03-.736 1.03a.65.65 0 0 1-1.058-.755L6.056 16l-.995-1.395a.65.65 0 1 1 1.058-.755l.736 1.03zM9.9 14.236a.65.65 0 0 1 1.179-.386l1.32 1.85 1.29-1.809a.65.65 0 0 1 1.203.421v3.46a.65.65 0 1 1-1.3 0v-1.506l-.662.927a.648.648 0 0 1-1.063 0l-.668-.935v1.514a.65.65 0 1 1-1.3 0zM16.845 13.583a.65.65 0 0 1 .65.65v2.89h1.069a.65.65 0 1 1 0 1.3h-1.72a.65.65 0 0 1-.65-.65v-3.54a.65.65 0 0 1 .65-.65"/><path fill="#717681" fill-rule="evenodd" d="M5 11V6a3 3 0 0 1 3-3h5.042a3 3 0 0 1 2.197.957l2.957 3.18A3 3 0 0 1 19 9.18V11a3 3 0 0 1 3 3v4a3 3 0 0 1-3 3H5a3 3 0 0 1-3-3v-4a3 3 0 0 1 3-3m8.042-6.7H8A1.7 1.7 0 0 0 6.3 6v5h11.4V9.18c0-.06-.003-.121-.01-.18H15.3a1.95 1.95 0 0 1-1.95-1.95V4.327a1.699 1.699 0 0 0-.308-.028m1.608.933v1.816c0 .36.29.65.65.65h1.645zM5 12.3h14a1.7 1.7 0 0 1 1.7 1.7v4a1.7 1.7 0 0 1-1.7 1.7H5A1.7 1.7 0 0 1 3.3 18v-4A1.7 1.7 0 0 1 5 12.3" clip-rule="evenodd"/></svg>