<svg xmlns="http://www.w3.org/2000/svg" fill="none" viewBox="0 0 24 24" focusable="false"><path d="M0 0H24V24H0z"/><path fill="#74767B" fill-rule="evenodd" d="M5 11L5 6C5 4.34315 6.34314 3 8 3L13.042 3C13.8752 3 14.671 3.34655 15.2385 3.95662L18.1965 7.13629C18.7129 7.69141 19 8.42148 19 9.17966L19 11C20.6569 11 22 12.3431 22 14L22 18C22 19.6569 20.6569 21 19 21L5 21C3.34314 21 2 19.6569 2 18L2 14C2 12.3431 3.34314 11 5 11ZM13.042 4.3L8 4.3C7.0611 4.3 6.29999 5.06111 6.29999 6L6.29999 11L17.7 11L17.7 9.17966C17.7 9.11913 17.6968 9.05892 17.6904 8.99925L15.2999 8.99926C14.223 8.99926 13.3499 8.12621 13.3499 7.04926L13.3499 4.32811C13.2491 4.30954 13.1461 4.3 13.042 4.3ZM14.6499 5.23254L14.6499 7.04926C14.6499 7.40824 14.9409 7.69926 15.2999 7.69926L16.9446 7.69926L14.6499 5.23254ZM11.9759 16.0167C11.9759 17.1872 11.2625 17.9108 10.13 17.9108C8.99506 17.9108 8.28412 17.1872 8.28412 16.0167C8.28412 14.8462 8.99762 14.12 10.13 14.12C11.2625 14.12 11.9759 14.8462 11.9759 16.0167ZM14.1519 17.9108C14.8654 17.9108 15.4824 17.5579 15.6957 17.0272C15.7338 16.9333 15.7541 16.8368 15.7541 16.7454C15.7541 16.4585 15.5535 16.2706 15.2463 16.2706C15.0203 16.2706 14.8908 16.3594 14.7816 16.5905C14.6267 16.9155 14.4211 17.0653 14.1265 17.0653C13.6797 17.0653 13.4029 16.6743 13.4029 16.0116C13.4029 15.3565 13.6822 14.9655 14.124 14.9655C14.4058 14.9655 14.6089 15.1102 14.7715 15.4225C14.8882 15.6485 15.0305 15.7399 15.264 15.7399C15.5459 15.7399 15.7312 15.5622 15.7312 15.288C15.7312 15.1585 15.6931 15.0239 15.6195 14.8969C15.3301 14.3866 14.8121 14.12 14.1113 14.12C13.0043 14.12 12.306 14.8055 12.306 16.0141C12.306 17.2227 12.989 17.9108 14.1519 17.9108ZM17.0616 17.6569C16.9347 17.8397 16.8154 17.9108 16.6122 17.9108C16.3279 17.9108 16.1095 17.7051 16.1095 17.4411C16.1095 17.304 16.1501 17.1872 16.2644 17.0323L17.0134 16.0116L17.0134 15.9913L16.2999 15.0645C16.1704 14.8969 16.1298 14.7751 16.1298 14.6278C16.1298 14.3307 16.3558 14.12 16.6707 14.12C16.8712 14.12 17.0261 14.2165 17.1505 14.4094L17.7625 15.3514L17.7827 15.3514L18.4251 14.3714C18.5394 14.1962 18.646 14.12 18.8542 14.12C19.1335 14.12 19.3773 14.3206 19.3773 14.577C19.3773 14.7243 19.3367 14.8411 19.2275 14.9782L18.42 15.9964L18.42 16.0167L19.2046 17.0145C19.3163 17.1567 19.3595 17.2786 19.3595 17.4284C19.3595 17.7128 19.1538 17.9108 18.8568 17.9108C18.6613 17.9108 18.5292 17.8321 18.3896 17.6442L17.7218 16.7428L17.699 16.7428L17.0616 17.6569ZM5.16107 17.8473L6.18939 17.8473C7.29895 17.8473 7.95404 17.1618 7.95404 15.9887C7.95404 14.8157 7.30151 14.1835 6.18939 14.1835L5.16107 14.1835C4.8183 14.1835 4.6228 14.3866 4.6228 14.7471L4.6228 17.2837C4.6228 17.6442 4.8183 17.8473 5.16107 17.8473ZM9.38098 16.0167C9.38098 16.6489 9.67804 17.0526 10.13 17.0526C10.582 17.0526 10.879 16.6489 10.879 16.0167C10.879 15.3819 10.5794 14.9782 10.13 14.9782C9.6806 14.9782 9.38098 15.3819 9.38098 16.0167ZM5.69934 16.9917L5.69934 15.0391L6.03705 15.0391C6.55249 15.0391 6.85718 15.3717 6.85718 15.9887C6.85718 16.6641 6.57532 16.9917 6.03705 16.9917L5.69934 16.9917Z"/></svg>