<svg xmlns="http://www.w3.org/2000/svg" fill="none" viewBox="0 0 24 24" focusable="false"><path fill="#74767B" fill-rule="evenodd" d="M5 11V6c0-1.66 1.34-3 3-3h5.04c.83 0 1.63.34 2.19.95l2.96 3.18c.52.56.81 1.29.81 2.04V11c1.65 0 3 1.34 3 3v4c0 1.65-1.35 3-3 3H5c-1.66 0-3-1.35-3-3v-4c0-1.66 1.34-3 3-3m8.04-6.71H8c-.94 0-1.7.77-1.7 1.71v5h11.4V9.17c0-.06-.01-.12-.01-.18h-2.4c-1.07 0-1.95-.87-1.95-1.95V4.32q-.15-.03-.3-.03m1.6.94 2.3 2.46h-1.65c-.35 0-.65-.29-.65-.65zM5 12.3h14c.93 0 1.7.76 1.7 1.7v4c0 .93-.77 1.7-1.7 1.7H5c-.94 0-1.7-.77-1.7-1.7v-4c0-.94.76-1.7 1.7-1.7m6.29 1.55a.657.657 0 0 0-.91-.16c-.29.21-.36.62-.15.91l1 1.4-1 1.39a.648.648 0 1 0 1.06.75l.73-1.03.74 1.03c.21.3.61.37.91.16.29-.21.36-.62.15-.91l-1-1.39 1-1.4c.21-.29.14-.7-.15-.91-.3-.2-.7-.14-.91.16l-.74 1.03zm-2.3.39c0 .36-.29.65-.65.65h-.56v2.87c0 .36-.29.65-.65.65s-.65-.29-.65-.65v-2.87h-.56c-.36 0-.65-.29-.65-.65s.29-.65.65-.65h2.42c.36 0 .65.29.65.65m9.08.65c.36 0 .65-.29.65-.65s-.29-.65-.65-.65h-2.42c-.36 0-.65.29-.65.65s.29.65.65.65h.56v2.87c0 .36.29.65.65.65s.65-.29.65-.65v-2.87z"/></svg>