<svg xmlns="http://www.w3.org/2000/svg" fill="none" viewBox="0 0 24 24" focusable="false"><path fill="none" d="M0 0h24v24H0z"/><path fill="#74767B" fill-rule="evenodd" d="M5 6v5c-1.66 0-3 1.34-3 3v4c0 1.65 1.34 3 3 3h14c1.65 0 3-1.35 3-3v-4c0-1.66-1.35-3-3-3V9.17c0-.75-.29-1.48-.81-2.04l-2.96-3.18c-.56-.61-1.36-.95-2.19-.95H8C6.34 3 5 4.34 5 6m3-1.71h5.04q.15 0 .3.03v2.72c0 1.08.88 1.95 1.95 1.95h2.4c0 .06.01.12.01.18V11H6.3V6c0-.94.76-1.71 1.7-1.71m6.64 2.75V5.23l2.3 2.46h-1.65c-.35 0-.65-.29-.65-.65M19 12.3H5c-.94 0-1.7.76-1.7 1.7v4c0 .93.76 1.7 1.7 1.7h14c.93 0 1.7-.77 1.7-1.7v-4c0-.94-.77-1.7-1.7-1.7m-3.05 1.68a.65.65 0 0 0-.85-.35c-.33.13-.49.51-.35.85l1.45 3.53c.01.03.03.05.04.08.02.04.05.07.08.1q.09.12.24.18c.08.03.16.05.25.05.08 0 .16-.02.24-.05a.64.64 0 0 0 .32-.28.3.3 0 0 0 .04-.08l1.46-3.53a.644.644 0 0 0-.35-.85.644.644 0 0 0-.85.35l-.86 2.08zm-3.25-.4c.36 0 .65.29.65.65s-.29.65-.65.65h-.86c-.12 0-.21.09-.21.21 0 .08.05.16.13.19l.76.28c.57.22.96.77.96 1.38 0 .82-.66 1.48-1.48 1.48h-1.02c-.36 0-.65-.29-.65-.65s.29-.65.65-.65H12c.1 0 .18-.08.18-.18 0-.07-.05-.13-.12-.16l-.75-.28c-.59-.22-.98-.78-.98-1.41 0-.84.67-1.51 1.51-1.51zM7.42 17.1c-.36 0-.65-.29-.65-.65v-.91c0-.36.29-.65.65-.65h.69c.36 0 .65-.29.65-.65s-.29-.65-.65-.65h-.69c-1.08 0-1.95.87-1.95 1.95v.91c0 1.08.87 1.95 1.95 1.95h.69c.36 0 .65-.29.65-.65s-.29-.65-.65-.65z"/></svg>