<svg xmlns="http://www.w3.org/2000/svg" fill="none" viewBox="0 0 24 24" focusable="false"><path d="M0 0H24V24H0z"/><path fill="#74767B" fill-rule="evenodd" d="M5 11L5 6C5 4.34315 6.34314 3 8 3L13.042 3C13.8752 3 14.671 3.34655 15.2385 3.95662L18.1965 7.13629C18.7129 7.69141 19 8.42148 19 9.17966L19 11C20.6569 11 22 12.3431 22 14L22 18C22 19.6569 20.6569 21 19 21L5 21C3.34314 21 2 19.6569 2 18L2 14C2 12.3431 3.34314 11 5 11ZM13.042 4.3L8 4.3C7.0611 4.3 6.29999 5.06111 6.29999 6L6.29999 11L17.7 11L17.7 9.17966C17.7 9.11913 17.6968 9.05892 17.6904 8.99925L15.2999 8.99926C14.223 8.99926 13.3499 8.12621 13.3499 7.04926L13.3499 4.32811C13.2491 4.30954 13.1461 4.3 13.042 4.3ZM14.6499 5.23254L14.6499 7.04926C14.6499 7.40824 14.9409 7.69926 15.2999 7.69926L16.9446 7.69926L14.6499 5.23254ZM10.3198 18.2694C10.7013 18.2694 10.9253 18.0454 10.9253 17.6337L10.9253 15.893L10.9495 15.893L12.442 17.9183C12.6237 18.1665 12.7962 18.2694 13.0414 18.2694C13.4229 18.2694 13.6317 18.0605 13.6317 17.6761L13.6317 14.3853C13.6317 13.9736 13.4108 13.7496 13.0262 13.7496C12.6448 13.7496 12.4208 13.9736 12.4208 14.3853L12.4208 16.0897L12.3966 16.0897L10.9162 14.1008C10.7316 13.8556 10.5529 13.7496 10.3198 13.7496C9.92627 13.7496 9.71436 13.9555 9.71436 14.343L9.71436 17.6337C9.71436 18.0454 9.93536 18.2694 10.3198 18.2694ZM18.7325 16.4318C18.7325 17.4702 18.012 18.2694 16.7102 18.2694C15.3237 18.2694 14.5033 17.4551 14.5033 16.005C14.5033 14.573 15.3237 13.7496 16.6709 13.7496C17.5458 13.7496 18.2057 14.125 18.4631 14.5851C18.5266 14.7032 18.5508 14.8061 18.5508 14.9151C18.5508 15.236 18.3268 15.457 17.9999 15.457C17.7486 15.457 17.5579 15.3601 17.4005 15.1513C17.1946 14.8758 16.9857 14.7607 16.6769 14.7607C16.132 14.7607 15.8111 15.2088 15.8111 15.9868C15.8111 16.783 16.1774 17.2583 16.7405 17.2583C17.1583 17.2583 17.455 17.0252 17.4913 16.674L17.4973 16.6135L17.2461 16.6135C16.9585 16.6135 16.7708 16.4621 16.7708 16.1866C16.7708 15.9111 16.9554 15.7598 17.2461 15.7598L18.0907 15.7598C18.4994 15.7598 18.7325 16.0019 18.7325 16.4318ZM6.55115 17.5974C6.55115 18.0272 6.31805 18.2694 5.90936 18.2694C5.50067 18.2694 5.26758 18.0272 5.26758 17.5974L5.26758 14.4974C5.26758 14.0675 5.50067 13.8253 5.90936 13.8253L7.26257 13.8253C8.23438 13.8253 8.88831 14.4459 8.88831 15.4177C8.88831 16.3804 8.19501 17.001 7.1748 17.001L6.55115 17.001L6.55115 17.5974ZM6.55115 14.791L6.55115 16.0534L6.91144 16.0534C7.33826 16.0534 7.59259 15.8385 7.59259 15.4207C7.59259 15.006 7.33826 14.791 6.92053 14.791L6.55115 14.791Z"/></svg>