<svg xmlns="http://www.w3.org/2000/svg" fill="none" viewBox="0 0 24 24" focusable="false"><path fill="#717681" fill-rule="evenodd" d="M5 6v5c-1.66 0-3 1.34-3 3v4c0 1.65 1.34 3 3 3h14c1.65 0 3-1.35 3-3v-4c0-1.66-1.35-3-3-3V9.17c0-.75-.29-1.48-.81-2.04l-2.96-3.18c-.56-.61-1.36-.95-2.19-.95H8C6.34 3 5 4.34 5 6m3-1.71h5.04q.15 0 .3.03v2.72c0 1.08.88 1.95 1.95 1.95h2.4c0 .06.01.12.01.18V11H6.3V6c0-.94.76-1.71 1.7-1.71m6.64 2.75V5.23l2.3 2.46h-1.65c-.35 0-.65-.29-.65-.65M19 12.3H5c-.94 0-1.7.76-1.7 1.7v4c0 .93.76 1.7 1.7 1.7h14c.93 0 1.7-.77 1.7-1.7v-4c0-.94-.77-1.7-1.7-1.7M5.97 18.4a.62.62 0 0 1-.46-.19.64.64 0 0 1-.19-.46v-3.51c0-.18.07-.34.19-.46a.62.62 0 0 1 .46-.19h1.17c1.07 0 1.95.87 1.95 1.95v.91c0 1.08-.88 1.95-1.95 1.95zm4.37-1.88c0 1.04.84 1.88 1.88 1.88s1.89-.84 1.89-1.88v-1.05c0-1.04-.85-1.88-1.89-1.88s-1.88.84-1.88 1.88zm6.99.58c-.36 0-.65-.29-.65-.65v-.91c0-.36.29-.65.65-.65h.69c.36 0 .65-.29.65-.65s-.29-.65-.65-.65h-.69c-1.08 0-1.95.87-1.95 1.95v.91c0 1.08.87 1.95 1.95 1.95h.69c.36 0 .65-.29.65-.65s-.29-.65-.65-.65zM6.62 14.89v2.21h.52c.36 0 .65-.29.65-.65v-.91c0-.36-.29-.65-.65-.65zm5.6 2.21a.58.58 0 0 1-.58-.58v-1.05c0-.32.26-.58.58-.58s.59.26.59.58v1.05c0 .32-.27.58-.59.58"/></svg>