<svg xmlns="http://www.w3.org/2000/svg" fill="none" viewBox="0 0 24 24" focusable="false"><path fill="#717681" fill-rule="evenodd" d="M17.64 3.35c1.66 0 3 1.34 3 3v10c0 1.65-1.34 3-3 3h-8c-1.65 0-3-1.35-3-3v-10c0-1.66 1.35-3 3-3zm-8 1.3h8c.94 0 1.71.76 1.71 1.7v10c0 .93-.77 1.69-1.71 1.69h-8c-.93 0-1.69-.76-1.69-1.69v-10c0-.94.76-1.7 1.69-1.7m1.66 1.4c-.36 0-.65.29-.65.64v4.7h-.7c-.36 0-.65.29-.65.65s.29.65.65.65h.7v1.05h-.71c-.35 0-.65.29-.65.65s.3.65.65.65h.71v.85c0 .35.29.65.65.65s.65-.3.65-.65v-.85h3.02c.36 0 .65-.29.65-.65s-.29-.65-.65-.65h-3.02v-1.05h2.67c1.84 0 3.33-1.49 3.33-3.32a3.32 3.32 0 0 0-3.33-3.32zm3.32 5.34h-2.67V7.35h2.67c1.12 0 2.03.9 2.03 2.02 0 1.11-.91 2.02-2.03 2.02M4.64 8.7c-.35 0-.64.29-.64.65v9.4A3.25 3.25 0 0 0 7.25 22h8.39c.36 0 .65-.3.65-.65 0-.36-.29-.65-.65-.65H7.25c-1.08 0-1.96-.88-1.96-1.95v-9.4c0-.36-.29-.65-.65-.65"/></svg>