<svg xmlns="http://www.w3.org/2000/svg" fill="none" viewBox="0 0 24 24" focusable="false"><path fill="#717681" fill-rule="evenodd" d="M11.86 18.87c-.11-.44-.16-.9-.16-1.37 0-2.06 1.06-3.87 2.68-4.9.06-.04.15-.09.24-.14a.518.518 0 0 0-.24-.97h-.25c-.73 0-1.44-.27-1.99-.75l-1.32-1.17c-.55-.49-1.26-.76-1.99-.76H5.29v-3.5h4.16c.42 0 .82.15 1.13.42L11.9 6.9c.79.7 1.8 1.08 2.85 1.08h3.95v3.07c0 .35.29.65.65.65.35 0 .65-.3.65-.65V7.98c0-.72-.59-1.3-1.3-1.3h-3.95c-.73 0-1.44-.27-1.99-.75l-1.32-1.17c-.55-.48-1.26-.75-1.99-.75H5.29c-.71 0-1.29.58-1.29 1.3V18.6c0 .72.58 1.3 1.29 1.3h5.84c.51 0 .85-.53.73-1.03m8.82-4.56a4.52 4.52 0 0 1 0 6.37 4.52 4.52 0 0 1-6.37 0 4.52 4.52 0 0 1 0-6.37 4.52 4.52 0 0 1 6.37 0m-4.14 1.31a.64.64 0 0 0-.92 0 .64.64 0 0 0 0 .92l.96.96-.87.86c-.25.25-.25.66 0 .92.26.25.67.25.92 0l.87-.87.95.96c.26.26.67.26.92 0a.64.64 0 0 0 0-.92l-.96-.95.87-.87c.25-.25.25-.66 0-.92a.66.66 0 0 0-.92 0l-.86.87z"/></svg>