<svg xmlns="http://www.w3.org/2000/svg" fill="none" viewBox="0 0 24 24" focusable="false"><defs><clipPath id="Folder_Solid_svg__a"><path fill="#fff" fill-opacity="0" d="M0 0h24v24H0z"/></clipPath></defs><g clip-path="url(#Folder_Solid_svg__a)"><path fill="#717681" fill-rule="evenodd" d="M20 18.6c0 .72-.59 1.3-1.3 1.3H5.3c-.72 0-1.3-.58-1.3-1.3V5.31c0-.72.58-1.3 1.3-1.3h4.15c.73 0 1.44.27 1.99.75l1.32 1.17c.55.48 1.26.75 1.99.75h3.95c.71 0 1.3.58 1.3 1.3zM5.3 8.81h3.53c.73 0 1.44.27 1.99.75l1.32 1.18c.55.48 1.26.75 1.99.75h4.57V7.98h-3.95c-1.05 0-2.06-.38-2.85-1.08l-1.32-1.17c-.31-.27-.71-.42-1.13-.42H5.3z"/></g></svg>