<svg xmlns="http://www.w3.org/2000/svg" fill="none" viewBox="0 0 24 24" focusable="false"><path fill="#74767B" fill-rule="evenodd" d="M18.7 11.49V7.98h-3.95c-1.05 0-2.06-.38-2.85-1.08l-1.32-1.17c-.31-.27-.71-.42-1.13-.42H5.3v3.5c-.72 0-1.3.59-1.3 1.3v-4.8c0-.72.58-1.3 1.3-1.3h4.15c.73 0 1.44.27 1.99.75l1.32 1.17c.55.48 1.26.75 1.99.75h3.95c.71 0 1.3.58 1.3 1.3V18.6c0 .72-.59 1.3-1.3 1.3H5.3c-.72 0-1.3-.58-1.3-1.3v-8.49c0-.71.58-1.3 1.3-1.3h3.53c.73 0 1.44.27 1.99.75l1.32 1.18c.55.48 1.26.75 1.99.75zm0 1.3v5.81H5.3v-8.49h3.53c.42 0 .82.16 1.13.43l1.32 1.17c.79.69 1.8 1.08 2.85 1.08z"/></svg>