<svg xmlns="http://www.w3.org/2000/svg" fill="none" viewBox="0 0 24 24" focusable="false"><defs><clipPath id="Folder_Delete_Outline_svg__a"><path fill="#fff" fill-opacity="0" d="M0 0h24v24H0z"/></clipPath></defs><g clip-path="url(#Folder_Delete_Outline_svg__a)"><path fill="#74767B" fill-rule="evenodd" d="M18.7 13.29v-.53h-4.65c-.99 0-1.95-.35-2.7-1l-1.52-1.3c-.24-.21-.55-.33-.88-.33H5.3v8.42l8.07.05c.36 0 .65.29.65.65s-.29.65-.65.65H5.35c-.74 0-1.35-.61-1.35-1.35V5.37c0-.75.61-1.35 1.35-1.35h3.89c.9 0 1.77.33 2.44.93l1.13 1.01c.52.47 1.2.73 1.9.73h3.94c.74 0 1.35.6 1.35 1.35v5.25c0 .36-.29.65-.65.65s-.65-.29-.65-.65M5.3 5.37l3.94-.05c.58 0 1.14.21 1.57.6l1.13 1.01c.76.68 1.75 1.06 2.77 1.06h3.94l.05 3.47h-4.65c-.68 0-1.34-.24-1.85-.69l-1.52-1.3a2.66 2.66 0 0 0-1.73-.64H5.3zM20.79 16.1c.26-.25.27-.66.02-.92a.65.65 0 0 0-.92-.02l-1.93 1.86-1.92-1.86a.65.65 0 0 0-.92.02c-.25.26-.24.67.01.92l1.9 1.82-1.9 1.83c-.25.25-.26.66-.01.92.25.25.66.26.92.01l1.92-1.85 1.93 1.85c.26.25.67.24.92-.01.25-.26.24-.67-.02-.92l-1.89-1.83z"/></g></svg>