<svg xmlns="http://www.w3.org/2000/svg" fill="none" viewBox="0 0 24 24" focusable="false"><path fill="#717681" fill-rule="evenodd" d="M18.7 11.49V7.986h-3.947a4.3 4.3 0 0 1-2.845-1.076L10.58 5.74a1.7 1.7 0 0 0-1.125-.425H5.3v3.505a1.3 1.3 0 0 0-1.3 1.3V5.314a1.3 1.3 0 0 1 1.3-1.3h4.156a3 3 0 0 1 1.985.75l1.327 1.17a3 3 0 0 0 1.984.751H18.7a1.3 1.3 0 0 1 1.3 1.3v10.619a1.3 1.3 0 0 1-1.3 1.3H5.3a1.3 1.3 0 0 1-1.3-1.3v-8.485a1.3 1.3 0 0 1 1.3-1.3h3.538a3 3 0 0 1 1.985.75l1.326 1.171a3 3 0 0 0 1.985.75H18.7m0 1.3v5.814H5.3v-8.485h3.538a1.7 1.7 0 0 1 1.125.426l1.326 1.17a4.3 4.3 0 0 0 2.845 1.076H18.7" clip-rule="evenodd"/></svg>