<svg xmlns="http://www.w3.org/2000/svg" fill="none" viewBox="0 0 24 24" focusable="false"><path fill="none" d="M0 0h24v24H0z"/><path fill="#717681" fill-rule="evenodd" d="M7 3C5.34 3 4 4.34 4 6v12c0 1.65 1.34 3 3 3h10c1.65 0 3-1.35 3-3V9.29c0-.82-.35-1.62-.95-2.18l-3.52-3.3c-.56-.52-1.29-.81-2.05-.81zm11.4 5.4c.22.22.06.6-.25.6h-2.82C14.59 9 14 8.36 14 7.57V4.84c0-.31.37-.47.59-.25zM12 8.34c0 .36-.3.65-.65.65H8.64c-.36 0-.65-.29-.65-.65s.29-.65.65-.65h2.71c.35 0 .65.29.65.65m-3.38 1.97c-.38 0-.7.31-.7.7v5.28c0 .39.32.71.7.71h6.68c.38 0 .7-.32.7-.71v-5.28c0-.39-.32-.7-.7-.7zM14.7 13H9.22v-1.39h5.48zm-5.48 1.3v1.4h5.48v-1.4z"/></svg>