<svg xmlns="http://www.w3.org/2000/svg" fill="none" viewBox="0 0 24 24" focusable="false"><path fill="#717681" d="M9.228 14.306V15.7H14.7v-1.394H9.228M14.7 13.006H9.228v-1.393H14.7v1.393"/><path fill="#717681" fill-rule="evenodd" d="M4 6a3 3 0 0 1 3-3h6.48a3 3 0 0 1 2.052.811l3.52 3.3A3 3 0 0 1 20 9.3V18a3 3 0 0 1-3 3H7a3 3 0 0 1-3-3zm14.155 3a.35.35 0 0 0 .247-.598l-3.805-3.805a.35.35 0 0 0-.597.248v2.73C14 8.362 14.598 9 15.336 9h2.819m-6.805-.006a.65.65 0 1 0 0-1.3H8.646a.65.65 0 0 0 0 1.3h2.704m-3.422 2.018a.7.7 0 0 1 .7-.7H15.3a.7.7 0 0 1 .7.7V16.3a.7.7 0 0 1-.7.7H8.628a.7.7 0 0 1-.7-.7v-5.288" clip-rule="evenodd"/></svg>