<svg xmlns="http://www.w3.org/2000/svg" fill="none" viewBox="0 0 24 24" focusable="false"><path fill="#717681" d="M7.965 8.349a.65.65 0 0 1 .65-.65h2.74a.65.65 0 1 1 0 1.3h-2.74a.65.65 0 0 1-.65-.65"/><path fill="#717681" fill-rule="evenodd" d="M7.928 11.013a.7.7 0 0 1 .7-.7H15.3a.7.7 0 0 1 .7.7V16.3a.7.7 0 0 1-.7.7H8.628a.7.7 0 0 1-.7-.7v-5.288m1.3 3.293V15.7H14.7v-1.394H9.228m5.472-1.3H9.228v-1.393H14.7v1.393" clip-rule="evenodd"/><path fill="#717681" fill-rule="evenodd" d="M7 3a3 3 0 0 0-3 3v12a3 3 0 0 0 3 3h10a3 3 0 0 0 3-3V9.243a3 3 0 0 0-.879-2.122L15.88 3.88A3 3 0 0 0 13.757 3zm6.757 1.3H7A1.7 1.7 0 0 0 5.3 6v12A1.7 1.7 0 0 0 7 19.7h10a1.7 1.7 0 0 0 1.7-1.7V9.243c0-.082-.006-.164-.018-.244h-2.33a2.35 2.35 0 0 1-2.35-2.35V4.318a1.7 1.7 0 0 0-.245-.018m1.544.84v1.509c0 .58.47 1.05 1.05 1.05h1.51l-2.56-2.56" clip-rule="evenodd"/></svg>