<svg xmlns="http://www.w3.org/2000/svg" fill="none" viewBox="0 0 24 24" focusable="false"><defs><clipPath id="Jpg_Outline_svg__a"><path fill="#fff" fill-opacity="0" d="M0 0h24v24H0z"/></clipPath></defs><g fill="#74767B" clip-path="url(#Jpg_Outline_svg__a)"><path fill-rule="evenodd" d="M9.29 8.14c0 1.39 1.12 2.51 2.5 2.51s2.5-1.12 2.5-2.51a2.5 2.5 0 0 0-5 0m1.3 0c0 .67.54 1.2 1.2 1.2s1.2-.53 1.2-1.2c0-.66-.54-1.2-1.2-1.2s-1.2.54-1.2 1.2"/><path fill-rule="evenodd" d="M20.64 6c0-1.66-1.34-3-3-3h-8c-1.65 0-3 1.34-3 3v10c0 1.65 1.35 3 3 3h.01-.01 8c1.66 0 3-1.35 3-3zm-2 5.28.7 1.02V6c0-.94-.76-1.71-1.7-1.71h-8c-.93 0-1.7.77-1.7 1.71v10c0 .93.77 1.7 1.7 1.7h.8l3.84-6.29c.98-1.61 3.29-1.67 4.36-.13m-1 6.42c.94 0 1.7-.77 1.7-1.7v-1.41l-1.77-2.57a1.3 1.3 0 0 0-2.18.07l-3.43 5.61z"/><path d="M4.64 8.35c-.35 0-.64.29-.64.65v9.4a3.25 3.25 0 0 0 3.25 3.25h8.39c.36 0 .65-.3.65-.65 0-.36-.29-.65-.65-.65H7.25c-1.08 0-1.95-.88-1.95-1.95V9c0-.36-.3-.65-.66-.65"/></g></svg>