<svg xmlns="http://www.w3.org/2000/svg" fill="none" viewBox="0 0 24 24" focusable="false"><path fill="#74767B" fill-rule="evenodd" d="M17.64 3.35c1.66 0 3 1.34 3 3v10c0 1.65-1.34 3-3 3h-8c-1.65 0-3-1.35-3-3v-10c0-1.66 1.35-3 3-3zM11.3 10a2 2 0 0 1-2-2c0-1.11.89-2 2-2a2 2 0 1 1 0 4M4 9.35c0-.36.29-.65.64-.65.36 0 .66.29.66.65v9.4c0 1.07.87 1.95 1.95 1.95h8.39c.36 0 .65.29.65.65 0 .35-.29.65-.65.65H7.25A3.25 3.25 0 0 1 4 18.75zm15.35 5.02v1.98c0 .94-.76 1.7-1.7 1.7h-6.97l3.9-6.38c.64-1.05 2.15-1.1 2.84-.09z"/></svg>