<svg xmlns="http://www.w3.org/2000/svg" fill="none" viewBox="0 0 24 24" focusable="false"><path fill="none" d="M0 0h24v24H0z"/><path fill="#74767B" fill-rule="evenodd" d="M10.7 3c.35 0 .65.29.65.65 0 .35-.3.64-.65.64H8.64a.644.644 0 0 1 0-1.29zm9.3 7.7c0 .35-.3.65-.65.65-.36 0-.65-.3-.65-.65V9.24c0-.08-.01-.17-.02-.25h-2.33c-1.3 0-2.35-1.05-2.35-2.35V4.31c-.08-.01-.17-.02-.25-.02h-.45c-.36 0-.66-.29-.66-.64 0-.36.3-.65.66-.65h.45c.8 0 1.56.31 2.12.87l3.25 3.25c.56.56.88 1.32.88 2.12zM4 6c0-1.3.82-2.41 1.97-2.83.37-.13.72.19.72.59 0 .32-.24.59-.53.75-.51.29-.86.85-.86 1.49v.04c0 .36-.3.66-.66.66-.35 0-.64-.3-.64-.66zm13.86 1.69L15.3 5.13v1.51c0 .58.47 1.05 1.05 1.05zm-9.9.65c0-.36.29-.65.65-.65h2.74c.36 0 .65.29.65.65s-.29.65-.65.65H8.61c-.36 0-.65-.29-.65-.65m-3.32 3.01c-.35 0-.64-.3-.64-.65V8.65c0-.36.29-.65.64-.65.36 0 .66.29.66.65v2.05c0 .35-.3.65-.66.65m3.97-.16h6.73c.36 0 .65.29.65.65s-.29.65-.65.65H8.61c-.36 0-.65-.29-.65-.65s.29-.65.65-.65m-3.97 1.46c.36 0 .66.29.66.65v2.05c0 .35-.3.65-.66.65-.35 0-.64-.3-.64-.65V13.3c0-.36.29-.65.64-.65M19.35 16c-.36 0-.65-.3-.65-.65V13.3c0-.36.29-.65.65-.65.35 0 .65.29.65.65v2.05c0 .35-.3.65-.65.65m-11.39-.64c0-.36.29-.65.65-.65h6.73c.36 0 .65.29.65.65s-.29.65-.65.65H8.61c-.36 0-.65-.29-.65-.65m-1.27 4.87c0 .4-.35.72-.72.59A3.01 3.01 0 0 1 4 18v-.05c0-.36.29-.66.64-.66.36 0 .66.3.66.66V18c0 .63.35 1.19.86 1.48.29.16.53.43.53.75m12.66-2.94c.35 0 .65.3.65.66V18c0 1.29-.83 2.4-1.98 2.82-.37.13-.73-.19-.73-.59 0-.32.25-.59.54-.75.51-.29.87-.85.87-1.48v-.05c0-.36.29-.66.65-.66M10.7 21H8.64c-.35 0-.64-.3-.64-.65 0-.36.29-.65.64-.65h2.06c.35 0 .65.29.65.65 0 .35-.3.65-.65.65m5.3-.65c0 .35-.3.65-.65.65H13.3c-.36 0-.66-.3-.66-.65 0-.36.3-.65.66-.65h2.05c.35 0 .65.29.65.65"/></svg>