<svg xmlns="http://www.w3.org/2000/svg" fill="none" viewBox="0 0 24 24" focusable="false"><path fill="#717681" d="M16 20.35a.65.65 0 0 1-.65.65H13.3a.65.65 0 1 1 0-1.3h2.05a.65.65 0 0 1 .65.65M19.35 17.3a.65.65 0 0 1 .65.65V18a3.001 3.001 0 0 1-1.974 2.82c-.376.137-.726-.181-.726-.58 0-.328.245-.596.53-.756A1.7 1.7 0 0 0 18.7 18v-.05a.65.65 0 0 1 .65-.65M19.35 16a.65.65 0 0 0 .65-.65V13.3a.65.65 0 1 0-1.3 0v2.05c0 .359.291.65.65.65M19.35 11.35a.65.65 0 0 0 .65-.65V9.243a3 3 0 0 0-.879-2.122L15.88 3.88A3 3 0 0 0 13.757 3H13.3a.65.65 0 1 0 0 1.3h.457c.042 0 .084.002.125.005v3.113a1.7 1.7 0 0 0 1.7 1.7h3.113c.003.041.005.083.005.125V10.7c0 .359.291.65.65.65M10.7 3a.65.65 0 1 1 0 1.3H8.65a.65.65 0 0 1 0-1.3zM10.7 21a.65.65 0 1 0 0-1.3H8.65a.65.65 0 1 0 0 1.3zM5.975 20.82c.375.137.725-.181.725-.58 0-.328-.245-.596-.53-.756A1.7 1.7 0 0 1 5.3 18v-.05a.65.65 0 1 0-1.3 0V18c0 1.297.823 2.401 1.975 2.82M4.65 12.65a.65.65 0 0 1 .65.65v2.05a.65.65 0 1 1-1.3 0V13.3a.65.65 0 0 1 .65-.65M4 6c0-1.297.823-2.401 1.975-2.82.375-.137.725.181.725.58 0 .328-.245.596-.53.756A1.7 1.7 0 0 0 5.3 6v.05a.65.65 0 0 1-1.3 0zM4.65 11.35a.65.65 0 0 0 .65-.65V8.65a.65.65 0 0 0-1.3 0v2.05c0 .359.291.65.65.65M7.965 8.349a.65.65 0 0 1 .65-.65h2.74a.65.65 0 1 1 0 1.3h-2.74a.65.65 0 0 1-.65-.65M7.965 15.362a.65.65 0 0 1 .65-.65h6.73a.65.65 0 0 1 0 1.3h-6.73a.65.65 0 0 1-.65-.65M8.615 11.198a.65.65 0 1 0 0 1.3h6.73a.65.65 0 0 0 0-1.3h-6.73"/></svg>