<svg xmlns="http://www.w3.org/2000/svg" fill="none" viewBox="0 0 24 24" focusable="false"><path fill="#717681" fill-rule="evenodd" d="M11.994 6.64A2.38 2.38 0 0 0 9.61 9.276l.133 1.233a2.244 2.244 0 0 0 4.462.008l.136-1.233a2.38 2.38 0 0 0-2.349-2.642m.92 3.732.136-1.232a1.08 1.08 0 1 0-2.146-.004l.133 1.233a.944.944 0 0 0 1.876.003M8.824 14.892a3.65 3.65 0 0 1 2.863-1.386h.637a3.65 3.65 0 0 1 2.914 1.453l.192.253c.67.89.036 2.163-1.078 2.163H9.648c-1.128 0-1.759-1.302-1.059-2.187zm2.863-.086a2.35 2.35 0 0 0-1.844.892l-.233.296c-.011.014-.012.021-.012.024 0 .007 0 .017.006.029a.056.056 0 0 0 .018.022c.003.002.01.006.027.006h4.703c.016 0 .023-.004.026-.006a.055.055 0 0 0 .018-.022.055.055 0 0 0 .007-.027c0-.004-.001-.012-.012-.025l-.19-.254a2.35 2.35 0 0 0-1.877-.935z" clip-rule="evenodd"/><path fill="#717681" fill-rule="evenodd" d="M4 6a3 3 0 0 1 3-3h10a3 3 0 0 1 3 3v12a3 3 0 0 1-3 3H7a3 3 0 0 1-3-3zm3-1.7h10A1.7 1.7 0 0 1 18.7 6v12a1.7 1.7 0 0 1-1.7 1.7H7A1.7 1.7 0 0 1 5.3 18V6A1.7 1.7 0 0 1 7 4.3" clip-rule="evenodd"/></svg>