<svg xmlns="http://www.w3.org/2000/svg" width="24" height="24" fill="none"><path fill="#717681" d="M13.892 11.496h-.914v-1.73h.914a.865.865 0 0 1 0 1.73Z"/><path fill="#717681" fill-rule="evenodd" d="M17.65 3.35a3 3 0 0 1 3 3v10a3 3 0 0 1-3 3h-8a3 3 0 0 1-3-3v-10a3 3 0 0 1 3-3h8Zm-5.322 5.116a.65.65 0 0 0-.65.65v4.465a.65.65 0 1 0 1.3 0v-.785h.914a2.165 2.165 0 0 0 0-4.33h-1.564Z" clip-rule="evenodd"/><path fill="#717681" d="M4 9.35a.65.65 0 1 1 1.3 0v9.4a1.95 1.95 0 0 0 1.95 1.95h8.4a.65.65 0 1 1 0 1.3h-8.4A3.25 3.25 0 0 1 4 18.75v-9.4Z"/></svg>