<svg xmlns="http://www.w3.org/2000/svg" fill="none" viewBox="0 0 24 24" focusable="false"><path fill="#717681" fill-rule="evenodd" d="M17.64 3.35c1.66 0 3 1.34 3 3v10c0 1.65-1.34 3-3 3h-8c-1.65 0-3-1.35-3-3v-10c0-1.66 1.35-3 3-3zm-5.32 5.11c-.17 0-.33.07-.46.19a.66.66 0 0 0-.19.46v4.47c0 .36.29.65.65.65s.65-.29.65-.65v-.79h.92a2.166 2.166 0 0 0 0-4.33zm-7.68.24c-.35 0-.64.29-.64.65v9.4A3.25 3.25 0 0 0 7.25 22h8.39c.36 0 .65-.3.65-.65 0-.36-.29-.65-.65-.65H7.25c-1.08 0-1.95-.88-1.95-1.95v-9.4c0-.36-.3-.65-.66-.65m9.25 2.79h-.92V9.76h.92c.47 0 .86.39.86.87 0 .47-.39.86-.86.86"/></svg>