<svg xmlns="http://www.w3.org/2000/svg" fill="none" viewBox="0 0 24 24" focusable="false"><path fill="#717681" fill-rule="evenodd" d="M3.003 8.7a3 3 0 0 1 3-3h6.75a3 3 0 0 1 3 3V18a3 3 0 0 1-3 3h-6.75a3 3 0 0 1-3-3V8.7m3-1.7h6.75a1.7 1.7 0 0 1 1.7 1.7V18a1.7 1.7 0 0 1-1.7 1.7h-6.75a1.7 1.7 0 0 1-1.7-1.7V8.7a1.7 1.7 0 0 1 1.7-1.7" clip-rule="evenodd"/><path fill="#717681" d="M20.05 10.527a.65.65 0 0 1-.919 0L17.365 8.76a.65.65 0 0 1 .92-.92l.656.657a5.2 5.2 0 0 0-5.2-5.195.65.65 0 1 1 0-1.3 6.5 6.5 0 0 1 6.5 6.495l.656-.656a.65.65 0 1 1 .92.92l-1.767 1.765"/></svg>