<svg xmlns="http://www.w3.org/2000/svg" fill="none" viewBox="0 0 24 24" focusable="false"><defs><clipPath id="Rotate_Right_Outline_svg__a"><path fill="#fff" fill-opacity="0" d="M0 0h24v24H0z"/></clipPath></defs><g clip-path="url(#Rotate_Right_Outline_svg__a)"><path fill="#74767B" fill-rule="evenodd" d="M19.13 10.52c.25.26.66.26.92 0l1.76-1.76a.64.64 0 0 0 0-.92.64.64 0 0 0-.92 0l-.65.65C20.23 4.91 17.32 2 13.74 2c-.36 0-.65.29-.65.65s.29.65.65.65a5.2 5.2 0 0 1 5.2 5.19l-.66-.65a.64.64 0 0 0-.92 0c-.25.25-.25.66 0 .92zM6 5.69c-1.66 0-3 1.35-3 3V18c0 1.65 1.34 3 3 3h6.75c1.65 0 3-1.35 3-3V8.69c0-1.65-1.35-3-3-3zm6.75 1.3H6c-.94 0-1.7.77-1.7 1.7V18c0 .93.76 1.7 1.7 1.7h6.75c.94 0 1.7-.77 1.7-1.7V8.69c0-.93-.76-1.7-1.7-1.7"/></g></svg>