<svg xmlns="http://www.w3.org/2000/svg" fill="none" viewBox="0 0 24 24" focusable="false"><defs><clipPath id="Rotate_Left_Solid_svg__a"><path fill="#fff" fill-opacity="0" d="M0 0h24v24H0z"/></clipPath></defs><g clip-path="url(#Rotate_Left_Solid_svg__a)"><path fill="#717681" fill-rule="evenodd" d="M5.87 10.52a.64.64 0 0 1-.92 0L3.19 8.76a.64.64 0 0 1 0-.92.64.64 0 0 1 .92 0l.65.65C4.77 4.91 7.68 2 11.26 2c.36 0 .65.29.65.65s-.29.65-.65.65a5.2 5.2 0 0 0-5.2 5.19l.66-.65a.64.64 0 0 1 .92 0c.25.25.25.66 0 .92zM22 8.69c0-1.65-1.35-3-3-3h-6.75c-1.66 0-3 1.35-3 3V18c0 1.65 1.34 3 3 3H19c1.65 0 3-1.35 3-3z"/></g></svg>