<svg xmlns="http://www.w3.org/2000/svg" fill="none" viewBox="0 0 24 24" focusable="false"><path fill="#717681" fill-rule="evenodd" d="M6.99 3c-1.65 0-3 1.34-3 3v5.35H2.64c-.36 0-.65.29-.65.65 0 .35.29.65.65.65h18.71c.36 0 .65-.3.65-.65 0-.36-.29-.65-.65-.65h-1.36V9.29c0-.83-.34-1.62-.94-2.18l-3.5-3.3c-.56-.52-1.3-.81-2.06-.81zm-2.7 10.94a.3.3 0 0 0-.3.3V18c0 1.65 1.35 3 3 3h10c1.66 0 3-1.35 3-3v-3.76c0-.17-.13-.3-.29-.3zm10.69-4.95h3.41c.27 0 .4-.33.2-.51l-4.4-4.16a.3.3 0 0 0-.51.21v3.16c0 .72.59 1.3 1.3 1.3"/></svg>