<svg xmlns="http://www.w3.org/2000/svg" fill="none" viewBox="0 0 24 24" focusable="false"><defs><clipPath id="Scan_Doc_Outline_svg__a"><path fill="#fff" fill-opacity="0" d="M24 24H0V0h24z"/></clipPath></defs><path fill="none" d="M24 24H0V0h24z"/><g clip-path="url(#Scan_Doc_Outline_svg__a)"><path fill="#74767B" fill-rule="evenodd" d="M11 8.01c0-1.65 1.34-3 3-3h4c1.65 0 3 1.35 3 3v10c0 1.66-1.35 3-3 3h-4c-.13 0-.26 0-.38-.02h-3.48c-.36 0-.65-.29-.65-.65s.29-.65.65-.65h1.37c-.33-.48-.51-1.05-.51-1.68v-6.32h-.86c-.36 0-.65-.29-.65-.65s.29-.65.65-.65H11zm-.85-2.77c.25.26.25.67 0 .92L8.1 8.21c-.25.25-.66.25-.92 0a.66.66 0 0 1 0-.92l.94-.94H6.68c-1.29 0-2.35 1.05-2.35 2.35v.66c0 .36-.29.65-.65.65s-.65-.29-.65-.65V8.7c0-2.01 1.64-3.65 3.65-3.65h1.44l-.94-.93a.66.66 0 0 1 0-.92.64.64 0 0 1 .92 0zM6.68 19.69c-.19 0-.37-.02-.55-.06-.35-.09-.7.13-.78.48-.09.35.13.7.47.78.28.07.57.1.86.1h.62c.36 0 .65-.29.65-.65s-.29-.65-.65-.65zM4.4 18.04c.08.35-.13.7-.48.78s-.7-.13-.79-.48c-.06-.27-.1-.56-.1-.86v-.5c0-.36.29-.65.65-.65s.65.29.65.65v.5c0 .19.03.38.07.56M3.68 15c.36 0 .65-.29.65-.65v-.5c0-.19.03-.37.07-.55.08-.35-.13-.7-.48-.78-.35-.09-.7.13-.79.47-.06.28-.1.57-.1.86v.5c0 .36.29.65.65.65m2.45-3.25c-.35.09-.7-.13-.78-.48a.64.64 0 0 1 .47-.78c.28-.07.57-.1.86-.1h.62c.36 0 .65.29.65.65s-.29.65-.65.65h-.62c-.19 0-.37.02-.55.06"/></g></svg>