<svg xmlns="http://www.w3.org/2000/svg" fill="none" viewBox="0 0 24 24" focusable="false"><path fill="#717681" fill-rule="evenodd" d="M11 8.018a3 3 0 0 1 3-3h4a3 3 0 0 1 3 3v10a3 3 0 0 1-3 3h-4c-.127 0-.253-.008-.376-.023a.665.665 0 0 1-.057.002h-3.422a.65.65 0 1 1 0-1.3h1.369a2.986 2.986 0 0 1-.514-1.68v-6.325h-.855a.65.65 0 1 1 0-1.3H11V8.018m-.845-2.771a.65.65 0 0 1 0 .92L8.109 8.211a.65.65 0 0 1-.92-.92l.937-.935H6.688a2.35 2.35 0 0 0-2.35 2.35v.662a.65.65 0 1 1-1.3 0v-.662a3.65 3.65 0 0 1 3.65-3.65h1.438L7.19 4.12a.65.65 0 0 1 .919-.92l2.046 2.046m-3.467 14.45c-.191 0-.376-.023-.553-.065a.65.65 0 0 0-.305 1.263c.276.067.563.102.858.102h.616a.65.65 0 1 0 0-1.3h-.616m-2.284-1.656a.65.65 0 0 1-1.264.305 3.657 3.657 0 0 1-.102-.858v-.5a.65.65 0 1 1 1.3 0v.5c0 .191.023.376.066.553m-.716-3.033a.65.65 0 0 0 .65-.65v-.5c0-.191.023-.377.066-.553A.65.65 0 1 0 3.14 13a3.658 3.658 0 0 0-.102.858v.5c0 .359.291.65.65.65m2.447-3.25a.65.65 0 1 1-.305-1.264c.276-.067.563-.102.858-.102h.616a.65.65 0 1 1 0 1.3h-.616a2.36 2.36 0 0 0-.553.066" clip-rule="evenodd"/></svg>