<svg xmlns="http://www.w3.org/2000/svg" fill="none" viewBox="0 0 24 24" focusable="false"><path fill="#74767B" fill-rule="evenodd" d="M7 3C5.34 3 4 4.34 4 6v5.35H2.99c-.35 0-.65.29-.65.65 0 .35.3.65.65.65h5.19c.03 0 .06-.01.08-.01h5.93c.06 0 .12-.02.16-.05.9-.57 1.96-.89 3.1-.89.74 0 1.45.13 2.11.39.2.08.44-.07.44-.29V9.29c0-.83-.35-1.62-.95-2.18l-3.5-3.3c-.56-.52-1.3-.81-2.06-.81zm5.26 10.94c.25 0 .39.29.26.5-.55.89-.87 1.93-.87 3.06 0 1.09.31 2.12.84 3 .13.21-.02.5-.27.5H7c-1.66 0-3-1.35-3-3v-3.76c0-.17.13-.3.29-.3zm2.72-4.95h3.41c.27 0 .4-.33.2-.51l-4.4-4.16a.3.3 0 0 0-.51.21v3.16c0 .72.59 1.3 1.3 1.3M17.45 22c-2.48 0-4.5-2.02-4.5-4.5a4.5 4.5 0 1 1 4.5 4.5m.14-1.65c-.18 0-.35-.07-.48-.21a.66.66 0 0 1 .04-.92l1.19-1.15h-3.37c-.36 0-.65-.29-.65-.65s.29-.65.65-.65h3.37l-1.19-1.14a.65.65 0 0 1-.04-.92c.24-.26.65-.28.92-.04l2.35 2.23c.31.28.31.76 0 1.04l-2.35 2.24c-.13.12-.28.17-.44.17"/></svg>