<svg xmlns="http://www.w3.org/2000/svg" fill="none" viewBox="0 0 25 24" focusable="false"><path fill="#717681" fill-rule="evenodd" d="M7.331 3a3 3 0 0 0-3 3v5.35h-1a.65.65 0 1 0 0 1.3h5.184a1 1 0 0 0 .085-.006h5.926a.3.3 0 0 0 .165-.048 5.77 5.77 0 0 1 3.098-.896c.742 0 1.45.14 2.102.393.207.08.44-.066.44-.288V9.297a3 3 0 0 0-.944-2.185l-3.505-3.297A3 3 0 0 0 13.826 3zm5.263 10.944c.25 0 .394.291.263.503a5.77 5.77 0 0 0-.868 3.053c0 1.098.305 2.125.836 3 .128.213-.017.5-.265.5H7.331a3 3 0 0 1-3-3v-3.756a.3.3 0 0 1 .3-.3zM15.32 9h3.402a.3.3 0 0 0 .206-.518L14.526 4.32a.3.3 0 0 0-.506.218V7.7a1.3 1.3 0 0 0 1.3 1.3m2.47 13a4.5 4.5 0 1 1 0-9 4.5 4.5 0 0 1 0 9m.136-1.646c-.18 0-.35-.07-.48-.21a.66.66 0 0 1 .04-.92l1.195-1.147h-3.378a.65.65 0 1 1 0-1.3h3.371l-1.188-1.138a.65.65 0 0 1-.04-.92c.24-.26.65-.28.92-.04l2.347 2.228c.31.28.31.76 0 1.04l-2.347 2.237c-.13.12-.28.17-.44.17" clip-rule="evenodd"/></svg>