<svg xmlns="http://www.w3.org/2000/svg" fill="none" viewBox="0 0 24 24" focusable="false"><path fill="#717681" fill-rule="evenodd" d="M12.3 8.018v10a1.7 1.7 0 0 0 1.7 1.7h4a1.7 1.7 0 0 0 1.7-1.7v-10a1.7 1.7 0 0 0-1.7-1.7h-4a1.7 1.7 0 0 0-1.7 1.7m1.7-3a3 3 0 0 0-3 3v2.374h-.855a.65.65 0 0 0 0 1.3H11v6.326c0 .622.19 1.2.514 1.679h-1.37a.65.65 0 0 0 0 1.3h3.423c.019 0 .038 0 .057-.002.123.015.249.023.376.023h4a3 3 0 0 0 3-3v-10a3 3 0 0 0-3-3h-4m-3.845.229a.65.65 0 0 1 0 .92L8.109 8.211a.65.65 0 0 1-.92-.92l.937-.935H6.688a2.35 2.35 0 0 0-2.35 2.35v.662a.65.65 0 1 1-1.3 0v-.662a3.65 3.65 0 0 1 3.65-3.65h1.438L7.19 4.12a.65.65 0 0 1 .919-.92l2.046 2.046m-4.02 14.385c.176.042.362.065.553.065h.616a.65.65 0 0 1 0 1.3h-.616a3.66 3.66 0 0 1-.858-.102.65.65 0 0 1 .304-1.263m-2.211-.807a.65.65 0 0 0 .48-.784 2.358 2.358 0 0 1-.066-.553v-.5a.65.65 0 1 0-1.3 0v.5c0 .294.035.582.102.858a.65.65 0 0 0 .784.48m.414-4.467a.65.65 0 1 1-1.3 0v-.5c0-.295.035-.582.102-.858a.65.65 0 0 1 1.264.305 2.359 2.359 0 0 0-.066.553v.5m1.012-3.08a.65.65 0 0 0 .784.48 2.36 2.36 0 0 1 .554-.066h.616a.65.65 0 1 0 0-1.3h-.616c-.295 0-.582.035-.858.102a.65.65 0 0 0-.48.784" clip-rule="evenodd"/></svg>