<svg xmlns="http://www.w3.org/2000/svg" fill="none" viewBox="0 0 24 24" focusable="false"><defs><clipPath id="Scan_Outline_svg__a"><path fill="#fff" fill-opacity="0" d="M0 0h24v24H0z"/></clipPath></defs><g clip-path="url(#Scan_Outline_svg__a)"><path fill="#717681" fill-rule="evenodd" d="M13.49 4.3H7c-.94 0-1.7.76-1.7 1.7v5.35h13.4V9.29q0-.15-.03-.3h-2.72c-1.08 0-1.95-.87-1.95-1.95V4.37c-.17-.05-.34-.07-.51-.07m1.81 1.06v1.68c0 .36.29.65.65.65h1.83zm4.7 5.99V9.29c0-.83-.35-1.62-.95-2.18l-3.5-3.3c-.56-.52-1.3-.81-2.06-.81H7C5.34 3 4 4.34 4 6v5.35H2.6c-.35 0-.65.29-.65.65 0 .35.3.65.65.65h18.79c.35 0 .65-.3.65-.65 0-.36-.3-.65-.65-.65zM4.64 13.94c.36 0 .66.29.66.65V18c0 .93.76 1.7 1.7 1.7h10c.93 0 1.7-.77 1.7-1.7v-3.41c0-.36.29-.65.65-.65.35 0 .65.29.65.65V18c0 1.65-1.35 3-3 3H7c-1.66 0-3-1.35-3-3v-3.41c0-.36.29-.65.64-.65"/></g></svg>