<svg xmlns="http://www.w3.org/2000/svg" fill="none" viewBox="0 0 24 24" focusable="false"><defs><clipPath id="Scan_Redo_Outline_svg__a"><path fill="#fff" fill-opacity="0" d="M0 0h24v24H0z"/></clipPath></defs><g clip-path="url(#Scan_Redo_Outline_svg__a)"><path fill="#717681" fill-rule="evenodd" d="M13.49 4.3H7c-.94 0-1.7.76-1.7 1.7v5.35h13.4V9.29c0-.1-.01-.2-.03-.3h-2.72c-1.08 0-1.95-.87-1.95-1.95V4.37c-.17-.05-.34-.07-.51-.07M4 6v5.35H2.6c-.35 0-.65.29-.65.65 0 .35.3.65.65.65h18.79c.35 0 .65-.3.65-.65 0-.36-.3-.65-.65-.65H20V9.29c0-.83-.35-1.62-.95-2.18l-3.5-3.3c-.56-.52-1.3-.81-2.06-.81H7C5.34 3 4 4.34 4 6m11.3-.64 2.48 2.33h-1.83c-.36 0-.65-.29-.65-.65zM4 14.59c0-.36.29-.65.64-.65.36 0 .66.29.66.65V18c0 .93.76 1.7 1.7 1.7h5.12c.35 0 .65.29.65.65 0 .35-.3.65-.65.65H7c-1.66 0-3-1.35-3-3zm14.1 7.06a3.85 3.85 0 0 1-3.81-3.31l-.41.41c-.25.26-.66.26-.92.01a.649.649 0 0 1-.01-.92l1.55-1.58c.25-.25.67-.26.92 0L17 17.81c.26.25.26.66.01.91-.25.26-.67.26-.92.01l-.5-.49c.21 1.2 1.25 2.11 2.51 2.11 1.41 0 2.55-1.15 2.55-2.56 0-1.41-1.14-2.55-2.55-2.55-.29 0-.57.05-.84.14a.636.636 0 0 1-.82-.4.65.65 0 0 1 .4-.83c.39-.14.82-.21 1.26-.21 2.13 0 3.85 1.73 3.85 3.85 0 2.13-1.72 3.86-3.85 3.86"/></g></svg>