<svg xmlns="http://www.w3.org/2000/svg" fill="none" viewBox="0 0 24 24" focusable="false"><path fill="none" d="M24 24H0V0h24z"/><path fill="#717681" fill-rule="evenodd" d="M12.3 8.01v10c0 .94.76 1.7 1.7 1.7h4c.93 0 1.7-.76 1.7-1.7v-10c0-.94-.77-1.7-1.7-1.7h-4c-.94 0-1.7.76-1.7 1.7m1.7-3c-1.66 0-3 1.35-3 3v2.38h-.86c-.36 0-.65.29-.65.65s.29.65.65.65H11v6.32c0 .63.18 1.2.51 1.68h-1.37c-.36 0-.65.29-.65.65s.29.65.65.65h3.48c.12.02.25.02.38.02h4c1.65 0 3-1.34 3-3v-10c0-1.65-1.35-3-3-3zm-3.85.23c.25.26.25.67 0 .92L8.1 8.21c-.25.25-.66.25-.92 0a.66.66 0 0 1 0-.92l.94-.94H6.68c-1.29 0-2.35 1.05-2.35 2.35v.66c0 .36-.29.65-.65.65s-.65-.29-.65-.65V8.7c0-2.01 1.64-3.65 3.65-3.65h1.44l-.94-.93a.66.66 0 0 1 0-.92.64.64 0 0 1 .92 0zM6.13 19.63c.18.04.36.06.55.06h.62c.36 0 .65.29.65.65s-.29.65-.65.65h-.62c-.29 0-.58-.03-.86-.1a.64.64 0 0 1-.47-.78c.08-.35.43-.57.78-.48m-2.21-.81c.35-.08.56-.43.48-.78-.04-.18-.07-.37-.07-.56v-.5c0-.36-.29-.65-.65-.65s-.65.29-.65.65v.5c0 .3.04.59.1.86.09.35.44.56.79.48m.41-4.47c0 .36-.29.65-.65.65s-.65-.29-.65-.65v-.5c0-.29.04-.58.1-.86.09-.34.44-.56.79-.47.35.08.56.43.48.78-.04.18-.07.36-.07.55zm1.02-3.08c.08.35.43.57.78.48.18-.04.36-.06.55-.06h.62c.36 0 .65-.29.65-.65s-.29-.65-.65-.65h-.62c-.29 0-.58.03-.86.1a.64.64 0 0 0-.47.78"/></svg>