<svg xmlns="http://www.w3.org/2000/svg" fill="none" viewBox="0 0 24 24" focusable="false"><path fill="#74767B" fill-rule="evenodd" d="M13.49 4.3H7c-.94 0-1.7.76-1.7 1.7v5.35h13.4V9.29q0-.15-.03-.3h-2.72c-1.08 0-1.95-.87-1.95-1.95V4.37c-.17-.05-.34-.07-.51-.07M4 6v5.35H2.99c-.35 0-.65.29-.65.65 0 .35.3.65.65.65h18c.36 0 .65-.3.65-.65 0-.36-.29-.65-.65-.65H20V9.29c0-.83-.35-1.62-.95-2.18l-3.5-3.3c-.56-.52-1.3-.81-2.06-.81H7C5.34 3 4 4.34 4 6m11.3-.64 2.48 2.33h-1.83c-.36 0-.65-.29-.65-.65zM4 14.59c0-.36.29-.65.64-.65.36 0 .66.29.66.65V18c0 .93.76 1.7 1.7 1.7h5.12c.35 0 .65.29.65.65 0 .35-.3.65-.65.65H7c-1.66 0-3-1.35-3-3zm11.29 2.22a.63.63 0 0 0-.01 1.26c1.64.01 3.43 0 3.43 0l-1.55 1.41c-.26.22-.29.61-.07.88.12.14.28.21.45.22.16 0 .3-.04.43-.15l2.7-2.38c.3-.26.32-.72.03-1l-2.53-2.46a.63.63 0 0 0-.88.01c-.24.25-.25.64 0 .88l1.46 1.34z"/></svg>