<svg xmlns="http://www.w3.org/2000/svg" width="24" height="24" fill="none"><path fill="#717681" d="M16.582 8.418a.628.628 0 0 1-.893-.881c1.153-1.168 2.422-2.423 2.422-2.423l-2.089.1a.633.633 0 0 1-.674-.574.62.62 0 0 1 .167-.476.603.603 0 0 1 .408-.198l3.59-.22c.4-.034.738.28.732.682l-.051 3.524a.633.633 0 0 1-.631.621.624.624 0 0 1-.622-.63l.08-1.972-2.439 2.447Z"/><path fill="#717681" fill-rule="evenodd" d="M9.28 4.472a1.3 1.3 0 0 0-1.839 0L5.744 6.169a1.3 1.3 0 0 0 0 1.838L16.217 18.48c.397.397.899.675 1.446.801l1.732.4a1.3 1.3 0 0 0 1.558-1.56l-.399-1.73a2.999 2.999 0 0 0-.802-1.447L9.28 4.472Zm-.92.919L6.665 7.088l1.62 1.621 1.698-1.697L8.36 5.391Zm2.541 2.54 7.932 7.932a1.7 1.7 0 0 1 .454.82l.4 1.731-1.731-.4a1.7 1.7 0 0 1-.82-.454L9.204 9.628 10.9 7.931Z" clip-rule="evenodd"/><path fill="#717681" d="M9.107 18.835c-.553.466-1.274 1.074-2.455 1.074-2.071 0-3.038-1.348-3.42-1.88a5.492 5.492 0 0 0-.087-.12.65.65 0 0 1 1.035-.787l.105.143c.38.519.983 1.344 2.367 1.344.683 0 1.08-.316 1.65-.795l.028-.024c.554-.468 1.277-1.078 2.464-1.078 1.98 0 3.05 1.398 3.461 1.937.058.076.103.135.136.17a.65.65 0 0 1-.957.88 6.713 6.713 0 0 1-.272-.325c-.47-.583-1.096-1.362-2.368-1.362-.688 0-1.088.318-1.655.796l-.032.027Z"/></svg>