<svg xmlns="http://www.w3.org/2000/svg" fill="none" viewBox="0 0 24 24" focusable="false"><defs><clipPath id="Send_Sign_Solid_svg__a"><path fill="#fff" fill-opacity="0" d="M0 0h24v24H0z"/></clipPath></defs><g clip-path="url(#Send_Sign_Solid_svg__a)"><path fill="#717681" fill-rule="evenodd" d="M15.69 8.43c.25.23.64.22.87-.02L19 5.97l-.08 1.97c0 .34.28.62.63.63.34 0 .62-.28.63-.62l.05-3.53c0-.4-.33-.71-.73-.68l-3.59.22c-.17.01-.31.09-.41.2-.12.13-.18.29-.17.47.03.35.34.61.67.58l2.09-.1s-1.27 1.25-2.42 2.42c-.25.25-.24.66.02.9M7.4 4.98c.51-.51 1.33-.51 1.84 0l1.13 1.13c.27.27.28.71.01.98L8.36 9.17a.7.7 0 0 1-1 0L6.24 8.05c-.5-.51-.5-1.33 0-1.84zm1.87 5.12c-.27.27-.27.71 0 .98l7.45 7.45c.4.39.9.67 1.45.8l1.73.4c.93.22 1.23-.16 1.02-1.1l-.4-1.73c-.13-.55-.41-1.05-.81-1.45l-7.43-7.43a.688.688 0 0 0-.99.01zm-2.63 9.8c1.18 0 1.9-.6 2.45-1.07l.03-.03c.57-.48.97-.79 1.66-.79 1.27 0 1.9.78 2.36 1.36.1.12.19.23.28.32.24.27.65.29.91.04a.64.64 0 0 0 .04-.92c-.03-.03-.07-.09-.13-.17-.41-.53-1.48-1.93-3.46-1.93-1.19 0-1.91.61-2.47 1.07l-.03.03c-.56.48-.96.79-1.64.79-1.39 0-1.99-.82-2.37-1.34-.04-.05-.07-.1-.11-.14a.653.653 0 0 0-.91-.13c-.28.22-.34.63-.12.91.02.04.05.08.09.12.38.54 1.34 1.88 3.42 1.88"/></g></svg>