<svg xmlns="http://www.w3.org/2000/svg" fill="none" viewBox="0 0 24 24" focusable="false"><path fill="#717681" d="M20.338 4a.65.65 0 1 1 0 1.3h-6.02a.65.65 0 1 1 0-1.3zM20.988 8.184a.65.65 0 0 0-.65-.65H17.71a.65.65 0 1 0 0 1.3h2.627a.65.65 0 0 0 .65-.65M7.406 4.98a1.3 1.3 0 0 1 1.838 0l1.133 1.134a.7.7 0 0 1 .007.983L8.365 9.171a.7.7 0 0 1-.996.006l-1.12-1.12a1.3 1.3 0 0 1 0-1.838zM9.095 18.835c-.553.466-1.274 1.074-2.455 1.074-2.071 0-3.038-1.348-3.42-1.88a5.492 5.492 0 0 0-.087-.12.65.65 0 0 1 1.034-.787c.034.044.069.092.106.143.38.519.983 1.344 2.367 1.344.683 0 1.08-.316 1.649-.795l.029-.024c.554-.468 1.277-1.078 2.464-1.078 1.98 0 3.049 1.398 3.461 1.937.058.076.103.135.135.17a.65.65 0 1 1-.957.88 6.67 6.67 0 0 1-.272-.325c-.469-.583-1.095-1.362-2.367-1.362-.688 0-1.088.318-1.655.796zM9.271 10.104a.7.7 0 0 0 .007.983l7.445 7.445c.398.398.9.676 1.448.802l1.731.4c.936.216 1.235-.164 1.019-1.1l-.4-1.731a3 3 0 0 0-.802-1.447l-7.432-7.433a.7.7 0 0 0-.997.007z"/></svg>