<svg xmlns="http://www.w3.org/2000/svg" fill="none" viewBox="0 0 24 24" focusable="false"><defs><clipPath id="Sign_Outline_svg__a"><path fill="#fff" fill-opacity="0" d="M0 0h24v24H0z"/></clipPath></defs><g clip-path="url(#Sign_Outline_svg__a)"><path fill="#717681" fill-rule="evenodd" d="M9.28 4.56c-.51-.5-1.34-.5-1.84 0l-1.7 1.7c-.51.51-.51 1.33 0 1.84l10.47 10.47c.4.4.9.68 1.45.8l1.73.4c.94.22 1.77-.62 1.56-1.56l-.4-1.73c-.13-.55-.41-1.05-.8-1.44zm-.92.92-1.7 1.7L8.28 8.8l1.7-1.7zm2.54 2.54 7.93 7.94c.22.22.38.5.45.82l.4 1.73-1.73-.4c-.31-.07-.59-.23-.82-.46L9.2 9.72zM9.1 18.93C8.55 19.39 7.83 20 6.65 20c-2.07 0-3.04-1.35-3.42-1.88-.04-.05-.06-.09-.09-.12a.65.65 0 0 1 1.03-.79c.04.05.07.1.11.15.38.52.98 1.34 2.37 1.34.68 0 1.08-.32 1.65-.79l.03-.03c.55-.47 1.27-1.08 2.46-1.08 1.98 0 3.05 1.4 3.46 1.94.06.08.1.14.14.17.24.27.22.68-.04.92a.65.65 0 0 1-.92-.04c-.09-.09-.18-.2-.27-.32-.47-.59-1.1-1.37-2.37-1.37-.69 0-1.09.32-1.66.8z"/></g></svg>