<svg xmlns="http://www.w3.org/2000/svg" fill="none" viewBox="0 0 24 24" focusable="false"><path fill="#717681" d="M20.338 4a.65.65 0 1 1 0 1.3h-6.02a.65.65 0 1 1 0-1.3h6.02M20.988 8.184a.65.65 0 0 0-.65-.65H17.71a.65.65 0 1 0 0 1.3h2.627a.65.65 0 0 0 .65-.65"/><path fill="#717681" fill-rule="evenodd" d="M7.441 4.472a1.3 1.3 0 0 1 1.839 0l10.472 10.472a3 3 0 0 1 .802 1.447l.4 1.73a1.3 1.3 0 0 1-1.56 1.56l-1.73-.4a2.999 2.999 0 0 1-1.447-.801L5.744 8.007a1.3 1.3 0 0 1 0-1.838l1.697-1.697m-.777 2.616L8.36 5.39l1.62 1.621-1.696 1.697-1.621-1.621m12.169 8.775L10.9 7.931 9.204 9.628l7.932 7.932a1.7 1.7 0 0 0 .82.455l1.73.4-.399-1.732a1.7 1.7 0 0 0-.454-.82" clip-rule="evenodd"/><path fill="#717681" d="M6.652 19.91c1.181 0 1.902-.609 2.455-1.075l.032-.027c.567-.478.967-.796 1.655-.796 1.272 0 1.898.78 2.367 1.362.096.12.186.23.273.325a.65.65 0 0 0 .957-.88 2.908 2.908 0 0 1-.136-.17c-.412-.539-1.481-1.937-3.461-1.937-1.187 0-1.91.61-2.464 1.078l-.029.024c-.568.479-.966.795-1.649.795-1.384 0-1.987-.825-2.367-1.344a9.188 9.188 0 0 0-.105-.143.65.65 0 0 0-1.035.787l.088.12c.381.532 1.348 1.88 3.42 1.88"/></svg>