<svg xmlns="http://www.w3.org/2000/svg" fill="none" viewBox="0 0 24 24" focusable="false"><path fill="#74767B" fill-rule="evenodd" d="M7.4416 4.56863C7.94928 4.06095 8.7724 4.06095 9.28008 4.56863L19.7524 15.041C20.15 15.4386 20.4279 15.9399 20.5543 16.4877L20.9538 18.2188C21.1698 19.1549 20.3308 19.9939 19.3947 19.7779L17.6636 19.3784C17.1158 19.252 16.6145 18.9741 16.2169 18.5765L5.74454 8.10416C5.23686 7.59648 5.23686 6.77336 5.74455 6.26568L7.4416 4.56863ZM6.66378 7.18492L8.36084 5.48787L9.98198 7.109L8.28492 8.80606L6.66378 7.18492ZM18.8332 15.9602L10.9012 8.02824L9.20416 9.7253L17.1361 17.6573C17.3614 17.8826 17.6455 18.04 17.956 18.1117L19.6871 18.5112L19.2876 16.7801C19.2159 16.4696 19.0585 16.1855 18.8332 15.9602ZM9.10701 18.932C8.55441 19.3982 7.83367 20.0062 6.65269 20.0062C4.58116 20.0062 3.61427 18.6581 3.23286 18.1263C3.19918 18.0794 3.17007 18.0388 3.14517 18.0061C2.92782 17.7203 2.98323 17.3125 3.26893 17.0952C3.55464 16.8778 3.96245 16.9332 4.1798 17.2189C4.21321 17.2629 4.24825 17.3108 4.28543 17.3616C4.66514 17.881 5.26858 18.7062 6.65269 18.7062C7.33563 18.7062 7.73304 18.3899 8.30135 17.9108L8.33004 17.8866C8.88435 17.419 9.60715 16.8093 10.794 16.8093C12.7741 16.8093 13.8434 18.2076 14.2554 18.7463C14.3133 18.822 14.3582 18.8808 14.3909 18.9163C14.6339 19.1805 14.6166 19.5917 14.3524 19.8347C14.0882 20.0777 13.677 20.0605 13.434 19.7962C13.347 19.7017 13.2576 19.5906 13.1617 19.4713C12.6925 18.8881 12.0659 18.1093 10.794 18.1093C10.1063 18.1093 9.70628 18.4268 9.13924 18.9048L9.10701 18.932Z"/></svg>