<svg xmlns="http://www.w3.org/2000/svg" fill="none" viewBox="0 0 24 24" focusable="false"><defs><clipPath id="Sign_Solid_svg__a"><path fill="#fff" fill-opacity="0" d="M0 0h24v24H0z"/></clipPath></defs><g clip-path="url(#Sign_Solid_svg__a)"><path fill="#74767B" fill-rule="evenodd" d="M9.23 4.78c-.51-.51-1.33-.51-1.84 0L6.23 6.02c-.5.5-.5 1.33 0 1.84l1.12 1.12c.28.27.73.27 1-.01l2.02-2.07c.27-.28.26-.72-.01-.99zm.03 5.12c-.27.28-.27.71 0 .99l7.45 7.44c.4.4.9.68 1.45.8l1.73.4c.93.22 1.23-.16 1.02-1.1l-.4-1.73c-.13-.55-.41-1.05-.8-1.45l-7.44-7.43a.697.697 0 0 0-.99.01zm-.17 9.01c-.55.47-1.27 1.07-2.45 1.07-2.08 0-3.04-1.34-3.42-1.88a.5.5 0 0 1-.09-.12.65.65 0 0 1 .12-.91c.29-.21.69-.16.91.13.04.04.07.09.11.14.38.52.98 1.34 2.37 1.34.68 0 1.08-.31 1.64-.79l.03-.03c.56-.46 1.28-1.07 2.47-1.07 1.98 0 3.05 1.4 3.46 1.93.06.08.1.14.13.17.25.27.23.68-.04.92-.26.25-.67.23-.91-.04-.09-.09-.18-.2-.28-.32-.47-.58-1.09-1.36-2.36-1.36-.69 0-1.09.31-1.66.79z"/></g></svg>