<svg xmlns="http://www.w3.org/2000/svg" fill="none" viewBox="0 0 24 24" focusable="false"><defs><clipPath id="Sign_Another_Person_Outline_svg__a"><path fill="#fff" fill-opacity="0" d="M0 0h24v24H0z"/></clipPath></defs><g clip-path="url(#Sign_Another_Person_Outline_svg__a)"><path fill="#74767B" fill-rule="evenodd" d="M20.98 4.65c0-.36-.29-.65-.65-.65h-6.02c-.36 0-.65.29-.65.65 0 .35.29.64.65.64h6.02c.36 0 .65-.29.65-.64M7.44 4.47c.5-.51 1.33-.51 1.83 0l10.48 10.47c.39.4.67.9.8 1.45l.4 1.73c.21.93-.62 1.77-1.56 1.56l-1.73-.4c-.55-.13-1.05-.41-1.45-.81L5.74 8c-.51-.51-.51-1.33 0-1.84zm-.78 2.61 1.7-1.69 1.62 1.62-1.7 1.69zm13.67.45c.36 0 .65.29.65.65s-.29.65-.65.65h-2.62c-.36 0-.65-.29-.65-.65s.29-.65.65-.65zm-1.5 8.33L10.9 7.93 9.2 9.62l7.93 7.94c.23.22.51.38.82.45l1.73.4-.4-1.73c-.07-.31-.23-.6-.45-.82M9.1 18.83c-.55.47-1.27 1.07-2.45 1.07-2.07 0-3.04-1.34-3.42-1.88a.5.5 0 0 1-.09-.12.65.65 0 0 1 .12-.91c.29-.21.7-.16.91.13.04.04.07.09.11.14.38.52.98 1.34 2.37 1.34.68 0 1.08-.31 1.65-.79l.02-.03c.56-.46 1.28-1.07 2.47-1.07 1.98 0 3.05 1.4 3.46 1.93.06.08.1.14.14.17.24.27.22.68-.04.92a.64.64 0 0 1-.92-.04c-.09-.09-.18-.2-.27-.32-.47-.58-1.1-1.36-2.37-1.36-.69 0-1.09.31-1.66.79z"/></g></svg>