<svg xmlns="http://www.w3.org/2000/svg" fill="none" viewBox="0 0 24 24" focusable="false"><defs><clipPath id="Tasks_Solid_svg__a"><path fill="#fff" fill-opacity="0" d="M0 0h24v24H0z"/></clipPath></defs><g clip-path="url(#Tasks_Solid_svg__a)"><path fill="#717681" fill-rule="evenodd" d="M20.38 8.82c.84 0 .84-1.3 0-1.3H19V6.03c0-1.66-1.35-3-3-3H7c-1.66 0-3 1.34-3 3v11.96c0 1.66 1.34 3 3 3h9c1.65 0 3-1.35 3-3v-1.5h1.38c.36 0 .66-.29.66-.65 0-.35-.3-.65-.66-.65H19V8.82zm-9.59-1.27c.28.23.31.64.07.91l-1.57 1.83a.661.661 0 0 1-.94.05l-1.18-1.1a.646.646 0 0 1-.03-.91.65.65 0 0 1 .92-.04l.68.64 1.14-1.32c.23-.27.64-.3.91-.06m2.27 2.05c-.36 0-.65-.29-.65-.65s.29-.65.65-.65h2.29c.35 0 .65.29.65.65s-.3.65-.65.65zm-6.07 4.77c0-.72.58-1.3 1.3-1.3h1.4c.72 0 1.3.58 1.3 1.3v1.4c0 .72-.58 1.3-1.3 1.3h-1.4c-.72 0-1.3-.58-1.3-1.3zm1.3 0h1.4v1.4h-1.4zm4.77 1.35c-.36 0-.65-.29-.65-.65s.29-.65.65-.65h2.29c.35 0 .65.29.65.65s-.3.65-.65.65z"/></g></svg>