<svg xmlns="http://www.w3.org/2000/svg" width="24" height="24" fill="none"><path fill="#717681" d="M10.799 7.55a.65.65 0 0 1 .068.917l-1.574 1.826a.65.65 0 0 1-.934.052l-1.18-1.096a.65.65 0 1 1 .884-.952l.686.636 1.133-1.315a.65.65 0 0 1 .917-.068ZM12.41 8.956c0 .359.291.65.65.65h2.29a.65.65 0 1 0 0-1.3h-2.29a.65.65 0 0 0-.65.65ZM13.06 15.724a.65.65 0 1 1 0-1.3h2.29a.65.65 0 1 1 0 1.3h-2.29Z"/><path fill="#717681" fill-rule="evenodd" d="M6.997 14.374a1.3 1.3 0 0 1 1.3-1.3h1.4a1.3 1.3 0 0 1 1.3 1.3v1.4a1.3 1.3 0 0 1-1.3 1.3h-1.4a1.3 1.3 0 0 1-1.3-1.3v-1.4Zm1.3 0h1.4v1.4h-1.4v-1.4Z" clip-rule="evenodd"/><path fill="#717681" fill-rule="evenodd" d="M20.39 8.825c.838 0 .838-1.3 0-1.3H19v-1.49c0-1.66-1.34-3-3-3H7c-1.66 0-3 1.34-3 3V18c0 1.66 1.34 3 3 3h9c1.66 0 3-1.35 3-3v-1.5h1.39a.65.65 0 1 0 0-1.3H19V8.825h1.39ZM16 4.335c.94 0 1.7.76 1.7 1.7V18c0 .94-.76 1.7-1.7 1.7H7c-.94 0-1.7-.76-1.7-1.7V6.035c0-.94.76-1.7 1.7-1.7h9Z" clip-rule="evenodd"/></svg>