<svg xmlns="http://www.w3.org/2000/svg" fill="none" viewBox="0 0 24 24" focusable="false"><defs><clipPath id="Unsign_Outline_svg__a"><path fill="#fff" fill-opacity="0" d="M0 0h24v24H0z"/></clipPath></defs><g clip-path="url(#Unsign_Outline_svg__a)"><path fill="#717681" fill-rule="evenodd" d="M20.81 3.25c.25.26.24.67-.01.92L18.92 6l1.88 1.82c.25.25.26.66.01.92-.24.26-.65.26-.91.01L18 6.9l-1.91 1.85c-.26.25-.67.25-.91-.01a.658.658 0 0 1 .01-.92L17.07 6l-1.88-1.83a.658.658 0 0 1-.01-.92c.24-.26.65-.26.91-.01L18 5.09l1.9-1.85c.26-.25.67-.25.91.01M9.27 4.47c-.5-.51-1.33-.51-1.83 0l-1.7 1.69c-.51.51-.51 1.33 0 1.84l10.47 10.47c.4.4.9.68 1.45.81l1.73.4c.94.21 1.77-.63 1.56-1.56l-.4-1.73c-.13-.55-.41-1.05-.8-1.45zm-.91.92-1.7 1.69L8.28 8.7l1.7-1.69zm2.54 2.54 7.93 7.93c.22.22.38.51.45.82l.4 1.73-1.73-.4c-.31-.07-.59-.23-.82-.45L9.2 9.62zM6.65 19.9c1.18 0 1.9-.6 2.45-1.07l.03-.03c.57-.48.97-.79 1.66-.79 1.27 0 1.9.78 2.37 1.36.09.12.18.23.27.32.24.27.65.29.92.04.26-.24.28-.65.04-.92-.04-.03-.08-.09-.14-.17-.41-.53-1.48-1.93-3.46-1.93-1.19 0-1.91.61-2.47 1.07l-.02.03c-.57.48-.97.79-1.65.79-1.39 0-1.99-.82-2.37-1.34-.04-.05-.07-.1-.11-.14a.651.651 0 0 0-.91-.13c-.28.22-.34.63-.12.91.02.04.05.08.09.12.38.54 1.35 1.88 3.42 1.88"/></g></svg>