<svg xmlns="http://www.w3.org/2000/svg" fill="none" viewBox="0 0 24 24" focusable="false"><path fill="#717681" fill-rule="evenodd" d="M20.8 4.17c.25-.25.26-.66.01-.92a.637.637 0 0 0-.91-.01L18 5.09l-1.91-1.85a.637.637 0 0 0-.91.01c-.25.26-.24.67.01.92L17.07 6l-1.88 1.82c-.25.25-.26.66-.01.92.24.26.65.26.91.01L18 6.9l1.9 1.85c.26.25.67.25.91-.01.25-.26.24-.67-.01-.92L18.92 6zm-13.4.81c.51-.51 1.33-.51 1.84 0l1.13 1.13c.27.27.28.71.01.98L8.36 9.17a.7.7 0 0 1-1 0L6.24 8.05c-.5-.51-.5-1.33 0-1.84zm1.87 5.12c-.27.27-.27.71 0 .98l7.45 7.45c.4.39.9.67 1.45.8l1.73.4c.93.22 1.23-.16 1.02-1.1l-.4-1.73c-.13-.55-.41-1.05-.81-1.45l-7.43-7.43a.69.69 0 0 0-.99.01zm-2.62 9.8c1.18 0 1.9-.6 2.45-1.07l.03-.03c.57-.48.97-.79 1.66-.79 1.27 0 1.9.78 2.37 1.36.09.12.18.23.27.32.24.27.65.29.92.04.26-.24.28-.65.04-.92-.04-.03-.08-.09-.14-.17-.41-.53-1.48-1.93-3.46-1.93-1.19 0-1.91.61-2.47 1.07l-.02.03c-.57.48-.97.79-1.65.79-1.39 0-1.99-.82-2.37-1.34-.04-.05-.07-.1-.11-.14a.65.65 0 0 0-.91-.13c-.28.22-.34.63-.12.91q.03.06.09.12c.38.54 1.35 1.88 3.42 1.88"/></svg>