<svg xmlns="http://www.w3.org/2000/svg" fill="none" viewBox="0 0 24 24" focusable="false"><g fill="#74767B"><path d="M20.81 3.25c.25.26.24.67-.01.92L18.92 6l1.88 1.82c.25.25.26.66.01.92-.24.26-.65.26-.91.01L18 6.9l-1.91 1.85c-.26.25-.67.25-.91-.01a.66.66 0 0 1 .01-.92L17.07 6l-1.88-1.83a.66.66 0 0 1-.01-.92c.24-.26.65-.26.91-.01L18 5.09l1.9-1.85c.26-.25.67-.25.91.01M9.1 18.83c-.55.47-1.27 1.07-2.45 1.07-2.07 0-3.04-1.34-3.42-1.88a.5.5 0 0 1-.09-.12.65.65 0 0 1 .12-.91c.29-.21.7-.16.91.13.04.04.07.09.11.14.38.52.98 1.34 2.37 1.34.68 0 1.08-.31 1.65-.79l.02-.03c.56-.46 1.28-1.07 2.47-1.07 1.98 0 3.05 1.4 3.46 1.93.06.08.1.14.14.17.24.27.22.68-.04.92a.64.64 0 0 1-.92-.04c-.09-.09-.18-.2-.27-.32-.47-.58-1.1-1.36-2.37-1.36-.69 0-1.09.31-1.66.79zM7.4 4.98c.51-.51 1.33-.51 1.84 0l1.13 1.13c.27.27.28.71.01.98L8.36 9.17a.7.7 0 0 1-1 0L6.24 8.05c-.5-.51-.5-1.33 0-1.84zM9.27 11.08a.694.694 0 0 1 0-.98l2.02-2.07c.27-.28.72-.29.99-.01l7.43 7.43c.4.4.68.9.81 1.45l.4 1.73c.21.94-.09 1.32-1.02 1.1l-1.73-.4c-.55-.13-1.05-.41-1.45-.8z"/></g></svg>