<svg xmlns="http://www.w3.org/2000/svg" width="24" height="24" fill="none"><path fill="#717681" d="M8.616 18.835c-.553.466-1.273 1.074-2.454 1.074-2.072 0-3.039-1.348-3.42-1.88a5.456 5.456 0 0 0-.088-.12.65.65 0 0 1 1.035-.787l.105.143c.38.519.984 1.344 2.368 1.344.683 0 1.08-.316 1.648-.795l.03-.024c.553-.468 1.276-1.078 2.463-1.078 1.98 0 3.05 1.398 3.461 1.937.058.076.103.135.136.17a.65.65 0 1 1-.957.88 6.67 6.67 0 0 1-.272-.325c-.47-.583-1.096-1.362-2.368-1.362-.688 0-1.088.318-1.655.796l-.032.027ZM6.915 4.98a1.3 1.3 0 0 1 1.839 0l1.133 1.134a.7.7 0 0 1 .006.983L7.874 9.171a.7.7 0 0 1-.996.006l-1.12-1.12a1.3 1.3 0 0 1 0-1.838L6.915 4.98ZM8.787 11.087a.7.7 0 0 1-.006-.983L10.8 8.03a.7.7 0 0 1 .996-.007l7.433 7.433a3 3 0 0 1 .802 1.447l.4 1.731c.215.936-.083 1.316-1.02 1.1l-1.731-.4a3.001 3.001 0 0 1-1.447-.802l-7.446-7.445Z"/><path fill="#717681" fill-rule="evenodd" d="M17.09 9.16c.723 0 1.396-.213 1.959-.582l1.32 1.323a.65.65 0 0 0 .92-.918L19.99 7.68a3.58 3.58 0 1 0-2.9 1.48Zm0-1.3a2.28 2.28 0 1 0 0-4.56 2.28 2.28 0 0 0 0 4.56Z" clip-rule="evenodd"/></svg>