<svg xmlns="http://www.w3.org/2000/svg" width="24" height="24" fill="none"><path fill="#717681" fill-rule="evenodd" d="M17.58 9.16c.724 0 1.397-.213 1.96-.582L20.86 9.9a.65.65 0 0 0 .92-.918l-1.3-1.303a3.58 3.58 0 1 0-2.9 1.48Zm0-1.3a2.28 2.28 0 1 0 0-4.56 2.28 2.28 0 0 0 0 4.56ZM9.28 4.472a1.3 1.3 0 0 0-1.839 0L5.744 6.169a1.3 1.3 0 0 0 0 1.838L16.217 18.48a3 3 0 0 0 1.446.801l1.732.4a1.3 1.3 0 0 0 1.558-1.56l-.399-1.73a3 3 0 0 0-.802-1.447L9.28 4.472Zm-.92.919L6.665 7.088l1.62 1.621 1.698-1.697L8.36 5.39Zm2.541 2.54 7.932 7.932a1.7 1.7 0 0 1 .454.82l.4 1.731-1.731-.4a1.7 1.7 0 0 1-.82-.454L9.204 9.628 10.9 7.931Z" clip-rule="evenodd"/><path fill="#717681" d="M9.107 18.835c-.553.466-1.274 1.074-2.455 1.074-2.071 0-3.038-1.348-3.42-1.88a5.492 5.492 0 0 0-.087-.12.65.65 0 0 1 1.035-.787l.105.143c.38.519.983 1.344 2.367 1.344.683 0 1.08-.316 1.65-.795l.028-.024c.554-.468 1.277-1.078 2.464-1.078 1.98 0 3.05 1.398 3.461 1.937.058.076.103.135.136.17a.65.65 0 1 1-.957.88c-.087-.094-.176-.205-.272-.325-.47-.583-1.096-1.362-2.368-1.362-.688 0-1.088.318-1.655.796l-.032.027Z"/></svg>