<svg xmlns="http://www.w3.org/2000/svg" fill="none" viewBox="0 0 24 24" focusable="false"><path fill="#717681" fill-rule="evenodd" d="M17.58 9.16c.72 0 1.39-.22 1.95-.59l1.32 1.33c.26.25.67.25.92 0a.64.64 0 0 0 0-.92l-1.29-1.3c.42-.59.68-1.32.68-2.1C21.16 3.6 19.55 2 17.58 2 15.6 2 14 3.6 14 5.58c0 1.97 1.6 3.58 3.58 3.58m0-1.3c1.25 0 2.28-1.03 2.28-2.28 0-1.26-1.03-2.29-2.28-2.29a2.285 2.285 0 0 0 0 4.57M9.27 4.47c-.5-.51-1.33-.51-1.83 0l-1.7 1.69c-.51.51-.51 1.33 0 1.84l10.47 10.47c.4.4.9.68 1.45.81l1.73.4c.94.21 1.77-.63 1.56-1.56l-.4-1.73c-.13-.55-.41-1.05-.8-1.45zm-.91.92-1.7 1.69L8.28 8.7l1.7-1.69zm2.54 2.54 7.93 7.93c.22.22.38.51.45.82l.4 1.73-1.73-.4c-.31-.07-.59-.23-.82-.45L9.2 9.62zM6.65 19.9c1.18 0 1.9-.6 2.45-1.07l.03-.03c.57-.48.97-.79 1.66-.79 1.27 0 1.9.78 2.37 1.36.09.12.18.23.27.32.24.27.65.29.92.04.26-.24.28-.65.04-.92-.04-.03-.08-.09-.14-.17-.41-.53-1.48-1.93-3.46-1.93-1.19 0-1.91.61-2.47 1.07l-.02.03c-.57.48-.97.79-1.65.79-1.39 0-1.99-.82-2.37-1.34-.04-.05-.07-.1-.11-.14a.65.65 0 0 0-.91-.13c-.28.22-.34.63-.12.91q.03.06.09.12c.38.54 1.35 1.88 3.42 1.88"/></svg>