<svg xmlns="http://www.w3.org/2000/svg" fill="none" viewBox="0 0 24 24" focusable="false"><defs><clipPath id="Verify_Sign_Solid_svg__a"><path fill="#fff" fill-opacity="0" d="M0 0h24v24H0z"/></clipPath></defs><g clip-path="url(#Verify_Sign_Solid_svg__a)"><path fill="#717681" fill-rule="evenodd" d="M19.04 8.57c-.56.37-1.23.59-1.96.59a3.59 3.59 0 0 1-3.58-3.58 3.585 3.585 0 0 1 7.17 0c0 .78-.26 1.51-.68 2.1l1.29 1.3c.26.25.26.66 0 .92-.25.25-.66.25-.92 0zm.33-2.99c0 1.25-1.03 2.28-2.29 2.28-1.25 0-2.28-1.03-2.28-2.28 0-1.26 1.03-2.29 2.28-2.29 1.26 0 2.29 1.03 2.29 2.29m-10.62-.6c-.51-.51-1.33-.51-1.84 0L5.75 6.21c-.5.51-.5 1.33 0 1.84l1.12 1.12a.7.7 0 0 0 1 0l2.02-2.08c.27-.27.26-.71-.01-.98zm.03 6.1a.694.694 0 0 1 0-.98l2.01-2.07c.28-.28.73-.29 1-.01l7.43 7.43c.4.4.68.9.81 1.45l.4 1.73c.21.94-.09 1.32-1.02 1.1l-1.74-.4c-.54-.13-1.04-.41-1.44-.8zM6.16 19.9c1.18 0 1.9-.6 2.45-1.07l.03-.03c.57-.48.97-.79 1.66-.79 1.27 0 1.9.78 2.37 1.36.09.12.18.23.27.32a.649.649 0 1 0 .95-.88c-.03-.03-.07-.09-.13-.17-.41-.53-1.48-1.93-3.46-1.93-1.19 0-1.91.61-2.47 1.07l-.02.03c-.57.48-.97.79-1.65.79-1.39 0-1.99-.82-2.37-1.34-.04-.05-.07-.1-.11-.14a.65.65 0 0 0-.91-.13c-.28.22-.34.63-.12.91q.03.06.09.12c.38.54 1.35 1.88 3.42 1.88"/></g></svg>