<svg xmlns="http://www.w3.org/2000/svg" fill="none" viewBox="0 0 24 24" focusable="false"><defs><clipPath id="Web_Outline_svg__a"><path fill="#fff" fill-opacity="0" d="M0 0h24v24H0z"/></clipPath></defs><g fill="#74767B" clip-path="url(#Web_Outline_svg__a)"><path fill-rule="evenodd" d="M20.64 6.35c0-1.66-1.34-3-3-3h-8c-1.65 0-3 1.34-3 3v10c0 1.65 1.35 3 3 3h8c1.66 0 3-1.35 3-3zm-3-1.7h-8c-.93 0-1.7.76-1.7 1.7v10c0 .93.77 1.69 1.7 1.69h8c.94 0 1.71-.76 1.71-1.69v-10c0-.94-.77-1.7-1.71-1.7"/><path d="M4.64 8.7c-.35 0-.64.29-.64.65v9.4A3.25 3.25 0 0 0 7.25 22h8.39c.36 0 .65-.3.65-.65 0-.36-.29-.65-.65-.65H7.25c-1.08 0-1.95-.88-1.95-1.95v-9.4c0-.36-.3-.65-.66-.65"/><path fill-rule="evenodd" d="M13.65 6.42c2.6 0 4.7 2.1 4.7 4.7s-2.1 4.7-4.7 4.7-4.71-2.1-4.71-4.7 2.11-4.7 4.71-4.7m1.62 7.69c.88-.47 1.52-1.33 1.72-2.34h-1.26c-.05.88-.22 1.69-.46 2.34m-3.24 0a3.37 3.37 0 0 1-1.72-2.34h1.26c.05.88.21 1.69.46 2.34m.84-2.34c.06.88.24 1.62.48 2.15q.165.36.3.51c.08-.1.19-.27.3-.51.23-.53.42-1.27.48-2.15zm1.56-1.3h-1.56c.06-.88.24-1.62.48-2.15q.165-.36.3-.51c.08.1.19.27.3.51.23.53.42 1.27.48 2.15m1.3 0h1.26c-.2-1.01-.84-1.87-1.72-2.34.24.65.41 1.46.46 2.34m-3.7-2.34c-.25.65-.41 1.46-.46 2.34h-1.26c.19-1.01.84-1.87 1.72-2.34"/></g></svg>