<svg xmlns="http://www.w3.org/2000/svg" fill="none" viewBox="0 0 24 24" focusable="false"><defs><clipPath id="Web_Outline_svg__a"><path fill="#fff" fill-opacity="0" d="M0 0h24v24H0z"/></clipPath></defs><g clip-path="url(#Web_Outline_svg__a)"><path fill="#717681" fill-rule="evenodd" d="M20.64 6.35c0-1.66-1.34-3-3-3h-8c-1.65 0-3 1.34-3 3v10c0 1.65 1.35 3 3 3h8c1.66 0 3-1.35 3-3zm-3-1.7h-8c-.93 0-1.7.76-1.7 1.7v10c0 .93.77 1.69 1.7 1.69h8c.94 0 1.71-.76 1.71-1.69v-10c0-.94-.77-1.7-1.71-1.7m.71 6.47c0-2.6-2.1-4.7-4.7-4.7s-4.71 2.1-4.71 4.7 2.11 4.7 4.71 4.7 4.7-2.1 4.7-4.7m-5-2.8c-.24.53-.42 1.27-.48 2.15h1.56c-.06-.88-.25-1.62-.48-2.15-.11-.24-.22-.41-.3-.51-.09.1-.19.27-.3.51m-1.78 2.15c.05-.88.21-1.69.46-2.34-.88.47-1.53 1.33-1.72 2.34zm5.42 0h-1.26c-.05-.88-.22-1.69-.46-2.34.88.47 1.52 1.33 1.72 2.34M4.64 8.7c-.35 0-.64.29-.64.65v9.4A3.25 3.25 0 0 0 7.25 22h8.39c.36 0 .65-.3.65-.65 0-.36-.29-.65-.65-.65H7.25c-1.08 0-1.95-.88-1.95-1.95v-9.4c0-.36-.3-.65-.66-.65m5.67 3.07c.19 1.01.84 1.87 1.72 2.34-.25-.65-.41-1.46-.46-2.34zm3.04 2.15c-.24-.53-.42-1.27-.48-2.15h1.56c-.06.88-.25 1.62-.48 2.15-.11.24-.22.41-.3.51-.09-.1-.19-.27-.3-.51m3.64-2.15c-.2 1.01-.84 1.87-1.72 2.34.24-.65.41-1.46.46-2.34z"/></g></svg>