<svg xmlns="http://www.w3.org/2000/svg" width="24" height="24" fill="none"><path fill="#717681" d="M16.995 11.775a3.409 3.409 0 0 1-1.72 2.344c.242-.656.406-1.46.46-2.344h1.26ZM10.31 11.775a3.409 3.409 0 0 0 1.721 2.344c-.242-.656-.406-1.46-.46-2.344h-1.26ZM13.353 13.921c-.234-.524-.418-1.268-.48-2.146h1.56c-.063.878-.246 1.622-.48 2.146-.11.245-.216.41-.3.512a2.295 2.295 0 0 1-.3-.512ZM13.353 8.329c-.234.524-.418 1.268-.48 2.146h1.56c-.063-.878-.246-1.622-.48-2.146a2.295 2.295 0 0 0-.3-.512c-.084.102-.19.267-.3.512ZM16.995 10.475h-1.26c-.054-.883-.218-1.688-.46-2.344a3.409 3.409 0 0 1 1.72 2.344ZM11.57 10.475c.055-.883.22-1.688.461-2.344a3.41 3.41 0 0 0-1.72 2.344h1.26Z"/><path fill="#717681" fill-rule="evenodd" d="M17.65 3.35a3 3 0 0 1 3 3v10a3 3 0 0 1-3 3h-8a3 3 0 0 1-3-3v-10a3 3 0 0 1 3-3h8Zm.707 7.775a4.704 4.704 0 1 0-9.408 0 4.704 4.704 0 0 0 9.408 0Z" clip-rule="evenodd"/><path fill="#717681" d="M4 9.35a.65.65 0 1 1 1.3 0v9.4a1.95 1.95 0 0 0 1.95 1.95h8.4a.65.65 0 1 1 0 1.3h-8.4A3.25 3.25 0 0 1 4 18.75v-9.4Z"/></svg>