<svg xmlns="http://www.w3.org/2000/svg" fill="none" viewBox="0 0 24 24" focusable="false"><defs><clipPath id="XLS_Solid_svg__a"><path fill="#fff" fill-opacity="0" d="M0 0h24v24H0z"/></clipPath></defs><g clip-path="url(#XLS_Solid_svg__a)"><path fill="#717681" fill-rule="evenodd" d="M17.64 3.35c1.66 0 3 1.34 3 3v10c0 1.65-1.34 3-3 3h-8c-1.65 0-3-1.35-3-3v-10c0-1.66 1.35-3 3-3zm-6.08 6.11c-.2-.3-.11-.7.19-.89.3-.2.7-.11.9.19l1.02 1.59 1.02-1.59c.19-.3.59-.39.89-.19.31.19.39.59.2.89l-1.22 1.9 1.22 1.86c.19.3.11.7-.19.9-.3.19-.71.11-.9-.19l-1.02-1.57-1.02 1.57c-.2.3-.6.38-.9.19-.3-.2-.39-.6-.19-.9l1.21-1.86zM4 9.35c0-.36.29-.65.64-.65.36 0 .66.29.66.65v9.4c0 1.07.87 1.95 1.95 1.95h8.39c.36 0 .65.29.65.65 0 .35-.29.65-.65.65H7.25A3.25 3.25 0 0 1 4 18.75z"/></g></svg>