<svg xmlns="http://www.w3.org/2000/svg" fill="none" viewBox="0 0 24 24" focusable="false"><defs><clipPath id="XML_Outline_svg__a"><path fill="#fff" fill-opacity="0" d="M0 0h24v24H0z"/></clipPath></defs><g clip-path="url(#XML_Outline_svg__a)"><path fill="#717681" fill-rule="evenodd" d="M17.64 4.65H9.66c-.94 0-1.7.76-1.7 1.7v10.01c0 .94.76 1.7 1.7 1.7h7.98c.94 0 1.7-.76 1.7-1.7V6.35c0-.94-.76-1.7-1.7-1.7m-7.98-1.3c-1.65 0-3 1.34-3 3v10.01c0 1.66 1.35 3 3 3h7.98c1.66 0 3-1.34 3-3V6.35c0-1.66-1.34-3-3-3zM4.71 8.7c.36 0 .65.29.65.65v9.46c0 1.02.83 1.85 1.85 1.85h8.44c.36 0 .65.29.65.65s-.29.65-.65.65H7.21a3.15 3.15 0 0 1-3.15-3.15V9.35c0-.36.29-.65.65-.65m6.91 1.52a.65.65 0 0 0-.11-.91.654.654 0 0 0-.92.12l-1.16 1.5c-.18.23-.18.56 0 .79l1.16 1.55a.651.651 0 0 0 1.04-.78l-.87-1.15zm4.23 3.17c-.28-.21-.33-.62-.12-.91l.86-1.11-.86-1.15c-.22-.29-.16-.7.13-.91.29-.22.69-.16.91.13l1.16 1.55c.18.23.17.55 0 .78l-1.17 1.51a.65.65 0 0 1-.91.11m-1.09-3.51a.65.65 0 0 0-.46-.8c-.35-.09-.7.12-.8.47l-.87 3.29a.652.652 0 0 0 1.26.33z"/></g></svg>