<svg xmlns="http://www.w3.org/2000/svg" width="24" height="24" fill="none"><path fill="#717681" fill-rule="evenodd" d="M6.668 6.35a3 3 0 0 1 3-3h7.982a3 3 0 0 1 3 3v10.015a3 3 0 0 1-3 3H9.668a3 3 0 0 1-3-3V6.35Zm4.843 2.966a.65.65 0 0 1 .117.911l-.86 1.114.866 1.155a.65.65 0 1 1-1.04.78l-1.162-1.551a.65.65 0 0 1 .005-.787L10.6 9.433a.65.65 0 0 1 .912-.117Zm4.229 3.172a.65.65 0 1 0 1.029.795l1.162-1.505a.65.65 0 0 0 .005-.787l-1.162-1.55a.65.65 0 0 0-1.04.779l.865 1.155-.86 1.113Zm-1.436-3.4a.65.65 0 0 1 .463.795l-.87 3.29a.65.65 0 1 1-1.257-.331l.87-3.292a.65.65 0 0 1 .794-.462Zm-8.941.264a.65.65 0 0 0-1.3 0v9.461a3.15 3.15 0 0 0 3.15 3.15h8.443a.65.65 0 1 0 0-1.3H7.213a1.85 1.85 0 0 1-1.85-1.85v-9.46Z" clip-rule="evenodd"/></svg>