<svg xmlns="http://www.w3.org/2000/svg" fill="none" viewBox="0 0 24 24" focusable="false"><path fill="#717681" fill-rule="evenodd" d="M15 18.408a.65.65 0 0 0 .65-.65v-.572h.668a1.797 1.797 0 1 0 0-3.595H15a.65.65 0 0 0-.65.65v3.517c0 .359.291.65.65.65m1.816-3.02a.497.497 0 0 1-.498.498h-.668v-.995h.668c.275 0 .498.223.498.497" clip-rule="evenodd"/><path fill="#717681" d="M12.65 14.244a.65.65 0 1 0-1.3 0v3.517a.65.65 0 1 0 1.3 0v-3.517M6.218 14.244a.65.65 0 0 1 .65-.65h2.38a.65.65 0 0 1 .538 1.015l-1.693 2.499h1.155a.65.65 0 1 1 0 1.3h-2.38a.65.65 0 0 1-.538-1.015l1.692-2.499H6.868a.65.65 0 0 1-.65-.65"/><path fill="#717681" fill-rule="evenodd" d="M5 11V6a3 3 0 0 1 3-3h5.042a3 3 0 0 1 2.197.957l2.957 3.18A3 3 0 0 1 19 9.18V11a3 3 0 0 1 3 3v4a3 3 0 0 1-3 3H5a3 3 0 0 1-3-3v-4a3 3 0 0 1 3-3m8.042-6.7H8A1.7 1.7 0 0 0 6.3 6v5h11.4V9.18c0-.06-.003-.121-.01-.18H15.3a1.95 1.95 0 0 1-1.95-1.95V4.327a1.699 1.699 0 0 0-.308-.028m1.608.933v1.816c0 .36.29.65.65.65h1.645L14.65 5.233M5 12.3h14a1.7 1.7 0 0 1 1.7 1.7v4a1.7 1.7 0 0 1-1.7 1.7H5A1.7 1.7 0 0 1 3.3 18v-4A1.7 1.7 0 0 1 5 12.3" clip-rule="evenodd"/></svg>