<svg xmlns="http://www.w3.org/2000/svg" fill="none" viewBox="0 0 24 24" focusable="false"><path fill="#717681" d="M16.283 15.886a.497.497 0 0 0 0-.995h-.668v.995z"/><path fill="#717681" fill-rule="evenodd" d="M5 6v5a3 3 0 0 0-3 3v4a3 3 0 0 0 3 3h14a3 3 0 0 0 3-3v-4a3 3 0 0 0-3-3V9.18a3 3 0 0 0-.803-2.044l-2.958-3.18A3 3 0 0 0 13.042 3H8a3 3 0 0 0-3 3m3-1.7h5.042c.104 0 .207.01.308.028V7.05A1.95 1.95 0 0 0 15.3 9h2.39c.007.06.01.12.01.18V11H6.3V6A1.7 1.7 0 0 1 8 4.3m8.945 3.4L14.65 5.232v1.816c0 .36.29.65.65.65zm-1.33 10.059a.65.65 0 1 1-1.3 0V14.24a.65.65 0 0 1 .65-.65h1.318a1.797 1.797 0 0 1 0 3.595h-.668zM12 13.59a.65.65 0 0 1 .65.65v3.518a.65.65 0 1 1-1.3 0V14.24a.65.65 0 0 1 .65-.65m-5.345.002a.65.65 0 1 0 0 1.3H7.81l-1.693 2.5a.65.65 0 0 0 .538 1.014h2.38a.65.65 0 1 0 0-1.3H7.88l1.693-2.5a.65.65 0 0 0-.538-1.014z" clip-rule="evenodd"/></svg>