<svg xmlns="http://www.w3.org/2000/svg" fill="none" viewBox="0 0 24 24" focusable="false"><defs><clipPath id="ZIP_Solid_svg__a"><path fill="#fff" fill-opacity="0" d="M0 0h24v24H0z"/></clipPath></defs><path fill="none" d="M0 0h24v24H0z"/><g clip-path="url(#ZIP_Solid_svg__a)"><path fill="#717681" fill-rule="evenodd" d="M5 11V6c0-1.66 1.34-3 3-3h5.04c.83 0 1.63.34 2.19.95l2.96 3.18c.52.56.81 1.29.81 2.04V11c1.65 0 3 1.34 3 3v4c0 1.65-1.35 3-3 3H5c-1.66 0-3-1.35-3-3v-4c0-1.66 1.34-3 3-3m8.04-6.71H8c-.94 0-1.7.77-1.7 1.71v5h11.4V9.17c0-.06-.01-.12-.01-.18h-2.4c-1.07 0-1.95-.87-1.95-1.95V4.32q-.15-.03-.3-.03m1.6.94 2.3 2.46h-1.65c-.35 0-.65-.29-.65-.65zm.32 13.17c.36 0 .65-.29.65-.65v-.57h.67c.99 0 1.8-.8 1.8-1.8 0-.99-.81-1.79-1.8-1.79h-1.32c-.36 0-.65.29-.65.65v3.51c0 .36.29.65.65.65m-2.32-4.16c0-.36-.29-.65-.64-.65-.36 0-.65.29-.65.65v3.51c0 .36.29.65.65.65.35 0 .64-.29.64-.65zm-6.64 0c0-.36.29-.65.65-.65h2.38c.24 0 .46.13.57.34.12.22.1.47-.03.67l-1.69 2.5h1.15c.36 0 .65.29.65.65s-.29.65-.65.65H6.65a.64.64 0 0 1-.57-.34c-.12-.22-.1-.47.03-.67l1.69-2.5H6.65c-.36 0-.65-.29-.65-.65m10.78 1.14c0 .28-.23.5-.5.5h-.67v-.99h.67c.27 0 .5.22.5.49"/></g></svg>