<svg width="28" height="28" viewBox="0 0 28 28" fill="none" xmlns="http://www.w3.org/2000/svg">
<rect y="4" width="28" height="20" rx="3" fill="white"/>
<mask id="mask0_17_6190" style="mask-type:alpha" maskUnits="userSpaceOnUse" x="0" y="4" width="28" height="20">
<rect y="4" width="28" height="20" rx="3" fill="white"/>
</mask>
<g mask="url(#mask0_17_6190)">
<rect y="4" width="28" height="20" fill="#1537D1"/>
<rect x="13.3333" y="4" width="14.6667" height="20" fill="#EA3058"/>
<path fill-rule="evenodd" clip-rule="evenodd" d="M9.33334 24H18.6667V4H9.33334V24Z" fill="#FFCF3C"/>
<path fill-rule="evenodd" clip-rule="evenodd" d="M12.6667 12.6666H14V13.3333H12.6667V12.6666Z" fill="#FFEDB1"/>
<path d="M12.7245 12.3333H15.2755C15.4705 12.3333 15.6238 12.5 15.6076 12.6943L15.4364 14.7497C15.3932 15.268 14.9599 15.6667 14.4398 15.6667H13.5602C13.0401 15.6667 12.6068 15.268 12.5636 14.7497L12.3923 12.6943C12.3761 12.5 12.5295 12.3333 12.7245 12.3333Z" stroke="#D32E28" stroke-width="0.666667"/>
<path fill-rule="evenodd" clip-rule="evenodd" d="M12.6667 13.3333H15.3333V14H14.6667H13.3333H12.6667V13.3333Z" fill="#D32E28"/>
</g>
</svg>
