<svg width="28" height="28" viewBox="0 0 28 28" fill="none" xmlns="http://www.w3.org/2000/svg">
<rect y="4" width="28" height="20" rx="3" fill="white"/>
<mask id="mask0_17_6231" style="mask-type:alpha" maskUnits="userSpaceOnUse" x="0" y="4" width="28" height="20">
<rect y="4" width="28" height="20" rx="3" fill="white"/>
</mask>
<g mask="url(#mask0_17_6231)">
<rect y="4" width="28" height="20" fill="#0A17A7"/>
<path d="M0 3.66667H-0.901086L-0.21693 4.25309L4.33333 8.15331V9.16179L-0.193746 12.3954L-0.333333 12.4951V12.6667V13.3333V13.9347L0.176666 13.616L5.42893 10.3333H6.55984L11.0821 13.5635C11.176 13.6306 11.2886 13.6667 11.404 13.6667C11.9182 13.6667 12.1548 13.027 11.7644 12.6924L7.66667 9.18002V8.17154L12.0542 5.03762C12.2294 4.91248 12.3333 4.71043 12.3333 4.49513V4V3.39858L11.8233 3.71733L6.57107 7H5.44016L0.860413 3.72876L0.773488 3.66667H0.666667H0Z" fill="#FF2E3B" stroke="white" stroke-width="0.666667"/>
<path fill-rule="evenodd" clip-rule="evenodd" d="M0 7.33333V10H4.66667V13.3333C4.66667 13.7015 4.96514 14 5.33333 14H6.66667C7.03486 14 7.33333 13.7015 7.33333 13.3333V10H12C12.3682 10 12.6667 9.70152 12.6667 9.33333V8C12.6667 7.63181 12.3682 7.33333 12 7.33333H7.33333V4H4.66667V7.33333H0Z" fill="url(#paint0_linear_17_6231)"/>
<path fill-rule="evenodd" clip-rule="evenodd" d="M0 8H5.33333V7.33333V4H6.66667V7.33333V8H12V9.33333H6.66667V10V13.3333H5.33333V10V9.33333H0V8Z" fill="url(#paint1_linear_17_6231)"/>
<path fill-rule="evenodd" clip-rule="evenodd" d="M6 20.3333L4.82443 20.9513L5.04894 19.6423L4.09789 18.7153L5.41221 18.5243L6 17.3333L6.58779 18.5243L7.90211 18.7153L6.95106 19.6423L7.17557 20.9513L6 20.3333Z" fill="white"/>
<path fill-rule="evenodd" clip-rule="evenodd" d="M20 21.3333L19.0572 21.6095L19.3334 20.6666L19.0572 19.7238L20 20L20.9428 19.7238L20.6667 20.6666L20.9428 21.6095L20 21.3333Z" fill="white"/>
<path fill-rule="evenodd" clip-rule="evenodd" d="M20 8.66669L19.0572 8.94283L19.3334 8.00002L19.0572 7.05721L20 7.33335L20.9428 7.05721L20.6667 8.00002L20.9428 8.94283L20 8.66669Z" fill="white"/>
<path fill-rule="evenodd" clip-rule="evenodd" d="M24 12.6667L23.0572 12.9428L23.3334 12L23.0572 11.0572L24 11.3334L24.9428 11.0572L24.6667 12L24.9428 12.9428L24 12.6667Z" fill="white"/>
<path fill-rule="evenodd" clip-rule="evenodd" d="M16 14L15.0572 14.2761L15.3334 13.3333L15.0572 12.3905L16 12.6667L16.9428 12.3905L16.6667 13.3333L16.9428 14.2761L16 14Z" fill="white"/>
<path fill-rule="evenodd" clip-rule="evenodd" d="M22 15.6667L21.5286 15.8048L21.6666 15.3334L21.5286 14.8619L22 15L22.4714 14.8619L22.3333 15.3334L22.4714 15.8048L22 15.6667Z" fill="white"/>
</g>
<defs>
<linearGradient id="paint0_linear_17_6231" x1="0" y1="4" x2="0" y2="14" gradientUnits="userSpaceOnUse">
<stop stop-color="white"/>
<stop offset="1" stop-color="#F0F0F0"/>
</linearGradient>
<linearGradient id="paint1_linear_17_6231" x1="0" y1="4" x2="0" y2="13.3333" gradientUnits="userSpaceOnUse">
<stop stop-color="#FF2E3B"/>
<stop offset="1" stop-color="#FC0D1B"/>
</linearGradient>
</defs>
</svg>
