<svg width="28" height="28" viewBox="0 0 28 28" fill="none" xmlns="http://www.w3.org/2000/svg">
<rect y="4" width="28" height="20" rx="2" fill="white"/>
<mask id="mask0_17_6249" style="mask-type:alpha" maskUnits="userSpaceOnUse" x="0" y="4" width="28" height="20">
<rect y="4" width="28" height="20" rx="2" fill="white"/>
</mask>
<g mask="url(#mask0_17_6249)">
<path fill-rule="evenodd" clip-rule="evenodd" d="M0 10.6667H28V4H0V10.6667Z" fill="#24AAD5"/>
<path fill-rule="evenodd" clip-rule="evenodd" d="M0 24H28V17.3333H0V24Z" fill="#21BF75"/>
<path fill-rule="evenodd" clip-rule="evenodd" d="M0 17.3334H28V10.6667H0V17.3334Z" fill="#ED1845"/>
<g filter="url(#filter0_d_17_6249)">
<path fill-rule="evenodd" clip-rule="evenodd" d="M14 16C14.4113 16 14.7936 15.8759 15.1114 15.663C15.0746 15.6654 15.0374 15.6667 15 15.6667C14.0795 15.6667 13.3333 14.9205 13.3333 14C13.3333 13.0795 14.0795 12.3333 15 12.3333C15.0374 12.3333 15.0746 12.3346 15.1114 12.337C14.7936 12.1241 14.4113 12 14 12C12.8954 12 12 12.8954 12 14C12 15.1046 12.8954 16 14 16ZM16 14C16 14.3682 15.7015 14.6667 15.3333 14.6667C14.9651 14.6667 14.6667 14.3682 14.6667 14C14.6667 13.6318 14.9651 13.3333 15.3333 13.3333C15.7015 13.3333 16 13.6318 16 14Z" fill="white"/>
</g>
</g>
<defs>
<filter id="filter0_d_17_6249" x="12" y="12" width="4" height="5" filterUnits="userSpaceOnUse" color-interpolation-filters="sRGB">
<feFlood flood-opacity="0" result="BackgroundImageFix"/>
<feColorMatrix in="SourceAlpha" type="matrix" values="0 0 0 0 0 0 0 0 0 0 0 0 0 0 0 0 0 0 127 0" result="hardAlpha"/>
<feOffset dy="1"/>
<feColorMatrix type="matrix" values="0 0 0 0 0 0 0 0 0 0 0 0 0 0 0 0 0 0 0.06 0"/>
<feBlend mode="normal" in2="BackgroundImageFix" result="effect1_dropShadow_17_6249"/>
<feBlend mode="normal" in="SourceGraphic" in2="effect1_dropShadow_17_6249" result="shape"/>
</filter>
</defs>
</svg>
