<svg width="28" height="28" viewBox="0 0 28 28" fill="none" xmlns="http://www.w3.org/2000/svg">
<rect y="4" width="28" height="20" rx="3" fill="white"/>
<mask id="mask0_17_6005" style="mask-type:alpha" maskUnits="userSpaceOnUse" x="0" y="4" width="28" height="20">
<rect y="4" width="28" height="20" rx="3" fill="white"/>
</mask>
<g mask="url(#mask0_17_6005)">
<rect y="4" width="28" height="20" fill="url(#paint0_linear_17_6005)"/>
<rect x="13.3333" y="4" width="14.6667" height="20" fill="#08379D"/>
<path fill-rule="evenodd" clip-rule="evenodd" d="M0 24H9.33333V4H0V24Z" fill="#08379D"/>
<path fill-rule="evenodd" clip-rule="evenodd" d="M9.33331 24H18.6666V4H9.33331V24Z" fill="#FFCC50"/>
<path fill-rule="evenodd" clip-rule="evenodd" d="M13.7456 10.4135C13.8794 10.2168 14.1702 10.2195 14.3003 10.4186L14.9965 11.4844C15.1413 11.7061 14.9822 12 14.7174 12H14.7017C14.5044 12 14.3504 12.1703 14.37 12.3665L14.6366 15.0332C14.6537 15.2036 14.7971 15.3333 14.9683 15.3333H15.1963C15.2841 15.3333 15.3683 15.2987 15.4307 15.237L15.9011 14.7717C15.9644 14.7091 16 14.6237 16 14.5347V13.4714C16 13.383 15.9649 13.2982 15.9024 13.2357L15.7147 13.048C15.5395 12.8728 15.6099 12.5745 15.845 12.4961L16.798 12.1784C17.0387 12.0982 17.2771 12.3055 17.2313 12.555L16.7397 15.2277C16.7271 15.2964 16.6932 15.3594 16.6429 15.4077L15.4301 16.5736C15.368 16.6333 15.2852 16.6667 15.1991 16.6667H15C14.8159 16.6667 14.6667 16.8159 14.6667 17V17.6667C14.6667 17.8508 14.5174 18 14.3333 18H13.6667C13.4826 18 13.3333 17.8508 13.3333 17.6667V17C13.3333 16.8159 13.1841 16.6667 13 16.6667H12.8047C12.7163 16.6667 12.6315 16.6315 12.569 16.569L11.4047 15.4047C11.3582 15.3582 11.3264 15.2989 11.3135 15.2344L10.7793 12.5632C10.7291 12.3123 10.9688 12.1007 11.2116 12.1816L12.155 12.4961C12.3901 12.5745 12.4605 12.8728 12.2853 13.048L12.0976 13.2357C12.0351 13.2982 12 13.383 12 13.4714V14.5347C12 14.6237 12.0356 14.7091 12.0989 14.7717L12.5693 15.237C12.6317 15.2987 12.7159 15.3333 12.8037 15.3333H13.0317C13.2029 15.3333 13.3463 15.2036 13.3633 15.0332L13.63 12.3665C13.6496 12.1703 13.4948 12 13.2976 12V12C13.03 12 12.8703 11.7005 13.0208 11.4792L13.7456 10.4135Z" fill="#262626"/>
</g>
<defs>
<linearGradient id="paint0_linear_17_6005" x1="0" y1="4" x2="0" y2="24" gradientUnits="userSpaceOnUse">
<stop stop-color="#1132C7"/>
<stop offset="1" stop-color="#0522A5"/>
</linearGradient>
</defs>
</svg>
