<svg width="28" height="28" viewBox="0 0 28 28" fill="none" xmlns="http://www.w3.org/2000/svg">
<rect y="4" width="28" height="20" rx="3" fill="white"/>
<mask id="mask0_17_6130" style="mask-type:luminance" maskUnits="userSpaceOnUse" x="0" y="4" width="28" height="20">
<rect y="4" width="28" height="20" rx="3" fill="white"/>
</mask>
<g mask="url(#mask0_17_6130)">
<rect y="4" width="28" height="20" fill="#DC1F37"/>
<rect y="4" width="12" height="9.33333" fill="#042C90"/>
<path fill-rule="evenodd" clip-rule="evenodd" d="M17.3333 14C17.3333 12 17.3333 10.6667 17.3333 10.6667H20H22.6667C22.6667 10.6667 22.6667 12 22.6667 14C22.6667 16 20 17.3334 20 17.3334C20 17.3334 17.3333 16 17.3333 14Z" fill="white"/>
<mask id="mask1_17_6130" style="mask-type:luminance" maskUnits="userSpaceOnUse" x="17" y="10" width="6" height="8">
<path fill-rule="evenodd" clip-rule="evenodd" d="M17.3333 14C17.3333 12 17.3333 10.6667 17.3333 10.6667H20H22.6667C22.6667 10.6667 22.6667 12 22.6667 14C22.6667 16 20 17.3334 20 17.3334C20 17.3334 17.3333 16 17.3333 14Z" fill="white"/>
</mask>
<g mask="url(#mask1_17_6130)">
<path fill-rule="evenodd" clip-rule="evenodd" d="M20 16C20.7364 16 21.3333 15.4031 21.3333 14.6667C21.3333 13.9303 20.7364 13.3334 20 13.3334C19.2636 13.3334 18.6667 13.9303 18.6667 14.6667C18.6667 15.4031 19.2636 16 20 16Z" fill="#65B5D2"/>
<path fill-rule="evenodd" clip-rule="evenodd" d="M20 13.3333C20.3682 13.3333 20.6667 13.0349 20.6667 12.6667C20.6667 12.2985 20.3682 12 20 12C19.6318 12 19.3333 12.2985 19.3333 12.6667C19.3333 13.0349 19.6318 13.3333 20 13.3333ZM18.6667 14.6667C19.0349 14.6667 19.3333 14.3682 19.3333 14C19.3333 13.6318 19.0349 13.3333 18.6667 13.3333C18.2985 13.3333 18 13.6318 18 14C18 14.3682 18.2985 14.6667 18.6667 14.6667ZM22 14C22 14.3682 21.7015 14.6667 21.3333 14.6667C20.9651 14.6667 20.6667 14.3682 20.6667 14C20.6667 13.6318 20.9651 13.3333 21.3333 13.3333C21.7015 13.3333 22 13.6318 22 14Z" fill="url(#paint0_linear_17_6130)"/>
<rect x="17.3333" y="16" width="5.33333" height="1.33333" fill="#2F8F22"/>
</g>
<path d="M0 3.66667H-0.901086L-0.21693 4.25309L4.33333 8.15331V9.16179L-0.193746 12.3954L-0.333333 12.4951V12.6667V13.3333V13.9347L0.176666 13.616L5.42893 10.3333H6.55984L11.0821 13.5635C11.176 13.6306 11.2886 13.6667 11.404 13.6667C11.9182 13.6667 12.1548 13.027 11.7644 12.6924L7.66667 9.18002V8.17154L12.0542 5.03762C12.2294 4.91248 12.3333 4.71043 12.3333 4.49513V4V3.39858L11.8233 3.71733L6.57107 7H5.44016L0.860413 3.72876L0.773488 3.66667H0.666667H0Z" fill="#DB1E36" stroke="white" stroke-width="0.666667"/>
<path fill-rule="evenodd" clip-rule="evenodd" d="M0 7.33333V10H4.66667V13.3333C4.66667 13.7015 4.96514 14 5.33333 14H6.66667C7.03486 14 7.33333 13.7015 7.33333 13.3333V10H12C12.3682 10 12.6667 9.70152 12.6667 9.33333V8C12.6667 7.63181 12.3682 7.33333 12 7.33333H7.33333V4H4.66667V7.33333H0Z" fill="white"/>
<path fill-rule="evenodd" clip-rule="evenodd" d="M0 8H5.33333V7.33333V4H6.66667V7.33333V8H12V9.33333H6.66667V10V13.3333H5.33333V10V9.33333H0V8Z" fill="url(#paint1_linear_17_6130)"/>
</g>
<defs>
<linearGradient id="paint0_linear_17_6130" x1="18" y1="12" x2="18" y2="14.6667" gradientUnits="userSpaceOnUse">
<stop stop-color="#E20B0C"/>
<stop offset="1" stop-color="#D40001"/>
</linearGradient>
<linearGradient id="paint1_linear_17_6130" x1="0" y1="4" x2="0" y2="13.3333" gradientUnits="userSpaceOnUse">
<stop stop-color="#DB1E36"/>
<stop offset="1" stop-color="#D51931"/>
</linearGradient>
</defs>
</svg>
