<svg width="28" height="28" viewBox="0 0 28 28" fill="none" xmlns="http://www.w3.org/2000/svg">
<path d="M0.25 21C0.25 22.5188 1.48122 23.75 3 23.75H25C26.5188 23.75 27.75 22.5188 27.75 21V7C27.75 5.48122 26.5188 4.25 25 4.25H3C1.48122 4.25 0.25 5.48122 0.25 7V21Z" fill="white" stroke="#D6D8DD" stroke-width="0.5"/>
<mask id="mask0_107628_1786" style="mask-type:alpha" maskUnits="userSpaceOnUse" x="0" y="4" width="28" height="20">
<path d="M0 21C0 22.6569 1.34315 24 3 24H25C26.6569 24 28 22.6569 28 21V7C28 5.34315 26.6569 4 25 4H3C1.34315 4 0 5.34315 0 7V21Z" fill="white"/>
</mask>
<g mask="url(#mask0_107628_1786)">
<path fill-rule="evenodd" clip-rule="evenodd" d="M34.2847 18.9077C33.9018 19.1378 33.5711 19.6788 32.5506 19.6788C30.5095 19.6788 30.0003 18.5418 28.4697 18.5418C27.4492 18.5418 26.9389 19.6788 25.9184 19.6788C23.8774 19.6788 23.3671 18.5418 21.8363 18.5418C20.8158 18.5418 20.3056 19.6788 19.2852 19.6788C17.2452 19.6788 16.735 18.5418 15.2042 18.5418C14.1848 18.5418 13.6735 19.6788 12.6529 19.6788C10.6119 19.6788 10.1028 18.5418 8.57091 18.5418C7.55156 18.5418 7.0413 19.6788 6.02079 19.6788C3.97977 19.6788 3.46953 18.5418 1.93877 18.5418C0.918255 18.5418 0.612572 19.352 0 19.352V20.8157C0.612572 20.8157 0.918255 20.0054 1.93877 20.0054C3.46953 20.0054 3.97977 21.1425 6.02079 21.1425C7.0413 21.1425 7.55156 20.0054 8.57091 20.0054C10.1028 20.0054 10.6119 21.1425 12.6529 21.1425C13.6735 21.1425 14.1848 20.0054 15.2042 20.0054C16.735 20.0054 17.2452 21.1425 19.2852 21.1425C20.3056 21.1425 20.8158 20.0054 21.8363 20.0054C23.3671 20.0054 23.8774 21.1425 25.9184 21.1425C26.9389 21.1425 27.4492 20.0054 28.4697 20.0054C30.0003 20.0054 30.5095 21.1425 32.5506 21.1425C33.5711 21.1425 33.9018 20.8203 34.2847 20.5896V18.9077Z" fill="#2A337A"/>
<path fill-rule="evenodd" clip-rule="evenodd" d="M34.2847 21.6276C33.9018 21.8594 33.5711 22.3999 32.5506 22.3999C30.5095 22.3999 30.0003 21.2624 28.4697 21.2624C27.4492 21.2624 26.9389 22.3999 25.9184 22.3999C23.8774 22.3999 23.3671 21.2624 21.8363 21.2624C20.8158 21.2624 20.3056 22.3999 19.2852 22.3999C17.2452 22.3999 16.735 21.2624 15.2042 21.2624C14.1848 21.2624 13.6735 22.3999 12.6529 22.3999C10.6119 22.3999 10.1028 21.2624 8.57091 21.2624C7.55156 21.2624 7.0413 22.3999 6.02079 22.3999C3.97977 22.3999 3.46953 21.2624 1.93877 21.2624C0.918255 21.2624 0.612572 22.0732 0 22.0732V23.5363C0.612572 23.5363 0.918255 22.7266 1.93877 22.7266C3.46953 22.7266 3.97977 23.8635 6.02079 23.8635C7.0413 23.8635 7.55156 22.7266 8.57091 22.7266C10.1028 22.7266 10.6119 23.8635 12.6529 23.8635C13.6735 23.8635 14.1848 22.7266 15.2042 22.7266C16.735 22.7266 17.2452 23.8635 19.2852 23.8635C20.3056 23.8635 20.8158 22.7266 21.8363 22.7266C23.3671 22.7266 23.8774 23.8635 25.9184 23.8635C26.9389 23.8635 27.4492 22.7266 28.4697 22.7266C30.0003 22.7266 30.5095 23.8635 32.5506 23.8635C33.5711 23.8635 33.9018 23.5414 34.2847 23.3102V21.6276Z" fill="#2A337A"/>
<path fill-rule="evenodd" clip-rule="evenodd" d="M34.2847 16.0637C33.9018 16.2956 33.5711 16.8354 32.5506 16.8354C30.5095 16.8354 30.0003 15.6984 28.4697 15.6984C27.4492 15.6984 26.9389 16.8354 25.9184 16.8354C23.8774 16.8354 23.3671 15.6984 21.8363 15.6984C20.8158 15.6984 20.3056 16.8354 19.2852 16.8354C17.2452 16.8354 16.735 15.6984 15.2042 15.6984C14.1848 15.6984 13.6735 16.8354 12.6529 16.8354C10.6119 16.8354 10.1028 15.6984 8.57091 15.6984C7.55156 15.6984 7.0413 16.8354 6.02079 16.8354C3.97977 16.8354 3.46953 15.6984 1.93877 15.6984C0.918255 15.6984 0.612572 16.5086 0 16.5086V17.9724C0.612572 17.9724 0.918255 17.1627 1.93877 17.1627C3.46953 17.1627 3.97977 18.2997 6.02079 18.2997C7.0413 18.2997 7.55156 17.1627 8.57091 17.1627C10.1028 17.1627 10.6119 18.2997 12.6529 18.2997C13.6735 18.2997 14.1848 17.1627 15.2042 17.1627C16.735 17.1627 17.2452 18.2997 19.2852 18.2997C20.3056 18.2997 20.8158 17.1627 21.8363 17.1627C23.3671 17.1627 23.8774 18.2997 25.9184 18.2997C26.9389 18.2997 27.4492 17.1627 28.4697 17.1627C30.0003 17.1627 30.5095 18.2997 32.5506 18.2997C33.5711 18.2997 33.9018 17.9769 34.2847 17.7462V16.0637Z" fill="#2A337A"/>
<path fill-rule="evenodd" clip-rule="evenodd" d="M34.2847 13.221C33.9018 13.4523 33.5711 13.9932 32.5506 13.9932C30.5095 13.9932 30.0003 12.855 28.4697 12.855C27.4492 12.855 26.9389 13.9932 25.9184 13.9932C23.8774 13.9932 23.3671 12.855 21.8363 12.855C20.8158 12.855 20.3056 13.9932 19.2852 13.9932C17.2452 13.9932 16.735 12.855 15.2042 12.855C14.1848 12.855 13.6735 13.9932 12.6529 13.9932C10.6119 13.9932 10.1028 12.855 8.57091 12.855C7.55156 12.855 7.0413 13.9932 6.02079 13.9932C3.97977 13.9932 3.46953 12.855 1.93877 12.855C0.918255 12.855 0.612572 13.6653 0 13.6653V15.1296C0.612572 15.1296 0.918255 14.3193 1.93877 14.3193C3.46953 14.3193 3.97977 15.4575 6.02079 15.4575C7.0413 15.4575 7.55156 14.3193 8.57091 14.3193C10.1028 14.3193 10.6119 15.4575 12.6529 15.4575C13.6735 15.4575 14.1848 14.3193 15.2042 14.3193C16.735 14.3193 17.2452 15.4575 19.2852 15.4575C20.3056 15.4575 20.8158 14.3193 21.8363 14.3193C23.3671 14.3193 23.8774 15.4575 25.9184 15.4575C26.9389 15.4575 27.4492 14.3193 28.4697 14.3193C30.0003 14.3193 30.5095 15.4575 32.5506 15.4575C33.5711 15.4575 33.9018 15.1348 34.2847 14.9029V13.221Z" fill="#2A337A"/>
<path fill-rule="evenodd" clip-rule="evenodd" d="M34.2847 7.53554C33.9018 7.76623 33.5711 8.30654 32.5506 8.30654C30.5095 8.30654 30.0003 7.17012 28.4697 7.17012C27.4492 7.17012 26.9389 8.30654 25.9184 8.30654C23.8774 8.30654 23.3671 7.17012 21.8363 7.17012C20.8158 7.17012 20.3056 8.30654 19.2852 8.30654C17.2452 8.30654 16.735 7.17012 15.2042 7.17012C14.1848 7.17012 13.6735 8.30654 12.6529 8.30654C10.6119 8.30654 10.1028 7.17012 8.57091 7.17012C7.55156 7.17012 7.0413 8.30654 6.02079 8.30654C3.97977 8.30654 3.46953 7.17012 1.93877 7.17012C0.918255 7.17012 0.612572 7.97984 0 7.97984V9.44411C0.612572 9.44411 0.918255 8.63325 1.93877 8.63325C3.46953 8.63325 3.97977 9.77087 6.02079 9.77087C7.0413 9.77087 7.55156 8.63325 8.57091 8.63325C10.1028 8.63325 10.6119 9.77087 12.6529 9.77087C13.6735 9.77087 14.1848 8.63325 15.2042 8.63325C16.735 8.63325 17.2452 9.77087 19.2852 9.77087C20.3056 9.77087 20.8158 8.63325 21.8363 8.63325C23.3671 8.63325 23.8774 9.77087 25.9184 9.77087C26.9389 9.77087 27.4492 8.63325 28.4697 8.63325C30.0003 8.63325 30.5095 9.77087 32.5506 9.77087C33.5711 9.77087 33.9018 9.44812 34.2847 9.21796V7.53554Z" fill="#2A337A"/>
<path fill-rule="evenodd" clip-rule="evenodd" d="M34.2847 10.5355C33.9018 10.7662 33.5711 11.3065 32.5506 11.3065C30.5095 11.3065 30.0003 10.1701 28.4697 10.1701C27.4492 10.1701 26.9389 11.3065 25.9184 11.3065C23.8774 11.3065 23.3671 10.1701 21.8363 10.1701C20.8158 10.1701 20.3056 11.3065 19.2852 11.3065C17.2452 11.3065 16.735 10.1701 15.2042 10.1701C14.1848 10.1701 13.6735 11.3065 12.6529 11.3065C10.6119 11.3065 10.1028 10.1701 8.57091 10.1701C7.55156 10.1701 7.0413 11.3065 6.02079 11.3065C3.97977 11.3065 3.46953 10.1701 1.93877 10.1701C0.918255 10.1701 0.612572 10.9798 0 10.9798V12.4441C0.612572 12.4441 0.918255 11.6333 1.93877 11.6333C3.46953 11.6333 3.97977 12.7709 6.02079 12.7709C7.0413 12.7709 7.55156 11.6333 8.57091 11.6333C10.1028 11.6333 10.6119 12.7709 12.6529 12.7709C13.6735 12.7709 14.1848 11.6333 15.2042 11.6333C16.735 11.6333 17.2452 12.7709 19.2852 12.7709C20.3056 12.7709 20.8158 11.6333 21.8363 11.6333C23.3671 11.6333 23.8774 12.7709 25.9184 12.7709C26.9389 12.7709 27.4492 11.6333 28.4697 11.6333C30.0003 11.6333 30.5095 12.7709 32.5506 12.7709C33.5711 12.7709 33.9018 12.4481 34.2847 12.218V10.5355Z" fill="#2A337A"/>
<path fill-rule="evenodd" clip-rule="evenodd" d="M34.2847 4.69274C33.9018 4.92399 33.5711 5.46329 32.5506 5.46329C30.5095 5.46329 30.0003 4.32675 28.4697 4.32675C27.4492 4.32675 26.9389 5.46329 25.9184 5.46329C23.8774 5.46329 23.3671 4.32675 21.8363 4.32675C20.8158 4.32675 20.3056 5.46329 19.2852 5.46329C17.2452 5.46329 16.735 4.32675 15.2042 4.32675C14.1848 4.32675 13.6735 5.46329 12.6529 5.46329C10.6119 5.46329 10.1028 4.32675 8.57091 4.32675C7.55156 4.32675 7.0413 5.46329 6.02079 5.46329C3.97977 5.46329 3.46953 4.32675 1.93877 4.32675C0.918255 4.32675 0.612572 5.13707 0 5.13707V6.60086C0.612572 6.60086 0.918255 5.79003 1.93877 5.79003C3.46953 5.79003 3.97977 6.92749 6.02079 6.92749C7.0413 6.92749 7.55156 5.79003 8.57091 5.79003C10.1028 5.79003 10.6119 6.92749 12.6529 6.92749C13.6735 6.92749 14.1848 5.79003 15.2042 5.79003C16.735 5.79003 17.2452 6.92749 19.2852 6.92749C20.3056 6.92749 20.8158 5.79003 21.8363 5.79003C23.3671 5.79003 23.8774 6.92749 25.9184 6.92749C26.9389 6.92749 27.4492 5.79003 28.4697 5.79003C30.0003 5.79003 30.5095 6.92749 32.5506 6.92749C33.5711 6.92749 33.9018 6.606 34.2847 6.37475V4.69274Z" fill="#2A337A"/>
<rect x="22.557" y="10.7727" width="1.04545" height="10.2273" fill="#951D24"/>
<path fill-rule="evenodd" clip-rule="evenodd" d="M22.5197 10.7727H23.5569V10.8106L25.3401 9L20.7738 9L22.5197 10.7727Z" fill="#7AA351"/>
<path d="M25.5529 18.6591H20.5301V17.7727C18.9165 15.7273 21.3938 14.4773 22.5529 15.5V14.6136H22.0529V13.6136H22.5529V13.1364H23.5983V13.6136H24.0983V14.6136H23.5983V15.5C25.7801 14.2273 26.6892 16.6818 25.5529 17.7727V18.6591Z" fill="#FADA61"/>
<path d="M24.5756 17.6591H21.5074V17.2954L21.0756 16.8863C20.871 16.2045 21.462 16.0681 21.7574 16.2045L22.5529 16.8863H23.5983L24.3483 16.2045C24.7801 15.8863 25.2801 16.5454 24.9847 16.8863L24.5756 17.2954V17.6591Z" fill="#C72A31"/>
<rect width="12.6667" height="10" transform="translate(0 4)" fill="#2A337A"/>
<path d="M0 3.66667H-0.901086L-0.21693 4.25309L4.33333 8.15331V9.16179L-0.193746 12.3954L-0.333333 12.4951V12.6667V13.3333V13.9347L0.176666 13.616L5.42893 10.3333H6.55984L11.0821 13.5635C11.176 13.6306 11.2886 13.6667 11.404 13.6667C11.9182 13.6667 12.1548 13.027 11.7644 12.6924L7.66667 9.18002V8.17154L12.0542 5.03762C12.2294 4.91248 12.3333 4.71043 12.3333 4.49513V4V3.39858L11.8233 3.71733L6.57107 7H5.44016L0.860413 3.72876L0.773488 3.66667H0.666667H0Z" fill="#DB1E36" stroke="white" stroke-width="0.666667"/>
<path fill-rule="evenodd" clip-rule="evenodd" d="M0 7.33333V10H4.66667V13.3333C4.66667 13.7015 4.96514 14 5.33333 14H6.66667C7.03486 14 7.33333 13.7015 7.33333 13.3333V10H12C12.3682 10 12.6667 9.70152 12.6667 9.33333V8C12.6667 7.63181 12.3682 7.33333 12 7.33333H7.33333V4H4.66667V7.33333H0Z" fill="white"/>
<path fill-rule="evenodd" clip-rule="evenodd" d="M0 8H5.33333V7.33333V4H6.66667V7.33333V8H12V9.33333H6.66667V10V13.3333H5.33333V10V9.33333H0V8Z" fill="#DB1E36"/>
</g>
</svg>
