<svg width="28" height="28" viewBox="0 0 28 28" fill="none" xmlns="http://www.w3.org/2000/svg">
<rect y="4" width="28" height="20" rx="3" fill="white"/>
<mask id="mask0_17_6147" style="mask-type:alpha" maskUnits="userSpaceOnUse" x="0" y="4" width="28" height="20">
<rect y="4" width="28" height="20" rx="3" fill="white"/>
</mask>
<g mask="url(#mask0_17_6147)">
<rect y="4" width="28" height="20" fill="#07319C"/>
<path fill-rule="evenodd" clip-rule="evenodd" d="M17.3333 14C17.3333 12.9062 17.3333 11.6131 17.3333 10.6658C17.3333 9.92942 17.9303 9.33331 18.6667 9.33331H22.6667C23.403 9.33331 24 9.92942 24 10.6658C24 11.6131 24 12.9062 24 14C24 17.3333 20.6667 18.6666 20.6667 18.6666C20.6667 18.6666 17.3333 17.3333 17.3333 14Z" fill="#008339"/>
<mask id="mask1_17_6147" style="mask-type:alpha" maskUnits="userSpaceOnUse" x="17" y="9" width="7" height="10">
<path fill-rule="evenodd" clip-rule="evenodd" d="M17.3333 14C17.3333 12.9062 17.3333 11.6131 17.3333 10.6658C17.3333 9.92942 17.9303 9.33331 18.6667 9.33331H22.6667C23.403 9.33331 24 9.92942 24 10.6658C24 11.6131 24 12.9062 24 14C24 17.3333 20.6667 18.6666 20.6667 18.6666C20.6667 18.6666 17.3333 17.3333 17.3333 14Z" fill="white"/>
</mask>
<g mask="url(#mask1_17_6147)">
<path fill-rule="evenodd" clip-rule="evenodd" d="M19.3333 12C19.7015 12 20 11.7015 20 11.3333C20 10.9651 19.7015 10.6666 19.3333 10.6666C18.9651 10.6666 18.6667 10.9651 18.6667 11.3333C18.6667 11.7015 18.9651 12 19.3333 12ZM19.3333 13.3333C19.7015 13.3333 20 13.0348 20 12.6666C20 12.2984 19.7015 12 19.3333 12C18.9651 12 18.6667 12.2984 18.6667 12.6666C18.6667 13.0348 18.9651 13.3333 19.3333 13.3333ZM19.3333 14.6666C18.9651 14.6666 18.6667 14.3681 18.6667 14C18.6667 13.6318 18.9651 13.3333 19.3333 13.3333C19.7015 13.3333 20 13.6318 20 14C20 14.3681 19.7015 14.6666 19.3333 14.6666ZM19.3333 14.6666C19.7015 14.6666 20 14.9651 20 15.3333C20 15.7015 19.7015 16 19.3333 16C18.9651 16 18.6667 15.7015 18.6667 15.3333C18.6667 14.9651 18.9651 14.6666 19.3333 14.6666ZM22.6667 15.3333C22.6667 15.7015 22.3682 16 22 16C21.6318 16 21.3333 15.7015 21.3333 15.3333C21.3333 14.9651 21.6318 14.6666 22 14.6666C22.3682 14.6666 22.6667 14.9651 22.6667 15.3333ZM22 13.3333C22.3682 13.3333 22.6667 13.6318 22.6667 14C22.6667 14.3681 22.3682 14.6666 22 14.6666C21.6318 14.6666 21.3333 14.3681 21.3333 14C21.3333 13.6318 21.6318 13.3333 22 13.3333ZM22 12C21.6318 12 21.3333 12.2984 21.3333 12.6666C21.3333 13.0348 21.6318 13.3333 22 13.3333C22.3682 13.3333 22.6667 13.0348 22.6667 12.6666C22.6667 12.2984 22.3682 12 22 12ZM22 12C21.6318 12 21.3333 11.7015 21.3333 11.3333C21.3333 10.9651 21.6318 10.6666 22 10.6666C22.3682 10.6666 22.6667 10.9651 22.6667 11.3333C22.6667 11.7015 22.3682 12 22 12Z" fill="#FFD033"/>
<path fill-rule="evenodd" clip-rule="evenodd" d="M20.6667 15.3333C21.0349 15.3333 21.3333 14.4379 21.3333 13.3333C21.3333 12.2287 21.0349 11.3333 20.6667 11.3333C20.2985 11.3333 20 12.2287 20 13.3333C20 14.4379 20.2985 15.3333 20.6667 15.3333Z" fill="white"/>
</g>
<path d="M16.6667 17.3334C16.6667 18.6049 18.4879 19.3334 20.6667 19.3334C22.8455 19.3334 24.6667 18.6049 24.6667 17.3334C24.6667 16.9652 24.3682 16.6667 24 16.6667C23.6318 16.6667 23.3333 16.9652 23.3333 17.3334C23.3333 17.3461 23.1717 17.4989 22.7761 17.6572C22.239 17.872 21.4824 18 20.6667 18C19.8509 18 19.0943 17.872 18.5572 17.6572C18.1616 17.4989 18 17.3461 18 17.3334C18 16.9652 17.7015 16.6667 17.3333 16.6667C16.9651 16.6667 16.6667 16.9652 16.6667 17.3334V17.3334Z" fill="#FFD033"/>
<path d="M0 3.66667H-0.901086L-0.21693 4.25309L4.33333 8.15331V9.16179L-0.193746 12.3954L-0.333333 12.4951V12.6667V13.3333V13.9347L0.176666 13.616L5.42893 10.3333H6.55984L11.0821 13.5635C11.176 13.6306 11.2886 13.6667 11.404 13.6667C11.9182 13.6667 12.1548 13.027 11.7644 12.6924L7.66667 9.18002V8.17154L12.0542 5.03762C12.2294 4.91248 12.3333 4.71043 12.3333 4.49513V4V3.39858L11.8233 3.71733L6.57107 7H5.44016L0.860413 3.72876L0.773488 3.66667H0.666667H0Z" fill="#DB1E36" stroke="white" stroke-width="0.666667"/>
<path fill-rule="evenodd" clip-rule="evenodd" d="M0 7.33333V10H4.66667V13.3333C4.66667 13.7015 4.96514 14 5.33333 14H6.66667C7.03486 14 7.33333 13.7015 7.33333 13.3333V10H12C12.3682 10 12.6667 9.70152 12.6667 9.33333V8C12.6667 7.63181 12.3682 7.33333 12 7.33333H7.33333V4H4.66667V7.33333H0Z" fill="white"/>
<path fill-rule="evenodd" clip-rule="evenodd" d="M0 8H5.33333V7.33333V4H6.66667V7.33333V8H12V9.33333H6.66667V10V13.3333H5.33333V10V9.33333H0V8Z" fill="#DB1E36"/>
</g>
</svg>
