<svg width="28" height="28" viewBox="0 0 28 28" fill="none" xmlns="http://www.w3.org/2000/svg">
<rect y="4" width="28" height="20" rx="2" fill="white"/>
<mask id="mask0_17_6013" style="mask-type:alpha" maskUnits="userSpaceOnUse" x="0" y="4" width="28" height="20">
<rect y="4" width="28" height="20" rx="2" fill="white"/>
</mask>
<g mask="url(#mask0_17_6013)">
<rect y="4" width="28" height="20" fill="#E4233B"/>
<path fill-rule="evenodd" clip-rule="evenodd" d="M0 4L12 14L0 24V4Z" fill="#34CD4E"/>
<path fill-rule="evenodd" clip-rule="evenodd" d="M28 4L16 14L28 24V4Z" fill="#34CD4E"/>
<path fill-rule="evenodd" clip-rule="evenodd" d="M16.9621 10.3938C16.1563 9.73116 15.1246 9.33334 14 9.33334C12.8754 9.33334 11.8437 9.73116 11.0379 10.3938L-1.28247 2.08356L-2.77365 4.29432L9.54576 12.6039C9.40773 13.0447 9.33333 13.5137 9.33333 14C9.33333 14.4863 9.40773 14.9553 9.54576 15.3961L-2.77365 23.7057L-1.28247 25.9165L11.0379 17.6063C11.8437 18.2688 12.8754 18.6667 14 18.6667C15.1246 18.6667 16.1563 18.2688 16.9621 17.6063L29.2825 25.9165L30.7737 23.7057L18.4542 15.3961C18.5923 14.9553 18.6667 14.4863 18.6667 14C18.6667 13.5137 18.5923 13.0447 18.4542 12.6039L30.7737 4.29432L29.2825 2.08356L16.9621 10.3938Z" fill="white"/>
<path fill-rule="evenodd" clip-rule="evenodd" d="M14 12.6667L13.0572 12.9428L13.3333 12L13.0572 11.0572L14 11.3333L14.9428 11.0572L14.6667 12L14.9428 12.9428L14 12.6667ZM12 16L11.0572 16.2761L11.3333 15.3333L11.0572 14.3905L12 14.6667L12.9428 14.3905L12.6667 15.3333L12.9428 16.2761L12 16ZM15.0572 16.2761L16 16L16.9428 16.2761L16.6667 15.3333L16.9428 14.3905L16 14.6667L15.0572 14.3905L15.3333 15.3333L15.0572 16.2761Z" fill="#DF2239"/>
</g>
</svg>
