<svg width="28" height="28" viewBox="0 0 28 28" fill="none" xmlns="http://www.w3.org/2000/svg">
<rect y="4" width="28" height="20" rx="3" fill="white"/>
<mask id="mask0_17_3866" style="mask-type:alpha" maskUnits="userSpaceOnUse" x="0" y="4" width="28" height="20">
<rect y="4" width="28" height="20" rx="3" fill="white"/>
</mask>
<g mask="url(#mask0_17_3866)">
<rect y="4" width="28" height="20" fill="#19BFBF"/>
<path fill-rule="evenodd" clip-rule="evenodd" d="M8.0282 9.50256C8.0105 9.39637 8.04518 9.28818 8.1213 9.21206L10.569 6.76432C10.6315 6.70181 10.7163 6.66669 10.8047 6.66669H12.4607C12.5869 6.66669 12.7023 6.73802 12.7588 6.85095L13.2412 7.81576C13.2977 7.92869 13.4131 8.00002 13.5393 8.00002H15.794C15.9202 8.00002 16.0357 8.07135 16.0921 8.18428L17.9079 11.8158C17.9643 11.9287 18.0798 12 18.206 12H19.3333C19.608 12 19.7648 12.3136 19.6 12.5334L18.018 14.6426C18.006 14.6586 17.9955 14.6757 17.9866 14.6936L17.3685 15.9296C17.3454 15.9759 17.3333 16.027 17.3333 16.0787V17.2547C17.3333 17.3064 17.3213 17.3575 17.2981 17.4037L16.6667 18.6667L16 20L15.4255 21.1491C15.369 21.262 15.2536 21.3334 15.1273 21.3334H14.206C14.0798 21.3334 13.9643 21.262 13.9079 21.1491L13.3685 20.0704C13.3454 20.0241 13.3333 19.9731 13.3333 19.9213V16.1381C13.3333 16.0497 13.2982 15.9649 13.2357 15.9024L12.7223 15.389C12.6857 15.3524 12.6581 15.3078 12.6418 15.2587L12.076 13.5613C12.0306 13.4252 11.9032 13.3334 11.7597 13.3334H8.94904C8.7861 13.3334 8.64703 13.2155 8.62024 13.0548L8.0282 9.50256Z" fill="white"/>
<path fill-rule="evenodd" clip-rule="evenodd" d="M18.6667 17.6666C18.6667 17.4826 18.8159 17.3333 19 17.3333H19.6667C19.8508 17.3333 20 17.4826 20 17.6666V18.588C20 18.6397 19.9879 18.6907 19.9648 18.737L19.4255 19.8157C19.369 19.9286 19.2536 20 19.1273 20H19C18.8159 20 18.6667 19.8507 18.6667 19.6666V17.6666Z" fill="white"/>
</g>
</svg>
