<svg width="28" height="28" viewBox="0 0 28 28" fill="none" xmlns="http://www.w3.org/2000/svg">
<rect y="4" width="28" height="20" rx="3" fill="white"/>
<mask id="mask0_17_3881" style="mask-type:alpha" maskUnits="userSpaceOnUse" x="0" y="4" width="28" height="20">
<rect y="4" width="28" height="20" rx="3" fill="white"/>
</mask>
<g mask="url(#mask0_17_3881)">
<rect y="4" width="28" height="20" fill="#19BFBF"/>
<path fill-rule="evenodd" clip-rule="evenodd" d="M5.4824 12.3685C5.40007 12.5332 5.46682 12.7334 5.63148 12.8158L7.70186 13.8509C7.86652 13.9333 7.93326 14.1335 7.85093 14.2982L7.4824 15.0352C7.40007 15.1999 7.19985 15.2666 7.03519 15.1843L6.07038 14.7019C6.0241 14.6787 5.97306 14.6667 5.92131 14.6667H4.33333C4.14924 14.6667 4 14.8159 4 15V15.7598C4 15.9032 4.09181 16.0306 4.22792 16.076L5.48833 16.4961C5.72341 16.5745 5.79384 16.8728 5.61863 17.0481L5.43096 17.2357C5.36845 17.2982 5.33333 17.383 5.33333 17.4714V17.9459C5.33333 17.9818 5.33911 18.0173 5.35044 18.0513L5.95634 19.869C5.98429 19.9529 6.04442 20.0222 6.12349 20.0618L7.11844 20.5592C7.24677 20.6234 7.40176 20.5983 7.50322 20.4968L8.66667 19.3334L9.00631 18.9937C9.16719 18.8328 9.12318 18.5616 8.91968 18.4599L8.18426 18.0922C8.07133 18.0357 8 17.9203 8 17.794V17.7603C8 17.5434 8.2038 17.3843 8.41418 17.4369L10.4142 17.9369C10.5626 17.974 10.6667 18.1073 10.6667 18.2603V19.2324C10.6667 19.2982 10.6861 19.3626 10.7226 19.4173L11.901 21.1849C11.9629 21.2777 12.0669 21.3334 12.1784 21.3334H12.441C12.5773 21.3334 12.6999 21.2504 12.7505 21.1238L13.7243 18.6892C13.8311 18.4222 14.2033 18.4067 14.332 18.6639L14.6425 19.285C14.6585 19.317 14.6796 19.3463 14.7049 19.3716L15.9618 20.6284C15.9871 20.6538 16.0163 20.6749 16.0484 20.6909L16.8509 21.0922C17.0726 21.203 17.3333 21.0418 17.3333 20.794V20.1381C17.3333 20.0497 17.2982 19.9649 17.2357 19.9024L16.9024 19.5691C16.7722 19.4389 16.7722 19.2278 16.9024 19.0977L17.2357 18.7643C17.2982 18.7018 17.383 18.6667 17.4714 18.6667H18.588C18.6397 18.6667 18.6908 18.6546 18.737 18.6315L19.8157 18.0922C19.9287 18.0357 20 17.9203 20 17.794V16.8048C20 16.7164 19.9649 16.6316 19.9024 16.5691L19.569 16.2357C19.4389 16.1055 19.4389 15.8945 19.569 15.7643L20.3396 14.9937C20.5005 14.8328 20.7717 14.8768 20.8735 15.0803L21.2509 15.8352C21.3014 15.9362 21.4047 16 21.5176 16C21.7392 16 21.8834 15.7668 21.7843 15.5685L21.4824 14.9648C21.4001 14.8002 21.4668 14.5999 21.6315 14.5176L22.3685 14.1491C22.5332 14.0668 22.5999 13.8665 22.5176 13.7019L22.0617 12.7902C22.0222 12.7111 21.9529 12.651 21.869 12.623L20.5117 12.1706C20.2766 12.0922 20.2062 11.7939 20.3814 11.6186L21.2357 10.7643C21.2982 10.7018 21.383 10.6667 21.4714 10.6667H23.1273C23.2536 10.6667 23.369 10.5954 23.4255 10.4824L23.7816 9.77017C23.8866 9.5602 23.7474 9.31039 23.5136 9.28914L17.3754 8.73112C17.094 8.70553 16.9701 8.36329 17.1699 8.16345L17.2357 8.09765C17.2982 8.03514 17.3333 7.95035 17.3333 7.86195V7.00002C17.3333 6.81593 17.1841 6.66669 17 6.66669H14.1381C14.0497 6.66669 13.9649 6.70181 13.9024 6.76432L12.0653 8.6014C12.0226 8.64412 11.969 8.67443 11.9104 8.68908L9.33333 9.33335L6.78629 9.97011C6.7091 9.98941 6.62755 9.98046 6.55638 9.94488L6.05311 9.69324C5.7875 9.56044 5.4939 9.81507 5.58781 10.0968L5.95634 11.2024C5.98429 11.2862 5.97779 11.3778 5.93825 11.4568L5.4824 12.3685ZM14.6667 20.6667C14.6667 21.0349 14.3682 21.3334 14 21.3334C13.6318 21.3334 13.3333 21.0349 13.3333 20.6667C13.3333 20.2985 13.6318 20 14 20C14.3682 20 14.6667 20.2985 14.6667 20.6667ZM10 14.6667C10.3682 14.6667 10.6667 14.3682 10.6667 14C10.6667 13.6318 10.3682 13.3334 10 13.3334C9.63181 13.3334 9.33333 13.6318 9.33333 14C9.33333 14.3682 9.63181 14.6667 10 14.6667ZM22.6667 16.6667V17.3334L21.9024 18.0977C21.6924 18.3076 21.8411 18.6667 22.1381 18.6667H22.4607C22.5869 18.6667 22.7023 18.5954 22.7588 18.4824L23.3333 17.3334L22.6667 16.6667ZM22.6667 16.6667L23.0352 16.4824C23.2755 16.3623 23.19 16 22.9213 16C22.7807 16 22.6667 16.114 22.6667 16.2547V16.6667Z" fill="white"/>
</g>
</svg>
