<svg width="28" height="28" viewBox="0 0 28 28" fill="none" xmlns="http://www.w3.org/2000/svg">
<rect y="4" width="28" height="20" rx="3" fill="white"/>
<mask id="mask0_17_5971" style="mask-type:luminance" maskUnits="userSpaceOnUse" x="0" y="4" width="28" height="20">
<rect y="4" width="28" height="20" rx="3" fill="white"/>
</mask>
<g mask="url(#mask0_17_5971)">
<rect y="4" width="28" height="20" fill="#07319C"/>
<path fill-rule="evenodd" clip-rule="evenodd" d="M20.6667 10.6667C21.7712 10.6667 22.6667 10.0697 22.6667 9.33333C22.6667 8.59695 21.7712 8 20.6667 8C19.5621 8 18.6667 8.59695 18.6667 9.33333C18.6667 10.0697 19.5621 10.6667 20.6667 10.6667Z" fill="#FAD051"/>
<path fill-rule="evenodd" clip-rule="evenodd" d="M17.3333 14C17.3333 12 17.3333 9.33331 17.3333 9.33331H24C24 9.33331 24 12 24 14C24 17.3333 20.6667 18.6666 20.6667 18.6666C20.6667 18.6666 17.3333 17.3333 17.3333 14Z" fill="url(#paint0_linear_17_5971)"/>
<mask id="mask1_17_5971" style="mask-type:luminance" maskUnits="userSpaceOnUse" x="17" y="9" width="7" height="10">
<path fill-rule="evenodd" clip-rule="evenodd" d="M17.3333 14C17.3333 12 17.3333 9.33331 17.3333 9.33331H24C24 9.33331 24 12 24 14C24 17.3333 20.6667 18.6666 20.6667 18.6666C20.6667 18.6666 17.3333 17.3333 17.3333 14Z" fill="white"/>
</mask>
<g mask="url(#mask1_17_5971)">
<path fill-rule="evenodd" clip-rule="evenodd" d="M17.3333 9.33331H24V10.6666H21.3333H20H17.3333V9.33331Z" fill="#CF142C"/>
<path fill-rule="evenodd" clip-rule="evenodd" d="M24 12H17.3333V13.3333H20H21.3333H24V12ZM17.3333 14.6667H24V16H21.3333H20H17.3333V14.6667ZM17.3333 17.3333H24V18.6667H21.3333H20H17.3333V17.3333Z" fill="#125FBA"/>
</g>
<path d="M0 3.66667H-0.901086L-0.21693 4.25309L4.33333 8.15331V9.16179L-0.193746 12.3954L-0.333333 12.4951V12.6667V13.3333V13.9347L0.176666 13.616L5.42893 10.3333H6.55984L11.0821 13.5635C11.176 13.6306 11.2886 13.6667 11.404 13.6667C11.9182 13.6667 12.1548 13.027 11.7644 12.6924L7.66667 9.18002V8.17154L12.0542 5.03762C12.2294 4.91248 12.3333 4.71043 12.3333 4.49513V4V3.39858L11.8233 3.71733L6.57107 7H5.44016L0.860413 3.72876L0.773488 3.66667H0.666667H0Z" fill="#DB1E36" stroke="white" stroke-width="0.666667"/>
<path fill-rule="evenodd" clip-rule="evenodd" d="M0 7.33333V10H4.66667V13.3333C4.66667 13.7015 4.96514 14 5.33333 14H6.66667C7.03486 14 7.33333 13.7015 7.33333 13.3333V10H12C12.3682 10 12.6667 9.70152 12.6667 9.33333V8C12.6667 7.63181 12.3682 7.33333 12 7.33333H7.33333V4H4.66667V7.33333H0Z" fill="white"/>
<path fill-rule="evenodd" clip-rule="evenodd" d="M0 8H5.33333V7.33333V4H6.66667V7.33333V8H12V9.33333H6.66667V10V13.3333H5.33333V10V9.33333H0V8Z" fill="#DB1E36"/>
</g>
<defs>
<linearGradient id="paint0_linear_17_5971" x1="17.3333" y1="9.33331" x2="17.3333" y2="18.6666" gradientUnits="userSpaceOnUse">
<stop stop-color="white"/>
<stop offset="1" stop-color="#F0F0F0"/>
</linearGradient>
</defs>
</svg>
