<svg width="28" height="28" viewBox="0 0 28 28" fill="none" xmlns="http://www.w3.org/2000/svg">
<rect y="4" width="28" height="20" rx="3" fill="white"/>
<mask id="mask0_17_5859" style="mask-type:alpha" maskUnits="userSpaceOnUse" x="0" y="4" width="28" height="20">
<rect y="4" width="28" height="20" rx="3" fill="white"/>
</mask>
<g mask="url(#mask0_17_5859)">
<rect y="4" width="28" height="20" fill="#F1361D"/>
<path fill-rule="evenodd" clip-rule="evenodd" d="M10.0726 7.10073L11.0411 7.26583L11.7674 7.92733L11.9325 6.95888L12.594 6.23255L11.6256 6.06744L10.8992 5.40594L10.7341 6.37439L10.0726 7.10073ZM12.6667 10.488L13.5059 9.97725L14.488 9.99997L13.9773 9.16076L14 8.1786L13.1608 8.68935L12.1786 8.66664L12.6894 9.50585L12.6667 10.488ZM11.5282 15.9708L10.7074 16.5106L10.6958 15.5282L10.1561 14.7073L11.1384 14.6958L11.9593 14.156L11.9709 15.1384L12.5106 15.9593L11.5282 15.9708ZM12.2411 13.4314L13.2176 13.3232L14.0981 13.7588L13.9899 12.7824L14.4255 11.9019L13.4491 12.0101L12.5686 11.5744L12.6768 12.5509L12.2411 13.4314Z" fill="#FFDC42"/>
<path fill-rule="evenodd" clip-rule="evenodd" d="M6.66666 12.2267L4.31552 13.9028L5.18301 11.1488L2.86243 9.43062L5.74971 9.40462L6.66666 6.66669L7.5836 9.40462L10.4709 9.43062L8.1503 11.1488L9.0178 13.9028L6.66666 12.2267Z" fill="#FFDC42"/>
</g>
</svg>
