<svg width="28" height="28" viewBox="0 0 28 28" fill="none" xmlns="http://www.w3.org/2000/svg">
<rect y="4" width="28" height="20" rx="3" fill="white"/>
<mask id="mask0_17_3892" style="mask-type:alpha" maskUnits="userSpaceOnUse" x="0" y="4" width="28" height="20">
<rect y="4" width="28" height="20" rx="3" fill="white"/>
</mask>
<g mask="url(#mask0_17_3892)">
<rect y="4" width="28" height="20" fill="url(#paint0_linear_17_3892)"/>
<path fill-rule="evenodd" clip-rule="evenodd" d="M13.4445 7.33335C13.3723 7.33335 13.3022 7.35675 13.2445 7.40002L10.7205 9.29297C10.685 9.31962 10.6445 9.3389 10.6014 9.34968L8.03551 9.99115C8.01192 9.99704 7.98904 10.0055 7.96729 10.0164L5.43273 11.2837C5.36822 11.3159 5.31591 11.3682 5.28366 11.4327L4.08652 13.827C4.03303 13.934 4.04096 14.0614 4.10731 14.161L5.27736 15.916C5.31387 15.9708 5.33335 16.0351 5.33335 16.1009V17.8619C5.33335 17.9504 5.36847 18.0351 5.43098 18.0977L6.49679 19.1635C6.59825 19.2649 6.75324 19.2901 6.88157 19.2259L10.5963 17.3685C10.6426 17.3454 10.6936 17.3334 10.7454 17.3334H13.2127C13.2906 17.3334 13.3662 17.3607 13.4261 17.4106L17.2406 20.5894C17.3005 20.6393 17.3761 20.6667 17.454 20.6667H19.8216C19.9331 20.6667 20.0371 20.611 20.099 20.5183L22.6107 16.7507C22.6472 16.6959 22.6667 16.6316 22.6667 16.5658V14.1009C22.6667 14.0351 22.6472 13.9708 22.6107 13.916L20 10L18.0971 6.82852C18.0369 6.72812 17.9284 6.66669 17.8113 6.66669H17.3927C17.1248 6.66669 16.9906 6.99063 17.1801 7.18008C17.2716 7.27161 17.2943 7.41145 17.2364 7.52723L16.7588 8.48242C16.7023 8.59535 16.5869 8.66669 16.4607 8.66669H14.8727C14.7464 8.66669 14.631 8.59535 14.5745 8.48242L14.0921 7.51762C14.0357 7.40469 13.9203 7.33335 13.794 7.33335H13.4445ZM19.3333 21.3334H18L18.431 21.7643C18.5612 21.8945 18.7722 21.8945 18.9024 21.7643L19.3333 21.3334Z" fill="white"/>
</g>
<defs>
<linearGradient id="paint0_linear_17_3892" x1="0" y1="4" x2="0" y2="24" gradientUnits="userSpaceOnUse">
<stop stop-color="#19BFBF"/>
<stop offset="1" stop-color="#10ACAC"/>
</linearGradient>
</defs>
</svg>
