<svg width="28" height="28" viewBox="0 0 28 28" fill="none" xmlns="http://www.w3.org/2000/svg">
<rect x="0.25" y="4.25" width="27.5" height="19.5" rx="2.75" fill="white" stroke="#D6D8DD" stroke-width="0.5"/>
<mask id="mask0_17_5895" style="mask-type:alpha" maskUnits="userSpaceOnUse" x="0" y="4" width="28" height="20">
<rect x="0.25" y="4.25" width="27.5" height="19.5" rx="2.75" fill="white" stroke="white" stroke-width="0.5"/>
</mask>
<g mask="url(#mask0_17_5895)">
<path fill-rule="evenodd" clip-rule="evenodd" d="M0 9.33333H28V4H0V9.33333Z" fill="#FFCB49"/>
<path fill-rule="evenodd" clip-rule="evenodd" d="M0 18.6666H28V13.3333H0V18.6666Z" fill="#DC1D34"/>
<path fill-rule="evenodd" clip-rule="evenodd" d="M0 24H28V18.6667H0V24Z" fill="#4985D4"/>
<path fill-rule="evenodd" clip-rule="evenodd" d="M0 24L13.3333 14L0 4V24Z" fill="#4BA343"/>
<path fill-rule="evenodd" clip-rule="evenodd" d="M5.33333 18C5.67863 18 6.01371 17.9562 6.33333 17.874C4.6081 17.4299 3.33333 15.8638 3.33333 14C3.33333 12.1362 4.6081 10.5701 6.33333 10.126C6.01371 10.0438 5.67863 10 5.33333 10C3.12419 10 1.33333 11.7909 1.33333 14C1.33333 16.2091 3.12419 18 5.33333 18ZM8 11.3333C8 11.7015 7.70152 12 7.33333 12C6.96514 12 6.66666 11.7015 6.66666 11.3333C6.66666 10.9651 6.96514 10.6667 7.33333 10.6667C7.70152 10.6667 8 10.9651 8 11.3333ZM7.33333 14.6667C7.70152 14.6667 8 14.3682 8 14C8 13.6318 7.70152 13.3333 7.33333 13.3333C6.96514 13.3333 6.66666 13.6318 6.66666 14C6.66666 14.3682 6.96514 14.6667 7.33333 14.6667ZM8 16.6667C8 17.0349 7.70152 17.3333 7.33333 17.3333C6.96514 17.3333 6.66666 17.0349 6.66666 16.6667C6.66666 16.2985 6.96514 16 7.33333 16C7.70152 16 8 16.2985 8 16.6667Z" fill="white"/>
</g>
</svg>
