<svg width="28" height="28" viewBox="0 0 28 28" fill="none" xmlns="http://www.w3.org/2000/svg">
<rect y="4" width="28" height="20" rx="3" fill="white"/>
<mask id="mask0_17_3861" style="mask-type:alpha" maskUnits="userSpaceOnUse" x="0" y="4" width="28" height="20">
<rect y="4" width="28" height="20" rx="3" fill="white"/>
</mask>
<g mask="url(#mask0_17_3861)">
<rect y="4" width="28" height="20" fill="#19BFBF"/>
<path fill-rule="evenodd" clip-rule="evenodd" d="M10 20.0411C10 20.0138 10.0034 19.9867 10.01 19.9602L10.6667 17.3334L11.3098 14.7609C11.3252 14.6994 11.3227 14.6347 11.3027 14.5746L10.7104 12.7977C10.6824 12.7138 10.6223 12.6445 10.5432 12.6049L9.51764 12.0922C9.40471 12.0357 9.33337 11.9203 9.33337 11.794V9.41204C9.33337 9.36029 9.34542 9.30926 9.36856 9.26297L10 8.00002L10.5746 6.85095C10.631 6.73802 10.7465 6.66669 10.8727 6.66669H14.3334C14.5175 6.66669 14.6667 6.81593 14.6667 7.00002V7.66669C14.6667 7.85078 14.8159 8.00002 15 8.00002H15.6667C15.8508 8.00002 16 8.14926 16 8.33335V9.12734C16 9.2536 16.0714 9.36902 16.1843 9.42548L18.4824 10.5746C18.5954 10.631 18.6667 10.7464 18.6667 10.8727V11.9213C18.6667 11.9731 18.6547 12.0241 18.6315 12.0704L18.0396 13.2542C18.0137 13.3061 17.9747 13.3503 17.9264 13.3825L16.0737 14.6176C16.0254 14.6498 15.9864 14.694 15.9605 14.7459L14.7063 17.2542C14.6804 17.3061 14.6413 17.3503 14.5931 17.3825L12.7404 18.6176C12.6921 18.6498 12.6531 18.694 12.6271 18.7459L11.4255 21.1491C11.369 21.262 11.2536 21.3334 11.1274 21.3334H10.3334C10.1493 21.3334 10 21.1841 10 21V20.0411Z" fill="white"/>
</g>
</svg>
