<svg width="28" height="28" viewBox="0 0 28 28" fill="none" xmlns="http://www.w3.org/2000/svg">
<rect x="0.25" y="4.25" width="27.5" height="19.5" rx="2.75" fill="white" stroke="#D6D8DD" stroke-width="0.5"/>
<mask id="mask0_17_5931" style="mask-type:alpha" maskUnits="userSpaceOnUse" x="0" y="4" width="28" height="20">
<rect x="0.25" y="4.25" width="27.5" height="19.5" rx="2.75" fill="white" stroke="white" stroke-width="0.5"/>
</mask>
<g mask="url(#mask0_17_5931)">
<path fill-rule="evenodd" clip-rule="evenodd" d="M20 7.33335C20.3631 7.1518 20.7316 7.56925 20.5064 7.90703L20.0672 8.56582C20.0229 8.6324 19.9657 8.68954 19.8991 8.73393L18.0549 9.9634C18.0184 9.98776 17.9844 10.0157 17.9533 10.0467L17.8047 10.1953C17.5444 10.4556 17.5444 10.8777 17.8047 11.1381L18.1953 11.5286C18.4556 11.789 18.4556 12.2111 18.1953 12.4714L17.6731 12.9936C17.4702 13.1965 17.1602 13.2468 16.9036 13.1185L16.5963 12.9648C16.267 12.8002 15.8665 12.9337 15.7019 13.263L15.4568 13.753C15.3778 13.9112 15.2391 14.0314 15.0714 14.0873L13.436 14.6325C13.368 14.6551 13.2968 14.6667 13.2252 14.6667H12.412C12.1595 14.6667 11.9287 14.8094 11.8157 15.0352L11.6315 15.4037C11.4668 15.7331 11.0664 15.8665 10.7371 15.7019L8.76343 14.7151C8.69934 14.683 8.64084 14.6409 8.59017 14.5902L7.5286 13.5286C7.40357 13.4036 7.33334 13.234 7.33334 13.0572V12.4714C7.33334 12.2111 7.54439 12 7.80474 12C7.92976 12 8.04967 11.9504 8.13807 11.8619L9.13807 10.8619C9.2631 10.7369 9.43267 10.6667 9.60948 10.6667H10.1862C10.4731 10.6667 10.7279 10.4831 10.8186 10.2108L11.1472 9.22501C11.2535 8.90605 11.5807 8.71617 11.9104 8.78211L14.5197 9.30395C14.6165 9.32331 14.7163 9.32094 14.8121 9.29699L17.2623 8.68444C17.3095 8.67264 17.3553 8.65571 17.3988 8.63396L18.6667 8.00002L20 7.33335Z" fill="#E7832C"/>
<path fill-rule="evenodd" clip-rule="evenodd" d="M14 20C14.3682 20 14.6667 19.7015 14.6667 19.3334C14.6667 18.9652 14.3682 18.6667 14 18.6667C13.6318 18.6667 13.3333 18.9652 13.3333 19.3334C13.3333 19.7015 13.6318 20 14 20Z" fill="#445128"/>
<path opacity="0.75" d="M16 18.6667C16 18.6667 18 18 18.6667 16.6667" stroke="#445128" stroke-width="1.33333" stroke-linecap="round"/>
<path opacity="0.75" d="M12 18.6667C12 18.6667 10 18 9.33333 16.6667" stroke="#445128" stroke-width="1.33333" stroke-linecap="round"/>
</g>
</svg>
