<svg width="28" height="28" viewBox="0 0 28 28" fill="none" xmlns="http://www.w3.org/2000/svg">
<rect y="4" width="28" height="20" rx="3" fill="white"/>
<mask id="mask0_17_5807" style="mask-type:alpha" maskUnits="userSpaceOnUse" x="0" y="4" width="28" height="20">
<rect y="4" width="28" height="20" rx="3" fill="white"/>
</mask>
<g mask="url(#mask0_17_5807)">
<path fill-rule="evenodd" clip-rule="evenodd" d="M0 12H28V4H0V12Z" fill="#108753"/>
<path fill-rule="evenodd" clip-rule="evenodd" d="M0 24H28V16H0V24Z" fill="#108753"/>
<path fill-rule="evenodd" clip-rule="evenodd" d="M16 24H12V16H0V12H12V4H16V12H28V16H16V24Z" fill="white"/>
<path fill-rule="evenodd" clip-rule="evenodd" d="M14.6667 24H13.3333V14.6667H0V13.3333H13.3333V4H14.6667V13.3333H28V14.6667H14.6667V24Z" fill="#262626"/>
<path fill-rule="evenodd" clip-rule="evenodd" d="M13.3333 24H12V13.3333H0V12H12V4H13.3333V12H28V13.3333H13.3333V24Z" fill="#FCD449"/>
<path fill-rule="evenodd" clip-rule="evenodd" d="M14 18.6667C16.5773 18.6667 18.6666 16.5774 18.6666 14C18.6666 11.4227 16.5773 9.33337 14 9.33337C11.4227 9.33337 9.33331 11.4227 9.33331 14C9.33331 16.5774 11.4227 18.6667 14 18.6667Z" fill="url(#paint0_linear_17_5807)"/>
<path fill-rule="evenodd" clip-rule="evenodd" d="M14 17.3333C15.841 17.3333 17.3334 15.8409 17.3334 14C17.3334 12.159 15.841 10.6666 14 10.6666C12.1591 10.6666 10.6667 12.159 10.6667 14C10.6667 15.8409 12.1591 17.3333 14 17.3333Z" stroke="#0E673F" stroke-width="1.33333" stroke-linecap="round" stroke-dasharray="0.67 2.67"/>
<path fill-rule="evenodd" clip-rule="evenodd" d="M14 15.3333C14.7364 15.3333 14.6666 14.7363 14.6666 14C14.6666 13.2636 14.7364 12.6666 14 12.6666C13.2636 12.6666 13.3333 13.2636 13.3333 14C13.3333 14.7363 13.2636 15.3333 14 15.3333Z" fill="#0E673F"/>
</g>
<defs>
<linearGradient id="paint0_linear_17_5807" x1="9.33331" y1="9.33337" x2="9.33331" y2="18.6667" gradientUnits="userSpaceOnUse">
<stop stop-color="#E02C42"/>
<stop offset="1" stop-color="#D22036"/>
</linearGradient>
</defs>
</svg>
