<svg width="28" height="28" viewBox="0 0 28 28" fill="none" xmlns="http://www.w3.org/2000/svg">
<rect x="0.25" y="4.25" width="27.5" height="19.5" rx="2.75" fill="white" stroke="#D6D8DD" stroke-width="0.5"/>
<mask id="mask0_17_5733" style="mask-type:alpha" maskUnits="userSpaceOnUse" x="0" y="4" width="28" height="20">
<rect x="0.25" y="4.25" width="27.5" height="19.5" rx="2.75" fill="white" stroke="white" stroke-width="0.5"/>
</mask>
<g mask="url(#mask0_17_5733)">
<path fill-rule="evenodd" clip-rule="evenodd" d="M0 10.6667H28V4H0V10.6667Z" fill="#E41D33"/>
<path fill-rule="evenodd" clip-rule="evenodd" d="M0 24H28V17.3334H0V24Z" fill="#262626"/>
<path d="M12.3685 13.4824L12.6528 14.0509L12.9588 13.494L12.9588 13.494L12.9588 13.4939L12.9588 13.4938L12.9589 13.4937L12.9601 13.4916L12.9654 13.4822C12.9702 13.4736 12.9777 13.4605 12.9875 13.4436C13.0072 13.4098 13.0363 13.3607 13.0733 13.3016C13.1475 13.1826 13.2514 13.0259 13.3715 12.8708C13.4932 12.7137 13.6234 12.569 13.7489 12.4666C13.883 12.3572 13.9662 12.3333 14 12.3333C14.0573 12.3333 14.1511 12.3644 14.2814 12.4686C14.407 12.5691 14.5336 12.7114 14.65 12.8667C14.765 13.02 14.8621 13.1751 14.9308 13.293C14.965 13.3515 14.9917 13.4001 15.0096 13.4334C15.0185 13.4501 15.0252 13.463 15.0296 13.4714L15.0342 13.4805L15.0352 13.4824L15.0352 13.4824L15.0353 13.4825L15.0353 13.4826L15.0353 13.4826L15.3334 14.0787L15.6315 13.4824L16.206 12.3333L16.6667 12.3333C16.8508 12.3333 17 12.4826 17 12.6667V14.7543C17 15.0206 16.7033 15.1794 16.4818 15.0317L15.5183 14.3893L15.4343 14.3333H15.3334H14.6667H14.3334V14.6667V15.3333C14.3334 15.5174 14.1841 15.6667 14 15.6667C13.8159 15.6667 13.6667 15.5174 13.6667 15.3333V14.6667V14.3333H13.3334H12.6667H12.5658L12.4818 14.3893L11.5183 15.0317C11.2967 15.1794 11 15.0206 11 14.7543V12.6667C11 12.4826 11.1493 12.3333 11.3334 12.3333L11.794 12.3333L12.3685 13.4824Z" fill="#F4B32E" fill-opacity="0.25" stroke="#C6A846" stroke-width="0.666667"/>
</g>
</svg>
