<svg width="28" height="28" viewBox="0 0 28 28" fill="none" xmlns="http://www.w3.org/2000/svg">
<rect x="0.25" y="4.25" width="27.5" height="19.5" rx="2.75" fill="white" stroke="#F5F5F5" stroke-width="0.5"/>
<mask id="mask0_17_5787" style="mask-type:alpha" maskUnits="userSpaceOnUse" x="0" y="4" width="28" height="20">
<rect x="0.25" y="4.25" width="27.5" height="19.5" rx="2.75" fill="white" stroke="white" stroke-width="0.5"/>
</mask>
<g mask="url(#mask0_17_5787)">
<path fill-rule="evenodd" clip-rule="evenodd" d="M0 24H28V17.3333H0V24Z" fill="#EC3938"/>
<path fill-rule="evenodd" clip-rule="evenodd" d="M0 10.6667H28V4H0V10.6667Z" fill="#51B422"/>
<path fill-rule="evenodd" clip-rule="evenodd" d="M13.6068 15.7151C13.6367 15.684 13.6535 15.6426 13.6537 15.5995L13.665 13.6274C13.6659 13.4653 13.5347 13.3333 13.3726 13.3333C13.1121 13.3333 12.9816 13.0184 13.1658 12.8342L13.7643 12.2357C13.8945 12.1055 14.1055 12.1055 14.2357 12.2357L14.8333 12.8333C15.0178 13.0178 14.8872 13.3333 14.6262 13.3333C14.4645 13.3333 14.3333 13.4645 14.3333 13.6262V15.5976C14.3333 15.6418 14.3509 15.6842 14.3821 15.7155C14.4871 15.8205 14.4128 16 14.2643 16H13.7282C13.5799 16 13.5041 15.8221 13.6068 15.7151Z" fill="#159940"/>
<path fill-rule="evenodd" clip-rule="evenodd" d="M0 4L9.33333 14L0 24V4Z" fill="#258DE7"/>
</g>
</svg>
