<svg width="28" height="28" viewBox="0 0 28 28" fill="none" xmlns="http://www.w3.org/2000/svg">
<rect y="4" width="28" height="20" rx="3" fill="white"/>
<mask id="mask0_17_5739" style="mask-type:alpha" maskUnits="userSpaceOnUse" x="0" y="4" width="28" height="20">
<rect y="4" width="28" height="20" rx="3" fill="white"/>
</mask>
<g mask="url(#mask0_17_5739)">
<path fill-rule="evenodd" clip-rule="evenodd" d="M28 4V14H0V4H28Z" fill="#29C53F"/>
<path fill-rule="evenodd" clip-rule="evenodd" d="M28 14V24.6667H0V14H28Z" fill="#579DED"/>
<path fill-rule="evenodd" clip-rule="evenodd" d="M0 24L28 14L0 4V24Z" fill="#F42D56"/>
<path d="M12.6667 14C12.6667 16.2092 10.8758 18 8.66667 18C6.45753 18 4.66667 16.2092 4.66667 14C4.66667 11.7909 6.45753 10 8.66667 10C10.8758 10 12.6667 11.7909 12.6667 14Z" stroke="#FFC63C" stroke-width="1.33333"/>
<path fill-rule="evenodd" clip-rule="evenodd" d="M7.99998 13.3333C8.36817 13.3333 8.66665 13.0349 8.66665 12.6667C8.66665 12.2985 8.36817 12 7.99998 12C7.63179 12 7.33331 12.2985 7.33331 12.6667C7.33331 13.0349 7.63179 13.3333 7.99998 13.3333Z" fill="#FFC63C"/>
<path fill-rule="evenodd" clip-rule="evenodd" d="M9.33335 14C9.70154 14 10 13.7015 10 13.3333C10 12.9651 9.70154 12.6666 9.33335 12.6666C8.96516 12.6666 8.66669 12.9651 8.66669 13.3333C8.66669 13.7015 8.96516 14 9.33335 14Z" fill="#FFC63C"/>
<path fill-rule="evenodd" clip-rule="evenodd" d="M8.66667 12.6667C9.03486 12.6667 9.33333 12.3682 9.33333 12C9.33333 11.6319 9.03486 11.3334 8.66667 11.3334C8.29848 11.3334 8 11.6319 8 12C8 12.3682 8.29848 12.6667 8.66667 12.6667Z" fill="#FFC63C"/>
<path fill-rule="evenodd" clip-rule="evenodd" d="M7.99998 14.6667C8.36817 14.6667 8.66665 14.3682 8.66665 14C8.66665 13.6319 8.36817 13.3334 7.99998 13.3334C7.63179 13.3334 7.33331 13.6319 7.33331 14C7.33331 14.3682 7.63179 14.6667 7.99998 14.6667Z" fill="#FFC63C"/>
<path fill-rule="evenodd" clip-rule="evenodd" d="M9.33335 15.3333C9.70154 15.3333 10 15.0349 10 14.6667C10 14.2985 9.70154 14 9.33335 14C8.96516 14 8.66669 14.2985 8.66669 14.6667C8.66669 15.0349 8.96516 15.3333 9.33335 15.3333Z" fill="#FFC63C"/>
<path fill-rule="evenodd" clip-rule="evenodd" d="M7.99998 16C8.36817 16 8.66665 15.7015 8.66665 15.3333C8.66665 14.9651 8.36817 14.6666 7.99998 14.6666C7.63179 14.6666 7.33331 14.9651 7.33331 15.3333C7.33331 15.7015 7.63179 16 7.99998 16Z" fill="#FFC63C"/>
<path fill-rule="evenodd" clip-rule="evenodd" d="M9.33335 16.6667C9.70154 16.6667 10 16.3682 10 16C10 15.6319 9.70154 15.3334 9.33335 15.3334C8.96516 15.3334 8.66669 15.6319 8.66669 16C8.66669 16.3682 8.96516 16.6667 9.33335 16.6667Z" fill="#FFC63C"/>
</g>
</svg>
