<svg width="28" height="28" viewBox="0 0 28 28" fill="none" xmlns="http://www.w3.org/2000/svg">
<rect x="0.25" y="4.25" width="27.5" height="19.5" rx="2.75" fill="white" stroke="#D6D8DD" stroke-width="0.5"/>
<mask id="mask0_17_4761" style="mask-type:alpha" maskUnits="userSpaceOnUse" x="0" y="4" width="28" height="20">
<rect x="0.25" y="4.25" width="27.5" height="19.5" rx="2.75" fill="white" stroke="white" stroke-width="0.5"/>
</mask>
<g mask="url(#mask0_17_4761)">
<path fill-rule="evenodd" clip-rule="evenodd" d="M0 9.33333H28V4H0V9.33333Z" fill="#D82332"/>
<path fill-rule="evenodd" clip-rule="evenodd" d="M0 24H28V18.6667H0V24Z" fill="#D82332"/>
<path fill-rule="evenodd" clip-rule="evenodd" d="M13.0675 14.7527L12.7831 15.018C13.0402 15.0901 13.3969 15.0061 13.539 14.7527H13.0675Z" fill="#064A89"/>
<path fill-rule="evenodd" clip-rule="evenodd" d="M10.7725 14.9334C10.965 15.1259 11.2838 15.1034 11.4763 14.9816C11.6689 14.8596 11.8104 14.8519 11.9304 14.8647C11.9431 14.9733 11.9714 15.1125 12.0201 15.2502H10.8782C10.8498 15.1796 10.7945 15.0152 10.7725 14.9334Z" fill="#064A89"/>
<path fill-rule="evenodd" clip-rule="evenodd" d="M10.9841 15.4478C11.2083 15.3419 11.4374 15.4258 11.5365 15.5022C11.7196 15.6434 12.022 15.6051 12.1704 15.525C12.227 15.6174 12.2958 15.7082 12.3787 15.7776H11.1569C11.1073 15.6975 11 15.5006 10.9841 15.4478Z" fill="#064A89"/>
<path fill-rule="evenodd" clip-rule="evenodd" d="M16.2981 16.3249C16.3517 16.2704 16.4243 16.1806 16.4717 16.1165C16.3928 16.1068 16.3011 16.0497 16.2035 16.001C16.0235 15.9111 15.8515 15.9111 15.6984 16.017C15.4712 16.1741 15.1871 16.2126 14.9661 16.0555C14.7237 15.8831 14.4991 15.9208 14.3096 16.0299C14.1202 16.1389 14.0003 16.1453 13.8867 16.1453C13.773 16.1453 13.6531 16.1389 13.4637 16.0299C13.2743 15.9208 13.0496 15.8831 12.8072 16.0555C12.5862 16.2126 12.3021 16.1741 12.0749 16.017C11.9218 15.9111 11.7498 15.9111 11.5698 16.001C11.4722 16.0497 11.3805 16.1068 11.3016 16.1165C11.349 16.1806 11.4216 16.2704 11.4752 16.3249H16.2981Z" fill="#064A89"/>
<path fill-rule="evenodd" clip-rule="evenodd" d="M15.7067 16.8612C15.7571 16.8291 15.8961 16.7233 15.9655 16.6688C15.8897 16.6848 15.717 16.6286 15.6278 16.5821C15.3689 16.4474 15.1985 16.4603 15.006 16.5629C14.8134 16.6656 14.542 16.7201 14.3432 16.6111C14.1443 16.502 14.0022 16.4731 13.8981 16.4731C13.794 16.4731 13.6519 16.502 13.453 16.6111C13.2542 16.7201 12.9828 16.6656 12.7902 16.5629C12.5977 16.4603 12.4273 16.4474 12.1684 16.5821C12.0792 16.6286 11.9065 16.6848 11.8307 16.6688C11.9001 16.7233 12.039 16.8291 12.0895 16.8612H15.7067Z" fill="#064A89"/>
<path fill-rule="evenodd" clip-rule="evenodd" d="M14.5684 15.795C14.5147 15.7662 14.452 15.699 14.3947 15.6128C14.3032 15.4748 14.158 15.3978 13.9402 15.3978C13.7224 15.3978 13.5773 15.4748 13.4857 15.6128C13.4285 15.699 13.3657 15.7662 13.3122 15.795H14.5684Z" fill="#064A89"/>
<path fill-rule="evenodd" clip-rule="evenodd" d="M14.2104 15.2999C14.1883 15.2614 14.141 15.1394 14.1252 15.0753C14.0746 15.0914 13.9768 15.0977 13.92 15.0977C13.8632 15.0977 13.7654 15.0914 13.7148 15.0753C13.6991 15.1394 13.6518 15.2614 13.6296 15.2999H14.2104Z" fill="#064A89"/>
<path fill-rule="evenodd" clip-rule="evenodd" d="M14.736 14.7527L15.0204 15.018C14.7633 15.0901 14.4066 15.0061 14.2646 14.7527H14.736Z" fill="#064A89"/>
<path fill-rule="evenodd" clip-rule="evenodd" d="M17.0995 14.9334C16.907 15.1259 16.5881 15.1034 16.3957 14.9816C16.2031 14.8596 16.0616 14.8519 15.9416 14.8647C15.9288 14.9733 15.9005 15.1125 15.8519 15.2502H16.9938C17.0221 15.1796 17.0774 15.0152 17.0995 14.9334Z" fill="#064A89"/>
<path fill-rule="evenodd" clip-rule="evenodd" d="M16.929 15.4478C16.7049 15.3419 16.4758 15.4258 16.3766 15.5022C16.1935 15.6434 15.8911 15.6051 15.7428 15.525C15.6861 15.6174 15.6174 15.7082 15.5344 15.7776H16.7562C16.8058 15.6975 16.9132 15.5006 16.929 15.4478Z" fill="#064A89"/>
<path fill-rule="evenodd" clip-rule="evenodd" d="M15.1588 17.0716C14.7761 17.2303 14.3572 17.3179 13.9183 17.3179C13.4789 17.3179 13.0603 17.2304 12.6772 17.0713C12.7593 17.0618 12.8679 17.0216 12.9556 16.972C13.0977 16.8918 13.3564 16.8757 13.4796 16.956C13.6026 17.0362 13.751 17.1163 13.9183 17.1163C14.0856 17.1163 14.234 17.0362 14.357 16.956C14.4801 16.8757 14.7389 16.8918 14.8811 16.972C14.9686 17.0216 15.0767 17.062 15.1588 17.0716Z" fill="#064A89"/>
<path fill-rule="evenodd" clip-rule="evenodd" d="M14.6252 10.7269C13.934 10.5826 13.3122 10.6659 13.3122 11.3267C13.3122 11.9745 13.3122 12.9367 13.3122 13.1356C13.3122 13.3344 13.3161 13.3596 13.5489 13.4147C14.0539 13.5341 14.1012 13.5462 14.6504 13.6743V11.8142C14.2212 11.7661 14.057 11.5213 14.057 11.2369C14.057 10.9611 14.2464 10.7814 14.6252 10.7269Z" fill="#514537"/>
<path fill-rule="evenodd" clip-rule="evenodd" d="M12.8539 15.8285C12.4688 15.8285 12.0648 15.4885 12.0648 14.8406C12.0648 14.1927 12.0648 13.3781 12.0648 13.2305C12.0648 13.0846 12.081 13.0641 12.0474 13.0301C12.0277 13.0101 12.0695 12.9804 12.0979 12.9515C12.1405 12.9082 12.1697 12.8721 12.1122 12.8135C12.0545 12.755 12.0791 12.7398 12.1154 12.703C12.1517 12.666 12.1658 12.6292 12.1311 12.5939C12.0964 12.5586 12.0885 12.5474 12.1264 12.5089C12.1642 12.4704 12.1485 12.4544 12.1169 12.4222C12.0853 12.3902 12.0704 12.367 12.1106 12.3261C12.1501 12.286 12.1531 12.2796 12.199 12.2796C12.2448 12.2796 12.3441 12.2796 12.3884 12.2796C12.4326 12.2796 12.4333 12.2932 12.3962 12.331C12.3481 12.3798 12.3339 12.399 12.3884 12.4544C12.4428 12.5097 12.4404 12.5282 12.4057 12.5634C12.3536 12.6163 12.3307 12.6525 12.3836 12.7062C12.4365 12.7599 12.4412 12.784 12.401 12.8248C12.3608 12.8657 12.3567 12.9018 12.401 12.9467C12.4349 12.9812 12.4373 13.0013 12.4373 13.0621C12.4373 13.4294 12.4373 14.4301 12.4373 14.7059C12.4373 14.9817 12.6329 15.1485 13.0054 15.1485C13.3779 15.1485 13.5041 14.9945 13.6114 14.8919C13.542 15.3858 13.34 15.8285 12.8539 15.8285Z" fill="#514537"/>
<path fill-rule="evenodd" clip-rule="evenodd" d="M13.9407 14.2549C13.9927 14.2708 14.0432 14.3478 14.0432 14.4313H14.1459C14.1459 14.3607 14.1158 14.2517 14.0614 14.1843C14.0606 14.1666 14.0582 14.1515 14.0543 14.1362C14.0922 14.088 14.1474 14.0111 14.1459 13.9373C14.1448 13.8907 14.0906 13.8925 14.0843 13.9293C14.0791 13.9597 14.0591 14.0063 14.0212 14.0223C14.0212 13.963 13.988 13.8925 13.9407 13.8925C13.8934 13.8925 13.8601 13.963 13.8601 14.0223C13.8223 14.0063 13.8023 13.9597 13.7971 13.9293C13.7907 13.8925 13.7364 13.8907 13.7355 13.9373C13.7339 14.0111 13.7891 14.088 13.827 14.1362C13.8231 14.1515 13.8208 14.1666 13.8199 14.1843C13.7655 14.2517 13.7355 14.3607 13.7355 14.4313H13.8381C13.8381 14.3478 13.8886 14.2708 13.9407 14.2549Z" fill="#514537"/>
<path fill-rule="evenodd" clip-rule="evenodd" d="M13.4116 14.2549C13.4636 14.2708 13.5142 14.3478 13.5142 14.4313H13.6168C13.6168 14.3607 13.5868 14.2517 13.5323 14.1843C13.5316 14.1666 13.5291 14.1515 13.5252 14.1362C13.5631 14.088 13.6184 14.0111 13.6168 13.9373C13.6158 13.8907 13.5615 13.8925 13.5552 13.9293C13.55 13.9597 13.5299 14.0063 13.4921 14.0223C13.4921 13.963 13.459 13.8925 13.4116 13.8925C13.3643 13.8925 13.3312 13.963 13.3312 14.0223C13.2933 14.0063 13.2732 13.9597 13.268 13.9293C13.2616 13.8925 13.2075 13.8907 13.2064 13.9373C13.2048 14.0111 13.26 14.088 13.2979 14.1362C13.294 14.1515 13.2917 14.1666 13.2908 14.1843C13.2364 14.2517 13.2064 14.3607 13.2064 14.4313H13.309C13.309 14.3478 13.3595 14.2708 13.4116 14.2549Z" fill="#514537"/>
<path fill-rule="evenodd" clip-rule="evenodd" d="M12.8825 14.2549C12.9345 14.2708 12.985 14.3478 12.985 14.4313H13.0876C13.0876 14.3607 13.0576 14.2517 13.0032 14.1843C13.0024 14.1666 13 14.1515 12.9961 14.1362C13.034 14.088 13.0892 14.0111 13.0876 13.9373C13.0866 13.8907 13.0324 13.8925 13.0261 13.9293C13.0209 13.9597 13.0008 14.0063 12.9629 14.0223C12.9629 13.963 12.9298 13.8925 12.8825 13.8925C12.8351 13.8925 12.8019 13.963 12.8019 14.0223C12.7641 14.0063 12.7441 13.9597 12.7389 13.9293C12.7325 13.8925 12.6782 13.8907 12.6773 13.9373C12.6757 14.0111 12.7309 14.088 12.7688 14.1362C12.7649 14.1515 12.7625 14.1666 12.7617 14.1843C12.7072 14.2517 12.6773 14.3607 12.6773 14.4313H12.7798C12.7798 14.3478 12.8304 14.2708 12.8825 14.2549Z" fill="#514537"/>
<path fill-rule="evenodd" clip-rule="evenodd" d="M14.4698 14.2549C14.4177 14.2708 14.3672 14.3478 14.3672 14.4313H14.2646C14.2646 14.3607 14.2945 14.2517 14.349 14.1843C14.3498 14.1666 14.3522 14.1515 14.3562 14.1362C14.3182 14.088 14.263 14.0111 14.2646 13.9373C14.2656 13.8907 14.3198 13.8925 14.3262 13.9293C14.3314 13.9597 14.3515 14.0063 14.3892 14.0223C14.3892 13.963 14.4225 13.8925 14.4698 13.8925C14.5172 13.8925 14.5503 13.963 14.5503 14.0223C14.5881 14.0063 14.6082 13.9597 14.6134 13.9293C14.6197 13.8925 14.6739 13.8907 14.675 13.9373C14.6765 14.0111 14.6213 14.088 14.5834 14.1362C14.5873 14.1515 14.5898 14.1666 14.5905 14.1843C14.645 14.2517 14.675 14.3607 14.675 14.4313H14.5723C14.5723 14.3478 14.5218 14.2708 14.4698 14.2549Z" fill="#514537"/>
<path fill-rule="evenodd" clip-rule="evenodd" d="M14.9989 14.2549C14.9468 14.2708 14.8963 14.3478 14.8963 14.4313H14.7937C14.7937 14.3607 14.8237 14.2517 14.8781 14.1843C14.879 14.1666 14.8813 14.1515 14.8852 14.1362C14.8473 14.088 14.7921 14.0111 14.7937 13.9373C14.7946 13.8907 14.8489 13.8925 14.8553 13.9293C14.8605 13.9597 14.8805 14.0063 14.9183 14.0223C14.9183 13.963 14.9516 13.8925 14.9989 13.8925C15.0463 13.8925 15.0794 13.963 15.0794 14.0223C15.1173 14.0063 15.1373 13.9597 15.1425 13.9293C15.1488 13.8925 15.203 13.8907 15.2041 13.9373C15.2056 14.0111 15.1504 14.088 15.1125 14.1362C15.1164 14.1515 15.1188 14.1666 15.1196 14.1843C15.1741 14.2517 15.2041 14.3607 15.2041 14.4313H15.1015C15.1015 14.3478 15.0509 14.2708 14.9989 14.2549Z" fill="#514537"/>
<path fill-rule="evenodd" clip-rule="evenodd" d="M12.5714 14.5376H15.349V14.671H12.5714V14.5376Z" fill="#514537"/>
<path fill-rule="evenodd" clip-rule="evenodd" d="M15.0221 15.8285C15.4072 15.8285 15.8112 15.4885 15.8112 14.8406C15.8112 14.1927 15.8112 13.3781 15.8112 13.2305C15.8112 13.0846 15.795 13.0641 15.8286 13.0301C15.8483 13.0101 15.8065 12.9804 15.7781 12.9515C15.7355 12.9082 15.7062 12.8721 15.7638 12.8135C15.8215 12.755 15.7969 12.7398 15.7607 12.703C15.7243 12.666 15.7102 12.6292 15.7449 12.5939C15.7796 12.5586 15.7875 12.5474 15.7496 12.5089C15.7118 12.4704 15.7275 12.4544 15.7591 12.4222C15.7907 12.3902 15.8056 12.367 15.7654 12.3261C15.7259 12.286 15.7229 12.2796 15.677 12.2796C15.6312 12.2796 15.5319 12.2796 15.4876 12.2796C15.4435 12.2796 15.4427 12.2932 15.4798 12.331C15.5279 12.3798 15.5421 12.399 15.4876 12.4544C15.4332 12.5097 15.4356 12.5282 15.4703 12.5634C15.5224 12.6163 15.5452 12.6525 15.4924 12.7062C15.4395 12.7599 15.4347 12.784 15.475 12.8248C15.5152 12.8657 15.5193 12.9018 15.475 12.9467C15.4411 12.9812 15.4387 13.0013 15.4387 13.0621C15.4387 13.4294 15.4387 14.4301 15.4387 14.7059C15.4387 14.9817 15.243 15.1485 14.8706 15.1485C14.4981 15.1485 14.372 14.9945 14.2646 14.8919C14.334 15.3858 14.536 15.8285 15.0221 15.8285Z" fill="#514537"/>
<path fill-rule="evenodd" clip-rule="evenodd" d="M12.5714 13.6743C12.5714 13.6743 12.5715 13.5797 12.5715 13.4624L13.1268 13.6744L12.5714 13.6743Z" fill="#EEA339"/>
<path fill-rule="evenodd" clip-rule="evenodd" d="M11.9091 13.7728L10.6667 13.6026C10.7028 13.332 10.771 13.0683 10.8692 12.8172L11.9091 13.2367V13.7728Z" fill="#EEA339"/>
<path fill-rule="evenodd" clip-rule="evenodd" d="M14.4762 11.6959L14.697 10.7742C14.9555 10.8378 15.2067 10.9338 15.4448 11.0602L14.7325 12.4456L14.735 11.75C14.6528 11.7504 14.5267 11.7376 14.4762 11.6959Z" fill="#EEA339"/>
<path fill-rule="evenodd" clip-rule="evenodd" d="M11.9384 13.863L10.6728 13.7849C10.6565 14.0546 10.6727 14.3268 10.7214 14.5953C10.7214 14.5953 11.9384 14.603 11.9384 14.5953V13.863Z" fill="#EEA339"/>
<path fill-rule="evenodd" clip-rule="evenodd" d="M11.9258 12.9956C11.8849 12.9411 11.9102 12.912 11.9543 12.8831C11.9985 12.8543 11.9922 12.8318 11.9702 12.7902C11.948 12.7485 11.9259 12.7035 11.967 12.6587C12.008 12.6138 11.9922 12.5945 11.9606 12.5625C11.9291 12.5304 11.9259 12.4952 11.9543 12.4695C11.9828 12.4438 11.9764 12.4245 11.9576 12.3989C11.9385 12.3732 11.9014 12.3212 11.9346 12.2875L11.4183 11.8495C11.2477 12.0568 11.1017 12.2856 10.9841 12.531L11.9258 12.9956Z" fill="#EEA339"/>
<path fill-rule="evenodd" clip-rule="evenodd" d="M13.1628 13.2344L12.5474 12.628C12.6342 12.5399 12.6429 12.5255 12.5814 12.4629C12.5143 12.3947 12.5119 12.3876 12.6484 12.2488C12.6949 12.2016 12.6689 12.1686 12.6026 12.1686C12.5364 12.1686 12.2317 12.1686 12.197 12.1686C12.1623 12.1686 12.135 12.1704 12.1096 12.1962L11.619 11.7136C11.8062 11.5178 12.0153 11.347 12.2412 11.2043L13.1628 12.7102V13.2344Z" fill="#EEA339"/>
<path fill-rule="evenodd" clip-rule="evenodd" d="M12.5228 13.3267C12.5228 13.176 12.5229 13.0269 12.5229 13.0057C12.5229 12.9607 12.5197 12.9431 12.485 12.9078C12.4503 12.8726 12.4676 12.8557 12.4945 12.8172L13.0782 13.3113V13.6014L12.5228 13.3267Z" fill="#EEA339"/>
<path fill-rule="evenodd" clip-rule="evenodd" d="M13.0695 12.4463C13.0695 12.157 13.0695 11.8893 13.0695 11.7352C13.0695 11.2733 13.095 11.0424 13.1613 10.9959L13.1083 10.7742C12.8491 10.845 12.5979 10.941 12.3598 11.0674L13.0695 12.4463Z" fill="#EEA339"/>
<path fill-rule="evenodd" clip-rule="evenodd" d="M15.349 13.6743C15.349 13.6743 15.3489 13.5797 15.3489 13.4624L14.7937 13.6744L15.349 13.6743Z" fill="#EEA339"/>
<path fill-rule="evenodd" clip-rule="evenodd" d="M15.9577 13.7728L17.2001 13.6026C17.164 13.332 17.0958 13.0683 16.9976 12.8172L15.9577 13.2367V13.7728Z" fill="#EEA339"/>
<path fill-rule="evenodd" clip-rule="evenodd" d="M15.9577 13.863L17.2232 13.7849C17.2395 14.0546 17.2234 14.3268 17.1746 14.5953C17.1746 14.5953 15.9577 14.603 15.9577 14.5953V13.863Z" fill="#EEA339"/>
<path fill-rule="evenodd" clip-rule="evenodd" d="M15.9177 12.9956C15.9587 12.9411 15.9333 12.912 15.8892 12.8831C15.845 12.8543 15.8513 12.8318 15.8733 12.7902C15.8955 12.7485 15.9176 12.7035 15.8765 12.6587C15.8355 12.6138 15.8513 12.5945 15.8829 12.5625C15.9144 12.5304 15.9176 12.4952 15.8892 12.4695C15.8608 12.4438 15.8671 12.4245 15.8859 12.3989C15.905 12.3732 15.942 12.3212 15.9089 12.2875L16.4252 11.8495C16.5958 12.0568 16.7417 12.2856 16.8593 12.531L15.9177 12.9956Z" fill="#EEA339"/>
<path fill-rule="evenodd" clip-rule="evenodd" d="M14.7937 13.2344L15.409 12.628C15.3221 12.5399 15.3134 12.5255 15.375 12.4629C15.4421 12.3947 15.4446 12.3876 15.308 12.2488C15.2614 12.2016 15.2875 12.1686 15.3538 12.1686C15.42 12.1686 15.7247 12.1686 15.7594 12.1686C15.7941 12.1686 15.8214 12.1704 15.8468 12.1962L16.3374 11.7136C16.1502 11.5178 15.9411 11.347 15.7152 11.2043L14.7937 12.7102V13.2344Z" fill="#EEA339"/>
<path fill-rule="evenodd" clip-rule="evenodd" d="M15.3491 13.3267C15.3491 13.176 15.349 13.0269 15.349 13.0057C15.349 12.9607 15.3522 12.9431 15.3869 12.9078C15.4216 12.8726 15.4042 12.8557 15.3774 12.8172L14.7937 13.3113V13.6014L15.3491 13.3267Z" fill="#EEA339"/>
<path fill-rule="evenodd" clip-rule="evenodd" d="M12.1481 13.0322C12.1703 13.0547 12.1798 13.0771 12.1798 13.1316C12.1798 13.1861 12.1798 14.3792 12.1798 14.8475C12.1798 15.4184 12.5206 15.7359 12.871 15.7359C13.1929 15.7359 13.4044 15.4376 13.5149 15.0913C13.3729 15.2035 13.1645 15.2388 12.9656 15.2388C12.7352 15.2388 12.3629 15.0817 12.3629 14.7417C12.3629 14.4274 12.3629 13.2631 12.3629 13.0771C12.3629 13.0322 12.3186 13.0322 12.1481 13.0322Z" fill="#D82332"/>
<path fill-rule="evenodd" clip-rule="evenodd" d="M14.1611 10.784C13.7209 10.7388 13.3127 10.8318 13.3127 11.4419C13.3127 12.0834 13.3127 12.8659 13.3127 13.0628C13.3127 13.3335 13.2917 13.3013 13.5175 13.3582C13.927 13.4615 13.9734 13.4746 14.4702 13.5898V11.9406C14.046 11.8934 13.8622 11.6111 13.8622 11.2985C13.8622 11.0498 13.9704 10.8158 14.1611 10.784Z" fill="#D82332"/>
<path fill-rule="evenodd" clip-rule="evenodd" d="M15.7371 13.0322C15.715 13.0547 15.7055 13.0771 15.7055 13.1316C15.7055 13.1861 15.7055 14.3792 15.7055 14.8475C15.7055 15.4184 15.3647 15.7359 15.0143 15.7359C14.6924 15.7359 14.4809 15.4376 14.3704 15.0913C14.5125 15.2035 14.7207 15.2388 14.9197 15.2388C15.1501 15.2388 15.5224 15.0817 15.5224 14.7417C15.5224 14.4274 15.5224 13.2631 15.5224 13.0771C15.5224 13.0322 15.5667 13.0322 15.7371 13.0322Z" fill="#D82332"/>
<mask id="mask1_17_4761" style="mask-type:alpha" maskUnits="userSpaceOnUse" x="10" y="10" width="8" height="8">
<path fill-rule="evenodd" clip-rule="evenodd" d="M14 17.3333C15.841 17.3333 17.3333 15.8409 17.3333 14C17.3333 12.159 15.841 10.6667 14 10.6667C12.1591 10.6667 10.6667 12.159 10.6667 14C10.6667 15.8409 12.1591 17.3333 14 17.3333Z" fill="white"/>
</mask>
<g mask="url(#mask1_17_4761)">
<path fill-rule="evenodd" clip-rule="evenodd" d="M14 22.6667C15.841 22.6667 17.3333 21.1743 17.3333 19.3333C17.3333 17.4924 15.841 16 14 16C12.1591 16 10.6667 17.4924 10.6667 19.3333C10.6667 21.1743 12.1591 22.6667 14 22.6667Z" fill="#064A89"/>
</g>
</g>
</svg>
