<svg width="28" height="28" viewBox="0 0 28 28" fill="none" xmlns="http://www.w3.org/2000/svg">
<rect x="0.25" y="4.25" width="27.5" height="19.5" rx="2.75" fill="white" stroke="#F5F5F5" stroke-width="0.5"/>
<path fill-rule="evenodd" clip-rule="evenodd" d="M21 6.68157V20H7V17.8919C7.07557 17.8451 7.15237 17.7985 7.2304 17.7524C8.17706 17.1997 9.34728 16.8994 11.2304 16.6338L12.1985 16.4972L12.5437 15.5826C13.753 12.3782 14.8924 10.4985 16.3878 9.24603C17.8406 8.0293 19.569 7.20927 21 6.68157Z" fill="#00A650"/>
<path fill-rule="evenodd" clip-rule="evenodd" d="M14.2689 6.71613C12.3172 8.35082 10.9932 10.5789 9.80845 13.5142C8.80768 13.6839 7.87554 13.8992 7 14.2268V5.99999H15.3392C14.9985 6.20485 14.6585 6.42921 14.3217 6.67489L14.2946 6.69463L14.2689 6.71613Z" fill="#127BCA"/>
<path fill-rule="evenodd" clip-rule="evenodd" d="M12.6355 10.2722C11.8251 9.48482 10.7191 9.00001 9.5 9.00001C7.01472 9.00001 5 11.0147 5 13.5C5 14.3957 5.2617 15.2303 5.7128 15.9315C5.82674 15.8743 5.94505 15.8197 6.0679 15.7679C7.64969 15.1011 9.10256 15.2117 11.3516 15.4412C11.2097 13.6012 11.7752 11.7852 12.6355 10.2722Z" fill="#FFF200"/>
<path fill-rule="evenodd" clip-rule="evenodd" d="M22.8723 4.87405C22.9894 4.87186 23.0036 5.02628 22.8899 5.05438C21.4559 5.40882 18.2469 6.38456 15.7457 8.47939C14.053 9.89708 12.8383 11.9697 11.6081 15.2295L11.4721 15.5898L11.0908 15.6436C9.18158 15.9129 7.84764 16.2335 6.72381 16.8902C4.63379 18.1253 3.35918 19.6224 2.87915 20.2523C2.81709 20.3337 2.69438 20.2851 2.71386 20.1846C2.87664 19.3448 3.40522 16.8902 6.06788 15.7678C7.64967 15.1011 9.10254 15.2116 11.3516 15.4411C11.1025 12.2116 13.0327 9.05596 14.911 7.48277C17.8105 5.05438 21.3862 4.90182 22.8723 4.87405Z" fill="#2E3192"/>
<rect x="6.95929" y="20.9455" width="14.0406" height="1.70928" fill="#FFF200"/>
</svg>
