<svg width="28" height="28" viewBox="0 0 28 28" fill="none" xmlns="http://www.w3.org/2000/svg">
<rect x="0.25" y="4.25" width="27.5" height="19.5" rx="2.75" fill="white" stroke="#D6D8DD" stroke-width="0.5"/>
<mask id="mask0_17_5595" style="mask-type:alpha" maskUnits="userSpaceOnUse" x="0" y="4" width="28" height="20">
<rect x="0.25" y="4.25" width="27.5" height="19.5" rx="2.75" fill="white" stroke="white" stroke-width="0.5"/>
</mask>
<g mask="url(#mask0_17_5595)">
<rect x="18.6667" y="4" width="9.33333" height="20" fill="#63AEE3"/>
<path fill-rule="evenodd" clip-rule="evenodd" d="M0 24H9.33333V4H0V24Z" fill="#63AEE3"/>
<path d="M12 13.3334C12 12.9652 11.7015 12.6667 11.3333 12.6667C10.9652 12.6667 10.6667 12.9652 10.6667 13.3334H12ZM12.329 16.2181C12.6475 16.4029 13.0555 16.2946 13.2402 15.9761C13.425 15.6576 13.3167 15.2497 12.9982 15.0649L12.329 16.2181ZM15.0757 15.0199C14.7655 15.2183 14.6749 15.6305 14.8732 15.9407C15.0716 16.2509 15.4839 16.3415 15.7941 16.1431L15.0757 15.0199ZM17.3333 13.3334C17.3333 12.9652 17.0349 12.6667 16.6667 12.6667C16.2985 12.6667 16 12.9652 16 13.3334H17.3333ZM10.6667 13.3334C10.6667 14.5664 11.3366 15.6423 12.329 16.2181L12.9982 15.0649C12.3999 14.7177 12 14.0719 12 13.3334H10.6667ZM15.7941 16.1431C16.7183 15.552 17.3333 14.5147 17.3333 13.3334H16C16 14.0411 15.6329 14.6635 15.0757 15.0199L15.7941 16.1431Z" fill="#628A40"/>
<path fill-rule="evenodd" clip-rule="evenodd" d="M14 14.6667C14.7364 14.6667 15.3333 14.0697 15.3333 13.3333C15.3333 12.597 14.7364 12 14 12C13.2636 12 12.6667 12.597 12.6667 13.3333C12.6667 14.0697 13.2636 14.6667 14 14.6667Z" fill="#DCC26D"/>
</g>
</svg>
