<svg width="28" height="28" viewBox="0 0 28 28" fill="none" xmlns="http://www.w3.org/2000/svg">
<rect y="4" width="28" height="20" rx="3" fill="white"/>
<mask id="mask0_17_5475" style="mask-type:alpha" maskUnits="userSpaceOnUse" x="0" y="4" width="28" height="20">
<rect y="4" width="28" height="20" rx="3" fill="white"/>
</mask>
<g mask="url(#mask0_17_5475)">
<path fill-rule="evenodd" clip-rule="evenodd" d="M0 13.3333H28V4H0V13.3333Z" fill="#112EBC"/>
<path fill-rule="evenodd" clip-rule="evenodd" d="M0 24H28V13.3333H0V24Z" fill="#E3264A"/>
<rect x="9.33331" y="10.6667" width="9.33333" height="8" rx="0.666667" fill="url(#paint0_linear_17_5475)"/>
<mask id="mask1_17_5475" style="mask-type:alpha" maskUnits="userSpaceOnUse" x="9" y="10" width="10" height="9">
<rect x="9.33331" y="10.6667" width="9.33333" height="8" rx="0.666667" fill="white"/>
</mask>
<g mask="url(#mask1_17_5475)">
<path d="M9.66665 18.3333V17.5393L11.586 16.5797C11.91 16.4177 12.2673 16.3333 12.6295 16.3333H15.3705C15.7327 16.3333 16.09 16.4177 16.414 16.5797L18.3333 17.5393V18.3333H9.66665Z" fill="#AABCAE" stroke="#366C14" stroke-width="0.666667"/>
<path fill-rule="evenodd" clip-rule="evenodd" d="M14 16C15.1046 16 16 15.1046 16 14C16 12.8954 15.1046 12 14 12C12.8954 12 12 12.8954 12 14C12 15.1046 12.8954 16 14 16Z" fill="#D4B872"/>
<path d="M11.5415 15.1268L13.3753 16.5938C13.7405 16.886 14.2594 16.886 14.6247 16.5938L16.4584 15.1268C16.6766 14.9522 17 15.1076 17 15.3871V16.6667C17 16.8508 16.8507 17 16.6666 17H11.3333C11.1492 17 11 16.8508 11 16.6667V15.3871C11 15.1076 11.3233 14.9522 11.5415 15.1268Z" fill="#C28321" stroke="#0D3488" stroke-width="0.666667"/>
<path fill-rule="evenodd" clip-rule="evenodd" d="M12.569 12.569C12.359 12.359 12.5078 12 12.8047 12H15.1953C15.4922 12 15.641 12.359 15.431 12.569L14.2357 13.7643C14.1055 13.8945 13.8945 13.8945 13.7643 13.7643L12.569 12.569Z" fill="#216C30"/>
</g>
</g>
<defs>
<linearGradient id="paint0_linear_17_5475" x1="9.33331" y1="10.6667" x2="9.33331" y2="18.6667" gradientUnits="userSpaceOnUse">
<stop stop-color="white"/>
<stop offset="1" stop-color="#F0F0F0"/>
</linearGradient>
</defs>
</svg>
