<svg width="28" height="28" viewBox="0 0 28 28" fill="none" xmlns="http://www.w3.org/2000/svg">
<path d="M0.25 20.9999C0.25 22.5187 1.48122 23.7499 3 23.7499H25C26.5188 23.7499 27.75 22.5187 27.75 20.9999V7.00011C27.75 5.48133 26.5188 4.25011 25 4.25011H3C1.48122 4.25011 0.25 5.48133 0.25 7.00011V20.9999Z" fill="white" stroke="#F5F5F5" stroke-width="0.5"/>
<mask id="mask0_107628_1066" style="mask-type:alpha" maskUnits="userSpaceOnUse" x="0" y="4" width="28" height="20">
<path d="M0 20.9999C0 22.6568 1.34315 23.9999 3 23.9999H25C26.6569 23.9999 28 22.6568 28 20.9999V7.00012C28 5.34326 26.6569 4.00012 25 4.00012H3C1.34315 4.00012 0 5.34326 0 7.00012V20.9999Z" fill="white"/>
</mask>
<g mask="url(#mask0_107628_1066)">
<path d="M0 23.9999H14V4.00011H0V23.9999Z" fill="#FBE04B"/>
<path fill-rule="evenodd" clip-rule="evenodd" d="M18.449 17.375C19.1059 18.0739 19.9797 18.5 20.9388 18.5C21.8979 18.5 22.7717 18.0739 23.4286 17.375H22.1371C21.7632 17.5832 21.3541 17.6964 20.9388 17.6964C20.5236 17.6964 20.1145 17.5832 19.7405 17.375H18.449Z" fill="#BF2D1B"/>
<path fill-rule="evenodd" clip-rule="evenodd" d="M19.0102 11.8494L19.2931 11.6019L19.5589 11.8677L20.3625 12.6712L22.0962 14.405C22.3513 14.25 22.6508 14.1607 22.9712 14.1607C23.9032 14.1607 24.6587 14.9162 24.6587 15.8482C24.6587 16.7802 23.9032 17.5357 22.9712 17.5357C22.0392 17.5357 21.2837 16.7802 21.2837 15.8482C21.2837 15.5278 21.373 15.2283 21.528 14.9732L20.06 13.5052L19.7001 13.8202L19.1709 13.2155L19.4906 12.9358L19.2565 12.7017L18.8965 13.0166L18.3673 12.4119L19.0102 11.8494ZM22.0873 15.8482C22.0873 16.3364 22.483 16.7321 22.9712 16.7321C23.4594 16.7321 23.8551 16.3364 23.8551 15.8482C23.8551 15.36 23.4594 14.9643 22.9712 14.9643C22.483 14.9643 22.0873 15.36 22.0873 15.8482Z" fill="#CCCCCC"/>
<path fill-rule="evenodd" clip-rule="evenodd" d="M23.0516 11.8494L22.7687 11.6019L22.5029 11.8677L21.6993 12.6712L19.9655 14.405C19.7104 14.25 19.4109 14.1607 19.0905 14.1607C18.1585 14.1607 17.403 14.9162 17.403 15.8482C17.403 16.7802 18.1585 17.5357 19.0905 17.5357C20.0225 17.5357 20.778 16.7802 20.778 15.8482C20.778 15.5279 20.6887 15.2284 20.5337 14.9733L22.0017 13.5052L22.3617 13.8202L22.8909 13.2155L22.5712 12.9358L22.8053 12.7017L23.1653 13.0166L23.6944 12.4119L23.0516 11.8494ZM19.9744 15.8482C19.9744 16.3364 19.5787 16.7321 19.0905 16.7321C18.6023 16.7321 18.2066 16.3364 18.2066 15.8482C18.2066 15.36 18.6023 14.9643 19.0905 14.9643C19.5787 14.9643 19.9744 15.36 19.9744 15.8482Z" fill="#FBE04B"/>
<ellipse cx="21.0994" cy="11.0268" rx="0.964286" ry="1.52679" fill="#C4C4C4"/>
<mask id="mask1_107628_1066" style="mask-type:alpha" maskUnits="userSpaceOnUse" x="20" y="9" width="3" height="4">
<ellipse cx="21.0994" cy="11.0268" rx="0.964286" ry="1.52679" fill="#C4C4C4"/>
</mask>
<g mask="url(#mask1_107628_1066)">
<path d="M20.1352 10.4643L22.0638 10.4643" stroke="#FBE04B" stroke-width="0.321429" stroke-linejoin="round"/>
<path d="M19.9745 10.9464L22.2245 10.9464" stroke="#FBE04B" stroke-width="0.321429" stroke-linejoin="round"/>
<path d="M20.1352 11.4286H22.0638" stroke="#FBE04B" stroke-width="0.321429" stroke-linejoin="round"/>
</g>
</g>
</svg>
