<svg width="28" height="28" viewBox="0 0 28 28" fill="none" xmlns="http://www.w3.org/2000/svg">
<rect x="0.25" y="4.25" width="27.5" height="19.5" rx="2.75" fill="white" stroke="#F5F5F5" stroke-width="0.5"/>
<mask id="mask0_17_5280" style="mask-type:alpha" maskUnits="userSpaceOnUse" x="0" y="4" width="28" height="20">
<rect x="0.25" y="4.25" width="27.5" height="19.5" rx="2.75" fill="white" stroke="white" stroke-width="0.5"/>
</mask>
<g mask="url(#mask0_17_5280)">
<path fill-rule="evenodd" clip-rule="evenodd" d="M0 10.6667H28V4H0V10.6667Z" fill="#38BB56"/>
<path fill-rule="evenodd" clip-rule="evenodd" d="M0 24H28V17.3333H0V24Z" fill="#DE1B27"/>
<path fill-rule="evenodd" clip-rule="evenodd" d="M1.66665 9.33333C1.48255 9.33333 1.33331 9.48257 1.33331 9.66666V10.3333C1.33331 10.5174 1.48255 10.6667 1.66665 10.6667H2.33331C2.51741 10.6667 2.66665 10.5174 2.66665 10.3333V9.66666C2.66665 9.48257 2.51741 9.33333 2.33331 9.33333H1.66665ZM4.33331 9.33333C4.14922 9.33333 3.99998 9.48257 3.99998 9.66666V10.3333C3.99998 10.5174 4.14922 10.6667 4.33331 10.6667H4.99998C5.18407 10.6667 5.33331 10.5174 5.33331 10.3333V9.66666C5.33331 9.48257 5.18407 9.33333 4.99998 9.33333H4.33331ZM6.66665 9.66666C6.66665 9.48257 6.81589 9.33333 6.99998 9.33333H7.66665C7.85074 9.33333 7.99998 9.48257 7.99998 9.66666V10.3333C7.99998 10.5174 7.85074 10.6667 7.66665 10.6667H6.99998C6.81589 10.6667 6.66665 10.5174 6.66665 10.3333V9.66666ZM9.66665 9.33333C9.48255 9.33333 9.33331 9.48257 9.33331 9.66666V10.3333C9.33331 10.5174 9.48255 10.6667 9.66665 10.6667H10.3333C10.5174 10.6667 10.6666 10.5174 10.6666 10.3333V9.66666C10.6666 9.48257 10.5174 9.33333 10.3333 9.33333H9.66665ZM12 9.66666C12 9.48257 12.1492 9.33333 12.3333 9.33333H13C13.1841 9.33333 13.3333 9.48257 13.3333 9.66666V10.3333C13.3333 10.5174 13.1841 10.6667 13 10.6667H12.3333C12.1492 10.6667 12 10.5174 12 10.3333V9.66666ZM15 9.33333C14.8159 9.33333 14.6666 9.48257 14.6666 9.66666V10.3333C14.6666 10.5174 14.8159 10.6667 15 10.6667H15.6666C15.8507 10.6667 16 10.5174 16 10.3333V9.66666C16 9.48257 15.8507 9.33333 15.6666 9.33333H15ZM17.3333 9.66666C17.3333 9.48257 17.4826 9.33333 17.6666 9.33333H18.3333C18.5174 9.33333 18.6666 9.48257 18.6666 9.66666V10.3333C18.6666 10.5174 18.5174 10.6667 18.3333 10.6667H17.6666C17.4826 10.6667 17.3333 10.5174 17.3333 10.3333V9.66666ZM20.3333 9.33333C20.1492 9.33333 20 9.48257 20 9.66666V10.3333C20 10.5174 20.1492 10.6667 20.3333 10.6667H21C21.1841 10.6667 21.3333 10.5174 21.3333 10.3333V9.66666C21.3333 9.48257 21.1841 9.33333 21 9.33333H20.3333ZM22.6666 9.66666C22.6666 9.48257 22.8159 9.33333 23 9.33333H23.6666C23.8507 9.33333 24 9.48257 24 9.66666V10.3333C24 10.5174 23.8507 10.6667 23.6666 10.6667H23C22.8159 10.6667 22.6666 10.5174 22.6666 10.3333V9.66666ZM25.6666 9.33333C25.4826 9.33333 25.3333 9.48257 25.3333 9.66666V10.3333C25.3333 10.5174 25.4826 10.6667 25.6666 10.6667H26.3333C26.5174 10.6667 26.6666 10.5174 26.6666 10.3333V9.66666C26.6666 9.48257 26.5174 9.33333 26.3333 9.33333H25.6666ZM1.33331 17.6667C1.33331 17.4826 1.48255 17.3333 1.66665 17.3333H2.33331C2.51741 17.3333 2.66665 17.4826 2.66665 17.6667V18.3333C2.66665 18.5174 2.51741 18.6667 2.33331 18.6667H1.66665C1.48255 18.6667 1.33331 18.5174 1.33331 18.3333V17.6667ZM4.33331 17.3333C4.14922 17.3333 3.99998 17.4826 3.99998 17.6667V18.3333C3.99998 18.5174 4.14922 18.6667 4.33331 18.6667H4.99998C5.18407 18.6667 5.33331 18.5174 5.33331 18.3333V17.6667C5.33331 17.4826 5.18407 17.3333 4.99998 17.3333H4.33331ZM6.66665 17.6667C6.66665 17.4826 6.81589 17.3333 6.99998 17.3333H7.66665C7.85074 17.3333 7.99998 17.4826 7.99998 17.6667V18.3333C7.99998 18.5174 7.85074 18.6667 7.66665 18.6667H6.99998C6.81589 18.6667 6.66665 18.5174 6.66665 18.3333V17.6667ZM9.66665 17.3333C9.48255 17.3333 9.33331 17.4826 9.33331 17.6667V18.3333C9.33331 18.5174 9.48255 18.6667 9.66665 18.6667H10.3333C10.5174 18.6667 10.6666 18.5174 10.6666 18.3333V17.6667C10.6666 17.4826 10.5174 17.3333 10.3333 17.3333H9.66665ZM12 17.6667C12 17.4826 12.1492 17.3333 12.3333 17.3333H13C13.1841 17.3333 13.3333 17.4826 13.3333 17.6667V18.3333C13.3333 18.5174 13.1841 18.6667 13 18.6667H12.3333C12.1492 18.6667 12 18.5174 12 18.3333V17.6667ZM15 17.3333C14.8159 17.3333 14.6666 17.4826 14.6666 17.6667V18.3333C14.6666 18.5174 14.8159 18.6667 15 18.6667H15.6666C15.8507 18.6667 16 18.5174 16 18.3333V17.6667C16 17.4826 15.8507 17.3333 15.6666 17.3333H15ZM17.3333 17.6667C17.3333 17.4826 17.4826 17.3333 17.6666 17.3333H18.3333C18.5174 17.3333 18.6666 17.4826 18.6666 17.6667V18.3333C18.6666 18.5174 18.5174 18.6667 18.3333 18.6667H17.6666C17.4826 18.6667 17.3333 18.5174 17.3333 18.3333V17.6667ZM20.3333 17.3333C20.1492 17.3333 20 17.4826 20 17.6667V18.3333C20 18.5174 20.1492 18.6667 20.3333 18.6667H21C21.1841 18.6667 21.3333 18.5174 21.3333 18.3333V17.6667C21.3333 17.4826 21.1841 17.3333 21 17.3333H20.3333ZM22.6666 17.6667C22.6666 17.4826 22.8159 17.3333 23 17.3333H23.6666C23.8507 17.3333 24 17.4826 24 17.6667V18.3333C24 18.5174 23.8507 18.6667 23.6666 18.6667H23C22.8159 18.6667 22.6666 18.5174 22.6666 18.3333V17.6667ZM25.6666 17.3333C25.4826 17.3333 25.3333 17.4826 25.3333 17.6667V18.3333C25.3333 18.5174 25.4826 18.6667 25.6666 18.6667H26.3333C26.5174 18.6667 26.6666 18.5174 26.6666 18.3333V17.6667C26.6666 17.4826 26.5174 17.3333 26.3333 17.3333H25.6666Z" fill="white" fill-opacity="0.5"/>
<mask id="path-6-inside-1_17_5280" fill="white">
<path fill-rule="evenodd" clip-rule="evenodd" d="M12.6535 12.5211C12.252 12.8869 12 13.414 12 14C12 15.1046 12.8954 16 14 16V16C15.1046 16 16 15.1046 16 14C16 13.4251 15.7574 12.9069 15.3691 12.542"/>
</mask>
<path d="M12.2045 12.0283C11.6702 12.5151 11.3333 13.2187 11.3333 14H12.6667C12.6667 13.6094 12.8338 13.2588 13.1025 13.014L12.2045 12.0283ZM11.3333 14C11.3333 15.4728 12.5272 16.6667 14 16.6667V15.3333C13.2636 15.3333 12.6667 14.7364 12.6667 14H11.3333ZM14 16.6667C15.4728 16.6667 16.6667 15.4728 16.6667 14H15.3333C15.3333 14.7364 14.7364 15.3333 14 15.3333V16.6667ZM16.6667 14C16.6667 13.2335 16.3424 12.5417 15.8255 12.0561L14.9126 13.0279C15.1724 13.272 15.3333 13.6167 15.3333 14H16.6667Z" fill="#D80915" mask="url(#path-6-inside-1_17_5280)"/>
<rect x="13.3333" y="13.3333" width="1.33333" height="2.66667" rx="0.666667" fill="#D80915"/>
</g>
</svg>
