<svg width="28" height="28" viewBox="0 0 28 28" fill="none" xmlns="http://www.w3.org/2000/svg">
<rect y="4" width="28" height="20" rx="2" fill="#D01129"/>
<mask id="mask0_17_5329" style="mask-type:alpha" maskUnits="userSpaceOnUse" x="0" y="4" width="28" height="20">
<rect y="4" width="28" height="20" rx="2" fill="white"/>
</mask>
<g mask="url(#mask0_17_5329)">
<path fill-rule="evenodd" clip-rule="evenodd" d="M13.8881 14.0409C14.5491 14.0409 15.0849 13.4783 15.0849 12.7845C15.0849 12.0905 14.5491 11.528 13.8881 11.528C13.2272 11.528 12.6915 12.0905 12.6915 12.7845C12.6915 13.4783 13.2272 14.0409 13.8881 14.0409Z" fill="#FFF101"/>
<path fill-rule="evenodd" clip-rule="evenodd" d="M12.7973 12.2793C13.1362 12.1657 13.5759 12.2979 13.8652 12.5894C14.1723 12.5306 14.4802 12.1257 14.5757 11.7653C14.4708 10.5673 13.7245 9.65982 13.4975 9.03706C13.4257 8.84024 13.093 8.53076 12.747 8.67486C12.4625 8.79339 12.3186 8.70116 11.363 9.20159C10.8463 9.47217 10.4114 9.75009 10.1823 9.79853C9.95297 9.84697 9.71111 9.89015 9.52773 9.73933C9.27549 9.53186 8.99262 9.47449 8.82602 9.31816C8.6219 9.1266 8.49095 8.98202 8.35289 8.92342C8.21483 8.86471 7.98113 8.99511 8.07981 9.30544C8.30245 10.0064 8.8273 10.1199 9.05262 10.775C9.15899 11.0848 9.31021 11.3176 9.64819 11.0828C9.98617 10.8481 10.4638 10.5363 11.2782 10.5035C11.8251 10.4813 12.3903 10.2702 12.6499 9.92379C12.6474 10.2235 12.748 10.4691 12.7215 10.859C12.695 11.2489 12.6992 11.7339 12.7973 12.2793Z" fill="white"/>
<path fill-rule="evenodd" clip-rule="evenodd" d="M13.438 12.3122C13.3375 11.7225 13.5196 11.6374 13.3022 10.9462C13.1715 10.5305 13.088 10.0096 13.0859 9.76711L12.9985 9.79377C13.0006 10.0362 13.0843 10.5573 13.2149 10.973C13.4252 11.6414 13.2617 11.7429 13.3416 12.2822C13.3663 12.2875 13.4182 12.3048 13.438 12.3122Z" fill="#FFF101"/>
<path fill-rule="evenodd" clip-rule="evenodd" d="M12.9235 12.2475C12.9242 12.1725 12.9196 12.0942 12.9086 12.0269C13.0622 11.9881 13.3254 12.1373 13.3181 12.0264C13.3159 11.9913 13.3193 11.8778 13.3214 11.8176C13.318 11.9117 12.952 11.7529 12.889 11.7939C12.8213 11.4508 12.9052 11.0977 12.8515 10.8823C12.9737 10.8472 13.1983 10.9238 13.1708 10.8232C13.1552 10.7717 13.1254 10.6437 13.1057 10.5636C13.1249 10.6475 12.9466 10.578 12.8862 10.6259C12.8549 10.4399 12.8091 10.0869 12.81 9.92551L12.6499 9.9238C12.6474 10.2235 12.748 10.4691 12.7215 10.859C12.695 11.2489 12.6992 11.734 12.7973 12.2793C12.8324 12.2685 12.8902 12.2547 12.9235 12.2475Z" fill="#FFF101"/>
<path fill-rule="evenodd" clip-rule="evenodd" d="M12.5192 9.50802C12.2806 9.86974 11.7107 10.1194 11.1837 10.1746C10.567 10.2392 10.1529 10.4547 9.848 10.6657C9.82179 10.6162 9.77449 10.5895 9.73266 10.5568C9.28656 10.2099 9.46994 9.73983 9.63887 9.80698C9.57515 9.78105 9.5381 9.74607 9.50326 9.71977C9.44431 9.67389 9.27421 9.84967 9.29553 10.1288C9.30462 10.2477 9.40155 10.4231 9.48043 10.5161C9.33643 10.4886 9.26746 10.4499 9.18287 10.3426C9.23041 10.3116 9.29192 10.294 9.34155 10.2899C9.32466 10.2474 9.30113 10.2001 9.29553 10.1288C9.22505 10.1282 9.13907 10.154 9.06532 10.2066C8.88835 10.0215 8.70614 9.87389 8.60047 9.65542C8.43142 9.30545 8.60338 9.08454 8.82602 9.31818C8.6219 9.12662 8.49095 8.98203 8.35289 8.92344C8.21483 8.86472 7.98113 8.99512 8.07981 9.30545C8.30245 10.0064 8.8273 10.1199 9.05262 10.7751C9.15899 11.0848 9.31581 11.3261 9.64819 11.0828C9.692 11.0508 9.70365 11.0432 9.74175 11.0148C9.84718 10.9508 10.0143 11.0582 9.99643 11.2918C10.0818 11.0773 10.0273 11.0116 9.95483 10.8831C9.90124 10.913 9.90555 10.7375 9.87247 10.7144C10.0621 10.5906 10.2928 10.4664 10.5838 10.378C10.5946 10.4828 10.6221 10.5941 10.714 10.578C10.7633 10.5665 10.8132 10.5561 10.8658 10.5469C10.7739 10.5631 10.748 10.4412 10.7374 10.3365C10.8753 10.3033 11.0261 10.2781 11.1913 10.2639C11.3817 10.2475 11.5784 10.2069 11.7632 10.1439C11.7907 10.2444 11.8476 10.4138 11.9423 10.3806C12.0263 10.3523 12.108 10.3204 12.1846 10.2833C12.0529 10.3492 12.001 10.161 11.9693 10.0614C12.2101 9.95145 12.4153 9.80148 12.538 9.62252L12.5192 9.50802Z" fill="#FFF101"/>
<path fill-rule="evenodd" clip-rule="evenodd" d="M13.5732 9.68761C13.6894 9.59293 13.7893 9.54816 13.689 9.34767C13.5249 9.01984 13.6268 9.01871 13.2677 8.81015C12.9018 8.59804 12.9481 8.58141 12.464 8.76061C12.3449 8.80465 12.3715 8.84966 12.3924 9.03095C12.4372 9.42165 12.5225 9.73628 12.6004 10.0577C12.9047 10.016 13.3729 9.85091 13.5732 9.68761Z" fill="#FFF101"/>
<path fill-rule="evenodd" clip-rule="evenodd" d="M12.4376 9.59878C12.3737 9.40697 12.3908 9.43303 12.6222 9.4915C12.6979 9.23866 12.8025 9.02525 12.8611 8.8206C12.9266 8.59149 12.9471 8.55027 13.0435 8.60641C13.1667 8.67809 13.3021 8.75381 13.3903 8.79932C13.5443 8.87858 13.5216 8.90635 13.4481 9.03235C13.3746 9.15834 13.1341 9.4137 12.9858 9.68012C13.1814 9.82471 13.2442 9.8378 13.1052 9.90006C12.9497 9.96967 12.6913 10.0559 12.5825 10.0763C12.5626 9.95046 12.4983 9.78067 12.4376 9.59878Z" fill="#FFF101"/>
<path fill-rule="evenodd" clip-rule="evenodd" d="M10.1409 11.4024L10.1255 11.5998L9.98699 11.4676L9.83204 11.5781L9.84229 11.3812L9.66393 11.3245L9.81631 11.2098L9.74909 11.0268L9.92793 11.0816L10.0224 10.9122L10.0942 11.0931L10.2787 11.0639L10.1883 11.2365L10.3244 11.3698L10.1409 11.4024Z" fill="#FFF101"/>
<path fill-rule="evenodd" clip-rule="evenodd" d="M14.017 14.029C13.7538 13.7775 13.6429 13.3117 13.7388 12.9029C13.5368 12.6531 13.0489 12.5754 12.7038 12.6689C11.7681 13.3633 11.3927 14.4957 10.9925 15.0135C10.866 15.1771 10.7771 15.6343 11.0691 15.8769C11.3091 16.0763 11.305 16.2532 12.1955 16.8719C12.677 17.2065 13.1237 17.463 13.2783 17.6472C13.433 17.8314 13.5894 18.0299 13.5567 18.2719C13.5117 18.605 13.6058 18.891 13.5602 19.1205C13.5042 19.4018 13.4505 19.5933 13.4711 19.7481C13.4918 19.903 13.7161 20.0503 13.9228 19.8054C14.3895 19.2525 14.2208 18.7185 14.6486 18.1861C14.8507 17.9344 14.9672 17.6805 14.6047 17.4905C14.242 17.3007 13.746 17.0221 13.3117 16.2982C13.0201 15.812 12.5634 15.4036 12.1477 15.3407C12.3962 15.1933 12.5486 14.9788 12.8834 14.808C13.2183 14.6371 13.6162 14.391 14.017 14.029Z" fill="white"/>
<path fill-rule="evenodd" clip-rule="evenodd" d="M13.7237 13.43C13.2876 13.8162 13.1263 13.693 12.6649 14.2363C12.3875 14.5631 11.9995 14.8996 11.8005 15.0226L11.8662 15.0887C12.0652 14.9656 12.4532 14.6291 12.7307 14.3024C13.1769 13.777 13.3423 13.8749 13.7473 13.5325C13.7393 13.5075 13.7275 13.4516 13.7237 13.43Z" fill="#FFF101"/>
<path fill-rule="evenodd" clip-rule="evenodd" d="M13.9275 13.9302C13.8654 13.967 13.8031 14.0103 13.7531 14.0539C13.6443 13.9336 13.6357 13.6197 13.5481 13.682C13.5201 13.7013 13.4248 13.7551 13.374 13.7832C13.4535 13.7393 13.5053 14.1514 13.5707 14.1883C13.3215 14.4214 12.9884 14.5216 12.8376 14.6782C12.7476 14.5845 12.6984 14.3421 12.6292 14.4174C12.5946 14.4573 12.5038 14.5484 12.4476 14.6064C12.5072 14.5469 12.539 14.7439 12.6087 14.7747C12.471 14.8963 12.2027 15.1144 12.069 15.1943L12.1477 15.3407C12.3962 15.1933 12.5486 14.9788 12.8834 14.808C13.2182 14.6371 13.6162 14.391 14.017 14.029C13.9906 14.0025 13.9501 13.9568 13.9275 13.9302Z" fill="#FFF101"/>
<path fill-rule="evenodd" clip-rule="evenodd" d="M11.8702 15.6674C12.2878 15.7035 12.7787 16.0969 13.0877 16.5485C13.4493 17.0771 13.8342 17.3457 14.1607 17.5174C14.1329 17.5661 14.1346 17.6224 14.1286 17.6768C14.0655 18.2559 13.5861 18.3242 13.5569 18.137C13.5674 18.208 13.5571 18.2591 13.5529 18.304C13.5445 18.3806 13.7746 18.4472 13.9941 18.2883C14.0876 18.2206 14.1837 18.0448 14.2211 17.9266C14.2703 18.0712 14.2729 18.1533 14.2268 18.2838C14.1773 18.2562 14.1321 18.2089 14.1039 18.166C14.0772 18.2026 14.0501 18.2476 13.9941 18.2883C14.0288 18.3528 14.0931 18.418 14.1734 18.4587C14.1092 18.7122 14.0785 18.9517 13.9511 19.157C13.7471 19.4856 13.4788 19.4398 13.5602 19.1205C13.5042 19.4018 13.4505 19.5933 13.4711 19.7481C13.4918 19.903 13.7161 20.0503 13.9228 19.8054C14.3895 19.2525 14.2208 18.7185 14.6486 18.1861C14.8507 17.9344 14.9715 17.6712 14.6047 17.4905C14.5562 17.4668 14.5442 17.4601 14.5018 17.4395C14.3962 17.3757 14.4014 17.17 14.6028 17.0695C14.3833 17.0991 14.3564 17.1815 14.2866 17.3117C14.338 17.3453 14.1911 17.4292 14.1885 17.471C13.9916 17.3604 13.774 17.2127 13.5554 16.9922C13.6366 16.9302 13.7147 16.8494 13.6553 16.774C13.6211 16.7349 13.5876 16.6946 13.5537 16.6514C13.6131 16.727 13.5256 16.8113 13.4444 16.8734C13.348 16.7647 13.2519 16.6401 13.1576 16.497C13.0489 16.332 12.917 16.1735 12.7726 16.037C12.8418 15.9616 12.9531 15.8253 12.8783 15.7557C12.8131 15.6935 12.7458 15.6351 12.677 15.5841C12.7972 15.671 12.6678 15.8122 12.6016 15.8908C12.3904 15.7269 12.1641 15.6152 11.9552 15.5933L11.8702 15.6674Z" fill="#FFF101"/>
<path fill-rule="evenodd" clip-rule="evenodd" d="M11.3218 14.6977C11.1855 14.6394 11.2527 14.5605 11.1375 14.752C10.9491 15.065 10.9127 14.9929 10.9204 15.4238C10.9282 15.8624 11.0093 15.7924 11.3993 16.143C11.699 15.907 12.0568 15.5503 12.2829 15.3187C12.0964 15.0629 11.5565 14.7984 11.3218 14.6977Z" fill="#FFF101"/>
<path fill-rule="evenodd" clip-rule="evenodd" d="M11.9859 15.6963C11.8596 15.8503 11.8725 15.8218 11.8051 15.582C11.5586 15.6395 11.3686 15.7059 11.1706 15.755C10.9488 15.8099 10.9047 15.8119 10.9027 15.6963C10.9002 15.5483 10.8951 15.3874 10.8885 15.2844C10.8769 15.1048 10.9111 15.1114 11.0518 15.1154C11.1925 15.1192 11.4849 15.1555 11.7788 15.1571C11.8003 14.9069 11.7797 14.8433 11.9006 14.9386C12.0356 15.0451 12.236 15.2371 12.3073 15.3258C12.2134 15.4067 12.1056 15.5502 11.9859 15.6963Z" fill="#FFF101"/>
<path fill-rule="evenodd" clip-rule="evenodd" d="M14.6219 16.8829L14.7923 16.7982L14.7526 16.9901L14.9213 17.0758L14.7537 17.1649L14.7961 17.3555L14.6252 17.2743L14.5078 17.4269L14.4637 17.2368L14.2767 17.2356L14.3902 17.08L14.2737 16.9269L14.4614 16.9227L14.5033 16.7324L14.6219 16.8829Z" fill="#FFF101"/>
<path fill-rule="evenodd" clip-rule="evenodd" d="M14.8502 12.0451C14.7745 12.41 14.4456 12.7439 14.0606 12.8612C13.9555 13.1697 14.1354 13.652 14.385 13.9193C15.4255 14.4228 16.5474 14.1979 17.1745 14.3029C17.3728 14.336 17.7943 14.1883 17.8485 13.8016C17.893 13.4837 18.0408 13.399 18.106 12.2799C18.1412 11.6747 18.1294 11.1403 18.2041 10.9076C18.2788 10.675 18.3641 10.4334 18.5801 10.3421C18.8774 10.2165 19.0662 9.98789 19.2785 9.91462C19.5384 9.82483 19.7232 9.77798 19.8405 9.68184C19.9579 9.58569 19.9673 9.30801 19.662 9.24257C18.9725 9.09456 18.6165 9.51499 17.9634 9.39217C17.6548 9.33419 17.387 9.35511 17.4117 9.77994C17.4364 10.2047 17.4547 10.7949 17.0747 11.5517C16.8194 12.0601 16.7109 12.6795 16.8668 13.0889C16.621 12.9366 16.368 12.9053 16.0597 12.6864C15.7513 12.4673 15.3492 12.2286 14.8502 12.0451Z" fill="white"/>
<path fill-rule="evenodd" clip-rule="evenodd" d="M14.5028 12.6113C15.0395 12.8147 15.0185 13.0229 15.6974 13.1709C16.1056 13.2598 16.5771 13.4443 16.7782 13.5637L16.7997 13.4708C16.5988 13.3514 16.1271 13.1671 15.719 13.0781C15.0625 12.9349 15.0605 12.7355 14.5757 12.5385C14.5591 12.5584 14.5188 12.597 14.5028 12.6113Z" fill="#FFF101"/>
<path fill-rule="evenodd" clip-rule="evenodd" d="M14.8134 12.1758C14.8749 12.2138 14.9418 12.2488 15.0028 12.2725C14.958 12.4316 14.7033 12.5965 14.7985 12.645C14.8285 12.6608 14.9204 12.7205 14.969 12.7525C14.8931 12.7023 15.207 12.449 15.2048 12.3711C15.5218 12.4812 15.7709 12.7341 15.9755 12.7929C15.9433 12.9216 15.7678 13.0875 15.8645 13.1128C15.9148 13.1243 16.0353 13.1612 16.1113 13.1834C16.0324 13.1589 16.179 13.0314 16.1695 12.9528C16.3387 13.0171 16.6527 13.152 16.7854 13.2336L16.8668 13.0889C16.621 12.9366 16.368 12.9053 16.0597 12.6864C15.7513 12.4673 15.3492 12.2286 14.8502 12.0451C14.8416 12.0823 14.8241 12.1419 14.8134 12.1758Z" fill="#FFF101"/>
<path fill-rule="evenodd" clip-rule="evenodd" d="M17.2751 13.1779C17.096 12.7801 17.1751 12.137 17.3932 11.6302C17.6484 11.0371 17.6775 10.5528 17.6558 10.1702C17.7099 10.1711 17.7554 10.1414 17.8034 10.1196C18.3125 9.88759 18.6086 10.2893 18.4687 10.4093C18.522 10.3643 18.5694 10.3483 18.6085 10.3297C18.6758 10.2988 18.6158 10.0564 18.375 9.93627C18.2724 9.88502 18.0793 9.88551 17.963 9.91058C18.0579 9.79352 18.1242 9.75022 18.2549 9.72685C18.2569 9.78569 18.2405 9.8504 18.2191 9.89749C18.2627 9.90337 18.3134 9.90557 18.375 9.93627C18.4108 9.87242 18.4324 9.78141 18.4259 9.68795C18.6671 9.6197 18.8799 9.52783 19.1129 9.54104C19.4861 9.5622 19.5824 9.82911 19.2785 9.91462C19.5384 9.82483 19.7232 9.77798 19.8405 9.68184C19.9579 9.58569 19.9673 9.30801 19.662 9.24257C18.9725 9.09456 18.6165 9.51499 17.9634 9.39217C17.6548 9.33419 17.3772 9.35597 17.4117 9.77994C17.4163 9.83584 17.4167 9.85015 17.4211 9.89896C17.4211 10.0269 17.249 10.125 17.0654 9.99205C17.1995 10.177 17.2809 10.1602 17.4231 10.1587C17.4252 10.0949 17.5678 10.1865 17.6035 10.1681C17.6108 10.4024 17.5978 10.6743 17.5252 10.9831C17.4334 10.9404 17.328 10.9097 17.2952 11.0015C17.2801 11.052 17.2637 11.1026 17.245 11.155C17.2776 11.0632 17.391 11.1008 17.4827 11.1435C17.4412 11.2855 17.3866 11.4352 17.3157 11.5925C17.2339 11.7738 17.1692 11.973 17.1287 12.1726C17.032 12.1473 16.8639 12.1143 16.8439 12.2171C16.8252 12.3075 16.8107 12.3978 16.803 12.486C16.8145 12.3332 16.9957 12.3802 17.0937 12.4011C17.0641 12.6751 17.0851 12.9366 17.1714 13.1377L17.2751 13.1779Z" fill="#FFF101"/>
<path fill-rule="evenodd" clip-rule="evenodd" d="M16.5586 14.0094C16.5786 14.1626 16.5656 14.2757 16.7811 14.2847C17.1335 14.2995 17.1049 14.3451 17.4565 14.1227C17.8143 13.8963 17.8238 13.941 17.9181 13.4112C17.9412 13.2809 17.8908 13.2825 17.7308 13.2109C17.3863 13.0562 17.0852 13.0668 16.7811 12.9769C16.6633 13.2745 16.5241 13.7457 16.5586 14.0094Z" fill="#FFF101"/>
<path fill-rule="evenodd" clip-rule="evenodd" d="M17.241 13.0584C17.4313 13.096 17.4012 13.0986 17.2373 13.2799C17.408 13.4751 17.5386 13.6125 17.6782 13.7681C17.8345 13.9423 17.8581 13.9814 17.7637 14.041C17.6429 14.1172 17.5129 14.2023 17.4312 14.2599C17.2887 14.3602 17.2772 14.3257 17.21 14.1958C17.1428 14.0661 17.0454 13.7841 16.8999 13.5162C16.6828 13.6217 16.6406 13.6723 16.6588 13.5147C16.6791 13.3386 16.7373 13.0604 16.7748 12.9513C16.8885 12.9961 17.0607 13.0224 17.241 13.0584Z" fill="#FFF101"/>
<path fill-rule="evenodd" clip-rule="evenodd" d="M16.9018 10.0681L16.7467 9.95548L16.925 9.89554L16.9112 9.69933L17.0685 9.80722L17.2046 9.6734L17.223 9.86936L17.4075 9.8997L17.2729 10.035L17.3654 10.2055L17.1802 10.1802L17.1121 10.3627L17.0149 10.1941L16.8369 10.2513L16.9018 10.0681Z" fill="#FFF101"/>
<path fill-rule="evenodd" clip-rule="evenodd" d="M13.8602 12.5949C13.5705 12.303 13.1333 12.1748 12.7995 12.2866L12.7902 12.2807C12.7025 11.7934 12.6827 11.3227 12.7142 10.8584C12.7264 10.6788 12.7159 10.5474 12.6807 10.313C12.6661 10.2158 12.6641 10.2022 12.659 10.1619C12.6486 10.0812 12.6431 10.0129 12.6426 9.94545C12.3863 10.2704 11.8442 10.4882 11.2785 10.5111C10.6092 10.5381 10.1913 10.7148 9.65221 11.0892C9.35271 11.2972 9.18169 11.1734 9.04577 10.7777C8.95577 10.516 8.84603 10.3649 8.58279 10.0868L8.56254 10.0654C8.28686 9.7741 8.16701 9.60417 8.0729 9.30787C7.98501 9.03147 8.17489 8.83948 8.35562 8.91635C8.36792 8.92157 8.38028 8.92751 8.39275 8.93418C8.45095 8.96531 8.51068 9.01133 8.58972 9.08347C8.61678 9.10817 8.6961 9.18393 8.75753 9.24261L8.75754 9.24262L8.75755 9.24263C8.79122 9.2748 8.81952 9.30182 8.83087 9.31247C8.83987 9.32092 8.84917 9.32909 8.85889 9.33708C8.84508 9.32797 8.83071 9.32203 8.81601 9.31901L8.74753 9.25373C8.68615 9.1951 8.60708 9.11958 8.58016 9.09501C8.50195 9.02362 8.44307 8.97826 8.38614 8.9478C8.37404 8.94133 8.36206 8.93558 8.35016 8.93052C8.18105 8.8586 8.00272 9.0389 8.08671 9.30303C8.17994 9.59656 8.29864 9.76486 8.57287 10.0547L8.59312 10.0761C8.85775 10.3556 8.96856 10.5081 9.05947 10.7725C9.19265 11.1603 9.35466 11.2775 9.64417 11.0764C10.1853 10.7006 10.6056 10.5229 11.2779 10.4959C11.8495 10.4727 12.3966 10.2493 12.6442 9.91907L12.6572 9.92387C12.6566 9.99764 12.662 10.0712 12.6734 10.1599C12.6786 10.2 12.6805 10.2135 12.6951 10.3106C12.7304 10.5461 12.7411 10.6785 12.7287 10.8595C12.6975 11.3198 12.7168 11.7865 12.803 12.2694L12.7951 12.272L12.8045 12.2779L12.803 12.2694C13.141 12.1604 13.5791 12.2905 13.8639 12.5818C14.1515 12.5269 14.4674 12.1456 14.5684 11.766C14.5185 11.1962 14.3345 10.681 14.0037 10.0481C13.9526 9.95049 13.8132 9.69424 13.7456 9.56991L13.7085 9.50157C13.603 9.30432 13.5364 9.1653 13.4907 9.03981C13.396 8.77998 13.0417 8.56035 12.7497 8.68198C12.7099 8.69853 12.6713 8.71172 12.629 8.72357C12.6018 8.73116 12.5742 8.73798 12.5365 8.74662C12.1476 8.83564 11.9323 8.91201 11.3663 9.20844L11.3185 9.2336C11.2097 9.2912 10.9476 9.4359 10.7844 9.52595L10.7843 9.52604C10.7151 9.56424 10.6637 9.59259 10.6495 9.60026C10.4253 9.72102 10.285 9.78463 10.1837 9.80604C9.84872 9.87681 9.67937 9.87378 9.52323 9.74536C9.47406 9.70491 9.42151 9.66834 9.36362 9.63349C9.34867 9.62449 9.33352 9.61569 9.31787 9.6069L9.32251 9.60117L9.32049 9.59104C9.33777 9.60068 9.35444 9.61034 9.37086 9.62022C9.42933 9.65542 9.48247 9.6924 9.53222 9.73332C9.68379 9.85799 9.8499 9.86096 10.1808 9.79105C10.2803 9.77001 10.4199 9.70677 10.6428 9.58666C10.657 9.57901 10.7082 9.55073 10.7773 9.51261L10.7774 9.51254L10.7775 9.51252C10.9406 9.42248 11.203 9.27764 11.3119 9.21995L11.3598 9.19476C11.927 8.89773 12.1434 8.82096 12.5334 8.73168C12.5709 8.72308 12.5983 8.71631 12.6252 8.70879C12.667 8.69709 12.7051 8.68409 12.7443 8.66777C13.0447 8.54265 13.4069 8.76722 13.5043 9.03434C13.5497 9.15897 13.616 9.29743 13.7212 9.49409L13.7581 9.56215C13.8257 9.68637 13.9653 9.94296 14.0165 10.0408C14.3482 10.6753 14.5328 11.1923 14.5827 11.7673C14.4801 12.1548 14.1603 12.5407 13.8602 12.5949ZM9.30489 9.58242L9.32049 9.59104L9.32015 9.58934C9.31506 9.58675 9.30997 9.58444 9.30489 9.58242ZM9.25219 9.57154C9.26968 9.57183 9.28728 9.57542 9.30489 9.58242C9.2782 9.56783 9.24987 9.5531 9.21862 9.53745C9.20344 9.52985 9.1698 9.51339 9.13847 9.49809L9.13811 9.49494C9.12572 9.48906 9.11362 9.48411 9.10176 9.48015L9.07358 9.46637C8.982 9.42093 8.91945 9.38484 8.86893 9.34515L8.86895 9.34436C8.86564 9.34174 8.86228 9.33931 8.85889 9.33708L8.86893 9.34515L8.86862 9.35683L8.8638 9.3602C8.85963 9.35697 8.85553 9.35371 8.85151 9.35043L8.85161 9.35035C8.85451 9.35227 8.85737 9.35435 8.8602 9.35658L8.86054 9.34411L8.85161 9.35035C8.85129 9.35014 8.85097 9.34994 8.85065 9.34973C8.84042 9.34135 8.83064 9.33277 8.82116 9.32388L8.81601 9.31901C8.72245 9.29984 8.61546 9.3994 8.55467 9.55963L8.56547 9.56882L8.8638 9.3602C8.91025 9.39615 8.9665 9.42924 9.0448 9.46889C8.93088 9.46334 8.83519 9.56966 8.71295 9.84176L8.72403 9.85104L9.13382 9.51269C9.1647 9.52777 9.19747 9.5438 9.21235 9.55125C9.22617 9.55818 9.23941 9.56491 9.25219 9.57154ZM9.29912 9.59651C9.28408 9.58828 9.26852 9.58 9.25219 9.57154C9.12231 9.56939 8.99871 9.74951 8.92461 10.0701L8.93723 10.0769L9.31787 9.6069L9.3047 9.59957L9.30515 9.599L9.31379 9.6031L9.31142 9.59127L9.30515 9.599L9.29912 9.59651ZM8.94637 10.042C9.02943 9.70794 9.16615 9.54478 9.29912 9.59651L9.3047 9.59957L8.94637 10.042ZM8.94637 10.042L8.93876 10.0737L8.92614 10.067L8.94637 10.042ZM9.11902 9.50546L9.13382 9.51269L9.1396 9.50792L9.13847 9.49809L9.11905 9.48862L9.10176 9.48015C9.08217 9.47362 9.06325 9.46979 9.0448 9.46889L9.06736 9.48019L9.09668 9.49454C8.96902 9.45259 8.87157 9.53349 8.73958 9.81874L8.71503 9.83902L8.72612 9.84829L8.73958 9.81874L9.11902 9.50546ZM9.121 9.50383C9.11276 9.50026 9.10466 9.49716 9.09668 9.49454L9.11304 9.50254L9.11902 9.50546L9.121 9.50383ZM9.121 9.50383L9.1321 9.50887L9.1306 9.4959L9.121 9.50383ZM8.57754 9.54201L8.85151 9.35043C8.85122 9.35019 8.85094 9.34996 8.85065 9.34973C8.76302 9.29296 8.64647 9.37946 8.57754 9.54201ZM8.57754 9.54201L8.5574 9.55609L8.5682 9.56529C8.5712 9.55736 8.57432 9.5496 8.57754 9.54201Z" fill="black"/>
<path fill-rule="evenodd" clip-rule="evenodd" d="M13.4174 11.7605C13.4071 11.9866 13.4106 12.1082 13.4452 12.3108L13.4356 12.3194C13.4246 12.3153 13.4103 12.3104 13.3956 12.3054C13.3735 12.2978 13.3502 12.2898 13.3344 12.2834C13.3081 12.1057 13.3059 11.995 13.3155 11.7864L13.3175 11.7431C13.329 11.475 13.3087 11.2954 13.208 10.9754C13.0866 10.5891 12.9936 10.0618 12.9965 9.78642L13.0932 9.76703C13.0955 10.0336 13.1882 10.5591 13.3092 10.9438C13.4104 11.2658 13.431 11.4472 13.4194 11.7171L13.4174 11.7605ZM13.4404 12.305L13.4308 12.3135C13.4301 12.3092 13.4294 12.305 13.4287 12.3007C13.4328 12.3022 13.4368 12.3036 13.4404 12.305ZM13.3431 12.2747C13.3616 12.2787 13.4005 12.2908 13.4287 12.3007C13.3959 12.1043 13.3927 11.9821 13.4029 11.7598L13.4048 11.7164C13.4164 11.4483 13.396 11.2687 13.2953 10.9486C13.1739 10.5625 13.0809 10.0354 13.0879 9.77444L13.0058 9.7937C13.0081 10.06 13.1009 10.5857 13.2218 10.9706C13.3231 11.2925 13.3436 11.4739 13.332 11.7438L13.3301 11.7871C13.3205 11.9948 13.3227 12.1046 13.3431 12.2747Z" fill="black"/>
<path fill-rule="evenodd" clip-rule="evenodd" d="M11.7186 9.0106C11.637 9.04735 11.6377 9.17757 11.7036 9.38042C11.7564 9.54264 11.8498 9.74644 11.9622 9.95461L11.9755 9.9488L11.7285 9.01558L11.7186 9.0106ZM12.9158 12.0256C12.9264 12.0906 12.9315 12.1684 12.9308 12.2476L12.925 12.255L12.9 12.2605C12.8636 12.2687 12.8223 12.2779 12.7902 12.2807C12.7025 11.7934 12.6827 11.3227 12.7142 10.8584C12.7264 10.6788 12.7159 10.5474 12.6807 10.313C12.6661 10.2158 12.6641 10.2022 12.659 10.1619C12.6475 10.0725 12.642 9.99832 12.65 9.91616L12.8173 9.92557C12.8165 10.0639 12.8531 10.382 12.8915 10.6134C12.9122 10.6019 12.9413 10.5987 12.9871 10.5996L13.0058 10.6001C13.0484 10.6013 13.0648 10.6009 13.0798 10.5967C13.097 10.5919 13.1027 10.5833 13.0986 10.5654L13.1128 10.5617C13.1179 10.5824 13.1402 10.6749 13.1388 10.6692L13.1409 10.6777C13.1584 10.75 13.1699 10.7949 13.1778 10.8211C13.187 10.8548 13.1717 10.8745 13.1366 10.8816C13.1118 10.8867 13.0877 10.8864 13.0183 10.8826C12.9981 10.8815 12.9868 10.881 12.9742 10.8806C12.9415 10.8794 12.9146 10.8799 12.8929 10.8802C12.8795 10.8804 12.8681 10.8806 12.8585 10.8804C12.8801 10.967 12.8815 11.0458 12.8731 11.2677C12.865 11.4833 12.8661 11.5934 12.8845 11.7236C12.8874 11.7436 12.8906 11.7634 12.8943 11.7828C12.9216 11.7724 12.9703 11.781 13.0939 11.81L13.1022 11.812C13.1778 11.8297 13.2173 11.8374 13.2518 11.8397C13.2934 11.8425 13.3134 11.835 13.3141 11.8174L13.3131 11.8461C13.3 11.8543 13.2789 11.8569 13.2509 11.855C13.2154 11.8526 13.1754 11.8448 13.099 11.8269L13.0907 11.8249C12.9601 11.7942 12.9133 11.7871 12.8928 11.8004L12.8819 11.7955C12.8774 11.7727 12.8735 11.7495 12.8701 11.7258C12.8515 11.5944 12.8504 11.4836 12.8586 11.2671C12.8669 11.047 12.8655 10.9688 12.8496 10.875C12.8816 10.8658 12.9205 10.8634 12.9747 10.8653C12.9874 10.8657 12.9987 10.8663 13.0191 10.8674C13.087 10.8711 13.1107 10.8713 13.1338 10.8666C13.1613 10.861 13.1704 10.8494 13.1639 10.8256C13.1559 10.7992 13.1444 10.7541 13.1268 10.6815L13.1247 10.673C13.1257 10.6769 13.1148 10.6322 13.1066 10.5981C13.1141 10.5894 13.1164 10.5773 13.1128 10.5618L13.0987 10.5655L13.1066 10.5981C13.1014 10.6042 13.0936 10.6087 13.0835 10.6115C13.0666 10.6162 13.0497 10.6166 13.0054 10.6154L12.9868 10.6149C12.9367 10.6139 12.9082 10.6181 12.8906 10.632L12.879 10.6273C12.8398 10.3942 12.8019 10.0672 12.8099 9.93317L12.6572 9.92388C12.6566 9.99764 12.662 10.0712 12.6734 10.1599C12.6786 10.2 12.6805 10.2136 12.6951 10.3106C12.7304 10.5461 12.7411 10.6785 12.7287 10.8595C12.6973 11.3225 12.7171 11.7919 12.7953 12.2719C12.8248 12.2629 12.8755 12.2502 12.9163 12.2412L12.9162 12.2474L12.922 12.24L12.9163 12.2412C12.9167 12.1651 12.9118 12.0903 12.9069 12.0195C12.9478 12.0092 12.9973 12.0109 13.0608 12.022C13.0821 12.0257 13.1034 12.0301 13.1333 12.0368C13.225 12.0574 13.2386 12.06 13.2656 12.0606C13.299 12.0612 13.3125 12.0516 13.3108 12.0269C13.3092 12.0006 13.3104 11.9306 13.3131 11.8461C13.3229 11.8399 13.3282 11.8307 13.3286 11.8179L13.3141 11.8174L13.3141 11.8173L13.3286 11.8179C13.3253 11.9142 13.3236 11.9974 13.3254 12.0259C13.3277 12.0614 13.3062 12.0766 13.2653 12.0758C13.2369 12.0753 13.2234 12.0726 13.1302 12.0517C13.1005 12.0451 13.0795 12.0407 13.0584 12.037C12.9967 12.0263 12.9489 12.0246 12.9158 12.0256ZM11.7168 9.02855L11.7145 9.01968L11.7244 9.02466C11.7218 9.02583 11.7193 9.02713 11.7168 9.02855ZM11.9452 9.89148C11.8466 9.70364 11.7651 9.52221 11.7174 9.37548C11.6562 9.18719 11.6534 9.06583 11.7168 9.02855L11.9452 9.89148ZM11.9452 9.89148C11.9549 9.90996 11.9648 9.9285 11.9748 9.94707L11.9615 9.95289L11.9452 9.89148ZM11.7611 10.1484L11.761 10.1485L11.761 10.1485L11.7606 10.1486L11.7655 10.1651C11.8344 10.1382 11.9033 10.1065 11.9722 10.0705L11.9667 10.0543L11.9664 10.0544L11.9664 10.0544L11.9663 10.0545L11.7611 10.1484ZM11.7611 10.1484C11.8294 10.1217 11.8978 10.0903 11.9663 10.0545L11.9664 10.0544L11.9719 10.0706L11.7658 10.165L11.761 10.1485L11.7611 10.1484ZM10.582 10.3766C10.582 10.3766 10.5819 10.3766 10.5818 10.3767L10.5857 10.3935L10.7392 10.3461L10.7358 10.3291C10.7357 10.3291 10.7356 10.3291 10.7356 10.3291L10.7356 10.3291L10.7355 10.3292C10.6831 10.3436 10.6321 10.3593 10.5821 10.3766L10.582 10.3766L10.582 10.3766ZM10.582 10.3766L10.5859 10.3935C10.6357 10.3763 10.6867 10.3605 10.739 10.3461L10.7356 10.3291C10.7355 10.3291 10.7355 10.3291 10.7355 10.3292L10.5821 10.3766C10.5821 10.3766 10.5821 10.3766 10.582 10.3766Z" fill="black"/>
<path fill-rule="evenodd" clip-rule="evenodd" d="M11.183 10.167C11.7404 10.1086 12.2878 9.8454 12.5132 9.50366L12.5264 9.50672L12.5439 9.62698C12.4248 9.80075 12.2243 9.95333 11.9762 10.059C11.9756 10.0572 11.9863 10.0911 11.9896 10.1013C11.9953 10.1186 12.0004 10.1335 12.0058 10.1477C12.0495 10.264 12.1011 10.3136 12.1769 10.2786C12.1584 10.2875 12.1394 10.2962 12.1198 10.3047C12.0667 10.2981 12.0263 10.2439 11.9922 10.1533C11.9868 10.1389 11.9816 10.1238 11.9759 10.1062C11.9725 10.0959 11.9618 10.0619 11.9664 10.0544C12.2162 9.94032 12.4147 9.78932 12.5308 9.62381L12.515 9.52745C12.5185 9.52244 12.5219 9.51741 12.5252 9.51237L12.512 9.50931L12.515 9.52745C12.2809 9.86603 11.7376 10.1243 11.1844 10.1822C10.6497 10.2382 10.2398 10.4037 9.84163 10.6694C9.82504 10.638 9.80511 10.6196 9.75502 10.5829L9.75483 10.5828C9.74156 10.5731 9.73559 10.5686 9.72832 10.563C9.5267 10.4062 9.43445 10.2088 9.44787 10.026C9.45724 9.89836 9.52055 9.80309 9.59348 9.79355C9.60705 9.80116 9.62111 9.80795 9.63624 9.8141L9.64145 9.79983C9.62531 9.79341 9.60917 9.79149 9.59348 9.79355C9.5803 9.78616 9.56759 9.778 9.55481 9.76888C9.54275 9.76029 9.51082 9.73524 9.5015 9.72792C9.49998 9.72672 9.49906 9.726 9.49892 9.7259C9.42849 9.6711 9.28486 9.89343 9.30279 10.1282C9.31091 10.2345 9.39687 10.4061 9.48586 10.511L9.47912 10.5236C9.33187 10.4955 9.26207 10.4551 9.17902 10.3361C9.22179 10.3082 9.27858 10.2892 9.33092 10.2833L9.33483 10.2929L9.33507 10.2924L9.34099 10.2823C9.33772 10.2826 9.33443 10.2829 9.33112 10.2832C9.33105 10.2833 9.33098 10.2833 9.33092 10.2833L9.32018 10.257C9.30978 10.2311 9.30211 10.2084 9.29803 10.1866C9.29488 10.1696 9.29389 10.1533 9.29547 10.1365C9.29329 10.1364 9.29111 10.1364 9.28891 10.1365C9.21793 10.1375 9.13652 10.1648 9.06018 10.212C9.0493 10.2006 9.03804 10.189 9.02617 10.1769C9.00575 10.1561 8.95279 10.1034 8.9157 10.0665C8.89741 10.0483 8.88297 10.0339 8.87821 10.0291C8.73548 9.88527 8.65455 9.78412 8.59397 9.65887C8.51391 9.49313 8.5044 9.34216 8.56052 9.26336C8.59793 9.21084 8.65711 9.19997 8.72404 9.23129C8.73205 9.23894 8.73993 9.24646 8.74753 9.25372C8.76104 9.26663 8.77369 9.27871 8.78474 9.28925C8.69645 9.21414 8.61643 9.21039 8.57219 9.27252C8.52001 9.34579 8.52914 9.49086 8.60696 9.65195C8.66662 9.77532 8.74665 9.87533 8.88829 10.0181C8.89302 10.0228 8.90739 10.0371 8.92562 10.0553C8.96271 10.0922 9.01581 10.1451 9.03631 10.166C9.04822 10.1781 9.05953 10.1898 9.06123 10.2003C9.12887 10.152 9.20988 10.124 9.28811 10.1272C9.27046 9.88274 9.42276 9.6476 9.50751 9.71355C9.50768 9.71368 9.50879 9.71455 9.5106 9.71597C9.52052 9.72375 9.55142 9.74799 9.56298 9.75623C9.58808 9.77412 9.61278 9.78816 9.6415 9.79985L9.63629 9.81413C9.55656 9.78243 9.47314 9.88075 9.46239 10.0272C9.44937 10.2045 9.53928 10.3969 9.737 10.5507C9.74412 10.5562 9.75 10.5606 9.76315 10.5702L9.76334 10.5704C9.81523 10.6083 9.83633 10.6279 9.84399 10.6593C10.2336 10.3896 10.6457 10.2232 11.183 10.167ZM9.33748 10.2979C9.28589 10.3029 9.22895 10.3212 9.18848 10.3378C9.267 10.4373 9.33121 10.4771 9.46127 10.5045C9.41458 10.4458 9.36985 10.3709 9.33748 10.2979ZM8.79478 9.27818C8.77067 9.25761 8.7469 9.24199 8.72404 9.23129C8.66736 9.17717 8.60375 9.11653 8.58016 9.095C8.50195 9.02362 8.44307 8.97825 8.38614 8.9478C8.37404 8.94132 8.36206 8.93557 8.35016 8.93051C8.18105 8.85859 8.00272 9.03889 8.08671 9.30303C8.17994 9.59655 8.29864 9.76486 8.57287 10.0547L8.59312 10.0761C8.85775 10.3556 8.96856 10.5081 9.05947 10.7725C9.12109 10.9519 9.18677 11.0694 9.2698 11.13C9.3686 11.2021 9.4902 11.1891 9.64403 11.0765C9.66224 11.0632 9.6749 11.0541 9.69618 11.0388L9.69682 11.0384C9.71111 11.0281 9.72235 11.0199 9.7381 11.0082C9.85538 10.937 9.99905 11.0558 10.0047 11.2486C10.0003 11.2615 9.99527 11.2748 9.98971 11.2888L10.0037 11.2924C10.0048 11.2774 10.0052 11.2628 10.0047 11.2486C10.0434 11.1373 10.0407 11.0669 10.0049 10.9899C9.99817 10.9753 9.99022 10.9602 9.97927 10.9408C9.97907 10.9404 9.97885 10.94 9.9786 10.9396C9.97288 10.9295 9.95419 10.8963 9.95825 10.8898C9.93974 10.9002 9.92477 10.8918 9.91424 10.87C9.90701 10.855 9.90225 10.837 9.89464 10.8008L9.89279 10.792C9.88313 10.7461 9.87694 10.7267 9.86843 10.7207L9.86862 10.7079C10.0936 10.5611 10.3209 10.4499 10.5911 10.3772C10.605 10.5137 10.6402 10.5832 10.7124 10.5705C10.7468 10.5625 10.7804 10.5553 10.814 10.5487C10.8291 10.556 10.8467 10.558 10.867 10.5545C10.8166 10.5633 10.767 10.5734 10.7152 10.5855C10.6304 10.6004 10.5914 10.5234 10.5859 10.3853C10.3294 10.4633 10.1056 10.5721 9.88427 10.7157C9.89278 10.7273 9.89847 10.7481 9.90701 10.7887L9.90886 10.7975C9.91619 10.8324 9.92077 10.8497 9.92723 10.8631C9.93449 10.8781 9.94133 10.8819 9.9611 10.8792L9.99181 10.933C10.0029 10.9528 10.0111 10.9682 10.018 10.9832C10.0599 11.0733 10.0586 11.1555 10.0031 11.2947L9.98917 11.2911C10.005 11.0841 9.8599 10.9519 9.74596 11.021C9.73071 11.0324 9.71941 11.0407 9.70505 11.051L9.70441 11.0514C9.68313 11.0667 9.67052 11.0758 9.65236 11.0891C9.49393 11.2051 9.36584 11.2188 9.26149 11.1426C9.17531 11.0797 9.10834 10.9598 9.04577 10.7776C8.95577 10.516 8.84603 10.3649 8.58279 10.0868L8.56254 10.0654C8.28686 9.7741 8.16701 9.60416 8.0729 9.30787C7.98501 9.03146 8.17489 8.83948 8.35562 8.91634C8.36792 8.92156 8.38028 8.9275 8.39275 8.93417C8.45095 8.96531 8.51068 9.01133 8.58972 9.08346C8.61679 9.10817 8.69612 9.18394 8.75754 9.24262C8.77108 9.25554 8.78374 9.26764 8.79478 9.27818ZM10.8646 10.5394L10.867 10.5545L10.8646 10.5394C10.8646 10.5394 10.8646 10.5394 10.8646 10.5394ZM10.8646 10.5394C10.7932 10.5519 10.7591 10.4785 10.7446 10.3357C10.8817 10.3096 11.0323 10.2852 11.1919 10.2715C11.3849 10.2549 11.5821 10.2137 11.7655 10.1511C11.8035 10.3189 11.8607 10.4173 11.9446 10.3878C12.0318 10.3585 12.1107 10.3271 12.1826 10.2927C12.1843 10.2919 12.186 10.2911 12.1878 10.2902L12.1816 10.2764C12.18 10.2771 12.1785 10.2779 12.1769 10.2786C12.1784 10.2779 12.18 10.2772 12.1815 10.2764L12.1877 10.2903C12.186 10.2911 12.1843 10.2919 12.1826 10.2927C12.1598 10.3032 12.139 10.307 12.1198 10.3047C12.0642 10.3289 12.0044 10.3516 11.9401 10.3733C11.869 10.3982 11.8149 10.3051 11.7702 10.1417C11.5786 10.1987 11.3826 10.2397 11.1907 10.2562C11.0304 10.27 10.8791 10.2945 10.7358 10.3291C10.7431 10.4501 10.7665 10.5257 10.814 10.5487C10.8309 10.5454 10.8477 10.5423 10.8646 10.5394ZM8.79478 9.27818C8.80685 9.28847 8.819 9.29999 8.83116 9.31276L8.82116 9.32387C8.81431 9.31743 8.80132 9.30508 8.78474 9.28925C8.79665 9.29939 8.80872 9.31083 8.82087 9.32358L8.83087 9.31247C8.82408 9.3061 8.81122 9.29386 8.79478 9.27818Z" fill="black"/>
<path fill-rule="evenodd" clip-rule="evenodd" d="M13.7459 12.9047C13.6499 13.314 13.7627 13.7757 14.0219 14.0234L14.0218 14.0348C13.6638 14.3581 13.2857 14.6112 12.8866 14.8148C12.7693 14.8747 12.6694 14.9418 12.5601 15.0294C12.5331 15.0512 12.5062 15.0734 12.4716 15.1027C12.4747 15.1001 12.4056 15.1587 12.3866 15.1747C12.3013 15.2462 12.2377 15.2943 12.1692 15.3365C12.5655 15.407 13.0162 15.7911 13.3179 16.2942C13.6748 16.8892 14.03 17.1812 14.6079 17.4837C14.9292 17.652 14.9125 17.8694 14.6542 18.191C14.4821 18.4051 14.4137 18.5782 14.3139 18.9646C14.2051 19.3855 14.1294 19.5721 13.9282 19.8105C13.7441 20.0286 13.491 19.952 13.4639 19.7492C13.4542 19.6767 13.4598 19.5946 13.4797 19.4804C13.4887 19.4291 13.5251 19.2536 13.5432 19.1668L13.5531 19.1189C13.5555 19.1068 13.5575 19.095 13.5593 19.0832C13.5589 19.0996 13.5612 19.1149 13.5658 19.1292L13.5573 19.1705C13.5392 19.2574 13.5029 19.4322 13.494 19.4831C13.4744 19.5959 13.4689 19.6765 13.4783 19.7471C13.5037 19.9368 13.7414 20.0087 13.9173 19.8003C14.1166 19.5642 14.1916 19.3794 14.2998 18.9606C14.4002 18.5722 14.4692 18.3975 14.643 18.1811C14.8962 17.866 14.9119 17.6601 14.6014 17.4974C14.0213 17.1937 13.6642 16.9001 13.3055 16.3023C13.0007 15.794 12.5429 15.4082 12.1467 15.3483L12.1441 15.334C12.2189 15.2897 12.2853 15.24 12.3775 15.1627C12.3965 15.1468 12.4656 15.0882 12.4624 15.0908C12.4972 15.0614 12.5241 15.0391 12.5513 15.0173C12.6612 14.9291 12.762 14.8614 12.8802 14.8011C13.2759 14.5991 13.6509 14.3485 14.0061 14.0288L14.0121 14.0347L14.0123 14.0232L14.0061 14.0288C13.747 13.7758 13.6353 13.3124 13.7332 12.9078C13.544 12.6739 13.0715 12.5772 12.708 12.6751C12.3582 12.9347 12.067 13.2672 11.7907 13.6917C11.7146 13.8085 11.5607 14.0763 11.411 14.3369L11.411 14.3369C11.2553 14.6077 11.1042 14.8707 11.0492 14.9489C11.032 14.9735 11.015 14.9966 10.9982 15.0183C10.8312 15.2343 10.8272 15.6661 11.0736 15.871C11.0851 15.8805 11.0963 15.8902 11.1072 15.9001C11.1405 15.9302 11.1707 15.9614 11.2063 16.0014L11.2483 16.0497L11.2483 16.0497L11.2484 16.0498C11.2764 16.0821 11.3101 16.121 11.3255 16.1382C11.379 16.1981 11.4323 16.2533 11.4961 16.3135C11.6607 16.469 11.8835 16.646 12.1995 16.8656C12.3603 16.9773 12.8659 17.3112 12.8634 17.3095C13.0869 17.4603 13.2135 17.5585 13.2837 17.6422C13.5094 17.9109 13.5918 18.0668 13.5639 18.273C13.5524 18.3584 13.549 18.4341 13.5523 18.529L13.5453 18.5277L13.5379 18.5346C13.5343 18.4365 13.5376 18.3588 13.5495 18.2709C13.5766 18.0707 13.4958 17.9178 13.2728 17.6523C13.2038 17.5701 13.0779 17.4724 12.8555 17.3224C12.8582 17.3242 12.3524 16.9901 12.1914 16.8783C11.8749 16.6584 11.6515 16.4809 11.4863 16.3249C11.4222 16.2643 11.3686 16.2088 11.3149 16.1487C11.2994 16.1313 11.2655 16.0922 11.2374 16.0598L11.1957 16.0119C11.1604 15.9722 11.1305 15.9414 11.0976 15.9116C11.0869 15.9019 11.0759 15.8924 11.0646 15.883C10.8111 15.6722 10.8152 15.2308 10.9869 15.0087C11.0035 14.9871 11.0204 14.9642 11.0375 14.9398C11.092 14.8622 11.2425 14.6004 11.3977 14.3303L11.3977 14.3303L11.3977 14.3303L11.3977 14.3303L11.3977 14.3303L11.3977 14.3303L11.3977 14.3303C11.5478 14.0692 11.7022 13.8005 11.7787 13.683C12.0559 13.2572 12.3482 12.9234 12.702 12.6615C13.0728 12.561 13.551 12.6589 13.7459 12.9047ZM13.5387 18.5531L13.5379 18.5346L13.5367 18.5357C13.5371 18.5417 13.5378 18.5475 13.5387 18.5531ZM13.5562 18.6066C13.5476 18.5905 13.5417 18.5727 13.5387 18.5531C13.5411 18.6061 13.5454 18.6652 13.5513 18.7349L13.5523 18.7465L13.5499 18.7484C13.5512 18.7626 13.5532 18.776 13.5559 18.7888C13.5672 18.9283 13.5695 19.0005 13.5613 19.0679L13.5603 19.0684C13.5597 19.0735 13.5594 19.0784 13.5593 19.0832L13.5613 19.0679L13.5708 19.0625L13.5763 19.0654C13.5757 19.0708 13.575 19.0761 13.5743 19.0814L13.5739 19.0812C13.5741 19.0776 13.5743 19.074 13.5748 19.0703L13.5643 19.0762L13.5739 19.0812C13.5739 19.0823 13.5739 19.0833 13.5738 19.0844C13.572 19.0968 13.5699 19.1093 13.5673 19.1221L13.5658 19.1292C13.5968 19.2239 13.7325 19.2715 13.8949 19.2465L13.8971 19.2321L13.5763 19.0654C13.5829 19.0083 13.5821 18.9472 13.5748 18.8459C13.6271 18.9525 13.7627 18.9865 14.0486 18.9615L14.0507 18.9468L13.5667 18.7434L13.5658 18.7335C13.5618 18.6869 13.5586 18.645 13.5562 18.6066ZM13.5532 18.5513C13.554 18.569 13.555 18.5874 13.5562 18.6066C13.6195 18.7255 13.8298 18.7478 14.131 18.6549L14.1303 18.6401L13.5523 18.529L13.5529 18.5447L13.5522 18.5445L13.5513 18.5346L13.5427 18.5427L13.5522 18.5445L13.5532 18.5513ZM14.0969 18.6492C13.78 18.7407 13.5771 18.698 13.5532 18.5513L13.5529 18.5447L14.0969 18.6492ZM14.0969 18.6492L14.1269 18.6403L14.1277 18.6551L14.0969 18.6492ZM13.5681 18.7605L13.5667 18.7434L13.5599 18.7406L13.5523 18.7465L13.5559 18.7888C13.5602 18.8097 13.5665 18.8287 13.5748 18.8459C13.5735 18.8274 13.572 18.8076 13.5703 18.7862C13.5994 18.9232 13.715 18.9714 14.0163 18.9488L14.0453 18.961L14.0474 18.9463L14.0163 18.9488L13.5681 18.7605ZM13.5658 18.7595C13.567 18.7688 13.5684 18.7777 13.5703 18.7862L13.5681 18.7605L13.5658 18.7595ZM13.5658 18.7595L13.5644 18.7469L13.5545 18.7548L13.5658 18.7595ZM13.869 19.2345L13.5743 19.0814C13.5741 19.0824 13.574 19.0834 13.5738 19.0844C13.5725 19.1913 13.7016 19.2531 13.869 19.2345ZM13.869 19.2345L13.8906 19.2458L13.8928 19.2313C13.8848 19.2326 13.8768 19.2336 13.869 19.2345Z" fill="black"/>
<path fill-rule="evenodd" clip-rule="evenodd" d="M13.2616 13.7339C13.4753 13.6182 13.5642 13.5612 13.719 13.4241L13.7308 13.4286C13.7329 13.4405 13.7361 13.4562 13.7394 13.4725C13.7442 13.4961 13.7493 13.5211 13.7519 13.5384C13.6137 13.6553 13.5332 13.7057 13.3339 13.8136L13.2929 13.836C13.0839 13.9512 12.9425 14.0644 12.7361 14.3075C12.4782 14.6111 12.0899 14.9592 11.8612 15.0942L11.7968 15.0161C12.0155 14.8808 12.4026 14.5337 12.6594 14.2312C12.8672 13.9867 13.0099 13.8723 13.2206 13.7562L13.2616 13.7339ZM13.7165 13.4314L13.7283 13.4358C13.7252 13.4386 13.722 13.4414 13.7189 13.4442C13.718 13.4396 13.7172 13.4353 13.7165 13.4314ZM13.7189 13.4442C13.5688 13.5762 13.4785 13.6337 13.2683 13.7475L13.2274 13.7698C13.0181 13.885 12.8768 13.9983 12.6703 14.2414C12.4126 14.545 12.0243 14.8931 11.8055 15.0171L11.8625 15.0821C12.0811 14.9469 12.4683 14.5998 12.7252 14.2973C12.9329 14.0528 13.0756 13.9385 13.2861 13.8224L13.3273 13.8C13.5257 13.6926 13.6055 13.6426 13.7404 13.5349C13.7343 13.5161 13.7248 13.4744 13.7189 13.4442Z" fill="black"/>
<path fill-rule="evenodd" clip-rule="evenodd" d="M12.597 15.8967L12.6059 15.8846C12.6663 15.9314 12.7236 15.9803 12.7775 16.0313L12.768 16.0429L12.597 15.8967ZM12.5973 15.8969C12.6573 15.9434 12.7142 15.992 12.7677 16.0426L12.7772 16.031L12.6062 15.8849L12.5973 15.8969ZM13.5606 17.0075C13.5608 17.0077 13.561 17.0079 13.5611 17.008L13.5724 16.9963L13.5722 16.9961C13.5723 16.9962 13.5724 16.9963 13.5725 16.9964L13.5613 17.0082L13.5606 17.0075ZM13.4396 16.8801L13.5606 17.0075C13.5211 16.9682 13.481 16.926 13.4396 16.8801ZM13.4392 16.8796C13.4393 16.8798 13.4395 16.8799 13.4396 16.8801L13.4392 16.8796L13.4392 16.8796ZM13.4507 16.8682L13.4392 16.8796C13.4391 16.8796 13.4391 16.8795 13.4391 16.8795L13.4506 16.8681L13.4507 16.8682ZM13.4512 16.8686L13.5722 16.9961C13.5326 16.9568 13.4926 16.9145 13.4512 16.8686ZM13.4512 16.8686L13.4507 16.8682L13.4507 16.8682C13.4509 16.8683 13.451 16.8685 13.4512 16.8686Z" fill="black"/>
<path fill-rule="evenodd" clip-rule="evenodd" d="M11.8748 15.6733L11.8708 15.6598C11.8766 15.6603 11.8825 15.6609 11.8883 15.6615L11.8748 15.6733ZM12.7257 15.6312C12.7378 15.6606 12.7357 15.6943 12.721 15.7315C12.7076 15.7654 12.685 15.8005 12.6525 15.8413C12.6404 15.8565 12.6284 15.8708 12.5973 15.8969C12.3779 15.7267 12.1543 15.6218 11.9599 15.5992L11.8883 15.6615C12.2847 15.7051 12.7693 16.07 13.0936 16.544C13.407 17.0022 13.7484 17.292 14.1669 17.5214C14.1493 17.5523 14.144 17.5797 14.1389 17.6438L14.1388 17.6455C14.1375 17.6607 14.1368 17.6686 14.1359 17.6777C14.1073 17.9394 13.9906 18.122 13.8332 18.2012C13.7233 18.2564 13.6131 18.2465 13.5687 18.1852C13.5682 18.1692 13.5667 18.1534 13.5641 18.1358L13.5497 18.1382C13.5525 18.1562 13.5591 18.1719 13.5687 18.1852C13.5695 18.2116 13.5676 18.2382 13.5636 18.273C13.5617 18.2894 13.5608 18.2967 13.5601 18.3049C13.5501 18.3963 13.8053 18.4157 13.9899 18.282C14.0735 18.2215 14.172 18.0577 14.2142 17.9242L14.228 17.924C14.2782 18.0718 14.2798 18.1555 14.2234 18.2905C14.179 18.2658 14.135 18.2237 14.1038 18.179C14.1066 18.175 14.1088 18.1719 14.1097 18.1706L14.1092 18.1706L14.0979 18.1703C14.0998 18.1732 14.1017 18.176 14.1036 18.1788C14.1037 18.1788 14.1037 18.1789 14.1038 18.179C14.103 18.18 14.1022 18.1812 14.1013 18.1823C14.0946 18.1919 14.0857 18.2043 14.0819 18.2094C14.0701 18.2254 14.0592 18.2388 14.0471 18.2516C14.0404 18.2587 14.0334 18.2655 14.0263 18.2711C14.0178 18.2778 14.0091 18.2829 14.0004 18.2846C14.0015 18.2865 14.0026 18.2885 14.0037 18.2905C14.04 18.3545 14.1032 18.4148 14.1804 18.4607C14.1672 18.5127 14.1642 18.5258 14.1353 18.6531C14.0773 18.9089 14.0378 19.0312 13.9572 19.1611C13.8606 19.3168 13.7408 19.4009 13.6477 19.3893C13.5856 19.3815 13.5471 19.3331 13.5395 19.2564C13.5461 19.2243 13.5523 19.1944 13.5572 19.1708C13.5388 19.2896 13.5757 19.3649 13.6495 19.3741C13.736 19.3849 13.8511 19.3041 13.945 19.1528C14.0244 19.0248 14.0635 18.9037 14.1212 18.6495C14.1501 18.522 14.1531 18.509 14.1702 18.4656C14.0965 18.4282 14.0328 18.3686 13.9964 18.2959C13.8037 18.4341 13.5336 18.4133 13.5456 18.3032C13.5464 18.2951 13.5472 18.2875 13.5491 18.2712C13.5555 18.2166 13.5564 18.1831 13.5497 18.1382L13.5641 18.1358C13.5779 18.2241 13.7007 18.2508 13.8269 18.1874C13.9796 18.1106 14.0934 17.9326 14.1214 17.676C14.1224 17.6671 14.123 17.6593 14.1242 17.6442L14.1244 17.6425C14.1297 17.5761 14.1353 17.5471 14.1574 17.5243C13.7399 17.3046 13.3967 17.0133 13.0817 16.553C12.7549 16.0752 12.2642 15.7091 11.8696 15.675L11.8655 15.6615L11.9559 15.5857C12.1586 15.6069 12.3846 15.7129 12.5961 15.8857C12.6175 15.8606 12.6293 15.8465 12.6413 15.8315C12.673 15.7918 12.6949 15.7578 12.7075 15.7257C12.7291 15.6711 12.7212 15.6273 12.6765 15.5931C12.6928 15.6053 12.7092 15.618 12.7257 15.6312ZM13.5811 16.6976C13.586 16.7523 13.5353 16.8113 13.4391 16.8786C13.3391 16.7658 13.2433 16.6404 13.1516 16.5014C13.0421 16.3352 12.9103 16.1775 12.7674 16.0316C12.8799 15.9091 12.9295 15.8136 12.8734 15.7614C12.8229 15.7132 12.7739 15.6699 12.7257 15.6312C12.718 15.6126 12.7046 15.5957 12.6849 15.5807C12.7495 15.6288 12.8151 15.6851 12.8831 15.75C12.9494 15.8117 12.8969 15.9126 12.7775 16.0313C12.9209 16.1669 13.0535 16.3256 13.1635 16.4927C13.2548 16.6311 13.3503 16.7559 13.4401 16.8672C13.5508 16.7825 13.5942 16.715 13.5481 16.6562C13.559 16.6702 13.57 16.684 13.5811 16.6976ZM13.5593 16.6465L13.5481 16.6562C13.5481 16.6562 13.5481 16.6562 13.5481 16.6562L13.5593 16.6465ZM14.1836 17.4595C13.9546 17.3301 13.7531 17.181 13.5605 16.9867C13.6715 16.9129 13.7157 16.8387 13.6609 16.7691C13.6259 16.7291 13.5925 16.6888 13.5593 16.6465L13.5593 16.6465C13.5724 16.6632 13.5796 16.6802 13.5811 16.6976C13.6037 16.7253 13.6265 16.7524 13.6499 16.7791C13.6966 16.8384 13.6567 16.9054 13.5511 16.986C13.7463 17.1954 13.9515 17.3465 14.1851 17.4777L14.1958 17.4714C14.1965 17.46 14.2088 17.4459 14.2479 17.4083L14.2546 17.4019C14.2773 17.3799 14.2899 17.3659 14.2977 17.3524C14.3087 17.3331 14.3073 17.3163 14.2905 17.3052C14.2952 17.3098 14.3165 17.2707 14.3257 17.2537C14.3267 17.2519 14.3275 17.2504 14.3282 17.2492C14.3829 17.1498 14.4363 17.1064 14.5632 17.0834C14.4069 17.185 14.3807 17.3751 14.4982 17.4461C14.5152 17.4545 14.5271 17.4603 14.5434 17.4685L14.5439 17.4688C14.5771 17.4854 14.5805 17.4871 14.6016 17.4975C14.7713 17.5811 14.8428 17.6851 14.8327 17.811C14.8243 17.9168 14.7602 18.0353 14.643 18.1811C14.4692 18.3974 14.4002 18.5722 14.2998 18.9606C14.1916 19.3794 14.1166 19.5642 13.9173 19.8003C13.7414 20.0087 13.5037 19.9368 13.4783 19.7471C13.4689 19.6765 13.4744 19.5959 13.494 19.4831C13.5005 19.446 13.5216 19.3431 13.5395 19.2564C13.5369 19.2299 13.538 19.2 13.5431 19.1672C13.5431 19.1671 13.5431 19.167 13.5432 19.1668C13.5484 19.1416 13.5521 19.1239 13.5531 19.1189L13.5672 19.1225C13.5629 19.1393 13.5596 19.1554 13.5572 19.1708C13.5573 19.1707 13.5573 19.1706 13.5573 19.1705C13.5626 19.145 13.5663 19.1271 13.5673 19.1221L13.5532 19.1185C13.5489 19.1354 13.5455 19.1516 13.5431 19.1672C13.525 19.2541 13.4886 19.4292 13.4797 19.4804C13.4598 19.5946 13.4542 19.6767 13.4639 19.7492C13.491 19.952 13.7441 20.0286 13.9282 19.8105C14.1294 19.5721 14.2051 19.3855 14.3139 18.9646C14.4137 18.5782 14.4821 18.4051 14.6541 18.191C14.7731 18.0429 14.8385 17.9221 14.8473 17.8123C14.8579 17.6794 14.7826 17.5697 14.6078 17.4836C14.5867 17.4733 14.5833 17.4716 14.5502 17.455L14.5497 17.4547C14.5333 17.4465 14.5214 17.4406 14.5048 17.4326C14.3908 17.3636 14.4273 17.1655 14.6059 17.0764L14.6019 17.0619C14.4406 17.0837 14.378 17.128 14.3156 17.2415C14.3103 17.2511 14.2953 17.2795 14.2865 17.2961C14.2833 17.3021 14.281 17.3066 14.2803 17.3079C14.2919 17.3242 14.2926 17.3316 14.2852 17.3445C14.2784 17.3563 14.2664 17.3696 14.2447 17.3906L14.2381 17.397C14.2034 17.4304 14.1887 17.4458 14.1836 17.4595ZM14.5632 17.0834C14.5747 17.076 14.5868 17.069 14.5997 17.0626L14.6037 17.0771C14.5894 17.079 14.576 17.0811 14.5632 17.0834ZM12.6849 15.5807C12.6837 15.5797 12.6824 15.5788 12.6812 15.5779L12.6728 15.5904C12.6741 15.5913 12.6753 15.5922 12.6765 15.5931C12.6752 15.5922 12.674 15.5913 12.6728 15.5903L12.6811 15.5778C12.6824 15.5787 12.6837 15.5797 12.6849 15.5807ZM14.1126 18.1656C14.1427 18.2102 14.1862 18.2527 14.22 18.2811C14.2627 18.1599 14.2635 18.0816 14.2211 17.9498C14.1959 18.0217 14.1565 18.0998 14.1126 18.1656Z" fill="black"/>
<path fill-rule="evenodd" clip-rule="evenodd" d="M14.6239 16.8735L14.5089 16.7275L14.4962 16.7306L14.4543 16.921L14.2735 16.9192L14.268 16.9316L14.3845 17.0848L14.2709 17.231L14.2766 17.2433L14.4636 17.2445L14.5008 17.4287L14.5135 17.4317L14.6308 17.2791L14.7931 17.3624L14.8032 17.3537L14.7608 17.1632L14.9246 17.0827L14.9245 17.069L14.7558 16.9832L14.7995 16.7998L14.7892 16.7913L14.6239 16.8735ZM14.7821 16.8117L14.625 16.8899L14.6163 16.8878L14.5067 16.7487L14.5104 16.7341L14.4977 16.7372L14.5067 16.7487L14.4615 16.9303L14.288 16.9342L14.2794 16.9221L14.2738 16.9345L14.288 16.9342L14.396 17.0847L14.2911 17.2285L14.2767 17.228L14.2825 17.2403L14.2911 17.2285L14.4708 17.235L14.5115 17.4106L14.5022 17.4221L14.5149 17.4251L14.5115 17.4106L14.6282 17.2673L14.7861 17.3424L14.789 17.3572L14.7991 17.3485L14.7861 17.3424L14.7504 17.1581L14.9054 17.0758L14.9181 17.0827L14.918 17.069L14.9054 17.0758L14.7455 16.9885L14.7821 16.8117ZM14.7821 16.8117L14.7955 16.8051L14.7852 16.7966L14.7821 16.8117Z" fill="black"/>
<path fill-rule="evenodd" clip-rule="evenodd" d="M14.0586 12.8538C14.4441 12.7364 14.7686 12.4028 14.8431 12.0435L14.8527 12.0379C15.2986 12.2019 15.6967 12.4193 16.0638 12.68C16.2161 12.7882 16.307 12.8316 16.5741 12.9399C16.7014 12.9915 16.7764 13.0258 16.8526 13.0714C16.7127 12.6758 16.8042 12.074 17.0682 11.5481C17.3806 10.9261 17.4438 10.4574 17.4045 9.78041C17.3826 9.40403 17.5701 9.31052 17.9647 9.38465C18.2221 9.43305 18.4058 9.40911 18.7528 9.31286L18.7797 9.30538C19.1733 9.19602 19.3681 9.17168 19.6635 9.23508C19.9353 9.29337 19.9987 9.562 19.845 9.68787C19.7867 9.73561 19.7117 9.77285 19.5958 9.81506C19.5593 9.82835 19.4467 9.86611 19.3653 9.8934L19.3653 9.89341C19.3254 9.90678 19.293 9.91764 19.2808 9.92189L19.2686 9.92627C19.2806 9.91861 19.2908 9.90963 19.2994 9.8995L19.3611 9.87876L19.3612 9.87875C19.4425 9.85146 19.5547 9.81383 19.591 9.80062C19.7055 9.75891 19.7793 9.72229 19.836 9.67581C19.9799 9.55804 19.9204 9.30576 19.6606 9.25006C19.368 9.18725 19.175 9.21136 18.7835 9.32017L18.7565 9.32765C18.4076 9.42441 18.2221 9.44859 17.9621 9.3997C17.5754 9.32706 17.3978 9.41564 17.419 9.77948C17.4585 10.4591 17.3949 10.9304 17.0811 11.5553C16.8143 12.0866 16.725 12.6958 16.8736 13.0861L16.8631 13.0955C16.7812 13.0448 16.7054 13.0095 16.5689 12.9542C16.3007 12.8455 16.2091 12.8017 16.0556 12.6927C15.6917 12.4341 15.2972 12.2184 14.8556 12.0552L14.8574 12.0468L14.8478 12.0524L14.8556 12.0552C14.7765 12.417 14.4501 12.7504 14.0674 12.8637C13.969 13.1527 14.1254 13.6304 14.3881 13.9123C14.53 13.981 14.6775 14.038 14.831 14.0846C15.3041 14.228 15.6916 14.2593 16.4614 14.2612C16.8566 14.2621 17.0108 14.2677 17.1757 14.2953C17.4374 14.3391 17.7956 14.1269 17.8413 13.8005C17.8489 13.7463 17.8597 13.6966 17.8754 13.6398C17.8852 13.6046 17.928 13.4645 17.9239 13.4783C17.9457 13.4056 17.9627 13.3421 17.9793 13.2688C18.0334 13.0301 18.073 12.722 18.0987 12.2794C18.1086 12.1088 18.1113 12.0412 18.1242 11.677C18.1404 11.2208 18.1554 11.0355 18.1972 10.9052C18.3063 10.5654 18.3935 10.4128 18.5774 10.3351C18.6511 10.3039 18.7194 10.2665 18.7943 10.2175L18.7968 10.2246L18.8061 10.2278C18.7289 10.2786 18.6588 10.3172 18.5829 10.3492C18.4043 10.4247 18.3187 10.5743 18.211 10.9101C18.1698 11.0383 18.1549 11.2233 18.1388 11.6776C18.1259 12.0419 18.1232 12.1096 18.1132 12.2803C18.0874 12.7238 18.0478 13.0327 17.9935 13.2723C17.9768 13.346 17.9596 13.4099 17.9378 13.4829C17.9418 13.4693 17.8991 13.6091 17.8894 13.644C17.8738 13.7003 17.8632 13.7493 17.8557 13.8027C17.8087 14.1384 17.4425 14.3554 17.1734 14.3104C17.0096 14.283 16.8557 14.2774 16.4614 14.2765C15.6902 14.2746 15.3018 14.2432 14.827 14.0993C14.6727 14.0525 14.5246 13.9952 14.3798 13.9246C14.1115 13.6373 13.9532 13.1538 14.0586 12.8538ZM18.8211 10.2179L18.8061 10.2278L18.8077 10.2284C18.8124 10.225 18.8168 10.2215 18.8211 10.2179ZM18.8563 10.1755C18.8473 10.1912 18.8356 10.2054 18.8211 10.2179C18.8453 10.2017 18.8703 10.1843 18.8964 10.1655C18.9111 10.1549 18.9434 10.1311 18.9737 10.1088L18.9766 10.1101C18.9876 10.1017 18.9978 10.0932 19.007 10.0844L19.0374 10.062C19.0902 10.0237 19.1309 9.99643 19.1703 9.97366C19.1934 9.96027 19.2157 9.94877 19.2374 9.93907L19.2402 9.94061C19.2505 9.93655 19.26 9.93175 19.2686 9.92627C19.2583 9.93013 19.2479 9.93439 19.2374 9.93907L19.2286 9.93407L19.228 9.92666C19.2334 9.92423 19.2387 9.9219 19.244 9.91967L19.2442 9.92184C19.2407 9.92352 19.2371 9.92509 19.2334 9.92655L19.245 9.93309L19.2442 9.92184C19.2492 9.9194 19.2539 9.91675 19.2584 9.91387C19.2644 9.91157 19.2703 9.9094 19.2762 9.90736L19.2994 9.8995C19.3643 9.82246 19.3304 9.67922 19.2168 9.54719L19.2019 9.55242L19.228 9.92666C19.207 9.93621 19.1855 9.94739 19.1633 9.96026C19.1274 9.98103 19.0905 10.0054 19.0447 10.0382C19.1061 9.93742 19.0662 9.79714 18.903 9.55002L18.8898 9.55547L18.964 10.0973C18.9342 10.1193 18.9026 10.1425 18.8882 10.1528L18.8563 10.1755ZM18.8123 10.2056C18.8267 10.196 18.8413 10.186 18.8563 10.1755C18.923 10.0584 18.8362 9.85599 18.6088 9.62836L18.5969 9.63646L18.7943 10.2175L18.807 10.2092L18.8072 10.2099L18.7995 10.2157L18.8105 10.2195L18.8072 10.2099L18.8123 10.2056ZM18.6212 9.66221C18.8551 9.90464 18.9214 10.1105 18.8123 10.2056L18.807 10.2092L18.6212 9.66221ZM18.6212 9.66221L18.5988 9.63942L18.6107 9.63132L18.6212 9.66221ZM18.9774 10.0874L18.964 10.0973L18.9651 10.1049L18.9737 10.1088L18.99 10.0968L18.99 10.0968L19.007 10.0844C19.0221 10.0698 19.0347 10.0545 19.0447 10.0382L19.0292 10.0494L18.9976 10.0726C19.0959 9.97752 19.0779 9.84831 18.9087 9.58577L18.9043 9.55329L18.8911 9.55873L18.9087 9.58577L18.9774 10.0874ZM18.9778 10.0901C18.9849 10.0844 18.9915 10.0785 18.9976 10.0726L18.9816 10.0844L18.9774 10.0874L18.9778 10.0901ZM18.9778 10.0901L18.9681 10.0976L18.9795 10.1028L18.9778 10.0901ZM19.2201 9.57679L19.244 9.91967C19.2488 9.91765 19.2536 9.91572 19.2584 9.91387C19.3475 9.85666 19.329 9.71426 19.2201 9.57679ZM19.2201 9.57679L19.2183 9.55144L19.2034 9.55667C19.2092 9.56336 19.2147 9.57007 19.2201 9.57679Z" fill="black"/>
<path fill-rule="evenodd" clip-rule="evenodd" d="M14.6097 12.6632C14.5751 12.6479 14.5387 12.633 14.5004 12.6185L14.4981 12.6055C14.5075 12.5971 14.5193 12.5859 14.5315 12.5744C14.5482 12.5586 14.5657 12.5421 14.5783 12.5314C14.5973 12.5391 14.6159 12.5469 14.634 12.5549C14.7749 12.6169 14.8366 12.6542 15.0231 12.7798C15.2468 12.9305 15.4014 13.001 15.7205 13.0706C16.1 13.1534 16.5814 13.3323 16.8068 13.4727L16.7746 13.5703C16.5536 13.4391 16.0738 13.2607 15.6959 13.1784C15.3749 13.1084 15.2186 13.0371 14.9935 12.8855C14.8087 12.761 14.7482 12.7243 14.6097 12.6632ZM14.5076 12.6171L14.5053 12.6041C14.5092 12.6056 14.5131 12.607 14.5169 12.6085C14.5136 12.6116 14.5105 12.6145 14.5076 12.6171ZM14.5811 12.5435C14.5687 12.5585 14.5393 12.5878 14.5169 12.6085C14.5513 12.6217 14.584 12.6352 14.6154 12.6491C14.7548 12.7107 14.8159 12.7477 15.0014 12.8726C15.2251 13.0233 15.3797 13.0938 15.6988 13.1634C16.0781 13.246 16.5594 13.425 16.7711 13.5619L16.7961 13.4775C16.5756 13.3465 16.0957 13.168 15.7176 13.0855C15.3966 13.0156 15.2403 12.9443 15.0152 12.7927C14.8294 12.6675 14.7683 12.6305 14.6283 12.569C14.6273 12.5686 14.6264 12.5681 14.6254 12.5677C14.6084 12.5602 14.5913 12.5528 14.5811 12.5435Z" fill="black"/>
<path fill-rule="evenodd" clip-rule="evenodd" d="M17.4917 11.1457C17.5105 11.0894 17.5266 11.0363 17.5404 10.985L17.5243 10.9811L17.5243 10.9813L17.5243 10.9813C17.5242 10.9813 17.5242 10.9814 17.5242 10.9814L17.4758 11.1411C17.4757 11.1412 17.4757 11.1412 17.4757 11.1413L17.4757 11.1413L17.4757 11.1414L17.4917 11.1457ZM17.4757 11.1413L17.4917 11.1455L17.5404 10.9852L17.5243 10.9813L17.5242 10.9814C17.5105 11.0324 17.4944 11.0852 17.4758 11.1411L17.4757 11.1413ZM15.0002 12.2797C14.9412 12.2567 14.8745 12.2224 14.8097 12.1824L14.8065 12.1734L14.8146 12.1475L14.8146 12.1475C14.8259 12.1106 14.839 12.0684 14.8527 12.0379C15.2986 12.2019 15.6967 12.4193 16.0638 12.68C16.2161 12.7882 16.307 12.8316 16.5741 12.9399C16.7114 12.9955 16.7878 13.0311 16.8731 13.0928L16.7817 13.2402C16.6677 13.1701 16.3861 13.0439 16.1772 12.9639C16.1764 12.9855 16.1669 13.0103 16.1493 13.0425C16.1453 13.0499 16.141 13.0573 16.1351 13.0674C16.1077 13.1144 16.1023 13.1245 16.0975 13.1409C16.0918 13.1604 16.0959 13.1706 16.1134 13.176L16.1093 13.1907L16.1092 13.1907L16.1132 13.176L16.0823 13.1669C16.0797 13.1584 16.0802 13.1481 16.0836 13.1364C16.089 13.1181 16.0944 13.108 16.1227 13.0594C16.1285 13.0494 16.1327 13.0421 16.1366 13.035C16.1561 12.9993 16.1647 12.9739 16.1623 12.9537L16.172 12.9456C16.3826 13.0257 16.6722 13.1552 16.7791 13.2298L16.8631 13.0955C16.7812 13.0448 16.7054 13.0095 16.5689 12.9542C16.3007 12.8455 16.2091 12.8017 16.0556 12.6927C15.6895 12.4326 15.2926 12.2159 14.8573 12.047C14.85 12.0784 14.835 12.1313 14.8222 12.1723L14.8171 12.1692L14.8203 12.1782L14.8222 12.1723C14.8846 12.2106 14.9488 12.2436 15.0097 12.2747C15.0075 12.2825 15.0048 12.2904 15.0016 12.2985C14.9832 12.3445 14.9514 12.3902 14.8988 12.4526L14.8734 12.4822L14.8431 12.5177C14.8235 12.541 14.8103 12.5583 14.8008 12.5734C14.7792 12.6076 14.7791 12.6266 14.8018 12.6382C14.8244 12.6501 14.8845 12.6882 14.9497 12.7308C14.9499 12.7428 14.9548 12.7522 14.9651 12.759L14.9728 12.7461L14.9729 12.7461L14.9651 12.759C14.892 12.7108 14.8199 12.6648 14.7953 12.6519C14.7627 12.6353 14.7629 12.6058 14.7886 12.5649C14.7986 12.5491 14.8122 12.5313 14.8322 12.5076L14.8627 12.4718L14.8879 12.4424C14.9396 12.3813 14.9706 12.3366 14.9882 12.2925L14.9887 12.2914C14.9915 12.2843 14.9941 12.2777 15.0002 12.2797ZM14.9728 12.7461L14.9497 12.7308C14.9494 12.7152 14.9574 12.6952 14.9724 12.6714C14.9915 12.6407 15.0182 12.6077 15.0691 12.5496L15.0756 12.5422C15.1696 12.4348 15.1982 12.397 15.1975 12.3714L15.2071 12.3639C15.3246 12.4047 15.4344 12.4637 15.5769 12.5559L15.582 12.5593L15.582 12.5593L15.582 12.5593L15.582 12.5593L15.582 12.5593L15.5821 12.5593C15.6108 12.5783 15.7508 12.6707 15.7907 12.6952C15.8657 12.7413 15.9242 12.7703 15.9825 12.7949C15.9761 12.8204 15.9642 12.8482 15.9466 12.8807C15.9376 12.8973 15.9277 12.9142 15.9142 12.9362L15.9135 12.9373C15.8695 13.0091 15.8608 13.0234 15.8544 13.0387C15.8528 13.0424 15.8513 13.0463 15.8495 13.0511L15.8493 13.0517C15.8374 13.0832 15.8418 13.099 15.8661 13.1053C15.8928 13.1115 15.9372 13.124 16.0114 13.1459L16.0171 13.1476L16.0676 13.1626L16.0823 13.1669C16.0857 13.178 16.0945 13.1862 16.1092 13.1907L16.0636 13.1773L16.0131 13.1623L16.0075 13.1606C15.9336 13.1388 15.8893 13.1263 15.8628 13.1202C15.8283 13.1112 15.821 13.0852 15.8357 13.0461L15.8361 13.0451L15.8361 13.0451L15.8361 13.0451L15.8361 13.0451C15.8381 13.04 15.8396 13.0359 15.8413 13.0319C15.8479 13.0162 15.8569 13.0015 15.9009 12.9296L15.902 12.9279C15.9153 12.9061 15.9251 12.8894 15.9339 12.8732C15.94 12.8619 15.9454 12.8513 15.9503 12.8415L15.9503 12.8415C15.9591 12.8241 15.9664 12.8097 15.9735 12.8003C15.9189 12.7846 15.8594 12.7552 15.7833 12.7084C15.743 12.6837 15.6016 12.5903 15.574 12.5721L15.5739 12.572L15.5739 12.572L15.5693 12.569C15.4312 12.4796 15.3243 12.4218 15.2113 12.3815C15.2063 12.4116 15.1753 12.4509 15.0863 12.5525L15.0798 12.56C15.0295 12.6175 15.0031 12.65 14.9845 12.6798C14.9623 12.7153 14.9588 12.7368 14.9728 12.7461ZM18.0857 12.6987C18.0962 12.6061 17.9885 12.5416 17.7882 12.5001C17.628 12.467 17.4132 12.4501 17.1854 12.4481L17.1835 12.4632L18.0767 12.7052L18.0857 12.6987ZM18.0718 12.688L18.0803 12.6903L18.0712 12.6968C18.0716 12.6939 18.0718 12.691 18.0718 12.688ZM17.2459 12.4643C17.4502 12.4685 17.6405 12.4852 17.7854 12.5151C17.9713 12.5536 18.0728 12.6117 18.0718 12.688L17.2459 12.4643ZM17.2459 12.4643C17.2259 12.4639 17.2056 12.4636 17.1853 12.4634L17.1872 12.4484L17.2459 12.4643ZM17.103 12.402C17.1126 12.3239 17.1259 12.2479 17.143 12.1742L17.1266 12.1714L17.0865 12.3999L17.103 12.402ZM17.1029 12.4023L17.0864 12.4002C17.0961 12.3217 17.1095 12.2452 17.1267 12.171L17.1431 12.1738L17.1029 12.4023Z" fill="black"/>
<path fill-rule="evenodd" clip-rule="evenodd" d="M17.3998 11.6334C17.1691 12.1695 17.1125 12.7988 17.2817 13.1746L17.2725 13.185L17.1647 13.1409C17.081 12.9458 17.0554 12.6873 17.0922 12.4086L17.0554 12.4007C17.0251 12.3943 17.0013 12.3902 16.9782 12.3876C16.8768 12.3766 16.8188 12.4019 16.8107 12.4818C16.8126 12.4606 16.8149 12.439 16.8176 12.4171C16.8465 12.3764 16.9023 12.364 16.9797 12.3724C17.0034 12.375 17.0276 12.3792 17.0582 12.3857C17.0666 12.3874 17.0929 12.3931 17.1009 12.402C17.0702 12.6865 17.0955 12.9423 17.1739 13.1306L17.2611 13.1643C17.2635 13.17 17.266 13.1756 17.2685 13.1811L17.2776 13.1707L17.2611 13.1643C17.0989 12.7822 17.1576 12.159 17.3866 11.6271C17.6078 11.1128 17.6761 10.6574 17.6559 10.1625C17.6896 10.1631 17.7155 10.1541 17.7684 10.1281L17.7709 10.1268C17.7854 10.1197 17.7922 10.1164 17.8005 10.1126C18.0306 10.0077 18.2396 10.0226 18.3835 10.1261C18.4836 10.1981 18.5305 10.3025 18.5029 10.3736C18.4905 10.3816 18.4794 10.3904 18.4641 10.4033L18.4733 10.4152C18.487 10.4035 18.4968 10.3893 18.5029 10.3736C18.5227 10.3608 18.5461 10.3498 18.5959 10.3272L18.6056 10.3227C18.686 10.2859 18.5745 10.0442 18.3719 9.94318C18.3719 9.94318 18.3719 9.94318 18.3719 9.94318C18.2802 9.8974 18.0959 9.88973 17.9645 9.91808L17.9575 9.90563C18.0544 9.78594 18.1226 9.74275 18.2621 9.72659C18.2639 9.77942 18.2512 9.84049 18.2299 9.89116L18.22 9.88991L18.2203 9.89036L18.2257 9.90079C18.2271 9.8977 18.2285 9.89455 18.2298 9.89137C18.2298 9.8913 18.2299 9.89123 18.2299 9.89116L18.2351 9.89182C18.2766 9.89681 18.3039 9.90128 18.3272 9.90998C18.3418 9.91542 18.3548 9.9225 18.3687 9.9324C18.3698 9.93043 18.3709 9.92843 18.372 9.92642C18.4066 9.8613 18.4248 9.77368 18.424 9.68057C18.4625 9.66968 18.5002 9.65829 18.554 9.64147C18.7253 9.58796 18.7547 9.57922 18.8276 9.56236C18.9316 9.53833 19.0229 9.52829 19.1133 9.53341C19.29 9.54343 19.4193 9.61026 19.4563 9.70069C19.481 9.76094 19.4604 9.82016 19.4012 9.86533C19.3874 9.86996 19.3739 9.87448 19.3612 9.87874C19.3474 9.88336 19.3345 9.88769 19.323 9.89155C19.429 9.84887 19.4721 9.77801 19.4429 9.70672C19.4086 9.62263 19.2843 9.55842 19.1125 9.54868C19.0236 9.54364 18.9335 9.55354 18.8308 9.57729C18.7583 9.59403 18.7291 9.60275 18.5582 9.65613C18.5042 9.67298 18.4664 9.6844 18.4332 9.6874C18.4391 9.77313 18.4218 9.86077 18.38 9.93032C18.5904 10.0365 18.7082 10.2924 18.6115 10.3366L18.6017 10.3412C18.5217 10.3776 18.5114 10.383 18.4732 10.4153L18.4641 10.4034C18.5301 10.3467 18.4907 10.2218 18.3753 10.1388C18.2356 10.0383 18.032 10.0238 17.8063 10.1267C17.7981 10.1304 17.7915 10.1336 17.7771 10.1407L17.7746 10.1419C17.7197 10.169 17.6923 10.1785 17.6631 10.1697C17.6908 10.6588 17.6221 11.1167 17.3998 11.6334ZM19.3271 9.90622C19.3561 9.89458 19.3809 9.88078 19.4012 9.86533C19.4757 9.8403 19.5604 9.81177 19.591 9.80062C19.7055 9.75891 19.7793 9.72229 19.836 9.67581C19.9799 9.55804 19.9204 9.30576 19.6606 9.25006C19.368 9.18725 19.175 9.21136 18.7835 9.32017L18.7565 9.32765C18.4076 9.42441 18.2221 9.44859 17.9621 9.3997C17.7832 9.36609 17.6535 9.36706 17.562 9.41224C17.4531 9.46602 17.403 9.58309 17.419 9.77929C17.4196 9.78739 17.4201 9.79259 17.4205 9.79779C17.4212 9.80718 17.4219 9.81658 17.4238 9.843L17.4241 9.84617C17.4254 9.86455 17.4266 9.87879 17.4283 9.89897C17.4283 10.0412 17.2587 10.1124 17.0969 10.0212C17.0885 10.0107 17.0799 9.99949 17.0712 9.98742L17.0612 9.99835C17.073 10.0069 17.0849 10.0145 17.0969 10.0212C17.1446 10.0809 17.1874 10.1157 17.232 10.1338C17.2738 10.1507 17.3057 10.1532 17.394 10.1515C17.4082 10.1512 17.4146 10.1511 17.4159 10.1584C17.4166 10.1366 17.4307 10.1271 17.4536 10.1282C17.4694 10.129 17.4869 10.1337 17.5195 10.1445L17.5238 10.1459C17.5724 10.1621 17.5907 10.1662 17.6003 10.1612L17.6108 10.1678C17.6195 10.4453 17.5974 10.7078 17.5223 10.9901C17.4027 10.9345 17.3279 10.9317 17.3022 11.0038C17.2916 11.0389 17.2808 11.073 17.2694 11.107C17.2558 11.1171 17.2454 11.1321 17.2382 11.1523L17.2518 11.1577C17.2518 11.1577 17.2518 11.1577 17.2518 11.1577C17.2578 11.1408 17.2637 11.1239 17.2694 11.107C17.3121 11.0753 17.386 11.0919 17.4896 11.1457C17.4466 11.293 17.3911 11.443 17.3223 11.5958C17.24 11.7783 17.1758 11.9769 17.127 12.18C16.9699 12.1389 16.866 12.1415 16.851 12.2187C16.8366 12.2886 16.8254 12.3544 16.8176 12.4171C16.8061 12.4334 16.7988 12.4542 16.7962 12.48C16.796 12.4818 16.7959 12.4836 16.7957 12.4853L16.8102 12.4866C16.8104 12.485 16.8105 12.4834 16.8107 12.4818C16.8105 12.4834 16.8104 12.4851 16.8102 12.4867L16.7957 12.4854M17.5965 10.1783C17.5826 10.1803 17.5626 10.1748 17.5194 10.1605L17.5151 10.1591C17.4838 10.1487 17.467 10.1442 17.4529 10.1435C17.4372 10.1427 17.4308 10.1471 17.4232 10.1663L17.3943 10.1668C17.3041 10.1686 17.271 10.166 17.2267 10.148C17.1714 10.1256 17.1196 10.0795 17.0596 9.99668L17.0695 9.98576C17.2323 10.1036 17.4138 10.0379 17.4138 9.89967C17.4121 9.88012 17.4109 9.8658 17.4096 9.84735L17.4093 9.84417C17.4074 9.81777 17.4067 9.8084 17.406 9.79903C17.4055 9.79384 17.4051 9.78866 17.4045 9.78059C17.388 9.57853 17.4408 9.45521 17.5558 9.39841C17.6507 9.35151 17.783 9.35052 17.9647 9.38465C18.2221 9.43305 18.4058 9.40911 18.7528 9.31286L18.7797 9.30538C19.1733 9.19602 19.3681 9.17168 19.6635 9.23508C19.9353 9.29337 19.9987 9.562 19.845 9.68787C19.7867 9.73561 19.7117 9.77285 19.5958 9.81506C19.5593 9.82835 19.4467 9.86611 19.3653 9.89341C19.3515 9.89804 19.3386 9.90237 19.3271 9.90622C19.3126 9.91205 19.297 9.91733 19.2804 9.92201L19.2762 9.90736C19.2843 9.90456 19.3011 9.8989 19.323 9.89155C19.3087 9.89732 19.2932 9.90257 19.2766 9.90724L19.2808 9.92189C19.2888 9.91911 19.3054 9.91351 19.3271 9.90622M17.9822 9.89901C18.0541 9.88597 18.1382 9.88277 18.2145 9.88981C18.2362 9.84027 18.2496 9.77942 18.2561 9.73439C18.1347 9.75608 18.0699 9.79451 17.9822 9.89901Z" fill="black"/>
</g>
</svg>
