<svg width="28" height="28" viewBox="0 0 28 28" fill="none" xmlns="http://www.w3.org/2000/svg">
<rect x="0.25" y="4.25" width="27.5" height="19.5" rx="2.75" fill="white" stroke="#D6D8DD" stroke-width="0.5"/>
<mask id="mask0_17_5243" style="mask-type:alpha" maskUnits="userSpaceOnUse" x="0" y="4" width="28" height="20">
<rect x="0.25" y="4.25" width="27.5" height="19.5" rx="2.75" fill="white" stroke="white" stroke-width="0.5"/>
</mask>
<g mask="url(#mask0_17_5243)">
<rect x="-6.31152" y="1.41718" width="2.66667" height="49.3333" transform="rotate(-55 -6.31152 1.41718)" fill="#E3243B"/>
<rect width="2.66667" height="49.3333" transform="matrix(-0.573576 -0.819152 -0.819152 0.573576 35.6295 1.41718)" fill="#E3243B"/>
<path fill-rule="evenodd" clip-rule="evenodd" d="M15.7407 6.66665H13.5925L13.6798 6.61544L12.693 6.04561L13.9688 6.18807L13.7895 5.33331L14.6666 6.04561L15.5438 5.33331L15.3644 6.18807L16.6402 6.04561L15.6534 6.61544L15.7407 6.66665Z" fill="#FAEF32"/>
<path fill-rule="evenodd" clip-rule="evenodd" d="M12.6666 9.16666C12.6666 8.79585 12.6666 8.38227 12.6666 7.99993C12.6666 7.26355 13.2636 6.66666 14 6.66666H15.3333C16.0697 6.66666 16.6666 7.26355 16.6666 7.99993C16.6666 8.38227 16.6666 8.79585 16.6666 9.16666C16.6666 10.9524 14.6666 11.6667 14.6666 11.6667C14.6666 11.6667 12.6666 10.9524 12.6666 9.16666Z" fill="#E3243B"/>
<mask id="mask1_17_5243" style="mask-type:alpha" maskUnits="userSpaceOnUse" x="12" y="6" width="5" height="6">
<path fill-rule="evenodd" clip-rule="evenodd" d="M12.6666 9.16666C12.6666 8.79585 12.6666 8.38227 12.6666 7.99993C12.6666 7.26355 13.2636 6.66666 14 6.66666H15.3333C16.0697 6.66666 16.6666 7.26355 16.6666 7.99993C16.6666 8.38227 16.6666 8.79585 16.6666 9.16666C16.6666 10.9524 14.6666 11.6667 14.6666 11.6667C14.6666 11.6667 12.6666 10.9524 12.6666 9.16666Z" fill="white"/>
</mask>
<g mask="url(#mask1_17_5243)">
<rect x="14.3333" y="10.6667" width="0.666667" height="0.666667" rx="0.333333" fill="#FAEF32"/>
<rect x="13.3333" y="9.33331" width="2.66667" height="0.666667" rx="0.333333" fill="#FAEF32"/>
<rect x="13.3333" y="7.99997" width="2.66667" height="0.666667" rx="0.333333" fill="#FAEF32"/>
</g>
</g>
</svg>
