<svg width="28" height="28" viewBox="0 0 28 28" fill="none" xmlns="http://www.w3.org/2000/svg">
<rect y="4" width="28" height="20" rx="3" fill="white"/>
<mask id="mask0_17_5151" style="mask-type:alpha" maskUnits="userSpaceOnUse" x="0" y="4" width="28" height="20">
<rect y="4" width="28" height="20" rx="3" fill="white"/>
</mask>
<g mask="url(#mask0_17_5151)">
<rect y="4" width="28" height="20" fill="#30C6E0"/>
<path fill-rule="evenodd" clip-rule="evenodd" d="M14 18C16.2091 18 18 16.2091 18 14C18 11.7909 16.2091 10 14 10C11.7909 10 10 11.7909 10 14C10 16.2091 11.7909 18 14 18Z" fill="#FFCD4B"/>
<path fill-rule="evenodd" clip-rule="evenodd" d="M12.3682 21.1495L14 18.7136L15.6318 21.1495L16.0452 18.2468L18.5723 19.7334L17.6853 16.9389L20.6071 17.1818L18.5955 15.0489L21.3334 14L18.5955 12.9511L20.6071 10.8182L17.6853 11.0611L18.5723 8.26657L16.0452 9.75318L15.6318 6.85052L14 9.28638L12.3682 6.85052L11.9549 9.75318L9.42776 8.26657L10.3148 11.0611L7.39292 10.8182L9.40459 12.9511L6.66669 14L9.40459 15.0489L7.39292 17.1818L10.3148 16.9389L9.42776 19.7334L11.9549 18.2468L12.3682 21.1495ZM18.6667 14C18.6667 16.5773 16.5773 18.6667 14 18.6667C11.4227 18.6667 9.33335 16.5773 9.33335 14C9.33335 11.4227 11.4227 9.33333 14 9.33333C16.5773 9.33333 18.6667 11.4227 18.6667 14Z" fill="#FFCD4B"/>
<path fill-rule="evenodd" clip-rule="evenodd" d="M1.33331 5.66665C1.33331 5.48255 1.48255 5.33331 1.66665 5.33331H2.33331C2.51741 5.33331 2.66665 5.48255 2.66665 5.66665V6.33331C2.66665 6.51741 2.51741 6.66665 2.33331 6.66665H1.66665C1.48255 6.66665 1.33331 6.51741 1.33331 6.33331V5.66665ZM1.33331 8.33331C1.33331 8.14922 1.48255 7.99998 1.66665 7.99998H2.33331C2.51741 7.99998 2.66665 8.14922 2.66665 8.33331V8.99998C2.66665 9.18407 2.51741 9.33331 2.33331 9.33331H1.66665C1.48255 9.33331 1.33331 9.18407 1.33331 8.99998V8.33331ZM1.66665 10.6666C1.48255 10.6666 1.33331 10.8159 1.33331 11V11.6666C1.33331 11.8507 1.48255 12 1.66665 12H2.33331C2.51741 12 2.66665 11.8507 2.66665 11.6666V11C2.66665 10.8159 2.51741 10.6666 2.33331 10.6666H1.66665ZM1.33331 13.6666C1.33331 13.4826 1.48255 13.3333 1.66665 13.3333H2.33331C2.51741 13.3333 2.66665 13.4826 2.66665 13.6666V14.3333C2.66665 14.5174 2.51741 14.6666 2.33331 14.6666H1.66665C1.48255 14.6666 1.33331 14.5174 1.33331 14.3333V13.6666ZM1.66665 16C1.48255 16 1.33331 16.1492 1.33331 16.3333V17C1.33331 17.1841 1.48255 17.3333 1.66665 17.3333H2.33331C2.51741 17.3333 2.66665 17.1841 2.66665 17V16.3333C2.66665 16.1492 2.51741 16 2.33331 16H1.66665ZM1.33331 19C1.33331 18.8159 1.48255 18.6666 1.66665 18.6666H2.33331C2.51741 18.6666 2.66665 18.8159 2.66665 19V19.6666C2.66665 19.8507 2.51741 20 2.33331 20H1.66665C1.48255 20 1.33331 19.8507 1.33331 19.6666V19ZM1.66665 21.3333C1.48255 21.3333 1.33331 21.4826 1.33331 21.6666V22.3333C1.33331 22.5174 1.48255 22.6666 1.66665 22.6666H2.33331C2.51741 22.6666 2.66665 22.5174 2.66665 22.3333V21.6666C2.66665 21.4826 2.51741 21.3333 2.33331 21.3333H1.66665ZM2.66665 20.3333C2.66665 20.1492 2.81588 20 2.99998 20H3.66665C3.85074 20 3.99998 20.1492 3.99998 20.3333V21C3.99998 21.1841 3.85074 21.3333 3.66665 21.3333H2.99998C2.81589 21.3333 2.66665 21.1841 2.66665 21V20.3333ZM2.99998 17.3333C2.81588 17.3333 2.66665 17.4826 2.66665 17.6666V18.3333C2.66665 18.5174 2.81589 18.6666 2.99998 18.6666H3.66665C3.85074 18.6666 3.99998 18.5174 3.99998 18.3333V17.6666C3.99998 17.4826 3.85074 17.3333 3.66665 17.3333H2.99998ZM2.66665 15C2.66665 14.8159 2.81588 14.6666 2.99998 14.6666H3.66665C3.85074 14.6666 3.99998 14.8159 3.99998 15V15.6666C3.99998 15.8507 3.85074 16 3.66665 16H2.99998C2.81589 16 2.66665 15.8507 2.66665 15.6666V15ZM2.99998 12C2.81588 12 2.66665 12.1492 2.66665 12.3333V13C2.66665 13.1841 2.81589 13.3333 2.99998 13.3333H3.66665C3.85074 13.3333 3.99998 13.1841 3.99998 13V12.3333C3.99998 12.1492 3.85074 12 3.66665 12H2.99998ZM2.66665 9.66665C2.66665 9.48255 2.81588 9.33331 2.99998 9.33331H3.66665C3.85074 9.33331 3.99998 9.48255 3.99998 9.66665V10.3333C3.99998 10.5174 3.85074 10.6666 3.66665 10.6666H2.99998C2.81589 10.6666 2.66665 10.5174 2.66665 10.3333V9.66665ZM2.99998 6.66665C2.81588 6.66665 2.66665 6.81589 2.66665 6.99998V7.66665C2.66665 7.85074 2.81589 7.99998 2.99998 7.99998H3.66665C3.85074 7.99998 3.99998 7.85074 3.99998 7.66665V6.99998C3.99998 6.81588 3.85074 6.66665 3.66665 6.66665H2.99998Z" fill="#FFCD4B"/>
</g>
</svg>
