<svg width="28" height="28" viewBox="0 0 28 28" fill="none" xmlns="http://www.w3.org/2000/svg">
<rect x="0.25" y="4.25" width="27.5" height="19.5" rx="2.75" fill="white" stroke="#D6D8DD" stroke-width="0.5"/>
<mask id="mask0_17_5197" style="mask-type:alpha" maskUnits="userSpaceOnUse" x="0" y="4" width="28" height="20">
<rect x="0.25" y="4.25" width="27.5" height="19.5" rx="2.75" fill="white" stroke="white" stroke-width="0.5"/>
</mask>
<g mask="url(#mask0_17_5197)">
<path fill-rule="evenodd" clip-rule="evenodd" d="M14 18.6667C16.5773 18.6667 18.6667 16.5773 18.6667 14C18.6667 11.4227 16.5773 9.33333 14 9.33333C11.4227 9.33333 9.33334 11.4227 9.33334 14C9.33334 16.5773 11.4227 18.6667 14 18.6667Z" fill="#E01B41"/>
<mask id="mask1_17_5197" style="mask-type:alpha" maskUnits="userSpaceOnUse" x="9" y="9" width="10" height="10">
<path fill-rule="evenodd" clip-rule="evenodd" d="M14 18.6667C16.5773 18.6667 18.6667 16.5773 18.6667 14C18.6667 11.4227 16.5773 9.33333 14 9.33333C11.4227 9.33333 9.33334 11.4227 9.33334 14C9.33334 16.5773 11.4227 18.6667 14 18.6667Z" fill="white"/>
</mask>
<g mask="url(#mask1_17_5197)">
<path fill-rule="evenodd" clip-rule="evenodd" d="M9.33335 14.6667C10.6667 15.9167 12.6667 16.6667 14 14.6667C15.3333 12.6667 18 12.6667 18.6667 14.6667C19.3333 16.6667 18.6667 18.6667 18.6667 18.6667H9.33335C9.33335 18.6667 8.00001 13.4167 9.33335 14.6667Z" fill="#0E4B9C"/>
</g>
<path opacity="0.75" fill-rule="evenodd" clip-rule="evenodd" d="M6.17308 7.55663C6.26513 7.3972 6.46899 7.34257 6.62842 7.43462L7.20577 7.76795C7.3652 7.86 7.41983 8.06387 7.32778 8.2233L5.66111 11.11C5.56907 11.2695 5.3652 11.3241 5.20577 11.2321L4.62842 10.8987C4.46899 10.8067 4.41437 10.6028 4.50641 10.4434L6.17308 7.55663ZM20.7942 7.76796C20.6348 7.86 20.5802 8.06387 20.6722 8.2233L22.3389 11.11C22.4309 11.2695 22.6348 11.3241 22.7942 11.2321L23.3716 10.8987C23.531 10.8067 23.5856 10.6028 23.4936 10.4434L21.8269 7.55663C21.7349 7.3972 21.531 7.34257 21.3716 7.43462L20.7942 7.76796ZM19.0622 8.76795C18.9027 8.86 18.8481 9.06387 18.9402 9.2233L20.6068 12.11C20.6989 12.2695 20.9027 12.3241 21.0622 12.2321L21.6395 11.8987C21.799 11.8067 21.8536 11.6028 21.7615 11.4434L20.0949 8.55663C20.0028 8.3972 19.799 8.34257 19.6395 8.43462L19.0622 8.76795ZM4.50641 17.5566C4.41437 17.3972 4.46899 17.1933 4.62842 17.1013L5.20577 16.768C5.3652 16.6759 5.56907 16.7305 5.66111 16.89L7.32778 19.7767C7.41983 19.9361 7.3652 20.14 7.20577 20.2321L6.62842 20.5654C6.46899 20.6574 6.26513 20.6028 6.17308 20.4434L4.50641 17.5566ZM6.36047 16.1013C6.20104 16.1933 6.14642 16.3972 6.23847 16.5566L7.90513 19.4434C7.99718 19.6028 8.20104 19.6574 8.36047 19.5654L8.93782 19.2321C9.09725 19.14 9.15188 18.9361 9.05983 18.7767L7.39317 15.89C7.30112 15.7305 7.09725 15.6759 6.93782 15.768L6.36047 16.1013ZM20.6068 15.89C20.6989 15.7305 20.9027 15.6759 21.0622 15.768L21.6395 16.1013C21.799 16.1933 21.8536 16.3972 21.7615 16.5566L20.0949 19.4434C20.0028 19.6028 19.799 19.6574 19.6395 19.5654L19.0622 19.2321C18.9027 19.14 18.8481 18.9361 18.9402 18.7767L20.6068 15.89ZM22.7942 16.768C22.6348 16.6759 22.4309 16.7305 22.3389 16.89L20.6722 19.7767C20.5802 19.9361 20.6348 20.14 20.7942 20.2321L21.3716 20.5654C21.531 20.6574 21.7349 20.6028 21.8269 20.4434L23.4936 17.5566C23.5856 17.3972 23.531 17.1933 23.3716 17.1013L22.7942 16.768ZM8.36047 8.43462C8.20104 8.34257 7.99718 8.3972 7.90513 8.55663L6.23846 11.4434C6.14642 11.6028 6.20104 11.8067 6.36047 11.8987L6.93782 12.2321C7.09725 12.3241 7.30112 12.2695 7.39317 12.11L9.05983 9.2233C9.15188 9.06387 9.09725 8.86 8.93782 8.76795L8.36047 8.43462Z" fill="#262626"/>
</g>
</svg>
