<svg width="28" height="28" viewBox="0 0 28 28" fill="none" xmlns="http://www.w3.org/2000/svg">
<rect x="0.25" y="4.25" width="27.5" height="19.5" rx="2.75" fill="white" stroke="#D6D8DD" stroke-width="0.5"/>
<mask id="mask0_17_5197" style="mask-type:luminance" maskUnits="userSpaceOnUse" x="0" y="4" width="28" height="20">
<rect x="0.25" y="4.25" width="27.5" height="19.5" rx="2.75" fill="white" stroke="white" stroke-width="0.5"/>
</mask>
<g mask="url(#mask0_17_5197)">
<path fill-rule="evenodd" clip-rule="evenodd" d="M14 18.6666C16.5774 18.6666 18.6667 16.5773 18.6667 14C18.6667 11.4227 16.5774 9.33331 14 9.33331C11.4227 9.33331 9.33337 11.4227 9.33337 14C9.33337 16.5773 11.4227 18.6666 14 18.6666Z" fill="#E01B41"/>
<mask id="mask1_17_5197" style="mask-type:luminance" maskUnits="userSpaceOnUse" x="9" y="9" width="10" height="10">
<path fill-rule="evenodd" clip-rule="evenodd" d="M14 18.6666C16.5774 18.6666 18.6667 16.5773 18.6667 14C18.6667 11.4227 16.5774 9.33331 14 9.33331C11.4227 9.33331 9.33337 11.4227 9.33337 14C9.33337 16.5773 11.4227 18.6666 14 18.6666Z" fill="white"/>
</mask>
<g mask="url(#mask1_17_5197)">
<path fill-rule="evenodd" clip-rule="evenodd" d="M9.33338 14.6667C10.6667 15.9167 12.6667 16.6667 14 14.6667C15.3334 12.6667 18 12.6667 18.6667 14.6667C19.3334 16.6667 18.6667 18.6667 18.6667 18.6667H9.33338C9.33338 18.6667 8.00004 13.4167 9.33338 14.6667Z" fill="#0E4B9C"/>
</g>
<path opacity="0.75" fill-rule="evenodd" clip-rule="evenodd" d="M6.17305 7.55661C6.2651 7.39718 6.46896 7.34256 6.62839 7.43461L7.20574 7.76794C7.36517 7.85999 7.4198 8.06385 7.32775 8.22328L5.66108 11.11C5.56904 11.2695 5.36517 11.3241 5.20574 11.232L4.62839 10.8987C4.46896 10.8067 4.41434 10.6028 4.50638 10.4434L6.17305 7.55661ZM20.7942 7.76794C20.6348 7.85999 20.5801 8.06385 20.6722 8.22328L22.3389 11.11C22.4309 11.2695 22.6348 11.3241 22.7942 11.232L23.3715 10.8987C23.531 10.8067 23.5856 10.6028 23.4936 10.4434L21.8269 7.55661C21.7348 7.39718 21.531 7.34256 21.3715 7.43461L20.7942 7.76794ZM19.0621 8.76794C18.9027 8.85999 18.8481 9.06385 18.9401 9.22328L20.6068 12.11C20.6989 12.2695 20.9027 12.3241 21.0621 12.232L21.6395 11.8987C21.7989 11.8067 21.8536 11.6028 21.7615 11.4434L20.0948 8.55661C20.0028 8.39718 19.7989 8.34256 19.6395 8.43461L19.0621 8.76794ZM4.50638 17.5566C4.41434 17.3972 4.46896 17.1933 4.62839 17.1013L5.20574 16.7679C5.36517 16.6759 5.56904 16.7305 5.66108 16.8899L7.32775 19.7767C7.4198 19.9361 7.36517 20.14 7.20574 20.232L6.62839 20.5654C6.46896 20.6574 6.2651 20.6028 6.17305 20.4434L4.50638 17.5566ZM6.36044 16.1013C6.20101 16.1933 6.14639 16.3972 6.23843 16.5566L7.9051 19.4434C7.99715 19.6028 8.20101 19.6574 8.36044 19.5654L8.93779 19.232C9.09722 19.14 9.15185 18.9361 9.0598 18.7767L7.39314 15.8899C7.30109 15.7305 7.09722 15.6759 6.93779 15.7679L6.36044 16.1013ZM20.6068 15.8899C20.6989 15.7305 20.9027 15.6759 21.0621 15.7679L21.6395 16.1013C21.7989 16.1933 21.8536 16.3972 21.7615 16.5566L20.0948 19.4434C20.0028 19.6028 19.7989 19.6574 19.6395 19.5654L19.0621 19.232C18.9027 19.14 18.8481 18.9361 18.9401 18.7767L20.6068 15.8899ZM22.7942 16.7679C22.6348 16.6759 22.4309 16.7305 22.3389 16.8899L20.6722 19.7767C20.5801 19.9361 20.6348 20.14 20.7942 20.232L21.3715 20.5654C21.531 20.6574 21.7348 20.6028 21.8269 20.4434L23.4936 17.5566C23.5856 17.3972 23.531 17.1933 23.3715 17.1013L22.7942 16.7679ZM8.36044 8.43461C8.20101 8.34256 7.99715 8.39718 7.9051 8.55661L6.23843 11.4434C6.14639 11.6028 6.20101 11.8067 6.36044 11.8987L6.93779 12.232C7.09722 12.3241 7.30109 12.2695 7.39314 12.11L9.0598 9.22328C9.15185 9.06385 9.09722 8.85999 8.93779 8.76794L8.36044 8.43461Z" fill="#262626"/>
</g>
</svg>
