<svg width="28" height="28" viewBox="0 0 28 28" fill="none" xmlns="http://www.w3.org/2000/svg">
<rect y="4" width="28" height="20" rx="3" fill="white"/>
<mask id="mask0_17_5189" style="mask-type:alpha" maskUnits="userSpaceOnUse" x="0" y="4" width="28" height="20">
<rect y="4" width="28" height="20" rx="3" fill="white"/>
</mask>
<g mask="url(#mask0_17_5189)">
<rect y="4" width="28" height="20" fill="#F22A46"/>
<path fill-rule="evenodd" clip-rule="evenodd" d="M14 17.3333C15.841 17.3333 17.3334 15.841 17.3334 14C17.3334 12.1591 15.841 10.6667 14 10.6667C12.1591 10.6667 10.6667 12.1591 10.6667 14C10.6667 15.841 12.1591 17.3333 14 17.3333Z" fill="#FFF04D"/>
<path fill-rule="evenodd" clip-rule="evenodd" d="M12.3682 21.1495L14 18.7136L15.6318 21.1495L16.0452 18.2468L18.5723 19.7334L17.6853 16.9389L20.6071 17.1818L18.5955 15.0489L21.3334 14L18.5955 12.9511L20.6071 10.8182L17.6853 11.0611L18.5723 8.26657L16.0452 9.75318L15.6318 6.85052L14 9.28638L12.3682 6.85052L11.9549 9.75318L9.42776 8.26657L10.3148 11.0611L7.39292 10.8182L9.40459 12.9511L6.66669 14L9.40459 15.0489L7.39292 17.1818L10.3148 16.9389L9.42776 19.7334L11.9549 18.2468L12.3682 21.1495ZM18.6667 14C18.6667 16.5773 16.5773 18.6667 14 18.6667C11.4227 18.6667 9.33335 16.5773 9.33335 14C9.33335 11.4227 11.4227 9.33333 14 9.33333C16.5773 9.33333 18.6667 11.4227 18.6667 14Z" fill="#FFF04D"/>
</g>
</svg>
