<svg width="28" height="28" viewBox="0 0 28 28" fill="none" xmlns="http://www.w3.org/2000/svg">
<rect x="0.25" y="4.25" width="27.5" height="19.5" rx="2.75" fill="white" stroke="#D6D8DD" stroke-width="0.5"/>
<mask id="mask0_17_5098" style="mask-type:alpha" maskUnits="userSpaceOnUse" x="0" y="4" width="28" height="20">
<rect x="0.25" y="4.25" width="27.5" height="19.5" rx="2.75" fill="white" stroke="white" stroke-width="0.5"/>
</mask>
<g mask="url(#mask0_17_5098)">
<path fill-rule="evenodd" clip-rule="evenodd" d="M28 4H13.3333V6.66667H28V4ZM28 9.33333H13.3333V12H28V9.33333ZM13.3333 14.6667H28V17.3333H13.3333V14.6667ZM28 20H0V22.6667H28V20Z" fill="#E1244A"/>
<rect y="4" width="13.3333" height="13.3333" fill="#0C3F8E"/>
<path fill-rule="evenodd" clip-rule="evenodd" d="M6.66663 12.2267L4.31549 13.9027L5.18298 11.1487L2.8624 9.43059L5.74968 9.40459L6.66663 6.66666L7.58357 9.40459L10.4709 9.43059L8.15027 11.1487L9.01777 13.9027L6.66663 12.2267Z" fill="white"/>
</g>
</svg>
