<svg width="28" height="28" viewBox="0 0 28 28" fill="none" xmlns="http://www.w3.org/2000/svg">
<rect y="4" width="28" height="20" rx="3" fill="white"/>
<mask id="mask0_17_4880" style="mask-type:alpha" maskUnits="userSpaceOnUse" x="0" y="4" width="28" height="20">
<rect y="4" width="28" height="20" rx="3" fill="white"/>
</mask>
<g mask="url(#mask0_17_4880)">
<path fill-rule="evenodd" clip-rule="evenodd" d="M0 24H28V4H0V24Z" fill="#079D7B"/>
<path fill-rule="evenodd" clip-rule="evenodd" d="M15.885 12.6666C15.885 12.9585 15.8638 13.2416 15.824 13.5114C15.9262 13.4799 16.0304 13.45 16.1363 13.4216C17.9145 12.9451 19.5017 13.1023 19.6813 13.7727C19.8436 14.3786 18.8008 15.1963 17.2859 15.6998C17.0183 14.9061 15.649 14.6666 14 14.6666C12.3492 14.6666 10.9786 14.9067 10.7132 15.7024C9.21882 15.198 8.19468 14.3889 8.35567 13.7881C8.5353 13.1177 10.1225 12.9604 11.9007 13.4369C11.994 13.4619 12.0861 13.4882 12.1766 13.5156C12.1364 13.2446 12.115 12.96 12.115 12.6666C12.115 10.8257 12.9589 9.33331 14 9.33331C15.0411 9.33331 15.885 10.8257 15.885 12.6666ZM10.6667 16L11.8331 16C11.6484 15.9638 11.4599 15.9204 11.2691 15.8697C11.4836 15.8761 11.7482 15.8944 12.051 15.9154C12.5991 15.9533 13.2723 16 14 16C14.7277 16 15.4009 15.9533 15.949 15.9154C16.2404 15.8952 16.4964 15.8775 16.7064 15.8705C16.509 15.9214 16.3142 15.9645 16.1236 16L17.3333 16L19.3333 16C19.1752 16.4747 18.9623 16.922 18.7028 17.3333H9.29716C9.03765 16.922 8.8248 16.4747 8.66666 16L10.6667 16ZM14 20C15.3467 20 16.5835 19.5005 17.5548 18.6666H10.4452C11.4165 19.5005 12.6533 20 14 20Z" fill="white"/>
<path fill-rule="evenodd" clip-rule="evenodd" d="M14 7.99999C14.3682 7.99999 14.6667 7.70151 14.6667 7.33332C14.6667 6.96513 14.3682 6.66666 14 6.66666C13.6318 6.66666 13.3333 6.96513 13.3333 7.33332C13.3333 7.70151 13.6318 7.99999 14 7.99999ZM8.66667 11.3333C9.03486 11.3333 9.33333 11.0348 9.33333 10.6667C9.33333 10.2985 9.03486 9.99999 8.66667 9.99999C8.29848 9.99999 8 10.2985 8 10.6667C8 11.0348 8.29848 11.3333 8.66667 11.3333ZM20 10.6667C20 11.0348 19.7015 11.3333 19.3333 11.3333C18.9651 11.3333 18.6667 11.0348 18.6667 10.6667C18.6667 10.2985 18.9651 9.99999 19.3333 9.99999C19.7015 9.99999 20 10.2985 20 10.6667ZM17.3333 9.33332C17.7015 9.33332 18 9.03485 18 8.66666C18 8.29847 17.7015 7.99999 17.3333 7.99999C16.9651 7.99999 16.6667 8.29847 16.6667 8.66666C16.6667 9.03485 16.9651 9.33332 17.3333 9.33332ZM11.3333 8.66666C11.3333 9.03485 11.0349 9.33332 10.6667 9.33332C10.2985 9.33332 10 9.03485 10 8.66666C10 8.29847 10.2985 7.99999 10.6667 7.99999C11.0349 7.99999 11.3333 8.29847 11.3333 8.66666Z" fill="#FCD117"/>
</g>
</svg>
