<svg width="28" height="28" viewBox="0 0 28 28" fill="none" xmlns="http://www.w3.org/2000/svg">
<rect y="4" width="28" height="20" rx="3" fill="white"/>
<mask id="mask0_17_4927" style="mask-type:luminance" maskUnits="userSpaceOnUse" x="0" y="4" width="28" height="20">
<rect y="4" width="28" height="20" rx="3" fill="white"/>
</mask>
<g mask="url(#mask0_17_4927)">
<path fill-rule="evenodd" clip-rule="evenodd" d="M28 4H13.3333V5.33333H28V4ZM28 6.66667H13.3333V8H28V6.66667ZM13.3333 9.33333H28V10.6667H13.3333V9.33333ZM28 12H13.3333V13.3333H28V12ZM0 14.6667H28V16H0V14.6667ZM28 17.3333H0V18.6667H28V17.3333ZM0 20H28V21.3333H0V20ZM28 22.6667H0V24H28V22.6667Z" fill="#E1244A"/>
<rect y="4" width="16" height="10.6667" fill="#0C3F8E"/>
<path fill-rule="evenodd" clip-rule="evenodd" d="M6.66669 13.3333C7.6118 13.3333 8.48035 13.0056 9.16487 12.4575C8.80226 12.5927 8.40978 12.6667 8.00002 12.6667C6.15907 12.6667 4.66669 11.1743 4.66669 9.33334C4.66669 7.49239 6.15907 6.00001 8.00002 6.00001C8.40977 6.00001 8.80226 6.07394 9.16487 6.2092C8.48035 5.66112 7.6118 5.33334 6.66669 5.33334C4.45755 5.33334 2.66669 7.1242 2.66669 9.33334C2.66669 11.5425 4.45755 13.3333 6.66669 13.3333ZM9.50966 11.7359L10.6667 10.4267L11.8237 11.7359L11.5215 10.015L13.2665 9.92673L11.7326 9.09005L12.7516 7.6707L11.1411 8.34828L10.6667 6.66668L10.1923 8.34828L8.5818 7.6707L9.60077 9.09005L8.06688 9.92673L9.81188 10.015L9.50966 11.7359Z" fill="#FFD34F"/>
</g>
</svg>
