<svg width="28" height="28" viewBox="0 0 28 28" fill="none" xmlns="http://www.w3.org/2000/svg">
<rect x="0.25" y="4.25" width="27.5" height="19.5" rx="2.75" fill="white" stroke="#D6D8DD" stroke-width="0.5"/>
<mask id="mask0_17_5001" style="mask-type:luminance" maskUnits="userSpaceOnUse" x="0" y="4" width="28" height="20">
<rect x="0.25" y="4.25" width="27.5" height="19.5" rx="2.75" fill="white" stroke="white" stroke-width="0.5"/>
</mask>
<g mask="url(#mask0_17_5001)">
<path fill-rule="evenodd" clip-rule="evenodd" d="M14.6667 24H28V4H14.6667V24Z" fill="#DE233C"/>
<mask id="path-4-outside-1_17_5001" maskUnits="userSpaceOnUse" x="1.66667" y="5.66666" width="6" height="6" fill="black">
<rect fill="white" x="1.66667" y="5.66666" width="6" height="6"/>
<path fill-rule="evenodd" clip-rule="evenodd" d="M5.33334 6.66666H4.00001V7.99999H2.66667V9.33332H4.00001V10.6667H5.33334V9.33332H6.66667V7.99999H5.33334V6.66666Z"/>
</mask>
<path fill-rule="evenodd" clip-rule="evenodd" d="M5.33334 6.66666H4.00001V7.99999H2.66667V9.33332H4.00001V10.6667H5.33334V9.33332H6.66667V7.99999H5.33334V6.66666Z" fill="#CCCCCD"/>
<path d="M4.00001 6.66666V5.99999H3.33334V6.66666H4.00001ZM5.33334 6.66666H6.00001V5.99999H5.33334V6.66666ZM4.00001 7.99999V8.66666H4.66667V7.99999H4.00001ZM2.66667 7.99999V7.33332H2.00001V7.99999H2.66667ZM2.66667 9.33332H2.00001V9.99999H2.66667V9.33332ZM4.00001 9.33332H4.66667V8.66666H4.00001V9.33332ZM4.00001 10.6667H3.33334V11.3333H4.00001V10.6667ZM5.33334 10.6667V11.3333H6.00001V10.6667H5.33334ZM5.33334 9.33332V8.66666H4.66667V9.33332H5.33334ZM6.66667 9.33332V9.99999H7.33334V9.33332H6.66667ZM6.66667 7.99999H7.33334V7.33332H6.66667V7.99999ZM5.33334 7.99999H4.66667V8.66666H5.33334V7.99999ZM4.00001 7.33332H5.33334V5.99999H4.00001V7.33332ZM4.66667 7.99999V6.66666H3.33334V7.99999H4.66667ZM2.66667 8.66666H4.00001V7.33332H2.66667V8.66666ZM3.33334 9.33332V7.99999H2.00001V9.33332H3.33334ZM4.00001 8.66666H2.66667V9.99999H4.00001V8.66666ZM4.66667 10.6667V9.33332H3.33334V10.6667H4.66667ZM5.33334 9.99999H4.00001V11.3333H5.33334V9.99999ZM4.66667 9.33332V10.6667H6.00001V9.33332H4.66667ZM6.66667 8.66666H5.33334V9.99999H6.66667V8.66666ZM6.00001 7.99999V9.33332H7.33334V7.99999H6.00001ZM5.33334 8.66666H6.66667V7.33332H5.33334V8.66666ZM4.66667 6.66666V7.99999H6.00001V6.66666H4.66667Z" fill="#7B716A" fill-opacity="0.66" mask="url(#path-4-outside-1_17_5001)"/>
<path fill-rule="evenodd" clip-rule="evenodd" d="M4.66667 9.33333C5.03486 9.33333 5.33333 9.03486 5.33333 8.66667C5.33333 8.29848 5.03486 8 4.66667 8C4.29848 8 4 8.29848 4 8.66667C4 9.03486 4.29848 9.33333 4.66667 9.33333Z" fill="#7B716A"/>
</g>
</svg>
