<svg width="28" height="28" viewBox="0 0 28 28" fill="none" xmlns="http://www.w3.org/2000/svg">
<rect x="0.25" y="4.25" width="27.5" height="19.5" rx="2.75" stroke="#F5F5F5" stroke-width="0.5"/>
<mask id="mask0_108034_1113" style="mask-type:alpha" maskUnits="userSpaceOnUse" x="0" y="4" width="28" height="20">
<rect y="4" width="28" height="20" rx="3" fill="#103A8E"/>
</mask>
<g mask="url(#mask0_108034_1113)">
<path fill-rule="evenodd" clip-rule="evenodd" d="M28 4H0V23.2424L28 10.4682V4ZM28 13.7503L0 23.6212V24H28V13.7503Z" fill="#103A8E"/>
<path d="M7.01512 4.90908L7.24476 9.21022L8.20726 6.50542L7.6884 9.3291L9.31815 6.96557L8.08615 9.55874L10.2721 7.69756L8.41091 9.8835L11.0041 8.6515L8.64056 10.2813L11.4642 9.7624L8.75943 10.7249L13.0606 10.9545L8.75943 11.1842L11.4642 12.1467L8.64056 11.6278L11.0041 13.2576L8.41091 12.0256L10.2721 14.2115L8.08615 12.3503L9.31815 14.9435L7.6884 12.58L8.20726 15.4036L7.24476 12.6988L7.01512 17L6.78548 12.6988L5.82298 15.4036L6.34184 12.58L4.71209 14.9435L5.94409 12.3503L3.75814 14.2115L5.61933 12.0256L3.02615 13.2576L5.38969 11.6278L2.56601 12.1467L5.27081 11.1842L0.969666 10.9545L5.27081 10.7249L2.56601 9.7624L5.38969 10.2813L3.02615 8.6515L5.61933 9.8835L3.75814 7.69756L5.94409 9.55874L4.71209 6.96557L6.34184 9.3291L5.82298 6.50542L6.78548 9.21022L7.01512 4.90908Z" fill="white"/>
<path d="M28.8788 6.45456L0 23.0909V23.2424L28.8788 10.2424V6.45456Z" fill="#D07A2C"/>
<path d="M28 10.5L0.707031 22.9258L0.875 23.1211L1.03516 23.2539L28 14.5V10.5Z" fill="white"/>
</g>
</svg>
