<svg width="28" height="28" viewBox="0 0 28 28" fill="none" xmlns="http://www.w3.org/2000/svg">
<rect y="4" width="28" height="20" rx="3" fill="white"/>
<mask id="mask0_17_5009" style="mask-type:alpha" maskUnits="userSpaceOnUse" x="0" y="4" width="28" height="20">
<rect y="4" width="28" height="20" rx="3" fill="white"/>
</mask>
<g mask="url(#mask0_17_5009)">
<rect y="4" width="28" height="20" fill="#E6BE53"/>
<path fill-rule="evenodd" clip-rule="evenodd" d="M1.33334 21.6667C1.33334 22.219 1.78106 22.6667 2.33334 22.6667H25.6667C26.219 22.6667 26.6667 22.219 26.6667 21.6667V6.33334C26.6667 5.78106 26.219 5.33334 25.6667 5.33334H2.33334C1.78106 5.33334 1.33334 5.78106 1.33334 6.33334V21.6667Z" fill="#E01826"/>
<path fill-rule="evenodd" clip-rule="evenodd" d="M13.0233 7.65888C12.5532 7.8156 12.4123 8.41231 12.7628 8.76274L13.1381 9.13806C13.2631 9.26309 13.4327 9.33332 13.6095 9.33332H14.3905C14.5673 9.33332 14.7369 9.26309 14.8619 9.13806L15.2373 8.76274C15.5877 8.4123 15.4468 7.8156 14.9767 7.65888L14.2108 7.4036C14.074 7.35798 13.926 7.35798 13.7892 7.4036L13.0233 7.65888ZM14.4714 10.8619C14.2111 11.1223 13.789 11.1223 13.5286 10.8619L13.3333 10.6667L12.3398 9.67309C12.1369 9.47019 11.8269 9.41988 11.5702 9.54821L11.494 9.58634C11.087 9.78984 10.999 10.3323 11.3207 10.654L11.3333 10.6667L12.3269 11.6602C12.5298 11.8631 12.5801 12.1731 12.4518 12.4298L12.038 13.2574C12.013 13.3073 12 13.3624 12 13.4182C12 13.6855 11.7187 13.8593 11.4796 13.7398L11.1567 13.5784C10.9156 13.4578 10.8635 13.1365 11.0541 12.9459C11.2083 12.7917 11.2083 12.5416 11.0541 12.3874L10.7432 12.0765C10.6925 12.0258 10.6503 11.9673 10.6183 11.9032L10.0327 10.7321C10.011 10.6886 9.99406 10.6428 9.98226 10.5957L9.67305 9.35882C9.5369 8.81422 8.82977 8.67142 8.49296 9.12051L7.46668 10.4889C7.38013 10.6043 7.33334 10.7446 7.33334 10.8889V13.1759C7.33334 13.2794 7.35744 13.3815 7.40373 13.4741L7.95163 14.5699C7.98367 14.634 8.02584 14.6925 8.07651 14.7432L9.25685 15.9235C9.30751 15.9742 9.36602 16.0163 9.43011 16.0484L10.6037 16.6352C10.6451 16.6559 10.6908 16.6667 10.7371 16.6667C11.0517 16.6667 11.1518 17.0908 10.8704 17.2315L10.7159 17.3087C10.6833 17.325 10.6535 17.3465 10.6278 17.3722L10.3333 17.6667C10.1492 17.8508 9.85077 17.8508 9.66668 17.6667C9.48258 17.4826 9.18411 17.4826 9.00001 17.6667L8.94592 17.7207C8.77916 17.8875 8.73782 18.1423 8.84328 18.3532L9.14908 18.9648C9.26201 19.1907 9.49285 19.3333 9.74537 19.3333H10.5093C10.6128 19.3333 10.7149 19.3092 10.8074 19.2629L11.8012 18.766C11.9303 18.7015 12.0349 18.5969 12.0994 18.4679L12.4016 17.8634C12.532 17.6026 12.8796 17.5462 13.0857 17.7524C13.2297 17.8964 13.252 18.1219 13.1391 18.2914L12.3698 19.4453C12.1656 19.7516 12.2484 20.1656 12.5547 20.3698L13.6302 21.0868C13.8541 21.2361 14.1459 21.2361 14.3698 21.0868L15.4453 20.3698C15.7517 20.1656 15.8344 19.7516 15.6302 19.4453L14.8609 18.2914C14.748 18.1219 14.7703 17.8964 14.9143 17.7524C15.1204 17.5462 15.468 17.6026 15.5984 17.8634L15.9006 18.4679C15.9651 18.5969 16.0698 18.7015 16.1988 18.766L17.1926 19.2629C17.2852 19.3092 17.3872 19.3333 17.4907 19.3333H18.2547C18.5072 19.3333 18.738 19.1907 18.8509 18.9648L19.1567 18.3532C19.2622 18.1423 19.2209 17.8875 19.0541 17.7207L19 17.6667C18.8159 17.4826 18.5174 17.4826 18.3333 17.6667C18.1492 17.8508 17.8508 17.8508 17.6667 17.6667L17.3722 17.3722C17.3465 17.3465 17.3167 17.325 17.2842 17.3087L17.1296 17.2315C16.8482 17.0908 16.9484 16.6667 17.263 16.6667C17.3092 16.6667 17.3549 16.6559 17.3963 16.6352L18.5699 16.0484C18.634 16.0163 18.6925 15.9742 18.7432 15.9235L19.9235 14.7432C19.9742 14.6925 20.0163 14.634 20.0484 14.5699L20.5963 13.4741C20.6426 13.3815 20.6667 13.2794 20.6667 13.1759V10.8889C20.6667 10.7446 20.6199 10.6043 20.5333 10.4889L19.5071 9.12051C19.1703 8.67142 18.4631 8.81422 18.327 9.35882L18.0178 10.5957C18.006 10.6428 17.989 10.6886 17.9673 10.7321L17.3817 11.9032C17.3497 11.9673 17.3075 12.0258 17.2568 12.0765L16.9459 12.3874C16.7917 12.5416 16.7917 12.7917 16.9459 12.9459C17.1365 13.1365 17.0844 13.4578 16.8433 13.5784L16.5204 13.7398C16.2813 13.8593 16 13.6855 16 13.4182C16 13.3624 15.987 13.3073 15.9621 13.2574L15.5482 12.4298C15.4199 12.1731 15.4702 11.8631 15.6731 11.6602L16.6667 10.6667L16.6793 10.654C17.0011 10.3323 16.913 9.78984 16.506 9.58634L16.4298 9.54821C16.1731 9.41988 15.8631 9.47019 15.6602 9.67309L14.6667 10.6667L14.4714 10.8619Z" fill="#E6BE53"/>
<path fill-rule="evenodd" clip-rule="evenodd" d="M12.6667 15.3333C12.6667 15.5788 13.08 15.6605 13.1996 15.4461C13.4321 15.0295 13.716 14.6667 14 14.6667C14.284 14.6667 14.5679 15.0295 14.8004 15.4461C14.9199 15.6605 15.3333 15.5788 15.3333 15.3333C15.3333 14.2288 14.7364 13.3333 14 13.3333C13.2636 13.3333 12.6667 14.2288 12.6667 15.3333Z" fill="#215F90"/>
</g>
</svg>
