<svg width="28" height="28" viewBox="0 0 28 28" fill="none" xmlns="http://www.w3.org/2000/svg">
<rect y="4" width="28" height="20" rx="3" fill="white"/>
<mask id="mask0_17_4899" style="mask-type:alpha" maskUnits="userSpaceOnUse" x="0" y="4" width="28" height="20">
<rect y="4" width="28" height="20" rx="3" fill="white"/>
</mask>
<g mask="url(#mask0_17_4899)">
<rect y="4" width="28" height="20" fill="#07319C"/>
<path fill-rule="evenodd" clip-rule="evenodd" d="M17.3333 14C17.3333 12.9063 17.3333 11.6131 17.3333 10.6658C17.3333 9.92944 17.9303 9.33333 18.6667 9.33333H22.6667C23.403 9.33333 24 9.92944 24 10.6658C24 11.6131 24 12.9063 24 14C24 17.3333 20.6667 18.6667 20.6667 18.6667C20.6667 18.6667 17.3333 17.3333 17.3333 14Z" fill="#08B9D6"/>
<mask id="mask1_17_4899" style="mask-type:alpha" maskUnits="userSpaceOnUse" x="17" y="9" width="7" height="10">
<path fill-rule="evenodd" clip-rule="evenodd" d="M17.3333 14C17.3333 12.9063 17.3333 11.6131 17.3333 10.6658C17.3333 9.92944 17.9303 9.33333 18.6667 9.33333H22.6667C23.403 9.33333 24 9.92944 24 10.6658C24 11.6131 24 12.9063 24 14C24 17.3333 20.6667 18.6667 20.6667 18.6667C20.6667 18.6667 17.3333 17.3333 17.3333 14Z" fill="white"/>
</mask>
<g mask="url(#mask1_17_4899)">
<path fill-rule="evenodd" clip-rule="evenodd" d="M17.3333 16H24V18.6667H21.3333H20H17.3333L17.3333 16Z" fill="#A63D09"/>
<path fill-rule="evenodd" clip-rule="evenodd" d="M21.3333 10.6667H20V12H18.6667V13.3333H20V16H21.3333V13.3333H22.6667V12H21.3333V10.6667Z" fill="#262626"/>
</g>
<path d="M0 3.66667H-0.901086L-0.21693 4.25309L4.33333 8.15331V9.16179L-0.193746 12.3954L-0.333333 12.4951V12.6667V13.3333V13.9347L0.176666 13.616L5.42893 10.3333H6.55984L11.0821 13.5635C11.176 13.6306 11.2886 13.6667 11.404 13.6667C11.9182 13.6667 12.1548 13.027 11.7644 12.6924L7.66667 9.18002V8.17154L12.0542 5.03762C12.2294 4.91248 12.3333 4.71043 12.3333 4.49513V4V3.39858L11.8233 3.71733L6.57107 7H5.44016L0.860413 3.72876L0.773488 3.66667H0.666667H0Z" fill="#DB1E36" stroke="white" stroke-width="0.666667"/>
<path fill-rule="evenodd" clip-rule="evenodd" d="M0 7.33333V10H4.66667V13.3333C4.66667 13.7015 4.96514 14 5.33333 14H6.66667C7.03486 14 7.33333 13.7015 7.33333 13.3333V10H12C12.3682 10 12.6667 9.70152 12.6667 9.33333V8C12.6667 7.63181 12.3682 7.33333 12 7.33333H7.33333V4H4.66667V7.33333H0Z" fill="white"/>
<path fill-rule="evenodd" clip-rule="evenodd" d="M0 8H5.33333V7.33333V4H6.66667V7.33333V8H12V9.33333H6.66667V10V13.3333H5.33333V10V9.33333H0V8Z" fill="#DB1E36"/>
</g>
</svg>
