<svg width="28" height="28" viewBox="0 0 28 28" fill="none" xmlns="http://www.w3.org/2000/svg">
<rect y="4" width="28" height="20" rx="3" fill="white"/>
<mask id="mask0_17_5009" style="mask-type:alpha" maskUnits="userSpaceOnUse" x="0" y="4" width="28" height="20">
<rect y="4" width="28" height="20" rx="3" fill="white"/>
</mask>
<g mask="url(#mask0_17_5009)">
<rect y="4" width="28" height="20" fill="#E6BE53"/>
<path fill-rule="evenodd" clip-rule="evenodd" d="M1.33334 21.6667C1.33334 22.219 1.78105 22.6667 2.33334 22.6667H25.6667C26.219 22.6667 26.6667 22.219 26.6667 21.6667V6.33333C26.6667 5.78105 26.219 5.33333 25.6667 5.33333H2.33334C1.78105 5.33333 1.33334 5.78105 1.33334 6.33333V21.6667Z" fill="#E01826"/>
<path fill-rule="evenodd" clip-rule="evenodd" d="M13.0233 7.65889C12.5532 7.81561 12.4123 8.41232 12.7628 8.76275L13.1381 9.13807C13.2631 9.2631 13.4327 9.33333 13.6095 9.33333H14.3905C14.5673 9.33333 14.7369 9.2631 14.8619 9.13807L15.2373 8.76275C15.5877 8.41232 15.4468 7.81561 14.9767 7.65889L14.2108 7.40361C14.074 7.35799 13.926 7.35799 13.7892 7.40361L13.0233 7.65889ZM14.4714 10.8619C14.2111 11.1223 13.7889 11.1223 13.5286 10.8619L13.3333 10.6667L12.3398 9.6731C12.1369 9.4702 11.8269 9.41989 11.5702 9.54822L11.494 9.58635C11.087 9.78985 10.9989 10.3323 11.3207 10.654L11.3333 10.6667L12.3269 11.6602C12.5298 11.8631 12.5801 12.1731 12.4518 12.4298L12.038 13.2574C12.013 13.3073 12 13.3624 12 13.4182C12 13.6855 11.7187 13.8594 11.4796 13.7398L11.1567 13.5784C10.9156 13.4578 10.8635 13.1365 11.0541 12.9459C11.2083 12.7917 11.2083 12.5416 11.0541 12.3874L10.7432 12.0765C10.6925 12.0258 10.6503 11.9673 10.6183 11.9032L10.0327 10.7321C10.011 10.6886 9.99405 10.6429 9.98225 10.5957L9.67304 9.35883C9.53689 8.81423 8.82976 8.67143 8.49295 9.12052L7.46667 10.4889C7.38012 10.6043 7.33334 10.7446 7.33334 10.8889V13.176C7.33334 13.2795 7.35743 13.3815 7.40372 13.4741L7.95162 14.5699C7.98367 14.634 8.02583 14.6925 8.0765 14.7432L9.25684 15.9235C9.30751 15.9742 9.36601 16.0163 9.4301 16.0484L10.6037 16.6352C10.6451 16.6559 10.6908 16.6667 10.7371 16.6667C11.0517 16.6667 11.1518 17.0908 10.8704 17.2315L10.7159 17.3087C10.6833 17.325 10.6535 17.3465 10.6278 17.3722L10.3333 17.6667C10.1492 17.8508 9.85076 17.8508 9.66667 17.6667C9.48257 17.4826 9.1841 17.4826 9 17.6667L8.94591 17.7208C8.77915 17.8875 8.73781 18.1423 8.84328 18.3532L9.14907 18.9648C9.262 19.1907 9.49284 19.3333 9.74536 19.3333H10.5093C10.6128 19.3333 10.7149 19.3092 10.8074 19.263L11.8012 18.766C11.9303 18.7015 12.0349 18.5969 12.0994 18.4679L12.4016 17.8634C12.532 17.6026 12.8796 17.5462 13.0857 17.7524C13.2297 17.8964 13.252 18.1219 13.1391 18.2914L12.3698 19.4453C12.1656 19.7517 12.2484 20.1656 12.5547 20.3698L13.6302 21.0868C13.8541 21.2361 14.1459 21.2361 14.3698 21.0868L15.4453 20.3698C15.7517 20.1656 15.8344 19.7517 15.6302 19.4453L14.8609 18.2914C14.748 18.1219 14.7703 17.8964 14.9143 17.7524C15.1204 17.5462 15.468 17.6026 15.5984 17.8634L15.9006 18.4679C15.9651 18.5969 16.0697 18.7015 16.1988 18.766L17.1926 19.263C17.2851 19.3092 17.3872 19.3333 17.4907 19.3333H18.2546C18.5072 19.3333 18.738 19.1907 18.8509 18.9648L19.1567 18.3532C19.2622 18.1423 19.2209 17.8875 19.0541 17.7208L19 17.6667C18.8159 17.4826 18.5174 17.4826 18.3333 17.6667C18.1492 17.8508 17.8508 17.8508 17.6667 17.6667L17.3722 17.3722C17.3465 17.3465 17.3167 17.325 17.2841 17.3087L17.1296 17.2315C16.8482 17.0908 16.9483 16.6667 17.263 16.6667C17.3092 16.6667 17.3549 16.6559 17.3963 16.6352L18.5699 16.0484C18.634 16.0163 18.6925 15.9742 18.7432 15.9235L19.9235 14.7432C19.9742 14.6925 20.0163 14.634 20.0484 14.5699L20.5963 13.4741C20.6426 13.3815 20.6667 13.2795 20.6667 13.176V10.8889C20.6667 10.7446 20.6199 10.6043 20.5333 10.4889L19.5071 9.12052C19.1702 8.67143 18.4631 8.81423 18.327 9.35883L18.0178 10.5957C18.006 10.6429 17.989 10.6886 17.9673 10.7321L17.3817 11.9032C17.3497 11.9673 17.3075 12.0258 17.2568 12.0765L16.9459 12.3874C16.7917 12.5416 16.7917 12.7917 16.9459 12.9459C17.1365 13.1365 17.0844 13.4578 16.8433 13.5784L16.5204 13.7398C16.2813 13.8594 16 13.6855 16 13.4182C16 13.3624 15.987 13.3073 15.962 13.2574L15.5482 12.4298C15.4199 12.1731 15.4702 11.8631 15.6731 11.6602L16.6667 10.6667L16.6793 10.654C17.0011 10.3323 16.913 9.78985 16.506 9.58635L16.4298 9.54822C16.1731 9.41989 15.8631 9.4702 15.6602 9.6731L14.6667 10.6667L14.4714 10.8619Z" fill="#E6BE53"/>
<path fill-rule="evenodd" clip-rule="evenodd" d="M12.6667 15.3333C12.6667 15.5788 13.08 15.6605 13.1996 15.4461C13.4321 15.0295 13.716 14.6667 14 14.6667C14.284 14.6667 14.5679 15.0295 14.8004 15.4461C14.92 15.6605 15.3333 15.5788 15.3333 15.3333C15.3333 14.2288 14.7364 13.3333 14 13.3333C13.2636 13.3333 12.6667 14.2288 12.6667 15.3333Z" fill="#215F90"/>
</g>
</svg>
