<svg width="28" height="28" viewBox="0 0 28 28" fill="none" xmlns="http://www.w3.org/2000/svg">
<rect y="4" width="28" height="20" rx="3" fill="white"/>
<mask id="mask0_17_5022" style="mask-type:alpha" maskUnits="userSpaceOnUse" x="0" y="4" width="28" height="20">
<rect y="4" width="28" height="20" rx="3" fill="white"/>
</mask>
<g mask="url(#mask0_17_5022)">
<path fill-rule="evenodd" clip-rule="evenodd" d="M0 24H28V18.6667H0V24Z" fill="#FFE547"/>
<path fill-rule="evenodd" clip-rule="evenodd" d="M0 9.33333H28V4H0V9.33333Z" fill="#118C81"/>
<path fill-rule="evenodd" clip-rule="evenodd" d="M0 18.6667H28V9.33333H0V18.6667Z" fill="white"/>
<path fill-rule="evenodd" clip-rule="evenodd" d="M0 17.3333H28V10.6667H0V17.3333Z" fill="#262626"/>
<path fill-rule="evenodd" clip-rule="evenodd" d="M0 4L13.3333 14L0 24V4Z" fill="#EF2147"/>
<path fill-rule="evenodd" clip-rule="evenodd" d="M4.66667 15.2741L2.70738 16.6967L3.45495 14.3937L1.49648 12.9699L3.91778 12.9692L4.66667 10.6667L5.41555 12.9692L7.83686 12.9699L5.87839 14.3937L6.62595 16.6967L4.66667 15.2741Z" fill="#FDE444"/>
</g>
</svg>
