<svg width="28" height="28" viewBox="0 0 28 28" fill="none" xmlns="http://www.w3.org/2000/svg">
<mask id="mask0_107628_1881" style="mask-type:alpha" maskUnits="userSpaceOnUse" x="0" y="4" width="28" height="20">
<rect y="4" width="28" height="20" rx="3" fill="#0A2D7A"/>
</mask>
<g mask="url(#mask0_107628_1881)">
<rect y="4" width="28" height="20" fill="#0A2D7A"/>
<rect y="13" width="28" height="1.87" fill="#F7C74B"/>
<path d="M7.99996 14.8661L8.41937 16.608L9.6535 15.3092L9.1458 17.0274L10.864 16.5197L9.56521 17.7538L11.307 18.1732L9.56521 18.5926L10.864 19.8268L9.1458 19.3191L9.6535 21.0373L8.41937 19.7385L7.99996 21.4803L7.58055 19.7385L6.34641 21.0373L6.85411 19.3191L5.13594 19.8268L6.4347 18.5926L4.69287 18.1732L6.4347 17.7538L5.13594 16.5197L6.85411 17.0274L6.34641 15.3092L7.58055 16.608L7.99996 14.8661Z" fill="white"/>
</g>
</svg>
