<svg width="28" height="28" viewBox="0 0 28 28" fill="none" xmlns="http://www.w3.org/2000/svg">
<rect y="4" width="28" height="20" rx="2" fill="white"/>
<mask id="mask0_17_4848" style="mask-type:alpha" maskUnits="userSpaceOnUse" x="0" y="4" width="28" height="20">
<rect y="4" width="28" height="20" rx="2" fill="white"/>
</mask>
<g mask="url(#mask0_17_4848)">
<rect y="4" width="28" height="20" fill="#0A17A7"/>
<path d="M0 3.66667H-0.901086L-0.21693 4.25309L4.33333 8.15331V9.16179L-0.193746 12.3954L-0.333333 12.4951V12.6667V13.3333V13.9347L0.176666 13.616L5.42893 10.3333H6.55984L11.0821 13.5635C11.176 13.6306 11.2886 13.6667 11.404 13.6667C11.9182 13.6667 12.1548 13.027 11.7644 12.6924L7.66667 9.18002V8.17154L12.0542 5.03762C12.2294 4.91248 12.3333 4.71043 12.3333 4.49513V4V3.39858L11.8233 3.71733L6.57107 7H5.44016L0.860413 3.72876L0.773488 3.66667H0.666667H0Z" fill="#FF2E3B" stroke="white" stroke-width="0.666667"/>
<path fill-rule="evenodd" clip-rule="evenodd" d="M0 7.33333V10H4.66667V13.3333C4.66667 13.7015 4.96514 14 5.33333 14H6.66667C7.03486 14 7.33333 13.7015 7.33333 13.3333V10H12C12.3682 10 12.6667 9.70152 12.6667 9.33333V8C12.6667 7.63181 12.3682 7.33333 12 7.33333H7.33333V4H4.66667V7.33333H0Z" fill="white"/>
<path fill-rule="evenodd" clip-rule="evenodd" d="M0 8H5.33333V7.33333V4H6.66667V7.33333V8H12V9.33333H6.66667V10V13.3333H5.33333V10V9.33333H0V8Z" fill="#FF2E3B"/>
<path fill-rule="evenodd" clip-rule="evenodd" d="M20 21.3333L19.0572 21.6095L19.3333 20.6667L19.0572 19.7239L20 20L20.9428 19.7239L20.6667 20.6667L20.9428 21.6095L20 21.3333Z" fill="#CA1931"/>
<path fill-rule="evenodd" clip-rule="evenodd" d="M20 8.66667L19.0572 8.94281L19.3333 8L19.0572 7.05719L20 7.33333L20.9428 7.05719L20.6667 8L20.9428 8.94281L20 8.66667Z" fill="#CA1931"/>
<path fill-rule="evenodd" clip-rule="evenodd" d="M24 12.6667L23.0572 12.9428L23.3333 12L23.0572 11.0572L24 11.3333L24.9428 11.0572L24.6667 12L24.9428 12.9428L24 12.6667Z" fill="#CA1931"/>
<path fill-rule="evenodd" clip-rule="evenodd" d="M16 14L15.0572 14.2761L15.3333 13.3333L15.0572 12.3905L16 12.6667L16.9428 12.3905L16.6667 13.3333L16.9428 14.2761L16 14Z" fill="#CA1931"/>
</g>
</svg>
