<svg width="28" height="28" viewBox="0 0 28 28" fill="none" xmlns="http://www.w3.org/2000/svg">
<rect x="0.25" y="4.25" width="27.5" height="19.5" rx="2.75" fill="white" stroke="#D6D8DD" stroke-width="0.5"/>
<mask id="mask0_17_4859" style="mask-type:luminance" maskUnits="userSpaceOnUse" x="0" y="4" width="28" height="20">
<rect x="0.25" y="4.25" width="27.5" height="19.5" rx="2.75" fill="white" stroke="white" stroke-width="0.5"/>
</mask>
<g mask="url(#mask0_17_4859)">
<path fill-rule="evenodd" clip-rule="evenodd" d="M0 10.6667H28V4H0V10.6667Z" fill="#1A78D6"/>
<path fill-rule="evenodd" clip-rule="evenodd" d="M0 24H28V17.3333H0V24Z" fill="#1A78D6"/>
<path d="M14 16.3333C15.2887 16.3333 16.3333 15.2887 16.3333 14C16.3333 12.7113 15.2887 11.6667 14 11.6667C12.7113 11.6667 11.6667 12.7113 11.6667 14C11.6667 15.2887 12.7113 16.3333 14 16.3333Z" stroke="#DBCD92" stroke-width="0.666667"/>
<path fill-rule="evenodd" clip-rule="evenodd" d="M14 12.6667L15.3333 15.3333H12.6667L14 12.6667Z" fill="#9CDDEE"/>
</g>
</svg>
