<svg width="28" height="28" viewBox="0 0 28 28" fill="none" xmlns="http://www.w3.org/2000/svg">
<rect y="4" width="28" height="20" rx="3" fill="white"/>
<mask id="mask0_17_4983" style="mask-type:alpha" maskUnits="userSpaceOnUse" x="0" y="4" width="28" height="20">
<rect y="4" width="28" height="20" rx="3" fill="white"/>
</mask>
<g mask="url(#mask0_17_4983)">
<rect y="4" width="28" height="20" fill="#E81B26"/>
<path fill-rule="evenodd" clip-rule="evenodd" d="M14 17.3333C15.841 17.3333 17.3333 15.841 17.3333 14C17.3333 12.1591 15.841 10.6667 14 10.6667C12.1591 10.6667 10.6667 12.1591 10.6667 14C10.6667 15.841 12.1591 17.3333 14 17.3333Z" fill="#FFE94F"/>
<path fill-rule="evenodd" clip-rule="evenodd" d="M10.2081 11.2793C10.4094 10.9992 10.641 10.7423 10.898 10.5135L1.96165 0.46936L-0.714874 3.44194L10.2081 11.2793ZM10.898 17.4865C10.641 17.2577 10.4094 17.0008 10.2081 16.7207L-0.714874 24.5581L1.96165 27.5306L10.898 17.4865ZM13.0846 18.5769L12 24H16L14.9154 18.5769C14.6194 18.6358 14.3133 18.6667 14 18.6667C13.6867 18.6667 13.3806 18.6358 13.0846 18.5769ZM17.7919 16.7207C17.5906 17.0008 17.359 17.2577 17.102 17.4865L26.0383 27.5306L28.7149 24.5581L17.7919 16.7207ZM9.37965 14.6601C9.34912 14.4444 9.33333 14.2241 9.33333 14C9.33333 13.7759 9.34912 13.5556 9.37964 13.34L-6.19888e-06 12V16L9.37965 14.6601ZM13.0846 9.42308L12 4H16L14.9154 9.42308C14.6194 9.36421 14.3133 9.33333 14 9.33333C13.6867 9.33333 13.3806 9.36421 13.0846 9.42308ZM18.6203 13.34C18.6509 13.5556 18.6667 13.7759 18.6667 14C18.6667 14.2241 18.6509 14.4444 18.6203 14.6601L28 16V12L18.6203 13.34ZM17.7919 11.2793C17.5906 10.9992 17.359 10.7423 17.102 10.5135L26.0383 0.46936L28.7149 3.44194L17.7919 11.2793Z" fill="#FFE94F"/>
</g>
</svg>
