<svg width="28" height="28" viewBox="0 0 28 28" fill="none" xmlns="http://www.w3.org/2000/svg">
<rect x="0.25" y="4.25" width="27.5" height="19.5" rx="2.75" fill="white" stroke="#F5F5F5" stroke-width="0.5"/>
<mask id="mask0_17_4751" style="mask-type:alpha" maskUnits="userSpaceOnUse" x="0" y="4" width="28" height="20">
<rect x="0.25" y="4.25" width="27.5" height="19.5" rx="2.75" fill="white" stroke="white" stroke-width="0.5"/>
</mask>
<g mask="url(#mask0_17_4751)">
<path fill-rule="evenodd" clip-rule="evenodd" d="M28 4H8V24H28V4Z" fill="#0A632F"/>
<path fill-rule="evenodd" clip-rule="evenodd" d="M23.6701 14.7505C23.5418 16.0012 23.0087 17.2029 22.0665 18.1451C19.8206 20.391 16.1005 20.3121 13.7574 17.969C11.4142 15.6258 11.3353 11.9057 13.5812 9.65983C14.5234 8.71761 15.7251 8.18456 16.9758 8.05623C16.5818 8.28839 16.209 8.57486 15.8685 8.91528C13.8268 10.957 13.7258 14.1662 15.643 16.0833C17.5601 18.0005 20.7693 17.8995 22.811 15.8578C23.1515 15.5174 23.4379 15.1445 23.6701 14.7505ZM21.0924 12.1047L20.7742 14.0031L19.8849 12.296L17.981 12.5799L19.3298 11.2066L18.4714 9.48369L20.1943 10.3421L21.5677 8.99329L21.2837 10.8972L22.9908 11.7865L21.0924 12.1047Z" fill="white"/>
</g>
</svg>
