<svg width="28" height="28" viewBox="0 0 28 28" fill="none" xmlns="http://www.w3.org/2000/svg">
<rect y="4" width="28" height="20" rx="3" fill="white"/>
<mask id="mask0_17_4720" style="mask-type:luminance" maskUnits="userSpaceOnUse" x="0" y="4" width="28" height="20">
<rect y="4" width="28" height="20" rx="3" fill="white"/>
</mask>
<g mask="url(#mask0_17_4720)">
<rect y="4" width="28" height="20" fill="#262626"/>
<path fill-rule="evenodd" clip-rule="evenodd" d="M0 4H28V24L0 4Z" fill="#E8283F"/>
<path fill-rule="evenodd" clip-rule="evenodd" d="M6.66668 20.6667L5.72387 20.9428L6.00001 20L5.72387 19.0572L6.66668 19.3333L7.60949 19.0572L7.33334 20L7.60949 20.9428L6.66668 20.6667Z" fill="white"/>
<path fill-rule="evenodd" clip-rule="evenodd" d="M6.66668 12.6667L5.72387 12.9428L6.00001 12L5.72387 11.0572L6.66668 11.3333L7.60949 11.0572L7.33334 12L7.60949 12.9428L6.66668 12.6667Z" fill="white"/>
<path fill-rule="evenodd" clip-rule="evenodd" d="M3.33333 16L2.39052 16.2761L2.66667 15.3333L2.39052 14.3905L3.33333 14.6667L4.27614 14.3905L4 15.3333L4.27614 16.2761L3.33333 16Z" fill="white"/>
<path fill-rule="evenodd" clip-rule="evenodd" d="M9.33333 15.3333L8.39052 15.6095L8.66667 14.6667L8.39052 13.7239L9.33333 14L10.2761 13.7239L10 14.6667L10.2761 15.6095L9.33333 15.3333Z" fill="white"/>
<path fill-rule="evenodd" clip-rule="evenodd" d="M18.8613 13.2656C18.7016 13.1698 18.5722 12.9442 18.5722 12.7637L18.5722 11.535C18.5722 11.3536 18.4417 11.25 18.2442 11.3159L17.486 11.5686C17.3049 11.629 17.0275 11.6344 16.83 11.5686L16.0718 11.3159C15.8907 11.2555 15.8705 11.1305 16.0328 11.0331L17.8118 9.96573C17.9714 9.86996 18.0573 9.66181 17.9915 9.46431L17.7388 8.70611C17.6784 8.52496 17.7599 8.42161 17.9574 8.48744L18.7156 8.74017C18.8968 8.80056 19.1197 8.72278 19.2171 8.56049L20.2844 6.7815C20.3802 6.62188 20.5014 6.623 20.5672 6.82049L20.8199 7.5787C20.8803 7.75985 20.8858 8.03721 20.8199 8.2347L20.5672 8.99291C20.5068 9.17406 20.6058 9.32091 20.7863 9.32091H22.015C22.1964 9.32091 22.4195 9.44764 22.5169 9.60993L23.5843 11.3889C23.68 11.5485 23.603 11.7089 23.43 11.7435L21.7284 12.0838C21.5474 12.12 21.3697 12.304 21.3351 12.4771L20.9948 14.1786C20.9586 14.3596 20.8025 14.4303 20.6402 14.333L18.8613 13.2656Z" fill="#FFD84E"/>
</g>
</svg>
