<svg width="28" height="28" viewBox="0 0 28 28" fill="none" xmlns="http://www.w3.org/2000/svg">
<rect x="0.25" y="4.25" width="27.5" height="19.5" rx="1.75" fill="white" stroke="#F5F5F5" stroke-width="0.5"/>
<mask id="mask0_17_4688" style="mask-type:alpha" maskUnits="userSpaceOnUse" x="0" y="4" width="28" height="20">
<rect x="0.25" y="4.25" width="27.5" height="19.5" rx="1.75" fill="white" stroke="white" stroke-width="0.5"/>
</mask>
<g mask="url(#mask0_17_4688)">
<path fill-rule="evenodd" clip-rule="evenodd" d="M0 10.6667H28V4H0V10.6667Z" fill="#E33F39"/>
<path fill-rule="evenodd" clip-rule="evenodd" d="M0 24H28V17.3333H0V24Z" fill="#124BBA"/>
<path d="M14 16.3333C15.2887 16.3333 16.3333 15.2887 16.3333 14C16.3333 12.7113 15.2887 11.6667 14 11.6667C12.7113 11.6667 11.6667 12.7113 11.6667 14C11.6667 15.2887 12.7113 16.3333 14 16.3333Z" stroke="#398153" stroke-width="0.666667"/>
<path fill-rule="evenodd" clip-rule="evenodd" d="M14 14.6667C14.3682 14.6667 14.6666 14.3682 14.6666 14C14.6666 13.6318 14.3682 13.3333 14 13.3333C13.6318 13.3333 13.3333 13.6318 13.3333 14C13.3333 14.3682 13.6318 14.6667 14 14.6667Z" fill="#E5CF58"/>
</g>
</svg>
