<svg width="28" height="28" viewBox="0 0 28 28" fill="none" xmlns="http://www.w3.org/2000/svg">
<rect x="0.25" y="4.25" width="27.5" height="19.5" rx="2.75" fill="white" stroke="#D6D8DD" stroke-width="0.5"/>
<mask id="mask0_17_4700" style="mask-type:alpha" maskUnits="userSpaceOnUse" x="0" y="4" width="28" height="20">
<rect x="0.25" y="4.25" width="27.5" height="19.5" rx="2.75" fill="white" stroke="white" stroke-width="0.5"/>
</mask>
<g mask="url(#mask0_17_4700)">
<path fill-rule="evenodd" clip-rule="evenodd" d="M0 24H28V13.3333H12.4444L13.3333 14L0 24Z" fill="#DD1C34"/>
<path fill-rule="evenodd" clip-rule="evenodd" d="M28 13.3333H12.4444L0 4H28V13.3333Z" fill="#0D4BC3"/>
<path fill-rule="evenodd" clip-rule="evenodd" d="M2.00001 7.99999C2.3682 7.99999 2.66668 7.70151 2.66668 7.33332C2.66668 6.96513 2.3682 6.66666 2.00001 6.66666C1.63182 6.66666 1.33334 6.96513 1.33334 7.33332C1.33334 7.70151 1.63182 7.99999 2.00001 7.99999ZM10 14.6667C10.3682 14.6667 10.6667 14.3682 10.6667 14C10.6667 13.6318 10.3682 13.3333 10 13.3333C9.63182 13.3333 9.33334 13.6318 9.33334 14C9.33334 14.3682 9.63182 14.6667 10 14.6667ZM2.66668 20.6667C2.66668 21.0348 2.3682 21.3333 2.00001 21.3333C1.63182 21.3333 1.33334 21.0348 1.33334 20.6667C1.33334 20.2985 1.63182 20 2.00001 20C2.3682 20 2.66668 20.2985 2.66668 20.6667ZM4.53209 15.3266L3.39107 17.0796L3.8238 15.0332C3.75416 14.9763 3.69038 14.9125 3.63351 14.8429L1.58708 15.2756L3.34005 14.1346C3.33562 14.0903 3.33334 14.0454 3.33334 14C3.33334 13.9546 3.33562 13.9097 3.34005 13.8654L1.58708 12.7244L3.63351 13.1571C3.69038 13.0875 3.75416 13.0237 3.8238 12.9668L3.39107 10.9204L4.53209 12.6734C4.57635 12.6689 4.62125 12.6667 4.66668 12.6667C4.71211 12.6667 4.75701 12.6689 4.80127 12.6734L5.94229 10.9204L5.50956 12.9668C5.57919 13.0237 5.64297 13.0875 5.69985 13.1571L7.74628 12.7244L5.9933 13.8654C5.99774 13.9097 6.00001 13.9546 6.00001 14C6.00001 14.0454 5.99774 14.0903 5.9933 14.1346L7.74628 15.2756L5.69985 14.8429C5.64297 14.9125 5.57919 14.9763 5.50956 15.0332L5.94229 17.0796L4.80127 15.3266C4.75701 15.3311 4.71211 15.3333 4.66668 15.3333C4.62125 15.3333 4.57635 15.3311 4.53209 15.3266Z" fill="#FDD64D"/>
</g>
</svg>
