<svg width="28" height="28" viewBox="0 0 28 28" fill="none" xmlns="http://www.w3.org/2000/svg">
<rect x="0.25" y="4.25" width="27.5" height="19.5" rx="1.75" fill="white" stroke="#F5F5F5" stroke-width="0.5"/>
<mask id="mask0_17_4742" style="mask-type:alpha" maskUnits="userSpaceOnUse" x="0" y="4" width="28" height="20">
<rect x="0.25" y="4.25" width="27.5" height="19.5" rx="1.75" fill="white" stroke="white" stroke-width="0.5"/>
</mask>
<g mask="url(#mask0_17_4742)">
<path fill-rule="evenodd" clip-rule="evenodd" d="M0 4H28V8H0V4ZM0 12H28V16H0V12ZM0 20V24H28V20H0Z" fill="#FA2222"/>
<path fill-rule="evenodd" clip-rule="evenodd" d="M0 4L13.3333 14L0 24V4Z" fill="#1D63F9"/>
<g filter="url(#filter0_d_17_4742)">
<path fill-rule="evenodd" clip-rule="evenodd" d="M4.66666 15.2741L2.70738 16.6967L3.45494 14.3937L1.49647 12.9699L3.91778 12.9692L4.66666 10.6667L5.41555 12.9692L7.83685 12.9699L5.87838 14.3937L6.62595 16.6967L4.66666 15.2741Z" fill="url(#paint0_linear_17_4742)"/>
</g>
</g>
<defs>
<filter id="filter0_d_17_4742" x="1.49648" y="10.6667" width="6.34038" height="7.03006" filterUnits="userSpaceOnUse" color-interpolation-filters="sRGB">
<feFlood flood-opacity="0" result="BackgroundImageFix"/>
<feColorMatrix in="SourceAlpha" type="matrix" values="0 0 0 0 0 0 0 0 0 0 0 0 0 0 0 0 0 0 127 0" result="hardAlpha"/>
<feOffset dy="1"/>
<feColorMatrix type="matrix" values="0 0 0 0 0 0 0 0 0 0 0 0 0 0 0 0 0 0 0.06 0"/>
<feBlend mode="normal" in2="BackgroundImageFix" result="effect1_dropShadow_17_4742"/>
<feBlend mode="normal" in="SourceGraphic" in2="effect1_dropShadow_17_4742" result="shape"/>
</filter>
<linearGradient id="paint0_linear_17_4742" x1="1.33333" y1="10.6667" x2="1.33333" y2="17.3333" gradientUnits="userSpaceOnUse">
<stop stop-color="white"/>
<stop offset="1" stop-color="#F0F0F0"/>
</linearGradient>
</defs>
</svg>
