<svg width="28" height="28" viewBox="0 0 28 28" fill="none" xmlns="http://www.w3.org/2000/svg">
<path d="M0.25 21C0.25 22.5188 1.48122 23.75 3 23.75H25C26.5188 23.75 27.75 22.5188 27.75 21V7C27.75 5.48122 26.5188 4.25 25 4.25H3C1.48122 4.25 0.25 5.48122 0.25 7V21Z" fill="white" stroke="#F5F5F5" stroke-width="0.5"/>
<mask id="mask0_107628_1306" style="mask-type:alpha" maskUnits="userSpaceOnUse" x="0" y="4" width="28" height="20">
<path d="M0 21C0 22.6569 1.34315 24 3 24H25C26.6569 24 28 22.6569 28 21V7C28 5.34315 26.6569 4 25 4H3C1.34315 4 0 5.34315 0 7V21Z" fill="#B82B21"/>
</mask>
<g mask="url(#mask0_107628_1306)">
<path d="M-3 17H31V4H-3V17Z" fill="#B82B21"/>
<path d="M14.4 12.3197L13.9932 11L13.5864 12.3197L12.8863 11.1294L12.7948 12.5073L11.839 11.5106L12.0678 12.8725L10.9079 12.123L11.4445 13.3954L10.143 12.9336L10.9587 14.048L9.5858 13.8988L10.6364 14.795L9.26616 14.9665L10.4952 15.5963L9.20135 16.0791L10.5425 16.4085L9.65879 17H18.3277L17.444 16.4085L18.7851 16.0791L17.4913 15.5963L18.7203 14.9665L17.35 14.795L18.4007 13.8988L17.0278 14.048L17.8434 12.9336L16.542 13.3954L17.0786 12.123L15.9187 12.8725L16.1475 11.5106L15.1917 12.5073L15.1002 11.1294L14.4 12.3197Z" fill="#F2D046"/>
<path fill-rule="evenodd" clip-rule="evenodd" d="M-3.00293 16.2128H31.2825V17.878C30.7112 17.878 30.1404 18.0614 29.5694 18.245C28.9978 18.4287 28.4259 18.6125 27.853 18.6125C27.2828 18.6125 26.712 18.429 26.1408 18.2455C25.569 18.0618 24.9969 17.878 24.4248 17.878C23.8532 17.878 23.2814 18.0618 22.7098 18.2454C22.1387 18.429 21.5677 18.6125 20.9975 18.6125C20.4261 18.6125 19.8552 18.429 19.2841 18.2454C18.7125 18.0618 18.1406 17.878 17.568 17.878C16.9956 17.878 16.424 18.0618 15.8528 18.2456C15.2822 18.4291 14.712 18.6125 14.1418 18.6125C13.5692 18.6125 12.9977 18.4288 12.4261 18.2452L12.4261 18.2452C11.8545 18.0616 11.2829 17.878 10.7103 17.878C10.1401 17.878 9.56926 18.0614 8.99808 18.2449C8.42628 18.4286 7.85416 18.6125 7.28207 18.6125C6.7118 18.6125 6.14048 18.429 5.56891 18.2455C4.99681 18.0618 4.42445 17.878 3.85262 17.878C3.28212 17.878 2.71111 18.0616 2.14005 18.2452C1.5689 18.4288 0.997716 18.6125 0.426959 18.6125C-0.147532 18.6125 -0.720551 18.4283 -1.29277 18.2445C-1.8634 18.0611 -2.43323 17.878 -3.00293 17.878V16.2128ZM31.2825 20.3282V19.1038C30.7112 19.1038 30.1404 19.2872 29.5694 19.4707C28.9978 19.6544 28.4259 19.8382 27.853 19.8382C27.2828 19.8382 26.712 19.6548 26.1408 19.4713C25.569 19.2876 24.9969 19.1038 24.4248 19.1038C23.8532 19.1038 23.2814 19.2875 22.7098 19.4712C22.1387 19.6547 21.5677 19.8382 20.9975 19.8382C20.4261 19.8382 19.8552 19.6547 19.2841 19.4712C18.7125 19.2875 18.1406 19.1038 17.568 19.1038C16.9956 19.1038 16.424 19.2876 15.8528 19.4713C15.2822 19.6548 14.712 19.8382 14.1418 19.8382C13.5692 19.8382 12.9977 19.6546 12.4261 19.471C11.8545 19.2874 11.2829 19.1038 10.7103 19.1038C10.1401 19.1038 9.56926 19.2872 8.99808 19.4707C8.42628 19.6544 7.85416 19.8382 7.28207 19.8382C6.7118 19.8382 6.14048 19.6547 5.56891 19.4712C4.99681 19.2876 4.42445 19.1038 3.85262 19.1038C3.28212 19.1038 2.71111 19.2874 2.14005 19.4709C1.5689 19.6545 0.997716 19.8382 0.426959 19.8382C-0.147532 19.8382 -0.720551 19.6541 -1.29277 19.4702C-1.8634 19.2869 -2.43323 19.1038 -3.00293 19.1038V20.3282C-2.43323 20.3282 -1.8634 20.5112 -1.29277 20.6945C-0.720551 20.8782 -0.147532 21.0623 0.426959 21.0623C0.997716 21.0623 1.5689 20.8787 2.14005 20.6952C2.71111 20.5117 3.28212 20.3282 3.85262 20.3282C4.42445 20.3282 4.99681 20.5119 5.56891 20.6955C6.14048 20.8789 6.7118 21.0623 7.28207 21.0623C7.85416 21.0623 8.42628 20.8786 8.99808 20.695C9.56926 20.5116 10.1401 20.3282 10.7103 20.3282C11.2829 20.3282 11.8545 20.5118 12.4261 20.6953C12.9977 20.8788 13.5692 21.0623 14.1418 21.0623C14.712 21.0623 15.2822 20.879 15.8528 20.6956C16.424 20.512 16.9956 20.3282 17.568 20.3282C18.1406 20.3282 18.7125 20.5119 19.2841 20.6955C19.8552 20.8789 20.4261 21.0623 20.9975 21.0623C21.5677 21.0623 22.1387 20.8789 22.7098 20.6955C23.2814 20.5119 23.8532 20.3282 24.4248 20.3282C24.9969 20.3282 25.569 20.512 26.1408 20.6956C26.712 20.879 27.2828 21.0623 27.853 21.0623C28.4259 21.0623 28.9978 20.8786 29.5694 20.695C30.1404 20.5116 30.7112 20.3282 31.2825 20.3282ZM31.2825 21.5511V24H-3.00293V21.5511C-2.43323 21.5511 -1.8634 21.7345 -1.29277 21.9181C-0.720551 22.1023 -0.147532 22.2867 0.426959 22.2867C0.997716 22.2867 1.5689 22.1028 2.14005 21.9189C2.71111 21.735 3.28212 21.5511 3.85262 21.5511C4.42445 21.5511 4.99681 21.7352 5.56891 21.9192C6.14048 22.103 6.7118 22.2867 7.28207 22.2867C7.85416 22.2867 8.42628 22.1026 8.99808 21.9186C9.56926 21.7348 10.1401 21.5511 10.7103 21.5511C11.2829 21.5511 11.8545 21.735 12.4261 21.9189C12.9977 22.1028 13.5692 22.2867 14.1418 22.2867C14.712 22.2867 15.2822 22.103 15.8528 21.9192C16.424 21.7352 16.9956 21.5511 17.568 21.5511C18.1406 21.5511 18.7125 21.7351 19.2841 21.9191C19.8552 22.103 20.4261 22.2867 20.9975 22.2867C21.5677 22.2867 22.1387 22.103 22.7098 21.9191C23.2814 21.7351 23.8532 21.5511 24.4248 21.5511C24.9969 21.5511 25.569 21.7352 26.1408 21.9192C26.712 22.103 27.2828 22.2867 27.853 22.2867C28.4259 22.2867 28.9978 22.1026 29.5694 21.9186C30.1404 21.7348 30.7112 21.5511 31.2825 21.5511Z" fill="#1C316C"/>
<path d="M-3.00293 16.6535C-1.86193 16.6535 -0.720423 17.388 0.426959 17.388C1.56839 17.388 2.71154 16.6535 3.85262 16.6535C4.99577 16.6535 6.14101 17.388 7.28207 17.388C8.42563 17.388 9.56928 16.6535 10.7103 16.6535C11.8555 16.6535 12.9967 17.388 14.1418 17.388C15.2829 17.388 16.424 16.6535 17.568 16.6535C18.7129 16.6535 19.8544 17.388 20.9975 17.388C22.1385 17.388 23.282 16.6535 24.4248 16.6535C25.5683 16.6535 26.712 17.388 27.853 17.388C28.9983 17.388 30.1394 16.6535 31.2825 16.6535V15.4278C30.1394 15.4278 28.9983 16.1623 27.853 16.1623C26.712 16.1623 25.5683 15.4278 24.4248 15.4278C23.282 15.4278 22.1385 16.1623 20.9975 16.1623C19.8544 16.1623 18.7129 15.4278 17.568 15.4278C16.424 15.4278 15.2829 16.1623 14.1418 16.1623C12.9967 16.1623 11.8555 15.4278 10.7103 15.4278C9.56928 15.4278 8.42563 16.1623 7.28207 16.1623C6.14101 16.1623 4.99577 15.4278 3.85262 15.4278C2.71154 15.4278 1.56839 16.1623 0.426959 16.1623C-0.720423 16.1623 -1.86193 15.4278 -3.00293 15.4278V16.6535Z" fill="white"/>
<path d="M14.918 9.7078L16.1847 9.71539C16.1909 9.66227 16.0751 9.55656 15.9756 9.53888C15.6546 9.4887 15.4143 9.59441 15.028 9.597L14.918 9.7078Z" fill="#F2D046"/>
<path d="M12.3919 9.40782C12.6911 9.78443 13.2679 10.0453 13.8187 10.0478C14.5649 10.0529 15.3849 9.45336 16.3805 9.26702L13.1281 9.2014C12.7092 8.91399 12.3882 8.94935 12.1708 9.12845L11.5522 9.14819C11.4625 9.19631 11.6242 9.39515 11.7515 9.40274L12.3919 9.40782Z" fill="#F2D046"/>
<path d="M13.8626 9.19379C13.745 8.64843 13.3076 8.41549 12.7852 8.34719C12.1767 8.26415 10.782 8.18371 9.8562 7.91657C10.2574 8.30978 11.0972 8.50736 11.6795 8.59665C12.2981 8.69111 12.8989 8.82834 13.3758 9.1862L13.8626 9.19379Z" fill="#F2D046"/>
<path d="M13.4697 9.55655C13.6631 9.80342 13.964 9.79083 14.2851 9.57423C14.6091 9.35628 14.9597 8.74798 15.1274 8.7378C16.3127 8.6695 17.7411 8.17102 18.4233 7.78549C17.5578 7.90772 16.7 8.04504 15.8277 8.05013C14.3411 8.05513 14.1637 8.73406 13.559 9.20887L13.4697 9.55655Z" fill="#F2D046"/>
</g>
</svg>
