<svg width="28" height="28" viewBox="0 0 28 28" fill="none" xmlns="http://www.w3.org/2000/svg">
<rect y="4" width="28" height="20" rx="3" fill="white"/>
<mask id="mask0_17_4664" style="mask-type:alpha" maskUnits="userSpaceOnUse" x="0" y="4" width="28" height="20">
<rect y="4" width="28" height="20" rx="3" fill="white"/>
</mask>
<g mask="url(#mask0_17_4664)">
<g filter="url(#filter0_d_17_4664)">
<path fill-rule="evenodd" clip-rule="evenodd" d="M0 24H28V18.6667H0V24Z" fill="#2D754D"/>
</g>
<path fill-rule="evenodd" clip-rule="evenodd" d="M0 13.3333H28V4H0V13.3333Z" fill="#25B1EB"/>
<path fill-rule="evenodd" clip-rule="evenodd" d="M0 18.6667H28V13.3333H0V18.6667Z" fill="#FECB2F"/>
<path fill-rule="evenodd" clip-rule="evenodd" d="M21.3334 10L20.3129 11.1303L20.3905 9.60948L18.8697 9.68716L20 8.66667L18.8697 7.64618L20.3905 7.72386L20.3129 6.20299L21.3334 7.33333L22.3538 6.20299L22.2762 7.72386L23.797 7.64618L22.6667 8.66667L23.797 9.68716L22.2762 9.60948L22.3538 11.1303L21.3334 10Z" fill="#FECB2F"/>
</g>
<defs>
<filter id="filter0_d_17_4664" x="0" y="18.6667" width="28" height="5.33334" filterUnits="userSpaceOnUse" color-interpolation-filters="sRGB">
<feFlood flood-opacity="0" result="BackgroundImageFix"/>
<feColorMatrix in="SourceAlpha" type="matrix" values="0 0 0 0 0 0 0 0 0 0 0 0 0 0 0 0 0 0 127 0" result="hardAlpha"/>
<feOffset/>
<feColorMatrix type="matrix" values="0 0 0 0 0 0 0 0 0 0 0 0 0 0 0 0 0 0 0.06 0"/>
<feBlend mode="normal" in2="BackgroundImageFix" result="effect1_dropShadow_17_4664"/>
<feBlend mode="normal" in="SourceGraphic" in2="effect1_dropShadow_17_4664" result="shape"/>
</filter>
</defs>
</svg>
