<svg width="28" height="28" viewBox="0 0 28 28" fill="none" xmlns="http://www.w3.org/2000/svg">
<rect y="4" width="28" height="20" rx="2" fill="white"/>
<mask id="mask0_17_4595" style="mask-type:alpha" maskUnits="userSpaceOnUse" x="0" y="4" width="28" height="20">
<rect y="4" width="28" height="20" rx="2" fill="white"/>
</mask>
<g mask="url(#mask0_17_4595)">
<rect y="4" width="28" height="20" fill="url(#paint0_linear_17_4595)"/>
<path fill-rule="evenodd" clip-rule="evenodd" d="M17.3333 14C17.3333 12.9063 17.3333 11.6131 17.3333 10.6658C17.3333 9.92943 17.9303 9.33333 18.6667 9.33333H22.6667C23.403 9.33333 24 9.92943 24 10.6658C24 11.6131 24 12.9063 24 14C24 17.3333 20.6667 18.6667 20.6667 18.6667C20.6667 18.6667 17.3333 17.3333 17.3333 14Z" fill="#8FC5FF"/>
<mask id="mask1_17_4595" style="mask-type:alpha" maskUnits="userSpaceOnUse" x="17" y="9" width="7" height="10">
<path fill-rule="evenodd" clip-rule="evenodd" d="M17.3333 14C17.3333 12.9063 17.3333 11.6131 17.3333 10.6658C17.3333 9.92943 17.9303 9.33333 18.6667 9.33333H22.6667C23.403 9.33333 24 9.92943 24 10.6658C24 11.6131 24 12.9063 24 14C24 17.3333 20.6667 18.6667 20.6667 18.6667C20.6667 18.6667 17.3333 17.3333 17.3333 14Z" fill="white"/>
</mask>
<g mask="url(#mask1_17_4595)">
<path fill-rule="evenodd" clip-rule="evenodd" d="M20.0899 15.8836C20.0899 15.8836 20.7572 15.0195 21.1497 15.0195C21.5422 15.0195 21.6143 15.5932 22.2178 15.5932C22.8214 15.5932 23.1397 14.6788 23.7211 14.6788C24.3024 14.6788 23.7211 17.6788 23.7211 17.6788L22.9333 18.4914L18.322 19.024L20.0899 15.8836Z" fill="#366CC9"/>
<path fill-rule="evenodd" clip-rule="evenodd" d="M18.1262 14.5512L18.7147 14L19.293 15.4157L20.0693 14L20.7369 18.0354L19.6266 17.8095L16 16.1514L18.1262 14.5512Z" fill="#CF6200"/>
<rect x="17.3333" y="9.33333" width="6.66667" height="4" fill="#FFFF00"/>
</g>
<path d="M17.6667 14V13.9486V13.8969V13.8449V13.7927V13.7403V13.6876V13.6347V13.5816V13.5283V13.4748V13.4211V13.3673V13.3134V13.2864V13.2796V13.2728V13.2593V13.2051V13.1508V13.0964V13.042V12.9874V12.9328V12.8782V12.8235V12.7689V12.7415V12.7347V12.7278V12.721V12.7142V12.7073V12.7005V12.6937V12.6868V12.68V12.6732V12.6663V12.6595V12.6527V12.6458V12.639V12.6322V12.6253V12.6185V12.6117V12.6048V12.598V12.5912V12.5843V12.5775V12.5707V12.5639V12.557V12.5502V12.5434V12.5366V12.5297V12.5229V12.5161V12.5093V12.5024V12.4956V12.4888V12.482V12.4752V12.4684V12.4615V12.4547V12.4479V12.4411V12.4343V12.4275V12.4207V12.4139V12.4071V12.4003V12.3935V12.3866V12.3798V12.373V12.3662V12.3595V12.3527V12.3459V12.3391V12.3323V12.3255V12.3187V12.3119V12.3051V12.2983V12.2916V12.2848V12.278V12.2712V12.2644V12.2577V12.2509V12.2441V12.2374V12.2306V12.2238V12.2171V12.2103V12.2035V12.1968V12.19V12.1833V12.1765V12.1698V12.163V12.1563V12.1495V12.1428V12.1361V12.1293V12.1226V12.1159V12.1091V12.1024V12.0957V12.089V12.0822V12.0755V12.0688V12.0621V12.0554V12.0487V12.042V12.0353V12.0286V12.0219V12.0152V12.0085V12.0018V11.9951V11.9884V11.9817V11.975V11.9684V11.9617V11.955V11.9484V11.9417V11.935V11.9284V11.9217V11.9151V11.9084V11.9018V11.8951V11.8885V11.8752V11.8487V11.7958V11.7432V11.6908V11.6386V11.5867V11.535V11.4837V11.4326V11.3819V11.3314V11.2813V11.2316V11.1822V11.1331V11.0845V11.0362V10.9409V10.8474V10.7556V10.6658C17.6667 10.1138 18.1141 9.66666 18.6667 9.66666H22.6667C23.2192 9.66666 23.6667 10.1138 23.6667 10.6658V10.6714V10.6769V10.6825V10.6881V10.6937V10.6993V10.7049V10.7105V10.7161V10.7217V10.7273V10.733V10.7386V10.7443V10.75V10.7556V10.7613V10.767V10.7727V10.7784V10.7841V10.7898V10.7955V10.8013V10.807V10.8127V10.8185V10.8242V10.83V10.8358V10.8416V10.8474V10.8532V10.859V10.8648V10.8706V10.8764V10.8822V10.8881V10.8939V10.8998V10.9056V10.9115V10.9174V10.9232V10.9291V10.935V10.9409V10.9468V10.9527V10.9587V10.9646V10.9705V10.9765V10.9824V10.9884V10.9943V11.0003V11.0062V11.0122V11.0182V11.0242V11.0302V11.0362V11.0422V11.0482V11.0543V11.0603V11.0663V11.0724V11.0784V11.0845V11.0905V11.0966V11.1027V11.1087V11.1148V11.1209V11.127V11.1331V11.1392V11.1453V11.1515V11.1576V11.1637V11.1699V11.176V11.1822V11.1883V11.1945V11.2006V11.2068V11.213V11.2192V11.2254V11.2316V11.2378V11.244V11.2502V11.2564V11.2626V11.2689V11.2751V11.2813V11.2876V11.2938V11.3001V11.3063V11.3126V11.3189V11.3251V11.3314V11.3377V11.344V11.3503V11.3566V11.3629V11.3692V11.3755V11.3819V11.3882V11.3945V11.4009V11.4072V11.4136V11.4199V11.4263V11.4326V11.439V11.4454V11.4517V11.4581V11.4645V11.4709V11.4773V11.4837V11.4901V11.4965V11.5029V11.5093V11.5158V11.5222V11.5286V11.5351V11.5415V11.5479V11.5544V11.5608V11.5673V11.5738V11.5802V11.5867V11.5932V11.5996V11.6061V11.6126V11.6191V11.6256V11.6321V11.6386V11.6451V11.6516V11.6581V11.6647V11.6712V11.6777V11.6842V11.6908V11.6973V11.7038V11.7104V11.7169V11.7235V11.7301V11.7366V11.7432V11.7497V11.7563V11.7629V11.7695V11.7761V11.7826V11.7892V11.7958V11.8024V11.809V11.8156V11.8222V11.8288V11.8355V11.8421V11.8487V11.8553V11.8619V11.8686V11.8752V11.8818V11.8885V11.8951V11.9018V11.9084V11.9151V11.9217V11.9284V11.935V11.9417V11.9484V11.955V11.9617V11.9684V11.975V11.9817V11.9884V11.9951V12.0018V12.0085V12.0152V12.0219V12.0286V12.0353V12.042V12.0487V12.0554V12.0621V12.0688V12.0755V12.0822V12.089V12.0957V12.1024V12.1091V12.1159V12.1226V12.1293V12.1361V12.1428V12.1495V12.1563V12.163V12.1698V12.1765V12.1833V12.19V12.1968V12.2035V12.2103V12.2171V12.2238V12.2306V12.2374V12.2441V12.2509V12.2577V12.2644V12.2712V12.278V12.2848V12.2916V12.2983V12.3051V12.3119V12.3187V12.3255V12.3323V12.3391V12.3459V12.3527V12.3595V12.3663V12.373V12.3798V12.3867V12.3935V12.4003V12.4071V12.4139V12.4207V12.4275V12.4343V12.4411V12.4479V12.4547V12.4615V12.4684V12.4752V12.482V12.4888V12.4956V12.5024V12.5093V12.5161V12.5229V12.5297V12.5366V12.5434V12.5502V12.557V12.5639V12.5707V12.5775V12.5843V12.5912V12.598V12.6048V12.6117V12.6185V12.6253V12.6322V12.639V12.6458V12.6527V12.6595V12.6663V12.6732V12.68V12.6868V12.6937V12.7005V12.7073V12.7142V12.721V12.7278V12.7347V12.7415V12.7484V12.7552V12.762V12.7689V12.7757V12.7825V12.7894V12.7962V12.803V12.8099V12.8167V12.8235V12.8304V12.8372V12.844V12.8509V12.8577V12.8645V12.8714V12.8782V12.885V12.8919V12.8987V12.9055V12.9124V12.9192V12.926V12.9328V12.9397V12.9465V12.9533V12.9601V12.967V12.9738V12.9806V12.9874V12.9943V13.0011V13.0079V13.0147V13.0215V13.0283V13.0352V13.042V13.0488V13.0556V13.0624V13.0692V13.076V13.0828V13.0896V13.0964V13.1032V13.11V13.1168V13.1236V13.1304V13.1372V13.144V13.1508V13.1576V13.1644V13.1712V13.178V13.1848V13.1916V13.1983V13.2051V13.2119V13.2187V13.2255V13.2322V13.239V13.2458V13.2525V13.2593V13.2661V13.2728V13.2796V13.2864V13.2931V13.2999V13.3066V13.3134V13.3201V13.3269V13.3336V13.3404V13.3471V13.3539V13.3606V13.3673V13.3741V13.3808V13.3875V13.3943V13.401V13.4077V13.4144V13.4211V13.4278V13.4346V13.4413V13.448V13.4547V13.4614V13.4681V13.4748V13.4815V13.4882V13.4949V13.5015V13.5082V13.5149V13.5216V13.5283V13.5349V13.5416V13.5483V13.5549V13.5616V13.5683V13.5749V13.5816V13.5882V13.5949V13.6015V13.6081V13.6148V13.6214V13.628V13.6347V13.6413V13.6479V13.6545V13.6611V13.6678V13.6744V13.681V13.6876V13.6942V13.7008V13.7074V13.7139V13.7205V13.7271V13.7337V13.7403V13.7468V13.7534V13.76V13.7665V13.7731V13.7796V13.7862V13.7927V13.7993V13.8058V13.8123V13.8189V13.8254V13.8319V13.8384V13.8449V13.8514V13.8579V13.8644V13.8709V13.8774V13.8839V13.8904V13.8969V13.9034V13.9098V13.9163V13.9228V13.9292V13.9357V13.9421V13.9486V13.955V13.9615V13.9679V13.9743V13.9807V13.9872V13.9936V14C23.6667 15.5427 22.8988 16.6259 22.1103 17.3356C21.7158 17.6906 21.3202 17.9479 21.0232 18.1162C20.875 18.2002 20.7523 18.2615 20.6678 18.3014C20.6674 18.3015 20.667 18.3017 20.6667 18.3019C20.6663 18.3017 20.6659 18.3015 20.6656 18.3014C20.5811 18.2615 20.4584 18.2002 20.3102 18.1162C20.0131 17.9479 19.6175 17.6906 19.223 17.3356C18.4345 16.6259 17.6667 15.5427 17.6667 14Z" stroke="white" stroke-width="0.666667"/>
<mask id="mask2_17_4595" style="mask-type:alpha" maskUnits="userSpaceOnUse" x="17" y="9" width="7" height="10">
<path d="M17.6667 14V13.9486V13.8969V13.8449V13.7927V13.7403V13.6876V13.6347V13.5816V13.5283V13.4748V13.4211V13.3673V13.3134V13.2864V13.2796V13.2728V13.2593V13.2051V13.1508V13.0964V13.042V12.9874V12.9328V12.8782V12.8235V12.7689V12.7415V12.7347V12.7278V12.721V12.7142V12.7073V12.7005V12.6937V12.6868V12.68V12.6732V12.6663V12.6595V12.6527V12.6458V12.639V12.6322V12.6253V12.6185V12.6117V12.6048V12.598V12.5912V12.5843V12.5775V12.5707V12.5639V12.557V12.5502V12.5434V12.5366V12.5297V12.5229V12.5161V12.5093V12.5024V12.4956V12.4888V12.482V12.4752V12.4684V12.4615V12.4547V12.4479V12.4411V12.4343V12.4275V12.4207V12.4139V12.4071V12.4003V12.3935V12.3866V12.3798V12.373V12.3662V12.3595V12.3527V12.3459V12.3391V12.3323V12.3255V12.3187V12.3119V12.3051V12.2983V12.2916V12.2848V12.278V12.2712V12.2644V12.2577V12.2509V12.2441V12.2374V12.2306V12.2238V12.2171V12.2103V12.2035V12.1968V12.19V12.1833V12.1765V12.1698V12.163V12.1563V12.1495V12.1428V12.1361V12.1293V12.1226V12.1159V12.1091V12.1024V12.0957V12.089V12.0822V12.0755V12.0688V12.0621V12.0554V12.0487V12.042V12.0353V12.0286V12.0219V12.0152V12.0085V12.0018V11.9951V11.9884V11.9817V11.975V11.9684V11.9617V11.955V11.9484V11.9417V11.935V11.9284V11.9217V11.9151V11.9084V11.9018V11.8951V11.8885V11.8752V11.8487V11.7958V11.7432V11.6908V11.6386V11.5867V11.535V11.4837V11.4326V11.3819V11.3314V11.2813V11.2316V11.1822V11.1331V11.0845V11.0362V10.9409V10.8474V10.7556V10.6658C17.6667 10.1138 18.1141 9.66666 18.6667 9.66666H22.6667C23.2192 9.66666 23.6667 10.1138 23.6667 10.6658V10.6714V10.6769V10.6825V10.6881V10.6937V10.6993V10.7049V10.7105V10.7161V10.7217V10.7273V10.733V10.7386V10.7443V10.75V10.7556V10.7613V10.767V10.7727V10.7784V10.7841V10.7898V10.7955V10.8013V10.807V10.8127V10.8185V10.8242V10.83V10.8358V10.8416V10.8474V10.8532V10.859V10.8648V10.8706V10.8764V10.8822V10.8881V10.8939V10.8998V10.9056V10.9115V10.9174V10.9232V10.9291V10.935V10.9409V10.9468V10.9527V10.9587V10.9646V10.9705V10.9765V10.9824V10.9884V10.9943V11.0003V11.0062V11.0122V11.0182V11.0242V11.0302V11.0362V11.0422V11.0482V11.0543V11.0603V11.0663V11.0724V11.0784V11.0845V11.0905V11.0966V11.1027V11.1087V11.1148V11.1209V11.127V11.1331V11.1392V11.1453V11.1515V11.1576V11.1637V11.1699V11.176V11.1822V11.1883V11.1945V11.2006V11.2068V11.213V11.2192V11.2254V11.2316V11.2378V11.244V11.2502V11.2564V11.2626V11.2689V11.2751V11.2813V11.2876V11.2938V11.3001V11.3063V11.3126V11.3189V11.3251V11.3314V11.3377V11.344V11.3503V11.3566V11.3629V11.3692V11.3755V11.3819V11.3882V11.3945V11.4009V11.4072V11.4136V11.4199V11.4263V11.4326V11.439V11.4454V11.4517V11.4581V11.4645V11.4709V11.4773V11.4837V11.4901V11.4965V11.5029V11.5093V11.5158V11.5222V11.5286V11.5351V11.5415V11.5479V11.5544V11.5608V11.5673V11.5738V11.5802V11.5867V11.5932V11.5996V11.6061V11.6126V11.6191V11.6256V11.6321V11.6386V11.6451V11.6516V11.6581V11.6647V11.6712V11.6777V11.6842V11.6908V11.6973V11.7038V11.7104V11.7169V11.7235V11.7301V11.7366V11.7432V11.7497V11.7563V11.7629V11.7695V11.7761V11.7826V11.7892V11.7958V11.8024V11.809V11.8156V11.8222V11.8288V11.8355V11.8421V11.8487V11.8553V11.8619V11.8686V11.8752V11.8818V11.8885V11.8951V11.9018V11.9084V11.9151V11.9217V11.9284V11.935V11.9417V11.9484V11.955V11.9617V11.9684V11.975V11.9817V11.9884V11.9951V12.0018V12.0085V12.0152V12.0219V12.0286V12.0353V12.042V12.0487V12.0554V12.0621V12.0688V12.0755V12.0822V12.089V12.0957V12.1024V12.1091V12.1159V12.1226V12.1293V12.1361V12.1428V12.1495V12.1563V12.163V12.1698V12.1765V12.1833V12.19V12.1968V12.2035V12.2103V12.2171V12.2238V12.2306V12.2374V12.2441V12.2509V12.2577V12.2644V12.2712V12.278V12.2848V12.2916V12.2983V12.3051V12.3119V12.3187V12.3255V12.3323V12.3391V12.3459V12.3527V12.3595V12.3663V12.373V12.3798V12.3867V12.3935V12.4003V12.4071V12.4139V12.4207V12.4275V12.4343V12.4411V12.4479V12.4547V12.4615V12.4684V12.4752V12.482V12.4888V12.4956V12.5024V12.5093V12.5161V12.5229V12.5297V12.5366V12.5434V12.5502V12.557V12.5639V12.5707V12.5775V12.5843V12.5912V12.598V12.6048V12.6117V12.6185V12.6253V12.6322V12.639V12.6458V12.6527V12.6595V12.6663V12.6732V12.68V12.6868V12.6937V12.7005V12.7073V12.7142V12.721V12.7278V12.7347V12.7415V12.7484V12.7552V12.762V12.7689V12.7757V12.7825V12.7894V12.7962V12.803V12.8099V12.8167V12.8235V12.8304V12.8372V12.844V12.8509V12.8577V12.8645V12.8714V12.8782V12.885V12.8919V12.8987V12.9055V12.9124V12.9192V12.926V12.9328V12.9397V12.9465V12.9533V12.9601V12.967V12.9738V12.9806V12.9874V12.9943V13.0011V13.0079V13.0147V13.0215V13.0283V13.0352V13.042V13.0488V13.0556V13.0624V13.0692V13.076V13.0828V13.0896V13.0964V13.1032V13.11V13.1168V13.1236V13.1304V13.1372V13.144V13.1508V13.1576V13.1644V13.1712V13.178V13.1848V13.1916V13.1983V13.2051V13.2119V13.2187V13.2255V13.2322V13.239V13.2458V13.2525V13.2593V13.2661V13.2728V13.2796V13.2864V13.2931V13.2999V13.3066V13.3134V13.3201V13.3269V13.3336V13.3404V13.3471V13.3539V13.3606V13.3673V13.3741V13.3808V13.3875V13.3943V13.401V13.4077V13.4144V13.4211V13.4278V13.4346V13.4413V13.448V13.4547V13.4614V13.4681V13.4748V13.4815V13.4882V13.4949V13.5015V13.5082V13.5149V13.5216V13.5283V13.5349V13.5416V13.5483V13.5549V13.5616V13.5683V13.5749V13.5816V13.5882V13.5949V13.6015V13.6081V13.6148V13.6214V13.628V13.6347V13.6413V13.6479V13.6545V13.6611V13.6678V13.6744V13.681V13.6876V13.6942V13.7008V13.7074V13.7139V13.7205V13.7271V13.7337V13.7403V13.7468V13.7534V13.76V13.7665V13.7731V13.7796V13.7862V13.7927V13.7993V13.8058V13.8123V13.8189V13.8254V13.8319V13.8384V13.8449V13.8514V13.8579V13.8644V13.8709V13.8774V13.8839V13.8904V13.8969V13.9034V13.9098V13.9163V13.9228V13.9292V13.9357V13.9421V13.9486V13.955V13.9615V13.9679V13.9743V13.9807V13.9872V13.9936V14C23.6667 15.5427 22.8988 16.6259 22.1103 17.3356C21.7158 17.6906 21.3202 17.9479 21.0232 18.1162C20.875 18.2002 20.7523 18.2615 20.6678 18.3014C20.6674 18.3015 20.667 18.3017 20.6667 18.3019C20.6663 18.3017 20.6659 18.3015 20.6656 18.3014C20.5811 18.2615 20.4584 18.2002 20.3102 18.1162C20.0131 17.9479 19.6175 17.6906 19.223 17.3356C18.4345 16.6259 17.6667 15.5427 17.6667 14Z" fill="white" stroke="white" stroke-width="0.666667"/>
</mask>
<g mask="url(#mask2_17_4595)">
</g>
<path d="M0 3.66667H-0.901086L-0.21693 4.25309L4.33333 8.15331V9.16179L-0.193746 12.3954L-0.333333 12.4951V12.6667V13.3333V13.9347L0.176666 13.616L5.42893 10.3333H6.55984L11.0821 13.5635C11.176 13.6306 11.2886 13.6667 11.404 13.6667C11.9182 13.6667 12.1548 13.027 11.7644 12.6924L7.66667 9.18002V8.17154L12.0542 5.03762C12.2294 4.91248 12.3333 4.71043 12.3333 4.49513V4V3.39858L11.8233 3.71733L6.57107 7H5.44016L0.860413 3.72876L0.773488 3.66667H0.666667H0Z" fill="#DB1E36" stroke="white" stroke-width="0.666667"/>
<path fill-rule="evenodd" clip-rule="evenodd" d="M0 7.33333V10H4.66667V13.3333C4.66667 13.7015 4.96514 14 5.33333 14H6.66667C7.03486 14 7.33333 13.7015 7.33333 13.3333V10H12C12.3682 10 12.6667 9.70152 12.6667 9.33333V8C12.6667 7.63181 12.3682 7.33333 12 7.33333H7.33333V4H4.66667V7.33333H0Z" fill="white"/>
<path fill-rule="evenodd" clip-rule="evenodd" d="M0 8H5.33333V7.33333V4H6.66667V7.33333V8H12V9.33333H6.66667V10V13.3333H5.33333V10V9.33333H0V8Z" fill="#DB1E36"/>
</g>
<defs>
<linearGradient id="paint0_linear_17_4595" x1="0" y1="4" x2="0" y2="24" gradientUnits="userSpaceOnUse">
<stop stop-color="#07319C"/>
<stop offset="1" stop-color="#00247E"/>
</linearGradient>
</defs>
</svg>
