<svg width="28" height="28" viewBox="0 0 28 28" fill="none" xmlns="http://www.w3.org/2000/svg">
<rect y="4" width="28" height="20" rx="3" fill="white"/>
<mask id="mask0_17_4202" style="mask-type:alpha" maskUnits="userSpaceOnUse" x="0" y="4" width="28" height="20">
<rect y="4" width="28" height="20" rx="3" fill="white"/>
</mask>
<g mask="url(#mask0_17_4202)">
<rect x="13.3333" y="4" width="14.6667" height="20" fill="#08C47A"/>
<path fill-rule="evenodd" clip-rule="evenodd" d="M0 24H9.33333V4H0V24Z" fill="#0C87E1"/>
<path fill-rule="evenodd" clip-rule="evenodd" d="M8 24H20V4H8V24Z" fill="#FECB2F"/>
<path fill-rule="evenodd" clip-rule="evenodd" d="M9.33334 12L11.3333 8L13.3333 12L11.3333 16L9.33334 12ZM14.6667 12L16.6667 8L18.6667 12L16.6667 16L14.6667 12ZM14 13.3333L12 17.3333L14 21.3333L16 17.3333L14 13.3333Z" fill="#08C47A"/>
</g>
</svg>
