<svg width="28" height="28" viewBox="0 0 28 28" fill="none" xmlns="http://www.w3.org/2000/svg">
<rect y="4" width="28" height="20" rx="3" fill="white"/>
<mask id="mask0_17_4616" style="mask-type:alpha" maskUnits="userSpaceOnUse" x="0" y="4" width="28" height="20">
<rect y="4" width="28" height="20" rx="3" fill="white"/>
</mask>
<g mask="url(#mask0_17_4616)">
<path fill-rule="evenodd" clip-rule="evenodd" d="M0 17.3333L28 4H0V17.3333Z" fill="#1EC160"/>
<path fill-rule="evenodd" clip-rule="evenodd" d="M0 24H28V10.6667L0 24Z" fill="#DF2A40"/>
<path fill-rule="evenodd" clip-rule="evenodd" d="M0.783912 29.3334L33.5751 8.84319L27.2161 -1.33339L-5.57512 19.1568L0.783912 29.3334V29.3334Z" fill="#FFD956"/>
<path fill-rule="evenodd" clip-rule="evenodd" d="M-0.629192 27.0719L32.162 6.58172L28.6292 0.92807L-4.16199 21.4183L-0.629192 27.0719V27.0719Z" fill="#262626"/>
<path fill-rule="evenodd" clip-rule="evenodd" d="M20.3094 11.7974L19.364 13.2948L18.7506 11.6336L17.0343 11.1972L18.4247 10.1004L18.3094 8.33333L19.7821 9.3167L21.4271 8.66101L20.9469 10.3655L22.0788 11.7274L20.3094 11.7974V11.7974Z" fill="white"/>
<path fill-rule="evenodd" clip-rule="evenodd" d="M9.64274 18.2641L8.69733 19.7615L8.0839 18.1003L6.36768 17.6638L7.75801 16.5671L7.64274 14.8L9.11544 15.7834L10.7604 15.1277L10.2803 16.8322L11.4122 18.194L9.64274 18.2641V18.2641Z" fill="white"/>
</g>
</svg>
