<svg width="28" height="28" viewBox="0 0 28 28" fill="none" xmlns="http://www.w3.org/2000/svg">
<rect y="4" width="28" height="20" rx="3" fill="white"/>
<mask id="mask0_17_4191" style="mask-type:alpha" maskUnits="userSpaceOnUse" x="0" y="4" width="28" height="20">
<rect y="4" width="28" height="20" rx="3" fill="white"/>
</mask>
<g mask="url(#mask0_17_4191)">
<rect y="4" width="28" height="20" fill="#E31F37"/>
<path fill-rule="evenodd" clip-rule="evenodd" d="M-1.33331 14.6667H14.6667V2.66666H-1.33331V14.6667Z" fill="#083B9A"/>
<path fill-rule="evenodd" clip-rule="evenodd" d="M6.66667 6.66667L5.72386 6.94281L6 6L5.72386 5.05719L6.66667 5.33333L7.60947 5.05719L7.33333 6L7.60947 6.94281L6.66667 6.66667ZM6.66667 13.3333L5.72386 13.6095L6 12.6667L5.72386 11.7239L6.66667 12L7.60947 11.7239L7.33333 12.6667L7.60947 13.6095L6.66667 13.3333ZM3.05719 10.2761L4 10L4.94281 10.2761L4.66667 9.33333L4.94281 8.39052L4 8.66667L3.05719 8.39052L3.33333 9.33333L3.05719 10.2761ZM10 9.33333L9.05719 9.60947L9.33333 8.66667L9.05719 7.72386L10 8L10.9428 7.72386L10.6667 8.66667L10.9428 9.60947L10 9.33333ZM8.66667 11C8.66667 11.1841 8.51743 11.3333 8.33333 11.3333C8.14924 11.3333 8 11.1841 8 11C8 10.8159 8.14924 10.6667 8.33333 10.6667C8.51743 10.6667 8.66667 10.8159 8.66667 11Z" fill="white"/>
</g>
</svg>
