<svg width="28" height="28" viewBox="0 0 28 28" fill="none" xmlns="http://www.w3.org/2000/svg">
<rect y="4" width="28" height="20" rx="3" fill="white"/>
<mask id="mask0_17_4625" style="mask-type:alpha" maskUnits="userSpaceOnUse" x="0" y="4" width="28" height="20">
<rect y="4" width="28" height="20" rx="3" fill="white"/>
</mask>
<g mask="url(#mask0_17_4625)">
<rect y="4" width="28" height="20" fill="#128C4B"/>
<path fill-rule="evenodd" clip-rule="evenodd" d="M6.66666 16H17.3333V15.0787C17.3333 14.5831 17.8549 14.2608 18.2981 14.4824L18.6667 14.6667V16H20.6667C21.0348 16 21.3333 16.2985 21.3333 16.6667V17.3333C21.3333 18.0697 20.7364 18.6667 20 18.6667H18C17.6318 18.6667 17.3333 18.3682 17.3333 18V17.3333H8.27613C8.09932 17.3333 7.92975 17.2631 7.80473 17.1381L6.66666 16Z" fill="white"/>
<path fill-rule="evenodd" clip-rule="evenodd" d="M6.66666 12.1381C6.66666 12.0497 6.70178 11.9649 6.76429 11.9024L7.09762 11.569C7.2278 11.4389 7.2278 11.2278 7.09762 11.0976L6.76429 10.7643C6.70178 10.7018 6.66666 10.617 6.66666 10.5286V9.66666C6.66666 9.48257 6.81589 9.33333 6.99999 9.33333H7.74535C7.88598 9.33333 7.99999 9.44734 7.99999 9.58797V9.58797C7.99999 9.85668 8.36223 9.94219 8.48239 9.70185L8.58178 9.50309C8.6338 9.39905 8.74013 9.33333 8.85646 9.33333H10.3333C10.5174 9.33333 10.6667 9.48257 10.6667 9.66666V9.66666C10.6667 9.85076 10.5174 9.99999 10.3333 9.99999H9.66666C9.48256 9.99999 9.33332 10.1492 9.33332 10.3333V10.3333C9.33332 10.5174 9.48256 10.6667 9.66666 10.6667H10.3333C10.5174 10.6667 10.6667 10.8159 10.6667 11V13C10.6667 13.1841 10.5174 13.3333 10.3333 13.3333H9.66666C9.48256 13.3333 9.33332 13.1841 9.33332 13V12.3333C9.33332 12.1492 9.48256 12 9.66666 12V12C9.85075 12 9.99999 11.8508 9.99999 11.6667V11.6667C9.99999 11.4826 9.85075 11.3333 9.66666 11.3333H8.99999C8.8159 11.3333 8.66666 11.4826 8.66666 11.6667V13C8.66666 13.1841 8.51742 13.3333 8.33332 13.3333V13.3333C8.14923 13.3333 7.99999 13.1841 7.99999 13V12.3333C7.99999 12.1492 7.85075 12 7.66666 12V12C7.48256 12 7.33332 12.1492 7.33332 12.3333V13C7.33332 13.1841 7.18408 13.3333 6.99999 13.3333V13.3333C6.81589 13.3333 6.66666 13.1841 6.66666 13V12.1381Z" fill="white"/>
<path fill-rule="evenodd" clip-rule="evenodd" d="M17.3333 12.1381C17.3333 12.0497 17.3685 11.9649 17.431 11.9024L17.7643 11.569C17.8945 11.4389 17.8945 11.2278 17.7643 11.0976L17.431 10.7643C17.3685 10.7018 17.3333 10.617 17.3333 10.5286V9.66666C17.3333 9.48257 17.4826 9.33333 17.6667 9.33333H18.412C18.5527 9.33333 18.6667 9.44734 18.6667 9.58797V9.58797C18.6667 9.85668 19.0289 9.94219 19.1491 9.70185L19.2485 9.50309C19.3005 9.39905 19.4068 9.33333 19.5231 9.33333H21C21.1841 9.33333 21.3333 9.48257 21.3333 9.66666V9.66666C21.3333 9.85076 21.1841 9.99999 21 9.99999H20.3333C20.1492 9.99999 20 10.1492 20 10.3333V10.3333C20 10.5174 20.1492 10.6667 20.3333 10.6667H21C21.1841 10.6667 21.3333 10.8159 21.3333 11V13C21.3333 13.1841 21.1841 13.3333 21 13.3333H20.3333C20.1492 13.3333 20 13.1841 20 13V12.3333C20 12.1492 20.1492 12 20.3333 12V12C20.5174 12 20.6667 11.8508 20.6667 11.6667V11.6667C20.6667 11.4826 20.5174 11.3333 20.3333 11.3333H19.6667C19.4826 11.3333 19.3333 11.4826 19.3333 11.6667V13C19.3333 13.1841 19.1841 13.3333 19 13.3333V13.3333C18.8159 13.3333 18.6667 13.1841 18.6667 13V12.3333C18.6667 12.1492 18.5174 12 18.3333 12V12C18.1492 12 18 12.1492 18 12.3333V13C18 13.1841 17.8508 13.3333 17.6667 13.3333V13.3333C17.4826 13.3333 17.3333 13.1841 17.3333 13V12.1381Z" fill="white"/>
<path fill-rule="evenodd" clip-rule="evenodd" d="M16 10.3302C16 10.516 15.8958 10.7708 15.7593 10.9073L15.574 11.0926C15.4411 11.2256 15.4375 11.4375 15.574 11.574L15.7593 11.7593C15.8922 11.8922 16 12.1427 16 12.3365V12.9969C16 13.1827 15.8573 13.3333 15.6635 13.3333H15.0031C14.8173 13.3333 14.6667 13.1906 14.6667 12.9969V12.3365C14.6667 12.1506 14.6051 12.123 14.512 12.3092L14.1546 13.0241C14.0692 13.1949 13.8431 13.3333 13.6697 13.3333H12.3303C12.1479 13.3333 12 13.1787 12 13V13C12 12.8159 12.1427 12.6667 12.3365 12.6667H12.9969C13.1827 12.6667 13.3333 12.512 13.3333 12.3333V12.3333C13.3333 12.1492 13.1906 12 12.9969 12H12.3365C12.1506 12 12 11.8566 12 11.673V9.66031C12 9.47972 12.1427 9.33333 12.3365 9.33333H12.9969C13.1827 9.33333 13.3333 9.47602 13.3333 9.66978V10.3302C13.3333 10.516 13.1787 10.6667 13 10.6667V10.6667C12.8159 10.6667 12.6667 10.8213 12.6667 11V11C12.6667 11.1841 12.8094 11.3333 13.0031 11.3333H13.6635C13.8494 11.3333 14 11.1764 14 11.0031V9.66359C14 9.48119 14.1546 9.33333 14.3333 9.33333V9.33333C14.5174 9.33333 14.6667 9.47602 14.6667 9.66978V10.3302C14.6667 10.516 14.8213 10.6667 15 10.6667V10.6667C15.1841 10.6667 15.3333 10.524 15.3333 10.3302V9.66978C15.3333 9.48396 15.488 9.33333 15.6667 9.33333V9.33333C15.8508 9.33333 16 9.47602 16 9.66978V10.3302V10.3302Z" fill="white"/>
</g>
</svg>
