<svg width="28" height="28" viewBox="0 0 28 28" fill="none" xmlns="http://www.w3.org/2000/svg">
<rect x="0.25" y="4.25" width="27.5" height="19.5" rx="2.75" fill="white" stroke="#F5F5F5" stroke-width="0.5"/>
<mask id="mask0_17_4561" style="mask-type:alpha" maskUnits="userSpaceOnUse" x="0" y="4" width="28" height="20">
<rect x="0.25" y="4.25" width="27.5" height="19.5" rx="2.75" fill="white" stroke="white" stroke-width="0.5"/>
</mask>
<g mask="url(#mask0_17_4561)">
<path fill-rule="evenodd" clip-rule="evenodd" d="M0 14.6667H28V4H0V14.6667Z" fill="#E12237"/>
<path fill-rule="evenodd" clip-rule="evenodd" d="M6.66669 13.3333C7.6118 13.3333 8.48035 13.0056 9.16487 12.4575C8.80226 12.5927 8.40978 12.6667 8.00002 12.6667C6.15907 12.6667 4.66669 11.1743 4.66669 9.33333C4.66669 7.49238 6.15907 5.99999 8.00002 5.99999C8.40977 5.99999 8.80226 6.07393 9.16487 6.20918C8.48035 5.66111 7.6118 5.33333 6.66669 5.33333C4.45755 5.33333 2.66669 7.12419 2.66669 9.33333C2.66669 11.5425 4.45755 13.3333 6.66669 13.3333ZM8.00002 8.66666C8.00002 9.03485 7.70154 9.33333 7.33335 9.33333C6.96516 9.33333 6.66669 9.03485 6.66669 8.66666C6.66669 8.29847 6.96516 7.99999 7.33335 7.99999C7.70154 7.99999 8.00002 8.29847 8.00002 8.66666ZM8.66669 12C9.03488 12 9.33335 11.7015 9.33335 11.3333C9.33335 10.9651 9.03488 10.6667 8.66669 10.6667C8.2985 10.6667 8.00002 10.9651 8.00002 11.3333C8.00002 11.7015 8.2985 12 8.66669 12ZM12 11.3333C12 11.7015 11.7015 12 11.3334 12C10.9652 12 10.6667 11.7015 10.6667 11.3333C10.6667 10.9651 10.9652 10.6667 11.3334 10.6667C11.7015 10.6667 12 10.9651 12 11.3333ZM12.6667 9.33333C13.0349 9.33333 13.3334 9.03485 13.3334 8.66666C13.3334 8.29847 13.0349 7.99999 12.6667 7.99999C12.2985 7.99999 12 8.29847 12 8.66666C12 9.03485 12.2985 9.33333 12.6667 9.33333ZM10.6667 6.66666C10.6667 7.03485 10.3682 7.33333 10 7.33333C9.63183 7.33333 9.33335 7.03485 9.33335 6.66666C9.33335 6.29847 9.63183 5.99999 10 5.99999C10.3682 5.99999 10.6667 6.29847 10.6667 6.66666Z" fill="white"/>
</g>
</svg>
