<svg width="28" height="28" viewBox="0 0 28 28" fill="none" xmlns="http://www.w3.org/2000/svg">
<rect x="0.25" y="4.25" width="27.5" height="19.5" rx="2.75" fill="white" stroke="#D6D8DD" stroke-width="0.5"/>
<mask id="mask0_17_4579" style="mask-type:alpha" maskUnits="userSpaceOnUse" x="0" y="4" width="28" height="20">
<rect x="0.25" y="4.25" width="27.5" height="19.5" rx="2.75" fill="white" stroke="white" stroke-width="0.5"/>
</mask>
<g mask="url(#mask0_17_4579)">
<path fill-rule="evenodd" clip-rule="evenodd" d="M0 17.3333H28V10.6667H9.24398V9.33334C9.24398 9.33334 8.30367 8.66667 7.33333 8.66667C6.36299 8.66667 5.33333 9.33334 5.33333 9.33334V10.6667H0V17.3333ZM8.66667 12C8.66667 12.7364 8.06971 13.3333 7.33333 13.3333C6.59695 13.3333 6 12.7364 6 12C6 11.2636 6.59695 10.6667 7.33333 10.6667C8.06971 10.6667 8.66667 11.2636 8.66667 12Z" fill="#0C47B7"/>
<g filter="url(#filter0_d_17_4579)">
<path fill-rule="evenodd" clip-rule="evenodd" d="M0 24H28V17.3333H0V24Z" fill="#E53B35"/>
</g>
</g>
<defs>
<filter id="filter0_d_17_4579" x="0" y="17.3333" width="28" height="6.66667" filterUnits="userSpaceOnUse" color-interpolation-filters="sRGB">
<feFlood flood-opacity="0" result="BackgroundImageFix"/>
<feColorMatrix in="SourceAlpha" type="matrix" values="0 0 0 0 0 0 0 0 0 0 0 0 0 0 0 0 0 0 127 0" result="hardAlpha"/>
<feOffset/>
<feColorMatrix type="matrix" values="0 0 0 0 0 0 0 0 0 0 0 0 0 0 0 0 0 0 0.06 0"/>
<feBlend mode="normal" in2="BackgroundImageFix" result="effect1_dropShadow_17_4579"/>
<feBlend mode="normal" in="SourceGraphic" in2="effect1_dropShadow_17_4579" result="shape"/>
</filter>
</defs>
</svg>
