<svg width="28" height="28" viewBox="0 0 28 28" fill="none" xmlns="http://www.w3.org/2000/svg">
<rect y="4" width="28" height="20" rx="3" fill="white"/>
<mask id="mask0_17_4531" style="mask-type:alpha" maskUnits="userSpaceOnUse" x="0" y="4" width="28" height="20">
<rect y="4" width="28" height="20" rx="3" fill="white"/>
</mask>
<g mask="url(#mask0_17_4531)">
<rect y="4" width="28" height="20" fill="url(#paint0_linear_17_4531)"/>
<g filter="url(#filter0_d_17_4531)">
<path fill-rule="evenodd" clip-rule="evenodd" d="M0 4H28L0 24V4Z" fill="url(#paint1_linear_17_4531)"/>
</g>
<path fill-rule="evenodd" clip-rule="evenodd" d="M28 4L0 24H28V4Z" fill="#2C7442"/>
<rect x="-2.77365" y="23.7057" width="36.7755" height="1.8725" transform="rotate(-34 -2.77365 23.7057)" fill="#FFD646"/>
<path fill-rule="evenodd" clip-rule="evenodd" d="M2.02036 8.34836L2.20746 7.25751L1.41491 6.48497L2.51018 6.32581L3 5.33333L3.48982 6.32581L4.5851 6.48497L3.79255 7.25751L3.97965 8.34836L3 7.83333L2.02036 8.34836ZM8.68703 8.34836L8.87412 7.25751L8.08158 6.48497L9.17685 6.32581L9.66667 5.33333L10.1565 6.32581L11.2518 6.48497L10.4592 7.25751L10.6463 8.34836L9.66667 7.83333L8.68703 8.34836ZM8.87412 11.2575L8.68703 12.3484L9.66667 11.8333L10.6463 12.3484L10.4592 11.2575L11.2518 10.485L10.1565 10.3258L9.66667 9.33333L9.17685 10.3258L8.08158 10.485L8.87412 11.2575ZM3 11.8333L2.02036 12.3484L2.20746 11.2575L1.41491 10.485L2.51018 10.3258L3 9.33333L3.48982 10.3258L4.5851 10.485L3.79255 11.2575L3.97965 12.3484L3 11.8333ZM5.35369 10.3484L6.33334 9.83333L7.31298 10.3484L7.12588 9.25751L7.91843 8.48497L6.82316 8.32581L6.33334 7.33333L5.84352 8.32581L4.74824 8.48497L5.54079 9.25751L5.35369 10.3484Z" fill="white"/>
</g>
<defs>
<filter id="filter0_d_17_4531" x="0" y="4" width="28" height="20" filterUnits="userSpaceOnUse" color-interpolation-filters="sRGB">
<feFlood flood-opacity="0" result="BackgroundImageFix"/>
<feColorMatrix in="SourceAlpha" type="matrix" values="0 0 0 0 0 0 0 0 0 0 0 0 0 0 0 0 0 0 127 0" result="hardAlpha"/>
<feOffset/>
<feColorMatrix type="matrix" values="0 0 0 0 0 0 0 0 0 0 0 0 0 0 0 0 0 0 0.06 0"/>
<feBlend mode="normal" in2="BackgroundImageFix" result="effect1_dropShadow_17_4531"/>
<feBlend mode="normal" in="SourceGraphic" in2="effect1_dropShadow_17_4531" result="shape"/>
</filter>
<linearGradient id="paint0_linear_17_4531" x1="0" y1="4" x2="0" y2="24" gradientUnits="userSpaceOnUse">
<stop stop-color="#1DBE4F"/>
<stop offset="1" stop-color="#159B3F"/>
</linearGradient>
<linearGradient id="paint1_linear_17_4531" x1="0" y1="4" x2="0" y2="24" gradientUnits="userSpaceOnUse">
<stop stop-color="#0660D4"/>
<stop offset="1" stop-color="#0051BB"/>
</linearGradient>
</defs>
</svg>
