<svg width="28" height="28" viewBox="0 0 28 28" fill="none" xmlns="http://www.w3.org/2000/svg">
<rect y="4" width="28" height="20" rx="3" fill="white"/>
<mask id="mask0_107628_1509" style="mask-type:luminance" maskUnits="userSpaceOnUse" x="0" y="4" width="28" height="20">
<rect y="4" width="28" height="20" rx="3" fill="white"/>
</mask>
<g mask="url(#mask0_107628_1509)">
<rect y="4" width="28" height="20" fill="#0A17A7"/>
<path d="M0 3.66667H-0.901086L-0.21693 4.25309L4.33333 8.15331V9.16179L-0.193746 12.3954L-0.333333 12.4951V12.6667V13.3333V13.9347L0.176666 13.616L5.42893 10.3333H6.55984L11.0821 13.5635C11.176 13.6306 11.2886 13.6667 11.404 13.6667C11.9182 13.6667 12.1548 13.027 11.7644 12.6924L7.66667 9.18002V8.17154L12.0542 5.03762C12.2294 4.91248 12.3333 4.71043 12.3333 4.49513V4V3.39858L11.8233 3.71733L6.57107 7H5.44016L0.860413 3.72876L0.773488 3.66667H0.666667H0Z" fill="#FF2E3B" stroke="white" stroke-width="0.666667"/>
<path fill-rule="evenodd" clip-rule="evenodd" d="M0 7.33333V10H4.66667V13.3333C4.66667 13.7015 4.96514 14 5.33333 14H6.66667C7.03486 14 7.33333 13.7015 7.33333 13.3333V10H12C12.3682 10 12.6667 9.70152 12.6667 9.33333V8C12.6667 7.63181 12.3682 7.33333 12 7.33333H7.33333V4H4.66667V7.33333H0Z" fill="url(#paint0_linear_107628_1509)"/>
<path fill-rule="evenodd" clip-rule="evenodd" d="M0 8H5.33333V7.33333V4H6.66667V7.33333V8H12V9.33333H6.66667V10V13.3333H5.33333V10V9.33333H0V8Z" fill="url(#paint1_linear_107628_1509)"/>
<path d="M18.6747 10.2114L18.403 10.9925H20.6785L20.3728 10.2114H18.6747Z" fill="#8E361C"/>
<path d="M18.8998 7.69769C18.8998 7.69769 18.9914 7.56795 18.9954 7.53685C18.9996 7.50571 19.4105 7.48495 19.6553 6.91425C19.7923 6.61329 19.6553 6.78968 19.6553 6.78968L19.647 6.64439C19.647 6.64439 19.8174 6.44207 19.7552 6.3331C19.6927 6.22416 19.7135 6.47322 19.614 6.46801C19.5144 6.46284 19.5683 6.19823 19.5683 6.19823C19.5683 6.19823 19.56 6.16709 19.5309 6.15154C19.4893 6.15671 19.5018 6.25009 19.4645 6.26047C19.4271 6.27085 19.394 6.04256 19.394 6.04256C19.394 6.04256 19.3318 5.93879 19.2775 6.26568C19.3067 6.61329 19.4853 6.54584 19.4853 6.77418C19.4853 7.00243 19.3275 7.17882 19.2819 7.18403C19.2362 7.1892 19.2527 6.99205 19.2527 6.99205C19.2527 6.99205 19.2279 6.89866 19.2113 6.89866C19.1948 6.89866 19.3027 6.8779 19.2861 6.61851C19.2487 6.30717 19.2197 6.69113 19.1532 6.67554C19.0867 6.65999 19.1366 6.39021 19.1614 6.35907C19.1863 6.32793 19.1323 6.19823 18.9871 6.53029C18.9746 6.69113 18.958 6.48877 18.9289 6.49915C18.8792 6.62889 18.8875 6.72227 18.958 6.84159C19.0619 6.96095 19.1283 7.08026 19.1241 7.14251C19.1201 7.20479 19.0658 7.34487 18.9914 7.34487C18.9166 7.34487 18.9954 7.17365 18.9914 7.11653C18.9871 7.0595 18.8627 6.85197 18.8627 6.85197C18.8627 6.85197 18.7754 6.67554 18.7837 6.67037C18.7919 6.66516 18.7754 6.63923 18.734 6.82083C18.6924 7.00243 18.6424 6.70151 18.6424 6.70151C18.6424 6.70151 18.5845 6.92459 18.7089 7.0595C18.6136 7.04395 18.6053 7.09065 18.6053 7.09065C18.6053 7.15289 18.734 7.17882 18.7506 7.28775C18.7671 7.39677 18.6176 7.45897 18.6176 7.45897C18.6176 7.45897 18.6801 7.56795 18.8541 7.35525C18.8584 7.49012 18.7879 7.58355 18.7879 7.58355C18.8459 7.61637 18.8915 7.61292 18.8998 7.69769Z" fill="#C8AA41"/>
<path d="M18.3302 7.69769C18.3302 7.69769 18.2526 7.55369 18.2491 7.52535C18.2454 7.49705 17.8674 7.56115 17.6886 6.98477C17.5722 6.71094 17.6886 6.87148 17.6886 6.87148L17.6956 6.73924C17.6956 6.73924 17.5718 6.54998 17.6247 6.45082C17.6776 6.35166 17.6558 6.57828 17.7238 6.57875C17.8083 6.57405 17.7626 6.33323 17.7626 6.33323C17.7626 6.33323 17.7696 6.30492 17.7943 6.29075C17.8294 6.29549 17.844 6.43751 17.8757 6.44698C17.9074 6.45642 17.973 6.27981 17.9935 6.2435C18.0226 6.23829 18.0215 6.09722 18.0674 6.39461C18.0429 6.71095 17.8332 6.64956 17.8332 6.85731C17.8332 7.06502 17.967 7.22555 18.0058 7.23029C18.0446 7.23499 18.0306 7.05563 18.0306 7.05563C18.0306 7.05563 18.0517 6.97064 18.0657 6.97064C18.08 6.97064 17.9425 7.00359 17.9567 6.76754C17.9884 6.54653 18.0586 6.7818 18.1151 6.76759C18.1716 6.75342 18.1085 6.53391 18.1247 6.50035C18.1285 6.46684 18.2115 6.32284 18.2438 6.6406C18.2543 6.78697 18.3182 6.51461 18.3427 6.52409C18.3853 6.64207 18.3242 6.79972 18.2643 6.90831C18.1761 7.01686 18.1362 7.13587 18.1399 7.19252C18.1433 7.24916 18.1641 7.31954 18.2278 7.31954C18.2911 7.31954 18.2491 7.22082 18.2526 7.16891C18.256 7.11696 18.3619 6.94884 18.3619 6.94884C18.3827 6.90741 18.3653 6.82987 18.3872 6.79404C18.4218 6.79447 18.436 6.73455 18.4712 6.89978C18.5065 7.06502 18.5488 6.79119 18.5488 6.79119C18.5488 6.79119 18.5981 6.99424 18.4923 7.11696C18.5733 7.10283 18.5804 7.14531 18.5804 7.14531C18.5804 7.20195 18.5419 7.22555 18.5276 7.32467C18.5134 7.42383 18.5699 7.48051 18.5699 7.48051C18.5699 7.48051 18.5171 7.57963 18.369 7.38605C18.3653 7.50881 18.4255 7.5938 18.4255 7.5938C18.3758 7.62373 18.3373 7.62055 18.3302 7.69769Z" fill="#C8AA41"/>
<path d="M18.9189 7.7198C18.9189 7.7198 19.1035 7.51614 19.3044 7.69942C19.2136 8.03846 18.8864 7.90984 18.8864 7.90984C18.8864 7.90984 18.8972 8.07951 18.8647 8.16092C18.93 8.22252 18.9839 8.42566 18.9839 8.42566C18.9839 8.42566 19.3207 8.32383 19.3914 8.50711C19.5204 8.48484 19.614 8.50711 19.614 8.50711C19.614 8.50711 19.8747 8.42566 19.9669 8.42566C20.0593 8.42566 20.3524 8.52068 20.3795 8.58852C20.4069 8.65641 20.5044 9.11118 20.5698 9.10438C20.6349 9.09757 20.4123 9.21297 20.3524 9.09757C20.2927 8.98218 20.309 9.24691 20.309 9.24691C20.309 9.24691 20.4936 9.49123 20.5153 9.5455C20.537 9.59973 20.4014 10.0409 20.5044 10.3465C20.414 10.3569 20.4069 10.4753 20.4069 10.4753C20.4017 10.6097 20.2656 10.645 20.2656 10.645L20.2331 10.4617L20.1407 10.5298L20.1786 10.3872C20.1786 10.3872 20.3036 10.007 20.3144 9.88502C20.3253 9.76273 20.2003 9.5455 20.1027 9.5455C20.0049 9.5455 19.9344 9.93244 19.9344 9.93244C19.9344 9.93244 19.8856 10.2242 19.9019 10.2513C19.9181 10.2784 19.8365 10.1564 19.8365 10.1564C19.8365 10.1564 19.7931 10.3329 19.7606 10.3872C19.7281 10.4414 19.6573 10.4617 19.6573 10.4617C19.6573 10.4617 19.6085 10.2852 19.6248 10.2174C19.641 10.1497 19.891 9.88502 19.8693 9.69493C19.8473 9.50484 19.8693 9.55231 19.8636 9.5455C19.8582 9.53874 19.7335 9.40301 19.7281 9.32837C19.7227 9.25367 19.5652 9.42339 19.3589 9.36907C19.2955 9.50699 19.2881 9.85077 19.2881 9.85077C19.2881 9.85077 19.2664 10.2648 19.3098 10.3126C19.3534 10.36 19.2014 10.4617 19.2014 10.4617L19.0927 10.645C19.0927 10.645 19.0547 10.5298 19.0547 10.5366C19.0547 10.5434 18.9785 10.6044 18.9785 10.6044L19.0222 10.4685C19.0194 10.3658 19.1278 10.0851 19.1278 9.84758C19.1278 9.61007 19.1415 9.3555 19.1415 9.3555C19.1415 9.3555 18.9406 9.34189 18.946 9.59973C18.9514 9.85792 18.8972 9.87149 18.9081 9.94601C18.9189 10.0206 18.9731 10.2309 18.9569 10.2923C18.9406 10.3533 18.8755 10.3736 18.8755 10.3736L18.8593 10.4075C18.8593 10.4075 18.6584 10.523 18.6638 10.5705C18.6692 10.6179 18.6584 10.4346 18.6584 10.4346L18.6473 10.2378C18.6473 10.2378 18.7668 10.1429 18.7668 9.90535C18.7668 9.66783 18.7394 9.63398 18.7448 9.57975C18.7503 9.52517 18.7777 9.32832 18.7722 9.30799C18.7668 9.28762 18.6584 9.36226 18.6256 9.36226C18.593 9.36226 18.6855 9.21977 18.6963 9.11795C18.7072 9.01612 18.5876 9.21297 18.4901 9.09757C18.5354 8.97227 18.6039 8.93467 18.6148 8.83964C18.6256 8.74467 18.5389 8.9211 18.4627 8.85326C18.469 8.7622 18.5443 8.68359 18.5443 8.68359C18.5443 8.68359 18.4823 8.67407 18.4572 8.68359C18.4085 8.66321 18.5118 8.56815 18.5172 8.43242C18.5226 8.29669 18.4572 8.24237 18.4572 8.23561C18.4572 8.22885 18.3488 8.11341 18.3326 8.06594C18.3163 8.01843 18.3163 7.96411 18.3163 7.96411C18.3163 7.96411 18.1368 8.12702 17.9251 7.78088C18.1191 7.5739 18.3272 7.72656 18.3272 7.72656C18.3272 7.72656 18.3813 7.53651 18.631 7.55008C18.881 7.56365 18.9298 7.74013 18.9189 7.7198Z" fill="#8E361C"/>
<ellipse cx="16.2634" cy="14.932" rx="0.984898" ry="2.683" fill="#D9D9DB"/>
<ellipse cx="22.6483" cy="14.932" rx="0.984898" ry="2.683" fill="#010101"/>
<path d="M21.1879 13.7434H17.7238C17.7238 15.5434 17.7238 18.1245 19.5238 18.1245C21.3238 18.1245 21.1879 15.4755 21.1879 13.7434Z" fill="white"/>
<path d="M20.6445 13.7434H18.2672L19.4558 17.649L20.6445 13.7434Z" fill="#62C977"/>
<path d="M21.4586 19.9923C20.9982 19.4129 20.2874 19.0413 19.4898 19.0413C18.6922 19.0413 17.9815 19.4129 17.5211 19.9923H16.4735C17.0389 18.9027 18.1774 18.1583 19.4898 18.1583C20.8022 18.1583 21.9407 18.9027 22.5062 19.9923H21.4586Z" fill="#EEC543"/>
<path d="M17.6063 18.9266C17.9646 19.6885 17.9249 20.4615 17.5175 20.6531C17.1102 20.8447 16.4894 20.3823 16.1311 19.6204C15.7728 18.8585 15.8126 18.0855 16.2199 17.8939C16.6273 17.7023 17.248 18.1647 17.6063 18.9266Z" fill="#EEC543"/>
<path d="M21.2933 18.9266C20.935 19.6885 20.9748 20.4615 21.3821 20.6531C21.7895 20.8447 22.4102 20.3823 22.7685 19.6204C23.1268 18.8585 23.0871 18.0855 22.6797 17.8939C22.2724 17.7023 21.6517 18.1647 21.2933 18.9266Z" fill="#EEC543"/>
<path d="M18.3748 11.0626L18.0635 13.7094H20.9842L20.6728 11.0626C20.6567 10.9258 20.5407 10.8226 20.403 10.8226H18.6447C18.5069 10.8226 18.3909 10.9258 18.3748 11.0626Z" fill="#646263"/>
<path d="M18.3194 10.8365L17.2134 9.67388C17.1329 9.58917 17.0071 9.56551 16.9013 9.61513L16.3838 9.85767C16.2024 9.94272 16.1723 10.1882 16.3278 10.3146L17.0035 10.8635C17.052 10.9029 17.0855 10.9579 17.0982 11.0192L17.4284 12.6101C17.4435 12.6831 17.488 12.7467 17.5514 12.7859L18.0149 13.0729C18.1063 13.1295 18.2225 13.1268 18.3113 13.0661L18.6601 12.8274C18.7511 12.7651 18.7955 12.6541 18.7724 12.5462L18.6311 11.8871C18.6169 11.8208 18.5584 11.7735 18.4907 11.7735C18.4068 11.7735 18.3408 11.702 18.3475 11.6184L18.3934 11.0455C18.3995 10.9685 18.3726 10.8925 18.3194 10.8365Z" fill="white"/>
<path d="M20.6603 10.8365L21.7663 9.67388C21.8468 9.58917 21.9726 9.56551 22.0784 9.61513L22.5959 9.85767C22.7773 9.94272 22.8074 10.1882 22.6519 10.3146L21.9762 10.8635C21.9277 10.9029 21.8942 10.9579 21.8815 11.0192L21.5513 12.6101C21.5362 12.6831 21.4917 12.7467 21.4283 12.7859L20.9648 13.0729C20.8734 13.1295 20.7571 13.1268 20.6684 13.0661L20.3196 12.8274C20.2286 12.7651 20.1842 12.6541 20.2073 12.5462L20.3486 11.8871C20.3627 11.8208 20.4213 11.7735 20.489 11.7735C20.5728 11.7735 20.6389 11.702 20.6322 11.6184L20.5863 11.0455C20.5802 10.9685 20.6071 10.8925 20.6603 10.8365Z" fill="white"/>
</g>
<defs>
<linearGradient id="paint0_linear_107628_1509" x1="0" y1="4" x2="0" y2="14" gradientUnits="userSpaceOnUse">
<stop stop-color="white"/>
<stop offset="1" stop-color="#F0F0F0"/>
</linearGradient>
<linearGradient id="paint1_linear_107628_1509" x1="0" y1="4" x2="0" y2="13.3333" gradientUnits="userSpaceOnUse">
<stop stop-color="#FF2E3B"/>
<stop offset="1" stop-color="#FC0D1B"/>
</linearGradient>
</defs>
</svg>
