<svg width="28" height="28" viewBox="0 0 28 28" fill="none" xmlns="http://www.w3.org/2000/svg">
<rect y="4" width="28" height="20" rx="3" fill="white"/>
<mask id="mask0_17_4346" style="mask-type:luminance" maskUnits="userSpaceOnUse" x="0" y="4" width="28" height="20">
<rect y="4" width="28" height="20" rx="3" fill="white"/>
</mask>
<g mask="url(#mask0_17_4346)">
<rect y="4" width="28" height="20" fill="#FFD44D"/>
<path fill-rule="evenodd" clip-rule="evenodd" d="M12 4H28V8H12V4ZM12 12H28V16H12V12ZM28 20H0V24H28V20Z" fill="#159A74"/>
<rect y="4" width="12" height="12" fill="#ED1F45"/>
<path fill-rule="evenodd" clip-rule="evenodd" d="M6 11.56L3.64886 13.2361L4.51635 10.4821L2.19577 8.76393L5.08306 8.73793L6 6L6.91694 8.73793L9.80423 8.76393L7.48365 10.4821L8.35114 13.2361L6 11.56Z" fill="white"/>
</g>
</svg>
