<svg width="28" height="28" viewBox="0 0 28 28" fill="none" xmlns="http://www.w3.org/2000/svg">
<rect y="4" width="28" height="20" rx="3" fill="white"/>
<mask id="mask0_17_4381" style="mask-type:alpha" maskUnits="userSpaceOnUse" x="0" y="4" width="28" height="20">
<rect y="4" width="28" height="20" rx="3" fill="white"/>
</mask>
<g mask="url(#mask0_17_4381)">
<rect y="4" width="28" height="20" fill="#07319C"/>
<path d="M17.6667 14V13.9486V13.8969V13.8449V13.7927V13.7403V13.6876V13.6347V13.5816V13.5283V13.4748V13.4211V13.3673V13.3134V13.2864V13.2796V13.2729V13.2593V13.2051V13.1508V13.0965V13.042V12.9874V12.9329V12.8782V12.8236V12.7689V12.7415V12.7347V12.7279V12.721V12.7142V12.7074V12.7005V12.6937V12.6868V12.68V12.6732V12.6663V12.6595V12.6527V12.6458V12.639V12.6322V12.6253V12.6185V12.6117V12.6049V12.598V12.5912V12.5844V12.5775V12.5707V12.5639V12.5571V12.5502V12.5434V12.5366V12.5298V12.5229V12.5161V12.5093V12.5025V12.4956V12.4888V12.482V12.4752V12.4684V12.4616V12.4547V12.4479V12.4411V12.4343V12.4275V12.4207V12.4139V12.4071V12.4003V12.3935V12.3867V12.3799V12.3731V12.3663V12.3595V12.3527V12.3459V12.3391V12.3323V12.3255V12.3187V12.3119V12.3051V12.2984V12.2916V12.2848V12.278V12.2712V12.2645V12.2577V12.2509V12.2441V12.2374V12.2306V12.2238V12.2171V12.2103V12.2036V12.1968V12.19V12.1833V12.1765V12.1698V12.163V12.1563V12.1496V12.1428V12.1361V12.1293V12.1226V12.1159V12.1091V12.1024V12.0957V12.089V12.0822V12.0755V12.0688V12.0621V12.0554V12.0487V12.042V12.0353V12.0286V12.0219V12.0152V12.0085V12.0018V11.9951V11.9884V11.9817V11.9751V11.9684V11.9617V11.955V11.9484V11.9417V11.935V11.9284V11.9217V11.9151V11.9084V11.9018V11.8951V11.8885V11.8752V11.8487V11.7958V11.7432V11.6908V11.6386V11.5867V11.5351V11.4837V11.4326V11.3819V11.3314V11.2813V11.2316V11.1822V11.1331V11.0845V11.0362V10.9409V10.8474V10.7556V10.6658C17.6667 10.1138 18.1141 9.66668 18.6667 9.66668H22.6667C23.2192 9.66668 23.6667 10.1138 23.6667 10.6658V10.6714V10.6769V10.6825V10.6881V10.6937V10.6993V10.7049V10.7105V10.7161V10.7217V10.7274V10.733V10.7386V10.7443V10.75V10.7556V10.7613V10.767V10.7727V10.7784V10.7841V10.7898V10.7955V10.8013V10.807V10.8128V10.8185V10.8243V10.83V10.8358V10.8416V10.8474V10.8532V10.859V10.8648V10.8706V10.8764V10.8822V10.8881V10.8939V10.8998V10.9056V10.9115V10.9174V10.9233V10.9291V10.935V10.9409V10.9468V10.9528V10.9587V10.9646V10.9705V10.9765V10.9824V10.9884V10.9943V11.0003V11.0063V11.0122V11.0182V11.0242V11.0302V11.0362V11.0422V11.0482V11.0543V11.0603V11.0663V11.0724V11.0784V11.0845V11.0905V11.0966V11.1027V11.1088V11.1148V11.1209V11.127V11.1331V11.1392V11.1454V11.1515V11.1576V11.1637V11.1699V11.176V11.1822V11.1883V11.1945V11.2007V11.2068V11.213V11.2192V11.2254V11.2316V11.2378V11.244V11.2502V11.2564V11.2626V11.2689V11.2751V11.2813V11.2876V11.2938V11.3001V11.3064V11.3126V11.3189V11.3252V11.3314V11.3377V11.344V11.3503V11.3566V11.3629V11.3692V11.3756V11.3819V11.3882V11.3945V11.4009V11.4072V11.4136V11.4199V11.4263V11.4326V11.439V11.4454V11.4518V11.4581V11.4645V11.4709V11.4773V11.4837V11.4901V11.4965V11.5029V11.5093V11.5158V11.5222V11.5286V11.5351V11.5415V11.5479V11.5544V11.5609V11.5673V11.5738V11.5802V11.5867V11.5932V11.5997V11.6061V11.6126V11.6191V11.6256V11.6321V11.6386V11.6451V11.6516V11.6581V11.6647V11.6712V11.6777V11.6842V11.6908V11.6973V11.7039V11.7104V11.717V11.7235V11.7301V11.7366V11.7432V11.7498V11.7563V11.7629V11.7695V11.7761V11.7827V11.7892V11.7958V11.8024V11.809V11.8156V11.8222V11.8289V11.8355V11.8421V11.8487V11.8553V11.862V11.8686V11.8752V11.8818V11.8885V11.8951V11.9018V11.9084V11.9151V11.9217V11.9284V11.935V11.9417V11.9484V11.955V11.9617V11.9684V11.9751V11.9817V11.9884V11.9951V12.0018V12.0085V12.0152V12.0219V12.0286V12.0353V12.042V12.0487V12.0554V12.0621V12.0688V12.0755V12.0822V12.089V12.0957V12.1024V12.1091V12.1159V12.1226V12.1293V12.1361V12.1428V12.1496V12.1563V12.163V12.1698V12.1765V12.1833V12.19V12.1968V12.2036V12.2103V12.2171V12.2238V12.2306V12.2374V12.2441V12.2509V12.2577V12.2645V12.2712V12.278V12.2848V12.2916V12.2984V12.3051V12.3119V12.3187V12.3255V12.3323V12.3391V12.3459V12.3527V12.3595V12.3663V12.3731V12.3799V12.3867V12.3935V12.4003V12.4071V12.4139V12.4207V12.4275V12.4343V12.4411V12.4479V12.4547V12.4616V12.4684V12.4752V12.482V12.4888V12.4956V12.5025V12.5093V12.5161V12.5229V12.5298V12.5366V12.5434V12.5502V12.5571V12.5639V12.5707V12.5775V12.5844V12.5912V12.598V12.6049V12.6117V12.6185V12.6253V12.6322V12.639V12.6458V12.6527V12.6595V12.6663V12.6732V12.68V12.6869V12.6937V12.7005V12.7074V12.7142V12.721V12.7279V12.7347V12.7415V12.7484V12.7552V12.762V12.7689V12.7757V12.7825V12.7894V12.7962V12.8031V12.8099V12.8167V12.8236V12.8304V12.8372V12.8441V12.8509V12.8577V12.8646V12.8714V12.8782V12.8851V12.8919V12.8987V12.9055V12.9124V12.9192V12.926V12.9329V12.9397V12.9465V12.9533V12.9602V12.967V12.9738V12.9806V12.9874V12.9943V13.0011V13.0079V13.0147V13.0215V13.0284V13.0352V13.042V13.0488V13.0556V13.0624V13.0692V13.076V13.0828V13.0896V13.0965V13.1033V13.1101V13.1169V13.1237V13.1305V13.1373V13.144V13.1508V13.1576V13.1644V13.1712V13.178V13.1848V13.1916V13.1984V13.2051V13.2119V13.2187V13.2255V13.2322V13.239V13.2458V13.2526V13.2593V13.2661V13.2729V13.2796V13.2864V13.2931V13.2999V13.3067V13.3134V13.3202V13.3269V13.3336V13.3404V13.3471V13.3539V13.3606V13.3673V13.3741V13.3808V13.3875V13.3943V13.401V13.4077V13.4144V13.4211V13.4279V13.4346V13.4413V13.448V13.4547V13.4614V13.4681V13.4748V13.4815V13.4882V13.4949V13.5016V13.5082V13.5149V13.5216V13.5283V13.5349V13.5416V13.5483V13.555V13.5616V13.5683V13.5749V13.5816V13.5882V13.5949V13.6015V13.6082V13.6148V13.6214V13.6281V13.6347V13.6413V13.6479V13.6545V13.6612V13.6678V13.6744V13.681V13.6876V13.6942V13.7008V13.7074V13.714V13.7205V13.7271V13.7337V13.7403V13.7468V13.7534V13.76V13.7665V13.7731V13.7796V13.7862V13.7927V13.7993V13.8058V13.8123V13.8189V13.8254V13.8319V13.8384V13.8449V13.8515V13.858V13.8645V13.871V13.8775V13.8839V13.8904V13.8969V13.9034V13.9099V13.9163V13.9228V13.9292V13.9357V13.9422V13.9486V13.955V13.9615V13.9679V13.9743V13.9808V13.9872V13.9936V14C23.6667 15.5427 22.8988 16.6259 22.1103 17.3356C21.7158 17.6906 21.3202 17.9479 21.0232 18.1163C20.875 18.2002 20.7523 18.2615 20.6678 18.3014C20.6674 18.3015 20.667 18.3017 20.6667 18.3019C20.6663 18.3017 20.6659 18.3015 20.6656 18.3014C20.5811 18.2615 20.4584 18.2002 20.3102 18.1163C20.0131 17.9479 19.6175 17.6906 19.223 17.3356C18.4345 16.6259 17.6667 15.5427 17.6667 14Z" fill="#FFD033" stroke="white" stroke-width="0.666667"/>
<mask id="mask1_17_4381" style="mask-type:alpha" maskUnits="userSpaceOnUse" x="17" y="9" width="7" height="10">
<path d="M17.6667 14V13.9486V13.8969V13.8449V13.7927V13.7403V13.6876V13.6347V13.5816V13.5283V13.4748V13.4211V13.3673V13.3134V13.2864V13.2796V13.2729V13.2593V13.2051V13.1508V13.0965V13.042V12.9874V12.9329V12.8782V12.8236V12.7689V12.7415V12.7347V12.7279V12.721V12.7142V12.7074V12.7005V12.6937V12.6868V12.68V12.6732V12.6663V12.6595V12.6527V12.6458V12.639V12.6322V12.6253V12.6185V12.6117V12.6049V12.598V12.5912V12.5844V12.5775V12.5707V12.5639V12.5571V12.5502V12.5434V12.5366V12.5298V12.5229V12.5161V12.5093V12.5025V12.4956V12.4888V12.482V12.4752V12.4684V12.4616V12.4547V12.4479V12.4411V12.4343V12.4275V12.4207V12.4139V12.4071V12.4003V12.3935V12.3867V12.3799V12.3731V12.3663V12.3595V12.3527V12.3459V12.3391V12.3323V12.3255V12.3187V12.3119V12.3051V12.2984V12.2916V12.2848V12.278V12.2712V12.2645V12.2577V12.2509V12.2441V12.2374V12.2306V12.2238V12.2171V12.2103V12.2036V12.1968V12.19V12.1833V12.1765V12.1698V12.163V12.1563V12.1496V12.1428V12.1361V12.1293V12.1226V12.1159V12.1091V12.1024V12.0957V12.089V12.0822V12.0755V12.0688V12.0621V12.0554V12.0487V12.042V12.0353V12.0286V12.0219V12.0152V12.0085V12.0018V11.9951V11.9884V11.9817V11.9751V11.9684V11.9617V11.955V11.9484V11.9417V11.935V11.9284V11.9217V11.9151V11.9084V11.9018V11.8951V11.8885V11.8752V11.8487V11.7958V11.7432V11.6908V11.6386V11.5867V11.5351V11.4837V11.4326V11.3819V11.3314V11.2813V11.2316V11.1822V11.1331V11.0845V11.0362V10.9409V10.8474V10.7556V10.6658C17.6667 10.1138 18.1141 9.66668 18.6667 9.66668H22.6667C23.2192 9.66668 23.6667 10.1138 23.6667 10.6658V10.6714V10.6769V10.6825V10.6881V10.6937V10.6993V10.7049V10.7105V10.7161V10.7217V10.7274V10.733V10.7386V10.7443V10.75V10.7556V10.7613V10.767V10.7727V10.7784V10.7841V10.7898V10.7955V10.8013V10.807V10.8128V10.8185V10.8243V10.83V10.8358V10.8416V10.8474V10.8532V10.859V10.8648V10.8706V10.8764V10.8822V10.8881V10.8939V10.8998V10.9056V10.9115V10.9174V10.9233V10.9291V10.935V10.9409V10.9468V10.9528V10.9587V10.9646V10.9705V10.9765V10.9824V10.9884V10.9943V11.0003V11.0063V11.0122V11.0182V11.0242V11.0302V11.0362V11.0422V11.0482V11.0543V11.0603V11.0663V11.0724V11.0784V11.0845V11.0905V11.0966V11.1027V11.1088V11.1148V11.1209V11.127V11.1331V11.1392V11.1454V11.1515V11.1576V11.1637V11.1699V11.176V11.1822V11.1883V11.1945V11.2007V11.2068V11.213V11.2192V11.2254V11.2316V11.2378V11.244V11.2502V11.2564V11.2626V11.2689V11.2751V11.2813V11.2876V11.2938V11.3001V11.3064V11.3126V11.3189V11.3252V11.3314V11.3377V11.344V11.3503V11.3566V11.3629V11.3692V11.3756V11.3819V11.3882V11.3945V11.4009V11.4072V11.4136V11.4199V11.4263V11.4326V11.439V11.4454V11.4518V11.4581V11.4645V11.4709V11.4773V11.4837V11.4901V11.4965V11.5029V11.5093V11.5158V11.5222V11.5286V11.5351V11.5415V11.5479V11.5544V11.5609V11.5673V11.5738V11.5802V11.5867V11.5932V11.5997V11.6061V11.6126V11.6191V11.6256V11.6321V11.6386V11.6451V11.6516V11.6581V11.6647V11.6712V11.6777V11.6842V11.6908V11.6973V11.7039V11.7104V11.717V11.7235V11.7301V11.7366V11.7432V11.7498V11.7563V11.7629V11.7695V11.7761V11.7827V11.7892V11.7958V11.8024V11.809V11.8156V11.8222V11.8289V11.8355V11.8421V11.8487V11.8553V11.862V11.8686V11.8752V11.8818V11.8885V11.8951V11.9018V11.9084V11.9151V11.9217V11.9284V11.935V11.9417V11.9484V11.955V11.9617V11.9684V11.9751V11.9817V11.9884V11.9951V12.0018V12.0085V12.0152V12.0219V12.0286V12.0353V12.042V12.0487V12.0554V12.0621V12.0688V12.0755V12.0822V12.089V12.0957V12.1024V12.1091V12.1159V12.1226V12.1293V12.1361V12.1428V12.1496V12.1563V12.163V12.1698V12.1765V12.1833V12.19V12.1968V12.2036V12.2103V12.2171V12.2238V12.2306V12.2374V12.2441V12.2509V12.2577V12.2645V12.2712V12.278V12.2848V12.2916V12.2984V12.3051V12.3119V12.3187V12.3255V12.3323V12.3391V12.3459V12.3527V12.3595V12.3663V12.3731V12.3799V12.3867V12.3935V12.4003V12.4071V12.4139V12.4207V12.4275V12.4343V12.4411V12.4479V12.4547V12.4616V12.4684V12.4752V12.482V12.4888V12.4956V12.5025V12.5093V12.5161V12.5229V12.5298V12.5366V12.5434V12.5502V12.5571V12.5639V12.5707V12.5775V12.5844V12.5912V12.598V12.6049V12.6117V12.6185V12.6253V12.6322V12.639V12.6458V12.6527V12.6595V12.6663V12.6732V12.68V12.6869V12.6937V12.7005V12.7074V12.7142V12.721V12.7279V12.7347V12.7415V12.7484V12.7552V12.762V12.7689V12.7757V12.7825V12.7894V12.7962V12.8031V12.8099V12.8167V12.8236V12.8304V12.8372V12.8441V12.8509V12.8577V12.8646V12.8714V12.8782V12.8851V12.8919V12.8987V12.9055V12.9124V12.9192V12.926V12.9329V12.9397V12.9465V12.9533V12.9602V12.967V12.9738V12.9806V12.9874V12.9943V13.0011V13.0079V13.0147V13.0215V13.0284V13.0352V13.042V13.0488V13.0556V13.0624V13.0692V13.076V13.0828V13.0896V13.0965V13.1033V13.1101V13.1169V13.1237V13.1305V13.1373V13.144V13.1508V13.1576V13.1644V13.1712V13.178V13.1848V13.1916V13.1984V13.2051V13.2119V13.2187V13.2255V13.2322V13.239V13.2458V13.2526V13.2593V13.2661V13.2729V13.2796V13.2864V13.2931V13.2999V13.3067V13.3134V13.3202V13.3269V13.3336V13.3404V13.3471V13.3539V13.3606V13.3673V13.3741V13.3808V13.3875V13.3943V13.401V13.4077V13.4144V13.4211V13.4279V13.4346V13.4413V13.448V13.4547V13.4614V13.4681V13.4748V13.4815V13.4882V13.4949V13.5016V13.5082V13.5149V13.5216V13.5283V13.5349V13.5416V13.5483V13.555V13.5616V13.5683V13.5749V13.5816V13.5882V13.5949V13.6015V13.6082V13.6148V13.6214V13.6281V13.6347V13.6413V13.6479V13.6545V13.6612V13.6678V13.6744V13.681V13.6876V13.6942V13.7008V13.7074V13.714V13.7205V13.7271V13.7337V13.7403V13.7468V13.7534V13.76V13.7665V13.7731V13.7796V13.7862V13.7927V13.7993V13.8058V13.8123V13.8189V13.8254V13.8319V13.8384V13.8449V13.8515V13.858V13.8645V13.871V13.8775V13.8839V13.8904V13.8969V13.9034V13.9099V13.9163V13.9228V13.9292V13.9357V13.9422V13.9486V13.955V13.9615V13.9679V13.9743V13.9808V13.9872V13.9936V14C23.6667 15.5427 22.8988 16.6259 22.1103 17.3356C21.7158 17.6906 21.3202 17.9479 21.0232 18.1163C20.875 18.2002 20.7523 18.2615 20.6678 18.3014C20.6674 18.3015 20.667 18.3017 20.6667 18.3019C20.6663 18.3017 20.6659 18.3015 20.6656 18.3014C20.5811 18.2615 20.4584 18.2002 20.3102 18.1163C20.0131 17.9479 19.6175 17.6906 19.223 17.3356C18.4345 16.6259 17.6667 15.5427 17.6667 14Z" fill="white" stroke="white" stroke-width="0.666667"/>
</mask>
<g mask="url(#mask1_17_4381)">
<path fill-rule="evenodd" clip-rule="evenodd" d="M22 13.3334C22.3682 13.3334 22.6667 12.7364 22.6667 12C22.6667 11.2636 22.3682 10.6667 22 10.6667C21.6318 10.6667 21.3333 11.2636 21.3333 12C21.3333 12.7364 21.6318 13.3334 22 13.3334Z" fill="#BA5B1F"/>
<path fill-rule="evenodd" clip-rule="evenodd" d="M19.5385 13.2932C19.8845 13.1672 19.9608 12.5042 19.709 11.8122C19.4571 11.1202 18.9724 10.6614 18.6265 10.7873C18.2805 10.9132 18.2042 11.5763 18.456 12.2682C18.7079 12.9602 19.1925 13.4191 19.5385 13.2932Z" fill="#FF9F3E"/>
<path fill-rule="evenodd" clip-rule="evenodd" d="M19.0516 13.2709C19.3853 13.4265 19.9081 13.0116 20.2193 12.3442C20.5305 11.6768 20.5123 11.0097 20.1786 10.8541C19.8449 10.6985 19.3221 11.1134 19.0109 11.7807C18.6997 12.4481 18.7179 13.1153 19.0516 13.2709Z" fill="#FF937F"/>
<path fill-rule="evenodd" clip-rule="evenodd" d="M20 14.6667L20.6667 13.3333L21.3333 14.6667V16H20V14.6667Z" fill="#01A827"/>
</g>
<path d="M0 3.66667H-0.901086L-0.21693 4.25309L4.33333 8.15331V9.16179L-0.193746 12.3954L-0.333333 12.4951V12.6667V13.3333V13.9347L0.176666 13.616L5.42893 10.3333H6.55984L11.0821 13.5635C11.176 13.6306 11.2886 13.6667 11.404 13.6667C11.9182 13.6667 12.1548 13.027 11.7644 12.6924L7.66667 9.18002V8.17154L12.0542 5.03762C12.2294 4.91248 12.3333 4.71043 12.3333 4.49513V4V3.39858L11.8233 3.71733L6.57107 7H5.44016L0.860413 3.72876L0.773488 3.66667H0.666667H0Z" fill="#DB1E36" stroke="white" stroke-width="0.666667"/>
<path fill-rule="evenodd" clip-rule="evenodd" d="M0 7.33333V10H4.66667V13.3333C4.66667 13.7015 4.96514 14 5.33333 14H6.66667C7.03486 14 7.33333 13.7015 7.33333 13.3333V10H12C12.3682 10 12.6667 9.70152 12.6667 9.33333V8C12.6667 7.63181 12.3682 7.33333 12 7.33333H7.33333V4H4.66667V7.33333H0Z" fill="white"/>
<path fill-rule="evenodd" clip-rule="evenodd" d="M0 8H5.33333V7.33333V4H6.66667V7.33333V8H12V9.33333H6.66667V10V13.3333H5.33333V10V9.33333H0V8Z" fill="#DB1E36"/>
</g>
</svg>
