<svg width="28" height="28" viewBox="0 0 28 28" fill="none" xmlns="http://www.w3.org/2000/svg">
<rect y="4" width="28" height="20" rx="3" fill="white"/>
<mask id="mask0_17_4373" style="mask-type:alpha" maskUnits="userSpaceOnUse" x="0" y="4" width="28" height="20">
<rect y="4" width="28" height="20" rx="3" fill="white"/>
</mask>
<g mask="url(#mask0_17_4373)">
<rect y="4" width="28" height="20" fill="#E92434"/>
<path fill-rule="evenodd" clip-rule="evenodd" d="M19.0209 14.7684L17.796 16.2533L17.8795 14.3302L16.0887 13.6242L17.9435 13.1093L18.0615 11.188L19.1244 12.7929L20.9881 12.3114L19.7903 13.8182L20.8241 15.442L19.0209 14.7684Z" fill="white"/>
<path fill-rule="evenodd" clip-rule="evenodd" d="M17.4028 17.6841C16.3048 19.0935 14.5916 20 12.6667 20C9.35295 20 6.66666 17.3137 6.66666 14C6.66666 10.6863 9.35295 8 12.6667 8C14.5916 8 16.3048 8.90649 17.4028 10.3159C16.5555 9.70011 15.4903 9.33333 14.3333 9.33333C11.5719 9.33333 9.33332 11.4227 9.33332 14C9.33332 16.5773 11.5719 18.6667 14.3333 18.6667C15.4903 18.6667 16.5555 18.2999 17.4028 17.6841Z" fill="white"/>
</g>
</svg>
