<svg width="28" height="28" viewBox="0 0 28 28" fill="none" xmlns="http://www.w3.org/2000/svg">
<rect y="4" width="28" height="20" rx="3" fill="white"/>
<mask id="mask0_17_4411" style="mask-type:alpha" maskUnits="userSpaceOnUse" x="0" y="4" width="28" height="20">
<rect y="4" width="28" height="20" rx="3" fill="white"/>
</mask>
<g mask="url(#mask0_17_4411)">
<path fill-rule="evenodd" clip-rule="evenodd" d="M0 24H28V4H0V24Z" fill="#30C375"/>
<rect x="4" y="4" width="4" height="20" fill="#DE414F"/>
<path fill-rule="evenodd" clip-rule="evenodd" d="M6 8.00001C7.10457 8.00001 8 7.40306 8 6.66668C8 5.9303 7.10457 5.33334 6 5.33334C4.89543 5.33334 4 5.9303 4 6.66668C4 7.40306 4.89543 8.00001 6 8.00001Z" fill="white"/>
<mask id="mask1_17_4411" style="mask-type:alpha" maskUnits="userSpaceOnUse" x="4" y="5" width="4" height="3">
<path fill-rule="evenodd" clip-rule="evenodd" d="M6 8.00001C7.10457 8.00001 8 7.40306 8 6.66668C8 5.9303 7.10457 5.33334 6 5.33334C4.89543 5.33334 4 5.9303 4 6.66668C4 7.40306 4.89543 8.00001 6 8.00001Z" fill="white"/>
</mask>
<g mask="url(#mask1_17_4411)">
<path fill-rule="evenodd" clip-rule="evenodd" d="M5.99999 7.33333C6.36818 7.33333 6.66666 7.03486 6.66666 6.66667C6.66666 6.29848 6.36818 6 5.99999 6C5.63181 6 5.33333 6.29848 5.33333 6.66667C5.33333 7.03486 5.63181 7.33333 5.99999 7.33333Z" fill="#DD404F"/>
<rect x="4" y="5.33334" width="2" height="1.33333" fill="#FBAF29"/>
<rect x="6" y="6.66669" width="2" height="1.33333" fill="#FBAF29"/>
</g>
<path fill-rule="evenodd" clip-rule="evenodd" d="M6 22.6667C7.10457 22.6667 8 22.0697 8 21.3333C8 20.597 7.10457 20 6 20C4.89543 20 4 20.597 4 21.3333C4 22.0697 4.89543 22.6667 6 22.6667Z" fill="white"/>
<mask id="mask2_17_4411" style="mask-type:alpha" maskUnits="userSpaceOnUse" x="4" y="20" width="4" height="3">
<path fill-rule="evenodd" clip-rule="evenodd" d="M6 22.6667C7.10457 22.6667 8 22.0697 8 21.3333C8 20.597 7.10457 20 6 20C4.89543 20 4 20.597 4 21.3333C4 22.0697 4.89543 22.6667 6 22.6667Z" fill="white"/>
</mask>
<g mask="url(#mask2_17_4411)">
<path fill-rule="evenodd" clip-rule="evenodd" d="M5.99999 22C6.36818 22 6.66666 21.7015 6.66666 21.3333C6.66666 20.9651 6.36818 20.6667 5.99999 20.6667C5.63181 20.6667 5.33333 20.9651 5.33333 21.3333C5.33333 21.7015 5.63181 22 5.99999 22Z" fill="#DD404F"/>
<rect x="4" y="20" width="2" height="1.33333" fill="#FBAF29"/>
<rect x="6" y="21.3333" width="2" height="1.33333" fill="#FBAF29"/>
</g>
<path fill-rule="evenodd" clip-rule="evenodd" d="M6 16C7.10457 16 8 15.4031 8 14.6667C8 13.9303 7.10457 13.3333 6 13.3333C4.89543 13.3333 4 13.9303 4 14.6667C4 15.4031 4.89543 16 6 16Z" fill="#28AE67"/>
<mask id="mask3_17_4411" style="mask-type:alpha" maskUnits="userSpaceOnUse" x="4" y="13" width="4" height="3">
<path fill-rule="evenodd" clip-rule="evenodd" d="M6 16C7.10457 16 8 15.4031 8 14.6667C8 13.9303 7.10457 13.3333 6 13.3333C4.89543 13.3333 4 13.9303 4 14.6667C4 15.4031 4.89543 16 6 16Z" fill="white"/>
</mask>
<g mask="url(#mask3_17_4411)">
<path fill-rule="evenodd" clip-rule="evenodd" d="M6.00001 15.3333C6.73638 15.3333 7.33334 15.0349 7.33334 14.6667C7.33334 14.2985 6.73638 14 6.00001 14C5.26363 14 4.66667 14.2985 4.66667 14.6667C4.66667 15.0349 5.26363 15.3333 6.00001 15.3333Z" fill="#DD404F"/>
</g>
<path fill-rule="evenodd" clip-rule="evenodd" d="M6 18.6667C7.10457 18.6667 8 18.3682 8 18C8 17.6318 7.10457 17.3333 6 17.3333C4.89543 17.3333 4 17.6318 4 18C4 18.3682 4.89543 18.6667 6 18.6667Z" fill="#28AE67"/>
<mask id="mask4_17_4411" style="mask-type:alpha" maskUnits="userSpaceOnUse" x="4" y="17" width="4" height="2">
<path fill-rule="evenodd" clip-rule="evenodd" d="M6 18.6667C7.10457 18.6667 8 18.3682 8 18C8 17.6318 7.10457 17.3333 6 17.3333C4.89543 17.3333 4 17.6318 4 18C4 18.3682 4.89543 18.6667 6 18.6667Z" fill="white"/>
</mask>
<g mask="url(#mask4_17_4411)">
</g>
<path fill-rule="evenodd" clip-rule="evenodd" d="M6 12C7.10457 12 8 11.4031 8 10.6667C8 9.9303 7.10457 9.33334 6 9.33334C4.89543 9.33334 4 9.9303 4 10.6667C4 11.4031 4.89543 12 6 12Z" fill="#FBAF29"/>
<mask id="mask5_17_4411" style="mask-type:alpha" maskUnits="userSpaceOnUse" x="4" y="9" width="4" height="3">
<path fill-rule="evenodd" clip-rule="evenodd" d="M6 12C7.10457 12 8 11.4031 8 10.6667C8 9.9303 7.10457 9.33334 6 9.33334C4.89543 9.33334 4 9.9303 4 10.6667C4 11.4031 4.89543 12 6 12Z" fill="white"/>
</mask>
<g mask="url(#mask5_17_4411)">
<path fill-rule="evenodd" clip-rule="evenodd" d="M5.99999 11.3333C6.36818 11.3333 6.66666 11.0349 6.66666 10.6667C6.66666 10.2985 6.36818 10 5.99999 10C5.63181 10 5.33333 10.2985 5.33333 10.6667C5.33333 11.0349 5.63181 11.3333 5.99999 11.3333Z" fill="#DD404F"/>
<rect x="4" y="9.33334" width="1.33333" height="2.66667" fill="#28AE67"/>
<rect x="6.66667" y="9.33334" width="1.33333" height="2.66667" fill="#28AE67"/>
</g>
<path fill-rule="evenodd" clip-rule="evenodd" d="M14.8227 8.23815C14.586 8.5202 14.6228 8.9407 14.9048 9.17737C15.1869 9.41404 15.6074 9.37725 15.8441 9.0952C16.0807 8.81315 16.0439 8.39264 15.7619 8.15598C15.4798 7.91931 15.0593 7.9561 14.8227 8.23815ZM13.0952 10.8226C12.8132 10.586 12.3927 10.6228 12.156 10.9048C11.9193 11.1869 11.9561 11.6074 12.2382 11.844C12.5202 12.0807 12.9407 12.0439 13.1774 11.7619C13.4141 11.4798 13.3773 11.0593 13.0952 10.8226ZM11.7619 9.48931C11.4798 9.25264 11.0593 9.28943 10.8227 9.57148C10.586 9.85353 10.6228 10.274 10.9048 10.5107C11.1869 10.7474 11.6074 10.7106 11.8441 10.4285C12.0807 10.1465 12.0439 9.72598 11.7619 9.48931ZM14.4285 6.82264C14.1465 6.58597 13.726 6.62276 13.4893 6.90481C13.2527 7.18686 13.2894 7.60737 13.5715 7.84404C13.8535 8.0807 14.274 8.04391 14.5107 7.76186C14.7474 7.47981 14.7106 7.05931 14.4285 6.82264ZM13.7619 8.82264C13.4798 8.58597 13.0593 8.62276 12.8227 8.90481C12.586 9.18686 12.6228 9.60737 12.9048 9.84404C13.1869 10.0807 13.6074 10.0439 13.8441 9.76186C14.0807 9.47981 14.0439 9.05931 13.7619 8.82264Z" fill="white"/>
<path fill-rule="evenodd" clip-rule="evenodd" d="M17.4761 13.4505C15.8881 15.0386 13.3133 15.0386 11.7253 13.4505C11.5714 13.2966 11.4324 13.1335 11.3084 12.9629C12.8985 14.1191 15.1374 13.9802 16.5716 12.546C18.0057 11.1118 18.1447 8.8729 16.9885 7.28278C17.1591 7.40683 17.3222 7.5458 17.4761 7.69968C19.0642 9.28773 19.0642 11.8625 17.4761 13.4505Z" fill="white"/>
</g>
</svg>
