<svg width="28" height="28" viewBox="0 0 28 28" fill="none" xmlns="http://www.w3.org/2000/svg">
<rect y="4" width="28" height="20" rx="3" fill="white"/>
<mask id="mask0_17_4252" style="mask-type:alpha" maskUnits="userSpaceOnUse" x="0" y="4" width="28" height="20">
<rect y="4" width="28" height="20" rx="3" fill="white"/>
</mask>
<g mask="url(#mask0_17_4252)">
<path fill-rule="evenodd" clip-rule="evenodd" d="M0 6.66667H28V4H0V6.66667Z" fill="#262626"/>
<path fill-rule="evenodd" clip-rule="evenodd" d="M0 17.3333H28V14.6667H0V17.3333Z" fill="#262626"/>
<path fill-rule="evenodd" clip-rule="evenodd" d="M0 14.6667H28V10.6667H0V14.6667Z" fill="#ED1623"/>
<path fill-rule="evenodd" clip-rule="evenodd" d="M0 10.6667H28V6.66666H0V10.6667Z" fill="#FEE044"/>
<path fill-rule="evenodd" clip-rule="evenodd" d="M0 24H28V21.3333H0V24Z" fill="#ED1623"/>
<path fill-rule="evenodd" clip-rule="evenodd" d="M0 21.3333H28V17.3333H0V21.3333Z" fill="#FEE044"/>
<path fill-rule="evenodd" clip-rule="evenodd" d="M14 18.6667C16.5773 18.6667 18.6666 16.5773 18.6666 14C18.6666 11.4227 16.5773 9.33334 14 9.33334C11.4227 9.33334 9.33331 11.4227 9.33331 14C9.33331 16.5773 11.4227 18.6667 14 18.6667Z" fill="white"/>
<path fill-rule="evenodd" clip-rule="evenodd" d="M12.9024 11.569C12.7722 11.4389 12.7722 11.2278 12.9024 11.0976L13.3142 10.6858C13.3269 10.673 13.3383 10.6597 13.3492 10.6453C13.3842 10.5992 13.4735 10.4865 13.5778 10.3917C13.7545 10.231 14.2579 10.2141 14.4323 10.3773C14.4797 10.4216 14.5229 10.471 14.5591 10.5162C14.631 10.6062 14.6353 10.7293 14.5838 10.8323L14.0352 11.9296C14.012 11.9759 14 12.0269 14 12.0787V12.4606C14 12.5869 14.0713 12.7023 14.1843 12.7588L15.285 13.3091C15.317 13.3252 15.3462 13.3462 15.3716 13.3716L16.4968 14.4968C16.5982 14.5982 16.6234 14.7532 16.5592 14.8815L16.2068 15.5863C16.1051 15.7898 15.8339 15.8339 15.673 15.673L15.569 15.569C15.4389 15.4389 15.2278 15.4389 15.0976 15.569L14.7643 15.9024C14.7018 15.9649 14.6667 16.0497 14.6667 16.1381V16.5286C14.6667 16.617 14.7018 16.7018 14.7643 16.7643C14.9743 16.9743 14.8256 17.3333 14.5286 17.3333H14.1381C13.8411 17.3333 13.6924 16.9743 13.9024 16.7643C13.9649 16.7018 14 16.617 14 16.5286V16.3333C14 16.1492 13.8508 16 13.6667 16H13.4714C13.383 16 13.2982 16.0351 13.2357 16.0976L12.9024 16.431C12.7722 16.5611 12.5611 16.5611 12.431 16.431L12.2357 16.2357C12.1055 16.1055 12.1055 15.8945 12.2357 15.7643L12.569 15.431C12.6315 15.3684 12.7163 15.3333 12.8047 15.3333H13.1953C13.4922 15.3333 13.641 14.9743 13.431 14.7643L12.2357 13.569C12.1055 13.4389 12.1055 13.2278 12.2357 13.0976L13.0976 12.2357C13.2278 12.1055 13.2278 11.8945 13.0976 11.7643L12.9024 11.569Z" fill="#262626"/>
</g>
</svg>
