<svg width="28" height="28" viewBox="0 0 28 28" fill="none" xmlns="http://www.w3.org/2000/svg">
<rect x="0.25" y="4.25" width="27.5" height="19.5" rx="1.75" fill="white" stroke="#F5F5F5" stroke-width="0.5"/>
<mask id="mask0_17_4268" style="mask-type:alpha" maskUnits="userSpaceOnUse" x="0" y="4" width="28" height="20">
<rect x="0.25" y="4.25" width="27.5" height="19.5" rx="1.75" fill="white" stroke="white" stroke-width="0.5"/>
</mask>
<g mask="url(#mask0_17_4268)">
<path fill-rule="evenodd" clip-rule="evenodd" d="M28 6.66666H13.3333V9.33332H28V6.66666ZM13.3333 12V14.6667H28V12H13.3333ZM13.3333 17.3333L0 17.3333V20H28V17.3333H13.3333ZM0 24V22.6667H28V24H0Z" fill="#0E4DC5"/>
<path fill-rule="evenodd" clip-rule="evenodd" d="M6.66669 13.3213L5.7766 14.6499L5.55115 13.0667L4.17273 13.8776L4.65655 12.3533L3.06281 12.4858L4.16009 11.3224L2.66669 10.7502L4.16009 10.1781L3.06281 9.0147L4.65655 9.14721L4.17273 7.62291L5.55115 8.43379L5.7766 6.85052L6.66669 8.17917L7.55677 6.85052L7.78223 8.43379L9.16065 7.62291L8.67682 9.14721L10.2706 9.0147L9.17329 10.1781L10.6667 10.7502L9.17329 11.3224L10.2706 12.4858L8.67682 12.3533L9.16065 13.8776L7.78223 13.0667L7.55677 14.6499L6.66669 13.3213ZM6.66669 13.2957C8.0725 13.2957 9.21214 12.1561 9.21214 10.7502C9.21214 9.34442 8.0725 8.20478 6.66669 8.20478C5.26087 8.20478 4.12123 9.34442 4.12123 10.7502C4.12123 12.1561 5.26087 13.2957 6.66669 13.2957ZM8.66669 10.6667C8.66669 11.7712 7.77126 12.6667 6.66669 12.6667C5.56212 12.6667 4.66669 11.7712 4.66669 10.6667C4.66669 9.56209 5.56212 8.66666 6.66669 8.66666C7.77126 8.66666 8.66669 9.56209 8.66669 10.6667Z" fill="#FED443"/>
</g>
</svg>
