<svg width="28" height="28" viewBox="0 0 28 28" fill="none" xmlns="http://www.w3.org/2000/svg">
<rect y="4" width="28" height="20" rx="3" fill="white"/>
<mask id="mask0_17_4221" style="mask-type:alpha" maskUnits="userSpaceOnUse" x="0" y="4" width="28" height="20">
<rect y="4" width="28" height="20" rx="3" fill="white"/>
</mask>
<g mask="url(#mask0_17_4221)">
<path fill-rule="evenodd" clip-rule="evenodd" d="M0 17.3333H28V10.6667H0V17.3333Z" fill="#063191"/>
<path fill-rule="evenodd" clip-rule="evenodd" d="M0 24H28V17.3333H0V24Z" fill="#E2213B"/>
<path fill-rule="evenodd" clip-rule="evenodd" d="M14 13.3333C14.3682 13.3333 14.6666 13.0349 14.6666 12.6667C14.6666 12.2985 14.3682 12 14 12C13.6318 12 13.3333 12.2985 13.3333 12.6667C13.3333 13.0349 13.6318 13.3333 14 13.3333ZM11.3333 14C11.7015 14 12 13.7015 12 13.3333C12 12.9651 11.7015 12.6667 11.3333 12.6667C10.9651 12.6667 10.6666 12.9651 10.6666 13.3333C10.6666 13.7015 10.9651 14 11.3333 14ZM17.3333 13.3333C17.3333 13.7015 17.0348 14 16.6666 14C16.2985 14 16 13.7015 16 13.3333C16 12.9651 16.2985 12.6667 16.6666 12.6667C17.0348 12.6667 17.3333 12.9651 17.3333 13.3333ZM9.99998 16C10.3682 16 10.6666 15.7015 10.6666 15.3333C10.6666 14.9651 10.3682 14.6667 9.99998 14.6667C9.63179 14.6667 9.33331 14.9651 9.33331 15.3333C9.33331 15.7015 9.63179 16 9.99998 16ZM18.6666 15.3333C18.6666 15.7015 18.3682 16 18 16C17.6318 16 17.3333 15.7015 17.3333 15.3333C17.3333 14.9651 17.6318 14.6667 18 14.6667C18.3682 14.6667 18.6666 14.9651 18.6666 15.3333Z" fill="white"/>
<path fill-rule="evenodd" clip-rule="evenodd" d="M0 10.6667H28V4H0V10.6667Z" fill="#FFD044"/>
</g>
</svg>
