<svg width="28" height="28" viewBox="0 0 28 28" fill="none" xmlns="http://www.w3.org/2000/svg">
<rect x="0.25" y="4.25" width="27.5" height="19.5" rx="2.75" fill="white" stroke="#F5F5F5" stroke-width="0.5"/>
<mask id="mask0_107628_1387" style="mask-type:alpha" maskUnits="userSpaceOnUse" x="0" y="4" width="28" height="20">
<rect y="4" width="28" height="20" rx="3" fill="#347743"/>
</mask>
<g mask="url(#mask0_107628_1387)">
<rect y="4" width="28" height="6.73077" fill="black"/>
<rect y="17.2692" width="28" height="6.73077" fill="#347743"/>
<path d="M10 14L0 4V24L10 14Z" fill="#B42A26"/>
<path d="M17.5712 11.4277C16.3244 11.6542 15.3789 12.7455 15.3789 14.0577C15.3789 15.3699 16.3244 16.4612 17.5712 16.6877C17.4152 16.716 17.2546 16.7308 17.0904 16.7308C15.6141 16.7308 14.4174 15.534 14.4174 14.0577C14.4174 12.5814 15.6141 11.3846 17.0904 11.3846C17.2546 11.3846 17.4152 11.3994 17.5712 11.4277Z" fill="#B42A26"/>
<path d="M17.4942 12.1539L17.926 13.4827H19.3232L18.1928 14.3039L18.6246 15.6327L17.4942 14.8115L16.3639 15.6327L16.7956 14.3039L15.6653 13.4827H17.0625L17.4942 12.1539Z" fill="#B42A26"/>
</g>
</svg>
