<svg width="28" height="28" viewBox="0 0 28 28" fill="none" xmlns="http://www.w3.org/2000/svg">
<rect y="4" width="28" height="20" rx="2" fill="white"/>
<mask id="mask0_17_3845" style="mask-type:alpha" maskUnits="userSpaceOnUse" x="0" y="4" width="28" height="20">
<rect y="4" width="28" height="20" rx="2" fill="white"/>
</mask>
<g mask="url(#mask0_17_3845)">
<rect y="4" width="28" height="20" fill="#19BFBF"/>
<path fill-rule="evenodd" clip-rule="evenodd" d="M14 21.3334C18.0501 21.3334 21.3334 18.0501 21.3334 14C21.3334 9.94993 18.0501 6.66669 14 6.66669C9.94993 6.66669 6.66669 9.94993 6.66669 14C6.66669 18.0501 9.94993 21.3334 14 21.3334ZM19.9634 14.6667C19.7159 16.9059 18.2362 18.7737 16.2173 19.577C16.8674 18.253 17.2472 16.5281 17.3203 14.6667H19.9634ZM15.9857 14.6667C15.8883 16.9157 15.3011 18.9034 14.3855 19.9878C14.2581 19.9959 14.1295 20 14 20C13.8705 20 13.742 19.9959 13.6145 19.9878C12.699 18.9034 12.1117 16.9157 12.0144 14.6667H15.9857ZM10.6797 14.6667C10.7529 16.5281 11.1326 18.253 11.7827 19.577C9.76388 18.7737 8.28417 16.9059 8.03664 14.6667H10.6797ZM12.0144 13.3334H15.9857C15.8883 11.0843 15.3011 9.09659 14.3855 8.01221C14.2581 8.00412 14.1295 8.00002 14 8.00002C13.8705 8.00002 13.742 8.00412 13.6145 8.01221C12.6989 9.09659 12.1117 11.0843 12.0144 13.3334ZM11.7827 8.42304C11.1326 9.74707 10.7529 11.472 10.6797 13.3334H8.03664C8.28417 11.0942 9.76388 9.22639 11.7827 8.42304ZM19.9634 13.3334H17.3203C17.2472 11.472 16.8674 9.74707 16.2173 8.42304C18.2362 9.22639 19.7159 11.0942 19.9634 13.3334Z" fill="white"/>
</g>
</svg>
