<svg width="28" height="28" viewBox="0 0 28 28" fill="none" xmlns="http://www.w3.org/2000/svg">
<rect y="4" width="28" height="20" rx="2" fill="#009F60"/>
<mask id="mask0_17_3911" style="mask-type:alpha" maskUnits="userSpaceOnUse" x="0" y="4" width="28" height="20">
<rect y="4" width="28" height="20" rx="2" fill="white"/>
</mask>
<g mask="url(#mask0_17_3911)">
<rect x="24" y="14.6667" width="4" height="9.33333" fill="#EA8B42"/>
<path fill-rule="evenodd" clip-rule="evenodd" d="M20 24H24V14.6667H20V24Z" fill="#1A1919"/>
<path fill-rule="evenodd" clip-rule="evenodd" d="M16 24H20V14.6667H16V24Z" fill="#DB3C36"/>
<path fill-rule="evenodd" clip-rule="evenodd" d="M21.0141 7.48403C20.9222 7.48662 20.8547 7.45479 20.8305 7.40128C20.9803 7.31337 21.0816 7.33298 21.2073 7.44498C21.2315 7.35741 21.2073 7.25986 21.1542 7.20137C21.101 7.14287 21.0575 7.14287 20.9851 7.13788C20.9126 7.13307 20.8401 7.11363 20.7918 7.11363C20.721 6.95758 20.5435 7.02365 20.3731 7.08765C20.0961 7.19156 19.8472 7.38029 19.7354 7.56868C19.6843 7.65487 19.6782 7.68877 19.6468 7.73763C19.6727 7.73436 19.671 7.73436 19.6871 7.72455C19.6677 7.93909 19.642 8.13728 19.6806 8.26408C19.6324 8.44937 19.671 8.56636 19.7289 8.62485C19.787 8.68335 19.811 8.70778 19.8208 8.77608C19.8304 8.84421 19.8594 8.90752 19.9077 8.94657C19.956 8.98563 19.985 9.04412 19.9898 9.07836C19.9946 9.11242 20.1441 9.25935 20.2072 9.29771C20.2314 9.31216 20.2362 9.34158 20.2653 9.38047C20.2024 9.75105 20.4537 10.1216 20.3956 10.4872C20.4391 10.492 20.4971 10.4872 20.5552 10.4726C20.6034 10.7845 20.6323 10.9357 20.3618 11.0283C20.0913 11.121 19.9434 11.2122 20.0188 11.3159C20.0719 11.3891 20.182 11.3254 20.2507 11.2623C20.3039 11.2136 20.3666 11.1697 20.415 11.1551C20.4633 11.1405 20.4731 11.1551 20.4487 11.2184C20.4246 11.2819 20.2943 11.4183 20.2893 11.4866C20.2845 11.5549 20.3424 11.6036 20.4343 11.5499C20.526 11.4962 20.6068 11.3559 20.6275 11.2721C20.6419 11.2136 20.6663 11.1745 20.6613 11.2721C20.6565 11.3696 20.5986 11.5451 20.729 11.5744C20.8595 11.6036 20.8982 11.4476 20.8547 11.3061C20.8111 11.1649 20.7967 11.0868 20.8159 11.0381C20.8353 10.9892 20.8547 10.9602 20.9028 10.9746C20.9512 10.9892 21.0479 10.9698 21.0431 10.8919C21.0381 10.8139 20.9706 10.7504 20.8932 10.7943C20.8159 10.8382 20.758 10.8316 20.7918 10.7358C20.8159 10.6675 20.8595 10.5846 20.8643 10.5311C20.9174 10.609 21.2169 10.6188 21.3378 10.5457C21.3667 10.6919 21.444 10.8236 21.275 10.9602C21.1058 11.0966 20.9706 11.2282 20.9754 11.3258C20.9803 11.4233 21.0189 11.4816 21.1058 11.4329C21.1927 11.3842 21.2459 11.3159 21.2652 11.2526C21.2846 11.1892 21.3234 11.1892 21.304 11.2673C21.2846 11.3452 21.2508 11.4574 21.2652 11.5257C21.2798 11.5938 21.3861 11.5988 21.4295 11.5353C21.473 11.472 21.4632 11.3891 21.4536 11.3061C21.444 11.2232 21.4586 11.1356 21.4778 11.1014C21.4972 11.0673 21.5358 11.0185 21.5745 11.1112C21.6132 11.2038 21.6324 11.2769 21.7098 11.3013C21.7871 11.3258 21.845 11.2915 21.8306 11.199C21.816 11.1064 21.7146 11.0039 21.6132 10.9259C21.5118 10.848 21.5455 10.8089 21.5503 10.7358C21.5551 10.6627 21.5407 10.5311 21.5358 10.4726C21.6276 10.5409 21.7291 10.5311 21.7773 10.5311C21.8256 10.5311 21.905 10.5161 21.8256 10.4433C21.6662 10.2971 21.7194 10.2092 21.6083 10.102C21.4972 9.99483 21.3957 9.82898 21.3619 9.68773C21.328 9.54631 21.2536 9.28791 21.1058 9.15629C21.0237 9.08317 20.9995 8.88326 21.0189 8.6541C21.0381 8.42494 21.0431 8.17152 20.8353 8.05453C20.6275 7.93754 20.6323 7.83999 20.7 7.73763C20.7676 7.63526 20.8545 7.53513 20.9658 7.52791C20.9908 7.52636 21.0486 7.52154 21.072 7.50434C21.0616 7.49625 21.0446 7.48335 21.0141 7.48403Z" fill="#EA8B42"/>
<path fill-rule="evenodd" clip-rule="evenodd" d="M19.6629 8.01066C19.6578 8.10976 19.6602 8.19698 19.6806 8.26408C19.6324 8.44937 19.671 8.56636 19.7289 8.62486C19.787 8.68335 19.811 8.70778 19.8208 8.77608C19.8304 8.84421 19.8594 8.90752 19.9077 8.94658C19.9561 8.98563 19.985 9.04412 19.9898 9.07836C19.9946 9.11243 20.1441 9.25935 20.2072 9.29772C20.2314 9.31217 20.2362 9.34159 20.2653 9.38047C20.2391 9.53445 20.2667 9.68843 20.3044 9.84206C19.9629 10.128 19.6259 9.99311 19.7677 9.70064C19.4841 9.92808 18.9947 9.92172 19.1042 9.70064C18.6597 9.85668 18.5245 9.72662 18.5824 9.58365C18.2089 9.73316 18.0155 9.59019 18.0671 9.4861C17.7578 9.57058 17.5581 9.51862 17.5259 9.46666C17.4938 9.4147 17.571 9.29772 17.6419 9.23922C17.5002 9.29118 17.3649 9.29118 17.236 9.27174C17.1073 9.25212 17.1395 9.21307 17.1652 9.15458C17.1911 9.09608 17.2249 9.00352 17.3279 8.91251C17.0815 8.9612 16.7723 8.99544 16.5549 8.92215C16.5139 8.90838 16.4438 8.8929 16.4872 8.8492C16.5307 8.80533 16.6612 8.69797 16.8206 8.62967C16.4582 8.68335 15.7722 8.7224 15.579 8.50305C15.7674 8.54193 16.0089 8.464 16.1635 8.40068C15.5548 8.33238 14.7239 7.91311 14.7141 7.50365C14.8881 7.78632 15.1878 7.88387 15.4873 7.97161C15.0813 7.73264 14.9123 7.44498 14.8979 7.25488C15.1297 7.47922 15.4823 7.73264 15.8303 7.79131C15.5838 7.65969 15.2649 7.27449 15.178 7.00627C15.3568 7.16713 15.8157 7.42554 16.1298 7.50847C15.9124 7.3378 15.5598 6.93316 15.579 6.70898C15.6611 6.79191 15.8641 6.94778 16.2794 7.19157C16.695 7.43535 16.9204 7.41746 17.2634 7.49058C17.2007 7.4061 17.1443 7.29393 17.1395 7.26468C17.241 7.27931 17.3375 7.31836 17.6274 7.49866C17.9173 7.67913 18.5507 7.73436 18.9126 7.89367C19.1781 8.01066 19.5566 7.93754 19.6629 8.01066Z" fill="#EA8B42"/>
<path fill-rule="evenodd" clip-rule="evenodd" d="M21.8495 10.5144C21.8654 10.5017 21.8654 10.4797 21.8257 10.4434C21.6662 10.2971 21.7194 10.2092 21.6083 10.102C21.4972 9.99484 21.3957 9.82899 21.362 9.68774C21.328 9.54632 21.2536 9.28791 21.1058 9.1563C21.0237 9.08318 20.9996 8.88327 21.0189 8.6541C21.0354 8.45797 21.0414 8.24413 20.9125 8.1132C21.154 8.0449 21.3765 8.0301 21.4537 8.10804C21.8546 8.00567 22.2026 7.97471 22.544 7.95217C22.9369 7.92602 23.6776 7.75707 24.206 7.39957C24.1737 7.52963 23.9934 7.72456 23.8322 7.8221C24.3669 7.69204 25.0112 7.45152 25.5587 7.04206C25.5522 7.32817 25.3204 7.54253 25.185 7.6597C25.5587 7.45152 26.1061 7.19157 26.2929 6.86658C26.375 7.19965 25.8164 7.63527 25.5134 7.87578C25.8227 7.72628 26.2221 7.58813 26.3768 7.36705C26.3735 7.63681 26.0224 7.97161 25.6874 8.16653C26.0289 8.03664 26.409 7.90004 26.6279 7.69858C26.6536 7.97006 25.6069 8.59406 25.0883 8.76456C25.5393 8.6541 26.1254 8.5046 26.3831 8.34856C26.3702 8.40378 26.2652 8.4812 26.1887 8.53763C25.8736 8.77058 25.3904 8.89565 25.0948 8.95311C25.1336 9.1157 25.082 9.20671 24.9016 9.21961C24.7213 9.23268 24.2848 9.16284 24.0659 9.05221C24.0337 9.07165 23.9949 9.07836 23.9514 9.08318C24.164 9.24404 24.2365 9.36103 24.1929 9.42933C24.1496 9.49763 23.9973 9.48524 23.8814 9.46099C23.9732 9.71939 23.6663 9.70236 23.4104 9.55595C23.5118 9.68774 23.5264 9.79974 23.3862 9.82899C23.2461 9.85823 23.1349 9.8486 22.9996 9.76068C22.99 9.85823 22.8966 9.92327 22.7726 9.89075C23.1978 10.1492 23.1736 10.2434 23.1011 10.3408C23.0288 10.4384 22.775 10.4189 22.6398 10.3312C22.5818 10.5311 22.3508 10.5318 22.1783 10.3726C22.1768 10.4523 22.0122 10.6104 21.8495 10.5144Z" fill="#EA8B42"/>
<path fill-rule="evenodd" clip-rule="evenodd" d="M19.8772 11.4947C19.8842 11.4331 19.8901 11.3616 19.9415 11.316C19.9931 11.2704 20.0253 11.2315 20.0704 11.2769C20.1155 11.3225 20.0865 11.3648 20.0253 11.3843C19.9641 11.4037 19.9223 11.4589 19.9125 11.4947C19.9029 11.5305 19.8707 11.5499 19.8772 11.4947Z" fill="black"/>
<path fill-rule="evenodd" clip-rule="evenodd" d="M20.2281 11.7937C20.1962 11.6915 20.2122 11.5597 20.2475 11.5207C20.283 11.4816 20.3281 11.4557 20.3699 11.4947C20.4117 11.5338 20.4278 11.589 20.3505 11.6215C20.2821 11.6502 20.2765 11.7221 20.2734 11.7743C20.2701 11.8262 20.2475 11.8555 20.2281 11.7937Z" fill="black"/>
<path fill-rule="evenodd" clip-rule="evenodd" d="M20.6791 11.5305C20.6543 11.5723 20.6855 11.7418 20.7693 11.7839C20.8286 11.8138 20.8562 11.8068 20.8207 11.7514C20.7854 11.6962 20.7983 11.6442 20.8177 11.615C20.8369 11.5857 20.8338 11.5338 20.7918 11.5078C20.7499 11.4816 20.6983 11.498 20.6791 11.5305Z" fill="black"/>
<path fill-rule="evenodd" clip-rule="evenodd" d="M21.0431 11.3777C20.9899 11.3375 20.94 11.3858 20.9207 11.4199C20.8819 11.4882 20.9111 11.5857 20.9723 11.6409C21.0335 11.6962 21.0237 11.6215 21.0043 11.589C20.9851 11.5565 20.9819 11.4914 21.0237 11.4849C21.0655 11.4785 21.0947 11.4166 21.0431 11.3777Z" fill="black"/>
<path fill-rule="evenodd" clip-rule="evenodd" d="M21.3458 11.4882C21.294 11.4729 21.2428 11.5272 21.2491 11.5923C21.2539 11.6408 21.2589 11.7027 21.3071 11.7352C21.3395 11.7569 21.3619 11.771 21.3458 11.7125C21.3297 11.654 21.3556 11.6052 21.3844 11.589C21.4134 11.5728 21.4005 11.5045 21.3458 11.4882Z" fill="black"/>
<path fill-rule="evenodd" clip-rule="evenodd" d="M21.7742 11.2119C21.7367 11.2384 21.7387 11.2998 21.7742 11.3225C21.8095 11.3452 21.8611 11.3777 21.8515 11.4329C21.8418 11.4882 21.8707 11.5078 21.8966 11.446C21.9223 11.3843 21.9256 11.2932 21.8966 11.2509C21.8675 11.2086 21.8063 11.1892 21.7742 11.2119Z" fill="black"/>
<path fill-rule="evenodd" clip-rule="evenodd" d="M20.8403 7.39685C20.8627 7.44645 20.9269 7.47573 21.0138 7.47329L21.0139 7.47329C21.0415 7.47266 21.0583 7.48007 21.0784 7.51302C21.0572 7.52858 21.0172 7.5355 20.9665 7.53864C20.8742 7.54463 20.7935 7.61551 20.709 7.74358C20.6329 7.85861 20.6595 7.94322 20.8406 8.04515C21.0205 8.14645 21.0574 8.3229 21.0296 8.65501C21.0092 8.89632 21.0386 9.08204 21.113 9.14825C21.236 9.25785 21.3153 9.44723 21.3724 9.68523C21.405 9.82155 21.5036 9.98611 21.6157 10.0943C21.6421 10.1197 21.6609 10.1453 21.676 10.1746C21.6846 10.1914 21.6909 10.2066 21.7012 10.2338C21.7365 10.3279 21.7604 10.3689 21.8329 10.4354C21.8731 10.4723 21.8809 10.5029 21.8561 10.5229C21.8397 10.5361 21.8102 10.5418 21.7773 10.5418L21.7595 10.5421C21.6815 10.5435 21.6313 10.5371 21.5735 10.5084C21.565 10.5041 21.5567 10.4994 21.5485 10.4943L21.5534 10.5485C21.5555 10.5727 21.5572 10.5941 21.5586 10.6145C21.562 10.6657 21.563 10.7065 21.5611 10.7365C21.5603 10.7479 21.559 10.7578 21.5566 10.7734C21.5521 10.8022 21.5512 10.8101 21.5521 10.8227C21.5542 10.8534 21.5724 10.881 21.6198 10.9174C21.744 11.0129 21.8277 11.1116 21.8412 11.1973C21.8562 11.2936 21.7958 11.3398 21.7066 11.3116C21.652 11.2943 21.6238 11.2586 21.5914 11.1811C21.5896 11.1768 21.585 11.1653 21.5799 11.1528C21.574 11.1381 21.5675 11.1221 21.5647 11.1154C21.5489 11.0776 21.5345 11.0655 21.5219 11.0691C21.511 11.0722 21.4989 11.086 21.4872 11.1067C21.4673 11.1422 21.4557 11.23 21.4643 11.3049L21.4644 11.3057C21.4791 11.4324 21.4766 11.4858 21.4383 11.5414C21.3899 11.6123 21.2715 11.6059 21.2548 11.5279C21.2472 11.4918 21.2514 11.444 21.265 11.3806C21.2688 11.3632 21.2731 11.3451 21.2787 11.3229L21.2936 11.2647C21.3011 11.2346 21.299 11.2178 21.2972 11.2174C21.2942 11.2169 21.2831 11.231 21.2755 11.2558C21.2538 11.3267 21.1953 11.3952 21.1111 11.4423C21.0223 11.4921 20.9706 11.4415 20.9647 11.3263C20.9602 11.2345 21.0619 11.1183 21.2683 10.9518C21.3084 10.9194 21.3354 10.8865 21.3514 10.852C21.3803 10.7896 21.3761 10.7417 21.3443 10.6193C21.3377 10.5941 21.3337 10.5777 21.3303 10.5622C21.2082 10.6247 20.9528 10.6193 20.8716 10.5542C20.8661 10.5798 20.8541 10.6111 20.8301 10.6684L20.83 10.6687C20.815 10.7047 20.8085 10.7208 20.8019 10.7394C20.7875 10.7801 20.7906 10.8016 20.8049 10.8075C20.8205 10.8138 20.8509 10.806 20.888 10.785C20.9678 10.7397 21.0479 10.799 21.0538 10.8912C21.0585 10.9676 20.9694 11.006 20.8998 10.9849C20.8637 10.9741 20.8472 10.9884 20.8259 11.0421C20.8089 11.0853 20.8198 11.1564 20.8649 11.303C20.9153 11.4665 20.858 11.6143 20.7267 11.5849C20.6463 11.5668 20.6253 11.5031 20.6366 11.3916C20.6379 11.3778 20.6396 11.3646 20.6424 11.3439C20.6486 11.2989 20.6498 11.2886 20.6506 11.2715C20.6514 11.2558 20.6515 11.2434 20.6509 11.2345C20.6468 11.2441 20.6419 11.2586 20.638 11.2747C20.6132 11.3748 20.5251 11.5093 20.4398 11.5592C20.3481 11.6128 20.2727 11.5712 20.2787 11.4858C20.2809 11.4545 20.3033 11.4144 20.3494 11.3496L20.3622 11.3318C20.4207 11.251 20.4303 11.2368 20.4388 11.2145C20.46 11.1593 20.4569 11.1537 20.4181 11.1654C20.3745 11.1786 20.3143 11.2187 20.258 11.2702C20.1625 11.3579 20.0613 11.3926 20.0102 11.3223C19.9697 11.2666 19.9864 11.2117 20.0541 11.1595C20.1136 11.1135 20.2139 11.0677 20.3584 11.0181C20.5874 10.9398 20.6049 10.8644 20.5578 10.483C20.4997 10.4977 20.4402 10.503 20.385 10.4855C20.4087 10.3364 20.3902 10.2165 20.3194 9.94268C20.247 9.66253 20.228 9.53633 20.2568 9.38693C20.2493 9.37691 20.2429 9.36707 20.2364 9.35566L20.2225 9.33071C20.2153 9.31835 20.2095 9.31161 20.2017 9.30691C20.133 9.26516 19.9845 9.11683 19.9792 9.07986C19.974 9.04254 19.9424 8.98837 19.901 8.95495C19.8524 8.91566 19.8206 8.85164 19.8102 8.77761C19.8019 8.71981 19.7897 8.70125 19.7213 8.63244C19.6499 8.56028 19.6263 8.4305 19.6703 8.26722C19.6406 8.16932 19.6433 8.07505 19.6711 7.7809L19.6746 7.74355C19.6714 7.74466 19.668 7.74545 19.6635 7.7462L19.6482 7.7483L19.6378 7.7318C19.6442 7.72186 19.6498 7.71216 19.6553 7.70153C19.6576 7.69699 19.6588 7.6947 19.6599 7.6924C19.6611 7.69007 19.6622 7.68772 19.6645 7.68298C19.6626 7.68701 19.6817 7.64609 19.6883 7.63283C19.6994 7.61048 19.7113 7.58835 19.7262 7.56318C19.8398 7.37187 20.0912 7.18195 20.3694 7.07758C20.6331 6.97855 20.739 6.97142 20.7918 7.10288C20.8151 7.10288 20.8269 7.1045 20.8954 7.11568C20.9346 7.12207 20.9597 7.12542 20.9859 7.12716L21.0024 7.12827C21.0642 7.13245 21.0901 7.13797 21.1214 7.15847C21.1351 7.16747 21.1485 7.17914 21.1621 7.19413C21.2191 7.2569 21.2422 7.35882 21.2177 7.44785L21.2002 7.45302C21.0738 7.34038 20.9773 7.3276 20.8403 7.39685ZM21.0655 7.51286C21.0487 7.49983 21.0362 7.4943 21.0144 7.49479L21.0144 7.49479C20.9197 7.49745 20.8473 7.46441 20.8251 7.392C20.9697 7.30717 21.0741 7.31747 21.201 7.42525C21.1999 7.43092 21.1985 7.43654 21.197 7.44211L21.2145 7.43694C21.2099 7.43293 21.2055 7.42903 21.201 7.42525C21.2166 7.34749 21.1948 7.26197 21.1463 7.20862C21.1338 7.19492 21.1218 7.18444 21.1097 7.17648C21.0823 7.15859 21.0593 7.15367 21.001 7.14973L20.9845 7.14862C20.9575 7.14682 20.9318 7.1434 20.892 7.13691C20.8795 7.13488 20.869 7.13317 20.8599 7.1317C20.8201 7.12524 20.8075 7.12321 20.782 7.11809C20.7268 6.99628 20.6296 7.00281 20.3769 7.09772C20.1029 7.20049 19.8554 7.38745 19.7447 7.57418C19.73 7.59887 19.7183 7.62053 19.7075 7.6424C19.701 7.65542 19.682 7.6961 19.6838 7.69227C19.6815 7.69709 19.6803 7.6995 19.6791 7.7019C19.6779 7.7043 19.6767 7.70668 19.6743 7.71146C19.6722 7.71542 19.6702 7.71926 19.6681 7.72304C19.6661 7.7238 19.6638 7.72436 19.66 7.72497L19.6455 7.72696L19.6558 7.74345C19.6602 7.73665 19.6642 7.72995 19.6681 7.72304C19.6685 7.72289 19.6688 7.72273 19.6692 7.72256C19.6714 7.72156 19.6734 7.7204 19.6816 7.71536L19.6978 7.72552L19.6925 7.78293C19.665 8.07337 19.6623 8.16701 19.691 8.2668C19.6488 8.42911 19.6709 8.55106 19.7365 8.61726C19.8079 8.68907 19.8223 8.71101 19.8314 8.77458C19.8412 8.84357 19.8704 8.90263 19.9145 8.9382C19.96 8.97498 19.9945 9.03403 20.0005 9.07685C20.0045 9.10531 20.1493 9.24992 20.2127 9.28848C20.2242 9.29534 20.2321 9.30462 20.241 9.31982C20.2424 9.32226 20.2461 9.32895 20.2494 9.33493C20.2518 9.3393 20.2541 9.3433 20.255 9.34496C20.2566 9.34777 20.2582 9.35048 20.2598 9.35326C20.2644 9.36103 20.2693 9.36937 20.2759 9.38227C20.2498 9.5359 20.2685 9.66009 20.3402 9.93728C20.4117 10.2141 20.4305 10.3358 20.3968 10.4765C20.4365 10.4809 20.4879 10.477 20.5497 10.4722C20.555 10.4718 20.5604 10.4714 20.5658 10.471C20.6275 10.8704 20.6077 10.9555 20.3653 11.0385C20.2229 11.0873 20.1244 11.1324 20.0671 11.1765C20.0078 11.2223 19.9948 11.2647 20.0275 11.3096C20.0676 11.3648 20.1565 11.3343 20.2435 11.2543C20.302 11.2008 20.3646 11.1591 20.4119 11.1448C20.4712 11.1269 20.4855 11.1526 20.4588 11.2222C20.4493 11.2472 20.4401 11.2608 20.3796 11.3445L20.3669 11.3621C20.3234 11.4233 20.3019 11.4616 20.3 11.4874C20.2953 11.5548 20.3516 11.5858 20.429 11.5406C20.5089 11.4939 20.5937 11.3644 20.6172 11.2695C20.6253 11.2365 20.6355 11.2115 20.6458 11.2046C20.6584 11.1962 20.6677 11.2056 20.6707 11.2206C20.6728 11.2313 20.6733 11.2485 20.672 11.2726C20.6712 11.2906 20.6699 11.301 20.6636 11.3469C20.6609 11.3672 20.6592 11.3802 20.6579 11.3937C20.6476 11.4957 20.6652 11.549 20.7314 11.5639C20.841 11.5884 20.8908 11.4598 20.8445 11.3093C20.7978 11.1578 20.7864 11.0838 20.806 11.0341C20.8309 10.9714 20.8562 10.9494 20.906 10.9643C20.9634 10.9817 21.036 10.9504 21.0324 10.8926C21.0275 10.8148 20.9631 10.7671 20.8986 10.8037C20.8563 10.8277 20.8202 10.837 20.7968 10.8274C20.7687 10.816 20.764 10.7824 20.7817 10.7322C20.7885 10.713 20.7951 10.6968 20.8103 10.6604L20.8104 10.6601C20.8405 10.5881 20.8511 10.5583 20.8536 10.5301L20.8732 10.525C20.9226 10.5976 21.216 10.6069 21.3323 10.5365L21.3483 10.5436C21.3523 10.5636 21.3565 10.5813 21.365 10.6139C21.3981 10.7411 21.4026 10.7925 21.3708 10.8611C21.3533 10.8987 21.3243 10.9342 21.2818 10.9685C21.0815 11.13 20.9821 11.2437 20.9861 11.3252C20.9913 11.4268 21.029 11.4637 21.1006 11.4236C21.1802 11.379 21.235 11.3148 21.255 11.2495C21.2655 11.2151 21.283 11.1929 21.3012 11.1963C21.3212 11.2001 21.3247 11.2285 21.3144 11.2699L21.2995 11.3282C21.2939 11.3502 21.2897 11.368 21.286 11.3852C21.273 11.4458 21.2689 11.4911 21.2758 11.5234C21.2881 11.5809 21.3819 11.586 21.4207 11.5292C21.4548 11.4796 21.4572 11.4295 21.4431 11.3082L21.443 11.3074C21.4339 11.2284 21.4461 11.1361 21.4685 11.0961C21.483 11.0707 21.498 11.0536 21.516 11.0484C21.5419 11.041 21.565 11.0605 21.5844 11.1071C21.5873 11.114 21.5939 11.1302 21.5999 11.145C21.6049 11.1573 21.6095 11.1686 21.6112 11.1728C21.6414 11.245 21.666 11.2762 21.713 11.2911C21.7877 11.3147 21.8325 11.2805 21.8201 11.2006C21.8077 11.1221 21.7268 11.0268 21.6068 10.9345C21.5549 10.8946 21.5333 10.8619 21.5307 10.8241C21.5297 10.8093 21.5306 10.8007 21.5354 10.7701C21.5378 10.7551 21.539 10.7457 21.5397 10.7351C21.5416 10.7063 21.5406 10.6662 21.5372 10.6159C21.5359 10.5957 21.5342 10.5744 21.5321 10.5504L21.5251 10.4735L21.5422 10.464C21.5553 10.4737 21.5689 10.482 21.5831 10.4891C21.6369 10.5159 21.6843 10.522 21.7591 10.5206L21.7773 10.5203C21.8056 10.5203 21.8312 10.5153 21.8427 10.5061C21.8544 10.4967 21.8503 10.4805 21.8185 10.4513C21.743 10.3821 21.7176 10.3383 21.6811 10.2414C21.6712 10.2149 21.6651 10.2003 21.6569 10.1844C21.6429 10.1572 21.6255 10.1335 21.6009 10.1098C21.4859 9.99887 21.3851 9.83073 21.3516 9.69025C21.2954 9.45637 21.2175 9.27007 21.0987 9.16434C21.0176 9.09205 20.9873 8.90093 21.0083 8.6532C21.0354 8.32902 20.9999 8.15954 20.8301 8.06391C20.6387 7.95616 20.6078 7.85775 20.6911 7.73169C20.779 7.59848 20.8641 7.52374 20.9651 7.51718C20.9797 7.51628 20.9934 7.515 21.0059 7.51384C21.033 7.51133 21.0544 7.50935 21.0655 7.51286Z" fill="black"/>
<path fill-rule="evenodd" clip-rule="evenodd" d="M19.402 7.95984C19.5671 7.96567 19.6272 7.97308 19.669 8.0018L19.6736 8.01123C19.6679 8.12153 19.6726 8.20091 19.691 8.26681C19.6488 8.42913 19.671 8.55107 19.7365 8.61727C19.8079 8.68908 19.8223 8.71102 19.8314 8.77459C19.8412 8.84358 19.8704 8.90264 19.9145 8.93821C19.96 8.97499 19.9945 9.03404 20.0005 9.07687C20.0045 9.10533 20.1493 9.24993 20.2127 9.28849C20.2242 9.29535 20.2321 9.30463 20.241 9.31983C20.2424 9.32228 20.2461 9.32896 20.2494 9.33494C20.2519 9.33932 20.2541 9.34331 20.255 9.34497C20.2566 9.34778 20.2582 9.35049 20.2598 9.35326C20.2644 9.36103 20.2693 9.36938 20.2759 9.38229C20.2533 9.51489 20.2677 9.64737 20.3113 9.85033C20.1497 9.98566 19.975 10.0375 19.8516 9.99852C19.7398 9.96315 19.6958 9.86079 19.7422 9.73326C19.6106 9.82619 19.4359 9.88041 19.2885 9.8796C19.1367 9.87876 19.051 9.81809 19.0851 9.71859C18.7184 9.84173 18.5144 9.77199 18.5646 9.60207C18.2611 9.71527 18.0096 9.63675 18.0493 9.50194C17.7888 9.56879 17.562 9.54519 17.5168 9.47233C17.4887 9.42672 17.5324 9.33457 17.5989 9.26474C17.4838 9.29855 17.3664 9.30228 17.2344 9.28238C17.1723 9.27291 17.1415 9.2583 17.1332 9.2334C17.1269 9.21441 17.1289 9.20866 17.1525 9.15685L17.1554 9.15022C17.1554 9.1504 17.1709 9.11451 17.1762 9.10279C17.1856 9.08226 17.1948 9.06401 17.2052 9.04583C17.2289 9.0044 17.2575 8.96625 17.2936 8.93008C16.9922 8.98648 16.7351 8.99423 16.5515 8.93235L16.524 8.92349C16.4984 8.91499 16.4827 8.90757 16.4726 8.89709C16.4575 8.88132 16.4598 8.86158 16.4796 8.84162C16.5383 8.78257 16.6419 8.70667 16.7521 8.65014C16.229 8.71907 15.7285 8.689 15.571 8.51018L15.5812 8.49253C15.7279 8.52282 15.9167 8.48532 16.1206 8.40625C15.4528 8.31707 14.7125 7.88211 14.7034 7.50392L14.7233 7.49801C14.8587 7.71809 15.0395 7.82282 15.412 7.93778C15.0896 7.72924 14.9035 7.47016 14.8872 7.2557L14.9054 7.24715C15.1687 7.5021 15.4825 7.70117 15.7706 7.76834C15.532 7.6131 15.2495 7.26169 15.1678 7.00961L15.1852 6.99828C15.3672 7.16205 15.7895 7.39337 16.0822 7.48364C15.8157 7.25978 15.5521 6.89805 15.5683 6.70807L15.5866 6.70142C15.6884 6.80424 15.9221 6.96939 16.2849 7.18229C16.5096 7.31415 16.6809 7.3747 16.9065 7.41637C16.9384 7.42227 16.9692 7.42753 17.0178 7.43549C17.1377 7.45514 17.1819 7.46269 17.2387 7.4744C17.1861 7.39837 17.1343 7.2991 17.1289 7.26644L17.141 7.25405C17.2537 7.27029 17.3615 7.32063 17.633 7.48954C17.7639 7.571 17.9239 7.61887 18.312 7.70917L18.3299 7.71334C18.6432 7.78624 18.7824 7.82461 18.9169 7.88384C18.9871 7.91476 19.0691 7.9341 19.1669 7.94536C19.2331 7.95298 19.2809 7.95557 19.402 7.95984ZM19.6519 8.01633C19.652 8.01427 19.6521 8.0122 19.6522 8.01011L19.6569 8.01954C19.6553 8.01844 19.6536 8.01737 19.6519 8.01633ZM15.6108 8.51936C15.7668 8.54046 15.9605 8.49544 16.1676 8.41065L16.1648 8.39001C15.5216 8.31785 14.7924 7.90842 14.7292 7.54668C14.8753 7.76154 15.0763 7.86243 15.4843 7.98194L15.4927 7.96234C15.1484 7.75969 14.9436 7.49933 14.9118 7.28308C15.1926 7.54898 15.5268 7.75106 15.8285 7.80192L15.8353 7.78183C15.6033 7.65796 15.3039 7.30438 15.2017 7.04084C15.4117 7.21434 15.8459 7.44464 16.1271 7.51888L16.1364 7.50001C15.8732 7.29333 15.5967 6.93074 15.5892 6.73391C15.7004 6.83896 15.9294 6.99856 16.274 7.20086C16.5011 7.33404 16.6747 7.39542 16.9026 7.43752C16.9347 7.44345 16.9657 7.44873 17.0144 7.45672C17.1521 7.47928 17.1896 7.48584 17.2612 7.50111L17.272 7.48416C17.2231 7.41827 17.17 7.32194 17.1543 7.27796C17.2579 7.29627 17.366 7.34875 17.6218 7.50781C17.7555 7.59105 17.9163 7.63919 18.3071 7.73012L18.325 7.73429C18.6369 7.80686 18.7754 7.84504 18.9083 7.90353C18.9807 7.93543 19.0647 7.95524 19.1644 7.96673C19.2314 7.97444 19.2795 7.97704 19.4012 7.98134C19.5537 7.98672 19.6148 7.99366 19.6519 8.01633C19.6466 8.12572 19.6516 8.2054 19.6704 8.26723C19.6263 8.43052 19.6499 8.56029 19.7213 8.63245C19.7897 8.70126 19.802 8.71982 19.8102 8.77762C19.8207 8.85165 19.8524 8.91567 19.901 8.95496C19.9424 8.98838 19.974 9.04256 19.9792 9.07987C19.9845 9.11684 20.133 9.26517 20.2017 9.30692C20.2095 9.31163 20.2153 9.31837 20.2225 9.33072L20.2364 9.35567C20.2429 9.36708 20.2493 9.37692 20.2568 9.38694C20.2316 9.51484 20.2462 9.64989 20.294 9.84464C20.1411 9.96484 19.9737 10.0146 19.8581 9.97801C19.7487 9.94344 19.7126 9.83877 19.7773 9.70536L19.761 9.69225C19.6307 9.79675 19.4436 9.85895 19.2886 9.85809C19.1388 9.85727 19.0672 9.79955 19.1138 9.70544L19.1007 9.6905C18.7177 9.82497 18.5255 9.75272 18.5924 9.58771L18.5785 9.57367C18.2644 9.69938 18.0153 9.61484 18.0767 9.4909L18.0643 9.47574C17.8034 9.547 17.5747 9.52495 17.535 9.46099C17.5099 9.42036 17.5709 9.31175 17.6488 9.24754L17.6383 9.22913C17.5116 9.27555 17.3841 9.28321 17.2376 9.26111C17.1829 9.25278 17.1583 9.24113 17.1535 9.22661C17.1499 9.21569 17.152 9.20966 17.172 9.1658L17.175 9.15893C17.2297 9.0354 17.25 8.99996 17.3222 8.93226L17.335 8.92059L17.3258 8.90197C17.0121 8.96397 16.7448 8.97481 16.5584 8.91196L16.5308 8.90307C16.5085 8.89567 16.4949 8.88926 16.4881 8.88219C16.4819 8.87566 16.4826 8.8691 16.4948 8.8568C16.5629 8.78821 16.6947 8.69534 16.8249 8.63957L16.8191 8.61905C16.3038 8.69536 15.7931 8.6767 15.6108 8.51936ZM15.6108 8.51936C15.6021 8.51187 15.5942 8.50406 15.587 8.49594L15.5768 8.51359C15.5879 8.51588 15.5993 8.51781 15.6108 8.51936ZM17.1543 7.27796C17.1522 7.27188 17.1507 7.26681 17.1501 7.26295L17.138 7.27534C17.1434 7.27612 17.1489 7.27699 17.1543 7.27796ZM15.5892 6.73391C15.5889 6.72561 15.589 6.7176 15.5897 6.70992L15.5714 6.71658C15.5769 6.72218 15.5829 6.72796 15.5892 6.73391ZM15.2017 7.04084C15.1967 7.02799 15.1922 7.01535 15.1882 7.00296L15.1709 7.01429C15.1805 7.02297 15.1908 7.03183 15.2017 7.04084ZM14.9118 7.28308C14.9104 7.27332 14.9093 7.26365 14.9086 7.25407L14.8905 7.26263C14.8976 7.26949 14.9047 7.2763 14.9118 7.28308ZM14.7292 7.54668C14.7267 7.53217 14.7252 7.51774 14.7249 7.5034L14.705 7.50931C14.7129 7.52215 14.721 7.53459 14.7292 7.54668Z" fill="black"/>
<path fill-rule="evenodd" clip-rule="evenodd" d="M21.8441 10.5237L21.8429 10.506C21.8546 10.4967 21.8504 10.4804 21.8185 10.4513C21.743 10.3821 21.7176 10.3384 21.6812 10.2414C21.6712 10.2149 21.6651 10.2003 21.657 10.1844C21.643 10.1572 21.6255 10.1335 21.6009 10.1098C21.486 9.99887 21.3852 9.83074 21.3516 9.69026C21.2954 9.45637 21.2175 9.27008 21.0988 9.16434C21.0176 9.09206 20.9873 8.90093 21.0083 8.6532C21.0108 8.62275 21.0129 8.5938 21.0143 8.56624L21.0212 8.56995L21.021 8.57076L21.0222 8.57052L21.0352 8.57719C21.0338 8.60203 21.0319 8.62795 21.0296 8.65502C21.0092 8.89633 21.0386 9.08204 21.113 9.14826C21.236 9.25785 21.3153 9.44723 21.3724 9.68523C21.405 9.82156 21.5037 9.98612 21.6158 10.0943C21.6421 10.1197 21.6609 10.1453 21.676 10.1746C21.6847 10.1914 21.691 10.2066 21.7012 10.2338C21.7366 10.3279 21.7604 10.3689 21.8329 10.4354C21.8661 10.4657 21.8773 10.4919 21.8663 10.5113C21.8625 10.5094 21.8587 10.5073 21.855 10.5051L21.8562 10.5228C21.8606 10.5193 21.864 10.5155 21.8663 10.5113C21.9963 10.5763 22.1657 10.4706 22.1676 10.3724L22.1856 10.3647C22.3597 10.5254 22.5762 10.5122 22.6295 10.3282L22.6456 10.3222C22.7842 10.4121 23.0276 10.422 23.0926 10.3344C23.182 10.2143 23.1294 10.1201 22.7671 9.89995L22.7754 9.88035C22.8886 9.91004 22.9796 9.85459 22.989 9.75963L23.0055 9.75166C23.1304 9.83284 23.236 9.84938 23.384 9.81846C23.5054 9.79314 23.5078 9.69997 23.4019 9.56253L23.4157 9.54661C23.5428 9.61935 23.6812 9.659 23.7752 9.64958C23.8745 9.63964 23.9118 9.57858 23.8714 9.4646L23.8837 9.45046C24.0323 9.48157 24.1502 9.47667 24.1839 9.42354C24.2246 9.35971 24.1462 9.24405 23.945 9.09177L23.9502 9.07249C24.0028 9.06668 24.0338 9.05906 24.0708 9.04261C24.2698 9.14319 24.7001 9.22344 24.9009 9.20889C25.0688 9.19687 25.1231 9.1177 25.0928 8.94256C25.5236 8.85879 25.92 8.72294 26.1824 8.52897C26.2108 8.50798 26.2236 8.49849 26.2398 8.48604C26.2628 8.46831 26.2824 8.45242 26.2996 8.43735C26.326 8.41407 26.3458 8.39333 26.3583 8.37544C26.3688 8.36957 26.3789 8.36368 26.3887 8.35776L26.3727 8.34611C26.3707 8.3548 26.3658 8.36459 26.3583 8.37544C26.1374 8.49888 25.7514 8.61326 25.0909 8.775L25.085 8.75434C25.6715 8.5615 26.5795 7.9743 26.6165 7.72327C26.6228 7.71773 26.6291 7.71214 26.6352 7.70651L26.6173 7.6996C26.618 7.70711 26.6177 7.715 26.6165 7.72327C26.4644 7.85621 26.25 7.962 25.8921 8.10014C25.8621 8.11172 25.8313 8.12348 25.7911 8.13872L25.6913 8.17659L25.6821 8.15724C26.0429 7.94729 26.3337 7.63913 26.3636 7.40253C26.3713 7.39295 26.3786 7.38319 26.3856 7.37323L26.3661 7.36692C26.3659 7.37859 26.3651 7.39047 26.3636 7.40253C26.2637 7.52671 26.0985 7.62234 25.7807 7.76549L25.7708 7.76991C25.7421 7.78279 25.6596 7.81981 25.633 7.83189C25.589 7.85189 25.5522 7.86899 25.5181 7.88547L25.5068 7.86735C25.6656 7.74127 25.7209 7.69641 25.8073 7.6211C25.97 7.47931 26.094 7.35059 26.1775 7.22906C26.2627 7.10502 26.3014 6.99361 26.2877 6.89604C26.2928 6.88804 26.2976 6.88001 26.3022 6.87195L26.2826 6.86916C26.2847 6.878 26.2865 6.88696 26.2877 6.89604C26.1723 7.07915 25.949 7.247 25.5915 7.44916C25.5348 7.48122 25.3927 7.55864 25.2928 7.61305C25.2423 7.64056 25.2026 7.66219 25.1902 7.6691L25.178 7.65155C25.4059 7.45445 25.5342 7.28183 25.5471 7.06408L25.5651 7.05069L25.548 7.04182C25.5479 7.04929 25.5475 7.05671 25.5471 7.06408C25.0596 7.42406 24.4614 7.68014 23.8348 7.83256L23.829 7.81841L23.8267 7.8129C23.9794 7.72051 24.1394 7.54792 24.1865 7.42547L24.212 7.40848L24.1956 7.39697C24.1933 7.4061 24.1903 7.41562 24.1865 7.42547C23.7274 7.72669 23.0445 7.92964 22.5447 7.9629C22.0925 7.99276 21.7998 8.03079 21.4461 8.11562C21.3787 8.04752 21.1799 8.05115 20.9325 8.1188C20.9285 8.11435 20.9244 8.10997 20.9201 8.10565L20.9154 8.12355L20.9325 8.1188C21.0185 8.21463 21.0447 8.34145 21.0368 8.54207L21.0169 8.54601L21.0145 8.56152C21.0252 8.34534 20.9984 8.21569 20.9049 8.12076L20.9096 8.10285C21.1723 8.02856 21.3846 8.02301 21.4511 8.09762C21.796 8.00956 22.0899 7.97138 22.5433 7.94144C23.0489 7.90779 23.7444 7.69891 24.2 7.39065L24.2164 7.40216C24.1877 7.51784 24.0424 7.68853 23.8906 7.7965C24.5001 7.64119 25.0798 7.38682 25.5523 7.03344L25.5694 7.04231C25.5646 7.25485 25.4573 7.42314 25.2613 7.60576L25.2829 7.59397L25.283 7.59392L25.2833 7.59378C25.3831 7.53939 25.5245 7.46233 25.5809 7.43043C25.9508 7.22127 26.1755 7.04937 26.2837 6.86121L26.3034 6.864C26.3307 6.97494 26.2914 7.10111 26.1951 7.24126C26.1105 7.36457 25.9853 7.49447 25.8214 7.63734C25.7492 7.70024 25.6987 7.74194 25.5922 7.8269L25.6241 7.8123C25.6507 7.80022 25.733 7.76334 25.7618 7.75038L25.7719 7.74587C26.1105 7.59337 26.2739 7.49545 26.368 7.36088L26.3875 7.36718C26.3847 7.5963 26.1279 7.89557 25.7891 8.11647L25.8844 8.08007C26.2548 7.93712 26.4702 7.82918 26.6207 7.69066L26.6386 7.69756C26.6602 7.9252 25.8762 8.45988 25.2705 8.70828C25.846 8.56341 26.1849 8.45607 26.3776 8.33935L26.3936 8.35101C26.3869 8.37982 26.3594 8.41327 26.3137 8.45352C26.2962 8.46895 26.2762 8.48512 26.2528 8.50311C26.2364 8.51568 26.2236 8.52522 26.1951 8.54629C25.9295 8.74261 25.5306 8.87935 25.1053 8.95062C25.1469 9.12531 25.0839 9.21735 24.9024 9.23034C24.6979 9.24516 24.2637 9.16419 24.0715 9.06143C24.0465 9.07647 24.0191 9.0847 23.9787 9.09057C24.1733 9.24175 24.25 9.35981 24.202 9.43511C24.1628 9.4969 24.0465 9.50405 23.8974 9.47516C23.9321 9.59141 23.8852 9.66018 23.7774 9.67098C23.6886 9.67987 23.5649 9.648 23.4462 9.58749C23.5313 9.71648 23.5176 9.81257 23.3884 9.83952C23.2406 9.87038 23.1318 9.8553 23.0078 9.77861C22.9915 9.8617 22.9178 9.91408 22.8237 9.90957C23.1546 10.1164 23.205 10.2193 23.1097 10.3472C23.0385 10.4433 22.7943 10.436 22.6459 10.3476C22.5827 10.5315 22.3642 10.5462 22.1865 10.3943C22.1629 10.5038 21.9809 10.6044 21.8441 10.5237ZM21.5108 8.50628C21.516 8.49227 21.5199 8.47712 21.5224 8.4608L21.5098 8.44863L21.0368 8.54207L21.0361 8.55675L21.0241 8.55011L21.0212 8.56995L21.0222 8.57052L21.0356 8.56778L21.0352 8.57719C21.219 8.66943 21.4221 8.6641 21.4963 8.53704C21.6573 8.62451 21.9117 8.58165 21.9937 8.45906C22.2246 8.54263 22.4403 8.49245 22.4788 8.28064L22.4648 8.26853L22.0116 8.42396C22.018 8.40589 22.021 8.3865 22.02 8.36591L21.5108 8.50628ZM21.5061 8.5179C21.5078 8.51411 21.5094 8.51024 21.5108 8.50628L21.4894 8.5122L21.487 8.53177L21.4963 8.53704L21.4994 8.53163L21.5205 8.52525C21.6721 8.59779 21.9002 8.5566 21.982 8.45468L21.9937 8.45906C21.9955 8.45643 21.9972 8.45377 21.9988 8.45107L22.0176 8.44461C22.2241 8.51373 22.4106 8.4699 22.4538 8.29502L22.4717 8.28888L22.4577 8.27678C22.4565 8.28301 22.4552 8.28909 22.4538 8.29502L22.0176 8.44461C22.0133 8.44317 22.009 8.44169 22.0047 8.44015C22.0073 8.43488 22.0096 8.42948 22.0116 8.42396L21.9991 8.42824C22.0072 8.41219 22.0118 8.39497 22.0124 8.37675L21.5205 8.52525C21.5156 8.52292 21.5108 8.52047 21.5061 8.5179ZM21.9946 8.43647C21.998 8.43772 22.0013 8.43895 22.0047 8.44015C22.0029 8.44385 22.0009 8.44749 21.9988 8.45107L21.9886 8.45456L21.9888 8.44558C21.9908 8.44259 21.9928 8.43955 21.9946 8.43647ZM21.9946 8.43647C21.9927 8.43577 21.9908 8.43506 21.9889 8.43434L21.9888 8.44558C21.9866 8.44867 21.9844 8.4517 21.982 8.45468L21.9813 8.45444L21.9817 8.43421L21.9991 8.42824C21.9977 8.43102 21.9962 8.43376 21.9946 8.43647ZM21.5061 8.5179C21.504 8.52262 21.5018 8.52719 21.4994 8.53163L21.4955 8.53279L21.4979 8.51322L21.5061 8.5179ZM21.0512 8.5646L21.0356 8.56778L21.0361 8.55675L21.0512 8.5646ZM21.4984 8.47331C21.4615 8.64191 21.2477 8.66368 21.0512 8.5646L21.4984 8.47331ZM21.4984 8.47331C21.4995 8.4682 21.5004 8.46295 21.5012 8.45757L21.5139 8.47014L21.4984 8.47331ZM23.8287 7.81851L22.8628 8.13032L22.8679 8.15116C22.9702 8.13401 23.1311 8.08661 23.345 8.01369C23.3746 8.00362 23.4051 7.99308 23.4367 7.98204C23.5431 7.94481 23.8464 7.83504 23.8359 7.83878L23.829 7.81841L23.8289 7.81843L23.8287 7.81851ZM23.8287 7.81851C23.8189 7.82212 23.5324 7.9258 23.4296 7.96173C23.3981 7.97276 23.3676 7.98327 23.3381 7.99333C23.1253 8.06588 22.9651 8.11305 22.8643 8.12995L22.8694 8.15079L23.8356 7.83888L23.8287 7.81851ZM21.0145 8.56152L21.0143 8.56624L21.0138 8.566L21.0145 8.56152ZM17.2499 7.49341C17.3181 7.59297 17.4973 7.73894 17.6101 7.77444C17.6183 7.85347 17.6517 7.93003 17.7078 7.99175L17.1975 7.82804L17.1839 7.84106C17.1958 7.88566 17.2159 7.92494 17.242 7.95847L16.8905 7.81595C16.9196 7.8165 16.9515 7.81453 16.9863 7.80988L16.9921 7.79125L16.9103 7.71704L17.2499 7.49341ZM16.8793 7.56865L17.2499 7.49341L17.2652 7.47877L17.6082 7.74228L17.6085 7.75124C17.5901 7.74478 17.5701 7.73543 17.549 7.7239L17.3334 7.55822C17.3065 7.53125 17.2837 7.5048 17.2675 7.48121L17.2522 7.49585L17.3334 7.55822C17.3949 7.62004 17.4774 7.68463 17.549 7.7239L17.6098 7.77054L17.6101 7.77444L17.6199 7.77728L17.6291 7.75834L17.6082 7.74228C17.6081 7.73401 17.6082 7.72574 17.6087 7.71747L17.6241 7.70835L18.3971 8.08576C18.3977 8.09067 18.3986 8.09553 18.3998 8.10035L18.3853 8.10395L17.6296 7.73498C17.6296 7.72951 17.6298 7.72404 17.6301 7.71857L17.6147 7.72769L17.6296 7.73498C17.629 7.88561 17.7262 8.03492 17.9027 8.08811C18.0592 8.13526 18.2127 8.14111 18.3424 8.11588C18.3093 8.12581 18.2763 8.13736 18.244 8.15017C18.1358 8.15735 18.017 8.145 17.8966 8.10871C17.8367 8.09067 17.7854 8.06208 17.7435 8.02629L17.7485 8.0223L17.745 8.00369L17.7078 7.99175C17.714 7.99858 17.7205 8.00522 17.7273 8.01166L17.7188 8.01785L17.2104 7.85475C17.2083 7.84845 17.2063 7.84204 17.2046 7.8355L17.191 7.84852L17.2104 7.85475C17.2324 7.92014 17.274 7.97222 17.3261 8.00925L17.277 7.99681L17.2765 7.9964L17.2812 7.99497L17.2821 7.97472L17.242 7.95847C17.2475 7.9656 17.2534 7.97246 17.2594 7.97906L17.2454 7.98306L16.8263 7.8131L16.8276 7.8101C16.8468 7.81355 16.8678 7.81552 16.8905 7.81595L16.8247 7.78926L16.811 7.79466L16.8062 7.80551C16.799 7.80368 16.792 7.8016 16.7854 7.7993L16.8086 7.78401C16.8487 7.79474 16.8991 7.79757 16.9602 7.79132L16.9777 7.8072L16.9835 7.78857C16.9756 7.78963 16.9678 7.79054 16.9602 7.79132L16.8918 7.72923L16.9103 7.71704L16.7709 7.59065L16.8272 7.57922C16.8428 7.58168 16.8584 7.58385 16.8741 7.58573L16.8793 7.56865ZM16.8751 7.56951L16.8793 7.56865L16.8803 7.56549L15.9043 7.06175L15.8921 7.07912C16.1255 7.30093 16.3966 7.47039 16.682 7.54802C16.6734 7.56747 16.6678 7.58942 16.6658 7.612L16.5353 7.63849L16.1286 7.49352L16.1182 7.51196C16.1949 7.57534 16.2994 7.62211 16.4327 7.65933L15.8334 7.78101L15.8333 7.78098L15.8273 7.8023L15.8274 7.80233L16.2246 7.92557C16.2207 7.96295 16.2422 8.00503 16.2923 8.04363C16.31 8.05721 16.3311 8.0702 16.3551 8.08261C16.3043 8.10698 16.2852 8.14681 16.2959 8.18946L15.4902 7.96126L15.4816 7.98069C15.6892 8.11283 15.9489 8.18337 16.3062 8.21574C16.3159 8.23407 16.3308 8.25245 16.351 8.2699C16.3268 8.29812 16.3174 8.32985 16.321 8.36217C16.273 8.36064 16.2044 8.37286 16.1596 8.39167L16.1652 8.41295L16.3263 8.3869C16.336 8.41789 16.3572 8.44872 16.3884 8.47682C16.6479 8.71161 17.2884 8.70709 17.8943 8.49617C17.908 8.52678 17.9433 8.54783 17.9998 8.56365C18.0227 8.57009 18.0459 8.57558 18.0695 8.58014L17.3237 8.90264L17.3295 8.92315C17.556 8.88987 17.874 8.74213 18.109 8.58689C18.1713 8.59614 18.2352 8.59906 18.2996 8.59605C18.2721 8.64738 18.2673 8.71314 18.2872 8.76889L17.4984 9.04861L17.505 9.06907C17.7647 8.99252 18.1042 8.87379 18.2958 8.78928C18.3194 8.83692 18.3633 8.87395 18.4291 8.8825L17.6377 9.22937L17.6447 9.24964C17.8296 9.20168 18.1962 9.04144 18.4769 8.88679C18.5573 8.89117 18.6461 8.88248 18.7377 8.86359C18.7206 8.89911 18.7105 8.93414 18.7071 8.96743L17.9513 9.32204L17.9585 9.3422C18.1875 9.28348 18.3943 9.18 18.7058 8.99356C18.706 9.04375 18.7223 9.08893 18.7537 9.12445L18.0623 9.47323L18.0693 9.49336C18.1445 9.47759 18.2341 9.44358 18.3359 9.39418C18.3916 9.36711 18.4502 9.33584 18.5112 9.3009C18.5983 9.25101 18.6669 9.20824 18.7704 9.14116C18.8054 9.17224 18.8543 9.1936 18.9161 9.20104C18.9232 9.20189 18.9304 9.20253 18.9378 9.20295L18.3719 9.46828L18.3786 9.48854C18.5043 9.46184 18.6243 9.41263 18.7536 9.34144C18.7828 9.32537 18.8423 9.28993 18.8953 9.25833L18.8954 9.25832C18.9366 9.23375 18.974 9.21151 18.9901 9.2025C19.0547 9.19799 19.1266 9.17944 19.2026 9.14823C19.1687 9.20147 19.1505 9.24407 19.1477 9.28154L18.5696 9.57076L18.5779 9.59054C18.6795 9.55503 18.9732 9.40507 19.1481 9.3064C19.1511 9.33136 19.1615 9.3544 19.1795 9.37746C19.1974 9.40047 19.2187 9.41296 19.2467 9.41517L18.8502 9.59988L18.8587 9.61961C18.9949 9.56458 19.1807 9.47841 19.3377 9.39769C19.38 9.38224 19.4321 9.35681 19.4973 9.32164C19.5487 9.29404 19.6091 9.25487 19.6784 9.20518C19.6966 9.19213 19.7153 9.17841 19.7347 9.16397C19.7199 9.21763 19.7192 9.26389 19.7309 9.30247L19.0955 9.68818L19.1049 9.70742C19.2751 9.642 19.5903 9.44463 19.7393 9.32466C19.7556 9.35975 19.7836 9.38728 19.8217 9.40695L19.3802 9.6883L19.3901 9.70728C19.5582 9.63598 19.7528 9.51022 19.8467 9.41819L19.8509 9.41981C19.949 9.45643 20.0478 9.45753 20.1403 9.40879L19.7613 9.69376L19.7732 9.71162C19.958 9.60184 20.1774 9.43957 20.2494 9.35332L20.2348 9.3378L20.2339 9.33846L20.2309 9.32193L19.7841 9.12666C19.8087 9.10778 19.8343 9.08785 19.8624 9.0658L19.953 8.99408L19.9444 8.97506L19.6516 9.02932L19.8563 8.87237L19.8439 8.8549C19.7784 8.89895 19.6793 8.97096 19.5867 9.04136L19.3223 9.09037C19.4792 9.00358 19.6454 8.86996 19.7951 8.70029L19.7856 8.68252L19.3992 8.73767L19.4508 8.70352L19.5678 8.62504C19.6123 8.5954 19.6478 8.57224 19.6815 8.55105L19.6704 8.53267L19.6701 8.53282L19.3 8.75185L18.9582 8.80063C19.1686 8.72463 19.3693 8.60729 19.4923 8.48249C19.5445 8.47525 19.5985 8.4651 19.6534 8.45181L19.6561 8.45235L19.6561 8.45114L19.6607 8.45001L19.6602 8.42901L19.0188 8.30575C19.0597 8.3027 19.1017 8.29779 19.1445 8.29087L19.1459 8.26994L18.4099 8.05402L18.3962 8.06382C18.3958 8.07123 18.3961 8.07854 18.3971 8.08576L18.4212 8.09754L18.4219 8.09994L18.4189 8.09845L18.4151 8.09797L18.4151 8.09776L18.4146 8.09791L18.4117 8.09756L18.3998 8.10035L18.4003 8.10214L18.3883 8.1054L18.3853 8.10395C18.3711 8.1076 18.3567 8.11159 18.3424 8.11588C18.3581 8.11284 18.3734 8.10934 18.3883 8.1054L18.4036 8.11288L18.4068 8.12079C18.3872 8.12547 18.3675 8.13081 18.3477 8.13675C18.3145 8.14326 18.2799 8.14779 18.244 8.15017C18.1995 8.16785 18.1564 8.18793 18.1167 8.20944L17.6238 8.08465C17.6667 8.07356 17.7075 8.05428 17.7435 8.02629L17.738 8.02154L17.735 8.00557L17.7273 8.01166L17.738 8.02154L17.7385 8.02418L17.7188 8.01785C17.6756 8.0482 17.6258 8.06597 17.5744 8.07212L17.3261 8.00925C17.351 8.027 17.3783 8.04129 17.407 8.05192L17.3168 8.02909C17.3028 8.01934 17.2895 8.00857 17.277 7.99681L17.276 7.99656L17.2765 7.9964L17.2741 7.99406L17.2749 7.97441L17.2594 7.97906C17.2641 7.98423 17.269 7.98923 17.2741 7.99406L17.274 7.99466L17.2454 7.98306L17.2345 7.98606L16.8136 7.87951C16.8126 7.85872 16.8168 7.83637 16.8263 7.8131L16.8167 7.80919L16.8187 7.80839L16.8276 7.8101L16.8304 7.80379L16.8187 7.80839L16.8062 7.80551C16.7963 7.82976 16.7916 7.85309 16.7917 7.87498C16.7584 7.86866 16.7268 7.86289 16.6967 7.8577L16.7854 7.7993C16.7401 7.7837 16.7075 7.75753 16.6873 7.72221L16.6829 7.71387L16.6836 7.71399L16.689 7.69326L16.6726 7.68743C16.6655 7.66324 16.6635 7.63723 16.6658 7.612L16.6878 7.60752C16.6834 7.64317 16.6886 7.68117 16.7059 7.71151C16.7257 7.74603 16.7595 7.77091 16.8086 7.78401L16.8918 7.72923L16.7448 7.59596L16.7709 7.59065L16.7398 7.56243C16.7688 7.56901 16.798 7.57462 16.8272 7.57922L16.8508 7.57444L16.8705 7.58462L16.8751 7.56951ZM16.8134 7.55516C16.8344 7.55876 16.8555 7.56184 16.8766 7.56438L16.8751 7.56951L16.8508 7.57444L16.8134 7.55516ZM16.7065 7.53226C16.742 7.54137 16.7776 7.54903 16.8134 7.55516L15.9657 7.11759C15.9458 7.09994 15.9262 7.0819 15.9068 7.0635L15.8945 7.08087L15.9657 7.11759C16.1874 7.31453 16.4399 7.46317 16.7038 7.53156L16.6889 7.53404C16.6864 7.53853 16.6841 7.5432 16.682 7.54802L16.6961 7.55177L16.7016 7.55675C16.6948 7.57223 16.6901 7.58958 16.6878 7.60752L16.7448 7.59596L16.7016 7.55675L16.703 7.55357C16.7153 7.55669 16.7275 7.55965 16.7398 7.56243L16.7065 7.53226ZM16.703 7.55357C16.7045 7.55046 16.706 7.54743 16.7076 7.54449L16.6911 7.54725L16.6961 7.55177L16.703 7.55357ZM16.7065 7.53226L16.7055 7.53129L16.7038 7.53156L16.7065 7.53226ZM16.6735 7.69041L16.6726 7.68743L16.5353 7.63849L16.4945 7.64677L16.1956 7.54023C16.1724 7.52626 16.1512 7.51134 16.1318 7.49535L16.1214 7.51379L16.1956 7.54023C16.2704 7.58527 16.3651 7.62047 16.4802 7.64968L16.4327 7.65933C16.507 7.68007 16.5904 7.69785 16.6829 7.71387L16.6822 7.71232L16.6872 7.6928L16.6735 7.69041ZM16.547 7.66547L16.4945 7.64677L16.4802 7.64968C16.5018 7.65514 16.524 7.6604 16.547 7.66547ZM16.547 7.66547C16.587 7.6743 16.6292 7.68257 16.6735 7.69041C16.6759 7.69793 16.6788 7.70526 16.6822 7.71232L16.6818 7.71353L16.547 7.66547ZM16.6703 7.87507L16.6967 7.8577C16.4914 7.82228 16.3588 7.8136 16.2993 7.83979C16.264 7.85547 16.2405 7.8777 16.2302 7.90333C16.1843 7.88546 16.141 7.8705 16.0933 7.85581C16.0744 7.84999 16.0547 7.84416 16.032 7.83765C16.0453 7.84148 15.8869 7.79694 15.8334 7.78102L15.8334 7.78101L15.8274 7.80233C15.8809 7.81827 16.0398 7.86294 16.0263 7.85907C16.0488 7.86554 16.0684 7.87133 16.0872 7.87711C16.1034 7.88211 16.1191 7.88714 16.1346 7.8923L16.2246 7.92557L16.2484 7.95412C16.2551 7.9774 16.2737 8.00217 16.3054 8.02656L16.3137 8.03272L16.3551 8.08261C16.3627 8.08653 16.3706 8.0904 16.3788 8.0942L16.3784 8.09422L16.3794 8.09449L16.3809 8.09517C16.2966 8.12533 16.293 8.19702 16.37 8.25873L16.3679 8.25843L16.3588 8.26149C16.3561 8.26426 16.3535 8.26706 16.351 8.2699C16.3563 8.27444 16.3619 8.27892 16.3678 8.28332C16.3224 8.33576 16.3382 8.4027 16.4027 8.46083C16.6499 8.68448 17.2635 8.68454 17.8521 8.48785L17.8932 8.49361L17.8943 8.49617L17.9016 8.49359L17.8996 8.47279L17.8993 8.47275L17.9007 8.45357L17.8887 8.45055C17.8914 8.42921 17.9005 8.40456 17.9159 8.37595C17.9397 8.33207 17.9929 8.28494 18.062 8.24139C18.0816 8.2381 18.1002 8.23454 18.1177 8.23072L18.1181 8.20979L18.1167 8.20944L18.1132 8.21137L18.1132 8.20971C18.0983 8.21294 18.0827 8.21599 18.0663 8.21884L17.5729 8.09392C17.5901 8.09206 17.6071 8.08898 17.6238 8.08465L17.5744 8.07212C17.5439 8.07577 17.5128 8.07532 17.4823 8.07097L17.407 8.05192C17.4313 8.06094 17.4566 8.06733 17.4823 8.07097L17.5729 8.09392C17.4838 8.10357 17.3908 8.08052 17.3168 8.02909L17.2345 8.00825C17.2481 8.00472 17.2619 8.00083 17.276 7.99656L17.2345 7.98606C17.2192 7.99014 17.2044 7.99377 17.1899 7.99695L16.8171 7.90255C16.8152 7.89512 16.814 7.88742 16.8136 7.87951L16.8087 7.87826L16.8081 7.87813L16.7917 7.87498C16.7917 7.88257 16.7923 7.89 16.7935 7.89722C16.7498 7.88887 16.7087 7.88147 16.6703 7.87507ZM16.3757 8.06907C16.3522 8.05748 16.3314 8.04536 16.3137 8.03272L16.2484 7.95412C16.2373 7.91564 16.2589 7.88124 16.308 7.85947C16.36 7.83655 16.483 7.84386 16.6703 7.87507L16.3757 8.06907ZM16.3858 8.07391L16.3836 8.07335L16.3776 8.07359C16.3695 8.07629 16.362 8.07931 16.3551 8.08261L16.3757 8.06907L16.3858 8.07391ZM16.3858 8.07391C16.507 8.13094 16.6952 8.17474 16.907 8.20454L16.3858 8.07391ZM17.0737 8.24631L16.907 8.20454C17.306 8.26067 17.789 8.26715 18.0663 8.21884L18.0895 8.22473C18.0801 8.23021 18.0709 8.23577 18.062 8.24139C17.82 8.28211 17.4312 8.28281 17.0737 8.24631ZM16.9024 8.22554C16.9581 8.23344 17.0155 8.24037 17.0737 8.24631L17.8887 8.45055L17.8883 8.45413C17.8702 8.45577 17.8512 8.45718 17.8314 8.45836L16.9024 8.22554ZM16.3814 8.09499L16.3844 8.09398L16.3788 8.0942L16.3794 8.09449L16.3814 8.09499ZM16.3814 8.09499L16.9024 8.22554C16.692 8.19573 16.5044 8.15205 16.3809 8.09517L16.3814 8.09499ZM17.8755 8.46942L17.8314 8.45836L17.8061 8.45971L16.37 8.25873C16.3818 8.26817 16.3955 8.27738 16.411 8.28618L16.3703 8.28048L16.374 8.27666L16.3649 8.27972L16.3703 8.28048L16.3678 8.28332C16.3924 8.30149 16.4229 8.31831 16.4592 8.33259C16.7092 8.43098 17.4014 8.50029 17.8051 8.48128L17.8521 8.48785L17.8874 8.47579L17.8885 8.4757C17.8893 8.482 17.8909 8.48796 17.8932 8.49361L17.8966 8.49409L17.8947 8.47511L17.8991 8.4747L17.8993 8.47275L17.8957 8.47224L17.8971 8.4533L17.8883 8.45413C17.8877 8.46006 17.8876 8.46574 17.888 8.47117L17.8755 8.46942ZM17.8881 8.47258L17.8755 8.46942L17.8061 8.45971C17.7648 8.46169 17.7204 8.46273 17.6737 8.4629L16.411 8.28618C16.4276 8.29552 16.4462 8.30439 16.467 8.31257C16.6888 8.39984 17.2677 8.46437 17.6737 8.4629L17.8051 8.48128C17.8341 8.47992 17.8616 8.47809 17.8874 8.47579L17.8885 8.47543L17.8885 8.4757L17.8947 8.47511L17.8947 8.47422L17.8955 8.47443L17.8957 8.47224L17.888 8.47117L17.8881 8.47258ZM17.8931 8.47382L17.8947 8.47422L17.8946 8.47329L17.8931 8.47382ZM17.8931 8.47382L17.8881 8.47258L17.8885 8.47543L17.8931 8.47382ZM16.8038 7.89919L16.8171 7.90255C16.8399 7.99289 16.9716 8.04494 17.1899 7.99695L17.2345 8.00825C16.9738 8.07618 16.8124 8.01087 16.7935 7.89722L16.8038 7.89919ZM16.8038 7.89919L16.8041 7.89925L16.8035 7.89911L16.8038 7.89919ZM18.0895 8.22473C18.0972 8.22023 18.1051 8.21577 18.1132 8.21137L18.1129 8.23064L18.0895 8.22473ZM16.2247 7.92493C16.1942 7.913 16.1649 7.90239 16.1346 7.8923L15.8334 7.78102L16.2299 7.90401C16.2273 7.91077 16.2255 7.91776 16.2247 7.92493ZM16.2247 7.92493L16.2323 7.9279L16.2392 7.90688L16.2299 7.90401L16.2302 7.90333L16.2399 7.90714L16.233 7.92817L16.2246 7.92557L16.2247 7.92493ZM18.4075 8.12244L18.4068 8.12079L18.4127 8.11939L18.4146 8.12036L18.4075 8.12244ZM18.6765 8.2847C18.5378 8.25328 18.4397 8.19456 18.4075 8.12244C18.3882 8.12794 18.3682 8.13273 18.3477 8.13675C18.1645 8.19194 17.9824 8.29814 17.9348 8.3862C17.8853 8.47786 17.9064 8.51518 18.0056 8.54294C18.294 8.62407 18.6375 8.55037 18.8998 8.36646L18.9105 8.3719C18.9122 8.37505 18.9141 8.37816 18.9162 8.38121C18.8092 8.45687 18.6889 8.51449 18.564 8.5511L18.3172 8.5751L18.3094 8.57976C18.3059 8.585 18.3026 8.59043 18.2996 8.59605L18.3223 8.59474L18.3193 8.59651L18.3244 8.59601C18.2665 8.68761 18.2973 8.8441 18.4324 8.86124C18.4445 8.86278 18.4569 8.86396 18.4695 8.8648L18.4291 8.8825L18.4297 8.88258L18.438 8.88356C18.3446 8.93409 18.243 8.98479 18.1426 9.03153L17.9109 9.1331C17.8039 9.17682 17.7086 9.21085 17.6393 9.22881L17.6463 9.24908L17.9109 9.1331C17.9842 9.10311 18.0631 9.06857 18.1426 9.03153L18.4733 8.88659L18.4769 8.88679L18.4927 8.87805L18.4866 8.86574C18.568 8.8692 18.6581 8.85922 18.7507 8.83885C18.746 8.84712 18.7417 8.85537 18.7377 8.86359L18.7648 8.85773C18.6805 9.01365 18.74 9.15818 18.9187 9.17969C18.9392 9.18216 18.961 9.18271 18.9838 9.18139L18.9378 9.20295L18.9459 9.20333L18.8832 9.24053C18.8511 9.25967 18.8168 9.28009 18.7885 9.29668L18.4945 9.43452C18.4546 9.4479 18.4147 9.4589 18.3742 9.4675L18.3809 9.48776L18.4945 9.43452C18.5761 9.40714 18.6576 9.36978 18.7433 9.32259C18.7545 9.31643 18.7703 9.30735 18.7885 9.29668L18.9892 9.20256L18.9901 9.2025L18.9949 9.19989L18.9857 9.18127C19.057 9.17683 19.1382 9.15424 19.2244 9.11553C19.2165 9.12687 19.2092 9.13776 19.2026 9.14823C19.2145 9.14332 19.2266 9.13811 19.2387 9.13258C19.1611 9.24527 19.1501 9.30479 19.1964 9.36421C19.2212 9.39608 19.2573 9.4019 19.3208 9.38063L19.2467 9.41517L19.2548 9.41552C19.1162 9.48441 18.9657 9.55322 18.8507 9.59966L18.8592 9.61939L19.327 9.40147L19.3377 9.39769L19.3619 9.3852L19.3536 9.36828C19.39 9.35328 19.4338 9.33146 19.4872 9.30269C19.5376 9.27559 19.5973 9.23688 19.6659 9.18769C19.6899 9.1705 19.7148 9.15213 19.7409 9.13249L19.7461 9.12854C19.7417 9.14069 19.7379 9.1525 19.7347 9.16397L19.7538 9.14968L19.7641 9.14181C19.7164 9.27722 19.7566 9.36191 19.8584 9.39964C19.979 9.44466 20.0993 9.43311 20.2074 9.33511L20.2223 9.34164L20.2192 9.32406L20.2074 9.33511L19.7645 9.14155L19.7841 9.12666L19.7624 9.11719L19.7594 9.11845C19.7876 9.09701 19.8168 9.07436 19.8491 9.04888L19.9057 9.0041L19.9483 8.99621L19.9397 8.97718L19.9057 9.0041L19.614 9.05817L19.6516 9.02932L19.6339 9.03261C19.7157 8.97113 19.7988 8.91114 19.8558 8.87276L19.8433 8.85528L19.6051 9.03795L19.5867 9.04136L19.5489 9.07023L19.2559 9.12454C19.2778 9.11411 19.3 9.10272 19.3223 9.09037L19.2495 9.10386C19.4147 9.02459 19.596 8.88805 19.7594 8.70797L19.7886 8.70381L19.7791 8.68603L19.7594 8.70797L19.3565 8.7655L19.3992 8.73767L19.3556 8.74391L19.6813 8.5512L19.6701 8.53282C19.6362 8.55414 19.6006 8.57739 19.556 8.60713L19.4389 8.68562C19.4071 8.70683 19.3772 8.72653 19.3488 8.74487L19.3 8.75185L19.2516 8.78048L18.8354 8.83989C18.8764 8.82851 18.9175 8.81535 18.9582 8.80063L18.8311 8.81878C19.0683 8.75267 19.3104 8.62549 19.457 8.48696C19.4687 8.48561 19.4804 8.48413 19.4923 8.48249L19.4951 8.4796L19.4876 8.46383C19.5262 8.45844 19.5658 8.45141 19.6062 8.44261L19.6534 8.45181L19.6561 8.45114L19.6556 8.43104C19.639 8.43519 19.6226 8.43905 19.6062 8.44261L18.9241 8.3096C18.9549 8.30942 18.9865 8.30817 19.0188 8.30575L18.9269 8.2881C18.9797 8.28766 19.0351 8.284 19.0925 8.27668L19.1398 8.29058L19.1411 8.26964C19.1248 8.27228 19.1085 8.27462 19.0925 8.27668L18.4179 8.07876C18.4175 8.07416 18.4174 8.06953 18.4176 8.06486L18.4039 8.07466L18.4179 8.07876C18.4184 8.08509 18.4195 8.09136 18.4212 8.09754L18.4229 8.09837L18.4228 8.10038L18.4219 8.09994L18.4226 8.10227L18.4214 8.11832L18.4146 8.12036L18.4365 8.13143C18.4759 8.19336 18.5742 8.24402 18.7092 8.26976L18.7707 8.30097C18.7531 8.29879 18.7359 8.29622 18.7192 8.29328L18.7112 8.27328L18.6765 8.2847ZM18.6857 8.28672L18.6765 8.2847L18.241 8.42794L18.2455 8.44956C18.4425 8.42459 18.5549 8.38256 18.7194 8.29372L18.7192 8.29328L18.7171 8.2929L18.7095 8.27399L18.6857 8.28672ZM18.5679 8.34371L18.7177 8.29444L18.7171 8.2929C18.7064 8.29099 18.6959 8.28893 18.6857 8.28672C18.6441 8.30867 18.6056 8.32748 18.5679 8.34371ZM18.3916 8.40169C18.4547 8.38705 18.5105 8.36837 18.5679 8.34371L18.3916 8.40169ZM18.3916 8.40169C18.3468 8.4121 18.2983 8.42046 18.2429 8.42748L18.2475 8.4491L18.3916 8.40169ZM18.8294 8.30662C18.8093 8.30521 18.7897 8.30332 18.7707 8.30097L18.8998 8.36646L18.9059 8.36212C18.9073 8.36543 18.9088 8.36869 18.9105 8.3719L18.9157 8.3745L18.9142 8.35619L18.9059 8.36212C18.9033 8.35578 18.9014 8.34927 18.9002 8.34257L18.9253 8.35531L18.9268 8.37362L18.9162 8.38121C18.9428 8.42079 18.9987 8.45176 19.0753 8.47157L18.9916 8.50951L18.564 8.5511C18.4855 8.57412 18.4052 8.58884 18.3254 8.59452L18.3271 8.59185L18.3223 8.59474L18.3254 8.59452L18.3244 8.59601L18.9309 8.53702L18.5652 8.7028L18.5728 8.72286C18.7195 8.67657 18.8811 8.60466 19.0237 8.52799L19.3682 8.49448C19.3971 8.49294 19.4267 8.49045 19.457 8.48696L19.4583 8.48572L19.4885 8.48279L19.4799 8.46487L19.4876 8.46383L19.4864 8.46138L19.3229 8.47729C19.0742 8.48247 18.9023 8.41245 18.922 8.30961L18.9241 8.3096L18.922 8.3092C18.9227 8.30609 18.9234 8.30295 18.9244 8.29978L18.9121 8.30727L18.922 8.3092L18.922 8.30961L18.9001 8.30952C18.901 8.30424 18.9022 8.29887 18.9039 8.29342L18.9127 8.28815L18.9269 8.2881L18.9162 8.28604L18.9127 8.28815C18.8651 8.28802 18.8198 8.28527 18.7773 8.28023L18.4228 8.10038L18.4226 8.10227C18.4258 8.11222 18.4304 8.12196 18.4365 8.13143L18.7092 8.26976C18.731 8.27392 18.7537 8.27743 18.7773 8.28023L18.8294 8.30662ZM18.8294 8.30662C18.8523 8.30824 18.876 8.30922 18.9001 8.30952C18.8983 8.32096 18.8984 8.33198 18.9002 8.34257L18.8294 8.30662ZM19.4794 8.46494L19.4798 8.46457L19.4799 8.46487L19.4794 8.46494ZM19.4794 8.46494C19.4248 8.47225 19.3723 8.47626 19.3229 8.47729L19.1847 8.49073C19.1585 8.48797 19.1336 8.48423 19.1103 8.47956L19.1128 8.47811L19.103 8.45902L19.0753 8.47157L19.0793 8.47261C19.0592 8.48413 19.0385 8.49562 19.0174 8.507L18.9916 8.50951L18.9309 8.53702L18.9671 8.5335C18.8376 8.60023 18.696 8.66145 18.5664 8.70234L18.574 8.7224L18.9972 8.53058L19.0237 8.52799C19.0399 8.51929 19.0559 8.51053 19.0715 8.50174L19.1847 8.49073C19.2404 8.49658 19.3022 8.49802 19.3682 8.49448L19.4583 8.48572C19.4656 8.47882 19.4726 8.47189 19.4794 8.46494ZM19.0578 8.50307L19.0715 8.50174C19.0847 8.49436 19.0976 8.48696 19.1103 8.47956L19.1099 8.47948L19.1118 8.47862L19.102 8.45953L19.0793 8.47261C19.0892 8.47508 19.0994 8.47738 19.1099 8.47948L19.0578 8.50307ZM19.0578 8.50307L19.0174 8.507C19.0009 8.51591 18.9841 8.52475 18.9671 8.5335L18.9972 8.53058L19.0578 8.50307ZM18.7694 8.84931L18.7648 8.85773C18.7882 8.85241 18.8118 8.84645 18.8354 8.83989L18.7694 8.84931ZM18.7694 8.84931L18.772 8.84487L18.7643 8.85004L18.7694 8.84931ZM19.305 8.77284L19.2516 8.78048L18.9699 8.94712L18.9791 8.96646C19.0954 8.92279 19.2043 8.86365 19.3565 8.7655L19.3072 8.77254L19.3556 8.74391L19.3488 8.74487L19.305 8.77284ZM19.2753 8.7914L19.305 8.77284L19.3072 8.77254L19.2753 8.7914ZM19.2753 8.7914C19.2416 8.8122 19.21 8.83093 19.1798 8.84792L19.2753 8.7914ZM19.1798 8.84792C19.1057 8.88952 19.0399 8.92067 18.9716 8.94632L18.9808 8.96565L19.1798 8.84792ZM19.2425 9.12702L19.2387 9.13258L19.2559 9.12454L19.2425 9.12702ZM19.2425 9.12702L19.245 9.12344L19.2382 9.12782L19.2425 9.12702ZM19.5675 9.06679L19.5489 9.07023C19.4639 9.13569 19.3895 9.19609 19.3591 9.22665L19.3732 9.24278L19.614 9.05817L19.5956 9.06158L19.6339 9.03261L19.6051 9.03795L19.5675 9.06679ZM19.5675 9.06679L19.3602 9.22569L19.3743 9.24182C19.4079 9.20801 19.4977 9.13602 19.5956 9.06158L19.5675 9.06679ZM19.7642 9.14146L19.7641 9.14181L19.7645 9.14155L19.7642 9.14146ZM19.7642 9.14146L19.7681 9.13088L19.7538 9.13691L19.7642 9.14146ZM19.7594 9.11845L19.7461 9.12854L19.7481 9.12322L19.7594 9.11845ZM19.3532 9.36846L19.3536 9.36828L19.3525 9.3659L19.3208 9.38063L19.3304 9.37729C19.3058 9.38994 19.2805 9.40273 19.2548 9.41552C19.2751 9.41572 19.2988 9.411 19.327 9.40147L19.3615 9.38541L19.3532 9.36846ZM19.3532 9.36846L19.352 9.36611L19.3304 9.37729C19.3377 9.37467 19.3452 9.37173 19.3532 9.36846ZM19.2495 9.10386C19.2411 9.1079 19.2327 9.11179 19.2244 9.11553L19.2275 9.11105L19.2343 9.10667L19.2495 9.10386ZM18.9852 9.18131L18.9945 9.20011L18.9892 9.20256C18.9744 9.20357 18.9599 9.20383 18.9459 9.20333C18.9634 9.19297 18.9771 9.18506 18.9839 9.18138L18.9852 9.18131ZM18.9852 9.18131L18.9857 9.18127L18.9854 9.18062L18.9838 9.18139L18.9839 9.18138L18.985 9.18084L18.9852 9.18131ZM18.8311 8.81878C18.8042 8.82628 18.7773 8.833 18.7507 8.83885L18.7536 8.83393L18.7613 8.82875L18.8311 8.81878ZM18.4854 8.86568L18.4918 8.8785L18.4733 8.88659C18.4613 8.88588 18.4495 8.88487 18.438 8.88356L18.472 8.86494L18.4854 8.86568ZM18.4854 8.86568L18.4866 8.86574L18.4832 8.85879L18.4695 8.8648L18.472 8.86494L18.4823 8.85924L18.4854 8.86568ZM18.4127 8.11939L18.4093 8.11764L18.4165 8.11853L18.4127 8.11939ZM18.4036 8.11288C18.4024 8.10933 18.4012 8.10575 18.4003 8.10214L18.4146 8.09791L18.4151 8.09797L18.4135 8.11771L18.4036 8.11288ZM20.2335 9.34006L20.2341 9.3395L20.2339 9.33846L20.1403 9.40879C20.1703 9.39302 20.1996 9.37204 20.228 9.34535C20.153 9.43071 19.941 9.58696 19.7622 9.69311L19.7741 9.71097L20.2476 9.35501L20.2335 9.34006ZM20.2335 9.34006L20.228 9.34535L20.233 9.3395L20.2335 9.34006ZM19.845 9.41754L19.8467 9.41819L19.8524 9.41248L19.8391 9.39583L19.8217 9.40695L19.8254 9.40887C19.7883 9.44422 19.7365 9.4844 19.6775 9.52431L19.5911 9.57933C19.5228 9.62043 19.45 9.65853 19.3818 9.68747L19.3917 9.70645L19.5911 9.57933C19.621 9.56139 19.65 9.54288 19.6775 9.52431L19.845 9.41754ZM19.845 9.41754L19.8506 9.41398L19.8372 9.39732L19.8254 9.40887C19.8317 9.41197 19.8382 9.41486 19.845 9.41754ZM19.7385 9.32296L19.7393 9.32466L19.7503 9.31566L19.738 9.29815L19.7309 9.30247L19.7312 9.30358C19.6712 9.35247 19.5814 9.41543 19.4846 9.47708L19.3347 9.56811C19.2459 9.61923 19.161 9.6628 19.0972 9.68733L19.1066 9.70658L19.3347 9.56811C19.3844 9.53946 19.4354 9.50844 19.4846 9.47708L19.7385 9.32296ZM19.7385 9.32296C19.7357 9.31674 19.7333 9.31027 19.7312 9.30358L19.7367 9.29905L19.7491 9.31655L19.7385 9.32296ZM19.148 9.3054L19.1481 9.3064L19.1643 9.29726L19.1542 9.27829L19.1477 9.28154L19.1477 9.28198C18.9752 9.37985 18.6728 9.5346 18.5709 9.57023L18.5792 9.59001L19.148 9.3054ZM19.148 9.3054C19.1472 9.29779 19.1471 9.29001 19.1477 9.28198L19.1537 9.27856L19.1637 9.29754L19.148 9.3054ZM18.7696 9.14048L18.7704 9.14116L18.7782 9.13608L18.7676 9.11745L18.7537 9.12445L18.7548 9.12567C18.6843 9.17131 18.6301 9.20562 18.5747 9.23884L18.1786 9.43866C18.1375 9.45373 18.0996 9.46505 18.0649 9.47231L18.0719 9.49245L18.1786 9.43866C18.2242 9.42189 18.2737 9.40047 18.3265 9.37482C18.3818 9.34798 18.4399 9.31694 18.5006 9.28222C18.5264 9.26741 18.5507 9.25323 18.5747 9.23884L18.7696 9.14048ZM18.7696 9.14048C18.7644 9.13576 18.7594 9.13082 18.7548 9.12567L18.7666 9.11802L18.7772 9.13666L18.7696 9.14048ZM18.7058 8.99178L18.7058 8.99356L18.7199 8.98505L18.7099 8.96609L18.7071 8.96743L18.707 8.96776C18.6319 9.01282 18.563 9.05309 18.4984 9.0891L18.0961 9.27785C18.0486 9.29463 18.0014 9.30901 17.9532 9.32137L17.9604 9.34153L18.0961 9.27785C18.2211 9.23371 18.3478 9.173 18.4984 9.0891L18.7058 8.99178ZM18.7058 8.99178L18.719 8.98557L18.7089 8.9666L18.707 8.96776C18.7062 8.97587 18.7058 8.98389 18.7058 8.99178ZM18.2956 8.78873L18.2958 8.78928L18.3034 8.78591L18.2955 8.76595L18.2872 8.76889L18.2874 8.7695C18.0968 8.85359 17.758 8.9721 17.4989 9.04843L17.5055 9.06889L18.2956 8.78873ZM18.2956 8.78873C18.2925 8.78249 18.2898 8.77607 18.2874 8.7695L18.2947 8.76626L18.3026 8.78622L18.2956 8.78873ZM18.1082 8.58678L18.109 8.58689L18.1116 8.58514L18.1015 8.5663L18.0695 8.58014L18.0777 8.58169C18.0451 8.60273 18.0111 8.62358 17.976 8.64397L17.4281 8.88091C17.3926 8.89005 17.3585 8.89715 17.3264 8.90188L17.3322 8.92239L17.4281 8.88091C17.5979 8.83715 17.7998 8.74645 17.976 8.64397L18.1082 8.58678ZM18.1082 8.58678C18.098 8.58526 18.0878 8.58356 18.0777 8.58169L18.0998 8.5672L18.1099 8.58605L18.1082 8.58678ZM16.3256 8.38457L16.3263 8.3869L16.3367 8.38522L16.3361 8.36319C16.3314 8.36268 16.3263 8.36234 16.321 8.36217L16.3214 8.36516L16.1619 8.39096L16.1676 8.41224C16.2115 8.39385 16.2808 8.38196 16.3256 8.38457ZM16.3256 8.38457C16.3237 8.3781 16.3223 8.37162 16.3214 8.36516L16.3334 8.36322L16.3339 8.38525L16.3256 8.38457ZM16.3055 8.21453L16.3062 8.21574L16.3125 8.2163L16.3163 8.19524L16.2959 8.18946L16.2969 8.19329C16.2602 8.18986 16.2244 8.18601 16.1897 8.18172L15.5655 8.00492C15.5406 7.99156 15.5165 7.97744 15.493 7.96253L15.4844 7.98196L15.5655 8.00492C15.7325 8.09463 15.9337 8.15011 16.1897 8.18172L16.3055 8.21453ZM16.3055 8.21453C16.3019 8.20742 16.299 8.20032 16.2969 8.19329L16.3144 8.19488L16.3105 8.21594L16.3055 8.21453ZM17.6098 7.77054L17.6161 7.77542L17.6254 7.75649C17.6199 7.75504 17.6143 7.75329 17.6085 7.75124C17.6087 7.75768 17.6092 7.76412 17.6098 7.77054ZM20.2422 9.50083C20.198 9.56022 20.0867 9.69183 20.0158 9.76815L20.0318 9.78245L20.259 9.51423L20.2422 9.50083ZM20.2426 9.5003L20.2594 9.5137C20.2147 9.57377 20.1028 9.70596 20.0315 9.78281L20.0155 9.76852L20.2426 9.5003Z" fill="black"/>
<path fill-rule="evenodd" clip-rule="evenodd" d="M20.1587 7.51913C20.116 7.62689 20.0922 7.85491 20.1049 7.94391C20.1073 7.96096 20.107 7.96527 20.0995 8.03686C20.0858 8.16742 20.0912 8.26644 20.1344 8.39434L20.1547 8.38745C20.1127 8.26295 20.1074 8.16685 20.1208 8.03911C20.1287 7.96428 20.1289 7.96066 20.1261 7.94088C20.1139 7.85548 20.1374 7.63125 20.1786 7.52708L20.1587 7.51913ZM19.8295 8.09422C19.8236 8.01327 19.832 7.90788 19.8539 7.83219L19.8745 7.8382C19.8533 7.91123 19.8452 8.0141 19.8509 8.09265L19.8295 8.09422ZM19.8442 8.22757C19.8266 8.30261 19.8396 8.47723 19.8636 8.5738L19.8844 8.56859C19.8611 8.47505 19.8484 8.30361 19.8651 8.23249L19.8442 8.22757ZM19.92 8.80512C19.9101 8.78929 19.9025 8.77437 19.8977 8.76036L19.9179 8.75285C19.9221 8.76507 19.9289 8.7785 19.938 8.793C19.9494 8.81115 19.9641 8.83047 19.9818 8.85113C19.9965 8.86821 20.0084 8.88105 20.0312 8.90486L20.0161 8.92053C19.9929 8.89644 19.9808 8.88338 19.9658 8.86591C19.9474 8.84448 19.9321 8.82432 19.92 8.80512ZM20.0034 8.35598C19.9935 8.48073 20.062 8.7175 20.1316 8.79778C20.1469 8.93058 20.2389 9.12064 20.3689 9.25164L20.384 9.23647C20.2575 9.10885 20.1675 8.92315 20.1503 8.78935C20.0822 8.70797 20.0153 8.47692 20.0247 8.35768L20.0034 8.35598ZM19.9745 8.21691C19.9634 8.13807 19.9608 8.05901 19.9697 8.00878L19.9908 8.01258C19.9823 8.0601 19.9849 8.13714 19.9957 8.21391L19.9745 8.21691ZM20.3082 8.34528C20.2625 8.19173 20.2609 7.82302 20.3081 7.62793L20.3289 7.633C20.2826 7.82453 20.2842 8.18939 20.3288 8.33913L20.3082 8.34528ZM20.2499 8.40314C20.2241 8.51768 20.2269 8.65028 20.26 8.75008L20.2803 8.74328C20.2485 8.64743 20.2458 8.51878 20.2708 8.40789L20.2499 8.40314ZM20.639 8.22741C20.5105 8.08396 20.4328 7.87007 20.4381 7.70307L20.4595 7.70375C20.4544 7.86521 20.5302 8.07371 20.6549 8.21304L20.639 8.22741ZM20.4043 8.23898C20.3895 8.42428 20.4002 8.59447 20.4339 8.69172C20.4426 8.71681 20.4487 8.74731 20.4573 8.80318L20.4656 8.8576C20.469 8.87903 20.4721 8.89708 20.4754 8.91438C20.4916 8.99874 20.5128 9.06083 20.5465 9.10883L20.564 9.09644C20.5324 9.05147 20.5121 8.99195 20.4964 8.91031C20.4932 8.89328 20.4901 8.87545 20.4868 8.85423L20.4784 8.7999C20.4696 8.74274 20.4634 8.7114 20.4541 8.68465C20.4216 8.59078 20.4111 8.42328 20.4257 8.2407L20.4043 8.23898ZM20.5769 8.54111L20.5689 8.51065L20.5896 8.50512L20.5977 8.53571C20.6088 8.57882 20.6154 8.61132 20.6184 8.64376C20.6228 8.6906 20.6186 8.73102 20.6036 8.76559L20.584 8.75701C20.5973 8.72621 20.6012 8.68929 20.5971 8.64578C20.5942 8.61471 20.5878 8.5832 20.5769 8.54111ZM20.6947 8.3696C20.7303 8.48672 20.7525 8.63001 20.7474 8.69229L20.7687 8.69406C20.7741 8.62865 20.7515 8.48282 20.7152 8.36332L20.6947 8.3696ZM20.8454 9.31751C20.8013 9.2399 20.7613 9.11593 20.7522 9.01587L20.7735 9.01391C20.7824 9.11085 20.8214 9.23187 20.864 9.30685L20.8454 9.31751ZM20.5933 9.31076C20.6337 9.43273 20.7032 9.55865 20.766 9.60829L20.7793 9.59139C20.7205 9.54498 20.6528 9.42229 20.6136 9.30397L20.5933 9.31076ZM21.1876 9.65208C21.1447 9.52213 21.1166 9.45899 21.0488 9.36242L21.0663 9.35003C21.1355 9.44867 21.1644 9.51353 21.2079 9.64532L21.1876 9.65208Z" fill="black"/>
<path fill-rule="evenodd" clip-rule="evenodd" d="M20.2642 9.39117C20.2776 9.39259 20.2859 9.39312 20.3089 9.39427C20.3623 9.39695 20.381 9.40238 20.4051 9.42785C20.4209 9.44464 20.4366 9.47002 20.4536 9.50696C20.5129 9.63591 20.675 9.83306 20.7697 9.89448L20.7696 9.89453C20.8951 10.1153 20.9508 10.4067 20.9119 10.5631C20.9007 10.4943 20.8617 10.4414 20.8016 10.398C20.7782 10.3811 20.7633 10.3726 20.7228 10.3509C20.6691 10.3979 20.5908 10.4519 20.5513 10.4604L20.5558 10.4814C20.6004 10.4719 20.6822 10.4154 20.7257 10.3677C20.7454 10.385 20.7584 10.394 20.7729 10.404L20.7891 10.4154C20.8451 10.4558 20.8807 10.5043 20.8908 10.5669L20.9118 10.5635L20.9104 10.5689L20.9311 10.5745C20.9727 10.4202 20.9224 10.1365 20.8038 9.91231C20.9499 9.97958 21.0433 10.0554 21.0615 10.1623L21.0819 10.1649L21.0924 10.1414C21.1411 10.0316 21.1596 9.95623 21.141 9.87836L21.1429 9.88057L21.16 9.90121C21.2137 9.96594 21.2533 10.0136 21.2826 10.0496L21.2806 10.0499C21.2835 10.0703 21.2862 10.1015 21.2894 10.1491C21.2899 10.1576 21.2915 10.1822 21.2933 10.2101C21.2957 10.2481 21.2985 10.2923 21.2997 10.3107C21.3074 10.4236 21.3151 10.4989 21.3256 10.548L21.3466 10.5435C21.3364 10.4957 21.3287 10.4211 21.3211 10.3092C21.3199 10.2909 21.3171 10.2468 21.3147 10.2089C21.3129 10.1809 21.3113 10.1562 21.3108 10.1476C21.3088 10.1189 21.3071 10.096 21.3053 10.0778C21.351 10.1351 21.3629 10.1551 21.3691 10.1768C21.371 10.1833 21.3723 10.19 21.3739 10.1978L21.3739 10.1978L21.3739 10.1978L21.3757 10.2066C21.3935 10.2921 21.4622 10.4094 21.5312 10.4847L21.547 10.4701C21.4804 10.3974 21.4136 10.2834 21.3966 10.2022L21.3944 10.1909C21.3927 10.1824 21.3912 10.1752 21.3892 10.1682C21.3786 10.1308 21.3514 10.0981 21.1792 9.89073L21.1792 9.89073L21.1792 9.89073L21.1792 9.89073L21.1792 9.89072L21.1593 9.86681C21.1447 9.84918 21.1315 9.83303 21.119 9.81744L21.1009 9.82867C21.1435 9.92161 21.1316 9.99886 21.0752 10.1273C21.0433 10.0249 20.9457 9.95244 20.8012 9.88748C20.7177 9.85003 20.5355 9.63361 20.4731 9.49795C20.4552 9.45906 20.4383 9.43179 20.4206 9.41306C20.3918 9.38251 20.3684 9.37572 20.31 9.3728C20.2874 9.37167 20.2793 9.37115 20.2665 9.36978L20.2642 9.39117ZM21.3053 10.0778C21.3042 10.0655 21.303 10.0553 21.3018 10.0468L21.2826 10.0496C21.291 10.0599 21.2985 10.0692 21.3053 10.0778ZM20.9118 10.5635L20.9119 10.5634L20.9119 10.5631L20.9118 10.5635ZM20.8038 9.91231L20.7924 9.90711C20.7854 9.90397 20.7778 9.89972 20.7697 9.89448L20.7883 9.88388C20.7936 9.89324 20.7988 9.90272 20.8038 9.91231ZM20.4144 9.71711C20.452 9.83058 20.4818 9.96682 20.4849 10.0457L20.5063 10.0448C20.5032 9.96364 20.4729 9.82556 20.4348 9.71033L20.4144 9.71711ZM20.7393 10.2765C20.7359 10.2129 20.696 10.0462 20.6562 9.93516L20.6764 9.92789C20.7168 10.0407 20.7572 10.2093 20.7607 10.2754L20.7393 10.2765ZM21.1136 10.2378C21.1447 10.313 21.1644 10.4317 21.1581 10.5024L21.1795 10.5044C21.1861 10.43 21.1658 10.3079 21.1334 10.2295L21.1136 10.2378Z" fill="black"/>
</g>
</svg>
