<svg xmlns="http://www.w3.org/2000/svg" fill="none" viewBox="0 0 24 24" focusable="false"><path fill="#74767B" fill-rule="evenodd" d="M3.56 11.99c0-4.66 3.77-8.43 8.44-8.43 4.66 0 8.43 3.77 8.43 8.43 0 4.67-3.77 8.44-8.43 8.44-.36 0-.65.3-.65.65 0 .36.29.65.65.65 5.37 0 9.73-4.36 9.73-9.74 0-5.37-4.36-9.73-9.73-9.73-5.38 0-9.74 4.36-9.74 9.73 0 .36.29.65.65.65.35 0 .65-.29.65-.65M12 7.11c-2.21 0-4.08 1.46-4.68 3.47a.65.65 0 0 1-.81.43.647.647 0 0 1-.44-.81A6.19 6.19 0 0 1 12 5.81c3.41 0 6.18 2.77 6.18 6.18 0 2.79-1.84 5.14-4.37 5.92-.34.1-.7-.09-.81-.43s.09-.71.43-.81a4.9 4.9 0 0 0 3.45-4.68c0-2.69-2.19-4.88-4.88-4.88m1.93 4.79c.49-1.12-.65-2.26-1.78-1.77l-8.48 3.69c-1.24.54-1 2.37.33 2.57l2.92.45c.15.03.27.14.29.3l.45 2.91c.21 1.34 2.03 1.58 2.57.33zm-1.26-.58c.01-.01.02-.01.02-.01h.01s.02.01.03.02.01.02.01.03v.02l-3.7 8.49c0 .01-.01.02-.01.02h-.01s-.01.01-.03.01c-.02-.01-.03-.01-.03-.02h-.01v-.03l-.45-2.91c-.11-.71-.67-1.27-1.38-1.38l-2.92-.45c-.01 0-.02-.01-.02-.01h-.01c0-.01-.01-.02-.01-.03v-.04h.01c0-.01 0-.01.02-.02z"/></svg>