<svg xmlns="http://www.w3.org/2000/svg" fill="none" viewBox="0 0 24 24" focusable="false"><defs><clipPath id="Address_Book_Outline_svg__a"><path fill="#fff" fill-opacity="0" d="M0 0h24v24H0z"/></clipPath></defs><g clip-path="url(#Address_Book_Outline_svg__a)"><path fill="#74767B" fill-rule="evenodd" d="M8 3C6.34 3 5 4.34 5 6v.35l-1.36-.01c-.36 0-.65.29-.65.65 0 .37.29.65.65.65L5 7.65v3.7l-1.36-.01c-.36 0-.65.29-.65.65 0 .37.29.65.65.65l1.36.01v3.7l-1.36-.01c-.36 0-.65.29-.65.65 0 .37.29.65.65.65l1.36.01V18c0 1.65 1.34 3 3 3h10c1.65 0 3-1.35 3-3V6c0-1.66-1.35-3-3-3zm10 1.29H8c-.94 0-1.7.77-1.7 1.71v12c0 .93.76 1.7 1.7 1.7h10c.93 0 1.7-.77 1.7-1.7V6c0-.94-.77-1.71-1.7-1.71m-5.01 2.35c-1.42-.01-2.54 1.22-2.38 2.63l.13 1.23c.12 1.14 1.07 2 2.21 2.01 1.15.01 2.12-.86 2.25-2l.14-1.23a2.38 2.38 0 0 0-2.35-2.64m.92 3.73.14-1.24c.07-.63-.43-1.19-1.07-1.19a1.07 1.07 0 0 0-1.08 1.19l.13 1.23a.945.945 0 0 0 1.88.01m-4.09 4.52a3.64 3.64 0 0 1 2.86-1.39h.64c1.14 0 2.22.54 2.91 1.45l.19.26c.68.89.04 2.16-1.07 2.16h-4.71c-1.12 0-1.75-1.3-1.05-2.19zm2.86-.09c-.72 0-1.4.33-1.84.89l-.24.3 4.75.08-.15-.33c-.45-.59-1.14-.94-1.88-.94z"/></g></svg>