<svg xmlns="http://www.w3.org/2000/svg" fill="none" viewBox="0 0 24 24" focusable="false"><defs><clipPath id="Address_Book_Solid_svg__a"><path fill="#fff" fill-opacity="0" d="M0 0h24v24H0z"/></clipPath></defs><g clip-path="url(#Address_Book_Solid_svg__a)"><path fill="#74767B" fill-rule="evenodd" d="M8 3C6.34 3 5 4.34 5 6v.35l-1.36-.01c-.36 0-.65.28-.65.65 0 .36.29.65.65.65L5 7.65v3.7l-1.36-.01c-.36 0-.65.28-.65.65 0 .36.29.65.65.65l1.36.01v3.7l-1.36-.01c-.36 0-.65.28-.65.65 0 .36.29.65.65.65l1.36.01V18c0 1.65 1.34 3 3 3h10c1.65 0 3-1.35 3-3V6c0-1.66-1.35-3-3-3zm2.61 6.27c-.16-1.41.96-2.64 2.38-2.63a2.38 2.38 0 0 1 2.35 2.64l-.14 1.23a2.253 2.253 0 0 1-2.25 2 2.24 2.24 0 0 1-2.21-2.01zm-.79 5.62a3.67 3.67 0 0 1 2.86-1.39h.64c1.14 0 2.22.54 2.91 1.46l.19.25c.68.89.04 2.16-1.07 2.16h-4.71c-1.12 0-1.75-1.3-1.05-2.18z"/></g></svg>