<svg xmlns="http://www.w3.org/2000/svg" fill="none" viewBox="0 0 24 24" focusable="false"><defs><clipPath id="Admin_Outline_svg__a"><path fill="#fff" fill-opacity="0" d="M0 0h24v24H0z"/></clipPath></defs><g clip-path="url(#Admin_Outline_svg__a)"><path fill="#717681" fill-rule="evenodd" d="M18.94 6.87c2.95 4 2.1 9.63-1.89 12.58-4 2.96-9.64 2.11-12.59-1.89S2.36 7.93 6.35 4.97c4-2.95 9.64-2.1 12.59 1.9m-2.67 11.54c3.42-2.53 4.15-7.35 1.62-10.77A7.687 7.687 0 0 0 7.13 6.02a7.69 7.69 0 0 0-2.99 7.66l2.24-1.66c.01 0 .04-.03.04-.09.08-1.52.82-3 2.14-3.97a5.28 5.28 0 0 1 5.32-.57c.46.21.7.63.71 1.06.02.42-.17.84-.54 1.1l-2.53 1.88c-.02.01-.03.04-.01.06l.82 1.12c.02.02.05.02.07.01l2.53-1.87c.37-.27.82-.33 1.22-.2.4.15.74.5.8 1 .23 1.83-.51 3.74-2.11 4.92a5.3 5.3 0 0 1-4.43.87c-.06-.01-.09 0-.1.01l-2.24 1.66c2.54 1.35 5.74 1.22 8.2-.6m-9.36-.16 2.63-1.95c.36-.26.81-.31 1.19-.22a3.99 3.99 0 0 0 4.94-4.26l-2.5 1.84c-.6.45-1.44.32-1.89-.28l-.82-1.11c-.44-.6-.31-1.45.29-1.89l2.49-1.85A4 4 0 0 0 9.33 9a3.97 3.97 0 0 0-1.61 3c-.02.4-.2.8-.56 1.07l-2.63 1.94c.24.62.56 1.22.98 1.78.41.56.88 1.04 1.4 1.46"/></g></svg>