<svg xmlns="http://www.w3.org/2000/svg" fill="none" viewBox="0 0 24 24" focusable="false"><path fill="#74767B" fill-rule="evenodd" d="M18.94 6.87c2.95 4 2.1 9.63-1.89 12.58-4 2.96-9.64 2.11-12.59-1.89S2.36 7.93 6.35 4.97c4-2.95 9.64-2.1 12.59 1.9m-2.67 11.54c3.42-2.53 4.15-7.35 1.62-10.77A7.687 7.687 0 0 0 7.13 6.02a7.7 7.7 0 0 0-2.82 8.35l2.46-1.82c.18-.14.29-.35.3-.58.07-1.34.71-2.63 1.87-3.49a4.67 4.67 0 0 1 4.67-.5c.43.2.44.77.06 1.05l-2.54 1.87c-.31.23-.38.67-.15.98l.83 1.11c.23.31.66.38.98.15l2.53-1.87c.38-.28.92-.11.98.36.21 1.61-.45 3.28-1.84 4.31a4.61 4.61 0 0 1-3.89.77.76.76 0 0 0-.64.12l-2.47 1.82a7.71 7.71 0 0 0 8.81-.24"/></svg>