<svg xmlns="http://www.w3.org/2000/svg" fill="none" viewBox="0 0 24 24" focusable="false"><path fill="#717681" fill-rule="evenodd" d="M12 21a9 9 0 1 0 0-18 9 9 0 0 0 0 18m-3.388-6.637c0-.18.07-.35.21-.48.27-.24.68-.22.92.04l2.248 2.5 2.156-2.496a.65.65 0 0 1 .92-.04c.26.24.28.65.04.92l-2.596 2.986c-.28.31-.76.31-1.04 0l-2.688-2.99a.63.63 0 0 1-.17-.44m6.51-4.224c.14-.13.21-.3.21-.48 0-.16-.05-.31-.17-.44l-2.689-2.99a.7.7 0 0 0-1.04 0L8.837 9.215c-.24.27-.22.68.04.92.27.24.68.23.92-.04l2.156-2.496 2.248 2.5c.24.26.65.28.92.04" clip-rule="evenodd"/></svg>