<svg xmlns="http://www.w3.org/2000/svg" fill="none" viewBox="0 0 24 24" focusable="false"><defs><clipPath id="Arrow_Down_Two_Outline_svg__a"><path fill="#fff" fill-opacity="0" d="M0 0h24v24H0z"/></clipPath></defs><g clip-path="url(#Arrow_Down_Two_Outline_svg__a)"><path fill="#74767B" fill-rule="evenodd" d="M19.46 1.79a1.07 1.07 0 0 1 1.7.18c.23.41.18.92-.14 1.26l-3.4 3.7a.648.648 0 0 0 .47 1.09h4.27c.36 0 .65-.29.65-.65s-.29-.65-.65-.65h-2.78l2.4-2.61c.7-.76.83-1.9.3-2.79-.8-1.37-2.7-1.58-3.78-.41l-.39.43c-.24.26-.22.67.04.91.27.25.68.23.92-.04zM6.03 11.02c-.14.13-.21.3-.21.48 0 .16.05.31.17.44l5.49 6.04c.28.31.76.31 1.04 0l5.49-6.04c.24-.27.22-.68-.04-.92a.65.65 0 0 0-.92.04l-4.4 4.83V5c0-.36-.3-.65-.65-.65-.36 0-.65.29-.65.65v10.89l-4.4-4.83a.66.66 0 0 0-.92-.04"/></g></svg>