<svg xmlns="http://www.w3.org/2000/svg" fill="none" viewBox="0 0 24 24" focusable="false"><defs><clipPath id="Arrow_Up_Down_Outline_svg__a"><path fill="#fff" fill-opacity="0" d="M0 0h24v24H0z"/></clipPath></defs><g clip-path="url(#Arrow_Up_Down_Outline_svg__a)"><path fill="#717681" fill-rule="evenodd" d="M16.21 8.69c0 .18-.07.35-.21.48-.27.24-.68.22-.92-.04l-3.15-3.49-3.02 3.49a.65.65 0 0 1-.92.04.66.66 0 0 1-.04-.92l3.46-3.98c.28-.31.76-.31 1.04 0l3.59 3.98c.12.13.17.28.17.44m-8.43 6.66c0-.18.07-.35.21-.48.27-.24.68-.22.92.04l3.15 3.49 3.02-3.49a.65.65 0 0 1 .92-.04c.26.24.28.65.04.92l-3.46 3.98c-.28.31-.76.31-1.04 0l-3.59-3.98a.63.63 0 0 1-.17-.44"/></g></svg>