<svg xmlns="http://www.w3.org/2000/svg" fill="none" viewBox="0 0 24 24" focusable="false"><defs><clipPath id="Arrow_Up_Down_Solid_svg__a"><path fill="#fff" fill-opacity="0" d="M0 24h24V0H0z"/></clipPath></defs><g clip-path="url(#Arrow_Up_Down_Solid_svg__a)"><path fill="#74767B" fill-rule="evenodd" d="M12 21a9 9 0 0 0 9-9c0-4.98-4.03-9-9-9-4.98 0-9 4.02-9 9 0 4.97 4.02 9 9 9m-3.39-6.64c0-.18.07-.35.21-.48.27-.24.68-.22.92.04l2.25 2.5 2.15-2.5a.65.65 0 0 1 .92-.04c.26.24.28.65.04.92l-2.59 2.99c-.28.31-.76.31-1.04 0L8.78 14.8a.63.63 0 0 1-.17-.44m6.51-4.23c.14-.13.21-.3.21-.48 0-.16-.05-.31-.17-.44l-2.69-2.99a.7.7 0 0 0-1.04 0l-2.6 2.99c-.24.27-.22.68.04.92.27.24.68.23.92-.04l2.16-2.5 2.25 2.5c.24.26.65.28.92.04"/></g></svg>