<svg xmlns="http://www.w3.org/2000/svg" fill="none" viewBox="0 0 24 24" focusable="false"><defs><clipPath id="Arrow_Up_Two_Solid_svg__a"><path fill="#fff" fill-opacity="0" d="M0 0h24v24H0z"/></clipPath></defs><g clip-path="url(#Arrow_Up_Two_Solid_svg__a)"><path fill="#717681" fill-rule="evenodd" d="M20.51 12.54c.2.12.47 0 .48-.23 0-.11.01-.21.01-.31 0-4.98-4.03-9-9-9-4.98 0-9 4.02-9 9 0 4.97 4.02 9 9 9 .1 0 .2-.01.31-.01.23-.01.35-.28.23-.48-.44-.72-.73-1.54-.81-2.42a.65.65 0 0 1-.38-.59V9.09L8.55 12c-.25.26-.66.26-.92.02a.65.65 0 0 1-.01-.92l3.91-4.07c.09-.09.19-.15.31-.18.02 0 .03-.01.05-.01.06-.01.13-.01.19 0 .02 0 .04 0 .06.01.12.02.23.09.32.18l4.51 4.69c.18-.02.35-.02.53-.02 1.1 0 2.13.3 3.01.84m-7.87 1.77V9.09l2.85 2.96a5.84 5.84 0 0 0-2.85 2.26M17.5 22c2.48 0 4.5-2.02 4.5-4.5a4.5 4.5 0 1 0-4.5 4.5m-.47-5.74a.55.55 0 0 1 .81.11c.16.23.13.54-.07.73l-1.93 1.81c-.19.18-.25.46-.16.71.1.25.34.41.61.41h2.68c.36 0 .65-.29.65-.65s-.29-.65-.65-.65h-1.04l.73-.69c.67-.63.78-1.66.25-2.41-.62-.9-1.88-1.07-2.72-.37l-.32.27c-.27.23-.31.64-.08.91.23.28.64.32.91.09z"/></g></svg>