<svg xmlns="http://www.w3.org/2000/svg" fill="none" viewBox="0 0 24 24" focusable="false"><path fill="#717681" fill-rule="evenodd" d="M3 12c0 4.97 4.02 9 9 9a9 9 0 0 0 9-9c0-4.98-4.03-9-9-9-4.98 0-9 4.02-9 9m8.82 1.13c.14.13.21.3.21.48 0 .16-.05.31-.17.44l-2.58 2.71c-.28.31-.76.31-1.04 0l-2.46-2.71a.66.66 0 0 1 .04-.92.65.65 0 0 1 .92.04l1.37 1.55c0-1.85.01-2.49.01-3.26.01-.62.01-1.33.01-2.84 0-.36.29-.65.65-.65s.65.29.65.65l-.01 6.1 1.48-1.55c.24-.26.65-.28.92-.04m6.35-2.28c.14-.13.21-.3.21-.48 0-.16-.05-.31-.17-.44l-2.58-2.71a.7.7 0 0 0-1.04 0l-2.46 2.71c-.24.27-.22.68.04.92.27.24.68.23.92-.04l1.37-1.55c0 1.82.01 2.47.01 3.21 0 .63.01 1.32.01 2.87 0 .36.29.65.65.65s.65-.3.65-.65l-.02-6.08 1.49 1.55c.24.26.65.28.92.04"/></svg>