<svg xmlns="http://www.w3.org/2000/svg" fill="none" viewBox="0 0 24 24" focusable="false"><path fill="#717681" fill-rule="evenodd" d="M20.518 12.546c.2.122.469 0 .477-.234Q21 12.157 21 12a9 9 0 1 0-8.688 8.995c.234-.008.356-.277.234-.477a5.8 5.8 0 0 1-.816-2.427.65.65 0 0 1-.38-.591V9.1l-2.793 2.902a.65.65 0 0 1-.937-.9l3.911-4.066a.647.647 0 0 1 .938 0l4.51 4.687q.257-.023.521-.023c1.106 0 2.14.31 3.018.846m-7.868 1.772V9.1l2.845 2.956a5.8 5.8 0 0 0-2.845 2.262M22 17.5a4.5 4.5 0 1 1-9 0 4.5 4.5 0 0 1 9 0m-3.768-2.414a.65.65 0 0 1 .285.538v3.766a.65.65 0 0 1-1.3 0v-2.808l-.962.383a.65.65 0 0 1-.48-1.208l1.852-.737a.65.65 0 0 1 .605.066" clip-rule="evenodd"/></svg>