<svg xmlns="http://www.w3.org/2000/svg" fill="none" viewBox="0 0 24 24" focusable="false"><path fill="#717681" fill-rule="evenodd" d="M2 7a3 3 0 0 1 3-3h14a3 3 0 0 1 3 3v10a3 3 0 0 1-3 3H5a3 3 0 0 1-3-3V7Zm6.43 1.433 1.434-1.272a.674.674 0 1 0-.894-1.008L6.214 8.598a.672.672 0 0 0-.226.51.672.672 0 0 0 .226.508l2.756 2.445a.674.674 0 1 0 .894-1.008L8.43 9.781h7.456a.674.674 0 1 0 0-1.348H8.43Zm5.698 4.503 1.435 1.272H8.218a.674.674 0 0 0 0 1.348h7.345l-1.435 1.272a.674.674 0 1 0 .895 1.008l2.755-2.445a.672.672 0 0 0 .227-.509.672.672 0 0 0-.227-.51l-2.755-2.444a.674.674 0 0 0-.895 1.008Z" clip-rule="evenodd"/></svg>