<svg xmlns="http://www.w3.org/2000/svg" width="24" height="24" fill="none"><path fill="#717681" fill-rule="evenodd" d="M19.466 1.797a1.062 1.062 0 1 1 1.563 1.438l-3.408 3.701a.65.65 0 0 0 .479 1.09h4.265a.65.65 0 1 0 0-1.3h-2.784l2.404-2.61A2.362 2.362 0 1 0 18.508.916l-.388.423a.65.65 0 0 0 .957.88l.389-.423ZM5.82 11.96c0 .18.07.35.21.48.27.24.68.22.92-.04l4.4-4.835V18.46a.65.65 0 1 0 1.3 0V7.565l4.4 4.835c.24.27.65.28.92.04.26-.24.28-.65.04-.92l-5.49-6.04a.698.698 0 0 0-1.04 0l-5.49 6.04c-.12.13-.17.28-.17.44Z" clip-rule="evenodd"/></svg>