<svg xmlns="http://www.w3.org/2000/svg" fill="none" viewBox="0 0 24 24" focusable="false"><path fill="#74767B" fill-rule="evenodd" d="M20.99 12.31c-.01.23-.28.35-.48.23-.88-.54-1.91-.84-3.01-.84-2.03 0-3.82 1.04-4.86 2.61V8c0-.36-.29-.65-.64-.65-.36 0-.65.29-.65.65v6.95l-2.8-2.9a.65.65 0 0 0-.92-.02c-.26.25-.26.66-.01.92l3.91 4.06c.05.06.11.1.18.14-.01.11-.01.23-.01.35 0 1.1.3 2.13.84 3.01.12.2 0 .47-.23.48-.11 0-.21.01-.31.01-4.98 0-9-4.03-9-9 0-4.98 4.02-9 9-9 4.97 0 9 4.02 9 9 0 .1-.01.2-.01.31M22 17.5c0 2.48-2.02 4.5-4.5 4.5a4.5 4.5 0 1 1 4.5-4.5m-4.16-1.13a.55.55 0 0 0-.81-.11l-.33.27a.64.64 0 0 1-.91-.09.65.65 0 0 1 .08-.91l.32-.27c.84-.7 2.1-.53 2.72.37.53.75.42 1.78-.25 2.41l-.73.69h1.04c.36 0 .65.29.65.65s-.29.65-.65.65h-2.68c-.27 0-.51-.16-.61-.41a.67.67 0 0 1 .16-.71l1.93-1.81c.2-.19.23-.5.07-.73"/></svg>