<svg xmlns="http://www.w3.org/2000/svg" fill="none" viewBox="0 0 24 24" focusable="false"><defs><clipPath id="Arrow_Cross_Solid_svg__a"><path fill="#fff" fill-opacity="0" d="M0 0h24v24H0z"/></clipPath></defs><g clip-path="url(#Arrow_Cross_Solid_svg__a)"><path fill="#74767B" fill-rule="evenodd" d="M5.63 18.36a9.01 9.01 0 0 1 0-12.73 9.01 9.01 0 0 1 12.73 0 9.01 9.01 0 0 1 0 12.73 9.01 9.01 0 0 1-12.73 0m9.54-3.3c-.36-.03-.68-.29-.67-.64v-4.09l-4.91 4.91a.64.64 0 0 1-.92 0 .64.64 0 0 1 0-.92l4.91-4.9H9.53c-.36.02-.64-.26-.66-.62-.02-.35.25-.71.61-.73h5.63c.42-.02.76.31.74.73v5.63a.65.65 0 0 1-.68.63"/></g></svg>