<svg xmlns="http://www.w3.org/2000/svg" fill="none" viewBox="0 0 24 24" focusable="false"><path fill="#717681" fill-rule="evenodd" d="M8.87 11.35c-.13.14-.3.21-.48.21-.16 0-.31-.05-.44-.17L5.24 8.81a.7.7 0 0 1 0-1.04l2.71-2.46c.27-.24.68-.22.92.04.24.27.23.68-.04.92L7.28 7.64c3.36 0 6.71.02 10.07.02.36 0 .65.29.65.65s-.29.65-.65.65L7.27 8.95l1.56 1.48c.26.24.28.65.04.92m6.27 7.35c.13.14.3.21.48.21.16 0 .31-.05.44-.17l2.71-2.58c.31-.28.31-.76 0-1.04l-2.71-2.46a.66.66 0 0 0-.92.04.65.65 0 0 0 .04.92l1.55 1.37c-3.36 0-6.72.01-10.08.02-.36 0-.65.29-.65.65s.3.65.66.65l10.08-.02-1.56 1.49c-.26.24-.28.65-.04.92"/></svg>