<svg xmlns="http://www.w3.org/2000/svg" fill="none" viewBox="0 0 24 24" focusable="false"><defs><clipPath id="Arrow_Up_Two_Outline_svg__a"><path fill="#fff" fill-opacity="0" d="M0 0h24v24H0z"/></clipPath></defs><g clip-path="url(#Arrow_Up_Two_Outline_svg__a)"><path fill="#717681" fill-rule="evenodd" d="M19.46 1.79a1.07 1.07 0 0 1 1.7.18c.23.41.18.92-.14 1.26l-3.4 3.7a.648.648 0 0 0 .47 1.09h4.27c.36 0 .65-.29.65-.65 0-.36-.29-.65-.65-.65h-2.78l2.4-2.61c.7-.76.83-1.9.3-2.79-.8-1.37-2.7-1.58-3.78-.41l-.39.43c-.24.26-.22.67.04.91.27.25.68.23.92-.04zM5.82 11.96c0 .18.07.35.21.48.27.24.68.22.92-.04l4.4-4.84v10.9c0 .35.29.65.65.65.35 0 .65-.3.65-.65V7.56l4.4 4.84c.24.27.65.28.92.04.26-.24.28-.65.04-.92l-5.49-6.04a.698.698 0 0 0-1.04 0l-5.49 6.04c-.12.13-.17.28-.17.44"/></g></svg>