<svg xmlns="http://www.w3.org/2000/svg" fill="none" viewBox="0 0 24 24" focusable="false"><path fill="#717681" fill-rule="evenodd" d="M20.995 12.312c-.008.234-.277.356-.477.234A5.773 5.773 0 0 0 17.5 11.7a5.795 5.795 0 0 0-4.85 2.618V8a.65.65 0 1 0-1.3 0v6.956l-2.793-2.903a.65.65 0 1 0-.937.902l3.911 4.065c.054.055.114.099.18.131a5.773 5.773 0 0 0 .836 3.367c.121.2 0 .469-.235.477a9 9 0 1 1 8.682-8.682M22 17.5a4.5 4.5 0 1 1-9 0 4.5 4.5 0 0 1 9 0m-3.771-2.416a.65.65 0 0 1 .288.54v3.766a.65.65 0 1 1-1.3 0v-2.796l-.896.368a.65.65 0 1 1-.494-1.202l1.793-.737a.65.65 0 0 1 .609.061" clip-rule="evenodd"/></svg>