<svg xmlns="http://www.w3.org/2000/svg" fill="none" viewBox="0 0 24 24" focusable="false"><defs><clipPath id="Arrow_Down_One_Outline_svg__a"><path fill="#fff" fill-opacity="0" d="M0 0h24v24H0z"/></clipPath></defs><g clip-path="url(#Arrow_Down_One_Outline_svg__a)"><path fill="#717681" fill-rule="evenodd" d="M20.95.69c0-.23-.13-.45-.33-.57a.674.674 0 0 0-.66.02L17.3 1.8c-.3.19-.39.59-.2.9.19.3.59.39.89.2l1.66-1.03v5.5c0 .36.29.65.65.65.36 0 .65-.29.65-.65zM6.03 11.02c-.14.13-.21.3-.21.48 0 .16.05.31.17.44l5.49 6.04c.28.31.76.31 1.04 0l5.49-6.04c.24-.27.22-.68-.04-.92a.65.65 0 0 0-.92.04l-4.4 4.83V5c0-.36-.3-.65-.65-.65-.36 0-.65.29-.65.65v10.89l-4.4-4.83a.658.658 0 0 0-.92-.04"/></g></svg>