<svg xmlns="http://www.w3.org/2000/svg" fill="none" viewBox="0 0 24 24" focusable="false"><defs><clipPath id="Arrows_Horizontal_Solid_svg__a"><path fill="#fff" fill-opacity="0" d="M0 0h24v24H0z"/></clipPath></defs><g clip-path="url(#Arrows_Horizontal_Solid_svg__a)"><path fill="#717681" fill-rule="evenodd" d="M2 7c0-1.66 1.34-3 3-3h14c1.65 0 3 1.34 3 3v10c0 1.65-1.35 3-3 3H5c-1.66 0-3-1.35-3-3zm6.42 1.43 1.44-1.27c.28-.25.3-.68.06-.96a.69.69 0 0 0-.96-.05L6.21 8.59c-.15.14-.23.32-.23.51s.08.38.23.51l2.75 2.45c.28.24.71.22.96-.06.24-.28.22-.7-.06-.95L8.42 9.78h7.46c.37 0 .67-.31.67-.68 0-.37-.3-.67-.67-.67zm5.7 4.5 1.44 1.27H8.21c-.37 0-.67.3-.67.68 0 .37.3.67.67.67h7.35l-1.44 1.27c-.27.25-.3.68-.05.95.24.28.67.31.95.06l2.75-2.44a.71.71 0 0 0 .23-.51c0-.19-.08-.38-.23-.51l-2.75-2.45a.677.677 0 0 0-.9 1.01"/></g></svg>