<svg xmlns="http://www.w3.org/2000/svg" fill="none" viewBox="0 0 24 24" focusable="false"><defs><clipPath id="Arrow_Down_Outline_svg__a"><path fill="#fff" fill-opacity="0" d="M0 0h24v24H0z"/></clipPath></defs><g clip-path="url(#Arrow_Down_Outline_svg__a)"><path fill="#717681" d="M5.82 11.5c0-.18.07-.35.21-.48.27-.24.68-.22.92.04l4.4 4.83V4.99c0-.35.29-.65.65-.65.35 0 .65.3.65.65v10.9l4.4-4.83a.65.65 0 0 1 .92-.04c.26.24.28.65.04.92l-5.49 6.04c-.28.31-.76.31-1.04 0l-5.49-6.04a.63.63 0 0 1-.17-.44"/></g></svg>