<svg xmlns="http://www.w3.org/2000/svg" fill="none" viewBox="0 0 24 24" focusable="false"><path fill="none" d="M0 0h24v24H0z"/><path fill="#74767B" fill-rule="evenodd" d="M21.02 12.01c0-4.98-4.04-9.01-9.01-9.01C7.03 3 3 7.03 3 12.01c0 4.97 4.03 9.01 9.01 9.01 1.02 0 2-.18 2.92-.49.24-.09.4-.32.4-.57 0-.46-.49-.77-.92-.63-.76.25-1.57.39-2.4.39-4.26 0-7.71-3.46-7.71-7.71 0-4.26 3.45-7.71 7.71-7.71 4.25 0 7.71 3.45 7.71 7.71 0 .68-.09 1.35-.26 1.98-.01.05-.03.1-.05.15-.04.15-.08.29-.13.44-.1.23-.23.41-.38.55-.25.22-.6.34-1.04.34q-.465 0-.78-.21c-.08-.06-.16-.12-.23-.2-.12-.13-.21-.28-.28-.47-.07-.2-.1-.41-.1-.65.02-.79 0-1.49-.07-2.12-.08-.69-.23-1.31-.44-1.85-.24-.64-.58-1.18-1.01-1.64-.04-.05-.09-.09-.13-.14a4.6 4.6 0 0 0-.85-.67c-.14-.08-.29-.16-.44-.23-.31-.15-.63-.25-.96-.32-.28-.06-.56-.08-.84-.08-.29 0-.57.02-.85.08-.33.07-.65.17-.96.32-.15.07-.3.15-.44.23-.37.23-.71.52-1.02.86-.13.14-.25.29-.36.44-.25.35-.45.74-.61 1.15-.08.21-.15.42-.2.64-.1.42-.15.85-.15 1.3q0 .66.15 1.29c.05.22.12.43.2.64.16.41.36.8.61 1.15.11.15.23.3.36.44.31.34.65.63 1.02.86.14.08.29.16.44.23.31.15.63.25.96.32a4.212 4.212 0 0 0 1.72 0c.32-.07.63-.18.94-.32A4.803 4.803 0 0 0 15 15.43c.12-.13.23-.28.34-.42.1.28.25.55.42.78.04.05.09.1.14.15q.165.195.36.33c.16.11.33.21.51.28.31.13.72.22 1.09.22.62 0 1.15-.15 1.59-.43.11-.07.22-.15.32-.24.43-.39.74-.94.91-1.65.22-.78.34-1.6.34-2.44m-6.99-2.76c-.05-.06-.11-.11-.16-.16-.26-.25-.56-.45-.9-.62-.22-.1-.45-.19-.68-.23-.19-.04-.37-.05-.56-.05-.2 0-.38.01-.57.05-.23.04-.47.12-.69.23-.07.03-.15.07-.22.11a3.3 3.3 0 0 0-1.04.93c-.21.28-.38.58-.51.92-.05.14-.09.28-.13.42-.09.34-.14.69-.14 1.06 0 .36.05.71.14 1.05.04.14.08.28.13.42.13.34.3.64.51.92a3.262 3.262 0 0 0 1.04.93c.07.04.15.08.22.11.22.11.46.19.69.23.19.04.37.06.57.06s.39-.02.59-.06c.23-.05.45-.12.66-.23.08-.03.16-.07.23-.11.3-.17.57-.4.82-.67a3.756 3.756 0 0 0 .72-1.18q.075-.195.12-.39.15-.525.15-1.08c0-.37-.05-.72-.14-1.06-.04-.14-.08-.28-.13-.42-.13-.34-.3-.64-.51-.92-.07-.09-.14-.18-.21-.26"/></svg>