<svg xmlns="http://www.w3.org/2000/svg" fill="none" viewBox="0 0 24 24" focusable="false"><path fill="#74767B" fill-rule="evenodd" d="M4.35 11.91a7.64 7.64 0 0 1 7.64-7.64 7.64 7.64 0 0 1 7.64 7.64v.34a1.72 1.72 0 1 1-3.44 0V8.52c0-.36-.29-.65-.65-.65s-.65.29-.65.65v.39a4.174 4.174 0 0 0-7.07 3c0 2.31 1.87 4.18 4.17 4.18 1.5 0 2.81-.79 3.54-1.97.56.7 1.42 1.15 2.38 1.15 1.67 0 3.02-1.35 3.02-3.02v-.34c0-4.94-4-8.94-8.94-8.94s-8.94 4-8.94 8.94 3.97 8.95 8.94 8.95c2.84 0 4.89-1.14 6.11-2.1.29-.22.33-.63.11-.91a.65.65 0 0 0-.91-.11 8.5 8.5 0 0 1-5.31 1.82c-4.25 0-7.64-3.42-7.64-7.65m10.51 0c0 1.59-1.28 2.88-2.87 2.88s-2.87-1.29-2.87-2.88a2.87 2.87 0 0 1 5.74 0"/></svg>