<svg xmlns="http://www.w3.org/2000/svg" fill="none" viewBox="0 0 24 24" focusable="false"><defs><clipPath id="At_Solid_svg__a"><path fill="#fff" fill-opacity="0" d="M0 24h24V0H0z"/></clipPath></defs><g clip-path="url(#At_Solid_svg__a)"><path fill="#74767B" fill-rule="evenodd" d="M21 12a9 9 0 0 1-9 9c-4.98 0-9-4.03-9-9 0-4.98 4.02-9 9-9 4.97 0 9 4.02 9 9m-9.01-6.22c-3.38 0-6.13 2.75-6.13 6.13 0 3.39 2.72 6.13 6.13 6.13 1.99 0 3.42-.79 4.27-1.46a.65.65 0 0 1 .91.11c.22.28.17.69-.11.91-1.01.8-2.71 1.74-5.07 1.74-4.13 0-7.43-3.33-7.43-7.43s3.33-7.43 7.43-7.43 7.43 3.33 7.43 7.43v.28a2.59 2.59 0 0 1-2.59 2.59c-.81 0-1.54-.37-2.01-.96-.61.91-1.65 1.5-2.83 1.5-1.88 0-3.41-1.52-3.41-3.41 0-1.88 1.53-3.41 3.41-3.41.86 0 1.65.32 2.25.85v-.21c0-.36.29-.65.65-.65s.65.29.65.65v3.05c0 .71.58 1.29 1.29 1.29s1.29-.58 1.29-1.29v-.28a6.13 6.13 0 0 0-6.13-6.13m2.11 6.13a2.11 2.11 0 0 1-4.22 0c0-1.16.95-2.11 2.11-2.11 1.17 0 2.11.95 2.11 2.11"/></g></svg>