<svg xmlns="http://www.w3.org/2000/svg" fill="none" viewBox="0 0 24 24" focusable="false"><path fill="#717681" fill-rule="evenodd" d="M15.856 5.212a2.35 2.35 0 0 0-3.323 0L6.38 11.364a3.65 3.65 0 0 0 0 5.162l1.343 1.343a3.65 3.65 0 0 0 5.162 0l5.798-5.798a.65.65 0 0 1 .92.919l-5.799 5.798a4.95 4.95 0 0 1-7 0l-1.343-1.343a4.95 4.95 0 0 1 0-7l6.151-6.152a3.65 3.65 0 0 1 5.162 0l.707.707a3.65 3.65 0 0 1 0 5.162l-5.798 5.798a1.95 1.95 0 0 1-2.758 0l-.636-.637a1.95 1.95 0 0 1 0-2.757l5.445-5.445a.65.65 0 1 1 .919.92l-5.445 5.444a.65.65 0 0 0 0 .92l.637.636a.65.65 0 0 0 .919 0l5.798-5.799a2.35 2.35 0 0 0 0-3.323l-.707-.707" clip-rule="evenodd"/></svg>