<svg xmlns="http://www.w3.org/2000/svg" fill="none" viewBox="0 0 24 24" focusable="false"><defs><clipPath id="Attach_File_Solid_svg__a"><path fill="#fff" fill-opacity="0" d="M0 0h24v24H0z"/></clipPath></defs><g clip-path="url(#Attach_File_Solid_svg__a)"><path fill="#74767B" fill-rule="evenodd" d="M3 12c0-4.98 4.02-9 9-9 4.97 0 9 4.02 9 9a9 9 0 0 1-9 9c-4.98 0-9-4.03-9-9m5.06 3.97a3.434 3.434 0 0 0 4.87 0l4.52-4.52c.26-.25.26-.66 0-.91a.63.63 0 0 0-.91 0l-4.52 4.52c-.84.84-2.21.84-3.05 0-.83-.84-.83-2.21 0-3.04l3.9-3.9a.64.64 0 0 1 .92 0l.14.14c.26.25.26.66 0 .92l-3.97 3.97c-.25.26-.25.67 0 .92s.66.25.92 0l3.97-3.97c.77-.77.77-2 0-2.76l-.14-.14c-.76-.77-1.99-.77-2.75 0l-3.9 3.9a3.434 3.434 0 0 0 0 4.87"/></g></svg>