<svg xmlns="http://www.w3.org/2000/svg" fill="none" viewBox="0 0 24 24" focusable="false"><defs><clipPath id="Balance_Outline_svg__a"><path fill="#fff" fill-opacity="0" d="M0 0h24v24H0z"/></clipPath></defs><g clip-path="url(#Balance_Outline_svg__a)"><path fill="#717681" fill-rule="evenodd" d="M14.39 6.38c-.28.97-1.18 1.68-2.24 1.68-1.07 0-1.96-.71-2.25-1.68H7.52l3.49 9.74c.02.08.04.16.04.24l-.03.38c-.03.27-.09.54-.17.8a4.273 4.273 0 0 1-4.06 2.96c-1.9 0-3.51-1.25-4.06-2.96a4.23 4.23 0 0 1-.2-1.18c0-.08.01-.16.04-.24L6.32 5.65c.01-.04.02-.06.04-.09.07-.28.33-.48.63-.48H9.9c.29-.97 1.18-1.68 2.25-1.68 1.06 0 1.96.71 2.24 1.68H17c.3 0 .56.2.63.48.02.03.03.05.04.09l3.75 10.47c.03.08.04.16.04.24-.01.41-.08.8-.2 1.18a4.273 4.273 0 0 1-4.06 2.96c-1.9 0-3.51-1.25-4.06-2.96-.06-.19-.11-.39-.14-.6a5.42 5.42 0 0 1-.06-.58c0-.08.02-.16.04-.24l3.49-9.74zm-1.21-.65c0 .57-.46 1.03-1.03 1.03-.57 0-1.04-.46-1.04-1.03 0-.57.47-1.03 1.04-1.03.57 0 1.03.46 1.03 1.03M6.79 8.19l2.88 8.05H3.91zm0 11.01c1.17 0 2.18-.68 2.66-1.66H4.13c.48.98 1.49 1.66 2.66 1.66m13.29-2.96L17.2 8.19l-2.88 8.05zm-.22 1.3a2.962 2.962 0 0 1-5.32 0z"/></g></svg>