<svg xmlns="http://www.w3.org/2000/svg" fill="none" viewBox="0 0 24 24" focusable="false"><path fill="#717681" fill-rule="evenodd" d="M17 5.08h-2.61a2.334 2.334 0 0 0-2.24-1.68c-1.07 0-1.96.71-2.25 1.68H6.99c-.3 0-.56.2-.63.48-.02.03-.03.05-.04.09L2.53 16.23v.01c0 2.35 1.91 4.26 4.26 4.26 2.31 0 4.19-1.84 4.26-4.14 0-.08-.02-.16-.04-.24L7.52 6.38H9.9c.29.97 1.18 1.68 2.25 1.68 1.06 0 1.96-.71 2.24-1.68h2.08l-3.49 9.74c-.02.08-.04.16-.04.24.07 2.3 1.95 4.14 4.26 4.14s4.2-1.84 4.26-4.14c0-.08-.01-.16-.04-.24L17.67 5.65a.3.3 0 0 0-.04-.09.645.645 0 0 0-.63-.48M9.67 16.24 6.79 8.19l-2.88 8.05zm10.41 0h-5.76l2.88-8.05z"/></svg>