<svg xmlns="http://www.w3.org/2000/svg" fill="none" viewBox="0 0 24 24" focusable="false"><path fill="#717681" fill-rule="evenodd" d="M5.79 2H5C3.34 2 2 3.34 2 5v.69c0 .35.29.65.64.65.36 0 .65-.3.65-.65V5c0-.94.77-1.71 1.71-1.71h.79c.36 0 .65-.29.65-.64 0-.36-.29-.65-.65-.65m15.56 4.34c.35 0 .65-.3.65-.65V5c0-1.66-1.35-3-3-3h-.59c-.36 0-.65.29-.65.65 0 .35.29.64.65.64H19c.93 0 1.7.77 1.7 1.71v.69c0 .35.29.65.65.65M5.8 7.94c-.36 0-.65.29-.65.65v6.81c0 .36.29.65.65.65h1.27c.36 0 .65-.29.65-.65V8.59c0-.36-.29-.65-.65-.65zm8.77 0c-.36 0-.65.29-.65.65v6.81c0 .36.29.65.65.65h1.27c.36 0 .65-.29.65-.65V8.59c0-.36-.29-.65-.65-.65zm4.53.65c0-.36-.29-.65-.65-.65s-.65.29-.65.65v6.81c0 .36.29.65.65.65s.65-.29.65-.65zm-7.14 0c0-.36-.29-.65-.65-.65s-.65.29-.65.65v6.81c0 .36.29.65.65.65s.65-.29.65-.65zm-9.32 9.06c-.35 0-.64.29-.64.65v.7c0 1.65 1.34 3 3 3h.79c.36 0 .65-.3.65-.65 0-.36-.29-.65-.65-.65H5c-.94 0-1.71-.77-1.71-1.7v-.7c0-.36-.29-.65-.65-.65m18.71 0c-.36 0-.65.29-.65.65v.7c0 .93-.77 1.7-1.7 1.7h-.59c-.36 0-.65.29-.65.65 0 .35.29.65.65.65H19c1.65 0 3-1.35 3-3v-.7c0-.36-.3-.65-.65-.65"/></svg>