<svg xmlns="http://www.w3.org/2000/svg" fill="none" viewBox="0 0 24 24" focusable="false"><path fill="#717681" fill-rule="evenodd" d="M5.05 1.99h14c1.65 0 3 1.35 3 3v14c0 1.66-1.35 3-3 3h-14c-1.66 0-3-1.34-3-3v-14c0-1.65 1.34-3 3-3m.69 5.95c-.36 0-.65.29-.65.65v6.81c0 .36.29.65.65.65h1.28c.35 0 .65-.29.65-.65V8.59c0-.36-.3-.65-.65-.65zm12.65 0c.36 0 .65.29.65.65v6.81c0 .36-.29.65-.65.65s-.65-.29-.65-.65V8.59c0-.36.29-.65.65-.65m-4.53.65c0-.36.29-.65.65-.65h1.27c.36 0 .65.29.65.65v6.81c0 .36-.29.65-.65.65h-1.27c-.36 0-.65-.29-.65-.65zm-2.61-.65c.36 0 .65.29.65.65v6.81c0 .36-.29.65-.65.65s-.65-.29-.65-.65V8.59c0-.36.29-.65.65-.65"/></svg>