<svg xmlns="http://www.w3.org/2000/svg" fill="none" viewBox="0 0 24 24" focusable="false"><path fill="#717681" fill-rule="evenodd" d="M21 10.646a.7.7 0 0 1-.7.7h-6.948a.7.7 0 0 1-.7-.7V3.7a.7.7 0 0 1 .7-.7H18a3 3 0 0 1 3 3zm-5.819-3.259a.65.65 0 0 1 .65-.65h2a.65.65 0 1 1 0 1.3h-2a.65.65 0 0 1-.65-.65M13.352 21a.7.7 0 0 1-.7-.7v-6.954a.7.7 0 0 1 .7-.7H20.3a.7.7 0 0 1 .7.7V18a3 3 0 0 1-3 3zm2.48-5.974a.65.65 0 0 0 0 1.3h2a.65.65 0 1 0 0-1.3zm-.65 2.686a.65.65 0 0 1 .65-.65h2a.65.65 0 1 1 0 1.3h-2a.65.65 0 0 1-.65-.65M10.652 21a.7.7 0 0 0 .7-.7v-6.954a.7.7 0 0 0-.7-.7H3.7a.7.7 0 0 0-.7.7V18a3 3 0 0 0 3 3zM8.71 18.257a.65.65 0 0 1-.92 0l-.6-.6-.601.6a.65.65 0 0 1-.92-.919l.602-.601-.601-.601a.65.65 0 1 1 .919-.92l.6.602.602-.601a.65.65 0 0 1 .92.919l-.602.6.601.602a.65.65 0 0 1 0 .92M3.7 11.346a.7.7 0 0 1-.7-.7V6q0-.156.015-.307A3 3 0 0 1 6 3h4.652a.7.7 0 0 1 .7.7v6.946a.7.7 0 0 1-.7.7zm2.839-2.459a.65.65 0 0 0 1.3 0v-.85h.85a.65.65 0 0 0 0-1.3h-.85v-.85a.65.65 0 0 0-1.3 0v.85h-.85a.65.65 0 0 0 0 1.3h.85z" clip-rule="evenodd"/></svg>