<svg xmlns="http://www.w3.org/2000/svg" fill="none" viewBox="0 0 24 24" focusable="false"><defs><clipPath id="Calculate_Solid_svg__a"><path fill="#fff" fill-opacity="0" d="M0 0h24v24H0z"/></clipPath></defs><g clip-path="url(#Calculate_Solid_svg__a)"><path fill="#74767B" fill-rule="evenodd" d="M3 10.64c0 .39.31.7.7.7h6.95c.38 0 .7-.31.7-.7V3.7c0-.39-.32-.7-.7-.7H6C4.44 3 3.16 4.18 3.01 5.69 3 5.79 3 5.89 3 6zm17.29.7c.39 0 .71-.31.71-.7V6c0-1.66-1.35-3-3-3h-4.65c-.39 0-.7.31-.7.7v6.94c0 .39.31.7.7.7zM7.18 9.53c-.35 0-.65-.29-.65-.65v-.85h-.85c-.35 0-.65-.29-.65-.65s.3-.65.65-.65h.85v-.85c0-.36.3-.65.65-.65.36 0 .65.29.65.65v.85h.85c.36 0 .65.29.65.65s-.29.65-.65.65h-.85v.85c0 .36-.29.65-.65.65m8.65-2.8c-.36 0-.65.29-.65.65s.29.65.65.65h2c.35 0 .65-.29.65-.65s-.3-.65-.65-.65zM10.65 21c.38 0 .7-.32.7-.71v-6.95c0-.39-.32-.7-.7-.7H3.7c-.39 0-.7.31-.7.7V18c0 1.65 1.34 3 3 3zm2-.71c0 .39.31.71.7.71H18c1.65 0 3-1.35 3-3v-4.66c0-.39-.32-.7-.71-.7h-6.94c-.39 0-.7.31-.7.7zm2.53-4.62c0-.36.29-.65.65-.65h2c.35 0 .65.29.65.65s-.3.65-.65.65h-2c-.36 0-.65-.29-.65-.65M8.7 18.25c-.25.26-.66.26-.91 0l-.61-.6-.6.6a.64.64 0 0 1-.92 0 .66.66 0 0 1 0-.92l.6-.6-.6-.6a.66.66 0 0 1 0-.92c.26-.25.67-.25.92 0l.6.6.61-.6c.25-.25.66-.25.91 0 .26.26.26.67 0 .92l-.6.6.6.6c.26.26.26.67 0 .92m7.13-1.19c-.36 0-.65.29-.65.65s.29.65.65.65h2c.35 0 .65-.29.65-.65s-.3-.65-.65-.65z"/></g></svg>