<svg xmlns="http://www.w3.org/2000/svg" fill="none" viewBox="0 0 24 24" focusable="false"><path fill="#74767B" fill-rule="evenodd" d="M21 18c0 1.65-1.35 3-3 3H6c-1.66 0-3-1.35-3-3V6c0-.11 0-.21.01-.31A3 3 0 0 1 6 3h12c1.65 0 3 1.34 3 3zM19.7 6v5.34h-7.05V4.29H18c.93 0 1.7.77 1.7 1.71M6 4.29c-.94 0-1.71.77-1.71 1.71v5.34h7.06V4.29zm1.86 5.89c-.35 0-.65-.29-.65-.65v-.85h-.85c-.35 0-.65-.29-.65-.65s.3-.65.65-.65h.85v-.85c0-.36.3-.65.65-.65.36 0 .65.29.65.65v.85h.85c.36 0 .65.29.65.65s-.29.65-.65.65h-.85v.85c0 .36-.29.65-.65.65m6.74-2.15c0-.36.29-.65.65-.65h2c.36 0 .65.29.65.65s-.29.65-.65.65h-2c-.36 0-.65-.29-.65-.65M4.29 18v-5.36h7.06v7.06H6c-.94 0-1.71-.77-1.71-1.7M18 19.7h-5.35v-7.06h7.05V18c0 .93-.77 1.7-1.7 1.7m-9.53-2.03c.25.26.66.26.91 0a.64.64 0 0 0 0-.92l-.6-.6.6-.6a.64.64 0 0 0 0-.92.646.646 0 0 0-.91 0l-.61.6-.6-.6a.66.66 0 0 0-.92 0c-.25.25-.25.67 0 .92l.61.6-.61.6c-.25.26-.25.67 0 .92.26.26.67.26.92 0l.6-.6zm6.78-3.22c-.36 0-.65.29-.65.65s.29.65.65.65h2c.36 0 .65-.29.65-.65s-.29-.65-.65-.65zm0 2.04c-.36 0-.65.29-.65.65 0 .35.29.65.65.65h2c.36 0 .65-.3.65-.65 0-.36-.29-.65-.65-.65z"/></svg>