<svg xmlns="http://www.w3.org/2000/svg" fill="none" viewBox="0 0 24 24" focusable="false"><path fill="#74767B" fill-rule="evenodd" d="M8.79 2.59c0-.35-.3-.65-.65-.65-.36 0-.66.3-.66.65v1.39H7c-1.67 0-3 1.34-3 3v1.66c0 .39.31.7.7.7h14.59c.39 0 .71-.31.71-.7V6.98c0-1.66-1.36-3-3-3h-.5V2.59c0-.35-.3-.65-.65-.65-.36 0-.65.3-.65.65v1.39h-2.56V2.59c0-.35-.29-.65-.64-.65-.36 0-.65.3-.65.65v1.39H8.79zM4.7 10.65h14.59c.39 0 .71.31.71.7v5.77c0 1.66-1.34 3-3 3H7c-1.67 0-3-1.34-3-3v-5.77c0-.39.31-.7.7-.7m10.95 1.87c.26.24.28.65.04.92l-3.32 3.61c-.37.39-.99.41-1.37.03l-1.91-1.91a.66.66 0 0 1 0-.92c.26-.25.67-.25.92 0l1.65 1.65 3.07-3.34a.64.64 0 0 1 .92-.04"/></svg>