<svg xmlns="http://www.w3.org/2000/svg" fill="none" viewBox="0 0 24 24" focusable="false"><path fill="#74767B" fill-rule="evenodd" d="M7.46 2.65V4H7C5.34 4 4 5.34 4 7v10c0 1.65 1.34 3 3 3h2.88c.36 0 .65-.3.65-.65 0-.36-.29-.65-.65-.65H7c-.94 0-1.71-.77-1.71-1.7v-6.38H18.7v.78c0 .36.29.65.65.65.35 0 .65-.29.65-.65V7c0-1.66-1.35-3-3-3h-.47V2.65c0-.36-.29-.65-.65-.65s-.65.29-.65.65V4h-2.59V2.65c0-.36-.29-.65-.64-.65-.36 0-.65.29-.65.65V4H8.76V2.65c0-.36-.29-.65-.65-.65s-.65.29-.65.65m0 4.21c0 .36.29.65.65.65s.65-.29.65-.65V5.29h2.59v1.57c0 .36.29.65.65.65.35 0 .64-.29.64-.65V5.29h2.59v1.57c0 .36.29.65.65.65s.65-.29.65-.65V5.29H17c.93 0 1.7.77 1.7 1.71v2.32H5.29V7c0-.94.77-1.71 1.71-1.71h.46zm6.96 10.88.85.83c.25.25.66.25.92-.01.25-.25.24-.67-.01-.92L14.3 15.8a.65.65 0 0 0-.92 0l-1.85 1.88c-.25.26-.25.67.01.92.26.26.67.25.92 0l.67-.68A4.457 4.457 0 0 0 17.58 22c2.46 0 4.46-1.99 4.46-4.46s-2-4.47-4.46-4.47c-.51 0-1.01.09-1.47.25a.65.65 0 1 0 .43 1.23c.32-.12.67-.18 1.04-.18 1.75 0 3.16 1.42 3.16 3.17s-1.41 3.16-3.16 3.16c-1.68 0-3.06-1.31-3.16-2.96"/></svg>