<svg xmlns="http://www.w3.org/2000/svg" fill="none" viewBox="0 0 24 24" focusable="false"><defs><clipPath id="Calendar_Update_Solid_svg__a"><path fill="#fff" fill-opacity="0" d="M0 0h24v24H0z"/></clipPath></defs><g clip-path="url(#Calendar_Update_Solid_svg__a)"><path fill="#717681" fill-rule="evenodd" d="M8.79 2.59c0-.35-.3-.65-.65-.65-.36 0-.66.3-.66.65v1.39H7c-1.67 0-3 1.34-3 3v1.66c0 .39.31.7.7.7h14.59c.39 0 .71-.31.71-.7V6.98c0-1.66-1.36-3-3-3h-.5V2.59c0-.35-.3-.65-.65-.65-.36 0-.65.3-.65.65v1.39h-2.56V2.59c0-.35-.29-.65-.64-.65-.36 0-.65.3-.65.65v1.39H8.79zM4.7 10.62h14.59c.39 0 .71.31.71.7v.99c0 .21-.21.36-.41.3-.53-.15-1.09-.23-1.67-.23-3.36 0-6.08 2.72-6.08 6.07 0 .4.04.79.11 1.17.04.19-.1.38-.3.38H7c-1.66 0-3-1.35-3-3v-5.68c0-.39.31-.7.7-.7m11.41 8.47-.5-.49c.21 1.2 1.25 2.1 2.51 2.1 1.41 0 2.55-1.14 2.55-2.55s-1.14-2.55-2.55-2.55c-.29 0-.58.05-.84.14a.636.636 0 0 1-.82-.4.65.65 0 0 1 .4-.83c.39-.14.82-.21 1.26-.21 2.13 0 3.85 1.72 3.85 3.85S20.25 22 18.12 22a3.84 3.84 0 0 1-3.81-3.3l-.41.41c-.25.26-.66.26-.92.01a.65.65 0 0 1-.01-.92l1.55-1.58c.25-.25.66-.26.92 0l1.58 1.55a.646.646 0 1 1-.91.92"/></g></svg>