<svg xmlns="http://www.w3.org/2000/svg" fill="none" viewBox="0 0 24 24" focusable="false"><path fill="#717681" fill-rule="evenodd" d="M8.79 2.59c0-.35-.3-.65-.65-.65-.36 0-.66.3-.66.65v1.39H7c-1.67 0-3 1.34-3 3v10.13c0 1.67 1.33 3 3 3h10c1.66 0 3-1.33 3-3V6.98c0-1.66-1.36-3-3-3h-.5V2.59c0-.35-.3-.65-.65-.65-.36 0-.65.3-.65.65v1.39h-2.56V2.59c0-.35-.29-.65-.64-.65-.36 0-.65.3-.65.65v1.39H8.79zM7.48 5.28v1.57a.655.655 0 0 0 1.31 0V5.28h2.56v1.57c0 .36.29.65.65.65.35 0 .64-.29.64-.65V5.28h2.56v1.57c0 .36.29.65.65.65.35 0 .65-.29.65-.65V5.28h.5c.93 0 1.7.76 1.7 1.7v2.36H5.29V6.98c0-.94.77-1.7 1.71-1.7zm-2.19 5.37H18.7v6.46c0 .94-.77 1.7-1.7 1.7H7c-.94 0-1.71-.76-1.71-1.7zm10.38 1.55c.26.24.28.65.04.91l-3.32 3.62c-.37.39-.99.41-1.37.02l-1.91-1.9a.66.66 0 0 1 0-.92c.26-.25.67-.25.92 0l1.65 1.65 3.07-3.35a.65.65 0 0 1 .92-.03"/></svg>