<svg xmlns="http://www.w3.org/2000/svg" width="24" height="24" fill="none"><path fill="#717681" fill-rule="evenodd" d="M7.468 4V2.65a.65.65 0 0 1 1.3 0V4h2.582V2.65a.65.65 0 1 1 1.3 0V4h2.582V2.65a.65.65 0 1 1 1.3 0V4H17a3 3 0 0 1 3 3v4.402a.65.65 0 1 1-1.3 0v-.775H5.3V17A1.7 1.7 0 0 0 7 18.7h2.885a.65.65 0 0 1 0 1.3H7a3 3 0 0 1-3-3V7a3 3 0 0 1 3-3h.468Zm.65 3.515a.65.65 0 0 1-.65-.65V5.3H7A1.7 1.7 0 0 0 5.3 7v2.327h13.4V7A1.7 1.7 0 0 0 17 5.3h-.468v1.565a.65.65 0 1 1-1.3 0V5.3H12.65v1.565a.65.65 0 1 1-1.3 0V5.3H8.768v1.565a.65.65 0 0 1-.65.65Z" clip-rule="evenodd"/><path fill="#717681" d="m15.272 18.575-.85-.834a3.166 3.166 0 1 0 2.122-3.189.65.65 0 0 1-.426-1.228 4.466 4.466 0 1 1-2.985 4.596l-.67.68a.65.65 0 1 1-.927-.91l1.847-1.88a.65.65 0 0 1 .92-.009l1.88 1.847a.65.65 0 0 1-.911.927Z"/></svg>