<svg xmlns="http://www.w3.org/2000/svg" fill="none" viewBox="0 0 24 24" focusable="false"><path fill="#717681" d="M15.713 13.12a.65.65 0 1 0-.957-.88l-3.073 3.342-1.645-1.645a.65.65 0 1 0-.92.92l1.904 1.903a.95.95 0 0 0 1.371-.03l3.32-3.61Z"/><path fill="#717681" fill-rule="evenodd" d="M8.14 1.95a.65.65 0 0 1 .65.65v1.39h2.56V2.6a.65.65 0 1 1 1.3 0v1.39h2.55V2.6a.65.65 0 1 1 1.3 0v1.39h.5c1.65 0 3 1.34 3 3v10.13c0 1.66-1.34 3-3 3H7c-1.66 0-3-1.34-3-3V6.99c0-1.66 1.34-3 3-3h.49V2.6a.65.65 0 0 1 .65-.65Zm-.65 4.91V5.29H7c-.94 0-1.7.76-1.7 1.7v2.36h13.4V6.99c0-.94-.76-1.7-1.7-1.7h-.5v1.57a.65.65 0 1 1-1.3 0V5.29h-2.55v1.57a.65.65 0 1 1-1.3 0V5.29H8.79v1.57a.65.65 0 0 1-1.3 0Zm11.21 3.79H5.3v6.47c0 .94.76 1.7 1.7 1.7h10c.94 0 1.7-.76 1.7-1.7v-6.47Z" clip-rule="evenodd"/></svg>