<svg xmlns="http://www.w3.org/2000/svg" fill="none" viewBox="0 0 24 24" focusable="false"><defs><clipPath id="Calendar_Solid_svg__a"><path fill="#fff" fill-opacity="0" d="M0 0h24v24H0z"/></clipPath></defs><g clip-path="url(#Calendar_Solid_svg__a)"><path fill="#74767B" fill-rule="evenodd" d="M8.14 1.94c.35 0 .65.3.65.65v1.39h2.56V2.59c0-.35.29-.65.65-.65.35 0 .64.3.64.65v1.39h2.56V2.59c0-.35.29-.65.65-.65.35 0 .65.3.65.65v1.39h.5c1.64 0 3 1.34 3 3v1.66c0 .39-.32.7-.71.7H4.7c-.39 0-.7-.31-.7-.7V6.98c0-1.66 1.33-3 3-3h.48V2.59c0-.35.3-.65.66-.65m11.15 8.71H4.7c-.39 0-.7.31-.7.7v5.77c0 1.66 1.33 3 3 3h10c1.66 0 3-1.34 3-3v-5.77c0-.39-.32-.7-.71-.7m-8.17 5.16c0 .39-.31.71-.71.71H8.1c-.4 0-.71-.32-.71-.71V14.5c0-.39.31-.7.71-.7h2.31c.4 0 .71.31.71.7z"/></g></svg>