<svg xmlns="http://www.w3.org/2000/svg" fill="none" viewBox="0 0 24 24" focusable="false"><path fill="#717681" fill-rule="evenodd" d="M8.88 12.65c-.749 0-1.35.601-1.35 1.35v1.32c0 .749.601 1.35 1.35 1.35h2.32c.749 0 1.35-.601 1.35-1.35V14c0-.749-.601-1.35-1.35-1.35zM8.83 14q.001-.027.013-.037.01-.012.037-.013h2.32q.027.001.037.013a.05.05 0 0 1 .013.037v1.32q-.001.027-.013.037-.01.012-.037.013H8.88q-.027-.001-.037-.013-.012-.01-.013-.037z" clip-rule="evenodd"/><path fill="#717681" fill-rule="evenodd" d="M8.79 2.6a.65.65 0 0 0-1.3 0v1.39H7c-1.66 0-3 1.34-3 3v10.13c0 1.66 1.34 3 3 3h10c1.66 0 3-1.34 3-3V6.99c0-1.66-1.35-3-3-3h-.5V2.6a.65.65 0 1 0-1.3 0v1.39h-2.55V2.6a.65.65 0 1 0-1.3 0v1.39H8.79zm-1.3 2.69v1.57a.65.65 0 1 0 1.3 0V5.29h2.56v1.57a.65.65 0 1 0 1.3 0V5.29h2.55v1.57a.65.65 0 1 0 1.3 0V5.29h.5c.94 0 1.7.76 1.7 1.7v2.36H5.3V6.99c0-.94.76-1.7 1.7-1.7zM5.3 10.65h13.4v6.47c0 .94-.76 1.7-1.7 1.7H7c-.94 0-1.7-.76-1.7-1.7z" clip-rule="evenodd"/></svg>