<svg xmlns="http://www.w3.org/2000/svg" fill="none" viewBox="0 0 24 24" focusable="false"><path d="M0 0H24V24H0z"/><path fill="#74767B" fill-rule="evenodd" d="M7.46826 3.99998L7.46826 2.65C7.46826 2.29102 7.75928 2 8.11826 2C8.47725 2 8.76826 2.29101 8.76826 2.65L8.76826 3.99998L11.3501 3.99998L11.3501 2.65C11.3501 2.29102 11.6411 2 12.0001 2C12.3591 2 12.6501 2.29101 12.6501 2.65L12.6501 3.99998L15.2324 3.99998L15.2324 2.65C15.2324 2.29102 15.5234 2 15.8824 2C16.2414 2 16.5324 2.29101 16.5324 2.65L16.5324 3.99998L17 3.99998C18.6569 3.99998 20 5.34312 20 6.99998L20 11.4018C20 11.7608 19.709 12.0518 19.35 12.0518C18.991 12.0518 18.7 11.7608 18.7 11.4018L18.7 10.6274L5.3 10.6274L5.3 17C5.3 17.9389 6.06112 18.7 7 18.7L9.88506 18.7C10.244 18.7 10.5351 18.991 10.5351 19.35C10.5351 19.709 10.244 20 9.88506 20L7 20C5.34315 20 4 18.6568 4 17L4 6.99998C4 5.34312 5.34315 3.99998 7 3.99998L7.46826 3.99998ZM8.11826 7.51536C7.75928 7.51536 7.46826 7.22434 7.46826 6.86536L7.46826 5.29998L7 5.29998C6.06112 5.29998 5.3 6.06109 5.3 6.99998L5.3 9.32737L18.7 9.32737L18.7 6.99998C18.7 6.06109 17.9389 5.29998 17 5.29998L16.5324 5.29998L16.5324 6.86536C16.5324 7.22434 16.2414 7.51536 15.8824 7.51536C15.5234 7.51536 15.2324 7.22434 15.2324 6.86536L15.2324 5.29998L12.6501 5.29998L12.6501 6.86536C12.6501 7.22434 12.3591 7.51536 12.0001 7.51536C11.6411 7.51536 11.3501 7.22434 11.3501 6.86536L11.3501 5.29998L8.76826 5.29998L8.76826 6.86536C8.76826 7.22434 8.47725 7.51536 8.11826 7.51536ZM14.4228 17.7413L15.272 18.5754C15.5281 18.827 15.9396 18.8233 16.1912 18.5672C16.4427 18.3111 16.439 17.8996 16.1829 17.648L14.3026 15.801C14.0465 15.5495 13.6349 15.5532 13.3834 15.8093L11.5364 17.6896C11.2849 17.9457 11.2886 18.3573 11.5447 18.6088C11.8008 18.8604 12.2123 18.8567 12.4639 18.6006L13.1323 17.92C13.3234 20.2103 15.2428 22.0095 17.5825 22.0095C20.0488 22.0095 22.0482 20.0101 22.0482 17.5437C22.0482 15.0774 20.0488 13.078 17.5825 13.078C17.0705 13.078 16.5773 13.1644 16.1176 13.324C15.7785 13.4417 15.599 13.812 15.7167 14.1512C15.8344 14.4903 16.2047 14.6698 16.5439 14.5521C16.8684 14.4394 17.2176 14.378 17.5825 14.378C19.3309 14.378 20.7482 15.7953 20.7482 17.5437C20.7482 19.2921 19.3309 20.7095 17.5825 20.7095C15.9004 20.7095 14.5248 19.3977 14.4228 17.7413Z"/></svg>