<svg xmlns="http://www.w3.org/2000/svg" fill="none" viewBox="0 0 24 24" focusable="false"><defs><clipPath id="Camera_Remove_Solid_svg__a"><path fill="#fff" fill-opacity="0" d="M0 0h24v24H0z"/></clipPath></defs><g clip-path="url(#Camera_Remove_Solid_svg__a)"><path fill="#74767B" fill-rule="evenodd" d="M18.88 4.03a.65.65 0 0 0-.11-.91.66.66 0 0 0-.92.11L16.1 5.51a2.99 2.99 0 0 0-2.55-1.42h-3.11c-1.27 0-2.36.79-2.79 1.91H6C4.34 6 3 7.34 3 9v8c0 1.31.84 2.43 2.02 2.83l-.86 1.12c-.22.28-.16.69.12.91s.69.17.91-.12zm-7.83 13.03a4.253 4.253 0 0 0 4.72-6.12c-.14-.27-.13-.6.05-.84l2.77-3.58c.18-.24.49-.34.75-.21C20.32 6.81 21 7.82 21 9v8c0 1.65-1.35 3-3 3H9.6a.7.7 0 0 1-.55-1.13l1.2-1.55c.18-.24.5-.33.8-.26m7.39-8.42c-.55 0-1 .45-1 1s.45 1 1 1 1-.45 1-1-.45-1-1-1m-9.93 6.69.85-1.11a2.949 2.949 0 0 1 3.24-4.19l.86-1.11a4.3 4.3 0 0 0-1.45-.25 4.246 4.246 0 0 0-3.5 6.66m6.32-3.27c-.06-.22-.33-.25-.47-.07l-2.65 3.44c-.14.17-.04.42.18.43.04.01.08.01.12.01a2.95 2.95 0 0 0 2.82-3.81"/></g></svg>