<svg xmlns="http://www.w3.org/2000/svg" fill="none" viewBox="0 0 24 24" focusable="false"><path fill="#74767B" fill-rule="evenodd" d="M18.88 3.99a.65.65 0 0 0-.11-.91.654.654 0 0 0-.92.12L16.1 5.47a3.01 3.01 0 0 0-2.55-1.42h-3.11c-1.27 0-2.36.79-2.79 1.91H6c-1.66 0-3 1.34-3 3v8c0 1.31.84 2.43 2.02 2.84l-.86 1.11a.66.66 0 0 0 .02.82c.03.04.06.07.1.09.25.2.59.18.82-.02l.09-.09zm-3.75 2.44.08.19-1.75 2.26a4.3 4.3 0 0 0-1.45-.25 4.246 4.246 0 0 0-3.5 6.66l-2.6 3.37a1.71 1.71 0 0 1-1.62-1.7v-8c0-.94.77-1.7 1.71-1.7h2.54l.32-.83c.25-.63.86-1.08 1.58-1.08h3.11c.72 0 1.33.45 1.58 1.08M9.51 18.66a.65.65 0 0 0 0 1.3H18c1.65 0 3-1.35 3-3v-8c0-1.12-.62-2.1-1.53-2.61-.32-.19-.72-.06-.95.24l-.02.03c-.21.26-.01.68.28.83.54.28.92.85.92 1.51v8c0 .94-.77 1.7-1.7 1.7zm8.11-10.03c-.55 0-1 .45-1 1s.45 1 1 1 .99-.45.99-1-.44-1-.99-1m-5.61 1.3c.2 0 .4.02.59.06l-3.24 4.19a2.949 2.949 0 0 1 2.65-4.25m2.92 1.31c-.17.21-.19.49-.11.75a2.949 2.949 0 0 1-2.81 3.84c-.05 0-.1 0-.15-.01-.27-.01-.54.08-.7.29-.29.38-.13.93.34.99q.255.03.51.03c2.35 0 4.25-1.9 4.25-4.25 0-.55-.1-1.08-.29-1.56-.18-.44-.75-.46-1.04-.08"/></svg>