<svg xmlns="http://www.w3.org/2000/svg" width="24" height="24" fill="none"><path fill="#717681" fill-rule="evenodd" d="M12.014 17.133a4.25 4.25 0 1 0 0-8.5 4.25 4.25 0 0 0 0 8.5Zm0-1.3a2.95 2.95 0 1 0 0-5.9 2.95 2.95 0 0 0 0 5.9Z" clip-rule="evenodd"/><path fill="#717681" d="M16.626 9.633a1 1 0 0 1 .996-1 1 1 0 0 1 0 2 1 1 0 0 1-.996-1Z"/><path fill="#717681" fill-rule="evenodd" d="M6 5.962h1.652a3.001 3.001 0 0 1 2.796-1.908h3.104a3 3 0 0 1 2.796 1.908H18a3 3 0 0 1 3 3v8a3 3 0 0 1-3 3H6a3 3 0 0 1-3-3v-8a3 3 0 0 1 3-3Zm9.137.474.323.826H18a1.7 1.7 0 0 1 1.7 1.7v8a1.7 1.7 0 0 1-1.7 1.7H6a1.7 1.7 0 0 1-1.7-1.7v-8a1.7 1.7 0 0 1 1.7-1.7h2.54l.323-.826a1.701 1.701 0 0 1 1.585-1.082h3.104c.719 0 1.337.446 1.585 1.082Z" clip-rule="evenodd"/></svg>