<svg xmlns="http://www.w3.org/2000/svg" fill="none" viewBox="0 0 24 24" focusable="false"><defs><clipPath id="Camera_Outline_svg__a"><path fill="#fff" fill-opacity="0" d="M0 0h24v24H0z"/></clipPath></defs><g clip-path="url(#Camera_Outline_svg__a)"><path fill="#74767B" fill-rule="evenodd" d="M7.65 5.96H6c-1.66 0-3 1.34-3 3v8c0 1.65 1.34 3 3 3h12c1.65 0 3-1.35 3-3v-8c0-1.66-1.35-3-3-3h-1.66a2.99 2.99 0 0 0-2.79-1.91h-3.11c-1.27 0-2.36.79-2.79 1.91m7.81 1.3-.33-.83c-.25-.63-.86-1.08-1.58-1.08h-3.11c-.72 0-1.33.45-1.58 1.08l-.32.83H6c-.94 0-1.71.76-1.71 1.7v8c0 .94.77 1.7 1.71 1.7h12c.93 0 1.7-.76 1.7-1.7v-8c0-.94-.77-1.7-1.7-1.7zm-3.45 9.87c2.35 0 4.25-1.9 4.25-4.25s-1.9-4.25-4.25-4.25-4.25 1.9-4.25 4.25 1.9 4.25 4.25 4.25m4.61-7.5c0-.55.45-1 1-1s.99.45.99 1-.44 1-.99 1-1-.45-1-1m-4.61 6.2a2.949 2.949 0 1 0 0-5.9 2.949 2.949 0 1 0 0 5.9"/></g></svg>