<svg xmlns="http://www.w3.org/2000/svg" fill="none" viewBox="0 0 24 24" focusable="false"><defs><clipPath id="Camera_Solid_svg__a"><path fill="#fff" fill-opacity="0" d="M0 0h24v24H0z"/></clipPath></defs><g clip-path="url(#Camera_Solid_svg__a)"><path fill="#717681" fill-rule="evenodd" d="M16.34 5.96H18c1.65 0 3 1.34 3 3v8c0 1.65-1.35 3-3 3H6c-1.66 0-3-1.35-3-3v-8c0-1.66 1.34-3 3-3h1.65a2.99 2.99 0 0 1 2.79-1.91h3.11c1.27 0 2.36.79 2.79 1.91M18 8.12c-.55 0-1 .45-1 1s.45 1 1 1 1-.45 1-1-.45-1-1-1m-1.74 4.76c0 2.35-1.9 4.25-4.25 4.25s-4.25-1.9-4.25-4.25 1.9-4.25 4.25-4.25 4.25 1.9 4.25 4.25m-1.3 0a2.949 2.949 0 1 1-5.9 0 2.949 2.949 0 1 1 5.9 0"/></g></svg>