<svg xmlns="http://www.w3.org/2000/svg" fill="none" viewBox="0 0 24 24" focusable="false"><defs><clipPath id="Chevron_Down_Solid_svg__a"><path fill="#fff" fill-opacity="0" d="M0 0h24v24H0z"/></clipPath></defs><g clip-path="url(#Chevron_Down_Solid_svg__a)"><path fill="#74767B" fill-rule="evenodd" d="M12 21a9 9 0 0 0 9-9c0-4.98-4.03-9-9-9-4.98 0-9 4.02-9 9 0 4.97 4.02 9 9 9M7.6 9.81c-.14.13-.21.3-.21.48 0 .16.05.31.17.44l3.92 4.04c.28.31.76.31 1.04 0l3.91-4.06c.24-.27.22-.68-.04-.92a.65.65 0 0 0-.92.04L12 13.4 8.52 9.85a.66.66 0 0 0-.92-.04"/></g></svg>