<svg xmlns="http://www.w3.org/2000/svg" fill="none" viewBox="0 0 24 24" focusable="false"><path fill="#717681" fill-rule="evenodd" d="M4 7c0-1.66 1.34-3 3-3h10c1.65 0 3 1.34 3 3v10c0 1.65-1.35 3-3 3H7c-1.66 0-3-1.35-3-3zm2.09 6.75c0-.36.29-.65.65-.65h3.5c.36 0 .65.29.65.65v3.5c0 .36-.29.65-.65.65-.36 0-.65-.29-.65-.65v-1.93L7.11 17.8c-.26.25-.67.25-.92 0a.64.64 0 0 1 0-.92l2.48-2.48H6.74c-.36 0-.65-.29-.65-.65m4.15-7.66c.36 0 .65.29.65.65v3.5c0 .35-.29.65-.65.65h-3.5c-.36 0-.65-.3-.65-.65 0-.36.29-.65.65-.65h1.93L6.19 7.1a.658.658 0 0 1 0-.92c.26-.25.67-.25.92 0l2.48 2.49V6.74c0-.36.29-.65.65-.65m7.67 4.15c0 .35-.29.65-.65.65h-3.5c-.36 0-.65-.3-.65-.65v-3.5c0-.36.29-.65.65-.65.36 0 .65.29.65.65v1.93l2.48-2.49c.25-.25.66-.25.92 0 .25.26.25.67 0 .92l-2.48 2.49h1.93c.36 0 .65.29.65.65m-4.15 7.66c-.36 0-.65-.3-.65-.65v-3.5c0-.36.29-.65.65-.65h3.5c.36 0 .65.29.65.65 0 .35-.29.65-.65.65h-1.93l2.48 2.48c.25.25.25.66 0 .92-.26.25-.67.25-.92 0l-2.48-2.49v1.94c0 .35-.29.65-.65.65"/></svg>