<svg xmlns="http://www.w3.org/2000/svg" fill="none" viewBox="0 0 24 24" focusable="false"><path fill="#717681" fill-rule="evenodd" d="M7.79 6.88V4.94c0-.35.29-.65.65-.65.36 0 .65.3.65.65v2.81c0 .74-.61 1.35-1.35 1.35h-2.8c-.36 0-.65-.3-.65-.65 0-.36.29-.65.65-.65h1.93L4.18 5.11a.658.658 0 0 1 0-.92c.26-.25.67-.25.92 0zm-3.5 8.66c0-.36.29-.65.65-.65h2.8c.74 0 1.35.61 1.35 1.35v2.8c0 .36-.29.65-.65.65-.36 0-.65-.29-.65-.65v-1.93L5.1 19.8c-.25.25-.66.25-.92 0a.658.658 0 0 1 0-.92l2.69-2.69H4.94c-.36 0-.65-.29-.65-.65m10.61 3.51c0 .36.29.65.65.65.36 0 .65-.29.65-.65v-1.93l2.69 2.69c.25.25.66.25.92 0 .25-.26.25-.67 0-.92l-2.69-2.69h1.93c.36 0 .65-.29.65-.65 0-.36-.29-.65-.65-.65h-2.8c-.75 0-1.35.6-1.35 1.35zm4.8-10.6c0 .35-.29.65-.65.65h-2.8c-.75 0-1.35-.61-1.35-1.35V4.94c0-.35.29-.65.65-.65.35 0 .65.3.65.65v1.94l2.68-2.69c.26-.25.67-.25.92 0 .26.25.26.66 0 .92L17.11 7.8h1.94c.36 0 .65.29.65.65"/></svg>