<svg xmlns="http://www.w3.org/2000/svg" fill="none" viewBox="0 0 24 24" focusable="false"><defs><clipPath id="Cloud_Solid_svg__a"><path fill="#fff" fill-opacity="0" d="M0 0h24v24H0z"/></clipPath></defs><g clip-path="url(#Cloud_Solid_svg__a)"><path fill="#717681" d="M5.33 18.97C3.49 18.97 2 17.48 2 15.64c0-1.68 1.24-3.07 2.85-3.3.04-.01.08-.01.11-.02.27-.1.43-.37.4-.66-.02-.21-.03-.42-.03-.64a6.11 6.11 0 0 1 6.11-6.11c2.86 0 5.26 1.96 5.92 4.61.07.26.25.47.5.56l.16.03a4.443 4.443 0 0 1-.47 8.86z"/></g></svg>