<svg xmlns="http://www.w3.org/2000/svg" fill="none" viewBox="0 0 24 24" focusable="false"><path fill="#74767B" fill-rule="evenodd" d="M5.33 18.97h12.22a4.443 4.443 0 0 0 .47-8.86l-.16-.03a.8.8 0 0 1-.5-.56 6.096 6.096 0 0 0-5.92-4.61 6.11 6.11 0 0 0-6.11 6.11c0 .22.01.43.03.64.03.29-.13.56-.4.66-.03.01-.07.01-.11.02A3.33 3.33 0 0 0 2 15.64c0 1.84 1.49 3.33 3.33 3.33m5.24-2.53c.28.28.74.27 1.01-.02l3.67-3.97c.24-.27.22-.68-.04-.92a.65.65 0 0 0-.92.04l-3.24 3.51-1.93-1.94a.66.66 0 0 0-.92 0c-.25.25-.25.67 0 .92z"/></svg>