<svg xmlns="http://www.w3.org/2000/svg" fill="none" viewBox="0 0 24 24" focusable="false"><path fill="#717681" fill-rule="evenodd" d="M5.33 18.97h12.22a4.445 4.445 0 0 0 0-8.89c-.04 0-.08-.02-.08-.06-.48-2.9-3-5.11-6.03-5.11a6.11 6.11 0 0 0-6 7.26c.01.07-.04.14-.11.14C3.49 12.31 2 13.8 2 15.64s1.49 3.33 3.33 3.33m0-1.3h12.22c1.74 0 3.14-1.41 3.14-3.14 0-1.74-1.4-3.15-3.14-3.15-.68 0-1.26-.49-1.37-1.15a4.8 4.8 0 0 0-4.74-4.02 4.806 4.806 0 0 0-4.72 5.72c.17.89-.52 1.68-1.39 1.68-1.12 0-2.03.91-2.03 2.03s.91 2.03 2.03 2.03m6.25-1.25c-.27.29-.73.3-1.01.02L8.2 14.06a.66.66 0 0 1 0-.92c.25-.25.67-.25.92 0l1.93 1.94 3.24-3.51a.65.65 0 0 1 .92-.04c.26.24.28.65.04.92z"/></svg>