<svg xmlns="http://www.w3.org/2000/svg" fill="none" viewBox="0 0 24 24" focusable="false"><path fill="#717681" fill-rule="evenodd" d="M4.382 2.207a.65.65 0 0 1 .911.119l2.775 3.606a6.11 6.11 0 0 1 9.405 4.088c.006.04.04.07.081.07a4.443 4.443 0 0 1 .526 8.855l1.514 1.968a.65.65 0 1 1-1.03.793L4.263 3.118a.65.65 0 0 1 .119-.911m12.721 15.468h.451a3.143 3.143 0 1 0 0-6.286c-.677 0-1.254-.49-1.364-1.157a4.81 4.81 0 0 0-7.327-3.267l8.24 10.71" clip-rule="evenodd"/><path fill="#717681" d="M5.336 11.023a6.08 6.08 0 0 1 .906-3.204l.866 1.125a4.84 4.84 0 0 0-.386 2.991 1.411 1.411 0 0 1-1.386 1.676 2.032 2.032 0 0 0 0 4.064h8.49l1 1.3h-9.49a3.332 3.332 0 0 1 0-6.664c.069 0 .122-.063.11-.131a6.141 6.141 0 0 1-.11-1.157"/></svg>