<svg xmlns="http://www.w3.org/2000/svg" fill="none" viewBox="0 0 24 24" focusable="false"><defs><clipPath id="Cloud_Outline_svg__a"><path fill="#fff" fill-opacity="0" d="M0 0h24v24H0z"/></clipPath></defs><g clip-path="url(#Cloud_Outline_svg__a)"><path fill="none" d="M5.34 18.97h-.01C3.49 18.97 2 17.48 2 15.64s1.49-3.33 3.33-3.33c.07 0 .12-.07.11-.14a6.11 6.11 0 0 1 6-7.26c3.03 0 5.55 2.21 6.03 5.11 0 .04.04.06.08.06a4.445 4.445 0 0 1 0 8.89h-.01z"/><path fill="#717681" fill-rule="evenodd" d="M5.34 18.97h-.01C3.49 18.97 2 17.48 2 15.64s1.49-3.33 3.33-3.33c.07 0 .12-.07.11-.14a6.11 6.11 0 0 1 6-7.26c3.03 0 5.55 2.21 6.03 5.11 0 .04.04.06.08.06a4.445 4.445 0 0 1 0 8.89h-.01zm-.01-1.3q-.24 0-.47-.05-.16-.04-.32-.11t-.31-.16q-.18-.12-.34-.27-.15-.16-.27-.34-.09-.15-.16-.31t-.11-.32q-.05-.23-.05-.47 0-.25.05-.48.04-.16.11-.31.07-.17.16-.31.12-.18.27-.34.16-.15.34-.27.15-.1.31-.16.16-.07.32-.11.23-.05.47-.05.16 0 .32-.04.15-.03.29-.1.14-.07.26-.16.11-.09.21-.21.1-.12.17-.25.07-.14.11-.28.05-.16.05-.32.01-.16-.02-.32-.02-.09-.03-.17-.06-.37-.06-.74 0-.56.12-1.09.1-.4.26-.78.17-.4.4-.76.27-.41.63-.77.36-.36.77-.63.36-.24.76-.4.38-.17.79-.26.52-.12 1.08-.12.52 0 1.02.11.34.07.68.2.35.13.68.32.39.22.75.52.33.29.61.63.24.3.44.65.22.38.36.79.14.38.2.8.02.12.07.24.04.11.1.22.06.1.14.2.07.09.16.17.1.07.2.13t.21.11q.12.04.24.06.12.02.25.02.37 0 .72.09.25.06.5.16.26.11.49.26.27.18.51.42.24.23.42.51.15.23.26.48.1.25.16.51.08.35.08.72t-.08.72q-.06.25-.16.5-.11.26-.26.49-.18.27-.42.51t-.51.42q-.23.15-.49.25-.25.11-.5.17-.35.08-.72.08H5.34z"/></g></svg>