<svg xmlns="http://www.w3.org/2000/svg" fill="none" viewBox="0 0 24 24" focusable="false"><path d="M0 0H24V24H0z"/><path fill="#74767B" fill-rule="evenodd" d="M4.38181 2.20689C4.66633 1.98798 5.07443 2.04117 5.29334 2.32569L8.06789 5.93185C9.0353 5.28889 10.1965 4.91428 11.4451 4.91428C14.3028 4.91428 16.7021 6.87633 17.3696 9.52678C17.4341 9.7828 17.6158 9.99756 17.8665 10.0803C17.9193 10.0978 17.9742 10.1088 18.0294 10.1147C20.2597 10.3519 21.9971 12.2393 21.9971 14.5326C21.9971 16.8084 20.2859 18.6846 18.08 18.9448L19.5944 20.9131C19.8133 21.1976 19.7601 21.6057 19.4756 21.8246C19.191 22.0435 18.7829 21.9903 18.564 21.7058L4.26301 3.11842C4.0441 2.8339 4.09729 2.4258 4.38181 2.20689ZM6.24247 7.81956C5.66762 8.75103 5.33594 9.84851 5.33594 11.0235C5.33594 11.2405 5.34726 11.4549 5.36934 11.6661C5.39923 11.952 5.23815 12.2301 4.96521 12.3203C4.93018 12.3318 4.89394 12.3399 4.85741 12.3451C3.24364 12.5771 2.00342 13.9654 2.00342 15.6433C2.00342 17.4837 3.49572 18.9759 5.33609 18.9759L14.8261 18.9759L6.24247 7.81956Z"/></svg>