<svg xmlns="http://www.w3.org/2000/svg" fill="none" viewBox="0 0 24 24" focusable="false"><defs><clipPath id="Cloud_Upload_Outline_svg__a"><path fill="#fff" fill-opacity="0" d="M0 0h24v24H0z"/></clipPath></defs><g clip-path="url(#Cloud_Upload_Outline_svg__a)"><path fill="#74767B" fill-rule="evenodd" d="M17.55 18.97H5.33C3.49 18.97 2 17.48 2 15.64s1.49-3.33 3.33-3.33c.07 0 .12-.07.11-.14a6.11 6.11 0 0 1 6-7.26c3.03 0 5.55 2.21 6.03 5.11 0 .04.04.06.08.06a4.445 4.445 0 0 1 0 8.89m-12.21-1.3h-.01c-1.12 0-2.03-.91-2.03-2.03s.91-2.03 2.03-2.03c.87 0 1.56-.79 1.39-1.68a4.806 4.806 0 0 1 4.72-5.72c2.39 0 4.37 1.74 4.74 4.02.11.66.69 1.15 1.37 1.15 1.74 0 3.14 1.41 3.14 3.15 0 1.73-1.4 3.14-3.14 3.14h-4.96v-3.41l1.48 1.56c.24.26.65.28.92.04.14-.13.21-.3.21-.48 0-.16-.05-.31-.17-.44l-2.57-2.71a.7.7 0 0 0-1.04 0l-2.47 2.71c-.24.27-.22.68.04.92.27.24.68.23.92-.04l1.38-1.55v3.4z"/></g></svg>