<svg xmlns="http://www.w3.org/2000/svg" fill="none" viewBox="0 0 24 24" focusable="false"><path fill="#717681" fill-rule="evenodd" d="M17.554 18.976H5.336a3.332 3.332 0 0 1 0-6.665c.069 0 .122-.063.11-.131a6.11 6.11 0 1 1 12.027-2.16c.006.04.04.07.081.07a4.443 4.443 0 0 1 0 8.886m-12.212-1.3h-.006a2.032 2.032 0 0 1 0-4.065c.869 0 1.556-.79 1.386-1.676a4.81 4.81 0 1 1 9.468-1.703c.11.667.687 1.158 1.364 1.158a3.143 3.143 0 1 1 0 6.286h-4.96v-3.41l1.485 1.557c.24.26.65.28.92.04.14-.13.21-.3.21-.48 0-.16-.05-.31-.17-.44l-2.575-2.71a.698.698 0 0 0-1.04 0l-2.465 2.71c-.24.27-.22.68.04.92.27.24.68.23.92-.04l1.374-1.55v3.403z" clip-rule="evenodd"/></svg>