<svg xmlns="http://www.w3.org/2000/svg" fill="none" viewBox="0 0 24 24" focusable="false"><defs><clipPath id="Cloud_Not_Available_Outline_svg__a"><path fill="#fff" fill-opacity="0" d="M0 0h24v24H0z"/></clipPath></defs><g clip-path="url(#Cloud_Not_Available_Outline_svg__a)"><path fill="#717681" fill-rule="evenodd" d="M5.29 2.32a.652.652 0 0 0-.91-.12c-.29.22-.34.63-.12.91l14.3 18.59c.22.29.63.34.91.12.29-.22.34-.63.12-.91l-1.52-1.97a4.445 4.445 0 0 0-.52-8.86c-.04 0-.08-.03-.08-.07-.48-2.89-3-5.1-6.03-5.1-1.25 0-2.41.37-3.38 1.02zm12.26 15.35h-.45L8.86 6.96c.74-.48 1.63-.75 2.58-.75 2.39 0 4.37 1.74 4.74 4.02.11.66.69 1.15 1.37 1.15 1.74 0 3.14 1.41 3.14 3.15 0 1.73-1.4 3.14-3.14 3.14M6.24 7.81c-.58.94-.91 2.03-.91 3.21 0 .39.04.78.11 1.15.01.07-.04.14-.11.14C3.49 12.31 2 13.8 2 15.64s1.49 3.33 3.33 3.33h9.49l-1-1.3H5.33c-1.12 0-2.03-.91-2.03-2.03 0-1.12.91-2.03 2.03-2.03.87 0 1.56-.79 1.39-1.68a4.809 4.809 0 0 1 .38-2.99z"/></g></svg>