<svg xmlns="http://www.w3.org/2000/svg" fill="none" viewBox="0 0 24 24" focusable="false"><path fill="#717681" fill-rule="evenodd" d="M5.336 18.976h12.218a4.444 4.444 0 0 0 .475-8.862 1 1 0 0 1-.163-.034.77.77 0 0 1-.496-.553 6.11 6.11 0 0 0-12 2.14.614.614 0 0 1-.405.653 1 1 0 0 1-.108.025 3.333 3.333 0 0 0 .479 6.63m5.242-2.53c.28.28.74.27 1.01-.02l3.667-3.966c.24-.27.22-.68-.04-.92a.65.65 0 0 0-.92.04l-3.237 3.506-1.935-1.946a.66.66 0 0 0-.92 0c-.25.25-.25.67 0 .92z" clip-rule="evenodd"/></svg>