<svg xmlns="http://www.w3.org/2000/svg" fill="none" viewBox="0 0 24 24" focusable="false"><path fill="#717681" fill-rule="evenodd" d="M5.335 19.03h5.258a.7.7 0 0 0 .7-.7v-4.003l-1.375 1.55a.65.65 0 0 1-.92.04.658.658 0 0 1-.04-.92l2.465-2.71c.28-.31.76-.31 1.04 0l2.576 2.71c.12.13.17.28.17.44 0 .18-.07.35-.21.48-.27.24-.68.22-.92-.04l-1.486-1.557v4.01a.7.7 0 0 0 .7.7h4.26a4.444 4.444 0 0 0 .476-8.86.789.789 0 0 1-.163-.035.773.773 0 0 1-.497-.553 6.11 6.11 0 0 0-12 2.14.614.614 0 0 1-.404.653.631.631 0 0 1-.108.025 3.333 3.333 0 0 0 .478 6.63" clip-rule="evenodd"/></svg>