<svg xmlns="http://www.w3.org/2000/svg" fill="none" viewBox="0 0 24 24" focusable="false"><path d="M0 0H24V24H0z"/><path fill="#74767B" fill-rule="evenodd" d="M4.38181 2.20689C4.66633 1.98798 5.07443 2.04117 5.29334 2.32569L8.06777 5.93169C9.0352 5.28868 10.1964 4.91404 11.4451 4.91404C14.4774 4.91404 16.9937 7.12323 17.4723 10.0199C17.4789 10.0598 17.5136 10.0893 17.554 10.0893C20.0079 10.0893 21.9971 12.0785 21.9971 14.5323C21.9971 16.8082 20.2858 18.6845 18.0798 18.9446L19.5944 20.9131C19.8133 21.1976 19.7601 21.6057 19.4756 21.8246C19.191 22.0435 18.7829 21.9903 18.564 21.7058L4.26301 3.11842C4.0441 2.8339 4.09729 2.4258 4.38181 2.20689ZM17.1033 17.6753L17.554 17.6753C19.2899 17.6753 20.6971 16.2682 20.6971 14.5323C20.6971 12.7965 19.2899 11.3893 17.554 11.3893C16.8767 11.3893 16.2999 10.8988 16.1897 10.2318C15.8131 7.95256 13.8309 6.21404 11.4451 6.21404C10.4948 6.21404 9.60896 6.48965 8.86302 6.96529L17.1033 17.6753ZM6.24247 7.81931C5.66762 8.75079 5.33594 9.84827 5.33594 11.0232C5.33594 11.4185 5.37349 11.8051 5.44521 12.1795C5.45825 12.2476 5.40499 12.3108 5.33569 12.3108C3.49533 12.3108 2.00342 13.8027 2.00342 15.6431C2.00342 17.4834 3.49533 18.9753 5.33569 18.9753L14.8259 18.9753L13.8256 17.6753L5.34194 17.6753L5.33955 17.6753L5.33569 17.6753C4.2133 17.6753 3.30342 16.7655 3.30342 15.6431C3.30342 14.5207 4.2133 13.6108 5.33569 13.6108C6.20468 13.6108 6.89164 12.8204 6.72199 11.9349C6.66563 11.6407 6.63594 11.336 6.63594 11.0232C6.63594 10.2784 6.80528 9.57304 7.10756 8.94368L6.24247 7.81931Z"/></svg>