<svg xmlns="http://www.w3.org/2000/svg" fill="none" viewBox="0 0 24 24" focusable="false"><defs><clipPath id="Cloud_Not_Available_Solid_svg__a"><path fill="#fff" fill-opacity="0" d="M0 0h24v24H0z"/></clipPath></defs><g clip-path="url(#Cloud_Not_Available_Solid_svg__a)"><path fill="#74767B" fill-rule="evenodd" d="M5.29 2.32a.65.65 0 0 0-.91-.12c-.29.22-.34.63-.12.91l14.3 18.59c.22.29.63.34.91.12.29-.22.34-.63.12-.91l-1.51-1.97a4.445 4.445 0 0 0-.06-8.83l-.16-.03a.8.8 0 0 1-.5-.56 6.096 6.096 0 0 0-5.92-4.61c-1.25 0-2.41.37-3.38 1.02zm.95 5.49c-.58.94-.91 2.03-.91 3.21 0 .22.01.43.03.64.03.29-.13.57-.4.66-.03.01-.07.01-.11.02A3.33 3.33 0 0 0 2 15.64c0 1.84 1.49 3.33 3.33 3.33h9.49z"/></g></svg>