<svg xmlns="http://www.w3.org/2000/svg" fill="none" viewBox="0 0 24 24" focusable="false"><defs><clipPath id="Dark_Mode_Outline_svg__a"><path fill="#fff" fill-opacity="0" d="M0 0h24v24H0z"/></clipPath></defs><g clip-path="url(#Dark_Mode_Outline_svg__a)"><path fill="#717681" fill-rule="evenodd" d="M18.61 13.73c.24-.11.51.09.44.34A7.35 7.35 0 0 1 12 19.35c-4.06 0-7.36-3.3-7.36-7.35 0-3.34 2.23-6.16 5.28-7.06.25-.07.45.2.34.44-.36.79-.56 1.68-.56 2.61a6.3 6.3 0 0 0 6.3 6.3c.93 0 1.82-.2 2.61-.56M20.64 12c0-.36-.29-.65-.64-.65-.26 0-.44.16-.62.32-.02.03-.05.05-.08.07-.88.78-2.04 1.25-3.3 1.25-2.77 0-5-2.23-5-5 0-1.26.47-2.42 1.25-3.3.02-.03.05-.06.07-.08.16-.18.32-.36.32-.61 0-.36-.29-.65-.64-.65-4.78 0-8.65 3.87-8.65 8.65 0 4.77 3.87 8.65 8.65 8.65 4.77 0 8.64-3.88 8.64-8.65"/></g></svg>