<svg xmlns="http://www.w3.org/2000/svg" fill="none" viewBox="0 0 24 24" focusable="false"><defs><clipPath id="Databases_Outline_svg__a"><path fill="#fff" fill-opacity="0" d="M0 0h24v24H0z"/></clipPath></defs><g clip-path="url(#Databases_Outline_svg__a)"><path fill="#717681" fill-rule="evenodd" d="M17.69 3.35c1.66 0 3 1.34 3 3v10c0 1.65-1.34 3-3 3h-8c-1.65 0-3-1.35-3-3v-10c0-1.66 1.35-3 3-3zm-8 1.29h8c.94 0 1.7.77 1.7 1.71v4.47L8 10.81V6.35c0-.94.76-1.71 1.69-1.71m.35 3.56a.856.856 0 0 1 1.71 0c0 .46-.39.85-.86.85-.46 0-.85-.39-.85-.85m-5.35.5c-.35 0-.65.29-.65.65v9.4C4.04 20.54 5.5 22 7.29 22h8.4c.36 0 .65-.3.65-.65 0-.36-.29-.65-.65-.65h-8.4c-1.07 0-1.95-.88-1.95-1.95v-9.4c0-.36-.29-.65-.65-.65M8 12.11l11.39.01v4.23c0 .93-.76 1.7-1.7 1.7h-8c-.93 0-1.69-.77-1.69-1.7zm2.89 2.24c-.46 0-.85.38-.85.85 0 .46.39.85.85.85.47 0 .86-.39.86-.85 0-.47-.39-.85-.86-.85"/></g></svg>