<svg xmlns="http://www.w3.org/2000/svg" fill="none" viewBox="0 0 24 24" focusable="false"><defs><clipPath id="Databases_Solid_svg__a"><path fill="#fff" fill-opacity="0" d="M0 0h24v24H0z"/></clipPath></defs><g clip-path="url(#Databases_Solid_svg__a)"><path fill="#74767B" fill-rule="evenodd" d="M17.69 3.35c1.66 0 3 1.34 3 3v4.34h-14V6.35c0-1.66 1.35-3 3-3zm-7.65 4.84a.85.85 0 1 1 1.701-.001.85.85 0 0 1-1.701.001m-6 1.16c0-.36.3-.65.65-.65.36 0 .65.29.65.65v9.4c0 1.07.88 1.95 1.95 1.95h8.4c.36 0 .65.29.65.65 0 .35-.29.65-.65.65h-8.4c-1.79 0-3.25-1.46-3.25-3.25zm2.65 2.64h14v4.36c0 1.65-1.34 3-3 3h-8c-1.65 0-3-1.35-3-3zm4.2 2.35c-.46 0-.85.39-.85.85a.85.85 0 1 0 .85-.85"/></g></svg>