<svg xmlns="http://www.w3.org/2000/svg" fill="none" viewBox="0 0 24 24" focusable="false"><path fill="#74767B" fill-rule="evenodd" d="M12.65 2.66c0-.35-.3-.65-.65-.65-.36 0-.65.3-.65.65v1.99H4.33c-.36 0-.65.29-.65.65 0 .35.29.65.65.65h.69l.76 11.49c.1 1.58 1.4 2.81 2.99 2.81h6.36c1.57 0 2.9-1.23 2.99-2.81l.77-11.49h.79c.35 0 .65-.3.65-.65 0-.36-.3-.65-.65-.65h-7.03zM7.08 17.35l-.71-11.4h11.17l-.7 11.41c-.06.89-.8 1.59-1.7 1.59H8.78c-.9 0-1.64-.7-1.7-1.6m3.1-8.88c.35 0 .65.29.65.65v6.35c0 .35-.3.65-.65.65-.36 0-.65-.3-.65-.65V9.12c0-.36.29-.65.65-.65m4.3.65c0-.36-.3-.65-.65-.65-.36 0-.65.29-.65.65v6.35c0 .35.29.65.65.65.35 0 .65-.3.65-.65z"/></svg>