<svg xmlns="http://www.w3.org/2000/svg" fill="none" viewBox="0 0 24 24" focusable="false"><path fill="#717681" d="M14.48 9.12a.65.65 0 1 0-1.3 0v6.35a.65.65 0 0 0 1.3 0zM10.18 8.47a.65.65 0 0 1 .65.65v6.35a.65.65 0 0 1-1.3 0V9.12a.65.65 0 0 1 .65-.65"/><path fill="#717681" fill-rule="evenodd" d="M12 2.02a.65.65 0 0 1 .65.65v1.98h7.03a.65.65 0 1 1 0 1.3h-.784l-.776 11.49a2.99 2.99 0 0 1-2.99 2.81H8.77c-1.58 0-2.89-1.23-2.99-2.81L5.023 5.95H4.33a.65.65 0 1 1 0-1.3h7.02V2.67a.65.65 0 0 1 .65-.65M6.378 5.95l.702 11.4c.06.9.8 1.6 1.7 1.6h6.36c.9 0 1.64-.7 1.7-1.59l.703-11.41z" clip-rule="evenodd"/></svg>