<svg xmlns="http://www.w3.org/2000/svg" fill="none" viewBox="0 0 24 24" focusable="false"><path fill="#74767B" fill-rule="evenodd" d="M12.65 2.66c0-.35-.3-.65-.65-.65-.36 0-.65.3-.65.65v1.99H4.33c-.36 0-.65.29-.65.65 0 .35.29.65.65.65h.69l.76 11.49c.1 1.58 1.4 2.81 2.99 2.81h6.36c1.57 0 2.9-1.23 2.99-2.81l.77-11.49h.79c.35 0 .65-.3.65-.65 0-.36-.3-.65-.65-.65h-7.03zm-1.82 6.46c0-.36-.3-.65-.65-.65-.36 0-.65.29-.65.65v6.35c0 .35.29.65.65.65.35 0 .65-.3.65-.65zm3-.65c.35 0 .65.29.65.65v6.35c0 .35-.3.65-.65.65-.36 0-.65-.3-.65-.65V9.12c0-.36.29-.65.65-.65"/></svg>