<svg xmlns="http://www.w3.org/2000/svg" fill="none" viewBox="0 0 24 24" focusable="false"><defs><clipPath id="Desktop_monitoring_Outline_svg__a"><path fill="#fff" fill-opacity="0" d="M0 0h24v24H0z"/></clipPath></defs><g clip-path="url(#Desktop_monitoring_Outline_svg__a)"><path fill="#74767B" fill-rule="evenodd" d="M3.01 7.04c0-1.69 1.36-3.05 3.05-3.05h11.88a3.05 3.05 0 0 1 3.05 3.05v6.92a3.05 3.05 0 0 1-3.05 3.05h-3.95v1.69h1.34c.36 0 .66.29.66.65s-.3.65-.66.65H8.65c-.35 0-.65-.29-.65-.65s.3-.65.65-.65H10v-1.69H6.06c-1.69 0-3.05-1.36-3.05-3.05zm7.67 8.67H6.06c-.97 0-1.75-.78-1.75-1.75v-2.83H8.4l1.07 1.57c.13.2.37.31.61.28.24-.02.45-.18.54-.41l1.18-3.14 1.12 4.48c.07.28.31.48.59.5.29.01.55-.16.65-.43l1.06-2.85h4.47v2.83c0 .97-.79 1.75-1.75 1.75zm9.01-5.88h-4.92c-.28 0-.52.17-.61.42l-.49 1.31-1.11-4.47a.66.66 0 0 0-.59-.49.64.64 0 0 0-.65.42l-1.48 3.91-.55-.82a.64.64 0 0 0-.54-.28H4.31V7.04c0-.97.78-1.75 1.75-1.75h11.88c.96 0 1.75.78 1.75 1.75zm-7.01 7.18v1.69H11.3v-1.69z"/></g></svg>