<svg xmlns="http://www.w3.org/2000/svg" fill="none" viewBox="0 0 24 24" focusable="false"><defs><clipPath id="Desktop_cloud_Outline_svg__a"><path fill="#fff" fill-opacity="0" d="M0 0h24v24H0z"/></clipPath></defs><g clip-path="url(#Desktop_cloud_Outline_svg__a)"><path fill="#717681" fill-rule="evenodd" d="M3 7c0-1.66 1.34-3 3-3h11.99c1.66 0 3 1.34 3 3v6.98c0 1.66-1.34 3-3 3h-4.01v1.71h1.35c.36 0 .65.29.65.65 0 .35-.29.65-.65.65H8.65c-.36 0-.65-.3-.65-.65 0-.36.29-.65.65-.65H10v-1.71H6c-1.66 0-3-1.34-3-3zm3-1.71h11.99c.94 0 1.7.77 1.7 1.71v6.98c0 .94-.76 1.7-1.7 1.7H6c-.94 0-1.71-.76-1.71-1.7V7c0-.94.77-1.71 1.71-1.71m2.97 8.79c.14.03.29.04.44.04h5.19a2.5 2.5 0 0 0 .99-.2 2.371 2.371 0 0 0 .81-.54c.12-.12.23-.26.33-.4.08-.13.15-.26.22-.41.06-.14.1-.29.14-.44.04-.18.05-.36.05-.55 0-.18-.01-.36-.05-.54-.04-.15-.08-.3-.14-.44-.07-.15-.14-.29-.22-.42a3.1 3.1 0 0 0-.72-.72c-.13-.08-.27-.15-.42-.22-.14-.06-.29-.1-.44-.14-.06-.18-.22-.45-.32-.62-.09-.15-.19-.3-.31-.44-.12-.15-.25-.29-.4-.42s-.32-.24-.49-.34c-.15-.09-.31-.16-.48-.23-.16-.06-.32-.11-.49-.14a3.6 3.6 0 0 0-.65-.07 3.3 3.3 0 0 0-1.26.26c-.19.08-.36.17-.53.28a3.35 3.35 0 0 0-.92.92c-.11.17-.2.34-.28.53a3.266 3.266 0 0 0-.26 1.26l-.15.06c-.12.05-.23.11-.34.18-.11.08-.22.17-.32.26-.1.1-.19.21-.26.33q-.105.15-.18.33c-.05.12-.09.24-.12.37-.03.14-.04.29-.04.44s.01.29.04.44q.045.18.12.36c.05.12.11.23.18.34s.16.22.26.32.21.18.32.26c.11.07.22.13.34.18q.18.075.36.12m.44-1.26c-.1 0-.2-.02-.29-.05a.794.794 0 0 1-.42-.42.7.7 0 0 1-.06-.29q0-.165.06-.3c.04-.09.09-.17.17-.25.07-.07.16-.13.25-.16.09-.04.19-.06.29-.06.05 0 .11-.01.16-.02s.1-.03.14-.05c.05-.02.09-.05.13-.08s.07-.06.11-.1c.03-.04.06-.08.08-.13.02-.04.04-.09.05-.13.02-.06.03-.11.03-.16s0-.11-.01-.16c-.02-.1-.04-.27-.04-.37 0-.15.02-.3.05-.44.03-.11.06-.21.1-.32.05-.1.1-.2.17-.3.07-.11.15-.22.25-.32.1-.09.2-.18.32-.25.09-.06.19-.12.3-.16.1-.05.21-.08.32-.11a1.84 1.84 0 0 1 .85 0 1.664 1.664 0 0 1 .55.21q.165.09.3.21c.1.08.18.16.25.26.07.08.13.17.18.26.06.1.11.21.15.32.03.1.06.21.08.32a.655.655 0 0 0 .23.41q.105.09.21.12c.07.03.15.04.24.04s.19.02.28.04a1.14 1.14 0 0 1 .39.16c.07.05.14.1.2.17.06.06.12.13.17.2.04.06.07.12.1.19.02.07.05.13.06.2.02.09.04.19.04.28 0 .1-.02.2-.04.29-.01.07-.04.13-.06.2-.03.06-.06.13-.1.19-.05.07-.11.14-.17.2s-.13.12-.2.16c-.06.04-.12.08-.19.11l-.2.06c-.09.02-.19.03-.28.03zm3.27 4.16v1.71H11.3v-1.71z"/></g></svg>