<svg xmlns="http://www.w3.org/2000/svg" fill="none" viewBox="0 0 24 24" focusable="false"><defs><clipPath id="Desktop_monitoring_Solid_svg__a"><path fill="#fff" fill-opacity="0" d="M0 0h24v24H0z"/></clipPath></defs><g clip-path="url(#Desktop_monitoring_Solid_svg__a)"><path fill="#717681" fill-rule="evenodd" d="M3 7.04a3.05 3.05 0 0 1 3.05-3.05h11.89a3.05 3.05 0 0 1 3.05 3.05v2.09c0 .38-.32.7-.7.7h-5.52c-.28 0-.52.16-.61.42l-.49 1.31-1.11-4.47a.65.65 0 0 0-.59-.49.64.64 0 0 0-.65.42l-1.48 3.91-.55-.82a.638.638 0 0 0-.54-.28H3.7c-.38 0-.7-.32-.7-.7zm12.22 4.09h5.07c.38 0 .7.31.7.7v2.13c0 1.68-1.37 3.05-3.05 3.05h-3.96v1.69h1.36c.35 0 .65.29.65.65 0 .36-.3.65-.65.65H8.65c-.35 0-.65-.29-.65-.65 0-.36.3-.65.65-.65H10v-1.69H6.05C4.37 17.01 3 15.64 3 13.96v-2.13c0-.39.32-.7.7-.7h4.7l1.07 1.57c.13.2.37.31.61.28.24-.03.45-.19.54-.41l1.18-3.14 1.12 4.48c.06.28.31.48.59.5.29.01.55-.16.65-.43z"/></g></svg>