<svg xmlns="http://www.w3.org/2000/svg" fill="none" viewBox="0 0 24 24" focusable="false"><path fill="#74767B" fill-rule="evenodd" d="M6 4C4.34 4 3 5.34 3 7v6.98c0 1.66 1.34 3 3 3h4v1.71H8.65c-.36 0-.65.29-.65.65 0 .35.29.65.65.65h6.68c.36 0 .65-.3.65-.65 0-.36-.29-.65-.65-.65h-1.35v-1.71h4.01c1.66 0 3-1.34 3-3V7c0-1.66-1.34-3-3-3zm2.61 9.93c.25.11.52.17.8.17h5.2c.34 0 .67-.07.98-.2q.465-.195.81-.54c.23-.24.42-.51.54-.81.07-.14.11-.29.15-.45.04-.17.05-.35.05-.53s-.01-.35-.05-.52c-.03-.14-.07-.28-.12-.41s-.12-.26-.19-.38c-.08-.14-.18-.27-.29-.39-.21-.23-.45-.41-.72-.55q-.21-.105-.42-.18l-.25-.06c-.09-.27-.21-.53-.37-.77-.09-.14-.2-.27-.31-.4-.12-.13-.26-.26-.4-.37-.15-.12-.3-.22-.47-.31-.14-.08-.3-.14-.46-.2-.15-.05-.3-.1-.46-.13-.2-.03-.41-.05-.62-.05-.24 0-.48.02-.71.07-.19.04-.37.1-.55.18-.19.08-.37.17-.54.28-.18.12-.34.26-.5.41-.16.16-.3.33-.42.52-.1.16-.2.33-.27.51q-.12.27-.18.57c-.05.22-.08.45-.08.69-.12.04-.23.09-.34.15s-.21.12-.3.2c-.09.07-.18.16-.26.25-.09.1-.17.2-.23.31-.06.1-.11.2-.15.31q-.06.165-.09.33c-.03.13-.04.27-.04.41s.01.29.04.43c.03.13.07.25.12.37.05.11.11.22.17.33.08.11.17.22.27.32s.2.19.32.26c.1.07.22.13.34.18"/></svg>