<svg xmlns="http://www.w3.org/2000/svg" fill="none" viewBox="0 0 24 24" focusable="false"><defs><clipPath id="Discs_Solid_svg__a"><path fill="#fff" fill-opacity="0" d="M0 0h24v24H0z"/></clipPath></defs><g clip-path="url(#Discs_Solid_svg__a)"><path fill="#717681" fill-rule="evenodd" d="M3.95 7.1c0-1.66 1.34-3 3-3h10.06c1.66 0 3 1.34 3 3v.96c0 1.66-1.34 3-3 3H6.95c-1.66 0-3-1.34-3-3zm11.38-.17c-.36 0-.65.29-.65.65 0 .36.29.65.65.65h1.44c.36 0 .65-.29.65-.65 0-.36-.29-.65-.65-.65zm-8.38 6c-1.66 0-3 1.34-3 3v.96c0 1.66 1.34 3 3 3h10.06c1.66 0 3-1.34 3-3v-.96c0-1.66-1.34-3-3-3zm7.73 3.48c0-.36.29-.65.65-.65h1.44c.36 0 .65.29.65.65 0 .36-.29.65-.65.65h-1.44c-.36 0-.65-.29-.65-.65"/></g></svg>