<svg xmlns="http://www.w3.org/2000/svg" fill="none" viewBox="0 0 24 24" focusable="false"><path fill="#717681" fill-rule="evenodd" d="M6.95 4.1c-1.66 0-3 1.34-3 3v.96c0 1.66 1.34 3 3 3h10.06c1.66 0 3-1.34 3-3V7.1c0-1.66-1.34-3-3-3zm10.06 1.3H6.95c-.94 0-1.7.76-1.7 1.7v.96c0 .94.76 1.7 1.7 1.7h10.06c.94 0 1.7-.76 1.7-1.7V7.1c0-.94-.76-1.7-1.7-1.7m-1.68 1.53c-.36 0-.65.29-.65.65s.29.65.65.65h1.44c.36 0 .65-.29.65-.65s-.29-.65-.65-.65zm-8.38 6c-1.66 0-3 1.34-3 3v.96c0 1.66 1.34 3 3 3h10.06c1.66 0 3-1.34 3-3v-.96c0-1.66-1.34-3-3-3zm10.06 1.3H6.95c-.94 0-1.7.76-1.7 1.7v.96c0 .94.76 1.7 1.7 1.7h10.06c.94 0 1.7-.76 1.7-1.7v-.96c0-.94-.76-1.7-1.7-1.7m-1.68 1.53c-.36 0-.65.29-.65.65s.29.65.65.65h1.44c.36 0 .65-.29.65-.65s-.29-.65-.65-.65z"/></svg>