<svg xmlns="http://www.w3.org/2000/svg" fill="none" viewBox="0 0 24 24" focusable="false"><defs><clipPath id="Domain_Outline_svg__a"><path fill="#fff" fill-opacity="0" d="M0 0h24v24H0z"/></clipPath></defs><g clip-path="url(#Domain_Outline_svg__a)"><path fill="#717681" fill-rule="evenodd" d="M4 6c0-1.66 1.34-3 3-3h10c1.65 0 3 1.34 3 3v12c0 1.65-1.35 3-3 3H7c-1.66 0-3-1.35-3-3zm3-1.7h10c.93 0 1.7.76 1.7 1.7v12c0 .93-.77 1.7-1.7 1.7H7c-.94 0-1.71-.77-1.71-1.7V6c0-.94.77-1.7 1.71-1.7m1.48 6.98c.55 0 1-.45 1-1 0-.56-.45-1-1-1-.56 0-1 .44-1 1 0 .55.44 1 1 1m4.38-1.97c.35.11.54.48.43.82l-1.31 4.13c-.11.34-.47.53-.81.42a.648.648 0 0 1-.43-.82l1.31-4.12c.11-.35.47-.54.81-.43m3.62.82a.655.655 0 0 0-.42-.82.648.648 0 0 0-.82.43l-1.31 4.12c-.1.35.09.71.43.82.34.11.71-.08.81-.42zm-8 4.58c.55 0 1-.44 1-1 0-.55-.45-1-1-1-.56 0-1 .45-1 1 0 .56.44 1 1 1"/></g></svg>