<svg xmlns="http://www.w3.org/2000/svg" fill="none" viewBox="0 0 24 24" focusable="false"><path fill="#717681" d="M8.517 7.999c.13-.14.3-.21.48-.21.16 0 .31.05.44.17l3.983 3.586c.31.28.31.76 0 1.04l-3.98 3.458c-.27.24-.68.22-.92-.04a.65.65 0 0 1 .04-.92l3.49-3.018L8.557 8.92a.658.658 0 0 1-.04-.92Z"/><path fill="#717681" d="M12.517 7.999c.13-.14.3-.21.48-.21.16 0 .31.05.44.17l3.983 3.586c.31.28.31.76 0 1.04l-3.98 3.458c-.27.24-.68.22-.92-.04a.65.65 0 0 1 .04-.92l3.49-3.018-3.493-3.146a.658.658 0 0 1-.04-.92Z"/></svg>