<svg xmlns="http://www.w3.org/2000/svg" fill="none" viewBox="0 0 24 24" focusable="false"><path fill="#717681" fill-rule="evenodd" d="M3 12a9 9 0 1 0 18 0 9 9 0 0 0-18 0m12.331-1.038c0 .18-.07.35-.21.48-.27.24-.68.22-.92-.04l-2.248-2.5-2.156 2.496a.65.65 0 0 1-.92.04.66.66 0 0 1-.04-.92l2.596-2.986c.28-.31.76-.31 1.04 0l2.688 2.99c.12.13.17.28.17.44m0 3.9c0 .18-.07.35-.21.48-.27.24-.68.22-.92-.04l-2.248-2.5-2.156 2.496a.65.65 0 0 1-.92.04.66.66 0 0 1-.04-.92l2.596-2.986c.28-.31.76-.31 1.04 0l2.688 2.99c.12.13.17.28.17.44" clip-rule="evenodd"/></svg>