<svg xmlns="http://www.w3.org/2000/svg" fill="none" viewBox="0 0 24 24" focusable="false"><defs><clipPath id="Double_Arrow_Right_Outline_svg__a"><path fill="#fff" fill-opacity="0" d="M0 0h24v24H0z"/></clipPath></defs><g clip-path="url(#Double_Arrow_Right_Outline_svg__a)"><path fill="#717681" fill-rule="evenodd" d="M8.99 7.78c-.18 0-.35.07-.48.21-.24.27-.22.68.04.92l3.49 3.15-3.48 3.02a.65.65 0 0 0-.04.92c.24.26.65.28.92.04l3.97-3.46c.32-.28.32-.76 0-1.04L9.43 7.95a.627.627 0 0 0-.44-.17m4 0c-.18 0-.35.07-.48.21-.24.27-.22.68.04.92l3.49 3.15-3.48 3.02a.65.65 0 0 0-.04.92c.24.26.65.28.92.04l3.97-3.46c.32-.28.32-.76 0-1.04l-3.98-3.59a.627.627 0 0 0-.44-.17"/></g></svg>