<svg xmlns="http://www.w3.org/2000/svg" fill="none" viewBox="0 0 24 24" focusable="false"><path fill="#74767B" fill-rule="evenodd" d="M12 3c-4.98 0-9 4.02-9 9 0 4.97 4.02 9 9 9a9 9 0 0 0 9-9c0-4.98-4.03-9-9-9m-1.04 12.33c.18 0 .35-.07.48-.21.24-.27.22-.68-.04-.92l-2.5-2.25 2.49-2.16a.65.65 0 0 0 .04-.92.66.66 0 0 0-.92-.04l-2.98 2.6c-.31.28-.31.76 0 1.04l2.99 2.69c.13.12.28.17.44.17m3.9 0c.18 0 .35-.07.48-.21.24-.27.22-.68-.04-.92l-2.5-2.25 2.49-2.16a.65.65 0 0 0 .04-.92.66.66 0 0 0-.92-.04l-2.98 2.6c-.31.28-.31.76 0 1.04l2.99 2.69c.13.12.28.17.44.17"/></svg>