<svg xmlns="http://www.w3.org/2000/svg" fill="none" viewBox="0 0 24 24" focusable="false"><path d="M0 0H24V24H0z" transform="rotate(-180 12 12)"/><path fill="#74767B" fill-rule="evenodd" d="M9 0C4.02944 -6.08719e-16 1.90735e-06 4.02944 0 9C-6.08719e-16 13.9706 4.02944 18 9 18C13.9706 18 18 13.9706 18 9C18 4.02944 13.9706 6.08719e-16 9 0ZM10.0378 12.3312C9.85782 12.3312 9.68782 12.2612 9.55782 12.1212C9.31782 11.8512 9.33782 11.4412 9.59782 11.2012L12.0976 8.95333L9.60198 6.79702C9.33198 6.55702 9.32198 6.14702 9.56198 5.87702C9.80198 5.61702 10.212 5.59702 10.482 5.83702L13.4676 8.43333C13.7776 8.71333 13.7776 9.19333 13.4676 9.47333L10.4778 12.1612C10.3478 12.2812 10.1978 12.3312 10.0378 12.3312ZM6.13792 12.3312C5.95792 12.3312 5.78792 12.2612 5.65792 12.1212C5.41792 11.8512 5.43792 11.4412 5.69792 11.2012L8.19768 8.95334L5.70207 6.79704C5.43207 6.55704 5.42207 6.14704 5.66207 5.87704C5.90207 5.61704 6.31207 5.59704 6.58207 5.83704L9.56768 8.43334C9.87768 8.71334 9.87768 9.19334 9.56768 9.47334L6.57792 12.1612C6.44792 12.2812 6.29792 12.3312 6.13792 12.3312Z" transform="matrix(0 1 1 0 3 3)"/></svg>