<svg xmlns="http://www.w3.org/2000/svg" fill="none" viewBox="0 0 24 24" focusable="false"><path fill="#717681" fill-rule="evenodd" d="M12 3a9 9 0 1 0 0 18 9 9 0 0 0 0-18m-1.038 12.331c.18 0 .35-.07.48-.21.24-.27.22-.68-.04-.92l-2.5-2.248 2.496-2.156a.65.65 0 0 0 .04-.92.658.658 0 0 0-.92-.04l-2.986 2.596c-.31.28-.31.76 0 1.04l2.99 2.688c.13.12.28.17.44.17m3.9 0c.18 0 .35-.07.48-.21.24-.27.22-.68-.04-.92l-2.5-2.248 2.496-2.156a.65.65 0 0 0 .04-.92.658.658 0 0 0-.92-.04l-2.986 2.596c-.31.28-.31.76 0 1.04l2.99 2.688c.13.12.28.17.44.17" clip-rule="evenodd"/></svg>