<svg xmlns="http://www.w3.org/2000/svg" fill="none" viewBox="0 0 24 24" focusable="false"><path d="M0 0H24V24H0z" transform="rotate(-180 12 12)"/><path fill="#74767B" fill-rule="evenodd" d="M0.168174 0.209999C0.298175 0.0699987 0.468174 0 0.648174 0C0.808174 0 0.958175 0.0499983 1.08817 0.169998L5.07131 3.75626C5.38131 4.03626 5.38131 4.51626 5.07131 4.79626L1.09207 8.25407C0.822073 8.49407 0.412073 8.47406 0.172073 8.21407C-0.0679269 7.94407 -0.0579269 7.53407 0.212073 7.29407L3.70131 4.27626L0.208174 1.13C-0.0518255 0.889999 -0.0718255 0.48 0.168174 0.209999ZM4.64817 0C4.46817 0 4.29817 0.0699987 4.16817 0.209999C3.92817 0.48 3.94817 0.889999 4.20817 1.13L7.70131 4.27626L4.21207 7.29407C3.94207 7.53407 3.93207 7.94407 4.17207 8.21407C4.41207 8.47406 4.82207 8.49407 5.09207 8.25407L9.07131 4.79626C9.38131 4.51626 9.38131 4.03626 9.07131 3.75626L5.08817 0.169998C4.95817 0.0499983 4.80817 0 4.64817 0Z" transform="rotate(-90 12.22 4.431)"/></svg>