<svg xmlns="http://www.w3.org/2000/svg" fill="none" viewBox="0 0 24 24" focusable="false"><path fill="#74767B" fill-rule="evenodd" d="M3 12c0-4.98 4.02-9 9-9 4.97 0 9 4.02 9 9a9 9 0 0 1-9 9c-4.98 0-9-4.03-9-9m12.33 1.03c0-.18-.07-.35-.21-.48a.66.66 0 0 0-.92.04l-2.25 2.5-2.16-2.49a.65.65 0 0 0-.92-.04c-.26.24-.28.65-.04.92l2.6 2.98c.28.31.76.31 1.04 0l2.69-2.99c.12-.13.17-.28.17-.44m0-3.9c0-.18-.07-.35-.21-.48a.66.66 0 0 0-.92.04l-2.25 2.5L9.79 8.7a.65.65 0 0 0-.92-.04c-.26.24-.28.65-.04.92l2.6 2.98c.28.31.76.31 1.04 0l2.69-2.99c.12-.13.17-.28.17-.44"/></svg>