<svg xmlns="http://www.w3.org/2000/svg" fill="none" viewBox="0 0 24 24" focusable="false"><path fill="#74767B" fill-rule="evenodd" d="M3 12c0-4.98 4.02-9 9-9 4.97 0 9 4.02 9 9a9 9 0 0 1-9 9c-4.98 0-9-4.03-9-9m9.68-5.35c0-.36-.29-.65-.65-.65s-.65.29-.65.65v5.13l-1.97-2.1a.636.636 0 0 0-.91-.03c-.15.12-.21.3-.21.48 0 .16.04.31.16.44l3.06 3.21c.28.31.76.31 1.04 0l2.99-3.21c.23-.27.22-.68-.04-.92-.27-.25-.69-.24-.92.03l-1.9 2.05zm-5.33 10c0-.36.29-.65.65-.65h8a.644.644 0 0 1 0 1.29H8c-.36 0-.65-.29-.65-.64"/></svg>