<svg xmlns="http://www.w3.org/2000/svg" fill="none" viewBox="0 0 24 24" focusable="false"><defs><clipPath id="Download_Outline_svg__a"><path fill="#fff" fill-opacity="0" d="M0 0h24v24H0z"/></clipPath></defs><g clip-path="url(#Download_Outline_svg__a)"><path fill="#717681" fill-rule="evenodd" d="M6.42 10.77c-.14.13-.21.3-.21.48 0 .16.05.31.17.44l5.1 4.93c.28.32.76.32 1.04 0l4.73-5.01c.24-.27.22-.68-.04-.92a.65.65 0 0 0-.92.04l-3.64 3.84V4.65c0-.36-.3-.65-.65-.65-.36 0-.65.29-.65.65v9.98l-4.01-3.82a.66.66 0 0 0-.92-.04M5 18.85c-.36 0-.65.29-.65.65 0 .35.29.65.65.65h14c.35 0 .64-.3.64-.65 0-.36-.29-.65-.64-.65z"/></g></svg>