<svg xmlns="http://www.w3.org/2000/svg" fill="none" viewBox="0 0 24 24" focusable="false"><defs><clipPath id="Email_Read_Outline_svg__a"><path fill="#fff" fill-opacity="0" d="M0 0h24v24H0z"/></clipPath></defs><g clip-path="url(#Email_Read_Outline_svg__a)"><path fill="#717681" fill-rule="evenodd" d="m19.76 8.41-5.66-4.2a3.66 3.66 0 0 0-4.39.03L4.43 8.27C3.57 8.8 3 9.75 3 10.84v6.66c0 1.66 1.33 3 3 3h12c1.66 0 3-1.34 3-3v-6.66c0-1-.49-1.88-1.24-2.43m-6.44-3.15a2.34 2.34 0 0 0-2.83.02c-.47.35-.95.73-1.45 1.1C7.68 7.42 6.27 8.5 5.06 9.42l5.42 4.08c.84.63 1.99.63 2.83 0l5.52-4.16zm6.31 5.11-4.28 3.22 2.57 1.94c.28.21.34.62.13.91-.22.28-.63.34-.91.12l-2.87-2.15-.18.13c-1.3.98-3.09.98-4.39 0l-.18-.13-2.87 2.15c-.28.22-.69.16-.91-.12-.21-.29-.16-.7.13-.91l2.57-1.94-4.11-3.09c-.02.11-.04.22-.04.34v6.66c0 .94.77 1.7 1.71 1.7h12c.93 0 1.7-.76 1.7-1.7v-6.66c0-.17-.03-.32-.07-.47"/></g></svg>