<svg xmlns="http://www.w3.org/2000/svg" fill="none" viewBox="0 0 24 24" focusable="false"><defs><clipPath id="Email_Outline_svg__a"><path fill="#fff" fill-opacity="0" d="M0 0h24v24H0z"/></clipPath></defs><g clip-path="url(#Email_Outline_svg__a)"><path fill="#717681" fill-rule="evenodd" d="M6 5C4.33 5 3 6.34 3 8v8c0 1.66 1.33 3 3 3h12c1.66 0 3-1.34 3-3V8c0-1.66-1.36-3-3-3zm13.7 3.94-4.35 3.28 2.57 1.93c.28.22.34.62.13.91-.22.29-.63.35-.91.13l-2.87-2.16-.18.13c-1.3.98-3.09.98-4.39 0l-.18-.13-2.87 2.16c-.28.22-.69.16-.91-.13a.653.653 0 0 1 .13-.91l2.57-1.93-4.15-3.13V16c0 .94.77 1.7 1.71 1.7h12c.93 0 1.7-.76 1.7-1.7zM18 6.29c.72 0 1.34.46 1.59 1.11l-6.28 4.73c-.84.63-1.99.63-2.83 0L4.36 7.52c.21-.71.86-1.23 1.64-1.23z"/></g></svg>