<svg xmlns="http://www.w3.org/2000/svg" fill="none" viewBox="0 0 24 24" focusable="false"><defs><clipPath id="Emoji_Sad_Solid_svg__a"><path fill="#fff" fill-opacity="0" d="M-.5 0h24v24h-24z"/></clipPath></defs><g clip-path="url(#Emoji_Sad_Solid_svg__a)"><path fill="#717681" fill-rule="evenodd" d="M11.5 21a9 9 0 0 0 9-9c0-4.98-4.03-9-9-9-4.98 0-9 4.02-9 9 0 4.97 4.02 9 9 9m3-10.89a.749.749 0 1 0-1.5 0c0 .42.33.75.75.75.41 0 .75-.33.75-.75m-3 3.81c-.94 0-1.76.45-2.26 1.16-.21.29-.61.36-.91.15a.64.64 0 0 1-.15-.9 4.05 4.05 0 0 1 3.32-1.71c1.37 0 2.58.67 3.31 1.71.21.29.14.7-.15.9-.29.21-.7.14-.91-.15-.5-.71-1.32-1.16-2.25-1.16M9.25 9.36a.749.749 0 1 1 0 1.5c-.42 0-.75-.33-.75-.75 0-.41.33-.75.75-.75"/></g></svg>