<svg xmlns="http://www.w3.org/2000/svg" fill="none" viewBox="0 0 24 24" focusable="false"><path fill="#74767B" fill-rule="evenodd" d="M12 21C16.9706 21 21 16.9706 21 12C21 7.02944 16.9706 3 12 3C7.02944 3 3 7.02944 3 12C3 16.9706 7.02944 21 12 21ZM15 10.1195C15 9.70533 14.6642 9.36954 14.25 9.36954C13.8358 9.36954 13.5 9.70533 13.5 10.1195C13.5 10.5338 13.8358 10.8695 14.25 10.8695C14.6642 10.8695 15 10.5338 15 10.1195ZM8.56396 13.9762C8.56396 14.3352 8.85498 14.6262 9.21396 14.6262L14.7872 14.6262C15.1462 14.6262 15.4372 14.3352 15.4372 13.9762C15.4372 13.6173 15.1462 13.3262 14.7872 13.3262L9.21396 13.3262C8.85498 13.3262 8.56396 13.6173 8.56396 13.9762ZM9.75 9.36954C10.1642 9.36954 10.5 9.70533 10.5 10.1195C10.5 10.5338 10.1642 10.8695 9.75 10.8695C9.33579 10.8695 9 10.5338 9 10.1195C9 9.70533 9.33579 9.36954 9.75 9.36954Z"/><path fill="none" d="M21 12C21 16.9706 16.9706 21 12 21C7.02944 21 3 16.9706 3 12C3 7.02944 7.02944 3 12 3C16.9706 3 21 7.02944 21 12ZM13.7203 19.5086C13.1615 19.6362 12.588 19.7 12 19.7C11.412 19.7 10.8386 19.6362 10.2797 19.5086C9.84543 19.4094 9.41992 19.2717 9.00321 19.0954C8.57589 18.9147 8.17118 18.6994 7.78909 18.4495C7.34762 18.1607 6.93635 17.8258 6.55528 17.4447C6.1742 17.0636 5.83929 16.6524 5.55055 16.2109C5.30064 15.8288 5.08531 15.4241 4.90457 14.9968C4.72832 14.5801 4.59061 14.1546 4.49143 13.7203C4.36381 13.1614 4.3 12.588 4.3 12C4.3 11.412 4.3638 10.8386 4.49142 10.2798C4.59059 9.84546 4.72831 9.41993 4.90457 9.00321C5.08532 8.57588 5.30064 8.17117 5.55056 7.78908C5.8393 7.34762 6.17421 6.93635 6.55528 6.55528C6.93634 6.17422 7.34759 5.83932 7.78903 5.55059C8.17113 5.30066 8.57586 5.08532 9.00321 4.90457C9.41992 4.72832 9.84543 4.5906 10.2797 4.49142C10.8386 4.36381 11.412 4.3 12 4.3C12.588 4.3 13.1614 4.36381 13.7203 4.49143C14.1546 4.59061 14.5801 4.72832 14.9968 4.90457C15.4241 5.08531 15.8288 5.30063 16.2109 5.55054C16.6524 5.83928 17.0636 6.1742 17.4447 6.55528C17.8258 6.93634 18.1607 7.3476 18.4494 7.78906C18.6993 8.17115 18.9147 8.57587 19.0954 9.00321C19.2717 9.41991 19.4094 9.8454 19.5086 10.2797C19.6362 10.8386 19.7 11.412 19.7 12C19.7 12.588 19.6362 13.1614 19.5086 13.7203C19.4094 14.1546 19.2717 14.5801 19.0954 14.9968C18.9147 15.4241 18.6994 15.8288 18.4495 16.2109C18.1607 16.6524 17.8258 17.0636 17.4447 17.4447C17.0637 17.8258 16.6524 18.1607 16.2109 18.4494C15.8288 18.6994 15.4241 18.9147 14.9968 19.0954C14.5801 19.2717 14.1546 19.4094 13.7203 19.5086ZM10.1733 8.11318C10.0353 8.08409 9.89417 8.06954 9.75 8.06954C9.60583 8.06954 9.46473 8.08409 9.32669 8.11318C9.19905 8.14008 9.07404 8.17941 8.95165 8.23118C8.83171 8.28191 8.71855 8.34278 8.61215 8.41379C8.50083 8.48808 8.39693 8.57348 8.30043 8.66998C8.20394 8.76647 8.11854 8.87038 8.04425 8.98169C7.97323 9.08809 7.91236 9.20126 7.86163 9.32119C7.80987 9.44358 7.77054 9.56858 7.74364 9.69621C7.71455 9.83426 7.7 9.97537 7.7 10.1195C7.7 10.2637 7.71455 10.4048 7.74364 10.5429C7.77054 10.6705 7.80987 10.7955 7.86163 10.9179C7.91236 11.0378 7.97324 11.151 8.04425 11.2574C8.11854 11.3687 8.20394 11.4726 8.30043 11.5691C8.39692 11.6656 8.50083 11.751 8.61214 11.8253C8.71854 11.8963 8.83171 11.9572 8.95165 12.0079C8.9745 12.0176 8.99745 12.0268 9.02049 12.0356C8.95041 12.0425 8.88111 12.0531 8.81261 12.0675C8.69075 12.0931 8.57139 12.1306 8.45454 12.18C8.34021 12.2284 8.23234 12.2864 8.13095 12.3541C8.02531 12.4247 7.9267 12.5058 7.83511 12.5974C7.74352 12.689 7.66244 12.7876 7.59188 12.8932C7.52415 12.9946 7.4661 13.1025 7.41774 13.2168C7.36831 13.3337 7.3308 13.453 7.3052 13.5749C7.27771 13.7058 7.26396 13.8396 7.26396 13.9762C7.26396 14.1129 7.27771 14.2467 7.30521 14.3776C7.3308 14.4995 7.36831 14.6188 7.41774 14.7357C7.46609 14.85 7.52413 14.9578 7.59185 15.0592C7.66242 15.1649 7.74351 15.2635 7.83511 15.3551C7.92671 15.4467 8.02533 15.5278 8.13098 15.5984C8.23236 15.6661 8.34022 15.7241 8.45454 15.7725C8.57139 15.8219 8.69075 15.8594 8.81261 15.885C8.94351 15.9125 9.07729 15.9262 9.21396 15.9262L14.7872 15.9262C14.9239 15.9262 15.0577 15.9125 15.1886 15.885C15.3104 15.8594 15.4298 15.8219 15.5466 15.7725C15.6609 15.7241 15.7688 15.6661 15.8701 15.5984C15.9758 15.5278 16.0744 15.4467 16.166 15.3551C16.2576 15.2635 16.3387 15.1649 16.4093 15.0592C16.477 14.9579 16.5351 14.85 16.5834 14.7357C16.6328 14.6188 16.6704 14.4994 16.696 14.3776C16.7234 14.2467 16.7372 14.1129 16.7372 13.9762C16.7372 13.8396 16.7234 13.7058 16.696 13.5749C16.6704 13.453 16.6328 13.3337 16.5834 13.2168C16.5351 13.1025 16.477 12.9946 16.4093 12.8932C16.3387 12.7876 16.2576 12.689 16.166 12.5974C16.0744 12.5058 15.9758 12.4247 15.8701 12.3541C15.7688 12.2864 15.6609 12.2284 15.5466 12.18C15.4298 12.1306 15.3104 12.0931 15.1886 12.0675C15.1198 12.053 15.0502 12.0424 14.9797 12.0355C15.0027 12.0268 15.0256 12.0175 15.0484 12.0079C15.1683 11.9572 15.2815 11.8963 15.3879 11.8253C15.4992 11.751 15.6031 11.6656 15.6996 11.5691C15.7961 11.4726 15.8815 11.3687 15.9557 11.2574C16.0268 11.151 16.0876 11.0378 16.1384 10.9179C16.1901 10.7955 16.2295 10.6705 16.2564 10.5429C16.2855 10.4048 16.3 10.2637 16.3 10.1195C16.3 9.97536 16.2855 9.83425 16.2564 9.6962C16.2295 9.56858 16.1901 9.44358 16.1384 9.32119C16.0876 9.20125 16.0268 9.08808 15.9557 8.98168C15.8815 8.87037 15.7961 8.76647 15.6996 8.66998C15.6031 8.57347 15.4992 8.48808 15.3878 8.41378C15.2814 8.34277 15.1683 8.2819 15.0484 8.23118C14.926 8.17941 14.801 8.14008 14.6733 8.11318C14.5353 8.08409 14.3942 8.06954 14.25 8.06954C14.1058 8.06954 13.9647 8.08409 13.8267 8.11318C13.699 8.14008 13.574 8.17941 13.4516 8.23118C13.3317 8.28191 13.2185 8.34278 13.1121 8.41379C13.0008 8.48808 12.8969 8.57348 12.8004 8.66998C12.7039 8.76647 12.6185 8.87038 12.5442 8.98169C12.4732 9.08809 12.4124 9.20126 12.3616 9.32119C12.3099 9.44358 12.2705 9.56859 12.2436 9.69622C12.2145 9.83426 12.2 9.97537 12.2 10.1195C12.2 10.2637 12.2145 10.4048 12.2436 10.5429C12.2705 10.6705 12.3099 10.7955 12.3616 10.9179C12.4124 11.0378 12.4732 11.151 12.5442 11.2574C12.6185 11.3687 12.7039 11.4726 12.8004 11.5691C12.8969 11.6656 13.0008 11.751 13.1121 11.8253C13.2185 11.8963 13.3317 11.9572 13.4516 12.0079C13.4665 12.0142 13.4814 12.0203 13.4964 12.0262L10.5036 12.0262C10.5186 12.0203 10.5335 12.0142 10.5484 12.0079C10.6683 11.9572 10.7815 11.8963 10.8879 11.8253C10.9992 11.751 11.1031 11.6656 11.1996 11.5691C11.2961 11.4726 11.3815 11.3687 11.4558 11.2574C11.5268 11.151 11.5876 11.0378 11.6384 10.9179C11.6901 10.7955 11.7295 10.6705 11.7564 10.5429C11.7855 10.4048 11.8 10.2637 11.8 10.1195C11.8 9.97537 11.7855 9.83426 11.7564 9.69622C11.7295 9.56859 11.6901 9.44358 11.6384 9.32119C11.5876 9.20126 11.5268 9.08809 11.4558 8.98169C11.3815 8.87038 11.2961 8.76647 11.1996 8.66998C11.1031 8.57348 10.9992 8.48809 10.8879 8.4138C10.7815 8.34278 10.6683 8.28191 10.5484 8.23118C10.426 8.17941 10.3009 8.14008 10.1733 8.11318ZM10.5 10.1195C10.5 9.70533 10.1642 9.36954 9.75 9.36954C9.33579 9.36954 9 9.70533 9 10.1195C9 10.5338 9.33579 10.8695 9.75 10.8695C10.1642 10.8695 10.5 10.5338 10.5 10.1195ZM14.25 9.36954C14.6642 9.36954 15 9.70533 15 10.1195C15 10.5338 14.6642 10.8695 14.25 10.8695C13.8358 10.8695 13.5 10.5338 13.5 10.1195C13.5 9.70533 13.8358 9.36954 14.25 9.36954ZM9.21396 14.6262C8.85498 14.6262 8.56396 14.3352 8.56396 13.9762C8.56396 13.6173 8.85498 13.3262 9.21396 13.3262L14.7872 13.3262C15.1462 13.3262 15.4372 13.6173 15.4372 13.9762C15.4372 14.3352 15.1462 14.6262 14.7872 14.6262L9.21396 14.6262Z"/></svg>