<svg xmlns="http://www.w3.org/2000/svg" fill="none" viewBox="0 0 24 24" focusable="false"><path fill="#74767B" fill-rule="evenodd" d="M12 21a9 9 0 0 0 9-9c0-4.98-4.03-9-9-9-4.98 0-9 4.02-9 9 0 4.97 4.02 9 9 9m0-1.3c4.25 0 7.7-3.45 7.7-7.7 0-4.26-3.45-7.7-7.7-7.7a7.7 7.7 0 1 0 0 15.4m-1.5-9.59a.749.749 0 1 0-1.5 0c0 .42.33.75.75.75.41 0 .75-.33.75-.75m4.5 0a.749.749 0 1 0-1.5 0c0 .42.33.75.75.75.41 0 .75-.33.75-.75m-5.79 4.51c-.36 0-.65-.29-.65-.65s.29-.65.65-.65h5.57c.36 0 .65.29.65.65s-.29.65-.65.65z"/></svg>