<svg xmlns="http://www.w3.org/2000/svg" fill="none" viewBox="0 0 24 24" focusable="false"><defs><clipPath id="Emoji_Neutal_Outline_svg__a"><path fill="#fff" fill-opacity="0" d="M-.984 0h24v24h-24z"/></clipPath></defs><g clip-path="url(#Emoji_Neutal_Outline_svg__a)"><path fill="#717681" fill-rule="evenodd" d="M11.01 21a9 9 0 0 0 9-9c0-4.98-4.03-9-9-9s-9 4.02-9 9a9 9 0 0 0 9 9m0-1.3c4.25 0 7.7-3.45 7.7-7.7 0-4.26-3.45-7.7-7.7-7.7s-7.7 3.44-7.7 7.7c0 4.25 3.45 7.7 7.7 7.7m-1.5-9.59c0-.41-.34-.75-.75-.75s-.75.34-.75.75a.749.749 0 1 0 1.5 0m4.5 0c0-.41-.34-.75-.75-.75s-.75.34-.75.75a.749.749 0 1 0 1.5 0m-5.79 4.51c-.35 0-.65-.29-.65-.65 0-.36.3-.65.65-.65h5.58c.36 0 .65.29.65.65 0 .36-.29.65-.65.65z"/></g></svg>