<svg xmlns="http://www.w3.org/2000/svg" fill="none" viewBox="0 0 24 24" focusable="false"><path fill="#717681" d="M12 14.766c-.93 0-1.754-.46-2.256-1.166a.65.65 0 0 0-1.06.753 4.062 4.062 0 0 0 3.317 1.713c1.37 0 2.58-.678 3.316-1.713a.65.65 0 0 0-1.06-.753 2.762 2.762 0 0 1-2.256 1.166M14.25 9.37a.75.75 0 1 1 0 1.5.75.75 0 0 1 0-1.5M10.5 10.12a.75.75 0 1 0-1.5 0 .75.75 0 0 0 1.5 0"/><path fill="#717681" fill-rule="evenodd" d="M21 12a9 9 0 1 1-18 0 9 9 0 0 1 18 0m-1.3 0a7.7 7.7 0 1 1-15.4 0 7.7 7.7 0 0 1 15.4 0" clip-rule="evenodd"/></svg>