<svg xmlns="http://www.w3.org/2000/svg" fill="none" viewBox="0 0 24 24" focusable="false"><defs><clipPath id="Emoji_Smile_Outline_svg__a"><path fill="#fff" fill-opacity="0" d="M0 0h24v24H0z"/></clipPath></defs><g clip-path="url(#Emoji_Smile_Outline_svg__a)"><path fill="#74767B" fill-rule="evenodd" d="M12 21a9 9 0 0 0 9-9c0-4.98-4.03-9-9-9-4.98 0-9 4.02-9 9 0 4.97 4.02 9 9 9m0-1.3c4.25 0 7.7-3.45 7.7-7.7 0-4.26-3.45-7.7-7.7-7.7a7.7 7.7 0 1 0 0 15.4m-1.5-9.59a.749.749 0 1 0-1.5 0c0 .42.33.75.75.75.41 0 .75-.33.75-.75m4.5 0a.749.749 0 1 0-1.5 0c0 .42.33.75.75.75.41 0 .75-.33.75-.75m-5.26 3.48c.5.71 1.32 1.17 2.26 1.17.93 0 1.75-.46 2.25-1.17.21-.29.62-.36.91-.15s.36.62.15.91A4.05 4.05 0 0 1 12 16.06c-1.37 0-2.59-.68-3.32-1.71a.653.653 0 0 1 1.06-.76"/></g></svg>