<svg xmlns="http://www.w3.org/2000/svg" fill="none" viewBox="0 0 24 24" focusable="false"><path fill="#74767B" fill-rule="evenodd" d="M15 4.3H8c-.16 0-.3.01-.44.05l2.1 1.21c.61.34.98.99.98 1.69v9.38c0 .7-.37 1.35-.98 1.69L7.43 19.6c.18.06.37.1.57.1h7c.93 0 1.7-.77 1.7-1.7v-.35c0-.36.29-.65.65-.65.35 0 .65.29.65.65V18c0 1.65-1.35 3-3 3H8c-1.66 0-3-1.35-3-3V6c0-1.66 1.34-3 3-3h7c1.65 0 3 1.34 3 3v.35c0 .35-.3.65-.65.65-.36 0-.65-.3-.65-.65V6c0-.94-.77-1.7-1.7-1.7m2.48 10.91c-.19 0-.36-.07-.48-.21a.64.64 0 0 1 .04-.92l1.55-1.49h-4.95c-.35 0-.64-.29-.64-.65s.29-.65.64-.65h4.95l-1.55-1.37A.64.64 0 0 1 17 9c.24-.26.64-.28.91-.04l2.71 2.46c.31.28.31.76 0 1.04l-2.71 2.58c-.12.12-.27.17-.43.17"/></svg>