<svg xmlns="http://www.w3.org/2000/svg" fill="none" viewBox="0 0 24 24" focusable="false"><path fill="#717681" fill-rule="evenodd" d="M8 4.3h7c.93 0 1.7.76 1.7 1.7v.35c0 .35.29.65.65.65.35 0 .65-.3.65-.65V6c0-1.66-1.35-3-3-3H8C6.34 3 5 4.34 5 6v12c0 1.65 1.34 3 3 3h7c1.65 0 3-1.35 3-3v-.35c0-.36-.3-.65-.65-.65-.36 0-.65.29-.65.65V18c0 .93-.77 1.7-1.7 1.7H8c-.2 0-.39-.04-.57-.1l2.23-1.28c.61-.34.98-.99.98-1.69V7.25c0-.7-.37-1.35-.98-1.69l-2.1-1.21c.14-.04.28-.05.44-.05m1.02 12.9-2.59 1.47c-.08-.21-.14-.43-.14-.67V6c0-.28.07-.54.19-.77.65.38 2.87 1.09 2.87 2.02v9.38c0 .23-.13.45-.33.57M17 15c.12.14.29.21.48.21.16 0 .31-.05.43-.17l2.71-2.58c.31-.28.31-.76 0-1.04l-2.71-2.46A.646.646 0 0 0 17 9a.64.64 0 0 0 .04.92l1.55 1.37h-4.95c-.35 0-.64.29-.64.65s.29.65.64.65h4.95l-1.55 1.49A.64.64 0 0 0 17 15"/></svg>