<svg xmlns="http://www.w3.org/2000/svg" fill="none" viewBox="0 0 24 24" focusable="false"><path fill="#74767B" fill-rule="evenodd" d="M16.5 10.72a.63.63 0 0 1-.48-.21.66.66 0 0 1 .04-.92l2.89-2.72H15c-1.3 0-2.36 1.05-2.36 2.35V14c0 .35-.29.65-.64.65-.36 0-.65-.3-.65-.65V9.22c0-2.02 1.63-3.65 3.65-3.65h3.96v-.02L16.1 3.14a.65.65 0 0 1-.04-.92c.24-.26.64-.28.92-.04L21 5.68c.31.28.31.76 0 1.04l-4.07 3.83c-.12.12-.27.17-.43.17M10 4.65c0-.36-.3-.65-.65-.65H8C6.34 4 5 5.34 5 7v10c0 1.65 1.34 3 3 3h8c1.65 0 3-1.35 3-3v-4.35c0-.36-.3-.65-.65-.65-.36 0-.65.29-.65.65V17c0 .93-.77 1.7-1.7 1.7H8c-.94 0-1.71-.77-1.71-1.7V7c0-.94.77-1.7 1.71-1.7h1.35c.35 0 .65-.3.65-.65"/></svg>