<svg xmlns="http://www.w3.org/2000/svg" fill="none" viewBox="0 0 24 24" focusable="false"><path fill="#717681" fill-rule="evenodd" d="M21 8.5a5.5 5.5 0 1 1-11 0 5.5 5.5 0 0 1 11 0m-5.013 1.52c.13.14.3.21.48.21.16 0 .31-.05.44-.17l2.04-2.029c.31-.28.31-.76 0-1.04L16.906 5a.658.658 0 0 0-.92.04.65.65 0 0 0 .04.92l.88.901c-.157 0-.243 0-.308-.002-.117 0-.17-.001-.449.005a3.65 3.65 0 0 0-3.65 3.65v.35a.65.65 0 1 0 1.3 0v-.35a2.35 2.35 0 0 1 2.35-2.35h.76l-.883.936c-.26.24-.28.65-.04.92" clip-rule="evenodd"/><path fill="#717681" d="M8.85 4c.602 0 .952.74.665 1.27a6.8 6.8 0 0 0 7.503 9.86c.481-.11.982.231.982.725V17a3 3 0 0 1-3 3H8a3 3 0 0 1-3-3V7a3 3 0 0 1 3-3h.85"/></svg>