<svg xmlns="http://www.w3.org/2000/svg" fill="none" viewBox="0 0 24 24" focusable="false"><path fill="#717681" d="M16.02 10.51c.13.14.3.21.48.21.16 0 .31-.05.44-.17L21 6.725c.31-.28.31-.76 0-1.04L16.98 2.18a.66.66 0 0 0-.92.04.65.65 0 0 0 .04.92l2.86 2.415v.015H15a3.65 3.65 0 0 0-3.65 3.65V14a.65.65 0 1 0 1.3 0V9.22A2.35 2.35 0 0 1 15 6.87h3.951l-2.89 2.72c-.26.24-.28.65-.04.92"/><path fill="#717681" d="M9.35 4a.65.65 0 1 1 0 1.3H8A1.7 1.7 0 0 0 6.3 7v10A1.7 1.7 0 0 0 8 18.7h8a1.7 1.7 0 0 0 1.7-1.7v-4.35a.65.65 0 1 1 1.3 0V17a3 3 0 0 1-3 3H8a3 3 0 0 1-3-3V7a3 3 0 0 1 3-3z"/></svg>