<svg xmlns="http://www.w3.org/2000/svg" width="24" height="24" fill="none"><path fill="#717681" d="M13.433 12.91a.65.65 0 0 0-.92 0l-5.155 5.156a1.2 1.2 0 1 1-1.697-1.697l5.156-5.156a.65.65 0 0 0-.92-.92L4.743 15.45a2.501 2.501 0 0 0-.436 2.95l-.707.708a.65.65 0 1 0 .919.92l.68-.68a2.501 2.501 0 0 0 3.08-.362l5.155-5.156a.65.65 0 0 0 0-.92Z"/><path fill="#717681" fill-rule="evenodd" d="M15.3 12.938a.65.65 0 0 0 .905-.932l-.474-.475 3.244-3.244a2.5 2.5 0 1 0-3.536-3.535l-3.244 3.244-.542-.542a.65.65 0 0 0-.924.913l4.552 4.552a.715.715 0 0 1 .019.02Z" clip-rule="evenodd"/></svg>