<svg xmlns="http://www.w3.org/2000/svg" fill="none" viewBox="0 0 24 24" focusable="false"><defs><clipPath id="Eyedropper_Solid_svg__a"><path fill="#fff" fill-opacity="0" d="M0 0h24v24H0z"/></clipPath></defs><g clip-path="url(#Eyedropper_Solid_svg__a)"><path fill="#717681" fill-rule="evenodd" d="M16.2 12.92c-.25.25-.65.25-.91.01 0 0-.01-.01-.01-.02l-4.56-4.55-.01-.01a.653.653 0 0 1 .02-.9c.25-.25.66-.25.92 0l.54.54 3.24-3.24c.98-.98 2.56-.98 3.54 0 .98.97.98 2.56 0 3.53l-3.24 3.25.47.47c.25.25.25.67 0 .92m-3.69-.02c.25-.25.66-.25.92 0 .25.26.25.67 0 .92l-5.16 5.16c-.83.84-2.11.96-3.08.36l-.68.68a.64.64 0 0 1-.92 0 .658.658 0 0 1 0-.92l.71-.71a2.5 2.5 0 0 1 .44-2.95l5.15-5.15a.64.64 0 0 1 .92 0c.26.25.26.66 0 .92l-5.15 5.15c-.47.47-.47 1.23 0 1.7.46.47 1.22.47 1.69 0z"/></g></svg>