<svg xmlns="http://www.w3.org/2000/svg" fill="none" viewBox="0 0 24 24" focusable="false"><path fill="#717681" fill-rule="evenodd" d="m15.286 12.925-.475-.474-6.534 6.534a2.501 2.501 0 0 1-3.08.361l-.68.68a.65.65 0 0 1-.918-.92l.707-.706a2.501 2.501 0 0 1 .436-2.95l6.534-6.535-.542-.541a.65.65 0 0 1 .92-.92l.541.542 3.244-3.244a2.5 2.5 0 0 1 3.536 3.535l-3.244 3.244.474.475a.65.65 0 0 1-.92.919Zm-7.928 5.14 6.534-6.534-1.697-1.697-6.534 6.535a1.2 1.2 0 1 0 1.697 1.697Zm9-12.394-3.244 3.244 1.697 1.697 3.244-3.244a1.2 1.2 0 1 0-1.697-1.697Z" clip-rule="evenodd"/></svg>