<svg xmlns="http://www.w3.org/2000/svg" fill="none" viewBox="0 0 24 24" focusable="false"><defs><clipPath id="Filter_Outline_svg__a"><path fill="#fff" fill-opacity="0" d="M0 0h24v24H0z"/></clipPath></defs><g clip-path="url(#Filter_Outline_svg__a)"><path fill="#717681" fill-rule="evenodd" d="M3.79 4.69c-.36 0-.65.29-.65.65 0 .35.29.65.65.65h.61l.16 1.27c.31 3.11 2.35 5.97 5.08 6.9v5.93c0 .38.42.63.75.43l3.43-1.97c.16-.09.26-.26.26-.43v-3.88c2.83-.87 4.99-3.78 5.31-6.98l.15-1.27h.66c.36 0 .66-.3.66-.65 0-.36-.3-.65-.66-.65zM18.1 7.13l.14-1.14H5.72l.13 1.11c.27 2.69 2 5.07 4.22 5.83l.88.3v5.47l1.83-1.06v-4.37l.92-.28c2.28-.69 4.13-3.16 4.4-5.86"/></g></svg>