<svg xmlns="http://www.w3.org/2000/svg" fill="none" viewBox="0 0 24 24" focusable="false"><path fill="#74767B" fill-rule="evenodd" d="M5.79 2H5C3.34 2 2 3.34 2 5v.69c0 .35.29.65.64.65.36 0 .65-.3.65-.65V5c0-.94.77-1.71 1.71-1.71h.79c.36 0 .65-.29.65-.64 0-.36-.29-.65-.65-.65M22 5.69c0 .35-.3.65-.65.65-.36 0-.65-.3-.65-.65V5c0-.94-.77-1.71-1.7-1.71h-.59c-.36 0-.65-.29-.65-.64 0-.36.29-.65.65-.65H19c1.65 0 3 1.34 3 3zM13.39 6.7v4.29l-.69.01c-.22 0-.42.03-.6.1V6.7c0-.23-.18-.4-.41-.4h-5c-.22 0-.4.17-.4.4v5c0 .22.18.4.4.4h4.41c.25-.65.87-1.1 1.6-1.1h4.59c.94 0 1.71.76 1.71 1.7v4.59c0 .94-.77 1.71-1.71 1.71H12.7c-.94 0-1.7-.77-1.7-1.71V13.4H6.69c-.93 0-1.69-.77-1.69-1.7v-5C5 5.76 5.76 5 6.69 5h5c.94 0 1.7.76 1.7 1.7m4.31 10.59V12.7c0-.23-.18-.4-.41-.4H12.7c-.23 0-.41.17-.41.4v4.59c0 .23.18.41.41.41h4.59c.23 0 .41-.18.41-.41M2 18.3c0-.36.29-.65.64-.65.36 0 .65.29.65.65v.7c0 .93.77 1.7 1.71 1.7h.79c.36 0 .65.29.65.65 0 .35-.29.65-.65.65H5c-1.66 0-3-1.35-3-3zm19.35-.65c-.36 0-.65.29-.65.65v.7c0 .93-.77 1.7-1.7 1.7h-.59c-.36 0-.65.29-.65.65 0 .35.29.65.65.65H19c1.65 0 3-1.35 3-3v-.7c0-.36-.3-.65-.65-.65"/></svg>