<svg xmlns="http://www.w3.org/2000/svg" fill="none" viewBox="0 0 24 24" focusable="false"><path fill="#717681" d="M5.8 2H5a3 3 0 0 0-3 3v.691a.65.65 0 1 0 1.3 0V5A1.7 1.7 0 0 1 5 3.3h.8a.65.65 0 0 0 0-1.3M2 18.309a.65.65 0 1 1 1.3 0V19A1.7 1.7 0 0 0 5 20.7h.8a.65.65 0 1 1 0 1.3H5a3 3 0 0 1-3-3zM20.7 18.309a.65.65 0 1 1 1.3 0V19a3 3 0 0 1-3 3h-.583a.65.65 0 1 1 0-1.3H19a1.7 1.7 0 0 0 1.7-1.7zM22 5.691a.65.65 0 1 1-1.3 0V5A1.7 1.7 0 0 0 19 3.3h-.583a.65.65 0 1 1 0-1.3H19a3 3 0 0 1 3 3z"/><path fill="#717681" fill-rule="evenodd" d="M13.4 11V6.7A1.7 1.7 0 0 0 11.7 5h-5A1.7 1.7 0 0 0 5 6.7v5a1.7 1.7 0 0 0 1.7 1.7H11v3.9a1.7 1.7 0 0 0 1.7 1.7h4.6a1.7 1.7 0 0 0 1.7-1.7v-4.6a1.7 1.7 0 0 0-1.7-1.7h-4.6zm4.3 1.7v4.6a.4.4 0 0 1-.4.4h-4.6a.4.4 0 0 1-.4-.4v-4.6c0-.22.18-.4.4-.4h4.6c.22 0 .4.18.4.4" clip-rule="evenodd"/></svg>