<svg xmlns="http://www.w3.org/2000/svg" fill="none" viewBox="0 0 24 24" focusable="false"><path fill="#717681" fill-rule="evenodd" d="M7.658 7.932a3.001 3.001 0 1 0-1.3-.005v8.105a3.65 3.65 0 0 0 3.65 3.65h3.946c.035 0 .07-.002.103-.008a3.001 3.001 0 1 0-.013-1.285.664.664 0 0 0-.09-.006h-3.946a2.35 2.35 0 0 1-2.35-2.35V12.35H14.052a3.001 3.001 0 1 0 0-1.3H7.658V7.933M8.718 5a1.7 1.7 0 1 1-3.4 0 1.7 1.7 0 0 1 3.4 0m9.963 6.7a1.7 1.7 0 1 1-3.4 0 1.7 1.7 0 0 1 3.4 0m-1.7 9a1.7 1.7 0 1 0 0-3.4 1.7 1.7 0 0 0 0 3.4" clip-rule="evenodd"/><path fill="#717681" d="M12.024 4.35a.65.65 0 1 0 0 1.3h7.356a.65.65 0 1 0 0-1.3h-7.356"/></svg>