<svg xmlns="http://www.w3.org/2000/svg" fill="none" viewBox="0 0 24 24" focusable="false"><defs><clipPath id="Hierarchy_Outline_svg__a"><path fill="#fff" fill-opacity="0" d="M0 0h24v24H0z"/></clipPath></defs><g clip-path="url(#Hierarchy_Outline_svg__a)"><path fill="#717681" fill-rule="evenodd" d="M10.01 5a3.01 3.01 0 0 1-2.36 2.93v3.12h6.4a2.985 2.985 0 0 1 2.93-2.35c1.65 0 3 1.34 3 3 0 1.65-1.35 3-3 3-1.44 0-2.64-1.01-2.93-2.35h-6.4v3.68c0 1.3 1.05 2.35 2.35 2.35h4.04A2.996 2.996 0 0 1 16.98 16c1.65 0 3 1.34 3 3 0 1.65-1.35 3-3 3-1.43 0-2.62-1-2.93-2.33-.03 0-.07.01-.1.01H10c-2.01 0-3.65-1.64-3.65-3.65V7.92A2.99 2.99 0 0 1 4.01 5c0-1.66 1.35-3 3-3 1.66 0 3 1.34 3 3m-3 1.7c.94 0 1.7-.77 1.7-1.7 0-.94-.76-1.7-1.7-1.7s-1.7.76-1.7 1.7c0 .93.76 1.7 1.7 1.7M11.37 5c0-.36.29-.65.65-.65h7.36c.35 0 .65.29.65.65 0 .35-.3.65-.65.65h-7.36c-.36 0-.65-.3-.65-.65m5.61 8.4c.94 0 1.7-.77 1.7-1.7 0-.94-.76-1.7-1.7-1.7s-1.7.76-1.7 1.7c0 .93.76 1.7 1.7 1.7m1.7 5.6c0 .93-.76 1.7-1.7 1.7s-1.7-.77-1.7-1.7c0-.94.76-1.7 1.7-1.7s1.7.76 1.7 1.7"/></g></svg>