<svg xmlns="http://www.w3.org/2000/svg" fill="none" viewBox="0 0 24 24" focusable="false"><defs><clipPath id="Hourglass_Solid_svg__a"><path fill="#fff" fill-opacity="0" d="M0 0h24v24H0z"/></clipPath></defs><g clip-path="url(#Hourglass_Solid_svg__a)"><path fill="#717681" fill-rule="evenodd" d="M7.56 3.33c-.91 0-1.65.74-1.65 1.65v.2c0 2.21.91 4.25 2.65 5.58l1.28 1.01c.06.05.1.13.1.22 0 .1-.04.18-.1.23l-1.29 1.01c0 .01-.01.02-.02.03-.55.48-1.03 1.03-1.43 1.64-.28.43.06.96.57.96h8.65c.51 0 .84-.53.56-.96-.41-.63-.93-1.2-1.53-1.66l-1.19-1-.01-.02c-.06-.04-.1-.13-.1-.23 0-.09.04-.17.1-.22l1.28-1.01.03-.03c1.6-1.39 2.62-3.41 2.62-5.55v-.2c0-.91-.74-1.65-1.65-1.65zM5.91 18.81c0-.38.03-.75.09-1.12.06-.31.34-.53.66-.53h10.66c.32 0 .61.21.66.53.07.37.1.75.1 1.12v.2c0 .91-.74 1.65-1.65 1.65H7.56c-.91 0-1.65-.74-1.65-1.65z"/></g></svg>