<svg xmlns="http://www.w3.org/2000/svg" fill="none" viewBox="0 0 24 24" focusable="false"><path fill="#74767B" fill-rule="evenodd" d="M10 4.65C10 4.29101 9.70899 4 9.35 4L8 4C6.34315 4 5 5.34315 5 7L5 17C5 18.6569 6.34315 20 8 20L16 20C17.6569 20 19 18.6569 19 17L19 8.38863C19 8.02964 18.709 7.73863 18.35 7.73863C17.991 7.73863 17.7 8.02964 17.7 8.38863L17.7 17C17.7 17.9389 16.9389 18.7 16 18.7L8 18.7C7.06112 18.7 6.3 17.9389 6.3 17L6.3 7C6.3 6.06112 7.06112 5.3 8 5.3L9.35 5.3C9.70899 5.3 10 5.00899 10 4.65ZM16.5181 10.2368C16.5181 10.0568 16.4481 9.88683 16.3081 9.75682C16.0381 9.51682 15.6281 9.53683 15.3881 9.79683L12.6682 12.688L12.6682 7.73684C12.6682 6.43898 13.7203 5.38684 15.0182 5.38684L18.3644 5.38684C18.7234 5.38684 19.0144 5.09583 19.0144 4.73684C19.0144 4.37786 18.7234 4.08684 18.3644 4.08684L15.0182 4.08684C13.0023 4.08684 11.3682 5.72101 11.3682 7.73684L11.3682 12.6975L11.3526 12.6974L8.93815 9.83685C8.69815 9.56685 8.28815 9.55685 8.01815 9.79685C7.75815 10.0368 7.73815 10.4468 7.97815 10.7168L11.4826 14.7368C11.7626 15.0468 12.2426 15.0468 12.5226 14.7368L16.3481 10.6768C16.4681 10.5468 16.5181 10.3968 16.5181 10.2368Z"/></svg>