<svg xmlns="http://www.w3.org/2000/svg" fill="none" viewBox="0 0 24 24" focusable="false"><path fill="#717681" fill-rule="evenodd" d="M21 8.5a5.5 5.5 0 1 1-11 0 5.5 5.5 0 0 1 11 0m-3.77.967c0-.18-.07-.35-.21-.48a.66.66 0 0 0-.92.04l-.936.884V9.15a2.35 2.35 0 0 1 2.35-2.35h.35a.65.65 0 1 0 0-1.3h-.35a3.65 3.65 0 0 0-3.65 3.65c-.006.28-.006.332-.005.449.001.065.002.15.002.308l-.901-.88a.65.65 0 0 0-.92-.04c-.26.24-.28.65-.04.92l1.991 2.04c.28.31.76.31 1.04 0l2.029-2.04c.12-.13.17-.28.17-.44" clip-rule="evenodd"/><path fill="#717681" d="M9.515 5.27C9.802 4.74 9.452 4 8.85 4H8a3 3 0 0 0-3 3v10a3 3 0 0 0 3 3h7a3 3 0 0 0 3-3v-1.145c0-.494-.5-.835-.983-.725q-.733.168-1.517.17A6.8 6.8 0 0 1 9.515 5.27"/></svg>