<svg xmlns="http://www.w3.org/2000/svg" fill="none" viewBox="0 0 24 24" focusable="false"><path fill="#717681" fill-rule="evenodd" d="M9.35 4c.35 0 .65.29.65.64 0 .36-.3.66-.65.66H8c-.94 0-1.71.76-1.71 1.7v10c0 .93.77 1.7 1.71 1.7h8c.93 0 1.7-.77 1.7-1.7V8.38c0-.36.29-.65.65-.65.35 0 .65.29.65.65V17c0 1.65-1.35 3-3 3H8c-1.66 0-3-1.35-3-3V7c0-1.66 1.34-3 3-3zm7.16 6.23c0-.18-.07-.35-.21-.48a.66.66 0 0 0-.92.04l-2.72 2.89V7.73c0-1.3 1.06-2.35 2.35-2.35h3.35c.36 0 .65-.29.65-.65s-.29-.65-.65-.65h-3.35c-2.01 0-3.65 1.64-3.65 3.65v4.96h-.01L8.93 9.83a.65.65 0 0 0-.92-.04c-.26.24-.28.65-.04.92l3.51 4.02c.28.31.76.31 1.04 0l3.82-4.06c.12-.13.17-.28.17-.44"/></svg>