<svg xmlns="http://www.w3.org/2000/svg" fill="none" viewBox="0 0 24 24" focusable="false"><path d="M0 0H24V24H0z"/><path fill="#74767B" fill-rule="evenodd" d="M21 8.5C21 11.5376 18.5376 14 15.5 14C12.4624 14 10 11.5376 10 8.5C10 5.46243 12.4624 3 15.5 3C18.5376 3 21 5.46243 21 8.5ZM8.84951 4C9.45248 4 9.80156 4.73942 9.51472 5.26979C8.99504 6.23069 8.7 7.33089 8.7 8.5C8.7 12.2555 11.7445 15.3 15.5 15.3C16.0216 15.3 16.5295 15.2413 17.0174 15.1301C17.4991 15.0203 18 15.3613 18 15.8554L18 17C18 18.6569 16.6569 20 15 20L8 20C6.34315 20 5 18.6569 5 17L5 7C5 5.34315 6.34315 4 8 4L8.84951 4ZM17.2298 9.46687C17.2298 9.28687 17.1598 9.11687 17.0198 8.98687C16.7498 8.74687 16.3398 8.76687 16.0998 9.02687L15.1641 9.91075L15.1641 9.15001C15.1641 7.85214 16.2163 6.80001 17.5141 6.80001L17.8639 6.80001C18.2229 6.80001 18.5139 6.50899 18.5139 6.15001C18.5139 5.79102 18.2229 5.50001 17.8639 5.50001L17.5141 5.50001C15.4983 5.50001 13.8641 7.13417 13.8641 9.15001C13.8577 9.42965 13.8583 9.48234 13.8595 9.59866C13.8602 9.66406 13.8611 9.74959 13.8611 9.90687L12.96 9.02687C12.72 8.75687 12.31 8.74687 12.04 8.98687C11.78 9.22687 11.76 9.63687 12 9.90687L13.9911 11.9463C14.2711 12.2563 14.7511 12.2563 15.0311 11.9463L17.0598 9.90687C17.1798 9.77687 17.2298 9.62687 17.2298 9.46687Z"/></svg>