<svg xmlns="http://www.w3.org/2000/svg" fill="none" viewBox="0 0 24 24" focusable="false"><path fill="#717681" d="M10 4.65A.65.65 0 0 0 9.35 4H8a3 3 0 0 0-3 3v10a3 3 0 0 0 3 3h8a3 3 0 0 0 3-3V8.389a.65.65 0 1 0-1.3 0V17a1.7 1.7 0 0 1-1.7 1.7H8A1.7 1.7 0 0 1 6.3 17V7A1.7 1.7 0 0 1 8 5.3h1.35a.65.65 0 0 0 .65-.65"/><path fill="#717681" d="M16.308 9.757c.14.13.21.3.21.48 0 .16-.05.31-.17.44l-3.825 4.06c-.28.31-.76.31-1.04 0l-3.505-4.02a.66.66 0 0 1 .04-.92.65.65 0 0 1 .92.04l2.415 2.86h.015v-4.96a3.65 3.65 0 0 1 3.65-3.65h3.346a.65.65 0 1 1 0 1.3h-3.346a2.35 2.35 0 0 0-2.35 2.35v4.951l2.72-2.891c.24-.26.65-.28.92-.04"/></svg>