<svg xmlns="http://www.w3.org/2000/svg" fill="none" viewBox="0 0 24 24" focusable="false"><defs><clipPath id="Import_Solid_svg__a"><path fill="#fff" fill-opacity="0" d="M0 0h24v24H0z"/></clipPath></defs><g clip-path="url(#Import_Solid_svg__a)"><path fill="#717681" fill-rule="evenodd" d="M15.5 14c3.03 0 5.5-2.47 5.5-5.5C21 5.46 18.53 3 15.5 3 12.46 3 10 5.46 10 8.5c0 3.03 2.46 5.5 5.5 5.5M8.84 4c.61 0 .96.73.67 1.26-.52.97-.81 2.07-.81 3.24a6.8 6.8 0 0 0 8.31 6.63c.48-.11.99.23.99.72V17c0 1.65-1.35 3-3 3H8c-1.66 0-3-1.35-3-3V7c0-1.66 1.34-3 3-3zm8.18 4.98c.13.13.21.3.21.48 0 .16-.06.31-.18.44l-2.02 2.04c-.28.31-.76.31-1.04 0L12 9.9a.64.64 0 0 1 .04-.92.65.65 0 0 1 .92.04l.9.88c0-.16 0-.24-.01-.31 0-.11 0-.17.01-.44 0-2.02 1.63-3.65 3.65-3.65h.35c.36 0 .65.29.65.65 0 .35-.29.65-.65.65h-.35c-1.3 0-2.35 1.05-2.35 2.35v.76l.93-.89a.67.67 0 0 1 .93-.04"/></g></svg>