<svg xmlns="http://www.w3.org/2000/svg" fill="none" viewBox="0 0 24 24" focusable="false"><path fill="#74767B" fill-rule="evenodd" d="M16.83 9.88c0 .8-.18 1.67-.55 2.6-.14.34.02.71.36.85.34.13.71-.03.85-.37.43-1.09.64-2.11.64-3.08 0-.51-.05-1.02-.16-1.51-.09-.41-.22-.8-.38-1.19-.17-.4-.37-.77-.6-1.12-.26-.39-.56-.76-.89-1.09-.34-.34-.71-.64-1.1-.9-.35-.23-.72-.43-1.11-.59q-.585-.255-1.2-.39c-.49-.11-1-.16-1.51-.16-.52 0-1.03.05-1.52.16-.4.09-.8.22-1.19.39-.39.16-.77.36-1.12.59-.39.26-.75.56-1.09.9s-.64.7-.9 1.09c-.23.35-.43.72-.59 1.12-.17.39-.29.78-.38 1.19-.11.49-.17 1-.17 1.51 0 1.23.35 2.55 1.05 3.98.55 1.11 1.3 2.26 2.25 3.46.67.84 1.41 1.67 2.21 2.47q.615.615 1.02.96c.29.25.57.25.85.01.27-.24.61-.56 1.01-.96.26-.25.26-.66.01-.92a.65.65 0 0 0-.92 0c-.19.19-.37.36-.52.5-.16-.15-.34-.32-.53-.51-.77-.77-1.48-1.56-2.12-2.36-.89-1.12-1.58-2.19-2.09-3.22-.61-1.25-.92-2.38-.92-3.41a5.546 5.546 0 0 1 .45-2.2c.13-.31.29-.61.47-.89.21-.32.46-.63.74-.9.28-.28.58-.53.9-.74q.42-.27.9-.48c.3-.13.62-.23.94-.3a5.7 5.7 0 0 1 2.51 0c.33.07.64.17.95.3.31.14.61.3.89.48.33.21.63.46.91.74.28.27.52.58.73.9.19.28.35.58.48.89s.23.63.3.95c.1.41.14.83.14 1.25m-8.87 3.35V7.87c0-.36.29-.65.65-.65s.65.29.65.65v5.36c0 .37-.29.65-.65.65s-.65-.28-.65-.65m2.85 0V7.87c0-.22.06-.38.17-.49.1-.11.27-.16.48-.16h1.73c.17 0 .34.02.5.05.13.03.27.08.4.13.14.06.26.12.38.2q.195.135.36.3c.11.11.21.23.29.36.08.12.15.24.2.37.06.14.1.27.13.41a2.074 2.074 0 0 1 0 .99c-.03.14-.07.27-.13.4-.05.14-.12.26-.2.38-.08.13-.18.25-.29.36s-.23.21-.36.29c-.12.08-.24.15-.38.2-.13.06-.26.1-.4.13-.16.04-.33.06-.5.06h-1.08v1.38c0 .37-.28.65-.65.65-.36 0-.65-.28-.65-.65m2.38-2.68h-1.08V8.52h1.08q.12 0 .24.03c.05.01.11.03.16.05.12.05.23.12.32.22.09.09.17.2.22.32.02.05.04.1.05.16.02.07.03.15.03.23q0 .12-.03.24c-.01.05-.03.11-.05.16-.05.12-.13.23-.22.32s-.2.17-.32.22c-.05.02-.11.04-.16.05q-.12.03-.24.03m.31 7.32c0 .36.29.65.65.65h3.32l-1.51 1.42c-.26.24-.27.65-.03.92.25.26.66.27.92.03l2.71-2.55c.13-.12.21-.29.21-.47s-.08-.35-.21-.48l-2.71-2.54a.66.66 0 0 0-.92.03c-.24.26-.23.67.03.92l1.51 1.42h-3.32c-.36 0-.65.29-.65.65"/></svg>