<svg xmlns="http://www.w3.org/2000/svg" fill="none" viewBox="0 0 24 24" focusable="false"><defs><clipPath id="IP_External_Solid_svg__a"><path fill="#fff" fill-opacity="0" d="M0 0h24v24H0z"/></clipPath></defs><g clip-path="url(#IP_External_Solid_svg__a)"><path fill="#717681" fill-rule="evenodd" d="M10.9 20.33c-.06.05-.13.09-.2.11-.07.03-.15.04-.23.04s-.16-.01-.23-.04a.5.5 0 0 1-.19-.11c-.28-.24-.62-.56-1.02-.97-.81-.8-1.55-1.63-2.22-2.47-.95-1.2-1.7-2.35-2.24-3.46-.7-1.43-1.05-2.75-1.05-3.98 0-.51.05-1.02.16-1.51.09-.41.22-.8.38-1.19.17-.4.37-.77.6-1.12.26-.39.56-.76.89-1.09.34-.34.71-.64 1.1-.9.35-.23.72-.43 1.11-.59q.585-.255 1.2-.39c.49-.11.99-.16 1.51-.16s1.03.05 1.52.16c.4.09.8.22 1.19.39a6.758 6.758 0 0 1 2.21 1.49c.34.33.64.7.9 1.09.23.35.43.72.59 1.12.17.39.29.78.38 1.19.11.49.17 1 .17 1.51 0 .49-.06.99-.16 1.5a.42.42 0 0 1-.47.31A5.79 5.79 0 0 0 10.19 17c0 1.05.28 2.05.77 2.9.08.15.06.32-.06.43M6.86 7.4v5.37c0 .36.29.65.65.65.37 0 .65-.29.65-.65V7.4c0-.36-.28-.65-.65-.65-.36 0-.65.29-.65.65m2.86 0v5.37c0 .36.28.65.65.65.36 0 .65-.29.65-.65v-1.39h1.08q.25 0 .49-.05c.14-.03.28-.08.41-.13q.2-.09.37-.2a2.6 2.6 0 0 0 .66-.66c.07-.12.14-.24.2-.37.05-.13.1-.27.13-.41.03-.16.05-.32.05-.49q0-.25-.05-.48v-.02c-.03-.14-.08-.27-.13-.4-.06-.14-.13-.26-.2-.38q-.135-.195-.3-.36a2 2 0 0 0-.36-.29c-.12-.08-.24-.15-.37-.2-.13-.06-.27-.1-.41-.13-.16-.04-.32-.06-.49-.06h-1.73a.66.66 0 0 0-.46.19.62.62 0 0 0-.19.46m1.3 2.68h1.08c.08 0 .16-.01.23-.03q.08-.02.16-.05c.06-.02.11-.05.16-.08a.7.7 0 0 0 .16-.14c.05-.05.1-.1.14-.16.03-.05.06-.1.08-.16.02-.05.04-.1.05-.16.02-.07.03-.15.03-.23q0-.12-.03-.23v-.01a1 1 0 0 0-.05-.16c-.02-.05-.05-.1-.08-.15-.04-.06-.09-.12-.14-.17s-.1-.1-.16-.14c-.05-.03-.1-.05-.16-.08a.8.8 0 0 0-.16-.05.9.9 0 0 0-.23-.03h-1.08zm4.96 11.41c2.48 0 4.49-2.01 4.49-4.5 0-2.48-2.01-4.5-4.49-4.5a4.5 4.5 0 0 0 0 9m-2.48-3.85c-.36 0-.65-.29-.65-.65s.29-.65.65-.65h3.33l-1.2-1.12a.65.65 0 0 1-.03-.92c.24-.26.65-.28.92-.03l2.4 2.25c.13.12.2.29.2.47s-.07.35-.2.48l-2.4 2.25c-.27.24-.68.23-.92-.03a.65.65 0 0 1 .03-.92l1.2-1.13z"/></g></svg>