<svg xmlns="http://www.w3.org/2000/svg" fill="none" viewBox="0 0 24 24" focusable="false"><defs><clipPath id="IP_Outline_svg__a"><path fill="#fff" fill-opacity="0" d="M0 0h24v24H0z"/></clipPath></defs><g clip-path="url(#IP_Outline_svg__a)"><path fill="#717681" fill-rule="evenodd" d="M11.57 20.82c.28.24.57.24.85 0 .27-.24.61-.56 1.02-.96.8-.81 1.54-1.63 2.22-2.47.94-1.2 1.69-2.35 2.24-3.46.7-1.43 1.05-2.76 1.05-3.98 0-.52-.05-1.03-.16-1.52-.09-.41-.22-.8-.39-1.19-.16-.4-.36-.77-.59-1.12-.26-.39-.56-.75-.9-1.09-.34-.34-.7-.64-1.09-.9-.35-.23-.72-.43-1.12-.59-.39-.17-.78-.3-1.19-.39-.49-.11-1-.16-1.51-.16-.52 0-1.03.05-1.52.16-.41.09-.8.22-1.19.39-.4.16-.77.36-1.12.59-.39.26-.76.56-1.09.9-.34.34-.64.7-.9 1.09-.23.35-.43.72-.59 1.12-.17.39-.3.78-.39 1.19-.11.49-.16 1-.16 1.52 0 1.22.35 2.55 1.05 3.97.55 1.11 1.29 2.27 2.24 3.46.68.84 1.41 1.67 2.22 2.47.41.41.74.73 1.02.97m.43-1.37c.15-.15.33-.32.52-.52.77-.76 1.48-1.55 2.12-2.35.89-1.12 1.59-2.19 2.09-3.22.61-1.25.92-2.39.92-3.41a5.862 5.862 0 0 0-.44-2.21c-.29-.67-.69-1.27-1.22-1.79-.52-.53-1.12-.93-1.79-1.22a5.84 5.84 0 0 0-2.2-.44 5.862 5.862 0 0 0-2.21.44c-.31.14-.61.3-.89.48-.32.21-.63.46-.9.74-.28.28-.53.58-.74.9-.18.28-.34.58-.48.89a5.862 5.862 0 0 0-.44 2.21c0 1.02.3 2.15.92 3.4.5 1.03 1.2 2.1 2.09 3.22.64.8 1.35 1.59 2.12 2.36.19.19.37.36.53.52m-.26-8.19v2.03c0 .37.28.65.65.65.36 0 .65-.28.65-.65v-1.38h1.08c.31 0 .61-.06.9-.18.27-.12.52-.29.73-.5.22-.21.38-.46.5-.74.05-.13.1-.26.13-.4.03-.16.05-.33.05-.5 0-.17-.02-.33-.05-.49-.03-.14-.08-.27-.13-.41-.12-.27-.28-.52-.5-.73-.11-.11-.23-.21-.36-.3-.12-.07-.24-.14-.37-.2-.14-.05-.27-.1-.41-.13-.16-.03-.32-.05-.49-.05h-1.73c-.22 0-.38.05-.49.16-.11.11-.16.27-.16.49zm1.3-.65h1.08c.13 0 .27-.03.39-.08s.23-.13.32-.22c.1-.09.17-.2.22-.32.05-.13.08-.26.08-.4 0-.08-.01-.16-.03-.23-.01-.06-.03-.11-.05-.16a.875.875 0 0 0-.22-.32c-.09-.1-.2-.17-.32-.22-.12-.05-.26-.08-.39-.08h-1.08zm-2.86 2.68V7.93c0-.36-.28-.65-.65-.65-.36 0-.65.29-.65.65v5.36c0 .37.29.65.65.65.37 0 .65-.28.65-.65"/></g></svg>