<svg xmlns="http://www.w3.org/2000/svg" fill="none" viewBox="0 0 24 24" focusable="false"><defs><clipPath id="IP_Solid_svg__a"><path fill="#fff" fill-opacity="0" d="M0 0h24v24H0z"/></clipPath></defs><g clip-path="url(#IP_Solid_svg__a)"><path fill="#74767B" fill-rule="evenodd" d="M5.04 9.91c0 4.47 4.98 9.39 6.51 10.79.25.23.64.23.89 0 1.53-1.4 6.51-6.3 6.51-10.79 0-3.75-3.11-6.79-6.95-6.79-3.85 0-6.96 3.04-6.96 6.79m6.45 3.51V8.06c0-.22.06-.38.16-.49.11-.11.27-.16.49-.16h1.73q.465 0 .9.18c.13.06.26.12.38.2.12.09.24.18.36.3.11.11.21.23.29.36.08.11.15.24.2.37.06.13.1.27.13.41.04.16.05.32.05.49q0 .48-.18.9c-.05.13-.12.26-.2.38-.08.13-.18.25-.29.36-.22.21-.46.38-.74.49-.13.06-.27.1-.4.13-.17.04-.33.06-.5.06h-1.08v1.38c0 .37-.28.65-.65.65-.36 0-.65-.28-.65-.65M9.94 8.06c0-.37-.29-.65-.65-.65-.37 0-.65.28-.65.65v5.36c0 .37.28.65.65.65.36 0 .65-.28.65-.65zm3.93 2.68h-1.08V8.71h1.08c.14 0 .27.02.4.08a.988.988 0 0 1 .53.54c.03.05.04.1.06.16.01.07.02.15.02.23 0 .14-.02.27-.08.4-.05.12-.12.22-.21.32-.1.09-.2.16-.32.22-.13.05-.26.08-.4.08"/></g></svg>