<svg xmlns="http://www.w3.org/2000/svg" width="24" height="24" fill="none"><path fill="#717681" d="M9.148 13.938a.65.65 0 1 0 0 1.3h5.704a.65.65 0 1 0 0-1.3H9.148ZM15.995 9.412a.65.65 0 0 1 .65-.65h.697a.65.65 0 1 1 0 1.3h-.697a.65.65 0 0 1-.65-.65ZM6.648 8.762a.65.65 0 0 0 0 1.3h.697a.65.65 0 1 0 0-1.3h-.697ZM9.33 9.412a.65.65 0 0 1 .65-.65h.697a.65.65 0 1 1 0 1.3H9.98a.65.65 0 0 1-.65-.65ZM13.313 8.762a.65.65 0 1 0 0 1.3h.697a.65.65 0 1 0 0-1.3h-.697ZM15.995 11.912a.65.65 0 0 1 .65-.65h.697a.65.65 0 0 1 0 1.3h-.697a.65.65 0 0 1-.65-.65ZM6.648 11.262a.65.65 0 0 0 0 1.3h.697a.65.65 0 1 0 0-1.3h-.697ZM9.33 11.912a.65.65 0 0 1 .65-.65h.697a.65.65 0 0 1 0 1.3H9.98a.65.65 0 0 1-.65-.65ZM13.313 11.262a.65.65 0 0 0 0 1.3h.697a.65.65 0 1 0 0-1.3h-.697Z"/><path fill="#717681" fill-rule="evenodd" d="M3 8.6a3 3 0 0 1 3-3h12a3 3 0 0 1 3 3v6.8a3 3 0 0 1-3 3H6a3 3 0 0 1-3-3V8.6Zm3-1.7h12a1.7 1.7 0 0 1 1.7 1.7v6.8a1.7 1.7 0 0 1-1.7 1.7H6a1.7 1.7 0 0 1-1.7-1.7V8.6A1.7 1.7 0 0 1 6 6.9Z" clip-rule="evenodd"/></svg>