<svg xmlns="http://www.w3.org/2000/svg" fill="none" viewBox="0 0 24 24" focusable="false"><path fill="#717681" d="M17 12a5 5 0 1 1-10 0 5 5 0 0 1 10 0"/><path fill="#717681" fill-rule="evenodd" d="M12 2a.65.65 0 0 1 .65.65v2.448a.65.65 0 0 1-1.3 0V2.65A.65.65 0 0 1 12 2M12 22a.65.65 0 0 1-.65-.65v-2.448a.65.65 0 1 1 1.3 0v2.448A.65.65 0 0 1 12 22M4.93 4.929a.65.65 0 0 1 .919 0l1.73 1.73a.65.65 0 0 1-.92.92l-1.73-1.73a.65.65 0 0 1 0-.92M19.07 19.07a.65.65 0 0 1-.918 0l-1.73-1.73a.65.65 0 1 1 .918-.92l1.73 1.731a.65.65 0 0 1 0 .92M2 12a.65.65 0 0 1 .65-.65h2.448a.65.65 0 1 1 0 1.3H2.65A.65.65 0 0 1 2 12M22 12a.65.65 0 0 1-.65.65h-2.448a.65.65 0 0 1 0-1.3h2.448A.65.65 0 0 1 22 12M4.93 19.07a.65.65 0 0 1 0-.918l1.73-1.73a.65.65 0 0 1 .92.918l-1.731 1.73a.65.65 0 0 1-.92 0M19.071 4.93a.65.65 0 0 1 0 .919l-1.73 1.73a.65.65 0 0 1-.92-.92l1.73-1.73a.65.65 0 0 1 .92 0" clip-rule="evenodd"/></svg>