<svg xmlns="http://www.w3.org/2000/svg" fill="none" viewBox="0 0 24 24" focusable="false"><defs><clipPath id="Light_Mode_Outline_svg__a"><path fill="#fff" fill-opacity="0" d="M0 0h24v24H0z"/></clipPath></defs><g clip-path="url(#Light_Mode_Outline_svg__a)"><path fill="#717681" fill-rule="evenodd" d="M12 2c.35 0 .65.29.65.65l-.01 2.44c0 .36-.29.65-.64.65-.36 0-.65-.29-.65-.65V2.65c0-.36.29-.65.65-.65M4.92 4.92c.26-.25.67-.25.92 0l1.73 1.73c.13.13.19.3.19.46 0 .17-.06.34-.19.46a.64.64 0 0 1-.92 0L4.92 5.84a.66.66 0 0 1-.19-.46c0-.16.07-.33.19-.46m14.34.46c0 .17-.07.34-.19.46l-1.73 1.73a.64.64 0 0 1-.92 0 .62.62 0 0 1-.19-.46c0-.16.06-.33.19-.46l1.73-1.73c.25-.25.66-.25.92 0 .12.13.19.3.19.46M17 12c0 2.76-2.24 5-5 5-2.77 0-5-2.24-5-5 0-2.77 2.23-5 5-5 2.76 0 5 2.23 5 5m-5 3.7a3.704 3.704 0 0 0 0-7.41A3.7 3.7 0 0 0 8.3 12c0 2.04 1.65 3.7 3.7 3.7m10-3.71c-.01.36-.3.65-.66.65H18.9c-.36 0-.65-.29-.65-.65 0-.35.29-.65.65-.65h2.44c.36 0 .66.3.66.65m-20 0c0-.35.29-.65.65-.65h2.44c.36 0 .65.3.65.65 0 .36-.29.65-.65.65H2.65c-.36 0-.65-.29-.65-.65m2.92 7.08a.697.697 0 0 1-.19-.46c0-.17.07-.34.19-.46l1.73-1.73a.64.64 0 0 1 .92 0c.13.12.19.29.19.46 0 .16-.06.33-.19.46l-1.73 1.73c-.25.25-.66.25-.92 0m14.15 0c-.26.25-.67.25-.92 0l-1.73-1.73a.651.651 0 0 1-.19-.46c0-.17.06-.34.19-.46a.64.64 0 0 1 .92 0l1.73 1.73c.12.12.19.29.19.46 0 .16-.07.33-.19.46M12 21.99c-.36 0-.65-.29-.65-.65V18.9c0-.36.29-.65.65-.65.35 0 .65.29.65.65l-.01 2.44c0 .36-.29.65-.64.65"/></g></svg>