<svg xmlns="http://www.w3.org/2000/svg" fill="none" viewBox="0 0 24 24" focusable="false"><path fill="#717681" d="M12 2a.65.65 0 0 1 .65.65v2.448a.65.65 0 1 1-1.3 0V2.65A.65.65 0 0 1 12 2Z"/><path fill="#717681" fill-rule="evenodd" d="M12 17a5 5 0 1 0 0-10 5 5 0 0 0 0 10Zm0-1.3a3.7 3.7 0 1 0 0-7.4 3.7 3.7 0 0 0 0 7.4Z" clip-rule="evenodd"/><path fill="#717681" d="M11.35 21.35a.65.65 0 1 0 1.3 0v-2.448a.65.65 0 1 0-1.3 0v2.447ZM4.93 4.929a.65.65 0 0 1 .919 0l1.73 1.73a.65.65 0 1 1-.92.92l-1.73-1.73a.65.65 0 0 1 0-.92ZM18.152 19.071a.65.65 0 0 0 .919-.92l-1.73-1.73a.65.65 0 0 0-.92.92l1.73 1.73ZM2 12a.65.65 0 0 1 .65-.65h2.448a.65.65 0 1 1 0 1.3H2.65A.65.65 0 0 1 2 12ZM21.35 12.65a.65.65 0 0 0 0-1.3h-2.448a.65.65 0 1 0 0 1.3h2.448ZM4.93 19.07a.65.65 0 0 1 0-.919l1.73-1.73a.65.65 0 0 1 .919.92l-1.73 1.73a.65.65 0 0 1-.92 0ZM19.071 5.849a.65.65 0 0 0-.92-.92l-1.73 1.73a.65.65 0 0 0 .92.92l1.73-1.73Z"/></svg>