<svg xmlns="http://www.w3.org/2000/svg" fill="none" viewBox="0 0 24 24" focusable="false"><defs><clipPath id="Light_Mode_Solid_svg__a"><path fill="#fff" fill-opacity="0" d="M0 0h24v24H0z"/></clipPath></defs><g clip-path="url(#Light_Mode_Solid_svg__a)"><path fill="#717681" fill-rule="evenodd" d="M12 2c.35 0 .65.29.65.65v2.44c-.01.36-.3.65-.65.65-.36 0-.65-.29-.65-.65V2.65c0-.36.29-.65.65-.65M4.92 4.92c.26-.25.67-.25.92 0l1.73 1.73c.13.13.19.3.19.46 0 .17-.06.34-.19.46a.64.64 0 0 1-.92 0L4.92 5.84a.66.66 0 0 1-.19-.46c0-.16.07-.33.19-.46m14.15 0c.12.13.19.3.19.46 0 .17-.07.34-.19.46l-1.73 1.73a.64.64 0 0 1-.92 0 .62.62 0 0 1-.19-.46c0-.16.06-.33.19-.46l1.73-1.73c.25-.25.66-.25.92 0M17 12c0 2.76-2.24 5-5 5-2.77 0-5-2.24-5-5 0-2.77 2.23-5.01 5-5.01 2.76 0 5 2.24 5 5.01m-15-.01c0-.35.29-.65.65-.65h2.44c.36 0 .65.3.65.65 0 .36-.29.65-.65.65H2.65c-.36 0-.65-.29-.65-.65m19.99.01c0 .35-.29.65-.65.65l-2.44-.01c-.36 0-.65-.29-.65-.65 0-.35.29-.65.65-.65l2.44.01c.36 0 .65.29.65.65m-2.92 7.07c-.26.25-.67.25-.92 0l-1.73-1.73a.651.651 0 0 1-.19-.46c0-.17.06-.34.19-.46a.64.64 0 0 1 .92 0l1.73 1.73c.12.12.19.29.19.46 0 .16-.07.33-.19.46m-14.15 0a.697.697 0 0 1-.19-.46c0-.17.07-.34.19-.46l1.73-1.73a.64.64 0 0 1 .92 0c.13.12.19.29.19.46 0 .16-.06.33-.19.46l-1.73 1.73c-.25.25-.66.25-.92 0M12 21.99c-.36 0-.65-.29-.65-.65V18.9c0-.36.29-.65.65-.65.35 0 .65.29.65.65l-.01 2.44c0 .36-.29.65-.64.65"/></g></svg>