<svg xmlns="http://www.w3.org/2000/svg" fill="none" viewBox="0 0 24 24" focusable="false"><path fill="#717681" fill-rule="evenodd" d="M3 12a9 9 0 1 1 18 0 9 9 0 0 1-18 0Zm11.645.472a.65.65 0 1 0 .92.919l.682-.683a3.5 3.5 0 1 0-4.95-4.95l-.682.683a.65.65 0 1 0 .919.92l.683-.683a2.2 2.2 0 0 1 3.111 3.11l-.683.684Zm-1.202 2.121a.65.65 0 0 0-.92 0l-.74.74a2.2 2.2 0 1 1-3.111-3.11l.74-.741a.65.65 0 1 0-.919-.92l-.74.741a3.5 3.5 0 0 0 4.95 4.95l.74-.74a.65.65 0 0 0 0-.92Zm.163-3.274a.65.65 0 1 0-.92-.92l-2.284 2.285a.65.65 0 1 0 .92.92l2.284-2.285Z" clip-rule="evenodd"/></svg>