<svg xmlns="http://www.w3.org/2000/svg" fill="none" viewBox="0 0 24 24" focusable="false"><path fill="#717681" d="M12.012 4.503a5.15 5.15 0 0 1 7.284 7.283l-2.34 2.34a.65.65 0 0 1-.92-.918l2.34-2.34a3.85 3.85 0 0 0-5.444-5.446l-2.34 2.34a.65.65 0 0 1-.92-.918zM11.862 19.22a5.15 5.15 0 0 1-7.283-7.284l2.264-2.264a.65.65 0 1 1 .92.92l-2.265 2.264a3.85 3.85 0 1 0 5.445 5.444l2.264-2.264a.65.65 0 1 1 .92.92z"/><path fill="#717681" d="M14.48 10.238a.65.65 0 1 0-.919-.92l-4.243 4.243a.65.65 0 1 0 .92.92z"/></svg>