<svg xmlns="http://www.w3.org/2000/svg" fill="none" viewBox="0 0 24 24" focusable="false"><path fill="#717681" fill-rule="evenodd" d="M12.01 4.5a5.148 5.148 0 0 1 7.28 7.28l-2.34 2.34a.64.64 0 0 1-.92 0 .658.658 0 0 1 0-.92l2.34-2.34a3.85 3.85 0 0 0 0-5.44 3.833 3.833 0 0 0-5.44 0l-2.34 2.34c-.26.25-.67.25-.92 0a.64.64 0 0 1 0-.92zm2.47 4.81c.25.26.25.67 0 .92l-4.25 4.25c-.25.25-.66.25-.92 0a.658.658 0 0 1 0-.92l4.25-4.25c.25-.25.66-.25.92 0m-2.62 9.9a5.142 5.142 0 0 1-7.29 0 5.148 5.148 0 0 1 0-7.28l2.27-2.26a.64.64 0 0 1 .92 0c.25.25.25.66 0 .92l-2.27 2.26c-1.5 1.5-1.5 3.94 0 5.45 1.51 1.5 3.94 1.5 5.45 0l2.26-2.27c.26-.25.67-.25.92 0 .26.25.26.67 0 .92z"/></svg>