<svg xmlns="http://www.w3.org/2000/svg" fill="none" viewBox="0 0 24 24" focusable="false"><defs><clipPath id="Link_Solid_svg__a"><path fill="#fff" fill-opacity="0" d="M0 0h24v24H0z"/></clipPath></defs><g clip-path="url(#Link_Solid_svg__a)"><path fill="#717681" fill-rule="evenodd" d="M3 12c0-4.98 4.02-9 9-9 4.97 0 9 4.02 9 9a9 9 0 0 1-9 9c-4.98 0-9-4.03-9-9m11.64.47c-.25.25-.25.66 0 .92.25.25.67.25.92 0l.68-.69a3.495 3.495 0 0 0 0-4.95 3.513 3.513 0 0 0-4.95 0l-.68.69c-.25.25-.25.66 0 .92.25.25.67.25.92 0l.68-.69c.86-.86 2.25-.86 3.11 0s.86 2.25 0 3.11zm-1.2 2.12a.64.64 0 0 0-.92 0l-.74.74c-.86.86-2.25.86-3.11 0s-.86-2.25 0-3.11l.74-.74c.25-.26.25-.67 0-.92a.64.64 0 0 0-.92 0l-.74.74a3.495 3.495 0 0 0 0 4.95 3.513 3.513 0 0 0 4.95 0l.74-.74c.25-.26.25-.67 0-.92m.16-3.28c.25-.25.25-.66 0-.91a.64.64 0 0 0-.92 0l-2.28 2.28a.64.64 0 0 0 0 .92c.25.25.66.25.92 0z"/></g></svg>