<svg xmlns="http://www.w3.org/2000/svg" fill="none" viewBox="0 0 24 24" focusable="false"><path fill="#717681" d="M12.657 3.65a.65.65 0 1 0-1.3 0v3.7a.65.65 0 1 0 1.3 0zM8.252 9.172a.65.65 0 1 0 .92-.92L6.555 5.636a.65.65 0 0 0-.919.92zM8 12a.65.65 0 0 1-.65.65h-3.7a.65.65 0 1 1 0-1.3h3.7A.65.65 0 0 1 8 12M12.007 16a.65.65 0 0 1 .65.65v3.7a.65.65 0 1 1-1.3 0v-3.7a.65.65 0 0 1 .65-.65M9.179 14.829a.65.65 0 0 1 0 .919l-2.617 2.616a.65.65 0 0 1-.919-.92L8.26 14.83a.65.65 0 0 1 .92 0M21 12a.65.65 0 0 1-.65.65h-3.7a.65.65 0 1 1 0-1.3h3.7A.65.65 0 0 1 21 12M17.445 18.364a.65.65 0 0 0 .919-.92l-2.616-2.615a.65.65 0 1 0-.92.919z"/></svg>