<svg xmlns="http://www.w3.org/2000/svg" width="24" height="24" fill="none"><path fill="#717681" d="M12.657 3.65a.65.65 0 1 0-1.3 0v3.7a.65.65 0 1 0 1.3 0v-3.7ZM8.252 9.172a.65.65 0 1 0 .92-.92L6.555 5.636a.65.65 0 0 0-.919.92l2.616 2.616ZM8 12a.65.65 0 0 1-.65.65h-3.7a.65.65 0 1 1 0-1.3h3.7A.65.65 0 0 1 8 12ZM12.007 16a.65.65 0 0 1 .65.65v3.7a.65.65 0 1 1-1.3 0v-3.7a.65.65 0 0 1 .65-.65ZM9.179 14.829a.65.65 0 0 1 0 .919l-2.617 2.616a.65.65 0 0 1-.919-.92L8.26 14.83a.65.65 0 0 1 .92 0ZM21 12a.65.65 0 0 1-.65.65h-3.7a.65.65 0 1 1 0-1.3h3.7A.65.65 0 0 1 21 12ZM17.445 18.364a.65.65 0 0 0 .919-.92l-2.616-2.615a.65.65 0 1 0-.92.919l2.617 2.616Z"/></svg>