<svg xmlns="http://www.w3.org/2000/svg" fill="none" viewBox="0 0 24 24" focusable="false"><path fill="#717681" d="M8.252 10.089a.3.3 0 0 0-.538.183v.854A4.285 4.285 0 0 0 12 15.41c.146 0 .221-.166.132-.282z"/><path fill="#717681" d="M13.438 16.825a.31.31 0 0 0-.307-.112 5.7 5.7 0 0 1-6.832-5.586.65.65 0 0 0-1.3 0 7 7 0 0 0 6.352 6.967v2.6h-2.7a.65.65 0 1 0 0 1.3h6.7a.65.65 0 1 0 0-1.3h-2.7v-2.57l-.001-.03q.573-.053 1.116-.195a.286.286 0 0 0 .149-.455zM18.305 21.025l.553.719a.65.65 0 0 0 1.03-.792l-3.417-4.44A6.98 6.98 0 0 0 19 11.127a.65.65 0 0 0-1.3 0c0 1.746-.786 3.31-2.024 4.355l-.864-1.123a4.27 4.27 0 0 0 1.473-3.232V6.283A4.287 4.287 0 0 0 7.83 5.29L5.49 2.252a.65.65 0 0 0-1.078.72l13.844 17.98a1 1 0 0 1 .049.073"/></svg>