<svg xmlns="http://www.w3.org/2000/svg" width="24" height="24" fill="none"><path fill="#717681" fill-rule="evenodd" d="M7.714 6.285a4.285 4.285 0 0 1 8.572 0v4.845a4.285 4.285 0 0 1-8.572 0V6.285Zm7.272 0v4.845a2.985 2.985 0 0 1-5.972 0V6.285a2.986 2.986 0 0 1 5.972 0Z" clip-rule="evenodd"/><path fill="#717681" d="M6.299 11.13a.65.65 0 0 0-1.3 0 7.001 7.001 0 0 0 6.352 6.97V20.7h-2.7a.65.65 0 1 0 0 1.3h6.7a.65.65 0 1 0 0-1.3h-2.7v-2.57a.548.548 0 0 0-.002-.03 7.001 7.001 0 0 0 6.353-6.97.65.65 0 0 0-1.3 0A5.7 5.7 0 0 1 12 16.83a5.7 5.7 0 0 1-5.701-5.7Z"/></svg>