<svg xmlns="http://www.w3.org/2000/svg" fill="none" viewBox="0 0 24 24" focusable="false"><path fill="#74767B" fill-rule="evenodd" d="M12 2a4.28 4.28 0 0 0-4.29 4.28v4.84A4.29 4.29 0 0 0 12 15.41c2.36 0 4.28-1.92 4.28-4.29V6.28C16.28 3.91 14.36 2 12 2m2.98 9.12V6.28A2.99 2.99 0 0 0 12 3.29c-1.65 0-2.99 1.34-2.99 2.99v4.84c0 1.65 1.34 2.99 2.99 2.99a2.99 2.99 0 0 0 2.98-2.99m-9.34-.65c.36 0 .65.3.65.65a5.706 5.706 0 0 0 11.41 0c0-.35.29-.65.65-.65s.65.3.65.65c0 3.65-2.79 6.65-6.36 6.97v.02l.01.01v2.58h2.7c.35 0 .65.29.65.65 0 .35-.3.65-.65.65H8.64c-.35 0-.64-.3-.64-.65 0-.36.29-.65.64-.65h2.71v-2.61a6.994 6.994 0 0 1-6.36-6.97c0-.35.29-.65.65-.65"/></svg>