<svg xmlns="http://www.w3.org/2000/svg" fill="none" viewBox="0 0 24 24" focusable="false"><path fill="#74767B" fill-rule="evenodd" d="m18.85 21.74-.55-.72a.2.2 0 0 0-.05-.07L4.41 2.97a.65.65 0 0 1 1.08-.72l2.34 3.03A4.274 4.274 0 0 1 12 2c2.36 0 4.28 1.91 4.28 4.28v4.84c0 1.29-.57 2.45-1.47 3.23l.86 1.13a5.7 5.7 0 0 0 2.03-4.36c0-.36.29-.65.65-.65s.65.29.65.65c0 2.17-.99 4.1-2.53 5.39l3.41 4.44c.22.28.17.69-.11.91-.29.22-.7.16-.92-.12M7.71 10.27v.85A4.28 4.28 0 0 0 12 15.4c.14 0 .22-.16.13-.28l-3.88-5.04c-.18-.22-.54-.1-.54.19m5.42 6.44c-.37.07-.75.11-1.13.11-3.15 0-5.71-2.55-5.71-5.7 0-.36-.29-.65-.65-.65s-.65.29-.65.65c0 3.65 2.79 6.64 6.36 6.97v2.6H8.64c-.35 0-.64.29-.64.65s.29.65.64.65h6.71c.35 0 .65-.29.65-.65s-.3-.65-.65-.65h-2.7v-2.57c0-.01-.01-.02-.01-.03.39-.04.76-.1 1.12-.2.2-.05.28-.29.15-.45l-.48-.62a.29.29 0 0 0-.3-.11"/></svg>