<svg xmlns="http://www.w3.org/2000/svg" fill="none" viewBox="0 0 24 24" focusable="false"><defs><clipPath id="More_Vertical_Solid_svg__a"><path fill="#fff" fill-opacity="0" d="M0 0h24v24H0z"/></clipPath></defs><g clip-path="url(#More_Vertical_Solid_svg__a)"><path fill="#74767B" fill-rule="evenodd" d="M12 21c-4.98 0-9-4.03-9-9 0-4.98 4.02-9 9-9 4.97 0 9 4.02 9 9a9 9 0 0 1-9 9m-1.3-3.3a1.295 1.295 0 1 1 2.59 0c0 .71-.58 1.3-1.29 1.3-.72 0-1.3-.59-1.3-1.3m-.01-11c0-.72.59-1.31 1.31-1.31.71 0 1.29.59 1.29 1.31 0 .71-.58 1.3-1.29 1.3-.72 0-1.31-.59-1.31-1.3m.01 5.3a1.295 1.295 0 1 1 2.59 0c0 .71-.58 1.3-1.29 1.3-.72 0-1.3-.59-1.3-1.3"/></g></svg>