<svg xmlns="http://www.w3.org/2000/svg" fill="none" viewBox="0 0 24 24" focusable="false"><path fill="#74767B" fill-rule="evenodd" d="M16.85 7.61a.65.65 0 0 1-.8-.46l-.36-1.34-1.9 3.3a3.6 3.6 0 0 1 1.39 2.24h3.8l-.98-.98a.66.66 0 0 1 0-.92c.25-.25.66-.25.92 0l2.09 2.09c.25.25.25.66 0 .92l-2.09 2.08a.64.64 0 0 1-.92 0 .66.66 0 0 1 0-.92l.98-.97h-3.8c-.17.91-.67 1.7-1.39 2.23l1.9 3.3.36-1.34a.66.66 0 0 1 .8-.46c.34.1.55.45.46.8l-.77 2.85c-.09.34-.45.55-.79.46l-2.86-.77a.64.64 0 0 1-.45-.79c.09-.35.44-.56.79-.46l1.34.35-1.95-3.36c-.31.09-.64.13-.98.13-1.77 0-3.23-1.27-3.54-2.95H6.09a2.03 2.03 0 0 1-1.93 1.39c-1.12 0-2.04-.91-2.04-2.04a2.04 2.04 0 0 1 3.97-.65H8.1a3.61 3.61 0 0 1 3.54-2.94c.34 0 .67.04.98.13l1.95-3.36-1.34.35c-.35.1-.7-.11-.79-.45-.1-.35.11-.71.45-.8l2.86-.77c.34-.09.7.12.79.46l.77 2.85a.66.66 0 0 1-.46.8M11.64 9.7a2.3 2.3 0 0 0-2.3 2.3c0 1.27 1.03 2.29 2.3 2.29s2.3-1.02 2.3-2.29a2.3 2.3 0 0 0-2.3-2.3m-7.48 1.56c.41 0 .74.33.74.73 0 .41-.33.74-.74.74s-.74-.33-.74-.74c0-.4.33-.73.74-.73"/></svg>