<svg xmlns="http://www.w3.org/2000/svg" width="24" height="24" fill="none"><path fill="#717681" fill-rule="evenodd" d="M4.367 2.206a.65.65 0 0 1 .912.12L6.99 4.55A9 9 0 0 1 17.908 18.74l1.672 2.173a.65.65 0 0 1-1.03.792L4.247 3.118a.65.65 0 0 1 .12-.912ZM17.11 17.703A7.701 7.701 0 0 0 7.789 5.588l1.486 1.931a5.294 5.294 0 0 1 4.608-.122c.457.206.699.629.715 1.059.016.417-.177.834-.54 1.102l-2.05 1.514.905 1.175 2.026-1.496c.363-.268.818-.33 1.212-.191.407.142.74.497.802.994a5.296 5.296 0 0 1-1.33 4.217l1.487 1.932Zm-2.296-2.985a3.996 3.996 0 0 0 .86-2.894l-1.968 1.454 1.108 1.44Zm-3.599-4.677L13.25 8.54c-.999-.418-2.147-.42-3.164.033l1.13 1.47Z" clip-rule="evenodd"/><path fill="#717681" d="M4.465 17.564c-2.58-3.493-2.258-8.235.53-11.347l.81 1.052a7.716 7.716 0 0 0-1.66 6.417l2.243-1.656c.006-.005.032-.03.036-.093a5.3 5.3 0 0 1 .903-2.689l.85 1.105a4.004 4.004 0 0 0-.455 1.654c-.021.393-.2.802-.561 1.068l-2.63 1.943a7.71 7.71 0 0 0 .98 1.774 7.71 7.71 0 0 0 1.406 1.458l2.63-1.942a1.415 1.415 0 0 1 1.187-.222 4 4 0 0 0 1.869.019l.85 1.105a5.296 5.296 0 0 1-3.035.137c-.06-.015-.092.002-.098.007L8.076 19.01a7.712 7.712 0 0 0 6.9.179l.809 1.051c-3.85 1.964-8.668.915-11.32-2.677Z"/></svg>