<svg xmlns="http://www.w3.org/2000/svg" width="24" height="24" fill="none"><path fill="#717681" fill-rule="evenodd" d="M4.367 2.206a.65.65 0 0 1 .912.12L6.99 4.55A9 9 0 0 1 17.908 18.74l1.672 2.173a.65.65 0 0 1-1.03.792L4.247 3.118a.65.65 0 0 1 .12-.912ZM17.11 17.703A7.701 7.701 0 0 0 7.789 5.588l1.89 2.456a4.644 4.644 0 0 1 3.937-.054c.431.194.436.764.056 1.045l-2.06 1.521 1.697 2.207 2.016-1.489c.38-.28.924-.108.983.36a4.646 4.646 0 0 1-1.088 3.612l1.89 2.457Z" clip-rule="evenodd"/><path fill="#717681" d="M4.465 17.564c-2.58-3.493-2.258-8.235.53-11.347l.81 1.052a7.715 7.715 0 0 0-1.495 7.103l2.464-1.82a.765.765 0 0 0 .299-.58c.04-.764.27-1.514.675-2.177l5.284 6.868a4.648 4.648 0 0 1-2.456.054.766.766 0 0 0-.642.114l-2.465 1.82a7.713 7.713 0 0 0 7.507.539l.809 1.051c-3.85 1.964-8.668.915-11.32-2.677Z"/></svg>