<svg xmlns="http://www.w3.org/2000/svg" fill="none" viewBox="0 0 24 24" focusable="false"><defs><clipPath id="No_Admin_Outline_svg__a"><path fill="#fff" fill-opacity="0" d="M0 0h24v24H0z"/></clipPath></defs><g clip-path="url(#No_Admin_Outline_svg__a)"><path fill="#717681" fill-rule="evenodd" d="M5.27 2.32a.65.65 0 0 0-.91-.12c-.28.22-.34.63-.12.91l14.3 18.59c.22.28.63.34.92.12a.65.65 0 0 0 .11-.91l-1.67-2.18c3.25-3.08 3.77-8.17 1.04-11.86A8.997 8.997 0 0 0 6.99 4.55zm12.62 5.32a7.69 7.69 0 0 1-.79 10.06l-1.48-1.93a5.32 5.32 0 0 0 1.33-4.22c-.06-.5-.4-.85-.8-1-.4-.13-.85-.07-1.22.2l-2.02 1.49-.91-1.17 2.05-1.52c.37-.26.56-.68.54-1.1-.01-.43-.25-.85-.71-1.06a5.328 5.328 0 0 0-4.61.12L7.78 5.58c3.36-1.99 7.75-1.15 10.11 2.06M4.99 6.21c-2.79 3.11-3.11 7.86-.53 11.35 2.65 3.59 7.47 4.64 11.32 2.68l-.81-1.06a7.718 7.718 0 0 1-6.9-.17l2.24-1.66c.01-.01.04-.02.1-.01.99.25 2.05.21 3.04-.13l-.85-1.11c-.62.14-1.26.13-1.87-.02-.38-.09-.83-.04-1.19.22l-2.63 1.95c-.52-.42-.99-.9-1.4-1.46-.42-.56-.74-1.16-.98-1.78l2.63-1.94c.36-.27.54-.67.56-1.07.03-.57.18-1.14.45-1.65l-.85-1.11c-.54.81-.85 1.74-.9 2.69 0 .06-.03.09-.04.09l-2.24 1.66c-.44-2.25.15-4.62 1.66-6.42zm8.25 2.32-2.03 1.51-1.13-1.47c1.02-.46 2.17-.45 3.16-.04m2.43 3.29c.1 1.03-.2 2.07-.86 2.89l-1.11-1.44z"/></g></svg>