<svg xmlns="http://www.w3.org/2000/svg" fill="none" viewBox="0 0 24 24" focusable="false"><defs><clipPath id="No_Admin_Solid_svg__a"><path fill="#fff" fill-opacity="0" d="M0 0h24v24H0z"/></clipPath></defs><g clip-path="url(#No_Admin_Solid_svg__a)"><path fill="#74767B" fill-rule="evenodd" d="M5.27 2.32a.65.65 0 0 0-.91-.12c-.28.22-.34.63-.12.91l14.3 18.59c.22.28.63.34.92.12a.65.65 0 0 0 .11-.91l-1.67-2.18c3.25-3.08 3.77-8.17 1.04-11.86A8.997 8.997 0 0 0 6.99 4.55zm12.62 5.32a7.69 7.69 0 0 1-.79 10.06l-1.89-2.46a4.65 4.65 0 0 0 1.09-3.61c-.06-.47-.6-.64-.98-.36l-2.02 1.49-1.69-2.21 2.06-1.52c.38-.28.37-.85-.06-1.05a4.68 4.68 0 0 0-3.94.06L7.78 5.58c3.36-1.99 7.75-1.15 10.11 2.06M4.99 6.21c-2.79 3.11-3.11 7.86-.53 11.35 2.65 3.59 7.47 4.64 11.32 2.68l-.81-1.06a7.73 7.73 0 0 1-7.51-.53l2.47-1.82c.18-.14.42-.17.64-.12.8.2 1.65.19 2.46-.05L7.74 9.79c-.4.66-.63 1.41-.67 2.18-.01.23-.12.44-.3.58l-2.46 1.82A7.7 7.7 0 0 1 5.8 7.26z"/></g></svg>