<svg xmlns="http://www.w3.org/2000/svg" fill="none" viewBox="0 0 24 24" focusable="false"><path fill="#717681" fill-rule="evenodd" d="M12.6 2.58a.65.65 0 1 0-1.3 0v2.044A4.792 4.792 0 0 0 7.29 8.22l-1.765 7.06H4.8a.65.65 0 1 0 0 1.3h14.3a.65.65 0 1 0 0-1.3h-.725L16.61 8.22a4.792 4.792 0 0 0-4.01-3.596z" clip-rule="evenodd"/><path fill="#717681" d="M9.984 17.95a.65.65 0 0 0-.634.666c.03 1.297 1.173 2.234 2.45 2.234 1.276 0 2.419-.937 2.45-2.235a.65.65 0 0 0-.635-.665 74.15 74.15 0 0 0-3.63 0"/></svg>