<svg xmlns="http://www.w3.org/2000/svg" fill="none" viewBox="0 0 24 24" focusable="false"><path fill="#74767B" fill-rule="evenodd" d="M12.6 2.58c0-.36-.3-.65-.65-.65-.36 0-.65.29-.65.65v2.04c-.99.13-1.9.57-2.61 1.22l-2.77-3.6a.643.643 0 0 0-.91-.12c-.29.22-.34.63-.12.91l14.4 18.72c.22.29.63.34.92.12a.65.65 0 0 0 .11-.91l-3.37-4.39h2.15c.35 0 .65-.29.65-.65 0-.35-.3-.65-.65-.65h-.73l-1.76-7.05a4.8 4.8 0 0 0-4.01-3.6zM5.52 15.27l1.75-7.01 6.4 8.31H4.8c-.36 0-.65-.29-.65-.65 0-.35.29-.65.65-.65zm4.46 2.68c-.36 0-.64.3-.63.66.03 1.3 1.17 2.24 2.45 2.24 1.27 0 2.41-.94 2.45-2.24 0-.36-.28-.66-.64-.66-1.5-.04-2.68-.03-3.63 0"/></svg>