<svg xmlns="http://www.w3.org/2000/svg" fill="none" viewBox="0 0 24 24" focusable="false"><path fill="#717681" fill-rule="evenodd" d="M12.6 2.58a.65.65 0 1 0-1.3 0v2.044A4.792 4.792 0 0 0 7.29 8.22l-1.765 7.06H4.8a.65.65 0 1 0 0 1.3h14.3a.65.65 0 1 0 0-1.3h-.725L16.61 8.22a4.792 4.792 0 0 0-4.01-3.596zm4.44 12.7-1.69-6.74a3.497 3.497 0 0 0-3.4-2.66c-1.61 0-3.01 1.1-3.4 2.66l-1.69 6.74z" clip-rule="evenodd"/><path fill="#717681" d="M10.65 18.585a.65.65 0 0 0-1.3.03c.03 1.298 1.173 2.235 2.45 2.235 1.276 0 2.419-.937 2.45-2.235a.65.65 0 0 0-1.3-.03c-.011.481-.464.965-1.15.965-.686 0-1.139-.484-1.15-.965"/></svg>