<svg xmlns="http://www.w3.org/2000/svg" fill="none" viewBox="0 0 24 24" focusable="false"><path fill="#74767B" fill-rule="evenodd" d="M12.5998 2.58005C12.5998 2.22107 12.3088 1.93005 11.9498 1.93005C11.5908 1.93005 11.2998 2.22107 11.2998 2.58005L11.2998 4.62376C9.37148 4.8849 7.76707 6.29299 7.2898 8.22005L5.52484 15.2799L4.7999 15.2799C4.44092 15.2799 4.1499 15.5709 4.1499 15.9299C4.1499 16.2889 4.44092 16.5799 4.7999 16.5799L19.0999 16.5799C19.4589 16.5799 19.7499 16.2889 19.7499 15.9299C19.7499 15.5709 19.4589 15.2799 19.0999 15.2799L18.3748 15.2799L16.6098 8.22005C16.1325 6.29299 14.5281 4.8849 12.5998 4.62376L12.5998 2.58005ZM17.0398 15.2799L15.3498 8.54005C14.9598 6.97005 13.5598 5.88005 11.9498 5.88005C10.3398 5.88005 8.93981 6.98005 8.5498 8.54005L6.85984 15.2799L17.0398 15.2799ZM9.98438 17.9503C10.3433 17.9417 10.6411 18.2257 10.6497 18.5846C10.6611 19.0663 11.1139 19.5501 11.7999 19.5501C12.4858 19.5501 12.9386 19.0663 12.95 18.5846C12.9586 18.2257 13.2564 17.9417 13.6153 17.9503C13.9742 17.9588 14.2582 18.2567 14.2497 18.6155C14.2188 19.913 13.0763 20.8501 11.7999 20.8501C10.5234 20.8501 9.38092 19.913 9.35004 18.6155C9.34149 18.2567 9.6255 17.9588 9.98438 17.9503Z"/></svg>