<svg xmlns="http://www.w3.org/2000/svg" fill="none" viewBox="0 0 24 24" focusable="false"><path fill="#74767B" fill-rule="evenodd" d="M12.6 2.58c0-.36-.3-.65-.65-.65-.36 0-.65.29-.65.65v2.04c-.99.13-1.9.57-2.61 1.22l-2.77-3.6a.643.643 0 0 0-.91-.12c-.29.22-.34.63-.12.91l14.4 18.72c.22.29.63.34.92.12a.65.65 0 0 0 .11-.91l-3.37-4.39h2.15c.35 0 .65-.29.65-.65 0-.35-.3-.65-.65-.65h-.73l-1.76-7.05a4.8 4.8 0 0 0-4.01-3.6zm3.35 12.69h1.09l-1.69-6.73a3.5 3.5 0 0 0-3.4-2.66c-.95 0-1.82.37-2.46 1zm-10.43 0 1.75-7.01 1.02 1.31-1.43 5.7h5.81l1 1.3H4.8c-.36 0-.65-.29-.65-.65 0-.35.29-.65.65-.65zm5.13 3.31a.65.65 0 0 0-.67-.63c-.36 0-.64.3-.63.66.03 1.3 1.17 2.24 2.45 2.24 1.27 0 2.41-.94 2.45-2.24 0-.36-.28-.66-.64-.66a.634.634 0 0 0-.66.63c-.02.48-.47.96-1.15.96-.69 0-1.14-.48-1.15-.96"/></svg>