<svg xmlns="http://www.w3.org/2000/svg" fill="none" viewBox="0 0 24 24" focusable="false"><path fill="#74767B" fill-rule="evenodd" d="M12 3c-4.98 0-9 4.02-9 9 0 4.97 4.02 9 9 9a9 9 0 0 0 9-9c0-4.98-4.03-9-9-9m-1.97 12.68c.28.28.74.27 1.01-.02 1.56-1.69 3.11-3.44 4.7-5.09l-.02 2.15c-.01.36.27.66.64.67.19.01.35-.07.48-.2.11-.11.18-.25.18-.43l.04-3.74a.696.696 0 0 0-.75-.72l-3.72.07c-.36.03-.63.34-.61.69.02.36.33.64.69.61h2.13c-1.47 1.52-2.86 3.1-4.29 4.65l-2.4-2.4a.66.66 0 0 0-.92 0c-.25.25-.25.67 0 .92z"/></svg>