<svg xmlns="http://www.w3.org/2000/svg" fill="none" viewBox="0 0 24 24" focusable="false"><path fill="#717681" fill-rule="evenodd" d="M12 3a9 9 0 1 0 0 18 9 9 0 0 0 0-18m-1.96 12.689c.28.28.74.27 1.01-.02 1.556-1.69 3.101-3.447 4.693-5.091l-.016 2.152a.66.66 0 0 0 .633.668c.191.005.36-.069.485-.198a.63.63 0 0 0 .184-.435l.034-3.738a.7.7 0 0 0-.747-.723l-3.723.074a.66.66 0 0 0-.611.69.65.65 0 0 0 .689.61h2.133c-1.465 1.514-2.859 3.1-4.284 4.65l-2.4-2.4a.66.66 0 0 0-.92 0c-.25.25-.25.67 0 .92z" clip-rule="evenodd"/></svg>