<svg xmlns="http://www.w3.org/2000/svg" fill="none" viewBox="0 0 24 24" focusable="false"><path fill="#717681" d="M11.05 15.668c-.27.29-.73.3-1.01.02l-2.84-2.84a.658.658 0 0 1 0-.92c.25-.25.67-.25.92 0l2.4 2.4 3.397-3.695a30.5 30.5 0 0 1 .887-.955h-2.133a.65.65 0 0 1-.69-.61.658.658 0 0 1 .612-.69l3.723-.075a.698.698 0 0 1 .747.724l-.034 3.738a.627.627 0 0 1-.184.435.645.645 0 0 1-.485.199.658.658 0 0 1-.633-.67l.016-2.151-.228.234a.666.666 0 0 1-.045.056l-4.42 4.8Z"/><path fill="#717681" fill-rule="evenodd" d="M3 12a9 9 0 1 1 18 0 9 9 0 0 1-18 0Zm9-7.7a7.7 7.7 0 1 0 0 15.4 7.7 7.7 0 0 0 0-15.4Z" clip-rule="evenodd"/></svg>