<svg xmlns="http://www.w3.org/2000/svg" fill="none" viewBox="0 0 24 24" focusable="false"><path fill="#74767B" fill-rule="evenodd" d="M4.64 8.8c-.36 0-.65-.29-.65-.65v-2.8C3.99 4.6 4.6 4 5.34 4h2.8c.36 0 .65.29.65.65s-.29.65-.65.65H6.21L8.9 7.99c.25.25.25.66 0 .91a.64.64 0 0 1-.92 0L5.29 6.22v1.93c0 .36-.29.65-.65.65m1.57 9.89h1.93c.36 0 .65.29.65.65s-.29.65-.65.65h-2.8c-.74 0-1.35-.61-1.35-1.35v-2.8c0-.36.29-.65.65-.65s.65.29.65.65v1.93l2.69-2.69c.25-.25.66-.25.92 0 .25.26.25.67 0 .92zm12.49-.91v-1.94c0-.35.29-.65.65-.65.35 0 .65.3.65.65v2.81c0 .74-.61 1.35-1.35 1.35h-2.8c-.36 0-.65-.3-.65-.65 0-.36.29-.65.65-.65h1.93l-2.69-2.69a.66.66 0 0 1 0-.92c.25-.25.67-.25.92 0zM15.19 4.65c0-.36.29-.65.65-.65h2.8c.75 0 1.35.6 1.35 1.35v2.8c0 .36-.29.65-.65.65s-.65-.29-.65-.65V6.22L16 8.9c-.25.26-.66.26-.91 0a.63.63 0 0 1 0-.91l2.68-2.69h-1.93c-.36 0-.65-.29-.65-.65"/></svg>