<svg xmlns="http://www.w3.org/2000/svg" fill="none" viewBox="0 0 24 24" focusable="false"><defs><clipPath id="Open_in_New_Outline_svg__a"><path fill="#fff" fill-opacity="0" d="M0 0h24v24H0z"/></clipPath></defs><g clip-path="url(#Open_in_New_Outline_svg__a)"><path fill="#74767B" fill-rule="evenodd" d="M20.02 11.51c0 .37-.25.71-.68.71-.42 0-.71-.35-.7-.71l-.03-5.21L10.9 14c-.25.26-.66.26-.91 0a.64.64 0 0 1 0-.92l7.7-7.7h-5.2c-.33 0-.6-.35-.6-.72 0-.36.28-.67.62-.67l6.75.01c.41-.03.75.31.73.73zM7 4.01 8.37 4c.36 0 .65.29.65.65s-.29.65-.65.65L7 5.31c-.94 0-1.71.76-1.71 1.7V17c0 .94.77 1.7 1.71 1.7h10c.93 0 1.7-.76 1.7-1.7v-1.35c0-.36.29-.65.65-.65.35 0 .65.29.65.65V17c0 1.65-1.35 3-3 3H7c-1.66 0-3-1.35-3-3V7.01c0-1.66 1.34-3 3-3"/></g></svg>