<svg xmlns="http://www.w3.org/2000/svg" fill="none" viewBox="0 0 24 24" focusable="false"><path fill="#717681" fill-rule="evenodd" d="M4 7c0-1.66 1.34-3 3-3h10c1.65 0 3 1.34 3 3v10c0 1.65-1.35 3-3 3H7c-1.66 0-3-1.35-3-3zm6.8 10.34c0 .36-.29.65-.65.65h-3.5c-.36 0-.65-.29-.65-.65v-3.5c0-.36.29-.65.65-.65.36 0 .65.29.65.65v1.93l2.48-2.48c.25-.25.67-.25.92 0s.25.67 0 .92l-2.48 2.48h1.93c.36 0 .65.29.65.65m-4.15-6.55c-.36 0-.65-.29-.65-.65v-3.5c0-.36.29-.65.65-.65h3.5c.36 0 .65.29.65.65 0 .36-.29.65-.65.65H8.22l2.48 2.49c.26.25.26.66 0 .92-.25.25-.66.25-.92 0L7.3 8.21v1.93c0 .36-.29.65-.65.65m6.55-4.15c0-.36.29-.65.65-.65h3.5c.36 0 .65.29.65.65v3.5c0 .36-.29.65-.65.65-.36 0-.65-.29-.65-.65V8.21l-2.48 2.49c-.26.25-.67.25-.92 0a.64.64 0 0 1 0-.92l2.48-2.49h-1.93c-.36 0-.65-.29-.65-.65m4.15 6.55c.36 0 .65.29.65.65v3.5c0 .36-.29.65-.65.65h-3.5c-.36 0-.65-.29-.65-.65 0-.36.29-.65.65-.65h1.93L13.3 14.2a.628.628 0 0 1 0-.91.64.64 0 0 1 .92 0l2.48 2.48v-1.93c0-.36.29-.65.65-.65"/></svg>