<svg xmlns="http://www.w3.org/2000/svg" fill="none" viewBox="0 0 24 24" focusable="false"><path fill="#74767B" fill-rule="evenodd" d="M8 9.5c0-1.58.55-3.02 1.48-4.14C9.86 4.9 9.56 4 8.96 4H7C5.34 4 4 5.34 4 7v10c0 1.65 1.34 3 3 3h10c1.65 0 3-1.35 3-3v-1.97c0-.6-.91-.9-1.37-.52A6.44 6.44 0 0 1 14.5 16C10.91 16 8 13.08 8 9.5m6.5 5.5c3.03 0 5.5-2.47 5.5-5.5C20 6.46 17.53 4 14.5 4 11.46 4 9 6.46 9 9.5c0 3.03 2.46 5.5 5.5 5.5m2.23-3.57c-.34-.02-.64-.26-.63-.6V8.45l-3.85 3.66c-.24.25-.63.25-.87 0a.616.616 0 0 1 0-.87l3.84-3.66h-2.34a.6.6 0 0 1-.63-.58c-.01-.34.24-.68.58-.7h3.85c.4-.02.72.3.7.69v3.85c-.02.36-.3.61-.65.59"/></svg>