<svg xmlns="http://www.w3.org/2000/svg" width="24" height="24" fill="none"><path fill="#717681" fill-rule="evenodd" d="M4 7a3 3 0 0 1 3-3h10a3 3 0 0 1 3 3v10a3 3 0 0 1-3 3H7a3 3 0 0 1-3-3V7Zm6.803 10.346a.65.65 0 0 1-.65.65h-3.5a.65.65 0 0 1-.65-.65v-3.5a.65.65 0 1 1 1.3 0v1.93l2.482-2.481a.65.65 0 1 1 .92.919l-2.483 2.482h1.931a.65.65 0 0 1 .65.65ZM6.657 10.8a.65.65 0 0 1-.65-.65v-3.5a.65.65 0 0 1 .65-.65h3.5a.65.65 0 1 1 0 1.3H8.226l2.482 2.482a.65.65 0 0 1-.92.92L7.308 8.217v1.931a.65.65 0 0 1-.65.65Zm6.546-4.15a.65.65 0 0 1 .65-.65h3.501a.65.65 0 0 1 .65.65v3.5a.65.65 0 0 1-1.3 0V8.218L14.222 10.7a.65.65 0 0 1-.92-.919l2.483-2.482h-1.932a.65.65 0 0 1-.65-.65Zm4.15 6.543a.65.65 0 0 1 .65.65v3.5a.65.65 0 0 1-.65.65h-3.5a.65.65 0 1 1 0-1.3h1.932l-2.483-2.482a.65.65 0 1 1 .92-.92l2.482 2.483v-1.931a.65.65 0 0 1 .65-.65Z" clip-rule="evenodd"/></svg>