<svg xmlns="http://www.w3.org/2000/svg" fill="none" viewBox="0 0 24 24" focusable="false"><path fill="#717681" fill-rule="evenodd" d="M5.39 7.96A4.46 4.46 0 0 1 9.82 3c2.67 0 4.74 2.32 4.44 4.96L14 10.27A4.216 4.216 0 0 1 9.82 14c-2.13 0-3.93-1.61-4.17-3.73zM14.17 14c-.38 0-.52-.47-.28-.76.05-.06.09-.12.14-.18.16-.22.41-.36.68-.42a2.9 2.9 0 0 0 2.34-2.52l.26-2.3c.18-1.6-.85-3.02-2.32-3.42-.35-.09-.68-.28-.91-.56l-.15-.18c-.22-.26-.1-.66.24-.66a4.46 4.46 0 0 1 4.43 4.96l-.26 2.31A4.206 4.206 0 0 1 14.17 14m-1.2-6.18-.27 2.3a2.893 2.893 0 0 1-2.88 2.58c-1.47 0-2.71-1.11-2.88-2.58l-.26-2.3c-.21-1.88 1.25-3.53 3.14-3.53s3.36 1.65 3.15 3.53M2.11 19.69A6 6 0 0 1 7.97 15h3.71c2.81 0 5.24 1.95 5.85 4.69l.1.45a.7.7 0 0 1-.68.86H2.7c-.45 0-.79-.42-.69-.86zm16.61.61c0 .34.25.7.59.7h1.98c.45 0 .79-.42.69-.86l-.1-.45a6 6 0 0 0-4.4-4.51c-.57-.15-.89.54-.52 1.01.13.17.31.27.52.34 1.46.47 2.62 1.64 3.06 3.17h-1.29c-.31 0-.53.29-.53.6m-7.04-4.01c2.1 0 3.94 1.4 4.51 3.41H3.45a4.704 4.704 0 0 1 4.52-3.41z"/></svg>