<svg xmlns="http://www.w3.org/2000/svg" fill="none" viewBox="0 0 24 24" focusable="false"><path fill="#717681" fill-rule="evenodd" d="M9.828 3a4.464 4.464 0 0 0-4.436 4.968l.262 2.306a4.2 4.2 0 0 0 8.347 0l.262-2.306A4.464 4.464 0 0 0 9.828 3m2.881 7.127.262-2.306a3.164 3.164 0 1 0-6.287 0l.262 2.306a2.9 2.9 0 0 0 5.763 0M7.974 15a6 6 0 0 0-5.857 4.698l-.1.45A.7.7 0 0 0 2.7 21h14.255a.7.7 0 0 0 .683-.852l-.1-.45A6 6 0 0 0 11.681 15zm8.224 4.7a4.7 4.7 0 0 0-4.517-3.4H7.974a4.7 4.7 0 0 0-4.517 3.4z" clip-rule="evenodd"/><path fill="#717681" d="M14.172 14c-.38 0-.515-.462-.277-.758q.07-.088.137-.178c.164-.223.415-.364.687-.416a2.9 2.9 0 0 0 2.335-2.52l.262-2.307A3.166 3.166 0 0 0 15 4.41a1.74 1.74 0 0 1-.91-.566q-.074-.093-.153-.181c-.22-.252-.099-.662.236-.662a4.464 4.464 0 0 1 4.436 4.968l-.262 2.306A4.2 4.2 0 0 1 14.172 14M19.314 21c-.342 0-.587-.352-.59-.694-.004-.314.22-.606.535-.606h1.284a4.7 4.7 0 0 0-3.06-3.17 1.03 1.03 0 0 1-.52-.339c-.364-.465-.047-1.154.526-1.01a6 6 0 0 1 4.394 4.517l.1.45A.7.7 0 0 1 21.3 21z"/></svg>