<svg xmlns="http://www.w3.org/2000/svg" fill="none" viewBox="0 0 24 24" focusable="false"><path fill="#717681" fill-rule="evenodd" d="M9.82 3a4.46 4.46 0 0 0-4.43 4.96l.26 2.31A4.206 4.206 0 0 0 9.82 14c2.14 0 3.93-1.61 4.18-3.73l.26-2.31C14.56 5.32 12.49 3 9.82 3m4.16 10.9c-.16-.21 0-.5.16-.7.62-.78 1.03-1.73 1.15-2.78l.26-2.31a5.76 5.76 0 0 0-1.58-4.66c-.09-.09-.15-.22-.07-.33.06-.07.15-.12.27-.12a4.46 4.46 0 0 1 4.43 4.96l-.26 2.31A4.206 4.206 0 0 1 14.17 14c-.09 0-.15-.04-.19-.1M7.97 15c-2.81 0-5.25 1.95-5.86 4.69l-.1.45c-.1.44.24.86.69.86h14.25a.7.7 0 0 0 .68-.86l-.1-.45A5.99 5.99 0 0 0 11.68 15zm10.96 5.58c-.02.13 0 .27.11.34.08.05.17.08.27.08h1.98c.45 0 .79-.42.69-.86l-.1-.45a6 6 0 0 0-4.4-4.51c-.36-.1-.63.16-.67.47-.01.1.03.19.1.26.92.94 1.59 2.14 1.89 3.5l.1.45c.06.25.06.49.03.72"/></svg>