<svg xmlns="http://www.w3.org/2000/svg" fill="none" viewBox="0 0 24 24" focusable="false"><path fill="#717681" fill-rule="evenodd" d="M12 3a4.464 4.464 0 0 0-4.435 4.968l.262 2.306a4.2 4.2 0 0 0 8.346 0l.263-2.306A4.464 4.464 0 0 0 12 3m2.882 7.127.262-2.306a3.164 3.164 0 1 0-6.288 0l.262 2.306a2.9 2.9 0 0 0 5.764 0" clip-rule="evenodd"/><path fill="#717681" d="M10.146 15a6 6 0 0 0-5.857 4.698l-.1.45a.7.7 0 0 0 .684.852h6.784a.65.65 0 1 0 0-1.3H5.63a4.7 4.7 0 0 1 4.516-3.4h1.511a.65.65 0 1 0 0-1.3h-1.51"/><path fill="#717681" fill-rule="evenodd" d="M14.318 14.318a4.5 4.5 0 1 0 6.364 6.364 4.5 4.5 0 0 0-6.364-6.364m5.445.92a3.2 3.2 0 0 0-4.02-.414l4.433 4.432a3.2 3.2 0 0 0-.413-4.019m-4.526 4.525a3.2 3.2 0 0 1-.413-4.02l4.432 4.433a3.2 3.2 0 0 1-4.019-.413" clip-rule="evenodd"/></svg>