<svg xmlns="http://www.w3.org/2000/svg" fill="none" viewBox="0 0 24 24" focusable="false"><defs><clipPath id="Person_Account_Solid_svg__a"><path fill="#fff" fill-opacity="0" d="M0 0h24v24H0z"/></clipPath></defs><path fill="none" d="M0 0h24v24H0z"/><g clip-path="url(#Person_Account_Solid_svg__a)"><path fill="#717681" fill-rule="evenodd" d="M21 12c0 2.83-1.32 5.36-3.37 7.01a8.99 8.99 0 0 1-8.31 1.58 9 9 0 0 1-2.96-1.58A8.98 8.98 0 0 1 3 12c0-4.98 4.02-9 9-9 4.97 0 9 4.02 9 9m-4.01 5.85a4.53 4.53 0 0 0-3.6-1.78H10.6c-1.45 0-2.77.69-3.6 1.78a7.66 7.66 0 0 0 5 1.85c1.9 0 3.65-.7 4.99-1.85m-8.34-7.67c-.22-2 1.34-3.75 3.35-3.75 2 0 3.56 1.75 3.34 3.75l-.2 1.73A3.17 3.17 0 0 1 12 14.72a3.17 3.17 0 0 1-3.15-2.81z"/></g></svg>