<svg xmlns="http://www.w3.org/2000/svg" fill="none" viewBox="0 0 24 24" focusable="false"><defs><clipPath id="Person_Add_Outline_svg__a"><path fill="#fff" fill-opacity="0" d="M0 0h24v24H0z"/></clipPath></defs><g clip-path="url(#Person_Add_Outline_svg__a)"><path fill="#717681" fill-rule="evenodd" d="M12 3C9.33 3 7.26 5.32 7.56 7.96l.26 2.31A4.209 4.209 0 0 0 12 14c2.13 0 3.93-1.61 4.17-3.73l.26-2.31A4.46 4.46 0 0 0 12 3m2.88 7.12.26-2.3c.21-1.88-1.26-3.53-3.14-3.53-1.89 0-3.36 1.65-3.15 3.53l.26 2.3A2.91 2.91 0 0 0 12 12.7c1.47 0 2.71-1.11 2.88-2.58m3.26 5.38c0-.36-.29-.65-.64-.65-.36 0-.65.29-.65.65v1.85H15c-.36 0-.65.29-.65.65 0 .36.29.65.65.65h1.85v1.85c0 .36.29.65.65.65.35 0 .64-.29.64-.65v-1.85H20c.35 0 .64-.29.64-.65 0-.36-.29-.65-.64-.65h-1.86zm-8-.5c-2.81 0-5.25 1.95-5.86 4.69l-.1.45c-.09.44.24.86.69.86h7.78c.36 0 .65-.3.65-.65 0-.36-.29-.65-.65-.65H5.62a4.713 4.713 0 0 1 4.52-3.41h2.51c.36 0 .65-.29.65-.64 0-.36-.29-.65-.65-.65z"/></g></svg>