<svg xmlns="http://www.w3.org/2000/svg" width="24" height="24" fill="none"><path fill="#717681" d="M7.565 7.968a4.464 4.464 0 1 1 8.87 0l-.262 2.306a4.2 4.2 0 0 1-8.346 0l-.262-2.306ZM11.154 15c.515 0 .86.543.73 1.042a5.81 5.81 0 0 0 .284 3.743c.228.532-.124 1.215-.702 1.215H4.873a.7.7 0 0 1-.684-.852l.1-.45A6 6 0 0 1 10.146 15h1.008Z"/><path fill="#717681" fill-rule="evenodd" d="M14.318 14.318a4.5 4.5 0 1 0 6.364 6.364 4.5 4.5 0 0 0-6.364-6.364Zm5.445.92a3.2 3.2 0 1 0-4.526 4.525 3.2 3.2 0 0 0 4.526-4.526Z" clip-rule="evenodd"/><path fill="#717681" fill-rule="evenodd" d="m20.435 19.515-4.95-4.95-.92.92 4.95 4.95.92-.92Z" clip-rule="evenodd"/></svg>