<svg xmlns="http://www.w3.org/2000/svg" width="24" height="24" fill="none"><path fill="#717681" d="M12 3a4.464 4.464 0 0 0-4.435 4.968l.262 2.306a4.2 4.2 0 0 0 8.346 0l.263-2.306A4.464 4.464 0 0 0 12 3ZM11.885 16.042c.129-.499-.216-1.042-.73-1.042h-1.009a6 6 0 0 0-5.857 4.698l-.1.45a.7.7 0 0 0 .684.852h6.593c.578 0 .93-.683.702-1.215a5.81 5.81 0 0 1-.283-3.743Z"/><path fill="#717681" fill-rule="evenodd" d="M22 17.5a4.5 4.5 0 1 0-9 0 4.5 4.5 0 0 0 9 0Zm-7.157 0a.65.65 0 0 1 .65-.65h1.357v-1.222a.65.65 0 1 1 1.3 0v1.222h1.357a.65.65 0 1 1 0 1.3H18.15v1.222a.65.65 0 1 1-1.3 0V18.15h-1.357a.65.65 0 0 1-.65-.65Z" clip-rule="evenodd"/></svg>