<svg xmlns="http://www.w3.org/2000/svg" fill="none" viewBox="0 0 24 24" focusable="false"><defs><clipPath id="Person_Properties_Outline_svg__a"><path fill="#fff" fill-opacity="0" d="M0 0h24v24H0z"/></clipPath></defs><g clip-path="url(#Person_Properties_Outline_svg__a)"><path fill="#717681" fill-rule="evenodd" d="M12 3C9.33 3 7.26 5.32 7.56 7.96l.26 2.31A4.209 4.209 0 0 0 12 14c2.13 0 3.93-1.61 4.17-3.73l.26-2.31A4.46 4.46 0 0 0 12 3m2.88 7.12.26-2.3c.21-1.88-1.26-3.53-3.14-3.53-1.89 0-3.36 1.65-3.15 3.53l.26 2.3A2.91 2.91 0 0 0 12 12.7c1.47 0 2.71-1.11 2.88-2.58m1.15 3.64c.07-.44.46-.76.93-.76h1.01c.46 0 .85.31.92.75.09.56.72.89 1.28.68.43-.17.93-.01 1.16.37l.51.83c.23.38.13.86-.23 1.14a.867.867 0 0 0 .02 1.39c.37.27.47.76.24 1.14l-.5.83c-.24.38-.72.55-1.15.39-.59-.22-1.23.14-1.33.72-.07.44-.46.76-.92.76h-1.01a.93.93 0 0 1-.93-.77c-.08-.57-.7-.92-1.26-.71a.966.966 0 0 1-1.15-.39l-.5-.83a.856.856 0 0 1 .24-1.14c.47-.35.48-1.04.02-1.39-.36-.28-.46-.76-.23-1.14l.51-.83c.23-.38.73-.54 1.16-.37.53.2 1.13-.13 1.21-.67m1.13.75c.05-.13.17-.21.31-.21.13 0 .25.08.3.2.43.94 1.47 1.42 2.45 1.26.09-.02.18.02.23.1.05.08.04.19-.02.26-.63.8-.61 1.92.03 2.7.06.08.07.18.02.26-.05.08-.14.12-.23.11-1-.17-2.06.34-2.48 1.3-.05.12-.17.21-.3.21h-.01c-.13 0-.24-.09-.3-.21-.4-.95-1.43-1.46-2.42-1.3a.251.251 0 0 1-.23-.1.242.242 0 0 1 .02-.27c.64-.78.66-1.9.03-2.7a.226.226 0 0 1-.02-.26c.05-.08.14-.12.23-.11.97.17 1.98-.32 2.39-1.24m-7.02.49c-2.81 0-5.25 1.95-5.86 4.69l-.1.45c-.09.44.24.86.69.86h6.78c.36 0 .65-.3.65-.65 0-.36-.29-.65-.65-.65H5.62a4.713 4.713 0 0 1 4.52-3.41h1.51c.36 0 .65-.29.65-.64 0-.36-.29-.65-.65-.65zm7.36 4c.82 0 1.5-.68 1.5-1.5 0-.83-.68-1.5-1.5-1.5-.83 0-1.5.67-1.5 1.5 0 .82.67 1.5 1.5 1.5"/></g></svg>