<svg xmlns="http://www.w3.org/2000/svg" fill="none" viewBox="0 0 24 24" focusable="false"><defs><clipPath id="Person_Solid_svg__a"><path fill="#fff" fill-opacity="0" d="M0 0h24v24H0z"/></clipPath></defs><g clip-path="url(#Person_Solid_svg__a)"><path fill="#74767B" fill-rule="evenodd" d="M12 3C9.33 3 7.26 5.32 7.56 7.96l.26 2.31A4.21 4.21 0 0 0 12 14c2.13 0 3.93-1.61 4.17-3.73l.26-2.31A4.46 4.46 0 0 0 12 3m-1.86 12c-2.81 0-5.25 1.95-5.86 4.69l-.1.45c-.09.44.24.86.69.86h14.25c.45 0 .78-.42.69-.86l-.1-.45A6 6 0 0 0 13.85 15z"/></g></svg>