<svg xmlns="http://www.w3.org/2000/svg" fill="none" viewBox="0 0 24 24" focusable="false"><defs><clipPath id="Person_Properties_Solid_svg__a"><path fill="#fff" fill-opacity="0" d="M0 0h24v24H0z"/></clipPath></defs><g clip-path="url(#Person_Properties_Solid_svg__a)"><path fill="#74767B" fill-rule="evenodd" d="M7.56 7.96C7.26 5.32 9.33 3 12 3a4.46 4.46 0 0 1 4.43 4.96l-.26 2.31A4.206 4.206 0 0 1 12 14c-2.14 0-3.94-1.61-4.18-3.73zm9.4 5.04c-.47 0-.86.32-.93.76-.08.54-.68.87-1.21.67-.43-.17-.93-.01-1.16.37l-.51.83c-.23.38-.13.86.23 1.14.46.35.45 1.04-.02 1.39-.37.27-.47.76-.24 1.14l.5.83c.24.38.72.55 1.15.39.56-.21 1.18.14 1.26.71.07.44.46.77.93.77h1.01c.46 0 .85-.32.92-.76.1-.58.74-.94 1.33-.72.43.16.91-.01 1.15-.39l.5-.83c.23-.38.13-.87-.24-1.14a.867.867 0 0 1-.02-1.39c.36-.28.46-.76.23-1.14l-.51-.83c-.23-.38-.73-.54-1.16-.37-.56.21-1.19-.12-1.28-.68-.07-.44-.46-.75-.92-.75zm-5.81 2c.51 0 .86.54.73 1.04-.12.46-.18.95-.18 1.46 0 .81.16 1.58.46 2.28.23.53-.12 1.22-.7 1.22H4.87c-.45 0-.78-.42-.69-.86l.1-.45A6 6 0 0 1 10.14 15zM19 17.5c0 .82-.68 1.5-1.5 1.5-.83 0-1.5-.68-1.5-1.5 0-.83.67-1.5 1.5-1.5.82 0 1.5.67 1.5 1.5"/></g></svg>