<svg xmlns="http://www.w3.org/2000/svg" fill="none" viewBox="0 0 24 24" focusable="false"><defs><clipPath id="Person_Add_Solid_svg__a"><path fill="#fff" fill-opacity="0" d="M0 0h24v24H0z"/></clipPath></defs><g clip-path="url(#Person_Add_Solid_svg__a)"><path fill="#717681" fill-rule="evenodd" d="M12 3C9.33 3 7.26 5.32 7.56 7.96l.26 2.31A4.209 4.209 0 0 0 12 14c2.13 0 3.93-1.61 4.17-3.73l.26-2.31A4.46 4.46 0 0 0 12 3m5.5 10a4.5 4.5 0 0 1 4.5 4.5c0 2.48-2.02 4.5-4.5 4.5a4.5 4.5 0 0 1 0-9m-2.01 3.85c-.36 0-.65.29-.65.65 0 .35.29.65.65.65h1.36v1.22c0 .36.29.65.65.65.35 0 .64-.29.64-.65v-1.22h1.36c.36 0 .65-.3.65-.65 0-.36-.29-.65-.65-.65h-1.36v-1.23c0-.36-.29-.65-.64-.65-.36 0-.65.29-.65.65v1.23zm-3.61-.81c.13-.5-.22-1.04-.73-1.04h-1.01c-2.81 0-5.25 1.95-5.86 4.69l-.1.45c-.09.44.24.86.69.86h6.59c.58 0 .93-.69.7-1.22-.3-.7-.46-1.47-.46-2.28 0-.51.06-1 .18-1.46"/></g></svg>