<svg xmlns="http://www.w3.org/2000/svg" fill="none" viewBox="0 0 24 24" focusable="false"><defs><clipPath id="Person_Refresh_Solid_svg__a"><path fill="#fff" fill-opacity="0" d="M0 0h24v24H0z"/></clipPath></defs><g clip-path="url(#Person_Refresh_Solid_svg__a)"><path fill="#717681" fill-rule="evenodd" d="M7.56 7.98c-.3-2.65 1.77-4.97 4.43-4.97 2.67 0 4.74 2.32 4.44 4.97l-.26 2.31a4.2 4.2 0 0 1-4.18 3.72c-2.13 0-3.93-1.6-4.17-3.72zm3.59 7.03c.51 0 .86.55.73 1.05-.12.46-.19.95-.19 1.45 0 .81.17 1.59.47 2.29.23.53-.12 1.21-.7 1.21H4.87c-.45 0-.78-.41-.69-.85l.1-.45c.61-2.74 3.05-4.7 5.86-4.7zm3.14 3.33a3.85 3.85 0 0 0 7.66-.55c0-2.12-1.72-3.85-3.85-3.85-.44 0-.87.07-1.26.21a.65.65 0 0 0-.4.83c.11.34.48.52.82.4.26-.09.55-.14.84-.14 1.41 0 2.55 1.14 2.55 2.55s-1.14 2.56-2.55 2.56c-1.26 0-2.3-.91-2.51-2.11l.5.49c.25.25.67.25.92-.01.25-.25.25-.66-.01-.91l-1.58-1.55a.65.65 0 0 0-.92 0l-1.55 1.58c-.25.26-.25.67.01.92s.67.25.92-.01z"/></g></svg>