<svg xmlns="http://www.w3.org/2000/svg" fill="none" viewBox="0 0 24 24" focusable="false"><path fill="#717681" fill-rule="evenodd" d="M7.565 7.968a4.464 4.464 0 1 1 8.87 0l-.262 2.306a4.2 4.2 0 0 1-8.346 0zm7.579-.147-.262 2.306a2.9 2.9 0 0 1-5.764 0l-.262-2.306a3.164 3.164 0 1 1 6.288 0" clip-rule="evenodd"/><path fill="#717681" d="M4.29 19.698A6 6 0 0 1 10.145 15h1.511a.65.65 0 1 1 0 1.3h-1.51a4.7 4.7 0 0 0-4.517 3.4h6.027a.65.65 0 1 1 0 1.3H4.873a.7.7 0 0 1-.684-.852zM17.5 19a1.5 1.5 0 1 0 0-3 1.5 1.5 0 0 0 0 3"/><path fill="#717681" fill-rule="evenodd" d="M16.964 13c-.467 0-.862.327-.926.766-.08.544-.678.871-1.215.665a.96.96 0 0 0-1.162.378l-.504.83a.857.857 0 0 0 .224 1.135.862.862 0 0 1-.02 1.391.86.86 0 0 0-.236 1.144l.505.83a.96.96 0 0 0 1.148.383c.556-.204 1.176.144 1.26.712.064.44.46.766.926.766h1.009c.46 0 .853-.319.924-.752.096-.588.74-.94 1.325-.726a.96.96 0 0 0 1.148-.384l.505-.829a.86.86 0 0 0-.236-1.144.862.862 0 0 1-.02-1.391.86.86 0 0 0 .224-1.136l-.504-.829a.96.96 0 0 0-1.162-.378c-.56.216-1.189-.12-1.28-.68-.07-.432-.463-.751-.924-.751zm.508 1.3a.34.34 0 0 0-.307.213c-.407.925-1.424 1.409-2.386 1.247a.23.23 0 0 0-.237.103.23.23 0 0 0 .021.263 2.16 2.16 0 0 1-.026 2.7.23.23 0 0 0-.023.264c.048.08.141.118.233.103.986-.157 2.015.355 2.422 1.3a.33.33 0 0 0 .296.207h.013c.13 0 .243-.085.295-.204.423-.963 1.477-1.47 2.48-1.304a.23.23 0 0 0 .234-.102.23.23 0 0 0-.023-.263 2.16 2.16 0 0 1-.027-2.701.23.23 0 0 0 .021-.263.23.23 0 0 0-.237-.102c-.976.168-2.02-.311-2.443-1.252a.34.34 0 0 0-.306-.209" clip-rule="evenodd"/></svg>