<svg xmlns="http://www.w3.org/2000/svg" fill="none" viewBox="0 0 24 24" focusable="false"><defs><clipPath id="Person_Account_Outline_svg__a"><path fill="#fff" fill-opacity="0" d="M0 0h24v24H0z"/></clipPath></defs><path fill="none" d="M0 0h24v24H0z"/><g clip-path="url(#Person_Account_Outline_svg__a)"><path fill="#74767B" fill-rule="evenodd" d="M21 12c0 2.83-1.32 5.36-3.37 7.01 0 .01-.01.01-.01.01A8.94 8.94 0 0 1 12 21c-2.14 0-4.1-.75-5.64-1.99A8.98 8.98 0 0 1 3 12c0-4.98 4.02-9 9-9 4.97 0 9 4.02 9 9m-7.61 4.07c1.45 0 2.77.69 3.6 1.78A7.66 7.66 0 0 0 19.7 12c0-4.26-3.45-7.7-7.7-7.7A7.7 7.7 0 0 0 4.29 12c0 2.34 1.05 4.44 2.71 5.85a4.53 4.53 0 0 1 3.6-1.78zM12 6.43c-2.01 0-3.57 1.75-3.35 3.75l.2 1.73A3.17 3.17 0 0 0 12 14.72c1.6 0 2.96-1.21 3.14-2.81l.2-1.73c.22-2-1.34-3.75-3.34-3.75m-2.05 3.6c-.14-1.22.81-2.3 2.05-2.3 1.23 0 2.18 1.08 2.04 2.3l-.19 1.74a1.869 1.869 0 0 1-3.71 0zM12 19.7c1.43 0 2.78-.4 3.93-1.09a3.22 3.22 0 0 0-2.54-1.24H10.6c-1.02 0-1.95.48-2.54 1.24 1.15.69 2.5 1.09 3.94 1.09"/></g></svg>