<svg xmlns="http://www.w3.org/2000/svg" fill="none" viewBox="0 0 24 24" focusable="false"><g fill="#74767B"><path d="M7.56 7.96C7.26 5.32 9.33 3 12 3a4.46 4.46 0 0 1 4.43 4.96l-.26 2.31A4.206 4.206 0 0 1 12 14c-2.14 0-3.94-1.61-4.18-3.73zM11.15 15c.51 0 .86.54.73 1.04-.12.46-.18.95-.18 1.46 0 .81.16 1.58.46 2.28.23.53-.12 1.22-.7 1.22H4.87c-.45 0-.78-.42-.69-.86l.1-.45A6 6 0 0 1 10.14 15z"/><path fill-rule="evenodd" d="M14.31 14.31a4.52 4.52 0 0 0 0 6.37 4.52 4.52 0 0 0 6.37 0 4.52 4.52 0 0 0 0-6.37 4.52 4.52 0 0 0-6.37 0m5.45.92a3.205 3.205 0 0 0-4.53 0 3.205 3.205 0 0 0 0 4.53 3.205 3.205 0 0 0 4.53 0 3.205 3.205 0 0 0 0-4.53"/><path fill-rule="evenodd" d="m20.43 19.51-4.95-4.95-.92.92 4.95 4.95z"/></g></svg>