<svg xmlns="http://www.w3.org/2000/svg" fill="none" viewBox="0 0 24 24" focusable="false"><path fill="#717681" fill-rule="evenodd" d="M12 21a9 9 0 0 0 9-9c0-4.98-4.03-9-9-9-4.98 0-9 4.02-9 9 0 4.97 4.02 9 9 9m-.65-14.36a.644.644 0 0 1 1.29 0v3.71c0 .35-.29.65-.64.65-.36 0-.65-.3-.65-.65zm-1.84.96c.22.29.16.7-.12.91A4.36 4.36 0 0 0 7.64 12a4.355 4.355 0 0 0 8.71 0c0-1.43-.69-2.69-1.75-3.49a.65.65 0 0 1-.12-.91.66.66 0 0 1 .91-.13A5.65 5.65 0 0 1 17.64 12c0 3.12-2.52 5.65-5.64 5.65-3.13 0-5.65-2.53-5.65-5.65 0-1.85.88-3.5 2.25-4.53.29-.21.7-.15.91.13"/></svg>