<svg xmlns="http://www.w3.org/2000/svg" fill="none" viewBox="0 0 24 24" focusable="false"><path fill="#74767B" fill-rule="evenodd" d="M12 3.98c.35 0 .64.29.64.65v5.71c0 .35-.29.65-.64.65-.36 0-.65-.3-.65-.65V4.63c0-.36.29-.65.65-.65m-2.5 1.9c0-.47-.46-.79-.88-.58A7.48 7.48 0 0 0 4.5 12c0 4.14 3.35 7.5 7.5 7.5 4.14 0 7.5-3.36 7.5-7.5 0-2.89-1.64-5.4-4.03-6.65-.42-.22-.89.1-.89.57 0 .27.16.51.39.63A6.23 6.23 0 0 1 18.2 12a6.205 6.205 0 0 1-12.41 0c0-2.38 1.35-4.45 3.31-5.49.24-.13.4-.37.4-.63"/></svg>