<svg xmlns="http://www.w3.org/2000/svg" fill="none" viewBox="0 0 24 24" focusable="false"><defs><clipPath id="Print_Outline_svg__a"><path fill="#fff" fill-opacity="0" d="M0 0h24v24H0z"/></clipPath></defs><g clip-path="url(#Print_Outline_svg__a)"><path fill="#717681" fill-rule="evenodd" d="M8.79 3c-1.07 0-1.94.87-1.94 1.95v1.1c0 .36.29.65.65.65.35 0 .64-.29.64-.65v-1.1c0-.36.3-.65.65-.65h6.41c.35 0 .65.29.65.65v1.1c0 .36.29.65.65.65.35 0 .64-.29.64-.65v-1.1c0-1.08-.87-1.95-1.94-1.95zm6.91 18c.71 0 1.3-.59 1.3-1.3V18h1c1.65 0 3-1.35 3-3v-4a3.01 3.01 0 0 0-3-3.01H6c-1.66 0-3 1.35-3 3.01v4c0 1.65 1.34 3 3 3h1v1.7c0 .71.58 1.3 1.29 1.3zm2.3-4.3h-1v-3c0-.39-.32-.7-.71-.7H7.7c-.39 0-.7.31-.7.7v3H6c-.94 0-1.71-.77-1.71-1.7v-4c0-.94.77-1.71 1.71-1.71h12c.93 0 1.7.77 1.7 1.71v4c0 .93-.77 1.7-1.7 1.7m.69-5.22c0 .55-.45 1-1 1s-1-.45-1-1c0-.56.45-1 1-1s1 .44 1 1M8.29 19.7h7.41v-5.4H8.29z"/></g></svg>