<svg xmlns="http://www.w3.org/2000/svg" fill="none" viewBox="0 0 24 24" focusable="false"><path fill="#717681" d="M14.7 3H9.3A1.3 1.3 0 0 0 8 4.3v1.696a.7.7 0 0 0 .7.7h6.6a.7.7 0 0 0 .7-.7V4.3A1.3 1.3 0 0 0 14.7 3"/><path fill="#717681" fill-rule="evenodd" d="M21 15a3 3 0 0 1-3 3h-.5v-4.2a1.3 1.3 0 0 0-1.3-1.3H7.8a1.3 1.3 0 0 0-1.3 1.3V18H6a3 3 0 0 1-3-3v-4a3 3 0 0 1 3-3h12a3 3 0 0 1 3 3zm-2.514-3.33a1 1 0 1 0 0-2 1 1 0 0 0 0 2" clip-rule="evenodd"/><path fill="#717681" d="M14.7 21a1.3 1.3 0 0 0 1.3-1.3v-5a.7.7 0 0 0-.7-.7H8.7a.7.7 0 0 0-.7.7v5A1.3 1.3 0 0 0 9.3 21z"/></svg>