<svg xmlns="http://www.w3.org/2000/svg" fill="none" viewBox="0 0 24 24" focusable="false"><defs><clipPath id="Print_Solid_svg__a"><path fill="#fff" fill-opacity="0" d="M0 0h24v24H0z"/></clipPath></defs><g clip-path="url(#Print_Solid_svg__a)"><path fill="#74767B" fill-rule="evenodd" d="M14.7 3H9.29C8.58 3 8 3.58 8 4.3v1.69c0 .39.31.7.7.7h6.59c.39 0 .71-.31.71-.7V4.3c0-.72-.59-1.3-1.3-1.3M21 15c0 1.65-1.35 3-3 3h-.5v-4.2c0-.72-.59-1.3-1.3-1.3H7.79c-.71 0-1.29.58-1.29 1.3V18H6c-1.66 0-3-1.35-3-3v-4c0-1.66 1.34-3 3-3h12c1.65 0 3 1.34 3 3zm-2.52-3.34c.55 0 1-.44 1-1 0-.55-.45-1-1-1s-1 .45-1 1c0 .56.45 1 1 1M16 19.7c0 .71-.59 1.3-1.3 1.3H9.29C8.58 21 8 20.41 8 19.7v-5c0-.39.31-.7.7-.7h6.59c.39 0 .71.31.71.7z"/></g></svg>