<svg xmlns="http://www.w3.org/2000/svg" fill="none" viewBox="0 0 24 24" focusable="false"><path fill="#717681" d="M8.8 3.006a1.95 1.95 0 0 0-1.95 1.95v1.099a.65.65 0 0 0 1.3 0v-1.1a.65.65 0 0 1 .65-.65h6.4a.65.65 0 0 1 .65.65v1.1a.65.65 0 1 0 1.3 0v-1.1a1.95 1.95 0 0 0-1.95-1.95zM18.696 11.48a1 1 0 1 1-2 0 1 1 0 0 1 2 0"/><path fill="#717681" fill-rule="evenodd" d="M17 19.7a1.3 1.3 0 0 1-1.3 1.3H8.3A1.3 1.3 0 0 1 7 19.7V18H6a3 3 0 0 1-3-3v-4a3 3 0 0 1 3-3h12a3 3 0 0 1 3 3v4a3 3 0 0 1-3 3h-1zm-1.3 0H8.3v-5.4h7.4zm1.3-3h1a1.7 1.7 0 0 0 1.7-1.7v-4A1.7 1.7 0 0 0 18 9.3H6A1.7 1.7 0 0 0 4.3 11v4A1.7 1.7 0 0 0 6 16.7h1v-3a.7.7 0 0 1 .7-.7h8.6a.7.7 0 0 1 .7.7z" clip-rule="evenodd"/></svg>