<svg xmlns="http://www.w3.org/2000/svg" fill="none" viewBox="0 0 24 24" focusable="false"><path fill="#717681" fill-rule="evenodd" d="M11.691 17.732a3.96 3.96 0 0 0 1.086-2.729V8.945a3.97 3.97 0 1 0-7.94 0v6.058a3.97 3.97 0 0 0 5.819 3.515l.957 1.283a.65.65 0 0 0 1.042-.778zm-.214-2.729V8.945a2.67 2.67 0 1 0-5.34 0v6.058a2.67 2.67 0 0 0 3.726 2.454l-1.322-1.772a.65.65 0 1 1 1.041-.778l1.314 1.76a2.66 2.66 0 0 0 .581-1.664" clip-rule="evenodd"/><path fill="#717681" d="M15.224 5.246a.65.65 0 0 1 .65.65v11.93c0 .028.022.05.05.05h3.24a.65.65 0 1 1 0 1.3h-3.24a1.35 1.35 0 0 1-1.35-1.35V5.896a.65.65 0 0 1 .65-.65"/></svg>