<svg xmlns="http://www.w3.org/2000/svg" fill="none" viewBox="0 0 24 24" focusable="false"><path fill="#717681" fill-rule="evenodd" d="M12.77 15c0 1.06-.41 2.02-1.08 2.73l.96 1.29c.22.29.16.69-.13.91a.66.66 0 0 1-.91-.13l-.96-1.29c-.55.29-1.18.46-1.85.46-2.19 0-3.97-1.78-3.97-3.97V8.94c0-2.19 1.78-3.97 3.97-3.97 2.2 0 3.97 1.78 3.97 3.97zm3.1-9.11c0-.36-.29-.65-.65-.65s-.65.29-.65.65v11.93c0 .75.6 1.35 1.35 1.35h3.24c.36 0 .65-.29.65-.65s-.29-.65-.65-.65h-3.24c-.03 0-.05-.02-.05-.05zm-4.4 3.05V15c0 .63-.22 1.21-.58 1.66L9.58 14.9a.653.653 0 0 0-.91-.13c-.29.21-.35.62-.13.91l1.32 1.77c-.33.14-.68.22-1.06.22-1.47 0-2.67-1.2-2.67-2.67V8.94a2.67 2.67 0 1 1 5.34 0"/></svg>