<svg xmlns="http://www.w3.org/2000/svg" fill="none" viewBox="0 0 24 24" focusable="false"><path fill="#717681" d="M9.688 8.082h.098a1.7 1.7 0 0 1 1.7 1.7v4.412c0 .275-.065.534-.18.764l-.76-.8a.65.65 0 1 0-.942.895l.716.756a1.698 1.698 0 0 1-.534.085h-.098a1.7 1.7 0 0 1-1.7-1.7V9.782a1.7 1.7 0 0 1 1.7-1.7"/><path fill="#717681" fill-rule="evenodd" d="M7 3.988a3 3 0 0 0-3 3v10a3 3 0 0 0 3 3h10a3 3 0 0 0 3-3v-10a3 3 0 0 0-3-3zm4.265 12.817c-.436.248-.941.39-1.479.39h-.098a3 3 0 0 1-3-3V9.781a3 3 0 0 1 3-3h.098a3 3 0 0 1 3 3v4.412c0 .649-.206 1.25-.555 1.74l.945.997a.65.65 0 0 1-.943.894zm3.476-9.959a.65.65 0 0 1 .65.65v8.309c0 .027.023.05.05.05h1.983a.65.65 0 1 1 0 1.3h-1.983a1.35 1.35 0 0 1-1.35-1.35V7.496a.65.65 0 0 1 .65-.65" clip-rule="evenodd"/></svg>