<svg xmlns="http://www.w3.org/2000/svg" fill="none" viewBox="0 0 24 24" focusable="false"><path fill="#717681" d="M7.233 7.224H9.95v2.717H7.233V7.224ZM7.233 14.06H9.95v2.716H7.233V14.06ZM14.068 7.224h2.716v2.717h-2.716V7.224Z"/><path fill="#717681" fill-rule="evenodd" d="M19.05 2h-14a3 3 0 0 0-3 3v14a3 3 0 0 0 3 3h14a3 3 0 0 0 3-3V5a3 3 0 0 0-3-3ZM5.933 7.224a1.3 1.3 0 0 1 1.3-1.3H9.95a1.3 1.3 0 0 1 1.3 1.3v2.717a1.3 1.3 0 0 1-1.3 1.3H7.233a1.3 1.3 0 0 1-1.3-1.3V7.224Zm0 6.835a1.3 1.3 0 0 1 1.3-1.3H9.95a1.3 1.3 0 0 1 1.3 1.3v2.717a1.3 1.3 0 0 1-1.3 1.3H7.233a1.3 1.3 0 0 1-1.3-1.3V14.06Zm8.652 4.22h2.2a1.3 1.3 0 0 0 1.3-1.3v-2.373a.65.65 0 1 0-1.3 0v2.373h-2.2a.65.65 0 1 0 0 1.3ZM12.768 7.224a1.3 1.3 0 0 1 1.3-1.3h2.716a1.3 1.3 0 0 1 1.3 1.3v2.717a1.3 1.3 0 0 1-1.3 1.3h-2.716a1.3 1.3 0 0 1-1.3-1.3V7.224Zm1.3 6.143a.65.65 0 1 0-1.3 0v.979a.65.65 0 1 0 1.3 0v-.98Z" clip-rule="evenodd"/></svg>