<svg xmlns="http://www.w3.org/2000/svg" fill="none" viewBox="0 0 24 24" focusable="false"><defs><clipPath id="QR_Code_Solid_svg__a"><path fill="#fff" fill-opacity="0" d="M0 0h24v24H0z"/></clipPath></defs><g clip-path="url(#QR_Code_Solid_svg__a)"><path fill="#717681" fill-rule="evenodd" d="M5.05 1.99h14c1.65 0 3 1.35 3 3v14c0 1.66-1.35 3-3 3h-14c-1.66 0-3-1.34-3-3v-14c0-1.65 1.34-3 3-3m2.18 3.93c-.72 0-1.3.58-1.3 1.3v2.72c0 .71.58 1.3 1.3 1.3h2.71c.72 0 1.3-.59 1.3-1.3V7.22c0-.72-.58-1.3-1.3-1.3zm6.83 0c-.71 0-1.3.58-1.3 1.3v2.72c0 .71.59 1.3 1.3 1.3h2.72c.72 0 1.3-.59 1.3-1.3V7.22c0-.72-.58-1.3-1.3-1.3zm-4.12 1.3H7.23v2.72h2.71zm4.12 0h2.72v2.72h-2.72zm-.65 5.49c.36 0 .65.29.65.65v.98c0 .36-.29.65-.65.65s-.65-.29-.65-.65v-.98c0-.36.29-.65.65-.65m-6.18.04c-.72 0-1.3.59-1.3 1.3v2.72c0 .72.58 1.3 1.3 1.3h2.71c.72 0 1.3-.58 1.3-1.3v-2.72c0-.71-.58-1.3-1.3-1.3zm9.55 5.52h-2.2c-.36 0-.65-.29-.65-.65 0-.35.29-.65.65-.65h2.2V14.6c0-.36.29-.65.65-.65s.65.29.65.65v2.37c0 .72-.58 1.3-1.3 1.3m-6.84-4.22H7.23v2.72h2.71z"/></g></svg>