<svg xmlns="http://www.w3.org/2000/svg" fill="none" viewBox="0 0 25 24" focusable="false"><path fill="#717681" d="M5.009 2h.8a.65.65 0 1 1 0 1.3h-.8a1.7 1.7 0 0 0-1.7 1.7v.691a.65.65 0 0 1-1.3 0V5a3 3 0 0 1 3-3ZM2.659 17.659a.65.65 0 0 0-.65.65V19a3 3 0 0 0 3 3h.8a.65.65 0 1 0 0-1.3h-.8a1.7 1.7 0 0 1-1.7-1.7v-.691a.65.65 0 0 0-.65-.65ZM21.359 17.659a.65.65 0 0 0-.65.65V19a1.7 1.7 0 0 1-1.7 1.7h-.583a.65.65 0 1 0 0 1.3h.583a3 3 0 0 0 3-3v-.691a.65.65 0 0 0-.65-.65ZM21.359 6.341a.65.65 0 0 0 .65-.65V5a3 3 0 0 0-3-3h-.583a.65.65 0 1 0 0 1.3h.583a1.7 1.7 0 0 1 1.7 1.7v.691c0 .359.29.65.65.65Z"/><path fill="#717681" fill-rule="evenodd" d="M5.933 7.224a1.3 1.3 0 0 1 1.3-1.3H9.95a1.3 1.3 0 0 1 1.3 1.3v2.717a1.3 1.3 0 0 1-1.3 1.3H7.233a1.3 1.3 0 0 1-1.3-1.3V7.224Zm1.3 0H9.95v2.717H7.233V7.224ZM5.933 14.06a1.3 1.3 0 0 1 1.3-1.3H9.95a1.3 1.3 0 0 1 1.3 1.3v2.716a1.3 1.3 0 0 1-1.3 1.3H7.233a1.3 1.3 0 0 1-1.3-1.3V14.06Zm1.3 0H9.95v2.716H7.233V14.06Z" clip-rule="evenodd"/><path fill="#717681" d="M16.785 18.279h-2.2a.65.65 0 1 1 0-1.3h2.2v-2.373a.65.65 0 0 1 1.3 0v2.373a1.3 1.3 0 0 1-1.3 1.3Z"/><path fill="#717681" fill-rule="evenodd" d="M12.768 7.224a1.3 1.3 0 0 1 1.3-1.3h2.716a1.3 1.3 0 0 1 1.3 1.3v2.717a1.3 1.3 0 0 1-1.3 1.3h-2.716a1.3 1.3 0 0 1-1.3-1.3V7.224Zm1.3 0h2.716v2.717h-2.716V7.224Z" clip-rule="evenodd"/><path fill="#717681" d="M13.418 12.717a.65.65 0 0 1 .65.65v.979a.65.65 0 1 1-1.3 0v-.98a.65.65 0 0 1 .65-.65Z"/></svg>