<svg xmlns="http://www.w3.org/2000/svg" fill="none" viewBox="0 0 24 24" focusable="false"><defs><clipPath id="QR_Code_Outline_svg__a"><path fill="#fff" fill-opacity="0" d="M-.991 0h24v24h-24z"/></clipPath></defs><g clip-path="url(#QR_Code_Outline_svg__a)"><path fill="#717681" fill-rule="evenodd" d="M4 2h.8c.36 0 .65.29.65.65 0 .35-.29.64-.65.64H4c-.94 0-1.7.77-1.7 1.71v.69c0 .35-.29.65-.65.65S1 6.04 1 5.69V5c0-1.66 1.35-3 3-3m17 3.69c0 .35-.29.65-.65.65-.35 0-.65-.3-.65-.65V5c0-.94-.76-1.71-1.7-1.71h-.58c-.36 0-.65-.29-.65-.64 0-.36.29-.65.65-.65H18c1.66 0 3 1.34 3 3zM4.93 7.22c0-.72.58-1.3 1.3-1.3h2.71c.72 0 1.3.58 1.3 1.3v2.72c0 .71-.58 1.3-1.3 1.3H6.23c-.72 0-1.3-.59-1.3-1.3zm6.83 0c0-.72.59-1.3 1.3-1.3h2.72c.72 0 1.3.58 1.3 1.3v2.72c0 .71-.58 1.3-1.3 1.3h-2.72c-.71 0-1.3-.59-1.3-1.3zm-2.82 0H6.23v2.72h2.71zm6.84 0h-2.72v2.72h2.72zm-3.37 5.49c.36 0 .65.29.65.65v.98c0 .36-.29.65-.65.65s-.65-.29-.65-.65v-.98c0-.36.29-.65.65-.65m-7.48 1.34c0-.71.58-1.3 1.3-1.3h2.71c.72 0 1.3.59 1.3 1.3v2.72c0 .72-.58 1.3-1.3 1.3H6.23c-.72 0-1.3-.58-1.3-1.3zm10.85 4.22h-2.2c-.36 0-.65-.29-.65-.65s.29-.65.65-.65h2.2V14.6c0-.36.29-.65.65-.65s.65.29.65.65v2.37c0 .72-.58 1.3-1.3 1.3m-6.84-4.22H6.23v2.72h2.71zM1 18.3c0-.36.29-.65.65-.65s.65.29.65.65v.7c0 .93.76 1.7 1.7 1.7h.8c.36 0 .65.29.65.65 0 .35-.29.65-.65.65H4c-1.65 0-3-1.35-3-3zm18.7 0c0-.36.3-.65.65-.65.36 0 .65.29.65.65v.7c0 1.65-1.34 3-3 3h-.58c-.36 0-.65-.3-.65-.65 0-.36.29-.65.65-.65H18c.94 0 1.7-.77 1.7-1.7z"/></g></svg>