<svg xmlns="http://www.w3.org/2000/svg" fill="none" viewBox="0 0 24 24" focusable="false"><defs><clipPath id="Redo_Outline_svg__a"><path fill="#fff" fill-opacity="0" d="M0 0h24v24H0z"/></clipPath></defs><g clip-path="url(#Redo_Outline_svg__a)"><path fill="#717681" d="M18.8 9.58c.25.26.25.67 0 .92l-3.66 3.66a.64.64 0 0 1-.92 0 .658.658 0 0 1 0-.92l2.55-2.55H8.64c-1.3 0-2.35 1.05-2.35 2.35v.26c0 1.3 1.05 2.35 2.35 2.35h2.7c.36 0 .65.29.65.65 0 .36-.29.65-.65.65h-2.7c-2.02 0-3.65-1.63-3.65-3.65v-.26c0-2.01 1.63-3.65 3.65-3.65h8.13l-2.55-2.55a.658.658 0 0 1 0-.92c.25-.25.67-.25.92 0z"/></g></svg>