<svg xmlns="http://www.w3.org/2000/svg" fill="none" viewBox="0 0 24 24" focusable="false"><defs><clipPath id="Redo_Solid_svg__a"><path fill="#fff" fill-opacity="0" d="M0 0h24v24H0z"/></clipPath></defs><g clip-path="url(#Redo_Solid_svg__a)"><path fill="#74767B" fill-rule="evenodd" d="M3 12c0 4.97 4.02 9 9 9a9 9 0 0 0 9-9c0-4.98-4.03-9-9-9-4.98 0-9 4.02-9 9m11.77-2.61-1.62-1.62a.64.64 0 0 1 0-.92c.25-.25.66-.25.92 0l2.73 2.73c.25.26.25.67 0 .92l-2.73 2.73a.64.64 0 0 1-.92 0 .64.64 0 0 1 0-.92l1.62-1.62h-4.16c-1.3 0-2.35 1.05-2.35 2.35v.26c0 1.3 1.05 2.35 2.35 2.35h1.71c.36 0 .65.29.65.65s-.29.65-.65.65h-1.71c-2.02 0-3.65-1.63-3.65-3.65v-.26c0-2.01 1.63-3.65 3.65-3.65z"/></g></svg>