<svg xmlns="http://www.w3.org/2000/svg" fill="none" viewBox="0 0 24 24" focusable="false"><g fill="#74767B"><path d="M3 12c0-4.98 4.02-9 9-9 4.42 0 8.1 3.19 8.86 7.41.05.32-.2.63-.52.69-.39.08-.71-.2-.79-.59-.69-3.54-3.81-6.22-7.55-6.22-1.9 0-3.63.69-4.97 1.82 1.88 1.88 3.36 3.36 4.74 4.76.25.24.22.65-.02.89-.25.25-.66.27-.9.02-1.41-1.42-2.9-2.91-4.74-4.75A7.68 7.68 0 0 0 4.29 12c0 3.77 2.72 6.91 6.31 7.57.35.06.59.42.54.78-.05.35-.36.57-.71.51C6.21 20.12 3 16.43 3 12"/><path d="M16 17.95a1.73 1.73 0 0 0 0-3.46c-.96 0-1.74.77-1.74 1.73s.78 1.73 1.74 1.73"/><path fill-rule="evenodd" d="M16 12.24c-2.45 0-4.07 2.07-4.79 3.22-.28.46-.28 1.04 0 1.5.72 1.15 2.34 3.22 4.79 3.22 2.44 0 4.07-2.07 4.79-3.22.28-.46.28-1.04 0-1.5-.72-1.15-2.35-3.22-4.79-3.22m-3.69 3.91c.32-.51.82-1.19 1.47-1.73.65-.53 1.39-.88 2.22-.88s1.57.35 2.21.88c.66.54 1.16 1.22 1.47 1.73.01.01.02.03.02.06s-.01.05-.02.06c-.31.51-.81 1.19-1.47 1.73-.64.53-1.38.88-2.21.88s-1.57-.35-2.22-.88c-.65-.54-1.15-1.22-1.47-1.73 0-.01-.01-.03-.01-.06s.01-.05.01-.06"/></g></svg>