<svg xmlns="http://www.w3.org/2000/svg" fill="none" viewBox="0 0 24 24" focusable="false"><defs><clipPath id="Refuse_Solid_svg__a"><path fill="#fff" fill-opacity="0" d="M0 0h24v24H0z"/></clipPath></defs><g clip-path="url(#Refuse_Solid_svg__a)"><path fill="#717681" fill-rule="evenodd" d="M21 12a9 9 0 0 1-9 9c-4.98 0-9-4.03-9-9 0-4.98 4.02-9 9-9 4.97 0 9 4.02 9 9m-3 0c0 3.31-2.69 6-6 6-3.32 0-6-2.69-6-6 0-3.32 2.68-6 6-6 3.31 0 6 2.68 6 6M9.16 8.24l6.59 6.59c.59-.79.95-1.77.95-2.83 0-2.6-2.11-4.71-4.7-4.71-1.07 0-2.05.36-2.84.95M12 16.7c1.06 0 2.04-.36 2.83-.95L8.24 9.16A4.73 4.73 0 0 0 7.29 12c0 2.59 2.11 4.7 4.71 4.7"/></g></svg>