<svg xmlns="http://www.w3.org/2000/svg" fill="none" viewBox="0 0 24 24" focusable="false"><defs><clipPath id="Refuse_Small_Solid_svg__a"><path fill="#fff" fill-opacity="0" d="M24 24H0V0h24z"/></clipPath></defs><g clip-path="url(#Refuse_Small_Solid_svg__a)"><path fill="#717681" fill-rule="evenodd" d="M3 12c0-4.98 4.02-9 9-9 4.97 0 9 4.02 9 9a9 9 0 0 1-9 9c-4.98 0-9-4.03-9-9m7.24-2.68a3.2 3.2 0 0 1 4.02.41 3.2 3.2 0 0 1 .41 4.02zm-1.43-.51a4.52 4.52 0 0 0 0 6.37 4.52 4.52 0 0 0 6.37 0 4.52 4.52 0 0 0 0-6.37 4.52 4.52 0 0 0-6.37 0m.51 1.43a3.2 3.2 0 0 0 .41 4.02 3.2 3.2 0 0 0 4.02.41z"/></g></svg>