<svg xmlns="http://www.w3.org/2000/svg" fill="none" viewBox="0 0 24 24" focusable="false"><path fill="#717681" d="M3 12a9 9 0 0 1 17.86-1.588c.058.322-.196.634-.518.697-.382.076-.71-.207-.784-.59A7.703 7.703 0 0 0 7.036 6.115c1.878 1.878 3.354 3.358 4.742 4.76.243.245.219.646-.025.891-.247.248-.654.272-.9.023a1410 1410 0 0 0-4.737-4.755 7.702 7.702 0 0 0 4.486 12.54c.351.065.596.425.543.778a.6.6 0 0 1-.707.514C6.212 20.125 3 16.438 3 12"/><path fill="#717681" d="M16 17.96a1.734 1.734 0 1 0 0-3.468 1.734 1.734 0 0 0 0 3.468"/><path fill="#717681" fill-rule="evenodd" d="M16.003 12.244c-2.444 0-4.072 2.073-4.788 3.223a1.43 1.43 0 0 0 0 1.495c.716 1.15 2.344 3.223 4.788 3.223s4.073-2.073 4.789-3.223a1.43 1.43 0 0 0 0-1.495c-.716-1.15-2.345-3.223-4.789-3.223m-3.684 3.91c.316-.51.816-1.188 1.47-1.727.647-.534 1.382-.883 2.214-.883s1.568.349 2.215.883c.654.54 1.153 1.218 1.47 1.727a.1.1 0 0 1 .015.06.1.1 0 0 1-.015.06c-.317.51-.816 1.188-1.47 1.728-.647.534-1.382.882-2.215.882-.832 0-1.567-.348-2.215-.882-.653-.54-1.153-1.218-1.47-1.727a.1.1 0 0 1-.015-.06c0-.028.008-.05.015-.061" clip-rule="evenodd"/></svg>