<svg xmlns="http://www.w3.org/2000/svg" fill="none" viewBox="0 0 24 24" focusable="false"><defs><clipPath id="Refuse_Small_Outline_svg__a"><path fill="#fff" fill-opacity="0" d="M0 0h24v24H0z"/></clipPath></defs><g clip-path="url(#Refuse_Small_Outline_svg__a)"><path fill="#717681" fill-rule="evenodd" d="M8.81 8.81a4.52 4.52 0 0 0 0 6.37 4.52 4.52 0 0 0 6.37 0 4.52 4.52 0 0 0 0-6.37 4.52 4.52 0 0 0-6.37 0m5.45.92a3.2 3.2 0 0 0-4.02-.41l4.43 4.43a3.2 3.2 0 0 0-.41-4.02m-4.53 4.53a3.2 3.2 0 0 1-.41-4.02l4.43 4.43a3.2 3.2 0 0 1-4.02-.41"/></g></svg>