<svg xmlns="http://www.w3.org/2000/svg" fill="none" viewBox="0 0 24 24" focusable="false"><path fill="#717681" fill-rule="evenodd" d="M12 4.3c0-.72.58-1.31 1.29-1.21 3.93.56 7.05 3.68 7.61 7.61.1.71-.49 1.3-1.2 1.3h-6.41c-.71 0-1.29-.59-1.29-1.3zm7.94 9.7c.43 0 .74.39.61.8C19.37 18.39 15.99 21 12 21c-4.98 0-9-4.03-9-9 0-4 2.6-7.38 6.19-8.56.41-.13.81.18.81.61 0 .3-.21.56-.49.66A7.7 7.7 0 0 0 4.29 12c0 4.25 3.45 7.7 7.71 7.7 3.38 0 6.25-2.19 7.28-5.22.1-.28.36-.48.66-.48m-6.65-9.6v6.3h6.3a7.74 7.74 0 0 0-6.3-6.3"/></svg>