<svg xmlns="http://www.w3.org/2000/svg" fill="none" viewBox="0 0 24 24" focusable="false"><defs><clipPath id="Report_Solid_svg__a"><path fill="#fff" fill-opacity="0" d="M0 0h24v24H0z"/></clipPath></defs><g clip-path="url(#Report_Solid_svg__a)"><path fill="#717681" fill-rule="evenodd" d="M12 4.3c0-.72.58-1.31 1.29-1.21 3.93.56 7.05 3.68 7.61 7.61.1.71-.49 1.3-1.2 1.3h-6.41c-.71 0-1.29-.59-1.29-1.3zm-2.77-.93c.76-.24 1.47.37 1.47 1.16V12c0 .71.58 1.3 1.3 1.3h7.38c.8 0 1.41.71 1.16 1.46A8.99 8.99 0 0 1 12 20.94c-4.98 0-9-4.03-9-9a9 9 0 0 1 6.23-8.57"/></g></svg>