<svg xmlns="http://www.w3.org/2000/svg" fill="none" viewBox="0 0 24 24" focusable="false"><defs><clipPath id="Save_Outline_svg__a"><path fill="#fff" fill-opacity="0" d="M0 0h24v24H0z"/></clipPath></defs><g clip-path="url(#Save_Outline_svg__a)"><path fill="#74767B" fill-rule="evenodd" d="M7.77 20H17c1.65 0 3-1.35 3-3v-6.76c0-.8-.32-1.56-.88-2.12l-3.25-3.25c-.56-.56-1.32-.87-2.12-.87H6.99C5.33 4 4 5.34 4 7v10c0 1.65 1.34 3 3 3h.53c.04 0 .08.01.12.01s.08-.01.12-.01m9.24-1.3v-5c0-.75-.61-1.35-1.35-1.35H8.35c-.75 0-1.35.6-1.35 1.35v5c-.94 0-1.71-.77-1.71-1.7V7c0-.94.76-1.7 1.7-1.7v2.99c0 .75.6 1.35 1.35 1.35h4.3c.75 0 1.35-.6 1.35-1.35V5.31c.37.05.7.22.96.48l3.25 3.25c.32.31.5.75.5 1.2V17c0 .93-.76 1.69-1.69 1.7m-1.3 0v-5c0-.03-.03-.05-.05-.05H8.35c-.03 0-.05.02-.05.05v5zM12.69 8.29v-3h-4.4v3c0 .03.02.05.05.05h4.3c.03 0 .05-.02.05-.05"/></g></svg>