<svg xmlns="http://www.w3.org/2000/svg" fill="none" viewBox="0 0 24 24" focusable="false"><path fill="#717681" fill-rule="evenodd" d="M7.777 20H17a3 3 0 0 0 3-3v-6.757a3 3 0 0 0-.879-2.122L15.88 4.88A3 3 0 0 0 13.757 4H6.993A3 3 0 0 0 4 7v10a3 3 0 0 0 3 3h.532a.65.65 0 0 0 .245 0Zm9.233-1.3v-5a1.35 1.35 0 0 0-1.35-1.35H8.354a1.35 1.35 0 0 0-1.35 1.35v5H7A1.7 1.7 0 0 1 5.3 17V7a1.7 1.7 0 0 1 1.693-1.7v3c0 .746.604 1.35 1.35 1.35h4.305a1.35 1.35 0 0 0 1.35-1.35V5.317c.362.052.7.22.961.48l3.243 3.244a1.7 1.7 0 0 1 .498 1.202V17a1.7 1.7 0 0 1-1.69 1.7Zm-1.3 0v-5a.05.05 0 0 0-.05-.05H8.354a.05.05 0 0 0-.05.05v5h7.406ZM12.698 8.3v-3H8.293v3c0 .028.022.05.05.05h4.305a.05.05 0 0 0 .05-.05Z" clip-rule="evenodd"/></svg>