<svg xmlns="http://www.w3.org/2000/svg" fill="none" viewBox="0 0 24 24" focusable="false"><path d="M0 0H24V24H0z"/><path fill="#74767B" fill-rule="evenodd" d="M12 3C7.02944 3 3 7.02944 3 12C3 16.9706 7.02944 21 12 21C16.9706 21 21 16.9706 21 12C21 7.02944 16.9706 3 12 3ZM11.5 7C9.01214 7 7 9.01214 7 11.5C7 13.9879 9.01214 16 11.5 16C12.5092 16 13.44 15.6689 14.1901 15.1093L16.0404 16.9596C16.2942 17.2135 16.7058 17.2135 16.9596 16.9596C17.2135 16.7058 17.2135 16.2942 16.9596 16.0404L15.1093 14.1901C15.6689 13.44 16 12.5092 16 11.5C16 9.01214 13.9879 7 11.5 7ZM8.3 11.5C8.3 9.73011 9.73011 8.3 11.5 8.3C13.2699 8.3 14.7 9.73011 14.7 11.5C14.7 13.2699 13.2699 14.7 11.5 14.7C9.73011 14.7 8.3 13.2699 8.3 11.5Z"/></svg>