<svg xmlns="http://www.w3.org/2000/svg" fill="none" viewBox="0 0 24 24" focusable="false"><defs><clipPath id="Search_Solid_svg__a"><path fill="#fff" fill-opacity="0" d="M0 0h24v24H0z"/></clipPath></defs><g clip-path="url(#Search_Solid_svg__a)"><path fill="#717681" fill-rule="evenodd" d="M12 3c-4.98 0-9 4.02-9 9 0 4.97 4.02 9 9 9a9 9 0 0 0 9-9c0-4.98-4.03-9-9-9m-.5 4a4.5 4.5 0 0 0 0 9c1 0 1.93-.34 2.68-.9l1.86 1.85c.25.26.66.26.91 0 .26-.25.26-.66 0-.91l-1.85-1.85c.56-.75.9-1.69.9-2.69A4.5 4.5 0 0 0 11.5 7m-3.21 4.5a3.205 3.205 0 1 1 6.41-.01 3.205 3.205 0 0 1-6.41.01"/></g></svg>