<svg xmlns="http://www.w3.org/2000/svg" fill="none" viewBox="0 0 24 24" focusable="false"><defs><clipPath id="Server_Solid_svg__a"><path fill="#fff" fill-opacity="0" d="M0 0h24v24H0z"/></clipPath></defs><g clip-path="url(#Server_Solid_svg__a)"><path fill="#74767B" fill-rule="evenodd" d="M19.99 6c0-1.66-1.35-3-3-3H7C5.34 3 4 4.34 4 6v5.35h15.99zm0 6.64H4V18c0 1.65 1.34 3 3 3h9.99c1.65 0 3-1.35 3-3zM9 7c-.56 0-1 .44-1 1 0 .55.44 1 1 1 .55 0 1-.45 1-1 0-.56-.45-1-1-1m-1 9c0-.56.44-1 1-1 .55 0 1 .44 1 1 0 .55-.45 1-1 1-.56 0-1-.45-1-1"/></g></svg>