<svg xmlns="http://www.w3.org/2000/svg" fill="none" viewBox="0 0 24 24" focusable="false"><defs><clipPath id="Server_Outline_svg__a"><path fill="#fff" fill-opacity="0" d="M0 0h24v24H0z"/></clipPath></defs><g clip-path="url(#Server_Outline_svg__a)"><path fill="#74767B" fill-rule="evenodd" d="M16.99 3c1.65 0 3 1.34 3 3v12c0 1.65-1.35 3-3 3H7c-1.66 0-3-1.35-3-3V6c0-1.66 1.34-3 3-3zM7 4.29h9.99c.94 0 1.7.77 1.7 1.71v5.35H5.29V6c0-.94.77-1.71 1.71-1.71M8 8c0-.56.44-1 1-1 .55 0 1 .44 1 1 0 .55-.45 1-1 1-.56 0-1-.45-1-1m-2.71 4.64h13.4V18c0 .93-.76 1.7-1.7 1.7H7c-.94 0-1.71-.77-1.71-1.7zM9 15c-.56 0-1 .44-1 1 0 .55.44 1 1 1 .55 0 1-.45 1-1 0-.56-.45-1-1-1"/></g></svg>