<svg xmlns="http://www.w3.org/2000/svg" fill="none" viewBox="0 0 24 24" focusable="false"><defs><clipPath id="Sharing_Outline_svg__a"><path fill="#fff" fill-opacity="0" d="M0 0h24v24H0z"/></clipPath></defs><g clip-path="url(#Sharing_Outline_svg__a)"><path fill="#74767B" fill-rule="evenodd" d="M6.21 9.61c0 .18.08.35.21.48.27.24.68.22.92-.04l4.01-3.83v9.99c0 .36.29.65.65.65s.65-.29.65-.65V6.28l3.64 3.85c.25.27.65.28.92.04a.64.64 0 0 0 .04-.92l-4.73-5.02a.7.7 0 0 0-1.04 0l-5.1 4.94c-.11.13-.17.28-.17.44m-1.56 4.37c.36 0 .65.3.65.65v1.87c0 1.29 1.05 2.35 2.35 2.35h8.69c1.3 0 2.35-1.06 2.35-2.35v-1.87c0-.35.29-.65.65-.65s.65.3.65.65v1.87c0 2.01-1.64 3.65-3.65 3.65H7.65C5.64 20.15 4 18.51 4 16.5v-1.87c0-.35.29-.65.65-.65"/></g></svg>