<svg xmlns="http://www.w3.org/2000/svg" fill="none" viewBox="0 0 24 24" focusable="false"><path fill="#717681" d="M6.43 10.09a.65.65 0 0 1-.21-.48c0-.16.05-.31.17-.44l5.092-4.937c.28-.31.76-.31 1.04 0L17.26 9.25c.24.27.22.68-.04.92a.65.65 0 0 1-.92-.04l-3.648-3.843v9.926a.65.65 0 1 1-1.3 0v-9.99L7.35 10.05c-.24.26-.65.28-.92.04"/><path fill="#717681" d="M5.306 14.64a.65.65 0 0 0-1.3 0v1.86a3.65 3.65 0 0 0 3.65 3.65h8.688a3.65 3.65 0 0 0 3.65-3.65v-1.86a.65.65 0 0 0-1.3 0v1.86a2.35 2.35 0 0 1-2.35 2.35H7.656a2.35 2.35 0 0 1-2.35-2.35z"/></svg>