<svg xmlns="http://www.w3.org/2000/svg" fill="none" viewBox="0 0 24 24" focusable="false"><path fill="#74767B" fill-rule="evenodd" d="M6.42982 10.0903C6.28982 9.96032 6.21982 9.79032 6.21982 9.61032C6.21982 9.45032 6.26982 9.30032 6.38982 9.17032L11.482 4.2325C11.762 3.9225 12.242 3.9225 12.522 4.2325L17.2598 9.25033C17.4998 9.52033 17.4798 9.93033 17.2198 10.1703C16.9498 10.4103 16.5398 10.4003 16.2998 10.1303L12.652 6.28728L12.652 16.2125C12.652 16.5715 12.361 16.8625 12.002 16.8625C11.643 16.8625 11.352 16.5715 11.352 16.2125L11.352 6.22395L7.34982 10.0503C7.10982 10.3103 6.69982 10.3303 6.42982 10.0903ZM4.65635 13.9896C5.01533 13.9896 5.30635 14.2807 5.30635 14.6396L5.30635 16.5C5.30635 17.7979 6.35848 18.85 7.65635 18.85L16.3438 18.85C17.6417 18.85 18.6938 17.7979 18.6938 16.5L18.6938 14.6396C18.6938 14.2807 18.9849 13.9896 19.3438 13.9896C19.7028 13.9896 19.9938 14.2807 19.9938 14.6396L19.9938 16.5C19.9938 18.5158 18.3597 20.15 16.3438 20.15L7.65635 20.15C5.64051 20.15 4.00635 18.5158 4.00635 16.5L4.00635 14.6396C4.00635 14.2807 4.29736 13.9896 4.65635 13.9896Z"/></svg>