<svg xmlns="http://www.w3.org/2000/svg" fill="none" viewBox="0 0 24 24" focusable="false"><path fill="#74767B" fill-rule="evenodd" d="M5.3165 5.12451C3.85295 5.12451 2.6665 6.31095 2.6665 7.77451L2.6665 16.2256C2.6665 17.6892 3.85295 18.8756 5.3165 18.8756L18.4414 18.8756C19.905 18.8756 21.0914 17.6892 21.0914 16.2256L21.0914 7.77451C21.0914 6.31096 19.905 5.12451 18.4414 5.12451L5.3165 5.12451ZM3.9665 7.77451C3.9665 7.02893 4.57092 6.42451 5.3165 6.42451L18.4414 6.42451C19.187 6.42451 19.7914 7.02893 19.7914 7.77451L19.7914 16.2256C19.7914 16.9712 19.187 17.5756 18.4414 17.5756L5.3165 17.5756C4.57092 17.5756 3.9665 16.9712 3.9665 16.2256L3.9665 7.77451ZM11.4193 8.87319C11.6732 8.61935 12.0847 8.61935 12.3386 8.87319L15.0058 11.5404C15.2596 11.7942 15.2596 12.2058 15.0058 12.4596C14.7519 12.7135 14.3404 12.7135 14.0865 12.4596L12.529 10.9021L12.529 14.9631C12.529 15.3221 12.238 15.6131 11.879 15.6131C11.52 15.6131 11.229 15.3221 11.229 14.9631L11.229 10.9021L9.6714 12.4596C9.41756 12.7135 9.006 12.7135 8.75216 12.4596C8.49832 12.2058 8.49832 11.7942 8.75216 11.5404L11.4193 8.87319Z"/></svg>