<svg xmlns="http://www.w3.org/2000/svg" fill="none" viewBox="0 0 24 24" focusable="false"><path fill="#717681" fill-rule="evenodd" d="M5.31 5.12c-1.46 0-2.65 1.19-2.65 2.65v8.45c0 1.46 1.19 2.65 2.65 2.65h13.13c1.46 0 2.65-1.19 2.65-2.65V7.77c0-1.46-1.19-2.65-2.65-2.65zM3.96 7.77c0-.75.61-1.35 1.35-1.35h13.13c.74 0 1.35.6 1.35 1.35v8.45c0 .75-.61 1.35-1.35 1.35H5.31c-.74 0-1.35-.6-1.35-1.35zm8.37 1.1a.64.64 0 0 0-.92 0l-2.66 2.67c-.26.25-.26.66 0 .91.25.26.66.26.92 0l1.55-1.55v4.06c0 .36.3.65.65.65.36 0 .65-.29.65-.65V10.9l1.56 1.55c.26.26.67.26.92 0 .25-.25.25-.66 0-.91z"/></svg>