<svg xmlns="http://www.w3.org/2000/svg" fill="none" viewBox="0 0 24 24" focusable="false"><defs><clipPath id="Show_Solid_svg__a"><path fill="#fff" fill-opacity="0" d="M0 0h24v24H0z"/></clipPath></defs><g clip-path="url(#Show_Solid_svg__a)"><path fill="#74767B" fill-rule="evenodd" d="M2.78 7.77c0-1.46 1.19-2.65 2.65-2.65h13.13c1.46 0 2.65 1.19 2.65 2.65v8.45c0 1.46-1.19 2.65-2.65 2.65H5.43c-1.46 0-2.65-1.19-2.65-2.65zm8.76 1.1c.25-.26.66-.26.91 0l2.67 2.67c.26.25.26.66 0 .91a.64.64 0 0 1-.92 0l-1.56-1.55v4.06c0 .36-.29.65-.64.65-.36 0-.65-.29-.65-.65V10.9l-1.56 1.55a.64.64 0 0 1-.92 0 .63.63 0 0 1 0-.91z"/></g></svg>