<svg xmlns="http://www.w3.org/2000/svg" fill="none" viewBox="0 0 24 24" focusable="false"><path d="M0 0H24V24H0z"/><path fill="#74767B" fill-rule="evenodd" d="M15.9376 19.7L9.0001 19.7C8.06122 19.7 7.3001 18.9389 7.3001 18L7.3001 17.7125C7.3001 17.3535 7.00908 17.0625 6.6501 17.0625C6.29111 17.0625 6.0001 17.3535 6.0001 17.7125L6.0001 18C6.0001 19.6569 7.34325 21 9.0001 21L15.9376 21C17.5945 21 18.9376 19.6569 18.9376 18L18.9376 6C18.9376 4.34315 17.5945 3 15.9376 3L9.0001 3C7.34324 3 6.0001 4.34315 6.0001 6L6.0001 6.35C6.0001 6.70898 6.29111 7 6.6501 7C7.00908 7 7.3001 6.70898 7.3001 6.35L7.3001 6C7.3001 5.06112 8.06121 4.3 9.0001 4.3L15.9376 4.3C16.1613 4.3 16.3749 4.34321 16.5706 4.42174L15.024 5.33303C14.1088 5.87232 13.547 6.85541 13.547 7.9177L13.547 16.041C13.547 17.0921 14.0971 18.0665 14.9971 18.6096L16.5896 19.5705C16.3888 19.6539 16.1686 19.7 15.9376 19.7ZM17.518 5.37238C17.5952 5.56656 17.6376 5.77832 17.6376 6L17.6376 18C17.6376 18.217 17.5969 18.4245 17.5228 18.6153L15.6687 17.4965C15.1587 17.1888 14.847 16.6366 14.847 16.041L14.847 7.9177C14.847 7.31573 15.1653 6.75865 15.684 6.45306L17.518 5.37238ZM7.91186 8.86756C7.64644 8.62585 7.23533 8.64507 6.99362 8.91049C6.75191 9.17591 6.77113 9.58702 7.03655 9.82873L8.66534 11.312L3.70322 11.312C3.34424 11.312 3.05322 11.603 3.05322 11.962C3.05322 12.321 3.34424 12.612 3.70322 12.612L8.60588 12.612L7.06062 14.096C6.8017 14.3446 6.79337 14.7561 7.04202 15.015C7.29068 15.2739 7.70215 15.2823 7.96107 15.0336L10.6691 12.4331C10.7566 12.349 10.8154 12.2464 10.8455 12.1374C10.9546 11.8889 10.8995 11.5883 10.6878 11.3955L7.91186 8.86756Z"/></svg>