<svg xmlns="http://www.w3.org/2000/svg" fill="none" viewBox="0 0 24 24" focusable="false"><defs><clipPath id="Sign_In_Solid_svg__a"><path fill="#fff" fill-opacity="0" d="M0 0h24v24H0z"/></clipPath></defs><g fill="#74767B" fill-rule="evenodd" clip-path="url(#Sign_In_Solid_svg__a)"><path d="M9 19.7h6.93c.23 0 .45-.05.65-.13l-1.59-.97c-.9-.54-1.45-1.51-1.45-2.56V7.91c0-1.06.56-2.04 1.48-2.58l1.55-.91a1.7 1.7 0 0 0-.64-.13H9c-.94 0-1.71.77-1.71 1.71v.34c0 .36-.29.66-.65.66C6.29 7 6 6.7 6 6.34V6c0-1.66 1.34-3 3-3h6.93c1.66 0 3 1.34 3 3v12c0 1.65-1.34 3-3 3H9c-1.66 0-3-1.35-3-3v-.29c0-.36.29-.65.64-.65.36 0 .65.29.65.65V18c0 .93.77 1.7 1.71 1.7M7.9 8.86a.64.64 0 0 0-.91.05c-.25.26-.23.67.04.91l1.63 1.49H3.7c-.36 0-.65.29-.65.65s.29.65.65.65h4.9l-1.55 1.48c-.26.25-.26.66-.02.92.25.26.66.27.92.02l2.71-2.6q.135-.135.18-.3c.11-.25.05-.55-.16-.74z"/><path d="M14.69 18.4a3.02 3.02 0 0 1-1.15-2.36V7.91c0-.9.41-1.75 1.1-2.32.12-.09.24-.18.38-.26l1.55-.91c-.2-.08-.41-.12-.63-.13H9c-.47 0-.9.2-1.21.5-.3.31-.5.74-.5 1.21v.34c0 .36-.29.66-.65.66C6.29 7 6 6.7 6 6.34v-.36c0-.29.04-.58.12-.84.06-.19.13-.38.22-.55.14-.26.32-.5.53-.71v-.01h.01c.21-.21.45-.39.71-.53A3.03 3.03 0 0 1 9 3h6.93a2.9 2.9 0 0 1 1.16.23c.68.28 1.23.81 1.55 1.47.19.39.29.83.29 1.3v12c0 .46-.1.9-.29 1.29-.31.65-.85 1.17-1.52 1.46-.11.05-.23.09-.35.13-.27.07-.55.12-.84.12H9c-.3 0-.59-.05-.87-.13-.19-.06-.37-.13-.54-.22-.26-.14-.5-.32-.71-.52q0-.01-.01-.01 0-.01-.01-.01c-.2-.21-.38-.45-.52-.71A2.941 2.941 0 0 1 6 18.02v-.31c0-.36.29-.65.64-.65.36 0 .65.29.65.65V18c0 .46.2.89.5 1.2.31.3.74.5 1.21.5h6.93c.23 0 .45-.05.65-.13l-1.59-.97c-.1-.06-.21-.13-.3-.2m2.83.21-1.86-1.12q-.19-.11-.34-.27-.15-.15-.26-.35-.11-.19-.16-.4-.06-.21-.06-.43V7.91q0-.22.06-.43.05-.21.17-.41.11-.2.26-.35.15-.16.35-.27l1.83-1.08q.05.11.08.22.04.2.04.41v12q0 .2-.04.4-.03.11-.07.21m-10.28-4.7-.19.18c-.26.25-.26.66-.02.92.25.26.66.27.92.02l2.53-2.42.18-.18q.135-.135.18-.3c.11-.25.05-.55-.16-.74l-.09-.08-2.68-2.45H7.9a.64.64 0 0 0-.91.05c-.25.26-.23.67.04.91l.2.19 1.43 1.3H3.7c-.36 0-.65.29-.65.65s.29.65.65.65h4.9z"/></g></svg>