<svg xmlns="http://www.w3.org/2000/svg" fill="none" viewBox="0 0 24 24" focusable="false"><path fill="#717681" fill-rule="evenodd" d="M15.938 19.7H9A1.7 1.7 0 0 1 7.3 18v-.288a.65.65 0 1 0-1.3 0V18a3 3 0 0 0 3 3h6.938a3 3 0 0 0 3-3V6a3 3 0 0 0-3-3H9a3 3 0 0 0-3 3v.35a.65.65 0 0 0 1.3 0V6A1.7 1.7 0 0 1 9 4.3h6.938c.223 0 .437.043.633.122l-1.547.911a3 3 0 0 0-1.477 2.585v8.123a3 3 0 0 0 1.45 2.569l1.593.96c-.201.084-.421.13-.652.13m1.58-14.328c.077.195.12.406.12.628v12c0 .217-.041.424-.115.615l-1.854-1.118a1.7 1.7 0 0 1-.822-1.456V7.918a1.7 1.7 0 0 1 .837-1.465z" clip-rule="evenodd"/><path fill="#717681" d="M6.994 8.91a.65.65 0 0 1 .918-.042l2.776 2.528a.65.65 0 0 1 .157.741.648.648 0 0 1-.176.296l-2.708 2.6a.65.65 0 1 1-.9-.937l1.545-1.484H3.703a.65.65 0 1 1 0-1.3h4.962L7.037 9.829a.65.65 0 0 1-.043-.919"/></svg>