<svg xmlns="http://www.w3.org/2000/svg" fill="none" viewBox="0 0 24 24" focusable="false"><path fill="#74767B" fill-rule="evenodd" d="M9 19.7h6.93c.23 0 .45-.05.65-.13l-1.59-.97c-.9-.54-1.45-1.51-1.45-2.56V7.91c0-1.06.56-2.04 1.48-2.58l1.55-.91a1.7 1.7 0 0 0-.64-.13H9c-.94 0-1.7.77-1.7 1.71v.34c0 .36-.3.66-.66.66C6.29 7 6 6.7 6 6.34V6c0-1.66 1.34-3 3-3h6.93c1.66 0 3 1.34 3 3v12c0 1.65-1.34 3-3 3H9c-1.66 0-3-1.35-3-3v-.29c0-.36.29-.65.64-.65.36 0 .66.29.66.65V18c0 .93.76 1.7 1.7 1.7M17.63 6q0-.345-.12-.63l-1.83 1.08c-.52.3-.84.86-.84 1.46v8.13c0 .59.31 1.14.82 1.45l1.86 1.12c.07-.19.11-.4.11-.61zM7.91 8.86a.65.65 0 0 0-.92.05c-.24.26-.22.67.04.91l1.63 1.49H3.7c-.36 0-.65.29-.65.65s.29.65.65.65h4.9l-1.54 1.48c-.26.25-.27.66-.02.92s.66.27.92.02l2.7-2.6q.135-.135.18-.3c.11-.25.05-.55-.16-.74z"/></svg>