<svg xmlns="http://www.w3.org/2000/svg" fill="none" viewBox="0 0 24 24" focusable="false"><path fill="#717681" d="M6.04 2.95c-1.65 0-2.99 1.34-2.99 2.99s1.34 2.99 2.99 2.99c1.42 0 2.62-1 2.91-2.34h1.15c1.3 0 2.35 1.05 2.35 2.35v6.12c0 1.3-1.05 2.35-2.35 2.35H8.95a2.98 2.98 0 0 0-2.91-2.33c-1.65 0-2.99 1.33-2.99 2.98s1.34 2.99 2.99 2.99c1.42 0 2.62-1 2.91-2.34h1.15c2.02 0 3.65-1.63 3.65-3.65v-2.4h4.98l-1.52 1.43a.65.65 0 0 0-.03.92c.24.26.65.27.92.03l2.72-2.55c.13-.12.2-.3.2-.48a.65.65 0 0 0-.2-.47L18.1 8.99a.66.66 0 0 0-.92.03.65.65 0 0 0 .03.92l1.52 1.42h-4.98V8.94c0-2.02-1.63-3.65-3.65-3.65H8.95a2.98 2.98 0 0 0-2.91-2.34"/></svg>