<svg xmlns="http://www.w3.org/2000/svg" fill="none" viewBox="0 0 24 24" focusable="false"><path fill="#717681" fill-rule="evenodd" d="M21 15c0 1.36-.92 2.52-2.17 2.88-.05.01-.1.02-.15.04-.21.05-.44.08-.68.08h-4.25a.66.66 0 0 1-.65-.67c0-5.31-4.23-9.62-9.42-9.62-.25 0-.48-.14-.58-.36-.06-.1-.1-.22-.1-.35 0-1.13.62-2.12 1.54-2.63C4.97 4.13 5.47 4 6 4h12c1.57 0 2.86 1.2 2.98 2.74.01.08.01.18.02.26zM3.64 9.3c-.35 0-.64.29-.64.65 0 .35.29.65.64.65 3.72 0 6.72 3 6.72 6.71 0 .36.29.65.65.65s.65-.29.65-.65c0-4.42-3.59-8.01-8.02-8.01M3 12.73c0-.36.29-.65.64-.65 2.9 0 5.24 2.34 5.24 5.23 0 .36-.29.65-.65.65s-.65-.29-.65-.65c0-2.17-1.76-3.93-3.94-3.93-.35 0-.64-.29-.64-.65m1.38 5.22c.76 0 1.37-.61 1.37-1.37s-.61-1.37-1.37-1.37-1.37.61-1.37 1.37.61 1.37 1.37 1.37"/></svg>