<svg xmlns="http://www.w3.org/2000/svg" fill="none" viewBox="0 0 24 24" focusable="false"><path fill="#74767B" fill-rule="evenodd" d="M21 16c0 1.36-.92 2.52-2.17 2.88l-.15.03c-.21.05-.44.09-.68.09h-4.25a.66.66 0 0 1-.65-.67c0-5.31-4.23-9.63-9.42-9.63-.25 0-.48-.13-.58-.35A.7.7 0 0 1 3 8c0-1.13.62-2.12 1.54-2.63C4.97 5.13 5.47 5 6 5h12c1.57 0 2.86 1.2 2.98 2.74.01.08.01.18.02.26zM3.64 10.3c-.35 0-.64.29-.64.65 0 .35.29.65.64.65 3.72 0 6.72 3 6.72 6.71 0 .36.29.65.65.65s.65-.29.65-.65c0-4.42-3.59-8.01-8.02-8.01M3 13.73c0-.36.29-.65.64-.65 2.9 0 5.24 2.34 5.24 5.23 0 .36-.29.65-.65.65s-.65-.29-.65-.65c0-2.17-1.76-3.93-3.94-3.93-.35 0-.64-.29-.64-.65m1.38 5.22c.76 0 1.37-.61 1.37-1.37s-.61-1.37-1.37-1.37-1.37.61-1.37 1.37.61 1.37 1.37 1.37"/></svg>