<svg xmlns="http://www.w3.org/2000/svg" fill="none" viewBox="0 0 24 24" focusable="false"><path fill="#717681" fill-rule="evenodd" d="M21 7c0-1.66-1.35-3-3-3H6C4.34 4 3 5.34 3 7v.35c0 .35.29.65.64.65.36 0 .65-.3.65-.65V7c0-.94.77-1.7 1.71-1.7h12c.93 0 1.7.76 1.7 1.7v8c0 .93-.77 1.7-1.7 1.7h-4.65c-.36 0-.65.29-.65.65 0 .35.29.65.65.65H18c1.65 0 3-1.35 3-3zM3.64 9.29a.655.655 0 0 0 0 1.31c3.72 0 6.72 3 6.72 6.71 0 .36.29.65.65.65s.65-.29.65-.65c0-4.42-3.59-8.02-8.02-8.02M3 12.73c0-.36.29-.65.64-.65 2.9 0 5.24 2.34 5.24 5.23 0 .36-.29.65-.65.65s-.65-.29-.65-.65c0-2.17-1.76-3.93-3.94-3.93-.35 0-.64-.29-.64-.65m1.38 5.22c.76 0 1.37-.61 1.37-1.37s-.61-1.37-1.37-1.37-1.37.61-1.37 1.37.61 1.37 1.37 1.37"/></svg>