<svg xmlns="http://www.w3.org/2000/svg" fill="none" viewBox="0 0 24 24" focusable="false"><defs><clipPath id="Streaming_Outline_svg__a"><path fill="#fff" fill-opacity="0" d="M0 0h24v24H0z"/></clipPath></defs><g clip-path="url(#Streaming_Outline_svg__a)"><path fill="#74767B" fill-rule="evenodd" d="M21 8c0-1.66-1.35-3-3-3H6C4.34 5 3 6.34 3 8v.35c0 .35.29.65.64.65.36 0 .65-.3.65-.65V8c0-.94.77-1.7 1.71-1.7h12c.93 0 1.7.76 1.7 1.7v8c0 .93-.77 1.7-1.7 1.7h-4.65c-.36 0-.65.29-.65.65 0 .35.29.65.65.65H18c1.65 0 3-1.35 3-3zM3.64 10.29c-.35 0-.64.3-.64.65 0 .36.29.65.64.65 3.72 0 6.72 3.01 6.72 6.72 0 .36.29.65.65.65s.65-.29.65-.65a8.02 8.02 0 0 0-8.02-8.02M3 13.73c0-.36.29-.65.64-.65 2.9 0 5.24 2.34 5.24 5.23 0 .36-.29.65-.65.65s-.65-.29-.65-.65c0-2.17-1.76-3.93-3.94-3.93-.35 0-.64-.29-.64-.65m1.38 5.22c.76 0 1.37-.61 1.37-1.37s-.61-1.37-1.37-1.37-1.37.61-1.37 1.37.61 1.37 1.37 1.37"/></g></svg>