<svg xmlns="http://www.w3.org/2000/svg" fill="none" viewBox="0 0 24 24" focusable="false"><defs><clipPath id="Switch_Pinned_Areas_Solid_svg__a"><path fill="#fff" fill-opacity="0" d="M0 0h24v24H0z"/></clipPath></defs><g fill="#717681" fill-rule="evenodd" clip-path="url(#Switch_Pinned_Areas_Solid_svg__a)"><path d="M7 4C5.34 4 4 5.34 4 7v10c0 1.65 1.34 3 3 3h10c1.65 0 3-1.35 3-3V7c0-1.66-1.35-3-3-3zm-.26 10.03 1.8 1.79c.25.26.66.26.91 0l1.8-1.79a.64.64 0 0 0 0-.92.64.64 0 0 0-.92 0l-.69.68V12c0-1.3 1.06-2.35 2.36-2.35h1.79l-.68.68a.64.64 0 0 0 0 .92c.25.26.66.26.92 0l1.79-1.8c.26-.25.26-.66 0-.91l-1.79-1.8a.64.64 0 0 0-.92 0 .64.64 0 0 0 0 .92l.68.68H12c-2.02 0-3.65 1.64-3.65 3.66v1.79l-.69-.68a.64.64 0 0 0-.92 0 .64.64 0 0 0 0 .92M6.35 18c0-.36.29-.65.65-.65h9c.35 0 .64.29.64.65 0 .35-.29.65-.64.65H7c-.36 0-.65-.3-.65-.65M18.64 7c0-.36-.29-.66-.64-.66-.36 0-.65.3-.65.66v9c0 .35.29.65.65.65.35 0 .64-.3.64-.65z"/><path d="M7 4C5.34 4 4 5.34 4 7v10c0 1.65 1.34 3 3 3h10c1.65 0 3-1.35 3-3V7c0-1.66-1.35-3-3-3zm11.44 13.89q-.02.01-.04.01-.2.05-.4.05-.03 0-.06-.01.01.03.01.06 0 .2-.05.4 0 .02-.01.04.01-.01.02-.01.16-.1.29-.23.13-.13.23-.29 0-.01.01-.02M5.3 17.04q.03-.07.07-.13.11-.16.25-.29.13-.14.29-.25.15-.1.33-.17.17-.08.35-.11.16-.04.33-.04l-1.1-1.1q-.15-.15-.26-.32-.1-.15-.17-.33-.06-.15-.1-.31V17q0 .02.01.04m-.01-3.9V7q0-.21.05-.41.03-.13.09-.26t.13-.25q.1-.16.23-.29.13-.13.29-.23.12-.07.25-.13t.26-.09q.2-.05.41-.05h6.14q-.16.04-.31.1-.17.07-.33.17-.17.11-.31.26-.15.14-.26.31-.1.16-.17.33-.07.18-.11.36-.02.12-.03.24-.35.02-.69.1-.44.1-.86.27-.43.18-.8.43-.42.28-.77.63-.36.36-.64.78-.25.37-.43.8-.17.42-.27.86-.08.34-.1.69-.12.01-.24.03-.18.04-.36.11-.17.07-.33.17-.17.11-.31.26-.15.14-.26.31-.1.16-.17.33-.06.15-.1.31m3.06-1.15v1.8l-.69-.68c-.17-.17-.4-.23-.62-.17-.11.02-.21.08-.3.17a.64.64 0 0 0 0 .92l1.8 1.79c.25.26.66.26.91 0l.19-.19 1.61-1.6a.64.64 0 0 0 0-.92.573.573 0 0 0-.3-.17.63.63 0 0 0-.62.17l-.69.68v-1.8c.01-.65.27-1.23.69-1.66a2.36 2.36 0 0 1 1.66-.68h1.8l-.68.68c-.17.17-.23.4-.18.62.03.11.09.21.18.3.25.26.66.26.92 0l1.6-1.6.19-.2c.26-.25.26-.66 0-.91l-.19-.2-1.6-1.6a.64.64 0 0 0-.92 0c-.09.09-.15.19-.18.3-.05.22.01.45.18.62l.68.68h-1.8l-.01.01c-.37 0-.73.05-1.08.16-.2.06-.4.15-.58.24-.34.18-.64.4-.9.66h-.01v.01c-.26.26-.48.56-.66.9-.09.18-.18.38-.24.58-.11.35-.16.71-.16 1.08zm7.69-.92-1.09 1.1q-.15.15-.32.26-.15.1-.33.17-.17.07-.35.1-.19.04-.38.04-.2 0-.39-.04-.17-.03-.35-.1-.17-.07-.33-.17-.17-.11-.31-.26-.15-.14-.26-.31-.1-.16-.17-.33-.07-.18-.11-.36l-.02-.16-.04.02q-.08.03-.16.08-.09.06-.18.14-.08.09-.14.18-.05.08-.08.16l-.02.04.16.02q.18.04.36.11.17.07.33.17.17.11.31.26.15.14.26.31.1.16.17.33.07.18.11.36.03.18.03.38 0 .19-.03.38-.04.18-.11.35-.07.18-.17.33-.11.17-.26.32l-1.1 1.09H16q.02 0 .05.01-.01-.03-.01-.05zm.01-4.15q0-.17.04-.33.03-.18.11-.35.07-.18.17-.33.11-.16.25-.29.13-.14.29-.25.06-.04.13-.07-.02-.01-.04-.01h-3.01q.16.04.31.1.18.07.33.17.17.11.32.26zm2.59.08c0-.36-.29-.66-.64-.66-.36 0-.65.3-.65.66v9c0 .35.29.65.65.65.35 0 .64-.3.64-.65zm-2.65 10.35H7c-.36 0-.65.29-.65.65 0 .35.29.65.65.65h9c.35 0 .64-.3.64-.65 0-.36-.29-.65-.64-.65z"/></g></svg>