<svg xmlns="http://www.w3.org/2000/svg" fill="none" viewBox="0 0 24 24" focusable="false"><path fill="#717681" d="m13.136 11.257 1.797-1.797a.65.65 0 0 0 0-.92l-1.797-1.797a.65.65 0 1 0-.92.92l.688.687H12A3.65 3.65 0 0 0 8.35 12v.825l-.687-.687a.65.65 0 1 0-.92.92l1.797 1.796a.65.65 0 0 0 .92 0l1.797-1.797a.65.65 0 0 0-.92-.92l-.687.688V12A2.35 2.35 0 0 1 12 9.65h.904l-.688.687a.65.65 0 1 0 .92.92ZM6.35 17a.65.65 0 0 1 .65-.65h8a.65.65 0 1 1 0 1.3H7a.65.65 0 0 1-.65-.65ZM17.65 7a.65.65 0 1 0-1.3 0v8a.65.65 0 1 0 1.3 0V7Z"/><path fill="#717681" fill-rule="evenodd" d="M4 7a3 3 0 0 1 3-3h10a3 3 0 0 1 3 3v10a3 3 0 0 1-3 3H7a3 3 0 0 1-3-3V7Zm3-1.7h10A1.7 1.7 0 0 1 18.7 7v10a1.7 1.7 0 0 1-1.7 1.7H7A1.7 1.7 0 0 1 5.3 17V7A1.7 1.7 0 0 1 7 5.3Z" clip-rule="evenodd"/></svg>