<svg xmlns="http://www.w3.org/2000/svg" fill="none" viewBox="0 0 24 24" focusable="false"><defs><clipPath id="Sync_Permit_Outline_svg__a"><path fill="#fff" fill-opacity="0" d="M0 0h24v24H0z"/></clipPath></defs><g clip-path="url(#Sync_Permit_Outline_svg__a)"><path fill="#74767B" fill-rule="evenodd" d="M13.17 8.24a.64.64 0 0 1-.2-.48c.01-.36.3-.64.66-.64l2.15-.02.01-.01A6.2 6.2 0 0 0 12 5.8c-3.43 0-6.21 2.77-6.21 6.2q0 .27.03.54c.03.34-.17.66-.49.75-.37.11-.75-.12-.79-.5-.03-.26-.04-.53-.04-.79 0-4.15 3.35-7.5 7.5-7.5 1.76 0 3.38.6 4.66 1.62l-.18-2.03c-.04-.36.24-.67.6-.7.35-.03.66.24.69.6l.29 3.65a.69.69 0 0 1-.71.76l-3.74.02c-.18 0-.32-.07-.44-.18m2.8 7.72c.28.28.74.27 1.01-.02l3.52-3.58c.24-.27.22-.68-.04-.92a.65.65 0 0 0-.92.04l-3.09 3.12-1.6-1.49a.66.66 0 0 0-.92 0c-.25.25-.25.67 0 .92zm-5.68-.67c.13.12.2.29.2.48-.01.36-.3.65-.66.64l-2.15.02-.01.01A6.18 6.18 0 0 0 12 18.2q.525 0 1.02-.09c.36-.06.7.06.79.41s-.09.78-.43.85A7.451 7.451 0 0 1 6.8 17.4l.18 2.05c.04.36-.24.66-.6.69a.647.647 0 0 1-.69-.6l-.29-3.65a.69.69 0 0 1 .71-.76l3.74-.02c.18 0 .32.07.44.18"/></g></svg>