<svg xmlns="http://www.w3.org/2000/svg" fill="none" viewBox="0 0 24 24" focusable="false"><defs><clipPath id="Third_Person_Solid_svg__a"><path fill="#fff" fill-opacity="0" d="M0 0h24v24H0z"/></clipPath></defs><g clip-path="url(#Third_Person_Solid_svg__a)"><path fill="#74767B" fill-rule="evenodd" d="M7.56 7.96C7.26 5.32 9.33 3 12 3a4.46 4.46 0 0 1 4.43 4.96l-.26 2.31A4.206 4.206 0 0 1 12 14c-2.14 0-3.94-1.61-4.18-3.73zm10.95 12.91c.77-.32 1.28-1.04 1.28-1.87 0-.71-.27-1.27-.71-1.66.13-.15.24-.31.32-.49.31-.67.29-1.5-.15-2.14-.42-.59-1-.91-1.65-.95-.63-.04-1.26.18-1.82.53-.31.2-.4.6-.21.9.2.3.6.4.9.2.41-.26.77-.35 1.05-.33.25.01.47.12.66.39.15.22.18.55.04.84-.12.26-.37.47-.79.47h-.56c-.36 0-.65.3-.65.65 0 .36.29.65.65.65h.56c.31 0 .58.09.76.24.16.12.3.33.3.7 0 .27-.17.53-.48.67-.32.13-.85.15-1.55-.27a.64.64 0 0 0-.89.22.64.64 0 0 0 .22.89c.97.58 1.94.68 2.72.36M12.99 15c.72 0 1.3.58 1.3 1.29v3.41c0 .71-.58 1.3-1.3 1.3H4.87c-.45 0-.78-.42-.69-.86l.1-.45A6 6 0 0 1 10.14 15z"/></g></svg>