<svg xmlns="http://www.w3.org/2000/svg" fill="none" viewBox="0 0 24 24" focusable="false"><path fill="#74767B" fill-rule="evenodd" d="M3.3922 4.96802C3.09129 2.32002 5.16261 0 7.82765 0C10.4927 0 12.564 2.32002 12.2631 4.96803L12.0011 7.27398C11.7599 9.39657 9.9639 11 7.82765 11C5.69141 11 3.89544 9.39656 3.65424 7.27398L3.3922 4.96802ZM13.3277 19C15.8129 19 17.8277 16.9853 17.8277 14.5C17.8277 12.0147 15.8129 9.99998 13.3277 9.99998C10.8424 9.99998 8.82766 12.0147 8.82766 14.5C8.82766 16.9853 10.8424 19 13.3277 19ZM13.1914 17.354C13.3714 17.354 13.5414 17.284 13.6714 17.144C13.9114 16.874 13.8914 16.464 13.6314 16.224L12.436 15.0766L15.8144 15.0766C16.1734 15.0766 16.4644 14.7856 16.4644 14.4266C16.4644 14.0676 16.1734 13.7766 15.8144 13.7766L12.4431 13.7766L13.6314 12.6393C13.9014 12.3993 13.9114 11.9893 13.6714 11.7193C13.4314 11.4593 13.0214 11.4393 12.7514 11.6793L10.4037 13.9066C10.0937 14.1866 10.0937 14.6666 10.4037 14.9466L12.7514 17.184C12.8814 17.304 13.0314 17.354 13.1914 17.354ZM7.71245 13.042C7.84155 12.5434 7.49679 12 6.98174 12L5.97402 12C3.16182 12 0.726944 13.9532 0.116894 16.6984L0.0169532 17.1481C-0.0801933 17.5853 0.25246 18 0.700284 18L7.29348 18C7.87193 18 8.22342 17.317 7.99529 16.7854C7.69432 16.0841 7.52765 15.3115 7.52765 14.5C7.52765 13.9964 7.59183 13.5078 7.71245 13.042Z" transform="matrix(-1 0 0 1 19.828 3)"/></svg>