<svg xmlns="http://www.w3.org/2000/svg" fill="none" viewBox="0 0 24 24" focusable="false"><defs><clipPath id="To_Customer_Outline_svg__a"><path fill="#fff" fill-opacity="0" d="M0 0h24v24H0z"/></clipPath></defs><g clip-path="url(#To_Customer_Outline_svg__a)"><path fill="#717681" fill-rule="evenodd" d="M12 3a4.46 4.46 0 0 1 4.43 4.96l-.26 2.31A4.206 4.206 0 0 1 12 14c-2.14 0-3.94-1.61-4.18-3.73l-.26-2.31C7.26 5.32 9.33 3 12 3m-2.89 7.12-.26-2.3A3.176 3.176 0 0 1 12 4.29c1.88 0 3.35 1.65 3.14 3.53l-.26 2.3A2.91 2.91 0 0 1 12 12.7a2.91 2.91 0 0 1-2.89-2.58M3.37 17.9c.01-.34.29-.6.63-.6h3.46l-1.45-1.33a.62.62 0 0 1-.01-.89c.24-.24.63-.25.88-.01l2.53 2.46c.29.28.27.74-.03 1l-2.7 2.38c-.13.11-.27.16-.43.15a.63.63 0 0 1-.45-.22.63.63 0 0 1 .07-.88l1.55-1.41s-1.79.01-3.43 0a.63.63 0 0 1-.62-.65m16.34 1.79A6 6 0 0 0 13.85 15h-2.51c-.36 0-.65.29-.65.65 0 .35.29.64.65.64h2.51c2.1 0 3.94 1.4 4.52 3.41h-7.03c-.36 0-.65.29-.65.65 0 .35.29.65.65.65h7.78c.45 0 .78-.42.69-.86z"/></g></svg>