<svg xmlns="http://www.w3.org/2000/svg" fill="none" viewBox="0 0 24 24" focusable="false"><defs><clipPath id="To_Customer_Solid_svg__a"><path fill="#fff" fill-opacity="0" d="M0 0h24v24H0z"/></clipPath></defs><g clip-path="url(#To_Customer_Solid_svg__a)"><path fill="#74767B" fill-rule="evenodd" d="M12 3a4.46 4.46 0 0 1 4.43 4.96l-.26 2.31A4.206 4.206 0 0 1 12 14c-2.14 0-3.94-1.61-4.18-3.73l-.26-2.31C7.26 5.32 9.33 3 12 3M6.5 22a4.5 4.5 0 1 1 4.5-4.5c0 2.48-2.02 4.5-4.5 4.5m.13-1.65c-.18 0-.35-.07-.48-.21a.66.66 0 0 1 .04-.92l1.2-1.15H4.01c-.36 0-.65-.29-.65-.65s.29-.65.65-.65h3.37l-1.19-1.14a.65.65 0 0 1-.04-.92c.24-.26.65-.28.92-.04l2.35 2.23c.31.28.31.76 0 1.04l-2.35 2.24c-.13.12-.28.17-.44.17m5.48-4.31c-.13-.5.22-1.04.73-1.04h1.01c2.81 0 5.25 1.95 5.86 4.69l.1.45c.09.44-.24.86-.69.86h-6.59c-.58 0-.93-.69-.7-1.22.3-.7.46-1.47.46-2.28 0-.51-.06-1-.18-1.46"/></g></svg>