<svg xmlns="http://www.w3.org/2000/svg" fill="none" viewBox="0 0 24 24" focusable="false"><path fill="#717681" d="M3.377 17.906a.63.63 0 0 1 .629-.604l3.455.006-1.45-1.337a.624.624 0 0 1-.008-.886.633.633 0 0 1 .886-.007l2.528 2.455a.67.67 0 0 1-.035 1l-2.694 2.383a.6.6 0 0 1-.429.149.62.62 0 0 1-.454-.219.633.633 0 0 1 .07-.883l1.548-1.405s-1.784.01-3.425-.001a.626.626 0 0 1-.621-.65"/><path fill="#717681" fill-rule="evenodd" d="M12 3a4.464 4.464 0 0 1 4.435 4.968l-.262 2.306a4.2 4.2 0 0 1-8.347 0l-.262-2.306A4.464 4.464 0 0 1 12 3m-2.882 7.127-.262-2.306a3.164 3.164 0 1 1 6.288 0l-.262 2.306a2.9 2.9 0 0 1-5.764 0" clip-rule="evenodd"/><path fill="#717681" d="M13.854 15a6 6 0 0 1 5.857 4.698l.1.45a.7.7 0 0 1-.684.852h-7.784a.65.65 0 1 1 0-1.3h7.027a4.7 4.7 0 0 0-4.517-3.4h-2.51a.65.65 0 1 1 0-1.3z"/></svg>