<svg xmlns="http://www.w3.org/2000/svg" fill="none" viewBox="0 0 24 24" focusable="false"><path fill="#717681" fill-rule="evenodd" d="M12.64 6.07V3.63c0-.36-.29-.65-.65-.65-.35 0-.65.29-.65.65v2.44A2.986 2.986 0 0 0 9 9c0 1.65 1.34 3 3 3 1.65 0 3-1.35 3-3 0-1.44-1.01-2.64-2.36-2.93m-6.65 4.1c.36 0 .65-.29.65-.65V3.63c0-.36-.29-.65-.65-.65-.35 0-.65.29-.65.65v5.89c0 .36.3.65.65.65m12-7.19c.36 0 .65.29.65.65v5.89c0 .36-.29.65-.65.65-.35 0-.65-.29-.65-.65V3.63c0-.36.3-.65.65-.65M6.64 20.36c0 .36-.29.65-.65.65-.35 0-.65-.29-.65-.65v-2.44A3.002 3.002 0 0 1 6 11.99c1.65 0 3 1.35 3 3 0 1.44-1.01 2.63-2.36 2.93zm12-2.44A2.99 2.99 0 0 0 21 15c0-1.66-1.35-3-3-3-1.66 0-3 1.34-3 3 0 1.43 1 2.63 2.34 2.92v2.44c0 .36.3.65.65.65.36 0 .65-.29.65-.65zm-6.65 3.09c.36 0 .65-.29.65-.65v-5.87c0-.36-.29-.65-.65-.65-.35 0-.65.29-.65.65v5.87c0 .36.3.65.65.65"/></svg>