<svg xmlns="http://www.w3.org/2000/svg" fill="none" viewBox="0 0 24 24" focusable="false"><defs><clipPath id="Undo_Outline_svg__a"><path fill="#fff" fill-opacity="0" d="M0 0h24v24H0z"/></clipPath></defs><g clip-path="url(#Undo_Outline_svg__a)"><path fill="#74767B" d="M5.18 9.58a.64.64 0 0 0 0 .92l3.66 3.66c.25.26.66.26.92 0 .25-.25.25-.66 0-.92l-2.55-2.55h8.13c1.3 0 2.35 1.05 2.35 2.35v.26c0 1.3-1.05 2.35-2.35 2.35h-2.7c-.36 0-.65.29-.65.65s.29.65.65.65h2.7c2.02 0 3.65-1.63 3.65-3.65v-.26c0-2.01-1.63-3.65-3.65-3.65H7.21l2.55-2.55c.25-.25.25-.66 0-.92a.66.66 0 0 0-.92 0z"/></g></svg>