<svg xmlns="http://www.w3.org/2000/svg" fill="none" viewBox="0 0 24 24" focusable="false"><path fill="#74767B" fill-rule="evenodd" d="M21 12a9 9 0 0 1-9 9c-4.98 0-9-4.03-9-9 0-4.98 4.02-9 9-9 4.97 0 9 4.02 9 9M9.22 9.39l1.62-1.62a.64.64 0 0 0 0-.92.66.66 0 0 0-.92 0L7.19 9.58c-.25.26-.25.67 0 .92l2.73 2.73c.26.26.67.26.92 0a.64.64 0 0 0 0-.92l-1.62-1.62h4.16c1.3 0 2.35 1.05 2.35 2.35v.26c0 1.3-1.05 2.35-2.35 2.35h-1.71c-.36 0-.65.29-.65.65s.29.65.65.65h1.71c2.02 0 3.65-1.63 3.65-3.65v-.26c0-2.01-1.63-3.65-3.65-3.65z"/></svg>