<svg xmlns="http://www.w3.org/2000/svg" fill="none" viewBox="0 0 24 24" focusable="false"><path fill="#74767B" fill-rule="evenodd" d="M19.29 4.5a5.15 5.15 0 0 0-7.28 0l-1.03.96c-.25.26-.25.67 0 .92.26.26.67.26.92 0l1.03-.96a3.833 3.833 0 0 1 5.44 0 3.833 3.833 0 0 1 0 5.44l-1.02.97a.64.64 0 0 0 0 .92c.25.25.66.25.92 0l1.02-.97a5.15 5.15 0 0 0 0-7.28M6.71 5.83a.66.66 0 0 0-.92 0 .64.64 0 0 0 0 .92l11.49 11.5c.26.25.67.25.92 0a.64.64 0 0 0 0-.92zM4.57 19.21a5.14 5.14 0 0 0 7.29 0l.88-.85c.25-.25.25-.66 0-.92a.66.66 0 0 0-.92 0l-.88.86a3.863 3.863 0 0 1-5.45 0 3.863 3.863 0 0 1 0-5.45l.88-.85a.64.64 0 0 0 0-.92.64.64 0 0 0-.92 0l-.88.85a5.15 5.15 0 0 0 0 7.28"/></svg>