<svg xmlns="http://www.w3.org/2000/svg" fill="none" viewBox="0 0 24 24" focusable="false"><defs><clipPath id="Update_Solid_svg__a"><path fill="#fff" fill-opacity="0" d="M0 0h24v24H0z"/></clipPath></defs><g clip-path="url(#Update_Solid_svg__a)"><path fill="#717681" fill-rule="evenodd" d="M12 21a9 9 0 0 0 9-9c0-4.98-4.03-9-9-9-4.98 0-9 4.02-9 9 0 4.97 4.02 9 9 9m2.88-13.87-.23-.86c-.1-.35.09-.71.44-.81.34-.1.71.09.8.44l.72 2.51c.11.4-.12.8-.52.89l-2.43.48a.657.657 0 0 1-.78-.49.54.54 0 0 1 .06-.45c.08-.15.24-.27.42-.31l.96-.21c-.87-.55-1.94-.8-3.04-.62a4.364 4.364 0 0 0-3.63 4.54c.02.35-.25.66-.61.68a.65.65 0 0 1-.69-.61 5.665 5.665 0 0 1 4.72-5.89c1.37-.23 2.7.06 3.81.71m2.76 4.55a.65.65 0 0 0-.69-.61c-.36.02-.63.33-.61.68a4.364 4.364 0 0 1-3.63 4.54c-1.1.18-2.17-.07-3.04-.62l.96-.21c.18-.04.34-.16.42-.31.08-.13.11-.29.06-.45a.657.657 0 0 0-.78-.49l-2.43.48c-.4.09-.63.49-.52.89l.72 2.51c.09.35.46.54.8.44.35-.1.54-.46.44-.81l-.22-.86c1.1.65 2.43.94 3.8.71a5.665 5.665 0 0 0 4.72-5.89"/></g></svg>