<svg xmlns="http://www.w3.org/2000/svg" fill="none" viewBox="0 0 24 24" focusable="false"><defs><clipPath id="Update_Outline_svg__a"><path fill="#fff" fill-opacity="0" d="M0 0h24v24H0z"/></clipPath></defs><g clip-path="url(#Update_Outline_svg__a)"><path fill="#717681" fill-rule="evenodd" d="M12.97 7.76c0 .19.07.36.2.48.12.11.26.18.44.18l3.74-.02c.42.01.75-.34.71-.76l-.29-3.65a.647.647 0 0 0-.69-.6c-.36.03-.64.34-.6.7l.18 2.03A7.45 7.45 0 0 0 12 4.5 7.49 7.49 0 0 0 4.5 12c0 .26.01.53.04.79.04.38.42.61.79.5.32-.09.52-.41.49-.75q-.03-.27-.03-.54c0-3.43 2.78-6.2 6.21-6.2 1.42 0 2.74.48 3.79 1.29l-.01.01-2.15.02c-.36 0-.65.28-.66.64m-2.48 8.01a.64.64 0 0 0-.2-.48.63.63 0 0 0-.44-.18l-3.74.02a.69.69 0 0 0-.71.76l.29 3.65c.03.36.34.63.69.6.36-.03.64-.33.6-.69L6.8 17.4c1.34 1.3 3.18 2.1 5.2 2.1 4.14 0 7.5-3.36 7.5-7.5 0-.51-.06-1.01-.15-1.49-.08-.37-.47-.56-.82-.44-.32.12-.5.47-.44.81.07.36.11.73.11 1.12 0 3.42-2.78 6.2-6.2 6.2-1.69 0-3.21-.67-4.33-1.76l.01-.01 2.15-.02c.36.01.65-.28.66-.64"/></g></svg>