<svg xmlns="http://www.w3.org/2000/svg" fill="none" viewBox="0 0 24 24" focusable="false"><path fill="#717681" fill-rule="evenodd" d="M12 3C9.33 3 7.26 5.32 7.56 7.96l.26 2.31A4.21 4.21 0 0 0 12 14c2.13 0 3.93-1.61 4.17-3.73l.26-2.31A4.46 4.46 0 0 0 12 3m2.88 7.12.26-2.3c.21-1.88-1.26-3.53-3.14-3.53-1.89 0-3.36 1.65-3.15 3.53l.26 2.3A2.91 2.91 0 0 0 12 12.7c1.47 0 2.71-1.11 2.88-2.58m5.93 5.06c.25.26.24.67-.02.92l-1.89 1.82 1.89 1.83c.26.25.27.66.02.92-.25.25-.66.26-.92.01l-1.93-1.85-1.92 1.85c-.26.25-.67.24-.92-.01a.66.66 0 0 1 .01-.92l1.9-1.83-1.9-1.82a.66.66 0 0 1-.01-.92c.25-.26.66-.27.92-.02l1.92 1.86 1.93-1.86c.26-.25.67-.24.92.02M10.14 15c-2.81 0-5.25 1.95-5.86 4.69l-.1.45c-.09.44.24.86.69.86h7.78c.36 0 .65-.3.65-.65 0-.36-.29-.65-.65-.65H5.62a4.71 4.71 0 0 1 4.52-3.41h2.51c.36 0 .65-.29.65-.64 0-.36-.29-.65-.65-.65z"/></svg>