<svg xmlns="http://www.w3.org/2000/svg" fill="none" viewBox="0 0 24 24" focusable="false"><defs><clipPath id="User_Delete_Solid_svg__a"><path fill="#fff" fill-opacity="0" d="M0 0h24v24H0z"/></clipPath></defs><g clip-path="url(#User_Delete_Solid_svg__a)"><path fill="#717681" fill-rule="evenodd" d="M7.56 7.96C7.26 5.32 9.33 3 12 3a4.46 4.46 0 0 1 4.43 4.96l-.26 2.31A4.206 4.206 0 0 1 12 14c-2.14 0-3.94-1.61-4.18-3.73zm13.12 12.72a4.52 4.52 0 0 0 0-6.37 4.52 4.52 0 0 0-6.37 0 4.52 4.52 0 0 0 0 6.37 4.52 4.52 0 0 0 6.37 0M11.15 15c.51 0 .86.54.73 1.04-.12.46-.18.95-.18 1.46 0 .81.16 1.58.46 2.28.23.53-.12 1.22-.7 1.22H4.87c-.45 0-.78-.42-.69-.86l.1-.45A6 6 0 0 1 10.14 15zm4.47.62a.64.64 0 0 1 .92 0l.96.96.86-.87c.25-.25.66-.25.92 0 .25.26.25.67 0 .92l-.87.87.96.95c.26.26.26.67 0 .92a.64.64 0 0 1-.92 0l-.95-.96-.87.87c-.25.25-.66.25-.92 0a.66.66 0 0 1 0-.92l.87-.86-.96-.96a.64.64 0 0 1 0-.92"/></g></svg>