<svg xmlns="http://www.w3.org/2000/svg" fill="none" viewBox="0 0 24 24" focusable="false"><defs><clipPath id="User_Role_To_Solid_svg__a"><path fill="#fff" fill-opacity="0" d="M0 0h24v24H0z"/></clipPath></defs><g clip-path="url(#User_Role_To_Solid_svg__a)"><path fill="#717681" fill-rule="evenodd" d="M12 3C9.33 3 7.26 5.32 7.56 7.96l.26 2.31A4.21 4.21 0 0 0 12 14c2.13 0 3.93-1.61 4.17-3.73l.26-2.31A4.46 4.46 0 0 0 12 3m5.5 19c2.48 0 4.5-2.02 4.5-4.5a4.5 4.5 0 1 0-4.5 4.5m-.14-1.65c.18 0 .35-.07.48-.21.24-.27.22-.68-.04-.92l-1.2-1.15h3.38c.36 0 .65-.29.65-.65s-.29-.65-.65-.65h-3.37l1.19-1.14a.65.65 0 0 0 .04-.92.66.66 0 0 0-.92-.04l-2.35 2.23c-.31.28-.31.76 0 1.04l2.35 2.24c.13.12.28.17.44.17m-5.48-4.31c.13-.5-.22-1.04-.73-1.04h-1.01c-2.81 0-5.25 1.95-5.86 4.69l-.1.45c-.09.44.24.86.69.86h6.59c.58 0 .93-.69.7-1.22-.3-.7-.46-1.47-.46-2.28 0-.51.06-1 .18-1.46"/></g></svg>