<svg xmlns="http://www.w3.org/2000/svg" fill="none" viewBox="0 0 24 24" focusable="false"><path fill="#717681" fill-rule="evenodd" d="M12 3a4.464 4.464 0 0 0-4.435 4.968l.262 2.306a4.2 4.2 0 0 0 8.346 0l.263-2.306A4.464 4.464 0 0 0 12 3m2.882 7.127.262-2.306a3.164 3.164 0 1 0-6.288 0l.262 2.306a2.9 2.9 0 0 0 5.764 0" clip-rule="evenodd"/><path fill="#717681" d="M10.146 15a6 6 0 0 0-5.857 4.698l-.1.45a.7.7 0 0 0 .684.852h7.784a.65.65 0 1 0 0-1.3H5.63a4.7 4.7 0 0 1 4.516-3.4h2.511a.65.65 0 1 0 0-1.3h-2.51M20.797 16.105a.65.65 0 1 0-.902-.937l-1.927 1.857-1.927-1.856a.65.65 0 0 0-.902.936l1.892 1.823-1.892 1.823a.65.65 0 0 0 .902.937l1.927-1.857 1.927 1.857a.65.65 0 1 0 .902-.937l-1.892-1.823 1.892-1.823"/></svg>