<svg xmlns="http://www.w3.org/2000/svg" fill="none" viewBox="0 0 24 24" focusable="false"><path fill="#717681" fill-rule="evenodd" d="M7.565 7.968a4.464 4.464 0 1 1 8.87 0l-.262 2.306a4.2 4.2 0 0 1-8.346 0zm7.579-.147-.262 2.306a2.9 2.9 0 0 1-5.764 0l-.262-2.306a3.164 3.164 0 1 1 6.288 0" clip-rule="evenodd"/><path fill="#717681" d="M4.29 19.698A6 6 0 0 1 10.145 15h2.511a.65.65 0 1 1 0 1.3h-2.51a4.7 4.7 0 0 0-4.517 3.4h7.027a.65.65 0 1 1 0 1.3H4.873a.7.7 0 0 1-.684-.852zM16.775 14.917c.13-.14.3-.21.48-.21.16 0 .31.05.44.17l2.71 2.575c.31.28.31.76 0 1.04l-2.71 2.465c-.27.24-.68.22-.92-.04a.65.65 0 0 1 .04-.92l1.55-1.375h-3.371a.65.65 0 1 1 0-1.3h3.378l-1.557-1.485a.66.66 0 0 1-.04-.92"/></svg>