<svg xmlns="http://www.w3.org/2000/svg" fill="none" viewBox="0 0 24 24" focusable="false"><path fill="#717681" fill-rule="evenodd" d="M7.56 7.96C7.26 5.32 9.33 3 12 3a4.46 4.46 0 0 1 4.43 4.96l-.26 2.31A4.206 4.206 0 0 1 12 14c-2.14 0-3.94-1.61-4.18-3.73zM13 17.5a4.5 4.5 0 0 1 9 0c0 2.48-2.02 4.5-4.5 4.5a4.5 4.5 0 0 1-4.5-4.5m4.15-2.65c.13-.14.3-.21.48-.21.16 0 .31.05.44.17l2.35 2.24c.31.28.31.76 0 1.04l-2.35 2.23c-.27.24-.68.22-.92-.04a.65.65 0 0 1 .04-.92l1.19-1.14h-3.37c-.36 0-.65-.29-.65-.65s.29-.65.65-.65h3.38l-1.2-1.15a.66.66 0 0 1-.04-.92m-6 .15c.51 0 .86.54.73 1.04-.12.46-.18.95-.18 1.46 0 .81.16 1.58.46 2.28.23.53-.12 1.22-.7 1.22H4.87c-.45 0-.78-.42-.69-.86l.1-.45A6 6 0 0 1 10.14 15z"/></svg>