<svg xmlns="http://www.w3.org/2000/svg" fill="none" viewBox="0 0 24 24" focusable="false"><defs><clipPath id="User_Role_To_Outline_svg__a"><path fill="#fff" fill-opacity="0" d="M0 0h24v24H0z"/></clipPath></defs><g clip-path="url(#User_Role_To_Outline_svg__a)"><path fill="#717681" fill-rule="evenodd" d="M7.56 7.96C7.26 5.32 9.33 3 12 3a4.46 4.46 0 0 1 4.43 4.96l-.26 2.31A4.206 4.206 0 0 1 12 14c-2.14 0-3.94-1.61-4.18-3.73zm7.58-.14-.26 2.3A2.91 2.91 0 0 1 12 12.7a2.91 2.91 0 0 1-2.89-2.58l-.26-2.3A3.176 3.176 0 0 1 12 4.29c1.88 0 3.35 1.65 3.14 3.53m2.58 13.41c.18 0 .35-.07.48-.21.24-.27.22-.68-.04-.92l-1.56-1.48h3.38c.36 0 .65-.29.65-.65s-.29-.65-.65-.65h-3.37l1.55-1.38a.65.65 0 0 0 .04-.92.66.66 0 0 0-.92-.04l-2.71 2.47c-.31.28-.31.76 0 1.04l2.71 2.57c.13.12.28.17.44.17M4.28 19.69A6 6 0 0 1 10.14 15h2.51c.36 0 .65.29.65.65 0 .35-.29.64-.65.64h-2.51c-2.1 0-3.94 1.4-4.52 3.41h7.03c.36 0 .65.29.65.65 0 .35-.29.65-.65.65H4.87c-.45 0-.78-.42-.69-.86z"/></g></svg>