<svg xmlns="http://www.w3.org/2000/svg" fill="none" viewBox="0 0 24 24" focusable="false"><path fill="#717681" fill-rule="evenodd" d="m7.29 6-2.7-3.49a.64.64 0 0 0-.91-.12c-.29.23-.34.63-.12.91l14.68 18.99c.22.29.63.34.91.12.29-.22.34-.62.12-.91l-4.21-5.45c.12-.33.19-.68.19-1.05V9c0-1.66-1.35-3-3-3zm-3.08.24 8.97 11.61c-.29.09-.61.15-.93.15H5.4c-1.66 0-3-1.35-3-3V9c0-1.24.74-2.3 1.81-2.76m13.13 3.01 2.7-1.15c.85-.36 1.81.26 1.81 1.2v5.07c0 .93-.96 1.56-1.81 1.19l-2.7-1.14c-.48-.21-.79-.68-.79-1.2v-2.78c0-.52.31-.99.79-1.19"/></svg>