<svg xmlns="http://www.w3.org/2000/svg" fill="none" viewBox="0 0 24 24" focusable="false"><defs><clipPath id="Video_Outline_svg__a"><path fill="#fff" fill-opacity="0" d="M0 0h24v24H0z"/></clipPath></defs><g clip-path="url(#Video_Outline_svg__a)"><path fill="#717681" fill-rule="evenodd" d="M15.05 9v6c0 1.65-1.35 3-3 3H5.2c-1.66 0-3-1.35-3-3V9c0-1.66 1.34-3 3-3h6.85c1.65 0 3 1.34 3 3m-3-1.7H5.2c-.14 0-.28.01-.41.04a1.965 1.965 0 0 0-.51.22c-.11.07-.2.15-.29.23-.08.09-.16.18-.23.29a1.965 1.965 0 0 0-.22.51c-.03.13-.04.27-.04.41v6c0 .13.01.27.04.4a1.965 1.965 0 0 0 .22.51c.07.11.15.2.23.29.09.08.18.16.29.23a1.965 1.965 0 0 0 .51.22c.13.03.27.05.41.05h6.85a1.614 1.614 0 0 0 .66-.14c.09-.04.17-.08.25-.13.11-.07.2-.15.29-.23.08-.09.16-.18.23-.29a1.965 1.965 0 0 0 .22-.51c.03-.13.05-.27.05-.4V9a1.614 1.614 0 0 0-.14-.67c-.04-.09-.08-.17-.13-.25-.07-.11-.15-.2-.23-.29-.09-.08-.18-.16-.29-.23a1.965 1.965 0 0 0-.51-.22 1.81 1.81 0 0 0-.4-.04m4.3 6a.17.17 0 0 1 0-.1.645.645 0 0 1 .91-.55l2.17.95c.11.05.21.06.31.06.07-.01.15-.03.21-.05.03-.02.07-.04.1-.06.07-.05.14-.12.19-.18.04-.09.1-.22.1-.31l.01-3.08c-.01-.05-.02-.16-.04-.21a.313.313 0 0 0-.05-.1.52.52 0 0 0-.18-.21.803.803 0 0 0-.32-.13h-.12a.83.83 0 0 0-.21.06l-2.17.95a.645.645 0 0 1-.91-.55.17.17 0 0 1 0-.1c.01-.23.15-.44.38-.54l2.18-.95c.3-.13.6-.19.91-.16.15.01.35.05.49.09.14.05.27.11.4.19.23.15.49.39.63.62.08.13.19.36.23.5.04.13.06.27.07.41V13.01c0 .18-.02.36-.07.54-.04.12-.09.26-.15.37-.14.24-.36.51-.59.67-.26.17-.64.33-.95.36-.31.02-.68-.03-.97-.16l-2.18-.95a.618.618 0 0 1-.38-.54"/></g></svg>