<svg xmlns="http://www.w3.org/2000/svg" fill="none" viewBox="0 0 24 24" focusable="false"><path fill="#717681" fill-rule="evenodd" d="M8.3 11.5c0-1.77 1.43-3.2 3.2-3.2s3.2 1.43 3.2 3.2-1.43 3.2-3.2 3.2-3.2-1.43-3.2-3.2m4.745.01a.65.65 0 0 0-.65-.65h-1.799a.65.65 0 1 0 0 1.3h1.799a.65.65 0 0 0 .65-.65" clip-rule="evenodd"/><path fill="#717681" fill-rule="evenodd" d="M12 3a9 9 0 1 0 0 18 9 9 0 0 0 0-18m-.5 4A4.497 4.497 0 0 0 7 11.5c0 2.488 2.012 4.5 4.5 4.5 1.01 0 1.94-.331 2.69-.89l1.85 1.85a.65.65 0 1 0 .92-.92l-1.85-1.85c.559-.75.89-1.68.89-2.69C16 9.012 13.988 7 11.5 7" clip-rule="evenodd"/></svg>