<svg xmlns="http://www.w3.org/2000/svg" fill="none" viewBox="0 0 24 24" focusable="false"><path fill="#74767B" fill-rule="evenodd" d="M3 12C3 7.02944 7.02944 3 12 3C16.9706 3 21 7.02944 21 12C21 16.9706 16.9706 21 12 21C7.02944 21 3 16.9706 3 12ZM7 11.5C7 9.01214 9.01214 7 11.5 7C13.9879 7 16 9.01214 16 11.5C16 12.5092 15.6689 13.44 15.1093 14.1901L16.9596 16.0404C17.2135 16.2942 17.2135 16.7058 16.9596 16.9596C16.7058 17.2135 16.2942 17.2135 16.0404 16.9596L14.1901 15.1093C13.44 15.6689 12.5092 16 11.5 16C9.01214 16 7 13.9879 7 11.5ZM8.3 11.5C8.3 9.73011 9.73011 8.3 11.5 8.3C13.2699 8.3 14.7 9.73011 14.7 11.5C14.7 13.2699 13.2699 14.7 11.5 14.7C9.73011 14.7 8.3 13.2699 8.3 11.5ZM10.8454 10.2618C10.8454 9.90277 11.1364 9.61176 11.4954 9.61176C11.8544 9.61176 12.1454 9.90277 12.1454 10.2618L12.1454 10.8591L12.7428 10.8591C13.1018 10.8591 13.3928 11.1501 13.3928 11.5091C13.3928 11.8681 13.1018 12.1591 12.7428 12.1591L12.1454 12.1591L12.1454 12.7565C12.1454 13.1155 11.8544 13.4065 11.4954 13.4065C11.1364 13.4065 10.8454 13.1155 10.8454 12.7565L10.8454 12.1591L10.248 12.1591C9.88906 12.1591 9.59805 11.8681 9.59805 11.5091C9.59805 11.1501 9.88906 10.8591 10.248 10.8591L10.8454 10.8591L10.8454 10.2618Z"/></svg>