<svg xmlns="http://www.w3.org/2000/svg" fill="none" viewBox="0 0 24 24" focusable="false"><defs><clipPath id="Zoom_In_Solid_svg__a"><path fill="#fff" fill-opacity="0" d="M0 0h24v24H0z"/></clipPath></defs><g clip-path="url(#Zoom_In_Solid_svg__a)"><path fill="#717681" fill-rule="evenodd" d="M3 12c0-4.98 4.02-9 9-9 4.97 0 9 4.02 9 9a9 9 0 0 1-9 9c-4.98 0-9-4.03-9-9m4-.5a4.5 4.5 0 0 1 9 0c0 1-.34 1.94-.9 2.69l1.85 1.85c.26.25.26.66 0 .91-.25.26-.66.26-.91 0l-1.86-1.85c-.75.56-1.68.9-2.68.9A4.5 4.5 0 0 1 7 11.5m4.5-3.21a3.205 3.205 0 1 0-.01 6.41 3.205 3.205 0 0 0 .01-6.41m-.01 1.32c-.36 0-.65.29-.65.65v.59h-.6c-.36 0-.65.3-.65.65 0 .36.29.65.65.65h.6v.6c0 .36.29.65.65.65.36 0 .65-.29.65-.65v-.6h.6c.36 0 .65-.29.65-.65 0-.35-.29-.65-.65-.65h-.6v-.59c0-.36-.29-.65-.65-.65"/></g></svg>