<svg xmlns="http://www.w3.org/2000/svg" fill="none" viewBox="0 0 24 24" focusable="false"><path fill="#717681" fill-rule="evenodd" d="M18.59 5.33s-.01 0-.02.01L5.4 11.09l-.02.01c0 .01-.01.01-.01.01v.03c0 .02.01.03.01.04h.01s.01 0 .02.01l5.24.79c.72.11 1.28.67 1.39 1.39l.78 5.28c.01.01.01.02.01.02v.01c.01 0 .02.01.04.01h.03s0-.01.01-.01c0 0 0-.01.01-.02L18.64 5.4v-.03s0-.01-.01-.02c-.01-.02-.02-.02-.03-.02zm-.53-1.19c1.12-.49 2.25.65 1.77 1.78l-5.72 13.26c-.54 1.25-2.37 1.01-2.57-.34l-.79-5.27a.34.34 0 0 0-.29-.3l-5.24-.79c-1.34-.21-1.58-2.04-.34-2.58z"/></svg>