<svg xmlns="http://www.w3.org/2000/svg" fill="none" viewBox="0 0 24 24" focusable="false"><path fill="#717681" fill-rule="evenodd" d="m18.598 5.334-.02.006-13.173 5.757a.1.1 0 0 0-.023.013l-.003.004a.1.1 0 0 0-.004.035q.006.028.013.033l.004.003q.003.003.025.007l5.242.794a1.65 1.65 0 0 1 1.381 1.39l.789 5.277a.1.1 0 0 0 .007.025l.003.004c.003.003.014.01.032.013a.1.1 0 0 0 .035-.004l.005-.003a.1.1 0 0 0 .013-.023l5.719-13.259.006-.02v-.008a.1.1 0 0 0-.017-.027.1.1 0 0 0-.027-.017zm-.537-1.19c1.12-.49 2.256.654 1.77 1.782l-5.719 13.258c-.538 1.248-2.363 1.008-2.565-.338l-.788-5.275a.35.35 0 0 0-.293-.295l-5.242-.794C3.888 12.28 3.65 10.442 4.89 9.9z" clip-rule="evenodd"/></svg>