<svg xmlns="http://www.w3.org/2000/svg" fill="none" viewBox="0 0 24 24" focusable="false"><defs><clipPath id="Location_Outline_svg__a"><path fill="#fff" fill-opacity="0" d="M0 0h24v24H0z"/></clipPath></defs><g clip-path="url(#Location_Outline_svg__a)"><path fill="#717681" fill-rule="evenodd" d="M18.88 9.06c-.51-4.23-3.99-6.13-7.26-5.94-3.27.2-6.51 2.51-6.57 6.77-.02 1.34.4 2.7 1.02 3.96.61 1.27 1.43 2.46 2.24 3.49a29.4 29.4 0 0 0 3.25 3.51c.25.22.62.22.87 0 .35-.31.69-.65 1.02-.98.61-.62 1.42-1.49 2.23-2.53.81-1.03 1.63-2.22 2.24-3.49.62-1.26 1.04-2.62 1.03-3.96-.01-.25-.03-.53-.07-.83m-7.42 9.89c.21.21.39.39.54.53l.53-.53c.58-.59 1.36-1.43 2.13-2.41s1.53-2.1 2.1-3.26c.56-1.15.9-2.31.89-3.38-.01-.19-.02-.41-.06-.68-.41-3.4-3.15-4.96-5.89-4.8-2.74.17-5.31 2.05-5.35 5.48-.02 1.07.32 2.23.89 3.38.56 1.16 1.32 2.28 2.09 3.26s1.55 1.82 2.13 2.41M12 5.94c-2.3 0-4.15 1.86-4.15 4.16 0 2.29 1.85 4.15 4.15 4.15 2.29 0 4.15-1.86 4.15-4.15 0-2.3-1.86-4.16-4.15-4.16M9.15 10.1c0-1.58 1.27-2.85 2.85-2.85 1.57 0 2.85 1.27 2.85 2.85 0 1.57-1.28 2.85-2.85 2.85-1.58 0-2.85-1.28-2.85-2.85"/></g></svg>