<svg xmlns="http://www.w3.org/2000/svg" fill="none" viewBox="0 0 24 24" focusable="false"><defs><clipPath id="Location_Solid_svg__a"><path fill="#fff" fill-opacity="0" d="M0 0h24v24H0z"/></clipPath></defs><g clip-path="url(#Location_Solid_svg__a)"><path fill="#717681" fill-rule="evenodd" d="M11.62 3.12c3.27-.19 6.75 1.71 7.26 5.94.04.3.06.58.07.83.01 1.34-.41 2.7-1.03 3.96-.61 1.27-1.43 2.46-2.24 3.49a29.424 29.424 0 0 1-2.97 3.25c-.09.08-.16.15-.2.19-.03.03-.06.05-.08.07-.25.22-.62.22-.87 0-.02-.02-.05-.04-.07-.07-.05-.04-.12-.11-.21-.19a29.424 29.424 0 0 1-2.97-3.25c-.81-1.03-1.63-2.22-2.24-3.49-.62-1.26-1.04-2.62-1.02-3.96.06-4.26 3.3-6.57 6.57-6.77M7.85 10.1c0-2.3 1.85-4.16 4.15-4.16 2.29 0 4.15 1.86 4.15 4.16 0 2.29-1.86 4.15-4.15 4.15-2.3 0-4.15-1.86-4.15-4.15"/></g></svg>