<svg xmlns="http://www.w3.org/2000/svg" fill="none" viewBox="0 0 24 24" focusable="false"><defs><clipPath id="Map_Location_Solid_svg__a"><path fill="#fff" fill-opacity="0" d="M0 0h24v24H0z"/></clipPath></defs><g clip-path="url(#Map_Location_Solid_svg__a)"><path fill="#74767B" fill-rule="evenodd" d="M16.27 6.98C15.92 4.15 13.59 2.87 11.4 3 9.21 3.14 7.04 4.68 7 7.54c-.02.9.27 1.81.68 2.65.41.85.96 1.65 1.5 2.34.55.69 1.09 1.28 1.5 1.69.2.21.37.38.49.49.06.05.11.1.14.13.17.14.47.19.63.05.04-.03.13-.13.19-.18.13-.11.3-.28.5-.49.41-.41.95-1 1.49-1.69.55-.69 1.1-1.49 1.51-2.34.41-.84.69-1.75.68-2.65 0-.17-.02-.36-.04-.56m-4.62-2.09c-1.53 0-2.78 1.25-2.78 2.79 0 1.53 1.25 2.78 2.78 2.78a2.78 2.78 0 0 0 2.78-2.78c0-1.54-1.24-2.79-2.78-2.79m-4.53 6.34-2.45-.73c-.84-.25-1.67.37-1.67 1.24v6.79c0 .57.37 1.08.92 1.24l3.76 1.13q.315.09.63.03l6.88-1.39c.2-.04.41-.04.6.02l3.56.98A1.3 1.3 0 0 0 21 19.29v-6.8c0-.59-.4-1.1-.96-1.26l-3.13-.86a.39.39 0 0 0-.47.22c-.4.8-.93 1.64-1.61 2.5q-.705.9-1.56 1.77c-.18.18-.35.35-.52.5l-.15.15c-.06.05-.19.16-.26.2s-.15.07-.22.1-.15.05-.23.06c-.07.02-.16.02-.24.02s-.16 0-.24-.02a1 1 0 0 1-.22-.06l-.15-.06c-.1-.06-.19-.12-.28-.19-.04-.05-.15-.15-.21-.2a21.038 21.038 0 0 1-2.07-2.27c-.47-.59-.86-1.16-1.19-1.72a.3.3 0 0 0-.17-.14"/></g></svg>