<svg xmlns="http://www.w3.org/2000/svg" fill="none" viewBox="0 0 24 24" focusable="false"><path fill="#74767B" fill-rule="evenodd" d="M11.53 3c2.26-.13 4.67 1.15 5.02 3.98.03.2.04.39.04.56.02.87-.26 1.75-.66 2.57l4.11 1.12c.56.16.96.67.96 1.26v6.8c0 .86-.82 1.48-1.65 1.26l-3.56-.97c-.19-.06-.4-.06-.6-.02l-6.88 1.37q-.315.06-.63-.03l-3.76-1.13c-.55-.16-.92-.67-.92-1.24v-6.79c0-.87.83-1.49 1.67-1.24l3.01.9q.315.09.63.03l.11-.02c-.26-.39-.51-.8-.72-1.22-.42-.84-.72-1.75-.7-2.65.04-2.86 2.28-4.4 4.53-4.54M9 12.21l-.51.1c-.35.07-.72.06-1.06-.05l-3.02-.9a.4.4 0 0 0-.18-.01c-.06.01-.12.03-.17.07-.06.04-.1.09-.12.14-.03.06-.05.12-.05.18v6.79c0 .16.14.34.29.38C5.46 19.3 7.68 20 8 20c.31 0 4.69-.86 7.02-1.33a2.15 2.15 0 0 1 1.01.04l3.56.97a.38.38 0 0 0 .35-.07c.05-.04.09-.09.12-.14.02-.05.04-.11.04-.18v-6.8c0-.16-.14-.35-.3-.39l-4.34-1.14c-.34.56-.73 1.1-1.12 1.57-.56.69-1.12 1.28-1.54 1.69-.23.23-.46.45-.71.67-.17.14-.42.14-.59 0-.25-.22-.48-.44-.71-.67-.42-.41-.98-1-1.54-1.69-.09-.1-.17-.21-.25-.32m2.8 1.75c-.11-.09-.23-.21-.37-.35-.4-.39-.94-.96-1.48-1.61-.53-.66-1.05-1.41-1.44-2.19-.39-.77-.63-1.55-.62-2.26.04-2.3 1.81-3.57 3.7-3.68s3.78.94 4.07 3.22c.02.18.04.33.04.46.01.71-.23 1.49-.62 2.26-.38.78-.91 1.53-1.44 2.19-.54.65-1.07 1.22-1.48 1.61-.14.14-.26.26-.36.35M8.93 7.68c0-1.54 1.28-2.79 2.86-2.79 1.59 0 2.87 1.25 2.87 2.79 0 1.53-1.28 2.78-2.87 2.78-1.58 0-2.86-1.25-2.86-2.78m2.86-1.91c-1.08 0-1.96.85-1.96 1.91 0 1.05.88 1.91 1.96 1.91 1.09 0 1.97-.86 1.97-1.91 0-1.06-.88-1.91-1.97-1.91"/></svg>