<svg width="24.000000" height="24.000000" viewBox="0 0 24 24" fill="none" xmlns="http://www.w3.org/2000/svg" xmlns:xlink="http://www.w3.org/1999/xlink">
	<desc>
			Created with Pixso.
	</desc>
	<defs>
		<clipPath id="clip118567_724">
			<rect id="Solid / Add Template Solid" width="24.000000" height="24.000000" fill="white" fill-opacity="0"/>
		</clipPath>
	</defs>
	<g>
		<path id="Shape" d="M7 2.99C5.34 2.99 4 4.33 4 5.99L4 16.02C4 17.68 5.34 19.02 7 19.02L10.24 19.02C11.02 19.02 11.58 18.27 11.58 17.5C11.58 14.3 14.17 11.7 17.37 11.7C17.72 11.7 18.02 11.43 18.02 11.09L18.02 5.99C18.02 4.33 16.68 2.99 15.02 2.99L7 2.99ZM7.35 7.54C7.35 7.18 7.64 6.89 8 6.89L14.02 6.89C14.38 6.89 14.67 7.18 14.67 7.54C14.67 7.9 14.38 8.19 14.02 8.19L8 8.19C7.64 8.19 7.35 7.9 7.35 7.54ZM8 10.48C7.64 10.48 7.35 10.77 7.35 11.13C7.35 11.49 7.64 11.78 8 11.78L10.36 11.78C10.72 11.78 11.01 11.49 11.01 11.13C11.01 10.77 10.72 10.48 10.36 10.48L8 10.48ZM21.87 17.49C21.87 19.98 19.86 21.99 17.37 21.99C14.89 21.99 12.87 19.98 12.87 17.49C12.87 15.01 14.89 12.99 17.37 12.99C19.86 12.99 21.87 15.01 21.87 17.49ZM18.02 15.49C18.02 15.13 17.73 14.84 17.37 14.84C17.01 14.84 16.72 15.13 16.72 15.49L16.72 16.84L15.5 16.84C15.14 16.84 14.85 17.14 14.85 17.49C14.85 17.85 15.14 18.15 15.5 18.15L16.72 18.15L16.72 19.5C16.72 19.86 17.01 20.15 17.37 20.15C17.73 20.15 18.02 19.86 18.02 19.5L18.02 18.15L19.24 18.15C19.6 18.15 19.89 17.85 19.89 17.5C19.89 17.14 19.6 16.84 19.24 16.84L18.02 16.84L18.02 15.49Z" fill="#717681" fill-opacity="1.000000" fill-rule="evenodd"/>
	</g>
</svg>
