<svg width="24.000000" height="24.000000" viewBox="0 0 24 24" fill="none" xmlns="http://www.w3.org/2000/svg" xmlns:xlink="http://www.w3.org/1999/xlink">
	<desc>
			Created with Pixso.
	</desc>
	<defs>
		<clipPath id="clip17_822">
			<rect id="Outline / Add Template Outline" width="24.000000" height="24.000000" fill="white" fill-opacity="0"/>
		</clipPath>
	</defs>
	<g >
		<path id="Shape" d="M7 4.29L15.02 4.29C15.96 4.29 16.72 5.06 16.72 6L16.72 12.4C16.72 12.76 17.01 13.05 17.37 13.05C17.73 13.05 18.02 12.76 18.02 12.4L18.02 6C18.02 4.34 16.68 3 15.02 3L7 3C5.34 3 4 4.34 4 6L4 16.02C4 17.68 5.34 19.02 7 19.02L11.43 19.02C11.79 19.02 12.08 18.73 12.08 18.37C12.08 18.01 11.79 17.72 11.43 17.72L7 17.72C6.06 17.72 5.3 16.96 5.3 16.02L5.3 6C5.3 5.06 6.06 4.29 7 4.29ZM8 6.89C7.64 6.89 7.35 7.18 7.35 7.54C7.35 7.9 7.64 8.19 8 8.19L14.02 8.19C14.38 8.19 14.67 7.9 14.67 7.54C14.67 7.18 14.38 6.89 14.02 6.89L8 6.89ZM8 10.43C7.64 10.43 7.35 10.72 7.35 11.08C7.35 11.44 7.64 11.73 8 11.73L10.63 11.73C10.99 11.73 11.28 11.44 11.28 11.08C11.28 10.72 10.99 10.43 10.63 10.43L8 10.43ZM16.61 21.35C16.61 21.71 16.9 22 17.26 22C17.62 22 17.91 21.71 17.91 21.35L17.91 18.99L20.27 18.99C20.63 18.99 20.92 18.7 20.92 18.34C20.92 17.98 20.63 17.69 20.27 17.69L17.91 17.69L17.91 15.33C17.91 14.97 17.62 14.68 17.26 14.68C16.9 14.68 16.61 14.97 16.61 15.33L16.61 17.69L14.25 17.69C13.89 17.69 13.6 17.98 13.6 18.34C13.6 18.7 13.89 18.99 14.25 18.99L16.61 18.99L16.61 21.35Z" fill="#74767B" fill-opacity="1.000000" fill-rule="evenodd"/>
	</g>
</svg>
