<svg width="24" height="24" viewBox="0 0 24 24" fill="none" xmlns="http://www.w3.org/2000/svg">
<path fill-rule="evenodd" clip-rule="evenodd" d="M17.377 21.9999C19.8623 21.9999 21.877 19.9852 21.877 17.5C21.877 15.0147 19.8623 12.9999 17.377 12.9999C14.8917 12.9999 12.877 15.0147 12.877 17.4999C12.877 19.9852 14.8917 21.9999 17.377 21.9999ZM17.377 14.843C17.736 14.843 18.027 15.134 18.027 15.493L18.027 16.85H19.2486C19.6076 16.85 19.8986 17.141 19.8986 17.5C19.8986 17.8589 19.6076 18.15 19.2486 18.15L18.027 18.15L18.027 19.507C18.027 19.866 17.736 20.157 17.377 20.157C17.018 20.157 16.727 19.866 16.727 19.507L16.727 18.15L15.5054 18.15C15.1464 18.15 14.8554 17.8589 14.8554 17.5C14.8554 17.141 15.1464 16.85 15.5054 16.85H16.727L16.727 15.493C16.727 15.134 17.018 14.843 17.377 14.843Z" fill="#717681"/>
<path fill-rule="evenodd" clip-rule="evenodd" d="M4 5.99652C4 4.33966 5.34315 2.99652 7 2.99652L15.0262 2.99652C16.683 2.99652 18.0262 4.33967 18.0262 5.99652L18.0262 11.0913C18.0262 11.4383 17.7239 11.7059 17.3769 11.7059C14.1769 11.7059 11.5828 14.3 11.5828 17.5C11.5828 18.277 11.02 19.0245 10.243 19.0245L7 19.0245C5.34314 19.0245 4 17.6814 4 16.0245L4 5.99652ZM7.35455 11.136C7.35455 10.777 7.64557 10.486 8.00455 10.486L10.3631 10.486C10.722 10.486 11.0131 10.777 11.0131 11.136C11.0131 11.495 10.722 11.786 10.3631 11.786H8.00455C7.64557 11.786 7.35455 11.495 7.35455 11.136ZM8.00449 6.89417C7.64551 6.89417 7.35449 7.18518 7.35449 7.54417C7.35449 7.90315 7.64551 8.19417 8.00449 8.19417H14.0241C14.3831 8.19417 14.6741 7.90315 14.6741 7.54417C14.6741 7.18518 14.3831 6.89417 14.0241 6.89417L8.00449 6.89417Z" fill="#717681"/>
</svg>
