<svg width="24" height="24" viewBox="0 0 24 24" fill="none" xmlns="http://www.w3.org/2000/svg">
<path d="M15.0262 4.3L7 4.3C6.06112 4.3 5.3 5.06112 5.3 6L5.3 16.028C5.3 16.9669 6.06112 17.728 7 17.728H11.4323C11.7913 17.728 12.0823 18.019 12.0823 18.378C12.0823 18.737 11.7913 19.028 11.4323 19.028H7C5.34315 19.028 4 17.6848 4 16.028L4 6C4 4.34314 5.34315 3 7 3L15.0262 3C16.683 3 18.0262 4.34315 18.0262 6V12.4076C18.0262 12.7666 17.7352 13.0576 17.3762 13.0576C17.0172 13.0576 16.7262 12.7666 16.7262 12.4076V6C16.7262 5.06112 15.9651 4.3 15.0262 4.3Z" fill="#717681"/>
<path d="M7.35455 7.54764C7.35455 7.18866 7.64557 6.89764 8.00455 6.89764L14.0241 6.89764C14.3831 6.89764 14.6741 7.18866 14.6741 7.54764C14.6741 7.90663 14.3831 8.19764 14.0241 8.19764H8.00455C7.64557 8.19764 7.35455 7.90663 7.35455 7.54764Z" fill="#717681"/>
<path d="M8.00455 10.4313C7.64557 10.4313 7.35455 10.7224 7.35455 11.0813C7.35455 11.4403 7.64557 11.7313 8.00455 11.7313H10.6314C10.9903 11.7313 11.2814 11.4403 11.2814 11.0813C11.2814 10.7224 10.9903 10.4313 10.6314 10.4313H8.00455Z" fill="#717681"/>
<path d="M17.2658 22.0035C16.9068 22.0035 16.6158 21.7125 16.6158 21.3535V18.9937H14.256C13.897 18.9937 13.606 18.7026 13.606 18.3437C13.606 17.9847 13.897 17.6937 14.256 17.6937H16.6158V15.3339C16.6158 14.9749 16.9068 14.6839 17.2658 14.6839C17.6248 14.6839 17.9158 14.9749 17.9158 15.3339V17.6937H20.2756C20.6346 17.6937 20.9256 17.9847 20.9256 18.3437C20.9256 18.7026 20.6346 18.9937 20.2756 18.9937H17.9158V21.3535C17.9158 21.7125 17.6248 22.0035 17.2658 22.0035Z" fill="#717681"/>
</svg>
