<svg width="24.000000" height="24.000000" viewBox="0 0 24 24" fill="none" xmlns="http://www.w3.org/2000/svg" xmlns:xlink="http://www.w3.org/1999/xlink">
	<desc>
			Created with Pixso.
	</desc>
	<defs>
		<clipPath id="clip17_679">
			<rect id="Outline / Add from template Outline" width="24.000000" height="24.000000" fill="white" fill-opacity="0"/>
		</clipPath>
	</defs>
	<g >
		<path id="Shape" d="M7 3C5.34 3 4 4.34 4 6L4 18C4 19.65 5.34 21 7 21L17 21C18.65 21 20 19.65 20 18L20 9.29C20 8.47 19.65 7.67 19.05 7.11L15.53 3.81C14.97 3.29 14.24 3 13.48 3L7 3ZM13.48 4.3L7 4.3C6.06 4.3 5.3 5.06 5.3 6L5.3 18C5.3 18.93 6.06 19.7 7 19.7L17 19.7C17.93 19.7 18.7 18.93 18.7 18L18.7 9.29C18.7 9.19 18.69 9.09 18.67 9L15.99 9C14.92 9 14.04 8.12 14.04 7.05L14.04 4.39C13.86 4.33 13.67 4.3 13.48 4.3ZM15.34 5.42L17.78 7.7L15.99 7.7C15.64 7.7 15.34 7.41 15.34 7.05L15.34 5.42ZM12.68 10.62C12.68 10.27 12.41 9.98 12.06 9.97C11.69 9.96 11.38 10.25 11.38 10.62C11.37 12.32 11.38 14.18 11.38 14.18L9.92 12.57C9.69 12.3 9.28 12.26 9 12.5C8.85 12.62 8.78 12.79 8.77 12.97C8.77 13.13 8.81 13.28 8.93 13.41L11.4 16.21C11.67 16.53 12.15 16.55 12.44 16.25L15 13.62C15.24 13.36 15.24 12.95 14.99 12.7C14.73 12.45 14.32 12.45 14.07 12.71L12.68 14.22L12.68 10.62Z" fill="#74767B" fill-opacity="1.000000" fill-rule="evenodd"/>
	</g>
</svg>
