<svg width="24.000000" height="24.000000" viewBox="0 0 24 24" fill="none" xmlns="http://www.w3.org/2000/svg" xmlns:xlink="http://www.w3.org/1999/xlink">
	<desc>
			Created with Pixso.
	</desc>
	<defs>
		<clipPath id="clip17_816">
			<rect id="Outline / Archive Outline" width="24.000000" height="24.000000" fill="white" fill-opacity="0"/>
		</clipPath>
	</defs>
	<g clip-path="url(#clip17_816)">
		<path id="Shape" d="M8.04 3.7C8.04 3.34 7.75 3.05 7.39 3.05L6.93 3.05C5.27 3.05 3.93 4.39 3.93 6.05L3.93 18C3.93 19.65 5.27 21 6.93 21L17 21C18.65 21 20 19.65 20 18L20 9.15C20 8.3 19.63 7.49 19 6.92L15.55 3.82C15 3.32 14.29 3.05 13.55 3.05L12.61 3.05C12.25 3.05 11.96 3.34 11.96 3.7C11.96 4.06 12.25 4.35 12.61 4.35L13.55 4.35C13.97 4.35 14.37 4.51 14.68 4.79L18.13 7.89C18.49 8.21 18.7 8.67 18.7 9.15L18.7 18C18.7 18.93 17.93 19.7 17 19.7L6.93 19.7C5.99 19.7 5.23 18.93 5.23 18L5.23 6.05C5.23 5.11 5.99 4.35 6.93 4.35L7.39 4.35C7.75 4.35 8.04 4.06 8.04 3.7ZM7.89 5.01C7.89 4.65 8.18 4.36 8.54 4.36L9.46 4.36C9.82 4.36 10.11 4.65 10.11 5.01C10.11 5.37 9.82 5.66 9.46 5.66L8.54 5.66C8.18 5.66 7.89 5.37 7.89 5.01ZM8.54 6.96C8.18 6.96 7.89 7.25 7.89 7.61C7.89 7.97 8.18 8.26 8.54 8.26L9.46 8.26C9.82 8.26 10.11 7.97 10.11 7.61C10.11 7.25 9.82 6.96 9.46 6.96L8.54 6.96ZM7.89 10.21C7.89 9.85 8.18 9.56 8.54 9.56L9.46 9.56C9.82 9.56 10.11 9.85 10.11 10.21C10.11 10.57 9.82 10.86 9.46 10.86L8.54 10.86C8.18 10.86 7.89 10.57 7.89 10.21ZM9.44 12.16C9.12 12.16 8.84 12.38 8.76 12.69L8.11 15.25C8 15.69 8.33 16.12 8.79 16.12L11.06 16.12C11.52 16.12 11.85 15.69 11.74 15.25L11.1 12.69C11.02 12.38 10.74 12.16 10.42 12.16L9.44 12.16ZM9.74 6.31C9.74 5.95 10.03 5.66 10.39 5.66L11.31 5.66C11.67 5.66 11.96 5.95 11.96 6.31C11.96 6.67 11.67 6.96 11.31 6.96L10.39 6.96C10.03 6.96 9.74 6.67 9.74 6.31ZM10.39 8.26C10.03 8.26 9.74 8.55 9.74 8.91C9.74 9.27 10.03 9.56 10.39 9.56L11.31 9.56C11.67 9.56 11.96 9.27 11.96 8.91C11.96 8.55 11.67 8.26 11.31 8.26L10.39 8.26Z" fill="#717681" fill-opacity="1.000000" fill-rule="evenodd"/>
	</g>
</svg>
