<svg width="24.000000" height="24.000000" viewBox="0 0 24 24" fill="none" xmlns="http://www.w3.org/2000/svg" xmlns:xlink="http://www.w3.org/1999/xlink">
	<desc>
			Created with Pixso.
	</desc>
	<defs>
		<clipPath id="clip118664_752">
			<rect id="Solid / Burn Card Solid" width="24.000000" height="24.000000" fill="white" fill-opacity="0"/>
		</clipPath>
	</defs>
	<g clip-path="url(#clip118664_752)">
		<path id="Shape" d="M7 3C5.34 3 4 4.34 4 6L4 18C4 19.65 5.34 21 7 21L17 21C18.65 21 20 19.65 20 18L20 6C20 4.34 18.65 3 17 3L7 3ZM13.43 15.7C13.43 15.46 13.43 15.22 13.31 15.01C13.06 14.54 12.56 14.22 12 14.22C11.54 14.22 11.13 14.43 10.85 14.76C10.65 14.99 10.62 15.33 10.58 15.66C10.53 16.08 10.49 16.47 10.11 16.58C9.98 16.61 9.85 16.6 9.76 16.55C9.13 16.16 8.63 15.61 8.32 14.96C7.62 13.48 8.09 11.66 9.3 10.07C9.98 9.18 11.33 8.11 12.33 7.4C12.58 7.22 13.03 7.56 13.01 7.87C12.97 8.59 13.13 9.41 13.69 9.96C13.88 10.15 14.08 10.33 14.27 10.51C15.18 11.34 16 12.1 16 13.58C16 14.76 15.41 15.96 14.25 16.62C14.05 16.74 13.75 16.69 13.59 16.45C13.44 16.23 13.44 15.97 13.43 15.7Z" fill="#74767B" fill-opacity="1.000000" fill-rule="evenodd"/>
		<path id="Shape" d="" fill="#000000" fill-opacity="0" fill-rule="evenodd"/>
	</g>
</svg>
