<svg width="24.000000" height="24.000000" viewBox="0 0 24 24" fill="none" xmlns="http://www.w3.org/2000/svg" xmlns:xlink="http://www.w3.org/1999/xlink">
	<desc>
			Created with Pixso.
	</desc>
	<defs>
		<clipPath id="clip118664_751">
			<rect id="Outline / Burn Card Outline" width="24.000000" height="24.000000" fill="white" fill-opacity="0"/>
		</clipPath>
	</defs>
	<g clip-path="url(#clip118664_751)">
		<path id="Shape" d="M7 3C5.34 3 4 4.34 4 6L4 18C4 19.65 5.34 21 7 21L17 21C18.65 21 20 19.65 20 18L20 6C20 4.34 18.65 3 17 3L7 3ZM17 4.29L7 4.29C6.06 4.29 5.3 5.06 5.3 6L5.3 18C5.3 18.93 6.06 19.7 7 19.7L17 19.7C17.93 19.7 18.7 18.93 18.7 18L18.7 6C18.7 5.06 17.93 4.29 17 4.29ZM11.71 7.68C10.83 8.34 9.84 9.17 9.3 9.89C8.09 11.48 7.62 13.3 8.32 14.78C8.72 15.61 9.42 16.27 10.31 16.65C10.36 16.67 10.42 16.68 10.47 16.67C10.74 16.64 10.78 16.38 10.83 16.09C10.86 15.87 10.9 15.65 11.02 15.5C11.21 15.28 11.48 15.14 11.79 15.14C12.14 15.14 12.45 15.33 12.63 15.6C12.73 15.75 12.74 15.94 12.75 16.13C12.76 16.33 12.77 16.53 12.9 16.69C13.01 16.82 13.18 16.87 13.31 16.83C15.09 16.35 16 14.87 16 13.4C16 11.92 15.18 11.16 14.27 10.33C14.08 10.15 13.88 9.97 13.69 9.78C13.29 9.38 13.09 8.85 13.03 8.32L13.03 8.32C13.02 8.27 13.02 8.23 13.02 8.18C13 8.02 13 7.85 13.01 7.69C13.03 7.38 12.58 7.04 12.33 7.22C12.16 7.34 11.98 7.47 11.79 7.61L11.71 7.67L11.71 7.68ZM13.85 15.15C14.42 14.71 14.7 14.05 14.7 13.4C14.7 12.54 14.32 12.14 13.39 11.28L13.38 11.28C13.19 11.1 12.98 10.91 12.77 10.7C12.32 10.25 12.04 9.72 11.89 9.19C11.25 9.7 10.67 10.23 10.33 10.68C9.28 12.07 9.09 13.37 9.5 14.22C9.6 14.44 9.74 14.64 9.91 14.82C9.94 14.77 9.99 14.71 10.03 14.65C10.45 14.16 11.08 13.84 11.79 13.84C12.6 13.84 13.31 14.27 13.72 14.9C13.77 14.98 13.82 15.07 13.85 15.15Z" fill="#717681" fill-opacity="1.000000" fill-rule="evenodd"/>
	</g>
</svg>
