<svg width="24.000000" height="24.000000" viewBox="0 0 24 24" fill="none" xmlns="http://www.w3.org/2000/svg" xmlns:xlink="http://www.w3.org/1999/xlink">
	<desc>
			Created with Pixso.
	</desc>
	<defs>
		<clipPath id="clip17_665">
			<rect id="Outline / Catalog Outline" width="24.000000" height="24.000000" fill="white" fill-opacity="0"/>
		</clipPath>
	</defs>
	<g>
		<path id="Shape" d="M21.01 8.17C21.01 8.49 20.8 8.82 20.38 8.82L19 8.82L19 15.19L20.38 15.19C20.74 15.19 21.04 15.49 21.04 15.84C21.04 16.2 20.74 16.49 20.38 16.49L19 16.49L19 17.99C19 19.64 17.65 20.99 16 20.99L7 20.99C5.34 20.99 4 19.65 4 17.99L4 6.03C4 4.37 5.34 3.03 7 3.03L16 3.03C17.65 3.03 19 4.37 19 6.03L19 7.52L20.38 7.52C20.8 7.52 21.01 7.84 21.01 8.17ZM17.7 6.03C17.7 5.09 16.93 4.33 16 4.33L7 4.33C6.06 4.33 5.3 5.09 5.3 6.03L5.3 17.99C5.3 18.93 6.06 19.69 7 19.69L16 19.69C16.93 19.69 17.7 18.93 17.7 17.99L17.7 6.03ZM9.5 8.22C9.5 8.77 9.05 9.22 8.5 9.22C7.94 9.22 7.5 8.77 7.5 8.22C7.5 7.67 7.94 7.22 8.5 7.22C9.05 7.22 9.5 7.67 9.5 8.22ZM15.37 8.22C15.37 8.58 15.07 8.87 14.72 8.87L11.5 8.87C11.14 8.87 10.85 8.58 10.85 8.22C10.85 7.86 11.14 7.57 11.5 7.57L14.72 7.57C15.07 7.57 15.37 7.86 15.37 8.22ZM9.52 11.99C9.52 12.55 9.07 12.99 8.52 12.99C7.97 12.99 7.52 12.55 7.52 11.99C7.52 11.44 7.97 10.99 8.52 10.99C9.07 10.99 9.52 11.44 9.52 11.99ZM15.38 11.99C15.38 12.35 15.08 12.64 14.73 12.64L11.51 12.64C11.15 12.64 10.86 12.35 10.86 11.99C10.86 11.64 11.15 11.34 11.51 11.34L14.73 11.34C15.08 11.34 15.38 11.64 15.38 11.99ZM8.52 16.8C7.97 16.8 7.52 16.35 7.52 15.8C7.52 15.25 7.97 14.8 8.52 14.8C9.07 14.8 9.52 15.25 9.52 15.8C9.52 16.35 9.07 16.8 8.52 16.8ZM15.37 15.82C15.37 16.18 15.07 16.47 14.72 16.47L11.5 16.47C11.14 16.47 10.85 16.18 10.85 15.82C10.85 15.47 11.14 15.17 11.5 15.17L14.72 15.17C15.07 15.17 15.37 15.47 15.37 15.82Z" fill="#717681" fill-opacity="1.000000" fill-rule="evenodd"/>
	</g>
</svg>
