<svg width="24.000000" height="24.000000" viewBox="0 0 24 24" fill="none" xmlns="http://www.w3.org/2000/svg" xmlns:xlink="http://www.w3.org/1999/xlink">
	<desc>
			Created with Pixso.
	</desc>
	<defs>
		<clipPath id="clip8130_866">
			<rect id="Solid / Component template Solid" width="24.000000" height="24.000000" fill="white" fill-opacity="0"/>
		</clipPath>
	</defs>
	<g clip-path="url(#clip8130_866)">
		<path id="Shape" d="M7 3C5.34 3 4 4.34 4 6L4 18C4 19.65 5.34 21 7 21L17 21C18.65 21 20 19.65 20 18L20 9.29C20 8.47 19.65 7.67 19.05 7.11L15.53 3.81C14.97 3.29 14.24 3 13.48 3L7 3ZM18.4 8.4C18.62 8.62 18.46 8.99 18.15 8.99L15.33 9C14.59 9 14 8.36 14 7.57L14 4.84C14 4.53 14.37 4.37 14.59 4.59L18.4 8.4ZM9.82 10.93C10.11 11.15 10.16 11.56 9.94 11.84L9.08 12.96L9.94 14.11C10.16 14.4 10.1 14.8 9.81 15.02C9.53 15.24 9.12 15.18 8.9 14.89L7.74 13.34C7.57 13.11 7.57 12.78 7.75 12.55L8.91 11.05C9.13 10.76 9.54 10.71 9.82 10.93ZM14.05 14.1C13.83 14.39 13.88 14.79 14.17 15.01C14.45 15.23 14.86 15.18 15.08 14.9L16.24 13.39C16.42 13.16 16.42 12.84 16.25 12.61L15.09 11.05C14.87 10.77 14.46 10.71 14.18 10.92C13.89 11.14 13.83 11.55 14.05 11.83L14.91 12.99L14.05 14.1ZM12.62 10.7C12.96 10.79 13.17 11.15 13.08 11.5L12.21 14.79C12.12 15.14 11.76 15.34 11.41 15.25C11.07 15.16 10.86 14.8 10.95 14.46L11.82 11.16C11.91 10.82 12.27 10.61 12.62 10.7Z" fill="#717681" fill-opacity="1.000000" fill-rule="evenodd"/>
	</g>
</svg>
