<svg width="24.000000" height="24.000000" viewBox="0 0 24 24" fill="none" xmlns="http://www.w3.org/2000/svg" xmlns:xlink="http://www.w3.org/1999/xlink">
	<desc>
			Created with Pixso.
	</desc>
	<defs>
		<clipPath id="clip17_662">
			<rect id="Outline / Copy Outline" width="24.000000" height="24.000000" fill="white" fill-opacity="0"/>
		</clipPath>
	</defs>
	<g clip-path="url(#clip17_662)">
		<path id="Shape" d="M20.65 18C20.65 19.66 19.3 21 17.65 21L9.65 21C8.34 21 7.22 20.16 6.81 18.99C6.57 18.98 6.34 18.94 6.12 18.87C5.84 18.78 5.66 18.53 5.66 18.25C5.66 18.18 5.67 18.12 5.69 18.06C5.79 17.71 6.15 17.52 6.5 17.62C6.55 17.64 6.6 17.65 6.65 17.66L6.65 8C6.65 6.34 7.99 5 9.65 5L16.81 5C16.8 4.95 16.79 4.9 16.77 4.85C16.75 4.79 16.74 4.72 16.74 4.66C16.74 4.38 16.92 4.12 17.2 4.04C17.55 3.93 17.91 4.13 18.01 4.47C18.07 4.65 18.11 4.84 18.13 5.04C19.56 5.27 20.65 6.51 20.65 8L20.65 18ZM9.65 19.7L17.65 19.7C18.58 19.7 19.35 18.94 19.35 18L19.35 8C19.35 7.06 18.58 6.3 17.65 6.3L9.65 6.3C8.71 6.3 7.94 7.06 7.94 8L7.94 18C7.94 18.94 8.71 19.7 9.65 19.7ZM5.37 16.5C5.39 16.56 5.4 16.62 5.4 16.69C5.4 16.96 5.22 17.22 4.94 17.31C4.59 17.41 4.23 17.22 4.13 16.87C4.04 16.6 4 16.3 4 16L4 15.05C4 14.7 4.29 14.4 4.65 14.4C5 14.4 5.3 14.7 5.3 15.05L5.3 16C5.3 16.17 5.32 16.34 5.37 16.5ZM5.3 11.94C5.3 12.3 5 12.59 4.65 12.59C4.29 12.59 4 12.3 4 11.94L4 10.05C4 9.69 4.29 9.4 4.65 9.4C5 9.4 5.3 9.69 5.3 10.05L5.3 11.94ZM5.3 6.94C5.3 7.3 5 7.59 4.65 7.59C4.29 7.59 4 7.3 4 6.94L4 5.99C4 5.63 4.05 5.27 4.15 4.93C4.26 4.59 4.62 4.39 4.97 4.5C5.25 4.58 5.43 4.84 5.43 5.12C5.43 5.18 5.42 5.24 5.4 5.31C5.33 5.52 5.3 5.76 5.3 5.99L5.3 6.94ZM6.96 3.75C6.62 3.85 6.25 3.66 6.15 3.31C6.13 3.25 6.12 3.19 6.12 3.12C6.12 2.85 6.3 2.59 6.58 2.5C6.92 2.4 7.28 2.34 7.65 2.34L8.29 2.34C8.65 2.34 8.94 2.64 8.94 2.99C8.94 3.35 8.65 3.64 8.29 3.64L7.65 3.64C7.41 3.64 7.18 3.68 6.96 3.75ZM16.02 2.48C16.3 2.56 16.48 2.82 16.48 3.1C16.48 3.16 16.47 3.22 16.45 3.29C16.35 3.63 15.98 3.82 15.64 3.72C15.48 3.67 15.32 3.64 15.14 3.64L14.37 3.64C14.01 3.64 13.72 3.35 13.72 2.99C13.72 2.64 14.01 2.34 14.37 2.34L15.14 2.34C15.45 2.34 15.74 2.39 16.02 2.48ZM10.42 3.64C10.07 3.64 9.77 3.35 9.77 2.99C9.77 2.64 10.07 2.34 10.42 2.34L11.84 2.34C12.2 2.34 12.49 2.64 12.49 2.99C12.49 3.35 12.2 3.64 11.84 3.64L10.42 3.64Z" fill="#717681" fill-opacity="1.000000" fill-rule="evenodd"/>
	</g>
</svg>
