<svg viewBox="0 0 24 24" xmlns="http://www.w3.org/2000/svg" xmlns:xlink="http://www.w3.org/1999/xlink" width="24.000000" height="24.000000" fill="none">
	<rect id="Solid/Copy Solid" width="24.000000" height="24.000000" x="0.000000" y="0.000000" />
	<path id="Shape" d="M16.6495 3C16.6495 1.34315 15.3064 0 13.6495 0L5.64954 0C4.34132 0 3.22867 0.837372 2.81836 2.00537C2.57862 2.0197 2.3458 2.06229 2.12349 2.13009C1.84332 2.21555 1.66295 2.47313 1.66295 2.75159C1.66295 2.81439 1.67213 2.87826 1.6914 2.94145C1.79613 3.28482 2.15939 3.47827 2.50275 3.37354C2.55075 3.3589 2.5997 3.34632 2.64954 3.33591L2.64954 13C2.64954 14.6569 3.99269 16 5.64954 16L12.8137 16C12.8032 16.0502 12.7906 16.0995 12.7758 16.1478C12.7565 16.211 12.7474 16.2749 12.7474 16.3377C12.7474 16.6162 12.9277 16.8737 13.2079 16.9592C13.5513 17.0639 13.9145 16.8705 14.0193 16.5271C14.0748 16.3449 14.1135 16.1555 14.1336 15.9612C15.5603 15.7297 16.6495 14.4921 16.6495 13L16.6495 3ZM1.37358 4.50272C1.39285 4.43953 1.40203 4.37566 1.40203 4.31286C1.40203 4.0344 1.22166 3.77682 0.941485 3.69136C0.598116 3.58663 0.234861 3.78009 0.130131 4.12346C0.0453634 4.40138 0 4.69574 0 4.99951L0 5.94326C0 6.30224 0.291015 6.59326 0.65 6.59326C1.00899 6.59326 1.3 6.30224 1.3 5.94326L1.3 4.99951C1.3 4.82568 1.32589 4.65907 1.37358 4.50272ZM1.3 9.05761C1.3 8.69863 1.00899 8.40761 0.65 8.40761C0.291015 8.40761 0 8.69863 0 9.05761L0 10.9451C0 11.3041 0.291015 11.5951 0.65 11.5951C1.00899 11.5951 1.3 11.3041 1.3 10.9451L1.3 9.05761ZM1.3 14.0595C1.3 13.7005 1.00899 13.4095 0.65 13.4095C0.291015 13.4095 0 13.7005 0 14.0595L0 15.0032C0 15.3731 0.0552264 15.7313 0.158329 16.0693C0.263059 16.4127 0.626314 16.6061 0.969683 16.5014C1.24986 16.4159 1.43023 16.1583 1.43023 15.8799C1.43023 15.8171 1.42105 15.7532 1.40178 15.69C1.33575 15.4736 1.3 15.2432 1.3 15.0032L1.3 14.0595ZM2.96318 17.2514C2.61981 17.1467 2.25655 17.3402 2.15182 17.6835C2.13255 17.7467 2.12337 17.8106 2.12337 17.8734C2.12337 18.1518 2.30374 18.4094 2.58392 18.4949C2.92195 18.598 3.28012 18.6532 3.65 18.6532L4.29618 18.6532C4.65517 18.6532 4.94618 18.3622 4.94618 18.0032C4.94618 17.6442 4.65517 17.3532 4.29618 17.3532L3.65 17.3532C3.41005 17.3532 3.17964 17.3175 2.96318 17.2514ZM12.0234 18.5229C12.3036 18.4375 12.484 18.1799 12.484 17.9014C12.484 17.8386 12.4748 17.7747 12.4555 17.7116C12.3508 17.3682 11.9875 17.1747 11.6442 17.2795C11.4875 17.3273 11.3205 17.3532 11.1463 17.3532L10.3781 17.3532C10.0191 17.3532 9.72809 17.6442 9.72809 18.0032C9.72809 18.3622 10.0191 18.6532 10.3781 18.6532L11.1463 18.6532C11.4505 18.6532 11.7452 18.6078 12.0234 18.5229ZM6.42859 17.3532C6.06961 17.3532 5.77859 17.6442 5.77859 18.0032C5.77859 18.3622 6.06961 18.6532 6.42859 18.6532L7.84299 18.6532C8.20197 18.6532 8.49299 18.3622 8.49299 18.0032C8.49299 17.6442 8.20197 17.3532 7.84299 17.3532L6.42859 17.3532Z" fill="rgb(116,118,123)" fill-rule="evenodd" transform="matrix(1,0,0,-1,4.00049,21.0032)" />
</svg>
