<svg viewBox="0 0 24 24" xmlns="http://www.w3.org/2000/svg" xmlns:xlink="http://www.w3.org/1999/xlink" width="24.000000" height="24.000000" fill="none">
	<rect id="Outline/Crop Outline" width="24.000000" height="24.000000" x="0.000000" y="0.000000" />
	<path id="Shape" d="M7.6501 15.02L7.6501 3.67997C7.6501 3.31597 7.3641 3.02997 7.0001 3.02997C6.6361 3.02997 6.3501 3.31597 6.3501 3.67997L6.3501 5.69998L3.66025 5.69998C3.29625 5.69998 3.01025 5.98598 3.01025 6.34998C3.01025 6.71398 3.29625 6.99998 3.66025 6.99998L6.3501 6.99998L6.3501 15.02C6.3501 15.3859 6.41478 15.7249 6.54414 16.0373C6.6735 16.3496 6.86754 16.6351 7.12626 16.8938C7.38499 17.1525 7.6705 17.3466 7.9828 17.4759C8.29511 17.6053 8.63421 17.67 9.0001 17.67L17 17.67L17 20.32C17 20.684 17.286 20.97 17.65 20.97C18.014 20.97 18.3 20.684 18.3 20.32L18.3 17.67L20.3401 17.67C20.7041 17.67 20.9901 17.384 20.9901 17.02C20.9901 16.656 20.7041 16.37 20.3401 16.37L9.0001 16.37C8.81371 16.37 8.64096 16.337 8.48186 16.2711C8.32276 16.2052 8.17731 16.1064 8.0455 15.9746C7.9137 15.8428 7.81485 15.6973 7.74895 15.5382C7.68305 15.3791 7.6501 15.2064 7.6501 15.02ZM9.15 5.69998L15.65 5.69998C16.0159 5.69998 16.355 5.76466 16.6673 5.89402C16.9796 6.02338 17.2651 6.21743 17.5238 6.47615C17.7826 6.73487 17.9766 7.02038 18.106 7.33269C18.2353 7.645 18.3 7.98409 18.3 8.34998L18.3 14.85C18.3 15.214 18.014 15.5 17.65 15.5C17.286 15.5 17 15.214 17 14.85L17 8.34998C17 8.16359 16.967 7.99084 16.9011 7.83174C16.8352 7.67264 16.7364 7.52719 16.6046 7.39539C16.4728 7.26359 16.3273 7.16474 16.1682 7.09883C16.0091 7.03293 15.8364 6.99998 15.65 6.99998L9.15 6.99998C8.786 6.99998 8.5 6.71398 8.5 6.34998C8.5 5.98598 8.786 5.69998 9.15 5.69998Z" fill="rgb(116,118,123)" fill-rule="evenodd" />
</svg>
