<svg viewBox="0 0 24 24" xmlns="http://www.w3.org/2000/svg" xmlns:xlink="http://www.w3.org/1999/xlink" width="24.000000" height="24.000000" fill="none">
	<rect id="Solid/Crop Solid" width="24.000000" height="24.000000" x="0.000000" y="0.000000" />
	<path id="Shape" d="M21 6C21 4.34315 19.6569 3 18 3L6 3C4.34315 3 3 4.34315 3 6L3 18C3 19.6569 4.34315 21 6 21L18 21C19.6569 21 21 19.6569 21 18L21 6ZM8.6498 5.66001L8.64961 13.96C8.64961 14.1463 8.68255 14.3191 8.74844 14.4781C8.81434 14.6373 8.9132 14.7828 9.04503 14.9146C9.17684 15.0464 9.3223 15.1452 9.48142 15.2112C9.64051 15.277 9.81326 15.31 9.99965 15.31L18.2996 15.31C18.6636 15.31 18.9496 15.596 18.9496 15.96C18.9496 16.324 18.6636 16.61 18.2996 16.61L16.9997 16.61L16.9997 18.3022C16.9997 18.6662 16.7137 18.9522 16.3497 18.9522C15.9857 18.9522 15.6997 18.6662 15.6997 18.3022L15.6997 16.61L9.99965 16.61C9.63376 16.61 9.29466 16.5453 8.98236 16.416C8.67004 16.2866 8.38452 16.0925 8.12579 15.8338C7.86708 15.5751 7.67305 15.2896 7.54368 14.9773L7.54366 14.9773C7.41429 14.665 7.34961 14.3258 7.34961 13.9599L7.34974 8.29999L5.65977 8.29999C5.29577 8.29999 5.00977 8.01399 5.00977 7.64999C5.00977 7.28599 5.29577 6.99999 5.65977 6.99999L7.34977 6.99999L7.3498 5.65998C7.34981 5.29598 7.63582 5.00999 7.99982 5.00999C8.36382 5.01 8.64981 5.29601 8.6498 5.66001ZM14.3497 7.00999L10.3497 7.00999C9.98571 7.00999 9.69971 7.29599 9.69971 7.65999C9.69971 8.02399 9.98571 8.30999 10.3497 8.30999L14.3497 8.30999C14.5361 8.30999 14.7089 8.34295 14.868 8.40885C15.027 8.47475 15.1725 8.5736 15.3043 8.7054C15.4361 8.8372 15.535 8.98265 15.6009 9.14175C15.6668 9.30085 15.6997 9.4736 15.6997 9.65999L15.6997 13.66C15.6997 14.024 15.9857 14.31 16.3497 14.31C16.7137 14.31 16.9997 14.024 16.9997 13.66L16.9997 9.65999C16.9997 9.29411 16.935 8.95501 16.8057 8.6427C16.6763 8.3304 16.4823 8.04488 16.2235 7.78616C15.9648 7.52744 15.6793 7.3334 15.367 7.20404C15.0547 7.07467 14.7156 7.00999 14.3497 7.00999Z" fill="rgb(116,118,123)" fill-rule="evenodd" />
</svg>
