<svg width="24" height="24" viewBox="0 0 24 24" fill="none" xmlns="http://www.w3.org/2000/svg">
<path fill-rule="evenodd" clip-rule="evenodd" d="M5.06778 2.22672C4.84888 1.9422 4.44077 1.88901 4.15626 2.10792C3.87174 2.32683 3.81855 2.73493 4.03746 3.01945L6.6702 6.44129V6.44242L7.9702 8.13206V8.13093L18.4666 21.7733C18.6855 22.0578 19.0936 22.111 19.3781 21.8921C19.6626 21.6732 19.7158 21.2651 19.4969 20.9806L18.1691 19.2548C19.5785 19.009 20.65 17.7794 20.65 16.2996V6.30511C20.65 4.64825 19.3068 3.30511 17.6499 3.30511H9.6702C8.55365 3.30511 7.57958 3.91507 7.06301 4.81996L5.06778 2.22672ZM7.99264 6.02822C8.12486 5.22103 8.8256 4.60511 9.6702 4.60511H17.6499C18.5888 4.60511 19.3499 5.36623 19.3499 6.30511V16.2996C19.3499 17.2385 18.5888 17.9996 17.6499 17.9996H17.2033L7.99264 6.02822Z" fill="#717681"/>
<path d="M4.62833 8.6814C4.98731 8.6814 5.27833 8.97241 5.27833 9.3314V18.3514C5.27833 19.6492 6.33046 20.7014 7.62833 20.7014H15.6291C15.9881 20.7014 16.2791 20.9924 16.2791 21.3514C16.2791 21.7104 15.9881 22.0014 15.6291 22.0014H7.62833C5.61249 22.0014 3.97833 20.3672 3.97833 18.3514V9.3314C3.97833 8.97241 4.26934 8.6814 4.62833 8.6814Z" fill="#717681"/>
<path d="M9.6702 17.9996H13.922L14.9222 19.2996H9.6702C8.01335 19.2996 6.6702 17.9565 6.6702 16.2996V8.57429L7.9702 10.2639V16.2996C7.9702 17.2385 8.73132 17.9996 9.6702 17.9996Z" fill="#717681"/>
</svg>
