<svg width="24.000000" height="24.000000" viewBox="0 0 24 24" fill="none" xmlns="http://www.w3.org/2000/svg" xmlns:xlink="http://www.w3.org/1999/xlink">
	<desc>
			Created with Pixso.
	</desc>
	<defs>
		<clipPath id="clip1728_754">
			<rect id="Outline / Delete Document Outline" width="24.000000" height="24.000000" transform="matrix(1 -6.12324e-17 -6.12324e-17 -1 0 24)" fill="white" fill-opacity="0"/>
		</clipPath>
	</defs>
	<g>
		<path id="Shape" d="M5.17 2.22C4.95 1.94 4.54 1.88 4.26 2.1C3.97 2.32 3.92 2.73 4.14 3.01L4.84 3.92L5.64 4.97L16.97 19.7L16.97 19.7L17.87 20.86L18.57 21.77C18.79 22.05 19.2 22.11 19.48 21.89C19.76 21.67 19.82 21.26 19.6 20.98L19.01 20.21C19.62 19.67 20 18.87 20 18L20 5.99C20 4.34 18.65 3 17 3L7 3C6.62 3 6.26 3.07 5.92 3.2L5.17 2.22ZM7 4.3C6.93 4.3 6.85 4.3 6.78 4.31L18.22 19.18C18.51 18.87 18.7 18.45 18.7 18L18.7 5.99C18.7 5.06 17.93 4.3 17 4.3L7 4.3ZM15.33 19.7L7 19.7C6.06 19.7 5.3 18.93 5.3 18L5.3 6.66L4.13 5.13C4.05 5.41 4 5.7 4 5.99L4 18C4 19.65 5.35 21 7 21L16.33 21L15.33 19.7Z" fill="#717681" fill-opacity="1.000000" fill-rule="evenodd"/>
	</g>
</svg>
