<svg width="24.000000" height="24.000000" viewBox="0 0 24 24" fill="none" xmlns="http://www.w3.org/2000/svg" xmlns:xlink="http://www.w3.org/1999/xlink">
	<desc>
			Created with Pixso.
	</desc>
	<defs>
		<clipPath id="clip1728_756">
			<rect id="Solid / Delete Docs Solid" width="24.000000" height="24.000000" transform="matrix(1 -6.12324e-17 -6.12324e-17 -1 0 24)" fill="white" fill-opacity="0"/>
		</clipPath>
	</defs>
	<g clip-path="url(#clip1728_756)">
		<path id="Shape" d="M5.06 2.22C4.84 1.94 4.44 1.88 4.15 2.1C3.87 2.32 3.81 2.73 4.03 3.01L6.67 6.44L6.67 6.44L18.46 21.77C18.68 22.05 19.09 22.11 19.37 21.89C19.66 21.67 19.71 21.26 19.49 20.98L18.16 19.25C19.57 19 20.64 17.77 20.64 16.29L20.64 6.3C20.64 4.64 19.3 3.3 17.64 3.3L9.67 3.3C8.55 3.3 7.57 3.91 7.06 4.81L5.06 2.22ZM14.92 19.29L9.67 19.29C8.01 19.29 6.67 17.95 6.67 16.29L6.67 8.57L14.92 19.29ZM4.62 8.68C4.98 8.68 5.27 8.97 5.27 9.33L5.27 18.35C5.27 19.64 6.33 20.7 7.62 20.7L15.62 20.7C15.98 20.7 16.27 20.99 16.27 21.35C16.27 21.71 15.98 22 15.62 22L7.62 22C5.61 22 3.97 20.36 3.97 18.35L3.97 9.33C3.97 8.97 4.26 8.68 4.62 8.68Z" fill="#74767B" fill-opacity="1.000000" fill-rule="evenodd"/>
	</g>
</svg>
