<svg width="24.000000" height="24.000000" viewBox="0 0 24 24" fill="none" xmlns="http://www.w3.org/2000/svg" xmlns:xlink="http://www.w3.org/1999/xlink">
	<desc>
			Created with Pixso.
	</desc>
	<defs>
		<clipPath id="clip17_694">
			<rect id="Solid / Doc operations Solid" width="24.000000" height="24.000000" fill="white" fill-opacity="0"/>
		</clipPath>
	</defs>
	<g>
		<path id="Shape" d="M17 3C18.65 3 20 4.34 20 6L20 18C20 19.65 18.65 21 17 21L7 21C5.35 21 4 19.65 4 18L4 6C4 4.34 5.35 3 7 3L17 3ZM10.47 10.5C10.6 10.64 10.77 10.71 10.95 10.71C11.11 10.71 11.26 10.66 11.39 10.54L13.43 8.51C13.74 8.23 13.74 7.75 13.43 7.47L11.39 5.48C11.12 5.24 10.71 5.26 10.47 5.52C10.23 5.79 10.24 6.2 10.51 6.44L11.39 7.34C11.23 7.34 11.15 7.34 11.08 7.34C10.97 7.34 10.91 7.34 10.63 7.35C8.62 7.35 6.98 8.98 6.98 11L6.98 11.35C6.98 11.7 7.27 12 7.63 12C7.99 12 8.28 11.7 8.28 11.35L8.28 11C8.28 9.7 9.33 8.65 10.63 8.65L11.39 8.65L10.51 9.58C10.25 9.82 10.23 10.23 10.47 10.5ZM13.51 13.49C13.38 13.35 13.21 13.28 13.03 13.28C12.87 13.28 12.72 13.33 12.59 13.45L10.55 15.48C10.24 15.76 10.24 16.24 10.55 16.52L12.59 18.51C12.86 18.75 13.27 18.73 13.51 18.47C13.75 18.2 13.74 17.79 13.47 17.55L12.59 16.65C12.75 16.65 12.84 16.65 12.9 16.65C13.02 16.65 13.07 16.65 13.35 16.64C15.37 16.64 17 15.01 17 12.99L17 12.64C17 12.28 16.71 11.99 16.35 11.99C15.99 11.99 15.7 12.28 15.7 12.64L15.7 12.99C15.7 14.29 14.65 15.34 13.35 15.34L12.59 15.34L13.47 14.41C13.73 14.17 13.75 13.76 13.51 13.49Z" fill="#717681" fill-opacity="1.000000" fill-rule="evenodd"/>
	</g>
</svg>
