<svg width="24.000000" height="24.000000" viewBox="0 0 24 24" fill="none" xmlns="http://www.w3.org/2000/svg" xmlns:xlink="http://www.w3.org/1999/xlink">
	<desc>
			Created with Pixso.
	</desc>
	<defs>
		<clipPath id="clip17_756">
			<rect id="Outline / Doc View Outline" width="24.000000" height="24.000000" fill="white" fill-opacity="0"/>
		</clipPath>
	</defs>
	<g clip-path="url(#clip17_756)">
		<path id="Shape" d="M20 6C20 4.34 18.65 3 17 3L7 3C5.35 3 4 4.34 4 6L4 18C4 19.65 5.35 21 7 21L17 21C18.65 21 20 19.65 20 18L20 6ZM17 4.29L7 4.29C6.06 4.29 5.3 5.06 5.3 6L5.3 18C5.3 18.93 6.06 19.7 7 19.7L17 19.7C17.93 19.7 18.7 18.93 18.7 18L18.7 6C18.7 5.06 17.93 4.29 17 4.29ZM7.21 11.24C7.93 10.09 9.55 8.01 12 8.01C14.44 8.01 16.07 10.09 16.79 11.24C17.07 11.69 17.07 12.28 16.79 12.73C16.07 13.88 14.44 15.95 12 15.95C9.55 15.95 7.93 13.88 7.21 12.73C6.93 12.28 6.93 11.69 7.21 11.24ZM9.78 10.2C9.13 10.74 8.63 11.41 8.31 11.92C8.31 11.93 8.3 11.96 8.3 11.98C8.3 12.01 8.31 12.03 8.31 12.04C8.63 12.55 9.13 13.23 9.78 13.77C10.43 14.3 11.17 14.65 12 14.65C12.83 14.65 13.57 14.3 14.21 13.77C14.87 13.23 15.37 12.55 15.68 12.04C15.69 12.03 15.7 12.01 15.7 11.98C15.7 11.96 15.69 11.93 15.68 11.92C15.37 11.41 14.87 10.74 14.21 10.2C13.57 9.66 12.83 9.31 12 9.31C11.17 9.31 10.43 9.66 9.78 10.2ZM12 13.73C12.95 13.73 13.73 12.95 13.73 12C13.73 11.04 12.95 10.26 12 10.26C11.04 10.26 10.26 11.04 10.26 12C10.26 12.95 11.04 13.73 12 13.73Z" fill="#717681" fill-opacity="1.000000" fill-rule="evenodd"/>
	</g>
</svg>
