<svg width="24.000000" height="24.000000" viewBox="0 0 24 24" fill="none" xmlns="http://www.w3.org/2000/svg" xmlns:xlink="http://www.w3.org/1999/xlink">
	<desc>
			Created with Pixso.
	</desc>
	<defs>
		<clipPath id="clip17_765">
			<rect id="Solid / Doc Settings Solid" width="24.000000" height="24.000000" fill="white" fill-opacity="0"/>
		</clipPath>
	</defs>
	<g clip-path="url(#clip17_765)">
		<path id="Shape" d="M20 6C20 4.34 18.65 3 17 3L7 3C5.35 3 4 4.34 4 6L4 18C4 19.65 5.35 21 7 21L17 21C18.65 21 20 19.65 20 18L20 6ZM12.65 7.21C12.65 6.85 12.36 6.56 12 6.56C11.64 6.56 11.35 6.85 11.35 7.21L11.35 8.11C10.73 8.2 10.16 8.44 9.67 8.79L9.04 8.16C8.79 7.91 8.38 7.91 8.12 8.16C7.87 8.42 7.87 8.83 8.12 9.08L8.74 9.7C8.38 10.19 8.13 10.77 8.02 11.39L7.17 11.39C6.81 11.39 6.52 11.68 6.52 12.04C6.52 12.4 6.81 12.69 7.17 12.69L8.02 12.69C8.12 13.32 8.36 13.9 8.72 14.4L8.12 15C7.87 15.25 7.87 15.66 8.12 15.92C8.38 16.17 8.79 16.17 9.04 15.92L9.64 15.32C10.14 15.68 10.72 15.92 11.35 16.02L11.35 16.87C11.35 17.23 11.64 17.52 12 17.52C12.36 17.52 12.65 17.23 12.65 16.87L12.65 16.01C13.27 15.91 13.85 15.66 14.34 15.3L14.96 15.92C15.21 16.17 15.62 16.17 15.87 15.92C16.13 15.66 16.13 15.25 15.87 15L15.25 14.37C15.6 13.88 15.84 13.31 15.93 12.69L16.83 12.69C17.19 12.69 17.48 12.4 17.48 12.04C17.48 11.68 17.19 11.39 16.83 11.39L15.92 11.39C15.82 10.78 15.58 10.21 15.23 9.73L15.87 9.08C16.13 8.83 16.13 8.42 15.87 8.16C15.62 7.91 15.21 7.91 14.96 8.16L14.31 8.81C13.83 8.46 13.26 8.22 12.65 8.11L12.65 7.21ZM11.97 14.77C13.47 14.77 14.68 13.56 14.68 12.06C14.68 10.57 13.47 9.36 11.97 9.36C10.48 9.36 9.27 10.57 9.27 12.06C9.27 13.56 10.48 14.77 11.97 14.77ZM13.01 12.1C13.01 12.65 12.56 13.1 12.01 13.1C11.46 13.1 11.01 12.65 11.01 12.1C11.01 11.55 11.46 11.1 12.01 11.1C12.56 11.1 13.01 11.55 13.01 12.1Z" fill="#717681" fill-opacity="1.000000" fill-rule="evenodd"/>
	</g>
</svg>
