<svg viewBox="0 0 24 24" xmlns="http://www.w3.org/2000/svg" xmlns:xlink="http://www.w3.org/1999/xlink" width="24.000000" height="24.000000" fill="none">
	<rect id="Outline/Doc Finished Outline" width="24.000000" height="24.000000" x="0.000000" y="0.000000" />
	<path id="Shape" d="M20.0001 6C20.0001 4.34315 18.6569 3 17.0001 3L7.00684 3C5.34998 3 4.00684 4.34315 4.00684 6L4.00684 18C4.00684 19.6569 5.34998 21 7.00684 21L17.0001 21C18.6569 21 20.0001 19.6569 20.0001 18L20.0001 6ZM17.0001 4.3L7.00684 4.3C6.06795 4.3 5.30684 5.06112 5.30684 6L5.30684 18C5.30684 18.9389 6.06795 19.7 7.00684 19.7L17.0001 19.7C17.939 19.7 18.7001 18.9389 18.7001 18L18.7001 6C18.7001 5.06112 17.939 4.3 17.0001 4.3ZM9.15822 8.02432C8.98583 8.02432 8.8205 8.0928 8.6986 8.2147C8.5767 8.3366 8.50822 8.50193 8.50822 8.67432L8.50822 15.4075C8.50822 15.7665 8.79924 16.0575 9.15822 16.0575C9.51721 16.0575 9.80822 15.7665 9.80822 15.4075L9.80822 14.0023L14.8957 14.0023C15.1345 14.0023 15.354 13.8715 15.4675 13.6615C15.5811 13.4515 15.5703 13.1961 15.4396 12.9964L14.1398 11.0103L15.4391 9.03102C15.5702 8.83132 15.5812 8.5758 15.4677 8.36558C15.3543 8.15536 15.1346 8.02432 14.8957 8.02432L9.15822 8.02432ZM13.6935 12.7023L9.80822 12.7023L9.80822 9.32432L13.6915 9.32432L12.8193 10.653C12.6773 10.8693 12.6771 11.1492 12.8188 11.3656L13.6935 12.7023Z" fill="rgb(116,118,123)" fill-rule="evenodd" />
</svg>
