<svg width="24.000000" height="24.000000" viewBox="0 0 24 24" fill="none" xmlns="http://www.w3.org/2000/svg" xmlns:xlink="http://www.w3.org/1999/xlink">
	<desc>
			Created with Pixso.
	</desc>
	<defs>
		<clipPath id="clip17_624">
			<rect id="Outline / Doc Ok Outline" width="24.000000" height="24.000000" fill="white" fill-opacity="0"/>
		</clipPath>
	</defs>
	<g clip-path="url(#clip17_624)">
		<path id="Shape" d="M17.64 3.35C19.3 3.35 20.64 4.69 20.64 6.35L20.64 16.35C20.64 18 19.3 19.35 17.64 19.35L9.64 19.35C7.99 19.35 6.64 18 6.64 16.35L6.64 6.35C6.64 4.69 7.99 3.35 9.64 3.35L17.64 3.35ZM9.64 4.65L17.64 4.65C18.58 4.65 19.35 5.41 19.35 6.35L19.35 16.35C19.35 17.28 18.58 18.04 17.64 18.04L9.64 18.04C8.71 18.04 7.94 17.28 7.94 16.35L7.94 6.35C7.94 5.41 8.71 4.65 9.64 4.65ZM4.64 8.7C4.29 8.7 4 8.99 4 9.35L4 18.75C4 20.54 5.45 22 7.25 22L15.64 22C16 22 16.29 21.7 16.29 21.35C16.29 20.99 16 20.7 15.64 20.7L7.25 20.7C6.17 20.7 5.3 19.82 5.3 18.75L5.3 9.35C5.3 8.99 5 8.7 4.64 8.7ZM13.82 14.12C13.55 14.41 13.09 14.42 12.81 14.14L10.43 11.75C10.18 11.5 10.18 11.08 10.43 10.83C10.68 10.58 11.1 10.58 11.35 10.83L13.29 12.78L16.52 9.27C16.76 9 17.18 8.99 17.44 9.23C17.7 9.47 17.72 9.88 17.48 10.15L13.82 14.12Z" fill="#717681" fill-opacity="1.000000" fill-rule="evenodd"/>
	</g>
</svg>
