<svg width="24.000000" height="24.000000" viewBox="0 0 24 24" fill="none" xmlns="http://www.w3.org/2000/svg" xmlns:xlink="http://www.w3.org/1999/xlink">
	<desc>
			Created with Pixso.
	</desc>
	<defs>
		<clipPath id="clip17_659">
			<rect id="Outline / Doc attention Outline" width="24.000000" height="24.000000" fill="white" fill-opacity="0"/>
		</clipPath>
	</defs>
	<g clip-path="url(#clip17_659)">
		<path id="Shape" d="M20.64 6.35C20.64 4.69 19.3 3.35 17.64 3.35L9.64 3.35C7.99 3.35 6.64 4.69 6.64 6.35L6.64 16.35C6.64 18 7.99 19.35 9.64 19.35L17.64 19.35C19.3 19.35 20.64 18 20.64 16.35L20.64 6.35ZM17.64 4.65L9.64 4.65C8.71 4.65 7.94 5.41 7.94 6.35L7.94 16.35C7.94 17.28 8.71 18.05 9.64 18.05L17.64 18.05C18.58 18.05 19.34 17.28 19.34 16.35L19.34 6.35C19.34 5.41 18.58 4.65 17.64 4.65ZM12.95 8C12.95 7.64 13.24 7.35 13.59 7.35C13.95 7.35 14.25 7.64 14.25 8L14.25 12C14.25 12.35 13.95 12.65 13.59 12.65C13.24 12.65 12.95 12.35 12.95 12L12.95 8ZM4 9.35C4 8.99 4.29 8.7 4.64 8.7C5 8.7 5.29 8.99 5.29 9.35L5.29 18.75C5.29 19.82 6.17 20.7 7.25 20.7L15.64 20.7C16 20.7 16.29 20.99 16.29 21.35C16.29 21.7 16 22 15.64 22L7.25 22C5.45 22 4 20.54 4 18.75L4 9.35ZM13.59 15.44C13.18 15.44 12.84 15.11 12.84 14.69C12.84 14.28 13.18 13.94 13.59 13.94C14.01 13.94 14.34 14.28 14.34 14.69C14.34 15.11 14.01 15.44 13.59 15.44Z" fill="#717681" fill-opacity="1.000000" fill-rule="evenodd"/>
	</g>
</svg>
