<svg viewBox="0 0 24 24" xmlns="http://www.w3.org/2000/svg" xmlns:xlink="http://www.w3.org/1999/xlink" width="24.000000" height="24.000000" fill="none">
	<rect id="Outline/Doc Regenerate Outline" width="24.000000" height="24.000000" x="0.000000" y="0.000000" />
	<path id="Shape" d="M20.0001 6C20.0001 4.34315 18.6569 3 17.0001 3L7.00684 3C5.34998 3 4.00684 4.34315 4.00684 6L4.00684 18C4.00684 19.6569 5.34998 21 7.00684 21L17.0001 21C18.6569 21 20.0001 19.6569 20.0001 18L20.0001 6ZM17.0001 4.3L7.00684 4.3C6.06795 4.3 5.30684 5.06112 5.30684 6L5.30684 18C5.30684 18.9389 6.06795 19.7 7.00684 19.7L17.0001 19.7C17.939 19.7 18.7001 18.9389 18.7001 18L18.7001 6C18.7001 5.06112 17.939 4.3 17.0001 4.3ZM10.5461 12.8775L9.81622 12.2975C9.96172 13.6514 11.1081 14.7057 12.5006 14.7057C13.9918 14.7057 15.2006 13.4969 15.2006 12.0057C15.2006 10.8576 14.4841 9.8769 13.4738 9.48639C13.3671 9.44516 13.2572 9.4105 13.1445 9.38293C12.7958 9.29762 12.5006 9.00664 12.5006 8.64766C12.5006 8.28867 12.7935 8.00014 13.1479 8.05778C13.375 8.09474 13.5958 8.15083 13.8084 8.22435C15.3753 8.76616 16.5006 10.2545 16.5006 12.0057C16.5006 14.2148 14.7098 16.0057 12.5006 16.0057C10.4704 16.0057 8.7934 14.4931 8.53514 12.5334L7.99347 13.3723C7.79403 13.6728 7.39423 13.7659 7.09369 13.5664C6.79315 13.367 6.70011 12.9672 6.89955 12.6666L8.34963 10.487C8.57143 10.1417 9.03385 10.0576 9.35317 10.3045L11.3019 11.8355C11.5944 12.0465 11.648 12.4535 11.437 12.746C11.352 12.8936 11.2134 12.9696 11.056 12.9982C10.8887 13.0287 10.6991 12.992 10.5461 12.8775Z" fill="rgb(116,118,123)" fill-rule="evenodd" />
</svg>
