<svg width="24.000000" height="24.000000" viewBox="0 0 24 24" fill="none" xmlns="http://www.w3.org/2000/svg" xmlns:xlink="http://www.w3.org/1999/xlink">
	<desc>
			Created with Pixso.
	</desc>
	<defs>
		<clipPath id="clip17_774">
			<rect id="Outline / Doc Finished Outline" width="24.000000" height="24.000000" fill="white" fill-opacity="0"/>
		</clipPath>
	</defs>
	<g >
		<path id="Shape" d="M20 6C20 4.34 18.65 3 17 3L7 3C5.35 3 4 4.34 4 6L4 18C4 19.65 5.35 21 7 21L17 21C18.65 21 20 19.65 20 18L20 6ZM17 4.29L7 4.29C6.06 4.29 5.3 5.06 5.3 6L5.3 18C5.3 18.93 6.06 19.7 7 19.7L17 19.7C17.93 19.7 18.7 18.93 18.7 18L18.7 6C18.7 5.06 17.93 4.29 17 4.29ZM8.69 8.21C8.82 8.09 8.98 8.02 9.15 8.02L14.89 8.02C15.13 8.02 15.35 8.15 15.46 8.36C15.58 8.57 15.57 8.83 15.43 9.03L14.13 11.01L15.43 12.99C15.57 13.19 15.58 13.45 15.46 13.66C15.35 13.87 15.13 14 14.89 14L9.8 14L9.8 15.4C9.8 15.76 9.51 16.05 9.15 16.05C8.79 16.05 8.5 15.76 8.5 15.4L8.5 8.67C8.5 8.5 8.57 8.33 8.69 8.21ZM9.8 12.7L13.69 12.7L12.81 11.36C12.67 11.14 12.67 10.86 12.81 10.65L13.69 9.32L9.8 9.32L9.8 12.7Z" fill="#74767B" fill-opacity="1.000000" fill-rule="evenodd"/>
	</g>
</svg>
