<svg viewBox="0 0 24 24" xmlns="http://www.w3.org/2000/svg" xmlns:xlink="http://www.w3.org/1999/xlink" width="24.000000" height="24.000000" fill="none">
	<rect id="Outline/Doc Sign Verify Outline" width="24.000000" height="24.000000" x="0.000000" y="0.000000" />
	<path id="Shape" d="M19.9967 6C19.9967 4.34315 18.6535 3 16.9967 3L7.00342 3C5.34656 3 4.00342 4.34315 4.00342 6L4.00342 18C4.00342 19.6569 5.34656 21 7.00342 21L16.9967 21C18.6535 21 19.9967 19.6569 19.9967 18L19.9967 6ZM16.9967 4.3L7.00342 4.3C6.06453 4.3 5.30342 5.06112 5.30342 6L5.30342 18C5.30342 18.9389 6.06453 19.7 7.00342 19.7L16.9967 19.7C17.9355 19.7 18.6967 18.9389 18.6967 18L18.6967 6C18.6967 5.06112 17.9355 4.3 16.9967 4.3ZM11.9175 15.1667C12.6406 15.1667 13.3137 14.9523 13.8767 14.5836L15.1961 15.9068C15.4495 16.161 15.8611 16.1616 16.1153 15.9082C16.3695 15.6547 16.3701 15.2431 16.1166 14.9889L14.8177 13.6863C15.2456 13.0963 15.4979 12.3708 15.4979 11.5862C15.4979 9.60882 13.8949 8.00579 11.9175 8.00579C9.94004 8.00579 8.33702 9.60882 8.33702 11.5862C8.33702 13.5637 9.94004 15.1667 11.9175 15.1667ZM11.9175 13.8667C13.1769 13.8667 14.1979 12.8457 14.1979 11.5862C14.1979 10.3268 13.1769 9.30579 11.9175 9.30579C10.658 9.30579 9.63702 10.3268 9.63702 11.5862C9.63702 12.8457 10.658 13.8667 11.9175 13.8667Z" fill="rgb(116,118,123)" fill-rule="evenodd" />
</svg>
