<svg width="24.000000" height="24.000000" viewBox="0 0 24 24" fill="none" xmlns="http://www.w3.org/2000/svg" xmlns:xlink="http://www.w3.org/1999/xlink">
	<desc>
			Created with Pixso.
	</desc>
	<defs>
		<clipPath id="clip17_762">
			<rect id="Outline / Doc Settings Outline" width="24.000000" height="24.000000" fill="white" fill-opacity="0"/>
		</clipPath>
	</defs>
	<g clip-path="url(#clip17_762)">
		<path id="Shape" d="M20 6C20 4.34 18.65 3 17 3L7 3C5.35 3 4 4.34 4 6L4 18C4 19.65 5.35 21 7 21L17 21C18.65 21 20 19.65 20 18L20 6ZM17 4.29L7 4.29C6.06 4.29 5.3 5.06 5.3 6L5.3 18C5.3 18.93 6.06 19.7 7 19.7L17 19.7C17.93 19.7 18.7 18.93 18.7 18L18.7 6C18.7 5.06 17.93 4.29 17 4.29ZM12 6.56C12.36 6.56 12.65 6.85 12.65 7.21L12.65 8.11C13.26 8.22 13.83 8.46 14.31 8.81L14.96 8.16C15.21 7.91 15.62 7.91 15.87 8.16C16.13 8.42 16.13 8.83 15.87 9.08L15.23 9.73C15.58 10.21 15.82 10.78 15.92 11.39L16.83 11.39C17.19 11.39 17.48 11.68 17.48 12.04C17.48 12.4 17.19 12.69 16.83 12.69L15.93 12.69C15.84 13.31 15.6 13.88 15.25 14.37L15.87 15C16.13 15.25 16.13 15.66 15.87 15.92C15.62 16.17 15.21 16.17 14.96 15.92L14.34 15.3C13.85 15.66 13.27 15.91 12.65 16.01L12.65 16.87C12.65 17.23 12.36 17.52 12 17.52C11.64 17.52 11.35 17.23 11.35 16.87L11.35 16.02C10.72 15.92 10.14 15.68 9.64 15.32L9.04 15.92C8.79 16.17 8.38 16.17 8.12 15.92C7.87 15.66 7.87 15.25 8.12 15L8.72 14.4C8.36 13.9 8.12 13.32 8.02 12.69L7.17 12.69C6.81 12.69 6.52 12.4 6.52 12.04C6.52 11.68 6.81 11.39 7.17 11.39L8.02 11.39C8.13 10.77 8.38 10.19 8.74 9.7L8.12 9.08C7.87 8.83 7.87 8.42 8.12 8.16C8.38 7.91 8.79 7.91 9.04 8.16L9.67 8.79C10.16 8.44 10.73 8.2 11.35 8.11L11.35 7.21C11.35 6.85 11.64 6.56 12 6.56ZM14.68 12.06C14.68 13.56 13.47 14.77 11.97 14.77C10.48 14.77 9.27 13.56 9.27 12.06C9.27 10.57 10.48 9.36 11.97 9.36C13.47 9.36 14.68 10.57 14.68 12.06ZM13.01 12.1C13.01 12.65 12.56 13.1 12.01 13.1C11.46 13.1 11.01 12.65 11.01 12.1C11.01 11.55 11.46 11.1 12.01 11.1C12.56 11.1 13.01 11.55 13.01 12.1Z" fill="#717681" fill-opacity="1.000000" fill-rule="evenodd"/>
	</g>
</svg>
