<svg width="24.000000" height="24.000000" viewBox="0 0 24 24" fill="none" xmlns="http://www.w3.org/2000/svg" xmlns:xlink="http://www.w3.org/1999/xlink">
	<desc>
			Created with Pixso.
	</desc>
	<defs>
		<clipPath id="clip17_777">
			<rect id="Solid / Doc Finished Solid" width="24.000000" height="24.000000" fill="white" fill-opacity="0"/>
		</clipPath>
	</defs>
	<g clip-path="url(#clip17_777)">
		<path id="Shape" d="M20 6C20 4.34 18.65 3 17 3L7 3C5.35 3 4 4.34 4 6L4 18C4 19.65 5.35 21 7 21L17 21C18.65 21 20 19.65 20 18L20 6ZM8.69 8.21C8.82 8.09 8.98 8.02 9.15 8.02L14.89 8.02C15.13 8.02 15.35 8.15 15.46 8.36C15.58 8.57 15.57 8.83 15.43 9.03L14.13 11.01L15.43 12.99C15.57 13.19 15.58 13.45 15.46 13.66C15.35 13.87 15.13 14 14.89 14L9.8 14L9.8 15.4C9.8 15.76 9.51 16.05 9.15 16.05C8.79 16.05 8.5 15.76 8.5 15.4L8.5 8.67C8.5 8.5 8.57 8.33 8.69 8.21Z" fill="#717681" fill-opacity="1.000000" fill-rule="evenodd"/>
	</g>
</svg>
