<svg width="24.000000" height="24.000000" viewBox="0 0 24 24" fill="none" xmlns="http://www.w3.org/2000/svg" xmlns:xlink="http://www.w3.org/1999/xlink">
	<desc>
			Created with Pixso.
	</desc>
	<defs>
		<clipPath id="clip17_753">
			<rect id="Solid / Doc Sign Verify Solid" width="24.000000" height="24.000000" fill="white" fill-opacity="0"/>
		</clipPath>
	</defs>
	<g clip-path="url(#clip17_753)">
		<path id="Shape" d="M19.99 6C19.99 4.34 18.65 3 16.99 3L7 3C5.34 3 4 4.34 4 6L4 18C4 19.65 5.34 21 7 21L16.99 21C18.65 21 19.99 19.65 19.99 18L19.99 6ZM13.87 14.58C13.31 14.95 12.64 15.16 11.91 15.16C9.93 15.16 8.33 13.56 8.33 11.58C8.33 9.6 9.93 8 11.91 8C13.89 8 15.49 9.6 15.49 11.58C15.49 12.37 15.24 13.09 14.81 13.68L16.11 14.98C16.37 15.24 16.36 15.65 16.11 15.9C15.86 16.16 15.44 16.16 15.19 15.9L13.87 14.58ZM14.19 11.58C14.19 12.84 13.17 13.86 11.91 13.86C10.65 13.86 9.63 12.84 9.63 11.58C9.63 10.32 10.65 9.3 11.91 9.3C13.17 9.3 14.19 10.32 14.19 11.58Z" fill="#717681" fill-opacity="1.000000" fill-rule="evenodd"/>
	</g>
</svg>
