<svg width="24.000000" height="24.000000" viewBox="0 0 24 24" fill="none" xmlns="http://www.w3.org/2000/svg" xmlns:xlink="http://www.w3.org/1999/xlink">
	<desc>
			Created with Pixso.
	</desc>
	<defs>
		<clipPath id="clip17_768">
			<rect id="Outline / Doc Processing Outline" width="24.000000" height="24.000000" fill="white" fill-opacity="0"/>
		</clipPath>
	</defs>
	<g clip-path="url(#clip17_768)">
		<path id="Shape" d="M17 3C18.65 3 20 4.34 20 6L20 18C20 19.65 18.65 21 17 21L7 21C5.35 21 4 19.65 4 18L4 6C4 4.34 5.35 3 7 3L17 3ZM7 4.29L17 4.29C17.93 4.29 18.7 5.06 18.7 6L18.7 18C18.7 18.93 17.93 19.7 17 19.7L7 19.7C6.06 19.7 5.3 18.93 5.3 18L5.3 6C5.3 5.06 6.06 4.29 7 4.29ZM12.29 14.39C12.02 14.68 11.56 14.69 11.28 14.41L9.23 12.47C8.98 12.22 8.98 11.8 9.23 11.55C9.48 11.3 9.9 11.3 10.15 11.55L11.76 13.05L14.85 9.92C15.09 9.65 15.51 9.64 15.77 9.88C16.03 10.12 16.05 10.53 15.81 10.8L12.29 14.39Z" fill="#717681" fill-opacity="1.000000" fill-rule="evenodd"/>
	</g>
</svg>
