<svg width="24.000000" height="24.000000" viewBox="0 0 24 24" fill="none" xmlns="http://www.w3.org/2000/svg" xmlns:xlink="http://www.w3.org/1999/xlink">
	<desc>
			Created with Pixso.
	</desc>
	<defs>
		<clipPath id="clip17_750">
			<rect id="Outline / Doc Sign Verify Outline" width="24.000000" height="24.000000" fill="white" fill-opacity="0"/>
		</clipPath>
	</defs>
	<g clip-path="url(#clip17_750)">
		<path id="Shape" d="M16.99 3C18.65 3 19.99 4.34 19.99 6L19.99 18C19.99 19.65 18.65 21 16.99 21L7 21C5.34 21 4 19.65 4 18L4 6C4 4.34 5.34 3 7 3L16.99 3ZM7 4.29L16.99 4.29C17.93 4.29 18.69 5.06 18.69 6L18.69 18C18.69 18.93 17.93 19.7 16.99 19.7L7 19.7C6.06 19.7 5.3 18.93 5.3 18L5.3 6C5.3 5.06 6.06 4.29 7 4.29ZM11.91 15.16C12.64 15.16 13.31 14.95 13.87 14.58L15.19 15.9C15.44 16.16 15.86 16.16 16.11 15.9C16.36 15.65 16.37 15.24 16.11 14.98L14.81 13.68C15.24 13.09 15.49 12.37 15.49 11.58C15.49 9.6 13.89 8 11.91 8C9.93 8 8.33 9.6 8.33 11.58C8.33 13.56 9.93 15.16 11.91 15.16ZM11.91 13.86C13.17 13.86 14.19 12.84 14.19 11.58C14.19 10.32 13.17 9.3 11.91 9.3C10.65 9.3 9.63 10.32 9.63 11.58C9.63 12.84 10.65 13.86 11.91 13.86Z" fill="#74767B" fill-opacity="1.000000" fill-rule="evenodd"/>
	</g>
</svg>
