<svg width="24.000000" height="24.000000" viewBox="0 0 24 24" fill="none" xmlns="http://www.w3.org/2000/svg" xmlns:xlink="http://www.w3.org/1999/xlink">
	<desc>
			Created with Pixso.
	</desc>
	<defs>
		<clipPath id="clip17_621">
			<rect id="Solid / Doc Ok Solid" width="24.000000" height="24.000000" fill="white" fill-opacity="0"/>
		</clipPath>
	</defs>
	<g>
		<path id="Shape" d="M20.64 6.35C20.64 4.69 19.3 3.35 17.64 3.35L9.64 3.35C7.99 3.35 6.64 4.69 6.64 6.35L6.64 16.35C6.64 18 7.99 19.35 9.64 19.35L17.64 19.35C19.3 19.35 20.64 18 20.64 16.35L20.64 6.35ZM4.64 8.7C4.29 8.7 4 8.99 4 9.35L4 18.75C4 20.54 5.45 22 7.25 22L15.64 22C16 22 16.29 21.7 16.29 21.35C16.29 20.99 16 20.7 15.64 20.7L7.25 20.7C6.17 20.7 5.3 19.82 5.3 18.75L5.3 9.35C5.3 8.99 5 8.7 4.64 8.7ZM12.81 14.14C13.09 14.42 13.55 14.41 13.82 14.12L17.48 10.15C17.72 9.88 17.7 9.47 17.44 9.23C17.18 8.99 16.76 9 16.52 9.27L13.29 12.78L11.35 10.83C11.1 10.58 10.68 10.58 10.43 10.83C10.18 11.08 10.18 11.5 10.43 11.75L12.81 14.14Z" fill="#717681" fill-opacity="1.000000" fill-rule="evenodd"/>
	</g>
</svg>
