<svg width="24.000000" height="24.000000" viewBox="0 0 24 24" fill="none" xmlns="http://www.w3.org/2000/svg" xmlns:xlink="http://www.w3.org/1999/xlink">
	<desc>
			Created with Pixso.
	</desc>
	<defs>
		<clipPath id="clip17_606">
			<rect id="Solid / Docs Solid" width="24.000000" height="24.000000" fill="white" fill-opacity="0"/>
		</clipPath>
	</defs>
	<g>
		<path id="Shape" d="M20.64 6.35C20.64 4.69 19.3 3.35 17.64 3.35L9.64 3.35C7.99 3.35 6.64 4.69 6.64 6.35L6.64 16.35C6.64 18 7.99 19.35 9.64 19.35L17.64 19.35C19.3 19.35 20.64 18 20.64 16.35L20.64 6.35ZM13.37 8.54C13.73 8.54 14.02 8.25 14.02 7.89C14.02 7.53 13.73 7.24 13.37 7.24L10.67 7.24C10.31 7.24 10.02 7.53 10.02 7.89C10.02 8.25 10.31 8.54 10.67 8.54L13.37 8.54ZM4.64 8.7C4.29 8.7 4 8.99 4 9.35L4 18.75C4 20.54 5.45 22 7.25 22L15.64 22C16 22 16.29 21.7 16.29 21.35C16.29 20.99 16 20.7 15.64 20.7L7.25 20.7C6.17 20.7 5.3 19.82 5.3 18.75L5.3 9.35C5.3 8.99 5 8.7 4.64 8.7ZM17.27 11.4C17.27 11.76 16.98 12.05 16.62 12.05L10.67 12.05C10.31 12.05 10.02 11.76 10.02 11.4C10.02 11.04 10.31 10.75 10.67 10.75L16.62 10.75C16.98 10.75 17.27 11.04 17.27 11.4ZM16.62 15.56C16.98 15.56 17.27 15.27 17.27 14.91C17.27 14.55 16.98 14.26 16.62 14.26L10.67 14.26C10.31 14.26 10.02 14.55 10.02 14.91C10.02 15.27 10.31 15.56 10.67 15.56L16.62 15.56Z" fill="#717681" fill-opacity="1.000000" fill-rule="evenodd"/>
	</g>
</svg>
