<svg viewBox="0 0 24 24" xmlns="http://www.w3.org/2000/svg" xmlns:xlink="http://www.w3.org/1999/xlink" width="24.000000" height="24.000000" fill="none">
	<rect id="Outline/Edit Alt Outline" width="24.000000" height="24.000000" x="0.000000" y="0.000000" />
	<path id="Shape" d="M19.1382 3.34118C18.6833 2.88627 17.9457 2.88627 17.4908 3.34118L8.10717 12.7248C7.75092 13.0811 7.50196 13.5303 7.38868 14.0212L7.03072 15.5723C6.83715 16.4111 7.58889 17.1628 8.42767 16.9693L9.97881 16.6113C10.4697 16.498 10.9189 16.2491 11.2752 15.8928L20.6588 6.50916C21.1137 6.05426 21.1137 5.31671 20.6588 4.86181L19.1382 3.34118ZM5.95617 4.30049C5.97071 4.30016 5.98532 4.3 6 4.3L11.35 4.3C11.709 4.3 12 4.00899 12 3.65C12 3.29101 11.709 3 11.35 3L6 3C4.75001 3 3.67846 3.76459 3.22766 4.85163C3.20901 4.89659 3.19143 4.9421 3.17494 4.98812C3.06169 5.30425 3 5.64492 3 6L3 18C3 18.3549 3.06164 18.6955 3.1748 19.0115C3.19117 19.0572 3.20863 19.1024 3.22713 19.1471C3.67763 20.2348 4.74952 21 6 21L18 21C19.6567 21 21 19.6569 21 18L21 12.6499C21 12.291 20.709 12 20.3501 12C19.9912 12 19.7002 12.291 19.7002 12.6499L19.7002 18C19.7002 18.2346 19.6587 18.452 19.5758 18.6523L19.5757 18.6526C19.4927 18.8529 19.3682 19.0361 19.2021 19.2021C19.0361 19.3681 18.853 19.4925 18.6528 19.5755C18.5274 19.6274 18.3955 19.663 18.2569 19.6825C18.1737 19.6942 18.088 19.7 18 19.7L6 19.7C5.87692 19.7 5.75856 19.6886 5.64493 19.6658C5.54185 19.6451 5.44263 19.615 5.34717 19.5755C5.14697 19.4925 4.96387 19.3681 4.79785 19.2021C4.63185 19.0362 4.50735 18.8531 4.42434 18.6528L4.42432 18.6526L4.42429 18.6525L4.42419 18.6523C4.34127 18.452 4.2998 18.2346 4.2998 18L4.2998 6C4.29981 5.76541 4.34127 5.54798 4.42419 5.34772L4.42431 5.34743L4.42432 5.34736C4.50733 5.14703 4.63184 4.96388 4.79785 4.79792C4.96387 4.63195 5.14697 4.50747 5.34717 4.42448C5.53531 4.34668 5.73804 4.30535 5.95617 4.30049ZM19.8351 5.68548L18.3145 4.16485L16.8619 5.61746L18.3825 7.13809L19.8351 5.68548ZM8.93084 13.5485L16.0382 6.44113L17.5589 7.96177L10.4515 15.0692C10.2496 15.271 9.99506 15.4121 9.71688 15.4763L8.16574 15.8343L8.5237 14.2831C8.58789 14.0049 8.72897 13.7504 8.93084 13.5485Z" fill="rgb(116,118,123)" fill-rule="evenodd" />
</svg>
