<svg viewBox="0 0 24 24" xmlns="http://www.w3.org/2000/svg" xmlns:xlink="http://www.w3.org/1999/xlink" width="24.000000" height="24.000000" fill="none">
	<rect id="Solid/Edit Alt Solid" width="24.000000" height="24.000000" x="0.000000" y="0.000000" />
	<path id="Shape" d="M17.6057 3L6 3C4.34315 3 3 4.34315 3 6L3 18C3 19.6569 4.34315 21 6 21L18 21C19.6569 21 21 19.6569 21 18L21 6.39427L11.5805 15.8137C11.1988 16.1954 10.7176 16.4622 10.1916 16.5836L8.52965 16.9671C7.63096 17.1745 6.82552 16.369 7.03291 15.4704L7.41644 13.8084C7.53781 13.2824 7.80456 12.8012 8.18625 12.4195L17.6057 3ZM20.7519 4.87731L19.1227 3.24806L17.5663 4.80442L19.1956 6.43367L20.7519 4.87731ZM9.06876 13.302L16.6838 5.68693L18.3131 7.31618L10.698 14.9312C10.4817 15.1475 10.209 15.2987 9.91095 15.3675L8.24901 15.751L8.63253 14.0891C8.70131 13.791 8.85247 13.5183 9.06876 13.302Z" fill="rgb(116,118,123)" fill-rule="evenodd" />
</svg>
