<svg width="24.000000" height="24.000000" viewBox="0 0 24 24" fill="none" xmlns="http://www.w3.org/2000/svg" xmlns:xlink="http://www.w3.org/1999/xlink">
	<desc>
			Created with Pixso.
	</desc>
	<defs>
		<clipPath id="clip108904_1365">
			<rect id="Outline / File TIFF Outline" width="24.000000" height="24.000000" fill="white" fill-opacity="0"/>
		</clipPath>
	</defs>
	<g clip-path="url(#clip108904_1365)">
		<path id="Shape" d="M5 6L5 11C3.34 11 2 12.34 2 14L2 18C2 19.65 3.34 21 5 21L19 21C20.65 21 22 19.65 22 18L22 14C22 12.34 20.65 11 19 11L19 9.17C19 8.42 18.71 7.69 18.19 7.13L15.23 3.95C14.67 3.34 13.87 3 13.04 3L8 3C6.34 3 5 4.34 5 6ZM8 4.3L13.04 4.3C13.14 4.3 13.24 4.3 13.34 4.32L13.34 7.04C13.34 8.12 14.22 8.99 15.29 8.99L17.69 8.99C17.69 9.05 17.7 9.11 17.7 9.17L17.7 11L6.3 11L6.3 6C6.3 5.06 7.06 4.3 8 4.3ZM14.64 7.04L14.64 5.23L16.94 7.69L15.29 7.69C14.94 7.69 14.64 7.4 14.64 7.04ZM19 12.3L5 12.3C4.06 12.3 3.3 13.06 3.3 14L3.3 18C3.3 18.93 4.06 19.7 5 19.7L19 19.7C19.93 19.7 20.7 18.93 20.7 18L20.7 14C20.7 13.06 19.93 12.3 19 12.3ZM13.38 17.75C13.38 18.11 13.09 18.4 12.73 18.4C12.37 18.4 12.08 18.11 12.08 17.75L12.08 14.24C12.08 13.88 12.37 13.59 12.73 13.59L14.45 13.59C14.81 13.59 15.1 13.88 15.1 14.24C15.1 14.6 14.81 14.89 14.45 14.89L13.38 14.89L13.38 15.89L13.86 15.89C14.22 15.89 14.51 16.18 14.51 16.54C14.51 16.9 14.22 17.19 13.86 17.19L13.38 17.19L13.38 17.75ZM17.03 18.4C17.39 18.4 17.68 18.11 17.68 17.75L17.68 17.19L18.16 17.19C18.52 17.19 18.82 16.9 18.82 16.54C18.82 16.18 18.52 15.89 18.16 15.89L17.68 15.89L17.68 14.89L18.75 14.89C19.11 14.89 19.4 14.6 19.4 14.24C19.4 13.88 19.11 13.59 18.75 13.59L17.03 13.59C16.68 13.59 16.38 13.88 16.38 14.24L16.38 17.75C16.38 18.11 16.68 18.4 17.03 18.4ZM7.67 14.89C8.02 14.89 8.32 14.6 8.32 14.24C8.32 13.88 8.02 13.59 7.67 13.59L6.46 13.59L6.45 13.59L6.45 13.59L5.24 13.59C4.88 13.59 4.59 13.88 4.59 14.24C4.59 14.6 4.88 14.89 5.24 14.89L5.8 14.89L5.8 17.75C5.8 18.11 6.1 18.4 6.45 18.4C6.81 18.4 7.1 18.11 7.1 17.75L7.1 14.89L7.67 14.89ZM10.62 14.24C10.62 13.88 10.32 13.59 9.97 13.59C9.61 13.59 9.32 13.88 9.32 14.24L9.32 17.75C9.32 18.11 9.61 18.4 9.97 18.4C10.32 18.4 10.62 18.11 10.62 17.75L10.62 14.24Z" fill="#717681" fill-opacity="1.000000" fill-rule="evenodd"/>
	</g>
</svg>
