<svg width="24.000000" height="24.000000" viewBox="0 0 24 24" fill="none" xmlns="http://www.w3.org/2000/svg" xmlns:xlink="http://www.w3.org/1999/xlink">
	<desc>
			Created with Pixso.
	</desc>
	<defs>
		<clipPath id="clip108904_1418">
			<rect id="Outline / File DOC Outline" width="24.000000" height="24.000000" fill="white" fill-opacity="0"/>
		</clipPath>
	</defs>
	<g clip-path="url(#clip108904_1418)">
		<path id="Shape" d="M5 6L5 11C3.34 11 2 12.34 2 14L2 18C2 19.65 3.34 21 5 21L19 21C20.65 21 22 19.65 22 18L22 14C22 12.34 20.65 11 19 11L19 9.17C19 8.42 18.71 7.69 18.19 7.13L15.23 3.95C14.67 3.34 13.87 3 13.04 3L8 3C6.34 3 5 4.34 5 6ZM8 4.29L13.04 4.29C13.14 4.29 13.24 4.3 13.34 4.32L13.34 7.04C13.34 8.12 14.22 8.99 15.29 8.99L17.69 8.99C17.69 9.05 17.7 9.11 17.7 9.17L17.7 11L6.3 11L6.3 6C6.3 5.06 7.06 4.29 8 4.29ZM14.64 7.04L14.64 5.23L16.94 7.69L15.29 7.69C14.94 7.69 14.64 7.4 14.64 7.04ZM19 12.3L5 12.3C4.06 12.3 3.3 13.06 3.3 14L3.3 18C3.3 18.93 4.06 19.7 5 19.7L19 19.7C19.93 19.7 20.7 18.93 20.7 18L20.7 14C20.7 13.06 19.93 12.3 19 12.3ZM5.97 18.4C5.8 18.4 5.63 18.34 5.51 18.21C5.39 18.09 5.32 17.93 5.32 17.75L5.32 14.24C5.32 14.06 5.39 13.9 5.51 13.78C5.63 13.65 5.8 13.59 5.97 13.59L7.14 13.59C8.21 13.59 9.09 14.46 9.09 15.54L9.09 16.45C9.09 17.53 8.21 18.4 7.14 18.4L5.97 18.4ZM10.34 16.52C10.34 17.56 11.18 18.4 12.22 18.4C13.26 18.4 14.11 17.56 14.11 16.52L14.11 15.47C14.11 14.43 13.26 13.59 12.22 13.59C11.18 13.59 10.34 14.43 10.34 15.47L10.34 16.52ZM17.33 17.1C16.97 17.1 16.68 16.81 16.68 16.45L16.68 15.54C16.68 15.18 16.97 14.89 17.33 14.89L18.02 14.89C18.38 14.89 18.67 14.6 18.67 14.24C18.67 13.88 18.38 13.59 18.02 13.59L17.33 13.59C16.25 13.59 15.38 14.46 15.38 15.54L15.38 16.45C15.38 17.53 16.25 18.4 17.33 18.4L18.02 18.4C18.38 18.4 18.67 18.11 18.67 17.75C18.67 17.39 18.38 17.1 18.02 17.1L17.33 17.1ZM6.62 14.89L6.62 17.1L7.14 17.1C7.5 17.1 7.79 16.81 7.79 16.45L7.79 15.54C7.79 15.18 7.5 14.89 7.14 14.89L6.62 14.89ZM12.22 17.1C11.9 17.1 11.64 16.84 11.64 16.52L11.64 15.47C11.64 15.15 11.9 14.89 12.22 14.89C12.54 14.89 12.81 15.15 12.81 15.47L12.81 16.52C12.81 16.84 12.54 17.1 12.22 17.1Z" fill="#717681" fill-opacity="1.000000" fill-rule="evenodd"/>
	</g>
</svg>
