<svg width="24" height="24" viewBox="0 0 24 24" fill="none" xmlns="http://www.w3.org/2000/svg">
<path d="M12.4122 14.2329C12.4122 13.8739 12.1212 13.5829 11.7622 13.5829C11.4032 13.5829 11.1122 13.8739 11.1122 14.2329V17.7724C11.1122 18.1314 11.4032 18.4224 11.7622 18.4224H13.4811C13.84 18.4224 14.1311 18.1314 14.1311 17.7724C14.1311 17.4134 13.84 17.1224 13.4811 17.1224H12.4122L12.4122 14.2329Z" fill="#717681"/>
<path d="M18.0974 14.2329C18.0974 13.8739 17.8064 13.5829 17.4474 13.5829H16.5876C15.7542 13.5829 15.0786 14.2585 15.0786 15.0919C15.0786 15.7225 15.4707 16.2867 16.0618 16.5064L16.8149 16.7863C16.8828 16.8116 16.9279 16.8764 16.9279 16.9489C16.9279 17.0447 16.8502 17.1224 16.7544 17.1224H15.7286C15.3696 17.1224 15.0786 17.4134 15.0786 17.7724C15.0786 18.1314 15.3696 18.4224 15.7286 18.4224H16.7544C17.5682 18.4224 18.2279 17.7627 18.2279 16.9489C18.2279 16.3332 17.845 15.7823 17.2678 15.5678L16.5147 15.2878C16.4329 15.2574 16.3786 15.1793 16.3786 15.0919C16.3786 14.9765 16.4721 14.8829 16.5876 14.8829H17.4474C17.8064 14.8829 18.0974 14.5919 18.0974 14.2329Z" fill="#717681"/>
<path d="M6.95105 13.8502C6.74256 13.5579 6.33665 13.49 6.0444 13.6985C5.75217 13.907 5.68427 14.3129 5.89275 14.6052L6.88785 16L5.89273 17.3949C5.68424 17.6872 5.75214 18.0931 6.04438 18.3016C6.33662 18.51 6.74254 18.4421 6.95102 18.1499L7.6863 17.1192L8.42158 18.1499C8.63007 18.4421 9.03599 18.51 9.32823 18.3016C9.62047 18.0931 9.68836 17.6872 9.47988 17.3949L8.48476 16L9.47985 14.6052C9.68834 14.3129 9.62044 13.907 9.3282 13.6985C9.03596 13.49 8.63004 13.5579 8.42156 13.8502L7.6863 14.8808L6.95105 13.8502Z" fill="#717681"/>
<path fill-rule="evenodd" clip-rule="evenodd" d="M5 6V11C3.34315 11 2 12.3431 2 14V18C2 19.6569 3.34315 21 5 21H19C20.6569 21 22 19.6569 22 18V14C22 12.3431 20.6569 11 19 11V9.17967C19 8.42148 18.7129 7.69141 18.1965 7.13629L15.2385 3.95662C14.671 3.34655 13.8752 3 13.042 3H8C6.34315 3 5 4.34315 5 6ZM8 4.3H13.042C13.1461 4.3 13.2491 4.30954 13.3499 4.32811V7.04926C13.3499 8.12621 14.223 8.99926 15.2999 8.99926L17.6904 8.99925C17.6968 9.05892 17.7 9.11913 17.7 9.17967V11H6.3V6C6.3 5.06112 7.06112 4.3 8 4.3ZM16.9447 7.69926L14.6499 5.23254V7.04926C14.6499 7.40824 14.9409 7.69926 15.2999 7.69926L16.9447 7.69926ZM19 12.3H5C4.06112 12.3 3.3 13.0611 3.3 14V18C3.3 18.9389 4.06112 19.7 5 19.7H19C19.9389 19.7 20.7 18.9389 20.7 18V14C20.7 13.0611 19.9389 12.3 19 12.3Z" fill="#717681"/>
</svg>
