<svg width="24.000000" height="24.000000" viewBox="0 0 24 24" fill="none" xmlns="http://www.w3.org/2000/svg" xmlns:xlink="http://www.w3.org/1999/xlink">
	<desc>
			Created with Pixso.
	</desc>
	<defs>
		<clipPath id="clip17_632">
			<rect id="Outline / File Word Outline" width="24.000000" height="24.000000" fill="white" fill-opacity="0"/>
		</clipPath>
	</defs>
	<g >
		<path id="Shape" d="M20.64 6.35C20.64 4.69 19.3 3.35 17.64 3.35L9.64 3.35C7.99 3.35 6.64 4.69 6.64 6.35L6.64 16.35C6.64 18 7.99 19.35 9.64 19.35L17.64 19.35C19.3 19.35 20.64 18 20.64 16.35L20.64 6.35ZM17.64 4.65L9.64 4.65C8.71 4.65 7.94 5.41 7.94 6.35L7.94 16.35C7.94 17.28 8.71 18.05 9.64 18.05L17.64 18.05C18.58 18.05 19.35 17.28 19.35 16.35L19.35 6.35C19.35 5.41 18.58 4.65 17.64 4.65ZM17.14 9.31C17.24 8.97 17.05 8.6 16.71 8.5C16.36 8.39 16 8.59 15.89 8.93L15.12 11.45L14.27 8.91C14.18 8.65 13.94 8.47 13.66 8.47C13.38 8.47 13.13 8.64 13.04 8.9L12.13 11.45L11.41 8.94C11.31 8.6 10.95 8.4 10.61 8.5C10.26 8.59 10.06 8.95 10.16 9.3L11.44 13.75C11.52 14.02 11.76 14.21 12.04 14.22C12.33 14.23 12.58 14.06 12.68 13.79L13.64 11.11L14.53 13.78C14.62 14.05 14.88 14.23 15.16 14.22C15.44 14.22 15.69 14.03 15.77 13.76L17.14 9.31ZM4 9.35C4 8.99 4.29 8.7 4.64 8.7C5 8.7 5.3 8.99 5.3 9.35L5.3 18.75C5.3 19.82 6.17 20.7 7.25 20.7L15.64 20.7C16 20.7 16.29 20.99 16.29 21.35C16.29 21.7 16 22 15.64 22L7.25 22C5.45 22 4 20.54 4 18.75L4 9.35Z" fill="#74767B" fill-opacity="1.000000" fill-rule="evenodd"/>
	</g>
</svg>
