<svg width="24.000000" height="24.000000" viewBox="0 0 24 24" fill="none" xmlns="http://www.w3.org/2000/svg" xmlns:xlink="http://www.w3.org/1999/xlink">
	<desc>
			Created with Pixso.
	</desc>
	<defs>
		<clipPath id="clip108904_1403">
			<rect id="Solid/ File PDF Solid" width="24.000000" height="24.000000" fill="white" fill-opacity="0"/>
		</clipPath>
	</defs>
	<g clip-path="url(#clip108904_1403)">
		<path id="Shape" d="M19 11C20.65 11 22 12.34 22 14L22 18C22 19.65 20.65 21 19 21L5 21C3.34 21 2 19.65 2 18L2 14C2 12.34 3.34 11 5 11L5 6C5 4.34 6.34 3 8 3L13.04 3C13.87 3 14.67 3.34 15.23 3.95L18.19 7.13C18.71 7.69 19 8.42 19 9.17L19 11ZM13.04 4.29L8 4.29C7.06 4.29 6.3 5.06 6.3 6L6.3 11L17.7 11L17.7 9.17C17.7 9.11 17.69 9.05 17.69 8.99L15.29 8.99C14.22 8.99 13.34 8.12 13.34 7.04L13.34 4.32C13.24 4.3 13.14 4.29 13.04 4.29ZM14.64 5.23L16.94 7.69L15.29 7.69C14.94 7.69 14.64 7.4 14.64 7.04L14.64 5.23ZM6.08 18.4C6.44 18.4 6.73 18.11 6.73 17.75L6.73 17.18L7.4 17.18C8.4 17.18 9.2 16.38 9.2 15.38C9.2 14.39 8.4 13.59 7.4 13.59L6.08 13.59C5.73 13.59 5.43 13.88 5.43 14.24L5.43 17.75C5.43 18.11 5.73 18.4 6.08 18.4ZM11.05 18.4C10.88 18.4 10.71 18.34 10.59 18.21C10.47 18.09 10.4 17.93 10.4 17.75L10.4 14.24C10.4 14.06 10.47 13.9 10.59 13.78C10.71 13.65 10.88 13.59 11.05 13.59L12.22 13.59C13.29 13.59 14.17 14.46 14.17 15.54L14.17 16.45C14.17 17.53 13.29 18.4 12.22 18.4L11.05 18.4ZM16.19 18.4C16.55 18.4 16.84 18.11 16.84 17.75L16.84 17.19L17.32 17.19C17.68 17.19 17.97 16.9 17.97 16.54C17.97 16.18 17.68 15.89 17.32 15.89L16.84 15.89L16.84 14.89L17.91 14.89C18.26 14.89 18.56 14.6 18.56 14.24C18.56 13.88 18.26 13.59 17.91 13.59L16.19 13.59C15.83 13.59 15.54 13.88 15.54 14.24L15.54 17.75C15.54 18.11 15.83 18.4 16.19 18.4ZM6.73 14.89L6.73 15.88L7.4 15.88C7.68 15.88 7.9 15.66 7.9 15.38C7.9 15.11 7.68 14.89 7.4 14.89L6.73 14.89ZM11.7 17.1L11.7 14.89L12.22 14.89C12.58 14.89 12.87 15.18 12.87 15.54L12.87 16.45C12.87 16.81 12.58 17.1 12.22 17.1L11.7 17.1Z" fill="#74767B" fill-opacity="1.000000" fill-rule="evenodd"/>
	</g>
</svg>
