<svg width="24.000000" height="24.000000" viewBox="0 0 24 24" fill="none" xmlns="http://www.w3.org/2000/svg" xmlns:xlink="http://www.w3.org/1999/xlink">
	<desc>
			Created with Pixso.
	</desc>
	<defs>
		<clipPath id="clip116957_999">
			<rect id="Outline / File CSV Outline" width="24.000000" height="24.000000" fill="white" fill-opacity="0"/>
		</clipPath>
	</defs>
	<rect id="Outline / File CSV Outline" width="24.000000" height="24.000000" fill="#FFFFFF" fill-opacity="0"/>
	<g clip-path="url(#clip116957_999)">
		<path id="Shape" d="M5 6L5 11C3.34 11 2 12.34 2 14L2 18C2 19.65 3.34 21 5 21L19 21C20.65 21 22 19.65 22 18L22 14C22 12.34 20.65 11 19 11L19 9.17C19 8.42 18.71 7.69 18.19 7.13L15.23 3.95C14.67 3.34 13.87 3 13.04 3L8 3C6.34 3 5 4.34 5 6ZM8 4.29L13.04 4.29C13.14 4.29 13.24 4.3 13.34 4.32L13.34 7.04C13.34 8.12 14.22 8.99 15.29 8.99L17.69 8.99C17.69 9.05 17.7 9.11 17.7 9.17L17.7 11L6.3 11L6.3 6C6.3 5.06 7.06 4.29 8 4.29ZM14.64 7.04L14.64 5.23L16.94 7.69L15.29 7.69C14.94 7.69 14.64 7.4 14.64 7.04ZM19 12.3L5 12.3C4.06 12.3 3.3 13.06 3.3 14L3.3 18C3.3 18.93 4.06 19.7 5 19.7L19 19.7C19.93 19.7 20.7 18.93 20.7 18L20.7 14C20.7 13.06 19.93 12.3 19 12.3ZM15.95 13.98C15.81 13.65 15.43 13.49 15.1 13.63C14.77 13.76 14.61 14.14 14.75 14.48L16.2 18.01C16.21 18.04 16.23 18.06 16.24 18.09C16.26 18.13 16.29 18.16 16.32 18.19C16.38 18.27 16.46 18.33 16.56 18.37C16.64 18.4 16.72 18.42 16.81 18.42C16.89 18.42 16.97 18.4 17.05 18.37C17.15 18.33 17.23 18.27 17.3 18.19C17.33 18.16 17.35 18.13 17.37 18.09C17.39 18.06 17.4 18.04 17.41 18.01L18.87 14.48C19.01 14.14 18.85 13.76 18.52 13.63C18.18 13.49 17.8 13.65 17.67 13.98L16.81 16.06L15.95 13.98ZM12.7 13.58C13.06 13.58 13.35 13.87 13.35 14.23C13.35 14.59 13.06 14.88 12.7 14.88L11.84 14.88C11.72 14.88 11.63 14.97 11.63 15.09C11.63 15.17 11.68 15.25 11.76 15.28L12.52 15.56C13.09 15.78 13.48 16.33 13.48 16.94C13.48 17.76 12.82 18.42 12 18.42L10.98 18.42C10.62 18.42 10.33 18.13 10.33 17.77C10.33 17.41 10.62 17.12 10.98 17.12L12 17.12C12.1 17.12 12.18 17.04 12.18 16.94C12.18 16.87 12.13 16.81 12.06 16.78L11.31 16.5C10.72 16.28 10.33 15.72 10.33 15.09C10.33 14.25 11 13.58 11.84 13.58L12.7 13.58ZM7.42 17.1C7.06 17.1 6.77 16.81 6.77 16.45L6.77 15.54C6.77 15.18 7.06 14.89 7.42 14.89L8.11 14.89C8.47 14.89 8.76 14.6 8.76 14.24C8.76 13.88 8.47 13.59 8.11 13.59L7.42 13.59C6.34 13.59 5.47 14.46 5.47 15.54L5.47 16.45C5.47 17.53 6.34 18.4 7.42 18.4L8.11 18.4C8.47 18.4 8.76 18.11 8.76 17.75C8.76 17.39 8.47 17.1 8.11 17.1L7.42 17.1Z" fill="#74767B" fill-opacity="1.000000" fill-rule="evenodd"/>
	</g>
</svg>
