<svg width="24.000000" height="24.000000" viewBox="0 0 24 24" fill="none" xmlns="http://www.w3.org/2000/svg" xmlns:xlink="http://www.w3.org/1999/xlink">
	<desc>
			Created with Pixso.
	</desc>
	<defs>
		<clipPath id="clip17_804">
			<rect id="Outline / File SNG Outline" width="24.000000" height="24.000000" fill="white" fill-opacity="0"/>
		</clipPath>
	</defs>
	<g>
		<path id="Shape" d="M17.64 4.65L9.66 4.65C8.72 4.65 7.96 5.41 7.96 6.35L7.96 16.36C7.96 17.3 8.72 18.06 9.66 18.06L17.64 18.06C18.58 18.06 19.34 17.3 19.34 16.36L19.34 6.35C19.34 5.41 18.58 4.65 17.64 4.65ZM9.66 3.35C8.01 3.35 6.66 4.69 6.66 6.35L6.66 16.36C6.66 18.02 8.01 19.36 9.66 19.36L17.64 19.36C19.3 19.36 20.64 18.02 20.64 16.36L20.64 6.35C20.64 4.69 19.3 3.35 17.64 3.35L9.66 3.35ZM4.71 8.7C5.07 8.7 5.36 8.99 5.36 9.35L5.36 18.81C5.36 19.83 6.19 20.66 7.21 20.66L15.65 20.66C16.01 20.66 16.3 20.95 16.3 21.31C16.3 21.67 16.01 21.96 15.65 21.96L7.21 21.96C5.47 21.96 4.06 20.55 4.06 18.81L4.06 9.35C4.06 8.99 4.35 8.7 4.71 8.7ZM10.33 9.53C10.56 9.44 10.79 9.48 10.9 9.56C10.95 9.59 10.97 9.62 10.98 9.66C10.99 9.7 11.01 9.8 10.95 9.99C10.61 11.02 10.06 12.62 9.78 13.26C9.66 13.54 9.74 13.86 9.98 14.04C10.22 14.22 10.55 14.21 10.78 14.03L12.89 12.32L13.71 13.08C13.86 13.22 14.06 13.28 14.25 13.24C14.45 13.21 14.62 13.1 14.72 12.92C14.81 12.77 14.89 12.59 14.96 12.43L15 12.34C15.09 12.14 15.17 11.98 15.27 11.83C15.45 11.56 15.62 11.43 15.88 11.4C16.15 11.38 16.31 11.49 16.43 11.64C16.5 11.71 16.54 11.79 16.57 11.86C16.59 11.89 16.6 11.91 16.61 11.93L16.61 11.94C16.72 12.28 17.08 12.47 17.42 12.36C17.77 12.25 17.96 11.89 17.85 11.54L17.23 11.74C17.85 11.54 17.85 11.54 17.85 11.54L17.85 11.54L17.85 11.54L17.85 11.54L17.84 11.53L17.84 11.51C17.83 11.5 17.83 11.48 17.82 11.46C17.8 11.41 17.78 11.36 17.74 11.29C17.68 11.15 17.57 10.97 17.42 10.79C17.11 10.42 16.57 10.04 15.77 10.11C14.97 10.18 14.48 10.66 14.18 11.12C14.09 11.26 14.01 11.4 13.95 11.53L13.35 10.99C13.11 10.77 12.75 10.76 12.5 10.96L11.8 11.53C11.94 11.12 12.07 10.72 12.18 10.39C12.31 10.01 12.33 9.63 12.23 9.29C12.12 8.93 11.9 8.66 11.63 8.48C11.11 8.13 10.42 8.1 9.86 8.32C9.52 8.45 9.36 8.83 9.49 9.16C9.62 9.5 10 9.66 10.33 9.53Z" fill="#717681" fill-opacity="1.000000" fill-rule="evenodd"/>
	</g>
</svg>
