<svg width="24.000000" height="24.000000" viewBox="0 0 24 24" fill="none" xmlns="http://www.w3.org/2000/svg" xmlns:xlink="http://www.w3.org/1999/xlink">
	<desc>
			Created with Pixso.
	</desc>
	<defs>
		<clipPath id="clip17_813">
			<rect id="Solid / File Currency Solid" width="24.000000" height="24.000000" fill="white" fill-opacity="0"/>
		</clipPath>
	</defs>
	<g >
		<path id="Shape" d="M17.64 3.35C19.3 3.35 20.64 4.69 20.64 6.35L20.64 16.35C20.64 18 19.3 19.35 17.64 19.35L9.64 19.35C7.99 19.35 6.64 18 6.64 16.35L6.64 6.35C6.64 4.69 7.99 3.35 9.64 3.35L17.64 3.35ZM10.89 9.08C10.94 8.02 11.66 7.05 12.83 6.77L12.83 6C12.83 5.64 13.12 5.35 13.48 5.35C13.84 5.35 14.13 5.64 14.13 6L14.13 6.73C14.85 6.86 15.37 7.24 15.72 7.71C16.13 8.27 16.28 8.92 16.28 9.4C16.28 9.76 15.99 10.05 15.63 10.05C15.27 10.05 14.98 9.76 14.98 9.4C14.98 9.16 14.9 8.79 14.67 8.49C14.47 8.22 14.15 7.98 13.56 7.98C12.66 7.98 12.22 8.56 12.18 9.15C12.15 9.71 12.51 10.42 13.67 10.61C14.65 10.78 15.4 11.15 15.91 11.69C16.42 12.23 16.64 12.9 16.58 13.56C16.47 14.74 15.51 15.71 14.13 15.92L14.13 16.69C14.13 17.05 13.84 17.34 13.48 17.34C13.12 17.34 12.83 17.05 12.83 16.69L12.83 15.88C12.18 15.73 11.69 15.38 11.35 14.97C10.91 14.46 10.7 13.83 10.7 13.39C10.7 13.03 10.99 12.74 11.35 12.74C11.71 12.74 12 13.03 12 13.39C12 13.49 12.08 13.82 12.34 14.14C12.58 14.42 12.96 14.67 13.56 14.67C14.69 14.67 15.24 14 15.29 13.45C15.31 13.16 15.22 12.86 14.96 12.58C14.7 12.3 14.23 12.02 13.45 11.9C11.71 11.61 10.82 10.36 10.89 9.08ZM4 9.35C4 8.99 4.29 8.7 4.64 8.7C5 8.7 5.3 8.99 5.3 9.35L5.3 18.75C5.3 19.82 6.17 20.7 7.25 20.7L15.64 20.7C16 20.7 16.29 20.99 16.29 21.35C16.29 21.7 16 22 15.64 22L7.25 22C5.45 22 4 20.54 4 18.75L4 9.35Z" fill="#74767B" fill-opacity="1.000000" fill-rule="evenodd"/>
	</g>
</svg>
