<svg width="24.000000" height="24.000000" viewBox="0 0 24 24" fill="none" xmlns="http://www.w3.org/2000/svg" xmlns:xlink="http://www.w3.org/1999/xlink">
	<desc>
			Created with Pixso.
	</desc>
	<defs>
		<clipPath id="clip108904_1406">
			<rect id="Outline / File XLS Outline" width="24.000000" height="24.000000" fill="white" fill-opacity="0"/>
		</clipPath>
	</defs>
	<g >
		<path id="Shape" d="M5 11L5 6C5 4.34 6.34 3 8 3L13.04 3C13.87 3 14.67 3.34 15.23 3.95L18.19 7.13C18.71 7.69 19 8.42 19 9.17L19 11C20.65 11 22 12.34 22 14L22 18C22 19.65 20.65 21 19 21L5 21C3.34 21 2 19.65 2 18L2 14C2 12.34 3.34 11 5 11ZM13.04 4.29L8 4.29C7.06 4.29 6.3 5.06 6.3 6L6.3 11L17.7 11L17.7 9.17C17.7 9.11 17.69 9.05 17.69 8.99L15.29 8.99C14.22 8.99 13.34 8.12 13.34 7.04L13.34 4.32C13.24 4.3 13.14 4.29 13.04 4.29ZM14.64 5.23L16.94 7.69L15.29 7.69C14.94 7.69 14.64 7.4 14.64 7.04L14.64 5.23ZM5 12.3L19 12.3C19.93 12.3 20.7 13.06 20.7 14L20.7 18C20.7 18.93 19.93 19.7 19 19.7L5 19.7C4.06 19.7 3.3 18.93 3.3 18L3.3 14C3.3 13.06 4.06 12.3 5 12.3ZM6.95 13.85C6.74 13.55 6.33 13.49 6.04 13.69C5.75 13.9 5.68 14.31 5.89 14.6L6.88 16L5.89 17.39C5.68 17.68 5.75 18.09 6.04 18.3C6.33 18.51 6.74 18.44 6.95 18.14L7.68 17.11L8.42 18.14C8.63 18.44 9.03 18.51 9.32 18.3C9.62 18.09 9.68 17.68 9.47 17.39L8.48 16L9.47 14.6C9.68 14.31 9.62 13.9 9.32 13.69C9.03 13.49 8.63 13.55 8.42 13.85L7.68 14.88L6.95 13.85ZM11.76 13.58C12.12 13.58 12.41 13.87 12.41 14.23L12.41 17.12L13.48 17.12C13.84 17.12 14.13 17.41 14.13 17.77C14.13 18.13 13.84 18.42 13.48 18.42L11.76 18.42C11.4 18.42 11.11 18.13 11.11 17.77L11.11 14.23C11.11 13.87 11.4 13.58 11.76 13.58ZM17.44 13.58C17.8 13.58 18.09 13.87 18.09 14.23C18.09 14.59 17.8 14.88 17.44 14.88L16.58 14.88C16.47 14.88 16.37 14.97 16.37 15.09C16.37 15.17 16.43 15.25 16.51 15.28L17.26 15.56C17.84 15.78 18.22 16.33 18.22 16.94C18.22 17.76 17.56 18.42 16.75 18.42L15.72 18.42C15.36 18.42 15.07 18.13 15.07 17.77C15.07 17.41 15.36 17.12 15.72 17.12L16.75 17.12C16.85 17.12 16.92 17.04 16.92 16.94C16.92 16.87 16.88 16.81 16.81 16.78L16.06 16.5C15.47 16.28 15.07 15.72 15.07 15.09C15.07 14.25 15.75 13.58 16.58 13.58L17.44 13.58Z" fill="#74767B" fill-opacity="1.000000" fill-rule="evenodd"/>
	</g>
</svg>
