<svg width="24.000000" height="24.000000" viewBox="0 0 24 24" fill="none" xmlns="http://www.w3.org/2000/svg" xmlns:xlink="http://www.w3.org/1999/xlink">
	<desc>
			Created with Pixso.
	</desc>
	<defs>
		<clipPath id="clip108904_1421">
			<rect id="Solid/ File DOC Solid" width="24.000000" height="24.000000" fill="white" fill-opacity="0"/>
		</clipPath>
	</defs>
	<g >
		<path id="Shape" d="M5 11L5 6C5 4.34 6.34 3 8 3L13.04 3C13.87 3 14.67 3.34 15.23 3.95L18.19 7.13C18.71 7.69 19 8.42 19 9.17L19 11C20.65 11 22 12.34 22 14L22 18C22 19.65 20.65 21 19 21L5 21C3.34 21 2 19.65 2 18L2 14C2 12.34 3.34 11 5 11ZM13.04 4.29L8 4.29C7.06 4.29 6.3 5.06 6.3 6L6.3 11L17.7 11L17.7 9.17C17.7 9.11 17.69 9.05 17.69 8.99L15.29 8.99C14.22 8.99 13.34 8.12 13.34 7.04L13.34 4.32C13.24 4.3 13.14 4.29 13.04 4.29ZM14.64 5.23L16.94 7.69L15.29 7.69C14.94 7.69 14.64 7.4 14.64 7.04L14.64 5.23ZM5.51 18.21C5.63 18.34 5.8 18.4 5.97 18.4L7.14 18.4C8.21 18.4 9.09 17.53 9.09 16.45L9.09 15.54C9.09 14.46 8.21 13.59 7.14 13.59L5.97 13.59C5.8 13.59 5.63 13.65 5.51 13.78C5.39 13.9 5.32 14.06 5.32 14.24L5.32 17.75C5.32 17.93 5.39 18.09 5.51 18.21ZM12.22 18.4C11.18 18.4 10.34 17.56 10.34 16.52L10.34 15.47C10.34 14.43 11.18 13.59 12.22 13.59C13.26 13.59 14.11 14.43 14.11 15.47L14.11 16.52C14.11 17.56 13.26 18.4 12.22 18.4ZM17.33 17.1C16.97 17.1 16.68 16.81 16.68 16.45L16.68 15.54C16.68 15.18 16.97 14.89 17.33 14.89L18.02 14.89C18.38 14.89 18.67 14.6 18.67 14.24C18.67 13.88 18.38 13.59 18.02 13.59L17.33 13.59C16.25 13.59 15.38 14.46 15.38 15.54L15.38 16.45C15.38 17.53 16.25 18.4 17.33 18.4L18.02 18.4C18.38 18.4 18.67 18.11 18.67 17.75C18.67 17.39 18.38 17.1 18.02 17.1L17.33 17.1ZM6.62 14.89L6.62 17.1L7.14 17.1C7.5 17.1 7.79 16.81 7.79 16.45L7.79 15.54C7.79 15.18 7.5 14.89 7.14 14.89L6.62 14.89ZM12.22 17.1C11.9 17.1 11.64 16.84 11.64 16.52L11.64 15.47C11.64 15.15 11.9 14.89 12.22 14.89C12.54 14.89 12.81 15.15 12.81 15.47L12.81 16.52C12.81 16.84 12.54 17.1 12.22 17.1Z" fill="#74767B" fill-opacity="1.000000" fill-rule="evenodd"/>
	</g>
</svg>
