<svg width="24.000000" height="24.000000" viewBox="0 0 24 24" fill="none" xmlns="http://www.w3.org/2000/svg" xmlns:xlink="http://www.w3.org/1999/xlink">
	<desc>
			Created with Pixso.
	</desc>
	<defs>
		<clipPath id="clip17_807">
			<rect id="Solid / File SNG Solid" width="24.000000" height="24.000000" fill="white" fill-opacity="0"/>
		</clipPath>
	</defs>
	<g>
		<path id="Shape" d="M6.66 6.35C6.66 4.69 8.01 3.35 9.66 3.35L17.64 3.35C19.3 3.35 20.64 4.69 20.64 6.35L20.64 16.36C20.64 18.02 19.3 19.36 17.64 19.36L9.66 19.36C8.01 19.36 6.66 18.02 6.66 16.36L6.66 6.35ZM10.99 9.57C10.85 9.48 10.58 9.44 10.32 9.53C9.98 9.66 9.61 9.49 9.48 9.15C9.36 8.81 9.53 8.44 9.87 8.31C10.45 8.1 11.16 8.13 11.69 8.47C11.97 8.65 12.21 8.92 12.32 9.27C12.43 9.63 12.41 10.02 12.27 10.41C12.15 10.75 12 11.17 11.84 11.6L12.7 10.95C12.95 10.76 13.29 10.77 13.52 10.97L14.22 11.57C14.29 11.42 14.38 11.26 14.49 11.11C14.82 10.63 15.33 10.17 16.15 10.11C16.96 10.05 17.52 10.41 17.86 10.78C18.02 10.96 18.13 11.14 18.2 11.27C18.23 11.34 18.26 11.4 18.28 11.44C18.29 11.47 18.29 11.49 18.3 11.5L18.31 11.52L18.31 11.53L18.31 11.53L18.31 11.53C18.31 11.53 18.31 11.53 17.72 11.73L18.31 11.53C18.43 11.87 18.24 12.24 17.9 12.36C17.56 12.47 17.2 12.29 17.08 11.95L17.08 11.94C17.07 11.93 17.06 11.9 17.04 11.87C17.01 11.81 16.96 11.73 16.89 11.65C16.76 11.51 16.57 11.38 16.25 11.4C15.94 11.43 15.75 11.58 15.56 11.85C15.46 11.99 15.37 12.16 15.28 12.35L15.23 12.44C15.16 12.6 15.07 12.78 14.97 12.94C14.87 13.1 14.71 13.21 14.52 13.24C14.33 13.27 14.14 13.22 13.99 13.1L13.07 12.3L10.78 14.04C10.55 14.22 10.22 14.21 9.98 14.03C9.75 13.84 9.68 13.52 9.8 13.25C10.1 12.61 10.68 11.01 11.05 9.97C11.11 9.8 11.09 9.7 11.08 9.67C11.07 9.64 11.05 9.6 10.99 9.57ZM5.36 9.35C5.36 8.99 5.07 8.7 4.71 8.7C4.35 8.7 4.06 8.99 4.06 9.35L4.06 18.81C4.06 20.55 5.47 21.96 7.21 21.96L15.65 21.96C16.01 21.96 16.3 21.67 16.3 21.31C16.3 20.95 16.01 20.66 15.65 20.66L7.21 20.66C6.19 20.66 5.36 19.83 5.36 18.81L5.36 9.35Z" fill="#717681" fill-opacity="1.000000" fill-rule="evenodd"/>
	</g>
</svg>
