<svg width="24.000000" height="24.000000" viewBox="0 0 24 24" fill="none" xmlns="http://www.w3.org/2000/svg" xmlns:xlink="http://www.w3.org/1999/xlink">
	<desc>
			Created with Pixso.
	</desc>
	<defs>
		<clipPath id="clip108904_1396">
			<rect id="Solid/ File JPG Solid" width="24.000000" height="24.000000" fill="white" fill-opacity="0"/>
		</clipPath>
	</defs>
	<g>
		<path id="Shape" d="M5 11L5 6C5 4.34 6.34 3 8 3L13.04 3C13.87 3 14.67 3.34 15.23 3.95L18.19 7.13C18.71 7.69 19 8.42 19 9.17L19 11C20.65 11 22 12.34 22 14L22 18C22 19.65 20.65 21 19 21L5 21C3.34 21 2 19.65 2 18L2 14C2 12.34 3.34 11 5 11ZM13.04 4.29L8 4.29C7.06 4.29 6.3 5.06 6.3 6L6.3 11L17.7 11L17.7 9.17C17.7 9.11 17.69 9.05 17.69 8.99L15.29 8.99C14.22 8.99 13.34 8.12 13.34 7.04L13.34 4.32C13.24 4.3 13.14 4.29 13.04 4.29ZM14.64 5.23L16.94 7.69L15.29 7.69C14.94 7.69 14.64 7.4 14.64 7.04L14.64 5.23ZM7.98 13.59C8.34 13.59 8.63 13.88 8.63 14.24L8.63 16.46C8.63 17.53 7.76 18.41 6.68 18.41L6.05 18.41C5.69 18.41 5.4 18.12 5.4 17.76C5.4 17.4 5.69 17.11 6.05 17.11L6.68 17.11C7.04 17.11 7.33 16.82 7.33 16.46L7.33 14.24C7.33 13.88 7.62 13.59 7.98 13.59ZM10.76 18.41C11.12 18.41 11.41 18.12 11.41 17.76L11.41 17.18L12.08 17.18C13.07 17.18 13.88 16.38 13.88 15.39C13.88 14.39 13.07 13.59 12.08 13.59L10.76 13.59C10.4 13.59 10.11 13.88 10.11 14.24L10.11 17.76C10.11 18.12 10.4 18.41 10.76 18.41ZM16.28 15.54C16.28 15.18 16.57 14.89 16.93 14.89L17.94 14.89C18.3 14.89 18.59 14.6 18.59 14.24C18.59 13.88 18.3 13.59 17.94 13.59L16.93 13.59C15.85 13.59 14.98 14.46 14.98 15.54L14.98 16.46C14.98 17.53 15.85 18.41 16.93 18.41L17.24 18.41C17.99 18.41 18.59 17.8 18.59 17.06L18.59 16.56C18.59 16.2 18.3 15.91 17.94 15.91C17.58 15.91 17.29 16.2 17.29 16.56L17.29 17.06C17.29 17.08 17.27 17.11 17.24 17.11L16.93 17.11C16.57 17.11 16.28 16.82 16.28 16.46L16.28 15.54ZM11.41 15.88L11.41 14.89L12.08 14.89C12.36 14.89 12.58 15.11 12.58 15.39C12.58 15.66 12.36 15.88 12.08 15.88L11.41 15.88Z" fill="#717681" fill-opacity="1.000000" fill-rule="evenodd"/>
	</g>
</svg>
