<svg width="24.000000" height="24.000000" viewBox="0 0 24 24" fill="none" xmlns="http://www.w3.org/2000/svg" xmlns:xlink="http://www.w3.org/1999/xlink">
	<desc>
			Created with Pixso.
	</desc>
	<defs>
		<clipPath id="clip108904_1384">
			<rect id="Solid/ File XML Solid" width="24.000000" height="24.000000" fill="white" fill-opacity="0"/>
		</clipPath>
	</defs>
	<g clip-path="url(#clip108904_1384)">
		<path id="Shape" d="M5 11L5 6C5 4.34 6.34 3 8 3L13.04 3C13.87 3 14.67 3.34 15.23 3.95L18.19 7.13C18.71 7.69 19 8.42 19 9.17L19 11C20.65 11 22 12.34 22 14L22 18C22 19.65 20.65 21 19 21L5 21C3.34 21 2 19.65 2 18L2 14C2 12.34 3.34 11 5 11ZM13.04 4.29L8 4.29C7.06 4.29 6.3 5.06 6.3 6L6.3 11L17.7 11L17.7 9.17C17.7 8.75 17.53 8.33 17.24 8.02L14.28 4.84C13.96 4.49 13.51 4.29 13.04 4.29ZM8.49 13.69C8.2 13.49 7.79 13.55 7.59 13.85L6.85 14.88L6.11 13.85C5.91 13.55 5.5 13.49 5.21 13.69C4.92 13.9 4.85 14.31 5.06 14.6L6.05 16L5.06 17.39C4.85 17.68 4.92 18.09 5.21 18.3C5.5 18.51 5.91 18.44 6.11 18.14L6.85 17.11L7.59 18.14C7.79 18.44 8.2 18.51 8.49 18.3C8.78 18.09 8.85 17.68 8.64 17.39L7.65 16L8.64 14.6C8.85 14.31 8.78 13.9 8.49 13.69ZM17.49 14.23C17.49 13.87 17.2 13.58 16.84 13.58C16.48 13.58 16.19 13.87 16.19 14.23L16.19 17.77C16.19 18.13 16.48 18.42 16.84 18.42L18.56 18.42C18.92 18.42 19.21 18.13 19.21 17.77C19.21 17.41 18.92 17.12 18.56 17.12L17.49 17.12L17.49 14.23ZM10.17 13.69C10.46 13.49 10.87 13.55 11.07 13.85L12.39 15.69L13.68 13.89C13.71 13.84 13.74 13.8 13.78 13.77C14 13.54 14.36 13.51 14.62 13.69C14.82 13.84 14.92 14.08 14.89 14.31L14.89 17.77C14.89 18.13 14.6 18.42 14.24 18.42C13.88 18.42 13.59 18.13 13.59 17.77L13.59 16.26L12.93 17.18C12.9 17.22 12.87 17.26 12.83 17.29C12.79 17.33 12.74 17.37 12.69 17.39C12.59 17.44 12.49 17.46 12.39 17.46C12.23 17.46 12.08 17.4 11.95 17.29C11.92 17.26 11.88 17.22 11.85 17.18L11.19 16.25L11.19 17.77C11.19 18.13 10.9 18.42 10.54 18.42C10.19 18.42 9.89 18.13 9.89 17.77L9.89 14.23C9.89 14.21 9.89 14.2 9.9 14.19C9.91 14 10 13.81 10.17 13.69Z" fill="#74767B" fill-opacity="1.000000" fill-rule="evenodd"/>
		<path id="Shape" d="M5 11C3.34 11 2 12.34 2 14L2 18C2 19.65 3.34 21 5 21L19 21C20.65 21 22 19.65 22 18L22 14C22 12.34 20.65 11 19 11L19 9.17C19 9.16 19 9.15 18.99 9.14C18.99 8.77 18.92 8.41 18.79 8.08C18.65 7.73 18.45 7.41 18.19 7.13L15.23 3.95C15.23 3.95 15.23 3.95 15.23 3.95C14.95 3.64 14.61 3.41 14.24 3.24C14.23 3.24 14.23 3.24 14.23 3.24C13.86 3.08 13.45 3 13.04 3L8 3C7.7 3 7.41 3.04 7.14 3.12C6.95 3.18 6.76 3.25 6.59 3.34C6.33 3.48 6.09 3.66 5.88 3.87C5.88 3.87 5.87 3.87 5.87 3.87C5.87 3.87 5.87 3.88 5.87 3.88C5.66 4.09 5.48 4.33 5.34 4.59C5.25 4.76 5.18 4.95 5.12 5.14C5.04 5.41 5 5.69 5 5.99L5 6L5 9.7L5 11ZM19 12.3L17.1 12.3C17.15 12.3 17.2 12.31 17.24 12.32C17.36 12.34 17.48 12.38 17.6 12.43C17.71 12.48 17.82 12.54 17.92 12.61C18.03 12.68 18.13 12.76 18.22 12.85C18.31 12.94 18.39 13.04 18.46 13.14C18.53 13.25 18.59 13.35 18.64 13.47C18.69 13.59 18.72 13.7 18.75 13.83C18.78 13.96 18.79 14.09 18.79 14.23L18.79 15.83C18.85 15.84 18.9 15.85 18.96 15.86C19.08 15.88 19.2 15.92 19.32 15.97C19.43 16.02 19.54 16.08 19.64 16.15C19.75 16.22 19.85 16.3 19.94 16.39C20.03 16.48 20.11 16.58 20.18 16.68C20.25 16.79 20.31 16.89 20.36 17.01C20.4 17.12 20.44 17.24 20.47 17.37C20.5 17.5 20.51 17.63 20.51 17.77C20.51 17.9 20.5 18.04 20.47 18.17C20.44 18.29 20.4 18.41 20.36 18.53C20.31 18.64 20.25 18.75 20.18 18.85C20.11 18.96 20.03 19.05 19.94 19.15C19.85 19.24 19.75 19.32 19.64 19.39C19.54 19.46 19.43 19.52 19.32 19.56C19.2 19.61 19.08 19.65 18.96 19.68C18.93 19.68 18.89 19.69 18.86 19.7L19 19.7C19.13 19.7 19.27 19.68 19.4 19.65C19.48 19.63 19.57 19.6 19.66 19.56C19.75 19.52 19.83 19.48 19.91 19.43C20.02 19.36 20.11 19.28 20.2 19.2C20.28 19.11 20.36 19.02 20.43 18.91C20.48 18.83 20.52 18.75 20.56 18.66C20.6 18.57 20.63 18.48 20.65 18.4C20.68 18.27 20.7 18.13 20.7 18L20.7 14C20.7 13.86 20.68 13.72 20.65 13.59C20.63 13.51 20.6 13.42 20.56 13.33C20.52 13.24 20.48 13.16 20.43 13.08C20.36 12.97 20.28 12.88 20.2 12.79C20.11 12.71 20.02 12.63 19.91 12.56C19.83 12.51 19.75 12.47 19.66 12.43C19.57 12.39 19.48 12.36 19.4 12.34C19.27 12.31 19.13 12.3 19 12.3ZM16.54 19.7C16.51 19.69 16.47 19.68 16.44 19.68C16.32 19.65 16.2 19.61 16.08 19.56C15.97 19.52 15.86 19.46 15.76 19.39C15.68 19.34 15.61 19.28 15.54 19.22C15.47 19.28 15.4 19.34 15.32 19.39C15.22 19.46 15.11 19.52 15 19.56C14.88 19.61 14.76 19.65 14.64 19.68C14.6 19.68 14.57 19.69 14.53 19.7L16.54 19.7ZM13.94 19.7C13.9 19.69 13.87 19.68 13.83 19.68C13.71 19.65 13.59 19.61 13.48 19.56C13.36 19.52 13.25 19.46 13.15 19.39C13.05 19.32 12.95 19.24 12.86 19.15C12.77 19.05 12.68 18.96 12.61 18.85C12.59 18.82 12.57 18.79 12.56 18.76C12.5 18.76 12.45 18.76 12.39 18.76C12.34 18.76 12.28 18.76 12.23 18.76C12.21 18.79 12.19 18.82 12.17 18.85C12.1 18.96 12.01 19.05 11.92 19.15C11.83 19.24 11.73 19.32 11.63 19.39C11.53 19.46 11.42 19.52 11.3 19.56C11.19 19.61 11.07 19.65 10.95 19.68C10.91 19.68 10.88 19.69 10.84 19.7L13.94 19.7ZM10.25 19.7C10.21 19.69 10.18 19.68 10.14 19.68C10.02 19.65 9.9 19.61 9.79 19.56C9.67 19.52 9.56 19.46 9.46 19.39C9.42 19.36 9.37 19.33 9.33 19.29C9.3 19.31 9.27 19.33 9.25 19.35C9.14 19.43 9.02 19.5 8.9 19.55C8.78 19.6 8.66 19.64 8.54 19.67C8.5 19.68 8.45 19.69 8.41 19.7L10.25 19.7ZM7.82 19.7C7.81 19.69 7.8 19.69 7.79 19.69C7.66 19.67 7.54 19.64 7.42 19.59C7.31 19.55 7.2 19.49 7.09 19.43C7.01 19.38 6.93 19.32 6.85 19.25C6.77 19.32 6.69 19.38 6.61 19.43C6.5 19.49 6.39 19.55 6.28 19.59C6.16 19.64 6.03 19.67 5.91 19.69C5.9 19.69 5.89 19.69 5.88 19.7L7.82 19.7ZM5.29 19.7C5.25 19.69 5.2 19.68 5.16 19.67C5.04 19.64 4.92 19.6 4.8 19.55C4.68 19.5 4.56 19.43 4.45 19.35C4.34 19.28 4.24 19.19 4.15 19.09C4.07 19 3.99 18.9 3.92 18.79C3.86 18.68 3.8 18.57 3.76 18.46C3.72 18.34 3.68 18.22 3.66 18.09C3.64 17.96 3.63 17.83 3.64 17.71C3.64 17.59 3.65 17.46 3.68 17.34C3.71 17.22 3.75 17.1 3.8 16.99C3.85 16.86 3.92 16.75 4 16.63L4.45 16L4 15.36C3.92 15.24 3.85 15.13 3.8 15C3.75 14.89 3.71 14.77 3.68 14.65C3.65 14.53 3.64 14.4 3.64 14.28C3.63 14.16 3.64 14.03 3.66 13.9C3.68 13.77 3.72 13.65 3.76 13.53C3.8 13.42 3.86 13.31 3.92 13.2C3.99 13.09 4.07 12.99 4.15 12.9C4.24 12.8 4.34 12.71 4.45 12.64C4.56 12.56 4.68 12.49 4.8 12.44C4.92 12.39 5.04 12.35 5.16 12.32C5.2 12.31 5.25 12.3 5.29 12.3L5 12.3C4.86 12.3 4.72 12.31 4.59 12.34C4.51 12.36 4.42 12.39 4.33 12.43C4.24 12.47 4.16 12.51 4.08 12.56C3.97 12.63 3.88 12.71 3.79 12.79C3.71 12.88 3.63 12.97 3.56 13.08C3.51 13.16 3.47 13.24 3.43 13.33C3.39 13.42 3.36 13.51 3.34 13.59C3.31 13.72 3.3 13.86 3.3 14L3.3 18C3.3 18.13 3.31 18.27 3.34 18.4C3.36 18.48 3.39 18.57 3.43 18.66C3.47 18.75 3.51 18.83 3.56 18.91C3.63 19.02 3.71 19.11 3.79 19.2C3.88 19.28 3.97 19.36 4.08 19.43C4.16 19.48 4.24 19.52 4.33 19.56C4.42 19.6 4.51 19.63 4.59 19.65C4.72 19.68 4.86 19.7 5 19.7L5.29 19.7ZM5.88 12.3C5.89 12.3 5.9 12.3 5.91 12.3C6.03 12.32 6.16 12.35 6.28 12.4C6.39 12.44 6.5 12.5 6.61 12.56C6.69 12.61 6.77 12.67 6.85 12.74C6.93 12.67 7.01 12.61 7.09 12.56C7.2 12.5 7.31 12.44 7.42 12.4C7.54 12.35 7.66 12.32 7.79 12.3C7.8 12.3 7.81 12.3 7.82 12.3L5.88 12.3ZM8.41 12.3C8.45 12.3 8.5 12.31 8.54 12.32C8.66 12.35 8.78 12.39 8.9 12.44C9.02 12.49 9.14 12.56 9.25 12.64C9.27 12.66 9.3 12.68 9.33 12.7C9.36 12.68 9.38 12.66 9.41 12.64C9.52 12.56 9.64 12.49 9.76 12.44C9.81 12.42 9.85 12.4 9.89 12.38L9.89 12.3L8.41 12.3ZM9.97 12.3L10.01 12.35C10.04 12.34 10.08 12.33 10.12 12.32C10.16 12.31 10.21 12.3 10.25 12.3L9.97 12.3ZM10.84 12.3C10.85 12.3 10.86 12.3 10.87 12.3C10.99 12.32 11.12 12.35 11.24 12.4C11.35 12.44 11.46 12.5 11.57 12.56C11.67 12.63 11.77 12.7 11.87 12.79C11.96 12.88 12.05 12.98 12.13 13.09L12.39 13.46L12.61 13.16C12.68 13.04 12.76 12.94 12.85 12.85C12.93 12.77 13.02 12.7 13.11 12.63C13.21 12.56 13.31 12.51 13.42 12.46C13.52 12.41 13.62 12.37 13.73 12.34C13.8 12.32 13.87 12.31 13.95 12.3L10.84 12.3ZM14.54 12.3C14.61 12.31 14.67 12.32 14.74 12.34C14.75 12.34 14.77 12.34 14.78 12.35L14.82 12.3L14.54 12.3ZM14.89 12.3L14.89 12.38C14.94 12.4 15 12.42 15.06 12.45C15.17 12.5 15.27 12.56 15.37 12.64C15.43 12.68 15.49 12.72 15.54 12.77C15.61 12.71 15.68 12.66 15.76 12.61C15.86 12.54 15.97 12.48 16.08 12.43C16.2 12.38 16.32 12.34 16.44 12.32C16.49 12.31 16.53 12.3 16.58 12.3L14.89 12.3ZM16.19 14.18C16.19 14.19 16.19 14.21 16.19 14.23L16.19 17.77C16.19 18.13 16.48 18.42 16.84 18.42L18.56 18.42C18.92 18.42 19.21 18.13 19.21 17.77C19.21 17.41 18.92 17.12 18.56 17.12L17.49 17.12L17.49 15.82L17.49 14.23L17.49 14.23C17.49 13.87 17.2 13.58 16.84 13.58C16.5 13.58 16.22 13.84 16.19 14.18ZM14.89 14.27C14.89 14.24 14.89 14.21 14.89 14.18C14.89 14.17 14.89 14.15 14.89 14.14C14.86 13.97 14.77 13.8 14.62 13.69C14.36 13.51 14 13.54 13.78 13.77C13.76 13.78 13.75 13.8 13.73 13.82C13.71 13.84 13.7 13.86 13.68 13.89L13.19 14.58L12.39 15.69L11.59 14.58L11.07 13.85C10.87 13.55 10.46 13.49 10.17 13.69C10.11 13.73 10.06 13.78 10.02 13.83C9.95 13.94 9.9 14.06 9.9 14.19C9.89 14.2 9.89 14.21 9.89 14.23L9.89 17.77C9.89 17.91 9.94 18.05 10.02 18.16C10.14 18.32 10.33 18.42 10.54 18.42C10.74 18.42 10.91 18.34 11.03 18.2C11.13 18.09 11.19 17.94 11.19 17.77L11.19 16.25L11.85 17.18C11.86 17.19 11.87 17.2 11.87 17.21C11.9 17.24 11.92 17.27 11.95 17.29C12.05 17.38 12.16 17.43 12.29 17.45C12.32 17.46 12.36 17.46 12.39 17.46C12.43 17.46 12.46 17.46 12.49 17.46C12.56 17.45 12.63 17.42 12.69 17.39C12.74 17.37 12.79 17.33 12.83 17.29C12.86 17.27 12.89 17.24 12.91 17.21C12.92 17.2 12.93 17.19 12.93 17.18L13.59 16.26L13.59 17.77C13.59 17.94 13.65 18.09 13.76 18.21C13.88 18.34 14.05 18.42 14.24 18.42C14.6 18.42 14.89 18.13 14.89 17.77L14.89 14.31C14.89 14.3 14.89 14.28 14.89 14.27ZM8.59 14.67L8.64 14.6L8.64 14.6C8.81 14.36 8.8 14.05 8.63 13.83C8.59 13.78 8.55 13.73 8.49 13.69C8.23 13.51 7.87 13.54 7.65 13.76C7.63 13.79 7.61 13.82 7.59 13.85L7.58 13.85L6.85 14.88L6.12 13.85L6.11 13.85C6.09 13.82 6.07 13.79 6.05 13.76C5.83 13.54 5.47 13.51 5.21 13.69C4.92 13.9 4.85 14.31 5.06 14.6L5.06 14.6L6.05 16L5.06 17.39C4.85 17.68 4.92 18.09 5.21 18.3C5.47 18.48 5.83 18.45 6.05 18.23C6.07 18.2 6.09 18.17 6.11 18.14L6.85 17.11L7.59 18.14C7.61 18.17 7.63 18.2 7.65 18.23C7.87 18.45 8.23 18.48 8.49 18.3C8.55 18.26 8.59 18.21 8.63 18.16C8.8 17.94 8.81 17.63 8.64 17.39L8.59 17.32L7.65 16L8.59 14.67ZM17.7 11L17.7 9.17C17.7 9.17 17.7 9.16 17.69 9.15C17.69 8.94 17.65 8.74 17.58 8.55C17.5 8.36 17.39 8.18 17.24 8.02C17.24 8.02 17.24 8.02 17.24 8.02L14.28 4.84C14.12 4.66 13.93 4.53 13.72 4.44C13.51 4.35 13.29 4.3 13.06 4.3C13.05 4.3 13.04 4.29 13.04 4.29L8 4.29C7.53 4.29 7.1 4.48 6.8 4.79C6.8 4.79 6.79 4.79 6.79 4.79C6.79 4.79 6.79 4.8 6.79 4.8C6.48 5.1 6.3 5.53 6.3 6L6.3 11L17.7 11Z" fill="#74767B" fill-opacity="1.000000" fill-rule="evenodd"/>
		<path id="Rectangle 3385" d="M18.55 8.99L15.29 8.99C15.03 8.99 14.78 8.94 14.54 8.84C14.3 8.74 14.1 8.6 13.92 8.42C13.74 8.24 13.6 8.04 13.5 7.8C13.4 7.56 13.34 7.31 13.34 7.04L13.34 3.93L14.64 3.93L14.64 7.04C14.64 7.22 14.71 7.38 14.84 7.5C14.96 7.63 15.12 7.69 15.29 7.69L18.55 7.69L18.55 8.99Z" fill="#74767B" fill-opacity="1.000000" fill-rule="evenodd"/>
	</g>
</svg>
