<svg width="24" height="24" viewBox="0 0 24 24" fill="none" xmlns="http://www.w3.org/2000/svg">
<path d="M7.58992 13.8501C7.7984 13.5579 8.20432 13.49 8.49656 13.6985C8.7888 13.907 8.8567 14.3129 8.64821 14.6051L7.65312 16L8.64824 17.3949C8.85672 17.6871 8.78883 18.093 8.49658 18.3015C8.20434 18.51 7.79843 18.4421 7.58994 18.1499L6.85466 17.1192L6.11938 18.1499C5.9109 18.4421 5.50498 18.51 5.21274 18.3015C4.9205 18.093 4.8526 17.6871 5.06109 17.3949L6.05621 16L5.06111 14.6051C4.85263 14.3129 4.92052 13.907 5.21276 13.6985C5.505 13.49 5.91092 13.5579 6.11941 13.8501L6.85466 14.8808L7.58992 13.8501Z" fill="#717681"/>
<path d="M9.89949 14.2363C9.89692 14.0306 9.99182 13.827 10.172 13.6985C10.4642 13.49 10.8701 13.5579 11.0786 13.8501L12.3981 15.6997L13.6884 13.891C13.7155 13.8474 13.7475 13.8072 13.7838 13.7712C14.004 13.5473 14.3605 13.5103 14.6242 13.6985C14.8265 13.8428 14.9213 14.0817 14.8914 14.312V17.7724C14.8914 18.1314 14.6004 18.4224 14.2414 18.4224C13.8824 18.4224 13.5914 18.1314 13.5914 17.7724V16.2655L12.9299 17.1928C12.9232 17.2022 12.9163 17.2115 12.9092 17.2206C12.8359 17.3139 12.7416 17.382 12.6379 17.4231C12.5604 17.4539 12.479 17.4689 12.3981 17.4688C12.3172 17.4689 12.2358 17.4539 12.1583 17.4231C12.0546 17.382 11.9603 17.3139 11.8871 17.2206C11.8799 17.2115 11.873 17.2022 11.8664 17.1928L11.1995 16.258V17.7724C11.1995 18.1314 10.9085 18.4224 10.5495 18.4224C10.1905 18.4224 9.89949 18.1314 9.89949 17.7724V14.2363Z" fill="#717681"/>
<path d="M16.8449 13.5829C17.2039 13.5829 17.4949 13.8739 17.4949 14.2329L17.4949 17.1224H18.5637C18.9227 17.1224 19.2137 17.4134 19.2137 17.7724C19.2137 18.1314 18.9227 18.4224 18.5637 18.4224H16.8449C16.4859 18.4224 16.1949 18.1314 16.1949 17.7724V14.2329C16.1949 13.8739 16.4859 13.5829 16.8449 13.5829Z" fill="#717681"/>
<path fill-rule="evenodd" clip-rule="evenodd" d="M5 11V6C5 4.34315 6.34315 3 8 3H13.042C13.8752 3 14.671 3.34655 15.2385 3.95662L18.1965 7.13629C18.7129 7.69141 19 8.42148 19 9.17967V11C20.6569 11 22 12.3431 22 14V18C22 19.6569 20.6569 21 19 21H5C3.34315 21 2 19.6569 2 18V14C2 12.3431 3.34315 11 5 11ZM13.042 4.3H8C7.06112 4.3 6.3 5.06112 6.3 6V11H17.7V9.17967C17.7 9.11913 17.6968 9.05892 17.6904 8.99925L15.2999 8.99926C14.223 8.99926 13.3499 8.12621 13.3499 7.04926V4.32811C13.2491 4.30954 13.1461 4.3 13.042 4.3ZM14.6499 5.23254V7.04926C14.6499 7.40824 14.9409 7.69926 15.2999 7.69926L16.9447 7.69926L14.6499 5.23254ZM5 12.3H19C19.9389 12.3 20.7 13.0611 20.7 14V18C20.7 18.9389 19.9389 19.7 19 19.7H5C4.06112 19.7 3.3 18.9389 3.3 18V14C3.3 13.0611 4.06112 12.3 5 12.3Z" fill="#717681"/>
</svg>
