<svg width="24.000000" height="24.000000" viewBox="0 0 24 24" fill="none" xmlns="http://www.w3.org/2000/svg" xmlns:xlink="http://www.w3.org/1999/xlink">
	<desc>
			Created with Pixso.
	</desc>
	<defs>
		<clipPath id="clip133303_92">
			<rect id="Outline / Invoice Outline" width="24.000000" height="24.000000" fill="white" fill-opacity="0"/>
		</clipPath>
	</defs>
	<rect id="Outline / Invoice Outline" width="24.000000" height="24.000000" fill="#FFFFFF" fill-opacity="0"/>
	<g >
		<path id="Shape" d="M4 6C4 4.34 5.34 3 7 3L13.75 3C14.55 3 15.31 3.31 15.87 3.87L19.12 7.12C19.68 7.68 20 8.44 20 9.24L20 18C20 19.65 18.65 21 17 21L7 21C5.34 21 4 19.65 4 18L4 6ZM7 4.29L13.75 4.29C13.83 4.29 13.92 4.3 14 4.31L14 6.64C14 7.94 15.05 8.99 16.35 8.99L18.68 8.99C18.69 9.07 18.7 9.16 18.7 9.24L18.7 18C18.7 18.93 17.93 19.7 17 19.7L7 19.7C6.06 19.7 5.3 18.93 5.3 18L5.3 6C5.3 5.06 6.06 4.29 7 4.29ZM15.3 6.64L15.3 5.13L17.86 7.69L16.35 7.69C15.77 7.69 15.3 7.22 15.3 6.64ZM7.96 8.34C7.96 7.98 8.25 7.69 8.61 7.69L11.35 7.69C11.71 7.69 12 7.98 12 8.34C12 8.7 11.71 8.99 11.35 8.99L8.61 8.99C8.25 8.99 7.96 8.7 7.96 8.34ZM7.92 11.01C7.92 10.62 8.24 10.31 8.62 10.31L15.3 10.31C15.68 10.31 16 10.62 16 11.01L16 16.29C16 16.68 15.68 17 15.3 17L8.62 17C8.24 17 7.92 16.68 7.92 16.29L7.92 11.01ZM14.7 13L9.22 13L9.22 11.61L14.7 11.61L14.7 13ZM9.22 14.3L9.22 15.7L14.7 15.7L14.7 14.3L9.22 14.3Z" fill="#74767B" fill-opacity="1.000000" fill-rule="evenodd"/>
	</g>
</svg>
