<svg width="24" height="24" viewBox="0 0 24 24" fill="none" xmlns="http://www.w3.org/2000/svg">
<path d="M9.22822 14.3062V15.7H14.7V14.3062H9.22822Z" fill="#717681"/>
<path d="M14.7 13.0063H9.22822V11.6125H14.7V13.0063Z" fill="#717681"/>
<path fill-rule="evenodd" clip-rule="evenodd" d="M4 6C4 4.34315 5.34315 3 7 3H13.4803C14.2425 3 14.9761 3.2901 15.5321 3.81139L19.0518 7.11108C19.6568 7.67823 20 8.47047 20 9.2997V18C20 19.6569 18.6569 21 17 21H7C5.34315 21 4 19.6569 4 18V6ZM18.155 8.99999C18.4668 8.99999 18.623 8.62299 18.4025 8.4025L14.5975 4.59748C14.377 4.377 14 4.53316 14 4.84497V7.57479C14 8.36191 14.5982 9 15.3361 9L18.155 8.99999ZM11.35 8.99358C11.709 8.99358 12 8.70256 12 8.34358C12 7.98459 11.709 7.69358 11.35 7.69358L8.64583 7.69357C8.28685 7.69357 7.99583 7.98459 7.99583 8.34357C7.99583 8.70256 8.28685 8.99357 8.64583 8.99357L11.35 8.99358ZM7.92822 11.0125C7.92822 10.6259 8.24162 10.3125 8.62822 10.3125H15.3C15.6866 10.3125 16 10.6259 16 11.0125V16.3C16 16.6866 15.6866 17 15.3 17H8.62822C8.24162 17 7.92822 16.6866 7.92822 16.3V11.0125Z" fill="#717681"/>
</svg>
