<svg width="24.000000" height="24.000000" viewBox="0 0 24 24" fill="none" xmlns="http://www.w3.org/2000/svg" xmlns:xlink="http://www.w3.org/1999/xlink">
	<desc>
			Created with Pixso.
	</desc>
	<defs>
		<clipPath id="clip17_716">
			<rect id="Outline / Jpg Outline" width="24.000000" height="24.000000" fill="white" fill-opacity="0"/>
		</clipPath>
	</defs>
	<g clip-path="url(#clip17_716)">
		<path id="Shape" d="M20.64 6C20.64 4.34 19.3 3 17.64 3L9.64 3C7.99 3 6.64 4.34 6.64 6L6.64 16C6.64 17.65 7.99 19 9.64 19L9.65 19L9.64 19L17.64 19C19.3 19 20.64 17.65 20.64 16L20.64 6ZM18.64 11.28L19.34 12.3L19.34 6C19.34 5.06 18.58 4.29 17.64 4.29L9.64 4.29C8.71 4.29 7.94 5.06 7.94 6L7.94 16C7.94 16.93 8.71 17.7 9.64 17.7L10.44 17.7L14.28 11.41C15.26 9.8 17.57 9.74 18.64 11.28ZM9.29 8.14C9.29 9.53 10.41 10.65 11.79 10.65C13.17 10.65 14.29 9.53 14.29 8.14C14.29 6.76 13.17 5.64 11.79 5.64C10.41 5.64 9.29 6.76 9.29 8.14ZM10.59 8.14C10.59 8.81 11.13 9.34 11.79 9.34C12.45 9.34 12.99 8.81 12.99 8.14C12.99 7.48 12.45 6.94 11.79 6.94C11.13 6.94 10.59 7.48 10.59 8.14ZM4 9C4 8.64 4.29 8.35 4.64 8.35C5 8.35 5.3 8.64 5.3 9L5.3 18.4C5.3 19.47 6.17 20.35 7.25 20.35L15.64 20.35C16 20.35 16.29 20.64 16.29 21C16.29 21.35 16 21.65 15.64 21.65L7.25 21.65C5.45 21.65 4 20.19 4 18.4L4 9ZM17.64 17.7C18.58 17.7 19.34 16.93 19.34 16L19.34 14.59L17.57 12.02C17.04 11.25 15.88 11.28 15.39 12.09L11.96 17.7L17.64 17.7Z" fill="#717681" fill-opacity="1.000000" fill-rule="evenodd"/>
	</g>
</svg>
