<svg width="24" height="24" viewBox="0 0 24 24" fill="none" xmlns="http://www.w3.org/2000/svg">
<path d="M16 20.35C16 20.709 15.709 21 15.35 21H13.3C12.941 21 12.65 20.709 12.65 20.35C12.65 19.991 12.941 19.7 13.3 19.7H15.35C15.709 19.7 16 19.991 16 20.35Z" fill="#717681"/>
<path d="M19.35 17.3C19.709 17.3 20 17.591 20 17.95V18C20 19.2967 19.1773 20.4012 18.0255 20.8202C17.6501 20.9567 17.3 20.6388 17.3 20.2394C17.3 19.912 17.5447 19.6439 17.8303 19.4838C18.3493 19.1928 18.7 18.6374 18.7 18V17.95C18.7 17.591 18.991 17.3 19.35 17.3Z" fill="#717681"/>
<path d="M19.35 16C19.709 16 20 15.709 20 15.35V13.3C20 12.941 19.709 12.65 19.35 12.65C18.991 12.65 18.7 12.941 18.7 13.3V15.35C18.7 15.709 18.991 16 19.35 16Z" fill="#717681"/>
<path fill-rule="evenodd" clip-rule="evenodd" d="M19.35 11.35C19.709 11.35 20 11.059 20 10.7V9.24264C20 8.44699 19.6839 7.68393 19.1213 7.12132L15.8787 3.87868C15.3161 3.31607 14.553 3 13.7574 3H13.3C12.941 3 12.65 3.29101 12.65 3.65C12.65 4.00898 12.941 4.3 13.3 4.3H13.7574C13.8395 4.3 13.921 4.30594 14.0014 4.3176V6.64863C14.0014 7.9465 15.0535 8.99863 16.3514 8.99863H18.6824C18.6941 9.07897 18.7 9.1605 18.7 9.24264V10.7C18.7 11.059 18.991 11.35 19.35 11.35ZM17.8602 7.69863L15.3014 5.13984V6.64863C15.3014 7.22853 15.7715 7.69863 16.3514 7.69863H17.8602Z" fill="#717681"/>
<path d="M10.7 3C11.059 3 11.35 3.29101 11.35 3.65C11.35 4.00898 11.059 4.3 10.7 4.3H8.65C8.29101 4.3 8 4.00898 8 3.65C8 3.29101 8.29101 3 8.65 3H10.7Z" fill="#717681"/>
<path d="M10.7 21C11.059 21 11.35 20.709 11.35 20.35C11.35 19.991 11.059 19.7 10.7 19.7H8.65C8.29101 19.7 8 19.991 8 20.35C8 20.709 8.29102 21 8.65 21H10.7Z" fill="#717681"/>
<path d="M5.97454 20.8202C6.34989 20.9567 6.7 20.6388 6.7 20.2394C6.7 19.912 6.45526 19.6439 6.16974 19.4838C5.65074 19.1928 5.3 18.6374 5.3 18V17.95C5.3 17.591 5.00898 17.3 4.65 17.3C4.29101 17.3 4 17.591 4 17.95V18C4 19.2967 4.82267 20.4012 5.97454 20.8202Z" fill="#717681"/>
<path d="M4.65 12.65C5.00898 12.65 5.3 12.941 5.3 13.3V15.35C5.3 15.709 5.00898 16 4.65 16C4.29101 16 4 15.709 4 15.35V13.3C4 12.941 4.29101 12.65 4.65 12.65Z" fill="#717681"/>
<path d="M4 6C4 4.70331 4.82267 3.59877 5.97454 3.17983C6.34989 3.04332 6.7 3.36121 6.7 3.76061C6.7 4.08796 6.45526 4.35608 6.16974 4.51619C5.65074 4.80721 5.3 5.36265 5.3 6V6.05C5.3 6.40898 5.00898 6.7 4.65 6.7C4.29101 6.7 4 6.40898 4 6.05V6Z" fill="#717681"/>
<path d="M4.65 11.35C5.00898 11.35 5.3 11.059 5.3 10.7V8.65C5.3 8.29101 5.00898 8 4.65 8C4.29101 8 4 8.29102 4 8.65V10.7C4 11.059 4.29101 11.35 4.65 11.35Z" fill="#717681"/>
<path d="M7.96523 8.34863C7.96523 7.98965 8.25625 7.69863 8.61523 7.69863H11.3551C11.7141 7.69863 12.0051 7.98965 12.0051 8.34863C12.0051 8.70762 11.7141 8.99863 11.3551 8.99863H8.61523C8.25625 8.99863 7.96523 8.70762 7.96523 8.34863Z" fill="#717681"/>
<path d="M7.96523 15.3623C7.96523 15.0033 8.25625 14.7123 8.61523 14.7123H15.3455C15.7044 14.7123 15.9955 15.0033 15.9955 15.3623C15.9955 15.7213 15.7044 16.0123 15.3455 16.0123H8.61523C8.25625 16.0123 7.96523 15.7213 7.96523 15.3623Z" fill="#717681"/>
<path d="M8.61523 11.1981C8.25625 11.1981 7.96523 11.4891 7.96523 11.8481C7.96523 12.2071 8.25625 12.4981 8.61523 12.4981H15.3455C15.7044 12.4981 15.9955 12.2071 15.9955 11.8481C15.9955 11.4891 15.7044 11.1981 15.3455 11.1981H8.61523Z" fill="#717681"/>
</svg>
