<svg width="24.000000" height="24.000000" viewBox="0 0 24 24" fill="none" xmlns="http://www.w3.org/2000/svg" xmlns:xlink="http://www.w3.org/1999/xlink">
	<desc>
			Created with Pixso.
	</desc>
	<defs>
		<clipPath id="clip118669_808">
			<rect id="Solid / Person Card Solid" width="24.000000" height="24.000000" fill="white" fill-opacity="0"/>
		</clipPath>
	</defs>
	<g >
		<path id="Shape" d="M7 3C5.34 3 4 4.34 4 6L4 18C4 19.65 5.34 21 7 21L17 21C18.65 21 20 19.65 20 18L20 6C20 4.34 18.65 3 17 3L7 3ZM9.61 9.27C9.45 7.86 10.57 6.63 11.99 6.64C13.4 6.65 14.49 7.87 14.34 9.28L14.2 10.51C14.07 11.65 13.1 12.52 11.95 12.51C10.81 12.5 9.86 11.64 9.74 10.5L9.61 9.27ZM8.82 14.89C9.51 14.02 10.57 13.5 11.68 13.5L12.32 13.5C13.46 13.5 14.54 14.04 15.23 14.96L15.42 15.21C16.1 16.1 15.46 17.37 14.35 17.37L9.64 17.37C8.52 17.37 7.89 16.07 8.59 15.19L8.82 14.89Z" fill="#74767B" fill-opacity="1.000000" fill-rule="evenodd"/>
	</g>
</svg>
