<svg width="24.000000" height="24.000000" viewBox="0 0 24 24" fill="none" xmlns="http://www.w3.org/2000/svg" xmlns:xlink="http://www.w3.org/1999/xlink">
	<desc>
			Created with Pixso.
	</desc>
	<defs>
		<clipPath id="clip118669_807">
			<rect id="Outline / Person Card Outline" width="24.000000" height="24.000000" fill="white" fill-opacity="0"/>
		</clipPath>
	</defs>
	<g >
		<path id="Shape" d="M7 3C5.34 3 4 4.34 4 6L4 18C4 19.65 5.34 21 7 21L17 21C18.65 21 20 19.65 20 18L20 6C20 4.34 18.65 3 17 3L7 3ZM17 4.29L7 4.29C6.06 4.29 5.3 5.06 5.3 6L5.3 18C5.3 18.93 6.06 19.7 7 19.7L17 19.7C17.93 19.7 18.7 18.93 18.7 18L18.7 6C18.7 5.06 17.93 4.29 17 4.29ZM11.99 6.64C10.57 6.63 9.45 7.86 9.61 9.27L9.74 10.5C9.86 11.64 10.81 12.5 11.95 12.51C13.1 12.52 14.07 11.65 14.2 10.51L14.34 9.28C14.49 7.87 13.4 6.65 11.99 6.64ZM12.91 10.37L13.05 9.13C13.12 8.5 12.62 7.94 11.98 7.94C11.33 7.93 10.83 8.49 10.9 9.13L11.03 10.36C11.08 10.84 11.48 11.2 11.96 11.21C12.45 11.21 12.86 10.85 12.91 10.37ZM8.82 14.89C9.51 14.01 10.57 13.5 11.68 13.5L12.32 13.5C13.46 13.5 14.54 14.04 15.23 14.95L15.42 15.21C16.1 16.1 15.46 17.37 14.35 17.37L9.64 17.37C8.52 17.37 7.89 16.07 8.58 15.18L8.82 14.89ZM11.68 14.8C10.96 14.8 10.28 15.13 9.84 15.69L9.6 15.99C9.59 16 9.59 16.01 9.59 16.01C9.59 16.02 9.59 16.03 9.6 16.04C9.6 16.05 9.61 16.06 9.62 16.06C9.62 16.07 9.63 16.07 9.64 16.07L14.35 16.07C14.36 16.07 14.37 16.07 14.37 16.06C14.38 16.06 14.39 16.05 14.39 16.04C14.4 16.03 14.4 16.02 14.4 16.01C14.4 16.01 14.4 16 14.39 15.99L14.2 15.74C13.75 15.15 13.06 14.8 12.32 14.8L11.68 14.8Z" fill="#74767B" fill-opacity="1.000000" fill-rule="evenodd"/>
	</g>
</svg>
