<svg width="24.000000" height="24.000000" viewBox="0 0 24 24" fill="none" xmlns="http://www.w3.org/2000/svg" xmlns:xlink="http://www.w3.org/1999/xlink">
	<desc>
			Created with Pixso.
	</desc>
	<defs>
		<clipPath id="clip1728_759">
			<rect id="Outline / Rotate Left Outline" width="24.000000" height="24.000000" fill="white" fill-opacity="0"/>
		</clipPath>
	</defs>
	<g clip-path="url(#clip1728_759)">
		<path id="Shape" d="M5.87 10.52C5.62 10.77 5.2 10.77 4.95 10.52L3.19 8.75C2.93 8.5 2.93 8.09 3.19 7.83C3.44 7.58 3.85 7.58 4.1 7.83L4.76 8.49C4.76 4.9 7.67 2 11.26 2C11.62 2 11.91 2.29 11.91 2.64C11.91 3 11.62 3.29 11.26 3.29C8.39 3.29 6.06 5.62 6.06 8.49L6.72 7.83C6.97 7.58 7.38 7.58 7.64 7.83C7.89 8.09 7.89 8.5 7.64 8.75L5.87 10.52ZM19 5.71C20.65 5.71 22 7.05 22 8.71L22 18C22 19.65 20.65 21 19 21L12.27 21C10.61 21 9.27 19.65 9.27 18L9.27 8.71C9.27 7.05 10.61 5.71 12.27 5.71L19 5.71ZM12.27 7.01L19 7.01C19.93 7.01 20.7 7.77 20.7 8.71L20.7 18C20.7 18.93 19.93 19.7 19 19.7L12.27 19.7C11.33 19.7 10.57 18.93 10.57 18L10.57 8.71C10.57 7.77 11.33 7.01 12.27 7.01Z" fill="#74767B" fill-opacity="1.000000" fill-rule="evenodd"/>
	</g>
</svg>
