<svg width="24" height="24" viewBox="0 0 24 24" fill="none" xmlns="http://www.w3.org/2000/svg">
<path fill-rule="evenodd" clip-rule="evenodd" d="M11 8.01794C11 6.36109 12.3431 5.01794 14 5.01794H18C19.6569 5.01794 21 6.36109 21 8.01794V18.0179C21 19.6748 19.6569 21.0179 18 21.0179H14C13.8726 21.0179 13.7471 21.01 13.6238 20.9946C13.6051 20.9962 13.5862 20.997 13.567 20.997H10.1449C9.78588 20.997 9.49487 20.706 9.49487 20.347C9.49487 19.9881 9.78588 19.697 10.1449 19.697H11.5135C11.1893 19.2179 11 18.64 11 18.0179L11 11.6922H10.1449C9.78589 11.6922 9.49487 11.4012 9.49487 11.0422C9.49487 10.6832 9.78589 10.3922 10.1449 10.3922H11V8.01794ZM10.1547 5.24696C10.4085 5.5008 10.4085 5.91236 10.1547 6.1662L8.10905 8.21184C7.85521 8.46568 7.44365 8.46568 7.18981 8.21184C6.93597 7.958 6.93597 7.54644 7.18981 7.2926L8.12583 6.35658H6.68823C5.39036 6.35658 4.33823 7.40871 4.33823 8.70658V9.36926C4.33823 9.72825 4.04722 10.0193 3.68823 10.0193C3.32925 10.0193 3.03823 9.72825 3.03823 9.36926V8.70658C3.03823 6.69074 4.67239 5.05658 6.68823 5.05658H8.12583L7.18981 4.12056C6.93597 3.86672 6.93597 3.45516 7.18981 3.20132C7.44365 2.94748 7.85521 2.94748 8.10905 3.20132L10.1547 5.24696ZM6.68828 19.697C6.49685 19.697 6.31159 19.6743 6.13473 19.6316C5.78575 19.5475 5.43461 19.7621 5.35044 20.1111C5.26627 20.4601 5.48094 20.8112 5.82991 20.8954C6.10584 20.9619 6.39339 20.997 6.68828 20.997H7.30384C7.66282 20.997 7.95384 20.706 7.95384 20.347C7.95384 19.9881 7.66282 19.697 7.30384 19.697H6.68828ZM4.40375 18.0411C4.48792 18.3901 4.27325 18.7412 3.92427 18.8254C3.57529 18.9096 3.22416 18.6949 3.13999 18.3459C3.07343 18.07 3.03833 17.7824 3.03833 17.4876V16.988C3.03833 16.629 3.32935 16.338 3.68833 16.338C4.04732 16.338 4.33833 16.629 4.33833 16.988V17.4876C4.33833 17.679 4.36109 17.8642 4.40375 18.0411ZM3.68833 15.0078C4.04732 15.0078 4.33833 14.7168 4.33833 14.3578V13.8582C4.33833 13.6668 4.36109 13.4815 4.40375 13.3046C4.48792 12.9557 4.27325 12.6045 3.92427 12.5204C3.5753 12.4362 3.22416 12.6509 3.13999 12.9998C3.07343 13.2758 3.03833 13.5633 3.03833 13.8582V14.3578C3.03833 14.7168 3.32935 15.0078 3.68833 15.0078ZM6.13473 11.7576C5.78575 11.8418 5.43461 11.6271 5.35044 11.2782C5.26627 10.9292 5.48094 10.5781 5.82991 10.4939C6.10584 10.4273 6.39339 10.3922 6.68828 10.3922H7.30384C7.66282 10.3922 7.95384 10.6832 7.95384 11.0422C7.95384 11.4012 7.66282 11.6922 7.30384 11.6922H6.68828C6.49685 11.6922 6.31159 11.715 6.13473 11.7576Z" fill="#717681"/>
</svg>
