<svg viewBox="0 0 24 24" xmlns="http://www.w3.org/2000/svg" xmlns:xlink="http://www.w3.org/1999/xlink" width="24.000000" height="24.000000" fill="none">
	<rect id="Solid/Scan Doc Solid" width="24.000000" height="24.000000" x="0.000000" y="0.000000" fill="rgb(255,255,255)" fill-opacity="0" transform="matrix(-1,-6.12324e-17,6.12324e-17,-1,24,24)" />
	<path id="Shape" d="M8.7 13L8.7 3C8.7 2.06112 7.93888 1.3 7 1.3L3 1.3C2.06112 1.3 1.3 2.06112 1.3 3L1.3 13C1.3 13.9389 2.06112 14.7 3 14.7L7 14.7C7.93888 14.7 8.7 13.9389 8.7 13ZM7 16C8.65685 16 10 14.6569 10 13L10 10.6257L10.8554 10.6257C11.2144 10.6257 11.5054 10.3347 11.5054 9.97572C11.5054 9.61673 11.2144 9.32572 10.8554 9.32572L10 9.32572L10 3C10 2.37791 9.81065 1.80005 9.48645 1.3209L10.8554 1.3209C11.2144 1.3209 11.5054 1.02989 11.5054 0.670904C11.5054 0.311919 11.2144 0.0209043 10.8554 0.0209043L7.43323 0.0209043C7.41403 0.0209043 7.39503 0.0217365 7.37625 0.0233668C7.253 0.00794505 7.12743 0 7 0L3 0C1.34315 0 0 1.34315 0 3L0 13C0 14.6569 1.34315 16 3 16L7 16ZM10.8453 15.771C10.5915 15.5171 10.5915 15.1056 10.8453 14.8517L12.891 12.8061C13.1448 12.5523 13.5564 12.5523 13.8102 12.8061C14.064 13.0599 14.064 13.4715 13.8102 13.7253L12.8742 14.6614L14.3118 14.6614C15.6096 14.6614 16.6618 13.6092 16.6618 12.3114L16.6618 11.6487C16.6618 11.2897 16.9528 10.9987 17.3118 10.9987C17.6708 10.9987 17.9618 11.2897 17.9618 11.6487L17.9618 12.3114C17.9618 14.3272 16.3276 15.9614 14.3118 15.9614L12.8742 15.9614L13.8102 16.8974C14.064 17.1512 14.064 17.5628 13.8102 17.8166C13.5564 18.0705 13.1448 18.0705 12.891 17.8166L10.8453 15.771ZM14.8655 1.38632C14.6887 1.34366 14.5034 1.3209 14.312 1.3209L13.6964 1.3209C13.3374 1.3209 13.0464 1.02989 13.0464 0.670904C13.0464 0.311919 13.3374 0.0209043 13.6964 0.0209043L14.312 0.0209043C14.6069 0.0209043 14.8944 0.0560075 15.1703 0.12256C15.5193 0.206732 15.734 0.557869 15.6498 0.906847C15.5656 1.25582 15.2145 1.47049 14.8655 1.38632ZM17.076 2.19255C16.727 2.27672 16.5123 2.62786 16.5965 2.97684C16.6392 3.1537 16.6619 3.33895 16.6619 3.53039L16.6619 4.02995C16.6619 4.38894 16.9529 4.67995 17.3119 4.67995C17.6709 4.67995 17.9619 4.38894 17.9619 4.02995L17.9619 3.53039C17.9619 3.2355 17.9268 2.94795 17.8603 2.67202C17.7761 2.32304 17.4249 2.10838 17.076 2.19255ZM16.6619 6.66018C16.6619 6.30119 16.9529 6.01018 17.3119 6.01018C17.6709 6.01018 17.9619 6.30119 17.9619 6.66018L17.9619 7.15974C17.9619 7.45463 17.9268 7.74218 17.8603 8.01811C17.7761 8.36709 17.4249 8.58175 17.076 8.49758C16.727 8.41341 16.5123 8.06227 16.5965 7.71329C16.6392 7.53643 16.6619 7.35118 16.6619 7.15974L16.6619 6.66018ZM15.6498 9.73977C15.5656 9.3908 15.2145 9.17613 14.8655 9.2603C14.6887 9.30296 14.5034 9.32572 14.312 9.32572L13.6964 9.32572C13.3374 9.32572 13.0464 9.61673 13.0464 9.97572C13.0464 10.3347 13.3374 10.6257 13.6964 10.6257L14.312 10.6257C14.6068 10.6257 14.8944 10.5906 15.1703 10.5241C15.5193 10.4399 15.734 10.0888 15.6498 9.73977Z" fill="rgb(116,118,123)" fill-rule="evenodd" transform="matrix(-1,-6.12324e-17,6.12324e-17,-1,21,21.0179)" />
</svg>
