<svg viewBox="0 0 24 24" xmlns="http://www.w3.org/2000/svg" xmlns:xlink="http://www.w3.org/1999/xlink" width="24.000000" height="24.000000" fill="none">
	<rect id="Outline/Scan Doc Outline" width="24.000000" height="24.000000" x="0.000000" y="0.000000" fill="rgb(255,255,255)" fill-opacity="0" transform="matrix(-1,-6.12324e-17,6.12324e-17,-1,24,24)" />
	<path id="Shape" d="M10 13C10 14.6569 8.65685 16 7 16L3 16C1.34315 16 0 14.6569 0 13L0 3C0 1.34315 1.34315 0 3 0L7 0C7.12739 0 7.25294 0.00794075 7.37615 0.0233543C7.39488 0.0217323 7.41384 0.0209043 7.43298 0.0209043L10.8551 0.0209043C11.2141 0.0209043 11.5051 0.311919 11.5051 0.670904C11.5051 1.02989 11.2141 1.3209 10.8551 1.3209L9.48645 1.3209C9.81065 1.80005 10 2.37792 10 3L10 9.32572L10.8551 9.32572C11.2141 9.32572 11.5051 9.61673 11.5051 9.97572C11.5051 10.3347 11.2141 10.6257 10.8551 10.6257L10 10.6257L10 13ZM10.8453 15.771C10.5915 15.5171 10.5915 15.1056 10.8453 14.8517L12.891 12.8061C13.1448 12.5523 13.5564 12.5523 13.8102 12.8061C14.064 13.0599 14.064 13.4715 13.8102 13.7253L12.8742 14.6614L14.3118 14.6614C15.6096 14.6614 16.6618 13.6092 16.6618 12.3114L16.6618 11.6487C16.6618 11.2897 16.9528 10.9987 17.3118 10.9987C17.6708 10.9987 17.9618 11.2897 17.9618 11.6487L17.9618 12.3114C17.9618 14.3272 16.3276 15.9614 14.3118 15.9614L12.8742 15.9614L13.8102 16.8974C14.064 17.1512 14.064 17.5628 13.8102 17.8166C13.5564 18.0705 13.1448 18.0705 12.891 17.8166L10.8453 15.771ZM14.3117 1.3209C14.5032 1.3209 14.6884 1.34366 14.8653 1.38632C15.2142 1.47049 15.5654 1.25582 15.6496 0.906847C15.7337 0.557869 15.5191 0.206732 15.1701 0.12256C14.8942 0.0560075 14.6066 0.0209043 14.3117 0.0209043L13.6962 0.0209043C13.3372 0.0209043 13.0462 0.311919 13.0462 0.670904C13.0462 1.02989 13.3372 1.3209 13.6962 1.3209L14.3117 1.3209ZM16.5963 2.97684C16.5121 2.62786 16.7267 2.27672 17.0757 2.19255C17.4247 2.10838 17.7758 2.32304 17.86 2.67202C17.9266 2.94795 17.9617 3.2355 17.9617 3.53039L17.9617 4.02995C17.9617 4.38894 17.6707 4.67995 17.3117 4.67995C16.9527 4.67995 16.6617 4.38894 16.6617 4.02995L16.6617 3.53039C16.6617 3.33895 16.6389 3.1537 16.5963 2.97684ZM17.3117 6.01018C16.9527 6.01018 16.6617 6.30119 16.6617 6.66018L16.6617 7.15974C16.6617 7.35118 16.6389 7.53643 16.5963 7.71329C16.5121 8.06227 16.7267 8.41341 17.0757 8.49758C17.4247 8.58175 17.7758 8.36709 17.86 8.01811C17.9266 7.74218 17.9617 7.45463 17.9617 7.15974L17.9617 6.66018C17.9617 6.30119 17.6707 6.01018 17.3117 6.01018ZM14.8653 9.2603C15.2142 9.17613 15.5654 9.3908 15.6496 9.73977C15.7337 10.0888 15.5191 10.4399 15.1701 10.5241C14.8942 10.5906 14.6066 10.6257 14.3117 10.6257L13.6962 10.6257C13.3372 10.6257 13.0462 10.3347 13.0462 9.97572C13.0462 9.61673 13.3372 9.32572 13.6962 9.32572L14.3117 9.32572C14.5032 9.32572 14.6884 9.30296 14.8653 9.2603Z" fill="rgb(116,118,123)" fill-rule="evenodd" transform="matrix(-1,-6.12324e-17,6.12324e-17,-1,21,21.0179)" />
</svg>
