<svg width="24" height="24" viewBox="0 0 24 24" fill="none" xmlns="http://www.w3.org/2000/svg">
<path fill-rule="evenodd" clip-rule="evenodd" d="M7.00011 3C5.34326 3 4.00011 4.34315 4.00011 6V11.35H2.64878C2.28979 11.35 1.99878 11.641 1.99878 12C1.99878 12.359 2.28979 12.65 2.64878 12.65L21.3514 12.65C21.7104 12.65 22.0014 12.359 22.0014 12C22.0014 11.641 21.7104 11.35 21.3514 11.35H20.0001V9.29679C20.0001 8.46927 19.6583 7.67849 19.0555 7.11153L15.5504 3.81474C14.994 3.29139 14.2589 3 13.495 3H7.00011ZM4.30011 13.9444C4.13443 13.9444 4.00011 14.0788 4.00011 14.2444V18C4.00011 19.6569 5.34326 21 7.00011 21H17.0001C18.657 21 20.0001 19.6569 20.0001 18V14.2444C20.0001 14.0788 19.8658 13.9444 19.7001 13.9444H4.30011ZM14.9891 8.99986L18.3906 8.99986C18.662 8.99986 18.7939 8.66829 18.5968 8.48187L14.1952 4.32027C14.0039 4.13942 13.6891 4.27502 13.6891 4.53826V7.69986C13.6891 8.41783 14.2711 8.99986 14.9891 8.99986Z" fill="#717681"/>
</svg>
