<svg width="25" height="24" viewBox="0 0 25 24" fill="none" xmlns="http://www.w3.org/2000/svg">
<path fill-rule="evenodd" clip-rule="evenodd" d="M7.3312 3C5.67434 3 4.3312 4.34315 4.3312 6V11.35H3.33115C2.97217 11.35 2.68115 11.641 2.68115 12C2.68115 12.359 2.97217 12.65 3.33115 12.65H8.51503C8.54395 12.65 8.57243 12.6481 8.60035 12.6444H14.5262C14.5846 12.6444 14.6416 12.6272 14.691 12.596C15.5873 12.0285 16.6499 11.7 17.7893 11.7C18.5307 11.7 19.2395 11.8391 19.8913 12.0926C20.098 12.173 20.3312 12.0266 20.3312 11.8048V9.29679C20.3312 8.46927 19.9894 7.67849 19.3866 7.11153L15.8815 3.81474C15.3251 3.29139 14.59 3 13.8261 3H7.3312ZM12.5936 13.9444C12.8431 13.9444 12.9882 14.2353 12.8566 14.4474C12.3068 15.3341 11.9893 16.3799 11.9893 17.5C11.9893 18.5983 12.2945 19.6253 12.8249 20.5007C12.9533 20.7128 12.8081 21 12.5602 21H7.3312C5.67434 21 4.3312 19.6569 4.3312 18V14.2444C4.3312 14.0788 4.46551 13.9444 4.6312 13.9444H12.5936ZM15.3202 8.99986L18.7217 8.99986C18.9931 8.99986 19.125 8.66829 18.9278 8.48187L14.5263 4.32027C14.335 4.13942 14.0202 4.27502 14.0202 4.53826V7.69986C14.0202 8.41783 14.6022 8.99986 15.3202 8.99986ZM17.7894 22C15.3042 22 13.2894 19.9853 13.2894 17.5C13.2894 15.0147 15.3042 13 17.7894 13C20.2747 13 22.2894 15.0147 22.2894 17.5C22.2894 19.9853 20.2747 22 17.7894 22ZM17.9257 20.354C17.7457 20.354 17.5757 20.284 17.4457 20.144C17.2057 19.874 17.2257 19.464 17.4857 19.224L18.6811 18.0766H15.3027C14.9437 18.0766 14.6527 17.7856 14.6527 17.4266C14.6527 17.0676 14.9437 16.7766 15.3027 16.7766H18.674L17.4857 15.6393C17.2157 15.3993 17.2057 14.9893 17.4457 14.7193C17.6857 14.4593 18.0957 14.4393 18.3657 14.6793L20.7134 16.9066C21.0234 17.1866 21.0234 17.6666 20.7134 17.9466L18.3657 20.184C18.2357 20.304 18.0857 20.354 17.9257 20.354Z" fill="#717681"/>
</svg>
