<svg width="24.000000" height="24.000000" viewBox="0 0 24 24" fill="none" xmlns="http://www.w3.org/2000/svg" xmlns:xlink="http://www.w3.org/1999/xlink">
	<desc>
			Created with Pixso.
	</desc>
	<defs>
		<clipPath id="clip114794_1866">
			<rect id="Outline / Scan &amp; Send Outline" width="24.000000" height="24.000000" transform="translate(-0.668701 0.000000)" fill="white" fill-opacity="0"/>
		</clipPath>
	</defs>
	<g clip-path="url(#clip114794_1866)">
		<path id="Shape" d="M12.82 4.3L6.33 4.3C5.39 4.3 4.63 5.06 4.63 6L4.63 11.35L18.03 11.35L18.03 9.29C18.03 9.19 18.02 9.09 18 8.99L15.28 8.99C14.2 8.99 13.33 8.12 13.33 7.04L13.33 4.37C13.17 4.32 12.99 4.3 12.82 4.3ZM3.33 6L3.33 11.35L2.33 11.35C1.97 11.35 1.68 11.64 1.68 12C1.68 12.35 1.97 12.65 2.33 12.65L20.33 12.65C20.69 12.65 20.98 12.35 20.98 12C20.98 11.64 20.69 11.35 20.33 11.35L19.33 11.35L19.33 9.29C19.33 8.46 18.98 7.67 18.38 7.11L14.88 3.81C14.32 3.29 13.59 3 12.82 3L6.33 3C4.67 3 3.33 4.34 3.33 6ZM14.63 5.36L17.11 7.69L15.28 7.69C14.92 7.69 14.63 7.4 14.63 7.04L14.63 5.36ZM3.33 14.59C3.33 14.23 3.62 13.94 3.98 13.94C4.34 13.94 4.63 14.23 4.63 14.59L4.63 18C4.63 18.93 5.39 19.7 6.33 19.7L11.45 19.7C11.81 19.7 12.1 19.99 12.1 20.35C12.1 20.7 11.81 21 11.45 21L6.33 21C4.67 21 3.33 19.65 3.33 18L3.33 14.59ZM14.62 16.81C14.28 16.81 14.01 17.08 13.99 17.42C13.98 17.77 14.26 18.07 14.61 18.07C16.25 18.08 18.04 18.07 18.04 18.07L16.49 19.48C16.23 19.7 16.2 20.09 16.42 20.36C16.54 20.5 16.7 20.57 16.87 20.58C17.03 20.58 17.17 20.54 17.3 20.43L20 18.05C20.31 17.79 20.32 17.33 20.03 17.05L17.51 14.59C17.25 14.35 16.86 14.36 16.62 14.6C16.38 14.85 16.37 15.24 16.63 15.48L18.08 16.82L14.62 16.81Z" fill="#717681" fill-opacity="1.000000" fill-rule="evenodd"/>
	</g>
</svg>
