<svg width="24.000000" height="24.000000" viewBox="0 0 24 24" fill="none" xmlns="http://www.w3.org/2000/svg" xmlns:xlink="http://www.w3.org/1999/xlink">
	<desc>
			Created with Pixso.
	</desc>
	<defs>
		<clipPath id="clip103351_837">
			<rect id="Solid / Scan Solid" width="24.000000" height="24.000000" fill="white" fill-opacity="0"/>
		</clipPath>
	</defs>
	<g clip-path="url(#clip103351_837)">
		<path id="Shape" d="M6.99 3C5.34 3 3.99 4.34 3.99 6L3.99 11.35L2.64 11.35C2.28 11.35 1.99 11.64 1.99 12C1.99 12.35 2.28 12.65 2.64 12.65L21.35 12.65C21.71 12.65 22 12.35 22 12C22 11.64 21.71 11.35 21.35 11.35L19.99 11.35L19.99 9.29C19.99 8.46 19.65 7.67 19.05 7.11L15.55 3.81C14.99 3.29 14.25 3 13.49 3L6.99 3ZM4.29 13.94C4.13 13.94 3.99 14.07 3.99 14.24L3.99 18C3.99 19.65 5.34 21 6.99 21L16.99 21C18.65 21 19.99 19.65 19.99 18L19.99 14.24C19.99 14.07 19.86 13.94 19.7 13.94L4.29 13.94ZM14.98 8.99L18.39 8.99C18.66 8.99 18.79 8.66 18.59 8.48L14.19 4.32C14 4.13 13.68 4.27 13.68 4.53L13.68 7.69C13.68 8.41 14.27 8.99 14.98 8.99Z" fill="#74767B" fill-opacity="1.000000" fill-rule="evenodd"/>
	</g>
</svg>
