<svg width="24.000000" height="24.000000" viewBox="0 0 24 24" fill="none" xmlns="http://www.w3.org/2000/svg" xmlns:xlink="http://www.w3.org/1999/xlink">
	<desc>
			Created with Pixso.
	</desc>
	<defs>
		<clipPath id="clip103351_836">
			<rect id="Outline / Scan Outline" width="24.000000" height="24.000000" fill="white" fill-opacity="0"/>
		</clipPath>
	</defs>
	<g clip-path="url(#clip103351_836)">
		<path id="Shape" d="M13.49 4.3L7 4.3C6.06 4.3 5.3 5.06 5.3 6L5.3 11.35L18.7 11.35L18.7 9.29C18.7 9.19 18.69 9.09 18.67 8.99L15.95 8.99C14.87 8.99 14 8.12 14 7.04L14 4.37C13.83 4.32 13.66 4.3 13.49 4.3ZM15.3 5.36L15.3 7.04C15.3 7.4 15.59 7.69 15.95 7.69L17.78 7.69L15.3 5.36ZM20 11.35L20 9.29C20 8.46 19.65 7.67 19.05 7.11L15.55 3.81C14.99 3.29 14.25 3 13.49 3L7 3C5.34 3 4 4.34 4 6L4 11.35L2.6 11.35C2.25 11.35 1.95 11.64 1.95 12C1.95 12.35 2.25 12.65 2.6 12.65L21.39 12.65C21.74 12.65 22.04 12.35 22.04 12C22.04 11.64 21.74 11.35 21.39 11.35L20 11.35ZM4.64 13.94C5 13.94 5.3 14.23 5.3 14.59L5.3 18C5.3 18.93 6.06 19.7 7 19.7L17 19.7C17.93 19.7 18.7 18.93 18.7 18L18.7 14.59C18.7 14.23 18.99 13.94 19.35 13.94C19.7 13.94 20 14.23 20 14.59L20 18C20 19.65 18.65 21 17 21L7 21C5.34 21 4 19.65 4 18L4 14.59C4 14.23 4.29 13.94 4.64 13.94Z" fill="#74767B" fill-opacity="1.000000" fill-rule="evenodd"/>
	</g>
</svg>
