<svg width="24.000000" height="24.000000" viewBox="0 0 24 24" fill="none" xmlns="http://www.w3.org/2000/svg" xmlns:xlink="http://www.w3.org/1999/xlink">
	<desc>
			Created with Pixso.
	</desc>
	<defs>
		<clipPath id="clip114794_1866">
			<rect id="Outline / Scan &amp; Send Outline" width="24.000000" height="24.000000" fill="white" fill-opacity="0"/>
		</clipPath>
	</defs>
	<g >
		<path id="Shape" d="M13.49 4.3L7 4.3C6.06 4.3 5.3 5.06 5.3 6L5.3 11.35L18.7 11.35L18.7 9.29C18.7 9.19 18.69 9.09 18.67 8.99L15.95 8.99C14.87 8.99 14 8.12 14 7.04L14 4.37C13.83 4.32 13.66 4.3 13.49 4.3ZM4 6L4 11.35L2.99 11.35C2.64 11.35 2.34 11.64 2.34 12C2.34 12.35 2.64 12.65 2.99 12.65L20.99 12.65C21.35 12.65 21.64 12.35 21.64 12C21.64 11.64 21.35 11.35 20.99 11.35L20 11.35L20 9.29C20 8.46 19.65 7.67 19.05 7.11L15.55 3.81C14.99 3.29 14.25 3 13.49 3L7 3C5.34 3 4 4.34 4 6ZM15.3 5.36L17.78 7.69L15.95 7.69C15.59 7.69 15.3 7.4 15.3 7.04L15.3 5.36ZM4 14.59C4 14.23 4.29 13.94 4.64 13.94C5 13.94 5.3 14.23 5.3 14.59L5.3 18C5.3 18.93 6.06 19.7 7 19.7L12.12 19.7C12.47 19.7 12.77 19.99 12.77 20.35C12.77 20.7 12.47 21 12.12 21L7 21C5.34 21 4 19.65 4 18L4 14.59ZM15.29 16.81C14.95 16.81 14.67 17.08 14.66 17.42C14.65 17.77 14.93 18.07 15.28 18.07C16.92 18.08 18.71 18.07 18.71 18.07L17.16 19.48C16.9 19.7 16.87 20.09 17.09 20.36C17.21 20.5 17.37 20.57 17.54 20.58C17.7 20.58 17.84 20.54 17.97 20.43L20.67 18.05C20.97 17.79 20.99 17.33 20.7 17.05L18.17 14.59C17.92 14.35 17.53 14.36 17.29 14.6C17.05 14.85 17.04 15.24 17.29 15.48L18.75 16.82L15.29 16.81Z" fill="#74767B" fill-opacity="1.000000" fill-rule="evenodd"/>
	</g>
</svg>
