<svg width="24.000000" height="24.000000" viewBox="0 0 24 24" fill="none" xmlns="http://www.w3.org/2000/svg" xmlns:xlink="http://www.w3.org/1999/xlink">
	<desc>
			Created with Pixso.
	</desc>
	<defs>
		<clipPath id="clip114794_1864">
			<rect id="Outline / Scan Redo Outline" width="24.000000" height="24.000000" fill="white" fill-opacity="0"/>
		</clipPath>
	</defs>
	<g >
		<path id="Shape" d="M13.49 4.3L7 4.3C6.06 4.3 5.3 5.06 5.3 6L5.3 11.35L18.7 11.35L18.7 9.29C18.7 9.19 18.69 9.09 18.67 8.99L15.95 8.99C14.87 8.99 14 8.12 14 7.04L14 4.37C13.83 4.32 13.66 4.3 13.49 4.3ZM4 6L4 11.35L2.6 11.35C2.25 11.35 1.95 11.64 1.95 12C1.95 12.35 2.25 12.65 2.6 12.65L21.39 12.65C21.74 12.65 22.04 12.35 22.04 12C22.04 11.64 21.74 11.35 21.39 11.35L20 11.35L20 9.29C20 8.46 19.65 7.67 19.05 7.11L15.55 3.81C14.99 3.29 14.25 3 13.49 3L7 3C5.34 3 4 4.34 4 6ZM15.3 5.36L17.78 7.69L15.95 7.69C15.59 7.69 15.3 7.4 15.3 7.04L15.3 5.36ZM4 14.59C4 14.23 4.29 13.94 4.64 13.94C5 13.94 5.3 14.23 5.3 14.59L5.3 18C5.3 18.93 6.06 19.7 7 19.7L12.12 19.7C12.47 19.7 12.77 19.99 12.77 20.35C12.77 20.7 12.47 21 12.12 21L7 21C5.34 21 4 19.65 4 18L4 14.59ZM18.1 21.65C16.16 21.65 14.55 20.21 14.29 18.34L13.88 18.75C13.63 19.01 13.22 19.01 12.96 18.76C12.7 18.51 12.7 18.1 12.95 17.84L14.5 16.26C14.75 16.01 15.17 16 15.42 16.26L17 17.81C17.26 18.06 17.26 18.47 17.01 18.72C16.76 18.98 16.34 18.98 16.09 18.73L15.59 18.24C15.8 19.44 16.84 20.35 18.1 20.35C19.51 20.35 20.65 19.2 20.65 17.79C20.65 16.38 19.51 15.24 18.1 15.24C17.81 15.24 17.53 15.29 17.26 15.38C16.92 15.5 16.55 15.32 16.44 14.98C16.32 14.64 16.5 14.27 16.84 14.15C17.23 14.01 17.66 13.94 18.1 13.94C20.23 13.94 21.95 15.67 21.95 17.79C21.95 19.92 20.23 21.65 18.1 21.65Z" fill="#74767B" fill-opacity="1.000000" fill-rule="evenodd"/>
	</g>
</svg>
