<svg width="24" height="24" viewBox="0 0 24 24" fill="none" xmlns="http://www.w3.org/2000/svg">
<path fill-rule="evenodd" clip-rule="evenodd" d="M12.3 8.01794V18.0179C12.3 18.9568 13.0611 19.7179 14 19.7179L18 19.7179C18.9389 19.7179 19.7 18.9568 19.7 18.0179L19.7 8.01794C19.7 7.07906 18.9389 6.31794 18 6.31794L14 6.31794C13.0611 6.31794 12.3 7.07906 12.3 8.01794ZM14 5.01794C12.3431 5.01794 11 6.36109 11 8.01794V10.3922H10.1446C9.78564 10.3922 9.49463 10.6832 9.49463 11.0422C9.49463 11.4012 9.78564 11.6922 10.1446 11.6922H11L11 18.0179C11 18.64 11.1893 19.2179 11.5135 19.697H10.1446C9.78564 19.697 9.49463 19.9881 9.49463 20.347C9.49463 20.706 9.78564 20.997 10.1446 20.997H13.5668C13.586 20.997 13.605 20.9962 13.6237 20.9946C13.747 21.01 13.8726 21.0179 14 21.0179H18C19.6569 21.0179 21 19.6748 21 18.0179V8.01794C21 6.36109 19.6569 5.01794 18 5.01794H14ZM10.1547 5.24696C10.4085 5.5008 10.4085 5.91236 10.1547 6.1662L8.10905 8.21184C7.85521 8.46568 7.44365 8.46568 7.18981 8.21184C6.93597 7.958 6.93597 7.54644 7.18981 7.2926L8.12583 6.35658H6.68823C5.39036 6.35658 4.33823 7.40871 4.33823 8.70658V9.36926C4.33823 9.72825 4.04722 10.0193 3.68823 10.0193C3.32925 10.0193 3.03823 9.72825 3.03823 9.36926V8.70658C3.03823 6.69074 4.67239 5.05658 6.68823 5.05658H8.12583L7.18981 4.12056C6.93597 3.86672 6.93597 3.45516 7.18981 3.20132C7.44365 2.94748 7.85521 2.94748 8.10905 3.20132L10.1547 5.24696ZM6.13448 19.6316C6.31135 19.6743 6.4966 19.697 6.68804 19.697H7.30359C7.66258 19.697 7.95359 19.9881 7.95359 20.347C7.95359 20.706 7.66258 20.997 7.30359 20.997H6.68804C6.39315 20.997 6.10559 20.9619 5.82967 20.8954C5.48069 20.8112 5.26602 20.4601 5.3502 20.1111C5.43437 19.7621 5.78551 19.5475 6.13448 19.6316ZM3.92403 18.8254C4.27301 18.7412 4.48767 18.3901 4.4035 18.0411C4.36084 17.8642 4.33809 17.679 4.33809 17.4876V16.988C4.33809 16.629 4.04707 16.338 3.68809 16.338C3.3291 16.338 3.03809 16.629 3.03809 16.988V17.4876C3.03809 17.7824 3.07319 18.07 3.13974 18.3459C3.22391 18.6949 3.57505 18.9096 3.92403 18.8254ZM4.33809 14.3578C4.33809 14.7168 4.04707 15.0078 3.68809 15.0078C3.3291 15.0078 3.03809 14.7168 3.03809 14.3578V13.8582C3.03809 13.5633 3.07319 13.2758 3.13974 12.9998C3.22391 12.6509 3.57505 12.4362 3.92403 12.5204C4.27301 12.6045 4.48767 12.9557 4.4035 13.3046C4.36084 13.4815 4.33809 13.6668 4.33809 13.8582V14.3578ZM5.3502 11.2782C5.43437 11.6271 5.78551 11.8418 6.13449 11.7576C6.31135 11.715 6.4966 11.6922 6.68804 11.6922H7.3036C7.66258 11.6922 7.9536 11.4012 7.9536 11.0422C7.9536 10.6832 7.66258 10.3922 7.3036 10.3922H6.68804C6.39315 10.3922 6.1056 10.4273 5.82967 10.4939C5.48069 10.5781 5.26603 10.9292 5.3502 11.2782Z" fill="#717681"/>
</svg>
