<svg width="24.000000" height="24.000000" viewBox="0 0 24 24" fill="none" xmlns="http://www.w3.org/2000/svg" xmlns:xlink="http://www.w3.org/1999/xlink">
	<desc>
			Created with Pixso.
	</desc>
	<defs>
		<clipPath id="clip120112_755">
			<rect id="Outline / Sign Another Person Outline" width="24.000000" height="24.000000" fill="white" fill-opacity="0"/>
		</clipPath>
	</defs>
	<g >
		<path id="Shape" d="M20.98 4.65C20.98 4.29 20.69 4 20.33 4L14.31 4C13.95 4 13.66 4.29 13.66 4.65C13.66 5 13.95 5.29 14.31 5.29L20.33 5.29C20.69 5.29 20.98 5 20.98 4.65ZM7.44 4.47C7.94 3.96 8.77 3.96 9.27 4.47L19.75 14.94C20.14 15.34 20.42 15.84 20.55 16.39L20.95 18.12C21.16 19.05 20.33 19.89 19.39 19.68L17.66 19.28C17.11 19.15 16.61 18.87 16.21 18.47L5.74 8C5.23 7.49 5.23 6.67 5.74 6.16L7.44 4.47ZM6.66 7.08L8.36 5.39L9.98 7.01L8.28 8.7L6.66 7.08ZM20.33 7.53C20.69 7.53 20.98 7.82 20.98 8.18C20.98 8.54 20.69 8.83 20.33 8.83L17.71 8.83C17.35 8.83 17.06 8.54 17.06 8.18C17.06 7.82 17.35 7.53 17.71 7.53L20.33 7.53ZM18.83 15.86L10.9 7.93L9.2 9.62L17.13 17.56C17.36 17.78 17.64 17.94 17.95 18.01L19.68 18.41L19.28 16.68C19.21 16.37 19.05 16.08 18.83 15.86ZM9.1 18.83C8.55 19.3 7.83 19.9 6.65 19.9C4.58 19.9 3.61 18.56 3.23 18.02C3.19 17.98 3.16 17.94 3.14 17.9C2.92 17.62 2.98 17.21 3.26 16.99C3.55 16.78 3.96 16.83 4.17 17.12C4.21 17.16 4.24 17.21 4.28 17.26C4.66 17.78 5.26 18.6 6.65 18.6C7.33 18.6 7.73 18.29 8.3 17.81L8.32 17.78C8.88 17.32 9.6 16.71 10.79 16.71C12.77 16.71 13.84 18.11 14.25 18.64C14.31 18.72 14.35 18.78 14.39 18.81C14.63 19.08 14.61 19.49 14.35 19.73C14.08 19.98 13.67 19.96 13.43 19.69C13.34 19.6 13.25 19.49 13.16 19.37C12.69 18.79 12.06 18.01 10.79 18.01C10.1 18.01 9.7 18.32 9.13 18.8L9.1 18.83Z" fill="#74767B" fill-opacity="1.000000" fill-rule="evenodd"/>
	</g>
</svg>
