<svg width="24.000000" height="24.000000" viewBox="0 0 24 24" fill="none" xmlns="http://www.w3.org/2000/svg" xmlns:xlink="http://www.w3.org/1999/xlink">
	<desc>
			Created with Pixso.
	</desc>
	<defs>
		<clipPath id="clip17_697">
			<rect id="Outline / Sign Outline" width="24.000000" height="24.000000" fill="white" fill-opacity="0"/>
		</clipPath>
	</defs>
	<g >
		<path id="Shape" d="M9.28 4.56C8.77 4.06 7.94 4.06 7.44 4.56L5.74 6.26C5.23 6.77 5.23 7.59 5.74 8.1L16.21 18.57C16.61 18.97 17.11 19.25 17.66 19.37L19.39 19.77C20.33 19.99 21.16 19.15 20.95 18.21L20.55 16.48C20.42 15.93 20.14 15.43 19.75 15.04L9.28 4.56ZM8.36 5.48L6.66 7.18L8.28 8.8L9.98 7.1L8.36 5.48ZM10.9 8.02L18.83 15.96C19.05 16.18 19.21 16.46 19.28 16.78L19.68 18.51L17.95 18.11C17.64 18.04 17.36 17.88 17.13 17.65L9.2 9.72L10.9 8.02ZM9.1 18.93C8.55 19.39 7.83 20 6.65 20C4.58 20 3.61 18.65 3.23 18.12C3.19 18.07 3.17 18.03 3.14 18C2.92 17.72 2.98 17.31 3.26 17.09C3.55 16.87 3.96 16.93 4.17 17.21C4.21 17.26 4.24 17.31 4.28 17.36C4.66 17.88 5.26 18.7 6.65 18.7C7.33 18.7 7.73 18.38 8.3 17.91L8.33 17.88C8.88 17.41 9.6 16.8 10.79 16.8C12.77 16.8 13.84 18.2 14.25 18.74C14.31 18.82 14.35 18.88 14.39 18.91C14.63 19.18 14.61 19.59 14.35 19.83C14.08 20.07 13.67 20.06 13.43 19.79C13.34 19.7 13.25 19.59 13.16 19.47C12.69 18.88 12.06 18.1 10.79 18.1C10.1 18.1 9.7 18.42 9.13 18.9L9.1 18.93Z" fill="#74767B" fill-opacity="1.000000" fill-rule="evenodd"/>
	</g>
</svg>
