<svg width="24.000000" height="24.000000" viewBox="0 0 24 24" fill="none" xmlns="http://www.w3.org/2000/svg" xmlns:xlink="http://www.w3.org/1999/xlink">
	<desc>
			Created with Pixso.
	</desc>
	<defs>
		<clipPath id="clip120112_756">
			<rect id="Solid / Sign Another Person Solid" width="24.000000" height="24.000000" fill="white" fill-opacity="0"/>
		</clipPath>
	</defs>
	<g >
		<path id="Shape" d="M20.33 4C20.69 4 20.98 4.29 20.98 4.65C20.98 5 20.69 5.29 20.33 5.29L14.31 5.29C13.95 5.29 13.66 5 13.66 4.65C13.66 4.29 13.95 4 14.31 4L20.33 4ZM9.24 4.98C8.73 4.47 7.91 4.47 7.4 4.98L6.24 6.21C5.74 6.72 5.74 7.54 6.24 8.05L7.36 9.17C7.64 9.45 8.09 9.45 8.36 9.17L10.38 7.09C10.65 6.82 10.64 6.38 10.37 6.11L9.24 4.98ZM20.98 8.18C20.98 7.82 20.69 7.53 20.33 7.53L17.71 7.53C17.35 7.53 17.06 7.82 17.06 8.18C17.06 8.54 17.35 8.83 17.71 8.83L20.33 8.83C20.69 8.83 20.98 8.54 20.98 8.18ZM9.27 11.08C9 10.81 9 10.37 9.27 10.1L11.29 8.03C11.56 7.75 12.01 7.74 12.28 8.02L19.71 15.45C20.11 15.85 20.39 16.35 20.52 16.9L20.92 18.63C21.13 19.57 20.83 19.95 19.9 19.73L18.17 19.33C17.62 19.2 17.12 18.92 16.72 18.53L9.27 11.08ZM9.09 18.83C8.54 19.3 7.82 19.9 6.64 19.9C4.56 19.9 3.6 18.56 3.22 18.02C3.18 17.98 3.15 17.94 3.13 17.9C2.91 17.62 2.97 17.21 3.25 16.99C3.54 16.78 3.94 16.83 4.16 17.12C4.2 17.16 4.23 17.21 4.27 17.26C4.65 17.78 5.25 18.6 6.64 18.6C7.32 18.6 7.72 18.29 8.28 17.81L8.31 17.78C8.87 17.32 9.59 16.71 10.78 16.71C12.76 16.71 13.83 18.11 14.24 18.64C14.3 18.72 14.34 18.78 14.37 18.81C14.62 19.08 14.6 19.49 14.33 19.73C14.07 19.98 13.66 19.96 13.42 19.69C13.33 19.6 13.24 19.49 13.14 19.37C12.68 18.79 12.05 18.01 10.78 18.01C10.09 18.01 9.69 18.32 9.12 18.8L9.09 18.83Z" fill="#74767B" fill-opacity="1.000000" fill-rule="evenodd"/>
	</g>
</svg>
