<svg width="24.000000" height="24.000000" viewBox="0 0 24 24" fill="none" xmlns="http://www.w3.org/2000/svg" xmlns:xlink="http://www.w3.org/1999/xlink">
	<desc>
			Created with Pixso.
	</desc>
	<defs>
		<clipPath id="clip17_703">
			<rect id="Outline / Tasks Outline" width="24.000000" height="24.000000" fill="white" fill-opacity="0"/>
		</clipPath>
	</defs>
	<g>
		<path id="Shape" d="M20.38 7.52C21.22 7.52 21.22 8.82 20.38 8.82L19 8.82L19 15.19L20.38 15.19C20.74 15.19 21.04 15.49 21.04 15.84C21.04 16.2 20.74 16.49 20.38 16.49L19 16.49L19 17.99C19 19.64 17.65 20.99 16 20.99L7 20.99C5.34 20.99 4 19.65 4 17.99L4 6.03C4 4.37 5.34 3.03 7 3.03L16 3.03C17.65 3.03 19 4.37 19 6.03L19 7.52L20.38 7.52ZM17.7 6.03C17.7 5.09 16.93 4.33 16 4.33L7 4.33C6.06 4.33 5.3 5.09 5.3 6.03L5.3 17.99C5.3 18.93 6.06 19.69 7 19.69L16 19.69C16.93 19.69 17.7 18.93 17.7 17.99L17.7 6.03ZM10.79 7.55C11.07 7.78 11.1 8.19 10.86 8.46L9.29 10.29C9.17 10.42 9.01 10.5 8.83 10.51C8.66 10.52 8.48 10.46 8.35 10.34L7.17 9.24C6.91 9 6.9 8.59 7.14 8.33C7.38 8.06 7.79 8.05 8.06 8.29L8.74 8.93L9.88 7.61C10.11 7.34 10.52 7.31 10.79 7.55ZM12.41 8.95C12.41 9.31 12.7 9.6 13.06 9.6L15.35 9.6C15.7 9.6 16 9.31 16 8.95C16 8.59 15.7 8.3 15.35 8.3L13.06 8.3C12.7 8.3 12.41 8.59 12.41 8.95ZM6.99 14.37C6.99 13.65 7.57 13.07 8.29 13.07L9.69 13.07C10.41 13.07 10.99 13.65 10.99 14.37L10.99 15.77C10.99 16.49 10.41 17.07 9.69 17.07L8.29 17.07C7.57 17.07 6.99 16.49 6.99 15.77L6.99 14.37ZM8.29 14.37L9.69 14.37L9.69 15.77L8.29 15.77L8.29 14.37ZM12.41 15.07C12.41 15.43 12.7 15.72 13.06 15.72L15.35 15.72C15.7 15.72 16 15.43 16 15.07C16 14.71 15.7 14.42 15.35 14.42L13.06 14.42C12.7 14.42 12.41 14.71 12.41 15.07Z" fill="#717681" fill-opacity="1.000000" fill-rule="evenodd"/>
	</g>
</svg>
