<svg viewBox="0 0 24 24" xmlns="http://www.w3.org/2000/svg" xmlns:xlink="http://www.w3.org/1999/xlink" width="24.000000" height="24.000000" fill="none">
	<rect id="Solid/Tasks Solid" width="24.000000" height="24.000000" x="0.000000" y="0.000000" />
	<path id="Shape" d="M20.39 8.82489C21.2283 8.82489 21.2283 7.52489 20.39 7.52489L19 7.52489L19 6.03491C19 4.37491 17.66 3.03491 16 3.03491L7 3.03491C5.34 3.03491 4 4.37491 4 6.03491L4 17.9999C4 19.6599 5.34 20.9999 7 20.9999L16 20.9999C17.66 20.9999 19 19.6499 19 17.9999L19 16.4999L20.39 16.4999C20.749 16.4999 21.04 16.2089 21.04 15.8499C21.04 15.491 20.749 15.1999 20.39 15.1999L19 15.1999L19 8.82489L20.39 8.82489ZM10.7985 7.55005C11.0705 7.78437 11.101 8.19479 10.8667 8.46675L9.29322 10.2929C9.17796 10.4267 9.01324 10.5078 8.83694 10.5176C8.66062 10.5275 8.48792 10.4651 8.35852 10.345L7.17844 9.24927C6.91536 9.00501 6.90012 8.59373 7.14438 8.33067C7.38864 8.06759 7.7999 8.05233 8.06298 8.29661L8.7487 8.93329L9.8818 7.61819C10.1161 7.34623 10.5266 7.31573 10.7985 7.55005ZM13.0686 9.60555C12.7096 9.60555 12.4186 9.31453 12.4186 8.95555C12.4186 8.59655 12.7096 8.30555 13.0686 8.30555L15.35 8.30553C15.709 8.30553 16 8.59655 16 8.95553C16 9.31451 15.709 9.60553 15.35 9.60553L13.0686 9.60555ZM6.99742 14.3739C6.99742 13.656 7.57944 13.0739 8.29742 13.0739L9.69742 13.0739C10.4154 13.0739 10.9974 13.656 10.9974 14.3739L10.9974 15.7739C10.9974 16.4919 10.4154 17.0739 9.69742 17.0739L8.29742 17.0739C7.57944 17.0739 6.99742 16.4919 6.99742 15.7739L6.99742 14.3739ZM8.29742 14.3739L9.69742 14.3739L9.69742 15.7739L8.29742 15.7739L8.29742 14.3739ZM13.0686 15.7239C12.7096 15.7239 12.4186 15.4329 12.4186 15.0739C12.4186 14.7149 12.7096 14.4239 13.0686 14.4239L15.35 14.4239C15.709 14.4239 16 14.7149 16 15.0739C16 15.4329 15.709 15.7239 15.35 15.7239L13.0686 15.7239Z" fill="rgb(116,118,123)" fill-rule="evenodd" />
</svg>
