<svg width="24" height="24" viewBox="0 0 24 24" fill="none" xmlns="http://www.w3.org/2000/svg">
<path d="M10.7985 7.55011C11.0705 7.78444 11.101 8.19486 10.8667 8.46682L9.29324 10.293C9.17798 10.4267 9.01326 10.5079 8.83695 10.5177C8.66065 10.5275 8.48794 10.4652 8.35854 10.345L7.17846 9.24934C6.91538 9.00508 6.90013 8.5938 7.14439 8.33073C7.38865 8.06766 7.79993 8.0524 8.063 8.29666L8.74872 8.93335L9.88183 7.61826C10.1162 7.3463 10.5266 7.31579 10.7985 7.55011Z" fill="#717681"/>
<path d="M12.4101 8.95561C12.4101 9.31459 12.7011 9.60561 13.0601 9.60561L15.35 9.6056C15.709 9.6056 16 9.31458 16 8.9556C16 8.59661 15.709 8.3056 15.35 8.3056L13.0601 8.3056C12.7011 8.3056 12.4101 8.59662 12.4101 8.95561Z" fill="#717681"/>
<path d="M13.0601 15.724C12.7011 15.724 12.4101 15.433 12.4101 15.074C12.4101 14.715 12.7011 14.424 13.0601 14.424L15.35 14.424C15.709 14.424 16 14.715 16 15.074C16 15.433 15.709 15.724 15.35 15.724L13.0601 15.724Z" fill="#717681"/>
<path fill-rule="evenodd" clip-rule="evenodd" d="M6.99744 14.374C6.99744 13.656 7.57947 13.074 8.29744 13.074H9.69744C10.4154 13.074 10.9974 13.656 10.9974 14.374V15.774C10.9974 16.4919 10.4154 17.074 9.69744 17.074H8.29744C7.57947 17.074 6.99744 16.4919 6.99744 15.774V14.374ZM8.29744 14.374H9.69744V15.774H8.29744V14.374Z" fill="#717681"/>
<path fill-rule="evenodd" clip-rule="evenodd" d="M20.39 8.82495C21.2283 8.82495 21.2283 7.52495 20.39 7.52495H19V6.03497C19 4.37497 17.66 3.03497 16 3.03497H7C5.34 3.03497 4 4.37497 4 6.03497V18C4 19.66 5.34 21 7 21H16C17.66 21 19 19.65 19 18V16.5H20.39C20.749 16.5 21.04 16.209 21.04 15.85C21.04 15.491 20.749 15.2 20.39 15.2H19V8.82495H20.39ZM16 4.33497C16.94 4.33497 17.7 5.09497 17.7 6.03497L17.7 18C17.7 18.94 16.94 19.7 16 19.7H7C6.06 19.7 5.3 18.94 5.3 18L5.3 6.03497C5.3 5.09497 6.06 4.33497 7 4.33497L16 4.33497Z" fill="#717681"/>
</svg>
