<svg width="24.000000" height="24.000000" viewBox="0 0 24 24" fill="none" xmlns="http://www.w3.org/2000/svg" xmlns:xlink="http://www.w3.org/1999/xlink">
	<desc>
			Created with Pixso.
	</desc>
	<defs>
		<clipPath id="clip17_741">
			<rect id="Solid / Unsign Solid" width="24.000000" height="24.000000" fill="white" fill-opacity="0"/>
		</clipPath>
	</defs>
	<g clip-path="url(#clip17_741)">
		<path id="Shape" d="M20.8 4.17C21.05 3.92 21.06 3.51 20.81 3.25C20.57 2.99 20.16 2.99 19.9 3.24L18 5.09L16.09 3.24C15.83 2.99 15.42 2.99 15.18 3.25C14.93 3.51 14.94 3.92 15.19 4.17L17.07 6L15.19 7.82C14.94 8.07 14.93 8.48 15.18 8.74C15.42 9 15.83 9 16.09 8.75L18 6.9L19.9 8.75C20.16 9 20.57 9 20.81 8.74C21.06 8.48 21.05 8.07 20.8 7.82L18.92 6L20.8 4.17ZM7.4 4.98C7.91 4.47 8.73 4.47 9.24 4.98L10.37 6.11C10.64 6.38 10.65 6.82 10.38 7.09L8.36 9.17C8.09 9.45 7.64 9.45 7.36 9.17L6.24 8.05C5.74 7.54 5.74 6.72 6.24 6.21L7.4 4.98ZM9.27 10.1C9 10.37 9 10.81 9.27 11.08L16.72 18.53C17.12 18.92 17.62 19.2 18.17 19.33L19.9 19.73C20.83 19.95 21.13 19.57 20.92 18.63L20.52 16.9C20.39 16.35 20.11 15.85 19.71 15.45L12.28 8.02C12.01 7.74 11.56 7.75 11.29 8.03L9.27 10.1ZM6.65 19.9C7.83 19.9 8.55 19.3 9.1 18.83L9.13 18.8C9.7 18.32 10.1 18.01 10.79 18.01C12.06 18.01 12.69 18.79 13.16 19.37C13.25 19.49 13.34 19.6 13.43 19.69C13.67 19.96 14.08 19.98 14.35 19.73C14.61 19.49 14.63 19.08 14.39 18.81C14.35 18.78 14.31 18.72 14.25 18.64C13.84 18.11 12.77 16.71 10.79 16.71C9.6 16.71 8.88 17.32 8.32 17.78L8.3 17.81C7.73 18.29 7.33 18.6 6.65 18.6C5.26 18.6 4.66 17.78 4.28 17.26C4.24 17.21 4.21 17.16 4.17 17.12C3.96 16.83 3.55 16.78 3.26 16.99C2.98 17.21 2.92 17.62 3.14 17.9C3.16 17.94 3.19 17.98 3.23 18.02C3.61 18.56 4.58 19.9 6.65 19.9Z" fill="#717681" fill-opacity="1.000000" fill-rule="evenodd"/>
	</g>
</svg>
