<svg width="24.000000" height="24.000000" viewBox="0 0 24 24" fill="none" xmlns="http://www.w3.org/2000/svg" xmlns:xlink="http://www.w3.org/1999/xlink">
	<desc>
			Created with Pixso.
	</desc>
	<defs>
		<clipPath id="clip17_741">
			<rect id="Solid / Unsign Solid" width="24.000000" height="24.000000" fill="white" fill-opacity="0"/>
		</clipPath>
	</defs>
	<g clip-path="url(#clip17_741)">
		<path id="Shape" d="M20.81 3.25C21.06 3.51 21.05 3.92 20.8 4.17L18.92 6L20.8 7.82C21.05 8.07 21.06 8.48 20.81 8.74C20.57 9 20.16 9 19.9 8.75L18 6.9L16.09 8.75C15.83 9 15.42 9 15.18 8.74C14.93 8.48 14.94 8.07 15.19 7.82L17.07 6L15.19 4.17C14.94 3.92 14.93 3.51 15.18 3.25C15.42 2.99 15.83 2.99 16.09 3.24L18 5.09L19.9 3.24C20.16 2.99 20.57 2.99 20.81 3.25Z" fill="#74767B" fill-opacity="1.000000" fill-rule="nonzero"/>
		<path id="Shape" d="M9.1 18.83C8.55 19.3 7.83 19.9 6.65 19.9C4.58 19.9 3.61 18.56 3.23 18.02C3.19 17.98 3.16 17.94 3.14 17.9C2.92 17.62 2.98 17.21 3.26 16.99C3.55 16.78 3.96 16.83 4.17 17.12C4.21 17.16 4.24 17.21 4.28 17.26C4.66 17.78 5.26 18.6 6.65 18.6C7.33 18.6 7.73 18.29 8.3 17.81L8.32 17.78C8.88 17.32 9.6 16.71 10.79 16.71C12.77 16.71 13.84 18.11 14.25 18.64C14.31 18.72 14.35 18.78 14.39 18.81C14.63 19.08 14.61 19.49 14.35 19.73C14.08 19.98 13.67 19.96 13.43 19.69C13.34 19.6 13.25 19.49 13.16 19.37C12.69 18.79 12.06 18.01 10.79 18.01C10.1 18.01 9.7 18.32 9.13 18.8L9.1 18.83Z" fill="#74767B" fill-opacity="1.000000" fill-rule="nonzero"/>
		<path id="Shape" d="M7.4 4.98C7.91 4.47 8.73 4.47 9.24 4.98L10.37 6.11C10.64 6.38 10.65 6.82 10.38 7.09L8.36 9.17C8.09 9.45 7.64 9.45 7.36 9.17L6.24 8.05C5.74 7.54 5.74 6.72 6.24 6.21L7.4 4.98Z" fill="#74767B" fill-opacity="1.000000" fill-rule="nonzero"/>
		<path id="Shape" d="M9.27 11.08C9 10.81 9 10.37 9.27 10.1L11.29 8.03C11.56 7.75 12.01 7.74 12.28 8.02L19.71 15.45C20.11 15.85 20.39 16.35 20.52 16.9L20.92 18.63C21.13 19.57 20.83 19.95 19.9 19.73L18.17 19.33C17.62 19.2 17.12 18.92 16.72 18.53L9.27 11.08Z" fill="#74767B" fill-opacity="1.000000" fill-rule="nonzero"/>
	</g>
</svg>
