<svg width="24.000000" height="24.000000" viewBox="0 0 24 24" fill="none" xmlns="http://www.w3.org/2000/svg" xmlns:xlink="http://www.w3.org/1999/xlink">
	<desc>
			Created with Pixso.
	</desc>
	<defs>
		<clipPath id="clip17_744">
			<rect id="Solid / Verify Sign Solid" width="24.000000" height="24.000000" fill="white" fill-opacity="0"/>
		</clipPath>
	</defs>
	<g >
		<path id="Shape" d="M19.04 8.57C18.48 8.94 17.81 9.16 17.08 9.16C15.11 9.16 13.5 7.55 13.5 5.58C13.5 3.6 15.11 2 17.08 2C19.06 2 20.67 3.6 20.67 5.58C20.67 6.36 20.41 7.09 19.99 7.68L21.28 8.98C21.54 9.23 21.54 9.64 21.28 9.9C21.03 10.15 20.62 10.15 20.36 9.9L19.04 8.57ZM19.37 5.58C19.37 6.83 18.34 7.86 17.08 7.86C15.83 7.86 14.8 6.83 14.8 5.58C14.8 4.32 15.83 3.29 17.08 3.29C18.34 3.29 19.37 4.32 19.37 5.58ZM8.75 4.98C8.24 4.47 7.42 4.47 6.91 4.98L5.75 6.21C5.25 6.72 5.25 7.54 5.75 8.05L6.87 9.17C7.15 9.45 7.6 9.45 7.87 9.17L9.89 7.09C10.16 6.82 10.15 6.38 9.88 6.11L8.75 4.98ZM8.78 11.08C8.51 10.81 8.51 10.37 8.78 10.1L10.79 8.03C11.07 7.75 11.52 7.74 11.79 8.02L19.22 15.45C19.62 15.85 19.9 16.35 20.03 16.9L20.43 18.63C20.64 19.57 20.34 19.95 19.41 19.73L17.67 19.33C17.13 19.2 16.63 18.92 16.23 18.53L8.78 11.08ZM6.16 19.9C7.34 19.9 8.06 19.3 8.61 18.83L8.64 18.8C9.21 18.32 9.61 18.01 10.3 18.01C11.57 18.01 12.2 18.79 12.67 19.37C12.76 19.49 12.85 19.6 12.94 19.69C13.18 19.96 13.59 19.98 13.86 19.73C14.12 19.49 14.14 19.08 13.89 18.81C13.86 18.78 13.82 18.72 13.76 18.64C13.35 18.11 12.28 16.71 10.3 16.71C9.11 16.71 8.39 17.32 7.83 17.78L7.81 17.81C7.24 18.29 6.84 18.6 6.16 18.6C4.77 18.6 4.17 17.78 3.79 17.26C3.75 17.21 3.72 17.16 3.68 17.12C3.47 16.83 3.06 16.78 2.77 16.99C2.49 17.21 2.43 17.62 2.65 17.9C2.67 17.94 2.7 17.98 2.74 18.02C3.12 18.56 4.09 19.9 6.16 19.9Z" fill="#74767B" fill-opacity="1.000000" fill-rule="evenodd"/>
	</g>
</svg>
