<svg width="24.000000" height="24.000000" viewBox="0 0 24 24" fill="none" xmlns="http://www.w3.org/2000/svg" xmlns:xlink="http://www.w3.org/1999/xlink">
	<desc>
			Created with Pixso.
	</desc>
	<defs>
		<clipPath id="clip17_747">
			<rect id="Outline / Verify Sign Outline" width="24.000000" height="24.000000" fill="white" fill-opacity="0"/>
		</clipPath>
	</defs>
	<g clip-path="url(#clip17_747)">
		<path id="Shape" d="M17.58 9.16C18.3 9.16 18.97 8.94 19.53 8.57L20.85 9.9C21.11 10.15 21.52 10.15 21.77 9.9C22.03 9.64 22.03 9.23 21.77 8.98L20.48 7.68C20.9 7.09 21.16 6.36 21.16 5.58C21.16 3.6 19.55 2 17.58 2C15.6 2 14 3.6 14 5.58C14 7.55 15.6 9.16 17.58 9.16ZM17.58 7.86C18.83 7.86 19.86 6.83 19.86 5.58C19.86 4.32 18.83 3.29 17.58 3.29C16.32 3.29 15.3 4.32 15.3 5.58C15.3 6.83 16.32 7.86 17.58 7.86ZM9.27 4.47C8.77 3.96 7.94 3.96 7.44 4.47L5.74 6.16C5.23 6.67 5.23 7.49 5.74 8L16.21 18.47C16.61 18.87 17.11 19.15 17.66 19.28L19.39 19.68C20.33 19.89 21.16 19.05 20.95 18.12L20.55 16.39C20.42 15.84 20.14 15.34 19.75 14.94L9.27 4.47ZM8.36 5.39L6.66 7.08L8.28 8.7L9.98 7.01L8.36 5.39ZM10.9 7.93L18.83 15.86C19.05 16.08 19.21 16.37 19.28 16.68L19.68 18.41L17.95 18.01C17.64 17.94 17.36 17.78 17.13 17.56L9.2 9.62L10.9 7.93ZM6.65 19.9C7.83 19.9 8.55 19.3 9.1 18.83L9.13 18.8C9.7 18.32 10.1 18.01 10.79 18.01C12.06 18.01 12.69 18.79 13.16 19.37C13.25 19.49 13.34 19.6 13.43 19.69C13.67 19.96 14.08 19.98 14.35 19.73C14.61 19.49 14.63 19.08 14.39 18.81C14.35 18.78 14.31 18.72 14.25 18.64C13.84 18.11 12.77 16.71 10.79 16.71C9.6 16.71 8.88 17.32 8.32 17.78L8.3 17.81C7.73 18.29 7.33 18.6 6.65 18.6C5.26 18.6 4.66 17.78 4.28 17.26C4.24 17.21 4.21 17.16 4.17 17.12C3.96 16.83 3.55 16.78 3.26 16.99C2.98 17.21 2.92 17.62 3.14 17.9C3.16 17.94 3.19 17.98 3.23 18.02C3.61 18.56 4.58 19.9 6.65 19.9Z" fill="#717681" fill-opacity="1.000000" fill-rule="evenodd"/>
	</g>
</svg>
