<svg width="24.000000" height="24.000000" viewBox="0 0 24 24" fill="none" xmlns="http://www.w3.org/2000/svg" xmlns:xlink="http://www.w3.org/1999/xlink">
	<desc>
			Created with Pixso.
	</desc>
	<defs>
		<clipPath id="clip17_656">
			<rect id="Outline / Web Outline" width="24.000000" height="24.000000" fill="white" fill-opacity="0"/>
		</clipPath>
	</defs>
	<g >
		<path id="Shape" d="M20.64 6.35C20.64 4.69 19.3 3.35 17.64 3.35L9.64 3.35C7.99 3.35 6.64 4.69 6.64 6.35L6.64 16.35C6.64 18 7.99 19.35 9.64 19.35L17.64 19.35C19.3 19.35 20.64 18 20.64 16.35L20.64 6.35ZM17.64 4.65L9.64 4.65C8.71 4.65 7.94 5.41 7.94 6.35L7.94 16.35C7.94 17.28 8.71 18.04 9.64 18.04L17.64 18.04C18.58 18.04 19.35 17.28 19.35 16.35L19.35 6.35C19.35 5.41 18.58 4.65 17.64 4.65Z" fill="#74767B" fill-opacity="1.000000" fill-rule="evenodd"/>
		<path id="Shape" d="M4.64 8.7C4.29 8.7 4 8.99 4 9.35L4 18.75C4 20.54 5.45 22 7.25 22L15.64 22C16 22 16.29 21.7 16.29 21.35C16.29 20.99 16 20.7 15.64 20.7L7.25 20.7C6.17 20.7 5.3 19.82 5.3 18.75L5.3 9.35C5.3 8.99 5 8.7 4.64 8.7Z" fill="#74767B" fill-opacity="1.000000" fill-rule="nonzero"/>
		<path id="Shape" d="M13.65 6.42C16.25 6.42 18.35 8.52 18.35 11.12C18.35 13.72 16.25 15.82 13.65 15.82C11.05 15.82 8.94 13.72 8.94 11.12C8.94 8.52 11.05 6.42 13.65 6.42C13.65 6.42 13.65 6.42 13.65 6.42ZM15.27 14.11C16.15 13.64 16.79 12.78 16.99 11.77L15.73 11.77C15.68 12.65 15.51 13.46 15.27 14.11ZM12.03 14.11C11.15 13.64 10.5 12.78 10.31 11.77L11.57 11.77C11.62 12.65 11.78 13.46 12.03 14.11ZM12.87 11.77C12.93 12.65 13.11 13.39 13.35 13.92C13.46 14.16 13.56 14.33 13.65 14.43C13.73 14.33 13.84 14.16 13.95 13.92C14.18 13.39 14.37 12.65 14.43 11.77L12.87 11.77ZM14.43 10.47L12.87 10.47C12.93 9.59 13.11 8.85 13.35 8.32C13.46 8.08 13.56 7.91 13.65 7.81C13.73 7.91 13.84 8.08 13.95 8.32C14.18 8.85 14.37 9.59 14.43 10.47ZM15.73 10.47L16.99 10.47C16.79 9.46 16.15 8.6 15.27 8.13C15.51 8.78 15.68 9.59 15.73 10.47ZM12.03 8.13C11.78 8.78 11.62 9.59 11.57 10.47L10.31 10.47C10.5 9.46 11.15 8.6 12.03 8.13Z" fill="#74767B" fill-opacity="1.000000" fill-rule="evenodd"/>
	</g>
</svg>
