<svg width="24.000000" height="24.000000" viewBox="0 0 24 24" fill="none" xmlns="http://www.w3.org/2000/svg" xmlns:xlink="http://www.w3.org/1999/xlink">
	<desc>
			Created with Pixso.
	</desc>
	<defs>
		<clipPath id="clip17_641">
			<rect id="Solid / XLS Solid" width="24.000000" height="24.000000" fill="white" fill-opacity="0"/>
		</clipPath>
	</defs>
	<g clip-path="url(#clip17_641)">
		<path id="Shape" d="M17.64 3.35C19.3 3.35 20.64 4.69 20.64 6.35L20.64 16.35C20.64 18 19.3 19.35 17.64 19.35L9.64 19.35C7.99 19.35 6.64 18 6.64 16.35L6.64 6.35C6.64 4.69 7.99 3.35 9.64 3.35L17.64 3.35ZM11.56 9.46C11.36 9.16 11.45 8.76 11.75 8.57C12.05 8.37 12.45 8.46 12.65 8.76L13.67 10.35L14.69 8.76C14.88 8.46 15.28 8.37 15.58 8.57C15.89 8.76 15.97 9.16 15.78 9.46L14.56 11.36L15.78 13.22C15.97 13.52 15.89 13.92 15.59 14.12C15.29 14.31 14.88 14.23 14.69 13.93L13.67 12.36L12.65 13.93C12.45 14.23 12.05 14.31 11.75 14.12C11.45 13.92 11.36 13.52 11.56 13.22L12.77 11.36L11.56 9.46ZM4 9.35C4 8.99 4.29 8.7 4.64 8.7C5 8.7 5.3 8.99 5.3 9.35L5.3 18.75C5.3 19.82 6.17 20.7 7.25 20.7L15.64 20.7C16 20.7 16.29 20.99 16.29 21.35C16.29 21.7 16 22 15.64 22L7.25 22C5.45 22 4 20.54 4 18.75L4 9.35Z" fill="#74767B" fill-opacity="1.000000" fill-rule="evenodd"/>
	</g>
</svg>
