<svg width="24" height="24" viewBox="0 0 24 24" fill="none" xmlns="http://www.w3.org/2000/svg">
<path d="M16.2832 15.8861C16.5579 15.8861 16.7806 15.6634 16.7806 15.3886C16.7806 15.1139 16.5579 14.8912 16.2832 14.8912H15.6151L15.6151 15.8861H16.2832Z" fill="#717681"/>
<path fill-rule="evenodd" clip-rule="evenodd" d="M5 6V11C3.34315 11 2 12.3431 2 14V18C2 19.6569 3.34315 21 5 21H19C20.6569 21 22 19.6569 22 18V14C22 12.3431 20.6569 11 19 11V9.17967C19 8.42148 18.7129 7.69141 18.1965 7.13629L15.2385 3.95662C14.671 3.34655 13.8752 3 13.042 3H8C6.34315 3 5 4.34315 5 6ZM8 4.3H13.042C13.1461 4.3 13.2491 4.30954 13.3499 4.32811V7.04926C13.3499 8.12621 14.223 8.99926 15.2999 8.99926L17.6904 8.99925C17.6968 9.05892 17.7 9.11913 17.7 9.17967V11H6.3V6C6.3 5.06112 7.06112 4.3 8 4.3ZM16.9447 7.69926L14.6499 5.23254V7.04926C14.6499 7.40824 14.9409 7.69926 15.2999 7.69926L16.9447 7.69926ZM15.6151 17.7585C15.6151 18.1175 15.3241 18.4085 14.9651 18.4085C14.6061 18.4085 14.3151 18.1175 14.3151 17.7585V14.2412C14.3151 13.8823 14.6061 13.5912 14.9651 13.5912H16.2832C17.2759 13.5912 18.0806 14.396 18.0806 15.3886C18.0806 16.3813 17.2759 17.1861 16.2832 17.1861H15.6151V17.7585ZM12 13.5913C12.359 13.5913 12.65 13.8823 12.65 14.2413L12.65 17.7585C12.65 18.1175 12.359 18.4085 12 18.4085C11.641 18.4085 11.35 18.1175 11.35 17.7585V14.2413C11.35 13.8823 11.641 13.5913 12 13.5913ZM6.65503 13.5932C6.29605 13.5932 6.00503 13.8842 6.00503 14.2432C6.00503 14.6022 6.29605 14.8932 6.65503 14.8932H7.80964L6.11687 17.3923C5.98196 17.5915 5.96809 17.8489 6.08083 18.0615C6.19356 18.274 6.41446 18.4069 6.65504 18.4069H9.03497C9.39396 18.4069 9.68497 18.1159 9.68497 17.7569C9.68497 17.3979 9.39396 17.1069 9.03497 17.1069H7.88038L9.57314 14.6077C9.70806 14.4085 9.72192 14.1511 9.60919 13.9386C9.49645 13.7261 9.27555 13.5932 9.03497 13.5932H6.65503Z" fill="#717681"/>
</svg>
