<svg width="24.000000" height="24.000000" viewBox="0 0 24 24" fill="none" xmlns="http://www.w3.org/2000/svg" xmlns:xlink="http://www.w3.org/1999/xlink">
	<desc>
			Created with Pixso.
	</desc>
	<defs>
		<clipPath id="clip120059_732">
			<rect id="Solid / ZIP Solid" width="24.000000" height="24.000000" fill="white" fill-opacity="0"/>
		</clipPath>
	</defs>
	<rect id="Solid / ZIP Solid" width="24.000000" height="24.000000" fill="#FFFFFF" fill-opacity="0"/>
	<g >
		<path id="Shape" d="M5 11L5 6C5 4.34 6.34 3 8 3L13.04 3C13.87 3 14.67 3.34 15.23 3.95L18.19 7.13C18.71 7.69 19 8.42 19 9.17L19 11C20.65 11 22 12.34 22 14L22 18C22 19.65 20.65 21 19 21L5 21C3.34 21 2 19.65 2 18L2 14C2 12.34 3.34 11 5 11ZM13.04 4.29L8 4.29C7.06 4.29 6.3 5.06 6.3 6L6.3 11L17.7 11L17.7 9.17C17.7 9.11 17.69 9.05 17.69 8.99L15.29 8.99C14.22 8.99 13.34 8.12 13.34 7.04L13.34 4.32C13.24 4.3 13.14 4.29 13.04 4.29ZM14.64 5.23L16.94 7.69L15.29 7.69C14.94 7.69 14.64 7.4 14.64 7.04L14.64 5.23ZM14.96 18.4C15.32 18.4 15.61 18.11 15.61 17.75L15.61 17.18L16.28 17.18C17.27 17.18 18.08 16.38 18.08 15.38C18.08 14.39 17.27 13.59 16.28 13.59L14.96 13.59C14.6 13.59 14.31 13.88 14.31 14.24L14.31 17.75C14.31 18.11 14.6 18.4 14.96 18.4ZM12.64 14.24C12.64 13.88 12.35 13.59 12 13.59C11.64 13.59 11.35 13.88 11.35 14.24L11.35 17.75C11.35 18.11 11.64 18.4 12 18.4C12.35 18.4 12.64 18.11 12.64 17.75L12.64 14.24ZM6 14.24C6 13.88 6.29 13.59 6.65 13.59L9.03 13.59C9.27 13.59 9.49 13.72 9.6 13.93C9.72 14.15 9.7 14.4 9.57 14.6L7.88 17.1L9.03 17.1C9.39 17.1 9.68 17.39 9.68 17.75C9.68 18.11 9.39 18.4 9.03 18.4L6.65 18.4C6.41 18.4 6.19 18.27 6.08 18.06C5.96 17.84 5.98 17.59 6.11 17.39L7.8 14.89L6.65 14.89C6.29 14.89 6 14.6 6 14.24ZM16.78 15.38C16.78 15.66 16.55 15.88 16.28 15.88L15.61 15.88L15.61 14.89L16.28 14.89C16.55 14.89 16.78 15.11 16.78 15.38Z" fill="#74767B" fill-opacity="1.000000" fill-rule="evenodd"/>
	</g>
</svg>
