<svg width="24" height="24" viewBox="0 0 24 24" fill="none" xmlns="http://www.w3.org/2000/svg">
<path fill-rule="evenodd" clip-rule="evenodd" d="M12.0002 8.00625C12.3592 8.00625 12.6502 8.29727 12.6502 8.65625V11.8019C12.6502 13.0346 11.6601 14.0247 10.4274 14.0247H10.34C9.98102 14.0247 9.69 13.7337 9.69 13.3747C9.69 13.0157 9.98102 12.7247 10.34 12.7247H10.4274C10.9422 12.7247 11.3502 12.3167 11.3502 11.8019V8.65625C11.3502 8.29727 11.6412 8.00625 12.0002 8.00625Z" fill="#626F84"/>
<path fill-rule="evenodd" clip-rule="evenodd" d="M15.9834 15.2597C16.2453 15.5052 16.2586 15.9166 16.013 16.1785C15.2114 17.0335 13.8101 17.5777 12.3874 17.6607C10.9472 17.7447 9.34726 17.3644 8.17634 16.1935C7.9225 15.9397 7.9225 15.5281 8.17634 15.2743C8.43018 15.0204 8.84174 15.0204 9.09558 15.2743C9.93436 16.1131 11.1306 16.4318 12.3117 16.3629C13.5103 16.293 14.5556 15.8323 15.0646 15.2893C15.3102 15.0274 15.7215 15.0142 15.9834 15.2597Z" fill="#626F84"/>
<path fill-rule="evenodd" clip-rule="evenodd" d="M7.5 8.00625C7.85898 8.00625 8.15 8.29727 8.15 8.65625V10.4038C8.15 10.7628 7.85898 11.0538 7.5 11.0538C7.14102 11.0538 6.85 10.7628 6.85 10.4038V8.65625C6.85 8.29727 7.14102 8.00625 7.5 8.00625Z" fill="#626F84"/>
<path fill-rule="evenodd" clip-rule="evenodd" d="M16.5 8.00625C16.859 8.00625 17.15 8.29727 17.15 8.65625V10.4038C17.15 10.7628 16.859 11.0538 16.5 11.0538C16.141 11.0538 15.85 10.7628 15.85 10.4038V8.65625C15.85 8.29727 16.141 8.00625 16.5 8.00625Z" fill="#626F84"/>
<path d="M4.89175 2.00012H5.69103C6.05001 2.00012 6.34103 2.29114 6.34103 2.65012C6.34103 3.00911 6.05001 3.30012 5.69103 3.30012H4.89175C3.95287 3.30012 3.19175 4.06124 3.19175 5.00012V5.69109C3.19175 6.05008 2.90074 6.34109 2.54175 6.34109C2.18277 6.34109 1.89175 6.05008 1.89175 5.69109V5.00012C1.89175 3.34327 3.2349 2.00012 4.89175 2.00012Z" fill="#626F84"/>
<path d="M2.54175 17.659C2.18277 17.659 1.89175 17.95 1.89175 18.309V19.0001C1.89175 20.657 3.2349 22.0001 4.89175 22.0001H5.69103C6.05001 22.0001 6.34103 21.7091 6.34103 21.3501C6.34103 20.9911 6.05001 20.7001 5.69103 20.7001H4.89175C3.95287 20.7001 3.19175 19.939 3.19175 19.0001V18.309C3.19175 17.95 2.90074 17.659 2.54175 17.659Z" fill="#626F84"/>
<path d="M21.2418 17.659C20.8828 17.659 20.5918 17.95 20.5918 18.309V19.0001C20.5918 19.939 19.8306 20.7001 18.8918 20.7001H18.309C17.95 20.7001 17.659 20.9911 17.659 21.3501C17.659 21.7091 17.95 22.0001 18.309 22.0001H18.8918C20.5486 22.0001 21.8918 20.657 21.8918 19.0001V18.309C21.8918 17.95 21.6007 17.659 21.2418 17.659Z" fill="#626F84"/>
<path d="M21.2418 6.34109C21.6007 6.34109 21.8918 6.05008 21.8918 5.6911V5.00012C21.8918 3.34327 20.5486 2.00012 18.8918 2.00012H18.309C17.95 2.00012 17.659 2.29114 17.659 2.65012C17.659 3.00911 17.95 3.30012 18.309 3.30012H18.8918C19.8306 3.30012 20.5918 4.06124 20.5918 5.00012V5.6911C20.5918 6.05008 20.8828 6.34109 21.2418 6.34109Z" fill="#626F84"/>
</svg>
