<svg width="24" height="24" viewBox="0 0 24 24" fill="none" xmlns="http://www.w3.org/2000/svg">
<path fill-rule="evenodd" clip-rule="evenodd" d="M12.0002 8.00625C12.3591 8.00625 12.6502 8.29727 12.6502 8.65625V11.8019C12.6502 13.0346 11.6601 14.0247 10.4273 14.0247H10.34C9.98098 14.0247 9.68997 13.7337 9.68997 13.3747C9.68997 13.0157 9.98098 12.7247 10.34 12.7247H10.4273C10.9421 12.7247 11.3502 12.3167 11.3502 11.8019V8.65625C11.3502 8.29727 11.6412 8.00625 12.0002 8.00625Z" fill="#717681"/>
<path fill-rule="evenodd" clip-rule="evenodd" d="M15.9834 15.2597C16.2453 15.5052 16.2585 15.9166 16.013 16.1785C15.2114 17.0335 13.8101 17.5777 12.3874 17.6607C10.9471 17.7447 9.34723 17.3644 8.17631 16.1935C7.92247 15.9397 7.92247 15.5281 8.17631 15.2743C8.43015 15.0204 8.84171 15.0204 9.09555 15.2743C9.93433 16.1131 11.1305 16.4318 12.3117 16.3629C13.5102 16.293 14.5555 15.8323 15.0646 15.2893C15.3101 15.0274 15.7215 15.0142 15.9834 15.2597Z" fill="#717681"/>
<path fill-rule="evenodd" clip-rule="evenodd" d="M7.49997 8.00625C7.85895 8.00625 8.14997 8.29727 8.14997 8.65625V10.4038C8.14997 10.7628 7.85895 11.0538 7.49997 11.0538C7.14098 11.0538 6.84997 10.7628 6.84997 10.4038V8.65625C6.84997 8.29727 7.14098 8.00625 7.49997 8.00625Z" fill="#717681"/>
<path fill-rule="evenodd" clip-rule="evenodd" d="M16.5 8.00625C16.859 8.00625 17.15 8.29727 17.15 8.65625V10.4038C17.15 10.7628 16.859 11.0538 16.5 11.0538C16.141 11.0538 15.85 10.7628 15.85 10.4038V8.65625C15.85 8.29727 16.141 8.00625 16.5 8.00625Z" fill="#717681"/>
<path d="M4.89172 2.00012H5.691C6.04998 2.00012 6.341 2.29114 6.341 2.65012C6.341 3.00911 6.04998 3.30012 5.691 3.30012H4.89172C3.95284 3.30012 3.19172 4.06124 3.19172 5.00012V5.69109C3.19172 6.05008 2.90071 6.34109 2.54172 6.34109C2.18274 6.34109 1.89172 6.05008 1.89172 5.69109V5.00012C1.89172 3.34327 3.23487 2.00012 4.89172 2.00012Z" fill="#717681"/>
<path d="M2.54172 17.659C2.18274 17.659 1.89172 17.95 1.89172 18.309V19.0001C1.89172 20.657 3.23487 22.0001 4.89172 22.0001H5.691C6.04998 22.0001 6.341 21.7091 6.341 21.3501C6.341 20.9911 6.04998 20.7001 5.691 20.7001H4.89172C3.95284 20.7001 3.19172 19.939 3.19172 19.0001V18.309C3.19172 17.95 2.90071 17.659 2.54172 17.659Z" fill="#717681"/>
<path d="M21.2417 17.659C20.8827 17.659 20.5917 17.95 20.5917 18.309V19.0001C20.5917 19.939 19.8306 20.7001 18.8917 20.7001H18.3089C17.9499 20.7001 17.6589 20.9911 17.6589 21.3501C17.6589 21.7091 17.9499 22.0001 18.3089 22.0001H18.8917C20.5486 22.0001 21.8917 20.657 21.8917 19.0001V18.309C21.8917 17.95 21.6007 17.659 21.2417 17.659Z" fill="#717681"/>
<path d="M21.2417 6.34109C21.6007 6.34109 21.8917 6.05008 21.8917 5.6911V5.00012C21.8917 3.34327 20.5486 2.00012 18.8917 2.00012H18.3089C17.9499 2.00012 17.6589 2.29114 17.6589 2.65012C17.6589 3.00911 17.9499 3.30012 18.3089 3.30012H18.8917C19.8306 3.30012 20.5917 4.06124 20.5917 5.00012V5.6911C20.5917 6.05008 20.8827 6.34109 21.2417 6.34109Z" fill="#717681"/>
</svg>
