<svg width="24" height="24" viewBox="0 0 24 24" fill="none" xmlns="http://www.w3.org/2000/svg">
<path d="M5.69103 2.00012H4.89175C3.2349 2.00012 1.89175 3.34327 1.89175 5.00012V5.69109C1.89175 6.05008 2.18277 6.34109 2.54175 6.34109C2.90074 6.34109 3.19175 6.05008 3.19175 5.69109V5.00012C3.19175 4.06124 3.95287 3.30012 4.89175 3.30012H5.69103C6.05001 3.30012 6.34103 3.00911 6.34103 2.65012C6.34103 2.29114 6.05001 2.00012 5.69103 2.00012Z" fill="#626F84"/>
<path d="M1.89175 18.309C1.89175 17.95 2.18277 17.659 2.54175 17.659C2.90074 17.659 3.19175 17.95 3.19175 18.309V19.0001C3.19175 19.939 3.95287 20.7001 4.89175 20.7001H5.69103C6.05001 20.7001 6.34103 20.9911 6.34103 21.3501C6.34103 21.7091 6.05001 22.0001 5.69103 22.0001H4.89175C3.2349 22.0001 1.89175 20.657 1.89175 19.0001V18.309Z" fill="#626F84"/>
<path d="M21.2418 17.659C20.8828 17.659 20.5918 17.95 20.5918 18.309V19.0001C20.5918 19.939 19.8306 20.7001 18.8918 20.7001H18.309C17.95 20.7001 17.659 20.9911 17.659 21.3501C17.659 21.7091 17.95 22.0001 18.309 22.0001H18.8918C20.5486 22.0001 21.8918 20.657 21.8918 19.0001V18.309C21.8918 17.95 21.6007 17.659 21.2418 17.659Z" fill="#626F84"/>
<path d="M21.8918 5.6911C21.8918 6.05008 21.6007 6.34109 21.2418 6.34109C20.8828 6.34109 20.5918 6.05008 20.5918 5.6911V5.00012C20.5918 4.06124 19.8306 3.30012 18.8918 3.30012H18.309C17.95 3.30012 17.659 3.00911 17.659 2.65012C17.659 2.29114 17.95 2.00012 18.309 2.00012H18.8918C20.5486 2.00012 21.8918 3.34327 21.8918 5.00012V5.6911Z" fill="#626F84"/>
<path d="M8.01431 7.14507C9.10793 6.27338 10.4923 5.75282 12 5.75282C13.6878 5.75282 15.2218 6.40532 16.3658 7.47306C16.6283 7.71801 17.0396 7.70383 17.2845 7.4414C17.5295 7.17896 17.5153 6.76765 17.2528 6.5227C15.8777 5.23919 14.03 4.45282 12 4.45282C10.1874 4.45282 8.51955 5.07992 7.20402 6.12849C5.43539 7.53822 4.30002 9.71314 4.30002 12.1528C4.30002 12.6988 4.35694 13.2321 4.46539 13.747C4.53937 14.0983 4.88412 14.3231 5.23539 14.2491C5.58667 14.1751 5.81146 13.8304 5.73748 13.4791C5.64747 13.0517 5.60002 12.6082 5.60002 12.1528C5.60002 10.1256 6.54182 8.31875 8.01431 7.14507Z" fill="#626F84"/>
<path d="M18.9404 8.81427C18.7846 8.49087 18.3961 8.35502 18.0727 8.51085C17.7493 8.66668 17.6134 9.05517 17.7693 9.37857C18.1733 10.2171 18.4 11.1575 18.4 12.1528V12.1743C18.4 12.9391 18.4 13.3309 18.1771 14.7496C18.1214 15.1043 18.3637 15.4369 18.7184 15.4927C19.073 15.5484 19.4057 15.3061 19.4614 14.9514C19.6979 13.4459 19.7 12.9923 19.7 12.1528C19.7 10.958 19.4274 9.825 18.9404 8.81427Z" fill="#626F84"/>
<path d="M12 7.38702C11.6411 7.38702 11.35 7.67804 11.35 8.03702C11.35 8.39601 11.6411 8.68702 12 8.68702C13.6624 8.68702 15.0516 9.86328 15.3779 11.4293C15.4512 11.7808 15.7954 12.0063 16.1469 11.9331C16.4983 11.8598 16.7238 11.5156 16.6506 11.1641C16.2012 9.00749 14.2906 7.38702 12 7.38702Z" fill="#626F84"/>
<path d="M10.0363 9.29948C10.3313 9.09495 10.4047 8.68999 10.2002 8.39496C9.99565 8.09994 9.59068 8.02658 9.29566 8.2311C8.06046 9.08741 7.24953 10.5172 7.24953 12.1375C7.24953 13.2347 7.14827 13.9005 6.96656 14.4242C6.78458 14.9485 6.50749 15.3759 6.06438 15.9978C5.85607 16.2901 5.92421 16.696 6.21658 16.9043C6.50894 17.1126 6.91482 17.0445 7.12313 16.7521C7.57064 16.124 7.94644 15.5657 8.1947 14.8504C8.44321 14.1343 8.54953 13.3064 8.54953 12.1375C8.54953 10.9613 9.13663 9.92319 10.0363 9.29948Z" fill="#626F84"/>
<path d="M12 11.2752C11.539 11.2752 11.1652 11.649 11.1652 12.11C11.1652 12.469 10.8742 12.76 10.5152 12.76C10.1562 12.76 9.86523 12.469 9.86523 12.11C9.86523 10.931 10.821 9.9752 12 9.9752C13.1791 9.9752 14.1349 10.931 14.1349 12.11C14.1349 14.6293 13.7997 16.3801 12.4629 19.2147C12.3098 19.5394 11.9224 19.6785 11.5978 19.5254C11.2731 19.3722 11.134 18.9849 11.2871 18.6602C12.5441 15.9948 12.8349 14.4331 12.8349 12.11C12.8349 11.649 12.4611 11.2752 12 11.2752Z" fill="#626F84"/>
<path d="M10.6503 13.661C11.0014 13.7356 11.2256 14.0807 11.151 14.4319C10.7045 16.5341 9.91823 17.7434 9.3207 18.5567C9.10816 18.846 8.70133 18.9082 8.41203 18.6956C8.12273 18.4831 8.06051 18.0763 8.27306 17.787C8.80053 17.069 9.48297 16.0283 9.87941 14.1618C9.95399 13.8106 10.2991 13.5864 10.6503 13.661Z" fill="#626F84"/>
<path d="M16.9939 13.6721C16.9939 13.3131 16.7029 13.022 16.3438 13.022C15.9847 13.022 15.6937 13.3131 15.6937 13.6721C15.6937 14.8339 15.4911 15.8727 15.2867 16.6231C15.1849 16.9972 15.0834 17.2966 15.0085 17.5001C14.971 17.6017 14.9403 17.6792 14.9196 17.7299C14.9092 17.7552 14.9013 17.7738 14.8964 17.7853L14.8912 17.7972L14.8904 17.7991C14.7444 18.1267 14.8913 18.5108 15.2189 18.6572C15.5431 18.8022 15.9339 18.6517 16.0784 18.3276L16.0794 18.3255L16.0822 18.319L16.0914 18.2977C16.0991 18.2799 16.1097 18.2548 16.1228 18.2227C16.1491 18.1586 16.1855 18.0666 16.2286 17.9495C16.3149 17.7154 16.4283 17.3798 16.5413 16.9647C16.7668 16.1367 16.9939 14.9797 16.9939 13.6721Z" fill="#626F84"/>
</svg>
