<svg width="24" height="24" viewBox="0 0 24 24" fill="none" xmlns="http://www.w3.org/2000/svg">
<path d="M5.691 2.00012H4.89172C3.23487 2.00012 1.89172 3.34327 1.89172 5.00012V5.69109C1.89172 6.05008 2.18274 6.34109 2.54172 6.34109C2.90071 6.34109 3.19172 6.05008 3.19172 5.69109V5.00012C3.19172 4.06124 3.95284 3.30012 4.89172 3.30012H5.691C6.04998 3.30012 6.341 3.00911 6.341 2.65012C6.341 2.29114 6.04998 2.00012 5.691 2.00012Z" fill="#717681"/>
<path d="M1.89172 18.309C1.89172 17.95 2.18274 17.659 2.54172 17.659C2.90071 17.659 3.19172 17.95 3.19172 18.309V19.0001C3.19172 19.939 3.95284 20.7001 4.89172 20.7001H5.691C6.04998 20.7001 6.341 20.9911 6.341 21.3501C6.341 21.7091 6.04998 22.0001 5.691 22.0001H4.89172C3.23487 22.0001 1.89172 20.657 1.89172 19.0001V18.309Z" fill="#717681"/>
<path d="M21.2417 17.659C20.8827 17.659 20.5917 17.95 20.5917 18.309V19.0001C20.5917 19.939 19.8306 20.7001 18.8917 20.7001H18.3089C17.9499 20.7001 17.6589 20.9911 17.6589 21.3501C17.6589 21.7091 17.9499 22.0001 18.3089 22.0001H18.8917C20.5486 22.0001 21.8917 20.657 21.8917 19.0001V18.309C21.8917 17.95 21.6007 17.659 21.2417 17.659Z" fill="#717681"/>
<path d="M21.8917 5.6911C21.8917 6.05008 21.6007 6.34109 21.2417 6.34109C20.8827 6.34109 20.5917 6.05008 20.5917 5.6911V5.00012C20.5917 4.06124 19.8306 3.30012 18.8917 3.30012H18.3089C17.9499 3.30012 17.6589 3.00911 17.6589 2.65012C17.6589 2.29114 17.9499 2.00012 18.3089 2.00012H18.8917C20.5486 2.00012 21.8917 3.34327 21.8917 5.00012V5.6911Z" fill="#717681"/>
<path d="M8.01427 7.14507C9.1079 6.27338 10.4923 5.75282 12 5.75282C13.6878 5.75282 15.2218 6.40532 16.3658 7.47306C16.6282 7.71801 17.0395 7.70383 17.2845 7.4414C17.5294 7.17896 17.5153 6.76765 17.2528 6.5227C15.8777 5.23919 14.0299 4.45282 12 4.45282C10.1874 4.45282 8.51952 5.07992 7.20399 6.12849C5.43536 7.53822 4.29999 9.71314 4.29999 12.1528C4.29999 12.6988 4.35691 13.2321 4.46536 13.747C4.53934 14.0983 4.88409 14.3231 5.23536 14.2491C5.58664 14.1751 5.81143 13.8304 5.73745 13.4791C5.64744 13.0517 5.59999 12.6082 5.59999 12.1528C5.59999 10.1256 6.54179 8.31875 8.01427 7.14507Z" fill="#717681"/>
<path d="M18.9404 8.81427C18.7846 8.49087 18.3961 8.35502 18.0727 8.51085C17.7493 8.66668 17.6134 9.05517 17.7692 9.37857C18.1733 10.2171 18.4 11.1575 18.4 12.1528V12.1743C18.4 12.9391 18.4 13.3309 18.1771 14.7496C18.1214 15.1043 18.3637 15.4369 18.7183 15.4927C19.073 15.5484 19.4056 15.3061 19.4613 14.9514C19.6979 13.4459 19.7 12.9923 19.7 12.1528C19.7 10.958 19.4274 9.825 18.9404 8.81427Z" fill="#717681"/>
<path d="M12 7.38702C11.641 7.38702 11.35 7.67804 11.35 8.03702C11.35 8.39601 11.641 8.68702 12 8.68702C13.6624 8.68702 15.0516 9.86328 15.3779 11.4293C15.4511 11.7808 15.7954 12.0063 16.1468 11.9331C16.4983 11.8598 16.7238 11.5156 16.6506 11.1641C16.2011 9.00749 14.2906 7.38702 12 7.38702Z" fill="#717681"/>
<path d="M10.0363 9.29948C10.3313 9.09495 10.4047 8.68999 10.2001 8.39496C9.99562 8.09994 9.59065 8.02658 9.29563 8.2311C8.06043 9.08741 7.2495 10.5172 7.2495 12.1375C7.2495 13.2347 7.14824 13.9005 6.96653 14.4242C6.78455 14.9485 6.50746 15.3759 6.06435 15.9978C5.85604 16.2901 5.92418 16.696 6.21655 16.9043C6.50891 17.1126 6.91479 17.0445 7.1231 16.7521C7.57061 16.124 7.94641 15.5657 8.19467 14.8504C8.44318 14.1343 8.5495 13.3064 8.5495 12.1375C8.5495 10.9613 9.1366 9.92319 10.0363 9.29948Z" fill="#717681"/>
<path d="M12 11.2752C11.539 11.2752 11.1652 11.649 11.1652 12.11C11.1652 12.469 10.8742 12.76 10.5152 12.76C10.1562 12.76 9.8652 12.469 9.8652 12.11C9.8652 10.931 10.821 9.9752 12 9.9752C13.179 9.9752 14.1348 10.931 14.1348 12.11C14.1348 14.6293 13.7997 16.3801 12.4629 19.2147C12.3098 19.5394 11.9224 19.6785 11.5977 19.5254C11.273 19.3722 11.1339 18.9849 11.2871 18.6602C12.544 15.9948 12.8348 14.4331 12.8348 12.11C12.8348 11.649 12.4611 11.2752 12 11.2752Z" fill="#717681"/>
<path d="M10.6502 13.661C11.0014 13.7356 11.2256 14.0807 11.151 14.4319C10.7045 16.5341 9.9182 17.7434 9.32067 18.5567C9.10813 18.846 8.7013 18.9082 8.412 18.6956C8.1227 18.4831 8.06048 18.0763 8.27303 17.787C8.8005 17.069 9.48294 16.0283 9.87938 14.1618C9.95396 13.8106 10.2991 13.5864 10.6502 13.661Z" fill="#717681"/>
<path d="M16.9939 13.6721C16.9939 13.3131 16.7028 13.022 16.3438 13.022C15.9847 13.022 15.6936 13.3131 15.6936 13.6721C15.6936 14.8339 15.491 15.8727 15.2867 16.6231C15.1848 16.9972 15.0834 17.2966 15.0084 17.5001C14.971 17.6017 14.9403 17.6792 14.9195 17.7299C14.9092 17.7552 14.9013 17.7738 14.8963 17.7853L14.8912 17.7972L14.8904 17.7991C14.7444 18.1267 14.8913 18.5108 15.2188 18.6572C15.543 18.8022 15.9339 18.6517 16.0784 18.3276L16.0793 18.3255L16.0822 18.319L16.0914 18.2977C16.099 18.2799 16.1096 18.2548 16.1228 18.2227C16.149 18.1586 16.1855 18.0666 16.2286 17.9495C16.3148 17.7154 16.4283 17.3798 16.5413 16.9647C16.7668 16.1367 16.9939 14.9797 16.9939 13.6721Z" fill="#717681"/>
</svg>
