<svg width="24" height="24" viewBox="0 0 24 24" fill="none" xmlns="http://www.w3.org/2000/svg">
<path d="M10.5318 7.76919C10.7856 7.51535 10.7856 7.10379 10.5318 6.84995C10.2779 6.59611 9.86635 6.59611 9.61251 6.84995L7.2536 9.20886C6.99976 9.4627 6.99976 9.87425 7.2536 10.1281C7.50744 10.3819 7.919 10.3819 8.17284 10.1281L10.5318 7.76919Z" fill="#626F84"/>
<path fill-rule="evenodd" clip-rule="evenodd" d="M8.16591 3.55895C9.33748 2.38737 11.237 2.38737 12.4085 3.55895L14.5299 5.68027C15.7014 6.85184 15.7014 8.75134 14.5299 9.92291L14.2052 10.2476L16.6341 12.6325C16.8218 12.8168 16.9492 13.0537 16.9994 13.312L17.3878 15.3091C17.4517 15.638 17.7398 15.8754 18.0749 15.8754H18.6822C19.0271 15.8754 19.3578 16.0125 19.6016 16.2564L19.9459 16.6007C20.5807 17.2357 20.8336 18.1584 20.6115 19.0284L20.4508 19.6573C20.1996 20.6409 19.2115 21.2461 18.2213 21.023C17.8751 20.945 17.5582 20.7704 17.3072 20.5195L10.6203 13.8325L10.2872 14.1655C9.11565 15.3371 7.21616 15.3371 6.04459 14.1655L3.92327 12.0442C2.75169 10.8727 2.75169 8.97316 3.92327 7.80159L8.16591 3.55895ZM4.8425 8.72083L9.08515 4.47819C9.74904 3.81429 10.8254 3.81429 11.4893 4.47819L13.6106 6.59951C14.2745 7.2634 14.2745 8.33978 13.6106 9.00367L9.36799 13.2463C8.7041 13.9102 7.62772 13.9102 6.96383 13.2463L4.8425 11.125C4.17861 10.4611 4.17861 9.38472 4.8425 8.72083ZM13.2882 11.169L15.7233 13.5601L16.1117 15.5572C16.2944 16.497 17.1175 17.1754 18.0749 17.1754L18.6822 17.1754L19.0265 17.5198C19.3368 17.8303 19.4605 18.2814 19.3519 18.7067L19.1912 19.3356C19.1142 19.6375 18.8109 19.8232 18.507 19.7548C18.4008 19.7308 18.3035 19.6772 18.2265 19.6002L11.5417 12.9155L13.2882 11.169Z" fill="#626F84"/>
</svg>
