<svg width="24" height="24" viewBox="0 0 24 24" fill="none" xmlns="http://www.w3.org/2000/svg">
<path fill-rule="evenodd" clip-rule="evenodd" d="M12.4085 3.55895C11.237 2.38737 9.33748 2.38737 8.16591 3.55895L3.92327 7.80159C2.75169 8.97316 2.75169 10.8727 3.92327 12.0442L6.04459 14.1655C7.21616 15.3371 9.11565 15.3371 10.2872 14.1655L10.6203 13.8325L17.3072 20.5195C17.5582 20.7704 17.8751 20.945 18.2213 21.023C19.2115 21.2461 20.1996 20.6409 20.4508 19.6573L20.6115 19.0284C20.8336 18.1584 20.5807 17.2357 19.9459 16.6007L19.6016 16.2564C19.3578 16.0125 19.0271 15.8754 18.6822 15.8754H18.0749C17.7398 15.8754 17.4517 15.638 17.3878 15.3091L16.9994 13.312C16.9492 13.0537 16.8218 12.8168 16.6341 12.6325L14.2052 10.2476L14.5299 9.92291C15.7014 8.75134 15.7014 6.85184 14.5299 5.68027L12.4085 3.55895ZM10.5318 7.76919C10.7856 7.51535 10.7856 7.1038 10.5318 6.84996C10.2779 6.59611 9.86636 6.59611 9.61252 6.84996L7.25361 9.20886C6.99977 9.46271 6.99977 9.87426 7.25361 10.1281C7.50745 10.3819 7.91901 10.3819 8.17285 10.1281L10.5318 7.76919Z" fill="#626F84"/>
</svg>
