<svg width="24" height="24" viewBox="0 0 24 24" fill="none" xmlns="http://www.w3.org/2000/svg">
<path d="M7.74997 12C7.74997 12.8284 7.0784 13.5 6.24997 13.5C5.42154 13.5 4.74997 12.8284 4.74997 12C4.74997 11.1716 5.42154 10.5 6.24997 10.5C7.0784 10.5 7.74997 11.1716 7.74997 12Z" fill="#717681"/>
<path d="M13.5 12C13.5 12.8284 12.8284 13.5 12 13.5C11.1715 13.5 10.5 12.8284 10.5 12C10.5 11.1716 11.1715 10.5 12 10.5C12.8284 10.5 13.5 11.1716 13.5 12Z" fill="#717681"/>
<path d="M19.25 12C19.25 12.8284 18.5784 13.5 17.75 13.5C16.9215 13.5 16.25 12.8284 16.25 12C16.25 11.1716 16.9215 10.5 17.75 10.5C18.5784 10.5 19.25 11.1716 19.25 12Z" fill="#717681"/>
<path d="M4.89172 2.00012H5.691C6.04998 2.00012 6.341 2.29114 6.341 2.65012C6.341 3.00911 6.04998 3.30012 5.691 3.30012H4.89172C3.95284 3.30012 3.19172 4.06124 3.19172 5.00012V5.69109C3.19172 6.05008 2.90071 6.34109 2.54172 6.34109C2.18274 6.34109 1.89172 6.05008 1.89172 5.69109V5.00012C1.89172 3.34327 3.23487 2.00012 4.89172 2.00012Z" fill="#717681"/>
<path d="M2.54172 17.659C2.18274 17.659 1.89172 17.95 1.89172 18.309V19.0001C1.89172 20.657 3.23487 22.0001 4.89172 22.0001H5.691C6.04998 22.0001 6.341 21.7091 6.341 21.3501C6.341 20.9911 6.04998 20.7001 5.691 20.7001H4.89172C3.95284 20.7001 3.19172 19.939 3.19172 19.0001V18.309C3.19172 17.95 2.90071 17.659 2.54172 17.659Z" fill="#717681"/>
<path d="M21.2417 17.659C20.8827 17.659 20.5917 17.95 20.5917 18.309V19.0001C20.5917 19.939 19.8306 20.7001 18.8917 20.7001H18.3089C17.9499 20.7001 17.6589 20.9911 17.6589 21.3501C17.6589 21.7091 17.9499 22.0001 18.3089 22.0001H18.8917C20.5486 22.0001 21.8917 20.657 21.8917 19.0001V18.309C21.8917 17.95 21.6007 17.659 21.2417 17.659Z" fill="#717681"/>
<path d="M21.2417 6.34109C21.6007 6.34109 21.8917 6.05008 21.8917 5.6911V5.00012C21.8917 3.34327 20.5486 2.00012 18.8917 2.00012H18.3089C17.9499 2.00012 17.6589 2.29114 17.6589 2.65012C17.6589 3.00911 17.9499 3.30012 18.3089 3.30012H18.8917C19.8306 3.30012 20.5917 4.06124 20.5917 5.00012V5.6911C20.5917 6.05008 20.8827 6.34109 21.2417 6.34109Z" fill="#717681"/>
</svg>
