<svg width="24" height="24" viewBox="0 0 24 24" fill="none" xmlns="http://www.w3.org/2000/svg">
<path fill-rule="evenodd" clip-rule="evenodd" d="M5 2H19C20.6569 2 22 3.34315 22 5V19C22 20.6569 20.6569 22 19 22H5C3.34315 22 2 20.6569 2 19V5C2 3.34315 3.34315 2 5 2ZM7.75 12C7.75 12.8284 7.07843 13.5 6.25 13.5C5.42157 13.5 4.75 12.8284 4.75 12C4.75 11.1716 5.42157 10.5 6.25 10.5C7.07843 10.5 7.75 11.1716 7.75 12ZM13.5 12C13.5 12.8284 12.8284 13.5 12 13.5C11.1716 13.5 10.5 12.8284 10.5 12C10.5 11.1716 11.1716 10.5 12 10.5C12.8284 10.5 13.5 11.1716 13.5 12ZM17.75 13.5C18.5784 13.5 19.25 12.8284 19.25 12C19.25 11.1716 18.5784 10.5 17.75 10.5C16.9216 10.5 16.25 11.1716 16.25 12C16.25 12.8284 16.9216 13.5 17.75 13.5Z" fill="#626F84"/>
</svg>
