<svg width="24" height="24" viewBox="0 0 24 24" fill="none" xmlns="http://www.w3.org/2000/svg">
<path d="M7.75 12C7.75 12.8284 7.07843 13.5 6.25 13.5C5.42157 13.5 4.75 12.8284 4.75 12C4.75 11.1716 5.42157 10.5 6.25 10.5C7.07843 10.5 7.75 11.1716 7.75 12Z" fill="#626F84"/>
<path d="M13.5 12C13.5 12.8284 12.8284 13.5 12 13.5C11.1716 13.5 10.5 12.8284 10.5 12C10.5 11.1716 11.1716 10.5 12 10.5C12.8284 10.5 13.5 11.1716 13.5 12Z" fill="#626F84"/>
<path d="M19.25 12C19.25 12.8284 18.5784 13.5 17.75 13.5C16.9216 13.5 16.25 12.8284 16.25 12C16.25 11.1716 16.9216 10.5 17.75 10.5C18.5784 10.5 19.25 11.1716 19.25 12Z" fill="#626F84"/>
<path d="M4.89175 2.00012H5.69103C6.05001 2.00012 6.34103 2.29114 6.34103 2.65012C6.34103 3.00911 6.05001 3.30012 5.69103 3.30012H4.89175C3.95287 3.30012 3.19175 4.06124 3.19175 5.00012V5.69109C3.19175 6.05008 2.90074 6.34109 2.54175 6.34109C2.18277 6.34109 1.89175 6.05008 1.89175 5.69109V5.00012C1.89175 3.34327 3.2349 2.00012 4.89175 2.00012Z" fill="#626F84"/>
<path d="M2.54175 17.659C2.18277 17.659 1.89175 17.95 1.89175 18.309V19.0001C1.89175 20.657 3.2349 22.0001 4.89175 22.0001H5.69103C6.05001 22.0001 6.34103 21.7091 6.34103 21.3501C6.34103 20.9911 6.05001 20.7001 5.69103 20.7001H4.89175C3.95287 20.7001 3.19175 19.939 3.19175 19.0001V18.309C3.19175 17.95 2.90074 17.659 2.54175 17.659Z" fill="#626F84"/>
<path d="M21.2418 17.659C20.8828 17.659 20.5918 17.95 20.5918 18.309V19.0001C20.5918 19.939 19.8306 20.7001 18.8918 20.7001H18.309C17.95 20.7001 17.659 20.9911 17.659 21.3501C17.659 21.7091 17.95 22.0001 18.309 22.0001H18.8918C20.5486 22.0001 21.8918 20.657 21.8918 19.0001V18.309C21.8918 17.95 21.6007 17.659 21.2418 17.659Z" fill="#626F84"/>
<path d="M21.2418 6.34109C21.6007 6.34109 21.8918 6.05008 21.8918 5.6911V5.00012C21.8918 3.34327 20.5486 2.00012 18.8918 2.00012H18.309C17.95 2.00012 17.659 2.29114 17.659 2.65012C17.659 3.00911 17.95 3.30012 18.309 3.30012H18.8918C19.8306 3.30012 20.5918 4.06124 20.5918 5.00012V5.6911C20.5918 6.05008 20.8828 6.34109 21.2418 6.34109Z" fill="#626F84"/>
</svg>
