<svg width="24" height="24" viewBox="0 0 24 24" fill="none" xmlns="http://www.w3.org/2000/svg">
<path d="M12.0588 13.3816C11.7888 13.6716 11.3288 13.6816 11.0488 13.4016L9.1875 11.5589C8.9375 11.3089 8.9375 10.8889 9.1875 10.6389C9.4375 10.3889 9.8575 10.3889 10.1075 10.6389L11.5288 12.0416L14.1596 9.21171C14.3996 8.94171 14.8196 8.93171 15.0796 9.17171C15.3396 9.41171 15.3596 9.82171 15.1196 10.0917L12.0588 13.3816Z" fill="#626F84"/>
<path fill-rule="evenodd" clip-rule="evenodd" d="M4.9847 4.75378C4.40599 4.89846 4 5.41844 4 6.01496V11.2454C4 14.3485 5.59858 17.2327 8.23001 18.8773L11.311 20.803C11.7326 21.0664 12.2674 21.0664 12.689 20.803L15.77 18.8773C18.4014 17.2327 20 14.3485 20 11.2454V6.01497C20 5.41844 19.594 4.89846 19.0153 4.75378L12.7276 3.18186C12.2499 3.06243 11.7501 3.06243 11.2724 3.18186L4.9847 4.75378ZM18.7 11.2454V6.01497L12.4123 4.44304C12.1416 4.37537 11.8584 4.37537 11.5877 4.44304L5.3 6.01496V11.2454C5.3 13.9002 6.66767 16.3679 8.91901 17.7749L12 19.7006L15.081 17.7749C17.3323 16.3679 18.7 13.9002 18.7 11.2454Z" fill="#626F84"/>
</svg>
