<svg width="24" height="24" viewBox="0 0 24 24" fill="none" xmlns="http://www.w3.org/2000/svg">
<path fill-rule="evenodd" clip-rule="evenodd" d="M13.915 9.08619L16.8963 9.51905C17.2209 9.56461 17.3518 9.9689 17.1184 10.1967L14.9596 12.2959C14.8887 12.3649 14.8564 12.4643 14.8731 12.5617L15.3816 15.5265C15.4386 15.8511 15.0969 16.1016 14.8008 15.9479L12.1388 14.552C12.0514 14.5061 11.9471 14.5062 11.8598 14.5522L9.19766 15.9536C8.90726 16.1073 8.5656 15.8568 8.61685 15.5322L9.1255 12.5614C9.14216 12.4641 9.1099 12.3649 9.03922 12.296L6.88579 10.1967C6.64663 9.9689 6.7776 9.56461 7.10217 9.51905L10.0835 9.08619C10.1813 9.07199 10.2658 9.01057 10.3095 8.92195L11.6405 6.22208C11.7886 5.92597 12.2099 5.92597 12.358 6.22208L13.689 8.92195C13.7327 9.01057 13.8172 9.07199 13.915 9.08619ZM13.7282 10.3727L14.898 10.5425L14.0533 11.3639C13.6753 11.7315 13.5026 12.2618 13.5918 12.7815L13.7924 13.9512L12.7426 13.4006C12.2764 13.1562 11.7199 13.1567 11.2542 13.4018L10.2061 13.9536L10.4069 12.7808C10.4957 12.262 10.3236 11.7326 9.94669 11.3651L9.10259 10.5422L10.2703 10.3727C10.7918 10.297 11.2425 9.96939 11.4755 9.49678L11.9992 8.43441L12.523 9.49678C12.756 9.96939 13.2067 10.297 13.7282 10.3727Z" fill="#717681"/>
<path fill-rule="evenodd" clip-rule="evenodd" d="M4 6.01496C4 5.41844 4.40599 4.89846 4.9847 4.75378L11.2724 3.18186C11.7501 3.06243 12.2499 3.06243 12.7276 3.18186L19.0153 4.75378C19.594 4.89846 20 5.41844 20 6.01497V11.2454C20 14.3485 18.4014 17.2327 15.77 18.8773L12.689 20.803C12.2674 21.0664 11.7326 21.0664 11.311 20.803L8.23001 18.8773C5.59858 17.2327 4 14.3485 4 11.2454V6.01496ZM18.7 6.01497V11.2454C18.7 13.9002 17.3323 16.3679 15.081 17.7749L12 19.7006L8.91901 17.7749C6.66767 16.3679 5.3 13.9002 5.3 11.2454V6.01496L11.5877 4.44304C11.8584 4.37537 12.1416 4.37537 12.4123 4.44304L18.7 6.01497Z" fill="#717681"/>
</svg>
