<svg width="24" height="24" viewBox="0 0 24 24" fill="none" xmlns="http://www.w3.org/2000/svg">
<path fill-rule="evenodd" clip-rule="evenodd" d="M4.9847 4.75381C4.40599 4.89849 4 5.41847 4 6.01499V11.2454C4 14.3485 5.59858 17.2327 8.23001 18.8774L11.311 20.803C11.7326 21.0665 12.2674 21.0665 12.689 20.803L15.77 18.8774C18.4014 17.2327 20 14.3485 20 11.2454V6.015C20 5.41847 19.594 4.89849 19.0153 4.75381L12.7276 3.18189C12.2499 3.06246 11.7501 3.06246 11.2724 3.18189L4.9847 4.75381ZM12 13.7962C12.359 13.7962 12.65 13.5052 12.65 13.1462V7.99996C12.65 7.64098 12.359 7.34996 12 7.34996C11.641 7.34996 11.35 7.64098 11.35 7.99996V13.1462C11.35 13.5052 11.641 13.7962 12 13.7962ZM12 16.65C12.4142 16.65 12.75 16.3142 12.75 15.9C12.75 15.4857 12.4142 15.15 12 15.15C11.5858 15.15 11.25 15.4857 11.25 15.9C11.25 16.3142 11.5858 16.65 12 16.65Z" fill="#717681"/>
</svg>
