<svg width="24" height="24" viewBox="0 0 24 24" fill="none" xmlns="http://www.w3.org/2000/svg">
<path d="M12 13.7962C12.359 13.7962 12.65 13.5052 12.65 13.1462V7.99996C12.65 7.64098 12.359 7.34996 12 7.34996C11.641 7.34996 11.35 7.64098 11.35 7.99996V13.1462C11.35 13.5052 11.641 13.7962 12 13.7962Z" fill="#717681"/>
<path d="M12 16.65C12.4142 16.65 12.75 16.3142 12.75 15.9C12.75 15.4857 12.4142 15.15 12 15.15C11.5858 15.15 11.25 15.4857 11.25 15.9C11.25 16.3142 11.5858 16.65 12 16.65Z" fill="#717681"/>
<path fill-rule="evenodd" clip-rule="evenodd" d="M4 6.01499C4 5.41847 4.40599 4.89849 4.9847 4.75381L11.2724 3.18189C11.7501 3.06246 12.2499 3.06246 12.7276 3.18189L19.0153 4.75381C19.594 4.89849 20 5.41847 20 6.015V11.2454C20 14.3485 18.4014 17.2327 15.77 18.8774L12.689 20.803C12.2674 21.0665 11.7326 21.0665 11.311 20.803L8.23001 18.8774C5.59858 17.2327 4 14.3485 4 11.2454V6.01499ZM18.7 6.015V11.2454C18.7 13.9003 17.3323 16.3679 15.081 17.775L12 19.7006L8.91901 17.775C6.66767 16.3679 5.3 13.9003 5.3 11.2454V6.01499L11.5877 4.44307C11.8584 4.3754 12.1416 4.3754 12.4123 4.44307L18.7 6.015Z" fill="#717681"/>
</svg>
