<svg width="24.000000" height="24.000000" viewBox="0 0 24 24" fill="none" xmlns="http://www.w3.org/2000/svg" xmlns:xlink="http://www.w3.org/1999/xlink">
	<desc>
			Created with Pixso.
	</desc>
	<defs/>
	<path id="Shape" d="M5 2L19 2C20.65 2 22 3.34 22 5L22 19C22 20.65 20.65 22 19 22L5 22C3.34 22 2 20.65 2 19L2 5C2 3.34 3.34 2 5 2ZM7.5 8.01C7.85 8.01 8.15 8.3 8.15 8.66L8.15 10.4C8.15 10.76 7.85 11.05 7.5 11.05C7.14 11.05 6.84 10.76 6.84 10.4L6.84 8.66C6.84 8.3 7.14 8.01 7.5 8.01ZM12.65 8.66C12.65 8.3 12.35 8.01 12 8.01C11.64 8.01 11.35 8.3 11.35 8.66L11.35 11.8C11.35 12.32 10.94 12.72 10.42 12.72L10.34 12.72C9.98 12.72 9.68 13.01 9.68 13.37C9.68 13.73 9.98 14.02 10.34 14.02L10.42 14.02C11.66 14.02 12.65 13.03 12.65 11.8L12.65 8.66ZM16.01 16.18C16.25 15.92 16.24 15.5 15.98 15.26C15.72 15.01 15.31 15.03 15.06 15.29C14.55 15.83 13.51 16.29 12.31 16.36C11.13 16.43 9.93 16.11 9.09 15.27C8.84 15.02 8.43 15.02 8.17 15.27C7.92 15.53 7.92 15.94 8.17 16.19C9.34 17.36 10.94 17.74 12.38 17.66C13.81 17.58 15.21 17.03 16.01 16.18ZM17.15 8.66C17.15 8.3 16.85 8.01 16.5 8.01C16.14 8.01 15.85 8.3 15.85 8.66L15.85 10.4C15.85 10.76 16.14 11.05 16.5 11.05C16.85 11.05 17.15 10.76 17.15 10.4L17.15 8.66Z" fill="#717681" fill-opacity="1.000000" fill-rule="evenodd"/>
</svg>
