<svg width="24.000000" height="24.000000" viewBox="0 0 24 24" fill="none" xmlns="http://www.w3.org/2000/svg" xmlns:xlink="http://www.w3.org/1999/xlink">
	<desc>
			Created with Pixso.
	</desc>
	<defs>
		<clipPath id="clip17_856">
			<rect id="Outline / Fingerprint Outline" width="24.000000" height="24.000000" fill="white" fill-opacity="0"/>
		</clipPath>
	</defs>
	<g>
		<path id="Shape" d="M4.89 2L5.69 2C6.04 2 6.34 2.29 6.34 2.65C6.34 3 6.04 3.3 5.69 3.3L4.89 3.3C3.95 3.3 3.19 4.06 3.19 5L3.19 5.69C3.19 6.05 2.9 6.34 2.54 6.34C2.18 6.34 1.89 6.05 1.89 5.69L1.89 5C1.89 3.34 3.23 2 4.89 2ZM21.89 5.69C21.89 6.05 21.6 6.34 21.24 6.34C20.88 6.34 20.59 6.05 20.59 5.69L20.59 5C20.59 4.06 19.83 3.3 18.89 3.3L18.3 3.3C17.95 3.3 17.65 3 17.65 2.65C17.65 2.29 17.95 2 18.3 2L18.89 2C20.54 2 21.89 3.34 21.89 5L21.89 5.69ZM12 5.75C10.49 5.75 9.1 6.27 8.01 7.14C6.54 8.31 5.59 10.12 5.59 12.15C5.59 12.6 5.64 13.05 5.73 13.47C5.74 13.52 5.75 13.56 5.75 13.61C5.75 13.91 5.54 14.18 5.23 14.24C4.88 14.32 4.53 14.09 4.46 13.74C4.35 13.23 4.3 12.69 4.3 12.15C4.3 9.71 5.43 7.53 7.2 6.12C8.51 5.07 10.18 4.45 12 4.45C14.02 4.45 15.87 5.23 17.25 6.52C17.39 6.65 17.45 6.82 17.45 6.99C17.45 7.15 17.4 7.31 17.28 7.44C17.03 7.7 16.62 7.71 16.36 7.47C15.22 6.4 13.68 5.75 12 5.75ZM11.35 8.03C11.35 7.67 11.64 7.38 12 7.38C14.29 7.38 16.2 9 16.65 11.16C16.65 11.2 16.66 11.25 16.66 11.29C16.66 11.59 16.45 11.86 16.14 11.93C15.79 12 15.45 11.78 15.37 11.42C15.05 9.86 13.66 8.68 12 8.68C11.64 8.68 11.35 8.39 11.35 8.03ZM10.31 8.76C10.31 8.97 10.21 9.17 10.03 9.29C9.13 9.92 8.54 10.96 8.54 12.13C8.54 13.3 8.44 14.13 8.19 14.85C7.94 15.56 7.57 16.12 7.12 16.75C6.91 17.04 6.5 17.11 6.21 16.9C6.03 16.77 5.94 16.57 5.94 16.37C5.94 16.24 5.98 16.11 6.06 15.99C6.5 15.37 6.78 14.94 6.96 14.42C7.14 13.9 7.24 13.23 7.24 12.13C7.24 10.51 8.06 9.08 9.29 8.23C9.59 8.02 9.99 8.09 10.2 8.39C10.27 8.5 10.31 8.63 10.31 8.76ZM18.07 8.51C18.39 8.35 18.78 8.49 18.94 8.81C19.42 9.82 19.7 10.95 19.7 12.15C19.7 12.99 19.69 13.44 19.46 14.95C19.4 15.3 19.07 15.54 18.71 15.49C18.39 15.44 18.16 15.16 18.16 14.85C18.16 14.81 18.17 14.78 18.17 14.74C18.39 13.34 18.4 12.94 18.4 12.19L18.4 12.15C18.4 11.15 18.17 10.21 17.76 9.37C17.72 9.28 17.7 9.19 17.7 9.09C17.7 8.85 17.84 8.62 18.07 8.51ZM12 11.27C11.53 11.27 11.16 11.64 11.16 12.11C11.16 12.46 10.87 12.76 10.51 12.76C10.15 12.76 9.86 12.46 9.86 12.11C9.86 10.93 10.82 9.97 12 9.97C13.17 9.97 14.13 10.93 14.13 12.11C14.13 14.62 13.79 16.38 12.46 19.21C12.3 19.53 11.92 19.67 11.59 19.52C11.36 19.41 11.22 19.18 11.22 18.93C11.22 18.84 11.24 18.74 11.28 18.66C12.54 15.99 12.83 14.43 12.83 12.11C12.83 11.64 12.46 11.27 12 11.27ZM16.34 13.02C16.7 13.02 16.99 13.31 16.99 13.67C16.99 14.97 16.76 16.13 16.54 16.96C16.42 17.37 16.31 17.71 16.22 17.94C16.18 18.06 16.14 18.15 16.12 18.22C16.1 18.25 16.09 18.27 16.09 18.29L16.08 18.31L16.07 18.32L16.07 18.32C15.93 18.65 15.54 18.8 15.21 18.65C14.97 18.54 14.83 18.31 14.83 18.06C14.83 17.97 14.85 17.88 14.89 17.79L14.89 17.79L14.89 17.78C14.9 17.77 14.9 17.75 14.91 17.72C14.94 17.67 14.97 17.6 15 17.5C15.08 17.29 15.18 16.99 15.28 16.62C15.49 15.87 15.69 14.83 15.69 13.67C15.69 13.31 15.98 13.02 16.34 13.02ZM10.65 13.66C10.95 13.72 11.16 13.99 11.16 14.29C11.16 14.34 11.16 14.38 11.15 14.43C10.7 16.53 9.91 17.74 9.32 18.55C9.1 18.84 8.7 18.9 8.41 18.69C8.23 18.56 8.14 18.37 8.14 18.17C8.14 18.03 8.18 17.9 8.27 17.78C8.8 17.06 9.48 16.02 9.87 14.16C9.95 13.81 10.29 13.58 10.65 13.66ZM1.89 18.3C1.89 17.95 2.18 17.65 2.54 17.65C2.9 17.65 3.19 17.95 3.19 18.3L3.19 19C3.19 19.93 3.95 20.7 4.89 20.7L5.69 20.7C6.04 20.7 6.34 20.99 6.34 21.35C6.34 21.7 6.04 22 5.69 22L4.89 22C3.23 22 1.89 20.65 1.89 19L1.89 18.3ZM20.59 18.3C20.59 17.95 20.88 17.65 21.24 17.65C21.6 17.65 21.89 17.95 21.89 18.3L21.89 19C21.89 20.65 20.54 22 18.89 22L18.3 22C17.95 22 17.65 21.7 17.65 21.35C17.65 20.99 17.95 20.7 18.3 20.7L18.89 20.7C19.83 20.7 20.59 19.93 20.59 19L20.59 18.3Z" fill="#717681" fill-opacity="1.000000" fill-rule="evenodd"/>
	</g>
</svg>
