<svg width="24" height="24" viewBox="0 0 24 24" fill="none" xmlns="http://www.w3.org/2000/svg">
<path fill-rule="evenodd" clip-rule="evenodd" d="M19.1511 12.0749L17.737 4.9688C17.503 3.79314 16.2737 3.10492 15.1492 3.52005L12.9658 4.32605C12.4406 4.51994 11.8634 4.51994 11.3381 4.32605L9.15176 3.51894C8.02876 3.10438 6.80083 3.79014 6.56475 4.9637L5.13422 12.0749H3.64988C3.29089 12.0749 2.99988 12.3659 2.99988 12.7249C2.99988 13.0838 3.29089 13.3749 3.64988 13.3749H20.3499C20.7089 13.3749 20.9999 13.0838 20.9999 12.7249C20.9999 12.3659 20.7089 12.0749 20.3499 12.0749H19.1511ZM8.70155 4.73849C8.32722 4.60031 7.91791 4.82889 7.83922 5.22008L6.46026 12.0749H17.8256L16.462 5.22252C16.384 4.83063 15.9742 4.60123 15.5994 4.7396L13.416 5.54561C12.6002 5.84676 11.7037 5.84676 10.8879 5.54561L8.70155 4.73849Z" fill="#717681"/>
<path fill-rule="evenodd" clip-rule="evenodd" d="M6.44379 14.7547C5.725 14.7547 5.14231 15.3409 5.14231 16.0641V17.5808C5.14231 19.2497 6.48699 20.6026 8.14573 20.6026H8.39236C10.0511 20.6026 11.3958 19.2497 11.3958 17.5808V16.8101C11.3958 16.3981 11.7297 16.0642 12.1417 16.0642C12.5537 16.0642 12.8876 16.3981 12.8876 16.8101V17.5808C12.8876 19.2497 14.2323 20.6026 15.891 20.6026H16.1384C17.7971 20.6026 19.1418 19.2497 19.1418 17.5808V16.0641C19.1418 15.3409 18.5591 14.7547 17.8403 14.7547H6.44379ZM9.69431 16.0642C9.91522 16.0642 10.0943 16.2433 10.0943 16.4642V17.5808C10.0943 18.5265 9.33232 19.2932 8.39236 19.2932H8.14573C7.20578 19.2932 6.44379 18.5265 6.44379 17.5808V16.4641C6.44379 16.2432 6.62288 16.0641 6.8438 16.0641L9.69431 16.0642ZM14.1891 16.4642C14.1891 16.2433 14.3682 16.0642 14.5891 16.0642L17.4403 16.0641C17.6613 16.0641 17.8403 16.2432 17.8403 16.4641V17.5808C17.8403 18.5265 17.0784 19.2932 16.1384 19.2932H15.891C14.9511 19.2932 14.1891 18.5265 14.1891 17.5808V16.4642Z" fill="#717681"/>
</svg>
