<svg width="24.000000" height="24.000000" viewBox="0 0 24 24" fill="none" xmlns="http://www.w3.org/2000/svg" xmlns:xlink="http://www.w3.org/1999/xlink">
	<desc>
			Created with Pixso.
	</desc>
	<defs>
		<clipPath id="clip121039_742">
			<rect id="Solid / Incognito Solid" width="24.000000" height="24.000000" fill="white" fill-opacity="0"/>
		</clipPath>
	</defs>
	<g >
		<path id="Shape" d="M15.14 3.41C16.26 3 17.49 3.68 17.72 4.86L19.15 11.96L20.36 11.96C20.72 11.96 21.01 12.25 21.01 12.61C21.01 12.97 20.72 13.26 20.36 13.26L3.66 13.26C3.3 13.26 3.01 12.97 3.01 12.61C3.01 12.25 3.3 11.96 3.66 11.96L5.13 11.96L6.55 4.86C6.79 3.68 8.01 3 9.14 3.41L11.32 4.22C11.85 4.41 12.43 4.41 12.95 4.22L15.14 3.41ZM5.14 15.95C5.14 15.23 5.72 14.64 6.44 14.64L17.84 14.64C18.55 14.64 19.14 15.23 19.14 15.95L19.14 17.47C19.14 19.14 17.79 20.5 16.13 20.5L15.89 20.5C14.23 20.5 12.88 19.14 12.88 17.47L12.88 16.7C12.88 16.29 12.55 15.95 12.14 15.95C11.72 15.95 11.39 16.29 11.39 16.7L11.39 17.47C11.39 19.14 10.05 20.5 8.39 20.5L8.14 20.5C6.48 20.5 5.14 19.14 5.14 17.47L5.14 15.95ZM10.09 16.35C10.09 16.13 9.91 15.95 9.69 15.95L6.84 15.95C6.62 15.95 6.44 16.13 6.44 16.35L6.44 17.47C6.44 18.42 7.2 19.18 8.14 19.18L8.39 19.18C9.33 19.18 10.09 18.42 10.09 17.47L10.09 16.35ZM14.58 15.95C14.36 15.95 14.18 16.13 14.18 16.35L14.18 17.47C14.18 18.42 14.95 19.18 15.89 19.18L16.13 19.18C17.07 19.18 17.84 18.42 17.84 17.47L17.84 16.35C17.84 16.13 17.66 15.95 17.44 15.95L14.58 15.95Z" fill="#74767B" fill-opacity="1.000000" fill-rule="evenodd"/>
	</g>
</svg>
