<svg width="24" height="24" viewBox="0 0 24 24" fill="none" xmlns="http://www.w3.org/2000/svg">
<path fill-rule="evenodd" clip-rule="evenodd" d="M6.44377 14.6486C5.72498 14.6486 5.14229 15.2352 5.14229 15.9588V17.4764C5.14229 19.1463 6.48696 20.5 8.14571 20.5H8.39234C10.0511 20.5 11.3958 19.1463 11.3958 17.4764V16.7048C11.3958 16.2928 11.7297 15.9589 12.1417 15.9589C12.5536 15.9589 12.8876 16.2928 12.8876 16.7048V17.4764C12.8876 19.1463 14.2323 20.5 15.891 20.5H16.1384C17.7971 20.5 19.1418 19.1463 19.1418 17.4764V15.9588C19.1418 15.2352 18.5591 14.6486 17.8403 14.6486H6.44377ZM9.69428 15.9588C9.9152 15.9589 10.0943 16.1379 10.0943 16.3588V17.4764C10.0943 18.4226 9.3323 19.1898 8.39234 19.1898H8.14571C7.20575 19.1898 6.44377 18.4226 6.44377 17.4764V16.3588C6.44377 16.1379 6.62286 15.9588 6.84377 15.9588L9.69428 15.9588ZM14.1891 16.3588C14.1891 16.1379 14.3682 15.9589 14.5891 15.9588L17.4403 15.9588C17.6612 15.9588 17.8403 16.1379 17.8403 16.3588V17.4764C17.8403 18.4226 17.0783 19.1898 16.1384 19.1898H15.891C14.9511 19.1898 14.1891 18.4226 14.1891 17.4764V16.3588Z" fill="#717681"/>
<path fill-rule="evenodd" clip-rule="evenodd" d="M17.7284 4.86367C17.4932 3.68901 16.2644 3.00215 15.1406 3.41724L12.9564 4.22406C12.4309 4.41816 11.8533 4.41816 11.3278 4.22406L9.14355 3.41724C8.01979 3.00215 6.79097 3.68901 6.55582 4.86367L5.13373 11.9676H3.66404C3.30505 11.9676 3.01404 12.2586 3.01404 12.6176C3.01404 12.9765 3.30505 13.2676 3.66404 13.2676L20.364 13.2676C20.723 13.2676 21.014 12.9765 21.014 12.6176C21.014 12.2586 20.723 11.9676 20.364 11.9676H19.1505L17.7284 4.86367Z" fill="#717681"/>
</svg>
