<svg width="24" height="24" viewBox="0 0 24 24" fill="none" xmlns="http://www.w3.org/2000/svg">
<path d="M10.5317 7.76922C10.7856 7.51538 10.7856 7.10382 10.5317 6.84998C10.2779 6.59614 9.86632 6.59614 9.61248 6.84998L7.25357 9.20889C6.99973 9.46273 6.99973 9.87428 7.25357 10.1281C7.50741 10.382 7.91897 10.382 8.17281 10.1281L10.5317 7.76922Z" fill="#717681"/>
<path fill-rule="evenodd" clip-rule="evenodd" d="M8.16588 3.55898C9.33745 2.3874 11.2369 2.3874 12.4085 3.55898L14.5298 5.6803C15.7014 6.85187 15.7014 8.75137 14.5298 9.92294L14.2052 10.2476L16.6341 12.6325C16.8218 12.8168 16.9492 13.0538 16.9994 13.312L17.3878 15.3091C17.4517 15.638 17.7398 15.8755 18.0749 15.8755H18.6822C19.027 15.8755 19.3578 16.0125 19.6016 16.2564L19.9458 16.6008C20.5807 17.2358 20.8336 18.1584 20.6114 19.0284L20.4508 19.6574C20.1996 20.6409 19.2115 21.2461 18.2212 21.023C17.8751 20.945 17.5581 20.7704 17.3072 20.5195L10.6202 13.8325L10.2872 14.1656C9.11562 15.3372 7.21613 15.3372 6.04456 14.1656L3.92324 12.0443C2.75166 10.8727 2.75166 8.97319 3.92324 7.80162L8.16588 3.55898ZM4.84247 8.72086L9.08511 4.47822C9.74901 3.81432 10.8254 3.81433 11.4893 4.47822L13.6106 6.59954C14.2745 7.26343 14.2745 8.33981 13.6106 9.0037L9.36796 13.2463C8.70407 13.9102 7.62769 13.9102 6.96379 13.2463L4.84247 11.125C4.17858 10.4611 4.17858 9.38475 4.84247 8.72086ZM13.2881 11.1691L15.7233 13.5601L16.1117 15.5572C16.2944 16.497 17.1175 17.1755 18.0749 17.1755L18.6822 17.1755L19.0265 17.5199C19.3368 17.8303 19.4605 18.2814 19.3519 18.7067L19.1912 19.3357C19.1141 19.6375 18.8109 19.8233 18.507 19.7548C18.4007 19.7309 18.3035 19.6773 18.2264 19.6003L11.5417 12.9155L13.2881 11.1691Z" fill="#717681"/>
</svg>
