<svg width="24.000000" height="24.000000" viewBox="0 0 24 24" fill="none" xmlns="http://www.w3.org/2000/svg" xmlns:xlink="http://www.w3.org/1999/xlink">
	<desc>
			Created with Pixso.
	</desc>
	<defs/>
	<path id="Shape" d="M8.01 9L8.01 7.08C8.01 4.89 9.79 3.11 11.98 3.11C14.18 3.11 15.96 4.89 15.96 7.08L15.96 9L16 9C17.65 9 19 10.34 19 12L19 17C19 18.65 17.65 20 16 20L8 20C6.34 20 5 18.65 5 17L5 12C5 10.34 6.34 9 8 9L8.01 9ZM9.34 7.08C9.34 5.62 10.52 4.44 11.98 4.44C13.44 4.44 14.63 5.62 14.63 7.08L14.63 9L9.34 9L9.34 7.08ZM12 12.99C12.35 12.99 12.65 13.28 12.65 13.64L12.65 15.35C12.65 15.71 12.35 16 12 16C11.64 16 11.35 15.71 11.35 15.35L11.35 13.64C11.35 13.28 11.64 12.99 12 12.99Z" fill="#74767B" fill-opacity="1.000000" fill-rule="evenodd"/>
</svg>
