<svg width="24.000000" height="24.000000" viewBox="0 0 24 24" fill="none" xmlns="http://www.w3.org/2000/svg" xmlns:xlink="http://www.w3.org/1999/xlink">
	<desc>
			Created with Pixso.
	</desc>
	<defs/>
	<path id="Shape" d="M5 2L19 2C20.65 2 22 3.34 22 5L22 19C22 20.65 20.65 22 19 22L5 22C3.34 22 2 20.65 2 19L2 5C2 3.34 3.34 2 5 2ZM7.75 12C7.75 12.82 7.07 13.5 6.25 13.5C5.42 13.5 4.75 12.82 4.75 12C4.75 11.17 5.42 10.5 6.25 10.5C7.07 10.5 7.75 11.17 7.75 12ZM13.5 12C13.5 12.82 12.82 13.5 12 13.5C11.17 13.5 10.5 12.82 10.5 12C10.5 11.17 11.17 10.5 12 10.5C12.82 10.5 13.5 11.17 13.5 12ZM17.75 13.5C18.57 13.5 19.25 12.82 19.25 12C19.25 11.17 18.57 10.5 17.75 10.5C16.92 10.5 16.25 11.17 16.25 12C16.25 12.82 16.92 13.5 17.75 13.5Z" fill="#717681" fill-opacity="1.000000" fill-rule="evenodd"/>
</svg>
