<svg width="24.000000" height="24.000000" viewBox="0 0 24 24" fill="none" xmlns="http://www.w3.org/2000/svg" xmlns:xlink="http://www.w3.org/1999/xlink">
	<desc>
			Created with Pixso.
	</desc>
	<defs>
		<clipPath id="clip17_840">
			<rect id="Outline / Password Outline" width="24.000000" height="24.000000" fill="white" fill-opacity="0"/>
		</clipPath>
	</defs>
	<g >
		<path id="Shape" d="M4.89 2L5.69 2C6.04 2 6.34 2.29 6.34 2.65C6.34 3 6.04 3.3 5.69 3.3L4.89 3.3C3.95 3.3 3.19 4.06 3.19 5L3.19 5.69C3.19 6.05 2.9 6.34 2.54 6.34C2.18 6.34 1.89 6.05 1.89 5.69L1.89 5C1.89 3.34 3.23 2 4.89 2ZM21.89 5.69C21.89 6.05 21.6 6.34 21.24 6.34C20.88 6.34 20.59 6.05 20.59 5.69L20.59 5C20.59 4.06 19.83 3.3 18.89 3.3L18.3 3.3C17.95 3.3 17.65 3 17.65 2.65C17.65 2.29 17.95 2 18.3 2L18.89 2C20.54 2 21.89 3.34 21.89 5L21.89 5.69ZM7.75 12C7.75 12.82 7.07 13.5 6.25 13.5C5.42 13.5 4.75 12.82 4.75 12C4.75 11.17 5.42 10.5 6.25 10.5C7.07 10.5 7.75 11.17 7.75 12ZM13.5 12C13.5 12.82 12.82 13.5 12 13.5C11.17 13.5 10.5 12.82 10.5 12C10.5 11.17 11.17 10.5 12 10.5C12.82 10.5 13.5 11.17 13.5 12ZM19.25 12C19.25 12.82 18.57 13.5 17.75 13.5C16.92 13.5 16.25 12.82 16.25 12C16.25 11.17 16.92 10.5 17.75 10.5C18.57 10.5 19.25 11.17 19.25 12ZM1.89 18.3C1.89 17.95 2.18 17.65 2.54 17.65C2.9 17.65 3.19 17.95 3.19 18.3L3.19 19C3.19 19.93 3.95 20.7 4.89 20.7L5.69 20.7C6.04 20.7 6.34 20.99 6.34 21.35C6.34 21.7 6.04 22 5.69 22L4.89 22C3.23 22 1.89 20.65 1.89 19L1.89 18.3ZM20.59 18.3C20.59 17.95 20.88 17.65 21.24 17.65C21.6 17.65 21.89 17.95 21.89 18.3L21.89 19C21.89 20.65 20.54 22 18.89 22L18.3 22C17.95 22 17.65 21.7 17.65 21.35C17.65 20.99 17.95 20.7 18.3 20.7L18.89 20.7C19.83 20.7 20.59 19.93 20.59 19L20.59 18.3Z" fill="#74767B" fill-opacity="1.000000" fill-rule="evenodd"/>
	</g>
</svg>
