<svg width="24.000000" height="24.000000" viewBox="0 0 24 24" fill="none" xmlns="http://www.w3.org/2000/svg" xmlns:xlink="http://www.w3.org/1999/xlink">
	<desc>
			Created with Pixso.
	</desc>
	<defs>
		<clipPath id="clip17_883">
			<rect id="Outline / Safety Outline" width="24.000000" height="24.000000" fill="white" fill-opacity="0"/>
		</clipPath>
	</defs>
	<g clip-path="url(#clip17_883)">
		<path id="Shape" d="M4.98 4.75C4.4 4.89 4 5.41 4 6.01L4 11.24C4 14.34 5.59 17.23 8.22 18.87L11.31 20.8C11.73 21.06 12.26 21.06 12.68 20.8L15.77 18.87C18.4 17.23 20 14.34 20 11.24L20 6.01C20 5.41 19.59 4.89 19.01 4.75L12.72 3.18C12.24 3.06 11.75 3.06 11.27 3.18L4.98 4.75ZM18.7 11.24L18.7 6.01L12.41 4.44C12.14 4.37 11.85 4.37 11.58 4.44L5.3 6.01L5.3 11.24C5.3 13.9 6.66 16.36 8.91 17.77L12 19.7L15.08 17.77C17.33 16.36 18.7 13.9 18.7 11.24ZM16.89 9.51L13.91 9.08C13.81 9.07 13.73 9.01 13.68 8.92L12.35 6.22C12.21 5.92 11.78 5.92 11.64 6.22L10.3 8.92C10.26 9.01 10.18 9.07 10.08 9.08L7.1 9.51C6.77 9.56 6.64 9.96 6.88 10.19L9.03 12.29C9.1 12.36 9.14 12.46 9.12 12.56L8.61 15.53C8.56 15.85 8.9 16.1 9.19 15.95L11.85 14.55C11.94 14.5 12.05 14.5 12.13 14.55L14.8 15.94C15.09 16.1 15.43 15.85 15.38 15.52L14.87 12.56C14.85 12.46 14.88 12.36 14.95 12.29L17.11 10.19C17.35 9.96 17.22 9.56 16.89 9.51ZM14.89 10.54L13.72 10.37C13.2 10.29 12.75 9.96 12.52 9.49L11.99 8.43L11.47 9.49C11.24 9.96 10.79 10.29 10.27 10.37L9.1 10.54L9.94 11.36C10.32 11.73 10.49 12.26 10.4 12.78L10.2 13.95L11.25 13.4C11.72 13.15 12.27 13.15 12.74 13.4L13.79 13.95L13.59 12.78C13.5 12.26 13.67 11.73 14.05 11.36L14.89 10.54Z" fill="#717681" fill-opacity="1.000000" fill-rule="evenodd"/>
	</g>
</svg>
