<svg width="24.000000" height="24.000000" viewBox="0 0 24 24" fill="none" xmlns="http://www.w3.org/2000/svg" xmlns:xlink="http://www.w3.org/1999/xlink">
	<desc>
			Created with Pixso.
	</desc>
	<defs>
		<clipPath id="clip6746_1219">
			<rect id="Outline / Safe Certificate Outline" width="24.000000" height="24.000000" fill="white" fill-opacity="0"/>
		</clipPath>
	</defs>
	<g >
		<path id="Shape" d="M4 6.01C4 5.41 4.4 4.89 4.98 4.75L11.27 3.18C11.75 3.06 12.24 3.06 12.72 3.18L19.01 4.75C19.59 4.89 20 5.41 20 6.01L20 11.24C20 14.34 18.4 17.23 15.77 18.87L12.68 20.8C12.26 21.06 11.73 21.06 11.31 20.8L8.22 18.87C5.59 17.23 4 14.34 4 11.24L4 6.01ZM18.7 6.01L18.7 11.24C18.7 13.9 17.33 16.36 15.08 17.77L12 19.7L8.91 17.77C6.66 16.36 5.3 13.9 5.3 11.24L5.3 6.01L11.58 4.44C11.85 4.37 12.14 4.37 12.41 4.44L18.7 6.01ZM11.04 13.4C11.32 13.68 11.78 13.67 12.05 13.38L15.11 10.09C15.35 9.82 15.33 9.41 15.07 9.17C14.81 8.93 14.39 8.94 14.15 9.21L11.52 12.04L10.1 10.63C9.85 10.38 9.43 10.38 9.18 10.63C8.93 10.88 8.93 11.3 9.18 11.55L11.04 13.4Z" fill="#74767B" fill-opacity="1.000000" fill-rule="evenodd"/>
	</g>
</svg>
