<svg width="24.000000" height="24.000000" viewBox="0 0 24 24" fill="none" xmlns="http://www.w3.org/2000/svg" xmlns:xlink="http://www.w3.org/1999/xlink">
	<desc>
			Created with Pixso.
	</desc>
	<defs>
		<clipPath id="clip116868_716">
			<rect id="Solid / Unsafety Solid" width="24.000000" height="24.000000" fill="white" fill-opacity="0"/>
		</clipPath>
	</defs>
	<g clip-path="url(#clip116868_716)">
		<path id="Shape" d="M4.98 4.75C4.4 4.89 4 5.41 4 6.01L4 11.24C4 14.34 5.59 17.23 8.22 18.87L11.31 20.8C11.73 21.06 12.26 21.06 12.68 20.8L15.77 18.87C18.4 17.23 20 14.34 20 11.24L20 6.01C20 5.41 19.59 4.89 19.01 4.75L12.72 3.18C12.24 3.06 11.75 3.06 11.27 3.18L4.98 4.75ZM12 13.79C12.35 13.79 12.65 13.5 12.65 13.14L12.65 8C12.65 7.64 12.35 7.35 12 7.35C11.64 7.35 11.35 7.64 11.35 8L11.35 13.14C11.35 13.5 11.64 13.79 12 13.79ZM12 16.65C12.41 16.65 12.75 16.31 12.75 15.9C12.75 15.48 12.41 15.15 12 15.15C11.58 15.15 11.25 15.48 11.25 15.9C11.25 16.31 11.58 16.65 12 16.65Z" fill="#74767B" fill-opacity="1.000000" fill-rule="evenodd"/>
	</g>
</svg>
