<svg width="24.000000" height="24.000000" viewBox="0 0 24 24" fill="none" xmlns="http://www.w3.org/2000/svg" xmlns:xlink="http://www.w3.org/1999/xlink">
	<desc>
			Created with Pixso.
	</desc>
	<defs>
		<clipPath id="clip17_1035">
			<rect id="Outline / Broker Outline" width="24.000000" height="24.000000" fill="white" fill-opacity="0"/>
		</clipPath>
	</defs>
	<g clip-path="url(#clip17_1035)">
		<path id="Shape" d="M4.64 4.03C5 4.03 5.3 4.32 5.3 4.68L5.3 18C5.3 18.36 5.59 18.65 5.95 18.65L19.33 18.65C19.69 18.65 19.98 18.94 19.98 19.3C19.98 19.66 19.69 19.95 19.33 19.95L5.95 19.95C4.87 19.95 4 19.08 4 18L4 4.68C4 4.32 4.29 4.03 4.64 4.03ZM19.66 7.95C19.52 7.83 19.34 7.77 19.15 7.79L16.13 8.11C15.78 8.15 15.52 8.47 15.56 8.83C15.59 9.19 15.91 9.45 16.27 9.41L17.64 9.26L14.07 12.83L11.22 9.97C11.09 9.85 10.93 9.78 10.76 9.78C10.58 9.78 10.42 9.85 10.3 9.97L6.98 13.29C6.72 13.54 6.72 13.95 6.98 14.21C7.23 14.46 7.64 14.46 7.9 14.21L10.76 11.35L13.62 14.21C13.74 14.33 13.9 14.4 14.07 14.4C14.25 14.4 14.41 14.33 14.53 14.21L18.59 10.15L18.6 11.41C18.6 11.77 18.9 12.05 19.25 12.05C19.61 12.05 19.9 11.75 19.9 11.39L19.87 8.43C19.87 8.25 19.79 8.07 19.66 7.95Z" fill="#717681" fill-opacity="1.000000" fill-rule="evenodd"/>
	</g>
</svg>
