<svg width="24" height="24" viewBox="0 0 24 24" fill="none" xmlns="http://www.w3.org/2000/svg">
<path d="M3 8C3 6.34315 4.34315 5 6 5H18C19.6569 5 21 6.34315 21 8V8.27051H3V8Z" fill="#717681"/>
<path fill-rule="evenodd" clip-rule="evenodd" d="M3 9.57051H21V16C21 17.6569 19.6569 19 18 19H6C4.34315 19 3 17.6569 3 16V9.57051ZM9.34998 11.8364C9.34998 11.4774 9.64099 11.1864 9.99998 11.1864H14C14.359 11.1864 14.65 11.4774 14.65 11.8364C14.65 12.1954 14.359 12.4864 14 12.4864H12.65L12.65 16.7464C12.65 17.1053 12.359 17.3964 12 17.3964C11.641 17.3964 11.35 17.1053 11.35 16.7464V12.4864H9.99998C9.64099 12.4864 9.34998 12.1954 9.34998 11.8364Z" fill="#717681"/>
</svg>
