<svg width="24.000000" height="24.000000" viewBox="0 0 24 24" fill="none" xmlns="http://www.w3.org/2000/svg" xmlns:xlink="http://www.w3.org/1999/xlink">
	<desc>
			Created with Pixso.
	</desc>
	<defs>
		<clipPath id="clip17_941">
			<rect id="Solid / Card Solid" width="24.000000" height="24.000000" fill="white" fill-opacity="0"/>
		</clipPath>
	</defs>
	<g clip-path="url(#clip17_941)">
		<path id="Shape" d="M6 19C4.34 19 3 17.65 3 16L3 8C3 6.34 4.34 5 6 5L18 5C18.1 5 18.2 5 18.3 5.01C19.81 5.16 21 6.44 21 8L21 16C21 17.65 19.65 19 18 19L6 19ZM6.01 8.89C6.01 8.46 6.37 8.12 6.8 8.12L8.73 8.12C9.16 8.12 9.52 8.46 9.52 8.89L9.52 10.85C9.52 11.28 9.16 11.62 8.73 11.62L6.8 11.62C6.37 11.62 6.01 11.28 6.01 10.85L6.01 8.89ZM6.66 14.83C6.3 14.83 6.01 15.12 6.01 15.48C6.01 15.83 6.3 16.13 6.66 16.13L8.36 16.13C8.72 16.13 9.01 15.83 9.01 15.48C9.01 15.12 8.72 14.83 8.36 14.83L6.66 14.83ZM15.01 15.48C15.01 15.12 15.3 14.83 15.66 14.83L17.35 14.83C17.71 14.83 18 15.12 18 15.48C18 15.83 17.71 16.13 17.35 16.13L15.66 16.13C15.3 16.13 15.01 15.83 15.01 15.48ZM11.15 14.83C10.79 14.83 10.5 15.12 10.5 15.48C10.5 15.83 10.79 16.13 11.15 16.13L12.84 16.13C13.2 16.13 13.49 15.83 13.49 15.48C13.49 15.12 13.2 14.83 12.84 14.83L11.15 14.83Z" fill="#74767B" fill-opacity="1.000000" fill-rule="evenodd"/>
	</g>
</svg>
