<svg width="24.000000" height="24.000000" viewBox="0 0 24 24" fill="none" xmlns="http://www.w3.org/2000/svg" xmlns:xlink="http://www.w3.org/1999/xlink">
	<desc>
			Created with Pixso.
	</desc>
	<defs>
		<clipPath id="clip17_1020">
			<rect id="Solid / Card T Solid" width="24.000000" height="24.000000" fill="white" fill-opacity="0"/>
		</clipPath>
	</defs>
	<g>
		<path id="Shape" d="M6 5C4.34 5 3 6.34 3 8L3 8.27L21 8.27L21 8C21 6.34 19.65 5 18 5L6 5ZM21 9.57L3 9.57L3 16C3 17.65 4.34 19 6 19L18 19C19.65 19 21 17.65 21 16L21 9.57ZM9.99 11.18C9.64 11.18 9.34 11.47 9.34 11.83C9.34 12.19 9.64 12.48 9.99 12.48L11.35 12.48L11.35 16.74C11.35 17.1 11.64 17.39 12 17.39C12.35 17.39 12.65 17.1 12.65 16.74L12.65 12.48L14 12.48C14.35 12.48 14.65 12.19 14.65 11.83C14.65 11.47 14.35 11.18 14 11.18L9.99 11.18Z" fill="#717681" fill-opacity="1.000000" fill-rule="evenodd"/>
	</g>
</svg>
