<svg width="24.000000" height="24.000000" viewBox="0 0 24 24" fill="none" xmlns="http://www.w3.org/2000/svg" xmlns:xlink="http://www.w3.org/1999/xlink">
	<desc>
			Created with Pixso.
	</desc>
	<defs>
		<clipPath id="clip17_1017">
			<rect id="Solid / Card TP Solid" width="24.000000" height="24.000000" fill="white" fill-opacity="0"/>
		</clipPath>
	</defs>
	<g clip-path="url(#clip17_1017)">
		<path id="Shape" d="M2.99 8C2.99 6.34 4.34 5 5.99 5L18 5C19.65 5 21 6.34 21 8L21 8.27L2.99 8.27L2.99 8ZM21 9.57L2.99 9.57L2.99 16C2.99 17.65 4.34 19 5.99 19L18 19C19.65 19 21 17.65 21 16L21 9.57ZM6.49 11.83C6.49 11.47 6.78 11.18 7.14 11.18L11.14 11.18C11.49 11.18 11.79 11.47 11.79 11.83C11.79 12.19 11.49 12.48 11.14 12.48L9.79 12.48L9.79 16.74C9.79 17.1 9.49 17.39 9.14 17.39C8.78 17.39 8.49 17.1 8.49 16.74L8.49 12.48L7.14 12.48C6.78 12.48 6.49 12.19 6.49 11.83ZM15.21 11.18L13.44 11.18C13.08 11.18 12.79 11.47 12.79 11.83L12.79 16.74C12.79 17.1 13.08 17.39 13.44 17.39C13.79 17.39 14.09 17.1 14.09 16.74L14.09 15.76L15.21 15.76C16.48 15.76 17.5 14.74 17.5 13.47C17.5 12.21 16.48 11.18 15.21 11.18ZM14.09 12.48L14.09 14.46L15.21 14.46C15.76 14.46 16.2 14.02 16.2 13.47C16.2 12.92 15.76 12.48 15.21 12.48L14.09 12.48Z" fill="#717681" fill-opacity="1.000000" fill-rule="evenodd"/>
	</g>
</svg>
