<svg width="24.000000" height="24.000000" viewBox="0 0 24 24" fill="none" xmlns="http://www.w3.org/2000/svg" xmlns:xlink="http://www.w3.org/1999/xlink">
	<desc>
			Created with Pixso.
	</desc>
	<defs>
		<clipPath id="clip8700_804">
			<rect id="Outline / Cashbox Outline" width="24.000000" height="24.000000" fill="white" fill-opacity="0"/>
		</clipPath>
	</defs>
	<g clip-path="url(#clip8700_804)">
		<path id="Shape" d="M11 4.36C11 3.62 11.6 3.01 12.35 3.01L17.64 3.01C18.39 3.01 18.99 3.62 18.99 4.36L18.99 5.64C18.99 6.39 18.39 6.99 17.64 6.99L15.65 6.99L15.65 8.71L16.18 8.71C17.14 8.71 17.95 9.41 18.1 10.36L18.75 14.5C19.49 14.78 20.01 15.49 20.01 16.33L20.01 18.03C20.01 19.1 19.14 19.98 18.06 19.98L5.93 19.98C4.85 19.98 3.98 19.1 3.98 18.03L3.98 16.33C3.98 15.49 4.5 14.78 5.24 14.5L5.89 10.36C6.04 9.41 6.85 8.71 7.81 8.71L14.35 8.71C14.35 8.71 14.35 8.71 14.35 8.71L14.35 6.99L12.35 6.99C11.6 6.99 11 6.39 11 5.64L11 4.36ZM12.35 4.31C12.32 4.31 12.3 4.33 12.3 4.36L12.3 5.64C12.3 5.67 12.32 5.69 12.35 5.69L17.64 5.69C17.67 5.69 17.69 5.67 17.69 5.64L17.69 4.36C17.69 4.33 17.67 4.31 17.64 4.31L12.35 4.31ZM5.93 15.68L18.06 15.68C18.42 15.68 18.71 15.97 18.71 16.33L18.71 18.03C18.71 18.39 18.42 18.68 18.06 18.68L5.93 18.68C5.57 18.68 5.28 18.39 5.28 18.03L5.28 16.33C5.28 15.97 5.57 15.68 5.93 15.68ZM16.82 10.56L17.41 14.38L6.58 14.38L7.17 10.56C7.22 10.24 7.49 10.01 7.81 10.01L16.18 10.01C16.5 10.01 16.77 10.24 16.82 10.56ZM8.84 11.29C8.48 11.29 8.19 11.58 8.19 11.94C8.19 12.3 8.48 12.59 8.84 12.59L11.96 12.59C12.32 12.59 12.61 12.3 12.61 11.94C12.61 11.58 12.32 11.29 11.96 11.29L8.84 11.29Z" fill="#717681" fill-opacity="1.000000" fill-rule="evenodd"/>
	</g>
</svg>
