<svg width="24.000000" height="24.000000" viewBox="0 0 24 24" fill="none" xmlns="http://www.w3.org/2000/svg" xmlns:xlink="http://www.w3.org/1999/xlink">
	<desc>
			Created with Pixso.
	</desc>
	<defs>
		<clipPath id="clip17_957">
			<rect id="Solid / Credit Card Solid" width="24.000000" height="24.000000" fill="white" fill-opacity="0"/>
		</clipPath>
	</defs>
	<g >
		<path id="Shape" d="M3.02 7.58C2.97 7.97 3.31 8.28 3.7 8.28L20.36 8.28C20.71 8.28 21.02 8 20.98 7.65C20.82 6.26 19.7 5.15 18.3 5.01C18.2 5 18.1 5 18 5L6 5C4.48 5 3.22 6.12 3.02 7.58ZM6 19C4.34 19 3 17.65 3 16L3 10.28C3 9.9 3.31 9.58 3.7 9.58L20.29 9.58C20.68 9.58 21 9.9 21 10.28L21 16C21 17.65 19.65 19 18 19L6 19ZM13.64 11.39C13.47 11.39 13.31 11.46 13.19 11.58C13.06 11.7 12.99 11.87 12.99 12.04L12.99 16.51C12.99 16.86 13.29 17.16 13.64 17.16C14 17.16 14.29 16.86 14.29 16.51L14.29 15.72L15.21 15.72C16.4 15.72 17.37 14.75 17.37 13.55C17.37 12.36 16.4 11.39 15.21 11.39L13.64 11.39ZM8.42 14.93L8.87 14.93C8.88 14.95 8.9 14.97 8.91 14.99L10.54 16.93C10.77 17.2 11.18 17.24 11.45 17.01C11.73 16.78 11.77 16.37 11.54 16.09L10.04 14.31L11.59 12.46C11.82 12.19 11.79 11.78 11.51 11.55C11.24 11.32 10.83 11.35 10.6 11.63L8.97 13.57C8.95 13.59 8.94 13.61 8.92 13.63L8.42 13.63L8.42 12.05C8.42 11.69 8.13 11.4 7.77 11.4C7.42 11.4 7.12 11.69 7.12 12.05L7.12 16.51C7.12 16.87 7.42 17.16 7.77 17.16C8.13 17.16 8.42 16.87 8.42 16.51L8.42 14.93ZM14.29 14.42L15.21 14.42C15.69 14.42 16.07 14.03 16.07 13.55C16.07 13.08 15.69 12.69 15.21 12.69L14.29 12.69L14.29 14.42Z" fill="#74767B" fill-opacity="1.000000" fill-rule="evenodd"/>
	</g>
</svg>
