<svg width="24.000000" height="24.000000" viewBox="0 0 24 24" fill="none" xmlns="http://www.w3.org/2000/svg" xmlns:xlink="http://www.w3.org/1999/xlink">
	<desc>
			Created with Pixso.
	</desc>
	<defs>
		<clipPath id="clip17_954">
			<rect id="Outline / Credit Card Outline" width="24.000000" height="24.000000" fill="white" fill-opacity="0"/>
		</clipPath>
	</defs>
	<g clip-path="url(#clip17_954)">
		<path id="Shape" d="M6 19C4.34 19 3 17.65 3 16L3 8C3 6.34 4.34 5 6 5L18 5C18.1 5 18.2 5 18.3 5.01C19.81 5.16 21 6.44 21 8L21 16C21 17.65 19.65 19 18 19L6 19ZM19.7 8C19.7 7.06 18.93 6.3 18 6.3L6 6.3C5.06 6.3 4.3 7.06 4.3 8L4.3 8.31C4.36 8.3 4.42 8.28 4.49 8.28L19.7 8.28L19.7 8ZM4.3 16L4.3 9.55C4.36 9.57 4.42 9.58 4.49 9.58L19.7 9.58L19.7 16C19.7 16.93 18.93 17.7 18 17.7L6 17.7C5.06 17.7 4.3 16.93 4.3 16ZM15.25 10.82C15.24 10.82 15.22 10.82 15.21 10.82L13.64 10.82C13.64 10.82 13.63 10.82 13.62 10.82L13.6 10.82C13.26 10.82 12.99 11.09 12.99 11.43L12.99 15.98C12.99 16.32 13.26 16.59 13.6 16.59C13.6 16.59 13.61 16.59 13.61 16.59C13.62 16.59 13.63 16.59 13.64 16.59C14 16.59 14.29 16.3 14.29 15.94L14.29 15.15L15.21 15.15C16.4 15.15 17.37 14.18 17.37 12.99L17.37 12.97L17.37 12.95C17.37 11.78 16.43 10.83 15.25 10.82ZM8.87 14.36L8.42 14.36L8.42 15.94C8.42 16.3 8.13 16.59 7.77 16.59C7.42 16.59 7.12 16.3 7.12 15.94L7.12 11.48C7.12 11.12 7.42 10.83 7.77 10.83C8.13 10.83 8.42 11.12 8.42 11.48L8.42 13.06L8.92 13.06C8.94 13.04 8.95 13.02 8.97 13L10.6 11.06C10.83 10.78 11.24 10.75 11.51 10.98C11.79 11.21 11.82 11.62 11.59 11.89L10.04 13.74L11.54 15.53C11.77 15.8 11.73 16.21 11.45 16.44C11.18 16.67 10.77 16.64 10.54 16.36L8.91 14.42C8.9 14.4 8.88 14.38 8.87 14.36ZM14.29 13.85L15.21 13.85C15.69 13.85 16.07 13.46 16.07 12.99C16.07 12.51 15.69 12.12 15.21 12.12L14.29 12.12L14.29 13.85Z" fill="#74767B" fill-opacity="1.000000" fill-rule="evenodd"/>
	</g>
</svg>
