<svg width="24.000000" height="24.000000" viewBox="0 0 24 24" fill="none" xmlns="http://www.w3.org/2000/svg" xmlns:xlink="http://www.w3.org/1999/xlink">
	<desc>
			Created with Pixso.
	</desc>
	<defs>
		<clipPath id="clip3874_1239">
			<rect id="Outline / Currency Outline" width="24.000000" height="24.000000" fill="white" fill-opacity="0"/>
		</clipPath>
	</defs>
	<rect id="Outline / Currency Outline" width="24.000000" height="24.000000" fill="#CCCCCC" fill-opacity="0"/>
	<g clip-path="url(#clip3874_1239)">
		<path id="Shape" d="M20.54 3.45C20.79 3.71 20.79 4.12 20.54 4.37L18.11 6.81C19.3 8.2 20.02 10.01 20.02 11.99C20.02 13.97 19.3 15.78 18.11 17.18L20.54 19.62C20.79 19.87 20.79 20.28 20.54 20.54C20.28 20.79 19.87 20.79 19.62 20.54L17.19 18.1C15.79 19.28 13.99 19.99 12.02 19.99C10.04 19.99 8.23 19.28 6.83 18.09L4.38 20.53C4.13 20.79 3.71 20.79 3.46 20.53C3.21 20.28 3.21 19.87 3.46 19.62L5.91 17.16C4.73 15.77 4.02 13.96 4.02 11.99C4.02 10.03 4.73 8.22 5.91 6.83L3.45 4.37C3.2 4.12 3.2 3.71 3.45 3.45C3.71 3.2 4.12 3.2 4.37 3.45L6.83 5.91C8.22 4.72 10.04 3.99 12.02 3.99C13.99 3.99 15.79 4.71 17.19 5.89L19.62 3.45C19.87 3.2 20.29 3.2 20.54 3.45ZM5.17 11.99C5.17 8.21 8.24 5.15 12.02 5.15C15.8 5.15 18.86 8.21 18.86 11.99C18.86 15.77 15.8 18.84 12.02 18.84C8.24 18.84 5.17 15.77 5.17 11.99Z" fill="#74767B" fill-opacity="1.000000" fill-rule="evenodd"/>
	</g>
</svg>
