<svg width="24.000000" height="24.000000" viewBox="0 0 24 24" fill="none" xmlns="http://www.w3.org/2000/svg" xmlns:xlink="http://www.w3.org/1999/xlink">
	<desc>
			Created with Pixso.
	</desc>
	<defs>
		<clipPath id="clip17_999">
			<rect id="Solid / CVV Solid" width="24.000000" height="24.000000" fill="white" fill-opacity="0"/>
		</clipPath>
	</defs>
	<g >
		<path id="Shape" d="M3.02 7.58C2.97 7.97 3.31 8.28 3.69 8.28L20.36 8.28C20.71 8.28 21.02 8 20.98 7.65C20.82 6.26 19.7 5.15 18.3 5.01C18.2 5 18.1 5 17.99 5L5.99 5C4.48 5 3.22 6.12 3.02 7.58ZM3 10.27C3 9.88 3.31 9.57 3.7 9.57L20.29 9.57C20.68 9.57 21 9.88 21 10.27L21 16C21 17.65 19.65 19 18 19L6 19C4.34 19 3 17.65 3 16L3 10.27ZM10.92 12.03C10.51 12.03 10.21 12.39 10.27 12.79L10.66 15.25C10.77 15.9 11.33 16.38 11.99 16.38C12.65 16.38 13.21 15.91 13.31 15.26L13.72 12.79C13.78 12.39 13.47 12.03 13.07 12.03C12.75 12.03 12.48 12.26 12.43 12.57L12.09 14.52C12.07 14.63 11.91 14.63 11.89 14.52L11.56 12.57C11.5 12.26 11.23 12.03 10.92 12.03ZM14.86 12.79C14.8 12.39 15.11 12.03 15.51 12.03C15.83 12.03 16.1 12.26 16.15 12.57L16.49 14.52C16.5 14.63 16.66 14.63 16.68 14.52L17.02 12.57C17.08 12.26 17.35 12.03 17.67 12.03C18.07 12.03 18.37 12.39 18.31 12.79L17.91 15.26C17.8 15.91 17.24 16.38 16.58 16.38C15.92 16.38 15.36 15.9 15.26 15.25L14.86 12.79ZM7.61 13.15C7.39 13.15 6.97 13.44 6.97 14.12C6.97 14.79 7.39 15.08 7.61 15.08C7.73 15.08 7.88 15.02 8.01 14.86C8.24 14.58 8.65 14.54 8.92 14.77C9.2 14.99 9.24 15.4 9.02 15.68C8.68 16.09 8.19 16.38 7.61 16.38C6.41 16.38 5.67 15.22 5.67 14.12C5.67 13.01 6.41 11.85 7.61 11.85C8.15 11.85 8.61 12.1 8.94 12.46C9.18 12.73 9.16 13.14 8.9 13.38C8.63 13.62 8.22 13.6 7.98 13.34C7.85 13.2 7.72 13.15 7.61 13.15Z" fill="#74767B" fill-opacity="1.000000" fill-rule="evenodd"/>
	</g>
</svg>
