<svg width="24.000000" height="24.000000" viewBox="0 0 24 24" fill="none" xmlns="http://www.w3.org/2000/svg" xmlns:xlink="http://www.w3.org/1999/xlink">
	<desc>
			Created with Pixso.
	</desc>
	<defs>
		<clipPath id="clip17_975">
			<rect id="Outline / Debit Card Outline" width="24.000000" height="24.000000" fill="white" fill-opacity="0"/>
		</clipPath>
	</defs>
	<g>
		<path id="Shape" d="M3 16C3 17.65 4.34 19 6 19L18 19C19.65 19 21 17.65 21 16L21 8C21 6.44 19.81 5.16 18.3 5.01C18.2 5 18.1 5 18 5L6 5C4.34 5 3 6.34 3 8L3 16ZM18 6.3C18.93 6.3 19.7 7.06 19.7 8L19.7 8.28L4.49 8.28C4.42 8.28 4.36 8.3 4.3 8.31L4.3 8C4.3 7.06 5.06 6.3 6 6.3L18 6.3ZM4.3 9.55L4.3 16C4.3 16.93 5.06 17.7 6 17.7L18 17.7C18.93 17.7 19.7 16.93 19.7 16L19.7 9.58L4.49 9.58C4.42 9.58 4.36 9.57 4.3 9.55ZM13.34 16.4C13.46 16.52 13.63 16.59 13.8 16.59L15.69 16.59C16.7 16.59 17.53 15.76 17.53 14.75C17.53 13.73 16.7 12.91 15.69 12.91L14.45 12.91L14.45 12.12L16.28 12.12C16.64 12.12 16.93 11.83 16.93 11.47C16.93 11.11 16.64 10.82 16.28 10.82L13.8 10.82C13.44 10.82 13.15 11.11 13.15 11.47L13.15 15.94C13.15 16.11 13.22 16.27 13.34 16.4ZM8.26 10.83C7.9 10.83 7.61 11.12 7.61 11.48L7.61 12.69C7.61 13.36 7.46 14.01 7.16 14.61L6.84 15.27C6.84 15.27 6.83 15.28 6.83 15.29L6.54 15.29C6.18 15.29 5.89 15.58 5.89 15.94C5.89 16.3 6.18 16.59 6.54 16.59L11.82 16.59C12.17 16.59 12.47 16.3 12.47 15.94C12.47 15.58 12.17 15.29 11.82 15.29L11.42 15.29L11.42 11.48C11.42 11.12 11.13 10.83 10.77 10.83L8.26 10.83ZM10.12 15.29L10.12 12.13L8.91 12.13L8.91 12.69C8.91 13.56 8.71 14.41 8.33 15.18L8.28 15.29L10.12 15.29ZM14.45 14.21L15.69 14.21C15.99 14.21 16.23 14.45 16.23 14.75C16.23 15.05 15.99 15.29 15.69 15.29L14.45 15.29L14.45 14.21Z" fill="#717681" fill-opacity="1.000000" fill-rule="evenodd"/>
	</g>
</svg>
