<svg viewBox="0 0 24 24" xmlns="http://www.w3.org/2000/svg" xmlns:xlink="http://www.w3.org/1999/xlink" width="24.000000" height="24.000000" fill="none">
	<rect id="Solid/Digital RUB Solid" width="24.000000" height="24.000000" x="0.000000" y="0.000000" />
	<path id="Shape" d="M21 12C21 16.9706 16.9706 21 12 21C10.9001 21 9.84636 20.8027 8.87211 20.4416L8.87211 14.781L12.4596 14.781C12.8861 14.781 13.2318 14.4321 13.2318 14.0017C13.2318 13.5713 12.8861 13.2224 12.4596 13.2224L8.87211 13.2224L8.87211 11.9656L12.0533 11.9656C14.233 11.9656 16 10.1824 16 7.9828C16 5.78316 14.233 4 12.0533 4L8.09992 4L7.8728 4C9.10904 3.36093 10.5124 3 12 3C16.9706 3 21 7.02944 21 12ZM7.32774 4.30627C5.16562 5.62209 3.60192 7.82366 3.14053 10.4071L7.32774 10.4071L7.32774 4.30627ZM3.00006 11.9656C3.00002 11.9771 3 11.9885 3 12C3 12.4146 3.02804 12.8227 3.08232 13.2224L7.32774 13.2224L7.32774 11.9656L3.00006 11.9656ZM3.43787 14.781C4.10832 16.8466 5.50549 18.5847 7.32774 19.6937L7.32774 14.781L3.43787 14.781ZM12.0533 10.4071L8.87211 10.4071L8.87211 5.55852L12.0533 5.55852C13.3801 5.55852 14.4556 6.6439 14.4556 7.9828C14.4556 9.3217 13.3801 10.4071 12.0533 10.4071Z" fill="rgb(116,118,123)" fill-rule="evenodd" />
</svg>
