<svg viewBox="0 0 24 24" xmlns="http://www.w3.org/2000/svg" xmlns:xlink="http://www.w3.org/1999/xlink" width="24.000000" height="24.000000" fill="none">
	<rect id="Outline/Digital RUB Outline" width="24.000000" height="24.000000" x="0.000000" y="0.000000" />
	<path id="Shape" d="M12 21C16.9707 21 21 16.9706 21 12C21 7.02943 16.9707 3 12 3C7.0293 3 3 7.02943 3 12C3 16.9706 7.0293 21 12 21ZM12 19.7C16.2524 19.7 19.7002 16.2526 19.7002 12C19.7002 7.74741 16.2524 4.3 12 4.3C10.7101 4.3 9.49425 4.6172 8.4262 5.17784L12.1777 5.17784C14.0122 5.17784 15.5 6.66522 15.5 8.5C15.5 10.3348 14.0122 11.8222 12.1777 11.8222L9.5 11.8222L9.5 12.8705L12.5195 12.8705C12.8784 12.8705 13.1694 13.1615 13.1694 13.5205C13.1694 13.8795 12.8784 14.1705 12.5195 14.1705L9.5 14.1705L9.5 19.2851C10.2839 19.554 11.1249 19.7 12 19.7ZM8.19971 18.6984C6.48224 17.7219 5.17701 16.104 4.60999 14.1705L8.19971 14.1705L8.19971 18.6984ZM4.34891 12.8743C4.37223 12.8718 4.39592 12.8705 4.41992 12.8705L8.19971 12.8705L8.19971 11.8222L4.36523 11.8222C4.34386 11.8222 4.32273 11.8211 4.30189 11.8191C4.3005 11.8792 4.2998 11.9395 4.2998 12C4.2998 12.2956 4.31647 12.5874 4.34891 12.8743ZM4.44149 10.5222L8.19971 10.5222L8.19971 5.30163C6.28084 6.39261 4.87655 8.28429 4.44149 10.5222ZM9.5 10.5222L12.1777 10.5222C13.2944 10.5222 14.1997 9.61681 14.1997 8.5C14.1997 7.38319 13.2944 6.47784 12.1777 6.47784L9.5 6.47784L9.5 10.5222Z" fill="rgb(116,118,123)" fill-rule="evenodd" />
</svg>
