<svg width="24" height="24" viewBox="0 0 24 24" fill="none" xmlns="http://www.w3.org/2000/svg">
<path d="M14.0094 5.64059C14.0094 7.10252 11.547 8.28765 8.50945 8.28765C5.47188 8.28765 3.00945 7.10252 3.00945 5.64059C3.00945 4.17866 5.47188 2.99353 8.50945 2.99353C11.547 2.99353 14.0094 4.17866 14.0094 5.64059Z" fill="#717681"/>
<path d="M20.9502 12.3238C20.9502 13.7858 18.4878 14.9709 15.4502 14.9709C12.4127 14.9709 9.95023 13.7858 9.95023 12.3238C9.95023 10.8619 12.4127 9.67679 15.4502 9.67679C18.4878 9.67679 20.9502 10.8619 20.9502 12.3238Z" fill="#717681"/>
<path d="M10.0972 15.2674C10.3231 14.9884 10.7324 14.9453 11.0114 15.1712C11.2954 15.4012 12.7788 16.4644 15.4457 16.4644C18.1296 16.4644 19.5491 15.4773 19.8773 15.1885C20.1468 14.9513 20.5575 14.9775 20.7947 15.247C21.0318 15.5165 21.0056 15.9272 20.7361 16.1644C20.1821 16.6519 18.4609 17.7644 15.4457 17.7644C12.4136 17.7644 10.6504 16.5516 10.1934 16.1816C9.91439 15.9558 9.87131 15.5465 10.0972 15.2674Z" fill="#717681"/>
<path d="M11.0114 17.8207C10.7324 17.5948 10.3231 17.6379 10.0972 17.9169C9.87131 18.1959 9.91439 18.6052 10.1934 18.8311C10.642 19.1943 12.4586 20.4752 15.4992 20.4752C18.534 20.4752 20.1985 19.287 20.7361 18.8139C21.0056 18.5767 21.0318 18.166 20.7947 17.8965C20.5575 17.627 20.1468 17.6008 19.8773 17.8379C19.5327 18.1412 18.1634 19.1752 15.4992 19.1752C12.8406 19.1752 11.3038 18.0574 11.0114 17.8207Z" fill="#717681"/>
<path d="M4.07059 8.48799C3.79157 8.26211 3.38228 8.3052 3.1564 8.58421C2.93053 8.86323 2.97361 9.27253 3.25263 9.4984C3.70962 9.86835 5.47279 11.0811 8.50494 11.0811C8.86393 11.0811 9.15494 10.7901 9.15494 10.4311C9.15494 10.0722 8.86393 9.78115 8.50494 9.78115C5.83801 9.78115 4.35465 8.71794 4.07059 8.48799Z" fill="#717681"/>
<path d="M3.1564 11.2336C3.38228 10.9546 3.79157 10.9115 4.07059 11.1374C4.36305 11.3742 5.89986 12.4919 8.55837 12.4919C8.91736 12.4919 9.20837 12.7829 9.20837 13.1419C9.20837 13.5009 8.91736 13.7919 8.55837 13.7919C5.51781 13.7919 3.70122 12.511 3.25263 12.1478C2.97361 11.9219 2.93053 11.5126 3.1564 11.2336Z" fill="#717681"/>
<path d="M4.07059 13.8781C3.79157 13.6522 3.38228 13.6953 3.1564 13.9743C2.93053 14.2533 2.97361 14.6626 3.25263 14.8885C3.70122 15.2516 5.51781 16.5325 8.55837 16.5325C8.91736 16.5325 9.20837 16.2415 9.20837 15.8825C9.20837 15.5235 8.91736 15.2325 8.55837 15.2325C5.89986 15.2325 4.36305 14.1148 4.07059 13.8781Z" fill="#717681"/>
</svg>
