<svg viewBox="0 0 24 24" xmlns="http://www.w3.org/2000/svg" xmlns:xlink="http://www.w3.org/1999/xlink" width="24.000000" height="24.000000" fill="none">
	<rect id="Outline/GBP Outline" width="24.000000" height="24.000000" x="0.000000" y="0.000000" />
	<path id="Shape" d="M12 3C7.02944 3 3 7.02944 3 12C3 16.9706 7.02944 21 12 21C16.9706 21 21 16.9706 21 12C21 7.02944 16.9706 3 12 3ZM12 4.3C7.74741 4.3 4.3 7.74741 4.3 12C4.3 16.2526 7.74741 19.7 12 19.7C16.2526 19.7 19.7 16.2526 19.7 12C19.7 7.74741 16.2526 4.3 12 4.3ZM12.349 6.99735C13.0622 6.94892 13.8448 7.15078 14.3486 7.6366C14.607 7.88578 14.6145 8.29727 14.3653 8.55569C14.1161 8.8141 13.7046 8.82158 13.4462 8.5724C13.2774 8.40968 12.895 8.26327 12.437 8.29437C11.9965 8.32428 11.6219 8.50928 11.4131 8.8274C11.1635 9.20747 11.0909 9.60218 11.0968 10.1604C11.0995 10.4142 11.1178 10.6835 11.1392 10.9976L11.1481 11.1285C11.1564 11.2517 11.1647 11.3801 11.1721 11.5135L12.7795 11.5135C13.1385 11.5135 13.4295 11.8046 13.4295 12.1636C13.4295 12.5225 13.1385 12.8135 12.7795 12.8135L11.1784 12.8135C11.1059 13.6929 10.8316 14.4546 10.4713 15.0526C10.4419 15.1015 10.4117 15.1496 10.3807 15.1969L14.4274 15.1968C14.7864 15.1968 15.0774 15.4878 15.0774 15.8468C15.0774 16.2058 14.7864 16.4968 14.4274 16.4968L8.71476 16.4969C8.39669 16.4969 8.12534 16.2667 8.07346 15.9529C8.02158 15.6391 8.20442 15.3338 8.50558 15.2314C8.6857 15.1702 9.03893 14.911 9.35779 14.3818C9.60454 13.9722 9.80487 13.4402 9.87261 12.8135L8.75431 12.8135C8.39532 12.8135 8.10431 12.5225 8.10431 12.1635C8.10431 11.8046 8.39532 11.5135 8.75431 11.5135L9.86996 11.5135C9.86406 11.413 9.85761 11.3138 9.85102 11.2157L9.84227 11.087C9.82118 10.7782 9.8 10.4682 9.79689 10.1742C9.78958 9.48571 9.87818 8.79649 10.3264 8.11388C10.8153 7.36931 11.6183 7.04697 12.349 6.99735Z" fill="rgb(116,118,123)" fill-rule="evenodd" />
</svg>
