<svg width="24.000000" height="24.000000" viewBox="0 0 24 24" fill="none" xmlns="http://www.w3.org/2000/svg" xmlns:xlink="http://www.w3.org/1999/xlink">
	<desc>
			Created with Pixso.
	</desc>
	<defs>
		<clipPath id="clip17_990">
			<rect id="Solid / GBP Solid" width="24.000000" height="24.000000" fill="white" fill-opacity="0"/>
		</clipPath>
	</defs>
	<g >
		<path id="Shape" d="M12 3C7.02 3 3 7.02 3 12C3 16.97 7.02 21 12 21C16.97 21 21 16.97 21 12C21 7.02 16.97 3 12 3ZM14.34 7.63C13.84 7.15 13.06 6.94 12.34 6.99C11.61 7.04 10.81 7.36 10.32 8.11C9.87 8.79 9.78 9.48 9.79 10.17C9.8 10.46 9.82 10.77 9.84 11.08L9.85 11.21C9.85 11.31 9.86 11.41 9.86 11.51L8.75 11.51C8.39 11.51 8.1 11.8 8.1 12.16C8.1 12.52 8.39 12.81 8.75 12.81L9.87 12.81C9.8 13.44 9.6 13.97 9.35 14.38C9.03 14.91 8.68 15.17 8.5 15.23C8.2 15.33 8.02 15.63 8.07 15.95C8.12 16.26 8.39 16.49 8.71 16.49L14.42 16.49C14.78 16.49 15.07 16.2 15.07 15.84C15.07 15.48 14.78 15.19 14.42 15.19L10.38 15.19C10.41 15.14 10.44 15.1 10.47 15.05C10.83 14.45 11.1 13.69 11.17 12.81L12.77 12.81C13.13 12.81 13.42 12.52 13.42 12.16C13.42 11.8 13.13 11.51 12.77 11.51L11.17 11.51C11.16 11.38 11.15 11.25 11.14 11.12L11.13 10.99C11.11 10.68 11.09 10.41 11.09 10.16C11.09 9.6 11.16 9.2 11.41 8.82C11.62 8.5 11.99 8.32 12.43 8.29C12.89 8.26 13.27 8.4 13.44 8.57C13.7 8.82 14.11 8.81 14.36 8.55C14.61 8.29 14.6 7.88 14.34 7.63Z" fill="#74767B" fill-opacity="1.000000" fill-rule="evenodd"/>
	</g>
</svg>
