<svg width="24.000000" height="24.000000" viewBox="0 0 24 24" fill="none" xmlns="http://www.w3.org/2000/svg" xmlns:xlink="http://www.w3.org/1999/xlink">
	<desc>
			Created with Pixso.
	</desc>
	<defs>
		<clipPath id="clip17_919">
			<rect id="Solid / Get Cash Solid" width="24.000000" height="24.000000" fill="white" fill-opacity="0"/>
		</clipPath>
	</defs>
	<g >
		<path id="Shape" d="M9 8C8.86 8.13 8.79 8.29 8.79 8.48C8.79 8.63 8.84 8.79 8.96 8.92L11.53 11.63C11.81 11.94 12.29 11.94 12.57 11.63L15.04 8.92C15.28 8.64 15.26 8.23 15 8C14.73 7.76 14.32 7.76 14.08 8.04L12.7 9.59L12.7 4.7C12.7 4.31 13.01 4 13.4 4L18 4C19.65 4 21 5.34 21 7L21 8.29C21 8.68 20.68 9 20.29 9L19 9C17.34 9 16 10.34 16 12C16 13.65 17.34 15 19 15L20.29 15C20.68 15 21 15.31 21 15.7L21 17C21 18.65 19.65 20 18 20L6 20C4.34 20 3 18.65 3 17L3 7C3 5.34 4.34 4 6 4L10.7 4C11.09 4 11.4 4.31 11.4 4.7L11.4 9.59L9.92 8.04C9.68 7.78 9.27 7.76 9 8ZM17.32 11.98C17.32 11.04 18.08 10.27 19.03 10.27L21.3 10.27C21.68 10.27 22 10.58 22 10.97L22 13C22 13.39 21.68 13.7 21.3 13.7L19.03 13.7C18.08 13.7 17.32 12.93 17.32 11.98Z" fill="#74767B" fill-opacity="1.000000" fill-rule="evenodd"/>
	</g>
</svg>
