<svg viewBox="0 0 24 24" xmlns="http://www.w3.org/2000/svg" xmlns:xlink="http://www.w3.org/1999/xlink" width="24.000000" height="24.000000" fill="none">
	<rect id="Solid/Get Cash Solid" width="24.000000" height="24.000000" x="0.000000" y="0.000000" />
	<path id="Shape" d="M8.79091 8.48C8.79091 8.3 8.86091 8.13 9.00091 8C9.27091 7.76 9.68091 7.78 9.92091 8.04L11.4064 9.59762L11.4064 4.7C11.4064 4.3134 11.093 4 10.7064 4L6 4C4.34315 4 3 5.34315 3 7L3 17C3 18.6569 4.34315 20 6 20L18 20C19.6569 20 21 18.6569 21 17L21 15.7C21 15.3134 20.6866 15 20.3 15L19 15C17.3431 15 16 13.6569 16 12C16 10.3431 17.3431 9 19 9L20.3 9C20.6866 9 21 8.6866 21 8.3L21 7C21 5.34315 19.6569 4 18 4L13.4064 4C13.0198 4 12.7064 4.3134 12.7064 4.7L12.7064 9.59056L14.0809 8.04C14.3209 7.77 14.7309 7.76 15.0009 8C15.2609 8.24 15.2809 8.65 15.0409 8.92L12.5764 11.63C12.2964 11.94 11.8164 11.94 11.5364 11.63L8.96091 8.92C8.84091 8.79 8.79091 8.64 8.79091 8.48ZM17.3216 11.9883C17.3216 11.0409 18.0897 10.2729 19.0371 10.2729L21.3 10.2729C21.6866 10.2729 22 10.5863 22 10.9729L22 13.0038C22 13.3904 21.6866 13.7038 21.3 13.7038L19.0371 13.7038C18.0897 13.7038 17.3216 12.9358 17.3216 11.9883Z" fill="rgb(116,118,123)" fill-rule="evenodd" />
</svg>
