<svg width="24.000000" height="24.000000" viewBox="0 0 24 24" fill="none" xmlns="http://www.w3.org/2000/svg" xmlns:xlink="http://www.w3.org/1999/xlink">
	<desc>
			Created with Pixso.
	</desc>
	<defs>
		<clipPath id="clip17_916">
			<rect id="Outline / Get Cash Outline" width="24.000000" height="24.000000" fill="white" fill-opacity="0"/>
		</clipPath>
	</defs>
	<g clip-path="url(#clip17_916)">
		<path id="Shape" d="M21 7C21 5.34 19.65 4 18 4L6 4C4.34 4 3 5.34 3 7L3 17C3 18.65 4.34 20 6 20L18 20C19.65 20 21 18.65 21 17L21 14.96C21.57 14.82 22 14.31 22 13.7L22 10.3C22 9.68 21.57 9.17 21 9.03L21 7ZM4.3 7C4.3 6.06 5.06 5.29 6 5.29L11.4 5.29L11.4 9.36L9.92 7.81C9.68 7.55 9.27 7.53 9 7.77C8.86 7.9 8.79 8.07 8.79 8.25C8.79 8.41 8.84 8.56 8.96 8.69L11.53 11.4C11.81 11.71 12.29 11.71 12.57 11.4L15.04 8.69C15.28 8.42 15.26 8.01 15 7.77C14.73 7.53 14.32 7.54 14.08 7.81L12.7 9.36L12.7 5.29L18 5.29C18.93 5.29 19.7 6.06 19.7 7L19.7 9L19 9C17.34 9 16 10.34 16 12C16 13.65 17.34 15 19 15L19.7 15L19.7 17C19.7 17.93 18.93 18.7 18 18.7L6 18.7C5.06 18.7 4.3 17.93 4.3 17L4.3 7ZM20.7 13.7L19 13.7C18.06 13.7 17.29 12.93 17.29 12C17.29 11.06 18.06 10.3 19 10.3L20.7 10.3L20.7 13.7Z" fill="#74767B" fill-opacity="1.000000" fill-rule="evenodd"/>
	</g>
</svg>
