<svg width="24.000000" height="24.000000" viewBox="0 0 24 24" fill="none" xmlns="http://www.w3.org/2000/svg" xmlns:xlink="http://www.w3.org/1999/xlink">
	<desc>
			Created with Pixso.
	</desc>
	<defs>
		<clipPath id="clip8724_857">
			<rect id="Solid / Gold Solid" width="24.000000" height="24.000000" fill="white" fill-opacity="0"/>
		</clipPath>
	</defs>
	<g clip-path="url(#clip8724_857)">
		<path id="Shape" d="M2 8C2 6.34 3.34 5 5 5L18.99 5C20.65 5 21.99 6.34 21.99 8L22 15.99C22 17.65 20.65 18.99 19 18.99L5 18.99C3.34 18.99 2 17.65 2 15.99L2 8ZM8.49 7.98C8.75 7.98 8.98 8.14 9.09 8.38L11.94 15.09C12.08 15.42 11.93 15.8 11.59 15.94C11.26 16.08 10.88 15.93 10.74 15.6L10.06 14L6.92 14L6.25 15.6C6.11 15.93 5.72 16.08 5.39 15.94C5.06 15.81 4.91 15.42 5.05 15.09L7.89 8.38C7.99 8.14 8.23 7.98 8.49 7.98ZM14.64 10.64C14.64 10.28 14.35 9.99 13.99 9.99C13.64 9.99 13.34 10.28 13.34 10.64L13.34 13.17C13.34 14.74 14.61 16 16.17 16C17.73 16 19 14.74 19 13.17L19 10.64C19 10.28 18.71 9.99 18.35 9.99C17.99 9.99 17.7 10.28 17.7 10.64L17.7 13.17C17.7 14.02 17.02 14.7 16.17 14.7C15.33 14.7 14.64 14.02 14.64 13.17L14.64 10.64ZM8.49 10.3L9.51 12.7L7.47 12.7L8.49 10.3Z" fill="#74767B" fill-opacity="1.000000" fill-rule="evenodd"/>
	</g>
</svg>
