<svg width="24.000000" height="24.000000" viewBox="0 0 24 24" fill="none" xmlns="http://www.w3.org/2000/svg" xmlns:xlink="http://www.w3.org/1999/xlink">
	<desc>
			Created with Pixso.
	</desc>
	<defs>
		<clipPath id="clip8724_858">
			<rect id="Outline / Gold Outline" width="24.000000" height="24.000000" fill="white" fill-opacity="0"/>
		</clipPath>
	</defs>
	<g clip-path="url(#clip8724_858)">
		<path id="Shape" d="M5 6.4L19 6.4C19.93 6.4 20.7 7.16 20.7 8.1L20.7 15.89C20.7 16.83 19.93 17.59 19 17.59L5 17.59C4.06 17.59 3.3 16.83 3.3 15.89L3.3 8.1C3.3 7.16 4.06 6.4 5 6.4ZM2 8.1C2 6.44 3.34 5.1 5 5.1L19 5.1C20.65 5.1 22 6.44 22 8.1L22 15.89C22 17.55 20.65 18.89 19 18.89L5 18.89C3.34 18.89 2 17.55 2 15.89L2 8.1ZM9.09 8.38C8.99 8.14 8.75 7.99 8.49 7.99C8.23 7.99 8 8.14 7.89 8.38L5.05 15.09C4.91 15.43 5.07 15.81 5.4 15.95C5.73 16.09 6.11 15.93 6.25 15.6L6.93 14L10.07 14L10.75 15.6C10.89 15.93 11.27 16.09 11.6 15.95C11.93 15.81 12.09 15.42 11.94 15.09L9.09 8.38ZM9.51 12.7L8.49 10.3L7.48 12.7L9.51 12.7ZM14 9.99C14.36 9.99 14.65 10.28 14.65 10.64L14.65 13.18C14.65 14.02 15.33 14.7 16.17 14.7C17.01 14.7 17.69 14.02 17.69 13.18L17.69 10.64C17.69 10.28 17.98 9.99 18.34 9.99C18.7 9.99 18.99 10.28 18.99 10.64L18.99 13.18C18.99 14.74 17.72 16 16.17 16C14.61 16 13.35 14.74 13.35 13.18L13.35 10.64C13.35 10.28 13.64 9.99 14 9.99Z" fill="#717681" fill-opacity="1.000000" fill-rule="evenodd"/>
	</g>
</svg>
