<svg width="24.000000" height="24.000000" viewBox="0 0 24 24" fill="none" xmlns="http://www.w3.org/2000/svg" xmlns:xlink="http://www.w3.org/1999/xlink">
	<desc>
			Created with Pixso.
	</desc>
	<defs>
		<clipPath id="clip17_1050">
			<rect id="Outline / IIS Outline" width="24.000000" height="24.000000" fill="white" fill-opacity="0"/>
		</clipPath>
	</defs>
	<g clip-path="url(#clip17_1050)">
		<path id="Shape" d="M13.95 19.99C13.59 19.99 13.3 19.7 13.3 19.34L13.3 4.64C13.3 4.29 13.59 3.99 13.95 3.99C14.3 3.99 14.6 4.29 14.6 4.64L14.6 19.34C14.6 19.7 14.3 19.99 13.95 19.99ZM17.85 17.02C17.49 17.02 17.2 16.73 17.2 16.37L17.2 7.62C17.2 7.26 17.49 6.97 17.85 6.97C18.2 6.97 18.5 7.26 18.5 7.62L18.5 16.37C18.5 16.73 18.2 17.02 17.85 17.02ZM10.05 17.02C9.69 17.02 9.4 16.73 9.4 16.37L9.4 7.62C9.4 7.26 9.69 6.97 10.05 6.97C10.4 6.97 10.7 7.26 10.7 7.62L10.7 16.37C10.7 16.73 10.4 17.02 10.05 17.02ZM6.15 19.99C5.79 19.99 5.5 19.7 5.5 19.34L5.5 12.49C5.5 12.14 5.79 11.84 6.15 11.84C6.5 11.84 6.8 12.14 6.8 12.49L6.8 19.34C6.8 19.7 6.5 19.99 6.15 19.99Z" fill="#717681" fill-opacity="1.000000" fill-rule="evenodd"/>
	</g>
</svg>
