<svg width="24.000000" height="24.000000" viewBox="0 0 24 24" fill="none" xmlns="http://www.w3.org/2000/svg" xmlns:xlink="http://www.w3.org/1999/xlink">
	<desc>
			Created with Pixso.
	</desc>
	<defs>
		<clipPath id="clip17_894">
			<rect id="Solid / JPY Solid" width="24.000000" height="24.000000" fill="white" fill-opacity="0"/>
		</clipPath>
	</defs>
	<g >
		<path id="Shape" d="M3 12C3 7.02 7.02 3 12 3C16.97 3 21 7.02 21 12C21 16.97 16.97 21 12 21C7.02 21 3 16.97 3 12ZM8.08 7.59C8.36 7.37 8.77 7.41 9 7.68L12 11.32L14.99 7.68C15.22 7.41 15.63 7.37 15.91 7.59C16.19 7.82 16.22 8.23 16 8.51L12.84 12.35L14.34 12.35C14.7 12.35 14.99 12.64 14.99 13C14.99 13.35 14.7 13.65 14.34 13.65L12.65 13.65L12.65 14.67L14.34 14.67C14.7 14.67 14.99 14.96 14.99 15.32C14.99 15.68 14.7 15.97 14.34 15.97L12.65 15.97L12.65 16.88C12.65 17.24 12.35 17.53 12 17.53C11.64 17.53 11.35 17.24 11.35 16.88L11.35 15.97L9.65 15.97C9.29 15.97 9 15.68 9 15.32C9 14.96 9.29 14.67 9.65 14.67L11.35 14.67L11.35 13.65L9.65 13.65C9.29 13.65 9 13.35 9 13C9 12.64 9.29 12.35 9.65 12.35L11.15 12.35L7.99 8.51C7.77 8.23 7.8 7.82 8.08 7.59Z" fill="#74767B" fill-opacity="1.000000" fill-rule="evenodd"/>
	</g>
</svg>
