<svg viewBox="0 0 24 24" xmlns="http://www.w3.org/2000/svg" xmlns:xlink="http://www.w3.org/1999/xlink" width="24.000000" height="24.000000" fill="none">
	<rect id="Outline/JPY Outline" width="24.000000" height="24.000000" x="0.000000" y="0.000000" />
	<path id="Shape" d="M12 3C7.02944 3 3 7.02944 3 12C3 16.9706 7.02944 21 12 21C16.9706 21 21 16.9706 21 12C21 7.02944 16.9706 3 12 3ZM12 4.3C7.74741 4.3 4.3 7.74741 4.3 12C4.3 16.2526 7.74741 19.7 12 19.7C16.2526 19.7 19.7 16.2526 19.7 12C19.7 7.74741 16.2526 4.3 12 4.3ZM8.08663 7.59968C8.36368 7.37139 8.77333 7.41091 9.00163 7.68795L12 11.3266L14.9984 7.68795C15.2267 7.41091 15.6363 7.37139 15.9134 7.59968C16.1904 7.82797 16.2299 8.23763 16.0016 8.51467L12.8412 12.35L14.3489 12.35C14.7079 12.35 14.9989 12.641 14.9989 13C14.9989 13.359 14.7079 13.65 14.3489 13.65L12.65 13.65L12.65 14.6771L14.3489 14.6771C14.7079 14.6771 14.9989 14.9682 14.9989 15.3271C14.9989 15.6861 14.7079 15.9771 14.3489 15.9771L12.65 15.9771L12.65 16.8813C12.65 17.2403 12.359 17.5313 12 17.5313C11.641 17.5313 11.35 17.2403 11.35 16.8813L11.35 15.9771L9.65111 15.9771C9.29212 15.9771 9.00111 15.6861 9.00111 15.3271C9.00111 14.9682 9.29212 14.6771 9.65111 14.6771L11.35 14.6771L11.35 13.65L9.65111 13.65C9.29212 13.65 9.00111 13.359 9.00111 13C9.00111 12.641 9.29212 12.35 9.65111 12.35L11.1588 12.35L7.99836 8.51467C7.77007 8.23763 7.80959 7.82797 8.08663 7.59968Z" fill="rgb(116,118,123)" fill-rule="evenodd" />
</svg>
