<svg width="24.000000" height="24.000000" viewBox="0 0 24 24" fill="none" xmlns="http://www.w3.org/2000/svg" xmlns:xlink="http://www.w3.org/1999/xlink">
	<desc>
			Created with Pixso.
	</desc>
	<defs>
		<clipPath id="clip17_928">
			<rect id="Outline / Money Outline" width="24.000000" height="24.000000" fill="white" fill-opacity="0"/>
		</clipPath>
	</defs>
	<g clip-path="url(#clip17_928)">
		<path id="Shape" d="M4.49 6.43C3.7 6.38 3 6.98 3 7.77L3 16.92C3 17.55 3.44 18.09 4.06 18.17C7.61 18.66 9.67 17.86 11.77 17.04C13.81 16.24 15.9 15.42 19.46 15.78C20.26 15.86 21 15.26 21 14.45L21 5.1C21 4.46 20.53 3.91 19.9 3.84C15.99 3.38 13.81 4.24 11.64 5.1C9.67 5.87 7.71 6.64 4.49 6.43ZM12.1 6.31C10.11 7.1 7.92 7.96 4.4 7.73C4.36 7.72 4.33 7.74 4.31 7.76C4.3 7.76 4.3 7.76 4.3 7.77L4.3 7.77L4.3 16.89C7.44 17.32 9.22 16.64 11.22 15.86L11.3 15.83C13.4 15.01 15.72 14.1 19.59 14.49C19.63 14.49 19.66 14.48 19.68 14.46C19.69 14.46 19.69 14.45 19.69 14.45L19.7 14.45L19.7 5.12C16.31 4.74 14.39 5.41 12.42 6.19C12.31 6.23 12.21 6.27 12.1 6.31ZM17.34 6.34C17.7 6.34 17.99 6.63 17.99 6.99L17.99 12.37C17.99 12.73 17.7 13.02 17.34 13.02C16.98 13.02 16.69 12.73 16.69 12.37L16.69 6.99C16.69 6.63 16.98 6.34 17.34 6.34ZM15.13 11.02C15.13 12.73 13.74 14.12 12.03 14.12C10.31 14.12 8.92 12.73 8.92 11.02C8.92 9.3 10.31 7.91 12.03 7.91C13.74 7.91 15.13 9.3 15.13 11.02ZM6.64 9.19C7 9.19 7.29 9.48 7.29 9.84L7.29 15.22C7.29 15.58 7 15.87 6.64 15.87C6.28 15.87 5.99 15.58 5.99 15.22L5.99 9.84C5.99 9.48 6.28 9.19 6.64 9.19ZM13.83 11.02C13.83 12.01 13.02 12.82 12.03 12.82C11.03 12.82 10.22 12.01 10.22 11.02C10.22 10.02 11.03 9.21 12.03 9.21C13.02 9.21 13.83 10.02 13.83 11.02ZM20.46 17.23C16.21 16.6 13.83 17.51 11.6 18.38L11.53 18.41C9.39 19.25 7.4 20.02 3.79 19.45C3.44 19.4 3.1 19.64 3.05 19.99C2.99 20.35 3.23 20.68 3.59 20.74C7.54 21.36 9.8 20.48 12 19.62L12.07 19.59C14.22 18.75 16.35 17.94 20.27 18.51C20.62 18.56 20.95 18.32 21 17.96C21.06 17.61 20.81 17.28 20.46 17.23Z" fill="#717681" fill-opacity="1.000000" fill-rule="evenodd"/>
	</g>
</svg>
