<svg width="24.000000" height="24.000000" viewBox="0 0 24 24" fill="none" xmlns="http://www.w3.org/2000/svg" xmlns:xlink="http://www.w3.org/1999/xlink">
	<desc>
			Created with Pixso.
	</desc>
	<defs>
		<clipPath id="clip17_996">
			<rect id="Solid / Multicurency Solid" width="24.000000" height="24.000000" fill="white" fill-opacity="0"/>
		</clipPath>
	</defs>
	<g >
		<path id="Shape" d="M10 3C6.13 3 3 6.13 3 10C3 11.72 3.62 13.29 4.65 14.51C5.03 14.96 5.7 14.58 5.7 14C5.7 9.41 9.41 5.7 14 5.7C14.58 5.7 14.96 5.03 14.51 4.65C13.29 3.62 11.72 3 10 3ZM14 7C10.13 7 7 10.13 7 14C7 17.86 10.13 21 14 21C17.86 21 21 17.86 21 14C21 10.13 17.86 7 14 7ZM12 13.35C11.64 13.35 11.35 13.64 11.35 14C11.35 14.36 11.64 14.65 12 14.65L16 14.65C16.35 14.65 16.65 14.36 16.65 14C16.65 13.64 16.35 13.35 16 13.35L12 13.35Z" fill="#74767B" fill-opacity="1.000000" fill-rule="evenodd"/>
	</g>
</svg>
