<svg width="24.000000" height="24.000000" viewBox="0 0 24 24" fill="none" xmlns="http://www.w3.org/2000/svg" xmlns:xlink="http://www.w3.org/1999/xlink">
	<desc>
			Created with Pixso.
	</desc>
	<defs>
		<clipPath id="clip17_993">
			<rect id="Outline / Multicurency Outline" width="24.000000" height="24.000000" fill="white" fill-opacity="0"/>
		</clipPath>
	</defs>
	<g >
		<path id="Shape" d="M10 4.29C6.85 4.29 4.3 6.85 4.3 10C4.3 11.22 4.68 12.35 5.33 13.27C5.54 13.56 5.57 13.99 5.32 14.24C5.03 14.54 4.57 14.44 4.33 14.11C3.49 12.95 3 11.53 3 10C3 6.13 6.13 3 10 3C11.54 3 12.97 3.5 14.13 4.35C14.43 4.57 14.49 4.97 14.23 5.24C13.97 5.51 13.53 5.51 13.22 5.3C12.3 4.66 11.19 4.29 10 4.29ZM7 14C7 10.13 10.13 7 14 7C17.86 7 21 10.13 21 14C21 17.86 17.86 21 14 21C10.13 21 7 17.86 7 14ZM8.3 14C8.3 10.85 10.85 8.29 14 8.29C17.14 8.29 19.7 10.85 19.7 14C19.7 17.14 17.14 19.7 14 19.7C10.85 19.7 8.3 17.14 8.3 14ZM11.35 14C11.35 13.64 11.64 13.35 12 13.35L16 13.35C16.35 13.35 16.65 13.64 16.65 14C16.65 14.36 16.35 14.65 16 14.65L12 14.65C11.64 14.65 11.35 14.36 11.35 14Z" fill="#74767B" fill-opacity="1.000000" fill-rule="evenodd"/>
	</g>
</svg>
