<svg width="24.000000" height="24.000000" viewBox="0 0 24 24" fill="none" xmlns="http://www.w3.org/2000/svg" xmlns:xlink="http://www.w3.org/1999/xlink">
	<desc>
			Created with Pixso.
	</desc>
	<defs>
		<clipPath id="clip8724_861">
			<rect id="Solid / Palladium Solid" width="24.000000" height="24.000000" fill="white" fill-opacity="0"/>
		</clipPath>
	</defs>
	<g clip-path="url(#clip8724_861)">
		<path id="Shape" d="M5 5C3.34 5 2 6.34 2 8L2 15.99C2 17.65 3.34 18.99 5 18.99L19 18.99C20.65 18.99 22 17.65 22 15.99L21.99 8C21.99 6.34 20.65 5 18.99 5L5 5ZM5.99 12.95L5.99 15.37C5.99 15.73 6.29 16.02 6.64 16.02C7 16.02 7.29 15.73 7.29 15.37L7.29 13.59L9.21 13.59C10.76 13.59 12.02 12.33 12.02 10.78C12.02 9.23 10.76 7.97 9.21 7.97L7.34 7.97C6.6 7.97 5.99 8.57 5.99 9.32L5.99 12.93L5.99 12.94L5.99 12.95ZM7.29 12.29L7.29 9.32C7.29 9.29 7.32 9.27 7.34 9.27L9.21 9.27C10.04 9.27 10.72 9.95 10.72 10.78C10.72 11.61 10.04 12.29 9.21 12.29L7.29 12.29ZM18 11.64L18 8.62C18 8.26 17.7 7.97 17.35 7.97C16.99 7.97 16.7 8.26 16.7 8.62L16.7 11L15.49 11C14.11 11 12.98 12.12 12.98 13.51C12.98 14.9 14.11 16.02 15.49 16.02L16.65 16.02C17.39 16.02 18 15.42 18 14.67L18 11.66L18 11.65L18 11.64ZM16.7 12.3L16.7 14.67C16.7 14.7 16.67 14.72 16.65 14.72L15.49 14.72C14.82 14.72 14.28 14.18 14.28 13.51C14.28 12.84 14.82 12.3 15.49 12.3L16.7 12.3Z" fill="#717681" fill-opacity="1.000000" fill-rule="evenodd"/>
	</g>
</svg>
