<svg width="24.000000" height="24.000000" viewBox="0 0 24 24" fill="none" xmlns="http://www.w3.org/2000/svg" xmlns:xlink="http://www.w3.org/1999/xlink">
	<desc>
			Created with Pixso.
	</desc>
	<defs>
		<clipPath id="clip17_1029">
			<rect id="Outline / Pay Cash Outline" width="24.000000" height="24.000000" fill="white" fill-opacity="0"/>
		</clipPath>
	</defs>
	<g>
		<path id="Shape" d="M18 4C19.65 4 21 5.34 21 7L21 9.03C21.57 9.17 22 9.68 22 10.3L22 13.7C22 14.31 21.57 14.82 21 14.96L21 17C21 18.65 19.65 20 18 20L6 20C4.34 20 3 18.65 3 17L3 7C3 5.34 4.34 4 6 4L18 4ZM6 5.29C5.06 5.29 4.3 6.06 4.3 7L4.3 17C4.3 17.93 5.06 18.7 6 18.7L18 18.7C18.93 18.7 19.7 17.93 19.7 17L19.7 15L19 15C17.34 15 16 13.65 16 12C16 10.34 17.34 9 19 9L19.7 9L19.7 7C19.7 6.06 18.93 5.29 18 5.29L6 5.29ZM12.42 8.4C12.17 8.15 11.75 8.16 11.5 8.41L9.32 10.63C9.07 10.89 9.07 11.3 9.33 11.55C9.58 11.81 10 11.8 10.25 11.55L11.36 10.42L11.36 15.36C11.36 15.72 11.65 16.01 12.01 16.01C12.36 16.01 12.66 15.72 12.66 15.36L12.66 10.45L13.73 11.51C13.99 11.77 14.4 11.76 14.65 11.51C14.91 11.25 14.9 10.84 14.65 10.59L12.42 8.4ZM19 13.7L20.7 13.7L20.7 10.3L19 10.3C18.06 10.3 17.29 11.06 17.29 12C17.29 12.93 18.06 13.7 19 13.7Z" fill="#717681" fill-opacity="1.000000" fill-rule="evenodd"/>
	</g>
</svg>
