<svg width="24.000000" height="24.000000" viewBox="0 0 24 24" fill="none" xmlns="http://www.w3.org/2000/svg" xmlns:xlink="http://www.w3.org/1999/xlink">
	<desc>
			Created with Pixso.
	</desc>
	<defs>
		<clipPath id="clip3874_1241">
			<rect id="Outline / Percent Outline" width="24.000000" height="24.000000" fill="white" fill-opacity="0"/>
		</clipPath>
	</defs>
	<g clip-path="url(#clip3874_1241)">
		<path id="Shape" d="M3 12C3 7.02 7.02 3 12 3C16.97 3 21 7.02 21 12C21 16.97 16.97 21 12 21C7.02 21 3 16.97 3 12ZM4.3 12C4.3 7.74 7.74 4.29 12 4.29C16.25 4.29 19.7 7.74 19.7 12C19.7 16.25 16.25 19.7 12 19.7C7.74 19.7 4.3 16.25 4.3 12ZM7.3 16.69C7.04 16.44 7.04 16.03 7.29 15.78L15.78 7.29C16.03 7.04 16.45 7.04 16.7 7.29C16.95 7.54 16.95 7.95 16.7 8.21L8.22 16.69C7.96 16.95 7.55 16.95 7.3 16.69ZM10.1 9.5C10.1 10.32 9.42 11 8.6 11C7.77 11 7.1 10.32 7.1 9.5C7.1 8.67 7.77 8 8.6 8C9.42 8 10.1 8.67 10.1 9.5ZM15.39 16C16.22 16 16.89 15.32 16.89 14.5C16.89 13.67 16.22 13 15.39 13C14.57 13 13.89 13.67 13.89 14.5C13.89 15.32 14.57 16 15.39 16Z" fill="#74767B" fill-opacity="1.000000" fill-rule="evenodd"/>
	</g>
</svg>
