<svg width="24.000000" height="24.000000" viewBox="0 0 24 24" fill="none" xmlns="http://www.w3.org/2000/svg" xmlns:xlink="http://www.w3.org/1999/xlink">
	<desc>
			Created with Pixso.
	</desc>
	<defs>
		<clipPath id="clip8724_860">
			<rect id="Outline / Platinum Outline" width="24.000000" height="24.000000" fill="white" fill-opacity="0"/>
		</clipPath>
	</defs>
	<g clip-path="url(#clip8724_860)">
		<path id="Shape" d="M5 6.4L19 6.4C19.93 6.4 20.7 7.16 20.7 8.1L20.7 15.89C20.7 16.83 19.93 17.59 19 17.59L5 17.59C4.06 17.59 3.3 16.83 3.3 15.89L3.3 8.1C3.3 7.16 4.06 6.4 5 6.4ZM2 8.1C2 6.44 3.34 5.1 5 5.1L19 5.1C20.65 5.1 22 6.44 22 8.1L22 15.89C22 17.55 20.65 18.89 19 18.89L5 18.89C3.34 18.89 2 17.55 2 15.89L2 8.1ZM6.04 15.37L6.04 12.95L6.04 12.94L6.04 12.93L6.04 9.32C6.04 8.57 6.65 7.97 7.39 7.97L9.26 7.97C10.81 7.97 12.07 9.23 12.07 10.78C12.07 12.33 10.81 13.59 9.26 13.59L7.34 13.59L7.34 15.37C7.34 15.73 7.05 16.02 6.69 16.02C6.34 16.02 6.04 15.73 6.04 15.37ZM7.34 9.32L7.34 12.29L9.26 12.29C10.09 12.29 10.77 11.61 10.77 10.78C10.77 9.95 10.09 9.27 9.26 9.27L7.39 9.27C7.37 9.27 7.34 9.29 7.34 9.32ZM16.32 8.75C16.32 8.39 16.02 8.1 15.67 8.1C15.31 8.1 15.02 8.39 15.02 8.75L15.02 10L14.03 10C13.67 10 13.38 10.29 13.38 10.65C13.38 11 13.67 11.3 14.03 11.3L15.02 11.3L15.02 14.08C15.02 15.16 15.89 16.03 16.96 16.03L17.99 16.03C18.35 16.03 18.64 15.74 18.64 15.38C18.64 15.03 18.35 14.73 17.99 14.73L16.96 14.73C16.61 14.73 16.32 14.44 16.32 14.08L16.32 11.3L17.38 11.3C17.74 11.3 18.03 11 18.03 10.65C18.03 10.29 17.74 10 17.38 10L16.32 10L16.32 8.75Z" fill="#717681" fill-opacity="1.000000" fill-rule="evenodd"/>
	</g>
</svg>
