<svg width="24.000000" height="24.000000" viewBox="0 0 24 24" fill="none" xmlns="http://www.w3.org/2000/svg" xmlns:xlink="http://www.w3.org/1999/xlink">
	<desc>
			Created with Pixso.
	</desc>
	<defs>
		<clipPath id="clip8724_859">
			<rect id="Solid / Platinum Solid" width="24.000000" height="24.000000" fill="white" fill-opacity="0"/>
		</clipPath>
	</defs>
	<g clip-path="url(#clip8724_859)">
		<path id="Shape" d="M5 5C3.34 5 2 6.34 2 8L2 15.99C2 17.65 3.34 18.99 5 18.99L19 18.99C20.65 18.99 22 17.65 22 15.99L21.99 8C21.99 6.34 20.65 5 18.99 5L5 5ZM6.05 15.37L6.05 12.95L6.04 12.94L6.05 12.93L6.05 9.32C6.05 8.57 6.65 7.97 7.4 7.97L9.26 7.97C10.81 7.97 12.07 9.23 12.07 10.78C12.07 12.33 10.81 13.59 9.26 13.59L7.35 13.59L7.35 15.37C7.35 15.73 7.05 16.02 6.7 16.02C6.34 16.02 6.05 15.73 6.05 15.37ZM7.35 9.32L7.35 12.29L9.26 12.29C10.09 12.29 10.77 11.61 10.77 10.78C10.77 9.95 10.09 9.27 9.26 9.27L7.4 9.27C7.37 9.27 7.35 9.29 7.35 9.32ZM16.32 8.75C16.32 8.39 16.02 8.1 15.67 8.1C15.31 8.1 15.02 8.39 15.02 8.75L15.02 10L14.03 10C13.67 10 13.38 10.29 13.38 10.65C13.38 11 13.67 11.3 14.03 11.3L15.02 11.3L15.02 14.08C15.02 15.16 15.89 16.03 16.97 16.03L17.99 16.03C18.35 16.03 18.64 15.74 18.64 15.38C18.64 15.03 18.35 14.73 17.99 14.73L16.97 14.73C16.61 14.73 16.32 14.44 16.32 14.08L16.32 11.3L17.38 11.3C17.74 11.3 18.03 11 18.03 10.65C18.03 10.29 17.74 10 17.38 10L16.32 10L16.32 8.75Z" fill="#717681" fill-opacity="1.000000" fill-rule="evenodd"/>
	</g>
</svg>
