<svg width="24.000000" height="24.000000" viewBox="0 0 24 24" fill="none" xmlns="http://www.w3.org/2000/svg" xmlns:xlink="http://www.w3.org/1999/xlink">
	<desc>
			Created with Pixso.
	</desc>
	<defs>
		<clipPath id="clip17_913">
			<rect id="Outline / RUB Outline" width="24.000000" height="24.000000" fill="white" fill-opacity="0"/>
		</clipPath>
	</defs>
	<g >
		<path id="Shape" d="M12 21C16.97 21 21 16.97 21 12C21 7.02 16.97 3 12 3C7.02 3 3 7.02 3 12C3 16.97 7.02 21 12 21ZM12 19.7C16.25 19.7 19.7 16.25 19.7 12C19.7 7.74 16.25 4.29 12 4.29C7.74 4.29 4.3 7.74 4.3 12C4.3 16.25 7.74 19.7 12 19.7ZM9.67 7C9.31 7 9.02 7.29 9.02 7.65L9.02 12.35L8.33 12.35C7.97 12.35 7.68 12.64 7.68 13C7.68 13.36 7.97 13.65 8.33 13.65L9.02 13.65L9.02 14.69L8.32 14.69C7.96 14.69 7.67 14.99 7.67 15.34C7.67 15.7 7.96 15.99 8.32 15.99L9.02 15.99L9.02 16.84C9.02 17.2 9.31 17.49 9.67 17.49C10.03 17.49 10.32 17.2 10.32 16.84L10.32 15.99L13.34 15.99C13.7 15.99 13.99 15.7 13.99 15.34C13.99 14.99 13.7 14.69 13.34 14.69L10.32 14.69L10.32 13.65L13 13.65C14.83 13.65 16.32 12.16 16.32 10.32C16.32 8.49 14.83 7 13 7L9.67 7ZM13 12.35L10.32 12.35L10.32 8.3L13 8.3C14.12 8.3 15.02 9.21 15.02 10.32C15.02 11.44 14.12 12.35 13 12.35Z" fill="#74767B" fill-opacity="1.000000" fill-rule="evenodd"/>
	</g>
</svg>
