<svg viewBox="0 0 24 24" xmlns="http://www.w3.org/2000/svg" xmlns:xlink="http://www.w3.org/1999/xlink" width="24.000000" height="24.000000" fill="none">
	<rect id="Outline/RUB Outline" width="24.000000" height="24.000000" x="0.000000" y="0.000000" />
	<path id="Shape" d="M12 21C16.9706 21 21 16.9706 21 12C21 7.02944 16.9706 3 12 3C7.02944 3 3 7.02944 3 12C3 16.9706 7.02944 21 12 21ZM12 19.7C16.2526 19.7 19.7 16.2526 19.7 12C19.7 7.74741 16.2526 4.3 12 4.3C7.74741 4.3 4.3 7.74741 4.3 12C4.3 16.2526 7.74741 19.7 12 19.7ZM9.02564 7.65671C9.02564 7.29773 9.31666 7.00671 9.67564 7.00671L13.0035 7.00671C14.8383 7.00671 16.3256 8.49409 16.3256 10.3289C16.3256 12.1637 14.8383 13.651 13.0035 13.651L10.3256 13.651L10.3256 14.6994L13.3455 14.6994C13.7044 14.6994 13.9955 14.9904 13.9955 15.3494C13.9955 15.7084 13.7044 15.9994 13.3455 15.9994L10.3256 15.9994L10.3256 16.8472C10.3256 17.2062 10.0346 17.4972 9.67564 17.4972C9.31666 17.4972 9.02564 17.2062 9.02564 16.8472L9.02564 15.9994L8.32422 15.9994C7.96523 15.9994 7.67422 15.7084 7.67422 15.3494C7.67422 14.9904 7.96523 14.6994 8.32422 14.6994L9.02564 14.6994L9.02564 13.651L8.33008 13.651C7.97109 13.651 7.68008 13.36 7.68008 13.001C7.68008 12.6421 7.97109 12.351 8.33008 12.351L9.02564 12.351L9.02564 7.65671ZM10.3256 12.351L13.0035 12.351C14.1203 12.351 15.0256 11.4457 15.0256 10.3289C15.0256 9.21207 14.1203 8.30671 13.0035 8.30671L10.3256 8.30671L10.3256 12.351Z" fill="rgb(116,118,123)" fill-rule="evenodd" />
</svg>
