<svg width="24.000000" height="24.000000" viewBox="0 0 24 24" fill="none" xmlns="http://www.w3.org/2000/svg" xmlns:xlink="http://www.w3.org/1999/xlink">
	<desc>
			Created with Pixso.
	</desc>
	<defs>
		<clipPath id="clip8724_855">
			<rect id="Solid / Silver Solid" width="24.000000" height="24.000000" fill="white" fill-opacity="0"/>
		</clipPath>
	</defs>
	<g clip-path="url(#clip8724_855)">
		<path id="Shape" d="M2 8C2 6.34 3.34 5 5 5L18.99 5C20.65 5 21.99 6.34 21.99 8L22 15.99C22 17.65 20.65 18.99 19 18.99L5 18.99C3.34 18.99 2 17.65 2 15.99L2 8ZM8.49 7.98C8.75 7.98 8.98 8.14 9.09 8.38L11.94 15.09C12.08 15.42 11.93 15.8 11.59 15.94C11.26 16.08 10.88 15.93 10.74 15.6L10.06 14L6.92 14L6.25 15.6C6.11 15.93 5.72 16.08 5.39 15.94C5.06 15.81 4.91 15.42 5.05 15.09L7.89 8.38C7.99 8.14 8.23 7.98 8.49 7.98ZM17.92 11.09C17.92 12.14 17.18 13.02 16.19 13.25C16.11 13.28 16.03 13.3 15.93 13.3L15.78 13.3C15.76 13.3 15.73 13.3 15.7 13.3C15.67 13.3 15.65 13.3 15.62 13.3L14.99 13.3C14.6 13.3 14.28 13.61 14.28 14C14.28 14.39 14.6 14.71 14.99 14.71L18.35 14.71C18.71 14.71 19 15 19 15.36C19 15.71 18.71 16.01 18.35 16.01L14.99 16.01C13.88 16.01 12.98 15.11 12.98 14C12.98 13.31 13.34 12.7 13.87 12.34C13.63 11.98 13.49 11.55 13.49 11.09C13.49 9.87 14.46 8.89 15.67 8.87C15.69 8.87 15.72 8.87 15.74 8.87L18.37 8.87C18.73 8.87 19.02 9.16 19.02 9.52C19.02 9.88 18.73 10.17 18.37 10.17L17.72 10.17C17.85 10.45 17.92 10.76 17.92 11.09ZM15.7 10.17C15.2 10.17 14.79 10.58 14.79 11.09C14.79 11.57 15.17 11.97 15.65 12L15.75 12C16.24 11.97 16.62 11.57 16.62 11.09C16.62 10.58 16.21 10.17 15.7 10.17ZM9.51 12.7L8.49 10.3L7.47 12.7L9.51 12.7Z" fill="#74767B" fill-opacity="1.000000" fill-rule="evenodd"/>
	</g>
</svg>
