<svg width="24.000000" height="24.000000" viewBox="0 0 24 24" fill="none" xmlns="http://www.w3.org/2000/svg" xmlns:xlink="http://www.w3.org/1999/xlink">
	<desc>
			Created with Pixso.
	</desc>
	<defs>
		<clipPath id="clip8724_856">
			<rect id="Outline / Silver Outline" width="24.000000" height="24.000000" fill="white" fill-opacity="0"/>
		</clipPath>
	</defs>
	<g >
		<path id="Shape" d="M5 6.4L19 6.4C19.93 6.4 20.7 7.16 20.7 8.1L20.7 15.89C20.7 16.83 19.93 17.59 19 17.59L5 17.59C4.06 17.59 3.3 16.83 3.3 15.89L3.3 8.1C3.3 7.16 4.06 6.4 5 6.4ZM2 8.1C2 6.44 3.34 5.1 5 5.1L19 5.1C20.65 5.1 22 6.44 22 8.1L22 15.89C22 17.55 20.65 18.89 19 18.89L5 18.89C3.34 18.89 2 17.55 2 15.89L2 8.1ZM9.08 8.38C8.98 8.14 8.75 7.98 8.49 7.98C8.23 7.98 7.99 8.14 7.89 8.38L5.05 15.09C4.91 15.42 5.06 15.81 5.39 15.94C5.72 16.08 6.11 15.93 6.25 15.6L6.92 14L10.06 14L10.74 15.6C10.88 15.93 11.26 16.08 11.59 15.94C11.93 15.8 12.08 15.42 11.94 15.09L9.08 8.38ZM9.51 12.7L8.49 10.3L7.47 12.7L9.51 12.7ZM15.7 10.17C15.2 10.17 14.79 10.58 14.79 11.09C14.79 11.57 15.17 11.97 15.65 12L15.75 12C16.23 11.97 16.62 11.57 16.62 11.09C16.62 10.58 16.21 10.17 15.7 10.17ZM16.19 13.25C17.18 13.02 17.92 12.14 17.92 11.09C17.92 10.76 17.84 10.45 17.72 10.17L18.37 10.17C18.73 10.17 19.02 9.88 19.02 9.52C19.02 9.16 18.73 8.87 18.37 8.87L15.74 8.87C15.72 8.87 15.69 8.87 15.67 8.87C14.46 8.89 13.49 9.87 13.49 11.09C13.49 11.55 13.63 11.98 13.87 12.34C13.34 12.7 12.98 13.31 12.98 14C12.98 15.11 13.88 16.01 14.99 16.01L18.35 16.01C18.71 16.01 19 15.71 19 15.36C19 15 18.71 14.71 18.35 14.71L14.99 14.71C14.6 14.71 14.28 14.39 14.28 14C14.28 13.61 14.6 13.3 14.99 13.3L15.62 13.3C15.65 13.3 15.67 13.3 15.7 13.3C15.73 13.3 15.76 13.3 15.78 13.3L15.93 13.3C16.03 13.3 16.11 13.28 16.19 13.25Z" fill="#74767B" fill-opacity="1.000000" fill-rule="evenodd"/>
	</g>
</svg>
