<svg width="24.000000" height="24.000000" viewBox="0 0 24 24" fill="none" xmlns="http://www.w3.org/2000/svg" xmlns:xlink="http://www.w3.org/1999/xlink">
	<desc>
			Created with Pixso.
	</desc>
	<defs>
		<clipPath id="clip17_900">
			<rect id="Outline / USD Outline" width="24.000000" height="24.000000" fill="white" fill-opacity="0"/>
		</clipPath>
	</defs>
	<g>
		<path id="Shape" d="M12 3C7.02 3 3 7.02 3 12C3 16.97 7.02 21 12 21C16.97 21 21 16.97 21 12C21 7.02 16.97 3 12 3ZM12 4.29C7.74 4.29 4.3 7.74 4.3 12C4.3 16.25 7.74 19.7 12 19.7C16.25 19.7 19.7 16.25 19.7 12C19.7 7.74 16.25 4.29 12 4.29ZM9.31 9.74C9.37 8.68 10.08 7.71 11.26 7.42L11.26 6.66C11.26 6.3 11.55 6.01 11.91 6.01C12.27 6.01 12.56 6.3 12.56 6.66L12.56 7.39C13.27 7.52 13.8 7.9 14.14 8.37C14.56 8.92 14.71 9.58 14.71 10.05C14.71 10.41 14.42 10.7 14.06 10.7C13.7 10.7 13.41 10.41 13.41 10.05C13.41 9.82 13.32 9.44 13.1 9.14C12.9 8.87 12.57 8.64 11.99 8.64C11.09 8.64 10.64 9.22 10.61 9.81C10.58 10.36 10.94 11.08 12.09 11.27C13.07 11.43 13.83 11.81 14.34 12.35C14.85 12.89 15.07 13.56 15.01 14.22C14.9 15.4 13.94 16.37 12.56 16.58L12.56 17.35C12.56 17.71 12.27 18 11.91 18C11.55 18 11.26 17.71 11.26 17.35L11.26 16.54C10.61 16.39 10.11 16.04 9.77 15.63C9.34 15.11 9.13 14.49 9.13 14.05C9.13 13.69 9.42 13.4 9.78 13.4C10.13 13.4 10.43 13.69 10.43 14.05C10.43 14.14 10.5 14.48 10.77 14.79C11.01 15.08 11.38 15.32 11.99 15.32C13.12 15.32 13.66 14.65 13.71 14.1C13.74 13.82 13.65 13.51 13.39 13.24C13.13 12.96 12.65 12.68 11.88 12.55C10.14 12.26 9.24 11.02 9.31 9.74Z" fill="#717681" fill-opacity="1.000000" fill-rule="evenodd"/>
	</g>
</svg>
