<svg xmlns="http://www.w3.org/2000/svg" fill="none" viewBox="0 0 24 24" focusable="false"><path fill="#717681" fill-rule="evenodd" d="M18.945 6.872a9 9 0 1 1-14.48 10.692 9 9 0 0 1 14.48-10.692Zm-2.666 11.54a7.7 7.7 0 1 0-11.969-4.04l2.464-1.82a.765.765 0 0 0 .299-.58 4.637 4.637 0 0 1 6.544-3.982c.43.194.435.764.055 1.045l-2.535 1.872a.7.7 0 0 0-.148.98l.822 1.112a.7.7 0 0 0 .98.147l2.534-1.872c.38-.28.924-.108.983.36a4.637 4.637 0 0 1-5.732 5.083.766.766 0 0 0-.642.114l-2.465 1.82a7.703 7.703 0 0 0 8.81-.24Z" clip-rule="evenodd"/></svg>