<svg xmlns="http://www.w3.org/2000/svg" fill="none" viewBox="0 0 24 24" focusable="false"><path fill="#717681" fill-rule="evenodd" d="M19.466 1.797a1.062 1.062 0 1 1 1.563 1.438l-3.408 3.701a.65.65 0 0 0 .479 1.09h4.265a.65.65 0 1 0 0-1.3h-2.784l2.404-2.61A2.362 2.362 0 1 0 18.508.916l-.388.423a.65.65 0 0 0 .957.88l.389-.423ZM6.03 11.02c-.14.13-.21.3-.21.48 0 .16.05.31.17.44l5.49 6.04c.28.31.76.31 1.04 0l5.49-6.04c.24-.27.22-.68-.04-.92a.65.65 0 0 0-.92.04l-4.4 4.836V5a.65.65 0 1 0-1.3 0v10.896l-4.4-4.836a.658.658 0 0 0-.92-.04Z" clip-rule="evenodd"/></svg>