<svg xmlns="http://www.w3.org/2000/svg" fill="none" viewBox="0 0 24 24" focusable="false"><path fill="#717681" fill-rule="evenodd" d="M5.465 19.995H4.03a.65.65 0 1 1 0-1.3h.821v-9.72a1.949 1.949 0 0 1 3.898 0v9.72h1.3v-6.698a1.95 1.95 0 0 1 3.9 0v6.698h1.3V5.95a1.95 1.95 0 1 1 3.9 0v12.745h.846a.65.65 0 0 1 0 1.3h-1.46a.703.703 0 0 1-.086.005h-2.5a.703.703 0 0 1-.086-.005h-2.528a.705.705 0 0 1-.086.005h-2.5a.703.703 0 0 1-.086-.005H8.135A.703.703 0 0 1 8.05 20H5.551a.703.703 0 0 1-.086-.005Zm11.084-1.3h1.3V5.95a.65.65 0 0 0-1.3 0v12.745Zm-5.2-6.698v6.698h1.3v-6.698a.65.65 0 0 0-1.3 0Zm-3.9 6.698v-9.72a.649.649 0 1 0-1.298 0v9.72H7.45Z" clip-rule="evenodd"/></svg>