<svg xmlns="http://www.w3.org/2000/svg" fill="none" viewBox="0 0 24 24" focusable="false"><path fill="#717681" d="M5.8 2H5a3 3 0 0 0-3 3v.691a.65.65 0 1 0 1.3 0V5A1.7 1.7 0 0 1 5 3.3h.8a.65.65 0 0 0 0-1.3ZM2 18.309a.65.65 0 1 1 1.3 0V19A1.7 1.7 0 0 0 5 20.7h.8a.65.65 0 1 1 0 1.3H5a3 3 0 0 1-3-3v-.691ZM21.35 17.659a.65.65 0 0 0-.65.65V19a1.7 1.7 0 0 1-1.7 1.7h-.583a.65.65 0 1 0 0 1.3H19a3 3 0 0 0 3-3v-.691a.65.65 0 0 0-.65-.65ZM22 5.691a.65.65 0 1 1-1.3 0V5A1.7 1.7 0 0 0 19 3.3h-.583a.65.65 0 1 1 0-1.3H19a3 3 0 0 1 3 3v.691ZM5.804 7.947a.65.65 0 0 0-.65.65v6.805c0 .36.291.65.65.65H7.08a.65.65 0 0 0 .65-.65V8.597a.65.65 0 0 0-.65-.65H5.804ZM18.456 7.947a.65.65 0 0 1 .65.65v6.805a.65.65 0 1 1-1.3 0V8.598a.65.65 0 0 1 .65-.65ZM13.923 8.597a.65.65 0 0 1 .65-.65h1.275a.65.65 0 0 1 .65.65v6.805a.65.65 0 0 1-.65.65h-1.275a.65.65 0 0 1-.65-.65V8.597ZM11.312 7.948a.65.65 0 0 1 .65.65v6.804a.65.65 0 1 1-1.3 0V8.598a.65.65 0 0 1 .65-.65Z"/></svg>