<svg xmlns="http://www.w3.org/2000/svg" fill="none" viewBox="0 0 28 28" focusable="false"><rect width="28" height="20" y="4" fill="#fff" rx="3"/><mask id="a" width="28" height="20" x="0" y="4" maskUnits="userSpaceOnUse" style="mask-type:luminance"><rect width="28" height="20" y="4" fill="#fff" rx="3"/></mask><g fill-rule="evenodd" clip-rule="evenodd" mask="url(#a)"><path fill="#0F3EB6" d="M0 9.333h28V4H0v5.333ZM0 24h28v-5.333H0V24Z"/><path fill="#ED1A3C" d="M0 18.667h28V9.333H0v9.334Z"/><path fill="#fff" d="M12 12.727h1.333V12a.667.667 0 0 1 1.334 0v.727H16V14h-4v-1.273ZM17.333 12a.667.667 0 0 0-.666.667V14H18v-1.333a.667.667 0 0 0-.667-.667Zm-6 5.333v-2.666H10l-1.333 2.666h2.666ZM12 14.667v2.666h4v-2.666h-4Zm4.667 0H18l1.333 2.666h-2.666v-2.666Zm-6-2.667a.667.667 0 0 0-.667.667V14h1.333v-1.333a.667.667 0 0 0-.666-.667Z"/></g></svg>