<svg xmlns="http://www.w3.org/2000/svg" fill="none" viewBox="0 0 24 24" focusable="false"><path fill="#717681" fill-rule="evenodd" d="M18.77 3.084a.65.65 0 0 1 .117.912L5.196 21.712a.65.65 0 0 1-1.029-.795l.862-1.115A3.001 3.001 0 0 1 3 16.962v-8a3 3 0 0 1 3-3h1.652a3.001 3.001 0 0 1 2.796-1.908h3.104c1.077 0 2.021.567 2.55 1.42L17.86 3.2a.65.65 0 0 1 .912-.117Zm-3.559 3.542-.074-.19a1.701 1.701 0 0 0-1.585-1.082h-3.104c-.719 0-1.337.446-1.585 1.082l-.323.826H6a1.7 1.7 0 0 0-1.7 1.7v8a1.7 1.7 0 0 0 1.611 1.698l2.602-3.367a4.25 4.25 0 0 1 4.951-6.406l1.747-2.26ZM12.61 9.993a2.95 2.95 0 0 0-3.242 4.195l3.242-4.195Z" clip-rule="evenodd"/><path fill="#717681" d="M14.827 11.991c-.08-.254-.059-.538.105-.75.29-.376.864-.356 1.039.087a4.25 4.25 0 0 1-4.463 5.776c-.473-.057-.638-.607-.347-.984.164-.211.433-.305.7-.29a2.95 2.95 0 0 0 2.967-3.838Z"/><path fill="#717681" d="M9.515 18.662a.65.65 0 0 0 0 1.3H18a3 3 0 0 0 3-3v-8a2.999 2.999 0 0 0-1.521-2.61c-.328-.187-.728-.053-.959.246l-.017.023c-.203.262-.01.68.283.834a1.7 1.7 0 0 1 .914 1.507v8a1.7 1.7 0 0 1-1.7 1.7H9.515Z"/><path fill="#717681" d="M16.626 9.633a1 1 0 0 1 .996-1 1 1 0 0 1 0 2 1 1 0 0 1-.996-1Z"/></svg>