<svg xmlns="http://www.w3.org/2000/svg" fill="none" viewBox="0 0 28 28" focusable="false"><rect width="28" height="20" y="4" fill="#fff" rx="3"/><mask id="a" width="28" height="20" x="0" y="4" maskUnits="userSpaceOnUse" style="mask-type:luminance"><rect width="28" height="20" y="4" fill="#fff" rx="3"/></mask><g mask="url(#a)"><path fill="url(#b)" d="M13.333 4H28v20H13.333z"/><path fill="#059170" fill-rule="evenodd" d="M0 24h9.333V4H0v20Z" clip-rule="evenodd"/><path fill="#E21A30" fill-rule="evenodd" d="M9.333 24h9.334V4H9.333v20Z" clip-rule="evenodd"/><path fill="#FFDC44" fill-rule="evenodd" d="M18.667 24H28V4h-9.333v20Z" clip-rule="evenodd"/><path fill="#FFDC42" fill-rule="evenodd" d="m14 15.3-1.96 1.397.724-2.295-1.934-1.432 2.406-.022.764-2.281.764 2.281 2.406.022-1.934 1.432.723 2.295L14 15.3Z" clip-rule="evenodd"/></g><defs><linearGradient id="b" x1="13.333" x2="13.333" y1="4" y2="24" gradientUnits="userSpaceOnUse"><stop stop-color="#FFDC44"/><stop offset="1" stop-color="#FDD216"/></linearGradient></defs></svg>