<svg xmlns="http://www.w3.org/2000/svg" fill="none" viewBox="0 0 24 24" focusable="false"><path fill="#717681" d="M6.019 15.448a.65.65 0 0 1 .65-.65H8.36a.65.65 0 1 1 0 1.3H6.67a.65.65 0 0 1-.65-.65ZM15.015 15.448a.65.65 0 0 1 .65-.65h1.693a.65.65 0 1 1 0 1.3h-1.693a.65.65 0 0 1-.65-.65ZM11.154 14.798a.65.65 0 1 0 0 1.3h1.693a.65.65 0 1 0 0-1.3h-1.693Z"/><path fill="#717681" fill-rule="evenodd" d="M6.969 8.125a.95.95 0 0 0-.95.95v2.417c0 .524.425.95.95.95h2.338a.95.95 0 0 0 .95-.95V9.075a.95.95 0 0 0-.95-.95H6.969Zm.35 3.017V9.425h1.638v1.717H7.319Z" clip-rule="evenodd"/><path fill="#717681" fill-rule="evenodd" d="M6 19a3 3 0 0 1-3-3V8a3 3 0 0 1 3-3h12a3 3 0 0 1 3 3v8a3 3 0 0 1-3 3H6ZM19.7 8A1.7 1.7 0 0 0 18 6.3H6A1.7 1.7 0 0 0 4.3 8v8A1.7 1.7 0 0 0 6 17.7h12a1.7 1.7 0 0 0 1.7-1.7V8Z" clip-rule="evenodd"/></svg>