<svg xmlns="http://www.w3.org/2000/svg" fill="none" viewBox="0 0 28 28" focusable="false"><rect width="28" height="20" y="4" fill="#fff" rx="3"/><mask id="a" width="28" height="20" x="0" y="4" maskUnits="userSpaceOnUse" style="mask-type:luminance"><rect width="28" height="20" y="4" fill="#fff" rx="3"/></mask><g mask="url(#a)"><path fill="url(#b)" d="M0 4h28v20H0z"/><path fill="#fff" fill-rule="evenodd" d="M13.444 7.333a.333.333 0 0 0-.2.067L10.72 9.293a.333.333 0 0 1-.119.057l-2.565.641a.331.331 0 0 0-.069.025l-2.534 1.268a.333.333 0 0 0-.15.149l-1.196 2.394a.333.333 0 0 0 .02.334l1.17 1.755c.037.055.056.12.056.185v1.76c0 .09.035.174.098.237l1.066 1.066a.333.333 0 0 0 .385.062l3.714-1.857a.334.334 0 0 1 .15-.036h2.467c.078 0 .153.028.213.078l3.815 3.178c.06.05.135.078.213.078h2.368a.334.334 0 0 0 .277-.149l2.512-3.767a.334.334 0 0 0 .056-.185V14.1c0-.066-.02-.13-.056-.185L20 10l-1.903-3.171a.333.333 0 0 0-.286-.162h-.418a.3.3 0 0 0-.213.513.3.3 0 0 1 .056.347l-.477.955a.333.333 0 0 1-.298.185h-1.588a.333.333 0 0 1-.298-.185l-.483-.964a.333.333 0 0 0-.298-.185h-.35Zm5.89 14H18l.431.431c.13.13.341.13.471 0l.431-.43Z" clip-rule="evenodd"/></g><defs><linearGradient id="b" x1="0" x2="0" y1="4" y2="24" gradientUnits="userSpaceOnUse"><stop stop-color="#19BFBF"/><stop offset="1" stop-color="#10ACAC"/></linearGradient></defs></svg>