<svg xmlns="http://www.w3.org/2000/svg" fill="none" viewBox="0 0 28 28" focusable="false"><rect width="27.5" height="19.5" x=".25" y="4.25" fill="#fff" stroke="#D6D8DD" stroke-width=".5" rx="2.75"/><mask id="a" width="28" height="20" x="0" y="4" maskUnits="userSpaceOnUse" style="mask-type:luminance"><rect width="27.5" height="19.5" x=".25" y="4.25" fill="#fff" stroke="#fff" stroke-width=".5" rx="2.75"/></mask><g fill-rule="evenodd" clip-rule="evenodd" mask="url(#a)"><path fill="#FFCB49" d="M0 9.333h28V4H0v5.333Z"/><path fill="#DC1D34" d="M0 18.667h28v-5.334H0v5.334Z"/><path fill="#4985D4" d="M0 24h28v-5.333H0V24Z"/><path fill="#4BA343" d="m0 24 13.333-10L0 4v20Z"/><path fill="#fff" d="M5.333 18c.346 0 .68-.044 1-.126a4.002 4.002 0 0 1 0-7.748 4 4 0 1 0-1 7.874ZM8 11.333a.667.667 0 1 1-1.333 0 .667.667 0 0 1 1.333 0Zm-.667 3.334a.667.667 0 1 0 0-1.334.667.667 0 0 0 0 1.334Zm.667 2a.667.667 0 1 1-1.333 0 .667.667 0 0 1 1.333 0Z"/></g></svg>