<svg xmlns="http://www.w3.org/2000/svg" fill="none" viewBox="0 0 24 24" focusable="false"><path fill="#717681" fill-rule="evenodd" d="M20.65 6.35a3 3 0 0 0-3-3h-8a3 3 0 0 0-3 3v10a3 3 0 0 0 3 3h8a3 3 0 0 0 3-3v-10Zm-7 .9a.75.75 0 0 0-.75.75v4a.75.75 0 0 0 1.5 0V8a.75.75 0 0 0-.75-.75Zm0 8.45a.85.85 0 1 1 0-1.7.85.85 0 0 1 0 1.7Z" clip-rule="evenodd"/><path fill="#717681" d="M4.65 8.7a.65.65 0 0 0-.65.65v9.4A3.25 3.25 0 0 0 7.25 22h8.4a.65.65 0 1 0 0-1.3h-8.4a1.95 1.95 0 0 1-1.95-1.95v-9.4a.65.65 0 0 0-.65-.65Z"/></svg>