<svg xmlns="http://www.w3.org/2000/svg" fill="none" viewBox="0 0 24 24" focusable="false"><path fill="#717681" d="M13.82 14.123c-.27.29-.73.3-1.01.02l-2.374-2.386a.658.658 0 0 1 0-.92c.25-.25.67-.25.92 0l1.935 1.946 3.237-3.506a.65.65 0 0 1 .92-.04c.26.24.28.65.04.92l-3.667 3.966Z"/><path fill="#717681" fill-rule="evenodd" d="M17.65 3.35a3 3 0 0 1 3 3v10a3 3 0 0 1-3 3h-8a3 3 0 0 1-3-3v-10a3 3 0 0 1 3-3h8Zm-8 1.3h8a1.7 1.7 0 0 1 1.7 1.7v10a1.7 1.7 0 0 1-1.7 1.7h-8a1.7 1.7 0 0 1-1.7-1.7v-10a1.7 1.7 0 0 1 1.7-1.7Z" clip-rule="evenodd"/><path fill="#717681" d="M4 9.35a.65.65 0 1 1 1.3 0v9.4a1.95 1.95 0 0 0 1.95 1.95h8.4a.65.65 0 0 1 0 1.3h-8.4A3.25 3.25 0 0 1 4 18.75v-9.4Z"/></svg>