<svg xmlns="http://www.w3.org/2000/svg" fill="none" viewBox="0 0 24 24" focusable="false"><path fill="#717681" fill-rule="evenodd" d="M17.65 3.35a3 3 0 0 1 3 3v10a3 3 0 0 1-3 3h-8a3 3 0 0 1-3-3v-10a3 3 0 0 1 3-3h8Zm-3.625 4.547a.65.65 0 0 1-.65.65H10.67a.65.65 0 0 1 0-1.3h2.705a.65.65 0 0 1 .65.65Zm2.603 4.16a.65.65 0 1 0 0-1.3H10.67a.65.65 0 0 0 0 1.3h5.958Zm.65 2.86a.65.65 0 0 1-.65.65H10.67a.65.65 0 0 1 0-1.3h5.958a.65.65 0 0 1 .65.65Z" clip-rule="evenodd"/><path fill="#717681" d="M4 9.35a.65.65 0 1 1 1.3 0v9.4a1.95 1.95 0 0 0 1.95 1.95h8.4a.65.65 0 0 1 0 1.3h-8.4A3.25 3.25 0 0 1 4 18.75v-9.4Z"/></svg>