<svg xmlns="http://www.w3.org/2000/svg" fill="none" viewBox="0 0 24 24" focusable="false"><path fill="#717681" fill-rule="evenodd" d="M4 6a3 3 0 0 1 3-3h6.48a3 3 0 0 1 2.052.811l3.52 3.3A3 3 0 0 1 20 9.3V18a3 3 0 0 1-3 3H7a3 3 0 0 1-3-3V6Zm14.155 3a.35.35 0 0 0 .247-.598l-3.805-3.805a.35.35 0 0 0-.597.248v2.73C14 8.362 14.598 9 15.336 9h2.819ZM12 9a.65.65 0 0 1 .65.65V12H15a.65.65 0 1 1 0 1.3h-2.35v2.35a.65.65 0 1 1-1.3 0V13.3H9A.65.65 0 1 1 9 12h2.35V9.65A.65.65 0 0 1 12 9Z" clip-rule="evenodd"/></svg>