<svg xmlns="http://www.w3.org/2000/svg" fill="none" viewBox="0 0 24 24" focusable="false"><path fill="#717681" fill-rule="evenodd" d="M22 14a3 3 0 0 0-3-3V9.18a3 3 0 0 0-.803-2.044l-2.958-3.18A3 3 0 0 0 13.041 3H8a3 3 0 0 0-3 3v5a3 3 0 0 0-3 3v4a3 3 0 0 0 3 3h14a3 3 0 0 0 3-3v-4ZM8 4.3h5.042c.104 0 .207.01.308.028V7.05A1.95 1.95 0 0 0 15.3 9h2.39c.007.06.01.12.01.18V11H6.3V6A1.7 1.7 0 0 1 8 4.3Zm8.945 3.4L14.65 5.232v1.816c0 .36.29.65.65.65h1.645Zm-5.183 5.883a.65.65 0 0 1 .65.65v2.89h1.07a.65.65 0 0 1 0 1.3h-1.72a.65.65 0 0 1-.65-.65v-3.54a.65.65 0 0 1 .65-.65Zm5.685 0a.65.65 0 1 1 0 1.3h-.86a.209.209 0 0 0-.072.405l.753.28a1.474 1.474 0 0 1-.514 2.854H15.73a.65.65 0 1 1 0-1.3h1.025a.174.174 0 0 0 .06-.336l-.752-.28a1.509 1.509 0 0 1 .526-2.923h.86Zm-11.403.115a.65.65 0 0 1 .907.152l.735 1.03.736-1.03a.65.65 0 0 1 1.058.755L8.485 16l.995 1.395a.65.65 0 1 1-1.058.755l-.736-1.03-.735 1.03a.65.65 0 0 1-1.058-.755L6.888 16l-.995-1.395a.65.65 0 0 1 .151-.907Z" clip-rule="evenodd"/></svg>