<svg xmlns="http://www.w3.org/2000/svg" fill="none" viewBox="0 0 24 24" focusable="false"><path fill="#717681" d="M11.706 17.109V14.89h.516a.65.65 0 0 1 .65.65v.918a.65.65 0 0 1-.65.65h-.516ZM6.74 14.891v.995h.668a.497.497 0 0 0 0-.995H6.74Z"/><path fill="#717681" fill-rule="evenodd" d="M22 14a3 3 0 0 0-3-3V9.18a3 3 0 0 0-.803-2.044l-2.958-3.18A3 3 0 0 0 13.041 3H8a3 3 0 0 0-3 3v5a3 3 0 0 0-3 3v4a3 3 0 0 0 3 3h14a3 3 0 0 0 3-3v-4ZM8 4.3h5.042c.104 0 .207.01.308.028V7.05A1.95 1.95 0 0 0 15.3 9h2.39c.007.06.01.12.01.18V11H6.3V6A1.7 1.7 0 0 1 8 4.3Zm8.945 3.4L14.65 5.232v1.816c0 .36.29.65.65.65h1.645Zm-6.348 10.518a.65.65 0 0 0 .46.19h1.165a1.95 1.95 0 0 0 1.95-1.95v-.917a1.95 1.95 0 0 0-1.95-1.95h-1.166a.65.65 0 0 0-.65.65v3.518a.65.65 0 0 0 .19.46Zm6.245-.46a.65.65 0 1 1-1.3 0v-3.517a.65.65 0 0 1 .65-.65h1.718a.65.65 0 0 1 0 1.3h-1.069v1h.481a.65.65 0 1 1 0 1.3h-.48v.568Zm-10.102 0a.65.65 0 1 1-1.3 0v-3.517a.65.65 0 0 1 .65-.65h1.318a1.797 1.797 0 0 1 0 3.595H6.74v.573Z" clip-rule="evenodd"/></svg>