<svg xmlns="http://www.w3.org/2000/svg" fill="none" viewBox="0 0 24 24" focusable="false"><path fill="#717681" d="M12.349 6.997c.713-.048 1.496.154 2 .64a.65.65 0 1 1-.903.935c-.169-.162-.551-.309-1.009-.278-.44.03-.815.215-1.024.533-.25.38-.322.775-.316 1.333.003.254.02.524.042.838l.01.13.023.386h1.607a.65.65 0 0 1 0 1.3h-1.6a5.167 5.167 0 0 1-.798 2.383h4.046a.65.65 0 1 1 0 1.3H8.715a.65.65 0 0 1-.21-1.266c.18-.06.534-.32.853-.85.247-.409.447-.94.515-1.568H8.754a.65.65 0 1 1 0-1.3H9.87l-.019-.297-.009-.129a16.176 16.176 0 0 1-.045-.913c-.007-.688.081-1.378.53-2.06.488-.745 1.291-1.067 2.022-1.117Z"/><path fill="#717681" fill-rule="evenodd" d="M3 12a9 9 0 1 1 18 0 9 9 0 0 1-18 0Zm1.3 0a7.7 7.7 0 1 1 15.4 0 7.7 7.7 0 0 1-15.4 0Z" clip-rule="evenodd"/></svg>