<svg xmlns="http://www.w3.org/2000/svg" fill="none" viewBox="0 0 28 28" focusable="false"><rect width="27.5" height="19.5" x=".25" y="4.25" fill="#fff" stroke="#D6D8DD" stroke-width=".5" rx="2.75"/><mask id="a" width="28" height="20" x="0" y="4" maskUnits="userSpaceOnUse" style="mask-type:luminance"><rect width="27.5" height="19.5" x=".25" y="4.25" fill="#fff" stroke="#fff" stroke-width=".5" rx="2.75"/></mask><g mask="url(#a)"><path fill="#E8112D" d="M10.667 4h6.667v20h-6.667z"/><path fill="#E8112D" d="M0 10.667h28v6.667H0z"/><path fill="#F9DD16" d="M13.333 6.667h1.333v14.667h-1.333z"/><path fill="#F9DD16" fill-rule="evenodd" d="m14 20 1.333 1.333h-2.666L14 20Z" clip-rule="evenodd"/><path fill="#F9DD16" d="M6.667 13.333h14.667v1.333H6.667z"/><path fill="#F9DD16" fill-rule="evenodd" d="m14 8 1.333-1.333h-2.666L14 8ZM8 14l-1.333-1.333v2.666L8 14ZM20 14l1.333-1.333v2.666L20 14Z" clip-rule="evenodd"/></g></svg>