<svg xmlns="http://www.w3.org/2000/svg" fill="none" viewBox="0 0 24 24" focusable="false"><path fill="#717681" d="M12.618 16.459a3.84 3.84 0 1 1 7.682 0 3.84 3.84 0 0 1-7.682 0ZM12.988 11a.6.6 0 0 1-.523-.896l3.472-6.139a.6.6 0 0 1 1.044 0l3.472 6.14a.6.6 0 0 1-.523.895h-6.942ZM7.061 12.672a.6.6 0 0 1 .849 0l3.42 3.419a.6.6 0 0 1 0 .848l-3.42 3.42a.6.6 0 0 1-.849 0l-3.419-3.42a.6.6 0 0 1 0-.848l3.42-3.42ZM3.7 4.3a.6.6 0 0 1 .6-.6h6.1a.6.6 0 0 1 .6.6v6.1a.6.6 0 0 1-.6.6H4.3a.6.6 0 0 1-.6-.6V4.3Z"/></svg>