<svg xmlns="http://www.w3.org/2000/svg" fill="none" viewBox="0 0 28 28" focusable="false"><rect width="28" height="20" y="4" fill="#fff" rx="3"/><mask id="a" width="28" height="20" x="0" y="4" maskUnits="userSpaceOnUse" style="mask-type:luminance"><rect width="28" height="20" y="4" fill="#fff" rx="3"/></mask><g mask="url(#a)"><path fill="#30C6E0" d="M0 4h28v20H0z"/><path fill="#FFCD4B" fill-rule="evenodd" d="M14 18a4 4 0 1 0 0-8 4 4 0 0 0 0 8Z" clip-rule="evenodd"/><path fill="#FFCD4B" fill-rule="evenodd" d="M12.368 21.15 14 18.713l1.632 2.436.413-2.903 2.527 1.486-.887-2.794 2.922.243-2.011-2.133L21.333 14l-2.737-1.049 2.011-2.133-2.922.243.887-2.794-2.527 1.486-.413-2.902L14 9.286l-1.632-2.435-.413 2.902-2.527-1.486.887 2.794-2.922-.243 2.012 2.133L6.667 14l2.738 1.049-2.012 2.133 2.922-.243-.887 2.794 2.527-1.486.413 2.902ZM18.667 14a4.667 4.667 0 1 1-9.334 0 4.667 4.667 0 0 1 9.334 0ZM1.333 5.667c0-.184.15-.334.334-.334h.666c.184 0 .334.15.334.334v.666c0 .184-.15.334-.334.334h-.666a.333.333 0 0 1-.334-.334v-.666Zm0 2.666c0-.184.15-.333.334-.333h.666c.184 0 .334.15.334.333V9c0 .184-.15.333-.334.333h-.666A.333.333 0 0 1 1.333 9v-.667Zm.334 2.334a.333.333 0 0 0-.334.333v.667c0 .184.15.333.334.333h.666c.184 0 .334-.15.334-.333V11a.333.333 0 0 0-.334-.333h-.666Zm-.334 3c0-.184.15-.334.334-.334h.666c.184 0 .334.15.334.334v.666c0 .184-.15.334-.334.334h-.666a.333.333 0 0 1-.334-.334v-.666ZM1.667 16a.333.333 0 0 0-.334.333V17c0 .184.15.333.334.333h.666c.184 0 .334-.149.334-.333v-.667A.333.333 0 0 0 2.333 16h-.666Zm-.334 3c0-.184.15-.333.334-.333h.666c.184 0 .334.149.334.333v.667c0 .184-.15.333-.334.333h-.666a.333.333 0 0 1-.334-.333V19Zm.334 2.333a.333.333 0 0 0-.334.334v.666c0 .184.15.334.334.334h.666c.184 0 .334-.15.334-.334v-.666a.333.333 0 0 0-.334-.334h-.666Zm1-1c0-.184.149-.333.333-.333h.667c.184 0 .333.15.333.333V21c0 .184-.15.333-.333.333H3A.333.333 0 0 1 2.667 21v-.667Zm.333-3a.333.333 0 0 0-.333.334v.666c0 .184.149.334.333.334h.667c.184 0 .333-.15.333-.334v-.666a.333.333 0 0 0-.333-.334H3ZM2.667 15c0-.184.149-.333.333-.333h.667c.184 0 .333.149.333.333v.667c0 .184-.15.333-.333.333H3a.333.333 0 0 1-.333-.333V15ZM3 12a.333.333 0 0 0-.333.333V13c0 .184.149.333.333.333h.667c.184 0 .333-.149.333-.333v-.667A.333.333 0 0 0 3.667 12H3Zm-.333-2.333c0-.184.149-.334.333-.334h.667c.184 0 .333.15.333.334v.666c0 .184-.15.334-.333.334H3a.333.333 0 0 1-.333-.334v-.666Zm.333-3A.333.333 0 0 0 2.667 7v.667c0 .184.149.333.333.333h.667C3.85 8 4 7.85 4 7.667V7a.333.333 0 0 0-.333-.333H3Z" clip-rule="evenodd"/></g></svg>