<svg xmlns="http://www.w3.org/2000/svg" fill="none" viewBox="0 0 24 24" focusable="false"><path fill="#717681" fill-rule="evenodd" d="M6 5.6a3 3 0 0 0-3 3v6.8a3 3 0 0 0 3 3h12a3 3 0 0 0 3-3V8.6a3 3 0 0 0-3-3H6Zm.003 3.408a.65.65 0 0 1 .65-.65h.697a.65.65 0 0 1 0 1.3h-.697a.65.65 0 0 1-.65-.65Zm10.647-.65a.65.65 0 1 0 0 1.3h.697a.65.65 0 1 0 0-1.3h-.697Zm-7.502 6a.65.65 0 1 0 0 1.3h5.704a.65.65 0 1 0 0-1.3H9.148Zm.837-6a.65.65 0 1 0 0 1.3h.697a.65.65 0 1 0 0-1.3h-.697Zm2.683.65a.65.65 0 0 1 .65-.65h.697a.65.65 0 1 1 0 1.3h-.697a.65.65 0 0 1-.65-.65Zm3.977 2.254a.65.65 0 0 0 0 1.3h.697a.65.65 0 1 0 0-1.3h-.697Zm-10.647.65a.65.65 0 0 1 .65-.65h.697a.65.65 0 0 1 0 1.3h-.697a.65.65 0 0 1-.65-.65Zm3.982-.65a.65.65 0 0 0 0 1.3h.697a.65.65 0 1 0 0-1.3H9.98Zm2.683.65a.65.65 0 0 1 .65-.65h.697a.65.65 0 0 1 0 1.3h-.697a.65.65 0 0 1-.65-.65Z" clip-rule="evenodd"/></svg>