<svg xmlns="http://www.w3.org/2000/svg" fill="none" viewBox="0 0 24 24" focusable="false"><path fill="#717681" fill-rule="evenodd" d="M12.259 5.97a.3.3 0 0 0-.518 0L10.73 7.697l-1.956.43a.3.3 0 0 0-.16.492l1.33 1.496-.196 1.993a.3.3 0 0 0 .419.304L12 11.61l1.834.802a.3.3 0 0 0 .42-.304l-.197-1.993 1.33-1.496a.3.3 0 0 0-.16-.493l-1.956-.43L12.26 5.97Zm-.696 2.875L12 8.099l.437.746.845.185-.574.647.084.86-.792-.346-.792.346.084-.86-.574-.647.845-.185Z" clip-rule="evenodd"/><path fill="#717681" fill-rule="evenodd" d="M18.5 9.5a6.47 6.47 0 0 1-.972 3.421l2.407 5.915a.65.65 0 0 1-.742.88l-3.153-.695-1.717 2.674a.65.65 0 0 1-1.149-.107l-1.178-2.894-1.178 2.894a.65.65 0 0 1-1.153.1l-1.698-2.704-3.162.73a.65.65 0 0 1-.749-.878l2.411-5.923A6.5 6.5 0 1 1 18.5 9.5Zm-1.3 0a5.2 5.2 0 1 1-10.4 0 5.2 5.2 0 0 1 10.4 0Zm-4.068 6.402a6.484 6.484 0 0 0 3.469-1.81l1.664 4.088-2.387-.525a.65.65 0 0 0-.687.283l-1.285 2-1.208-2.968.434-1.068Zm-5.739-1.816-1.66 4.08 2.392-.553a.65.65 0 0 1 .697.288l1.27 2.023 1.6-3.931a6.479 6.479 0 0 1-4.299-1.907Z" clip-rule="evenodd"/></svg>