<svg xmlns="http://www.w3.org/2000/svg" fill="none" viewBox="0 0 40 40" focusable="false"><rect width="28" height="20" x="6" y="10" fill="#F0F2F5" rx="2"/><path fill="url(#a)" d="M17.672 18.253a1.75 1.75 0 1 1-3.499 0 1.75 1.75 0 0 1 3.5 0Z"/><path fill="url(#b)" d="M24.67 20.002a4.665 4.665 0 1 1-9.33 0 4.665 4.665 0 0 1 9.33 0Z"/><path fill="url(#c)" d="M17.672 21.752a1.75 1.75 0 1 1-3.499 0 1.75 1.75 0 0 1 3.5 0Z"/><path fill="url(#d)" d="M25.837 18.253a1.75 1.75 0 1 1-3.499 0 1.75 1.75 0 0 1 3.5 0Z"/><path fill="url(#e)" d="M25.837 21.752a1.75 1.75 0 1 1-3.499 0 1.75 1.75 0 0 1 3.5 0Z"/><path fill="url(#f)" d="M20.005 15.92a1.75 1.75 0 1 1-3.499 0 1.75 1.75 0 0 1 3.5 0Z"/><path fill="url(#g)" d="M20.005 24.084a1.75 1.75 0 1 1-3.499 0 1.75 1.75 0 0 1 3.5 0Z"/><path fill="url(#h)" d="M23.504 15.92a1.75 1.75 0 1 1-3.499 0 1.75 1.75 0 0 1 3.5 0Z"/><path fill="url(#i)" d="M23.504 24.084a1.75 1.75 0 1 1-3.499 0 1.75 1.75 0 0 1 3.5 0Z"/><path fill="url(#j)" d="m13.004 19.997 3.5-2.333v4.666l-3.5-2.333Z"/><path fill="url(#k)" d="m27 19.997-3.499-2.333v4.666l3.5-2.333Z"/><path fill="url(#l)" d="m20.005 27 2.333-3.499h-4.666l2.333 3.5Z"/><path fill="url(#m)" d="m20.005 13.004 2.333 3.5h-4.666l2.333-3.5Z"/><path fill="url(#n)" d="m14.853 14.653 4.124.825-3.299 3.3-.825-4.125Z"/><path fill="url(#o)" d="m14.653 25.314.825-4.123 3.3 3.299-4.125.824Z"/><path fill="url(#p)" d="m25.18 14.676-.825 4.124-3.3-3.3 4.125-.824Z"/><path fill="url(#q)" d="m25.292 25.287-4.123-.824 3.299-3.3.824 4.124Z"/><path fill="#fff" d="M19.814 18.262c.06-.15.09-.224.132-.246.036-.02.08-.02.116 0 .042.022.072.097.132.246l.373.933a.309.309 0 0 0 .04.083.13.13 0 0 0 .046.034c.02.009.042.01.087.015l.959.083c.155.013.232.02.266.055.029.031.042.075.036.118-.008.05-.067.103-.185.21l-.726.654a.296.296 0 0 0-.064.067.142.142 0 0 0-.017.056.322.322 0 0 0 .014.093l.22.979c.036.158.054.238.033.282a.13.13 0 0 1-.095.073c-.046.008-.112-.034-.244-.118l-.827-.525a.279.279 0 0 0-.078-.042.12.12 0 0 0-.056 0 .277.277 0 0 0-.078.042l-.827.525c-.132.084-.198.126-.245.118a.13.13 0 0 1-.094-.073c-.021-.044-.003-.124.033-.282l.22-.979A.322.322 0 0 0 19 20.57a.14.14 0 0 0-.017-.056.294.294 0 0 0-.064-.067l-.726-.654c-.118-.107-.177-.16-.185-.21a.141.141 0 0 1 .036-.117c.033-.036.11-.043.266-.056l.959-.083c.045-.004.068-.006.087-.015a.129.129 0 0 0 .045-.034.309.309 0 0 0 .04-.083l.374-.933Z"/><defs><linearGradient id="a" x1="20.002" x2="20.002" y1="13.004" y2="27" gradientUnits="userSpaceOnUse"><stop offset=".276" stop-color="#BB9026"/><stop offset=".661" stop-color="#C39931"/><stop offset="1" stop-color="#D0A742"/></linearGradient><linearGradient id="b" x1="20.002" x2="20.002" y1="13.004" y2="27" gradientUnits="userSpaceOnUse"><stop offset=".276" stop-color="#BB9026"/><stop offset=".661" stop-color="#C39931"/><stop offset="1" stop-color="#D0A742"/></linearGradient><linearGradient id="c" x1="20.002" x2="20.002" y1="13.004" y2="27" gradientUnits="userSpaceOnUse"><stop offset=".276" stop-color="#BB9026"/><stop offset=".661" stop-color="#C39931"/><stop offset="1" stop-color="#D0A742"/></linearGradient><linearGradient id="d" x1="20.002" x2="20.002" y1="13.004" y2="27" gradientUnits="userSpaceOnUse"><stop offset=".276" stop-color="#BB9026"/><stop offset=".661" stop-color="#C39931"/><stop offset="1" stop-color="#D0A742"/></linearGradient><linearGradient id="e" x1="20.002" x2="20.002" y1="13.004" y2="27" gradientUnits="userSpaceOnUse"><stop offset=".276" stop-color="#BB9026"/><stop offset=".661" stop-color="#C39931"/><stop offset="1" stop-color="#D0A742"/></linearGradient><linearGradient id="f" x1="20.002" x2="20.002" y1="13.004" y2="27" gradientUnits="userSpaceOnUse"><stop offset=".276" stop-color="#BB9026"/><stop offset=".661" stop-color="#C39931"/><stop offset="1" stop-color="#D0A742"/></linearGradient><linearGradient id="g" x1="20.002" x2="20.002" y1="13.004" y2="27" gradientUnits="userSpaceOnUse"><stop offset=".276" stop-color="#BB9026"/><stop offset=".661" stop-color="#C39931"/><stop offset="1" stop-color="#D0A742"/></linearGradient><linearGradient id="h" x1="20.002" x2="20.002" y1="13.004" y2="27" gradientUnits="userSpaceOnUse"><stop offset=".276" stop-color="#BB9026"/><stop offset=".661" stop-color="#C39931"/><stop offset="1" stop-color="#D0A742"/></linearGradient><linearGradient id="i" x1="20.002" x2="20.002" y1="13.004" y2="27" gradientUnits="userSpaceOnUse"><stop offset=".276" stop-color="#BB9026"/><stop offset=".661" stop-color="#C39931"/><stop offset="1" stop-color="#D0A742"/></linearGradient><linearGradient id="j" x1="20.002" x2="20.002" y1="13.004" y2="27" gradientUnits="userSpaceOnUse"><stop offset=".276" stop-color="#BB9026"/><stop offset=".661" stop-color="#C39931"/><stop offset="1" stop-color="#D0A742"/></linearGradient><linearGradient id="k" x1="20.002" x2="20.002" y1="13.004" y2="27" gradientUnits="userSpaceOnUse"><stop offset=".276" stop-color="#BB9026"/><stop offset=".661" stop-color="#C39931"/><stop offset="1" stop-color="#D0A742"/></linearGradient><linearGradient id="l" x1="20.002" x2="20.002" y1="13.004" y2="27" gradientUnits="userSpaceOnUse"><stop offset=".276" stop-color="#BB9026"/><stop offset=".661" stop-color="#C39931"/><stop offset="1" stop-color="#D0A742"/></linearGradient><linearGradient id="m" x1="20.002" x2="20.002" y1="13.004" y2="27" gradientUnits="userSpaceOnUse"><stop offset=".276" stop-color="#BB9026"/><stop offset=".661" stop-color="#C39931"/><stop offset="1" stop-color="#D0A742"/></linearGradient><linearGradient id="n" x1="20.002" x2="20.002" y1="13.004" y2="27" gradientUnits="userSpaceOnUse"><stop offset=".276" stop-color="#BB9026"/><stop offset=".661" stop-color="#C39931"/><stop offset="1" stop-color="#D0A742"/></linearGradient><linearGradient id="o" x1="20.002" x2="20.002" y1="13.004" y2="27" gradientUnits="userSpaceOnUse"><stop offset=".276" stop-color="#BB9026"/><stop offset=".661" stop-color="#C39931"/><stop offset="1" stop-color="#D0A742"/></linearGradient><linearGradient id="p" x1="20.002" x2="20.002" y1="13.004" y2="27" gradientUnits="userSpaceOnUse"><stop offset=".276" stop-color="#BB9026"/><stop offset=".661" stop-color="#C39931"/><stop offset="1" stop-color="#D0A742"/></linearGradient><linearGradient id="q" x1="20.002" x2="20.002" y1="13.004" y2="27" gradientUnits="userSpaceOnUse"><stop offset=".276" stop-color="#BB9026"/><stop offset=".661" stop-color="#C39931"/><stop offset="1" stop-color="#D0A742"/></linearGradient></defs></svg>