<svg xmlns="http://www.w3.org/2000/svg" fill="none" viewBox="0 0 28 28" focusable="false"><rect width="28" height="20" y="4" fill="#fff" rx="3"/><mask id="a" width="28" height="20" x="0" y="4" maskUnits="userSpaceOnUse" style="mask-type:luminance"><rect width="28" height="20" y="4" fill="#fff" rx="3"/></mask><g mask="url(#a)"><path fill="#E81B26" d="M0 4h28v20H0z"/><path fill="#FFE94F" fill-rule="evenodd" d="M14 17.333a3.333 3.333 0 1 0 0-6.666 3.333 3.333 0 0 0 0 6.666ZM10.208 11.28c.201-.28.433-.538.69-.766L1.962.469-.715 3.442l10.923 7.837Zm.69 6.207a4.691 4.691 0 0 1-.69-.766L-.715 24.558l2.677 2.973 8.936-10.044Zm2.187 1.09L12 24h4l-1.085-5.423a4.687 4.687 0 0 1-1.83 0Zm4.707-1.856c-.201.28-.433.537-.69.765l8.936 10.045 2.677-2.973-10.923-7.837ZM9.38 14.66a4.707 4.707 0 0 1 0-1.321L0 12v4l9.38-1.34Zm3.705-5.238L12 4h4l-1.085 5.423a4.69 4.69 0 0 0-1.83 0Zm5.535 3.917a4.694 4.694 0 0 1 0 1.32L28 16v-4l-9.38 1.34Zm-.828-2.06a4.691 4.691 0 0 0-.69-.766L26.038.469l2.677 2.973-10.923 7.837Z" clip-rule="evenodd"/></g></svg>