<svg xmlns="http://www.w3.org/2000/svg" fill="none" viewBox="0 0 24 24" focusable="false"><path fill="#717681" d="M3.028 7.588c-.053.383.285.702.672.702h16.665c.35 0 .655-.286.615-.635A3.001 3.001 0 0 0 18 5H6a3 3 0 0 0-2.972 2.588Z"/><path fill="#717681" fill-rule="evenodd" d="M3 16a3 3 0 0 0 3 3h12a3 3 0 0 0 3-3v-5.71a.7.7 0 0 0-.7-.7H3.7a.7.7 0 0 0-.7.7V16Zm9.325-3.955a.65.65 0 0 1 .65-.65h3.309a.65.65 0 0 1 .65.65v4.47a.65.65 0 1 1-1.3 0v-3.82h-2.009v3.82a.65.65 0 1 1-1.3 0v-4.47Zm-4.18.866a.9.9 0 0 1 .567-.202h.458a.44.44 0 0 1 0 .88h-.086a.65.65 0 0 0 0 1.3h.155a.49.49 0 1 1 0 .98h-.481a.971.971 0 0 1-.613-.218l-.018-.015a.65.65 0 0 0-.82 1.009l.017.014c.405.33.911.51 1.434.51h.481a1.79 1.79 0 0 0 1.331-2.986 1.74 1.74 0 0 0-1.4-2.775h-.458c-.506 0-.997.175-1.39.495l-.016.014a.65.65 0 1 0 .821 1.007l.017-.013Z" clip-rule="evenodd"/></svg>