<svg xmlns="http://www.w3.org/2000/svg" fill="none" viewBox="0 0 24 24" focusable="false"><path fill="#717681" fill-rule="evenodd" d="M7.565 7.968a4.464 4.464 0 1 1 8.87 0l-.262 2.306a4.2 4.2 0 0 1-8.346 0l-.262-2.306Zm7.579-.147-.262 2.306a2.9 2.9 0 0 1-5.764 0l-.262-2.306a3.164 3.164 0 1 1 6.288 0ZM4.29 19.698A6 6 0 0 1 10.145 15h3.708a6 6 0 0 1 5.857 4.698l.1.45a.7.7 0 0 1-.684.852H4.873a.7.7 0 0 1-.684-.852l.1-.45Zm9.564-3.398a4.7 4.7 0 0 1 4.516 3.4H5.63a4.7 4.7 0 0 1 4.516-3.4h3.708Z" clip-rule="evenodd"/></svg>