<svg xmlns="http://www.w3.org/2000/svg" fill="none" viewBox="0 0 24 24" focusable="false"><path fill="#7A7E88" fill-rule="evenodd" d="M8.659 10.182a3.363 3.363 0 1 1 6.682 0l-.197 1.738a3.164 3.164 0 0 1-6.288 0l-.197-1.738ZM12 7.74a2.063 2.063 0 0 0-2.05 2.296l.198 1.737a1.864 1.864 0 0 0 3.704 0l.198-1.737A2.063 2.063 0 0 0 12 7.74Z" clip-rule="evenodd"/><path fill="#7A7E88" fill-rule="evenodd" d="M17.633 19.02A9 9 0 1 0 6.377 4.972a9 9 0 0 0 11.251 14.05.237.237 0 0 0 .005-.004Zm-1.694-.402A7.664 7.664 0 0 1 12 19.7a7.664 7.664 0 0 1-3.938-1.082 3.22 3.22 0 0 1 2.542-1.243h2.793a3.22 3.22 0 0 1 2.542 1.243Zm1.056-.758a4.52 4.52 0 0 0-3.599-1.785h-2.792a4.52 4.52 0 0 0-3.6 1.785 7.7 7.7 0 1 1 9.99 0Z" clip-rule="evenodd"/></svg>