<svg xmlns="http://www.w3.org/2000/svg" fill="none" viewBox="0 0 24 24" focusable="false"><path fill="#717681" d="M10.24 18.463a1.3 1.3 0 0 0-1.496-.052L6.83 19.663a.343.343 0 0 1-.53-.287V6A1.7 1.7 0 0 1 8 4.3h8A1.7 1.7 0 0 1 17.7 6v6.046a.65.65 0 1 0 1.3 0V6a3 3 0 0 0-3-3H8a3 3 0 0 0-3 3v13.376a1.643 1.643 0 0 0 2.542 1.375l1.914-1.252 1.52 1.15a1.7 1.7 0 0 0 2.045.005l.948-.71a.65.65 0 0 0-.78-1.04l-.947.71a.4.4 0 0 1-.482 0l-1.52-1.151Z"/><path fill="#717681" d="M8.019 7.643a.65.65 0 0 1 .65-.65h6.7a.65.65 0 0 1 0 1.3h-6.7a.65.65 0 0 1-.65-.65ZM8.019 10.642a.65.65 0 0 1 .65-.65h6.7a.65.65 0 0 1 0 1.3h-6.7a.65.65 0 0 1-.65-.65ZM8.669 12.991a.65.65 0 1 0 0 1.3h3.207a.65.65 0 1 0 0-1.3H8.669Z"/><path fill="#717681" fill-rule="evenodd" d="m19.72 15.97-1.105-1.834a.3.3 0 0 0-.514 0l-1.105 1.835-2.086.483a.3.3 0 0 0-.159.489l1.404 1.617-.185 2.134a.3.3 0 0 0 .416.302l1.972-.835 1.972.835a.3.3 0 0 0 .416-.302l-.185-2.134 1.404-1.617a.3.3 0 0 0-.16-.489l-2.086-.483Zm-.83 1.143 1.003.233-.675.778.089 1.027-.95-.402-.948.402.089-1.027-.676-.778 1.004-.233.532-.883.531.883Z" clip-rule="evenodd"/></svg>