<svg xmlns="http://www.w3.org/2000/svg" fill="none" viewBox="0 0 24 24" focusable="false"><path fill="#717681" fill-rule="evenodd" d="M7 3a3 3 0 0 0-3 3v5.35H2.65a.65.65 0 1 0 0 1.3H21.35a.65.65 0 1 0 0-1.3h-1.35V9.297a3 3 0 0 0-.946-2.185L15.55 3.815A3 3 0 0 0 13.495 3H7Zm5.163 11.424c.116-.21-.03-.48-.27-.48H4.3a.3.3 0 0 0-.3.3V18a3 3 0 0 0 3 3h4.863c.239 0 .385-.267.272-.477a6.383 6.383 0 0 1-.756-3.023c0-1.115.284-2.163.784-3.076ZM14.99 9h3.402a.3.3 0 0 0 .206-.518L14.195 4.32a.3.3 0 0 0-.506.218V7.7a1.3 1.3 0 0 0 1.3 1.3Zm2.985 12.352a3.853 3.853 0 0 1-3.814-3.306l-.407.414a.65.65 0 1 1-.927-.91l1.55-1.579a.65.65 0 0 1 .919-.008l1.578 1.55a.65.65 0 0 1-.911.927l-.5-.491a2.553 2.553 0 1 0 1.675-2.861.65.65 0 0 1-.426-1.228 3.852 3.852 0 1 1 1.264 7.493Z" clip-rule="evenodd"/></svg>