<svg xmlns="http://www.w3.org/2000/svg" fill="none" viewBox="0 0 24 24" focusable="false"><path fill="#717681" fill-rule="evenodd" d="M19.628 13.908c.049-.346.074-.7.074-1.06 0-3.207-1.994-5.948-4.815-7.08C14.837 4.231 13.562 3 11.998 3 10.434 3 9.16 4.231 9.11 5.768c-2.82 1.132-4.814 3.873-4.814 7.08 0 .36.025.714.073 1.06A2.855 2.855 0 0 0 3 16.342c0 1.581 1.294 2.863 2.89 2.863a2.9 2.9 0 0 0 1.366-.339 7.716 7.716 0 0 0 4.742 1.619 7.716 7.716 0 0 0 4.743-1.619 2.9 2.9 0 0 0 1.365.339c1.596 0 2.89-1.282 2.89-2.863 0-1.028-.546-1.93-1.368-2.434Zm-6.04-8.045c0 .851-.7 1.563-1.59 1.563-.89 0-1.59-.712-1.59-1.563s.7-1.563 1.59-1.563c.89 0 1.59.712 1.59 1.563Zm1.034 1.204a2.893 2.893 0 0 1-2.624 1.659 2.893 2.893 0 0 1-2.623-1.659c-2.23.992-3.78 3.21-3.78 5.782 0 .216.01.43.032.642.087-.008.175-.012.264-.012 1.596 0 2.89 1.282 2.89 2.863 0 .614-.195 1.182-.526 1.648a6.418 6.418 0 0 0 3.743 1.195 6.418 6.418 0 0 0 3.744-1.195 2.83 2.83 0 0 1-.527-1.648c0-1.581 1.294-2.863 2.891-2.863.089 0 .177.004.263.012.022-.211.033-.425.033-.642 0-2.571-1.55-4.79-3.78-5.782ZM5.89 17.905c.89 0 1.59-.712 1.59-1.563s-.7-1.563-1.59-1.563c-.89 0-1.591.712-1.591 1.563 0 .852.7 1.563 1.59 1.563Zm13.806-1.563c0 .852-.7 1.563-1.591 1.563-.89 0-1.59-.712-1.59-1.563s.7-1.563 1.59-1.563c.89 0 1.59.712 1.59 1.563Z" clip-rule="evenodd"/></svg>