<svg xmlns="http://www.w3.org/2000/svg" fill="none" viewBox="0 0 24 24" focusable="false"><path fill="#717681" fill-rule="evenodd" d="m20.167 19.248 1.637 1.636a.65.65 0 1 1-.919.92l-1.636-1.636a3.227 3.227 0 1 1 .918-.92Zm-4.624-1.773a1.927 1.927 0 1 0 3.854 0 1.927 1.927 0 0 0-3.854 0Z" clip-rule="evenodd"/><path fill="#717681" fill-rule="evenodd" d="M20 13.15c0 .24-.272.387-.486.278a4.529 4.529 0 0 0-6.086 6.086c.109.214-.038.486-.278.486H7a3 3 0 0 1-3-3V7a3 3 0 0 1 3-3h10a3 3 0 0 1 3 3v6.15Zm-8.624-1.8a.65.65 0 1 1 0 1.3H8.672a.65.65 0 1 1 0-1.3h2.704Zm3.98-3.51a.65.65 0 1 1 0 1.3H8.673a.65.65 0 0 1 0-1.3h6.685Z" clip-rule="evenodd"/></svg>