<svg xmlns="http://www.w3.org/2000/svg" fill="none" viewBox="0 0 24 24" focusable="false"><path fill="#717681" d="M12.65 6.07V3.636a.65.65 0 1 0-1.3 0v2.436a3.001 3.001 0 1 0 1.3 0ZM12.65 20.362a.65.65 0 1 1-1.3 0v-5.865a.65.65 0 1 1 1.3 0v5.865ZM6 10.172a.65.65 0 0 0 .65-.65V3.635a.65.65 0 1 0-1.3 0v5.887c0 .359.29.65.65.65ZM18.65 3.635a.65.65 0 1 0-1.3 0v5.89a.65.65 0 1 0 1.3 0v-5.89ZM18.65 17.93a3.001 3.001 0 1 0-1.3 0v2.432a.65.65 0 1 0 1.3 0V17.93ZM6 21.012a.65.65 0 0 0 .65-.65v-2.435a3.001 3.001 0 1 0-1.3 0v2.435c0 .359.29.65.65.65Z"/></svg>