<svg xmlns="http://www.w3.org/2000/svg" fill="none" viewBox="0 0 28 28" focusable="false"><rect width="28" height="20" y="4" fill="#fff" rx="3"/><mask id="a" width="28" height="20" x="0" y="4" maskUnits="userSpaceOnUse" style="mask-type:luminance"><rect width="28" height="20" y="4" fill="#fff" rx="3"/></mask><g mask="url(#a)"><path fill="#E92434" d="M0 4h28v20H0z"/><path fill="#fff" fill-rule="evenodd" d="m19.02 14.768-1.224 1.485.084-1.923-1.791-.706 1.854-.515.118-1.921 1.063 1.605 1.864-.482-1.198 1.507 1.034 1.624-1.803-.674Z" clip-rule="evenodd"/><path fill="#fff" fill-rule="evenodd" d="M17.403 17.684a6 6 0 1 1 0-7.368 5.21 5.21 0 0 0-3.07-.983c-2.761 0-5 2.09-5 4.667s2.239 4.667 5 4.667a5.21 5.21 0 0 0 3.07-.983Z" clip-rule="evenodd"/></g></svg>