<svg xmlns="http://www.w3.org/2000/svg" fill="none" viewBox="0 0 24 24" focusable="false"><path fill="#717681" d="M12 13.796a.65.65 0 0 0 .65-.65V8a.65.65 0 1 0-1.3 0v5.146c0 .36.291.65.65.65ZM12 16.65a.75.75 0 1 0 0-1.5.75.75 0 0 0 0 1.5Z"/><path fill="#717681" fill-rule="evenodd" d="M4 6.015a1.3 1.3 0 0 1 .985-1.261l6.287-1.572a3 3 0 0 1 1.456 0l6.287 1.572A1.3 1.3 0 0 1 20 6.015v5.23a9 9 0 0 1-4.23 7.632l-3.081 1.926a1.3 1.3 0 0 1-1.378 0L8.23 18.877A9 9 0 0 1 4 11.245v-5.23Zm14.7 0v5.23a7.7 7.7 0 0 1-3.619 6.53L12 19.701l-3.081-1.926a7.7 7.7 0 0 1-3.619-6.53v-5.23l6.288-1.572a1.7 1.7 0 0 1 .824 0L18.7 6.015Z" clip-rule="evenodd"/></svg>