<svg xmlns="http://www.w3.org/2000/svg" fill="none" viewBox="0 0 24 24" focusable="false"><path fill="#717681" fill-rule="evenodd" d="M12 21a9 9 0 1 0 0-18 9 9 0 0 0 0 18Zm2.88-13.86-.228-.868a.65.65 0 0 1 .438-.81.65.65 0 0 1 .81.439l.712 2.519a.69.69 0 0 1-.515.88l-2.43.484a.65.65 0 0 1-.78-.49.526.526 0 0 1 .057-.453.66.66 0 0 1 .423-.308l.962-.207a4.35 4.35 0 0 0-6.673 3.915.65.65 0 0 1-1.298.074A5.65 5.65 0 0 1 14.88 7.14Zm2.762 4.545a.65.65 0 0 0-1.298.073 4.35 4.35 0 0 1-6.673 3.916l.962-.207a.66.66 0 0 0 .423-.308.526.526 0 0 0 .057-.454.65.65 0 0 0-.78-.49l-2.43.484a.69.69 0 0 0-.515.881L8.1 18.1a.65.65 0 0 0 .81.437.65.65 0 0 0 .438-.81l-.228-.866a5.65 5.65 0 0 0 8.522-5.176Z" clip-rule="evenodd"/></svg>