<svg xmlns="http://www.w3.org/2000/svg" fill="none" viewBox="0 0 28 28" focusable="false"><rect width="27.5" height="19.5" x=".25" y="4.25" fill="#fff" stroke="#D6D8DD" stroke-width=".5" rx="2.75"/><mask id="a" width="28" height="20" x="0" y="4" maskUnits="userSpaceOnUse" style="mask-type:luminance"><rect width="27.5" height="19.5" x=".25" y="4.25" fill="#fff" stroke="#fff" stroke-width=".5" rx="2.75"/></mask><g fill-rule="evenodd" clip-rule="evenodd" mask="url(#a)"><path fill="#0E4DC5" d="M28 6.667H13.333v2.666H28V6.667ZM13.333 12v2.667H28V12H13.333Zm0 5.333H0V20h28v-2.667H13.333ZM0 24v-1.333h28V24H0Z"/><path fill="#FED443" d="m6.667 13.321-.89 1.329-.226-1.583-1.378.81.484-1.524-1.594.133 1.097-1.164-1.493-.572 1.493-.572-1.097-1.163 1.594.132-.484-1.524 1.378.81.226-1.582.89 1.328.89-1.328.225 1.583 1.379-.811-.484 1.524 1.594-.132-1.098 1.163 1.494.572-1.494.572 1.098 1.164-1.594-.133.484 1.525-1.379-.811-.225 1.583-.89-1.329Zm0-.025a2.545 2.545 0 1 0 0-5.091 2.545 2.545 0 0 0 0 5.09Zm2-2.63a2 2 0 1 1-4 0 2 2 0 0 1 4 0Z"/></g></svg>