<svg xmlns="http://www.w3.org/2000/svg" fill="none" viewBox="0 0 24 24" focusable="false"><path fill="#717681" d="M17.375 19.524a1 1 0 1 0 0-2 1 1 0 0 0 0 2Z"/><path fill="#717681" fill-rule="evenodd" d="M21.545 17.267a1.944 1.944 0 0 1-.01 2.459C20.716 20.735 19.301 22 17.344 22c-1.961 0-3.374-1.27-4.187-2.28a1.941 1.941 0 0 1-.011-2.448C13.95 16.263 15.354 15 17.345 15c1.988 0 3.393 1.259 4.2 2.267Zm-1.021 1.64c-.73.903-1.812 1.793-3.18 1.793s-2.447-.892-3.174-1.795a.642.642 0 0 1-.006-.823c.709-.89 1.778-1.782 3.18-1.782 1.402 0 2.474.89 3.186 1.78a.644.644 0 0 1-.006.828Z" clip-rule="evenodd"/><path fill="#717681" d="M19.151 13.982c.408.131.849-.156.849-.584V7a3 3 0 0 0-3-3H7a3 3 0 0 0-3 3v10a3 3 0 0 0 3 3h3.923c.395 0 .655-.432.57-.818-.06-.27-.283-.482-.56-.482H7A1.7 1.7 0 0 1 5.3 17V7A1.7 1.7 0 0 1 7 5.3h10A1.7 1.7 0 0 1 18.7 7v6.4c0 .268.197.5.451.582Z"/><path fill="#717681" d="M13.271 10.12a.65.65 0 1 0-1.24-.389l-1.303 4.148a.65.65 0 1 0 1.24.39l1.303-4.148ZM9.6 9.433c.285.22.33.62.1.894L8.291 12l1.41 1.673a.617.617 0 0 1-.101.894.685.685 0 0 1-.934-.096L6.92 12.399a.614.614 0 0 1 0-.798L8.666 9.53a.685.685 0 0 1 .934-.096ZM14.3 10.327a.617.617 0 0 1 .1-.894.685.685 0 0 1 .934.096l1.745 2.072a.614.614 0 0 1 0 .798l-1.745 2.072a.685.685 0 0 1-.934.096.617.617 0 0 1-.1-.894L15.708 12l-1.41-1.673Z"/></svg>