<svg xmlns="http://www.w3.org/2000/svg" fill="none" viewBox="0 0 24 24" focusable="false"><path fill="#717681" d="M11.736 8.57a.65.65 0 0 0-.196.899l1.216 1.892-1.214 1.863a.65.65 0 1 0 1.09.71l1.02-1.567 1.02 1.566a.65.65 0 0 0 1.09-.71l-1.214-1.862 1.216-1.892a.65.65 0 1 0-1.094-.703l-1.018 1.584-1.018-1.584a.65.65 0 0 0-.899-.196Z"/><path fill="#717681" fill-rule="evenodd" d="M20.65 6.35a3 3 0 0 0-3-3h-8a3 3 0 0 0-3 3v10a3 3 0 0 0 3 3h8a3 3 0 0 0 3-3v-10Zm-3-1.7h-8a1.7 1.7 0 0 0-1.7 1.7v10a1.7 1.7 0 0 0 1.7 1.7h8a1.7 1.7 0 0 0 1.7-1.7v-10a1.7 1.7 0 0 0-1.7-1.7Z" clip-rule="evenodd"/><path fill="#717681" d="M4.65 8.7a.65.65 0 0 0-.65.65v9.4A3.25 3.25 0 0 0 7.25 22h8.4a.65.65 0 1 0 0-1.3h-8.4a1.95 1.95 0 0 1-1.95-1.95v-9.4a.65.65 0 0 0-.65-.65Z"/></svg>