<svg xmlns="http://www.w3.org/2000/svg" fill="none" viewBox="0 0 24 24" focusable="false"><path fill="#717681" fill-rule="evenodd" d="M17.65 4.65H9.668a1.7 1.7 0 0 0-1.7 1.7v10.016a1.7 1.7 0 0 0 1.7 1.7h7.982a1.7 1.7 0 0 0 1.7-1.7V6.35a1.7 1.7 0 0 0-1.7-1.7Zm-7.982-1.3a3 3 0 0 0-3 3v10.016a3 3 0 0 0 3 3h7.982a3 3 0 0 0 3-3V6.35a3 3 0 0 0-3-3H9.668ZM4.713 8.702a.65.65 0 0 1 .65.65v9.461a1.85 1.85 0 0 0 1.85 1.85h8.443a.65.65 0 1 1 0 1.3H7.213a3.15 3.15 0 0 1-3.15-3.15v-9.46a.65.65 0 0 1 .65-.65Zm6.915 1.525a.65.65 0 0 0-1.029-.794l-1.162 1.505a.65.65 0 0 0-.005.787l1.162 1.55a.65.65 0 0 0 1.04-.78l-.865-1.154.86-1.114Zm4.23 3.173a.65.65 0 0 1-.118-.912l.86-1.113-.866-1.155a.65.65 0 1 1 1.04-.78l1.162 1.55a.65.65 0 0 1-.005.788l-1.162 1.505a.65.65 0 0 1-.912.117Zm-1.091-3.517a.65.65 0 0 0-1.257-.333l-.87 3.292a.65.65 0 0 0 1.257.332l.87-3.291Z" clip-rule="evenodd"/></svg>