<svg width="24.000000" height="24.000000" viewBox="0 0 24 24" fill="none" xmlns="http://www.w3.org/2000/svg" xmlns:xlink="http://www.w3.org/1999/xlink">
	<desc>
			Created with Pixso.
	</desc>
	<defs/>
	<path id="Shape" d="M7 4C5.34 4 4 5.34 4 7L4 8.64C4 9.03 4.31 9.35 4.7 9.35L19.29 9.35C19.68 9.35 20 9.03 20 8.64L20 7C20 5.34 18.65 4 17 4L7 4ZM4.7 10.65C4.31 10.65 4 10.96 4 11.35L4 17C4 18.65 5.34 20 7 20L17 20C18.65 20 20 18.65 20 17L20 11.35C20 10.96 19.68 10.65 19.29 10.65L4.7 10.65ZM9.35 14.13C9.35 13.77 9.64 13.48 10 13.48L14 13.48C14.35 13.48 14.64 13.77 14.64 14.13C14.64 14.48 14.35 14.78 14 14.78L10 14.78C9.64 14.78 9.35 14.48 9.35 14.13Z" fill="#717681" fill-opacity="1.000000" fill-rule="evenodd"/>
</svg>
