<svg width="24.000000" height="24.000000" viewBox="0 0 24 24" fill="none" xmlns="http://www.w3.org/2000/svg" xmlns:xlink="http://www.w3.org/1999/xlink">
	<desc>
			Created with Pixso.
	</desc>
	<defs>
		<clipPath id="clip17_94">
			<rect id="Solid / Check Solid" width="24.000000" height="24.000000" fill="white" fill-opacity="0"/>
		</clipPath>
	</defs>
	<g>
		<path id="Shape" d="M3 12C3 7.02 7.02 3 12 3C16.97 3 21 7.02 21 12C21 16.97 16.97 21 12 21C7.02 21 3 16.97 3 12ZM10.79 15.28C11.06 15.56 11.52 15.55 11.79 15.26L16.21 10.46C16.45 10.19 16.43 9.78 16.18 9.54C15.91 9.3 15.5 9.31 15.25 9.58L11.27 13.92L8.87 11.52C8.62 11.27 8.19 11.27 7.94 11.52C7.69 11.77 7.69 12.19 7.94 12.44L10.79 15.28Z" fill="#717681" fill-opacity="1.000000" fill-rule="evenodd"/>
	</g>
</svg>
