<svg width="24.000000" height="24.000000" viewBox="0 0 24 24" fill="none" xmlns="http://www.w3.org/2000/svg" xmlns:xlink="http://www.w3.org/1999/xlink">
	<desc>
			Created with Pixso.
	</desc>
	<defs>
		<clipPath id="clip17_43">
			<rect id="Outline / Check Outline" width="24.000000" height="24.000000" fill="white" fill-opacity="0"/>
		</clipPath>
	</defs>
	<g clip-path="url(#clip17_43)">
		<path id="Shape" d="M3 12C3 7.02 7.02 3 12 3C16.97 3 21 7.02 21 12C21 16.97 16.97 21 12 21C7.02 21 3 16.97 3 12ZM12 4.29C7.74 4.29 4.29 7.74 4.29 12C4.29 16.25 7.74 19.7 12 19.7C16.25 19.7 19.7 16.25 19.7 12C19.7 7.74 16.25 4.29 12 4.29ZM11.79 15.27C11.52 15.56 11.06 15.57 10.79 15.29L7.95 12.45C7.7 12.2 7.7 11.78 7.95 11.53C8.2 11.28 8.62 11.28 8.87 11.53L11.27 13.93L15.26 9.59C15.5 9.32 15.91 9.31 16.18 9.54C16.43 9.78 16.45 10.2 16.22 10.47L11.79 15.27Z" fill="#717681" fill-opacity="1.000000" fill-rule="evenodd"/>
	</g>
</svg>
