<svg width="24.000000" height="24.000000" viewBox="0 0 24 24" fill="none" xmlns="http://www.w3.org/2000/svg" xmlns:xlink="http://www.w3.org/1999/xlink">
	<desc>
			Created with Pixso.
	</desc>
	<defs>
		<clipPath id="clip17_129">
			<rect id="Solid / Close Circle Solid" width="24.000000" height="24.000000" fill="white" fill-opacity="0"/>
		</clipPath>
	</defs>
	<g clip-path="url(#clip17_129)">
		<path id="Shape" d="M3 12C3 7.02 7.02 3 12 3C16.97 3 21 7.02 21 12C21 16.97 16.97 21 12 21C7.02 21 3 16.97 3 12ZM16 8.08C16.25 8.33 16.25 8.74 16 9L12.91 12L15.91 15.08C16.17 15.33 16.17 15.74 15.91 16C15.66 16.25 15.25 16.25 15 16L12 12.91L9 16C8.74 16.25 8.33 16.25 8.08 16C7.82 15.74 7.82 15.33 8.08 15.08L11.08 12L8.08 9C7.82 8.74 7.82 8.33 8.08 8.08C8.33 7.82 8.74 7.82 9 8.08L12 11.08L15.08 8.08C15.33 7.82 15.74 7.82 16 8.08Z" fill="#74767B" fill-opacity="1.000000" fill-rule="evenodd"/>
	</g>
</svg>
