<svg width="24.000000" height="24.000000" viewBox="0 0 24 24" fill="none" xmlns="http://www.w3.org/2000/svg" xmlns:xlink="http://www.w3.org/1999/xlink">
	<desc>
			Created with Pixso.
	</desc>
	<defs>
		<clipPath id="clip17_184">
			<rect id="Solid / Cut Solid" width="24.000000" height="24.000000" transform="matrix(1 -6.12324e-17 -6.12324e-17 -1 0 24)" fill="white" fill-opacity="0"/>
		</clipPath>
	</defs>
	<g>
		<path id="Shape" d="M21 12C21 16.97 16.97 21 12 21C7.02 21 3 16.97 3 12C3 7.02 7.02 3 12 3C16.97 3 21 7.02 21 12ZM8.66 16.22C9.28 16.22 9.78 15.72 9.78 15.1C9.78 14.48 9.28 13.98 8.66 13.98C8.04 13.98 7.53 14.48 7.53 15.1C7.53 15.72 8.04 16.22 8.66 16.22ZM8.66 17.52C10 17.52 11.08 16.44 11.08 15.1C11.08 14.68 10.97 14.28 10.78 13.93L11.77 12.95L16.16 17.34C16.42 17.59 16.83 17.59 17.08 17.34C17.34 17.09 17.34 16.67 17.08 16.42L10.77 10.1C10.97 9.75 11.08 9.34 11.08 8.91C11.08 7.57 10 6.48 8.66 6.48C7.32 6.48 6.23 7.57 6.23 8.91C6.23 10.24 7.32 11.33 8.66 11.33C9.09 11.33 9.49 11.22 9.84 11.02L10.85 12.03L9.88 13C9.52 12.79 9.1 12.68 8.66 12.68C7.32 12.68 6.23 13.76 6.23 15.1C6.23 16.44 7.32 17.52 8.66 17.52ZM9.78 8.91C9.78 9.53 9.28 10.03 8.66 10.03C8.04 10.03 7.53 9.53 7.53 8.91C7.53 8.29 8.04 7.78 8.66 7.78C9.28 7.78 9.78 8.29 9.78 8.91ZM13.14 9.74C12.89 9.99 12.89 10.4 13.14 10.66C13.39 10.91 13.81 10.91 14.06 10.66L17.16 7.56C17.41 7.31 17.41 6.89 17.16 6.64C16.9 6.39 16.49 6.39 16.24 6.64L13.14 9.74Z" fill="#717681" fill-opacity="1.000000" fill-rule="evenodd"/>
	</g>
</svg>
