<svg width="24.000000" height="24.000000" viewBox="0 0 24 24" fill="none" xmlns="http://www.w3.org/2000/svg" xmlns:xlink="http://www.w3.org/1999/xlink">
	<desc>
			Created with Pixso.
	</desc>
	<defs>
		<clipPath id="clip17_169">
			<rect id="Outline / Cut Outline" width="24.000000" height="24.000000" transform="matrix(1 -6.12324e-17 -6.12324e-17 -1 0 24)" fill="white" fill-opacity="0"/>
		</clipPath>
	</defs>
	<g >
		<path id="Shape" d="M12.36 11.43L10.38 9.45C10.77 8.88 11 8.2 11 7.46C11 5.52 9.43 3.95 7.49 3.95C5.55 3.95 3.97 5.52 3.97 7.46C3.97 9.4 5.55 10.97 7.49 10.97C8.22 10.97 8.9 10.75 9.46 10.36L11.08 11.98L9.51 13.56C8.93 13.16 8.24 12.92 7.49 12.92C5.55 12.92 3.97 14.5 3.97 16.44C3.97 18.38 5.55 19.95 7.49 19.95C9.43 19.95 11 18.38 11 16.44C11 15.72 10.78 15.05 10.41 14.49L12 12.9L18.95 19.85C19.2 20.1 19.61 20.1 19.87 19.85C20.12 19.6 20.12 19.18 19.87 18.93L12.56 11.62C12.54 11.58 12.51 11.55 12.47 11.51C12.44 11.48 12.4 11.45 12.36 11.43ZM9.15 14.98C9.49 15.37 9.7 15.88 9.7 16.44C9.7 17.66 8.71 18.65 7.49 18.65C6.27 18.65 5.27 17.66 5.27 16.44C5.27 15.22 6.27 14.22 7.49 14.22C8.07 14.22 8.6 14.45 9 14.82C9.02 14.85 9.04 14.88 9.07 14.91C9.1 14.94 9.13 14.96 9.15 14.98ZM9.7 7.46C9.7 8.68 8.71 9.67 7.49 9.67C6.27 9.67 5.27 8.68 5.27 7.46C5.27 6.24 6.27 5.25 7.49 5.25C8.71 5.25 9.7 6.24 9.7 7.46ZM13.39 9.68C13.14 9.93 13.14 10.34 13.39 10.59C13.65 10.85 14.06 10.85 14.31 10.59L19.87 5.04C20.12 4.78 20.12 4.37 19.87 4.12C19.61 3.87 19.2 3.87 18.95 4.12L13.39 9.68Z" fill="#74767B" fill-opacity="1.000000" fill-rule="evenodd"/>
	</g>
</svg>
