<svg width="24.000000" height="24.000000" viewBox="0 0 24 24" fill="none" xmlns="http://www.w3.org/2000/svg" xmlns:xlink="http://www.w3.org/1999/xlink">
	<desc>
			Created with Pixso.
	</desc>
	<defs>
		<clipPath id="clip108284_1130">
			<rect id="Outline / Dots Menu Outline" width="24.000000" height="24.000000" fill="white" fill-opacity="0"/>
		</clipPath>
	</defs>
	<g clip-path="url(#clip108284_1130)">
		<path id="Shape" d="M4 5.29C4 4.58 4.58 4 5.29 4L6.7 4C7.41 4 8 4.58 8 5.29L8 6.7C8 7.41 7.41 8 6.7 8L5.29 8C4.58 8 4 7.41 4 6.7L4 5.29ZM10 5.29C10 4.58 10.58 4 11.29 4L12.7 4C13.41 4 14 4.58 14 5.29L14 6.7C14 7.41 13.41 8 12.7 8L11.29 8C10.58 8 10 7.41 10 6.7L10 5.29ZM16 5.29C16 4.58 16.58 4 17.29 4L18.7 4C19.41 4 20 4.58 20 5.29L20 6.7C20 7.41 19.41 8 18.7 8L17.29 8C16.58 8 16 7.41 16 6.7L16 5.29ZM5.75 5.29C5.5 5.29 5.29 5.5 5.29 5.75L5.29 6.24C5.29 6.49 5.5 6.7 5.75 6.7L6.24 6.7C6.49 6.7 6.7 6.49 6.7 6.24L6.7 5.75C6.7 5.5 6.49 5.29 6.24 5.29L5.75 5.29ZM11.75 5.29C11.5 5.29 11.29 5.5 11.29 5.75L11.29 6.24C11.29 6.49 11.5 6.7 11.75 6.7L12.24 6.7C12.49 6.7 12.7 6.49 12.7 6.24L12.7 5.75C12.7 5.5 12.49 5.29 12.24 5.29L11.75 5.29ZM17.75 5.29C17.5 5.29 17.29 5.5 17.29 5.75L17.29 6.24C17.29 6.49 17.5 6.7 17.75 6.7L18.24 6.7C18.49 6.7 18.7 6.49 18.7 6.24L18.7 5.75C18.7 5.5 18.49 5.29 18.24 5.29L17.75 5.29ZM4 11.3C4 10.58 4.58 10 5.29 10L6.7 10C7.41 10 8 10.58 8 11.3L8 12.7C8 13.41 7.41 14 6.7 14L5.29 14C4.58 14 4 13.41 4 12.7L4 11.3ZM10 11.3C10 10.58 10.58 10 11.29 10L12.7 10C13.41 10 14 10.58 14 11.3L14 12.7C14 13.41 13.41 14 12.7 14L11.29 14C10.58 14 10 13.41 10 12.7L10 11.3ZM16 11.3C16 10.58 16.58 10 17.29 10L18.7 10C19.41 10 20 10.58 20 11.3L20 12.7C20 13.41 19.41 14 18.7 14L17.29 14C16.58 14 16 13.41 16 12.7L16 11.3ZM5.75 11.3C5.5 11.3 5.29 11.5 5.29 11.75L5.29 12.24C5.29 12.49 5.5 12.7 5.75 12.7L6.24 12.7C6.49 12.7 6.7 12.49 6.7 12.24L6.7 11.75C6.7 11.5 6.49 11.3 6.24 11.3L5.75 11.3ZM11.75 11.3C11.5 11.3 11.29 11.5 11.29 11.75L11.29 12.24C11.29 12.49 11.5 12.7 11.75 12.7L12.24 12.7C12.49 12.7 12.7 12.49 12.7 12.24L12.7 11.75C12.7 11.5 12.49 11.3 12.24 11.3L11.75 11.3ZM17.75 11.3C17.5 11.3 17.29 11.5 17.29 11.75L17.29 12.24C17.29 12.49 17.5 12.7 17.75 12.7L18.24 12.7C18.49 12.7 18.7 12.49 18.7 12.24L18.7 11.75C18.7 11.5 18.49 11.3 18.24 11.3L17.75 11.3ZM4 17.29C4 16.58 4.58 16 5.29 16L6.7 16C7.41 16 8 16.58 8 17.29L8 18.7C8 19.41 7.41 20 6.7 20L5.29 20C4.58 20 4 19.41 4 18.7L4 17.29ZM10 17.29C10 16.58 10.58 16 11.29 16L12.7 16C13.41 16 14 16.58 14 17.29L14 18.7C14 19.41 13.41 20 12.7 20L11.29 20C10.58 20 10 19.41 10 18.7L10 17.29ZM16 17.29C16 16.58 16.58 16 17.29 16L18.7 16C19.41 16 20 16.58 20 17.29L20 18.7C20 19.41 19.41 20 18.7 20L17.29 20C16.58 20 16 19.41 16 18.7L16 17.29ZM5.75 17.29C5.5 17.29 5.29 17.5 5.29 17.75L5.29 18.24C5.29 18.49 5.5 18.7 5.75 18.7L6.24 18.7C6.49 18.7 6.7 18.49 6.7 18.24L6.7 17.75C6.7 17.5 6.49 17.29 6.24 17.29L5.75 17.29ZM11.75 17.29C11.5 17.29 11.29 17.5 11.29 17.75L11.29 18.24C11.29 18.49 11.5 18.7 11.75 18.7L12.24 18.7C12.49 18.7 12.7 18.49 12.7 18.24L12.7 17.75C12.7 17.5 12.49 17.29 12.24 17.29L11.75 17.29ZM17.75 17.29C17.5 17.29 17.29 17.5 17.29 17.75L17.29 18.24C17.29 18.49 17.5 18.7 17.75 18.7L18.24 18.7C18.49 18.7 18.7 18.49 18.7 18.24L18.7 17.75C18.7 17.5 18.49 17.29 18.24 17.29L17.75 17.29Z" fill="#717681" fill-opacity="1.000000" fill-rule="evenodd"/>
	</g>
</svg>
