<svg width="24.000000" height="24.000000" viewBox="0 0 24 24" fill="none" xmlns="http://www.w3.org/2000/svg" xmlns:xlink="http://www.w3.org/1999/xlink">
	<desc>
			Created with Pixso.
	</desc>
	<defs>
		<clipPath id="clip17_154">
			<rect id="Solid / Drag Solid" width="24.000000" height="24.000000" fill="white" fill-opacity="0"/>
		</clipPath>
	</defs>
	<g>
		<path id="Shape" d="M3 12C3 7.02 7.02 3 12 3C16.97 3 21 7.02 21 12C21 16.97 16.97 21 12 21C7.02 21 3 16.97 3 12ZM10.7 7.5C10.7 6.78 10.11 6.2 9.39 6.2C8.68 6.2 8.1 6.78 8.1 7.5C8.1 8.21 8.68 8.79 9.39 8.79C10.11 8.79 10.7 8.21 10.7 7.5ZM10.7 12C10.7 11.28 10.11 10.7 9.39 10.7C8.68 10.7 8.1 11.28 8.1 12C8.1 12.71 8.68 13.3 9.39 13.3C10.11 13.3 10.7 12.71 10.7 12ZM9.39 15.2C10.11 15.2 10.7 15.78 10.7 16.5C10.7 17.21 10.11 17.79 9.39 17.79C8.68 17.79 8.1 17.21 8.1 16.5C8.1 15.78 8.68 15.2 9.39 15.2ZM15.89 12C15.89 11.28 15.31 10.7 14.6 10.7C13.88 10.7 13.29 11.28 13.29 12C13.29 12.71 13.88 13.3 14.6 13.3C15.31 13.3 15.89 12.71 15.89 12ZM14.6 6.2C15.31 6.2 15.89 6.78 15.89 7.5C15.89 8.21 15.31 8.79 14.6 8.79C13.88 8.79 13.29 8.21 13.29 7.5C13.29 6.78 13.88 6.2 14.6 6.2ZM15.89 16.5C15.89 15.78 15.31 15.2 14.6 15.2C13.88 15.2 13.29 15.78 13.29 16.5C13.29 17.21 13.88 17.79 14.6 17.79C15.31 17.79 15.89 17.21 15.89 16.5Z" fill="#717681" fill-opacity="1.000000" fill-rule="evenodd"/>
	</g>
</svg>
