<svg width="24.000000" height="24.000000" viewBox="0 0 24 24" fill="none" xmlns="http://www.w3.org/2000/svg" xmlns:xlink="http://www.w3.org/1999/xlink">
	<desc>
			Created with Pixso.
	</desc>
	<defs>
		<clipPath id="clip107027_924">
			<rect id="Solid / Equally Solid" width="24.000000" height="24.000000" transform="translate(24.000000 24.000000) rotate(180.000000)" fill="white" fill-opacity="0"/>
		</clipPath>
	</defs>
	<g >
		<path id="Shape" d="M12 21C7.02 21 3 16.97 3 12C3 7.02 7.02 3 12 3C16.97 3 21 7.02 21 12C21 16.97 16.97 21 12 21ZM15.34 13.1C15.7 13.1 15.99 13.39 15.99 13.75C15.99 14.11 15.7 14.4 15.34 14.4L8.65 14.4C8.29 14.4 8 14.11 8 13.75C8 13.39 8.29 13.1 8.65 13.1L15.34 13.1ZM15.34 9.59C15.7 9.59 15.99 9.88 15.99 10.24C15.99 10.6 15.7 10.89 15.34 10.89L8.65 10.89C8.29 10.89 8 10.6 8 10.24C8 9.88 8.29 9.59 8.65 9.59L15.34 9.59Z" fill="#74767B" fill-opacity="1.000000" fill-rule="evenodd"/>
	</g>
</svg>
