<svg width="24.000000" height="24.000000" viewBox="0 0 24 24" fill="none" xmlns="http://www.w3.org/2000/svg" xmlns:xlink="http://www.w3.org/1999/xlink">
	<desc>
			Created with Pixso.
	</desc>
	<defs>
		<clipPath id="clip17_135">
			<rect id="Solid / Eye Solid" width="24.000000" height="24.000000" fill="white" fill-opacity="0"/>
		</clipPath>
	</defs>
	<g >
		<path id="Shape" d="M12 5C7.27 5 4.13 8.69 2.77 10.71C2.24 11.5 2.24 12.49 2.77 13.28C4.13 15.3 7.27 19 12 19C16.72 19 19.86 15.3 21.22 13.28C21.75 12.49 21.75 11.5 21.22 10.71C19.86 8.69 16.72 5 12 5ZM12 7.34C9.43 7.34 7.34 9.43 7.34 12C7.34 14.56 9.43 16.65 12 16.65C14.56 16.65 16.64 14.56 16.64 12C16.64 9.43 14.56 7.34 12 7.34ZM11.3 9.08C11.68 8.99 12 9.31 12 9.7L12 10.7C12 11.41 12.58 12 13.29 12L14.29 12C14.68 12 15 12.31 14.91 12.69C14.6 14.01 13.41 15 12 15C10.34 15 9 13.65 9 12C9 10.58 9.98 9.39 11.3 9.08Z" fill="#74767B" fill-opacity="1.000000" fill-rule="evenodd"/>
	</g>
</svg>
