<svg width="24" height="24" viewBox="0 0 24 24" fill="none" xmlns="http://www.w3.org/2000/svg">
<path fill-rule="evenodd" clip-rule="evenodd" d="M4.38181 2.20692C4.66633 1.98801 5.07443 2.0412 5.29334 2.32572L8.01359 5.8613C9.18902 5.33623 10.5197 5.00001 12 5.00001C16.8808 5.00001 20.1338 8.65465 21.5632 10.6825C22.1262 11.4813 22.1262 12.5188 21.5632 13.3175C20.7028 14.5382 19.1815 16.3484 17.0422 17.596L19.5944 20.9131C19.8133 21.1976 19.7601 21.6057 19.4756 21.8246C19.191 22.0436 18.7829 21.9904 18.564 21.7058L4.26301 3.11845C4.0441 2.83393 4.09729 2.42583 4.38181 2.20692ZM15.9203 16.1378C17.0164 15.099 17.7 13.6294 17.7 12C17.7 8.85198 15.1481 6.30001 12 6.30001C10.9013 6.30001 9.87512 6.6109 9.00474 7.14952L10.6245 9.25477C11.02 9.06759 11.4621 8.9629 11.9287 8.9629C13.6144 8.9629 14.981 10.3294 14.981 12.0151C14.981 12.198 14.9649 12.3771 14.9341 12.5511C14.9356 12.5974 14.9309 12.6452 14.9194 12.694C14.8404 13.0274 14.7058 13.3393 14.5259 13.6193C14.4468 13.747 14.3586 13.8685 14.2622 13.9828L15.9203 16.1378ZM5.76496 7.19871C4.24441 8.34251 3.12767 9.7025 2.43688 10.6825C1.8739 11.4813 1.8739 12.5188 2.43688 13.3175C3.86626 15.3454 7.11931 19 12 19C12.916 19 13.7746 18.8713 14.5746 18.6488L13.6565 17.4556C13.1323 17.6145 12.5762 17.7 12 17.7C8.85202 17.7 6.30004 15.148 6.30004 12C6.30004 10.8997 6.61178 9.87229 7.15176 9.00116L5.76496 7.19871ZM11.8175 15.0654L11.7965 15.0646C11.7801 15.0287 11.7603 14.9939 11.7369 14.9606L11.8175 15.0654ZM5.70874 8.92729C4.76185 9.77769 4.02109 10.6914 3.49945 11.4315C3.25305 11.7811 3.25305 12.2189 3.49945 12.5685C4.02109 13.3086 4.76185 14.2223 5.70873 15.0727C5.25483 14.1451 5.00004 13.1023 5.00004 12C5.00004 10.8977 5.25483 9.8549 5.70874 8.92729ZM18.2913 8.92729C19.2382 9.77769 19.979 10.6914 20.5006 11.4315C20.747 11.7811 20.747 12.2189 20.5006 12.5685C19.979 13.3086 19.2382 14.2223 18.2913 15.0727C18.7452 14.1451 19 13.1023 19 12C19 10.8977 18.7452 9.85489 18.2913 8.92729Z" fill="#717681"/>
</svg>
