<svg width="24.000000" height="24.000000" viewBox="0 0 24 24" fill="none" xmlns="http://www.w3.org/2000/svg" xmlns:xlink="http://www.w3.org/1999/xlink">
	<desc>
			Created with Pixso.
	</desc>
	<defs>
		<clipPath id="clip6812_1399">
			<rect id="Solid / Greater or Equal Solid" width="24.000000" height="24.000000" fill="white" fill-opacity="0"/>
		</clipPath>
	</defs>
	<g >
		<path id="Shape" d="M21 12C21 7.02 16.97 3 12 3C7.02 3 3 7.02 3 12C3 16.97 7.02 21 12 21C16.97 21 21 16.97 21 12ZM9.16 14.45C9.29 14.59 9.46 14.66 9.64 14.66C9.8 14.66 9.95 14.61 10.08 14.49L13.07 11.8C13.38 11.52 13.38 11.04 13.07 10.76L10.09 8.16C9.82 7.92 9.41 7.94 9.17 8.2C8.93 8.47 8.94 8.88 9.21 9.12L11.7 11.28L9.2 13.53C8.94 13.77 8.92 14.18 9.16 14.45ZM13.99 12.67C14.26 12.43 14.67 12.45 14.91 12.72C15.15 12.98 15.13 13.39 14.86 13.63L11.78 16.4C11.52 16.64 11.11 16.62 10.87 16.36C10.63 16.09 10.65 15.68 10.91 15.44L13.99 12.67Z" fill="#74767B" fill-opacity="1.000000" fill-rule="evenodd"/>
	</g>
</svg>
