<svg width="24.000000" height="24.000000" viewBox="0 0 24 24" fill="none" xmlns="http://www.w3.org/2000/svg" xmlns:xlink="http://www.w3.org/1999/xlink">
	<desc>
			Created with Pixso.
	</desc>
	<defs>
		<clipPath id="clip17_61">
			<rect id="Solid / Help Solid" width="24.000000" height="24.000000" fill="white" fill-opacity="0"/>
		</clipPath>
	</defs>
	<g clip-path="url(#clip17_61)">
		<path id="Shape" d="M3 12C3 7.02 7.02 3 12 3C16.97 3 21 7.02 21 12C21 16.97 16.97 21 12 21C7.02 21 3 16.97 3 12ZM11.32 13.63C11.32 13.99 11.61 14.28 11.97 14.28C12.33 14.28 12.62 13.99 12.62 13.62C12.62 13.32 12.66 13.12 12.77 12.84C12.91 12.51 13.19 12.21 13.49 11.9L13.49 11.89C13.98 11.38 14.53 10.81 14.67 9.9C14.8 9.03 14.44 8.13 13.72 7.56C12.98 6.97 12 6.84 11.1 7.19C9.92 7.66 9.25 8.68 9.31 9.94C9.32 10.3 9.64 10.57 9.99 10.56C10.35 10.54 10.63 10.24 10.61 9.88C10.58 9.39 10.74 8.73 11.58 8.4C12.05 8.22 12.53 8.28 12.91 8.58C13.27 8.86 13.45 9.29 13.39 9.71C13.31 10.21 12.97 10.57 12.58 10.98L12.56 11C12.2 11.37 11.8 11.79 11.57 12.36C11.39 12.79 11.32 13.16 11.32 13.63ZM12.85 16.35C12.85 16.81 12.46 17.2 12 17.2C11.53 17.2 11.14 16.81 11.14 16.35C11.14 15.88 11.53 15.5 12 15.5C12.46 15.5 12.85 15.88 12.85 16.35Z" fill="#74767B" fill-opacity="1.000000" fill-rule="evenodd"/>
	</g>
</svg>
