<svg width="24.000000" height="24.000000" viewBox="0 0 24 24" fill="none" xmlns="http://www.w3.org/2000/svg" xmlns:xlink="http://www.w3.org/1999/xlink">
	<desc>
			Created with Pixso.
	</desc>
	<defs>
		<clipPath id="clip17_91">
			<rect id="Solid / Info Solid" width="24.000000" height="24.000000" fill="white" fill-opacity="0"/>
		</clipPath>
	</defs>
	<g >
		<path id="Shape" d="M3 12C3 7.02 7.02 3 12 3C16.97 3 21 7.02 21 12C21 16.97 16.97 21 12 21C7.02 21 3 16.97 3 12ZM12 7.25C11.53 7.25 11.14 7.63 11.14 8.09C11.14 8.56 11.53 8.95 12 8.95C12.46 8.95 12.85 8.56 12.85 8.09C12.85 7.63 12.46 7.25 12 7.25ZM14.1 16C14.1 16.41 13.76 16.75 13.35 16.75L13.29 16.75C12.16 16.75 11.25 15.83 11.25 14.7L11.25 10.95C11.25 10.53 11.58 10.2 12 10.2C12.41 10.2 12.75 10.53 12.75 10.95L12.75 14.7C12.75 15 12.99 15.25 13.29 15.25L13.35 15.25C13.76 15.25 14.1 15.58 14.1 16Z" fill="#74767B" fill-opacity="1.000000" fill-rule="evenodd"/>
	</g>
</svg>
