<svg width="24.000000" height="24.000000" viewBox="0 0 24 24" fill="none" xmlns="http://www.w3.org/2000/svg" xmlns:xlink="http://www.w3.org/1999/xlink">
	<desc>
			Created with Pixso.
	</desc>
	<defs>
		<clipPath id="clip6812_1402">
			<rect id="Outline / Interval Outline" width="24.000000" height="24.000000" fill="white" fill-opacity="0"/>
		</clipPath>
	</defs>
	<g >
		<path id="Shape" d="M18.29 10.25C18.29 9.89 18.59 9.6 18.94 9.6C19.3 9.6 19.59 9.89 19.59 10.25L19.59 12.85C19.59 13.2 19.3 13.5 18.94 13.5C18.59 13.5 18.29 13.2 18.29 12.85L18.29 12.09L4.89 12.09L4.89 12.85C4.89 13.2 4.6 13.5 4.25 13.5C3.89 13.5 3.6 13.2 3.6 12.85L3.6 11.45L3.6 10.25C3.6 9.89 3.89 9.6 4.25 9.6C4.6 9.6 4.89 9.89 4.89 10.25L4.89 10.79L18.29 10.79L18.29 10.25Z" fill="#74767B" fill-opacity="1.000000" fill-rule="evenodd"/>
	</g>
</svg>
