<svg width="24.000000" height="24.000000" viewBox="0 0 24 24" fill="none" xmlns="http://www.w3.org/2000/svg" xmlns:xlink="http://www.w3.org/1999/xlink">
	<desc>
			Created with Pixso.
	</desc>
	<defs>
		<clipPath id="clip6812_1400">
			<rect id="Outline / Less or Equal Outline" width="24.000000" height="24.000000" transform="matrix(-1 0 0 1 24 0)" fill="white" fill-opacity="0"/>
		</clipPath>
	</defs>
	<g clip-path="url(#clip6812_1400)">
		<path id="Shape" d="M8.51 11.99C8.75 11.72 9.16 11.7 9.43 11.94L13.08 15.23C13.34 15.47 13.36 15.88 13.12 16.15C12.88 16.41 12.47 16.43 12.21 16.19L8.56 12.91C8.29 12.67 8.27 12.26 8.51 11.99ZM14.35 14.42C14.53 14.42 14.7 14.35 14.83 14.21C15.07 13.94 15.05 13.53 14.79 13.29L11.29 10.14L14.78 7.12C15.05 6.88 15.06 6.47 14.82 6.2C14.58 5.94 14.17 5.92 13.9 6.16L9.92 9.62C9.61 9.9 9.61 10.38 9.92 10.66L13.91 14.25C14.04 14.37 14.19 14.42 14.35 14.42Z" fill="#74767B" fill-opacity="1.000000" fill-rule="evenodd"/>
	</g>
</svg>
