<svg width="24.000000" height="24.000000" viewBox="0 0 24 24" fill="none" xmlns="http://www.w3.org/2000/svg" xmlns:xlink="http://www.w3.org/1999/xlink">
	<desc>
			Created with Pixso.
	</desc>
	<defs>
		<clipPath id="clip17_79">
			<rect id="Outline / Menu Outline" width="24.000000" height="24.000000" fill="white" fill-opacity="0"/>
		</clipPath>
	</defs>
	<g clip-path="url(#clip17_79)">
		<path id="Shape" d="M3.99 5.74C3.99 5.38 4.28 5.09 4.64 5.09L19.35 5.09C19.71 5.09 20 5.38 20 5.74C20 6.1 19.71 6.39 19.35 6.39L4.64 6.39C4.28 6.39 3.99 6.1 3.99 5.74ZM4.64 11.35C4.28 11.35 3.99 11.64 3.99 12C3.99 12.35 4.28 12.65 4.64 12.65L19.35 12.65C19.71 12.65 20 12.35 20 12C20 11.64 19.71 11.35 19.35 11.35L4.64 11.35ZM3.99 18.36C3.99 18 4.28 17.71 4.64 17.71L19.35 17.71C19.71 17.71 20 18 20 18.36C20 18.72 19.71 19.01 19.35 19.01L4.64 19.01C4.28 19.01 3.99 18.72 3.99 18.36Z" fill="#717681" fill-opacity="1.000000" fill-rule="evenodd"/>
	</g>
</svg>
