<svg width="24" height="24" viewBox="0 0 24 24" fill="none" xmlns="http://www.w3.org/2000/svg">
<path fill-rule="evenodd" clip-rule="evenodd" d="M3.99365 5.74866C3.99365 5.38968 4.28467 5.09866 4.64365 5.09866L19.3562 5.09866C19.7152 5.09866 20.0062 5.38968 20.0062 5.74866C20.0062 6.10765 19.7152 6.39866 19.3562 6.39866L4.64365 6.39866C4.28467 6.39866 3.99365 6.10765 3.99365 5.74866Z" fill="#717681"/>
<path fill-rule="evenodd" clip-rule="evenodd" d="M3.99365 18.3649C3.99365 18.0059 4.28467 17.7149 4.64365 17.7149L19.3562 17.7149C19.7152 17.7149 20.0062 18.0059 20.0062 18.3649C20.0062 18.7239 19.7152 19.0149 19.3562 19.0149L4.64365 19.0149C4.28467 19.0149 3.99365 18.7239 3.99365 18.3649Z" fill="#717681"/>
<path fill-rule="evenodd" clip-rule="evenodd" d="M3.99369 12C3.99369 11.641 4.28471 11.35 4.64369 11.35L19.3562 11.35C19.7152 11.35 20.0062 11.641 20.0062 12C20.0062 12.359 19.7152 12.65 19.3562 12.65L4.64369 12.65C4.28471 12.65 3.99369 12.359 3.99369 12Z" fill="#717681"/>
</svg>
