<svg width="24.000000" height="24.000000" viewBox="0 0 24 24" fill="none" xmlns="http://www.w3.org/2000/svg" xmlns:xlink="http://www.w3.org/1999/xlink">
	<desc>
			Created with Pixso.
	</desc>
	<defs>
		<clipPath id="clip17_144">
			<rect id="Solid / Minus Solid" width="24.000000" height="24.000000" fill="white" fill-opacity="0"/>
		</clipPath>
	</defs>
	<g clip-path="url(#clip17_144)">
		<path id="Shape" d="M3 12C3 7.02 7.02 3 12 3C16.97 3 21 7.02 21 12C21 16.97 16.97 21 12 21C7.02 21 3 16.97 3 12ZM16.35 11.35C16.7 11.35 17 11.64 17 12C17 12.35 16.7 12.65 16.35 12.65C10.74 12.65 12.85 12.65 7.64 12.65C7.29 12.65 7 12.35 7 12C7 11.64 7.29 11.35 7.64 11.35C13.22 11.35 11.16 11.35 16.35 11.35Z" fill="#717681" fill-opacity="1.000000" fill-rule="evenodd"/>
	</g>
</svg>
