<svg width="24.000000" height="24.000000" viewBox="0 0 24 24" fill="none" xmlns="http://www.w3.org/2000/svg" xmlns:xlink="http://www.w3.org/1999/xlink">
	<desc>
			Created with Pixso.
	</desc>
	<defs>
		<clipPath id="clip6812_1397">
			<rect id="Solid / Not Equal Solid" width="24.000000" height="24.000000" transform="translate(24.000000 24.000000) rotate(180.000000)" fill="white" fill-opacity="0"/>
		</clipPath>
	</defs>
	<g >
		<path id="Shape" d="M12 21C7.02 21 3 16.97 3 12C3 7.02 7.02 3 12 3C16.97 3 21 7.02 21 12C21 16.97 16.97 21 12 21ZM13.25 8.28C13.42 7.97 13.82 7.87 14.13 8.05C14.44 8.23 14.55 8.62 14.37 8.93L13.99 9.59L15.34 9.59C15.7 9.59 15.99 9.88 15.99 10.24C15.99 10.6 15.7 10.89 15.34 10.89L13.24 10.89L11.97 13.1L15.34 13.1C15.7 13.1 15.99 13.39 15.99 13.75C15.99 14.11 15.7 14.4 15.34 14.4L11.21 14.4L10.45 15.73C10.27 16.04 9.87 16.15 9.56 15.97C9.25 15.79 9.14 15.39 9.32 15.08L9.71 14.4L8.65 14.4C8.29 14.4 8 14.11 8 13.75C8 13.39 8.29 13.1 8.65 13.1L10.46 13.1L11.74 10.89L8.65 10.89C8.29 10.89 8 10.6 8 10.24C8 9.88 8.29 9.59 8.65 9.59L12.49 9.59L13.25 8.28Z" fill="#74767B" fill-opacity="1.000000" fill-rule="evenodd"/>
	</g>
</svg>
