<svg width="24.000000" height="24.000000" viewBox="0 0 24 24" fill="none" xmlns="http://www.w3.org/2000/svg" xmlns:xlink="http://www.w3.org/1999/xlink">
	<desc>
			Created with Pixso.
	</desc>
	<defs>
		<clipPath id="clip17_160">
			<rect id="Solid / OpenShift Solid" width="24.000000" height="24.000000" transform="matrix(1 6.12323e-17 6.12323e-17 -1 0 24)" fill="white" fill-opacity="0"/>
		</clipPath>
	</defs>
	<g clip-path="url(#clip17_160)">
		<path id="Shape" d="M8.24 8.21C8.47 8.28 8.72 8.21 8.91 8.06C9.76 7.39 10.83 7 12 7C14.1 7 15.9 8.29 16.64 10.14C16.73 10.36 16.91 10.54 17.14 10.6L19.01 11.1C19.48 11.22 19.93 10.85 19.83 10.38C19.08 6.73 15.86 4 12 4C9.71 4 7.65 4.95 6.2 6.48C6.01 6.68 5.73 6.77 5.47 6.7L4.26 6.37C3.98 6.3 3.68 6.41 3.52 6.66C3.23 7.12 2.97 7.61 2.76 8.12C2.6 8.5 2.82 8.91 3.21 9.01L4.78 9.43C5.13 9.53 5.49 9.33 5.65 9.01C5.79 8.69 5.96 8.39 6.15 8.11C6.31 7.87 6.6 7.77 6.88 7.85L8.24 8.21ZM7.31 13.75C7.23 13.52 7.04 13.34 6.81 13.28L4.96 12.78C4.49 12.66 4.05 13.03 4.14 13.5C4.84 17.2 8.09 20 12 20C14.31 20 16.4 19.01 17.86 17.44C18.04 17.24 18.32 17.15 18.59 17.22L19.78 17.54C20.06 17.61 20.37 17.5 20.52 17.25C20.89 16.65 21.2 16.01 21.44 15.33L21.66 14.53C21.76 14.16 21.54 13.77 21.16 13.67L19.68 13.28C19.28 13.17 18.88 13.44 18.77 13.84C18.58 14.54 18.28 15.19 17.9 15.78C17.75 16.03 17.45 16.13 17.17 16.05L15.85 15.7C15.61 15.63 15.36 15.7 15.17 15.86C14.31 16.57 13.2 17 12 17C9.85 17 8.03 15.65 7.31 13.75Z" fill="#717681" fill-opacity="1.000000" fill-rule="evenodd"/>
	</g>
</svg>
