<svg viewBox="0 0 24 24" xmlns="http://www.w3.org/2000/svg" xmlns:xlink="http://www.w3.org/1999/xlink" width="24.000000" height="24.000000" fill="none">
	<rect id="Outline/Play Outline" width="24.000000" height="24.000000" x="0.000000" y="0.000000" />
	<path id="Shape" d="M12 21C16.9706 21 21 16.9706 21 12C21 7.02944 16.9706 3 12 3C7.02944 3 3 7.02944 3 12C3 16.9706 7.02944 21 12 21ZM12 19.7C16.2526 19.7 19.7 16.2526 19.7 12C19.7 7.74741 16.2526 4.3 12 4.3C7.74741 4.3 4.3 7.74741 4.3 12C4.3 16.2526 7.74741 19.7 12 19.7ZM11.5846 8.50771C10.7253 7.88279 9.51996 8.49659 9.51996 9.55907L9.51996 14.441C9.51996 15.5034 10.7253 16.1172 11.5846 15.4923L14.9409 13.0514C15.6547 12.5322 15.6547 11.4678 14.9409 10.9487L11.5846 8.50771ZM14.1763 12L10.82 14.441L10.82 9.55907L14.1763 12Z" fill="rgb(116,118,123)" fill-rule="evenodd" />
</svg>
