<svg width="24.000000" height="24.000000" viewBox="0 0 24 24" fill="none" xmlns="http://www.w3.org/2000/svg" xmlns:xlink="http://www.w3.org/1999/xlink">
	<desc>
			Created with Pixso.
	</desc>
	<defs>
		<clipPath id="clip17_70">
			<rect id="Outline / Plus Outline" width="24.000000" height="24.000000" fill="white" fill-opacity="0"/>
		</clipPath>
	</defs>
	<g clip-path="url(#clip17_70)">
		<path id="Shape" d="M12.64 4.99C12.64 4.64 12.35 4.34 12 4.34C11.64 4.34 11.35 4.64 11.35 4.99L11.35 11.35L5 11.35C4.64 11.35 4.35 11.64 4.35 12C4.35 12.35 4.64 12.65 5 12.65L11.35 12.65L11.35 19C11.35 19.35 11.64 19.65 12 19.65C12.35 19.65 12.64 19.35 12.64 19L12.64 12.65L19 12.65C19.35 12.65 19.64 12.35 19.64 12C19.64 11.64 19.35 11.35 19 11.35L12.64 11.35L12.64 4.99Z" fill="#717681" fill-opacity="1.000000" fill-rule="nonzero"/>
	</g>
</svg>
