<svg width="24.000000" height="24.000000" viewBox="0 0 24 24" fill="none" xmlns="http://www.w3.org/2000/svg" xmlns:xlink="http://www.w3.org/1999/xlink">
	<desc>
			Created with Pixso.
	</desc>
	<defs>
		<clipPath id="clip17_103">
			<rect id="Solid / Plus Circle Solid" width="24.000000" height="24.000000" fill="white" fill-opacity="0"/>
		</clipPath>
	</defs>
	<g >
		<path id="Shape" d="M3 12C3 7.02 7.02 3 12 3C16.97 3 21 7.02 21 12C21 16.97 16.97 21 12 21C7.02 21 3 16.97 3 12ZM12 7C12.35 7 12.64 7.29 12.64 7.64L12.64 11.35L16.35 11.35C16.7 11.35 17 11.64 17 12C17 12.35 16.7 12.65 16.35 12.65L12.64 12.65L12.64 16.35C12.64 16.7 12.35 17 12 17C11.64 17 11.35 16.7 11.35 16.35L11.35 12.65L7.64 12.65C7.29 12.65 7 12.35 7 12C7 11.64 7.29 11.35 7.64 11.35L11.35 11.35L11.35 7.64C11.35 7.29 11.64 7 12 7Z" fill="#74767B" fill-opacity="1.000000" fill-rule="evenodd"/>
	</g>
</svg>
