<svg width="24" height="24" viewBox="0 0 24 24" fill="none" xmlns="http://www.w3.org/2000/svg">
<path d="M12.6501 5C12.6501 4.64101 12.3591 4.35 12.0001 4.35C11.6411 4.35 11.3501 4.64101 11.3501 5L11.3501 11.35H5.0001C4.64111 11.35 4.3501 11.641 4.3501 12C4.3501 12.359 4.64111 12.65 5.0001 12.65H11.3501L11.3501 19C11.3501 19.359 11.6411 19.65 12.0001 19.65C12.3591 19.65 12.6501 19.359 12.6501 19V12.65H19.0001C19.3591 12.65 19.6501 12.359 19.6501 12C19.6501 11.641 19.3591 11.35 19.0001 11.35H12.6501V5Z" fill="#717681"/>
</svg>
