<svg width="24.000000" height="24.000000" viewBox="0 0 24 24" fill="none" xmlns="http://www.w3.org/2000/svg" xmlns:xlink="http://www.w3.org/1999/xlink">
	<desc>
			Created with Pixso.
	</desc>
	<defs>
		<clipPath id="clip17_64">
			<rect id="Solid / Process Solid" width="24.000000" height="24.000000" fill="white" fill-opacity="0"/>
		</clipPath>
	</defs>
	<g clip-path="url(#clip17_64)">
		<path id="Shape" d="M3.04 11.13C3 11.52 3.32 11.85 3.71 11.85L7 11.85C7.21 11.85 7.41 11.95 7.54 12.13L8.83 14.08L11.26 6.43C11.36 6.17 11.62 6 11.9 6.01C12.18 6.03 12.42 6.22 12.5 6.5L14.65 15.04L15.9 12.23C16.01 12 16.24 11.85 16.5 11.85L20.28 11.85C20.67 11.85 20.99 11.52 20.95 11.13C20.52 6.57 16.68 3 12 3C7.31 3 3.47 6.57 3.04 11.13ZM3.2 13.93C3.11 13.52 3.44 13.15 3.86 13.15L6.65 13.15L8.45 15.86C8.59 16.06 8.83 16.17 9.07 16.14C9.31 16.11 9.52 15.95 9.6 15.72L11.76 8.8L13.87 17.16C13.94 17.43 14.17 17.62 14.44 17.64C14.72 17.67 14.98 17.51 15.09 17.26L16.92 13.15L20.13 13.15C20.55 13.15 20.88 13.52 20.79 13.93C19.9 17.97 16.3 21 12 21C7.69 21 4.09 17.97 3.2 13.93Z" fill="#717681" fill-opacity="1.000000" fill-rule="evenodd"/>
	</g>
</svg>
