<svg width="24.000000" height="24.000000" viewBox="0 0 24 24" fill="none" xmlns="http://www.w3.org/2000/svg" xmlns:xlink="http://www.w3.org/1999/xlink">
	<desc>
			Created with Pixso.
	</desc>
	<defs>
		<clipPath id="clip17_67">
			<rect id="Outline / Process Outline" width="24.000000" height="24.000000" fill="white" fill-opacity="0"/>
		</clipPath>
	</defs>
	<g>
		<path id="Shape" d="M12 3C7.02 3 3 7.02 3 12C3 16.97 7.02 21 12 21C16.97 21 21 16.97 21 12C21 7.02 16.97 3 12 3ZM4.38 10.85C4.94 7.14 8.13 4.29 12 4.29C15.86 4.29 19.05 7.14 19.61 10.85L16.5 10.85C16.24 10.85 16.01 11 15.9 11.23L14.71 14.89L12.62 6.33C12.55 6.06 12.31 5.86 12.03 5.85C11.75 5.83 11.49 6 11.39 6.27L8.83 13.08L7.54 11.13C7.42 10.95 7.21 10.85 7 10.85L4.38 10.85ZM4.3 12.15C4.38 16.33 7.79 19.7 12 19.7C16.2 19.7 19.61 16.33 19.69 12.15L16.92 12.15L15.14 17.11C15.03 17.36 14.77 17.52 14.5 17.5C14.22 17.47 13.99 17.28 13.92 17.01L11.89 8.64L9.6 14.72C9.52 14.95 9.31 15.11 9.07 15.14C8.83 15.17 8.59 15.06 8.45 14.86L6.65 12.15L4.3 12.15Z" fill="#717681" fill-opacity="1.000000" fill-rule="evenodd"/>
	</g>
</svg>
