<svg width="24.000000" height="24.000000" viewBox="0 0 24 24" fill="none" xmlns="http://www.w3.org/2000/svg" xmlns:xlink="http://www.w3.org/1999/xlink">
	<desc>
			Created with Pixso.
	</desc>
	<defs>
		<clipPath id="clip125508_748">
			<rect id="Outline / Read Check Outline" width="24.000000" height="24.000000" fill="white" fill-opacity="0"/>
		</clipPath>
	</defs>
	<g clip-path="url(#clip125508_748)">
		<path id="Union" d="M19.99 9.53C20.23 9.27 20.22 8.85 19.95 8.61C19.69 8.37 19.28 8.38 19.03 8.64L12.55 15.64C12.3 15.9 12.32 16.31 12.58 16.56C12.84 16.8 13.26 16.79 13.5 16.52L19.99 9.53ZM9.96 16.52C9.69 16.81 9.23 16.82 8.95 16.54L4.67 12.31C4.42 12.06 4.42 11.64 4.67 11.39C4.92 11.14 5.34 11.14 5.59 11.39L9.43 15.18L15.48 8.66C15.72 8.39 16.14 8.38 16.4 8.62C16.66 8.86 16.68 9.27 16.44 9.54L9.96 16.52Z" fill="#74767B" fill-opacity="1.000000" fill-rule="evenodd"/>
	</g>
</svg>
