<svg width="24.000000" height="24.000000" viewBox="0 0 24 24" fill="none" xmlns="http://www.w3.org/2000/svg" xmlns:xlink="http://www.w3.org/1999/xlink">
	<desc>
			Created with Pixso.
	</desc>
	<defs>
		<clipPath id="clip111910_1198">
			<rect id="Outline / Share Outline" width="24.000000" height="24.000000" fill="white" fill-opacity="0"/>
		</clipPath>
	</defs>
	<g>
		<path id="Shape" d="M21 5.99C21 7.65 19.65 8.99 18 8.99C17.01 8.99 16.13 8.51 15.58 7.78L8.94 11.4C8.97 11.59 9 11.79 9 11.99C9 12.2 8.97 12.4 8.94 12.59L15.58 16.22C16.12 15.48 17 15 18 15C19.65 15 21 16.34 21 18C21 19.65 19.65 21 18 21C16.34 21 15 19.65 15 18C15 17.8 15.01 17.6 15.05 17.42L8.41 13.78C7.86 14.51 6.98 14.99 6 14.99C4.34 14.99 3 13.65 3 11.99C3 10.34 4.34 8.99 6 8.99C6.98 8.99 7.86 9.47 8.41 10.21L15.05 6.59C15.02 6.39 15 6.2 15 5.99C15 4.34 16.34 3 18 3C19.65 3 21 4.34 21 5.99ZM19.7 5.99C19.7 6.93 18.93 7.69 18 7.69C17.06 7.69 16.29 6.93 16.29 5.99C16.29 5.06 17.06 4.29 18 4.29C18.93 4.29 19.7 5.06 19.7 5.99ZM19.7 18C19.7 18.93 18.93 19.7 18 19.7C17.06 19.7 16.29 18.93 16.29 18C16.29 17.06 17.06 16.3 18 16.3C18.93 16.3 19.7 17.06 19.7 18ZM6 13.69C6.93 13.69 7.7 12.93 7.7 11.99C7.7 11.05 6.93 10.29 6 10.29C5.06 10.29 4.29 11.05 4.29 11.99C4.29 12.93 5.06 13.69 6 13.69Z" fill="#717681" fill-opacity="1.000000" fill-rule="evenodd"/>
	</g>
</svg>
