<svg viewBox="0 0 20 20" xmlns="http://www.w3.org/2000/svg" xmlns:xlink="http://www.w3.org/1999/xlink" width="20.000000" height="20.000000" fill="none">
	<rect id="Outline/Size Changer Horizontal Outline" width="20.000000" height="20.000000" x="0.000000" y="0.000000" />
	<path id="Shape" d="M8.15 3.34998C8.50899 3.34998 8.8 3.64099 8.8 3.99998L8.8 16C8.8 16.359 8.50899 16.65 8.15 16.65C7.79101 16.65 7.5 16.359 7.5 16L7.5 3.99998C7.5 3.64099 7.79101 3.34998 8.15 3.34998ZM11.85 3.34998C12.2089 3.34998 12.5 3.64099 12.5 3.99998L12.5 16C12.5 16.359 12.2089 16.65 11.85 16.65C11.491 16.65 11.2 16.359 11.2 16L11.2 3.99998C11.2 3.64099 11.491 3.34998 11.85 3.34998Z" fill="rgb(116,118,123)" fill-rule="evenodd" />
</svg>
