<svg width="20.000000" height="20.000000" viewBox="0 0 20 20" fill="none" xmlns="http://www.w3.org/2000/svg" xmlns:xlink="http://www.w3.org/1999/xlink">
	<desc>
			Created with Pixso.
	</desc>
	<defs>
		<clipPath id="clip6746_1218">
			<rect id="Outline / Size Changer Vertical Outline" width="20.000000" height="20.000000" fill="white" fill-opacity="0"/>
		</clipPath>
	</defs>
	<g>
		<path id="Shape" d="M3.35 8.15C3.35 7.79 3.64 7.5 4 7.5L16 7.5C16.35 7.5 16.64 7.79 16.64 8.15C16.64 8.5 16.35 8.79 16 8.79L4 8.79C3.64 8.79 3.35 8.5 3.35 8.15ZM3.35 11.85C3.35 11.49 3.64 11.2 4 11.2L16 11.2C16.35 11.2 16.64 11.49 16.64 11.85C16.64 12.2 16.35 12.49 16 12.49L4 12.49C3.64 12.49 3.35 12.2 3.35 11.85Z" fill="#717681" fill-opacity="1.000000" fill-rule="evenodd"/>
	</g>
</svg>
