<svg viewBox="0 0 20 20" xmlns="http://www.w3.org/2000/svg" xmlns:xlink="http://www.w3.org/1999/xlink" width="20.000000" height="20.000000" fill="none">
	<rect id="Outline/Size Changer Vertical Outline" width="20.000000" height="20.000000" x="0.000000" y="0.000000" />
	<path id="Shape" d="M4.0001 7.5C3.64111 7.5 3.3501 7.79102 3.3501 8.15C3.3501 8.50899 3.64111 8.8 4.0001 8.8L16.0001 8.8C16.3591 8.8 16.6501 8.50899 16.6501 8.15C16.6501 7.79101 16.3591 7.5 16.0001 7.5L4.0001 7.5ZM3.3501 11.85C3.3501 11.491 3.64111 11.2 4.0001 11.2L16.0001 11.2C16.3591 11.2 16.6501 11.491 16.6501 11.85C16.6501 12.2089 16.3591 12.5 16.0001 12.5L4.0001 12.5C3.64111 12.5 3.3501 12.2089 3.3501 11.85Z" fill="rgb(116,118,123)" fill-rule="evenodd" />
</svg>
