<svg width="24.000000" height="24.000000" viewBox="0 0 24 24" fill="none" xmlns="http://www.w3.org/2000/svg" xmlns:xlink="http://www.w3.org/1999/xlink">
	<desc>
			Created with Pixso.
	</desc>
	<defs>
		<clipPath id="clip112159_1193">
			<rect id="Solid / Structure Solid" width="24.000000" height="24.000000" fill="white" fill-opacity="0"/>
		</clipPath>
	</defs>
	<g >
		<path id="Shape" d="M12.64 8.92C13.99 8.63 15 7.43 15 6C15 4.34 13.65 3 12 3C10.34 3 9 4.34 9 6C9 7.43 10 8.63 11.35 8.92L11.35 11.35L9 11.35C6.98 11.35 5.35 12.98 5.35 15L5.35 15.07C4 15.36 3 16.56 3 18C3 19.65 4.34 21 6 21C7.65 21 9 19.65 9 18C9 16.56 7.99 15.36 6.64 15.07L6.64 15C6.64 13.7 7.7 12.65 9 12.65L15 12.65C16.29 12.65 17.35 13.7 17.35 15L17.35 15.07C16 15.36 15 16.56 15 18C15 19.65 16.34 21 18 21C19.65 21 21 19.65 21 18C21 16.56 19.99 15.36 18.64 15.07L18.64 15C18.64 12.98 17.01 11.35 15 11.35L12.64 11.35L12.64 8.92Z" fill="#74767B" fill-opacity="1.000000" fill-rule="nonzero"/>
	</g>
</svg>
