<svg width="24.000000" height="24.000000" viewBox="0 0 24 24" fill="none" xmlns="http://www.w3.org/2000/svg" xmlns:xlink="http://www.w3.org/1999/xlink">
	<desc>
			Created with Pixso.
	</desc>
	<defs>
		<clipPath id="clip17_172">
			<rect id="Outline / Thumbs Up Outline" width="24.000000" height="24.000000" fill="white" fill-opacity="0"/>
		</clipPath>
	</defs>
	<g clip-path="url(#clip17_172)">
		<path id="Shape" d="M9.71 10.68L9.71 18.68L16.68 18.68C17.46 18.68 18.14 18.15 18.33 17.38L19.64 12.1C19.91 11.02 19.1 9.97 17.99 9.97L15.84 9.97C15.44 9.97 15.06 9.78 14.81 9.46C14.56 9.14 14.48 8.73 14.58 8.33L15.01 6.65C15.07 6.41 15.1 6.16 15.1 5.91L15.1 5.42C15.1 4.8 14.6 4.3 13.99 4.3C13.37 4.3 12.87 4.8 12.87 5.42L12.87 5.52C12.87 6.43 12.55 7.32 11.96 8.01L9.71 10.68ZM8.9 9.62L10.97 7.16C11.36 6.7 11.57 6.12 11.57 5.52L11.57 5.42C11.57 4.08 12.65 2.99 13.99 2.99C15.32 2.99 16.4 4.08 16.4 5.42L16.4 6.08C16.4 6.33 16.37 6.58 16.31 6.82L15.84 8.66L17.99 8.66C19.94 8.66 21.38 10.51 20.9 12.42L19.59 17.7C19.25 19.05 18.05 19.99 16.68 19.99L5.3 19.99C4.58 19.99 4 19.41 4 18.68L4 10.93C4 10.2 4.58 9.62 5.3 9.62L8.9 9.62ZM8.38 10.93L8.38 18.68L5.3 18.68L5.3 10.93L8.38 10.93Z" fill="#74767B" fill-opacity="1.000000" fill-rule="evenodd"/>
	</g>
</svg>
