<svg width="24.000000" height="24.000000" viewBox="0 0 24 24" fill="none" xmlns="http://www.w3.org/2000/svg" xmlns:xlink="http://www.w3.org/1999/xlink">
	<desc>
			Created with Pixso.
	</desc>
	<defs>
		<clipPath id="clip109002_1168">
			<rect id="Solid / Thumbs Up Solid" width="24.000000" height="24.000000" fill="white" fill-opacity="0"/>
		</clipPath>
	</defs>
	<g>
		<path id="Shape" d="M5.3 9.62C4.58 9.62 4 10.21 4 10.93L4 18.68C4 19.41 4.58 20 5.3 20L7.08 20C7.8 20 8.39 19.41 8.39 18.68L8.39 10.93C8.39 10.21 7.8 9.62 7.08 9.62L5.3 9.62ZM9.7 10.32C9.7 10.11 9.76 9.89 9.86 9.71L11.25 7.07C11.47 6.67 11.58 6.22 11.58 5.76L11.58 5.43C11.58 4.08 12.66 3 13.99 3C15.33 3 16.41 4.08 16.41 5.43L16.41 6.08C16.41 6.33 16.37 6.58 16.31 6.82L15.84 8.66L17.99 8.66C19.95 8.66 21.38 10.51 20.9 12.42L19.59 17.71C19.26 19.05 18.06 20 16.68 20L11 20C10.29 20 9.7 19.41 9.7 18.68L9.7 10.32Z" fill="#717681" fill-opacity="1.000000" fill-rule="evenodd"/>
	</g>
</svg>
