<svg width="24.000000" height="24.000000" viewBox="0 0 24 24" fill="none" xmlns="http://www.w3.org/2000/svg" xmlns:xlink="http://www.w3.org/1999/xlink">
	<desc>
			Created with Pixso.
	</desc>
	<defs>
		<clipPath id="clip109002_1167">
			<rect id="Solid / Thumbs Down Solid" width="24.000000" height="24.000000" fill="white" fill-opacity="0"/>
		</clipPath>
	</defs>
	<g >
		<path id="Shape" d="M19.7 14.37C20.42 14.37 21 13.78 21 13.06L21 5.31C21 4.58 20.42 4 19.7 4L17.9 4C17.18 4 16.6 4.58 16.6 5.31L16.6 13.06C16.6 13.78 17.18 14.37 17.9 14.37L19.7 14.37ZM15.28 13.67C15.28 13.88 15.23 14.1 15.13 14.28L13.73 16.92C13.52 17.32 13.41 17.77 13.41 18.23L13.41 18.56C13.41 19.91 12.33 21 10.99 21C9.66 21 8.58 19.91 8.58 18.56L8.58 17.91C8.58 17.66 8.61 17.41 8.67 17.17L9.14 15.33L7 15.33C5.04 15.33 3.61 13.48 4.09 11.57L5.4 6.28C5.73 4.94 6.93 4 8.31 4L13.98 4C14.7 4 15.28 4.58 15.28 5.31L15.28 13.67Z" fill="#74767B" fill-opacity="1.000000" fill-rule="evenodd"/>
	</g>
</svg>
