<svg width="40.000000" height="40.000000" viewBox="0 0 40 40" fill="none" xmlns="http://www.w3.org/2000/svg" xmlns:xlink="http://www.w3.org/1999/xlink">
	<desc>
			Created with Pixso.
	</desc>
	<defs/>
	<rect id="Broker" width="40.000000" height="40.000000" fill="#FFFFFF" fill-opacity="0"/>
	<rect id="BG" x="1.000000" y="6.000000" rx="4.000000" width="38.000000" height="28.000000" fill="#35383F" fill-opacity="1.000000"/>
	<path id="Union" d="M27.56 16.19C27.4 16.05 27.18 15.98 26.96 16L23.3 16.39C22.87 16.44 22.56 16.83 22.6 17.26C22.65 17.69 23.04 18 23.47 17.96L25.13 17.78L20.81 22.1L17.35 18.64C17.21 18.49 17.01 18.41 16.8 18.41C16.59 18.41 16.39 18.49 16.24 18.64L12.23 22.65C11.92 22.96 11.92 23.46 12.23 23.76C12.53 24.07 13.03 24.07 13.34 23.76L16.8 20.31L20.26 23.76C20.4 23.91 20.6 24 20.81 24C21.02 24 21.22 23.91 21.37 23.76L26.27 18.86L26.29 20.38C26.29 20.81 26.64 21.16 27.08 21.16C27.51 21.15 27.86 20.8 27.86 20.36L27.83 16.77C27.83 16.55 27.73 16.34 27.56 16.19Z" fill="#FFFFFF" fill-opacity="1.000000" fill-rule="evenodd"/>
</svg>
