<svg viewBox="0 0 40 40" xmlns="http://www.w3.org/2000/svg" xmlns:xlink="http://www.w3.org/1999/xlink" width="40.000000" height="40.000000" fill="none" customFrame="#000000">
	<rect id="IIS" width="40.000000" height="40.000000" x="0.000000" y="0.000000" fill="rgb(255,255,255)" fill-opacity="0" />
	<rect id="BG" width="38.000000" height="28.000000" x="1.000000" y="6.000000" rx="4.000000" fill="rgb(55,56,59)" />
	<g id="Group 6742">
		<rect id="Rectangle 2735" width="8.150223" height="1.700000" x="0.000000" y="0.000000" rx="0.850000" fill="rgb(255,255,255)" transform="matrix(-4.37114e-08,-1,1,-4.37114e-08,13.3,28)" />
		<rect id="Rectangle 2733" width="16.000000" height="1.700000" x="0.000000" y="0.000000" rx="0.850000" fill="rgb(255,255,255)" transform="matrix(-4.37114e-08,-1,1,-4.37114e-08,21.1001,28)" />
		<rect id="Rectangle 2736" width="10.043109" height="1.700000" x="0.000000" y="0.000000" rx="0.850000" fill="rgb(255,255,255)" transform="matrix(-2.8737e-08,-1,1,-6.64888e-08,17.2,25.0216)" />
		<rect id="Rectangle 2734" width="10.043110" height="1.700000" x="0.000000" y="0.000000" rx="0.850000" fill="rgb(255,255,255)" transform="matrix(-2.8737e-08,-1,1,-6.64888e-08,25,25.0215)" />
	</g>
</svg>
