<svg width="40.000000" height="40.000000" viewBox="0 0 40 40" fill="none" xmlns="http://www.w3.org/2000/svg" xmlns:xlink="http://www.w3.org/1999/xlink">
	<desc>
			Created with Pixso.
	</desc>
	<defs/>
	<rect id="Payments Master RUB" width="40.000000" height="40.000000" fill="#FFFFFF" fill-opacity="0"/>
	<rect id="BG" x="1.000000" y="6.000000" rx="4.000000" width="38.000000" height="28.000000" fill="#35383F" fill-opacity="1.000000"/>
	<path id="Union" d="M16.03 13.86C16.03 13.38 16.42 13 16.9 13L21.34 13C23.79 13 25.77 14.98 25.77 17.43C25.77 19.88 23.79 21.86 21.34 21.86L17.76 21.86L17.76 23.26L21.79 23.26C22.27 23.26 22.66 23.65 22.66 24.13C22.66 24.61 22.27 25 21.79 25L17.76 25L17.76 26.13C17.76 26.61 17.37 27 16.9 27C16.42 27 16.03 26.61 16.03 26.13L16.03 25L15.09 25C14.61 25 14.23 24.61 14.23 24.13C14.23 23.65 14.61 23.26 15.09 23.26L16.03 23.26L16.03 21.86L15.1 21.86C14.62 21.86 14.23 21.47 14.23 20.99C14.23 20.52 14.62 20.13 15.1 20.13L16.03 20.13L16.03 13.86ZM17.76 20.13L21.34 20.13C22.83 20.13 24.04 18.92 24.04 17.43C24.04 15.94 22.83 14.73 21.34 14.73L17.76 14.73L17.76 20.13Z" fill="#FFFFFF" fill-opacity="1.000000" fill-rule="evenodd"/>
</svg>
