<svg width="40.000000" height="40.000000" viewBox="0 0 40 40" fill="none" xmlns="http://www.w3.org/2000/svg" xmlns:xlink="http://www.w3.org/1999/xlink">
	<desc>
			Created with Pixso.
	</desc>
	<defs/>
	<rect id="Payments Master JPY" rx="-0.500000" width="39.000000" height="39.000000" transform="translate(0.500000 0.500000)" fill="#FFFFFF" fill-opacity="0"/>
	<rect id="BG" x="1.000000" y="6.000000" rx="4.000000" width="38.000000" height="28.000000" fill="#37383B" fill-opacity="1.000000"/>
	<path id="Union" d="M14.5587 13.2061C14.9435 12.889 15.5125 12.9439 15.8295 13.3287L19.9939 18.3824L24.1583 13.3287C24.4753 12.9439 25.0443 12.889 25.4291 13.2061C25.8138 13.5232 25.8688 14.0921 25.5518 14.4769L21.1622 19.8038L23.2562 19.8038C23.7548 19.8038 24.1591 20.2079 24.1591 20.7065C24.1591 21.2051 23.7548 21.6093 23.2562 21.6093L20.8967 21.6093L20.8967 23.0359L23.2562 23.0359C23.7548 23.0359 24.1591 23.4401 24.1591 23.9387C24.1591 24.4373 23.7548 24.8414 23.2562 24.8414L20.8967 24.8414L20.8967 26.0972C20.8967 26.5958 20.4924 27 19.9939 27C19.4954 27 19.0911 26.5958 19.0911 26.0972L19.0911 24.8414L16.7316 24.8414C16.2329 24.8414 15.8287 24.4373 15.8287 23.9387C15.8287 23.4401 16.2329 23.0359 16.7316 23.0359L19.0911 23.0359L19.0911 21.6093L16.7316 21.6093C16.2329 21.6093 15.8287 21.2051 15.8287 20.7065C15.8287 20.2079 16.2329 19.8038 16.7316 19.8038L18.8256 19.8038L14.436 14.4769C14.119 14.0921 14.174 13.5232 14.5587 13.2061Z" clip-rule="evenodd" fill="#FFFFFF" fill-opacity="1.000000" fill-rule="evenodd"/>
</svg>
