<svg width="40.000000" height="40.000000" viewBox="0 0 40 40" fill="none" xmlns="http://www.w3.org/2000/svg" xmlns:xlink="http://www.w3.org/1999/xlink">
	<desc>
			Created with Pixso.
	</desc>
	<defs/>
	<rect id="Payments Master GBR" rx="-0.500000" width="39.000000" height="39.000000" transform="translate(0.500000 0.500000)" fill="#FFFFFF" fill-opacity="0"/>
	<rect id="BG" x="1.000000" y="6.000000" rx="4.000000" width="38.000000" height="28.000000" fill="#37383B" fill-opacity="1.000000"/>
	<path id="Union" d="M21.3 13.01C22.35 12.93 23.51 13.23 24.25 13.95C24.63 14.31 24.64 14.92 24.27 15.3C23.91 15.68 23.3 15.69 22.92 15.32C22.67 15.09 22.11 14.87 21.43 14.92C20.79 14.96 20.23 15.23 19.93 15.7C19.56 16.26 19.45 16.84 19.46 17.66C19.46 18.04 19.49 18.43 19.52 18.9L19.54 19.09C19.55 19.27 19.56 19.46 19.57 19.66L21.94 19.66C22.47 19.66 22.9 20.08 22.9 20.61C22.9 21.14 22.47 21.57 21.94 21.57L19.58 21.57C19.47 22.87 19.07 23.99 18.54 24.87C18.5 24.94 18.45 25.01 18.41 25.08L24.37 25.08C24.89 25.08 25.32 25.51 25.32 26.04C25.32 26.57 24.89 26.99 24.37 26.99L15.95 27C15.48 27 15.08 26.66 15.01 26.19C14.93 25.73 15.2 25.28 15.64 25.13C15.91 25.04 16.43 24.66 16.9 23.88C17.26 23.28 17.56 22.49 17.66 21.57L16.01 21.57C15.48 21.57 15.05 21.14 15.05 20.61C15.05 20.08 15.48 19.66 16.01 19.66L17.65 19.66C17.65 19.51 17.64 19.36 17.63 19.22L17.61 19.03C17.58 18.57 17.55 18.12 17.55 17.68C17.54 16.67 17.67 15.65 18.33 14.65C19.05 13.55 20.23 13.08 21.3 13.01Z" fill="#FFFFFF" fill-opacity="1.000000" fill-rule="nonzero"/>
</svg>
