<svg width="40.000000" height="40.000000" viewBox="0 0 40 40" fill="none" xmlns="http://www.w3.org/2000/svg" xmlns:xlink="http://www.w3.org/1999/xlink">
	<desc>
			Created with Pixso.
	</desc>
	<defs/>
	<rect id="Payments Master USD" rx="-0.500000" width="39.000000" height="39.000000" transform="translate(0.500000 0.500000)" fill="#FFFFFF" fill-opacity="0"/>
	<rect id="BG" x="1.000000" y="6.000000" rx="4.000000" width="38.000000" height="28.000000" fill="#37383B" fill-opacity="1.000000"/>
	<path id="Union" d="M18.91 13.89C17.34 14.27 16.39 15.56 16.31 16.97C16.22 18.68 17.41 20.34 19.74 20.73C20.77 20.9 21.4 21.27 21.76 21.64C22.1 22.01 22.22 22.42 22.19 22.8C22.12 23.53 21.4 24.43 19.88 24.43C19.08 24.43 18.57 24.1 18.26 23.72C17.9 23.3 17.8 22.85 17.8 22.73C17.8 22.25 17.41 21.86 16.93 21.86C16.45 21.86 16.07 22.25 16.07 22.73C16.07 23.31 16.35 24.15 16.93 24.84C17.39 25.38 18.04 25.85 18.91 26.05L18.91 27.13C18.91 27.61 19.3 28 19.78 28C20.26 28 20.64 27.61 20.64 27.13L20.64 26.11C22.49 25.82 23.77 24.53 23.91 22.96C23.99 22.07 23.7 21.18 23.02 20.45C22.34 19.74 21.33 19.24 20.02 19.02C18.48 18.76 18.01 17.81 18.05 17.06C18.09 16.28 18.68 15.51 19.88 15.51C20.67 15.51 21.1 15.82 21.37 16.18C21.67 16.58 21.78 17.08 21.78 17.39C21.78 17.87 22.17 18.26 22.65 18.26C23.13 18.26 23.52 17.87 23.52 17.39C23.52 16.77 23.31 15.89 22.76 15.14C22.3 14.52 21.6 14.02 20.64 13.84L20.64 12.86C20.64 12.38 20.26 12 19.78 12C19.3 12 18.91 12.38 18.91 12.86L18.91 13.89Z" fill="#FFFFFF" fill-opacity="1.000000" fill-rule="nonzero"/>
</svg>
