<svg width="40" height="40" viewBox="0 0 40 40" fill="none" xmlns="http://www.w3.org/2000/svg">
<rect x="1" y="6" width="38" height="28" rx="4" fill="#35383F"/>
<path fill-rule="evenodd" clip-rule="evenodd" d="M27.5686 16.199C27.4028 16.0514 27.1823 15.9808 26.9615 16.0045L23.3068 16.3981C22.875 16.4446 22.5626 16.8324 22.6092 17.2642C22.6557 17.696 23.0434 18.0083 23.4752 17.9618L25.1362 17.7829L20.8175 22.1016L17.3579 18.642C17.2104 18.4945 17.0104 18.4117 16.8019 18.4117C16.5933 18.4117 16.3933 18.4945 16.2458 18.642L12.2302 22.6576C11.9231 22.9647 11.9231 23.4626 12.2302 23.7697C12.5373 24.0768 13.0352 24.0768 13.3423 23.7697L16.8019 20.3101L20.2615 23.7697C20.4089 23.9172 20.609 24 20.8175 24C21.0261 24 21.2261 23.9172 21.3735 23.7697L26.2775 18.8658L26.2907 20.3809C26.2944 20.8152 26.6496 21.1641 27.0838 21.1604C27.5181 21.1566 27.8671 20.8015 27.8633 20.3672L27.832 16.7795C27.8301 16.5575 27.7344 16.3466 27.5686 16.199Z" fill="white"/>
</svg>
