<svg width="40" height="40" viewBox="0 0 40 40" fill="none" xmlns="http://www.w3.org/2000/svg">
<rect x="1" y="6" width="38" height="28" rx="4" fill="#2B313B"/>
<path d="M18.914 13.8901C17.3463 14.2723 16.3944 15.5679 16.3189 16.9748C16.2271 18.6867 17.4189 20.3493 19.7458 20.7355C20.7782 20.9068 21.4083 21.2752 21.7612 21.6495C22.1082 22.0174 22.2254 22.4268 22.1912 22.8024C22.1241 23.5379 21.4016 24.4326 19.8878 24.4326C19.0809 24.4326 18.5781 24.1005 18.2606 23.7232C17.9089 23.3053 17.8048 22.8562 17.8048 22.732C17.8048 22.2529 17.4164 21.8646 16.9373 21.8646C16.4583 21.8646 16.0699 22.2529 16.0699 22.732C16.0699 23.3164 16.3535 24.1513 16.9333 24.8402C17.39 25.383 18.0451 25.8527 18.914 26.0576V27.1326C18.914 27.6117 19.3023 28 19.7814 28C20.2604 28 20.6488 27.6117 20.6488 27.1326V26.1107C22.496 25.8293 23.7753 24.5325 23.9188 22.96C23.9993 22.0777 23.7035 21.1805 23.0234 20.4593C22.3493 19.7445 21.3384 19.2412 20.0298 19.024C18.4894 18.7684 18.0112 17.8132 18.0512 17.0677C18.093 16.2885 18.6896 15.5115 19.8878 15.5115C20.67 15.5115 21.1077 15.8254 21.3753 16.1852C21.6723 16.5845 21.786 17.0845 21.786 17.3997C21.786 17.8788 22.1744 18.2671 22.6534 18.2671C23.1325 18.2671 23.5208 17.8788 23.5208 17.3997C23.5208 16.77 23.3194 15.8922 22.7673 15.1499C22.3018 14.524 21.6032 14.0201 20.6488 13.844V12.8674C20.6488 12.3883 20.2604 12 19.7814 12C19.3023 12 18.914 12.3883 18.914 12.8674V13.8901Z" fill="white"/>
</svg>
