<svg width="40" height="40" viewBox="0 0 40 40" fill="none" xmlns="http://www.w3.org/2000/svg">
<rect x="1" y="6" width="38" height="28" rx="4" fill="#2B313B"/>
<path d="M15.8295 13.3287C15.5124 12.9439 14.9435 12.889 14.5587 13.2061C14.1739 13.5232 14.119 14.0921 14.4361 14.4769L18.8256 19.8038H16.7316C16.233 19.8038 15.8288 20.2079 15.8288 20.7065C15.8288 21.2051 16.233 21.6093 16.7316 21.6093H19.0911V23.0359H16.7316C16.233 23.0359 15.8288 23.4401 15.8288 23.9387C15.8288 24.4373 16.233 24.8415 16.7316 24.8415H19.0911V26.0972C19.0911 26.5958 19.4953 27 19.9939 27C20.4925 27 20.8967 26.5958 20.8967 26.0972V24.8415H23.2562C23.7548 24.8415 24.159 24.4373 24.159 23.9387C24.159 23.4401 23.7548 23.0359 23.2562 23.0359H20.8967V21.6093H23.2562C23.7548 21.6093 24.159 21.2051 24.159 20.7065C24.159 20.2079 23.7548 19.8038 23.2562 19.8038H21.1622L25.5517 14.4769C25.8688 14.0921 25.8139 13.5232 25.4291 13.2061C25.0443 12.889 24.4754 12.9439 24.1583 13.3287L19.9939 18.3824L15.8295 13.3287Z" fill="white"/>
</svg>
